{
  "header": {
    "keySignatures": [],
    "meta": [],
    "name": "bamboo_midi",
    "ppq": 480,
    "tempos": [
      {
        "bpm": 150.0003750009375,
        "ticks": 0
      },
      {
        "bpm": 150.0003750009375,
        "ticks": 15840
      },
      {
        "bpm": 219.00048180105998,
        "ticks": 15840
      },
      {
        "bpm": 180.00018000018,
        "ticks": 35040
      },
      {
        "bpm": 130.00013000013,
        "ticks": 42240
      },
      {
        "bpm": 142.0000710000355,
        "ticks": 47040
      },
      {
        "bpm": 155.00031000062,
        "ticks": 51360
      },
      {
        "bpm": 165.000165000165,
        "ticks": 55680
      },
      {
        "bpm": 175.00007291669704,
        "ticks": 57600
      },
      {
        "bpm": 183.0004758012371,
        "ticks": 60000
      },
      {
        "bpm": 195.000195000195,
        "ticks": 63840
      },
      {
        "bpm": 200,
        "ticks": 67680
      },
      {
        "bpm": 205.00064916872236,
        "ticks": 69600
      },
      {
        "bpm": 215.00059125162593,
        "ticks": 71534
      },
      {
        "bpm": 219.00048180105998,
        "ticks": 73440
      },
      {
        "bpm": 195.000195000195,
        "ticks": 75360
      },
      {
        "bpm": 219.00048180105998,
        "ticks": 78240
      },
      {
        "bpm": 217.00054611804106,
        "ticks": 109920
      },
      {
        "bpm": 205.00064916872236,
        "ticks": 110400
      },
      {
        "bpm": 195.000195000195,
        "ticks": 110880
      },
      {
        "bpm": 183.0004758012371,
        "ticks": 111360
      },
      {
        "bpm": 115.00002875000719,
        "ticks": 171360
      },
      {
        "bpm": 160,
        "ticks": 172320
      },
      {
        "bpm": 195.000195000195,
        "ticks": 173280
      },
      {
        "bpm": 220.00022000022,
        "ticks": 174240
      },
      {
        "bpm": 235.0001370834133,
        "ticks": 175200
      },
      {
        "bpm": 255.00012750006374,
        "ticks": 176160
      },
      {
        "bpm": 275.0010312538672,
        "ticks": 176880
      },
      {
        "bpm": 300,
        "ticks": 190560
      },
      {
        "bpm": 305.00048291743127,
        "ticks": 192247
      },
      {
        "bpm": 315.000315000315,
        "ticks": 192247
      },
      {
        "bpm": 275.0010312538672,
        "ticks": 206880
      },
      {
        "bpm": 200,
        "ticks": 207360
      },
      {
        "bpm": 130.00013000013,
        "ticks": 207600
      },
      {
        "bpm": 185.000185000185,
        "ticks": 207840
      },
      {
        "bpm": 215.00059125162593,
        "ticks": 208800
      },
      {
        "bpm": 230.00049833441307,
        "ticks": 209760
      },
      {
        "bpm": 250,
        "ticks": 210720
      },
      {
        "bpm": 270.00027000027,
        "ticks": 211680
      },
      {
        "bpm": 285.00042750064125,
        "ticks": 212640
      },
      {
        "bpm": 300,
        "ticks": 213600
      },
      {
        "bpm": 315.000315000315,
        "ticks": 214560
      },
      {
        "bpm": 5,
        "ticks": 215400
      },
      {
        "bpm": 219.00048180105998,
        "ticks": 215520
      }
    ],
    "timeSignatures": [
      {
        "ticks": 0,
        "timeSignature": [
          4,
          4
        ],
        "measures": 0
      },
      {
        "ticks": 5760,
        "timeSignature": [
          5,
          4
        ],
        "measures": 3
      },
      {
        "ticks": 8160,
        "timeSignature": [
          4,
          4
        ],
        "measures": 4
      },
      {
        "ticks": 42720,
        "timeSignature": [
          9,
          4
        ],
        "measures": 22
      },
      {
        "ticks": 60000,
        "timeSignature": [
          4,
          4
        ],
        "measures": 26
      }
    ]
  },
  "tracks": [
    {
      "channel": 0,
      "controlChanges": {},
      "pitchBends": [],
      "instrument": {
        "family": "piano",
        "number": 0,
        "name": "acoustic grand piano"
      },
      "name": "01_picoM",
      "notes": [
        {
          "duration": 0.399999,
          "durationTicks": 480,
          "midi": 78,
          "name": "F#5",
          "ticks": 960,
          "time": 0.799998,
          "velocity": 0.7874015748031497
        },
        {
          "duration": 0.09999975000000005,
          "durationTicks": 120,
          "midi": 90,
          "name": "F#6",
          "ticks": 1440,
          "time": 1.199997,
          "velocity": 0.7874015748031497
        },
        {
          "duration": 0.07999980000000018,
          "durationTicks": 96,
          "midi": 83,
          "name": "B5",
          "ticks": 1920,
          "time": 1.599996,
          "velocity": 0.7874015748031497
        },
        {
          "duration": 0.07999979999999995,
          "durationTicks": 96,
          "midi": 78,
          "name": "F#5",
          "ticks": 2208,
          "time": 1.8399953999999998,
          "velocity": 0.7874015748031497
        },
        {
          "duration": 0.07999980000000018,
          "durationTicks": 96,
          "midi": 80,
          "name": "G#5",
          "ticks": 2304,
          "time": 1.9199951999999998,
          "velocity": 0.7874015748031497
        },
        {
          "duration": 0.07999979999999995,
          "durationTicks": 96,
          "midi": 81,
          "name": "A5",
          "ticks": 2496,
          "time": 2.0799948,
          "velocity": 0.7874015748031497
        },
        {
          "duration": 0.0799998000000004,
          "durationTicks": 96,
          "midi": 82,
          "name": "A#5",
          "ticks": 2688,
          "time": 2.2399943999999996,
          "velocity": 0.7874015748031497
        },
        {
          "duration": 0.07999979999999995,
          "durationTicks": 96,
          "midi": 83,
          "name": "B5",
          "ticks": 2880,
          "time": 2.399994,
          "velocity": 0.7874015748031497
        },
        {
          "duration": 0.07999979999999995,
          "durationTicks": 96,
          "midi": 78,
          "name": "F#5",
          "ticks": 3168,
          "time": 2.6399934,
          "velocity": 0.7874015748031497
        },
        {
          "duration": 0.07999979999999995,
          "durationTicks": 96,
          "midi": 80,
          "name": "G#5",
          "ticks": 3264,
          "time": 2.7199931999999998,
          "velocity": 0.7874015748031497
        },
        {
          "duration": 0.07999979999999995,
          "durationTicks": 96,
          "midi": 81,
          "name": "A5",
          "ticks": 3456,
          "time": 2.8799928,
          "velocity": 0.7874015748031497
        },
        {
          "duration": 0.0799998000000004,
          "durationTicks": 96,
          "midi": 82,
          "name": "A#5",
          "ticks": 3648,
          "time": 3.0399923999999996,
          "velocity": 0.7874015748031497
        },
        {
          "duration": 0.07999979999999951,
          "durationTicks": 96,
          "midi": 83,
          "name": "B5",
          "ticks": 3840,
          "time": 3.199992,
          "velocity": 0.7874015748031497
        },
        {
          "duration": 0.0799998000000004,
          "durationTicks": 96,
          "midi": 78,
          "name": "F#5",
          "ticks": 4128,
          "time": 3.4399914,
          "velocity": 0.7874015748031497
        },
        {
          "duration": 0.07999979999999995,
          "durationTicks": 96,
          "midi": 80,
          "name": "G#5",
          "ticks": 4224,
          "time": 3.5199912,
          "velocity": 0.6220472440944882
        },
        {
          "duration": 0.0799998000000004,
          "durationTicks": 96,
          "midi": 81,
          "name": "A5",
          "ticks": 4416,
          "time": 3.6799907999999997,
          "velocity": 0.7874015748031497
        },
        {
          "duration": 0.07999980000000084,
          "durationTicks": 96,
          "midi": 82,
          "name": "A#5",
          "ticks": 4608,
          "time": 3.8399903999999996,
          "velocity": 0.7874015748031497
        },
        {
          "duration": 0.06666649999999974,
          "durationTicks": 80,
          "midi": 83,
          "name": "B5",
          "ticks": 4800,
          "time": 3.99999,
          "velocity": 0.7874015748031497
        },
        {
          "duration": 0.08249979375000027,
          "durationTicks": 99,
          "midi": 85,
          "name": "C#6",
          "ticks": 4960,
          "time": 4.133323,
          "velocity": 0.7874015748031497
        },
        {
          "duration": 0.0799998000000004,
          "durationTicks": 96,
          "midi": 87,
          "name": "D#6",
          "ticks": 5120,
          "time": 4.266655999999999,
          "velocity": 0.7874015748031497
        },
        {
          "duration": 0.07999979999999951,
          "durationTicks": 96,
          "midi": 85,
          "name": "C#6",
          "ticks": 5280,
          "time": 4.399989,
          "velocity": 0.7874015748031497
        },
        {
          "duration": 0.06666650000000018,
          "durationTicks": 80,
          "midi": 83,
          "name": "B5",
          "ticks": 5440,
          "time": 4.533322,
          "velocity": 0.7874015748031497
        },
        {
          "duration": 0.0799998000000004,
          "durationTicks": 96,
          "midi": 82,
          "name": "A#5",
          "ticks": 5600,
          "time": 4.6666549999999996,
          "velocity": 0.7874015748031497
        },
        {
          "duration": 0.07999979999999951,
          "durationTicks": 96,
          "midi": 84,
          "name": "C6",
          "ticks": 5760,
          "time": 4.799988,
          "velocity": 0.7874015748031497
        },
        {
          "duration": 0.07999980000000129,
          "durationTicks": 96,
          "midi": 79,
          "name": "G5",
          "ticks": 6048,
          "time": 5.039987399999999,
          "velocity": 0.7874015748031497
        },
        {
          "duration": 0.07999979999999951,
          "durationTicks": 96,
          "midi": 81,
          "name": "A5",
          "ticks": 6144,
          "time": 5.119987200000001,
          "velocity": 0.7874015748031497
        },
        {
          "duration": 0.0799998000000004,
          "durationTicks": 96,
          "midi": 82,
          "name": "A#5",
          "ticks": 6336,
          "time": 5.2799868,
          "velocity": 0.7874015748031497
        },
        {
          "duration": 0.0799998000000004,
          "durationTicks": 96,
          "midi": 83,
          "name": "B5",
          "ticks": 6528,
          "time": 5.4399863999999996,
          "velocity": 0.7874015748031497
        },
        {
          "duration": 0.0799998000000004,
          "durationTicks": 96,
          "midi": 84,
          "name": "C6",
          "ticks": 6720,
          "time": 5.5999859999999995,
          "velocity": 0.7874015748031497
        },
        {
          "duration": 0.0799998000000004,
          "durationTicks": 96,
          "midi": 79,
          "name": "G5",
          "ticks": 7008,
          "time": 5.8399854,
          "velocity": 0.7874015748031497
        },
        {
          "duration": 0.07999979999999951,
          "durationTicks": 96,
          "midi": 81,
          "name": "A5",
          "ticks": 7104,
          "time": 5.9199852,
          "velocity": 0.7874015748031497
        },
        {
          "duration": 0.07999980000000129,
          "durationTicks": 96,
          "midi": 82,
          "name": "A#5",
          "ticks": 7296,
          "time": 6.079984799999999,
          "velocity": 0.7874015748031497
        },
        {
          "duration": 0.0799998000000004,
          "durationTicks": 96,
          "midi": 83,
          "name": "B5",
          "ticks": 7488,
          "time": 6.2399844,
          "velocity": 0.7874015748031497
        },
        {
          "duration": 0.07999979999999951,
          "durationTicks": 96,
          "midi": 84,
          "name": "C6",
          "ticks": 7680,
          "time": 6.399984,
          "velocity": 0.7874015748031497
        },
        {
          "duration": 0.07999979999999951,
          "durationTicks": 96,
          "midi": 83,
          "name": "B5",
          "ticks": 8160,
          "time": 6.799983,
          "velocity": 0.7874015748031497
        },
        {
          "duration": 0.07999979999999951,
          "durationTicks": 96,
          "midi": 78,
          "name": "F#5",
          "ticks": 8448,
          "time": 7.0399824,
          "velocity": 0.7874015748031497
        },
        {
          "duration": 0.0799998000000004,
          "durationTicks": 96,
          "midi": 80,
          "name": "G#5",
          "ticks": 8544,
          "time": 7.1199822,
          "velocity": 0.7874015748031497
        },
        {
          "duration": 0.07999979999999951,
          "durationTicks": 96,
          "midi": 81,
          "name": "A5",
          "ticks": 8736,
          "time": 7.2799818,
          "velocity": 0.7874015748031497
        },
        {
          "duration": 0.07999979999999951,
          "durationTicks": 96,
          "midi": 82,
          "name": "A#5",
          "ticks": 8928,
          "time": 7.439981400000001,
          "velocity": 0.7874015748031497
        },
        {
          "duration": 0.07999979999999951,
          "durationTicks": 96,
          "midi": 83,
          "name": "B5",
          "ticks": 9120,
          "time": 7.599981,
          "velocity": 0.7874015748031497
        },
        {
          "duration": 0.07999979999999951,
          "durationTicks": 96,
          "midi": 78,
          "name": "F#5",
          "ticks": 9408,
          "time": 7.839980400000001,
          "velocity": 0.7874015748031497
        },
        {
          "duration": 0.07999979999999951,
          "durationTicks": 96,
          "midi": 80,
          "name": "G#5",
          "ticks": 9504,
          "time": 7.9199802,
          "velocity": 0.7874015748031497
        },
        {
          "duration": 0.07999979999999951,
          "durationTicks": 96,
          "midi": 81,
          "name": "A5",
          "ticks": 9696,
          "time": 8.0799798,
          "velocity": 0.7874015748031497
        },
        {
          "duration": 0.07999979999999951,
          "durationTicks": 96,
          "midi": 82,
          "name": "A#5",
          "ticks": 9888,
          "time": 8.239979400000001,
          "velocity": 0.7874015748031497
        },
        {
          "duration": 0.07999979999999951,
          "durationTicks": 96,
          "midi": 84,
          "name": "C6",
          "ticks": 10080,
          "time": 8.399979,
          "velocity": 0.7874015748031497
        },
        {
          "duration": 0.07999979999999951,
          "durationTicks": 96,
          "midi": 79,
          "name": "G5",
          "ticks": 10368,
          "time": 8.6399784,
          "velocity": 0.7874015748031497
        },
        {
          "duration": 0.07999979999999951,
          "durationTicks": 96,
          "midi": 81,
          "name": "A5",
          "ticks": 10464,
          "time": 8.7199782,
          "velocity": 0.6220472440944882
        },
        {
          "duration": 0.07999979999999951,
          "durationTicks": 96,
          "midi": 82,
          "name": "A#5",
          "ticks": 10656,
          "time": 8.879977799999999,
          "velocity": 0.7874015748031497
        },
        {
          "duration": 0.07999980000000129,
          "durationTicks": 96,
          "midi": 83,
          "name": "B5",
          "ticks": 10848,
          "time": 9.0399774,
          "velocity": 0.7874015748031497
        },
        {
          "duration": 0.07999979999999951,
          "durationTicks": 96,
          "midi": 85,
          "name": "C#6",
          "ticks": 11040,
          "time": 9.199977,
          "velocity": 0.7874015748031497
        },
        {
          "duration": 0.07999979999999951,
          "durationTicks": 96,
          "midi": 81,
          "name": "A5",
          "ticks": 11328,
          "time": 9.4399764,
          "velocity": 0.7874015748031497
        },
        {
          "duration": 0.07999979999999951,
          "durationTicks": 96,
          "midi": 83,
          "name": "B5",
          "ticks": 11424,
          "time": 9.5199762,
          "velocity": 0.6220472440944882
        },
        {
          "duration": 0.07999979999999951,
          "durationTicks": 96,
          "midi": 84,
          "name": "C6",
          "ticks": 11616,
          "time": 9.6799758,
          "velocity": 0.7874015748031497
        },
        {
          "duration": 0.07999979999999951,
          "durationTicks": 96,
          "midi": 85,
          "name": "C#6",
          "ticks": 11808,
          "time": 9.8399754,
          "velocity": 0.7874015748031497
        },
        {
          "duration": 0.07999979999999951,
          "durationTicks": 96,
          "midi": 86,
          "name": "D6",
          "ticks": 12000,
          "time": 9.999975,
          "velocity": 0.7874015748031497
        },
        {
          "duration": 0.07999979999999951,
          "durationTicks": 96,
          "midi": 81,
          "name": "A5",
          "ticks": 12288,
          "time": 10.239974400000001,
          "velocity": 0.7874015748031497
        },
        {
          "duration": 0.07999979999999951,
          "durationTicks": 96,
          "midi": 83,
          "name": "B5",
          "ticks": 12384,
          "time": 10.3199742,
          "velocity": 0.7874015748031497
        },
        {
          "duration": 0.07999979999999951,
          "durationTicks": 96,
          "midi": 84,
          "name": "C6",
          "ticks": 12576,
          "time": 10.4799738,
          "velocity": 0.7874015748031497
        },
        {
          "duration": 0.07999979999999951,
          "durationTicks": 96,
          "midi": 85,
          "name": "C#6",
          "ticks": 12768,
          "time": 10.6399734,
          "velocity": 0.7874015748031497
        },
        {
          "duration": 0.07999979999999951,
          "durationTicks": 96,
          "midi": 87,
          "name": "D#6",
          "ticks": 12960,
          "time": 10.799973,
          "velocity": 0.7874015748031497
        },
        {
          "duration": 0.07999979999999951,
          "durationTicks": 96,
          "midi": 83,
          "name": "B5",
          "ticks": 13248,
          "time": 11.0399724,
          "velocity": 0.7874015748031497
        },
        {
          "duration": 0.07999979999999951,
          "durationTicks": 96,
          "midi": 85,
          "name": "C#6",
          "ticks": 13344,
          "time": 11.1199722,
          "velocity": 0.7874015748031497
        },
        {
          "duration": 0.07999979999999951,
          "durationTicks": 96,
          "midi": 86,
          "name": "D6",
          "ticks": 13536,
          "time": 11.2799718,
          "velocity": 0.7874015748031497
        },
        {
          "duration": 0.07999979999999951,
          "durationTicks": 96,
          "midi": 87,
          "name": "D#6",
          "ticks": 13728,
          "time": 11.439971400000001,
          "velocity": 0.7874015748031497
        },
        {
          "duration": 0.07999979999999951,
          "durationTicks": 96,
          "midi": 73,
          "name": "C#5",
          "ticks": 13920,
          "time": 11.599971,
          "velocity": 0.7874015748031497
        },
        {
          "duration": 0.07999980000000129,
          "durationTicks": 96,
          "midi": 74,
          "name": "D5",
          "ticks": 14112,
          "time": 11.759970599999999,
          "velocity": 0.7874015748031497
        },
        {
          "duration": 0.07999979999999951,
          "durationTicks": 96,
          "midi": 75,
          "name": "D#5",
          "ticks": 14304,
          "time": 11.9199702,
          "velocity": 0.7874015748031497
        },
        {
          "duration": 0.07999979999999951,
          "durationTicks": 96,
          "midi": 76,
          "name": "E5",
          "ticks": 14496,
          "time": 12.079969799999999,
          "velocity": 0.7874015748031497
        },
        {
          "duration": 0.07999980000000129,
          "durationTicks": 96,
          "midi": 77,
          "name": "F5",
          "ticks": 14688,
          "time": 12.2399694,
          "velocity": 0.7874015748031497
        },
        {
          "duration": 0.07999979999999951,
          "durationTicks": 96,
          "midi": 78,
          "name": "F#5",
          "ticks": 14880,
          "time": 12.399969,
          "velocity": 0.7874015748031497
        },
        {
          "duration": 0.07999980000000129,
          "durationTicks": 96,
          "midi": 79,
          "name": "G5",
          "ticks": 15072,
          "time": 12.5599686,
          "velocity": 0.7874015748031497
        },
        {
          "duration": 0.07999979999999951,
          "durationTicks": 96,
          "midi": 80,
          "name": "G#5",
          "ticks": 15264,
          "time": 12.7199682,
          "velocity": 0.7874015748031497
        },
        {
          "duration": 0.07999979999999773,
          "durationTicks": 96,
          "midi": 81,
          "name": "A5",
          "ticks": 15456,
          "time": 12.879967800000001,
          "velocity": 0.7874015748031497
        },
        {
          "duration": 0.07999979999999773,
          "durationTicks": 96,
          "midi": 82,
          "name": "A#5",
          "ticks": 15648,
          "time": 13.0399674,
          "velocity": 0.7874015748031497
        },
        {
          "duration": 0.6164369999999995,
          "durationTicks": 1080,
          "midi": 78,
          "name": "F#5",
          "ticks": 15840,
          "time": 13.199967,
          "velocity": 0.7874015748031497
        },
        {
          "duration": 0.06849300000000014,
          "durationTicks": 120,
          "midi": 78,
          "name": "F#5",
          "ticks": 17040,
          "time": 13.884896999999999,
          "velocity": 0.7874015748031497
        },
        {
          "duration": 0.06849300000000014,
          "durationTicks": 120,
          "midi": 78,
          "name": "F#5",
          "ticks": 17280,
          "time": 14.021882999999999,
          "velocity": 0.7874015748031497
        },
        {
          "duration": 0.06849300000000014,
          "durationTicks": 120,
          "midi": 78,
          "name": "F#5",
          "ticks": 17520,
          "time": 14.158869,
          "velocity": 0.7874015748031497
        },
        {
          "duration": 0.06849300000000014,
          "durationTicks": 120,
          "midi": 78,
          "name": "F#5",
          "ticks": 17760,
          "time": 14.295855,
          "velocity": 0.7874015748031497
        },
        {
          "duration": 0.06849300000000014,
          "durationTicks": 120,
          "midi": 79,
          "name": "G5",
          "ticks": 18000,
          "time": 14.432841,
          "velocity": 0.7874015748031497
        },
        {
          "duration": 0.06849299999999836,
          "durationTicks": 120,
          "midi": 80,
          "name": "G#5",
          "ticks": 18240,
          "time": 14.569827,
          "velocity": 0.7874015748031497
        },
        {
          "duration": 0.06849300000000014,
          "durationTicks": 120,
          "midi": 81,
          "name": "A5",
          "ticks": 18480,
          "time": 14.706812999999999,
          "velocity": 0.7874015748031497
        },
        {
          "duration": 0.06849300000000014,
          "durationTicks": 120,
          "midi": 82,
          "name": "A#5",
          "ticks": 18720,
          "time": 14.843798999999999,
          "velocity": 0.7874015748031497
        },
        {
          "duration": 0.06849300000000014,
          "durationTicks": 120,
          "midi": 83,
          "name": "B5",
          "ticks": 18960,
          "time": 14.980785,
          "velocity": 0.7874015748031497
        },
        {
          "duration": 0.06849300000000014,
          "durationTicks": 120,
          "midi": 85,
          "name": "C#6",
          "ticks": 19200,
          "time": 15.117771,
          "velocity": 0.7874015748031497
        },
        {
          "duration": 0.27397199999999877,
          "durationTicks": 480,
          "midi": 78,
          "name": "F#5",
          "ticks": 19440,
          "time": 15.254757,
          "velocity": 0.7874015748031497
        },
        {
          "duration": 0.06849300000000014,
          "durationTicks": 120,
          "midi": 77,
          "name": "F5",
          "ticks": 19920,
          "time": 15.528728999999998,
          "velocity": 0.7874015748031497
        },
        {
          "duration": 0.06849300000000014,
          "durationTicks": 120,
          "midi": 78,
          "name": "F#5",
          "ticks": 20160,
          "time": 15.665714999999999,
          "velocity": 0.7874015748031497
        },
        {
          "duration": 0.06849300000000014,
          "durationTicks": 120,
          "midi": 77,
          "name": "F5",
          "ticks": 20400,
          "time": 15.802700999999999,
          "velocity": 0.7874015748031497
        },
        {
          "duration": 0.06849300000000014,
          "durationTicks": 120,
          "midi": 78,
          "name": "F#5",
          "ticks": 20640,
          "time": 15.939687,
          "velocity": 0.7874015748031497
        },
        {
          "duration": 0.06849300000000014,
          "durationTicks": 120,
          "midi": 77,
          "name": "F5",
          "ticks": 20880,
          "time": 16.076673,
          "velocity": 0.7874015748031497
        },
        {
          "duration": 0.06849300000000014,
          "durationTicks": 120,
          "midi": 78,
          "name": "F#5",
          "ticks": 21120,
          "time": 16.213659,
          "velocity": 0.7874015748031497
        },
        {
          "duration": 0.06849300000000014,
          "durationTicks": 120,
          "midi": 77,
          "name": "F5",
          "ticks": 21360,
          "time": 16.350645,
          "velocity": 0.7874015748031497
        },
        {
          "duration": 0.06849300000000014,
          "durationTicks": 120,
          "midi": 78,
          "name": "F#5",
          "ticks": 21600,
          "time": 16.487631,
          "velocity": 0.7874015748031497
        },
        {
          "duration": 0.06849299999999658,
          "durationTicks": 120,
          "midi": 77,
          "name": "F5",
          "ticks": 21840,
          "time": 16.624617,
          "velocity": 0.7874015748031497
        },
        {
          "duration": 0.06849299999999658,
          "durationTicks": 120,
          "midi": 78,
          "name": "F#5",
          "ticks": 22080,
          "time": 16.761603,
          "velocity": 0.7874015748031497
        },
        {
          "duration": 0.06849300000000014,
          "durationTicks": 120,
          "midi": 77,
          "name": "F5",
          "ticks": 22320,
          "time": 16.898588999999998,
          "velocity": 0.7874015748031497
        },
        {
          "duration": 0.06849300000000014,
          "durationTicks": 120,
          "midi": 78,
          "name": "F#5",
          "ticks": 22560,
          "time": 17.035574999999998,
          "velocity": 0.7874015748031497
        },
        {
          "duration": 0.06849300000000014,
          "durationTicks": 120,
          "midi": 78,
          "name": "F#5",
          "ticks": 22800,
          "time": 17.172560999999998,
          "velocity": 0.7874015748031497
        },
        {
          "duration": 0.06849300000000014,
          "durationTicks": 120,
          "midi": 78,
          "name": "F#5",
          "ticks": 23040,
          "time": 17.309547,
          "velocity": 0.7874015748031497
        },
        {
          "duration": 0.27397200000000055,
          "durationTicks": 480,
          "midi": 78,
          "name": "F#5",
          "ticks": 23280,
          "time": 17.446533,
          "velocity": 0.7874015748031497
        },
        {
          "duration": 0.06849300000000014,
          "durationTicks": 120,
          "midi": 80,
          "name": "G#5",
          "ticks": 23760,
          "time": 17.720505,
          "velocity": 0.7874015748031497
        },
        {
          "duration": 0.06849300000000014,
          "durationTicks": 120,
          "midi": 83,
          "name": "B5",
          "ticks": 24000,
          "time": 17.857491,
          "velocity": 0.7874015748031497
        },
        {
          "duration": 0.06849300000000014,
          "durationTicks": 120,
          "midi": 85,
          "name": "C#6",
          "ticks": 24240,
          "time": 17.994477,
          "velocity": 0.7874015748031497
        },
        {
          "duration": 0.06849300000000014,
          "durationTicks": 120,
          "midi": 78,
          "name": "F#5",
          "ticks": 24480,
          "time": 18.131463,
          "velocity": 0.7874015748031497
        },
        {
          "duration": 0.06849300000000369,
          "durationTicks": 120,
          "midi": 80,
          "name": "G#5",
          "ticks": 24720,
          "time": 18.268448999999997,
          "velocity": 0.7874015748031497
        },
        {
          "duration": 0.06849300000000369,
          "durationTicks": 120,
          "midi": 83,
          "name": "B5",
          "ticks": 24960,
          "time": 18.405434999999997,
          "velocity": 0.7874015748031497
        },
        {
          "duration": 0.06849300000000369,
          "durationTicks": 120,
          "midi": 85,
          "name": "C#6",
          "ticks": 25200,
          "time": 18.542420999999997,
          "velocity": 0.7874015748031497
        },
        {
          "duration": 0.06849300000000014,
          "durationTicks": 120,
          "midi": 78,
          "name": "F#5",
          "ticks": 25440,
          "time": 18.679406999999998,
          "velocity": 0.7874015748031497
        },
        {
          "duration": 0.06849300000000014,
          "durationTicks": 120,
          "midi": 80,
          "name": "G#5",
          "ticks": 25680,
          "time": 18.816392999999998,
          "velocity": 0.7874015748031497
        },
        {
          "duration": 0.06849300000000014,
          "durationTicks": 120,
          "midi": 83,
          "name": "B5",
          "ticks": 25920,
          "time": 18.953378999999998,
          "velocity": 0.7874015748031497
        },
        {
          "duration": 0.06849300000000014,
          "durationTicks": 120,
          "midi": 85,
          "name": "C#6",
          "ticks": 26160,
          "time": 19.090365,
          "velocity": 0.7874015748031497
        },
        {
          "duration": 0.27397200000000055,
          "durationTicks": 480,
          "midi": 87,
          "name": "D#6",
          "ticks": 26400,
          "time": 19.227351,
          "velocity": 0.7874015748031497
        },
        {
          "duration": 0.06849300000000014,
          "durationTicks": 120,
          "midi": 85,
          "name": "C#6",
          "ticks": 26880,
          "time": 19.501323,
          "velocity": 0.7874015748031497
        },
        {
          "duration": 0.27397200000000055,
          "durationTicks": 480,
          "midi": 82,
          "name": "A#5",
          "ticks": 27120,
          "time": 19.638309,
          "velocity": 0.7874015748031497
        },
        {
          "duration": 0.06849300000000014,
          "durationTicks": 120,
          "midi": 81,
          "name": "A5",
          "ticks": 27600,
          "time": 19.912281,
          "velocity": 0.7874015748031497
        },
        {
          "duration": 0.06849299999999658,
          "durationTicks": 120,
          "midi": 82,
          "name": "A#5",
          "ticks": 27840,
          "time": 20.049267,
          "velocity": 0.7874015748031497
        },
        {
          "duration": 0.06849299999999658,
          "durationTicks": 120,
          "midi": 81,
          "name": "A5",
          "ticks": 28080,
          "time": 20.186253,
          "velocity": 0.7874015748031497
        },
        {
          "duration": 0.06849299999999658,
          "durationTicks": 120,
          "midi": 82,
          "name": "A#5",
          "ticks": 28320,
          "time": 20.323239,
          "velocity": 0.7874015748031497
        },
        {
          "duration": 0.06849300000000014,
          "durationTicks": 120,
          "midi": 82,
          "name": "A#5",
          "ticks": 28560,
          "time": 20.460224999999998,
          "velocity": 0.7874015748031497
        },
        {
          "duration": 0.06849300000000014,
          "durationTicks": 120,
          "midi": 82,
          "name": "A#5",
          "ticks": 28800,
          "time": 20.597210999999998,
          "velocity": 0.7874015748031497
        },
        {
          "duration": 0.06849300000000014,
          "durationTicks": 120,
          "midi": 82,
          "name": "A#5",
          "ticks": 29040,
          "time": 20.734196999999998,
          "velocity": 0.7874015748031497
        },
        {
          "duration": 0.06849300000000014,
          "durationTicks": 120,
          "midi": 81,
          "name": "A5",
          "ticks": 29280,
          "time": 20.871183,
          "velocity": 0.7874015748031497
        },
        {
          "duration": 0.06849300000000014,
          "durationTicks": 120,
          "midi": 82,
          "name": "A#5",
          "ticks": 29520,
          "time": 21.008169,
          "velocity": 0.7874015748031497
        },
        {
          "duration": 0.06849300000000014,
          "durationTicks": 120,
          "midi": 81,
          "name": "A5",
          "ticks": 29760,
          "time": 21.145155,
          "velocity": 0.7874015748031497
        },
        {
          "duration": 0.06849300000000014,
          "durationTicks": 120,
          "midi": 82,
          "name": "A#5",
          "ticks": 30000,
          "time": 21.282141,
          "velocity": 0.7874015748031497
        },
        {
          "duration": 0.06849300000000014,
          "durationTicks": 120,
          "midi": 83,
          "name": "B5",
          "ticks": 30240,
          "time": 21.419127,
          "velocity": 0.7874015748031497
        },
        {
          "duration": 0.06849300000000369,
          "durationTicks": 120,
          "midi": 82,
          "name": "A#5",
          "ticks": 30480,
          "time": 21.556112999999996,
          "velocity": 0.7874015748031497
        },
        {
          "duration": 0.06849300000000369,
          "durationTicks": 120,
          "midi": 81,
          "name": "A5",
          "ticks": 30720,
          "time": 21.693098999999997,
          "velocity": 0.7874015748031497
        },
        {
          "duration": 0.20547900000000396,
          "durationTicks": 360,
          "midi": 80,
          "name": "G#5",
          "ticks": 30960,
          "time": 21.830084999999997,
          "velocity": 0.7874015748031497
        },
        {
          "duration": 0.06849300000000369,
          "durationTicks": 120,
          "midi": 80,
          "name": "G#5",
          "ticks": 31440,
          "time": 22.104056999999997,
          "velocity": 0.7874015748031497
        },
        {
          "duration": 0.06849300000000369,
          "durationTicks": 120,
          "midi": 80,
          "name": "G#5",
          "ticks": 31680,
          "time": 22.241042999999998,
          "velocity": 0.7874015748031497
        },
        {
          "duration": 0.06849300000000014,
          "durationTicks": 120,
          "midi": 80,
          "name": "G#5",
          "ticks": 31920,
          "time": 22.378028999999998,
          "velocity": 0.7874015748031497
        },
        {
          "duration": 0.06849300000000014,
          "durationTicks": 120,
          "midi": 80,
          "name": "G#5",
          "ticks": 32160,
          "time": 22.515015,
          "velocity": 0.7874015748031497
        },
        {
          "duration": 0.06849300000000014,
          "durationTicks": 120,
          "midi": 79,
          "name": "G5",
          "ticks": 32400,
          "time": 22.652001,
          "velocity": 0.7874015748031497
        },
        {
          "duration": 0.06849300000000014,
          "durationTicks": 120,
          "midi": 78,
          "name": "F#5",
          "ticks": 32640,
          "time": 22.788987,
          "velocity": 0.7874015748031497
        },
        {
          "duration": 0.06849300000000014,
          "durationTicks": 120,
          "midi": 77,
          "name": "F5",
          "ticks": 32880,
          "time": 22.925973,
          "velocity": 0.7874015748031497
        },
        {
          "duration": 0.06849300000000014,
          "durationTicks": 120,
          "midi": 78,
          "name": "F#5",
          "ticks": 33120,
          "time": 23.062959,
          "velocity": 0.7874015748031497
        },
        {
          "duration": 0.06849300000000014,
          "durationTicks": 120,
          "midi": 80,
          "name": "G#5",
          "ticks": 33360,
          "time": 23.199945,
          "velocity": 0.7874015748031497
        },
        {
          "duration": 0.06849299999999658,
          "durationTicks": 120,
          "midi": 83,
          "name": "B5",
          "ticks": 33600,
          "time": 23.336931,
          "velocity": 0.7874015748031497
        },
        {
          "duration": 0.06849299999999658,
          "durationTicks": 120,
          "midi": 82,
          "name": "A#5",
          "ticks": 33840,
          "time": 23.473917,
          "velocity": 0.7874015748031497
        },
        {
          "duration": 0.06849299999999658,
          "durationTicks": 120,
          "midi": 83,
          "name": "B5",
          "ticks": 34080,
          "time": 23.610903,
          "velocity": 0.7874015748031497
        },
        {
          "duration": 0.07115377499999909,
          "durationTicks": 74,
          "midi": 72,
          "name": "C5",
          "ticks": 42240,
          "time": 29.158842,
          "velocity": 0.7874015748031497
        },
        {
          "duration": 0.07115377499999909,
          "durationTicks": 74,
          "midi": 73,
          "name": "C#5",
          "ticks": 42360,
          "time": 29.2742265,
          "velocity": 0.7874015748031497
        },
        {
          "duration": 0.07115377500000264,
          "durationTicks": 74,
          "midi": 74,
          "name": "D5",
          "ticks": 42480,
          "time": 29.389611,
          "velocity": 0.7874015748031497
        },
        {
          "duration": 0.07115377499999909,
          "durationTicks": 74,
          "midi": 76,
          "name": "E5",
          "ticks": 42600,
          "time": 29.5049955,
          "velocity": 0.7874015748031497
        },
        {
          "duration": 0.11538449999999756,
          "durationTicks": 120,
          "midi": 77,
          "name": "F5",
          "ticks": 42720,
          "time": 29.62038,
          "velocity": 0.7874015748031497
        },
        {
          "duration": 0.11538449999999756,
          "durationTicks": 120,
          "midi": 72,
          "name": "C5",
          "ticks": 43080,
          "time": 29.9665335,
          "velocity": 0.7874015748031497
        },
        {
          "duration": 0.11538450000000111,
          "durationTicks": 120,
          "midi": 74,
          "name": "D5",
          "ticks": 43200,
          "time": 30.081917999999998,
          "velocity": 0.7874015748031497
        },
        {
          "duration": 0.11538450000000111,
          "durationTicks": 120,
          "midi": 76,
          "name": "E5",
          "ticks": 43440,
          "time": 30.312687,
          "velocity": 0.7874015748031497
        },
        {
          "duration": 0.11538450000000111,
          "durationTicks": 120,
          "midi": 77,
          "name": "F5",
          "ticks": 43680,
          "time": 30.543456,
          "velocity": 0.7874015748031497
        },
        {
          "duration": 0.11538449999999756,
          "durationTicks": 120,
          "midi": 72,
          "name": "C5",
          "ticks": 43920,
          "time": 30.774225,
          "velocity": 0.7874015748031497
        },
        {
          "duration": 0.11538450000000111,
          "durationTicks": 120,
          "midi": 74,
          "name": "D5",
          "ticks": 44160,
          "time": 31.004994,
          "velocity": 0.7874015748031497
        },
        {
          "duration": 0.11538450000000111,
          "durationTicks": 120,
          "midi": 76,
          "name": "E5",
          "ticks": 44400,
          "time": 31.235763,
          "velocity": 0.7874015748031497
        },
        {
          "duration": 0.11538449999999756,
          "durationTicks": 120,
          "midi": 77,
          "name": "F5",
          "ticks": 44640,
          "time": 31.466532,
          "velocity": 0.7874015748031497
        },
        {
          "duration": 0.11538449999999756,
          "durationTicks": 120,
          "midi": 72,
          "name": "C5",
          "ticks": 45000,
          "time": 31.8126855,
          "velocity": 0.7874015748031497
        },
        {
          "duration": 0.11538450000000466,
          "durationTicks": 120,
          "midi": 74,
          "name": "D5",
          "ticks": 45120,
          "time": 31.928069999999998,
          "velocity": 0.7874015748031497
        },
        {
          "duration": 0.11538449999999756,
          "durationTicks": 120,
          "midi": 76,
          "name": "E5",
          "ticks": 45360,
          "time": 32.158839,
          "velocity": 0.7874015748031497
        },
        {
          "duration": 0.11538449999999756,
          "durationTicks": 120,
          "midi": 79,
          "name": "G5",
          "ticks": 45600,
          "time": 32.389608,
          "velocity": 0.7874015748031497
        },
        {
          "duration": 0.11538450000000466,
          "durationTicks": 120,
          "midi": 79,
          "name": "G5",
          "ticks": 45840,
          "time": 32.620377,
          "velocity": 0.7874015748031497
        },
        {
          "duration": 0.11538449999999756,
          "durationTicks": 120,
          "midi": 78,
          "name": "F#5",
          "ticks": 46080,
          "time": 32.851146,
          "velocity": 0.7874015748031497
        },
        {
          "duration": 0.11538450000000466,
          "durationTicks": 120,
          "midi": 77,
          "name": "F5",
          "ticks": 46200,
          "time": 32.9665305,
          "velocity": 0.7874015748031497
        },
        {
          "duration": 0.11538449999999756,
          "durationTicks": 120,
          "midi": 76,
          "name": "E5",
          "ticks": 46320,
          "time": 33.081915,
          "velocity": 0.7874015748031497
        },
        {
          "duration": 0.11538449999999756,
          "durationTicks": 120,
          "midi": 75,
          "name": "D#5",
          "ticks": 46440,
          "time": 33.1972995,
          "velocity": 0.7874015748031497
        },
        {
          "duration": 0.23076900000000222,
          "durationTicks": 240,
          "midi": 69,
          "name": "A4",
          "ticks": 46560,
          "time": 33.312684,
          "velocity": 0.7874015748031497
        },
        {
          "duration": 0.11538449999999756,
          "durationTicks": 120,
          "midi": 76,
          "name": "E5",
          "ticks": 46800,
          "time": 33.543453,
          "velocity": 0.7874015748031497
        },
        {
          "duration": 0.10563375000000264,
          "durationTicks": 120,
          "midi": 77,
          "name": "F5",
          "ticks": 47040,
          "time": 33.774222,
          "velocity": 0.7874015748031497
        },
        {
          "duration": 0.10563375000000264,
          "durationTicks": 120,
          "midi": 72,
          "name": "C5",
          "ticks": 47400,
          "time": 34.09112325,
          "velocity": 0.7874015748031497
        },
        {
          "duration": 0.10563374999999553,
          "durationTicks": 120,
          "midi": 74,
          "name": "D5",
          "ticks": 47520,
          "time": 34.196757000000005,
          "velocity": 0.7874015748031497
        },
        {
          "duration": 0.10563374999999553,
          "durationTicks": 120,
          "midi": 76,
          "name": "E5",
          "ticks": 47760,
          "time": 34.4080245,
          "velocity": 0.7874015748031497
        },
        {
          "duration": 0.10563375000000264,
          "durationTicks": 120,
          "midi": 77,
          "name": "F5",
          "ticks": 48000,
          "time": 34.619292,
          "velocity": 0.7874015748031497
        },
        {
          "duration": 0.10563375000000264,
          "durationTicks": 120,
          "midi": 72,
          "name": "C5",
          "ticks": 48240,
          "time": 34.8305595,
          "velocity": 0.7874015748031497
        },
        {
          "duration": 0.10563374999999553,
          "durationTicks": 120,
          "midi": 74,
          "name": "D5",
          "ticks": 48480,
          "time": 35.041827000000005,
          "velocity": 0.7874015748031497
        },
        {
          "duration": 0.10563374999999553,
          "durationTicks": 120,
          "midi": 76,
          "name": "E5",
          "ticks": 48720,
          "time": 35.2530945,
          "velocity": 0.7874015748031497
        },
        {
          "duration": 0.10563375000000264,
          "durationTicks": 120,
          "midi": 77,
          "name": "F5",
          "ticks": 48960,
          "time": 35.464362,
          "velocity": 0.7874015748031497
        },
        {
          "duration": 0.10563375000000264,
          "durationTicks": 120,
          "midi": 72,
          "name": "C5",
          "ticks": 49320,
          "time": 35.78126325,
          "velocity": 0.7874015748031497
        },
        {
          "duration": 0.10563374999999553,
          "durationTicks": 120,
          "midi": 74,
          "name": "D5",
          "ticks": 49440,
          "time": 35.886897000000005,
          "velocity": 0.7874015748031497
        },
        {
          "duration": 0.10563375000000264,
          "durationTicks": 120,
          "midi": 76,
          "name": "E5",
          "ticks": 49680,
          "time": 36.0981645,
          "velocity": 0.7874015748031497
        },
        {
          "duration": 0.10563375000000264,
          "durationTicks": 120,
          "midi": 79,
          "name": "G5",
          "ticks": 49920,
          "time": 36.309432,
          "velocity": 0.7874015748031497
        },
        {
          "duration": 0.10563375000000264,
          "durationTicks": 120,
          "midi": 79,
          "name": "G5",
          "ticks": 50160,
          "time": 36.5206995,
          "velocity": 0.7874015748031497
        },
        {
          "duration": 0.10563374999999553,
          "durationTicks": 120,
          "midi": 78,
          "name": "F#5",
          "ticks": 50400,
          "time": 36.731967000000004,
          "velocity": 0.7874015748031497
        },
        {
          "duration": 0.10563375000000264,
          "durationTicks": 120,
          "midi": 77,
          "name": "F5",
          "ticks": 50520,
          "time": 36.83760075,
          "velocity": 0.7874015748031497
        },
        {
          "duration": 0.10563375000000264,
          "durationTicks": 120,
          "midi": 76,
          "name": "E5",
          "ticks": 50640,
          "time": 36.9432345,
          "velocity": 0.7874015748031497
        },
        {
          "duration": 0.10563374999999553,
          "durationTicks": 120,
          "midi": 75,
          "name": "D#5",
          "ticks": 50760,
          "time": 37.048868250000005,
          "velocity": 0.7874015748031497
        },
        {
          "duration": 0.21126749999999817,
          "durationTicks": 240,
          "midi": 69,
          "name": "A4",
          "ticks": 50880,
          "time": 37.154502,
          "velocity": 0.7874015748031497
        },
        {
          "duration": 0.10563375000000264,
          "durationTicks": 120,
          "midi": 76,
          "name": "E5",
          "ticks": 51120,
          "time": 37.3657695,
          "velocity": 0.7874015748031497
        },
        {
          "duration": 0.09677400000000347,
          "durationTicks": 120,
          "midi": 78,
          "name": "F#5",
          "ticks": 51360,
          "time": 37.577037000000004,
          "velocity": 0.7874015748031497
        },
        {
          "duration": 0.09677399999999636,
          "durationTicks": 120,
          "midi": 73,
          "name": "C#5",
          "ticks": 51720,
          "time": 37.86735900000001,
          "velocity": 0.7874015748031497
        },
        {
          "duration": 0.09677400000000347,
          "durationTicks": 120,
          "midi": 75,
          "name": "D#5",
          "ticks": 51840,
          "time": 37.964133000000004,
          "velocity": 0.7874015748031497
        },
        {
          "duration": 0.09677400000000347,
          "durationTicks": 120,
          "midi": 77,
          "name": "F5",
          "ticks": 52080,
          "time": 38.157681000000004,
          "velocity": 0.7874015748031497
        },
        {
          "duration": 0.09677400000000347,
          "durationTicks": 120,
          "midi": 78,
          "name": "F#5",
          "ticks": 52320,
          "time": 38.351229000000004,
          "velocity": 0.7874015748031497
        },
        {
          "duration": 0.09677400000000347,
          "durationTicks": 120,
          "midi": 73,
          "name": "C#5",
          "ticks": 52560,
          "time": 38.544777,
          "velocity": 0.7874015748031497
        },
        {
          "duration": 0.09677400000000347,
          "durationTicks": 120,
          "midi": 75,
          "name": "D#5",
          "ticks": 52800,
          "time": 38.738325,
          "velocity": 0.7874015748031497
        },
        {
          "duration": 0.09677400000000347,
          "durationTicks": 120,
          "midi": 77,
          "name": "F5",
          "ticks": 53040,
          "time": 38.931873,
          "velocity": 0.7874015748031497
        },
        {
          "duration": 0.09677400000000347,
          "durationTicks": 120,
          "midi": 78,
          "name": "F#5",
          "ticks": 53280,
          "time": 39.125421,
          "velocity": 0.7874015748031497
        },
        {
          "duration": 0.09677399999999636,
          "durationTicks": 120,
          "midi": 73,
          "name": "C#5",
          "ticks": 53640,
          "time": 39.415743000000006,
          "velocity": 0.7874015748031497
        },
        {
          "duration": 0.09677400000000347,
          "durationTicks": 120,
          "midi": 75,
          "name": "D#5",
          "ticks": 53760,
          "time": 39.512517,
          "velocity": 0.7874015748031497
        },
        {
          "duration": 0.09677400000000347,
          "durationTicks": 120,
          "midi": 77,
          "name": "F5",
          "ticks": 54000,
          "time": 39.706065,
          "velocity": 0.7874015748031497
        },
        {
          "duration": 0.09677400000000347,
          "durationTicks": 120,
          "midi": 80,
          "name": "G#5",
          "ticks": 54240,
          "time": 39.899613,
          "velocity": 0.7874015748031497
        },
        {
          "duration": 0.09677400000000347,
          "durationTicks": 120,
          "midi": 80,
          "name": "G#5",
          "ticks": 54480,
          "time": 40.093161,
          "velocity": 0.7874015748031497
        },
        {
          "duration": 0.09677400000000347,
          "durationTicks": 120,
          "midi": 79,
          "name": "G5",
          "ticks": 54720,
          "time": 40.286709,
          "velocity": 0.7874015748031497
        },
        {
          "duration": 0.09677399999999636,
          "durationTicks": 120,
          "midi": 78,
          "name": "F#5",
          "ticks": 54840,
          "time": 40.383483000000005,
          "velocity": 0.7874015748031497
        },
        {
          "duration": 0.09677400000000347,
          "durationTicks": 120,
          "midi": 77,
          "name": "F5",
          "ticks": 54960,
          "time": 40.480257,
          "velocity": 0.7874015748031497
        },
        {
          "duration": 0.09677399999999636,
          "durationTicks": 120,
          "midi": 76,
          "name": "E5",
          "ticks": 55080,
          "time": 40.577031000000005,
          "velocity": 0.7874015748031497
        },
        {
          "duration": 0.19354799999999983,
          "durationTicks": 240,
          "midi": 70,
          "name": "A#4",
          "ticks": 55200,
          "time": 40.673805,
          "velocity": 0.7874015748031497
        },
        {
          "duration": 0.09677400000000347,
          "durationTicks": 120,
          "midi": 77,
          "name": "F5",
          "ticks": 55440,
          "time": 40.867353,
          "velocity": 0.7874015748031497
        },
        {
          "duration": 0.09090900000000346,
          "durationTicks": 120,
          "midi": 79,
          "name": "G5",
          "ticks": 55680,
          "time": 41.060901,
          "velocity": 0.7874015748031497
        },
        {
          "duration": 0.09090899999999635,
          "durationTicks": 120,
          "midi": 74,
          "name": "D5",
          "ticks": 56040,
          "time": 41.333628000000004,
          "velocity": 0.7874015748031497
        },
        {
          "duration": 0.09090900000000346,
          "durationTicks": 120,
          "midi": 76,
          "name": "E5",
          "ticks": 56160,
          "time": 41.424537,
          "velocity": 0.7874015748031497
        },
        {
          "duration": 0.09090900000000346,
          "durationTicks": 120,
          "midi": 78,
          "name": "F#5",
          "ticks": 56400,
          "time": 41.606355,
          "velocity": 0.7874015748031497
        },
        {
          "duration": 0.09090900000000346,
          "durationTicks": 120,
          "midi": 79,
          "name": "G5",
          "ticks": 56640,
          "time": 41.788173,
          "velocity": 0.7874015748031497
        },
        {
          "duration": 0.09090900000000346,
          "durationTicks": 120,
          "midi": 74,
          "name": "D5",
          "ticks": 56880,
          "time": 41.969991,
          "velocity": 0.7874015748031497
        },
        {
          "duration": 0.09090900000000346,
          "durationTicks": 120,
          "midi": 76,
          "name": "E5",
          "ticks": 57120,
          "time": 42.151809,
          "velocity": 0.7874015748031497
        },
        {
          "duration": 0.09090900000000346,
          "durationTicks": 120,
          "midi": 78,
          "name": "F#5",
          "ticks": 57360,
          "time": 42.333627,
          "velocity": 0.7874015748031497
        },
        {
          "duration": 0.08571425000000232,
          "durationTicks": 120,
          "midi": 79,
          "name": "G5",
          "ticks": 57600,
          "time": 42.515445,
          "velocity": 0.7874015748031497
        },
        {
          "duration": 0.08571425000000232,
          "durationTicks": 120,
          "midi": 74,
          "name": "D5",
          "ticks": 57960,
          "time": 42.77258775,
          "velocity": 0.7874015748031497
        },
        {
          "duration": 0.08571424999999522,
          "durationTicks": 120,
          "midi": 76,
          "name": "E5",
          "ticks": 58080,
          "time": 42.858302,
          "velocity": 0.7874015748031497
        },
        {
          "duration": 0.08571425000000232,
          "durationTicks": 120,
          "midi": 78,
          "name": "F#5",
          "ticks": 58320,
          "time": 43.0297305,
          "velocity": 0.7874015748031497
        },
        {
          "duration": 0.08571425000000232,
          "durationTicks": 120,
          "midi": 81,
          "name": "A5",
          "ticks": 58560,
          "time": 43.201159,
          "velocity": 0.7874015748031497
        },
        {
          "duration": 0.08571424999999522,
          "durationTicks": 120,
          "midi": 81,
          "name": "A5",
          "ticks": 58800,
          "time": 43.3725875,
          "velocity": 0.7874015748031497
        },
        {
          "duration": 0.08571425000000232,
          "durationTicks": 120,
          "midi": 80,
          "name": "G#5",
          "ticks": 59040,
          "time": 43.544016,
          "velocity": 0.7874015748031497
        },
        {
          "duration": 0.08571424999999522,
          "durationTicks": 120,
          "midi": 79,
          "name": "G5",
          "ticks": 59160,
          "time": 43.62973025,
          "velocity": 0.7874015748031497
        },
        {
          "duration": 0.08571425000000232,
          "durationTicks": 120,
          "midi": 78,
          "name": "F#5",
          "ticks": 59280,
          "time": 43.7154445,
          "velocity": 0.7874015748031497
        },
        {
          "duration": 0.08571425000000232,
          "durationTicks": 120,
          "midi": 77,
          "name": "F5",
          "ticks": 59400,
          "time": 43.80115875,
          "velocity": 0.7874015748031497
        },
        {
          "duration": 0.17142849999999754,
          "durationTicks": 240,
          "midi": 71,
          "name": "B4",
          "ticks": 59520,
          "time": 43.886873,
          "velocity": 0.7874015748031497
        },
        {
          "duration": 0.08571425000000232,
          "durationTicks": 120,
          "midi": 78,
          "name": "F#5",
          "ticks": 59760,
          "time": 44.0583015,
          "velocity": 0.7874015748031497
        },
        {
          "duration": 0.08196699999999879,
          "durationTicks": 120,
          "midi": 80,
          "name": "G#5",
          "ticks": 60000,
          "time": 44.229729999999996,
          "velocity": 0.7874015748031497
        },
        {
          "duration": 0.08196699999999879,
          "durationTicks": 120,
          "midi": 75,
          "name": "D#5",
          "ticks": 60360,
          "time": 44.475631,
          "velocity": 0.7874015748031497
        },
        {
          "duration": 0.08196699999999879,
          "durationTicks": 120,
          "midi": 77,
          "name": "F5",
          "ticks": 60480,
          "time": 44.557598,
          "velocity": 0.7874015748031497
        },
        {
          "duration": 0.08196699999999879,
          "durationTicks": 120,
          "midi": 79,
          "name": "G5",
          "ticks": 60720,
          "time": 44.721531999999996,
          "velocity": 0.7874015748031497
        },
        {
          "duration": 0.0819670000000059,
          "durationTicks": 120,
          "midi": 80,
          "name": "G#5",
          "ticks": 60960,
          "time": 44.885465999999994,
          "velocity": 0.7874015748031497
        },
        {
          "duration": 0.08196699999999879,
          "durationTicks": 120,
          "midi": 75,
          "name": "D#5",
          "ticks": 61200,
          "time": 45.0494,
          "velocity": 0.7874015748031497
        },
        {
          "duration": 0.08196699999999879,
          "durationTicks": 120,
          "midi": 77,
          "name": "F5",
          "ticks": 61440,
          "time": 45.213333999999996,
          "velocity": 0.7874015748031497
        },
        {
          "duration": 0.0819670000000059,
          "durationTicks": 120,
          "midi": 79,
          "name": "G5",
          "ticks": 61680,
          "time": 45.377267999999994,
          "velocity": 0.7874015748031497
        },
        {
          "duration": 0.08196699999999879,
          "durationTicks": 120,
          "midi": 80,
          "name": "G#5",
          "ticks": 61920,
          "time": 45.541202,
          "velocity": 0.7874015748031497
        },
        {
          "duration": 0.08196699999999879,
          "durationTicks": 120,
          "midi": 75,
          "name": "D#5",
          "ticks": 62280,
          "time": 45.787102999999995,
          "velocity": 0.7874015748031497
        },
        {
          "duration": 0.0819670000000059,
          "durationTicks": 120,
          "midi": 77,
          "name": "F5",
          "ticks": 62400,
          "time": 45.869069999999994,
          "velocity": 0.7874015748031497
        },
        {
          "duration": 0.08196699999999879,
          "durationTicks": 120,
          "midi": 79,
          "name": "G5",
          "ticks": 62640,
          "time": 46.033004,
          "velocity": 0.7874015748031497
        },
        {
          "duration": 0.08196699999999879,
          "durationTicks": 120,
          "midi": 82,
          "name": "A#5",
          "ticks": 62880,
          "time": 46.196937999999996,
          "velocity": 0.7874015748031497
        },
        {
          "duration": 0.08196699999999879,
          "durationTicks": 120,
          "midi": 81,
          "name": "A5",
          "ticks": 63000,
          "time": 46.278904999999995,
          "velocity": 0.7874015748031497
        },
        {
          "duration": 0.0819670000000059,
          "durationTicks": 120,
          "midi": 80,
          "name": "G#5",
          "ticks": 63120,
          "time": 46.36087199999999,
          "velocity": 0.7874015748031497
        },
        {
          "duration": 0.08196699999999879,
          "durationTicks": 120,
          "midi": 79,
          "name": "G5",
          "ticks": 63240,
          "time": 46.442839,
          "velocity": 0.7874015748031497
        },
        {
          "duration": 0.16393399999999758,
          "durationTicks": 240,
          "midi": 72,
          "name": "C5",
          "ticks": 63360,
          "time": 46.524806,
          "velocity": 0.7874015748031497
        },
        {
          "duration": 0.08196699999999879,
          "durationTicks": 120,
          "midi": 79,
          "name": "G5",
          "ticks": 63600,
          "time": 46.688739999999996,
          "velocity": 0.7874015748031497
        },
        {
          "duration": 0.07692300000000074,
          "durationTicks": 120,
          "midi": 81,
          "name": "A5",
          "ticks": 63840,
          "time": 46.85267399999999,
          "velocity": 0.7874015748031497
        },
        {
          "duration": 0.07692300000000074,
          "durationTicks": 120,
          "midi": 76,
          "name": "E5",
          "ticks": 64200,
          "time": 47.083442999999995,
          "velocity": 0.7874015748031497
        },
        {
          "duration": 0.07692299999999364,
          "durationTicks": 120,
          "midi": 78,
          "name": "F#5",
          "ticks": 64320,
          "time": 47.160365999999996,
          "velocity": 0.7874015748031497
        },
        {
          "duration": 0.07692300000000074,
          "durationTicks": 120,
          "midi": 80,
          "name": "G#5",
          "ticks": 64560,
          "time": 47.31421199999999,
          "velocity": 0.7874015748031497
        },
        {
          "duration": 0.07692300000000074,
          "durationTicks": 120,
          "midi": 81,
          "name": "A5",
          "ticks": 64800,
          "time": 47.46805799999999,
          "velocity": 0.7874015748031497
        },
        {
          "duration": 0.07692300000000074,
          "durationTicks": 120,
          "midi": 76,
          "name": "E5",
          "ticks": 65040,
          "time": 47.621903999999994,
          "velocity": 0.7874015748031497
        },
        {
          "duration": 0.07692300000000074,
          "durationTicks": 120,
          "midi": 78,
          "name": "F#5",
          "ticks": 65280,
          "time": 47.775749999999995,
          "velocity": 0.7874015748031497
        },
        {
          "duration": 0.07692299999999364,
          "durationTicks": 120,
          "midi": 80,
          "name": "G#5",
          "ticks": 65520,
          "time": 47.929596,
          "velocity": 0.7874015748031497
        },
        {
          "duration": 0.07692300000000074,
          "durationTicks": 120,
          "midi": 81,
          "name": "A5",
          "ticks": 65760,
          "time": 48.08344199999999,
          "velocity": 0.7874015748031497
        },
        {
          "duration": 0.07692300000000074,
          "durationTicks": 120,
          "midi": 76,
          "name": "E5",
          "ticks": 66120,
          "time": 48.31421099999999,
          "velocity": 0.7874015748031497
        },
        {
          "duration": 0.07692300000000074,
          "durationTicks": 120,
          "midi": 78,
          "name": "F#5",
          "ticks": 66240,
          "time": 48.391133999999994,
          "velocity": 0.7874015748031497
        },
        {
          "duration": 0.07692300000000074,
          "durationTicks": 120,
          "midi": 80,
          "name": "G#5",
          "ticks": 66480,
          "time": 48.544979999999995,
          "velocity": 0.7874015748031497
        },
        {
          "duration": 0.07692299999999364,
          "durationTicks": 120,
          "midi": 83,
          "name": "B5",
          "ticks": 66720,
          "time": 48.698826,
          "velocity": 0.7874015748031497
        },
        {
          "duration": 0.07692300000000074,
          "durationTicks": 120,
          "midi": 82,
          "name": "A#5",
          "ticks": 66840,
          "time": 48.77574899999999,
          "velocity": 0.7874015748031497
        },
        {
          "duration": 0.07692300000000074,
          "durationTicks": 120,
          "midi": 81,
          "name": "A5",
          "ticks": 66960,
          "time": 48.85267199999999,
          "velocity": 0.7874015748031497
        },
        {
          "duration": 0.07692300000000074,
          "durationTicks": 120,
          "midi": 80,
          "name": "G#5",
          "ticks": 67080,
          "time": 48.92959499999999,
          "velocity": 0.7874015748031497
        },
        {
          "duration": 0.15384600000000148,
          "durationTicks": 240,
          "midi": 73,
          "name": "C#5",
          "ticks": 67200,
          "time": 49.00651799999999,
          "velocity": 0.7874015748031497
        },
        {
          "duration": 0.07692300000000074,
          "durationTicks": 120,
          "midi": 80,
          "name": "G#5",
          "ticks": 67440,
          "time": 49.160363999999994,
          "velocity": 0.7874015748031497
        },
        {
          "duration": 0.07500000000000284,
          "durationTicks": 120,
          "midi": 82,
          "name": "A#5",
          "ticks": 67680,
          "time": 49.314209999999996,
          "velocity": 0.7874015748031497
        },
        {
          "duration": 0.07499999999999574,
          "durationTicks": 120,
          "midi": 77,
          "name": "F5",
          "ticks": 68040,
          "time": 49.53921,
          "velocity": 0.7874015748031497
        },
        {
          "duration": 0.07500000000000284,
          "durationTicks": 120,
          "midi": 79,
          "name": "G5",
          "ticks": 68160,
          "time": 49.61420999999999,
          "velocity": 0.7874015748031497
        },
        {
          "duration": 0.07499999999999574,
          "durationTicks": 120,
          "midi": 81,
          "name": "A5",
          "ticks": 68400,
          "time": 49.76421,
          "velocity": 0.7874015748031497
        },
        {
          "duration": 0.07499999999999574,
          "durationTicks": 120,
          "midi": 82,
          "name": "A#5",
          "ticks": 68640,
          "time": 49.91421,
          "velocity": 0.7874015748031497
        },
        {
          "duration": 0.07500000000000284,
          "durationTicks": 120,
          "midi": 77,
          "name": "F5",
          "ticks": 68880,
          "time": 50.064209999999996,
          "velocity": 0.7874015748031497
        },
        {
          "duration": 0.07500000000000284,
          "durationTicks": 120,
          "midi": 79,
          "name": "G5",
          "ticks": 69120,
          "time": 50.214209999999994,
          "velocity": 0.7874015748031497
        },
        {
          "duration": 0.07500000000000284,
          "durationTicks": 120,
          "midi": 81,
          "name": "A5",
          "ticks": 69360,
          "time": 50.36420999999999,
          "velocity": 0.7874015748031497
        },
        {
          "duration": 0.07317050000000336,
          "durationTicks": 120,
          "midi": 83,
          "name": "B5",
          "ticks": 69600,
          "time": 50.51421,
          "velocity": 0.7874015748031497
        },
        {
          "duration": 0.07317049999999625,
          "durationTicks": 120,
          "midi": 78,
          "name": "F#5",
          "ticks": 69960,
          "time": 50.7337215,
          "velocity": 0.7874015748031497
        },
        {
          "duration": 0.07317050000000336,
          "durationTicks": 120,
          "midi": 80,
          "name": "G#5",
          "ticks": 70080,
          "time": 50.806892,
          "velocity": 0.7874015748031497
        },
        {
          "duration": 0.07317050000000336,
          "durationTicks": 120,
          "midi": 82,
          "name": "A#5",
          "ticks": 70320,
          "time": 50.953233,
          "velocity": 0.7874015748031497
        },
        {
          "duration": 0.07317050000000336,
          "durationTicks": 120,
          "midi": 85,
          "name": "C#6",
          "ticks": 70560,
          "time": 51.099574,
          "velocity": 0.7874015748031497
        },
        {
          "duration": 0.07317049999999625,
          "durationTicks": 120,
          "midi": 84,
          "name": "C6",
          "ticks": 70680,
          "time": 51.1727445,
          "velocity": 0.7874015748031497
        },
        {
          "duration": 0.07317050000000336,
          "durationTicks": 120,
          "midi": 83,
          "name": "B5",
          "ticks": 70800,
          "time": 51.245915,
          "velocity": 0.7874015748031497
        },
        {
          "duration": 0.07317049999999625,
          "durationTicks": 120,
          "midi": 82,
          "name": "A#5",
          "ticks": 70920,
          "time": 51.3190855,
          "velocity": 0.7874015748031497
        },
        {
          "duration": 0.1463409999999996,
          "durationTicks": 240,
          "midi": 75,
          "name": "D#5",
          "ticks": 71040,
          "time": 51.392255999999996,
          "velocity": 0.7874015748031497
        },
        {
          "duration": 0.07195099166666807,
          "durationTicks": 118,
          "midi": 82,
          "name": "A#5",
          "ticks": 71360,
          "time": 51.58737733333333,
          "velocity": 0.7874015748031497
        },
        {
          "duration": 0.07016429583333661,
          "durationTicks": 120,
          "midi": 84,
          "name": "C6",
          "ticks": 71520,
          "time": 51.684937999999995,
          "velocity": 0.7874015748031497
        },
        {
          "duration": 0.06976724999999817,
          "durationTicks": 120,
          "midi": 79,
          "name": "G5",
          "ticks": 71880,
          "time": 51.894636795833335,
          "velocity": 0.7874015748031497
        },
        {
          "duration": 0.06976724999999817,
          "durationTicks": 120,
          "midi": 81,
          "name": "A5",
          "ticks": 72000,
          "time": 51.964404045833334,
          "velocity": 0.7874015748031497
        },
        {
          "duration": 0.06976724999999817,
          "durationTicks": 120,
          "midi": 83,
          "name": "B5",
          "ticks": 72240,
          "time": 52.10393854583334,
          "velocity": 0.7874015748031497
        },
        {
          "duration": 0.04651150000000115,
          "durationTicks": 80,
          "midi": 85,
          "name": "C#6",
          "ticks": 72480,
          "time": 52.24347304583333,
          "velocity": 0.7874015748031497
        },
        {
          "duration": 0.04651150000000115,
          "durationTicks": 80,
          "midi": 80,
          "name": "G#5",
          "ticks": 72640,
          "time": 52.336496045833336,
          "velocity": 0.7874015748031497
        },
        {
          "duration": 0.046511499999994044,
          "durationTicks": 80,
          "midi": 81,
          "name": "A5",
          "ticks": 72800,
          "time": 52.42951904583334,
          "velocity": 0.7874015748031497
        },
        {
          "duration": 0.04651150000000115,
          "durationTicks": 80,
          "midi": 82,
          "name": "A#5",
          "ticks": 72960,
          "time": 52.52254204583333,
          "velocity": 0.7874015748031497
        },
        {
          "duration": 0.04651150000000115,
          "durationTicks": 80,
          "midi": 83,
          "name": "B5",
          "ticks": 73120,
          "time": 52.615565045833335,
          "velocity": 0.7874015748031497
        },
        {
          "duration": 0.046511499999994044,
          "durationTicks": 80,
          "midi": 84,
          "name": "C6",
          "ticks": 73280,
          "time": 52.70858804583334,
          "velocity": 0.7874015748031497
        },
        {
          "duration": 0.06849299999999658,
          "durationTicks": 120,
          "midi": 86,
          "name": "D6",
          "ticks": 73440,
          "time": 52.80161104583333,
          "velocity": 0.7874015748031497
        },
        {
          "duration": 0.06849300000000369,
          "durationTicks": 120,
          "midi": 81,
          "name": "A5",
          "ticks": 73800,
          "time": 53.00709004583333,
          "velocity": 0.7874015748031497
        },
        {
          "duration": 0.06849299999999658,
          "durationTicks": 120,
          "midi": 83,
          "name": "B5",
          "ticks": 73920,
          "time": 53.07558304583333,
          "velocity": 0.7874015748031497
        },
        {
          "duration": 0.06849299999999658,
          "durationTicks": 120,
          "midi": 85,
          "name": "C#6",
          "ticks": 74160,
          "time": 53.212569045833334,
          "velocity": 0.7874015748031497
        },
        {
          "duration": 0.06849299999999658,
          "durationTicks": 120,
          "midi": 88,
          "name": "E6",
          "ticks": 74400,
          "time": 53.349555045833334,
          "velocity": 0.7874015748031497
        },
        {
          "duration": 0.06849300000000369,
          "durationTicks": 120,
          "midi": 87,
          "name": "D#6",
          "ticks": 74520,
          "time": 53.41804804583333,
          "velocity": 0.7874015748031497
        },
        {
          "duration": 0.06849299999999658,
          "durationTicks": 120,
          "midi": 86,
          "name": "D6",
          "ticks": 74640,
          "time": 53.486541045833334,
          "velocity": 0.7874015748031497
        },
        {
          "duration": 0.06849300000000369,
          "durationTicks": 120,
          "midi": 85,
          "name": "C#6",
          "ticks": 74760,
          "time": 53.55503404583333,
          "velocity": 0.7874015748031497
        },
        {
          "duration": 0.13698600000000027,
          "durationTicks": 240,
          "midi": 78,
          "name": "F#5",
          "ticks": 74880,
          "time": 53.623527045833335,
          "velocity": 0.7874015748031497
        },
        {
          "duration": 0.06849299999999658,
          "durationTicks": 120,
          "midi": 85,
          "name": "C#6",
          "ticks": 75120,
          "time": 53.760513045833335,
          "velocity": 0.7874015748031497
        },
        {
          "duration": 0.10256400000000099,
          "durationTicks": 160,
          "midi": 86,
          "name": "D6",
          "ticks": 75360,
          "time": 53.897499045833335,
          "velocity": 0.7874015748031497
        },
        {
          "duration": 0.07692300000000074,
          "durationTicks": 120,
          "midi": 81,
          "name": "A5",
          "ticks": 76320,
          "time": 54.512883045833334,
          "velocity": 0.7874015748031497
        },
        {
          "duration": 0.07692300000000074,
          "durationTicks": 120,
          "midi": 81,
          "name": "A5",
          "ticks": 76560,
          "time": 54.666729045833335,
          "velocity": 0.7874015748031497
        },
        {
          "duration": 0.07692300000000074,
          "durationTicks": 120,
          "midi": 81,
          "name": "A5",
          "ticks": 76800,
          "time": 54.82057504583334,
          "velocity": 0.7874015748031497
        },
        {
          "duration": 0.07692299999999364,
          "durationTicks": 120,
          "midi": 81,
          "name": "A5",
          "ticks": 77040,
          "time": 54.97442104583334,
          "velocity": 0.7874015748031497
        },
        {
          "duration": 0.07692300000000074,
          "durationTicks": 120,
          "midi": 78,
          "name": "F#5",
          "ticks": 77280,
          "time": 55.12826704583333,
          "velocity": 0.7874015748031497
        },
        {
          "duration": 0.07692300000000074,
          "durationTicks": 120,
          "midi": 79,
          "name": "G5",
          "ticks": 77520,
          "time": 55.282113045833334,
          "velocity": 0.7874015748031497
        },
        {
          "duration": 0.07692300000000074,
          "durationTicks": 120,
          "midi": 80,
          "name": "G#5",
          "ticks": 77760,
          "time": 55.435959045833336,
          "velocity": 0.7874015748031497
        },
        {
          "duration": 0.07692300000000074,
          "durationTicks": 120,
          "midi": 81,
          "name": "A5",
          "ticks": 78000,
          "time": 55.58980504583334,
          "velocity": 0.7874015748031497
        },
        {
          "duration": 0.06849299999999658,
          "durationTicks": 120,
          "midi": 82,
          "name": "A#5",
          "ticks": 78240,
          "time": 55.74365104583333,
          "velocity": 0.7874015748031497
        },
        {
          "duration": 0.06849299999999658,
          "durationTicks": 120,
          "midi": 83,
          "name": "B5",
          "ticks": 78480,
          "time": 55.88063704583333,
          "velocity": 0.7874015748031497
        },
        {
          "duration": 0.06849299999999658,
          "durationTicks": 120,
          "midi": 85,
          "name": "C#6",
          "ticks": 78720,
          "time": 56.01762304583333,
          "velocity": 0.7874015748031497
        },
        {
          "duration": 0.27397200000000055,
          "durationTicks": 480,
          "midi": 78,
          "name": "F#5",
          "ticks": 78960,
          "time": 56.15460904583333,
          "velocity": 0.7874015748031497
        },
        {
          "duration": 0.06849299999999658,
          "durationTicks": 120,
          "midi": 77,
          "name": "F5",
          "ticks": 79440,
          "time": 56.42858104583333,
          "velocity": 0.7874015748031497
        },
        {
          "duration": 0.06849299999999658,
          "durationTicks": 120,
          "midi": 78,
          "name": "F#5",
          "ticks": 79680,
          "time": 56.56556704583333,
          "velocity": 0.7874015748031497
        },
        {
          "duration": 0.06849299999999658,
          "durationTicks": 120,
          "midi": 77,
          "name": "F5",
          "ticks": 79920,
          "time": 56.702553045833334,
          "velocity": 0.7874015748031497
        },
        {
          "duration": 0.06849299999999658,
          "durationTicks": 120,
          "midi": 78,
          "name": "F#5",
          "ticks": 80160,
          "time": 56.839539045833334,
          "velocity": 0.7874015748031497
        },
        {
          "duration": 0.06849299999999658,
          "durationTicks": 120,
          "midi": 77,
          "name": "F5",
          "ticks": 80400,
          "time": 56.976525045833334,
          "velocity": 0.7874015748031497
        },
        {
          "duration": 0.06849299999999658,
          "durationTicks": 120,
          "midi": 78,
          "name": "F#5",
          "ticks": 80640,
          "time": 57.113511045833334,
          "velocity": 0.7874015748031497
        },
        {
          "duration": 0.06849299999999658,
          "durationTicks": 120,
          "midi": 77,
          "name": "F5",
          "ticks": 80880,
          "time": 57.250497045833335,
          "velocity": 0.7874015748031497
        },
        {
          "duration": 0.06849299999999658,
          "durationTicks": 120,
          "midi": 78,
          "name": "F#5",
          "ticks": 81120,
          "time": 57.387483045833335,
          "velocity": 0.7874015748031497
        },
        {
          "duration": 0.06849300000000369,
          "durationTicks": 120,
          "midi": 77,
          "name": "F5",
          "ticks": 81360,
          "time": 57.52446904583333,
          "velocity": 0.7874015748031497
        },
        {
          "duration": 0.06849300000000369,
          "durationTicks": 120,
          "midi": 78,
          "name": "F#5",
          "ticks": 81600,
          "time": 57.66145504583333,
          "velocity": 0.7874015748031497
        },
        {
          "duration": 0.06849300000000369,
          "durationTicks": 120,
          "midi": 77,
          "name": "F5",
          "ticks": 81840,
          "time": 57.79844104583333,
          "velocity": 0.7874015748031497
        },
        {
          "duration": 0.06849300000000369,
          "durationTicks": 120,
          "midi": 78,
          "name": "F#5",
          "ticks": 82080,
          "time": 57.93542704583333,
          "velocity": 0.7874015748031497
        },
        {
          "duration": 0.06849300000000369,
          "durationTicks": 120,
          "midi": 78,
          "name": "F#5",
          "ticks": 82320,
          "time": 58.07241304583333,
          "velocity": 0.7874015748031497
        },
        {
          "duration": 0.06849300000000369,
          "durationTicks": 120,
          "midi": 78,
          "name": "F#5",
          "ticks": 82560,
          "time": 58.20939904583333,
          "velocity": 0.7874015748031497
        },
        {
          "duration": 0.27397200000000055,
          "durationTicks": 480,
          "midi": 78,
          "name": "F#5",
          "ticks": 82800,
          "time": 58.34638504583333,
          "velocity": 0.7874015748031497
        },
        {
          "duration": 0.06849300000000369,
          "durationTicks": 120,
          "midi": 80,
          "name": "G#5",
          "ticks": 83280,
          "time": 58.62035704583333,
          "velocity": 0.7874015748031497
        },
        {
          "duration": 0.06849300000000369,
          "durationTicks": 120,
          "midi": 83,
          "name": "B5",
          "ticks": 83520,
          "time": 58.75734304583333,
          "velocity": 0.7874015748031497
        },
        {
          "duration": 0.06849300000000369,
          "durationTicks": 120,
          "midi": 85,
          "name": "C#6",
          "ticks": 83760,
          "time": 58.89432904583333,
          "velocity": 0.7874015748031497
        },
        {
          "duration": 0.06849300000000369,
          "durationTicks": 120,
          "midi": 78,
          "name": "F#5",
          "ticks": 84000,
          "time": 59.03131504583333,
          "velocity": 0.7874015748031497
        },
        {
          "duration": 0.06849300000000369,
          "durationTicks": 120,
          "midi": 80,
          "name": "G#5",
          "ticks": 84240,
          "time": 59.16830104583333,
          "velocity": 0.7874015748031497
        },
        {
          "duration": 0.06849299999999658,
          "durationTicks": 120,
          "midi": 83,
          "name": "B5",
          "ticks": 84480,
          "time": 59.30528704583333,
          "velocity": 0.7874015748031497
        },
        {
          "duration": 0.06849299999999658,
          "durationTicks": 120,
          "midi": 85,
          "name": "C#6",
          "ticks": 84720,
          "time": 59.44227304583333,
          "velocity": 0.7874015748031497
        },
        {
          "duration": 0.06849299999999658,
          "durationTicks": 120,
          "midi": 78,
          "name": "F#5",
          "ticks": 84960,
          "time": 59.57925904583333,
          "velocity": 0.7874015748031497
        },
        {
          "duration": 0.06849299999999658,
          "durationTicks": 120,
          "midi": 80,
          "name": "G#5",
          "ticks": 85200,
          "time": 59.71624504583333,
          "velocity": 0.7874015748031497
        },
        {
          "duration": 0.06849299999999658,
          "durationTicks": 120,
          "midi": 83,
          "name": "B5",
          "ticks": 85440,
          "time": 59.85323104583333,
          "velocity": 0.7874015748031497
        },
        {
          "duration": 0.06849299999999658,
          "durationTicks": 120,
          "midi": 85,
          "name": "C#6",
          "ticks": 85680,
          "time": 59.99021704583333,
          "velocity": 0.7874015748031497
        },
        {
          "duration": 0.27397200000000055,
          "durationTicks": 480,
          "midi": 87,
          "name": "D#6",
          "ticks": 85920,
          "time": 60.12720304583333,
          "velocity": 0.7874015748031497
        },
        {
          "duration": 0.06849299999999658,
          "durationTicks": 120,
          "midi": 85,
          "name": "C#6",
          "ticks": 86400,
          "time": 60.401175045833334,
          "velocity": 0.7874015748031497
        },
        {
          "duration": 0.27397200000000055,
          "durationTicks": 480,
          "midi": 82,
          "name": "A#5",
          "ticks": 86640,
          "time": 60.538161045833334,
          "velocity": 0.7874015748031497
        },
        {
          "duration": 0.06849299999999658,
          "durationTicks": 120,
          "midi": 81,
          "name": "A5",
          "ticks": 87120,
          "time": 60.812133045833335,
          "velocity": 0.7874015748031497
        },
        {
          "duration": 0.06849300000000369,
          "durationTicks": 120,
          "midi": 82,
          "name": "A#5",
          "ticks": 87360,
          "time": 60.94911904583333,
          "velocity": 0.7874015748031497
        },
        {
          "duration": 0.06849299999999658,
          "durationTicks": 120,
          "midi": 81,
          "name": "A5",
          "ticks": 87600,
          "time": 61.086105045833335,
          "velocity": 0.7874015748031497
        },
        {
          "duration": 0.06849300000000369,
          "durationTicks": 120,
          "midi": 82,
          "name": "A#5",
          "ticks": 87840,
          "time": 61.22309104583333,
          "velocity": 0.7874015748031497
        },
        {
          "duration": 0.06849300000000369,
          "durationTicks": 120,
          "midi": 82,
          "name": "A#5",
          "ticks": 88080,
          "time": 61.36007704583333,
          "velocity": 0.7874015748031497
        },
        {
          "duration": 0.06849300000000369,
          "durationTicks": 120,
          "midi": 82,
          "name": "A#5",
          "ticks": 88320,
          "time": 61.49706304583333,
          "velocity": 0.7874015748031497
        },
        {
          "duration": 0.06849300000000369,
          "durationTicks": 120,
          "midi": 82,
          "name": "A#5",
          "ticks": 88560,
          "time": 61.63404904583333,
          "velocity": 0.7874015748031497
        },
        {
          "duration": 0.06849300000000369,
          "durationTicks": 120,
          "midi": 81,
          "name": "A5",
          "ticks": 88800,
          "time": 61.77103504583333,
          "velocity": 0.7874015748031497
        },
        {
          "duration": 0.06849300000000369,
          "durationTicks": 120,
          "midi": 82,
          "name": "A#5",
          "ticks": 89040,
          "time": 61.90802104583333,
          "velocity": 0.7874015748031497
        },
        {
          "duration": 0.06849300000000369,
          "durationTicks": 120,
          "midi": 81,
          "name": "A5",
          "ticks": 89280,
          "time": 62.04500704583333,
          "velocity": 0.7874015748031497
        },
        {
          "duration": 0.06849300000000369,
          "durationTicks": 120,
          "midi": 82,
          "name": "A#5",
          "ticks": 89520,
          "time": 62.18199304583333,
          "velocity": 0.7874015748031497
        },
        {
          "duration": 0.06849300000000369,
          "durationTicks": 120,
          "midi": 83,
          "name": "B5",
          "ticks": 89760,
          "time": 62.31897904583333,
          "velocity": 0.7874015748031497
        },
        {
          "duration": 0.06849300000000369,
          "durationTicks": 120,
          "midi": 82,
          "name": "A#5",
          "ticks": 90000,
          "time": 62.45596504583333,
          "velocity": 0.7874015748031497
        },
        {
          "duration": 0.06849300000000369,
          "durationTicks": 120,
          "midi": 81,
          "name": "A5",
          "ticks": 90240,
          "time": 62.59295104583333,
          "velocity": 0.7874015748031497
        },
        {
          "duration": 0.20547900000000396,
          "durationTicks": 360,
          "midi": 80,
          "name": "G#5",
          "ticks": 90480,
          "time": 62.72993704583333,
          "velocity": 0.7874015748031497
        },
        {
          "duration": 0.06849299999999658,
          "durationTicks": 120,
          "midi": 80,
          "name": "G#5",
          "ticks": 90960,
          "time": 63.00390904583333,
          "velocity": 0.7874015748031497
        },
        {
          "duration": 0.06849299999999658,
          "durationTicks": 120,
          "midi": 80,
          "name": "G#5",
          "ticks": 91200,
          "time": 63.14089504583333,
          "velocity": 0.7874015748031497
        },
        {
          "duration": 0.06849299999999658,
          "durationTicks": 120,
          "midi": 80,
          "name": "G#5",
          "ticks": 91440,
          "time": 63.27788104583333,
          "velocity": 0.7874015748031497
        },
        {
          "duration": 0.06849299999999658,
          "durationTicks": 120,
          "midi": 80,
          "name": "G#5",
          "ticks": 91680,
          "time": 63.41486704583333,
          "velocity": 0.7874015748031497
        },
        {
          "duration": 0.06849299999999658,
          "durationTicks": 120,
          "midi": 79,
          "name": "G5",
          "ticks": 91920,
          "time": 63.55185304583333,
          "velocity": 0.7874015748031497
        },
        {
          "duration": 0.06849299999999658,
          "durationTicks": 120,
          "midi": 79,
          "name": "G5",
          "ticks": 92160,
          "time": 63.68883904583333,
          "velocity": 0.7874015748031497
        },
        {
          "duration": 0.06849299999999658,
          "durationTicks": 120,
          "midi": 79,
          "name": "G5",
          "ticks": 92400,
          "time": 63.825825045833334,
          "velocity": 0.7874015748031497
        },
        {
          "duration": 0.06849300000000369,
          "durationTicks": 120,
          "midi": 78,
          "name": "F#5",
          "ticks": 92640,
          "time": 63.962811045833334,
          "velocity": 0.7874015748031497
        },
        {
          "duration": 0.06849300000000369,
          "durationTicks": 120,
          "midi": 78,
          "name": "F#5",
          "ticks": 92880,
          "time": 64.09979704583333,
          "velocity": 0.7874015748031497
        },
        {
          "duration": 0.06849299999998948,
          "durationTicks": 120,
          "midi": 78,
          "name": "F#5",
          "ticks": 93120,
          "time": 64.23678304583333,
          "velocity": 0.7874015748031497
        },
        {
          "duration": 0.06849300000000369,
          "durationTicks": 120,
          "midi": 78,
          "name": "F#5",
          "ticks": 93360,
          "time": 64.37376904583333,
          "velocity": 0.7874015748031497
        },
        {
          "duration": 0.06849300000000369,
          "durationTicks": 120,
          "midi": 78,
          "name": "F#5",
          "ticks": 93600,
          "time": 64.51075504583333,
          "velocity": 0.7874015748031497
        },
        {
          "duration": 0.06849300000000369,
          "durationTicks": 120,
          "midi": 78,
          "name": "F#5",
          "ticks": 93840,
          "time": 64.64774104583333,
          "velocity": 0.7874015748031497
        },
        {
          "duration": 0.06849299999998948,
          "durationTicks": 120,
          "midi": 78,
          "name": "F#5",
          "ticks": 94080,
          "time": 64.78472704583334,
          "velocity": 0.7874015748031497
        },
        {
          "duration": 0.27397200000000055,
          "durationTicks": 480,
          "midi": 78,
          "name": "F#5",
          "ticks": 94320,
          "time": 64.92171304583333,
          "velocity": 0.7874015748031497
        },
        {
          "duration": 0.06849300000000369,
          "durationTicks": 120,
          "midi": 77,
          "name": "F5",
          "ticks": 94800,
          "time": 65.19568504583333,
          "velocity": 0.7874015748031497
        },
        {
          "duration": 0.06849299999998948,
          "durationTicks": 120,
          "midi": 78,
          "name": "F#5",
          "ticks": 95040,
          "time": 65.33267104583334,
          "velocity": 0.7874015748031497
        },
        {
          "duration": 0.06849300000000369,
          "durationTicks": 120,
          "midi": 77,
          "name": "F5",
          "ticks": 95280,
          "time": 65.46965704583333,
          "velocity": 0.7874015748031497
        },
        {
          "duration": 0.06849299999998948,
          "durationTicks": 120,
          "midi": 78,
          "name": "F#5",
          "ticks": 95520,
          "time": 65.60664304583334,
          "velocity": 0.7874015748031497
        },
        {
          "duration": 0.06849300000000369,
          "durationTicks": 120,
          "midi": 77,
          "name": "F5",
          "ticks": 95760,
          "time": 65.74362904583333,
          "velocity": 0.7874015748031497
        },
        {
          "duration": 0.06849299999998948,
          "durationTicks": 120,
          "midi": 78,
          "name": "F#5",
          "ticks": 96000,
          "time": 65.88061504583334,
          "velocity": 0.7874015748031497
        },
        {
          "duration": 0.06849300000000369,
          "durationTicks": 120,
          "midi": 77,
          "name": "F5",
          "ticks": 96240,
          "time": 66.01760104583333,
          "velocity": 0.7874015748031497
        },
        {
          "duration": 0.06849300000000369,
          "durationTicks": 120,
          "midi": 78,
          "name": "F#5",
          "ticks": 96480,
          "time": 66.15458704583332,
          "velocity": 0.7874015748031497
        },
        {
          "duration": 0.06849300000000369,
          "durationTicks": 120,
          "midi": 77,
          "name": "F5",
          "ticks": 96720,
          "time": 66.29157304583333,
          "velocity": 0.7874015748031497
        },
        {
          "duration": 0.06849299999998948,
          "durationTicks": 120,
          "midi": 78,
          "name": "F#5",
          "ticks": 96960,
          "time": 66.42855904583334,
          "velocity": 0.7874015748031497
        },
        {
          "duration": 0.06849300000000369,
          "durationTicks": 120,
          "midi": 77,
          "name": "F5",
          "ticks": 97200,
          "time": 66.56554504583333,
          "velocity": 0.7874015748031497
        },
        {
          "duration": 0.06849300000000369,
          "durationTicks": 120,
          "midi": 78,
          "name": "F#5",
          "ticks": 97440,
          "time": 66.70253104583333,
          "velocity": 0.7874015748031497
        },
        {
          "duration": 0.06849300000000369,
          "durationTicks": 120,
          "midi": 78,
          "name": "F#5",
          "ticks": 97680,
          "time": 66.83951704583333,
          "velocity": 0.7874015748031497
        },
        {
          "duration": 0.06849300000000369,
          "durationTicks": 120,
          "midi": 78,
          "name": "F#5",
          "ticks": 97920,
          "time": 66.97650304583333,
          "velocity": 0.7874015748031497
        },
        {
          "duration": 0.27397200000000055,
          "durationTicks": 480,
          "midi": 78,
          "name": "F#5",
          "ticks": 98160,
          "time": 67.11348904583333,
          "velocity": 0.7874015748031497
        },
        {
          "duration": 0.06849300000000369,
          "durationTicks": 120,
          "midi": 80,
          "name": "G#5",
          "ticks": 98640,
          "time": 67.38746104583333,
          "velocity": 0.7874015748031497
        },
        {
          "duration": 0.06849300000000369,
          "durationTicks": 120,
          "midi": 83,
          "name": "B5",
          "ticks": 98880,
          "time": 67.52444704583333,
          "velocity": 0.7874015748031497
        },
        {
          "duration": 0.06849300000000369,
          "durationTicks": 120,
          "midi": 85,
          "name": "C#6",
          "ticks": 99120,
          "time": 67.66143304583333,
          "velocity": 0.7874015748031497
        },
        {
          "duration": 0.06849300000000369,
          "durationTicks": 120,
          "midi": 78,
          "name": "F#5",
          "ticks": 99360,
          "time": 67.79841904583333,
          "velocity": 0.7874015748031497
        },
        {
          "duration": 0.06849299999998948,
          "durationTicks": 120,
          "midi": 80,
          "name": "G#5",
          "ticks": 99600,
          "time": 67.93540504583333,
          "velocity": 0.7874015748031497
        },
        {
          "duration": 0.06849300000000369,
          "durationTicks": 120,
          "midi": 83,
          "name": "B5",
          "ticks": 99840,
          "time": 68.07239104583333,
          "velocity": 0.7874015748031497
        },
        {
          "duration": 0.06849300000000369,
          "durationTicks": 120,
          "midi": 85,
          "name": "C#6",
          "ticks": 100080,
          "time": 68.20937704583334,
          "velocity": 0.7874015748031497
        },
        {
          "duration": 0.06849300000000369,
          "durationTicks": 120,
          "midi": 78,
          "name": "F#5",
          "ticks": 100320,
          "time": 68.34636304583333,
          "velocity": 0.7874015748031497
        },
        {
          "duration": 0.06849299999998948,
          "durationTicks": 120,
          "midi": 80,
          "name": "G#5",
          "ticks": 100560,
          "time": 68.48334904583334,
          "velocity": 0.7874015748031497
        },
        {
          "duration": 0.06849300000000369,
          "durationTicks": 120,
          "midi": 83,
          "name": "B5",
          "ticks": 100800,
          "time": 68.62033504583333,
          "velocity": 0.7874015748031497
        },
        {
          "duration": 0.06849299999998948,
          "durationTicks": 120,
          "midi": 85,
          "name": "C#6",
          "ticks": 101040,
          "time": 68.75732104583334,
          "velocity": 0.7874015748031497
        },
        {
          "duration": 0.27397200000000055,
          "durationTicks": 480,
          "midi": 87,
          "name": "D#6",
          "ticks": 101280,
          "time": 68.89430704583333,
          "velocity": 0.7874015748031497
        },
        {
          "duration": 0.06849300000000369,
          "durationTicks": 120,
          "midi": 85,
          "name": "C#6",
          "ticks": 101760,
          "time": 69.16827904583333,
          "velocity": 0.7874015748031497
        },
        {
          "duration": 0.27397200000000055,
          "durationTicks": 480,
          "midi": 82,
          "name": "A#5",
          "ticks": 102000,
          "time": 69.30526504583334,
          "velocity": 0.7874015748031497
        },
        {
          "duration": 0.06849299999998948,
          "durationTicks": 120,
          "midi": 81,
          "name": "A5",
          "ticks": 102480,
          "time": 69.57923704583334,
          "velocity": 0.7874015748031497
        },
        {
          "duration": 0.06849300000000369,
          "durationTicks": 120,
          "midi": 82,
          "name": "A#5",
          "ticks": 102720,
          "time": 69.71622304583333,
          "velocity": 0.7874015748031497
        },
        {
          "duration": 0.06849300000000369,
          "durationTicks": 120,
          "midi": 81,
          "name": "A5",
          "ticks": 102960,
          "time": 69.85320904583332,
          "velocity": 0.7874015748031497
        },
        {
          "duration": 0.06849300000000369,
          "durationTicks": 120,
          "midi": 82,
          "name": "A#5",
          "ticks": 103200,
          "time": 69.99019504583333,
          "velocity": 0.7874015748031497
        },
        {
          "duration": 0.06849299999998948,
          "durationTicks": 120,
          "midi": 82,
          "name": "A#5",
          "ticks": 103440,
          "time": 70.12718104583334,
          "velocity": 0.7874015748031497
        },
        {
          "duration": 0.06849300000000369,
          "durationTicks": 120,
          "midi": 82,
          "name": "A#5",
          "ticks": 103680,
          "time": 70.26416704583333,
          "velocity": 0.7874015748031497
        },
        {
          "duration": 0.06849300000000369,
          "durationTicks": 120,
          "midi": 82,
          "name": "A#5",
          "ticks": 103920,
          "time": 70.40115304583333,
          "velocity": 0.7874015748031497
        },
        {
          "duration": 0.06849300000000369,
          "durationTicks": 120,
          "midi": 81,
          "name": "A5",
          "ticks": 104160,
          "time": 70.53813904583333,
          "velocity": 0.7874015748031497
        },
        {
          "duration": 0.06849300000000369,
          "durationTicks": 120,
          "midi": 82,
          "name": "A#5",
          "ticks": 104400,
          "time": 70.67512504583333,
          "velocity": 0.7874015748031497
        },
        {
          "duration": 0.06849300000000369,
          "durationTicks": 120,
          "midi": 81,
          "name": "A5",
          "ticks": 104640,
          "time": 70.81211104583333,
          "velocity": 0.7874015748031497
        },
        {
          "duration": 0.06849300000000369,
          "durationTicks": 120,
          "midi": 82,
          "name": "A#5",
          "ticks": 104880,
          "time": 70.94909704583333,
          "velocity": 0.7874015748031497
        },
        {
          "duration": 0.06849299999998948,
          "durationTicks": 120,
          "midi": 83,
          "name": "B5",
          "ticks": 105120,
          "time": 71.08608304583333,
          "velocity": 0.7874015748031497
        },
        {
          "duration": 0.06849300000000369,
          "durationTicks": 120,
          "midi": 82,
          "name": "A#5",
          "ticks": 105360,
          "time": 71.22306904583333,
          "velocity": 0.7874015748031497
        },
        {
          "duration": 0.06849300000000369,
          "durationTicks": 120,
          "midi": 81,
          "name": "A5",
          "ticks": 105600,
          "time": 71.36005504583333,
          "velocity": 0.7874015748031497
        },
        {
          "duration": 0.20547899999999686,
          "durationTicks": 360,
          "midi": 80,
          "name": "G#5",
          "ticks": 105840,
          "time": 71.49704104583333,
          "velocity": 0.7874015748031497
        },
        {
          "duration": 0.06849300000000369,
          "durationTicks": 120,
          "midi": 80,
          "name": "G#5",
          "ticks": 106320,
          "time": 71.77101304583333,
          "velocity": 0.7874015748031497
        },
        {
          "duration": 0.06849300000000369,
          "durationTicks": 120,
          "midi": 80,
          "name": "G#5",
          "ticks": 106560,
          "time": 71.90799904583334,
          "velocity": 0.7874015748031497
        },
        {
          "duration": 0.06849300000000369,
          "durationTicks": 120,
          "midi": 80,
          "name": "G#5",
          "ticks": 106800,
          "time": 72.04498504583333,
          "velocity": 0.7874015748031497
        },
        {
          "duration": 0.06849299999998948,
          "durationTicks": 120,
          "midi": 79,
          "name": "G5",
          "ticks": 107040,
          "time": 72.18197104583334,
          "velocity": 0.7874015748031497
        },
        {
          "duration": 0.06849300000000369,
          "durationTicks": 120,
          "midi": 79,
          "name": "G5",
          "ticks": 107280,
          "time": 72.31895704583333,
          "velocity": 0.7874015748031497
        },
        {
          "duration": 0.06849300000000369,
          "durationTicks": 120,
          "midi": 79,
          "name": "G5",
          "ticks": 107520,
          "time": 72.45594304583332,
          "velocity": 0.7874015748031497
        },
        {
          "duration": 0.06849300000000369,
          "durationTicks": 120,
          "midi": 79,
          "name": "G5",
          "ticks": 107760,
          "time": 72.59292904583333,
          "velocity": 0.7874015748031497
        },
        {
          "duration": 0.06849299999998948,
          "durationTicks": 120,
          "midi": 78,
          "name": "F#5",
          "ticks": 108000,
          "time": 72.72991504583334,
          "velocity": 0.7874015748031497
        },
        {
          "duration": 0.06849300000000369,
          "durationTicks": 120,
          "midi": 80,
          "name": "G#5",
          "ticks": 108240,
          "time": 72.86690104583333,
          "velocity": 0.7874015748031497
        },
        {
          "duration": 0.06849300000000369,
          "durationTicks": 120,
          "midi": 83,
          "name": "B5",
          "ticks": 108480,
          "time": 73.00388704583332,
          "velocity": 0.7874015748031497
        },
        {
          "duration": 0.06849300000000369,
          "durationTicks": 120,
          "midi": 82,
          "name": "A#5",
          "ticks": 108720,
          "time": 73.14087304583333,
          "velocity": 0.7874015748031497
        },
        {
          "duration": 0.06849299999998948,
          "durationTicks": 120,
          "midi": 83,
          "name": "B5",
          "ticks": 108960,
          "time": 73.27785904583334,
          "velocity": 0.7874015748031497
        },
        {
          "duration": 0.06849300000000369,
          "durationTicks": 120,
          "midi": 82,
          "name": "A#5",
          "ticks": 109440,
          "time": 73.55183104583332,
          "velocity": 0.7874015748031497
        },
        {
          "duration": 0.06849300000000369,
          "durationTicks": 120,
          "midi": 81,
          "name": "A5",
          "ticks": 109560,
          "time": 73.62032404583333,
          "velocity": 0.7874015748031497
        },
        {
          "duration": 0.06849300000000369,
          "durationTicks": 120,
          "midi": 80,
          "name": "G#5",
          "ticks": 109680,
          "time": 73.68881704583333,
          "velocity": 0.7874015748031497
        },
        {
          "duration": 0.06849300000000369,
          "durationTicks": 120,
          "midi": 79,
          "name": "G5",
          "ticks": 109800,
          "time": 73.75731004583334,
          "velocity": 0.7874015748031497
        },
        {
          "duration": 0.06912425000000155,
          "durationTicks": 120,
          "midi": 78,
          "name": "F#5",
          "ticks": 109920,
          "time": 73.82580304583334,
          "velocity": 0.7874015748031497
        },
        {
          "duration": 0.06912425000000155,
          "durationTicks": 120,
          "midi": 78,
          "name": "F#5",
          "ticks": 110160,
          "time": 73.96405154583334,
          "velocity": 0.7874015748031497
        },
        {
          "duration": 0.07317050000000336,
          "durationTicks": 120,
          "midi": 78,
          "name": "F#5",
          "ticks": 110400,
          "time": 74.10230004583335,
          "velocity": 0.7874015748031497
        },
        {
          "duration": 0.07317049999998915,
          "durationTicks": 120,
          "midi": 78,
          "name": "F#5",
          "ticks": 110640,
          "time": 74.24864104583335,
          "velocity": 0.7874015748031497
        },
        {
          "duration": 0.07692299999999364,
          "durationTicks": 120,
          "midi": 78,
          "name": "F#5",
          "ticks": 110880,
          "time": 74.39498204583334,
          "velocity": 0.7874015748031497
        },
        {
          "duration": 0.07692299999999364,
          "durationTicks": 120,
          "midi": 78,
          "name": "F#5",
          "ticks": 111120,
          "time": 74.54882804583335,
          "velocity": 0.7874015748031497
        },
        {
          "duration": 0.0819670000000059,
          "durationTicks": 120,
          "midi": 78,
          "name": "F#5",
          "ticks": 111360,
          "time": 74.70267404583335,
          "velocity": 0.7874015748031497
        },
        {
          "duration": 0.0819670000000059,
          "durationTicks": 120,
          "midi": 78,
          "name": "F#5",
          "ticks": 111600,
          "time": 74.86660804583335,
          "velocity": 0.7874015748031497
        },
        {
          "duration": 0.15232200833334275,
          "durationTicks": 223,
          "midi": 78,
          "name": "F#5",
          "ticks": 111840,
          "time": 75.03054204583334,
          "velocity": 0.7874015748031497
        },
        {
          "duration": 0.10928933333333646,
          "durationTicks": 160,
          "midi": 76,
          "name": "E5",
          "ticks": 112480,
          "time": 75.46769937916667,
          "velocity": 0.7874015748031497
        },
        {
          "duration": 0.14002695833332268,
          "durationTicks": 205,
          "midi": 73,
          "name": "C#5",
          "ticks": 113120,
          "time": 75.90485671250002,
          "velocity": 0.7874015748031497
        },
        {
          "duration": 0.16393399999999758,
          "durationTicks": 240,
          "midi": 72,
          "name": "C5",
          "ticks": 113760,
          "time": 76.34201404583335,
          "velocity": 0.7874015748031497
        },
        {
          "duration": 0.16393399999999758,
          "durationTicks": 240,
          "midi": 74,
          "name": "D5",
          "ticks": 114080,
          "time": 76.56059271250001,
          "velocity": 0.7874015748031497
        },
        {
          "duration": 0.16393399999999758,
          "durationTicks": 240,
          "midi": 75,
          "name": "D#5",
          "ticks": 114400,
          "time": 76.77917137916668,
          "velocity": 0.7874015748031497
        },
        {
          "duration": 0.1639340000000118,
          "durationTicks": 240,
          "midi": 72,
          "name": "C5",
          "ticks": 114720,
          "time": 76.99775004583334,
          "velocity": 0.7874015748031497
        },
        {
          "duration": 0.16393399999999758,
          "durationTicks": 240,
          "midi": 74,
          "name": "D5",
          "ticks": 115040,
          "time": 77.21632871250002,
          "velocity": 0.7874015748031497
        },
        {
          "duration": 0.1639340000000118,
          "durationTicks": 240,
          "midi": 75,
          "name": "D#5",
          "ticks": 115360,
          "time": 77.43490737916667,
          "velocity": 0.7874015748031497
        },
        {
          "duration": 0.16393399999999758,
          "durationTicks": 240,
          "midi": 72,
          "name": "C5",
          "ticks": 115680,
          "time": 77.65348604583335,
          "velocity": 0.7874015748031497
        },
        {
          "duration": 0.16393399999999758,
          "durationTicks": 240,
          "midi": 74,
          "name": "D5",
          "ticks": 116000,
          "time": 77.87206471250002,
          "velocity": 0.7874015748031497
        },
        {
          "duration": 0.16393399999999758,
          "durationTicks": 240,
          "midi": 75,
          "name": "D#5",
          "ticks": 116320,
          "time": 78.09064337916668,
          "velocity": 0.7874015748031497
        },
        {
          "duration": 0.1700815250000005,
          "durationTicks": 249,
          "midi": 79,
          "name": "G5",
          "ticks": 116640,
          "time": 78.30922204583335,
          "velocity": 0.7874015748031497
        },
        {
          "duration": 0.16393399999999758,
          "durationTicks": 240,
          "midi": 75,
          "name": "D#5",
          "ticks": 116960,
          "time": 78.52780071250001,
          "velocity": 0.7874015748031497
        },
        {
          "duration": 0.16393399999999758,
          "durationTicks": 240,
          "midi": 74,
          "name": "D5",
          "ticks": 117280,
          "time": 78.74637937916668,
          "velocity": 0.7874015748031497
        },
        {
          "duration": 0.1639340000000118,
          "durationTicks": 240,
          "midi": 72,
          "name": "C5",
          "ticks": 117600,
          "time": 78.96495804583334,
          "velocity": 0.7874015748031497
        },
        {
          "duration": 0.16393399999999758,
          "durationTicks": 240,
          "midi": 74,
          "name": "D5",
          "ticks": 117920,
          "time": 79.18353671250001,
          "velocity": 0.7874015748031497
        },
        {
          "duration": 0.16393399999999758,
          "durationTicks": 240,
          "midi": 75,
          "name": "D#5",
          "ticks": 118240,
          "time": 79.40211537916669,
          "velocity": 0.7874015748031497
        },
        {
          "duration": 0.16393399999999758,
          "durationTicks": 240,
          "midi": 72,
          "name": "C5",
          "ticks": 118560,
          "time": 79.62069404583335,
          "velocity": 0.7874015748031497
        },
        {
          "duration": 0.16393399999999758,
          "durationTicks": 240,
          "midi": 74,
          "name": "D5",
          "ticks": 118880,
          "time": 79.83927271250002,
          "velocity": 0.7874015748031497
        },
        {
          "duration": 0.16393399999999758,
          "durationTicks": 240,
          "midi": 75,
          "name": "D#5",
          "ticks": 119200,
          "time": 80.05785137916668,
          "velocity": 0.7874015748031497
        },
        {
          "duration": 0.16393399999999758,
          "durationTicks": 240,
          "midi": 72,
          "name": "C5",
          "ticks": 119520,
          "time": 80.27643004583335,
          "velocity": 0.7874015748031497
        },
        {
          "duration": 0.1639340000000118,
          "durationTicks": 240,
          "midi": 74,
          "name": "D5",
          "ticks": 119840,
          "time": 80.49500871250001,
          "velocity": 0.7874015748031497
        },
        {
          "duration": 0.16393399999999758,
          "durationTicks": 240,
          "midi": 75,
          "name": "D#5",
          "ticks": 120160,
          "time": 80.71358737916668,
          "velocity": 0.7874015748031497
        },
        {
          "duration": 0.1700815250000005,
          "durationTicks": 249,
          "midi": 79,
          "name": "G5",
          "ticks": 120480,
          "time": 80.93216604583334,
          "velocity": 0.7874015748031497
        },
        {
          "duration": 0.16393399999999758,
          "durationTicks": 240,
          "midi": 75,
          "name": "D#5",
          "ticks": 120800,
          "time": 81.15074471250001,
          "velocity": 0.7874015748031497
        },
        {
          "duration": 0.16393399999999758,
          "durationTicks": 240,
          "midi": 74,
          "name": "D5",
          "ticks": 121120,
          "time": 81.36932337916669,
          "velocity": 0.7874015748031497
        },
        {
          "duration": 0.16393399999999758,
          "durationTicks": 240,
          "midi": 75,
          "name": "D#5",
          "ticks": 121440,
          "time": 81.58790204583335,
          "velocity": 0.7874015748031497
        },
        {
          "duration": 0.16393399999999758,
          "durationTicks": 240,
          "midi": 77,
          "name": "F5",
          "ticks": 121680,
          "time": 81.75183604583334,
          "velocity": 0.7874015748031497
        },
        {
          "duration": 0.1639340000000118,
          "durationTicks": 240,
          "midi": 78,
          "name": "F#5",
          "ticks": 121920,
          "time": 81.91577004583334,
          "velocity": 0.7874015748031497
        },
        {
          "duration": 0.16393399999999758,
          "durationTicks": 240,
          "midi": 82,
          "name": "A#5",
          "ticks": 122160,
          "time": 82.07970404583335,
          "velocity": 0.7874015748031497
        },
        {
          "duration": 0.16393399999999758,
          "durationTicks": 240,
          "midi": 75,
          "name": "D#5",
          "ticks": 122400,
          "time": 82.24363804583335,
          "velocity": 0.7874015748031497
        },
        {
          "duration": 0.16393399999999758,
          "durationTicks": 240,
          "midi": 77,
          "name": "F5",
          "ticks": 122640,
          "time": 82.40757204583335,
          "velocity": 0.7874015748031497
        },
        {
          "duration": 0.16393399999999758,
          "durationTicks": 240,
          "midi": 78,
          "name": "F#5",
          "ticks": 122880,
          "time": 82.57150604583335,
          "velocity": 0.7874015748031497
        },
        {
          "duration": 0.1639340000000118,
          "durationTicks": 240,
          "midi": 82,
          "name": "A#5",
          "ticks": 123120,
          "time": 82.73544004583334,
          "velocity": 0.7874015748031497
        },
        {
          "duration": 0.16393399999999758,
          "durationTicks": 240,
          "midi": 75,
          "name": "D#5",
          "ticks": 123360,
          "time": 82.89937404583335,
          "velocity": 0.7874015748031497
        },
        {
          "duration": 0.16393399999999758,
          "durationTicks": 240,
          "midi": 77,
          "name": "F5",
          "ticks": 123600,
          "time": 83.06330804583335,
          "velocity": 0.7874015748031497
        },
        {
          "duration": 0.16393399999999758,
          "durationTicks": 240,
          "midi": 78,
          "name": "F#5",
          "ticks": 123840,
          "time": 83.22724204583335,
          "velocity": 0.7874015748031497
        },
        {
          "duration": 0.16393399999999758,
          "durationTicks": 240,
          "midi": 82,
          "name": "A#5",
          "ticks": 124080,
          "time": 83.39117604583335,
          "velocity": 0.7874015748031497
        },
        {
          "duration": 0.16393399999999758,
          "durationTicks": 240,
          "midi": 83,
          "name": "B5",
          "ticks": 124320,
          "time": 83.55511004583335,
          "velocity": 0.7874015748031497
        },
        {
          "duration": 0.16393399999999758,
          "durationTicks": 240,
          "midi": 82,
          "name": "A#5",
          "ticks": 124560,
          "time": 83.71904404583334,
          "velocity": 0.7874015748031497
        },
        {
          "duration": 0.1639340000000118,
          "durationTicks": 240,
          "midi": 78,
          "name": "F#5",
          "ticks": 124800,
          "time": 83.88297804583334,
          "velocity": 0.7874015748031497
        },
        {
          "duration": 0.16393399999999758,
          "durationTicks": 240,
          "midi": 77,
          "name": "F5",
          "ticks": 125040,
          "time": 84.04691204583335,
          "velocity": 0.7874015748031497
        },
        {
          "duration": 0.16393399999999758,
          "durationTicks": 240,
          "midi": 75,
          "name": "D#5",
          "ticks": 125280,
          "time": 84.21084604583335,
          "velocity": 0.7874015748031497
        },
        {
          "duration": 0.16393399999999758,
          "durationTicks": 240,
          "midi": 77,
          "name": "F5",
          "ticks": 125520,
          "time": 84.37478004583335,
          "velocity": 0.7874015748031497
        },
        {
          "duration": 0.16393399999999758,
          "durationTicks": 240,
          "midi": 78,
          "name": "F#5",
          "ticks": 125760,
          "time": 84.53871404583334,
          "velocity": 0.7874015748031497
        },
        {
          "duration": 0.1639340000000118,
          "durationTicks": 240,
          "midi": 82,
          "name": "A#5",
          "ticks": 126000,
          "time": 84.70264804583334,
          "velocity": 0.7874015748031497
        },
        {
          "duration": 0.16393399999999758,
          "durationTicks": 240,
          "midi": 75,
          "name": "D#5",
          "ticks": 126240,
          "time": 84.86658204583335,
          "velocity": 0.7874015748031497
        },
        {
          "duration": 0.16393399999999758,
          "durationTicks": 240,
          "midi": 77,
          "name": "F5",
          "ticks": 126480,
          "time": 85.03051604583335,
          "velocity": 0.7874015748031497
        },
        {
          "duration": 0.16393399999999758,
          "durationTicks": 240,
          "midi": 78,
          "name": "F#5",
          "ticks": 126720,
          "time": 85.19445004583335,
          "velocity": 0.7874015748031497
        },
        {
          "duration": 0.16393399999999758,
          "durationTicks": 240,
          "midi": 82,
          "name": "A#5",
          "ticks": 126960,
          "time": 85.35838404583335,
          "velocity": 0.7874015748031497
        },
        {
          "duration": 0.16393399999999758,
          "durationTicks": 240,
          "midi": 75,
          "name": "D#5",
          "ticks": 127200,
          "time": 85.52231804583334,
          "velocity": 0.7874015748031497
        },
        {
          "duration": 0.16393399999999758,
          "durationTicks": 240,
          "midi": 77,
          "name": "F5",
          "ticks": 127440,
          "time": 85.68625204583334,
          "velocity": 0.7874015748031497
        },
        {
          "duration": 0.1639340000000118,
          "durationTicks": 240,
          "midi": 78,
          "name": "F#5",
          "ticks": 127680,
          "time": 85.85018604583334,
          "velocity": 0.7874015748031497
        },
        {
          "duration": 0.16393399999999758,
          "durationTicks": 240,
          "midi": 82,
          "name": "A#5",
          "ticks": 127920,
          "time": 86.01412004583335,
          "velocity": 0.7874015748031497
        },
        {
          "duration": 0.16393399999999758,
          "durationTicks": 240,
          "midi": 83,
          "name": "B5",
          "ticks": 128160,
          "time": 86.17805404583335,
          "velocity": 0.7874015748031497
        },
        {
          "duration": 0.16393399999999758,
          "durationTicks": 240,
          "midi": 82,
          "name": "A#5",
          "ticks": 128400,
          "time": 86.34198804583335,
          "velocity": 0.7874015748031497
        },
        {
          "duration": 0.16393399999999758,
          "durationTicks": 240,
          "midi": 78,
          "name": "F#5",
          "ticks": 128640,
          "time": 86.50592204583334,
          "velocity": 0.7874015748031497
        },
        {
          "duration": 0.1639340000000118,
          "durationTicks": 240,
          "midi": 77,
          "name": "F5",
          "ticks": 128880,
          "time": 86.66985604583334,
          "velocity": 0.7874015748031497
        },
        {
          "duration": 0.1311471999999867,
          "durationTicks": 192,
          "midi": 72,
          "name": "C5",
          "ticks": 129120,
          "time": 86.83379004583335,
          "velocity": 0.7874015748031497
        },
        {
          "duration": 0.1311472000000009,
          "durationTicks": 192,
          "midi": 74,
          "name": "D5",
          "ticks": 129312,
          "time": 86.96493724583334,
          "velocity": 0.7874015748031497
        },
        {
          "duration": 0.1311472000000009,
          "durationTicks": 192,
          "midi": 75,
          "name": "D#5",
          "ticks": 129504,
          "time": 87.09608444583334,
          "velocity": 0.7874015748031497
        },
        {
          "duration": 0.1311472000000009,
          "durationTicks": 192,
          "midi": 79,
          "name": "G5",
          "ticks": 129696,
          "time": 87.22723164583334,
          "velocity": 0.7874015748031497
        },
        {
          "duration": 0.1311472000000009,
          "durationTicks": 192,
          "midi": 80,
          "name": "G#5",
          "ticks": 129888,
          "time": 87.35837884583334,
          "velocity": 0.7874015748031497
        },
        {
          "duration": 0.1311472000000009,
          "durationTicks": 192,
          "midi": 72,
          "name": "C5",
          "ticks": 130080,
          "time": 87.48952604583334,
          "velocity": 0.7874015748031497
        },
        {
          "duration": 0.1311472000000009,
          "durationTicks": 192,
          "midi": 74,
          "name": "D5",
          "ticks": 130272,
          "time": 87.62067324583334,
          "velocity": 0.7874015748031497
        },
        {
          "duration": 0.1311472000000009,
          "durationTicks": 192,
          "midi": 75,
          "name": "D#5",
          "ticks": 130464,
          "time": 87.75182044583335,
          "velocity": 0.7874015748031497
        },
        {
          "duration": 0.1311472000000009,
          "durationTicks": 192,
          "midi": 79,
          "name": "G5",
          "ticks": 130656,
          "time": 87.88296764583335,
          "velocity": 0.7874015748031497
        },
        {
          "duration": 0.1311472000000009,
          "durationTicks": 192,
          "midi": 80,
          "name": "G#5",
          "ticks": 130848,
          "time": 88.01411484583335,
          "velocity": 0.7874015748031497
        },
        {
          "duration": 0.1311472000000009,
          "durationTicks": 192,
          "midi": 72,
          "name": "C5",
          "ticks": 131040,
          "time": 88.14526204583335,
          "velocity": 0.7874015748031497
        },
        {
          "duration": 0.1311472000000009,
          "durationTicks": 192,
          "midi": 74,
          "name": "D5",
          "ticks": 131232,
          "time": 88.27640924583335,
          "velocity": 0.7874015748031497
        },
        {
          "duration": 0.1311472000000009,
          "durationTicks": 192,
          "midi": 75,
          "name": "D#5",
          "ticks": 131424,
          "time": 88.40755644583335,
          "velocity": 0.7874015748031497
        },
        {
          "duration": 0.1311472000000009,
          "durationTicks": 192,
          "midi": 79,
          "name": "G5",
          "ticks": 131616,
          "time": 88.53870364583335,
          "velocity": 0.7874015748031497
        },
        {
          "duration": 0.1311472000000009,
          "durationTicks": 192,
          "midi": 80,
          "name": "G#5",
          "ticks": 131808,
          "time": 88.66985084583335,
          "velocity": 0.7874015748031497
        },
        {
          "duration": 0.1311471999999867,
          "durationTicks": 192,
          "midi": 84,
          "name": "C6",
          "ticks": 132000,
          "time": 88.80099804583335,
          "velocity": 0.7874015748031497
        },
        {
          "duration": 0.1311472000000009,
          "durationTicks": 192,
          "midi": 80,
          "name": "G#5",
          "ticks": 132192,
          "time": 88.93214524583334,
          "velocity": 0.7874015748031497
        },
        {
          "duration": 0.1311472000000009,
          "durationTicks": 192,
          "midi": 79,
          "name": "G5",
          "ticks": 132384,
          "time": 89.06329244583334,
          "velocity": 0.7874015748031497
        },
        {
          "duration": 0.1311472000000009,
          "durationTicks": 192,
          "midi": 75,
          "name": "D#5",
          "ticks": 132576,
          "time": 89.19443964583334,
          "velocity": 0.7874015748031497
        },
        {
          "duration": 0.1311472000000009,
          "durationTicks": 192,
          "midi": 74,
          "name": "D5",
          "ticks": 132768,
          "time": 89.32558684583334,
          "velocity": 0.7874015748031497
        },
        {
          "duration": 0.1311472000000009,
          "durationTicks": 192,
          "midi": 72,
          "name": "C5",
          "ticks": 132960,
          "time": 89.45673404583334,
          "velocity": 0.7874015748031497
        },
        {
          "duration": 0.1311472000000009,
          "durationTicks": 192,
          "midi": 74,
          "name": "D5",
          "ticks": 133152,
          "time": 89.58788124583334,
          "velocity": 0.7874015748031497
        },
        {
          "duration": 0.1311472000000009,
          "durationTicks": 192,
          "midi": 75,
          "name": "D#5",
          "ticks": 133344,
          "time": 89.71902844583335,
          "velocity": 0.7874015748031497
        },
        {
          "duration": 0.1311472000000009,
          "durationTicks": 192,
          "midi": 79,
          "name": "G5",
          "ticks": 133536,
          "time": 89.85017564583335,
          "velocity": 0.7874015748031497
        },
        {
          "duration": 0.1311472000000009,
          "durationTicks": 192,
          "midi": 80,
          "name": "G#5",
          "ticks": 133728,
          "time": 89.98132284583335,
          "velocity": 0.7874015748031497
        },
        {
          "duration": 0.1311472000000009,
          "durationTicks": 192,
          "midi": 72,
          "name": "C5",
          "ticks": 133920,
          "time": 90.11247004583335,
          "velocity": 0.7874015748031497
        },
        {
          "duration": 0.1311472000000009,
          "durationTicks": 192,
          "midi": 74,
          "name": "D5",
          "ticks": 134112,
          "time": 90.24361724583335,
          "velocity": 0.7874015748031497
        },
        {
          "duration": 0.1311472000000009,
          "durationTicks": 192,
          "midi": 75,
          "name": "D#5",
          "ticks": 134304,
          "time": 90.37476444583335,
          "velocity": 0.7874015748031497
        },
        {
          "duration": 0.1311472000000009,
          "durationTicks": 192,
          "midi": 79,
          "name": "G5",
          "ticks": 134496,
          "time": 90.50591164583335,
          "velocity": 0.7874015748031497
        },
        {
          "duration": 0.1311472000000009,
          "durationTicks": 192,
          "midi": 80,
          "name": "G#5",
          "ticks": 134688,
          "time": 90.63705884583335,
          "velocity": 0.7874015748031497
        },
        {
          "duration": 0.1311471999999867,
          "durationTicks": 192,
          "midi": 72,
          "name": "C5",
          "ticks": 134880,
          "time": 90.76820604583335,
          "velocity": 0.7874015748031497
        },
        {
          "duration": 0.13114720000001512,
          "durationTicks": 192,
          "midi": 74,
          "name": "D5",
          "ticks": 135072,
          "time": 90.89935324583334,
          "velocity": 0.7874015748031497
        },
        {
          "duration": 0.1311471999999867,
          "durationTicks": 192,
          "midi": 75,
          "name": "D#5",
          "ticks": 135264,
          "time": 91.03050044583335,
          "velocity": 0.7874015748031497
        },
        {
          "duration": 0.13114720000001512,
          "durationTicks": 192,
          "midi": 80,
          "name": "G#5",
          "ticks": 135456,
          "time": 91.16164764583334,
          "velocity": 0.7874015748031497
        },
        {
          "duration": 0.1311471999999867,
          "durationTicks": 192,
          "midi": 84,
          "name": "C6",
          "ticks": 135648,
          "time": 91.29279484583336,
          "velocity": 0.7874015748031497
        },
        {
          "duration": 0.1311472000000009,
          "durationTicks": 192,
          "midi": 86,
          "name": "D6",
          "ticks": 135840,
          "time": 91.42394204583334,
          "velocity": 0.7874015748031497
        },
        {
          "duration": 0.1311472000000009,
          "durationTicks": 192,
          "midi": 84,
          "name": "C6",
          "ticks": 136032,
          "time": 91.55508924583334,
          "velocity": 0.7874015748031497
        },
        {
          "duration": 0.1311472000000009,
          "durationTicks": 192,
          "midi": 80,
          "name": "G#5",
          "ticks": 136224,
          "time": 91.68623644583334,
          "velocity": 0.7874015748031497
        },
        {
          "duration": 0.1311472000000009,
          "durationTicks": 192,
          "midi": 79,
          "name": "G5",
          "ticks": 136416,
          "time": 91.81738364583335,
          "velocity": 0.7874015748031497
        },
        {
          "duration": 0.1311472000000009,
          "durationTicks": 192,
          "midi": 74,
          "name": "D5",
          "ticks": 136608,
          "time": 91.94853084583335,
          "velocity": 0.7874015748031497
        },
        {
          "duration": 0.10928933333333646,
          "durationTicks": 160,
          "midi": 75,
          "name": "D#5",
          "ticks": 136800,
          "time": 92.07967804583335,
          "velocity": 0.7874015748031497
        },
        {
          "duration": 0.10928933333332225,
          "durationTicks": 160,
          "midi": 77,
          "name": "F5",
          "ticks": 136960,
          "time": 92.18896737916668,
          "velocity": 0.7874015748031497
        },
        {
          "duration": 0.10928933333333646,
          "durationTicks": 160,
          "midi": 78,
          "name": "F#5",
          "ticks": 137120,
          "time": 92.2982567125,
          "velocity": 0.7874015748031497
        },
        {
          "duration": 0.10928933333333646,
          "durationTicks": 160,
          "midi": 82,
          "name": "A#5",
          "ticks": 137280,
          "time": 92.40754604583334,
          "velocity": 0.7874015748031497
        },
        {
          "duration": 0.10928933333333646,
          "durationTicks": 160,
          "midi": 83,
          "name": "B5",
          "ticks": 137440,
          "time": 92.51683537916668,
          "velocity": 0.7874015748031497
        },
        {
          "duration": 0.10928933333333646,
          "durationTicks": 160,
          "midi": 87,
          "name": "D#6",
          "ticks": 137600,
          "time": 92.62612471250002,
          "velocity": 0.7874015748031497
        },
        {
          "duration": 0.10928933333332225,
          "durationTicks": 160,
          "midi": 75,
          "name": "D#5",
          "ticks": 137760,
          "time": 92.73541404583335,
          "velocity": 0.7874015748031497
        },
        {
          "duration": 0.10928933333333646,
          "durationTicks": 160,
          "midi": 77,
          "name": "F5",
          "ticks": 137920,
          "time": 92.84470337916667,
          "velocity": 0.7874015748031497
        },
        {
          "duration": 0.10928933333333646,
          "durationTicks": 160,
          "midi": 78,
          "name": "F#5",
          "ticks": 138080,
          "time": 92.95399271250001,
          "velocity": 0.7874015748031497
        },
        {
          "duration": 0.10928933333333646,
          "durationTicks": 160,
          "midi": 82,
          "name": "A#5",
          "ticks": 138240,
          "time": 93.06328204583335,
          "velocity": 0.7874015748031497
        },
        {
          "duration": 0.10928933333333646,
          "durationTicks": 160,
          "midi": 83,
          "name": "B5",
          "ticks": 138400,
          "time": 93.17257137916668,
          "velocity": 0.7874015748031497
        },
        {
          "duration": 0.10928933333332225,
          "durationTicks": 160,
          "midi": 87,
          "name": "D#6",
          "ticks": 138560,
          "time": 93.28186071250002,
          "velocity": 0.7874015748031497
        },
        {
          "duration": 0.10928933333333646,
          "durationTicks": 160,
          "midi": 75,
          "name": "D#5",
          "ticks": 138720,
          "time": 93.39115004583334,
          "velocity": 0.7874015748031497
        },
        {
          "duration": 0.10928933333333646,
          "durationTicks": 160,
          "midi": 77,
          "name": "F5",
          "ticks": 138880,
          "time": 93.50043937916668,
          "velocity": 0.7874015748031497
        },
        {
          "duration": 0.10928933333333646,
          "durationTicks": 160,
          "midi": 78,
          "name": "F#5",
          "ticks": 139040,
          "time": 93.60972871250002,
          "velocity": 0.7874015748031497
        },
        {
          "duration": 0.10928933333333646,
          "durationTicks": 160,
          "midi": 82,
          "name": "A#5",
          "ticks": 139200,
          "time": 93.71901804583335,
          "velocity": 0.7874015748031497
        },
        {
          "duration": 0.10928933333332225,
          "durationTicks": 160,
          "midi": 83,
          "name": "B5",
          "ticks": 139360,
          "time": 93.82830737916669,
          "velocity": 0.7874015748031497
        },
        {
          "duration": 0.10928933333333646,
          "durationTicks": 160,
          "midi": 87,
          "name": "D#6",
          "ticks": 139520,
          "time": 93.93759671250001,
          "velocity": 0.7874015748031497
        },
        {
          "duration": 0.10928933333333646,
          "durationTicks": 160,
          "midi": 87,
          "name": "D#6",
          "ticks": 139680,
          "time": 94.04688604583335,
          "velocity": 0.7874015748031497
        },
        {
          "duration": 0.10928933333332225,
          "durationTicks": 160,
          "midi": 83,
          "name": "B5",
          "ticks": 139840,
          "time": 94.15617537916668,
          "velocity": 0.7874015748031497
        },
        {
          "duration": 0.10928933333335067,
          "durationTicks": 160,
          "midi": 82,
          "name": "A#5",
          "ticks": 140000,
          "time": 94.2654647125,
          "velocity": 0.7874015748031497
        },
        {
          "duration": 0.10928933333332225,
          "durationTicks": 160,
          "midi": 78,
          "name": "F#5",
          "ticks": 140160,
          "time": 94.37475404583336,
          "velocity": 0.7874015748031497
        },
        {
          "duration": 0.10928933333333646,
          "durationTicks": 160,
          "midi": 77,
          "name": "F5",
          "ticks": 140320,
          "time": 94.48404337916668,
          "velocity": 0.7874015748031497
        },
        {
          "duration": 0.10928933333333646,
          "durationTicks": 160,
          "midi": 75,
          "name": "D#5",
          "ticks": 140480,
          "time": 94.59333271250001,
          "velocity": 0.7874015748031497
        },
        {
          "duration": 0.10928933333332225,
          "durationTicks": 160,
          "midi": 75,
          "name": "D#5",
          "ticks": 140640,
          "time": 94.70262204583335,
          "velocity": 0.7874015748031497
        },
        {
          "duration": 0.10928933333333646,
          "durationTicks": 160,
          "midi": 77,
          "name": "F5",
          "ticks": 140800,
          "time": 94.81191137916667,
          "velocity": 0.7874015748031497
        },
        {
          "duration": 0.10928933333333646,
          "durationTicks": 160,
          "midi": 78,
          "name": "F#5",
          "ticks": 140960,
          "time": 94.92120071250001,
          "velocity": 0.7874015748031497
        },
        {
          "duration": 0.10928933333333646,
          "durationTicks": 160,
          "midi": 82,
          "name": "A#5",
          "ticks": 141120,
          "time": 95.03049004583335,
          "velocity": 0.7874015748031497
        },
        {
          "duration": 0.10928933333333646,
          "durationTicks": 160,
          "midi": 83,
          "name": "B5",
          "ticks": 141280,
          "time": 95.13977937916668,
          "velocity": 0.7874015748031497
        },
        {
          "duration": 0.10928933333332225,
          "durationTicks": 160,
          "midi": 87,
          "name": "D#6",
          "ticks": 141440,
          "time": 95.24906871250002,
          "velocity": 0.7874015748031497
        },
        {
          "duration": 0.10928933333333646,
          "durationTicks": 160,
          "midi": 75,
          "name": "D#5",
          "ticks": 141600,
          "time": 95.35835804583334,
          "velocity": 0.7874015748031497
        },
        {
          "duration": 0.10928933333333646,
          "durationTicks": 160,
          "midi": 77,
          "name": "F5",
          "ticks": 141760,
          "time": 95.46764737916668,
          "velocity": 0.7874015748031497
        },
        {
          "duration": 0.10928933333333646,
          "durationTicks": 160,
          "midi": 78,
          "name": "F#5",
          "ticks": 141920,
          "time": 95.57693671250001,
          "velocity": 0.7874015748031497
        },
        {
          "duration": 0.10928933333333646,
          "durationTicks": 160,
          "midi": 82,
          "name": "A#5",
          "ticks": 142080,
          "time": 95.68622604583335,
          "velocity": 0.7874015748031497
        },
        {
          "duration": 0.10928933333332225,
          "durationTicks": 160,
          "midi": 83,
          "name": "B5",
          "ticks": 142240,
          "time": 95.79551537916669,
          "velocity": 0.7874015748031497
        },
        {
          "duration": 0.10928933333333646,
          "durationTicks": 160,
          "midi": 87,
          "name": "D#6",
          "ticks": 142400,
          "time": 95.90480471250001,
          "velocity": 0.7874015748031497
        },
        {
          "duration": 0.10928933333333646,
          "durationTicks": 160,
          "midi": 75,
          "name": "D#5",
          "ticks": 142560,
          "time": 96.01409404583335,
          "velocity": 0.7874015748031497
        },
        {
          "duration": 0.10928933333333646,
          "durationTicks": 160,
          "midi": 77,
          "name": "F5",
          "ticks": 142720,
          "time": 96.12338337916668,
          "velocity": 0.7874015748031497
        },
        {
          "duration": 0.10928933333333646,
          "durationTicks": 160,
          "midi": 78,
          "name": "F#5",
          "ticks": 142880,
          "time": 96.23267271250002,
          "velocity": 0.7874015748031497
        },
        {
          "duration": 0.10928933333332225,
          "durationTicks": 160,
          "midi": 82,
          "name": "A#5",
          "ticks": 143040,
          "time": 96.34196204583336,
          "velocity": 0.7874015748031497
        },
        {
          "duration": 0.10928933333333646,
          "durationTicks": 160,
          "midi": 83,
          "name": "B5",
          "ticks": 143200,
          "time": 96.45125137916668,
          "velocity": 0.7874015748031497
        },
        {
          "duration": 0.10928933333333646,
          "durationTicks": 160,
          "midi": 87,
          "name": "D#6",
          "ticks": 143360,
          "time": 96.56054071250001,
          "velocity": 0.7874015748031497
        },
        {
          "duration": 0.10928933333332225,
          "durationTicks": 160,
          "midi": 87,
          "name": "D#6",
          "ticks": 143520,
          "time": 96.66983004583335,
          "velocity": 0.7874015748031497
        },
        {
          "duration": 0.10928933333335067,
          "durationTicks": 160,
          "midi": 83,
          "name": "B5",
          "ticks": 143680,
          "time": 96.77911937916667,
          "velocity": 0.7874015748031497
        },
        {
          "duration": 0.10928933333332225,
          "durationTicks": 160,
          "midi": 82,
          "name": "A#5",
          "ticks": 143840,
          "time": 96.88840871250002,
          "velocity": 0.7874015748031497
        },
        {
          "duration": 0.10928933333333646,
          "durationTicks": 160,
          "midi": 78,
          "name": "F#5",
          "ticks": 144000,
          "time": 96.99769804583335,
          "velocity": 0.7874015748031497
        },
        {
          "duration": 0.10928933333333646,
          "durationTicks": 160,
          "midi": 77,
          "name": "F5",
          "ticks": 144160,
          "time": 97.10698737916668,
          "velocity": 0.7874015748031497
        },
        {
          "duration": 0.10928933333332225,
          "durationTicks": 160,
          "midi": 75,
          "name": "D#5",
          "ticks": 144320,
          "time": 97.21627671250002,
          "velocity": 0.7874015748031497
        },
        {
          "duration": 0.3825126666666705,
          "durationTicks": 560,
          "midi": 82,
          "name": "A#5",
          "ticks": 144480,
          "time": 97.32556604583334,
          "velocity": 0.7874015748031497
        },
        {
          "duration": 0.054644666666661124,
          "durationTicks": 80,
          "midi": 82,
          "name": "A#5",
          "ticks": 145120,
          "time": 97.76272337916669,
          "velocity": 0.7874015748031497
        },
        {
          "duration": 0.054644666666675334,
          "durationTicks": 80,
          "midi": 82,
          "name": "A#5",
          "ticks": 145280,
          "time": 97.87201271250001,
          "velocity": 0.7874015748031497
        },
        {
          "duration": 0.054644666666675334,
          "durationTicks": 80,
          "midi": 82,
          "name": "A#5",
          "ticks": 145440,
          "time": 97.98130204583335,
          "velocity": 0.7874015748031497
        },
        {
          "duration": 0.054644666666661124,
          "durationTicks": 80,
          "midi": 82,
          "name": "A#5",
          "ticks": 145600,
          "time": 98.09059137916668,
          "velocity": 0.7874015748031497
        },
        {
          "duration": 0.054644666666661124,
          "durationTicks": 80,
          "midi": 82,
          "name": "A#5",
          "ticks": 145760,
          "time": 98.19988071250002,
          "velocity": 0.7874015748031497
        },
        {
          "duration": 0.09357899166666073,
          "durationTicks": 137,
          "midi": 72,
          "name": "C5",
          "ticks": 146400,
          "time": 98.63703804583335,
          "velocity": 0.7874015748031497
        },
        {
          "duration": 0.09357899166667494,
          "durationTicks": 137,
          "midi": 74,
          "name": "D5",
          "ticks": 146537,
          "time": 98.73061703750001,
          "velocity": 0.7874015748031497
        },
        {
          "duration": 0.09357899166666073,
          "durationTicks": 137,
          "midi": 75,
          "name": "D#5",
          "ticks": 146674,
          "time": 98.82419602916669,
          "velocity": 0.7874015748031497
        },
        {
          "duration": 0.09426204999999754,
          "durationTicks": 138,
          "midi": 79,
          "name": "G5",
          "ticks": 146811,
          "time": 98.91777502083335,
          "velocity": 0.7874015748031497
        },
        {
          "duration": 0.09357899166667494,
          "durationTicks": 137,
          "midi": 80,
          "name": "G#5",
          "ticks": 146949,
          "time": 99.01203707083334,
          "velocity": 0.7874015748031497
        },
        {
          "duration": 0.09357899166666073,
          "durationTicks": 137,
          "midi": 84,
          "name": "C6",
          "ticks": 147086,
          "time": 99.10561606250002,
          "velocity": 0.7874015748031497
        },
        {
          "duration": 0.09357899166666073,
          "durationTicks": 137,
          "midi": 86,
          "name": "D6",
          "ticks": 147223,
          "time": 99.19919505416668,
          "velocity": 0.7874015748031497
        },
        {
          "duration": 0.09357899166667494,
          "durationTicks": 137,
          "midi": 72,
          "name": "C5",
          "ticks": 147360,
          "time": 99.29277404583334,
          "velocity": 0.7874015748031497
        },
        {
          "duration": 0.09357899166667494,
          "durationTicks": 137,
          "midi": 74,
          "name": "D5",
          "ticks": 147497,
          "time": 99.38635303750002,
          "velocity": 0.7874015748031497
        },
        {
          "duration": 0.09357899166666073,
          "durationTicks": 137,
          "midi": 75,
          "name": "D#5",
          "ticks": 147634,
          "time": 99.47993202916669,
          "velocity": 0.7874015748031497
        },
        {
          "duration": 0.09426204999999754,
          "durationTicks": 138,
          "midi": 79,
          "name": "G5",
          "ticks": 147771,
          "time": 99.57351102083335,
          "velocity": 0.7874015748031497
        },
        {
          "duration": 0.09357899166666073,
          "durationTicks": 137,
          "midi": 80,
          "name": "G#5",
          "ticks": 147909,
          "time": 99.66777307083335,
          "velocity": 0.7874015748031497
        },
        {
          "duration": 0.09357899166667494,
          "durationTicks": 137,
          "midi": 84,
          "name": "C6",
          "ticks": 148046,
          "time": 99.76135206250001,
          "velocity": 0.7874015748031497
        },
        {
          "duration": 0.09357899166666073,
          "durationTicks": 137,
          "midi": 86,
          "name": "D6",
          "ticks": 148183,
          "time": 99.85493105416668,
          "velocity": 0.7874015748031497
        },
        {
          "duration": 0.09357899166666073,
          "durationTicks": 137,
          "midi": 72,
          "name": "C5",
          "ticks": 148320,
          "time": 99.94851004583334,
          "velocity": 0.7874015748031497
        },
        {
          "duration": 0.09357899166667494,
          "durationTicks": 137,
          "midi": 74,
          "name": "D5",
          "ticks": 148457,
          "time": 100.0420890375,
          "velocity": 0.7874015748031497
        },
        {
          "duration": 0.09357899166667494,
          "durationTicks": 137,
          "midi": 75,
          "name": "D#5",
          "ticks": 148594,
          "time": 100.13566802916668,
          "velocity": 0.7874015748031497
        },
        {
          "duration": 0.09426204999999754,
          "durationTicks": 138,
          "midi": 79,
          "name": "G5",
          "ticks": 148731,
          "time": 100.22924702083336,
          "velocity": 0.7874015748031497
        },
        {
          "duration": 0.09357899166666073,
          "durationTicks": 137,
          "midi": 80,
          "name": "G#5",
          "ticks": 148869,
          "time": 100.32350907083335,
          "velocity": 0.7874015748031497
        },
        {
          "duration": 0.09357899166666073,
          "durationTicks": 137,
          "midi": 84,
          "name": "C6",
          "ticks": 149006,
          "time": 100.41708806250001,
          "velocity": 0.7874015748031497
        },
        {
          "duration": 0.09357899166667494,
          "durationTicks": 137,
          "midi": 86,
          "name": "D6",
          "ticks": 149143,
          "time": 100.51066705416667,
          "velocity": 0.7874015748031497
        },
        {
          "duration": 0.09357899166666073,
          "durationTicks": 137,
          "midi": 87,
          "name": "D#6",
          "ticks": 149280,
          "time": 100.60424604583335,
          "velocity": 0.7874015748031497
        },
        {
          "duration": 0.09357899166667494,
          "durationTicks": 137,
          "midi": 86,
          "name": "D6",
          "ticks": 149417,
          "time": 100.69782503750001,
          "velocity": 0.7874015748031497
        },
        {
          "duration": 0.09357899166666073,
          "durationTicks": 137,
          "midi": 84,
          "name": "C6",
          "ticks": 149554,
          "time": 100.79140402916669,
          "velocity": 0.7874015748031497
        },
        {
          "duration": 0.09426204999999754,
          "durationTicks": 138,
          "midi": 80,
          "name": "G#5",
          "ticks": 149691,
          "time": 100.88498302083335,
          "velocity": 0.7874015748031497
        },
        {
          "duration": 0.09357899166667494,
          "durationTicks": 137,
          "midi": 79,
          "name": "G5",
          "ticks": 149829,
          "time": 100.97924507083334,
          "velocity": 0.7874015748031497
        },
        {
          "duration": 0.09357899166666073,
          "durationTicks": 137,
          "midi": 75,
          "name": "D#5",
          "ticks": 149966,
          "time": 101.07282406250002,
          "velocity": 0.7874015748031497
        },
        {
          "duration": 0.09357899166666073,
          "durationTicks": 137,
          "midi": 74,
          "name": "D5",
          "ticks": 150103,
          "time": 101.16640305416668,
          "velocity": 0.7874015748031497
        },
        {
          "duration": 0.09357899166667494,
          "durationTicks": 137,
          "midi": 72,
          "name": "C5",
          "ticks": 150240,
          "time": 101.25998204583334,
          "velocity": 0.7874015748031497
        },
        {
          "duration": 0.09357899166667494,
          "durationTicks": 137,
          "midi": 74,
          "name": "D5",
          "ticks": 150377,
          "time": 101.35356103750001,
          "velocity": 0.7874015748031497
        },
        {
          "duration": 0.09357899166666073,
          "durationTicks": 137,
          "midi": 75,
          "name": "D#5",
          "ticks": 150514,
          "time": 101.44714002916669,
          "velocity": 0.7874015748031497
        },
        {
          "duration": 0.09426204999999754,
          "durationTicks": 138,
          "midi": 79,
          "name": "G5",
          "ticks": 150651,
          "time": 101.54071902083335,
          "velocity": 0.7874015748031497
        },
        {
          "duration": 0.09357899166666073,
          "durationTicks": 137,
          "midi": 80,
          "name": "G#5",
          "ticks": 150789,
          "time": 101.63498107083335,
          "velocity": 0.7874015748031497
        },
        {
          "duration": 0.09357899166667494,
          "durationTicks": 137,
          "midi": 84,
          "name": "C6",
          "ticks": 150926,
          "time": 101.72856006250001,
          "velocity": 0.7874015748031497
        },
        {
          "duration": 0.09357899166666073,
          "durationTicks": 137,
          "midi": 86,
          "name": "D6",
          "ticks": 151063,
          "time": 101.82213905416668,
          "velocity": 0.7874015748031497
        },
        {
          "duration": 0.09357899166666073,
          "durationTicks": 137,
          "midi": 72,
          "name": "C5",
          "ticks": 151200,
          "time": 101.91571804583334,
          "velocity": 0.7874015748031497
        },
        {
          "duration": 0.09357899166667494,
          "durationTicks": 137,
          "midi": 74,
          "name": "D5",
          "ticks": 151337,
          "time": 102.0092970375,
          "velocity": 0.7874015748031497
        },
        {
          "duration": 0.09357899166667494,
          "durationTicks": 137,
          "midi": 75,
          "name": "D#5",
          "ticks": 151474,
          "time": 102.10287602916668,
          "velocity": 0.7874015748031497
        },
        {
          "duration": 0.09426204999999754,
          "durationTicks": 138,
          "midi": 79,
          "name": "G5",
          "ticks": 151611,
          "time": 102.19645502083335,
          "velocity": 0.7874015748031497
        },
        {
          "duration": 0.09357899166666073,
          "durationTicks": 137,
          "midi": 80,
          "name": "G#5",
          "ticks": 151749,
          "time": 102.29071707083335,
          "velocity": 0.7874015748031497
        },
        {
          "duration": 0.09357899166666073,
          "durationTicks": 137,
          "midi": 84,
          "name": "C6",
          "ticks": 151886,
          "time": 102.38429606250001,
          "velocity": 0.7874015748031497
        },
        {
          "duration": 0.09357899166667494,
          "durationTicks": 137,
          "midi": 86,
          "name": "D6",
          "ticks": 152023,
          "time": 102.47787505416667,
          "velocity": 0.7874015748031497
        },
        {
          "duration": 0.09357899166666073,
          "durationTicks": 137,
          "midi": 72,
          "name": "C5",
          "ticks": 152160,
          "time": 102.57145404583335,
          "velocity": 0.7874015748031497
        },
        {
          "duration": 0.09357899166667494,
          "durationTicks": 137,
          "midi": 74,
          "name": "D5",
          "ticks": 152297,
          "time": 102.66503303750001,
          "velocity": 0.7874015748031497
        },
        {
          "duration": 0.09357899166666073,
          "durationTicks": 137,
          "midi": 75,
          "name": "D#5",
          "ticks": 152434,
          "time": 102.75861202916668,
          "velocity": 0.7874015748031497
        },
        {
          "duration": 0.09426204999999754,
          "durationTicks": 138,
          "midi": 79,
          "name": "G5",
          "ticks": 152571,
          "time": 102.85219102083335,
          "velocity": 0.7874015748031497
        },
        {
          "duration": 0.09357899166667494,
          "durationTicks": 137,
          "midi": 80,
          "name": "G#5",
          "ticks": 152709,
          "time": 102.94645307083334,
          "velocity": 0.7874015748031497
        },
        {
          "duration": 0.09357899166666073,
          "durationTicks": 137,
          "midi": 84,
          "name": "C6",
          "ticks": 152846,
          "time": 103.04003206250002,
          "velocity": 0.7874015748031497
        },
        {
          "duration": 0.09357899166666073,
          "durationTicks": 137,
          "midi": 86,
          "name": "D6",
          "ticks": 152983,
          "time": 103.13361105416668,
          "velocity": 0.7874015748031497
        },
        {
          "duration": 0.09357899166667494,
          "durationTicks": 137,
          "midi": 87,
          "name": "D#6",
          "ticks": 153120,
          "time": 103.22719004583334,
          "velocity": 0.7874015748031497
        },
        {
          "duration": 0.09357899166667494,
          "durationTicks": 137,
          "midi": 86,
          "name": "D6",
          "ticks": 153257,
          "time": 103.32076903750001,
          "velocity": 0.7874015748031497
        },
        {
          "duration": 0.09357899166666073,
          "durationTicks": 137,
          "midi": 84,
          "name": "C6",
          "ticks": 153394,
          "time": 103.41434802916669,
          "velocity": 0.7874015748031497
        },
        {
          "duration": 0.09426204999999754,
          "durationTicks": 138,
          "midi": 80,
          "name": "G#5",
          "ticks": 153531,
          "time": 103.50792702083335,
          "velocity": 0.7874015748031497
        },
        {
          "duration": 0.09357899166666073,
          "durationTicks": 137,
          "midi": 79,
          "name": "G5",
          "ticks": 153669,
          "time": 103.60218907083335,
          "velocity": 0.7874015748031497
        },
        {
          "duration": 0.09357899166667494,
          "durationTicks": 137,
          "midi": 75,
          "name": "D#5",
          "ticks": 153806,
          "time": 103.69576806250001,
          "velocity": 0.7874015748031497
        },
        {
          "duration": 0.09357899166666073,
          "durationTicks": 137,
          "midi": 74,
          "name": "D5",
          "ticks": 153943,
          "time": 103.78934705416668,
          "velocity": 0.7874015748031497
        },
        {
          "duration": 0.0819670000000059,
          "durationTicks": 120,
          "midi": 75,
          "name": "D#5",
          "ticks": 154080,
          "time": 103.88292604583334,
          "velocity": 0.7874015748031497
        },
        {
          "duration": 0.08196699999999169,
          "durationTicks": 120,
          "midi": 77,
          "name": "F5",
          "ticks": 154200,
          "time": 103.96489304583335,
          "velocity": 0.7874015748031497
        },
        {
          "duration": 0.0819670000000059,
          "durationTicks": 120,
          "midi": 78,
          "name": "F#5",
          "ticks": 154320,
          "time": 104.04686004583334,
          "velocity": 0.7874015748031497
        },
        {
          "duration": 0.0819670000000059,
          "durationTicks": 120,
          "midi": 82,
          "name": "A#5",
          "ticks": 154440,
          "time": 104.12882704583335,
          "velocity": 0.7874015748031497
        },
        {
          "duration": 0.08196699999999169,
          "durationTicks": 120,
          "midi": 83,
          "name": "B5",
          "ticks": 154560,
          "time": 104.21079404583335,
          "velocity": 0.7874015748031497
        },
        {
          "duration": 0.0819670000000059,
          "durationTicks": 120,
          "midi": 87,
          "name": "D#6",
          "ticks": 154680,
          "time": 104.29276104583334,
          "velocity": 0.7874015748031497
        },
        {
          "duration": 0.08196699999999169,
          "durationTicks": 120,
          "midi": 89,
          "name": "F6",
          "ticks": 154800,
          "time": 104.37472804583335,
          "velocity": 0.7874015748031497
        },
        {
          "duration": 0.0819670000000059,
          "durationTicks": 120,
          "midi": 90,
          "name": "F#6",
          "ticks": 154920,
          "time": 104.45669504583334,
          "velocity": 0.7874015748031497
        },
        {
          "duration": 0.08196699999999169,
          "durationTicks": 120,
          "midi": 75,
          "name": "D#5",
          "ticks": 155040,
          "time": 104.53866204583335,
          "velocity": 0.7874015748031497
        },
        {
          "duration": 0.0819670000000059,
          "durationTicks": 120,
          "midi": 77,
          "name": "F5",
          "ticks": 155160,
          "time": 104.62062904583334,
          "velocity": 0.7874015748031497
        },
        {
          "duration": 0.0819670000000059,
          "durationTicks": 120,
          "midi": 78,
          "name": "F#5",
          "ticks": 155280,
          "time": 104.70259604583335,
          "velocity": 0.7874015748031497
        },
        {
          "duration": 0.08196699999999169,
          "durationTicks": 120,
          "midi": 82,
          "name": "A#5",
          "ticks": 155400,
          "time": 104.78456304583335,
          "velocity": 0.7874015748031497
        },
        {
          "duration": 0.0819670000000059,
          "durationTicks": 120,
          "midi": 83,
          "name": "B5",
          "ticks": 155520,
          "time": 104.86653004583334,
          "velocity": 0.7874015748031497
        },
        {
          "duration": 0.0819670000000059,
          "durationTicks": 120,
          "midi": 87,
          "name": "D#6",
          "ticks": 155640,
          "time": 104.94849704583335,
          "velocity": 0.7874015748031497
        },
        {
          "duration": 0.08196699999999169,
          "durationTicks": 120,
          "midi": 89,
          "name": "F6",
          "ticks": 155760,
          "time": 105.03046404583336,
          "velocity": 0.7874015748031497
        },
        {
          "duration": 0.08196699999999169,
          "durationTicks": 120,
          "midi": 90,
          "name": "F#6",
          "ticks": 155880,
          "time": 105.11243104583335,
          "velocity": 0.7874015748031497
        },
        {
          "duration": 0.0819670000000059,
          "durationTicks": 120,
          "midi": 75,
          "name": "D#5",
          "ticks": 156000,
          "time": 105.19439804583334,
          "velocity": 0.7874015748031497
        },
        {
          "duration": 0.0819670000000059,
          "durationTicks": 120,
          "midi": 77,
          "name": "F5",
          "ticks": 156120,
          "time": 105.27636504583334,
          "velocity": 0.7874015748031497
        },
        {
          "duration": 0.08196699999999169,
          "durationTicks": 120,
          "midi": 78,
          "name": "F#5",
          "ticks": 156240,
          "time": 105.35833204583335,
          "velocity": 0.7874015748031497
        },
        {
          "duration": 0.0819670000000059,
          "durationTicks": 120,
          "midi": 82,
          "name": "A#5",
          "ticks": 156360,
          "time": 105.44029904583334,
          "velocity": 0.7874015748031497
        },
        {
          "duration": 0.0819670000000059,
          "durationTicks": 120,
          "midi": 83,
          "name": "B5",
          "ticks": 156480,
          "time": 105.52226604583335,
          "velocity": 0.7874015748031497
        },
        {
          "duration": 0.08196699999999169,
          "durationTicks": 120,
          "midi": 87,
          "name": "D#6",
          "ticks": 156600,
          "time": 105.60423304583335,
          "velocity": 0.7874015748031497
        },
        {
          "duration": 0.0819670000000059,
          "durationTicks": 120,
          "midi": 89,
          "name": "F6",
          "ticks": 156720,
          "time": 105.68620004583335,
          "velocity": 0.7874015748031497
        },
        {
          "duration": 0.08196699999999169,
          "durationTicks": 120,
          "midi": 90,
          "name": "F#6",
          "ticks": 156840,
          "time": 105.76816704583335,
          "velocity": 0.7874015748031497
        },
        {
          "duration": 0.0819670000000059,
          "durationTicks": 120,
          "midi": 94,
          "name": "A#6",
          "ticks": 156960,
          "time": 105.85013404583334,
          "velocity": 0.7874015748031497
        },
        {
          "duration": 0.08196699999999169,
          "durationTicks": 120,
          "midi": 90,
          "name": "F#6",
          "ticks": 157080,
          "time": 105.93210104583335,
          "velocity": 0.7874015748031497
        },
        {
          "duration": 0.0819670000000059,
          "durationTicks": 120,
          "midi": 89,
          "name": "F6",
          "ticks": 157200,
          "time": 106.01406804583334,
          "velocity": 0.7874015748031497
        },
        {
          "duration": 0.0819670000000059,
          "durationTicks": 120,
          "midi": 87,
          "name": "D#6",
          "ticks": 157320,
          "time": 106.09603504583335,
          "velocity": 0.7874015748031497
        },
        {
          "duration": 0.08196699999999169,
          "durationTicks": 120,
          "midi": 83,
          "name": "B5",
          "ticks": 157440,
          "time": 106.17800204583335,
          "velocity": 0.7874015748031497
        },
        {
          "duration": 0.0819670000000059,
          "durationTicks": 120,
          "midi": 82,
          "name": "A#5",
          "ticks": 157560,
          "time": 106.25996904583334,
          "velocity": 0.7874015748031497
        },
        {
          "duration": 0.0819670000000059,
          "durationTicks": 120,
          "midi": 78,
          "name": "F#5",
          "ticks": 157680,
          "time": 106.34193604583335,
          "velocity": 0.7874015748031497
        },
        {
          "duration": 0.08196699999999169,
          "durationTicks": 120,
          "midi": 77,
          "name": "F5",
          "ticks": 157800,
          "time": 106.42390304583336,
          "velocity": 0.7874015748031497
        },
        {
          "duration": 0.08196699999999169,
          "durationTicks": 120,
          "midi": 75,
          "name": "D#5",
          "ticks": 157920,
          "time": 106.50587004583335,
          "velocity": 0.7874015748031497
        },
        {
          "duration": 0.0819670000000059,
          "durationTicks": 120,
          "midi": 77,
          "name": "F5",
          "ticks": 158040,
          "time": 106.58783704583334,
          "velocity": 0.7874015748031497
        },
        {
          "duration": 0.0819670000000059,
          "durationTicks": 120,
          "midi": 78,
          "name": "F#5",
          "ticks": 158160,
          "time": 106.66980404583335,
          "velocity": 0.7874015748031497
        },
        {
          "duration": 0.08196699999999169,
          "durationTicks": 120,
          "midi": 82,
          "name": "A#5",
          "ticks": 158280,
          "time": 106.75177104583335,
          "velocity": 0.7874015748031497
        },
        {
          "duration": 0.0819670000000059,
          "durationTicks": 120,
          "midi": 83,
          "name": "B5",
          "ticks": 158400,
          "time": 106.83373804583334,
          "velocity": 0.7874015748031497
        },
        {
          "duration": 0.0819670000000059,
          "durationTicks": 120,
          "midi": 87,
          "name": "D#6",
          "ticks": 158520,
          "time": 106.91570504583335,
          "velocity": 0.7874015748031497
        },
        {
          "duration": 0.08196699999999169,
          "durationTicks": 120,
          "midi": 89,
          "name": "F6",
          "ticks": 158640,
          "time": 106.99767204583335,
          "velocity": 0.7874015748031497
        },
        {
          "duration": 0.08196699999999169,
          "durationTicks": 120,
          "midi": 90,
          "name": "F#6",
          "ticks": 158760,
          "time": 107.07963904583335,
          "velocity": 0.7874015748031497
        },
        {
          "duration": 0.046447966666676166,
          "durationTicks": 68,
          "midi": 75,
          "name": "D#5",
          "ticks": 158880,
          "time": 107.16160604583334,
          "velocity": 0.7874015748031497
        },
        {
          "duration": 0.046447966666661955,
          "durationTicks": 68,
          "midi": 77,
          "name": "F5",
          "ticks": 159000,
          "time": 107.24357304583334,
          "velocity": 0.7874015748031497
        },
        {
          "duration": 0.046447966666661955,
          "durationTicks": 68,
          "midi": 78,
          "name": "F#5",
          "ticks": 159120,
          "time": 107.32554004583335,
          "velocity": 0.7874015748031497
        },
        {
          "duration": 0.046447966666676166,
          "durationTicks": 68,
          "midi": 82,
          "name": "A#5",
          "ticks": 159240,
          "time": 107.40750704583334,
          "velocity": 0.7874015748031497
        },
        {
          "duration": 0.046447966666661955,
          "durationTicks": 68,
          "midi": 83,
          "name": "B5",
          "ticks": 159360,
          "time": 107.48947404583335,
          "velocity": 0.7874015748031497
        },
        {
          "duration": 0.046447966666661955,
          "durationTicks": 68,
          "midi": 87,
          "name": "D#6",
          "ticks": 159480,
          "time": 107.57144104583335,
          "velocity": 0.7874015748031497
        },
        {
          "duration": 0.046447966666676166,
          "durationTicks": 68,
          "midi": 89,
          "name": "F6",
          "ticks": 159600,
          "time": 107.65340804583334,
          "velocity": 0.7874015748031497
        },
        {
          "duration": 0.046447966666676166,
          "durationTicks": 68,
          "midi": 90,
          "name": "F#6",
          "ticks": 159720,
          "time": 107.73537504583334,
          "velocity": 0.7874015748031497
        },
        {
          "duration": 0.08196699999999169,
          "durationTicks": 120,
          "midi": 75,
          "name": "D#5",
          "ticks": 159840,
          "time": 107.81734204583336,
          "velocity": 0.7874015748031497
        },
        {
          "duration": 0.08196699999999169,
          "durationTicks": 120,
          "midi": 77,
          "name": "F5",
          "ticks": 159960,
          "time": 107.89930904583335,
          "velocity": 0.7874015748031497
        },
        {
          "duration": 0.0819670000000059,
          "durationTicks": 120,
          "midi": 78,
          "name": "F#5",
          "ticks": 160080,
          "time": 107.98127604583334,
          "velocity": 0.7874015748031497
        },
        {
          "duration": 0.0819670000000059,
          "durationTicks": 120,
          "midi": 82,
          "name": "A#5",
          "ticks": 160200,
          "time": 108.06324304583335,
          "velocity": 0.7874015748031497
        },
        {
          "duration": 0.08196699999999169,
          "durationTicks": 120,
          "midi": 83,
          "name": "B5",
          "ticks": 160320,
          "time": 108.14521004583335,
          "velocity": 0.7874015748031497
        },
        {
          "duration": 0.0819670000000059,
          "durationTicks": 120,
          "midi": 87,
          "name": "D#6",
          "ticks": 160440,
          "time": 108.22717704583334,
          "velocity": 0.7874015748031497
        },
        {
          "duration": 0.0819670000000059,
          "durationTicks": 120,
          "midi": 89,
          "name": "F6",
          "ticks": 160560,
          "time": 108.30914404583335,
          "velocity": 0.7874015748031497
        },
        {
          "duration": 0.08196699999999169,
          "durationTicks": 120,
          "midi": 90,
          "name": "F#6",
          "ticks": 160680,
          "time": 108.39111104583336,
          "velocity": 0.7874015748031497
        },
        {
          "duration": 0.08196699999999169,
          "durationTicks": 120,
          "midi": 94,
          "name": "A#6",
          "ticks": 160800,
          "time": 108.47307804583335,
          "velocity": 0.7874015748031497
        },
        {
          "duration": 0.0819670000000059,
          "durationTicks": 120,
          "midi": 90,
          "name": "F#6",
          "ticks": 160920,
          "time": 108.55504504583334,
          "velocity": 0.7874015748031497
        },
        {
          "duration": 0.0819670000000059,
          "durationTicks": 120,
          "midi": 89,
          "name": "F6",
          "ticks": 161040,
          "time": 108.63701204583334,
          "velocity": 0.7874015748031497
        },
        {
          "duration": 0.08196699999999169,
          "durationTicks": 120,
          "midi": 87,
          "name": "D#6",
          "ticks": 161160,
          "time": 108.71897904583335,
          "velocity": 0.7874015748031497
        },
        {
          "duration": 0.0819670000000059,
          "durationTicks": 120,
          "midi": 83,
          "name": "B5",
          "ticks": 161280,
          "time": 108.80094604583334,
          "velocity": 0.7874015748031497
        },
        {
          "duration": 0.0819670000000059,
          "durationTicks": 120,
          "midi": 82,
          "name": "A#5",
          "ticks": 161400,
          "time": 108.88291304583335,
          "velocity": 0.7874015748031497
        },
        {
          "duration": 0.08196699999999169,
          "durationTicks": 120,
          "midi": 78,
          "name": "F#5",
          "ticks": 161520,
          "time": 108.96488004583335,
          "velocity": 0.7874015748031497
        },
        {
          "duration": 0.08196699999999169,
          "durationTicks": 120,
          "midi": 77,
          "name": "F5",
          "ticks": 161640,
          "time": 109.04684704583335,
          "velocity": 0.7874015748031497
        },
        {
          "duration": 0.49180200000000696,
          "durationTicks": 720,
          "midi": 82,
          "name": "A#5",
          "ticks": 161760,
          "time": 109.12881404583334,
          "velocity": 0.7874015748031497
        },
        {
          "duration": 0.1639340000000118,
          "durationTicks": 240,
          "midi": 83,
          "name": "B5",
          "ticks": 162480,
          "time": 109.62061604583334,
          "velocity": 0.7874015748031497
        },
        {
          "duration": 0.32786799999999516,
          "durationTicks": 480,
          "midi": 87,
          "name": "D#6",
          "ticks": 162720,
          "time": 109.78455004583336,
          "velocity": 0.7874015748031497
        },
        {
          "duration": 0.32786799999999516,
          "durationTicks": 480,
          "midi": 83,
          "name": "B5",
          "ticks": 163200,
          "time": 110.11241804583335,
          "velocity": 0.7874015748031497
        },
        {
          "duration": 0.08196699999999169,
          "durationTicks": 120,
          "midi": 82,
          "name": "A#5",
          "ticks": 163680,
          "time": 110.44028604583335,
          "velocity": 0.7874015748031497
        },
        {
          "duration": 0.0819670000000059,
          "durationTicks": 120,
          "midi": 82,
          "name": "A#5",
          "ticks": 163920,
          "time": 110.60422004583334,
          "velocity": 0.7874015748031497
        },
        {
          "duration": 0.0819670000000059,
          "durationTicks": 120,
          "midi": 82,
          "name": "A#5",
          "ticks": 164160,
          "time": 110.76815404583334,
          "velocity": 0.7874015748031497
        },
        {
          "duration": 0.08196699999999169,
          "durationTicks": 120,
          "midi": 82,
          "name": "A#5",
          "ticks": 164400,
          "time": 110.93208804583335,
          "velocity": 0.7874015748031497
        },
        {
          "duration": 0.08196700000002011,
          "durationTicks": 120,
          "midi": 78,
          "name": "F#5",
          "ticks": 164640,
          "time": 111.09602204583334,
          "velocity": 0.7874015748031497
        },
        {
          "duration": 0.08196699999999169,
          "durationTicks": 120,
          "midi": 78,
          "name": "F#5",
          "ticks": 164880,
          "time": 111.25995604583335,
          "velocity": 0.7874015748031497
        },
        {
          "duration": 0.0819670000000059,
          "durationTicks": 120,
          "midi": 78,
          "name": "F#5",
          "ticks": 165120,
          "time": 111.42389004583335,
          "velocity": 0.7874015748031497
        },
        {
          "duration": 0.32786799999999516,
          "durationTicks": 480,
          "midi": 78,
          "name": "F#5",
          "ticks": 165360,
          "time": 111.58782404583334,
          "velocity": 0.7874015748031497
        },
        {
          "duration": 0.0819670000000059,
          "durationTicks": 120,
          "midi": 77,
          "name": "F5",
          "ticks": 165840,
          "time": 111.91569204583334,
          "velocity": 0.7874015748031497
        },
        {
          "duration": 0.08196699999999169,
          "durationTicks": 120,
          "midi": 78,
          "name": "F#5",
          "ticks": 166080,
          "time": 112.07962604583335,
          "velocity": 0.7874015748031497
        },
        {
          "duration": 0.0819670000000059,
          "durationTicks": 120,
          "midi": 77,
          "name": "F5",
          "ticks": 166320,
          "time": 112.24356004583335,
          "velocity": 0.7874015748031497
        },
        {
          "duration": 0.08196699999999169,
          "durationTicks": 120,
          "midi": 78,
          "name": "F#5",
          "ticks": 166560,
          "time": 112.40749404583335,
          "velocity": 0.7874015748031497
        },
        {
          "duration": 0.08196699999999169,
          "durationTicks": 120,
          "midi": 77,
          "name": "F5",
          "ticks": 166800,
          "time": 112.57142804583336,
          "velocity": 0.7874015748031497
        },
        {
          "duration": 0.0819670000000059,
          "durationTicks": 120,
          "midi": 78,
          "name": "F#5",
          "ticks": 167040,
          "time": 112.73536204583334,
          "velocity": 0.7874015748031497
        },
        {
          "duration": 0.08196699999999169,
          "durationTicks": 120,
          "midi": 77,
          "name": "F5",
          "ticks": 167280,
          "time": 112.89929604583335,
          "velocity": 0.7874015748031497
        },
        {
          "duration": 0.0819670000000059,
          "durationTicks": 120,
          "midi": 78,
          "name": "F#5",
          "ticks": 167520,
          "time": 113.06323004583335,
          "velocity": 0.7874015748031497
        },
        {
          "duration": 0.08196699999999169,
          "durationTicks": 120,
          "midi": 77,
          "name": "F5",
          "ticks": 167760,
          "time": 113.22716404583335,
          "velocity": 0.7874015748031497
        },
        {
          "duration": 0.0819670000000059,
          "durationTicks": 120,
          "midi": 78,
          "name": "F#5",
          "ticks": 168000,
          "time": 113.39109804583335,
          "velocity": 0.7874015748031497
        },
        {
          "duration": 0.0819670000000059,
          "durationTicks": 120,
          "midi": 77,
          "name": "F5",
          "ticks": 168240,
          "time": 113.55503204583334,
          "velocity": 0.7874015748031497
        },
        {
          "duration": 0.08196699999999169,
          "durationTicks": 120,
          "midi": 78,
          "name": "F#5",
          "ticks": 168480,
          "time": 113.71896604583335,
          "velocity": 0.7874015748031497
        },
        {
          "duration": 0.0819670000000059,
          "durationTicks": 120,
          "midi": 78,
          "name": "F#5",
          "ticks": 168720,
          "time": 113.88290004583334,
          "velocity": 0.7874015748031497
        },
        {
          "duration": 0.08196699999999169,
          "durationTicks": 120,
          "midi": 78,
          "name": "F#5",
          "ticks": 168960,
          "time": 114.04683404583335,
          "velocity": 0.7874015748031497
        },
        {
          "duration": 0.3278680000000094,
          "durationTicks": 480,
          "midi": 78,
          "name": "F#5",
          "ticks": 169200,
          "time": 114.21076804583335,
          "velocity": 0.7874015748031497
        },
        {
          "duration": 0.08196699999999169,
          "durationTicks": 120,
          "midi": 80,
          "name": "G#5",
          "ticks": 169680,
          "time": 114.53863604583336,
          "velocity": 0.7874015748031497
        },
        {
          "duration": 0.0819670000000059,
          "durationTicks": 120,
          "midi": 83,
          "name": "B5",
          "ticks": 169920,
          "time": 114.70257004583334,
          "velocity": 0.7874015748031497
        },
        {
          "duration": 0.08196699999999169,
          "durationTicks": 120,
          "midi": 85,
          "name": "C#6",
          "ticks": 170160,
          "time": 114.86650404583335,
          "velocity": 0.7874015748031497
        },
        {
          "duration": 0.0819670000000059,
          "durationTicks": 120,
          "midi": 75,
          "name": "D#5",
          "ticks": 170400,
          "time": 115.03043804583335,
          "velocity": 0.7874015748031497
        },
        {
          "duration": 0.08196699999999169,
          "durationTicks": 120,
          "midi": 87,
          "name": "D#6",
          "ticks": 170460,
          "time": 115.07142154583335,
          "velocity": 0.7874015748031497
        },
        {
          "duration": 0.13043475000000626,
          "durationTicks": 120,
          "midi": 80,
          "name": "G#5",
          "ticks": 171840,
          "time": 116.20791304583335,
          "velocity": 0.7874015748031497
        },
        {
          "duration": 0.09375,
          "durationTicks": 120,
          "midi": 80,
          "name": "G#5",
          "ticks": 172320,
          "time": 116.72965204583335,
          "velocity": 0.7874015748031497
        },
        {
          "duration": 0.09375,
          "durationTicks": 120,
          "midi": 80,
          "name": "G#5",
          "ticks": 172800,
          "time": 117.10465204583335,
          "velocity": 0.7874015748031497
        },
        {
          "duration": 0.07692299999999364,
          "durationTicks": 120,
          "midi": 80,
          "name": "G#5",
          "ticks": 173280,
          "time": 117.47965204583335,
          "velocity": 0.7874015748031497
        },
        {
          "duration": 0.07692299999999364,
          "durationTicks": 120,
          "midi": 80,
          "name": "G#5",
          "ticks": 173760,
          "time": 117.78734404583335,
          "velocity": 0.7874015748031497
        },
        {
          "duration": 0.06818174999999371,
          "durationTicks": 120,
          "midi": 80,
          "name": "G#5",
          "ticks": 174240,
          "time": 118.09503604583335,
          "velocity": 0.7874015748031497
        },
        {
          "duration": 0.06818174999999371,
          "durationTicks": 120,
          "midi": 80,
          "name": "G#5",
          "ticks": 174720,
          "time": 118.36776304583336,
          "velocity": 0.7874015748031497
        },
        {
          "duration": 0.06382974999999647,
          "durationTicks": 120,
          "midi": 80,
          "name": "G#5",
          "ticks": 175200,
          "time": 118.64049004583336,
          "velocity": 0.7874015748031497
        },
        {
          "duration": 0.06382974999999647,
          "durationTicks": 120,
          "midi": 80,
          "name": "G#5",
          "ticks": 175680,
          "time": 118.89580904583336,
          "velocity": 0.7874015748031497
        },
        {
          "duration": 0.06382975000001068,
          "durationTicks": 120,
          "midi": 80,
          "name": "G#5",
          "ticks": 175920,
          "time": 119.02346854583335,
          "velocity": 0.7874015748031497
        },
        {
          "duration": 0.05882350000000258,
          "durationTicks": 120,
          "midi": 80,
          "name": "G#5",
          "ticks": 176160,
          "time": 119.15112804583336,
          "velocity": 0.7874015748031497
        },
        {
          "duration": 0.05882349999998837,
          "durationTicks": 120,
          "midi": 80,
          "name": "G#5",
          "ticks": 176400,
          "time": 119.26877504583337,
          "velocity": 0.7874015748031497
        },
        {
          "duration": 0.05882350000000258,
          "durationTicks": 120,
          "midi": 80,
          "name": "G#5",
          "ticks": 176640,
          "time": 119.38642204583336,
          "velocity": 0.7874015748031497
        },
        {
          "duration": 0.2181810000000013,
          "durationTicks": 480,
          "midi": 80,
          "name": "G#5",
          "ticks": 176880,
          "time": 119.50406904583336,
          "velocity": 0.7874015748031497
        },
        {
          "duration": 0.054545250000003875,
          "durationTicks": 120,
          "midi": 79,
          "name": "G5",
          "ticks": 177360,
          "time": 119.72225004583336,
          "velocity": 0.7874015748031497
        },
        {
          "duration": 0.054545250000003875,
          "durationTicks": 120,
          "midi": 80,
          "name": "G#5",
          "ticks": 177600,
          "time": 119.83134054583336,
          "velocity": 0.7874015748031497
        },
        {
          "duration": 0.054545250000003875,
          "durationTicks": 120,
          "midi": 79,
          "name": "G5",
          "ticks": 177840,
          "time": 119.94043104583336,
          "velocity": 0.7874015748031497
        },
        {
          "duration": 0.054545250000003875,
          "durationTicks": 120,
          "midi": 80,
          "name": "G#5",
          "ticks": 178080,
          "time": 120.04952154583336,
          "velocity": 0.7874015748031497
        },
        {
          "duration": 0.054545249999989665,
          "durationTicks": 120,
          "midi": 79,
          "name": "G5",
          "ticks": 178320,
          "time": 120.15861204583337,
          "velocity": 0.7874015748031497
        },
        {
          "duration": 0.054545250000003875,
          "durationTicks": 120,
          "midi": 80,
          "name": "G#5",
          "ticks": 178560,
          "time": 120.26770254583336,
          "velocity": 0.7874015748031497
        },
        {
          "duration": 0.054545249999989665,
          "durationTicks": 120,
          "midi": 79,
          "name": "G5",
          "ticks": 178800,
          "time": 120.37679304583337,
          "velocity": 0.7874015748031497
        },
        {
          "duration": 0.054545250000003875,
          "durationTicks": 120,
          "midi": 80,
          "name": "G#5",
          "ticks": 179040,
          "time": 120.48588354583336,
          "velocity": 0.7874015748031497
        },
        {
          "duration": 0.054545249999989665,
          "durationTicks": 120,
          "midi": 79,
          "name": "G5",
          "ticks": 179280,
          "time": 120.59497404583337,
          "velocity": 0.7874015748031497
        },
        {
          "duration": 0.054545250000003875,
          "durationTicks": 120,
          "midi": 80,
          "name": "G#5",
          "ticks": 179520,
          "time": 120.70406454583336,
          "velocity": 0.7874015748031497
        },
        {
          "duration": 0.054545250000003875,
          "durationTicks": 120,
          "midi": 79,
          "name": "G5",
          "ticks": 179760,
          "time": 120.81315504583335,
          "velocity": 0.7874015748031497
        },
        {
          "duration": 0.054545250000003875,
          "durationTicks": 120,
          "midi": 80,
          "name": "G#5",
          "ticks": 180000,
          "time": 120.92224554583336,
          "velocity": 0.7874015748031497
        },
        {
          "duration": 0.054545250000003875,
          "durationTicks": 120,
          "midi": 80,
          "name": "G#5",
          "ticks": 180240,
          "time": 121.03133604583336,
          "velocity": 0.7874015748031497
        },
        {
          "duration": 0.054545250000003875,
          "durationTicks": 120,
          "midi": 80,
          "name": "G#5",
          "ticks": 180480,
          "time": 121.14042654583336,
          "velocity": 0.7874015748031497
        },
        {
          "duration": 0.2181810000000013,
          "durationTicks": 480,
          "midi": 80,
          "name": "G#5",
          "ticks": 180720,
          "time": 121.24951704583336,
          "velocity": 0.7874015748031497
        },
        {
          "duration": 0.054545250000003875,
          "durationTicks": 120,
          "midi": 82,
          "name": "A#5",
          "ticks": 181200,
          "time": 121.46769804583336,
          "velocity": 0.7874015748031497
        },
        {
          "duration": 0.054545249999989665,
          "durationTicks": 120,
          "midi": 85,
          "name": "C#6",
          "ticks": 181440,
          "time": 121.57678854583337,
          "velocity": 0.7874015748031497
        },
        {
          "duration": 0.054545250000003875,
          "durationTicks": 120,
          "midi": 87,
          "name": "D#6",
          "ticks": 181680,
          "time": 121.68587904583336,
          "velocity": 0.7874015748031497
        },
        {
          "duration": 0.054545249999989665,
          "durationTicks": 120,
          "midi": 80,
          "name": "G#5",
          "ticks": 181920,
          "time": 121.79496954583337,
          "velocity": 0.7874015748031497
        },
        {
          "duration": 0.054545250000003875,
          "durationTicks": 120,
          "midi": 82,
          "name": "A#5",
          "ticks": 182160,
          "time": 121.90406004583336,
          "velocity": 0.7874015748031497
        },
        {
          "duration": 0.054545250000003875,
          "durationTicks": 120,
          "midi": 85,
          "name": "C#6",
          "ticks": 182400,
          "time": 122.01315054583335,
          "velocity": 0.7874015748031497
        },
        {
          "duration": 0.054545250000003875,
          "durationTicks": 120,
          "midi": 87,
          "name": "D#6",
          "ticks": 182640,
          "time": 122.12224104583336,
          "velocity": 0.7874015748031497
        },
        {
          "duration": 0.054545250000003875,
          "durationTicks": 120,
          "midi": 80,
          "name": "G#5",
          "ticks": 182880,
          "time": 122.23133154583336,
          "velocity": 0.7874015748031497
        },
        {
          "duration": 0.054545250000003875,
          "durationTicks": 120,
          "midi": 82,
          "name": "A#5",
          "ticks": 183120,
          "time": 122.34042204583336,
          "velocity": 0.7874015748031497
        },
        {
          "duration": 0.054545250000003875,
          "durationTicks": 120,
          "midi": 85,
          "name": "C#6",
          "ticks": 183360,
          "time": 122.44951254583336,
          "velocity": 0.7874015748031497
        },
        {
          "duration": 0.054545249999989665,
          "durationTicks": 120,
          "midi": 87,
          "name": "D#6",
          "ticks": 183600,
          "time": 122.55860304583337,
          "velocity": 0.7874015748031497
        },
        {
          "duration": 0.2181810000000013,
          "durationTicks": 480,
          "midi": 89,
          "name": "F6",
          "ticks": 183840,
          "time": 122.66769354583336,
          "velocity": 0.7874015748031497
        },
        {
          "duration": 0.054545250000003875,
          "durationTicks": 120,
          "midi": 87,
          "name": "D#6",
          "ticks": 184320,
          "time": 122.88587454583336,
          "velocity": 0.7874015748031497
        },
        {
          "duration": 0.21818099999998708,
          "durationTicks": 480,
          "midi": 84,
          "name": "C6",
          "ticks": 184560,
          "time": 122.99496504583337,
          "velocity": 0.7874015748031497
        },
        {
          "duration": 0.054545250000003875,
          "durationTicks": 120,
          "midi": 83,
          "name": "B5",
          "ticks": 185040,
          "time": 123.21314604583335,
          "velocity": 0.7874015748031497
        },
        {
          "duration": 0.054545250000003875,
          "durationTicks": 120,
          "midi": 84,
          "name": "C6",
          "ticks": 185280,
          "time": 123.32223654583336,
          "velocity": 0.7874015748031497
        },
        {
          "duration": 0.054545250000003875,
          "durationTicks": 120,
          "midi": 83,
          "name": "B5",
          "ticks": 185520,
          "time": 123.43132704583336,
          "velocity": 0.7874015748031497
        },
        {
          "duration": 0.054545250000003875,
          "durationTicks": 120,
          "midi": 84,
          "name": "C6",
          "ticks": 185760,
          "time": 123.54041754583336,
          "velocity": 0.7874015748031497
        },
        {
          "duration": 0.054545250000003875,
          "durationTicks": 120,
          "midi": 84,
          "name": "C6",
          "ticks": 186000,
          "time": 123.64950804583336,
          "velocity": 0.7874015748031497
        },
        {
          "duration": 0.054545249999989665,
          "durationTicks": 120,
          "midi": 84,
          "name": "C6",
          "ticks": 186240,
          "time": 123.75859854583337,
          "velocity": 0.7874015748031497
        },
        {
          "duration": 0.054545250000003875,
          "durationTicks": 120,
          "midi": 84,
          "name": "C6",
          "ticks": 186480,
          "time": 123.86768904583336,
          "velocity": 0.7874015748031497
        },
        {
          "duration": 0.054545249999989665,
          "durationTicks": 120,
          "midi": 83,
          "name": "B5",
          "ticks": 186720,
          "time": 123.97677954583337,
          "velocity": 0.7874015748031497
        },
        {
          "duration": 0.054545250000003875,
          "durationTicks": 120,
          "midi": 84,
          "name": "C6",
          "ticks": 186960,
          "time": 124.08587004583336,
          "velocity": 0.7874015748031497
        },
        {
          "duration": 0.054545249999989665,
          "durationTicks": 120,
          "midi": 83,
          "name": "B5",
          "ticks": 187200,
          "time": 124.19496054583337,
          "velocity": 0.7874015748031497
        },
        {
          "duration": 0.054545250000003875,
          "durationTicks": 120,
          "midi": 84,
          "name": "C6",
          "ticks": 187440,
          "time": 124.30405104583336,
          "velocity": 0.7874015748031497
        },
        {
          "duration": 0.054545250000003875,
          "durationTicks": 120,
          "midi": 85,
          "name": "C#6",
          "ticks": 187680,
          "time": 124.41314154583335,
          "velocity": 0.7874015748031497
        },
        {
          "duration": 0.054545250000003875,
          "durationTicks": 120,
          "midi": 84,
          "name": "C6",
          "ticks": 187920,
          "time": 124.52223204583336,
          "velocity": 0.7874015748031497
        },
        {
          "duration": 0.054545250000003875,
          "durationTicks": 120,
          "midi": 83,
          "name": "B5",
          "ticks": 188160,
          "time": 124.63132254583336,
          "velocity": 0.7874015748031497
        },
        {
          "duration": 0.16363574999999742,
          "durationTicks": 360,
          "midi": 82,
          "name": "A#5",
          "ticks": 188400,
          "time": 124.74041304583336,
          "velocity": 0.7874015748031497
        },
        {
          "duration": 0.054545249999989665,
          "durationTicks": 120,
          "midi": 82,
          "name": "A#5",
          "ticks": 188880,
          "time": 124.95859404583337,
          "velocity": 0.7874015748031497
        },
        {
          "duration": 0.054545250000003875,
          "durationTicks": 120,
          "midi": 82,
          "name": "A#5",
          "ticks": 189120,
          "time": 125.06768454583336,
          "velocity": 0.7874015748031497
        },
        {
          "duration": 0.054545249999989665,
          "durationTicks": 120,
          "midi": 82,
          "name": "A#5",
          "ticks": 189360,
          "time": 125.17677504583337,
          "velocity": 0.7874015748031497
        },
        {
          "duration": 0.054545250000003875,
          "durationTicks": 120,
          "midi": 82,
          "name": "A#5",
          "ticks": 189600,
          "time": 125.28586554583336,
          "velocity": 0.7874015748031497
        },
        {
          "duration": 0.054545249999989665,
          "durationTicks": 120,
          "midi": 81,
          "name": "A5",
          "ticks": 189840,
          "time": 125.39495604583337,
          "velocity": 0.7874015748031497
        },
        {
          "duration": 0.054545250000003875,
          "durationTicks": 120,
          "midi": 81,
          "name": "A5",
          "ticks": 190080,
          "time": 125.50404654583336,
          "velocity": 0.7874015748031497
        },
        {
          "duration": 0.054545250000003875,
          "durationTicks": 120,
          "midi": 81,
          "name": "A5",
          "ticks": 190320,
          "time": 125.61313704583335,
          "velocity": 0.7874015748031497
        },
        {
          "duration": 0.04999999999999716,
          "durationTicks": 120,
          "midi": 80,
          "name": "G#5",
          "ticks": 190560,
          "time": 125.72222754583336,
          "velocity": 0.7874015748031497
        },
        {
          "duration": 0.05000000000001137,
          "durationTicks": 120,
          "midi": 80,
          "name": "G#5",
          "ticks": 190800,
          "time": 125.82222754583336,
          "velocity": 0.7874015748031497
        },
        {
          "duration": 0.04999999999999716,
          "durationTicks": 120,
          "midi": 80,
          "name": "G#5",
          "ticks": 191040,
          "time": 125.92222754583337,
          "velocity": 0.7874015748031497
        },
        {
          "duration": 0.04999999999999716,
          "durationTicks": 120,
          "midi": 80,
          "name": "G#5",
          "ticks": 191280,
          "time": 126.02222754583336,
          "velocity": 0.7874015748031497
        },
        {
          "duration": 0.04999999999999716,
          "durationTicks": 120,
          "midi": 80,
          "name": "G#5",
          "ticks": 191520,
          "time": 126.12222754583337,
          "velocity": 0.7874015748031497
        },
        {
          "duration": 0.04999999999999716,
          "durationTicks": 120,
          "midi": 80,
          "name": "G#5",
          "ticks": 191760,
          "time": 126.22222754583336,
          "velocity": 0.7874015748031497
        },
        {
          "duration": 0.05000000000001137,
          "durationTicks": 120,
          "midi": 80,
          "name": "G#5",
          "ticks": 192000,
          "time": 126.32222754583336,
          "velocity": 0.7874015748031497
        },
        {
          "duration": 0.19061489166666945,
          "durationTicks": 480,
          "midi": 80,
          "name": "G#5",
          "ticks": 192240,
          "time": 126.42222754583337,
          "velocity": 0.7874015748031497
        },
        {
          "duration": 0.04761899999999741,
          "durationTicks": 120,
          "midi": 79,
          "name": "G5",
          "ticks": 192720,
          "time": 126.61284243750003,
          "velocity": 0.7874015748031497
        },
        {
          "duration": 0.04761899999999741,
          "durationTicks": 120,
          "midi": 80,
          "name": "G#5",
          "ticks": 192960,
          "time": 126.70808043750003,
          "velocity": 0.7874015748031497
        },
        {
          "duration": 0.047619000000011624,
          "durationTicks": 120,
          "midi": 79,
          "name": "G5",
          "ticks": 193200,
          "time": 126.80331843750002,
          "velocity": 0.7874015748031497
        },
        {
          "duration": 0.04761899999999741,
          "durationTicks": 120,
          "midi": 80,
          "name": "G#5",
          "ticks": 193440,
          "time": 126.89855643750003,
          "velocity": 0.7874015748031497
        },
        {
          "duration": 0.04761899999999741,
          "durationTicks": 120,
          "midi": 79,
          "name": "G5",
          "ticks": 193680,
          "time": 126.99379443750003,
          "velocity": 0.7874015748031497
        },
        {
          "duration": 0.047619000000011624,
          "durationTicks": 120,
          "midi": 80,
          "name": "G#5",
          "ticks": 193920,
          "time": 127.08903243750002,
          "velocity": 0.7874015748031497
        },
        {
          "duration": 0.04761899999999741,
          "durationTicks": 120,
          "midi": 79,
          "name": "G5",
          "ticks": 194160,
          "time": 127.18427043750003,
          "velocity": 0.7874015748031497
        },
        {
          "duration": 0.04761899999999741,
          "durationTicks": 120,
          "midi": 80,
          "name": "G#5",
          "ticks": 194400,
          "time": 127.27950843750003,
          "velocity": 0.7874015748031497
        },
        {
          "duration": 0.04761899999999741,
          "durationTicks": 120,
          "midi": 79,
          "name": "G5",
          "ticks": 194640,
          "time": 127.37474643750004,
          "velocity": 0.7874015748031497
        },
        {
          "duration": 0.04761899999999741,
          "durationTicks": 120,
          "midi": 80,
          "name": "G#5",
          "ticks": 194880,
          "time": 127.46998443750003,
          "velocity": 0.7874015748031497
        },
        {
          "duration": 0.04761899999999741,
          "durationTicks": 120,
          "midi": 79,
          "name": "G5",
          "ticks": 195120,
          "time": 127.56522243750003,
          "velocity": 0.7874015748031497
        },
        {
          "duration": 0.04761899999999741,
          "durationTicks": 120,
          "midi": 80,
          "name": "G#5",
          "ticks": 195360,
          "time": 127.66046043750003,
          "velocity": 0.7874015748031497
        },
        {
          "duration": 0.04761899999999741,
          "durationTicks": 120,
          "midi": 80,
          "name": "G#5",
          "ticks": 195600,
          "time": 127.75569843750003,
          "velocity": 0.7874015748031497
        },
        {
          "duration": 0.047619000000011624,
          "durationTicks": 120,
          "midi": 80,
          "name": "G#5",
          "ticks": 195840,
          "time": 127.85093643750002,
          "velocity": 0.7874015748031497
        },
        {
          "duration": 0.19047600000000386,
          "durationTicks": 480,
          "midi": 80,
          "name": "G#5",
          "ticks": 196080,
          "time": 127.94617443750003,
          "velocity": 0.7874015748031497
        },
        {
          "duration": 0.04761899999999741,
          "durationTicks": 120,
          "midi": 82,
          "name": "A#5",
          "ticks": 196560,
          "time": 128.13665043750004,
          "velocity": 0.7874015748031497
        },
        {
          "duration": 0.04761899999999741,
          "durationTicks": 120,
          "midi": 85,
          "name": "C#6",
          "ticks": 196800,
          "time": 128.23188843750003,
          "velocity": 0.7874015748031497
        },
        {
          "duration": 0.04761899999999741,
          "durationTicks": 120,
          "midi": 87,
          "name": "D#6",
          "ticks": 197040,
          "time": 128.32712643750003,
          "velocity": 0.7874015748031497
        },
        {
          "duration": 0.04761899999999741,
          "durationTicks": 120,
          "midi": 80,
          "name": "G#5",
          "ticks": 197280,
          "time": 128.42236443750002,
          "velocity": 0.7874015748031497
        },
        {
          "duration": 0.047619000000025835,
          "durationTicks": 120,
          "midi": 82,
          "name": "A#5",
          "ticks": 197520,
          "time": 128.51760243750002,
          "velocity": 0.7874015748031497
        },
        {
          "duration": 0.04761899999999741,
          "durationTicks": 120,
          "midi": 85,
          "name": "C#6",
          "ticks": 197760,
          "time": 128.61284043750004,
          "velocity": 0.7874015748031497
        },
        {
          "duration": 0.04761899999999741,
          "durationTicks": 120,
          "midi": 87,
          "name": "D#6",
          "ticks": 198000,
          "time": 128.70807843750003,
          "velocity": 0.7874015748031497
        },
        {
          "duration": 0.04761899999999741,
          "durationTicks": 120,
          "midi": 80,
          "name": "G#5",
          "ticks": 198240,
          "time": 128.80331643750003,
          "velocity": 0.7874015748031497
        },
        {
          "duration": 0.04761899999999741,
          "durationTicks": 120,
          "midi": 82,
          "name": "A#5",
          "ticks": 198480,
          "time": 128.89855443750002,
          "velocity": 0.7874015748031497
        },
        {
          "duration": 0.04761899999999741,
          "durationTicks": 120,
          "midi": 85,
          "name": "C#6",
          "ticks": 198720,
          "time": 128.99379243750002,
          "velocity": 0.7874015748031497
        },
        {
          "duration": 0.04761899999999741,
          "durationTicks": 120,
          "midi": 87,
          "name": "D#6",
          "ticks": 198960,
          "time": 129.08903043750004,
          "velocity": 0.7874015748031497
        },
        {
          "duration": 0.19047599999998965,
          "durationTicks": 480,
          "midi": 89,
          "name": "F6",
          "ticks": 199200,
          "time": 129.18426843750004,
          "velocity": 0.7874015748031497
        },
        {
          "duration": 0.04761899999999741,
          "durationTicks": 120,
          "midi": 87,
          "name": "D#6",
          "ticks": 199680,
          "time": 129.37474443750003,
          "velocity": 0.7874015748031497
        },
        {
          "duration": 0.19047600000001808,
          "durationTicks": 480,
          "midi": 84,
          "name": "C6",
          "ticks": 199920,
          "time": 129.46998243750002,
          "velocity": 0.7874015748031497
        },
        {
          "duration": 0.04761899999999741,
          "durationTicks": 120,
          "midi": 83,
          "name": "B5",
          "ticks": 200400,
          "time": 129.66045843750004,
          "velocity": 0.7874015748031497
        },
        {
          "duration": 0.04761899999999741,
          "durationTicks": 120,
          "midi": 84,
          "name": "C6",
          "ticks": 200640,
          "time": 129.75569643750003,
          "velocity": 0.7874015748031497
        },
        {
          "duration": 0.04761899999999741,
          "durationTicks": 120,
          "midi": 83,
          "name": "B5",
          "ticks": 200880,
          "time": 129.85093443750003,
          "velocity": 0.7874015748031497
        },
        {
          "duration": 0.04761899999999741,
          "durationTicks": 120,
          "midi": 84,
          "name": "C6",
          "ticks": 201120,
          "time": 129.94617243750002,
          "velocity": 0.7874015748031497
        },
        {
          "duration": 0.04761899999999741,
          "durationTicks": 120,
          "midi": 84,
          "name": "C6",
          "ticks": 201360,
          "time": 130.04141043750002,
          "velocity": 0.7874015748031497
        },
        {
          "duration": 0.04761899999999741,
          "durationTicks": 120,
          "midi": 84,
          "name": "C6",
          "ticks": 201600,
          "time": 130.13664843750004,
          "velocity": 0.7874015748031497
        },
        {
          "duration": 0.04761899999999741,
          "durationTicks": 120,
          "midi": 84,
          "name": "C6",
          "ticks": 201840,
          "time": 130.23188643750004,
          "velocity": 0.7874015748031497
        },
        {
          "duration": 0.04761899999999741,
          "durationTicks": 120,
          "midi": 83,
          "name": "B5",
          "ticks": 202080,
          "time": 130.32712443750003,
          "velocity": 0.7874015748031497
        },
        {
          "duration": 0.04761899999999741,
          "durationTicks": 120,
          "midi": 84,
          "name": "C6",
          "ticks": 202320,
          "time": 130.42236243750003,
          "velocity": 0.7874015748031497
        },
        {
          "duration": 0.04761899999999741,
          "durationTicks": 120,
          "midi": 83,
          "name": "B5",
          "ticks": 202560,
          "time": 130.51760043750002,
          "velocity": 0.7874015748031497
        },
        {
          "duration": 0.047619000000025835,
          "durationTicks": 120,
          "midi": 84,
          "name": "C6",
          "ticks": 202800,
          "time": 130.61283843750002,
          "velocity": 0.7874015748031497
        },
        {
          "duration": 0.04761899999999741,
          "durationTicks": 120,
          "midi": 85,
          "name": "C#6",
          "ticks": 203040,
          "time": 130.70807643750004,
          "velocity": 0.7874015748031497
        },
        {
          "duration": 0.04761899999999741,
          "durationTicks": 120,
          "midi": 84,
          "name": "C6",
          "ticks": 203280,
          "time": 130.80331443750003,
          "velocity": 0.7874015748031497
        },
        {
          "duration": 0.04761899999999741,
          "durationTicks": 120,
          "midi": 83,
          "name": "B5",
          "ticks": 203520,
          "time": 130.89855243750003,
          "velocity": 0.7874015748031497
        },
        {
          "duration": 0.14285699999999224,
          "durationTicks": 360,
          "midi": 82,
          "name": "A#5",
          "ticks": 203760,
          "time": 130.99379043750002,
          "velocity": 0.7874015748031497
        },
        {
          "duration": 0.04761899999999741,
          "durationTicks": 120,
          "midi": 82,
          "name": "A#5",
          "ticks": 204240,
          "time": 131.18426643750004,
          "velocity": 0.7874015748031497
        },
        {
          "duration": 0.04761899999999741,
          "durationTicks": 120,
          "midi": 82,
          "name": "A#5",
          "ticks": 204480,
          "time": 131.27950443750004,
          "velocity": 0.7874015748031497
        },
        {
          "duration": 0.04761899999999741,
          "durationTicks": 120,
          "midi": 82,
          "name": "A#5",
          "ticks": 204720,
          "time": 131.37474243750003,
          "velocity": 0.7874015748031497
        },
        {
          "duration": 0.04761899999999741,
          "durationTicks": 120,
          "midi": 82,
          "name": "A#5",
          "ticks": 204960,
          "time": 131.46998043750003,
          "velocity": 0.7874015748031497
        },
        {
          "duration": 0.04761899999999741,
          "durationTicks": 120,
          "midi": 81,
          "name": "A5",
          "ticks": 205200,
          "time": 131.56521843750002,
          "velocity": 0.7874015748031497
        },
        {
          "duration": 0.047619000000025835,
          "durationTicks": 120,
          "midi": 80,
          "name": "G#5",
          "ticks": 205440,
          "time": 131.66045643750002,
          "velocity": 0.7874015748031497
        },
        {
          "duration": 0.04761899999999741,
          "durationTicks": 120,
          "midi": 79,
          "name": "G5",
          "ticks": 205680,
          "time": 131.75569443750004,
          "velocity": 0.7874015748031497
        },
        {
          "duration": 0.04761899999999741,
          "durationTicks": 120,
          "midi": 80,
          "name": "G#5",
          "ticks": 205920,
          "time": 131.85093243750003,
          "velocity": 0.7874015748031497
        },
        {
          "duration": 0.04761899999999741,
          "durationTicks": 120,
          "midi": 82,
          "name": "A#5",
          "ticks": 206160,
          "time": 131.94617043750003,
          "velocity": 0.7874015748031497
        },
        {
          "duration": 0.04761899999999741,
          "durationTicks": 120,
          "midi": 85,
          "name": "C#6",
          "ticks": 206400,
          "time": 132.04140843750002,
          "velocity": 0.7874015748031497
        },
        {
          "duration": 0.04761899999999741,
          "durationTicks": 120,
          "midi": 84,
          "name": "C6",
          "ticks": 206640,
          "time": 132.13664643750002,
          "velocity": 0.7874015748031497
        },
        {
          "duration": 0.054545249999989665,
          "durationTicks": 120,
          "midi": 85,
          "name": "C#6",
          "ticks": 206880,
          "time": 132.2318844375,
          "velocity": 0.7874015748031497
        },
        {
          "duration": 0.1295452499999783,
          "durationTicks": 240,
          "midi": 80,
          "name": "G#5",
          "ticks": 207240,
          "time": 132.3955201875,
          "velocity": 0.7874015748031497
        },
        {
          "duration": 0.23076900000000933,
          "durationTicks": 240,
          "midi": 84,
          "name": "C6",
          "ticks": 207600,
          "time": 132.6000654375,
          "velocity": 0.7874015748031497
        },
        {
          "duration": 0.16216199999999503,
          "durationTicks": 240,
          "midi": 85,
          "name": "C#6",
          "ticks": 207840,
          "time": 132.83083443750002,
          "velocity": 0.7874015748031497
        },
        {
          "duration": 0.16216199999999503,
          "durationTicks": 240,
          "midi": 80,
          "name": "G#5",
          "ticks": 208200,
          "time": 133.07407743750002,
          "velocity": 0.7874015748031497
        },
        {
          "duration": 0.16216199999999503,
          "durationTicks": 240,
          "midi": 84,
          "name": "C6",
          "ticks": 208560,
          "time": 133.31732043750003,
          "velocity": 0.7874015748031497
        },
        {
          "duration": 0.13953449999999634,
          "durationTicks": 240,
          "midi": 85,
          "name": "C#6",
          "ticks": 208800,
          "time": 133.47948243750002,
          "velocity": 0.7874015748031497
        },
        {
          "duration": 0.13953449999999634,
          "durationTicks": 240,
          "midi": 80,
          "name": "G#5",
          "ticks": 209160,
          "time": 133.68878418750003,
          "velocity": 0.7874015748031497
        },
        {
          "duration": 0.13953450000002476,
          "durationTicks": 240,
          "midi": 84,
          "name": "C6",
          "ticks": 209520,
          "time": 133.8980859375,
          "velocity": 0.7874015748031497
        },
        {
          "duration": 0.1304345000000069,
          "durationTicks": 240,
          "midi": 85,
          "name": "C#6",
          "ticks": 209760,
          "time": 134.03762043750004,
          "velocity": 0.7874015748031497
        },
        {
          "duration": 0.1304345000000069,
          "durationTicks": 240,
          "midi": 80,
          "name": "G#5",
          "ticks": 210120,
          "time": 134.23327218750003,
          "velocity": 0.7874015748031497
        },
        {
          "duration": 0.1304345000000069,
          "durationTicks": 240,
          "midi": 84,
          "name": "C6",
          "ticks": 210480,
          "time": 134.42892393750003,
          "velocity": 0.7874015748031497
        },
        {
          "duration": 0.12000000000000455,
          "durationTicks": 240,
          "midi": 85,
          "name": "C#6",
          "ticks": 210720,
          "time": 134.55935843750004,
          "velocity": 0.7874015748031497
        },
        {
          "duration": 0.12000000000000455,
          "durationTicks": 240,
          "midi": 80,
          "name": "G#5",
          "ticks": 211080,
          "time": 134.73935843750004,
          "velocity": 0.7874015748031497
        },
        {
          "duration": 0.11999999999997613,
          "durationTicks": 240,
          "midi": 84,
          "name": "C6",
          "ticks": 211440,
          "time": 134.91935843750005,
          "velocity": 0.7874015748031497
        },
        {
          "duration": 0.11111099999999396,
          "durationTicks": 240,
          "midi": 85,
          "name": "C#6",
          "ticks": 211680,
          "time": 135.03935843750003,
          "velocity": 0.7874015748031497
        },
        {
          "duration": 0.11111100000002239,
          "durationTicks": 240,
          "midi": 80,
          "name": "G#5",
          "ticks": 212040,
          "time": 135.20602493750002,
          "velocity": 0.7874015748031497
        },
        {
          "duration": 0.11111099999999396,
          "durationTicks": 240,
          "midi": 84,
          "name": "C6",
          "ticks": 212400,
          "time": 135.37269143750004,
          "velocity": 0.7874015748031497
        },
        {
          "duration": 0.10526300000000788,
          "durationTicks": 240,
          "midi": 85,
          "name": "C#6",
          "ticks": 212640,
          "time": 135.48380243750003,
          "velocity": 0.7874015748031497
        },
        {
          "duration": 0.10526300000000788,
          "durationTicks": 240,
          "midi": 80,
          "name": "G#5",
          "ticks": 213000,
          "time": 135.64169693750003,
          "velocity": 0.7874015748031497
        },
        {
          "duration": 0.10526300000000788,
          "durationTicks": 240,
          "midi": 84,
          "name": "C6",
          "ticks": 213360,
          "time": 135.79959143750003,
          "velocity": 0.7874015748031497
        },
        {
          "duration": 0.09999999999999432,
          "durationTicks": 240,
          "midi": 85,
          "name": "C#6",
          "ticks": 213600,
          "time": 135.90485443750003,
          "velocity": 0.7874015748031497
        },
        {
          "duration": 0.09999999999999432,
          "durationTicks": 240,
          "midi": 80,
          "name": "G#5",
          "ticks": 213960,
          "time": 136.05485443750004,
          "velocity": 0.7874015748031497
        },
        {
          "duration": 0.09999999999999432,
          "durationTicks": 240,
          "midi": 84,
          "name": "C6",
          "ticks": 214320,
          "time": 136.20485443750005,
          "velocity": 0.7874015748031497
        },
        {
          "duration": 0.09523799999999483,
          "durationTicks": 240,
          "midi": 85,
          "name": "C#6",
          "ticks": 214560,
          "time": 136.30485443750004,
          "velocity": 0.7874015748031497
        },
        {
          "duration": 0.09523799999999483,
          "durationTicks": 240,
          "midi": 80,
          "name": "G#5",
          "ticks": 214920,
          "time": 136.44771143750003,
          "velocity": 0.7874015748031497
        },
        {
          "duration": 3.0476189999999974,
          "durationTicks": 240,
          "midi": 84,
          "name": "C6",
          "ticks": 215280,
          "time": 136.59056843750005,
          "velocity": 0.7874015748031497
        },
        {
          "duration": 0.13698600000000738,
          "durationTicks": 240,
          "midi": 85,
          "name": "C#6",
          "ticks": 215520,
          "time": 139.63818743750005,
          "velocity": 0.7874015748031497
        }
      ],
      "endOfTrackTicks": 215760
    },
    {
      "channel": 0,
      "controlChanges": {},
      "pitchBends": [
        {
          "ticks": 215415,
          "time": 137.01318743750005,
          "value": -0.0057373046875
        },
        {
          "ticks": 215416,
          "time": 137.03818743750006,
          "value": -0.0001220703125
        },
        {
          "ticks": 215417,
          "time": 137.06318743750006,
          "value": 0
        },
        {
          "ticks": 215417,
          "time": 137.06318743750006,
          "value": 0.0167236328125
        },
        {
          "ticks": 215418,
          "time": 137.08818743750004,
          "value": 0.0223388671875
        },
        {
          "ticks": 215419,
          "time": 137.11318743750005,
          "value": 0.0279541015625
        },
        {
          "ticks": 215419,
          "time": 137.11318743750005,
          "value": 0.0335693359375
        },
        {
          "ticks": 215420,
          "time": 137.13818743750005,
          "value": 0.0391845703125
        },
        {
          "ticks": 215421,
          "time": 137.16318743750006,
          "value": 0.0447998046875
        },
        {
          "ticks": 215421,
          "time": 137.16318743750006,
          "value": 0.0560302734375
        },
        {
          "ticks": 215422,
          "time": 137.18818743750006,
          "value": 0.0616455078125
        },
        {
          "ticks": 215423,
          "time": 137.21318743750004,
          "value": 0.0672607421875
        },
        {
          "ticks": 215423,
          "time": 137.21318743750004,
          "value": 0.0728759765625
        },
        {
          "ticks": 215424,
          "time": 137.23818743750005,
          "value": 0.0784912109375
        },
        {
          "ticks": 215425,
          "time": 137.26318743750005,
          "value": 0.0841064453125
        },
        {
          "ticks": 215425,
          "time": 137.26318743750005,
          "value": 0.0953369140625
        },
        {
          "ticks": 215426,
          "time": 137.28818743750006,
          "value": 0.1009521484375
        },
        {
          "ticks": 215427,
          "time": 137.31318743750006,
          "value": 0.1065673828125
        },
        {
          "ticks": 215428,
          "time": 137.33818743750004,
          "value": 0.1121826171875
        },
        {
          "ticks": 215428,
          "time": 137.33818743750004,
          "value": 0.1177978515625
        },
        {
          "ticks": 215429,
          "time": 137.36318743750005,
          "value": 0.1290283203125
        },
        {
          "ticks": 215430,
          "time": 137.38818743750005,
          "value": 0.1346435546875
        },
        {
          "ticks": 215430,
          "time": 137.38818743750005,
          "value": 0.1402587890625
        },
        {
          "ticks": 215431,
          "time": 137.41318743750006,
          "value": 0.14599609375
        },
        {
          "ticks": 215432,
          "time": 137.43818743750006,
          "value": 0.151611328125
        },
        {
          "ticks": 215432,
          "time": 137.43818743750006,
          "value": 0.1572265625
        },
        {
          "ticks": 215433,
          "time": 137.46318743750004,
          "value": 0.16845703125
        },
        {
          "ticks": 215434,
          "time": 137.48818743750005,
          "value": 0.174072265625
        },
        {
          "ticks": 215434,
          "time": 137.48818743750005,
          "value": 0.1796875
        },
        {
          "ticks": 215435,
          "time": 137.51318743750005,
          "value": 0.185302734375
        },
        {
          "ticks": 215436,
          "time": 137.53818743750006,
          "value": 0.19091796875
        },
        {
          "ticks": 215436,
          "time": 137.53818743750006,
          "value": 0.196533203125
        },
        {
          "ticks": 215437,
          "time": 137.56318743750006,
          "value": 0.207763671875
        },
        {
          "ticks": 215438,
          "time": 137.58818743750004,
          "value": 0.21337890625
        },
        {
          "ticks": 215438,
          "time": 137.58818743750004,
          "value": 0.218994140625
        },
        {
          "ticks": 215439,
          "time": 137.61318743750005,
          "value": 0.224609375
        },
        {
          "ticks": 215440,
          "time": 137.63818743750005,
          "value": 0.230224609375
        },
        {
          "ticks": 215440,
          "time": 137.63818743750005,
          "value": 0.23583984375
        },
        {
          "ticks": 215441,
          "time": 137.66318743750006,
          "value": 0.2470703125
        },
        {
          "ticks": 215442,
          "time": 137.68818743750006,
          "value": 0.252685546875
        },
        {
          "ticks": 215442,
          "time": 137.68818743750006,
          "value": 0.25830078125
        },
        {
          "ticks": 215443,
          "time": 137.71318743750004,
          "value": 0.263916015625
        },
        {
          "ticks": 215444,
          "time": 137.73818743750005,
          "value": 0.26953125
        },
        {
          "ticks": 215444,
          "time": 137.73818743750005,
          "value": 0.275146484375
        },
        {
          "ticks": 215445,
          "time": 137.76318743750005,
          "value": 0.286376953125
        },
        {
          "ticks": 215446,
          "time": 137.78818743750006,
          "value": 0.2919921875
        },
        {
          "ticks": 215446,
          "time": 137.78818743750006,
          "value": 0.297607421875
        },
        {
          "ticks": 215447,
          "time": 137.81318743750006,
          "value": 0.30322265625
        },
        {
          "ticks": 215448,
          "time": 137.83818743750004,
          "value": 0.308837890625
        },
        {
          "ticks": 215448,
          "time": 137.83818743750004,
          "value": 0.314453125
        },
        {
          "ticks": 215449,
          "time": 137.86318743750005,
          "value": 0.32568359375
        },
        {
          "ticks": 215450,
          "time": 137.88818743750005,
          "value": 0.331298828125
        },
        {
          "ticks": 215450,
          "time": 137.88818743750005,
          "value": 0.3369140625
        },
        {
          "ticks": 215451,
          "time": 137.91318743750006,
          "value": 0.342529296875
        },
        {
          "ticks": 215452,
          "time": 137.93818743750006,
          "value": 0.34814453125
        },
        {
          "ticks": 215453,
          "time": 137.96318743750004,
          "value": 0.359375
        },
        {
          "ticks": 215453,
          "time": 137.96318743750004,
          "value": 0.364990234375
        },
        {
          "ticks": 215454,
          "time": 137.98818743750005,
          "value": 0.37060546875
        },
        {
          "ticks": 215455,
          "time": 138.01318743750005,
          "value": 0.376220703125
        },
        {
          "ticks": 215455,
          "time": 138.01318743750005,
          "value": 0.3818359375
        },
        {
          "ticks": 215456,
          "time": 138.03818743750006,
          "value": 0.387451171875
        },
        {
          "ticks": 215457,
          "time": 138.06318743750006,
          "value": 0.398681640625
        },
        {
          "ticks": 215457,
          "time": 138.06318743750006,
          "value": 0.404296875
        },
        {
          "ticks": 215458,
          "time": 138.08818743750004,
          "value": 0.409912109375
        },
        {
          "ticks": 215459,
          "time": 138.11318743750005,
          "value": 0.41552734375
        },
        {
          "ticks": 215459,
          "time": 138.11318743750005,
          "value": 0.421142578125
        },
        {
          "ticks": 215460,
          "time": 138.13818743750005,
          "value": 0.4267578125
        },
        {
          "ticks": 215461,
          "time": 138.16318743750006,
          "value": 0.4381103515625
        },
        {
          "ticks": 215461,
          "time": 138.16318743750006,
          "value": 0.4437255859375
        },
        {
          "ticks": 215462,
          "time": 138.18818743750006,
          "value": 0.4493408203125
        },
        {
          "ticks": 215463,
          "time": 138.21318743750004,
          "value": 0.4549560546875
        },
        {
          "ticks": 215463,
          "time": 138.21318743750004,
          "value": 0.4605712890625
        },
        {
          "ticks": 215464,
          "time": 138.23818743750005,
          "value": 0.4661865234375
        },
        {
          "ticks": 215465,
          "time": 138.26318743750005,
          "value": 0.4774169921875
        },
        {
          "ticks": 215465,
          "time": 138.26318743750005,
          "value": 0.4830322265625
        },
        {
          "ticks": 215466,
          "time": 138.28818743750006,
          "value": 0.4886474609375
        },
        {
          "ticks": 215467,
          "time": 138.31318743750006,
          "value": 0.4942626953125
        },
        {
          "ticks": 215467,
          "time": 138.31318743750006,
          "value": 0.4998779296875
        },
        {
          "ticks": 215468,
          "time": 138.33818743750004,
          "value": 0.5054931640625
        },
        {
          "ticks": 215469,
          "time": 138.36318743750005,
          "value": 0.5167236328125
        },
        {
          "ticks": 215469,
          "time": 138.36318743750005,
          "value": 0.5223388671875
        },
        {
          "ticks": 215470,
          "time": 138.38818743750005,
          "value": 0.5279541015625
        },
        {
          "ticks": 215471,
          "time": 138.41318743750006,
          "value": 0.5335693359375
        },
        {
          "ticks": 215471,
          "time": 138.41318743750006,
          "value": 0.5391845703125
        },
        {
          "ticks": 215472,
          "time": 138.43818743750006,
          "value": 0.5447998046875
        },
        {
          "ticks": 215473,
          "time": 138.46318743750004,
          "value": 0.5560302734375
        },
        {
          "ticks": 215473,
          "time": 138.46318743750004,
          "value": 0.5616455078125
        },
        {
          "ticks": 215474,
          "time": 138.48818743750005,
          "value": 0.5672607421875
        },
        {
          "ticks": 215475,
          "time": 138.51318743750005,
          "value": 0.5728759765625
        },
        {
          "ticks": 215475,
          "time": 138.51318743750005,
          "value": 0.5784912109375
        },
        {
          "ticks": 215476,
          "time": 138.53818743750006,
          "value": 0.5897216796875
        },
        {
          "ticks": 215477,
          "time": 138.56318743750006,
          "value": 0.5953369140625
        },
        {
          "ticks": 215478,
          "time": 138.58818743750004,
          "value": 0.6009521484375
        },
        {
          "ticks": 215478,
          "time": 138.58818743750004,
          "value": 0.6065673828125
        },
        {
          "ticks": 215479,
          "time": 138.61318743750005,
          "value": 0.6121826171875
        },
        {
          "ticks": 215480,
          "time": 138.63818743750005,
          "value": 0.6177978515625
        },
        {
          "ticks": 215480,
          "time": 138.63818743750005,
          "value": 0.6290283203125
        },
        {
          "ticks": 215481,
          "time": 138.66318743750006,
          "value": 0.6346435546875
        },
        {
          "ticks": 215482,
          "time": 138.68818743750006,
          "value": 0.6402587890625
        },
        {
          "ticks": 215482,
          "time": 138.68818743750006,
          "value": 0.6458740234375
        },
        {
          "ticks": 215483,
          "time": 138.71318743750004,
          "value": 0.6514892578125
        },
        {
          "ticks": 215484,
          "time": 138.73818743750005,
          "value": 0.6571044921875
        },
        {
          "ticks": 215484,
          "time": 138.73818743750005,
          "value": 0.6683349609375
        },
        {
          "ticks": 215485,
          "time": 138.76318743750005,
          "value": 0.6739501953125
        },
        {
          "ticks": 215486,
          "time": 138.78818743750006,
          "value": 0.6795654296875
        },
        {
          "ticks": 215486,
          "time": 138.78818743750006,
          "value": 0.6851806640625
        },
        {
          "ticks": 215487,
          "time": 138.81318743750006,
          "value": 0.6907958984375
        },
        {
          "ticks": 215488,
          "time": 138.83818743750004,
          "value": 0.6964111328125
        },
        {
          "ticks": 215488,
          "time": 138.83818743750004,
          "value": 0.7076416015625
        },
        {
          "ticks": 215489,
          "time": 138.86318743750005,
          "value": 0.7132568359375
        },
        {
          "ticks": 215490,
          "time": 138.88818743750005,
          "value": 0.718994140625
        },
        {
          "ticks": 215490,
          "time": 138.88818743750005,
          "value": 0.724609375
        },
        {
          "ticks": 215491,
          "time": 138.91318743750006,
          "value": 0.730224609375
        },
        {
          "ticks": 215492,
          "time": 138.93818743750006,
          "value": 0.73583984375
        },
        {
          "ticks": 215492,
          "time": 138.93818743750006,
          "value": 0.7470703125
        },
        {
          "ticks": 215493,
          "time": 138.96318743750004,
          "value": 0.752685546875
        },
        {
          "ticks": 215494,
          "time": 138.98818743750005,
          "value": 0.75830078125
        },
        {
          "ticks": 215494,
          "time": 138.98818743750005,
          "value": 0.763916015625
        },
        {
          "ticks": 215495,
          "time": 139.01318743750005,
          "value": 0.76953125
        },
        {
          "ticks": 215496,
          "time": 139.03818743750006,
          "value": 0.78076171875
        },
        {
          "ticks": 215496,
          "time": 139.03818743750006,
          "value": 0.786376953125
        },
        {
          "ticks": 215497,
          "time": 139.06318743750006,
          "value": 0.7919921875
        },
        {
          "ticks": 215498,
          "time": 139.08818743750004,
          "value": 0.797607421875
        },
        {
          "ticks": 215498,
          "time": 139.08818743750004,
          "value": 0.80322265625
        },
        {
          "ticks": 215499,
          "time": 139.11318743750005,
          "value": 0.808837890625
        },
        {
          "ticks": 215500,
          "time": 139.13818743750005,
          "value": 0.820068359375
        },
        {
          "ticks": 215501,
          "time": 139.16318743750006,
          "value": 0.82568359375
        },
        {
          "ticks": 215501,
          "time": 139.16318743750006,
          "value": 0.831298828125
        },
        {
          "ticks": 215502,
          "time": 139.18818743750006,
          "value": 0.8369140625
        },
        {
          "ticks": 215503,
          "time": 139.21318743750004,
          "value": 0.842529296875
        },
        {
          "ticks": 215503,
          "time": 139.21318743750004,
          "value": 0.84814453125
        },
        {
          "ticks": 215504,
          "time": 139.23818743750005,
          "value": 0.859375
        },
        {
          "ticks": 215505,
          "time": 139.26318743750005,
          "value": 0.864990234375
        },
        {
          "ticks": 215505,
          "time": 139.26318743750005,
          "value": 0.87060546875
        },
        {
          "ticks": 215506,
          "time": 139.28818743750006,
          "value": 0.876220703125
        },
        {
          "ticks": 215507,
          "time": 139.31318743750006,
          "value": 0.8818359375
        },
        {
          "ticks": 215507,
          "time": 139.31318743750006,
          "value": 0.887451171875
        },
        {
          "ticks": 215508,
          "time": 139.33818743750004,
          "value": 0.898681640625
        },
        {
          "ticks": 215509,
          "time": 139.36318743750005,
          "value": 0.904296875
        },
        {
          "ticks": 215509,
          "time": 139.36318743750005,
          "value": 0.909912109375
        },
        {
          "ticks": 215510,
          "time": 139.38818743750005,
          "value": 0.91552734375
        },
        {
          "ticks": 215511,
          "time": 139.41318743750006,
          "value": 0.921142578125
        },
        {
          "ticks": 215511,
          "time": 139.41318743750006,
          "value": 0.9267578125
        },
        {
          "ticks": 215512,
          "time": 139.43818743750006,
          "value": 0.93798828125
        },
        {
          "ticks": 215513,
          "time": 139.46318743750004,
          "value": 0.943603515625
        },
        {
          "ticks": 215513,
          "time": 139.46318743750004,
          "value": 0.94921875
        },
        {
          "ticks": 215514,
          "time": 139.48818743750005,
          "value": 0.954833984375
        },
        {
          "ticks": 215515,
          "time": 139.51318743750005,
          "value": 0.96044921875
        },
        {
          "ticks": 215515,
          "time": 139.51318743750005,
          "value": 0.966064453125
        },
        {
          "ticks": 215516,
          "time": 139.53818743750006,
          "value": 0.977294921875
        },
        {
          "ticks": 215517,
          "time": 139.56318743750006,
          "value": 0.98291015625
        },
        {
          "ticks": 215517,
          "time": 139.56318743750006,
          "value": 0.988525390625
        },
        {
          "ticks": 215518,
          "time": 139.58818743750004,
          "value": 0.994140625
        },
        {
          "ticks": 215519,
          "time": 139.61318743750005,
          "value": 0.9998779296875
        }
      ],
      "instrument": {
        "family": "piano",
        "number": 0,
        "name": "acoustic grand piano"
      },
      "name": "03_synth1",
      "notes": [
        {
          "duration": 0.06849300000000014,
          "durationTicks": 120,
          "midi": 70,
          "name": "A#4",
          "ticks": 18720,
          "time": 14.843798999999999,
          "velocity": 0.7874015748031497
        },
        {
          "duration": 0.06849300000000014,
          "durationTicks": 120,
          "midi": 71,
          "name": "B4",
          "ticks": 18960,
          "time": 14.980785,
          "velocity": 0.7874015748031497
        },
        {
          "duration": 0.06849300000000014,
          "durationTicks": 120,
          "midi": 73,
          "name": "C#5",
          "ticks": 19200,
          "time": 15.117771,
          "velocity": 0.7874015748031497
        },
        {
          "duration": 0.27397199999999877,
          "durationTicks": 480,
          "midi": 66,
          "name": "F#4",
          "ticks": 19440,
          "time": 15.254757,
          "velocity": 0.7874015748031497
        },
        {
          "duration": 0.06849300000000014,
          "durationTicks": 120,
          "midi": 65,
          "name": "F4",
          "ticks": 19920,
          "time": 15.528728999999998,
          "velocity": 0.7874015748031497
        },
        {
          "duration": 0.06849300000000014,
          "durationTicks": 120,
          "midi": 66,
          "name": "F#4",
          "ticks": 20160,
          "time": 15.665714999999999,
          "velocity": 0.7874015748031497
        },
        {
          "duration": 0.06849300000000014,
          "durationTicks": 120,
          "midi": 65,
          "name": "F4",
          "ticks": 20400,
          "time": 15.802700999999999,
          "velocity": 0.7874015748031497
        },
        {
          "duration": 0.06849300000000014,
          "durationTicks": 120,
          "midi": 66,
          "name": "F#4",
          "ticks": 20640,
          "time": 15.939687,
          "velocity": 0.7874015748031497
        },
        {
          "duration": 0.06849300000000014,
          "durationTicks": 120,
          "midi": 65,
          "name": "F4",
          "ticks": 20880,
          "time": 16.076673,
          "velocity": 0.7874015748031497
        },
        {
          "duration": 0.06849300000000014,
          "durationTicks": 120,
          "midi": 66,
          "name": "F#4",
          "ticks": 21120,
          "time": 16.213659,
          "velocity": 0.7874015748031497
        },
        {
          "duration": 0.06849300000000014,
          "durationTicks": 120,
          "midi": 65,
          "name": "F4",
          "ticks": 21360,
          "time": 16.350645,
          "velocity": 0.7874015748031497
        },
        {
          "duration": 0.06849300000000014,
          "durationTicks": 120,
          "midi": 66,
          "name": "F#4",
          "ticks": 21600,
          "time": 16.487631,
          "velocity": 0.7874015748031497
        },
        {
          "duration": 0.06849299999999658,
          "durationTicks": 120,
          "midi": 65,
          "name": "F4",
          "ticks": 21840,
          "time": 16.624617,
          "velocity": 0.7874015748031497
        },
        {
          "duration": 0.06849299999999658,
          "durationTicks": 120,
          "midi": 66,
          "name": "F#4",
          "ticks": 22080,
          "time": 16.761603,
          "velocity": 0.7874015748031497
        },
        {
          "duration": 0.06849300000000014,
          "durationTicks": 120,
          "midi": 65,
          "name": "F4",
          "ticks": 22320,
          "time": 16.898588999999998,
          "velocity": 0.7874015748031497
        },
        {
          "duration": 0.06849300000000014,
          "durationTicks": 120,
          "midi": 66,
          "name": "F#4",
          "ticks": 22560,
          "time": 17.035574999999998,
          "velocity": 0.7874015748031497
        },
        {
          "duration": 0.06849300000000014,
          "durationTicks": 120,
          "midi": 66,
          "name": "F#4",
          "ticks": 22800,
          "time": 17.172560999999998,
          "velocity": 0.7874015748031497
        },
        {
          "duration": 0.06849300000000014,
          "durationTicks": 120,
          "midi": 66,
          "name": "F#4",
          "ticks": 23040,
          "time": 17.309547,
          "velocity": 0.7874015748031497
        },
        {
          "duration": 0.27397200000000055,
          "durationTicks": 480,
          "midi": 66,
          "name": "F#4",
          "ticks": 23280,
          "time": 17.446533,
          "velocity": 0.7874015748031497
        },
        {
          "duration": 0.06849300000000014,
          "durationTicks": 120,
          "midi": 68,
          "name": "G#4",
          "ticks": 23760,
          "time": 17.720505,
          "velocity": 0.7874015748031497
        },
        {
          "duration": 0.06849300000000014,
          "durationTicks": 120,
          "midi": 71,
          "name": "B4",
          "ticks": 24000,
          "time": 17.857491,
          "velocity": 0.7874015748031497
        },
        {
          "duration": 0.06849300000000014,
          "durationTicks": 120,
          "midi": 73,
          "name": "C#5",
          "ticks": 24240,
          "time": 17.994477,
          "velocity": 0.7874015748031497
        },
        {
          "duration": 0.06849300000000014,
          "durationTicks": 120,
          "midi": 66,
          "name": "F#4",
          "ticks": 24480,
          "time": 18.131463,
          "velocity": 0.7874015748031497
        },
        {
          "duration": 0.06849300000000369,
          "durationTicks": 120,
          "midi": 68,
          "name": "G#4",
          "ticks": 24720,
          "time": 18.268448999999997,
          "velocity": 0.7874015748031497
        },
        {
          "duration": 0.06849300000000369,
          "durationTicks": 120,
          "midi": 71,
          "name": "B4",
          "ticks": 24960,
          "time": 18.405434999999997,
          "velocity": 0.7874015748031497
        },
        {
          "duration": 0.06849300000000369,
          "durationTicks": 120,
          "midi": 73,
          "name": "C#5",
          "ticks": 25200,
          "time": 18.542420999999997,
          "velocity": 0.7874015748031497
        },
        {
          "duration": 0.06849300000000014,
          "durationTicks": 120,
          "midi": 66,
          "name": "F#4",
          "ticks": 25440,
          "time": 18.679406999999998,
          "velocity": 0.7874015748031497
        },
        {
          "duration": 0.06849300000000014,
          "durationTicks": 120,
          "midi": 68,
          "name": "G#4",
          "ticks": 25680,
          "time": 18.816392999999998,
          "velocity": 0.7874015748031497
        },
        {
          "duration": 0.06849300000000014,
          "durationTicks": 120,
          "midi": 71,
          "name": "B4",
          "ticks": 25920,
          "time": 18.953378999999998,
          "velocity": 0.7874015748031497
        },
        {
          "duration": 0.06849300000000014,
          "durationTicks": 120,
          "midi": 73,
          "name": "C#5",
          "ticks": 26160,
          "time": 19.090365,
          "velocity": 0.7874015748031497
        },
        {
          "duration": 0.27397200000000055,
          "durationTicks": 480,
          "midi": 75,
          "name": "D#5",
          "ticks": 26400,
          "time": 19.227351,
          "velocity": 0.7874015748031497
        },
        {
          "duration": 0.06849300000000014,
          "durationTicks": 120,
          "midi": 73,
          "name": "C#5",
          "ticks": 26880,
          "time": 19.501323,
          "velocity": 0.7874015748031497
        },
        {
          "duration": 0.27397200000000055,
          "durationTicks": 480,
          "midi": 70,
          "name": "A#4",
          "ticks": 27120,
          "time": 19.638309,
          "velocity": 0.7874015748031497
        },
        {
          "duration": 0.06849300000000014,
          "durationTicks": 120,
          "midi": 69,
          "name": "A4",
          "ticks": 27600,
          "time": 19.912281,
          "velocity": 0.7874015748031497
        },
        {
          "duration": 0.06849299999999658,
          "durationTicks": 120,
          "midi": 70,
          "name": "A#4",
          "ticks": 27840,
          "time": 20.049267,
          "velocity": 0.7874015748031497
        },
        {
          "duration": 0.06849299999999658,
          "durationTicks": 120,
          "midi": 69,
          "name": "A4",
          "ticks": 28080,
          "time": 20.186253,
          "velocity": 0.7874015748031497
        },
        {
          "duration": 0.06849299999999658,
          "durationTicks": 120,
          "midi": 70,
          "name": "A#4",
          "ticks": 28320,
          "time": 20.323239,
          "velocity": 0.7874015748031497
        },
        {
          "duration": 0.06849300000000014,
          "durationTicks": 120,
          "midi": 70,
          "name": "A#4",
          "ticks": 28560,
          "time": 20.460224999999998,
          "velocity": 0.7874015748031497
        },
        {
          "duration": 0.06849300000000014,
          "durationTicks": 120,
          "midi": 70,
          "name": "A#4",
          "ticks": 28800,
          "time": 20.597210999999998,
          "velocity": 0.7874015748031497
        },
        {
          "duration": 0.06849300000000014,
          "durationTicks": 120,
          "midi": 70,
          "name": "A#4",
          "ticks": 29040,
          "time": 20.734196999999998,
          "velocity": 0.7874015748031497
        },
        {
          "duration": 0.06849300000000014,
          "durationTicks": 120,
          "midi": 69,
          "name": "A4",
          "ticks": 29280,
          "time": 20.871183,
          "velocity": 0.7874015748031497
        },
        {
          "duration": 0.06849300000000014,
          "durationTicks": 120,
          "midi": 70,
          "name": "A#4",
          "ticks": 29520,
          "time": 21.008169,
          "velocity": 0.7874015748031497
        },
        {
          "duration": 0.06849300000000014,
          "durationTicks": 120,
          "midi": 69,
          "name": "A4",
          "ticks": 29760,
          "time": 21.145155,
          "velocity": 0.7874015748031497
        },
        {
          "duration": 0.06849300000000014,
          "durationTicks": 120,
          "midi": 70,
          "name": "A#4",
          "ticks": 30000,
          "time": 21.282141,
          "velocity": 0.7874015748031497
        },
        {
          "duration": 0.06849300000000014,
          "durationTicks": 120,
          "midi": 71,
          "name": "B4",
          "ticks": 30240,
          "time": 21.419127,
          "velocity": 0.7874015748031497
        },
        {
          "duration": 0.06849300000000369,
          "durationTicks": 120,
          "midi": 70,
          "name": "A#4",
          "ticks": 30480,
          "time": 21.556112999999996,
          "velocity": 0.7874015748031497
        },
        {
          "duration": 0.06849300000000369,
          "durationTicks": 120,
          "midi": 69,
          "name": "A4",
          "ticks": 30720,
          "time": 21.693098999999997,
          "velocity": 0.7874015748031497
        },
        {
          "duration": 0.20547900000000396,
          "durationTicks": 360,
          "midi": 68,
          "name": "G#4",
          "ticks": 30960,
          "time": 21.830084999999997,
          "velocity": 0.7874015748031497
        },
        {
          "duration": 0.06849300000000369,
          "durationTicks": 120,
          "midi": 68,
          "name": "G#4",
          "ticks": 31440,
          "time": 22.104056999999997,
          "velocity": 0.7874015748031497
        },
        {
          "duration": 0.06849300000000369,
          "durationTicks": 120,
          "midi": 68,
          "name": "G#4",
          "ticks": 31680,
          "time": 22.241042999999998,
          "velocity": 0.7874015748031497
        },
        {
          "duration": 0.06849300000000014,
          "durationTicks": 120,
          "midi": 68,
          "name": "G#4",
          "ticks": 31920,
          "time": 22.378028999999998,
          "velocity": 0.7874015748031497
        },
        {
          "duration": 0.06849300000000014,
          "durationTicks": 120,
          "midi": 68,
          "name": "G#4",
          "ticks": 32160,
          "time": 22.515015,
          "velocity": 0.7874015748031497
        },
        {
          "duration": 0.06849300000000014,
          "durationTicks": 120,
          "midi": 67,
          "name": "G4",
          "ticks": 32400,
          "time": 22.652001,
          "velocity": 0.7874015748031497
        },
        {
          "duration": 0.06849300000000014,
          "durationTicks": 120,
          "midi": 66,
          "name": "F#4",
          "ticks": 32640,
          "time": 22.788987,
          "velocity": 0.7874015748031497
        },
        {
          "duration": 0.06849300000000014,
          "durationTicks": 120,
          "midi": 65,
          "name": "F4",
          "ticks": 32880,
          "time": 22.925973,
          "velocity": 0.7874015748031497
        },
        {
          "duration": 0.06849300000000014,
          "durationTicks": 120,
          "midi": 66,
          "name": "F#4",
          "ticks": 33120,
          "time": 23.062959,
          "velocity": 0.7874015748031497
        },
        {
          "duration": 0.06849300000000014,
          "durationTicks": 120,
          "midi": 68,
          "name": "G#4",
          "ticks": 33360,
          "time": 23.199945,
          "velocity": 0.7874015748031497
        },
        {
          "duration": 0.06849299999999658,
          "durationTicks": 120,
          "midi": 71,
          "name": "B4",
          "ticks": 33600,
          "time": 23.336931,
          "velocity": 0.7874015748031497
        },
        {
          "duration": 0.06849299999999658,
          "durationTicks": 120,
          "midi": 70,
          "name": "A#4",
          "ticks": 33840,
          "time": 23.473917,
          "velocity": 0.7874015748031497
        },
        {
          "duration": 0.06849299999999658,
          "durationTicks": 120,
          "midi": 71,
          "name": "B4",
          "ticks": 34080,
          "time": 23.610903,
          "velocity": 0.7874015748031497
        },
        {
          "duration": 0.06849299999999658,
          "durationTicks": 120,
          "midi": 82,
          "name": "A#5",
          "ticks": 78240,
          "time": 55.74365104583333,
          "velocity": 0.7874015748031497
        },
        {
          "duration": 0.06849299999999658,
          "durationTicks": 120,
          "midi": 83,
          "name": "B5",
          "ticks": 78480,
          "time": 55.88063704583333,
          "velocity": 0.7874015748031497
        },
        {
          "duration": 0.06849299999999658,
          "durationTicks": 120,
          "midi": 85,
          "name": "C#6",
          "ticks": 78720,
          "time": 56.01762304583333,
          "velocity": 0.7874015748031497
        },
        {
          "duration": 0.27397200000000055,
          "durationTicks": 480,
          "midi": 66,
          "name": "F#4",
          "ticks": 78960,
          "time": 56.15460904583333,
          "velocity": 0.7874015748031497
        },
        {
          "duration": 0.06849299999999658,
          "durationTicks": 120,
          "midi": 65,
          "name": "F4",
          "ticks": 79440,
          "time": 56.42858104583333,
          "velocity": 0.7874015748031497
        },
        {
          "duration": 0.06849299999999658,
          "durationTicks": 120,
          "midi": 66,
          "name": "F#4",
          "ticks": 79680,
          "time": 56.56556704583333,
          "velocity": 0.7874015748031497
        },
        {
          "duration": 0.06849299999999658,
          "durationTicks": 120,
          "midi": 65,
          "name": "F4",
          "ticks": 79920,
          "time": 56.702553045833334,
          "velocity": 0.7874015748031497
        },
        {
          "duration": 0.06849299999999658,
          "durationTicks": 120,
          "midi": 66,
          "name": "F#4",
          "ticks": 80160,
          "time": 56.839539045833334,
          "velocity": 0.7874015748031497
        },
        {
          "duration": 0.06849299999999658,
          "durationTicks": 120,
          "midi": 65,
          "name": "F4",
          "ticks": 80400,
          "time": 56.976525045833334,
          "velocity": 0.7874015748031497
        },
        {
          "duration": 0.06849299999999658,
          "durationTicks": 120,
          "midi": 66,
          "name": "F#4",
          "ticks": 80640,
          "time": 57.113511045833334,
          "velocity": 0.7874015748031497
        },
        {
          "duration": 0.06849299999999658,
          "durationTicks": 120,
          "midi": 65,
          "name": "F4",
          "ticks": 80880,
          "time": 57.250497045833335,
          "velocity": 0.7874015748031497
        },
        {
          "duration": 0.06849299999999658,
          "durationTicks": 120,
          "midi": 66,
          "name": "F#4",
          "ticks": 81120,
          "time": 57.387483045833335,
          "velocity": 0.7874015748031497
        },
        {
          "duration": 0.06849300000000369,
          "durationTicks": 120,
          "midi": 65,
          "name": "F4",
          "ticks": 81360,
          "time": 57.52446904583333,
          "velocity": 0.7874015748031497
        },
        {
          "duration": 0.06849300000000369,
          "durationTicks": 120,
          "midi": 66,
          "name": "F#4",
          "ticks": 81600,
          "time": 57.66145504583333,
          "velocity": 0.7874015748031497
        },
        {
          "duration": 0.06849300000000369,
          "durationTicks": 120,
          "midi": 65,
          "name": "F4",
          "ticks": 81840,
          "time": 57.79844104583333,
          "velocity": 0.7874015748031497
        },
        {
          "duration": 0.06849300000000369,
          "durationTicks": 120,
          "midi": 66,
          "name": "F#4",
          "ticks": 82080,
          "time": 57.93542704583333,
          "velocity": 0.7874015748031497
        },
        {
          "duration": 0.06849300000000369,
          "durationTicks": 120,
          "midi": 66,
          "name": "F#4",
          "ticks": 82320,
          "time": 58.07241304583333,
          "velocity": 0.7874015748031497
        },
        {
          "duration": 0.06849300000000369,
          "durationTicks": 120,
          "midi": 66,
          "name": "F#4",
          "ticks": 82560,
          "time": 58.20939904583333,
          "velocity": 0.7874015748031497
        },
        {
          "duration": 0.27397200000000055,
          "durationTicks": 480,
          "midi": 66,
          "name": "F#4",
          "ticks": 82800,
          "time": 58.34638504583333,
          "velocity": 0.7874015748031497
        },
        {
          "duration": 0.06849300000000369,
          "durationTicks": 120,
          "midi": 68,
          "name": "G#4",
          "ticks": 83280,
          "time": 58.62035704583333,
          "velocity": 0.7874015748031497
        },
        {
          "duration": 0.06849300000000369,
          "durationTicks": 120,
          "midi": 71,
          "name": "B4",
          "ticks": 83520,
          "time": 58.75734304583333,
          "velocity": 0.7874015748031497
        },
        {
          "duration": 0.06849300000000369,
          "durationTicks": 120,
          "midi": 73,
          "name": "C#5",
          "ticks": 83760,
          "time": 58.89432904583333,
          "velocity": 0.7874015748031497
        },
        {
          "duration": 0.06849300000000369,
          "durationTicks": 120,
          "midi": 66,
          "name": "F#4",
          "ticks": 84000,
          "time": 59.03131504583333,
          "velocity": 0.7874015748031497
        },
        {
          "duration": 0.06849300000000369,
          "durationTicks": 120,
          "midi": 68,
          "name": "G#4",
          "ticks": 84240,
          "time": 59.16830104583333,
          "velocity": 0.7874015748031497
        },
        {
          "duration": 0.06849299999999658,
          "durationTicks": 120,
          "midi": 71,
          "name": "B4",
          "ticks": 84480,
          "time": 59.30528704583333,
          "velocity": 0.7874015748031497
        },
        {
          "duration": 0.06849299999999658,
          "durationTicks": 120,
          "midi": 73,
          "name": "C#5",
          "ticks": 84720,
          "time": 59.44227304583333,
          "velocity": 0.7874015748031497
        },
        {
          "duration": 0.06849299999999658,
          "durationTicks": 120,
          "midi": 66,
          "name": "F#4",
          "ticks": 84960,
          "time": 59.57925904583333,
          "velocity": 0.7874015748031497
        },
        {
          "duration": 0.06849299999999658,
          "durationTicks": 120,
          "midi": 68,
          "name": "G#4",
          "ticks": 85200,
          "time": 59.71624504583333,
          "velocity": 0.7874015748031497
        },
        {
          "duration": 0.06849299999999658,
          "durationTicks": 120,
          "midi": 71,
          "name": "B4",
          "ticks": 85440,
          "time": 59.85323104583333,
          "velocity": 0.7874015748031497
        },
        {
          "duration": 0.06849299999999658,
          "durationTicks": 120,
          "midi": 73,
          "name": "C#5",
          "ticks": 85680,
          "time": 59.99021704583333,
          "velocity": 0.7874015748031497
        },
        {
          "duration": 0.27397200000000055,
          "durationTicks": 480,
          "midi": 75,
          "name": "D#5",
          "ticks": 85920,
          "time": 60.12720304583333,
          "velocity": 0.7874015748031497
        },
        {
          "duration": 0.06849299999999658,
          "durationTicks": 120,
          "midi": 73,
          "name": "C#5",
          "ticks": 86400,
          "time": 60.401175045833334,
          "velocity": 0.7874015748031497
        },
        {
          "duration": 0.27397200000000055,
          "durationTicks": 480,
          "midi": 70,
          "name": "A#4",
          "ticks": 86640,
          "time": 60.538161045833334,
          "velocity": 0.7874015748031497
        },
        {
          "duration": 0.06849299999999658,
          "durationTicks": 120,
          "midi": 69,
          "name": "A4",
          "ticks": 87120,
          "time": 60.812133045833335,
          "velocity": 0.7874015748031497
        },
        {
          "duration": 0.06849300000000369,
          "durationTicks": 120,
          "midi": 70,
          "name": "A#4",
          "ticks": 87360,
          "time": 60.94911904583333,
          "velocity": 0.7874015748031497
        },
        {
          "duration": 0.06849299999999658,
          "durationTicks": 120,
          "midi": 69,
          "name": "A4",
          "ticks": 87600,
          "time": 61.086105045833335,
          "velocity": 0.7874015748031497
        },
        {
          "duration": 0.06849300000000369,
          "durationTicks": 120,
          "midi": 70,
          "name": "A#4",
          "ticks": 87840,
          "time": 61.22309104583333,
          "velocity": 0.7874015748031497
        },
        {
          "duration": 0.06849300000000369,
          "durationTicks": 120,
          "midi": 70,
          "name": "A#4",
          "ticks": 88080,
          "time": 61.36007704583333,
          "velocity": 0.7874015748031497
        },
        {
          "duration": 0.06849300000000369,
          "durationTicks": 120,
          "midi": 70,
          "name": "A#4",
          "ticks": 88320,
          "time": 61.49706304583333,
          "velocity": 0.7874015748031497
        },
        {
          "duration": 0.06849300000000369,
          "durationTicks": 120,
          "midi": 70,
          "name": "A#4",
          "ticks": 88560,
          "time": 61.63404904583333,
          "velocity": 0.7874015748031497
        },
        {
          "duration": 0.06849300000000369,
          "durationTicks": 120,
          "midi": 69,
          "name": "A4",
          "ticks": 88800,
          "time": 61.77103504583333,
          "velocity": 0.7874015748031497
        },
        {
          "duration": 0.06849300000000369,
          "durationTicks": 120,
          "midi": 70,
          "name": "A#4",
          "ticks": 89040,
          "time": 61.90802104583333,
          "velocity": 0.7874015748031497
        },
        {
          "duration": 0.06849300000000369,
          "durationTicks": 120,
          "midi": 69,
          "name": "A4",
          "ticks": 89280,
          "time": 62.04500704583333,
          "velocity": 0.7874015748031497
        },
        {
          "duration": 0.06849300000000369,
          "durationTicks": 120,
          "midi": 70,
          "name": "A#4",
          "ticks": 89520,
          "time": 62.18199304583333,
          "velocity": 0.7874015748031497
        },
        {
          "duration": 0.06849300000000369,
          "durationTicks": 120,
          "midi": 71,
          "name": "B4",
          "ticks": 89760,
          "time": 62.31897904583333,
          "velocity": 0.7874015748031497
        },
        {
          "duration": 0.06849300000000369,
          "durationTicks": 120,
          "midi": 70,
          "name": "A#4",
          "ticks": 90000,
          "time": 62.45596504583333,
          "velocity": 0.7874015748031497
        },
        {
          "duration": 0.06849300000000369,
          "durationTicks": 120,
          "midi": 69,
          "name": "A4",
          "ticks": 90240,
          "time": 62.59295104583333,
          "velocity": 0.7874015748031497
        },
        {
          "duration": 0.20547900000000396,
          "durationTicks": 360,
          "midi": 68,
          "name": "G#4",
          "ticks": 90480,
          "time": 62.72993704583333,
          "velocity": 0.7874015748031497
        },
        {
          "duration": 0.06849299999999658,
          "durationTicks": 120,
          "midi": 68,
          "name": "G#4",
          "ticks": 90960,
          "time": 63.00390904583333,
          "velocity": 0.7874015748031497
        },
        {
          "duration": 0.06849299999999658,
          "durationTicks": 120,
          "midi": 68,
          "name": "G#4",
          "ticks": 91200,
          "time": 63.14089504583333,
          "velocity": 0.7874015748031497
        },
        {
          "duration": 0.06849299999999658,
          "durationTicks": 120,
          "midi": 68,
          "name": "G#4",
          "ticks": 91440,
          "time": 63.27788104583333,
          "velocity": 0.7874015748031497
        },
        {
          "duration": 0.06849299999999658,
          "durationTicks": 120,
          "midi": 68,
          "name": "G#4",
          "ticks": 91680,
          "time": 63.41486704583333,
          "velocity": 0.7874015748031497
        },
        {
          "duration": 0.06849299999999658,
          "durationTicks": 120,
          "midi": 67,
          "name": "G4",
          "ticks": 91920,
          "time": 63.55185304583333,
          "velocity": 0.7874015748031497
        },
        {
          "duration": 0.06849299999999658,
          "durationTicks": 120,
          "midi": 67,
          "name": "G4",
          "ticks": 92160,
          "time": 63.68883904583333,
          "velocity": 0.7874015748031497
        },
        {
          "duration": 0.06849299999999658,
          "durationTicks": 120,
          "midi": 67,
          "name": "G4",
          "ticks": 92400,
          "time": 63.825825045833334,
          "velocity": 0.7874015748031497
        },
        {
          "duration": 0.06849300000000369,
          "durationTicks": 120,
          "midi": 66,
          "name": "F#4",
          "ticks": 92640,
          "time": 63.962811045833334,
          "velocity": 0.7874015748031497
        },
        {
          "duration": 0.06849300000000369,
          "durationTicks": 120,
          "midi": 66,
          "name": "F#4",
          "ticks": 92880,
          "time": 64.09979704583333,
          "velocity": 0.7874015748031497
        },
        {
          "duration": 0.06849299999998948,
          "durationTicks": 120,
          "midi": 66,
          "name": "F#4",
          "ticks": 93120,
          "time": 64.23678304583333,
          "velocity": 0.7874015748031497
        },
        {
          "duration": 0.06849300000000369,
          "durationTicks": 120,
          "midi": 66,
          "name": "F#4",
          "ticks": 93360,
          "time": 64.37376904583333,
          "velocity": 0.7874015748031497
        },
        {
          "duration": 0.06849300000000369,
          "durationTicks": 120,
          "midi": 66,
          "name": "F#4",
          "ticks": 93600,
          "time": 64.51075504583333,
          "velocity": 0.7874015748031497
        },
        {
          "duration": 0.06849300000000369,
          "durationTicks": 120,
          "midi": 66,
          "name": "F#4",
          "ticks": 93840,
          "time": 64.64774104583333,
          "velocity": 0.7874015748031497
        },
        {
          "duration": 0.06849299999998948,
          "durationTicks": 120,
          "midi": 66,
          "name": "F#4",
          "ticks": 94080,
          "time": 64.78472704583334,
          "velocity": 0.7874015748031497
        },
        {
          "duration": 0.27397200000000055,
          "durationTicks": 480,
          "midi": 66,
          "name": "F#4",
          "ticks": 94320,
          "time": 64.92171304583333,
          "velocity": 0.7874015748031497
        },
        {
          "duration": 0.06849300000000369,
          "durationTicks": 120,
          "midi": 65,
          "name": "F4",
          "ticks": 94800,
          "time": 65.19568504583333,
          "velocity": 0.7874015748031497
        },
        {
          "duration": 0.06849299999998948,
          "durationTicks": 120,
          "midi": 66,
          "name": "F#4",
          "ticks": 95040,
          "time": 65.33267104583334,
          "velocity": 0.7874015748031497
        },
        {
          "duration": 0.06849300000000369,
          "durationTicks": 120,
          "midi": 65,
          "name": "F4",
          "ticks": 95280,
          "time": 65.46965704583333,
          "velocity": 0.7874015748031497
        },
        {
          "duration": 0.06849299999998948,
          "durationTicks": 120,
          "midi": 66,
          "name": "F#4",
          "ticks": 95520,
          "time": 65.60664304583334,
          "velocity": 0.7874015748031497
        },
        {
          "duration": 0.06849300000000369,
          "durationTicks": 120,
          "midi": 65,
          "name": "F4",
          "ticks": 95760,
          "time": 65.74362904583333,
          "velocity": 0.7874015748031497
        },
        {
          "duration": 0.06849299999998948,
          "durationTicks": 120,
          "midi": 66,
          "name": "F#4",
          "ticks": 96000,
          "time": 65.88061504583334,
          "velocity": 0.7874015748031497
        },
        {
          "duration": 0.06849300000000369,
          "durationTicks": 120,
          "midi": 65,
          "name": "F4",
          "ticks": 96240,
          "time": 66.01760104583333,
          "velocity": 0.7874015748031497
        },
        {
          "duration": 0.06849300000000369,
          "durationTicks": 120,
          "midi": 66,
          "name": "F#4",
          "ticks": 96480,
          "time": 66.15458704583332,
          "velocity": 0.7874015748031497
        },
        {
          "duration": 0.06849300000000369,
          "durationTicks": 120,
          "midi": 65,
          "name": "F4",
          "ticks": 96720,
          "time": 66.29157304583333,
          "velocity": 0.7874015748031497
        },
        {
          "duration": 0.06849299999998948,
          "durationTicks": 120,
          "midi": 66,
          "name": "F#4",
          "ticks": 96960,
          "time": 66.42855904583334,
          "velocity": 0.7874015748031497
        },
        {
          "duration": 0.06849300000000369,
          "durationTicks": 120,
          "midi": 65,
          "name": "F4",
          "ticks": 97200,
          "time": 66.56554504583333,
          "velocity": 0.7874015748031497
        },
        {
          "duration": 0.06849300000000369,
          "durationTicks": 120,
          "midi": 66,
          "name": "F#4",
          "ticks": 97440,
          "time": 66.70253104583333,
          "velocity": 0.7874015748031497
        },
        {
          "duration": 0.06849300000000369,
          "durationTicks": 120,
          "midi": 66,
          "name": "F#4",
          "ticks": 97680,
          "time": 66.83951704583333,
          "velocity": 0.7874015748031497
        },
        {
          "duration": 0.06849300000000369,
          "durationTicks": 120,
          "midi": 66,
          "name": "F#4",
          "ticks": 97920,
          "time": 66.97650304583333,
          "velocity": 0.7874015748031497
        },
        {
          "duration": 0.27397200000000055,
          "durationTicks": 480,
          "midi": 66,
          "name": "F#4",
          "ticks": 98160,
          "time": 67.11348904583333,
          "velocity": 0.7874015748031497
        },
        {
          "duration": 0.06849300000000369,
          "durationTicks": 120,
          "midi": 68,
          "name": "G#4",
          "ticks": 98640,
          "time": 67.38746104583333,
          "velocity": 0.7874015748031497
        },
        {
          "duration": 0.06849300000000369,
          "durationTicks": 120,
          "midi": 71,
          "name": "B4",
          "ticks": 98880,
          "time": 67.52444704583333,
          "velocity": 0.7874015748031497
        },
        {
          "duration": 0.06849300000000369,
          "durationTicks": 120,
          "midi": 73,
          "name": "C#5",
          "ticks": 99120,
          "time": 67.66143304583333,
          "velocity": 0.7874015748031497
        },
        {
          "duration": 0.06849300000000369,
          "durationTicks": 120,
          "midi": 66,
          "name": "F#4",
          "ticks": 99360,
          "time": 67.79841904583333,
          "velocity": 0.7874015748031497
        },
        {
          "duration": 0.06849299999998948,
          "durationTicks": 120,
          "midi": 68,
          "name": "G#4",
          "ticks": 99600,
          "time": 67.93540504583333,
          "velocity": 0.7874015748031497
        },
        {
          "duration": 0.06849300000000369,
          "durationTicks": 120,
          "midi": 71,
          "name": "B4",
          "ticks": 99840,
          "time": 68.07239104583333,
          "velocity": 0.7874015748031497
        },
        {
          "duration": 0.06849300000000369,
          "durationTicks": 120,
          "midi": 73,
          "name": "C#5",
          "ticks": 100080,
          "time": 68.20937704583334,
          "velocity": 0.7874015748031497
        },
        {
          "duration": 0.06849300000000369,
          "durationTicks": 120,
          "midi": 66,
          "name": "F#4",
          "ticks": 100320,
          "time": 68.34636304583333,
          "velocity": 0.7874015748031497
        },
        {
          "duration": 0.06849299999998948,
          "durationTicks": 120,
          "midi": 68,
          "name": "G#4",
          "ticks": 100560,
          "time": 68.48334904583334,
          "velocity": 0.7874015748031497
        },
        {
          "duration": 0.06849300000000369,
          "durationTicks": 120,
          "midi": 71,
          "name": "B4",
          "ticks": 100800,
          "time": 68.62033504583333,
          "velocity": 0.7874015748031497
        },
        {
          "duration": 0.06849299999998948,
          "durationTicks": 120,
          "midi": 73,
          "name": "C#5",
          "ticks": 101040,
          "time": 68.75732104583334,
          "velocity": 0.7874015748031497
        },
        {
          "duration": 0.27397200000000055,
          "durationTicks": 480,
          "midi": 75,
          "name": "D#5",
          "ticks": 101280,
          "time": 68.89430704583333,
          "velocity": 0.7874015748031497
        },
        {
          "duration": 0.06849300000000369,
          "durationTicks": 120,
          "midi": 73,
          "name": "C#5",
          "ticks": 101760,
          "time": 69.16827904583333,
          "velocity": 0.7874015748031497
        },
        {
          "duration": 0.27397200000000055,
          "durationTicks": 480,
          "midi": 70,
          "name": "A#4",
          "ticks": 102000,
          "time": 69.30526504583334,
          "velocity": 0.7874015748031497
        },
        {
          "duration": 0.06849299999998948,
          "durationTicks": 120,
          "midi": 69,
          "name": "A4",
          "ticks": 102480,
          "time": 69.57923704583334,
          "velocity": 0.7874015748031497
        },
        {
          "duration": 0.06849300000000369,
          "durationTicks": 120,
          "midi": 70,
          "name": "A#4",
          "ticks": 102720,
          "time": 69.71622304583333,
          "velocity": 0.7874015748031497
        },
        {
          "duration": 0.06849300000000369,
          "durationTicks": 120,
          "midi": 69,
          "name": "A4",
          "ticks": 102960,
          "time": 69.85320904583332,
          "velocity": 0.7874015748031497
        },
        {
          "duration": 0.06849300000000369,
          "durationTicks": 120,
          "midi": 70,
          "name": "A#4",
          "ticks": 103200,
          "time": 69.99019504583333,
          "velocity": 0.7874015748031497
        },
        {
          "duration": 0.06849299999998948,
          "durationTicks": 120,
          "midi": 70,
          "name": "A#4",
          "ticks": 103440,
          "time": 70.12718104583334,
          "velocity": 0.7874015748031497
        },
        {
          "duration": 0.06849300000000369,
          "durationTicks": 120,
          "midi": 70,
          "name": "A#4",
          "ticks": 103680,
          "time": 70.26416704583333,
          "velocity": 0.7874015748031497
        },
        {
          "duration": 0.06849300000000369,
          "durationTicks": 120,
          "midi": 70,
          "name": "A#4",
          "ticks": 103920,
          "time": 70.40115304583333,
          "velocity": 0.7874015748031497
        },
        {
          "duration": 0.06849300000000369,
          "durationTicks": 120,
          "midi": 69,
          "name": "A4",
          "ticks": 104160,
          "time": 70.53813904583333,
          "velocity": 0.7874015748031497
        },
        {
          "duration": 0.06849300000000369,
          "durationTicks": 120,
          "midi": 70,
          "name": "A#4",
          "ticks": 104400,
          "time": 70.67512504583333,
          "velocity": 0.7874015748031497
        },
        {
          "duration": 0.06849300000000369,
          "durationTicks": 120,
          "midi": 69,
          "name": "A4",
          "ticks": 104640,
          "time": 70.81211104583333,
          "velocity": 0.7874015748031497
        },
        {
          "duration": 0.06849300000000369,
          "durationTicks": 120,
          "midi": 70,
          "name": "A#4",
          "ticks": 104880,
          "time": 70.94909704583333,
          "velocity": 0.7874015748031497
        },
        {
          "duration": 0.06849299999998948,
          "durationTicks": 120,
          "midi": 71,
          "name": "B4",
          "ticks": 105120,
          "time": 71.08608304583333,
          "velocity": 0.7874015748031497
        },
        {
          "duration": 0.06849300000000369,
          "durationTicks": 120,
          "midi": 70,
          "name": "A#4",
          "ticks": 105360,
          "time": 71.22306904583333,
          "velocity": 0.7874015748031497
        },
        {
          "duration": 0.06849300000000369,
          "durationTicks": 120,
          "midi": 69,
          "name": "A4",
          "ticks": 105600,
          "time": 71.36005504583333,
          "velocity": 0.7874015748031497
        },
        {
          "duration": 0.20547899999999686,
          "durationTicks": 360,
          "midi": 68,
          "name": "G#4",
          "ticks": 105840,
          "time": 71.49704104583333,
          "velocity": 0.7874015748031497
        },
        {
          "duration": 0.06849300000000369,
          "durationTicks": 120,
          "midi": 68,
          "name": "G#4",
          "ticks": 106320,
          "time": 71.77101304583333,
          "velocity": 0.7874015748031497
        },
        {
          "duration": 0.06849300000000369,
          "durationTicks": 120,
          "midi": 68,
          "name": "G#4",
          "ticks": 106560,
          "time": 71.90799904583334,
          "velocity": 0.7874015748031497
        },
        {
          "duration": 0.06849300000000369,
          "durationTicks": 120,
          "midi": 68,
          "name": "G#4",
          "ticks": 106800,
          "time": 72.04498504583333,
          "velocity": 0.7874015748031497
        },
        {
          "duration": 0.06849299999998948,
          "durationTicks": 120,
          "midi": 67,
          "name": "G4",
          "ticks": 107040,
          "time": 72.18197104583334,
          "velocity": 0.7874015748031497
        },
        {
          "duration": 0.06849300000000369,
          "durationTicks": 120,
          "midi": 67,
          "name": "G4",
          "ticks": 107280,
          "time": 72.31895704583333,
          "velocity": 0.7874015748031497
        },
        {
          "duration": 0.06849300000000369,
          "durationTicks": 120,
          "midi": 67,
          "name": "G4",
          "ticks": 107520,
          "time": 72.45594304583332,
          "velocity": 0.7874015748031497
        },
        {
          "duration": 0.06849300000000369,
          "durationTicks": 120,
          "midi": 67,
          "name": "G4",
          "ticks": 107760,
          "time": 72.59292904583333,
          "velocity": 0.7874015748031497
        },
        {
          "duration": 0.06849299999998948,
          "durationTicks": 120,
          "midi": 66,
          "name": "F#4",
          "ticks": 108000,
          "time": 72.72991504583334,
          "velocity": 0.7874015748031497
        },
        {
          "duration": 0.06849300000000369,
          "durationTicks": 120,
          "midi": 68,
          "name": "G#4",
          "ticks": 108240,
          "time": 72.86690104583333,
          "velocity": 0.7874015748031497
        },
        {
          "duration": 0.06849300000000369,
          "durationTicks": 120,
          "midi": 71,
          "name": "B4",
          "ticks": 108480,
          "time": 73.00388704583332,
          "velocity": 0.7874015748031497
        },
        {
          "duration": 0.06849300000000369,
          "durationTicks": 120,
          "midi": 70,
          "name": "A#4",
          "ticks": 108720,
          "time": 73.14087304583333,
          "velocity": 0.7874015748031497
        },
        {
          "duration": 0.06849299999998948,
          "durationTicks": 120,
          "midi": 71,
          "name": "B4",
          "ticks": 108960,
          "time": 73.27785904583334,
          "velocity": 0.7874015748031497
        },
        {
          "duration": 0.06912425000000155,
          "durationTicks": 120,
          "midi": 66,
          "name": "F#4",
          "ticks": 109920,
          "time": 73.82580304583334,
          "velocity": 0.7874015748031497
        },
        {
          "duration": 0.06912425000000155,
          "durationTicks": 120,
          "midi": 66,
          "name": "F#4",
          "ticks": 110160,
          "time": 73.96405154583334,
          "velocity": 0.7874015748031497
        },
        {
          "duration": 0.07317050000000336,
          "durationTicks": 120,
          "midi": 66,
          "name": "F#4",
          "ticks": 110400,
          "time": 74.10230004583335,
          "velocity": 0.7874015748031497
        },
        {
          "duration": 0.07317049999998915,
          "durationTicks": 120,
          "midi": 66,
          "name": "F#4",
          "ticks": 110640,
          "time": 74.24864104583335,
          "velocity": 0.7874015748031497
        },
        {
          "duration": 0.07692299999999364,
          "durationTicks": 120,
          "midi": 66,
          "name": "F#4",
          "ticks": 110880,
          "time": 74.39498204583334,
          "velocity": 0.7874015748031497
        },
        {
          "duration": 0.07692299999999364,
          "durationTicks": 120,
          "midi": 66,
          "name": "F#4",
          "ticks": 111120,
          "time": 74.54882804583335,
          "velocity": 0.7874015748031497
        },
        {
          "duration": 0.0819670000000059,
          "durationTicks": 120,
          "midi": 66,
          "name": "F#4",
          "ticks": 111360,
          "time": 74.70267404583335,
          "velocity": 0.7874015748031497
        },
        {
          "duration": 0.0819670000000059,
          "durationTicks": 120,
          "midi": 66,
          "name": "F#4",
          "ticks": 111600,
          "time": 74.86660804583335,
          "velocity": 0.7874015748031497
        },
        {
          "duration": 0.15232200833334275,
          "durationTicks": 223,
          "midi": 66,
          "name": "F#4",
          "ticks": 111840,
          "time": 75.03054204583334,
          "velocity": 0.7874015748031497
        },
        {
          "duration": 0.10928933333333646,
          "durationTicks": 160,
          "midi": 64,
          "name": "E4",
          "ticks": 112480,
          "time": 75.46769937916667,
          "velocity": 0.7874015748031497
        },
        {
          "duration": 0.14002695833332268,
          "durationTicks": 205,
          "midi": 61,
          "name": "C#4",
          "ticks": 113120,
          "time": 75.90485671250002,
          "velocity": 0.7874015748031497
        },
        {
          "duration": 0.0778686499999992,
          "durationTicks": 114,
          "midi": 60,
          "name": "C4",
          "ticks": 146400,
          "time": 98.63703804583335,
          "velocity": 0.7874015748031497
        },
        {
          "duration": 0.0778686499999992,
          "durationTicks": 114,
          "midi": 62,
          "name": "D4",
          "ticks": 146537,
          "time": 98.73061703750001,
          "velocity": 0.7874015748031497
        },
        {
          "duration": 0.07855170833333602,
          "durationTicks": 115,
          "midi": 63,
          "name": "D#4",
          "ticks": 146674,
          "time": 98.82419602916669,
          "velocity": 0.7874015748031497
        },
        {
          "duration": 0.07855170833333602,
          "durationTicks": 115,
          "midi": 67,
          "name": "G4",
          "ticks": 146811,
          "time": 98.91777502083335,
          "velocity": 0.7874015748031497
        },
        {
          "duration": 0.0778686499999992,
          "durationTicks": 114,
          "midi": 68,
          "name": "G#4",
          "ticks": 146949,
          "time": 99.01203707083334,
          "velocity": 0.7874015748031497
        },
        {
          "duration": 0.0778686499999992,
          "durationTicks": 114,
          "midi": 72,
          "name": "C5",
          "ticks": 147086,
          "time": 99.10561606250002,
          "velocity": 0.7874015748031497
        },
        {
          "duration": 0.0778686499999992,
          "durationTicks": 114,
          "midi": 74,
          "name": "D5",
          "ticks": 147223,
          "time": 99.19919505416668,
          "velocity": 0.7874015748031497
        },
        {
          "duration": 0.0778686499999992,
          "durationTicks": 114,
          "midi": 60,
          "name": "C4",
          "ticks": 147360,
          "time": 99.29277404583334,
          "velocity": 0.7874015748031497
        },
        {
          "duration": 0.0778686499999992,
          "durationTicks": 114,
          "midi": 62,
          "name": "D4",
          "ticks": 147497,
          "time": 99.38635303750002,
          "velocity": 0.7874015748031497
        },
        {
          "duration": 0.07855170833332181,
          "durationTicks": 115,
          "midi": 63,
          "name": "D#4",
          "ticks": 147634,
          "time": 99.47993202916669,
          "velocity": 0.7874015748031497
        },
        {
          "duration": 0.07855170833333602,
          "durationTicks": 115,
          "midi": 67,
          "name": "G4",
          "ticks": 147771,
          "time": 99.57351102083335,
          "velocity": 0.7874015748031497
        },
        {
          "duration": 0.0778686499999992,
          "durationTicks": 114,
          "midi": 68,
          "name": "G#4",
          "ticks": 147909,
          "time": 99.66777307083335,
          "velocity": 0.7874015748031497
        },
        {
          "duration": 0.0778686499999992,
          "durationTicks": 114,
          "midi": 72,
          "name": "C5",
          "ticks": 148046,
          "time": 99.76135206250001,
          "velocity": 0.7874015748031497
        },
        {
          "duration": 0.0778686499999992,
          "durationTicks": 114,
          "midi": 74,
          "name": "D5",
          "ticks": 148183,
          "time": 99.85493105416668,
          "velocity": 0.7874015748031497
        },
        {
          "duration": 0.0778686499999992,
          "durationTicks": 114,
          "midi": 60,
          "name": "C4",
          "ticks": 148320,
          "time": 99.94851004583334,
          "velocity": 0.7874015748031497
        },
        {
          "duration": 0.0778686499999992,
          "durationTicks": 114,
          "midi": 62,
          "name": "D4",
          "ticks": 148457,
          "time": 100.0420890375,
          "velocity": 0.7874015748031497
        },
        {
          "duration": 0.07855170833333602,
          "durationTicks": 115,
          "midi": 63,
          "name": "D#4",
          "ticks": 148594,
          "time": 100.13566802916668,
          "velocity": 0.7874015748031497
        },
        {
          "duration": 0.07855170833332181,
          "durationTicks": 115,
          "midi": 67,
          "name": "G4",
          "ticks": 148731,
          "time": 100.22924702083336,
          "velocity": 0.7874015748031497
        },
        {
          "duration": 0.0778686499999992,
          "durationTicks": 114,
          "midi": 68,
          "name": "G#4",
          "ticks": 148869,
          "time": 100.32350907083335,
          "velocity": 0.7874015748031497
        },
        {
          "duration": 0.0778686499999992,
          "durationTicks": 114,
          "midi": 72,
          "name": "C5",
          "ticks": 149006,
          "time": 100.41708806250001,
          "velocity": 0.7874015748031497
        },
        {
          "duration": 0.0778686499999992,
          "durationTicks": 114,
          "midi": 74,
          "name": "D5",
          "ticks": 149143,
          "time": 100.51066705416667,
          "velocity": 0.7874015748031497
        },
        {
          "duration": 0.0778686499999992,
          "durationTicks": 114,
          "midi": 75,
          "name": "D#5",
          "ticks": 149280,
          "time": 100.60424604583335,
          "velocity": 0.7874015748031497
        },
        {
          "duration": 0.0778686499999992,
          "durationTicks": 114,
          "midi": 74,
          "name": "D5",
          "ticks": 149417,
          "time": 100.69782503750001,
          "velocity": 0.7874015748031497
        },
        {
          "duration": 0.07855170833333602,
          "durationTicks": 115,
          "midi": 72,
          "name": "C5",
          "ticks": 149554,
          "time": 100.79140402916669,
          "velocity": 0.7874015748031497
        },
        {
          "duration": 0.07855170833333602,
          "durationTicks": 115,
          "midi": 68,
          "name": "G#4",
          "ticks": 149691,
          "time": 100.88498302083335,
          "velocity": 0.7874015748031497
        },
        {
          "duration": 0.0778686499999992,
          "durationTicks": 114,
          "midi": 67,
          "name": "G4",
          "ticks": 149829,
          "time": 100.97924507083334,
          "velocity": 0.7874015748031497
        },
        {
          "duration": 0.0778686499999992,
          "durationTicks": 114,
          "midi": 63,
          "name": "D#4",
          "ticks": 149966,
          "time": 101.07282406250002,
          "velocity": 0.7874015748031497
        },
        {
          "duration": 0.0778686499999992,
          "durationTicks": 114,
          "midi": 62,
          "name": "D4",
          "ticks": 150103,
          "time": 101.16640305416668,
          "velocity": 0.7874015748031497
        },
        {
          "duration": 0.0778686499999992,
          "durationTicks": 114,
          "midi": 60,
          "name": "C4",
          "ticks": 150240,
          "time": 101.25998204583334,
          "velocity": 0.7874015748031497
        },
        {
          "duration": 0.0778686499999992,
          "durationTicks": 114,
          "midi": 62,
          "name": "D4",
          "ticks": 150377,
          "time": 101.35356103750001,
          "velocity": 0.7874015748031497
        },
        {
          "duration": 0.07855170833332181,
          "durationTicks": 115,
          "midi": 63,
          "name": "D#4",
          "ticks": 150514,
          "time": 101.44714002916669,
          "velocity": 0.7874015748031497
        },
        {
          "duration": 0.07855170833333602,
          "durationTicks": 115,
          "midi": 67,
          "name": "G4",
          "ticks": 150651,
          "time": 101.54071902083335,
          "velocity": 0.7874015748031497
        },
        {
          "duration": 0.0778686499999992,
          "durationTicks": 114,
          "midi": 68,
          "name": "G#4",
          "ticks": 150789,
          "time": 101.63498107083335,
          "velocity": 0.7874015748031497
        },
        {
          "duration": 0.0778686499999992,
          "durationTicks": 114,
          "midi": 72,
          "name": "C5",
          "ticks": 150926,
          "time": 101.72856006250001,
          "velocity": 0.7874015748031497
        },
        {
          "duration": 0.0778686499999992,
          "durationTicks": 114,
          "midi": 74,
          "name": "D5",
          "ticks": 151063,
          "time": 101.82213905416668,
          "velocity": 0.7874015748031497
        },
        {
          "duration": 0.0778686499999992,
          "durationTicks": 114,
          "midi": 60,
          "name": "C4",
          "ticks": 151200,
          "time": 101.91571804583334,
          "velocity": 0.7874015748031497
        },
        {
          "duration": 0.0778686499999992,
          "durationTicks": 114,
          "midi": 62,
          "name": "D4",
          "ticks": 151337,
          "time": 102.0092970375,
          "velocity": 0.7874015748031497
        },
        {
          "duration": 0.07855170833333602,
          "durationTicks": 115,
          "midi": 63,
          "name": "D#4",
          "ticks": 151474,
          "time": 102.10287602916668,
          "velocity": 0.7874015748031497
        },
        {
          "duration": 0.07855170833332181,
          "durationTicks": 115,
          "midi": 67,
          "name": "G4",
          "ticks": 151611,
          "time": 102.19645502083335,
          "velocity": 0.7874015748031497
        },
        {
          "duration": 0.0778686499999992,
          "durationTicks": 114,
          "midi": 68,
          "name": "G#4",
          "ticks": 151749,
          "time": 102.29071707083335,
          "velocity": 0.7874015748031497
        },
        {
          "duration": 0.0778686499999992,
          "durationTicks": 114,
          "midi": 72,
          "name": "C5",
          "ticks": 151886,
          "time": 102.38429606250001,
          "velocity": 0.7874015748031497
        },
        {
          "duration": 0.0778686499999992,
          "durationTicks": 114,
          "midi": 74,
          "name": "D5",
          "ticks": 152023,
          "time": 102.47787505416667,
          "velocity": 0.7874015748031497
        },
        {
          "duration": 0.0778686499999992,
          "durationTicks": 114,
          "midi": 60,
          "name": "C4",
          "ticks": 152160,
          "time": 102.57145404583335,
          "velocity": 0.7874015748031497
        },
        {
          "duration": 0.0778686499999992,
          "durationTicks": 114,
          "midi": 62,
          "name": "D4",
          "ticks": 152297,
          "time": 102.66503303750001,
          "velocity": 0.7874015748031497
        },
        {
          "duration": 0.07855170833333602,
          "durationTicks": 115,
          "midi": 63,
          "name": "D#4",
          "ticks": 152434,
          "time": 102.75861202916668,
          "velocity": 0.7874015748031497
        },
        {
          "duration": 0.07855170833333602,
          "durationTicks": 115,
          "midi": 67,
          "name": "G4",
          "ticks": 152571,
          "time": 102.85219102083335,
          "velocity": 0.7874015748031497
        },
        {
          "duration": 0.0778686499999992,
          "durationTicks": 114,
          "midi": 68,
          "name": "G#4",
          "ticks": 152709,
          "time": 102.94645307083334,
          "velocity": 0.7874015748031497
        },
        {
          "duration": 0.0778686499999992,
          "durationTicks": 114,
          "midi": 72,
          "name": "C5",
          "ticks": 152846,
          "time": 103.04003206250002,
          "velocity": 0.7874015748031497
        },
        {
          "duration": 0.0778686499999992,
          "durationTicks": 114,
          "midi": 74,
          "name": "D5",
          "ticks": 152983,
          "time": 103.13361105416668,
          "velocity": 0.7874015748031497
        },
        {
          "duration": 0.0778686499999992,
          "durationTicks": 114,
          "midi": 75,
          "name": "D#5",
          "ticks": 153120,
          "time": 103.22719004583334,
          "velocity": 0.7874015748031497
        },
        {
          "duration": 0.0778686499999992,
          "durationTicks": 114,
          "midi": 74,
          "name": "D5",
          "ticks": 153257,
          "time": 103.32076903750001,
          "velocity": 0.7874015748031497
        },
        {
          "duration": 0.07855170833332181,
          "durationTicks": 115,
          "midi": 72,
          "name": "C5",
          "ticks": 153394,
          "time": 103.41434802916669,
          "velocity": 0.7874015748031497
        },
        {
          "duration": 0.07855170833333602,
          "durationTicks": 115,
          "midi": 68,
          "name": "G#4",
          "ticks": 153531,
          "time": 103.50792702083335,
          "velocity": 0.7874015748031497
        },
        {
          "duration": 0.0778686499999992,
          "durationTicks": 114,
          "midi": 67,
          "name": "G4",
          "ticks": 153669,
          "time": 103.60218907083335,
          "velocity": 0.7874015748031497
        },
        {
          "duration": 0.0778686499999992,
          "durationTicks": 114,
          "midi": 63,
          "name": "D#4",
          "ticks": 153806,
          "time": 103.69576806250001,
          "velocity": 0.7874015748031497
        },
        {
          "duration": 0.0778686499999992,
          "durationTicks": 114,
          "midi": 62,
          "name": "D4",
          "ticks": 153943,
          "time": 103.78934705416668,
          "velocity": 0.7874015748031497
        },
        {
          "duration": 0.06625665833333017,
          "durationTicks": 97,
          "midi": 63,
          "name": "D#4",
          "ticks": 154080,
          "time": 103.88292604583334,
          "velocity": 0.7874015748031497
        },
        {
          "duration": 0.06625665833333017,
          "durationTicks": 97,
          "midi": 65,
          "name": "F4",
          "ticks": 154200,
          "time": 103.96489304583335,
          "velocity": 0.7874015748031497
        },
        {
          "duration": 0.06625665833334438,
          "durationTicks": 97,
          "midi": 66,
          "name": "F#4",
          "ticks": 154320,
          "time": 104.04686004583334,
          "velocity": 0.7874015748031497
        },
        {
          "duration": 0.06625665833333017,
          "durationTicks": 97,
          "midi": 70,
          "name": "A#4",
          "ticks": 154440,
          "time": 104.12882704583335,
          "velocity": 0.7874015748031497
        },
        {
          "duration": 0.06625665833333017,
          "durationTicks": 97,
          "midi": 71,
          "name": "B4",
          "ticks": 154560,
          "time": 104.21079404583335,
          "velocity": 0.7874015748031497
        },
        {
          "duration": 0.06625665833334438,
          "durationTicks": 97,
          "midi": 75,
          "name": "D#5",
          "ticks": 154680,
          "time": 104.29276104583334,
          "velocity": 0.7874015748031497
        },
        {
          "duration": 0.06625665833333017,
          "durationTicks": 97,
          "midi": 77,
          "name": "F5",
          "ticks": 154800,
          "time": 104.37472804583335,
          "velocity": 0.7874015748031497
        },
        {
          "duration": 0.06625665833333017,
          "durationTicks": 97,
          "midi": 78,
          "name": "F#5",
          "ticks": 154920,
          "time": 104.45669504583334,
          "velocity": 0.7874015748031497
        },
        {
          "duration": 0.06625665833333017,
          "durationTicks": 97,
          "midi": 63,
          "name": "D#4",
          "ticks": 155040,
          "time": 104.53866204583335,
          "velocity": 0.7874015748031497
        },
        {
          "duration": 0.06625665833334438,
          "durationTicks": 97,
          "midi": 65,
          "name": "F4",
          "ticks": 155160,
          "time": 104.62062904583334,
          "velocity": 0.7874015748031497
        },
        {
          "duration": 0.06625665833333017,
          "durationTicks": 97,
          "midi": 66,
          "name": "F#4",
          "ticks": 155280,
          "time": 104.70259604583335,
          "velocity": 0.7874015748031497
        },
        {
          "duration": 0.06625665833333017,
          "durationTicks": 97,
          "midi": 70,
          "name": "A#4",
          "ticks": 155400,
          "time": 104.78456304583335,
          "velocity": 0.7874015748031497
        },
        {
          "duration": 0.06625665833334438,
          "durationTicks": 97,
          "midi": 71,
          "name": "B4",
          "ticks": 155520,
          "time": 104.86653004583334,
          "velocity": 0.7874015748031497
        },
        {
          "duration": 0.06625665833333017,
          "durationTicks": 97,
          "midi": 75,
          "name": "D#5",
          "ticks": 155640,
          "time": 104.94849704583335,
          "velocity": 0.7874015748031497
        },
        {
          "duration": 0.06625665833333017,
          "durationTicks": 97,
          "midi": 77,
          "name": "F5",
          "ticks": 155760,
          "time": 105.03046404583336,
          "velocity": 0.7874015748031497
        },
        {
          "duration": 0.06625665833333017,
          "durationTicks": 97,
          "midi": 78,
          "name": "F#5",
          "ticks": 155880,
          "time": 105.11243104583335,
          "velocity": 0.7874015748031497
        },
        {
          "duration": 0.06625665833334438,
          "durationTicks": 97,
          "midi": 63,
          "name": "D#4",
          "ticks": 156000,
          "time": 105.19439804583334,
          "velocity": 0.7874015748031497
        },
        {
          "duration": 0.06625665833333017,
          "durationTicks": 97,
          "midi": 65,
          "name": "F4",
          "ticks": 156120,
          "time": 105.27636504583334,
          "velocity": 0.7874015748031497
        },
        {
          "duration": 0.06625665833333017,
          "durationTicks": 97,
          "midi": 66,
          "name": "F#4",
          "ticks": 156240,
          "time": 105.35833204583335,
          "velocity": 0.7874015748031497
        },
        {
          "duration": 0.06625665833334438,
          "durationTicks": 97,
          "midi": 70,
          "name": "A#4",
          "ticks": 156360,
          "time": 105.44029904583334,
          "velocity": 0.7874015748031497
        },
        {
          "duration": 0.06625665833333017,
          "durationTicks": 97,
          "midi": 71,
          "name": "B4",
          "ticks": 156480,
          "time": 105.52226604583335,
          "velocity": 0.7874015748031497
        },
        {
          "duration": 0.06625665833333017,
          "durationTicks": 97,
          "midi": 75,
          "name": "D#5",
          "ticks": 156600,
          "time": 105.60423304583335,
          "velocity": 0.7874015748031497
        },
        {
          "duration": 0.06625665833333017,
          "durationTicks": 97,
          "midi": 77,
          "name": "F5",
          "ticks": 156720,
          "time": 105.68620004583335,
          "velocity": 0.7874015748031497
        },
        {
          "duration": 0.06625665833333017,
          "durationTicks": 97,
          "midi": 78,
          "name": "F#5",
          "ticks": 156840,
          "time": 105.76816704583335,
          "velocity": 0.7874015748031497
        },
        {
          "duration": 0.06625665833333017,
          "durationTicks": 97,
          "midi": 82,
          "name": "A#5",
          "ticks": 156960,
          "time": 105.85013404583334,
          "velocity": 0.7874015748031497
        },
        {
          "duration": 0.06625665833333017,
          "durationTicks": 97,
          "midi": 78,
          "name": "F#5",
          "ticks": 157080,
          "time": 105.93210104583335,
          "velocity": 0.7874015748031497
        },
        {
          "duration": 0.06625665833334438,
          "durationTicks": 97,
          "midi": 77,
          "name": "F5",
          "ticks": 157200,
          "time": 106.01406804583334,
          "velocity": 0.7874015748031497
        },
        {
          "duration": 0.06625665833333017,
          "durationTicks": 97,
          "midi": 75,
          "name": "D#5",
          "ticks": 157320,
          "time": 106.09603504583335,
          "velocity": 0.7874015748031497
        },
        {
          "duration": 0.06625665833333017,
          "durationTicks": 97,
          "midi": 71,
          "name": "B4",
          "ticks": 157440,
          "time": 106.17800204583335,
          "velocity": 0.7874015748031497
        },
        {
          "duration": 0.06625665833334438,
          "durationTicks": 97,
          "midi": 70,
          "name": "A#4",
          "ticks": 157560,
          "time": 106.25996904583334,
          "velocity": 0.7874015748031497
        },
        {
          "duration": 0.06625665833333017,
          "durationTicks": 97,
          "midi": 66,
          "name": "F#4",
          "ticks": 157680,
          "time": 106.34193604583335,
          "velocity": 0.7874015748031497
        },
        {
          "duration": 0.06625665833331595,
          "durationTicks": 97,
          "midi": 65,
          "name": "F4",
          "ticks": 157800,
          "time": 106.42390304583336,
          "velocity": 0.7874015748031497
        },
        {
          "duration": 0.06625665833333017,
          "durationTicks": 97,
          "midi": 63,
          "name": "D#4",
          "ticks": 157920,
          "time": 106.50587004583335,
          "velocity": 0.7874015748031497
        },
        {
          "duration": 0.06625665833334438,
          "durationTicks": 97,
          "midi": 65,
          "name": "F4",
          "ticks": 158040,
          "time": 106.58783704583334,
          "velocity": 0.7874015748031497
        },
        {
          "duration": 0.06625665833333017,
          "durationTicks": 97,
          "midi": 66,
          "name": "F#4",
          "ticks": 158160,
          "time": 106.66980404583335,
          "velocity": 0.7874015748031497
        },
        {
          "duration": 0.06625665833333017,
          "durationTicks": 97,
          "midi": 70,
          "name": "A#4",
          "ticks": 158280,
          "time": 106.75177104583335,
          "velocity": 0.7874015748031497
        },
        {
          "duration": 0.06625665833334438,
          "durationTicks": 97,
          "midi": 71,
          "name": "B4",
          "ticks": 158400,
          "time": 106.83373804583334,
          "velocity": 0.7874015748031497
        },
        {
          "duration": 0.06625665833333017,
          "durationTicks": 97,
          "midi": 75,
          "name": "D#5",
          "ticks": 158520,
          "time": 106.91570504583335,
          "velocity": 0.7874015748031497
        },
        {
          "duration": 0.06625665833331595,
          "durationTicks": 97,
          "midi": 77,
          "name": "F5",
          "ticks": 158640,
          "time": 106.99767204583335,
          "velocity": 0.7874015748031497
        },
        {
          "duration": 0.06625665833334438,
          "durationTicks": 97,
          "midi": 78,
          "name": "F#5",
          "ticks": 158760,
          "time": 107.07963904583335,
          "velocity": 0.7874015748031497
        },
        {
          "duration": 0.030737625000000435,
          "durationTicks": 45,
          "midi": 63,
          "name": "D#4",
          "ticks": 158880,
          "time": 107.16160604583334,
          "velocity": 0.7874015748031497
        },
        {
          "duration": 0.030737625000000435,
          "durationTicks": 45,
          "midi": 65,
          "name": "F4",
          "ticks": 159000,
          "time": 107.24357304583334,
          "velocity": 0.7874015748031497
        },
        {
          "duration": 0.030737625000000435,
          "durationTicks": 45,
          "midi": 66,
          "name": "F#4",
          "ticks": 159120,
          "time": 107.32554004583335,
          "velocity": 0.7874015748031497
        },
        {
          "duration": 0.030737625000000435,
          "durationTicks": 45,
          "midi": 70,
          "name": "A#4",
          "ticks": 159240,
          "time": 107.40750704583334,
          "velocity": 0.7874015748031497
        },
        {
          "duration": 0.030737625000000435,
          "durationTicks": 45,
          "midi": 71,
          "name": "B4",
          "ticks": 159360,
          "time": 107.48947404583335,
          "velocity": 0.7874015748031497
        },
        {
          "duration": 0.030737625000000435,
          "durationTicks": 45,
          "midi": 75,
          "name": "D#5",
          "ticks": 159480,
          "time": 107.57144104583335,
          "velocity": 0.7874015748031497
        },
        {
          "duration": 0.030737625000000435,
          "durationTicks": 45,
          "midi": 77,
          "name": "F5",
          "ticks": 159600,
          "time": 107.65340804583334,
          "velocity": 0.7874015748031497
        },
        {
          "duration": 0.030737625000000435,
          "durationTicks": 45,
          "midi": 78,
          "name": "F#5",
          "ticks": 159720,
          "time": 107.73537504583334,
          "velocity": 0.7874015748031497
        },
        {
          "duration": 0.06625665833331595,
          "durationTicks": 97,
          "midi": 63,
          "name": "D#4",
          "ticks": 159840,
          "time": 107.81734204583336,
          "velocity": 0.7874015748031497
        },
        {
          "duration": 0.06625665833333017,
          "durationTicks": 97,
          "midi": 65,
          "name": "F4",
          "ticks": 159960,
          "time": 107.89930904583335,
          "velocity": 0.7874015748031497
        },
        {
          "duration": 0.06625665833334438,
          "durationTicks": 97,
          "midi": 66,
          "name": "F#4",
          "ticks": 160080,
          "time": 107.98127604583334,
          "velocity": 0.7874015748031497
        },
        {
          "duration": 0.06625665833333017,
          "durationTicks": 97,
          "midi": 70,
          "name": "A#4",
          "ticks": 160200,
          "time": 108.06324304583335,
          "velocity": 0.7874015748031497
        },
        {
          "duration": 0.06625665833333017,
          "durationTicks": 97,
          "midi": 71,
          "name": "B4",
          "ticks": 160320,
          "time": 108.14521004583335,
          "velocity": 0.7874015748031497
        },
        {
          "duration": 0.06625665833334438,
          "durationTicks": 97,
          "midi": 75,
          "name": "D#5",
          "ticks": 160440,
          "time": 108.22717704583334,
          "velocity": 0.7874015748031497
        },
        {
          "duration": 0.06625665833333017,
          "durationTicks": 97,
          "midi": 77,
          "name": "F5",
          "ticks": 160560,
          "time": 108.30914404583335,
          "velocity": 0.7874015748031497
        },
        {
          "duration": 0.06625665833331595,
          "durationTicks": 97,
          "midi": 78,
          "name": "F#5",
          "ticks": 160680,
          "time": 108.39111104583336,
          "velocity": 0.7874015748031497
        },
        {
          "duration": 0.06625665833333017,
          "durationTicks": 97,
          "midi": 82,
          "name": "A#5",
          "ticks": 160800,
          "time": 108.47307804583335,
          "velocity": 0.7874015748031497
        },
        {
          "duration": 0.06625665833334438,
          "durationTicks": 97,
          "midi": 78,
          "name": "F#5",
          "ticks": 160920,
          "time": 108.55504504583334,
          "velocity": 0.7874015748031497
        },
        {
          "duration": 0.06625665833333017,
          "durationTicks": 97,
          "midi": 77,
          "name": "F5",
          "ticks": 161040,
          "time": 108.63701204583334,
          "velocity": 0.7874015748031497
        },
        {
          "duration": 0.06625665833333017,
          "durationTicks": 97,
          "midi": 75,
          "name": "D#5",
          "ticks": 161160,
          "time": 108.71897904583335,
          "velocity": 0.7874015748031497
        },
        {
          "duration": 0.06625665833334438,
          "durationTicks": 97,
          "midi": 71,
          "name": "B4",
          "ticks": 161280,
          "time": 108.80094604583334,
          "velocity": 0.7874015748031497
        },
        {
          "duration": 0.06625665833333017,
          "durationTicks": 97,
          "midi": 70,
          "name": "A#4",
          "ticks": 161400,
          "time": 108.88291304583335,
          "velocity": 0.7874015748031497
        },
        {
          "duration": 0.06625665833333017,
          "durationTicks": 97,
          "midi": 66,
          "name": "F#4",
          "ticks": 161520,
          "time": 108.96488004583335,
          "velocity": 0.7874015748031497
        },
        {
          "duration": 0.06625665833334438,
          "durationTicks": 97,
          "midi": 65,
          "name": "F4",
          "ticks": 161640,
          "time": 109.04684704583335,
          "velocity": 0.7874015748031497
        },
        {
          "duration": 0.0819670000000059,
          "durationTicks": 120,
          "midi": 70,
          "name": "A#4",
          "ticks": 164160,
          "time": 110.76815404583334,
          "velocity": 0.7874015748031497
        },
        {
          "duration": 0.08196699999999169,
          "durationTicks": 120,
          "midi": 70,
          "name": "A#4",
          "ticks": 164400,
          "time": 110.93208804583335,
          "velocity": 0.7874015748031497
        },
        {
          "duration": 0.08196700000002011,
          "durationTicks": 120,
          "midi": 66,
          "name": "F#4",
          "ticks": 164640,
          "time": 111.09602204583334,
          "velocity": 0.7874015748031497
        },
        {
          "duration": 0.08196699999999169,
          "durationTicks": 120,
          "midi": 66,
          "name": "F#4",
          "ticks": 164880,
          "time": 111.25995604583335,
          "velocity": 0.7874015748031497
        },
        {
          "duration": 0.0819670000000059,
          "durationTicks": 120,
          "midi": 66,
          "name": "F#4",
          "ticks": 165120,
          "time": 111.42389004583335,
          "velocity": 0.7874015748031497
        },
        {
          "duration": 0.05882350000000258,
          "durationTicks": 120,
          "midi": 68,
          "name": "G#4",
          "ticks": 176160,
          "time": 119.15112804583336,
          "velocity": 0.7874015748031497
        },
        {
          "duration": 0.05882349999998837,
          "durationTicks": 120,
          "midi": 68,
          "name": "G#4",
          "ticks": 176400,
          "time": 119.26877504583337,
          "velocity": 0.7874015748031497
        },
        {
          "duration": 0.05882350000000258,
          "durationTicks": 120,
          "midi": 68,
          "name": "G#4",
          "ticks": 176640,
          "time": 119.38642204583336,
          "velocity": 0.7874015748031497
        },
        {
          "duration": 0.2181810000000013,
          "durationTicks": 480,
          "midi": 68,
          "name": "G#4",
          "ticks": 176880,
          "time": 119.50406904583336,
          "velocity": 0.7874015748031497
        },
        {
          "duration": 0.054545250000003875,
          "durationTicks": 120,
          "midi": 67,
          "name": "G4",
          "ticks": 177360,
          "time": 119.72225004583336,
          "velocity": 0.7874015748031497
        },
        {
          "duration": 0.054545250000003875,
          "durationTicks": 120,
          "midi": 68,
          "name": "G#4",
          "ticks": 177600,
          "time": 119.83134054583336,
          "velocity": 0.7874015748031497
        },
        {
          "duration": 0.054545250000003875,
          "durationTicks": 120,
          "midi": 67,
          "name": "G4",
          "ticks": 177840,
          "time": 119.94043104583336,
          "velocity": 0.7874015748031497
        },
        {
          "duration": 0.054545250000003875,
          "durationTicks": 120,
          "midi": 68,
          "name": "G#4",
          "ticks": 178080,
          "time": 120.04952154583336,
          "velocity": 0.7874015748031497
        },
        {
          "duration": 0.054545249999989665,
          "durationTicks": 120,
          "midi": 67,
          "name": "G4",
          "ticks": 178320,
          "time": 120.15861204583337,
          "velocity": 0.7874015748031497
        },
        {
          "duration": 0.054545250000003875,
          "durationTicks": 120,
          "midi": 68,
          "name": "G#4",
          "ticks": 178560,
          "time": 120.26770254583336,
          "velocity": 0.7874015748031497
        },
        {
          "duration": 0.054545249999989665,
          "durationTicks": 120,
          "midi": 67,
          "name": "G4",
          "ticks": 178800,
          "time": 120.37679304583337,
          "velocity": 0.7874015748031497
        },
        {
          "duration": 0.054545250000003875,
          "durationTicks": 120,
          "midi": 68,
          "name": "G#4",
          "ticks": 179040,
          "time": 120.48588354583336,
          "velocity": 0.7874015748031497
        },
        {
          "duration": 0.054545249999989665,
          "durationTicks": 120,
          "midi": 67,
          "name": "G4",
          "ticks": 179280,
          "time": 120.59497404583337,
          "velocity": 0.7874015748031497
        },
        {
          "duration": 0.054545250000003875,
          "durationTicks": 120,
          "midi": 68,
          "name": "G#4",
          "ticks": 179520,
          "time": 120.70406454583336,
          "velocity": 0.7874015748031497
        },
        {
          "duration": 0.054545250000003875,
          "durationTicks": 120,
          "midi": 67,
          "name": "G4",
          "ticks": 179760,
          "time": 120.81315504583335,
          "velocity": 0.7874015748031497
        },
        {
          "duration": 0.054545250000003875,
          "durationTicks": 120,
          "midi": 68,
          "name": "G#4",
          "ticks": 180000,
          "time": 120.92224554583336,
          "velocity": 0.7874015748031497
        },
        {
          "duration": 0.054545250000003875,
          "durationTicks": 120,
          "midi": 68,
          "name": "G#4",
          "ticks": 180240,
          "time": 121.03133604583336,
          "velocity": 0.7874015748031497
        },
        {
          "duration": 0.054545250000003875,
          "durationTicks": 120,
          "midi": 68,
          "name": "G#4",
          "ticks": 180480,
          "time": 121.14042654583336,
          "velocity": 0.7874015748031497
        },
        {
          "duration": 0.2181810000000013,
          "durationTicks": 480,
          "midi": 68,
          "name": "G#4",
          "ticks": 180720,
          "time": 121.24951704583336,
          "velocity": 0.7874015748031497
        },
        {
          "duration": 0.054545250000003875,
          "durationTicks": 120,
          "midi": 70,
          "name": "A#4",
          "ticks": 181200,
          "time": 121.46769804583336,
          "velocity": 0.7874015748031497
        },
        {
          "duration": 0.054545249999989665,
          "durationTicks": 120,
          "midi": 73,
          "name": "C#5",
          "ticks": 181440,
          "time": 121.57678854583337,
          "velocity": 0.7874015748031497
        },
        {
          "duration": 0.054545250000003875,
          "durationTicks": 120,
          "midi": 75,
          "name": "D#5",
          "ticks": 181680,
          "time": 121.68587904583336,
          "velocity": 0.7874015748031497
        },
        {
          "duration": 0.054545249999989665,
          "durationTicks": 120,
          "midi": 68,
          "name": "G#4",
          "ticks": 181920,
          "time": 121.79496954583337,
          "velocity": 0.7874015748031497
        },
        {
          "duration": 0.054545250000003875,
          "durationTicks": 120,
          "midi": 70,
          "name": "A#4",
          "ticks": 182160,
          "time": 121.90406004583336,
          "velocity": 0.7874015748031497
        },
        {
          "duration": 0.054545250000003875,
          "durationTicks": 120,
          "midi": 73,
          "name": "C#5",
          "ticks": 182400,
          "time": 122.01315054583335,
          "velocity": 0.7874015748031497
        },
        {
          "duration": 0.054545250000003875,
          "durationTicks": 120,
          "midi": 75,
          "name": "D#5",
          "ticks": 182640,
          "time": 122.12224104583336,
          "velocity": 0.7874015748031497
        },
        {
          "duration": 0.054545250000003875,
          "durationTicks": 120,
          "midi": 68,
          "name": "G#4",
          "ticks": 182880,
          "time": 122.23133154583336,
          "velocity": 0.7874015748031497
        },
        {
          "duration": 0.054545250000003875,
          "durationTicks": 120,
          "midi": 70,
          "name": "A#4",
          "ticks": 183120,
          "time": 122.34042204583336,
          "velocity": 0.7874015748031497
        },
        {
          "duration": 0.054545250000003875,
          "durationTicks": 120,
          "midi": 73,
          "name": "C#5",
          "ticks": 183360,
          "time": 122.44951254583336,
          "velocity": 0.7874015748031497
        },
        {
          "duration": 0.054545249999989665,
          "durationTicks": 120,
          "midi": 75,
          "name": "D#5",
          "ticks": 183600,
          "time": 122.55860304583337,
          "velocity": 0.7874015748031497
        },
        {
          "duration": 0.2181810000000013,
          "durationTicks": 480,
          "midi": 77,
          "name": "F5",
          "ticks": 183840,
          "time": 122.66769354583336,
          "velocity": 0.7874015748031497
        },
        {
          "duration": 0.054545250000003875,
          "durationTicks": 120,
          "midi": 75,
          "name": "D#5",
          "ticks": 184320,
          "time": 122.88587454583336,
          "velocity": 0.7874015748031497
        },
        {
          "duration": 0.21818099999998708,
          "durationTicks": 480,
          "midi": 72,
          "name": "C5",
          "ticks": 184560,
          "time": 122.99496504583337,
          "velocity": 0.7874015748031497
        },
        {
          "duration": 0.054545250000003875,
          "durationTicks": 120,
          "midi": 71,
          "name": "B4",
          "ticks": 185040,
          "time": 123.21314604583335,
          "velocity": 0.7874015748031497
        },
        {
          "duration": 0.054545250000003875,
          "durationTicks": 120,
          "midi": 72,
          "name": "C5",
          "ticks": 185280,
          "time": 123.32223654583336,
          "velocity": 0.7874015748031497
        },
        {
          "duration": 0.054545250000003875,
          "durationTicks": 120,
          "midi": 71,
          "name": "B4",
          "ticks": 185520,
          "time": 123.43132704583336,
          "velocity": 0.7874015748031497
        },
        {
          "duration": 0.054545250000003875,
          "durationTicks": 120,
          "midi": 72,
          "name": "C5",
          "ticks": 185760,
          "time": 123.54041754583336,
          "velocity": 0.7874015748031497
        },
        {
          "duration": 0.054545250000003875,
          "durationTicks": 120,
          "midi": 72,
          "name": "C5",
          "ticks": 186000,
          "time": 123.64950804583336,
          "velocity": 0.7874015748031497
        },
        {
          "duration": 0.054545249999989665,
          "durationTicks": 120,
          "midi": 72,
          "name": "C5",
          "ticks": 186240,
          "time": 123.75859854583337,
          "velocity": 0.7874015748031497
        },
        {
          "duration": 0.054545250000003875,
          "durationTicks": 120,
          "midi": 72,
          "name": "C5",
          "ticks": 186480,
          "time": 123.86768904583336,
          "velocity": 0.7874015748031497
        },
        {
          "duration": 0.054545249999989665,
          "durationTicks": 120,
          "midi": 71,
          "name": "B4",
          "ticks": 186720,
          "time": 123.97677954583337,
          "velocity": 0.7874015748031497
        },
        {
          "duration": 0.054545250000003875,
          "durationTicks": 120,
          "midi": 72,
          "name": "C5",
          "ticks": 186960,
          "time": 124.08587004583336,
          "velocity": 0.7874015748031497
        },
        {
          "duration": 0.054545249999989665,
          "durationTicks": 120,
          "midi": 71,
          "name": "B4",
          "ticks": 187200,
          "time": 124.19496054583337,
          "velocity": 0.7874015748031497
        },
        {
          "duration": 0.054545250000003875,
          "durationTicks": 120,
          "midi": 72,
          "name": "C5",
          "ticks": 187440,
          "time": 124.30405104583336,
          "velocity": 0.7874015748031497
        },
        {
          "duration": 0.054545250000003875,
          "durationTicks": 120,
          "midi": 73,
          "name": "C#5",
          "ticks": 187680,
          "time": 124.41314154583335,
          "velocity": 0.7874015748031497
        },
        {
          "duration": 0.054545250000003875,
          "durationTicks": 120,
          "midi": 72,
          "name": "C5",
          "ticks": 187920,
          "time": 124.52223204583336,
          "velocity": 0.7874015748031497
        },
        {
          "duration": 0.054545250000003875,
          "durationTicks": 120,
          "midi": 71,
          "name": "B4",
          "ticks": 188160,
          "time": 124.63132254583336,
          "velocity": 0.7874015748031497
        },
        {
          "duration": 0.16363574999999742,
          "durationTicks": 360,
          "midi": 70,
          "name": "A#4",
          "ticks": 188400,
          "time": 124.74041304583336,
          "velocity": 0.7874015748031497
        },
        {
          "duration": 0.054545249999989665,
          "durationTicks": 120,
          "midi": 70,
          "name": "A#4",
          "ticks": 188880,
          "time": 124.95859404583337,
          "velocity": 0.7874015748031497
        },
        {
          "duration": 0.054545250000003875,
          "durationTicks": 120,
          "midi": 70,
          "name": "A#4",
          "ticks": 189120,
          "time": 125.06768454583336,
          "velocity": 0.7874015748031497
        },
        {
          "duration": 0.054545249999989665,
          "durationTicks": 120,
          "midi": 70,
          "name": "A#4",
          "ticks": 189360,
          "time": 125.17677504583337,
          "velocity": 0.7874015748031497
        },
        {
          "duration": 0.054545250000003875,
          "durationTicks": 120,
          "midi": 70,
          "name": "A#4",
          "ticks": 189600,
          "time": 125.28586554583336,
          "velocity": 0.7874015748031497
        },
        {
          "duration": 0.054545249999989665,
          "durationTicks": 120,
          "midi": 69,
          "name": "A4",
          "ticks": 189840,
          "time": 125.39495604583337,
          "velocity": 0.7874015748031497
        },
        {
          "duration": 0.054545250000003875,
          "durationTicks": 120,
          "midi": 69,
          "name": "A4",
          "ticks": 190080,
          "time": 125.50404654583336,
          "velocity": 0.7874015748031497
        },
        {
          "duration": 0.054545250000003875,
          "durationTicks": 120,
          "midi": 69,
          "name": "A4",
          "ticks": 190320,
          "time": 125.61313704583335,
          "velocity": 0.7874015748031497
        },
        {
          "duration": 0.04999999999999716,
          "durationTicks": 120,
          "midi": 68,
          "name": "G#4",
          "ticks": 190560,
          "time": 125.72222754583336,
          "velocity": 0.7874015748031497
        },
        {
          "duration": 0.05000000000001137,
          "durationTicks": 120,
          "midi": 68,
          "name": "G#4",
          "ticks": 190800,
          "time": 125.82222754583336,
          "velocity": 0.7874015748031497
        },
        {
          "duration": 0.04999999999999716,
          "durationTicks": 120,
          "midi": 68,
          "name": "G#4",
          "ticks": 191040,
          "time": 125.92222754583337,
          "velocity": 0.7874015748031497
        },
        {
          "duration": 0.04999999999999716,
          "durationTicks": 120,
          "midi": 68,
          "name": "G#4",
          "ticks": 191280,
          "time": 126.02222754583336,
          "velocity": 0.7874015748031497
        },
        {
          "duration": 0.04999999999999716,
          "durationTicks": 120,
          "midi": 68,
          "name": "G#4",
          "ticks": 191520,
          "time": 126.12222754583337,
          "velocity": 0.7874015748031497
        },
        {
          "duration": 0.04999999999999716,
          "durationTicks": 120,
          "midi": 68,
          "name": "G#4",
          "ticks": 191760,
          "time": 126.22222754583336,
          "velocity": 0.7874015748031497
        },
        {
          "duration": 0.05000000000001137,
          "durationTicks": 120,
          "midi": 68,
          "name": "G#4",
          "ticks": 192000,
          "time": 126.32222754583336,
          "velocity": 0.7874015748031497
        },
        {
          "duration": 0.19061489166666945,
          "durationTicks": 480,
          "midi": 68,
          "name": "G#4",
          "ticks": 192240,
          "time": 126.42222754583337,
          "velocity": 0.7874015748031497
        },
        {
          "duration": 0.04761899999999741,
          "durationTicks": 120,
          "midi": 67,
          "name": "G4",
          "ticks": 192720,
          "time": 126.61284243750003,
          "velocity": 0.7874015748031497
        },
        {
          "duration": 0.04761899999999741,
          "durationTicks": 120,
          "midi": 68,
          "name": "G#4",
          "ticks": 192960,
          "time": 126.70808043750003,
          "velocity": 0.7874015748031497
        },
        {
          "duration": 0.047619000000011624,
          "durationTicks": 120,
          "midi": 67,
          "name": "G4",
          "ticks": 193200,
          "time": 126.80331843750002,
          "velocity": 0.7874015748031497
        },
        {
          "duration": 0.04761899999999741,
          "durationTicks": 120,
          "midi": 68,
          "name": "G#4",
          "ticks": 193440,
          "time": 126.89855643750003,
          "velocity": 0.7874015748031497
        },
        {
          "duration": 0.04761899999999741,
          "durationTicks": 120,
          "midi": 67,
          "name": "G4",
          "ticks": 193680,
          "time": 126.99379443750003,
          "velocity": 0.7874015748031497
        },
        {
          "duration": 0.047619000000011624,
          "durationTicks": 120,
          "midi": 68,
          "name": "G#4",
          "ticks": 193920,
          "time": 127.08903243750002,
          "velocity": 0.7874015748031497
        },
        {
          "duration": 0.04761899999999741,
          "durationTicks": 120,
          "midi": 67,
          "name": "G4",
          "ticks": 194160,
          "time": 127.18427043750003,
          "velocity": 0.7874015748031497
        },
        {
          "duration": 0.04761899999999741,
          "durationTicks": 120,
          "midi": 68,
          "name": "G#4",
          "ticks": 194400,
          "time": 127.27950843750003,
          "velocity": 0.7874015748031497
        },
        {
          "duration": 0.04761899999999741,
          "durationTicks": 120,
          "midi": 67,
          "name": "G4",
          "ticks": 194640,
          "time": 127.37474643750004,
          "velocity": 0.7874015748031497
        },
        {
          "duration": 0.04761899999999741,
          "durationTicks": 120,
          "midi": 68,
          "name": "G#4",
          "ticks": 194880,
          "time": 127.46998443750003,
          "velocity": 0.7874015748031497
        },
        {
          "duration": 0.04761899999999741,
          "durationTicks": 120,
          "midi": 67,
          "name": "G4",
          "ticks": 195120,
          "time": 127.56522243750003,
          "velocity": 0.7874015748031497
        },
        {
          "duration": 0.04761899999999741,
          "durationTicks": 120,
          "midi": 68,
          "name": "G#4",
          "ticks": 195360,
          "time": 127.66046043750003,
          "velocity": 0.7874015748031497
        },
        {
          "duration": 0.04761899999999741,
          "durationTicks": 120,
          "midi": 68,
          "name": "G#4",
          "ticks": 195600,
          "time": 127.75569843750003,
          "velocity": 0.7874015748031497
        },
        {
          "duration": 0.047619000000011624,
          "durationTicks": 120,
          "midi": 68,
          "name": "G#4",
          "ticks": 195840,
          "time": 127.85093643750002,
          "velocity": 0.7874015748031497
        },
        {
          "duration": 0.19047600000000386,
          "durationTicks": 480,
          "midi": 68,
          "name": "G#4",
          "ticks": 196080,
          "time": 127.94617443750003,
          "velocity": 0.7874015748031497
        },
        {
          "duration": 0.04761899999999741,
          "durationTicks": 120,
          "midi": 70,
          "name": "A#4",
          "ticks": 196560,
          "time": 128.13665043750004,
          "velocity": 0.7874015748031497
        },
        {
          "duration": 0.04761899999999741,
          "durationTicks": 120,
          "midi": 73,
          "name": "C#5",
          "ticks": 196800,
          "time": 128.23188843750003,
          "velocity": 0.7874015748031497
        },
        {
          "duration": 0.04761899999999741,
          "durationTicks": 120,
          "midi": 75,
          "name": "D#5",
          "ticks": 197040,
          "time": 128.32712643750003,
          "velocity": 0.7874015748031497
        },
        {
          "duration": 0.04761899999999741,
          "durationTicks": 120,
          "midi": 68,
          "name": "G#4",
          "ticks": 197280,
          "time": 128.42236443750002,
          "velocity": 0.7874015748031497
        },
        {
          "duration": 0.047619000000025835,
          "durationTicks": 120,
          "midi": 70,
          "name": "A#4",
          "ticks": 197520,
          "time": 128.51760243750002,
          "velocity": 0.7874015748031497
        },
        {
          "duration": 0.04761899999999741,
          "durationTicks": 120,
          "midi": 73,
          "name": "C#5",
          "ticks": 197760,
          "time": 128.61284043750004,
          "velocity": 0.7874015748031497
        },
        {
          "duration": 0.04761899999999741,
          "durationTicks": 120,
          "midi": 75,
          "name": "D#5",
          "ticks": 198000,
          "time": 128.70807843750003,
          "velocity": 0.7874015748031497
        },
        {
          "duration": 0.04761899999999741,
          "durationTicks": 120,
          "midi": 68,
          "name": "G#4",
          "ticks": 198240,
          "time": 128.80331643750003,
          "velocity": 0.7874015748031497
        },
        {
          "duration": 0.04761899999999741,
          "durationTicks": 120,
          "midi": 70,
          "name": "A#4",
          "ticks": 198480,
          "time": 128.89855443750002,
          "velocity": 0.7874015748031497
        },
        {
          "duration": 0.04761899999999741,
          "durationTicks": 120,
          "midi": 73,
          "name": "C#5",
          "ticks": 198720,
          "time": 128.99379243750002,
          "velocity": 0.7874015748031497
        },
        {
          "duration": 0.04761899999999741,
          "durationTicks": 120,
          "midi": 75,
          "name": "D#5",
          "ticks": 198960,
          "time": 129.08903043750004,
          "velocity": 0.7874015748031497
        },
        {
          "duration": 0.19047599999998965,
          "durationTicks": 480,
          "midi": 77,
          "name": "F5",
          "ticks": 199200,
          "time": 129.18426843750004,
          "velocity": 0.7874015748031497
        },
        {
          "duration": 0.04761899999999741,
          "durationTicks": 120,
          "midi": 75,
          "name": "D#5",
          "ticks": 199680,
          "time": 129.37474443750003,
          "velocity": 0.7874015748031497
        },
        {
          "duration": 0.19047600000001808,
          "durationTicks": 480,
          "midi": 72,
          "name": "C5",
          "ticks": 199920,
          "time": 129.46998243750002,
          "velocity": 0.7874015748031497
        },
        {
          "duration": 0.04761899999999741,
          "durationTicks": 120,
          "midi": 71,
          "name": "B4",
          "ticks": 200400,
          "time": 129.66045843750004,
          "velocity": 0.7874015748031497
        },
        {
          "duration": 0.04761899999999741,
          "durationTicks": 120,
          "midi": 72,
          "name": "C5",
          "ticks": 200640,
          "time": 129.75569643750003,
          "velocity": 0.7874015748031497
        },
        {
          "duration": 0.04761899999999741,
          "durationTicks": 120,
          "midi": 71,
          "name": "B4",
          "ticks": 200880,
          "time": 129.85093443750003,
          "velocity": 0.7874015748031497
        },
        {
          "duration": 0.04761899999999741,
          "durationTicks": 120,
          "midi": 72,
          "name": "C5",
          "ticks": 201120,
          "time": 129.94617243750002,
          "velocity": 0.7874015748031497
        },
        {
          "duration": 0.04761899999999741,
          "durationTicks": 120,
          "midi": 72,
          "name": "C5",
          "ticks": 201360,
          "time": 130.04141043750002,
          "velocity": 0.7874015748031497
        },
        {
          "duration": 0.04761899999999741,
          "durationTicks": 120,
          "midi": 72,
          "name": "C5",
          "ticks": 201600,
          "time": 130.13664843750004,
          "velocity": 0.7874015748031497
        },
        {
          "duration": 0.04761899999999741,
          "durationTicks": 120,
          "midi": 72,
          "name": "C5",
          "ticks": 201840,
          "time": 130.23188643750004,
          "velocity": 0.7874015748031497
        },
        {
          "duration": 0.04761899999999741,
          "durationTicks": 120,
          "midi": 71,
          "name": "B4",
          "ticks": 202080,
          "time": 130.32712443750003,
          "velocity": 0.7874015748031497
        },
        {
          "duration": 0.04761899999999741,
          "durationTicks": 120,
          "midi": 72,
          "name": "C5",
          "ticks": 202320,
          "time": 130.42236243750003,
          "velocity": 0.7874015748031497
        },
        {
          "duration": 0.04761899999999741,
          "durationTicks": 120,
          "midi": 71,
          "name": "B4",
          "ticks": 202560,
          "time": 130.51760043750002,
          "velocity": 0.7874015748031497
        },
        {
          "duration": 0.047619000000025835,
          "durationTicks": 120,
          "midi": 72,
          "name": "C5",
          "ticks": 202800,
          "time": 130.61283843750002,
          "velocity": 0.7874015748031497
        },
        {
          "duration": 0.04761899999999741,
          "durationTicks": 120,
          "midi": 73,
          "name": "C#5",
          "ticks": 203040,
          "time": 130.70807643750004,
          "velocity": 0.7874015748031497
        },
        {
          "duration": 0.04761899999999741,
          "durationTicks": 120,
          "midi": 72,
          "name": "C5",
          "ticks": 203280,
          "time": 130.80331443750003,
          "velocity": 0.7874015748031497
        },
        {
          "duration": 0.04761899999999741,
          "durationTicks": 120,
          "midi": 71,
          "name": "B4",
          "ticks": 203520,
          "time": 130.89855243750003,
          "velocity": 0.7874015748031497
        },
        {
          "duration": 0.14285699999999224,
          "durationTicks": 360,
          "midi": 70,
          "name": "A#4",
          "ticks": 203760,
          "time": 130.99379043750002,
          "velocity": 0.7874015748031497
        },
        {
          "duration": 0.04761899999999741,
          "durationTicks": 120,
          "midi": 70,
          "name": "A#4",
          "ticks": 204240,
          "time": 131.18426643750004,
          "velocity": 0.7874015748031497
        },
        {
          "duration": 0.04761899999999741,
          "durationTicks": 120,
          "midi": 70,
          "name": "A#4",
          "ticks": 204480,
          "time": 131.27950443750004,
          "velocity": 0.7874015748031497
        },
        {
          "duration": 0.04761899999999741,
          "durationTicks": 120,
          "midi": 70,
          "name": "A#4",
          "ticks": 204720,
          "time": 131.37474243750003,
          "velocity": 0.7874015748031497
        },
        {
          "duration": 0.04761899999999741,
          "durationTicks": 120,
          "midi": 70,
          "name": "A#4",
          "ticks": 204960,
          "time": 131.46998043750003,
          "velocity": 0.7874015748031497
        },
        {
          "duration": 0.04761899999999741,
          "durationTicks": 120,
          "midi": 69,
          "name": "A4",
          "ticks": 205200,
          "time": 131.56521843750002,
          "velocity": 0.7874015748031497
        },
        {
          "duration": 0.047619000000025835,
          "durationTicks": 120,
          "midi": 68,
          "name": "G#4",
          "ticks": 205440,
          "time": 131.66045643750002,
          "velocity": 0.7874015748031497
        },
        {
          "duration": 0.04761899999999741,
          "durationTicks": 120,
          "midi": 67,
          "name": "G4",
          "ticks": 205680,
          "time": 131.75569443750004,
          "velocity": 0.7874015748031497
        },
        {
          "duration": 0.04761899999999741,
          "durationTicks": 120,
          "midi": 68,
          "name": "G#4",
          "ticks": 205920,
          "time": 131.85093243750003,
          "velocity": 0.7874015748031497
        },
        {
          "duration": 0.04761899999999741,
          "durationTicks": 120,
          "midi": 70,
          "name": "A#4",
          "ticks": 206160,
          "time": 131.94617043750003,
          "velocity": 0.7874015748031497
        },
        {
          "duration": 0.04761899999999741,
          "durationTicks": 120,
          "midi": 73,
          "name": "C#5",
          "ticks": 206400,
          "time": 132.04140843750002,
          "velocity": 0.7874015748031497
        },
        {
          "duration": 0.04761899999999741,
          "durationTicks": 120,
          "midi": 72,
          "name": "C5",
          "ticks": 206640,
          "time": 132.13664643750002,
          "velocity": 0.7874015748031497
        },
        {
          "duration": 0.054545249999989665,
          "durationTicks": 120,
          "midi": 73,
          "name": "C#5",
          "ticks": 206880,
          "time": 132.2318844375,
          "velocity": 0.7874015748031497
        },
        {
          "duration": 0.1290539249999938,
          "durationTicks": 191,
          "midi": 73,
          "name": "C#5",
          "ticks": 207840,
          "time": 132.83083443750002,
          "velocity": 0.7874015748031497
        },
        {
          "duration": 0.1290539249999938,
          "durationTicks": 191,
          "midi": 68,
          "name": "G#4",
          "ticks": 208200,
          "time": 133.07407743750002,
          "velocity": 0.7874015748031497
        },
        {
          "duration": 0.1290539249999938,
          "durationTicks": 191,
          "midi": 72,
          "name": "C5",
          "ticks": 208560,
          "time": 133.31732043750003,
          "velocity": 0.7874015748031497
        },
        {
          "duration": 0.11104620624999484,
          "durationTicks": 191,
          "midi": 73,
          "name": "C#5",
          "ticks": 208800,
          "time": 133.47948243750002,
          "velocity": 0.7874015748031497
        },
        {
          "duration": 0.11104620624999484,
          "durationTicks": 191,
          "midi": 68,
          "name": "G#4",
          "ticks": 209160,
          "time": 133.68878418750003,
          "velocity": 0.7874015748031497
        },
        {
          "duration": 0.11104620625002326,
          "durationTicks": 191,
          "midi": 72,
          "name": "C5",
          "ticks": 209520,
          "time": 133.8980859375,
          "velocity": 0.7874015748031497
        },
        {
          "duration": 0.10380412291667085,
          "durationTicks": 191,
          "midi": 73,
          "name": "C#5",
          "ticks": 209760,
          "time": 134.03762043750004,
          "velocity": 0.7874015748031497
        },
        {
          "duration": 0.10380412291667085,
          "durationTicks": 191,
          "midi": 68,
          "name": "G#4",
          "ticks": 210120,
          "time": 134.23327218750003,
          "velocity": 0.7874015748031497
        },
        {
          "duration": 0.10380412291667085,
          "durationTicks": 191,
          "midi": 72,
          "name": "C5",
          "ticks": 210480,
          "time": 134.42892393750003,
          "velocity": 0.7874015748031497
        },
        {
          "duration": 0.09549999999998704,
          "durationTicks": 191,
          "midi": 73,
          "name": "C#5",
          "ticks": 210720,
          "time": 134.55935843750004,
          "velocity": 0.7874015748031497
        },
        {
          "duration": 0.09549999999998704,
          "durationTicks": 191,
          "midi": 68,
          "name": "G#4",
          "ticks": 211080,
          "time": 134.73935843750004,
          "velocity": 0.7874015748031497
        },
        {
          "duration": 0.09549999999998704,
          "durationTicks": 191,
          "midi": 72,
          "name": "C5",
          "ticks": 211440,
          "time": 134.91935843750005,
          "velocity": 0.7874015748031497
        },
        {
          "duration": 0.08842583750001154,
          "durationTicks": 191,
          "midi": 73,
          "name": "C#5",
          "ticks": 211680,
          "time": 135.03935843750003,
          "velocity": 0.7874015748031497
        },
        {
          "duration": 0.08842583750001154,
          "durationTicks": 191,
          "midi": 68,
          "name": "G#4",
          "ticks": 212040,
          "time": 135.20602493750002,
          "velocity": 0.7874015748031497
        },
        {
          "duration": 0.08842583749998312,
          "durationTicks": 191,
          "midi": 72,
          "name": "C5",
          "ticks": 212400,
          "time": 135.37269143750004,
          "velocity": 0.7874015748031497
        },
        {
          "duration": 0.08377180416667329,
          "durationTicks": 191,
          "midi": 73,
          "name": "C#5",
          "ticks": 212640,
          "time": 135.48380243750003,
          "velocity": 0.7874015748031497
        },
        {
          "duration": 0.08377180416667329,
          "durationTicks": 191,
          "midi": 68,
          "name": "G#4",
          "ticks": 213000,
          "time": 135.64169693750003,
          "velocity": 0.7874015748031497
        },
        {
          "duration": 0.08377180416667329,
          "durationTicks": 191,
          "midi": 72,
          "name": "C5",
          "ticks": 213360,
          "time": 135.79959143750003,
          "velocity": 0.7874015748031497
        },
        {
          "duration": 0.07958333333334622,
          "durationTicks": 191,
          "midi": 73,
          "name": "C#5",
          "ticks": 213600,
          "time": 135.90485443750003,
          "velocity": 0.7874015748031497
        },
        {
          "duration": 0.0795833333333178,
          "durationTicks": 191,
          "midi": 68,
          "name": "G#4",
          "ticks": 213960,
          "time": 136.05485443750004,
          "velocity": 0.7874015748031497
        },
        {
          "duration": 0.0795833333333178,
          "durationTicks": 191,
          "midi": 72,
          "name": "C5",
          "ticks": 214320,
          "time": 136.20485443750005,
          "velocity": 0.7874015748031497
        },
        {
          "duration": 0.07579357500000583,
          "durationTicks": 191,
          "midi": 73,
          "name": "C#5",
          "ticks": 214560,
          "time": 136.30485443750004,
          "velocity": 0.7874015748031497
        },
        {
          "duration": 0.07579357500000583,
          "durationTicks": 191,
          "midi": 68,
          "name": "G#4",
          "ticks": 214920,
          "time": 136.44771143750003,
          "velocity": 0.7874015748031497
        },
        {
          "duration": 3.0476189999999974,
          "durationTicks": 240,
          "midi": 60,
          "name": "C4",
          "ticks": 215280,
          "time": 136.59056843750005,
          "velocity": 0.7874015748031497
        }
      ],
      "endOfTrackTicks": 215520
    },
    {
      "channel": 0,
      "controlChanges": {},
      "pitchBends": [
        {
          "ticks": 215415,
          "time": 137.01318743750005,
          "value": -0.0057373046875
        },
        {
          "ticks": 215416,
          "time": 137.03818743750006,
          "value": -0.0001220703125
        },
        {
          "ticks": 215417,
          "time": 137.06318743750006,
          "value": 0
        },
        {
          "ticks": 215417,
          "time": 137.06318743750006,
          "value": 0.0167236328125
        },
        {
          "ticks": 215418,
          "time": 137.08818743750004,
          "value": 0.0223388671875
        },
        {
          "ticks": 215419,
          "time": 137.11318743750005,
          "value": 0.0279541015625
        },
        {
          "ticks": 215419,
          "time": 137.11318743750005,
          "value": 0.0335693359375
        },
        {
          "ticks": 215420,
          "time": 137.13818743750005,
          "value": 0.0391845703125
        },
        {
          "ticks": 215421,
          "time": 137.16318743750006,
          "value": 0.0447998046875
        },
        {
          "ticks": 215421,
          "time": 137.16318743750006,
          "value": 0.0560302734375
        },
        {
          "ticks": 215422,
          "time": 137.18818743750006,
          "value": 0.0616455078125
        },
        {
          "ticks": 215423,
          "time": 137.21318743750004,
          "value": 0.0672607421875
        },
        {
          "ticks": 215423,
          "time": 137.21318743750004,
          "value": 0.0728759765625
        },
        {
          "ticks": 215424,
          "time": 137.23818743750005,
          "value": 0.0784912109375
        },
        {
          "ticks": 215425,
          "time": 137.26318743750005,
          "value": 0.0841064453125
        },
        {
          "ticks": 215425,
          "time": 137.26318743750005,
          "value": 0.0953369140625
        },
        {
          "ticks": 215426,
          "time": 137.28818743750006,
          "value": 0.1009521484375
        },
        {
          "ticks": 215427,
          "time": 137.31318743750006,
          "value": 0.1065673828125
        },
        {
          "ticks": 215428,
          "time": 137.33818743750004,
          "value": 0.1121826171875
        },
        {
          "ticks": 215428,
          "time": 137.33818743750004,
          "value": 0.1177978515625
        },
        {
          "ticks": 215429,
          "time": 137.36318743750005,
          "value": 0.1290283203125
        },
        {
          "ticks": 215430,
          "time": 137.38818743750005,
          "value": 0.1346435546875
        },
        {
          "ticks": 215430,
          "time": 137.38818743750005,
          "value": 0.1402587890625
        },
        {
          "ticks": 215431,
          "time": 137.41318743750006,
          "value": 0.14599609375
        },
        {
          "ticks": 215432,
          "time": 137.43818743750006,
          "value": 0.151611328125
        },
        {
          "ticks": 215432,
          "time": 137.43818743750006,
          "value": 0.1572265625
        },
        {
          "ticks": 215433,
          "time": 137.46318743750004,
          "value": 0.16845703125
        },
        {
          "ticks": 215434,
          "time": 137.48818743750005,
          "value": 0.174072265625
        },
        {
          "ticks": 215434,
          "time": 137.48818743750005,
          "value": 0.1796875
        },
        {
          "ticks": 215435,
          "time": 137.51318743750005,
          "value": 0.185302734375
        },
        {
          "ticks": 215436,
          "time": 137.53818743750006,
          "value": 0.19091796875
        },
        {
          "ticks": 215436,
          "time": 137.53818743750006,
          "value": 0.196533203125
        },
        {
          "ticks": 215437,
          "time": 137.56318743750006,
          "value": 0.207763671875
        },
        {
          "ticks": 215438,
          "time": 137.58818743750004,
          "value": 0.21337890625
        },
        {
          "ticks": 215438,
          "time": 137.58818743750004,
          "value": 0.218994140625
        },
        {
          "ticks": 215439,
          "time": 137.61318743750005,
          "value": 0.224609375
        },
        {
          "ticks": 215440,
          "time": 137.63818743750005,
          "value": 0.230224609375
        },
        {
          "ticks": 215440,
          "time": 137.63818743750005,
          "value": 0.23583984375
        },
        {
          "ticks": 215441,
          "time": 137.66318743750006,
          "value": 0.2470703125
        },
        {
          "ticks": 215442,
          "time": 137.68818743750006,
          "value": 0.252685546875
        },
        {
          "ticks": 215442,
          "time": 137.68818743750006,
          "value": 0.25830078125
        },
        {
          "ticks": 215443,
          "time": 137.71318743750004,
          "value": 0.263916015625
        },
        {
          "ticks": 215444,
          "time": 137.73818743750005,
          "value": 0.26953125
        },
        {
          "ticks": 215444,
          "time": 137.73818743750005,
          "value": 0.275146484375
        },
        {
          "ticks": 215445,
          "time": 137.76318743750005,
          "value": 0.286376953125
        },
        {
          "ticks": 215446,
          "time": 137.78818743750006,
          "value": 0.2919921875
        },
        {
          "ticks": 215446,
          "time": 137.78818743750006,
          "value": 0.297607421875
        },
        {
          "ticks": 215447,
          "time": 137.81318743750006,
          "value": 0.30322265625
        },
        {
          "ticks": 215448,
          "time": 137.83818743750004,
          "value": 0.308837890625
        },
        {
          "ticks": 215448,
          "time": 137.83818743750004,
          "value": 0.314453125
        },
        {
          "ticks": 215449,
          "time": 137.86318743750005,
          "value": 0.32568359375
        },
        {
          "ticks": 215450,
          "time": 137.88818743750005,
          "value": 0.331298828125
        },
        {
          "ticks": 215450,
          "time": 137.88818743750005,
          "value": 0.3369140625
        },
        {
          "ticks": 215451,
          "time": 137.91318743750006,
          "value": 0.342529296875
        },
        {
          "ticks": 215452,
          "time": 137.93818743750006,
          "value": 0.34814453125
        },
        {
          "ticks": 215453,
          "time": 137.96318743750004,
          "value": 0.359375
        },
        {
          "ticks": 215453,
          "time": 137.96318743750004,
          "value": 0.364990234375
        },
        {
          "ticks": 215454,
          "time": 137.98818743750005,
          "value": 0.37060546875
        },
        {
          "ticks": 215455,
          "time": 138.01318743750005,
          "value": 0.376220703125
        },
        {
          "ticks": 215455,
          "time": 138.01318743750005,
          "value": 0.3818359375
        },
        {
          "ticks": 215456,
          "time": 138.03818743750006,
          "value": 0.387451171875
        },
        {
          "ticks": 215457,
          "time": 138.06318743750006,
          "value": 0.398681640625
        },
        {
          "ticks": 215457,
          "time": 138.06318743750006,
          "value": 0.404296875
        },
        {
          "ticks": 215458,
          "time": 138.08818743750004,
          "value": 0.409912109375
        },
        {
          "ticks": 215459,
          "time": 138.11318743750005,
          "value": 0.41552734375
        },
        {
          "ticks": 215459,
          "time": 138.11318743750005,
          "value": 0.421142578125
        },
        {
          "ticks": 215460,
          "time": 138.13818743750005,
          "value": 0.4267578125
        },
        {
          "ticks": 215461,
          "time": 138.16318743750006,
          "value": 0.4381103515625
        },
        {
          "ticks": 215461,
          "time": 138.16318743750006,
          "value": 0.4437255859375
        },
        {
          "ticks": 215462,
          "time": 138.18818743750006,
          "value": 0.4493408203125
        },
        {
          "ticks": 215463,
          "time": 138.21318743750004,
          "value": 0.4549560546875
        },
        {
          "ticks": 215463,
          "time": 138.21318743750004,
          "value": 0.4605712890625
        },
        {
          "ticks": 215464,
          "time": 138.23818743750005,
          "value": 0.4661865234375
        },
        {
          "ticks": 215465,
          "time": 138.26318743750005,
          "value": 0.4774169921875
        },
        {
          "ticks": 215465,
          "time": 138.26318743750005,
          "value": 0.4830322265625
        },
        {
          "ticks": 215466,
          "time": 138.28818743750006,
          "value": 0.4886474609375
        },
        {
          "ticks": 215467,
          "time": 138.31318743750006,
          "value": 0.4942626953125
        },
        {
          "ticks": 215467,
          "time": 138.31318743750006,
          "value": 0.4998779296875
        },
        {
          "ticks": 215468,
          "time": 138.33818743750004,
          "value": 0.5054931640625
        },
        {
          "ticks": 215469,
          "time": 138.36318743750005,
          "value": 0.5167236328125
        },
        {
          "ticks": 215469,
          "time": 138.36318743750005,
          "value": 0.5223388671875
        },
        {
          "ticks": 215470,
          "time": 138.38818743750005,
          "value": 0.5279541015625
        },
        {
          "ticks": 215471,
          "time": 138.41318743750006,
          "value": 0.5335693359375
        },
        {
          "ticks": 215471,
          "time": 138.41318743750006,
          "value": 0.5391845703125
        },
        {
          "ticks": 215472,
          "time": 138.43818743750006,
          "value": 0.5447998046875
        },
        {
          "ticks": 215473,
          "time": 138.46318743750004,
          "value": 0.5560302734375
        },
        {
          "ticks": 215473,
          "time": 138.46318743750004,
          "value": 0.5616455078125
        },
        {
          "ticks": 215474,
          "time": 138.48818743750005,
          "value": 0.5672607421875
        },
        {
          "ticks": 215475,
          "time": 138.51318743750005,
          "value": 0.5728759765625
        },
        {
          "ticks": 215475,
          "time": 138.51318743750005,
          "value": 0.5784912109375
        },
        {
          "ticks": 215476,
          "time": 138.53818743750006,
          "value": 0.5897216796875
        },
        {
          "ticks": 215477,
          "time": 138.56318743750006,
          "value": 0.5953369140625
        },
        {
          "ticks": 215478,
          "time": 138.58818743750004,
          "value": 0.6009521484375
        },
        {
          "ticks": 215478,
          "time": 138.58818743750004,
          "value": 0.6065673828125
        },
        {
          "ticks": 215479,
          "time": 138.61318743750005,
          "value": 0.6121826171875
        },
        {
          "ticks": 215480,
          "time": 138.63818743750005,
          "value": 0.6177978515625
        },
        {
          "ticks": 215480,
          "time": 138.63818743750005,
          "value": 0.6290283203125
        },
        {
          "ticks": 215481,
          "time": 138.66318743750006,
          "value": 0.6346435546875
        },
        {
          "ticks": 215482,
          "time": 138.68818743750006,
          "value": 0.6402587890625
        },
        {
          "ticks": 215482,
          "time": 138.68818743750006,
          "value": 0.6458740234375
        },
        {
          "ticks": 215483,
          "time": 138.71318743750004,
          "value": 0.6514892578125
        },
        {
          "ticks": 215484,
          "time": 138.73818743750005,
          "value": 0.6571044921875
        },
        {
          "ticks": 215484,
          "time": 138.73818743750005,
          "value": 0.6683349609375
        },
        {
          "ticks": 215485,
          "time": 138.76318743750005,
          "value": 0.6739501953125
        },
        {
          "ticks": 215486,
          "time": 138.78818743750006,
          "value": 0.6795654296875
        },
        {
          "ticks": 215486,
          "time": 138.78818743750006,
          "value": 0.6851806640625
        },
        {
          "ticks": 215487,
          "time": 138.81318743750006,
          "value": 0.6907958984375
        },
        {
          "ticks": 215488,
          "time": 138.83818743750004,
          "value": 0.6964111328125
        },
        {
          "ticks": 215488,
          "time": 138.83818743750004,
          "value": 0.7076416015625
        },
        {
          "ticks": 215489,
          "time": 138.86318743750005,
          "value": 0.7132568359375
        },
        {
          "ticks": 215490,
          "time": 138.88818743750005,
          "value": 0.718994140625
        },
        {
          "ticks": 215490,
          "time": 138.88818743750005,
          "value": 0.724609375
        },
        {
          "ticks": 215491,
          "time": 138.91318743750006,
          "value": 0.730224609375
        },
        {
          "ticks": 215492,
          "time": 138.93818743750006,
          "value": 0.73583984375
        },
        {
          "ticks": 215492,
          "time": 138.93818743750006,
          "value": 0.7470703125
        },
        {
          "ticks": 215493,
          "time": 138.96318743750004,
          "value": 0.752685546875
        },
        {
          "ticks": 215494,
          "time": 138.98818743750005,
          "value": 0.75830078125
        },
        {
          "ticks": 215494,
          "time": 138.98818743750005,
          "value": 0.763916015625
        },
        {
          "ticks": 215495,
          "time": 139.01318743750005,
          "value": 0.76953125
        },
        {
          "ticks": 215496,
          "time": 139.03818743750006,
          "value": 0.78076171875
        },
        {
          "ticks": 215496,
          "time": 139.03818743750006,
          "value": 0.786376953125
        },
        {
          "ticks": 215497,
          "time": 139.06318743750006,
          "value": 0.7919921875
        },
        {
          "ticks": 215498,
          "time": 139.08818743750004,
          "value": 0.797607421875
        },
        {
          "ticks": 215498,
          "time": 139.08818743750004,
          "value": 0.80322265625
        },
        {
          "ticks": 215499,
          "time": 139.11318743750005,
          "value": 0.808837890625
        },
        {
          "ticks": 215500,
          "time": 139.13818743750005,
          "value": 0.820068359375
        },
        {
          "ticks": 215501,
          "time": 139.16318743750006,
          "value": 0.82568359375
        },
        {
          "ticks": 215501,
          "time": 139.16318743750006,
          "value": 0.831298828125
        },
        {
          "ticks": 215502,
          "time": 139.18818743750006,
          "value": 0.8369140625
        },
        {
          "ticks": 215503,
          "time": 139.21318743750004,
          "value": 0.842529296875
        },
        {
          "ticks": 215503,
          "time": 139.21318743750004,
          "value": 0.84814453125
        },
        {
          "ticks": 215504,
          "time": 139.23818743750005,
          "value": 0.859375
        },
        {
          "ticks": 215505,
          "time": 139.26318743750005,
          "value": 0.864990234375
        },
        {
          "ticks": 215505,
          "time": 139.26318743750005,
          "value": 0.87060546875
        },
        {
          "ticks": 215506,
          "time": 139.28818743750006,
          "value": 0.876220703125
        },
        {
          "ticks": 215507,
          "time": 139.31318743750006,
          "value": 0.8818359375
        },
        {
          "ticks": 215507,
          "time": 139.31318743750006,
          "value": 0.887451171875
        },
        {
          "ticks": 215508,
          "time": 139.33818743750004,
          "value": 0.898681640625
        },
        {
          "ticks": 215509,
          "time": 139.36318743750005,
          "value": 0.904296875
        },
        {
          "ticks": 215509,
          "time": 139.36318743750005,
          "value": 0.909912109375
        },
        {
          "ticks": 215510,
          "time": 139.38818743750005,
          "value": 0.91552734375
        },
        {
          "ticks": 215511,
          "time": 139.41318743750006,
          "value": 0.921142578125
        },
        {
          "ticks": 215511,
          "time": 139.41318743750006,
          "value": 0.9267578125
        },
        {
          "ticks": 215512,
          "time": 139.43818743750006,
          "value": 0.93798828125
        },
        {
          "ticks": 215513,
          "time": 139.46318743750004,
          "value": 0.943603515625
        },
        {
          "ticks": 215513,
          "time": 139.46318743750004,
          "value": 0.94921875
        },
        {
          "ticks": 215514,
          "time": 139.48818743750005,
          "value": 0.954833984375
        },
        {
          "ticks": 215515,
          "time": 139.51318743750005,
          "value": 0.96044921875
        },
        {
          "ticks": 215515,
          "time": 139.51318743750005,
          "value": 0.966064453125
        },
        {
          "ticks": 215516,
          "time": 139.53818743750006,
          "value": 0.977294921875
        },
        {
          "ticks": 215517,
          "time": 139.56318743750006,
          "value": 0.98291015625
        },
        {
          "ticks": 215517,
          "time": 139.56318743750006,
          "value": 0.988525390625
        },
        {
          "ticks": 215518,
          "time": 139.58818743750004,
          "value": 0.994140625
        },
        {
          "ticks": 215519,
          "time": 139.61318743750005,
          "value": 0.9998779296875
        }
      ],
      "instrument": {
        "family": "piano",
        "number": 0,
        "name": "acoustic grand piano"
      },
      "name": "03_synth2",
      "notes": [
        {
          "duration": 0.06849300000000014,
          "durationTicks": 120,
          "midi": 66,
          "name": "F#4",
          "ticks": 17760,
          "time": 14.295855,
          "velocity": 0.7874015748031497
        },
        {
          "duration": 0.06849300000000014,
          "durationTicks": 120,
          "midi": 67,
          "name": "G4",
          "ticks": 18000,
          "time": 14.432841,
          "velocity": 0.7874015748031497
        },
        {
          "duration": 0.06849299999999836,
          "durationTicks": 120,
          "midi": 68,
          "name": "G#4",
          "ticks": 18240,
          "time": 14.569827,
          "velocity": 0.7874015748031497
        },
        {
          "duration": 0.06849300000000014,
          "durationTicks": 120,
          "midi": 69,
          "name": "A4",
          "ticks": 18480,
          "time": 14.706812999999999,
          "velocity": 0.7874015748031497
        },
        {
          "duration": 0.06849300000000014,
          "durationTicks": 120,
          "midi": 70,
          "name": "A#4",
          "ticks": 18720,
          "time": 14.843798999999999,
          "velocity": 0.7874015748031497
        },
        {
          "duration": 0.06849300000000014,
          "durationTicks": 120,
          "midi": 71,
          "name": "B4",
          "ticks": 18960,
          "time": 14.980785,
          "velocity": 0.7874015748031497
        },
        {
          "duration": 0.06849300000000014,
          "durationTicks": 120,
          "midi": 73,
          "name": "C#5",
          "ticks": 19200,
          "time": 15.117771,
          "velocity": 0.7874015748031497
        },
        {
          "duration": 0.27397199999999877,
          "durationTicks": 480,
          "midi": 66,
          "name": "F#4",
          "ticks": 19440,
          "time": 15.254757,
          "velocity": 0.7874015748031497
        },
        {
          "duration": 0.06849300000000014,
          "durationTicks": 120,
          "midi": 65,
          "name": "F4",
          "ticks": 19920,
          "time": 15.528728999999998,
          "velocity": 0.7874015748031497
        },
        {
          "duration": 0.06849300000000014,
          "durationTicks": 120,
          "midi": 66,
          "name": "F#4",
          "ticks": 20160,
          "time": 15.665714999999999,
          "velocity": 0.7874015748031497
        },
        {
          "duration": 0.06849300000000014,
          "durationTicks": 120,
          "midi": 65,
          "name": "F4",
          "ticks": 20400,
          "time": 15.802700999999999,
          "velocity": 0.7874015748031497
        },
        {
          "duration": 0.06849300000000014,
          "durationTicks": 120,
          "midi": 66,
          "name": "F#4",
          "ticks": 20640,
          "time": 15.939687,
          "velocity": 0.7874015748031497
        },
        {
          "duration": 0.06849300000000014,
          "durationTicks": 120,
          "midi": 65,
          "name": "F4",
          "ticks": 20880,
          "time": 16.076673,
          "velocity": 0.7874015748031497
        },
        {
          "duration": 0.06849300000000014,
          "durationTicks": 120,
          "midi": 66,
          "name": "F#4",
          "ticks": 21120,
          "time": 16.213659,
          "velocity": 0.7874015748031497
        },
        {
          "duration": 0.06849300000000014,
          "durationTicks": 120,
          "midi": 65,
          "name": "F4",
          "ticks": 21360,
          "time": 16.350645,
          "velocity": 0.7874015748031497
        },
        {
          "duration": 0.06849300000000014,
          "durationTicks": 120,
          "midi": 66,
          "name": "F#4",
          "ticks": 21600,
          "time": 16.487631,
          "velocity": 0.7874015748031497
        },
        {
          "duration": 0.06849299999999658,
          "durationTicks": 120,
          "midi": 65,
          "name": "F4",
          "ticks": 21840,
          "time": 16.624617,
          "velocity": 0.7874015748031497
        },
        {
          "duration": 0.06849299999999658,
          "durationTicks": 120,
          "midi": 66,
          "name": "F#4",
          "ticks": 22080,
          "time": 16.761603,
          "velocity": 0.7874015748031497
        },
        {
          "duration": 0.06849300000000014,
          "durationTicks": 120,
          "midi": 65,
          "name": "F4",
          "ticks": 22320,
          "time": 16.898588999999998,
          "velocity": 0.7874015748031497
        },
        {
          "duration": 0.06849300000000014,
          "durationTicks": 120,
          "midi": 66,
          "name": "F#4",
          "ticks": 22560,
          "time": 17.035574999999998,
          "velocity": 0.7874015748031497
        },
        {
          "duration": 0.06849300000000014,
          "durationTicks": 120,
          "midi": 66,
          "name": "F#4",
          "ticks": 22800,
          "time": 17.172560999999998,
          "velocity": 0.7874015748031497
        },
        {
          "duration": 0.06849300000000014,
          "durationTicks": 120,
          "midi": 66,
          "name": "F#4",
          "ticks": 23040,
          "time": 17.309547,
          "velocity": 0.7874015748031497
        },
        {
          "duration": 0.27397200000000055,
          "durationTicks": 480,
          "midi": 66,
          "name": "F#4",
          "ticks": 23280,
          "time": 17.446533,
          "velocity": 0.7874015748031497
        },
        {
          "duration": 0.06849300000000014,
          "durationTicks": 120,
          "midi": 68,
          "name": "G#4",
          "ticks": 23760,
          "time": 17.720505,
          "velocity": 0.7874015748031497
        },
        {
          "duration": 0.06849300000000014,
          "durationTicks": 120,
          "midi": 71,
          "name": "B4",
          "ticks": 24000,
          "time": 17.857491,
          "velocity": 0.7874015748031497
        },
        {
          "duration": 0.06849300000000014,
          "durationTicks": 120,
          "midi": 73,
          "name": "C#5",
          "ticks": 24240,
          "time": 17.994477,
          "velocity": 0.7874015748031497
        },
        {
          "duration": 0.06849300000000014,
          "durationTicks": 120,
          "midi": 66,
          "name": "F#4",
          "ticks": 24480,
          "time": 18.131463,
          "velocity": 0.7874015748031497
        },
        {
          "duration": 0.06849300000000369,
          "durationTicks": 120,
          "midi": 68,
          "name": "G#4",
          "ticks": 24720,
          "time": 18.268448999999997,
          "velocity": 0.7874015748031497
        },
        {
          "duration": 0.06849300000000369,
          "durationTicks": 120,
          "midi": 71,
          "name": "B4",
          "ticks": 24960,
          "time": 18.405434999999997,
          "velocity": 0.7874015748031497
        },
        {
          "duration": 0.06849300000000369,
          "durationTicks": 120,
          "midi": 73,
          "name": "C#5",
          "ticks": 25200,
          "time": 18.542420999999997,
          "velocity": 0.7874015748031497
        },
        {
          "duration": 0.06849300000000014,
          "durationTicks": 120,
          "midi": 66,
          "name": "F#4",
          "ticks": 25440,
          "time": 18.679406999999998,
          "velocity": 0.7874015748031497
        },
        {
          "duration": 0.06849300000000014,
          "durationTicks": 120,
          "midi": 68,
          "name": "G#4",
          "ticks": 25680,
          "time": 18.816392999999998,
          "velocity": 0.7874015748031497
        },
        {
          "duration": 0.06849300000000014,
          "durationTicks": 120,
          "midi": 71,
          "name": "B4",
          "ticks": 25920,
          "time": 18.953378999999998,
          "velocity": 0.7874015748031497
        },
        {
          "duration": 0.06849300000000014,
          "durationTicks": 120,
          "midi": 73,
          "name": "C#5",
          "ticks": 26160,
          "time": 19.090365,
          "velocity": 0.7874015748031497
        },
        {
          "duration": 0.27397200000000055,
          "durationTicks": 480,
          "midi": 75,
          "name": "D#5",
          "ticks": 26400,
          "time": 19.227351,
          "velocity": 0.7874015748031497
        },
        {
          "duration": 0.06849300000000014,
          "durationTicks": 120,
          "midi": 73,
          "name": "C#5",
          "ticks": 26880,
          "time": 19.501323,
          "velocity": 0.7874015748031497
        },
        {
          "duration": 0.27397200000000055,
          "durationTicks": 480,
          "midi": 70,
          "name": "A#4",
          "ticks": 27120,
          "time": 19.638309,
          "velocity": 0.7874015748031497
        },
        {
          "duration": 0.06849300000000014,
          "durationTicks": 120,
          "midi": 69,
          "name": "A4",
          "ticks": 27600,
          "time": 19.912281,
          "velocity": 0.7874015748031497
        },
        {
          "duration": 0.06849299999999658,
          "durationTicks": 120,
          "midi": 70,
          "name": "A#4",
          "ticks": 27840,
          "time": 20.049267,
          "velocity": 0.7874015748031497
        },
        {
          "duration": 0.06849299999999658,
          "durationTicks": 120,
          "midi": 69,
          "name": "A4",
          "ticks": 28080,
          "time": 20.186253,
          "velocity": 0.7874015748031497
        },
        {
          "duration": 0.06849299999999658,
          "durationTicks": 120,
          "midi": 70,
          "name": "A#4",
          "ticks": 28320,
          "time": 20.323239,
          "velocity": 0.7874015748031497
        },
        {
          "duration": 0.06849300000000014,
          "durationTicks": 120,
          "midi": 70,
          "name": "A#4",
          "ticks": 28560,
          "time": 20.460224999999998,
          "velocity": 0.7874015748031497
        },
        {
          "duration": 0.06849300000000014,
          "durationTicks": 120,
          "midi": 70,
          "name": "A#4",
          "ticks": 28800,
          "time": 20.597210999999998,
          "velocity": 0.7874015748031497
        },
        {
          "duration": 0.06849300000000014,
          "durationTicks": 120,
          "midi": 70,
          "name": "A#4",
          "ticks": 29040,
          "time": 20.734196999999998,
          "velocity": 0.7874015748031497
        },
        {
          "duration": 0.06849300000000014,
          "durationTicks": 120,
          "midi": 69,
          "name": "A4",
          "ticks": 29280,
          "time": 20.871183,
          "velocity": 0.7874015748031497
        },
        {
          "duration": 0.06849300000000014,
          "durationTicks": 120,
          "midi": 70,
          "name": "A#4",
          "ticks": 29520,
          "time": 21.008169,
          "velocity": 0.7874015748031497
        },
        {
          "duration": 0.06849300000000014,
          "durationTicks": 120,
          "midi": 69,
          "name": "A4",
          "ticks": 29760,
          "time": 21.145155,
          "velocity": 0.7874015748031497
        },
        {
          "duration": 0.06849300000000014,
          "durationTicks": 120,
          "midi": 70,
          "name": "A#4",
          "ticks": 30000,
          "time": 21.282141,
          "velocity": 0.7874015748031497
        },
        {
          "duration": 0.06849300000000014,
          "durationTicks": 120,
          "midi": 71,
          "name": "B4",
          "ticks": 30240,
          "time": 21.419127,
          "velocity": 0.7874015748031497
        },
        {
          "duration": 0.06849300000000369,
          "durationTicks": 120,
          "midi": 70,
          "name": "A#4",
          "ticks": 30480,
          "time": 21.556112999999996,
          "velocity": 0.7874015748031497
        },
        {
          "duration": 0.06849300000000369,
          "durationTicks": 120,
          "midi": 69,
          "name": "A4",
          "ticks": 30720,
          "time": 21.693098999999997,
          "velocity": 0.7874015748031497
        },
        {
          "duration": 0.20547900000000396,
          "durationTicks": 360,
          "midi": 68,
          "name": "G#4",
          "ticks": 30960,
          "time": 21.830084999999997,
          "velocity": 0.7874015748031497
        },
        {
          "duration": 0.06849300000000369,
          "durationTicks": 120,
          "midi": 68,
          "name": "G#4",
          "ticks": 31440,
          "time": 22.104056999999997,
          "velocity": 0.7874015748031497
        },
        {
          "duration": 0.06849300000000369,
          "durationTicks": 120,
          "midi": 68,
          "name": "G#4",
          "ticks": 31680,
          "time": 22.241042999999998,
          "velocity": 0.7874015748031497
        },
        {
          "duration": 0.06849300000000014,
          "durationTicks": 120,
          "midi": 68,
          "name": "G#4",
          "ticks": 31920,
          "time": 22.378028999999998,
          "velocity": 0.7874015748031497
        },
        {
          "duration": 0.06849300000000014,
          "durationTicks": 120,
          "midi": 68,
          "name": "G#4",
          "ticks": 32160,
          "time": 22.515015,
          "velocity": 0.7874015748031497
        },
        {
          "duration": 0.06849300000000014,
          "durationTicks": 120,
          "midi": 67,
          "name": "G4",
          "ticks": 32400,
          "time": 22.652001,
          "velocity": 0.7874015748031497
        },
        {
          "duration": 0.06849300000000014,
          "durationTicks": 120,
          "midi": 66,
          "name": "F#4",
          "ticks": 32640,
          "time": 22.788987,
          "velocity": 0.7874015748031497
        },
        {
          "duration": 0.06849300000000014,
          "durationTicks": 120,
          "midi": 65,
          "name": "F4",
          "ticks": 32880,
          "time": 22.925973,
          "velocity": 0.7874015748031497
        },
        {
          "duration": 0.06849300000000014,
          "durationTicks": 120,
          "midi": 66,
          "name": "F#4",
          "ticks": 33120,
          "time": 23.062959,
          "velocity": 0.7874015748031497
        },
        {
          "duration": 0.06849300000000014,
          "durationTicks": 120,
          "midi": 68,
          "name": "G#4",
          "ticks": 33360,
          "time": 23.199945,
          "velocity": 0.7874015748031497
        },
        {
          "duration": 0.06849299999999658,
          "durationTicks": 120,
          "midi": 71,
          "name": "B4",
          "ticks": 33600,
          "time": 23.336931,
          "velocity": 0.7874015748031497
        },
        {
          "duration": 0.06849299999999658,
          "durationTicks": 120,
          "midi": 70,
          "name": "A#4",
          "ticks": 33840,
          "time": 23.473917,
          "velocity": 0.7874015748031497
        },
        {
          "duration": 0.06849299999999658,
          "durationTicks": 120,
          "midi": 71,
          "name": "B4",
          "ticks": 34080,
          "time": 23.610903,
          "velocity": 0.7874015748031497
        },
        {
          "duration": 0.07692300000000074,
          "durationTicks": 120,
          "midi": 66,
          "name": "F#4",
          "ticks": 77280,
          "time": 55.12826704583333,
          "velocity": 0.7874015748031497
        },
        {
          "duration": 0.07692300000000074,
          "durationTicks": 120,
          "midi": 67,
          "name": "G4",
          "ticks": 77520,
          "time": 55.282113045833334,
          "velocity": 0.7874015748031497
        },
        {
          "duration": 0.07692300000000074,
          "durationTicks": 120,
          "midi": 68,
          "name": "G#4",
          "ticks": 77760,
          "time": 55.435959045833336,
          "velocity": 0.7874015748031497
        },
        {
          "duration": 0.07692300000000074,
          "durationTicks": 120,
          "midi": 69,
          "name": "A4",
          "ticks": 78000,
          "time": 55.58980504583334,
          "velocity": 0.7874015748031497
        },
        {
          "duration": 0.06849299999999658,
          "durationTicks": 120,
          "midi": 70,
          "name": "A#4",
          "ticks": 78240,
          "time": 55.74365104583333,
          "velocity": 0.7874015748031497
        },
        {
          "duration": 0.06849299999999658,
          "durationTicks": 120,
          "midi": 71,
          "name": "B4",
          "ticks": 78480,
          "time": 55.88063704583333,
          "velocity": 0.7874015748031497
        },
        {
          "duration": 0.06849299999999658,
          "durationTicks": 120,
          "midi": 73,
          "name": "C#5",
          "ticks": 78720,
          "time": 56.01762304583333,
          "velocity": 0.7874015748031497
        },
        {
          "duration": 0.27397200000000055,
          "durationTicks": 480,
          "midi": 66,
          "name": "F#4",
          "ticks": 78960,
          "time": 56.15460904583333,
          "velocity": 0.7874015748031497
        },
        {
          "duration": 0.06849299999999658,
          "durationTicks": 120,
          "midi": 65,
          "name": "F4",
          "ticks": 79440,
          "time": 56.42858104583333,
          "velocity": 0.7874015748031497
        },
        {
          "duration": 0.06849299999999658,
          "durationTicks": 120,
          "midi": 66,
          "name": "F#4",
          "ticks": 79680,
          "time": 56.56556704583333,
          "velocity": 0.7874015748031497
        },
        {
          "duration": 0.06849299999999658,
          "durationTicks": 120,
          "midi": 65,
          "name": "F4",
          "ticks": 79920,
          "time": 56.702553045833334,
          "velocity": 0.7874015748031497
        },
        {
          "duration": 0.06849299999999658,
          "durationTicks": 120,
          "midi": 66,
          "name": "F#4",
          "ticks": 80160,
          "time": 56.839539045833334,
          "velocity": 0.7874015748031497
        },
        {
          "duration": 0.06849299999999658,
          "durationTicks": 120,
          "midi": 65,
          "name": "F4",
          "ticks": 80400,
          "time": 56.976525045833334,
          "velocity": 0.7874015748031497
        },
        {
          "duration": 0.06849299999999658,
          "durationTicks": 120,
          "midi": 66,
          "name": "F#4",
          "ticks": 80640,
          "time": 57.113511045833334,
          "velocity": 0.7874015748031497
        },
        {
          "duration": 0.06849299999999658,
          "durationTicks": 120,
          "midi": 65,
          "name": "F4",
          "ticks": 80880,
          "time": 57.250497045833335,
          "velocity": 0.7874015748031497
        },
        {
          "duration": 0.06849299999999658,
          "durationTicks": 120,
          "midi": 66,
          "name": "F#4",
          "ticks": 81120,
          "time": 57.387483045833335,
          "velocity": 0.7874015748031497
        },
        {
          "duration": 0.06849300000000369,
          "durationTicks": 120,
          "midi": 65,
          "name": "F4",
          "ticks": 81360,
          "time": 57.52446904583333,
          "velocity": 0.7874015748031497
        },
        {
          "duration": 0.06849300000000369,
          "durationTicks": 120,
          "midi": 66,
          "name": "F#4",
          "ticks": 81600,
          "time": 57.66145504583333,
          "velocity": 0.7874015748031497
        },
        {
          "duration": 0.06849300000000369,
          "durationTicks": 120,
          "midi": 65,
          "name": "F4",
          "ticks": 81840,
          "time": 57.79844104583333,
          "velocity": 0.7874015748031497
        },
        {
          "duration": 0.06849300000000369,
          "durationTicks": 120,
          "midi": 66,
          "name": "F#4",
          "ticks": 82080,
          "time": 57.93542704583333,
          "velocity": 0.7874015748031497
        },
        {
          "duration": 0.06849300000000369,
          "durationTicks": 120,
          "midi": 66,
          "name": "F#4",
          "ticks": 82320,
          "time": 58.07241304583333,
          "velocity": 0.7874015748031497
        },
        {
          "duration": 0.06849300000000369,
          "durationTicks": 120,
          "midi": 66,
          "name": "F#4",
          "ticks": 82560,
          "time": 58.20939904583333,
          "velocity": 0.7874015748031497
        },
        {
          "duration": 0.27397200000000055,
          "durationTicks": 480,
          "midi": 66,
          "name": "F#4",
          "ticks": 82800,
          "time": 58.34638504583333,
          "velocity": 0.7874015748031497
        },
        {
          "duration": 0.06849300000000369,
          "durationTicks": 120,
          "midi": 68,
          "name": "G#4",
          "ticks": 83280,
          "time": 58.62035704583333,
          "velocity": 0.7874015748031497
        },
        {
          "duration": 0.06849300000000369,
          "durationTicks": 120,
          "midi": 71,
          "name": "B4",
          "ticks": 83520,
          "time": 58.75734304583333,
          "velocity": 0.7874015748031497
        },
        {
          "duration": 0.06849300000000369,
          "durationTicks": 120,
          "midi": 73,
          "name": "C#5",
          "ticks": 83760,
          "time": 58.89432904583333,
          "velocity": 0.7874015748031497
        },
        {
          "duration": 0.06849300000000369,
          "durationTicks": 120,
          "midi": 66,
          "name": "F#4",
          "ticks": 84000,
          "time": 59.03131504583333,
          "velocity": 0.7874015748031497
        },
        {
          "duration": 0.06849300000000369,
          "durationTicks": 120,
          "midi": 68,
          "name": "G#4",
          "ticks": 84240,
          "time": 59.16830104583333,
          "velocity": 0.7874015748031497
        },
        {
          "duration": 0.06849299999999658,
          "durationTicks": 120,
          "midi": 71,
          "name": "B4",
          "ticks": 84480,
          "time": 59.30528704583333,
          "velocity": 0.7874015748031497
        },
        {
          "duration": 0.06849299999999658,
          "durationTicks": 120,
          "midi": 73,
          "name": "C#5",
          "ticks": 84720,
          "time": 59.44227304583333,
          "velocity": 0.7874015748031497
        },
        {
          "duration": 0.06849299999999658,
          "durationTicks": 120,
          "midi": 66,
          "name": "F#4",
          "ticks": 84960,
          "time": 59.57925904583333,
          "velocity": 0.7874015748031497
        },
        {
          "duration": 0.06849299999999658,
          "durationTicks": 120,
          "midi": 68,
          "name": "G#4",
          "ticks": 85200,
          "time": 59.71624504583333,
          "velocity": 0.7874015748031497
        },
        {
          "duration": 0.06849299999999658,
          "durationTicks": 120,
          "midi": 71,
          "name": "B4",
          "ticks": 85440,
          "time": 59.85323104583333,
          "velocity": 0.7874015748031497
        },
        {
          "duration": 0.06849299999999658,
          "durationTicks": 120,
          "midi": 73,
          "name": "C#5",
          "ticks": 85680,
          "time": 59.99021704583333,
          "velocity": 0.7874015748031497
        },
        {
          "duration": 0.27397200000000055,
          "durationTicks": 480,
          "midi": 75,
          "name": "D#5",
          "ticks": 85920,
          "time": 60.12720304583333,
          "velocity": 0.7874015748031497
        },
        {
          "duration": 0.06849299999999658,
          "durationTicks": 120,
          "midi": 73,
          "name": "C#5",
          "ticks": 86400,
          "time": 60.401175045833334,
          "velocity": 0.7874015748031497
        },
        {
          "duration": 0.27397200000000055,
          "durationTicks": 480,
          "midi": 70,
          "name": "A#4",
          "ticks": 86640,
          "time": 60.538161045833334,
          "velocity": 0.7874015748031497
        },
        {
          "duration": 0.06849299999999658,
          "durationTicks": 120,
          "midi": 69,
          "name": "A4",
          "ticks": 87120,
          "time": 60.812133045833335,
          "velocity": 0.7874015748031497
        },
        {
          "duration": 0.06849300000000369,
          "durationTicks": 120,
          "midi": 70,
          "name": "A#4",
          "ticks": 87360,
          "time": 60.94911904583333,
          "velocity": 0.7874015748031497
        },
        {
          "duration": 0.06849299999999658,
          "durationTicks": 120,
          "midi": 69,
          "name": "A4",
          "ticks": 87600,
          "time": 61.086105045833335,
          "velocity": 0.7874015748031497
        },
        {
          "duration": 0.06849300000000369,
          "durationTicks": 120,
          "midi": 70,
          "name": "A#4",
          "ticks": 87840,
          "time": 61.22309104583333,
          "velocity": 0.7874015748031497
        },
        {
          "duration": 0.06849300000000369,
          "durationTicks": 120,
          "midi": 70,
          "name": "A#4",
          "ticks": 88080,
          "time": 61.36007704583333,
          "velocity": 0.7874015748031497
        },
        {
          "duration": 0.06849300000000369,
          "durationTicks": 120,
          "midi": 70,
          "name": "A#4",
          "ticks": 88320,
          "time": 61.49706304583333,
          "velocity": 0.7874015748031497
        },
        {
          "duration": 0.06849300000000369,
          "durationTicks": 120,
          "midi": 70,
          "name": "A#4",
          "ticks": 88560,
          "time": 61.63404904583333,
          "velocity": 0.7874015748031497
        },
        {
          "duration": 0.06849300000000369,
          "durationTicks": 120,
          "midi": 69,
          "name": "A4",
          "ticks": 88800,
          "time": 61.77103504583333,
          "velocity": 0.7874015748031497
        },
        {
          "duration": 0.06849300000000369,
          "durationTicks": 120,
          "midi": 70,
          "name": "A#4",
          "ticks": 89040,
          "time": 61.90802104583333,
          "velocity": 0.7874015748031497
        },
        {
          "duration": 0.06849300000000369,
          "durationTicks": 120,
          "midi": 69,
          "name": "A4",
          "ticks": 89280,
          "time": 62.04500704583333,
          "velocity": 0.7874015748031497
        },
        {
          "duration": 0.06849300000000369,
          "durationTicks": 120,
          "midi": 70,
          "name": "A#4",
          "ticks": 89520,
          "time": 62.18199304583333,
          "velocity": 0.7874015748031497
        },
        {
          "duration": 0.06849300000000369,
          "durationTicks": 120,
          "midi": 71,
          "name": "B4",
          "ticks": 89760,
          "time": 62.31897904583333,
          "velocity": 0.7874015748031497
        },
        {
          "duration": 0.06849300000000369,
          "durationTicks": 120,
          "midi": 70,
          "name": "A#4",
          "ticks": 90000,
          "time": 62.45596504583333,
          "velocity": 0.7874015748031497
        },
        {
          "duration": 0.06849300000000369,
          "durationTicks": 120,
          "midi": 69,
          "name": "A4",
          "ticks": 90240,
          "time": 62.59295104583333,
          "velocity": 0.7874015748031497
        },
        {
          "duration": 0.20547900000000396,
          "durationTicks": 360,
          "midi": 68,
          "name": "G#4",
          "ticks": 90480,
          "time": 62.72993704583333,
          "velocity": 0.7874015748031497
        },
        {
          "duration": 0.06849299999999658,
          "durationTicks": 120,
          "midi": 68,
          "name": "G#4",
          "ticks": 90960,
          "time": 63.00390904583333,
          "velocity": 0.7874015748031497
        },
        {
          "duration": 0.06849299999999658,
          "durationTicks": 120,
          "midi": 68,
          "name": "G#4",
          "ticks": 91200,
          "time": 63.14089504583333,
          "velocity": 0.7874015748031497
        },
        {
          "duration": 0.06849299999999658,
          "durationTicks": 120,
          "midi": 68,
          "name": "G#4",
          "ticks": 91440,
          "time": 63.27788104583333,
          "velocity": 0.7874015748031497
        },
        {
          "duration": 0.06849299999999658,
          "durationTicks": 120,
          "midi": 68,
          "name": "G#4",
          "ticks": 91680,
          "time": 63.41486704583333,
          "velocity": 0.7874015748031497
        },
        {
          "duration": 0.06849299999999658,
          "durationTicks": 120,
          "midi": 67,
          "name": "G4",
          "ticks": 91920,
          "time": 63.55185304583333,
          "velocity": 0.7874015748031497
        },
        {
          "duration": 0.06849299999999658,
          "durationTicks": 120,
          "midi": 67,
          "name": "G4",
          "ticks": 92160,
          "time": 63.68883904583333,
          "velocity": 0.7874015748031497
        },
        {
          "duration": 0.06849299999999658,
          "durationTicks": 120,
          "midi": 67,
          "name": "G4",
          "ticks": 92400,
          "time": 63.825825045833334,
          "velocity": 0.7874015748031497
        },
        {
          "duration": 0.06849300000000369,
          "durationTicks": 120,
          "midi": 66,
          "name": "F#4",
          "ticks": 92640,
          "time": 63.962811045833334,
          "velocity": 0.7874015748031497
        },
        {
          "duration": 0.06849300000000369,
          "durationTicks": 120,
          "midi": 66,
          "name": "F#4",
          "ticks": 92880,
          "time": 64.09979704583333,
          "velocity": 0.7874015748031497
        },
        {
          "duration": 0.06849299999998948,
          "durationTicks": 120,
          "midi": 66,
          "name": "F#4",
          "ticks": 93120,
          "time": 64.23678304583333,
          "velocity": 0.7874015748031497
        },
        {
          "duration": 0.06849300000000369,
          "durationTicks": 120,
          "midi": 66,
          "name": "F#4",
          "ticks": 93360,
          "time": 64.37376904583333,
          "velocity": 0.7874015748031497
        },
        {
          "duration": 0.06849300000000369,
          "durationTicks": 120,
          "midi": 66,
          "name": "F#4",
          "ticks": 93600,
          "time": 64.51075504583333,
          "velocity": 0.7874015748031497
        },
        {
          "duration": 0.06849300000000369,
          "durationTicks": 120,
          "midi": 66,
          "name": "F#4",
          "ticks": 93840,
          "time": 64.64774104583333,
          "velocity": 0.7874015748031497
        },
        {
          "duration": 0.06849299999998948,
          "durationTicks": 120,
          "midi": 66,
          "name": "F#4",
          "ticks": 94080,
          "time": 64.78472704583334,
          "velocity": 0.7874015748031497
        },
        {
          "duration": 0.27397200000000055,
          "durationTicks": 480,
          "midi": 66,
          "name": "F#4",
          "ticks": 94320,
          "time": 64.92171304583333,
          "velocity": 0.7874015748031497
        },
        {
          "duration": 0.06849300000000369,
          "durationTicks": 120,
          "midi": 65,
          "name": "F4",
          "ticks": 94800,
          "time": 65.19568504583333,
          "velocity": 0.7874015748031497
        },
        {
          "duration": 0.06849299999998948,
          "durationTicks": 120,
          "midi": 66,
          "name": "F#4",
          "ticks": 95040,
          "time": 65.33267104583334,
          "velocity": 0.7874015748031497
        },
        {
          "duration": 0.06849300000000369,
          "durationTicks": 120,
          "midi": 65,
          "name": "F4",
          "ticks": 95280,
          "time": 65.46965704583333,
          "velocity": 0.7874015748031497
        },
        {
          "duration": 0.06849299999998948,
          "durationTicks": 120,
          "midi": 66,
          "name": "F#4",
          "ticks": 95520,
          "time": 65.60664304583334,
          "velocity": 0.7874015748031497
        },
        {
          "duration": 0.06849300000000369,
          "durationTicks": 120,
          "midi": 65,
          "name": "F4",
          "ticks": 95760,
          "time": 65.74362904583333,
          "velocity": 0.7874015748031497
        },
        {
          "duration": 0.06849299999998948,
          "durationTicks": 120,
          "midi": 66,
          "name": "F#4",
          "ticks": 96000,
          "time": 65.88061504583334,
          "velocity": 0.7874015748031497
        },
        {
          "duration": 0.06849300000000369,
          "durationTicks": 120,
          "midi": 65,
          "name": "F4",
          "ticks": 96240,
          "time": 66.01760104583333,
          "velocity": 0.7874015748031497
        },
        {
          "duration": 0.06849300000000369,
          "durationTicks": 120,
          "midi": 66,
          "name": "F#4",
          "ticks": 96480,
          "time": 66.15458704583332,
          "velocity": 0.7874015748031497
        },
        {
          "duration": 0.06849300000000369,
          "durationTicks": 120,
          "midi": 65,
          "name": "F4",
          "ticks": 96720,
          "time": 66.29157304583333,
          "velocity": 0.7874015748031497
        },
        {
          "duration": 0.06849299999998948,
          "durationTicks": 120,
          "midi": 66,
          "name": "F#4",
          "ticks": 96960,
          "time": 66.42855904583334,
          "velocity": 0.7874015748031497
        },
        {
          "duration": 0.06849300000000369,
          "durationTicks": 120,
          "midi": 65,
          "name": "F4",
          "ticks": 97200,
          "time": 66.56554504583333,
          "velocity": 0.7874015748031497
        },
        {
          "duration": 0.06849300000000369,
          "durationTicks": 120,
          "midi": 66,
          "name": "F#4",
          "ticks": 97440,
          "time": 66.70253104583333,
          "velocity": 0.7874015748031497
        },
        {
          "duration": 0.06849300000000369,
          "durationTicks": 120,
          "midi": 66,
          "name": "F#4",
          "ticks": 97680,
          "time": 66.83951704583333,
          "velocity": 0.7874015748031497
        },
        {
          "duration": 0.06849300000000369,
          "durationTicks": 120,
          "midi": 66,
          "name": "F#4",
          "ticks": 97920,
          "time": 66.97650304583333,
          "velocity": 0.7874015748031497
        },
        {
          "duration": 0.27397200000000055,
          "durationTicks": 480,
          "midi": 66,
          "name": "F#4",
          "ticks": 98160,
          "time": 67.11348904583333,
          "velocity": 0.7874015748031497
        },
        {
          "duration": 0.06849300000000369,
          "durationTicks": 120,
          "midi": 68,
          "name": "G#4",
          "ticks": 98640,
          "time": 67.38746104583333,
          "velocity": 0.7874015748031497
        },
        {
          "duration": 0.06849300000000369,
          "durationTicks": 120,
          "midi": 71,
          "name": "B4",
          "ticks": 98880,
          "time": 67.52444704583333,
          "velocity": 0.7874015748031497
        },
        {
          "duration": 0.06849300000000369,
          "durationTicks": 120,
          "midi": 73,
          "name": "C#5",
          "ticks": 99120,
          "time": 67.66143304583333,
          "velocity": 0.7874015748031497
        },
        {
          "duration": 0.06849300000000369,
          "durationTicks": 120,
          "midi": 66,
          "name": "F#4",
          "ticks": 99360,
          "time": 67.79841904583333,
          "velocity": 0.7874015748031497
        },
        {
          "duration": 0.06849299999998948,
          "durationTicks": 120,
          "midi": 68,
          "name": "G#4",
          "ticks": 99600,
          "time": 67.93540504583333,
          "velocity": 0.7874015748031497
        },
        {
          "duration": 0.06849300000000369,
          "durationTicks": 120,
          "midi": 71,
          "name": "B4",
          "ticks": 99840,
          "time": 68.07239104583333,
          "velocity": 0.7874015748031497
        },
        {
          "duration": 0.06849300000000369,
          "durationTicks": 120,
          "midi": 73,
          "name": "C#5",
          "ticks": 100080,
          "time": 68.20937704583334,
          "velocity": 0.7874015748031497
        },
        {
          "duration": 0.06849300000000369,
          "durationTicks": 120,
          "midi": 66,
          "name": "F#4",
          "ticks": 100320,
          "time": 68.34636304583333,
          "velocity": 0.7874015748031497
        },
        {
          "duration": 0.06849299999998948,
          "durationTicks": 120,
          "midi": 68,
          "name": "G#4",
          "ticks": 100560,
          "time": 68.48334904583334,
          "velocity": 0.7874015748031497
        },
        {
          "duration": 0.06849300000000369,
          "durationTicks": 120,
          "midi": 71,
          "name": "B4",
          "ticks": 100800,
          "time": 68.62033504583333,
          "velocity": 0.7874015748031497
        },
        {
          "duration": 0.06849299999998948,
          "durationTicks": 120,
          "midi": 73,
          "name": "C#5",
          "ticks": 101040,
          "time": 68.75732104583334,
          "velocity": 0.7874015748031497
        },
        {
          "duration": 0.27397200000000055,
          "durationTicks": 480,
          "midi": 75,
          "name": "D#5",
          "ticks": 101280,
          "time": 68.89430704583333,
          "velocity": 0.7874015748031497
        },
        {
          "duration": 0.06849300000000369,
          "durationTicks": 120,
          "midi": 73,
          "name": "C#5",
          "ticks": 101760,
          "time": 69.16827904583333,
          "velocity": 0.7874015748031497
        },
        {
          "duration": 0.27397200000000055,
          "durationTicks": 480,
          "midi": 70,
          "name": "A#4",
          "ticks": 102000,
          "time": 69.30526504583334,
          "velocity": 0.7874015748031497
        },
        {
          "duration": 0.06849299999998948,
          "durationTicks": 120,
          "midi": 69,
          "name": "A4",
          "ticks": 102480,
          "time": 69.57923704583334,
          "velocity": 0.7874015748031497
        },
        {
          "duration": 0.06849300000000369,
          "durationTicks": 120,
          "midi": 70,
          "name": "A#4",
          "ticks": 102720,
          "time": 69.71622304583333,
          "velocity": 0.7874015748031497
        },
        {
          "duration": 0.06849300000000369,
          "durationTicks": 120,
          "midi": 69,
          "name": "A4",
          "ticks": 102960,
          "time": 69.85320904583332,
          "velocity": 0.7874015748031497
        },
        {
          "duration": 0.06849300000000369,
          "durationTicks": 120,
          "midi": 70,
          "name": "A#4",
          "ticks": 103200,
          "time": 69.99019504583333,
          "velocity": 0.7874015748031497
        },
        {
          "duration": 0.06849299999998948,
          "durationTicks": 120,
          "midi": 70,
          "name": "A#4",
          "ticks": 103440,
          "time": 70.12718104583334,
          "velocity": 0.7874015748031497
        },
        {
          "duration": 0.06849300000000369,
          "durationTicks": 120,
          "midi": 70,
          "name": "A#4",
          "ticks": 103680,
          "time": 70.26416704583333,
          "velocity": 0.7874015748031497
        },
        {
          "duration": 0.06849300000000369,
          "durationTicks": 120,
          "midi": 70,
          "name": "A#4",
          "ticks": 103920,
          "time": 70.40115304583333,
          "velocity": 0.7874015748031497
        },
        {
          "duration": 0.06849300000000369,
          "durationTicks": 120,
          "midi": 69,
          "name": "A4",
          "ticks": 104160,
          "time": 70.53813904583333,
          "velocity": 0.7874015748031497
        },
        {
          "duration": 0.06849300000000369,
          "durationTicks": 120,
          "midi": 70,
          "name": "A#4",
          "ticks": 104400,
          "time": 70.67512504583333,
          "velocity": 0.7874015748031497
        },
        {
          "duration": 0.06849300000000369,
          "durationTicks": 120,
          "midi": 69,
          "name": "A4",
          "ticks": 104640,
          "time": 70.81211104583333,
          "velocity": 0.7874015748031497
        },
        {
          "duration": 0.06849300000000369,
          "durationTicks": 120,
          "midi": 70,
          "name": "A#4",
          "ticks": 104880,
          "time": 70.94909704583333,
          "velocity": 0.7874015748031497
        },
        {
          "duration": 0.06849299999998948,
          "durationTicks": 120,
          "midi": 71,
          "name": "B4",
          "ticks": 105120,
          "time": 71.08608304583333,
          "velocity": 0.7874015748031497
        },
        {
          "duration": 0.06849300000000369,
          "durationTicks": 120,
          "midi": 70,
          "name": "A#4",
          "ticks": 105360,
          "time": 71.22306904583333,
          "velocity": 0.7874015748031497
        },
        {
          "duration": 0.06849300000000369,
          "durationTicks": 120,
          "midi": 69,
          "name": "A4",
          "ticks": 105600,
          "time": 71.36005504583333,
          "velocity": 0.7874015748031497
        },
        {
          "duration": 0.20547899999999686,
          "durationTicks": 360,
          "midi": 68,
          "name": "G#4",
          "ticks": 105840,
          "time": 71.49704104583333,
          "velocity": 0.7874015748031497
        },
        {
          "duration": 0.06849300000000369,
          "durationTicks": 120,
          "midi": 68,
          "name": "G#4",
          "ticks": 106320,
          "time": 71.77101304583333,
          "velocity": 0.7874015748031497
        },
        {
          "duration": 0.06849300000000369,
          "durationTicks": 120,
          "midi": 68,
          "name": "G#4",
          "ticks": 106560,
          "time": 71.90799904583334,
          "velocity": 0.7874015748031497
        },
        {
          "duration": 0.06849300000000369,
          "durationTicks": 120,
          "midi": 68,
          "name": "G#4",
          "ticks": 106800,
          "time": 72.04498504583333,
          "velocity": 0.7874015748031497
        },
        {
          "duration": 0.06849299999998948,
          "durationTicks": 120,
          "midi": 67,
          "name": "G4",
          "ticks": 107040,
          "time": 72.18197104583334,
          "velocity": 0.7874015748031497
        },
        {
          "duration": 0.06849300000000369,
          "durationTicks": 120,
          "midi": 67,
          "name": "G4",
          "ticks": 107280,
          "time": 72.31895704583333,
          "velocity": 0.7874015748031497
        },
        {
          "duration": 0.06849300000000369,
          "durationTicks": 120,
          "midi": 67,
          "name": "G4",
          "ticks": 107520,
          "time": 72.45594304583332,
          "velocity": 0.7874015748031497
        },
        {
          "duration": 0.06849300000000369,
          "durationTicks": 120,
          "midi": 67,
          "name": "G4",
          "ticks": 107760,
          "time": 72.59292904583333,
          "velocity": 0.7874015748031497
        },
        {
          "duration": 0.06849299999998948,
          "durationTicks": 120,
          "midi": 66,
          "name": "F#4",
          "ticks": 108000,
          "time": 72.72991504583334,
          "velocity": 0.7874015748031497
        },
        {
          "duration": 0.06849300000000369,
          "durationTicks": 120,
          "midi": 68,
          "name": "G#4",
          "ticks": 108240,
          "time": 72.86690104583333,
          "velocity": 0.7874015748031497
        },
        {
          "duration": 0.06849300000000369,
          "durationTicks": 120,
          "midi": 71,
          "name": "B4",
          "ticks": 108480,
          "time": 73.00388704583332,
          "velocity": 0.7874015748031497
        },
        {
          "duration": 0.06849300000000369,
          "durationTicks": 120,
          "midi": 70,
          "name": "A#4",
          "ticks": 108720,
          "time": 73.14087304583333,
          "velocity": 0.7874015748031497
        },
        {
          "duration": 0.06849299999998948,
          "durationTicks": 120,
          "midi": 71,
          "name": "B4",
          "ticks": 108960,
          "time": 73.27785904583334,
          "velocity": 0.7874015748031497
        },
        {
          "duration": 0.06912425000000155,
          "durationTicks": 120,
          "midi": 66,
          "name": "F#4",
          "ticks": 109920,
          "time": 73.82580304583334,
          "velocity": 0.7874015748031497
        },
        {
          "duration": 0.06912425000000155,
          "durationTicks": 120,
          "midi": 66,
          "name": "F#4",
          "ticks": 110160,
          "time": 73.96405154583334,
          "velocity": 0.7874015748031497
        },
        {
          "duration": 0.07317050000000336,
          "durationTicks": 120,
          "midi": 66,
          "name": "F#4",
          "ticks": 110400,
          "time": 74.10230004583335,
          "velocity": 0.7874015748031497
        },
        {
          "duration": 0.07317049999998915,
          "durationTicks": 120,
          "midi": 66,
          "name": "F#4",
          "ticks": 110640,
          "time": 74.24864104583335,
          "velocity": 0.7874015748031497
        },
        {
          "duration": 0.07692299999999364,
          "durationTicks": 120,
          "midi": 66,
          "name": "F#4",
          "ticks": 110880,
          "time": 74.39498204583334,
          "velocity": 0.7874015748031497
        },
        {
          "duration": 0.07692299999999364,
          "durationTicks": 120,
          "midi": 66,
          "name": "F#4",
          "ticks": 111120,
          "time": 74.54882804583335,
          "velocity": 0.7874015748031497
        },
        {
          "duration": 0.0819670000000059,
          "durationTicks": 120,
          "midi": 66,
          "name": "F#4",
          "ticks": 111360,
          "time": 74.70267404583335,
          "velocity": 0.7874015748031497
        },
        {
          "duration": 0.0819670000000059,
          "durationTicks": 120,
          "midi": 66,
          "name": "F#4",
          "ticks": 111600,
          "time": 74.86660804583335,
          "velocity": 0.7874015748031497
        },
        {
          "duration": 0.15232200833334275,
          "durationTicks": 223,
          "midi": 66,
          "name": "F#4",
          "ticks": 111840,
          "time": 75.03054204583334,
          "velocity": 0.7874015748031497
        },
        {
          "duration": 0.10928933333333646,
          "durationTicks": 160,
          "midi": 64,
          "name": "E4",
          "ticks": 112480,
          "time": 75.46769937916667,
          "velocity": 0.7874015748031497
        },
        {
          "duration": 0.14002695833332268,
          "durationTicks": 205,
          "midi": 61,
          "name": "C#4",
          "ticks": 113120,
          "time": 75.90485671250002,
          "velocity": 0.7874015748031497
        },
        {
          "duration": 0.0778686499999992,
          "durationTicks": 114,
          "midi": 60,
          "name": "C4",
          "ticks": 146400,
          "time": 98.63703804583335,
          "velocity": 0.7874015748031497
        },
        {
          "duration": 0.0778686499999992,
          "durationTicks": 114,
          "midi": 62,
          "name": "D4",
          "ticks": 146537,
          "time": 98.73061703750001,
          "velocity": 0.7874015748031497
        },
        {
          "duration": 0.07855170833333602,
          "durationTicks": 115,
          "midi": 63,
          "name": "D#4",
          "ticks": 146674,
          "time": 98.82419602916669,
          "velocity": 0.7874015748031497
        },
        {
          "duration": 0.07855170833333602,
          "durationTicks": 115,
          "midi": 67,
          "name": "G4",
          "ticks": 146811,
          "time": 98.91777502083335,
          "velocity": 0.7874015748031497
        },
        {
          "duration": 0.0778686499999992,
          "durationTicks": 114,
          "midi": 68,
          "name": "G#4",
          "ticks": 146949,
          "time": 99.01203707083334,
          "velocity": 0.7874015748031497
        },
        {
          "duration": 0.0778686499999992,
          "durationTicks": 114,
          "midi": 72,
          "name": "C5",
          "ticks": 147086,
          "time": 99.10561606250002,
          "velocity": 0.7874015748031497
        },
        {
          "duration": 0.0778686499999992,
          "durationTicks": 114,
          "midi": 74,
          "name": "D5",
          "ticks": 147223,
          "time": 99.19919505416668,
          "velocity": 0.7874015748031497
        },
        {
          "duration": 0.0778686499999992,
          "durationTicks": 114,
          "midi": 60,
          "name": "C4",
          "ticks": 147360,
          "time": 99.29277404583334,
          "velocity": 0.7874015748031497
        },
        {
          "duration": 0.0778686499999992,
          "durationTicks": 114,
          "midi": 62,
          "name": "D4",
          "ticks": 147497,
          "time": 99.38635303750002,
          "velocity": 0.7874015748031497
        },
        {
          "duration": 0.07855170833332181,
          "durationTicks": 115,
          "midi": 63,
          "name": "D#4",
          "ticks": 147634,
          "time": 99.47993202916669,
          "velocity": 0.7874015748031497
        },
        {
          "duration": 0.07855170833333602,
          "durationTicks": 115,
          "midi": 67,
          "name": "G4",
          "ticks": 147771,
          "time": 99.57351102083335,
          "velocity": 0.7874015748031497
        },
        {
          "duration": 0.0778686499999992,
          "durationTicks": 114,
          "midi": 68,
          "name": "G#4",
          "ticks": 147909,
          "time": 99.66777307083335,
          "velocity": 0.7874015748031497
        },
        {
          "duration": 0.0778686499999992,
          "durationTicks": 114,
          "midi": 72,
          "name": "C5",
          "ticks": 148046,
          "time": 99.76135206250001,
          "velocity": 0.7874015748031497
        },
        {
          "duration": 0.0778686499999992,
          "durationTicks": 114,
          "midi": 74,
          "name": "D5",
          "ticks": 148183,
          "time": 99.85493105416668,
          "velocity": 0.7874015748031497
        },
        {
          "duration": 0.0778686499999992,
          "durationTicks": 114,
          "midi": 60,
          "name": "C4",
          "ticks": 148320,
          "time": 99.94851004583334,
          "velocity": 0.7874015748031497
        },
        {
          "duration": 0.0778686499999992,
          "durationTicks": 114,
          "midi": 62,
          "name": "D4",
          "ticks": 148457,
          "time": 100.0420890375,
          "velocity": 0.7874015748031497
        },
        {
          "duration": 0.07855170833333602,
          "durationTicks": 115,
          "midi": 63,
          "name": "D#4",
          "ticks": 148594,
          "time": 100.13566802916668,
          "velocity": 0.7874015748031497
        },
        {
          "duration": 0.07855170833332181,
          "durationTicks": 115,
          "midi": 67,
          "name": "G4",
          "ticks": 148731,
          "time": 100.22924702083336,
          "velocity": 0.7874015748031497
        },
        {
          "duration": 0.0778686499999992,
          "durationTicks": 114,
          "midi": 68,
          "name": "G#4",
          "ticks": 148869,
          "time": 100.32350907083335,
          "velocity": 0.7874015748031497
        },
        {
          "duration": 0.0778686499999992,
          "durationTicks": 114,
          "midi": 72,
          "name": "C5",
          "ticks": 149006,
          "time": 100.41708806250001,
          "velocity": 0.7874015748031497
        },
        {
          "duration": 0.0778686499999992,
          "durationTicks": 114,
          "midi": 74,
          "name": "D5",
          "ticks": 149143,
          "time": 100.51066705416667,
          "velocity": 0.7874015748031497
        },
        {
          "duration": 0.0778686499999992,
          "durationTicks": 114,
          "midi": 75,
          "name": "D#5",
          "ticks": 149280,
          "time": 100.60424604583335,
          "velocity": 0.7874015748031497
        },
        {
          "duration": 0.0778686499999992,
          "durationTicks": 114,
          "midi": 74,
          "name": "D5",
          "ticks": 149417,
          "time": 100.69782503750001,
          "velocity": 0.7874015748031497
        },
        {
          "duration": 0.07855170833333602,
          "durationTicks": 115,
          "midi": 72,
          "name": "C5",
          "ticks": 149554,
          "time": 100.79140402916669,
          "velocity": 0.7874015748031497
        },
        {
          "duration": 0.07855170833333602,
          "durationTicks": 115,
          "midi": 68,
          "name": "G#4",
          "ticks": 149691,
          "time": 100.88498302083335,
          "velocity": 0.7874015748031497
        },
        {
          "duration": 0.0778686499999992,
          "durationTicks": 114,
          "midi": 67,
          "name": "G4",
          "ticks": 149829,
          "time": 100.97924507083334,
          "velocity": 0.7874015748031497
        },
        {
          "duration": 0.0778686499999992,
          "durationTicks": 114,
          "midi": 63,
          "name": "D#4",
          "ticks": 149966,
          "time": 101.07282406250002,
          "velocity": 0.7874015748031497
        },
        {
          "duration": 0.0778686499999992,
          "durationTicks": 114,
          "midi": 62,
          "name": "D4",
          "ticks": 150103,
          "time": 101.16640305416668,
          "velocity": 0.7874015748031497
        },
        {
          "duration": 0.0778686499999992,
          "durationTicks": 114,
          "midi": 60,
          "name": "C4",
          "ticks": 150240,
          "time": 101.25998204583334,
          "velocity": 0.7874015748031497
        },
        {
          "duration": 0.0778686499999992,
          "durationTicks": 114,
          "midi": 62,
          "name": "D4",
          "ticks": 150377,
          "time": 101.35356103750001,
          "velocity": 0.7874015748031497
        },
        {
          "duration": 0.07855170833332181,
          "durationTicks": 115,
          "midi": 63,
          "name": "D#4",
          "ticks": 150514,
          "time": 101.44714002916669,
          "velocity": 0.7874015748031497
        },
        {
          "duration": 0.07855170833333602,
          "durationTicks": 115,
          "midi": 67,
          "name": "G4",
          "ticks": 150651,
          "time": 101.54071902083335,
          "velocity": 0.7874015748031497
        },
        {
          "duration": 0.0778686499999992,
          "durationTicks": 114,
          "midi": 68,
          "name": "G#4",
          "ticks": 150789,
          "time": 101.63498107083335,
          "velocity": 0.7874015748031497
        },
        {
          "duration": 0.0778686499999992,
          "durationTicks": 114,
          "midi": 72,
          "name": "C5",
          "ticks": 150926,
          "time": 101.72856006250001,
          "velocity": 0.7874015748031497
        },
        {
          "duration": 0.0778686499999992,
          "durationTicks": 114,
          "midi": 74,
          "name": "D5",
          "ticks": 151063,
          "time": 101.82213905416668,
          "velocity": 0.7874015748031497
        },
        {
          "duration": 0.0778686499999992,
          "durationTicks": 114,
          "midi": 60,
          "name": "C4",
          "ticks": 151200,
          "time": 101.91571804583334,
          "velocity": 0.7874015748031497
        },
        {
          "duration": 0.0778686499999992,
          "durationTicks": 114,
          "midi": 62,
          "name": "D4",
          "ticks": 151337,
          "time": 102.0092970375,
          "velocity": 0.7874015748031497
        },
        {
          "duration": 0.07855170833333602,
          "durationTicks": 115,
          "midi": 63,
          "name": "D#4",
          "ticks": 151474,
          "time": 102.10287602916668,
          "velocity": 0.7874015748031497
        },
        {
          "duration": 0.07855170833332181,
          "durationTicks": 115,
          "midi": 67,
          "name": "G4",
          "ticks": 151611,
          "time": 102.19645502083335,
          "velocity": 0.7874015748031497
        },
        {
          "duration": 0.0778686499999992,
          "durationTicks": 114,
          "midi": 68,
          "name": "G#4",
          "ticks": 151749,
          "time": 102.29071707083335,
          "velocity": 0.7874015748031497
        },
        {
          "duration": 0.0778686499999992,
          "durationTicks": 114,
          "midi": 72,
          "name": "C5",
          "ticks": 151886,
          "time": 102.38429606250001,
          "velocity": 0.7874015748031497
        },
        {
          "duration": 0.0778686499999992,
          "durationTicks": 114,
          "midi": 74,
          "name": "D5",
          "ticks": 152023,
          "time": 102.47787505416667,
          "velocity": 0.7874015748031497
        },
        {
          "duration": 0.0778686499999992,
          "durationTicks": 114,
          "midi": 60,
          "name": "C4",
          "ticks": 152160,
          "time": 102.57145404583335,
          "velocity": 0.7874015748031497
        },
        {
          "duration": 0.0778686499999992,
          "durationTicks": 114,
          "midi": 62,
          "name": "D4",
          "ticks": 152297,
          "time": 102.66503303750001,
          "velocity": 0.7874015748031497
        },
        {
          "duration": 0.07855170833333602,
          "durationTicks": 115,
          "midi": 63,
          "name": "D#4",
          "ticks": 152434,
          "time": 102.75861202916668,
          "velocity": 0.7874015748031497
        },
        {
          "duration": 0.07855170833333602,
          "durationTicks": 115,
          "midi": 67,
          "name": "G4",
          "ticks": 152571,
          "time": 102.85219102083335,
          "velocity": 0.7874015748031497
        },
        {
          "duration": 0.0778686499999992,
          "durationTicks": 114,
          "midi": 68,
          "name": "G#4",
          "ticks": 152709,
          "time": 102.94645307083334,
          "velocity": 0.7874015748031497
        },
        {
          "duration": 0.0778686499999992,
          "durationTicks": 114,
          "midi": 72,
          "name": "C5",
          "ticks": 152846,
          "time": 103.04003206250002,
          "velocity": 0.7874015748031497
        },
        {
          "duration": 0.0778686499999992,
          "durationTicks": 114,
          "midi": 74,
          "name": "D5",
          "ticks": 152983,
          "time": 103.13361105416668,
          "velocity": 0.7874015748031497
        },
        {
          "duration": 0.0778686499999992,
          "durationTicks": 114,
          "midi": 75,
          "name": "D#5",
          "ticks": 153120,
          "time": 103.22719004583334,
          "velocity": 0.7874015748031497
        },
        {
          "duration": 0.0778686499999992,
          "durationTicks": 114,
          "midi": 74,
          "name": "D5",
          "ticks": 153257,
          "time": 103.32076903750001,
          "velocity": 0.7874015748031497
        },
        {
          "duration": 0.07855170833332181,
          "durationTicks": 115,
          "midi": 72,
          "name": "C5",
          "ticks": 153394,
          "time": 103.41434802916669,
          "velocity": 0.7874015748031497
        },
        {
          "duration": 0.07855170833333602,
          "durationTicks": 115,
          "midi": 68,
          "name": "G#4",
          "ticks": 153531,
          "time": 103.50792702083335,
          "velocity": 0.7874015748031497
        },
        {
          "duration": 0.0778686499999992,
          "durationTicks": 114,
          "midi": 67,
          "name": "G4",
          "ticks": 153669,
          "time": 103.60218907083335,
          "velocity": 0.7874015748031497
        },
        {
          "duration": 0.0778686499999992,
          "durationTicks": 114,
          "midi": 63,
          "name": "D#4",
          "ticks": 153806,
          "time": 103.69576806250001,
          "velocity": 0.7874015748031497
        },
        {
          "duration": 0.0778686499999992,
          "durationTicks": 114,
          "midi": 62,
          "name": "D4",
          "ticks": 153943,
          "time": 103.78934705416668,
          "velocity": 0.7874015748031497
        },
        {
          "duration": 0.06625665833333017,
          "durationTicks": 97,
          "midi": 63,
          "name": "D#4",
          "ticks": 154080,
          "time": 103.88292604583334,
          "velocity": 0.7874015748031497
        },
        {
          "duration": 0.06625665833333017,
          "durationTicks": 97,
          "midi": 65,
          "name": "F4",
          "ticks": 154200,
          "time": 103.96489304583335,
          "velocity": 0.7874015748031497
        },
        {
          "duration": 0.06625665833334438,
          "durationTicks": 97,
          "midi": 66,
          "name": "F#4",
          "ticks": 154320,
          "time": 104.04686004583334,
          "velocity": 0.7874015748031497
        },
        {
          "duration": 0.06625665833333017,
          "durationTicks": 97,
          "midi": 70,
          "name": "A#4",
          "ticks": 154440,
          "time": 104.12882704583335,
          "velocity": 0.7874015748031497
        },
        {
          "duration": 0.06625665833333017,
          "durationTicks": 97,
          "midi": 71,
          "name": "B4",
          "ticks": 154560,
          "time": 104.21079404583335,
          "velocity": 0.7874015748031497
        },
        {
          "duration": 0.06625665833334438,
          "durationTicks": 97,
          "midi": 75,
          "name": "D#5",
          "ticks": 154680,
          "time": 104.29276104583334,
          "velocity": 0.7874015748031497
        },
        {
          "duration": 0.06625665833333017,
          "durationTicks": 97,
          "midi": 77,
          "name": "F5",
          "ticks": 154800,
          "time": 104.37472804583335,
          "velocity": 0.7874015748031497
        },
        {
          "duration": 0.06625665833333017,
          "durationTicks": 97,
          "midi": 78,
          "name": "F#5",
          "ticks": 154920,
          "time": 104.45669504583334,
          "velocity": 0.7874015748031497
        },
        {
          "duration": 0.06625665833333017,
          "durationTicks": 97,
          "midi": 63,
          "name": "D#4",
          "ticks": 155040,
          "time": 104.53866204583335,
          "velocity": 0.7874015748031497
        },
        {
          "duration": 0.06625665833334438,
          "durationTicks": 97,
          "midi": 65,
          "name": "F4",
          "ticks": 155160,
          "time": 104.62062904583334,
          "velocity": 0.7874015748031497
        },
        {
          "duration": 0.06625665833333017,
          "durationTicks": 97,
          "midi": 66,
          "name": "F#4",
          "ticks": 155280,
          "time": 104.70259604583335,
          "velocity": 0.7874015748031497
        },
        {
          "duration": 0.06625665833333017,
          "durationTicks": 97,
          "midi": 70,
          "name": "A#4",
          "ticks": 155400,
          "time": 104.78456304583335,
          "velocity": 0.7874015748031497
        },
        {
          "duration": 0.06625665833334438,
          "durationTicks": 97,
          "midi": 71,
          "name": "B4",
          "ticks": 155520,
          "time": 104.86653004583334,
          "velocity": 0.7874015748031497
        },
        {
          "duration": 0.06625665833333017,
          "durationTicks": 97,
          "midi": 75,
          "name": "D#5",
          "ticks": 155640,
          "time": 104.94849704583335,
          "velocity": 0.7874015748031497
        },
        {
          "duration": 0.06625665833333017,
          "durationTicks": 97,
          "midi": 77,
          "name": "F5",
          "ticks": 155760,
          "time": 105.03046404583336,
          "velocity": 0.7874015748031497
        },
        {
          "duration": 0.06625665833333017,
          "durationTicks": 97,
          "midi": 78,
          "name": "F#5",
          "ticks": 155880,
          "time": 105.11243104583335,
          "velocity": 0.7874015748031497
        },
        {
          "duration": 0.06625665833334438,
          "durationTicks": 97,
          "midi": 63,
          "name": "D#4",
          "ticks": 156000,
          "time": 105.19439804583334,
          "velocity": 0.7874015748031497
        },
        {
          "duration": 0.06625665833333017,
          "durationTicks": 97,
          "midi": 65,
          "name": "F4",
          "ticks": 156120,
          "time": 105.27636504583334,
          "velocity": 0.7874015748031497
        },
        {
          "duration": 0.06625665833333017,
          "durationTicks": 97,
          "midi": 66,
          "name": "F#4",
          "ticks": 156240,
          "time": 105.35833204583335,
          "velocity": 0.7874015748031497
        },
        {
          "duration": 0.06625665833334438,
          "durationTicks": 97,
          "midi": 70,
          "name": "A#4",
          "ticks": 156360,
          "time": 105.44029904583334,
          "velocity": 0.7874015748031497
        },
        {
          "duration": 0.06625665833333017,
          "durationTicks": 97,
          "midi": 71,
          "name": "B4",
          "ticks": 156480,
          "time": 105.52226604583335,
          "velocity": 0.7874015748031497
        },
        {
          "duration": 0.06625665833333017,
          "durationTicks": 97,
          "midi": 75,
          "name": "D#5",
          "ticks": 156600,
          "time": 105.60423304583335,
          "velocity": 0.7874015748031497
        },
        {
          "duration": 0.06625665833333017,
          "durationTicks": 97,
          "midi": 77,
          "name": "F5",
          "ticks": 156720,
          "time": 105.68620004583335,
          "velocity": 0.7874015748031497
        },
        {
          "duration": 0.06625665833333017,
          "durationTicks": 97,
          "midi": 78,
          "name": "F#5",
          "ticks": 156840,
          "time": 105.76816704583335,
          "velocity": 0.7874015748031497
        },
        {
          "duration": 0.06625665833333017,
          "durationTicks": 97,
          "midi": 82,
          "name": "A#5",
          "ticks": 156960,
          "time": 105.85013404583334,
          "velocity": 0.7874015748031497
        },
        {
          "duration": 0.06625665833333017,
          "durationTicks": 97,
          "midi": 78,
          "name": "F#5",
          "ticks": 157080,
          "time": 105.93210104583335,
          "velocity": 0.7874015748031497
        },
        {
          "duration": 0.06625665833334438,
          "durationTicks": 97,
          "midi": 77,
          "name": "F5",
          "ticks": 157200,
          "time": 106.01406804583334,
          "velocity": 0.7874015748031497
        },
        {
          "duration": 0.06625665833333017,
          "durationTicks": 97,
          "midi": 75,
          "name": "D#5",
          "ticks": 157320,
          "time": 106.09603504583335,
          "velocity": 0.7874015748031497
        },
        {
          "duration": 0.06625665833333017,
          "durationTicks": 97,
          "midi": 71,
          "name": "B4",
          "ticks": 157440,
          "time": 106.17800204583335,
          "velocity": 0.7874015748031497
        },
        {
          "duration": 0.06625665833334438,
          "durationTicks": 97,
          "midi": 70,
          "name": "A#4",
          "ticks": 157560,
          "time": 106.25996904583334,
          "velocity": 0.7874015748031497
        },
        {
          "duration": 0.06625665833333017,
          "durationTicks": 97,
          "midi": 66,
          "name": "F#4",
          "ticks": 157680,
          "time": 106.34193604583335,
          "velocity": 0.7874015748031497
        },
        {
          "duration": 0.06625665833331595,
          "durationTicks": 97,
          "midi": 65,
          "name": "F4",
          "ticks": 157800,
          "time": 106.42390304583336,
          "velocity": 0.7874015748031497
        },
        {
          "duration": 0.06625665833333017,
          "durationTicks": 97,
          "midi": 63,
          "name": "D#4",
          "ticks": 157920,
          "time": 106.50587004583335,
          "velocity": 0.7874015748031497
        },
        {
          "duration": 0.06625665833334438,
          "durationTicks": 97,
          "midi": 65,
          "name": "F4",
          "ticks": 158040,
          "time": 106.58783704583334,
          "velocity": 0.7874015748031497
        },
        {
          "duration": 0.06625665833333017,
          "durationTicks": 97,
          "midi": 66,
          "name": "F#4",
          "ticks": 158160,
          "time": 106.66980404583335,
          "velocity": 0.7874015748031497
        },
        {
          "duration": 0.06625665833333017,
          "durationTicks": 97,
          "midi": 70,
          "name": "A#4",
          "ticks": 158280,
          "time": 106.75177104583335,
          "velocity": 0.7874015748031497
        },
        {
          "duration": 0.06625665833334438,
          "durationTicks": 97,
          "midi": 71,
          "name": "B4",
          "ticks": 158400,
          "time": 106.83373804583334,
          "velocity": 0.7874015748031497
        },
        {
          "duration": 0.06625665833333017,
          "durationTicks": 97,
          "midi": 75,
          "name": "D#5",
          "ticks": 158520,
          "time": 106.91570504583335,
          "velocity": 0.7874015748031497
        },
        {
          "duration": 0.06625665833331595,
          "durationTicks": 97,
          "midi": 77,
          "name": "F5",
          "ticks": 158640,
          "time": 106.99767204583335,
          "velocity": 0.7874015748031497
        },
        {
          "duration": 0.06625665833334438,
          "durationTicks": 97,
          "midi": 78,
          "name": "F#5",
          "ticks": 158760,
          "time": 107.07963904583335,
          "velocity": 0.7874015748031497
        },
        {
          "duration": 0.030737625000000435,
          "durationTicks": 45,
          "midi": 63,
          "name": "D#4",
          "ticks": 158880,
          "time": 107.16160604583334,
          "velocity": 0.7874015748031497
        },
        {
          "duration": 0.030737625000000435,
          "durationTicks": 45,
          "midi": 65,
          "name": "F4",
          "ticks": 159000,
          "time": 107.24357304583334,
          "velocity": 0.7874015748031497
        },
        {
          "duration": 0.030737625000000435,
          "durationTicks": 45,
          "midi": 66,
          "name": "F#4",
          "ticks": 159120,
          "time": 107.32554004583335,
          "velocity": 0.7874015748031497
        },
        {
          "duration": 0.030737625000000435,
          "durationTicks": 45,
          "midi": 70,
          "name": "A#4",
          "ticks": 159240,
          "time": 107.40750704583334,
          "velocity": 0.7874015748031497
        },
        {
          "duration": 0.030737625000000435,
          "durationTicks": 45,
          "midi": 71,
          "name": "B4",
          "ticks": 159360,
          "time": 107.48947404583335,
          "velocity": 0.7874015748031497
        },
        {
          "duration": 0.030737625000000435,
          "durationTicks": 45,
          "midi": 75,
          "name": "D#5",
          "ticks": 159480,
          "time": 107.57144104583335,
          "velocity": 0.7874015748031497
        },
        {
          "duration": 0.030737625000000435,
          "durationTicks": 45,
          "midi": 77,
          "name": "F5",
          "ticks": 159600,
          "time": 107.65340804583334,
          "velocity": 0.7874015748031497
        },
        {
          "duration": 0.030737625000000435,
          "durationTicks": 45,
          "midi": 78,
          "name": "F#5",
          "ticks": 159720,
          "time": 107.73537504583334,
          "velocity": 0.7874015748031497
        },
        {
          "duration": 0.06625665833331595,
          "durationTicks": 97,
          "midi": 63,
          "name": "D#4",
          "ticks": 159840,
          "time": 107.81734204583336,
          "velocity": 0.7874015748031497
        },
        {
          "duration": 0.06625665833333017,
          "durationTicks": 97,
          "midi": 65,
          "name": "F4",
          "ticks": 159960,
          "time": 107.89930904583335,
          "velocity": 0.7874015748031497
        },
        {
          "duration": 0.06625665833334438,
          "durationTicks": 97,
          "midi": 66,
          "name": "F#4",
          "ticks": 160080,
          "time": 107.98127604583334,
          "velocity": 0.7874015748031497
        },
        {
          "duration": 0.06625665833333017,
          "durationTicks": 97,
          "midi": 70,
          "name": "A#4",
          "ticks": 160200,
          "time": 108.06324304583335,
          "velocity": 0.7874015748031497
        },
        {
          "duration": 0.06625665833333017,
          "durationTicks": 97,
          "midi": 71,
          "name": "B4",
          "ticks": 160320,
          "time": 108.14521004583335,
          "velocity": 0.7874015748031497
        },
        {
          "duration": 0.06625665833334438,
          "durationTicks": 97,
          "midi": 75,
          "name": "D#5",
          "ticks": 160440,
          "time": 108.22717704583334,
          "velocity": 0.7874015748031497
        },
        {
          "duration": 0.06625665833333017,
          "durationTicks": 97,
          "midi": 77,
          "name": "F5",
          "ticks": 160560,
          "time": 108.30914404583335,
          "velocity": 0.7874015748031497
        },
        {
          "duration": 0.06625665833331595,
          "durationTicks": 97,
          "midi": 78,
          "name": "F#5",
          "ticks": 160680,
          "time": 108.39111104583336,
          "velocity": 0.7874015748031497
        },
        {
          "duration": 0.06625665833333017,
          "durationTicks": 97,
          "midi": 82,
          "name": "A#5",
          "ticks": 160800,
          "time": 108.47307804583335,
          "velocity": 0.7874015748031497
        },
        {
          "duration": 0.06625665833334438,
          "durationTicks": 97,
          "midi": 78,
          "name": "F#5",
          "ticks": 160920,
          "time": 108.55504504583334,
          "velocity": 0.7874015748031497
        },
        {
          "duration": 0.06625665833333017,
          "durationTicks": 97,
          "midi": 77,
          "name": "F5",
          "ticks": 161040,
          "time": 108.63701204583334,
          "velocity": 0.7874015748031497
        },
        {
          "duration": 0.06625665833333017,
          "durationTicks": 97,
          "midi": 75,
          "name": "D#5",
          "ticks": 161160,
          "time": 108.71897904583335,
          "velocity": 0.7874015748031497
        },
        {
          "duration": 0.06625665833334438,
          "durationTicks": 97,
          "midi": 71,
          "name": "B4",
          "ticks": 161280,
          "time": 108.80094604583334,
          "velocity": 0.7874015748031497
        },
        {
          "duration": 0.06625665833333017,
          "durationTicks": 97,
          "midi": 70,
          "name": "A#4",
          "ticks": 161400,
          "time": 108.88291304583335,
          "velocity": 0.7874015748031497
        },
        {
          "duration": 0.06625665833333017,
          "durationTicks": 97,
          "midi": 66,
          "name": "F#4",
          "ticks": 161520,
          "time": 108.96488004583335,
          "velocity": 0.7874015748031497
        },
        {
          "duration": 0.06625665833334438,
          "durationTicks": 97,
          "midi": 65,
          "name": "F4",
          "ticks": 161640,
          "time": 109.04684704583335,
          "velocity": 0.7874015748031497
        },
        {
          "duration": 0.47609165833334544,
          "durationTicks": 697,
          "midi": 70,
          "name": "A#4",
          "ticks": 161760,
          "time": 109.12881404583334,
          "velocity": 0.7874015748031497
        },
        {
          "duration": 0.14822365833333606,
          "durationTicks": 217,
          "midi": 71,
          "name": "B4",
          "ticks": 162480,
          "time": 109.62061604583334,
          "velocity": 0.7874015748031497
        },
        {
          "duration": 0.31215765833331943,
          "durationTicks": 457,
          "midi": 75,
          "name": "D#5",
          "ticks": 162720,
          "time": 109.78455004583336,
          "velocity": 0.7874015748031497
        },
        {
          "duration": 0.31215765833331943,
          "durationTicks": 457,
          "midi": 71,
          "name": "B4",
          "ticks": 163200,
          "time": 110.11241804583335,
          "velocity": 0.7874015748031497
        },
        {
          "duration": 0.32786799999999516,
          "durationTicks": 480,
          "midi": 70,
          "name": "A#4",
          "ticks": 163680,
          "time": 110.44028604583335,
          "velocity": 0.7874015748031497
        },
        {
          "duration": 0.0819670000000059,
          "durationTicks": 120,
          "midi": 70,
          "name": "A#4",
          "ticks": 164160,
          "time": 110.76815404583334,
          "velocity": 0.7874015748031497
        },
        {
          "duration": 0.08196699999999169,
          "durationTicks": 120,
          "midi": 70,
          "name": "A#4",
          "ticks": 164400,
          "time": 110.93208804583335,
          "velocity": 0.7874015748031497
        },
        {
          "duration": 0.08196700000002011,
          "durationTicks": 120,
          "midi": 66,
          "name": "F#4",
          "ticks": 164640,
          "time": 111.09602204583334,
          "velocity": 0.7874015748031497
        },
        {
          "duration": 0.08196699999999169,
          "durationTicks": 120,
          "midi": 66,
          "name": "F#4",
          "ticks": 164880,
          "time": 111.25995604583335,
          "velocity": 0.7874015748031497
        },
        {
          "duration": 0.0819670000000059,
          "durationTicks": 120,
          "midi": 66,
          "name": "F#4",
          "ticks": 165120,
          "time": 111.42389004583335,
          "velocity": 0.7874015748031497
        },
        {
          "duration": 0.06382974999999647,
          "durationTicks": 120,
          "midi": 68,
          "name": "G#4",
          "ticks": 175200,
          "time": 118.64049004583336,
          "velocity": 0.7874015748031497
        },
        {
          "duration": 0.06382974999999647,
          "durationTicks": 120,
          "midi": 68,
          "name": "G#4",
          "ticks": 175680,
          "time": 118.89580904583336,
          "velocity": 0.7874015748031497
        },
        {
          "duration": 0.05882350000000258,
          "durationTicks": 120,
          "midi": 68,
          "name": "G#4",
          "ticks": 176160,
          "time": 119.15112804583336,
          "velocity": 0.7874015748031497
        },
        {
          "duration": 0.05882349999998837,
          "durationTicks": 120,
          "midi": 68,
          "name": "G#4",
          "ticks": 176400,
          "time": 119.26877504583337,
          "velocity": 0.7874015748031497
        },
        {
          "duration": 0.05882350000000258,
          "durationTicks": 120,
          "midi": 68,
          "name": "G#4",
          "ticks": 176640,
          "time": 119.38642204583336,
          "velocity": 0.7874015748031497
        },
        {
          "duration": 0.2181810000000013,
          "durationTicks": 480,
          "midi": 68,
          "name": "G#4",
          "ticks": 176880,
          "time": 119.50406904583336,
          "velocity": 0.7874015748031497
        },
        {
          "duration": 0.054545250000003875,
          "durationTicks": 120,
          "midi": 67,
          "name": "G4",
          "ticks": 177360,
          "time": 119.72225004583336,
          "velocity": 0.7874015748031497
        },
        {
          "duration": 0.054545250000003875,
          "durationTicks": 120,
          "midi": 68,
          "name": "G#4",
          "ticks": 177600,
          "time": 119.83134054583336,
          "velocity": 0.7874015748031497
        },
        {
          "duration": 0.054545250000003875,
          "durationTicks": 120,
          "midi": 67,
          "name": "G4",
          "ticks": 177840,
          "time": 119.94043104583336,
          "velocity": 0.7874015748031497
        },
        {
          "duration": 0.054545250000003875,
          "durationTicks": 120,
          "midi": 68,
          "name": "G#4",
          "ticks": 178080,
          "time": 120.04952154583336,
          "velocity": 0.7874015748031497
        },
        {
          "duration": 0.054545249999989665,
          "durationTicks": 120,
          "midi": 67,
          "name": "G4",
          "ticks": 178320,
          "time": 120.15861204583337,
          "velocity": 0.7874015748031497
        },
        {
          "duration": 0.054545250000003875,
          "durationTicks": 120,
          "midi": 68,
          "name": "G#4",
          "ticks": 178560,
          "time": 120.26770254583336,
          "velocity": 0.7874015748031497
        },
        {
          "duration": 0.054545249999989665,
          "durationTicks": 120,
          "midi": 67,
          "name": "G4",
          "ticks": 178800,
          "time": 120.37679304583337,
          "velocity": 0.7874015748031497
        },
        {
          "duration": 0.054545250000003875,
          "durationTicks": 120,
          "midi": 68,
          "name": "G#4",
          "ticks": 179040,
          "time": 120.48588354583336,
          "velocity": 0.7874015748031497
        },
        {
          "duration": 0.054545249999989665,
          "durationTicks": 120,
          "midi": 67,
          "name": "G4",
          "ticks": 179280,
          "time": 120.59497404583337,
          "velocity": 0.7874015748031497
        },
        {
          "duration": 0.054545250000003875,
          "durationTicks": 120,
          "midi": 68,
          "name": "G#4",
          "ticks": 179520,
          "time": 120.70406454583336,
          "velocity": 0.7874015748031497
        },
        {
          "duration": 0.054545250000003875,
          "durationTicks": 120,
          "midi": 67,
          "name": "G4",
          "ticks": 179760,
          "time": 120.81315504583335,
          "velocity": 0.7874015748031497
        },
        {
          "duration": 0.054545250000003875,
          "durationTicks": 120,
          "midi": 68,
          "name": "G#4",
          "ticks": 180000,
          "time": 120.92224554583336,
          "velocity": 0.7874015748031497
        },
        {
          "duration": 0.054545250000003875,
          "durationTicks": 120,
          "midi": 68,
          "name": "G#4",
          "ticks": 180240,
          "time": 121.03133604583336,
          "velocity": 0.7874015748031497
        },
        {
          "duration": 0.054545250000003875,
          "durationTicks": 120,
          "midi": 68,
          "name": "G#4",
          "ticks": 180480,
          "time": 121.14042654583336,
          "velocity": 0.7874015748031497
        },
        {
          "duration": 0.2181810000000013,
          "durationTicks": 480,
          "midi": 68,
          "name": "G#4",
          "ticks": 180720,
          "time": 121.24951704583336,
          "velocity": 0.7874015748031497
        },
        {
          "duration": 0.054545250000003875,
          "durationTicks": 120,
          "midi": 70,
          "name": "A#4",
          "ticks": 181200,
          "time": 121.46769804583336,
          "velocity": 0.7874015748031497
        },
        {
          "duration": 0.054545249999989665,
          "durationTicks": 120,
          "midi": 73,
          "name": "C#5",
          "ticks": 181440,
          "time": 121.57678854583337,
          "velocity": 0.7874015748031497
        },
        {
          "duration": 0.054545250000003875,
          "durationTicks": 120,
          "midi": 75,
          "name": "D#5",
          "ticks": 181680,
          "time": 121.68587904583336,
          "velocity": 0.7874015748031497
        },
        {
          "duration": 0.054545249999989665,
          "durationTicks": 120,
          "midi": 68,
          "name": "G#4",
          "ticks": 181920,
          "time": 121.79496954583337,
          "velocity": 0.7874015748031497
        },
        {
          "duration": 0.054545250000003875,
          "durationTicks": 120,
          "midi": 70,
          "name": "A#4",
          "ticks": 182160,
          "time": 121.90406004583336,
          "velocity": 0.7874015748031497
        },
        {
          "duration": 0.054545250000003875,
          "durationTicks": 120,
          "midi": 73,
          "name": "C#5",
          "ticks": 182400,
          "time": 122.01315054583335,
          "velocity": 0.7874015748031497
        },
        {
          "duration": 0.054545250000003875,
          "durationTicks": 120,
          "midi": 75,
          "name": "D#5",
          "ticks": 182640,
          "time": 122.12224104583336,
          "velocity": 0.7874015748031497
        },
        {
          "duration": 0.054545250000003875,
          "durationTicks": 120,
          "midi": 68,
          "name": "G#4",
          "ticks": 182880,
          "time": 122.23133154583336,
          "velocity": 0.7874015748031497
        },
        {
          "duration": 0.054545250000003875,
          "durationTicks": 120,
          "midi": 70,
          "name": "A#4",
          "ticks": 183120,
          "time": 122.34042204583336,
          "velocity": 0.7874015748031497
        },
        {
          "duration": 0.054545250000003875,
          "durationTicks": 120,
          "midi": 73,
          "name": "C#5",
          "ticks": 183360,
          "time": 122.44951254583336,
          "velocity": 0.7874015748031497
        },
        {
          "duration": 0.054545249999989665,
          "durationTicks": 120,
          "midi": 75,
          "name": "D#5",
          "ticks": 183600,
          "time": 122.55860304583337,
          "velocity": 0.7874015748031497
        },
        {
          "duration": 0.2181810000000013,
          "durationTicks": 480,
          "midi": 77,
          "name": "F5",
          "ticks": 183840,
          "time": 122.66769354583336,
          "velocity": 0.7874015748031497
        },
        {
          "duration": 0.054545250000003875,
          "durationTicks": 120,
          "midi": 75,
          "name": "D#5",
          "ticks": 184320,
          "time": 122.88587454583336,
          "velocity": 0.7874015748031497
        },
        {
          "duration": 0.21818099999998708,
          "durationTicks": 480,
          "midi": 72,
          "name": "C5",
          "ticks": 184560,
          "time": 122.99496504583337,
          "velocity": 0.7874015748031497
        },
        {
          "duration": 0.054545250000003875,
          "durationTicks": 120,
          "midi": 71,
          "name": "B4",
          "ticks": 185040,
          "time": 123.21314604583335,
          "velocity": 0.7874015748031497
        },
        {
          "duration": 0.054545250000003875,
          "durationTicks": 120,
          "midi": 72,
          "name": "C5",
          "ticks": 185280,
          "time": 123.32223654583336,
          "velocity": 0.7874015748031497
        },
        {
          "duration": 0.054545250000003875,
          "durationTicks": 120,
          "midi": 71,
          "name": "B4",
          "ticks": 185520,
          "time": 123.43132704583336,
          "velocity": 0.7874015748031497
        },
        {
          "duration": 0.054545250000003875,
          "durationTicks": 120,
          "midi": 72,
          "name": "C5",
          "ticks": 185760,
          "time": 123.54041754583336,
          "velocity": 0.7874015748031497
        },
        {
          "duration": 0.054545250000003875,
          "durationTicks": 120,
          "midi": 72,
          "name": "C5",
          "ticks": 186000,
          "time": 123.64950804583336,
          "velocity": 0.7874015748031497
        },
        {
          "duration": 0.054545249999989665,
          "durationTicks": 120,
          "midi": 72,
          "name": "C5",
          "ticks": 186240,
          "time": 123.75859854583337,
          "velocity": 0.7874015748031497
        },
        {
          "duration": 0.054545250000003875,
          "durationTicks": 120,
          "midi": 72,
          "name": "C5",
          "ticks": 186480,
          "time": 123.86768904583336,
          "velocity": 0.7874015748031497
        },
        {
          "duration": 0.054545249999989665,
          "durationTicks": 120,
          "midi": 71,
          "name": "B4",
          "ticks": 186720,
          "time": 123.97677954583337,
          "velocity": 0.7874015748031497
        },
        {
          "duration": 0.054545250000003875,
          "durationTicks": 120,
          "midi": 72,
          "name": "C5",
          "ticks": 186960,
          "time": 124.08587004583336,
          "velocity": 0.7874015748031497
        },
        {
          "duration": 0.054545249999989665,
          "durationTicks": 120,
          "midi": 71,
          "name": "B4",
          "ticks": 187200,
          "time": 124.19496054583337,
          "velocity": 0.7874015748031497
        },
        {
          "duration": 0.054545250000003875,
          "durationTicks": 120,
          "midi": 72,
          "name": "C5",
          "ticks": 187440,
          "time": 124.30405104583336,
          "velocity": 0.7874015748031497
        },
        {
          "duration": 0.054545250000003875,
          "durationTicks": 120,
          "midi": 73,
          "name": "C#5",
          "ticks": 187680,
          "time": 124.41314154583335,
          "velocity": 0.7874015748031497
        },
        {
          "duration": 0.054545250000003875,
          "durationTicks": 120,
          "midi": 72,
          "name": "C5",
          "ticks": 187920,
          "time": 124.52223204583336,
          "velocity": 0.7874015748031497
        },
        {
          "duration": 0.054545250000003875,
          "durationTicks": 120,
          "midi": 71,
          "name": "B4",
          "ticks": 188160,
          "time": 124.63132254583336,
          "velocity": 0.7874015748031497
        },
        {
          "duration": 0.16363574999999742,
          "durationTicks": 360,
          "midi": 70,
          "name": "A#4",
          "ticks": 188400,
          "time": 124.74041304583336,
          "velocity": 0.7874015748031497
        },
        {
          "duration": 0.054545249999989665,
          "durationTicks": 120,
          "midi": 70,
          "name": "A#4",
          "ticks": 188880,
          "time": 124.95859404583337,
          "velocity": 0.7874015748031497
        },
        {
          "duration": 0.054545250000003875,
          "durationTicks": 120,
          "midi": 70,
          "name": "A#4",
          "ticks": 189120,
          "time": 125.06768454583336,
          "velocity": 0.7874015748031497
        },
        {
          "duration": 0.054545249999989665,
          "durationTicks": 120,
          "midi": 70,
          "name": "A#4",
          "ticks": 189360,
          "time": 125.17677504583337,
          "velocity": 0.7874015748031497
        },
        {
          "duration": 0.054545250000003875,
          "durationTicks": 120,
          "midi": 70,
          "name": "A#4",
          "ticks": 189600,
          "time": 125.28586554583336,
          "velocity": 0.7874015748031497
        },
        {
          "duration": 0.054545249999989665,
          "durationTicks": 120,
          "midi": 69,
          "name": "A4",
          "ticks": 189840,
          "time": 125.39495604583337,
          "velocity": 0.7874015748031497
        },
        {
          "duration": 0.054545250000003875,
          "durationTicks": 120,
          "midi": 69,
          "name": "A4",
          "ticks": 190080,
          "time": 125.50404654583336,
          "velocity": 0.7874015748031497
        },
        {
          "duration": 0.054545250000003875,
          "durationTicks": 120,
          "midi": 69,
          "name": "A4",
          "ticks": 190320,
          "time": 125.61313704583335,
          "velocity": 0.7874015748031497
        },
        {
          "duration": 0.04999999999999716,
          "durationTicks": 120,
          "midi": 68,
          "name": "G#4",
          "ticks": 190560,
          "time": 125.72222754583336,
          "velocity": 0.7874015748031497
        },
        {
          "duration": 0.05000000000001137,
          "durationTicks": 120,
          "midi": 68,
          "name": "G#4",
          "ticks": 190800,
          "time": 125.82222754583336,
          "velocity": 0.7874015748031497
        },
        {
          "duration": 0.04999999999999716,
          "durationTicks": 120,
          "midi": 68,
          "name": "G#4",
          "ticks": 191040,
          "time": 125.92222754583337,
          "velocity": 0.7874015748031497
        },
        {
          "duration": 0.04999999999999716,
          "durationTicks": 120,
          "midi": 68,
          "name": "G#4",
          "ticks": 191280,
          "time": 126.02222754583336,
          "velocity": 0.7874015748031497
        },
        {
          "duration": 0.04999999999999716,
          "durationTicks": 120,
          "midi": 68,
          "name": "G#4",
          "ticks": 191520,
          "time": 126.12222754583337,
          "velocity": 0.7874015748031497
        },
        {
          "duration": 0.04999999999999716,
          "durationTicks": 120,
          "midi": 68,
          "name": "G#4",
          "ticks": 191760,
          "time": 126.22222754583336,
          "velocity": 0.7874015748031497
        },
        {
          "duration": 0.05000000000001137,
          "durationTicks": 120,
          "midi": 68,
          "name": "G#4",
          "ticks": 192000,
          "time": 126.32222754583336,
          "velocity": 0.7874015748031497
        },
        {
          "duration": 0.19061489166666945,
          "durationTicks": 480,
          "midi": 68,
          "name": "G#4",
          "ticks": 192240,
          "time": 126.42222754583337,
          "velocity": 0.7874015748031497
        },
        {
          "duration": 0.04761899999999741,
          "durationTicks": 120,
          "midi": 67,
          "name": "G4",
          "ticks": 192720,
          "time": 126.61284243750003,
          "velocity": 0.7874015748031497
        },
        {
          "duration": 0.04761899999999741,
          "durationTicks": 120,
          "midi": 68,
          "name": "G#4",
          "ticks": 192960,
          "time": 126.70808043750003,
          "velocity": 0.7874015748031497
        },
        {
          "duration": 0.047619000000011624,
          "durationTicks": 120,
          "midi": 67,
          "name": "G4",
          "ticks": 193200,
          "time": 126.80331843750002,
          "velocity": 0.7874015748031497
        },
        {
          "duration": 0.04761899999999741,
          "durationTicks": 120,
          "midi": 68,
          "name": "G#4",
          "ticks": 193440,
          "time": 126.89855643750003,
          "velocity": 0.7874015748031497
        },
        {
          "duration": 0.04761899999999741,
          "durationTicks": 120,
          "midi": 67,
          "name": "G4",
          "ticks": 193680,
          "time": 126.99379443750003,
          "velocity": 0.7874015748031497
        },
        {
          "duration": 0.047619000000011624,
          "durationTicks": 120,
          "midi": 68,
          "name": "G#4",
          "ticks": 193920,
          "time": 127.08903243750002,
          "velocity": 0.7874015748031497
        },
        {
          "duration": 0.04761899999999741,
          "durationTicks": 120,
          "midi": 67,
          "name": "G4",
          "ticks": 194160,
          "time": 127.18427043750003,
          "velocity": 0.7874015748031497
        },
        {
          "duration": 0.04761899999999741,
          "durationTicks": 120,
          "midi": 68,
          "name": "G#4",
          "ticks": 194400,
          "time": 127.27950843750003,
          "velocity": 0.7874015748031497
        },
        {
          "duration": 0.04761899999999741,
          "durationTicks": 120,
          "midi": 67,
          "name": "G4",
          "ticks": 194640,
          "time": 127.37474643750004,
          "velocity": 0.7874015748031497
        },
        {
          "duration": 0.04761899999999741,
          "durationTicks": 120,
          "midi": 68,
          "name": "G#4",
          "ticks": 194880,
          "time": 127.46998443750003,
          "velocity": 0.7874015748031497
        },
        {
          "duration": 0.04761899999999741,
          "durationTicks": 120,
          "midi": 67,
          "name": "G4",
          "ticks": 195120,
          "time": 127.56522243750003,
          "velocity": 0.7874015748031497
        },
        {
          "duration": 0.04761899999999741,
          "durationTicks": 120,
          "midi": 68,
          "name": "G#4",
          "ticks": 195360,
          "time": 127.66046043750003,
          "velocity": 0.7874015748031497
        },
        {
          "duration": 0.04761899999999741,
          "durationTicks": 120,
          "midi": 68,
          "name": "G#4",
          "ticks": 195600,
          "time": 127.75569843750003,
          "velocity": 0.7874015748031497
        },
        {
          "duration": 0.047619000000011624,
          "durationTicks": 120,
          "midi": 68,
          "name": "G#4",
          "ticks": 195840,
          "time": 127.85093643750002,
          "velocity": 0.7874015748031497
        },
        {
          "duration": 0.19047600000000386,
          "durationTicks": 480,
          "midi": 68,
          "name": "G#4",
          "ticks": 196080,
          "time": 127.94617443750003,
          "velocity": 0.7874015748031497
        },
        {
          "duration": 0.04761899999999741,
          "durationTicks": 120,
          "midi": 70,
          "name": "A#4",
          "ticks": 196560,
          "time": 128.13665043750004,
          "velocity": 0.7874015748031497
        },
        {
          "duration": 0.04761899999999741,
          "durationTicks": 120,
          "midi": 73,
          "name": "C#5",
          "ticks": 196800,
          "time": 128.23188843750003,
          "velocity": 0.7874015748031497
        },
        {
          "duration": 0.04761899999999741,
          "durationTicks": 120,
          "midi": 75,
          "name": "D#5",
          "ticks": 197040,
          "time": 128.32712643750003,
          "velocity": 0.7874015748031497
        },
        {
          "duration": 0.04761899999999741,
          "durationTicks": 120,
          "midi": 68,
          "name": "G#4",
          "ticks": 197280,
          "time": 128.42236443750002,
          "velocity": 0.7874015748031497
        },
        {
          "duration": 0.047619000000025835,
          "durationTicks": 120,
          "midi": 70,
          "name": "A#4",
          "ticks": 197520,
          "time": 128.51760243750002,
          "velocity": 0.7874015748031497
        },
        {
          "duration": 0.04761899999999741,
          "durationTicks": 120,
          "midi": 73,
          "name": "C#5",
          "ticks": 197760,
          "time": 128.61284043750004,
          "velocity": 0.7874015748031497
        },
        {
          "duration": 0.04761899999999741,
          "durationTicks": 120,
          "midi": 75,
          "name": "D#5",
          "ticks": 198000,
          "time": 128.70807843750003,
          "velocity": 0.7874015748031497
        },
        {
          "duration": 0.04761899999999741,
          "durationTicks": 120,
          "midi": 68,
          "name": "G#4",
          "ticks": 198240,
          "time": 128.80331643750003,
          "velocity": 0.7874015748031497
        },
        {
          "duration": 0.04761899999999741,
          "durationTicks": 120,
          "midi": 70,
          "name": "A#4",
          "ticks": 198480,
          "time": 128.89855443750002,
          "velocity": 0.7874015748031497
        },
        {
          "duration": 0.04761899999999741,
          "durationTicks": 120,
          "midi": 73,
          "name": "C#5",
          "ticks": 198720,
          "time": 128.99379243750002,
          "velocity": 0.7874015748031497
        },
        {
          "duration": 0.04761899999999741,
          "durationTicks": 120,
          "midi": 75,
          "name": "D#5",
          "ticks": 198960,
          "time": 129.08903043750004,
          "velocity": 0.7874015748031497
        },
        {
          "duration": 0.19047599999998965,
          "durationTicks": 480,
          "midi": 77,
          "name": "F5",
          "ticks": 199200,
          "time": 129.18426843750004,
          "velocity": 0.7874015748031497
        },
        {
          "duration": 0.04761899999999741,
          "durationTicks": 120,
          "midi": 75,
          "name": "D#5",
          "ticks": 199680,
          "time": 129.37474443750003,
          "velocity": 0.7874015748031497
        },
        {
          "duration": 0.19047600000001808,
          "durationTicks": 480,
          "midi": 72,
          "name": "C5",
          "ticks": 199920,
          "time": 129.46998243750002,
          "velocity": 0.7874015748031497
        },
        {
          "duration": 0.04761899999999741,
          "durationTicks": 120,
          "midi": 71,
          "name": "B4",
          "ticks": 200400,
          "time": 129.66045843750004,
          "velocity": 0.7874015748031497
        },
        {
          "duration": 0.04761899999999741,
          "durationTicks": 120,
          "midi": 72,
          "name": "C5",
          "ticks": 200640,
          "time": 129.75569643750003,
          "velocity": 0.7874015748031497
        },
        {
          "duration": 0.04761899999999741,
          "durationTicks": 120,
          "midi": 71,
          "name": "B4",
          "ticks": 200880,
          "time": 129.85093443750003,
          "velocity": 0.7874015748031497
        },
        {
          "duration": 0.04761899999999741,
          "durationTicks": 120,
          "midi": 72,
          "name": "C5",
          "ticks": 201120,
          "time": 129.94617243750002,
          "velocity": 0.7874015748031497
        },
        {
          "duration": 0.04761899999999741,
          "durationTicks": 120,
          "midi": 72,
          "name": "C5",
          "ticks": 201360,
          "time": 130.04141043750002,
          "velocity": 0.7874015748031497
        },
        {
          "duration": 0.04761899999999741,
          "durationTicks": 120,
          "midi": 72,
          "name": "C5",
          "ticks": 201600,
          "time": 130.13664843750004,
          "velocity": 0.7874015748031497
        },
        {
          "duration": 0.04761899999999741,
          "durationTicks": 120,
          "midi": 72,
          "name": "C5",
          "ticks": 201840,
          "time": 130.23188643750004,
          "velocity": 0.7874015748031497
        },
        {
          "duration": 0.04761899999999741,
          "durationTicks": 120,
          "midi": 71,
          "name": "B4",
          "ticks": 202080,
          "time": 130.32712443750003,
          "velocity": 0.7874015748031497
        },
        {
          "duration": 0.04761899999999741,
          "durationTicks": 120,
          "midi": 72,
          "name": "C5",
          "ticks": 202320,
          "time": 130.42236243750003,
          "velocity": 0.7874015748031497
        },
        {
          "duration": 0.04761899999999741,
          "durationTicks": 120,
          "midi": 71,
          "name": "B4",
          "ticks": 202560,
          "time": 130.51760043750002,
          "velocity": 0.7874015748031497
        },
        {
          "duration": 0.047619000000025835,
          "durationTicks": 120,
          "midi": 72,
          "name": "C5",
          "ticks": 202800,
          "time": 130.61283843750002,
          "velocity": 0.7874015748031497
        },
        {
          "duration": 0.04761899999999741,
          "durationTicks": 120,
          "midi": 73,
          "name": "C#5",
          "ticks": 203040,
          "time": 130.70807643750004,
          "velocity": 0.7874015748031497
        },
        {
          "duration": 0.04761899999999741,
          "durationTicks": 120,
          "midi": 72,
          "name": "C5",
          "ticks": 203280,
          "time": 130.80331443750003,
          "velocity": 0.7874015748031497
        },
        {
          "duration": 0.04761899999999741,
          "durationTicks": 120,
          "midi": 71,
          "name": "B4",
          "ticks": 203520,
          "time": 130.89855243750003,
          "velocity": 0.7874015748031497
        },
        {
          "duration": 0.14285699999999224,
          "durationTicks": 360,
          "midi": 70,
          "name": "A#4",
          "ticks": 203760,
          "time": 130.99379043750002,
          "velocity": 0.7874015748031497
        },
        {
          "duration": 0.04761899999999741,
          "durationTicks": 120,
          "midi": 70,
          "name": "A#4",
          "ticks": 204240,
          "time": 131.18426643750004,
          "velocity": 0.7874015748031497
        },
        {
          "duration": 0.04761899999999741,
          "durationTicks": 120,
          "midi": 70,
          "name": "A#4",
          "ticks": 204480,
          "time": 131.27950443750004,
          "velocity": 0.7874015748031497
        },
        {
          "duration": 0.04761899999999741,
          "durationTicks": 120,
          "midi": 70,
          "name": "A#4",
          "ticks": 204720,
          "time": 131.37474243750003,
          "velocity": 0.7874015748031497
        },
        {
          "duration": 0.04761899999999741,
          "durationTicks": 120,
          "midi": 70,
          "name": "A#4",
          "ticks": 204960,
          "time": 131.46998043750003,
          "velocity": 0.7874015748031497
        },
        {
          "duration": 0.04761899999999741,
          "durationTicks": 120,
          "midi": 69,
          "name": "A4",
          "ticks": 205200,
          "time": 131.56521843750002,
          "velocity": 0.7874015748031497
        },
        {
          "duration": 0.047619000000025835,
          "durationTicks": 120,
          "midi": 68,
          "name": "G#4",
          "ticks": 205440,
          "time": 131.66045643750002,
          "velocity": 0.7874015748031497
        },
        {
          "duration": 0.04761899999999741,
          "durationTicks": 120,
          "midi": 67,
          "name": "G4",
          "ticks": 205680,
          "time": 131.75569443750004,
          "velocity": 0.7874015748031497
        },
        {
          "duration": 0.04761899999999741,
          "durationTicks": 120,
          "midi": 68,
          "name": "G#4",
          "ticks": 205920,
          "time": 131.85093243750003,
          "velocity": 0.7874015748031497
        },
        {
          "duration": 0.04761899999999741,
          "durationTicks": 120,
          "midi": 70,
          "name": "A#4",
          "ticks": 206160,
          "time": 131.94617043750003,
          "velocity": 0.7874015748031497
        },
        {
          "duration": 0.04761899999999741,
          "durationTicks": 120,
          "midi": 73,
          "name": "C#5",
          "ticks": 206400,
          "time": 132.04140843750002,
          "velocity": 0.7874015748031497
        },
        {
          "duration": 0.04761899999999741,
          "durationTicks": 120,
          "midi": 72,
          "name": "C5",
          "ticks": 206640,
          "time": 132.13664643750002,
          "velocity": 0.7874015748031497
        },
        {
          "duration": 0.054545249999989665,
          "durationTicks": 120,
          "midi": 73,
          "name": "C#5",
          "ticks": 206880,
          "time": 132.2318844375,
          "velocity": 0.7874015748031497
        },
        {
          "duration": 0.1290539249999938,
          "durationTicks": 191,
          "midi": 73,
          "name": "C#5",
          "ticks": 207840,
          "time": 132.83083443750002,
          "velocity": 0.7874015748031497
        },
        {
          "duration": 0.1290539249999938,
          "durationTicks": 191,
          "midi": 68,
          "name": "G#4",
          "ticks": 208200,
          "time": 133.07407743750002,
          "velocity": 0.7874015748031497
        },
        {
          "duration": 0.1290539249999938,
          "durationTicks": 191,
          "midi": 72,
          "name": "C5",
          "ticks": 208560,
          "time": 133.31732043750003,
          "velocity": 0.7874015748031497
        },
        {
          "duration": 0.11104620624999484,
          "durationTicks": 191,
          "midi": 73,
          "name": "C#5",
          "ticks": 208800,
          "time": 133.47948243750002,
          "velocity": 0.7874015748031497
        },
        {
          "duration": 0.11104620624999484,
          "durationTicks": 191,
          "midi": 68,
          "name": "G#4",
          "ticks": 209160,
          "time": 133.68878418750003,
          "velocity": 0.7874015748031497
        },
        {
          "duration": 0.11104620625002326,
          "durationTicks": 191,
          "midi": 72,
          "name": "C5",
          "ticks": 209520,
          "time": 133.8980859375,
          "velocity": 0.7874015748031497
        },
        {
          "duration": 0.10380412291667085,
          "durationTicks": 191,
          "midi": 73,
          "name": "C#5",
          "ticks": 209760,
          "time": 134.03762043750004,
          "velocity": 0.7874015748031497
        },
        {
          "duration": 0.10380412291667085,
          "durationTicks": 191,
          "midi": 68,
          "name": "G#4",
          "ticks": 210120,
          "time": 134.23327218750003,
          "velocity": 0.7874015748031497
        },
        {
          "duration": 0.10380412291667085,
          "durationTicks": 191,
          "midi": 72,
          "name": "C5",
          "ticks": 210480,
          "time": 134.42892393750003,
          "velocity": 0.7874015748031497
        },
        {
          "duration": 0.09549999999998704,
          "durationTicks": 191,
          "midi": 73,
          "name": "C#5",
          "ticks": 210720,
          "time": 134.55935843750004,
          "velocity": 0.7874015748031497
        },
        {
          "duration": 0.09549999999998704,
          "durationTicks": 191,
          "midi": 68,
          "name": "G#4",
          "ticks": 211080,
          "time": 134.73935843750004,
          "velocity": 0.7874015748031497
        },
        {
          "duration": 0.09549999999998704,
          "durationTicks": 191,
          "midi": 72,
          "name": "C5",
          "ticks": 211440,
          "time": 134.91935843750005,
          "velocity": 0.7874015748031497
        },
        {
          "duration": 0.08842583750001154,
          "durationTicks": 191,
          "midi": 73,
          "name": "C#5",
          "ticks": 211680,
          "time": 135.03935843750003,
          "velocity": 0.7874015748031497
        },
        {
          "duration": 0.08842583750001154,
          "durationTicks": 191,
          "midi": 68,
          "name": "G#4",
          "ticks": 212040,
          "time": 135.20602493750002,
          "velocity": 0.7874015748031497
        },
        {
          "duration": 0.08842583749998312,
          "durationTicks": 191,
          "midi": 72,
          "name": "C5",
          "ticks": 212400,
          "time": 135.37269143750004,
          "velocity": 0.7874015748031497
        },
        {
          "duration": 0.08377180416667329,
          "durationTicks": 191,
          "midi": 73,
          "name": "C#5",
          "ticks": 212640,
          "time": 135.48380243750003,
          "velocity": 0.7874015748031497
        },
        {
          "duration": 0.08377180416667329,
          "durationTicks": 191,
          "midi": 68,
          "name": "G#4",
          "ticks": 213000,
          "time": 135.64169693750003,
          "velocity": 0.7874015748031497
        },
        {
          "duration": 0.08377180416667329,
          "durationTicks": 191,
          "midi": 72,
          "name": "C5",
          "ticks": 213360,
          "time": 135.79959143750003,
          "velocity": 0.7874015748031497
        },
        {
          "duration": 0.07958333333334622,
          "durationTicks": 191,
          "midi": 73,
          "name": "C#5",
          "ticks": 213600,
          "time": 135.90485443750003,
          "velocity": 0.7874015748031497
        },
        {
          "duration": 0.0795833333333178,
          "durationTicks": 191,
          "midi": 68,
          "name": "G#4",
          "ticks": 213960,
          "time": 136.05485443750004,
          "velocity": 0.7874015748031497
        },
        {
          "duration": 0.0795833333333178,
          "durationTicks": 191,
          "midi": 72,
          "name": "C5",
          "ticks": 214320,
          "time": 136.20485443750005,
          "velocity": 0.7874015748031497
        },
        {
          "duration": 0.07579357500000583,
          "durationTicks": 191,
          "midi": 73,
          "name": "C#5",
          "ticks": 214560,
          "time": 136.30485443750004,
          "velocity": 0.7874015748031497
        },
        {
          "duration": 0.07579357500000583,
          "durationTicks": 191,
          "midi": 68,
          "name": "G#4",
          "ticks": 214920,
          "time": 136.44771143750003,
          "velocity": 0.7874015748031497
        },
        {
          "duration": 3.0476189999999974,
          "durationTicks": 240,
          "midi": 60,
          "name": "C4",
          "ticks": 215280,
          "time": 136.59056843750005,
          "velocity": 0.7874015748031497
        }
      ],
      "endOfTrackTicks": 215520
    },
    {
      "channel": 0,
      "controlChanges": {},
      "pitchBends": [],
      "instrument": {
        "family": "piano",
        "number": 0,
        "name": "acoustic grand piano"
      },
      "name": "SANA_8bit_VST 02",
      "notes": [
        {
          "duration": 0.06849300000000014,
          "durationTicks": 120,
          "midi": 64,
          "name": "E4",
          "ticks": 33360,
          "time": 23.199945,
          "velocity": 0.7165354330708661
        },
        {
          "duration": 0.06849300000000014,
          "durationTicks": 120,
          "midi": 67,
          "name": "G4",
          "ticks": 33360,
          "time": 23.199945,
          "velocity": 0.6929133858267716
        },
        {
          "duration": 0.06849300000000014,
          "durationTicks": 120,
          "midi": 71,
          "name": "B4",
          "ticks": 33360,
          "time": 23.199945,
          "velocity": 0.6062992125984252
        },
        {
          "duration": 0.06849299999999658,
          "durationTicks": 120,
          "midi": 64,
          "name": "E4",
          "ticks": 33840,
          "time": 23.473917,
          "velocity": 0.7165354330708661
        },
        {
          "duration": 0.06849299999999658,
          "durationTicks": 120,
          "midi": 67,
          "name": "G4",
          "ticks": 33840,
          "time": 23.473917,
          "velocity": 0.6535433070866141
        },
        {
          "duration": 0.06849299999999658,
          "durationTicks": 120,
          "midi": 71,
          "name": "B4",
          "ticks": 33840,
          "time": 23.473917,
          "velocity": 0.5905511811023622
        },
        {
          "duration": 0.06849299999999658,
          "durationTicks": 120,
          "midi": 59,
          "name": "B3",
          "ticks": 34080,
          "time": 23.610903,
          "velocity": 0.6299212598425197
        },
        {
          "duration": 0.06849299999999658,
          "durationTicks": 120,
          "midi": 63,
          "name": "D#4",
          "ticks": 34080,
          "time": 23.610903,
          "velocity": 0.6456692913385826
        },
        {
          "duration": 0.06849299999999658,
          "durationTicks": 120,
          "midi": 66,
          "name": "F#4",
          "ticks": 34080,
          "time": 23.610903,
          "velocity": 0.49606299212598426
        }
      ],
      "endOfTrackTicks": 34200
    },
    {
      "channel": 0,
      "controlChanges": {},
      "pitchBends": [],
      "instrument": {
        "family": "piano",
        "number": 0,
        "name": "acoustic grand piano"
      },
      "name": "09_Chord",
      "notes": [
        {
          "duration": 0.07999980000000018,
          "durationTicks": 96,
          "midi": 59,
          "name": "B3",
          "ticks": 1920,
          "time": 1.599996,
          "velocity": 0.7795275590551181
        },
        {
          "duration": 0.07999979999999995,
          "durationTicks": 96,
          "midi": 59,
          "name": "B3",
          "ticks": 2208,
          "time": 1.8399953999999998,
          "velocity": 0.7874015748031497
        },
        {
          "duration": 0.07999979999999995,
          "durationTicks": 96,
          "midi": 63,
          "name": "D#4",
          "ticks": 2208,
          "time": 1.8399953999999998,
          "velocity": 0.6850393700787402
        },
        {
          "duration": 0.07999979999999995,
          "durationTicks": 96,
          "midi": 66,
          "name": "F#4",
          "ticks": 2208,
          "time": 1.8399953999999998,
          "velocity": 0.7322834645669292
        },
        {
          "duration": 0.07999980000000018,
          "durationTicks": 96,
          "midi": 54,
          "name": "F#3",
          "ticks": 2400,
          "time": 1.999995,
          "velocity": 0.7874015748031497
        },
        {
          "duration": 0.0799998000000004,
          "durationTicks": 96,
          "midi": 59,
          "name": "B3",
          "ticks": 2688,
          "time": 2.2399943999999996,
          "velocity": 0.7874015748031497
        },
        {
          "duration": 0.0799998000000004,
          "durationTicks": 96,
          "midi": 63,
          "name": "D#4",
          "ticks": 2688,
          "time": 2.2399943999999996,
          "velocity": 0.6850393700787402
        },
        {
          "duration": 0.0799998000000004,
          "durationTicks": 96,
          "midi": 66,
          "name": "F#4",
          "ticks": 2688,
          "time": 2.2399943999999996,
          "velocity": 0.7322834645669292
        },
        {
          "duration": 0.07999979999999995,
          "durationTicks": 96,
          "midi": 59,
          "name": "B3",
          "ticks": 2880,
          "time": 2.399994,
          "velocity": 0.7795275590551181
        },
        {
          "duration": 0.07999979999999995,
          "durationTicks": 96,
          "midi": 59,
          "name": "B3",
          "ticks": 3168,
          "time": 2.6399934,
          "velocity": 0.7874015748031497
        },
        {
          "duration": 0.07999979999999995,
          "durationTicks": 96,
          "midi": 63,
          "name": "D#4",
          "ticks": 3168,
          "time": 2.6399934,
          "velocity": 0.6850393700787402
        },
        {
          "duration": 0.07999979999999995,
          "durationTicks": 96,
          "midi": 66,
          "name": "F#4",
          "ticks": 3168,
          "time": 2.6399934,
          "velocity": 0.7322834645669292
        },
        {
          "duration": 0.0799998000000004,
          "durationTicks": 96,
          "midi": 54,
          "name": "F#3",
          "ticks": 3360,
          "time": 2.7999929999999997,
          "velocity": 0.7874015748031497
        },
        {
          "duration": 0.0799998000000004,
          "durationTicks": 96,
          "midi": 59,
          "name": "B3",
          "ticks": 3648,
          "time": 3.0399923999999996,
          "velocity": 0.7874015748031497
        },
        {
          "duration": 0.0799998000000004,
          "durationTicks": 96,
          "midi": 63,
          "name": "D#4",
          "ticks": 3648,
          "time": 3.0399923999999996,
          "velocity": 0.6850393700787402
        },
        {
          "duration": 0.0799998000000004,
          "durationTicks": 96,
          "midi": 66,
          "name": "F#4",
          "ticks": 3648,
          "time": 3.0399923999999996,
          "velocity": 0.7322834645669292
        },
        {
          "duration": 0.07999979999999951,
          "durationTicks": 96,
          "midi": 59,
          "name": "B3",
          "ticks": 3840,
          "time": 3.199992,
          "velocity": 0.7795275590551181
        },
        {
          "duration": 0.0799998000000004,
          "durationTicks": 96,
          "midi": 59,
          "name": "B3",
          "ticks": 4128,
          "time": 3.4399914,
          "velocity": 0.7874015748031497
        },
        {
          "duration": 0.0799998000000004,
          "durationTicks": 96,
          "midi": 63,
          "name": "D#4",
          "ticks": 4128,
          "time": 3.4399914,
          "velocity": 0.6850393700787402
        },
        {
          "duration": 0.0799998000000004,
          "durationTicks": 96,
          "midi": 66,
          "name": "F#4",
          "ticks": 4128,
          "time": 3.4399914,
          "velocity": 0.7322834645669292
        },
        {
          "duration": 0.07999979999999951,
          "durationTicks": 96,
          "midi": 54,
          "name": "F#3",
          "ticks": 4320,
          "time": 3.599991,
          "velocity": 0.7874015748031497
        },
        {
          "duration": 0.07999980000000084,
          "durationTicks": 96,
          "midi": 59,
          "name": "B3",
          "ticks": 4608,
          "time": 3.8399903999999996,
          "velocity": 0.7874015748031497
        },
        {
          "duration": 0.07999980000000084,
          "durationTicks": 96,
          "midi": 63,
          "name": "D#4",
          "ticks": 4608,
          "time": 3.8399903999999996,
          "velocity": 0.6850393700787402
        },
        {
          "duration": 0.07999980000000084,
          "durationTicks": 96,
          "midi": 66,
          "name": "F#4",
          "ticks": 4608,
          "time": 3.8399903999999996,
          "velocity": 0.7322834645669292
        },
        {
          "duration": 0.07999979999999995,
          "durationTicks": 96,
          "midi": 59,
          "name": "B3",
          "ticks": 4800,
          "time": 3.99999,
          "velocity": 0.7795275590551181
        },
        {
          "duration": 0.0799998000000004,
          "durationTicks": 96,
          "midi": 59,
          "name": "B3",
          "ticks": 5088,
          "time": 4.2399894,
          "velocity": 0.7874015748031497
        },
        {
          "duration": 0.0799998000000004,
          "durationTicks": 96,
          "midi": 63,
          "name": "D#4",
          "ticks": 5088,
          "time": 4.2399894,
          "velocity": 0.6850393700787402
        },
        {
          "duration": 0.0799998000000004,
          "durationTicks": 96,
          "midi": 66,
          "name": "F#4",
          "ticks": 5088,
          "time": 4.2399894,
          "velocity": 0.7322834645669292
        },
        {
          "duration": 0.07999979999999951,
          "durationTicks": 96,
          "midi": 54,
          "name": "F#3",
          "ticks": 5280,
          "time": 4.399989,
          "velocity": 0.7874015748031497
        },
        {
          "duration": 0.0799998000000004,
          "durationTicks": 96,
          "midi": 59,
          "name": "B3",
          "ticks": 5568,
          "time": 4.6399884,
          "velocity": 0.7874015748031497
        },
        {
          "duration": 0.0799998000000004,
          "durationTicks": 96,
          "midi": 63,
          "name": "D#4",
          "ticks": 5568,
          "time": 4.6399884,
          "velocity": 0.6850393700787402
        },
        {
          "duration": 0.0799998000000004,
          "durationTicks": 96,
          "midi": 66,
          "name": "F#4",
          "ticks": 5568,
          "time": 4.6399884,
          "velocity": 0.7322834645669292
        },
        {
          "duration": 0.07999979999999951,
          "durationTicks": 96,
          "midi": 60,
          "name": "C4",
          "ticks": 5760,
          "time": 4.799988,
          "velocity": 0.7795275590551181
        },
        {
          "duration": 0.07999980000000129,
          "durationTicks": 96,
          "midi": 60,
          "name": "C4",
          "ticks": 6048,
          "time": 5.039987399999999,
          "velocity": 0.7874015748031497
        },
        {
          "duration": 0.07999980000000129,
          "durationTicks": 96,
          "midi": 64,
          "name": "E4",
          "ticks": 6048,
          "time": 5.039987399999999,
          "velocity": 0.6850393700787402
        },
        {
          "duration": 0.07999980000000129,
          "durationTicks": 96,
          "midi": 67,
          "name": "G4",
          "ticks": 6048,
          "time": 5.039987399999999,
          "velocity": 0.7322834645669292
        },
        {
          "duration": 0.07999979999999951,
          "durationTicks": 96,
          "midi": 55,
          "name": "G3",
          "ticks": 6240,
          "time": 5.199987,
          "velocity": 0.7874015748031497
        },
        {
          "duration": 0.0799998000000004,
          "durationTicks": 96,
          "midi": 60,
          "name": "C4",
          "ticks": 6528,
          "time": 5.4399863999999996,
          "velocity": 0.7874015748031497
        },
        {
          "duration": 0.0799998000000004,
          "durationTicks": 96,
          "midi": 64,
          "name": "E4",
          "ticks": 6528,
          "time": 5.4399863999999996,
          "velocity": 0.6850393700787402
        },
        {
          "duration": 0.0799998000000004,
          "durationTicks": 96,
          "midi": 67,
          "name": "G4",
          "ticks": 6528,
          "time": 5.4399863999999996,
          "velocity": 0.7322834645669292
        },
        {
          "duration": 0.0799998000000004,
          "durationTicks": 96,
          "midi": 60,
          "name": "C4",
          "ticks": 6720,
          "time": 5.5999859999999995,
          "velocity": 0.7795275590551181
        },
        {
          "duration": 0.0799998000000004,
          "durationTicks": 96,
          "midi": 60,
          "name": "C4",
          "ticks": 7008,
          "time": 5.8399854,
          "velocity": 0.7874015748031497
        },
        {
          "duration": 0.0799998000000004,
          "durationTicks": 96,
          "midi": 64,
          "name": "E4",
          "ticks": 7008,
          "time": 5.8399854,
          "velocity": 0.6850393700787402
        },
        {
          "duration": 0.0799998000000004,
          "durationTicks": 96,
          "midi": 67,
          "name": "G4",
          "ticks": 7008,
          "time": 5.8399854,
          "velocity": 0.7322834645669292
        },
        {
          "duration": 0.07999979999999951,
          "durationTicks": 96,
          "midi": 55,
          "name": "G3",
          "ticks": 7200,
          "time": 5.999985,
          "velocity": 0.7874015748031497
        },
        {
          "duration": 0.0799998000000004,
          "durationTicks": 96,
          "midi": 60,
          "name": "C4",
          "ticks": 7488,
          "time": 6.2399844,
          "velocity": 0.7874015748031497
        },
        {
          "duration": 0.0799998000000004,
          "durationTicks": 96,
          "midi": 64,
          "name": "E4",
          "ticks": 7488,
          "time": 6.2399844,
          "velocity": 0.6850393700787402
        },
        {
          "duration": 0.0799998000000004,
          "durationTicks": 96,
          "midi": 67,
          "name": "G4",
          "ticks": 7488,
          "time": 6.2399844,
          "velocity": 0.7322834645669292
        },
        {
          "duration": 0.15999959999999902,
          "durationTicks": 192,
          "midi": 59,
          "name": "B3",
          "ticks": 7680,
          "time": 6.399984,
          "velocity": 0.7874015748031497
        },
        {
          "duration": 0.15999959999999902,
          "durationTicks": 192,
          "midi": 60,
          "name": "C4",
          "ticks": 7680,
          "time": 6.399984,
          "velocity": 0.7795275590551181
        },
        {
          "duration": 0.1599995999999999,
          "durationTicks": 192,
          "midi": 59,
          "name": "B3",
          "ticks": 7968,
          "time": 6.6399834,
          "velocity": 0.7874015748031497
        },
        {
          "duration": 0.1599995999999999,
          "durationTicks": 192,
          "midi": 60,
          "name": "C4",
          "ticks": 7968,
          "time": 6.6399834,
          "velocity": 0.7795275590551181
        },
        {
          "duration": 0.07999979999999951,
          "durationTicks": 96,
          "midi": 59,
          "name": "B3",
          "ticks": 8160,
          "time": 6.799983,
          "velocity": 0.7795275590551181
        },
        {
          "duration": 0.07999979999999951,
          "durationTicks": 96,
          "midi": 59,
          "name": "B3",
          "ticks": 8448,
          "time": 7.0399824,
          "velocity": 0.7874015748031497
        },
        {
          "duration": 0.07999979999999951,
          "durationTicks": 96,
          "midi": 63,
          "name": "D#4",
          "ticks": 8448,
          "time": 7.0399824,
          "velocity": 0.6850393700787402
        },
        {
          "duration": 0.07999979999999951,
          "durationTicks": 96,
          "midi": 66,
          "name": "F#4",
          "ticks": 8448,
          "time": 7.0399824,
          "velocity": 0.7322834645669292
        },
        {
          "duration": 0.07999979999999951,
          "durationTicks": 96,
          "midi": 54,
          "name": "F#3",
          "ticks": 8640,
          "time": 7.199982,
          "velocity": 0.7874015748031497
        },
        {
          "duration": 0.07999979999999951,
          "durationTicks": 96,
          "midi": 59,
          "name": "B3",
          "ticks": 8928,
          "time": 7.439981400000001,
          "velocity": 0.7874015748031497
        },
        {
          "duration": 0.07999979999999951,
          "durationTicks": 96,
          "midi": 63,
          "name": "D#4",
          "ticks": 8928,
          "time": 7.439981400000001,
          "velocity": 0.6850393700787402
        },
        {
          "duration": 0.07999979999999951,
          "durationTicks": 96,
          "midi": 66,
          "name": "F#4",
          "ticks": 8928,
          "time": 7.439981400000001,
          "velocity": 0.7322834645669292
        },
        {
          "duration": 0.07999979999999951,
          "durationTicks": 96,
          "midi": 59,
          "name": "B3",
          "ticks": 9120,
          "time": 7.599981,
          "velocity": 0.7795275590551181
        },
        {
          "duration": 0.07999979999999951,
          "durationTicks": 96,
          "midi": 59,
          "name": "B3",
          "ticks": 9408,
          "time": 7.839980400000001,
          "velocity": 0.7874015748031497
        },
        {
          "duration": 0.07999979999999951,
          "durationTicks": 96,
          "midi": 63,
          "name": "D#4",
          "ticks": 9408,
          "time": 7.839980400000001,
          "velocity": 0.6850393700787402
        },
        {
          "duration": 0.07999979999999951,
          "durationTicks": 96,
          "midi": 66,
          "name": "F#4",
          "ticks": 9408,
          "time": 7.839980400000001,
          "velocity": 0.7322834645669292
        },
        {
          "duration": 0.0799998000000004,
          "durationTicks": 96,
          "midi": 54,
          "name": "F#3",
          "ticks": 9600,
          "time": 7.99998,
          "velocity": 0.7874015748031497
        },
        {
          "duration": 0.07999979999999951,
          "durationTicks": 96,
          "midi": 59,
          "name": "B3",
          "ticks": 9888,
          "time": 8.239979400000001,
          "velocity": 0.7874015748031497
        },
        {
          "duration": 0.07999979999999951,
          "durationTicks": 96,
          "midi": 63,
          "name": "D#4",
          "ticks": 9888,
          "time": 8.239979400000001,
          "velocity": 0.6850393700787402
        },
        {
          "duration": 0.07999979999999951,
          "durationTicks": 96,
          "midi": 66,
          "name": "F#4",
          "ticks": 9888,
          "time": 8.239979400000001,
          "velocity": 0.7322834645669292
        },
        {
          "duration": 0.07999979999999951,
          "durationTicks": 96,
          "midi": 60,
          "name": "C4",
          "ticks": 10080,
          "time": 8.399979,
          "velocity": 0.7795275590551181
        },
        {
          "duration": 0.07999979999999951,
          "durationTicks": 96,
          "midi": 60,
          "name": "C4",
          "ticks": 10368,
          "time": 8.6399784,
          "velocity": 0.7874015748031497
        },
        {
          "duration": 0.07999979999999951,
          "durationTicks": 96,
          "midi": 64,
          "name": "E4",
          "ticks": 10368,
          "time": 8.6399784,
          "velocity": 0.6850393700787402
        },
        {
          "duration": 0.07999979999999951,
          "durationTicks": 96,
          "midi": 67,
          "name": "G4",
          "ticks": 10368,
          "time": 8.6399784,
          "velocity": 0.7322834645669292
        },
        {
          "duration": 0.07999979999999951,
          "durationTicks": 96,
          "midi": 55,
          "name": "G3",
          "ticks": 10560,
          "time": 8.799978,
          "velocity": 0.7874015748031497
        },
        {
          "duration": 0.07999980000000129,
          "durationTicks": 96,
          "midi": 60,
          "name": "C4",
          "ticks": 10848,
          "time": 9.0399774,
          "velocity": 0.7874015748031497
        },
        {
          "duration": 0.07999980000000129,
          "durationTicks": 96,
          "midi": 64,
          "name": "E4",
          "ticks": 10848,
          "time": 9.0399774,
          "velocity": 0.6850393700787402
        },
        {
          "duration": 0.07999980000000129,
          "durationTicks": 96,
          "midi": 67,
          "name": "G4",
          "ticks": 10848,
          "time": 9.0399774,
          "velocity": 0.7322834645669292
        },
        {
          "duration": 0.07999979999999951,
          "durationTicks": 96,
          "midi": 61,
          "name": "C#4",
          "ticks": 11040,
          "time": 9.199977,
          "velocity": 0.7795275590551181
        },
        {
          "duration": 0.07999979999999951,
          "durationTicks": 96,
          "midi": 61,
          "name": "C#4",
          "ticks": 11328,
          "time": 9.4399764,
          "velocity": 0.7874015748031497
        },
        {
          "duration": 0.07999979999999951,
          "durationTicks": 96,
          "midi": 65,
          "name": "F4",
          "ticks": 11328,
          "time": 9.4399764,
          "velocity": 0.6850393700787402
        },
        {
          "duration": 0.07999979999999951,
          "durationTicks": 96,
          "midi": 68,
          "name": "G#4",
          "ticks": 11328,
          "time": 9.4399764,
          "velocity": 0.7322834645669292
        },
        {
          "duration": 0.07999979999999951,
          "durationTicks": 96,
          "midi": 56,
          "name": "G#3",
          "ticks": 11520,
          "time": 9.599976,
          "velocity": 0.7874015748031497
        },
        {
          "duration": 0.07999979999999951,
          "durationTicks": 96,
          "midi": 61,
          "name": "C#4",
          "ticks": 11808,
          "time": 9.8399754,
          "velocity": 0.7874015748031497
        },
        {
          "duration": 0.07999979999999951,
          "durationTicks": 96,
          "midi": 65,
          "name": "F4",
          "ticks": 11808,
          "time": 9.8399754,
          "velocity": 0.6850393700787402
        },
        {
          "duration": 0.07999979999999951,
          "durationTicks": 96,
          "midi": 68,
          "name": "G#4",
          "ticks": 11808,
          "time": 9.8399754,
          "velocity": 0.7322834645669292
        },
        {
          "duration": 0.07999979999999951,
          "durationTicks": 96,
          "midi": 62,
          "name": "D4",
          "ticks": 12000,
          "time": 9.999975,
          "velocity": 0.7795275590551181
        },
        {
          "duration": 0.07999979999999951,
          "durationTicks": 96,
          "midi": 62,
          "name": "D4",
          "ticks": 12288,
          "time": 10.239974400000001,
          "velocity": 0.7874015748031497
        },
        {
          "duration": 0.07999979999999951,
          "durationTicks": 96,
          "midi": 66,
          "name": "F#4",
          "ticks": 12288,
          "time": 10.239974400000001,
          "velocity": 0.6850393700787402
        },
        {
          "duration": 0.07999979999999951,
          "durationTicks": 96,
          "midi": 69,
          "name": "A4",
          "ticks": 12288,
          "time": 10.239974400000001,
          "velocity": 0.7322834645669292
        },
        {
          "duration": 0.07999979999999951,
          "durationTicks": 96,
          "midi": 57,
          "name": "A3",
          "ticks": 12480,
          "time": 10.399974,
          "velocity": 0.7874015748031497
        },
        {
          "duration": 0.07999979999999951,
          "durationTicks": 96,
          "midi": 63,
          "name": "D#4",
          "ticks": 12768,
          "time": 10.6399734,
          "velocity": 0.7874015748031497
        },
        {
          "duration": 0.07999979999999951,
          "durationTicks": 96,
          "midi": 67,
          "name": "G4",
          "ticks": 12768,
          "time": 10.6399734,
          "velocity": 0.6850393700787402
        },
        {
          "duration": 0.07999979999999951,
          "durationTicks": 96,
          "midi": 70,
          "name": "A#4",
          "ticks": 12768,
          "time": 10.6399734,
          "velocity": 0.7322834645669292
        },
        {
          "duration": 0.07999979999999951,
          "durationTicks": 96,
          "midi": 64,
          "name": "E4",
          "ticks": 12960,
          "time": 10.799973,
          "velocity": 0.7795275590551181
        },
        {
          "duration": 0.07999979999999951,
          "durationTicks": 96,
          "midi": 64,
          "name": "E4",
          "ticks": 13248,
          "time": 11.0399724,
          "velocity": 0.7874015748031497
        },
        {
          "duration": 0.07999979999999951,
          "durationTicks": 96,
          "midi": 68,
          "name": "G#4",
          "ticks": 13248,
          "time": 11.0399724,
          "velocity": 0.6850393700787402
        },
        {
          "duration": 0.07999979999999951,
          "durationTicks": 96,
          "midi": 71,
          "name": "B4",
          "ticks": 13248,
          "time": 11.0399724,
          "velocity": 0.7322834645669292
        },
        {
          "duration": 0.07999980000000129,
          "durationTicks": 96,
          "midi": 60,
          "name": "C4",
          "ticks": 13440,
          "time": 11.199971999999999,
          "velocity": 0.7874015748031497
        },
        {
          "duration": 0.07999979999999951,
          "durationTicks": 96,
          "midi": 65,
          "name": "F4",
          "ticks": 13728,
          "time": 11.439971400000001,
          "velocity": 0.7874015748031497
        },
        {
          "duration": 0.07999979999999951,
          "durationTicks": 96,
          "midi": 69,
          "name": "A4",
          "ticks": 13728,
          "time": 11.439971400000001,
          "velocity": 0.6850393700787402
        },
        {
          "duration": 0.07999979999999951,
          "durationTicks": 96,
          "midi": 72,
          "name": "C5",
          "ticks": 13728,
          "time": 11.439971400000001,
          "velocity": 0.7322834645669292
        },
        {
          "duration": 0.07999979999999951,
          "durationTicks": 96,
          "midi": 66,
          "name": "F#4",
          "ticks": 13920,
          "time": 11.599971,
          "velocity": 0.7795275590551181
        },
        {
          "duration": 0.07999979999999951,
          "durationTicks": 96,
          "midi": 66,
          "name": "F#4",
          "ticks": 14208,
          "time": 11.8399704,
          "velocity": 0.7874015748031497
        },
        {
          "duration": 0.07999979999999951,
          "durationTicks": 96,
          "midi": 70,
          "name": "A#4",
          "ticks": 14208,
          "time": 11.8399704,
          "velocity": 0.6850393700787402
        },
        {
          "duration": 0.07999979999999951,
          "durationTicks": 96,
          "midi": 73,
          "name": "C#5",
          "ticks": 14208,
          "time": 11.8399704,
          "velocity": 0.7322834645669292
        },
        {
          "duration": 0.07999979999999951,
          "durationTicks": 96,
          "midi": 62,
          "name": "D4",
          "ticks": 14400,
          "time": 11.99997,
          "velocity": 0.7874015748031497
        },
        {
          "duration": 0.07999980000000129,
          "durationTicks": 96,
          "midi": 67,
          "name": "G4",
          "ticks": 14688,
          "time": 12.2399694,
          "velocity": 0.7874015748031497
        },
        {
          "duration": 0.07999980000000129,
          "durationTicks": 96,
          "midi": 71,
          "name": "B4",
          "ticks": 14688,
          "time": 12.2399694,
          "velocity": 0.6850393700787402
        },
        {
          "duration": 0.07999980000000129,
          "durationTicks": 96,
          "midi": 74,
          "name": "D5",
          "ticks": 14688,
          "time": 12.2399694,
          "velocity": 0.7322834645669292
        },
        {
          "duration": 0.07999979999999951,
          "durationTicks": 96,
          "midi": 68,
          "name": "G#4",
          "ticks": 14880,
          "time": 12.399969,
          "velocity": 0.7795275590551181
        },
        {
          "duration": 0.07999979999999951,
          "durationTicks": 96,
          "midi": 68,
          "name": "G#4",
          "ticks": 15168,
          "time": 12.6399684,
          "velocity": 0.7874015748031497
        },
        {
          "duration": 0.07999979999999951,
          "durationTicks": 96,
          "midi": 72,
          "name": "C5",
          "ticks": 15168,
          "time": 12.6399684,
          "velocity": 0.6850393700787402
        },
        {
          "duration": 0.07999979999999951,
          "durationTicks": 96,
          "midi": 75,
          "name": "D#5",
          "ticks": 15168,
          "time": 12.6399684,
          "velocity": 0.7322834645669292
        },
        {
          "duration": 0.07999980000000129,
          "durationTicks": 96,
          "midi": 64,
          "name": "E4",
          "ticks": 15360,
          "time": 12.799968,
          "velocity": 0.7874015748031497
        },
        {
          "duration": 0.07999979999999773,
          "durationTicks": 96,
          "midi": 69,
          "name": "A4",
          "ticks": 15648,
          "time": 13.0399674,
          "velocity": 0.7874015748031497
        },
        {
          "duration": 0.07999979999999773,
          "durationTicks": 96,
          "midi": 73,
          "name": "C#5",
          "ticks": 15648,
          "time": 13.0399674,
          "velocity": 0.6850393700787402
        },
        {
          "duration": 0.07999979999999773,
          "durationTicks": 96,
          "midi": 76,
          "name": "E5",
          "ticks": 15648,
          "time": 13.0399674,
          "velocity": 0.7322834645669292
        },
        {
          "duration": 0.06849300000000014,
          "durationTicks": 120,
          "midi": 59,
          "name": "B3",
          "ticks": 19920,
          "time": 15.528728999999998,
          "velocity": 0.6929133858267716
        },
        {
          "duration": 0.06849300000000014,
          "durationTicks": 120,
          "midi": 63,
          "name": "D#4",
          "ticks": 19920,
          "time": 15.528728999999998,
          "velocity": 0.5984251968503937
        },
        {
          "duration": 0.06849300000000014,
          "durationTicks": 120,
          "midi": 66,
          "name": "F#4",
          "ticks": 19920,
          "time": 15.528728999999998,
          "velocity": 0.5905511811023622
        },
        {
          "duration": 0.06849300000000014,
          "durationTicks": 120,
          "midi": 59,
          "name": "B3",
          "ticks": 20400,
          "time": 15.802700999999999,
          "velocity": 0.7322834645669292
        },
        {
          "duration": 0.06849300000000014,
          "durationTicks": 120,
          "midi": 63,
          "name": "D#4",
          "ticks": 20400,
          "time": 15.802700999999999,
          "velocity": 0.6141732283464567
        },
        {
          "duration": 0.06849300000000014,
          "durationTicks": 120,
          "midi": 66,
          "name": "F#4",
          "ticks": 20400,
          "time": 15.802700999999999,
          "velocity": 0.6141732283464567
        },
        {
          "duration": 0.06849300000000014,
          "durationTicks": 120,
          "midi": 59,
          "name": "B3",
          "ticks": 20880,
          "time": 16.076673,
          "velocity": 0.7401574803149606
        },
        {
          "duration": 0.06849300000000014,
          "durationTicks": 120,
          "midi": 63,
          "name": "D#4",
          "ticks": 20880,
          "time": 16.076673,
          "velocity": 0.6535433070866141
        },
        {
          "duration": 0.06849300000000014,
          "durationTicks": 120,
          "midi": 66,
          "name": "F#4",
          "ticks": 20880,
          "time": 16.076673,
          "velocity": 0.6614173228346457
        },
        {
          "duration": 0.06849300000000014,
          "durationTicks": 120,
          "midi": 59,
          "name": "B3",
          "ticks": 21360,
          "time": 16.350645,
          "velocity": 0.7401574803149606
        },
        {
          "duration": 0.06849300000000014,
          "durationTicks": 120,
          "midi": 63,
          "name": "D#4",
          "ticks": 21360,
          "time": 16.350645,
          "velocity": 0.6299212598425197
        },
        {
          "duration": 0.06849300000000014,
          "durationTicks": 120,
          "midi": 66,
          "name": "F#4",
          "ticks": 21360,
          "time": 16.350645,
          "velocity": 0.6614173228346457
        },
        {
          "duration": 0.06849299999999658,
          "durationTicks": 120,
          "midi": 60,
          "name": "C4",
          "ticks": 21840,
          "time": 16.624617,
          "velocity": 0.6929133858267716
        },
        {
          "duration": 0.06849299999999658,
          "durationTicks": 120,
          "midi": 63,
          "name": "D#4",
          "ticks": 21840,
          "time": 16.624617,
          "velocity": 0.5984251968503937
        },
        {
          "duration": 0.06849299999999658,
          "durationTicks": 120,
          "midi": 66,
          "name": "F#4",
          "ticks": 21840,
          "time": 16.624617,
          "velocity": 0.5905511811023622
        },
        {
          "duration": 0.06849300000000014,
          "durationTicks": 120,
          "midi": 60,
          "name": "C4",
          "ticks": 22320,
          "time": 16.898588999999998,
          "velocity": 0.7322834645669292
        },
        {
          "duration": 0.06849300000000014,
          "durationTicks": 120,
          "midi": 63,
          "name": "D#4",
          "ticks": 22320,
          "time": 16.898588999999998,
          "velocity": 0.6141732283464567
        },
        {
          "duration": 0.06849300000000014,
          "durationTicks": 120,
          "midi": 66,
          "name": "F#4",
          "ticks": 22320,
          "time": 16.898588999999998,
          "velocity": 0.6141732283464567
        },
        {
          "duration": 0.06849300000000014,
          "durationTicks": 120,
          "midi": 60,
          "name": "C4",
          "ticks": 22800,
          "time": 17.172560999999998,
          "velocity": 0.7401574803149606
        },
        {
          "duration": 0.06849300000000014,
          "durationTicks": 120,
          "midi": 63,
          "name": "D#4",
          "ticks": 22800,
          "time": 17.172560999999998,
          "velocity": 0.6535433070866141
        },
        {
          "duration": 0.06849300000000014,
          "durationTicks": 120,
          "midi": 66,
          "name": "F#4",
          "ticks": 22800,
          "time": 17.172560999999998,
          "velocity": 0.6614173228346457
        },
        {
          "duration": 0.06849300000000014,
          "durationTicks": 120,
          "midi": 61,
          "name": "C#4",
          "ticks": 23280,
          "time": 17.446533,
          "velocity": 0.7401574803149606
        },
        {
          "duration": 0.06849300000000014,
          "durationTicks": 120,
          "midi": 64,
          "name": "E4",
          "ticks": 23280,
          "time": 17.446533,
          "velocity": 0.6299212598425197
        },
        {
          "duration": 0.06849300000000014,
          "durationTicks": 120,
          "midi": 68,
          "name": "G#4",
          "ticks": 23280,
          "time": 17.446533,
          "velocity": 0.6614173228346457
        },
        {
          "duration": 0.06849300000000014,
          "durationTicks": 120,
          "midi": 61,
          "name": "C#4",
          "ticks": 23760,
          "time": 17.720505,
          "velocity": 0.7480314960629921
        },
        {
          "duration": 0.06849300000000014,
          "durationTicks": 120,
          "midi": 64,
          "name": "E4",
          "ticks": 23760,
          "time": 17.720505,
          "velocity": 0.6456692913385826
        },
        {
          "duration": 0.06849300000000014,
          "durationTicks": 120,
          "midi": 68,
          "name": "G#4",
          "ticks": 23760,
          "time": 17.720505,
          "velocity": 0.6299212598425197
        },
        {
          "duration": 0.06849300000000014,
          "durationTicks": 120,
          "midi": 61,
          "name": "C#4",
          "ticks": 24240,
          "time": 17.994477,
          "velocity": 0.7480314960629921
        },
        {
          "duration": 0.06849300000000014,
          "durationTicks": 120,
          "midi": 64,
          "name": "E4",
          "ticks": 24240,
          "time": 17.994477,
          "velocity": 0.6771653543307087
        },
        {
          "duration": 0.06849300000000014,
          "durationTicks": 120,
          "midi": 68,
          "name": "G#4",
          "ticks": 24240,
          "time": 17.994477,
          "velocity": 0.6456692913385826
        },
        {
          "duration": 0.06849300000000369,
          "durationTicks": 120,
          "midi": 61,
          "name": "C#4",
          "ticks": 24720,
          "time": 18.268448999999997,
          "velocity": 0.7401574803149606
        },
        {
          "duration": 0.06849300000000369,
          "durationTicks": 120,
          "midi": 64,
          "name": "E4",
          "ticks": 24720,
          "time": 18.268448999999997,
          "velocity": 0.6692913385826772
        },
        {
          "duration": 0.06849300000000369,
          "durationTicks": 120,
          "midi": 68,
          "name": "G#4",
          "ticks": 24720,
          "time": 18.268448999999997,
          "velocity": 0.6377952755905512
        },
        {
          "duration": 0.06849300000000369,
          "durationTicks": 120,
          "midi": 61,
          "name": "C#4",
          "ticks": 25200,
          "time": 18.542420999999997,
          "velocity": 0.7795275590551181
        },
        {
          "duration": 0.06849300000000369,
          "durationTicks": 120,
          "midi": 64,
          "name": "E4",
          "ticks": 25200,
          "time": 18.542420999999997,
          "velocity": 0.6929133858267716
        },
        {
          "duration": 0.06849300000000369,
          "durationTicks": 120,
          "midi": 68,
          "name": "G#4",
          "ticks": 25200,
          "time": 18.542420999999997,
          "velocity": 0.6614173228346457
        },
        {
          "duration": 0.06849300000000014,
          "durationTicks": 120,
          "midi": 62,
          "name": "D4",
          "ticks": 25680,
          "time": 18.816392999999998,
          "velocity": 0.6850393700787402
        },
        {
          "duration": 0.06849300000000014,
          "durationTicks": 120,
          "midi": 65,
          "name": "F4",
          "ticks": 25680,
          "time": 18.816392999999998,
          "velocity": 0.7322834645669292
        },
        {
          "duration": 0.06849300000000014,
          "durationTicks": 120,
          "midi": 68,
          "name": "G#4",
          "ticks": 25680,
          "time": 18.816392999999998,
          "velocity": 0.6692913385826772
        },
        {
          "duration": 0.06849300000000014,
          "durationTicks": 120,
          "midi": 62,
          "name": "D4",
          "ticks": 26160,
          "time": 19.090365,
          "velocity": 0.6771653543307087
        },
        {
          "duration": 0.06849300000000014,
          "durationTicks": 120,
          "midi": 65,
          "name": "F4",
          "ticks": 26160,
          "time": 19.090365,
          "velocity": 0.7165354330708661
        },
        {
          "duration": 0.06849300000000014,
          "durationTicks": 120,
          "midi": 68,
          "name": "G#4",
          "ticks": 26160,
          "time": 19.090365,
          "velocity": 0.6692913385826772
        },
        {
          "duration": 0.06849300000000014,
          "durationTicks": 120,
          "midi": 62,
          "name": "D4",
          "ticks": 26640,
          "time": 19.364337,
          "velocity": 0.6062992125984252
        },
        {
          "duration": 0.06849300000000014,
          "durationTicks": 120,
          "midi": 65,
          "name": "F4",
          "ticks": 26640,
          "time": 19.364337,
          "velocity": 0.5905511811023622
        },
        {
          "duration": 0.06849300000000014,
          "durationTicks": 120,
          "midi": 68,
          "name": "G#4",
          "ticks": 26640,
          "time": 19.364337,
          "velocity": 0.6456692913385826
        },
        {
          "duration": 0.06849300000000014,
          "durationTicks": 120,
          "midi": 63,
          "name": "D#4",
          "ticks": 27120,
          "time": 19.638309,
          "velocity": 0.6614173228346457
        },
        {
          "duration": 0.06849300000000014,
          "durationTicks": 120,
          "midi": 66,
          "name": "F#4",
          "ticks": 27120,
          "time": 19.638309,
          "velocity": 0.6299212598425197
        },
        {
          "duration": 0.06849300000000014,
          "durationTicks": 120,
          "midi": 70,
          "name": "A#4",
          "ticks": 27120,
          "time": 19.638309,
          "velocity": 0.6692913385826772
        },
        {
          "duration": 0.06849300000000014,
          "durationTicks": 120,
          "midi": 63,
          "name": "D#4",
          "ticks": 27600,
          "time": 19.912281,
          "velocity": 0.5905511811023622
        },
        {
          "duration": 0.06849300000000014,
          "durationTicks": 120,
          "midi": 66,
          "name": "F#4",
          "ticks": 27600,
          "time": 19.912281,
          "velocity": 0.6377952755905512
        },
        {
          "duration": 0.06849300000000014,
          "durationTicks": 120,
          "midi": 70,
          "name": "A#4",
          "ticks": 27600,
          "time": 19.912281,
          "velocity": 0.5826771653543307
        },
        {
          "duration": 0.06849299999999658,
          "durationTicks": 120,
          "midi": 63,
          "name": "D#4",
          "ticks": 28080,
          "time": 20.186253,
          "velocity": 0.7165354330708661
        },
        {
          "duration": 0.06849299999999658,
          "durationTicks": 120,
          "midi": 66,
          "name": "F#4",
          "ticks": 28080,
          "time": 20.186253,
          "velocity": 0.7007874015748031
        },
        {
          "duration": 0.06849299999999658,
          "durationTicks": 120,
          "midi": 70,
          "name": "A#4",
          "ticks": 28080,
          "time": 20.186253,
          "velocity": 0.7401574803149606
        },
        {
          "duration": 0.06849300000000014,
          "durationTicks": 120,
          "midi": 64,
          "name": "E4",
          "ticks": 28560,
          "time": 20.460224999999998,
          "velocity": 0.6929133858267716
        },
        {
          "duration": 0.06849300000000014,
          "durationTicks": 120,
          "midi": 67,
          "name": "G4",
          "ticks": 28560,
          "time": 20.460224999999998,
          "velocity": 0.6062992125984252
        },
        {
          "duration": 0.06849300000000014,
          "durationTicks": 120,
          "midi": 70,
          "name": "A#4",
          "ticks": 28560,
          "time": 20.460224999999998,
          "velocity": 0.6456692913385826
        },
        {
          "duration": 0.06849300000000014,
          "durationTicks": 120,
          "midi": 64,
          "name": "E4",
          "ticks": 29040,
          "time": 20.734196999999998,
          "velocity": 0.6850393700787402
        },
        {
          "duration": 0.06849300000000014,
          "durationTicks": 120,
          "midi": 67,
          "name": "G4",
          "ticks": 29040,
          "time": 20.734196999999998,
          "velocity": 0.6377952755905512
        },
        {
          "duration": 0.06849300000000014,
          "durationTicks": 120,
          "midi": 70,
          "name": "A#4",
          "ticks": 29040,
          "time": 20.734196999999998,
          "velocity": 0.6692913385826772
        },
        {
          "duration": 0.06849300000000014,
          "durationTicks": 120,
          "midi": 63,
          "name": "D#4",
          "ticks": 29520,
          "time": 21.008169,
          "velocity": 0.5905511811023622
        },
        {
          "duration": 0.06849300000000014,
          "durationTicks": 120,
          "midi": 68,
          "name": "G#4",
          "ticks": 29520,
          "time": 21.008169,
          "velocity": 0.6141732283464567
        },
        {
          "duration": 0.06849300000000014,
          "durationTicks": 120,
          "midi": 71,
          "name": "B4",
          "ticks": 29520,
          "time": 21.008169,
          "velocity": 0.6299212598425197
        },
        {
          "duration": 0.06849300000000014,
          "durationTicks": 120,
          "midi": 63,
          "name": "D#4",
          "ticks": 30000,
          "time": 21.282141,
          "velocity": 0.7007874015748031
        },
        {
          "duration": 0.06849300000000014,
          "durationTicks": 120,
          "midi": 68,
          "name": "G#4",
          "ticks": 30000,
          "time": 21.282141,
          "velocity": 0.6377952755905512
        },
        {
          "duration": 0.06849300000000014,
          "durationTicks": 120,
          "midi": 71,
          "name": "B4",
          "ticks": 30000,
          "time": 21.282141,
          "velocity": 0.6535433070866141
        },
        {
          "duration": 0.06849300000000369,
          "durationTicks": 120,
          "midi": 63,
          "name": "D#4",
          "ticks": 30480,
          "time": 21.556112999999996,
          "velocity": 0.6850393700787402
        },
        {
          "duration": 0.06849300000000369,
          "durationTicks": 120,
          "midi": 66,
          "name": "F#4",
          "ticks": 30480,
          "time": 21.556112999999996,
          "velocity": 0.6929133858267716
        },
        {
          "duration": 0.06849300000000369,
          "durationTicks": 120,
          "midi": 69,
          "name": "A4",
          "ticks": 30480,
          "time": 21.556112999999996,
          "velocity": 0.5433070866141733
        },
        {
          "duration": 0.06849300000000369,
          "durationTicks": 120,
          "midi": 61,
          "name": "C#4",
          "ticks": 30960,
          "time": 21.830084999999997,
          "velocity": 0.6456692913385826
        },
        {
          "duration": 0.06849300000000369,
          "durationTicks": 120,
          "midi": 64,
          "name": "E4",
          "ticks": 30960,
          "time": 21.830084999999997,
          "velocity": 0.6929133858267716
        },
        {
          "duration": 0.06849300000000369,
          "durationTicks": 120,
          "midi": 68,
          "name": "G#4",
          "ticks": 30960,
          "time": 21.830084999999997,
          "velocity": 0.5433070866141733
        },
        {
          "duration": 0.06849300000000369,
          "durationTicks": 120,
          "midi": 61,
          "name": "C#4",
          "ticks": 31440,
          "time": 22.104056999999997,
          "velocity": 0.7716535433070866
        },
        {
          "duration": 0.06849300000000369,
          "durationTicks": 120,
          "midi": 64,
          "name": "E4",
          "ticks": 31440,
          "time": 22.104056999999997,
          "velocity": 0.6220472440944882
        },
        {
          "duration": 0.06849300000000369,
          "durationTicks": 120,
          "midi": 68,
          "name": "G#4",
          "ticks": 31440,
          "time": 22.104056999999997,
          "velocity": 0.6220472440944882
        },
        {
          "duration": 0.06849300000000014,
          "durationTicks": 120,
          "midi": 61,
          "name": "C#4",
          "ticks": 31920,
          "time": 22.378028999999998,
          "velocity": 0.7716535433070866
        },
        {
          "duration": 0.06849300000000014,
          "durationTicks": 120,
          "midi": 64,
          "name": "E4",
          "ticks": 31920,
          "time": 22.378028999999998,
          "velocity": 0.6850393700787402
        },
        {
          "duration": 0.06849300000000014,
          "durationTicks": 120,
          "midi": 68,
          "name": "G#4",
          "ticks": 31920,
          "time": 22.378028999999998,
          "velocity": 0.6456692913385826
        },
        {
          "duration": 0.06849300000000014,
          "durationTicks": 120,
          "midi": 61,
          "name": "C#4",
          "ticks": 32400,
          "time": 22.652001,
          "velocity": 0.7401574803149606
        },
        {
          "duration": 0.06849300000000014,
          "durationTicks": 120,
          "midi": 64,
          "name": "E4",
          "ticks": 32400,
          "time": 22.652001,
          "velocity": 0.6535433070866141
        },
        {
          "duration": 0.06849300000000014,
          "durationTicks": 120,
          "midi": 68,
          "name": "G#4",
          "ticks": 32400,
          "time": 22.652001,
          "velocity": 0.5511811023622047
        },
        {
          "duration": 0.06849300000000014,
          "durationTicks": 120,
          "midi": 61,
          "name": "C#4",
          "ticks": 32880,
          "time": 22.925973,
          "velocity": 0.7637795275590551
        },
        {
          "duration": 0.06849300000000014,
          "durationTicks": 120,
          "midi": 64,
          "name": "E4",
          "ticks": 32880,
          "time": 22.925973,
          "velocity": 0.6929133858267716
        },
        {
          "duration": 0.06849300000000014,
          "durationTicks": 120,
          "midi": 68,
          "name": "G#4",
          "ticks": 32880,
          "time": 22.925973,
          "velocity": 0.6377952755905512
        },
        {
          "duration": 0.06849300000000014,
          "durationTicks": 120,
          "midi": 64,
          "name": "E4",
          "ticks": 33360,
          "time": 23.199945,
          "velocity": 0.7165354330708661
        },
        {
          "duration": 0.06849300000000014,
          "durationTicks": 120,
          "midi": 67,
          "name": "G4",
          "ticks": 33360,
          "time": 23.199945,
          "velocity": 0.6929133858267716
        },
        {
          "duration": 0.06849300000000014,
          "durationTicks": 120,
          "midi": 71,
          "name": "B4",
          "ticks": 33360,
          "time": 23.199945,
          "velocity": 0.6062992125984252
        },
        {
          "duration": 0.06849299999999658,
          "durationTicks": 120,
          "midi": 64,
          "name": "E4",
          "ticks": 33840,
          "time": 23.473917,
          "velocity": 0.7165354330708661
        },
        {
          "duration": 0.06849299999999658,
          "durationTicks": 120,
          "midi": 67,
          "name": "G4",
          "ticks": 33840,
          "time": 23.473917,
          "velocity": 0.6535433070866141
        },
        {
          "duration": 0.06849299999999658,
          "durationTicks": 120,
          "midi": 71,
          "name": "B4",
          "ticks": 33840,
          "time": 23.473917,
          "velocity": 0.5905511811023622
        },
        {
          "duration": 0.06849299999999658,
          "durationTicks": 120,
          "midi": 59,
          "name": "B3",
          "ticks": 34080,
          "time": 23.610903,
          "velocity": 0.6299212598425197
        },
        {
          "duration": 0.06849299999999658,
          "durationTicks": 120,
          "midi": 63,
          "name": "D#4",
          "ticks": 34080,
          "time": 23.610903,
          "velocity": 0.6456692913385826
        },
        {
          "duration": 0.06849299999999658,
          "durationTicks": 120,
          "midi": 66,
          "name": "F#4",
          "ticks": 34080,
          "time": 23.610903,
          "velocity": 0.49606299212598426
        },
        {
          "duration": 0.07115377499999909,
          "durationTicks": 74,
          "midi": 53,
          "name": "F3",
          "ticks": 42960,
          "time": 29.851149,
          "velocity": 0.7322834645669292
        },
        {
          "duration": 0.07115377499999909,
          "durationTicks": 74,
          "midi": 57,
          "name": "A3",
          "ticks": 42960,
          "time": 29.851149,
          "velocity": 0.7007874015748031
        },
        {
          "duration": 0.07115377499999909,
          "durationTicks": 74,
          "midi": 60,
          "name": "C4",
          "ticks": 42960,
          "time": 29.851149,
          "velocity": 0.6456692913385826
        },
        {
          "duration": 0.07115377499999909,
          "durationTicks": 74,
          "midi": 53,
          "name": "F3",
          "ticks": 43440,
          "time": 30.312687,
          "velocity": 0.7874015748031497
        },
        {
          "duration": 0.07115377499999909,
          "durationTicks": 74,
          "midi": 57,
          "name": "A3",
          "ticks": 43440,
          "time": 30.312687,
          "velocity": 0.6062992125984252
        },
        {
          "duration": 0.07115377499999909,
          "durationTicks": 74,
          "midi": 60,
          "name": "C4",
          "ticks": 43440,
          "time": 30.312687,
          "velocity": 0.6299212598425197
        },
        {
          "duration": 0.07115377499999909,
          "durationTicks": 74,
          "midi": 53,
          "name": "F3",
          "ticks": 43920,
          "time": 30.774225,
          "velocity": 0.7007874015748031
        },
        {
          "duration": 0.07115377499999909,
          "durationTicks": 74,
          "midi": 56,
          "name": "G#3",
          "ticks": 43920,
          "time": 30.774225,
          "velocity": 0.6614173228346457
        },
        {
          "duration": 0.07115377499999909,
          "durationTicks": 74,
          "midi": 59,
          "name": "B3",
          "ticks": 43920,
          "time": 30.774225,
          "velocity": 0.6456692913385826
        },
        {
          "duration": 0.07115377500000264,
          "durationTicks": 74,
          "midi": 53,
          "name": "F3",
          "ticks": 44400,
          "time": 31.235763,
          "velocity": 0.8110236220472441
        },
        {
          "duration": 0.07115377500000264,
          "durationTicks": 74,
          "midi": 56,
          "name": "G#3",
          "ticks": 44400,
          "time": 31.235763,
          "velocity": 0.6692913385826772
        },
        {
          "duration": 0.07115377500000264,
          "durationTicks": 74,
          "midi": 59,
          "name": "B3",
          "ticks": 44400,
          "time": 31.235763,
          "velocity": 0.6692913385826772
        },
        {
          "duration": 0.07115377499999909,
          "durationTicks": 74,
          "midi": 55,
          "name": "G3",
          "ticks": 44880,
          "time": 31.697301,
          "velocity": 0.7322834645669292
        },
        {
          "duration": 0.07115377499999909,
          "durationTicks": 74,
          "midi": 58,
          "name": "A#3",
          "ticks": 44880,
          "time": 31.697301,
          "velocity": 0.7007874015748031
        },
        {
          "duration": 0.07115377499999909,
          "durationTicks": 74,
          "midi": 62,
          "name": "D4",
          "ticks": 44880,
          "time": 31.697301,
          "velocity": 0.6456692913385826
        },
        {
          "duration": 0.07115377499999909,
          "durationTicks": 74,
          "midi": 55,
          "name": "G3",
          "ticks": 45360,
          "time": 32.158839,
          "velocity": 0.7874015748031497
        },
        {
          "duration": 0.07115377499999909,
          "durationTicks": 74,
          "midi": 58,
          "name": "A#3",
          "ticks": 45360,
          "time": 32.158839,
          "velocity": 0.6062992125984252
        },
        {
          "duration": 0.07115377499999909,
          "durationTicks": 74,
          "midi": 62,
          "name": "D4",
          "ticks": 45360,
          "time": 32.158839,
          "velocity": 0.6299212598425197
        },
        {
          "duration": 0.07115377499999909,
          "durationTicks": 74,
          "midi": 55,
          "name": "G3",
          "ticks": 45840,
          "time": 32.620377,
          "velocity": 0.7007874015748031
        },
        {
          "duration": 0.07115377499999909,
          "durationTicks": 74,
          "midi": 58,
          "name": "A#3",
          "ticks": 45840,
          "time": 32.620377,
          "velocity": 0.6614173228346457
        },
        {
          "duration": 0.07115377499999909,
          "durationTicks": 74,
          "midi": 61,
          "name": "C#4",
          "ticks": 45840,
          "time": 32.620377,
          "velocity": 0.6456692913385826
        },
        {
          "duration": 0.07115377499999909,
          "durationTicks": 74,
          "midi": 55,
          "name": "G3",
          "ticks": 46320,
          "time": 33.081915,
          "velocity": 0.8110236220472441
        },
        {
          "duration": 0.07115377499999909,
          "durationTicks": 74,
          "midi": 58,
          "name": "A#3",
          "ticks": 46320,
          "time": 33.081915,
          "velocity": 0.6692913385826772
        },
        {
          "duration": 0.07115377499999909,
          "durationTicks": 74,
          "midi": 61,
          "name": "C#4",
          "ticks": 46320,
          "time": 33.081915,
          "velocity": 0.6692913385826772
        },
        {
          "duration": 0.06730762500000509,
          "durationTicks": 70,
          "midi": 59,
          "name": "B3",
          "ticks": 46560,
          "time": 33.312684,
          "velocity": 0.7874015748031497
        },
        {
          "duration": 0.06730762500000509,
          "durationTicks": 70,
          "midi": 60,
          "name": "C4",
          "ticks": 46560,
          "time": 33.312684,
          "velocity": 0.6692913385826772
        },
        {
          "duration": 0.23076900000000222,
          "durationTicks": 240,
          "midi": 59,
          "name": "B3",
          "ticks": 46800,
          "time": 33.543453,
          "velocity": 0.7874015748031497
        },
        {
          "duration": 0.23076900000000222,
          "durationTicks": 240,
          "midi": 60,
          "name": "C4",
          "ticks": 46800,
          "time": 33.543453,
          "velocity": 0.6692913385826772
        },
        {
          "duration": 0.06514081250000459,
          "durationTicks": 74,
          "midi": 53,
          "name": "F3",
          "ticks": 47280,
          "time": 33.9854895,
          "velocity": 0.7322834645669292
        },
        {
          "duration": 0.06514081250000459,
          "durationTicks": 74,
          "midi": 57,
          "name": "A3",
          "ticks": 47280,
          "time": 33.9854895,
          "velocity": 0.7007874015748031
        },
        {
          "duration": 0.06514081250000459,
          "durationTicks": 74,
          "midi": 60,
          "name": "C4",
          "ticks": 47280,
          "time": 33.9854895,
          "velocity": 0.6456692913385826
        },
        {
          "duration": 0.06514081249999748,
          "durationTicks": 74,
          "midi": 53,
          "name": "F3",
          "ticks": 47760,
          "time": 34.4080245,
          "velocity": 0.7874015748031497
        },
        {
          "duration": 0.06514081249999748,
          "durationTicks": 74,
          "midi": 57,
          "name": "A3",
          "ticks": 47760,
          "time": 34.4080245,
          "velocity": 0.6062992125984252
        },
        {
          "duration": 0.06514081249999748,
          "durationTicks": 74,
          "midi": 60,
          "name": "C4",
          "ticks": 47760,
          "time": 34.4080245,
          "velocity": 0.6299212598425197
        },
        {
          "duration": 0.06514081250000459,
          "durationTicks": 74,
          "midi": 53,
          "name": "F3",
          "ticks": 48240,
          "time": 34.8305595,
          "velocity": 0.7007874015748031
        },
        {
          "duration": 0.06514081250000459,
          "durationTicks": 74,
          "midi": 56,
          "name": "G#3",
          "ticks": 48240,
          "time": 34.8305595,
          "velocity": 0.6614173228346457
        },
        {
          "duration": 0.06514081250000459,
          "durationTicks": 74,
          "midi": 59,
          "name": "B3",
          "ticks": 48240,
          "time": 34.8305595,
          "velocity": 0.6456692913385826
        },
        {
          "duration": 0.06514081249999748,
          "durationTicks": 74,
          "midi": 53,
          "name": "F3",
          "ticks": 48720,
          "time": 35.2530945,
          "velocity": 0.8110236220472441
        },
        {
          "duration": 0.06514081249999748,
          "durationTicks": 74,
          "midi": 56,
          "name": "G#3",
          "ticks": 48720,
          "time": 35.2530945,
          "velocity": 0.6692913385826772
        },
        {
          "duration": 0.06514081249999748,
          "durationTicks": 74,
          "midi": 59,
          "name": "B3",
          "ticks": 48720,
          "time": 35.2530945,
          "velocity": 0.6692913385826772
        },
        {
          "duration": 0.06514081250000459,
          "durationTicks": 74,
          "midi": 55,
          "name": "G3",
          "ticks": 49200,
          "time": 35.6756295,
          "velocity": 0.7322834645669292
        },
        {
          "duration": 0.06514081250000459,
          "durationTicks": 74,
          "midi": 58,
          "name": "A#3",
          "ticks": 49200,
          "time": 35.6756295,
          "velocity": 0.7007874015748031
        },
        {
          "duration": 0.06514081250000459,
          "durationTicks": 74,
          "midi": 62,
          "name": "D4",
          "ticks": 49200,
          "time": 35.6756295,
          "velocity": 0.6456692913385826
        },
        {
          "duration": 0.06514081249999748,
          "durationTicks": 74,
          "midi": 55,
          "name": "G3",
          "ticks": 49680,
          "time": 36.0981645,
          "velocity": 0.7874015748031497
        },
        {
          "duration": 0.06514081249999748,
          "durationTicks": 74,
          "midi": 58,
          "name": "A#3",
          "ticks": 49680,
          "time": 36.0981645,
          "velocity": 0.6062992125984252
        },
        {
          "duration": 0.06514081249999748,
          "durationTicks": 74,
          "midi": 62,
          "name": "D4",
          "ticks": 49680,
          "time": 36.0981645,
          "velocity": 0.6299212598425197
        },
        {
          "duration": 0.06514081250000459,
          "durationTicks": 74,
          "midi": 56,
          "name": "G#3",
          "ticks": 50160,
          "time": 36.5206995,
          "velocity": 0.7007874015748031
        },
        {
          "duration": 0.06514081250000459,
          "durationTicks": 74,
          "midi": 60,
          "name": "C4",
          "ticks": 50160,
          "time": 36.5206995,
          "velocity": 0.6614173228346457
        },
        {
          "duration": 0.06514081250000459,
          "durationTicks": 74,
          "midi": 64,
          "name": "E4",
          "ticks": 50160,
          "time": 36.5206995,
          "velocity": 0.6456692913385826
        },
        {
          "duration": 0.06514081249999748,
          "durationTicks": 74,
          "midi": 56,
          "name": "G#3",
          "ticks": 50640,
          "time": 36.9432345,
          "velocity": 0.8110236220472441
        },
        {
          "duration": 0.06514081249999748,
          "durationTicks": 74,
          "midi": 60,
          "name": "C4",
          "ticks": 50640,
          "time": 36.9432345,
          "velocity": 0.6692913385826772
        },
        {
          "duration": 0.06514081249999748,
          "durationTicks": 74,
          "midi": 64,
          "name": "E4",
          "ticks": 50640,
          "time": 36.9432345,
          "velocity": 0.6692913385826772
        },
        {
          "duration": 0.06161968749999858,
          "durationTicks": 70,
          "midi": 60,
          "name": "C4",
          "ticks": 50880,
          "time": 37.154502,
          "velocity": 0.7874015748031497
        },
        {
          "duration": 0.06161968749999858,
          "durationTicks": 70,
          "midi": 61,
          "name": "C#4",
          "ticks": 50880,
          "time": 37.154502,
          "velocity": 0.6692913385826772
        },
        {
          "duration": 0.21126750000000527,
          "durationTicks": 240,
          "midi": 60,
          "name": "C4",
          "ticks": 51120,
          "time": 37.3657695,
          "velocity": 0.7874015748031497
        },
        {
          "duration": 0.21126750000000527,
          "durationTicks": 240,
          "midi": 61,
          "name": "C#4",
          "ticks": 51120,
          "time": 37.3657695,
          "velocity": 0.6692913385826772
        },
        {
          "duration": 0.05967729999999705,
          "durationTicks": 74,
          "midi": 54,
          "name": "F#3",
          "ticks": 51600,
          "time": 37.770585000000004,
          "velocity": 0.7322834645669292
        },
        {
          "duration": 0.05967729999999705,
          "durationTicks": 74,
          "midi": 58,
          "name": "A#3",
          "ticks": 51600,
          "time": 37.770585000000004,
          "velocity": 0.7007874015748031
        },
        {
          "duration": 0.05967729999999705,
          "durationTicks": 74,
          "midi": 61,
          "name": "C#4",
          "ticks": 51600,
          "time": 37.770585000000004,
          "velocity": 0.6456692913385826
        },
        {
          "duration": 0.05967729999999705,
          "durationTicks": 74,
          "midi": 54,
          "name": "F#3",
          "ticks": 52080,
          "time": 38.157681000000004,
          "velocity": 0.7874015748031497
        },
        {
          "duration": 0.05967729999999705,
          "durationTicks": 74,
          "midi": 58,
          "name": "A#3",
          "ticks": 52080,
          "time": 38.157681000000004,
          "velocity": 0.6062992125984252
        },
        {
          "duration": 0.05967729999999705,
          "durationTicks": 74,
          "midi": 61,
          "name": "C#4",
          "ticks": 52080,
          "time": 38.157681000000004,
          "velocity": 0.6299212598425197
        },
        {
          "duration": 0.05967730000000415,
          "durationTicks": 74,
          "midi": 54,
          "name": "F#3",
          "ticks": 52560,
          "time": 38.544777,
          "velocity": 0.7007874015748031
        },
        {
          "duration": 0.05967730000000415,
          "durationTicks": 74,
          "midi": 57,
          "name": "A3",
          "ticks": 52560,
          "time": 38.544777,
          "velocity": 0.6614173228346457
        },
        {
          "duration": 0.05967730000000415,
          "durationTicks": 74,
          "midi": 60,
          "name": "C4",
          "ticks": 52560,
          "time": 38.544777,
          "velocity": 0.6456692913385826
        },
        {
          "duration": 0.05967730000000415,
          "durationTicks": 74,
          "midi": 54,
          "name": "F#3",
          "ticks": 53040,
          "time": 38.931873,
          "velocity": 0.8110236220472441
        },
        {
          "duration": 0.05967730000000415,
          "durationTicks": 74,
          "midi": 57,
          "name": "A3",
          "ticks": 53040,
          "time": 38.931873,
          "velocity": 0.6692913385826772
        },
        {
          "duration": 0.05967730000000415,
          "durationTicks": 74,
          "midi": 60,
          "name": "C4",
          "ticks": 53040,
          "time": 38.931873,
          "velocity": 0.6692913385826772
        },
        {
          "duration": 0.05967730000000415,
          "durationTicks": 74,
          "midi": 56,
          "name": "G#3",
          "ticks": 53520,
          "time": 39.318969,
          "velocity": 0.7322834645669292
        },
        {
          "duration": 0.05967730000000415,
          "durationTicks": 74,
          "midi": 59,
          "name": "B3",
          "ticks": 53520,
          "time": 39.318969,
          "velocity": 0.7007874015748031
        },
        {
          "duration": 0.05967730000000415,
          "durationTicks": 74,
          "midi": 63,
          "name": "D#4",
          "ticks": 53520,
          "time": 39.318969,
          "velocity": 0.6456692913385826
        },
        {
          "duration": 0.05967730000000415,
          "durationTicks": 74,
          "midi": 56,
          "name": "G#3",
          "ticks": 54000,
          "time": 39.706065,
          "velocity": 0.7874015748031497
        },
        {
          "duration": 0.05967730000000415,
          "durationTicks": 74,
          "midi": 59,
          "name": "B3",
          "ticks": 54000,
          "time": 39.706065,
          "velocity": 0.6062992125984252
        },
        {
          "duration": 0.05967730000000415,
          "durationTicks": 74,
          "midi": 63,
          "name": "D#4",
          "ticks": 54000,
          "time": 39.706065,
          "velocity": 0.6299212598425197
        },
        {
          "duration": 0.05967730000000415,
          "durationTicks": 74,
          "midi": 56,
          "name": "G#3",
          "ticks": 54480,
          "time": 40.093161,
          "velocity": 0.7007874015748031
        },
        {
          "duration": 0.05967730000000415,
          "durationTicks": 74,
          "midi": 59,
          "name": "B3",
          "ticks": 54480,
          "time": 40.093161,
          "velocity": 0.6614173228346457
        },
        {
          "duration": 0.05967730000000415,
          "durationTicks": 74,
          "midi": 62,
          "name": "D4",
          "ticks": 54480,
          "time": 40.093161,
          "velocity": 0.6456692913385826
        },
        {
          "duration": 0.05967730000000415,
          "durationTicks": 74,
          "midi": 56,
          "name": "G#3",
          "ticks": 54960,
          "time": 40.480257,
          "velocity": 0.8110236220472441
        },
        {
          "duration": 0.05967730000000415,
          "durationTicks": 74,
          "midi": 59,
          "name": "B3",
          "ticks": 54960,
          "time": 40.480257,
          "velocity": 0.6692913385826772
        },
        {
          "duration": 0.05967730000000415,
          "durationTicks": 74,
          "midi": 62,
          "name": "D4",
          "ticks": 54960,
          "time": 40.480257,
          "velocity": 0.6692913385826772
        },
        {
          "duration": 0.05645150000000143,
          "durationTicks": 70,
          "midi": 61,
          "name": "C#4",
          "ticks": 55200,
          "time": 40.673805,
          "velocity": 0.7874015748031497
        },
        {
          "duration": 0.05645150000000143,
          "durationTicks": 70,
          "midi": 62,
          "name": "D4",
          "ticks": 55200,
          "time": 40.673805,
          "velocity": 0.6692913385826772
        },
        {
          "duration": 0.19354799999999983,
          "durationTicks": 240,
          "midi": 61,
          "name": "C#4",
          "ticks": 55440,
          "time": 40.867353,
          "velocity": 0.7874015748031497
        },
        {
          "duration": 0.19354799999999983,
          "durationTicks": 240,
          "midi": 62,
          "name": "D4",
          "ticks": 55440,
          "time": 40.867353,
          "velocity": 0.6692913385826772
        },
        {
          "duration": 0.09090900000000346,
          "durationTicks": 120,
          "midi": 55,
          "name": "G3",
          "ticks": 55920,
          "time": 41.242719,
          "velocity": 0.7322834645669292
        },
        {
          "duration": 0.09090900000000346,
          "durationTicks": 120,
          "midi": 59,
          "name": "B3",
          "ticks": 55920,
          "time": 41.242719,
          "velocity": 0.7007874015748031
        },
        {
          "duration": 0.09090900000000346,
          "durationTicks": 120,
          "midi": 62,
          "name": "D4",
          "ticks": 55920,
          "time": 41.242719,
          "velocity": 0.6456692913385826
        },
        {
          "duration": 0.09090900000000346,
          "durationTicks": 120,
          "midi": 55,
          "name": "G3",
          "ticks": 56400,
          "time": 41.606355,
          "velocity": 0.7874015748031497
        },
        {
          "duration": 0.09090900000000346,
          "durationTicks": 120,
          "midi": 59,
          "name": "B3",
          "ticks": 56400,
          "time": 41.606355,
          "velocity": 0.6062992125984252
        },
        {
          "duration": 0.09090900000000346,
          "durationTicks": 120,
          "midi": 62,
          "name": "D4",
          "ticks": 56400,
          "time": 41.606355,
          "velocity": 0.6299212598425197
        },
        {
          "duration": 0.09090900000000346,
          "durationTicks": 120,
          "midi": 55,
          "name": "G3",
          "ticks": 56880,
          "time": 41.969991,
          "velocity": 0.7007874015748031
        },
        {
          "duration": 0.09090900000000346,
          "durationTicks": 120,
          "midi": 58,
          "name": "A#3",
          "ticks": 56880,
          "time": 41.969991,
          "velocity": 0.6614173228346457
        },
        {
          "duration": 0.09090900000000346,
          "durationTicks": 120,
          "midi": 61,
          "name": "C#4",
          "ticks": 56880,
          "time": 41.969991,
          "velocity": 0.6456692913385826
        },
        {
          "duration": 0.09090900000000346,
          "durationTicks": 120,
          "midi": 55,
          "name": "G3",
          "ticks": 57360,
          "time": 42.333627,
          "velocity": 0.8110236220472441
        },
        {
          "duration": 0.09090900000000346,
          "durationTicks": 120,
          "midi": 59,
          "name": "B3",
          "ticks": 57360,
          "time": 42.333627,
          "velocity": 0.6692913385826772
        },
        {
          "duration": 0.09090900000000346,
          "durationTicks": 120,
          "midi": 62,
          "name": "D4",
          "ticks": 57360,
          "time": 42.333627,
          "velocity": 0.6692913385826772
        },
        {
          "duration": 0.08571425000000232,
          "durationTicks": 120,
          "midi": 57,
          "name": "A3",
          "ticks": 57840,
          "time": 42.6868735,
          "velocity": 0.7322834645669292
        },
        {
          "duration": 0.08571425000000232,
          "durationTicks": 120,
          "midi": 60,
          "name": "C4",
          "ticks": 57840,
          "time": 42.6868735,
          "velocity": 0.7007874015748031
        },
        {
          "duration": 0.08571425000000232,
          "durationTicks": 120,
          "midi": 64,
          "name": "E4",
          "ticks": 57840,
          "time": 42.6868735,
          "velocity": 0.6456692913385826
        },
        {
          "duration": 0.08571425000000232,
          "durationTicks": 120,
          "midi": 57,
          "name": "A3",
          "ticks": 58320,
          "time": 43.0297305,
          "velocity": 0.7322834645669292
        },
        {
          "duration": 0.08571425000000232,
          "durationTicks": 120,
          "midi": 60,
          "name": "C4",
          "ticks": 58320,
          "time": 43.0297305,
          "velocity": 0.7007874015748031
        },
        {
          "duration": 0.08571425000000232,
          "durationTicks": 120,
          "midi": 64,
          "name": "E4",
          "ticks": 58320,
          "time": 43.0297305,
          "velocity": 0.6456692913385826
        },
        {
          "duration": 0.08571424999999522,
          "durationTicks": 120,
          "midi": 58,
          "name": "A#3",
          "ticks": 58800,
          "time": 43.3725875,
          "velocity": 0.7322834645669292
        },
        {
          "duration": 0.08571424999999522,
          "durationTicks": 120,
          "midi": 62,
          "name": "D4",
          "ticks": 58800,
          "time": 43.3725875,
          "velocity": 0.7007874015748031
        },
        {
          "duration": 0.08571424999999522,
          "durationTicks": 120,
          "midi": 66,
          "name": "F#4",
          "ticks": 58800,
          "time": 43.3725875,
          "velocity": 0.6456692913385826
        },
        {
          "duration": 0.08571425000000232,
          "durationTicks": 120,
          "midi": 58,
          "name": "A#3",
          "ticks": 59280,
          "time": 43.7154445,
          "velocity": 0.7322834645669292
        },
        {
          "duration": 0.08571425000000232,
          "durationTicks": 120,
          "midi": 62,
          "name": "D4",
          "ticks": 59280,
          "time": 43.7154445,
          "velocity": 0.7007874015748031
        },
        {
          "duration": 0.08571425000000232,
          "durationTicks": 120,
          "midi": 66,
          "name": "F#4",
          "ticks": 59280,
          "time": 43.7154445,
          "velocity": 0.6456692913385826
        },
        {
          "duration": 0.3428569999999951,
          "durationTicks": 480,
          "midi": 58,
          "name": "A#3",
          "ticks": 59520,
          "time": 43.886873,
          "velocity": 0.7322834645669292
        },
        {
          "duration": 0.3428569999999951,
          "durationTicks": 480,
          "midi": 62,
          "name": "D4",
          "ticks": 59520,
          "time": 43.886873,
          "velocity": 0.7007874015748031
        },
        {
          "duration": 0.3428569999999951,
          "durationTicks": 480,
          "midi": 66,
          "name": "F#4",
          "ticks": 59520,
          "time": 43.886873,
          "velocity": 0.6456692913385826
        },
        {
          "duration": 0.0819670000000059,
          "durationTicks": 120,
          "midi": 56,
          "name": "G#3",
          "ticks": 60240,
          "time": 44.393663999999994,
          "velocity": 0.7322834645669292
        },
        {
          "duration": 0.0819670000000059,
          "durationTicks": 120,
          "midi": 60,
          "name": "C4",
          "ticks": 60240,
          "time": 44.393663999999994,
          "velocity": 0.7007874015748031
        },
        {
          "duration": 0.0819670000000059,
          "durationTicks": 120,
          "midi": 63,
          "name": "D#4",
          "ticks": 60240,
          "time": 44.393663999999994,
          "velocity": 0.6456692913385826
        },
        {
          "duration": 0.08196699999999879,
          "durationTicks": 120,
          "midi": 56,
          "name": "G#3",
          "ticks": 60720,
          "time": 44.721531999999996,
          "velocity": 0.7874015748031497
        },
        {
          "duration": 0.08196699999999879,
          "durationTicks": 120,
          "midi": 60,
          "name": "C4",
          "ticks": 60720,
          "time": 44.721531999999996,
          "velocity": 0.6062992125984252
        },
        {
          "duration": 0.08196699999999879,
          "durationTicks": 120,
          "midi": 63,
          "name": "D#4",
          "ticks": 60720,
          "time": 44.721531999999996,
          "velocity": 0.6299212598425197
        },
        {
          "duration": 0.08196699999999879,
          "durationTicks": 120,
          "midi": 56,
          "name": "G#3",
          "ticks": 61200,
          "time": 45.0494,
          "velocity": 0.7007874015748031
        },
        {
          "duration": 0.08196699999999879,
          "durationTicks": 120,
          "midi": 59,
          "name": "B3",
          "ticks": 61200,
          "time": 45.0494,
          "velocity": 0.6614173228346457
        },
        {
          "duration": 0.08196699999999879,
          "durationTicks": 120,
          "midi": 62,
          "name": "D4",
          "ticks": 61200,
          "time": 45.0494,
          "velocity": 0.6456692913385826
        },
        {
          "duration": 0.0819670000000059,
          "durationTicks": 120,
          "midi": 56,
          "name": "G#3",
          "ticks": 61680,
          "time": 45.377267999999994,
          "velocity": 0.8110236220472441
        },
        {
          "duration": 0.0819670000000059,
          "durationTicks": 120,
          "midi": 59,
          "name": "B3",
          "ticks": 61680,
          "time": 45.377267999999994,
          "velocity": 0.6692913385826772
        },
        {
          "duration": 0.0819670000000059,
          "durationTicks": 120,
          "midi": 62,
          "name": "D4",
          "ticks": 61680,
          "time": 45.377267999999994,
          "velocity": 0.6692913385826772
        },
        {
          "duration": 0.08196699999999879,
          "durationTicks": 120,
          "midi": 58,
          "name": "A#3",
          "ticks": 62160,
          "time": 45.705135999999996,
          "velocity": 0.7322834645669292
        },
        {
          "duration": 0.08196699999999879,
          "durationTicks": 120,
          "midi": 61,
          "name": "C#4",
          "ticks": 62160,
          "time": 45.705135999999996,
          "velocity": 0.7007874015748031
        },
        {
          "duration": 0.08196699999999879,
          "durationTicks": 120,
          "midi": 65,
          "name": "F4",
          "ticks": 62160,
          "time": 45.705135999999996,
          "velocity": 0.6456692913385826
        },
        {
          "duration": 0.08196699999999879,
          "durationTicks": 120,
          "midi": 58,
          "name": "A#3",
          "ticks": 62640,
          "time": 46.033004,
          "velocity": 0.7874015748031497
        },
        {
          "duration": 0.08196699999999879,
          "durationTicks": 120,
          "midi": 61,
          "name": "C#4",
          "ticks": 62640,
          "time": 46.033004,
          "velocity": 0.6062992125984252
        },
        {
          "duration": 0.08196699999999879,
          "durationTicks": 120,
          "midi": 65,
          "name": "F4",
          "ticks": 62640,
          "time": 46.033004,
          "velocity": 0.6299212598425197
        },
        {
          "duration": 0.04781408333333559,
          "durationTicks": 70,
          "midi": 62,
          "name": "D4",
          "ticks": 63120,
          "time": 46.36087199999999,
          "velocity": 0.7874015748031497
        },
        {
          "duration": 0.04781408333333559,
          "durationTicks": 70,
          "midi": 63,
          "name": "D#4",
          "ticks": 63120,
          "time": 46.36087199999999,
          "velocity": 0.6692913385826772
        },
        {
          "duration": 0.32786799999999516,
          "durationTicks": 480,
          "midi": 62,
          "name": "D4",
          "ticks": 63360,
          "time": 46.524806,
          "velocity": 0.7874015748031497
        },
        {
          "duration": 0.32786799999999516,
          "durationTicks": 480,
          "midi": 63,
          "name": "D#4",
          "ticks": 63360,
          "time": 46.524806,
          "velocity": 0.6692913385826772
        },
        {
          "duration": 0.07692300000000074,
          "durationTicks": 120,
          "midi": 57,
          "name": "A3",
          "ticks": 64080,
          "time": 47.006519999999995,
          "velocity": 0.7322834645669292
        },
        {
          "duration": 0.07692300000000074,
          "durationTicks": 120,
          "midi": 61,
          "name": "C#4",
          "ticks": 64080,
          "time": 47.006519999999995,
          "velocity": 0.7007874015748031
        },
        {
          "duration": 0.07692300000000074,
          "durationTicks": 120,
          "midi": 64,
          "name": "E4",
          "ticks": 64080,
          "time": 47.006519999999995,
          "velocity": 0.6456692913385826
        },
        {
          "duration": 0.07692300000000074,
          "durationTicks": 120,
          "midi": 57,
          "name": "A3",
          "ticks": 64560,
          "time": 47.31421199999999,
          "velocity": 0.7874015748031497
        },
        {
          "duration": 0.07692300000000074,
          "durationTicks": 120,
          "midi": 61,
          "name": "C#4",
          "ticks": 64560,
          "time": 47.31421199999999,
          "velocity": 0.6062992125984252
        },
        {
          "duration": 0.07692300000000074,
          "durationTicks": 120,
          "midi": 64,
          "name": "E4",
          "ticks": 64560,
          "time": 47.31421199999999,
          "velocity": 0.6299212598425197
        },
        {
          "duration": 0.07692300000000074,
          "durationTicks": 120,
          "midi": 57,
          "name": "A3",
          "ticks": 65040,
          "time": 47.621903999999994,
          "velocity": 0.7007874015748031
        },
        {
          "duration": 0.07692300000000074,
          "durationTicks": 120,
          "midi": 60,
          "name": "C4",
          "ticks": 65040,
          "time": 47.621903999999994,
          "velocity": 0.6614173228346457
        },
        {
          "duration": 0.07692300000000074,
          "durationTicks": 120,
          "midi": 63,
          "name": "D#4",
          "ticks": 65040,
          "time": 47.621903999999994,
          "velocity": 0.6456692913385826
        },
        {
          "duration": 0.07692299999999364,
          "durationTicks": 120,
          "midi": 57,
          "name": "A3",
          "ticks": 65520,
          "time": 47.929596,
          "velocity": 0.8110236220472441
        },
        {
          "duration": 0.07692299999999364,
          "durationTicks": 120,
          "midi": 60,
          "name": "C4",
          "ticks": 65520,
          "time": 47.929596,
          "velocity": 0.6692913385826772
        },
        {
          "duration": 0.07692299999999364,
          "durationTicks": 120,
          "midi": 63,
          "name": "D#4",
          "ticks": 65520,
          "time": 47.929596,
          "velocity": 0.6692913385826772
        },
        {
          "duration": 0.07692300000000074,
          "durationTicks": 120,
          "midi": 59,
          "name": "B3",
          "ticks": 66000,
          "time": 48.23728799999999,
          "velocity": 0.7322834645669292
        },
        {
          "duration": 0.07692300000000074,
          "durationTicks": 120,
          "midi": 62,
          "name": "D4",
          "ticks": 66000,
          "time": 48.23728799999999,
          "velocity": 0.7007874015748031
        },
        {
          "duration": 0.07692300000000074,
          "durationTicks": 120,
          "midi": 66,
          "name": "F#4",
          "ticks": 66000,
          "time": 48.23728799999999,
          "velocity": 0.6456692913385826
        },
        {
          "duration": 0.07692300000000074,
          "durationTicks": 120,
          "midi": 59,
          "name": "B3",
          "ticks": 66480,
          "time": 48.544979999999995,
          "velocity": 0.7874015748031497
        },
        {
          "duration": 0.07692300000000074,
          "durationTicks": 120,
          "midi": 62,
          "name": "D4",
          "ticks": 66480,
          "time": 48.544979999999995,
          "velocity": 0.6062992125984252
        },
        {
          "duration": 0.07692300000000074,
          "durationTicks": 120,
          "midi": 66,
          "name": "F#4",
          "ticks": 66480,
          "time": 48.544979999999995,
          "velocity": 0.6299212598425197
        },
        {
          "duration": 0.04487175000000576,
          "durationTicks": 70,
          "midi": 64,
          "name": "E4",
          "ticks": 66960,
          "time": 48.85267199999999,
          "velocity": 0.7874015748031497
        },
        {
          "duration": 0.04487175000000576,
          "durationTicks": 70,
          "midi": 65,
          "name": "F4",
          "ticks": 66960,
          "time": 48.85267199999999,
          "velocity": 0.6692913385826772
        },
        {
          "duration": 0.12692295000000087,
          "durationTicks": 198,
          "midi": 64,
          "name": "E4",
          "ticks": 67200,
          "time": 49.00651799999999,
          "velocity": 0.7874015748031497
        },
        {
          "duration": 0.12692295000000087,
          "durationTicks": 198,
          "midi": 65,
          "name": "F4",
          "ticks": 67200,
          "time": 49.00651799999999,
          "velocity": 0.6692913385826772
        },
        {
          "duration": 0.039743549999997185,
          "durationTicks": 62,
          "midi": 64,
          "name": "E4",
          "ticks": 67440,
          "time": 49.160363999999994,
          "velocity": 0.7874015748031497
        },
        {
          "duration": 0.039743549999997185,
          "durationTicks": 62,
          "midi": 65,
          "name": "F4",
          "ticks": 67440,
          "time": 49.160363999999994,
          "velocity": 0.6692913385826772
        },
        {
          "duration": 0.039743549999997185,
          "durationTicks": 62,
          "midi": 64,
          "name": "E4",
          "ticks": 67560,
          "time": 49.237286999999995,
          "velocity": 0.7874015748031497
        },
        {
          "duration": 0.039743549999997185,
          "durationTicks": 62,
          "midi": 65,
          "name": "F4",
          "ticks": 67560,
          "time": 49.237286999999995,
          "velocity": 0.6692913385826772
        },
        {
          "duration": 0.07500000000000284,
          "durationTicks": 120,
          "midi": 58,
          "name": "A#3",
          "ticks": 67920,
          "time": 49.464209999999994,
          "velocity": 0.7322834645669292
        },
        {
          "duration": 0.07500000000000284,
          "durationTicks": 120,
          "midi": 62,
          "name": "D4",
          "ticks": 67920,
          "time": 49.464209999999994,
          "velocity": 0.7007874015748031
        },
        {
          "duration": 0.07500000000000284,
          "durationTicks": 120,
          "midi": 65,
          "name": "F4",
          "ticks": 67920,
          "time": 49.464209999999994,
          "velocity": 0.6456692913385826
        },
        {
          "duration": 0.07499999999999574,
          "durationTicks": 120,
          "midi": 58,
          "name": "A#3",
          "ticks": 68400,
          "time": 49.76421,
          "velocity": 0.7874015748031497
        },
        {
          "duration": 0.07499999999999574,
          "durationTicks": 120,
          "midi": 62,
          "name": "D4",
          "ticks": 68400,
          "time": 49.76421,
          "velocity": 0.6062992125984252
        },
        {
          "duration": 0.07499999999999574,
          "durationTicks": 120,
          "midi": 65,
          "name": "F4",
          "ticks": 68400,
          "time": 49.76421,
          "velocity": 0.6299212598425197
        },
        {
          "duration": 0.04375000000000284,
          "durationTicks": 70,
          "midi": 64,
          "name": "E4",
          "ticks": 68880,
          "time": 50.064209999999996,
          "velocity": 0.7874015748031497
        },
        {
          "duration": 0.04375000000000284,
          "durationTicks": 70,
          "midi": 65,
          "name": "F4",
          "ticks": 68880,
          "time": 50.064209999999996,
          "velocity": 0.6692913385826772
        },
        {
          "duration": 0.12375000000000114,
          "durationTicks": 198,
          "midi": 64,
          "name": "E4",
          "ticks": 69120,
          "time": 50.214209999999994,
          "velocity": 0.7874015748031497
        },
        {
          "duration": 0.12375000000000114,
          "durationTicks": 198,
          "midi": 65,
          "name": "F4",
          "ticks": 69120,
          "time": 50.214209999999994,
          "velocity": 0.6692913385826772
        },
        {
          "duration": 0.038750000000000284,
          "durationTicks": 62,
          "midi": 64,
          "name": "E4",
          "ticks": 69360,
          "time": 50.36420999999999,
          "velocity": 0.7874015748031497
        },
        {
          "duration": 0.038750000000000284,
          "durationTicks": 62,
          "midi": 65,
          "name": "F4",
          "ticks": 69360,
          "time": 50.36420999999999,
          "velocity": 0.6692913385826772
        },
        {
          "duration": 0.038750000000000284,
          "durationTicks": 62,
          "midi": 64,
          "name": "E4",
          "ticks": 69480,
          "time": 50.439209999999996,
          "velocity": 0.7874015748031497
        },
        {
          "duration": 0.038750000000000284,
          "durationTicks": 62,
          "midi": 65,
          "name": "F4",
          "ticks": 69480,
          "time": 50.439209999999996,
          "velocity": 0.6692913385826772
        },
        {
          "duration": 0.07317050000000336,
          "durationTicks": 120,
          "midi": 61,
          "name": "C#4",
          "ticks": 69840,
          "time": 50.660551,
          "velocity": 0.7322834645669292
        },
        {
          "duration": 0.07317050000000336,
          "durationTicks": 120,
          "midi": 64,
          "name": "E4",
          "ticks": 69840,
          "time": 50.660551,
          "velocity": 0.7007874015748031
        },
        {
          "duration": 0.07317050000000336,
          "durationTicks": 120,
          "midi": 68,
          "name": "G#4",
          "ticks": 69840,
          "time": 50.660551,
          "velocity": 0.6456692913385826
        },
        {
          "duration": 0.07317050000000336,
          "durationTicks": 120,
          "midi": 61,
          "name": "C#4",
          "ticks": 70320,
          "time": 50.953233,
          "velocity": 0.7874015748031497
        },
        {
          "duration": 0.07317050000000336,
          "durationTicks": 120,
          "midi": 64,
          "name": "E4",
          "ticks": 70320,
          "time": 50.953233,
          "velocity": 0.6062992125984252
        },
        {
          "duration": 0.07317050000000336,
          "durationTicks": 120,
          "midi": 68,
          "name": "G#4",
          "ticks": 70320,
          "time": 50.953233,
          "velocity": 0.6299212598425197
        },
        {
          "duration": 0.07134123750000043,
          "durationTicks": 117,
          "midi": 66,
          "name": "F#4",
          "ticks": 70800,
          "time": 51.245915,
          "velocity": 0.7874015748031497
        },
        {
          "duration": 0.07134123750000043,
          "durationTicks": 117,
          "midi": 67,
          "name": "G4",
          "ticks": 70800,
          "time": 51.245915,
          "velocity": 0.6692913385826772
        },
        {
          "duration": 0.2926819999999992,
          "durationTicks": 480,
          "midi": 66,
          "name": "F#4",
          "ticks": 71040,
          "time": 51.392255999999996,
          "velocity": 0.7874015748031497
        },
        {
          "duration": 0.2926819999999992,
          "durationTicks": 480,
          "midi": 67,
          "name": "G4",
          "ticks": 71040,
          "time": 51.392255999999996,
          "velocity": 0.6692913385826772
        },
        {
          "duration": 0.06976724999999817,
          "durationTicks": 120,
          "midi": 60,
          "name": "C4",
          "ticks": 71760,
          "time": 51.82486954583334,
          "velocity": 0.7322834645669292
        },
        {
          "duration": 0.06976724999999817,
          "durationTicks": 120,
          "midi": 64,
          "name": "E4",
          "ticks": 71760,
          "time": 51.82486954583334,
          "velocity": 0.7007874015748031
        },
        {
          "duration": 0.06976724999999817,
          "durationTicks": 120,
          "midi": 67,
          "name": "G4",
          "ticks": 71760,
          "time": 51.82486954583334,
          "velocity": 0.6456692913385826
        },
        {
          "duration": 0.06976724999999817,
          "durationTicks": 120,
          "midi": 60,
          "name": "C4",
          "ticks": 72240,
          "time": 52.10393854583334,
          "velocity": 0.7874015748031497
        },
        {
          "duration": 0.06976724999999817,
          "durationTicks": 120,
          "midi": 64,
          "name": "E4",
          "ticks": 72240,
          "time": 52.10393854583334,
          "velocity": 0.6062992125984252
        },
        {
          "duration": 0.06976724999999817,
          "durationTicks": 120,
          "midi": 67,
          "name": "G4",
          "ticks": 72240,
          "time": 52.10393854583334,
          "velocity": 0.6299212598425197
        },
        {
          "duration": 0.04941846875000522,
          "durationTicks": 85,
          "midi": 61,
          "name": "C#4",
          "ticks": 72480,
          "time": 52.24347304583333,
          "velocity": 0.7007874015748031
        },
        {
          "duration": 0.04941846875000522,
          "durationTicks": 85,
          "midi": 64,
          "name": "E4",
          "ticks": 72480,
          "time": 52.24347304583333,
          "velocity": 0.6614173228346457
        },
        {
          "duration": 0.04941846875000522,
          "durationTicks": 85,
          "midi": 67,
          "name": "G4",
          "ticks": 72480,
          "time": 52.24347304583333,
          "velocity": 0.6456692913385826
        },
        {
          "duration": 0.04941846874999811,
          "durationTicks": 85,
          "midi": 62,
          "name": "D4",
          "ticks": 72640,
          "time": 52.336496045833336,
          "velocity": 0.7007874015748031
        },
        {
          "duration": 0.04941846874999811,
          "durationTicks": 85,
          "midi": 65,
          "name": "F4",
          "ticks": 72640,
          "time": 52.336496045833336,
          "velocity": 0.6614173228346457
        },
        {
          "duration": 0.04941846874999811,
          "durationTicks": 85,
          "midi": 68,
          "name": "G#4",
          "ticks": 72640,
          "time": 52.336496045833336,
          "velocity": 0.6456692913385826
        },
        {
          "duration": 0.04941846874999811,
          "durationTicks": 85,
          "midi": 63,
          "name": "D#4",
          "ticks": 72800,
          "time": 52.42951904583334,
          "velocity": 0.7007874015748031
        },
        {
          "duration": 0.04941846874999811,
          "durationTicks": 85,
          "midi": 66,
          "name": "F#4",
          "ticks": 72800,
          "time": 52.42951904583334,
          "velocity": 0.6614173228346457
        },
        {
          "duration": 0.04941846874999811,
          "durationTicks": 85,
          "midi": 69,
          "name": "A4",
          "ticks": 72800,
          "time": 52.42951904583334,
          "velocity": 0.6456692913385826
        },
        {
          "duration": 0.04941846875000522,
          "durationTicks": 85,
          "midi": 64,
          "name": "E4",
          "ticks": 72960,
          "time": 52.52254204583333,
          "velocity": 0.7007874015748031
        },
        {
          "duration": 0.04941846875000522,
          "durationTicks": 85,
          "midi": 67,
          "name": "G4",
          "ticks": 72960,
          "time": 52.52254204583333,
          "velocity": 0.6614173228346457
        },
        {
          "duration": 0.04941846875000522,
          "durationTicks": 85,
          "midi": 70,
          "name": "A#4",
          "ticks": 72960,
          "time": 52.52254204583333,
          "velocity": 0.6456692913385826
        },
        {
          "duration": 0.04941846874999811,
          "durationTicks": 85,
          "midi": 65,
          "name": "F4",
          "ticks": 73120,
          "time": 52.615565045833335,
          "velocity": 0.7007874015748031
        },
        {
          "duration": 0.04941846874999811,
          "durationTicks": 85,
          "midi": 68,
          "name": "G#4",
          "ticks": 73120,
          "time": 52.615565045833335,
          "velocity": 0.6614173228346457
        },
        {
          "duration": 0.04941846874999811,
          "durationTicks": 85,
          "midi": 71,
          "name": "B4",
          "ticks": 73120,
          "time": 52.615565045833335,
          "velocity": 0.6456692913385826
        },
        {
          "duration": 0.04941846874999811,
          "durationTicks": 85,
          "midi": 66,
          "name": "F#4",
          "ticks": 73280,
          "time": 52.70858804583334,
          "velocity": 0.7007874015748031
        },
        {
          "duration": 0.04941846874999811,
          "durationTicks": 85,
          "midi": 69,
          "name": "A4",
          "ticks": 73280,
          "time": 52.70858804583334,
          "velocity": 0.6614173228346457
        },
        {
          "duration": 0.04941846874999811,
          "durationTicks": 85,
          "midi": 72,
          "name": "C5",
          "ticks": 73280,
          "time": 52.70858804583334,
          "velocity": 0.6456692913385826
        },
        {
          "duration": 0.06849299999999658,
          "durationTicks": 120,
          "midi": 64,
          "name": "E4",
          "ticks": 73680,
          "time": 52.93859704583333,
          "velocity": 0.7322834645669292
        },
        {
          "duration": 0.06849299999999658,
          "durationTicks": 120,
          "midi": 67,
          "name": "G4",
          "ticks": 73680,
          "time": 52.93859704583333,
          "velocity": 0.7007874015748031
        },
        {
          "duration": 0.06849299999999658,
          "durationTicks": 120,
          "midi": 71,
          "name": "B4",
          "ticks": 73680,
          "time": 52.93859704583333,
          "velocity": 0.6456692913385826
        },
        {
          "duration": 0.06849299999999658,
          "durationTicks": 120,
          "midi": 64,
          "name": "E4",
          "ticks": 74160,
          "time": 53.212569045833334,
          "velocity": 0.7322834645669292
        },
        {
          "duration": 0.06849299999999658,
          "durationTicks": 120,
          "midi": 67,
          "name": "G4",
          "ticks": 74160,
          "time": 53.212569045833334,
          "velocity": 0.7007874015748031
        },
        {
          "duration": 0.06849299999999658,
          "durationTicks": 120,
          "midi": 71,
          "name": "B4",
          "ticks": 74160,
          "time": 53.212569045833334,
          "velocity": 0.6456692913385826
        },
        {
          "duration": 0.06849299999999658,
          "durationTicks": 120,
          "midi": 65,
          "name": "F4",
          "ticks": 74640,
          "time": 53.486541045833334,
          "velocity": 0.7322834645669292
        },
        {
          "duration": 0.06849299999999658,
          "durationTicks": 120,
          "midi": 69,
          "name": "A4",
          "ticks": 74640,
          "time": 53.486541045833334,
          "velocity": 0.7007874015748031
        },
        {
          "duration": 0.06849299999999658,
          "durationTicks": 120,
          "midi": 73,
          "name": "C#5",
          "ticks": 74640,
          "time": 53.486541045833334,
          "velocity": 0.6456692913385826
        },
        {
          "duration": 0.10844724999999755,
          "durationTicks": 190,
          "midi": 65,
          "name": "F4",
          "ticks": 74880,
          "time": 53.623527045833335,
          "velocity": 0.7322834645669292
        },
        {
          "duration": 0.10844724999999755,
          "durationTicks": 190,
          "midi": 69,
          "name": "A4",
          "ticks": 74880,
          "time": 53.623527045833335,
          "velocity": 0.7007874015748031
        },
        {
          "duration": 0.10844724999999755,
          "durationTicks": 190,
          "midi": 73,
          "name": "C#5",
          "ticks": 74880,
          "time": 53.623527045833335,
          "velocity": 0.6456692913385826
        },
        {
          "duration": 0.038812700000001144,
          "durationTicks": 68,
          "midi": 65,
          "name": "F4",
          "ticks": 75120,
          "time": 53.760513045833335,
          "velocity": 0.7322834645669292
        },
        {
          "duration": 0.038812700000001144,
          "durationTicks": 68,
          "midi": 69,
          "name": "A4",
          "ticks": 75120,
          "time": 53.760513045833335,
          "velocity": 0.7007874015748031
        },
        {
          "duration": 0.038812700000001144,
          "durationTicks": 68,
          "midi": 73,
          "name": "C#5",
          "ticks": 75120,
          "time": 53.760513045833335,
          "velocity": 0.6456692913385826
        },
        {
          "duration": 0.038812700000001144,
          "durationTicks": 68,
          "midi": 65,
          "name": "F4",
          "ticks": 75240,
          "time": 53.82900604583333,
          "velocity": 0.7322834645669292
        },
        {
          "duration": 0.038812700000001144,
          "durationTicks": 68,
          "midi": 69,
          "name": "A4",
          "ticks": 75240,
          "time": 53.82900604583333,
          "velocity": 0.7007874015748031
        },
        {
          "duration": 0.038812700000001144,
          "durationTicks": 68,
          "midi": 73,
          "name": "C#5",
          "ticks": 75240,
          "time": 53.82900604583333,
          "velocity": 0.6456692913385826
        },
        {
          "duration": 0.10256400000000099,
          "durationTicks": 160,
          "midi": 66,
          "name": "F#4",
          "ticks": 75360,
          "time": 53.897499045833335,
          "velocity": 0.7874015748031497
        },
        {
          "duration": 0.10256400000000099,
          "durationTicks": 160,
          "midi": 69,
          "name": "A4",
          "ticks": 75360,
          "time": 53.897499045833335,
          "velocity": 0.7874015748031497
        },
        {
          "duration": 0.10256400000000099,
          "durationTicks": 160,
          "midi": 74,
          "name": "D5",
          "ticks": 75360,
          "time": 53.897499045833335,
          "velocity": 0.7874015748031497
        },
        {
          "duration": 0.10256400000000099,
          "durationTicks": 160,
          "midi": 62,
          "name": "D4",
          "ticks": 76320,
          "time": 54.512883045833334,
          "velocity": 0.7874015748031497
        },
        {
          "duration": 0.10256400000000099,
          "durationTicks": 160,
          "midi": 66,
          "name": "F#4",
          "ticks": 76320,
          "time": 54.512883045833334,
          "velocity": 0.7874015748031497
        },
        {
          "duration": 0.10256400000000099,
          "durationTicks": 160,
          "midi": 69,
          "name": "A4",
          "ticks": 76320,
          "time": 54.512883045833334,
          "velocity": 0.7874015748031497
        },
        {
          "duration": 0.10256400000000099,
          "durationTicks": 160,
          "midi": 69,
          "name": "A4",
          "ticks": 77280,
          "time": 55.12826704583333,
          "velocity": 0.7874015748031497
        },
        {
          "duration": 0.10256400000000099,
          "durationTicks": 160,
          "midi": 73,
          "name": "C#5",
          "ticks": 77280,
          "time": 55.12826704583333,
          "velocity": 0.7874015748031497
        },
        {
          "duration": 0.10256400000000099,
          "durationTicks": 160,
          "midi": 64,
          "name": "E4",
          "ticks": 77280,
          "time": 55.12826704583333,
          "velocity": 0.7874015748031497
        },
        {
          "duration": 0.06849299999999658,
          "durationTicks": 120,
          "midi": 66,
          "name": "F#4",
          "ticks": 78240,
          "time": 55.74365104583333,
          "velocity": 0.7874015748031497
        },
        {
          "duration": 0.06849299999999658,
          "durationTicks": 120,
          "midi": 70,
          "name": "A#4",
          "ticks": 78240,
          "time": 55.74365104583333,
          "velocity": 0.7874015748031497
        },
        {
          "duration": 0.06849299999999658,
          "durationTicks": 120,
          "midi": 61,
          "name": "C#4",
          "ticks": 78240,
          "time": 55.74365104583333,
          "velocity": 0.7874015748031497
        },
        {
          "duration": 0.06849299999999658,
          "durationTicks": 120,
          "midi": 70,
          "name": "A#4",
          "ticks": 78480,
          "time": 55.88063704583333,
          "velocity": 0.7874015748031497
        },
        {
          "duration": 0.06849299999999658,
          "durationTicks": 120,
          "midi": 61,
          "name": "C#4",
          "ticks": 78480,
          "time": 55.88063704583333,
          "velocity": 0.7874015748031497
        },
        {
          "duration": 0.06849299999999658,
          "durationTicks": 120,
          "midi": 66,
          "name": "F#4",
          "ticks": 78480,
          "time": 55.88063704583333,
          "velocity": 0.7874015748031497
        },
        {
          "duration": 0.06849299999999658,
          "durationTicks": 120,
          "midi": 70,
          "name": "A#4",
          "ticks": 78720,
          "time": 56.01762304583333,
          "velocity": 0.7874015748031497
        },
        {
          "duration": 0.06849299999999658,
          "durationTicks": 120,
          "midi": 61,
          "name": "C#4",
          "ticks": 78720,
          "time": 56.01762304583333,
          "velocity": 0.7874015748031497
        },
        {
          "duration": 0.06849299999999658,
          "durationTicks": 120,
          "midi": 66,
          "name": "F#4",
          "ticks": 78720,
          "time": 56.01762304583333,
          "velocity": 0.7874015748031497
        },
        {
          "duration": 0.06849299999999658,
          "durationTicks": 120,
          "midi": 59,
          "name": "B3",
          "ticks": 79440,
          "time": 56.42858104583333,
          "velocity": 0.6929133858267716
        },
        {
          "duration": 0.06849299999999658,
          "durationTicks": 120,
          "midi": 63,
          "name": "D#4",
          "ticks": 79440,
          "time": 56.42858104583333,
          "velocity": 0.5984251968503937
        },
        {
          "duration": 0.06849299999999658,
          "durationTicks": 120,
          "midi": 66,
          "name": "F#4",
          "ticks": 79440,
          "time": 56.42858104583333,
          "velocity": 0.5905511811023622
        },
        {
          "duration": 0.06849299999999658,
          "durationTicks": 120,
          "midi": 59,
          "name": "B3",
          "ticks": 79920,
          "time": 56.702553045833334,
          "velocity": 0.7322834645669292
        },
        {
          "duration": 0.06849299999999658,
          "durationTicks": 120,
          "midi": 63,
          "name": "D#4",
          "ticks": 79920,
          "time": 56.702553045833334,
          "velocity": 0.6141732283464567
        },
        {
          "duration": 0.06849299999999658,
          "durationTicks": 120,
          "midi": 66,
          "name": "F#4",
          "ticks": 79920,
          "time": 56.702553045833334,
          "velocity": 0.6141732283464567
        },
        {
          "duration": 0.06849299999999658,
          "durationTicks": 120,
          "midi": 59,
          "name": "B3",
          "ticks": 80400,
          "time": 56.976525045833334,
          "velocity": 0.7401574803149606
        },
        {
          "duration": 0.06849299999999658,
          "durationTicks": 120,
          "midi": 63,
          "name": "D#4",
          "ticks": 80400,
          "time": 56.976525045833334,
          "velocity": 0.6535433070866141
        },
        {
          "duration": 0.06849299999999658,
          "durationTicks": 120,
          "midi": 66,
          "name": "F#4",
          "ticks": 80400,
          "time": 56.976525045833334,
          "velocity": 0.6614173228346457
        },
        {
          "duration": 0.06849299999999658,
          "durationTicks": 120,
          "midi": 59,
          "name": "B3",
          "ticks": 80880,
          "time": 57.250497045833335,
          "velocity": 0.7401574803149606
        },
        {
          "duration": 0.06849299999999658,
          "durationTicks": 120,
          "midi": 63,
          "name": "D#4",
          "ticks": 80880,
          "time": 57.250497045833335,
          "velocity": 0.6299212598425197
        },
        {
          "duration": 0.06849299999999658,
          "durationTicks": 120,
          "midi": 66,
          "name": "F#4",
          "ticks": 80880,
          "time": 57.250497045833335,
          "velocity": 0.6614173228346457
        },
        {
          "duration": 0.06849300000000369,
          "durationTicks": 120,
          "midi": 60,
          "name": "C4",
          "ticks": 81360,
          "time": 57.52446904583333,
          "velocity": 0.6929133858267716
        },
        {
          "duration": 0.06849300000000369,
          "durationTicks": 120,
          "midi": 63,
          "name": "D#4",
          "ticks": 81360,
          "time": 57.52446904583333,
          "velocity": 0.5984251968503937
        },
        {
          "duration": 0.06849300000000369,
          "durationTicks": 120,
          "midi": 66,
          "name": "F#4",
          "ticks": 81360,
          "time": 57.52446904583333,
          "velocity": 0.5905511811023622
        },
        {
          "duration": 0.06849300000000369,
          "durationTicks": 120,
          "midi": 60,
          "name": "C4",
          "ticks": 81840,
          "time": 57.79844104583333,
          "velocity": 0.7322834645669292
        },
        {
          "duration": 0.06849300000000369,
          "durationTicks": 120,
          "midi": 63,
          "name": "D#4",
          "ticks": 81840,
          "time": 57.79844104583333,
          "velocity": 0.6141732283464567
        },
        {
          "duration": 0.06849300000000369,
          "durationTicks": 120,
          "midi": 66,
          "name": "F#4",
          "ticks": 81840,
          "time": 57.79844104583333,
          "velocity": 0.6141732283464567
        },
        {
          "duration": 0.06849300000000369,
          "durationTicks": 120,
          "midi": 60,
          "name": "C4",
          "ticks": 82320,
          "time": 58.07241304583333,
          "velocity": 0.7401574803149606
        },
        {
          "duration": 0.06849300000000369,
          "durationTicks": 120,
          "midi": 63,
          "name": "D#4",
          "ticks": 82320,
          "time": 58.07241304583333,
          "velocity": 0.6535433070866141
        },
        {
          "duration": 0.06849300000000369,
          "durationTicks": 120,
          "midi": 66,
          "name": "F#4",
          "ticks": 82320,
          "time": 58.07241304583333,
          "velocity": 0.6614173228346457
        },
        {
          "duration": 0.06849300000000369,
          "durationTicks": 120,
          "midi": 60,
          "name": "C4",
          "ticks": 82800,
          "time": 58.34638504583333,
          "velocity": 0.7401574803149606
        },
        {
          "duration": 0.06849300000000369,
          "durationTicks": 120,
          "midi": 63,
          "name": "D#4",
          "ticks": 82800,
          "time": 58.34638504583333,
          "velocity": 0.6299212598425197
        },
        {
          "duration": 0.06849300000000369,
          "durationTicks": 120,
          "midi": 66,
          "name": "F#4",
          "ticks": 82800,
          "time": 58.34638504583333,
          "velocity": 0.6614173228346457
        },
        {
          "duration": 0.06849300000000369,
          "durationTicks": 120,
          "midi": 61,
          "name": "C#4",
          "ticks": 83280,
          "time": 58.62035704583333,
          "velocity": 0.7480314960629921
        },
        {
          "duration": 0.06849300000000369,
          "durationTicks": 120,
          "midi": 64,
          "name": "E4",
          "ticks": 83280,
          "time": 58.62035704583333,
          "velocity": 0.6456692913385826
        },
        {
          "duration": 0.06849300000000369,
          "durationTicks": 120,
          "midi": 68,
          "name": "G#4",
          "ticks": 83280,
          "time": 58.62035704583333,
          "velocity": 0.6299212598425197
        },
        {
          "duration": 0.06849300000000369,
          "durationTicks": 120,
          "midi": 61,
          "name": "C#4",
          "ticks": 83760,
          "time": 58.89432904583333,
          "velocity": 0.7480314960629921
        },
        {
          "duration": 0.06849300000000369,
          "durationTicks": 120,
          "midi": 64,
          "name": "E4",
          "ticks": 83760,
          "time": 58.89432904583333,
          "velocity": 0.6771653543307087
        },
        {
          "duration": 0.06849300000000369,
          "durationTicks": 120,
          "midi": 68,
          "name": "G#4",
          "ticks": 83760,
          "time": 58.89432904583333,
          "velocity": 0.6456692913385826
        },
        {
          "duration": 0.06849300000000369,
          "durationTicks": 120,
          "midi": 61,
          "name": "C#4",
          "ticks": 84240,
          "time": 59.16830104583333,
          "velocity": 0.7401574803149606
        },
        {
          "duration": 0.06849300000000369,
          "durationTicks": 120,
          "midi": 64,
          "name": "E4",
          "ticks": 84240,
          "time": 59.16830104583333,
          "velocity": 0.6692913385826772
        },
        {
          "duration": 0.06849300000000369,
          "durationTicks": 120,
          "midi": 68,
          "name": "G#4",
          "ticks": 84240,
          "time": 59.16830104583333,
          "velocity": 0.6377952755905512
        },
        {
          "duration": 0.06849299999999658,
          "durationTicks": 120,
          "midi": 61,
          "name": "C#4",
          "ticks": 84720,
          "time": 59.44227304583333,
          "velocity": 0.7795275590551181
        },
        {
          "duration": 0.06849299999999658,
          "durationTicks": 120,
          "midi": 64,
          "name": "E4",
          "ticks": 84720,
          "time": 59.44227304583333,
          "velocity": 0.6929133858267716
        },
        {
          "duration": 0.06849299999999658,
          "durationTicks": 120,
          "midi": 68,
          "name": "G#4",
          "ticks": 84720,
          "time": 59.44227304583333,
          "velocity": 0.6614173228346457
        },
        {
          "duration": 0.06849299999999658,
          "durationTicks": 120,
          "midi": 62,
          "name": "D4",
          "ticks": 85200,
          "time": 59.71624504583333,
          "velocity": 0.6850393700787402
        },
        {
          "duration": 0.06849299999999658,
          "durationTicks": 120,
          "midi": 65,
          "name": "F4",
          "ticks": 85200,
          "time": 59.71624504583333,
          "velocity": 0.7322834645669292
        },
        {
          "duration": 0.06849299999999658,
          "durationTicks": 120,
          "midi": 68,
          "name": "G#4",
          "ticks": 85200,
          "time": 59.71624504583333,
          "velocity": 0.6692913385826772
        },
        {
          "duration": 0.06849299999999658,
          "durationTicks": 120,
          "midi": 62,
          "name": "D4",
          "ticks": 85680,
          "time": 59.99021704583333,
          "velocity": 0.6771653543307087
        },
        {
          "duration": 0.06849299999999658,
          "durationTicks": 120,
          "midi": 65,
          "name": "F4",
          "ticks": 85680,
          "time": 59.99021704583333,
          "velocity": 0.7165354330708661
        },
        {
          "duration": 0.06849299999999658,
          "durationTicks": 120,
          "midi": 68,
          "name": "G#4",
          "ticks": 85680,
          "time": 59.99021704583333,
          "velocity": 0.6692913385826772
        },
        {
          "duration": 0.06849299999999658,
          "durationTicks": 120,
          "midi": 62,
          "name": "D4",
          "ticks": 86160,
          "time": 60.264189045833334,
          "velocity": 0.6062992125984252
        },
        {
          "duration": 0.06849299999999658,
          "durationTicks": 120,
          "midi": 65,
          "name": "F4",
          "ticks": 86160,
          "time": 60.264189045833334,
          "velocity": 0.5905511811023622
        },
        {
          "duration": 0.06849299999999658,
          "durationTicks": 120,
          "midi": 68,
          "name": "G#4",
          "ticks": 86160,
          "time": 60.264189045833334,
          "velocity": 0.6456692913385826
        },
        {
          "duration": 0.06849299999999658,
          "durationTicks": 120,
          "midi": 62,
          "name": "D4",
          "ticks": 86640,
          "time": 60.538161045833334,
          "velocity": 0.6614173228346457
        },
        {
          "duration": 0.06849299999999658,
          "durationTicks": 120,
          "midi": 65,
          "name": "F4",
          "ticks": 86640,
          "time": 60.538161045833334,
          "velocity": 0.6299212598425197
        },
        {
          "duration": 0.06849299999999658,
          "durationTicks": 120,
          "midi": 68,
          "name": "G#4",
          "ticks": 86640,
          "time": 60.538161045833334,
          "velocity": 0.6692913385826772
        },
        {
          "duration": 0.06849299999999658,
          "durationTicks": 120,
          "midi": 63,
          "name": "D#4",
          "ticks": 87120,
          "time": 60.812133045833335,
          "velocity": 0.5905511811023622
        },
        {
          "duration": 0.06849299999999658,
          "durationTicks": 120,
          "midi": 66,
          "name": "F#4",
          "ticks": 87120,
          "time": 60.812133045833335,
          "velocity": 0.6377952755905512
        },
        {
          "duration": 0.06849299999999658,
          "durationTicks": 120,
          "midi": 70,
          "name": "A#4",
          "ticks": 87120,
          "time": 60.812133045833335,
          "velocity": 0.5826771653543307
        },
        {
          "duration": 0.06849299999999658,
          "durationTicks": 120,
          "midi": 63,
          "name": "D#4",
          "ticks": 87600,
          "time": 61.086105045833335,
          "velocity": 0.7165354330708661
        },
        {
          "duration": 0.06849299999999658,
          "durationTicks": 120,
          "midi": 66,
          "name": "F#4",
          "ticks": 87600,
          "time": 61.086105045833335,
          "velocity": 0.7007874015748031
        },
        {
          "duration": 0.06849299999999658,
          "durationTicks": 120,
          "midi": 70,
          "name": "A#4",
          "ticks": 87600,
          "time": 61.086105045833335,
          "velocity": 0.7401574803149606
        },
        {
          "duration": 0.06849300000000369,
          "durationTicks": 120,
          "midi": 64,
          "name": "E4",
          "ticks": 88080,
          "time": 61.36007704583333,
          "velocity": 0.6929133858267716
        },
        {
          "duration": 0.06849300000000369,
          "durationTicks": 120,
          "midi": 67,
          "name": "G4",
          "ticks": 88080,
          "time": 61.36007704583333,
          "velocity": 0.6062992125984252
        },
        {
          "duration": 0.06849300000000369,
          "durationTicks": 120,
          "midi": 70,
          "name": "A#4",
          "ticks": 88080,
          "time": 61.36007704583333,
          "velocity": 0.6456692913385826
        },
        {
          "duration": 0.06849300000000369,
          "durationTicks": 120,
          "midi": 64,
          "name": "E4",
          "ticks": 88560,
          "time": 61.63404904583333,
          "velocity": 0.6850393700787402
        },
        {
          "duration": 0.06849300000000369,
          "durationTicks": 120,
          "midi": 67,
          "name": "G4",
          "ticks": 88560,
          "time": 61.63404904583333,
          "velocity": 0.6377952755905512
        },
        {
          "duration": 0.06849300000000369,
          "durationTicks": 120,
          "midi": 70,
          "name": "A#4",
          "ticks": 88560,
          "time": 61.63404904583333,
          "velocity": 0.6692913385826772
        },
        {
          "duration": 0.06849300000000369,
          "durationTicks": 120,
          "midi": 63,
          "name": "D#4",
          "ticks": 89040,
          "time": 61.90802104583333,
          "velocity": 0.5905511811023622
        },
        {
          "duration": 0.06849300000000369,
          "durationTicks": 120,
          "midi": 68,
          "name": "G#4",
          "ticks": 89040,
          "time": 61.90802104583333,
          "velocity": 0.6141732283464567
        },
        {
          "duration": 0.06849300000000369,
          "durationTicks": 120,
          "midi": 71,
          "name": "B4",
          "ticks": 89040,
          "time": 61.90802104583333,
          "velocity": 0.6299212598425197
        },
        {
          "duration": 0.06849300000000369,
          "durationTicks": 120,
          "midi": 63,
          "name": "D#4",
          "ticks": 89520,
          "time": 62.18199304583333,
          "velocity": 0.7007874015748031
        },
        {
          "duration": 0.06849300000000369,
          "durationTicks": 120,
          "midi": 68,
          "name": "G#4",
          "ticks": 89520,
          "time": 62.18199304583333,
          "velocity": 0.6377952755905512
        },
        {
          "duration": 0.06849300000000369,
          "durationTicks": 120,
          "midi": 71,
          "name": "B4",
          "ticks": 89520,
          "time": 62.18199304583333,
          "velocity": 0.6535433070866141
        },
        {
          "duration": 0.06849300000000369,
          "durationTicks": 120,
          "midi": 63,
          "name": "D#4",
          "ticks": 90000,
          "time": 62.45596504583333,
          "velocity": 0.6850393700787402
        },
        {
          "duration": 0.06849300000000369,
          "durationTicks": 120,
          "midi": 66,
          "name": "F#4",
          "ticks": 90000,
          "time": 62.45596504583333,
          "velocity": 0.6929133858267716
        },
        {
          "duration": 0.06849300000000369,
          "durationTicks": 120,
          "midi": 69,
          "name": "A4",
          "ticks": 90000,
          "time": 62.45596504583333,
          "velocity": 0.5433070866141733
        },
        {
          "duration": 0.06849299999999658,
          "durationTicks": 120,
          "midi": 63,
          "name": "D#4",
          "ticks": 90480,
          "time": 62.72993704583333,
          "velocity": 0.6456692913385826
        },
        {
          "duration": 0.06849299999999658,
          "durationTicks": 120,
          "midi": 66,
          "name": "F#4",
          "ticks": 90480,
          "time": 62.72993704583333,
          "velocity": 0.6929133858267716
        },
        {
          "duration": 0.06849299999999658,
          "durationTicks": 120,
          "midi": 69,
          "name": "A4",
          "ticks": 90480,
          "time": 62.72993704583333,
          "velocity": 0.5433070866141733
        },
        {
          "duration": 0.06849299999999658,
          "durationTicks": 120,
          "midi": 61,
          "name": "C#4",
          "ticks": 90960,
          "time": 63.00390904583333,
          "velocity": 0.7716535433070866
        },
        {
          "duration": 0.06849299999999658,
          "durationTicks": 120,
          "midi": 64,
          "name": "E4",
          "ticks": 90960,
          "time": 63.00390904583333,
          "velocity": 0.6220472440944882
        },
        {
          "duration": 0.06849299999999658,
          "durationTicks": 120,
          "midi": 68,
          "name": "G#4",
          "ticks": 90960,
          "time": 63.00390904583333,
          "velocity": 0.6220472440944882
        },
        {
          "duration": 0.06849299999999658,
          "durationTicks": 120,
          "midi": 61,
          "name": "C#4",
          "ticks": 91440,
          "time": 63.27788104583333,
          "velocity": 0.7716535433070866
        },
        {
          "duration": 0.06849299999999658,
          "durationTicks": 120,
          "midi": 64,
          "name": "E4",
          "ticks": 91440,
          "time": 63.27788104583333,
          "velocity": 0.6850393700787402
        },
        {
          "duration": 0.06849299999999658,
          "durationTicks": 120,
          "midi": 68,
          "name": "G#4",
          "ticks": 91440,
          "time": 63.27788104583333,
          "velocity": 0.6456692913385826
        },
        {
          "duration": 0.06849299999999658,
          "durationTicks": 120,
          "midi": 61,
          "name": "C#4",
          "ticks": 91920,
          "time": 63.55185304583333,
          "velocity": 0.7401574803149606
        },
        {
          "duration": 0.06849299999999658,
          "durationTicks": 120,
          "midi": 64,
          "name": "E4",
          "ticks": 91920,
          "time": 63.55185304583333,
          "velocity": 0.6535433070866141
        },
        {
          "duration": 0.06849299999999658,
          "durationTicks": 120,
          "midi": 67,
          "name": "G4",
          "ticks": 91920,
          "time": 63.55185304583333,
          "velocity": 0.5511811023622047
        },
        {
          "duration": 0.06849299999999658,
          "durationTicks": 120,
          "midi": 61,
          "name": "C#4",
          "ticks": 92400,
          "time": 63.825825045833334,
          "velocity": 0.7637795275590551
        },
        {
          "duration": 0.06849299999999658,
          "durationTicks": 120,
          "midi": 64,
          "name": "E4",
          "ticks": 92400,
          "time": 63.825825045833334,
          "velocity": 0.6929133858267716
        },
        {
          "duration": 0.06849299999999658,
          "durationTicks": 120,
          "midi": 67,
          "name": "G4",
          "ticks": 92400,
          "time": 63.825825045833334,
          "velocity": 0.6377952755905512
        },
        {
          "duration": 0.06849300000000369,
          "durationTicks": 120,
          "midi": 58,
          "name": "A#3",
          "ticks": 92880,
          "time": 64.09979704583333,
          "velocity": 0.7165354330708661
        },
        {
          "duration": 0.06849300000000369,
          "durationTicks": 120,
          "midi": 61,
          "name": "C#4",
          "ticks": 92880,
          "time": 64.09979704583333,
          "velocity": 0.6929133858267716
        },
        {
          "duration": 0.06849300000000369,
          "durationTicks": 120,
          "midi": 66,
          "name": "F#4",
          "ticks": 92880,
          "time": 64.09979704583333,
          "velocity": 0.6062992125984252
        },
        {
          "duration": 0.06849300000000369,
          "durationTicks": 120,
          "midi": 58,
          "name": "A#3",
          "ticks": 93360,
          "time": 64.37376904583333,
          "velocity": 0.7165354330708661
        },
        {
          "duration": 0.06849300000000369,
          "durationTicks": 120,
          "midi": 61,
          "name": "C#4",
          "ticks": 93360,
          "time": 64.37376904583333,
          "velocity": 0.6535433070866141
        },
        {
          "duration": 0.06849300000000369,
          "durationTicks": 120,
          "midi": 66,
          "name": "F#4",
          "ticks": 93360,
          "time": 64.37376904583333,
          "velocity": 0.5905511811023622
        },
        {
          "duration": 0.06849300000000369,
          "durationTicks": 120,
          "midi": 58,
          "name": "A#3",
          "ticks": 93840,
          "time": 64.64774104583333,
          "velocity": 0.6299212598425197
        },
        {
          "duration": 0.06849300000000369,
          "durationTicks": 120,
          "midi": 62,
          "name": "D4",
          "ticks": 93840,
          "time": 64.64774104583333,
          "velocity": 0.6456692913385826
        },
        {
          "duration": 0.06849300000000369,
          "durationTicks": 120,
          "midi": 66,
          "name": "F#4",
          "ticks": 93840,
          "time": 64.64774104583333,
          "velocity": 0.49606299212598426
        },
        {
          "duration": 0.06849299999998948,
          "durationTicks": 120,
          "midi": 58,
          "name": "A#3",
          "ticks": 94080,
          "time": 64.78472704583334,
          "velocity": 0.6299212598425197
        },
        {
          "duration": 0.06849299999998948,
          "durationTicks": 120,
          "midi": 62,
          "name": "D4",
          "ticks": 94080,
          "time": 64.78472704583334,
          "velocity": 0.6456692913385826
        },
        {
          "duration": 0.06849299999998948,
          "durationTicks": 120,
          "midi": 66,
          "name": "F#4",
          "ticks": 94080,
          "time": 64.78472704583334,
          "velocity": 0.49606299212598426
        },
        {
          "duration": 0.06849300000000369,
          "durationTicks": 120,
          "midi": 59,
          "name": "B3",
          "ticks": 94320,
          "time": 64.92171304583333,
          "velocity": 0.6299212598425197
        },
        {
          "duration": 0.06849300000000369,
          "durationTicks": 120,
          "midi": 63,
          "name": "D#4",
          "ticks": 94320,
          "time": 64.92171304583333,
          "velocity": 0.6456692913385826
        },
        {
          "duration": 0.06849300000000369,
          "durationTicks": 120,
          "midi": 66,
          "name": "F#4",
          "ticks": 94320,
          "time": 64.92171304583333,
          "velocity": 0.49606299212598426
        },
        {
          "duration": 0.06849300000000369,
          "durationTicks": 120,
          "midi": 59,
          "name": "B3",
          "ticks": 94800,
          "time": 65.19568504583333,
          "velocity": 0.6929133858267716
        },
        {
          "duration": 0.06849300000000369,
          "durationTicks": 120,
          "midi": 63,
          "name": "D#4",
          "ticks": 94800,
          "time": 65.19568504583333,
          "velocity": 0.5984251968503937
        },
        {
          "duration": 0.06849300000000369,
          "durationTicks": 120,
          "midi": 66,
          "name": "F#4",
          "ticks": 94800,
          "time": 65.19568504583333,
          "velocity": 0.5905511811023622
        },
        {
          "duration": 0.06849300000000369,
          "durationTicks": 120,
          "midi": 59,
          "name": "B3",
          "ticks": 95280,
          "time": 65.46965704583333,
          "velocity": 0.7322834645669292
        },
        {
          "duration": 0.06849300000000369,
          "durationTicks": 120,
          "midi": 63,
          "name": "D#4",
          "ticks": 95280,
          "time": 65.46965704583333,
          "velocity": 0.6141732283464567
        },
        {
          "duration": 0.06849300000000369,
          "durationTicks": 120,
          "midi": 66,
          "name": "F#4",
          "ticks": 95280,
          "time": 65.46965704583333,
          "velocity": 0.6141732283464567
        },
        {
          "duration": 0.06849300000000369,
          "durationTicks": 120,
          "midi": 59,
          "name": "B3",
          "ticks": 95760,
          "time": 65.74362904583333,
          "velocity": 0.7401574803149606
        },
        {
          "duration": 0.06849300000000369,
          "durationTicks": 120,
          "midi": 63,
          "name": "D#4",
          "ticks": 95760,
          "time": 65.74362904583333,
          "velocity": 0.6535433070866141
        },
        {
          "duration": 0.06849300000000369,
          "durationTicks": 120,
          "midi": 66,
          "name": "F#4",
          "ticks": 95760,
          "time": 65.74362904583333,
          "velocity": 0.6614173228346457
        },
        {
          "duration": 0.06849300000000369,
          "durationTicks": 120,
          "midi": 59,
          "name": "B3",
          "ticks": 96240,
          "time": 66.01760104583333,
          "velocity": 0.7401574803149606
        },
        {
          "duration": 0.06849300000000369,
          "durationTicks": 120,
          "midi": 63,
          "name": "D#4",
          "ticks": 96240,
          "time": 66.01760104583333,
          "velocity": 0.6299212598425197
        },
        {
          "duration": 0.06849300000000369,
          "durationTicks": 120,
          "midi": 66,
          "name": "F#4",
          "ticks": 96240,
          "time": 66.01760104583333,
          "velocity": 0.6614173228346457
        },
        {
          "duration": 0.06849300000000369,
          "durationTicks": 120,
          "midi": 60,
          "name": "C4",
          "ticks": 96720,
          "time": 66.29157304583333,
          "velocity": 0.6929133858267716
        },
        {
          "duration": 0.06849300000000369,
          "durationTicks": 120,
          "midi": 63,
          "name": "D#4",
          "ticks": 96720,
          "time": 66.29157304583333,
          "velocity": 0.5984251968503937
        },
        {
          "duration": 0.06849300000000369,
          "durationTicks": 120,
          "midi": 66,
          "name": "F#4",
          "ticks": 96720,
          "time": 66.29157304583333,
          "velocity": 0.5905511811023622
        },
        {
          "duration": 0.06849300000000369,
          "durationTicks": 120,
          "midi": 60,
          "name": "C4",
          "ticks": 97200,
          "time": 66.56554504583333,
          "velocity": 0.7322834645669292
        },
        {
          "duration": 0.06849300000000369,
          "durationTicks": 120,
          "midi": 63,
          "name": "D#4",
          "ticks": 97200,
          "time": 66.56554504583333,
          "velocity": 0.6141732283464567
        },
        {
          "duration": 0.06849300000000369,
          "durationTicks": 120,
          "midi": 66,
          "name": "F#4",
          "ticks": 97200,
          "time": 66.56554504583333,
          "velocity": 0.6141732283464567
        },
        {
          "duration": 0.06849300000000369,
          "durationTicks": 120,
          "midi": 60,
          "name": "C4",
          "ticks": 97680,
          "time": 66.83951704583333,
          "velocity": 0.7401574803149606
        },
        {
          "duration": 0.06849300000000369,
          "durationTicks": 120,
          "midi": 63,
          "name": "D#4",
          "ticks": 97680,
          "time": 66.83951704583333,
          "velocity": 0.6535433070866141
        },
        {
          "duration": 0.06849300000000369,
          "durationTicks": 120,
          "midi": 66,
          "name": "F#4",
          "ticks": 97680,
          "time": 66.83951704583333,
          "velocity": 0.6614173228346457
        },
        {
          "duration": 0.06849300000000369,
          "durationTicks": 120,
          "midi": 60,
          "name": "C4",
          "ticks": 98160,
          "time": 67.11348904583333,
          "velocity": 0.7401574803149606
        },
        {
          "duration": 0.06849300000000369,
          "durationTicks": 120,
          "midi": 63,
          "name": "D#4",
          "ticks": 98160,
          "time": 67.11348904583333,
          "velocity": 0.6299212598425197
        },
        {
          "duration": 0.06849300000000369,
          "durationTicks": 120,
          "midi": 66,
          "name": "F#4",
          "ticks": 98160,
          "time": 67.11348904583333,
          "velocity": 0.6614173228346457
        },
        {
          "duration": 0.06849300000000369,
          "durationTicks": 120,
          "midi": 61,
          "name": "C#4",
          "ticks": 98640,
          "time": 67.38746104583333,
          "velocity": 0.7480314960629921
        },
        {
          "duration": 0.06849300000000369,
          "durationTicks": 120,
          "midi": 64,
          "name": "E4",
          "ticks": 98640,
          "time": 67.38746104583333,
          "velocity": 0.6456692913385826
        },
        {
          "duration": 0.06849300000000369,
          "durationTicks": 120,
          "midi": 68,
          "name": "G#4",
          "ticks": 98640,
          "time": 67.38746104583333,
          "velocity": 0.6299212598425197
        },
        {
          "duration": 0.06849300000000369,
          "durationTicks": 120,
          "midi": 61,
          "name": "C#4",
          "ticks": 99120,
          "time": 67.66143304583333,
          "velocity": 0.7480314960629921
        },
        {
          "duration": 0.06849300000000369,
          "durationTicks": 120,
          "midi": 64,
          "name": "E4",
          "ticks": 99120,
          "time": 67.66143304583333,
          "velocity": 0.6771653543307087
        },
        {
          "duration": 0.06849300000000369,
          "durationTicks": 120,
          "midi": 68,
          "name": "G#4",
          "ticks": 99120,
          "time": 67.66143304583333,
          "velocity": 0.6456692913385826
        },
        {
          "duration": 0.06849299999998948,
          "durationTicks": 120,
          "midi": 61,
          "name": "C#4",
          "ticks": 99600,
          "time": 67.93540504583333,
          "velocity": 0.7401574803149606
        },
        {
          "duration": 0.06849299999998948,
          "durationTicks": 120,
          "midi": 64,
          "name": "E4",
          "ticks": 99600,
          "time": 67.93540504583333,
          "velocity": 0.6692913385826772
        },
        {
          "duration": 0.06849299999998948,
          "durationTicks": 120,
          "midi": 68,
          "name": "G#4",
          "ticks": 99600,
          "time": 67.93540504583333,
          "velocity": 0.6377952755905512
        },
        {
          "duration": 0.06849300000000369,
          "durationTicks": 120,
          "midi": 61,
          "name": "C#4",
          "ticks": 100080,
          "time": 68.20937704583334,
          "velocity": 0.7795275590551181
        },
        {
          "duration": 0.06849300000000369,
          "durationTicks": 120,
          "midi": 64,
          "name": "E4",
          "ticks": 100080,
          "time": 68.20937704583334,
          "velocity": 0.6929133858267716
        },
        {
          "duration": 0.06849300000000369,
          "durationTicks": 120,
          "midi": 68,
          "name": "G#4",
          "ticks": 100080,
          "time": 68.20937704583334,
          "velocity": 0.6614173228346457
        },
        {
          "duration": 0.06849299999998948,
          "durationTicks": 120,
          "midi": 62,
          "name": "D4",
          "ticks": 100560,
          "time": 68.48334904583334,
          "velocity": 0.6850393700787402
        },
        {
          "duration": 0.06849299999998948,
          "durationTicks": 120,
          "midi": 65,
          "name": "F4",
          "ticks": 100560,
          "time": 68.48334904583334,
          "velocity": 0.7322834645669292
        },
        {
          "duration": 0.06849299999998948,
          "durationTicks": 120,
          "midi": 68,
          "name": "G#4",
          "ticks": 100560,
          "time": 68.48334904583334,
          "velocity": 0.6692913385826772
        },
        {
          "duration": 0.06849299999998948,
          "durationTicks": 120,
          "midi": 62,
          "name": "D4",
          "ticks": 101040,
          "time": 68.75732104583334,
          "velocity": 0.6771653543307087
        },
        {
          "duration": 0.06849299999998948,
          "durationTicks": 120,
          "midi": 65,
          "name": "F4",
          "ticks": 101040,
          "time": 68.75732104583334,
          "velocity": 0.7165354330708661
        },
        {
          "duration": 0.06849299999998948,
          "durationTicks": 120,
          "midi": 68,
          "name": "G#4",
          "ticks": 101040,
          "time": 68.75732104583334,
          "velocity": 0.6692913385826772
        },
        {
          "duration": 0.06849299999998948,
          "durationTicks": 120,
          "midi": 62,
          "name": "D4",
          "ticks": 101520,
          "time": 69.03129304583334,
          "velocity": 0.6062992125984252
        },
        {
          "duration": 0.06849299999998948,
          "durationTicks": 120,
          "midi": 65,
          "name": "F4",
          "ticks": 101520,
          "time": 69.03129304583334,
          "velocity": 0.5905511811023622
        },
        {
          "duration": 0.06849299999998948,
          "durationTicks": 120,
          "midi": 68,
          "name": "G#4",
          "ticks": 101520,
          "time": 69.03129304583334,
          "velocity": 0.6456692913385826
        },
        {
          "duration": 0.06849299999998948,
          "durationTicks": 120,
          "midi": 62,
          "name": "D4",
          "ticks": 102000,
          "time": 69.30526504583334,
          "velocity": 0.6614173228346457
        },
        {
          "duration": 0.06849299999998948,
          "durationTicks": 120,
          "midi": 65,
          "name": "F4",
          "ticks": 102000,
          "time": 69.30526504583334,
          "velocity": 0.6299212598425197
        },
        {
          "duration": 0.06849299999998948,
          "durationTicks": 120,
          "midi": 68,
          "name": "G#4",
          "ticks": 102000,
          "time": 69.30526504583334,
          "velocity": 0.6692913385826772
        },
        {
          "duration": 0.06849299999998948,
          "durationTicks": 120,
          "midi": 63,
          "name": "D#4",
          "ticks": 102480,
          "time": 69.57923704583334,
          "velocity": 0.5905511811023622
        },
        {
          "duration": 0.06849299999998948,
          "durationTicks": 120,
          "midi": 66,
          "name": "F#4",
          "ticks": 102480,
          "time": 69.57923704583334,
          "velocity": 0.6377952755905512
        },
        {
          "duration": 0.06849299999998948,
          "durationTicks": 120,
          "midi": 70,
          "name": "A#4",
          "ticks": 102480,
          "time": 69.57923704583334,
          "velocity": 0.5826771653543307
        },
        {
          "duration": 0.06849300000000369,
          "durationTicks": 120,
          "midi": 63,
          "name": "D#4",
          "ticks": 102960,
          "time": 69.85320904583332,
          "velocity": 0.7165354330708661
        },
        {
          "duration": 0.06849300000000369,
          "durationTicks": 120,
          "midi": 66,
          "name": "F#4",
          "ticks": 102960,
          "time": 69.85320904583332,
          "velocity": 0.7007874015748031
        },
        {
          "duration": 0.06849300000000369,
          "durationTicks": 120,
          "midi": 70,
          "name": "A#4",
          "ticks": 102960,
          "time": 69.85320904583332,
          "velocity": 0.7401574803149606
        },
        {
          "duration": 0.06849299999998948,
          "durationTicks": 120,
          "midi": 64,
          "name": "E4",
          "ticks": 103440,
          "time": 70.12718104583334,
          "velocity": 0.6929133858267716
        },
        {
          "duration": 0.06849299999998948,
          "durationTicks": 120,
          "midi": 67,
          "name": "G4",
          "ticks": 103440,
          "time": 70.12718104583334,
          "velocity": 0.6062992125984252
        },
        {
          "duration": 0.06849299999998948,
          "durationTicks": 120,
          "midi": 70,
          "name": "A#4",
          "ticks": 103440,
          "time": 70.12718104583334,
          "velocity": 0.6456692913385826
        },
        {
          "duration": 0.06849300000000369,
          "durationTicks": 120,
          "midi": 64,
          "name": "E4",
          "ticks": 103920,
          "time": 70.40115304583333,
          "velocity": 0.6850393700787402
        },
        {
          "duration": 0.06849300000000369,
          "durationTicks": 120,
          "midi": 67,
          "name": "G4",
          "ticks": 103920,
          "time": 70.40115304583333,
          "velocity": 0.6377952755905512
        },
        {
          "duration": 0.06849300000000369,
          "durationTicks": 120,
          "midi": 70,
          "name": "A#4",
          "ticks": 103920,
          "time": 70.40115304583333,
          "velocity": 0.6692913385826772
        },
        {
          "duration": 0.06849300000000369,
          "durationTicks": 120,
          "midi": 63,
          "name": "D#4",
          "ticks": 104400,
          "time": 70.67512504583333,
          "velocity": 0.5905511811023622
        },
        {
          "duration": 0.06849300000000369,
          "durationTicks": 120,
          "midi": 68,
          "name": "G#4",
          "ticks": 104400,
          "time": 70.67512504583333,
          "velocity": 0.6141732283464567
        },
        {
          "duration": 0.06849300000000369,
          "durationTicks": 120,
          "midi": 71,
          "name": "B4",
          "ticks": 104400,
          "time": 70.67512504583333,
          "velocity": 0.6299212598425197
        },
        {
          "duration": 0.06849300000000369,
          "durationTicks": 120,
          "midi": 63,
          "name": "D#4",
          "ticks": 104880,
          "time": 70.94909704583333,
          "velocity": 0.7007874015748031
        },
        {
          "duration": 0.06849300000000369,
          "durationTicks": 120,
          "midi": 68,
          "name": "G#4",
          "ticks": 104880,
          "time": 70.94909704583333,
          "velocity": 0.6377952755905512
        },
        {
          "duration": 0.06849300000000369,
          "durationTicks": 120,
          "midi": 71,
          "name": "B4",
          "ticks": 104880,
          "time": 70.94909704583333,
          "velocity": 0.6535433070866141
        },
        {
          "duration": 0.06849300000000369,
          "durationTicks": 120,
          "midi": 63,
          "name": "D#4",
          "ticks": 105360,
          "time": 71.22306904583333,
          "velocity": 0.6850393700787402
        },
        {
          "duration": 0.06849300000000369,
          "durationTicks": 120,
          "midi": 66,
          "name": "F#4",
          "ticks": 105360,
          "time": 71.22306904583333,
          "velocity": 0.6929133858267716
        },
        {
          "duration": 0.06849300000000369,
          "durationTicks": 120,
          "midi": 69,
          "name": "A4",
          "ticks": 105360,
          "time": 71.22306904583333,
          "velocity": 0.5433070866141733
        },
        {
          "duration": 0.06849300000000369,
          "durationTicks": 120,
          "midi": 63,
          "name": "D#4",
          "ticks": 105840,
          "time": 71.49704104583333,
          "velocity": 0.6456692913385826
        },
        {
          "duration": 0.06849300000000369,
          "durationTicks": 120,
          "midi": 66,
          "name": "F#4",
          "ticks": 105840,
          "time": 71.49704104583333,
          "velocity": 0.6929133858267716
        },
        {
          "duration": 0.06849300000000369,
          "durationTicks": 120,
          "midi": 69,
          "name": "A4",
          "ticks": 105840,
          "time": 71.49704104583333,
          "velocity": 0.5433070866141733
        },
        {
          "duration": 0.06849300000000369,
          "durationTicks": 120,
          "midi": 61,
          "name": "C#4",
          "ticks": 106320,
          "time": 71.77101304583333,
          "velocity": 0.7716535433070866
        },
        {
          "duration": 0.06849300000000369,
          "durationTicks": 120,
          "midi": 64,
          "name": "E4",
          "ticks": 106320,
          "time": 71.77101304583333,
          "velocity": 0.6220472440944882
        },
        {
          "duration": 0.06849300000000369,
          "durationTicks": 120,
          "midi": 68,
          "name": "G#4",
          "ticks": 106320,
          "time": 71.77101304583333,
          "velocity": 0.6220472440944882
        },
        {
          "duration": 0.06849300000000369,
          "durationTicks": 120,
          "midi": 61,
          "name": "C#4",
          "ticks": 106800,
          "time": 72.04498504583333,
          "velocity": 0.7716535433070866
        },
        {
          "duration": 0.06849300000000369,
          "durationTicks": 120,
          "midi": 64,
          "name": "E4",
          "ticks": 106800,
          "time": 72.04498504583333,
          "velocity": 0.6850393700787402
        },
        {
          "duration": 0.06849300000000369,
          "durationTicks": 120,
          "midi": 68,
          "name": "G#4",
          "ticks": 106800,
          "time": 72.04498504583333,
          "velocity": 0.6456692913385826
        },
        {
          "duration": 0.06849300000000369,
          "durationTicks": 120,
          "midi": 61,
          "name": "C#4",
          "ticks": 107280,
          "time": 72.31895704583333,
          "velocity": 0.7401574803149606
        },
        {
          "duration": 0.06849300000000369,
          "durationTicks": 120,
          "midi": 64,
          "name": "E4",
          "ticks": 107280,
          "time": 72.31895704583333,
          "velocity": 0.6535433070866141
        },
        {
          "duration": 0.06849300000000369,
          "durationTicks": 120,
          "midi": 68,
          "name": "G#4",
          "ticks": 107280,
          "time": 72.31895704583333,
          "velocity": 0.5511811023622047
        },
        {
          "duration": 0.06849300000000369,
          "durationTicks": 120,
          "midi": 61,
          "name": "C#4",
          "ticks": 107760,
          "time": 72.59292904583333,
          "velocity": 0.7637795275590551
        },
        {
          "duration": 0.06849300000000369,
          "durationTicks": 120,
          "midi": 64,
          "name": "E4",
          "ticks": 107760,
          "time": 72.59292904583333,
          "velocity": 0.6929133858267716
        },
        {
          "duration": 0.06849300000000369,
          "durationTicks": 120,
          "midi": 68,
          "name": "G#4",
          "ticks": 107760,
          "time": 72.59292904583333,
          "velocity": 0.6377952755905512
        },
        {
          "duration": 0.06849300000000369,
          "durationTicks": 120,
          "midi": 58,
          "name": "A#3",
          "ticks": 108240,
          "time": 72.86690104583333,
          "velocity": 0.6692913385826772
        },
        {
          "duration": 0.06849300000000369,
          "durationTicks": 120,
          "midi": 62,
          "name": "D4",
          "ticks": 108240,
          "time": 72.86690104583333,
          "velocity": 0.7401574803149606
        },
        {
          "duration": 0.06849300000000369,
          "durationTicks": 120,
          "midi": 66,
          "name": "F#4",
          "ticks": 108240,
          "time": 72.86690104583333,
          "velocity": 0.5039370078740157
        },
        {
          "duration": 0.06849300000000369,
          "durationTicks": 120,
          "midi": 58,
          "name": "A#3",
          "ticks": 108720,
          "time": 73.14087304583333,
          "velocity": 0.6692913385826772
        },
        {
          "duration": 0.06849300000000369,
          "durationTicks": 120,
          "midi": 62,
          "name": "D4",
          "ticks": 108720,
          "time": 73.14087304583333,
          "velocity": 0.7401574803149606
        },
        {
          "duration": 0.06849300000000369,
          "durationTicks": 120,
          "midi": 66,
          "name": "F#4",
          "ticks": 108720,
          "time": 73.14087304583333,
          "velocity": 0.5039370078740157
        },
        {
          "duration": 0.06849299999998948,
          "durationTicks": 120,
          "midi": 59,
          "name": "B3",
          "ticks": 108960,
          "time": 73.27785904583334,
          "velocity": 0.7874015748031497
        },
        {
          "duration": 0.06849299999998948,
          "durationTicks": 120,
          "midi": 63,
          "name": "D#4",
          "ticks": 108960,
          "time": 73.27785904583334,
          "velocity": 0.7874015748031497
        },
        {
          "duration": 0.06849299999998948,
          "durationTicks": 120,
          "midi": 66,
          "name": "F#4",
          "ticks": 108960,
          "time": 73.27785904583334,
          "velocity": 0.7874015748031497
        },
        {
          "duration": 0.12704885000000843,
          "durationTicks": 186,
          "midi": 55,
          "name": "G3",
          "ticks": 114720,
          "time": 76.99775004583334,
          "velocity": 0.6929133858267716
        },
        {
          "duration": 0.12704885000000843,
          "durationTicks": 186,
          "midi": 60,
          "name": "C4",
          "ticks": 114720,
          "time": 76.99775004583334,
          "velocity": 0.7007874015748031
        },
        {
          "duration": 0.12704885000000843,
          "durationTicks": 186,
          "midi": 63,
          "name": "D#4",
          "ticks": 114720,
          "time": 76.99775004583334,
          "velocity": 0.5905511811023622
        },
        {
          "duration": 0.12704884999999422,
          "durationTicks": 186,
          "midi": 55,
          "name": "G3",
          "ticks": 116640,
          "time": 78.30922204583335,
          "velocity": 0.6929133858267716
        },
        {
          "duration": 0.12704884999999422,
          "durationTicks": 186,
          "midi": 60,
          "name": "C4",
          "ticks": 116640,
          "time": 78.30922204583335,
          "velocity": 0.7007874015748031
        },
        {
          "duration": 0.12704884999999422,
          "durationTicks": 186,
          "midi": 63,
          "name": "D#4",
          "ticks": 116640,
          "time": 78.30922204583335,
          "velocity": 0.5905511811023622
        },
        {
          "duration": 0.12704884999999422,
          "durationTicks": 186,
          "midi": 55,
          "name": "G3",
          "ticks": 118560,
          "time": 79.62069404583335,
          "velocity": 0.6929133858267716
        },
        {
          "duration": 0.12704884999999422,
          "durationTicks": 186,
          "midi": 60,
          "name": "C4",
          "ticks": 118560,
          "time": 79.62069404583335,
          "velocity": 0.7007874015748031
        },
        {
          "duration": 0.12704884999999422,
          "durationTicks": 186,
          "midi": 63,
          "name": "D#4",
          "ticks": 118560,
          "time": 79.62069404583335,
          "velocity": 0.5905511811023622
        },
        {
          "duration": 0.12704885000000843,
          "durationTicks": 186,
          "midi": 55,
          "name": "G3",
          "ticks": 120480,
          "time": 80.93216604583334,
          "velocity": 0.6929133858267716
        },
        {
          "duration": 0.12704885000000843,
          "durationTicks": 186,
          "midi": 60,
          "name": "C4",
          "ticks": 120480,
          "time": 80.93216604583334,
          "velocity": 0.7007874015748031
        },
        {
          "duration": 0.12704885000000843,
          "durationTicks": 186,
          "midi": 63,
          "name": "D#4",
          "ticks": 120480,
          "time": 80.93216604583334,
          "velocity": 0.5905511811023622
        },
        {
          "duration": 0.10587404166666659,
          "durationTicks": 155,
          "midi": 58,
          "name": "A#3",
          "ticks": 122400,
          "time": 82.24363804583335,
          "velocity": 0.6929133858267716
        },
        {
          "duration": 0.10587404166666659,
          "durationTicks": 155,
          "midi": 63,
          "name": "D#4",
          "ticks": 122400,
          "time": 82.24363804583335,
          "velocity": 0.7007874015748031
        },
        {
          "duration": 0.10587404166666659,
          "durationTicks": 155,
          "midi": 66,
          "name": "F#4",
          "ticks": 122400,
          "time": 82.24363804583335,
          "velocity": 0.5905511811023622
        },
        {
          "duration": 0.10587404166666659,
          "durationTicks": 155,
          "midi": 58,
          "name": "A#3",
          "ticks": 124320,
          "time": 83.55511004583335,
          "velocity": 0.6929133858267716
        },
        {
          "duration": 0.10587404166666659,
          "durationTicks": 155,
          "midi": 63,
          "name": "D#4",
          "ticks": 124320,
          "time": 83.55511004583335,
          "velocity": 0.7007874015748031
        },
        {
          "duration": 0.10587404166666659,
          "durationTicks": 155,
          "midi": 66,
          "name": "F#4",
          "ticks": 124320,
          "time": 83.55511004583335,
          "velocity": 0.5905511811023622
        },
        {
          "duration": 0.10587404166666659,
          "durationTicks": 155,
          "midi": 58,
          "name": "A#3",
          "ticks": 126240,
          "time": 84.86658204583335,
          "velocity": 0.6929133858267716
        },
        {
          "duration": 0.10587404166666659,
          "durationTicks": 155,
          "midi": 63,
          "name": "D#4",
          "ticks": 126240,
          "time": 84.86658204583335,
          "velocity": 0.7007874015748031
        },
        {
          "duration": 0.10587404166666659,
          "durationTicks": 155,
          "midi": 66,
          "name": "F#4",
          "ticks": 126240,
          "time": 84.86658204583335,
          "velocity": 0.5905511811023622
        },
        {
          "duration": 0.10587404166666659,
          "durationTicks": 155,
          "midi": 58,
          "name": "A#3",
          "ticks": 128160,
          "time": 86.17805404583335,
          "velocity": 0.6929133858267716
        },
        {
          "duration": 0.10587404166666659,
          "durationTicks": 155,
          "midi": 63,
          "name": "D#4",
          "ticks": 128160,
          "time": 86.17805404583335,
          "velocity": 0.7007874015748031
        },
        {
          "duration": 0.10587404166666659,
          "durationTicks": 155,
          "midi": 66,
          "name": "F#4",
          "ticks": 128160,
          "time": 86.17805404583335,
          "velocity": 0.5905511811023622
        },
        {
          "duration": 0.0819670000000059,
          "durationTicks": 120,
          "midi": 55,
          "name": "G3",
          "ticks": 130080,
          "time": 87.48952604583334,
          "velocity": 0.6929133858267716
        },
        {
          "duration": 0.0819670000000059,
          "durationTicks": 120,
          "midi": 60,
          "name": "C4",
          "ticks": 130080,
          "time": 87.48952604583334,
          "velocity": 0.7007874015748031
        },
        {
          "duration": 0.0819670000000059,
          "durationTicks": 120,
          "midi": 63,
          "name": "D#4",
          "ticks": 130080,
          "time": 87.48952604583334,
          "velocity": 0.5905511811023622
        },
        {
          "duration": 0.08196699999999169,
          "durationTicks": 120,
          "midi": 55,
          "name": "G3",
          "ticks": 132000,
          "time": 88.80099804583335,
          "velocity": 0.6929133858267716
        },
        {
          "duration": 0.08196699999999169,
          "durationTicks": 120,
          "midi": 60,
          "name": "C4",
          "ticks": 132000,
          "time": 88.80099804583335,
          "velocity": 0.7007874015748031
        },
        {
          "duration": 0.08196699999999169,
          "durationTicks": 120,
          "midi": 63,
          "name": "D#4",
          "ticks": 132000,
          "time": 88.80099804583335,
          "velocity": 0.5905511811023622
        },
        {
          "duration": 0.0819670000000059,
          "durationTicks": 120,
          "midi": 55,
          "name": "G3",
          "ticks": 133920,
          "time": 90.11247004583335,
          "velocity": 0.6929133858267716
        },
        {
          "duration": 0.0819670000000059,
          "durationTicks": 120,
          "midi": 60,
          "name": "C4",
          "ticks": 133920,
          "time": 90.11247004583335,
          "velocity": 0.7007874015748031
        },
        {
          "duration": 0.0819670000000059,
          "durationTicks": 120,
          "midi": 63,
          "name": "D#4",
          "ticks": 133920,
          "time": 90.11247004583335,
          "velocity": 0.5905511811023622
        },
        {
          "duration": 0.0819670000000059,
          "durationTicks": 120,
          "midi": 55,
          "name": "G3",
          "ticks": 135840,
          "time": 91.42394204583334,
          "velocity": 0.6929133858267716
        },
        {
          "duration": 0.0819670000000059,
          "durationTicks": 120,
          "midi": 60,
          "name": "C4",
          "ticks": 135840,
          "time": 91.42394204583334,
          "velocity": 0.7007874015748031
        },
        {
          "duration": 0.0819670000000059,
          "durationTicks": 120,
          "midi": 63,
          "name": "D#4",
          "ticks": 135840,
          "time": 91.42394204583334,
          "velocity": 0.5905511811023622
        },
        {
          "duration": 0.09084675833332767,
          "durationTicks": 133,
          "midi": 58,
          "name": "A#3",
          "ticks": 137760,
          "time": 92.73541404583335,
          "velocity": 0.6929133858267716
        },
        {
          "duration": 0.09084675833332767,
          "durationTicks": 133,
          "midi": 63,
          "name": "D#4",
          "ticks": 137760,
          "time": 92.73541404583335,
          "velocity": 0.7007874015748031
        },
        {
          "duration": 0.09084675833332767,
          "durationTicks": 133,
          "midi": 66,
          "name": "F#4",
          "ticks": 137760,
          "time": 92.73541404583335,
          "velocity": 0.5905511811023622
        },
        {
          "duration": 0.09084675833332767,
          "durationTicks": 133,
          "midi": 58,
          "name": "A#3",
          "ticks": 139680,
          "time": 94.04688604583335,
          "velocity": 0.6929133858267716
        },
        {
          "duration": 0.09084675833332767,
          "durationTicks": 133,
          "midi": 63,
          "name": "D#4",
          "ticks": 139680,
          "time": 94.04688604583335,
          "velocity": 0.7007874015748031
        },
        {
          "duration": 0.09084675833332767,
          "durationTicks": 133,
          "midi": 66,
          "name": "F#4",
          "ticks": 139680,
          "time": 94.04688604583335,
          "velocity": 0.5905511811023622
        },
        {
          "duration": 0.09084675833334188,
          "durationTicks": 133,
          "midi": 58,
          "name": "A#3",
          "ticks": 141600,
          "time": 95.35835804583334,
          "velocity": 0.6929133858267716
        },
        {
          "duration": 0.09084675833334188,
          "durationTicks": 133,
          "midi": 63,
          "name": "D#4",
          "ticks": 141600,
          "time": 95.35835804583334,
          "velocity": 0.7007874015748031
        },
        {
          "duration": 0.09084675833334188,
          "durationTicks": 133,
          "midi": 66,
          "name": "F#4",
          "ticks": 141600,
          "time": 95.35835804583334,
          "velocity": 0.5905511811023622
        },
        {
          "duration": 0.09084675833332767,
          "durationTicks": 133,
          "midi": 58,
          "name": "A#3",
          "ticks": 143520,
          "time": 96.66983004583335,
          "velocity": 0.6929133858267716
        },
        {
          "duration": 0.09084675833332767,
          "durationTicks": 133,
          "midi": 63,
          "name": "D#4",
          "ticks": 143520,
          "time": 96.66983004583335,
          "velocity": 0.7007874015748031
        },
        {
          "duration": 0.09084675833332767,
          "durationTicks": 133,
          "midi": 66,
          "name": "F#4",
          "ticks": 143520,
          "time": 96.66983004583335,
          "velocity": 0.5905511811023622
        },
        {
          "duration": 0.0819670000000059,
          "durationTicks": 120,
          "midi": 55,
          "name": "G3",
          "ticks": 146811,
          "time": 98.91777502083335,
          "velocity": 0.6929133858267716
        },
        {
          "duration": 0.0819670000000059,
          "durationTicks": 120,
          "midi": 60,
          "name": "C4",
          "ticks": 146811,
          "time": 98.91777502083335,
          "velocity": 0.7007874015748031
        },
        {
          "duration": 0.0819670000000059,
          "durationTicks": 120,
          "midi": 63,
          "name": "D#4",
          "ticks": 146811,
          "time": 98.91777502083335,
          "velocity": 0.5905511811023622
        },
        {
          "duration": 0.0819670000000059,
          "durationTicks": 120,
          "midi": 55,
          "name": "G3",
          "ticks": 147771,
          "time": 99.57351102083335,
          "velocity": 0.6929133858267716
        },
        {
          "duration": 0.0819670000000059,
          "durationTicks": 120,
          "midi": 60,
          "name": "C4",
          "ticks": 147771,
          "time": 99.57351102083335,
          "velocity": 0.7007874015748031
        },
        {
          "duration": 0.0819670000000059,
          "durationTicks": 120,
          "midi": 63,
          "name": "D#4",
          "ticks": 147771,
          "time": 99.57351102083335,
          "velocity": 0.5905511811023622
        },
        {
          "duration": 0.08196699999999169,
          "durationTicks": 120,
          "midi": 55,
          "name": "G3",
          "ticks": 148731,
          "time": 100.22924702083336,
          "velocity": 0.6929133858267716
        },
        {
          "duration": 0.08196699999999169,
          "durationTicks": 120,
          "midi": 60,
          "name": "C4",
          "ticks": 148731,
          "time": 100.22924702083336,
          "velocity": 0.7007874015748031
        },
        {
          "duration": 0.08196699999999169,
          "durationTicks": 120,
          "midi": 63,
          "name": "D#4",
          "ticks": 148731,
          "time": 100.22924702083336,
          "velocity": 0.5905511811023622
        },
        {
          "duration": 0.0819670000000059,
          "durationTicks": 120,
          "midi": 55,
          "name": "G3",
          "ticks": 149691,
          "time": 100.88498302083335,
          "velocity": 0.6929133858267716
        },
        {
          "duration": 0.0819670000000059,
          "durationTicks": 120,
          "midi": 60,
          "name": "C4",
          "ticks": 149691,
          "time": 100.88498302083335,
          "velocity": 0.7007874015748031
        },
        {
          "duration": 0.0819670000000059,
          "durationTicks": 120,
          "midi": 63,
          "name": "D#4",
          "ticks": 149691,
          "time": 100.88498302083335,
          "velocity": 0.5905511811023622
        },
        {
          "duration": 0.0819670000000059,
          "durationTicks": 120,
          "midi": 55,
          "name": "G3",
          "ticks": 150651,
          "time": 101.54071902083335,
          "velocity": 0.6929133858267716
        },
        {
          "duration": 0.0819670000000059,
          "durationTicks": 120,
          "midi": 60,
          "name": "C4",
          "ticks": 150651,
          "time": 101.54071902083335,
          "velocity": 0.7007874015748031
        },
        {
          "duration": 0.0819670000000059,
          "durationTicks": 120,
          "midi": 63,
          "name": "D#4",
          "ticks": 150651,
          "time": 101.54071902083335,
          "velocity": 0.5905511811023622
        },
        {
          "duration": 0.08196699999999169,
          "durationTicks": 120,
          "midi": 55,
          "name": "G3",
          "ticks": 151611,
          "time": 102.19645502083335,
          "velocity": 0.6929133858267716
        },
        {
          "duration": 0.08196699999999169,
          "durationTicks": 120,
          "midi": 60,
          "name": "C4",
          "ticks": 151611,
          "time": 102.19645502083335,
          "velocity": 0.7007874015748031
        },
        {
          "duration": 0.08196699999999169,
          "durationTicks": 120,
          "midi": 63,
          "name": "D#4",
          "ticks": 151611,
          "time": 102.19645502083335,
          "velocity": 0.5905511811023622
        },
        {
          "duration": 0.0819670000000059,
          "durationTicks": 120,
          "midi": 55,
          "name": "G3",
          "ticks": 152571,
          "time": 102.85219102083335,
          "velocity": 0.6929133858267716
        },
        {
          "duration": 0.0819670000000059,
          "durationTicks": 120,
          "midi": 60,
          "name": "C4",
          "ticks": 152571,
          "time": 102.85219102083335,
          "velocity": 0.7007874015748031
        },
        {
          "duration": 0.0819670000000059,
          "durationTicks": 120,
          "midi": 63,
          "name": "D#4",
          "ticks": 152571,
          "time": 102.85219102083335,
          "velocity": 0.5905511811023622
        },
        {
          "duration": 0.0819670000000059,
          "durationTicks": 120,
          "midi": 55,
          "name": "G3",
          "ticks": 153531,
          "time": 103.50792702083335,
          "velocity": 0.6929133858267716
        },
        {
          "duration": 0.0819670000000059,
          "durationTicks": 120,
          "midi": 60,
          "name": "C4",
          "ticks": 153531,
          "time": 103.50792702083335,
          "velocity": 0.7007874015748031
        },
        {
          "duration": 0.0819670000000059,
          "durationTicks": 120,
          "midi": 63,
          "name": "D#4",
          "ticks": 153531,
          "time": 103.50792702083335,
          "velocity": 0.5905511811023622
        },
        {
          "duration": 0.07377029999999252,
          "durationTicks": 108,
          "midi": 58,
          "name": "A#3",
          "ticks": 154560,
          "time": 104.21079404583335,
          "velocity": 0.6929133858267716
        },
        {
          "duration": 0.07377029999999252,
          "durationTicks": 108,
          "midi": 63,
          "name": "D#4",
          "ticks": 154560,
          "time": 104.21079404583335,
          "velocity": 0.7007874015748031
        },
        {
          "duration": 0.07377029999999252,
          "durationTicks": 108,
          "midi": 66,
          "name": "F#4",
          "ticks": 154560,
          "time": 104.21079404583335,
          "velocity": 0.5905511811023622
        },
        {
          "duration": 0.07377030000000673,
          "durationTicks": 108,
          "midi": 58,
          "name": "A#3",
          "ticks": 155520,
          "time": 104.86653004583334,
          "velocity": 0.6929133858267716
        },
        {
          "duration": 0.07377030000000673,
          "durationTicks": 108,
          "midi": 63,
          "name": "D#4",
          "ticks": 155520,
          "time": 104.86653004583334,
          "velocity": 0.7007874015748031
        },
        {
          "duration": 0.07377030000000673,
          "durationTicks": 108,
          "midi": 66,
          "name": "F#4",
          "ticks": 155520,
          "time": 104.86653004583334,
          "velocity": 0.5905511811023622
        },
        {
          "duration": 0.07377029999999252,
          "durationTicks": 108,
          "midi": 58,
          "name": "A#3",
          "ticks": 156480,
          "time": 105.52226604583335,
          "velocity": 0.6929133858267716
        },
        {
          "duration": 0.07377029999999252,
          "durationTicks": 108,
          "midi": 63,
          "name": "D#4",
          "ticks": 156480,
          "time": 105.52226604583335,
          "velocity": 0.7007874015748031
        },
        {
          "duration": 0.07377029999999252,
          "durationTicks": 108,
          "midi": 66,
          "name": "F#4",
          "ticks": 156480,
          "time": 105.52226604583335,
          "velocity": 0.5905511811023622
        },
        {
          "duration": 0.07377029999999252,
          "durationTicks": 108,
          "midi": 58,
          "name": "A#3",
          "ticks": 157440,
          "time": 106.17800204583335,
          "velocity": 0.6929133858267716
        },
        {
          "duration": 0.07377029999999252,
          "durationTicks": 108,
          "midi": 63,
          "name": "D#4",
          "ticks": 157440,
          "time": 106.17800204583335,
          "velocity": 0.7007874015748031
        },
        {
          "duration": 0.07377029999999252,
          "durationTicks": 108,
          "midi": 66,
          "name": "F#4",
          "ticks": 157440,
          "time": 106.17800204583335,
          "velocity": 0.5905511811023622
        },
        {
          "duration": 0.07377030000000673,
          "durationTicks": 108,
          "midi": 58,
          "name": "A#3",
          "ticks": 158400,
          "time": 106.83373804583334,
          "velocity": 0.6929133858267716
        },
        {
          "duration": 0.07377030000000673,
          "durationTicks": 108,
          "midi": 63,
          "name": "D#4",
          "ticks": 158400,
          "time": 106.83373804583334,
          "velocity": 0.7007874015748031
        },
        {
          "duration": 0.07377030000000673,
          "durationTicks": 108,
          "midi": 66,
          "name": "F#4",
          "ticks": 158400,
          "time": 106.83373804583334,
          "velocity": 0.5905511811023622
        },
        {
          "duration": 0.07377029999999252,
          "durationTicks": 108,
          "midi": 58,
          "name": "A#3",
          "ticks": 159360,
          "time": 107.48947404583335,
          "velocity": 0.6929133858267716
        },
        {
          "duration": 0.07377029999999252,
          "durationTicks": 108,
          "midi": 63,
          "name": "D#4",
          "ticks": 159360,
          "time": 107.48947404583335,
          "velocity": 0.7007874015748031
        },
        {
          "duration": 0.07377029999999252,
          "durationTicks": 108,
          "midi": 66,
          "name": "F#4",
          "ticks": 159360,
          "time": 107.48947404583335,
          "velocity": 0.5905511811023622
        },
        {
          "duration": 0.07377029999999252,
          "durationTicks": 108,
          "midi": 58,
          "name": "A#3",
          "ticks": 160320,
          "time": 108.14521004583335,
          "velocity": 0.6929133858267716
        },
        {
          "duration": 0.07377029999999252,
          "durationTicks": 108,
          "midi": 63,
          "name": "D#4",
          "ticks": 160320,
          "time": 108.14521004583335,
          "velocity": 0.7007874015748031
        },
        {
          "duration": 0.07377029999999252,
          "durationTicks": 108,
          "midi": 66,
          "name": "F#4",
          "ticks": 160320,
          "time": 108.14521004583335,
          "velocity": 0.5905511811023622
        },
        {
          "duration": 0.07377030000000673,
          "durationTicks": 108,
          "midi": 58,
          "name": "A#3",
          "ticks": 161280,
          "time": 108.80094604583334,
          "velocity": 0.6929133858267716
        },
        {
          "duration": 0.07377030000000673,
          "durationTicks": 108,
          "midi": 63,
          "name": "D#4",
          "ticks": 161280,
          "time": 108.80094604583334,
          "velocity": 0.7007874015748031
        },
        {
          "duration": 0.07377030000000673,
          "durationTicks": 108,
          "midi": 66,
          "name": "F#4",
          "ticks": 161280,
          "time": 108.80094604583334,
          "velocity": 0.5905511811023622
        },
        {
          "duration": 0.08196699999999169,
          "durationTicks": 120,
          "midi": 59,
          "name": "B3",
          "ticks": 166080,
          "time": 112.07962604583335,
          "velocity": 0.6929133858267716
        },
        {
          "duration": 0.08196699999999169,
          "durationTicks": 120,
          "midi": 63,
          "name": "D#4",
          "ticks": 166080,
          "time": 112.07962604583335,
          "velocity": 0.5984251968503937
        },
        {
          "duration": 0.08196699999999169,
          "durationTicks": 120,
          "midi": 66,
          "name": "F#4",
          "ticks": 166080,
          "time": 112.07962604583335,
          "velocity": 0.5905511811023622
        },
        {
          "duration": 0.0819670000000059,
          "durationTicks": 120,
          "midi": 59,
          "name": "B3",
          "ticks": 167040,
          "time": 112.73536204583334,
          "velocity": 0.7401574803149606
        },
        {
          "duration": 0.0819670000000059,
          "durationTicks": 120,
          "midi": 63,
          "name": "D#4",
          "ticks": 167040,
          "time": 112.73536204583334,
          "velocity": 0.6535433070866141
        },
        {
          "duration": 0.0819670000000059,
          "durationTicks": 120,
          "midi": 66,
          "name": "F#4",
          "ticks": 167040,
          "time": 112.73536204583334,
          "velocity": 0.6614173228346457
        },
        {
          "duration": 0.0819670000000059,
          "durationTicks": 120,
          "midi": 60,
          "name": "C4",
          "ticks": 168000,
          "time": 113.39109804583335,
          "velocity": 0.7322834645669292
        },
        {
          "duration": 0.0819670000000059,
          "durationTicks": 120,
          "midi": 63,
          "name": "D#4",
          "ticks": 168000,
          "time": 113.39109804583335,
          "velocity": 0.6141732283464567
        },
        {
          "duration": 0.0819670000000059,
          "durationTicks": 120,
          "midi": 66,
          "name": "F#4",
          "ticks": 168000,
          "time": 113.39109804583335,
          "velocity": 0.6141732283464567
        },
        {
          "duration": 0.08196699999999169,
          "durationTicks": 120,
          "midi": 60,
          "name": "C4",
          "ticks": 168960,
          "time": 114.04683404583335,
          "velocity": 0.7401574803149606
        },
        {
          "duration": 0.08196699999999169,
          "durationTicks": 120,
          "midi": 63,
          "name": "D#4",
          "ticks": 168960,
          "time": 114.04683404583335,
          "velocity": 0.6299212598425197
        },
        {
          "duration": 0.08196699999999169,
          "durationTicks": 120,
          "midi": 66,
          "name": "F#4",
          "ticks": 168960,
          "time": 114.04683404583335,
          "velocity": 0.6614173228346457
        },
        {
          "duration": 0.0819670000000059,
          "durationTicks": 120,
          "midi": 61,
          "name": "C#4",
          "ticks": 169920,
          "time": 114.70257004583334,
          "velocity": 0.7480314960629921
        },
        {
          "duration": 0.0819670000000059,
          "durationTicks": 120,
          "midi": 64,
          "name": "E4",
          "ticks": 169920,
          "time": 114.70257004583334,
          "velocity": 0.6456692913385826
        },
        {
          "duration": 0.0819670000000059,
          "durationTicks": 120,
          "midi": 68,
          "name": "G#4",
          "ticks": 169920,
          "time": 114.70257004583334,
          "velocity": 0.6299212598425197
        },
        {
          "duration": 0.0819670000000059,
          "durationTicks": 120,
          "midi": 61,
          "name": "C#4",
          "ticks": 170400,
          "time": 115.03043804583335,
          "velocity": 0.7401574803149606
        },
        {
          "duration": 0.0819670000000059,
          "durationTicks": 120,
          "midi": 64,
          "name": "E4",
          "ticks": 170400,
          "time": 115.03043804583335,
          "velocity": 0.6692913385826772
        },
        {
          "duration": 0.0819670000000059,
          "durationTicks": 120,
          "midi": 68,
          "name": "G#4",
          "ticks": 170400,
          "time": 115.03043804583335,
          "velocity": 0.6377952755905512
        },
        {
          "duration": 0.054545250000003875,
          "durationTicks": 120,
          "midi": 61,
          "name": "C#4",
          "ticks": 177360,
          "time": 119.72225004583336,
          "velocity": 0.6929133858267716
        },
        {
          "duration": 0.054545250000003875,
          "durationTicks": 120,
          "midi": 65,
          "name": "F4",
          "ticks": 177360,
          "time": 119.72225004583336,
          "velocity": 0.5984251968503937
        },
        {
          "duration": 0.054545250000003875,
          "durationTicks": 120,
          "midi": 68,
          "name": "G#4",
          "ticks": 177360,
          "time": 119.72225004583336,
          "velocity": 0.5905511811023622
        },
        {
          "duration": 0.054545250000003875,
          "durationTicks": 120,
          "midi": 61,
          "name": "C#4",
          "ticks": 177840,
          "time": 119.94043104583336,
          "velocity": 0.7322834645669292
        },
        {
          "duration": 0.054545250000003875,
          "durationTicks": 120,
          "midi": 65,
          "name": "F4",
          "ticks": 177840,
          "time": 119.94043104583336,
          "velocity": 0.6141732283464567
        },
        {
          "duration": 0.054545250000003875,
          "durationTicks": 120,
          "midi": 68,
          "name": "G#4",
          "ticks": 177840,
          "time": 119.94043104583336,
          "velocity": 0.6141732283464567
        },
        {
          "duration": 0.054545249999989665,
          "durationTicks": 120,
          "midi": 61,
          "name": "C#4",
          "ticks": 178320,
          "time": 120.15861204583337,
          "velocity": 0.7401574803149606
        },
        {
          "duration": 0.054545249999989665,
          "durationTicks": 120,
          "midi": 65,
          "name": "F4",
          "ticks": 178320,
          "time": 120.15861204583337,
          "velocity": 0.6535433070866141
        },
        {
          "duration": 0.054545249999989665,
          "durationTicks": 120,
          "midi": 68,
          "name": "G#4",
          "ticks": 178320,
          "time": 120.15861204583337,
          "velocity": 0.6614173228346457
        },
        {
          "duration": 0.054545249999989665,
          "durationTicks": 120,
          "midi": 61,
          "name": "C#4",
          "ticks": 178800,
          "time": 120.37679304583337,
          "velocity": 0.7401574803149606
        },
        {
          "duration": 0.054545249999989665,
          "durationTicks": 120,
          "midi": 65,
          "name": "F4",
          "ticks": 178800,
          "time": 120.37679304583337,
          "velocity": 0.6299212598425197
        },
        {
          "duration": 0.054545249999989665,
          "durationTicks": 120,
          "midi": 68,
          "name": "G#4",
          "ticks": 178800,
          "time": 120.37679304583337,
          "velocity": 0.6614173228346457
        },
        {
          "duration": 0.054545249999989665,
          "durationTicks": 120,
          "midi": 62,
          "name": "D4",
          "ticks": 179280,
          "time": 120.59497404583337,
          "velocity": 0.6929133858267716
        },
        {
          "duration": 0.054545249999989665,
          "durationTicks": 120,
          "midi": 65,
          "name": "F4",
          "ticks": 179280,
          "time": 120.59497404583337,
          "velocity": 0.5984251968503937
        },
        {
          "duration": 0.054545249999989665,
          "durationTicks": 120,
          "midi": 68,
          "name": "G#4",
          "ticks": 179280,
          "time": 120.59497404583337,
          "velocity": 0.5905511811023622
        },
        {
          "duration": 0.054545250000003875,
          "durationTicks": 120,
          "midi": 62,
          "name": "D4",
          "ticks": 179760,
          "time": 120.81315504583335,
          "velocity": 0.7322834645669292
        },
        {
          "duration": 0.054545250000003875,
          "durationTicks": 120,
          "midi": 65,
          "name": "F4",
          "ticks": 179760,
          "time": 120.81315504583335,
          "velocity": 0.6141732283464567
        },
        {
          "duration": 0.054545250000003875,
          "durationTicks": 120,
          "midi": 68,
          "name": "G#4",
          "ticks": 179760,
          "time": 120.81315504583335,
          "velocity": 0.6141732283464567
        },
        {
          "duration": 0.054545250000003875,
          "durationTicks": 120,
          "midi": 62,
          "name": "D4",
          "ticks": 180240,
          "time": 121.03133604583336,
          "velocity": 0.7401574803149606
        },
        {
          "duration": 0.054545250000003875,
          "durationTicks": 120,
          "midi": 65,
          "name": "F4",
          "ticks": 180240,
          "time": 121.03133604583336,
          "velocity": 0.6535433070866141
        },
        {
          "duration": 0.054545250000003875,
          "durationTicks": 120,
          "midi": 68,
          "name": "G#4",
          "ticks": 180240,
          "time": 121.03133604583336,
          "velocity": 0.6614173228346457
        },
        {
          "duration": 0.054545250000003875,
          "durationTicks": 120,
          "midi": 62,
          "name": "D4",
          "ticks": 180720,
          "time": 121.24951704583336,
          "velocity": 0.7401574803149606
        },
        {
          "duration": 0.054545250000003875,
          "durationTicks": 120,
          "midi": 65,
          "name": "F4",
          "ticks": 180720,
          "time": 121.24951704583336,
          "velocity": 0.6299212598425197
        },
        {
          "duration": 0.054545250000003875,
          "durationTicks": 120,
          "midi": 68,
          "name": "G#4",
          "ticks": 180720,
          "time": 121.24951704583336,
          "velocity": 0.6614173228346457
        },
        {
          "duration": 0.054545250000003875,
          "durationTicks": 120,
          "midi": 63,
          "name": "D#4",
          "ticks": 181200,
          "time": 121.46769804583336,
          "velocity": 0.7480314960629921
        },
        {
          "duration": 0.054545250000003875,
          "durationTicks": 120,
          "midi": 66,
          "name": "F#4",
          "ticks": 181200,
          "time": 121.46769804583336,
          "velocity": 0.6456692913385826
        },
        {
          "duration": 0.054545250000003875,
          "durationTicks": 120,
          "midi": 70,
          "name": "A#4",
          "ticks": 181200,
          "time": 121.46769804583336,
          "velocity": 0.6299212598425197
        },
        {
          "duration": 0.054545250000003875,
          "durationTicks": 120,
          "midi": 63,
          "name": "D#4",
          "ticks": 181680,
          "time": 121.68587904583336,
          "velocity": 0.7480314960629921
        },
        {
          "duration": 0.054545250000003875,
          "durationTicks": 120,
          "midi": 66,
          "name": "F#4",
          "ticks": 181680,
          "time": 121.68587904583336,
          "velocity": 0.6771653543307087
        },
        {
          "duration": 0.054545250000003875,
          "durationTicks": 120,
          "midi": 70,
          "name": "A#4",
          "ticks": 181680,
          "time": 121.68587904583336,
          "velocity": 0.6456692913385826
        },
        {
          "duration": 0.054545250000003875,
          "durationTicks": 120,
          "midi": 63,
          "name": "D#4",
          "ticks": 182160,
          "time": 121.90406004583336,
          "velocity": 0.7401574803149606
        },
        {
          "duration": 0.054545250000003875,
          "durationTicks": 120,
          "midi": 66,
          "name": "F#4",
          "ticks": 182160,
          "time": 121.90406004583336,
          "velocity": 0.6692913385826772
        },
        {
          "duration": 0.054545250000003875,
          "durationTicks": 120,
          "midi": 70,
          "name": "A#4",
          "ticks": 182160,
          "time": 121.90406004583336,
          "velocity": 0.6377952755905512
        },
        {
          "duration": 0.054545250000003875,
          "durationTicks": 120,
          "midi": 63,
          "name": "D#4",
          "ticks": 182640,
          "time": 122.12224104583336,
          "velocity": 0.7795275590551181
        },
        {
          "duration": 0.054545250000003875,
          "durationTicks": 120,
          "midi": 66,
          "name": "F#4",
          "ticks": 182640,
          "time": 122.12224104583336,
          "velocity": 0.6929133858267716
        },
        {
          "duration": 0.054545250000003875,
          "durationTicks": 120,
          "midi": 70,
          "name": "A#4",
          "ticks": 182640,
          "time": 122.12224104583336,
          "velocity": 0.6614173228346457
        },
        {
          "duration": 0.054545250000003875,
          "durationTicks": 120,
          "midi": 64,
          "name": "E4",
          "ticks": 183120,
          "time": 122.34042204583336,
          "velocity": 0.6850393700787402
        },
        {
          "duration": 0.054545250000003875,
          "durationTicks": 120,
          "midi": 67,
          "name": "G4",
          "ticks": 183120,
          "time": 122.34042204583336,
          "velocity": 0.7322834645669292
        },
        {
          "duration": 0.054545250000003875,
          "durationTicks": 120,
          "midi": 70,
          "name": "A#4",
          "ticks": 183120,
          "time": 122.34042204583336,
          "velocity": 0.6692913385826772
        },
        {
          "duration": 0.054545249999989665,
          "durationTicks": 120,
          "midi": 64,
          "name": "E4",
          "ticks": 183600,
          "time": 122.55860304583337,
          "velocity": 0.6771653543307087
        },
        {
          "duration": 0.054545249999989665,
          "durationTicks": 120,
          "midi": 67,
          "name": "G4",
          "ticks": 183600,
          "time": 122.55860304583337,
          "velocity": 0.7165354330708661
        },
        {
          "duration": 0.054545249999989665,
          "durationTicks": 120,
          "midi": 70,
          "name": "A#4",
          "ticks": 183600,
          "time": 122.55860304583337,
          "velocity": 0.6692913385826772
        },
        {
          "duration": 0.054545249999989665,
          "durationTicks": 120,
          "midi": 64,
          "name": "E4",
          "ticks": 184080,
          "time": 122.77678404583337,
          "velocity": 0.6062992125984252
        },
        {
          "duration": 0.054545249999989665,
          "durationTicks": 120,
          "midi": 67,
          "name": "G4",
          "ticks": 184080,
          "time": 122.77678404583337,
          "velocity": 0.5905511811023622
        },
        {
          "duration": 0.054545249999989665,
          "durationTicks": 120,
          "midi": 70,
          "name": "A#4",
          "ticks": 184080,
          "time": 122.77678404583337,
          "velocity": 0.6456692913385826
        },
        {
          "duration": 0.054545249999989665,
          "durationTicks": 120,
          "midi": 64,
          "name": "E4",
          "ticks": 184560,
          "time": 122.99496504583337,
          "velocity": 0.6614173228346457
        },
        {
          "duration": 0.054545249999989665,
          "durationTicks": 120,
          "midi": 67,
          "name": "G4",
          "ticks": 184560,
          "time": 122.99496504583337,
          "velocity": 0.6299212598425197
        },
        {
          "duration": 0.054545249999989665,
          "durationTicks": 120,
          "midi": 70,
          "name": "A#4",
          "ticks": 184560,
          "time": 122.99496504583337,
          "velocity": 0.6692913385826772
        },
        {
          "duration": 0.054545250000003875,
          "durationTicks": 120,
          "midi": 65,
          "name": "F4",
          "ticks": 185040,
          "time": 123.21314604583335,
          "velocity": 0.5905511811023622
        },
        {
          "duration": 0.054545250000003875,
          "durationTicks": 120,
          "midi": 68,
          "name": "G#4",
          "ticks": 185040,
          "time": 123.21314604583335,
          "velocity": 0.6377952755905512
        },
        {
          "duration": 0.054545250000003875,
          "durationTicks": 120,
          "midi": 72,
          "name": "C5",
          "ticks": 185040,
          "time": 123.21314604583335,
          "velocity": 0.5826771653543307
        },
        {
          "duration": 0.054545250000003875,
          "durationTicks": 120,
          "midi": 65,
          "name": "F4",
          "ticks": 185520,
          "time": 123.43132704583336,
          "velocity": 0.7165354330708661
        },
        {
          "duration": 0.054545250000003875,
          "durationTicks": 120,
          "midi": 68,
          "name": "G#4",
          "ticks": 185520,
          "time": 123.43132704583336,
          "velocity": 0.7007874015748031
        },
        {
          "duration": 0.054545250000003875,
          "durationTicks": 120,
          "midi": 72,
          "name": "C5",
          "ticks": 185520,
          "time": 123.43132704583336,
          "velocity": 0.7401574803149606
        },
        {
          "duration": 0.054545250000003875,
          "durationTicks": 120,
          "midi": 66,
          "name": "F#4",
          "ticks": 186000,
          "time": 123.64950804583336,
          "velocity": 0.6929133858267716
        },
        {
          "duration": 0.054545250000003875,
          "durationTicks": 120,
          "midi": 69,
          "name": "A4",
          "ticks": 186000,
          "time": 123.64950804583336,
          "velocity": 0.6062992125984252
        },
        {
          "duration": 0.054545250000003875,
          "durationTicks": 120,
          "midi": 72,
          "name": "C5",
          "ticks": 186000,
          "time": 123.64950804583336,
          "velocity": 0.6456692913385826
        },
        {
          "duration": 0.054545250000003875,
          "durationTicks": 120,
          "midi": 66,
          "name": "F#4",
          "ticks": 186480,
          "time": 123.86768904583336,
          "velocity": 0.6850393700787402
        },
        {
          "duration": 0.054545250000003875,
          "durationTicks": 120,
          "midi": 69,
          "name": "A4",
          "ticks": 186480,
          "time": 123.86768904583336,
          "velocity": 0.6377952755905512
        },
        {
          "duration": 0.054545250000003875,
          "durationTicks": 120,
          "midi": 72,
          "name": "C5",
          "ticks": 186480,
          "time": 123.86768904583336,
          "velocity": 0.6692913385826772
        },
        {
          "duration": 0.054545250000003875,
          "durationTicks": 120,
          "midi": 65,
          "name": "F4",
          "ticks": 186960,
          "time": 124.08587004583336,
          "velocity": 0.5905511811023622
        },
        {
          "duration": 0.054545250000003875,
          "durationTicks": 120,
          "midi": 70,
          "name": "A#4",
          "ticks": 186960,
          "time": 124.08587004583336,
          "velocity": 0.6141732283464567
        },
        {
          "duration": 0.054545250000003875,
          "durationTicks": 120,
          "midi": 73,
          "name": "C#5",
          "ticks": 186960,
          "time": 124.08587004583336,
          "velocity": 0.6299212598425197
        },
        {
          "duration": 0.054545250000003875,
          "durationTicks": 120,
          "midi": 65,
          "name": "F4",
          "ticks": 187440,
          "time": 124.30405104583336,
          "velocity": 0.7007874015748031
        },
        {
          "duration": 0.054545250000003875,
          "durationTicks": 120,
          "midi": 70,
          "name": "A#4",
          "ticks": 187440,
          "time": 124.30405104583336,
          "velocity": 0.6377952755905512
        },
        {
          "duration": 0.054545250000003875,
          "durationTicks": 120,
          "midi": 73,
          "name": "C#5",
          "ticks": 187440,
          "time": 124.30405104583336,
          "velocity": 0.6535433070866141
        },
        {
          "duration": 0.054545250000003875,
          "durationTicks": 120,
          "midi": 65,
          "name": "F4",
          "ticks": 187920,
          "time": 124.52223204583336,
          "velocity": 0.6850393700787402
        },
        {
          "duration": 0.054545250000003875,
          "durationTicks": 120,
          "midi": 68,
          "name": "G#4",
          "ticks": 187920,
          "time": 124.52223204583336,
          "velocity": 0.6929133858267716
        },
        {
          "duration": 0.054545250000003875,
          "durationTicks": 120,
          "midi": 71,
          "name": "B4",
          "ticks": 187920,
          "time": 124.52223204583336,
          "velocity": 0.5433070866141733
        },
        {
          "duration": 0.054545250000003875,
          "durationTicks": 120,
          "midi": 65,
          "name": "F4",
          "ticks": 188400,
          "time": 124.74041304583336,
          "velocity": 0.6456692913385826
        },
        {
          "duration": 0.054545250000003875,
          "durationTicks": 120,
          "midi": 68,
          "name": "G#4",
          "ticks": 188400,
          "time": 124.74041304583336,
          "velocity": 0.6929133858267716
        },
        {
          "duration": 0.054545250000003875,
          "durationTicks": 120,
          "midi": 71,
          "name": "B4",
          "ticks": 188400,
          "time": 124.74041304583336,
          "velocity": 0.5433070866141733
        },
        {
          "duration": 0.054545249999989665,
          "durationTicks": 120,
          "midi": 63,
          "name": "D#4",
          "ticks": 188880,
          "time": 124.95859404583337,
          "velocity": 0.7716535433070866
        },
        {
          "duration": 0.054545249999989665,
          "durationTicks": 120,
          "midi": 66,
          "name": "F#4",
          "ticks": 188880,
          "time": 124.95859404583337,
          "velocity": 0.6220472440944882
        },
        {
          "duration": 0.054545249999989665,
          "durationTicks": 120,
          "midi": 70,
          "name": "A#4",
          "ticks": 188880,
          "time": 124.95859404583337,
          "velocity": 0.6220472440944882
        },
        {
          "duration": 0.054545249999989665,
          "durationTicks": 120,
          "midi": 63,
          "name": "D#4",
          "ticks": 189360,
          "time": 125.17677504583337,
          "velocity": 0.7716535433070866
        },
        {
          "duration": 0.054545249999989665,
          "durationTicks": 120,
          "midi": 66,
          "name": "F#4",
          "ticks": 189360,
          "time": 125.17677504583337,
          "velocity": 0.6850393700787402
        },
        {
          "duration": 0.054545249999989665,
          "durationTicks": 120,
          "midi": 70,
          "name": "A#4",
          "ticks": 189360,
          "time": 125.17677504583337,
          "velocity": 0.6456692913385826
        },
        {
          "duration": 0.054545249999989665,
          "durationTicks": 120,
          "midi": 63,
          "name": "D#4",
          "ticks": 189840,
          "time": 125.39495604583337,
          "velocity": 0.7401574803149606
        },
        {
          "duration": 0.054545249999989665,
          "durationTicks": 120,
          "midi": 66,
          "name": "F#4",
          "ticks": 189840,
          "time": 125.39495604583337,
          "velocity": 0.6535433070866141
        },
        {
          "duration": 0.054545249999989665,
          "durationTicks": 120,
          "midi": 70,
          "name": "A#4",
          "ticks": 189840,
          "time": 125.39495604583337,
          "velocity": 0.5511811023622047
        },
        {
          "duration": 0.054545250000003875,
          "durationTicks": 120,
          "midi": 63,
          "name": "D#4",
          "ticks": 190320,
          "time": 125.61313704583335,
          "velocity": 0.7637795275590551
        },
        {
          "duration": 0.054545250000003875,
          "durationTicks": 120,
          "midi": 66,
          "name": "F#4",
          "ticks": 190320,
          "time": 125.61313704583335,
          "velocity": 0.6929133858267716
        },
        {
          "duration": 0.054545250000003875,
          "durationTicks": 120,
          "midi": 70,
          "name": "A#4",
          "ticks": 190320,
          "time": 125.61313704583335,
          "velocity": 0.6377952755905512
        },
        {
          "duration": 0.05000000000001137,
          "durationTicks": 120,
          "midi": 63,
          "name": "D#4",
          "ticks": 190800,
          "time": 125.82222754583336,
          "velocity": 0.7165354330708661
        },
        {
          "duration": 0.05000000000001137,
          "durationTicks": 120,
          "midi": 66,
          "name": "F#4",
          "ticks": 190800,
          "time": 125.82222754583336,
          "velocity": 0.6929133858267716
        },
        {
          "duration": 0.05000000000001137,
          "durationTicks": 120,
          "midi": 69,
          "name": "A4",
          "ticks": 190800,
          "time": 125.82222754583336,
          "velocity": 0.6062992125984252
        },
        {
          "duration": 0.04999999999999716,
          "durationTicks": 120,
          "midi": 63,
          "name": "D#4",
          "ticks": 191280,
          "time": 126.02222754583336,
          "velocity": 0.7165354330708661
        },
        {
          "duration": 0.04999999999999716,
          "durationTicks": 120,
          "midi": 66,
          "name": "F#4",
          "ticks": 191280,
          "time": 126.02222754583336,
          "velocity": 0.6535433070866141
        },
        {
          "duration": 0.04999999999999716,
          "durationTicks": 120,
          "midi": 69,
          "name": "A4",
          "ticks": 191280,
          "time": 126.02222754583336,
          "velocity": 0.5905511811023622
        },
        {
          "duration": 0.04999999999999716,
          "durationTicks": 120,
          "midi": 64,
          "name": "E4",
          "ticks": 191760,
          "time": 126.22222754583336,
          "velocity": 0.6299212598425197
        },
        {
          "duration": 0.04999999999999716,
          "durationTicks": 120,
          "midi": 68,
          "name": "G#4",
          "ticks": 191760,
          "time": 126.22222754583336,
          "velocity": 0.6456692913385826
        },
        {
          "duration": 0.04999999999999716,
          "durationTicks": 120,
          "midi": 60,
          "name": "C4",
          "ticks": 191760,
          "time": 126.22222754583336,
          "velocity": 0.49606299212598426
        },
        {
          "duration": 0.047757891666663,
          "durationTicks": 120,
          "midi": 64,
          "name": "E4",
          "ticks": 192240,
          "time": 126.42222754583337,
          "velocity": 0.7244094488188977
        },
        {
          "duration": 0.047757891666663,
          "durationTicks": 120,
          "midi": 68,
          "name": "G#4",
          "ticks": 192240,
          "time": 126.42222754583337,
          "velocity": 0.6614173228346457
        },
        {
          "duration": 0.047757891666663,
          "durationTicks": 120,
          "midi": 60,
          "name": "C4",
          "ticks": 192240,
          "time": 126.42222754583337,
          "velocity": 0.5669291338582677
        },
        {
          "duration": 0.04761899999999741,
          "durationTicks": 120,
          "midi": 61,
          "name": "C#4",
          "ticks": 192720,
          "time": 126.61284243750003,
          "velocity": 0.6929133858267716
        },
        {
          "duration": 0.04761899999999741,
          "durationTicks": 120,
          "midi": 65,
          "name": "F4",
          "ticks": 192720,
          "time": 126.61284243750003,
          "velocity": 0.5984251968503937
        },
        {
          "duration": 0.04761899999999741,
          "durationTicks": 120,
          "midi": 68,
          "name": "G#4",
          "ticks": 192720,
          "time": 126.61284243750003,
          "velocity": 0.5905511811023622
        },
        {
          "duration": 0.047619000000011624,
          "durationTicks": 120,
          "midi": 61,
          "name": "C#4",
          "ticks": 193200,
          "time": 126.80331843750002,
          "velocity": 0.7322834645669292
        },
        {
          "duration": 0.047619000000011624,
          "durationTicks": 120,
          "midi": 65,
          "name": "F4",
          "ticks": 193200,
          "time": 126.80331843750002,
          "velocity": 0.6141732283464567
        },
        {
          "duration": 0.047619000000011624,
          "durationTicks": 120,
          "midi": 68,
          "name": "G#4",
          "ticks": 193200,
          "time": 126.80331843750002,
          "velocity": 0.6141732283464567
        },
        {
          "duration": 0.04761899999999741,
          "durationTicks": 120,
          "midi": 61,
          "name": "C#4",
          "ticks": 193680,
          "time": 126.99379443750003,
          "velocity": 0.7401574803149606
        },
        {
          "duration": 0.04761899999999741,
          "durationTicks": 120,
          "midi": 65,
          "name": "F4",
          "ticks": 193680,
          "time": 126.99379443750003,
          "velocity": 0.6535433070866141
        },
        {
          "duration": 0.04761899999999741,
          "durationTicks": 120,
          "midi": 68,
          "name": "G#4",
          "ticks": 193680,
          "time": 126.99379443750003,
          "velocity": 0.6614173228346457
        },
        {
          "duration": 0.04761899999999741,
          "durationTicks": 120,
          "midi": 61,
          "name": "C#4",
          "ticks": 194160,
          "time": 127.18427043750003,
          "velocity": 0.7401574803149606
        },
        {
          "duration": 0.04761899999999741,
          "durationTicks": 120,
          "midi": 65,
          "name": "F4",
          "ticks": 194160,
          "time": 127.18427043750003,
          "velocity": 0.6299212598425197
        },
        {
          "duration": 0.04761899999999741,
          "durationTicks": 120,
          "midi": 68,
          "name": "G#4",
          "ticks": 194160,
          "time": 127.18427043750003,
          "velocity": 0.6614173228346457
        },
        {
          "duration": 0.04761899999999741,
          "durationTicks": 120,
          "midi": 62,
          "name": "D4",
          "ticks": 194640,
          "time": 127.37474643750004,
          "velocity": 0.6929133858267716
        },
        {
          "duration": 0.04761899999999741,
          "durationTicks": 120,
          "midi": 65,
          "name": "F4",
          "ticks": 194640,
          "time": 127.37474643750004,
          "velocity": 0.5984251968503937
        },
        {
          "duration": 0.04761899999999741,
          "durationTicks": 120,
          "midi": 68,
          "name": "G#4",
          "ticks": 194640,
          "time": 127.37474643750004,
          "velocity": 0.5905511811023622
        },
        {
          "duration": 0.04761899999999741,
          "durationTicks": 120,
          "midi": 62,
          "name": "D4",
          "ticks": 195120,
          "time": 127.56522243750003,
          "velocity": 0.7322834645669292
        },
        {
          "duration": 0.04761899999999741,
          "durationTicks": 120,
          "midi": 65,
          "name": "F4",
          "ticks": 195120,
          "time": 127.56522243750003,
          "velocity": 0.6141732283464567
        },
        {
          "duration": 0.04761899999999741,
          "durationTicks": 120,
          "midi": 68,
          "name": "G#4",
          "ticks": 195120,
          "time": 127.56522243750003,
          "velocity": 0.6141732283464567
        },
        {
          "duration": 0.04761899999999741,
          "durationTicks": 120,
          "midi": 62,
          "name": "D4",
          "ticks": 195600,
          "time": 127.75569843750003,
          "velocity": 0.7401574803149606
        },
        {
          "duration": 0.04761899999999741,
          "durationTicks": 120,
          "midi": 65,
          "name": "F4",
          "ticks": 195600,
          "time": 127.75569843750003,
          "velocity": 0.6535433070866141
        },
        {
          "duration": 0.04761899999999741,
          "durationTicks": 120,
          "midi": 68,
          "name": "G#4",
          "ticks": 195600,
          "time": 127.75569843750003,
          "velocity": 0.6614173228346457
        },
        {
          "duration": 0.04761899999999741,
          "durationTicks": 120,
          "midi": 62,
          "name": "D4",
          "ticks": 196080,
          "time": 127.94617443750003,
          "velocity": 0.7401574803149606
        },
        {
          "duration": 0.04761899999999741,
          "durationTicks": 120,
          "midi": 65,
          "name": "F4",
          "ticks": 196080,
          "time": 127.94617443750003,
          "velocity": 0.6299212598425197
        },
        {
          "duration": 0.04761899999999741,
          "durationTicks": 120,
          "midi": 68,
          "name": "G#4",
          "ticks": 196080,
          "time": 127.94617443750003,
          "velocity": 0.6614173228346457
        },
        {
          "duration": 0.04761899999999741,
          "durationTicks": 120,
          "midi": 63,
          "name": "D#4",
          "ticks": 196560,
          "time": 128.13665043750004,
          "velocity": 0.7480314960629921
        },
        {
          "duration": 0.04761899999999741,
          "durationTicks": 120,
          "midi": 66,
          "name": "F#4",
          "ticks": 196560,
          "time": 128.13665043750004,
          "velocity": 0.6456692913385826
        },
        {
          "duration": 0.04761899999999741,
          "durationTicks": 120,
          "midi": 70,
          "name": "A#4",
          "ticks": 196560,
          "time": 128.13665043750004,
          "velocity": 0.6299212598425197
        },
        {
          "duration": 0.04761899999999741,
          "durationTicks": 120,
          "midi": 63,
          "name": "D#4",
          "ticks": 197040,
          "time": 128.32712643750003,
          "velocity": 0.7480314960629921
        },
        {
          "duration": 0.04761899999999741,
          "durationTicks": 120,
          "midi": 66,
          "name": "F#4",
          "ticks": 197040,
          "time": 128.32712643750003,
          "velocity": 0.6771653543307087
        },
        {
          "duration": 0.04761899999999741,
          "durationTicks": 120,
          "midi": 70,
          "name": "A#4",
          "ticks": 197040,
          "time": 128.32712643750003,
          "velocity": 0.6456692913385826
        },
        {
          "duration": 0.047619000000025835,
          "durationTicks": 120,
          "midi": 63,
          "name": "D#4",
          "ticks": 197520,
          "time": 128.51760243750002,
          "velocity": 0.7401574803149606
        },
        {
          "duration": 0.047619000000025835,
          "durationTicks": 120,
          "midi": 66,
          "name": "F#4",
          "ticks": 197520,
          "time": 128.51760243750002,
          "velocity": 0.6692913385826772
        },
        {
          "duration": 0.047619000000025835,
          "durationTicks": 120,
          "midi": 70,
          "name": "A#4",
          "ticks": 197520,
          "time": 128.51760243750002,
          "velocity": 0.6377952755905512
        },
        {
          "duration": 0.04761899999999741,
          "durationTicks": 120,
          "midi": 63,
          "name": "D#4",
          "ticks": 198000,
          "time": 128.70807843750003,
          "velocity": 0.7795275590551181
        },
        {
          "duration": 0.04761899999999741,
          "durationTicks": 120,
          "midi": 66,
          "name": "F#4",
          "ticks": 198000,
          "time": 128.70807843750003,
          "velocity": 0.6929133858267716
        },
        {
          "duration": 0.04761899999999741,
          "durationTicks": 120,
          "midi": 70,
          "name": "A#4",
          "ticks": 198000,
          "time": 128.70807843750003,
          "velocity": 0.6614173228346457
        },
        {
          "duration": 0.04761899999999741,
          "durationTicks": 120,
          "midi": 64,
          "name": "E4",
          "ticks": 198480,
          "time": 128.89855443750002,
          "velocity": 0.6850393700787402
        },
        {
          "duration": 0.04761899999999741,
          "durationTicks": 120,
          "midi": 67,
          "name": "G4",
          "ticks": 198480,
          "time": 128.89855443750002,
          "velocity": 0.7322834645669292
        },
        {
          "duration": 0.04761899999999741,
          "durationTicks": 120,
          "midi": 70,
          "name": "A#4",
          "ticks": 198480,
          "time": 128.89855443750002,
          "velocity": 0.6692913385826772
        },
        {
          "duration": 0.04761899999999741,
          "durationTicks": 120,
          "midi": 64,
          "name": "E4",
          "ticks": 198960,
          "time": 129.08903043750004,
          "velocity": 0.6771653543307087
        },
        {
          "duration": 0.04761899999999741,
          "durationTicks": 120,
          "midi": 67,
          "name": "G4",
          "ticks": 198960,
          "time": 129.08903043750004,
          "velocity": 0.7165354330708661
        },
        {
          "duration": 0.04761899999999741,
          "durationTicks": 120,
          "midi": 70,
          "name": "A#4",
          "ticks": 198960,
          "time": 129.08903043750004,
          "velocity": 0.6692913385826772
        },
        {
          "duration": 0.04761899999999741,
          "durationTicks": 120,
          "midi": 64,
          "name": "E4",
          "ticks": 199440,
          "time": 129.27950643750003,
          "velocity": 0.6062992125984252
        },
        {
          "duration": 0.04761899999999741,
          "durationTicks": 120,
          "midi": 67,
          "name": "G4",
          "ticks": 199440,
          "time": 129.27950643750003,
          "velocity": 0.5905511811023622
        },
        {
          "duration": 0.04761899999999741,
          "durationTicks": 120,
          "midi": 70,
          "name": "A#4",
          "ticks": 199440,
          "time": 129.27950643750003,
          "velocity": 0.6456692913385826
        },
        {
          "duration": 0.04761899999999741,
          "durationTicks": 120,
          "midi": 64,
          "name": "E4",
          "ticks": 199920,
          "time": 129.46998243750002,
          "velocity": 0.6614173228346457
        },
        {
          "duration": 0.04761899999999741,
          "durationTicks": 120,
          "midi": 67,
          "name": "G4",
          "ticks": 199920,
          "time": 129.46998243750002,
          "velocity": 0.6299212598425197
        },
        {
          "duration": 0.04761899999999741,
          "durationTicks": 120,
          "midi": 70,
          "name": "A#4",
          "ticks": 199920,
          "time": 129.46998243750002,
          "velocity": 0.6692913385826772
        },
        {
          "duration": 0.04761899999999741,
          "durationTicks": 120,
          "midi": 65,
          "name": "F4",
          "ticks": 200400,
          "time": 129.66045843750004,
          "velocity": 0.5905511811023622
        },
        {
          "duration": 0.04761899999999741,
          "durationTicks": 120,
          "midi": 68,
          "name": "G#4",
          "ticks": 200400,
          "time": 129.66045843750004,
          "velocity": 0.6377952755905512
        },
        {
          "duration": 0.04761899999999741,
          "durationTicks": 120,
          "midi": 72,
          "name": "C5",
          "ticks": 200400,
          "time": 129.66045843750004,
          "velocity": 0.5826771653543307
        },
        {
          "duration": 0.04761899999999741,
          "durationTicks": 120,
          "midi": 65,
          "name": "F4",
          "ticks": 200880,
          "time": 129.85093443750003,
          "velocity": 0.7165354330708661
        },
        {
          "duration": 0.04761899999999741,
          "durationTicks": 120,
          "midi": 68,
          "name": "G#4",
          "ticks": 200880,
          "time": 129.85093443750003,
          "velocity": 0.7007874015748031
        },
        {
          "duration": 0.04761899999999741,
          "durationTicks": 120,
          "midi": 72,
          "name": "C5",
          "ticks": 200880,
          "time": 129.85093443750003,
          "velocity": 0.7401574803149606
        },
        {
          "duration": 0.04761899999999741,
          "durationTicks": 120,
          "midi": 66,
          "name": "F#4",
          "ticks": 201360,
          "time": 130.04141043750002,
          "velocity": 0.6929133858267716
        },
        {
          "duration": 0.04761899999999741,
          "durationTicks": 120,
          "midi": 69,
          "name": "A4",
          "ticks": 201360,
          "time": 130.04141043750002,
          "velocity": 0.6062992125984252
        },
        {
          "duration": 0.04761899999999741,
          "durationTicks": 120,
          "midi": 72,
          "name": "C5",
          "ticks": 201360,
          "time": 130.04141043750002,
          "velocity": 0.6456692913385826
        },
        {
          "duration": 0.04761899999999741,
          "durationTicks": 120,
          "midi": 66,
          "name": "F#4",
          "ticks": 201840,
          "time": 130.23188643750004,
          "velocity": 0.6850393700787402
        },
        {
          "duration": 0.04761899999999741,
          "durationTicks": 120,
          "midi": 69,
          "name": "A4",
          "ticks": 201840,
          "time": 130.23188643750004,
          "velocity": 0.6377952755905512
        },
        {
          "duration": 0.04761899999999741,
          "durationTicks": 120,
          "midi": 72,
          "name": "C5",
          "ticks": 201840,
          "time": 130.23188643750004,
          "velocity": 0.6692913385826772
        },
        {
          "duration": 0.04761899999999741,
          "durationTicks": 120,
          "midi": 65,
          "name": "F4",
          "ticks": 202320,
          "time": 130.42236243750003,
          "velocity": 0.5905511811023622
        },
        {
          "duration": 0.04761899999999741,
          "durationTicks": 120,
          "midi": 70,
          "name": "A#4",
          "ticks": 202320,
          "time": 130.42236243750003,
          "velocity": 0.6141732283464567
        },
        {
          "duration": 0.04761899999999741,
          "durationTicks": 120,
          "midi": 73,
          "name": "C#5",
          "ticks": 202320,
          "time": 130.42236243750003,
          "velocity": 0.6299212598425197
        },
        {
          "duration": 0.047619000000025835,
          "durationTicks": 120,
          "midi": 65,
          "name": "F4",
          "ticks": 202800,
          "time": 130.61283843750002,
          "velocity": 0.7007874015748031
        },
        {
          "duration": 0.047619000000025835,
          "durationTicks": 120,
          "midi": 70,
          "name": "A#4",
          "ticks": 202800,
          "time": 130.61283843750002,
          "velocity": 0.6377952755905512
        },
        {
          "duration": 0.047619000000025835,
          "durationTicks": 120,
          "midi": 73,
          "name": "C#5",
          "ticks": 202800,
          "time": 130.61283843750002,
          "velocity": 0.6535433070866141
        },
        {
          "duration": 0.04761899999999741,
          "durationTicks": 120,
          "midi": 65,
          "name": "F4",
          "ticks": 203280,
          "time": 130.80331443750003,
          "velocity": 0.6850393700787402
        },
        {
          "duration": 0.04761899999999741,
          "durationTicks": 120,
          "midi": 70,
          "name": "A#4",
          "ticks": 203280,
          "time": 130.80331443750003,
          "velocity": 0.6929133858267716
        },
        {
          "duration": 0.04761899999999741,
          "durationTicks": 120,
          "midi": 74,
          "name": "D5",
          "ticks": 203280,
          "time": 130.80331443750003,
          "velocity": 0.5433070866141733
        },
        {
          "duration": 0.04761899999999741,
          "durationTicks": 120,
          "midi": 65,
          "name": "F4",
          "ticks": 203760,
          "time": 130.99379043750002,
          "velocity": 0.6456692913385826
        },
        {
          "duration": 0.04761899999999741,
          "durationTicks": 120,
          "midi": 70,
          "name": "A#4",
          "ticks": 203760,
          "time": 130.99379043750002,
          "velocity": 0.6929133858267716
        },
        {
          "duration": 0.04761899999999741,
          "durationTicks": 120,
          "midi": 74,
          "name": "D5",
          "ticks": 203760,
          "time": 130.99379043750002,
          "velocity": 0.5433070866141733
        },
        {
          "duration": 0.04761899999999741,
          "durationTicks": 120,
          "midi": 66,
          "name": "F#4",
          "ticks": 204240,
          "time": 131.18426643750004,
          "velocity": 0.6220472440944882
        },
        {
          "duration": 0.04761899999999741,
          "durationTicks": 120,
          "midi": 70,
          "name": "A#4",
          "ticks": 204240,
          "time": 131.18426643750004,
          "velocity": 0.6220472440944882
        },
        {
          "duration": 0.04761899999999741,
          "durationTicks": 120,
          "midi": 75,
          "name": "D#5",
          "ticks": 204240,
          "time": 131.18426643750004,
          "velocity": 0.7716535433070866
        },
        {
          "duration": 0.04761899999999741,
          "durationTicks": 120,
          "midi": 66,
          "name": "F#4",
          "ticks": 204720,
          "time": 131.37474243750003,
          "velocity": 0.6850393700787402
        },
        {
          "duration": 0.04761899999999741,
          "durationTicks": 120,
          "midi": 70,
          "name": "A#4",
          "ticks": 204720,
          "time": 131.37474243750003,
          "velocity": 0.6456692913385826
        },
        {
          "duration": 0.04761899999999741,
          "durationTicks": 120,
          "midi": 75,
          "name": "D#5",
          "ticks": 204720,
          "time": 131.37474243750003,
          "velocity": 0.7716535433070866
        },
        {
          "duration": 0.04761899999999741,
          "durationTicks": 120,
          "midi": 68,
          "name": "G#4",
          "ticks": 205200,
          "time": 131.56521843750002,
          "velocity": 0.6535433070866141
        },
        {
          "duration": 0.04761899999999741,
          "durationTicks": 120,
          "midi": 72,
          "name": "C5",
          "ticks": 205200,
          "time": 131.56521843750002,
          "velocity": 0.5511811023622047
        },
        {
          "duration": 0.04761899999999741,
          "durationTicks": 120,
          "midi": 75,
          "name": "D#5",
          "ticks": 205200,
          "time": 131.56521843750002,
          "velocity": 0.7401574803149606
        },
        {
          "duration": 0.04761899999999741,
          "durationTicks": 120,
          "midi": 68,
          "name": "G#4",
          "ticks": 205680,
          "time": 131.75569443750004,
          "velocity": 0.6929133858267716
        },
        {
          "duration": 0.04761899999999741,
          "durationTicks": 120,
          "midi": 72,
          "name": "C5",
          "ticks": 205680,
          "time": 131.75569443750004,
          "velocity": 0.6377952755905512
        },
        {
          "duration": 0.04761899999999741,
          "durationTicks": 120,
          "midi": 75,
          "name": "D#5",
          "ticks": 205680,
          "time": 131.75569443750004,
          "velocity": 0.7637795275590551
        },
        {
          "duration": 0.04761899999999741,
          "durationTicks": 120,
          "midi": 66,
          "name": "F#4",
          "ticks": 206160,
          "time": 131.94617043750003,
          "velocity": 0.7165354330708661
        },
        {
          "duration": 0.04761899999999741,
          "durationTicks": 120,
          "midi": 69,
          "name": "A4",
          "ticks": 206160,
          "time": 131.94617043750003,
          "velocity": 0.6929133858267716
        },
        {
          "duration": 0.04761899999999741,
          "durationTicks": 120,
          "midi": 73,
          "name": "C#5",
          "ticks": 206160,
          "time": 131.94617043750003,
          "velocity": 0.6062992125984252
        },
        {
          "duration": 0.04761899999999741,
          "durationTicks": 120,
          "midi": 66,
          "name": "F#4",
          "ticks": 206640,
          "time": 132.13664643750002,
          "velocity": 0.7165354330708661
        },
        {
          "duration": 0.04761899999999741,
          "durationTicks": 120,
          "midi": 69,
          "name": "A4",
          "ticks": 206640,
          "time": 132.13664643750002,
          "velocity": 0.6535433070866141
        },
        {
          "duration": 0.04761899999999741,
          "durationTicks": 120,
          "midi": 73,
          "name": "C#5",
          "ticks": 206640,
          "time": 132.13664643750002,
          "velocity": 0.5905511811023622
        },
        {
          "duration": 0.054545249999989665,
          "durationTicks": 120,
          "midi": 61,
          "name": "C#4",
          "ticks": 206880,
          "time": 132.2318844375,
          "velocity": 0.6299212598425197
        },
        {
          "duration": 0.054545249999989665,
          "durationTicks": 120,
          "midi": 65,
          "name": "F4",
          "ticks": 206880,
          "time": 132.2318844375,
          "velocity": 0.6456692913385826
        },
        {
          "duration": 0.054545249999989665,
          "durationTicks": 120,
          "midi": 68,
          "name": "G#4",
          "ticks": 206880,
          "time": 132.2318844375,
          "velocity": 0.49606299212598426
        }
      ],
      "endOfTrackTicks": 207000
    },
    {
      "channel": 0,
      "controlChanges": {},
      "pitchBends": [],
      "instrument": {
        "family": "piano",
        "number": 0,
        "name": "acoustic grand piano"
      },
      "name": "02_bass",
      "notes": [
        {
          "duration": 0.15999960000000013,
          "durationTicks": 192,
          "midi": 35,
          "name": "B1",
          "ticks": 1920,
          "time": 1.599996,
          "velocity": 0.7874015748031497
        },
        {
          "duration": 0.15999960000000013,
          "durationTicks": 192,
          "midi": 42,
          "name": "F#2",
          "ticks": 2400,
          "time": 1.999995,
          "velocity": 0.7874015748031497
        },
        {
          "duration": 0.15999960000000035,
          "durationTicks": 192,
          "midi": 35,
          "name": "B1",
          "ticks": 2880,
          "time": 2.399994,
          "velocity": 0.7874015748031497
        },
        {
          "duration": 0.15999960000000035,
          "durationTicks": 192,
          "midi": 42,
          "name": "F#2",
          "ticks": 3360,
          "time": 2.7999929999999997,
          "velocity": 0.7874015748031497
        },
        {
          "duration": 0.15999960000000035,
          "durationTicks": 192,
          "midi": 35,
          "name": "B1",
          "ticks": 3840,
          "time": 3.199992,
          "velocity": 0.7874015748031497
        },
        {
          "duration": 0.1599995999999999,
          "durationTicks": 192,
          "midi": 42,
          "name": "F#2",
          "ticks": 4320,
          "time": 3.599991,
          "velocity": 0.7874015748031497
        },
        {
          "duration": 0.15999960000000035,
          "durationTicks": 192,
          "midi": 35,
          "name": "B1",
          "ticks": 4800,
          "time": 3.99999,
          "velocity": 0.7874015748031497
        },
        {
          "duration": 0.1599996000000008,
          "durationTicks": 192,
          "midi": 42,
          "name": "F#2",
          "ticks": 5280,
          "time": 4.399989,
          "velocity": 0.7874015748031497
        },
        {
          "duration": 0.1599995999999999,
          "durationTicks": 192,
          "midi": 36,
          "name": "C2",
          "ticks": 5760,
          "time": 4.799988,
          "velocity": 0.7874015748031497
        },
        {
          "duration": 0.1599995999999999,
          "durationTicks": 192,
          "midi": 43,
          "name": "G2",
          "ticks": 6240,
          "time": 5.199987,
          "velocity": 0.7874015748031497
        },
        {
          "duration": 0.1599996000000008,
          "durationTicks": 192,
          "midi": 36,
          "name": "C2",
          "ticks": 6720,
          "time": 5.5999859999999995,
          "velocity": 0.7874015748031497
        },
        {
          "duration": 0.1599996000000008,
          "durationTicks": 192,
          "midi": 43,
          "name": "G2",
          "ticks": 7200,
          "time": 5.999985,
          "velocity": 0.7874015748031497
        },
        {
          "duration": 0.15999959999999902,
          "durationTicks": 192,
          "midi": 30,
          "name": "F#1",
          "ticks": 7680,
          "time": 6.399984,
          "velocity": 0.7874015748031497
        },
        {
          "duration": 0.15999959999999902,
          "durationTicks": 192,
          "midi": 35,
          "name": "B1",
          "ticks": 8160,
          "time": 6.799983,
          "velocity": 0.7874015748031497
        },
        {
          "duration": 0.15999959999999902,
          "durationTicks": 192,
          "midi": 42,
          "name": "F#2",
          "ticks": 8640,
          "time": 7.199982,
          "velocity": 0.7874015748031497
        },
        {
          "duration": 0.1599995999999999,
          "durationTicks": 192,
          "midi": 35,
          "name": "B1",
          "ticks": 9120,
          "time": 7.599981,
          "velocity": 0.7874015748031497
        },
        {
          "duration": 0.1599995999999999,
          "durationTicks": 192,
          "midi": 42,
          "name": "F#2",
          "ticks": 9600,
          "time": 7.99998,
          "velocity": 0.7874015748031497
        },
        {
          "duration": 0.15999959999999902,
          "durationTicks": 192,
          "midi": 36,
          "name": "C2",
          "ticks": 10080,
          "time": 8.399979,
          "velocity": 0.7874015748031497
        },
        {
          "duration": 0.15999959999999902,
          "durationTicks": 192,
          "midi": 43,
          "name": "G2",
          "ticks": 10560,
          "time": 8.799978,
          "velocity": 0.7874015748031497
        },
        {
          "duration": 0.15999959999999902,
          "durationTicks": 192,
          "midi": 37,
          "name": "C#2",
          "ticks": 11040,
          "time": 9.199977,
          "velocity": 0.7874015748031497
        },
        {
          "duration": 0.15999959999999902,
          "durationTicks": 192,
          "midi": 44,
          "name": "G#2",
          "ticks": 11520,
          "time": 9.599976,
          "velocity": 0.7874015748031497
        },
        {
          "duration": 0.1599996000000008,
          "durationTicks": 192,
          "midi": 38,
          "name": "D2",
          "ticks": 12000,
          "time": 9.999975,
          "velocity": 0.7874015748031497
        },
        {
          "duration": 0.15999959999999902,
          "durationTicks": 192,
          "midi": 46,
          "name": "A#2",
          "ticks": 12480,
          "time": 10.399974,
          "velocity": 0.7874015748031497
        },
        {
          "duration": 0.15999959999999902,
          "durationTicks": 192,
          "midi": 40,
          "name": "E2",
          "ticks": 12960,
          "time": 10.799973,
          "velocity": 0.7874015748031497
        },
        {
          "duration": 0.1599996000000008,
          "durationTicks": 192,
          "midi": 48,
          "name": "C3",
          "ticks": 13440,
          "time": 11.199971999999999,
          "velocity": 0.7874015748031497
        },
        {
          "duration": 0.15999959999999902,
          "durationTicks": 192,
          "midi": 42,
          "name": "F#2",
          "ticks": 13920,
          "time": 11.599971,
          "velocity": 0.7874015748031497
        },
        {
          "duration": 0.15999959999999902,
          "durationTicks": 192,
          "midi": 50,
          "name": "D3",
          "ticks": 14400,
          "time": 11.99997,
          "velocity": 0.7874015748031497
        },
        {
          "duration": 0.15999959999999902,
          "durationTicks": 192,
          "midi": 44,
          "name": "G#2",
          "ticks": 14880,
          "time": 12.399969,
          "velocity": 0.7874015748031497
        },
        {
          "duration": 0.15999959999999902,
          "durationTicks": 192,
          "midi": 52,
          "name": "E3",
          "ticks": 15360,
          "time": 12.799968,
          "velocity": 0.7874015748031497
        },
        {
          "duration": 0.27397199999999877,
          "durationTicks": 480,
          "midi": 23,
          "name": "B0",
          "ticks": 19440,
          "time": 15.254757,
          "velocity": 0.7874015748031497
        },
        {
          "duration": 0.06849300000000014,
          "durationTicks": 120,
          "midi": 35,
          "name": "B1",
          "ticks": 19920,
          "time": 15.528728999999998,
          "velocity": 0.7874015748031497
        },
        {
          "duration": 0.06849300000000014,
          "durationTicks": 120,
          "midi": 23,
          "name": "B0",
          "ticks": 20160,
          "time": 15.665714999999999,
          "velocity": 0.7874015748031497
        },
        {
          "duration": 0.06849300000000014,
          "durationTicks": 120,
          "midi": 35,
          "name": "B1",
          "ticks": 20400,
          "time": 15.802700999999999,
          "velocity": 0.7874015748031497
        },
        {
          "duration": 0.06849300000000014,
          "durationTicks": 120,
          "midi": 23,
          "name": "B0",
          "ticks": 20640,
          "time": 15.939687,
          "velocity": 0.7874015748031497
        },
        {
          "duration": 0.06849300000000014,
          "durationTicks": 120,
          "midi": 35,
          "name": "B1",
          "ticks": 20880,
          "time": 16.076673,
          "velocity": 0.7874015748031497
        },
        {
          "duration": 0.06849300000000014,
          "durationTicks": 120,
          "midi": 23,
          "name": "B0",
          "ticks": 21120,
          "time": 16.213659,
          "velocity": 0.7874015748031497
        },
        {
          "duration": 0.06849300000000014,
          "durationTicks": 120,
          "midi": 35,
          "name": "B1",
          "ticks": 21360,
          "time": 16.350645,
          "velocity": 0.7874015748031497
        },
        {
          "duration": 0.06849300000000014,
          "durationTicks": 120,
          "midi": 24,
          "name": "C1",
          "ticks": 21600,
          "time": 16.487631,
          "velocity": 0.7874015748031497
        },
        {
          "duration": 0.06849299999999658,
          "durationTicks": 120,
          "midi": 36,
          "name": "C2",
          "ticks": 21840,
          "time": 16.624617,
          "velocity": 0.7874015748031497
        },
        {
          "duration": 0.06849299999999658,
          "durationTicks": 120,
          "midi": 24,
          "name": "C1",
          "ticks": 22080,
          "time": 16.761603,
          "velocity": 0.7874015748031497
        },
        {
          "duration": 0.06849300000000014,
          "durationTicks": 120,
          "midi": 36,
          "name": "C2",
          "ticks": 22320,
          "time": 16.898588999999998,
          "velocity": 0.7874015748031497
        },
        {
          "duration": 0.06849300000000014,
          "durationTicks": 120,
          "midi": 24,
          "name": "C1",
          "ticks": 22560,
          "time": 17.035574999999998,
          "velocity": 0.7874015748031497
        },
        {
          "duration": 0.06849300000000014,
          "durationTicks": 120,
          "midi": 36,
          "name": "C2",
          "ticks": 22800,
          "time": 17.172560999999998,
          "velocity": 0.7874015748031497
        },
        {
          "duration": 0.06849300000000014,
          "durationTicks": 120,
          "midi": 24,
          "name": "C1",
          "ticks": 23040,
          "time": 17.309547,
          "velocity": 0.7874015748031497
        },
        {
          "duration": 0.27397200000000055,
          "durationTicks": 480,
          "midi": 25,
          "name": "C#1",
          "ticks": 23280,
          "time": 17.446533,
          "velocity": 0.7874015748031497
        },
        {
          "duration": 0.06849300000000014,
          "durationTicks": 120,
          "midi": 37,
          "name": "C#2",
          "ticks": 23760,
          "time": 17.720505,
          "velocity": 0.7874015748031497
        },
        {
          "duration": 0.06849300000000014,
          "durationTicks": 120,
          "midi": 25,
          "name": "C#1",
          "ticks": 24000,
          "time": 17.857491,
          "velocity": 0.7874015748031497
        },
        {
          "duration": 0.06849300000000014,
          "durationTicks": 120,
          "midi": 37,
          "name": "C#2",
          "ticks": 24240,
          "time": 17.994477,
          "velocity": 0.7874015748031497
        },
        {
          "duration": 0.06849300000000014,
          "durationTicks": 120,
          "midi": 25,
          "name": "C#1",
          "ticks": 24480,
          "time": 18.131463,
          "velocity": 0.7874015748031497
        },
        {
          "duration": 0.06849300000000369,
          "durationTicks": 120,
          "midi": 37,
          "name": "C#2",
          "ticks": 24720,
          "time": 18.268448999999997,
          "velocity": 0.7874015748031497
        },
        {
          "duration": 0.06849300000000369,
          "durationTicks": 120,
          "midi": 25,
          "name": "C#1",
          "ticks": 24960,
          "time": 18.405434999999997,
          "velocity": 0.7874015748031497
        },
        {
          "duration": 0.06849300000000369,
          "durationTicks": 120,
          "midi": 37,
          "name": "C#2",
          "ticks": 25200,
          "time": 18.542420999999997,
          "velocity": 0.7874015748031497
        },
        {
          "duration": 0.06849300000000014,
          "durationTicks": 120,
          "midi": 26,
          "name": "D1",
          "ticks": 25440,
          "time": 18.679406999999998,
          "velocity": 0.7874015748031497
        },
        {
          "duration": 0.06849300000000014,
          "durationTicks": 120,
          "midi": 38,
          "name": "D2",
          "ticks": 25680,
          "time": 18.816392999999998,
          "velocity": 0.7874015748031497
        },
        {
          "duration": 0.06849300000000014,
          "durationTicks": 120,
          "midi": 26,
          "name": "D1",
          "ticks": 25920,
          "time": 18.953378999999998,
          "velocity": 0.7874015748031497
        },
        {
          "duration": 0.06849300000000014,
          "durationTicks": 120,
          "midi": 38,
          "name": "D2",
          "ticks": 26160,
          "time": 19.090365,
          "velocity": 0.7874015748031497
        },
        {
          "duration": 0.06849300000000014,
          "durationTicks": 120,
          "midi": 26,
          "name": "D1",
          "ticks": 26400,
          "time": 19.227351,
          "velocity": 0.7874015748031497
        },
        {
          "duration": 0.06849300000000014,
          "durationTicks": 120,
          "midi": 38,
          "name": "D2",
          "ticks": 26640,
          "time": 19.364337,
          "velocity": 0.7874015748031497
        },
        {
          "duration": 0.06849300000000014,
          "durationTicks": 120,
          "midi": 26,
          "name": "D1",
          "ticks": 26880,
          "time": 19.501323,
          "velocity": 0.7874015748031497
        },
        {
          "duration": 0.27397200000000055,
          "durationTicks": 480,
          "midi": 27,
          "name": "D#1",
          "ticks": 27120,
          "time": 19.638309,
          "velocity": 0.7874015748031497
        },
        {
          "duration": 0.06849300000000014,
          "durationTicks": 120,
          "midi": 39,
          "name": "D#2",
          "ticks": 27600,
          "time": 19.912281,
          "velocity": 0.7874015748031497
        },
        {
          "duration": 0.06849299999999658,
          "durationTicks": 120,
          "midi": 27,
          "name": "D#1",
          "ticks": 27840,
          "time": 20.049267,
          "velocity": 0.7874015748031497
        },
        {
          "duration": 0.06849299999999658,
          "durationTicks": 120,
          "midi": 39,
          "name": "D#2",
          "ticks": 28080,
          "time": 20.186253,
          "velocity": 0.7874015748031497
        },
        {
          "duration": 0.06849299999999658,
          "durationTicks": 120,
          "midi": 28,
          "name": "E1",
          "ticks": 28320,
          "time": 20.323239,
          "velocity": 0.7874015748031497
        },
        {
          "duration": 0.06849300000000014,
          "durationTicks": 120,
          "midi": 40,
          "name": "E2",
          "ticks": 28560,
          "time": 20.460224999999998,
          "velocity": 0.7874015748031497
        },
        {
          "duration": 0.06849300000000014,
          "durationTicks": 120,
          "midi": 28,
          "name": "E1",
          "ticks": 28800,
          "time": 20.597210999999998,
          "velocity": 0.7874015748031497
        },
        {
          "duration": 0.06849300000000014,
          "durationTicks": 120,
          "midi": 40,
          "name": "E2",
          "ticks": 29040,
          "time": 20.734196999999998,
          "velocity": 0.7874015748031497
        },
        {
          "duration": 0.06849300000000014,
          "durationTicks": 120,
          "midi": 32,
          "name": "G#1",
          "ticks": 29280,
          "time": 20.871183,
          "velocity": 0.7874015748031497
        },
        {
          "duration": 0.06849300000000014,
          "durationTicks": 120,
          "midi": 44,
          "name": "G#2",
          "ticks": 29520,
          "time": 21.008169,
          "velocity": 0.7874015748031497
        },
        {
          "duration": 0.06849300000000014,
          "durationTicks": 120,
          "midi": 32,
          "name": "G#1",
          "ticks": 29760,
          "time": 21.145155,
          "velocity": 0.7874015748031497
        },
        {
          "duration": 0.06849300000000014,
          "durationTicks": 120,
          "midi": 44,
          "name": "G#2",
          "ticks": 30000,
          "time": 21.282141,
          "velocity": 0.7874015748031497
        },
        {
          "duration": 0.06849300000000014,
          "durationTicks": 120,
          "midi": 30,
          "name": "F#1",
          "ticks": 30240,
          "time": 21.419127,
          "velocity": 0.7874015748031497
        },
        {
          "duration": 0.06849300000000369,
          "durationTicks": 120,
          "midi": 42,
          "name": "F#2",
          "ticks": 30480,
          "time": 21.556112999999996,
          "velocity": 0.7874015748031497
        },
        {
          "duration": 0.06849300000000369,
          "durationTicks": 120,
          "midi": 30,
          "name": "F#1",
          "ticks": 30720,
          "time": 21.693098999999997,
          "velocity": 0.7874015748031497
        },
        {
          "duration": 0.27397200000000055,
          "durationTicks": 480,
          "midi": 28,
          "name": "E1",
          "ticks": 30960,
          "time": 21.830084999999997,
          "velocity": 0.7874015748031497
        },
        {
          "duration": 0.06849300000000369,
          "durationTicks": 120,
          "midi": 40,
          "name": "E2",
          "ticks": 31440,
          "time": 22.104056999999997,
          "velocity": 0.7874015748031497
        },
        {
          "duration": 0.06849300000000369,
          "durationTicks": 120,
          "midi": 28,
          "name": "E1",
          "ticks": 31680,
          "time": 22.241042999999998,
          "velocity": 0.7874015748031497
        },
        {
          "duration": 0.06849300000000014,
          "durationTicks": 120,
          "midi": 40,
          "name": "E2",
          "ticks": 31920,
          "time": 22.378028999999998,
          "velocity": 0.7874015748031497
        },
        {
          "duration": 0.06849300000000014,
          "durationTicks": 120,
          "midi": 25,
          "name": "C#1",
          "ticks": 32160,
          "time": 22.515015,
          "velocity": 0.7874015748031497
        },
        {
          "duration": 0.06849300000000014,
          "durationTicks": 120,
          "midi": 37,
          "name": "C#2",
          "ticks": 32400,
          "time": 22.652001,
          "velocity": 0.7874015748031497
        },
        {
          "duration": 0.06849300000000014,
          "durationTicks": 120,
          "midi": 25,
          "name": "C#1",
          "ticks": 32640,
          "time": 22.788987,
          "velocity": 0.7874015748031497
        },
        {
          "duration": 0.06849300000000014,
          "durationTicks": 120,
          "midi": 37,
          "name": "C#2",
          "ticks": 32880,
          "time": 22.925973,
          "velocity": 0.7874015748031497
        },
        {
          "duration": 0.06849300000000014,
          "durationTicks": 120,
          "midi": 28,
          "name": "E1",
          "ticks": 33120,
          "time": 23.062959,
          "velocity": 0.7874015748031497
        },
        {
          "duration": 0.06849300000000014,
          "durationTicks": 120,
          "midi": 40,
          "name": "E2",
          "ticks": 33360,
          "time": 23.199945,
          "velocity": 0.7874015748031497
        },
        {
          "duration": 0.06849299999999658,
          "durationTicks": 120,
          "midi": 28,
          "name": "E1",
          "ticks": 33600,
          "time": 23.336931,
          "velocity": 0.7874015748031497
        },
        {
          "duration": 0.06849299999999658,
          "durationTicks": 120,
          "midi": 40,
          "name": "E2",
          "ticks": 33840,
          "time": 23.473917,
          "velocity": 0.7874015748031497
        },
        {
          "duration": 0.13698600000000027,
          "durationTicks": 240,
          "midi": 35,
          "name": "B1",
          "ticks": 34080,
          "time": 23.610903,
          "velocity": 0.7874015748031497
        },
        {
          "duration": 0.23076899999999867,
          "durationTicks": 240,
          "midi": 41,
          "name": "F2",
          "ticks": 42720,
          "time": 29.62038,
          "velocity": 0.7874015748031497
        },
        {
          "duration": 0.23076900000000222,
          "durationTicks": 240,
          "midi": 36,
          "name": "C2",
          "ticks": 43200,
          "time": 30.081917999999998,
          "velocity": 0.7874015748031497
        },
        {
          "duration": 0.23076900000000222,
          "durationTicks": 240,
          "midi": 41,
          "name": "F2",
          "ticks": 43680,
          "time": 30.543456,
          "velocity": 0.7874015748031497
        },
        {
          "duration": 0.23076899999999867,
          "durationTicks": 240,
          "midi": 35,
          "name": "B1",
          "ticks": 44160,
          "time": 31.004994,
          "velocity": 0.7874015748031497
        },
        {
          "duration": 0.23076899999999867,
          "durationTicks": 240,
          "midi": 43,
          "name": "G2",
          "ticks": 44640,
          "time": 31.466532,
          "velocity": 0.7874015748031497
        },
        {
          "duration": 0.23076900000000222,
          "durationTicks": 240,
          "midi": 38,
          "name": "D2",
          "ticks": 45120,
          "time": 31.928069999999998,
          "velocity": 0.7874015748031497
        },
        {
          "duration": 0.23076899999999512,
          "durationTicks": 240,
          "midi": 43,
          "name": "G2",
          "ticks": 45600,
          "time": 32.389608,
          "velocity": 0.7874015748031497
        },
        {
          "duration": 0.23076900000000222,
          "durationTicks": 240,
          "midi": 37,
          "name": "C#2",
          "ticks": 46080,
          "time": 32.851146,
          "velocity": 0.7874015748031497
        },
        {
          "duration": 0.08076915000000184,
          "durationTicks": 84,
          "midi": 46,
          "name": "A#2",
          "ticks": 46560,
          "time": 33.312684,
          "velocity": 0.7874015748031497
        },
        {
          "duration": 0.23076900000000222,
          "durationTicks": 240,
          "midi": 46,
          "name": "A#2",
          "ticks": 46800,
          "time": 33.543453,
          "velocity": 0.7874015748031497
        },
        {
          "duration": 0.21126749999999817,
          "durationTicks": 240,
          "midi": 41,
          "name": "F2",
          "ticks": 47040,
          "time": 33.774222,
          "velocity": 0.7874015748031497
        },
        {
          "duration": 0.21126749999999817,
          "durationTicks": 240,
          "midi": 36,
          "name": "C2",
          "ticks": 47520,
          "time": 34.196757000000005,
          "velocity": 0.7874015748031497
        },
        {
          "duration": 0.21126749999999817,
          "durationTicks": 240,
          "midi": 41,
          "name": "F2",
          "ticks": 48000,
          "time": 34.619292,
          "velocity": 0.7874015748031497
        },
        {
          "duration": 0.21126749999999817,
          "durationTicks": 240,
          "midi": 35,
          "name": "B1",
          "ticks": 48480,
          "time": 35.041827000000005,
          "velocity": 0.7874015748031497
        },
        {
          "duration": 0.21126749999999817,
          "durationTicks": 240,
          "midi": 43,
          "name": "G2",
          "ticks": 48960,
          "time": 35.464362,
          "velocity": 0.7874015748031497
        },
        {
          "duration": 0.21126749999999817,
          "durationTicks": 240,
          "midi": 38,
          "name": "D2",
          "ticks": 49440,
          "time": 35.886897000000005,
          "velocity": 0.7874015748031497
        },
        {
          "duration": 0.21126749999999817,
          "durationTicks": 240,
          "midi": 44,
          "name": "G#2",
          "ticks": 49920,
          "time": 36.309432,
          "velocity": 0.7874015748031497
        },
        {
          "duration": 0.21126749999999817,
          "durationTicks": 240,
          "midi": 40,
          "name": "E2",
          "ticks": 50400,
          "time": 36.731967000000004,
          "velocity": 0.7874015748031497
        },
        {
          "duration": 0.0739436250000054,
          "durationTicks": 84,
          "midi": 34,
          "name": "A#1",
          "ticks": 50880,
          "time": 37.154502,
          "velocity": 0.7874015748031497
        },
        {
          "duration": 0.21126750000000527,
          "durationTicks": 240,
          "midi": 34,
          "name": "A#1",
          "ticks": 51120,
          "time": 37.3657695,
          "velocity": 0.7874015748031497
        },
        {
          "duration": 0.19354799999999983,
          "durationTicks": 240,
          "midi": 42,
          "name": "F#2",
          "ticks": 51360,
          "time": 37.577037000000004,
          "velocity": 0.7874015748031497
        },
        {
          "duration": 0.19354799999999983,
          "durationTicks": 240,
          "midi": 37,
          "name": "C#2",
          "ticks": 51840,
          "time": 37.964133000000004,
          "velocity": 0.7874015748031497
        },
        {
          "duration": 0.19354799999999983,
          "durationTicks": 240,
          "midi": 42,
          "name": "F#2",
          "ticks": 52320,
          "time": 38.351229000000004,
          "velocity": 0.7874015748031497
        },
        {
          "duration": 0.19354799999999983,
          "durationTicks": 240,
          "midi": 36,
          "name": "C2",
          "ticks": 52800,
          "time": 38.738325,
          "velocity": 0.7874015748031497
        },
        {
          "duration": 0.19354799999999983,
          "durationTicks": 240,
          "midi": 44,
          "name": "G#2",
          "ticks": 53280,
          "time": 39.125421,
          "velocity": 0.7874015748031497
        },
        {
          "duration": 0.19354799999999983,
          "durationTicks": 240,
          "midi": 39,
          "name": "D#2",
          "ticks": 53760,
          "time": 39.512517,
          "velocity": 0.7874015748031497
        },
        {
          "duration": 0.19354799999999983,
          "durationTicks": 240,
          "midi": 44,
          "name": "G#2",
          "ticks": 54240,
          "time": 39.899613,
          "velocity": 0.7874015748031497
        },
        {
          "duration": 0.19354799999999983,
          "durationTicks": 240,
          "midi": 38,
          "name": "D2",
          "ticks": 54720,
          "time": 40.286709,
          "velocity": 0.7874015748031497
        },
        {
          "duration": 0.0677418000000003,
          "durationTicks": 84,
          "midi": 35,
          "name": "B1",
          "ticks": 55200,
          "time": 40.673805,
          "velocity": 0.7874015748031497
        },
        {
          "duration": 0.19354799999999983,
          "durationTicks": 240,
          "midi": 35,
          "name": "B1",
          "ticks": 55440,
          "time": 40.867353,
          "velocity": 0.7874015748031497
        },
        {
          "duration": 0.1818179999999998,
          "durationTicks": 240,
          "midi": 43,
          "name": "G2",
          "ticks": 55680,
          "time": 41.060901,
          "velocity": 0.7874015748031497
        },
        {
          "duration": 0.1818179999999998,
          "durationTicks": 240,
          "midi": 38,
          "name": "D2",
          "ticks": 56160,
          "time": 41.424537,
          "velocity": 0.7874015748031497
        },
        {
          "duration": 0.1818179999999998,
          "durationTicks": 240,
          "midi": 43,
          "name": "G2",
          "ticks": 56640,
          "time": 41.788173,
          "velocity": 0.7874015748031497
        },
        {
          "duration": 0.1818179999999998,
          "durationTicks": 240,
          "midi": 37,
          "name": "C#2",
          "ticks": 57120,
          "time": 42.151809,
          "velocity": 0.7874015748031497
        },
        {
          "duration": 0.17142849999999754,
          "durationTicks": 240,
          "midi": 45,
          "name": "A2",
          "ticks": 57600,
          "time": 42.515445,
          "velocity": 0.7874015748031497
        },
        {
          "duration": 0.17142849999999754,
          "durationTicks": 240,
          "midi": 40,
          "name": "E2",
          "ticks": 58080,
          "time": 42.858302,
          "velocity": 0.7874015748031497
        },
        {
          "duration": 0.17142850000000465,
          "durationTicks": 240,
          "midi": 46,
          "name": "A#2",
          "ticks": 58560,
          "time": 43.201159,
          "velocity": 0.7874015748031497
        },
        {
          "duration": 0.17142849999999754,
          "durationTicks": 240,
          "midi": 42,
          "name": "F#2",
          "ticks": 59040,
          "time": 43.544016,
          "velocity": 0.7874015748031497
        },
        {
          "duration": 0.05999997499999665,
          "durationTicks": 84,
          "midi": 36,
          "name": "C2",
          "ticks": 59520,
          "time": 43.886873,
          "velocity": 0.7874015748031497
        },
        {
          "duration": 0.17142849999999754,
          "durationTicks": 240,
          "midi": 36,
          "name": "C2",
          "ticks": 59760,
          "time": 44.0583015,
          "velocity": 0.7874015748031497
        },
        {
          "duration": 0.16393399999999758,
          "durationTicks": 240,
          "midi": 32,
          "name": "G#1",
          "ticks": 60000,
          "time": 44.229729999999996,
          "velocity": 0.7874015748031497
        },
        {
          "duration": 0.16393399999999758,
          "durationTicks": 240,
          "midi": 27,
          "name": "D#1",
          "ticks": 60480,
          "time": 44.557598,
          "velocity": 0.7874015748031497
        },
        {
          "duration": 0.1639340000000047,
          "durationTicks": 240,
          "midi": 32,
          "name": "G#1",
          "ticks": 60960,
          "time": 44.885465999999994,
          "velocity": 0.7874015748031497
        },
        {
          "duration": 0.16393399999999758,
          "durationTicks": 240,
          "midi": 26,
          "name": "D1",
          "ticks": 61440,
          "time": 45.213333999999996,
          "velocity": 0.7874015748031497
        },
        {
          "duration": 0.16393399999999758,
          "durationTicks": 240,
          "midi": 34,
          "name": "A#1",
          "ticks": 61920,
          "time": 45.541202,
          "velocity": 0.7874015748031497
        },
        {
          "duration": 0.1639340000000047,
          "durationTicks": 240,
          "midi": 29,
          "name": "F1",
          "ticks": 62400,
          "time": 45.869069999999994,
          "velocity": 0.7874015748031497
        },
        {
          "duration": 0.16393399999999758,
          "durationTicks": 240,
          "midi": 34,
          "name": "A#1",
          "ticks": 62880,
          "time": 46.196937999999996,
          "velocity": 0.7874015748031497
        },
        {
          "duration": 0.057376900000001285,
          "durationTicks": 84,
          "midi": 37,
          "name": "C#2",
          "ticks": 63120,
          "time": 46.36087199999999,
          "velocity": 0.7874015748031497
        },
        {
          "duration": 0.32786799999999516,
          "durationTicks": 480,
          "midi": 37,
          "name": "C#2",
          "ticks": 63360,
          "time": 46.524806,
          "velocity": 0.7874015748031497
        },
        {
          "duration": 0.15384600000000148,
          "durationTicks": 240,
          "midi": 33,
          "name": "A1",
          "ticks": 63840,
          "time": 46.85267399999999,
          "velocity": 0.7874015748031497
        },
        {
          "duration": 0.15384599999999438,
          "durationTicks": 240,
          "midi": 28,
          "name": "E1",
          "ticks": 64320,
          "time": 47.160365999999996,
          "velocity": 0.7874015748031497
        },
        {
          "duration": 0.15384600000000148,
          "durationTicks": 240,
          "midi": 33,
          "name": "A1",
          "ticks": 64800,
          "time": 47.46805799999999,
          "velocity": 0.7874015748031497
        },
        {
          "duration": 0.15384600000000148,
          "durationTicks": 240,
          "midi": 27,
          "name": "D#1",
          "ticks": 65280,
          "time": 47.775749999999995,
          "velocity": 0.7874015748031497
        },
        {
          "duration": 0.15384600000000148,
          "durationTicks": 240,
          "midi": 35,
          "name": "B1",
          "ticks": 65760,
          "time": 48.08344199999999,
          "velocity": 0.7874015748031497
        },
        {
          "duration": 0.15384600000000148,
          "durationTicks": 240,
          "midi": 30,
          "name": "F#1",
          "ticks": 66240,
          "time": 48.391133999999994,
          "velocity": 0.7874015748031497
        },
        {
          "duration": 0.15384599999999438,
          "durationTicks": 240,
          "midi": 35,
          "name": "B1",
          "ticks": 66720,
          "time": 48.698826,
          "velocity": 0.7874015748031497
        },
        {
          "duration": 0.05384610000000123,
          "durationTicks": 84,
          "midi": 38,
          "name": "D2",
          "ticks": 66960,
          "time": 48.85267199999999,
          "velocity": 0.7874015748031497
        },
        {
          "duration": 0.30769200000000296,
          "durationTicks": 480,
          "midi": 38,
          "name": "D2",
          "ticks": 67200,
          "time": 49.00651799999999,
          "velocity": 0.7874015748031497
        },
        {
          "duration": 0.14999999999999858,
          "durationTicks": 240,
          "midi": 34,
          "name": "A#1",
          "ticks": 67680,
          "time": 49.314209999999996,
          "velocity": 0.7874015748031497
        },
        {
          "duration": 0.15000000000000568,
          "durationTicks": 240,
          "midi": 29,
          "name": "F1",
          "ticks": 68160,
          "time": 49.61420999999999,
          "velocity": 0.7874015748031497
        },
        {
          "duration": 0.14999999999999858,
          "durationTicks": 240,
          "midi": 34,
          "name": "A#1",
          "ticks": 68640,
          "time": 49.91421,
          "velocity": 0.7874015748031497
        },
        {
          "duration": 0.05250000000000199,
          "durationTicks": 84,
          "midi": 39,
          "name": "D#2",
          "ticks": 68880,
          "time": 50.064209999999996,
          "velocity": 0.7874015748031497
        },
        {
          "duration": 0.30000000000000426,
          "durationTicks": 480,
          "midi": 39,
          "name": "D#2",
          "ticks": 69120,
          "time": 50.214209999999994,
          "velocity": 0.7874015748031497
        },
        {
          "duration": 0.1463409999999996,
          "durationTicks": 240,
          "midi": 37,
          "name": "C#2",
          "ticks": 69600,
          "time": 50.51421,
          "velocity": 0.7874015748031497
        },
        {
          "duration": 0.1463409999999996,
          "durationTicks": 240,
          "midi": 32,
          "name": "G#1",
          "ticks": 70080,
          "time": 50.806892,
          "velocity": 0.7874015748031497
        },
        {
          "duration": 0.1463409999999996,
          "durationTicks": 240,
          "midi": 37,
          "name": "C#2",
          "ticks": 70560,
          "time": 51.099574,
          "velocity": 0.7874015748031497
        },
        {
          "duration": 0.05121935000000377,
          "durationTicks": 84,
          "midi": 40,
          "name": "E2",
          "ticks": 70800,
          "time": 51.245915,
          "velocity": 0.7874015748031497
        },
        {
          "duration": 0.2926819999999992,
          "durationTicks": 480,
          "midi": 40,
          "name": "E2",
          "ticks": 71040,
          "time": 51.392255999999996,
          "velocity": 0.7874015748031497
        },
        {
          "duration": 0.13993154583334189,
          "durationTicks": 240,
          "midi": 36,
          "name": "C2",
          "ticks": 71520,
          "time": 51.684937999999995,
          "velocity": 0.7874015748031497
        },
        {
          "duration": 0.13953450000000345,
          "durationTicks": 240,
          "midi": 31,
          "name": "G1",
          "ticks": 72000,
          "time": 51.964404045833334,
          "velocity": 0.7874015748031497
        },
        {
          "duration": 0.04941846875000522,
          "durationTicks": 85,
          "midi": 37,
          "name": "C#2",
          "ticks": 72480,
          "time": 52.24347304583333,
          "velocity": 0.7007874015748031
        },
        {
          "duration": 0.04941846874999811,
          "durationTicks": 85,
          "midi": 38,
          "name": "D2",
          "ticks": 72640,
          "time": 52.336496045833336,
          "velocity": 0.7007874015748031
        },
        {
          "duration": 0.04941846874999811,
          "durationTicks": 85,
          "midi": 39,
          "name": "D#2",
          "ticks": 72800,
          "time": 52.42951904583334,
          "velocity": 0.7007874015748031
        },
        {
          "duration": 0.04941846875000522,
          "durationTicks": 85,
          "midi": 40,
          "name": "E2",
          "ticks": 72960,
          "time": 52.52254204583333,
          "velocity": 0.7007874015748031
        },
        {
          "duration": 0.04941846874999811,
          "durationTicks": 85,
          "midi": 41,
          "name": "F2",
          "ticks": 73120,
          "time": 52.615565045833335,
          "velocity": 0.7007874015748031
        },
        {
          "duration": 0.04941846874999811,
          "durationTicks": 85,
          "midi": 42,
          "name": "F#2",
          "ticks": 73280,
          "time": 52.70858804583334,
          "velocity": 0.7007874015748031
        },
        {
          "duration": 0.13698600000000027,
          "durationTicks": 240,
          "midi": 40,
          "name": "E2",
          "ticks": 73440,
          "time": 52.80161104583333,
          "velocity": 0.7874015748031497
        },
        {
          "duration": 0.13698600000000027,
          "durationTicks": 240,
          "midi": 35,
          "name": "B1",
          "ticks": 73920,
          "time": 53.07558304583333,
          "velocity": 0.7874015748031497
        },
        {
          "duration": 0.13698600000000027,
          "durationTicks": 240,
          "midi": 41,
          "name": "F2",
          "ticks": 74400,
          "time": 53.349555045833334,
          "velocity": 0.7874015748031497
        },
        {
          "duration": 0.13698600000000027,
          "durationTicks": 240,
          "midi": 37,
          "name": "C#2",
          "ticks": 74880,
          "time": 53.623527045833335,
          "velocity": 0.7874015748031497
        },
        {
          "duration": 0.15384600000000148,
          "durationTicks": 240,
          "midi": 38,
          "name": "D2",
          "ticks": 75360,
          "time": 53.897499045833335,
          "velocity": 0.7874015748031497
        },
        {
          "duration": 0.15384600000000148,
          "durationTicks": 240,
          "midi": 30,
          "name": "F#1",
          "ticks": 76320,
          "time": 54.512883045833334,
          "velocity": 0.7874015748031497
        },
        {
          "duration": 0.15384600000000148,
          "durationTicks": 240,
          "midi": 33,
          "name": "A1",
          "ticks": 77280,
          "time": 55.12826704583333,
          "velocity": 0.7874015748031497
        },
        {
          "duration": 0.06849299999999658,
          "durationTicks": 120,
          "midi": 30,
          "name": "F#1",
          "ticks": 78240,
          "time": 55.74365104583333,
          "velocity": 0.7874015748031497
        },
        {
          "duration": 0.06849299999999658,
          "durationTicks": 120,
          "midi": 30,
          "name": "F#1",
          "ticks": 78480,
          "time": 55.88063704583333,
          "velocity": 0.7874015748031497
        },
        {
          "duration": 0.06849299999999658,
          "durationTicks": 120,
          "midi": 30,
          "name": "F#1",
          "ticks": 78720,
          "time": 56.01762304583333,
          "velocity": 0.7874015748031497
        },
        {
          "duration": 0.27397200000000055,
          "durationTicks": 480,
          "midi": 23,
          "name": "B0",
          "ticks": 78960,
          "time": 56.15460904583333,
          "velocity": 0.7874015748031497
        },
        {
          "duration": 0.06849299999999658,
          "durationTicks": 120,
          "midi": 35,
          "name": "B1",
          "ticks": 79440,
          "time": 56.42858104583333,
          "velocity": 0.7874015748031497
        },
        {
          "duration": 0.06849299999999658,
          "durationTicks": 120,
          "midi": 23,
          "name": "B0",
          "ticks": 79680,
          "time": 56.56556704583333,
          "velocity": 0.7874015748031497
        },
        {
          "duration": 0.06849299999999658,
          "durationTicks": 120,
          "midi": 35,
          "name": "B1",
          "ticks": 79920,
          "time": 56.702553045833334,
          "velocity": 0.7874015748031497
        },
        {
          "duration": 0.06849299999999658,
          "durationTicks": 120,
          "midi": 23,
          "name": "B0",
          "ticks": 80160,
          "time": 56.839539045833334,
          "velocity": 0.7874015748031497
        },
        {
          "duration": 0.06849299999999658,
          "durationTicks": 120,
          "midi": 35,
          "name": "B1",
          "ticks": 80400,
          "time": 56.976525045833334,
          "velocity": 0.7874015748031497
        },
        {
          "duration": 0.06849299999999658,
          "durationTicks": 120,
          "midi": 23,
          "name": "B0",
          "ticks": 80640,
          "time": 57.113511045833334,
          "velocity": 0.7874015748031497
        },
        {
          "duration": 0.06849299999999658,
          "durationTicks": 120,
          "midi": 35,
          "name": "B1",
          "ticks": 80880,
          "time": 57.250497045833335,
          "velocity": 0.7874015748031497
        },
        {
          "duration": 0.06849299999999658,
          "durationTicks": 120,
          "midi": 24,
          "name": "C1",
          "ticks": 81120,
          "time": 57.387483045833335,
          "velocity": 0.7874015748031497
        },
        {
          "duration": 0.06849300000000369,
          "durationTicks": 120,
          "midi": 36,
          "name": "C2",
          "ticks": 81360,
          "time": 57.52446904583333,
          "velocity": 0.7874015748031497
        },
        {
          "duration": 0.06849300000000369,
          "durationTicks": 120,
          "midi": 24,
          "name": "C1",
          "ticks": 81600,
          "time": 57.66145504583333,
          "velocity": 0.7874015748031497
        },
        {
          "duration": 0.06849300000000369,
          "durationTicks": 120,
          "midi": 36,
          "name": "C2",
          "ticks": 81840,
          "time": 57.79844104583333,
          "velocity": 0.7874015748031497
        },
        {
          "duration": 0.06849300000000369,
          "durationTicks": 120,
          "midi": 24,
          "name": "C1",
          "ticks": 82080,
          "time": 57.93542704583333,
          "velocity": 0.7874015748031497
        },
        {
          "duration": 0.06849300000000369,
          "durationTicks": 120,
          "midi": 36,
          "name": "C2",
          "ticks": 82320,
          "time": 58.07241304583333,
          "velocity": 0.7874015748031497
        },
        {
          "duration": 0.06849300000000369,
          "durationTicks": 120,
          "midi": 24,
          "name": "C1",
          "ticks": 82560,
          "time": 58.20939904583333,
          "velocity": 0.7874015748031497
        },
        {
          "duration": 0.27397200000000055,
          "durationTicks": 480,
          "midi": 25,
          "name": "C#1",
          "ticks": 82800,
          "time": 58.34638504583333,
          "velocity": 0.7874015748031497
        },
        {
          "duration": 0.06849300000000369,
          "durationTicks": 120,
          "midi": 37,
          "name": "C#2",
          "ticks": 83280,
          "time": 58.62035704583333,
          "velocity": 0.7874015748031497
        },
        {
          "duration": 0.06849300000000369,
          "durationTicks": 120,
          "midi": 25,
          "name": "C#1",
          "ticks": 83520,
          "time": 58.75734304583333,
          "velocity": 0.7874015748031497
        },
        {
          "duration": 0.06849300000000369,
          "durationTicks": 120,
          "midi": 37,
          "name": "C#2",
          "ticks": 83760,
          "time": 58.89432904583333,
          "velocity": 0.7874015748031497
        },
        {
          "duration": 0.06849300000000369,
          "durationTicks": 120,
          "midi": 25,
          "name": "C#1",
          "ticks": 84000,
          "time": 59.03131504583333,
          "velocity": 0.7874015748031497
        },
        {
          "duration": 0.06849300000000369,
          "durationTicks": 120,
          "midi": 37,
          "name": "C#2",
          "ticks": 84240,
          "time": 59.16830104583333,
          "velocity": 0.7874015748031497
        },
        {
          "duration": 0.06849299999999658,
          "durationTicks": 120,
          "midi": 25,
          "name": "C#1",
          "ticks": 84480,
          "time": 59.30528704583333,
          "velocity": 0.7874015748031497
        },
        {
          "duration": 0.06849299999999658,
          "durationTicks": 120,
          "midi": 37,
          "name": "C#2",
          "ticks": 84720,
          "time": 59.44227304583333,
          "velocity": 0.7874015748031497
        },
        {
          "duration": 0.06849299999999658,
          "durationTicks": 120,
          "midi": 26,
          "name": "D1",
          "ticks": 84960,
          "time": 59.57925904583333,
          "velocity": 0.7874015748031497
        },
        {
          "duration": 0.06849299999999658,
          "durationTicks": 120,
          "midi": 38,
          "name": "D2",
          "ticks": 85200,
          "time": 59.71624504583333,
          "velocity": 0.7874015748031497
        },
        {
          "duration": 0.06849299999999658,
          "durationTicks": 120,
          "midi": 26,
          "name": "D1",
          "ticks": 85440,
          "time": 59.85323104583333,
          "velocity": 0.7874015748031497
        },
        {
          "duration": 0.06849299999999658,
          "durationTicks": 120,
          "midi": 38,
          "name": "D2",
          "ticks": 85680,
          "time": 59.99021704583333,
          "velocity": 0.7874015748031497
        },
        {
          "duration": 0.06849299999999658,
          "durationTicks": 120,
          "midi": 26,
          "name": "D1",
          "ticks": 85920,
          "time": 60.12720304583333,
          "velocity": 0.7874015748031497
        },
        {
          "duration": 0.06849299999999658,
          "durationTicks": 120,
          "midi": 38,
          "name": "D2",
          "ticks": 86160,
          "time": 60.264189045833334,
          "velocity": 0.7874015748031497
        },
        {
          "duration": 0.06849299999999658,
          "durationTicks": 120,
          "midi": 26,
          "name": "D1",
          "ticks": 86400,
          "time": 60.401175045833334,
          "velocity": 0.7874015748031497
        },
        {
          "duration": 0.27397200000000055,
          "durationTicks": 480,
          "midi": 27,
          "name": "D#1",
          "ticks": 86640,
          "time": 60.538161045833334,
          "velocity": 0.7874015748031497
        },
        {
          "duration": 0.06849299999999658,
          "durationTicks": 120,
          "midi": 39,
          "name": "D#2",
          "ticks": 87120,
          "time": 60.812133045833335,
          "velocity": 0.7874015748031497
        },
        {
          "duration": 0.06849300000000369,
          "durationTicks": 120,
          "midi": 27,
          "name": "D#1",
          "ticks": 87360,
          "time": 60.94911904583333,
          "velocity": 0.7874015748031497
        },
        {
          "duration": 0.06849299999999658,
          "durationTicks": 120,
          "midi": 39,
          "name": "D#2",
          "ticks": 87600,
          "time": 61.086105045833335,
          "velocity": 0.7874015748031497
        },
        {
          "duration": 0.06849300000000369,
          "durationTicks": 120,
          "midi": 28,
          "name": "E1",
          "ticks": 87840,
          "time": 61.22309104583333,
          "velocity": 0.7874015748031497
        },
        {
          "duration": 0.06849300000000369,
          "durationTicks": 120,
          "midi": 40,
          "name": "E2",
          "ticks": 88080,
          "time": 61.36007704583333,
          "velocity": 0.7874015748031497
        },
        {
          "duration": 0.06849300000000369,
          "durationTicks": 120,
          "midi": 28,
          "name": "E1",
          "ticks": 88320,
          "time": 61.49706304583333,
          "velocity": 0.7874015748031497
        },
        {
          "duration": 0.06849300000000369,
          "durationTicks": 120,
          "midi": 40,
          "name": "E2",
          "ticks": 88560,
          "time": 61.63404904583333,
          "velocity": 0.7874015748031497
        },
        {
          "duration": 0.06849300000000369,
          "durationTicks": 120,
          "midi": 32,
          "name": "G#1",
          "ticks": 88800,
          "time": 61.77103504583333,
          "velocity": 0.7874015748031497
        },
        {
          "duration": 0.06849300000000369,
          "durationTicks": 120,
          "midi": 44,
          "name": "G#2",
          "ticks": 89040,
          "time": 61.90802104583333,
          "velocity": 0.7874015748031497
        },
        {
          "duration": 0.06849300000000369,
          "durationTicks": 120,
          "midi": 32,
          "name": "G#1",
          "ticks": 89280,
          "time": 62.04500704583333,
          "velocity": 0.7874015748031497
        },
        {
          "duration": 0.06849300000000369,
          "durationTicks": 120,
          "midi": 44,
          "name": "G#2",
          "ticks": 89520,
          "time": 62.18199304583333,
          "velocity": 0.7874015748031497
        },
        {
          "duration": 0.06849300000000369,
          "durationTicks": 120,
          "midi": 30,
          "name": "F#1",
          "ticks": 89760,
          "time": 62.31897904583333,
          "velocity": 0.7874015748031497
        },
        {
          "duration": 0.06849300000000369,
          "durationTicks": 120,
          "midi": 42,
          "name": "F#2",
          "ticks": 90000,
          "time": 62.45596504583333,
          "velocity": 0.7874015748031497
        },
        {
          "duration": 0.06849300000000369,
          "durationTicks": 120,
          "midi": 30,
          "name": "F#1",
          "ticks": 90240,
          "time": 62.59295104583333,
          "velocity": 0.7874015748031497
        },
        {
          "duration": 0.27397200000000055,
          "durationTicks": 480,
          "midi": 28,
          "name": "E1",
          "ticks": 90480,
          "time": 62.72993704583333,
          "velocity": 0.7874015748031497
        },
        {
          "duration": 0.06849299999999658,
          "durationTicks": 120,
          "midi": 40,
          "name": "E2",
          "ticks": 90960,
          "time": 63.00390904583333,
          "velocity": 0.7874015748031497
        },
        {
          "duration": 0.06849299999999658,
          "durationTicks": 120,
          "midi": 28,
          "name": "E1",
          "ticks": 91200,
          "time": 63.14089504583333,
          "velocity": 0.7874015748031497
        },
        {
          "duration": 0.06849299999999658,
          "durationTicks": 120,
          "midi": 40,
          "name": "E2",
          "ticks": 91440,
          "time": 63.27788104583333,
          "velocity": 0.7874015748031497
        },
        {
          "duration": 0.06849299999999658,
          "durationTicks": 120,
          "midi": 25,
          "name": "C#1",
          "ticks": 91680,
          "time": 63.41486704583333,
          "velocity": 0.7874015748031497
        },
        {
          "duration": 0.06849299999999658,
          "durationTicks": 120,
          "midi": 37,
          "name": "C#2",
          "ticks": 91920,
          "time": 63.55185304583333,
          "velocity": 0.7874015748031497
        },
        {
          "duration": 0.06849299999999658,
          "durationTicks": 120,
          "midi": 25,
          "name": "C#1",
          "ticks": 92160,
          "time": 63.68883904583333,
          "velocity": 0.7874015748031497
        },
        {
          "duration": 0.06849299999999658,
          "durationTicks": 120,
          "midi": 37,
          "name": "C#2",
          "ticks": 92400,
          "time": 63.825825045833334,
          "velocity": 0.7874015748031497
        },
        {
          "duration": 0.06849300000000369,
          "durationTicks": 120,
          "midi": 30,
          "name": "F#1",
          "ticks": 92640,
          "time": 63.962811045833334,
          "velocity": 0.7874015748031497
        },
        {
          "duration": 0.06849300000000369,
          "durationTicks": 120,
          "midi": 42,
          "name": "F#2",
          "ticks": 92880,
          "time": 64.09979704583333,
          "velocity": 0.7874015748031497
        },
        {
          "duration": 0.06849299999998948,
          "durationTicks": 120,
          "midi": 30,
          "name": "F#1",
          "ticks": 93120,
          "time": 64.23678304583333,
          "velocity": 0.7874015748031497
        },
        {
          "duration": 0.06849300000000369,
          "durationTicks": 120,
          "midi": 30,
          "name": "F#1",
          "ticks": 93360,
          "time": 64.37376904583333,
          "velocity": 0.7874015748031497
        },
        {
          "duration": 0.06849300000000369,
          "durationTicks": 120,
          "midi": 30,
          "name": "F#1",
          "ticks": 93600,
          "time": 64.51075504583333,
          "velocity": 0.7874015748031497
        },
        {
          "duration": 0.06849300000000369,
          "durationTicks": 120,
          "midi": 30,
          "name": "F#1",
          "ticks": 93840,
          "time": 64.64774104583333,
          "velocity": 0.7874015748031497
        },
        {
          "duration": 0.06849299999998948,
          "durationTicks": 120,
          "midi": 30,
          "name": "F#1",
          "ticks": 94080,
          "time": 64.78472704583334,
          "velocity": 0.7874015748031497
        },
        {
          "duration": 0.27397200000000055,
          "durationTicks": 480,
          "midi": 23,
          "name": "B0",
          "ticks": 94320,
          "time": 64.92171304583333,
          "velocity": 0.7874015748031497
        },
        {
          "duration": 0.06849300000000369,
          "durationTicks": 120,
          "midi": 35,
          "name": "B1",
          "ticks": 94800,
          "time": 65.19568504583333,
          "velocity": 0.7874015748031497
        },
        {
          "duration": 0.06849299999998948,
          "durationTicks": 120,
          "midi": 23,
          "name": "B0",
          "ticks": 95040,
          "time": 65.33267104583334,
          "velocity": 0.7874015748031497
        },
        {
          "duration": 0.06849300000000369,
          "durationTicks": 120,
          "midi": 35,
          "name": "B1",
          "ticks": 95280,
          "time": 65.46965704583333,
          "velocity": 0.7874015748031497
        },
        {
          "duration": 0.06849299999998948,
          "durationTicks": 120,
          "midi": 23,
          "name": "B0",
          "ticks": 95520,
          "time": 65.60664304583334,
          "velocity": 0.7874015748031497
        },
        {
          "duration": 0.06849300000000369,
          "durationTicks": 120,
          "midi": 35,
          "name": "B1",
          "ticks": 95760,
          "time": 65.74362904583333,
          "velocity": 0.7874015748031497
        },
        {
          "duration": 0.06849299999998948,
          "durationTicks": 120,
          "midi": 23,
          "name": "B0",
          "ticks": 96000,
          "time": 65.88061504583334,
          "velocity": 0.7874015748031497
        },
        {
          "duration": 0.06849300000000369,
          "durationTicks": 120,
          "midi": 35,
          "name": "B1",
          "ticks": 96240,
          "time": 66.01760104583333,
          "velocity": 0.7874015748031497
        },
        {
          "duration": 0.06849300000000369,
          "durationTicks": 120,
          "midi": 24,
          "name": "C1",
          "ticks": 96480,
          "time": 66.15458704583332,
          "velocity": 0.7874015748031497
        },
        {
          "duration": 0.06849300000000369,
          "durationTicks": 120,
          "midi": 36,
          "name": "C2",
          "ticks": 96720,
          "time": 66.29157304583333,
          "velocity": 0.7874015748031497
        },
        {
          "duration": 0.06849299999998948,
          "durationTicks": 120,
          "midi": 24,
          "name": "C1",
          "ticks": 96960,
          "time": 66.42855904583334,
          "velocity": 0.7874015748031497
        },
        {
          "duration": 0.06849300000000369,
          "durationTicks": 120,
          "midi": 36,
          "name": "C2",
          "ticks": 97200,
          "time": 66.56554504583333,
          "velocity": 0.7874015748031497
        },
        {
          "duration": 0.06849300000000369,
          "durationTicks": 120,
          "midi": 24,
          "name": "C1",
          "ticks": 97440,
          "time": 66.70253104583333,
          "velocity": 0.7874015748031497
        },
        {
          "duration": 0.06849300000000369,
          "durationTicks": 120,
          "midi": 36,
          "name": "C2",
          "ticks": 97680,
          "time": 66.83951704583333,
          "velocity": 0.7874015748031497
        },
        {
          "duration": 0.06849300000000369,
          "durationTicks": 120,
          "midi": 24,
          "name": "C1",
          "ticks": 97920,
          "time": 66.97650304583333,
          "velocity": 0.7874015748031497
        },
        {
          "duration": 0.27397200000000055,
          "durationTicks": 480,
          "midi": 25,
          "name": "C#1",
          "ticks": 98160,
          "time": 67.11348904583333,
          "velocity": 0.7874015748031497
        },
        {
          "duration": 0.06849300000000369,
          "durationTicks": 120,
          "midi": 37,
          "name": "C#2",
          "ticks": 98640,
          "time": 67.38746104583333,
          "velocity": 0.7874015748031497
        },
        {
          "duration": 0.06849300000000369,
          "durationTicks": 120,
          "midi": 25,
          "name": "C#1",
          "ticks": 98880,
          "time": 67.52444704583333,
          "velocity": 0.7874015748031497
        },
        {
          "duration": 0.06849300000000369,
          "durationTicks": 120,
          "midi": 37,
          "name": "C#2",
          "ticks": 99120,
          "time": 67.66143304583333,
          "velocity": 0.7874015748031497
        },
        {
          "duration": 0.06849300000000369,
          "durationTicks": 120,
          "midi": 25,
          "name": "C#1",
          "ticks": 99360,
          "time": 67.79841904583333,
          "velocity": 0.7874015748031497
        },
        {
          "duration": 0.06849299999998948,
          "durationTicks": 120,
          "midi": 37,
          "name": "C#2",
          "ticks": 99600,
          "time": 67.93540504583333,
          "velocity": 0.7874015748031497
        },
        {
          "duration": 0.06849300000000369,
          "durationTicks": 120,
          "midi": 25,
          "name": "C#1",
          "ticks": 99840,
          "time": 68.07239104583333,
          "velocity": 0.7874015748031497
        },
        {
          "duration": 0.06849300000000369,
          "durationTicks": 120,
          "midi": 37,
          "name": "C#2",
          "ticks": 100080,
          "time": 68.20937704583334,
          "velocity": 0.7874015748031497
        },
        {
          "duration": 0.06849300000000369,
          "durationTicks": 120,
          "midi": 26,
          "name": "D1",
          "ticks": 100320,
          "time": 68.34636304583333,
          "velocity": 0.7874015748031497
        },
        {
          "duration": 0.06849299999998948,
          "durationTicks": 120,
          "midi": 38,
          "name": "D2",
          "ticks": 100560,
          "time": 68.48334904583334,
          "velocity": 0.7874015748031497
        },
        {
          "duration": 0.06849300000000369,
          "durationTicks": 120,
          "midi": 26,
          "name": "D1",
          "ticks": 100800,
          "time": 68.62033504583333,
          "velocity": 0.7874015748031497
        },
        {
          "duration": 0.06849299999998948,
          "durationTicks": 120,
          "midi": 38,
          "name": "D2",
          "ticks": 101040,
          "time": 68.75732104583334,
          "velocity": 0.7874015748031497
        },
        {
          "duration": 0.06849300000000369,
          "durationTicks": 120,
          "midi": 26,
          "name": "D1",
          "ticks": 101280,
          "time": 68.89430704583333,
          "velocity": 0.7874015748031497
        },
        {
          "duration": 0.06849299999998948,
          "durationTicks": 120,
          "midi": 38,
          "name": "D2",
          "ticks": 101520,
          "time": 69.03129304583334,
          "velocity": 0.7874015748031497
        },
        {
          "duration": 0.06849300000000369,
          "durationTicks": 120,
          "midi": 26,
          "name": "D1",
          "ticks": 101760,
          "time": 69.16827904583333,
          "velocity": 0.7874015748031497
        },
        {
          "duration": 0.27397200000000055,
          "durationTicks": 480,
          "midi": 27,
          "name": "D#1",
          "ticks": 102000,
          "time": 69.30526504583334,
          "velocity": 0.7874015748031497
        },
        {
          "duration": 0.06849299999998948,
          "durationTicks": 120,
          "midi": 39,
          "name": "D#2",
          "ticks": 102480,
          "time": 69.57923704583334,
          "velocity": 0.7874015748031497
        },
        {
          "duration": 0.06849300000000369,
          "durationTicks": 120,
          "midi": 27,
          "name": "D#1",
          "ticks": 102720,
          "time": 69.71622304583333,
          "velocity": 0.7874015748031497
        },
        {
          "duration": 0.06849300000000369,
          "durationTicks": 120,
          "midi": 39,
          "name": "D#2",
          "ticks": 102960,
          "time": 69.85320904583332,
          "velocity": 0.7874015748031497
        },
        {
          "duration": 0.06849300000000369,
          "durationTicks": 120,
          "midi": 28,
          "name": "E1",
          "ticks": 103200,
          "time": 69.99019504583333,
          "velocity": 0.7874015748031497
        },
        {
          "duration": 0.06849299999998948,
          "durationTicks": 120,
          "midi": 40,
          "name": "E2",
          "ticks": 103440,
          "time": 70.12718104583334,
          "velocity": 0.7874015748031497
        },
        {
          "duration": 0.06849300000000369,
          "durationTicks": 120,
          "midi": 28,
          "name": "E1",
          "ticks": 103680,
          "time": 70.26416704583333,
          "velocity": 0.7874015748031497
        },
        {
          "duration": 0.06849300000000369,
          "durationTicks": 120,
          "midi": 40,
          "name": "E2",
          "ticks": 103920,
          "time": 70.40115304583333,
          "velocity": 0.7874015748031497
        },
        {
          "duration": 0.06849300000000369,
          "durationTicks": 120,
          "midi": 32,
          "name": "G#1",
          "ticks": 104160,
          "time": 70.53813904583333,
          "velocity": 0.7874015748031497
        },
        {
          "duration": 0.06849300000000369,
          "durationTicks": 120,
          "midi": 44,
          "name": "G#2",
          "ticks": 104400,
          "time": 70.67512504583333,
          "velocity": 0.7874015748031497
        },
        {
          "duration": 0.06849300000000369,
          "durationTicks": 120,
          "midi": 32,
          "name": "G#1",
          "ticks": 104640,
          "time": 70.81211104583333,
          "velocity": 0.7874015748031497
        },
        {
          "duration": 0.06849300000000369,
          "durationTicks": 120,
          "midi": 44,
          "name": "G#2",
          "ticks": 104880,
          "time": 70.94909704583333,
          "velocity": 0.7874015748031497
        },
        {
          "duration": 0.06849299999998948,
          "durationTicks": 120,
          "midi": 30,
          "name": "F#1",
          "ticks": 105120,
          "time": 71.08608304583333,
          "velocity": 0.7874015748031497
        },
        {
          "duration": 0.06849300000000369,
          "durationTicks": 120,
          "midi": 42,
          "name": "F#2",
          "ticks": 105360,
          "time": 71.22306904583333,
          "velocity": 0.7874015748031497
        },
        {
          "duration": 0.06849300000000369,
          "durationTicks": 120,
          "midi": 30,
          "name": "F#1",
          "ticks": 105600,
          "time": 71.36005504583333,
          "velocity": 0.7874015748031497
        },
        {
          "duration": 0.27397200000000055,
          "durationTicks": 480,
          "midi": 28,
          "name": "E1",
          "ticks": 105840,
          "time": 71.49704104583333,
          "velocity": 0.7874015748031497
        },
        {
          "duration": 0.06849300000000369,
          "durationTicks": 120,
          "midi": 40,
          "name": "E2",
          "ticks": 106320,
          "time": 71.77101304583333,
          "velocity": 0.7874015748031497
        },
        {
          "duration": 0.06849300000000369,
          "durationTicks": 120,
          "midi": 28,
          "name": "E1",
          "ticks": 106560,
          "time": 71.90799904583334,
          "velocity": 0.7874015748031497
        },
        {
          "duration": 0.06849300000000369,
          "durationTicks": 120,
          "midi": 40,
          "name": "E2",
          "ticks": 106800,
          "time": 72.04498504583333,
          "velocity": 0.7874015748031497
        },
        {
          "duration": 0.06849299999998948,
          "durationTicks": 120,
          "midi": 25,
          "name": "C#1",
          "ticks": 107040,
          "time": 72.18197104583334,
          "velocity": 0.7874015748031497
        },
        {
          "duration": 0.06849300000000369,
          "durationTicks": 120,
          "midi": 37,
          "name": "C#2",
          "ticks": 107280,
          "time": 72.31895704583333,
          "velocity": 0.7874015748031497
        },
        {
          "duration": 0.06849300000000369,
          "durationTicks": 120,
          "midi": 25,
          "name": "C#1",
          "ticks": 107520,
          "time": 72.45594304583332,
          "velocity": 0.7874015748031497
        },
        {
          "duration": 0.06849300000000369,
          "durationTicks": 120,
          "midi": 37,
          "name": "C#2",
          "ticks": 107760,
          "time": 72.59292904583333,
          "velocity": 0.7874015748031497
        },
        {
          "duration": 0.06849299999998948,
          "durationTicks": 120,
          "midi": 28,
          "name": "E1",
          "ticks": 108000,
          "time": 72.72991504583334,
          "velocity": 0.7874015748031497
        },
        {
          "duration": 0.06849300000000369,
          "durationTicks": 120,
          "midi": 40,
          "name": "E2",
          "ticks": 108240,
          "time": 72.86690104583333,
          "velocity": 0.7874015748031497
        },
        {
          "duration": 0.06849300000000369,
          "durationTicks": 120,
          "midi": 28,
          "name": "E1",
          "ticks": 108480,
          "time": 73.00388704583332,
          "velocity": 0.7874015748031497
        },
        {
          "duration": 0.06849300000000369,
          "durationTicks": 120,
          "midi": 40,
          "name": "E2",
          "ticks": 108720,
          "time": 73.14087304583333,
          "velocity": 0.7874015748031497
        },
        {
          "duration": 0.13698599999999317,
          "durationTicks": 240,
          "midi": 35,
          "name": "B1",
          "ticks": 108960,
          "time": 73.27785904583334,
          "velocity": 0.7874015748031497
        },
        {
          "duration": 0.16393399999999758,
          "durationTicks": 240,
          "midi": 36,
          "name": "C2",
          "ticks": 113760,
          "time": 76.34201404583335,
          "velocity": 0.7874015748031497
        },
        {
          "duration": 0.1598356500000051,
          "durationTicks": 234,
          "midi": 31,
          "name": "G1",
          "ticks": 114720,
          "time": 76.99775004583334,
          "velocity": 0.7874015748031497
        },
        {
          "duration": 0.16393399999999758,
          "durationTicks": 240,
          "midi": 31,
          "name": "G1",
          "ticks": 115680,
          "time": 77.65348604583335,
          "velocity": 0.7874015748031497
        },
        {
          "duration": 0.16393399999999758,
          "durationTicks": 240,
          "midi": 31,
          "name": "G1",
          "ticks": 116640,
          "time": 78.30922204583335,
          "velocity": 0.7874015748031497
        },
        {
          "duration": 0.1639340000000118,
          "durationTicks": 240,
          "midi": 36,
          "name": "C2",
          "ticks": 117600,
          "time": 78.96495804583334,
          "velocity": 0.7874015748031497
        },
        {
          "duration": 0.1598356500000051,
          "durationTicks": 234,
          "midi": 31,
          "name": "G1",
          "ticks": 118560,
          "time": 79.62069404583335,
          "velocity": 0.7874015748031497
        },
        {
          "duration": 0.16393399999999758,
          "durationTicks": 240,
          "midi": 31,
          "name": "G1",
          "ticks": 119520,
          "time": 80.27643004583335,
          "velocity": 0.7874015748031497
        },
        {
          "duration": 0.1639340000000118,
          "durationTicks": 240,
          "midi": 31,
          "name": "G1",
          "ticks": 120480,
          "time": 80.93216604583334,
          "velocity": 0.7874015748031497
        },
        {
          "duration": 0.16393399999999758,
          "durationTicks": 240,
          "midi": 39,
          "name": "D#2",
          "ticks": 121440,
          "time": 81.58790204583335,
          "velocity": 0.7874015748031497
        },
        {
          "duration": 0.16393399999999758,
          "durationTicks": 240,
          "midi": 34,
          "name": "A#1",
          "ticks": 122400,
          "time": 82.24363804583335,
          "velocity": 0.7874015748031497
        },
        {
          "duration": 0.16393399999999758,
          "durationTicks": 240,
          "midi": 34,
          "name": "A#1",
          "ticks": 123360,
          "time": 82.89937404583335,
          "velocity": 0.7874015748031497
        },
        {
          "duration": 0.16393399999999758,
          "durationTicks": 240,
          "midi": 34,
          "name": "A#1",
          "ticks": 124320,
          "time": 83.55511004583335,
          "velocity": 0.7874015748031497
        },
        {
          "duration": 0.16393399999999758,
          "durationTicks": 240,
          "midi": 39,
          "name": "D#2",
          "ticks": 125280,
          "time": 84.21084604583335,
          "velocity": 0.7874015748031497
        },
        {
          "duration": 0.16393399999999758,
          "durationTicks": 240,
          "midi": 34,
          "name": "A#1",
          "ticks": 126240,
          "time": 84.86658204583335,
          "velocity": 0.7874015748031497
        },
        {
          "duration": 0.16393399999999758,
          "durationTicks": 240,
          "midi": 34,
          "name": "A#1",
          "ticks": 127200,
          "time": 85.52231804583334,
          "velocity": 0.7874015748031497
        },
        {
          "duration": 0.16393399999999758,
          "durationTicks": 240,
          "midi": 34,
          "name": "A#1",
          "ticks": 128160,
          "time": 86.17805404583335,
          "velocity": 0.7874015748031497
        },
        {
          "duration": 0.16393399999999758,
          "durationTicks": 240,
          "midi": 36,
          "name": "C2",
          "ticks": 129120,
          "time": 86.83379004583335,
          "velocity": 0.7874015748031497
        },
        {
          "duration": 0.1598356500000051,
          "durationTicks": 234,
          "midi": 31,
          "name": "G1",
          "ticks": 130080,
          "time": 87.48952604583334,
          "velocity": 0.7874015748031497
        },
        {
          "duration": 0.16393399999999758,
          "durationTicks": 240,
          "midi": 31,
          "name": "G1",
          "ticks": 131040,
          "time": 88.14526204583335,
          "velocity": 0.7874015748031497
        },
        {
          "duration": 0.16393399999999758,
          "durationTicks": 240,
          "midi": 31,
          "name": "G1",
          "ticks": 132000,
          "time": 88.80099804583335,
          "velocity": 0.7874015748031497
        },
        {
          "duration": 0.1639340000000118,
          "durationTicks": 240,
          "midi": 36,
          "name": "C2",
          "ticks": 132960,
          "time": 89.45673404583334,
          "velocity": 0.7874015748031497
        },
        {
          "duration": 0.1598356500000051,
          "durationTicks": 234,
          "midi": 31,
          "name": "G1",
          "ticks": 133920,
          "time": 90.11247004583335,
          "velocity": 0.7874015748031497
        },
        {
          "duration": 0.16393399999999758,
          "durationTicks": 240,
          "midi": 31,
          "name": "G1",
          "ticks": 134880,
          "time": 90.76820604583335,
          "velocity": 0.7874015748031497
        },
        {
          "duration": 0.1639340000000118,
          "durationTicks": 240,
          "midi": 31,
          "name": "G1",
          "ticks": 135840,
          "time": 91.42394204583334,
          "velocity": 0.7874015748031497
        },
        {
          "duration": 0.16393399999999758,
          "durationTicks": 240,
          "midi": 39,
          "name": "D#2",
          "ticks": 136800,
          "time": 92.07967804583335,
          "velocity": 0.7874015748031497
        },
        {
          "duration": 0.16393399999999758,
          "durationTicks": 240,
          "midi": 34,
          "name": "A#1",
          "ticks": 137760,
          "time": 92.73541404583335,
          "velocity": 0.7874015748031497
        },
        {
          "duration": 0.1639340000000118,
          "durationTicks": 240,
          "midi": 34,
          "name": "A#1",
          "ticks": 138720,
          "time": 93.39115004583334,
          "velocity": 0.7874015748031497
        },
        {
          "duration": 0.16393399999999758,
          "durationTicks": 240,
          "midi": 34,
          "name": "A#1",
          "ticks": 139680,
          "time": 94.04688604583335,
          "velocity": 0.7874015748031497
        },
        {
          "duration": 0.16393399999999758,
          "durationTicks": 240,
          "midi": 39,
          "name": "D#2",
          "ticks": 140640,
          "time": 94.70262204583335,
          "velocity": 0.7874015748031497
        },
        {
          "duration": 0.1639340000000118,
          "durationTicks": 240,
          "midi": 34,
          "name": "A#1",
          "ticks": 141600,
          "time": 95.35835804583334,
          "velocity": 0.7874015748031497
        },
        {
          "duration": 0.16393399999999758,
          "durationTicks": 240,
          "midi": 34,
          "name": "A#1",
          "ticks": 142560,
          "time": 96.01409404583335,
          "velocity": 0.7874015748031497
        },
        {
          "duration": 0.16393399999999758,
          "durationTicks": 240,
          "midi": 34,
          "name": "A#1",
          "ticks": 143520,
          "time": 96.66983004583335,
          "velocity": 0.7874015748031497
        },
        {
          "duration": 0.3278680000000094,
          "durationTicks": 480,
          "midi": 34,
          "name": "A#1",
          "ticks": 144480,
          "time": 97.32556604583334,
          "velocity": 0.7874015748031497
        },
        {
          "duration": 0.05942607499999042,
          "durationTicks": 87,
          "midi": 34,
          "name": "A#1",
          "ticks": 144960,
          "time": 97.65343404583335,
          "velocity": 0.7874015748031497
        },
        {
          "duration": 0.05942607499999042,
          "durationTicks": 87,
          "midi": 34,
          "name": "A#1",
          "ticks": 145120,
          "time": 97.76272337916669,
          "velocity": 0.7874015748031497
        },
        {
          "duration": 0.05942607500000463,
          "durationTicks": 87,
          "midi": 34,
          "name": "A#1",
          "ticks": 145280,
          "time": 97.87201271250001,
          "velocity": 0.7874015748031497
        },
        {
          "duration": 0.05942607500000463,
          "durationTicks": 87,
          "midi": 34,
          "name": "A#1",
          "ticks": 145440,
          "time": 97.98130204583335,
          "velocity": 0.7874015748031497
        },
        {
          "duration": 0.05942607500000463,
          "durationTicks": 87,
          "midi": 34,
          "name": "A#1",
          "ticks": 145600,
          "time": 98.09059137916668,
          "velocity": 0.7874015748031497
        },
        {
          "duration": 0.05942607499999042,
          "durationTicks": 87,
          "midi": 34,
          "name": "A#1",
          "ticks": 145760,
          "time": 98.19988071250002,
          "velocity": 0.7874015748031497
        },
        {
          "duration": 0.16393399999999758,
          "durationTicks": 240,
          "midi": 36,
          "name": "C2",
          "ticks": 146400,
          "time": 98.63703804583335,
          "velocity": 0.7874015748031497
        },
        {
          "duration": 0.1598356500000051,
          "durationTicks": 234,
          "midi": 31,
          "name": "G1",
          "ticks": 147360,
          "time": 99.29277404583334,
          "velocity": 0.7874015748031497
        },
        {
          "duration": 0.16393399999999758,
          "durationTicks": 240,
          "midi": 31,
          "name": "G1",
          "ticks": 148320,
          "time": 99.94851004583334,
          "velocity": 0.7874015748031497
        },
        {
          "duration": 0.16393399999999758,
          "durationTicks": 240,
          "midi": 31,
          "name": "G1",
          "ticks": 149280,
          "time": 100.60424604583335,
          "velocity": 0.7874015748031497
        },
        {
          "duration": 0.1639340000000118,
          "durationTicks": 240,
          "midi": 36,
          "name": "C2",
          "ticks": 150240,
          "time": 101.25998204583334,
          "velocity": 0.7874015748031497
        },
        {
          "duration": 0.1598356500000051,
          "durationTicks": 234,
          "midi": 31,
          "name": "G1",
          "ticks": 151200,
          "time": 101.91571804583334,
          "velocity": 0.7874015748031497
        },
        {
          "duration": 0.16393399999999758,
          "durationTicks": 240,
          "midi": 31,
          "name": "G1",
          "ticks": 152160,
          "time": 102.57145404583335,
          "velocity": 0.7874015748031497
        },
        {
          "duration": 0.1639340000000118,
          "durationTicks": 240,
          "midi": 31,
          "name": "G1",
          "ticks": 153120,
          "time": 103.22719004583334,
          "velocity": 0.7874015748031497
        },
        {
          "duration": 0.16393399999999758,
          "durationTicks": 240,
          "midi": 39,
          "name": "D#2",
          "ticks": 154080,
          "time": 103.88292604583334,
          "velocity": 0.7874015748031497
        },
        {
          "duration": 0.16393399999999758,
          "durationTicks": 240,
          "midi": 34,
          "name": "A#1",
          "ticks": 155040,
          "time": 104.53866204583335,
          "velocity": 0.7874015748031497
        },
        {
          "duration": 0.1639340000000118,
          "durationTicks": 240,
          "midi": 34,
          "name": "A#1",
          "ticks": 156000,
          "time": 105.19439804583334,
          "velocity": 0.7874015748031497
        },
        {
          "duration": 0.16393399999999758,
          "durationTicks": 240,
          "midi": 34,
          "name": "A#1",
          "ticks": 156960,
          "time": 105.85013404583334,
          "velocity": 0.7874015748031497
        },
        {
          "duration": 0.16393399999999758,
          "durationTicks": 240,
          "midi": 39,
          "name": "D#2",
          "ticks": 157920,
          "time": 106.50587004583335,
          "velocity": 0.7874015748031497
        },
        {
          "duration": 0.1639340000000118,
          "durationTicks": 240,
          "midi": 34,
          "name": "A#1",
          "ticks": 158880,
          "time": 107.16160604583334,
          "velocity": 0.7874015748031497
        },
        {
          "duration": 0.16393399999998337,
          "durationTicks": 240,
          "midi": 34,
          "name": "A#1",
          "ticks": 159840,
          "time": 107.81734204583336,
          "velocity": 0.7874015748031497
        },
        {
          "duration": 0.16393399999999758,
          "durationTicks": 240,
          "midi": 34,
          "name": "A#1",
          "ticks": 160800,
          "time": 108.47307804583335,
          "velocity": 0.7874015748031497
        },
        {
          "duration": 0.08196700000002011,
          "durationTicks": 120,
          "midi": 30,
          "name": "F#1",
          "ticks": 164640,
          "time": 111.09602204583334,
          "velocity": 0.7874015748031497
        },
        {
          "duration": 0.08196699999999169,
          "durationTicks": 120,
          "midi": 30,
          "name": "F#1",
          "ticks": 164880,
          "time": 111.25995604583335,
          "velocity": 0.7874015748031497
        },
        {
          "duration": 0.0819670000000059,
          "durationTicks": 120,
          "midi": 30,
          "name": "F#1",
          "ticks": 165120,
          "time": 111.42389004583335,
          "velocity": 0.7874015748031497
        },
        {
          "duration": 0.40983500000000106,
          "durationTicks": 600,
          "midi": 23,
          "name": "B0",
          "ticks": 165360,
          "time": 111.58782404583334,
          "velocity": 0.7874015748031497
        },
        {
          "duration": 0.24590100000000348,
          "durationTicks": 360,
          "midi": 30,
          "name": "F#1",
          "ticks": 166560,
          "time": 112.40749404583335,
          "velocity": 0.7874015748031497
        },
        {
          "duration": 0.24590099999998927,
          "durationTicks": 360,
          "midi": 24,
          "name": "C1",
          "ticks": 167520,
          "time": 113.06323004583335,
          "velocity": 0.7874015748031497
        },
        {
          "duration": 0.24590099999998927,
          "durationTicks": 360,
          "midi": 30,
          "name": "F#1",
          "ticks": 168480,
          "time": 113.71896604583335,
          "velocity": 0.7874015748031497
        },
        {
          "duration": 0.40983500000000106,
          "durationTicks": 600,
          "midi": 25,
          "name": "C#1",
          "ticks": 169200,
          "time": 114.21076804583335,
          "velocity": 0.7874015748031497
        },
        {
          "duration": 0.0819670000000059,
          "durationTicks": 120,
          "midi": 32,
          "name": "G#1",
          "ticks": 170400,
          "time": 115.03043804583335,
          "velocity": 0.7874015748031497
        },
        {
          "duration": 0.06382974999999647,
          "durationTicks": 120,
          "midi": 32,
          "name": "G#1",
          "ticks": 175200,
          "time": 118.64049004583336,
          "velocity": 0.7874015748031497
        },
        {
          "duration": 0.06382974999999647,
          "durationTicks": 120,
          "midi": 32,
          "name": "G#1",
          "ticks": 175680,
          "time": 118.89580904583336,
          "velocity": 0.7874015748031497
        },
        {
          "duration": 0.05882350000000258,
          "durationTicks": 120,
          "midi": 32,
          "name": "G#1",
          "ticks": 176160,
          "time": 119.15112804583336,
          "velocity": 0.7874015748031497
        },
        {
          "duration": 0.05882349999998837,
          "durationTicks": 120,
          "midi": 32,
          "name": "G#1",
          "ticks": 176400,
          "time": 119.26877504583337,
          "velocity": 0.7874015748031497
        },
        {
          "duration": 0.05882350000000258,
          "durationTicks": 120,
          "midi": 32,
          "name": "G#1",
          "ticks": 176640,
          "time": 119.38642204583336,
          "velocity": 0.7874015748031497
        },
        {
          "duration": 0.2181810000000013,
          "durationTicks": 480,
          "midi": 25,
          "name": "C#1",
          "ticks": 176880,
          "time": 119.50406904583336,
          "velocity": 0.7874015748031497
        },
        {
          "duration": 0.054545250000003875,
          "durationTicks": 120,
          "midi": 37,
          "name": "C#2",
          "ticks": 177360,
          "time": 119.72225004583336,
          "velocity": 0.7874015748031497
        },
        {
          "duration": 0.054545250000003875,
          "durationTicks": 120,
          "midi": 25,
          "name": "C#1",
          "ticks": 177600,
          "time": 119.83134054583336,
          "velocity": 0.7874015748031497
        },
        {
          "duration": 0.054545250000003875,
          "durationTicks": 120,
          "midi": 37,
          "name": "C#2",
          "ticks": 177840,
          "time": 119.94043104583336,
          "velocity": 0.7874015748031497
        },
        {
          "duration": 0.054545250000003875,
          "durationTicks": 120,
          "midi": 25,
          "name": "C#1",
          "ticks": 178080,
          "time": 120.04952154583336,
          "velocity": 0.7874015748031497
        },
        {
          "duration": 0.054545249999989665,
          "durationTicks": 120,
          "midi": 37,
          "name": "C#2",
          "ticks": 178320,
          "time": 120.15861204583337,
          "velocity": 0.7874015748031497
        },
        {
          "duration": 0.054545250000003875,
          "durationTicks": 120,
          "midi": 25,
          "name": "C#1",
          "ticks": 178560,
          "time": 120.26770254583336,
          "velocity": 0.7874015748031497
        },
        {
          "duration": 0.054545249999989665,
          "durationTicks": 120,
          "midi": 37,
          "name": "C#2",
          "ticks": 178800,
          "time": 120.37679304583337,
          "velocity": 0.7874015748031497
        },
        {
          "duration": 0.054545250000003875,
          "durationTicks": 120,
          "midi": 26,
          "name": "D1",
          "ticks": 179040,
          "time": 120.48588354583336,
          "velocity": 0.7874015748031497
        },
        {
          "duration": 0.054545249999989665,
          "durationTicks": 120,
          "midi": 38,
          "name": "D2",
          "ticks": 179280,
          "time": 120.59497404583337,
          "velocity": 0.7874015748031497
        },
        {
          "duration": 0.054545250000003875,
          "durationTicks": 120,
          "midi": 26,
          "name": "D1",
          "ticks": 179520,
          "time": 120.70406454583336,
          "velocity": 0.7874015748031497
        },
        {
          "duration": 0.054545250000003875,
          "durationTicks": 120,
          "midi": 38,
          "name": "D2",
          "ticks": 179760,
          "time": 120.81315504583335,
          "velocity": 0.7874015748031497
        },
        {
          "duration": 0.054545250000003875,
          "durationTicks": 120,
          "midi": 26,
          "name": "D1",
          "ticks": 180000,
          "time": 120.92224554583336,
          "velocity": 0.7874015748031497
        },
        {
          "duration": 0.054545250000003875,
          "durationTicks": 120,
          "midi": 38,
          "name": "D2",
          "ticks": 180240,
          "time": 121.03133604583336,
          "velocity": 0.7874015748031497
        },
        {
          "duration": 0.054545250000003875,
          "durationTicks": 120,
          "midi": 26,
          "name": "D1",
          "ticks": 180480,
          "time": 121.14042654583336,
          "velocity": 0.7874015748031497
        },
        {
          "duration": 0.2181810000000013,
          "durationTicks": 480,
          "midi": 27,
          "name": "D#1",
          "ticks": 180720,
          "time": 121.24951704583336,
          "velocity": 0.7874015748031497
        },
        {
          "duration": 0.054545250000003875,
          "durationTicks": 120,
          "midi": 39,
          "name": "D#2",
          "ticks": 181200,
          "time": 121.46769804583336,
          "velocity": 0.7874015748031497
        },
        {
          "duration": 0.054545249999989665,
          "durationTicks": 120,
          "midi": 27,
          "name": "D#1",
          "ticks": 181440,
          "time": 121.57678854583337,
          "velocity": 0.7874015748031497
        },
        {
          "duration": 0.054545250000003875,
          "durationTicks": 120,
          "midi": 39,
          "name": "D#2",
          "ticks": 181680,
          "time": 121.68587904583336,
          "velocity": 0.7874015748031497
        },
        {
          "duration": 0.054545249999989665,
          "durationTicks": 120,
          "midi": 27,
          "name": "D#1",
          "ticks": 181920,
          "time": 121.79496954583337,
          "velocity": 0.7874015748031497
        },
        {
          "duration": 0.054545250000003875,
          "durationTicks": 120,
          "midi": 39,
          "name": "D#2",
          "ticks": 182160,
          "time": 121.90406004583336,
          "velocity": 0.7874015748031497
        },
        {
          "duration": 0.054545250000003875,
          "durationTicks": 120,
          "midi": 27,
          "name": "D#1",
          "ticks": 182400,
          "time": 122.01315054583335,
          "velocity": 0.7874015748031497
        },
        {
          "duration": 0.054545250000003875,
          "durationTicks": 120,
          "midi": 39,
          "name": "D#2",
          "ticks": 182640,
          "time": 122.12224104583336,
          "velocity": 0.7874015748031497
        },
        {
          "duration": 0.054545250000003875,
          "durationTicks": 120,
          "midi": 28,
          "name": "E1",
          "ticks": 182880,
          "time": 122.23133154583336,
          "velocity": 0.7874015748031497
        },
        {
          "duration": 0.054545250000003875,
          "durationTicks": 120,
          "midi": 40,
          "name": "E2",
          "ticks": 183120,
          "time": 122.34042204583336,
          "velocity": 0.7874015748031497
        },
        {
          "duration": 0.054545250000003875,
          "durationTicks": 120,
          "midi": 28,
          "name": "E1",
          "ticks": 183360,
          "time": 122.44951254583336,
          "velocity": 0.7874015748031497
        },
        {
          "duration": 0.054545249999989665,
          "durationTicks": 120,
          "midi": 40,
          "name": "E2",
          "ticks": 183600,
          "time": 122.55860304583337,
          "velocity": 0.7874015748031497
        },
        {
          "duration": 0.054545250000003875,
          "durationTicks": 120,
          "midi": 28,
          "name": "E1",
          "ticks": 183840,
          "time": 122.66769354583336,
          "velocity": 0.7874015748031497
        },
        {
          "duration": 0.054545249999989665,
          "durationTicks": 120,
          "midi": 40,
          "name": "E2",
          "ticks": 184080,
          "time": 122.77678404583337,
          "velocity": 0.7874015748031497
        },
        {
          "duration": 0.054545250000003875,
          "durationTicks": 120,
          "midi": 28,
          "name": "E1",
          "ticks": 184320,
          "time": 122.88587454583336,
          "velocity": 0.7874015748031497
        },
        {
          "duration": 0.21818099999998708,
          "durationTicks": 480,
          "midi": 29,
          "name": "F1",
          "ticks": 184560,
          "time": 122.99496504583337,
          "velocity": 0.7874015748031497
        },
        {
          "duration": 0.054545250000003875,
          "durationTicks": 120,
          "midi": 41,
          "name": "F2",
          "ticks": 185040,
          "time": 123.21314604583335,
          "velocity": 0.7874015748031497
        },
        {
          "duration": 0.054545250000003875,
          "durationTicks": 120,
          "midi": 29,
          "name": "F1",
          "ticks": 185280,
          "time": 123.32223654583336,
          "velocity": 0.7874015748031497
        },
        {
          "duration": 0.054545250000003875,
          "durationTicks": 120,
          "midi": 41,
          "name": "F2",
          "ticks": 185520,
          "time": 123.43132704583336,
          "velocity": 0.7874015748031497
        },
        {
          "duration": 0.054545250000003875,
          "durationTicks": 120,
          "midi": 30,
          "name": "F#1",
          "ticks": 185760,
          "time": 123.54041754583336,
          "velocity": 0.7874015748031497
        },
        {
          "duration": 0.054545250000003875,
          "durationTicks": 120,
          "midi": 42,
          "name": "F#2",
          "ticks": 186000,
          "time": 123.64950804583336,
          "velocity": 0.7874015748031497
        },
        {
          "duration": 0.054545249999989665,
          "durationTicks": 120,
          "midi": 30,
          "name": "F#1",
          "ticks": 186240,
          "time": 123.75859854583337,
          "velocity": 0.7874015748031497
        },
        {
          "duration": 0.054545250000003875,
          "durationTicks": 120,
          "midi": 42,
          "name": "F#2",
          "ticks": 186480,
          "time": 123.86768904583336,
          "velocity": 0.7874015748031497
        },
        {
          "duration": 0.054545249999989665,
          "durationTicks": 120,
          "midi": 34,
          "name": "A#1",
          "ticks": 186720,
          "time": 123.97677954583337,
          "velocity": 0.7874015748031497
        },
        {
          "duration": 0.054545250000003875,
          "durationTicks": 120,
          "midi": 46,
          "name": "A#2",
          "ticks": 186960,
          "time": 124.08587004583336,
          "velocity": 0.7874015748031497
        },
        {
          "duration": 0.054545249999989665,
          "durationTicks": 120,
          "midi": 34,
          "name": "A#1",
          "ticks": 187200,
          "time": 124.19496054583337,
          "velocity": 0.7874015748031497
        },
        {
          "duration": 0.054545250000003875,
          "durationTicks": 120,
          "midi": 46,
          "name": "A#2",
          "ticks": 187440,
          "time": 124.30405104583336,
          "velocity": 0.7874015748031497
        },
        {
          "duration": 0.054545250000003875,
          "durationTicks": 120,
          "midi": 32,
          "name": "G#1",
          "ticks": 187680,
          "time": 124.41314154583335,
          "velocity": 0.7874015748031497
        },
        {
          "duration": 0.054545250000003875,
          "durationTicks": 120,
          "midi": 44,
          "name": "G#2",
          "ticks": 187920,
          "time": 124.52223204583336,
          "velocity": 0.7874015748031497
        },
        {
          "duration": 0.054545250000003875,
          "durationTicks": 120,
          "midi": 32,
          "name": "G#1",
          "ticks": 188160,
          "time": 124.63132254583336,
          "velocity": 0.7874015748031497
        },
        {
          "duration": 0.2181810000000013,
          "durationTicks": 480,
          "midi": 30,
          "name": "F#1",
          "ticks": 188400,
          "time": 124.74041304583336,
          "velocity": 0.7874015748031497
        },
        {
          "duration": 0.054545249999989665,
          "durationTicks": 120,
          "midi": 42,
          "name": "F#2",
          "ticks": 188880,
          "time": 124.95859404583337,
          "velocity": 0.7874015748031497
        },
        {
          "duration": 0.054545250000003875,
          "durationTicks": 120,
          "midi": 30,
          "name": "F#1",
          "ticks": 189120,
          "time": 125.06768454583336,
          "velocity": 0.7874015748031497
        },
        {
          "duration": 0.054545249999989665,
          "durationTicks": 120,
          "midi": 42,
          "name": "F#2",
          "ticks": 189360,
          "time": 125.17677504583337,
          "velocity": 0.7874015748031497
        },
        {
          "duration": 0.054545250000003875,
          "durationTicks": 120,
          "midi": 27,
          "name": "D#1",
          "ticks": 189600,
          "time": 125.28586554583336,
          "velocity": 0.7874015748031497
        },
        {
          "duration": 0.054545249999989665,
          "durationTicks": 120,
          "midi": 39,
          "name": "D#2",
          "ticks": 189840,
          "time": 125.39495604583337,
          "velocity": 0.7874015748031497
        },
        {
          "duration": 0.054545250000003875,
          "durationTicks": 120,
          "midi": 27,
          "name": "D#1",
          "ticks": 190080,
          "time": 125.50404654583336,
          "velocity": 0.7874015748031497
        },
        {
          "duration": 0.054545250000003875,
          "durationTicks": 120,
          "midi": 39,
          "name": "D#2",
          "ticks": 190320,
          "time": 125.61313704583335,
          "velocity": 0.7874015748031497
        },
        {
          "duration": 0.04999999999999716,
          "durationTicks": 120,
          "midi": 32,
          "name": "G#1",
          "ticks": 190560,
          "time": 125.72222754583336,
          "velocity": 0.7874015748031497
        },
        {
          "duration": 0.05000000000001137,
          "durationTicks": 120,
          "midi": 44,
          "name": "G#2",
          "ticks": 190800,
          "time": 125.82222754583336,
          "velocity": 0.7874015748031497
        },
        {
          "duration": 0.04999999999999716,
          "durationTicks": 120,
          "midi": 32,
          "name": "G#1",
          "ticks": 191040,
          "time": 125.92222754583337,
          "velocity": 0.7874015748031497
        },
        {
          "duration": 0.04999999999999716,
          "durationTicks": 120,
          "midi": 32,
          "name": "G#1",
          "ticks": 191280,
          "time": 126.02222754583336,
          "velocity": 0.7874015748031497
        },
        {
          "duration": 0.04999999999999716,
          "durationTicks": 120,
          "midi": 32,
          "name": "G#1",
          "ticks": 191520,
          "time": 126.12222754583337,
          "velocity": 0.7874015748031497
        },
        {
          "duration": 0.04999999999999716,
          "durationTicks": 120,
          "midi": 32,
          "name": "G#1",
          "ticks": 191760,
          "time": 126.22222754583336,
          "velocity": 0.7874015748031497
        },
        {
          "duration": 0.05000000000001137,
          "durationTicks": 120,
          "midi": 32,
          "name": "G#1",
          "ticks": 192000,
          "time": 126.32222754583336,
          "velocity": 0.7874015748031497
        },
        {
          "duration": 0.19061489166666945,
          "durationTicks": 480,
          "midi": 25,
          "name": "C#1",
          "ticks": 192240,
          "time": 126.42222754583337,
          "velocity": 0.7874015748031497
        },
        {
          "duration": 0.04761899999999741,
          "durationTicks": 120,
          "midi": 37,
          "name": "C#2",
          "ticks": 192720,
          "time": 126.61284243750003,
          "velocity": 0.7874015748031497
        },
        {
          "duration": 0.04761899999999741,
          "durationTicks": 120,
          "midi": 25,
          "name": "C#1",
          "ticks": 192960,
          "time": 126.70808043750003,
          "velocity": 0.7874015748031497
        },
        {
          "duration": 0.047619000000011624,
          "durationTicks": 120,
          "midi": 37,
          "name": "C#2",
          "ticks": 193200,
          "time": 126.80331843750002,
          "velocity": 0.7874015748031497
        },
        {
          "duration": 0.04761899999999741,
          "durationTicks": 120,
          "midi": 25,
          "name": "C#1",
          "ticks": 193440,
          "time": 126.89855643750003,
          "velocity": 0.7874015748031497
        },
        {
          "duration": 0.04761899999999741,
          "durationTicks": 120,
          "midi": 37,
          "name": "C#2",
          "ticks": 193680,
          "time": 126.99379443750003,
          "velocity": 0.7874015748031497
        },
        {
          "duration": 0.047619000000011624,
          "durationTicks": 120,
          "midi": 25,
          "name": "C#1",
          "ticks": 193920,
          "time": 127.08903243750002,
          "velocity": 0.7874015748031497
        },
        {
          "duration": 0.04761899999999741,
          "durationTicks": 120,
          "midi": 37,
          "name": "C#2",
          "ticks": 194160,
          "time": 127.18427043750003,
          "velocity": 0.7874015748031497
        },
        {
          "duration": 0.04761899999999741,
          "durationTicks": 120,
          "midi": 26,
          "name": "D1",
          "ticks": 194400,
          "time": 127.27950843750003,
          "velocity": 0.7874015748031497
        },
        {
          "duration": 0.04761899999999741,
          "durationTicks": 120,
          "midi": 38,
          "name": "D2",
          "ticks": 194640,
          "time": 127.37474643750004,
          "velocity": 0.7874015748031497
        },
        {
          "duration": 0.04761899999999741,
          "durationTicks": 120,
          "midi": 26,
          "name": "D1",
          "ticks": 194880,
          "time": 127.46998443750003,
          "velocity": 0.7874015748031497
        },
        {
          "duration": 0.04761899999999741,
          "durationTicks": 120,
          "midi": 38,
          "name": "D2",
          "ticks": 195120,
          "time": 127.56522243750003,
          "velocity": 0.7874015748031497
        },
        {
          "duration": 0.04761899999999741,
          "durationTicks": 120,
          "midi": 26,
          "name": "D1",
          "ticks": 195360,
          "time": 127.66046043750003,
          "velocity": 0.7874015748031497
        },
        {
          "duration": 0.04761899999999741,
          "durationTicks": 120,
          "midi": 38,
          "name": "D2",
          "ticks": 195600,
          "time": 127.75569843750003,
          "velocity": 0.7874015748031497
        },
        {
          "duration": 0.047619000000011624,
          "durationTicks": 120,
          "midi": 26,
          "name": "D1",
          "ticks": 195840,
          "time": 127.85093643750002,
          "velocity": 0.7874015748031497
        },
        {
          "duration": 0.19047600000000386,
          "durationTicks": 480,
          "midi": 27,
          "name": "D#1",
          "ticks": 196080,
          "time": 127.94617443750003,
          "velocity": 0.7874015748031497
        },
        {
          "duration": 0.04761899999999741,
          "durationTicks": 120,
          "midi": 39,
          "name": "D#2",
          "ticks": 196560,
          "time": 128.13665043750004,
          "velocity": 0.7874015748031497
        },
        {
          "duration": 0.04761899999999741,
          "durationTicks": 120,
          "midi": 27,
          "name": "D#1",
          "ticks": 196800,
          "time": 128.23188843750003,
          "velocity": 0.7874015748031497
        },
        {
          "duration": 0.04761899999999741,
          "durationTicks": 120,
          "midi": 39,
          "name": "D#2",
          "ticks": 197040,
          "time": 128.32712643750003,
          "velocity": 0.7874015748031497
        },
        {
          "duration": 0.04761899999999741,
          "durationTicks": 120,
          "midi": 27,
          "name": "D#1",
          "ticks": 197280,
          "time": 128.42236443750002,
          "velocity": 0.7874015748031497
        },
        {
          "duration": 0.047619000000025835,
          "durationTicks": 120,
          "midi": 39,
          "name": "D#2",
          "ticks": 197520,
          "time": 128.51760243750002,
          "velocity": 0.7874015748031497
        },
        {
          "duration": 0.04761899999999741,
          "durationTicks": 120,
          "midi": 27,
          "name": "D#1",
          "ticks": 197760,
          "time": 128.61284043750004,
          "velocity": 0.7874015748031497
        },
        {
          "duration": 0.04761899999999741,
          "durationTicks": 120,
          "midi": 39,
          "name": "D#2",
          "ticks": 198000,
          "time": 128.70807843750003,
          "velocity": 0.7874015748031497
        },
        {
          "duration": 0.04761899999999741,
          "durationTicks": 120,
          "midi": 28,
          "name": "E1",
          "ticks": 198240,
          "time": 128.80331643750003,
          "velocity": 0.7874015748031497
        },
        {
          "duration": 0.04761899999999741,
          "durationTicks": 120,
          "midi": 40,
          "name": "E2",
          "ticks": 198480,
          "time": 128.89855443750002,
          "velocity": 0.7874015748031497
        },
        {
          "duration": 0.04761899999999741,
          "durationTicks": 120,
          "midi": 28,
          "name": "E1",
          "ticks": 198720,
          "time": 128.99379243750002,
          "velocity": 0.7874015748031497
        },
        {
          "duration": 0.04761899999999741,
          "durationTicks": 120,
          "midi": 40,
          "name": "E2",
          "ticks": 198960,
          "time": 129.08903043750004,
          "velocity": 0.7874015748031497
        },
        {
          "duration": 0.04761899999999741,
          "durationTicks": 120,
          "midi": 28,
          "name": "E1",
          "ticks": 199200,
          "time": 129.18426843750004,
          "velocity": 0.7874015748031497
        },
        {
          "duration": 0.04761899999999741,
          "durationTicks": 120,
          "midi": 40,
          "name": "E2",
          "ticks": 199440,
          "time": 129.27950643750003,
          "velocity": 0.7874015748031497
        },
        {
          "duration": 0.04761899999999741,
          "durationTicks": 120,
          "midi": 28,
          "name": "E1",
          "ticks": 199680,
          "time": 129.37474443750003,
          "velocity": 0.7874015748031497
        },
        {
          "duration": 0.19047600000001808,
          "durationTicks": 480,
          "midi": 29,
          "name": "F1",
          "ticks": 199920,
          "time": 129.46998243750002,
          "velocity": 0.7874015748031497
        },
        {
          "duration": 0.04761899999999741,
          "durationTicks": 120,
          "midi": 41,
          "name": "F2",
          "ticks": 200400,
          "time": 129.66045843750004,
          "velocity": 0.7874015748031497
        },
        {
          "duration": 0.04761899999999741,
          "durationTicks": 120,
          "midi": 29,
          "name": "F1",
          "ticks": 200640,
          "time": 129.75569643750003,
          "velocity": 0.7874015748031497
        },
        {
          "duration": 0.04761899999999741,
          "durationTicks": 120,
          "midi": 41,
          "name": "F2",
          "ticks": 200880,
          "time": 129.85093443750003,
          "velocity": 0.7874015748031497
        },
        {
          "duration": 0.04761899999999741,
          "durationTicks": 120,
          "midi": 30,
          "name": "F#1",
          "ticks": 201120,
          "time": 129.94617243750002,
          "velocity": 0.7874015748031497
        },
        {
          "duration": 0.04761899999999741,
          "durationTicks": 120,
          "midi": 42,
          "name": "F#2",
          "ticks": 201360,
          "time": 130.04141043750002,
          "velocity": 0.7874015748031497
        },
        {
          "duration": 0.04761899999999741,
          "durationTicks": 120,
          "midi": 30,
          "name": "F#1",
          "ticks": 201600,
          "time": 130.13664843750004,
          "velocity": 0.7874015748031497
        },
        {
          "duration": 0.04761899999999741,
          "durationTicks": 120,
          "midi": 42,
          "name": "F#2",
          "ticks": 201840,
          "time": 130.23188643750004,
          "velocity": 0.7874015748031497
        },
        {
          "duration": 0.04761899999999741,
          "durationTicks": 120,
          "midi": 34,
          "name": "A#1",
          "ticks": 202080,
          "time": 130.32712443750003,
          "velocity": 0.7874015748031497
        },
        {
          "duration": 0.04761899999999741,
          "durationTicks": 120,
          "midi": 46,
          "name": "A#2",
          "ticks": 202320,
          "time": 130.42236243750003,
          "velocity": 0.7874015748031497
        },
        {
          "duration": 0.04761899999999741,
          "durationTicks": 120,
          "midi": 34,
          "name": "A#1",
          "ticks": 202560,
          "time": 130.51760043750002,
          "velocity": 0.7874015748031497
        },
        {
          "duration": 0.047619000000025835,
          "durationTicks": 120,
          "midi": 46,
          "name": "A#2",
          "ticks": 202800,
          "time": 130.61283843750002,
          "velocity": 0.7874015748031497
        },
        {
          "duration": 0.04761899999999741,
          "durationTicks": 120,
          "midi": 32,
          "name": "G#1",
          "ticks": 203040,
          "time": 130.70807643750004,
          "velocity": 0.7874015748031497
        },
        {
          "duration": 0.04761899999999741,
          "durationTicks": 120,
          "midi": 44,
          "name": "G#2",
          "ticks": 203280,
          "time": 130.80331443750003,
          "velocity": 0.7874015748031497
        },
        {
          "duration": 0.04761899999999741,
          "durationTicks": 120,
          "midi": 32,
          "name": "G#1",
          "ticks": 203520,
          "time": 130.89855243750003,
          "velocity": 0.7874015748031497
        },
        {
          "duration": 0.19047600000001808,
          "durationTicks": 480,
          "midi": 30,
          "name": "F#1",
          "ticks": 203760,
          "time": 130.99379043750002,
          "velocity": 0.7874015748031497
        },
        {
          "duration": 0.04761899999999741,
          "durationTicks": 120,
          "midi": 42,
          "name": "F#2",
          "ticks": 204240,
          "time": 131.18426643750004,
          "velocity": 0.7874015748031497
        },
        {
          "duration": 0.04761899999999741,
          "durationTicks": 120,
          "midi": 30,
          "name": "F#1",
          "ticks": 204480,
          "time": 131.27950443750004,
          "velocity": 0.7874015748031497
        },
        {
          "duration": 0.04761899999999741,
          "durationTicks": 120,
          "midi": 42,
          "name": "F#2",
          "ticks": 204720,
          "time": 131.37474243750003,
          "velocity": 0.7874015748031497
        },
        {
          "duration": 0.04761899999999741,
          "durationTicks": 120,
          "midi": 27,
          "name": "D#1",
          "ticks": 204960,
          "time": 131.46998043750003,
          "velocity": 0.7874015748031497
        },
        {
          "duration": 0.04761899999999741,
          "durationTicks": 120,
          "midi": 39,
          "name": "D#2",
          "ticks": 205200,
          "time": 131.56521843750002,
          "velocity": 0.7874015748031497
        },
        {
          "duration": 0.047619000000025835,
          "durationTicks": 120,
          "midi": 27,
          "name": "D#1",
          "ticks": 205440,
          "time": 131.66045643750002,
          "velocity": 0.7874015748031497
        },
        {
          "duration": 0.04761899999999741,
          "durationTicks": 120,
          "midi": 39,
          "name": "D#2",
          "ticks": 205680,
          "time": 131.75569443750004,
          "velocity": 0.7874015748031497
        },
        {
          "duration": 0.04761899999999741,
          "durationTicks": 120,
          "midi": 30,
          "name": "F#1",
          "ticks": 205920,
          "time": 131.85093243750003,
          "velocity": 0.7874015748031497
        },
        {
          "duration": 0.04761899999999741,
          "durationTicks": 120,
          "midi": 42,
          "name": "F#2",
          "ticks": 206160,
          "time": 131.94617043750003,
          "velocity": 0.7874015748031497
        },
        {
          "duration": 0.04761899999999741,
          "durationTicks": 120,
          "midi": 30,
          "name": "F#1",
          "ticks": 206400,
          "time": 132.04140843750002,
          "velocity": 0.7874015748031497
        },
        {
          "duration": 0.04761899999999741,
          "durationTicks": 120,
          "midi": 42,
          "name": "F#2",
          "ticks": 206640,
          "time": 132.13664643750002,
          "velocity": 0.7874015748031497
        },
        {
          "duration": 0.10909050000000775,
          "durationTicks": 240,
          "midi": 37,
          "name": "C#2",
          "ticks": 206880,
          "time": 132.2318844375,
          "velocity": 0.7874015748031497
        },
        {
          "duration": 0.16216199999999503,
          "durationTicks": 240,
          "midi": 25,
          "name": "C#1",
          "ticks": 207840,
          "time": 132.83083443750002,
          "velocity": 0.7874015748031497
        },
        {
          "duration": 0.13953449999999634,
          "durationTicks": 240,
          "midi": 25,
          "name": "C#1",
          "ticks": 208800,
          "time": 133.47948243750002,
          "velocity": 0.7874015748031497
        },
        {
          "duration": 0.1304345000000069,
          "durationTicks": 240,
          "midi": 25,
          "name": "C#1",
          "ticks": 209760,
          "time": 134.03762043750004,
          "velocity": 0.7874015748031497
        },
        {
          "duration": 0.12000000000000455,
          "durationTicks": 240,
          "midi": 25,
          "name": "C#1",
          "ticks": 210720,
          "time": 134.55935843750004,
          "velocity": 0.7874015748031497
        },
        {
          "duration": 0.11111099999999396,
          "durationTicks": 240,
          "midi": 25,
          "name": "C#1",
          "ticks": 211680,
          "time": 135.03935843750003,
          "velocity": 0.7874015748031497
        },
        {
          "duration": 0.10526300000000788,
          "durationTicks": 240,
          "midi": 25,
          "name": "C#1",
          "ticks": 212640,
          "time": 135.48380243750003,
          "velocity": 0.7874015748031497
        },
        {
          "duration": 0.09999999999999432,
          "durationTicks": 240,
          "midi": 25,
          "name": "C#1",
          "ticks": 213600,
          "time": 135.90485443750003,
          "velocity": 0.7874015748031497
        },
        {
          "duration": 0.09523799999999483,
          "durationTicks": 240,
          "midi": 25,
          "name": "C#1",
          "ticks": 214560,
          "time": 136.30485443750004,
          "velocity": 0.7874015748031497
        },
        {
          "duration": 3,
          "durationTicks": 120,
          "midi": 25,
          "name": "C#1",
          "ticks": 215400,
          "time": 136.63818743750005,
          "velocity": 0.7874015748031497
        },
        {
          "duration": 0.13698600000000738,
          "durationTicks": 240,
          "midi": 25,
          "name": "C#1",
          "ticks": 215520,
          "time": 139.63818743750005,
          "velocity": 0.7874015748031497
        }
      ],
      "endOfTrackTicks": 215760
    }
  ]
}
