{
  "header": {
    "keySignatures": [],
    "meta": [],
    "name": "Percussion",
    "ppq": 96,
    "tempos": [
      {
        "bpm": 120,
        "ticks": 0
      }
    ],
    "timeSignatures": [
      {
        "ticks": 0,
        "timeSignature": [
          4,
          4
        ],
        "measures": 0
      }
    ]
  },
  "tracks": [
    {
      "channel": 9,
      "controlChanges": {
        "7": [
          {
            "number": 7,
            "ticks": 0,
            "time": 0,
            "value": 1
          }
        ],
        "10": [
          {
            "number": 10,
            "ticks": 0,
            "time": 0,
            "value": 0.5039370078740157
          }
        ]
      },
      "pitchBends": [],
      "instrument": {
        "family": "drums",
        "number": 0,
        "name": "standard kit"
      },
      "name": "Percussion",
      "notes": [
        {
          "duration": 0.125,
          "durationTicks": 24,
          "midi": 44,
          "name": "G#2",
          "ticks": 0,
          "time": 0,
          "velocity": 0.7874015748031497
        },
        {
          "duration": 0.125,
          "durationTicks": 24,
          "midi": 44,
          "name": "G#2",
          "ticks": 24,
          "time": 0.125,
          "velocity": 0.7874015748031497
        },
        {
          "duration": 0.12500000000000003,
          "durationTicks": 24,
          "midi": 36,
          "name": "C2",
          "ticks": 44,
          "time": 0.22916666666666666,
          "velocity": 0.7874015748031497
        },
        {
          "duration": 0.125,
          "durationTicks": 24,
          "midi": 36,
          "name": "C2",
          "ticks": 67,
          "time": 0.3489583333333333,
          "velocity": 0.7874015748031497
        },
        {
          "duration": 0.125,
          "durationTicks": 24,
          "midi": 44,
          "name": "G#2",
          "ticks": 96,
          "time": 0.5,
          "velocity": 0.7874015748031497
        },
        {
          "duration": 0.125,
          "durationTicks": 24,
          "midi": 44,
          "name": "G#2",
          "ticks": 120,
          "time": 0.625,
          "velocity": 0.7874015748031497
        },
        {
          "duration": 0.125,
          "durationTicks": 24,
          "midi": 36,
          "name": "C2",
          "ticks": 141,
          "time": 0.734375,
          "velocity": 0.7874015748031497
        },
        {
          "duration": 0.125,
          "durationTicks": 24,
          "midi": 36,
          "name": "C2",
          "ticks": 165,
          "time": 0.859375,
          "velocity": 0.7874015748031497
        },
        {
          "duration": 0.125,
          "durationTicks": 24,
          "midi": 44,
          "name": "G#2",
          "ticks": 192,
          "time": 1,
          "velocity": 0.7874015748031497
        },
        {
          "duration": 0.125,
          "durationTicks": 24,
          "midi": 44,
          "name": "G#2",
          "ticks": 216,
          "time": 1.125,
          "velocity": 0.7874015748031497
        },
        {
          "duration": 0.125,
          "durationTicks": 24,
          "midi": 36,
          "name": "C2",
          "ticks": 237,
          "time": 1.234375,
          "velocity": 0.7874015748031497
        },
        {
          "duration": 0.125,
          "durationTicks": 24,
          "midi": 36,
          "name": "C2",
          "ticks": 261,
          "time": 1.359375,
          "velocity": 0.7874015748031497
        },
        {
          "duration": 0.125,
          "durationTicks": 24,
          "midi": 44,
          "name": "G#2",
          "ticks": 288,
          "time": 1.5,
          "velocity": 0.7874015748031497
        },
        {
          "duration": 0.125,
          "durationTicks": 24,
          "midi": 44,
          "name": "G#2",
          "ticks": 312,
          "time": 1.625,
          "velocity": 0.7874015748031497
        },
        {
          "duration": 0.125,
          "durationTicks": 24,
          "midi": 36,
          "name": "C2",
          "ticks": 333,
          "time": 1.734375,
          "velocity": 0.7874015748031497
        },
        {
          "duration": 0.125,
          "durationTicks": 24,
          "midi": 36,
          "name": "C2",
          "ticks": 357,
          "time": 1.859375,
          "velocity": 0.7874015748031497
        },
        {
          "duration": 0.125,
          "durationTicks": 24,
          "midi": 44,
          "name": "G#2",
          "ticks": 384,
          "time": 2,
          "velocity": 0.7874015748031497
        },
        {
          "duration": 0.125,
          "durationTicks": 24,
          "midi": 44,
          "name": "G#2",
          "ticks": 408,
          "time": 2.125,
          "velocity": 0.7874015748031497
        },
        {
          "duration": 0.125,
          "durationTicks": 24,
          "midi": 36,
          "name": "C2",
          "ticks": 429,
          "time": 2.234375,
          "velocity": 0.7874015748031497
        },
        {
          "duration": 0.125,
          "durationTicks": 24,
          "midi": 36,
          "name": "C2",
          "ticks": 453,
          "time": 2.359375,
          "velocity": 0.7874015748031497
        },
        {
          "duration": 0.125,
          "durationTicks": 24,
          "midi": 44,
          "name": "G#2",
          "ticks": 480,
          "time": 2.5,
          "velocity": 0.7874015748031497
        },
        {
          "duration": 0.15104166666666652,
          "durationTicks": 29,
          "midi": 44,
          "name": "G#2",
          "ticks": 499,
          "time": 2.5989583333333335,
          "velocity": 0.7874015748031497
        },
        {
          "duration": 0.125,
          "durationTicks": 24,
          "midi": 36,
          "name": "C2",
          "ticks": 525,
          "time": 2.734375,
          "velocity": 0.7874015748031497
        },
        {
          "duration": 0.125,
          "durationTicks": 24,
          "midi": 36,
          "name": "C2",
          "ticks": 549,
          "time": 2.859375,
          "velocity": 0.7874015748031497
        },
        {
          "duration": 0.125,
          "durationTicks": 24,
          "midi": 44,
          "name": "G#2",
          "ticks": 576,
          "time": 3,
          "velocity": 0.7874015748031497
        },
        {
          "duration": 0.125,
          "durationTicks": 24,
          "midi": 44,
          "name": "G#2",
          "ticks": 600,
          "time": 3.125,
          "velocity": 0.7874015748031497
        },
        {
          "duration": 0.125,
          "durationTicks": 24,
          "midi": 36,
          "name": "C2",
          "ticks": 621,
          "time": 3.234375,
          "velocity": 0.7874015748031497
        },
        {
          "duration": 0.125,
          "durationTicks": 24,
          "midi": 36,
          "name": "C2",
          "ticks": 645,
          "time": 3.359375,
          "velocity": 0.7874015748031497
        },
        {
          "duration": 0.125,
          "durationTicks": 24,
          "midi": 44,
          "name": "G#2",
          "ticks": 672,
          "time": 3.5,
          "velocity": 0.7874015748031497
        },
        {
          "duration": 0.125,
          "durationTicks": 24,
          "midi": 44,
          "name": "G#2",
          "ticks": 696,
          "time": 3.625,
          "velocity": 0.7874015748031497
        },
        {
          "duration": 0.125,
          "durationTicks": 24,
          "midi": 36,
          "name": "C2",
          "ticks": 717,
          "time": 3.734375,
          "velocity": 0.7874015748031497
        },
        {
          "duration": 0.125,
          "durationTicks": 24,
          "midi": 36,
          "name": "C2",
          "ticks": 741,
          "time": 3.859375,
          "velocity": 0.7874015748031497
        },
        {
          "duration": 0.125,
          "durationTicks": 24,
          "midi": 44,
          "name": "G#2",
          "ticks": 768,
          "time": 4,
          "velocity": 0.7874015748031497
        },
        {
          "duration": 0.125,
          "durationTicks": 24,
          "midi": 44,
          "name": "G#2",
          "ticks": 792,
          "time": 4.125,
          "velocity": 0.7874015748031497
        },
        {
          "duration": 0.125,
          "durationTicks": 24,
          "midi": 36,
          "name": "C2",
          "ticks": 813,
          "time": 4.234375,
          "velocity": 0.7874015748031497
        },
        {
          "duration": 0.125,
          "durationTicks": 24,
          "midi": 36,
          "name": "C2",
          "ticks": 837,
          "time": 4.359375,
          "velocity": 0.7874015748031497
        },
        {
          "duration": 0.125,
          "durationTicks": 24,
          "midi": 44,
          "name": "G#2",
          "ticks": 864,
          "time": 4.5,
          "velocity": 0.7874015748031497
        },
        {
          "duration": 0.125,
          "durationTicks": 24,
          "midi": 44,
          "name": "G#2",
          "ticks": 888,
          "time": 4.625,
          "velocity": 0.7874015748031497
        },
        {
          "duration": 0.125,
          "durationTicks": 24,
          "midi": 36,
          "name": "C2",
          "ticks": 909,
          "time": 4.734375,
          "velocity": 0.7874015748031497
        },
        {
          "duration": 0.125,
          "durationTicks": 24,
          "midi": 36,
          "name": "C2",
          "ticks": 933,
          "time": 4.859375,
          "velocity": 0.7874015748031497
        },
        {
          "duration": 0.125,
          "durationTicks": 24,
          "midi": 44,
          "name": "G#2",
          "ticks": 960,
          "time": 5,
          "velocity": 0.7874015748031497
        },
        {
          "duration": 0.125,
          "durationTicks": 24,
          "midi": 44,
          "name": "G#2",
          "ticks": 984,
          "time": 5.125,
          "velocity": 0.7874015748031497
        },
        {
          "duration": 0.125,
          "durationTicks": 24,
          "midi": 36,
          "name": "C2",
          "ticks": 1005,
          "time": 5.234375,
          "velocity": 0.7874015748031497
        },
        {
          "duration": 0.125,
          "durationTicks": 24,
          "midi": 36,
          "name": "C2",
          "ticks": 1029,
          "time": 5.359375,
          "velocity": 0.7874015748031497
        },
        {
          "duration": 0.125,
          "durationTicks": 24,
          "midi": 44,
          "name": "G#2",
          "ticks": 1056,
          "time": 5.5,
          "velocity": 0.7874015748031497
        },
        {
          "duration": 0.125,
          "durationTicks": 24,
          "midi": 44,
          "name": "G#2",
          "ticks": 1080,
          "time": 5.625,
          "velocity": 0.7874015748031497
        },
        {
          "duration": 0.125,
          "durationTicks": 24,
          "midi": 36,
          "name": "C2",
          "ticks": 1101,
          "time": 5.734375,
          "velocity": 0.7874015748031497
        },
        {
          "duration": 0.125,
          "durationTicks": 24,
          "midi": 36,
          "name": "C2",
          "ticks": 1125,
          "time": 5.859375,
          "velocity": 0.7874015748031497
        },
        {
          "duration": 0.125,
          "durationTicks": 24,
          "midi": 44,
          "name": "G#2",
          "ticks": 1152,
          "time": 6,
          "velocity": 0.7874015748031497
        },
        {
          "duration": 0.125,
          "durationTicks": 24,
          "midi": 44,
          "name": "G#2",
          "ticks": 1176,
          "time": 6.125,
          "velocity": 0.7874015748031497
        },
        {
          "duration": 0.125,
          "durationTicks": 24,
          "midi": 36,
          "name": "C2",
          "ticks": 1197,
          "time": 6.234375,
          "velocity": 0.7874015748031497
        },
        {
          "duration": 0.125,
          "durationTicks": 24,
          "midi": 62,
          "name": "D4",
          "ticks": 1200,
          "time": 6.25,
          "velocity": 0.7874015748031497
        },
        {
          "duration": 0.125,
          "durationTicks": 24,
          "midi": 36,
          "name": "C2",
          "ticks": 1221,
          "time": 6.359375,
          "velocity": 0.7874015748031497
        },
        {
          "duration": 0.125,
          "durationTicks": 24,
          "midi": 61,
          "name": "C#4",
          "ticks": 1246,
          "time": 6.489583333333333,
          "velocity": 0.7874015748031497
        },
        {
          "duration": 0.125,
          "durationTicks": 24,
          "midi": 44,
          "name": "G#2",
          "ticks": 1248,
          "time": 6.5,
          "velocity": 0.7874015748031497
        },
        {
          "duration": 0.125,
          "durationTicks": 24,
          "midi": 61,
          "name": "C#4",
          "ticks": 1272,
          "time": 6.625,
          "velocity": 0.7874015748031497
        },
        {
          "duration": 0.125,
          "durationTicks": 24,
          "midi": 44,
          "name": "G#2",
          "ticks": 1272,
          "time": 6.625,
          "velocity": 0.7874015748031497
        },
        {
          "duration": 0.125,
          "durationTicks": 24,
          "midi": 36,
          "name": "C2",
          "ticks": 1293,
          "time": 6.734375,
          "velocity": 0.7874015748031497
        },
        {
          "duration": 0.125,
          "durationTicks": 24,
          "midi": 36,
          "name": "C2",
          "ticks": 1317,
          "time": 6.859375,
          "velocity": 0.7874015748031497
        },
        {
          "duration": 0.125,
          "durationTicks": 24,
          "midi": 62,
          "name": "D4",
          "ticks": 1320,
          "time": 6.875,
          "velocity": 0.7874015748031497
        },
        {
          "duration": 0.125,
          "durationTicks": 24,
          "midi": 44,
          "name": "G#2",
          "ticks": 1344,
          "time": 7,
          "velocity": 0.7874015748031497
        },
        {
          "duration": 0.125,
          "durationTicks": 24,
          "midi": 62,
          "name": "D4",
          "ticks": 1368,
          "time": 7.125,
          "velocity": 0.7874015748031497
        },
        {
          "duration": 0.125,
          "durationTicks": 24,
          "midi": 44,
          "name": "G#2",
          "ticks": 1368,
          "time": 7.125,
          "velocity": 0.7874015748031497
        },
        {
          "duration": 0.125,
          "durationTicks": 24,
          "midi": 36,
          "name": "C2",
          "ticks": 1389,
          "time": 7.234375,
          "velocity": 0.7874015748031497
        },
        {
          "duration": 0.125,
          "durationTicks": 24,
          "midi": 61,
          "name": "C#4",
          "ticks": 1392,
          "time": 7.25,
          "velocity": 0.7874015748031497
        },
        {
          "duration": 0.125,
          "durationTicks": 24,
          "midi": 36,
          "name": "C2",
          "ticks": 1413,
          "time": 7.359375,
          "velocity": 0.7874015748031497
        },
        {
          "duration": 0.125,
          "durationTicks": 24,
          "midi": 61,
          "name": "C#4",
          "ticks": 1416,
          "time": 7.375,
          "velocity": 0.7874015748031497
        },
        {
          "duration": 0.125,
          "durationTicks": 24,
          "midi": 61,
          "name": "C#4",
          "ticks": 1440,
          "time": 7.5,
          "velocity": 0.7874015748031497
        },
        {
          "duration": 0.125,
          "durationTicks": 24,
          "midi": 44,
          "name": "G#2",
          "ticks": 1440,
          "time": 7.5,
          "velocity": 0.7874015748031497
        },
        {
          "duration": 0.125,
          "durationTicks": 24,
          "midi": 61,
          "name": "C#4",
          "ticks": 1464,
          "time": 7.625,
          "velocity": 0.7874015748031497
        },
        {
          "duration": 0.125,
          "durationTicks": 24,
          "midi": 44,
          "name": "G#2",
          "ticks": 1464,
          "time": 7.625,
          "velocity": 0.7874015748031497
        },
        {
          "duration": 0.125,
          "durationTicks": 24,
          "midi": 36,
          "name": "C2",
          "ticks": 1485,
          "time": 7.734375,
          "velocity": 0.7874015748031497
        },
        {
          "duration": 0.125,
          "durationTicks": 24,
          "midi": 61,
          "name": "C#4",
          "ticks": 1488,
          "time": 7.75,
          "velocity": 0.7874015748031497
        },
        {
          "duration": 0.125,
          "durationTicks": 24,
          "midi": 36,
          "name": "C2",
          "ticks": 1509,
          "time": 7.859375,
          "velocity": 0.7874015748031497
        },
        {
          "duration": 0.125,
          "durationTicks": 24,
          "midi": 61,
          "name": "C#4",
          "ticks": 1512,
          "time": 7.875,
          "velocity": 0.7874015748031497
        },
        {
          "duration": 0.125,
          "durationTicks": 24,
          "midi": 44,
          "name": "G#2",
          "ticks": 1536,
          "time": 8,
          "velocity": 0.7874015748031497
        },
        {
          "duration": 0.125,
          "durationTicks": 24,
          "midi": 44,
          "name": "G#2",
          "ticks": 1560,
          "time": 8.125,
          "velocity": 0.7874015748031497
        },
        {
          "duration": 0.125,
          "durationTicks": 24,
          "midi": 36,
          "name": "C2",
          "ticks": 1581,
          "time": 8.234375,
          "velocity": 0.7874015748031497
        },
        {
          "duration": 0.125,
          "durationTicks": 24,
          "midi": 36,
          "name": "C2",
          "ticks": 1605,
          "time": 8.359375,
          "velocity": 0.7874015748031497
        },
        {
          "duration": 0.125,
          "durationTicks": 24,
          "midi": 39,
          "name": "D#2",
          "ticks": 1632,
          "time": 8.5,
          "velocity": 0.7874015748031497
        },
        {
          "duration": 0.125,
          "durationTicks": 24,
          "midi": 44,
          "name": "G#2",
          "ticks": 1632,
          "time": 8.5,
          "velocity": 0.7874015748031497
        },
        {
          "duration": 0.125,
          "durationTicks": 24,
          "midi": 44,
          "name": "G#2",
          "ticks": 1656,
          "time": 8.625,
          "velocity": 0.7874015748031497
        },
        {
          "duration": 0.125,
          "durationTicks": 24,
          "midi": 36,
          "name": "C2",
          "ticks": 1677,
          "time": 8.734375,
          "velocity": 0.7874015748031497
        },
        {
          "duration": 0.125,
          "durationTicks": 24,
          "midi": 36,
          "name": "C2",
          "ticks": 1701,
          "time": 8.859375,
          "velocity": 0.7874015748031497
        },
        {
          "duration": 0.125,
          "durationTicks": 24,
          "midi": 44,
          "name": "G#2",
          "ticks": 1728,
          "time": 9,
          "velocity": 0.7874015748031497
        },
        {
          "duration": 0.125,
          "durationTicks": 24,
          "midi": 44,
          "name": "G#2",
          "ticks": 1752,
          "time": 9.125,
          "velocity": 0.7874015748031497
        },
        {
          "duration": 0.125,
          "durationTicks": 24,
          "midi": 36,
          "name": "C2",
          "ticks": 1773,
          "time": 9.234375,
          "velocity": 0.7874015748031497
        },
        {
          "duration": 0.125,
          "durationTicks": 24,
          "midi": 36,
          "name": "C2",
          "ticks": 1797,
          "time": 9.359375,
          "velocity": 0.7874015748031497
        },
        {
          "duration": 0.125,
          "durationTicks": 24,
          "midi": 39,
          "name": "D#2",
          "ticks": 1824,
          "time": 9.5,
          "velocity": 0.7874015748031497
        },
        {
          "duration": 0.125,
          "durationTicks": 24,
          "midi": 44,
          "name": "G#2",
          "ticks": 1824,
          "time": 9.5,
          "velocity": 0.7874015748031497
        },
        {
          "duration": 0.125,
          "durationTicks": 24,
          "midi": 44,
          "name": "G#2",
          "ticks": 1848,
          "time": 9.625,
          "velocity": 0.7874015748031497
        },
        {
          "duration": 0.125,
          "durationTicks": 24,
          "midi": 36,
          "name": "C2",
          "ticks": 1869,
          "time": 9.734375,
          "velocity": 0.7874015748031497
        },
        {
          "duration": 0.125,
          "durationTicks": 24,
          "midi": 61,
          "name": "C#4",
          "ticks": 1872,
          "time": 9.75,
          "velocity": 0.7874015748031497
        },
        {
          "duration": 0.125,
          "durationTicks": 24,
          "midi": 36,
          "name": "C2",
          "ticks": 1893,
          "time": 9.859375,
          "velocity": 0.7874015748031497
        },
        {
          "duration": 0.125,
          "durationTicks": 24,
          "midi": 61,
          "name": "C#4",
          "ticks": 1896,
          "time": 9.875,
          "velocity": 0.7874015748031497
        },
        {
          "duration": 0.125,
          "durationTicks": 24,
          "midi": 44,
          "name": "G#2",
          "ticks": 1920,
          "time": 10,
          "velocity": 0.7874015748031497
        },
        {
          "duration": 0.125,
          "durationTicks": 24,
          "midi": 44,
          "name": "G#2",
          "ticks": 1944,
          "time": 10.125,
          "velocity": 0.7874015748031497
        },
        {
          "duration": 0.125,
          "durationTicks": 24,
          "midi": 36,
          "name": "C2",
          "ticks": 1965,
          "time": 10.234375,
          "velocity": 0.7874015748031497
        },
        {
          "duration": 0.125,
          "durationTicks": 24,
          "midi": 36,
          "name": "C2",
          "ticks": 1989,
          "time": 10.359375,
          "velocity": 0.7874015748031497
        },
        {
          "duration": 0.109375,
          "durationTicks": 21,
          "midi": 39,
          "name": "D#2",
          "ticks": 2016,
          "time": 10.5,
          "velocity": 0.7874015748031497
        },
        {
          "duration": 0.125,
          "durationTicks": 24,
          "midi": 44,
          "name": "G#2",
          "ticks": 2016,
          "time": 10.5,
          "velocity": 0.7874015748031497
        },
        {
          "duration": 0.125,
          "durationTicks": 24,
          "midi": 44,
          "name": "G#2",
          "ticks": 2040,
          "time": 10.625,
          "velocity": 0.7874015748031497
        },
        {
          "duration": 0.125,
          "durationTicks": 24,
          "midi": 36,
          "name": "C2",
          "ticks": 2061,
          "time": 10.734375,
          "velocity": 0.7874015748031497
        },
        {
          "duration": 0.125,
          "durationTicks": 24,
          "midi": 36,
          "name": "C2",
          "ticks": 2085,
          "time": 10.859375,
          "velocity": 0.7874015748031497
        },
        {
          "duration": 0.125,
          "durationTicks": 24,
          "midi": 44,
          "name": "G#2",
          "ticks": 2112,
          "time": 11,
          "velocity": 0.7874015748031497
        },
        {
          "duration": 0.125,
          "durationTicks": 24,
          "midi": 44,
          "name": "G#2",
          "ticks": 2136,
          "time": 11.125,
          "velocity": 0.7874015748031497
        },
        {
          "duration": 0.125,
          "durationTicks": 24,
          "midi": 36,
          "name": "C2",
          "ticks": 2159,
          "time": 11.244791666666666,
          "velocity": 0.7874015748031497
        },
        {
          "duration": 0.125,
          "durationTicks": 24,
          "midi": 36,
          "name": "C2",
          "ticks": 2183,
          "time": 11.369791666666666,
          "velocity": 0.7874015748031497
        },
        {
          "duration": 0.125,
          "durationTicks": 24,
          "midi": 39,
          "name": "D#2",
          "ticks": 2184,
          "time": 11.375,
          "velocity": 0.7874015748031497
        },
        {
          "duration": 0.125,
          "durationTicks": 24,
          "midi": 39,
          "name": "D#2",
          "ticks": 2208,
          "time": 11.5,
          "velocity": 0.7874015748031497
        },
        {
          "duration": 0.125,
          "durationTicks": 24,
          "midi": 44,
          "name": "G#2",
          "ticks": 2208,
          "time": 11.5,
          "velocity": 0.7874015748031497
        },
        {
          "duration": 0.125,
          "durationTicks": 24,
          "midi": 44,
          "name": "G#2",
          "ticks": 2232,
          "time": 11.625,
          "velocity": 0.7874015748031497
        },
        {
          "duration": 0.125,
          "durationTicks": 24,
          "midi": 36,
          "name": "C2",
          "ticks": 2255,
          "time": 11.744791666666666,
          "velocity": 0.7874015748031497
        },
        {
          "duration": 0.125,
          "durationTicks": 24,
          "midi": 61,
          "name": "C#4",
          "ticks": 2256,
          "time": 11.75,
          "velocity": 0.7874015748031497
        },
        {
          "duration": 0.125,
          "durationTicks": 24,
          "midi": 36,
          "name": "C2",
          "ticks": 2279,
          "time": 11.869791666666666,
          "velocity": 0.7874015748031497
        },
        {
          "duration": 0.125,
          "durationTicks": 24,
          "midi": 61,
          "name": "C#4",
          "ticks": 2280,
          "time": 11.875,
          "velocity": 0.7874015748031497
        },
        {
          "duration": 0.125,
          "durationTicks": 24,
          "midi": 44,
          "name": "G#2",
          "ticks": 2304,
          "time": 12,
          "velocity": 0.7874015748031497
        },
        {
          "duration": 0.125,
          "durationTicks": 24,
          "midi": 44,
          "name": "G#2",
          "ticks": 2328,
          "time": 12.125,
          "velocity": 0.7874015748031497
        },
        {
          "duration": 0.125,
          "durationTicks": 24,
          "midi": 36,
          "name": "C2",
          "ticks": 2351,
          "time": 12.244791666666666,
          "velocity": 0.7874015748031497
        },
        {
          "duration": 0.125,
          "durationTicks": 24,
          "midi": 36,
          "name": "C2",
          "ticks": 2375,
          "time": 12.369791666666666,
          "velocity": 0.7874015748031497
        },
        {
          "duration": 0.125,
          "durationTicks": 24,
          "midi": 39,
          "name": "D#2",
          "ticks": 2400,
          "time": 12.5,
          "velocity": 0.7874015748031497
        },
        {
          "duration": 0.125,
          "durationTicks": 24,
          "midi": 44,
          "name": "G#2",
          "ticks": 2400,
          "time": 12.5,
          "velocity": 0.7874015748031497
        },
        {
          "duration": 0.125,
          "durationTicks": 24,
          "midi": 44,
          "name": "G#2",
          "ticks": 2424,
          "time": 12.625,
          "velocity": 0.7874015748031497
        },
        {
          "duration": 0.125,
          "durationTicks": 24,
          "midi": 36,
          "name": "C2",
          "ticks": 2447,
          "time": 12.744791666666666,
          "velocity": 0.7874015748031497
        },
        {
          "duration": 0.125,
          "durationTicks": 24,
          "midi": 36,
          "name": "C2",
          "ticks": 2471,
          "time": 12.869791666666666,
          "velocity": 0.7874015748031497
        },
        {
          "duration": 0.125,
          "durationTicks": 24,
          "midi": 44,
          "name": "G#2",
          "ticks": 2496,
          "time": 13,
          "velocity": 0.7874015748031497
        },
        {
          "duration": 0.125,
          "durationTicks": 24,
          "midi": 44,
          "name": "G#2",
          "ticks": 2520,
          "time": 13.125,
          "velocity": 0.7874015748031497
        },
        {
          "duration": 0.125,
          "durationTicks": 24,
          "midi": 36,
          "name": "C2",
          "ticks": 2543,
          "time": 13.244791666666666,
          "velocity": 0.7874015748031497
        },
        {
          "duration": 0.125,
          "durationTicks": 24,
          "midi": 36,
          "name": "C2",
          "ticks": 2567,
          "time": 13.369791666666666,
          "velocity": 0.7874015748031497
        },
        {
          "duration": 0.125,
          "durationTicks": 24,
          "midi": 39,
          "name": "D#2",
          "ticks": 2592,
          "time": 13.5,
          "velocity": 0.7874015748031497
        },
        {
          "duration": 0.125,
          "durationTicks": 24,
          "midi": 44,
          "name": "G#2",
          "ticks": 2592,
          "time": 13.5,
          "velocity": 0.7874015748031497
        },
        {
          "duration": 0.125,
          "durationTicks": 24,
          "midi": 44,
          "name": "G#2",
          "ticks": 2616,
          "time": 13.625,
          "velocity": 0.7874015748031497
        },
        {
          "duration": 0.125,
          "durationTicks": 24,
          "midi": 36,
          "name": "C2",
          "ticks": 2639,
          "time": 13.744791666666666,
          "velocity": 0.7874015748031497
        },
        {
          "duration": 0.125,
          "durationTicks": 24,
          "midi": 61,
          "name": "C#4",
          "ticks": 2640,
          "time": 13.75,
          "velocity": 0.7874015748031497
        },
        {
          "duration": 0.125,
          "durationTicks": 24,
          "midi": 36,
          "name": "C2",
          "ticks": 2663,
          "time": 13.869791666666666,
          "velocity": 0.7874015748031497
        },
        {
          "duration": 0.125,
          "durationTicks": 24,
          "midi": 61,
          "name": "C#4",
          "ticks": 2664,
          "time": 13.875,
          "velocity": 0.7874015748031497
        },
        {
          "duration": 0.125,
          "durationTicks": 24,
          "midi": 62,
          "name": "D4",
          "ticks": 2736,
          "time": 14.25,
          "velocity": 0.7874015748031497
        },
        {
          "duration": 0.125,
          "durationTicks": 24,
          "midi": 61,
          "name": "C#4",
          "ticks": 2784,
          "time": 14.5,
          "velocity": 0.7874015748031497
        },
        {
          "duration": 0.125,
          "durationTicks": 24,
          "midi": 61,
          "name": "C#4",
          "ticks": 2808,
          "time": 14.625,
          "velocity": 0.7874015748031497
        },
        {
          "duration": 0.125,
          "durationTicks": 24,
          "midi": 61,
          "name": "C#4",
          "ticks": 2832,
          "time": 14.75,
          "velocity": 0.7874015748031497
        },
        {
          "duration": 0.125,
          "durationTicks": 24,
          "midi": 62,
          "name": "D4",
          "ticks": 2856,
          "time": 14.875,
          "velocity": 0.7874015748031497
        },
        {
          "duration": 0.125,
          "durationTicks": 24,
          "midi": 44,
          "name": "G#2",
          "ticks": 3072,
          "time": 16,
          "velocity": 0.7874015748031497
        },
        {
          "duration": 0.125,
          "durationTicks": 24,
          "midi": 44,
          "name": "G#2",
          "ticks": 3096,
          "time": 16.125,
          "velocity": 0.7874015748031497
        },
        {
          "duration": 0.125,
          "durationTicks": 24,
          "midi": 36,
          "name": "C2",
          "ticks": 3119,
          "time": 16.244791666666668,
          "velocity": 0.7874015748031497
        },
        {
          "duration": 0.125,
          "durationTicks": 24,
          "midi": 36,
          "name": "C2",
          "ticks": 3143,
          "time": 16.369791666666668,
          "velocity": 0.7874015748031497
        },
        {
          "duration": 0.15104166666666785,
          "durationTicks": 29,
          "midi": 39,
          "name": "D#2",
          "ticks": 3163,
          "time": 16.473958333333332,
          "velocity": 0.7874015748031497
        },
        {
          "duration": 0.125,
          "durationTicks": 24,
          "midi": 44,
          "name": "G#2",
          "ticks": 3168,
          "time": 16.5,
          "velocity": 0.7874015748031497
        },
        {
          "duration": 0.125,
          "durationTicks": 24,
          "midi": 44,
          "name": "G#2",
          "ticks": 3192,
          "time": 16.625,
          "velocity": 0.7874015748031497
        },
        {
          "duration": 0.125,
          "durationTicks": 24,
          "midi": 36,
          "name": "C2",
          "ticks": 3215,
          "time": 16.744791666666668,
          "velocity": 0.7874015748031497
        },
        {
          "duration": 0.125,
          "durationTicks": 24,
          "midi": 36,
          "name": "C2",
          "ticks": 3239,
          "time": 16.869791666666668,
          "velocity": 0.7874015748031497
        },
        {
          "duration": 0.125,
          "durationTicks": 24,
          "midi": 44,
          "name": "G#2",
          "ticks": 3264,
          "time": 17,
          "velocity": 0.7874015748031497
        },
        {
          "duration": 0.125,
          "durationTicks": 24,
          "midi": 44,
          "name": "G#2",
          "ticks": 3288,
          "time": 17.125,
          "velocity": 0.7874015748031497
        },
        {
          "duration": 0.125,
          "durationTicks": 24,
          "midi": 36,
          "name": "C2",
          "ticks": 3311,
          "time": 17.244791666666668,
          "velocity": 0.7874015748031497
        },
        {
          "duration": 0.125,
          "durationTicks": 24,
          "midi": 36,
          "name": "C2",
          "ticks": 3335,
          "time": 17.369791666666668,
          "velocity": 0.7874015748031497
        },
        {
          "duration": 0.125,
          "durationTicks": 24,
          "midi": 39,
          "name": "D#2",
          "ticks": 3360,
          "time": 17.5,
          "velocity": 0.7874015748031497
        },
        {
          "duration": 0.125,
          "durationTicks": 24,
          "midi": 44,
          "name": "G#2",
          "ticks": 3360,
          "time": 17.5,
          "velocity": 0.7874015748031497
        },
        {
          "duration": 0.125,
          "durationTicks": 24,
          "midi": 44,
          "name": "G#2",
          "ticks": 3384,
          "time": 17.625,
          "velocity": 0.7874015748031497
        },
        {
          "duration": 0.125,
          "durationTicks": 24,
          "midi": 36,
          "name": "C2",
          "ticks": 3407,
          "time": 17.744791666666668,
          "velocity": 0.7874015748031497
        },
        {
          "duration": 0.125,
          "durationTicks": 24,
          "midi": 36,
          "name": "C2",
          "ticks": 3431,
          "time": 17.869791666666668,
          "velocity": 0.7874015748031497
        },
        {
          "duration": 0.125,
          "durationTicks": 24,
          "midi": 44,
          "name": "G#2",
          "ticks": 3456,
          "time": 18,
          "velocity": 0.7874015748031497
        },
        {
          "duration": 0.125,
          "durationTicks": 24,
          "midi": 44,
          "name": "G#2",
          "ticks": 3480,
          "time": 18.125,
          "velocity": 0.7874015748031497
        },
        {
          "duration": 0.125,
          "durationTicks": 24,
          "midi": 36,
          "name": "C2",
          "ticks": 3503,
          "time": 18.244791666666668,
          "velocity": 0.7874015748031497
        },
        {
          "duration": 0.125,
          "durationTicks": 24,
          "midi": 36,
          "name": "C2",
          "ticks": 3527,
          "time": 18.369791666666668,
          "velocity": 0.7874015748031497
        },
        {
          "duration": 0.125,
          "durationTicks": 24,
          "midi": 39,
          "name": "D#2",
          "ticks": 3552,
          "time": 18.5,
          "velocity": 0.7874015748031497
        },
        {
          "duration": 0.125,
          "durationTicks": 24,
          "midi": 44,
          "name": "G#2",
          "ticks": 3552,
          "time": 18.5,
          "velocity": 0.7874015748031497
        },
        {
          "duration": 0.125,
          "durationTicks": 24,
          "midi": 44,
          "name": "G#2",
          "ticks": 3576,
          "time": 18.625,
          "velocity": 0.7874015748031497
        },
        {
          "duration": 0.125,
          "durationTicks": 24,
          "midi": 36,
          "name": "C2",
          "ticks": 3599,
          "time": 18.744791666666668,
          "velocity": 0.7874015748031497
        },
        {
          "duration": 0.125,
          "durationTicks": 24,
          "midi": 36,
          "name": "C2",
          "ticks": 3623,
          "time": 18.869791666666668,
          "velocity": 0.7874015748031497
        },
        {
          "duration": 0.125,
          "durationTicks": 24,
          "midi": 44,
          "name": "G#2",
          "ticks": 3648,
          "time": 19,
          "velocity": 0.7874015748031497
        },
        {
          "duration": 0.125,
          "durationTicks": 24,
          "midi": 44,
          "name": "G#2",
          "ticks": 3672,
          "time": 19.125,
          "velocity": 0.7874015748031497
        },
        {
          "duration": 0.125,
          "durationTicks": 24,
          "midi": 36,
          "name": "C2",
          "ticks": 3695,
          "time": 19.244791666666668,
          "velocity": 0.7874015748031497
        },
        {
          "duration": 0.125,
          "durationTicks": 24,
          "midi": 36,
          "name": "C2",
          "ticks": 3719,
          "time": 19.369791666666668,
          "velocity": 0.7874015748031497
        },
        {
          "duration": 0.125,
          "durationTicks": 24,
          "midi": 39,
          "name": "D#2",
          "ticks": 3720,
          "time": 19.375,
          "velocity": 0.7874015748031497
        },
        {
          "duration": 0.125,
          "durationTicks": 24,
          "midi": 39,
          "name": "D#2",
          "ticks": 3744,
          "time": 19.5,
          "velocity": 0.7874015748031497
        },
        {
          "duration": 0.125,
          "durationTicks": 24,
          "midi": 44,
          "name": "G#2",
          "ticks": 3744,
          "time": 19.5,
          "velocity": 0.7874015748031497
        },
        {
          "duration": 0.125,
          "durationTicks": 24,
          "midi": 44,
          "name": "G#2",
          "ticks": 3768,
          "time": 19.625,
          "velocity": 0.7874015748031497
        },
        {
          "duration": 0.125,
          "durationTicks": 24,
          "midi": 36,
          "name": "C2",
          "ticks": 3791,
          "time": 19.744791666666668,
          "velocity": 0.7874015748031497
        },
        {
          "duration": 0.125,
          "durationTicks": 24,
          "midi": 36,
          "name": "C2",
          "ticks": 3815,
          "time": 19.869791666666668,
          "velocity": 0.7874015748031497
        },
        {
          "duration": 0.125,
          "durationTicks": 24,
          "midi": 44,
          "name": "G#2",
          "ticks": 3840,
          "time": 20,
          "velocity": 0.7874015748031497
        },
        {
          "duration": 0.125,
          "durationTicks": 24,
          "midi": 44,
          "name": "G#2",
          "ticks": 3864,
          "time": 20.125,
          "velocity": 0.7874015748031497
        },
        {
          "duration": 0.125,
          "durationTicks": 24,
          "midi": 36,
          "name": "C2",
          "ticks": 3887,
          "time": 20.244791666666668,
          "velocity": 0.7874015748031497
        },
        {
          "duration": 0.125,
          "durationTicks": 24,
          "midi": 36,
          "name": "C2",
          "ticks": 3911,
          "time": 20.369791666666668,
          "velocity": 0.7874015748031497
        },
        {
          "duration": 0.125,
          "durationTicks": 24,
          "midi": 39,
          "name": "D#2",
          "ticks": 3936,
          "time": 20.5,
          "velocity": 0.7874015748031497
        },
        {
          "duration": 0.125,
          "durationTicks": 24,
          "midi": 44,
          "name": "G#2",
          "ticks": 3936,
          "time": 20.5,
          "velocity": 0.7874015748031497
        },
        {
          "duration": 0.125,
          "durationTicks": 24,
          "midi": 44,
          "name": "G#2",
          "ticks": 3960,
          "time": 20.625,
          "velocity": 0.7874015748031497
        },
        {
          "duration": 0.125,
          "durationTicks": 24,
          "midi": 36,
          "name": "C2",
          "ticks": 3983,
          "time": 20.744791666666668,
          "velocity": 0.7874015748031497
        },
        {
          "duration": 0.125,
          "durationTicks": 24,
          "midi": 36,
          "name": "C2",
          "ticks": 4007,
          "time": 20.869791666666668,
          "velocity": 0.7874015748031497
        },
        {
          "duration": 0.125,
          "durationTicks": 24,
          "midi": 44,
          "name": "G#2",
          "ticks": 4032,
          "time": 21,
          "velocity": 0.7874015748031497
        },
        {
          "duration": 0.125,
          "durationTicks": 24,
          "midi": 44,
          "name": "G#2",
          "ticks": 4056,
          "time": 21.125,
          "velocity": 0.7874015748031497
        },
        {
          "duration": 0.125,
          "durationTicks": 24,
          "midi": 36,
          "name": "C2",
          "ticks": 4079,
          "time": 21.244791666666668,
          "velocity": 0.7874015748031497
        },
        {
          "duration": 0.125,
          "durationTicks": 24,
          "midi": 36,
          "name": "C2",
          "ticks": 4103,
          "time": 21.369791666666668,
          "velocity": 0.7874015748031497
        },
        {
          "duration": 0.125,
          "durationTicks": 24,
          "midi": 39,
          "name": "D#2",
          "ticks": 4128,
          "time": 21.5,
          "velocity": 0.7874015748031497
        },
        {
          "duration": 0.125,
          "durationTicks": 24,
          "midi": 44,
          "name": "G#2",
          "ticks": 4128,
          "time": 21.5,
          "velocity": 0.7874015748031497
        },
        {
          "duration": 0.125,
          "durationTicks": 24,
          "midi": 44,
          "name": "G#2",
          "ticks": 4152,
          "time": 21.625,
          "velocity": 0.7874015748031497
        },
        {
          "duration": 0.125,
          "durationTicks": 24,
          "midi": 36,
          "name": "C2",
          "ticks": 4175,
          "time": 21.744791666666668,
          "velocity": 0.7874015748031497
        },
        {
          "duration": 0.125,
          "durationTicks": 24,
          "midi": 36,
          "name": "C2",
          "ticks": 4199,
          "time": 21.869791666666668,
          "velocity": 0.7874015748031497
        },
        {
          "duration": 0.125,
          "durationTicks": 24,
          "midi": 44,
          "name": "G#2",
          "ticks": 4224,
          "time": 22,
          "velocity": 0.7874015748031497
        },
        {
          "duration": 0.125,
          "durationTicks": 24,
          "midi": 44,
          "name": "G#2",
          "ticks": 4248,
          "time": 22.125,
          "velocity": 0.7874015748031497
        },
        {
          "duration": 0.125,
          "durationTicks": 24,
          "midi": 36,
          "name": "C2",
          "ticks": 4271,
          "time": 22.244791666666668,
          "velocity": 0.7874015748031497
        },
        {
          "duration": 0.125,
          "durationTicks": 24,
          "midi": 36,
          "name": "C2",
          "ticks": 4295,
          "time": 22.369791666666668,
          "velocity": 0.7874015748031497
        },
        {
          "duration": 0.125,
          "durationTicks": 24,
          "midi": 39,
          "name": "D#2",
          "ticks": 4320,
          "time": 22.5,
          "velocity": 0.7874015748031497
        },
        {
          "duration": 0.125,
          "durationTicks": 24,
          "midi": 44,
          "name": "G#2",
          "ticks": 4320,
          "time": 22.5,
          "velocity": 0.7874015748031497
        },
        {
          "duration": 0.125,
          "durationTicks": 24,
          "midi": 44,
          "name": "G#2",
          "ticks": 4344,
          "time": 22.625,
          "velocity": 0.7874015748031497
        },
        {
          "duration": 0.125,
          "durationTicks": 24,
          "midi": 36,
          "name": "C2",
          "ticks": 4367,
          "time": 22.744791666666668,
          "velocity": 0.7874015748031497
        },
        {
          "duration": 0.125,
          "durationTicks": 24,
          "midi": 36,
          "name": "C2",
          "ticks": 4391,
          "time": 22.869791666666668,
          "velocity": 0.7874015748031497
        },
        {
          "duration": 0.125,
          "durationTicks": 24,
          "midi": 44,
          "name": "G#2",
          "ticks": 4416,
          "time": 23,
          "velocity": 0.7874015748031497
        },
        {
          "duration": 0.125,
          "durationTicks": 24,
          "midi": 44,
          "name": "G#2",
          "ticks": 4440,
          "time": 23.125,
          "velocity": 0.7874015748031497
        },
        {
          "duration": 0.125,
          "durationTicks": 24,
          "midi": 36,
          "name": "C2",
          "ticks": 4463,
          "time": 23.244791666666668,
          "velocity": 0.7874015748031497
        },
        {
          "duration": 0.125,
          "durationTicks": 24,
          "midi": 36,
          "name": "C2",
          "ticks": 4487,
          "time": 23.369791666666668,
          "velocity": 0.7874015748031497
        },
        {
          "duration": 0.125,
          "durationTicks": 24,
          "midi": 39,
          "name": "D#2",
          "ticks": 4488,
          "time": 23.375,
          "velocity": 0.7874015748031497
        },
        {
          "duration": 0.125,
          "durationTicks": 24,
          "midi": 39,
          "name": "D#2",
          "ticks": 4512,
          "time": 23.5,
          "velocity": 0.7874015748031497
        },
        {
          "duration": 0.125,
          "durationTicks": 24,
          "midi": 44,
          "name": "G#2",
          "ticks": 4512,
          "time": 23.5,
          "velocity": 0.7874015748031497
        },
        {
          "duration": 0.125,
          "durationTicks": 24,
          "midi": 44,
          "name": "G#2",
          "ticks": 4536,
          "time": 23.625,
          "velocity": 0.7874015748031497
        },
        {
          "duration": 0.125,
          "durationTicks": 24,
          "midi": 36,
          "name": "C2",
          "ticks": 4559,
          "time": 23.744791666666668,
          "velocity": 0.7874015748031497
        },
        {
          "duration": 0.125,
          "durationTicks": 24,
          "midi": 36,
          "name": "C2",
          "ticks": 4583,
          "time": 23.869791666666668,
          "velocity": 0.7874015748031497
        },
        {
          "duration": 0.125,
          "durationTicks": 24,
          "midi": 44,
          "name": "G#2",
          "ticks": 4608,
          "time": 24,
          "velocity": 0.7874015748031497
        },
        {
          "duration": 0.125,
          "durationTicks": 24,
          "midi": 44,
          "name": "G#2",
          "ticks": 4632,
          "time": 24.125,
          "velocity": 0.7874015748031497
        },
        {
          "duration": 0.125,
          "durationTicks": 24,
          "midi": 36,
          "name": "C2",
          "ticks": 4655,
          "time": 24.244791666666668,
          "velocity": 0.7874015748031497
        },
        {
          "duration": 0.125,
          "durationTicks": 24,
          "midi": 36,
          "name": "C2",
          "ticks": 4679,
          "time": 24.369791666666668,
          "velocity": 0.7874015748031497
        },
        {
          "duration": 0.125,
          "durationTicks": 24,
          "midi": 39,
          "name": "D#2",
          "ticks": 4704,
          "time": 24.5,
          "velocity": 0.7874015748031497
        },
        {
          "duration": 0.125,
          "durationTicks": 24,
          "midi": 44,
          "name": "G#2",
          "ticks": 4704,
          "time": 24.5,
          "velocity": 0.7874015748031497
        },
        {
          "duration": 0.125,
          "durationTicks": 24,
          "midi": 44,
          "name": "G#2",
          "ticks": 4728,
          "time": 24.625,
          "velocity": 0.7874015748031497
        },
        {
          "duration": 0.125,
          "durationTicks": 24,
          "midi": 36,
          "name": "C2",
          "ticks": 4751,
          "time": 24.744791666666668,
          "velocity": 0.7874015748031497
        },
        {
          "duration": 0.125,
          "durationTicks": 24,
          "midi": 36,
          "name": "C2",
          "ticks": 4775,
          "time": 24.869791666666668,
          "velocity": 0.7874015748031497
        },
        {
          "duration": 0.125,
          "durationTicks": 24,
          "midi": 44,
          "name": "G#2",
          "ticks": 4800,
          "time": 25,
          "velocity": 0.7874015748031497
        },
        {
          "duration": 0.125,
          "durationTicks": 24,
          "midi": 44,
          "name": "G#2",
          "ticks": 4824,
          "time": 25.125,
          "velocity": 0.7874015748031497
        },
        {
          "duration": 0.125,
          "durationTicks": 24,
          "midi": 36,
          "name": "C2",
          "ticks": 4847,
          "time": 25.244791666666668,
          "velocity": 0.7874015748031497
        },
        {
          "duration": 0.125,
          "durationTicks": 24,
          "midi": 36,
          "name": "C2",
          "ticks": 4871,
          "time": 25.369791666666668,
          "velocity": 0.7874015748031497
        },
        {
          "duration": 0.125,
          "durationTicks": 24,
          "midi": 39,
          "name": "D#2",
          "ticks": 4896,
          "time": 25.5,
          "velocity": 0.7874015748031497
        },
        {
          "duration": 0.125,
          "durationTicks": 24,
          "midi": 44,
          "name": "G#2",
          "ticks": 4896,
          "time": 25.5,
          "velocity": 0.7874015748031497
        },
        {
          "duration": 0.125,
          "durationTicks": 24,
          "midi": 44,
          "name": "G#2",
          "ticks": 4920,
          "time": 25.625,
          "velocity": 0.7874015748031497
        },
        {
          "duration": 0.125,
          "durationTicks": 24,
          "midi": 36,
          "name": "C2",
          "ticks": 4943,
          "time": 25.744791666666668,
          "velocity": 0.7874015748031497
        },
        {
          "duration": 0.125,
          "durationTicks": 24,
          "midi": 36,
          "name": "C2",
          "ticks": 4967,
          "time": 25.869791666666668,
          "velocity": 0.7874015748031497
        },
        {
          "duration": 0.125,
          "durationTicks": 24,
          "midi": 44,
          "name": "G#2",
          "ticks": 4992,
          "time": 26,
          "velocity": 0.7874015748031497
        },
        {
          "duration": 0.125,
          "durationTicks": 24,
          "midi": 44,
          "name": "G#2",
          "ticks": 5016,
          "time": 26.125,
          "velocity": 0.7874015748031497
        },
        {
          "duration": 0.125,
          "durationTicks": 24,
          "midi": 36,
          "name": "C2",
          "ticks": 5039,
          "time": 26.244791666666668,
          "velocity": 0.7874015748031497
        },
        {
          "duration": 0.125,
          "durationTicks": 24,
          "midi": 36,
          "name": "C2",
          "ticks": 5063,
          "time": 26.369791666666668,
          "velocity": 0.7874015748031497
        },
        {
          "duration": 0.125,
          "durationTicks": 24,
          "midi": 39,
          "name": "D#2",
          "ticks": 5088,
          "time": 26.5,
          "velocity": 0.7874015748031497
        },
        {
          "duration": 0.125,
          "durationTicks": 24,
          "midi": 44,
          "name": "G#2",
          "ticks": 5088,
          "time": 26.5,
          "velocity": 0.7874015748031497
        },
        {
          "duration": 0.125,
          "durationTicks": 24,
          "midi": 44,
          "name": "G#2",
          "ticks": 5112,
          "time": 26.625,
          "velocity": 0.7874015748031497
        },
        {
          "duration": 0.125,
          "durationTicks": 24,
          "midi": 36,
          "name": "C2",
          "ticks": 5135,
          "time": 26.744791666666668,
          "velocity": 0.7874015748031497
        },
        {
          "duration": 0.125,
          "durationTicks": 24,
          "midi": 36,
          "name": "C2",
          "ticks": 5159,
          "time": 26.869791666666668,
          "velocity": 0.7874015748031497
        },
        {
          "duration": 0.125,
          "durationTicks": 24,
          "midi": 44,
          "name": "G#2",
          "ticks": 5184,
          "time": 27,
          "velocity": 0.7874015748031497
        },
        {
          "duration": 0.125,
          "durationTicks": 24,
          "midi": 44,
          "name": "G#2",
          "ticks": 5208,
          "time": 27.125,
          "velocity": 0.7874015748031497
        },
        {
          "duration": 0.125,
          "durationTicks": 24,
          "midi": 36,
          "name": "C2",
          "ticks": 5231,
          "time": 27.244791666666668,
          "velocity": 0.7874015748031497
        },
        {
          "duration": 0.125,
          "durationTicks": 24,
          "midi": 36,
          "name": "C2",
          "ticks": 5255,
          "time": 27.369791666666668,
          "velocity": 0.7874015748031497
        },
        {
          "duration": 0.125,
          "durationTicks": 24,
          "midi": 39,
          "name": "D#2",
          "ticks": 5256,
          "time": 27.375,
          "velocity": 0.7874015748031497
        },
        {
          "duration": 0.125,
          "durationTicks": 24,
          "midi": 39,
          "name": "D#2",
          "ticks": 5280,
          "time": 27.5,
          "velocity": 0.7874015748031497
        },
        {
          "duration": 0.125,
          "durationTicks": 24,
          "midi": 44,
          "name": "G#2",
          "ticks": 5280,
          "time": 27.5,
          "velocity": 0.7874015748031497
        },
        {
          "duration": 0.125,
          "durationTicks": 24,
          "midi": 44,
          "name": "G#2",
          "ticks": 5304,
          "time": 27.625,
          "velocity": 0.7874015748031497
        },
        {
          "duration": 0.125,
          "durationTicks": 24,
          "midi": 36,
          "name": "C2",
          "ticks": 5327,
          "time": 27.744791666666668,
          "velocity": 0.7874015748031497
        },
        {
          "duration": 0.125,
          "durationTicks": 24,
          "midi": 36,
          "name": "C2",
          "ticks": 5351,
          "time": 27.869791666666668,
          "velocity": 0.7874015748031497
        },
        {
          "duration": 0.125,
          "durationTicks": 24,
          "midi": 44,
          "name": "G#2",
          "ticks": 5376,
          "time": 28,
          "velocity": 0.7874015748031497
        },
        {
          "duration": 0.125,
          "durationTicks": 24,
          "midi": 44,
          "name": "G#2",
          "ticks": 5400,
          "time": 28.125,
          "velocity": 0.7874015748031497
        },
        {
          "duration": 0.125,
          "durationTicks": 24,
          "midi": 36,
          "name": "C2",
          "ticks": 5423,
          "time": 28.244791666666668,
          "velocity": 0.7874015748031497
        },
        {
          "duration": 0.125,
          "durationTicks": 24,
          "midi": 36,
          "name": "C2",
          "ticks": 5447,
          "time": 28.369791666666668,
          "velocity": 0.7874015748031497
        },
        {
          "duration": 0.125,
          "durationTicks": 24,
          "midi": 39,
          "name": "D#2",
          "ticks": 5472,
          "time": 28.5,
          "velocity": 0.7874015748031497
        },
        {
          "duration": 0.125,
          "durationTicks": 24,
          "midi": 44,
          "name": "G#2",
          "ticks": 5472,
          "time": 28.5,
          "velocity": 0.7874015748031497
        },
        {
          "duration": 0.125,
          "durationTicks": 24,
          "midi": 44,
          "name": "G#2",
          "ticks": 5496,
          "time": 28.625,
          "velocity": 0.7874015748031497
        },
        {
          "duration": 0.125,
          "durationTicks": 24,
          "midi": 36,
          "name": "C2",
          "ticks": 5519,
          "time": 28.744791666666668,
          "velocity": 0.7874015748031497
        },
        {
          "duration": 0.125,
          "durationTicks": 24,
          "midi": 36,
          "name": "C2",
          "ticks": 5543,
          "time": 28.869791666666668,
          "velocity": 0.7874015748031497
        },
        {
          "duration": 0.125,
          "durationTicks": 24,
          "midi": 44,
          "name": "G#2",
          "ticks": 5568,
          "time": 29,
          "velocity": 0.7874015748031497
        },
        {
          "duration": 0.125,
          "durationTicks": 24,
          "midi": 44,
          "name": "G#2",
          "ticks": 5592,
          "time": 29.125,
          "velocity": 0.7874015748031497
        },
        {
          "duration": 0.125,
          "durationTicks": 24,
          "midi": 36,
          "name": "C2",
          "ticks": 5615,
          "time": 29.244791666666668,
          "velocity": 0.7874015748031497
        },
        {
          "duration": 0.125,
          "durationTicks": 24,
          "midi": 36,
          "name": "C2",
          "ticks": 5639,
          "time": 29.369791666666668,
          "velocity": 0.7874015748031497
        },
        {
          "duration": 0.125,
          "durationTicks": 24,
          "midi": 39,
          "name": "D#2",
          "ticks": 5664,
          "time": 29.5,
          "velocity": 0.7874015748031497
        },
        {
          "duration": 0.125,
          "durationTicks": 24,
          "midi": 44,
          "name": "G#2",
          "ticks": 5664,
          "time": 29.5,
          "velocity": 0.7874015748031497
        },
        {
          "duration": 0.125,
          "durationTicks": 24,
          "midi": 44,
          "name": "G#2",
          "ticks": 5688,
          "time": 29.625,
          "velocity": 0.7874015748031497
        },
        {
          "duration": 0.125,
          "durationTicks": 24,
          "midi": 36,
          "name": "C2",
          "ticks": 5711,
          "time": 29.744791666666668,
          "velocity": 0.7874015748031497
        },
        {
          "duration": 0.125,
          "durationTicks": 24,
          "midi": 36,
          "name": "C2",
          "ticks": 5735,
          "time": 29.869791666666668,
          "velocity": 0.7874015748031497
        },
        {
          "duration": 0.125,
          "durationTicks": 24,
          "midi": 44,
          "name": "G#2",
          "ticks": 6144,
          "time": 32,
          "velocity": 0.7874015748031497
        },
        {
          "duration": 0.125,
          "durationTicks": 24,
          "midi": 44,
          "name": "G#2",
          "ticks": 6168,
          "time": 32.125,
          "velocity": 0.7874015748031497
        },
        {
          "duration": 0.125,
          "durationTicks": 24,
          "midi": 36,
          "name": "C2",
          "ticks": 6191,
          "time": 32.244791666666664,
          "velocity": 0.7874015748031497
        },
        {
          "duration": 0.125,
          "durationTicks": 24,
          "midi": 36,
          "name": "C2",
          "ticks": 6215,
          "time": 32.369791666666664,
          "velocity": 0.7874015748031497
        },
        {
          "duration": 0.125,
          "durationTicks": 24,
          "midi": 39,
          "name": "D#2",
          "ticks": 6240,
          "time": 32.5,
          "velocity": 0.7874015748031497
        },
        {
          "duration": 0.125,
          "durationTicks": 24,
          "midi": 44,
          "name": "G#2",
          "ticks": 6240,
          "time": 32.5,
          "velocity": 0.7874015748031497
        },
        {
          "duration": 0.125,
          "durationTicks": 24,
          "midi": 44,
          "name": "G#2",
          "ticks": 6264,
          "time": 32.625,
          "velocity": 0.7874015748031497
        },
        {
          "duration": 0.125,
          "durationTicks": 24,
          "midi": 36,
          "name": "C2",
          "ticks": 6287,
          "time": 32.744791666666664,
          "velocity": 0.7874015748031497
        },
        {
          "duration": 0.125,
          "durationTicks": 24,
          "midi": 36,
          "name": "C2",
          "ticks": 6311,
          "time": 32.869791666666664,
          "velocity": 0.7874015748031497
        },
        {
          "duration": 0.125,
          "durationTicks": 24,
          "midi": 44,
          "name": "G#2",
          "ticks": 6336,
          "time": 33,
          "velocity": 0.7874015748031497
        },
        {
          "duration": 0.125,
          "durationTicks": 24,
          "midi": 44,
          "name": "G#2",
          "ticks": 6360,
          "time": 33.125,
          "velocity": 0.7874015748031497
        },
        {
          "duration": 0.125,
          "durationTicks": 24,
          "midi": 36,
          "name": "C2",
          "ticks": 6383,
          "time": 33.244791666666664,
          "velocity": 0.7874015748031497
        },
        {
          "duration": 0.125,
          "durationTicks": 24,
          "midi": 36,
          "name": "C2",
          "ticks": 6407,
          "time": 33.369791666666664,
          "velocity": 0.7874015748031497
        },
        {
          "duration": 0.125,
          "durationTicks": 24,
          "midi": 39,
          "name": "D#2",
          "ticks": 6432,
          "time": 33.5,
          "velocity": 0.7874015748031497
        },
        {
          "duration": 0.125,
          "durationTicks": 24,
          "midi": 44,
          "name": "G#2",
          "ticks": 6432,
          "time": 33.5,
          "velocity": 0.7874015748031497
        },
        {
          "duration": 0.125,
          "durationTicks": 24,
          "midi": 44,
          "name": "G#2",
          "ticks": 6456,
          "time": 33.625,
          "velocity": 0.7874015748031497
        },
        {
          "duration": 0.125,
          "durationTicks": 24,
          "midi": 36,
          "name": "C2",
          "ticks": 6479,
          "time": 33.744791666666664,
          "velocity": 0.7874015748031497
        },
        {
          "duration": 0.125,
          "durationTicks": 24,
          "midi": 61,
          "name": "C#4",
          "ticks": 6480,
          "time": 33.75,
          "velocity": 0.7874015748031497
        },
        {
          "duration": 0.125,
          "durationTicks": 24,
          "midi": 36,
          "name": "C2",
          "ticks": 6503,
          "time": 33.869791666666664,
          "velocity": 0.7874015748031497
        },
        {
          "duration": 0.125,
          "durationTicks": 24,
          "midi": 61,
          "name": "C#4",
          "ticks": 6504,
          "time": 33.875,
          "velocity": 0.7874015748031497
        },
        {
          "duration": 0.125,
          "durationTicks": 24,
          "midi": 44,
          "name": "G#2",
          "ticks": 6528,
          "time": 34,
          "velocity": 0.7874015748031497
        },
        {
          "duration": 0.125,
          "durationTicks": 24,
          "midi": 44,
          "name": "G#2",
          "ticks": 6552,
          "time": 34.125,
          "velocity": 0.7874015748031497
        },
        {
          "duration": 0.125,
          "durationTicks": 24,
          "midi": 36,
          "name": "C2",
          "ticks": 6575,
          "time": 34.244791666666664,
          "velocity": 0.7874015748031497
        },
        {
          "duration": 0.125,
          "durationTicks": 24,
          "midi": 62,
          "name": "D4",
          "ticks": 6576,
          "time": 34.25,
          "velocity": 0.7874015748031497
        },
        {
          "duration": 0.125,
          "durationTicks": 24,
          "midi": 36,
          "name": "C2",
          "ticks": 6599,
          "time": 34.369791666666664,
          "velocity": 0.7874015748031497
        },
        {
          "duration": 0.125,
          "durationTicks": 24,
          "midi": 39,
          "name": "D#2",
          "ticks": 6624,
          "time": 34.5,
          "velocity": 0.7874015748031497
        },
        {
          "duration": 0.125,
          "durationTicks": 24,
          "midi": 61,
          "name": "C#4",
          "ticks": 6624,
          "time": 34.5,
          "velocity": 0.7874015748031497
        },
        {
          "duration": 0.125,
          "durationTicks": 24,
          "midi": 44,
          "name": "G#2",
          "ticks": 6624,
          "time": 34.5,
          "velocity": 0.7874015748031497
        },
        {
          "duration": 0.125,
          "durationTicks": 24,
          "midi": 61,
          "name": "C#4",
          "ticks": 6648,
          "time": 34.625,
          "velocity": 0.7874015748031497
        },
        {
          "duration": 0.125,
          "durationTicks": 24,
          "midi": 44,
          "name": "G#2",
          "ticks": 6648,
          "time": 34.625,
          "velocity": 0.7874015748031497
        },
        {
          "duration": 0.125,
          "durationTicks": 24,
          "midi": 36,
          "name": "C2",
          "ticks": 6671,
          "time": 34.744791666666664,
          "velocity": 0.7874015748031497
        },
        {
          "duration": 0.125,
          "durationTicks": 24,
          "midi": 36,
          "name": "C2",
          "ticks": 6695,
          "time": 34.869791666666664,
          "velocity": 0.7874015748031497
        },
        {
          "duration": 0.125,
          "durationTicks": 24,
          "midi": 62,
          "name": "D4",
          "ticks": 6696,
          "time": 34.875,
          "velocity": 0.7874015748031497
        },
        {
          "duration": 0.125,
          "durationTicks": 24,
          "midi": 44,
          "name": "G#2",
          "ticks": 6720,
          "time": 35,
          "velocity": 0.7874015748031497
        },
        {
          "duration": 0.125,
          "durationTicks": 24,
          "midi": 62,
          "name": "D4",
          "ticks": 6744,
          "time": 35.125,
          "velocity": 0.7874015748031497
        },
        {
          "duration": 0.125,
          "durationTicks": 24,
          "midi": 44,
          "name": "G#2",
          "ticks": 6744,
          "time": 35.125,
          "velocity": 0.7874015748031497
        },
        {
          "duration": 0.125,
          "durationTicks": 24,
          "midi": 36,
          "name": "C2",
          "ticks": 6767,
          "time": 35.244791666666664,
          "velocity": 0.7874015748031497
        },
        {
          "duration": 0.125,
          "durationTicks": 24,
          "midi": 61,
          "name": "C#4",
          "ticks": 6768,
          "time": 35.25,
          "velocity": 0.7874015748031497
        },
        {
          "duration": 0.125,
          "durationTicks": 24,
          "midi": 36,
          "name": "C2",
          "ticks": 6791,
          "time": 35.369791666666664,
          "velocity": 0.7874015748031497
        },
        {
          "duration": 0.125,
          "durationTicks": 24,
          "midi": 39,
          "name": "D#2",
          "ticks": 6792,
          "time": 35.375,
          "velocity": 0.7874015748031497
        },
        {
          "duration": 0.125,
          "durationTicks": 24,
          "midi": 61,
          "name": "C#4",
          "ticks": 6792,
          "time": 35.375,
          "velocity": 0.7874015748031497
        },
        {
          "duration": 0.125,
          "durationTicks": 24,
          "midi": 39,
          "name": "D#2",
          "ticks": 6816,
          "time": 35.5,
          "velocity": 0.7874015748031497
        },
        {
          "duration": 0.125,
          "durationTicks": 24,
          "midi": 61,
          "name": "C#4",
          "ticks": 6816,
          "time": 35.5,
          "velocity": 0.7874015748031497
        },
        {
          "duration": 0.125,
          "durationTicks": 24,
          "midi": 44,
          "name": "G#2",
          "ticks": 6816,
          "time": 35.5,
          "velocity": 0.7874015748031497
        },
        {
          "duration": 0.1302083333333357,
          "durationTicks": 25,
          "midi": 61,
          "name": "C#4",
          "ticks": 6839,
          "time": 35.619791666666664,
          "velocity": 0.7874015748031497
        },
        {
          "duration": 0.125,
          "durationTicks": 24,
          "midi": 44,
          "name": "G#2",
          "ticks": 6840,
          "time": 35.625,
          "velocity": 0.7874015748031497
        },
        {
          "duration": 0.125,
          "durationTicks": 24,
          "midi": 36,
          "name": "C2",
          "ticks": 6863,
          "time": 35.744791666666664,
          "velocity": 0.7874015748031497
        },
        {
          "duration": 0.125,
          "durationTicks": 24,
          "midi": 61,
          "name": "C#4",
          "ticks": 6864,
          "time": 35.75,
          "velocity": 0.7874015748031497
        },
        {
          "duration": 0.125,
          "durationTicks": 24,
          "midi": 36,
          "name": "C2",
          "ticks": 6887,
          "time": 35.869791666666664,
          "velocity": 0.7874015748031497
        },
        {
          "duration": 0.125,
          "durationTicks": 24,
          "midi": 61,
          "name": "C#4",
          "ticks": 6888,
          "time": 35.875,
          "velocity": 0.7874015748031497
        },
        {
          "duration": 0.125,
          "durationTicks": 24,
          "midi": 44,
          "name": "G#2",
          "ticks": 6912,
          "time": 36,
          "velocity": 0.7874015748031497
        },
        {
          "duration": 0.125,
          "durationTicks": 24,
          "midi": 44,
          "name": "G#2",
          "ticks": 6936,
          "time": 36.125,
          "velocity": 0.7874015748031497
        },
        {
          "duration": 0.125,
          "durationTicks": 24,
          "midi": 36,
          "name": "C2",
          "ticks": 6959,
          "time": 36.244791666666664,
          "velocity": 0.7874015748031497
        },
        {
          "duration": 0.125,
          "durationTicks": 24,
          "midi": 36,
          "name": "C2",
          "ticks": 6983,
          "time": 36.369791666666664,
          "velocity": 0.7874015748031497
        },
        {
          "duration": 0.125,
          "durationTicks": 24,
          "midi": 39,
          "name": "D#2",
          "ticks": 7008,
          "time": 36.5,
          "velocity": 0.7874015748031497
        },
        {
          "duration": 0.125,
          "durationTicks": 24,
          "midi": 44,
          "name": "G#2",
          "ticks": 7008,
          "time": 36.5,
          "velocity": 0.7874015748031497
        },
        {
          "duration": 0.125,
          "durationTicks": 24,
          "midi": 44,
          "name": "G#2",
          "ticks": 7032,
          "time": 36.625,
          "velocity": 0.7874015748031497
        },
        {
          "duration": 0.125,
          "durationTicks": 24,
          "midi": 36,
          "name": "C2",
          "ticks": 7055,
          "time": 36.744791666666664,
          "velocity": 0.7874015748031497
        },
        {
          "duration": 0.125,
          "durationTicks": 24,
          "midi": 36,
          "name": "C2",
          "ticks": 7079,
          "time": 36.869791666666664,
          "velocity": 0.7874015748031497
        },
        {
          "duration": 0.125,
          "durationTicks": 24,
          "midi": 44,
          "name": "G#2",
          "ticks": 7104,
          "time": 37,
          "velocity": 0.7874015748031497
        },
        {
          "duration": 0.125,
          "durationTicks": 24,
          "midi": 44,
          "name": "G#2",
          "ticks": 7128,
          "time": 37.125,
          "velocity": 0.7874015748031497
        },
        {
          "duration": 0.125,
          "durationTicks": 24,
          "midi": 36,
          "name": "C2",
          "ticks": 7151,
          "time": 37.244791666666664,
          "velocity": 0.7874015748031497
        },
        {
          "duration": 0.125,
          "durationTicks": 24,
          "midi": 36,
          "name": "C2",
          "ticks": 7175,
          "time": 37.369791666666664,
          "velocity": 0.7874015748031497
        },
        {
          "duration": 0.125,
          "durationTicks": 24,
          "midi": 39,
          "name": "D#2",
          "ticks": 7200,
          "time": 37.5,
          "velocity": 0.7874015748031497
        },
        {
          "duration": 0.125,
          "durationTicks": 24,
          "midi": 44,
          "name": "G#2",
          "ticks": 7200,
          "time": 37.5,
          "velocity": 0.7874015748031497
        },
        {
          "duration": 0.125,
          "durationTicks": 24,
          "midi": 44,
          "name": "G#2",
          "ticks": 7224,
          "time": 37.625,
          "velocity": 0.7874015748031497
        },
        {
          "duration": 0.125,
          "durationTicks": 24,
          "midi": 36,
          "name": "C2",
          "ticks": 7247,
          "time": 37.744791666666664,
          "velocity": 0.7874015748031497
        },
        {
          "duration": 0.125,
          "durationTicks": 24,
          "midi": 61,
          "name": "C#4",
          "ticks": 7248,
          "time": 37.75,
          "velocity": 0.7874015748031497
        },
        {
          "duration": 0.125,
          "durationTicks": 24,
          "midi": 36,
          "name": "C2",
          "ticks": 7271,
          "time": 37.869791666666664,
          "velocity": 0.7874015748031497
        },
        {
          "duration": 0.125,
          "durationTicks": 24,
          "midi": 61,
          "name": "C#4",
          "ticks": 7272,
          "time": 37.875,
          "velocity": 0.7874015748031497
        },
        {
          "duration": 0.125,
          "durationTicks": 24,
          "midi": 44,
          "name": "G#2",
          "ticks": 7296,
          "time": 38,
          "velocity": 0.7874015748031497
        },
        {
          "duration": 0.125,
          "durationTicks": 24,
          "midi": 44,
          "name": "G#2",
          "ticks": 7320,
          "time": 38.125,
          "velocity": 0.7874015748031497
        },
        {
          "duration": 0.125,
          "durationTicks": 24,
          "midi": 36,
          "name": "C2",
          "ticks": 7343,
          "time": 38.244791666666664,
          "velocity": 0.7874015748031497
        },
        {
          "duration": 0.125,
          "durationTicks": 24,
          "midi": 62,
          "name": "D4",
          "ticks": 7344,
          "time": 38.25,
          "velocity": 0.7874015748031497
        },
        {
          "duration": 0.125,
          "durationTicks": 24,
          "midi": 36,
          "name": "C2",
          "ticks": 7367,
          "time": 38.369791666666664,
          "velocity": 0.7874015748031497
        },
        {
          "duration": 0.125,
          "durationTicks": 24,
          "midi": 39,
          "name": "D#2",
          "ticks": 7392,
          "time": 38.5,
          "velocity": 0.7874015748031497
        },
        {
          "duration": 0.125,
          "durationTicks": 24,
          "midi": 61,
          "name": "C#4",
          "ticks": 7392,
          "time": 38.5,
          "velocity": 0.7874015748031497
        },
        {
          "duration": 0.125,
          "durationTicks": 24,
          "midi": 44,
          "name": "G#2",
          "ticks": 7392,
          "time": 38.5,
          "velocity": 0.7874015748031497
        },
        {
          "duration": 0.125,
          "durationTicks": 24,
          "midi": 61,
          "name": "C#4",
          "ticks": 7416,
          "time": 38.625,
          "velocity": 0.7874015748031497
        },
        {
          "duration": 0.125,
          "durationTicks": 24,
          "midi": 44,
          "name": "G#2",
          "ticks": 7416,
          "time": 38.625,
          "velocity": 0.7874015748031497
        },
        {
          "duration": 0.125,
          "durationTicks": 24,
          "midi": 36,
          "name": "C2",
          "ticks": 7439,
          "time": 38.744791666666664,
          "velocity": 0.7874015748031497
        },
        {
          "duration": 0.125,
          "durationTicks": 24,
          "midi": 36,
          "name": "C2",
          "ticks": 7463,
          "time": 38.869791666666664,
          "velocity": 0.7874015748031497
        },
        {
          "duration": 0.125,
          "durationTicks": 24,
          "midi": 62,
          "name": "D4",
          "ticks": 7464,
          "time": 38.875,
          "velocity": 0.7874015748031497
        },
        {
          "duration": 0.125,
          "durationTicks": 24,
          "midi": 44,
          "name": "G#2",
          "ticks": 7488,
          "time": 39,
          "velocity": 0.7874015748031497
        },
        {
          "duration": 0.125,
          "durationTicks": 24,
          "midi": 61,
          "name": "C#4",
          "ticks": 7512,
          "time": 39.125,
          "velocity": 0.7874015748031497
        },
        {
          "duration": 0.125,
          "durationTicks": 24,
          "midi": 44,
          "name": "G#2",
          "ticks": 7512,
          "time": 39.125,
          "velocity": 0.7874015748031497
        },
        {
          "duration": 0.125,
          "durationTicks": 24,
          "midi": 36,
          "name": "C2",
          "ticks": 7535,
          "time": 39.244791666666664,
          "velocity": 0.7874015748031497
        },
        {
          "duration": 0.125,
          "durationTicks": 24,
          "midi": 61,
          "name": "C#4",
          "ticks": 7536,
          "time": 39.25,
          "velocity": 0.7874015748031497
        },
        {
          "duration": 0.125,
          "durationTicks": 24,
          "midi": 36,
          "name": "C2",
          "ticks": 7559,
          "time": 39.369791666666664,
          "velocity": 0.7874015748031497
        },
        {
          "duration": 0.125,
          "durationTicks": 24,
          "midi": 39,
          "name": "D#2",
          "ticks": 7560,
          "time": 39.375,
          "velocity": 0.7874015748031497
        },
        {
          "duration": 0.125,
          "durationTicks": 24,
          "midi": 61,
          "name": "C#4",
          "ticks": 7560,
          "time": 39.375,
          "velocity": 0.7874015748031497
        },
        {
          "duration": 0.125,
          "durationTicks": 24,
          "midi": 39,
          "name": "D#2",
          "ticks": 7584,
          "time": 39.5,
          "velocity": 0.7874015748031497
        },
        {
          "duration": 0.125,
          "durationTicks": 24,
          "midi": 61,
          "name": "C#4",
          "ticks": 7584,
          "time": 39.5,
          "velocity": 0.7874015748031497
        },
        {
          "duration": 0.125,
          "durationTicks": 24,
          "midi": 44,
          "name": "G#2",
          "ticks": 7584,
          "time": 39.5,
          "velocity": 0.7874015748031497
        },
        {
          "duration": 0.125,
          "durationTicks": 24,
          "midi": 61,
          "name": "C#4",
          "ticks": 7608,
          "time": 39.625,
          "velocity": 0.7874015748031497
        },
        {
          "duration": 0.125,
          "durationTicks": 24,
          "midi": 44,
          "name": "G#2",
          "ticks": 7608,
          "time": 39.625,
          "velocity": 0.7874015748031497
        },
        {
          "duration": 0.125,
          "durationTicks": 24,
          "midi": 36,
          "name": "C2",
          "ticks": 7631,
          "time": 39.744791666666664,
          "velocity": 0.7874015748031497
        },
        {
          "duration": 0.125,
          "durationTicks": 24,
          "midi": 61,
          "name": "C#4",
          "ticks": 7632,
          "time": 39.75,
          "velocity": 0.7874015748031497
        },
        {
          "duration": 0.125,
          "durationTicks": 24,
          "midi": 36,
          "name": "C2",
          "ticks": 7655,
          "time": 39.869791666666664,
          "velocity": 0.7874015748031497
        },
        {
          "duration": 0.125,
          "durationTicks": 24,
          "midi": 61,
          "name": "C#4",
          "ticks": 7656,
          "time": 39.875,
          "velocity": 0.7874015748031497
        },
        {
          "duration": 0.125,
          "durationTicks": 24,
          "midi": 44,
          "name": "G#2",
          "ticks": 7680,
          "time": 40,
          "velocity": 0.7874015748031497
        },
        {
          "duration": 0.125,
          "durationTicks": 24,
          "midi": 44,
          "name": "G#2",
          "ticks": 7704,
          "time": 40.125,
          "velocity": 0.7874015748031497
        },
        {
          "duration": 0.125,
          "durationTicks": 24,
          "midi": 36,
          "name": "C2",
          "ticks": 7727,
          "time": 40.244791666666664,
          "velocity": 0.7874015748031497
        },
        {
          "duration": 0.125,
          "durationTicks": 24,
          "midi": 36,
          "name": "C2",
          "ticks": 7751,
          "time": 40.369791666666664,
          "velocity": 0.7874015748031497
        },
        {
          "duration": 0.125,
          "durationTicks": 24,
          "midi": 39,
          "name": "D#2",
          "ticks": 7776,
          "time": 40.5,
          "velocity": 0.7874015748031497
        },
        {
          "duration": 0.125,
          "durationTicks": 24,
          "midi": 44,
          "name": "G#2",
          "ticks": 7776,
          "time": 40.5,
          "velocity": 0.7874015748031497
        },
        {
          "duration": 0.125,
          "durationTicks": 24,
          "midi": 44,
          "name": "G#2",
          "ticks": 7800,
          "time": 40.625,
          "velocity": 0.7874015748031497
        },
        {
          "duration": 0.125,
          "durationTicks": 24,
          "midi": 36,
          "name": "C2",
          "ticks": 7823,
          "time": 40.744791666666664,
          "velocity": 0.7874015748031497
        },
        {
          "duration": 0.125,
          "durationTicks": 24,
          "midi": 36,
          "name": "C2",
          "ticks": 7847,
          "time": 40.869791666666664,
          "velocity": 0.7874015748031497
        },
        {
          "duration": 0.125,
          "durationTicks": 24,
          "midi": 44,
          "name": "G#2",
          "ticks": 7872,
          "time": 41,
          "velocity": 0.7874015748031497
        },
        {
          "duration": 0.125,
          "durationTicks": 24,
          "midi": 44,
          "name": "G#2",
          "ticks": 7896,
          "time": 41.125,
          "velocity": 0.7874015748031497
        },
        {
          "duration": 0.125,
          "durationTicks": 24,
          "midi": 36,
          "name": "C2",
          "ticks": 7919,
          "time": 41.244791666666664,
          "velocity": 0.7874015748031497
        },
        {
          "duration": 0.125,
          "durationTicks": 24,
          "midi": 36,
          "name": "C2",
          "ticks": 7943,
          "time": 41.369791666666664,
          "velocity": 0.7874015748031497
        },
        {
          "duration": 0.125,
          "durationTicks": 24,
          "midi": 39,
          "name": "D#2",
          "ticks": 7968,
          "time": 41.5,
          "velocity": 0.7874015748031497
        },
        {
          "duration": 0.125,
          "durationTicks": 24,
          "midi": 44,
          "name": "G#2",
          "ticks": 7968,
          "time": 41.5,
          "velocity": 0.7874015748031497
        },
        {
          "duration": 0.125,
          "durationTicks": 24,
          "midi": 44,
          "name": "G#2",
          "ticks": 7992,
          "time": 41.625,
          "velocity": 0.7874015748031497
        },
        {
          "duration": 0.125,
          "durationTicks": 24,
          "midi": 36,
          "name": "C2",
          "ticks": 8015,
          "time": 41.744791666666664,
          "velocity": 0.7874015748031497
        },
        {
          "duration": 0.125,
          "durationTicks": 24,
          "midi": 61,
          "name": "C#4",
          "ticks": 8016,
          "time": 41.75,
          "velocity": 0.7874015748031497
        },
        {
          "duration": 0.125,
          "durationTicks": 24,
          "midi": 36,
          "name": "C2",
          "ticks": 8039,
          "time": 41.869791666666664,
          "velocity": 0.7874015748031497
        },
        {
          "duration": 0.125,
          "durationTicks": 24,
          "midi": 61,
          "name": "C#4",
          "ticks": 8040,
          "time": 41.875,
          "velocity": 0.7874015748031497
        },
        {
          "duration": 0.125,
          "durationTicks": 24,
          "midi": 44,
          "name": "G#2",
          "ticks": 8064,
          "time": 42,
          "velocity": 0.7874015748031497
        },
        {
          "duration": 0.125,
          "durationTicks": 24,
          "midi": 44,
          "name": "G#2",
          "ticks": 8088,
          "time": 42.125,
          "velocity": 0.7874015748031497
        },
        {
          "duration": 0.125,
          "durationTicks": 24,
          "midi": 36,
          "name": "C2",
          "ticks": 8111,
          "time": 42.244791666666664,
          "velocity": 0.7874015748031497
        },
        {
          "duration": 0.125,
          "durationTicks": 24,
          "midi": 62,
          "name": "D4",
          "ticks": 8112,
          "time": 42.25,
          "velocity": 0.7874015748031497
        },
        {
          "duration": 0.125,
          "durationTicks": 24,
          "midi": 36,
          "name": "C2",
          "ticks": 8135,
          "time": 42.369791666666664,
          "velocity": 0.7874015748031497
        },
        {
          "duration": 0.125,
          "durationTicks": 24,
          "midi": 39,
          "name": "D#2",
          "ticks": 8160,
          "time": 42.5,
          "velocity": 0.7874015748031497
        },
        {
          "duration": 0.125,
          "durationTicks": 24,
          "midi": 61,
          "name": "C#4",
          "ticks": 8160,
          "time": 42.5,
          "velocity": 0.7874015748031497
        },
        {
          "duration": 0.125,
          "durationTicks": 24,
          "midi": 44,
          "name": "G#2",
          "ticks": 8160,
          "time": 42.5,
          "velocity": 0.7874015748031497
        },
        {
          "duration": 0.125,
          "durationTicks": 24,
          "midi": 61,
          "name": "C#4",
          "ticks": 8184,
          "time": 42.625,
          "velocity": 0.7874015748031497
        },
        {
          "duration": 0.125,
          "durationTicks": 24,
          "midi": 44,
          "name": "G#2",
          "ticks": 8184,
          "time": 42.625,
          "velocity": 0.7874015748031497
        },
        {
          "duration": 0.125,
          "durationTicks": 24,
          "midi": 36,
          "name": "C2",
          "ticks": 8207,
          "time": 42.744791666666664,
          "velocity": 0.7874015748031497
        },
        {
          "duration": 0.125,
          "durationTicks": 24,
          "midi": 36,
          "name": "C2",
          "ticks": 8231,
          "time": 42.869791666666664,
          "velocity": 0.7874015748031497
        },
        {
          "duration": 0.125,
          "durationTicks": 24,
          "midi": 62,
          "name": "D4",
          "ticks": 8232,
          "time": 42.875,
          "velocity": 0.7874015748031497
        },
        {
          "duration": 0.125,
          "durationTicks": 24,
          "midi": 44,
          "name": "G#2",
          "ticks": 8256,
          "time": 43,
          "velocity": 0.7874015748031497
        },
        {
          "duration": 0.125,
          "durationTicks": 24,
          "midi": 61,
          "name": "C#4",
          "ticks": 8280,
          "time": 43.125,
          "velocity": 0.7874015748031497
        },
        {
          "duration": 0.125,
          "durationTicks": 24,
          "midi": 44,
          "name": "G#2",
          "ticks": 8280,
          "time": 43.125,
          "velocity": 0.7874015748031497
        },
        {
          "duration": 0.125,
          "durationTicks": 24,
          "midi": 36,
          "name": "C2",
          "ticks": 8303,
          "time": 43.244791666666664,
          "velocity": 0.7874015748031497
        },
        {
          "duration": 0.125,
          "durationTicks": 24,
          "midi": 61,
          "name": "C#4",
          "ticks": 8304,
          "time": 43.25,
          "velocity": 0.7874015748031497
        },
        {
          "duration": 0.125,
          "durationTicks": 24,
          "midi": 36,
          "name": "C2",
          "ticks": 8327,
          "time": 43.369791666666664,
          "velocity": 0.7874015748031497
        },
        {
          "duration": 0.125,
          "durationTicks": 24,
          "midi": 39,
          "name": "D#2",
          "ticks": 8328,
          "time": 43.375,
          "velocity": 0.7874015748031497
        },
        {
          "duration": 0.125,
          "durationTicks": 24,
          "midi": 61,
          "name": "C#4",
          "ticks": 8328,
          "time": 43.375,
          "velocity": 0.7874015748031497
        },
        {
          "duration": 0.125,
          "durationTicks": 24,
          "midi": 39,
          "name": "D#2",
          "ticks": 8352,
          "time": 43.5,
          "velocity": 0.7874015748031497
        },
        {
          "duration": 0.125,
          "durationTicks": 24,
          "midi": 61,
          "name": "C#4",
          "ticks": 8352,
          "time": 43.5,
          "velocity": 0.7874015748031497
        },
        {
          "duration": 0.125,
          "durationTicks": 24,
          "midi": 44,
          "name": "G#2",
          "ticks": 8352,
          "time": 43.5,
          "velocity": 0.7874015748031497
        },
        {
          "duration": 0.125,
          "durationTicks": 24,
          "midi": 61,
          "name": "C#4",
          "ticks": 8376,
          "time": 43.625,
          "velocity": 0.7874015748031497
        },
        {
          "duration": 0.125,
          "durationTicks": 24,
          "midi": 44,
          "name": "G#2",
          "ticks": 8376,
          "time": 43.625,
          "velocity": 0.7874015748031497
        },
        {
          "duration": 0.125,
          "durationTicks": 24,
          "midi": 36,
          "name": "C2",
          "ticks": 8399,
          "time": 43.744791666666664,
          "velocity": 0.7874015748031497
        },
        {
          "duration": 0.125,
          "durationTicks": 24,
          "midi": 61,
          "name": "C#4",
          "ticks": 8400,
          "time": 43.75,
          "velocity": 0.7874015748031497
        },
        {
          "duration": 0.125,
          "durationTicks": 24,
          "midi": 36,
          "name": "C2",
          "ticks": 8423,
          "time": 43.869791666666664,
          "velocity": 0.7874015748031497
        },
        {
          "duration": 0.125,
          "durationTicks": 24,
          "midi": 61,
          "name": "C#4",
          "ticks": 8424,
          "time": 43.875,
          "velocity": 0.7874015748031497
        },
        {
          "duration": 0.125,
          "durationTicks": 24,
          "midi": 44,
          "name": "G#2",
          "ticks": 8448,
          "time": 44,
          "velocity": 0.7874015748031497
        },
        {
          "duration": 0.125,
          "durationTicks": 24,
          "midi": 44,
          "name": "G#2",
          "ticks": 8472,
          "time": 44.125,
          "velocity": 0.7874015748031497
        },
        {
          "duration": 0.125,
          "durationTicks": 24,
          "midi": 36,
          "name": "C2",
          "ticks": 8495,
          "time": 44.244791666666664,
          "velocity": 0.7874015748031497
        },
        {
          "duration": 0.125,
          "durationTicks": 24,
          "midi": 36,
          "name": "C2",
          "ticks": 8519,
          "time": 44.369791666666664,
          "velocity": 0.7874015748031497
        },
        {
          "duration": 0.125,
          "durationTicks": 24,
          "midi": 39,
          "name": "D#2",
          "ticks": 8544,
          "time": 44.5,
          "velocity": 0.7874015748031497
        },
        {
          "duration": 0.125,
          "durationTicks": 24,
          "midi": 44,
          "name": "G#2",
          "ticks": 8544,
          "time": 44.5,
          "velocity": 0.7874015748031497
        },
        {
          "duration": 0.125,
          "durationTicks": 24,
          "midi": 44,
          "name": "G#2",
          "ticks": 8568,
          "time": 44.625,
          "velocity": 0.7874015748031497
        },
        {
          "duration": 0.125,
          "durationTicks": 24,
          "midi": 36,
          "name": "C2",
          "ticks": 8591,
          "time": 44.744791666666664,
          "velocity": 0.7874015748031497
        },
        {
          "duration": 0.125,
          "durationTicks": 24,
          "midi": 36,
          "name": "C2",
          "ticks": 8615,
          "time": 44.869791666666664,
          "velocity": 0.7874015748031497
        },
        {
          "duration": 0.125,
          "durationTicks": 24,
          "midi": 44,
          "name": "G#2",
          "ticks": 8640,
          "time": 45,
          "velocity": 0.7874015748031497
        },
        {
          "duration": 0.125,
          "durationTicks": 24,
          "midi": 44,
          "name": "G#2",
          "ticks": 8664,
          "time": 45.125,
          "velocity": 0.7874015748031497
        },
        {
          "duration": 0.125,
          "durationTicks": 24,
          "midi": 36,
          "name": "C2",
          "ticks": 8687,
          "time": 45.244791666666664,
          "velocity": 0.7874015748031497
        },
        {
          "duration": 0.125,
          "durationTicks": 24,
          "midi": 36,
          "name": "C2",
          "ticks": 8711,
          "time": 45.369791666666664,
          "velocity": 0.7874015748031497
        },
        {
          "duration": 0.125,
          "durationTicks": 24,
          "midi": 39,
          "name": "D#2",
          "ticks": 8736,
          "time": 45.5,
          "velocity": 0.7874015748031497
        },
        {
          "duration": 0.125,
          "durationTicks": 24,
          "midi": 44,
          "name": "G#2",
          "ticks": 8736,
          "time": 45.5,
          "velocity": 0.7874015748031497
        },
        {
          "duration": 0.125,
          "durationTicks": 24,
          "midi": 44,
          "name": "G#2",
          "ticks": 8760,
          "time": 45.625,
          "velocity": 0.7874015748031497
        },
        {
          "duration": 0.125,
          "durationTicks": 24,
          "midi": 36,
          "name": "C2",
          "ticks": 8783,
          "time": 45.744791666666664,
          "velocity": 0.7874015748031497
        },
        {
          "duration": 0.125,
          "durationTicks": 24,
          "midi": 61,
          "name": "C#4",
          "ticks": 8784,
          "time": 45.75,
          "velocity": 0.7874015748031497
        },
        {
          "duration": 0.125,
          "durationTicks": 24,
          "midi": 36,
          "name": "C2",
          "ticks": 8807,
          "time": 45.869791666666664,
          "velocity": 0.7874015748031497
        },
        {
          "duration": 0.125,
          "durationTicks": 24,
          "midi": 61,
          "name": "C#4",
          "ticks": 8808,
          "time": 45.875,
          "velocity": 0.7874015748031497
        },
        {
          "duration": 0.125,
          "durationTicks": 24,
          "midi": 44,
          "name": "G#2",
          "ticks": 8832,
          "time": 46,
          "velocity": 0.7874015748031497
        },
        {
          "duration": 0.125,
          "durationTicks": 24,
          "midi": 44,
          "name": "G#2",
          "ticks": 8856,
          "time": 46.125,
          "velocity": 0.7874015748031497
        },
        {
          "duration": 0.125,
          "durationTicks": 24,
          "midi": 36,
          "name": "C2",
          "ticks": 8879,
          "time": 46.244791666666664,
          "velocity": 0.7874015748031497
        },
        {
          "duration": 0.125,
          "durationTicks": 24,
          "midi": 62,
          "name": "D4",
          "ticks": 8880,
          "time": 46.25,
          "velocity": 0.7874015748031497
        },
        {
          "duration": 0.125,
          "durationTicks": 24,
          "midi": 36,
          "name": "C2",
          "ticks": 8903,
          "time": 46.369791666666664,
          "velocity": 0.7874015748031497
        },
        {
          "duration": 0.125,
          "durationTicks": 24,
          "midi": 39,
          "name": "D#2",
          "ticks": 8928,
          "time": 46.5,
          "velocity": 0.7874015748031497
        },
        {
          "duration": 0.125,
          "durationTicks": 24,
          "midi": 61,
          "name": "C#4",
          "ticks": 8928,
          "time": 46.5,
          "velocity": 0.7874015748031497
        },
        {
          "duration": 0.125,
          "durationTicks": 24,
          "midi": 44,
          "name": "G#2",
          "ticks": 8928,
          "time": 46.5,
          "velocity": 0.7874015748031497
        },
        {
          "duration": 0.125,
          "durationTicks": 24,
          "midi": 61,
          "name": "C#4",
          "ticks": 8952,
          "time": 46.625,
          "velocity": 0.7874015748031497
        },
        {
          "duration": 0.125,
          "durationTicks": 24,
          "midi": 44,
          "name": "G#2",
          "ticks": 8952,
          "time": 46.625,
          "velocity": 0.7874015748031497
        },
        {
          "duration": 0.125,
          "durationTicks": 24,
          "midi": 36,
          "name": "C2",
          "ticks": 8975,
          "time": 46.744791666666664,
          "velocity": 0.7874015748031497
        },
        {
          "duration": 0.125,
          "durationTicks": 24,
          "midi": 36,
          "name": "C2",
          "ticks": 8999,
          "time": 46.869791666666664,
          "velocity": 0.7874015748031497
        },
        {
          "duration": 0.125,
          "durationTicks": 24,
          "midi": 62,
          "name": "D4",
          "ticks": 9000,
          "time": 46.875,
          "velocity": 0.7874015748031497
        },
        {
          "duration": 0.125,
          "durationTicks": 24,
          "midi": 44,
          "name": "G#2",
          "ticks": 9024,
          "time": 47,
          "velocity": 0.7874015748031497
        },
        {
          "duration": 0.125,
          "durationTicks": 24,
          "midi": 39,
          "name": "D#2",
          "ticks": 9048,
          "time": 47.125,
          "velocity": 0.7874015748031497
        },
        {
          "duration": 0.125,
          "durationTicks": 24,
          "midi": 61,
          "name": "C#4",
          "ticks": 9048,
          "time": 47.125,
          "velocity": 0.7874015748031497
        },
        {
          "duration": 0.125,
          "durationTicks": 24,
          "midi": 44,
          "name": "G#2",
          "ticks": 9048,
          "time": 47.125,
          "velocity": 0.7874015748031497
        },
        {
          "duration": 0.125,
          "durationTicks": 24,
          "midi": 36,
          "name": "C2",
          "ticks": 9071,
          "time": 47.244791666666664,
          "velocity": 0.7874015748031497
        },
        {
          "duration": 0.125,
          "durationTicks": 24,
          "midi": 61,
          "name": "C#4",
          "ticks": 9072,
          "time": 47.25,
          "velocity": 0.7874015748031497
        },
        {
          "duration": 0.125,
          "durationTicks": 24,
          "midi": 36,
          "name": "C2",
          "ticks": 9095,
          "time": 47.369791666666664,
          "velocity": 0.7874015748031497
        },
        {
          "duration": 0.125,
          "durationTicks": 24,
          "midi": 39,
          "name": "D#2",
          "ticks": 9096,
          "time": 47.375,
          "velocity": 0.7874015748031497
        },
        {
          "duration": 0.125,
          "durationTicks": 24,
          "midi": 61,
          "name": "C#4",
          "ticks": 9096,
          "time": 47.375,
          "velocity": 0.7874015748031497
        },
        {
          "duration": 0.125,
          "durationTicks": 24,
          "midi": 39,
          "name": "D#2",
          "ticks": 9120,
          "time": 47.5,
          "velocity": 0.7874015748031497
        },
        {
          "duration": 0.125,
          "durationTicks": 24,
          "midi": 61,
          "name": "C#4",
          "ticks": 9120,
          "time": 47.5,
          "velocity": 0.7874015748031497
        },
        {
          "duration": 0.125,
          "durationTicks": 24,
          "midi": 44,
          "name": "G#2",
          "ticks": 9120,
          "time": 47.5,
          "velocity": 0.7874015748031497
        },
        {
          "duration": 0.125,
          "durationTicks": 24,
          "midi": 61,
          "name": "C#4",
          "ticks": 9144,
          "time": 47.625,
          "velocity": 0.7874015748031497
        },
        {
          "duration": 0.125,
          "durationTicks": 24,
          "midi": 44,
          "name": "G#2",
          "ticks": 9144,
          "time": 47.625,
          "velocity": 0.7874015748031497
        },
        {
          "duration": 0.125,
          "durationTicks": 24,
          "midi": 36,
          "name": "C2",
          "ticks": 9167,
          "time": 47.744791666666664,
          "velocity": 0.7874015748031497
        },
        {
          "duration": 0.125,
          "durationTicks": 24,
          "midi": 39,
          "name": "D#2",
          "ticks": 9168,
          "time": 47.75,
          "velocity": 0.7874015748031497
        },
        {
          "duration": 0.125,
          "durationTicks": 24,
          "midi": 61,
          "name": "C#4",
          "ticks": 9168,
          "time": 47.75,
          "velocity": 0.7874015748031497
        },
        {
          "duration": 0.125,
          "durationTicks": 24,
          "midi": 36,
          "name": "C2",
          "ticks": 9191,
          "time": 47.869791666666664,
          "velocity": 0.7874015748031497
        },
        {
          "duration": 0.125,
          "durationTicks": 24,
          "midi": 61,
          "name": "C#4",
          "ticks": 9192,
          "time": 47.875,
          "velocity": 0.7874015748031497
        },
        {
          "duration": 0.125,
          "durationTicks": 24,
          "midi": 44,
          "name": "G#2",
          "ticks": 9216,
          "time": 48,
          "velocity": 0.7874015748031497
        },
        {
          "duration": 0.125,
          "durationTicks": 24,
          "midi": 44,
          "name": "G#2",
          "ticks": 9240,
          "time": 48.125,
          "velocity": 0.7874015748031497
        },
        {
          "duration": 0.125,
          "durationTicks": 24,
          "midi": 36,
          "name": "C2",
          "ticks": 9263,
          "time": 48.244791666666664,
          "velocity": 0.7874015748031497
        },
        {
          "duration": 0.125,
          "durationTicks": 24,
          "midi": 36,
          "name": "C2",
          "ticks": 9287,
          "time": 48.369791666666664,
          "velocity": 0.7874015748031497
        },
        {
          "duration": 0.125,
          "durationTicks": 24,
          "midi": 39,
          "name": "D#2",
          "ticks": 9312,
          "time": 48.5,
          "velocity": 0.7874015748031497
        },
        {
          "duration": 0.125,
          "durationTicks": 24,
          "midi": 44,
          "name": "G#2",
          "ticks": 9312,
          "time": 48.5,
          "velocity": 0.7874015748031497
        },
        {
          "duration": 0.125,
          "durationTicks": 24,
          "midi": 44,
          "name": "G#2",
          "ticks": 9336,
          "time": 48.625,
          "velocity": 0.7874015748031497
        },
        {
          "duration": 0.125,
          "durationTicks": 24,
          "midi": 36,
          "name": "C2",
          "ticks": 9359,
          "time": 48.744791666666664,
          "velocity": 0.7874015748031497
        },
        {
          "duration": 0.125,
          "durationTicks": 24,
          "midi": 36,
          "name": "C2",
          "ticks": 9383,
          "time": 48.869791666666664,
          "velocity": 0.7874015748031497
        },
        {
          "duration": 0.125,
          "durationTicks": 24,
          "midi": 44,
          "name": "G#2",
          "ticks": 9408,
          "time": 49,
          "velocity": 0.7874015748031497
        },
        {
          "duration": 0.125,
          "durationTicks": 24,
          "midi": 44,
          "name": "G#2",
          "ticks": 9432,
          "time": 49.125,
          "velocity": 0.7874015748031497
        },
        {
          "duration": 0.125,
          "durationTicks": 24,
          "midi": 36,
          "name": "C2",
          "ticks": 9455,
          "time": 49.244791666666664,
          "velocity": 0.7874015748031497
        },
        {
          "duration": 0.125,
          "durationTicks": 24,
          "midi": 36,
          "name": "C2",
          "ticks": 9479,
          "time": 49.369791666666664,
          "velocity": 0.7874015748031497
        },
        {
          "duration": 0.125,
          "durationTicks": 24,
          "midi": 39,
          "name": "D#2",
          "ticks": 9504,
          "time": 49.5,
          "velocity": 0.7874015748031497
        },
        {
          "duration": 0.125,
          "durationTicks": 24,
          "midi": 44,
          "name": "G#2",
          "ticks": 9504,
          "time": 49.5,
          "velocity": 0.7874015748031497
        },
        {
          "duration": 0.125,
          "durationTicks": 24,
          "midi": 44,
          "name": "G#2",
          "ticks": 9528,
          "time": 49.625,
          "velocity": 0.7874015748031497
        },
        {
          "duration": 0.125,
          "durationTicks": 24,
          "midi": 36,
          "name": "C2",
          "ticks": 9551,
          "time": 49.744791666666664,
          "velocity": 0.7874015748031497
        },
        {
          "duration": 0.125,
          "durationTicks": 24,
          "midi": 36,
          "name": "C2",
          "ticks": 9575,
          "time": 49.869791666666664,
          "velocity": 0.7874015748031497
        },
        {
          "duration": 0.125,
          "durationTicks": 24,
          "midi": 44,
          "name": "G#2",
          "ticks": 9600,
          "time": 50,
          "velocity": 0.7874015748031497
        },
        {
          "duration": 0.125,
          "durationTicks": 24,
          "midi": 44,
          "name": "G#2",
          "ticks": 9624,
          "time": 50.125,
          "velocity": 0.7874015748031497
        },
        {
          "duration": 0.125,
          "durationTicks": 24,
          "midi": 36,
          "name": "C2",
          "ticks": 9647,
          "time": 50.244791666666664,
          "velocity": 0.7874015748031497
        },
        {
          "duration": 0.125,
          "durationTicks": 24,
          "midi": 36,
          "name": "C2",
          "ticks": 9671,
          "time": 50.369791666666664,
          "velocity": 0.7874015748031497
        },
        {
          "duration": 0.125,
          "durationTicks": 24,
          "midi": 39,
          "name": "D#2",
          "ticks": 9696,
          "time": 50.5,
          "velocity": 0.7874015748031497
        },
        {
          "duration": 0.125,
          "durationTicks": 24,
          "midi": 44,
          "name": "G#2",
          "ticks": 9696,
          "time": 50.5,
          "velocity": 0.7874015748031497
        },
        {
          "duration": 0.125,
          "durationTicks": 24,
          "midi": 44,
          "name": "G#2",
          "ticks": 9720,
          "time": 50.625,
          "velocity": 0.7874015748031497
        },
        {
          "duration": 0.125,
          "durationTicks": 24,
          "midi": 36,
          "name": "C2",
          "ticks": 9743,
          "time": 50.744791666666664,
          "velocity": 0.7874015748031497
        },
        {
          "duration": 0.125,
          "durationTicks": 24,
          "midi": 36,
          "name": "C2",
          "ticks": 9767,
          "time": 50.869791666666664,
          "velocity": 0.7874015748031497
        },
        {
          "duration": 0.125,
          "durationTicks": 24,
          "midi": 44,
          "name": "G#2",
          "ticks": 9792,
          "time": 51,
          "velocity": 0.7874015748031497
        },
        {
          "duration": 0.125,
          "durationTicks": 24,
          "midi": 44,
          "name": "G#2",
          "ticks": 9816,
          "time": 51.125,
          "velocity": 0.7874015748031497
        },
        {
          "duration": 0.125,
          "durationTicks": 24,
          "midi": 36,
          "name": "C2",
          "ticks": 9839,
          "time": 51.244791666666664,
          "velocity": 0.7874015748031497
        },
        {
          "duration": 0.125,
          "durationTicks": 24,
          "midi": 36,
          "name": "C2",
          "ticks": 9863,
          "time": 51.369791666666664,
          "velocity": 0.7874015748031497
        },
        {
          "duration": 0.125,
          "durationTicks": 24,
          "midi": 39,
          "name": "D#2",
          "ticks": 9864,
          "time": 51.375,
          "velocity": 0.7874015748031497
        },
        {
          "duration": 0.125,
          "durationTicks": 24,
          "midi": 39,
          "name": "D#2",
          "ticks": 9888,
          "time": 51.5,
          "velocity": 0.7874015748031497
        },
        {
          "duration": 0.125,
          "durationTicks": 24,
          "midi": 44,
          "name": "G#2",
          "ticks": 9888,
          "time": 51.5,
          "velocity": 0.7874015748031497
        },
        {
          "duration": 0.125,
          "durationTicks": 24,
          "midi": 44,
          "name": "G#2",
          "ticks": 9912,
          "time": 51.625,
          "velocity": 0.7874015748031497
        },
        {
          "duration": 0.125,
          "durationTicks": 24,
          "midi": 36,
          "name": "C2",
          "ticks": 9935,
          "time": 51.744791666666664,
          "velocity": 0.7874015748031497
        },
        {
          "duration": 0.125,
          "durationTicks": 24,
          "midi": 36,
          "name": "C2",
          "ticks": 9959,
          "time": 51.869791666666664,
          "velocity": 0.7874015748031497
        },
        {
          "duration": 0.125,
          "durationTicks": 24,
          "midi": 44,
          "name": "G#2",
          "ticks": 9984,
          "time": 52,
          "velocity": 0.7874015748031497
        },
        {
          "duration": 0.125,
          "durationTicks": 24,
          "midi": 44,
          "name": "G#2",
          "ticks": 10008,
          "time": 52.125,
          "velocity": 0.7874015748031497
        },
        {
          "duration": 0.125,
          "durationTicks": 24,
          "midi": 36,
          "name": "C2",
          "ticks": 10031,
          "time": 52.244791666666664,
          "velocity": 0.7874015748031497
        },
        {
          "duration": 0.125,
          "durationTicks": 24,
          "midi": 36,
          "name": "C2",
          "ticks": 10055,
          "time": 52.369791666666664,
          "velocity": 0.7874015748031497
        },
        {
          "duration": 0.125,
          "durationTicks": 24,
          "midi": 39,
          "name": "D#2",
          "ticks": 10080,
          "time": 52.5,
          "velocity": 0.7874015748031497
        },
        {
          "duration": 0.125,
          "durationTicks": 24,
          "midi": 44,
          "name": "G#2",
          "ticks": 10080,
          "time": 52.5,
          "velocity": 0.7874015748031497
        },
        {
          "duration": 0.125,
          "durationTicks": 24,
          "midi": 44,
          "name": "G#2",
          "ticks": 10104,
          "time": 52.625,
          "velocity": 0.7874015748031497
        },
        {
          "duration": 0.125,
          "durationTicks": 24,
          "midi": 36,
          "name": "C2",
          "ticks": 10127,
          "time": 52.744791666666664,
          "velocity": 0.7874015748031497
        },
        {
          "duration": 0.125,
          "durationTicks": 24,
          "midi": 36,
          "name": "C2",
          "ticks": 10151,
          "time": 52.869791666666664,
          "velocity": 0.7874015748031497
        },
        {
          "duration": 0.125,
          "durationTicks": 24,
          "midi": 44,
          "name": "G#2",
          "ticks": 10176,
          "time": 53,
          "velocity": 0.7874015748031497
        },
        {
          "duration": 0.125,
          "durationTicks": 24,
          "midi": 44,
          "name": "G#2",
          "ticks": 10200,
          "time": 53.125,
          "velocity": 0.7874015748031497
        },
        {
          "duration": 0.125,
          "durationTicks": 24,
          "midi": 36,
          "name": "C2",
          "ticks": 10223,
          "time": 53.244791666666664,
          "velocity": 0.7874015748031497
        },
        {
          "duration": 0.125,
          "durationTicks": 24,
          "midi": 36,
          "name": "C2",
          "ticks": 10247,
          "time": 53.369791666666664,
          "velocity": 0.7874015748031497
        },
        {
          "duration": 0.125,
          "durationTicks": 24,
          "midi": 39,
          "name": "D#2",
          "ticks": 10272,
          "time": 53.5,
          "velocity": 0.7874015748031497
        },
        {
          "duration": 0.125,
          "durationTicks": 24,
          "midi": 44,
          "name": "G#2",
          "ticks": 10272,
          "time": 53.5,
          "velocity": 0.7874015748031497
        },
        {
          "duration": 0.125,
          "durationTicks": 24,
          "midi": 44,
          "name": "G#2",
          "ticks": 10296,
          "time": 53.625,
          "velocity": 0.7874015748031497
        },
        {
          "duration": 0.125,
          "durationTicks": 24,
          "midi": 36,
          "name": "C2",
          "ticks": 10319,
          "time": 53.744791666666664,
          "velocity": 0.7874015748031497
        },
        {
          "duration": 0.125,
          "durationTicks": 24,
          "midi": 36,
          "name": "C2",
          "ticks": 10343,
          "time": 53.869791666666664,
          "velocity": 0.7874015748031497
        },
        {
          "duration": 0.125,
          "durationTicks": 24,
          "midi": 44,
          "name": "G#2",
          "ticks": 10368,
          "time": 54,
          "velocity": 0.7874015748031497
        },
        {
          "duration": 0.125,
          "durationTicks": 24,
          "midi": 44,
          "name": "G#2",
          "ticks": 10392,
          "time": 54.125,
          "velocity": 0.7874015748031497
        },
        {
          "duration": 0.125,
          "durationTicks": 24,
          "midi": 36,
          "name": "C2",
          "ticks": 10415,
          "time": 54.244791666666664,
          "velocity": 0.7874015748031497
        },
        {
          "duration": 0.125,
          "durationTicks": 24,
          "midi": 36,
          "name": "C2",
          "ticks": 10439,
          "time": 54.369791666666664,
          "velocity": 0.7874015748031497
        },
        {
          "duration": 0.125,
          "durationTicks": 24,
          "midi": 39,
          "name": "D#2",
          "ticks": 10464,
          "time": 54.5,
          "velocity": 0.7874015748031497
        },
        {
          "duration": 0.125,
          "durationTicks": 24,
          "midi": 44,
          "name": "G#2",
          "ticks": 10464,
          "time": 54.5,
          "velocity": 0.7874015748031497
        },
        {
          "duration": 0.125,
          "durationTicks": 24,
          "midi": 44,
          "name": "G#2",
          "ticks": 10488,
          "time": 54.625,
          "velocity": 0.7874015748031497
        },
        {
          "duration": 0.125,
          "durationTicks": 24,
          "midi": 36,
          "name": "C2",
          "ticks": 10511,
          "time": 54.744791666666664,
          "velocity": 0.7874015748031497
        },
        {
          "duration": 0.125,
          "durationTicks": 24,
          "midi": 36,
          "name": "C2",
          "ticks": 10535,
          "time": 54.869791666666664,
          "velocity": 0.7874015748031497
        },
        {
          "duration": 0.125,
          "durationTicks": 24,
          "midi": 44,
          "name": "G#2",
          "ticks": 10560,
          "time": 55,
          "velocity": 0.7874015748031497
        },
        {
          "duration": 0.125,
          "durationTicks": 24,
          "midi": 44,
          "name": "G#2",
          "ticks": 10584,
          "time": 55.125,
          "velocity": 0.7874015748031497
        },
        {
          "duration": 0.125,
          "durationTicks": 24,
          "midi": 36,
          "name": "C2",
          "ticks": 10607,
          "time": 55.244791666666664,
          "velocity": 0.7874015748031497
        },
        {
          "duration": 0.125,
          "durationTicks": 24,
          "midi": 36,
          "name": "C2",
          "ticks": 10631,
          "time": 55.369791666666664,
          "velocity": 0.7874015748031497
        },
        {
          "duration": 0.125,
          "durationTicks": 24,
          "midi": 39,
          "name": "D#2",
          "ticks": 10632,
          "time": 55.375,
          "velocity": 0.7874015748031497
        },
        {
          "duration": 0.125,
          "durationTicks": 24,
          "midi": 39,
          "name": "D#2",
          "ticks": 10656,
          "time": 55.5,
          "velocity": 0.7874015748031497
        },
        {
          "duration": 0.125,
          "durationTicks": 24,
          "midi": 44,
          "name": "G#2",
          "ticks": 10656,
          "time": 55.5,
          "velocity": 0.7874015748031497
        },
        {
          "duration": 0.125,
          "durationTicks": 24,
          "midi": 44,
          "name": "G#2",
          "ticks": 10680,
          "time": 55.625,
          "velocity": 0.7874015748031497
        },
        {
          "duration": 0.125,
          "durationTicks": 24,
          "midi": 36,
          "name": "C2",
          "ticks": 10703,
          "time": 55.744791666666664,
          "velocity": 0.7874015748031497
        },
        {
          "duration": 0.125,
          "durationTicks": 24,
          "midi": 36,
          "name": "C2",
          "ticks": 10727,
          "time": 55.869791666666664,
          "velocity": 0.7874015748031497
        },
        {
          "duration": 0.125,
          "durationTicks": 24,
          "midi": 44,
          "name": "G#2",
          "ticks": 10752,
          "time": 56,
          "velocity": 0.7874015748031497
        },
        {
          "duration": 0.125,
          "durationTicks": 24,
          "midi": 44,
          "name": "G#2",
          "ticks": 10776,
          "time": 56.125,
          "velocity": 0.7874015748031497
        },
        {
          "duration": 0.125,
          "durationTicks": 24,
          "midi": 36,
          "name": "C2",
          "ticks": 10799,
          "time": 56.244791666666664,
          "velocity": 0.7874015748031497
        },
        {
          "duration": 0.125,
          "durationTicks": 24,
          "midi": 36,
          "name": "C2",
          "ticks": 10823,
          "time": 56.369791666666664,
          "velocity": 0.7874015748031497
        },
        {
          "duration": 0.125,
          "durationTicks": 24,
          "midi": 39,
          "name": "D#2",
          "ticks": 10848,
          "time": 56.5,
          "velocity": 0.7874015748031497
        },
        {
          "duration": 0.125,
          "durationTicks": 24,
          "midi": 44,
          "name": "G#2",
          "ticks": 10848,
          "time": 56.5,
          "velocity": 0.7874015748031497
        },
        {
          "duration": 0.125,
          "durationTicks": 24,
          "midi": 44,
          "name": "G#2",
          "ticks": 10872,
          "time": 56.625,
          "velocity": 0.7874015748031497
        },
        {
          "duration": 0.125,
          "durationTicks": 24,
          "midi": 36,
          "name": "C2",
          "ticks": 10895,
          "time": 56.744791666666664,
          "velocity": 0.7874015748031497
        },
        {
          "duration": 0.125,
          "durationTicks": 24,
          "midi": 36,
          "name": "C2",
          "ticks": 10919,
          "time": 56.869791666666664,
          "velocity": 0.7874015748031497
        },
        {
          "duration": 0.125,
          "durationTicks": 24,
          "midi": 44,
          "name": "G#2",
          "ticks": 10944,
          "time": 57,
          "velocity": 0.7874015748031497
        },
        {
          "duration": 0.125,
          "durationTicks": 24,
          "midi": 44,
          "name": "G#2",
          "ticks": 10968,
          "time": 57.125,
          "velocity": 0.7874015748031497
        },
        {
          "duration": 0.125,
          "durationTicks": 24,
          "midi": 36,
          "name": "C2",
          "ticks": 10991,
          "time": 57.244791666666664,
          "velocity": 0.7874015748031497
        },
        {
          "duration": 0.125,
          "durationTicks": 24,
          "midi": 36,
          "name": "C2",
          "ticks": 11015,
          "time": 57.369791666666664,
          "velocity": 0.7874015748031497
        },
        {
          "duration": 0.125,
          "durationTicks": 24,
          "midi": 39,
          "name": "D#2",
          "ticks": 11040,
          "time": 57.5,
          "velocity": 0.7874015748031497
        },
        {
          "duration": 0.125,
          "durationTicks": 24,
          "midi": 44,
          "name": "G#2",
          "ticks": 11040,
          "time": 57.5,
          "velocity": 0.7874015748031497
        },
        {
          "duration": 0.125,
          "durationTicks": 24,
          "midi": 44,
          "name": "G#2",
          "ticks": 11064,
          "time": 57.625,
          "velocity": 0.7874015748031497
        },
        {
          "duration": 0.125,
          "durationTicks": 24,
          "midi": 36,
          "name": "C2",
          "ticks": 11087,
          "time": 57.744791666666664,
          "velocity": 0.7874015748031497
        },
        {
          "duration": 0.125,
          "durationTicks": 24,
          "midi": 36,
          "name": "C2",
          "ticks": 11111,
          "time": 57.869791666666664,
          "velocity": 0.7874015748031497
        },
        {
          "duration": 0.125,
          "durationTicks": 24,
          "midi": 44,
          "name": "G#2",
          "ticks": 11136,
          "time": 58,
          "velocity": 0.7874015748031497
        },
        {
          "duration": 0.125,
          "durationTicks": 24,
          "midi": 44,
          "name": "G#2",
          "ticks": 11160,
          "time": 58.125,
          "velocity": 0.7874015748031497
        },
        {
          "duration": 0.125,
          "durationTicks": 24,
          "midi": 36,
          "name": "C2",
          "ticks": 11183,
          "time": 58.244791666666664,
          "velocity": 0.7874015748031497
        },
        {
          "duration": 0.125,
          "durationTicks": 24,
          "midi": 36,
          "name": "C2",
          "ticks": 11207,
          "time": 58.369791666666664,
          "velocity": 0.7874015748031497
        },
        {
          "duration": 0.125,
          "durationTicks": 24,
          "midi": 39,
          "name": "D#2",
          "ticks": 11232,
          "time": 58.5,
          "velocity": 0.7874015748031497
        },
        {
          "duration": 0.125,
          "durationTicks": 24,
          "midi": 44,
          "name": "G#2",
          "ticks": 11232,
          "time": 58.5,
          "velocity": 0.7874015748031497
        },
        {
          "duration": 0.125,
          "durationTicks": 24,
          "midi": 44,
          "name": "G#2",
          "ticks": 11256,
          "time": 58.625,
          "velocity": 0.7874015748031497
        },
        {
          "duration": 0.125,
          "durationTicks": 24,
          "midi": 36,
          "name": "C2",
          "ticks": 11279,
          "time": 58.744791666666664,
          "velocity": 0.7874015748031497
        },
        {
          "duration": 0.125,
          "durationTicks": 24,
          "midi": 36,
          "name": "C2",
          "ticks": 11303,
          "time": 58.869791666666664,
          "velocity": 0.7874015748031497
        },
        {
          "duration": 0.125,
          "durationTicks": 24,
          "midi": 44,
          "name": "G#2",
          "ticks": 11328,
          "time": 59,
          "velocity": 0.7874015748031497
        },
        {
          "duration": 0.125,
          "durationTicks": 24,
          "midi": 44,
          "name": "G#2",
          "ticks": 11352,
          "time": 59.125,
          "velocity": 0.7874015748031497
        },
        {
          "duration": 0.125,
          "durationTicks": 24,
          "midi": 36,
          "name": "C2",
          "ticks": 11375,
          "time": 59.244791666666664,
          "velocity": 0.7874015748031497
        },
        {
          "duration": 0.125,
          "durationTicks": 24,
          "midi": 36,
          "name": "C2",
          "ticks": 11399,
          "time": 59.369791666666664,
          "velocity": 0.7874015748031497
        },
        {
          "duration": 0.125,
          "durationTicks": 24,
          "midi": 39,
          "name": "D#2",
          "ticks": 11400,
          "time": 59.375,
          "velocity": 0.7874015748031497
        },
        {
          "duration": 0.125,
          "durationTicks": 24,
          "midi": 39,
          "name": "D#2",
          "ticks": 11424,
          "time": 59.5,
          "velocity": 0.7874015748031497
        },
        {
          "duration": 0.125,
          "durationTicks": 24,
          "midi": 44,
          "name": "G#2",
          "ticks": 11424,
          "time": 59.5,
          "velocity": 0.7874015748031497
        },
        {
          "duration": 0.125,
          "durationTicks": 24,
          "midi": 44,
          "name": "G#2",
          "ticks": 11448,
          "time": 59.625,
          "velocity": 0.7874015748031497
        },
        {
          "duration": 0.125,
          "durationTicks": 24,
          "midi": 36,
          "name": "C2",
          "ticks": 11471,
          "time": 59.744791666666664,
          "velocity": 0.7874015748031497
        },
        {
          "duration": 0.125,
          "durationTicks": 24,
          "midi": 36,
          "name": "C2",
          "ticks": 11495,
          "time": 59.869791666666664,
          "velocity": 0.7874015748031497
        },
        {
          "duration": 0.125,
          "durationTicks": 24,
          "midi": 44,
          "name": "G#2",
          "ticks": 11520,
          "time": 60,
          "velocity": 0.7874015748031497
        },
        {
          "duration": 0.125,
          "durationTicks": 24,
          "midi": 44,
          "name": "G#2",
          "ticks": 11544,
          "time": 60.125,
          "velocity": 0.7874015748031497
        },
        {
          "duration": 0.125,
          "durationTicks": 24,
          "midi": 36,
          "name": "C2",
          "ticks": 11567,
          "time": 60.244791666666664,
          "velocity": 0.7874015748031497
        },
        {
          "duration": 0.125,
          "durationTicks": 24,
          "midi": 36,
          "name": "C2",
          "ticks": 11591,
          "time": 60.369791666666664,
          "velocity": 0.7874015748031497
        },
        {
          "duration": 0.125,
          "durationTicks": 24,
          "midi": 39,
          "name": "D#2",
          "ticks": 11616,
          "time": 60.5,
          "velocity": 0.7874015748031497
        },
        {
          "duration": 0.125,
          "durationTicks": 24,
          "midi": 44,
          "name": "G#2",
          "ticks": 11616,
          "time": 60.5,
          "velocity": 0.7874015748031497
        },
        {
          "duration": 0.125,
          "durationTicks": 24,
          "midi": 44,
          "name": "G#2",
          "ticks": 11640,
          "time": 60.625,
          "velocity": 0.7874015748031497
        },
        {
          "duration": 0.125,
          "durationTicks": 24,
          "midi": 36,
          "name": "C2",
          "ticks": 11663,
          "time": 60.744791666666664,
          "velocity": 0.7874015748031497
        },
        {
          "duration": 0.125,
          "durationTicks": 24,
          "midi": 36,
          "name": "C2",
          "ticks": 11687,
          "time": 60.869791666666664,
          "velocity": 0.7874015748031497
        },
        {
          "duration": 0.125,
          "durationTicks": 24,
          "midi": 44,
          "name": "G#2",
          "ticks": 11712,
          "time": 61,
          "velocity": 0.7874015748031497
        },
        {
          "duration": 0.125,
          "durationTicks": 24,
          "midi": 44,
          "name": "G#2",
          "ticks": 11736,
          "time": 61.125,
          "velocity": 0.7874015748031497
        },
        {
          "duration": 0.125,
          "durationTicks": 24,
          "midi": 36,
          "name": "C2",
          "ticks": 11759,
          "time": 61.244791666666664,
          "velocity": 0.7874015748031497
        },
        {
          "duration": 0.125,
          "durationTicks": 24,
          "midi": 36,
          "name": "C2",
          "ticks": 11783,
          "time": 61.369791666666664,
          "velocity": 0.7874015748031497
        },
        {
          "duration": 0.125,
          "durationTicks": 24,
          "midi": 39,
          "name": "D#2",
          "ticks": 11808,
          "time": 61.5,
          "velocity": 0.7874015748031497
        },
        {
          "duration": 0.125,
          "durationTicks": 24,
          "midi": 44,
          "name": "G#2",
          "ticks": 11808,
          "time": 61.5,
          "velocity": 0.7874015748031497
        },
        {
          "duration": 0.125,
          "durationTicks": 24,
          "midi": 44,
          "name": "G#2",
          "ticks": 11832,
          "time": 61.625,
          "velocity": 0.7874015748031497
        },
        {
          "duration": 0.125,
          "durationTicks": 24,
          "midi": 36,
          "name": "C2",
          "ticks": 11855,
          "time": 61.744791666666664,
          "velocity": 0.7874015748031497
        },
        {
          "duration": 0.125,
          "durationTicks": 24,
          "midi": 36,
          "name": "C2",
          "ticks": 11879,
          "time": 61.869791666666664,
          "velocity": 0.7874015748031497
        },
        {
          "duration": 0.125,
          "durationTicks": 24,
          "midi": 44,
          "name": "G#2",
          "ticks": 11904,
          "time": 62,
          "velocity": 0.7874015748031497
        },
        {
          "duration": 0.125,
          "durationTicks": 24,
          "midi": 44,
          "name": "G#2",
          "ticks": 11928,
          "time": 62.125,
          "velocity": 0.7874015748031497
        },
        {
          "duration": 0.125,
          "durationTicks": 24,
          "midi": 36,
          "name": "C2",
          "ticks": 11951,
          "time": 62.244791666666664,
          "velocity": 0.7874015748031497
        },
        {
          "duration": 0.125,
          "durationTicks": 24,
          "midi": 36,
          "name": "C2",
          "ticks": 11975,
          "time": 62.369791666666664,
          "velocity": 0.7874015748031497
        },
        {
          "duration": 0.125,
          "durationTicks": 24,
          "midi": 39,
          "name": "D#2",
          "ticks": 12000,
          "time": 62.5,
          "velocity": 0.7874015748031497
        },
        {
          "duration": 0.125,
          "durationTicks": 24,
          "midi": 44,
          "name": "G#2",
          "ticks": 12000,
          "time": 62.5,
          "velocity": 0.7874015748031497
        },
        {
          "duration": 0.125,
          "durationTicks": 24,
          "midi": 44,
          "name": "G#2",
          "ticks": 12024,
          "time": 62.625,
          "velocity": 0.7874015748031497
        },
        {
          "duration": 0.125,
          "durationTicks": 24,
          "midi": 36,
          "name": "C2",
          "ticks": 12047,
          "time": 62.744791666666664,
          "velocity": 0.7874015748031497
        },
        {
          "duration": 0.125,
          "durationTicks": 24,
          "midi": 36,
          "name": "C2",
          "ticks": 12071,
          "time": 62.869791666666664,
          "velocity": 0.7874015748031497
        },
        {
          "duration": 0.125,
          "durationTicks": 24,
          "midi": 44,
          "name": "G#2",
          "ticks": 12096,
          "time": 63,
          "velocity": 0.7874015748031497
        },
        {
          "duration": 0.1302083333333357,
          "durationTicks": 25,
          "midi": 39,
          "name": "D#2",
          "ticks": 12119,
          "time": 63.119791666666664,
          "velocity": 0.7874015748031497
        },
        {
          "duration": 0.125,
          "durationTicks": 24,
          "midi": 44,
          "name": "G#2",
          "ticks": 12120,
          "time": 63.125,
          "velocity": 0.7874015748031497
        },
        {
          "duration": 0.125,
          "durationTicks": 24,
          "midi": 36,
          "name": "C2",
          "ticks": 12143,
          "time": 63.244791666666664,
          "velocity": 0.7874015748031497
        },
        {
          "duration": 0.125,
          "durationTicks": 24,
          "midi": 36,
          "name": "C2",
          "ticks": 12167,
          "time": 63.369791666666664,
          "velocity": 0.7874015748031497
        },
        {
          "duration": 0.125,
          "durationTicks": 24,
          "midi": 39,
          "name": "D#2",
          "ticks": 12168,
          "time": 63.375,
          "velocity": 0.7874015748031497
        },
        {
          "duration": 0.125,
          "durationTicks": 24,
          "midi": 39,
          "name": "D#2",
          "ticks": 12192,
          "time": 63.5,
          "velocity": 0.7874015748031497
        },
        {
          "duration": 0.125,
          "durationTicks": 24,
          "midi": 44,
          "name": "G#2",
          "ticks": 12192,
          "time": 63.5,
          "velocity": 0.7874015748031497
        },
        {
          "duration": 0.125,
          "durationTicks": 24,
          "midi": 44,
          "name": "G#2",
          "ticks": 12216,
          "time": 63.625,
          "velocity": 0.7874015748031497
        },
        {
          "duration": 0.125,
          "durationTicks": 24,
          "midi": 36,
          "name": "C2",
          "ticks": 12239,
          "time": 63.744791666666664,
          "velocity": 0.7874015748031497
        },
        {
          "duration": 0.125,
          "durationTicks": 24,
          "midi": 39,
          "name": "D#2",
          "ticks": 12240,
          "time": 63.75,
          "velocity": 0.7874015748031497
        },
        {
          "duration": 0.125,
          "durationTicks": 24,
          "midi": 36,
          "name": "C2",
          "ticks": 12263,
          "time": 63.869791666666664,
          "velocity": 0.7874015748031497
        },
        {
          "duration": 0.125,
          "durationTicks": 24,
          "midi": 39,
          "name": "D#2",
          "ticks": 12336,
          "time": 64.25,
          "velocity": 0.7874015748031497
        }
      ],
      "endOfTrackTicks": 12379
    },
    {
      "channel": 0,
      "controlChanges": {
        "6": [
          {
            "number": 6,
            "ticks": 0,
            "time": 0,
            "value": 0.09448818897637795
          }
        ],
        "7": [
          {
            "number": 7,
            "ticks": 0,
            "time": 0,
            "value": 0.8818897637795275
          }
        ],
        "10": [
          {
            "number": 10,
            "ticks": 0,
            "time": 0,
            "value": 0.6299212598425197
          }
        ],
        "91": [
          {
            "number": 91,
            "ticks": 0,
            "time": 0,
            "value": 0
          }
        ],
        "93": [
          {
            "number": 93,
            "ticks": 0,
            "time": 0,
            "value": 0
          }
        ],
        "100": [
          {
            "number": 100,
            "ticks": 0,
            "time": 0,
            "value": 0
          }
        ],
        "101": [
          {
            "number": 101,
            "ticks": 0,
            "time": 0,
            "value": 0
          }
        ]
      },
      "pitchBends": [
        {
          "ticks": 0,
          "time": 0,
          "value": 0
        }
      ],
      "instrument": {
        "family": "piano",
        "number": 0,
        "name": "acoustic grand piano"
      },
      "name": "Main",
      "notes": [],
      "endOfTrackTicks": 12379
    },
    {
      "channel": 0,
      "controlChanges": {
        "6": [
          {
            "number": 6,
            "ticks": 6144,
            "time": 32,
            "value": 0.09448818897637795
          },
          {
            "number": 6,
            "ticks": 6144,
            "time": 32,
            "value": 0.09448818897637795
          },
          {
            "number": 6,
            "ticks": 6146,
            "time": 32.010416666666664,
            "value": 0.09448818897637795
          }
        ],
        "7": [
          {
            "number": 7,
            "ticks": 6144,
            "time": 32,
            "value": 0.8818897637795275
          },
          {
            "number": 7,
            "ticks": 6144,
            "time": 32,
            "value": 0.8818897637795275
          },
          {
            "number": 7,
            "ticks": 6146,
            "time": 32.010416666666664,
            "value": 0.8818897637795275
          }
        ],
        "10": [
          {
            "number": 10,
            "ticks": 6144,
            "time": 32,
            "value": 0.6299212598425197
          },
          {
            "number": 10,
            "ticks": 6144,
            "time": 32,
            "value": 0.6299212598425197
          },
          {
            "number": 10,
            "ticks": 6146,
            "time": 32.010416666666664,
            "value": 0.6299212598425197
          }
        ],
        "91": [
          {
            "number": 91,
            "ticks": 6144,
            "time": 32,
            "value": 0
          },
          {
            "number": 91,
            "ticks": 6144,
            "time": 32,
            "value": 0
          },
          {
            "number": 91,
            "ticks": 6146,
            "time": 32.010416666666664,
            "value": 0
          }
        ],
        "93": [
          {
            "number": 93,
            "ticks": 6144,
            "time": 32,
            "value": 0
          },
          {
            "number": 93,
            "ticks": 6144,
            "time": 32,
            "value": 0
          },
          {
            "number": 93,
            "ticks": 6146,
            "time": 32.010416666666664,
            "value": 0
          }
        ],
        "100": [
          {
            "number": 100,
            "ticks": 6144,
            "time": 32,
            "value": 0
          },
          {
            "number": 100,
            "ticks": 6144,
            "time": 32,
            "value": 0
          },
          {
            "number": 100,
            "ticks": 6146,
            "time": 32.010416666666664,
            "value": 0
          }
        ],
        "101": [
          {
            "number": 101,
            "ticks": 6144,
            "time": 32,
            "value": 0
          },
          {
            "number": 101,
            "ticks": 6144,
            "time": 32,
            "value": 0
          },
          {
            "number": 101,
            "ticks": 6146,
            "time": 32.010416666666664,
            "value": 0
          }
        ]
      },
      "pitchBends": [
        {
          "ticks": 6144,
          "time": 32,
          "value": 0
        },
        {
          "ticks": 6144,
          "time": 32,
          "value": 0
        },
        {
          "ticks": 6146,
          "time": 32.010416666666664,
          "value": 0
        }
      ],
      "instrument": {
        "family": "guitar",
        "number": 29,
        "name": "overdriven guitar"
      },
      "name": "",
      "notes": [
        {
          "duration": 0.25,
          "durationTicks": 48,
          "midi": 71,
          "name": "B4",
          "ticks": 96,
          "time": 0.5,
          "velocity": 0.7874015748031497
        },
        {
          "duration": 0.25,
          "durationTicks": 48,
          "midi": 68,
          "name": "G#4",
          "ticks": 96,
          "time": 0.5,
          "velocity": 0.7874015748031497
        },
        {
          "duration": 0.25,
          "durationTicks": 48,
          "midi": 70,
          "name": "A#4",
          "ticks": 192,
          "time": 1,
          "velocity": 0.7874015748031497
        },
        {
          "duration": 0.25,
          "durationTicks": 48,
          "midi": 67,
          "name": "G4",
          "ticks": 192,
          "time": 1,
          "velocity": 0.7874015748031497
        },
        {
          "duration": 0.25,
          "durationTicks": 48,
          "midi": 70,
          "name": "A#4",
          "ticks": 264,
          "time": 1.375,
          "velocity": 0.7874015748031497
        },
        {
          "duration": 0.25,
          "durationTicks": 48,
          "midi": 67,
          "name": "G4",
          "ticks": 264,
          "time": 1.375,
          "velocity": 0.7874015748031497
        },
        {
          "duration": 0.25,
          "durationTicks": 48,
          "midi": 70,
          "name": "A#4",
          "ticks": 336,
          "time": 1.75,
          "velocity": 0.7874015748031497
        },
        {
          "duration": 0.25,
          "durationTicks": 48,
          "midi": 67,
          "name": "G4",
          "ticks": 336,
          "time": 1.75,
          "velocity": 0.7874015748031497
        },
        {
          "duration": 0.25,
          "durationTicks": 48,
          "midi": 75,
          "name": "D#5",
          "ticks": 432,
          "time": 2.25,
          "velocity": 0.7874015748031497
        },
        {
          "duration": 0.25,
          "durationTicks": 48,
          "midi": 71,
          "name": "B4",
          "ticks": 432,
          "time": 2.25,
          "velocity": 0.7874015748031497
        },
        {
          "duration": 0.25,
          "durationTicks": 48,
          "midi": 75,
          "name": "D#5",
          "ticks": 504,
          "time": 2.625,
          "velocity": 0.7874015748031497
        },
        {
          "duration": 0.25,
          "durationTicks": 48,
          "midi": 71,
          "name": "B4",
          "ticks": 504,
          "time": 2.625,
          "velocity": 0.7874015748031497
        },
        {
          "duration": 0.25,
          "durationTicks": 48,
          "midi": 75,
          "name": "D#5",
          "ticks": 576,
          "time": 3,
          "velocity": 0.7874015748031497
        },
        {
          "duration": 0.25,
          "durationTicks": 48,
          "midi": 71,
          "name": "B4",
          "ticks": 576,
          "time": 3,
          "velocity": 0.7874015748031497
        },
        {
          "duration": 0.25,
          "durationTicks": 48,
          "midi": 73,
          "name": "C#5",
          "ticks": 648,
          "time": 3.375,
          "velocity": 0.7874015748031497
        },
        {
          "duration": 0.25,
          "durationTicks": 48,
          "midi": 71,
          "name": "B4",
          "ticks": 648,
          "time": 3.375,
          "velocity": 0.7874015748031497
        },
        {
          "duration": 0.25,
          "durationTicks": 48,
          "midi": 73,
          "name": "C#5",
          "ticks": 720,
          "time": 3.75,
          "velocity": 0.7874015748031497
        },
        {
          "duration": 0.25,
          "durationTicks": 48,
          "midi": 71,
          "name": "B4",
          "ticks": 720,
          "time": 3.75,
          "velocity": 0.7874015748031497
        },
        {
          "duration": 0.25,
          "durationTicks": 48,
          "midi": 71,
          "name": "B4",
          "ticks": 768,
          "time": 4,
          "velocity": 0.7874015748031497
        },
        {
          "duration": 0.25,
          "durationTicks": 48,
          "midi": 68,
          "name": "G#4",
          "ticks": 768,
          "time": 4,
          "velocity": 0.7874015748031497
        },
        {
          "duration": 0.25,
          "durationTicks": 48,
          "midi": 71,
          "name": "B4",
          "ticks": 864,
          "time": 4.5,
          "velocity": 0.7874015748031497
        },
        {
          "duration": 0.25,
          "durationTicks": 48,
          "midi": 68,
          "name": "G#4",
          "ticks": 864,
          "time": 4.5,
          "velocity": 0.7874015748031497
        },
        {
          "duration": 0.25,
          "durationTicks": 48,
          "midi": 70,
          "name": "A#4",
          "ticks": 960,
          "time": 5,
          "velocity": 0.7874015748031497
        },
        {
          "duration": 0.25,
          "durationTicks": 48,
          "midi": 67,
          "name": "G4",
          "ticks": 960,
          "time": 5,
          "velocity": 0.7874015748031497
        },
        {
          "duration": 0.25,
          "durationTicks": 48,
          "midi": 70,
          "name": "A#4",
          "ticks": 1032,
          "time": 5.375,
          "velocity": 0.7874015748031497
        },
        {
          "duration": 0.25,
          "durationTicks": 48,
          "midi": 67,
          "name": "G4",
          "ticks": 1032,
          "time": 5.375,
          "velocity": 0.7874015748031497
        },
        {
          "duration": 0.25,
          "durationTicks": 48,
          "midi": 70,
          "name": "A#4",
          "ticks": 1104,
          "time": 5.75,
          "velocity": 0.7874015748031497
        },
        {
          "duration": 0.25,
          "durationTicks": 48,
          "midi": 67,
          "name": "G4",
          "ticks": 1104,
          "time": 5.75,
          "velocity": 0.7874015748031497
        },
        {
          "duration": 0.25,
          "durationTicks": 48,
          "midi": 75,
          "name": "D#5",
          "ticks": 1200,
          "time": 6.25,
          "velocity": 0.7874015748031497
        },
        {
          "duration": 0.25,
          "durationTicks": 48,
          "midi": 71,
          "name": "B4",
          "ticks": 1200,
          "time": 6.25,
          "velocity": 0.7874015748031497
        },
        {
          "duration": 0.25,
          "durationTicks": 48,
          "midi": 75,
          "name": "D#5",
          "ticks": 1272,
          "time": 6.625,
          "velocity": 0.7874015748031497
        },
        {
          "duration": 0.25,
          "durationTicks": 48,
          "midi": 71,
          "name": "B4",
          "ticks": 1272,
          "time": 6.625,
          "velocity": 0.7874015748031497
        },
        {
          "duration": 0.25,
          "durationTicks": 48,
          "midi": 75,
          "name": "D#5",
          "ticks": 1344,
          "time": 7,
          "velocity": 0.7874015748031497
        },
        {
          "duration": 0.25,
          "durationTicks": 48,
          "midi": 71,
          "name": "B4",
          "ticks": 1344,
          "time": 7,
          "velocity": 0.7874015748031497
        },
        {
          "duration": 0.25,
          "durationTicks": 48,
          "midi": 73,
          "name": "C#5",
          "ticks": 1416,
          "time": 7.375,
          "velocity": 0.7874015748031497
        },
        {
          "duration": 0.25,
          "durationTicks": 48,
          "midi": 71,
          "name": "B4",
          "ticks": 1416,
          "time": 7.375,
          "velocity": 0.7874015748031497
        },
        {
          "duration": 0.25,
          "durationTicks": 48,
          "midi": 73,
          "name": "C#5",
          "ticks": 1488,
          "time": 7.75,
          "velocity": 0.7874015748031497
        },
        {
          "duration": 0.25,
          "durationTicks": 48,
          "midi": 71,
          "name": "B4",
          "ticks": 1488,
          "time": 7.75,
          "velocity": 0.7874015748031497
        },
        {
          "duration": 0.25,
          "durationTicks": 48,
          "midi": 68,
          "name": "G#4",
          "ticks": 1536,
          "time": 8,
          "velocity": 0.7874015748031497
        },
        {
          "duration": 0.25,
          "durationTicks": 48,
          "midi": 64,
          "name": "E4",
          "ticks": 1536,
          "time": 8,
          "velocity": 0.7874015748031497
        },
        {
          "duration": 0.25,
          "durationTicks": 48,
          "midi": 68,
          "name": "G#4",
          "ticks": 1632,
          "time": 8.5,
          "velocity": 0.7874015748031497
        },
        {
          "duration": 0.25,
          "durationTicks": 48,
          "midi": 64,
          "name": "E4",
          "ticks": 1632,
          "time": 8.5,
          "velocity": 0.7874015748031497
        },
        {
          "duration": 0.25,
          "durationTicks": 48,
          "midi": 73,
          "name": "C#5",
          "ticks": 1728,
          "time": 9,
          "velocity": 0.7874015748031497
        },
        {
          "duration": 0.25,
          "durationTicks": 48,
          "midi": 70,
          "name": "A#4",
          "ticks": 1728,
          "time": 9,
          "velocity": 0.7874015748031497
        },
        {
          "duration": 0.25,
          "durationTicks": 48,
          "midi": 73,
          "name": "C#5",
          "ticks": 1800,
          "time": 9.375,
          "velocity": 0.7874015748031497
        },
        {
          "duration": 0.25,
          "durationTicks": 48,
          "midi": 70,
          "name": "A#4",
          "ticks": 1800,
          "time": 9.375,
          "velocity": 0.7874015748031497
        },
        {
          "duration": 0.25,
          "durationTicks": 48,
          "midi": 73,
          "name": "C#5",
          "ticks": 1872,
          "time": 9.75,
          "velocity": 0.7874015748031497
        },
        {
          "duration": 0.25,
          "durationTicks": 48,
          "midi": 70,
          "name": "A#4",
          "ticks": 1872,
          "time": 9.75,
          "velocity": 0.7874015748031497
        },
        {
          "duration": 0.25,
          "durationTicks": 48,
          "midi": 75,
          "name": "D#5",
          "ticks": 1968,
          "time": 10.25,
          "velocity": 0.7874015748031497
        },
        {
          "duration": 0.25,
          "durationTicks": 48,
          "midi": 71,
          "name": "B4",
          "ticks": 1968,
          "time": 10.25,
          "velocity": 0.7874015748031497
        },
        {
          "duration": 0.25,
          "durationTicks": 48,
          "midi": 75,
          "name": "D#5",
          "ticks": 2040,
          "time": 10.625,
          "velocity": 0.7874015748031497
        },
        {
          "duration": 0.25,
          "durationTicks": 48,
          "midi": 71,
          "name": "B4",
          "ticks": 2040,
          "time": 10.625,
          "velocity": 0.7874015748031497
        },
        {
          "duration": 0.25,
          "durationTicks": 48,
          "midi": 75,
          "name": "D#5",
          "ticks": 2112,
          "time": 11,
          "velocity": 0.7874015748031497
        },
        {
          "duration": 0.25,
          "durationTicks": 48,
          "midi": 71,
          "name": "B4",
          "ticks": 2112,
          "time": 11,
          "velocity": 0.7874015748031497
        },
        {
          "duration": 0.25,
          "durationTicks": 48,
          "midi": 73,
          "name": "C#5",
          "ticks": 2184,
          "time": 11.375,
          "velocity": 0.7874015748031497
        },
        {
          "duration": 0.25,
          "durationTicks": 48,
          "midi": 71,
          "name": "B4",
          "ticks": 2184,
          "time": 11.375,
          "velocity": 0.7874015748031497
        },
        {
          "duration": 0.25,
          "durationTicks": 48,
          "midi": 73,
          "name": "C#5",
          "ticks": 2256,
          "time": 11.75,
          "velocity": 0.7874015748031497
        },
        {
          "duration": 0.25,
          "durationTicks": 48,
          "midi": 71,
          "name": "B4",
          "ticks": 2256,
          "time": 11.75,
          "velocity": 0.7874015748031497
        },
        {
          "duration": 0.25,
          "durationTicks": 48,
          "midi": 68,
          "name": "G#4",
          "ticks": 2304,
          "time": 12,
          "velocity": 0.7874015748031497
        },
        {
          "duration": 0.25,
          "durationTicks": 48,
          "midi": 64,
          "name": "E4",
          "ticks": 2304,
          "time": 12,
          "velocity": 0.7874015748031497
        },
        {
          "duration": 0.25,
          "durationTicks": 48,
          "midi": 68,
          "name": "G#4",
          "ticks": 2400,
          "time": 12.5,
          "velocity": 0.7874015748031497
        },
        {
          "duration": 0.25,
          "durationTicks": 48,
          "midi": 64,
          "name": "E4",
          "ticks": 2400,
          "time": 12.5,
          "velocity": 0.7874015748031497
        },
        {
          "duration": 0.25,
          "durationTicks": 48,
          "midi": 73,
          "name": "C#5",
          "ticks": 2496,
          "time": 13,
          "velocity": 0.7874015748031497
        },
        {
          "duration": 0.25,
          "durationTicks": 48,
          "midi": 70,
          "name": "A#4",
          "ticks": 2496,
          "time": 13,
          "velocity": 0.7874015748031497
        },
        {
          "duration": 0.25,
          "durationTicks": 48,
          "midi": 73,
          "name": "C#5",
          "ticks": 2568,
          "time": 13.375,
          "velocity": 0.7874015748031497
        },
        {
          "duration": 0.25,
          "durationTicks": 48,
          "midi": 70,
          "name": "A#4",
          "ticks": 2568,
          "time": 13.375,
          "velocity": 0.7874015748031497
        },
        {
          "duration": 0.25,
          "durationTicks": 48,
          "midi": 73,
          "name": "C#5",
          "ticks": 2640,
          "time": 13.75,
          "velocity": 0.7874015748031497
        },
        {
          "duration": 0.25,
          "durationTicks": 48,
          "midi": 70,
          "name": "A#4",
          "ticks": 2640,
          "time": 13.75,
          "velocity": 0.7874015748031497
        },
        {
          "duration": 0.25,
          "durationTicks": 48,
          "midi": 75,
          "name": "D#5",
          "ticks": 2736,
          "time": 14.25,
          "velocity": 0.7874015748031497
        },
        {
          "duration": 0.25,
          "durationTicks": 48,
          "midi": 71,
          "name": "B4",
          "ticks": 2736,
          "time": 14.25,
          "velocity": 0.7874015748031497
        },
        {
          "duration": 0.25,
          "durationTicks": 48,
          "midi": 75,
          "name": "D#5",
          "ticks": 2808,
          "time": 14.625,
          "velocity": 0.7874015748031497
        },
        {
          "duration": 0.25,
          "durationTicks": 48,
          "midi": 71,
          "name": "B4",
          "ticks": 2808,
          "time": 14.625,
          "velocity": 0.7874015748031497
        },
        {
          "duration": 0.25,
          "durationTicks": 48,
          "midi": 75,
          "name": "D#5",
          "ticks": 2880,
          "time": 15,
          "velocity": 0.7874015748031497
        },
        {
          "duration": 0.25,
          "durationTicks": 48,
          "midi": 71,
          "name": "B4",
          "ticks": 2880,
          "time": 15,
          "velocity": 0.7874015748031497
        },
        {
          "duration": 0.25,
          "durationTicks": 48,
          "midi": 73,
          "name": "C#5",
          "ticks": 2952,
          "time": 15.375,
          "velocity": 0.7874015748031497
        },
        {
          "duration": 0.25,
          "durationTicks": 48,
          "midi": 71,
          "name": "B4",
          "ticks": 2952,
          "time": 15.375,
          "velocity": 0.7874015748031497
        },
        {
          "duration": 0.25,
          "durationTicks": 48,
          "midi": 73,
          "name": "C#5",
          "ticks": 3024,
          "time": 15.75,
          "velocity": 0.7874015748031497
        },
        {
          "duration": 0.25,
          "durationTicks": 48,
          "midi": 71,
          "name": "B4",
          "ticks": 3024,
          "time": 15.75,
          "velocity": 0.7874015748031497
        },
        {
          "duration": 0.25,
          "durationTicks": 48,
          "midi": 71,
          "name": "B4",
          "ticks": 3072,
          "time": 16,
          "velocity": 0.7874015748031497
        },
        {
          "duration": 0.25,
          "durationTicks": 48,
          "midi": 68,
          "name": "G#4",
          "ticks": 3072,
          "time": 16,
          "velocity": 0.7874015748031497
        },
        {
          "duration": 0.25,
          "durationTicks": 48,
          "midi": 71,
          "name": "B4",
          "ticks": 3168,
          "time": 16.5,
          "velocity": 0.7874015748031497
        },
        {
          "duration": 0.25,
          "durationTicks": 48,
          "midi": 68,
          "name": "G#4",
          "ticks": 3168,
          "time": 16.5,
          "velocity": 0.7874015748031497
        },
        {
          "duration": 0.25,
          "durationTicks": 48,
          "midi": 70,
          "name": "A#4",
          "ticks": 3264,
          "time": 17,
          "velocity": 0.7874015748031497
        },
        {
          "duration": 0.25,
          "durationTicks": 48,
          "midi": 67,
          "name": "G4",
          "ticks": 3264,
          "time": 17,
          "velocity": 0.7874015748031497
        },
        {
          "duration": 0.25,
          "durationTicks": 48,
          "midi": 75,
          "name": "D#5",
          "ticks": 3336,
          "time": 17.375,
          "velocity": 0.7874015748031497
        },
        {
          "duration": 0.25,
          "durationTicks": 48,
          "midi": 70,
          "name": "A#4",
          "ticks": 3336,
          "time": 17.375,
          "velocity": 0.7874015748031497
        },
        {
          "duration": 0.25,
          "durationTicks": 48,
          "midi": 70,
          "name": "A#4",
          "ticks": 3408,
          "time": 17.75,
          "velocity": 0.7874015748031497
        },
        {
          "duration": 0.25,
          "durationTicks": 48,
          "midi": 67,
          "name": "G4",
          "ticks": 3408,
          "time": 17.75,
          "velocity": 0.7874015748031497
        },
        {
          "duration": 0.25,
          "durationTicks": 48,
          "midi": 75,
          "name": "D#5",
          "ticks": 3504,
          "time": 18.25,
          "velocity": 0.7874015748031497
        },
        {
          "duration": 0.25,
          "durationTicks": 48,
          "midi": 71,
          "name": "B4",
          "ticks": 3504,
          "time": 18.25,
          "velocity": 0.7874015748031497
        },
        {
          "duration": 0.25,
          "durationTicks": 48,
          "midi": 75,
          "name": "D#5",
          "ticks": 3576,
          "time": 18.625,
          "velocity": 0.7874015748031497
        },
        {
          "duration": 0.25,
          "durationTicks": 48,
          "midi": 71,
          "name": "B4",
          "ticks": 3576,
          "time": 18.625,
          "velocity": 0.7874015748031497
        },
        {
          "duration": 0.25,
          "durationTicks": 48,
          "midi": 80,
          "name": "G#5",
          "ticks": 3648,
          "time": 19,
          "velocity": 0.7874015748031497
        },
        {
          "duration": 0.25,
          "durationTicks": 48,
          "midi": 71,
          "name": "B4",
          "ticks": 3648,
          "time": 19,
          "velocity": 0.7874015748031497
        },
        {
          "duration": 0.25,
          "durationTicks": 48,
          "midi": 75,
          "name": "D#5",
          "ticks": 3720,
          "time": 19.375,
          "velocity": 0.7874015748031497
        },
        {
          "duration": 0.25,
          "durationTicks": 48,
          "midi": 71,
          "name": "B4",
          "ticks": 3720,
          "time": 19.375,
          "velocity": 0.7874015748031497
        },
        {
          "duration": 0.25,
          "durationTicks": 48,
          "midi": 73,
          "name": "C#5",
          "ticks": 3792,
          "time": 19.75,
          "velocity": 0.7874015748031497
        },
        {
          "duration": 0.25,
          "durationTicks": 48,
          "midi": 71,
          "name": "B4",
          "ticks": 3792,
          "time": 19.75,
          "velocity": 0.7874015748031497
        },
        {
          "duration": 0.25,
          "durationTicks": 48,
          "midi": 76,
          "name": "E5",
          "ticks": 3840,
          "time": 20,
          "velocity": 0.7874015748031497
        },
        {
          "duration": 0.25,
          "durationTicks": 48,
          "midi": 71,
          "name": "B4",
          "ticks": 3840,
          "time": 20,
          "velocity": 0.7874015748031497
        },
        {
          "duration": 0.25,
          "durationTicks": 48,
          "midi": 76,
          "name": "E5",
          "ticks": 3936,
          "time": 20.5,
          "velocity": 0.7874015748031497
        },
        {
          "duration": 0.25,
          "durationTicks": 48,
          "midi": 71,
          "name": "B4",
          "ticks": 3936,
          "time": 20.5,
          "velocity": 0.7874015748031497
        },
        {
          "duration": 0.25,
          "durationTicks": 48,
          "midi": 75,
          "name": "D#5",
          "ticks": 4032,
          "time": 21,
          "velocity": 0.7874015748031497
        },
        {
          "duration": 0.25,
          "durationTicks": 48,
          "midi": 70,
          "name": "A#4",
          "ticks": 4032,
          "time": 21,
          "velocity": 0.7874015748031497
        },
        {
          "duration": 0.25,
          "durationTicks": 48,
          "midi": 76,
          "name": "E5",
          "ticks": 4104,
          "time": 21.375,
          "velocity": 0.7874015748031497
        },
        {
          "duration": 0.25,
          "durationTicks": 48,
          "midi": 70,
          "name": "A#4",
          "ticks": 4104,
          "time": 21.375,
          "velocity": 0.7874015748031497
        },
        {
          "duration": 0.25,
          "durationTicks": 48,
          "midi": 75,
          "name": "D#5",
          "ticks": 4176,
          "time": 21.75,
          "velocity": 0.7874015748031497
        },
        {
          "duration": 0.25,
          "durationTicks": 48,
          "midi": 70,
          "name": "A#4",
          "ticks": 4176,
          "time": 21.75,
          "velocity": 0.7874015748031497
        },
        {
          "duration": 0.25,
          "durationTicks": 48,
          "midi": 71,
          "name": "B4",
          "ticks": 4272,
          "time": 22.25,
          "velocity": 0.7874015748031497
        },
        {
          "duration": 0.25,
          "durationTicks": 48,
          "midi": 68,
          "name": "G#4",
          "ticks": 4272,
          "time": 22.25,
          "velocity": 0.7874015748031497
        },
        {
          "duration": 0.25,
          "durationTicks": 48,
          "midi": 71,
          "name": "B4",
          "ticks": 4344,
          "time": 22.625,
          "velocity": 0.7874015748031497
        },
        {
          "duration": 0.25,
          "durationTicks": 48,
          "midi": 68,
          "name": "G#4",
          "ticks": 4344,
          "time": 22.625,
          "velocity": 0.7874015748031497
        },
        {
          "duration": 0.25,
          "durationTicks": 48,
          "midi": 75,
          "name": "D#5",
          "ticks": 4416,
          "time": 23,
          "velocity": 0.7874015748031497
        },
        {
          "duration": 0.25,
          "durationTicks": 48,
          "midi": 71,
          "name": "B4",
          "ticks": 4416,
          "time": 23,
          "velocity": 0.7874015748031497
        },
        {
          "duration": 0.25,
          "durationTicks": 48,
          "midi": 73,
          "name": "C#5",
          "ticks": 4488,
          "time": 23.375,
          "velocity": 0.7874015748031497
        },
        {
          "duration": 0.25,
          "durationTicks": 48,
          "midi": 71,
          "name": "B4",
          "ticks": 4488,
          "time": 23.375,
          "velocity": 0.7874015748031497
        },
        {
          "duration": 0.25,
          "durationTicks": 48,
          "midi": 75,
          "name": "D#5",
          "ticks": 4560,
          "time": 23.75,
          "velocity": 0.7874015748031497
        },
        {
          "duration": 0.25,
          "durationTicks": 48,
          "midi": 71,
          "name": "B4",
          "ticks": 4560,
          "time": 23.75,
          "velocity": 0.7874015748031497
        },
        {
          "duration": 0.25,
          "durationTicks": 48,
          "midi": 68,
          "name": "G#4",
          "ticks": 4608,
          "time": 24,
          "velocity": 0.7874015748031497
        },
        {
          "duration": 0.25,
          "durationTicks": 48,
          "midi": 64,
          "name": "E4",
          "ticks": 4608,
          "time": 24,
          "velocity": 0.7874015748031497
        },
        {
          "duration": 0.25,
          "durationTicks": 48,
          "midi": 68,
          "name": "G#4",
          "ticks": 4704,
          "time": 24.5,
          "velocity": 0.7874015748031497
        },
        {
          "duration": 0.25,
          "durationTicks": 48,
          "midi": 64,
          "name": "E4",
          "ticks": 4704,
          "time": 24.5,
          "velocity": 0.7874015748031497
        },
        {
          "duration": 0.25,
          "durationTicks": 48,
          "midi": 73,
          "name": "C#5",
          "ticks": 4800,
          "time": 25,
          "velocity": 0.7874015748031497
        },
        {
          "duration": 0.25,
          "durationTicks": 48,
          "midi": 70,
          "name": "A#4",
          "ticks": 4800,
          "time": 25,
          "velocity": 0.7874015748031497
        },
        {
          "duration": 0.25,
          "durationTicks": 48,
          "midi": 76,
          "name": "E5",
          "ticks": 4872,
          "time": 25.375,
          "velocity": 0.7874015748031497
        },
        {
          "duration": 0.25,
          "durationTicks": 48,
          "midi": 73,
          "name": "C#5",
          "ticks": 4872,
          "time": 25.375,
          "velocity": 0.7874015748031497
        },
        {
          "duration": 0.25,
          "durationTicks": 48,
          "midi": 73,
          "name": "C#5",
          "ticks": 4944,
          "time": 25.75,
          "velocity": 0.7874015748031497
        },
        {
          "duration": 0.25,
          "durationTicks": 48,
          "midi": 70,
          "name": "A#4",
          "ticks": 4944,
          "time": 25.75,
          "velocity": 0.7874015748031497
        },
        {
          "duration": 0.25,
          "durationTicks": 48,
          "midi": 75,
          "name": "D#5",
          "ticks": 5040,
          "time": 26.25,
          "velocity": 0.7874015748031497
        },
        {
          "duration": 0.25,
          "durationTicks": 48,
          "midi": 71,
          "name": "B4",
          "ticks": 5040,
          "time": 26.25,
          "velocity": 0.7874015748031497
        },
        {
          "duration": 0.25,
          "durationTicks": 48,
          "midi": 75,
          "name": "D#5",
          "ticks": 5112,
          "time": 26.625,
          "velocity": 0.7874015748031497
        },
        {
          "duration": 0.25,
          "durationTicks": 48,
          "midi": 71,
          "name": "B4",
          "ticks": 5112,
          "time": 26.625,
          "velocity": 0.7874015748031497
        },
        {
          "duration": 0.25,
          "durationTicks": 48,
          "midi": 80,
          "name": "G#5",
          "ticks": 5184,
          "time": 27,
          "velocity": 0.7874015748031497
        },
        {
          "duration": 0.25,
          "durationTicks": 48,
          "midi": 71,
          "name": "B4",
          "ticks": 5184,
          "time": 27,
          "velocity": 0.7874015748031497
        },
        {
          "duration": 0.25,
          "durationTicks": 48,
          "midi": 83,
          "name": "B5",
          "ticks": 5256,
          "time": 27.375,
          "velocity": 0.7874015748031497
        },
        {
          "duration": 0.25,
          "durationTicks": 48,
          "midi": 71,
          "name": "B4",
          "ticks": 5256,
          "time": 27.375,
          "velocity": 0.7874015748031497
        },
        {
          "duration": 0.25,
          "durationTicks": 48,
          "midi": 80,
          "name": "G#5",
          "ticks": 5328,
          "time": 27.75,
          "velocity": 0.7874015748031497
        },
        {
          "duration": 0.25,
          "durationTicks": 48,
          "midi": 71,
          "name": "B4",
          "ticks": 5328,
          "time": 27.75,
          "velocity": 0.7874015748031497
        },
        {
          "duration": 0.25,
          "durationTicks": 48,
          "midi": 76,
          "name": "E5",
          "ticks": 5376,
          "time": 28,
          "velocity": 0.7874015748031497
        },
        {
          "duration": 0.25,
          "durationTicks": 48,
          "midi": 73,
          "name": "C#5",
          "ticks": 5376,
          "time": 28,
          "velocity": 0.7874015748031497
        },
        {
          "duration": 0.25,
          "durationTicks": 48,
          "midi": 76,
          "name": "E5",
          "ticks": 5472,
          "time": 28.5,
          "velocity": 0.7874015748031497
        },
        {
          "duration": 0.25,
          "durationTicks": 48,
          "midi": 73,
          "name": "C#5",
          "ticks": 5472,
          "time": 28.5,
          "velocity": 0.7874015748031497
        },
        {
          "duration": 0.25,
          "durationTicks": 48,
          "midi": 75,
          "name": "D#5",
          "ticks": 5568,
          "time": 29,
          "velocity": 0.7874015748031497
        },
        {
          "duration": 0.25,
          "durationTicks": 48,
          "midi": 70,
          "name": "A#4",
          "ticks": 5568,
          "time": 29,
          "velocity": 0.7874015748031497
        },
        {
          "duration": 0.25,
          "durationTicks": 48,
          "midi": 76,
          "name": "E5",
          "ticks": 5640,
          "time": 29.375,
          "velocity": 0.7874015748031497
        },
        {
          "duration": 0.25,
          "durationTicks": 48,
          "midi": 70,
          "name": "A#4",
          "ticks": 5640,
          "time": 29.375,
          "velocity": 0.7874015748031497
        },
        {
          "duration": 0.25,
          "durationTicks": 48,
          "midi": 75,
          "name": "D#5",
          "ticks": 5712,
          "time": 29.75,
          "velocity": 0.7874015748031497
        },
        {
          "duration": 0.25,
          "durationTicks": 48,
          "midi": 70,
          "name": "A#4",
          "ticks": 5712,
          "time": 29.75,
          "velocity": 0.7874015748031497
        },
        {
          "duration": 0.25,
          "durationTicks": 48,
          "midi": 71,
          "name": "B4",
          "ticks": 5808,
          "time": 30.25,
          "velocity": 0.7874015748031497
        },
        {
          "duration": 0.25,
          "durationTicks": 48,
          "midi": 68,
          "name": "G#4",
          "ticks": 5808,
          "time": 30.25,
          "velocity": 0.7874015748031497
        },
        {
          "duration": 0.25,
          "durationTicks": 48,
          "midi": 71,
          "name": "B4",
          "ticks": 5880,
          "time": 30.625,
          "velocity": 0.7874015748031497
        },
        {
          "duration": 0.25,
          "durationTicks": 48,
          "midi": 68,
          "name": "G#4",
          "ticks": 5880,
          "time": 30.625,
          "velocity": 0.7874015748031497
        },
        {
          "duration": 0.25,
          "durationTicks": 48,
          "midi": 71,
          "name": "B4",
          "ticks": 5952,
          "time": 31,
          "velocity": 0.7874015748031497
        },
        {
          "duration": 0.25,
          "durationTicks": 48,
          "midi": 68,
          "name": "G#4",
          "ticks": 5952,
          "time": 31,
          "velocity": 0.7874015748031497
        },
        {
          "duration": 0.25,
          "durationTicks": 48,
          "midi": 70,
          "name": "A#4",
          "ticks": 6024,
          "time": 31.375,
          "velocity": 0.7874015748031497
        },
        {
          "duration": 0.25,
          "durationTicks": 48,
          "midi": 68,
          "name": "G#4",
          "ticks": 6024,
          "time": 31.375,
          "velocity": 0.7874015748031497
        },
        {
          "duration": 0.25,
          "durationTicks": 48,
          "midi": 71,
          "name": "B4",
          "ticks": 6096,
          "time": 31.75,
          "velocity": 0.7874015748031497
        },
        {
          "duration": 0.25,
          "durationTicks": 48,
          "midi": 68,
          "name": "G#4",
          "ticks": 6096,
          "time": 31.75,
          "velocity": 0.7874015748031497
        },
        {
          "duration": 0.25,
          "durationTicks": 48,
          "midi": 71,
          "name": "B4",
          "ticks": 6144,
          "time": 32,
          "velocity": 0.7874015748031497
        },
        {
          "duration": 0.25,
          "durationTicks": 48,
          "midi": 68,
          "name": "G#4",
          "ticks": 6144,
          "time": 32,
          "velocity": 0.7874015748031497
        },
        {
          "duration": 0.25,
          "durationTicks": 48,
          "midi": 71,
          "name": "B4",
          "ticks": 6240,
          "time": 32.5,
          "velocity": 0.7874015748031497
        },
        {
          "duration": 0.25,
          "durationTicks": 48,
          "midi": 68,
          "name": "G#4",
          "ticks": 6240,
          "time": 32.5,
          "velocity": 0.7874015748031497
        },
        {
          "duration": 0.25,
          "durationTicks": 48,
          "midi": 70,
          "name": "A#4",
          "ticks": 6336,
          "time": 33,
          "velocity": 0.7874015748031497
        },
        {
          "duration": 0.25,
          "durationTicks": 48,
          "midi": 67,
          "name": "G4",
          "ticks": 6336,
          "time": 33,
          "velocity": 0.7874015748031497
        },
        {
          "duration": 0.25,
          "durationTicks": 48,
          "midi": 70,
          "name": "A#4",
          "ticks": 6408,
          "time": 33.375,
          "velocity": 0.7874015748031497
        },
        {
          "duration": 0.25,
          "durationTicks": 48,
          "midi": 67,
          "name": "G4",
          "ticks": 6408,
          "time": 33.375,
          "velocity": 0.7874015748031497
        },
        {
          "duration": 0.25,
          "durationTicks": 48,
          "midi": 70,
          "name": "A#4",
          "ticks": 6480,
          "time": 33.75,
          "velocity": 0.7874015748031497
        },
        {
          "duration": 0.25,
          "durationTicks": 48,
          "midi": 67,
          "name": "G4",
          "ticks": 6480,
          "time": 33.75,
          "velocity": 0.7874015748031497
        },
        {
          "duration": 0.25,
          "durationTicks": 48,
          "midi": 75,
          "name": "D#5",
          "ticks": 6576,
          "time": 34.25,
          "velocity": 0.7874015748031497
        },
        {
          "duration": 0.25,
          "durationTicks": 48,
          "midi": 71,
          "name": "B4",
          "ticks": 6576,
          "time": 34.25,
          "velocity": 0.7874015748031497
        },
        {
          "duration": 0.25,
          "durationTicks": 48,
          "midi": 75,
          "name": "D#5",
          "ticks": 6648,
          "time": 34.625,
          "velocity": 0.7874015748031497
        },
        {
          "duration": 0.25,
          "durationTicks": 48,
          "midi": 71,
          "name": "B4",
          "ticks": 6648,
          "time": 34.625,
          "velocity": 0.7874015748031497
        },
        {
          "duration": 0.25,
          "durationTicks": 48,
          "midi": 75,
          "name": "D#5",
          "ticks": 6720,
          "time": 35,
          "velocity": 0.7874015748031497
        },
        {
          "duration": 0.25,
          "durationTicks": 48,
          "midi": 71,
          "name": "B4",
          "ticks": 6720,
          "time": 35,
          "velocity": 0.7874015748031497
        },
        {
          "duration": 0.25,
          "durationTicks": 48,
          "midi": 73,
          "name": "C#5",
          "ticks": 6792,
          "time": 35.375,
          "velocity": 0.7874015748031497
        },
        {
          "duration": 0.25,
          "durationTicks": 48,
          "midi": 71,
          "name": "B4",
          "ticks": 6792,
          "time": 35.375,
          "velocity": 0.7874015748031497
        },
        {
          "duration": 0.25,
          "durationTicks": 48,
          "midi": 73,
          "name": "C#5",
          "ticks": 6864,
          "time": 35.75,
          "velocity": 0.7874015748031497
        },
        {
          "duration": 0.25,
          "durationTicks": 48,
          "midi": 71,
          "name": "B4",
          "ticks": 6864,
          "time": 35.75,
          "velocity": 0.7874015748031497
        },
        {
          "duration": 0.25,
          "durationTicks": 48,
          "midi": 71,
          "name": "B4",
          "ticks": 6912,
          "time": 36,
          "velocity": 0.7874015748031497
        },
        {
          "duration": 0.25,
          "durationTicks": 48,
          "midi": 68,
          "name": "G#4",
          "ticks": 6912,
          "time": 36,
          "velocity": 0.7874015748031497
        },
        {
          "duration": 0.25,
          "durationTicks": 48,
          "midi": 71,
          "name": "B4",
          "ticks": 7008,
          "time": 36.5,
          "velocity": 0.7874015748031497
        },
        {
          "duration": 0.25,
          "durationTicks": 48,
          "midi": 68,
          "name": "G#4",
          "ticks": 7008,
          "time": 36.5,
          "velocity": 0.7874015748031497
        },
        {
          "duration": 0.1302083333333357,
          "durationTicks": 25,
          "midi": 70,
          "name": "A#4",
          "ticks": 7104,
          "time": 37,
          "velocity": 0.7874015748031497
        },
        {
          "duration": 0.25,
          "durationTicks": 48,
          "midi": 67,
          "name": "G4",
          "ticks": 7104,
          "time": 37,
          "velocity": 0.7874015748031497
        },
        {
          "duration": 0.25,
          "durationTicks": 48,
          "midi": 70,
          "name": "A#4",
          "ticks": 7176,
          "time": 37.375,
          "velocity": 0.7874015748031497
        },
        {
          "duration": 0.25,
          "durationTicks": 48,
          "midi": 67,
          "name": "G4",
          "ticks": 7176,
          "time": 37.375,
          "velocity": 0.7874015748031497
        },
        {
          "duration": 0.25,
          "durationTicks": 48,
          "midi": 70,
          "name": "A#4",
          "ticks": 7248,
          "time": 37.75,
          "velocity": 0.7874015748031497
        },
        {
          "duration": 0.25,
          "durationTicks": 48,
          "midi": 67,
          "name": "G4",
          "ticks": 7248,
          "time": 37.75,
          "velocity": 0.7874015748031497
        },
        {
          "duration": 0.25,
          "durationTicks": 48,
          "midi": 75,
          "name": "D#5",
          "ticks": 7344,
          "time": 38.25,
          "velocity": 0.7874015748031497
        },
        {
          "duration": 0.25,
          "durationTicks": 48,
          "midi": 71,
          "name": "B4",
          "ticks": 7344,
          "time": 38.25,
          "velocity": 0.7874015748031497
        },
        {
          "duration": 0.25,
          "durationTicks": 48,
          "midi": 75,
          "name": "D#5",
          "ticks": 7416,
          "time": 38.625,
          "velocity": 0.7874015748031497
        },
        {
          "duration": 0.25,
          "durationTicks": 48,
          "midi": 71,
          "name": "B4",
          "ticks": 7416,
          "time": 38.625,
          "velocity": 0.7874015748031497
        },
        {
          "duration": 0.25,
          "durationTicks": 48,
          "midi": 75,
          "name": "D#5",
          "ticks": 7488,
          "time": 39,
          "velocity": 0.7874015748031497
        },
        {
          "duration": 0.25,
          "durationTicks": 48,
          "midi": 71,
          "name": "B4",
          "ticks": 7488,
          "time": 39,
          "velocity": 0.7874015748031497
        },
        {
          "duration": 0.25,
          "durationTicks": 48,
          "midi": 73,
          "name": "C#5",
          "ticks": 7560,
          "time": 39.375,
          "velocity": 0.7874015748031497
        },
        {
          "duration": 0.25,
          "durationTicks": 48,
          "midi": 71,
          "name": "B4",
          "ticks": 7560,
          "time": 39.375,
          "velocity": 0.7874015748031497
        },
        {
          "duration": 0.25,
          "durationTicks": 48,
          "midi": 73,
          "name": "C#5",
          "ticks": 7632,
          "time": 39.75,
          "velocity": 0.7874015748031497
        },
        {
          "duration": 0.25,
          "durationTicks": 48,
          "midi": 71,
          "name": "B4",
          "ticks": 7632,
          "time": 39.75,
          "velocity": 0.7874015748031497
        },
        {
          "duration": 0.25,
          "durationTicks": 48,
          "midi": 68,
          "name": "G#4",
          "ticks": 7680,
          "time": 40,
          "velocity": 0.7874015748031497
        },
        {
          "duration": 0.25,
          "durationTicks": 48,
          "midi": 64,
          "name": "E4",
          "ticks": 7680,
          "time": 40,
          "velocity": 0.7874015748031497
        },
        {
          "duration": 0.25,
          "durationTicks": 48,
          "midi": 68,
          "name": "G#4",
          "ticks": 7776,
          "time": 40.5,
          "velocity": 0.7874015748031497
        },
        {
          "duration": 0.25,
          "durationTicks": 48,
          "midi": 64,
          "name": "E4",
          "ticks": 7776,
          "time": 40.5,
          "velocity": 0.7874015748031497
        },
        {
          "duration": 0.25,
          "durationTicks": 48,
          "midi": 73,
          "name": "C#5",
          "ticks": 7872,
          "time": 41,
          "velocity": 0.7874015748031497
        },
        {
          "duration": 0.25,
          "durationTicks": 48,
          "midi": 70,
          "name": "A#4",
          "ticks": 7872,
          "time": 41,
          "velocity": 0.7874015748031497
        },
        {
          "duration": 0.25,
          "durationTicks": 48,
          "midi": 73,
          "name": "C#5",
          "ticks": 7944,
          "time": 41.375,
          "velocity": 0.7874015748031497
        },
        {
          "duration": 0.25,
          "durationTicks": 48,
          "midi": 70,
          "name": "A#4",
          "ticks": 7944,
          "time": 41.375,
          "velocity": 0.7874015748031497
        },
        {
          "duration": 0.25,
          "durationTicks": 48,
          "midi": 73,
          "name": "C#5",
          "ticks": 8016,
          "time": 41.75,
          "velocity": 0.7874015748031497
        },
        {
          "duration": 0.25,
          "durationTicks": 48,
          "midi": 70,
          "name": "A#4",
          "ticks": 8016,
          "time": 41.75,
          "velocity": 0.7874015748031497
        },
        {
          "duration": 0.25,
          "durationTicks": 48,
          "midi": 75,
          "name": "D#5",
          "ticks": 8112,
          "time": 42.25,
          "velocity": 0.7874015748031497
        },
        {
          "duration": 0.25,
          "durationTicks": 48,
          "midi": 71,
          "name": "B4",
          "ticks": 8112,
          "time": 42.25,
          "velocity": 0.7874015748031497
        },
        {
          "duration": 0.25,
          "durationTicks": 48,
          "midi": 75,
          "name": "D#5",
          "ticks": 8184,
          "time": 42.625,
          "velocity": 0.7874015748031497
        },
        {
          "duration": 0.25,
          "durationTicks": 48,
          "midi": 71,
          "name": "B4",
          "ticks": 8184,
          "time": 42.625,
          "velocity": 0.7874015748031497
        },
        {
          "duration": 0.25,
          "durationTicks": 48,
          "midi": 75,
          "name": "D#5",
          "ticks": 8256,
          "time": 43,
          "velocity": 0.7874015748031497
        },
        {
          "duration": 0.25,
          "durationTicks": 48,
          "midi": 71,
          "name": "B4",
          "ticks": 8256,
          "time": 43,
          "velocity": 0.7874015748031497
        },
        {
          "duration": 0.25,
          "durationTicks": 48,
          "midi": 73,
          "name": "C#5",
          "ticks": 8328,
          "time": 43.375,
          "velocity": 0.7874015748031497
        },
        {
          "duration": 0.25,
          "durationTicks": 48,
          "midi": 71,
          "name": "B4",
          "ticks": 8328,
          "time": 43.375,
          "velocity": 0.7874015748031497
        },
        {
          "duration": 0.25,
          "durationTicks": 48,
          "midi": 73,
          "name": "C#5",
          "ticks": 8400,
          "time": 43.75,
          "velocity": 0.7874015748031497
        },
        {
          "duration": 0.25,
          "durationTicks": 48,
          "midi": 71,
          "name": "B4",
          "ticks": 8400,
          "time": 43.75,
          "velocity": 0.7874015748031497
        },
        {
          "duration": 0.25,
          "durationTicks": 48,
          "midi": 68,
          "name": "G#4",
          "ticks": 8448,
          "time": 44,
          "velocity": 0.7874015748031497
        },
        {
          "duration": 0.25,
          "durationTicks": 48,
          "midi": 64,
          "name": "E4",
          "ticks": 8448,
          "time": 44,
          "velocity": 0.7874015748031497
        },
        {
          "duration": 0.25,
          "durationTicks": 48,
          "midi": 68,
          "name": "G#4",
          "ticks": 8544,
          "time": 44.5,
          "velocity": 0.7874015748031497
        },
        {
          "duration": 0.25,
          "durationTicks": 48,
          "midi": 64,
          "name": "E4",
          "ticks": 8544,
          "time": 44.5,
          "velocity": 0.7874015748031497
        },
        {
          "duration": 0.25,
          "durationTicks": 48,
          "midi": 73,
          "name": "C#5",
          "ticks": 8640,
          "time": 45,
          "velocity": 0.7874015748031497
        },
        {
          "duration": 0.25,
          "durationTicks": 48,
          "midi": 70,
          "name": "A#4",
          "ticks": 8640,
          "time": 45,
          "velocity": 0.7874015748031497
        },
        {
          "duration": 0.25,
          "durationTicks": 48,
          "midi": 73,
          "name": "C#5",
          "ticks": 8712,
          "time": 45.375,
          "velocity": 0.7874015748031497
        },
        {
          "duration": 0.25,
          "durationTicks": 48,
          "midi": 70,
          "name": "A#4",
          "ticks": 8712,
          "time": 45.375,
          "velocity": 0.7874015748031497
        },
        {
          "duration": 0.25,
          "durationTicks": 48,
          "midi": 73,
          "name": "C#5",
          "ticks": 8784,
          "time": 45.75,
          "velocity": 0.7874015748031497
        },
        {
          "duration": 0.25,
          "durationTicks": 48,
          "midi": 70,
          "name": "A#4",
          "ticks": 8784,
          "time": 45.75,
          "velocity": 0.7874015748031497
        },
        {
          "duration": 0.25,
          "durationTicks": 48,
          "midi": 75,
          "name": "D#5",
          "ticks": 8880,
          "time": 46.25,
          "velocity": 0.7874015748031497
        },
        {
          "duration": 0.25,
          "durationTicks": 48,
          "midi": 71,
          "name": "B4",
          "ticks": 8880,
          "time": 46.25,
          "velocity": 0.7874015748031497
        },
        {
          "duration": 0.25,
          "durationTicks": 48,
          "midi": 75,
          "name": "D#5",
          "ticks": 8952,
          "time": 46.625,
          "velocity": 0.7874015748031497
        },
        {
          "duration": 0.25,
          "durationTicks": 48,
          "midi": 71,
          "name": "B4",
          "ticks": 8952,
          "time": 46.625,
          "velocity": 0.7874015748031497
        },
        {
          "duration": 0.25,
          "durationTicks": 48,
          "midi": 75,
          "name": "D#5",
          "ticks": 9024,
          "time": 47,
          "velocity": 0.7874015748031497
        },
        {
          "duration": 0.25,
          "durationTicks": 48,
          "midi": 71,
          "name": "B4",
          "ticks": 9024,
          "time": 47,
          "velocity": 0.7874015748031497
        },
        {
          "duration": 0.25,
          "durationTicks": 48,
          "midi": 73,
          "name": "C#5",
          "ticks": 9096,
          "time": 47.375,
          "velocity": 0.7874015748031497
        },
        {
          "duration": 0.25,
          "durationTicks": 48,
          "midi": 71,
          "name": "B4",
          "ticks": 9096,
          "time": 47.375,
          "velocity": 0.7874015748031497
        },
        {
          "duration": 0.25,
          "durationTicks": 48,
          "midi": 73,
          "name": "C#5",
          "ticks": 9168,
          "time": 47.75,
          "velocity": 0.7874015748031497
        },
        {
          "duration": 0.25,
          "durationTicks": 48,
          "midi": 71,
          "name": "B4",
          "ticks": 9168,
          "time": 47.75,
          "velocity": 0.7874015748031497
        },
        {
          "duration": 0.25,
          "durationTicks": 48,
          "midi": 71,
          "name": "B4",
          "ticks": 9216,
          "time": 48,
          "velocity": 0.7874015748031497
        },
        {
          "duration": 0.25,
          "durationTicks": 48,
          "midi": 68,
          "name": "G#4",
          "ticks": 9216,
          "time": 48,
          "velocity": 0.7874015748031497
        },
        {
          "duration": 0.25,
          "durationTicks": 48,
          "midi": 71,
          "name": "B4",
          "ticks": 9312,
          "time": 48.5,
          "velocity": 0.7874015748031497
        },
        {
          "duration": 0.25,
          "durationTicks": 48,
          "midi": 68,
          "name": "G#4",
          "ticks": 9312,
          "time": 48.5,
          "velocity": 0.7874015748031497
        },
        {
          "duration": 0.25,
          "durationTicks": 48,
          "midi": 70,
          "name": "A#4",
          "ticks": 9408,
          "time": 49,
          "velocity": 0.7874015748031497
        },
        {
          "duration": 0.25,
          "durationTicks": 48,
          "midi": 67,
          "name": "G4",
          "ticks": 9408,
          "time": 49,
          "velocity": 0.7874015748031497
        },
        {
          "duration": 0.25,
          "durationTicks": 48,
          "midi": 75,
          "name": "D#5",
          "ticks": 9480,
          "time": 49.375,
          "velocity": 0.7874015748031497
        },
        {
          "duration": 0.25,
          "durationTicks": 48,
          "midi": 70,
          "name": "A#4",
          "ticks": 9480,
          "time": 49.375,
          "velocity": 0.7874015748031497
        },
        {
          "duration": 0.25,
          "durationTicks": 48,
          "midi": 70,
          "name": "A#4",
          "ticks": 9552,
          "time": 49.75,
          "velocity": 0.7874015748031497
        },
        {
          "duration": 0.25,
          "durationTicks": 48,
          "midi": 67,
          "name": "G4",
          "ticks": 9552,
          "time": 49.75,
          "velocity": 0.7874015748031497
        },
        {
          "duration": 0.25,
          "durationTicks": 48,
          "midi": 75,
          "name": "D#5",
          "ticks": 9648,
          "time": 50.25,
          "velocity": 0.7874015748031497
        },
        {
          "duration": 0.25,
          "durationTicks": 48,
          "midi": 71,
          "name": "B4",
          "ticks": 9648,
          "time": 50.25,
          "velocity": 0.7874015748031497
        },
        {
          "duration": 0.25,
          "durationTicks": 48,
          "midi": 75,
          "name": "D#5",
          "ticks": 9720,
          "time": 50.625,
          "velocity": 0.7874015748031497
        },
        {
          "duration": 0.25,
          "durationTicks": 48,
          "midi": 71,
          "name": "B4",
          "ticks": 9720,
          "time": 50.625,
          "velocity": 0.7874015748031497
        },
        {
          "duration": 0.25,
          "durationTicks": 48,
          "midi": 80,
          "name": "G#5",
          "ticks": 9792,
          "time": 51,
          "velocity": 0.7874015748031497
        },
        {
          "duration": 0.25,
          "durationTicks": 48,
          "midi": 71,
          "name": "B4",
          "ticks": 9792,
          "time": 51,
          "velocity": 0.7874015748031497
        },
        {
          "duration": 0.25,
          "durationTicks": 48,
          "midi": 75,
          "name": "D#5",
          "ticks": 9864,
          "time": 51.375,
          "velocity": 0.7874015748031497
        },
        {
          "duration": 0.25,
          "durationTicks": 48,
          "midi": 71,
          "name": "B4",
          "ticks": 9864,
          "time": 51.375,
          "velocity": 0.7874015748031497
        },
        {
          "duration": 0.25,
          "durationTicks": 48,
          "midi": 73,
          "name": "C#5",
          "ticks": 9936,
          "time": 51.75,
          "velocity": 0.7874015748031497
        },
        {
          "duration": 0.25,
          "durationTicks": 48,
          "midi": 71,
          "name": "B4",
          "ticks": 9936,
          "time": 51.75,
          "velocity": 0.7874015748031497
        },
        {
          "duration": 0.25,
          "durationTicks": 48,
          "midi": 76,
          "name": "E5",
          "ticks": 9984,
          "time": 52,
          "velocity": 0.7874015748031497
        },
        {
          "duration": 0.25,
          "durationTicks": 48,
          "midi": 71,
          "name": "B4",
          "ticks": 9984,
          "time": 52,
          "velocity": 0.7874015748031497
        },
        {
          "duration": 0.25,
          "durationTicks": 48,
          "midi": 76,
          "name": "E5",
          "ticks": 10080,
          "time": 52.5,
          "velocity": 0.7874015748031497
        },
        {
          "duration": 0.25,
          "durationTicks": 48,
          "midi": 71,
          "name": "B4",
          "ticks": 10080,
          "time": 52.5,
          "velocity": 0.7874015748031497
        },
        {
          "duration": 0.25,
          "durationTicks": 48,
          "midi": 75,
          "name": "D#5",
          "ticks": 10176,
          "time": 53,
          "velocity": 0.7874015748031497
        },
        {
          "duration": 0.25,
          "durationTicks": 48,
          "midi": 70,
          "name": "A#4",
          "ticks": 10176,
          "time": 53,
          "velocity": 0.7874015748031497
        },
        {
          "duration": 0.25,
          "durationTicks": 48,
          "midi": 76,
          "name": "E5",
          "ticks": 10248,
          "time": 53.375,
          "velocity": 0.7874015748031497
        },
        {
          "duration": 0.25,
          "durationTicks": 48,
          "midi": 70,
          "name": "A#4",
          "ticks": 10248,
          "time": 53.375,
          "velocity": 0.7874015748031497
        },
        {
          "duration": 0.25,
          "durationTicks": 48,
          "midi": 75,
          "name": "D#5",
          "ticks": 10320,
          "time": 53.75,
          "velocity": 0.7874015748031497
        },
        {
          "duration": 0.25,
          "durationTicks": 48,
          "midi": 70,
          "name": "A#4",
          "ticks": 10320,
          "time": 53.75,
          "velocity": 0.7874015748031497
        },
        {
          "duration": 0.25,
          "durationTicks": 48,
          "midi": 71,
          "name": "B4",
          "ticks": 10416,
          "time": 54.25,
          "velocity": 0.7874015748031497
        },
        {
          "duration": 0.25,
          "durationTicks": 48,
          "midi": 68,
          "name": "G#4",
          "ticks": 10416,
          "time": 54.25,
          "velocity": 0.7874015748031497
        },
        {
          "duration": 0.25,
          "durationTicks": 48,
          "midi": 71,
          "name": "B4",
          "ticks": 10488,
          "time": 54.625,
          "velocity": 0.7874015748031497
        },
        {
          "duration": 0.25,
          "durationTicks": 48,
          "midi": 68,
          "name": "G#4",
          "ticks": 10488,
          "time": 54.625,
          "velocity": 0.7874015748031497
        },
        {
          "duration": 0.25,
          "durationTicks": 48,
          "midi": 75,
          "name": "D#5",
          "ticks": 10560,
          "time": 55,
          "velocity": 0.7874015748031497
        },
        {
          "duration": 0.25,
          "durationTicks": 48,
          "midi": 71,
          "name": "B4",
          "ticks": 10560,
          "time": 55,
          "velocity": 0.7874015748031497
        },
        {
          "duration": 0.25,
          "durationTicks": 48,
          "midi": 73,
          "name": "C#5",
          "ticks": 10632,
          "time": 55.375,
          "velocity": 0.7874015748031497
        },
        {
          "duration": 0.25,
          "durationTicks": 48,
          "midi": 71,
          "name": "B4",
          "ticks": 10632,
          "time": 55.375,
          "velocity": 0.7874015748031497
        },
        {
          "duration": 0.25,
          "durationTicks": 48,
          "midi": 75,
          "name": "D#5",
          "ticks": 10704,
          "time": 55.75,
          "velocity": 0.7874015748031497
        },
        {
          "duration": 0.25,
          "durationTicks": 48,
          "midi": 71,
          "name": "B4",
          "ticks": 10704,
          "time": 55.75,
          "velocity": 0.7874015748031497
        },
        {
          "duration": 0.25,
          "durationTicks": 48,
          "midi": 68,
          "name": "G#4",
          "ticks": 10752,
          "time": 56,
          "velocity": 0.7874015748031497
        },
        {
          "duration": 0.25,
          "durationTicks": 48,
          "midi": 64,
          "name": "E4",
          "ticks": 10752,
          "time": 56,
          "velocity": 0.7874015748031497
        },
        {
          "duration": 0.25,
          "durationTicks": 48,
          "midi": 68,
          "name": "G#4",
          "ticks": 10848,
          "time": 56.5,
          "velocity": 0.7874015748031497
        },
        {
          "duration": 0.25,
          "durationTicks": 48,
          "midi": 64,
          "name": "E4",
          "ticks": 10848,
          "time": 56.5,
          "velocity": 0.7874015748031497
        },
        {
          "duration": 0.25,
          "durationTicks": 48,
          "midi": 73,
          "name": "C#5",
          "ticks": 10944,
          "time": 57,
          "velocity": 0.7874015748031497
        },
        {
          "duration": 0.25,
          "durationTicks": 48,
          "midi": 70,
          "name": "A#4",
          "ticks": 10944,
          "time": 57,
          "velocity": 0.7874015748031497
        },
        {
          "duration": 0.25,
          "durationTicks": 48,
          "midi": 76,
          "name": "E5",
          "ticks": 11016,
          "time": 57.375,
          "velocity": 0.7874015748031497
        },
        {
          "duration": 0.25,
          "durationTicks": 48,
          "midi": 73,
          "name": "C#5",
          "ticks": 11016,
          "time": 57.375,
          "velocity": 0.7874015748031497
        },
        {
          "duration": 0.25,
          "durationTicks": 48,
          "midi": 73,
          "name": "C#5",
          "ticks": 11088,
          "time": 57.75,
          "velocity": 0.7874015748031497
        },
        {
          "duration": 0.25,
          "durationTicks": 48,
          "midi": 70,
          "name": "A#4",
          "ticks": 11088,
          "time": 57.75,
          "velocity": 0.7874015748031497
        },
        {
          "duration": 0.25,
          "durationTicks": 48,
          "midi": 75,
          "name": "D#5",
          "ticks": 11184,
          "time": 58.25,
          "velocity": 0.7874015748031497
        },
        {
          "duration": 0.25,
          "durationTicks": 48,
          "midi": 71,
          "name": "B4",
          "ticks": 11184,
          "time": 58.25,
          "velocity": 0.7874015748031497
        },
        {
          "duration": 0.25,
          "durationTicks": 48,
          "midi": 75,
          "name": "D#5",
          "ticks": 11256,
          "time": 58.625,
          "velocity": 0.7874015748031497
        },
        {
          "duration": 0.25,
          "durationTicks": 48,
          "midi": 71,
          "name": "B4",
          "ticks": 11256,
          "time": 58.625,
          "velocity": 0.7874015748031497
        },
        {
          "duration": 0.25,
          "durationTicks": 48,
          "midi": 80,
          "name": "G#5",
          "ticks": 11328,
          "time": 59,
          "velocity": 0.7874015748031497
        },
        {
          "duration": 0.25,
          "durationTicks": 48,
          "midi": 71,
          "name": "B4",
          "ticks": 11328,
          "time": 59,
          "velocity": 0.7874015748031497
        },
        {
          "duration": 0.25,
          "durationTicks": 48,
          "midi": 83,
          "name": "B5",
          "ticks": 11400,
          "time": 59.375,
          "velocity": 0.7874015748031497
        },
        {
          "duration": 0.25,
          "durationTicks": 48,
          "midi": 71,
          "name": "B4",
          "ticks": 11400,
          "time": 59.375,
          "velocity": 0.7874015748031497
        },
        {
          "duration": 0.25,
          "durationTicks": 48,
          "midi": 80,
          "name": "G#5",
          "ticks": 11472,
          "time": 59.75,
          "velocity": 0.7874015748031497
        },
        {
          "duration": 0.25,
          "durationTicks": 48,
          "midi": 71,
          "name": "B4",
          "ticks": 11472,
          "time": 59.75,
          "velocity": 0.7874015748031497
        },
        {
          "duration": 0.25,
          "durationTicks": 48,
          "midi": 76,
          "name": "E5",
          "ticks": 11520,
          "time": 60,
          "velocity": 0.7874015748031497
        },
        {
          "duration": 0.25,
          "durationTicks": 48,
          "midi": 73,
          "name": "C#5",
          "ticks": 11520,
          "time": 60,
          "velocity": 0.7874015748031497
        },
        {
          "duration": 0.25,
          "durationTicks": 48,
          "midi": 76,
          "name": "E5",
          "ticks": 11616,
          "time": 60.5,
          "velocity": 0.7874015748031497
        },
        {
          "duration": 0.25,
          "durationTicks": 48,
          "midi": 73,
          "name": "C#5",
          "ticks": 11616,
          "time": 60.5,
          "velocity": 0.7874015748031497
        },
        {
          "duration": 0.25,
          "durationTicks": 48,
          "midi": 75,
          "name": "D#5",
          "ticks": 11712,
          "time": 61,
          "velocity": 0.7874015748031497
        },
        {
          "duration": 0.25,
          "durationTicks": 48,
          "midi": 70,
          "name": "A#4",
          "ticks": 11712,
          "time": 61,
          "velocity": 0.7874015748031497
        },
        {
          "duration": 0.25,
          "durationTicks": 48,
          "midi": 76,
          "name": "E5",
          "ticks": 11784,
          "time": 61.375,
          "velocity": 0.7874015748031497
        },
        {
          "duration": 0.25,
          "durationTicks": 48,
          "midi": 70,
          "name": "A#4",
          "ticks": 11784,
          "time": 61.375,
          "velocity": 0.7874015748031497
        },
        {
          "duration": 0.25,
          "durationTicks": 48,
          "midi": 75,
          "name": "D#5",
          "ticks": 11856,
          "time": 61.75,
          "velocity": 0.7874015748031497
        },
        {
          "duration": 0.25,
          "durationTicks": 48,
          "midi": 70,
          "name": "A#4",
          "ticks": 11856,
          "time": 61.75,
          "velocity": 0.7874015748031497
        },
        {
          "duration": 0.25,
          "durationTicks": 48,
          "midi": 71,
          "name": "B4",
          "ticks": 11952,
          "time": 62.25,
          "velocity": 0.7874015748031497
        },
        {
          "duration": 0.25,
          "durationTicks": 48,
          "midi": 68,
          "name": "G#4",
          "ticks": 11952,
          "time": 62.25,
          "velocity": 0.7874015748031497
        },
        {
          "duration": 0.25,
          "durationTicks": 48,
          "midi": 71,
          "name": "B4",
          "ticks": 12024,
          "time": 62.625,
          "velocity": 0.7874015748031497
        },
        {
          "duration": 0.25,
          "durationTicks": 48,
          "midi": 68,
          "name": "G#4",
          "ticks": 12024,
          "time": 62.625,
          "velocity": 0.7874015748031497
        },
        {
          "duration": 0.25,
          "durationTicks": 48,
          "midi": 71,
          "name": "B4",
          "ticks": 12096,
          "time": 63,
          "velocity": 0.7874015748031497
        },
        {
          "duration": 0.25,
          "durationTicks": 48,
          "midi": 68,
          "name": "G#4",
          "ticks": 12096,
          "time": 63,
          "velocity": 0.7874015748031497
        },
        {
          "duration": 0.25,
          "durationTicks": 48,
          "midi": 70,
          "name": "A#4",
          "ticks": 12168,
          "time": 63.375,
          "velocity": 0.7874015748031497
        },
        {
          "duration": 0.25,
          "durationTicks": 48,
          "midi": 68,
          "name": "G#4",
          "ticks": 12168,
          "time": 63.375,
          "velocity": 0.7874015748031497
        },
        {
          "duration": 0.25,
          "durationTicks": 48,
          "midi": 71,
          "name": "B4",
          "ticks": 12240,
          "time": 63.75,
          "velocity": 0.7874015748031497
        },
        {
          "duration": 0.25,
          "durationTicks": 48,
          "midi": 68,
          "name": "G#4",
          "ticks": 12240,
          "time": 63.75,
          "velocity": 0.7874015748031497
        }
      ]
    },
    {
      "channel": 1,
      "controlChanges": {
        "6": [
          {
            "number": 6,
            "ticks": 0,
            "time": 0,
            "value": 0.09448818897637795
          }
        ],
        "7": [
          {
            "number": 7,
            "ticks": 0,
            "time": 0,
            "value": 0.8818897637795275
          }
        ],
        "10": [
          {
            "number": 10,
            "ticks": 0,
            "time": 0,
            "value": 0.6299212598425197
          }
        ],
        "91": [
          {
            "number": 91,
            "ticks": 0,
            "time": 0,
            "value": 0
          }
        ],
        "93": [
          {
            "number": 93,
            "ticks": 0,
            "time": 0,
            "value": 0
          }
        ],
        "100": [
          {
            "number": 100,
            "ticks": 0,
            "time": 0,
            "value": 0
          }
        ],
        "101": [
          {
            "number": 101,
            "ticks": 0,
            "time": 0,
            "value": 0
          }
        ]
      },
      "pitchBends": [
        {
          "ticks": 0,
          "time": 0,
          "value": 0
        }
      ],
      "instrument": {
        "family": "piano",
        "number": 0,
        "name": "acoustic grand piano"
      },
      "name": "Bass",
      "notes": [],
      "endOfTrackTicks": 12379
    },
    {
      "channel": 1,
      "controlChanges": {
        "6": [
          {
            "number": 6,
            "ticks": 6144,
            "time": 32,
            "value": 0.09448818897637795
          },
          {
            "number": 6,
            "ticks": 6144,
            "time": 32,
            "value": 0.09448818897637795
          },
          {
            "number": 6,
            "ticks": 6146,
            "time": 32.010416666666664,
            "value": 0.09448818897637795
          }
        ],
        "7": [
          {
            "number": 7,
            "ticks": 6144,
            "time": 32,
            "value": 0.8818897637795275
          },
          {
            "number": 7,
            "ticks": 6144,
            "time": 32,
            "value": 0.8818897637795275
          },
          {
            "number": 7,
            "ticks": 6146,
            "time": 32.010416666666664,
            "value": 0.8818897637795275
          }
        ],
        "10": [
          {
            "number": 10,
            "ticks": 6144,
            "time": 32,
            "value": 0.6299212598425197
          },
          {
            "number": 10,
            "ticks": 6144,
            "time": 32,
            "value": 0.6299212598425197
          },
          {
            "number": 10,
            "ticks": 6146,
            "time": 32.010416666666664,
            "value": 0.6299212598425197
          }
        ],
        "91": [
          {
            "number": 91,
            "ticks": 6144,
            "time": 32,
            "value": 0
          },
          {
            "number": 91,
            "ticks": 6144,
            "time": 32,
            "value": 0
          },
          {
            "number": 91,
            "ticks": 6146,
            "time": 32.010416666666664,
            "value": 0
          }
        ],
        "93": [
          {
            "number": 93,
            "ticks": 6144,
            "time": 32,
            "value": 0
          },
          {
            "number": 93,
            "ticks": 6144,
            "time": 32,
            "value": 0
          },
          {
            "number": 93,
            "ticks": 6146,
            "time": 32.010416666666664,
            "value": 0
          }
        ],
        "100": [
          {
            "number": 100,
            "ticks": 6144,
            "time": 32,
            "value": 0
          },
          {
            "number": 100,
            "ticks": 6144,
            "time": 32,
            "value": 0
          },
          {
            "number": 100,
            "ticks": 6146,
            "time": 32.010416666666664,
            "value": 0
          }
        ],
        "101": [
          {
            "number": 101,
            "ticks": 6144,
            "time": 32,
            "value": 0
          },
          {
            "number": 101,
            "ticks": 6144,
            "time": 32,
            "value": 0
          },
          {
            "number": 101,
            "ticks": 6146,
            "time": 32.010416666666664,
            "value": 0
          }
        ]
      },
      "pitchBends": [
        {
          "ticks": 6144,
          "time": 32,
          "value": 0
        },
        {
          "ticks": 6144,
          "time": 32,
          "value": 0
        },
        {
          "ticks": 6146,
          "time": 32.010416666666664,
          "value": 0
        }
      ],
      "instrument": {
        "family": "bass",
        "number": 36,
        "name": "slap bass 1"
      },
      "name": "",
      "notes": [
        {
          "duration": 0.25,
          "durationTicks": 48,
          "midi": 40,
          "name": "E2",
          "ticks": 48,
          "time": 0.25,
          "velocity": 0.7874015748031497
        },
        {
          "duration": 0.25,
          "durationTicks": 48,
          "midi": 28,
          "name": "E1",
          "ticks": 96,
          "time": 0.5,
          "velocity": 0.7874015748031497
        },
        {
          "duration": 0.25,
          "durationTicks": 48,
          "midi": 40,
          "name": "E2",
          "ticks": 144,
          "time": 0.75,
          "velocity": 0.7874015748031497
        },
        {
          "duration": 0.25,
          "durationTicks": 48,
          "midi": 27,
          "name": "D#1",
          "ticks": 192,
          "time": 1,
          "velocity": 0.7874015748031497
        },
        {
          "duration": 0.25,
          "durationTicks": 48,
          "midi": 39,
          "name": "D#2",
          "ticks": 240,
          "time": 1.25,
          "velocity": 0.7874015748031497
        },
        {
          "duration": 0.25,
          "durationTicks": 48,
          "midi": 27,
          "name": "D#1",
          "ticks": 288,
          "time": 1.5,
          "velocity": 0.7874015748031497
        },
        {
          "duration": 0.25,
          "durationTicks": 48,
          "midi": 39,
          "name": "D#2",
          "ticks": 336,
          "time": 1.75,
          "velocity": 0.7874015748031497
        },
        {
          "duration": 0.25,
          "durationTicks": 48,
          "midi": 32,
          "name": "G#1",
          "ticks": 384,
          "time": 2,
          "velocity": 0.7874015748031497
        },
        {
          "duration": 0.25,
          "durationTicks": 48,
          "midi": 44,
          "name": "G#2",
          "ticks": 432,
          "time": 2.25,
          "velocity": 0.7874015748031497
        },
        {
          "duration": 0.25,
          "durationTicks": 48,
          "midi": 32,
          "name": "G#1",
          "ticks": 480,
          "time": 2.5,
          "velocity": 0.7874015748031497
        },
        {
          "duration": 0.25,
          "durationTicks": 48,
          "midi": 44,
          "name": "G#2",
          "ticks": 528,
          "time": 2.75,
          "velocity": 0.7874015748031497
        },
        {
          "duration": 0.25,
          "durationTicks": 48,
          "midi": 32,
          "name": "G#1",
          "ticks": 576,
          "time": 3,
          "velocity": 0.7874015748031497
        },
        {
          "duration": 0.25,
          "durationTicks": 48,
          "midi": 44,
          "name": "G#2",
          "ticks": 624,
          "time": 3.25,
          "velocity": 0.7874015748031497
        },
        {
          "duration": 0.25,
          "durationTicks": 48,
          "midi": 32,
          "name": "G#1",
          "ticks": 672,
          "time": 3.5,
          "velocity": 0.7874015748031497
        },
        {
          "duration": 0.25,
          "durationTicks": 48,
          "midi": 44,
          "name": "G#2",
          "ticks": 720,
          "time": 3.75,
          "velocity": 0.7874015748031497
        },
        {
          "duration": 0.25,
          "durationTicks": 48,
          "midi": 28,
          "name": "E1",
          "ticks": 768,
          "time": 4,
          "velocity": 0.7874015748031497
        },
        {
          "duration": 0.25,
          "durationTicks": 48,
          "midi": 40,
          "name": "E2",
          "ticks": 816,
          "time": 4.25,
          "velocity": 0.7874015748031497
        },
        {
          "duration": 0.25,
          "durationTicks": 48,
          "midi": 28,
          "name": "E1",
          "ticks": 864,
          "time": 4.5,
          "velocity": 0.7874015748031497
        },
        {
          "duration": 0.25,
          "durationTicks": 48,
          "midi": 40,
          "name": "E2",
          "ticks": 912,
          "time": 4.75,
          "velocity": 0.7874015748031497
        },
        {
          "duration": 0.25,
          "durationTicks": 48,
          "midi": 27,
          "name": "D#1",
          "ticks": 960,
          "time": 5,
          "velocity": 0.7874015748031497
        },
        {
          "duration": 0.25,
          "durationTicks": 48,
          "midi": 39,
          "name": "D#2",
          "ticks": 1008,
          "time": 5.25,
          "velocity": 0.7874015748031497
        },
        {
          "duration": 0.25,
          "durationTicks": 48,
          "midi": 27,
          "name": "D#1",
          "ticks": 1056,
          "time": 5.5,
          "velocity": 0.7874015748031497
        },
        {
          "duration": 0.25,
          "durationTicks": 48,
          "midi": 39,
          "name": "D#2",
          "ticks": 1104,
          "time": 5.75,
          "velocity": 0.7874015748031497
        },
        {
          "duration": 0.25,
          "durationTicks": 48,
          "midi": 32,
          "name": "G#1",
          "ticks": 1152,
          "time": 6,
          "velocity": 0.7874015748031497
        },
        {
          "duration": 0.25,
          "durationTicks": 48,
          "midi": 44,
          "name": "G#2",
          "ticks": 1200,
          "time": 6.25,
          "velocity": 0.7874015748031497
        },
        {
          "duration": 0.25,
          "durationTicks": 48,
          "midi": 32,
          "name": "G#1",
          "ticks": 1248,
          "time": 6.5,
          "velocity": 0.7874015748031497
        },
        {
          "duration": 0.25,
          "durationTicks": 48,
          "midi": 44,
          "name": "G#2",
          "ticks": 1296,
          "time": 6.75,
          "velocity": 0.7874015748031497
        },
        {
          "duration": 0.25,
          "durationTicks": 48,
          "midi": 32,
          "name": "G#1",
          "ticks": 1344,
          "time": 7,
          "velocity": 0.7874015748031497
        },
        {
          "duration": 0.25,
          "durationTicks": 48,
          "midi": 44,
          "name": "G#2",
          "ticks": 1392,
          "time": 7.25,
          "velocity": 0.7874015748031497
        },
        {
          "duration": 0.25,
          "durationTicks": 48,
          "midi": 32,
          "name": "G#1",
          "ticks": 1440,
          "time": 7.5,
          "velocity": 0.7874015748031497
        },
        {
          "duration": 0.25,
          "durationTicks": 48,
          "midi": 44,
          "name": "G#2",
          "ticks": 1488,
          "time": 7.75,
          "velocity": 0.7874015748031497
        },
        {
          "duration": 0.25,
          "durationTicks": 48,
          "midi": 37,
          "name": "C#2",
          "ticks": 1536,
          "time": 8,
          "velocity": 0.7874015748031497
        },
        {
          "duration": 0.25,
          "durationTicks": 48,
          "midi": 49,
          "name": "C#3",
          "ticks": 1584,
          "time": 8.25,
          "velocity": 0.7874015748031497
        },
        {
          "duration": 0.25,
          "durationTicks": 48,
          "midi": 37,
          "name": "C#2",
          "ticks": 1632,
          "time": 8.5,
          "velocity": 0.7874015748031497
        },
        {
          "duration": 0.25,
          "durationTicks": 48,
          "midi": 49,
          "name": "C#3",
          "ticks": 1680,
          "time": 8.75,
          "velocity": 0.7874015748031497
        },
        {
          "duration": 0.25,
          "durationTicks": 48,
          "midi": 30,
          "name": "F#1",
          "ticks": 1728,
          "time": 9,
          "velocity": 0.7874015748031497
        },
        {
          "duration": 0.25,
          "durationTicks": 48,
          "midi": 42,
          "name": "F#2",
          "ticks": 1776,
          "time": 9.25,
          "velocity": 0.7874015748031497
        },
        {
          "duration": 0.25,
          "durationTicks": 48,
          "midi": 30,
          "name": "F#1",
          "ticks": 1824,
          "time": 9.5,
          "velocity": 0.7874015748031497
        },
        {
          "duration": 0.25,
          "durationTicks": 48,
          "midi": 42,
          "name": "F#2",
          "ticks": 1872,
          "time": 9.75,
          "velocity": 0.7874015748031497
        },
        {
          "duration": 0.25,
          "durationTicks": 48,
          "midi": 32,
          "name": "G#1",
          "ticks": 1920,
          "time": 10,
          "velocity": 0.7874015748031497
        },
        {
          "duration": 0.25,
          "durationTicks": 48,
          "midi": 44,
          "name": "G#2",
          "ticks": 1968,
          "time": 10.25,
          "velocity": 0.7874015748031497
        },
        {
          "duration": 0.25,
          "durationTicks": 48,
          "midi": 32,
          "name": "G#1",
          "ticks": 2016,
          "time": 10.5,
          "velocity": 0.7874015748031497
        },
        {
          "duration": 0.25,
          "durationTicks": 48,
          "midi": 44,
          "name": "G#2",
          "ticks": 2064,
          "time": 10.75,
          "velocity": 0.7874015748031497
        },
        {
          "duration": 0.25,
          "durationTicks": 48,
          "midi": 32,
          "name": "G#1",
          "ticks": 2112,
          "time": 11,
          "velocity": 0.7874015748031497
        },
        {
          "duration": 0.25,
          "durationTicks": 48,
          "midi": 44,
          "name": "G#2",
          "ticks": 2160,
          "time": 11.25,
          "velocity": 0.7874015748031497
        },
        {
          "duration": 0.25,
          "durationTicks": 48,
          "midi": 32,
          "name": "G#1",
          "ticks": 2208,
          "time": 11.5,
          "velocity": 0.7874015748031497
        },
        {
          "duration": 0.25,
          "durationTicks": 48,
          "midi": 44,
          "name": "G#2",
          "ticks": 2256,
          "time": 11.75,
          "velocity": 0.7874015748031497
        },
        {
          "duration": 0.25,
          "durationTicks": 48,
          "midi": 37,
          "name": "C#2",
          "ticks": 2304,
          "time": 12,
          "velocity": 0.7874015748031497
        },
        {
          "duration": 0.25,
          "durationTicks": 48,
          "midi": 49,
          "name": "C#3",
          "ticks": 2352,
          "time": 12.25,
          "velocity": 0.7874015748031497
        },
        {
          "duration": 0.25,
          "durationTicks": 48,
          "midi": 37,
          "name": "C#2",
          "ticks": 2400,
          "time": 12.5,
          "velocity": 0.7874015748031497
        },
        {
          "duration": 0.25,
          "durationTicks": 48,
          "midi": 49,
          "name": "C#3",
          "ticks": 2448,
          "time": 12.75,
          "velocity": 0.7874015748031497
        },
        {
          "duration": 0.25,
          "durationTicks": 48,
          "midi": 30,
          "name": "F#1",
          "ticks": 2496,
          "time": 13,
          "velocity": 0.7874015748031497
        },
        {
          "duration": 0.25,
          "durationTicks": 48,
          "midi": 42,
          "name": "F#2",
          "ticks": 2544,
          "time": 13.25,
          "velocity": 0.7874015748031497
        },
        {
          "duration": 0.25,
          "durationTicks": 48,
          "midi": 30,
          "name": "F#1",
          "ticks": 2592,
          "time": 13.5,
          "velocity": 0.7874015748031497
        },
        {
          "duration": 0.25,
          "durationTicks": 48,
          "midi": 42,
          "name": "F#2",
          "ticks": 2640,
          "time": 13.75,
          "velocity": 0.7874015748031497
        },
        {
          "duration": 0.25,
          "durationTicks": 48,
          "midi": 32,
          "name": "G#1",
          "ticks": 2688,
          "time": 14,
          "velocity": 0.7874015748031497
        },
        {
          "duration": 0.25,
          "durationTicks": 48,
          "midi": 44,
          "name": "G#2",
          "ticks": 2736,
          "time": 14.25,
          "velocity": 0.7874015748031497
        },
        {
          "duration": 0.25,
          "durationTicks": 48,
          "midi": 32,
          "name": "G#1",
          "ticks": 2784,
          "time": 14.5,
          "velocity": 0.7874015748031497
        },
        {
          "duration": 0.25,
          "durationTicks": 48,
          "midi": 44,
          "name": "G#2",
          "ticks": 2832,
          "time": 14.75,
          "velocity": 0.7874015748031497
        },
        {
          "duration": 0.25,
          "durationTicks": 48,
          "midi": 32,
          "name": "G#1",
          "ticks": 2880,
          "time": 15,
          "velocity": 0.7874015748031497
        },
        {
          "duration": 0.25,
          "durationTicks": 48,
          "midi": 44,
          "name": "G#2",
          "ticks": 2928,
          "time": 15.25,
          "velocity": 0.7874015748031497
        },
        {
          "duration": 0.25,
          "durationTicks": 48,
          "midi": 32,
          "name": "G#1",
          "ticks": 2976,
          "time": 15.5,
          "velocity": 0.7874015748031497
        },
        {
          "duration": 0.25,
          "durationTicks": 48,
          "midi": 44,
          "name": "G#2",
          "ticks": 3024,
          "time": 15.75,
          "velocity": 0.7874015748031497
        },
        {
          "duration": 0.25,
          "durationTicks": 48,
          "midi": 28,
          "name": "E1",
          "ticks": 3072,
          "time": 16,
          "velocity": 0.7874015748031497
        },
        {
          "duration": 0.25,
          "durationTicks": 48,
          "midi": 40,
          "name": "E2",
          "ticks": 3120,
          "time": 16.25,
          "velocity": 0.7874015748031497
        },
        {
          "duration": 0.25,
          "durationTicks": 48,
          "midi": 28,
          "name": "E1",
          "ticks": 3168,
          "time": 16.5,
          "velocity": 0.7874015748031497
        },
        {
          "duration": 0.25,
          "durationTicks": 48,
          "midi": 40,
          "name": "E2",
          "ticks": 3216,
          "time": 16.75,
          "velocity": 0.7874015748031497
        },
        {
          "duration": 0.25,
          "durationTicks": 48,
          "midi": 27,
          "name": "D#1",
          "ticks": 3264,
          "time": 17,
          "velocity": 0.7874015748031497
        },
        {
          "duration": 0.25,
          "durationTicks": 48,
          "midi": 39,
          "name": "D#2",
          "ticks": 3312,
          "time": 17.25,
          "velocity": 0.7874015748031497
        },
        {
          "duration": 0.25,
          "durationTicks": 48,
          "midi": 27,
          "name": "D#1",
          "ticks": 3360,
          "time": 17.5,
          "velocity": 0.7874015748031497
        },
        {
          "duration": 0.25,
          "durationTicks": 48,
          "midi": 39,
          "name": "D#2",
          "ticks": 3408,
          "time": 17.75,
          "velocity": 0.7874015748031497
        },
        {
          "duration": 0.25,
          "durationTicks": 48,
          "midi": 32,
          "name": "G#1",
          "ticks": 3456,
          "time": 18,
          "velocity": 0.7874015748031497
        },
        {
          "duration": 0.25,
          "durationTicks": 48,
          "midi": 44,
          "name": "G#2",
          "ticks": 3504,
          "time": 18.25,
          "velocity": 0.7874015748031497
        },
        {
          "duration": 0.25,
          "durationTicks": 48,
          "midi": 32,
          "name": "G#1",
          "ticks": 3552,
          "time": 18.5,
          "velocity": 0.7874015748031497
        },
        {
          "duration": 0.25,
          "durationTicks": 48,
          "midi": 44,
          "name": "G#2",
          "ticks": 3600,
          "time": 18.75,
          "velocity": 0.7874015748031497
        },
        {
          "duration": 0.25,
          "durationTicks": 48,
          "midi": 32,
          "name": "G#1",
          "ticks": 3648,
          "time": 19,
          "velocity": 0.7874015748031497
        },
        {
          "duration": 0.25,
          "durationTicks": 48,
          "midi": 44,
          "name": "G#2",
          "ticks": 3696,
          "time": 19.25,
          "velocity": 0.7874015748031497
        },
        {
          "duration": 0.25,
          "durationTicks": 48,
          "midi": 32,
          "name": "G#1",
          "ticks": 3744,
          "time": 19.5,
          "velocity": 0.7874015748031497
        },
        {
          "duration": 0.25,
          "durationTicks": 48,
          "midi": 44,
          "name": "G#2",
          "ticks": 3792,
          "time": 19.75,
          "velocity": 0.7874015748031497
        },
        {
          "duration": 0.25,
          "durationTicks": 48,
          "midi": 28,
          "name": "E1",
          "ticks": 3840,
          "time": 20,
          "velocity": 0.7874015748031497
        },
        {
          "duration": 0.25,
          "durationTicks": 48,
          "midi": 40,
          "name": "E2",
          "ticks": 3888,
          "time": 20.25,
          "velocity": 0.7874015748031497
        },
        {
          "duration": 0.25,
          "durationTicks": 48,
          "midi": 28,
          "name": "E1",
          "ticks": 3936,
          "time": 20.5,
          "velocity": 0.7874015748031497
        },
        {
          "duration": 0.25,
          "durationTicks": 48,
          "midi": 40,
          "name": "E2",
          "ticks": 3984,
          "time": 20.75,
          "velocity": 0.7874015748031497
        },
        {
          "duration": 0.25,
          "durationTicks": 48,
          "midi": 27,
          "name": "D#1",
          "ticks": 4032,
          "time": 21,
          "velocity": 0.7874015748031497
        },
        {
          "duration": 0.25,
          "durationTicks": 48,
          "midi": 39,
          "name": "D#2",
          "ticks": 4080,
          "time": 21.25,
          "velocity": 0.7874015748031497
        },
        {
          "duration": 0.25,
          "durationTicks": 48,
          "midi": 27,
          "name": "D#1",
          "ticks": 4128,
          "time": 21.5,
          "velocity": 0.7874015748031497
        },
        {
          "duration": 0.25,
          "durationTicks": 48,
          "midi": 39,
          "name": "D#2",
          "ticks": 4176,
          "time": 21.75,
          "velocity": 0.7874015748031497
        },
        {
          "duration": 0.25,
          "durationTicks": 48,
          "midi": 32,
          "name": "G#1",
          "ticks": 4224,
          "time": 22,
          "velocity": 0.7874015748031497
        },
        {
          "duration": 0.25,
          "durationTicks": 48,
          "midi": 44,
          "name": "G#2",
          "ticks": 4272,
          "time": 22.25,
          "velocity": 0.7874015748031497
        },
        {
          "duration": 0.25,
          "durationTicks": 48,
          "midi": 32,
          "name": "G#1",
          "ticks": 4320,
          "time": 22.5,
          "velocity": 0.7874015748031497
        },
        {
          "duration": 0.25,
          "durationTicks": 48,
          "midi": 44,
          "name": "G#2",
          "ticks": 4368,
          "time": 22.75,
          "velocity": 0.7874015748031497
        },
        {
          "duration": 0.25,
          "durationTicks": 48,
          "midi": 32,
          "name": "G#1",
          "ticks": 4416,
          "time": 23,
          "velocity": 0.7874015748031497
        },
        {
          "duration": 0.25,
          "durationTicks": 48,
          "midi": 44,
          "name": "G#2",
          "ticks": 4464,
          "time": 23.25,
          "velocity": 0.7874015748031497
        },
        {
          "duration": 0.25,
          "durationTicks": 48,
          "midi": 32,
          "name": "G#1",
          "ticks": 4512,
          "time": 23.5,
          "velocity": 0.7874015748031497
        },
        {
          "duration": 0.25,
          "durationTicks": 48,
          "midi": 44,
          "name": "G#2",
          "ticks": 4560,
          "time": 23.75,
          "velocity": 0.7874015748031497
        },
        {
          "duration": 0.25,
          "durationTicks": 48,
          "midi": 37,
          "name": "C#2",
          "ticks": 4608,
          "time": 24,
          "velocity": 0.7874015748031497
        },
        {
          "duration": 0.25,
          "durationTicks": 48,
          "midi": 49,
          "name": "C#3",
          "ticks": 4656,
          "time": 24.25,
          "velocity": 0.7874015748031497
        },
        {
          "duration": 0.25,
          "durationTicks": 48,
          "midi": 37,
          "name": "C#2",
          "ticks": 4704,
          "time": 24.5,
          "velocity": 0.7874015748031497
        },
        {
          "duration": 0.25,
          "durationTicks": 48,
          "midi": 49,
          "name": "C#3",
          "ticks": 4752,
          "time": 24.75,
          "velocity": 0.7874015748031497
        },
        {
          "duration": 0.25,
          "durationTicks": 48,
          "midi": 30,
          "name": "F#1",
          "ticks": 4800,
          "time": 25,
          "velocity": 0.7874015748031497
        },
        {
          "duration": 0.25,
          "durationTicks": 48,
          "midi": 42,
          "name": "F#2",
          "ticks": 4848,
          "time": 25.25,
          "velocity": 0.7874015748031497
        },
        {
          "duration": 0.25,
          "durationTicks": 48,
          "midi": 30,
          "name": "F#1",
          "ticks": 4896,
          "time": 25.5,
          "velocity": 0.7874015748031497
        },
        {
          "duration": 0.25,
          "durationTicks": 48,
          "midi": 42,
          "name": "F#2",
          "ticks": 4944,
          "time": 25.75,
          "velocity": 0.7874015748031497
        },
        {
          "duration": 0.25,
          "durationTicks": 48,
          "midi": 32,
          "name": "G#1",
          "ticks": 4992,
          "time": 26,
          "velocity": 0.7874015748031497
        },
        {
          "duration": 0.25,
          "durationTicks": 48,
          "midi": 44,
          "name": "G#2",
          "ticks": 5040,
          "time": 26.25,
          "velocity": 0.7874015748031497
        },
        {
          "duration": 0.25,
          "durationTicks": 48,
          "midi": 32,
          "name": "G#1",
          "ticks": 5088,
          "time": 26.5,
          "velocity": 0.7874015748031497
        },
        {
          "duration": 0.25,
          "durationTicks": 48,
          "midi": 44,
          "name": "G#2",
          "ticks": 5136,
          "time": 26.75,
          "velocity": 0.7874015748031497
        },
        {
          "duration": 0.25,
          "durationTicks": 48,
          "midi": 32,
          "name": "G#1",
          "ticks": 5184,
          "time": 27,
          "velocity": 0.7874015748031497
        },
        {
          "duration": 0.25,
          "durationTicks": 48,
          "midi": 44,
          "name": "G#2",
          "ticks": 5232,
          "time": 27.25,
          "velocity": 0.7874015748031497
        },
        {
          "duration": 0.25,
          "durationTicks": 48,
          "midi": 32,
          "name": "G#1",
          "ticks": 5280,
          "time": 27.5,
          "velocity": 0.7874015748031497
        },
        {
          "duration": 0.25,
          "durationTicks": 48,
          "midi": 44,
          "name": "G#2",
          "ticks": 5328,
          "time": 27.75,
          "velocity": 0.7874015748031497
        },
        {
          "duration": 0.25,
          "durationTicks": 48,
          "midi": 37,
          "name": "C#2",
          "ticks": 5376,
          "time": 28,
          "velocity": 0.7874015748031497
        },
        {
          "duration": 0.25,
          "durationTicks": 48,
          "midi": 49,
          "name": "C#3",
          "ticks": 5424,
          "time": 28.25,
          "velocity": 0.7874015748031497
        },
        {
          "duration": 0.25,
          "durationTicks": 48,
          "midi": 37,
          "name": "C#2",
          "ticks": 5472,
          "time": 28.5,
          "velocity": 0.7874015748031497
        },
        {
          "duration": 0.25,
          "durationTicks": 48,
          "midi": 49,
          "name": "C#3",
          "ticks": 5520,
          "time": 28.75,
          "velocity": 0.7874015748031497
        },
        {
          "duration": 0.25,
          "durationTicks": 48,
          "midi": 30,
          "name": "F#1",
          "ticks": 5568,
          "time": 29,
          "velocity": 0.7874015748031497
        },
        {
          "duration": 0.25,
          "durationTicks": 48,
          "midi": 42,
          "name": "F#2",
          "ticks": 5616,
          "time": 29.25,
          "velocity": 0.7874015748031497
        },
        {
          "duration": 0.25,
          "durationTicks": 48,
          "midi": 30,
          "name": "F#1",
          "ticks": 5664,
          "time": 29.5,
          "velocity": 0.7874015748031497
        },
        {
          "duration": 0.25,
          "durationTicks": 48,
          "midi": 42,
          "name": "F#2",
          "ticks": 5712,
          "time": 29.75,
          "velocity": 0.7874015748031497
        },
        {
          "duration": 0.25,
          "durationTicks": 48,
          "midi": 32,
          "name": "G#1",
          "ticks": 5760,
          "time": 30,
          "velocity": 0.7874015748031497
        },
        {
          "duration": 0.25,
          "durationTicks": 48,
          "midi": 44,
          "name": "G#2",
          "ticks": 5808,
          "time": 30.25,
          "velocity": 0.7874015748031497
        },
        {
          "duration": 0.25,
          "durationTicks": 48,
          "midi": 32,
          "name": "G#1",
          "ticks": 5856,
          "time": 30.5,
          "velocity": 0.7874015748031497
        },
        {
          "duration": 0.25,
          "durationTicks": 48,
          "midi": 44,
          "name": "G#2",
          "ticks": 5904,
          "time": 30.75,
          "velocity": 0.7874015748031497
        },
        {
          "duration": 0.25,
          "durationTicks": 48,
          "midi": 32,
          "name": "G#1",
          "ticks": 5952,
          "time": 31,
          "velocity": 0.7874015748031497
        },
        {
          "duration": 0.25,
          "durationTicks": 48,
          "midi": 44,
          "name": "G#2",
          "ticks": 6000,
          "time": 31.25,
          "velocity": 0.7874015748031497
        },
        {
          "duration": 0.25,
          "durationTicks": 48,
          "midi": 32,
          "name": "G#1",
          "ticks": 6048,
          "time": 31.5,
          "velocity": 0.7874015748031497
        },
        {
          "duration": 0.25,
          "durationTicks": 48,
          "midi": 44,
          "name": "G#2",
          "ticks": 6096,
          "time": 31.75,
          "velocity": 0.7874015748031497
        },
        {
          "duration": 0.25,
          "durationTicks": 48,
          "midi": 28,
          "name": "E1",
          "ticks": 6144,
          "time": 32,
          "velocity": 0.7874015748031497
        },
        {
          "duration": 0.25,
          "durationTicks": 48,
          "midi": 40,
          "name": "E2",
          "ticks": 6192,
          "time": 32.25,
          "velocity": 0.7874015748031497
        },
        {
          "duration": 0.25,
          "durationTicks": 48,
          "midi": 28,
          "name": "E1",
          "ticks": 6240,
          "time": 32.5,
          "velocity": 0.7874015748031497
        },
        {
          "duration": 0.25,
          "durationTicks": 48,
          "midi": 40,
          "name": "E2",
          "ticks": 6288,
          "time": 32.75,
          "velocity": 0.7874015748031497
        },
        {
          "duration": 0.25,
          "durationTicks": 48,
          "midi": 27,
          "name": "D#1",
          "ticks": 6336,
          "time": 33,
          "velocity": 0.7874015748031497
        },
        {
          "duration": 0.25,
          "durationTicks": 48,
          "midi": 39,
          "name": "D#2",
          "ticks": 6384,
          "time": 33.25,
          "velocity": 0.7874015748031497
        },
        {
          "duration": 0.25,
          "durationTicks": 48,
          "midi": 27,
          "name": "D#1",
          "ticks": 6432,
          "time": 33.5,
          "velocity": 0.7874015748031497
        },
        {
          "duration": 0.25,
          "durationTicks": 48,
          "midi": 39,
          "name": "D#2",
          "ticks": 6480,
          "time": 33.75,
          "velocity": 0.7874015748031497
        },
        {
          "duration": 0.25,
          "durationTicks": 48,
          "midi": 32,
          "name": "G#1",
          "ticks": 6528,
          "time": 34,
          "velocity": 0.7874015748031497
        },
        {
          "duration": 0.25,
          "durationTicks": 48,
          "midi": 44,
          "name": "G#2",
          "ticks": 6576,
          "time": 34.25,
          "velocity": 0.7874015748031497
        },
        {
          "duration": 0.25,
          "durationTicks": 48,
          "midi": 32,
          "name": "G#1",
          "ticks": 6624,
          "time": 34.5,
          "velocity": 0.7874015748031497
        },
        {
          "duration": 0.25,
          "durationTicks": 48,
          "midi": 44,
          "name": "G#2",
          "ticks": 6672,
          "time": 34.75,
          "velocity": 0.7874015748031497
        },
        {
          "duration": 0.25,
          "durationTicks": 48,
          "midi": 32,
          "name": "G#1",
          "ticks": 6720,
          "time": 35,
          "velocity": 0.7874015748031497
        },
        {
          "duration": 0.25,
          "durationTicks": 48,
          "midi": 44,
          "name": "G#2",
          "ticks": 6768,
          "time": 35.25,
          "velocity": 0.7874015748031497
        },
        {
          "duration": 0.25,
          "durationTicks": 48,
          "midi": 32,
          "name": "G#1",
          "ticks": 6816,
          "time": 35.5,
          "velocity": 0.7874015748031497
        },
        {
          "duration": 0.25,
          "durationTicks": 48,
          "midi": 44,
          "name": "G#2",
          "ticks": 6864,
          "time": 35.75,
          "velocity": 0.7874015748031497
        },
        {
          "duration": 0.25,
          "durationTicks": 48,
          "midi": 28,
          "name": "E1",
          "ticks": 6912,
          "time": 36,
          "velocity": 0.7874015748031497
        },
        {
          "duration": 0.25,
          "durationTicks": 48,
          "midi": 40,
          "name": "E2",
          "ticks": 6960,
          "time": 36.25,
          "velocity": 0.7874015748031497
        },
        {
          "duration": 0.25,
          "durationTicks": 48,
          "midi": 28,
          "name": "E1",
          "ticks": 7008,
          "time": 36.5,
          "velocity": 0.7874015748031497
        },
        {
          "duration": 0.25,
          "durationTicks": 48,
          "midi": 40,
          "name": "E2",
          "ticks": 7056,
          "time": 36.75,
          "velocity": 0.7874015748031497
        },
        {
          "duration": 0.25,
          "durationTicks": 48,
          "midi": 27,
          "name": "D#1",
          "ticks": 7104,
          "time": 37,
          "velocity": 0.7874015748031497
        },
        {
          "duration": 0.25,
          "durationTicks": 48,
          "midi": 39,
          "name": "D#2",
          "ticks": 7152,
          "time": 37.25,
          "velocity": 0.7874015748031497
        },
        {
          "duration": 0.25,
          "durationTicks": 48,
          "midi": 27,
          "name": "D#1",
          "ticks": 7200,
          "time": 37.5,
          "velocity": 0.7874015748031497
        },
        {
          "duration": 0.25,
          "durationTicks": 48,
          "midi": 39,
          "name": "D#2",
          "ticks": 7248,
          "time": 37.75,
          "velocity": 0.7874015748031497
        },
        {
          "duration": 0.25,
          "durationTicks": 48,
          "midi": 32,
          "name": "G#1",
          "ticks": 7296,
          "time": 38,
          "velocity": 0.7874015748031497
        },
        {
          "duration": 0.25,
          "durationTicks": 48,
          "midi": 44,
          "name": "G#2",
          "ticks": 7344,
          "time": 38.25,
          "velocity": 0.7874015748031497
        },
        {
          "duration": 0.25,
          "durationTicks": 48,
          "midi": 32,
          "name": "G#1",
          "ticks": 7392,
          "time": 38.5,
          "velocity": 0.7874015748031497
        },
        {
          "duration": 0.25,
          "durationTicks": 48,
          "midi": 44,
          "name": "G#2",
          "ticks": 7440,
          "time": 38.75,
          "velocity": 0.7874015748031497
        },
        {
          "duration": 0.25,
          "durationTicks": 48,
          "midi": 32,
          "name": "G#1",
          "ticks": 7488,
          "time": 39,
          "velocity": 0.7874015748031497
        },
        {
          "duration": 0.25,
          "durationTicks": 48,
          "midi": 44,
          "name": "G#2",
          "ticks": 7536,
          "time": 39.25,
          "velocity": 0.7874015748031497
        },
        {
          "duration": 0.25,
          "durationTicks": 48,
          "midi": 32,
          "name": "G#1",
          "ticks": 7584,
          "time": 39.5,
          "velocity": 0.7874015748031497
        },
        {
          "duration": 0.25,
          "durationTicks": 48,
          "midi": 44,
          "name": "G#2",
          "ticks": 7632,
          "time": 39.75,
          "velocity": 0.7874015748031497
        },
        {
          "duration": 0.25,
          "durationTicks": 48,
          "midi": 37,
          "name": "C#2",
          "ticks": 7680,
          "time": 40,
          "velocity": 0.7874015748031497
        },
        {
          "duration": 0.25,
          "durationTicks": 48,
          "midi": 49,
          "name": "C#3",
          "ticks": 7728,
          "time": 40.25,
          "velocity": 0.7874015748031497
        },
        {
          "duration": 0.25,
          "durationTicks": 48,
          "midi": 37,
          "name": "C#2",
          "ticks": 7776,
          "time": 40.5,
          "velocity": 0.7874015748031497
        },
        {
          "duration": 0.25,
          "durationTicks": 48,
          "midi": 49,
          "name": "C#3",
          "ticks": 7824,
          "time": 40.75,
          "velocity": 0.7874015748031497
        },
        {
          "duration": 0.25,
          "durationTicks": 48,
          "midi": 30,
          "name": "F#1",
          "ticks": 7872,
          "time": 41,
          "velocity": 0.7874015748031497
        },
        {
          "duration": 0.25,
          "durationTicks": 48,
          "midi": 42,
          "name": "F#2",
          "ticks": 7920,
          "time": 41.25,
          "velocity": 0.7874015748031497
        },
        {
          "duration": 0.25,
          "durationTicks": 48,
          "midi": 30,
          "name": "F#1",
          "ticks": 7968,
          "time": 41.5,
          "velocity": 0.7874015748031497
        },
        {
          "duration": 0.25,
          "durationTicks": 48,
          "midi": 42,
          "name": "F#2",
          "ticks": 8016,
          "time": 41.75,
          "velocity": 0.7874015748031497
        },
        {
          "duration": 0.25,
          "durationTicks": 48,
          "midi": 32,
          "name": "G#1",
          "ticks": 8064,
          "time": 42,
          "velocity": 0.7874015748031497
        },
        {
          "duration": 0.25,
          "durationTicks": 48,
          "midi": 44,
          "name": "G#2",
          "ticks": 8112,
          "time": 42.25,
          "velocity": 0.7874015748031497
        },
        {
          "duration": 0.25,
          "durationTicks": 48,
          "midi": 32,
          "name": "G#1",
          "ticks": 8160,
          "time": 42.5,
          "velocity": 0.7874015748031497
        },
        {
          "duration": 0.25,
          "durationTicks": 48,
          "midi": 44,
          "name": "G#2",
          "ticks": 8208,
          "time": 42.75,
          "velocity": 0.7874015748031497
        },
        {
          "duration": 0.25,
          "durationTicks": 48,
          "midi": 32,
          "name": "G#1",
          "ticks": 8256,
          "time": 43,
          "velocity": 0.7874015748031497
        },
        {
          "duration": 0.25,
          "durationTicks": 48,
          "midi": 44,
          "name": "G#2",
          "ticks": 8304,
          "time": 43.25,
          "velocity": 0.7874015748031497
        },
        {
          "duration": 0.25,
          "durationTicks": 48,
          "midi": 32,
          "name": "G#1",
          "ticks": 8352,
          "time": 43.5,
          "velocity": 0.7874015748031497
        },
        {
          "duration": 0.25,
          "durationTicks": 48,
          "midi": 44,
          "name": "G#2",
          "ticks": 8400,
          "time": 43.75,
          "velocity": 0.7874015748031497
        },
        {
          "duration": 0.25,
          "durationTicks": 48,
          "midi": 37,
          "name": "C#2",
          "ticks": 8448,
          "time": 44,
          "velocity": 0.7874015748031497
        },
        {
          "duration": 0.25,
          "durationTicks": 48,
          "midi": 49,
          "name": "C#3",
          "ticks": 8496,
          "time": 44.25,
          "velocity": 0.7874015748031497
        },
        {
          "duration": 0.25,
          "durationTicks": 48,
          "midi": 37,
          "name": "C#2",
          "ticks": 8544,
          "time": 44.5,
          "velocity": 0.7874015748031497
        },
        {
          "duration": 0.25,
          "durationTicks": 48,
          "midi": 49,
          "name": "C#3",
          "ticks": 8592,
          "time": 44.75,
          "velocity": 0.7874015748031497
        },
        {
          "duration": 0.25,
          "durationTicks": 48,
          "midi": 30,
          "name": "F#1",
          "ticks": 8640,
          "time": 45,
          "velocity": 0.7874015748031497
        },
        {
          "duration": 0.25,
          "durationTicks": 48,
          "midi": 42,
          "name": "F#2",
          "ticks": 8688,
          "time": 45.25,
          "velocity": 0.7874015748031497
        },
        {
          "duration": 0.25,
          "durationTicks": 48,
          "midi": 30,
          "name": "F#1",
          "ticks": 8736,
          "time": 45.5,
          "velocity": 0.7874015748031497
        },
        {
          "duration": 0.25,
          "durationTicks": 48,
          "midi": 42,
          "name": "F#2",
          "ticks": 8784,
          "time": 45.75,
          "velocity": 0.7874015748031497
        },
        {
          "duration": 0.25,
          "durationTicks": 48,
          "midi": 32,
          "name": "G#1",
          "ticks": 8832,
          "time": 46,
          "velocity": 0.7874015748031497
        },
        {
          "duration": 0.25,
          "durationTicks": 48,
          "midi": 44,
          "name": "G#2",
          "ticks": 8880,
          "time": 46.25,
          "velocity": 0.7874015748031497
        },
        {
          "duration": 0.25,
          "durationTicks": 48,
          "midi": 32,
          "name": "G#1",
          "ticks": 8928,
          "time": 46.5,
          "velocity": 0.7874015748031497
        },
        {
          "duration": 0.25,
          "durationTicks": 48,
          "midi": 44,
          "name": "G#2",
          "ticks": 8976,
          "time": 46.75,
          "velocity": 0.7874015748031497
        },
        {
          "duration": 0.25,
          "durationTicks": 48,
          "midi": 32,
          "name": "G#1",
          "ticks": 9024,
          "time": 47,
          "velocity": 0.7874015748031497
        },
        {
          "duration": 0.25,
          "durationTicks": 48,
          "midi": 44,
          "name": "G#2",
          "ticks": 9072,
          "time": 47.25,
          "velocity": 0.7874015748031497
        },
        {
          "duration": 0.25,
          "durationTicks": 48,
          "midi": 32,
          "name": "G#1",
          "ticks": 9120,
          "time": 47.5,
          "velocity": 0.7874015748031497
        },
        {
          "duration": 0.25,
          "durationTicks": 48,
          "midi": 44,
          "name": "G#2",
          "ticks": 9168,
          "time": 47.75,
          "velocity": 0.7874015748031497
        },
        {
          "duration": 0.25,
          "durationTicks": 48,
          "midi": 28,
          "name": "E1",
          "ticks": 9216,
          "time": 48,
          "velocity": 0.7874015748031497
        },
        {
          "duration": 0.25,
          "durationTicks": 48,
          "midi": 40,
          "name": "E2",
          "ticks": 9264,
          "time": 48.25,
          "velocity": 0.7874015748031497
        },
        {
          "duration": 0.25,
          "durationTicks": 48,
          "midi": 28,
          "name": "E1",
          "ticks": 9312,
          "time": 48.5,
          "velocity": 0.7874015748031497
        },
        {
          "duration": 0.25,
          "durationTicks": 48,
          "midi": 40,
          "name": "E2",
          "ticks": 9360,
          "time": 48.75,
          "velocity": 0.7874015748031497
        },
        {
          "duration": 0.25,
          "durationTicks": 48,
          "midi": 27,
          "name": "D#1",
          "ticks": 9408,
          "time": 49,
          "velocity": 0.7874015748031497
        },
        {
          "duration": 0.25,
          "durationTicks": 48,
          "midi": 39,
          "name": "D#2",
          "ticks": 9456,
          "time": 49.25,
          "velocity": 0.7874015748031497
        },
        {
          "duration": 0.25,
          "durationTicks": 48,
          "midi": 27,
          "name": "D#1",
          "ticks": 9504,
          "time": 49.5,
          "velocity": 0.7874015748031497
        },
        {
          "duration": 0.25,
          "durationTicks": 48,
          "midi": 39,
          "name": "D#2",
          "ticks": 9552,
          "time": 49.75,
          "velocity": 0.7874015748031497
        },
        {
          "duration": 0.25,
          "durationTicks": 48,
          "midi": 32,
          "name": "G#1",
          "ticks": 9600,
          "time": 50,
          "velocity": 0.7874015748031497
        },
        {
          "duration": 0.25,
          "durationTicks": 48,
          "midi": 44,
          "name": "G#2",
          "ticks": 9648,
          "time": 50.25,
          "velocity": 0.7874015748031497
        },
        {
          "duration": 0.25,
          "durationTicks": 48,
          "midi": 32,
          "name": "G#1",
          "ticks": 9696,
          "time": 50.5,
          "velocity": 0.7874015748031497
        },
        {
          "duration": 0.25,
          "durationTicks": 48,
          "midi": 44,
          "name": "G#2",
          "ticks": 9744,
          "time": 50.75,
          "velocity": 0.7874015748031497
        },
        {
          "duration": 0.25,
          "durationTicks": 48,
          "midi": 32,
          "name": "G#1",
          "ticks": 9792,
          "time": 51,
          "velocity": 0.7874015748031497
        },
        {
          "duration": 0.25,
          "durationTicks": 48,
          "midi": 44,
          "name": "G#2",
          "ticks": 9840,
          "time": 51.25,
          "velocity": 0.7874015748031497
        },
        {
          "duration": 0.25,
          "durationTicks": 48,
          "midi": 32,
          "name": "G#1",
          "ticks": 9888,
          "time": 51.5,
          "velocity": 0.7874015748031497
        },
        {
          "duration": 0.25,
          "durationTicks": 48,
          "midi": 44,
          "name": "G#2",
          "ticks": 9936,
          "time": 51.75,
          "velocity": 0.7874015748031497
        },
        {
          "duration": 0.25,
          "durationTicks": 48,
          "midi": 28,
          "name": "E1",
          "ticks": 9984,
          "time": 52,
          "velocity": 0.7874015748031497
        },
        {
          "duration": 0.25,
          "durationTicks": 48,
          "midi": 40,
          "name": "E2",
          "ticks": 10032,
          "time": 52.25,
          "velocity": 0.7874015748031497
        },
        {
          "duration": 0.25,
          "durationTicks": 48,
          "midi": 28,
          "name": "E1",
          "ticks": 10080,
          "time": 52.5,
          "velocity": 0.7874015748031497
        },
        {
          "duration": 0.25,
          "durationTicks": 48,
          "midi": 40,
          "name": "E2",
          "ticks": 10128,
          "time": 52.75,
          "velocity": 0.7874015748031497
        },
        {
          "duration": 0.25,
          "durationTicks": 48,
          "midi": 27,
          "name": "D#1",
          "ticks": 10176,
          "time": 53,
          "velocity": 0.7874015748031497
        },
        {
          "duration": 0.25,
          "durationTicks": 48,
          "midi": 39,
          "name": "D#2",
          "ticks": 10224,
          "time": 53.25,
          "velocity": 0.7874015748031497
        },
        {
          "duration": 0.25,
          "durationTicks": 48,
          "midi": 27,
          "name": "D#1",
          "ticks": 10272,
          "time": 53.5,
          "velocity": 0.7874015748031497
        },
        {
          "duration": 0.25,
          "durationTicks": 48,
          "midi": 39,
          "name": "D#2",
          "ticks": 10320,
          "time": 53.75,
          "velocity": 0.7874015748031497
        },
        {
          "duration": 0.25,
          "durationTicks": 48,
          "midi": 32,
          "name": "G#1",
          "ticks": 10368,
          "time": 54,
          "velocity": 0.7874015748031497
        },
        {
          "duration": 0.25,
          "durationTicks": 48,
          "midi": 44,
          "name": "G#2",
          "ticks": 10416,
          "time": 54.25,
          "velocity": 0.7874015748031497
        },
        {
          "duration": 0.25,
          "durationTicks": 48,
          "midi": 32,
          "name": "G#1",
          "ticks": 10464,
          "time": 54.5,
          "velocity": 0.7874015748031497
        },
        {
          "duration": 0.25,
          "durationTicks": 48,
          "midi": 44,
          "name": "G#2",
          "ticks": 10512,
          "time": 54.75,
          "velocity": 0.7874015748031497
        },
        {
          "duration": 0.25,
          "durationTicks": 48,
          "midi": 32,
          "name": "G#1",
          "ticks": 10560,
          "time": 55,
          "velocity": 0.7874015748031497
        },
        {
          "duration": 0.25,
          "durationTicks": 48,
          "midi": 44,
          "name": "G#2",
          "ticks": 10608,
          "time": 55.25,
          "velocity": 0.7874015748031497
        },
        {
          "duration": 0.25,
          "durationTicks": 48,
          "midi": 32,
          "name": "G#1",
          "ticks": 10656,
          "time": 55.5,
          "velocity": 0.7874015748031497
        },
        {
          "duration": 0.25,
          "durationTicks": 48,
          "midi": 44,
          "name": "G#2",
          "ticks": 10704,
          "time": 55.75,
          "velocity": 0.7874015748031497
        },
        {
          "duration": 0.25,
          "durationTicks": 48,
          "midi": 37,
          "name": "C#2",
          "ticks": 10752,
          "time": 56,
          "velocity": 0.7874015748031497
        },
        {
          "duration": 0.25,
          "durationTicks": 48,
          "midi": 49,
          "name": "C#3",
          "ticks": 10800,
          "time": 56.25,
          "velocity": 0.7874015748031497
        },
        {
          "duration": 0.25,
          "durationTicks": 48,
          "midi": 37,
          "name": "C#2",
          "ticks": 10848,
          "time": 56.5,
          "velocity": 0.7874015748031497
        },
        {
          "duration": 0.25,
          "durationTicks": 48,
          "midi": 49,
          "name": "C#3",
          "ticks": 10896,
          "time": 56.75,
          "velocity": 0.7874015748031497
        },
        {
          "duration": 0.25,
          "durationTicks": 48,
          "midi": 30,
          "name": "F#1",
          "ticks": 10944,
          "time": 57,
          "velocity": 0.7874015748031497
        },
        {
          "duration": 0.25,
          "durationTicks": 48,
          "midi": 42,
          "name": "F#2",
          "ticks": 10992,
          "time": 57.25,
          "velocity": 0.7874015748031497
        },
        {
          "duration": 0.25,
          "durationTicks": 48,
          "midi": 30,
          "name": "F#1",
          "ticks": 11040,
          "time": 57.5,
          "velocity": 0.7874015748031497
        },
        {
          "duration": 0.25,
          "durationTicks": 48,
          "midi": 42,
          "name": "F#2",
          "ticks": 11088,
          "time": 57.75,
          "velocity": 0.7874015748031497
        },
        {
          "duration": 0.25,
          "durationTicks": 48,
          "midi": 32,
          "name": "G#1",
          "ticks": 11136,
          "time": 58,
          "velocity": 0.7874015748031497
        },
        {
          "duration": 0.25,
          "durationTicks": 48,
          "midi": 44,
          "name": "G#2",
          "ticks": 11184,
          "time": 58.25,
          "velocity": 0.7874015748031497
        },
        {
          "duration": 0.25,
          "durationTicks": 48,
          "midi": 32,
          "name": "G#1",
          "ticks": 11232,
          "time": 58.5,
          "velocity": 0.7874015748031497
        },
        {
          "duration": 0.25,
          "durationTicks": 48,
          "midi": 44,
          "name": "G#2",
          "ticks": 11280,
          "time": 58.75,
          "velocity": 0.7874015748031497
        },
        {
          "duration": 0.25,
          "durationTicks": 48,
          "midi": 32,
          "name": "G#1",
          "ticks": 11328,
          "time": 59,
          "velocity": 0.7874015748031497
        },
        {
          "duration": 0.25,
          "durationTicks": 48,
          "midi": 44,
          "name": "G#2",
          "ticks": 11376,
          "time": 59.25,
          "velocity": 0.7874015748031497
        },
        {
          "duration": 0.25,
          "durationTicks": 48,
          "midi": 32,
          "name": "G#1",
          "ticks": 11424,
          "time": 59.5,
          "velocity": 0.7874015748031497
        },
        {
          "duration": 0.25,
          "durationTicks": 48,
          "midi": 44,
          "name": "G#2",
          "ticks": 11472,
          "time": 59.75,
          "velocity": 0.7874015748031497
        },
        {
          "duration": 0.25,
          "durationTicks": 48,
          "midi": 37,
          "name": "C#2",
          "ticks": 11520,
          "time": 60,
          "velocity": 0.7874015748031497
        },
        {
          "duration": 0.25,
          "durationTicks": 48,
          "midi": 49,
          "name": "C#3",
          "ticks": 11568,
          "time": 60.25,
          "velocity": 0.7874015748031497
        },
        {
          "duration": 0.25,
          "durationTicks": 48,
          "midi": 37,
          "name": "C#2",
          "ticks": 11616,
          "time": 60.5,
          "velocity": 0.7874015748031497
        },
        {
          "duration": 0.25,
          "durationTicks": 48,
          "midi": 49,
          "name": "C#3",
          "ticks": 11664,
          "time": 60.75,
          "velocity": 0.7874015748031497
        },
        {
          "duration": 0.25,
          "durationTicks": 48,
          "midi": 30,
          "name": "F#1",
          "ticks": 11712,
          "time": 61,
          "velocity": 0.7874015748031497
        },
        {
          "duration": 0.25,
          "durationTicks": 48,
          "midi": 42,
          "name": "F#2",
          "ticks": 11760,
          "time": 61.25,
          "velocity": 0.7874015748031497
        },
        {
          "duration": 0.25,
          "durationTicks": 48,
          "midi": 30,
          "name": "F#1",
          "ticks": 11808,
          "time": 61.5,
          "velocity": 0.7874015748031497
        },
        {
          "duration": 0.25,
          "durationTicks": 48,
          "midi": 42,
          "name": "F#2",
          "ticks": 11856,
          "time": 61.75,
          "velocity": 0.7874015748031497
        },
        {
          "duration": 0.25,
          "durationTicks": 48,
          "midi": 32,
          "name": "G#1",
          "ticks": 11904,
          "time": 62,
          "velocity": 0.7874015748031497
        },
        {
          "duration": 0.25,
          "durationTicks": 48,
          "midi": 44,
          "name": "G#2",
          "ticks": 11952,
          "time": 62.25,
          "velocity": 0.7874015748031497
        },
        {
          "duration": 0.25,
          "durationTicks": 48,
          "midi": 32,
          "name": "G#1",
          "ticks": 12000,
          "time": 62.5,
          "velocity": 0.7874015748031497
        },
        {
          "duration": 0.25,
          "durationTicks": 48,
          "midi": 44,
          "name": "G#2",
          "ticks": 12048,
          "time": 62.75,
          "velocity": 0.7874015748031497
        },
        {
          "duration": 0.25,
          "durationTicks": 48,
          "midi": 32,
          "name": "G#1",
          "ticks": 12096,
          "time": 63,
          "velocity": 0.7874015748031497
        },
        {
          "duration": 0.25,
          "durationTicks": 48,
          "midi": 44,
          "name": "G#2",
          "ticks": 12144,
          "time": 63.25,
          "velocity": 0.7874015748031497
        },
        {
          "duration": 0.25,
          "durationTicks": 48,
          "midi": 32,
          "name": "G#1",
          "ticks": 12192,
          "time": 63.5,
          "velocity": 0.7874015748031497
        },
        {
          "duration": 0.25,
          "durationTicks": 48,
          "midi": 44,
          "name": "G#2",
          "ticks": 12240,
          "time": 63.75,
          "velocity": 0.7874015748031497
        }
      ]
    }
  ]
}
