{
  "header": {
    "keySignatures": [],
    "meta": [],
    "name": "",
    "ppq": 96,
    "tempos": [
      {
        "bpm": 125,
        "ticks": 0
      }
    ],
    "timeSignatures": [
      {
        "ticks": 0,
        "timeSignature": [
          4,
          4
        ],
        "measures": 0
      }
    ]
  },
  "tracks": [
    {
      "channel": 0,
      "controlChanges": {},
      "pitchBends": [],
      "instrument": {
        "family": "piano",
        "number": 0,
        "name": "acoustic grand piano"
      },
      "name": "",
      "notes": [],
      "endOfTrackTicks": 0
    },
    {
      "channel": 0,
      "controlChanges": {
        "6": [
          {
            "number": 6,
            "ticks": 0,
            "time": 0,
            "value": 0.09448818897637795
          }
        ],
        "7": [
          {
            "number": 7,
            "ticks": 0,
            "time": 0,
            "value": 0.7874015748031497
          },
          {
            "number": 7,
            "ticks": 0,
            "time": 0,
            "value": 0.7874015748031497
          }
        ],
        "10": [
          {
            "number": 10,
            "ticks": 0,
            "time": 0,
            "value": 0.5039370078740157
          },
          {
            "number": 10,
            "ticks": 0,
            "time": 0,
            "value": 0.5039370078740157
          }
        ],
        "100": [
          {
            "number": 100,
            "ticks": 0,
            "time": 0,
            "value": 0
          }
        ],
        "101": [
          {
            "number": 101,
            "ticks": 0,
            "time": 0,
            "value": 0
          }
        ]
      },
      "pitchBends": [
        {
          "ticks": 0,
          "time": 0,
          "value": 0
        },
        {
          "ticks": 0,
          "time": 0,
          "value": 0
        }
      ],
      "instrument": {
        "family": "piano",
        "number": 0,
        "name": "acoustic grand piano"
      },
      "name": "Lead Piano",
      "notes": [],
      "endOfTrackTicks": 32340
    },
    {
      "channel": 0,
      "controlChanges": {
        "6": [
          {
            "number": 6,
            "ticks": 0,
            "time": 0,
            "value": 0.09448818897637795
          },
          {
            "number": 6,
            "ticks": 32256,
            "time": 161.28,
            "value": 0.09448818897637795
          },
          {
            "number": 6,
            "ticks": 32340,
            "time": 161.7,
            "value": 0.09448818897637795
          },
          {
            "number": 6,
            "ticks": 32340,
            "time": 161.7,
            "value": 0.09448818897637795
          }
        ],
        "7": [
          {
            "number": 7,
            "ticks": 0,
            "time": 0,
            "value": 0.7874015748031497
          },
          {
            "number": 7,
            "ticks": 32256,
            "time": 161.28,
            "value": 0.7874015748031497
          },
          {
            "number": 7,
            "ticks": 32340,
            "time": 161.7,
            "value": 0.7874015748031497
          },
          {
            "number": 7,
            "ticks": 32340,
            "time": 161.7,
            "value": 0.7874015748031497
          }
        ],
        "10": [
          {
            "number": 10,
            "ticks": 0,
            "time": 0,
            "value": 0.5039370078740157
          },
          {
            "number": 10,
            "ticks": 32256,
            "time": 161.28,
            "value": 0.5039370078740157
          },
          {
            "number": 10,
            "ticks": 32340,
            "time": 161.7,
            "value": 0.5039370078740157
          },
          {
            "number": 10,
            "ticks": 32340,
            "time": 161.7,
            "value": 0.5039370078740157
          }
        ],
        "100": [
          {
            "number": 100,
            "ticks": 0,
            "time": 0,
            "value": 0
          },
          {
            "number": 100,
            "ticks": 32256,
            "time": 161.28,
            "value": 0
          },
          {
            "number": 100,
            "ticks": 32340,
            "time": 161.7,
            "value": 0
          },
          {
            "number": 100,
            "ticks": 32340,
            "time": 161.7,
            "value": 0
          }
        ],
        "101": [
          {
            "number": 101,
            "ticks": 0,
            "time": 0,
            "value": 0
          },
          {
            "number": 101,
            "ticks": 32256,
            "time": 161.28,
            "value": 0
          },
          {
            "number": 101,
            "ticks": 32340,
            "time": 161.7,
            "value": 0
          },
          {
            "number": 101,
            "ticks": 32340,
            "time": 161.7,
            "value": 0
          }
        ]
      },
      "pitchBends": [
        {
          "ticks": 0,
          "time": 0,
          "value": 0
        },
        {
          "ticks": 32256,
          "time": 161.28,
          "value": 0
        },
        {
          "ticks": 32340,
          "time": 161.7,
          "value": 0
        },
        {
          "ticks": 32340,
          "time": 161.7,
          "value": 0
        }
      ],
      "instrument": {
        "family": "piano",
        "number": 1,
        "name": "bright acoustic piano"
      },
      "name": "",
      "notes": [
        {
          "duration": 0.72,
          "durationTicks": 144,
          "midi": 77,
          "name": "F5",
          "ticks": 0,
          "time": 0,
          "velocity": 0.5039370078740157
        },
        {
          "duration": 0.72,
          "durationTicks": 144,
          "midi": 74,
          "name": "D5",
          "ticks": 0,
          "time": 0,
          "velocity": 0.5039370078740157
        },
        {
          "duration": 0.72,
          "durationTicks": 144,
          "midi": 70,
          "name": "A#4",
          "ticks": 0,
          "time": 0,
          "velocity": 0.5039370078740157
        },
        {
          "duration": 0.15999999999999992,
          "durationTicks": 32,
          "midi": 74,
          "name": "D5",
          "ticks": 144,
          "time": 0.72,
          "velocity": 0.5039370078740157
        },
        {
          "duration": 0.15999999999999992,
          "durationTicks": 32,
          "midi": 77,
          "name": "F5",
          "ticks": 144,
          "time": 0.72,
          "velocity": 0.5039370078740157
        },
        {
          "duration": 0.15999999999999992,
          "durationTicks": 32,
          "midi": 81,
          "name": "A5",
          "ticks": 144,
          "time": 0.72,
          "velocity": 0.5039370078740157
        },
        {
          "duration": 0.72,
          "durationTicks": 144,
          "midi": 70,
          "name": "A#4",
          "ticks": 192,
          "time": 0.96,
          "velocity": 0.5039370078740157
        },
        {
          "duration": 0.72,
          "durationTicks": 144,
          "midi": 74,
          "name": "D5",
          "ticks": 192,
          "time": 0.96,
          "velocity": 0.5039370078740157
        },
        {
          "duration": 0.72,
          "durationTicks": 144,
          "midi": 77,
          "name": "F5",
          "ticks": 192,
          "time": 0.96,
          "velocity": 0.5039370078740157
        },
        {
          "duration": 0.16000000000000014,
          "durationTicks": 32,
          "midi": 74,
          "name": "D5",
          "ticks": 336,
          "time": 1.68,
          "velocity": 0.5039370078740157
        },
        {
          "duration": 0.16000000000000014,
          "durationTicks": 32,
          "midi": 77,
          "name": "F5",
          "ticks": 336,
          "time": 1.68,
          "velocity": 0.5039370078740157
        },
        {
          "duration": 0.16000000000000014,
          "durationTicks": 32,
          "midi": 81,
          "name": "A5",
          "ticks": 336,
          "time": 1.68,
          "velocity": 0.5039370078740157
        },
        {
          "duration": 0.7199999999999998,
          "durationTicks": 144,
          "midi": 77,
          "name": "F5",
          "ticks": 384,
          "time": 1.92,
          "velocity": 0.5039370078740157
        },
        {
          "duration": 0.7199999999999998,
          "durationTicks": 144,
          "midi": 74,
          "name": "D5",
          "ticks": 384,
          "time": 1.92,
          "velocity": 0.5039370078740157
        },
        {
          "duration": 0.7199999999999998,
          "durationTicks": 144,
          "midi": 70,
          "name": "A#4",
          "ticks": 384,
          "time": 1.92,
          "velocity": 0.5039370078740157
        },
        {
          "duration": 0.16000000000000014,
          "durationTicks": 32,
          "midi": 81,
          "name": "A5",
          "ticks": 528,
          "time": 2.6399999999999997,
          "velocity": 0.5039370078740157
        },
        {
          "duration": 0.16000000000000014,
          "durationTicks": 32,
          "midi": 77,
          "name": "F5",
          "ticks": 528,
          "time": 2.6399999999999997,
          "velocity": 0.5039370078740157
        },
        {
          "duration": 0.16000000000000014,
          "durationTicks": 32,
          "midi": 74,
          "name": "D5",
          "ticks": 528,
          "time": 2.6399999999999997,
          "velocity": 0.5039370078740157
        },
        {
          "duration": 0.1200000000000001,
          "durationTicks": 24,
          "midi": 70,
          "name": "A#4",
          "ticks": 576,
          "time": 2.88,
          "velocity": 0.5039370078740157
        },
        {
          "duration": 0.1200000000000001,
          "durationTicks": 24,
          "midi": 74,
          "name": "D5",
          "ticks": 576,
          "time": 2.88,
          "velocity": 0.5039370078740157
        },
        {
          "duration": 0.05999999999999961,
          "durationTicks": 12,
          "midi": 72,
          "name": "C5",
          "ticks": 624,
          "time": 3.12,
          "velocity": 0.5039370078740157
        },
        {
          "duration": 0.05999999999999961,
          "durationTicks": 12,
          "midi": 69,
          "name": "A4",
          "ticks": 624,
          "time": 3.12,
          "velocity": 0.5039370078740157
        },
        {
          "duration": 0.06000000000000005,
          "durationTicks": 12,
          "midi": 74,
          "name": "D5",
          "ticks": 636,
          "time": 3.1799999999999997,
          "velocity": 0.5039370078740157
        },
        {
          "duration": 0.06000000000000005,
          "durationTicks": 12,
          "midi": 70,
          "name": "A#4",
          "ticks": 636,
          "time": 3.1799999999999997,
          "velocity": 0.5039370078740157
        },
        {
          "duration": 0.06000000000000005,
          "durationTicks": 12,
          "midi": 69,
          "name": "A4",
          "ticks": 648,
          "time": 3.2399999999999998,
          "velocity": 0.5039370078740157
        },
        {
          "duration": 0.06000000000000005,
          "durationTicks": 12,
          "midi": 72,
          "name": "C5",
          "ticks": 648,
          "time": 3.2399999999999998,
          "velocity": 0.5039370078740157
        },
        {
          "duration": 0.23999999999999977,
          "durationTicks": 48,
          "midi": 70,
          "name": "A#4",
          "ticks": 672,
          "time": 3.36,
          "velocity": 0.5039370078740157
        },
        {
          "duration": 0.23999999999999977,
          "durationTicks": 48,
          "midi": 67,
          "name": "G4",
          "ticks": 672,
          "time": 3.36,
          "velocity": 0.5039370078740157
        },
        {
          "duration": 0.2400000000000002,
          "durationTicks": 48,
          "midi": 69,
          "name": "A4",
          "ticks": 720,
          "time": 3.5999999999999996,
          "velocity": 0.5039370078740157
        },
        {
          "duration": 0.2400000000000002,
          "durationTicks": 48,
          "midi": 72,
          "name": "C5",
          "ticks": 720,
          "time": 3.5999999999999996,
          "velocity": 0.5039370078740157
        },
        {
          "duration": 0.7199999999999998,
          "durationTicks": 144,
          "midi": 77,
          "name": "F5",
          "ticks": 768,
          "time": 3.84,
          "velocity": 0.5039370078740157
        },
        {
          "duration": 0.7199999999999998,
          "durationTicks": 144,
          "midi": 74,
          "name": "D5",
          "ticks": 768,
          "time": 3.84,
          "velocity": 0.5039370078740157
        },
        {
          "duration": 0.7199999999999998,
          "durationTicks": 144,
          "midi": 70,
          "name": "A#4",
          "ticks": 768,
          "time": 3.84,
          "velocity": 0.5039370078740157
        },
        {
          "duration": 0.16000000000000014,
          "durationTicks": 32,
          "midi": 74,
          "name": "D5",
          "ticks": 912,
          "time": 4.56,
          "velocity": 0.5039370078740157
        },
        {
          "duration": 0.16000000000000014,
          "durationTicks": 32,
          "midi": 77,
          "name": "F5",
          "ticks": 912,
          "time": 4.56,
          "velocity": 0.5039370078740157
        },
        {
          "duration": 0.16000000000000014,
          "durationTicks": 32,
          "midi": 81,
          "name": "A5",
          "ticks": 912,
          "time": 4.56,
          "velocity": 0.5039370078740157
        },
        {
          "duration": 0.7199999999999998,
          "durationTicks": 144,
          "midi": 77,
          "name": "F5",
          "ticks": 960,
          "time": 4.8,
          "velocity": 0.5039370078740157
        },
        {
          "duration": 0.7199999999999998,
          "durationTicks": 144,
          "midi": 74,
          "name": "D5",
          "ticks": 960,
          "time": 4.8,
          "velocity": 0.5039370078740157
        },
        {
          "duration": 0.7199999999999998,
          "durationTicks": 144,
          "midi": 70,
          "name": "A#4",
          "ticks": 960,
          "time": 4.8,
          "velocity": 0.5039370078740157
        },
        {
          "duration": 0.16000000000000014,
          "durationTicks": 32,
          "midi": 81,
          "name": "A5",
          "ticks": 1104,
          "time": 5.52,
          "velocity": 0.5039370078740157
        },
        {
          "duration": 0.16000000000000014,
          "durationTicks": 32,
          "midi": 77,
          "name": "F5",
          "ticks": 1104,
          "time": 5.52,
          "velocity": 0.5039370078740157
        },
        {
          "duration": 0.16000000000000014,
          "durationTicks": 32,
          "midi": 74,
          "name": "D5",
          "ticks": 1104,
          "time": 5.52,
          "velocity": 0.5039370078740157
        },
        {
          "duration": 0.7199999999999998,
          "durationTicks": 144,
          "midi": 77,
          "name": "F5",
          "ticks": 1152,
          "time": 5.76,
          "velocity": 0.5039370078740157
        },
        {
          "duration": 0.7199999999999998,
          "durationTicks": 144,
          "midi": 74,
          "name": "D5",
          "ticks": 1152,
          "time": 5.76,
          "velocity": 0.5039370078740157
        },
        {
          "duration": 0.7199999999999998,
          "durationTicks": 144,
          "midi": 70,
          "name": "A#4",
          "ticks": 1152,
          "time": 5.76,
          "velocity": 0.5039370078740157
        },
        {
          "duration": 0.16000000000000014,
          "durationTicks": 32,
          "midi": 74,
          "name": "D5",
          "ticks": 1296,
          "time": 6.4799999999999995,
          "velocity": 0.5039370078740157
        },
        {
          "duration": 0.16000000000000014,
          "durationTicks": 32,
          "midi": 77,
          "name": "F5",
          "ticks": 1296,
          "time": 6.4799999999999995,
          "velocity": 0.5039370078740157
        },
        {
          "duration": 0.16000000000000014,
          "durationTicks": 32,
          "midi": 81,
          "name": "A5",
          "ticks": 1296,
          "time": 6.4799999999999995,
          "velocity": 0.5039370078740157
        },
        {
          "duration": 0.1200000000000001,
          "durationTicks": 24,
          "midi": 70,
          "name": "A#4",
          "ticks": 1344,
          "time": 6.72,
          "velocity": 0.5039370078740157
        },
        {
          "duration": 0.1200000000000001,
          "durationTicks": 24,
          "midi": 74,
          "name": "D5",
          "ticks": 1344,
          "time": 6.72,
          "velocity": 0.5039370078740157
        },
        {
          "duration": 0.05999999999999961,
          "durationTicks": 12,
          "midi": 69,
          "name": "A4",
          "ticks": 1392,
          "time": 6.96,
          "velocity": 0.5039370078740157
        },
        {
          "duration": 0.05999999999999961,
          "durationTicks": 12,
          "midi": 72,
          "name": "C5",
          "ticks": 1392,
          "time": 6.96,
          "velocity": 0.5039370078740157
        },
        {
          "duration": 0.0600000000000005,
          "durationTicks": 12,
          "midi": 74,
          "name": "D5",
          "ticks": 1404,
          "time": 7.02,
          "velocity": 0.5039370078740157
        },
        {
          "duration": 0.0600000000000005,
          "durationTicks": 12,
          "midi": 70,
          "name": "A#4",
          "ticks": 1404,
          "time": 7.02,
          "velocity": 0.5039370078740157
        },
        {
          "duration": 0.05999999999999961,
          "durationTicks": 12,
          "midi": 69,
          "name": "A4",
          "ticks": 1416,
          "time": 7.08,
          "velocity": 0.5039370078740157
        },
        {
          "duration": 0.05999999999999961,
          "durationTicks": 12,
          "midi": 72,
          "name": "C5",
          "ticks": 1416,
          "time": 7.08,
          "velocity": 0.5039370078740157
        },
        {
          "duration": 0.2400000000000002,
          "durationTicks": 48,
          "midi": 70,
          "name": "A#4",
          "ticks": 1440,
          "time": 7.199999999999999,
          "velocity": 0.5039370078740157
        },
        {
          "duration": 0.2400000000000002,
          "durationTicks": 48,
          "midi": 67,
          "name": "G4",
          "ticks": 1440,
          "time": 7.199999999999999,
          "velocity": 0.5039370078740157
        },
        {
          "duration": 0.2400000000000002,
          "durationTicks": 48,
          "midi": 69,
          "name": "A4",
          "ticks": 1488,
          "time": 7.4399999999999995,
          "velocity": 0.5039370078740157
        },
        {
          "duration": 0.2400000000000002,
          "durationTicks": 48,
          "midi": 72,
          "name": "C5",
          "ticks": 1488,
          "time": 7.4399999999999995,
          "velocity": 0.5039370078740157
        },
        {
          "duration": 0.7200000000000006,
          "durationTicks": 144,
          "midi": 77,
          "name": "F5",
          "ticks": 1536,
          "time": 7.68,
          "velocity": 0.5039370078740157
        },
        {
          "duration": 0.7200000000000006,
          "durationTicks": 144,
          "midi": 74,
          "name": "D5",
          "ticks": 1536,
          "time": 7.68,
          "velocity": 0.5039370078740157
        },
        {
          "duration": 0.7200000000000006,
          "durationTicks": 144,
          "midi": 70,
          "name": "A#4",
          "ticks": 1536,
          "time": 7.68,
          "velocity": 0.5039370078740157
        },
        {
          "duration": 0.15999999999999837,
          "durationTicks": 32,
          "midi": 74,
          "name": "D5",
          "ticks": 1680,
          "time": 8.4,
          "velocity": 0.5039370078740157
        },
        {
          "duration": 0.15999999999999837,
          "durationTicks": 32,
          "midi": 77,
          "name": "F5",
          "ticks": 1680,
          "time": 8.4,
          "velocity": 0.5039370078740157
        },
        {
          "duration": 0.15999999999999837,
          "durationTicks": 32,
          "midi": 81,
          "name": "A5",
          "ticks": 1680,
          "time": 8.4,
          "velocity": 0.5039370078740157
        },
        {
          "duration": 0.7199999999999989,
          "durationTicks": 144,
          "midi": 70,
          "name": "A#4",
          "ticks": 1728,
          "time": 8.64,
          "velocity": 0.5039370078740157
        },
        {
          "duration": 0.7199999999999989,
          "durationTicks": 144,
          "midi": 74,
          "name": "D5",
          "ticks": 1728,
          "time": 8.64,
          "velocity": 0.5039370078740157
        },
        {
          "duration": 0.7199999999999989,
          "durationTicks": 144,
          "midi": 77,
          "name": "F5",
          "ticks": 1728,
          "time": 8.64,
          "velocity": 0.5039370078740157
        },
        {
          "duration": 0.16000000000000014,
          "durationTicks": 32,
          "midi": 74,
          "name": "D5",
          "ticks": 1872,
          "time": 9.36,
          "velocity": 0.5039370078740157
        },
        {
          "duration": 0.16000000000000014,
          "durationTicks": 32,
          "midi": 77,
          "name": "F5",
          "ticks": 1872,
          "time": 9.36,
          "velocity": 0.5039370078740157
        },
        {
          "duration": 0.16000000000000014,
          "durationTicks": 32,
          "midi": 81,
          "name": "A5",
          "ticks": 1872,
          "time": 9.36,
          "velocity": 0.5039370078740157
        },
        {
          "duration": 0.7200000000000006,
          "durationTicks": 144,
          "midi": 70,
          "name": "A#4",
          "ticks": 1920,
          "time": 9.6,
          "velocity": 0.5039370078740157
        },
        {
          "duration": 0.7200000000000006,
          "durationTicks": 144,
          "midi": 74,
          "name": "D5",
          "ticks": 1920,
          "time": 9.6,
          "velocity": 0.5039370078740157
        },
        {
          "duration": 0.7200000000000006,
          "durationTicks": 144,
          "midi": 77,
          "name": "F5",
          "ticks": 1920,
          "time": 9.6,
          "velocity": 0.5039370078740157
        },
        {
          "duration": 0.15999999999999837,
          "durationTicks": 32,
          "midi": 74,
          "name": "D5",
          "ticks": 2064,
          "time": 10.32,
          "velocity": 0.5039370078740157
        },
        {
          "duration": 0.15999999999999837,
          "durationTicks": 32,
          "midi": 77,
          "name": "F5",
          "ticks": 2064,
          "time": 10.32,
          "velocity": 0.5039370078740157
        },
        {
          "duration": 0.15999999999999837,
          "durationTicks": 32,
          "midi": 81,
          "name": "A5",
          "ticks": 2064,
          "time": 10.32,
          "velocity": 0.5039370078740157
        },
        {
          "duration": 0.120000000000001,
          "durationTicks": 24,
          "midi": 74,
          "name": "D5",
          "ticks": 2112,
          "time": 10.559999999999999,
          "velocity": 0.5039370078740157
        },
        {
          "duration": 0.120000000000001,
          "durationTicks": 24,
          "midi": 70,
          "name": "A#4",
          "ticks": 2112,
          "time": 10.559999999999999,
          "velocity": 0.5039370078740157
        },
        {
          "duration": 0.0600000000000005,
          "durationTicks": 12,
          "midi": 69,
          "name": "A4",
          "ticks": 2160,
          "time": 10.799999999999999,
          "velocity": 0.5039370078740157
        },
        {
          "duration": 0.0600000000000005,
          "durationTicks": 12,
          "midi": 72,
          "name": "C5",
          "ticks": 2160,
          "time": 10.799999999999999,
          "velocity": 0.5039370078740157
        },
        {
          "duration": 0.0600000000000005,
          "durationTicks": 12,
          "midi": 74,
          "name": "D5",
          "ticks": 2172,
          "time": 10.86,
          "velocity": 0.5039370078740157
        },
        {
          "duration": 0.0600000000000005,
          "durationTicks": 12,
          "midi": 70,
          "name": "A#4",
          "ticks": 2172,
          "time": 10.86,
          "velocity": 0.5039370078740157
        },
        {
          "duration": 0.0600000000000005,
          "durationTicks": 12,
          "midi": 69,
          "name": "A4",
          "ticks": 2184,
          "time": 10.92,
          "velocity": 0.5039370078740157
        },
        {
          "duration": 0.0600000000000005,
          "durationTicks": 12,
          "midi": 72,
          "name": "C5",
          "ticks": 2184,
          "time": 10.92,
          "velocity": 0.5039370078740157
        },
        {
          "duration": 0.2400000000000002,
          "durationTicks": 48,
          "midi": 70,
          "name": "A#4",
          "ticks": 2208,
          "time": 11.04,
          "velocity": 0.5039370078740157
        },
        {
          "duration": 0.2400000000000002,
          "durationTicks": 48,
          "midi": 67,
          "name": "G4",
          "ticks": 2208,
          "time": 11.04,
          "velocity": 0.5039370078740157
        },
        {
          "duration": 0.2400000000000002,
          "durationTicks": 48,
          "midi": 69,
          "name": "A4",
          "ticks": 2256,
          "time": 11.28,
          "velocity": 0.5039370078740157
        },
        {
          "duration": 0.2400000000000002,
          "durationTicks": 48,
          "midi": 72,
          "name": "C5",
          "ticks": 2256,
          "time": 11.28,
          "velocity": 0.5039370078740157
        },
        {
          "duration": 0.7200000000000006,
          "durationTicks": 144,
          "midi": 70,
          "name": "A#4",
          "ticks": 2304,
          "time": 11.52,
          "velocity": 0.5039370078740157
        },
        {
          "duration": 0.7200000000000006,
          "durationTicks": 144,
          "midi": 74,
          "name": "D5",
          "ticks": 2304,
          "time": 11.52,
          "velocity": 0.5039370078740157
        },
        {
          "duration": 0.7200000000000006,
          "durationTicks": 144,
          "midi": 77,
          "name": "F5",
          "ticks": 2304,
          "time": 11.52,
          "velocity": 0.5039370078740157
        },
        {
          "duration": 0.15999999999999837,
          "durationTicks": 32,
          "midi": 81,
          "name": "A5",
          "ticks": 2448,
          "time": 12.24,
          "velocity": 0.5039370078740157
        },
        {
          "duration": 0.15999999999999837,
          "durationTicks": 32,
          "midi": 77,
          "name": "F5",
          "ticks": 2448,
          "time": 12.24,
          "velocity": 0.5039370078740157
        },
        {
          "duration": 0.15999999999999837,
          "durationTicks": 32,
          "midi": 74,
          "name": "D5",
          "ticks": 2448,
          "time": 12.24,
          "velocity": 0.5039370078740157
        },
        {
          "duration": 0.7199999999999989,
          "durationTicks": 144,
          "midi": 70,
          "name": "A#4",
          "ticks": 2496,
          "time": 12.48,
          "velocity": 0.5039370078740157
        },
        {
          "duration": 0.7199999999999989,
          "durationTicks": 144,
          "midi": 74,
          "name": "D5",
          "ticks": 2496,
          "time": 12.48,
          "velocity": 0.5039370078740157
        },
        {
          "duration": 0.7199999999999989,
          "durationTicks": 144,
          "midi": 77,
          "name": "F5",
          "ticks": 2496,
          "time": 12.48,
          "velocity": 0.5039370078740157
        },
        {
          "duration": 0.16000000000000014,
          "durationTicks": 32,
          "midi": 74,
          "name": "D5",
          "ticks": 2640,
          "time": 13.2,
          "velocity": 0.5039370078740157
        },
        {
          "duration": 0.16000000000000014,
          "durationTicks": 32,
          "midi": 77,
          "name": "F5",
          "ticks": 2640,
          "time": 13.2,
          "velocity": 0.5039370078740157
        },
        {
          "duration": 0.16000000000000014,
          "durationTicks": 32,
          "midi": 81,
          "name": "A5",
          "ticks": 2640,
          "time": 13.2,
          "velocity": 0.5039370078740157
        },
        {
          "duration": 0.7200000000000006,
          "durationTicks": 144,
          "midi": 77,
          "name": "F5",
          "ticks": 2688,
          "time": 13.44,
          "velocity": 0.5039370078740157
        },
        {
          "duration": 0.7200000000000006,
          "durationTicks": 144,
          "midi": 74,
          "name": "D5",
          "ticks": 2688,
          "time": 13.44,
          "velocity": 0.5039370078740157
        },
        {
          "duration": 0.7200000000000006,
          "durationTicks": 144,
          "midi": 70,
          "name": "A#4",
          "ticks": 2688,
          "time": 13.44,
          "velocity": 0.5039370078740157
        },
        {
          "duration": 0.15999999999999837,
          "durationTicks": 32,
          "midi": 74,
          "name": "D5",
          "ticks": 2832,
          "time": 14.16,
          "velocity": 0.5039370078740157
        },
        {
          "duration": 0.15999999999999837,
          "durationTicks": 32,
          "midi": 77,
          "name": "F5",
          "ticks": 2832,
          "time": 14.16,
          "velocity": 0.5039370078740157
        },
        {
          "duration": 0.15999999999999837,
          "durationTicks": 32,
          "midi": 81,
          "name": "A5",
          "ticks": 2832,
          "time": 14.16,
          "velocity": 0.5039370078740157
        },
        {
          "duration": 0.120000000000001,
          "durationTicks": 24,
          "midi": 70,
          "name": "A#4",
          "ticks": 2880,
          "time": 14.399999999999999,
          "velocity": 0.5039370078740157
        },
        {
          "duration": 0.120000000000001,
          "durationTicks": 24,
          "midi": 74,
          "name": "D5",
          "ticks": 2880,
          "time": 14.399999999999999,
          "velocity": 0.5039370078740157
        },
        {
          "duration": 0.0600000000000005,
          "durationTicks": 12,
          "midi": 69,
          "name": "A4",
          "ticks": 2928,
          "time": 14.639999999999999,
          "velocity": 0.5039370078740157
        },
        {
          "duration": 0.0600000000000005,
          "durationTicks": 12,
          "midi": 72,
          "name": "C5",
          "ticks": 2928,
          "time": 14.639999999999999,
          "velocity": 0.5039370078740157
        },
        {
          "duration": 0.0600000000000005,
          "durationTicks": 12,
          "midi": 74,
          "name": "D5",
          "ticks": 2940,
          "time": 14.7,
          "velocity": 0.5039370078740157
        },
        {
          "duration": 0.0600000000000005,
          "durationTicks": 12,
          "midi": 70,
          "name": "A#4",
          "ticks": 2940,
          "time": 14.7,
          "velocity": 0.5039370078740157
        },
        {
          "duration": 0.0600000000000005,
          "durationTicks": 12,
          "midi": 72,
          "name": "C5",
          "ticks": 2952,
          "time": 14.76,
          "velocity": 0.5039370078740157
        },
        {
          "duration": 0.0600000000000005,
          "durationTicks": 12,
          "midi": 69,
          "name": "A4",
          "ticks": 2952,
          "time": 14.76,
          "velocity": 0.5039370078740157
        },
        {
          "duration": 0.2400000000000002,
          "durationTicks": 48,
          "midi": 70,
          "name": "A#4",
          "ticks": 2976,
          "time": 14.879999999999999,
          "velocity": 0.5039370078740157
        },
        {
          "duration": 0.2400000000000002,
          "durationTicks": 48,
          "midi": 67,
          "name": "G4",
          "ticks": 2976,
          "time": 14.879999999999999,
          "velocity": 0.5039370078740157
        },
        {
          "duration": 0.2400000000000002,
          "durationTicks": 48,
          "midi": 69,
          "name": "A4",
          "ticks": 3024,
          "time": 15.12,
          "velocity": 0.5039370078740157
        },
        {
          "duration": 0.2400000000000002,
          "durationTicks": 48,
          "midi": 72,
          "name": "C5",
          "ticks": 3024,
          "time": 15.12,
          "velocity": 0.5039370078740157
        },
        {
          "duration": 0.7199999999999989,
          "durationTicks": 144,
          "midi": 77,
          "name": "F5",
          "ticks": 3072,
          "time": 15.36,
          "velocity": 0.7874015748031497
        },
        {
          "duration": 0.7199999999999989,
          "durationTicks": 144,
          "midi": 74,
          "name": "D5",
          "ticks": 3072,
          "time": 15.36,
          "velocity": 0.7874015748031497
        },
        {
          "duration": 0.7199999999999989,
          "durationTicks": 144,
          "midi": 70,
          "name": "A#4",
          "ticks": 3072,
          "time": 15.36,
          "velocity": 0.7874015748031497
        },
        {
          "duration": 0.1600000000000037,
          "durationTicks": 32,
          "midi": 74,
          "name": "D5",
          "ticks": 3216,
          "time": 16.08,
          "velocity": 0.7874015748031497
        },
        {
          "duration": 0.1600000000000037,
          "durationTicks": 32,
          "midi": 77,
          "name": "F5",
          "ticks": 3216,
          "time": 16.08,
          "velocity": 0.7874015748031497
        },
        {
          "duration": 0.1600000000000037,
          "durationTicks": 32,
          "midi": 81,
          "name": "A5",
          "ticks": 3216,
          "time": 16.08,
          "velocity": 0.7874015748031497
        },
        {
          "duration": 0.7199999999999989,
          "durationTicks": 144,
          "midi": 70,
          "name": "A#4",
          "ticks": 3264,
          "time": 16.32,
          "velocity": 0.7874015748031497
        },
        {
          "duration": 0.7199999999999989,
          "durationTicks": 144,
          "midi": 74,
          "name": "D5",
          "ticks": 3264,
          "time": 16.32,
          "velocity": 0.7874015748031497
        },
        {
          "duration": 0.7199999999999989,
          "durationTicks": 144,
          "midi": 77,
          "name": "F5",
          "ticks": 3264,
          "time": 16.32,
          "velocity": 0.7874015748031497
        },
        {
          "duration": 0.16000000000000014,
          "durationTicks": 32,
          "midi": 81,
          "name": "A5",
          "ticks": 3408,
          "time": 17.04,
          "velocity": 0.7874015748031497
        },
        {
          "duration": 0.16000000000000014,
          "durationTicks": 32,
          "midi": 77,
          "name": "F5",
          "ticks": 3408,
          "time": 17.04,
          "velocity": 0.7874015748031497
        },
        {
          "duration": 0.16000000000000014,
          "durationTicks": 32,
          "midi": 74,
          "name": "D5",
          "ticks": 3408,
          "time": 17.04,
          "velocity": 0.7874015748031497
        },
        {
          "duration": 0.7199999999999989,
          "durationTicks": 144,
          "midi": 70,
          "name": "A#4",
          "ticks": 3456,
          "time": 17.28,
          "velocity": 0.7874015748031497
        },
        {
          "duration": 0.7199999999999989,
          "durationTicks": 144,
          "midi": 74,
          "name": "D5",
          "ticks": 3456,
          "time": 17.28,
          "velocity": 0.7874015748031497
        },
        {
          "duration": 0.7199999999999989,
          "durationTicks": 144,
          "midi": 77,
          "name": "F5",
          "ticks": 3456,
          "time": 17.28,
          "velocity": 0.7874015748031497
        },
        {
          "duration": 0.16000000000000014,
          "durationTicks": 32,
          "midi": 81,
          "name": "A5",
          "ticks": 3600,
          "time": 18,
          "velocity": 0.7874015748031497
        },
        {
          "duration": 0.16000000000000014,
          "durationTicks": 32,
          "midi": 77,
          "name": "F5",
          "ticks": 3600,
          "time": 18,
          "velocity": 0.7874015748031497
        },
        {
          "duration": 0.16000000000000014,
          "durationTicks": 32,
          "midi": 74,
          "name": "D5",
          "ticks": 3600,
          "time": 18,
          "velocity": 0.7874015748031497
        },
        {
          "duration": 0.120000000000001,
          "durationTicks": 24,
          "midi": 74,
          "name": "D5",
          "ticks": 3648,
          "time": 18.24,
          "velocity": 0.7874015748031497
        },
        {
          "duration": 0.120000000000001,
          "durationTicks": 24,
          "midi": 70,
          "name": "A#4",
          "ticks": 3648,
          "time": 18.24,
          "velocity": 0.7874015748031497
        },
        {
          "duration": 0.05999999999999872,
          "durationTicks": 12,
          "midi": 72,
          "name": "C5",
          "ticks": 3696,
          "time": 18.48,
          "velocity": 0.7874015748031497
        },
        {
          "duration": 0.05999999999999872,
          "durationTicks": 12,
          "midi": 69,
          "name": "A4",
          "ticks": 3696,
          "time": 18.48,
          "velocity": 0.7874015748031497
        },
        {
          "duration": 0.05999999999999872,
          "durationTicks": 12,
          "midi": 74,
          "name": "D5",
          "ticks": 3708,
          "time": 18.54,
          "velocity": 0.7874015748031497
        },
        {
          "duration": 0.05999999999999872,
          "durationTicks": 12,
          "midi": 70,
          "name": "A#4",
          "ticks": 3708,
          "time": 18.54,
          "velocity": 0.7874015748031497
        },
        {
          "duration": 0.060000000000002274,
          "durationTicks": 12,
          "midi": 72,
          "name": "C5",
          "ticks": 3720,
          "time": 18.599999999999998,
          "velocity": 0.7874015748031497
        },
        {
          "duration": 0.060000000000002274,
          "durationTicks": 12,
          "midi": 69,
          "name": "A4",
          "ticks": 3720,
          "time": 18.599999999999998,
          "velocity": 0.7874015748031497
        },
        {
          "duration": 0.240000000000002,
          "durationTicks": 48,
          "midi": 67,
          "name": "G4",
          "ticks": 3744,
          "time": 18.72,
          "velocity": 0.7874015748031497
        },
        {
          "duration": 0.240000000000002,
          "durationTicks": 48,
          "midi": 70,
          "name": "A#4",
          "ticks": 3744,
          "time": 18.72,
          "velocity": 0.7874015748031497
        },
        {
          "duration": 0.23999999999999844,
          "durationTicks": 48,
          "midi": 69,
          "name": "A4",
          "ticks": 3792,
          "time": 18.96,
          "velocity": 0.7874015748031497
        },
        {
          "duration": 0.23999999999999844,
          "durationTicks": 48,
          "midi": 72,
          "name": "C5",
          "ticks": 3792,
          "time": 18.96,
          "velocity": 0.7874015748031497
        },
        {
          "duration": 0.6000000000000014,
          "durationTicks": 120,
          "midi": 74,
          "name": "D5",
          "ticks": 3840,
          "time": 19.2,
          "velocity": 0.7874015748031497
        },
        {
          "duration": 0.6000000000000014,
          "durationTicks": 120,
          "midi": 70,
          "name": "A#4",
          "ticks": 3840,
          "time": 19.2,
          "velocity": 0.7874015748031497
        },
        {
          "duration": 0.6000000000000014,
          "durationTicks": 120,
          "midi": 77,
          "name": "F5",
          "ticks": 3840,
          "time": 19.2,
          "velocity": 0.7874015748031497
        },
        {
          "duration": 0.05999999999999872,
          "durationTicks": 12,
          "midi": 79,
          "name": "G5",
          "ticks": 3960,
          "time": 19.8,
          "velocity": 0.7874015748031497
        },
        {
          "duration": 0.05999999999999872,
          "durationTicks": 12,
          "midi": 80,
          "name": "G#5",
          "ticks": 3972,
          "time": 19.86,
          "velocity": 0.7874015748031497
        },
        {
          "duration": 0.1600000000000037,
          "durationTicks": 32,
          "midi": 74,
          "name": "D5",
          "ticks": 3984,
          "time": 19.919999999999998,
          "velocity": 0.7874015748031497
        },
        {
          "duration": 0.1600000000000037,
          "durationTicks": 32,
          "midi": 77,
          "name": "F5",
          "ticks": 3984,
          "time": 19.919999999999998,
          "velocity": 0.7874015748031497
        },
        {
          "duration": 0.1600000000000037,
          "durationTicks": 32,
          "midi": 81,
          "name": "A5",
          "ticks": 3984,
          "time": 19.919999999999998,
          "velocity": 0.7874015748031497
        },
        {
          "duration": 0.5999999999999979,
          "durationTicks": 120,
          "midi": 74,
          "name": "D5",
          "ticks": 4032,
          "time": 20.16,
          "velocity": 0.7874015748031497
        },
        {
          "duration": 0.5999999999999979,
          "durationTicks": 120,
          "midi": 70,
          "name": "A#4",
          "ticks": 4032,
          "time": 20.16,
          "velocity": 0.7874015748031497
        },
        {
          "duration": 0.5999999999999979,
          "durationTicks": 120,
          "midi": 77,
          "name": "F5",
          "ticks": 4032,
          "time": 20.16,
          "velocity": 0.7874015748031497
        },
        {
          "duration": 0.060000000000002274,
          "durationTicks": 12,
          "midi": 77,
          "name": "F5",
          "ticks": 4152,
          "time": 20.759999999999998,
          "velocity": 0.7874015748031497
        },
        {
          "duration": 0.05999999999999872,
          "durationTicks": 12,
          "midi": 82,
          "name": "A#5",
          "ticks": 4164,
          "time": 20.82,
          "velocity": 0.7874015748031497
        },
        {
          "duration": 0.16000000000000014,
          "durationTicks": 32,
          "midi": 81,
          "name": "A5",
          "ticks": 4176,
          "time": 20.88,
          "velocity": 0.7874015748031497
        },
        {
          "duration": 0.16000000000000014,
          "durationTicks": 32,
          "midi": 77,
          "name": "F5",
          "ticks": 4176,
          "time": 20.88,
          "velocity": 0.7874015748031497
        },
        {
          "duration": 0.16000000000000014,
          "durationTicks": 32,
          "midi": 74,
          "name": "D5",
          "ticks": 4176,
          "time": 20.88,
          "velocity": 0.7874015748031497
        },
        {
          "duration": 0.7200000000000024,
          "durationTicks": 144,
          "midi": 77,
          "name": "F5",
          "ticks": 4224,
          "time": 21.119999999999997,
          "velocity": 0.7874015748031497
        },
        {
          "duration": 0.7200000000000024,
          "durationTicks": 144,
          "midi": 74,
          "name": "D5",
          "ticks": 4224,
          "time": 21.119999999999997,
          "velocity": 0.7874015748031497
        },
        {
          "duration": 0.7200000000000024,
          "durationTicks": 144,
          "midi": 70,
          "name": "A#4",
          "ticks": 4224,
          "time": 21.119999999999997,
          "velocity": 0.7874015748031497
        },
        {
          "duration": 0.16000000000000014,
          "durationTicks": 32,
          "midi": 81,
          "name": "A5",
          "ticks": 4368,
          "time": 21.84,
          "velocity": 0.7874015748031497
        },
        {
          "duration": 0.16000000000000014,
          "durationTicks": 32,
          "midi": 77,
          "name": "F5",
          "ticks": 4368,
          "time": 21.84,
          "velocity": 0.7874015748031497
        },
        {
          "duration": 0.16000000000000014,
          "durationTicks": 32,
          "midi": 74,
          "name": "D5",
          "ticks": 4368,
          "time": 21.84,
          "velocity": 0.7874015748031497
        },
        {
          "duration": 0.120000000000001,
          "durationTicks": 24,
          "midi": 74,
          "name": "D5",
          "ticks": 4416,
          "time": 22.08,
          "velocity": 0.7874015748031497
        },
        {
          "duration": 0.120000000000001,
          "durationTicks": 24,
          "midi": 70,
          "name": "A#4",
          "ticks": 4416,
          "time": 22.08,
          "velocity": 0.7874015748031497
        },
        {
          "duration": 0.05999999999999872,
          "durationTicks": 12,
          "midi": 72,
          "name": "C5",
          "ticks": 4464,
          "time": 22.32,
          "velocity": 0.7874015748031497
        },
        {
          "duration": 0.05999999999999872,
          "durationTicks": 12,
          "midi": 69,
          "name": "A4",
          "ticks": 4464,
          "time": 22.32,
          "velocity": 0.7874015748031497
        },
        {
          "duration": 0.05999999999999872,
          "durationTicks": 12,
          "midi": 74,
          "name": "D5",
          "ticks": 4476,
          "time": 22.38,
          "velocity": 0.7874015748031497
        },
        {
          "duration": 0.05999999999999872,
          "durationTicks": 12,
          "midi": 70,
          "name": "A#4",
          "ticks": 4476,
          "time": 22.38,
          "velocity": 0.7874015748031497
        },
        {
          "duration": 0.060000000000002274,
          "durationTicks": 12,
          "midi": 72,
          "name": "C5",
          "ticks": 4488,
          "time": 22.439999999999998,
          "velocity": 0.7874015748031497
        },
        {
          "duration": 0.060000000000002274,
          "durationTicks": 12,
          "midi": 69,
          "name": "A4",
          "ticks": 4488,
          "time": 22.439999999999998,
          "velocity": 0.7874015748031497
        },
        {
          "duration": 0.240000000000002,
          "durationTicks": 48,
          "midi": 67,
          "name": "G4",
          "ticks": 4512,
          "time": 22.56,
          "velocity": 0.7874015748031497
        },
        {
          "duration": 0.240000000000002,
          "durationTicks": 48,
          "midi": 70,
          "name": "A#4",
          "ticks": 4512,
          "time": 22.56,
          "velocity": 0.7874015748031497
        },
        {
          "duration": 0.23999999999999844,
          "durationTicks": 48,
          "midi": 69,
          "name": "A4",
          "ticks": 4560,
          "time": 22.8,
          "velocity": 0.7874015748031497
        },
        {
          "duration": 0.23999999999999844,
          "durationTicks": 48,
          "midi": 72,
          "name": "C5",
          "ticks": 4560,
          "time": 22.8,
          "velocity": 0.7874015748031497
        },
        {
          "duration": 0.7199999999999989,
          "durationTicks": 144,
          "midi": 70,
          "name": "A#4",
          "ticks": 4608,
          "time": 23.04,
          "velocity": 0.7874015748031497
        },
        {
          "duration": 0.7199999999999989,
          "durationTicks": 144,
          "midi": 74,
          "name": "D5",
          "ticks": 4608,
          "time": 23.04,
          "velocity": 0.7874015748031497
        },
        {
          "duration": 0.7199999999999989,
          "durationTicks": 144,
          "midi": 77,
          "name": "F5",
          "ticks": 4608,
          "time": 23.04,
          "velocity": 0.7874015748031497
        },
        {
          "duration": 0.1600000000000037,
          "durationTicks": 32,
          "midi": 81,
          "name": "A5",
          "ticks": 4752,
          "time": 23.759999999999998,
          "velocity": 0.7874015748031497
        },
        {
          "duration": 0.1600000000000037,
          "durationTicks": 32,
          "midi": 77,
          "name": "F5",
          "ticks": 4752,
          "time": 23.759999999999998,
          "velocity": 0.7874015748031497
        },
        {
          "duration": 0.1600000000000037,
          "durationTicks": 32,
          "midi": 74,
          "name": "D5",
          "ticks": 4752,
          "time": 23.759999999999998,
          "velocity": 0.7874015748031497
        },
        {
          "duration": 0.7199999999999989,
          "durationTicks": 144,
          "midi": 77,
          "name": "F5",
          "ticks": 4800,
          "time": 24,
          "velocity": 0.7874015748031497
        },
        {
          "duration": 0.7199999999999989,
          "durationTicks": 144,
          "midi": 74,
          "name": "D5",
          "ticks": 4800,
          "time": 24,
          "velocity": 0.7874015748031497
        },
        {
          "duration": 0.7199999999999989,
          "durationTicks": 144,
          "midi": 70,
          "name": "A#4",
          "ticks": 4800,
          "time": 24,
          "velocity": 0.7874015748031497
        },
        {
          "duration": 0.16000000000000014,
          "durationTicks": 32,
          "midi": 74,
          "name": "D5",
          "ticks": 4944,
          "time": 24.72,
          "velocity": 0.7874015748031497
        },
        {
          "duration": 0.16000000000000014,
          "durationTicks": 32,
          "midi": 77,
          "name": "F5",
          "ticks": 4944,
          "time": 24.72,
          "velocity": 0.7874015748031497
        },
        {
          "duration": 0.16000000000000014,
          "durationTicks": 32,
          "midi": 81,
          "name": "A5",
          "ticks": 4944,
          "time": 24.72,
          "velocity": 0.7874015748031497
        },
        {
          "duration": 0.7199999999999989,
          "durationTicks": 144,
          "midi": 77,
          "name": "F5",
          "ticks": 4992,
          "time": 24.96,
          "velocity": 0.7874015748031497
        },
        {
          "duration": 0.7199999999999989,
          "durationTicks": 144,
          "midi": 74,
          "name": "D5",
          "ticks": 4992,
          "time": 24.96,
          "velocity": 0.7874015748031497
        },
        {
          "duration": 0.7199999999999989,
          "durationTicks": 144,
          "midi": 70,
          "name": "A#4",
          "ticks": 4992,
          "time": 24.96,
          "velocity": 0.7874015748031497
        },
        {
          "duration": 0.16000000000000014,
          "durationTicks": 32,
          "midi": 81,
          "name": "A5",
          "ticks": 5136,
          "time": 25.68,
          "velocity": 0.7874015748031497
        },
        {
          "duration": 0.16000000000000014,
          "durationTicks": 32,
          "midi": 77,
          "name": "F5",
          "ticks": 5136,
          "time": 25.68,
          "velocity": 0.7874015748031497
        },
        {
          "duration": 0.16000000000000014,
          "durationTicks": 32,
          "midi": 74,
          "name": "D5",
          "ticks": 5136,
          "time": 25.68,
          "velocity": 0.7874015748031497
        },
        {
          "duration": 0.120000000000001,
          "durationTicks": 24,
          "midi": 74,
          "name": "D5",
          "ticks": 5184,
          "time": 25.919999999999998,
          "velocity": 0.7874015748031497
        },
        {
          "duration": 0.120000000000001,
          "durationTicks": 24,
          "midi": 70,
          "name": "A#4",
          "ticks": 5184,
          "time": 25.919999999999998,
          "velocity": 0.7874015748031497
        },
        {
          "duration": 0.05999999999999872,
          "durationTicks": 12,
          "midi": 72,
          "name": "C5",
          "ticks": 5232,
          "time": 26.16,
          "velocity": 0.7874015748031497
        },
        {
          "duration": 0.05999999999999872,
          "durationTicks": 12,
          "midi": 69,
          "name": "A4",
          "ticks": 5232,
          "time": 26.16,
          "velocity": 0.7874015748031497
        },
        {
          "duration": 0.05999999999999872,
          "durationTicks": 12,
          "midi": 74,
          "name": "D5",
          "ticks": 5244,
          "time": 26.22,
          "velocity": 0.7874015748031497
        },
        {
          "duration": 0.05999999999999872,
          "durationTicks": 12,
          "midi": 70,
          "name": "A#4",
          "ticks": 5244,
          "time": 26.22,
          "velocity": 0.7874015748031497
        },
        {
          "duration": 0.060000000000002274,
          "durationTicks": 12,
          "midi": 72,
          "name": "C5",
          "ticks": 5256,
          "time": 26.279999999999998,
          "velocity": 0.7874015748031497
        },
        {
          "duration": 0.060000000000002274,
          "durationTicks": 12,
          "midi": 69,
          "name": "A4",
          "ticks": 5256,
          "time": 26.279999999999998,
          "velocity": 0.7874015748031497
        },
        {
          "duration": 0.240000000000002,
          "durationTicks": 48,
          "midi": 67,
          "name": "G4",
          "ticks": 5280,
          "time": 26.4,
          "velocity": 0.7874015748031497
        },
        {
          "duration": 0.240000000000002,
          "durationTicks": 48,
          "midi": 70,
          "name": "A#4",
          "ticks": 5280,
          "time": 26.4,
          "velocity": 0.7874015748031497
        },
        {
          "duration": 0.23999999999999844,
          "durationTicks": 48,
          "midi": 69,
          "name": "A4",
          "ticks": 5328,
          "time": 26.64,
          "velocity": 0.7874015748031497
        },
        {
          "duration": 0.23999999999999844,
          "durationTicks": 48,
          "midi": 72,
          "name": "C5",
          "ticks": 5328,
          "time": 26.64,
          "velocity": 0.7874015748031497
        },
        {
          "duration": 0.7199999999999989,
          "durationTicks": 144,
          "midi": 77,
          "name": "F5",
          "ticks": 5376,
          "time": 26.88,
          "velocity": 0.7874015748031497
        },
        {
          "duration": 0.7199999999999989,
          "durationTicks": 144,
          "midi": 74,
          "name": "D5",
          "ticks": 5376,
          "time": 26.88,
          "velocity": 0.7874015748031497
        },
        {
          "duration": 0.7199999999999989,
          "durationTicks": 144,
          "midi": 70,
          "name": "A#4",
          "ticks": 5376,
          "time": 26.88,
          "velocity": 0.7874015748031497
        },
        {
          "duration": 0.1600000000000037,
          "durationTicks": 32,
          "midi": 81,
          "name": "A5",
          "ticks": 5520,
          "time": 27.599999999999998,
          "velocity": 0.7874015748031497
        },
        {
          "duration": 0.1600000000000037,
          "durationTicks": 32,
          "midi": 77,
          "name": "F5",
          "ticks": 5520,
          "time": 27.599999999999998,
          "velocity": 0.7874015748031497
        },
        {
          "duration": 0.1600000000000037,
          "durationTicks": 32,
          "midi": 74,
          "name": "D5",
          "ticks": 5520,
          "time": 27.599999999999998,
          "velocity": 0.7874015748031497
        },
        {
          "duration": 0.7199999999999989,
          "durationTicks": 144,
          "midi": 77,
          "name": "F5",
          "ticks": 5568,
          "time": 27.84,
          "velocity": 0.7874015748031497
        },
        {
          "duration": 0.7199999999999989,
          "durationTicks": 144,
          "midi": 74,
          "name": "D5",
          "ticks": 5568,
          "time": 27.84,
          "velocity": 0.7874015748031497
        },
        {
          "duration": 0.7199999999999989,
          "durationTicks": 144,
          "midi": 70,
          "name": "A#4",
          "ticks": 5568,
          "time": 27.84,
          "velocity": 0.7874015748031497
        },
        {
          "duration": 0.16000000000000014,
          "durationTicks": 32,
          "midi": 74,
          "name": "D5",
          "ticks": 5712,
          "time": 28.56,
          "velocity": 0.7874015748031497
        },
        {
          "duration": 0.16000000000000014,
          "durationTicks": 32,
          "midi": 77,
          "name": "F5",
          "ticks": 5712,
          "time": 28.56,
          "velocity": 0.7874015748031497
        },
        {
          "duration": 0.16000000000000014,
          "durationTicks": 32,
          "midi": 81,
          "name": "A5",
          "ticks": 5712,
          "time": 28.56,
          "velocity": 0.7874015748031497
        },
        {
          "duration": 0.7200000000000024,
          "durationTicks": 144,
          "midi": 77,
          "name": "F5",
          "ticks": 5760,
          "time": 28.799999999999997,
          "velocity": 0.7874015748031497
        },
        {
          "duration": 0.7200000000000024,
          "durationTicks": 144,
          "midi": 74,
          "name": "D5",
          "ticks": 5760,
          "time": 28.799999999999997,
          "velocity": 0.7874015748031497
        },
        {
          "duration": 0.7200000000000024,
          "durationTicks": 144,
          "midi": 70,
          "name": "A#4",
          "ticks": 5760,
          "time": 28.799999999999997,
          "velocity": 0.7874015748031497
        },
        {
          "duration": 0.16000000000000014,
          "durationTicks": 32,
          "midi": 81,
          "name": "A5",
          "ticks": 5904,
          "time": 29.52,
          "velocity": 0.7874015748031497
        },
        {
          "duration": 0.16000000000000014,
          "durationTicks": 32,
          "midi": 77,
          "name": "F5",
          "ticks": 5904,
          "time": 29.52,
          "velocity": 0.7874015748031497
        },
        {
          "duration": 0.16000000000000014,
          "durationTicks": 32,
          "midi": 74,
          "name": "D5",
          "ticks": 5904,
          "time": 29.52,
          "velocity": 0.7874015748031497
        },
        {
          "duration": 0.120000000000001,
          "durationTicks": 24,
          "midi": 74,
          "name": "D5",
          "ticks": 5952,
          "time": 29.759999999999998,
          "velocity": 0.7874015748031497
        },
        {
          "duration": 0.120000000000001,
          "durationTicks": 24,
          "midi": 70,
          "name": "A#4",
          "ticks": 5952,
          "time": 29.759999999999998,
          "velocity": 0.7874015748031497
        },
        {
          "duration": 0.05999999999999872,
          "durationTicks": 12,
          "midi": 72,
          "name": "C5",
          "ticks": 6000,
          "time": 30,
          "velocity": 0.7874015748031497
        },
        {
          "duration": 0.05999999999999872,
          "durationTicks": 12,
          "midi": 69,
          "name": "A4",
          "ticks": 6000,
          "time": 30,
          "velocity": 0.7874015748031497
        },
        {
          "duration": 0.05999999999999872,
          "durationTicks": 12,
          "midi": 74,
          "name": "D5",
          "ticks": 6012,
          "time": 30.06,
          "velocity": 0.7874015748031497
        },
        {
          "duration": 0.05999999999999872,
          "durationTicks": 12,
          "midi": 70,
          "name": "A#4",
          "ticks": 6012,
          "time": 30.06,
          "velocity": 0.7874015748031497
        },
        {
          "duration": 0.060000000000002274,
          "durationTicks": 12,
          "midi": 72,
          "name": "C5",
          "ticks": 6024,
          "time": 30.119999999999997,
          "velocity": 0.7874015748031497
        },
        {
          "duration": 0.060000000000002274,
          "durationTicks": 12,
          "midi": 69,
          "name": "A4",
          "ticks": 6024,
          "time": 30.119999999999997,
          "velocity": 0.7874015748031497
        },
        {
          "duration": 0.240000000000002,
          "durationTicks": 48,
          "midi": 67,
          "name": "G4",
          "ticks": 6048,
          "time": 30.24,
          "velocity": 0.7874015748031497
        },
        {
          "duration": 0.240000000000002,
          "durationTicks": 48,
          "midi": 70,
          "name": "A#4",
          "ticks": 6048,
          "time": 30.24,
          "velocity": 0.7874015748031497
        },
        {
          "duration": 0.23999999999999844,
          "durationTicks": 48,
          "midi": 69,
          "name": "A4",
          "ticks": 6096,
          "time": 30.48,
          "velocity": 0.7874015748031497
        },
        {
          "duration": 0.23999999999999844,
          "durationTicks": 48,
          "midi": 72,
          "name": "C5",
          "ticks": 6096,
          "time": 30.48,
          "velocity": 0.7874015748031497
        },
        {
          "duration": 0.7199999999999989,
          "durationTicks": 144,
          "midi": 77,
          "name": "F5",
          "ticks": 6144,
          "time": 30.72,
          "velocity": 0.7874015748031497
        },
        {
          "duration": 0.7199999999999989,
          "durationTicks": 144,
          "midi": 74,
          "name": "D5",
          "ticks": 6144,
          "time": 30.72,
          "velocity": 0.7874015748031497
        },
        {
          "duration": 0.7199999999999989,
          "durationTicks": 144,
          "midi": 70,
          "name": "A#4",
          "ticks": 6144,
          "time": 30.72,
          "velocity": 0.7874015748031497
        },
        {
          "duration": 0.16000000000000014,
          "durationTicks": 32,
          "midi": 81,
          "name": "A5",
          "ticks": 6288,
          "time": 31.439999999999998,
          "velocity": 0.7874015748031497
        },
        {
          "duration": 0.16000000000000014,
          "durationTicks": 32,
          "midi": 77,
          "name": "F5",
          "ticks": 6288,
          "time": 31.439999999999998,
          "velocity": 0.7874015748031497
        },
        {
          "duration": 0.16000000000000014,
          "durationTicks": 32,
          "midi": 74,
          "name": "D5",
          "ticks": 6288,
          "time": 31.439999999999998,
          "velocity": 0.7874015748031497
        },
        {
          "duration": 0.7199999999999989,
          "durationTicks": 144,
          "midi": 77,
          "name": "F5",
          "ticks": 6336,
          "time": 31.68,
          "velocity": 0.7874015748031497
        },
        {
          "duration": 0.7199999999999989,
          "durationTicks": 144,
          "midi": 74,
          "name": "D5",
          "ticks": 6336,
          "time": 31.68,
          "velocity": 0.7874015748031497
        },
        {
          "duration": 0.7199999999999989,
          "durationTicks": 144,
          "midi": 70,
          "name": "A#4",
          "ticks": 6336,
          "time": 31.68,
          "velocity": 0.7874015748031497
        },
        {
          "duration": 0.1599999999999966,
          "durationTicks": 32,
          "midi": 74,
          "name": "D5",
          "ticks": 6480,
          "time": 32.4,
          "velocity": 0.7874015748031497
        },
        {
          "duration": 0.1599999999999966,
          "durationTicks": 32,
          "midi": 77,
          "name": "F5",
          "ticks": 6480,
          "time": 32.4,
          "velocity": 0.7874015748031497
        },
        {
          "duration": 0.1599999999999966,
          "durationTicks": 32,
          "midi": 81,
          "name": "A5",
          "ticks": 6480,
          "time": 32.4,
          "velocity": 0.7874015748031497
        },
        {
          "duration": 0.7199999999999989,
          "durationTicks": 144,
          "midi": 70,
          "name": "A#4",
          "ticks": 6528,
          "time": 32.64,
          "velocity": 0.7874015748031497
        },
        {
          "duration": 0.7199999999999989,
          "durationTicks": 144,
          "midi": 74,
          "name": "D5",
          "ticks": 6528,
          "time": 32.64,
          "velocity": 0.7874015748031497
        },
        {
          "duration": 0.7199999999999989,
          "durationTicks": 144,
          "midi": 77,
          "name": "F5",
          "ticks": 6528,
          "time": 32.64,
          "velocity": 0.7874015748031497
        },
        {
          "duration": 0.1599999999999966,
          "durationTicks": 32,
          "midi": 81,
          "name": "A5",
          "ticks": 6672,
          "time": 33.36,
          "velocity": 0.7874015748031497
        },
        {
          "duration": 0.1599999999999966,
          "durationTicks": 32,
          "midi": 77,
          "name": "F5",
          "ticks": 6672,
          "time": 33.36,
          "velocity": 0.7874015748031497
        },
        {
          "duration": 0.1599999999999966,
          "durationTicks": 32,
          "midi": 74,
          "name": "D5",
          "ticks": 6672,
          "time": 33.36,
          "velocity": 0.7874015748031497
        },
        {
          "duration": 0.11999999999999744,
          "durationTicks": 24,
          "midi": 70,
          "name": "A#4",
          "ticks": 6720,
          "time": 33.6,
          "velocity": 0.7874015748031497
        },
        {
          "duration": 0.11999999999999744,
          "durationTicks": 24,
          "midi": 74,
          "name": "D5",
          "ticks": 6720,
          "time": 33.6,
          "velocity": 0.7874015748031497
        },
        {
          "duration": 0.060000000000002274,
          "durationTicks": 12,
          "midi": 72,
          "name": "C5",
          "ticks": 6768,
          "time": 33.839999999999996,
          "velocity": 0.7874015748031497
        },
        {
          "duration": 0.060000000000002274,
          "durationTicks": 12,
          "midi": 69,
          "name": "A4",
          "ticks": 6768,
          "time": 33.839999999999996,
          "velocity": 0.7874015748031497
        },
        {
          "duration": 0.060000000000002274,
          "durationTicks": 12,
          "midi": 74,
          "name": "D5",
          "ticks": 6780,
          "time": 33.9,
          "velocity": 0.7874015748031497
        },
        {
          "duration": 0.060000000000002274,
          "durationTicks": 12,
          "midi": 70,
          "name": "A#4",
          "ticks": 6780,
          "time": 33.9,
          "velocity": 0.7874015748031497
        },
        {
          "duration": 0.05999999999999517,
          "durationTicks": 12,
          "midi": 72,
          "name": "C5",
          "ticks": 6792,
          "time": 33.96,
          "velocity": 0.7874015748031497
        },
        {
          "duration": 0.05999999999999517,
          "durationTicks": 12,
          "midi": 69,
          "name": "A4",
          "ticks": 6792,
          "time": 33.96,
          "velocity": 0.7874015748031497
        },
        {
          "duration": 0.240000000000002,
          "durationTicks": 48,
          "midi": 67,
          "name": "G4",
          "ticks": 6816,
          "time": 34.08,
          "velocity": 0.7874015748031497
        },
        {
          "duration": 0.240000000000002,
          "durationTicks": 48,
          "midi": 70,
          "name": "A#4",
          "ticks": 6816,
          "time": 34.08,
          "velocity": 0.7874015748031497
        },
        {
          "duration": 0.240000000000002,
          "durationTicks": 48,
          "midi": 69,
          "name": "A4",
          "ticks": 6864,
          "time": 34.32,
          "velocity": 0.7874015748031497
        },
        {
          "duration": 0.240000000000002,
          "durationTicks": 48,
          "midi": 72,
          "name": "C5",
          "ticks": 6864,
          "time": 34.32,
          "velocity": 0.7874015748031497
        },
        {
          "duration": 0.5999999999999943,
          "durationTicks": 120,
          "midi": 77,
          "name": "F5",
          "ticks": 6912,
          "time": 34.56,
          "velocity": 0.7874015748031497
        },
        {
          "duration": 0.5999999999999943,
          "durationTicks": 120,
          "midi": 70,
          "name": "A#4",
          "ticks": 6912,
          "time": 34.56,
          "velocity": 0.7874015748031497
        },
        {
          "duration": 0.5999999999999943,
          "durationTicks": 120,
          "midi": 74,
          "name": "D5",
          "ticks": 6912,
          "time": 34.56,
          "velocity": 0.7874015748031497
        },
        {
          "duration": 0.060000000000002274,
          "durationTicks": 12,
          "midi": 79,
          "name": "G5",
          "ticks": 7032,
          "time": 35.16,
          "velocity": 0.7874015748031497
        },
        {
          "duration": 0.060000000000002274,
          "durationTicks": 12,
          "midi": 80,
          "name": "G#5",
          "ticks": 7044,
          "time": 35.22,
          "velocity": 0.7874015748031497
        },
        {
          "duration": 0.1599999999999966,
          "durationTicks": 32,
          "midi": 81,
          "name": "A5",
          "ticks": 7056,
          "time": 35.28,
          "velocity": 0.7874015748031497
        },
        {
          "duration": 0.1599999999999966,
          "durationTicks": 32,
          "midi": 77,
          "name": "F5",
          "ticks": 7056,
          "time": 35.28,
          "velocity": 0.7874015748031497
        },
        {
          "duration": 0.1599999999999966,
          "durationTicks": 32,
          "midi": 74,
          "name": "D5",
          "ticks": 7056,
          "time": 35.28,
          "velocity": 0.7874015748031497
        },
        {
          "duration": 0.6000000000000014,
          "durationTicks": 120,
          "midi": 77,
          "name": "F5",
          "ticks": 7104,
          "time": 35.519999999999996,
          "velocity": 0.7874015748031497
        },
        {
          "duration": 0.6000000000000014,
          "durationTicks": 120,
          "midi": 70,
          "name": "A#4",
          "ticks": 7104,
          "time": 35.519999999999996,
          "velocity": 0.7874015748031497
        },
        {
          "duration": 0.6000000000000014,
          "durationTicks": 120,
          "midi": 74,
          "name": "D5",
          "ticks": 7104,
          "time": 35.519999999999996,
          "velocity": 0.7874015748031497
        },
        {
          "duration": 0.060000000000002274,
          "durationTicks": 12,
          "midi": 77,
          "name": "F5",
          "ticks": 7224,
          "time": 36.12,
          "velocity": 0.7874015748031497
        },
        {
          "duration": 0.060000000000002274,
          "durationTicks": 12,
          "midi": 82,
          "name": "A#5",
          "ticks": 7236,
          "time": 36.18,
          "velocity": 0.7874015748031497
        },
        {
          "duration": 0.1599999999999966,
          "durationTicks": 32,
          "midi": 81,
          "name": "A5",
          "ticks": 7248,
          "time": 36.24,
          "velocity": 0.7874015748031497
        },
        {
          "duration": 0.1599999999999966,
          "durationTicks": 32,
          "midi": 77,
          "name": "F5",
          "ticks": 7248,
          "time": 36.24,
          "velocity": 0.7874015748031497
        },
        {
          "duration": 0.1599999999999966,
          "durationTicks": 32,
          "midi": 74,
          "name": "D5",
          "ticks": 7248,
          "time": 36.24,
          "velocity": 0.7874015748031497
        },
        {
          "duration": 0.7199999999999989,
          "durationTicks": 144,
          "midi": 77,
          "name": "F5",
          "ticks": 7296,
          "time": 36.48,
          "velocity": 0.7874015748031497
        },
        {
          "duration": 0.7199999999999989,
          "durationTicks": 144,
          "midi": 74,
          "name": "D5",
          "ticks": 7296,
          "time": 36.48,
          "velocity": 0.7874015748031497
        },
        {
          "duration": 0.7199999999999989,
          "durationTicks": 144,
          "midi": 70,
          "name": "A#4",
          "ticks": 7296,
          "time": 36.48,
          "velocity": 0.7874015748031497
        },
        {
          "duration": 0.1600000000000037,
          "durationTicks": 32,
          "midi": 74,
          "name": "D5",
          "ticks": 7440,
          "time": 37.199999999999996,
          "velocity": 0.7874015748031497
        },
        {
          "duration": 0.1600000000000037,
          "durationTicks": 32,
          "midi": 77,
          "name": "F5",
          "ticks": 7440,
          "time": 37.199999999999996,
          "velocity": 0.7874015748031497
        },
        {
          "duration": 0.1600000000000037,
          "durationTicks": 32,
          "midi": 81,
          "name": "A5",
          "ticks": 7440,
          "time": 37.199999999999996,
          "velocity": 0.7874015748031497
        },
        {
          "duration": 0.11999999999999744,
          "durationTicks": 24,
          "midi": 70,
          "name": "A#4",
          "ticks": 7488,
          "time": 37.44,
          "velocity": 0.7874015748031497
        },
        {
          "duration": 0.11999999999999744,
          "durationTicks": 24,
          "midi": 74,
          "name": "D5",
          "ticks": 7488,
          "time": 37.44,
          "velocity": 0.7874015748031497
        },
        {
          "duration": 0.060000000000002274,
          "durationTicks": 12,
          "midi": 69,
          "name": "A4",
          "ticks": 7536,
          "time": 37.68,
          "velocity": 0.7874015748031497
        },
        {
          "duration": 0.060000000000002274,
          "durationTicks": 12,
          "midi": 72,
          "name": "C5",
          "ticks": 7536,
          "time": 37.68,
          "velocity": 0.7874015748031497
        },
        {
          "duration": 0.05999999999999517,
          "durationTicks": 12,
          "midi": 70,
          "name": "A#4",
          "ticks": 7548,
          "time": 37.74,
          "velocity": 0.7874015748031497
        },
        {
          "duration": 0.05999999999999517,
          "durationTicks": 12,
          "midi": 74,
          "name": "D5",
          "ticks": 7548,
          "time": 37.74,
          "velocity": 0.7874015748031497
        },
        {
          "duration": 0.060000000000002274,
          "durationTicks": 12,
          "midi": 72,
          "name": "C5",
          "ticks": 7560,
          "time": 37.8,
          "velocity": 0.7874015748031497
        },
        {
          "duration": 0.060000000000002274,
          "durationTicks": 12,
          "midi": 69,
          "name": "A4",
          "ticks": 7560,
          "time": 37.8,
          "velocity": 0.7874015748031497
        },
        {
          "duration": 0.23999999999999488,
          "durationTicks": 48,
          "midi": 67,
          "name": "G4",
          "ticks": 7584,
          "time": 37.92,
          "velocity": 0.7874015748031497
        },
        {
          "duration": 0.23999999999999488,
          "durationTicks": 48,
          "midi": 70,
          "name": "A#4",
          "ticks": 7584,
          "time": 37.92,
          "velocity": 0.7874015748031497
        },
        {
          "duration": 0.240000000000002,
          "durationTicks": 48,
          "midi": 69,
          "name": "A4",
          "ticks": 7632,
          "time": 38.16,
          "velocity": 0.7874015748031497
        },
        {
          "duration": 0.240000000000002,
          "durationTicks": 48,
          "midi": 72,
          "name": "C5",
          "ticks": 7632,
          "time": 38.16,
          "velocity": 0.7874015748031497
        },
        {
          "duration": 0.7199999999999989,
          "durationTicks": 144,
          "midi": 74,
          "name": "D5",
          "ticks": 7680,
          "time": 38.4,
          "velocity": 0.7874015748031497
        },
        {
          "duration": 0.7199999999999989,
          "durationTicks": 144,
          "midi": 77,
          "name": "F5",
          "ticks": 7680,
          "time": 38.4,
          "velocity": 0.7874015748031497
        },
        {
          "duration": 0.7199999999999989,
          "durationTicks": 144,
          "midi": 70,
          "name": "A#4",
          "ticks": 7680,
          "time": 38.4,
          "velocity": 0.7874015748031497
        },
        {
          "duration": 0.1599999999999966,
          "durationTicks": 32,
          "midi": 74,
          "name": "D5",
          "ticks": 7824,
          "time": 39.12,
          "velocity": 0.7874015748031497
        },
        {
          "duration": 0.1599999999999966,
          "durationTicks": 32,
          "midi": 77,
          "name": "F5",
          "ticks": 7824,
          "time": 39.12,
          "velocity": 0.7874015748031497
        },
        {
          "duration": 0.1599999999999966,
          "durationTicks": 32,
          "midi": 81,
          "name": "A5",
          "ticks": 7824,
          "time": 39.12,
          "velocity": 0.7874015748031497
        },
        {
          "duration": 0.7199999999999989,
          "durationTicks": 144,
          "midi": 77,
          "name": "F5",
          "ticks": 7872,
          "time": 39.36,
          "velocity": 0.7874015748031497
        },
        {
          "duration": 0.7199999999999989,
          "durationTicks": 144,
          "midi": 74,
          "name": "D5",
          "ticks": 7872,
          "time": 39.36,
          "velocity": 0.7874015748031497
        },
        {
          "duration": 0.7199999999999989,
          "durationTicks": 144,
          "midi": 70,
          "name": "A#4",
          "ticks": 7872,
          "time": 39.36,
          "velocity": 0.7874015748031497
        },
        {
          "duration": 0.1599999999999966,
          "durationTicks": 32,
          "midi": 81,
          "name": "A5",
          "ticks": 8016,
          "time": 40.08,
          "velocity": 0.7874015748031497
        },
        {
          "duration": 0.1599999999999966,
          "durationTicks": 32,
          "midi": 77,
          "name": "F5",
          "ticks": 8016,
          "time": 40.08,
          "velocity": 0.7874015748031497
        },
        {
          "duration": 0.1599999999999966,
          "durationTicks": 32,
          "midi": 74,
          "name": "D5",
          "ticks": 8016,
          "time": 40.08,
          "velocity": 0.7874015748031497
        },
        {
          "duration": 0.7199999999999989,
          "durationTicks": 144,
          "midi": 74,
          "name": "D5",
          "ticks": 8064,
          "time": 40.32,
          "velocity": 0.7874015748031497
        },
        {
          "duration": 0.7199999999999989,
          "durationTicks": 144,
          "midi": 77,
          "name": "F5",
          "ticks": 8064,
          "time": 40.32,
          "velocity": 0.7874015748031497
        },
        {
          "duration": 0.7199999999999989,
          "durationTicks": 144,
          "midi": 70,
          "name": "A#4",
          "ticks": 8064,
          "time": 40.32,
          "velocity": 0.7874015748031497
        },
        {
          "duration": 0.1599999999999966,
          "durationTicks": 32,
          "midi": 81,
          "name": "A5",
          "ticks": 8208,
          "time": 41.04,
          "velocity": 0.7874015748031497
        },
        {
          "duration": 0.1599999999999966,
          "durationTicks": 32,
          "midi": 77,
          "name": "F5",
          "ticks": 8208,
          "time": 41.04,
          "velocity": 0.7874015748031497
        },
        {
          "duration": 0.1599999999999966,
          "durationTicks": 32,
          "midi": 74,
          "name": "D5",
          "ticks": 8208,
          "time": 41.04,
          "velocity": 0.7874015748031497
        },
        {
          "duration": 0.11999999999999744,
          "durationTicks": 24,
          "midi": 70,
          "name": "A#4",
          "ticks": 8256,
          "time": 41.28,
          "velocity": 0.7874015748031497
        },
        {
          "duration": 0.11999999999999744,
          "durationTicks": 24,
          "midi": 74,
          "name": "D5",
          "ticks": 8256,
          "time": 41.28,
          "velocity": 0.7874015748031497
        },
        {
          "duration": 0.060000000000002274,
          "durationTicks": 12,
          "midi": 72,
          "name": "C5",
          "ticks": 8304,
          "time": 41.519999999999996,
          "velocity": 0.7874015748031497
        },
        {
          "duration": 0.060000000000002274,
          "durationTicks": 12,
          "midi": 69,
          "name": "A4",
          "ticks": 8304,
          "time": 41.519999999999996,
          "velocity": 0.7874015748031497
        },
        {
          "duration": 0.060000000000002274,
          "durationTicks": 12,
          "midi": 74,
          "name": "D5",
          "ticks": 8316,
          "time": 41.58,
          "velocity": 0.7874015748031497
        },
        {
          "duration": 0.060000000000002274,
          "durationTicks": 12,
          "midi": 70,
          "name": "A#4",
          "ticks": 8316,
          "time": 41.58,
          "velocity": 0.7874015748031497
        },
        {
          "duration": 0.05999999999999517,
          "durationTicks": 12,
          "midi": 69,
          "name": "A4",
          "ticks": 8328,
          "time": 41.64,
          "velocity": 0.7874015748031497
        },
        {
          "duration": 0.05999999999999517,
          "durationTicks": 12,
          "midi": 72,
          "name": "C5",
          "ticks": 8328,
          "time": 41.64,
          "velocity": 0.7874015748031497
        },
        {
          "duration": 0.240000000000002,
          "durationTicks": 48,
          "midi": 70,
          "name": "A#4",
          "ticks": 8352,
          "time": 41.76,
          "velocity": 0.7874015748031497
        },
        {
          "duration": 0.240000000000002,
          "durationTicks": 48,
          "midi": 67,
          "name": "G4",
          "ticks": 8352,
          "time": 41.76,
          "velocity": 0.7874015748031497
        },
        {
          "duration": 0.23999999999999488,
          "durationTicks": 48,
          "midi": 72,
          "name": "C5",
          "ticks": 8400,
          "time": 42,
          "velocity": 0.7874015748031497
        },
        {
          "duration": 0.23999999999999488,
          "durationTicks": 48,
          "midi": 69,
          "name": "A4",
          "ticks": 8400,
          "time": 42,
          "velocity": 0.7874015748031497
        },
        {
          "duration": 0.720000000000006,
          "durationTicks": 144,
          "midi": 77,
          "name": "F5",
          "ticks": 8448,
          "time": 42.239999999999995,
          "velocity": 0.7874015748031497
        },
        {
          "duration": 0.720000000000006,
          "durationTicks": 144,
          "midi": 74,
          "name": "D5",
          "ticks": 8448,
          "time": 42.239999999999995,
          "velocity": 0.7874015748031497
        },
        {
          "duration": 0.720000000000006,
          "durationTicks": 144,
          "midi": 70,
          "name": "A#4",
          "ticks": 8448,
          "time": 42.239999999999995,
          "velocity": 0.7874015748031497
        },
        {
          "duration": 0.1599999999999966,
          "durationTicks": 32,
          "midi": 74,
          "name": "D5",
          "ticks": 8592,
          "time": 42.96,
          "velocity": 0.7874015748031497
        },
        {
          "duration": 0.1599999999999966,
          "durationTicks": 32,
          "midi": 77,
          "name": "F5",
          "ticks": 8592,
          "time": 42.96,
          "velocity": 0.7874015748031497
        },
        {
          "duration": 0.1599999999999966,
          "durationTicks": 32,
          "midi": 81,
          "name": "A5",
          "ticks": 8592,
          "time": 42.96,
          "velocity": 0.7874015748031497
        },
        {
          "duration": 0.720000000000006,
          "durationTicks": 144,
          "midi": 70,
          "name": "A#4",
          "ticks": 8640,
          "time": 43.199999999999996,
          "velocity": 0.7874015748031497
        },
        {
          "duration": 0.720000000000006,
          "durationTicks": 144,
          "midi": 74,
          "name": "D5",
          "ticks": 8640,
          "time": 43.199999999999996,
          "velocity": 0.7874015748031497
        },
        {
          "duration": 0.720000000000006,
          "durationTicks": 144,
          "midi": 77,
          "name": "F5",
          "ticks": 8640,
          "time": 43.199999999999996,
          "velocity": 0.7874015748031497
        },
        {
          "duration": 0.1599999999999966,
          "durationTicks": 32,
          "midi": 74,
          "name": "D5",
          "ticks": 8784,
          "time": 43.92,
          "velocity": 0.7874015748031497
        },
        {
          "duration": 0.1599999999999966,
          "durationTicks": 32,
          "midi": 77,
          "name": "F5",
          "ticks": 8784,
          "time": 43.92,
          "velocity": 0.7874015748031497
        },
        {
          "duration": 0.1599999999999966,
          "durationTicks": 32,
          "midi": 81,
          "name": "A5",
          "ticks": 8784,
          "time": 43.92,
          "velocity": 0.7874015748031497
        },
        {
          "duration": 0.7199999999999989,
          "durationTicks": 144,
          "midi": 77,
          "name": "F5",
          "ticks": 8832,
          "time": 44.16,
          "velocity": 0.7874015748031497
        },
        {
          "duration": 0.7199999999999989,
          "durationTicks": 144,
          "midi": 74,
          "name": "D5",
          "ticks": 8832,
          "time": 44.16,
          "velocity": 0.7874015748031497
        },
        {
          "duration": 0.7199999999999989,
          "durationTicks": 144,
          "midi": 70,
          "name": "A#4",
          "ticks": 8832,
          "time": 44.16,
          "velocity": 0.7874015748031497
        },
        {
          "duration": 0.1600000000000037,
          "durationTicks": 32,
          "midi": 81,
          "name": "A5",
          "ticks": 8976,
          "time": 44.879999999999995,
          "velocity": 0.7874015748031497
        },
        {
          "duration": 0.1600000000000037,
          "durationTicks": 32,
          "midi": 77,
          "name": "F5",
          "ticks": 8976,
          "time": 44.879999999999995,
          "velocity": 0.7874015748031497
        },
        {
          "duration": 0.1600000000000037,
          "durationTicks": 32,
          "midi": 74,
          "name": "D5",
          "ticks": 8976,
          "time": 44.879999999999995,
          "velocity": 0.7874015748031497
        },
        {
          "duration": 0.11999999999999744,
          "durationTicks": 24,
          "midi": 74,
          "name": "D5",
          "ticks": 9024,
          "time": 45.12,
          "velocity": 0.7874015748031497
        },
        {
          "duration": 0.11999999999999744,
          "durationTicks": 24,
          "midi": 70,
          "name": "A#4",
          "ticks": 9024,
          "time": 45.12,
          "velocity": 0.7874015748031497
        },
        {
          "duration": 0.060000000000002274,
          "durationTicks": 12,
          "midi": 72,
          "name": "C5",
          "ticks": 9072,
          "time": 45.36,
          "velocity": 0.7874015748031497
        },
        {
          "duration": 0.060000000000002274,
          "durationTicks": 12,
          "midi": 69,
          "name": "A4",
          "ticks": 9072,
          "time": 45.36,
          "velocity": 0.7874015748031497
        },
        {
          "duration": 0.05999999999999517,
          "durationTicks": 12,
          "midi": 70,
          "name": "A#4",
          "ticks": 9084,
          "time": 45.42,
          "velocity": 0.7874015748031497
        },
        {
          "duration": 0.05999999999999517,
          "durationTicks": 12,
          "midi": 74,
          "name": "D5",
          "ticks": 9084,
          "time": 45.42,
          "velocity": 0.7874015748031497
        },
        {
          "duration": 0.060000000000002274,
          "durationTicks": 12,
          "midi": 72,
          "name": "C5",
          "ticks": 9096,
          "time": 45.48,
          "velocity": 0.7874015748031497
        },
        {
          "duration": 0.060000000000002274,
          "durationTicks": 12,
          "midi": 69,
          "name": "A4",
          "ticks": 9096,
          "time": 45.48,
          "velocity": 0.7874015748031497
        },
        {
          "duration": 0.23999999999999488,
          "durationTicks": 48,
          "midi": 70,
          "name": "A#4",
          "ticks": 9120,
          "time": 45.6,
          "velocity": 0.7874015748031497
        },
        {
          "duration": 0.23999999999999488,
          "durationTicks": 48,
          "midi": 67,
          "name": "G4",
          "ticks": 9120,
          "time": 45.6,
          "velocity": 0.7874015748031497
        },
        {
          "duration": 0.240000000000002,
          "durationTicks": 48,
          "midi": 72,
          "name": "C5",
          "ticks": 9168,
          "time": 45.839999999999996,
          "velocity": 0.7874015748031497
        },
        {
          "duration": 0.240000000000002,
          "durationTicks": 48,
          "midi": 69,
          "name": "A4",
          "ticks": 9168,
          "time": 45.839999999999996,
          "velocity": 0.7874015748031497
        },
        {
          "duration": 0.9600000000000009,
          "durationTicks": 192,
          "midi": 75,
          "name": "D#5",
          "ticks": 9216,
          "time": 46.08,
          "velocity": 1
        },
        {
          "duration": 0.9600000000000009,
          "durationTicks": 192,
          "midi": 72,
          "name": "C5",
          "ticks": 9216,
          "time": 46.08,
          "velocity": 1
        },
        {
          "duration": 0.9600000000000009,
          "durationTicks": 192,
          "midi": 82,
          "name": "A#5",
          "ticks": 9216,
          "time": 46.08,
          "velocity": 1
        },
        {
          "duration": 0.11999999999999744,
          "durationTicks": 24,
          "midi": 82,
          "name": "A#5",
          "ticks": 9408,
          "time": 47.04,
          "velocity": 1
        },
        {
          "duration": 0.11999999999999744,
          "durationTicks": 24,
          "midi": 77,
          "name": "F5",
          "ticks": 9408,
          "time": 47.04,
          "velocity": 1
        },
        {
          "duration": 0.05999999999999517,
          "durationTicks": 12,
          "midi": 81,
          "name": "A5",
          "ticks": 9456,
          "time": 47.28,
          "velocity": 1
        },
        {
          "duration": 0.05999999999999517,
          "durationTicks": 12,
          "midi": 77,
          "name": "F5",
          "ticks": 9456,
          "time": 47.28,
          "velocity": 1
        },
        {
          "duration": 0.060000000000002274,
          "durationTicks": 12,
          "midi": 79,
          "name": "G5",
          "ticks": 9468,
          "time": 47.339999999999996,
          "velocity": 1
        },
        {
          "duration": 0.060000000000002274,
          "durationTicks": 12,
          "midi": 82,
          "name": "A#5",
          "ticks": 9468,
          "time": 47.339999999999996,
          "velocity": 1
        },
        {
          "duration": 0.060000000000002274,
          "durationTicks": 12,
          "midi": 81,
          "name": "A5",
          "ticks": 9480,
          "time": 47.4,
          "velocity": 1
        },
        {
          "duration": 0.060000000000002274,
          "durationTicks": 12,
          "midi": 77,
          "name": "F5",
          "ticks": 9480,
          "time": 47.4,
          "velocity": 1
        },
        {
          "duration": 0.240000000000002,
          "durationTicks": 48,
          "midi": 79,
          "name": "G5",
          "ticks": 9504,
          "time": 47.519999999999996,
          "velocity": 1
        },
        {
          "duration": 0.240000000000002,
          "durationTicks": 48,
          "midi": 75,
          "name": "D#5",
          "ticks": 9504,
          "time": 47.519999999999996,
          "velocity": 1
        },
        {
          "duration": 0.240000000000002,
          "durationTicks": 48,
          "midi": 77,
          "name": "F5",
          "ticks": 9552,
          "time": 47.76,
          "velocity": 1
        },
        {
          "duration": 0.240000000000002,
          "durationTicks": 48,
          "midi": 81,
          "name": "A5",
          "ticks": 9552,
          "time": 47.76,
          "velocity": 1
        },
        {
          "duration": 0.9600000000000009,
          "durationTicks": 192,
          "midi": 77,
          "name": "F5",
          "ticks": 9600,
          "time": 48,
          "velocity": 1
        },
        {
          "duration": 0.9600000000000009,
          "durationTicks": 192,
          "midi": 72,
          "name": "C5",
          "ticks": 9600,
          "time": 48,
          "velocity": 1
        },
        {
          "duration": 0.9600000000000009,
          "durationTicks": 192,
          "midi": 82,
          "name": "A#5",
          "ticks": 9600,
          "time": 48,
          "velocity": 1
        },
        {
          "duration": 0.11999999999999744,
          "durationTicks": 24,
          "midi": 79,
          "name": "G5",
          "ticks": 9792,
          "time": 48.96,
          "velocity": 1
        },
        {
          "duration": 0.11999999999999744,
          "durationTicks": 24,
          "midi": 82,
          "name": "A#5",
          "ticks": 9792,
          "time": 48.96,
          "velocity": 1
        },
        {
          "duration": 0.060000000000002274,
          "durationTicks": 12,
          "midi": 77,
          "name": "F5",
          "ticks": 9840,
          "time": 49.199999999999996,
          "velocity": 1
        },
        {
          "duration": 0.060000000000002274,
          "durationTicks": 12,
          "midi": 81,
          "name": "A5",
          "ticks": 9840,
          "time": 49.199999999999996,
          "velocity": 1
        },
        {
          "duration": 0.060000000000002274,
          "durationTicks": 12,
          "midi": 82,
          "name": "A#5",
          "ticks": 9852,
          "time": 49.26,
          "velocity": 1
        },
        {
          "duration": 0.060000000000002274,
          "durationTicks": 12,
          "midi": 79,
          "name": "G5",
          "ticks": 9852,
          "time": 49.26,
          "velocity": 1
        },
        {
          "duration": 0.05999999999999517,
          "durationTicks": 12,
          "midi": 77,
          "name": "F5",
          "ticks": 9864,
          "time": 49.32,
          "velocity": 1
        },
        {
          "duration": 0.05999999999999517,
          "durationTicks": 12,
          "midi": 81,
          "name": "A5",
          "ticks": 9864,
          "time": 49.32,
          "velocity": 1
        },
        {
          "duration": 0.240000000000002,
          "durationTicks": 48,
          "midi": 79,
          "name": "G5",
          "ticks": 9888,
          "time": 49.44,
          "velocity": 1
        },
        {
          "duration": 0.240000000000002,
          "durationTicks": 48,
          "midi": 74,
          "name": "D5",
          "ticks": 9888,
          "time": 49.44,
          "velocity": 1
        },
        {
          "duration": 0.240000000000002,
          "durationTicks": 48,
          "midi": 77,
          "name": "F5",
          "ticks": 9936,
          "time": 49.68,
          "velocity": 1
        },
        {
          "duration": 0.240000000000002,
          "durationTicks": 48,
          "midi": 81,
          "name": "A5",
          "ticks": 9936,
          "time": 49.68,
          "velocity": 1
        },
        {
          "duration": 0.7199999999999989,
          "durationTicks": 144,
          "midi": 74,
          "name": "D5",
          "ticks": 9984,
          "time": 49.92,
          "velocity": 1
        },
        {
          "duration": 0.7199999999999989,
          "durationTicks": 144,
          "midi": 82,
          "name": "A#5",
          "ticks": 9984,
          "time": 49.92,
          "velocity": 1
        },
        {
          "duration": 0.7199999999999989,
          "durationTicks": 144,
          "midi": 77,
          "name": "F5",
          "ticks": 9984,
          "time": 49.92,
          "velocity": 1
        },
        {
          "duration": 0.23999999999999488,
          "durationTicks": 48,
          "midi": 81,
          "name": "A5",
          "ticks": 10128,
          "time": 50.64,
          "velocity": 1
        },
        {
          "duration": 0.6600000000000037,
          "durationTicks": 132,
          "midi": 77,
          "name": "F5",
          "ticks": 10176,
          "time": 50.879999999999995,
          "velocity": 1
        },
        {
          "duration": 0.6600000000000037,
          "durationTicks": 132,
          "midi": 72,
          "name": "C5",
          "ticks": 10176,
          "time": 50.879999999999995,
          "velocity": 1
        },
        {
          "duration": 0.060000000000002274,
          "durationTicks": 12,
          "midi": 74,
          "name": "D5",
          "ticks": 10308,
          "time": 51.54,
          "velocity": 1
        },
        {
          "duration": 0.23999999999999488,
          "durationTicks": 48,
          "midi": 75,
          "name": "D#5",
          "ticks": 10320,
          "time": 51.6,
          "velocity": 1
        },
        {
          "duration": 0.23999999999999488,
          "durationTicks": 48,
          "midi": 70,
          "name": "A#4",
          "ticks": 10320,
          "time": 51.6,
          "velocity": 1
        },
        {
          "duration": 0.7199999999999989,
          "durationTicks": 144,
          "midi": 67,
          "name": "G4",
          "ticks": 10368,
          "time": 51.839999999999996,
          "velocity": 1
        },
        {
          "duration": 0.7199999999999989,
          "durationTicks": 144,
          "midi": 74,
          "name": "D5",
          "ticks": 10368,
          "time": 51.839999999999996,
          "velocity": 1
        },
        {
          "duration": 0.12000000000000455,
          "durationTicks": 24,
          "midi": 69,
          "name": "A4",
          "ticks": 10512,
          "time": 52.559999999999995,
          "velocity": 1
        },
        {
          "duration": 0.12000000000000455,
          "durationTicks": 24,
          "midi": 72,
          "name": "C5",
          "ticks": 10512,
          "time": 52.559999999999995,
          "velocity": 1
        },
        {
          "duration": 0.11999999999999744,
          "durationTicks": 24,
          "midi": 67,
          "name": "G4",
          "ticks": 10560,
          "time": 52.8,
          "velocity": 1
        },
        {
          "duration": 0.11999999999999744,
          "durationTicks": 24,
          "midi": 70,
          "name": "A#4",
          "ticks": 10560,
          "time": 52.8,
          "velocity": 1
        },
        {
          "duration": 0.11999999999999744,
          "durationTicks": 24,
          "midi": 72,
          "name": "C5",
          "ticks": 10608,
          "time": 53.04,
          "velocity": 1
        },
        {
          "duration": 0.11999999999999744,
          "durationTicks": 24,
          "midi": 69,
          "name": "A4",
          "ticks": 10608,
          "time": 53.04,
          "velocity": 1
        },
        {
          "duration": 0.11999999999999744,
          "durationTicks": 24,
          "midi": 74,
          "name": "D5",
          "ticks": 10656,
          "time": 53.28,
          "velocity": 1
        },
        {
          "duration": 0.11999999999999744,
          "durationTicks": 24,
          "midi": 70,
          "name": "A#4",
          "ticks": 10656,
          "time": 53.28,
          "velocity": 1
        },
        {
          "duration": 0.12000000000000455,
          "durationTicks": 24,
          "midi": 72,
          "name": "C5",
          "ticks": 10704,
          "time": 53.519999999999996,
          "velocity": 1
        },
        {
          "duration": 0.12000000000000455,
          "durationTicks": 24,
          "midi": 75,
          "name": "D#5",
          "ticks": 10704,
          "time": 53.519999999999996,
          "velocity": 1
        },
        {
          "duration": 0.11999999999999744,
          "durationTicks": 24,
          "midi": 74,
          "name": "D5",
          "ticks": 10752,
          "time": 53.76,
          "velocity": 1
        },
        {
          "duration": 0.11999999999999744,
          "durationTicks": 24,
          "midi": 77,
          "name": "F5",
          "ticks": 10752,
          "time": 53.76,
          "velocity": 1
        },
        {
          "duration": 0.11999999999999744,
          "durationTicks": 24,
          "midi": 77,
          "name": "F5",
          "ticks": 10800,
          "time": 54,
          "velocity": 1
        },
        {
          "duration": 0.11999999999999744,
          "durationTicks": 24,
          "midi": 74,
          "name": "D5",
          "ticks": 10800,
          "time": 54,
          "velocity": 1
        },
        {
          "duration": 0.12000000000000455,
          "durationTicks": 24,
          "midi": 77,
          "name": "F5",
          "ticks": 10848,
          "time": 54.239999999999995,
          "velocity": 1
        },
        {
          "duration": 0.12000000000000455,
          "durationTicks": 24,
          "midi": 74,
          "name": "D5",
          "ticks": 10848,
          "time": 54.239999999999995,
          "velocity": 1
        },
        {
          "duration": 0.12000000000000455,
          "durationTicks": 24,
          "midi": 74,
          "name": "D5",
          "ticks": 10896,
          "time": 54.48,
          "velocity": 1
        },
        {
          "duration": 0.12000000000000455,
          "durationTicks": 24,
          "midi": 77,
          "name": "F5",
          "ticks": 10896,
          "time": 54.48,
          "velocity": 1
        },
        {
          "duration": 0.4799999999999969,
          "durationTicks": 96,
          "midi": 77,
          "name": "F5",
          "ticks": 10944,
          "time": 54.72,
          "velocity": 1
        },
        {
          "duration": 0.4799999999999969,
          "durationTicks": 96,
          "midi": 74,
          "name": "D5",
          "ticks": 10944,
          "time": 54.72,
          "velocity": 1
        },
        {
          "duration": 0.240000000000002,
          "durationTicks": 48,
          "midi": 67,
          "name": "G4",
          "ticks": 11040,
          "time": 55.199999999999996,
          "velocity": 1
        },
        {
          "duration": 0.240000000000002,
          "durationTicks": 48,
          "midi": 72,
          "name": "C5",
          "ticks": 11040,
          "time": 55.199999999999996,
          "velocity": 1
        },
        {
          "duration": 0.240000000000002,
          "durationTicks": 48,
          "midi": 74,
          "name": "D5",
          "ticks": 11088,
          "time": 55.44,
          "velocity": 1
        },
        {
          "duration": 0.240000000000002,
          "durationTicks": 48,
          "midi": 70,
          "name": "A#4",
          "ticks": 11088,
          "time": 55.44,
          "velocity": 1
        },
        {
          "duration": 0.11999999999999744,
          "durationTicks": 24,
          "midi": 67,
          "name": "G4",
          "ticks": 11136,
          "time": 55.68,
          "velocity": 1
        },
        {
          "duration": 0.11999999999999744,
          "durationTicks": 24,
          "midi": 72,
          "name": "C5",
          "ticks": 11136,
          "time": 55.68,
          "velocity": 1
        },
        {
          "duration": 0.12000000000000455,
          "durationTicks": 24,
          "midi": 67,
          "name": "G4",
          "ticks": 11184,
          "time": 55.919999999999995,
          "velocity": 1
        },
        {
          "duration": 0.12000000000000455,
          "durationTicks": 24,
          "midi": 72,
          "name": "C5",
          "ticks": 11184,
          "time": 55.919999999999995,
          "velocity": 1
        },
        {
          "duration": 0.12000000000000455,
          "durationTicks": 24,
          "midi": 67,
          "name": "G4",
          "ticks": 11232,
          "time": 56.16,
          "velocity": 1
        },
        {
          "duration": 0.12000000000000455,
          "durationTicks": 24,
          "midi": 72,
          "name": "C5",
          "ticks": 11232,
          "time": 56.16,
          "velocity": 1
        },
        {
          "duration": 0.11999999999999744,
          "durationTicks": 24,
          "midi": 72,
          "name": "C5",
          "ticks": 11280,
          "time": 56.4,
          "velocity": 1
        },
        {
          "duration": 0.11999999999999744,
          "durationTicks": 24,
          "midi": 67,
          "name": "G4",
          "ticks": 11280,
          "time": 56.4,
          "velocity": 1
        },
        {
          "duration": 0.4199999999999946,
          "durationTicks": 84,
          "midi": 72,
          "name": "C5",
          "ticks": 11328,
          "time": 56.64,
          "velocity": 1
        },
        {
          "duration": 0.4199999999999946,
          "durationTicks": 84,
          "midi": 67,
          "name": "G4",
          "ticks": 11328,
          "time": 56.64,
          "velocity": 1
        },
        {
          "duration": 0.060000000000002274,
          "durationTicks": 12,
          "midi": 73,
          "name": "C#5",
          "ticks": 11412,
          "time": 57.059999999999995,
          "velocity": 1
        },
        {
          "duration": 0.240000000000002,
          "durationTicks": 48,
          "midi": 70,
          "name": "A#4",
          "ticks": 11424,
          "time": 57.12,
          "velocity": 1
        },
        {
          "duration": 0.240000000000002,
          "durationTicks": 48,
          "midi": 74,
          "name": "D5",
          "ticks": 11424,
          "time": 57.12,
          "velocity": 1
        },
        {
          "duration": 0.23999999999999488,
          "durationTicks": 48,
          "midi": 72,
          "name": "C5",
          "ticks": 11472,
          "time": 57.36,
          "velocity": 1
        },
        {
          "duration": 0.23999999999999488,
          "durationTicks": 48,
          "midi": 69,
          "name": "A4",
          "ticks": 11472,
          "time": 57.36,
          "velocity": 1
        },
        {
          "duration": 0.720000000000006,
          "durationTicks": 144,
          "midi": 65,
          "name": "F4",
          "ticks": 11520,
          "time": 57.599999999999994,
          "velocity": 1
        },
        {
          "duration": 0.720000000000006,
          "durationTicks": 144,
          "midi": 70,
          "name": "A#4",
          "ticks": 11520,
          "time": 57.599999999999994,
          "velocity": 1
        },
        {
          "duration": 0.23999999999999488,
          "durationTicks": 48,
          "midi": 58,
          "name": "A#3",
          "ticks": 11664,
          "time": 58.32,
          "velocity": 1
        },
        {
          "duration": 0.23999999999999488,
          "durationTicks": 48,
          "midi": 65,
          "name": "F4",
          "ticks": 11664,
          "time": 58.32,
          "velocity": 1
        },
        {
          "duration": 0.480000000000004,
          "durationTicks": 96,
          "midi": 62,
          "name": "D4",
          "ticks": 11712,
          "time": 58.559999999999995,
          "velocity": 1
        },
        {
          "duration": 0.240000000000002,
          "durationTicks": 48,
          "midi": 74,
          "name": "D5",
          "ticks": 11712,
          "time": 58.559999999999995,
          "velocity": 1
        },
        {
          "duration": 0.240000000000002,
          "durationTicks": 48,
          "midi": 75,
          "name": "D#5",
          "ticks": 11760,
          "time": 58.8,
          "velocity": 1
        },
        {
          "duration": 0.35999999999999943,
          "durationTicks": 72,
          "midi": 65,
          "name": "F4",
          "ticks": 11808,
          "time": 59.04,
          "velocity": 1
        },
        {
          "duration": 0.35999999999999943,
          "durationTicks": 72,
          "midi": 72,
          "name": "C5",
          "ticks": 11808,
          "time": 59.04,
          "velocity": 1
        },
        {
          "duration": 0.11999999999999744,
          "durationTicks": 24,
          "midi": 63,
          "name": "D#4",
          "ticks": 11880,
          "time": 59.4,
          "velocity": 1
        },
        {
          "duration": 0.11999999999999744,
          "durationTicks": 24,
          "midi": 70,
          "name": "A#4",
          "ticks": 11880,
          "time": 59.4,
          "velocity": 1
        },
        {
          "duration": 1.9200000000000017,
          "durationTicks": 384,
          "midi": 62,
          "name": "D4",
          "ticks": 11904,
          "time": 59.519999999999996,
          "velocity": 1
        },
        {
          "duration": 1.9200000000000017,
          "durationTicks": 384,
          "midi": 70,
          "name": "A#4",
          "ticks": 11904,
          "time": 59.519999999999996,
          "velocity": 1
        },
        {
          "duration": 0.1600000000000108,
          "durationTicks": 32,
          "midi": 77,
          "name": "F5",
          "ticks": 15360,
          "time": 76.8,
          "velocity": 0.7874015748031497
        },
        {
          "duration": 0.1600000000000108,
          "durationTicks": 32,
          "midi": 74,
          "name": "D5",
          "ticks": 15360,
          "time": 76.8,
          "velocity": 0.7874015748031497
        },
        {
          "duration": 0.1600000000000108,
          "durationTicks": 32,
          "midi": 74,
          "name": "D5",
          "ticks": 15408,
          "time": 77.03999999999999,
          "velocity": 0.7874015748031497
        },
        {
          "duration": 0.1600000000000108,
          "durationTicks": 32,
          "midi": 77,
          "name": "F5",
          "ticks": 15408,
          "time": 77.03999999999999,
          "velocity": 0.7874015748031497
        },
        {
          "duration": 0.1599999999999966,
          "durationTicks": 32,
          "midi": 77,
          "name": "F5",
          "ticks": 15456,
          "time": 77.28,
          "velocity": 0.7874015748031497
        },
        {
          "duration": 0.1599999999999966,
          "durationTicks": 32,
          "midi": 72,
          "name": "C5",
          "ticks": 15456,
          "time": 77.28,
          "velocity": 0.7874015748031497
        },
        {
          "duration": 0.1600000000000108,
          "durationTicks": 32,
          "midi": 77,
          "name": "F5",
          "ticks": 15504,
          "time": 77.52,
          "velocity": 0.7874015748031497
        },
        {
          "duration": 0.1600000000000108,
          "durationTicks": 32,
          "midi": 72,
          "name": "C5",
          "ticks": 15504,
          "time": 77.52,
          "velocity": 0.7874015748031497
        },
        {
          "duration": 0.480000000000004,
          "durationTicks": 96,
          "midi": 70,
          "name": "A#4",
          "ticks": 15552,
          "time": 77.75999999999999,
          "velocity": 0.7874015748031497
        },
        {
          "duration": 0.480000000000004,
          "durationTicks": 96,
          "midi": 77,
          "name": "F5",
          "ticks": 15552,
          "time": 77.75999999999999,
          "velocity": 0.7874015748031497
        },
        {
          "duration": 0.480000000000004,
          "durationTicks": 96,
          "midi": 70,
          "name": "A#4",
          "ticks": 15648,
          "time": 78.24,
          "velocity": 0.7874015748031497
        },
        {
          "duration": 0.23999999999999488,
          "durationTicks": 48,
          "midi": 74,
          "name": "D5",
          "ticks": 15696,
          "time": 78.48,
          "velocity": 0.7874015748031497
        },
        {
          "duration": 0.1599999999999966,
          "durationTicks": 32,
          "midi": 69,
          "name": "A4",
          "ticks": 15744,
          "time": 78.72,
          "velocity": 0.7874015748031497
        },
        {
          "duration": 0.1599999999999966,
          "durationTicks": 32,
          "midi": 72,
          "name": "C5",
          "ticks": 15744,
          "time": 78.72,
          "velocity": 0.7874015748031497
        },
        {
          "duration": 0.1600000000000108,
          "durationTicks": 32,
          "midi": 69,
          "name": "A4",
          "ticks": 15792,
          "time": 78.96,
          "velocity": 0.7874015748031497
        },
        {
          "duration": 0.1600000000000108,
          "durationTicks": 32,
          "midi": 72,
          "name": "C5",
          "ticks": 15792,
          "time": 78.96,
          "velocity": 0.7874015748031497
        },
        {
          "duration": 0.1599999999999966,
          "durationTicks": 32,
          "midi": 67,
          "name": "G4",
          "ticks": 15840,
          "time": 79.2,
          "velocity": 0.7874015748031497
        },
        {
          "duration": 0.1599999999999966,
          "durationTicks": 32,
          "midi": 72,
          "name": "C5",
          "ticks": 15840,
          "time": 79.2,
          "velocity": 0.7874015748031497
        },
        {
          "duration": 0.1600000000000108,
          "durationTicks": 32,
          "midi": 67,
          "name": "G4",
          "ticks": 15888,
          "time": 79.44,
          "velocity": 0.7874015748031497
        },
        {
          "duration": 0.1600000000000108,
          "durationTicks": 32,
          "midi": 72,
          "name": "C5",
          "ticks": 15888,
          "time": 79.44,
          "velocity": 0.7874015748031497
        },
        {
          "duration": 0.960000000000008,
          "durationTicks": 192,
          "midi": 65,
          "name": "F4",
          "ticks": 15936,
          "time": 79.67999999999999,
          "velocity": 0.7874015748031497
        },
        {
          "duration": 0.6600000000000108,
          "durationTicks": 132,
          "midi": 72,
          "name": "C5",
          "ticks": 15936,
          "time": 79.67999999999999,
          "velocity": 0.7874015748031497
        },
        {
          "duration": 0.05999999999998806,
          "durationTicks": 12,
          "midi": 73,
          "name": "C#5",
          "ticks": 16068,
          "time": 80.34,
          "velocity": 0.7874015748031497
        },
        {
          "duration": 0.12000000000000455,
          "durationTicks": 24,
          "midi": 74,
          "name": "D5",
          "ticks": 16080,
          "time": 80.39999999999999,
          "velocity": 0.7874015748031497
        },
        {
          "duration": 0.12000000000000455,
          "durationTicks": 24,
          "midi": 72,
          "name": "C5",
          "ticks": 16104,
          "time": 80.52,
          "velocity": 0.7874015748031497
        },
        {
          "duration": 0.1599999999999966,
          "durationTicks": 32,
          "midi": 62,
          "name": "D4",
          "ticks": 16128,
          "time": 80.64,
          "velocity": 0.7874015748031497
        },
        {
          "duration": 0.1599999999999966,
          "durationTicks": 32,
          "midi": 70,
          "name": "A#4",
          "ticks": 16128,
          "time": 80.64,
          "velocity": 0.7874015748031497
        },
        {
          "duration": 0.1600000000000108,
          "durationTicks": 32,
          "midi": 70,
          "name": "A#4",
          "ticks": 16176,
          "time": 80.88,
          "velocity": 0.7874015748031497
        },
        {
          "duration": 0.1600000000000108,
          "durationTicks": 32,
          "midi": 62,
          "name": "D4",
          "ticks": 16176,
          "time": 80.88,
          "velocity": 0.7874015748031497
        },
        {
          "duration": 0.1600000000000108,
          "durationTicks": 32,
          "midi": 70,
          "name": "A#4",
          "ticks": 16224,
          "time": 81.11999999999999,
          "velocity": 0.7874015748031497
        },
        {
          "duration": 0.1600000000000108,
          "durationTicks": 32,
          "midi": 65,
          "name": "F4",
          "ticks": 16224,
          "time": 81.11999999999999,
          "velocity": 0.7874015748031497
        },
        {
          "duration": 0.1599999999999966,
          "durationTicks": 32,
          "midi": 70,
          "name": "A#4",
          "ticks": 16272,
          "time": 81.36,
          "velocity": 0.7874015748031497
        },
        {
          "duration": 0.1599999999999966,
          "durationTicks": 32,
          "midi": 65,
          "name": "F4",
          "ticks": 16272,
          "time": 81.36,
          "velocity": 0.7874015748031497
        },
        {
          "duration": 0.480000000000004,
          "durationTicks": 96,
          "midi": 70,
          "name": "A#4",
          "ticks": 16320,
          "time": 81.6,
          "velocity": 0.7874015748031497
        },
        {
          "duration": 0.960000000000008,
          "durationTicks": 192,
          "midi": 62,
          "name": "D4",
          "ticks": 16320,
          "time": 81.6,
          "velocity": 0.7874015748031497
        },
        {
          "duration": 0.23999999999999488,
          "durationTicks": 48,
          "midi": 81,
          "name": "A5",
          "ticks": 16416,
          "time": 82.08,
          "velocity": 0.7874015748031497
        },
        {
          "duration": 0.2400000000000091,
          "durationTicks": 48,
          "midi": 82,
          "name": "A#5",
          "ticks": 16464,
          "time": 82.32,
          "velocity": 0.7874015748031497
        },
        {
          "duration": 0.7199999999999989,
          "durationTicks": 144,
          "midi": 81,
          "name": "A5",
          "ticks": 16512,
          "time": 82.56,
          "velocity": 0.7874015748031497
        },
        {
          "duration": 0.11999999999999034,
          "durationTicks": 24,
          "midi": 53,
          "name": "F3",
          "ticks": 16512,
          "time": 82.56,
          "velocity": 0.7874015748031497
        },
        {
          "duration": 0.12000000000000455,
          "durationTicks": 24,
          "midi": 57,
          "name": "A3",
          "ticks": 16560,
          "time": 82.8,
          "velocity": 0.7874015748031497
        },
        {
          "duration": 0.12000000000000455,
          "durationTicks": 24,
          "midi": 60,
          "name": "C4",
          "ticks": 16560,
          "time": 82.8,
          "velocity": 0.7874015748031497
        },
        {
          "duration": 0.12000000000000455,
          "durationTicks": 24,
          "midi": 53,
          "name": "F3",
          "ticks": 16608,
          "time": 83.03999999999999,
          "velocity": 0.7874015748031497
        },
        {
          "duration": 0.23999999999999488,
          "durationTicks": 48,
          "midi": 77,
          "name": "F5",
          "ticks": 16656,
          "time": 83.28,
          "velocity": 0.7874015748031497
        },
        {
          "duration": 0.11999999999999034,
          "durationTicks": 24,
          "midi": 57,
          "name": "A3",
          "ticks": 16656,
          "time": 83.28,
          "velocity": 0.7874015748031497
        },
        {
          "duration": 0.11999999999999034,
          "durationTicks": 24,
          "midi": 60,
          "name": "C4",
          "ticks": 16656,
          "time": 83.28,
          "velocity": 0.7874015748031497
        },
        {
          "duration": 0.7199999999999989,
          "durationTicks": 144,
          "midi": 74,
          "name": "D5",
          "ticks": 16704,
          "time": 83.52,
          "velocity": 0.7874015748031497
        },
        {
          "duration": 0.9599999999999937,
          "durationTicks": 192,
          "midi": 65,
          "name": "F4",
          "ticks": 16704,
          "time": 83.52,
          "velocity": 0.7874015748031497
        },
        {
          "duration": 0.12000000000000455,
          "durationTicks": 24,
          "midi": 74,
          "name": "D5",
          "ticks": 16848,
          "time": 84.24,
          "velocity": 0.7874015748031497
        },
        {
          "duration": 0.11999999999999034,
          "durationTicks": 24,
          "midi": 75,
          "name": "D#5",
          "ticks": 16872,
          "time": 84.36,
          "velocity": 0.7874015748031497
        },
        {
          "duration": 0.1600000000000108,
          "durationTicks": 32,
          "midi": 74,
          "name": "D5",
          "ticks": 16896,
          "time": 84.47999999999999,
          "velocity": 0.7874015748031497
        },
        {
          "duration": 0.1600000000000108,
          "durationTicks": 32,
          "midi": 77,
          "name": "F5",
          "ticks": 16896,
          "time": 84.47999999999999,
          "velocity": 0.7874015748031497
        },
        {
          "duration": 0.1599999999999966,
          "durationTicks": 32,
          "midi": 74,
          "name": "D5",
          "ticks": 16944,
          "time": 84.72,
          "velocity": 0.7874015748031497
        },
        {
          "duration": 0.1599999999999966,
          "durationTicks": 32,
          "midi": 77,
          "name": "F5",
          "ticks": 16944,
          "time": 84.72,
          "velocity": 0.7874015748031497
        },
        {
          "duration": 0.1600000000000108,
          "durationTicks": 32,
          "midi": 72,
          "name": "C5",
          "ticks": 16992,
          "time": 84.96,
          "velocity": 0.7874015748031497
        },
        {
          "duration": 0.1600000000000108,
          "durationTicks": 32,
          "midi": 77,
          "name": "F5",
          "ticks": 16992,
          "time": 84.96,
          "velocity": 0.7874015748031497
        },
        {
          "duration": 0.1599999999999966,
          "durationTicks": 32,
          "midi": 72,
          "name": "C5",
          "ticks": 17040,
          "time": 85.2,
          "velocity": 0.7874015748031497
        },
        {
          "duration": 0.1599999999999966,
          "durationTicks": 32,
          "midi": 77,
          "name": "F5",
          "ticks": 17040,
          "time": 85.2,
          "velocity": 0.7874015748031497
        },
        {
          "duration": 0.480000000000004,
          "durationTicks": 96,
          "midi": 70,
          "name": "A#4",
          "ticks": 17088,
          "time": 85.44,
          "velocity": 0.7874015748031497
        },
        {
          "duration": 0.480000000000004,
          "durationTicks": 96,
          "midi": 77,
          "name": "F5",
          "ticks": 17088,
          "time": 85.44,
          "velocity": 0.7874015748031497
        },
        {
          "duration": 0.47999999999998977,
          "durationTicks": 96,
          "midi": 70,
          "name": "A#4",
          "ticks": 17184,
          "time": 85.92,
          "velocity": 0.7874015748031497
        },
        {
          "duration": 0.23999999999999488,
          "durationTicks": 48,
          "midi": 74,
          "name": "D5",
          "ticks": 17232,
          "time": 86.16,
          "velocity": 0.7874015748031497
        },
        {
          "duration": 0.1600000000000108,
          "durationTicks": 32,
          "midi": 65,
          "name": "F4",
          "ticks": 17280,
          "time": 86.39999999999999,
          "velocity": 0.7874015748031497
        },
        {
          "duration": 0.1600000000000108,
          "durationTicks": 32,
          "midi": 72,
          "name": "C5",
          "ticks": 17280,
          "time": 86.39999999999999,
          "velocity": 0.7874015748031497
        },
        {
          "duration": 0.1599999999999966,
          "durationTicks": 32,
          "midi": 69,
          "name": "A4",
          "ticks": 17328,
          "time": 86.64,
          "velocity": 0.7874015748031497
        },
        {
          "duration": 0.1599999999999966,
          "durationTicks": 32,
          "midi": 72,
          "name": "C5",
          "ticks": 17328,
          "time": 86.64,
          "velocity": 0.7874015748031497
        },
        {
          "duration": 0.1600000000000108,
          "durationTicks": 32,
          "midi": 72,
          "name": "C5",
          "ticks": 17376,
          "time": 86.88,
          "velocity": 0.7874015748031497
        },
        {
          "duration": 0.1600000000000108,
          "durationTicks": 32,
          "midi": 67,
          "name": "G4",
          "ticks": 17376,
          "time": 86.88,
          "velocity": 0.7874015748031497
        },
        {
          "duration": 0.1600000000000108,
          "durationTicks": 32,
          "midi": 67,
          "name": "G4",
          "ticks": 17424,
          "time": 87.11999999999999,
          "velocity": 0.7874015748031497
        },
        {
          "duration": 0.1600000000000108,
          "durationTicks": 32,
          "midi": 72,
          "name": "C5",
          "ticks": 17424,
          "time": 87.11999999999999,
          "velocity": 0.7874015748031497
        },
        {
          "duration": 0.9599999999999937,
          "durationTicks": 192,
          "midi": 65,
          "name": "F4",
          "ticks": 17472,
          "time": 87.36,
          "velocity": 0.7874015748031497
        },
        {
          "duration": 0.9599999999999937,
          "durationTicks": 192,
          "midi": 72,
          "name": "C5",
          "ticks": 17472,
          "time": 87.36,
          "velocity": 0.7874015748031497
        },
        {
          "duration": 1.4399999999999977,
          "durationTicks": 288,
          "midi": 58,
          "name": "A#3",
          "ticks": 17664,
          "time": 88.32,
          "velocity": 0.7874015748031497
        },
        {
          "duration": 0.2400000000000091,
          "durationTicks": 48,
          "midi": 65,
          "name": "F4",
          "ticks": 18192,
          "time": 90.96,
          "velocity": 0.7874015748031497
        },
        {
          "duration": 0.23999999999999488,
          "durationTicks": 48,
          "midi": 74,
          "name": "D5",
          "ticks": 18240,
          "time": 91.2,
          "velocity": 0.7874015748031497
        },
        {
          "duration": 0.23999999999999488,
          "durationTicks": 48,
          "midi": 60,
          "name": "C4",
          "ticks": 18240,
          "time": 91.2,
          "velocity": 0.7874015748031497
        },
        {
          "duration": 0.23999999999999488,
          "durationTicks": 48,
          "midi": 75,
          "name": "D#5",
          "ticks": 18288,
          "time": 91.44,
          "velocity": 0.7874015748031497
        },
        {
          "duration": 0.23999999999999488,
          "durationTicks": 48,
          "midi": 63,
          "name": "D#4",
          "ticks": 18288,
          "time": 91.44,
          "velocity": 0.7874015748031497
        },
        {
          "duration": 0.2400000000000091,
          "durationTicks": 48,
          "midi": 72,
          "name": "C5",
          "ticks": 18336,
          "time": 91.67999999999999,
          "velocity": 0.7874015748031497
        },
        {
          "duration": 0.480000000000004,
          "durationTicks": 96,
          "midi": 65,
          "name": "F4",
          "ticks": 18336,
          "time": 91.67999999999999,
          "velocity": 0.7874015748031497
        },
        {
          "duration": 0.23999999999999488,
          "durationTicks": 48,
          "midi": 70,
          "name": "A#4",
          "ticks": 18384,
          "time": 91.92,
          "velocity": 0.7874015748031497
        },
        {
          "duration": 0.7199999999999989,
          "durationTicks": 144,
          "midi": 65,
          "name": "F4",
          "ticks": 18432,
          "time": 92.16,
          "velocity": 0.7874015748031497
        },
        {
          "duration": 0.9599999999999937,
          "durationTicks": 192,
          "midi": 70,
          "name": "A#4",
          "ticks": 18432,
          "time": 92.16,
          "velocity": 0.7874015748031497
        },
        {
          "duration": 0.23999999999999488,
          "durationTicks": 48,
          "midi": 65,
          "name": "F4",
          "ticks": 18576,
          "time": 92.88,
          "velocity": 0.7874015748031497
        },
        {
          "duration": 0.2400000000000091,
          "durationTicks": 48,
          "midi": 74,
          "name": "D5",
          "ticks": 18624,
          "time": 93.11999999999999,
          "velocity": 0.7874015748031497
        },
        {
          "duration": 0.2400000000000091,
          "durationTicks": 48,
          "midi": 60,
          "name": "C4",
          "ticks": 18624,
          "time": 93.11999999999999,
          "velocity": 0.7874015748031497
        },
        {
          "duration": 0.23999999999999488,
          "durationTicks": 48,
          "midi": 75,
          "name": "D#5",
          "ticks": 18672,
          "time": 93.36,
          "velocity": 0.7874015748031497
        },
        {
          "duration": 0.23999999999999488,
          "durationTicks": 48,
          "midi": 63,
          "name": "D#4",
          "ticks": 18672,
          "time": 93.36,
          "velocity": 0.7874015748031497
        },
        {
          "duration": 0.35999999999999943,
          "durationTicks": 72,
          "midi": 72,
          "name": "C5",
          "ticks": 18720,
          "time": 93.6,
          "velocity": 0.7874015748031497
        },
        {
          "duration": 0.35999999999999943,
          "durationTicks": 72,
          "midi": 65,
          "name": "F4",
          "ticks": 18720,
          "time": 93.6,
          "velocity": 0.7874015748031497
        },
        {
          "duration": 0.12000000000000455,
          "durationTicks": 24,
          "midi": 63,
          "name": "D#4",
          "ticks": 18792,
          "time": 93.96,
          "velocity": 0.7874015748031497
        },
        {
          "duration": 0.12000000000000455,
          "durationTicks": 24,
          "midi": 70,
          "name": "A#4",
          "ticks": 18792,
          "time": 93.96,
          "velocity": 0.7874015748031497
        },
        {
          "duration": 0.7199999999999989,
          "durationTicks": 144,
          "midi": 62,
          "name": "D4",
          "ticks": 18816,
          "time": 94.08,
          "velocity": 0.7874015748031497
        },
        {
          "duration": 0.7199999999999989,
          "durationTicks": 144,
          "midi": 70,
          "name": "A#4",
          "ticks": 18816,
          "time": 94.08,
          "velocity": 0.7874015748031497
        },
        {
          "duration": 0.23999999999999488,
          "durationTicks": 48,
          "midi": 65,
          "name": "F4",
          "ticks": 18960,
          "time": 94.8,
          "velocity": 0.7874015748031497
        },
        {
          "duration": 0.2400000000000091,
          "durationTicks": 48,
          "midi": 70,
          "name": "A#4",
          "ticks": 19008,
          "time": 95.03999999999999,
          "velocity": 0.7874015748031497
        },
        {
          "duration": 0.2400000000000091,
          "durationTicks": 48,
          "midi": 53,
          "name": "F3",
          "ticks": 19008,
          "time": 95.03999999999999,
          "velocity": 0.7874015748031497
        },
        {
          "duration": 0.2400000000000091,
          "durationTicks": 48,
          "midi": 74,
          "name": "D5",
          "ticks": 19008,
          "time": 95.03999999999999,
          "velocity": 0.7874015748031497
        },
        {
          "duration": 0.23999999999999488,
          "durationTicks": 48,
          "midi": 72,
          "name": "C5",
          "ticks": 19056,
          "time": 95.28,
          "velocity": 0.7874015748031497
        },
        {
          "duration": 0.23999999999999488,
          "durationTicks": 48,
          "midi": 60,
          "name": "C4",
          "ticks": 19056,
          "time": 95.28,
          "velocity": 0.7874015748031497
        },
        {
          "duration": 0.23999999999999488,
          "durationTicks": 48,
          "midi": 75,
          "name": "D#5",
          "ticks": 19056,
          "time": 95.28,
          "velocity": 0.7874015748031497
        },
        {
          "duration": 0.23999999999999488,
          "durationTicks": 48,
          "midi": 72,
          "name": "C5",
          "ticks": 19104,
          "time": 95.52,
          "velocity": 0.7874015748031497
        },
        {
          "duration": 0.23999999999999488,
          "durationTicks": 48,
          "midi": 53,
          "name": "F3",
          "ticks": 19104,
          "time": 95.52,
          "velocity": 0.7874015748031497
        },
        {
          "duration": 0.23999999999999488,
          "durationTicks": 48,
          "midi": 77,
          "name": "F5",
          "ticks": 19104,
          "time": 95.52,
          "velocity": 0.7874015748031497
        },
        {
          "duration": 0.2400000000000091,
          "durationTicks": 48,
          "midi": 81,
          "name": "A5",
          "ticks": 19152,
          "time": 95.75999999999999,
          "velocity": 0.7874015748031497
        },
        {
          "duration": 0.2400000000000091,
          "durationTicks": 48,
          "midi": 60,
          "name": "C4",
          "ticks": 19152,
          "time": 95.75999999999999,
          "velocity": 0.7874015748031497
        },
        {
          "duration": 0.2400000000000091,
          "durationTicks": 48,
          "midi": 77,
          "name": "F5",
          "ticks": 19152,
          "time": 95.75999999999999,
          "velocity": 0.7874015748031497
        },
        {
          "duration": 0.7199999999999989,
          "durationTicks": 144,
          "midi": 74,
          "name": "D5",
          "ticks": 19200,
          "time": 96,
          "velocity": 0.7874015748031497
        },
        {
          "duration": 0.7199999999999989,
          "durationTicks": 144,
          "midi": 77,
          "name": "F5",
          "ticks": 19200,
          "time": 96,
          "velocity": 0.7874015748031497
        },
        {
          "duration": 1.9200000000000017,
          "durationTicks": 384,
          "midi": 51,
          "name": "D#3",
          "ticks": 19200,
          "time": 96,
          "velocity": 0.7874015748031497
        },
        {
          "duration": 0.23999999999999488,
          "durationTicks": 48,
          "midi": 72,
          "name": "C5",
          "ticks": 19344,
          "time": 96.72,
          "velocity": 0.7874015748031497
        },
        {
          "duration": 0.23999999999999488,
          "durationTicks": 48,
          "midi": 81,
          "name": "A5",
          "ticks": 19344,
          "time": 96.72,
          "velocity": 0.7874015748031497
        },
        {
          "duration": 0.7199999999999989,
          "durationTicks": 144,
          "midi": 77,
          "name": "F5",
          "ticks": 19392,
          "time": 96.96,
          "velocity": 0.7874015748031497
        },
        {
          "duration": 0.7199999999999989,
          "durationTicks": 144,
          "midi": 70,
          "name": "A#4",
          "ticks": 19392,
          "time": 96.96,
          "velocity": 0.7874015748031497
        },
        {
          "duration": 0.2400000000000091,
          "durationTicks": 48,
          "midi": 74,
          "name": "D5",
          "ticks": 19536,
          "time": 97.67999999999999,
          "velocity": 0.7874015748031497
        },
        {
          "duration": 0.2400000000000091,
          "durationTicks": 48,
          "midi": 81,
          "name": "A5",
          "ticks": 19536,
          "time": 97.67999999999999,
          "velocity": 0.7874015748031497
        },
        {
          "duration": 0.1600000000000108,
          "durationTicks": 32,
          "midi": 82,
          "name": "A#5",
          "ticks": 23040,
          "time": 115.19999999999999,
          "velocity": 0.7874015748031497
        },
        {
          "duration": 0.1600000000000108,
          "durationTicks": 32,
          "midi": 79,
          "name": "G5",
          "ticks": 23040,
          "time": 115.19999999999999,
          "velocity": 0.7874015748031497
        },
        {
          "duration": 0.1600000000000108,
          "durationTicks": 32,
          "midi": 74,
          "name": "D5",
          "ticks": 23040,
          "time": 115.19999999999999,
          "velocity": 0.7874015748031497
        },
        {
          "duration": 0.1599999999999966,
          "durationTicks": 32,
          "midi": 77,
          "name": "F5",
          "ticks": 23184,
          "time": 115.92,
          "velocity": 0.7874015748031497
        },
        {
          "duration": 0.1599999999999966,
          "durationTicks": 32,
          "midi": 84,
          "name": "C6",
          "ticks": 23184,
          "time": 115.92,
          "velocity": 0.7874015748031497
        },
        {
          "duration": 0.1599999999999966,
          "durationTicks": 32,
          "midi": 81,
          "name": "A5",
          "ticks": 23184,
          "time": 115.92,
          "velocity": 0.7874015748031497
        },
        {
          "duration": 0.1599999999999966,
          "durationTicks": 32,
          "midi": 82,
          "name": "A#5",
          "ticks": 23232,
          "time": 116.16,
          "velocity": 0.7874015748031497
        },
        {
          "duration": 0.1599999999999966,
          "durationTicks": 32,
          "midi": 79,
          "name": "G5",
          "ticks": 23232,
          "time": 116.16,
          "velocity": 0.7874015748031497
        },
        {
          "duration": 0.1599999999999966,
          "durationTicks": 32,
          "midi": 74,
          "name": "D5",
          "ticks": 23232,
          "time": 116.16,
          "velocity": 0.7874015748031497
        },
        {
          "duration": 0.060000000000002274,
          "durationTicks": 12,
          "midi": 82,
          "name": "A#5",
          "ticks": 23352,
          "time": 116.75999999999999,
          "velocity": 0.7874015748031497
        },
        {
          "duration": 0.060000000000002274,
          "durationTicks": 12,
          "midi": 83,
          "name": "B5",
          "ticks": 23364,
          "time": 116.82,
          "velocity": 0.7874015748031497
        },
        {
          "duration": 0.1600000000000108,
          "durationTicks": 32,
          "midi": 84,
          "name": "C6",
          "ticks": 23376,
          "time": 116.88,
          "velocity": 0.7874015748031497
        },
        {
          "duration": 0.1600000000000108,
          "durationTicks": 32,
          "midi": 81,
          "name": "A5",
          "ticks": 23376,
          "time": 116.88,
          "velocity": 0.7874015748031497
        },
        {
          "duration": 0.1600000000000108,
          "durationTicks": 32,
          "midi": 77,
          "name": "F5",
          "ticks": 23376,
          "time": 116.88,
          "velocity": 0.7874015748031497
        },
        {
          "duration": 0.1600000000000108,
          "durationTicks": 32,
          "midi": 82,
          "name": "A#5",
          "ticks": 23424,
          "time": 117.11999999999999,
          "velocity": 0.7874015748031497
        },
        {
          "duration": 0.1600000000000108,
          "durationTicks": 32,
          "midi": 74,
          "name": "D5",
          "ticks": 23424,
          "time": 117.11999999999999,
          "velocity": 0.7874015748031497
        },
        {
          "duration": 0.1600000000000108,
          "durationTicks": 32,
          "midi": 79,
          "name": "G5",
          "ticks": 23424,
          "time": 117.11999999999999,
          "velocity": 0.7874015748031497
        },
        {
          "duration": 0.1600000000000108,
          "durationTicks": 32,
          "midi": 84,
          "name": "C6",
          "ticks": 23568,
          "time": 117.83999999999999,
          "velocity": 0.7874015748031497
        },
        {
          "duration": 0.1600000000000108,
          "durationTicks": 32,
          "midi": 81,
          "name": "A5",
          "ticks": 23568,
          "time": 117.83999999999999,
          "velocity": 0.7874015748031497
        },
        {
          "duration": 0.1600000000000108,
          "durationTicks": 32,
          "midi": 77,
          "name": "F5",
          "ticks": 23568,
          "time": 117.83999999999999,
          "velocity": 0.7874015748031497
        },
        {
          "duration": 0.1599999999999966,
          "durationTicks": 32,
          "midi": 79,
          "name": "G5",
          "ticks": 23616,
          "time": 118.08,
          "velocity": 0.7874015748031497
        },
        {
          "duration": 0.1599999999999966,
          "durationTicks": 32,
          "midi": 82,
          "name": "A#5",
          "ticks": 23616,
          "time": 118.08,
          "velocity": 0.7874015748031497
        },
        {
          "duration": 0.060000000000002274,
          "durationTicks": 12,
          "midi": 77,
          "name": "F5",
          "ticks": 23664,
          "time": 118.32,
          "velocity": 0.7874015748031497
        },
        {
          "duration": 0.060000000000002274,
          "durationTicks": 12,
          "midi": 81,
          "name": "A5",
          "ticks": 23664,
          "time": 118.32,
          "velocity": 0.7874015748031497
        },
        {
          "duration": 0.060000000000002274,
          "durationTicks": 12,
          "midi": 82,
          "name": "A#5",
          "ticks": 23676,
          "time": 118.38,
          "velocity": 0.7874015748031497
        },
        {
          "duration": 0.060000000000002274,
          "durationTicks": 12,
          "midi": 79,
          "name": "G5",
          "ticks": 23676,
          "time": 118.38,
          "velocity": 0.7874015748031497
        },
        {
          "duration": 0.060000000000002274,
          "durationTicks": 12,
          "midi": 77,
          "name": "F5",
          "ticks": 23688,
          "time": 118.44,
          "velocity": 0.7874015748031497
        },
        {
          "duration": 0.060000000000002274,
          "durationTicks": 12,
          "midi": 81,
          "name": "A5",
          "ticks": 23688,
          "time": 118.44,
          "velocity": 0.7874015748031497
        },
        {
          "duration": 0.11999999999999034,
          "durationTicks": 24,
          "midi": 74,
          "name": "D5",
          "ticks": 23712,
          "time": 118.56,
          "velocity": 0.7874015748031497
        },
        {
          "duration": 0.11999999999999034,
          "durationTicks": 24,
          "midi": 79,
          "name": "G5",
          "ticks": 23712,
          "time": 118.56,
          "velocity": 0.7874015748031497
        },
        {
          "duration": 0.060000000000002274,
          "durationTicks": 12,
          "midi": 80,
          "name": "G#5",
          "ticks": 23748,
          "time": 118.74,
          "velocity": 0.7874015748031497
        },
        {
          "duration": 0.12000000000000455,
          "durationTicks": 24,
          "midi": 77,
          "name": "F5",
          "ticks": 23760,
          "time": 118.8,
          "velocity": 0.7874015748031497
        },
        {
          "duration": 0.12000000000000455,
          "durationTicks": 24,
          "midi": 81,
          "name": "A5",
          "ticks": 23760,
          "time": 118.8,
          "velocity": 0.7874015748031497
        },
        {
          "duration": 0.1600000000000108,
          "durationTicks": 32,
          "midi": 74,
          "name": "D5",
          "ticks": 23808,
          "time": 119.03999999999999,
          "velocity": 0.7874015748031497
        },
        {
          "duration": 0.1600000000000108,
          "durationTicks": 32,
          "midi": 79,
          "name": "G5",
          "ticks": 23808,
          "time": 119.03999999999999,
          "velocity": 0.7874015748031497
        },
        {
          "duration": 0.1600000000000108,
          "durationTicks": 32,
          "midi": 82,
          "name": "A#5",
          "ticks": 23808,
          "time": 119.03999999999999,
          "velocity": 0.7874015748031497
        },
        {
          "duration": 0.1600000000000108,
          "durationTicks": 32,
          "midi": 81,
          "name": "A5",
          "ticks": 23952,
          "time": 119.75999999999999,
          "velocity": 0.7874015748031497
        },
        {
          "duration": 0.1600000000000108,
          "durationTicks": 32,
          "midi": 84,
          "name": "C6",
          "ticks": 23952,
          "time": 119.75999999999999,
          "velocity": 0.7874015748031497
        },
        {
          "duration": 0.1600000000000108,
          "durationTicks": 32,
          "midi": 77,
          "name": "F5",
          "ticks": 23952,
          "time": 119.75999999999999,
          "velocity": 0.7874015748031497
        },
        {
          "duration": 0.1599999999999966,
          "durationTicks": 32,
          "midi": 82,
          "name": "A#5",
          "ticks": 24000,
          "time": 120,
          "velocity": 0.7874015748031497
        },
        {
          "duration": 0.1599999999999966,
          "durationTicks": 32,
          "midi": 79,
          "name": "G5",
          "ticks": 24000,
          "time": 120,
          "velocity": 0.7874015748031497
        },
        {
          "duration": 0.1599999999999966,
          "durationTicks": 32,
          "midi": 74,
          "name": "D5",
          "ticks": 24000,
          "time": 120,
          "velocity": 0.7874015748031497
        },
        {
          "duration": 0.060000000000002274,
          "durationTicks": 12,
          "midi": 82,
          "name": "A#5",
          "ticks": 24120,
          "time": 120.6,
          "velocity": 0.7874015748031497
        },
        {
          "duration": 0.060000000000002274,
          "durationTicks": 12,
          "midi": 83,
          "name": "B5",
          "ticks": 24132,
          "time": 120.66,
          "velocity": 0.7874015748031497
        },
        {
          "duration": 0.1599999999999966,
          "durationTicks": 32,
          "midi": 84,
          "name": "C6",
          "ticks": 24144,
          "time": 120.72,
          "velocity": 0.7874015748031497
        },
        {
          "duration": 0.1599999999999966,
          "durationTicks": 32,
          "midi": 81,
          "name": "A5",
          "ticks": 24144,
          "time": 120.72,
          "velocity": 0.7874015748031497
        },
        {
          "duration": 0.1599999999999966,
          "durationTicks": 32,
          "midi": 77,
          "name": "F5",
          "ticks": 24144,
          "time": 120.72,
          "velocity": 0.7874015748031497
        },
        {
          "duration": 0.1600000000000108,
          "durationTicks": 32,
          "midi": 82,
          "name": "A#5",
          "ticks": 24192,
          "time": 120.96,
          "velocity": 0.7874015748031497
        },
        {
          "duration": 0.1600000000000108,
          "durationTicks": 32,
          "midi": 74,
          "name": "D5",
          "ticks": 24192,
          "time": 120.96,
          "velocity": 0.7874015748031497
        },
        {
          "duration": 0.1600000000000108,
          "durationTicks": 32,
          "midi": 79,
          "name": "G5",
          "ticks": 24192,
          "time": 120.96,
          "velocity": 0.7874015748031497
        },
        {
          "duration": 0.1600000000000108,
          "durationTicks": 32,
          "midi": 84,
          "name": "C6",
          "ticks": 24336,
          "time": 121.67999999999999,
          "velocity": 0.7874015748031497
        },
        {
          "duration": 0.1600000000000108,
          "durationTicks": 32,
          "midi": 81,
          "name": "A5",
          "ticks": 24336,
          "time": 121.67999999999999,
          "velocity": 0.7874015748031497
        },
        {
          "duration": 0.1600000000000108,
          "durationTicks": 32,
          "midi": 77,
          "name": "F5",
          "ticks": 24336,
          "time": 121.67999999999999,
          "velocity": 0.7874015748031497
        },
        {
          "duration": 0.1599999999999966,
          "durationTicks": 32,
          "midi": 79,
          "name": "G5",
          "ticks": 24384,
          "time": 121.92,
          "velocity": 0.7874015748031497
        },
        {
          "duration": 0.1599999999999966,
          "durationTicks": 32,
          "midi": 82,
          "name": "A#5",
          "ticks": 24384,
          "time": 121.92,
          "velocity": 0.7874015748031497
        },
        {
          "duration": 0.060000000000002274,
          "durationTicks": 12,
          "midi": 82,
          "name": "A#5",
          "ticks": 24432,
          "time": 122.16,
          "velocity": 0.7874015748031497
        },
        {
          "duration": 0.060000000000002274,
          "durationTicks": 12,
          "midi": 79,
          "name": "G5",
          "ticks": 24432,
          "time": 122.16,
          "velocity": 0.7874015748031497
        },
        {
          "duration": 0.060000000000002274,
          "durationTicks": 12,
          "midi": 84,
          "name": "C6",
          "ticks": 24444,
          "time": 122.22,
          "velocity": 0.7874015748031497
        },
        {
          "duration": 0.060000000000002274,
          "durationTicks": 12,
          "midi": 81,
          "name": "A5",
          "ticks": 24444,
          "time": 122.22,
          "velocity": 0.7874015748031497
        },
        {
          "duration": 0.05999999999998806,
          "durationTicks": 12,
          "midi": 82,
          "name": "A#5",
          "ticks": 24456,
          "time": 122.28,
          "velocity": 0.7874015748031497
        },
        {
          "duration": 0.05999999999998806,
          "durationTicks": 12,
          "midi": 79,
          "name": "G5",
          "ticks": 24456,
          "time": 122.28,
          "velocity": 0.7874015748031497
        },
        {
          "duration": 0.12000000000000455,
          "durationTicks": 24,
          "midi": 79,
          "name": "G5",
          "ticks": 24480,
          "time": 122.39999999999999,
          "velocity": 0.7874015748031497
        },
        {
          "duration": 0.12000000000000455,
          "durationTicks": 24,
          "midi": 74,
          "name": "D5",
          "ticks": 24480,
          "time": 122.39999999999999,
          "velocity": 0.7874015748031497
        },
        {
          "duration": 0.060000000000002274,
          "durationTicks": 12,
          "midi": 76,
          "name": "E5",
          "ticks": 24516,
          "time": 122.58,
          "velocity": 0.7874015748031497
        },
        {
          "duration": 0.11999999999999034,
          "durationTicks": 24,
          "midi": 72,
          "name": "C5",
          "ticks": 24528,
          "time": 122.64,
          "velocity": 0.7874015748031497
        },
        {
          "duration": 0.11999999999999034,
          "durationTicks": 24,
          "midi": 77,
          "name": "F5",
          "ticks": 24528,
          "time": 122.64,
          "velocity": 0.7874015748031497
        },
        {
          "duration": 0.1599999999999966,
          "durationTicks": 32,
          "midi": 74,
          "name": "D5",
          "ticks": 24576,
          "time": 122.88,
          "velocity": 0.7874015748031497
        },
        {
          "duration": 0.1599999999999966,
          "durationTicks": 32,
          "midi": 79,
          "name": "G5",
          "ticks": 24576,
          "time": 122.88,
          "velocity": 0.7874015748031497
        },
        {
          "duration": 0.1599999999999966,
          "durationTicks": 32,
          "midi": 82,
          "name": "A#5",
          "ticks": 24576,
          "time": 122.88,
          "velocity": 0.7874015748031497
        },
        {
          "duration": 0.1599999999999966,
          "durationTicks": 32,
          "midi": 81,
          "name": "A5",
          "ticks": 24720,
          "time": 123.6,
          "velocity": 0.7874015748031497
        },
        {
          "duration": 0.1599999999999966,
          "durationTicks": 32,
          "midi": 84,
          "name": "C6",
          "ticks": 24720,
          "time": 123.6,
          "velocity": 0.7874015748031497
        },
        {
          "duration": 0.1599999999999966,
          "durationTicks": 32,
          "midi": 77,
          "name": "F5",
          "ticks": 24720,
          "time": 123.6,
          "velocity": 0.7874015748031497
        },
        {
          "duration": 0.1599999999999966,
          "durationTicks": 32,
          "midi": 82,
          "name": "A#5",
          "ticks": 24768,
          "time": 123.83999999999999,
          "velocity": 0.7874015748031497
        },
        {
          "duration": 0.1599999999999966,
          "durationTicks": 32,
          "midi": 79,
          "name": "G5",
          "ticks": 24768,
          "time": 123.83999999999999,
          "velocity": 0.7874015748031497
        },
        {
          "duration": 0.1599999999999966,
          "durationTicks": 32,
          "midi": 74,
          "name": "D5",
          "ticks": 24768,
          "time": 123.83999999999999,
          "velocity": 0.7874015748031497
        },
        {
          "duration": 0.060000000000002274,
          "durationTicks": 12,
          "midi": 82,
          "name": "A#5",
          "ticks": 24888,
          "time": 124.44,
          "velocity": 0.7874015748031497
        },
        {
          "duration": 0.060000000000002274,
          "durationTicks": 12,
          "midi": 83,
          "name": "B5",
          "ticks": 24900,
          "time": 124.5,
          "velocity": 0.7874015748031497
        },
        {
          "duration": 0.15999999999998238,
          "durationTicks": 32,
          "midi": 84,
          "name": "C6",
          "ticks": 24912,
          "time": 124.56,
          "velocity": 0.7874015748031497
        },
        {
          "duration": 0.15999999999998238,
          "durationTicks": 32,
          "midi": 81,
          "name": "A5",
          "ticks": 24912,
          "time": 124.56,
          "velocity": 0.7874015748031497
        },
        {
          "duration": 0.15999999999998238,
          "durationTicks": 32,
          "midi": 77,
          "name": "F5",
          "ticks": 24912,
          "time": 124.56,
          "velocity": 0.7874015748031497
        },
        {
          "duration": 0.15999999999998238,
          "durationTicks": 32,
          "midi": 82,
          "name": "A#5",
          "ticks": 24960,
          "time": 124.8,
          "velocity": 0.7874015748031497
        },
        {
          "duration": 0.15999999999998238,
          "durationTicks": 32,
          "midi": 74,
          "name": "D5",
          "ticks": 24960,
          "time": 124.8,
          "velocity": 0.7874015748031497
        },
        {
          "duration": 0.15999999999998238,
          "durationTicks": 32,
          "midi": 79,
          "name": "G5",
          "ticks": 24960,
          "time": 124.8,
          "velocity": 0.7874015748031497
        },
        {
          "duration": 0.1599999999999966,
          "durationTicks": 32,
          "midi": 84,
          "name": "C6",
          "ticks": 25104,
          "time": 125.52,
          "velocity": 0.7874015748031497
        },
        {
          "duration": 0.1599999999999966,
          "durationTicks": 32,
          "midi": 81,
          "name": "A5",
          "ticks": 25104,
          "time": 125.52,
          "velocity": 0.7874015748031497
        },
        {
          "duration": 0.1599999999999966,
          "durationTicks": 32,
          "midi": 77,
          "name": "F5",
          "ticks": 25104,
          "time": 125.52,
          "velocity": 0.7874015748031497
        },
        {
          "duration": 0.1599999999999966,
          "durationTicks": 32,
          "midi": 82,
          "name": "A#5",
          "ticks": 25152,
          "time": 125.75999999999999,
          "velocity": 0.7874015748031497
        },
        {
          "duration": 0.1599999999999966,
          "durationTicks": 32,
          "midi": 79,
          "name": "G5",
          "ticks": 25152,
          "time": 125.75999999999999,
          "velocity": 0.7874015748031497
        },
        {
          "duration": 0.1599999999999966,
          "durationTicks": 32,
          "midi": 77,
          "name": "F5",
          "ticks": 25248,
          "time": 126.24,
          "velocity": 0.7874015748031497
        },
        {
          "duration": 0.1599999999999966,
          "durationTicks": 32,
          "midi": 81,
          "name": "A5",
          "ticks": 25248,
          "time": 126.24,
          "velocity": 0.7874015748031497
        },
        {
          "duration": 0.15999999999998238,
          "durationTicks": 32,
          "midi": 84,
          "name": "C6",
          "ticks": 25344,
          "time": 126.72,
          "velocity": 0.7874015748031497
        },
        {
          "duration": 0.15999999999998238,
          "durationTicks": 32,
          "midi": 74,
          "name": "D5",
          "ticks": 25344,
          "time": 126.72,
          "velocity": 0.7874015748031497
        },
        {
          "duration": 0.15999999999998238,
          "durationTicks": 32,
          "midi": 79,
          "name": "G5",
          "ticks": 25344,
          "time": 126.72,
          "velocity": 0.7874015748031497
        },
        {
          "duration": 0.15999999999998238,
          "durationTicks": 32,
          "midi": 82,
          "name": "A#5",
          "ticks": 25488,
          "time": 127.44,
          "velocity": 0.7874015748031497
        },
        {
          "duration": 0.15999999999998238,
          "durationTicks": 32,
          "midi": 86,
          "name": "D6",
          "ticks": 25488,
          "time": 127.44,
          "velocity": 0.7874015748031497
        },
        {
          "duration": 0.15999999999998238,
          "durationTicks": 32,
          "midi": 79,
          "name": "G5",
          "ticks": 25488,
          "time": 127.44,
          "velocity": 0.7874015748031497
        },
        {
          "duration": 0.1599999999999966,
          "durationTicks": 32,
          "midi": 82,
          "name": "A#5",
          "ticks": 25536,
          "time": 127.67999999999999,
          "velocity": 0.7874015748031497
        },
        {
          "duration": 0.1599999999999966,
          "durationTicks": 32,
          "midi": 79,
          "name": "G5",
          "ticks": 25536,
          "time": 127.67999999999999,
          "velocity": 0.7874015748031497
        },
        {
          "duration": 0.1599999999999966,
          "durationTicks": 32,
          "midi": 74,
          "name": "D5",
          "ticks": 25536,
          "time": 127.67999999999999,
          "velocity": 0.7874015748031497
        },
        {
          "duration": 0.060000000000002274,
          "durationTicks": 12,
          "midi": 82,
          "name": "A#5",
          "ticks": 25656,
          "time": 128.28,
          "velocity": 0.7874015748031497
        },
        {
          "duration": 0.060000000000002274,
          "durationTicks": 12,
          "midi": 83,
          "name": "B5",
          "ticks": 25668,
          "time": 128.34,
          "velocity": 0.7874015748031497
        },
        {
          "duration": 0.15999999999996817,
          "durationTicks": 32,
          "midi": 84,
          "name": "C6",
          "ticks": 25680,
          "time": 128.4,
          "velocity": 0.7874015748031497
        },
        {
          "duration": 0.15999999999996817,
          "durationTicks": 32,
          "midi": 81,
          "name": "A5",
          "ticks": 25680,
          "time": 128.4,
          "velocity": 0.7874015748031497
        },
        {
          "duration": 0.15999999999996817,
          "durationTicks": 32,
          "midi": 77,
          "name": "F5",
          "ticks": 25680,
          "time": 128.4,
          "velocity": 0.7874015748031497
        },
        {
          "duration": 0.1599999999999966,
          "durationTicks": 32,
          "midi": 79,
          "name": "G5",
          "ticks": 25728,
          "time": 128.64,
          "velocity": 0.7874015748031497
        },
        {
          "duration": 0.1599999999999966,
          "durationTicks": 32,
          "midi": 74,
          "name": "D5",
          "ticks": 25728,
          "time": 128.64,
          "velocity": 0.7874015748031497
        },
        {
          "duration": 0.1599999999999966,
          "durationTicks": 32,
          "midi": 82,
          "name": "A#5",
          "ticks": 25728,
          "time": 128.64,
          "velocity": 0.7874015748031497
        },
        {
          "duration": 0.1599999999999966,
          "durationTicks": 32,
          "midi": 77,
          "name": "F5",
          "ticks": 25872,
          "time": 129.35999999999999,
          "velocity": 0.7874015748031497
        },
        {
          "duration": 0.1599999999999966,
          "durationTicks": 32,
          "midi": 81,
          "name": "A5",
          "ticks": 25872,
          "time": 129.35999999999999,
          "velocity": 0.7874015748031497
        },
        {
          "duration": 0.1599999999999966,
          "durationTicks": 32,
          "midi": 84,
          "name": "C6",
          "ticks": 25872,
          "time": 129.35999999999999,
          "velocity": 0.7874015748031497
        },
        {
          "duration": 0.1599999999999966,
          "durationTicks": 32,
          "midi": 79,
          "name": "G5",
          "ticks": 25920,
          "time": 129.6,
          "velocity": 0.7874015748031497
        },
        {
          "duration": 0.1599999999999966,
          "durationTicks": 32,
          "midi": 74,
          "name": "D5",
          "ticks": 25920,
          "time": 129.6,
          "velocity": 0.7874015748031497
        },
        {
          "duration": 0.1599999999999966,
          "durationTicks": 32,
          "midi": 70,
          "name": "A#4",
          "ticks": 25920,
          "time": 129.6,
          "velocity": 0.7874015748031497
        },
        {
          "duration": 0.1599999999999966,
          "durationTicks": 32,
          "midi": 81,
          "name": "A5",
          "ticks": 26016,
          "time": 130.07999999999998,
          "velocity": 0.7874015748031497
        },
        {
          "duration": 0.1599999999999966,
          "durationTicks": 32,
          "midi": 74,
          "name": "D5",
          "ticks": 26016,
          "time": 130.07999999999998,
          "velocity": 0.7874015748031497
        },
        {
          "duration": 0.1599999999999966,
          "durationTicks": 32,
          "midi": 69,
          "name": "A4",
          "ticks": 26016,
          "time": 130.07999999999998,
          "velocity": 0.7874015748031497
        },
        {
          "duration": 0.9599999999999795,
          "durationTicks": 192,
          "midi": 82,
          "name": "A#5",
          "ticks": 26112,
          "time": 130.56,
          "velocity": 1
        },
        {
          "duration": 0.9599999999999795,
          "durationTicks": 192,
          "midi": 72,
          "name": "C5",
          "ticks": 26112,
          "time": 130.56,
          "velocity": 1
        },
        {
          "duration": 0.9599999999999795,
          "durationTicks": 192,
          "midi": 75,
          "name": "D#5",
          "ticks": 26112,
          "time": 130.56,
          "velocity": 1
        },
        {
          "duration": 0.12000000000000455,
          "durationTicks": 24,
          "midi": 82,
          "name": "A#5",
          "ticks": 26304,
          "time": 131.51999999999998,
          "velocity": 1
        },
        {
          "duration": 0.12000000000000455,
          "durationTicks": 24,
          "midi": 77,
          "name": "F5",
          "ticks": 26304,
          "time": 131.51999999999998,
          "velocity": 1
        },
        {
          "duration": 0.060000000000002274,
          "durationTicks": 12,
          "midi": 77,
          "name": "F5",
          "ticks": 26352,
          "time": 131.76,
          "velocity": 1
        },
        {
          "duration": 0.060000000000002274,
          "durationTicks": 12,
          "midi": 81,
          "name": "A5",
          "ticks": 26352,
          "time": 131.76,
          "velocity": 1
        },
        {
          "duration": 0.060000000000002274,
          "durationTicks": 12,
          "midi": 79,
          "name": "G5",
          "ticks": 26364,
          "time": 131.82,
          "velocity": 1
        },
        {
          "duration": 0.060000000000002274,
          "durationTicks": 12,
          "midi": 82,
          "name": "A#5",
          "ticks": 26364,
          "time": 131.82,
          "velocity": 1
        },
        {
          "duration": 0.060000000000002274,
          "durationTicks": 12,
          "midi": 77,
          "name": "F5",
          "ticks": 26376,
          "time": 131.88,
          "velocity": 1
        },
        {
          "duration": 0.060000000000002274,
          "durationTicks": 12,
          "midi": 81,
          "name": "A5",
          "ticks": 26376,
          "time": 131.88,
          "velocity": 1
        },
        {
          "duration": 0.2400000000000091,
          "durationTicks": 48,
          "midi": 79,
          "name": "G5",
          "ticks": 26400,
          "time": 132,
          "velocity": 1
        },
        {
          "duration": 0.2400000000000091,
          "durationTicks": 48,
          "midi": 75,
          "name": "D#5",
          "ticks": 26400,
          "time": 132,
          "velocity": 1
        },
        {
          "duration": 0.23999999999998067,
          "durationTicks": 48,
          "midi": 77,
          "name": "F5",
          "ticks": 26448,
          "time": 132.24,
          "velocity": 1
        },
        {
          "duration": 0.23999999999998067,
          "durationTicks": 48,
          "midi": 81,
          "name": "A5",
          "ticks": 26448,
          "time": 132.24,
          "velocity": 1
        },
        {
          "duration": 0.960000000000008,
          "durationTicks": 192,
          "midi": 77,
          "name": "F5",
          "ticks": 26496,
          "time": 132.48,
          "velocity": 1
        },
        {
          "duration": 0.960000000000008,
          "durationTicks": 192,
          "midi": 72,
          "name": "C5",
          "ticks": 26496,
          "time": 132.48,
          "velocity": 1
        },
        {
          "duration": 0.960000000000008,
          "durationTicks": 192,
          "midi": 82,
          "name": "A#5",
          "ticks": 26496,
          "time": 132.48,
          "velocity": 1
        },
        {
          "duration": 0.12000000000000455,
          "durationTicks": 24,
          "midi": 79,
          "name": "G5",
          "ticks": 26688,
          "time": 133.44,
          "velocity": 1
        },
        {
          "duration": 0.12000000000000455,
          "durationTicks": 24,
          "midi": 82,
          "name": "A#5",
          "ticks": 26688,
          "time": 133.44,
          "velocity": 1
        },
        {
          "duration": 0.060000000000002274,
          "durationTicks": 12,
          "midi": 81,
          "name": "A5",
          "ticks": 26736,
          "time": 133.68,
          "velocity": 1
        },
        {
          "duration": 0.060000000000002274,
          "durationTicks": 12,
          "midi": 77,
          "name": "F5",
          "ticks": 26736,
          "time": 133.68,
          "velocity": 1
        },
        {
          "duration": 0.05999999999997385,
          "durationTicks": 12,
          "midi": 82,
          "name": "A#5",
          "ticks": 26748,
          "time": 133.74,
          "velocity": 1
        },
        {
          "duration": 0.05999999999997385,
          "durationTicks": 12,
          "midi": 79,
          "name": "G5",
          "ticks": 26748,
          "time": 133.74,
          "velocity": 1
        },
        {
          "duration": 0.060000000000002274,
          "durationTicks": 12,
          "midi": 81,
          "name": "A5",
          "ticks": 26760,
          "time": 133.79999999999998,
          "velocity": 1
        },
        {
          "duration": 0.060000000000002274,
          "durationTicks": 12,
          "midi": 77,
          "name": "F5",
          "ticks": 26760,
          "time": 133.79999999999998,
          "velocity": 1
        },
        {
          "duration": 0.2400000000000091,
          "durationTicks": 48,
          "midi": 79,
          "name": "G5",
          "ticks": 26784,
          "time": 133.92,
          "velocity": 1
        },
        {
          "duration": 0.2400000000000091,
          "durationTicks": 48,
          "midi": 74,
          "name": "D5",
          "ticks": 26784,
          "time": 133.92,
          "velocity": 1
        },
        {
          "duration": 0.2400000000000091,
          "durationTicks": 48,
          "midi": 77,
          "name": "F5",
          "ticks": 26832,
          "time": 134.16,
          "velocity": 1
        },
        {
          "duration": 0.2400000000000091,
          "durationTicks": 48,
          "midi": 81,
          "name": "A5",
          "ticks": 26832,
          "time": 134.16,
          "velocity": 1
        },
        {
          "duration": 0.7199999999999989,
          "durationTicks": 144,
          "midi": 74,
          "name": "D5",
          "ticks": 26880,
          "time": 134.4,
          "velocity": 1
        },
        {
          "duration": 0.7199999999999989,
          "durationTicks": 144,
          "midi": 82,
          "name": "A#5",
          "ticks": 26880,
          "time": 134.4,
          "velocity": 1
        },
        {
          "duration": 0.7199999999999989,
          "durationTicks": 144,
          "midi": 77,
          "name": "F5",
          "ticks": 26880,
          "time": 134.4,
          "velocity": 1
        },
        {
          "duration": 0.23999999999998067,
          "durationTicks": 48,
          "midi": 81,
          "name": "A5",
          "ticks": 27024,
          "time": 135.12,
          "velocity": 1
        },
        {
          "duration": 0.6599999999999966,
          "durationTicks": 132,
          "midi": 77,
          "name": "F5",
          "ticks": 27072,
          "time": 135.35999999999999,
          "velocity": 1
        },
        {
          "duration": 0.6599999999999966,
          "durationTicks": 132,
          "midi": 72,
          "name": "C5",
          "ticks": 27072,
          "time": 135.35999999999999,
          "velocity": 1
        },
        {
          "duration": 0.060000000000002274,
          "durationTicks": 12,
          "midi": 74,
          "name": "D5",
          "ticks": 27204,
          "time": 136.01999999999998,
          "velocity": 1
        },
        {
          "duration": 0.2400000000000091,
          "durationTicks": 48,
          "midi": 75,
          "name": "D#5",
          "ticks": 27216,
          "time": 136.07999999999998,
          "velocity": 1
        },
        {
          "duration": 0.2400000000000091,
          "durationTicks": 48,
          "midi": 70,
          "name": "A#4",
          "ticks": 27216,
          "time": 136.07999999999998,
          "velocity": 1
        },
        {
          "duration": 0.7199999999999989,
          "durationTicks": 144,
          "midi": 74,
          "name": "D5",
          "ticks": 27264,
          "time": 136.32,
          "velocity": 1
        },
        {
          "duration": 0.7199999999999989,
          "durationTicks": 144,
          "midi": 67,
          "name": "G4",
          "ticks": 27264,
          "time": 136.32,
          "velocity": 1
        },
        {
          "duration": 0.12000000000000455,
          "durationTicks": 24,
          "midi": 69,
          "name": "A4",
          "ticks": 27408,
          "time": 137.04,
          "velocity": 1
        },
        {
          "duration": 0.12000000000000455,
          "durationTicks": 24,
          "midi": 72,
          "name": "C5",
          "ticks": 27408,
          "time": 137.04,
          "velocity": 1
        },
        {
          "duration": 0.12000000000000455,
          "durationTicks": 24,
          "midi": 70,
          "name": "A#4",
          "ticks": 27456,
          "time": 137.28,
          "velocity": 1
        },
        {
          "duration": 0.12000000000000455,
          "durationTicks": 24,
          "midi": 67,
          "name": "G4",
          "ticks": 27456,
          "time": 137.28,
          "velocity": 1
        },
        {
          "duration": 0.12000000000000455,
          "durationTicks": 24,
          "midi": 69,
          "name": "A4",
          "ticks": 27504,
          "time": 137.51999999999998,
          "velocity": 1
        },
        {
          "duration": 0.12000000000000455,
          "durationTicks": 24,
          "midi": 72,
          "name": "C5",
          "ticks": 27504,
          "time": 137.51999999999998,
          "velocity": 1
        },
        {
          "duration": 0.12000000000000455,
          "durationTicks": 24,
          "midi": 74,
          "name": "D5",
          "ticks": 27552,
          "time": 137.76,
          "velocity": 1
        },
        {
          "duration": 0.12000000000000455,
          "durationTicks": 24,
          "midi": 70,
          "name": "A#4",
          "ticks": 27552,
          "time": 137.76,
          "velocity": 1
        },
        {
          "duration": 0.12000000000000455,
          "durationTicks": 24,
          "midi": 72,
          "name": "C5",
          "ticks": 27600,
          "time": 138,
          "velocity": 1
        },
        {
          "duration": 0.12000000000000455,
          "durationTicks": 24,
          "midi": 75,
          "name": "D#5",
          "ticks": 27600,
          "time": 138,
          "velocity": 1
        },
        {
          "duration": 0.11999999999997613,
          "durationTicks": 24,
          "midi": 74,
          "name": "D5",
          "ticks": 27648,
          "time": 138.24,
          "velocity": 1
        },
        {
          "duration": 0.11999999999997613,
          "durationTicks": 24,
          "midi": 77,
          "name": "F5",
          "ticks": 27648,
          "time": 138.24,
          "velocity": 1
        },
        {
          "duration": 0.12000000000000455,
          "durationTicks": 24,
          "midi": 74,
          "name": "D5",
          "ticks": 27696,
          "time": 138.48,
          "velocity": 1
        },
        {
          "duration": 0.12000000000000455,
          "durationTicks": 24,
          "midi": 77,
          "name": "F5",
          "ticks": 27696,
          "time": 138.48,
          "velocity": 1
        },
        {
          "duration": 0.12000000000000455,
          "durationTicks": 24,
          "midi": 77,
          "name": "F5",
          "ticks": 27744,
          "time": 138.72,
          "velocity": 1
        },
        {
          "duration": 0.12000000000000455,
          "durationTicks": 24,
          "midi": 74,
          "name": "D5",
          "ticks": 27744,
          "time": 138.72,
          "velocity": 1
        },
        {
          "duration": 0.11999999999997613,
          "durationTicks": 24,
          "midi": 74,
          "name": "D5",
          "ticks": 27792,
          "time": 138.96,
          "velocity": 1
        },
        {
          "duration": 0.11999999999997613,
          "durationTicks": 24,
          "midi": 77,
          "name": "F5",
          "ticks": 27792,
          "time": 138.96,
          "velocity": 1
        },
        {
          "duration": 0.4800000000000182,
          "durationTicks": 96,
          "midi": 77,
          "name": "F5",
          "ticks": 27840,
          "time": 139.2,
          "velocity": 1
        },
        {
          "duration": 0.4800000000000182,
          "durationTicks": 96,
          "midi": 74,
          "name": "D5",
          "ticks": 27840,
          "time": 139.2,
          "velocity": 1
        },
        {
          "duration": 0.23999999999998067,
          "durationTicks": 48,
          "midi": 67,
          "name": "G4",
          "ticks": 27936,
          "time": 139.68,
          "velocity": 1
        },
        {
          "duration": 0.23999999999998067,
          "durationTicks": 48,
          "midi": 72,
          "name": "C5",
          "ticks": 27936,
          "time": 139.68,
          "velocity": 1
        },
        {
          "duration": 0.2400000000000091,
          "durationTicks": 48,
          "midi": 74,
          "name": "D5",
          "ticks": 27984,
          "time": 139.92,
          "velocity": 1
        },
        {
          "duration": 0.2400000000000091,
          "durationTicks": 48,
          "midi": 70,
          "name": "A#4",
          "ticks": 27984,
          "time": 139.92,
          "velocity": 1
        },
        {
          "duration": 0.12000000000000455,
          "durationTicks": 24,
          "midi": 67,
          "name": "G4",
          "ticks": 28032,
          "time": 140.16,
          "velocity": 1
        },
        {
          "duration": 0.12000000000000455,
          "durationTicks": 24,
          "midi": 72,
          "name": "C5",
          "ticks": 28032,
          "time": 140.16,
          "velocity": 1
        },
        {
          "duration": 0.11999999999997613,
          "durationTicks": 24,
          "midi": 72,
          "name": "C5",
          "ticks": 28080,
          "time": 140.4,
          "velocity": 1
        },
        {
          "duration": 0.11999999999997613,
          "durationTicks": 24,
          "midi": 67,
          "name": "G4",
          "ticks": 28080,
          "time": 140.4,
          "velocity": 1
        },
        {
          "duration": 0.12000000000000455,
          "durationTicks": 24,
          "midi": 67,
          "name": "G4",
          "ticks": 28128,
          "time": 140.64,
          "velocity": 1
        },
        {
          "duration": 0.12000000000000455,
          "durationTicks": 24,
          "midi": 72,
          "name": "C5",
          "ticks": 28128,
          "time": 140.64,
          "velocity": 1
        },
        {
          "duration": 0.12000000000000455,
          "durationTicks": 24,
          "midi": 72,
          "name": "C5",
          "ticks": 28176,
          "time": 140.88,
          "velocity": 1
        },
        {
          "duration": 0.12000000000000455,
          "durationTicks": 24,
          "midi": 67,
          "name": "G4",
          "ticks": 28176,
          "time": 140.88,
          "velocity": 1
        },
        {
          "duration": 0.4199999999999875,
          "durationTicks": 84,
          "midi": 72,
          "name": "C5",
          "ticks": 28224,
          "time": 141.12,
          "velocity": 1
        },
        {
          "duration": 0.4199999999999875,
          "durationTicks": 84,
          "midi": 67,
          "name": "G4",
          "ticks": 28224,
          "time": 141.12,
          "velocity": 1
        },
        {
          "duration": 0.060000000000002274,
          "durationTicks": 12,
          "midi": 73,
          "name": "C#5",
          "ticks": 28308,
          "time": 141.54,
          "velocity": 1
        },
        {
          "duration": 0.2400000000000091,
          "durationTicks": 48,
          "midi": 70,
          "name": "A#4",
          "ticks": 28320,
          "time": 141.6,
          "velocity": 1
        },
        {
          "duration": 0.2400000000000091,
          "durationTicks": 48,
          "midi": 74,
          "name": "D5",
          "ticks": 28320,
          "time": 141.6,
          "velocity": 1
        },
        {
          "duration": 0.23999999999998067,
          "durationTicks": 48,
          "midi": 72,
          "name": "C5",
          "ticks": 28368,
          "time": 141.84,
          "velocity": 1
        },
        {
          "duration": 0.23999999999998067,
          "durationTicks": 48,
          "midi": 69,
          "name": "A4",
          "ticks": 28368,
          "time": 141.84,
          "velocity": 1
        },
        {
          "duration": 0.7199999999999989,
          "durationTicks": 144,
          "midi": 65,
          "name": "F4",
          "ticks": 28416,
          "time": 142.07999999999998,
          "velocity": 1
        },
        {
          "duration": 0.7199999999999989,
          "durationTicks": 144,
          "midi": 70,
          "name": "A#4",
          "ticks": 28416,
          "time": 142.07999999999998,
          "velocity": 1
        },
        {
          "duration": 0.2400000000000091,
          "durationTicks": 48,
          "midi": 58,
          "name": "A#3",
          "ticks": 28560,
          "time": 142.79999999999998,
          "velocity": 1
        },
        {
          "duration": 0.2400000000000091,
          "durationTicks": 48,
          "midi": 65,
          "name": "F4",
          "ticks": 28560,
          "time": 142.79999999999998,
          "velocity": 1
        },
        {
          "duration": 0.47999999999998977,
          "durationTicks": 96,
          "midi": 62,
          "name": "D4",
          "ticks": 28608,
          "time": 143.04,
          "velocity": 1
        },
        {
          "duration": 0.2400000000000091,
          "durationTicks": 48,
          "midi": 74,
          "name": "D5",
          "ticks": 28608,
          "time": 143.04,
          "velocity": 1
        },
        {
          "duration": 0.23999999999998067,
          "durationTicks": 48,
          "midi": 75,
          "name": "D#5",
          "ticks": 28656,
          "time": 143.28,
          "velocity": 1
        },
        {
          "duration": 0.36000000000001364,
          "durationTicks": 72,
          "midi": 72,
          "name": "C5",
          "ticks": 28704,
          "time": 143.51999999999998,
          "velocity": 1
        },
        {
          "duration": 0.36000000000001364,
          "durationTicks": 72,
          "midi": 65,
          "name": "F4",
          "ticks": 28704,
          "time": 143.51999999999998,
          "velocity": 1
        },
        {
          "duration": 0.12000000000000455,
          "durationTicks": 24,
          "midi": 63,
          "name": "D#4",
          "ticks": 28776,
          "time": 143.88,
          "velocity": 1
        },
        {
          "duration": 0.12000000000000455,
          "durationTicks": 24,
          "midi": 70,
          "name": "A#4",
          "ticks": 28776,
          "time": 143.88,
          "velocity": 1
        },
        {
          "duration": 1.9199999999999875,
          "durationTicks": 384,
          "midi": 70,
          "name": "A#4",
          "ticks": 28800,
          "time": 144,
          "velocity": 1
        },
        {
          "duration": 1.9199999999999875,
          "durationTicks": 384,
          "midi": 62,
          "name": "D4",
          "ticks": 28800,
          "time": 144,
          "velocity": 1
        },
        {
          "duration": 0.960000000000008,
          "durationTicks": 192,
          "midi": 75,
          "name": "D#5",
          "ticks": 29184,
          "time": 145.92,
          "velocity": 1
        },
        {
          "duration": 0.960000000000008,
          "durationTicks": 192,
          "midi": 72,
          "name": "C5",
          "ticks": 29184,
          "time": 145.92,
          "velocity": 1
        },
        {
          "duration": 0.960000000000008,
          "durationTicks": 192,
          "midi": 82,
          "name": "A#5",
          "ticks": 29184,
          "time": 145.92,
          "velocity": 1
        },
        {
          "duration": 0.12000000000000455,
          "durationTicks": 24,
          "midi": 77,
          "name": "F5",
          "ticks": 29376,
          "time": 146.88,
          "velocity": 1
        },
        {
          "duration": 0.12000000000000455,
          "durationTicks": 24,
          "midi": 82,
          "name": "A#5",
          "ticks": 29376,
          "time": 146.88,
          "velocity": 1
        },
        {
          "duration": 0.060000000000002274,
          "durationTicks": 12,
          "midi": 81,
          "name": "A5",
          "ticks": 29424,
          "time": 147.12,
          "velocity": 1
        },
        {
          "duration": 0.060000000000002274,
          "durationTicks": 12,
          "midi": 77,
          "name": "F5",
          "ticks": 29424,
          "time": 147.12,
          "velocity": 1
        },
        {
          "duration": 0.05999999999997385,
          "durationTicks": 12,
          "midi": 82,
          "name": "A#5",
          "ticks": 29436,
          "time": 147.18,
          "velocity": 1
        },
        {
          "duration": 0.05999999999997385,
          "durationTicks": 12,
          "midi": 79,
          "name": "G5",
          "ticks": 29436,
          "time": 147.18,
          "velocity": 1
        },
        {
          "duration": 0.060000000000002274,
          "durationTicks": 12,
          "midi": 81,
          "name": "A5",
          "ticks": 29448,
          "time": 147.23999999999998,
          "velocity": 1
        },
        {
          "duration": 0.060000000000002274,
          "durationTicks": 12,
          "midi": 77,
          "name": "F5",
          "ticks": 29448,
          "time": 147.23999999999998,
          "velocity": 1
        },
        {
          "duration": 0.2400000000000091,
          "durationTicks": 48,
          "midi": 75,
          "name": "D#5",
          "ticks": 29472,
          "time": 147.35999999999999,
          "velocity": 1
        },
        {
          "duration": 0.2400000000000091,
          "durationTicks": 48,
          "midi": 79,
          "name": "G5",
          "ticks": 29472,
          "time": 147.35999999999999,
          "velocity": 1
        },
        {
          "duration": 0.2400000000000091,
          "durationTicks": 48,
          "midi": 77,
          "name": "F5",
          "ticks": 29520,
          "time": 147.6,
          "velocity": 1
        },
        {
          "duration": 0.2400000000000091,
          "durationTicks": 48,
          "midi": 81,
          "name": "A5",
          "ticks": 29520,
          "time": 147.6,
          "velocity": 1
        },
        {
          "duration": 0.9599999999999795,
          "durationTicks": 192,
          "midi": 77,
          "name": "F5",
          "ticks": 29568,
          "time": 147.84,
          "velocity": 1
        },
        {
          "duration": 0.9599999999999795,
          "durationTicks": 192,
          "midi": 72,
          "name": "C5",
          "ticks": 29568,
          "time": 147.84,
          "velocity": 1
        },
        {
          "duration": 0.9599999999999795,
          "durationTicks": 192,
          "midi": 82,
          "name": "A#5",
          "ticks": 29568,
          "time": 147.84,
          "velocity": 1
        },
        {
          "duration": 0.12000000000000455,
          "durationTicks": 24,
          "midi": 79,
          "name": "G5",
          "ticks": 29760,
          "time": 148.79999999999998,
          "velocity": 1
        },
        {
          "duration": 0.12000000000000455,
          "durationTicks": 24,
          "midi": 82,
          "name": "A#5",
          "ticks": 29760,
          "time": 148.79999999999998,
          "velocity": 1
        },
        {
          "duration": 0.060000000000002274,
          "durationTicks": 12,
          "midi": 77,
          "name": "F5",
          "ticks": 29808,
          "time": 149.04,
          "velocity": 1
        },
        {
          "duration": 0.060000000000002274,
          "durationTicks": 12,
          "midi": 81,
          "name": "A5",
          "ticks": 29808,
          "time": 149.04,
          "velocity": 1
        },
        {
          "duration": 0.060000000000002274,
          "durationTicks": 12,
          "midi": 79,
          "name": "G5",
          "ticks": 29820,
          "time": 149.1,
          "velocity": 1
        },
        {
          "duration": 0.060000000000002274,
          "durationTicks": 12,
          "midi": 82,
          "name": "A#5",
          "ticks": 29820,
          "time": 149.1,
          "velocity": 1
        },
        {
          "duration": 0.060000000000002274,
          "durationTicks": 12,
          "midi": 77,
          "name": "F5",
          "ticks": 29832,
          "time": 149.16,
          "velocity": 1
        },
        {
          "duration": 0.060000000000002274,
          "durationTicks": 12,
          "midi": 81,
          "name": "A5",
          "ticks": 29832,
          "time": 149.16,
          "velocity": 1
        },
        {
          "duration": 0.23999999999998067,
          "durationTicks": 48,
          "midi": 79,
          "name": "G5",
          "ticks": 29856,
          "time": 149.28,
          "velocity": 1
        },
        {
          "duration": 0.23999999999998067,
          "durationTicks": 48,
          "midi": 74,
          "name": "D5",
          "ticks": 29856,
          "time": 149.28,
          "velocity": 1
        },
        {
          "duration": 0.2400000000000091,
          "durationTicks": 48,
          "midi": 77,
          "name": "F5",
          "ticks": 29904,
          "time": 149.51999999999998,
          "velocity": 1
        },
        {
          "duration": 0.2400000000000091,
          "durationTicks": 48,
          "midi": 81,
          "name": "A5",
          "ticks": 29904,
          "time": 149.51999999999998,
          "velocity": 1
        },
        {
          "duration": 0.7199999999999989,
          "durationTicks": 144,
          "midi": 74,
          "name": "D5",
          "ticks": 29952,
          "time": 149.76,
          "velocity": 1
        },
        {
          "duration": 0.7199999999999989,
          "durationTicks": 144,
          "midi": 82,
          "name": "A#5",
          "ticks": 29952,
          "time": 149.76,
          "velocity": 1
        },
        {
          "duration": 0.7199999999999989,
          "durationTicks": 144,
          "midi": 77,
          "name": "F5",
          "ticks": 29952,
          "time": 149.76,
          "velocity": 1
        },
        {
          "duration": 0.2400000000000091,
          "durationTicks": 48,
          "midi": 81,
          "name": "A5",
          "ticks": 30096,
          "time": 150.48,
          "velocity": 1
        },
        {
          "duration": 0.6599999999999966,
          "durationTicks": 132,
          "midi": 77,
          "name": "F5",
          "ticks": 30144,
          "time": 150.72,
          "velocity": 1
        },
        {
          "duration": 0.6599999999999966,
          "durationTicks": 132,
          "midi": 72,
          "name": "C5",
          "ticks": 30144,
          "time": 150.72,
          "velocity": 1
        },
        {
          "duration": 0.060000000000002274,
          "durationTicks": 12,
          "midi": 74,
          "name": "D5",
          "ticks": 30276,
          "time": 151.38,
          "velocity": 1
        },
        {
          "duration": 0.2400000000000091,
          "durationTicks": 48,
          "midi": 75,
          "name": "D#5",
          "ticks": 30288,
          "time": 151.44,
          "velocity": 1
        },
        {
          "duration": 0.2400000000000091,
          "durationTicks": 48,
          "midi": 70,
          "name": "A#4",
          "ticks": 30288,
          "time": 151.44,
          "velocity": 1
        },
        {
          "duration": 0.7199999999999989,
          "durationTicks": 144,
          "midi": 74,
          "name": "D5",
          "ticks": 30336,
          "time": 151.68,
          "velocity": 1
        },
        {
          "duration": 0.7199999999999989,
          "durationTicks": 144,
          "midi": 67,
          "name": "G4",
          "ticks": 30336,
          "time": 151.68,
          "velocity": 1
        },
        {
          "duration": 0.11999999999997613,
          "durationTicks": 24,
          "midi": 69,
          "name": "A4",
          "ticks": 30480,
          "time": 152.4,
          "velocity": 1
        },
        {
          "duration": 0.11999999999997613,
          "durationTicks": 24,
          "midi": 72,
          "name": "C5",
          "ticks": 30480,
          "time": 152.4,
          "velocity": 1
        },
        {
          "duration": 0.12000000000000455,
          "durationTicks": 24,
          "midi": 70,
          "name": "A#4",
          "ticks": 30528,
          "time": 152.64,
          "velocity": 1
        },
        {
          "duration": 0.12000000000000455,
          "durationTicks": 24,
          "midi": 67,
          "name": "G4",
          "ticks": 30528,
          "time": 152.64,
          "velocity": 1
        },
        {
          "duration": 0.12000000000000455,
          "durationTicks": 24,
          "midi": 72,
          "name": "C5",
          "ticks": 30576,
          "time": 152.88,
          "velocity": 1
        },
        {
          "duration": 0.12000000000000455,
          "durationTicks": 24,
          "midi": 69,
          "name": "A4",
          "ticks": 30576,
          "time": 152.88,
          "velocity": 1
        },
        {
          "duration": 0.11999999999997613,
          "durationTicks": 24,
          "midi": 74,
          "name": "D5",
          "ticks": 30624,
          "time": 153.12,
          "velocity": 1
        },
        {
          "duration": 0.11999999999997613,
          "durationTicks": 24,
          "midi": 70,
          "name": "A#4",
          "ticks": 30624,
          "time": 153.12,
          "velocity": 1
        },
        {
          "duration": 0.12000000000000455,
          "durationTicks": 24,
          "midi": 72,
          "name": "C5",
          "ticks": 30672,
          "time": 153.35999999999999,
          "velocity": 1
        },
        {
          "duration": 0.12000000000000455,
          "durationTicks": 24,
          "midi": 75,
          "name": "D#5",
          "ticks": 30672,
          "time": 153.35999999999999,
          "velocity": 1
        },
        {
          "duration": 0.12000000000000455,
          "durationTicks": 24,
          "midi": 74,
          "name": "D5",
          "ticks": 30720,
          "time": 153.6,
          "velocity": 1
        },
        {
          "duration": 0.12000000000000455,
          "durationTicks": 24,
          "midi": 77,
          "name": "F5",
          "ticks": 30720,
          "time": 153.6,
          "velocity": 1
        },
        {
          "duration": 0.12000000000000455,
          "durationTicks": 24,
          "midi": 77,
          "name": "F5",
          "ticks": 30768,
          "time": 153.84,
          "velocity": 1
        },
        {
          "duration": 0.12000000000000455,
          "durationTicks": 24,
          "midi": 74,
          "name": "D5",
          "ticks": 30768,
          "time": 153.84,
          "velocity": 1
        },
        {
          "duration": 0.12000000000000455,
          "durationTicks": 24,
          "midi": 77,
          "name": "F5",
          "ticks": 30816,
          "time": 154.07999999999998,
          "velocity": 1
        },
        {
          "duration": 0.12000000000000455,
          "durationTicks": 24,
          "midi": 74,
          "name": "D5",
          "ticks": 30816,
          "time": 154.07999999999998,
          "velocity": 1
        },
        {
          "duration": 0.12000000000000455,
          "durationTicks": 24,
          "midi": 74,
          "name": "D5",
          "ticks": 30864,
          "time": 154.32,
          "velocity": 1
        },
        {
          "duration": 0.12000000000000455,
          "durationTicks": 24,
          "midi": 77,
          "name": "F5",
          "ticks": 30864,
          "time": 154.32,
          "velocity": 1
        },
        {
          "duration": 0.47999999999998977,
          "durationTicks": 96,
          "midi": 77,
          "name": "F5",
          "ticks": 30912,
          "time": 154.56,
          "velocity": 1
        },
        {
          "duration": 0.47999999999998977,
          "durationTicks": 96,
          "midi": 74,
          "name": "D5",
          "ticks": 30912,
          "time": 154.56,
          "velocity": 1
        },
        {
          "duration": 0.2400000000000091,
          "durationTicks": 48,
          "midi": 67,
          "name": "G4",
          "ticks": 31008,
          "time": 155.04,
          "velocity": 1
        },
        {
          "duration": 0.2400000000000091,
          "durationTicks": 48,
          "midi": 72,
          "name": "C5",
          "ticks": 31008,
          "time": 155.04,
          "velocity": 1
        },
        {
          "duration": 0.23999999999998067,
          "durationTicks": 48,
          "midi": 74,
          "name": "D5",
          "ticks": 31056,
          "time": 155.28,
          "velocity": 1
        },
        {
          "duration": 0.23999999999998067,
          "durationTicks": 48,
          "midi": 70,
          "name": "A#4",
          "ticks": 31056,
          "time": 155.28,
          "velocity": 1
        },
        {
          "duration": 0.12000000000000455,
          "durationTicks": 24,
          "midi": 67,
          "name": "G4",
          "ticks": 31104,
          "time": 155.51999999999998,
          "velocity": 1
        },
        {
          "duration": 0.12000000000000455,
          "durationTicks": 24,
          "midi": 72,
          "name": "C5",
          "ticks": 31104,
          "time": 155.51999999999998,
          "velocity": 1
        },
        {
          "duration": 0.12000000000000455,
          "durationTicks": 24,
          "midi": 67,
          "name": "G4",
          "ticks": 31152,
          "time": 155.76,
          "velocity": 1
        },
        {
          "duration": 0.12000000000000455,
          "durationTicks": 24,
          "midi": 72,
          "name": "C5",
          "ticks": 31152,
          "time": 155.76,
          "velocity": 1
        },
        {
          "duration": 0.12000000000000455,
          "durationTicks": 24,
          "midi": 67,
          "name": "G4",
          "ticks": 31200,
          "time": 156,
          "velocity": 1
        },
        {
          "duration": 0.12000000000000455,
          "durationTicks": 24,
          "midi": 72,
          "name": "C5",
          "ticks": 31200,
          "time": 156,
          "velocity": 1
        },
        {
          "duration": 0.12000000000000455,
          "durationTicks": 24,
          "midi": 72,
          "name": "C5",
          "ticks": 31248,
          "time": 156.23999999999998,
          "velocity": 1
        },
        {
          "duration": 0.12000000000000455,
          "durationTicks": 24,
          "midi": 67,
          "name": "G4",
          "ticks": 31248,
          "time": 156.23999999999998,
          "velocity": 1
        },
        {
          "duration": 0.4200000000000159,
          "durationTicks": 84,
          "midi": 72,
          "name": "C5",
          "ticks": 31296,
          "time": 156.48,
          "velocity": 1
        },
        {
          "duration": 0.4200000000000159,
          "durationTicks": 84,
          "midi": 67,
          "name": "G4",
          "ticks": 31296,
          "time": 156.48,
          "velocity": 1
        },
        {
          "duration": 0.060000000000002274,
          "durationTicks": 12,
          "midi": 73,
          "name": "C#5",
          "ticks": 31380,
          "time": 156.9,
          "velocity": 1
        },
        {
          "duration": 0.23999999999998067,
          "durationTicks": 48,
          "midi": 70,
          "name": "A#4",
          "ticks": 31392,
          "time": 156.96,
          "velocity": 1
        },
        {
          "duration": 0.23999999999998067,
          "durationTicks": 48,
          "midi": 74,
          "name": "D5",
          "ticks": 31392,
          "time": 156.96,
          "velocity": 1
        },
        {
          "duration": 0.2400000000000091,
          "durationTicks": 48,
          "midi": 72,
          "name": "C5",
          "ticks": 31440,
          "time": 157.2,
          "velocity": 1
        },
        {
          "duration": 0.2400000000000091,
          "durationTicks": 48,
          "midi": 69,
          "name": "A4",
          "ticks": 31440,
          "time": 157.2,
          "velocity": 1
        },
        {
          "duration": 0.7199999999999989,
          "durationTicks": 144,
          "midi": 65,
          "name": "F4",
          "ticks": 31488,
          "time": 157.44,
          "velocity": 1
        },
        {
          "duration": 0.7199999999999989,
          "durationTicks": 144,
          "midi": 70,
          "name": "A#4",
          "ticks": 31488,
          "time": 157.44,
          "velocity": 1
        },
        {
          "duration": 0.2400000000000091,
          "durationTicks": 48,
          "midi": 58,
          "name": "A#3",
          "ticks": 31632,
          "time": 158.16,
          "velocity": 1
        },
        {
          "duration": 0.2400000000000091,
          "durationTicks": 48,
          "midi": 65,
          "name": "F4",
          "ticks": 31632,
          "time": 158.16,
          "velocity": 1
        },
        {
          "duration": 0.47999999999998977,
          "durationTicks": 96,
          "midi": 62,
          "name": "D4",
          "ticks": 31680,
          "time": 158.4,
          "velocity": 1
        },
        {
          "duration": 0.23999999999998067,
          "durationTicks": 48,
          "midi": 74,
          "name": "D5",
          "ticks": 31680,
          "time": 158.4,
          "velocity": 1
        },
        {
          "duration": 0.2400000000000091,
          "durationTicks": 48,
          "midi": 75,
          "name": "D#5",
          "ticks": 31728,
          "time": 158.64,
          "velocity": 1
        },
        {
          "duration": 0.3599999999999852,
          "durationTicks": 72,
          "midi": 65,
          "name": "F4",
          "ticks": 31776,
          "time": 158.88,
          "velocity": 1
        },
        {
          "duration": 0.3599999999999852,
          "durationTicks": 72,
          "midi": 72,
          "name": "C5",
          "ticks": 31776,
          "time": 158.88,
          "velocity": 1
        },
        {
          "duration": 0.12000000000000455,
          "durationTicks": 24,
          "midi": 70,
          "name": "A#4",
          "ticks": 31848,
          "time": 159.23999999999998,
          "velocity": 1
        },
        {
          "duration": 0.12000000000000455,
          "durationTicks": 24,
          "midi": 63,
          "name": "D#4",
          "ticks": 31848,
          "time": 159.23999999999998,
          "velocity": 1
        },
        {
          "duration": 1.914999999999992,
          "durationTicks": 383,
          "midi": 62,
          "name": "D4",
          "ticks": 31872,
          "time": 159.35999999999999,
          "velocity": 1
        },
        {
          "duration": 1.914999999999992,
          "durationTicks": 383,
          "midi": 70,
          "name": "A#4",
          "ticks": 31872,
          "time": 159.35999999999999,
          "velocity": 1
        }
      ]
    },
    {
      "channel": 0,
      "controlChanges": {
        "6": [
          {
            "number": 6,
            "ticks": 0,
            "time": 0,
            "value": 0.09448818897637795
          }
        ],
        "7": [
          {
            "number": 7,
            "ticks": 0,
            "time": 0,
            "value": 0.7874015748031497
          },
          {
            "number": 7,
            "ticks": 0,
            "time": 0,
            "value": 0.7874015748031497
          }
        ],
        "10": [
          {
            "number": 10,
            "ticks": 0,
            "time": 0,
            "value": 0.5039370078740157
          },
          {
            "number": 10,
            "ticks": 0,
            "time": 0,
            "value": 0.5039370078740157
          }
        ],
        "100": [
          {
            "number": 100,
            "ticks": 0,
            "time": 0,
            "value": 0
          }
        ],
        "101": [
          {
            "number": 101,
            "ticks": 0,
            "time": 0,
            "value": 0
          }
        ]
      },
      "pitchBends": [
        {
          "ticks": 0,
          "time": 0,
          "value": 0
        },
        {
          "ticks": 0,
          "time": 0,
          "value": 0
        }
      ],
      "instrument": {
        "family": "piano",
        "number": 0,
        "name": "acoustic grand piano"
      },
      "name": "Arp. Piano",
      "notes": [],
      "endOfTrackTicks": 32340
    },
    {
      "channel": 1,
      "controlChanges": {
        "6": [
          {
            "number": 6,
            "ticks": 0,
            "time": 0,
            "value": 0.09448818897637795
          },
          {
            "number": 6,
            "ticks": 32256,
            "time": 161.28,
            "value": 0.09448818897637795
          },
          {
            "number": 6,
            "ticks": 32340,
            "time": 161.7,
            "value": 0.09448818897637795
          },
          {
            "number": 6,
            "ticks": 32340,
            "time": 161.7,
            "value": 0.09448818897637795
          }
        ],
        "7": [
          {
            "number": 7,
            "ticks": 0,
            "time": 0,
            "value": 0.7874015748031497
          },
          {
            "number": 7,
            "ticks": 32256,
            "time": 161.28,
            "value": 0.7874015748031497
          },
          {
            "number": 7,
            "ticks": 32340,
            "time": 161.7,
            "value": 0.7874015748031497
          },
          {
            "number": 7,
            "ticks": 32340,
            "time": 161.7,
            "value": 0.7874015748031497
          }
        ],
        "10": [
          {
            "number": 10,
            "ticks": 0,
            "time": 0,
            "value": 0.5039370078740157
          },
          {
            "number": 10,
            "ticks": 32256,
            "time": 161.28,
            "value": 0.5039370078740157
          },
          {
            "number": 10,
            "ticks": 32340,
            "time": 161.7,
            "value": 0.5039370078740157
          },
          {
            "number": 10,
            "ticks": 32340,
            "time": 161.7,
            "value": 0.5039370078740157
          }
        ],
        "100": [
          {
            "number": 100,
            "ticks": 0,
            "time": 0,
            "value": 0
          },
          {
            "number": 100,
            "ticks": 32256,
            "time": 161.28,
            "value": 0
          },
          {
            "number": 100,
            "ticks": 32340,
            "time": 161.7,
            "value": 0
          },
          {
            "number": 100,
            "ticks": 32340,
            "time": 161.7,
            "value": 0
          }
        ],
        "101": [
          {
            "number": 101,
            "ticks": 0,
            "time": 0,
            "value": 0
          },
          {
            "number": 101,
            "ticks": 32256,
            "time": 161.28,
            "value": 0
          },
          {
            "number": 101,
            "ticks": 32340,
            "time": 161.7,
            "value": 0
          },
          {
            "number": 101,
            "ticks": 32340,
            "time": 161.7,
            "value": 0
          }
        ]
      },
      "pitchBends": [
        {
          "ticks": 0,
          "time": 0,
          "value": 0
        },
        {
          "ticks": 32256,
          "time": 161.28,
          "value": 0
        },
        {
          "ticks": 32340,
          "time": 161.7,
          "value": 0
        },
        {
          "ticks": 32340,
          "time": 161.7,
          "value": 0
        }
      ],
      "instrument": {
        "family": "piano",
        "number": 2,
        "name": "electric grand piano"
      },
      "name": "",
      "notes": [
        {
          "duration": 0.06,
          "durationTicks": 12,
          "midi": 55,
          "name": "G3",
          "ticks": 0,
          "time": 0,
          "velocity": 0.5039370078740157
        },
        {
          "duration": 0.06,
          "durationTicks": 12,
          "midi": 67,
          "name": "G4",
          "ticks": 24,
          "time": 0.12,
          "velocity": 0.5039370078740157
        },
        {
          "duration": 0.06,
          "durationTicks": 12,
          "midi": 62,
          "name": "D4",
          "ticks": 48,
          "time": 0.24,
          "velocity": 0.5039370078740157
        },
        {
          "duration": 0.06,
          "durationTicks": 12,
          "midi": 55,
          "name": "G3",
          "ticks": 72,
          "time": 0.36,
          "velocity": 0.5039370078740157
        },
        {
          "duration": 0.06000000000000005,
          "durationTicks": 12,
          "midi": 67,
          "name": "G4",
          "ticks": 96,
          "time": 0.48,
          "velocity": 0.5039370078740157
        },
        {
          "duration": 0.05999999999999994,
          "durationTicks": 12,
          "midi": 62,
          "name": "D4",
          "ticks": 120,
          "time": 0.6,
          "velocity": 0.5039370078740157
        },
        {
          "duration": 0.12,
          "durationTicks": 24,
          "midi": 53,
          "name": "F3",
          "ticks": 144,
          "time": 0.72,
          "velocity": 0.5039370078740157
        },
        {
          "duration": 0.06000000000000005,
          "durationTicks": 12,
          "midi": 55,
          "name": "G3",
          "ticks": 192,
          "time": 0.96,
          "velocity": 0.5039370078740157
        },
        {
          "duration": 0.05999999999999983,
          "durationTicks": 12,
          "midi": 67,
          "name": "G4",
          "ticks": 216,
          "time": 1.08,
          "velocity": 0.5039370078740157
        },
        {
          "duration": 0.06000000000000005,
          "durationTicks": 12,
          "midi": 62,
          "name": "D4",
          "ticks": 240,
          "time": 1.2,
          "velocity": 0.5039370078740157
        },
        {
          "duration": 0.06000000000000005,
          "durationTicks": 12,
          "midi": 55,
          "name": "G3",
          "ticks": 264,
          "time": 1.3199999999999998,
          "velocity": 0.5039370078740157
        },
        {
          "duration": 0.06000000000000005,
          "durationTicks": 12,
          "midi": 67,
          "name": "G4",
          "ticks": 288,
          "time": 1.44,
          "velocity": 0.5039370078740157
        },
        {
          "duration": 0.05999999999999983,
          "durationTicks": 12,
          "midi": 62,
          "name": "D4",
          "ticks": 312,
          "time": 1.56,
          "velocity": 0.5039370078740157
        },
        {
          "duration": 0.11999999999999988,
          "durationTicks": 24,
          "midi": 53,
          "name": "F3",
          "ticks": 336,
          "time": 1.68,
          "velocity": 0.5039370078740157
        },
        {
          "duration": 0.06000000000000005,
          "durationTicks": 12,
          "midi": 55,
          "name": "G3",
          "ticks": 384,
          "time": 1.92,
          "velocity": 0.5039370078740157
        },
        {
          "duration": 0.06000000000000005,
          "durationTicks": 12,
          "midi": 67,
          "name": "G4",
          "ticks": 408,
          "time": 2.04,
          "velocity": 0.5039370078740157
        },
        {
          "duration": 0.05999999999999961,
          "durationTicks": 12,
          "midi": 62,
          "name": "D4",
          "ticks": 432,
          "time": 2.16,
          "velocity": 0.5039370078740157
        },
        {
          "duration": 0.06000000000000005,
          "durationTicks": 12,
          "midi": 55,
          "name": "G3",
          "ticks": 456,
          "time": 2.28,
          "velocity": 0.5039370078740157
        },
        {
          "duration": 0.06000000000000005,
          "durationTicks": 12,
          "midi": 67,
          "name": "G4",
          "ticks": 480,
          "time": 2.4,
          "velocity": 0.5039370078740157
        },
        {
          "duration": 0.06000000000000005,
          "durationTicks": 12,
          "midi": 62,
          "name": "D4",
          "ticks": 504,
          "time": 2.52,
          "velocity": 0.5039370078740157
        },
        {
          "duration": 0.1200000000000001,
          "durationTicks": 24,
          "midi": 53,
          "name": "F3",
          "ticks": 528,
          "time": 2.6399999999999997,
          "velocity": 0.5039370078740157
        },
        {
          "duration": 0.06000000000000005,
          "durationTicks": 12,
          "midi": 55,
          "name": "G3",
          "ticks": 576,
          "time": 2.88,
          "velocity": 0.5039370078740157
        },
        {
          "duration": 0.06000000000000005,
          "durationTicks": 12,
          "midi": 67,
          "name": "G4",
          "ticks": 600,
          "time": 3,
          "velocity": 0.5039370078740157
        },
        {
          "duration": 0.05999999999999961,
          "durationTicks": 12,
          "midi": 62,
          "name": "D4",
          "ticks": 624,
          "time": 3.12,
          "velocity": 0.5039370078740157
        },
        {
          "duration": 0.06000000000000005,
          "durationTicks": 12,
          "midi": 55,
          "name": "G3",
          "ticks": 648,
          "time": 3.2399999999999998,
          "velocity": 0.5039370078740157
        },
        {
          "duration": 0.06000000000000005,
          "durationTicks": 12,
          "midi": 53,
          "name": "F3",
          "ticks": 672,
          "time": 3.36,
          "velocity": 0.5039370078740157
        },
        {
          "duration": 0.06000000000000005,
          "durationTicks": 12,
          "midi": 60,
          "name": "C4",
          "ticks": 696,
          "time": 3.48,
          "velocity": 0.5039370078740157
        },
        {
          "duration": 0.1200000000000001,
          "durationTicks": 24,
          "midi": 53,
          "name": "F3",
          "ticks": 720,
          "time": 3.5999999999999996,
          "velocity": 0.5039370078740157
        },
        {
          "duration": 0.06000000000000005,
          "durationTicks": 12,
          "midi": 55,
          "name": "G3",
          "ticks": 768,
          "time": 3.84,
          "velocity": 0.5039370078740157
        },
        {
          "duration": 0.05999999999999961,
          "durationTicks": 12,
          "midi": 67,
          "name": "G4",
          "ticks": 792,
          "time": 3.96,
          "velocity": 0.5039370078740157
        },
        {
          "duration": 0.05999999999999961,
          "durationTicks": 12,
          "midi": 62,
          "name": "D4",
          "ticks": 816,
          "time": 4.08,
          "velocity": 0.5039370078740157
        },
        {
          "duration": 0.05999999999999961,
          "durationTicks": 12,
          "midi": 55,
          "name": "G3",
          "ticks": 840,
          "time": 4.2,
          "velocity": 0.5039370078740157
        },
        {
          "duration": 0.05999999999999961,
          "durationTicks": 12,
          "midi": 67,
          "name": "G4",
          "ticks": 864,
          "time": 4.32,
          "velocity": 0.5039370078740157
        },
        {
          "duration": 0.0600000000000005,
          "durationTicks": 12,
          "midi": 62,
          "name": "D4",
          "ticks": 888,
          "time": 4.4399999999999995,
          "velocity": 0.5039370078740157
        },
        {
          "duration": 0.1200000000000001,
          "durationTicks": 24,
          "midi": 53,
          "name": "F3",
          "ticks": 912,
          "time": 4.56,
          "velocity": 0.5039370078740157
        },
        {
          "duration": 0.05999999999999961,
          "durationTicks": 12,
          "midi": 55,
          "name": "G3",
          "ticks": 960,
          "time": 4.8,
          "velocity": 0.5039370078740157
        },
        {
          "duration": 0.05999999999999961,
          "durationTicks": 12,
          "midi": 67,
          "name": "G4",
          "ticks": 984,
          "time": 4.92,
          "velocity": 0.5039370078740157
        },
        {
          "duration": 0.05999999999999961,
          "durationTicks": 12,
          "midi": 62,
          "name": "D4",
          "ticks": 1008,
          "time": 5.04,
          "velocity": 0.5039370078740157
        },
        {
          "duration": 0.05999999999999961,
          "durationTicks": 12,
          "midi": 55,
          "name": "G3",
          "ticks": 1032,
          "time": 5.16,
          "velocity": 0.5039370078740157
        },
        {
          "duration": 0.0600000000000005,
          "durationTicks": 12,
          "midi": 67,
          "name": "G4",
          "ticks": 1056,
          "time": 5.279999999999999,
          "velocity": 0.5039370078740157
        },
        {
          "duration": 0.0600000000000005,
          "durationTicks": 12,
          "midi": 62,
          "name": "D4",
          "ticks": 1080,
          "time": 5.3999999999999995,
          "velocity": 0.5039370078740157
        },
        {
          "duration": 0.1200000000000001,
          "durationTicks": 24,
          "midi": 53,
          "name": "F3",
          "ticks": 1104,
          "time": 5.52,
          "velocity": 0.5039370078740157
        },
        {
          "duration": 0.05999999999999961,
          "durationTicks": 12,
          "midi": 55,
          "name": "G3",
          "ticks": 1152,
          "time": 5.76,
          "velocity": 0.5039370078740157
        },
        {
          "duration": 0.05999999999999961,
          "durationTicks": 12,
          "midi": 67,
          "name": "G4",
          "ticks": 1176,
          "time": 5.88,
          "velocity": 0.5039370078740157
        },
        {
          "duration": 0.05999999999999961,
          "durationTicks": 12,
          "midi": 62,
          "name": "D4",
          "ticks": 1200,
          "time": 6,
          "velocity": 0.5039370078740157
        },
        {
          "duration": 0.05999999999999961,
          "durationTicks": 12,
          "midi": 55,
          "name": "G3",
          "ticks": 1224,
          "time": 6.12,
          "velocity": 0.5039370078740157
        },
        {
          "duration": 0.05999999999999961,
          "durationTicks": 12,
          "midi": 67,
          "name": "G4",
          "ticks": 1248,
          "time": 6.24,
          "velocity": 0.5039370078740157
        },
        {
          "duration": 0.0600000000000005,
          "durationTicks": 12,
          "midi": 62,
          "name": "D4",
          "ticks": 1272,
          "time": 6.359999999999999,
          "velocity": 0.5039370078740157
        },
        {
          "duration": 0.1200000000000001,
          "durationTicks": 24,
          "midi": 53,
          "name": "F3",
          "ticks": 1296,
          "time": 6.4799999999999995,
          "velocity": 0.5039370078740157
        },
        {
          "duration": 0.05999999999999961,
          "durationTicks": 12,
          "midi": 55,
          "name": "G3",
          "ticks": 1344,
          "time": 6.72,
          "velocity": 0.5039370078740157
        },
        {
          "duration": 0.05999999999999961,
          "durationTicks": 12,
          "midi": 67,
          "name": "G4",
          "ticks": 1368,
          "time": 6.84,
          "velocity": 0.5039370078740157
        },
        {
          "duration": 0.05999999999999961,
          "durationTicks": 12,
          "midi": 62,
          "name": "D4",
          "ticks": 1392,
          "time": 6.96,
          "velocity": 0.5039370078740157
        },
        {
          "duration": 0.05999999999999961,
          "durationTicks": 12,
          "midi": 55,
          "name": "G3",
          "ticks": 1416,
          "time": 7.08,
          "velocity": 0.5039370078740157
        },
        {
          "duration": 0.0600000000000005,
          "durationTicks": 12,
          "midi": 53,
          "name": "F3",
          "ticks": 1440,
          "time": 7.199999999999999,
          "velocity": 0.5039370078740157
        },
        {
          "duration": 0.0600000000000005,
          "durationTicks": 12,
          "midi": 60,
          "name": "C4",
          "ticks": 1464,
          "time": 7.319999999999999,
          "velocity": 0.5039370078740157
        },
        {
          "duration": 0.2400000000000002,
          "durationTicks": 48,
          "midi": 53,
          "name": "F3",
          "ticks": 1488,
          "time": 7.4399999999999995,
          "velocity": 0.5039370078740157
        },
        {
          "duration": 0.05999999999999961,
          "durationTicks": 12,
          "midi": 51,
          "name": "D#3",
          "ticks": 1536,
          "time": 7.68,
          "velocity": 0.5039370078740157
        },
        {
          "duration": 0.05999999999999961,
          "durationTicks": 12,
          "midi": 63,
          "name": "D#4",
          "ticks": 1560,
          "time": 7.8,
          "velocity": 0.5039370078740157
        },
        {
          "duration": 0.05999999999999961,
          "durationTicks": 12,
          "midi": 58,
          "name": "A#3",
          "ticks": 1584,
          "time": 7.92,
          "velocity": 0.5039370078740157
        },
        {
          "duration": 0.0600000000000005,
          "durationTicks": 12,
          "midi": 51,
          "name": "D#3",
          "ticks": 1608,
          "time": 8.04,
          "velocity": 0.5039370078740157
        },
        {
          "duration": 0.05999999999999872,
          "durationTicks": 12,
          "midi": 63,
          "name": "D#4",
          "ticks": 1632,
          "time": 8.16,
          "velocity": 0.5039370078740157
        },
        {
          "duration": 0.0600000000000005,
          "durationTicks": 12,
          "midi": 58,
          "name": "A#3",
          "ticks": 1656,
          "time": 8.28,
          "velocity": 0.5039370078740157
        },
        {
          "duration": 0.11999999999999922,
          "durationTicks": 24,
          "midi": 50,
          "name": "D3",
          "ticks": 1680,
          "time": 8.4,
          "velocity": 0.5039370078740157
        },
        {
          "duration": 0.05999999999999872,
          "durationTicks": 12,
          "midi": 51,
          "name": "D#3",
          "ticks": 1728,
          "time": 8.64,
          "velocity": 0.5039370078740157
        },
        {
          "duration": 0.0600000000000005,
          "durationTicks": 12,
          "midi": 63,
          "name": "D#4",
          "ticks": 1752,
          "time": 8.76,
          "velocity": 0.5039370078740157
        },
        {
          "duration": 0.0600000000000005,
          "durationTicks": 12,
          "midi": 58,
          "name": "A#3",
          "ticks": 1776,
          "time": 8.879999999999999,
          "velocity": 0.5039370078740157
        },
        {
          "duration": 0.0600000000000005,
          "durationTicks": 12,
          "midi": 51,
          "name": "D#3",
          "ticks": 1800,
          "time": 9,
          "velocity": 0.5039370078740157
        },
        {
          "duration": 0.0600000000000005,
          "durationTicks": 12,
          "midi": 63,
          "name": "D#4",
          "ticks": 1824,
          "time": 9.12,
          "velocity": 0.5039370078740157
        },
        {
          "duration": 0.05999999999999872,
          "durationTicks": 12,
          "midi": 58,
          "name": "A#3",
          "ticks": 1848,
          "time": 9.24,
          "velocity": 0.5039370078740157
        },
        {
          "duration": 0.120000000000001,
          "durationTicks": 24,
          "midi": 50,
          "name": "D3",
          "ticks": 1872,
          "time": 9.36,
          "velocity": 0.5039370078740157
        },
        {
          "duration": 0.0600000000000005,
          "durationTicks": 12,
          "midi": 51,
          "name": "D#3",
          "ticks": 1920,
          "time": 9.6,
          "velocity": 0.5039370078740157
        },
        {
          "duration": 0.0600000000000005,
          "durationTicks": 12,
          "midi": 63,
          "name": "D#4",
          "ticks": 1944,
          "time": 9.719999999999999,
          "velocity": 0.5039370078740157
        },
        {
          "duration": 0.0600000000000005,
          "durationTicks": 12,
          "midi": 58,
          "name": "A#3",
          "ticks": 1968,
          "time": 9.84,
          "velocity": 0.5039370078740157
        },
        {
          "duration": 0.0600000000000005,
          "durationTicks": 12,
          "midi": 51,
          "name": "D#3",
          "ticks": 1992,
          "time": 9.959999999999999,
          "velocity": 0.5039370078740157
        },
        {
          "duration": 0.05999999999999872,
          "durationTicks": 12,
          "midi": 63,
          "name": "D#4",
          "ticks": 2016,
          "time": 10.08,
          "velocity": 0.5039370078740157
        },
        {
          "duration": 0.0600000000000005,
          "durationTicks": 12,
          "midi": 58,
          "name": "A#3",
          "ticks": 2040,
          "time": 10.2,
          "velocity": 0.5039370078740157
        },
        {
          "duration": 0.11999999999999922,
          "durationTicks": 24,
          "midi": 50,
          "name": "D3",
          "ticks": 2064,
          "time": 10.32,
          "velocity": 0.5039370078740157
        },
        {
          "duration": 0.0600000000000005,
          "durationTicks": 12,
          "midi": 51,
          "name": "D#3",
          "ticks": 2112,
          "time": 10.559999999999999,
          "velocity": 0.5039370078740157
        },
        {
          "duration": 0.0600000000000005,
          "durationTicks": 12,
          "midi": 63,
          "name": "D#4",
          "ticks": 2136,
          "time": 10.68,
          "velocity": 0.5039370078740157
        },
        {
          "duration": 0.0600000000000005,
          "durationTicks": 12,
          "midi": 58,
          "name": "A#3",
          "ticks": 2160,
          "time": 10.799999999999999,
          "velocity": 0.5039370078740157
        },
        {
          "duration": 0.0600000000000005,
          "durationTicks": 12,
          "midi": 51,
          "name": "D#3",
          "ticks": 2184,
          "time": 10.92,
          "velocity": 0.5039370078740157
        },
        {
          "duration": 0.0600000000000005,
          "durationTicks": 12,
          "midi": 53,
          "name": "F3",
          "ticks": 2208,
          "time": 11.04,
          "velocity": 0.5039370078740157
        },
        {
          "duration": 0.05999999999999872,
          "durationTicks": 12,
          "midi": 60,
          "name": "C4",
          "ticks": 2232,
          "time": 11.16,
          "velocity": 0.5039370078740157
        },
        {
          "duration": 0.2400000000000002,
          "durationTicks": 48,
          "midi": 53,
          "name": "F3",
          "ticks": 2256,
          "time": 11.28,
          "velocity": 0.5039370078740157
        },
        {
          "duration": 0.0600000000000005,
          "durationTicks": 12,
          "midi": 51,
          "name": "D#3",
          "ticks": 2304,
          "time": 11.52,
          "velocity": 0.5039370078740157
        },
        {
          "duration": 0.0600000000000005,
          "durationTicks": 12,
          "midi": 63,
          "name": "D#4",
          "ticks": 2328,
          "time": 11.639999999999999,
          "velocity": 0.5039370078740157
        },
        {
          "duration": 0.0600000000000005,
          "durationTicks": 12,
          "midi": 58,
          "name": "A#3",
          "ticks": 2352,
          "time": 11.76,
          "velocity": 0.5039370078740157
        },
        {
          "duration": 0.0600000000000005,
          "durationTicks": 12,
          "midi": 51,
          "name": "D#3",
          "ticks": 2376,
          "time": 11.879999999999999,
          "velocity": 0.5039370078740157
        },
        {
          "duration": 0.05999999999999872,
          "durationTicks": 12,
          "midi": 63,
          "name": "D#4",
          "ticks": 2400,
          "time": 12,
          "velocity": 0.5039370078740157
        },
        {
          "duration": 0.0600000000000005,
          "durationTicks": 12,
          "midi": 58,
          "name": "A#3",
          "ticks": 2424,
          "time": 12.12,
          "velocity": 0.5039370078740157
        },
        {
          "duration": 0.11999999999999922,
          "durationTicks": 24,
          "midi": 50,
          "name": "D3",
          "ticks": 2448,
          "time": 12.24,
          "velocity": 0.5039370078740157
        },
        {
          "duration": 0.05999999999999872,
          "durationTicks": 12,
          "midi": 51,
          "name": "D#3",
          "ticks": 2496,
          "time": 12.48,
          "velocity": 0.5039370078740157
        },
        {
          "duration": 0.0600000000000005,
          "durationTicks": 12,
          "midi": 63,
          "name": "D#4",
          "ticks": 2520,
          "time": 12.6,
          "velocity": 0.5039370078740157
        },
        {
          "duration": 0.0600000000000005,
          "durationTicks": 12,
          "midi": 58,
          "name": "A#3",
          "ticks": 2544,
          "time": 12.719999999999999,
          "velocity": 0.5039370078740157
        },
        {
          "duration": 0.0600000000000005,
          "durationTicks": 12,
          "midi": 51,
          "name": "D#3",
          "ticks": 2568,
          "time": 12.84,
          "velocity": 0.5039370078740157
        },
        {
          "duration": 0.0600000000000005,
          "durationTicks": 12,
          "midi": 63,
          "name": "D#4",
          "ticks": 2592,
          "time": 12.959999999999999,
          "velocity": 0.5039370078740157
        },
        {
          "duration": 0.05999999999999872,
          "durationTicks": 12,
          "midi": 58,
          "name": "A#3",
          "ticks": 2616,
          "time": 13.08,
          "velocity": 0.5039370078740157
        },
        {
          "duration": 0.120000000000001,
          "durationTicks": 24,
          "midi": 50,
          "name": "D3",
          "ticks": 2640,
          "time": 13.2,
          "velocity": 0.5039370078740157
        },
        {
          "duration": 0.0600000000000005,
          "durationTicks": 12,
          "midi": 51,
          "name": "D#3",
          "ticks": 2688,
          "time": 13.44,
          "velocity": 0.5039370078740157
        },
        {
          "duration": 0.0600000000000005,
          "durationTicks": 12,
          "midi": 63,
          "name": "D#4",
          "ticks": 2712,
          "time": 13.559999999999999,
          "velocity": 0.5039370078740157
        },
        {
          "duration": 0.0600000000000005,
          "durationTicks": 12,
          "midi": 58,
          "name": "A#3",
          "ticks": 2736,
          "time": 13.68,
          "velocity": 0.5039370078740157
        },
        {
          "duration": 0.0600000000000005,
          "durationTicks": 12,
          "midi": 51,
          "name": "D#3",
          "ticks": 2760,
          "time": 13.799999999999999,
          "velocity": 0.5039370078740157
        },
        {
          "duration": 0.05999999999999872,
          "durationTicks": 12,
          "midi": 63,
          "name": "D#4",
          "ticks": 2784,
          "time": 13.92,
          "velocity": 0.5039370078740157
        },
        {
          "duration": 0.0600000000000005,
          "durationTicks": 12,
          "midi": 58,
          "name": "A#3",
          "ticks": 2808,
          "time": 14.04,
          "velocity": 0.5039370078740157
        },
        {
          "duration": 0.11999999999999922,
          "durationTicks": 24,
          "midi": 50,
          "name": "D3",
          "ticks": 2832,
          "time": 14.16,
          "velocity": 0.5039370078740157
        },
        {
          "duration": 0.0600000000000005,
          "durationTicks": 12,
          "midi": 51,
          "name": "D#3",
          "ticks": 2880,
          "time": 14.399999999999999,
          "velocity": 0.5039370078740157
        },
        {
          "duration": 0.0600000000000005,
          "durationTicks": 12,
          "midi": 63,
          "name": "D#4",
          "ticks": 2904,
          "time": 14.52,
          "velocity": 0.5039370078740157
        },
        {
          "duration": 0.0600000000000005,
          "durationTicks": 12,
          "midi": 58,
          "name": "A#3",
          "ticks": 2928,
          "time": 14.639999999999999,
          "velocity": 0.5039370078740157
        },
        {
          "duration": 0.0600000000000005,
          "durationTicks": 12,
          "midi": 51,
          "name": "D#3",
          "ticks": 2952,
          "time": 14.76,
          "velocity": 0.5039370078740157
        },
        {
          "duration": 0.0600000000000005,
          "durationTicks": 12,
          "midi": 55,
          "name": "G3",
          "ticks": 3072,
          "time": 15.36,
          "velocity": 0.6929133858267716
        },
        {
          "duration": 0.0600000000000005,
          "durationTicks": 12,
          "midi": 67,
          "name": "G4",
          "ticks": 3096,
          "time": 15.479999999999999,
          "velocity": 0.6929133858267716
        },
        {
          "duration": 0.0600000000000005,
          "durationTicks": 12,
          "midi": 62,
          "name": "D4",
          "ticks": 3120,
          "time": 15.6,
          "velocity": 0.6929133858267716
        },
        {
          "duration": 0.0600000000000005,
          "durationTicks": 12,
          "midi": 55,
          "name": "G3",
          "ticks": 3144,
          "time": 15.719999999999999,
          "velocity": 0.6929133858267716
        },
        {
          "duration": 0.05999999999999872,
          "durationTicks": 12,
          "midi": 67,
          "name": "G4",
          "ticks": 3168,
          "time": 15.84,
          "velocity": 0.6929133858267716
        },
        {
          "duration": 0.0600000000000005,
          "durationTicks": 12,
          "midi": 62,
          "name": "D4",
          "ticks": 3192,
          "time": 15.959999999999999,
          "velocity": 0.6929133858267716
        },
        {
          "duration": 0.120000000000001,
          "durationTicks": 24,
          "midi": 53,
          "name": "F3",
          "ticks": 3216,
          "time": 16.08,
          "velocity": 0.6929133858267716
        },
        {
          "duration": 0.05999999999999872,
          "durationTicks": 12,
          "midi": 55,
          "name": "G3",
          "ticks": 3264,
          "time": 16.32,
          "velocity": 0.6929133858267716
        },
        {
          "duration": 0.060000000000002274,
          "durationTicks": 12,
          "midi": 67,
          "name": "G4",
          "ticks": 3288,
          "time": 16.439999999999998,
          "velocity": 0.6929133858267716
        },
        {
          "duration": 0.060000000000002274,
          "durationTicks": 12,
          "midi": 62,
          "name": "D4",
          "ticks": 3312,
          "time": 16.56,
          "velocity": 0.6929133858267716
        },
        {
          "duration": 0.05999999999999872,
          "durationTicks": 12,
          "midi": 55,
          "name": "G3",
          "ticks": 3336,
          "time": 16.68,
          "velocity": 0.6929133858267716
        },
        {
          "duration": 0.05999999999999872,
          "durationTicks": 12,
          "midi": 67,
          "name": "G4",
          "ticks": 3360,
          "time": 16.8,
          "velocity": 0.6929133858267716
        },
        {
          "duration": 0.060000000000002274,
          "durationTicks": 12,
          "midi": 62,
          "name": "D4",
          "ticks": 3384,
          "time": 16.919999999999998,
          "velocity": 0.6929133858267716
        },
        {
          "duration": 0.120000000000001,
          "durationTicks": 24,
          "midi": 53,
          "name": "F3",
          "ticks": 3408,
          "time": 17.04,
          "velocity": 0.6929133858267716
        },
        {
          "duration": 0.05999999999999872,
          "durationTicks": 12,
          "midi": 55,
          "name": "G3",
          "ticks": 3456,
          "time": 17.28,
          "velocity": 0.6929133858267716
        },
        {
          "duration": 0.060000000000002274,
          "durationTicks": 12,
          "midi": 67,
          "name": "G4",
          "ticks": 3480,
          "time": 17.4,
          "velocity": 0.6929133858267716
        },
        {
          "duration": 0.05999999999999872,
          "durationTicks": 12,
          "midi": 62,
          "name": "D4",
          "ticks": 3504,
          "time": 17.52,
          "velocity": 0.6929133858267716
        },
        {
          "duration": 0.05999999999999872,
          "durationTicks": 12,
          "midi": 55,
          "name": "G3",
          "ticks": 3528,
          "time": 17.64,
          "velocity": 0.6929133858267716
        },
        {
          "duration": 0.060000000000002274,
          "durationTicks": 12,
          "midi": 67,
          "name": "G4",
          "ticks": 3552,
          "time": 17.759999999999998,
          "velocity": 0.6929133858267716
        },
        {
          "duration": 0.05999999999999872,
          "durationTicks": 12,
          "midi": 62,
          "name": "D4",
          "ticks": 3576,
          "time": 17.88,
          "velocity": 0.6929133858267716
        },
        {
          "duration": 0.120000000000001,
          "durationTicks": 24,
          "midi": 53,
          "name": "F3",
          "ticks": 3600,
          "time": 18,
          "velocity": 0.6929133858267716
        },
        {
          "duration": 0.060000000000002274,
          "durationTicks": 12,
          "midi": 55,
          "name": "G3",
          "ticks": 3648,
          "time": 18.24,
          "velocity": 0.6929133858267716
        },
        {
          "duration": 0.05999999999999872,
          "durationTicks": 12,
          "midi": 67,
          "name": "G4",
          "ticks": 3672,
          "time": 18.36,
          "velocity": 0.6929133858267716
        },
        {
          "duration": 0.05999999999999872,
          "durationTicks": 12,
          "midi": 62,
          "name": "D4",
          "ticks": 3696,
          "time": 18.48,
          "velocity": 0.6929133858267716
        },
        {
          "duration": 0.060000000000002274,
          "durationTicks": 12,
          "midi": 55,
          "name": "G3",
          "ticks": 3720,
          "time": 18.599999999999998,
          "velocity": 0.6929133858267716
        },
        {
          "duration": 0.05999999999999872,
          "durationTicks": 12,
          "midi": 53,
          "name": "F3",
          "ticks": 3744,
          "time": 18.72,
          "velocity": 0.6929133858267716
        },
        {
          "duration": 0.05999999999999872,
          "durationTicks": 12,
          "midi": 60,
          "name": "C4",
          "ticks": 3768,
          "time": 18.84,
          "velocity": 0.6929133858267716
        },
        {
          "duration": 0.11999999999999744,
          "durationTicks": 24,
          "midi": 53,
          "name": "F3",
          "ticks": 3792,
          "time": 18.96,
          "velocity": 0.6929133858267716
        },
        {
          "duration": 0.05999999999999872,
          "durationTicks": 12,
          "midi": 55,
          "name": "G3",
          "ticks": 3840,
          "time": 19.2,
          "velocity": 0.6929133858267716
        },
        {
          "duration": 0.05999999999999872,
          "durationTicks": 12,
          "midi": 67,
          "name": "G4",
          "ticks": 3864,
          "time": 19.32,
          "velocity": 0.6929133858267716
        },
        {
          "duration": 0.060000000000002274,
          "durationTicks": 12,
          "midi": 62,
          "name": "D4",
          "ticks": 3888,
          "time": 19.439999999999998,
          "velocity": 0.6929133858267716
        },
        {
          "duration": 0.060000000000002274,
          "durationTicks": 12,
          "midi": 55,
          "name": "G3",
          "ticks": 3912,
          "time": 19.56,
          "velocity": 0.6929133858267716
        },
        {
          "duration": 0.05999999999999872,
          "durationTicks": 12,
          "midi": 67,
          "name": "G4",
          "ticks": 3936,
          "time": 19.68,
          "velocity": 0.6929133858267716
        },
        {
          "duration": 0.05999999999999872,
          "durationTicks": 12,
          "midi": 62,
          "name": "D4",
          "ticks": 3960,
          "time": 19.8,
          "velocity": 0.6929133858267716
        },
        {
          "duration": 0.120000000000001,
          "durationTicks": 24,
          "midi": 53,
          "name": "F3",
          "ticks": 3984,
          "time": 19.919999999999998,
          "velocity": 0.6929133858267716
        },
        {
          "duration": 0.05999999999999872,
          "durationTicks": 12,
          "midi": 55,
          "name": "G3",
          "ticks": 4032,
          "time": 20.16,
          "velocity": 0.6929133858267716
        },
        {
          "duration": 0.060000000000002274,
          "durationTicks": 12,
          "midi": 67,
          "name": "G4",
          "ticks": 4056,
          "time": 20.279999999999998,
          "velocity": 0.6929133858267716
        },
        {
          "duration": 0.060000000000002274,
          "durationTicks": 12,
          "midi": 62,
          "name": "D4",
          "ticks": 4080,
          "time": 20.4,
          "velocity": 0.6929133858267716
        },
        {
          "duration": 0.05999999999999872,
          "durationTicks": 12,
          "midi": 55,
          "name": "G3",
          "ticks": 4104,
          "time": 20.52,
          "velocity": 0.6929133858267716
        },
        {
          "duration": 0.05999999999999872,
          "durationTicks": 12,
          "midi": 67,
          "name": "G4",
          "ticks": 4128,
          "time": 20.64,
          "velocity": 0.6929133858267716
        },
        {
          "duration": 0.060000000000002274,
          "durationTicks": 12,
          "midi": 62,
          "name": "D4",
          "ticks": 4152,
          "time": 20.759999999999998,
          "velocity": 0.6929133858267716
        },
        {
          "duration": 0.120000000000001,
          "durationTicks": 24,
          "midi": 53,
          "name": "F3",
          "ticks": 4176,
          "time": 20.88,
          "velocity": 0.6929133858267716
        },
        {
          "duration": 0.060000000000002274,
          "durationTicks": 12,
          "midi": 55,
          "name": "G3",
          "ticks": 4224,
          "time": 21.119999999999997,
          "velocity": 0.6929133858267716
        },
        {
          "duration": 0.060000000000002274,
          "durationTicks": 12,
          "midi": 67,
          "name": "G4",
          "ticks": 4248,
          "time": 21.24,
          "velocity": 0.6929133858267716
        },
        {
          "duration": 0.05999999999999872,
          "durationTicks": 12,
          "midi": 62,
          "name": "D4",
          "ticks": 4272,
          "time": 21.36,
          "velocity": 0.6929133858267716
        },
        {
          "duration": 0.05999999999999872,
          "durationTicks": 12,
          "midi": 55,
          "name": "G3",
          "ticks": 4296,
          "time": 21.48,
          "velocity": 0.6929133858267716
        },
        {
          "duration": 0.060000000000002274,
          "durationTicks": 12,
          "midi": 67,
          "name": "G4",
          "ticks": 4320,
          "time": 21.599999999999998,
          "velocity": 0.6929133858267716
        },
        {
          "duration": 0.05999999999999872,
          "durationTicks": 12,
          "midi": 62,
          "name": "D4",
          "ticks": 4344,
          "time": 21.72,
          "velocity": 0.6929133858267716
        },
        {
          "duration": 0.120000000000001,
          "durationTicks": 24,
          "midi": 53,
          "name": "F3",
          "ticks": 4368,
          "time": 21.84,
          "velocity": 0.6929133858267716
        },
        {
          "duration": 0.060000000000002274,
          "durationTicks": 12,
          "midi": 55,
          "name": "G3",
          "ticks": 4416,
          "time": 22.08,
          "velocity": 0.6929133858267716
        },
        {
          "duration": 0.05999999999999872,
          "durationTicks": 12,
          "midi": 67,
          "name": "G4",
          "ticks": 4440,
          "time": 22.2,
          "velocity": 0.6929133858267716
        },
        {
          "duration": 0.05999999999999872,
          "durationTicks": 12,
          "midi": 62,
          "name": "D4",
          "ticks": 4464,
          "time": 22.32,
          "velocity": 0.6929133858267716
        },
        {
          "duration": 0.060000000000002274,
          "durationTicks": 12,
          "midi": 55,
          "name": "G3",
          "ticks": 4488,
          "time": 22.439999999999998,
          "velocity": 0.6929133858267716
        },
        {
          "duration": 0.05999999999999872,
          "durationTicks": 12,
          "midi": 53,
          "name": "F3",
          "ticks": 4512,
          "time": 22.56,
          "velocity": 0.6929133858267716
        },
        {
          "duration": 0.05999999999999872,
          "durationTicks": 12,
          "midi": 60,
          "name": "C4",
          "ticks": 4536,
          "time": 22.68,
          "velocity": 0.6929133858267716
        },
        {
          "duration": 0.23999999999999844,
          "durationTicks": 48,
          "midi": 53,
          "name": "F3",
          "ticks": 4560,
          "time": 22.8,
          "velocity": 0.6929133858267716
        },
        {
          "duration": 0.05999999999999872,
          "durationTicks": 12,
          "midi": 51,
          "name": "D#3",
          "ticks": 4608,
          "time": 23.04,
          "velocity": 0.6929133858267716
        },
        {
          "duration": 0.05999999999999872,
          "durationTicks": 12,
          "midi": 63,
          "name": "D#4",
          "ticks": 4632,
          "time": 23.16,
          "velocity": 0.6929133858267716
        },
        {
          "duration": 0.060000000000002274,
          "durationTicks": 12,
          "midi": 58,
          "name": "A#3",
          "ticks": 4656,
          "time": 23.279999999999998,
          "velocity": 0.6929133858267716
        },
        {
          "duration": 0.060000000000002274,
          "durationTicks": 12,
          "midi": 51,
          "name": "D#3",
          "ticks": 4680,
          "time": 23.4,
          "velocity": 0.6929133858267716
        },
        {
          "duration": 0.05999999999999872,
          "durationTicks": 12,
          "midi": 63,
          "name": "D#4",
          "ticks": 4704,
          "time": 23.52,
          "velocity": 0.6929133858267716
        },
        {
          "duration": 0.05999999999999872,
          "durationTicks": 12,
          "midi": 58,
          "name": "A#3",
          "ticks": 4728,
          "time": 23.64,
          "velocity": 0.6929133858267716
        },
        {
          "duration": 0.120000000000001,
          "durationTicks": 24,
          "midi": 50,
          "name": "D3",
          "ticks": 4752,
          "time": 23.759999999999998,
          "velocity": 0.6929133858267716
        },
        {
          "duration": 0.05999999999999872,
          "durationTicks": 12,
          "midi": 51,
          "name": "D#3",
          "ticks": 4800,
          "time": 24,
          "velocity": 0.6929133858267716
        },
        {
          "duration": 0.060000000000002274,
          "durationTicks": 12,
          "midi": 63,
          "name": "D#4",
          "ticks": 4824,
          "time": 24.119999999999997,
          "velocity": 0.6929133858267716
        },
        {
          "duration": 0.060000000000002274,
          "durationTicks": 12,
          "midi": 58,
          "name": "A#3",
          "ticks": 4848,
          "time": 24.24,
          "velocity": 0.6929133858267716
        },
        {
          "duration": 0.05999999999999872,
          "durationTicks": 12,
          "midi": 51,
          "name": "D#3",
          "ticks": 4872,
          "time": 24.36,
          "velocity": 0.6929133858267716
        },
        {
          "duration": 0.05999999999999872,
          "durationTicks": 12,
          "midi": 63,
          "name": "D#4",
          "ticks": 4896,
          "time": 24.48,
          "velocity": 0.6929133858267716
        },
        {
          "duration": 0.060000000000002274,
          "durationTicks": 12,
          "midi": 58,
          "name": "A#3",
          "ticks": 4920,
          "time": 24.599999999999998,
          "velocity": 0.6929133858267716
        },
        {
          "duration": 0.120000000000001,
          "durationTicks": 24,
          "midi": 50,
          "name": "D3",
          "ticks": 4944,
          "time": 24.72,
          "velocity": 0.6929133858267716
        },
        {
          "duration": 0.05999999999999872,
          "durationTicks": 12,
          "midi": 51,
          "name": "D#3",
          "ticks": 4992,
          "time": 24.96,
          "velocity": 0.6929133858267716
        },
        {
          "duration": 0.060000000000002274,
          "durationTicks": 12,
          "midi": 63,
          "name": "D#4",
          "ticks": 5016,
          "time": 25.08,
          "velocity": 0.6929133858267716
        },
        {
          "duration": 0.05999999999999872,
          "durationTicks": 12,
          "midi": 58,
          "name": "A#3",
          "ticks": 5040,
          "time": 25.2,
          "velocity": 0.6929133858267716
        },
        {
          "duration": 0.05999999999999872,
          "durationTicks": 12,
          "midi": 51,
          "name": "D#3",
          "ticks": 5064,
          "time": 25.32,
          "velocity": 0.6929133858267716
        },
        {
          "duration": 0.060000000000002274,
          "durationTicks": 12,
          "midi": 63,
          "name": "D#4",
          "ticks": 5088,
          "time": 25.439999999999998,
          "velocity": 0.6929133858267716
        },
        {
          "duration": 0.05999999999999872,
          "durationTicks": 12,
          "midi": 58,
          "name": "A#3",
          "ticks": 5112,
          "time": 25.56,
          "velocity": 0.6929133858267716
        },
        {
          "duration": 0.120000000000001,
          "durationTicks": 24,
          "midi": 50,
          "name": "D3",
          "ticks": 5136,
          "time": 25.68,
          "velocity": 0.6929133858267716
        },
        {
          "duration": 0.060000000000002274,
          "durationTicks": 12,
          "midi": 51,
          "name": "D#3",
          "ticks": 5184,
          "time": 25.919999999999998,
          "velocity": 0.6929133858267716
        },
        {
          "duration": 0.05999999999999872,
          "durationTicks": 12,
          "midi": 63,
          "name": "D#4",
          "ticks": 5208,
          "time": 26.04,
          "velocity": 0.6929133858267716
        },
        {
          "duration": 0.05999999999999872,
          "durationTicks": 12,
          "midi": 58,
          "name": "A#3",
          "ticks": 5232,
          "time": 26.16,
          "velocity": 0.6929133858267716
        },
        {
          "duration": 0.060000000000002274,
          "durationTicks": 12,
          "midi": 51,
          "name": "D#3",
          "ticks": 5256,
          "time": 26.279999999999998,
          "velocity": 0.6929133858267716
        },
        {
          "duration": 0.05999999999999872,
          "durationTicks": 12,
          "midi": 53,
          "name": "F3",
          "ticks": 5280,
          "time": 26.4,
          "velocity": 0.6929133858267716
        },
        {
          "duration": 0.05999999999999872,
          "durationTicks": 12,
          "midi": 60,
          "name": "C4",
          "ticks": 5304,
          "time": 26.52,
          "velocity": 0.6929133858267716
        },
        {
          "duration": 0.23999999999999844,
          "durationTicks": 48,
          "midi": 53,
          "name": "F3",
          "ticks": 5328,
          "time": 26.64,
          "velocity": 0.6929133858267716
        },
        {
          "duration": 0.05999999999999872,
          "durationTicks": 12,
          "midi": 51,
          "name": "D#3",
          "ticks": 5376,
          "time": 26.88,
          "velocity": 0.6929133858267716
        },
        {
          "duration": 0.05999999999999872,
          "durationTicks": 12,
          "midi": 63,
          "name": "D#4",
          "ticks": 5400,
          "time": 27,
          "velocity": 0.6929133858267716
        },
        {
          "duration": 0.060000000000002274,
          "durationTicks": 12,
          "midi": 58,
          "name": "A#3",
          "ticks": 5424,
          "time": 27.119999999999997,
          "velocity": 0.6929133858267716
        },
        {
          "duration": 0.060000000000002274,
          "durationTicks": 12,
          "midi": 51,
          "name": "D#3",
          "ticks": 5448,
          "time": 27.24,
          "velocity": 0.6929133858267716
        },
        {
          "duration": 0.05999999999999872,
          "durationTicks": 12,
          "midi": 63,
          "name": "D#4",
          "ticks": 5472,
          "time": 27.36,
          "velocity": 0.6929133858267716
        },
        {
          "duration": 0.05999999999999872,
          "durationTicks": 12,
          "midi": 58,
          "name": "A#3",
          "ticks": 5496,
          "time": 27.48,
          "velocity": 0.6929133858267716
        },
        {
          "duration": 0.120000000000001,
          "durationTicks": 24,
          "midi": 50,
          "name": "D3",
          "ticks": 5520,
          "time": 27.599999999999998,
          "velocity": 0.6929133858267716
        },
        {
          "duration": 0.05999999999999872,
          "durationTicks": 12,
          "midi": 51,
          "name": "D#3",
          "ticks": 5568,
          "time": 27.84,
          "velocity": 0.6929133858267716
        },
        {
          "duration": 0.060000000000002274,
          "durationTicks": 12,
          "midi": 63,
          "name": "D#4",
          "ticks": 5592,
          "time": 27.959999999999997,
          "velocity": 0.6929133858267716
        },
        {
          "duration": 0.060000000000002274,
          "durationTicks": 12,
          "midi": 58,
          "name": "A#3",
          "ticks": 5616,
          "time": 28.08,
          "velocity": 0.6929133858267716
        },
        {
          "duration": 0.05999999999999872,
          "durationTicks": 12,
          "midi": 51,
          "name": "D#3",
          "ticks": 5640,
          "time": 28.2,
          "velocity": 0.6929133858267716
        },
        {
          "duration": 0.05999999999999872,
          "durationTicks": 12,
          "midi": 63,
          "name": "D#4",
          "ticks": 5664,
          "time": 28.32,
          "velocity": 0.6929133858267716
        },
        {
          "duration": 0.060000000000002274,
          "durationTicks": 12,
          "midi": 58,
          "name": "A#3",
          "ticks": 5688,
          "time": 28.439999999999998,
          "velocity": 0.6929133858267716
        },
        {
          "duration": 0.120000000000001,
          "durationTicks": 24,
          "midi": 50,
          "name": "D3",
          "ticks": 5712,
          "time": 28.56,
          "velocity": 0.6929133858267716
        },
        {
          "duration": 0.060000000000002274,
          "durationTicks": 12,
          "midi": 51,
          "name": "D#3",
          "ticks": 5760,
          "time": 28.799999999999997,
          "velocity": 0.6929133858267716
        },
        {
          "duration": 0.060000000000002274,
          "durationTicks": 12,
          "midi": 63,
          "name": "D#4",
          "ticks": 5784,
          "time": 28.919999999999998,
          "velocity": 0.6929133858267716
        },
        {
          "duration": 0.05999999999999872,
          "durationTicks": 12,
          "midi": 58,
          "name": "A#3",
          "ticks": 5808,
          "time": 29.04,
          "velocity": 0.6929133858267716
        },
        {
          "duration": 0.05999999999999872,
          "durationTicks": 12,
          "midi": 51,
          "name": "D#3",
          "ticks": 5832,
          "time": 29.16,
          "velocity": 0.6929133858267716
        },
        {
          "duration": 0.060000000000002274,
          "durationTicks": 12,
          "midi": 63,
          "name": "D#4",
          "ticks": 5856,
          "time": 29.279999999999998,
          "velocity": 0.6929133858267716
        },
        {
          "duration": 0.05999999999999872,
          "durationTicks": 12,
          "midi": 58,
          "name": "A#3",
          "ticks": 5880,
          "time": 29.4,
          "velocity": 0.6929133858267716
        },
        {
          "duration": 0.120000000000001,
          "durationTicks": 24,
          "midi": 50,
          "name": "D3",
          "ticks": 5904,
          "time": 29.52,
          "velocity": 0.6929133858267716
        },
        {
          "duration": 0.060000000000002274,
          "durationTicks": 12,
          "midi": 51,
          "name": "D#3",
          "ticks": 5952,
          "time": 29.759999999999998,
          "velocity": 0.6929133858267716
        },
        {
          "duration": 0.05999999999999872,
          "durationTicks": 12,
          "midi": 63,
          "name": "D#4",
          "ticks": 5976,
          "time": 29.88,
          "velocity": 0.6929133858267716
        },
        {
          "duration": 0.05999999999999872,
          "durationTicks": 12,
          "midi": 58,
          "name": "A#3",
          "ticks": 6000,
          "time": 30,
          "velocity": 0.6929133858267716
        },
        {
          "duration": 0.060000000000002274,
          "durationTicks": 12,
          "midi": 51,
          "name": "D#3",
          "ticks": 6024,
          "time": 30.119999999999997,
          "velocity": 0.6929133858267716
        },
        {
          "duration": 0.05999999999999872,
          "durationTicks": 12,
          "midi": 53,
          "name": "F3",
          "ticks": 6048,
          "time": 30.24,
          "velocity": 0.6929133858267716
        },
        {
          "duration": 0.05999999999999872,
          "durationTicks": 12,
          "midi": 60,
          "name": "C4",
          "ticks": 6072,
          "time": 30.36,
          "velocity": 0.6929133858267716
        },
        {
          "duration": 0.23999999999999844,
          "durationTicks": 48,
          "midi": 53,
          "name": "F3",
          "ticks": 6096,
          "time": 30.48,
          "velocity": 0.6929133858267716
        },
        {
          "duration": 0.05999999999999872,
          "durationTicks": 12,
          "midi": 55,
          "name": "G3",
          "ticks": 6144,
          "time": 30.72,
          "velocity": 0.6929133858267716
        },
        {
          "duration": 0.05999999999999872,
          "durationTicks": 12,
          "midi": 67,
          "name": "G4",
          "ticks": 6168,
          "time": 30.84,
          "velocity": 0.6929133858267716
        },
        {
          "duration": 0.060000000000002274,
          "durationTicks": 12,
          "midi": 62,
          "name": "D4",
          "ticks": 6192,
          "time": 30.959999999999997,
          "velocity": 0.6929133858267716
        },
        {
          "duration": 0.060000000000002274,
          "durationTicks": 12,
          "midi": 55,
          "name": "G3",
          "ticks": 6216,
          "time": 31.08,
          "velocity": 0.6929133858267716
        },
        {
          "duration": 0.05999999999999872,
          "durationTicks": 12,
          "midi": 67,
          "name": "G4",
          "ticks": 6240,
          "time": 31.2,
          "velocity": 0.6929133858267716
        },
        {
          "duration": 0.05999999999999872,
          "durationTicks": 12,
          "midi": 62,
          "name": "D4",
          "ticks": 6264,
          "time": 31.32,
          "velocity": 0.6929133858267716
        },
        {
          "duration": 0.120000000000001,
          "durationTicks": 24,
          "midi": 53,
          "name": "F3",
          "ticks": 6288,
          "time": 31.439999999999998,
          "velocity": 0.6929133858267716
        },
        {
          "duration": 0.05999999999999872,
          "durationTicks": 12,
          "midi": 55,
          "name": "G3",
          "ticks": 6336,
          "time": 31.68,
          "velocity": 0.6929133858267716
        },
        {
          "duration": 0.060000000000002274,
          "durationTicks": 12,
          "midi": 67,
          "name": "G4",
          "ticks": 6360,
          "time": 31.799999999999997,
          "velocity": 0.6929133858267716
        },
        {
          "duration": 0.060000000000002274,
          "durationTicks": 12,
          "midi": 62,
          "name": "D4",
          "ticks": 6384,
          "time": 31.919999999999998,
          "velocity": 0.6929133858267716
        },
        {
          "duration": 0.060000000000002274,
          "durationTicks": 12,
          "midi": 55,
          "name": "G3",
          "ticks": 6408,
          "time": 32.04,
          "velocity": 0.6929133858267716
        },
        {
          "duration": 0.060000000000002274,
          "durationTicks": 12,
          "midi": 67,
          "name": "G4",
          "ticks": 6432,
          "time": 32.16,
          "velocity": 0.6929133858267716
        },
        {
          "duration": 0.05999999999999517,
          "durationTicks": 12,
          "midi": 62,
          "name": "D4",
          "ticks": 6456,
          "time": 32.28,
          "velocity": 0.6929133858267716
        },
        {
          "duration": 0.11999999999999744,
          "durationTicks": 24,
          "midi": 53,
          "name": "F3",
          "ticks": 6480,
          "time": 32.4,
          "velocity": 0.6929133858267716
        },
        {
          "duration": 0.05999999999999517,
          "durationTicks": 12,
          "midi": 55,
          "name": "G3",
          "ticks": 6528,
          "time": 32.64,
          "velocity": 0.6929133858267716
        },
        {
          "duration": 0.060000000000002274,
          "durationTicks": 12,
          "midi": 67,
          "name": "G4",
          "ticks": 6552,
          "time": 32.76,
          "velocity": 0.6929133858267716
        },
        {
          "duration": 0.060000000000002274,
          "durationTicks": 12,
          "midi": 62,
          "name": "D4",
          "ticks": 6576,
          "time": 32.879999999999995,
          "velocity": 0.6929133858267716
        },
        {
          "duration": 0.060000000000002274,
          "durationTicks": 12,
          "midi": 55,
          "name": "G3",
          "ticks": 6600,
          "time": 33,
          "velocity": 0.6929133858267716
        },
        {
          "duration": 0.060000000000002274,
          "durationTicks": 12,
          "midi": 67,
          "name": "G4",
          "ticks": 6624,
          "time": 33.12,
          "velocity": 0.6929133858267716
        },
        {
          "duration": 0.05999999999999517,
          "durationTicks": 12,
          "midi": 62,
          "name": "D4",
          "ticks": 6648,
          "time": 33.24,
          "velocity": 0.6929133858267716
        },
        {
          "duration": 0.11999999999999744,
          "durationTicks": 24,
          "midi": 53,
          "name": "F3",
          "ticks": 6672,
          "time": 33.36,
          "velocity": 0.6929133858267716
        },
        {
          "duration": 0.05999999999999517,
          "durationTicks": 12,
          "midi": 55,
          "name": "G3",
          "ticks": 6720,
          "time": 33.6,
          "velocity": 0.6929133858267716
        },
        {
          "duration": 0.060000000000002274,
          "durationTicks": 12,
          "midi": 67,
          "name": "G4",
          "ticks": 6744,
          "time": 33.72,
          "velocity": 0.6929133858267716
        },
        {
          "duration": 0.060000000000002274,
          "durationTicks": 12,
          "midi": 62,
          "name": "D4",
          "ticks": 6768,
          "time": 33.839999999999996,
          "velocity": 0.6929133858267716
        },
        {
          "duration": 0.05999999999999517,
          "durationTicks": 12,
          "midi": 55,
          "name": "G3",
          "ticks": 6792,
          "time": 33.96,
          "velocity": 0.6929133858267716
        },
        {
          "duration": 0.060000000000002274,
          "durationTicks": 12,
          "midi": 53,
          "name": "F3",
          "ticks": 6816,
          "time": 34.08,
          "velocity": 0.6929133858267716
        },
        {
          "duration": 0.060000000000002274,
          "durationTicks": 12,
          "midi": 60,
          "name": "C4",
          "ticks": 6840,
          "time": 34.199999999999996,
          "velocity": 0.6929133858267716
        },
        {
          "duration": 0.11999999999999744,
          "durationTicks": 24,
          "midi": 53,
          "name": "F3",
          "ticks": 6864,
          "time": 34.32,
          "velocity": 0.6929133858267716
        },
        {
          "duration": 0.05999999999999517,
          "durationTicks": 12,
          "midi": 55,
          "name": "G3",
          "ticks": 6912,
          "time": 34.56,
          "velocity": 0.6929133858267716
        },
        {
          "duration": 0.060000000000002274,
          "durationTicks": 12,
          "midi": 67,
          "name": "G4",
          "ticks": 6936,
          "time": 34.68,
          "velocity": 0.6929133858267716
        },
        {
          "duration": 0.060000000000002274,
          "durationTicks": 12,
          "midi": 62,
          "name": "D4",
          "ticks": 6960,
          "time": 34.8,
          "velocity": 0.6929133858267716
        },
        {
          "duration": 0.05999999999999517,
          "durationTicks": 12,
          "midi": 55,
          "name": "G3",
          "ticks": 6984,
          "time": 34.92,
          "velocity": 0.6929133858267716
        },
        {
          "duration": 0.060000000000002274,
          "durationTicks": 12,
          "midi": 67,
          "name": "G4",
          "ticks": 7008,
          "time": 35.04,
          "velocity": 0.6929133858267716
        },
        {
          "duration": 0.060000000000002274,
          "durationTicks": 12,
          "midi": 62,
          "name": "D4",
          "ticks": 7032,
          "time": 35.16,
          "velocity": 0.6929133858267716
        },
        {
          "duration": 0.11999999999999744,
          "durationTicks": 24,
          "midi": 53,
          "name": "F3",
          "ticks": 7056,
          "time": 35.28,
          "velocity": 0.6929133858267716
        },
        {
          "duration": 0.060000000000002274,
          "durationTicks": 12,
          "midi": 55,
          "name": "G3",
          "ticks": 7104,
          "time": 35.519999999999996,
          "velocity": 0.6929133858267716
        },
        {
          "duration": 0.05999999999999517,
          "durationTicks": 12,
          "midi": 67,
          "name": "G4",
          "ticks": 7128,
          "time": 35.64,
          "velocity": 0.6929133858267716
        },
        {
          "duration": 0.060000000000002274,
          "durationTicks": 12,
          "midi": 62,
          "name": "D4",
          "ticks": 7152,
          "time": 35.76,
          "velocity": 0.6929133858267716
        },
        {
          "duration": 0.060000000000002274,
          "durationTicks": 12,
          "midi": 55,
          "name": "G3",
          "ticks": 7176,
          "time": 35.879999999999995,
          "velocity": 0.6929133858267716
        },
        {
          "duration": 0.05999999999999517,
          "durationTicks": 12,
          "midi": 67,
          "name": "G4",
          "ticks": 7200,
          "time": 36,
          "velocity": 0.6929133858267716
        },
        {
          "duration": 0.060000000000002274,
          "durationTicks": 12,
          "midi": 62,
          "name": "D4",
          "ticks": 7224,
          "time": 36.12,
          "velocity": 0.6929133858267716
        },
        {
          "duration": 0.11999999999999744,
          "durationTicks": 24,
          "midi": 53,
          "name": "F3",
          "ticks": 7248,
          "time": 36.24,
          "velocity": 0.6929133858267716
        },
        {
          "duration": 0.060000000000002274,
          "durationTicks": 12,
          "midi": 55,
          "name": "G3",
          "ticks": 7296,
          "time": 36.48,
          "velocity": 0.6929133858267716
        },
        {
          "duration": 0.05999999999999517,
          "durationTicks": 12,
          "midi": 67,
          "name": "G4",
          "ticks": 7320,
          "time": 36.6,
          "velocity": 0.6929133858267716
        },
        {
          "duration": 0.060000000000002274,
          "durationTicks": 12,
          "midi": 62,
          "name": "D4",
          "ticks": 7344,
          "time": 36.72,
          "velocity": 0.6929133858267716
        },
        {
          "duration": 0.060000000000002274,
          "durationTicks": 12,
          "midi": 55,
          "name": "G3",
          "ticks": 7368,
          "time": 36.839999999999996,
          "velocity": 0.6929133858267716
        },
        {
          "duration": 0.05999999999999517,
          "durationTicks": 12,
          "midi": 67,
          "name": "G4",
          "ticks": 7392,
          "time": 36.96,
          "velocity": 0.6929133858267716
        },
        {
          "duration": 0.060000000000002274,
          "durationTicks": 12,
          "midi": 62,
          "name": "D4",
          "ticks": 7416,
          "time": 37.08,
          "velocity": 0.6929133858267716
        },
        {
          "duration": 0.12000000000000455,
          "durationTicks": 24,
          "midi": 53,
          "name": "F3",
          "ticks": 7440,
          "time": 37.199999999999996,
          "velocity": 0.6929133858267716
        },
        {
          "duration": 0.060000000000002274,
          "durationTicks": 12,
          "midi": 55,
          "name": "G3",
          "ticks": 7488,
          "time": 37.44,
          "velocity": 0.6929133858267716
        },
        {
          "duration": 0.060000000000002274,
          "durationTicks": 12,
          "midi": 67,
          "name": "G4",
          "ticks": 7512,
          "time": 37.559999999999995,
          "velocity": 0.6929133858267716
        },
        {
          "duration": 0.060000000000002274,
          "durationTicks": 12,
          "midi": 62,
          "name": "D4",
          "ticks": 7536,
          "time": 37.68,
          "velocity": 0.6929133858267716
        },
        {
          "duration": 0.060000000000002274,
          "durationTicks": 12,
          "midi": 55,
          "name": "G3",
          "ticks": 7560,
          "time": 37.8,
          "velocity": 0.6929133858267716
        },
        {
          "duration": 0.05999999999999517,
          "durationTicks": 12,
          "midi": 53,
          "name": "F3",
          "ticks": 7584,
          "time": 37.92,
          "velocity": 0.6929133858267716
        },
        {
          "duration": 0.060000000000002274,
          "durationTicks": 12,
          "midi": 60,
          "name": "C4",
          "ticks": 7608,
          "time": 38.04,
          "velocity": 0.6929133858267716
        },
        {
          "duration": 0.240000000000002,
          "durationTicks": 48,
          "midi": 53,
          "name": "F3",
          "ticks": 7632,
          "time": 38.16,
          "velocity": 0.6929133858267716
        },
        {
          "duration": 0.060000000000002274,
          "durationTicks": 12,
          "midi": 51,
          "name": "D#3",
          "ticks": 7680,
          "time": 38.4,
          "velocity": 0.6929133858267716
        },
        {
          "duration": 0.060000000000002274,
          "durationTicks": 12,
          "midi": 63,
          "name": "D#4",
          "ticks": 7704,
          "time": 38.519999999999996,
          "velocity": 0.6929133858267716
        },
        {
          "duration": 0.05999999999999517,
          "durationTicks": 12,
          "midi": 58,
          "name": "A#3",
          "ticks": 7728,
          "time": 38.64,
          "velocity": 0.6929133858267716
        },
        {
          "duration": 0.060000000000002274,
          "durationTicks": 12,
          "midi": 51,
          "name": "D#3",
          "ticks": 7752,
          "time": 38.76,
          "velocity": 0.6929133858267716
        },
        {
          "duration": 0.060000000000002274,
          "durationTicks": 12,
          "midi": 63,
          "name": "D#4",
          "ticks": 7776,
          "time": 38.879999999999995,
          "velocity": 0.6929133858267716
        },
        {
          "duration": 0.05999999999999517,
          "durationTicks": 12,
          "midi": 58,
          "name": "A#3",
          "ticks": 7800,
          "time": 39,
          "velocity": 0.6929133858267716
        },
        {
          "duration": 0.12000000000000455,
          "durationTicks": 24,
          "midi": 50,
          "name": "D3",
          "ticks": 7824,
          "time": 39.12,
          "velocity": 0.6929133858267716
        },
        {
          "duration": 0.060000000000002274,
          "durationTicks": 12,
          "midi": 51,
          "name": "D#3",
          "ticks": 7872,
          "time": 39.36,
          "velocity": 0.6929133858267716
        },
        {
          "duration": 0.060000000000002274,
          "durationTicks": 12,
          "midi": 63,
          "name": "D#4",
          "ticks": 7896,
          "time": 39.48,
          "velocity": 0.6929133858267716
        },
        {
          "duration": 0.05999999999999517,
          "durationTicks": 12,
          "midi": 58,
          "name": "A#3",
          "ticks": 7920,
          "time": 39.6,
          "velocity": 0.6929133858267716
        },
        {
          "duration": 0.060000000000002274,
          "durationTicks": 12,
          "midi": 51,
          "name": "D#3",
          "ticks": 7944,
          "time": 39.72,
          "velocity": 0.6929133858267716
        },
        {
          "duration": 0.060000000000002274,
          "durationTicks": 12,
          "midi": 63,
          "name": "D#4",
          "ticks": 7968,
          "time": 39.839999999999996,
          "velocity": 0.6929133858267716
        },
        {
          "duration": 0.05999999999999517,
          "durationTicks": 12,
          "midi": 58,
          "name": "A#3",
          "ticks": 7992,
          "time": 39.96,
          "velocity": 0.6929133858267716
        },
        {
          "duration": 0.11999999999999744,
          "durationTicks": 24,
          "midi": 50,
          "name": "D3",
          "ticks": 8016,
          "time": 40.08,
          "velocity": 0.6929133858267716
        },
        {
          "duration": 0.05999999999999517,
          "durationTicks": 12,
          "midi": 51,
          "name": "D#3",
          "ticks": 8064,
          "time": 40.32,
          "velocity": 0.6929133858267716
        },
        {
          "duration": 0.060000000000002274,
          "durationTicks": 12,
          "midi": 63,
          "name": "D#4",
          "ticks": 8088,
          "time": 40.44,
          "velocity": 0.6929133858267716
        },
        {
          "duration": 0.060000000000002274,
          "durationTicks": 12,
          "midi": 58,
          "name": "A#3",
          "ticks": 8112,
          "time": 40.559999999999995,
          "velocity": 0.6929133858267716
        },
        {
          "duration": 0.060000000000002274,
          "durationTicks": 12,
          "midi": 51,
          "name": "D#3",
          "ticks": 8136,
          "time": 40.68,
          "velocity": 0.6929133858267716
        },
        {
          "duration": 0.060000000000002274,
          "durationTicks": 12,
          "midi": 63,
          "name": "D#4",
          "ticks": 8160,
          "time": 40.8,
          "velocity": 0.6929133858267716
        },
        {
          "duration": 0.05999999999999517,
          "durationTicks": 12,
          "midi": 58,
          "name": "A#3",
          "ticks": 8184,
          "time": 40.92,
          "velocity": 0.6929133858267716
        },
        {
          "duration": 0.11999999999999744,
          "durationTicks": 24,
          "midi": 50,
          "name": "D3",
          "ticks": 8208,
          "time": 41.04,
          "velocity": 0.6929133858267716
        },
        {
          "duration": 0.05999999999999517,
          "durationTicks": 12,
          "midi": 51,
          "name": "D#3",
          "ticks": 8256,
          "time": 41.28,
          "velocity": 0.6929133858267716
        },
        {
          "duration": 0.060000000000002274,
          "durationTicks": 12,
          "midi": 63,
          "name": "D#4",
          "ticks": 8280,
          "time": 41.4,
          "velocity": 0.6929133858267716
        },
        {
          "duration": 0.060000000000002274,
          "durationTicks": 12,
          "midi": 58,
          "name": "A#3",
          "ticks": 8304,
          "time": 41.519999999999996,
          "velocity": 0.6929133858267716
        },
        {
          "duration": 0.05999999999999517,
          "durationTicks": 12,
          "midi": 51,
          "name": "D#3",
          "ticks": 8328,
          "time": 41.64,
          "velocity": 0.6929133858267716
        },
        {
          "duration": 0.060000000000002274,
          "durationTicks": 12,
          "midi": 53,
          "name": "F3",
          "ticks": 8352,
          "time": 41.76,
          "velocity": 0.6929133858267716
        },
        {
          "duration": 0.060000000000002274,
          "durationTicks": 12,
          "midi": 60,
          "name": "C4",
          "ticks": 8376,
          "time": 41.879999999999995,
          "velocity": 0.6929133858267716
        },
        {
          "duration": 0.23999999999999488,
          "durationTicks": 48,
          "midi": 53,
          "name": "F3",
          "ticks": 8400,
          "time": 42,
          "velocity": 0.6929133858267716
        },
        {
          "duration": 0.060000000000002274,
          "durationTicks": 12,
          "midi": 51,
          "name": "D#3",
          "ticks": 8448,
          "time": 42.239999999999995,
          "velocity": 0.6929133858267716
        },
        {
          "duration": 0.060000000000002274,
          "durationTicks": 12,
          "midi": 63,
          "name": "D#4",
          "ticks": 8472,
          "time": 42.36,
          "velocity": 0.6929133858267716
        },
        {
          "duration": 0.060000000000002274,
          "durationTicks": 12,
          "midi": 58,
          "name": "A#3",
          "ticks": 8496,
          "time": 42.48,
          "velocity": 0.6929133858267716
        },
        {
          "duration": 0.05999999999999517,
          "durationTicks": 12,
          "midi": 51,
          "name": "D#3",
          "ticks": 8520,
          "time": 42.6,
          "velocity": 0.6929133858267716
        },
        {
          "duration": 0.060000000000002274,
          "durationTicks": 12,
          "midi": 63,
          "name": "D#4",
          "ticks": 8544,
          "time": 42.72,
          "velocity": 0.6929133858267716
        },
        {
          "duration": 0.060000000000002274,
          "durationTicks": 12,
          "midi": 58,
          "name": "A#3",
          "ticks": 8568,
          "time": 42.839999999999996,
          "velocity": 0.6929133858267716
        },
        {
          "duration": 0.11999999999999744,
          "durationTicks": 24,
          "midi": 50,
          "name": "D3",
          "ticks": 8592,
          "time": 42.96,
          "velocity": 0.6929133858267716
        },
        {
          "duration": 0.060000000000002274,
          "durationTicks": 12,
          "midi": 51,
          "name": "D#3",
          "ticks": 8640,
          "time": 43.199999999999996,
          "velocity": 0.6929133858267716
        },
        {
          "duration": 0.05999999999999517,
          "durationTicks": 12,
          "midi": 63,
          "name": "D#4",
          "ticks": 8664,
          "time": 43.32,
          "velocity": 0.6929133858267716
        },
        {
          "duration": 0.060000000000002274,
          "durationTicks": 12,
          "midi": 58,
          "name": "A#3",
          "ticks": 8688,
          "time": 43.44,
          "velocity": 0.6929133858267716
        },
        {
          "duration": 0.060000000000002274,
          "durationTicks": 12,
          "midi": 51,
          "name": "D#3",
          "ticks": 8712,
          "time": 43.559999999999995,
          "velocity": 0.6929133858267716
        },
        {
          "duration": 0.05999999999999517,
          "durationTicks": 12,
          "midi": 63,
          "name": "D#4",
          "ticks": 8736,
          "time": 43.68,
          "velocity": 0.6929133858267716
        },
        {
          "duration": 0.060000000000002274,
          "durationTicks": 12,
          "midi": 58,
          "name": "A#3",
          "ticks": 8760,
          "time": 43.8,
          "velocity": 0.6929133858267716
        },
        {
          "duration": 0.11999999999999744,
          "durationTicks": 24,
          "midi": 50,
          "name": "D3",
          "ticks": 8784,
          "time": 43.92,
          "velocity": 0.6929133858267716
        },
        {
          "duration": 0.060000000000002274,
          "durationTicks": 12,
          "midi": 51,
          "name": "D#3",
          "ticks": 8832,
          "time": 44.16,
          "velocity": 0.6929133858267716
        },
        {
          "duration": 0.05999999999999517,
          "durationTicks": 12,
          "midi": 63,
          "name": "D#4",
          "ticks": 8856,
          "time": 44.28,
          "velocity": 0.6929133858267716
        },
        {
          "duration": 0.060000000000002274,
          "durationTicks": 12,
          "midi": 58,
          "name": "A#3",
          "ticks": 8880,
          "time": 44.4,
          "velocity": 0.6929133858267716
        },
        {
          "duration": 0.060000000000002274,
          "durationTicks": 12,
          "midi": 51,
          "name": "D#3",
          "ticks": 8904,
          "time": 44.519999999999996,
          "velocity": 0.6929133858267716
        },
        {
          "duration": 0.05999999999999517,
          "durationTicks": 12,
          "midi": 63,
          "name": "D#4",
          "ticks": 8928,
          "time": 44.64,
          "velocity": 0.6929133858267716
        },
        {
          "duration": 0.060000000000002274,
          "durationTicks": 12,
          "midi": 58,
          "name": "A#3",
          "ticks": 8952,
          "time": 44.76,
          "velocity": 0.6929133858267716
        },
        {
          "duration": 0.12000000000000455,
          "durationTicks": 24,
          "midi": 50,
          "name": "D3",
          "ticks": 8976,
          "time": 44.879999999999995,
          "velocity": 0.6929133858267716
        },
        {
          "duration": 0.060000000000002274,
          "durationTicks": 12,
          "midi": 51,
          "name": "D#3",
          "ticks": 9024,
          "time": 45.12,
          "velocity": 0.6929133858267716
        },
        {
          "duration": 0.060000000000002274,
          "durationTicks": 12,
          "midi": 63,
          "name": "D#4",
          "ticks": 9048,
          "time": 45.239999999999995,
          "velocity": 0.6929133858267716
        },
        {
          "duration": 0.060000000000002274,
          "durationTicks": 12,
          "midi": 58,
          "name": "A#3",
          "ticks": 9072,
          "time": 45.36,
          "velocity": 0.6929133858267716
        },
        {
          "duration": 0.060000000000002274,
          "durationTicks": 12,
          "midi": 51,
          "name": "D#3",
          "ticks": 9096,
          "time": 45.48,
          "velocity": 0.6929133858267716
        },
        {
          "duration": 0.05999999999999517,
          "durationTicks": 12,
          "midi": 53,
          "name": "F3",
          "ticks": 9120,
          "time": 45.6,
          "velocity": 0.6929133858267716
        },
        {
          "duration": 0.060000000000002274,
          "durationTicks": 12,
          "midi": 60,
          "name": "C4",
          "ticks": 9144,
          "time": 45.72,
          "velocity": 0.6929133858267716
        },
        {
          "duration": 0.240000000000002,
          "durationTicks": 48,
          "midi": 53,
          "name": "F3",
          "ticks": 9168,
          "time": 45.839999999999996,
          "velocity": 0.6929133858267716
        },
        {
          "duration": 0.060000000000002274,
          "durationTicks": 12,
          "midi": 48,
          "name": "C3",
          "ticks": 9216,
          "time": 46.08,
          "velocity": 0.6929133858267716
        },
        {
          "duration": 0.060000000000002274,
          "durationTicks": 12,
          "midi": 60,
          "name": "C4",
          "ticks": 9240,
          "time": 46.199999999999996,
          "velocity": 0.6929133858267716
        },
        {
          "duration": 0.05999999999999517,
          "durationTicks": 12,
          "midi": 55,
          "name": "G3",
          "ticks": 9264,
          "time": 46.32,
          "velocity": 0.6929133858267716
        },
        {
          "duration": 0.060000000000002274,
          "durationTicks": 12,
          "midi": 48,
          "name": "C3",
          "ticks": 9288,
          "time": 46.44,
          "velocity": 0.6929133858267716
        },
        {
          "duration": 0.060000000000002274,
          "durationTicks": 12,
          "midi": 60,
          "name": "C4",
          "ticks": 9312,
          "time": 46.559999999999995,
          "velocity": 0.6929133858267716
        },
        {
          "duration": 0.05999999999999517,
          "durationTicks": 12,
          "midi": 55,
          "name": "G3",
          "ticks": 9336,
          "time": 46.68,
          "velocity": 0.6929133858267716
        },
        {
          "duration": 0.240000000000002,
          "durationTicks": 48,
          "midi": 48,
          "name": "C3",
          "ticks": 9360,
          "time": 46.8,
          "velocity": 0.6929133858267716
        },
        {
          "duration": 0.060000000000002274,
          "durationTicks": 12,
          "midi": 48,
          "name": "C3",
          "ticks": 9408,
          "time": 47.04,
          "velocity": 0.6929133858267716
        },
        {
          "duration": 0.060000000000002274,
          "durationTicks": 12,
          "midi": 60,
          "name": "C4",
          "ticks": 9432,
          "time": 47.16,
          "velocity": 0.6929133858267716
        },
        {
          "duration": 0.05999999999999517,
          "durationTicks": 12,
          "midi": 55,
          "name": "G3",
          "ticks": 9456,
          "time": 47.28,
          "velocity": 0.6929133858267716
        },
        {
          "duration": 0.060000000000002274,
          "durationTicks": 12,
          "midi": 48,
          "name": "C3",
          "ticks": 9480,
          "time": 47.4,
          "velocity": 0.6929133858267716
        },
        {
          "duration": 0.060000000000002274,
          "durationTicks": 12,
          "midi": 60,
          "name": "C4",
          "ticks": 9504,
          "time": 47.519999999999996,
          "velocity": 0.6929133858267716
        },
        {
          "duration": 0.05999999999999517,
          "durationTicks": 12,
          "midi": 55,
          "name": "G3",
          "ticks": 9528,
          "time": 47.64,
          "velocity": 0.6929133858267716
        },
        {
          "duration": 0.240000000000002,
          "durationTicks": 48,
          "midi": 48,
          "name": "C3",
          "ticks": 9552,
          "time": 47.76,
          "velocity": 0.6929133858267716
        },
        {
          "duration": 0.05999999999999517,
          "durationTicks": 12,
          "midi": 50,
          "name": "D3",
          "ticks": 9600,
          "time": 48,
          "velocity": 0.6929133858267716
        },
        {
          "duration": 0.060000000000002274,
          "durationTicks": 12,
          "midi": 62,
          "name": "D4",
          "ticks": 9624,
          "time": 48.12,
          "velocity": 0.6929133858267716
        },
        {
          "duration": 0.060000000000002274,
          "durationTicks": 12,
          "midi": 57,
          "name": "A3",
          "ticks": 9648,
          "time": 48.239999999999995,
          "velocity": 0.6929133858267716
        },
        {
          "duration": 0.060000000000002274,
          "durationTicks": 12,
          "midi": 50,
          "name": "D3",
          "ticks": 9672,
          "time": 48.36,
          "velocity": 0.6929133858267716
        },
        {
          "duration": 0.060000000000002274,
          "durationTicks": 12,
          "midi": 62,
          "name": "D4",
          "ticks": 9696,
          "time": 48.48,
          "velocity": 0.6929133858267716
        },
        {
          "duration": 0.05999999999999517,
          "durationTicks": 12,
          "midi": 57,
          "name": "A3",
          "ticks": 9720,
          "time": 48.6,
          "velocity": 0.6929133858267716
        },
        {
          "duration": 0.240000000000002,
          "durationTicks": 48,
          "midi": 50,
          "name": "D3",
          "ticks": 9744,
          "time": 48.72,
          "velocity": 0.6929133858267716
        },
        {
          "duration": 0.05999999999999517,
          "durationTicks": 12,
          "midi": 50,
          "name": "D3",
          "ticks": 9792,
          "time": 48.96,
          "velocity": 0.6929133858267716
        },
        {
          "duration": 0.060000000000002274,
          "durationTicks": 12,
          "midi": 67,
          "name": "G4",
          "ticks": 9816,
          "time": 49.08,
          "velocity": 0.6929133858267716
        },
        {
          "duration": 0.060000000000002274,
          "durationTicks": 12,
          "midi": 62,
          "name": "D4",
          "ticks": 9840,
          "time": 49.199999999999996,
          "velocity": 0.6929133858267716
        },
        {
          "duration": 0.05999999999999517,
          "durationTicks": 12,
          "midi": 58,
          "name": "A#3",
          "ticks": 9864,
          "time": 49.32,
          "velocity": 0.6929133858267716
        },
        {
          "duration": 0.060000000000002274,
          "durationTicks": 12,
          "midi": 53,
          "name": "F3",
          "ticks": 9888,
          "time": 49.44,
          "velocity": 0.6929133858267716
        },
        {
          "duration": 0.060000000000002274,
          "durationTicks": 12,
          "midi": 60,
          "name": "C4",
          "ticks": 9912,
          "time": 49.559999999999995,
          "velocity": 0.6929133858267716
        },
        {
          "duration": 0.240000000000002,
          "durationTicks": 48,
          "midi": 53,
          "name": "F3",
          "ticks": 9936,
          "time": 49.68,
          "velocity": 0.6929133858267716
        },
        {
          "duration": 0.05999999999999517,
          "durationTicks": 12,
          "midi": 51,
          "name": "D#3",
          "ticks": 9984,
          "time": 49.92,
          "velocity": 0.6929133858267716
        },
        {
          "duration": 0.060000000000002274,
          "durationTicks": 12,
          "midi": 63,
          "name": "D#4",
          "ticks": 10008,
          "time": 50.04,
          "velocity": 0.6929133858267716
        },
        {
          "duration": 0.060000000000002274,
          "durationTicks": 12,
          "midi": 58,
          "name": "A#3",
          "ticks": 10032,
          "time": 50.16,
          "velocity": 0.6929133858267716
        },
        {
          "duration": 0.05999999999999517,
          "durationTicks": 12,
          "midi": 51,
          "name": "D#3",
          "ticks": 10056,
          "time": 50.28,
          "velocity": 0.6929133858267716
        },
        {
          "duration": 0.060000000000002274,
          "durationTicks": 12,
          "midi": 63,
          "name": "D#4",
          "ticks": 10080,
          "time": 50.4,
          "velocity": 0.6929133858267716
        },
        {
          "duration": 0.060000000000002274,
          "durationTicks": 12,
          "midi": 58,
          "name": "A#3",
          "ticks": 10104,
          "time": 50.519999999999996,
          "velocity": 0.6929133858267716
        },
        {
          "duration": 0.23999999999999488,
          "durationTicks": 48,
          "midi": 51,
          "name": "D#3",
          "ticks": 10128,
          "time": 50.64,
          "velocity": 0.6929133858267716
        },
        {
          "duration": 0.060000000000002274,
          "durationTicks": 12,
          "midi": 53,
          "name": "F3",
          "ticks": 10176,
          "time": 50.879999999999995,
          "velocity": 0.6929133858267716
        },
        {
          "duration": 0.05999999999999517,
          "durationTicks": 12,
          "midi": 65,
          "name": "F4",
          "ticks": 10200,
          "time": 51,
          "velocity": 0.6929133858267716
        },
        {
          "duration": 0.060000000000002274,
          "durationTicks": 12,
          "midi": 60,
          "name": "C4",
          "ticks": 10224,
          "time": 51.12,
          "velocity": 0.6929133858267716
        },
        {
          "duration": 0.060000000000002274,
          "durationTicks": 12,
          "midi": 53,
          "name": "F3",
          "ticks": 10248,
          "time": 51.239999999999995,
          "velocity": 0.6929133858267716
        },
        {
          "duration": 0.05999999999999517,
          "durationTicks": 12,
          "midi": 54,
          "name": "F#3",
          "ticks": 10272,
          "time": 51.36,
          "velocity": 0.6929133858267716
        },
        {
          "duration": 0.060000000000002274,
          "durationTicks": 12,
          "midi": 66,
          "name": "F#4",
          "ticks": 10296,
          "time": 51.48,
          "velocity": 0.6929133858267716
        },
        {
          "duration": 0.23999999999999488,
          "durationTicks": 48,
          "midi": 66,
          "name": "F#4",
          "ticks": 10320,
          "time": 51.6,
          "velocity": 0.6929133858267716
        },
        {
          "duration": 0.060000000000002274,
          "durationTicks": 12,
          "midi": 55,
          "name": "G3",
          "ticks": 10368,
          "time": 51.839999999999996,
          "velocity": 0.6929133858267716
        },
        {
          "duration": 0.05999999999999517,
          "durationTicks": 12,
          "midi": 67,
          "name": "G4",
          "ticks": 10392,
          "time": 51.96,
          "velocity": 0.6929133858267716
        },
        {
          "duration": 0.060000000000002274,
          "durationTicks": 12,
          "midi": 62,
          "name": "D4",
          "ticks": 10416,
          "time": 52.08,
          "velocity": 0.6929133858267716
        },
        {
          "duration": 0.060000000000002274,
          "durationTicks": 12,
          "midi": 55,
          "name": "G3",
          "ticks": 10440,
          "time": 52.199999999999996,
          "velocity": 0.6929133858267716
        },
        {
          "duration": 0.05999999999999517,
          "durationTicks": 12,
          "midi": 67,
          "name": "G4",
          "ticks": 10464,
          "time": 52.32,
          "velocity": 0.6929133858267716
        },
        {
          "duration": 0.060000000000002274,
          "durationTicks": 12,
          "midi": 62,
          "name": "D4",
          "ticks": 10488,
          "time": 52.44,
          "velocity": 0.6929133858267716
        },
        {
          "duration": 0.240000000000002,
          "durationTicks": 48,
          "midi": 55,
          "name": "G3",
          "ticks": 10512,
          "time": 52.559999999999995,
          "velocity": 0.6929133858267716
        },
        {
          "duration": 0.060000000000002274,
          "durationTicks": 12,
          "midi": 53,
          "name": "F3",
          "ticks": 10560,
          "time": 52.8,
          "velocity": 0.6929133858267716
        },
        {
          "duration": 0.060000000000002274,
          "durationTicks": 12,
          "midi": 65,
          "name": "F4",
          "ticks": 10584,
          "time": 52.919999999999995,
          "velocity": 0.6929133858267716
        },
        {
          "duration": 0.060000000000002274,
          "durationTicks": 12,
          "midi": 60,
          "name": "C4",
          "ticks": 10608,
          "time": 53.04,
          "velocity": 0.6929133858267716
        },
        {
          "duration": 0.060000000000002274,
          "durationTicks": 12,
          "midi": 53,
          "name": "F3",
          "ticks": 10632,
          "time": 53.16,
          "velocity": 0.6929133858267716
        },
        {
          "duration": 0.05999999999999517,
          "durationTicks": 12,
          "midi": 65,
          "name": "F4",
          "ticks": 10656,
          "time": 53.28,
          "velocity": 0.6929133858267716
        },
        {
          "duration": 0.060000000000002274,
          "durationTicks": 12,
          "midi": 60,
          "name": "C4",
          "ticks": 10680,
          "time": 53.4,
          "velocity": 0.6929133858267716
        },
        {
          "duration": 0.240000000000002,
          "durationTicks": 48,
          "midi": 53,
          "name": "F3",
          "ticks": 10704,
          "time": 53.519999999999996,
          "velocity": 0.6929133858267716
        },
        {
          "duration": 0.060000000000002274,
          "durationTicks": 12,
          "midi": 48,
          "name": "C3",
          "ticks": 10752,
          "time": 53.76,
          "velocity": 0.6929133858267716
        },
        {
          "duration": 0.060000000000002274,
          "durationTicks": 12,
          "midi": 60,
          "name": "C4",
          "ticks": 10776,
          "time": 53.879999999999995,
          "velocity": 0.6929133858267716
        },
        {
          "duration": 0.05999999999999517,
          "durationTicks": 12,
          "midi": 55,
          "name": "G3",
          "ticks": 10800,
          "time": 54,
          "velocity": 0.6929133858267716
        },
        {
          "duration": 0.060000000000002274,
          "durationTicks": 12,
          "midi": 67,
          "name": "G4",
          "ticks": 10824,
          "time": 54.12,
          "velocity": 0.6929133858267716
        },
        {
          "duration": 0.060000000000002274,
          "durationTicks": 12,
          "midi": 72,
          "name": "C5",
          "ticks": 10848,
          "time": 54.239999999999995,
          "velocity": 0.6929133858267716
        },
        {
          "duration": 0.05999999999999517,
          "durationTicks": 12,
          "midi": 67,
          "name": "G4",
          "ticks": 10872,
          "time": 54.36,
          "velocity": 0.6929133858267716
        },
        {
          "duration": 0.240000000000002,
          "durationTicks": 48,
          "midi": 60,
          "name": "C4",
          "ticks": 10896,
          "time": 54.48,
          "velocity": 0.6929133858267716
        },
        {
          "duration": 0.240000000000002,
          "durationTicks": 48,
          "midi": 72,
          "name": "C5",
          "ticks": 10896,
          "time": 54.48,
          "velocity": 0.6929133858267716
        },
        {
          "duration": 0.060000000000002274,
          "durationTicks": 12,
          "midi": 48,
          "name": "C3",
          "ticks": 10944,
          "time": 54.72,
          "velocity": 0.6929133858267716
        },
        {
          "duration": 0.060000000000002274,
          "durationTicks": 12,
          "midi": 60,
          "name": "C4",
          "ticks": 10968,
          "time": 54.839999999999996,
          "velocity": 0.6929133858267716
        },
        {
          "duration": 0.05999999999999517,
          "durationTicks": 12,
          "midi": 55,
          "name": "G3",
          "ticks": 10992,
          "time": 54.96,
          "velocity": 0.6929133858267716
        },
        {
          "duration": 0.060000000000002274,
          "durationTicks": 12,
          "midi": 48,
          "name": "C3",
          "ticks": 11016,
          "time": 55.08,
          "velocity": 0.6929133858267716
        },
        {
          "duration": 0.060000000000002274,
          "durationTicks": 12,
          "midi": 60,
          "name": "C4",
          "ticks": 11040,
          "time": 55.199999999999996,
          "velocity": 0.6929133858267716
        },
        {
          "duration": 0.05999999999999517,
          "durationTicks": 12,
          "midi": 55,
          "name": "G3",
          "ticks": 11064,
          "time": 55.32,
          "velocity": 0.6929133858267716
        },
        {
          "duration": 0.060000000000002274,
          "durationTicks": 12,
          "midi": 71,
          "name": "B4",
          "ticks": 11076,
          "time": 55.379999999999995,
          "velocity": 0.6929133858267716
        },
        {
          "duration": 0.240000000000002,
          "durationTicks": 48,
          "midi": 48,
          "name": "C3",
          "ticks": 11088,
          "time": 55.44,
          "velocity": 0.6929133858267716
        },
        {
          "duration": 0.060000000000002274,
          "durationTicks": 12,
          "midi": 72,
          "name": "C5",
          "ticks": 11088,
          "time": 55.44,
          "velocity": 0.6929133858267716
        },
        {
          "duration": 0.05999999999999517,
          "durationTicks": 12,
          "midi": 50,
          "name": "D3",
          "ticks": 11136,
          "time": 55.68,
          "velocity": 0.6929133858267716
        },
        {
          "duration": 0.060000000000002274,
          "durationTicks": 12,
          "midi": 60,
          "name": "C4",
          "ticks": 11160,
          "time": 55.8,
          "velocity": 0.6929133858267716
        },
        {
          "duration": 0.060000000000002274,
          "durationTicks": 12,
          "midi": 57,
          "name": "A3",
          "ticks": 11184,
          "time": 55.919999999999995,
          "velocity": 0.6929133858267716
        },
        {
          "duration": 0.060000000000002274,
          "durationTicks": 12,
          "midi": 50,
          "name": "D3",
          "ticks": 11208,
          "time": 56.04,
          "velocity": 0.6929133858267716
        },
        {
          "duration": 0.060000000000002274,
          "durationTicks": 12,
          "midi": 67,
          "name": "G4",
          "ticks": 11208,
          "time": 56.04,
          "velocity": 0.6929133858267716
        },
        {
          "duration": 0.060000000000002274,
          "durationTicks": 12,
          "midi": 60,
          "name": "C4",
          "ticks": 11232,
          "time": 56.16,
          "velocity": 0.6929133858267716
        },
        {
          "duration": 0.240000000000002,
          "durationTicks": 48,
          "midi": 69,
          "name": "A4",
          "ticks": 11232,
          "time": 56.16,
          "velocity": 0.6929133858267716
        },
        {
          "duration": 0.05999999999999517,
          "durationTicks": 12,
          "midi": 57,
          "name": "A3",
          "ticks": 11256,
          "time": 56.28,
          "velocity": 0.6929133858267716
        },
        {
          "duration": 0.240000000000002,
          "durationTicks": 48,
          "midi": 50,
          "name": "D3",
          "ticks": 11280,
          "time": 56.4,
          "velocity": 0.6929133858267716
        },
        {
          "duration": 0.240000000000002,
          "durationTicks": 48,
          "midi": 67,
          "name": "G4",
          "ticks": 11280,
          "time": 56.4,
          "velocity": 0.6929133858267716
        },
        {
          "duration": 0.11999999999999744,
          "durationTicks": 24,
          "midi": 50,
          "name": "D3",
          "ticks": 11328,
          "time": 56.64,
          "velocity": 0.6929133858267716
        },
        {
          "duration": 0.4799999999999969,
          "durationTicks": 96,
          "midi": 65,
          "name": "F4",
          "ticks": 11328,
          "time": 56.64,
          "velocity": 0.6929133858267716
        },
        {
          "duration": 0.060000000000002274,
          "durationTicks": 12,
          "midi": 60,
          "name": "C4",
          "ticks": 11376,
          "time": 56.879999999999995,
          "velocity": 0.6929133858267716
        },
        {
          "duration": 0.05999999999999517,
          "durationTicks": 12,
          "midi": 57,
          "name": "A3",
          "ticks": 11400,
          "time": 57,
          "velocity": 0.6929133858267716
        },
        {
          "duration": 0.4799999999999969,
          "durationTicks": 96,
          "midi": 72,
          "name": "C5",
          "ticks": 11424,
          "time": 57.12,
          "velocity": 0.6929133858267716
        },
        {
          "duration": 0.060000000000002274,
          "durationTicks": 12,
          "midi": 53,
          "name": "F3",
          "ticks": 11424,
          "time": 57.12,
          "velocity": 0.6929133858267716
        },
        {
          "duration": 0.060000000000002274,
          "durationTicks": 12,
          "midi": 60,
          "name": "C4",
          "ticks": 11448,
          "time": 57.239999999999995,
          "velocity": 0.6929133858267716
        },
        {
          "duration": 0.23999999999999488,
          "durationTicks": 48,
          "midi": 53,
          "name": "F3",
          "ticks": 11472,
          "time": 57.36,
          "velocity": 0.6929133858267716
        },
        {
          "duration": 0.060000000000002274,
          "durationTicks": 12,
          "midi": 51,
          "name": "D#3",
          "ticks": 11520,
          "time": 57.599999999999994,
          "velocity": 0.6929133858267716
        },
        {
          "duration": 0.060000000000002274,
          "durationTicks": 12,
          "midi": 63,
          "name": "D#4",
          "ticks": 11544,
          "time": 57.72,
          "velocity": 0.6929133858267716
        },
        {
          "duration": 0.060000000000002274,
          "durationTicks": 12,
          "midi": 58,
          "name": "A#3",
          "ticks": 11568,
          "time": 57.839999999999996,
          "velocity": 0.6929133858267716
        },
        {
          "duration": 0.05999999999999517,
          "durationTicks": 12,
          "midi": 51,
          "name": "D#3",
          "ticks": 11592,
          "time": 57.96,
          "velocity": 0.6929133858267716
        },
        {
          "duration": 0.060000000000002274,
          "durationTicks": 12,
          "midi": 63,
          "name": "D#4",
          "ticks": 11616,
          "time": 58.08,
          "velocity": 0.6929133858267716
        },
        {
          "duration": 0.060000000000002274,
          "durationTicks": 12,
          "midi": 58,
          "name": "A#3",
          "ticks": 11640,
          "time": 58.199999999999996,
          "velocity": 0.6929133858267716
        },
        {
          "duration": 0.11999999999999744,
          "durationTicks": 24,
          "midi": 51,
          "name": "D#3",
          "ticks": 11664,
          "time": 58.32,
          "velocity": 0.6929133858267716
        },
        {
          "duration": 0.11999999999999744,
          "durationTicks": 24,
          "midi": 55,
          "name": "G3",
          "ticks": 11688,
          "time": 58.44,
          "velocity": 0.6929133858267716
        },
        {
          "duration": 0.060000000000002274,
          "durationTicks": 12,
          "midi": 53,
          "name": "F3",
          "ticks": 11712,
          "time": 58.559999999999995,
          "velocity": 0.6929133858267716
        },
        {
          "duration": 0.05999999999999517,
          "durationTicks": 12,
          "midi": 65,
          "name": "F4",
          "ticks": 11736,
          "time": 58.68,
          "velocity": 0.6929133858267716
        },
        {
          "duration": 0.060000000000002274,
          "durationTicks": 12,
          "midi": 60,
          "name": "C4",
          "ticks": 11760,
          "time": 58.8,
          "velocity": 0.6929133858267716
        },
        {
          "duration": 0.060000000000002274,
          "durationTicks": 12,
          "midi": 53,
          "name": "F3",
          "ticks": 11784,
          "time": 58.919999999999995,
          "velocity": 0.6929133858267716
        },
        {
          "duration": 0.35999999999999943,
          "durationTicks": 72,
          "midi": 65,
          "name": "F4",
          "ticks": 11808,
          "time": 59.04,
          "velocity": 0.6929133858267716
        },
        {
          "duration": 0.060000000000002274,
          "durationTicks": 12,
          "midi": 53,
          "name": "F3",
          "ticks": 11880,
          "time": 59.4,
          "velocity": 0.6929133858267716
        },
        {
          "duration": 0.11999999999999034,
          "durationTicks": 24,
          "midi": 77,
          "name": "F5",
          "ticks": 19584,
          "time": 97.92,
          "velocity": 0.7874015748031497
        },
        {
          "duration": 0.11999999999999034,
          "durationTicks": 24,
          "midi": 72,
          "name": "C5",
          "ticks": 19584,
          "time": 97.92,
          "velocity": 0.7874015748031497
        },
        {
          "duration": 0.11999999999999034,
          "durationTicks": 24,
          "midi": 53,
          "name": "F3",
          "ticks": 19584,
          "time": 97.92,
          "velocity": 0.7874015748031497
        },
        {
          "duration": 0.05999999999998806,
          "durationTicks": 12,
          "midi": 55,
          "name": "G3",
          "ticks": 19968,
          "time": 99.84,
          "velocity": 0.6929133858267716
        },
        {
          "duration": 0.060000000000002274,
          "durationTicks": 12,
          "midi": 67,
          "name": "G4",
          "ticks": 19992,
          "time": 99.96,
          "velocity": 0.6929133858267716
        },
        {
          "duration": 0.060000000000002274,
          "durationTicks": 12,
          "midi": 62,
          "name": "D4",
          "ticks": 20016,
          "time": 100.08,
          "velocity": 0.6929133858267716
        },
        {
          "duration": 0.05999999999998806,
          "durationTicks": 12,
          "midi": 55,
          "name": "G3",
          "ticks": 20040,
          "time": 100.2,
          "velocity": 0.6929133858267716
        },
        {
          "duration": 0.060000000000002274,
          "durationTicks": 12,
          "midi": 67,
          "name": "G4",
          "ticks": 20064,
          "time": 100.32,
          "velocity": 0.6929133858267716
        },
        {
          "duration": 0.060000000000002274,
          "durationTicks": 12,
          "midi": 62,
          "name": "D4",
          "ticks": 20088,
          "time": 100.44,
          "velocity": 0.6929133858267716
        },
        {
          "duration": 0.11999999999999034,
          "durationTicks": 24,
          "midi": 53,
          "name": "F3",
          "ticks": 20112,
          "time": 100.56,
          "velocity": 0.6929133858267716
        },
        {
          "duration": 0.060000000000002274,
          "durationTicks": 12,
          "midi": 55,
          "name": "G3",
          "ticks": 20160,
          "time": 100.8,
          "velocity": 0.6929133858267716
        },
        {
          "duration": 0.05999999999998806,
          "durationTicks": 12,
          "midi": 67,
          "name": "G4",
          "ticks": 20184,
          "time": 100.92,
          "velocity": 0.6929133858267716
        },
        {
          "duration": 0.060000000000002274,
          "durationTicks": 12,
          "midi": 62,
          "name": "D4",
          "ticks": 20208,
          "time": 101.03999999999999,
          "velocity": 0.6929133858267716
        },
        {
          "duration": 0.060000000000002274,
          "durationTicks": 12,
          "midi": 55,
          "name": "G3",
          "ticks": 20232,
          "time": 101.16,
          "velocity": 0.6929133858267716
        },
        {
          "duration": 0.05999999999998806,
          "durationTicks": 12,
          "midi": 67,
          "name": "G4",
          "ticks": 20256,
          "time": 101.28,
          "velocity": 0.6929133858267716
        },
        {
          "duration": 0.060000000000002274,
          "durationTicks": 12,
          "midi": 62,
          "name": "D4",
          "ticks": 20280,
          "time": 101.39999999999999,
          "velocity": 0.6929133858267716
        },
        {
          "duration": 0.12000000000000455,
          "durationTicks": 24,
          "midi": 53,
          "name": "F3",
          "ticks": 20304,
          "time": 101.52,
          "velocity": 0.6929133858267716
        },
        {
          "duration": 0.060000000000002274,
          "durationTicks": 12,
          "midi": 55,
          "name": "G3",
          "ticks": 20352,
          "time": 101.75999999999999,
          "velocity": 0.6929133858267716
        },
        {
          "duration": 0.060000000000002274,
          "durationTicks": 12,
          "midi": 67,
          "name": "G4",
          "ticks": 20376,
          "time": 101.88,
          "velocity": 0.6929133858267716
        },
        {
          "duration": 0.060000000000002274,
          "durationTicks": 12,
          "midi": 62,
          "name": "D4",
          "ticks": 20400,
          "time": 102,
          "velocity": 0.6929133858267716
        },
        {
          "duration": 0.060000000000002274,
          "durationTicks": 12,
          "midi": 55,
          "name": "G3",
          "ticks": 20424,
          "time": 102.11999999999999,
          "velocity": 0.6929133858267716
        },
        {
          "duration": 0.060000000000002274,
          "durationTicks": 12,
          "midi": 67,
          "name": "G4",
          "ticks": 20448,
          "time": 102.24,
          "velocity": 0.6929133858267716
        },
        {
          "duration": 0.060000000000002274,
          "durationTicks": 12,
          "midi": 62,
          "name": "D4",
          "ticks": 20472,
          "time": 102.36,
          "velocity": 0.6929133858267716
        },
        {
          "duration": 0.12000000000000455,
          "durationTicks": 24,
          "midi": 53,
          "name": "F3",
          "ticks": 20496,
          "time": 102.47999999999999,
          "velocity": 0.6929133858267716
        },
        {
          "duration": 0.060000000000002274,
          "durationTicks": 12,
          "midi": 55,
          "name": "G3",
          "ticks": 20544,
          "time": 102.72,
          "velocity": 0.6929133858267716
        },
        {
          "duration": 0.060000000000002274,
          "durationTicks": 12,
          "midi": 67,
          "name": "G4",
          "ticks": 20568,
          "time": 102.83999999999999,
          "velocity": 0.6929133858267716
        },
        {
          "duration": 0.060000000000002274,
          "durationTicks": 12,
          "midi": 62,
          "name": "D4",
          "ticks": 20592,
          "time": 102.96,
          "velocity": 0.6929133858267716
        },
        {
          "duration": 0.060000000000002274,
          "durationTicks": 12,
          "midi": 55,
          "name": "G3",
          "ticks": 20616,
          "time": 103.08,
          "velocity": 0.6929133858267716
        },
        {
          "duration": 0.05999999999998806,
          "durationTicks": 12,
          "midi": 53,
          "name": "F3",
          "ticks": 20640,
          "time": 103.2,
          "velocity": 0.6929133858267716
        },
        {
          "duration": 0.060000000000002274,
          "durationTicks": 12,
          "midi": 60,
          "name": "C4",
          "ticks": 20664,
          "time": 103.32,
          "velocity": 0.6929133858267716
        },
        {
          "duration": 0.12000000000000455,
          "durationTicks": 24,
          "midi": 53,
          "name": "F3",
          "ticks": 20688,
          "time": 103.44,
          "velocity": 0.6929133858267716
        },
        {
          "duration": 0.060000000000002274,
          "durationTicks": 12,
          "midi": 55,
          "name": "G3",
          "ticks": 20736,
          "time": 103.67999999999999,
          "velocity": 0.6929133858267716
        },
        {
          "duration": 0.060000000000002274,
          "durationTicks": 12,
          "midi": 67,
          "name": "G4",
          "ticks": 20760,
          "time": 103.8,
          "velocity": 0.6929133858267716
        },
        {
          "duration": 0.05999999999998806,
          "durationTicks": 12,
          "midi": 62,
          "name": "D4",
          "ticks": 20784,
          "time": 103.92,
          "velocity": 0.6929133858267716
        },
        {
          "duration": 0.060000000000002274,
          "durationTicks": 12,
          "midi": 55,
          "name": "G3",
          "ticks": 20808,
          "time": 104.03999999999999,
          "velocity": 0.6929133858267716
        },
        {
          "duration": 0.060000000000002274,
          "durationTicks": 12,
          "midi": 67,
          "name": "G4",
          "ticks": 20832,
          "time": 104.16,
          "velocity": 0.6929133858267716
        },
        {
          "duration": 0.05999999999998806,
          "durationTicks": 12,
          "midi": 62,
          "name": "D4",
          "ticks": 20856,
          "time": 104.28,
          "velocity": 0.6929133858267716
        },
        {
          "duration": 0.12000000000000455,
          "durationTicks": 24,
          "midi": 53,
          "name": "F3",
          "ticks": 20880,
          "time": 104.39999999999999,
          "velocity": 0.6929133858267716
        },
        {
          "duration": 0.060000000000002274,
          "durationTicks": 12,
          "midi": 55,
          "name": "G3",
          "ticks": 20928,
          "time": 104.64,
          "velocity": 0.6929133858267716
        },
        {
          "duration": 0.060000000000002274,
          "durationTicks": 12,
          "midi": 67,
          "name": "G4",
          "ticks": 20952,
          "time": 104.75999999999999,
          "velocity": 0.6929133858267716
        },
        {
          "duration": 0.060000000000002274,
          "durationTicks": 12,
          "midi": 62,
          "name": "D4",
          "ticks": 20976,
          "time": 104.88,
          "velocity": 0.6929133858267716
        },
        {
          "duration": 0.060000000000002274,
          "durationTicks": 12,
          "midi": 55,
          "name": "G3",
          "ticks": 21000,
          "time": 105,
          "velocity": 0.6929133858267716
        },
        {
          "duration": 0.060000000000002274,
          "durationTicks": 12,
          "midi": 67,
          "name": "G4",
          "ticks": 21024,
          "time": 105.11999999999999,
          "velocity": 0.6929133858267716
        },
        {
          "duration": 0.060000000000002274,
          "durationTicks": 12,
          "midi": 62,
          "name": "D4",
          "ticks": 21048,
          "time": 105.24,
          "velocity": 0.6929133858267716
        },
        {
          "duration": 0.11999999999999034,
          "durationTicks": 24,
          "midi": 53,
          "name": "F3",
          "ticks": 21072,
          "time": 105.36,
          "velocity": 0.6929133858267716
        },
        {
          "duration": 0.060000000000002274,
          "durationTicks": 12,
          "midi": 55,
          "name": "G3",
          "ticks": 21120,
          "time": 105.6,
          "velocity": 0.6929133858267716
        },
        {
          "duration": 0.060000000000002274,
          "durationTicks": 12,
          "midi": 67,
          "name": "G4",
          "ticks": 21144,
          "time": 105.72,
          "velocity": 0.6929133858267716
        },
        {
          "duration": 0.060000000000002274,
          "durationTicks": 12,
          "midi": 62,
          "name": "D4",
          "ticks": 21168,
          "time": 105.83999999999999,
          "velocity": 0.6929133858267716
        },
        {
          "duration": 0.060000000000002274,
          "durationTicks": 12,
          "midi": 55,
          "name": "G3",
          "ticks": 21192,
          "time": 105.96,
          "velocity": 0.6929133858267716
        },
        {
          "duration": 0.060000000000002274,
          "durationTicks": 12,
          "midi": 67,
          "name": "G4",
          "ticks": 21216,
          "time": 106.08,
          "velocity": 0.6929133858267716
        },
        {
          "duration": 0.05999999999998806,
          "durationTicks": 12,
          "midi": 62,
          "name": "D4",
          "ticks": 21240,
          "time": 106.2,
          "velocity": 0.6929133858267716
        },
        {
          "duration": 0.12000000000000455,
          "durationTicks": 24,
          "midi": 53,
          "name": "F3",
          "ticks": 21264,
          "time": 106.32,
          "velocity": 0.6929133858267716
        },
        {
          "duration": 0.05999999999998806,
          "durationTicks": 12,
          "midi": 55,
          "name": "G3",
          "ticks": 21312,
          "time": 106.56,
          "velocity": 0.6929133858267716
        },
        {
          "duration": 0.060000000000002274,
          "durationTicks": 12,
          "midi": 67,
          "name": "G4",
          "ticks": 21336,
          "time": 106.67999999999999,
          "velocity": 0.6929133858267716
        },
        {
          "duration": 0.060000000000002274,
          "durationTicks": 12,
          "midi": 62,
          "name": "D4",
          "ticks": 21360,
          "time": 106.8,
          "velocity": 0.6929133858267716
        },
        {
          "duration": 0.05999999999998806,
          "durationTicks": 12,
          "midi": 55,
          "name": "G3",
          "ticks": 21384,
          "time": 106.92,
          "velocity": 0.6929133858267716
        },
        {
          "duration": 0.060000000000002274,
          "durationTicks": 12,
          "midi": 53,
          "name": "F3",
          "ticks": 21408,
          "time": 107.03999999999999,
          "velocity": 0.6929133858267716
        },
        {
          "duration": 0.060000000000002274,
          "durationTicks": 12,
          "midi": 60,
          "name": "C4",
          "ticks": 21432,
          "time": 107.16,
          "velocity": 0.6929133858267716
        },
        {
          "duration": 0.23999999999999488,
          "durationTicks": 48,
          "midi": 53,
          "name": "F3",
          "ticks": 21456,
          "time": 107.28,
          "velocity": 0.6929133858267716
        },
        {
          "duration": 0.060000000000002274,
          "durationTicks": 12,
          "midi": 51,
          "name": "D#3",
          "ticks": 21504,
          "time": 107.52,
          "velocity": 0.6929133858267716
        },
        {
          "duration": 0.060000000000002274,
          "durationTicks": 12,
          "midi": 63,
          "name": "D#4",
          "ticks": 21528,
          "time": 107.64,
          "velocity": 0.6929133858267716
        },
        {
          "duration": 0.060000000000002274,
          "durationTicks": 12,
          "midi": 58,
          "name": "A#3",
          "ticks": 21552,
          "time": 107.75999999999999,
          "velocity": 0.6929133858267716
        },
        {
          "duration": 0.060000000000002274,
          "durationTicks": 12,
          "midi": 51,
          "name": "D#3",
          "ticks": 21576,
          "time": 107.88,
          "velocity": 0.6929133858267716
        },
        {
          "duration": 0.060000000000002274,
          "durationTicks": 12,
          "midi": 63,
          "name": "D#4",
          "ticks": 21600,
          "time": 108,
          "velocity": 0.6929133858267716
        },
        {
          "duration": 0.060000000000002274,
          "durationTicks": 12,
          "midi": 58,
          "name": "A#3",
          "ticks": 21624,
          "time": 108.11999999999999,
          "velocity": 0.6929133858267716
        },
        {
          "duration": 0.12000000000000455,
          "durationTicks": 24,
          "midi": 50,
          "name": "D3",
          "ticks": 21648,
          "time": 108.24,
          "velocity": 0.6929133858267716
        },
        {
          "duration": 0.060000000000002274,
          "durationTicks": 12,
          "midi": 51,
          "name": "D#3",
          "ticks": 21696,
          "time": 108.47999999999999,
          "velocity": 0.6929133858267716
        },
        {
          "duration": 0.060000000000002274,
          "durationTicks": 12,
          "midi": 63,
          "name": "D#4",
          "ticks": 21720,
          "time": 108.6,
          "velocity": 0.6929133858267716
        },
        {
          "duration": 0.060000000000002274,
          "durationTicks": 12,
          "midi": 58,
          "name": "A#3",
          "ticks": 21744,
          "time": 108.72,
          "velocity": 0.6929133858267716
        },
        {
          "duration": 0.060000000000002274,
          "durationTicks": 12,
          "midi": 51,
          "name": "D#3",
          "ticks": 21768,
          "time": 108.83999999999999,
          "velocity": 0.6929133858267716
        },
        {
          "duration": 0.060000000000002274,
          "durationTicks": 12,
          "midi": 63,
          "name": "D#4",
          "ticks": 21792,
          "time": 108.96,
          "velocity": 0.6929133858267716
        },
        {
          "duration": 0.060000000000002274,
          "durationTicks": 12,
          "midi": 58,
          "name": "A#3",
          "ticks": 21816,
          "time": 109.08,
          "velocity": 0.6929133858267716
        },
        {
          "duration": 0.11999999999999034,
          "durationTicks": 24,
          "midi": 50,
          "name": "D3",
          "ticks": 21840,
          "time": 109.2,
          "velocity": 0.6929133858267716
        },
        {
          "duration": 0.060000000000002274,
          "durationTicks": 12,
          "midi": 51,
          "name": "D#3",
          "ticks": 21888,
          "time": 109.44,
          "velocity": 0.6929133858267716
        },
        {
          "duration": 0.05999999999998806,
          "durationTicks": 12,
          "midi": 63,
          "name": "D#4",
          "ticks": 21912,
          "time": 109.56,
          "velocity": 0.6929133858267716
        },
        {
          "duration": 0.060000000000002274,
          "durationTicks": 12,
          "midi": 58,
          "name": "A#3",
          "ticks": 21936,
          "time": 109.67999999999999,
          "velocity": 0.6929133858267716
        },
        {
          "duration": 0.060000000000002274,
          "durationTicks": 12,
          "midi": 51,
          "name": "D#3",
          "ticks": 21960,
          "time": 109.8,
          "velocity": 0.6929133858267716
        },
        {
          "duration": 0.05999999999998806,
          "durationTicks": 12,
          "midi": 63,
          "name": "D#4",
          "ticks": 21984,
          "time": 109.92,
          "velocity": 0.6929133858267716
        },
        {
          "duration": 0.060000000000002274,
          "durationTicks": 12,
          "midi": 58,
          "name": "A#3",
          "ticks": 22008,
          "time": 110.03999999999999,
          "velocity": 0.6929133858267716
        },
        {
          "duration": 0.12000000000000455,
          "durationTicks": 24,
          "midi": 50,
          "name": "D3",
          "ticks": 22032,
          "time": 110.16,
          "velocity": 0.6929133858267716
        },
        {
          "duration": 0.060000000000002274,
          "durationTicks": 12,
          "midi": 51,
          "name": "D#3",
          "ticks": 22080,
          "time": 110.39999999999999,
          "velocity": 0.6929133858267716
        },
        {
          "duration": 0.060000000000002274,
          "durationTicks": 12,
          "midi": 63,
          "name": "D#4",
          "ticks": 22104,
          "time": 110.52,
          "velocity": 0.6929133858267716
        },
        {
          "duration": 0.060000000000002274,
          "durationTicks": 12,
          "midi": 58,
          "name": "A#3",
          "ticks": 22128,
          "time": 110.64,
          "velocity": 0.6929133858267716
        },
        {
          "duration": 0.060000000000002274,
          "durationTicks": 12,
          "midi": 51,
          "name": "D#3",
          "ticks": 22152,
          "time": 110.75999999999999,
          "velocity": 0.6929133858267716
        },
        {
          "duration": 0.060000000000002274,
          "durationTicks": 12,
          "midi": 53,
          "name": "F3",
          "ticks": 22176,
          "time": 110.88,
          "velocity": 0.6929133858267716
        },
        {
          "duration": 0.060000000000002274,
          "durationTicks": 12,
          "midi": 60,
          "name": "C4",
          "ticks": 22200,
          "time": 111,
          "velocity": 0.6929133858267716
        },
        {
          "duration": 0.2400000000000091,
          "durationTicks": 48,
          "midi": 53,
          "name": "F3",
          "ticks": 22224,
          "time": 111.11999999999999,
          "velocity": 0.6929133858267716
        },
        {
          "duration": 0.060000000000002274,
          "durationTicks": 12,
          "midi": 51,
          "name": "D#3",
          "ticks": 22272,
          "time": 111.36,
          "velocity": 0.6929133858267716
        },
        {
          "duration": 0.060000000000002274,
          "durationTicks": 12,
          "midi": 63,
          "name": "D#4",
          "ticks": 22296,
          "time": 111.47999999999999,
          "velocity": 0.6929133858267716
        },
        {
          "duration": 0.060000000000002274,
          "durationTicks": 12,
          "midi": 58,
          "name": "A#3",
          "ticks": 22320,
          "time": 111.6,
          "velocity": 0.6929133858267716
        },
        {
          "duration": 0.060000000000002274,
          "durationTicks": 12,
          "midi": 51,
          "name": "D#3",
          "ticks": 22344,
          "time": 111.72,
          "velocity": 0.6929133858267716
        },
        {
          "duration": 0.060000000000002274,
          "durationTicks": 12,
          "midi": 63,
          "name": "D#4",
          "ticks": 22368,
          "time": 111.83999999999999,
          "velocity": 0.6929133858267716
        },
        {
          "duration": 0.060000000000002274,
          "durationTicks": 12,
          "midi": 58,
          "name": "A#3",
          "ticks": 22392,
          "time": 111.96,
          "velocity": 0.6929133858267716
        },
        {
          "duration": 0.12000000000000455,
          "durationTicks": 24,
          "midi": 50,
          "name": "D3",
          "ticks": 22416,
          "time": 112.08,
          "velocity": 0.6929133858267716
        },
        {
          "duration": 0.060000000000002274,
          "durationTicks": 12,
          "midi": 51,
          "name": "D#3",
          "ticks": 22464,
          "time": 112.32,
          "velocity": 0.6929133858267716
        },
        {
          "duration": 0.060000000000002274,
          "durationTicks": 12,
          "midi": 63,
          "name": "D#4",
          "ticks": 22488,
          "time": 112.44,
          "velocity": 0.6929133858267716
        },
        {
          "duration": 0.05999999999998806,
          "durationTicks": 12,
          "midi": 58,
          "name": "A#3",
          "ticks": 22512,
          "time": 112.56,
          "velocity": 0.6929133858267716
        },
        {
          "duration": 0.060000000000002274,
          "durationTicks": 12,
          "midi": 51,
          "name": "D#3",
          "ticks": 22536,
          "time": 112.67999999999999,
          "velocity": 0.6929133858267716
        },
        {
          "duration": 0.060000000000002274,
          "durationTicks": 12,
          "midi": 63,
          "name": "D#4",
          "ticks": 22560,
          "time": 112.8,
          "velocity": 0.6929133858267716
        },
        {
          "duration": 0.05999999999998806,
          "durationTicks": 12,
          "midi": 58,
          "name": "A#3",
          "ticks": 22584,
          "time": 112.92,
          "velocity": 0.6929133858267716
        },
        {
          "duration": 0.12000000000000455,
          "durationTicks": 24,
          "midi": 50,
          "name": "D3",
          "ticks": 22608,
          "time": 113.03999999999999,
          "velocity": 0.6929133858267716
        },
        {
          "duration": 0.05999999999998806,
          "durationTicks": 12,
          "midi": 51,
          "name": "D#3",
          "ticks": 22656,
          "time": 113.28,
          "velocity": 0.6929133858267716
        },
        {
          "duration": 0.060000000000002274,
          "durationTicks": 12,
          "midi": 63,
          "name": "D#4",
          "ticks": 22680,
          "time": 113.39999999999999,
          "velocity": 0.6929133858267716
        },
        {
          "duration": 0.060000000000002274,
          "durationTicks": 12,
          "midi": 58,
          "name": "A#3",
          "ticks": 22704,
          "time": 113.52,
          "velocity": 0.6929133858267716
        },
        {
          "duration": 0.060000000000002274,
          "durationTicks": 12,
          "midi": 51,
          "name": "D#3",
          "ticks": 22728,
          "time": 113.64,
          "velocity": 0.6929133858267716
        },
        {
          "duration": 0.060000000000002274,
          "durationTicks": 12,
          "midi": 63,
          "name": "D#4",
          "ticks": 22752,
          "time": 113.75999999999999,
          "velocity": 0.6929133858267716
        },
        {
          "duration": 0.060000000000002274,
          "durationTicks": 12,
          "midi": 58,
          "name": "A#3",
          "ticks": 22776,
          "time": 113.88,
          "velocity": 0.6929133858267716
        },
        {
          "duration": 0.11999999999999034,
          "durationTicks": 24,
          "midi": 50,
          "name": "D3",
          "ticks": 22800,
          "time": 114,
          "velocity": 0.6929133858267716
        },
        {
          "duration": 0.060000000000002274,
          "durationTicks": 12,
          "midi": 51,
          "name": "D#3",
          "ticks": 22848,
          "time": 114.24,
          "velocity": 0.6929133858267716
        },
        {
          "duration": 0.060000000000002274,
          "durationTicks": 12,
          "midi": 63,
          "name": "D#4",
          "ticks": 22872,
          "time": 114.36,
          "velocity": 0.6929133858267716
        },
        {
          "duration": 0.060000000000002274,
          "durationTicks": 12,
          "midi": 58,
          "name": "A#3",
          "ticks": 22896,
          "time": 114.47999999999999,
          "velocity": 0.6929133858267716
        },
        {
          "duration": 0.060000000000002274,
          "durationTicks": 12,
          "midi": 51,
          "name": "D#3",
          "ticks": 22920,
          "time": 114.6,
          "velocity": 0.6929133858267716
        },
        {
          "duration": 0.060000000000002274,
          "durationTicks": 12,
          "midi": 53,
          "name": "F3",
          "ticks": 22944,
          "time": 114.72,
          "velocity": 0.6929133858267716
        },
        {
          "duration": 0.060000000000002274,
          "durationTicks": 12,
          "midi": 60,
          "name": "C4",
          "ticks": 22968,
          "time": 114.83999999999999,
          "velocity": 0.6929133858267716
        },
        {
          "duration": 0.23999999999999488,
          "durationTicks": 48,
          "midi": 53,
          "name": "F3",
          "ticks": 22992,
          "time": 114.96,
          "velocity": 0.6929133858267716
        },
        {
          "duration": 0.060000000000002274,
          "durationTicks": 12,
          "midi": 55,
          "name": "G3",
          "ticks": 23040,
          "time": 115.19999999999999,
          "velocity": 0.6929133858267716
        },
        {
          "duration": 0.060000000000002274,
          "durationTicks": 12,
          "midi": 67,
          "name": "G4",
          "ticks": 23064,
          "time": 115.32,
          "velocity": 0.6929133858267716
        },
        {
          "duration": 0.060000000000002274,
          "durationTicks": 12,
          "midi": 62,
          "name": "D4",
          "ticks": 23088,
          "time": 115.44,
          "velocity": 0.6929133858267716
        },
        {
          "duration": 0.05999999999998806,
          "durationTicks": 12,
          "midi": 55,
          "name": "G3",
          "ticks": 23112,
          "time": 115.56,
          "velocity": 0.6929133858267716
        },
        {
          "duration": 0.060000000000002274,
          "durationTicks": 12,
          "midi": 67,
          "name": "G4",
          "ticks": 23136,
          "time": 115.67999999999999,
          "velocity": 0.6929133858267716
        },
        {
          "duration": 0.060000000000002274,
          "durationTicks": 12,
          "midi": 62,
          "name": "D4",
          "ticks": 23160,
          "time": 115.8,
          "velocity": 0.6929133858267716
        },
        {
          "duration": 0.11999999999999034,
          "durationTicks": 24,
          "midi": 53,
          "name": "F3",
          "ticks": 23184,
          "time": 115.92,
          "velocity": 0.6929133858267716
        },
        {
          "duration": 0.060000000000002274,
          "durationTicks": 12,
          "midi": 55,
          "name": "G3",
          "ticks": 23232,
          "time": 116.16,
          "velocity": 0.6929133858267716
        },
        {
          "duration": 0.05999999999998806,
          "durationTicks": 12,
          "midi": 67,
          "name": "G4",
          "ticks": 23256,
          "time": 116.28,
          "velocity": 0.6929133858267716
        },
        {
          "duration": 0.060000000000002274,
          "durationTicks": 12,
          "midi": 62,
          "name": "D4",
          "ticks": 23280,
          "time": 116.39999999999999,
          "velocity": 0.6929133858267716
        },
        {
          "duration": 0.060000000000002274,
          "durationTicks": 12,
          "midi": 55,
          "name": "G3",
          "ticks": 23304,
          "time": 116.52,
          "velocity": 0.6929133858267716
        },
        {
          "duration": 0.05999999999998806,
          "durationTicks": 12,
          "midi": 67,
          "name": "G4",
          "ticks": 23328,
          "time": 116.64,
          "velocity": 0.6929133858267716
        },
        {
          "duration": 0.060000000000002274,
          "durationTicks": 12,
          "midi": 62,
          "name": "D4",
          "ticks": 23352,
          "time": 116.75999999999999,
          "velocity": 0.6929133858267716
        },
        {
          "duration": 0.12000000000000455,
          "durationTicks": 24,
          "midi": 53,
          "name": "F3",
          "ticks": 23376,
          "time": 116.88,
          "velocity": 0.6929133858267716
        },
        {
          "duration": 0.060000000000002274,
          "durationTicks": 12,
          "midi": 55,
          "name": "G3",
          "ticks": 23424,
          "time": 117.11999999999999,
          "velocity": 0.6929133858267716
        },
        {
          "duration": 0.060000000000002274,
          "durationTicks": 12,
          "midi": 67,
          "name": "G4",
          "ticks": 23448,
          "time": 117.24,
          "velocity": 0.6929133858267716
        },
        {
          "duration": 0.060000000000002274,
          "durationTicks": 12,
          "midi": 62,
          "name": "D4",
          "ticks": 23472,
          "time": 117.36,
          "velocity": 0.6929133858267716
        },
        {
          "duration": 0.060000000000002274,
          "durationTicks": 12,
          "midi": 55,
          "name": "G3",
          "ticks": 23496,
          "time": 117.47999999999999,
          "velocity": 0.6929133858267716
        },
        {
          "duration": 0.060000000000002274,
          "durationTicks": 12,
          "midi": 67,
          "name": "G4",
          "ticks": 23520,
          "time": 117.6,
          "velocity": 0.6929133858267716
        },
        {
          "duration": 0.060000000000002274,
          "durationTicks": 12,
          "midi": 62,
          "name": "D4",
          "ticks": 23544,
          "time": 117.72,
          "velocity": 0.6929133858267716
        },
        {
          "duration": 0.12000000000000455,
          "durationTicks": 24,
          "midi": 53,
          "name": "F3",
          "ticks": 23568,
          "time": 117.83999999999999,
          "velocity": 0.6929133858267716
        },
        {
          "duration": 0.060000000000002274,
          "durationTicks": 12,
          "midi": 55,
          "name": "G3",
          "ticks": 23616,
          "time": 118.08,
          "velocity": 0.6929133858267716
        },
        {
          "duration": 0.060000000000002274,
          "durationTicks": 12,
          "midi": 67,
          "name": "G4",
          "ticks": 23640,
          "time": 118.19999999999999,
          "velocity": 0.6929133858267716
        },
        {
          "duration": 0.060000000000002274,
          "durationTicks": 12,
          "midi": 62,
          "name": "D4",
          "ticks": 23664,
          "time": 118.32,
          "velocity": 0.6929133858267716
        },
        {
          "duration": 0.060000000000002274,
          "durationTicks": 12,
          "midi": 55,
          "name": "G3",
          "ticks": 23688,
          "time": 118.44,
          "velocity": 0.6929133858267716
        },
        {
          "duration": 0.05999999999998806,
          "durationTicks": 12,
          "midi": 53,
          "name": "F3",
          "ticks": 23712,
          "time": 118.56,
          "velocity": 0.6929133858267716
        },
        {
          "duration": 0.060000000000002274,
          "durationTicks": 12,
          "midi": 60,
          "name": "C4",
          "ticks": 23736,
          "time": 118.67999999999999,
          "velocity": 0.6929133858267716
        },
        {
          "duration": 0.12000000000000455,
          "durationTicks": 24,
          "midi": 53,
          "name": "F3",
          "ticks": 23760,
          "time": 118.8,
          "velocity": 0.6929133858267716
        },
        {
          "duration": 0.060000000000002274,
          "durationTicks": 12,
          "midi": 55,
          "name": "G3",
          "ticks": 23808,
          "time": 119.03999999999999,
          "velocity": 0.6929133858267716
        },
        {
          "duration": 0.060000000000002274,
          "durationTicks": 12,
          "midi": 67,
          "name": "G4",
          "ticks": 23832,
          "time": 119.16,
          "velocity": 0.6929133858267716
        },
        {
          "duration": 0.05999999999998806,
          "durationTicks": 12,
          "midi": 62,
          "name": "D4",
          "ticks": 23856,
          "time": 119.28,
          "velocity": 0.6929133858267716
        },
        {
          "duration": 0.060000000000002274,
          "durationTicks": 12,
          "midi": 55,
          "name": "G3",
          "ticks": 23880,
          "time": 119.39999999999999,
          "velocity": 0.6929133858267716
        },
        {
          "duration": 0.060000000000002274,
          "durationTicks": 12,
          "midi": 67,
          "name": "G4",
          "ticks": 23904,
          "time": 119.52,
          "velocity": 0.6929133858267716
        },
        {
          "duration": 0.05999999999998806,
          "durationTicks": 12,
          "midi": 62,
          "name": "D4",
          "ticks": 23928,
          "time": 119.64,
          "velocity": 0.6929133858267716
        },
        {
          "duration": 0.12000000000000455,
          "durationTicks": 24,
          "midi": 53,
          "name": "F3",
          "ticks": 23952,
          "time": 119.75999999999999,
          "velocity": 0.6929133858267716
        },
        {
          "duration": 0.060000000000002274,
          "durationTicks": 12,
          "midi": 55,
          "name": "G3",
          "ticks": 24000,
          "time": 120,
          "velocity": 0.6929133858267716
        },
        {
          "duration": 0.060000000000002274,
          "durationTicks": 12,
          "midi": 67,
          "name": "G4",
          "ticks": 24024,
          "time": 120.11999999999999,
          "velocity": 0.6929133858267716
        },
        {
          "duration": 0.060000000000002274,
          "durationTicks": 12,
          "midi": 62,
          "name": "D4",
          "ticks": 24048,
          "time": 120.24,
          "velocity": 0.6929133858267716
        },
        {
          "duration": 0.060000000000002274,
          "durationTicks": 12,
          "midi": 55,
          "name": "G3",
          "ticks": 24072,
          "time": 120.36,
          "velocity": 0.6929133858267716
        },
        {
          "duration": 0.060000000000002274,
          "durationTicks": 12,
          "midi": 67,
          "name": "G4",
          "ticks": 24096,
          "time": 120.47999999999999,
          "velocity": 0.6929133858267716
        },
        {
          "duration": 0.060000000000002274,
          "durationTicks": 12,
          "midi": 62,
          "name": "D4",
          "ticks": 24120,
          "time": 120.6,
          "velocity": 0.6929133858267716
        },
        {
          "duration": 0.11999999999999034,
          "durationTicks": 24,
          "midi": 53,
          "name": "F3",
          "ticks": 24144,
          "time": 120.72,
          "velocity": 0.6929133858267716
        },
        {
          "duration": 0.060000000000002274,
          "durationTicks": 12,
          "midi": 55,
          "name": "G3",
          "ticks": 24192,
          "time": 120.96,
          "velocity": 0.6929133858267716
        },
        {
          "duration": 0.060000000000002274,
          "durationTicks": 12,
          "midi": 67,
          "name": "G4",
          "ticks": 24216,
          "time": 121.08,
          "velocity": 0.6929133858267716
        },
        {
          "duration": 0.060000000000002274,
          "durationTicks": 12,
          "midi": 62,
          "name": "D4",
          "ticks": 24240,
          "time": 121.19999999999999,
          "velocity": 0.6929133858267716
        },
        {
          "duration": 0.060000000000002274,
          "durationTicks": 12,
          "midi": 55,
          "name": "G3",
          "ticks": 24264,
          "time": 121.32,
          "velocity": 0.6929133858267716
        },
        {
          "duration": 0.060000000000002274,
          "durationTicks": 12,
          "midi": 67,
          "name": "G4",
          "ticks": 24288,
          "time": 121.44,
          "velocity": 0.6929133858267716
        },
        {
          "duration": 0.05999999999998806,
          "durationTicks": 12,
          "midi": 62,
          "name": "D4",
          "ticks": 24312,
          "time": 121.56,
          "velocity": 0.6929133858267716
        },
        {
          "duration": 0.12000000000000455,
          "durationTicks": 24,
          "midi": 53,
          "name": "F3",
          "ticks": 24336,
          "time": 121.67999999999999,
          "velocity": 0.6929133858267716
        },
        {
          "duration": 0.05999999999998806,
          "durationTicks": 12,
          "midi": 55,
          "name": "G3",
          "ticks": 24384,
          "time": 121.92,
          "velocity": 0.6929133858267716
        },
        {
          "duration": 0.060000000000002274,
          "durationTicks": 12,
          "midi": 67,
          "name": "G4",
          "ticks": 24408,
          "time": 122.03999999999999,
          "velocity": 0.6929133858267716
        },
        {
          "duration": 0.060000000000002274,
          "durationTicks": 12,
          "midi": 62,
          "name": "D4",
          "ticks": 24432,
          "time": 122.16,
          "velocity": 0.6929133858267716
        },
        {
          "duration": 0.05999999999998806,
          "durationTicks": 12,
          "midi": 55,
          "name": "G3",
          "ticks": 24456,
          "time": 122.28,
          "velocity": 0.6929133858267716
        },
        {
          "duration": 0.060000000000002274,
          "durationTicks": 12,
          "midi": 53,
          "name": "F3",
          "ticks": 24480,
          "time": 122.39999999999999,
          "velocity": 0.6929133858267716
        },
        {
          "duration": 0.060000000000002274,
          "durationTicks": 12,
          "midi": 60,
          "name": "C4",
          "ticks": 24504,
          "time": 122.52,
          "velocity": 0.6929133858267716
        },
        {
          "duration": 0.23999999999999488,
          "durationTicks": 48,
          "midi": 53,
          "name": "F3",
          "ticks": 24528,
          "time": 122.64,
          "velocity": 0.6929133858267716
        },
        {
          "duration": 0.060000000000002274,
          "durationTicks": 12,
          "midi": 51,
          "name": "D#3",
          "ticks": 24576,
          "time": 122.88,
          "velocity": 0.6929133858267716
        },
        {
          "duration": 0.060000000000002274,
          "durationTicks": 12,
          "midi": 63,
          "name": "D#4",
          "ticks": 24600,
          "time": 123,
          "velocity": 0.6929133858267716
        },
        {
          "duration": 0.060000000000002274,
          "durationTicks": 12,
          "midi": 58,
          "name": "A#3",
          "ticks": 24624,
          "time": 123.11999999999999,
          "velocity": 0.6929133858267716
        },
        {
          "duration": 0.060000000000002274,
          "durationTicks": 12,
          "midi": 51,
          "name": "D#3",
          "ticks": 24648,
          "time": 123.24,
          "velocity": 0.6929133858267716
        },
        {
          "duration": 0.060000000000002274,
          "durationTicks": 12,
          "midi": 63,
          "name": "D#4",
          "ticks": 24672,
          "time": 123.36,
          "velocity": 0.6929133858267716
        },
        {
          "duration": 0.060000000000002274,
          "durationTicks": 12,
          "midi": 58,
          "name": "A#3",
          "ticks": 24696,
          "time": 123.47999999999999,
          "velocity": 0.6929133858267716
        },
        {
          "duration": 0.12000000000000455,
          "durationTicks": 24,
          "midi": 50,
          "name": "D3",
          "ticks": 24720,
          "time": 123.6,
          "velocity": 0.6929133858267716
        },
        {
          "duration": 0.060000000000002274,
          "durationTicks": 12,
          "midi": 51,
          "name": "D#3",
          "ticks": 24768,
          "time": 123.83999999999999,
          "velocity": 0.6929133858267716
        },
        {
          "duration": 0.060000000000002274,
          "durationTicks": 12,
          "midi": 63,
          "name": "D#4",
          "ticks": 24792,
          "time": 123.96,
          "velocity": 0.6929133858267716
        },
        {
          "duration": 0.060000000000002274,
          "durationTicks": 12,
          "midi": 58,
          "name": "A#3",
          "ticks": 24816,
          "time": 124.08,
          "velocity": 0.6929133858267716
        },
        {
          "duration": 0.060000000000002274,
          "durationTicks": 12,
          "midi": 51,
          "name": "D#3",
          "ticks": 24840,
          "time": 124.19999999999999,
          "velocity": 0.6929133858267716
        },
        {
          "duration": 0.060000000000002274,
          "durationTicks": 12,
          "midi": 63,
          "name": "D#4",
          "ticks": 24864,
          "time": 124.32,
          "velocity": 0.6929133858267716
        },
        {
          "duration": 0.060000000000002274,
          "durationTicks": 12,
          "midi": 58,
          "name": "A#3",
          "ticks": 24888,
          "time": 124.44,
          "velocity": 0.6929133858267716
        },
        {
          "duration": 0.11999999999999034,
          "durationTicks": 24,
          "midi": 50,
          "name": "D3",
          "ticks": 24912,
          "time": 124.56,
          "velocity": 0.6929133858267716
        },
        {
          "duration": 0.060000000000002274,
          "durationTicks": 12,
          "midi": 51,
          "name": "D#3",
          "ticks": 24960,
          "time": 124.8,
          "velocity": 0.6929133858267716
        },
        {
          "duration": 0.05999999999998806,
          "durationTicks": 12,
          "midi": 63,
          "name": "D#4",
          "ticks": 24984,
          "time": 124.92,
          "velocity": 0.6929133858267716
        },
        {
          "duration": 0.060000000000002274,
          "durationTicks": 12,
          "midi": 58,
          "name": "A#3",
          "ticks": 25008,
          "time": 125.03999999999999,
          "velocity": 0.6929133858267716
        },
        {
          "duration": 0.060000000000002274,
          "durationTicks": 12,
          "midi": 51,
          "name": "D#3",
          "ticks": 25032,
          "time": 125.16,
          "velocity": 0.6929133858267716
        },
        {
          "duration": 0.05999999999998806,
          "durationTicks": 12,
          "midi": 63,
          "name": "D#4",
          "ticks": 25056,
          "time": 125.28,
          "velocity": 0.6929133858267716
        },
        {
          "duration": 0.060000000000002274,
          "durationTicks": 12,
          "midi": 58,
          "name": "A#3",
          "ticks": 25080,
          "time": 125.39999999999999,
          "velocity": 0.6929133858267716
        },
        {
          "duration": 0.12000000000000455,
          "durationTicks": 24,
          "midi": 50,
          "name": "D3",
          "ticks": 25104,
          "time": 125.52,
          "velocity": 0.6929133858267716
        },
        {
          "duration": 0.060000000000002274,
          "durationTicks": 12,
          "midi": 51,
          "name": "D#3",
          "ticks": 25152,
          "time": 125.75999999999999,
          "velocity": 0.6929133858267716
        },
        {
          "duration": 0.060000000000002274,
          "durationTicks": 12,
          "midi": 63,
          "name": "D#4",
          "ticks": 25176,
          "time": 125.88,
          "velocity": 0.6929133858267716
        },
        {
          "duration": 0.060000000000002274,
          "durationTicks": 12,
          "midi": 58,
          "name": "A#3",
          "ticks": 25200,
          "time": 126,
          "velocity": 0.6929133858267716
        },
        {
          "duration": 0.060000000000002274,
          "durationTicks": 12,
          "midi": 51,
          "name": "D#3",
          "ticks": 25224,
          "time": 126.11999999999999,
          "velocity": 0.6929133858267716
        },
        {
          "duration": 0.060000000000002274,
          "durationTicks": 12,
          "midi": 53,
          "name": "F3",
          "ticks": 25248,
          "time": 126.24,
          "velocity": 0.6929133858267716
        },
        {
          "duration": 0.060000000000002274,
          "durationTicks": 12,
          "midi": 60,
          "name": "C4",
          "ticks": 25272,
          "time": 126.36,
          "velocity": 0.6929133858267716
        },
        {
          "duration": 0.2400000000000091,
          "durationTicks": 48,
          "midi": 53,
          "name": "F3",
          "ticks": 25296,
          "time": 126.47999999999999,
          "velocity": 0.6929133858267716
        },
        {
          "duration": 0.060000000000002274,
          "durationTicks": 12,
          "midi": 51,
          "name": "D#3",
          "ticks": 25344,
          "time": 126.72,
          "velocity": 0.6929133858267716
        },
        {
          "duration": 0.060000000000002274,
          "durationTicks": 12,
          "midi": 63,
          "name": "D#4",
          "ticks": 25368,
          "time": 126.83999999999999,
          "velocity": 0.6929133858267716
        },
        {
          "duration": 0.060000000000002274,
          "durationTicks": 12,
          "midi": 58,
          "name": "A#3",
          "ticks": 25392,
          "time": 126.96,
          "velocity": 0.6929133858267716
        },
        {
          "duration": 0.060000000000002274,
          "durationTicks": 12,
          "midi": 51,
          "name": "D#3",
          "ticks": 25416,
          "time": 127.08,
          "velocity": 0.6929133858267716
        },
        {
          "duration": 0.060000000000002274,
          "durationTicks": 12,
          "midi": 63,
          "name": "D#4",
          "ticks": 25440,
          "time": 127.19999999999999,
          "velocity": 0.6929133858267716
        },
        {
          "duration": 0.060000000000002274,
          "durationTicks": 12,
          "midi": 58,
          "name": "A#3",
          "ticks": 25464,
          "time": 127.32,
          "velocity": 0.6929133858267716
        },
        {
          "duration": 0.12000000000000455,
          "durationTicks": 24,
          "midi": 50,
          "name": "D3",
          "ticks": 25488,
          "time": 127.44,
          "velocity": 0.6929133858267716
        },
        {
          "duration": 0.060000000000002274,
          "durationTicks": 12,
          "midi": 51,
          "name": "D#3",
          "ticks": 25536,
          "time": 127.67999999999999,
          "velocity": 0.6929133858267716
        },
        {
          "duration": 0.060000000000002274,
          "durationTicks": 12,
          "midi": 63,
          "name": "D#4",
          "ticks": 25560,
          "time": 127.8,
          "velocity": 0.6929133858267716
        },
        {
          "duration": 0.05999999999998806,
          "durationTicks": 12,
          "midi": 58,
          "name": "A#3",
          "ticks": 25584,
          "time": 127.92,
          "velocity": 0.6929133858267716
        },
        {
          "duration": 0.060000000000002274,
          "durationTicks": 12,
          "midi": 51,
          "name": "D#3",
          "ticks": 25608,
          "time": 128.04,
          "velocity": 0.6929133858267716
        },
        {
          "duration": 0.060000000000002274,
          "durationTicks": 12,
          "midi": 63,
          "name": "D#4",
          "ticks": 25632,
          "time": 128.16,
          "velocity": 0.6929133858267716
        },
        {
          "duration": 0.060000000000002274,
          "durationTicks": 12,
          "midi": 58,
          "name": "A#3",
          "ticks": 25656,
          "time": 128.28,
          "velocity": 0.6929133858267716
        },
        {
          "duration": 0.11999999999997613,
          "durationTicks": 24,
          "midi": 50,
          "name": "D3",
          "ticks": 25680,
          "time": 128.4,
          "velocity": 0.6929133858267716
        },
        {
          "duration": 0.060000000000002274,
          "durationTicks": 12,
          "midi": 51,
          "name": "D#3",
          "ticks": 25728,
          "time": 128.64,
          "velocity": 0.6929133858267716
        },
        {
          "duration": 0.060000000000002274,
          "durationTicks": 12,
          "midi": 63,
          "name": "D#4",
          "ticks": 25752,
          "time": 128.76,
          "velocity": 0.6929133858267716
        },
        {
          "duration": 0.060000000000002274,
          "durationTicks": 12,
          "midi": 58,
          "name": "A#3",
          "ticks": 25776,
          "time": 128.88,
          "velocity": 0.6929133858267716
        },
        {
          "duration": 0.060000000000002274,
          "durationTicks": 12,
          "midi": 51,
          "name": "D#3",
          "ticks": 25800,
          "time": 129,
          "velocity": 0.6929133858267716
        },
        {
          "duration": 0.060000000000002274,
          "durationTicks": 12,
          "midi": 63,
          "name": "D#4",
          "ticks": 25824,
          "time": 129.12,
          "velocity": 0.6929133858267716
        },
        {
          "duration": 0.05999999999997385,
          "durationTicks": 12,
          "midi": 58,
          "name": "A#3",
          "ticks": 25848,
          "time": 129.24,
          "velocity": 0.6929133858267716
        },
        {
          "duration": 0.12000000000000455,
          "durationTicks": 24,
          "midi": 50,
          "name": "D3",
          "ticks": 25872,
          "time": 129.35999999999999,
          "velocity": 0.6929133858267716
        },
        {
          "duration": 0.060000000000002274,
          "durationTicks": 12,
          "midi": 51,
          "name": "D#3",
          "ticks": 25920,
          "time": 129.6,
          "velocity": 0.6929133858267716
        },
        {
          "duration": 0.060000000000002274,
          "durationTicks": 12,
          "midi": 63,
          "name": "D#4",
          "ticks": 25944,
          "time": 129.72,
          "velocity": 0.6929133858267716
        },
        {
          "duration": 0.060000000000002274,
          "durationTicks": 12,
          "midi": 58,
          "name": "A#3",
          "ticks": 25968,
          "time": 129.84,
          "velocity": 0.6929133858267716
        },
        {
          "duration": 0.05999999999997385,
          "durationTicks": 12,
          "midi": 51,
          "name": "D#3",
          "ticks": 25992,
          "time": 129.96,
          "velocity": 0.6929133858267716
        },
        {
          "duration": 0.060000000000002274,
          "durationTicks": 12,
          "midi": 53,
          "name": "F3",
          "ticks": 26016,
          "time": 130.07999999999998,
          "velocity": 0.6929133858267716
        },
        {
          "duration": 0.060000000000002274,
          "durationTicks": 12,
          "midi": 60,
          "name": "C4",
          "ticks": 26040,
          "time": 130.2,
          "velocity": 0.6929133858267716
        },
        {
          "duration": 0.2400000000000091,
          "durationTicks": 48,
          "midi": 53,
          "name": "F3",
          "ticks": 26064,
          "time": 130.32,
          "velocity": 0.6929133858267716
        },
        {
          "duration": 0.060000000000002274,
          "durationTicks": 12,
          "midi": 48,
          "name": "C3",
          "ticks": 26112,
          "time": 130.56,
          "velocity": 0.6929133858267716
        },
        {
          "duration": 0.060000000000002274,
          "durationTicks": 12,
          "midi": 60,
          "name": "C4",
          "ticks": 26136,
          "time": 130.68,
          "velocity": 0.6929133858267716
        },
        {
          "duration": 0.060000000000002274,
          "durationTicks": 12,
          "midi": 55,
          "name": "G3",
          "ticks": 26160,
          "time": 130.79999999999998,
          "velocity": 0.6929133858267716
        },
        {
          "duration": 0.060000000000002274,
          "durationTicks": 12,
          "midi": 48,
          "name": "C3",
          "ticks": 26184,
          "time": 130.92,
          "velocity": 0.6929133858267716
        },
        {
          "duration": 0.060000000000002274,
          "durationTicks": 12,
          "midi": 60,
          "name": "C4",
          "ticks": 26208,
          "time": 131.04,
          "velocity": 0.6929133858267716
        },
        {
          "duration": 0.060000000000002274,
          "durationTicks": 12,
          "midi": 55,
          "name": "G3",
          "ticks": 26232,
          "time": 131.16,
          "velocity": 0.6929133858267716
        },
        {
          "duration": 0.23999999999998067,
          "durationTicks": 48,
          "midi": 48,
          "name": "C3",
          "ticks": 26256,
          "time": 131.28,
          "velocity": 0.6929133858267716
        },
        {
          "duration": 0.060000000000002274,
          "durationTicks": 12,
          "midi": 48,
          "name": "C3",
          "ticks": 26304,
          "time": 131.51999999999998,
          "velocity": 0.6929133858267716
        },
        {
          "duration": 0.060000000000002274,
          "durationTicks": 12,
          "midi": 60,
          "name": "C4",
          "ticks": 26328,
          "time": 131.64,
          "velocity": 0.6929133858267716
        },
        {
          "duration": 0.060000000000002274,
          "durationTicks": 12,
          "midi": 55,
          "name": "G3",
          "ticks": 26352,
          "time": 131.76,
          "velocity": 0.6929133858267716
        },
        {
          "duration": 0.060000000000002274,
          "durationTicks": 12,
          "midi": 48,
          "name": "C3",
          "ticks": 26376,
          "time": 131.88,
          "velocity": 0.6929133858267716
        },
        {
          "duration": 0.060000000000002274,
          "durationTicks": 12,
          "midi": 60,
          "name": "C4",
          "ticks": 26400,
          "time": 132,
          "velocity": 0.6929133858267716
        },
        {
          "duration": 0.060000000000002274,
          "durationTicks": 12,
          "midi": 55,
          "name": "G3",
          "ticks": 26424,
          "time": 132.12,
          "velocity": 0.6929133858267716
        },
        {
          "duration": 0.23999999999998067,
          "durationTicks": 48,
          "midi": 48,
          "name": "C3",
          "ticks": 26448,
          "time": 132.24,
          "velocity": 0.6929133858267716
        },
        {
          "duration": 0.060000000000002274,
          "durationTicks": 12,
          "midi": 50,
          "name": "D3",
          "ticks": 26496,
          "time": 132.48,
          "velocity": 0.6929133858267716
        },
        {
          "duration": 0.060000000000002274,
          "durationTicks": 12,
          "midi": 62,
          "name": "D4",
          "ticks": 26520,
          "time": 132.6,
          "velocity": 0.6929133858267716
        },
        {
          "duration": 0.060000000000002274,
          "durationTicks": 12,
          "midi": 57,
          "name": "A3",
          "ticks": 26544,
          "time": 132.72,
          "velocity": 0.6929133858267716
        },
        {
          "duration": 0.060000000000002274,
          "durationTicks": 12,
          "midi": 50,
          "name": "D3",
          "ticks": 26568,
          "time": 132.84,
          "velocity": 0.6929133858267716
        },
        {
          "duration": 0.05999999999997385,
          "durationTicks": 12,
          "midi": 62,
          "name": "D4",
          "ticks": 26592,
          "time": 132.96,
          "velocity": 0.6929133858267716
        },
        {
          "duration": 0.060000000000002274,
          "durationTicks": 12,
          "midi": 57,
          "name": "A3",
          "ticks": 26616,
          "time": 133.07999999999998,
          "velocity": 0.6929133858267716
        },
        {
          "duration": 0.2400000000000091,
          "durationTicks": 48,
          "midi": 50,
          "name": "D3",
          "ticks": 26640,
          "time": 133.2,
          "velocity": 0.6929133858267716
        },
        {
          "duration": 0.060000000000002274,
          "durationTicks": 12,
          "midi": 50,
          "name": "D3",
          "ticks": 26688,
          "time": 133.44,
          "velocity": 0.6929133858267716
        },
        {
          "duration": 0.060000000000002274,
          "durationTicks": 12,
          "midi": 67,
          "name": "G4",
          "ticks": 26712,
          "time": 133.56,
          "velocity": 0.6929133858267716
        },
        {
          "duration": 0.060000000000002274,
          "durationTicks": 12,
          "midi": 62,
          "name": "D4",
          "ticks": 26736,
          "time": 133.68,
          "velocity": 0.6929133858267716
        },
        {
          "duration": 0.060000000000002274,
          "durationTicks": 12,
          "midi": 58,
          "name": "A#3",
          "ticks": 26760,
          "time": 133.79999999999998,
          "velocity": 0.6929133858267716
        },
        {
          "duration": 0.060000000000002274,
          "durationTicks": 12,
          "midi": 53,
          "name": "F3",
          "ticks": 26784,
          "time": 133.92,
          "velocity": 0.6929133858267716
        },
        {
          "duration": 0.060000000000002274,
          "durationTicks": 12,
          "midi": 60,
          "name": "C4",
          "ticks": 26808,
          "time": 134.04,
          "velocity": 0.6929133858267716
        },
        {
          "duration": 0.2400000000000091,
          "durationTicks": 48,
          "midi": 53,
          "name": "F3",
          "ticks": 26832,
          "time": 134.16,
          "velocity": 0.6929133858267716
        },
        {
          "duration": 0.060000000000002274,
          "durationTicks": 12,
          "midi": 51,
          "name": "D#3",
          "ticks": 26880,
          "time": 134.4,
          "velocity": 0.6929133858267716
        },
        {
          "duration": 0.060000000000002274,
          "durationTicks": 12,
          "midi": 63,
          "name": "D#4",
          "ticks": 26904,
          "time": 134.51999999999998,
          "velocity": 0.6929133858267716
        },
        {
          "duration": 0.060000000000002274,
          "durationTicks": 12,
          "midi": 58,
          "name": "A#3",
          "ticks": 26928,
          "time": 134.64,
          "velocity": 0.6929133858267716
        },
        {
          "duration": 0.060000000000002274,
          "durationTicks": 12,
          "midi": 51,
          "name": "D#3",
          "ticks": 26952,
          "time": 134.76,
          "velocity": 0.6929133858267716
        },
        {
          "duration": 0.060000000000002274,
          "durationTicks": 12,
          "midi": 63,
          "name": "D#4",
          "ticks": 26976,
          "time": 134.88,
          "velocity": 0.6929133858267716
        },
        {
          "duration": 0.060000000000002274,
          "durationTicks": 12,
          "midi": 58,
          "name": "A#3",
          "ticks": 27000,
          "time": 135,
          "velocity": 0.6929133858267716
        },
        {
          "duration": 0.23999999999998067,
          "durationTicks": 48,
          "midi": 51,
          "name": "D#3",
          "ticks": 27024,
          "time": 135.12,
          "velocity": 0.6929133858267716
        },
        {
          "duration": 0.060000000000002274,
          "durationTicks": 12,
          "midi": 53,
          "name": "F3",
          "ticks": 27072,
          "time": 135.35999999999999,
          "velocity": 0.6929133858267716
        },
        {
          "duration": 0.060000000000002274,
          "durationTicks": 12,
          "midi": 65,
          "name": "F4",
          "ticks": 27096,
          "time": 135.48,
          "velocity": 0.6929133858267716
        },
        {
          "duration": 0.060000000000002274,
          "durationTicks": 12,
          "midi": 60,
          "name": "C4",
          "ticks": 27120,
          "time": 135.6,
          "velocity": 0.6929133858267716
        },
        {
          "duration": 0.060000000000002274,
          "durationTicks": 12,
          "midi": 53,
          "name": "F3",
          "ticks": 27144,
          "time": 135.72,
          "velocity": 0.6929133858267716
        },
        {
          "duration": 0.060000000000002274,
          "durationTicks": 12,
          "midi": 54,
          "name": "F#3",
          "ticks": 27168,
          "time": 135.84,
          "velocity": 0.6929133858267716
        },
        {
          "duration": 0.05999999999997385,
          "durationTicks": 12,
          "midi": 66,
          "name": "F#4",
          "ticks": 27192,
          "time": 135.96,
          "velocity": 0.6929133858267716
        },
        {
          "duration": 0.2400000000000091,
          "durationTicks": 48,
          "midi": 66,
          "name": "F#4",
          "ticks": 27216,
          "time": 136.07999999999998,
          "velocity": 0.6929133858267716
        },
        {
          "duration": 0.060000000000002274,
          "durationTicks": 12,
          "midi": 55,
          "name": "G3",
          "ticks": 27264,
          "time": 136.32,
          "velocity": 0.6929133858267716
        },
        {
          "duration": 0.060000000000002274,
          "durationTicks": 12,
          "midi": 67,
          "name": "G4",
          "ticks": 27288,
          "time": 136.44,
          "velocity": 0.6929133858267716
        },
        {
          "duration": 0.060000000000002274,
          "durationTicks": 12,
          "midi": 62,
          "name": "D4",
          "ticks": 27312,
          "time": 136.56,
          "velocity": 0.6929133858267716
        },
        {
          "duration": 0.060000000000002274,
          "durationTicks": 12,
          "midi": 55,
          "name": "G3",
          "ticks": 27336,
          "time": 136.68,
          "velocity": 0.6929133858267716
        },
        {
          "duration": 0.060000000000002274,
          "durationTicks": 12,
          "midi": 67,
          "name": "G4",
          "ticks": 27360,
          "time": 136.79999999999998,
          "velocity": 0.6929133858267716
        },
        {
          "duration": 0.060000000000002274,
          "durationTicks": 12,
          "midi": 62,
          "name": "D4",
          "ticks": 27384,
          "time": 136.92,
          "velocity": 0.6929133858267716
        },
        {
          "duration": 0.2400000000000091,
          "durationTicks": 48,
          "midi": 55,
          "name": "G3",
          "ticks": 27408,
          "time": 137.04,
          "velocity": 0.6929133858267716
        },
        {
          "duration": 0.060000000000002274,
          "durationTicks": 12,
          "midi": 53,
          "name": "F3",
          "ticks": 27456,
          "time": 137.28,
          "velocity": 0.6929133858267716
        },
        {
          "duration": 0.060000000000002274,
          "durationTicks": 12,
          "midi": 65,
          "name": "F4",
          "ticks": 27480,
          "time": 137.4,
          "velocity": 0.6929133858267716
        },
        {
          "duration": 0.060000000000002274,
          "durationTicks": 12,
          "midi": 60,
          "name": "C4",
          "ticks": 27504,
          "time": 137.51999999999998,
          "velocity": 0.6929133858267716
        },
        {
          "duration": 0.060000000000002274,
          "durationTicks": 12,
          "midi": 53,
          "name": "F3",
          "ticks": 27528,
          "time": 137.64,
          "velocity": 0.6929133858267716
        },
        {
          "duration": 0.060000000000002274,
          "durationTicks": 12,
          "midi": 65,
          "name": "F4",
          "ticks": 27552,
          "time": 137.76,
          "velocity": 0.6929133858267716
        },
        {
          "duration": 0.060000000000002274,
          "durationTicks": 12,
          "midi": 60,
          "name": "C4",
          "ticks": 27576,
          "time": 137.88,
          "velocity": 0.6929133858267716
        },
        {
          "duration": 0.2400000000000091,
          "durationTicks": 48,
          "midi": 53,
          "name": "F3",
          "ticks": 27600,
          "time": 138,
          "velocity": 0.6929133858267716
        },
        {
          "duration": 0.05999999999997385,
          "durationTicks": 12,
          "midi": 48,
          "name": "C3",
          "ticks": 27648,
          "time": 138.24,
          "velocity": 0.6929133858267716
        },
        {
          "duration": 0.060000000000002274,
          "durationTicks": 12,
          "midi": 60,
          "name": "C4",
          "ticks": 27672,
          "time": 138.35999999999999,
          "velocity": 0.6929133858267716
        },
        {
          "duration": 0.060000000000002274,
          "durationTicks": 12,
          "midi": 55,
          "name": "G3",
          "ticks": 27696,
          "time": 138.48,
          "velocity": 0.6929133858267716
        },
        {
          "duration": 0.060000000000002274,
          "durationTicks": 12,
          "midi": 67,
          "name": "G4",
          "ticks": 27720,
          "time": 138.6,
          "velocity": 0.6929133858267716
        },
        {
          "duration": 0.060000000000002274,
          "durationTicks": 12,
          "midi": 72,
          "name": "C5",
          "ticks": 27744,
          "time": 138.72,
          "velocity": 0.6929133858267716
        },
        {
          "duration": 0.060000000000002274,
          "durationTicks": 12,
          "midi": 67,
          "name": "G4",
          "ticks": 27768,
          "time": 138.84,
          "velocity": 0.6929133858267716
        },
        {
          "duration": 0.23999999999998067,
          "durationTicks": 48,
          "midi": 60,
          "name": "C4",
          "ticks": 27792,
          "time": 138.96,
          "velocity": 0.6929133858267716
        },
        {
          "duration": 0.23999999999998067,
          "durationTicks": 48,
          "midi": 72,
          "name": "C5",
          "ticks": 27792,
          "time": 138.96,
          "velocity": 0.6929133858267716
        },
        {
          "duration": 0.060000000000002274,
          "durationTicks": 12,
          "midi": 48,
          "name": "C3",
          "ticks": 27840,
          "time": 139.2,
          "velocity": 0.6929133858267716
        },
        {
          "duration": 0.060000000000002274,
          "durationTicks": 12,
          "midi": 60,
          "name": "C4",
          "ticks": 27864,
          "time": 139.32,
          "velocity": 0.6929133858267716
        },
        {
          "duration": 0.060000000000002274,
          "durationTicks": 12,
          "midi": 55,
          "name": "G3",
          "ticks": 27888,
          "time": 139.44,
          "velocity": 0.6929133858267716
        },
        {
          "duration": 0.060000000000002274,
          "durationTicks": 12,
          "midi": 48,
          "name": "C3",
          "ticks": 27912,
          "time": 139.56,
          "velocity": 0.6929133858267716
        },
        {
          "duration": 0.05999999999997385,
          "durationTicks": 12,
          "midi": 60,
          "name": "C4",
          "ticks": 27936,
          "time": 139.68,
          "velocity": 0.6929133858267716
        },
        {
          "duration": 0.060000000000002274,
          "durationTicks": 12,
          "midi": 55,
          "name": "G3",
          "ticks": 27960,
          "time": 139.79999999999998,
          "velocity": 0.6929133858267716
        },
        {
          "duration": 0.060000000000002274,
          "durationTicks": 12,
          "midi": 71,
          "name": "B4",
          "ticks": 27972,
          "time": 139.85999999999999,
          "velocity": 0.6929133858267716
        },
        {
          "duration": 0.2400000000000091,
          "durationTicks": 48,
          "midi": 48,
          "name": "C3",
          "ticks": 27984,
          "time": 139.92,
          "velocity": 0.6929133858267716
        },
        {
          "duration": 0.060000000000002274,
          "durationTicks": 12,
          "midi": 72,
          "name": "C5",
          "ticks": 27984,
          "time": 139.92,
          "velocity": 0.6929133858267716
        },
        {
          "duration": 0.060000000000002274,
          "durationTicks": 12,
          "midi": 50,
          "name": "D3",
          "ticks": 28032,
          "time": 140.16,
          "velocity": 0.6929133858267716
        },
        {
          "duration": 0.060000000000002274,
          "durationTicks": 12,
          "midi": 60,
          "name": "C4",
          "ticks": 28056,
          "time": 140.28,
          "velocity": 0.6929133858267716
        },
        {
          "duration": 0.060000000000002274,
          "durationTicks": 12,
          "midi": 57,
          "name": "A3",
          "ticks": 28080,
          "time": 140.4,
          "velocity": 0.6929133858267716
        },
        {
          "duration": 0.060000000000002274,
          "durationTicks": 12,
          "midi": 67,
          "name": "G4",
          "ticks": 28104,
          "time": 140.51999999999998,
          "velocity": 0.6929133858267716
        },
        {
          "duration": 0.060000000000002274,
          "durationTicks": 12,
          "midi": 50,
          "name": "D3",
          "ticks": 28104,
          "time": 140.51999999999998,
          "velocity": 0.6929133858267716
        },
        {
          "duration": 0.060000000000002274,
          "durationTicks": 12,
          "midi": 60,
          "name": "C4",
          "ticks": 28128,
          "time": 140.64,
          "velocity": 0.6929133858267716
        },
        {
          "duration": 0.2400000000000091,
          "durationTicks": 48,
          "midi": 69,
          "name": "A4",
          "ticks": 28128,
          "time": 140.64,
          "velocity": 0.6929133858267716
        },
        {
          "duration": 0.060000000000002274,
          "durationTicks": 12,
          "midi": 57,
          "name": "A3",
          "ticks": 28152,
          "time": 140.76,
          "velocity": 0.6929133858267716
        },
        {
          "duration": 0.2400000000000091,
          "durationTicks": 48,
          "midi": 50,
          "name": "D3",
          "ticks": 28176,
          "time": 140.88,
          "velocity": 0.6929133858267716
        },
        {
          "duration": 0.2400000000000091,
          "durationTicks": 48,
          "midi": 67,
          "name": "G4",
          "ticks": 28176,
          "time": 140.88,
          "velocity": 0.6929133858267716
        },
        {
          "duration": 0.11999999999997613,
          "durationTicks": 24,
          "midi": 50,
          "name": "D3",
          "ticks": 28224,
          "time": 141.12,
          "velocity": 0.6929133858267716
        },
        {
          "duration": 0.47999999999998977,
          "durationTicks": 96,
          "midi": 65,
          "name": "F4",
          "ticks": 28224,
          "time": 141.12,
          "velocity": 0.6929133858267716
        },
        {
          "duration": 0.060000000000002274,
          "durationTicks": 12,
          "midi": 60,
          "name": "C4",
          "ticks": 28272,
          "time": 141.35999999999999,
          "velocity": 0.6929133858267716
        },
        {
          "duration": 0.060000000000002274,
          "durationTicks": 12,
          "midi": 57,
          "name": "A3",
          "ticks": 28296,
          "time": 141.48,
          "velocity": 0.6929133858267716
        },
        {
          "duration": 0.060000000000002274,
          "durationTicks": 12,
          "midi": 53,
          "name": "F3",
          "ticks": 28320,
          "time": 141.6,
          "velocity": 0.6929133858267716
        },
        {
          "duration": 0.47999999999998977,
          "durationTicks": 96,
          "midi": 72,
          "name": "C5",
          "ticks": 28320,
          "time": 141.6,
          "velocity": 0.6929133858267716
        },
        {
          "duration": 0.060000000000002274,
          "durationTicks": 12,
          "midi": 60,
          "name": "C4",
          "ticks": 28344,
          "time": 141.72,
          "velocity": 0.6929133858267716
        },
        {
          "duration": 0.23999999999998067,
          "durationTicks": 48,
          "midi": 53,
          "name": "F3",
          "ticks": 28368,
          "time": 141.84,
          "velocity": 0.6929133858267716
        },
        {
          "duration": 0.060000000000002274,
          "durationTicks": 12,
          "midi": 51,
          "name": "D#3",
          "ticks": 28416,
          "time": 142.07999999999998,
          "velocity": 0.6929133858267716
        },
        {
          "duration": 0.060000000000002274,
          "durationTicks": 12,
          "midi": 63,
          "name": "D#4",
          "ticks": 28440,
          "time": 142.2,
          "velocity": 0.6929133858267716
        },
        {
          "duration": 0.060000000000002274,
          "durationTicks": 12,
          "midi": 58,
          "name": "A#3",
          "ticks": 28464,
          "time": 142.32,
          "velocity": 0.6929133858267716
        },
        {
          "duration": 0.060000000000002274,
          "durationTicks": 12,
          "midi": 51,
          "name": "D#3",
          "ticks": 28488,
          "time": 142.44,
          "velocity": 0.6929133858267716
        },
        {
          "duration": 0.060000000000002274,
          "durationTicks": 12,
          "midi": 63,
          "name": "D#4",
          "ticks": 28512,
          "time": 142.56,
          "velocity": 0.6929133858267716
        },
        {
          "duration": 0.05999999999997385,
          "durationTicks": 12,
          "midi": 58,
          "name": "A#3",
          "ticks": 28536,
          "time": 142.68,
          "velocity": 0.6929133858267716
        },
        {
          "duration": 0.12000000000000455,
          "durationTicks": 24,
          "midi": 51,
          "name": "D#3",
          "ticks": 28560,
          "time": 142.79999999999998,
          "velocity": 0.6929133858267716
        },
        {
          "duration": 0.12000000000000455,
          "durationTicks": 24,
          "midi": 55,
          "name": "G3",
          "ticks": 28584,
          "time": 142.92,
          "velocity": 0.6929133858267716
        },
        {
          "duration": 0.060000000000002274,
          "durationTicks": 12,
          "midi": 53,
          "name": "F3",
          "ticks": 28608,
          "time": 143.04,
          "velocity": 0.6929133858267716
        },
        {
          "duration": 0.060000000000002274,
          "durationTicks": 12,
          "midi": 65,
          "name": "F4",
          "ticks": 28632,
          "time": 143.16,
          "velocity": 0.6929133858267716
        },
        {
          "duration": 0.060000000000002274,
          "durationTicks": 12,
          "midi": 60,
          "name": "C4",
          "ticks": 28656,
          "time": 143.28,
          "velocity": 0.6929133858267716
        },
        {
          "duration": 0.060000000000002274,
          "durationTicks": 12,
          "midi": 53,
          "name": "F3",
          "ticks": 28680,
          "time": 143.4,
          "velocity": 0.6929133858267716
        },
        {
          "duration": 0.36000000000001364,
          "durationTicks": 72,
          "midi": 65,
          "name": "F4",
          "ticks": 28704,
          "time": 143.51999999999998,
          "velocity": 0.6929133858267716
        },
        {
          "duration": 0.060000000000002274,
          "durationTicks": 12,
          "midi": 53,
          "name": "F3",
          "ticks": 28776,
          "time": 143.88,
          "velocity": 0.6929133858267716
        },
        {
          "duration": 0.060000000000002274,
          "durationTicks": 12,
          "midi": 48,
          "name": "C3",
          "ticks": 29184,
          "time": 145.92,
          "velocity": 0.6929133858267716
        },
        {
          "duration": 0.060000000000002274,
          "durationTicks": 12,
          "midi": 60,
          "name": "C4",
          "ticks": 29208,
          "time": 146.04,
          "velocity": 0.6929133858267716
        },
        {
          "duration": 0.060000000000002274,
          "durationTicks": 12,
          "midi": 55,
          "name": "G3",
          "ticks": 29232,
          "time": 146.16,
          "velocity": 0.6929133858267716
        },
        {
          "duration": 0.060000000000002274,
          "durationTicks": 12,
          "midi": 48,
          "name": "C3",
          "ticks": 29256,
          "time": 146.28,
          "velocity": 0.6929133858267716
        },
        {
          "duration": 0.060000000000002274,
          "durationTicks": 12,
          "midi": 60,
          "name": "C4",
          "ticks": 29280,
          "time": 146.4,
          "velocity": 0.6929133858267716
        },
        {
          "duration": 0.060000000000002274,
          "durationTicks": 12,
          "midi": 55,
          "name": "G3",
          "ticks": 29304,
          "time": 146.51999999999998,
          "velocity": 0.6929133858267716
        },
        {
          "duration": 0.2400000000000091,
          "durationTicks": 48,
          "midi": 48,
          "name": "C3",
          "ticks": 29328,
          "time": 146.64,
          "velocity": 0.6929133858267716
        },
        {
          "duration": 0.060000000000002274,
          "durationTicks": 12,
          "midi": 48,
          "name": "C3",
          "ticks": 29376,
          "time": 146.88,
          "velocity": 0.6929133858267716
        },
        {
          "duration": 0.060000000000002274,
          "durationTicks": 12,
          "midi": 60,
          "name": "C4",
          "ticks": 29400,
          "time": 147,
          "velocity": 0.6929133858267716
        },
        {
          "duration": 0.060000000000002274,
          "durationTicks": 12,
          "midi": 55,
          "name": "G3",
          "ticks": 29424,
          "time": 147.12,
          "velocity": 0.6929133858267716
        },
        {
          "duration": 0.060000000000002274,
          "durationTicks": 12,
          "midi": 48,
          "name": "C3",
          "ticks": 29448,
          "time": 147.23999999999998,
          "velocity": 0.6929133858267716
        },
        {
          "duration": 0.060000000000002274,
          "durationTicks": 12,
          "midi": 60,
          "name": "C4",
          "ticks": 29472,
          "time": 147.35999999999999,
          "velocity": 0.6929133858267716
        },
        {
          "duration": 0.060000000000002274,
          "durationTicks": 12,
          "midi": 55,
          "name": "G3",
          "ticks": 29496,
          "time": 147.48,
          "velocity": 0.6929133858267716
        },
        {
          "duration": 0.2400000000000091,
          "durationTicks": 48,
          "midi": 48,
          "name": "C3",
          "ticks": 29520,
          "time": 147.6,
          "velocity": 0.6929133858267716
        },
        {
          "duration": 0.060000000000002274,
          "durationTicks": 12,
          "midi": 50,
          "name": "D3",
          "ticks": 29568,
          "time": 147.84,
          "velocity": 0.6929133858267716
        },
        {
          "duration": 0.05999999999997385,
          "durationTicks": 12,
          "midi": 62,
          "name": "D4",
          "ticks": 29592,
          "time": 147.96,
          "velocity": 0.6929133858267716
        },
        {
          "duration": 0.060000000000002274,
          "durationTicks": 12,
          "midi": 57,
          "name": "A3",
          "ticks": 29616,
          "time": 148.07999999999998,
          "velocity": 0.6929133858267716
        },
        {
          "duration": 0.060000000000002274,
          "durationTicks": 12,
          "midi": 50,
          "name": "D3",
          "ticks": 29640,
          "time": 148.2,
          "velocity": 0.6929133858267716
        },
        {
          "duration": 0.060000000000002274,
          "durationTicks": 12,
          "midi": 62,
          "name": "D4",
          "ticks": 29664,
          "time": 148.32,
          "velocity": 0.6929133858267716
        },
        {
          "duration": 0.060000000000002274,
          "durationTicks": 12,
          "midi": 57,
          "name": "A3",
          "ticks": 29688,
          "time": 148.44,
          "velocity": 0.6929133858267716
        },
        {
          "duration": 0.23999999999998067,
          "durationTicks": 48,
          "midi": 50,
          "name": "D3",
          "ticks": 29712,
          "time": 148.56,
          "velocity": 0.6929133858267716
        },
        {
          "duration": 0.060000000000002274,
          "durationTicks": 12,
          "midi": 50,
          "name": "D3",
          "ticks": 29760,
          "time": 148.79999999999998,
          "velocity": 0.6929133858267716
        },
        {
          "duration": 0.060000000000002274,
          "durationTicks": 12,
          "midi": 67,
          "name": "G4",
          "ticks": 29784,
          "time": 148.92,
          "velocity": 0.6929133858267716
        },
        {
          "duration": 0.060000000000002274,
          "durationTicks": 12,
          "midi": 62,
          "name": "D4",
          "ticks": 29808,
          "time": 149.04,
          "velocity": 0.6929133858267716
        },
        {
          "duration": 0.060000000000002274,
          "durationTicks": 12,
          "midi": 58,
          "name": "A#3",
          "ticks": 29832,
          "time": 149.16,
          "velocity": 0.6929133858267716
        },
        {
          "duration": 0.060000000000002274,
          "durationTicks": 12,
          "midi": 53,
          "name": "F3",
          "ticks": 29856,
          "time": 149.28,
          "velocity": 0.6929133858267716
        },
        {
          "duration": 0.060000000000002274,
          "durationTicks": 12,
          "midi": 60,
          "name": "C4",
          "ticks": 29880,
          "time": 149.4,
          "velocity": 0.6929133858267716
        },
        {
          "duration": 0.2400000000000091,
          "durationTicks": 48,
          "midi": 53,
          "name": "F3",
          "ticks": 29904,
          "time": 149.51999999999998,
          "velocity": 0.6929133858267716
        },
        {
          "duration": 0.060000000000002274,
          "durationTicks": 12,
          "midi": 51,
          "name": "D#3",
          "ticks": 29952,
          "time": 149.76,
          "velocity": 0.6929133858267716
        },
        {
          "duration": 0.060000000000002274,
          "durationTicks": 12,
          "midi": 63,
          "name": "D#4",
          "ticks": 29976,
          "time": 149.88,
          "velocity": 0.6929133858267716
        },
        {
          "duration": 0.060000000000002274,
          "durationTicks": 12,
          "midi": 58,
          "name": "A#3",
          "ticks": 30000,
          "time": 150,
          "velocity": 0.6929133858267716
        },
        {
          "duration": 0.060000000000002274,
          "durationTicks": 12,
          "midi": 51,
          "name": "D#3",
          "ticks": 30024,
          "time": 150.12,
          "velocity": 0.6929133858267716
        },
        {
          "duration": 0.060000000000002274,
          "durationTicks": 12,
          "midi": 63,
          "name": "D#4",
          "ticks": 30048,
          "time": 150.23999999999998,
          "velocity": 0.6929133858267716
        },
        {
          "duration": 0.060000000000002274,
          "durationTicks": 12,
          "midi": 58,
          "name": "A#3",
          "ticks": 30072,
          "time": 150.35999999999999,
          "velocity": 0.6929133858267716
        },
        {
          "duration": 0.2400000000000091,
          "durationTicks": 48,
          "midi": 51,
          "name": "D#3",
          "ticks": 30096,
          "time": 150.48,
          "velocity": 0.6929133858267716
        },
        {
          "duration": 0.060000000000002274,
          "durationTicks": 12,
          "midi": 53,
          "name": "F3",
          "ticks": 30144,
          "time": 150.72,
          "velocity": 0.6929133858267716
        },
        {
          "duration": 0.060000000000002274,
          "durationTicks": 12,
          "midi": 65,
          "name": "F4",
          "ticks": 30168,
          "time": 150.84,
          "velocity": 0.6929133858267716
        },
        {
          "duration": 0.05999999999997385,
          "durationTicks": 12,
          "midi": 60,
          "name": "C4",
          "ticks": 30192,
          "time": 150.96,
          "velocity": 0.6929133858267716
        },
        {
          "duration": 0.060000000000002274,
          "durationTicks": 12,
          "midi": 53,
          "name": "F3",
          "ticks": 30216,
          "time": 151.07999999999998,
          "velocity": 0.6929133858267716
        },
        {
          "duration": 0.060000000000002274,
          "durationTicks": 12,
          "midi": 54,
          "name": "F#3",
          "ticks": 30240,
          "time": 151.2,
          "velocity": 0.6929133858267716
        },
        {
          "duration": 0.060000000000002274,
          "durationTicks": 12,
          "midi": 66,
          "name": "F#4",
          "ticks": 30264,
          "time": 151.32,
          "velocity": 0.6929133858267716
        },
        {
          "duration": 0.2400000000000091,
          "durationTicks": 48,
          "midi": 66,
          "name": "F#4",
          "ticks": 30288,
          "time": 151.44,
          "velocity": 0.6929133858267716
        },
        {
          "duration": 0.05999999999997385,
          "durationTicks": 12,
          "midi": 55,
          "name": "G3",
          "ticks": 30336,
          "time": 151.68,
          "velocity": 0.6929133858267716
        },
        {
          "duration": 0.060000000000002274,
          "durationTicks": 12,
          "midi": 67,
          "name": "G4",
          "ticks": 30360,
          "time": 151.79999999999998,
          "velocity": 0.6929133858267716
        },
        {
          "duration": 0.060000000000002274,
          "durationTicks": 12,
          "midi": 62,
          "name": "D4",
          "ticks": 30384,
          "time": 151.92,
          "velocity": 0.6929133858267716
        },
        {
          "duration": 0.060000000000002274,
          "durationTicks": 12,
          "midi": 55,
          "name": "G3",
          "ticks": 30408,
          "time": 152.04,
          "velocity": 0.6929133858267716
        },
        {
          "duration": 0.060000000000002274,
          "durationTicks": 12,
          "midi": 67,
          "name": "G4",
          "ticks": 30432,
          "time": 152.16,
          "velocity": 0.6929133858267716
        },
        {
          "duration": 0.060000000000002274,
          "durationTicks": 12,
          "midi": 62,
          "name": "D4",
          "ticks": 30456,
          "time": 152.28,
          "velocity": 0.6929133858267716
        },
        {
          "duration": 0.23999999999998067,
          "durationTicks": 48,
          "midi": 55,
          "name": "G3",
          "ticks": 30480,
          "time": 152.4,
          "velocity": 0.6929133858267716
        },
        {
          "duration": 0.060000000000002274,
          "durationTicks": 12,
          "midi": 53,
          "name": "F3",
          "ticks": 30528,
          "time": 152.64,
          "velocity": 0.6929133858267716
        },
        {
          "duration": 0.060000000000002274,
          "durationTicks": 12,
          "midi": 65,
          "name": "F4",
          "ticks": 30552,
          "time": 152.76,
          "velocity": 0.6929133858267716
        },
        {
          "duration": 0.060000000000002274,
          "durationTicks": 12,
          "midi": 60,
          "name": "C4",
          "ticks": 30576,
          "time": 152.88,
          "velocity": 0.6929133858267716
        },
        {
          "duration": 0.060000000000002274,
          "durationTicks": 12,
          "midi": 53,
          "name": "F3",
          "ticks": 30600,
          "time": 153,
          "velocity": 0.6929133858267716
        },
        {
          "duration": 0.060000000000002274,
          "durationTicks": 12,
          "midi": 65,
          "name": "F4",
          "ticks": 30624,
          "time": 153.12,
          "velocity": 0.6929133858267716
        },
        {
          "duration": 0.060000000000002274,
          "durationTicks": 12,
          "midi": 60,
          "name": "C4",
          "ticks": 30648,
          "time": 153.23999999999998,
          "velocity": 0.6929133858267716
        },
        {
          "duration": 0.2400000000000091,
          "durationTicks": 48,
          "midi": 53,
          "name": "F3",
          "ticks": 30672,
          "time": 153.35999999999999,
          "velocity": 0.6929133858267716
        },
        {
          "duration": 0.060000000000002274,
          "durationTicks": 12,
          "midi": 48,
          "name": "C3",
          "ticks": 30720,
          "time": 153.6,
          "velocity": 0.6929133858267716
        },
        {
          "duration": 0.060000000000002274,
          "durationTicks": 12,
          "midi": 60,
          "name": "C4",
          "ticks": 30744,
          "time": 153.72,
          "velocity": 0.6929133858267716
        },
        {
          "duration": 0.060000000000002274,
          "durationTicks": 12,
          "midi": 55,
          "name": "G3",
          "ticks": 30768,
          "time": 153.84,
          "velocity": 0.6929133858267716
        },
        {
          "duration": 0.05999999999997385,
          "durationTicks": 12,
          "midi": 67,
          "name": "G4",
          "ticks": 30792,
          "time": 153.96,
          "velocity": 0.6929133858267716
        },
        {
          "duration": 0.060000000000002274,
          "durationTicks": 12,
          "midi": 72,
          "name": "C5",
          "ticks": 30816,
          "time": 154.07999999999998,
          "velocity": 0.6929133858267716
        },
        {
          "duration": 0.060000000000002274,
          "durationTicks": 12,
          "midi": 67,
          "name": "G4",
          "ticks": 30840,
          "time": 154.2,
          "velocity": 0.6929133858267716
        },
        {
          "duration": 0.2400000000000091,
          "durationTicks": 48,
          "midi": 60,
          "name": "C4",
          "ticks": 30864,
          "time": 154.32,
          "velocity": 0.6929133858267716
        },
        {
          "duration": 0.2400000000000091,
          "durationTicks": 48,
          "midi": 72,
          "name": "C5",
          "ticks": 30864,
          "time": 154.32,
          "velocity": 0.6929133858267716
        },
        {
          "duration": 0.060000000000002274,
          "durationTicks": 12,
          "midi": 48,
          "name": "C3",
          "ticks": 30912,
          "time": 154.56,
          "velocity": 0.6929133858267716
        },
        {
          "duration": 0.05999999999997385,
          "durationTicks": 12,
          "midi": 60,
          "name": "C4",
          "ticks": 30936,
          "time": 154.68,
          "velocity": 0.6929133858267716
        },
        {
          "duration": 0.060000000000002274,
          "durationTicks": 12,
          "midi": 55,
          "name": "G3",
          "ticks": 30960,
          "time": 154.79999999999998,
          "velocity": 0.6929133858267716
        },
        {
          "duration": 0.060000000000002274,
          "durationTicks": 12,
          "midi": 48,
          "name": "C3",
          "ticks": 30984,
          "time": 154.92,
          "velocity": 0.6929133858267716
        },
        {
          "duration": 0.060000000000002274,
          "durationTicks": 12,
          "midi": 60,
          "name": "C4",
          "ticks": 31008,
          "time": 155.04,
          "velocity": 0.6929133858267716
        },
        {
          "duration": 0.060000000000002274,
          "durationTicks": 12,
          "midi": 55,
          "name": "G3",
          "ticks": 31032,
          "time": 155.16,
          "velocity": 0.6929133858267716
        },
        {
          "duration": 0.060000000000002274,
          "durationTicks": 12,
          "midi": 71,
          "name": "B4",
          "ticks": 31044,
          "time": 155.22,
          "velocity": 0.6929133858267716
        },
        {
          "duration": 0.23999999999998067,
          "durationTicks": 48,
          "midi": 48,
          "name": "C3",
          "ticks": 31056,
          "time": 155.28,
          "velocity": 0.6929133858267716
        },
        {
          "duration": 0.060000000000002274,
          "durationTicks": 12,
          "midi": 72,
          "name": "C5",
          "ticks": 31056,
          "time": 155.28,
          "velocity": 0.6929133858267716
        },
        {
          "duration": 0.060000000000002274,
          "durationTicks": 12,
          "midi": 50,
          "name": "D3",
          "ticks": 31104,
          "time": 155.51999999999998,
          "velocity": 0.6929133858267716
        },
        {
          "duration": 0.060000000000002274,
          "durationTicks": 12,
          "midi": 60,
          "name": "C4",
          "ticks": 31128,
          "time": 155.64,
          "velocity": 0.6929133858267716
        },
        {
          "duration": 0.060000000000002274,
          "durationTicks": 12,
          "midi": 57,
          "name": "A3",
          "ticks": 31152,
          "time": 155.76,
          "velocity": 0.6929133858267716
        },
        {
          "duration": 0.060000000000002274,
          "durationTicks": 12,
          "midi": 50,
          "name": "D3",
          "ticks": 31176,
          "time": 155.88,
          "velocity": 0.6929133858267716
        },
        {
          "duration": 0.060000000000002274,
          "durationTicks": 12,
          "midi": 67,
          "name": "G4",
          "ticks": 31176,
          "time": 155.88,
          "velocity": 0.6929133858267716
        },
        {
          "duration": 0.060000000000002274,
          "durationTicks": 12,
          "midi": 60,
          "name": "C4",
          "ticks": 31200,
          "time": 156,
          "velocity": 0.6929133858267716
        },
        {
          "duration": 0.23999999999998067,
          "durationTicks": 48,
          "midi": 69,
          "name": "A4",
          "ticks": 31200,
          "time": 156,
          "velocity": 0.6929133858267716
        },
        {
          "duration": 0.060000000000002274,
          "durationTicks": 12,
          "midi": 57,
          "name": "A3",
          "ticks": 31224,
          "time": 156.12,
          "velocity": 0.6929133858267716
        },
        {
          "duration": 0.2400000000000091,
          "durationTicks": 48,
          "midi": 50,
          "name": "D3",
          "ticks": 31248,
          "time": 156.23999999999998,
          "velocity": 0.6929133858267716
        },
        {
          "duration": 0.2400000000000091,
          "durationTicks": 48,
          "midi": 67,
          "name": "G4",
          "ticks": 31248,
          "time": 156.23999999999998,
          "velocity": 0.6929133858267716
        },
        {
          "duration": 0.12000000000000455,
          "durationTicks": 24,
          "midi": 50,
          "name": "D3",
          "ticks": 31296,
          "time": 156.48,
          "velocity": 0.6929133858267716
        },
        {
          "duration": 0.4800000000000182,
          "durationTicks": 96,
          "midi": 65,
          "name": "F4",
          "ticks": 31296,
          "time": 156.48,
          "velocity": 0.6929133858267716
        },
        {
          "duration": 0.060000000000002274,
          "durationTicks": 12,
          "midi": 60,
          "name": "C4",
          "ticks": 31344,
          "time": 156.72,
          "velocity": 0.6929133858267716
        },
        {
          "duration": 0.060000000000002274,
          "durationTicks": 12,
          "midi": 57,
          "name": "A3",
          "ticks": 31368,
          "time": 156.84,
          "velocity": 0.6929133858267716
        },
        {
          "duration": 0.05999999999997385,
          "durationTicks": 12,
          "midi": 53,
          "name": "F3",
          "ticks": 31392,
          "time": 156.96,
          "velocity": 0.6929133858267716
        },
        {
          "duration": 0.47999999999998977,
          "durationTicks": 96,
          "midi": 72,
          "name": "C5",
          "ticks": 31392,
          "time": 156.96,
          "velocity": 0.6929133858267716
        },
        {
          "duration": 0.060000000000002274,
          "durationTicks": 12,
          "midi": 60,
          "name": "C4",
          "ticks": 31416,
          "time": 157.07999999999998,
          "velocity": 0.6929133858267716
        },
        {
          "duration": 0.2400000000000091,
          "durationTicks": 48,
          "midi": 53,
          "name": "F3",
          "ticks": 31440,
          "time": 157.2,
          "velocity": 0.6929133858267716
        },
        {
          "duration": 0.060000000000002274,
          "durationTicks": 12,
          "midi": 51,
          "name": "D#3",
          "ticks": 31488,
          "time": 157.44,
          "velocity": 0.6929133858267716
        },
        {
          "duration": 0.060000000000002274,
          "durationTicks": 12,
          "midi": 63,
          "name": "D#4",
          "ticks": 31512,
          "time": 157.56,
          "velocity": 0.6929133858267716
        },
        {
          "duration": 0.05999999999997385,
          "durationTicks": 12,
          "midi": 58,
          "name": "A#3",
          "ticks": 31536,
          "time": 157.68,
          "velocity": 0.6929133858267716
        },
        {
          "duration": 0.060000000000002274,
          "durationTicks": 12,
          "midi": 51,
          "name": "D#3",
          "ticks": 31560,
          "time": 157.79999999999998,
          "velocity": 0.6929133858267716
        },
        {
          "duration": 0.060000000000002274,
          "durationTicks": 12,
          "midi": 63,
          "name": "D#4",
          "ticks": 31584,
          "time": 157.92,
          "velocity": 0.6929133858267716
        },
        {
          "duration": 0.060000000000002274,
          "durationTicks": 12,
          "midi": 58,
          "name": "A#3",
          "ticks": 31608,
          "time": 158.04,
          "velocity": 0.6929133858267716
        },
        {
          "duration": 0.12000000000000455,
          "durationTicks": 24,
          "midi": 51,
          "name": "D#3",
          "ticks": 31632,
          "time": 158.16,
          "velocity": 0.6929133858267716
        },
        {
          "duration": 0.12000000000000455,
          "durationTicks": 24,
          "midi": 55,
          "name": "G3",
          "ticks": 31656,
          "time": 158.28,
          "velocity": 0.6929133858267716
        },
        {
          "duration": 0.060000000000002274,
          "durationTicks": 12,
          "midi": 53,
          "name": "F3",
          "ticks": 31680,
          "time": 158.4,
          "velocity": 0.6929133858267716
        },
        {
          "duration": 0.060000000000002274,
          "durationTicks": 12,
          "midi": 65,
          "name": "F4",
          "ticks": 31704,
          "time": 158.51999999999998,
          "velocity": 0.6929133858267716
        },
        {
          "duration": 0.060000000000002274,
          "durationTicks": 12,
          "midi": 60,
          "name": "C4",
          "ticks": 31728,
          "time": 158.64,
          "velocity": 0.6929133858267716
        },
        {
          "duration": 0.060000000000002274,
          "durationTicks": 12,
          "midi": 53,
          "name": "F3",
          "ticks": 31752,
          "time": 158.76,
          "velocity": 0.6929133858267716
        },
        {
          "duration": 0.3599999999999852,
          "durationTicks": 72,
          "midi": 65,
          "name": "F4",
          "ticks": 31776,
          "time": 158.88,
          "velocity": 0.6929133858267716
        },
        {
          "duration": 0.060000000000002274,
          "durationTicks": 12,
          "midi": 53,
          "name": "F3",
          "ticks": 31848,
          "time": 159.23999999999998,
          "velocity": 0.6929133858267716
        }
      ]
    },
    {
      "channel": 0,
      "controlChanges": {
        "6": [
          {
            "number": 6,
            "ticks": 0,
            "time": 0,
            "value": 0.09448818897637795
          }
        ],
        "7": [
          {
            "number": 7,
            "ticks": 0,
            "time": 0,
            "value": 0.7874015748031497
          },
          {
            "number": 7,
            "ticks": 0,
            "time": 0,
            "value": 0.7874015748031497
          }
        ],
        "10": [
          {
            "number": 10,
            "ticks": 0,
            "time": 0,
            "value": 0.5039370078740157
          },
          {
            "number": 10,
            "ticks": 0,
            "time": 0,
            "value": 0.5039370078740157
          }
        ],
        "100": [
          {
            "number": 100,
            "ticks": 0,
            "time": 0,
            "value": 0
          }
        ],
        "101": [
          {
            "number": 101,
            "ticks": 0,
            "time": 0,
            "value": 0
          }
        ]
      },
      "pitchBends": [
        {
          "ticks": 0,
          "time": 0,
          "value": 0
        },
        {
          "ticks": 0,
          "time": 0,
          "value": 0
        }
      ],
      "instrument": {
        "family": "piano",
        "number": 0,
        "name": "acoustic grand piano"
      },
      "name": "High Piano",
      "notes": [],
      "endOfTrackTicks": 32340
    },
    {
      "channel": 0,
      "controlChanges": {
        "6": [
          {
            "number": 6,
            "ticks": 0,
            "time": 0,
            "value": 0.09448818897637795
          },
          {
            "number": 6,
            "ticks": 32256,
            "time": 161.28,
            "value": 0.09448818897637795
          },
          {
            "number": 6,
            "ticks": 32340,
            "time": 161.7,
            "value": 0.09448818897637795
          },
          {
            "number": 6,
            "ticks": 32340,
            "time": 161.7,
            "value": 0.09448818897637795
          }
        ],
        "7": [
          {
            "number": 7,
            "ticks": 0,
            "time": 0,
            "value": 0.7874015748031497
          },
          {
            "number": 7,
            "ticks": 32256,
            "time": 161.28,
            "value": 0.7874015748031497
          },
          {
            "number": 7,
            "ticks": 32340,
            "time": 161.7,
            "value": 0.7874015748031497
          },
          {
            "number": 7,
            "ticks": 32340,
            "time": 161.7,
            "value": 0.7874015748031497
          }
        ],
        "10": [
          {
            "number": 10,
            "ticks": 0,
            "time": 0,
            "value": 0.5039370078740157
          },
          {
            "number": 10,
            "ticks": 32256,
            "time": 161.28,
            "value": 0.5039370078740157
          },
          {
            "number": 10,
            "ticks": 32340,
            "time": 161.7,
            "value": 0.5039370078740157
          },
          {
            "number": 10,
            "ticks": 32340,
            "time": 161.7,
            "value": 0.5039370078740157
          }
        ],
        "100": [
          {
            "number": 100,
            "ticks": 0,
            "time": 0,
            "value": 0
          },
          {
            "number": 100,
            "ticks": 32256,
            "time": 161.28,
            "value": 0
          },
          {
            "number": 100,
            "ticks": 32340,
            "time": 161.7,
            "value": 0
          },
          {
            "number": 100,
            "ticks": 32340,
            "time": 161.7,
            "value": 0
          }
        ],
        "101": [
          {
            "number": 101,
            "ticks": 0,
            "time": 0,
            "value": 0
          },
          {
            "number": 101,
            "ticks": 32256,
            "time": 161.28,
            "value": 0
          },
          {
            "number": 101,
            "ticks": 32340,
            "time": 161.7,
            "value": 0
          },
          {
            "number": 101,
            "ticks": 32340,
            "time": 161.7,
            "value": 0
          }
        ]
      },
      "pitchBends": [
        {
          "ticks": 0,
          "time": 0,
          "value": 0
        },
        {
          "ticks": 32256,
          "time": 161.28,
          "value": 0
        },
        {
          "ticks": 32340,
          "time": 161.7,
          "value": 0
        },
        {
          "ticks": 32340,
          "time": 161.7,
          "value": 0
        }
      ],
      "instrument": {
        "family": "piano",
        "number": 1,
        "name": "bright acoustic piano"
      },
      "name": "",
      "notes": [
        {
          "duration": 0.23999999999999844,
          "durationTicks": 48,
          "midi": 89,
          "name": "F6",
          "ticks": 3696,
          "time": 18.48,
          "velocity": 0.5669291338582677
        },
        {
          "duration": 0.23999999999999844,
          "durationTicks": 48,
          "midi": 86,
          "name": "D6",
          "ticks": 3696,
          "time": 18.48,
          "velocity": 0.5669291338582677
        },
        {
          "duration": 0.240000000000002,
          "durationTicks": 48,
          "midi": 82,
          "name": "A#5",
          "ticks": 3744,
          "time": 18.72,
          "velocity": 0.5669291338582677
        },
        {
          "duration": 0.240000000000002,
          "durationTicks": 48,
          "midi": 86,
          "name": "D6",
          "ticks": 3744,
          "time": 18.72,
          "velocity": 0.5669291338582677
        },
        {
          "duration": 0.23999999999999844,
          "durationTicks": 48,
          "midi": 89,
          "name": "F6",
          "ticks": 3792,
          "time": 18.96,
          "velocity": 0.5669291338582677
        },
        {
          "duration": 0.23999999999999844,
          "durationTicks": 48,
          "midi": 86,
          "name": "D6",
          "ticks": 3792,
          "time": 18.96,
          "velocity": 0.5669291338582677
        },
        {
          "duration": 0.23999999999999844,
          "durationTicks": 48,
          "midi": 93,
          "name": "A6",
          "ticks": 4368,
          "time": 21.84,
          "velocity": 0.8188976377952756
        },
        {
          "duration": 0.120000000000001,
          "durationTicks": 24,
          "midi": 94,
          "name": "A#6",
          "ticks": 4416,
          "time": 22.08,
          "velocity": 0.8188976377952756
        },
        {
          "duration": 0.05999999999999872,
          "durationTicks": 12,
          "midi": 93,
          "name": "A6",
          "ticks": 4464,
          "time": 22.32,
          "velocity": 0.8188976377952756
        },
        {
          "duration": 0.05999999999999872,
          "durationTicks": 12,
          "midi": 94,
          "name": "A#6",
          "ticks": 4476,
          "time": 22.38,
          "velocity": 0.8188976377952756
        },
        {
          "duration": 0.060000000000002274,
          "durationTicks": 12,
          "midi": 93,
          "name": "A6",
          "ticks": 4488,
          "time": 22.439999999999998,
          "velocity": 0.8188976377952756
        },
        {
          "duration": 0.240000000000002,
          "durationTicks": 48,
          "midi": 91,
          "name": "G6",
          "ticks": 4512,
          "time": 22.56,
          "velocity": 0.8188976377952756
        },
        {
          "duration": 0.23999999999999844,
          "durationTicks": 48,
          "midi": 93,
          "name": "A6",
          "ticks": 4560,
          "time": 22.8,
          "velocity": 0.8188976377952756
        },
        {
          "duration": 0.6000000000000014,
          "durationTicks": 120,
          "midi": 94,
          "name": "A#6",
          "ticks": 4608,
          "time": 23.04,
          "velocity": 0.8188976377952756
        },
        {
          "duration": 0.05999999999999872,
          "durationTicks": 12,
          "midi": 91,
          "name": "G6",
          "ticks": 4728,
          "time": 23.64,
          "velocity": 0.8188976377952756
        },
        {
          "duration": 0.05999999999999872,
          "durationTicks": 12,
          "midi": 92,
          "name": "G#6",
          "ticks": 4740,
          "time": 23.7,
          "velocity": 0.8188976377952756
        },
        {
          "duration": 0.120000000000001,
          "durationTicks": 24,
          "midi": 93,
          "name": "A6",
          "ticks": 4752,
          "time": 23.759999999999998,
          "velocity": 0.8188976377952756
        },
        {
          "duration": 0.7199999999999989,
          "durationTicks": 144,
          "midi": 89,
          "name": "F6",
          "ticks": 4800,
          "time": 24,
          "velocity": 0.8188976377952756
        },
        {
          "duration": 0.120000000000001,
          "durationTicks": 24,
          "midi": 87,
          "name": "D#6",
          "ticks": 4944,
          "time": 24.72,
          "velocity": 0.8188976377952756
        },
        {
          "duration": 0.7199999999999989,
          "durationTicks": 144,
          "midi": 86,
          "name": "D6",
          "ticks": 4992,
          "time": 24.96,
          "velocity": 0.8188976377952756
        },
        {
          "duration": 0.120000000000001,
          "durationTicks": 24,
          "midi": 84,
          "name": "C6",
          "ticks": 5136,
          "time": 25.68,
          "velocity": 0.8188976377952756
        },
        {
          "duration": 0.120000000000001,
          "durationTicks": 24,
          "midi": 82,
          "name": "A#5",
          "ticks": 5184,
          "time": 25.919999999999998,
          "velocity": 0.8188976377952756
        },
        {
          "duration": 0.11999999999999744,
          "durationTicks": 24,
          "midi": 84,
          "name": "C6",
          "ticks": 5232,
          "time": 26.16,
          "velocity": 0.8188976377952756
        },
        {
          "duration": 0.120000000000001,
          "durationTicks": 24,
          "midi": 86,
          "name": "D6",
          "ticks": 5280,
          "time": 26.4,
          "velocity": 0.8188976377952756
        },
        {
          "duration": 0.11999999999999744,
          "durationTicks": 24,
          "midi": 87,
          "name": "D#6",
          "ticks": 5328,
          "time": 26.64,
          "velocity": 0.8188976377952756
        },
        {
          "duration": 0.7199999999999989,
          "durationTicks": 144,
          "midi": 89,
          "name": "F6",
          "ticks": 5376,
          "time": 26.88,
          "velocity": 0.8188976377952756
        },
        {
          "duration": 0.120000000000001,
          "durationTicks": 24,
          "midi": 82,
          "name": "A#5",
          "ticks": 5520,
          "time": 27.599999999999998,
          "velocity": 0.8188976377952756
        },
        {
          "duration": 0.7199999999999989,
          "durationTicks": 144,
          "midi": 91,
          "name": "G6",
          "ticks": 5568,
          "time": 27.84,
          "velocity": 0.8188976377952756
        },
        {
          "duration": 0.120000000000001,
          "durationTicks": 24,
          "midi": 82,
          "name": "A#5",
          "ticks": 5712,
          "time": 28.56,
          "velocity": 0.8188976377952756
        },
        {
          "duration": 0.7200000000000024,
          "durationTicks": 144,
          "midi": 93,
          "name": "A6",
          "ticks": 5760,
          "time": 28.799999999999997,
          "velocity": 0.8188976377952756
        },
        {
          "duration": 0.120000000000001,
          "durationTicks": 24,
          "midi": 82,
          "name": "A#5",
          "ticks": 5904,
          "time": 29.52,
          "velocity": 0.8188976377952756
        },
        {
          "duration": 0.120000000000001,
          "durationTicks": 24,
          "midi": 94,
          "name": "A#6",
          "ticks": 5952,
          "time": 29.759999999999998,
          "velocity": 0.8188976377952756
        },
        {
          "duration": 0.05999999999999872,
          "durationTicks": 12,
          "midi": 93,
          "name": "A6",
          "ticks": 6000,
          "time": 30,
          "velocity": 0.8188976377952756
        },
        {
          "duration": 0.05999999999999872,
          "durationTicks": 12,
          "midi": 94,
          "name": "A#6",
          "ticks": 6012,
          "time": 30.06,
          "velocity": 0.8188976377952756
        },
        {
          "duration": 0.060000000000002274,
          "durationTicks": 12,
          "midi": 93,
          "name": "A6",
          "ticks": 6024,
          "time": 30.119999999999997,
          "velocity": 0.8188976377952756
        },
        {
          "duration": 0.240000000000002,
          "durationTicks": 48,
          "midi": 91,
          "name": "G6",
          "ticks": 6048,
          "time": 30.24,
          "velocity": 0.8188976377952756
        },
        {
          "duration": 0.23999999999999844,
          "durationTicks": 48,
          "midi": 93,
          "name": "A6",
          "ticks": 6096,
          "time": 30.48,
          "velocity": 0.8188976377952756
        },
        {
          "duration": 0.240000000000002,
          "durationTicks": 48,
          "midi": 89,
          "name": "F6",
          "ticks": 6768,
          "time": 33.839999999999996,
          "velocity": 0.5669291338582677
        },
        {
          "duration": 0.240000000000002,
          "durationTicks": 48,
          "midi": 86,
          "name": "D6",
          "ticks": 6768,
          "time": 33.839999999999996,
          "velocity": 0.5669291338582677
        },
        {
          "duration": 0.240000000000002,
          "durationTicks": 48,
          "midi": 82,
          "name": "A#5",
          "ticks": 6816,
          "time": 34.08,
          "velocity": 0.5669291338582677
        },
        {
          "duration": 0.240000000000002,
          "durationTicks": 48,
          "midi": 86,
          "name": "D6",
          "ticks": 6816,
          "time": 34.08,
          "velocity": 0.5669291338582677
        },
        {
          "duration": 0.240000000000002,
          "durationTicks": 48,
          "midi": 86,
          "name": "D6",
          "ticks": 6864,
          "time": 34.32,
          "velocity": 0.5669291338582677
        },
        {
          "duration": 0.240000000000002,
          "durationTicks": 48,
          "midi": 89,
          "name": "F6",
          "ticks": 6864,
          "time": 34.32,
          "velocity": 0.5669291338582677
        },
        {
          "duration": 0.240000000000002,
          "durationTicks": 48,
          "midi": 93,
          "name": "A6",
          "ticks": 7440,
          "time": 37.199999999999996,
          "velocity": 0.8188976377952756
        },
        {
          "duration": 0.11999999999999744,
          "durationTicks": 24,
          "midi": 94,
          "name": "A#6",
          "ticks": 7488,
          "time": 37.44,
          "velocity": 0.8188976377952756
        },
        {
          "duration": 0.060000000000002274,
          "durationTicks": 12,
          "midi": 93,
          "name": "A6",
          "ticks": 7536,
          "time": 37.68,
          "velocity": 0.8188976377952756
        },
        {
          "duration": 0.05999999999999517,
          "durationTicks": 12,
          "midi": 94,
          "name": "A#6",
          "ticks": 7548,
          "time": 37.74,
          "velocity": 0.8188976377952756
        },
        {
          "duration": 0.060000000000002274,
          "durationTicks": 12,
          "midi": 93,
          "name": "A6",
          "ticks": 7560,
          "time": 37.8,
          "velocity": 0.8188976377952756
        },
        {
          "duration": 0.23999999999999488,
          "durationTicks": 48,
          "midi": 91,
          "name": "G6",
          "ticks": 7584,
          "time": 37.92,
          "velocity": 0.8188976377952756
        },
        {
          "duration": 0.240000000000002,
          "durationTicks": 48,
          "midi": 93,
          "name": "A6",
          "ticks": 7632,
          "time": 38.16,
          "velocity": 0.8188976377952756
        },
        {
          "duration": 0.6000000000000014,
          "durationTicks": 120,
          "midi": 94,
          "name": "A#6",
          "ticks": 7680,
          "time": 38.4,
          "velocity": 0.8188976377952756
        },
        {
          "duration": 0.05999999999999517,
          "durationTicks": 12,
          "midi": 91,
          "name": "G6",
          "ticks": 7800,
          "time": 39,
          "velocity": 0.8188976377952756
        },
        {
          "duration": 0.060000000000002274,
          "durationTicks": 12,
          "midi": 92,
          "name": "G#6",
          "ticks": 7812,
          "time": 39.059999999999995,
          "velocity": 0.8188976377952756
        },
        {
          "duration": 0.12000000000000455,
          "durationTicks": 24,
          "midi": 93,
          "name": "A6",
          "ticks": 7824,
          "time": 39.12,
          "velocity": 0.8188976377952756
        },
        {
          "duration": 0.7199999999999989,
          "durationTicks": 144,
          "midi": 89,
          "name": "F6",
          "ticks": 7872,
          "time": 39.36,
          "velocity": 0.8188976377952756
        },
        {
          "duration": 0.11999999999999744,
          "durationTicks": 24,
          "midi": 87,
          "name": "D#6",
          "ticks": 8016,
          "time": 40.08,
          "velocity": 0.8188976377952756
        },
        {
          "duration": 0.7199999999999989,
          "durationTicks": 144,
          "midi": 86,
          "name": "D6",
          "ticks": 8064,
          "time": 40.32,
          "velocity": 0.8188976377952756
        },
        {
          "duration": 0.11999999999999744,
          "durationTicks": 24,
          "midi": 84,
          "name": "C6",
          "ticks": 8208,
          "time": 41.04,
          "velocity": 0.8188976377952756
        },
        {
          "duration": 0.11999999999999744,
          "durationTicks": 24,
          "midi": 82,
          "name": "A#5",
          "ticks": 8256,
          "time": 41.28,
          "velocity": 0.8188976377952756
        },
        {
          "duration": 0.12000000000000455,
          "durationTicks": 24,
          "midi": 84,
          "name": "C6",
          "ticks": 8304,
          "time": 41.519999999999996,
          "velocity": 0.8188976377952756
        },
        {
          "duration": 0.11999999999999744,
          "durationTicks": 24,
          "midi": 86,
          "name": "D6",
          "ticks": 8352,
          "time": 41.76,
          "velocity": 0.8188976377952756
        },
        {
          "duration": 0.11999999999999744,
          "durationTicks": 24,
          "midi": 87,
          "name": "D#6",
          "ticks": 8400,
          "time": 42,
          "velocity": 0.8188976377952756
        },
        {
          "duration": 0.720000000000006,
          "durationTicks": 144,
          "midi": 89,
          "name": "F6",
          "ticks": 8448,
          "time": 42.239999999999995,
          "velocity": 0.8188976377952756
        },
        {
          "duration": 0.11999999999999744,
          "durationTicks": 24,
          "midi": 82,
          "name": "A#5",
          "ticks": 8592,
          "time": 42.96,
          "velocity": 0.8188976377952756
        },
        {
          "duration": 0.720000000000006,
          "durationTicks": 144,
          "midi": 91,
          "name": "G6",
          "ticks": 8640,
          "time": 43.199999999999996,
          "velocity": 0.8188976377952756
        },
        {
          "duration": 0.11999999999999744,
          "durationTicks": 24,
          "midi": 82,
          "name": "A#5",
          "ticks": 8784,
          "time": 43.92,
          "velocity": 0.8188976377952756
        },
        {
          "duration": 0.7199999999999989,
          "durationTicks": 144,
          "midi": 93,
          "name": "A6",
          "ticks": 8832,
          "time": 44.16,
          "velocity": 0.8188976377952756
        },
        {
          "duration": 0.12000000000000455,
          "durationTicks": 24,
          "midi": 82,
          "name": "A#5",
          "ticks": 8976,
          "time": 44.879999999999995,
          "velocity": 0.8188976377952756
        },
        {
          "duration": 0.11999999999999744,
          "durationTicks": 24,
          "midi": 94,
          "name": "A#6",
          "ticks": 9024,
          "time": 45.12,
          "velocity": 0.8188976377952756
        },
        {
          "duration": 0.060000000000002274,
          "durationTicks": 12,
          "midi": 93,
          "name": "A6",
          "ticks": 9072,
          "time": 45.36,
          "velocity": 0.8188976377952756
        },
        {
          "duration": 0.05999999999999517,
          "durationTicks": 12,
          "midi": 94,
          "name": "A#6",
          "ticks": 9084,
          "time": 45.42,
          "velocity": 0.8188976377952756
        },
        {
          "duration": 0.060000000000002274,
          "durationTicks": 12,
          "midi": 93,
          "name": "A6",
          "ticks": 9096,
          "time": 45.48,
          "velocity": 0.8188976377952756
        },
        {
          "duration": 0.23999999999999488,
          "durationTicks": 48,
          "midi": 91,
          "name": "G6",
          "ticks": 9120,
          "time": 45.6,
          "velocity": 0.8188976377952756
        },
        {
          "duration": 0.240000000000002,
          "durationTicks": 48,
          "midi": 93,
          "name": "A6",
          "ticks": 9168,
          "time": 45.839999999999996,
          "velocity": 0.8188976377952756
        },
        {
          "duration": 0.060000000000002274,
          "durationTicks": 12,
          "midi": 86,
          "name": "D6",
          "ticks": 10308,
          "time": 51.54,
          "velocity": 0.8188976377952756
        },
        {
          "duration": 0.23999999999999488,
          "durationTicks": 48,
          "midi": 87,
          "name": "D#6",
          "ticks": 10320,
          "time": 51.6,
          "velocity": 0.8188976377952756
        },
        {
          "duration": 0.7199999999999989,
          "durationTicks": 144,
          "midi": 86,
          "name": "D6",
          "ticks": 10368,
          "time": 51.839999999999996,
          "velocity": 0.8188976377952756
        },
        {
          "duration": 0.12000000000000455,
          "durationTicks": 24,
          "midi": 84,
          "name": "C6",
          "ticks": 10512,
          "time": 52.559999999999995,
          "velocity": 0.8188976377952756
        },
        {
          "duration": 0.11999999999999744,
          "durationTicks": 24,
          "midi": 82,
          "name": "A#5",
          "ticks": 10560,
          "time": 52.8,
          "velocity": 0.8188976377952756
        },
        {
          "duration": 0.11999999999999744,
          "durationTicks": 24,
          "midi": 84,
          "name": "C6",
          "ticks": 10608,
          "time": 53.04,
          "velocity": 0.8188976377952756
        },
        {
          "duration": 0.11999999999999744,
          "durationTicks": 24,
          "midi": 86,
          "name": "D6",
          "ticks": 10656,
          "time": 53.28,
          "velocity": 0.8188976377952756
        },
        {
          "duration": 0.12000000000000455,
          "durationTicks": 24,
          "midi": 87,
          "name": "D#6",
          "ticks": 10704,
          "time": 53.519999999999996,
          "velocity": 0.8188976377952756
        },
        {
          "duration": 0.05999999999999517,
          "durationTicks": 12,
          "midi": 81,
          "name": "A5",
          "ticks": 11364,
          "time": 56.82,
          "velocity": 0.6929133858267716
        },
        {
          "duration": 0.12000000000000455,
          "durationTicks": 24,
          "midi": 77,
          "name": "F5",
          "ticks": 11376,
          "time": 56.879999999999995,
          "velocity": 0.6929133858267716
        },
        {
          "duration": 0.12000000000000455,
          "durationTicks": 24,
          "midi": 82,
          "name": "A#5",
          "ticks": 11376,
          "time": 56.879999999999995,
          "velocity": 0.6929133858267716
        },
        {
          "duration": 0.11999999999999744,
          "durationTicks": 24,
          "midi": 74,
          "name": "D5",
          "ticks": 11424,
          "time": 57.12,
          "velocity": 0.6929133858267716
        },
        {
          "duration": 0.11999999999999744,
          "durationTicks": 24,
          "midi": 81,
          "name": "A5",
          "ticks": 11424,
          "time": 57.12,
          "velocity": 0.6929133858267716
        },
        {
          "duration": 0.11999999999999744,
          "durationTicks": 24,
          "midi": 72,
          "name": "C5",
          "ticks": 11472,
          "time": 57.36,
          "velocity": 0.6929133858267716
        },
        {
          "duration": 0.11999999999999744,
          "durationTicks": 24,
          "midi": 77,
          "name": "F5",
          "ticks": 11472,
          "time": 57.36,
          "velocity": 0.6929133858267716
        },
        {
          "duration": 0.23999999999999488,
          "durationTicks": 48,
          "midi": 77,
          "name": "F5",
          "ticks": 11664,
          "time": 58.32,
          "velocity": 0.5669291338582677
        },
        {
          "duration": 0.240000000000002,
          "durationTicks": 48,
          "midi": 86,
          "name": "D6",
          "ticks": 11712,
          "time": 58.559999999999995,
          "velocity": 0.5669291338582677
        },
        {
          "duration": 0.240000000000002,
          "durationTicks": 48,
          "midi": 87,
          "name": "D#6",
          "ticks": 11760,
          "time": 58.8,
          "velocity": 0.5669291338582677
        },
        {
          "duration": 0.35999999999999943,
          "durationTicks": 72,
          "midi": 84,
          "name": "C6",
          "ticks": 11808,
          "time": 59.04,
          "velocity": 0.5669291338582677
        },
        {
          "duration": 0.11999999999999744,
          "durationTicks": 24,
          "midi": 82,
          "name": "A#5",
          "ticks": 11880,
          "time": 59.4,
          "velocity": 0.5669291338582677
        },
        {
          "duration": 0.7199999999999989,
          "durationTicks": 144,
          "midi": 82,
          "name": "A#5",
          "ticks": 11904,
          "time": 59.519999999999996,
          "velocity": 0.5669291338582677
        },
        {
          "duration": 0.240000000000002,
          "durationTicks": 48,
          "midi": 77,
          "name": "F5",
          "ticks": 12048,
          "time": 60.239999999999995,
          "velocity": 0.8188976377952756
        },
        {
          "duration": 0.240000000000002,
          "durationTicks": 48,
          "midi": 82,
          "name": "A#5",
          "ticks": 12096,
          "time": 60.48,
          "velocity": 0.8188976377952756
        },
        {
          "duration": 0.240000000000002,
          "durationTicks": 48,
          "midi": 84,
          "name": "C6",
          "ticks": 12144,
          "time": 60.72,
          "velocity": 0.8188976377952756
        },
        {
          "duration": 0.23999999999999488,
          "durationTicks": 48,
          "midi": 86,
          "name": "D6",
          "ticks": 12192,
          "time": 60.96,
          "velocity": 0.8188976377952756
        },
        {
          "duration": 0.240000000000002,
          "durationTicks": 48,
          "midi": 87,
          "name": "D#6",
          "ticks": 12240,
          "time": 61.199999999999996,
          "velocity": 0.8188976377952756
        },
        {
          "duration": 0.1600000000000037,
          "durationTicks": 32,
          "midi": 89,
          "name": "F6",
          "ticks": 12288,
          "time": 61.44,
          "velocity": 0.8188976377952756
        },
        {
          "duration": 0.1600000000000037,
          "durationTicks": 32,
          "midi": 89,
          "name": "F6",
          "ticks": 12336,
          "time": 61.68,
          "velocity": 0.8188976377952756
        },
        {
          "duration": 0.1600000000000108,
          "durationTicks": 32,
          "midi": 89,
          "name": "F6",
          "ticks": 12384,
          "time": 61.919999999999995,
          "velocity": 0.8188976377952756
        },
        {
          "duration": 0.1600000000000037,
          "durationTicks": 32,
          "midi": 89,
          "name": "F6",
          "ticks": 12432,
          "time": 62.16,
          "velocity": 0.8188976377952756
        },
        {
          "duration": 0.4799999999999969,
          "durationTicks": 96,
          "midi": 89,
          "name": "F6",
          "ticks": 12480,
          "time": 62.4,
          "velocity": 0.8188976377952756
        },
        {
          "duration": 0.240000000000002,
          "durationTicks": 48,
          "midi": 82,
          "name": "A#5",
          "ticks": 12576,
          "time": 62.879999999999995,
          "velocity": 0.8188976377952756
        },
        {
          "duration": 0.240000000000002,
          "durationTicks": 48,
          "midi": 86,
          "name": "D6",
          "ticks": 12624,
          "time": 63.12,
          "velocity": 0.8188976377952756
        },
        {
          "duration": 0.1600000000000037,
          "durationTicks": 32,
          "midi": 84,
          "name": "C6",
          "ticks": 12672,
          "time": 63.36,
          "velocity": 0.8188976377952756
        },
        {
          "duration": 0.1600000000000108,
          "durationTicks": 32,
          "midi": 84,
          "name": "C6",
          "ticks": 12720,
          "time": 63.599999999999994,
          "velocity": 0.8188976377952756
        },
        {
          "duration": 0.1600000000000037,
          "durationTicks": 32,
          "midi": 84,
          "name": "C6",
          "ticks": 12768,
          "time": 63.839999999999996,
          "velocity": 0.8188976377952756
        },
        {
          "duration": 0.1600000000000108,
          "durationTicks": 32,
          "midi": 84,
          "name": "C6",
          "ticks": 12816,
          "time": 64.08,
          "velocity": 0.8188976377952756
        },
        {
          "duration": 0.7199999999999989,
          "durationTicks": 144,
          "midi": 84,
          "name": "C6",
          "ticks": 12864,
          "time": 64.32,
          "velocity": 0.8188976377952756
        },
        {
          "duration": 0.12000000000000455,
          "durationTicks": 24,
          "midi": 86,
          "name": "D6",
          "ticks": 13008,
          "time": 65.03999999999999,
          "velocity": 0.8188976377952756
        },
        {
          "duration": 0.12000000000000455,
          "durationTicks": 24,
          "midi": 84,
          "name": "C6",
          "ticks": 13032,
          "time": 65.16,
          "velocity": 0.8188976377952756
        },
        {
          "duration": 0.1599999999999966,
          "durationTicks": 32,
          "midi": 82,
          "name": "A#5",
          "ticks": 13056,
          "time": 65.28,
          "velocity": 0.8188976377952756
        },
        {
          "duration": 0.1600000000000108,
          "durationTicks": 32,
          "midi": 82,
          "name": "A#5",
          "ticks": 13104,
          "time": 65.52,
          "velocity": 0.8188976377952756
        },
        {
          "duration": 0.1600000000000108,
          "durationTicks": 32,
          "midi": 82,
          "name": "A#5",
          "ticks": 13152,
          "time": 65.75999999999999,
          "velocity": 0.8188976377952756
        },
        {
          "duration": 0.1599999999999966,
          "durationTicks": 32,
          "midi": 82,
          "name": "A#5",
          "ticks": 13200,
          "time": 66,
          "velocity": 0.8188976377952756
        },
        {
          "duration": 0.480000000000004,
          "durationTicks": 96,
          "midi": 82,
          "name": "A#5",
          "ticks": 13248,
          "time": 66.24,
          "velocity": 0.8188976377952756
        },
        {
          "duration": 0.23999999999999488,
          "durationTicks": 48,
          "midi": 93,
          "name": "A6",
          "ticks": 13344,
          "time": 66.72,
          "velocity": 0.8188976377952756
        },
        {
          "duration": 0.2400000000000091,
          "durationTicks": 48,
          "midi": 94,
          "name": "A#6",
          "ticks": 13392,
          "time": 66.96,
          "velocity": 0.8188976377952756
        },
        {
          "duration": 0.7199999999999989,
          "durationTicks": 144,
          "midi": 93,
          "name": "A6",
          "ticks": 13440,
          "time": 67.2,
          "velocity": 0.8188976377952756
        },
        {
          "duration": 0.23999999999999488,
          "durationTicks": 48,
          "midi": 89,
          "name": "F6",
          "ticks": 13584,
          "time": 67.92,
          "velocity": 0.8188976377952756
        },
        {
          "duration": 0.7199999999999989,
          "durationTicks": 144,
          "midi": 86,
          "name": "D6",
          "ticks": 13632,
          "time": 68.16,
          "velocity": 0.8188976377952756
        },
        {
          "duration": 0.12000000000000455,
          "durationTicks": 24,
          "midi": 86,
          "name": "D6",
          "ticks": 13776,
          "time": 68.88,
          "velocity": 0.8188976377952756
        },
        {
          "duration": 0.12000000000000455,
          "durationTicks": 24,
          "midi": 87,
          "name": "D#6",
          "ticks": 13800,
          "time": 69,
          "velocity": 0.8188976377952756
        },
        {
          "duration": 0.1599999999999966,
          "durationTicks": 32,
          "midi": 89,
          "name": "F6",
          "ticks": 13824,
          "time": 69.12,
          "velocity": 0.8188976377952756
        },
        {
          "duration": 0.1599999999999966,
          "durationTicks": 32,
          "midi": 89,
          "name": "F6",
          "ticks": 13872,
          "time": 69.36,
          "velocity": 0.8188976377952756
        },
        {
          "duration": 0.1600000000000108,
          "durationTicks": 32,
          "midi": 89,
          "name": "F6",
          "ticks": 13920,
          "time": 69.6,
          "velocity": 0.8188976377952756
        },
        {
          "duration": 0.1599999999999966,
          "durationTicks": 32,
          "midi": 89,
          "name": "F6",
          "ticks": 13968,
          "time": 69.84,
          "velocity": 0.8188976377952756
        },
        {
          "duration": 0.480000000000004,
          "durationTicks": 96,
          "midi": 89,
          "name": "F6",
          "ticks": 14016,
          "time": 70.08,
          "velocity": 0.8188976377952756
        },
        {
          "duration": 0.23999999999999488,
          "durationTicks": 48,
          "midi": 82,
          "name": "A#5",
          "ticks": 14112,
          "time": 70.56,
          "velocity": 0.8188976377952756
        },
        {
          "duration": 0.23999999999999488,
          "durationTicks": 48,
          "midi": 86,
          "name": "D6",
          "ticks": 14160,
          "time": 70.8,
          "velocity": 0.8188976377952756
        },
        {
          "duration": 0.1600000000000108,
          "durationTicks": 32,
          "midi": 84,
          "name": "C6",
          "ticks": 14208,
          "time": 71.03999999999999,
          "velocity": 0.8188976377952756
        },
        {
          "duration": 0.1599999999999966,
          "durationTicks": 32,
          "midi": 84,
          "name": "C6",
          "ticks": 14256,
          "time": 71.28,
          "velocity": 0.8188976377952756
        },
        {
          "duration": 0.1600000000000108,
          "durationTicks": 32,
          "midi": 84,
          "name": "C6",
          "ticks": 14304,
          "time": 71.52,
          "velocity": 0.8188976377952756
        },
        {
          "duration": 0.1600000000000108,
          "durationTicks": 32,
          "midi": 84,
          "name": "C6",
          "ticks": 14352,
          "time": 71.75999999999999,
          "velocity": 0.8188976377952756
        },
        {
          "duration": 0.480000000000004,
          "durationTicks": 96,
          "midi": 84,
          "name": "C6",
          "ticks": 14400,
          "time": 72,
          "velocity": 0.8188976377952756
        },
        {
          "duration": 0.23999999999999488,
          "durationTicks": 48,
          "midi": 86,
          "name": "D6",
          "ticks": 14496,
          "time": 72.48,
          "velocity": 0.8188976377952756
        },
        {
          "duration": 0.23999999999999488,
          "durationTicks": 48,
          "midi": 84,
          "name": "C6",
          "ticks": 14544,
          "time": 72.72,
          "velocity": 0.8188976377952756
        },
        {
          "duration": 0.1600000000000108,
          "durationTicks": 32,
          "midi": 86,
          "name": "D6",
          "ticks": 14592,
          "time": 72.96,
          "velocity": 0.8188976377952756
        },
        {
          "duration": 0.1599999999999966,
          "durationTicks": 32,
          "midi": 86,
          "name": "D6",
          "ticks": 14640,
          "time": 73.2,
          "velocity": 0.8188976377952756
        },
        {
          "duration": 0.1600000000000108,
          "durationTicks": 32,
          "midi": 86,
          "name": "D6",
          "ticks": 14688,
          "time": 73.44,
          "velocity": 0.8188976377952756
        },
        {
          "duration": 0.1600000000000108,
          "durationTicks": 32,
          "midi": 86,
          "name": "D6",
          "ticks": 14736,
          "time": 73.67999999999999,
          "velocity": 0.8188976377952756
        },
        {
          "duration": 0.47999999999998977,
          "durationTicks": 96,
          "midi": 86,
          "name": "D6",
          "ticks": 14784,
          "time": 73.92,
          "velocity": 0.8188976377952756
        },
        {
          "duration": 0.2400000000000091,
          "durationTicks": 48,
          "midi": 87,
          "name": "D#6",
          "ticks": 14880,
          "time": 74.39999999999999,
          "velocity": 0.8188976377952756
        },
        {
          "duration": 0.23999999999999488,
          "durationTicks": 48,
          "midi": 86,
          "name": "D6",
          "ticks": 14928,
          "time": 74.64,
          "velocity": 0.8188976377952756
        },
        {
          "duration": 0.7199999999999989,
          "durationTicks": 144,
          "midi": 84,
          "name": "C6",
          "ticks": 14976,
          "time": 74.88,
          "velocity": 0.8188976377952756
        },
        {
          "duration": 0.060000000000002274,
          "durationTicks": 12,
          "midi": 81,
          "name": "A5",
          "ticks": 28260,
          "time": 141.29999999999998,
          "velocity": 0.6929133858267716
        },
        {
          "duration": 0.12000000000000455,
          "durationTicks": 24,
          "midi": 82,
          "name": "A#5",
          "ticks": 28272,
          "time": 141.35999999999999,
          "velocity": 0.6929133858267716
        },
        {
          "duration": 0.12000000000000455,
          "durationTicks": 24,
          "midi": 77,
          "name": "F5",
          "ticks": 28272,
          "time": 141.35999999999999,
          "velocity": 0.6929133858267716
        },
        {
          "duration": 0.12000000000000455,
          "durationTicks": 24,
          "midi": 74,
          "name": "D5",
          "ticks": 28320,
          "time": 141.6,
          "velocity": 0.6929133858267716
        },
        {
          "duration": 0.12000000000000455,
          "durationTicks": 24,
          "midi": 81,
          "name": "A5",
          "ticks": 28320,
          "time": 141.6,
          "velocity": 0.6929133858267716
        },
        {
          "duration": 0.12000000000000455,
          "durationTicks": 24,
          "midi": 72,
          "name": "C5",
          "ticks": 28368,
          "time": 141.84,
          "velocity": 0.6929133858267716
        },
        {
          "duration": 0.12000000000000455,
          "durationTicks": 24,
          "midi": 77,
          "name": "F5",
          "ticks": 28368,
          "time": 141.84,
          "velocity": 0.6929133858267716
        },
        {
          "duration": 0.060000000000002274,
          "durationTicks": 12,
          "midi": 94,
          "name": "A#6",
          "ticks": 29616,
          "time": 148.07999999999998,
          "velocity": 0.5669291338582677
        },
        {
          "duration": 0.060000000000002274,
          "durationTicks": 12,
          "midi": 93,
          "name": "A6",
          "ticks": 29664,
          "time": 148.32,
          "velocity": 0.5669291338582677
        },
        {
          "duration": 0.060000000000002274,
          "durationTicks": 12,
          "midi": 94,
          "name": "A#6",
          "ticks": 29676,
          "time": 148.38,
          "velocity": 0.5669291338582677
        },
        {
          "duration": 0.060000000000002274,
          "durationTicks": 12,
          "midi": 93,
          "name": "A6",
          "ticks": 29688,
          "time": 148.44,
          "velocity": 0.5669291338582677
        },
        {
          "duration": 0.060000000000002274,
          "durationTicks": 12,
          "midi": 91,
          "name": "G6",
          "ticks": 29712,
          "time": 148.56,
          "velocity": 0.5669291338582677
        },
        {
          "duration": 0.060000000000002274,
          "durationTicks": 12,
          "midi": 94,
          "name": "A#6",
          "ticks": 29808,
          "time": 149.04,
          "velocity": 0.5669291338582677
        },
        {
          "duration": 0.060000000000002274,
          "durationTicks": 12,
          "midi": 96,
          "name": "C7",
          "ticks": 29856,
          "time": 149.28,
          "velocity": 0.5669291338582677
        },
        {
          "duration": 0.060000000000002274,
          "durationTicks": 12,
          "midi": 98,
          "name": "D7",
          "ticks": 29904,
          "time": 149.51999999999998,
          "velocity": 0.5669291338582677
        },
        {
          "duration": 0.060000000000002274,
          "durationTicks": 12,
          "midi": 96,
          "name": "C7",
          "ticks": 30072,
          "time": 150.35999999999999,
          "velocity": 0.5669291338582677
        },
        {
          "duration": 0.060000000000002274,
          "durationTicks": 12,
          "midi": 97,
          "name": "C#7",
          "ticks": 30084,
          "time": 150.42,
          "velocity": 0.5669291338582677
        },
        {
          "duration": 0.060000000000002274,
          "durationTicks": 12,
          "midi": 98,
          "name": "D7",
          "ticks": 30096,
          "time": 150.48,
          "velocity": 0.5669291338582677
        },
        {
          "duration": 0.060000000000002274,
          "durationTicks": 12,
          "midi": 81,
          "name": "A5",
          "ticks": 31332,
          "time": 156.66,
          "velocity": 0.6929133858267716
        },
        {
          "duration": 0.12000000000000455,
          "durationTicks": 24,
          "midi": 77,
          "name": "F5",
          "ticks": 31344,
          "time": 156.72,
          "velocity": 0.6929133858267716
        },
        {
          "duration": 0.12000000000000455,
          "durationTicks": 24,
          "midi": 82,
          "name": "A#5",
          "ticks": 31344,
          "time": 156.72,
          "velocity": 0.6929133858267716
        },
        {
          "duration": 0.11999999999997613,
          "durationTicks": 24,
          "midi": 74,
          "name": "D5",
          "ticks": 31392,
          "time": 156.96,
          "velocity": 0.6929133858267716
        },
        {
          "duration": 0.11999999999997613,
          "durationTicks": 24,
          "midi": 81,
          "name": "A5",
          "ticks": 31392,
          "time": 156.96,
          "velocity": 0.6929133858267716
        },
        {
          "duration": 0.12000000000000455,
          "durationTicks": 24,
          "midi": 72,
          "name": "C5",
          "ticks": 31440,
          "time": 157.2,
          "velocity": 0.6929133858267716
        },
        {
          "duration": 0.12000000000000455,
          "durationTicks": 24,
          "midi": 77,
          "name": "F5",
          "ticks": 31440,
          "time": 157.2,
          "velocity": 0.6929133858267716
        }
      ]
    },
    {
      "channel": 0,
      "controlChanges": {
        "6": [
          {
            "number": 6,
            "ticks": 0,
            "time": 0,
            "value": 0.09448818897637795
          }
        ],
        "7": [
          {
            "number": 7,
            "ticks": 0,
            "time": 0,
            "value": 0.7874015748031497
          },
          {
            "number": 7,
            "ticks": 0,
            "time": 0,
            "value": 0.7874015748031497
          }
        ],
        "10": [
          {
            "number": 10,
            "ticks": 0,
            "time": 0,
            "value": 0.5039370078740157
          },
          {
            "number": 10,
            "ticks": 0,
            "time": 0,
            "value": 0.5039370078740157
          }
        ],
        "100": [
          {
            "number": 100,
            "ticks": 0,
            "time": 0,
            "value": 0
          }
        ],
        "101": [
          {
            "number": 101,
            "ticks": 0,
            "time": 0,
            "value": 0
          }
        ]
      },
      "pitchBends": [
        {
          "ticks": 0,
          "time": 0,
          "value": 0
        },
        {
          "ticks": 0,
          "time": 0,
          "value": 0
        }
      ],
      "instrument": {
        "family": "piano",
        "number": 0,
        "name": "acoustic grand piano"
      },
      "name": "Reverse Cymbal",
      "notes": [],
      "endOfTrackTicks": 32340
    },
    {
      "channel": 2,
      "controlChanges": {
        "6": [
          {
            "number": 6,
            "ticks": 0,
            "time": 0,
            "value": 0.09448818897637795
          },
          {
            "number": 6,
            "ticks": 32256,
            "time": 161.28,
            "value": 0.09448818897637795
          },
          {
            "number": 6,
            "ticks": 32340,
            "time": 161.7,
            "value": 0.09448818897637795
          },
          {
            "number": 6,
            "ticks": 32340,
            "time": 161.7,
            "value": 0.09448818897637795
          }
        ],
        "7": [
          {
            "number": 7,
            "ticks": 0,
            "time": 0,
            "value": 0.7874015748031497
          },
          {
            "number": 7,
            "ticks": 32256,
            "time": 161.28,
            "value": 0.7874015748031497
          },
          {
            "number": 7,
            "ticks": 32340,
            "time": 161.7,
            "value": 0.7874015748031497
          },
          {
            "number": 7,
            "ticks": 32340,
            "time": 161.7,
            "value": 0.7874015748031497
          }
        ],
        "10": [
          {
            "number": 10,
            "ticks": 0,
            "time": 0,
            "value": 0.5039370078740157
          },
          {
            "number": 10,
            "ticks": 32256,
            "time": 161.28,
            "value": 0.5039370078740157
          },
          {
            "number": 10,
            "ticks": 32340,
            "time": 161.7,
            "value": 0.5039370078740157
          },
          {
            "number": 10,
            "ticks": 32340,
            "time": 161.7,
            "value": 0.5039370078740157
          }
        ],
        "100": [
          {
            "number": 100,
            "ticks": 0,
            "time": 0,
            "value": 0
          },
          {
            "number": 100,
            "ticks": 32256,
            "time": 161.28,
            "value": 0
          },
          {
            "number": 100,
            "ticks": 32340,
            "time": 161.7,
            "value": 0
          },
          {
            "number": 100,
            "ticks": 32340,
            "time": 161.7,
            "value": 0
          }
        ],
        "101": [
          {
            "number": 101,
            "ticks": 0,
            "time": 0,
            "value": 0
          },
          {
            "number": 101,
            "ticks": 32256,
            "time": 161.28,
            "value": 0
          },
          {
            "number": 101,
            "ticks": 32340,
            "time": 161.7,
            "value": 0
          },
          {
            "number": 101,
            "ticks": 32340,
            "time": 161.7,
            "value": 0
          }
        ]
      },
      "pitchBends": [
        {
          "ticks": 0,
          "time": 0,
          "value": 0
        },
        {
          "ticks": 32256,
          "time": 161.28,
          "value": 0
        },
        {
          "ticks": 32340,
          "time": 161.7,
          "value": 0
        },
        {
          "ticks": 32340,
          "time": 161.7,
          "value": 0
        }
      ],
      "instrument": {
        "family": "percussive",
        "number": 119,
        "name": "reverse cymbal"
      },
      "name": "",
      "notes": [
        {
          "duration": 1.4399999999999995,
          "durationTicks": 288,
          "midi": 56,
          "name": "G#3",
          "ticks": 2592,
          "time": 12.959999999999999,
          "velocity": 0.8188976377952756
        },
        {
          "duration": 1.440000000000012,
          "durationTicks": 288,
          "midi": 56,
          "name": "G#3",
          "ticks": 19680,
          "time": 98.39999999999999,
          "velocity": 0.8188976377952756
        },
        {
          "duration": 1.4399999999999977,
          "durationTicks": 288,
          "midi": 56,
          "name": "G#3",
          "ticks": 28896,
          "time": 144.48,
          "velocity": 0.8188976377952756
        }
      ]
    },
    {
      "channel": 9,
      "controlChanges": {
        "6": [
          {
            "number": 6,
            "ticks": 0,
            "time": 0,
            "value": 0.09448818897637795
          },
          {
            "number": 6,
            "ticks": 0,
            "time": 0,
            "value": 0.09448818897637795
          },
          {
            "number": 6,
            "ticks": 32256,
            "time": 161.28,
            "value": 0.09448818897637795
          },
          {
            "number": 6,
            "ticks": 32340,
            "time": 161.7,
            "value": 0.09448818897637795
          },
          {
            "number": 6,
            "ticks": 32340,
            "time": 161.7,
            "value": 0.09448818897637795
          }
        ],
        "7": [
          {
            "number": 7,
            "ticks": 0,
            "time": 0,
            "value": 0.7874015748031497
          },
          {
            "number": 7,
            "ticks": 0,
            "time": 0,
            "value": 0.7874015748031497
          },
          {
            "number": 7,
            "ticks": 0,
            "time": 0,
            "value": 0.7874015748031497
          },
          {
            "number": 7,
            "ticks": 32256,
            "time": 161.28,
            "value": 0.7874015748031497
          },
          {
            "number": 7,
            "ticks": 32340,
            "time": 161.7,
            "value": 0.7874015748031497
          },
          {
            "number": 7,
            "ticks": 32340,
            "time": 161.7,
            "value": 0.7874015748031497
          }
        ],
        "10": [
          {
            "number": 10,
            "ticks": 0,
            "time": 0,
            "value": 0.5039370078740157
          },
          {
            "number": 10,
            "ticks": 0,
            "time": 0,
            "value": 0.5039370078740157
          },
          {
            "number": 10,
            "ticks": 0,
            "time": 0,
            "value": 0.5039370078740157
          },
          {
            "number": 10,
            "ticks": 32256,
            "time": 161.28,
            "value": 0.5039370078740157
          },
          {
            "number": 10,
            "ticks": 32340,
            "time": 161.7,
            "value": 0.5039370078740157
          },
          {
            "number": 10,
            "ticks": 32340,
            "time": 161.7,
            "value": 0.5039370078740157
          }
        ],
        "100": [
          {
            "number": 100,
            "ticks": 0,
            "time": 0,
            "value": 0
          },
          {
            "number": 100,
            "ticks": 0,
            "time": 0,
            "value": 0
          },
          {
            "number": 100,
            "ticks": 32256,
            "time": 161.28,
            "value": 0
          },
          {
            "number": 100,
            "ticks": 32340,
            "time": 161.7,
            "value": 0
          },
          {
            "number": 100,
            "ticks": 32340,
            "time": 161.7,
            "value": 0
          }
        ],
        "101": [
          {
            "number": 101,
            "ticks": 0,
            "time": 0,
            "value": 0
          },
          {
            "number": 101,
            "ticks": 0,
            "time": 0,
            "value": 0
          },
          {
            "number": 101,
            "ticks": 32256,
            "time": 161.28,
            "value": 0
          },
          {
            "number": 101,
            "ticks": 32340,
            "time": 161.7,
            "value": 0
          },
          {
            "number": 101,
            "ticks": 32340,
            "time": 161.7,
            "value": 0
          }
        ]
      },
      "pitchBends": [
        {
          "ticks": 0,
          "time": 0,
          "value": 0
        },
        {
          "ticks": 0,
          "time": 0,
          "value": 0
        },
        {
          "ticks": 0,
          "time": 0,
          "value": 0
        },
        {
          "ticks": 32256,
          "time": 161.28,
          "value": 0
        },
        {
          "ticks": 32340,
          "time": 161.7,
          "value": 0
        },
        {
          "ticks": 32340,
          "time": 161.7,
          "value": 0
        }
      ],
      "instrument": {
        "family": "drums",
        "number": 0,
        "name": "standard kit"
      },
      "name": "Drums",
      "notes": [
        {
          "duration": 0.11999999999999922,
          "durationTicks": 24,
          "midi": 77,
          "name": "F5",
          "ticks": 3072,
          "time": 15.36,
          "velocity": 0.7244094488188977
        },
        {
          "duration": 0.11999999999999922,
          "durationTicks": 24,
          "midi": 49,
          "name": "C#3",
          "ticks": 3072,
          "time": 15.36,
          "velocity": 0.9133858267716536
        },
        {
          "duration": 0.11999999999999922,
          "durationTicks": 24,
          "midi": 36,
          "name": "C2",
          "ticks": 3072,
          "time": 15.36,
          "velocity": 0.7874015748031497
        },
        {
          "duration": 0.11999999999999922,
          "durationTicks": 24,
          "midi": 42,
          "name": "F#2",
          "ticks": 3072,
          "time": 15.36,
          "velocity": 0.8818897637795275
        },
        {
          "duration": 0.120000000000001,
          "durationTicks": 24,
          "midi": 77,
          "name": "F5",
          "ticks": 3096,
          "time": 15.479999999999999,
          "velocity": 0.5354330708661418
        },
        {
          "duration": 0.11999999999999922,
          "durationTicks": 24,
          "midi": 42,
          "name": "F#2",
          "ticks": 3120,
          "time": 15.6,
          "velocity": 0.8818897637795275
        },
        {
          "duration": 0.11999999999999922,
          "durationTicks": 24,
          "midi": 77,
          "name": "F5",
          "ticks": 3120,
          "time": 15.6,
          "velocity": 0.28346456692913385
        },
        {
          "duration": 0.120000000000001,
          "durationTicks": 24,
          "midi": 42,
          "name": "F#2",
          "ticks": 3144,
          "time": 15.719999999999999,
          "velocity": 0.8818897637795275
        },
        {
          "duration": 0.11999999999999922,
          "durationTicks": 24,
          "midi": 46,
          "name": "A#2",
          "ticks": 3168,
          "time": 15.84,
          "velocity": 0.6299212598425197
        },
        {
          "duration": 0.11999999999999922,
          "durationTicks": 24,
          "midi": 38,
          "name": "D2",
          "ticks": 3168,
          "time": 15.84,
          "velocity": 0.8818897637795275
        },
        {
          "duration": 0.120000000000001,
          "durationTicks": 24,
          "midi": 42,
          "name": "F#2",
          "ticks": 3216,
          "time": 16.08,
          "velocity": 0.8818897637795275
        },
        {
          "duration": 0.120000000000001,
          "durationTicks": 24,
          "midi": 42,
          "name": "F#2",
          "ticks": 3240,
          "time": 16.2,
          "velocity": 0.8818897637795275
        },
        {
          "duration": 0.11999999999999744,
          "durationTicks": 24,
          "midi": 77,
          "name": "F5",
          "ticks": 3264,
          "time": 16.32,
          "velocity": 0.7244094488188977
        },
        {
          "duration": 0.11999999999999744,
          "durationTicks": 24,
          "midi": 42,
          "name": "F#2",
          "ticks": 3264,
          "time": 16.32,
          "velocity": 0.8818897637795275
        },
        {
          "duration": 0.11999999999999744,
          "durationTicks": 24,
          "midi": 36,
          "name": "C2",
          "ticks": 3264,
          "time": 16.32,
          "velocity": 0.7874015748031497
        },
        {
          "duration": 0.120000000000001,
          "durationTicks": 24,
          "midi": 77,
          "name": "F5",
          "ticks": 3288,
          "time": 16.439999999999998,
          "velocity": 0.47244094488188976
        },
        {
          "duration": 0.120000000000001,
          "durationTicks": 24,
          "midi": 64,
          "name": "E4",
          "ticks": 3312,
          "time": 16.56,
          "velocity": 0.5669291338582677
        },
        {
          "duration": 0.120000000000001,
          "durationTicks": 24,
          "midi": 42,
          "name": "F#2",
          "ticks": 3312,
          "time": 16.56,
          "velocity": 0.8818897637795275
        },
        {
          "duration": 0.120000000000001,
          "durationTicks": 24,
          "midi": 77,
          "name": "F5",
          "ticks": 3312,
          "time": 16.56,
          "velocity": 0.28346456692913385
        },
        {
          "duration": 0.120000000000001,
          "durationTicks": 24,
          "midi": 63,
          "name": "D#4",
          "ticks": 3336,
          "time": 16.68,
          "velocity": 0.5669291338582677
        },
        {
          "duration": 0.120000000000001,
          "durationTicks": 24,
          "midi": 42,
          "name": "F#2",
          "ticks": 3336,
          "time": 16.68,
          "velocity": 0.8818897637795275
        },
        {
          "duration": 0.11999999999999744,
          "durationTicks": 24,
          "midi": 46,
          "name": "A#2",
          "ticks": 3360,
          "time": 16.8,
          "velocity": 0.6299212598425197
        },
        {
          "duration": 0.11999999999999744,
          "durationTicks": 24,
          "midi": 38,
          "name": "D2",
          "ticks": 3360,
          "time": 16.8,
          "velocity": 0.8818897637795275
        },
        {
          "duration": 0.120000000000001,
          "durationTicks": 24,
          "midi": 42,
          "name": "F#2",
          "ticks": 3408,
          "time": 17.04,
          "velocity": 0.8818897637795275
        },
        {
          "duration": 0.120000000000001,
          "durationTicks": 24,
          "midi": 42,
          "name": "F#2",
          "ticks": 3432,
          "time": 17.16,
          "velocity": 0.8818897637795275
        },
        {
          "duration": 0.11999999999999744,
          "durationTicks": 24,
          "midi": 77,
          "name": "F5",
          "ticks": 3456,
          "time": 17.28,
          "velocity": 0.7244094488188977
        },
        {
          "duration": 0.11999999999999744,
          "durationTicks": 24,
          "midi": 36,
          "name": "C2",
          "ticks": 3456,
          "time": 17.28,
          "velocity": 0.7874015748031497
        },
        {
          "duration": 0.11999999999999744,
          "durationTicks": 24,
          "midi": 42,
          "name": "F#2",
          "ticks": 3456,
          "time": 17.28,
          "velocity": 0.8818897637795275
        },
        {
          "duration": 0.120000000000001,
          "durationTicks": 24,
          "midi": 77,
          "name": "F5",
          "ticks": 3480,
          "time": 17.4,
          "velocity": 0.47244094488188976
        },
        {
          "duration": 0.120000000000001,
          "durationTicks": 24,
          "midi": 42,
          "name": "F#2",
          "ticks": 3504,
          "time": 17.52,
          "velocity": 0.8818897637795275
        },
        {
          "duration": 0.120000000000001,
          "durationTicks": 24,
          "midi": 77,
          "name": "F5",
          "ticks": 3504,
          "time": 17.52,
          "velocity": 0.28346456692913385
        },
        {
          "duration": 0.11999999999999744,
          "durationTicks": 24,
          "midi": 42,
          "name": "F#2",
          "ticks": 3528,
          "time": 17.64,
          "velocity": 0.8818897637795275
        },
        {
          "duration": 0.120000000000001,
          "durationTicks": 24,
          "midi": 38,
          "name": "D2",
          "ticks": 3552,
          "time": 17.759999999999998,
          "velocity": 0.8818897637795275
        },
        {
          "duration": 0.120000000000001,
          "durationTicks": 24,
          "midi": 46,
          "name": "A#2",
          "ticks": 3552,
          "time": 17.759999999999998,
          "velocity": 0.6299212598425197
        },
        {
          "duration": 0.120000000000001,
          "durationTicks": 24,
          "midi": 42,
          "name": "F#2",
          "ticks": 3600,
          "time": 18,
          "velocity": 0.8818897637795275
        },
        {
          "duration": 0.11999999999999744,
          "durationTicks": 24,
          "midi": 42,
          "name": "F#2",
          "ticks": 3624,
          "time": 18.12,
          "velocity": 0.8818897637795275
        },
        {
          "duration": 0.120000000000001,
          "durationTicks": 24,
          "midi": 77,
          "name": "F5",
          "ticks": 3648,
          "time": 18.24,
          "velocity": 0.7244094488188977
        },
        {
          "duration": 0.120000000000001,
          "durationTicks": 24,
          "midi": 36,
          "name": "C2",
          "ticks": 3648,
          "time": 18.24,
          "velocity": 0.7874015748031497
        },
        {
          "duration": 0.120000000000001,
          "durationTicks": 24,
          "midi": 42,
          "name": "F#2",
          "ticks": 3648,
          "time": 18.24,
          "velocity": 0.8818897637795275
        },
        {
          "duration": 0.120000000000001,
          "durationTicks": 24,
          "midi": 77,
          "name": "F5",
          "ticks": 3672,
          "time": 18.36,
          "velocity": 0.47244094488188976
        },
        {
          "duration": 0.11999999999999744,
          "durationTicks": 24,
          "midi": 77,
          "name": "F5",
          "ticks": 3696,
          "time": 18.48,
          "velocity": 0.28346456692913385
        },
        {
          "duration": 0.11999999999999744,
          "durationTicks": 24,
          "midi": 42,
          "name": "F#2",
          "ticks": 3696,
          "time": 18.48,
          "velocity": 0.8818897637795275
        },
        {
          "duration": 0.11999999999999744,
          "durationTicks": 24,
          "midi": 64,
          "name": "E4",
          "ticks": 3696,
          "time": 18.48,
          "velocity": 0.5669291338582677
        },
        {
          "duration": 0.120000000000001,
          "durationTicks": 24,
          "midi": 63,
          "name": "D#4",
          "ticks": 3720,
          "time": 18.599999999999998,
          "velocity": 0.5669291338582677
        },
        {
          "duration": 0.120000000000001,
          "durationTicks": 24,
          "midi": 42,
          "name": "F#2",
          "ticks": 3720,
          "time": 18.599999999999998,
          "velocity": 0.8818897637795275
        },
        {
          "duration": 0.120000000000001,
          "durationTicks": 24,
          "midi": 38,
          "name": "D2",
          "ticks": 3744,
          "time": 18.72,
          "velocity": 0.8818897637795275
        },
        {
          "duration": 0.120000000000001,
          "durationTicks": 24,
          "midi": 46,
          "name": "A#2",
          "ticks": 3744,
          "time": 18.72,
          "velocity": 0.6299212598425197
        },
        {
          "duration": 0.11999999999999744,
          "durationTicks": 24,
          "midi": 42,
          "name": "F#2",
          "ticks": 3792,
          "time": 18.96,
          "velocity": 0.8818897637795275
        },
        {
          "duration": 0.120000000000001,
          "durationTicks": 24,
          "midi": 42,
          "name": "F#2",
          "ticks": 3816,
          "time": 19.08,
          "velocity": 0.8818897637795275
        },
        {
          "duration": 0.120000000000001,
          "durationTicks": 24,
          "midi": 77,
          "name": "F5",
          "ticks": 3840,
          "time": 19.2,
          "velocity": 0.7244094488188977
        },
        {
          "duration": 0.120000000000001,
          "durationTicks": 24,
          "midi": 36,
          "name": "C2",
          "ticks": 3840,
          "time": 19.2,
          "velocity": 0.7874015748031497
        },
        {
          "duration": 0.120000000000001,
          "durationTicks": 24,
          "midi": 42,
          "name": "F#2",
          "ticks": 3840,
          "time": 19.2,
          "velocity": 0.8818897637795275
        },
        {
          "duration": 0.11999999999999744,
          "durationTicks": 24,
          "midi": 77,
          "name": "F5",
          "ticks": 3864,
          "time": 19.32,
          "velocity": 0.47244094488188976
        },
        {
          "duration": 0.120000000000001,
          "durationTicks": 24,
          "midi": 42,
          "name": "F#2",
          "ticks": 3888,
          "time": 19.439999999999998,
          "velocity": 0.8818897637795275
        },
        {
          "duration": 0.120000000000001,
          "durationTicks": 24,
          "midi": 77,
          "name": "F5",
          "ticks": 3888,
          "time": 19.439999999999998,
          "velocity": 0.28346456692913385
        },
        {
          "duration": 0.120000000000001,
          "durationTicks": 24,
          "midi": 42,
          "name": "F#2",
          "ticks": 3912,
          "time": 19.56,
          "velocity": 0.8818897637795275
        },
        {
          "duration": 0.120000000000001,
          "durationTicks": 24,
          "midi": 46,
          "name": "A#2",
          "ticks": 3936,
          "time": 19.68,
          "velocity": 0.6299212598425197
        },
        {
          "duration": 0.120000000000001,
          "durationTicks": 24,
          "midi": 38,
          "name": "D2",
          "ticks": 3936,
          "time": 19.68,
          "velocity": 0.8818897637795275
        },
        {
          "duration": 0.120000000000001,
          "durationTicks": 24,
          "midi": 42,
          "name": "F#2",
          "ticks": 3984,
          "time": 19.919999999999998,
          "velocity": 0.8818897637795275
        },
        {
          "duration": 0.120000000000001,
          "durationTicks": 24,
          "midi": 42,
          "name": "F#2",
          "ticks": 4008,
          "time": 20.04,
          "velocity": 0.8818897637795275
        },
        {
          "duration": 0.11999999999999744,
          "durationTicks": 24,
          "midi": 77,
          "name": "F5",
          "ticks": 4032,
          "time": 20.16,
          "velocity": 0.7244094488188977
        },
        {
          "duration": 0.11999999999999744,
          "durationTicks": 24,
          "midi": 36,
          "name": "C2",
          "ticks": 4032,
          "time": 20.16,
          "velocity": 0.7874015748031497
        },
        {
          "duration": 0.11999999999999744,
          "durationTicks": 24,
          "midi": 42,
          "name": "F#2",
          "ticks": 4032,
          "time": 20.16,
          "velocity": 0.8818897637795275
        },
        {
          "duration": 0.120000000000001,
          "durationTicks": 24,
          "midi": 77,
          "name": "F5",
          "ticks": 4056,
          "time": 20.279999999999998,
          "velocity": 0.47244094488188976
        },
        {
          "duration": 0.120000000000001,
          "durationTicks": 24,
          "midi": 42,
          "name": "F#2",
          "ticks": 4080,
          "time": 20.4,
          "velocity": 0.8818897637795275
        },
        {
          "duration": 0.120000000000001,
          "durationTicks": 24,
          "midi": 64,
          "name": "E4",
          "ticks": 4080,
          "time": 20.4,
          "velocity": 0.5669291338582677
        },
        {
          "duration": 0.120000000000001,
          "durationTicks": 24,
          "midi": 77,
          "name": "F5",
          "ticks": 4080,
          "time": 20.4,
          "velocity": 0.28346456692913385
        },
        {
          "duration": 0.120000000000001,
          "durationTicks": 24,
          "midi": 63,
          "name": "D#4",
          "ticks": 4104,
          "time": 20.52,
          "velocity": 0.5669291338582677
        },
        {
          "duration": 0.120000000000001,
          "durationTicks": 24,
          "midi": 42,
          "name": "F#2",
          "ticks": 4104,
          "time": 20.52,
          "velocity": 0.8818897637795275
        },
        {
          "duration": 0.11999999999999744,
          "durationTicks": 24,
          "midi": 46,
          "name": "A#2",
          "ticks": 4128,
          "time": 20.64,
          "velocity": 0.6299212598425197
        },
        {
          "duration": 0.11999999999999744,
          "durationTicks": 24,
          "midi": 38,
          "name": "D2",
          "ticks": 4128,
          "time": 20.64,
          "velocity": 0.8818897637795275
        },
        {
          "duration": 0.120000000000001,
          "durationTicks": 24,
          "midi": 42,
          "name": "F#2",
          "ticks": 4176,
          "time": 20.88,
          "velocity": 0.8818897637795275
        },
        {
          "duration": 0.11999999999999744,
          "durationTicks": 24,
          "midi": 42,
          "name": "F#2",
          "ticks": 4200,
          "time": 21,
          "velocity": 0.8818897637795275
        },
        {
          "duration": 0.120000000000001,
          "durationTicks": 24,
          "midi": 77,
          "name": "F5",
          "ticks": 4224,
          "time": 21.119999999999997,
          "velocity": 0.7244094488188977
        },
        {
          "duration": 0.120000000000001,
          "durationTicks": 24,
          "midi": 42,
          "name": "F#2",
          "ticks": 4224,
          "time": 21.119999999999997,
          "velocity": 0.8818897637795275
        },
        {
          "duration": 0.120000000000001,
          "durationTicks": 24,
          "midi": 36,
          "name": "C2",
          "ticks": 4224,
          "time": 21.119999999999997,
          "velocity": 0.7874015748031497
        },
        {
          "duration": 0.120000000000001,
          "durationTicks": 24,
          "midi": 77,
          "name": "F5",
          "ticks": 4248,
          "time": 21.24,
          "velocity": 0.47244094488188976
        },
        {
          "duration": 0.120000000000001,
          "durationTicks": 24,
          "midi": 42,
          "name": "F#2",
          "ticks": 4272,
          "time": 21.36,
          "velocity": 0.8818897637795275
        },
        {
          "duration": 0.120000000000001,
          "durationTicks": 24,
          "midi": 77,
          "name": "F5",
          "ticks": 4272,
          "time": 21.36,
          "velocity": 0.28346456692913385
        },
        {
          "duration": 0.11999999999999744,
          "durationTicks": 24,
          "midi": 42,
          "name": "F#2",
          "ticks": 4296,
          "time": 21.48,
          "velocity": 0.8818897637795275
        },
        {
          "duration": 0.120000000000001,
          "durationTicks": 24,
          "midi": 46,
          "name": "A#2",
          "ticks": 4320,
          "time": 21.599999999999998,
          "velocity": 0.6299212598425197
        },
        {
          "duration": 0.120000000000001,
          "durationTicks": 24,
          "midi": 38,
          "name": "D2",
          "ticks": 4320,
          "time": 21.599999999999998,
          "velocity": 0.8818897637795275
        },
        {
          "duration": 0.120000000000001,
          "durationTicks": 24,
          "midi": 42,
          "name": "F#2",
          "ticks": 4368,
          "time": 21.84,
          "velocity": 0.8818897637795275
        },
        {
          "duration": 0.11999999999999744,
          "durationTicks": 24,
          "midi": 42,
          "name": "F#2",
          "ticks": 4392,
          "time": 21.96,
          "velocity": 0.8818897637795275
        },
        {
          "duration": 0.120000000000001,
          "durationTicks": 24,
          "midi": 77,
          "name": "F5",
          "ticks": 4416,
          "time": 22.08,
          "velocity": 0.7244094488188977
        },
        {
          "duration": 0.120000000000001,
          "durationTicks": 24,
          "midi": 42,
          "name": "F#2",
          "ticks": 4416,
          "time": 22.08,
          "velocity": 0.8818897637795275
        },
        {
          "duration": 0.120000000000001,
          "durationTicks": 24,
          "midi": 36,
          "name": "C2",
          "ticks": 4416,
          "time": 22.08,
          "velocity": 0.7874015748031497
        },
        {
          "duration": 0.120000000000001,
          "durationTicks": 24,
          "midi": 77,
          "name": "F5",
          "ticks": 4440,
          "time": 22.2,
          "velocity": 0.47244094488188976
        },
        {
          "duration": 0.11999999999999744,
          "durationTicks": 24,
          "midi": 77,
          "name": "F5",
          "ticks": 4464,
          "time": 22.32,
          "velocity": 0.28346456692913385
        },
        {
          "duration": 0.11999999999999744,
          "durationTicks": 24,
          "midi": 42,
          "name": "F#2",
          "ticks": 4464,
          "time": 22.32,
          "velocity": 0.8818897637795275
        },
        {
          "duration": 0.11999999999999744,
          "durationTicks": 24,
          "midi": 64,
          "name": "E4",
          "ticks": 4464,
          "time": 22.32,
          "velocity": 0.5669291338582677
        },
        {
          "duration": 0.120000000000001,
          "durationTicks": 24,
          "midi": 63,
          "name": "D#4",
          "ticks": 4488,
          "time": 22.439999999999998,
          "velocity": 0.5669291338582677
        },
        {
          "duration": 0.120000000000001,
          "durationTicks": 24,
          "midi": 42,
          "name": "F#2",
          "ticks": 4488,
          "time": 22.439999999999998,
          "velocity": 0.8818897637795275
        },
        {
          "duration": 0.120000000000001,
          "durationTicks": 24,
          "midi": 38,
          "name": "D2",
          "ticks": 4512,
          "time": 22.56,
          "velocity": 0.8818897637795275
        },
        {
          "duration": 0.120000000000001,
          "durationTicks": 24,
          "midi": 46,
          "name": "A#2",
          "ticks": 4512,
          "time": 22.56,
          "velocity": 0.6299212598425197
        },
        {
          "duration": 0.11999999999999744,
          "durationTicks": 24,
          "midi": 42,
          "name": "F#2",
          "ticks": 4560,
          "time": 22.8,
          "velocity": 0.8818897637795275
        },
        {
          "duration": 0.120000000000001,
          "durationTicks": 24,
          "midi": 42,
          "name": "F#2",
          "ticks": 4584,
          "time": 22.919999999999998,
          "velocity": 0.8818897637795275
        },
        {
          "duration": 0.120000000000001,
          "durationTicks": 24,
          "midi": 77,
          "name": "F5",
          "ticks": 4608,
          "time": 23.04,
          "velocity": 0.7244094488188977
        },
        {
          "duration": 0.120000000000001,
          "durationTicks": 24,
          "midi": 36,
          "name": "C2",
          "ticks": 4608,
          "time": 23.04,
          "velocity": 0.7874015748031497
        },
        {
          "duration": 0.120000000000001,
          "durationTicks": 24,
          "midi": 42,
          "name": "F#2",
          "ticks": 4608,
          "time": 23.04,
          "velocity": 0.8818897637795275
        },
        {
          "duration": 0.11999999999999744,
          "durationTicks": 24,
          "midi": 77,
          "name": "F5",
          "ticks": 4632,
          "time": 23.16,
          "velocity": 0.47244094488188976
        },
        {
          "duration": 0.120000000000001,
          "durationTicks": 24,
          "midi": 42,
          "name": "F#2",
          "ticks": 4656,
          "time": 23.279999999999998,
          "velocity": 0.8818897637795275
        },
        {
          "duration": 0.120000000000001,
          "durationTicks": 24,
          "midi": 77,
          "name": "F5",
          "ticks": 4656,
          "time": 23.279999999999998,
          "velocity": 0.28346456692913385
        },
        {
          "duration": 0.120000000000001,
          "durationTicks": 24,
          "midi": 42,
          "name": "F#2",
          "ticks": 4680,
          "time": 23.4,
          "velocity": 0.8818897637795275
        },
        {
          "duration": 0.120000000000001,
          "durationTicks": 24,
          "midi": 46,
          "name": "A#2",
          "ticks": 4704,
          "time": 23.52,
          "velocity": 0.6299212598425197
        },
        {
          "duration": 0.120000000000001,
          "durationTicks": 24,
          "midi": 38,
          "name": "D2",
          "ticks": 4704,
          "time": 23.52,
          "velocity": 0.8818897637795275
        },
        {
          "duration": 0.120000000000001,
          "durationTicks": 24,
          "midi": 42,
          "name": "F#2",
          "ticks": 4752,
          "time": 23.759999999999998,
          "velocity": 0.8818897637795275
        },
        {
          "duration": 0.120000000000001,
          "durationTicks": 24,
          "midi": 42,
          "name": "F#2",
          "ticks": 4776,
          "time": 23.88,
          "velocity": 0.8818897637795275
        },
        {
          "duration": 0.11999999999999744,
          "durationTicks": 24,
          "midi": 77,
          "name": "F5",
          "ticks": 4800,
          "time": 24,
          "velocity": 0.7244094488188977
        },
        {
          "duration": 0.11999999999999744,
          "durationTicks": 24,
          "midi": 36,
          "name": "C2",
          "ticks": 4800,
          "time": 24,
          "velocity": 0.7874015748031497
        },
        {
          "duration": 0.11999999999999744,
          "durationTicks": 24,
          "midi": 42,
          "name": "F#2",
          "ticks": 4800,
          "time": 24,
          "velocity": 0.8818897637795275
        },
        {
          "duration": 0.120000000000001,
          "durationTicks": 24,
          "midi": 77,
          "name": "F5",
          "ticks": 4824,
          "time": 24.119999999999997,
          "velocity": 0.47244094488188976
        },
        {
          "duration": 0.120000000000001,
          "durationTicks": 24,
          "midi": 42,
          "name": "F#2",
          "ticks": 4848,
          "time": 24.24,
          "velocity": 0.8818897637795275
        },
        {
          "duration": 0.120000000000001,
          "durationTicks": 24,
          "midi": 64,
          "name": "E4",
          "ticks": 4848,
          "time": 24.24,
          "velocity": 0.5669291338582677
        },
        {
          "duration": 0.120000000000001,
          "durationTicks": 24,
          "midi": 77,
          "name": "F5",
          "ticks": 4848,
          "time": 24.24,
          "velocity": 0.28346456692913385
        },
        {
          "duration": 0.120000000000001,
          "durationTicks": 24,
          "midi": 63,
          "name": "D#4",
          "ticks": 4872,
          "time": 24.36,
          "velocity": 0.5669291338582677
        },
        {
          "duration": 0.120000000000001,
          "durationTicks": 24,
          "midi": 42,
          "name": "F#2",
          "ticks": 4872,
          "time": 24.36,
          "velocity": 0.8818897637795275
        },
        {
          "duration": 0.11999999999999744,
          "durationTicks": 24,
          "midi": 46,
          "name": "A#2",
          "ticks": 4896,
          "time": 24.48,
          "velocity": 0.6299212598425197
        },
        {
          "duration": 0.11999999999999744,
          "durationTicks": 24,
          "midi": 38,
          "name": "D2",
          "ticks": 4896,
          "time": 24.48,
          "velocity": 0.8818897637795275
        },
        {
          "duration": 0.120000000000001,
          "durationTicks": 24,
          "midi": 42,
          "name": "F#2",
          "ticks": 4944,
          "time": 24.72,
          "velocity": 0.8818897637795275
        },
        {
          "duration": 0.120000000000001,
          "durationTicks": 24,
          "midi": 42,
          "name": "F#2",
          "ticks": 4968,
          "time": 24.84,
          "velocity": 0.8818897637795275
        },
        {
          "duration": 0.11999999999999744,
          "durationTicks": 24,
          "midi": 77,
          "name": "F5",
          "ticks": 4992,
          "time": 24.96,
          "velocity": 0.7244094488188977
        },
        {
          "duration": 0.11999999999999744,
          "durationTicks": 24,
          "midi": 42,
          "name": "F#2",
          "ticks": 4992,
          "time": 24.96,
          "velocity": 0.8818897637795275
        },
        {
          "duration": 0.11999999999999744,
          "durationTicks": 24,
          "midi": 36,
          "name": "C2",
          "ticks": 4992,
          "time": 24.96,
          "velocity": 0.7874015748031497
        },
        {
          "duration": 0.120000000000001,
          "durationTicks": 24,
          "midi": 77,
          "name": "F5",
          "ticks": 5016,
          "time": 25.08,
          "velocity": 0.47244094488188976
        },
        {
          "duration": 0.120000000000001,
          "durationTicks": 24,
          "midi": 42,
          "name": "F#2",
          "ticks": 5040,
          "time": 25.2,
          "velocity": 0.8818897637795275
        },
        {
          "duration": 0.120000000000001,
          "durationTicks": 24,
          "midi": 77,
          "name": "F5",
          "ticks": 5040,
          "time": 25.2,
          "velocity": 0.28346456692913385
        },
        {
          "duration": 0.11999999999999744,
          "durationTicks": 24,
          "midi": 42,
          "name": "F#2",
          "ticks": 5064,
          "time": 25.32,
          "velocity": 0.8818897637795275
        },
        {
          "duration": 0.120000000000001,
          "durationTicks": 24,
          "midi": 38,
          "name": "D2",
          "ticks": 5088,
          "time": 25.439999999999998,
          "velocity": 0.8818897637795275
        },
        {
          "duration": 0.120000000000001,
          "durationTicks": 24,
          "midi": 46,
          "name": "A#2",
          "ticks": 5088,
          "time": 25.439999999999998,
          "velocity": 0.6299212598425197
        },
        {
          "duration": 0.120000000000001,
          "durationTicks": 24,
          "midi": 42,
          "name": "F#2",
          "ticks": 5136,
          "time": 25.68,
          "velocity": 0.8818897637795275
        },
        {
          "duration": 0.11999999999999744,
          "durationTicks": 24,
          "midi": 42,
          "name": "F#2",
          "ticks": 5160,
          "time": 25.8,
          "velocity": 0.8818897637795275
        },
        {
          "duration": 0.120000000000001,
          "durationTicks": 24,
          "midi": 77,
          "name": "F5",
          "ticks": 5184,
          "time": 25.919999999999998,
          "velocity": 0.7244094488188977
        },
        {
          "duration": 0.120000000000001,
          "durationTicks": 24,
          "midi": 36,
          "name": "C2",
          "ticks": 5184,
          "time": 25.919999999999998,
          "velocity": 0.7874015748031497
        },
        {
          "duration": 0.120000000000001,
          "durationTicks": 24,
          "midi": 42,
          "name": "F#2",
          "ticks": 5184,
          "time": 25.919999999999998,
          "velocity": 0.8818897637795275
        },
        {
          "duration": 0.120000000000001,
          "durationTicks": 24,
          "midi": 77,
          "name": "F5",
          "ticks": 5208,
          "time": 26.04,
          "velocity": 0.47244094488188976
        },
        {
          "duration": 0.11999999999999744,
          "durationTicks": 24,
          "midi": 77,
          "name": "F5",
          "ticks": 5232,
          "time": 26.16,
          "velocity": 0.28346456692913385
        },
        {
          "duration": 0.11999999999999744,
          "durationTicks": 24,
          "midi": 42,
          "name": "F#2",
          "ticks": 5232,
          "time": 26.16,
          "velocity": 0.8818897637795275
        },
        {
          "duration": 0.11999999999999744,
          "durationTicks": 24,
          "midi": 64,
          "name": "E4",
          "ticks": 5232,
          "time": 26.16,
          "velocity": 0.5669291338582677
        },
        {
          "duration": 0.120000000000001,
          "durationTicks": 24,
          "midi": 63,
          "name": "D#4",
          "ticks": 5256,
          "time": 26.279999999999998,
          "velocity": 0.5669291338582677
        },
        {
          "duration": 0.120000000000001,
          "durationTicks": 24,
          "midi": 42,
          "name": "F#2",
          "ticks": 5256,
          "time": 26.279999999999998,
          "velocity": 0.8818897637795275
        },
        {
          "duration": 0.120000000000001,
          "durationTicks": 24,
          "midi": 38,
          "name": "D2",
          "ticks": 5280,
          "time": 26.4,
          "velocity": 0.8818897637795275
        },
        {
          "duration": 0.120000000000001,
          "durationTicks": 24,
          "midi": 46,
          "name": "A#2",
          "ticks": 5280,
          "time": 26.4,
          "velocity": 0.6299212598425197
        },
        {
          "duration": 0.11999999999999744,
          "durationTicks": 24,
          "midi": 42,
          "name": "F#2",
          "ticks": 5328,
          "time": 26.64,
          "velocity": 0.8818897637795275
        },
        {
          "duration": 0.120000000000001,
          "durationTicks": 24,
          "midi": 42,
          "name": "F#2",
          "ticks": 5352,
          "time": 26.759999999999998,
          "velocity": 0.8818897637795275
        },
        {
          "duration": 0.120000000000001,
          "durationTicks": 24,
          "midi": 77,
          "name": "F5",
          "ticks": 5376,
          "time": 26.88,
          "velocity": 0.7244094488188977
        },
        {
          "duration": 0.120000000000001,
          "durationTicks": 24,
          "midi": 36,
          "name": "C2",
          "ticks": 5376,
          "time": 26.88,
          "velocity": 0.7874015748031497
        },
        {
          "duration": 0.120000000000001,
          "durationTicks": 24,
          "midi": 42,
          "name": "F#2",
          "ticks": 5376,
          "time": 26.88,
          "velocity": 0.8818897637795275
        },
        {
          "duration": 0.11999999999999744,
          "durationTicks": 24,
          "midi": 77,
          "name": "F5",
          "ticks": 5400,
          "time": 27,
          "velocity": 0.47244094488188976
        },
        {
          "duration": 0.120000000000001,
          "durationTicks": 24,
          "midi": 42,
          "name": "F#2",
          "ticks": 5424,
          "time": 27.119999999999997,
          "velocity": 0.8818897637795275
        },
        {
          "duration": 0.120000000000001,
          "durationTicks": 24,
          "midi": 77,
          "name": "F5",
          "ticks": 5424,
          "time": 27.119999999999997,
          "velocity": 0.28346456692913385
        },
        {
          "duration": 0.120000000000001,
          "durationTicks": 24,
          "midi": 42,
          "name": "F#2",
          "ticks": 5448,
          "time": 27.24,
          "velocity": 0.8818897637795275
        },
        {
          "duration": 0.120000000000001,
          "durationTicks": 24,
          "midi": 46,
          "name": "A#2",
          "ticks": 5472,
          "time": 27.36,
          "velocity": 0.6299212598425197
        },
        {
          "duration": 0.120000000000001,
          "durationTicks": 24,
          "midi": 38,
          "name": "D2",
          "ticks": 5472,
          "time": 27.36,
          "velocity": 0.8818897637795275
        },
        {
          "duration": 0.120000000000001,
          "durationTicks": 24,
          "midi": 42,
          "name": "F#2",
          "ticks": 5520,
          "time": 27.599999999999998,
          "velocity": 0.8818897637795275
        },
        {
          "duration": 0.120000000000001,
          "durationTicks": 24,
          "midi": 42,
          "name": "F#2",
          "ticks": 5544,
          "time": 27.72,
          "velocity": 0.8818897637795275
        },
        {
          "duration": 0.11999999999999744,
          "durationTicks": 24,
          "midi": 77,
          "name": "F5",
          "ticks": 5568,
          "time": 27.84,
          "velocity": 0.7244094488188977
        },
        {
          "duration": 0.11999999999999744,
          "durationTicks": 24,
          "midi": 36,
          "name": "C2",
          "ticks": 5568,
          "time": 27.84,
          "velocity": 0.7874015748031497
        },
        {
          "duration": 0.11999999999999744,
          "durationTicks": 24,
          "midi": 42,
          "name": "F#2",
          "ticks": 5568,
          "time": 27.84,
          "velocity": 0.8818897637795275
        },
        {
          "duration": 0.120000000000001,
          "durationTicks": 24,
          "midi": 77,
          "name": "F5",
          "ticks": 5592,
          "time": 27.959999999999997,
          "velocity": 0.47244094488188976
        },
        {
          "duration": 0.120000000000001,
          "durationTicks": 24,
          "midi": 42,
          "name": "F#2",
          "ticks": 5616,
          "time": 28.08,
          "velocity": 0.8818897637795275
        },
        {
          "duration": 0.120000000000001,
          "durationTicks": 24,
          "midi": 64,
          "name": "E4",
          "ticks": 5616,
          "time": 28.08,
          "velocity": 0.5669291338582677
        },
        {
          "duration": 0.120000000000001,
          "durationTicks": 24,
          "midi": 77,
          "name": "F5",
          "ticks": 5616,
          "time": 28.08,
          "velocity": 0.28346456692913385
        },
        {
          "duration": 0.120000000000001,
          "durationTicks": 24,
          "midi": 63,
          "name": "D#4",
          "ticks": 5640,
          "time": 28.2,
          "velocity": 0.5669291338582677
        },
        {
          "duration": 0.120000000000001,
          "durationTicks": 24,
          "midi": 42,
          "name": "F#2",
          "ticks": 5640,
          "time": 28.2,
          "velocity": 0.8818897637795275
        },
        {
          "duration": 0.11999999999999744,
          "durationTicks": 24,
          "midi": 46,
          "name": "A#2",
          "ticks": 5664,
          "time": 28.32,
          "velocity": 0.6299212598425197
        },
        {
          "duration": 0.11999999999999744,
          "durationTicks": 24,
          "midi": 38,
          "name": "D2",
          "ticks": 5664,
          "time": 28.32,
          "velocity": 0.8818897637795275
        },
        {
          "duration": 0.120000000000001,
          "durationTicks": 24,
          "midi": 42,
          "name": "F#2",
          "ticks": 5712,
          "time": 28.56,
          "velocity": 0.8818897637795275
        },
        {
          "duration": 0.11999999999999744,
          "durationTicks": 24,
          "midi": 42,
          "name": "F#2",
          "ticks": 5736,
          "time": 28.68,
          "velocity": 0.8818897637795275
        },
        {
          "duration": 0.120000000000001,
          "durationTicks": 24,
          "midi": 77,
          "name": "F5",
          "ticks": 5760,
          "time": 28.799999999999997,
          "velocity": 0.7244094488188977
        },
        {
          "duration": 0.120000000000001,
          "durationTicks": 24,
          "midi": 42,
          "name": "F#2",
          "ticks": 5760,
          "time": 28.799999999999997,
          "velocity": 0.8818897637795275
        },
        {
          "duration": 0.120000000000001,
          "durationTicks": 24,
          "midi": 36,
          "name": "C2",
          "ticks": 5760,
          "time": 28.799999999999997,
          "velocity": 0.7874015748031497
        },
        {
          "duration": 0.120000000000001,
          "durationTicks": 24,
          "midi": 77,
          "name": "F5",
          "ticks": 5784,
          "time": 28.919999999999998,
          "velocity": 0.47244094488188976
        },
        {
          "duration": 0.120000000000001,
          "durationTicks": 24,
          "midi": 42,
          "name": "F#2",
          "ticks": 5808,
          "time": 29.04,
          "velocity": 0.8818897637795275
        },
        {
          "duration": 0.120000000000001,
          "durationTicks": 24,
          "midi": 77,
          "name": "F5",
          "ticks": 5808,
          "time": 29.04,
          "velocity": 0.28346456692913385
        },
        {
          "duration": 0.11999999999999744,
          "durationTicks": 24,
          "midi": 42,
          "name": "F#2",
          "ticks": 5832,
          "time": 29.16,
          "velocity": 0.8818897637795275
        },
        {
          "duration": 0.120000000000001,
          "durationTicks": 24,
          "midi": 38,
          "name": "D2",
          "ticks": 5856,
          "time": 29.279999999999998,
          "velocity": 0.8818897637795275
        },
        {
          "duration": 0.120000000000001,
          "durationTicks": 24,
          "midi": 46,
          "name": "A#2",
          "ticks": 5856,
          "time": 29.279999999999998,
          "velocity": 0.6299212598425197
        },
        {
          "duration": 0.120000000000001,
          "durationTicks": 24,
          "midi": 42,
          "name": "F#2",
          "ticks": 5904,
          "time": 29.52,
          "velocity": 0.8818897637795275
        },
        {
          "duration": 0.11999999999999744,
          "durationTicks": 24,
          "midi": 42,
          "name": "F#2",
          "ticks": 5928,
          "time": 29.64,
          "velocity": 0.8818897637795275
        },
        {
          "duration": 0.120000000000001,
          "durationTicks": 24,
          "midi": 77,
          "name": "F5",
          "ticks": 5952,
          "time": 29.759999999999998,
          "velocity": 0.7244094488188977
        },
        {
          "duration": 0.120000000000001,
          "durationTicks": 24,
          "midi": 42,
          "name": "F#2",
          "ticks": 5952,
          "time": 29.759999999999998,
          "velocity": 0.8818897637795275
        },
        {
          "duration": 0.120000000000001,
          "durationTicks": 24,
          "midi": 36,
          "name": "C2",
          "ticks": 5952,
          "time": 29.759999999999998,
          "velocity": 0.7874015748031497
        },
        {
          "duration": 0.120000000000001,
          "durationTicks": 24,
          "midi": 77,
          "name": "F5",
          "ticks": 5976,
          "time": 29.88,
          "velocity": 0.47244094488188976
        },
        {
          "duration": 0.11999999999999744,
          "durationTicks": 24,
          "midi": 77,
          "name": "F5",
          "ticks": 6000,
          "time": 30,
          "velocity": 0.28346456692913385
        },
        {
          "duration": 0.11999999999999744,
          "durationTicks": 24,
          "midi": 42,
          "name": "F#2",
          "ticks": 6000,
          "time": 30,
          "velocity": 0.8818897637795275
        },
        {
          "duration": 0.11999999999999744,
          "durationTicks": 24,
          "midi": 64,
          "name": "E4",
          "ticks": 6000,
          "time": 30,
          "velocity": 0.5669291338582677
        },
        {
          "duration": 0.120000000000001,
          "durationTicks": 24,
          "midi": 63,
          "name": "D#4",
          "ticks": 6024,
          "time": 30.119999999999997,
          "velocity": 0.5669291338582677
        },
        {
          "duration": 0.120000000000001,
          "durationTicks": 24,
          "midi": 42,
          "name": "F#2",
          "ticks": 6024,
          "time": 30.119999999999997,
          "velocity": 0.8818897637795275
        },
        {
          "duration": 0.120000000000001,
          "durationTicks": 24,
          "midi": 38,
          "name": "D2",
          "ticks": 6048,
          "time": 30.24,
          "velocity": 0.8818897637795275
        },
        {
          "duration": 0.120000000000001,
          "durationTicks": 24,
          "midi": 46,
          "name": "A#2",
          "ticks": 6048,
          "time": 30.24,
          "velocity": 0.6299212598425197
        },
        {
          "duration": 0.11999999999999744,
          "durationTicks": 24,
          "midi": 42,
          "name": "F#2",
          "ticks": 6096,
          "time": 30.48,
          "velocity": 0.8818897637795275
        },
        {
          "duration": 0.120000000000001,
          "durationTicks": 24,
          "midi": 42,
          "name": "F#2",
          "ticks": 6120,
          "time": 30.599999999999998,
          "velocity": 0.8818897637795275
        },
        {
          "duration": 0.120000000000001,
          "durationTicks": 24,
          "midi": 77,
          "name": "F5",
          "ticks": 6144,
          "time": 30.72,
          "velocity": 0.7244094488188977
        },
        {
          "duration": 0.120000000000001,
          "durationTicks": 24,
          "midi": 36,
          "name": "C2",
          "ticks": 6144,
          "time": 30.72,
          "velocity": 0.7874015748031497
        },
        {
          "duration": 0.120000000000001,
          "durationTicks": 24,
          "midi": 42,
          "name": "F#2",
          "ticks": 6144,
          "time": 30.72,
          "velocity": 0.8818897637795275
        },
        {
          "duration": 0.11999999999999744,
          "durationTicks": 24,
          "midi": 77,
          "name": "F5",
          "ticks": 6168,
          "time": 30.84,
          "velocity": 0.5354330708661418
        },
        {
          "duration": 0.120000000000001,
          "durationTicks": 24,
          "midi": 42,
          "name": "F#2",
          "ticks": 6192,
          "time": 30.959999999999997,
          "velocity": 0.8818897637795275
        },
        {
          "duration": 0.120000000000001,
          "durationTicks": 24,
          "midi": 77,
          "name": "F5",
          "ticks": 6192,
          "time": 30.959999999999997,
          "velocity": 0.28346456692913385
        },
        {
          "duration": 0.120000000000001,
          "durationTicks": 24,
          "midi": 42,
          "name": "F#2",
          "ticks": 6216,
          "time": 31.08,
          "velocity": 0.8818897637795275
        },
        {
          "duration": 0.120000000000001,
          "durationTicks": 24,
          "midi": 46,
          "name": "A#2",
          "ticks": 6240,
          "time": 31.2,
          "velocity": 0.6299212598425197
        },
        {
          "duration": 0.120000000000001,
          "durationTicks": 24,
          "midi": 38,
          "name": "D2",
          "ticks": 6240,
          "time": 31.2,
          "velocity": 0.8818897637795275
        },
        {
          "duration": 0.120000000000001,
          "durationTicks": 24,
          "midi": 42,
          "name": "F#2",
          "ticks": 6288,
          "time": 31.439999999999998,
          "velocity": 0.8818897637795275
        },
        {
          "duration": 0.120000000000001,
          "durationTicks": 24,
          "midi": 42,
          "name": "F#2",
          "ticks": 6312,
          "time": 31.56,
          "velocity": 0.8818897637795275
        },
        {
          "duration": 0.11999999999999744,
          "durationTicks": 24,
          "midi": 77,
          "name": "F5",
          "ticks": 6336,
          "time": 31.68,
          "velocity": 0.7244094488188977
        },
        {
          "duration": 0.11999999999999744,
          "durationTicks": 24,
          "midi": 36,
          "name": "C2",
          "ticks": 6336,
          "time": 31.68,
          "velocity": 0.7874015748031497
        },
        {
          "duration": 0.11999999999999744,
          "durationTicks": 24,
          "midi": 42,
          "name": "F#2",
          "ticks": 6336,
          "time": 31.68,
          "velocity": 0.8818897637795275
        },
        {
          "duration": 0.120000000000001,
          "durationTicks": 24,
          "midi": 77,
          "name": "F5",
          "ticks": 6360,
          "time": 31.799999999999997,
          "velocity": 0.47244094488188976
        },
        {
          "duration": 0.120000000000001,
          "durationTicks": 24,
          "midi": 42,
          "name": "F#2",
          "ticks": 6384,
          "time": 31.919999999999998,
          "velocity": 0.8818897637795275
        },
        {
          "duration": 0.120000000000001,
          "durationTicks": 24,
          "midi": 64,
          "name": "E4",
          "ticks": 6384,
          "time": 31.919999999999998,
          "velocity": 0.5669291338582677
        },
        {
          "duration": 0.120000000000001,
          "durationTicks": 24,
          "midi": 77,
          "name": "F5",
          "ticks": 6384,
          "time": 31.919999999999998,
          "velocity": 0.28346456692913385
        },
        {
          "duration": 0.11999999999999744,
          "durationTicks": 24,
          "midi": 63,
          "name": "D#4",
          "ticks": 6408,
          "time": 32.04,
          "velocity": 0.5669291338582677
        },
        {
          "duration": 0.11999999999999744,
          "durationTicks": 24,
          "midi": 42,
          "name": "F#2",
          "ticks": 6408,
          "time": 32.04,
          "velocity": 0.8818897637795275
        },
        {
          "duration": 0.12000000000000455,
          "durationTicks": 24,
          "midi": 46,
          "name": "A#2",
          "ticks": 6432,
          "time": 32.16,
          "velocity": 0.6299212598425197
        },
        {
          "duration": 0.12000000000000455,
          "durationTicks": 24,
          "midi": 38,
          "name": "D2",
          "ticks": 6432,
          "time": 32.16,
          "velocity": 0.8818897637795275
        },
        {
          "duration": 0.11999999999999744,
          "durationTicks": 24,
          "midi": 42,
          "name": "F#2",
          "ticks": 6480,
          "time": 32.4,
          "velocity": 0.8818897637795275
        },
        {
          "duration": 0.12000000000000455,
          "durationTicks": 24,
          "midi": 42,
          "name": "F#2",
          "ticks": 6504,
          "time": 32.519999999999996,
          "velocity": 0.8818897637795275
        },
        {
          "duration": 0.11999999999999744,
          "durationTicks": 24,
          "midi": 36,
          "name": "C2",
          "ticks": 6528,
          "time": 32.64,
          "velocity": 0.7874015748031497
        },
        {
          "duration": 0.11999999999999744,
          "durationTicks": 24,
          "midi": 42,
          "name": "F#2",
          "ticks": 6528,
          "time": 32.64,
          "velocity": 0.8818897637795275
        },
        {
          "duration": 0.11999999999999744,
          "durationTicks": 24,
          "midi": 77,
          "name": "F5",
          "ticks": 6528,
          "time": 32.64,
          "velocity": 0.7244094488188977
        },
        {
          "duration": 0.11999999999999744,
          "durationTicks": 24,
          "midi": 77,
          "name": "F5",
          "ticks": 6552,
          "time": 32.76,
          "velocity": 0.47244094488188976
        },
        {
          "duration": 0.12000000000000455,
          "durationTicks": 24,
          "midi": 42,
          "name": "F#2",
          "ticks": 6576,
          "time": 32.879999999999995,
          "velocity": 0.8818897637795275
        },
        {
          "duration": 0.12000000000000455,
          "durationTicks": 24,
          "midi": 77,
          "name": "F5",
          "ticks": 6576,
          "time": 32.879999999999995,
          "velocity": 0.28346456692913385
        },
        {
          "duration": 0.11999999999999744,
          "durationTicks": 24,
          "midi": 42,
          "name": "F#2",
          "ticks": 6600,
          "time": 33,
          "velocity": 0.8818897637795275
        },
        {
          "duration": 0.12000000000000455,
          "durationTicks": 24,
          "midi": 38,
          "name": "D2",
          "ticks": 6624,
          "time": 33.12,
          "velocity": 0.8818897637795275
        },
        {
          "duration": 0.12000000000000455,
          "durationTicks": 24,
          "midi": 46,
          "name": "A#2",
          "ticks": 6624,
          "time": 33.12,
          "velocity": 0.6299212598425197
        },
        {
          "duration": 0.11999999999999744,
          "durationTicks": 24,
          "midi": 42,
          "name": "F#2",
          "ticks": 6672,
          "time": 33.36,
          "velocity": 0.8818897637795275
        },
        {
          "duration": 0.12000000000000455,
          "durationTicks": 24,
          "midi": 42,
          "name": "F#2",
          "ticks": 6696,
          "time": 33.48,
          "velocity": 0.8818897637795275
        },
        {
          "duration": 0.11999999999999744,
          "durationTicks": 24,
          "midi": 42,
          "name": "F#2",
          "ticks": 6720,
          "time": 33.6,
          "velocity": 0.8818897637795275
        },
        {
          "duration": 0.11999999999999744,
          "durationTicks": 24,
          "midi": 36,
          "name": "C2",
          "ticks": 6720,
          "time": 33.6,
          "velocity": 0.7874015748031497
        },
        {
          "duration": 0.11999999999999744,
          "durationTicks": 24,
          "midi": 77,
          "name": "F5",
          "ticks": 6720,
          "time": 33.6,
          "velocity": 0.7244094488188977
        },
        {
          "duration": 0.11999999999999744,
          "durationTicks": 24,
          "midi": 77,
          "name": "F5",
          "ticks": 6744,
          "time": 33.72,
          "velocity": 0.47244094488188976
        },
        {
          "duration": 0.12000000000000455,
          "durationTicks": 24,
          "midi": 77,
          "name": "F5",
          "ticks": 6768,
          "time": 33.839999999999996,
          "velocity": 0.28346456692913385
        },
        {
          "duration": 0.12000000000000455,
          "durationTicks": 24,
          "midi": 42,
          "name": "F#2",
          "ticks": 6768,
          "time": 33.839999999999996,
          "velocity": 0.8818897637795275
        },
        {
          "duration": 0.12000000000000455,
          "durationTicks": 24,
          "midi": 64,
          "name": "E4",
          "ticks": 6768,
          "time": 33.839999999999996,
          "velocity": 0.5669291338582677
        },
        {
          "duration": 0.11999999999999744,
          "durationTicks": 24,
          "midi": 63,
          "name": "D#4",
          "ticks": 6792,
          "time": 33.96,
          "velocity": 0.5669291338582677
        },
        {
          "duration": 0.11999999999999744,
          "durationTicks": 24,
          "midi": 42,
          "name": "F#2",
          "ticks": 6792,
          "time": 33.96,
          "velocity": 0.8818897637795275
        },
        {
          "duration": 0.11999999999999744,
          "durationTicks": 24,
          "midi": 38,
          "name": "D2",
          "ticks": 6816,
          "time": 34.08,
          "velocity": 0.8818897637795275
        },
        {
          "duration": 0.11999999999999744,
          "durationTicks": 24,
          "midi": 46,
          "name": "A#2",
          "ticks": 6816,
          "time": 34.08,
          "velocity": 0.6299212598425197
        },
        {
          "duration": 0.11999999999999744,
          "durationTicks": 24,
          "midi": 42,
          "name": "F#2",
          "ticks": 6864,
          "time": 34.32,
          "velocity": 0.8818897637795275
        },
        {
          "duration": 0.12000000000000455,
          "durationTicks": 24,
          "midi": 42,
          "name": "F#2",
          "ticks": 6888,
          "time": 34.44,
          "velocity": 0.8818897637795275
        },
        {
          "duration": 0.11999999999999744,
          "durationTicks": 24,
          "midi": 77,
          "name": "F5",
          "ticks": 6912,
          "time": 34.56,
          "velocity": 0.7244094488188977
        },
        {
          "duration": 0.11999999999999744,
          "durationTicks": 24,
          "midi": 42,
          "name": "F#2",
          "ticks": 6912,
          "time": 34.56,
          "velocity": 0.8818897637795275
        },
        {
          "duration": 0.11999999999999744,
          "durationTicks": 24,
          "midi": 36,
          "name": "C2",
          "ticks": 6912,
          "time": 34.56,
          "velocity": 0.7874015748031497
        },
        {
          "duration": 0.11999999999999744,
          "durationTicks": 24,
          "midi": 77,
          "name": "F5",
          "ticks": 6936,
          "time": 34.68,
          "velocity": 0.5354330708661418
        },
        {
          "duration": 0.12000000000000455,
          "durationTicks": 24,
          "midi": 77,
          "name": "F5",
          "ticks": 6960,
          "time": 34.8,
          "velocity": 0.28346456692913385
        },
        {
          "duration": 0.12000000000000455,
          "durationTicks": 24,
          "midi": 42,
          "name": "F#2",
          "ticks": 6960,
          "time": 34.8,
          "velocity": 0.8818897637795275
        },
        {
          "duration": 0.11999999999999744,
          "durationTicks": 24,
          "midi": 42,
          "name": "F#2",
          "ticks": 6984,
          "time": 34.92,
          "velocity": 0.8818897637795275
        },
        {
          "duration": 0.11999999999999744,
          "durationTicks": 24,
          "midi": 38,
          "name": "D2",
          "ticks": 7008,
          "time": 35.04,
          "velocity": 0.8818897637795275
        },
        {
          "duration": 0.11999999999999744,
          "durationTicks": 24,
          "midi": 46,
          "name": "A#2",
          "ticks": 7008,
          "time": 35.04,
          "velocity": 0.6299212598425197
        },
        {
          "duration": 0.11999999999999744,
          "durationTicks": 24,
          "midi": 42,
          "name": "F#2",
          "ticks": 7056,
          "time": 35.28,
          "velocity": 0.8818897637795275
        },
        {
          "duration": 0.11999999999999744,
          "durationTicks": 24,
          "midi": 42,
          "name": "F#2",
          "ticks": 7080,
          "time": 35.4,
          "velocity": 0.8818897637795275
        },
        {
          "duration": 0.12000000000000455,
          "durationTicks": 24,
          "midi": 77,
          "name": "F5",
          "ticks": 7104,
          "time": 35.519999999999996,
          "velocity": 0.7244094488188977
        },
        {
          "duration": 0.12000000000000455,
          "durationTicks": 24,
          "midi": 42,
          "name": "F#2",
          "ticks": 7104,
          "time": 35.519999999999996,
          "velocity": 0.8818897637795275
        },
        {
          "duration": 0.12000000000000455,
          "durationTicks": 24,
          "midi": 36,
          "name": "C2",
          "ticks": 7104,
          "time": 35.519999999999996,
          "velocity": 0.7874015748031497
        },
        {
          "duration": 0.11999999999999744,
          "durationTicks": 24,
          "midi": 77,
          "name": "F5",
          "ticks": 7128,
          "time": 35.64,
          "velocity": 0.47244094488188976
        },
        {
          "duration": 0.11999999999999744,
          "durationTicks": 24,
          "midi": 77,
          "name": "F5",
          "ticks": 7152,
          "time": 35.76,
          "velocity": 0.28346456692913385
        },
        {
          "duration": 0.11999999999999744,
          "durationTicks": 24,
          "midi": 64,
          "name": "E4",
          "ticks": 7152,
          "time": 35.76,
          "velocity": 0.5669291338582677
        },
        {
          "duration": 0.11999999999999744,
          "durationTicks": 24,
          "midi": 42,
          "name": "F#2",
          "ticks": 7152,
          "time": 35.76,
          "velocity": 0.8818897637795275
        },
        {
          "duration": 0.12000000000000455,
          "durationTicks": 24,
          "midi": 63,
          "name": "D#4",
          "ticks": 7176,
          "time": 35.879999999999995,
          "velocity": 0.5669291338582677
        },
        {
          "duration": 0.12000000000000455,
          "durationTicks": 24,
          "midi": 42,
          "name": "F#2",
          "ticks": 7176,
          "time": 35.879999999999995,
          "velocity": 0.8818897637795275
        },
        {
          "duration": 0.11999999999999744,
          "durationTicks": 24,
          "midi": 46,
          "name": "A#2",
          "ticks": 7200,
          "time": 36,
          "velocity": 0.6299212598425197
        },
        {
          "duration": 0.11999999999999744,
          "durationTicks": 24,
          "midi": 38,
          "name": "D2",
          "ticks": 7200,
          "time": 36,
          "velocity": 0.8818897637795275
        },
        {
          "duration": 0.11999999999999744,
          "durationTicks": 24,
          "midi": 42,
          "name": "F#2",
          "ticks": 7248,
          "time": 36.24,
          "velocity": 0.8818897637795275
        },
        {
          "duration": 0.11999999999999744,
          "durationTicks": 24,
          "midi": 42,
          "name": "F#2",
          "ticks": 7272,
          "time": 36.36,
          "velocity": 0.8818897637795275
        },
        {
          "duration": 0.12000000000000455,
          "durationTicks": 24,
          "midi": 77,
          "name": "F5",
          "ticks": 7296,
          "time": 36.48,
          "velocity": 0.7244094488188977
        },
        {
          "duration": 0.12000000000000455,
          "durationTicks": 24,
          "midi": 42,
          "name": "F#2",
          "ticks": 7296,
          "time": 36.48,
          "velocity": 0.8818897637795275
        },
        {
          "duration": 0.12000000000000455,
          "durationTicks": 24,
          "midi": 36,
          "name": "C2",
          "ticks": 7296,
          "time": 36.48,
          "velocity": 0.7874015748031497
        },
        {
          "duration": 0.11999999999999744,
          "durationTicks": 24,
          "midi": 77,
          "name": "F5",
          "ticks": 7320,
          "time": 36.6,
          "velocity": 0.47244094488188976
        },
        {
          "duration": 0.11999999999999744,
          "durationTicks": 24,
          "midi": 77,
          "name": "F5",
          "ticks": 7344,
          "time": 36.72,
          "velocity": 0.28346456692913385
        },
        {
          "duration": 0.11999999999999744,
          "durationTicks": 24,
          "midi": 42,
          "name": "F#2",
          "ticks": 7344,
          "time": 36.72,
          "velocity": 0.8818897637795275
        },
        {
          "duration": 0.12000000000000455,
          "durationTicks": 24,
          "midi": 42,
          "name": "F#2",
          "ticks": 7368,
          "time": 36.839999999999996,
          "velocity": 0.8818897637795275
        },
        {
          "duration": 0.11999999999999744,
          "durationTicks": 24,
          "midi": 38,
          "name": "D2",
          "ticks": 7392,
          "time": 36.96,
          "velocity": 0.8818897637795275
        },
        {
          "duration": 0.11999999999999744,
          "durationTicks": 24,
          "midi": 46,
          "name": "A#2",
          "ticks": 7392,
          "time": 36.96,
          "velocity": 0.6299212598425197
        },
        {
          "duration": 0.12000000000000455,
          "durationTicks": 24,
          "midi": 42,
          "name": "F#2",
          "ticks": 7440,
          "time": 37.199999999999996,
          "velocity": 0.8818897637795275
        },
        {
          "duration": 0.11999999999999744,
          "durationTicks": 24,
          "midi": 42,
          "name": "F#2",
          "ticks": 7464,
          "time": 37.32,
          "velocity": 0.8818897637795275
        },
        {
          "duration": 0.11999999999999744,
          "durationTicks": 24,
          "midi": 77,
          "name": "F5",
          "ticks": 7488,
          "time": 37.44,
          "velocity": 0.7244094488188977
        },
        {
          "duration": 0.11999999999999744,
          "durationTicks": 24,
          "midi": 36,
          "name": "C2",
          "ticks": 7488,
          "time": 37.44,
          "velocity": 0.7874015748031497
        },
        {
          "duration": 0.11999999999999744,
          "durationTicks": 24,
          "midi": 42,
          "name": "F#2",
          "ticks": 7488,
          "time": 37.44,
          "velocity": 0.8818897637795275
        },
        {
          "duration": 0.12000000000000455,
          "durationTicks": 24,
          "midi": 77,
          "name": "F5",
          "ticks": 7512,
          "time": 37.559999999999995,
          "velocity": 0.47244094488188976
        },
        {
          "duration": 0.11999999999999744,
          "durationTicks": 24,
          "midi": 77,
          "name": "F5",
          "ticks": 7536,
          "time": 37.68,
          "velocity": 0.28346456692913385
        },
        {
          "duration": 0.11999999999999744,
          "durationTicks": 24,
          "midi": 64,
          "name": "E4",
          "ticks": 7536,
          "time": 37.68,
          "velocity": 0.5669291338582677
        },
        {
          "duration": 0.11999999999999744,
          "durationTicks": 24,
          "midi": 42,
          "name": "F#2",
          "ticks": 7536,
          "time": 37.68,
          "velocity": 0.8818897637795275
        },
        {
          "duration": 0.12000000000000455,
          "durationTicks": 24,
          "midi": 63,
          "name": "D#4",
          "ticks": 7560,
          "time": 37.8,
          "velocity": 0.5669291338582677
        },
        {
          "duration": 0.12000000000000455,
          "durationTicks": 24,
          "midi": 42,
          "name": "F#2",
          "ticks": 7560,
          "time": 37.8,
          "velocity": 0.8818897637795275
        },
        {
          "duration": 0.11999999999999744,
          "durationTicks": 24,
          "midi": 38,
          "name": "D2",
          "ticks": 7584,
          "time": 37.92,
          "velocity": 0.8818897637795275
        },
        {
          "duration": 0.11999999999999744,
          "durationTicks": 24,
          "midi": 46,
          "name": "A#2",
          "ticks": 7584,
          "time": 37.92,
          "velocity": 0.6299212598425197
        },
        {
          "duration": 0.12000000000000455,
          "durationTicks": 24,
          "midi": 42,
          "name": "F#2",
          "ticks": 7632,
          "time": 38.16,
          "velocity": 0.8818897637795275
        },
        {
          "duration": 0.11999999999999744,
          "durationTicks": 24,
          "midi": 42,
          "name": "F#2",
          "ticks": 7656,
          "time": 38.28,
          "velocity": 0.8818897637795275
        },
        {
          "duration": 0.11999999999999744,
          "durationTicks": 24,
          "midi": 77,
          "name": "F5",
          "ticks": 7680,
          "time": 38.4,
          "velocity": 0.7244094488188977
        },
        {
          "duration": 0.11999999999999744,
          "durationTicks": 24,
          "midi": 42,
          "name": "F#2",
          "ticks": 7680,
          "time": 38.4,
          "velocity": 0.8818897637795275
        },
        {
          "duration": 0.11999999999999744,
          "durationTicks": 24,
          "midi": 36,
          "name": "C2",
          "ticks": 7680,
          "time": 38.4,
          "velocity": 0.7874015748031497
        },
        {
          "duration": 0.12000000000000455,
          "durationTicks": 24,
          "midi": 77,
          "name": "F5",
          "ticks": 7704,
          "time": 38.519999999999996,
          "velocity": 0.47244094488188976
        },
        {
          "duration": 0.11999999999999744,
          "durationTicks": 24,
          "midi": 77,
          "name": "F5",
          "ticks": 7728,
          "time": 38.64,
          "velocity": 0.28346456692913385
        },
        {
          "duration": 0.11999999999999744,
          "durationTicks": 24,
          "midi": 42,
          "name": "F#2",
          "ticks": 7728,
          "time": 38.64,
          "velocity": 0.8818897637795275
        },
        {
          "duration": 0.11999999999999744,
          "durationTicks": 24,
          "midi": 42,
          "name": "F#2",
          "ticks": 7752,
          "time": 38.76,
          "velocity": 0.8818897637795275
        },
        {
          "duration": 0.12000000000000455,
          "durationTicks": 24,
          "midi": 38,
          "name": "D2",
          "ticks": 7776,
          "time": 38.879999999999995,
          "velocity": 0.8818897637795275
        },
        {
          "duration": 0.12000000000000455,
          "durationTicks": 24,
          "midi": 46,
          "name": "A#2",
          "ticks": 7776,
          "time": 38.879999999999995,
          "velocity": 0.6299212598425197
        },
        {
          "duration": 0.12000000000000455,
          "durationTicks": 24,
          "midi": 42,
          "name": "F#2",
          "ticks": 7824,
          "time": 39.12,
          "velocity": 0.8818897637795275
        },
        {
          "duration": 0.11999999999999744,
          "durationTicks": 24,
          "midi": 42,
          "name": "F#2",
          "ticks": 7848,
          "time": 39.24,
          "velocity": 0.8818897637795275
        },
        {
          "duration": 0.11999999999999744,
          "durationTicks": 24,
          "midi": 77,
          "name": "F5",
          "ticks": 7872,
          "time": 39.36,
          "velocity": 0.7244094488188977
        },
        {
          "duration": 0.11999999999999744,
          "durationTicks": 24,
          "midi": 42,
          "name": "F#2",
          "ticks": 7872,
          "time": 39.36,
          "velocity": 0.8818897637795275
        },
        {
          "duration": 0.11999999999999744,
          "durationTicks": 24,
          "midi": 36,
          "name": "C2",
          "ticks": 7872,
          "time": 39.36,
          "velocity": 0.7874015748031497
        },
        {
          "duration": 0.12000000000000455,
          "durationTicks": 24,
          "midi": 77,
          "name": "F5",
          "ticks": 7896,
          "time": 39.48,
          "velocity": 0.47244094488188976
        },
        {
          "duration": 0.11999999999999744,
          "durationTicks": 24,
          "midi": 77,
          "name": "F5",
          "ticks": 7920,
          "time": 39.6,
          "velocity": 0.28346456692913385
        },
        {
          "duration": 0.11999999999999744,
          "durationTicks": 24,
          "midi": 42,
          "name": "F#2",
          "ticks": 7920,
          "time": 39.6,
          "velocity": 0.8818897637795275
        },
        {
          "duration": 0.11999999999999744,
          "durationTicks": 24,
          "midi": 64,
          "name": "E4",
          "ticks": 7920,
          "time": 39.6,
          "velocity": 0.5669291338582677
        },
        {
          "duration": 0.11999999999999744,
          "durationTicks": 24,
          "midi": 42,
          "name": "F#2",
          "ticks": 7944,
          "time": 39.72,
          "velocity": 0.8818897637795275
        },
        {
          "duration": 0.11999999999999744,
          "durationTicks": 24,
          "midi": 63,
          "name": "D#4",
          "ticks": 7944,
          "time": 39.72,
          "velocity": 0.5669291338582677
        },
        {
          "duration": 0.12000000000000455,
          "durationTicks": 24,
          "midi": 38,
          "name": "D2",
          "ticks": 7968,
          "time": 39.839999999999996,
          "velocity": 0.8818897637795275
        },
        {
          "duration": 0.12000000000000455,
          "durationTicks": 24,
          "midi": 46,
          "name": "A#2",
          "ticks": 7968,
          "time": 39.839999999999996,
          "velocity": 0.6299212598425197
        },
        {
          "duration": 0.11999999999999744,
          "durationTicks": 24,
          "midi": 42,
          "name": "F#2",
          "ticks": 8016,
          "time": 40.08,
          "velocity": 0.8818897637795275
        },
        {
          "duration": 0.12000000000000455,
          "durationTicks": 24,
          "midi": 42,
          "name": "F#2",
          "ticks": 8040,
          "time": 40.199999999999996,
          "velocity": 0.8818897637795275
        },
        {
          "duration": 0.11999999999999744,
          "durationTicks": 24,
          "midi": 77,
          "name": "F5",
          "ticks": 8064,
          "time": 40.32,
          "velocity": 0.7244094488188977
        },
        {
          "duration": 0.11999999999999744,
          "durationTicks": 24,
          "midi": 42,
          "name": "F#2",
          "ticks": 8064,
          "time": 40.32,
          "velocity": 0.8818897637795275
        },
        {
          "duration": 0.11999999999999744,
          "durationTicks": 24,
          "midi": 36,
          "name": "C2",
          "ticks": 8064,
          "time": 40.32,
          "velocity": 0.7874015748031497
        },
        {
          "duration": 0.11999999999999744,
          "durationTicks": 24,
          "midi": 77,
          "name": "F5",
          "ticks": 8088,
          "time": 40.44,
          "velocity": 0.47244094488188976
        },
        {
          "duration": 0.12000000000000455,
          "durationTicks": 24,
          "midi": 77,
          "name": "F5",
          "ticks": 8112,
          "time": 40.559999999999995,
          "velocity": 0.28346456692913385
        },
        {
          "duration": 0.12000000000000455,
          "durationTicks": 24,
          "midi": 42,
          "name": "F#2",
          "ticks": 8112,
          "time": 40.559999999999995,
          "velocity": 0.8818897637795275
        },
        {
          "duration": 0.11999999999999744,
          "durationTicks": 24,
          "midi": 42,
          "name": "F#2",
          "ticks": 8136,
          "time": 40.68,
          "velocity": 0.8818897637795275
        },
        {
          "duration": 0.12000000000000455,
          "durationTicks": 24,
          "midi": 38,
          "name": "D2",
          "ticks": 8160,
          "time": 40.8,
          "velocity": 0.8818897637795275
        },
        {
          "duration": 0.12000000000000455,
          "durationTicks": 24,
          "midi": 46,
          "name": "A#2",
          "ticks": 8160,
          "time": 40.8,
          "velocity": 0.6299212598425197
        },
        {
          "duration": 0.11999999999999744,
          "durationTicks": 24,
          "midi": 42,
          "name": "F#2",
          "ticks": 8208,
          "time": 41.04,
          "velocity": 0.8818897637795275
        },
        {
          "duration": 0.12000000000000455,
          "durationTicks": 24,
          "midi": 42,
          "name": "F#2",
          "ticks": 8232,
          "time": 41.16,
          "velocity": 0.8818897637795275
        },
        {
          "duration": 0.11999999999999744,
          "durationTicks": 24,
          "midi": 77,
          "name": "F5",
          "ticks": 8256,
          "time": 41.28,
          "velocity": 0.7244094488188977
        },
        {
          "duration": 0.11999999999999744,
          "durationTicks": 24,
          "midi": 42,
          "name": "F#2",
          "ticks": 8256,
          "time": 41.28,
          "velocity": 0.8818897637795275
        },
        {
          "duration": 0.11999999999999744,
          "durationTicks": 24,
          "midi": 36,
          "name": "C2",
          "ticks": 8256,
          "time": 41.28,
          "velocity": 0.7874015748031497
        },
        {
          "duration": 0.11999999999999744,
          "durationTicks": 24,
          "midi": 77,
          "name": "F5",
          "ticks": 8280,
          "time": 41.4,
          "velocity": 0.47244094488188976
        },
        {
          "duration": 0.12000000000000455,
          "durationTicks": 24,
          "midi": 77,
          "name": "F5",
          "ticks": 8304,
          "time": 41.519999999999996,
          "velocity": 0.28346456692913385
        },
        {
          "duration": 0.12000000000000455,
          "durationTicks": 24,
          "midi": 42,
          "name": "F#2",
          "ticks": 8304,
          "time": 41.519999999999996,
          "velocity": 0.8818897637795275
        },
        {
          "duration": 0.12000000000000455,
          "durationTicks": 24,
          "midi": 64,
          "name": "E4",
          "ticks": 8304,
          "time": 41.519999999999996,
          "velocity": 0.5669291338582677
        },
        {
          "duration": 0.11999999999999744,
          "durationTicks": 24,
          "midi": 42,
          "name": "F#2",
          "ticks": 8328,
          "time": 41.64,
          "velocity": 0.8818897637795275
        },
        {
          "duration": 0.11999999999999744,
          "durationTicks": 24,
          "midi": 63,
          "name": "D#4",
          "ticks": 8328,
          "time": 41.64,
          "velocity": 0.5669291338582677
        },
        {
          "duration": 0.11999999999999744,
          "durationTicks": 24,
          "midi": 46,
          "name": "A#2",
          "ticks": 8352,
          "time": 41.76,
          "velocity": 0.6299212598425197
        },
        {
          "duration": 0.11999999999999744,
          "durationTicks": 24,
          "midi": 38,
          "name": "D2",
          "ticks": 8352,
          "time": 41.76,
          "velocity": 0.8818897637795275
        },
        {
          "duration": 0.11999999999999744,
          "durationTicks": 24,
          "midi": 42,
          "name": "F#2",
          "ticks": 8400,
          "time": 42,
          "velocity": 0.8818897637795275
        },
        {
          "duration": 0.11999999999999744,
          "durationTicks": 24,
          "midi": 42,
          "name": "F#2",
          "ticks": 8424,
          "time": 42.12,
          "velocity": 0.8818897637795275
        },
        {
          "duration": 0.12000000000000455,
          "durationTicks": 24,
          "midi": 77,
          "name": "F5",
          "ticks": 8448,
          "time": 42.239999999999995,
          "velocity": 0.7244094488188977
        },
        {
          "duration": 0.12000000000000455,
          "durationTicks": 24,
          "midi": 36,
          "name": "C2",
          "ticks": 8448,
          "time": 42.239999999999995,
          "velocity": 0.7874015748031497
        },
        {
          "duration": 0.12000000000000455,
          "durationTicks": 24,
          "midi": 42,
          "name": "F#2",
          "ticks": 8448,
          "time": 42.239999999999995,
          "velocity": 0.8818897637795275
        },
        {
          "duration": 0.11999999999999744,
          "durationTicks": 24,
          "midi": 77,
          "name": "F5",
          "ticks": 8472,
          "time": 42.36,
          "velocity": 0.47244094488188976
        },
        {
          "duration": 0.12000000000000455,
          "durationTicks": 24,
          "midi": 77,
          "name": "F5",
          "ticks": 8496,
          "time": 42.48,
          "velocity": 0.28346456692913385
        },
        {
          "duration": 0.12000000000000455,
          "durationTicks": 24,
          "midi": 42,
          "name": "F#2",
          "ticks": 8496,
          "time": 42.48,
          "velocity": 0.8818897637795275
        },
        {
          "duration": 0.11999999999999744,
          "durationTicks": 24,
          "midi": 42,
          "name": "F#2",
          "ticks": 8520,
          "time": 42.6,
          "velocity": 0.8818897637795275
        },
        {
          "duration": 0.11999999999999744,
          "durationTicks": 24,
          "midi": 38,
          "name": "D2",
          "ticks": 8544,
          "time": 42.72,
          "velocity": 0.8818897637795275
        },
        {
          "duration": 0.11999999999999744,
          "durationTicks": 24,
          "midi": 46,
          "name": "A#2",
          "ticks": 8544,
          "time": 42.72,
          "velocity": 0.6299212598425197
        },
        {
          "duration": 0.11999999999999744,
          "durationTicks": 24,
          "midi": 42,
          "name": "F#2",
          "ticks": 8592,
          "time": 42.96,
          "velocity": 0.8818897637795275
        },
        {
          "duration": 0.11999999999999744,
          "durationTicks": 24,
          "midi": 42,
          "name": "F#2",
          "ticks": 8616,
          "time": 43.08,
          "velocity": 0.8818897637795275
        },
        {
          "duration": 0.12000000000000455,
          "durationTicks": 24,
          "midi": 77,
          "name": "F5",
          "ticks": 8640,
          "time": 43.199999999999996,
          "velocity": 0.7244094488188977
        },
        {
          "duration": 0.12000000000000455,
          "durationTicks": 24,
          "midi": 42,
          "name": "F#2",
          "ticks": 8640,
          "time": 43.199999999999996,
          "velocity": 0.8818897637795275
        },
        {
          "duration": 0.12000000000000455,
          "durationTicks": 24,
          "midi": 36,
          "name": "C2",
          "ticks": 8640,
          "time": 43.199999999999996,
          "velocity": 0.7874015748031497
        },
        {
          "duration": 0.11999999999999744,
          "durationTicks": 24,
          "midi": 77,
          "name": "F5",
          "ticks": 8664,
          "time": 43.32,
          "velocity": 0.47244094488188976
        },
        {
          "duration": 0.11999999999999744,
          "durationTicks": 24,
          "midi": 77,
          "name": "F5",
          "ticks": 8688,
          "time": 43.44,
          "velocity": 0.28346456692913385
        },
        {
          "duration": 0.11999999999999744,
          "durationTicks": 24,
          "midi": 64,
          "name": "E4",
          "ticks": 8688,
          "time": 43.44,
          "velocity": 0.5669291338582677
        },
        {
          "duration": 0.11999999999999744,
          "durationTicks": 24,
          "midi": 42,
          "name": "F#2",
          "ticks": 8688,
          "time": 43.44,
          "velocity": 0.8818897637795275
        },
        {
          "duration": 0.12000000000000455,
          "durationTicks": 24,
          "midi": 63,
          "name": "D#4",
          "ticks": 8712,
          "time": 43.559999999999995,
          "velocity": 0.5669291338582677
        },
        {
          "duration": 0.12000000000000455,
          "durationTicks": 24,
          "midi": 42,
          "name": "F#2",
          "ticks": 8712,
          "time": 43.559999999999995,
          "velocity": 0.8818897637795275
        },
        {
          "duration": 0.11999999999999744,
          "durationTicks": 24,
          "midi": 46,
          "name": "A#2",
          "ticks": 8736,
          "time": 43.68,
          "velocity": 0.6299212598425197
        },
        {
          "duration": 0.11999999999999744,
          "durationTicks": 24,
          "midi": 38,
          "name": "D2",
          "ticks": 8736,
          "time": 43.68,
          "velocity": 0.8818897637795275
        },
        {
          "duration": 0.11999999999999744,
          "durationTicks": 24,
          "midi": 42,
          "name": "F#2",
          "ticks": 8784,
          "time": 43.92,
          "velocity": 0.8818897637795275
        },
        {
          "duration": 0.11999999999999744,
          "durationTicks": 24,
          "midi": 42,
          "name": "F#2",
          "ticks": 8808,
          "time": 44.04,
          "velocity": 0.8818897637795275
        },
        {
          "duration": 0.12000000000000455,
          "durationTicks": 24,
          "midi": 77,
          "name": "F5",
          "ticks": 8832,
          "time": 44.16,
          "velocity": 0.7244094488188977
        },
        {
          "duration": 0.12000000000000455,
          "durationTicks": 24,
          "midi": 42,
          "name": "F#2",
          "ticks": 8832,
          "time": 44.16,
          "velocity": 0.8818897637795275
        },
        {
          "duration": 0.12000000000000455,
          "durationTicks": 24,
          "midi": 36,
          "name": "C2",
          "ticks": 8832,
          "time": 44.16,
          "velocity": 0.7874015748031497
        },
        {
          "duration": 0.11999999999999744,
          "durationTicks": 24,
          "midi": 77,
          "name": "F5",
          "ticks": 8856,
          "time": 44.28,
          "velocity": 0.47244094488188976
        },
        {
          "duration": 0.11999999999999744,
          "durationTicks": 24,
          "midi": 77,
          "name": "F5",
          "ticks": 8880,
          "time": 44.4,
          "velocity": 0.28346456692913385
        },
        {
          "duration": 0.11999999999999744,
          "durationTicks": 24,
          "midi": 42,
          "name": "F#2",
          "ticks": 8880,
          "time": 44.4,
          "velocity": 0.8818897637795275
        },
        {
          "duration": 0.12000000000000455,
          "durationTicks": 24,
          "midi": 42,
          "name": "F#2",
          "ticks": 8904,
          "time": 44.519999999999996,
          "velocity": 0.8818897637795275
        },
        {
          "duration": 0.11999999999999744,
          "durationTicks": 24,
          "midi": 38,
          "name": "D2",
          "ticks": 8928,
          "time": 44.64,
          "velocity": 0.8818897637795275
        },
        {
          "duration": 0.11999999999999744,
          "durationTicks": 24,
          "midi": 46,
          "name": "A#2",
          "ticks": 8928,
          "time": 44.64,
          "velocity": 0.6299212598425197
        },
        {
          "duration": 0.12000000000000455,
          "durationTicks": 24,
          "midi": 42,
          "name": "F#2",
          "ticks": 8976,
          "time": 44.879999999999995,
          "velocity": 0.8818897637795275
        },
        {
          "duration": 0.11999999999999744,
          "durationTicks": 24,
          "midi": 42,
          "name": "F#2",
          "ticks": 9000,
          "time": 45,
          "velocity": 0.8818897637795275
        },
        {
          "duration": 0.11999999999999744,
          "durationTicks": 24,
          "midi": 77,
          "name": "F5",
          "ticks": 9024,
          "time": 45.12,
          "velocity": 0.7244094488188977
        },
        {
          "duration": 0.11999999999999744,
          "durationTicks": 24,
          "midi": 42,
          "name": "F#2",
          "ticks": 9024,
          "time": 45.12,
          "velocity": 0.8818897637795275
        },
        {
          "duration": 0.11999999999999744,
          "durationTicks": 24,
          "midi": 36,
          "name": "C2",
          "ticks": 9024,
          "time": 45.12,
          "velocity": 0.7874015748031497
        },
        {
          "duration": 0.12000000000000455,
          "durationTicks": 24,
          "midi": 77,
          "name": "F5",
          "ticks": 9048,
          "time": 45.239999999999995,
          "velocity": 0.47244094488188976
        },
        {
          "duration": 0.11999999999999744,
          "durationTicks": 24,
          "midi": 77,
          "name": "F5",
          "ticks": 9072,
          "time": 45.36,
          "velocity": 0.28346456692913385
        },
        {
          "duration": 0.11999999999999744,
          "durationTicks": 24,
          "midi": 42,
          "name": "F#2",
          "ticks": 9072,
          "time": 45.36,
          "velocity": 0.8818897637795275
        },
        {
          "duration": 0.11999999999999744,
          "durationTicks": 24,
          "midi": 64,
          "name": "E4",
          "ticks": 9072,
          "time": 45.36,
          "velocity": 0.5669291338582677
        },
        {
          "duration": 0.12000000000000455,
          "durationTicks": 24,
          "midi": 63,
          "name": "D#4",
          "ticks": 9096,
          "time": 45.48,
          "velocity": 0.5669291338582677
        },
        {
          "duration": 0.12000000000000455,
          "durationTicks": 24,
          "midi": 42,
          "name": "F#2",
          "ticks": 9096,
          "time": 45.48,
          "velocity": 0.8818897637795275
        },
        {
          "duration": 0.11999999999999744,
          "durationTicks": 24,
          "midi": 46,
          "name": "A#2",
          "ticks": 9120,
          "time": 45.6,
          "velocity": 0.6299212598425197
        },
        {
          "duration": 0.11999999999999744,
          "durationTicks": 24,
          "midi": 38,
          "name": "D2",
          "ticks": 9120,
          "time": 45.6,
          "velocity": 0.8818897637795275
        },
        {
          "duration": 0.12000000000000455,
          "durationTicks": 24,
          "midi": 42,
          "name": "F#2",
          "ticks": 9168,
          "time": 45.839999999999996,
          "velocity": 0.8818897637795275
        },
        {
          "duration": 0.11999999999999744,
          "durationTicks": 24,
          "midi": 42,
          "name": "F#2",
          "ticks": 9192,
          "time": 45.96,
          "velocity": 0.8818897637795275
        },
        {
          "duration": 0.11999999999999744,
          "durationTicks": 24,
          "midi": 77,
          "name": "F5",
          "ticks": 9216,
          "time": 46.08,
          "velocity": 0.7244094488188977
        },
        {
          "duration": 0.11999999999999744,
          "durationTicks": 24,
          "midi": 42,
          "name": "F#2",
          "ticks": 9216,
          "time": 46.08,
          "velocity": 0.8818897637795275
        },
        {
          "duration": 0.11999999999999744,
          "durationTicks": 24,
          "midi": 36,
          "name": "C2",
          "ticks": 9216,
          "time": 46.08,
          "velocity": 0.7874015748031497
        },
        {
          "duration": 0.12000000000000455,
          "durationTicks": 24,
          "midi": 77,
          "name": "F5",
          "ticks": 9240,
          "time": 46.199999999999996,
          "velocity": 0.47244094488188976
        },
        {
          "duration": 0.11999999999999744,
          "durationTicks": 24,
          "midi": 77,
          "name": "F5",
          "ticks": 9264,
          "time": 46.32,
          "velocity": 0.28346456692913385
        },
        {
          "duration": 0.11999999999999744,
          "durationTicks": 24,
          "midi": 42,
          "name": "F#2",
          "ticks": 9264,
          "time": 46.32,
          "velocity": 0.8818897637795275
        },
        {
          "duration": 0.11999999999999744,
          "durationTicks": 24,
          "midi": 42,
          "name": "F#2",
          "ticks": 9288,
          "time": 46.44,
          "velocity": 0.8818897637795275
        },
        {
          "duration": 0.12000000000000455,
          "durationTicks": 24,
          "midi": 38,
          "name": "D2",
          "ticks": 9312,
          "time": 46.559999999999995,
          "velocity": 0.8818897637795275
        },
        {
          "duration": 0.12000000000000455,
          "durationTicks": 24,
          "midi": 46,
          "name": "A#2",
          "ticks": 9312,
          "time": 46.559999999999995,
          "velocity": 0.6299212598425197
        },
        {
          "duration": 0.12000000000000455,
          "durationTicks": 24,
          "midi": 42,
          "name": "F#2",
          "ticks": 9360,
          "time": 46.8,
          "velocity": 0.8818897637795275
        },
        {
          "duration": 0.11999999999999744,
          "durationTicks": 24,
          "midi": 42,
          "name": "F#2",
          "ticks": 9384,
          "time": 46.92,
          "velocity": 0.8818897637795275
        },
        {
          "duration": 0.11999999999999744,
          "durationTicks": 24,
          "midi": 77,
          "name": "F5",
          "ticks": 9408,
          "time": 47.04,
          "velocity": 0.7244094488188977
        },
        {
          "duration": 0.11999999999999744,
          "durationTicks": 24,
          "midi": 36,
          "name": "C2",
          "ticks": 9408,
          "time": 47.04,
          "velocity": 0.7874015748031497
        },
        {
          "duration": 0.11999999999999744,
          "durationTicks": 24,
          "midi": 42,
          "name": "F#2",
          "ticks": 9408,
          "time": 47.04,
          "velocity": 0.8818897637795275
        },
        {
          "duration": 0.12000000000000455,
          "durationTicks": 24,
          "midi": 77,
          "name": "F5",
          "ticks": 9432,
          "time": 47.16,
          "velocity": 0.47244094488188976
        },
        {
          "duration": 0.11999999999999744,
          "durationTicks": 24,
          "midi": 77,
          "name": "F5",
          "ticks": 9456,
          "time": 47.28,
          "velocity": 0.28346456692913385
        },
        {
          "duration": 0.11999999999999744,
          "durationTicks": 24,
          "midi": 42,
          "name": "F#2",
          "ticks": 9456,
          "time": 47.28,
          "velocity": 0.8818897637795275
        },
        {
          "duration": 0.11999999999999744,
          "durationTicks": 24,
          "midi": 64,
          "name": "E4",
          "ticks": 9456,
          "time": 47.28,
          "velocity": 0.5669291338582677
        },
        {
          "duration": 0.11999999999999744,
          "durationTicks": 24,
          "midi": 42,
          "name": "F#2",
          "ticks": 9480,
          "time": 47.4,
          "velocity": 0.8818897637795275
        },
        {
          "duration": 0.11999999999999744,
          "durationTicks": 24,
          "midi": 63,
          "name": "D#4",
          "ticks": 9480,
          "time": 47.4,
          "velocity": 0.5669291338582677
        },
        {
          "duration": 0.12000000000000455,
          "durationTicks": 24,
          "midi": 38,
          "name": "D2",
          "ticks": 9504,
          "time": 47.519999999999996,
          "velocity": 0.8818897637795275
        },
        {
          "duration": 0.12000000000000455,
          "durationTicks": 24,
          "midi": 46,
          "name": "A#2",
          "ticks": 9504,
          "time": 47.519999999999996,
          "velocity": 0.6299212598425197
        },
        {
          "duration": 0.11999999999999744,
          "durationTicks": 24,
          "midi": 42,
          "name": "F#2",
          "ticks": 9552,
          "time": 47.76,
          "velocity": 0.8818897637795275
        },
        {
          "duration": 0.12000000000000455,
          "durationTicks": 24,
          "midi": 42,
          "name": "F#2",
          "ticks": 9576,
          "time": 47.879999999999995,
          "velocity": 0.8818897637795275
        },
        {
          "duration": 0.11999999999999744,
          "durationTicks": 24,
          "midi": 77,
          "name": "F5",
          "ticks": 9600,
          "time": 48,
          "velocity": 0.7244094488188977
        },
        {
          "duration": 0.11999999999999744,
          "durationTicks": 24,
          "midi": 42,
          "name": "F#2",
          "ticks": 9600,
          "time": 48,
          "velocity": 0.8818897637795275
        },
        {
          "duration": 0.11999999999999744,
          "durationTicks": 24,
          "midi": 36,
          "name": "C2",
          "ticks": 9600,
          "time": 48,
          "velocity": 0.7874015748031497
        },
        {
          "duration": 0.11999999999999744,
          "durationTicks": 24,
          "midi": 77,
          "name": "F5",
          "ticks": 9624,
          "time": 48.12,
          "velocity": 0.47244094488188976
        },
        {
          "duration": 0.12000000000000455,
          "durationTicks": 24,
          "midi": 77,
          "name": "F5",
          "ticks": 9648,
          "time": 48.239999999999995,
          "velocity": 0.28346456692913385
        },
        {
          "duration": 0.12000000000000455,
          "durationTicks": 24,
          "midi": 42,
          "name": "F#2",
          "ticks": 9648,
          "time": 48.239999999999995,
          "velocity": 0.8818897637795275
        },
        {
          "duration": 0.11999999999999744,
          "durationTicks": 24,
          "midi": 42,
          "name": "F#2",
          "ticks": 9672,
          "time": 48.36,
          "velocity": 0.8818897637795275
        },
        {
          "duration": 0.12000000000000455,
          "durationTicks": 24,
          "midi": 38,
          "name": "D2",
          "ticks": 9696,
          "time": 48.48,
          "velocity": 0.8818897637795275
        },
        {
          "duration": 0.12000000000000455,
          "durationTicks": 24,
          "midi": 46,
          "name": "A#2",
          "ticks": 9696,
          "time": 48.48,
          "velocity": 0.6299212598425197
        },
        {
          "duration": 0.11999999999999744,
          "durationTicks": 24,
          "midi": 42,
          "name": "F#2",
          "ticks": 9744,
          "time": 48.72,
          "velocity": 0.8818897637795275
        },
        {
          "duration": 0.12000000000000455,
          "durationTicks": 24,
          "midi": 42,
          "name": "F#2",
          "ticks": 9768,
          "time": 48.839999999999996,
          "velocity": 0.8818897637795275
        },
        {
          "duration": 0.11999999999999744,
          "durationTicks": 24,
          "midi": 77,
          "name": "F5",
          "ticks": 9792,
          "time": 48.96,
          "velocity": 0.7244094488188977
        },
        {
          "duration": 0.11999999999999744,
          "durationTicks": 24,
          "midi": 42,
          "name": "F#2",
          "ticks": 9792,
          "time": 48.96,
          "velocity": 0.8818897637795275
        },
        {
          "duration": 0.11999999999999744,
          "durationTicks": 24,
          "midi": 36,
          "name": "C2",
          "ticks": 9792,
          "time": 48.96,
          "velocity": 0.7874015748031497
        },
        {
          "duration": 0.11999999999999744,
          "durationTicks": 24,
          "midi": 77,
          "name": "F5",
          "ticks": 9816,
          "time": 49.08,
          "velocity": 0.47244094488188976
        },
        {
          "duration": 0.12000000000000455,
          "durationTicks": 24,
          "midi": 77,
          "name": "F5",
          "ticks": 9840,
          "time": 49.199999999999996,
          "velocity": 0.28346456692913385
        },
        {
          "duration": 0.12000000000000455,
          "durationTicks": 24,
          "midi": 64,
          "name": "E4",
          "ticks": 9840,
          "time": 49.199999999999996,
          "velocity": 0.5669291338582677
        },
        {
          "duration": 0.12000000000000455,
          "durationTicks": 24,
          "midi": 42,
          "name": "F#2",
          "ticks": 9840,
          "time": 49.199999999999996,
          "velocity": 0.8818897637795275
        },
        {
          "duration": 0.11999999999999744,
          "durationTicks": 24,
          "midi": 63,
          "name": "D#4",
          "ticks": 9864,
          "time": 49.32,
          "velocity": 0.5669291338582677
        },
        {
          "duration": 0.11999999999999744,
          "durationTicks": 24,
          "midi": 42,
          "name": "F#2",
          "ticks": 9864,
          "time": 49.32,
          "velocity": 0.8818897637795275
        },
        {
          "duration": 0.11999999999999744,
          "durationTicks": 24,
          "midi": 38,
          "name": "D2",
          "ticks": 9888,
          "time": 49.44,
          "velocity": 0.8818897637795275
        },
        {
          "duration": 0.11999999999999744,
          "durationTicks": 24,
          "midi": 46,
          "name": "A#2",
          "ticks": 9888,
          "time": 49.44,
          "velocity": 0.6299212598425197
        },
        {
          "duration": 0.11999999999999744,
          "durationTicks": 24,
          "midi": 42,
          "name": "F#2",
          "ticks": 9936,
          "time": 49.68,
          "velocity": 0.8818897637795275
        },
        {
          "duration": 0.12000000000000455,
          "durationTicks": 24,
          "midi": 42,
          "name": "F#2",
          "ticks": 9960,
          "time": 49.8,
          "velocity": 0.8818897637795275
        },
        {
          "duration": 0.11999999999999744,
          "durationTicks": 24,
          "midi": 77,
          "name": "F5",
          "ticks": 9984,
          "time": 49.92,
          "velocity": 0.7244094488188977
        },
        {
          "duration": 0.11999999999999744,
          "durationTicks": 24,
          "midi": 36,
          "name": "C2",
          "ticks": 9984,
          "time": 49.92,
          "velocity": 0.7874015748031497
        },
        {
          "duration": 0.11999999999999744,
          "durationTicks": 24,
          "midi": 42,
          "name": "F#2",
          "ticks": 9984,
          "time": 49.92,
          "velocity": 0.8818897637795275
        },
        {
          "duration": 0.11999999999999744,
          "durationTicks": 24,
          "midi": 77,
          "name": "F5",
          "ticks": 10008,
          "time": 50.04,
          "velocity": 0.5354330708661418
        },
        {
          "duration": 0.12000000000000455,
          "durationTicks": 24,
          "midi": 77,
          "name": "F5",
          "ticks": 10032,
          "time": 50.16,
          "velocity": 0.28346456692913385
        },
        {
          "duration": 0.12000000000000455,
          "durationTicks": 24,
          "midi": 42,
          "name": "F#2",
          "ticks": 10032,
          "time": 50.16,
          "velocity": 0.8818897637795275
        },
        {
          "duration": 0.11999999999999744,
          "durationTicks": 24,
          "midi": 42,
          "name": "F#2",
          "ticks": 10056,
          "time": 50.28,
          "velocity": 0.8818897637795275
        },
        {
          "duration": 0.11999999999999744,
          "durationTicks": 24,
          "midi": 38,
          "name": "D2",
          "ticks": 10080,
          "time": 50.4,
          "velocity": 0.8818897637795275
        },
        {
          "duration": 0.11999999999999744,
          "durationTicks": 24,
          "midi": 46,
          "name": "A#2",
          "ticks": 10080,
          "time": 50.4,
          "velocity": 0.6299212598425197
        },
        {
          "duration": 0.11999999999999744,
          "durationTicks": 24,
          "midi": 42,
          "name": "F#2",
          "ticks": 10128,
          "time": 50.64,
          "velocity": 0.8818897637795275
        },
        {
          "duration": 0.11999999999999744,
          "durationTicks": 24,
          "midi": 42,
          "name": "F#2",
          "ticks": 10152,
          "time": 50.76,
          "velocity": 0.8818897637795275
        },
        {
          "duration": 0.12000000000000455,
          "durationTicks": 24,
          "midi": 77,
          "name": "F5",
          "ticks": 10176,
          "time": 50.879999999999995,
          "velocity": 0.7244094488188977
        },
        {
          "duration": 0.12000000000000455,
          "durationTicks": 24,
          "midi": 42,
          "name": "F#2",
          "ticks": 10176,
          "time": 50.879999999999995,
          "velocity": 0.8818897637795275
        },
        {
          "duration": 0.12000000000000455,
          "durationTicks": 24,
          "midi": 36,
          "name": "C2",
          "ticks": 10176,
          "time": 50.879999999999995,
          "velocity": 0.7874015748031497
        },
        {
          "duration": 0.11999999999999744,
          "durationTicks": 24,
          "midi": 77,
          "name": "F5",
          "ticks": 10200,
          "time": 51,
          "velocity": 0.47244094488188976
        },
        {
          "duration": 0.11999999999999744,
          "durationTicks": 24,
          "midi": 77,
          "name": "F5",
          "ticks": 10224,
          "time": 51.12,
          "velocity": 0.28346456692913385
        },
        {
          "duration": 0.11999999999999744,
          "durationTicks": 24,
          "midi": 64,
          "name": "E4",
          "ticks": 10224,
          "time": 51.12,
          "velocity": 0.5669291338582677
        },
        {
          "duration": 0.11999999999999744,
          "durationTicks": 24,
          "midi": 42,
          "name": "F#2",
          "ticks": 10224,
          "time": 51.12,
          "velocity": 0.8818897637795275
        },
        {
          "duration": 0.12000000000000455,
          "durationTicks": 24,
          "midi": 63,
          "name": "D#4",
          "ticks": 10248,
          "time": 51.239999999999995,
          "velocity": 0.5669291338582677
        },
        {
          "duration": 0.12000000000000455,
          "durationTicks": 24,
          "midi": 42,
          "name": "F#2",
          "ticks": 10248,
          "time": 51.239999999999995,
          "velocity": 0.8818897637795275
        },
        {
          "duration": 0.11999999999999744,
          "durationTicks": 24,
          "midi": 46,
          "name": "A#2",
          "ticks": 10272,
          "time": 51.36,
          "velocity": 0.6299212598425197
        },
        {
          "duration": 0.11999999999999744,
          "durationTicks": 24,
          "midi": 38,
          "name": "D2",
          "ticks": 10272,
          "time": 51.36,
          "velocity": 0.8818897637795275
        },
        {
          "duration": 0.11999999999999744,
          "durationTicks": 24,
          "midi": 42,
          "name": "F#2",
          "ticks": 10320,
          "time": 51.6,
          "velocity": 0.8818897637795275
        },
        {
          "duration": 0.11999999999999744,
          "durationTicks": 24,
          "midi": 42,
          "name": "F#2",
          "ticks": 10344,
          "time": 51.72,
          "velocity": 0.8818897637795275
        },
        {
          "duration": 0.12000000000000455,
          "durationTicks": 24,
          "midi": 77,
          "name": "F5",
          "ticks": 10368,
          "time": 51.839999999999996,
          "velocity": 0.7244094488188977
        },
        {
          "duration": 0.12000000000000455,
          "durationTicks": 24,
          "midi": 36,
          "name": "C2",
          "ticks": 10368,
          "time": 51.839999999999996,
          "velocity": 0.7874015748031497
        },
        {
          "duration": 0.12000000000000455,
          "durationTicks": 24,
          "midi": 42,
          "name": "F#2",
          "ticks": 10368,
          "time": 51.839999999999996,
          "velocity": 0.8818897637795275
        },
        {
          "duration": 0.11999999999999744,
          "durationTicks": 24,
          "midi": 77,
          "name": "F5",
          "ticks": 10392,
          "time": 51.96,
          "velocity": 0.47244094488188976
        },
        {
          "duration": 0.11999999999999744,
          "durationTicks": 24,
          "midi": 77,
          "name": "F5",
          "ticks": 10416,
          "time": 52.08,
          "velocity": 0.28346456692913385
        },
        {
          "duration": 0.11999999999999744,
          "durationTicks": 24,
          "midi": 42,
          "name": "F#2",
          "ticks": 10416,
          "time": 52.08,
          "velocity": 0.8818897637795275
        },
        {
          "duration": 0.12000000000000455,
          "durationTicks": 24,
          "midi": 42,
          "name": "F#2",
          "ticks": 10440,
          "time": 52.199999999999996,
          "velocity": 0.8818897637795275
        },
        {
          "duration": 0.11999999999999744,
          "durationTicks": 24,
          "midi": 38,
          "name": "D2",
          "ticks": 10464,
          "time": 52.32,
          "velocity": 0.8818897637795275
        },
        {
          "duration": 0.11999999999999744,
          "durationTicks": 24,
          "midi": 46,
          "name": "A#2",
          "ticks": 10464,
          "time": 52.32,
          "velocity": 0.6299212598425197
        },
        {
          "duration": 0.12000000000000455,
          "durationTicks": 24,
          "midi": 42,
          "name": "F#2",
          "ticks": 10512,
          "time": 52.559999999999995,
          "velocity": 0.8818897637795275
        },
        {
          "duration": 0.11999999999999744,
          "durationTicks": 24,
          "midi": 42,
          "name": "F#2",
          "ticks": 10536,
          "time": 52.68,
          "velocity": 0.8818897637795275
        },
        {
          "duration": 0.11999999999999744,
          "durationTicks": 24,
          "midi": 77,
          "name": "F5",
          "ticks": 10560,
          "time": 52.8,
          "velocity": 0.7244094488188977
        },
        {
          "duration": 0.11999999999999744,
          "durationTicks": 24,
          "midi": 36,
          "name": "C2",
          "ticks": 10560,
          "time": 52.8,
          "velocity": 0.7874015748031497
        },
        {
          "duration": 0.11999999999999744,
          "durationTicks": 24,
          "midi": 42,
          "name": "F#2",
          "ticks": 10560,
          "time": 52.8,
          "velocity": 0.8818897637795275
        },
        {
          "duration": 0.12000000000000455,
          "durationTicks": 24,
          "midi": 77,
          "name": "F5",
          "ticks": 10584,
          "time": 52.919999999999995,
          "velocity": 0.47244094488188976
        },
        {
          "duration": 0.11999999999999744,
          "durationTicks": 24,
          "midi": 77,
          "name": "F5",
          "ticks": 10608,
          "time": 53.04,
          "velocity": 0.28346456692913385
        },
        {
          "duration": 0.11999999999999744,
          "durationTicks": 24,
          "midi": 64,
          "name": "E4",
          "ticks": 10608,
          "time": 53.04,
          "velocity": 0.5669291338582677
        },
        {
          "duration": 0.11999999999999744,
          "durationTicks": 24,
          "midi": 42,
          "name": "F#2",
          "ticks": 10608,
          "time": 53.04,
          "velocity": 0.8818897637795275
        },
        {
          "duration": 0.12000000000000455,
          "durationTicks": 24,
          "midi": 63,
          "name": "D#4",
          "ticks": 10632,
          "time": 53.16,
          "velocity": 0.5669291338582677
        },
        {
          "duration": 0.12000000000000455,
          "durationTicks": 24,
          "midi": 42,
          "name": "F#2",
          "ticks": 10632,
          "time": 53.16,
          "velocity": 0.8818897637795275
        },
        {
          "duration": 0.11999999999999744,
          "durationTicks": 24,
          "midi": 46,
          "name": "A#2",
          "ticks": 10656,
          "time": 53.28,
          "velocity": 0.6299212598425197
        },
        {
          "duration": 0.11999999999999744,
          "durationTicks": 24,
          "midi": 38,
          "name": "D2",
          "ticks": 10656,
          "time": 53.28,
          "velocity": 0.8818897637795275
        },
        {
          "duration": 0.12000000000000455,
          "durationTicks": 24,
          "midi": 42,
          "name": "F#2",
          "ticks": 10704,
          "time": 53.519999999999996,
          "velocity": 0.8818897637795275
        },
        {
          "duration": 0.11999999999999744,
          "durationTicks": 24,
          "midi": 42,
          "name": "F#2",
          "ticks": 10728,
          "time": 53.64,
          "velocity": 0.8818897637795275
        },
        {
          "duration": 0.11999999999999744,
          "durationTicks": 24,
          "midi": 77,
          "name": "F5",
          "ticks": 10752,
          "time": 53.76,
          "velocity": 0.7244094488188977
        },
        {
          "duration": 0.11999999999999744,
          "durationTicks": 24,
          "midi": 42,
          "name": "F#2",
          "ticks": 10752,
          "time": 53.76,
          "velocity": 0.8818897637795275
        },
        {
          "duration": 0.11999999999999744,
          "durationTicks": 24,
          "midi": 36,
          "name": "C2",
          "ticks": 10752,
          "time": 53.76,
          "velocity": 0.7874015748031497
        },
        {
          "duration": 0.12000000000000455,
          "durationTicks": 24,
          "midi": 77,
          "name": "F5",
          "ticks": 10776,
          "time": 53.879999999999995,
          "velocity": 0.5354330708661418
        },
        {
          "duration": 0.11999999999999744,
          "durationTicks": 24,
          "midi": 77,
          "name": "F5",
          "ticks": 10800,
          "time": 54,
          "velocity": 0.28346456692913385
        },
        {
          "duration": 0.11999999999999744,
          "durationTicks": 24,
          "midi": 42,
          "name": "F#2",
          "ticks": 10800,
          "time": 54,
          "velocity": 0.8818897637795275
        },
        {
          "duration": 0.11999999999999744,
          "durationTicks": 24,
          "midi": 42,
          "name": "F#2",
          "ticks": 10824,
          "time": 54.12,
          "velocity": 0.8818897637795275
        },
        {
          "duration": 0.12000000000000455,
          "durationTicks": 24,
          "midi": 38,
          "name": "D2",
          "ticks": 10848,
          "time": 54.239999999999995,
          "velocity": 0.8818897637795275
        },
        {
          "duration": 0.12000000000000455,
          "durationTicks": 24,
          "midi": 46,
          "name": "A#2",
          "ticks": 10848,
          "time": 54.239999999999995,
          "velocity": 0.6299212598425197
        },
        {
          "duration": 0.12000000000000455,
          "durationTicks": 24,
          "midi": 42,
          "name": "F#2",
          "ticks": 10896,
          "time": 54.48,
          "velocity": 0.8818897637795275
        },
        {
          "duration": 0.11999999999999744,
          "durationTicks": 24,
          "midi": 42,
          "name": "F#2",
          "ticks": 10920,
          "time": 54.6,
          "velocity": 0.8818897637795275
        },
        {
          "duration": 0.11999999999999744,
          "durationTicks": 24,
          "midi": 77,
          "name": "F5",
          "ticks": 10944,
          "time": 54.72,
          "velocity": 0.7244094488188977
        },
        {
          "duration": 0.11999999999999744,
          "durationTicks": 24,
          "midi": 42,
          "name": "F#2",
          "ticks": 10944,
          "time": 54.72,
          "velocity": 0.8818897637795275
        },
        {
          "duration": 0.11999999999999744,
          "durationTicks": 24,
          "midi": 36,
          "name": "C2",
          "ticks": 10944,
          "time": 54.72,
          "velocity": 0.7874015748031497
        },
        {
          "duration": 0.12000000000000455,
          "durationTicks": 24,
          "midi": 77,
          "name": "F5",
          "ticks": 10968,
          "time": 54.839999999999996,
          "velocity": 0.47244094488188976
        },
        {
          "duration": 0.11999999999999744,
          "durationTicks": 24,
          "midi": 77,
          "name": "F5",
          "ticks": 10992,
          "time": 54.96,
          "velocity": 0.28346456692913385
        },
        {
          "duration": 0.11999999999999744,
          "durationTicks": 24,
          "midi": 42,
          "name": "F#2",
          "ticks": 10992,
          "time": 54.96,
          "velocity": 0.8818897637795275
        },
        {
          "duration": 0.11999999999999744,
          "durationTicks": 24,
          "midi": 64,
          "name": "E4",
          "ticks": 10992,
          "time": 54.96,
          "velocity": 0.5669291338582677
        },
        {
          "duration": 0.11999999999999744,
          "durationTicks": 24,
          "midi": 42,
          "name": "F#2",
          "ticks": 11016,
          "time": 55.08,
          "velocity": 0.8818897637795275
        },
        {
          "duration": 0.11999999999999744,
          "durationTicks": 24,
          "midi": 63,
          "name": "D#4",
          "ticks": 11016,
          "time": 55.08,
          "velocity": 0.5669291338582677
        },
        {
          "duration": 0.12000000000000455,
          "durationTicks": 24,
          "midi": 46,
          "name": "A#2",
          "ticks": 11040,
          "time": 55.199999999999996,
          "velocity": 0.6299212598425197
        },
        {
          "duration": 0.12000000000000455,
          "durationTicks": 24,
          "midi": 38,
          "name": "D2",
          "ticks": 11040,
          "time": 55.199999999999996,
          "velocity": 0.8818897637795275
        },
        {
          "duration": 0.11999999999999744,
          "durationTicks": 24,
          "midi": 42,
          "name": "F#2",
          "ticks": 11088,
          "time": 55.44,
          "velocity": 0.8818897637795275
        },
        {
          "duration": 0.12000000000000455,
          "durationTicks": 24,
          "midi": 42,
          "name": "F#2",
          "ticks": 11112,
          "time": 55.559999999999995,
          "velocity": 0.8818897637795275
        },
        {
          "duration": 0.11999999999999744,
          "durationTicks": 24,
          "midi": 77,
          "name": "F5",
          "ticks": 11136,
          "time": 55.68,
          "velocity": 0.7244094488188977
        },
        {
          "duration": 0.11999999999999744,
          "durationTicks": 24,
          "midi": 36,
          "name": "C2",
          "ticks": 11136,
          "time": 55.68,
          "velocity": 0.7874015748031497
        },
        {
          "duration": 0.11999999999999744,
          "durationTicks": 24,
          "midi": 42,
          "name": "F#2",
          "ticks": 11136,
          "time": 55.68,
          "velocity": 0.8818897637795275
        },
        {
          "duration": 0.11999999999999744,
          "durationTicks": 24,
          "midi": 77,
          "name": "F5",
          "ticks": 11160,
          "time": 55.8,
          "velocity": 0.47244094488188976
        },
        {
          "duration": 0.12000000000000455,
          "durationTicks": 24,
          "midi": 77,
          "name": "F5",
          "ticks": 11184,
          "time": 55.919999999999995,
          "velocity": 0.28346456692913385
        },
        {
          "duration": 0.12000000000000455,
          "durationTicks": 24,
          "midi": 42,
          "name": "F#2",
          "ticks": 11184,
          "time": 55.919999999999995,
          "velocity": 0.8818897637795275
        },
        {
          "duration": 0.11999999999999744,
          "durationTicks": 24,
          "midi": 42,
          "name": "F#2",
          "ticks": 11208,
          "time": 56.04,
          "velocity": 0.8818897637795275
        },
        {
          "duration": 0.12000000000000455,
          "durationTicks": 24,
          "midi": 38,
          "name": "D2",
          "ticks": 11232,
          "time": 56.16,
          "velocity": 0.8818897637795275
        },
        {
          "duration": 0.12000000000000455,
          "durationTicks": 24,
          "midi": 46,
          "name": "A#2",
          "ticks": 11232,
          "time": 56.16,
          "velocity": 0.6299212598425197
        },
        {
          "duration": 0.11999999999999744,
          "durationTicks": 24,
          "midi": 42,
          "name": "F#2",
          "ticks": 11280,
          "time": 56.4,
          "velocity": 0.8818897637795275
        },
        {
          "duration": 0.12000000000000455,
          "durationTicks": 24,
          "midi": 42,
          "name": "F#2",
          "ticks": 11304,
          "time": 56.519999999999996,
          "velocity": 0.8818897637795275
        },
        {
          "duration": 0.11999999999999744,
          "durationTicks": 24,
          "midi": 77,
          "name": "F5",
          "ticks": 11328,
          "time": 56.64,
          "velocity": 0.7244094488188977
        },
        {
          "duration": 0.11999999999999744,
          "durationTicks": 24,
          "midi": 36,
          "name": "C2",
          "ticks": 11328,
          "time": 56.64,
          "velocity": 0.7874015748031497
        },
        {
          "duration": 0.11999999999999744,
          "durationTicks": 24,
          "midi": 42,
          "name": "F#2",
          "ticks": 11328,
          "time": 56.64,
          "velocity": 0.8818897637795275
        },
        {
          "duration": 0.11999999999999744,
          "durationTicks": 24,
          "midi": 77,
          "name": "F5",
          "ticks": 11352,
          "time": 56.76,
          "velocity": 0.47244094488188976
        },
        {
          "duration": 0.12000000000000455,
          "durationTicks": 24,
          "midi": 77,
          "name": "F5",
          "ticks": 11376,
          "time": 56.879999999999995,
          "velocity": 0.28346456692913385
        },
        {
          "duration": 0.12000000000000455,
          "durationTicks": 24,
          "midi": 64,
          "name": "E4",
          "ticks": 11376,
          "time": 56.879999999999995,
          "velocity": 0.5669291338582677
        },
        {
          "duration": 0.12000000000000455,
          "durationTicks": 24,
          "midi": 42,
          "name": "F#2",
          "ticks": 11376,
          "time": 56.879999999999995,
          "velocity": 0.8818897637795275
        },
        {
          "duration": 0.11999999999999744,
          "durationTicks": 24,
          "midi": 63,
          "name": "D#4",
          "ticks": 11400,
          "time": 57,
          "velocity": 0.5669291338582677
        },
        {
          "duration": 0.11999999999999744,
          "durationTicks": 24,
          "midi": 42,
          "name": "F#2",
          "ticks": 11400,
          "time": 57,
          "velocity": 0.8818897637795275
        },
        {
          "duration": 0.11999999999999744,
          "durationTicks": 24,
          "midi": 46,
          "name": "A#2",
          "ticks": 11424,
          "time": 57.12,
          "velocity": 0.6299212598425197
        },
        {
          "duration": 0.11999999999999744,
          "durationTicks": 24,
          "midi": 38,
          "name": "D2",
          "ticks": 11424,
          "time": 57.12,
          "velocity": 0.8818897637795275
        },
        {
          "duration": 0.11999999999999744,
          "durationTicks": 24,
          "midi": 42,
          "name": "F#2",
          "ticks": 11472,
          "time": 57.36,
          "velocity": 0.8818897637795275
        },
        {
          "duration": 0.11999999999999744,
          "durationTicks": 24,
          "midi": 42,
          "name": "F#2",
          "ticks": 11496,
          "time": 57.48,
          "velocity": 0.8818897637795275
        },
        {
          "duration": 0.12000000000000455,
          "durationTicks": 24,
          "midi": 77,
          "name": "F5",
          "ticks": 11520,
          "time": 57.599999999999994,
          "velocity": 0.7244094488188977
        },
        {
          "duration": 0.12000000000000455,
          "durationTicks": 24,
          "midi": 42,
          "name": "F#2",
          "ticks": 11520,
          "time": 57.599999999999994,
          "velocity": 0.8818897637795275
        },
        {
          "duration": 0.12000000000000455,
          "durationTicks": 24,
          "midi": 36,
          "name": "C2",
          "ticks": 11520,
          "time": 57.599999999999994,
          "velocity": 0.7874015748031497
        },
        {
          "duration": 0.11999999999999744,
          "durationTicks": 24,
          "midi": 77,
          "name": "F5",
          "ticks": 11544,
          "time": 57.72,
          "velocity": 0.47244094488188976
        },
        {
          "duration": 0.12000000000000455,
          "durationTicks": 24,
          "midi": 77,
          "name": "F5",
          "ticks": 11568,
          "time": 57.839999999999996,
          "velocity": 0.28346456692913385
        },
        {
          "duration": 0.12000000000000455,
          "durationTicks": 24,
          "midi": 42,
          "name": "F#2",
          "ticks": 11568,
          "time": 57.839999999999996,
          "velocity": 0.8818897637795275
        },
        {
          "duration": 0.11999999999999744,
          "durationTicks": 24,
          "midi": 42,
          "name": "F#2",
          "ticks": 11592,
          "time": 57.96,
          "velocity": 0.8818897637795275
        },
        {
          "duration": 0.11999999999999744,
          "durationTicks": 24,
          "midi": 46,
          "name": "A#2",
          "ticks": 11616,
          "time": 58.08,
          "velocity": 0.6299212598425197
        },
        {
          "duration": 0.11999999999999744,
          "durationTicks": 24,
          "midi": 38,
          "name": "D2",
          "ticks": 11616,
          "time": 58.08,
          "velocity": 0.8818897637795275
        },
        {
          "duration": 0.11999999999999744,
          "durationTicks": 24,
          "midi": 42,
          "name": "F#2",
          "ticks": 11664,
          "time": 58.32,
          "velocity": 0.8818897637795275
        },
        {
          "duration": 0.11999999999999744,
          "durationTicks": 24,
          "midi": 42,
          "name": "F#2",
          "ticks": 11688,
          "time": 58.44,
          "velocity": 0.8818897637795275
        },
        {
          "duration": 0.12000000000000455,
          "durationTicks": 24,
          "midi": 77,
          "name": "F5",
          "ticks": 11712,
          "time": 58.559999999999995,
          "velocity": 0.7244094488188977
        },
        {
          "duration": 0.12000000000000455,
          "durationTicks": 24,
          "midi": 42,
          "name": "F#2",
          "ticks": 11712,
          "time": 58.559999999999995,
          "velocity": 0.8818897637795275
        },
        {
          "duration": 0.12000000000000455,
          "durationTicks": 24,
          "midi": 36,
          "name": "C2",
          "ticks": 11712,
          "time": 58.559999999999995,
          "velocity": 0.7874015748031497
        },
        {
          "duration": 0.11999999999999744,
          "durationTicks": 24,
          "midi": 77,
          "name": "F5",
          "ticks": 11736,
          "time": 58.68,
          "velocity": 0.47244094488188976
        },
        {
          "duration": 0.11999999999999744,
          "durationTicks": 24,
          "midi": 77,
          "name": "F5",
          "ticks": 11760,
          "time": 58.8,
          "velocity": 0.28346456692913385
        },
        {
          "duration": 0.11999999999999744,
          "durationTicks": 24,
          "midi": 64,
          "name": "E4",
          "ticks": 11760,
          "time": 58.8,
          "velocity": 0.5669291338582677
        },
        {
          "duration": 0.11999999999999744,
          "durationTicks": 24,
          "midi": 42,
          "name": "F#2",
          "ticks": 11760,
          "time": 58.8,
          "velocity": 0.8818897637795275
        },
        {
          "duration": 0.12000000000000455,
          "durationTicks": 24,
          "midi": 42,
          "name": "F#2",
          "ticks": 11784,
          "time": 58.919999999999995,
          "velocity": 0.8818897637795275
        },
        {
          "duration": 0.12000000000000455,
          "durationTicks": 24,
          "midi": 63,
          "name": "D#4",
          "ticks": 11784,
          "time": 58.919999999999995,
          "velocity": 0.5669291338582677
        },
        {
          "duration": 0.11999999999999744,
          "durationTicks": 24,
          "midi": 38,
          "name": "D2",
          "ticks": 11808,
          "time": 59.04,
          "velocity": 0.8818897637795275
        },
        {
          "duration": 0.11999999999999744,
          "durationTicks": 24,
          "midi": 46,
          "name": "A#2",
          "ticks": 11808,
          "time": 59.04,
          "velocity": 0.6299212598425197
        },
        {
          "duration": 0.11999999999999744,
          "durationTicks": 24,
          "midi": 42,
          "name": "F#2",
          "ticks": 11856,
          "time": 59.28,
          "velocity": 0.8818897637795275
        },
        {
          "duration": 0.11999999999999744,
          "durationTicks": 24,
          "midi": 42,
          "name": "F#2",
          "ticks": 11880,
          "time": 59.4,
          "velocity": 0.8818897637795275
        },
        {
          "duration": 0.12000000000000455,
          "durationTicks": 24,
          "midi": 77,
          "name": "F5",
          "ticks": 11904,
          "time": 59.519999999999996,
          "velocity": 0.7244094488188977
        },
        {
          "duration": 0.12000000000000455,
          "durationTicks": 24,
          "midi": 36,
          "name": "C2",
          "ticks": 11904,
          "time": 59.519999999999996,
          "velocity": 0.7874015748031497
        },
        {
          "duration": 0.12000000000000455,
          "durationTicks": 24,
          "midi": 42,
          "name": "F#2",
          "ticks": 11904,
          "time": 59.519999999999996,
          "velocity": 0.8818897637795275
        },
        {
          "duration": 0.11999999999999744,
          "durationTicks": 24,
          "midi": 77,
          "name": "F5",
          "ticks": 11928,
          "time": 59.64,
          "velocity": 0.47244094488188976
        },
        {
          "duration": 0.11999999999999744,
          "durationTicks": 24,
          "midi": 77,
          "name": "F5",
          "ticks": 11952,
          "time": 59.76,
          "velocity": 0.28346456692913385
        },
        {
          "duration": 0.11999999999999744,
          "durationTicks": 24,
          "midi": 42,
          "name": "F#2",
          "ticks": 11952,
          "time": 59.76,
          "velocity": 0.8818897637795275
        },
        {
          "duration": 0.12000000000000455,
          "durationTicks": 24,
          "midi": 42,
          "name": "F#2",
          "ticks": 11976,
          "time": 59.879999999999995,
          "velocity": 0.8818897637795275
        },
        {
          "duration": 0.11999999999999744,
          "durationTicks": 24,
          "midi": 38,
          "name": "D2",
          "ticks": 12000,
          "time": 60,
          "velocity": 0.8818897637795275
        },
        {
          "duration": 0.11999999999999744,
          "durationTicks": 24,
          "midi": 46,
          "name": "A#2",
          "ticks": 12000,
          "time": 60,
          "velocity": 0.6299212598425197
        },
        {
          "duration": 0.12000000000000455,
          "durationTicks": 24,
          "midi": 42,
          "name": "F#2",
          "ticks": 12048,
          "time": 60.239999999999995,
          "velocity": 0.8818897637795275
        },
        {
          "duration": 0.11999999999999744,
          "durationTicks": 24,
          "midi": 42,
          "name": "F#2",
          "ticks": 12072,
          "time": 60.36,
          "velocity": 0.8818897637795275
        },
        {
          "duration": 0.11999999999999744,
          "durationTicks": 24,
          "midi": 77,
          "name": "F5",
          "ticks": 12096,
          "time": 60.48,
          "velocity": 0.7244094488188977
        },
        {
          "duration": 0.11999999999999744,
          "durationTicks": 24,
          "midi": 42,
          "name": "F#2",
          "ticks": 12096,
          "time": 60.48,
          "velocity": 0.8818897637795275
        },
        {
          "duration": 0.11999999999999744,
          "durationTicks": 24,
          "midi": 36,
          "name": "C2",
          "ticks": 12096,
          "time": 60.48,
          "velocity": 0.7874015748031497
        },
        {
          "duration": 0.12000000000000455,
          "durationTicks": 24,
          "midi": 77,
          "name": "F5",
          "ticks": 12120,
          "time": 60.599999999999994,
          "velocity": 0.47244094488188976
        },
        {
          "duration": 0.11999999999999744,
          "durationTicks": 24,
          "midi": 77,
          "name": "F5",
          "ticks": 12144,
          "time": 60.72,
          "velocity": 0.28346456692913385
        },
        {
          "duration": 0.11999999999999744,
          "durationTicks": 24,
          "midi": 64,
          "name": "E4",
          "ticks": 12144,
          "time": 60.72,
          "velocity": 0.5669291338582677
        },
        {
          "duration": 0.11999999999999744,
          "durationTicks": 24,
          "midi": 42,
          "name": "F#2",
          "ticks": 12144,
          "time": 60.72,
          "velocity": 0.8818897637795275
        },
        {
          "duration": 0.12000000000000455,
          "durationTicks": 24,
          "midi": 63,
          "name": "D#4",
          "ticks": 12168,
          "time": 60.839999999999996,
          "velocity": 0.5669291338582677
        },
        {
          "duration": 0.12000000000000455,
          "durationTicks": 24,
          "midi": 42,
          "name": "F#2",
          "ticks": 12168,
          "time": 60.839999999999996,
          "velocity": 0.8818897637795275
        },
        {
          "duration": 0.11999999999999744,
          "durationTicks": 24,
          "midi": 38,
          "name": "D2",
          "ticks": 12192,
          "time": 60.96,
          "velocity": 0.8818897637795275
        },
        {
          "duration": 0.11999999999999744,
          "durationTicks": 24,
          "midi": 46,
          "name": "A#2",
          "ticks": 12192,
          "time": 60.96,
          "velocity": 0.6299212598425197
        },
        {
          "duration": 0.12000000000000455,
          "durationTicks": 24,
          "midi": 42,
          "name": "F#2",
          "ticks": 12240,
          "time": 61.199999999999996,
          "velocity": 0.8818897637795275
        },
        {
          "duration": 0.11999999999999744,
          "durationTicks": 24,
          "midi": 42,
          "name": "F#2",
          "ticks": 12264,
          "time": 61.32,
          "velocity": 0.8818897637795275
        },
        {
          "duration": 0.11999999999999744,
          "durationTicks": 24,
          "midi": 42,
          "name": "F#2",
          "ticks": 12288,
          "time": 61.44,
          "velocity": 0.8818897637795275
        },
        {
          "duration": 0.11999999999999744,
          "durationTicks": 24,
          "midi": 42,
          "name": "F#2",
          "ticks": 12336,
          "time": 61.68,
          "velocity": 0.8818897637795275
        },
        {
          "duration": 0.11999999999999744,
          "durationTicks": 24,
          "midi": 42,
          "name": "F#2",
          "ticks": 12360,
          "time": 61.8,
          "velocity": 0.8818897637795275
        },
        {
          "duration": 0.12000000000000455,
          "durationTicks": 24,
          "midi": 46,
          "name": "A#2",
          "ticks": 12384,
          "time": 61.919999999999995,
          "velocity": 0.6299212598425197
        },
        {
          "duration": 0.12000000000000455,
          "durationTicks": 24,
          "midi": 42,
          "name": "F#2",
          "ticks": 12432,
          "time": 62.16,
          "velocity": 0.8818897637795275
        },
        {
          "duration": 0.11999999999999744,
          "durationTicks": 24,
          "midi": 42,
          "name": "F#2",
          "ticks": 12456,
          "time": 62.28,
          "velocity": 0.8818897637795275
        },
        {
          "duration": 0.11999999999999744,
          "durationTicks": 24,
          "midi": 42,
          "name": "F#2",
          "ticks": 12480,
          "time": 62.4,
          "velocity": 0.8818897637795275
        },
        {
          "duration": 0.11999999999999744,
          "durationTicks": 24,
          "midi": 42,
          "name": "F#2",
          "ticks": 12528,
          "time": 62.64,
          "velocity": 0.8818897637795275
        },
        {
          "duration": 0.11999999999999744,
          "durationTicks": 24,
          "midi": 42,
          "name": "F#2",
          "ticks": 12552,
          "time": 62.76,
          "velocity": 0.8818897637795275
        },
        {
          "duration": 0.12000000000000455,
          "durationTicks": 24,
          "midi": 46,
          "name": "A#2",
          "ticks": 12576,
          "time": 62.879999999999995,
          "velocity": 0.6299212598425197
        },
        {
          "duration": 0.11999999999999744,
          "durationTicks": 24,
          "midi": 42,
          "name": "F#2",
          "ticks": 12624,
          "time": 63.12,
          "velocity": 0.8818897637795275
        },
        {
          "duration": 0.12000000000000455,
          "durationTicks": 24,
          "midi": 42,
          "name": "F#2",
          "ticks": 12648,
          "time": 63.239999999999995,
          "velocity": 0.8818897637795275
        },
        {
          "duration": 0.11999999999999744,
          "durationTicks": 24,
          "midi": 42,
          "name": "F#2",
          "ticks": 12672,
          "time": 63.36,
          "velocity": 0.8818897637795275
        },
        {
          "duration": 0.12000000000000455,
          "durationTicks": 24,
          "midi": 42,
          "name": "F#2",
          "ticks": 12720,
          "time": 63.599999999999994,
          "velocity": 0.8818897637795275
        },
        {
          "duration": 0.11999999999999744,
          "durationTicks": 24,
          "midi": 42,
          "name": "F#2",
          "ticks": 12744,
          "time": 63.72,
          "velocity": 0.8818897637795275
        },
        {
          "duration": 0.12000000000000455,
          "durationTicks": 24,
          "midi": 46,
          "name": "A#2",
          "ticks": 12768,
          "time": 63.839999999999996,
          "velocity": 0.6299212598425197
        },
        {
          "duration": 0.12000000000000455,
          "durationTicks": 24,
          "midi": 42,
          "name": "F#2",
          "ticks": 12816,
          "time": 64.08,
          "velocity": 0.8818897637795275
        },
        {
          "duration": 0.11999999999999034,
          "durationTicks": 24,
          "midi": 42,
          "name": "F#2",
          "ticks": 12840,
          "time": 64.2,
          "velocity": 0.8818897637795275
        },
        {
          "duration": 0.12000000000000455,
          "durationTicks": 24,
          "midi": 42,
          "name": "F#2",
          "ticks": 12864,
          "time": 64.32,
          "velocity": 0.8818897637795275
        },
        {
          "duration": 0.11999999999999034,
          "durationTicks": 24,
          "midi": 42,
          "name": "F#2",
          "ticks": 12912,
          "time": 64.56,
          "velocity": 0.8818897637795275
        },
        {
          "duration": 0.12000000000000455,
          "durationTicks": 24,
          "midi": 42,
          "name": "F#2",
          "ticks": 12936,
          "time": 64.67999999999999,
          "velocity": 0.8818897637795275
        },
        {
          "duration": 0.12000000000000455,
          "durationTicks": 24,
          "midi": 46,
          "name": "A#2",
          "ticks": 12960,
          "time": 64.8,
          "velocity": 0.6299212598425197
        },
        {
          "duration": 0.12000000000000455,
          "durationTicks": 24,
          "midi": 42,
          "name": "F#2",
          "ticks": 13008,
          "time": 65.03999999999999,
          "velocity": 0.8818897637795275
        },
        {
          "duration": 0.12000000000000455,
          "durationTicks": 24,
          "midi": 42,
          "name": "F#2",
          "ticks": 13032,
          "time": 65.16,
          "velocity": 0.8818897637795275
        },
        {
          "duration": 0.11999999999999034,
          "durationTicks": 24,
          "midi": 42,
          "name": "F#2",
          "ticks": 13056,
          "time": 65.28,
          "velocity": 0.8818897637795275
        },
        {
          "duration": 0.12000000000000455,
          "durationTicks": 24,
          "midi": 42,
          "name": "F#2",
          "ticks": 13104,
          "time": 65.52,
          "velocity": 0.8818897637795275
        },
        {
          "duration": 0.11999999999999034,
          "durationTicks": 24,
          "midi": 42,
          "name": "F#2",
          "ticks": 13128,
          "time": 65.64,
          "velocity": 0.8818897637795275
        },
        {
          "duration": 0.12000000000000455,
          "durationTicks": 24,
          "midi": 46,
          "name": "A#2",
          "ticks": 13152,
          "time": 65.75999999999999,
          "velocity": 0.6299212598425197
        },
        {
          "duration": 0.12000000000000455,
          "durationTicks": 24,
          "midi": 42,
          "name": "F#2",
          "ticks": 13200,
          "time": 66,
          "velocity": 0.8818897637795275
        },
        {
          "duration": 0.11999999999999034,
          "durationTicks": 24,
          "midi": 42,
          "name": "F#2",
          "ticks": 13224,
          "time": 66.12,
          "velocity": 0.8818897637795275
        },
        {
          "duration": 0.12000000000000455,
          "durationTicks": 24,
          "midi": 42,
          "name": "F#2",
          "ticks": 13248,
          "time": 66.24,
          "velocity": 0.8818897637795275
        },
        {
          "duration": 0.11999999999999034,
          "durationTicks": 24,
          "midi": 42,
          "name": "F#2",
          "ticks": 13296,
          "time": 66.48,
          "velocity": 0.8818897637795275
        },
        {
          "duration": 0.12000000000000455,
          "durationTicks": 24,
          "midi": 42,
          "name": "F#2",
          "ticks": 13320,
          "time": 66.6,
          "velocity": 0.8818897637795275
        },
        {
          "duration": 0.12000000000000455,
          "durationTicks": 24,
          "midi": 46,
          "name": "A#2",
          "ticks": 13344,
          "time": 66.72,
          "velocity": 0.6299212598425197
        },
        {
          "duration": 0.12000000000000455,
          "durationTicks": 24,
          "midi": 42,
          "name": "F#2",
          "ticks": 13392,
          "time": 66.96,
          "velocity": 0.8818897637795275
        },
        {
          "duration": 0.12000000000000455,
          "durationTicks": 24,
          "midi": 42,
          "name": "F#2",
          "ticks": 13416,
          "time": 67.08,
          "velocity": 0.8818897637795275
        },
        {
          "duration": 0.11999999999999034,
          "durationTicks": 24,
          "midi": 42,
          "name": "F#2",
          "ticks": 13440,
          "time": 67.2,
          "velocity": 0.8818897637795275
        },
        {
          "duration": 0.12000000000000455,
          "durationTicks": 24,
          "midi": 42,
          "name": "F#2",
          "ticks": 13488,
          "time": 67.44,
          "velocity": 0.8818897637795275
        },
        {
          "duration": 0.11999999999999034,
          "durationTicks": 24,
          "midi": 42,
          "name": "F#2",
          "ticks": 13512,
          "time": 67.56,
          "velocity": 0.8818897637795275
        },
        {
          "duration": 0.12000000000000455,
          "durationTicks": 24,
          "midi": 46,
          "name": "A#2",
          "ticks": 13536,
          "time": 67.67999999999999,
          "velocity": 0.6299212598425197
        },
        {
          "duration": 0.11999999999999034,
          "durationTicks": 24,
          "midi": 42,
          "name": "F#2",
          "ticks": 13584,
          "time": 67.92,
          "velocity": 0.8818897637795275
        },
        {
          "duration": 0.12000000000000455,
          "durationTicks": 24,
          "midi": 42,
          "name": "F#2",
          "ticks": 13608,
          "time": 68.03999999999999,
          "velocity": 0.8818897637795275
        },
        {
          "duration": 0.12000000000000455,
          "durationTicks": 24,
          "midi": 42,
          "name": "F#2",
          "ticks": 13632,
          "time": 68.16,
          "velocity": 0.8818897637795275
        },
        {
          "duration": 0.12000000000000455,
          "durationTicks": 24,
          "midi": 42,
          "name": "F#2",
          "ticks": 13680,
          "time": 68.39999999999999,
          "velocity": 0.8818897637795275
        },
        {
          "duration": 0.12000000000000455,
          "durationTicks": 24,
          "midi": 42,
          "name": "F#2",
          "ticks": 13704,
          "time": 68.52,
          "velocity": 0.8818897637795275
        },
        {
          "duration": 0.11999999999999034,
          "durationTicks": 24,
          "midi": 46,
          "name": "A#2",
          "ticks": 13728,
          "time": 68.64,
          "velocity": 0.6299212598425197
        },
        {
          "duration": 0.12000000000000455,
          "durationTicks": 24,
          "midi": 42,
          "name": "F#2",
          "ticks": 13776,
          "time": 68.88,
          "velocity": 0.8818897637795275
        },
        {
          "duration": 0.12000000000000455,
          "durationTicks": 24,
          "midi": 42,
          "name": "F#2",
          "ticks": 13800,
          "time": 69,
          "velocity": 0.8818897637795275
        },
        {
          "duration": 0.11999999999999034,
          "durationTicks": 24,
          "midi": 42,
          "name": "F#2",
          "ticks": 13824,
          "time": 69.12,
          "velocity": 0.8818897637795275
        },
        {
          "duration": 0.12000000000000455,
          "durationTicks": 24,
          "midi": 42,
          "name": "F#2",
          "ticks": 13872,
          "time": 69.36,
          "velocity": 0.8818897637795275
        },
        {
          "duration": 0.11999999999999034,
          "durationTicks": 24,
          "midi": 42,
          "name": "F#2",
          "ticks": 13896,
          "time": 69.48,
          "velocity": 0.8818897637795275
        },
        {
          "duration": 0.12000000000000455,
          "durationTicks": 24,
          "midi": 46,
          "name": "A#2",
          "ticks": 13920,
          "time": 69.6,
          "velocity": 0.6299212598425197
        },
        {
          "duration": 0.11999999999999034,
          "durationTicks": 24,
          "midi": 42,
          "name": "F#2",
          "ticks": 13968,
          "time": 69.84,
          "velocity": 0.8818897637795275
        },
        {
          "duration": 0.12000000000000455,
          "durationTicks": 24,
          "midi": 42,
          "name": "F#2",
          "ticks": 13992,
          "time": 69.96,
          "velocity": 0.8818897637795275
        },
        {
          "duration": 0.12000000000000455,
          "durationTicks": 24,
          "midi": 42,
          "name": "F#2",
          "ticks": 14016,
          "time": 70.08,
          "velocity": 0.8818897637795275
        },
        {
          "duration": 0.12000000000000455,
          "durationTicks": 24,
          "midi": 42,
          "name": "F#2",
          "ticks": 14064,
          "time": 70.32,
          "velocity": 0.8818897637795275
        },
        {
          "duration": 0.12000000000000455,
          "durationTicks": 24,
          "midi": 42,
          "name": "F#2",
          "ticks": 14088,
          "time": 70.44,
          "velocity": 0.8818897637795275
        },
        {
          "duration": 0.11999999999999034,
          "durationTicks": 24,
          "midi": 46,
          "name": "A#2",
          "ticks": 14112,
          "time": 70.56,
          "velocity": 0.6299212598425197
        },
        {
          "duration": 0.12000000000000455,
          "durationTicks": 24,
          "midi": 42,
          "name": "F#2",
          "ticks": 14160,
          "time": 70.8,
          "velocity": 0.8818897637795275
        },
        {
          "duration": 0.11999999999999034,
          "durationTicks": 24,
          "midi": 42,
          "name": "F#2",
          "ticks": 14184,
          "time": 70.92,
          "velocity": 0.8818897637795275
        },
        {
          "duration": 0.12000000000000455,
          "durationTicks": 24,
          "midi": 42,
          "name": "F#2",
          "ticks": 14208,
          "time": 71.03999999999999,
          "velocity": 0.8818897637795275
        },
        {
          "duration": 0.11999999999999034,
          "durationTicks": 24,
          "midi": 42,
          "name": "F#2",
          "ticks": 14256,
          "time": 71.28,
          "velocity": 0.8818897637795275
        },
        {
          "duration": 0.12000000000000455,
          "durationTicks": 24,
          "midi": 42,
          "name": "F#2",
          "ticks": 14280,
          "time": 71.39999999999999,
          "velocity": 0.8818897637795275
        },
        {
          "duration": 0.12000000000000455,
          "durationTicks": 24,
          "midi": 46,
          "name": "A#2",
          "ticks": 14304,
          "time": 71.52,
          "velocity": 0.6299212598425197
        },
        {
          "duration": 0.12000000000000455,
          "durationTicks": 24,
          "midi": 42,
          "name": "F#2",
          "ticks": 14352,
          "time": 71.75999999999999,
          "velocity": 0.8818897637795275
        },
        {
          "duration": 0.12000000000000455,
          "durationTicks": 24,
          "midi": 42,
          "name": "F#2",
          "ticks": 14376,
          "time": 71.88,
          "velocity": 0.8818897637795275
        },
        {
          "duration": 0.11999999999999034,
          "durationTicks": 24,
          "midi": 42,
          "name": "F#2",
          "ticks": 14400,
          "time": 72,
          "velocity": 0.8818897637795275
        },
        {
          "duration": 0.12000000000000455,
          "durationTicks": 24,
          "midi": 42,
          "name": "F#2",
          "ticks": 14448,
          "time": 72.24,
          "velocity": 0.8818897637795275
        },
        {
          "duration": 0.12000000000000455,
          "durationTicks": 24,
          "midi": 42,
          "name": "F#2",
          "ticks": 14472,
          "time": 72.36,
          "velocity": 0.8818897637795275
        },
        {
          "duration": 0.11999999999999034,
          "durationTicks": 24,
          "midi": 46,
          "name": "A#2",
          "ticks": 14496,
          "time": 72.48,
          "velocity": 0.6299212598425197
        },
        {
          "duration": 0.12000000000000455,
          "durationTicks": 24,
          "midi": 42,
          "name": "F#2",
          "ticks": 14544,
          "time": 72.72,
          "velocity": 0.8818897637795275
        },
        {
          "duration": 0.11999999999999034,
          "durationTicks": 24,
          "midi": 42,
          "name": "F#2",
          "ticks": 14568,
          "time": 72.84,
          "velocity": 0.8818897637795275
        },
        {
          "duration": 0.12000000000000455,
          "durationTicks": 24,
          "midi": 42,
          "name": "F#2",
          "ticks": 14592,
          "time": 72.96,
          "velocity": 0.8818897637795275
        },
        {
          "duration": 0.11999999999999034,
          "durationTicks": 24,
          "midi": 42,
          "name": "F#2",
          "ticks": 14640,
          "time": 73.2,
          "velocity": 0.8818897637795275
        },
        {
          "duration": 0.12000000000000455,
          "durationTicks": 24,
          "midi": 42,
          "name": "F#2",
          "ticks": 14664,
          "time": 73.32,
          "velocity": 0.8818897637795275
        },
        {
          "duration": 0.12000000000000455,
          "durationTicks": 24,
          "midi": 46,
          "name": "A#2",
          "ticks": 14688,
          "time": 73.44,
          "velocity": 0.6299212598425197
        },
        {
          "duration": 0.12000000000000455,
          "durationTicks": 24,
          "midi": 42,
          "name": "F#2",
          "ticks": 14736,
          "time": 73.67999999999999,
          "velocity": 0.8818897637795275
        },
        {
          "duration": 0.12000000000000455,
          "durationTicks": 24,
          "midi": 42,
          "name": "F#2",
          "ticks": 14760,
          "time": 73.8,
          "velocity": 0.8818897637795275
        },
        {
          "duration": 0.11999999999999034,
          "durationTicks": 24,
          "midi": 42,
          "name": "F#2",
          "ticks": 14784,
          "time": 73.92,
          "velocity": 0.8818897637795275
        },
        {
          "duration": 0.12000000000000455,
          "durationTicks": 24,
          "midi": 42,
          "name": "F#2",
          "ticks": 14832,
          "time": 74.16,
          "velocity": 0.8818897637795275
        },
        {
          "duration": 0.11999999999999034,
          "durationTicks": 24,
          "midi": 42,
          "name": "F#2",
          "ticks": 14856,
          "time": 74.28,
          "velocity": 0.8818897637795275
        },
        {
          "duration": 0.12000000000000455,
          "durationTicks": 24,
          "midi": 46,
          "name": "A#2",
          "ticks": 14880,
          "time": 74.39999999999999,
          "velocity": 0.6299212598425197
        },
        {
          "duration": 0.11999999999999034,
          "durationTicks": 24,
          "midi": 42,
          "name": "F#2",
          "ticks": 14928,
          "time": 74.64,
          "velocity": 0.8818897637795275
        },
        {
          "duration": 0.12000000000000455,
          "durationTicks": 24,
          "midi": 42,
          "name": "F#2",
          "ticks": 14952,
          "time": 74.75999999999999,
          "velocity": 0.8818897637795275
        },
        {
          "duration": 0.12000000000000455,
          "durationTicks": 24,
          "midi": 42,
          "name": "F#2",
          "ticks": 14976,
          "time": 74.88,
          "velocity": 0.8818897637795275
        },
        {
          "duration": 0.12000000000000455,
          "durationTicks": 24,
          "midi": 77,
          "name": "F5",
          "ticks": 15360,
          "time": 76.8,
          "velocity": 0.7244094488188977
        },
        {
          "duration": 0.12000000000000455,
          "durationTicks": 24,
          "midi": 49,
          "name": "C#3",
          "ticks": 15360,
          "time": 76.8,
          "velocity": 0.9133858267716536
        },
        {
          "duration": 0.12000000000000455,
          "durationTicks": 24,
          "midi": 36,
          "name": "C2",
          "ticks": 15360,
          "time": 76.8,
          "velocity": 0.7874015748031497
        },
        {
          "duration": 0.12000000000000455,
          "durationTicks": 24,
          "midi": 42,
          "name": "F#2",
          "ticks": 15360,
          "time": 76.8,
          "velocity": 0.8818897637795275
        },
        {
          "duration": 0.11999999999999034,
          "durationTicks": 24,
          "midi": 77,
          "name": "F5",
          "ticks": 15384,
          "time": 76.92,
          "velocity": 0.5354330708661418
        },
        {
          "duration": 0.12000000000000455,
          "durationTicks": 24,
          "midi": 77,
          "name": "F5",
          "ticks": 15408,
          "time": 77.03999999999999,
          "velocity": 0.28346456692913385
        },
        {
          "duration": 0.12000000000000455,
          "durationTicks": 24,
          "midi": 42,
          "name": "F#2",
          "ticks": 15408,
          "time": 77.03999999999999,
          "velocity": 0.8818897637795275
        },
        {
          "duration": 0.12000000000000455,
          "durationTicks": 24,
          "midi": 42,
          "name": "F#2",
          "ticks": 15432,
          "time": 77.16,
          "velocity": 0.8818897637795275
        },
        {
          "duration": 0.11999999999999034,
          "durationTicks": 24,
          "midi": 38,
          "name": "D2",
          "ticks": 15456,
          "time": 77.28,
          "velocity": 0.8818897637795275
        },
        {
          "duration": 0.11999999999999034,
          "durationTicks": 24,
          "midi": 46,
          "name": "A#2",
          "ticks": 15456,
          "time": 77.28,
          "velocity": 0.6299212598425197
        },
        {
          "duration": 0.12000000000000455,
          "durationTicks": 24,
          "midi": 42,
          "name": "F#2",
          "ticks": 15504,
          "time": 77.52,
          "velocity": 0.8818897637795275
        },
        {
          "duration": 0.11999999999999034,
          "durationTicks": 24,
          "midi": 42,
          "name": "F#2",
          "ticks": 15528,
          "time": 77.64,
          "velocity": 0.8818897637795275
        },
        {
          "duration": 0.12000000000000455,
          "durationTicks": 24,
          "midi": 77,
          "name": "F5",
          "ticks": 15552,
          "time": 77.75999999999999,
          "velocity": 0.7244094488188977
        },
        {
          "duration": 0.12000000000000455,
          "durationTicks": 24,
          "midi": 36,
          "name": "C2",
          "ticks": 15552,
          "time": 77.75999999999999,
          "velocity": 0.7874015748031497
        },
        {
          "duration": 0.12000000000000455,
          "durationTicks": 24,
          "midi": 42,
          "name": "F#2",
          "ticks": 15552,
          "time": 77.75999999999999,
          "velocity": 0.8818897637795275
        },
        {
          "duration": 0.12000000000000455,
          "durationTicks": 24,
          "midi": 77,
          "name": "F5",
          "ticks": 15576,
          "time": 77.88,
          "velocity": 0.47244094488188976
        },
        {
          "duration": 0.11999999999999034,
          "durationTicks": 24,
          "midi": 77,
          "name": "F5",
          "ticks": 15600,
          "time": 78,
          "velocity": 0.28346456692913385
        },
        {
          "duration": 0.11999999999999034,
          "durationTicks": 24,
          "midi": 42,
          "name": "F#2",
          "ticks": 15600,
          "time": 78,
          "velocity": 0.8818897637795275
        },
        {
          "duration": 0.11999999999999034,
          "durationTicks": 24,
          "midi": 64,
          "name": "E4",
          "ticks": 15600,
          "time": 78,
          "velocity": 0.5669291338582677
        },
        {
          "duration": 0.12000000000000455,
          "durationTicks": 24,
          "midi": 42,
          "name": "F#2",
          "ticks": 15624,
          "time": 78.11999999999999,
          "velocity": 0.8818897637795275
        },
        {
          "duration": 0.12000000000000455,
          "durationTicks": 24,
          "midi": 63,
          "name": "D#4",
          "ticks": 15624,
          "time": 78.11999999999999,
          "velocity": 0.5669291338582677
        },
        {
          "duration": 0.12000000000000455,
          "durationTicks": 24,
          "midi": 38,
          "name": "D2",
          "ticks": 15648,
          "time": 78.24,
          "velocity": 0.8818897637795275
        },
        {
          "duration": 0.12000000000000455,
          "durationTicks": 24,
          "midi": 46,
          "name": "A#2",
          "ticks": 15648,
          "time": 78.24,
          "velocity": 0.6299212598425197
        },
        {
          "duration": 0.11999999999999034,
          "durationTicks": 24,
          "midi": 42,
          "name": "F#2",
          "ticks": 15696,
          "time": 78.48,
          "velocity": 0.8818897637795275
        },
        {
          "duration": 0.12000000000000455,
          "durationTicks": 24,
          "midi": 42,
          "name": "F#2",
          "ticks": 15720,
          "time": 78.6,
          "velocity": 0.8818897637795275
        },
        {
          "duration": 0.12000000000000455,
          "durationTicks": 24,
          "midi": 77,
          "name": "F5",
          "ticks": 15744,
          "time": 78.72,
          "velocity": 0.7244094488188977
        },
        {
          "duration": 0.12000000000000455,
          "durationTicks": 24,
          "midi": 42,
          "name": "F#2",
          "ticks": 15744,
          "time": 78.72,
          "velocity": 0.8818897637795275
        },
        {
          "duration": 0.12000000000000455,
          "durationTicks": 24,
          "midi": 36,
          "name": "C2",
          "ticks": 15744,
          "time": 78.72,
          "velocity": 0.7874015748031497
        },
        {
          "duration": 0.11999999999999034,
          "durationTicks": 24,
          "midi": 77,
          "name": "F5",
          "ticks": 15768,
          "time": 78.84,
          "velocity": 0.47244094488188976
        },
        {
          "duration": 0.12000000000000455,
          "durationTicks": 24,
          "midi": 77,
          "name": "F5",
          "ticks": 15792,
          "time": 78.96,
          "velocity": 0.28346456692913385
        },
        {
          "duration": 0.12000000000000455,
          "durationTicks": 24,
          "midi": 42,
          "name": "F#2",
          "ticks": 15792,
          "time": 78.96,
          "velocity": 0.8818897637795275
        },
        {
          "duration": 0.12000000000000455,
          "durationTicks": 24,
          "midi": 42,
          "name": "F#2",
          "ticks": 15816,
          "time": 79.08,
          "velocity": 0.8818897637795275
        },
        {
          "duration": 0.11999999999999034,
          "durationTicks": 24,
          "midi": 38,
          "name": "D2",
          "ticks": 15840,
          "time": 79.2,
          "velocity": 0.8818897637795275
        },
        {
          "duration": 0.11999999999999034,
          "durationTicks": 24,
          "midi": 46,
          "name": "A#2",
          "ticks": 15840,
          "time": 79.2,
          "velocity": 0.6299212598425197
        },
        {
          "duration": 0.12000000000000455,
          "durationTicks": 24,
          "midi": 42,
          "name": "F#2",
          "ticks": 15888,
          "time": 79.44,
          "velocity": 0.8818897637795275
        },
        {
          "duration": 0.11999999999999034,
          "durationTicks": 24,
          "midi": 42,
          "name": "F#2",
          "ticks": 15912,
          "time": 79.56,
          "velocity": 0.8818897637795275
        },
        {
          "duration": 0.12000000000000455,
          "durationTicks": 24,
          "midi": 77,
          "name": "F5",
          "ticks": 15936,
          "time": 79.67999999999999,
          "velocity": 0.7244094488188977
        },
        {
          "duration": 0.12000000000000455,
          "durationTicks": 24,
          "midi": 42,
          "name": "F#2",
          "ticks": 15936,
          "time": 79.67999999999999,
          "velocity": 0.8818897637795275
        },
        {
          "duration": 0.12000000000000455,
          "durationTicks": 24,
          "midi": 36,
          "name": "C2",
          "ticks": 15936,
          "time": 79.67999999999999,
          "velocity": 0.7874015748031497
        },
        {
          "duration": 0.12000000000000455,
          "durationTicks": 24,
          "midi": 77,
          "name": "F5",
          "ticks": 15960,
          "time": 79.8,
          "velocity": 0.47244094488188976
        },
        {
          "duration": 0.11999999999999034,
          "durationTicks": 24,
          "midi": 77,
          "name": "F5",
          "ticks": 15984,
          "time": 79.92,
          "velocity": 0.28346456692913385
        },
        {
          "duration": 0.11999999999999034,
          "durationTicks": 24,
          "midi": 42,
          "name": "F#2",
          "ticks": 15984,
          "time": 79.92,
          "velocity": 0.8818897637795275
        },
        {
          "duration": 0.11999999999999034,
          "durationTicks": 24,
          "midi": 64,
          "name": "E4",
          "ticks": 15984,
          "time": 79.92,
          "velocity": 0.5669291338582677
        },
        {
          "duration": 0.12000000000000455,
          "durationTicks": 24,
          "midi": 42,
          "name": "F#2",
          "ticks": 16008,
          "time": 80.03999999999999,
          "velocity": 0.8818897637795275
        },
        {
          "duration": 0.12000000000000455,
          "durationTicks": 24,
          "midi": 63,
          "name": "D#4",
          "ticks": 16008,
          "time": 80.03999999999999,
          "velocity": 0.5669291338582677
        },
        {
          "duration": 0.12000000000000455,
          "durationTicks": 24,
          "midi": 46,
          "name": "A#2",
          "ticks": 16032,
          "time": 80.16,
          "velocity": 0.6299212598425197
        },
        {
          "duration": 0.12000000000000455,
          "durationTicks": 24,
          "midi": 38,
          "name": "D2",
          "ticks": 16032,
          "time": 80.16,
          "velocity": 0.8818897637795275
        },
        {
          "duration": 0.12000000000000455,
          "durationTicks": 24,
          "midi": 42,
          "name": "F#2",
          "ticks": 16080,
          "time": 80.39999999999999,
          "velocity": 0.8818897637795275
        },
        {
          "duration": 0.12000000000000455,
          "durationTicks": 24,
          "midi": 42,
          "name": "F#2",
          "ticks": 16104,
          "time": 80.52,
          "velocity": 0.8818897637795275
        },
        {
          "duration": 0.11999999999999034,
          "durationTicks": 24,
          "midi": 77,
          "name": "F5",
          "ticks": 16128,
          "time": 80.64,
          "velocity": 0.7244094488188977
        },
        {
          "duration": 0.11999999999999034,
          "durationTicks": 24,
          "midi": 36,
          "name": "C2",
          "ticks": 16128,
          "time": 80.64,
          "velocity": 0.7874015748031497
        },
        {
          "duration": 0.11999999999999034,
          "durationTicks": 24,
          "midi": 42,
          "name": "F#2",
          "ticks": 16128,
          "time": 80.64,
          "velocity": 0.8818897637795275
        },
        {
          "duration": 0.12000000000000455,
          "durationTicks": 24,
          "midi": 77,
          "name": "F5",
          "ticks": 16152,
          "time": 80.75999999999999,
          "velocity": 0.47244094488188976
        },
        {
          "duration": 0.12000000000000455,
          "durationTicks": 24,
          "midi": 77,
          "name": "F5",
          "ticks": 16176,
          "time": 80.88,
          "velocity": 0.28346456692913385
        },
        {
          "duration": 0.12000000000000455,
          "durationTicks": 24,
          "midi": 42,
          "name": "F#2",
          "ticks": 16176,
          "time": 80.88,
          "velocity": 0.8818897637795275
        },
        {
          "duration": 0.11999999999999034,
          "durationTicks": 24,
          "midi": 42,
          "name": "F#2",
          "ticks": 16200,
          "time": 81,
          "velocity": 0.8818897637795275
        },
        {
          "duration": 0.12000000000000455,
          "durationTicks": 24,
          "midi": 38,
          "name": "D2",
          "ticks": 16224,
          "time": 81.11999999999999,
          "velocity": 0.8818897637795275
        },
        {
          "duration": 0.12000000000000455,
          "durationTicks": 24,
          "midi": 46,
          "name": "A#2",
          "ticks": 16224,
          "time": 81.11999999999999,
          "velocity": 0.6299212598425197
        },
        {
          "duration": 0.12000000000000455,
          "durationTicks": 24,
          "midi": 42,
          "name": "F#2",
          "ticks": 16272,
          "time": 81.36,
          "velocity": 0.8818897637795275
        },
        {
          "duration": 0.11999999999999034,
          "durationTicks": 24,
          "midi": 42,
          "name": "F#2",
          "ticks": 16296,
          "time": 81.48,
          "velocity": 0.8818897637795275
        },
        {
          "duration": 0.12000000000000455,
          "durationTicks": 24,
          "midi": 77,
          "name": "F5",
          "ticks": 16320,
          "time": 81.6,
          "velocity": 0.7244094488188977
        },
        {
          "duration": 0.12000000000000455,
          "durationTicks": 24,
          "midi": 42,
          "name": "F#2",
          "ticks": 16320,
          "time": 81.6,
          "velocity": 0.8818897637795275
        },
        {
          "duration": 0.12000000000000455,
          "durationTicks": 24,
          "midi": 36,
          "name": "C2",
          "ticks": 16320,
          "time": 81.6,
          "velocity": 0.7874015748031497
        },
        {
          "duration": 0.12000000000000455,
          "durationTicks": 24,
          "midi": 77,
          "name": "F5",
          "ticks": 16344,
          "time": 81.72,
          "velocity": 0.47244094488188976
        },
        {
          "duration": 0.11999999999999034,
          "durationTicks": 24,
          "midi": 77,
          "name": "F5",
          "ticks": 16368,
          "time": 81.84,
          "velocity": 0.28346456692913385
        },
        {
          "duration": 0.11999999999999034,
          "durationTicks": 24,
          "midi": 42,
          "name": "F#2",
          "ticks": 16368,
          "time": 81.84,
          "velocity": 0.8818897637795275
        },
        {
          "duration": 0.11999999999999034,
          "durationTicks": 24,
          "midi": 64,
          "name": "E4",
          "ticks": 16368,
          "time": 81.84,
          "velocity": 0.5669291338582677
        },
        {
          "duration": 0.12000000000000455,
          "durationTicks": 24,
          "midi": 42,
          "name": "F#2",
          "ticks": 16392,
          "time": 81.96,
          "velocity": 0.8818897637795275
        },
        {
          "duration": 0.12000000000000455,
          "durationTicks": 24,
          "midi": 63,
          "name": "D#4",
          "ticks": 16392,
          "time": 81.96,
          "velocity": 0.5669291338582677
        },
        {
          "duration": 0.12000000000000455,
          "durationTicks": 24,
          "midi": 46,
          "name": "A#2",
          "ticks": 16416,
          "time": 82.08,
          "velocity": 0.6299212598425197
        },
        {
          "duration": 0.12000000000000455,
          "durationTicks": 24,
          "midi": 38,
          "name": "D2",
          "ticks": 16416,
          "time": 82.08,
          "velocity": 0.8818897637795275
        },
        {
          "duration": 0.12000000000000455,
          "durationTicks": 24,
          "midi": 42,
          "name": "F#2",
          "ticks": 16464,
          "time": 82.32,
          "velocity": 0.8818897637795275
        },
        {
          "duration": 0.12000000000000455,
          "durationTicks": 24,
          "midi": 42,
          "name": "F#2",
          "ticks": 16488,
          "time": 82.44,
          "velocity": 0.8818897637795275
        },
        {
          "duration": 0.11999999999999034,
          "durationTicks": 24,
          "midi": 77,
          "name": "F5",
          "ticks": 16512,
          "time": 82.56,
          "velocity": 0.7244094488188977
        },
        {
          "duration": 0.11999999999999034,
          "durationTicks": 24,
          "midi": 36,
          "name": "C2",
          "ticks": 16512,
          "time": 82.56,
          "velocity": 0.7874015748031497
        },
        {
          "duration": 0.11999999999999034,
          "durationTicks": 24,
          "midi": 42,
          "name": "F#2",
          "ticks": 16512,
          "time": 82.56,
          "velocity": 0.8818897637795275
        },
        {
          "duration": 0.12000000000000455,
          "durationTicks": 24,
          "midi": 77,
          "name": "F5",
          "ticks": 16536,
          "time": 82.67999999999999,
          "velocity": 0.47244094488188976
        },
        {
          "duration": 0.12000000000000455,
          "durationTicks": 24,
          "midi": 77,
          "name": "F5",
          "ticks": 16560,
          "time": 82.8,
          "velocity": 0.28346456692913385
        },
        {
          "duration": 0.12000000000000455,
          "durationTicks": 24,
          "midi": 42,
          "name": "F#2",
          "ticks": 16560,
          "time": 82.8,
          "velocity": 0.8818897637795275
        },
        {
          "duration": 0.11999999999999034,
          "durationTicks": 24,
          "midi": 42,
          "name": "F#2",
          "ticks": 16584,
          "time": 82.92,
          "velocity": 0.8818897637795275
        },
        {
          "duration": 0.12000000000000455,
          "durationTicks": 24,
          "midi": 38,
          "name": "D2",
          "ticks": 16608,
          "time": 83.03999999999999,
          "velocity": 0.8818897637795275
        },
        {
          "duration": 0.12000000000000455,
          "durationTicks": 24,
          "midi": 46,
          "name": "A#2",
          "ticks": 16608,
          "time": 83.03999999999999,
          "velocity": 0.6299212598425197
        },
        {
          "duration": 0.11999999999999034,
          "durationTicks": 24,
          "midi": 42,
          "name": "F#2",
          "ticks": 16656,
          "time": 83.28,
          "velocity": 0.8818897637795275
        },
        {
          "duration": 0.12000000000000455,
          "durationTicks": 24,
          "midi": 42,
          "name": "F#2",
          "ticks": 16680,
          "time": 83.39999999999999,
          "velocity": 0.8818897637795275
        },
        {
          "duration": 0.12000000000000455,
          "durationTicks": 24,
          "midi": 77,
          "name": "F5",
          "ticks": 16704,
          "time": 83.52,
          "velocity": 0.7244094488188977
        },
        {
          "duration": 0.12000000000000455,
          "durationTicks": 24,
          "midi": 42,
          "name": "F#2",
          "ticks": 16704,
          "time": 83.52,
          "velocity": 0.8818897637795275
        },
        {
          "duration": 0.12000000000000455,
          "durationTicks": 24,
          "midi": 36,
          "name": "C2",
          "ticks": 16704,
          "time": 83.52,
          "velocity": 0.7874015748031497
        },
        {
          "duration": 0.11999999999999034,
          "durationTicks": 24,
          "midi": 77,
          "name": "F5",
          "ticks": 16728,
          "time": 83.64,
          "velocity": 0.47244094488188976
        },
        {
          "duration": 0.12000000000000455,
          "durationTicks": 24,
          "midi": 77,
          "name": "F5",
          "ticks": 16752,
          "time": 83.75999999999999,
          "velocity": 0.28346456692913385
        },
        {
          "duration": 0.12000000000000455,
          "durationTicks": 24,
          "midi": 64,
          "name": "E4",
          "ticks": 16752,
          "time": 83.75999999999999,
          "velocity": 0.5669291338582677
        },
        {
          "duration": 0.12000000000000455,
          "durationTicks": 24,
          "midi": 42,
          "name": "F#2",
          "ticks": 16752,
          "time": 83.75999999999999,
          "velocity": 0.8818897637795275
        },
        {
          "duration": 0.12000000000000455,
          "durationTicks": 24,
          "midi": 42,
          "name": "F#2",
          "ticks": 16776,
          "time": 83.88,
          "velocity": 0.8818897637795275
        },
        {
          "duration": 0.12000000000000455,
          "durationTicks": 24,
          "midi": 63,
          "name": "D#4",
          "ticks": 16776,
          "time": 83.88,
          "velocity": 0.5669291338582677
        },
        {
          "duration": 0.11999999999999034,
          "durationTicks": 24,
          "midi": 46,
          "name": "A#2",
          "ticks": 16800,
          "time": 84,
          "velocity": 0.6299212598425197
        },
        {
          "duration": 0.11999999999999034,
          "durationTicks": 24,
          "midi": 38,
          "name": "D2",
          "ticks": 16800,
          "time": 84,
          "velocity": 0.8818897637795275
        },
        {
          "duration": 0.12000000000000455,
          "durationTicks": 24,
          "midi": 42,
          "name": "F#2",
          "ticks": 16848,
          "time": 84.24,
          "velocity": 0.8818897637795275
        },
        {
          "duration": 0.11999999999999034,
          "durationTicks": 24,
          "midi": 42,
          "name": "F#2",
          "ticks": 16872,
          "time": 84.36,
          "velocity": 0.8818897637795275
        },
        {
          "duration": 0.12000000000000455,
          "durationTicks": 24,
          "midi": 77,
          "name": "F5",
          "ticks": 16896,
          "time": 84.47999999999999,
          "velocity": 0.7244094488188977
        },
        {
          "duration": 0.12000000000000455,
          "durationTicks": 24,
          "midi": 36,
          "name": "C2",
          "ticks": 16896,
          "time": 84.47999999999999,
          "velocity": 0.7874015748031497
        },
        {
          "duration": 0.12000000000000455,
          "durationTicks": 24,
          "midi": 42,
          "name": "F#2",
          "ticks": 16896,
          "time": 84.47999999999999,
          "velocity": 0.8818897637795275
        },
        {
          "duration": 0.12000000000000455,
          "durationTicks": 24,
          "midi": 77,
          "name": "F5",
          "ticks": 16920,
          "time": 84.6,
          "velocity": 0.47244094488188976
        },
        {
          "duration": 0.12000000000000455,
          "durationTicks": 24,
          "midi": 77,
          "name": "F5",
          "ticks": 16944,
          "time": 84.72,
          "velocity": 0.28346456692913385
        },
        {
          "duration": 0.12000000000000455,
          "durationTicks": 24,
          "midi": 42,
          "name": "F#2",
          "ticks": 16944,
          "time": 84.72,
          "velocity": 0.8818897637795275
        },
        {
          "duration": 0.11999999999999034,
          "durationTicks": 24,
          "midi": 42,
          "name": "F#2",
          "ticks": 16968,
          "time": 84.84,
          "velocity": 0.8818897637795275
        },
        {
          "duration": 0.12000000000000455,
          "durationTicks": 24,
          "midi": 38,
          "name": "D2",
          "ticks": 16992,
          "time": 84.96,
          "velocity": 0.8818897637795275
        },
        {
          "duration": 0.12000000000000455,
          "durationTicks": 24,
          "midi": 46,
          "name": "A#2",
          "ticks": 16992,
          "time": 84.96,
          "velocity": 0.6299212598425197
        },
        {
          "duration": 0.11999999999999034,
          "durationTicks": 24,
          "midi": 42,
          "name": "F#2",
          "ticks": 17040,
          "time": 85.2,
          "velocity": 0.8818897637795275
        },
        {
          "duration": 0.12000000000000455,
          "durationTicks": 24,
          "midi": 42,
          "name": "F#2",
          "ticks": 17064,
          "time": 85.32,
          "velocity": 0.8818897637795275
        },
        {
          "duration": 0.12000000000000455,
          "durationTicks": 24,
          "midi": 77,
          "name": "F5",
          "ticks": 17088,
          "time": 85.44,
          "velocity": 0.7244094488188977
        },
        {
          "duration": 0.12000000000000455,
          "durationTicks": 24,
          "midi": 36,
          "name": "C2",
          "ticks": 17088,
          "time": 85.44,
          "velocity": 0.7874015748031497
        },
        {
          "duration": 0.12000000000000455,
          "durationTicks": 24,
          "midi": 42,
          "name": "F#2",
          "ticks": 17088,
          "time": 85.44,
          "velocity": 0.8818897637795275
        },
        {
          "duration": 0.11999999999999034,
          "durationTicks": 24,
          "midi": 77,
          "name": "F5",
          "ticks": 17112,
          "time": 85.56,
          "velocity": 0.47244094488188976
        },
        {
          "duration": 0.12000000000000455,
          "durationTicks": 24,
          "midi": 77,
          "name": "F5",
          "ticks": 17136,
          "time": 85.67999999999999,
          "velocity": 0.28346456692913385
        },
        {
          "duration": 0.12000000000000455,
          "durationTicks": 24,
          "midi": 64,
          "name": "E4",
          "ticks": 17136,
          "time": 85.67999999999999,
          "velocity": 0.5669291338582677
        },
        {
          "duration": 0.12000000000000455,
          "durationTicks": 24,
          "midi": 42,
          "name": "F#2",
          "ticks": 17136,
          "time": 85.67999999999999,
          "velocity": 0.8818897637795275
        },
        {
          "duration": 0.12000000000000455,
          "durationTicks": 24,
          "midi": 42,
          "name": "F#2",
          "ticks": 17160,
          "time": 85.8,
          "velocity": 0.8818897637795275
        },
        {
          "duration": 0.12000000000000455,
          "durationTicks": 24,
          "midi": 63,
          "name": "D#4",
          "ticks": 17160,
          "time": 85.8,
          "velocity": 0.5669291338582677
        },
        {
          "duration": 0.11999999999999034,
          "durationTicks": 24,
          "midi": 46,
          "name": "A#2",
          "ticks": 17184,
          "time": 85.92,
          "velocity": 0.6299212598425197
        },
        {
          "duration": 0.11999999999999034,
          "durationTicks": 24,
          "midi": 38,
          "name": "D2",
          "ticks": 17184,
          "time": 85.92,
          "velocity": 0.8818897637795275
        },
        {
          "duration": 0.12000000000000455,
          "durationTicks": 24,
          "midi": 42,
          "name": "F#2",
          "ticks": 17232,
          "time": 86.16,
          "velocity": 0.8818897637795275
        },
        {
          "duration": 0.11999999999999034,
          "durationTicks": 24,
          "midi": 42,
          "name": "F#2",
          "ticks": 17256,
          "time": 86.28,
          "velocity": 0.8818897637795275
        },
        {
          "duration": 0.12000000000000455,
          "durationTicks": 24,
          "midi": 77,
          "name": "F5",
          "ticks": 17280,
          "time": 86.39999999999999,
          "velocity": 0.7244094488188977
        },
        {
          "duration": 0.12000000000000455,
          "durationTicks": 24,
          "midi": 36,
          "name": "C2",
          "ticks": 17280,
          "time": 86.39999999999999,
          "velocity": 0.7874015748031497
        },
        {
          "duration": 0.12000000000000455,
          "durationTicks": 24,
          "midi": 42,
          "name": "F#2",
          "ticks": 17280,
          "time": 86.39999999999999,
          "velocity": 0.8818897637795275
        },
        {
          "duration": 0.12000000000000455,
          "durationTicks": 24,
          "midi": 77,
          "name": "F5",
          "ticks": 17304,
          "time": 86.52,
          "velocity": 0.47244094488188976
        },
        {
          "duration": 0.11999999999999034,
          "durationTicks": 24,
          "midi": 77,
          "name": "F5",
          "ticks": 17328,
          "time": 86.64,
          "velocity": 0.28346456692913385
        },
        {
          "duration": 0.11999999999999034,
          "durationTicks": 24,
          "midi": 42,
          "name": "F#2",
          "ticks": 17328,
          "time": 86.64,
          "velocity": 0.8818897637795275
        },
        {
          "duration": 0.12000000000000455,
          "durationTicks": 24,
          "midi": 42,
          "name": "F#2",
          "ticks": 17352,
          "time": 86.75999999999999,
          "velocity": 0.8818897637795275
        },
        {
          "duration": 0.12000000000000455,
          "durationTicks": 24,
          "midi": 46,
          "name": "A#2",
          "ticks": 17376,
          "time": 86.88,
          "velocity": 0.6299212598425197
        },
        {
          "duration": 0.12000000000000455,
          "durationTicks": 24,
          "midi": 38,
          "name": "D2",
          "ticks": 17376,
          "time": 86.88,
          "velocity": 0.8818897637795275
        },
        {
          "duration": 0.12000000000000455,
          "durationTicks": 24,
          "midi": 42,
          "name": "F#2",
          "ticks": 17424,
          "time": 87.11999999999999,
          "velocity": 0.8818897637795275
        },
        {
          "duration": 0.12000000000000455,
          "durationTicks": 24,
          "midi": 42,
          "name": "F#2",
          "ticks": 17448,
          "time": 87.24,
          "velocity": 0.8818897637795275
        },
        {
          "duration": 0.11999999999999034,
          "durationTicks": 24,
          "midi": 77,
          "name": "F5",
          "ticks": 17472,
          "time": 87.36,
          "velocity": 0.7244094488188977
        },
        {
          "duration": 0.11999999999999034,
          "durationTicks": 24,
          "midi": 36,
          "name": "C2",
          "ticks": 17472,
          "time": 87.36,
          "velocity": 0.7874015748031497
        },
        {
          "duration": 0.11999999999999034,
          "durationTicks": 24,
          "midi": 42,
          "name": "F#2",
          "ticks": 17472,
          "time": 87.36,
          "velocity": 0.8818897637795275
        },
        {
          "duration": 0.12000000000000455,
          "durationTicks": 24,
          "midi": 77,
          "name": "F5",
          "ticks": 17496,
          "time": 87.47999999999999,
          "velocity": 0.47244094488188976
        },
        {
          "duration": 0.12000000000000455,
          "durationTicks": 24,
          "midi": 77,
          "name": "F5",
          "ticks": 17520,
          "time": 87.6,
          "velocity": 0.28346456692913385
        },
        {
          "duration": 0.12000000000000455,
          "durationTicks": 24,
          "midi": 64,
          "name": "E4",
          "ticks": 17520,
          "time": 87.6,
          "velocity": 0.5669291338582677
        },
        {
          "duration": 0.12000000000000455,
          "durationTicks": 24,
          "midi": 42,
          "name": "F#2",
          "ticks": 17520,
          "time": 87.6,
          "velocity": 0.8818897637795275
        },
        {
          "duration": 0.12000000000000455,
          "durationTicks": 24,
          "midi": 42,
          "name": "F#2",
          "ticks": 17544,
          "time": 87.72,
          "velocity": 0.8818897637795275
        },
        {
          "duration": 0.12000000000000455,
          "durationTicks": 24,
          "midi": 63,
          "name": "D#4",
          "ticks": 17544,
          "time": 87.72,
          "velocity": 0.5669291338582677
        },
        {
          "duration": 0.11999999999999034,
          "durationTicks": 24,
          "midi": 46,
          "name": "A#2",
          "ticks": 17568,
          "time": 87.84,
          "velocity": 0.6299212598425197
        },
        {
          "duration": 0.11999999999999034,
          "durationTicks": 24,
          "midi": 38,
          "name": "D2",
          "ticks": 17568,
          "time": 87.84,
          "velocity": 0.8818897637795275
        },
        {
          "duration": 0.12000000000000455,
          "durationTicks": 24,
          "midi": 42,
          "name": "F#2",
          "ticks": 17616,
          "time": 88.08,
          "velocity": 0.8818897637795275
        },
        {
          "duration": 0.11999999999999034,
          "durationTicks": 24,
          "midi": 42,
          "name": "F#2",
          "ticks": 17640,
          "time": 88.2,
          "velocity": 0.8818897637795275
        },
        {
          "duration": 0.12000000000000455,
          "durationTicks": 24,
          "midi": 77,
          "name": "F5",
          "ticks": 17664,
          "time": 88.32,
          "velocity": 0.7244094488188977
        },
        {
          "duration": 0.12000000000000455,
          "durationTicks": 24,
          "midi": 42,
          "name": "F#2",
          "ticks": 17664,
          "time": 88.32,
          "velocity": 0.8818897637795275
        },
        {
          "duration": 0.12000000000000455,
          "durationTicks": 24,
          "midi": 36,
          "name": "C2",
          "ticks": 17664,
          "time": 88.32,
          "velocity": 0.7874015748031497
        },
        {
          "duration": 0.12000000000000455,
          "durationTicks": 24,
          "midi": 77,
          "name": "F5",
          "ticks": 17688,
          "time": 88.44,
          "velocity": 0.47244094488188976
        },
        {
          "duration": 0.11999999999999034,
          "durationTicks": 24,
          "midi": 77,
          "name": "F5",
          "ticks": 17712,
          "time": 88.56,
          "velocity": 0.28346456692913385
        },
        {
          "duration": 0.11999999999999034,
          "durationTicks": 24,
          "midi": 42,
          "name": "F#2",
          "ticks": 17712,
          "time": 88.56,
          "velocity": 0.8818897637795275
        },
        {
          "duration": 0.12000000000000455,
          "durationTicks": 24,
          "midi": 42,
          "name": "F#2",
          "ticks": 17736,
          "time": 88.67999999999999,
          "velocity": 0.8818897637795275
        },
        {
          "duration": 0.12000000000000455,
          "durationTicks": 24,
          "midi": 46,
          "name": "A#2",
          "ticks": 17760,
          "time": 88.8,
          "velocity": 0.6299212598425197
        },
        {
          "duration": 0.12000000000000455,
          "durationTicks": 24,
          "midi": 38,
          "name": "D2",
          "ticks": 17760,
          "time": 88.8,
          "velocity": 0.8818897637795275
        },
        {
          "duration": 0.12000000000000455,
          "durationTicks": 24,
          "midi": 42,
          "name": "F#2",
          "ticks": 17808,
          "time": 89.03999999999999,
          "velocity": 0.8818897637795275
        },
        {
          "duration": 0.12000000000000455,
          "durationTicks": 24,
          "midi": 42,
          "name": "F#2",
          "ticks": 17832,
          "time": 89.16,
          "velocity": 0.8818897637795275
        },
        {
          "duration": 0.11999999999999034,
          "durationTicks": 24,
          "midi": 77,
          "name": "F5",
          "ticks": 17856,
          "time": 89.28,
          "velocity": 0.7244094488188977
        },
        {
          "duration": 0.11999999999999034,
          "durationTicks": 24,
          "midi": 42,
          "name": "F#2",
          "ticks": 17856,
          "time": 89.28,
          "velocity": 0.8818897637795275
        },
        {
          "duration": 0.11999999999999034,
          "durationTicks": 24,
          "midi": 36,
          "name": "C2",
          "ticks": 17856,
          "time": 89.28,
          "velocity": 0.7874015748031497
        },
        {
          "duration": 0.12000000000000455,
          "durationTicks": 24,
          "midi": 77,
          "name": "F5",
          "ticks": 17880,
          "time": 89.39999999999999,
          "velocity": 0.47244094488188976
        },
        {
          "duration": 0.12000000000000455,
          "durationTicks": 24,
          "midi": 77,
          "name": "F5",
          "ticks": 17904,
          "time": 89.52,
          "velocity": 0.28346456692913385
        },
        {
          "duration": 0.12000000000000455,
          "durationTicks": 24,
          "midi": 64,
          "name": "E4",
          "ticks": 17904,
          "time": 89.52,
          "velocity": 0.5669291338582677
        },
        {
          "duration": 0.12000000000000455,
          "durationTicks": 24,
          "midi": 42,
          "name": "F#2",
          "ticks": 17904,
          "time": 89.52,
          "velocity": 0.8818897637795275
        },
        {
          "duration": 0.11999999999999034,
          "durationTicks": 24,
          "midi": 63,
          "name": "D#4",
          "ticks": 17928,
          "time": 89.64,
          "velocity": 0.5669291338582677
        },
        {
          "duration": 0.11999999999999034,
          "durationTicks": 24,
          "midi": 42,
          "name": "F#2",
          "ticks": 17928,
          "time": 89.64,
          "velocity": 0.8818897637795275
        },
        {
          "duration": 0.12000000000000455,
          "durationTicks": 24,
          "midi": 46,
          "name": "A#2",
          "ticks": 17952,
          "time": 89.75999999999999,
          "velocity": 0.6299212598425197
        },
        {
          "duration": 0.12000000000000455,
          "durationTicks": 24,
          "midi": 38,
          "name": "D2",
          "ticks": 17952,
          "time": 89.75999999999999,
          "velocity": 0.8818897637795275
        },
        {
          "duration": 0.11999999999999034,
          "durationTicks": 24,
          "midi": 42,
          "name": "F#2",
          "ticks": 18000,
          "time": 90,
          "velocity": 0.8818897637795275
        },
        {
          "duration": 0.12000000000000455,
          "durationTicks": 24,
          "midi": 42,
          "name": "F#2",
          "ticks": 18024,
          "time": 90.11999999999999,
          "velocity": 0.8818897637795275
        },
        {
          "duration": 0.12000000000000455,
          "durationTicks": 24,
          "midi": 36,
          "name": "C2",
          "ticks": 18048,
          "time": 90.24,
          "velocity": 0.7874015748031497
        },
        {
          "duration": 0.12000000000000455,
          "durationTicks": 24,
          "midi": 42,
          "name": "F#2",
          "ticks": 18048,
          "time": 90.24,
          "velocity": 0.8818897637795275
        },
        {
          "duration": 0.12000000000000455,
          "durationTicks": 24,
          "midi": 77,
          "name": "F5",
          "ticks": 18048,
          "time": 90.24,
          "velocity": 0.7244094488188977
        },
        {
          "duration": 0.11999999999999034,
          "durationTicks": 24,
          "midi": 77,
          "name": "F5",
          "ticks": 18072,
          "time": 90.36,
          "velocity": 0.47244094488188976
        },
        {
          "duration": 0.12000000000000455,
          "durationTicks": 24,
          "midi": 77,
          "name": "F5",
          "ticks": 18096,
          "time": 90.47999999999999,
          "velocity": 0.28346456692913385
        },
        {
          "duration": 0.12000000000000455,
          "durationTicks": 24,
          "midi": 42,
          "name": "F#2",
          "ticks": 18096,
          "time": 90.47999999999999,
          "velocity": 0.8818897637795275
        },
        {
          "duration": 0.12000000000000455,
          "durationTicks": 24,
          "midi": 42,
          "name": "F#2",
          "ticks": 18120,
          "time": 90.6,
          "velocity": 0.8818897637795275
        },
        {
          "duration": 0.12000000000000455,
          "durationTicks": 24,
          "midi": 38,
          "name": "D2",
          "ticks": 18144,
          "time": 90.72,
          "velocity": 0.8818897637795275
        },
        {
          "duration": 0.12000000000000455,
          "durationTicks": 24,
          "midi": 46,
          "name": "A#2",
          "ticks": 18144,
          "time": 90.72,
          "velocity": 0.6299212598425197
        },
        {
          "duration": 0.12000000000000455,
          "durationTicks": 24,
          "midi": 42,
          "name": "F#2",
          "ticks": 18192,
          "time": 90.96,
          "velocity": 0.8818897637795275
        },
        {
          "duration": 0.12000000000000455,
          "durationTicks": 24,
          "midi": 42,
          "name": "F#2",
          "ticks": 18216,
          "time": 91.08,
          "velocity": 0.8818897637795275
        },
        {
          "duration": 0.11999999999999034,
          "durationTicks": 24,
          "midi": 77,
          "name": "F5",
          "ticks": 18240,
          "time": 91.2,
          "velocity": 0.7244094488188977
        },
        {
          "duration": 0.11999999999999034,
          "durationTicks": 24,
          "midi": 36,
          "name": "C2",
          "ticks": 18240,
          "time": 91.2,
          "velocity": 0.7874015748031497
        },
        {
          "duration": 0.11999999999999034,
          "durationTicks": 24,
          "midi": 42,
          "name": "F#2",
          "ticks": 18240,
          "time": 91.2,
          "velocity": 0.8818897637795275
        },
        {
          "duration": 0.12000000000000455,
          "durationTicks": 24,
          "midi": 77,
          "name": "F5",
          "ticks": 18264,
          "time": 91.32,
          "velocity": 0.47244094488188976
        },
        {
          "duration": 0.12000000000000455,
          "durationTicks": 24,
          "midi": 64,
          "name": "E4",
          "ticks": 18288,
          "time": 91.44,
          "velocity": 0.5669291338582677
        },
        {
          "duration": 0.12000000000000455,
          "durationTicks": 24,
          "midi": 42,
          "name": "F#2",
          "ticks": 18288,
          "time": 91.44,
          "velocity": 0.8818897637795275
        },
        {
          "duration": 0.12000000000000455,
          "durationTicks": 24,
          "midi": 77,
          "name": "F5",
          "ticks": 18288,
          "time": 91.44,
          "velocity": 0.28346456692913385
        },
        {
          "duration": 0.11999999999999034,
          "durationTicks": 24,
          "midi": 63,
          "name": "D#4",
          "ticks": 18312,
          "time": 91.56,
          "velocity": 0.5669291338582677
        },
        {
          "duration": 0.11999999999999034,
          "durationTicks": 24,
          "midi": 42,
          "name": "F#2",
          "ticks": 18312,
          "time": 91.56,
          "velocity": 0.8818897637795275
        },
        {
          "duration": 0.12000000000000455,
          "durationTicks": 24,
          "midi": 38,
          "name": "D2",
          "ticks": 18336,
          "time": 91.67999999999999,
          "velocity": 0.8818897637795275
        },
        {
          "duration": 0.12000000000000455,
          "durationTicks": 24,
          "midi": 46,
          "name": "A#2",
          "ticks": 18336,
          "time": 91.67999999999999,
          "velocity": 0.6299212598425197
        },
        {
          "duration": 0.11999999999999034,
          "durationTicks": 24,
          "midi": 42,
          "name": "F#2",
          "ticks": 18384,
          "time": 91.92,
          "velocity": 0.8818897637795275
        },
        {
          "duration": 0.12000000000000455,
          "durationTicks": 24,
          "midi": 42,
          "name": "F#2",
          "ticks": 18408,
          "time": 92.03999999999999,
          "velocity": 0.8818897637795275
        },
        {
          "duration": 0.12000000000000455,
          "durationTicks": 24,
          "midi": 77,
          "name": "F5",
          "ticks": 18432,
          "time": 92.16,
          "velocity": 0.7244094488188977
        },
        {
          "duration": 0.12000000000000455,
          "durationTicks": 24,
          "midi": 36,
          "name": "C2",
          "ticks": 18432,
          "time": 92.16,
          "velocity": 0.7874015748031497
        },
        {
          "duration": 0.12000000000000455,
          "durationTicks": 24,
          "midi": 42,
          "name": "F#2",
          "ticks": 18432,
          "time": 92.16,
          "velocity": 0.8818897637795275
        },
        {
          "duration": 0.11999999999999034,
          "durationTicks": 24,
          "midi": 77,
          "name": "F5",
          "ticks": 18456,
          "time": 92.28,
          "velocity": 0.5354330708661418
        },
        {
          "duration": 0.12000000000000455,
          "durationTicks": 24,
          "midi": 77,
          "name": "F5",
          "ticks": 18480,
          "time": 92.39999999999999,
          "velocity": 0.28346456692913385
        },
        {
          "duration": 0.12000000000000455,
          "durationTicks": 24,
          "midi": 42,
          "name": "F#2",
          "ticks": 18480,
          "time": 92.39999999999999,
          "velocity": 0.8818897637795275
        },
        {
          "duration": 0.12000000000000455,
          "durationTicks": 24,
          "midi": 42,
          "name": "F#2",
          "ticks": 18504,
          "time": 92.52,
          "velocity": 0.8818897637795275
        },
        {
          "duration": 0.11999999999999034,
          "durationTicks": 24,
          "midi": 38,
          "name": "D2",
          "ticks": 18528,
          "time": 92.64,
          "velocity": 0.8818897637795275
        },
        {
          "duration": 0.11999999999999034,
          "durationTicks": 24,
          "midi": 46,
          "name": "A#2",
          "ticks": 18528,
          "time": 92.64,
          "velocity": 0.6299212598425197
        },
        {
          "duration": 0.12000000000000455,
          "durationTicks": 24,
          "midi": 42,
          "name": "F#2",
          "ticks": 18576,
          "time": 92.88,
          "velocity": 0.8818897637795275
        },
        {
          "duration": 0.11999999999999034,
          "durationTicks": 24,
          "midi": 42,
          "name": "F#2",
          "ticks": 18600,
          "time": 93,
          "velocity": 0.8818897637795275
        },
        {
          "duration": 0.12000000000000455,
          "durationTicks": 24,
          "midi": 77,
          "name": "F5",
          "ticks": 18624,
          "time": 93.11999999999999,
          "velocity": 0.7244094488188977
        },
        {
          "duration": 0.12000000000000455,
          "durationTicks": 24,
          "midi": 42,
          "name": "F#2",
          "ticks": 18624,
          "time": 93.11999999999999,
          "velocity": 0.8818897637795275
        },
        {
          "duration": 0.12000000000000455,
          "durationTicks": 24,
          "midi": 36,
          "name": "C2",
          "ticks": 18624,
          "time": 93.11999999999999,
          "velocity": 0.7874015748031497
        },
        {
          "duration": 0.12000000000000455,
          "durationTicks": 24,
          "midi": 77,
          "name": "F5",
          "ticks": 18648,
          "time": 93.24,
          "velocity": 0.47244094488188976
        },
        {
          "duration": 0.11999999999999034,
          "durationTicks": 24,
          "midi": 77,
          "name": "F5",
          "ticks": 18672,
          "time": 93.36,
          "velocity": 0.28346456692913385
        },
        {
          "duration": 0.11999999999999034,
          "durationTicks": 24,
          "midi": 64,
          "name": "E4",
          "ticks": 18672,
          "time": 93.36,
          "velocity": 0.5669291338582677
        },
        {
          "duration": 0.11999999999999034,
          "durationTicks": 24,
          "midi": 42,
          "name": "F#2",
          "ticks": 18672,
          "time": 93.36,
          "velocity": 0.8818897637795275
        },
        {
          "duration": 0.12000000000000455,
          "durationTicks": 24,
          "midi": 42,
          "name": "F#2",
          "ticks": 18696,
          "time": 93.47999999999999,
          "velocity": 0.8818897637795275
        },
        {
          "duration": 0.12000000000000455,
          "durationTicks": 24,
          "midi": 63,
          "name": "D#4",
          "ticks": 18696,
          "time": 93.47999999999999,
          "velocity": 0.5669291338582677
        },
        {
          "duration": 0.12000000000000455,
          "durationTicks": 24,
          "midi": 38,
          "name": "D2",
          "ticks": 18720,
          "time": 93.6,
          "velocity": 0.8818897637795275
        },
        {
          "duration": 0.12000000000000455,
          "durationTicks": 24,
          "midi": 46,
          "name": "A#2",
          "ticks": 18720,
          "time": 93.6,
          "velocity": 0.6299212598425197
        },
        {
          "duration": 0.11999999999999034,
          "durationTicks": 24,
          "midi": 42,
          "name": "F#2",
          "ticks": 18768,
          "time": 93.84,
          "velocity": 0.8818897637795275
        },
        {
          "duration": 0.12000000000000455,
          "durationTicks": 24,
          "midi": 42,
          "name": "F#2",
          "ticks": 18792,
          "time": 93.96,
          "velocity": 0.8818897637795275
        },
        {
          "duration": 0.12000000000000455,
          "durationTicks": 24,
          "midi": 77,
          "name": "F5",
          "ticks": 18816,
          "time": 94.08,
          "velocity": 0.7244094488188977
        },
        {
          "duration": 0.12000000000000455,
          "durationTicks": 24,
          "midi": 36,
          "name": "C2",
          "ticks": 18816,
          "time": 94.08,
          "velocity": 0.7874015748031497
        },
        {
          "duration": 0.12000000000000455,
          "durationTicks": 24,
          "midi": 42,
          "name": "F#2",
          "ticks": 18816,
          "time": 94.08,
          "velocity": 0.8818897637795275
        },
        {
          "duration": 0.11999999999999034,
          "durationTicks": 24,
          "midi": 77,
          "name": "F5",
          "ticks": 18840,
          "time": 94.2,
          "velocity": 0.47244094488188976
        },
        {
          "duration": 0.12000000000000455,
          "durationTicks": 24,
          "midi": 77,
          "name": "F5",
          "ticks": 18864,
          "time": 94.32,
          "velocity": 0.28346456692913385
        },
        {
          "duration": 0.12000000000000455,
          "durationTicks": 24,
          "midi": 42,
          "name": "F#2",
          "ticks": 18864,
          "time": 94.32,
          "velocity": 0.8818897637795275
        },
        {
          "duration": 0.12000000000000455,
          "durationTicks": 24,
          "midi": 42,
          "name": "F#2",
          "ticks": 18888,
          "time": 94.44,
          "velocity": 0.8818897637795275
        },
        {
          "duration": 0.11999999999999034,
          "durationTicks": 24,
          "midi": 38,
          "name": "D2",
          "ticks": 18912,
          "time": 94.56,
          "velocity": 0.8818897637795275
        },
        {
          "duration": 0.11999999999999034,
          "durationTicks": 24,
          "midi": 46,
          "name": "A#2",
          "ticks": 18912,
          "time": 94.56,
          "velocity": 0.6299212598425197
        },
        {
          "duration": 0.12000000000000455,
          "durationTicks": 24,
          "midi": 42,
          "name": "F#2",
          "ticks": 18960,
          "time": 94.8,
          "velocity": 0.8818897637795275
        },
        {
          "duration": 0.11999999999999034,
          "durationTicks": 24,
          "midi": 42,
          "name": "F#2",
          "ticks": 18984,
          "time": 94.92,
          "velocity": 0.8818897637795275
        },
        {
          "duration": 0.12000000000000455,
          "durationTicks": 24,
          "midi": 77,
          "name": "F5",
          "ticks": 19008,
          "time": 95.03999999999999,
          "velocity": 0.7244094488188977
        },
        {
          "duration": 0.12000000000000455,
          "durationTicks": 24,
          "midi": 42,
          "name": "F#2",
          "ticks": 19008,
          "time": 95.03999999999999,
          "velocity": 0.8818897637795275
        },
        {
          "duration": 0.12000000000000455,
          "durationTicks": 24,
          "midi": 36,
          "name": "C2",
          "ticks": 19008,
          "time": 95.03999999999999,
          "velocity": 0.7874015748031497
        },
        {
          "duration": 0.12000000000000455,
          "durationTicks": 24,
          "midi": 77,
          "name": "F5",
          "ticks": 19032,
          "time": 95.16,
          "velocity": 0.47244094488188976
        },
        {
          "duration": 0.11999999999999034,
          "durationTicks": 24,
          "midi": 77,
          "name": "F5",
          "ticks": 19056,
          "time": 95.28,
          "velocity": 0.28346456692913385
        },
        {
          "duration": 0.11999999999999034,
          "durationTicks": 24,
          "midi": 64,
          "name": "E4",
          "ticks": 19056,
          "time": 95.28,
          "velocity": 0.5669291338582677
        },
        {
          "duration": 0.11999999999999034,
          "durationTicks": 24,
          "midi": 42,
          "name": "F#2",
          "ticks": 19056,
          "time": 95.28,
          "velocity": 0.8818897637795275
        },
        {
          "duration": 0.12000000000000455,
          "durationTicks": 24,
          "midi": 63,
          "name": "D#4",
          "ticks": 19080,
          "time": 95.39999999999999,
          "velocity": 0.5669291338582677
        },
        {
          "duration": 0.12000000000000455,
          "durationTicks": 24,
          "midi": 42,
          "name": "F#2",
          "ticks": 19080,
          "time": 95.39999999999999,
          "velocity": 0.8818897637795275
        },
        {
          "duration": 0.12000000000000455,
          "durationTicks": 24,
          "midi": 38,
          "name": "D2",
          "ticks": 19104,
          "time": 95.52,
          "velocity": 0.8818897637795275
        },
        {
          "duration": 0.12000000000000455,
          "durationTicks": 24,
          "midi": 46,
          "name": "A#2",
          "ticks": 19104,
          "time": 95.52,
          "velocity": 0.6299212598425197
        },
        {
          "duration": 0.12000000000000455,
          "durationTicks": 24,
          "midi": 42,
          "name": "F#2",
          "ticks": 19152,
          "time": 95.75999999999999,
          "velocity": 0.8818897637795275
        },
        {
          "duration": 0.12000000000000455,
          "durationTicks": 24,
          "midi": 42,
          "name": "F#2",
          "ticks": 19176,
          "time": 95.88,
          "velocity": 0.8818897637795275
        },
        {
          "duration": 0.11999999999999034,
          "durationTicks": 24,
          "midi": 77,
          "name": "F5",
          "ticks": 19968,
          "time": 99.84,
          "velocity": 0.7244094488188977
        },
        {
          "duration": 0.11999999999999034,
          "durationTicks": 24,
          "midi": 42,
          "name": "F#2",
          "ticks": 19968,
          "time": 99.84,
          "velocity": 0.8818897637795275
        },
        {
          "duration": 0.11999999999999034,
          "durationTicks": 24,
          "midi": 36,
          "name": "C2",
          "ticks": 19968,
          "time": 99.84,
          "velocity": 0.7874015748031497
        },
        {
          "duration": 0.11999999999999034,
          "durationTicks": 24,
          "midi": 49,
          "name": "C#3",
          "ticks": 19968,
          "time": 99.84,
          "velocity": 0.9133858267716536
        },
        {
          "duration": 0.12000000000000455,
          "durationTicks": 24,
          "midi": 77,
          "name": "F5",
          "ticks": 19992,
          "time": 99.96,
          "velocity": 0.5354330708661418
        },
        {
          "duration": 0.12000000000000455,
          "durationTicks": 24,
          "midi": 77,
          "name": "F5",
          "ticks": 20016,
          "time": 100.08,
          "velocity": 0.28346456692913385
        },
        {
          "duration": 0.12000000000000455,
          "durationTicks": 24,
          "midi": 42,
          "name": "F#2",
          "ticks": 20016,
          "time": 100.08,
          "velocity": 0.8818897637795275
        },
        {
          "duration": 0.11999999999999034,
          "durationTicks": 24,
          "midi": 42,
          "name": "F#2",
          "ticks": 20040,
          "time": 100.2,
          "velocity": 0.8818897637795275
        },
        {
          "duration": 0.12000000000000455,
          "durationTicks": 24,
          "midi": 38,
          "name": "D2",
          "ticks": 20064,
          "time": 100.32,
          "velocity": 0.8818897637795275
        },
        {
          "duration": 0.12000000000000455,
          "durationTicks": 24,
          "midi": 46,
          "name": "A#2",
          "ticks": 20064,
          "time": 100.32,
          "velocity": 0.6299212598425197
        },
        {
          "duration": 0.11999999999999034,
          "durationTicks": 24,
          "midi": 42,
          "name": "F#2",
          "ticks": 20112,
          "time": 100.56,
          "velocity": 0.8818897637795275
        },
        {
          "duration": 0.12000000000000455,
          "durationTicks": 24,
          "midi": 42,
          "name": "F#2",
          "ticks": 20136,
          "time": 100.67999999999999,
          "velocity": 0.8818897637795275
        },
        {
          "duration": 0.12000000000000455,
          "durationTicks": 24,
          "midi": 77,
          "name": "F5",
          "ticks": 20160,
          "time": 100.8,
          "velocity": 0.7244094488188977
        },
        {
          "duration": 0.12000000000000455,
          "durationTicks": 24,
          "midi": 42,
          "name": "F#2",
          "ticks": 20160,
          "time": 100.8,
          "velocity": 0.8818897637795275
        },
        {
          "duration": 0.12000000000000455,
          "durationTicks": 24,
          "midi": 36,
          "name": "C2",
          "ticks": 20160,
          "time": 100.8,
          "velocity": 0.7874015748031497
        },
        {
          "duration": 0.11999999999999034,
          "durationTicks": 24,
          "midi": 77,
          "name": "F5",
          "ticks": 20184,
          "time": 100.92,
          "velocity": 0.47244094488188976
        },
        {
          "duration": 0.12000000000000455,
          "durationTicks": 24,
          "midi": 77,
          "name": "F5",
          "ticks": 20208,
          "time": 101.03999999999999,
          "velocity": 0.28346456692913385
        },
        {
          "duration": 0.12000000000000455,
          "durationTicks": 24,
          "midi": 42,
          "name": "F#2",
          "ticks": 20208,
          "time": 101.03999999999999,
          "velocity": 0.8818897637795275
        },
        {
          "duration": 0.12000000000000455,
          "durationTicks": 24,
          "midi": 64,
          "name": "E4",
          "ticks": 20208,
          "time": 101.03999999999999,
          "velocity": 0.5669291338582677
        },
        {
          "duration": 0.12000000000000455,
          "durationTicks": 24,
          "midi": 63,
          "name": "D#4",
          "ticks": 20232,
          "time": 101.16,
          "velocity": 0.5669291338582677
        },
        {
          "duration": 0.12000000000000455,
          "durationTicks": 24,
          "midi": 42,
          "name": "F#2",
          "ticks": 20232,
          "time": 101.16,
          "velocity": 0.8818897637795275
        },
        {
          "duration": 0.11999999999999034,
          "durationTicks": 24,
          "midi": 38,
          "name": "D2",
          "ticks": 20256,
          "time": 101.28,
          "velocity": 0.8818897637795275
        },
        {
          "duration": 0.11999999999999034,
          "durationTicks": 24,
          "midi": 46,
          "name": "A#2",
          "ticks": 20256,
          "time": 101.28,
          "velocity": 0.6299212598425197
        },
        {
          "duration": 0.12000000000000455,
          "durationTicks": 24,
          "midi": 42,
          "name": "F#2",
          "ticks": 20304,
          "time": 101.52,
          "velocity": 0.8818897637795275
        },
        {
          "duration": 0.11999999999999034,
          "durationTicks": 24,
          "midi": 42,
          "name": "F#2",
          "ticks": 20328,
          "time": 101.64,
          "velocity": 0.8818897637795275
        },
        {
          "duration": 0.12000000000000455,
          "durationTicks": 24,
          "midi": 42,
          "name": "F#2",
          "ticks": 20352,
          "time": 101.75999999999999,
          "velocity": 0.8818897637795275
        },
        {
          "duration": 0.12000000000000455,
          "durationTicks": 24,
          "midi": 36,
          "name": "C2",
          "ticks": 20352,
          "time": 101.75999999999999,
          "velocity": 0.7874015748031497
        },
        {
          "duration": 0.12000000000000455,
          "durationTicks": 24,
          "midi": 77,
          "name": "F5",
          "ticks": 20352,
          "time": 101.75999999999999,
          "velocity": 0.7244094488188977
        },
        {
          "duration": 0.12000000000000455,
          "durationTicks": 24,
          "midi": 77,
          "name": "F5",
          "ticks": 20376,
          "time": 101.88,
          "velocity": 0.47244094488188976
        },
        {
          "duration": 0.11999999999999034,
          "durationTicks": 24,
          "midi": 77,
          "name": "F5",
          "ticks": 20400,
          "time": 102,
          "velocity": 0.28346456692913385
        },
        {
          "duration": 0.11999999999999034,
          "durationTicks": 24,
          "midi": 42,
          "name": "F#2",
          "ticks": 20400,
          "time": 102,
          "velocity": 0.8818897637795275
        },
        {
          "duration": 0.12000000000000455,
          "durationTicks": 24,
          "midi": 42,
          "name": "F#2",
          "ticks": 20424,
          "time": 102.11999999999999,
          "velocity": 0.8818897637795275
        },
        {
          "duration": 0.12000000000000455,
          "durationTicks": 24,
          "midi": 46,
          "name": "A#2",
          "ticks": 20448,
          "time": 102.24,
          "velocity": 0.6299212598425197
        },
        {
          "duration": 0.12000000000000455,
          "durationTicks": 24,
          "midi": 38,
          "name": "D2",
          "ticks": 20448,
          "time": 102.24,
          "velocity": 0.8818897637795275
        },
        {
          "duration": 0.12000000000000455,
          "durationTicks": 24,
          "midi": 42,
          "name": "F#2",
          "ticks": 20496,
          "time": 102.47999999999999,
          "velocity": 0.8818897637795275
        },
        {
          "duration": 0.12000000000000455,
          "durationTicks": 24,
          "midi": 42,
          "name": "F#2",
          "ticks": 20520,
          "time": 102.6,
          "velocity": 0.8818897637795275
        },
        {
          "duration": 0.11999999999999034,
          "durationTicks": 24,
          "midi": 42,
          "name": "F#2",
          "ticks": 20544,
          "time": 102.72,
          "velocity": 0.8818897637795275
        },
        {
          "duration": 0.11999999999999034,
          "durationTicks": 24,
          "midi": 36,
          "name": "C2",
          "ticks": 20544,
          "time": 102.72,
          "velocity": 0.7874015748031497
        },
        {
          "duration": 0.11999999999999034,
          "durationTicks": 24,
          "midi": 77,
          "name": "F5",
          "ticks": 20544,
          "time": 102.72,
          "velocity": 0.7244094488188977
        },
        {
          "duration": 0.12000000000000455,
          "durationTicks": 24,
          "midi": 77,
          "name": "F5",
          "ticks": 20568,
          "time": 102.83999999999999,
          "velocity": 0.47244094488188976
        },
        {
          "duration": 0.12000000000000455,
          "durationTicks": 24,
          "midi": 77,
          "name": "F5",
          "ticks": 20592,
          "time": 102.96,
          "velocity": 0.28346456692913385
        },
        {
          "duration": 0.12000000000000455,
          "durationTicks": 24,
          "midi": 64,
          "name": "E4",
          "ticks": 20592,
          "time": 102.96,
          "velocity": 0.5669291338582677
        },
        {
          "duration": 0.12000000000000455,
          "durationTicks": 24,
          "midi": 42,
          "name": "F#2",
          "ticks": 20592,
          "time": 102.96,
          "velocity": 0.8818897637795275
        },
        {
          "duration": 0.12000000000000455,
          "durationTicks": 24,
          "midi": 63,
          "name": "D#4",
          "ticks": 20616,
          "time": 103.08,
          "velocity": 0.5669291338582677
        },
        {
          "duration": 0.12000000000000455,
          "durationTicks": 24,
          "midi": 42,
          "name": "F#2",
          "ticks": 20616,
          "time": 103.08,
          "velocity": 0.8818897637795275
        },
        {
          "duration": 0.11999999999999034,
          "durationTicks": 24,
          "midi": 46,
          "name": "A#2",
          "ticks": 20640,
          "time": 103.2,
          "velocity": 0.6299212598425197
        },
        {
          "duration": 0.11999999999999034,
          "durationTicks": 24,
          "midi": 38,
          "name": "D2",
          "ticks": 20640,
          "time": 103.2,
          "velocity": 0.8818897637795275
        },
        {
          "duration": 0.12000000000000455,
          "durationTicks": 24,
          "midi": 42,
          "name": "F#2",
          "ticks": 20688,
          "time": 103.44,
          "velocity": 0.8818897637795275
        },
        {
          "duration": 0.11999999999999034,
          "durationTicks": 24,
          "midi": 42,
          "name": "F#2",
          "ticks": 20712,
          "time": 103.56,
          "velocity": 0.8818897637795275
        },
        {
          "duration": 0.12000000000000455,
          "durationTicks": 24,
          "midi": 77,
          "name": "F5",
          "ticks": 20736,
          "time": 103.67999999999999,
          "velocity": 0.7244094488188977
        },
        {
          "duration": 0.12000000000000455,
          "durationTicks": 24,
          "midi": 42,
          "name": "F#2",
          "ticks": 20736,
          "time": 103.67999999999999,
          "velocity": 0.8818897637795275
        },
        {
          "duration": 0.12000000000000455,
          "durationTicks": 24,
          "midi": 36,
          "name": "C2",
          "ticks": 20736,
          "time": 103.67999999999999,
          "velocity": 0.7874015748031497
        },
        {
          "duration": 0.12000000000000455,
          "durationTicks": 24,
          "midi": 77,
          "name": "F5",
          "ticks": 20760,
          "time": 103.8,
          "velocity": 0.47244094488188976
        },
        {
          "duration": 0.11999999999999034,
          "durationTicks": 24,
          "midi": 77,
          "name": "F5",
          "ticks": 20784,
          "time": 103.92,
          "velocity": 0.28346456692913385
        },
        {
          "duration": 0.11999999999999034,
          "durationTicks": 24,
          "midi": 42,
          "name": "F#2",
          "ticks": 20784,
          "time": 103.92,
          "velocity": 0.8818897637795275
        },
        {
          "duration": 0.12000000000000455,
          "durationTicks": 24,
          "midi": 42,
          "name": "F#2",
          "ticks": 20808,
          "time": 104.03999999999999,
          "velocity": 0.8818897637795275
        },
        {
          "duration": 0.12000000000000455,
          "durationTicks": 24,
          "midi": 38,
          "name": "D2",
          "ticks": 20832,
          "time": 104.16,
          "velocity": 0.8818897637795275
        },
        {
          "duration": 0.12000000000000455,
          "durationTicks": 24,
          "midi": 46,
          "name": "A#2",
          "ticks": 20832,
          "time": 104.16,
          "velocity": 0.6299212598425197
        },
        {
          "duration": 0.12000000000000455,
          "durationTicks": 24,
          "midi": 42,
          "name": "F#2",
          "ticks": 20880,
          "time": 104.39999999999999,
          "velocity": 0.8818897637795275
        },
        {
          "duration": 0.12000000000000455,
          "durationTicks": 24,
          "midi": 42,
          "name": "F#2",
          "ticks": 20904,
          "time": 104.52,
          "velocity": 0.8818897637795275
        },
        {
          "duration": 0.11999999999999034,
          "durationTicks": 24,
          "midi": 77,
          "name": "F5",
          "ticks": 20928,
          "time": 104.64,
          "velocity": 0.7244094488188977
        },
        {
          "duration": 0.11999999999999034,
          "durationTicks": 24,
          "midi": 42,
          "name": "F#2",
          "ticks": 20928,
          "time": 104.64,
          "velocity": 0.8818897637795275
        },
        {
          "duration": 0.11999999999999034,
          "durationTicks": 24,
          "midi": 36,
          "name": "C2",
          "ticks": 20928,
          "time": 104.64,
          "velocity": 0.7874015748031497
        },
        {
          "duration": 0.12000000000000455,
          "durationTicks": 24,
          "midi": 77,
          "name": "F5",
          "ticks": 20952,
          "time": 104.75999999999999,
          "velocity": 0.47244094488188976
        },
        {
          "duration": 0.12000000000000455,
          "durationTicks": 24,
          "midi": 77,
          "name": "F5",
          "ticks": 20976,
          "time": 104.88,
          "velocity": 0.28346456692913385
        },
        {
          "duration": 0.12000000000000455,
          "durationTicks": 24,
          "midi": 64,
          "name": "E4",
          "ticks": 20976,
          "time": 104.88,
          "velocity": 0.5669291338582677
        },
        {
          "duration": 0.12000000000000455,
          "durationTicks": 24,
          "midi": 42,
          "name": "F#2",
          "ticks": 20976,
          "time": 104.88,
          "velocity": 0.8818897637795275
        },
        {
          "duration": 0.11999999999999034,
          "durationTicks": 24,
          "midi": 63,
          "name": "D#4",
          "ticks": 21000,
          "time": 105,
          "velocity": 0.5669291338582677
        },
        {
          "duration": 0.11999999999999034,
          "durationTicks": 24,
          "midi": 42,
          "name": "F#2",
          "ticks": 21000,
          "time": 105,
          "velocity": 0.8818897637795275
        },
        {
          "duration": 0.12000000000000455,
          "durationTicks": 24,
          "midi": 38,
          "name": "D2",
          "ticks": 21024,
          "time": 105.11999999999999,
          "velocity": 0.8818897637795275
        },
        {
          "duration": 0.12000000000000455,
          "durationTicks": 24,
          "midi": 46,
          "name": "A#2",
          "ticks": 21024,
          "time": 105.11999999999999,
          "velocity": 0.6299212598425197
        },
        {
          "duration": 0.11999999999999034,
          "durationTicks": 24,
          "midi": 42,
          "name": "F#2",
          "ticks": 21072,
          "time": 105.36,
          "velocity": 0.8818897637795275
        },
        {
          "duration": 0.12000000000000455,
          "durationTicks": 24,
          "midi": 42,
          "name": "F#2",
          "ticks": 21096,
          "time": 105.47999999999999,
          "velocity": 0.8818897637795275
        },
        {
          "duration": 0.12000000000000455,
          "durationTicks": 24,
          "midi": 42,
          "name": "F#2",
          "ticks": 21120,
          "time": 105.6,
          "velocity": 0.8818897637795275
        },
        {
          "duration": 0.12000000000000455,
          "durationTicks": 24,
          "midi": 36,
          "name": "C2",
          "ticks": 21120,
          "time": 105.6,
          "velocity": 0.7874015748031497
        },
        {
          "duration": 0.12000000000000455,
          "durationTicks": 24,
          "midi": 77,
          "name": "F5",
          "ticks": 21120,
          "time": 105.6,
          "velocity": 0.7244094488188977
        },
        {
          "duration": 0.11999999999999034,
          "durationTicks": 24,
          "midi": 77,
          "name": "F5",
          "ticks": 21144,
          "time": 105.72,
          "velocity": 0.47244094488188976
        },
        {
          "duration": 0.12000000000000455,
          "durationTicks": 24,
          "midi": 77,
          "name": "F5",
          "ticks": 21168,
          "time": 105.83999999999999,
          "velocity": 0.28346456692913385
        },
        {
          "duration": 0.12000000000000455,
          "durationTicks": 24,
          "midi": 42,
          "name": "F#2",
          "ticks": 21168,
          "time": 105.83999999999999,
          "velocity": 0.8818897637795275
        },
        {
          "duration": 0.12000000000000455,
          "durationTicks": 24,
          "midi": 42,
          "name": "F#2",
          "ticks": 21192,
          "time": 105.96,
          "velocity": 0.8818897637795275
        },
        {
          "duration": 0.12000000000000455,
          "durationTicks": 24,
          "midi": 38,
          "name": "D2",
          "ticks": 21216,
          "time": 106.08,
          "velocity": 0.8818897637795275
        },
        {
          "duration": 0.12000000000000455,
          "durationTicks": 24,
          "midi": 46,
          "name": "A#2",
          "ticks": 21216,
          "time": 106.08,
          "velocity": 0.6299212598425197
        },
        {
          "duration": 0.12000000000000455,
          "durationTicks": 24,
          "midi": 42,
          "name": "F#2",
          "ticks": 21264,
          "time": 106.32,
          "velocity": 0.8818897637795275
        },
        {
          "duration": 0.12000000000000455,
          "durationTicks": 24,
          "midi": 42,
          "name": "F#2",
          "ticks": 21288,
          "time": 106.44,
          "velocity": 0.8818897637795275
        },
        {
          "duration": 0.11999999999999034,
          "durationTicks": 24,
          "midi": 42,
          "name": "F#2",
          "ticks": 21312,
          "time": 106.56,
          "velocity": 0.8818897637795275
        },
        {
          "duration": 0.11999999999999034,
          "durationTicks": 24,
          "midi": 36,
          "name": "C2",
          "ticks": 21312,
          "time": 106.56,
          "velocity": 0.7874015748031497
        },
        {
          "duration": 0.11999999999999034,
          "durationTicks": 24,
          "midi": 77,
          "name": "F5",
          "ticks": 21312,
          "time": 106.56,
          "velocity": 0.7244094488188977
        },
        {
          "duration": 0.12000000000000455,
          "durationTicks": 24,
          "midi": 77,
          "name": "F5",
          "ticks": 21336,
          "time": 106.67999999999999,
          "velocity": 0.47244094488188976
        },
        {
          "duration": 0.12000000000000455,
          "durationTicks": 24,
          "midi": 77,
          "name": "F5",
          "ticks": 21360,
          "time": 106.8,
          "velocity": 0.28346456692913385
        },
        {
          "duration": 0.12000000000000455,
          "durationTicks": 24,
          "midi": 64,
          "name": "E4",
          "ticks": 21360,
          "time": 106.8,
          "velocity": 0.5669291338582677
        },
        {
          "duration": 0.12000000000000455,
          "durationTicks": 24,
          "midi": 42,
          "name": "F#2",
          "ticks": 21360,
          "time": 106.8,
          "velocity": 0.8818897637795275
        },
        {
          "duration": 0.11999999999999034,
          "durationTicks": 24,
          "midi": 63,
          "name": "D#4",
          "ticks": 21384,
          "time": 106.92,
          "velocity": 0.5669291338582677
        },
        {
          "duration": 0.11999999999999034,
          "durationTicks": 24,
          "midi": 42,
          "name": "F#2",
          "ticks": 21384,
          "time": 106.92,
          "velocity": 0.8818897637795275
        },
        {
          "duration": 0.12000000000000455,
          "durationTicks": 24,
          "midi": 46,
          "name": "A#2",
          "ticks": 21408,
          "time": 107.03999999999999,
          "velocity": 0.6299212598425197
        },
        {
          "duration": 0.12000000000000455,
          "durationTicks": 24,
          "midi": 38,
          "name": "D2",
          "ticks": 21408,
          "time": 107.03999999999999,
          "velocity": 0.8818897637795275
        },
        {
          "duration": 0.11999999999999034,
          "durationTicks": 24,
          "midi": 42,
          "name": "F#2",
          "ticks": 21456,
          "time": 107.28,
          "velocity": 0.8818897637795275
        },
        {
          "duration": 0.12000000000000455,
          "durationTicks": 24,
          "midi": 42,
          "name": "F#2",
          "ticks": 21480,
          "time": 107.39999999999999,
          "velocity": 0.8818897637795275
        },
        {
          "duration": 0.12000000000000455,
          "durationTicks": 24,
          "midi": 77,
          "name": "F5",
          "ticks": 21504,
          "time": 107.52,
          "velocity": 0.7244094488188977
        },
        {
          "duration": 0.12000000000000455,
          "durationTicks": 24,
          "midi": 42,
          "name": "F#2",
          "ticks": 21504,
          "time": 107.52,
          "velocity": 0.8818897637795275
        },
        {
          "duration": 0.12000000000000455,
          "durationTicks": 24,
          "midi": 36,
          "name": "C2",
          "ticks": 21504,
          "time": 107.52,
          "velocity": 0.7874015748031497
        },
        {
          "duration": 0.11999999999999034,
          "durationTicks": 24,
          "midi": 77,
          "name": "F5",
          "ticks": 21528,
          "time": 107.64,
          "velocity": 0.47244094488188976
        },
        {
          "duration": 0.12000000000000455,
          "durationTicks": 24,
          "midi": 77,
          "name": "F5",
          "ticks": 21552,
          "time": 107.75999999999999,
          "velocity": 0.28346456692913385
        },
        {
          "duration": 0.12000000000000455,
          "durationTicks": 24,
          "midi": 42,
          "name": "F#2",
          "ticks": 21552,
          "time": 107.75999999999999,
          "velocity": 0.8818897637795275
        },
        {
          "duration": 0.12000000000000455,
          "durationTicks": 24,
          "midi": 42,
          "name": "F#2",
          "ticks": 21576,
          "time": 107.88,
          "velocity": 0.8818897637795275
        },
        {
          "duration": 0.11999999999999034,
          "durationTicks": 24,
          "midi": 38,
          "name": "D2",
          "ticks": 21600,
          "time": 108,
          "velocity": 0.8818897637795275
        },
        {
          "duration": 0.11999999999999034,
          "durationTicks": 24,
          "midi": 46,
          "name": "A#2",
          "ticks": 21600,
          "time": 108,
          "velocity": 0.6299212598425197
        },
        {
          "duration": 0.12000000000000455,
          "durationTicks": 24,
          "midi": 42,
          "name": "F#2",
          "ticks": 21648,
          "time": 108.24,
          "velocity": 0.8818897637795275
        },
        {
          "duration": 0.11999999999999034,
          "durationTicks": 24,
          "midi": 42,
          "name": "F#2",
          "ticks": 21672,
          "time": 108.36,
          "velocity": 0.8818897637795275
        },
        {
          "duration": 0.12000000000000455,
          "durationTicks": 24,
          "midi": 77,
          "name": "F5",
          "ticks": 21696,
          "time": 108.47999999999999,
          "velocity": 0.7244094488188977
        },
        {
          "duration": 0.12000000000000455,
          "durationTicks": 24,
          "midi": 42,
          "name": "F#2",
          "ticks": 21696,
          "time": 108.47999999999999,
          "velocity": 0.8818897637795275
        },
        {
          "duration": 0.12000000000000455,
          "durationTicks": 24,
          "midi": 36,
          "name": "C2",
          "ticks": 21696,
          "time": 108.47999999999999,
          "velocity": 0.7874015748031497
        },
        {
          "duration": 0.12000000000000455,
          "durationTicks": 24,
          "midi": 77,
          "name": "F5",
          "ticks": 21720,
          "time": 108.6,
          "velocity": 0.47244094488188976
        },
        {
          "duration": 0.11999999999999034,
          "durationTicks": 24,
          "midi": 42,
          "name": "F#2",
          "ticks": 21744,
          "time": 108.72,
          "velocity": 0.8818897637795275
        },
        {
          "duration": 0.11999999999999034,
          "durationTicks": 24,
          "midi": 64,
          "name": "E4",
          "ticks": 21744,
          "time": 108.72,
          "velocity": 0.5669291338582677
        },
        {
          "duration": 0.11999999999999034,
          "durationTicks": 24,
          "midi": 77,
          "name": "F5",
          "ticks": 21744,
          "time": 108.72,
          "velocity": 0.28346456692913385
        },
        {
          "duration": 0.12000000000000455,
          "durationTicks": 24,
          "midi": 42,
          "name": "F#2",
          "ticks": 21768,
          "time": 108.83999999999999,
          "velocity": 0.8818897637795275
        },
        {
          "duration": 0.12000000000000455,
          "durationTicks": 24,
          "midi": 63,
          "name": "D#4",
          "ticks": 21768,
          "time": 108.83999999999999,
          "velocity": 0.5669291338582677
        },
        {
          "duration": 0.12000000000000455,
          "durationTicks": 24,
          "midi": 38,
          "name": "D2",
          "ticks": 21792,
          "time": 108.96,
          "velocity": 0.8818897637795275
        },
        {
          "duration": 0.12000000000000455,
          "durationTicks": 24,
          "midi": 46,
          "name": "A#2",
          "ticks": 21792,
          "time": 108.96,
          "velocity": 0.6299212598425197
        },
        {
          "duration": 0.11999999999999034,
          "durationTicks": 24,
          "midi": 42,
          "name": "F#2",
          "ticks": 21840,
          "time": 109.2,
          "velocity": 0.8818897637795275
        },
        {
          "duration": 0.12000000000000455,
          "durationTicks": 24,
          "midi": 42,
          "name": "F#2",
          "ticks": 21864,
          "time": 109.32,
          "velocity": 0.8818897637795275
        },
        {
          "duration": 0.12000000000000455,
          "durationTicks": 24,
          "midi": 42,
          "name": "F#2",
          "ticks": 21888,
          "time": 109.44,
          "velocity": 0.8818897637795275
        },
        {
          "duration": 0.12000000000000455,
          "durationTicks": 24,
          "midi": 36,
          "name": "C2",
          "ticks": 21888,
          "time": 109.44,
          "velocity": 0.7874015748031497
        },
        {
          "duration": 0.12000000000000455,
          "durationTicks": 24,
          "midi": 77,
          "name": "F5",
          "ticks": 21888,
          "time": 109.44,
          "velocity": 0.7244094488188977
        },
        {
          "duration": 0.11999999999999034,
          "durationTicks": 24,
          "midi": 77,
          "name": "F5",
          "ticks": 21912,
          "time": 109.56,
          "velocity": 0.47244094488188976
        },
        {
          "duration": 0.12000000000000455,
          "durationTicks": 24,
          "midi": 77,
          "name": "F5",
          "ticks": 21936,
          "time": 109.67999999999999,
          "velocity": 0.28346456692913385
        },
        {
          "duration": 0.12000000000000455,
          "durationTicks": 24,
          "midi": 42,
          "name": "F#2",
          "ticks": 21936,
          "time": 109.67999999999999,
          "velocity": 0.8818897637795275
        },
        {
          "duration": 0.12000000000000455,
          "durationTicks": 24,
          "midi": 42,
          "name": "F#2",
          "ticks": 21960,
          "time": 109.8,
          "velocity": 0.8818897637795275
        },
        {
          "duration": 0.11999999999999034,
          "durationTicks": 24,
          "midi": 38,
          "name": "D2",
          "ticks": 21984,
          "time": 109.92,
          "velocity": 0.8818897637795275
        },
        {
          "duration": 0.11999999999999034,
          "durationTicks": 24,
          "midi": 46,
          "name": "A#2",
          "ticks": 21984,
          "time": 109.92,
          "velocity": 0.6299212598425197
        },
        {
          "duration": 0.12000000000000455,
          "durationTicks": 24,
          "midi": 42,
          "name": "F#2",
          "ticks": 22032,
          "time": 110.16,
          "velocity": 0.8818897637795275
        },
        {
          "duration": 0.11999999999999034,
          "durationTicks": 24,
          "midi": 42,
          "name": "F#2",
          "ticks": 22056,
          "time": 110.28,
          "velocity": 0.8818897637795275
        },
        {
          "duration": 0.12000000000000455,
          "durationTicks": 24,
          "midi": 42,
          "name": "F#2",
          "ticks": 22080,
          "time": 110.39999999999999,
          "velocity": 0.8818897637795275
        },
        {
          "duration": 0.12000000000000455,
          "durationTicks": 24,
          "midi": 36,
          "name": "C2",
          "ticks": 22080,
          "time": 110.39999999999999,
          "velocity": 0.7874015748031497
        },
        {
          "duration": 0.12000000000000455,
          "durationTicks": 24,
          "midi": 77,
          "name": "F5",
          "ticks": 22080,
          "time": 110.39999999999999,
          "velocity": 0.7244094488188977
        },
        {
          "duration": 0.12000000000000455,
          "durationTicks": 24,
          "midi": 77,
          "name": "F5",
          "ticks": 22104,
          "time": 110.52,
          "velocity": 0.47244094488188976
        },
        {
          "duration": 0.11999999999999034,
          "durationTicks": 24,
          "midi": 77,
          "name": "F5",
          "ticks": 22128,
          "time": 110.64,
          "velocity": 0.28346456692913385
        },
        {
          "duration": 0.11999999999999034,
          "durationTicks": 24,
          "midi": 64,
          "name": "E4",
          "ticks": 22128,
          "time": 110.64,
          "velocity": 0.5669291338582677
        },
        {
          "duration": 0.11999999999999034,
          "durationTicks": 24,
          "midi": 42,
          "name": "F#2",
          "ticks": 22128,
          "time": 110.64,
          "velocity": 0.8818897637795275
        },
        {
          "duration": 0.12000000000000455,
          "durationTicks": 24,
          "midi": 63,
          "name": "D#4",
          "ticks": 22152,
          "time": 110.75999999999999,
          "velocity": 0.5669291338582677
        },
        {
          "duration": 0.12000000000000455,
          "durationTicks": 24,
          "midi": 42,
          "name": "F#2",
          "ticks": 22152,
          "time": 110.75999999999999,
          "velocity": 0.8818897637795275
        },
        {
          "duration": 0.12000000000000455,
          "durationTicks": 24,
          "midi": 38,
          "name": "D2",
          "ticks": 22176,
          "time": 110.88,
          "velocity": 0.8818897637795275
        },
        {
          "duration": 0.12000000000000455,
          "durationTicks": 24,
          "midi": 46,
          "name": "A#2",
          "ticks": 22176,
          "time": 110.88,
          "velocity": 0.6299212598425197
        },
        {
          "duration": 0.12000000000000455,
          "durationTicks": 24,
          "midi": 42,
          "name": "F#2",
          "ticks": 22224,
          "time": 111.11999999999999,
          "velocity": 0.8818897637795275
        },
        {
          "duration": 0.12000000000000455,
          "durationTicks": 24,
          "midi": 42,
          "name": "F#2",
          "ticks": 22248,
          "time": 111.24,
          "velocity": 0.8818897637795275
        },
        {
          "duration": 0.11999999999999034,
          "durationTicks": 24,
          "midi": 77,
          "name": "F5",
          "ticks": 22272,
          "time": 111.36,
          "velocity": 0.7244094488188977
        },
        {
          "duration": 0.11999999999999034,
          "durationTicks": 24,
          "midi": 42,
          "name": "F#2",
          "ticks": 22272,
          "time": 111.36,
          "velocity": 0.8818897637795275
        },
        {
          "duration": 0.11999999999999034,
          "durationTicks": 24,
          "midi": 36,
          "name": "C2",
          "ticks": 22272,
          "time": 111.36,
          "velocity": 0.7874015748031497
        },
        {
          "duration": 0.12000000000000455,
          "durationTicks": 24,
          "midi": 77,
          "name": "F5",
          "ticks": 22296,
          "time": 111.47999999999999,
          "velocity": 0.47244094488188976
        },
        {
          "duration": 0.12000000000000455,
          "durationTicks": 24,
          "midi": 42,
          "name": "F#2",
          "ticks": 22320,
          "time": 111.6,
          "velocity": 0.8818897637795275
        },
        {
          "duration": 0.12000000000000455,
          "durationTicks": 24,
          "midi": 77,
          "name": "F5",
          "ticks": 22320,
          "time": 111.6,
          "velocity": 0.28346456692913385
        },
        {
          "duration": 0.11999999999999034,
          "durationTicks": 24,
          "midi": 42,
          "name": "F#2",
          "ticks": 22344,
          "time": 111.72,
          "velocity": 0.8818897637795275
        },
        {
          "duration": 0.12000000000000455,
          "durationTicks": 24,
          "midi": 46,
          "name": "A#2",
          "ticks": 22368,
          "time": 111.83999999999999,
          "velocity": 0.6299212598425197
        },
        {
          "duration": 0.12000000000000455,
          "durationTicks": 24,
          "midi": 38,
          "name": "D2",
          "ticks": 22368,
          "time": 111.83999999999999,
          "velocity": 0.8818897637795275
        },
        {
          "duration": 0.12000000000000455,
          "durationTicks": 24,
          "midi": 42,
          "name": "F#2",
          "ticks": 22416,
          "time": 112.08,
          "velocity": 0.8818897637795275
        },
        {
          "duration": 0.11999999999999034,
          "durationTicks": 24,
          "midi": 42,
          "name": "F#2",
          "ticks": 22440,
          "time": 112.2,
          "velocity": 0.8818897637795275
        },
        {
          "duration": 0.12000000000000455,
          "durationTicks": 24,
          "midi": 77,
          "name": "F5",
          "ticks": 22464,
          "time": 112.32,
          "velocity": 0.7244094488188977
        },
        {
          "duration": 0.12000000000000455,
          "durationTicks": 24,
          "midi": 42,
          "name": "F#2",
          "ticks": 22464,
          "time": 112.32,
          "velocity": 0.8818897637795275
        },
        {
          "duration": 0.12000000000000455,
          "durationTicks": 24,
          "midi": 36,
          "name": "C2",
          "ticks": 22464,
          "time": 112.32,
          "velocity": 0.7874015748031497
        },
        {
          "duration": 0.12000000000000455,
          "durationTicks": 24,
          "midi": 77,
          "name": "F5",
          "ticks": 22488,
          "time": 112.44,
          "velocity": 0.47244094488188976
        },
        {
          "duration": 0.11999999999999034,
          "durationTicks": 24,
          "midi": 42,
          "name": "F#2",
          "ticks": 22512,
          "time": 112.56,
          "velocity": 0.8818897637795275
        },
        {
          "duration": 0.11999999999999034,
          "durationTicks": 24,
          "midi": 64,
          "name": "E4",
          "ticks": 22512,
          "time": 112.56,
          "velocity": 0.5669291338582677
        },
        {
          "duration": 0.11999999999999034,
          "durationTicks": 24,
          "midi": 77,
          "name": "F5",
          "ticks": 22512,
          "time": 112.56,
          "velocity": 0.28346456692913385
        },
        {
          "duration": 0.12000000000000455,
          "durationTicks": 24,
          "midi": 42,
          "name": "F#2",
          "ticks": 22536,
          "time": 112.67999999999999,
          "velocity": 0.8818897637795275
        },
        {
          "duration": 0.12000000000000455,
          "durationTicks": 24,
          "midi": 63,
          "name": "D#4",
          "ticks": 22536,
          "time": 112.67999999999999,
          "velocity": 0.5669291338582677
        },
        {
          "duration": 0.12000000000000455,
          "durationTicks": 24,
          "midi": 46,
          "name": "A#2",
          "ticks": 22560,
          "time": 112.8,
          "velocity": 0.6299212598425197
        },
        {
          "duration": 0.12000000000000455,
          "durationTicks": 24,
          "midi": 38,
          "name": "D2",
          "ticks": 22560,
          "time": 112.8,
          "velocity": 0.8818897637795275
        },
        {
          "duration": 0.12000000000000455,
          "durationTicks": 24,
          "midi": 42,
          "name": "F#2",
          "ticks": 22608,
          "time": 113.03999999999999,
          "velocity": 0.8818897637795275
        },
        {
          "duration": 0.12000000000000455,
          "durationTicks": 24,
          "midi": 42,
          "name": "F#2",
          "ticks": 22632,
          "time": 113.16,
          "velocity": 0.8818897637795275
        },
        {
          "duration": 0.11999999999999034,
          "durationTicks": 24,
          "midi": 42,
          "name": "F#2",
          "ticks": 22656,
          "time": 113.28,
          "velocity": 0.8818897637795275
        },
        {
          "duration": 0.11999999999999034,
          "durationTicks": 24,
          "midi": 36,
          "name": "C2",
          "ticks": 22656,
          "time": 113.28,
          "velocity": 0.7874015748031497
        },
        {
          "duration": 0.11999999999999034,
          "durationTicks": 24,
          "midi": 77,
          "name": "F5",
          "ticks": 22656,
          "time": 113.28,
          "velocity": 0.7244094488188977
        },
        {
          "duration": 0.12000000000000455,
          "durationTicks": 24,
          "midi": 77,
          "name": "F5",
          "ticks": 22680,
          "time": 113.39999999999999,
          "velocity": 0.47244094488188976
        },
        {
          "duration": 0.12000000000000455,
          "durationTicks": 24,
          "midi": 42,
          "name": "F#2",
          "ticks": 22704,
          "time": 113.52,
          "velocity": 0.8818897637795275
        },
        {
          "duration": 0.12000000000000455,
          "durationTicks": 24,
          "midi": 77,
          "name": "F5",
          "ticks": 22704,
          "time": 113.52,
          "velocity": 0.28346456692913385
        },
        {
          "duration": 0.11999999999999034,
          "durationTicks": 24,
          "midi": 42,
          "name": "F#2",
          "ticks": 22728,
          "time": 113.64,
          "velocity": 0.8818897637795275
        },
        {
          "duration": 0.12000000000000455,
          "durationTicks": 24,
          "midi": 38,
          "name": "D2",
          "ticks": 22752,
          "time": 113.75999999999999,
          "velocity": 0.8818897637795275
        },
        {
          "duration": 0.12000000000000455,
          "durationTicks": 24,
          "midi": 46,
          "name": "A#2",
          "ticks": 22752,
          "time": 113.75999999999999,
          "velocity": 0.6299212598425197
        },
        {
          "duration": 0.11999999999999034,
          "durationTicks": 24,
          "midi": 42,
          "name": "F#2",
          "ticks": 22800,
          "time": 114,
          "velocity": 0.8818897637795275
        },
        {
          "duration": 0.12000000000000455,
          "durationTicks": 24,
          "midi": 42,
          "name": "F#2",
          "ticks": 22824,
          "time": 114.11999999999999,
          "velocity": 0.8818897637795275
        },
        {
          "duration": 0.12000000000000455,
          "durationTicks": 24,
          "midi": 42,
          "name": "F#2",
          "ticks": 22848,
          "time": 114.24,
          "velocity": 0.8818897637795275
        },
        {
          "duration": 0.12000000000000455,
          "durationTicks": 24,
          "midi": 36,
          "name": "C2",
          "ticks": 22848,
          "time": 114.24,
          "velocity": 0.7874015748031497
        },
        {
          "duration": 0.12000000000000455,
          "durationTicks": 24,
          "midi": 77,
          "name": "F5",
          "ticks": 22848,
          "time": 114.24,
          "velocity": 0.7244094488188977
        },
        {
          "duration": 0.11999999999999034,
          "durationTicks": 24,
          "midi": 77,
          "name": "F5",
          "ticks": 22872,
          "time": 114.36,
          "velocity": 0.47244094488188976
        },
        {
          "duration": 0.12000000000000455,
          "durationTicks": 24,
          "midi": 42,
          "name": "F#2",
          "ticks": 22896,
          "time": 114.47999999999999,
          "velocity": 0.8818897637795275
        },
        {
          "duration": 0.12000000000000455,
          "durationTicks": 24,
          "midi": 64,
          "name": "E4",
          "ticks": 22896,
          "time": 114.47999999999999,
          "velocity": 0.5669291338582677
        },
        {
          "duration": 0.12000000000000455,
          "durationTicks": 24,
          "midi": 77,
          "name": "F5",
          "ticks": 22896,
          "time": 114.47999999999999,
          "velocity": 0.28346456692913385
        },
        {
          "duration": 0.12000000000000455,
          "durationTicks": 24,
          "midi": 42,
          "name": "F#2",
          "ticks": 22920,
          "time": 114.6,
          "velocity": 0.8818897637795275
        },
        {
          "duration": 0.12000000000000455,
          "durationTicks": 24,
          "midi": 63,
          "name": "D#4",
          "ticks": 22920,
          "time": 114.6,
          "velocity": 0.5669291338582677
        },
        {
          "duration": 0.11999999999999034,
          "durationTicks": 24,
          "midi": 46,
          "name": "A#2",
          "ticks": 22944,
          "time": 114.72,
          "velocity": 0.6299212598425197
        },
        {
          "duration": 0.11999999999999034,
          "durationTicks": 24,
          "midi": 38,
          "name": "D2",
          "ticks": 22944,
          "time": 114.72,
          "velocity": 0.8818897637795275
        },
        {
          "duration": 0.12000000000000455,
          "durationTicks": 24,
          "midi": 42,
          "name": "F#2",
          "ticks": 22992,
          "time": 114.96,
          "velocity": 0.8818897637795275
        },
        {
          "duration": 0.11999999999999034,
          "durationTicks": 24,
          "midi": 42,
          "name": "F#2",
          "ticks": 23016,
          "time": 115.08,
          "velocity": 0.8818897637795275
        },
        {
          "duration": 0.12000000000000455,
          "durationTicks": 24,
          "midi": 36,
          "name": "C2",
          "ticks": 23040,
          "time": 115.19999999999999,
          "velocity": 0.7874015748031497
        },
        {
          "duration": 0.12000000000000455,
          "durationTicks": 24,
          "midi": 42,
          "name": "F#2",
          "ticks": 23040,
          "time": 115.19999999999999,
          "velocity": 0.8818897637795275
        },
        {
          "duration": 0.12000000000000455,
          "durationTicks": 24,
          "midi": 77,
          "name": "F5",
          "ticks": 23040,
          "time": 115.19999999999999,
          "velocity": 0.7244094488188977
        },
        {
          "duration": 0.12000000000000455,
          "durationTicks": 24,
          "midi": 77,
          "name": "F5",
          "ticks": 23064,
          "time": 115.32,
          "velocity": 0.5354330708661418
        },
        {
          "duration": 0.12000000000000455,
          "durationTicks": 24,
          "midi": 77,
          "name": "F5",
          "ticks": 23088,
          "time": 115.44,
          "velocity": 0.28346456692913385
        },
        {
          "duration": 0.12000000000000455,
          "durationTicks": 24,
          "midi": 42,
          "name": "F#2",
          "ticks": 23088,
          "time": 115.44,
          "velocity": 0.8818897637795275
        },
        {
          "duration": 0.11999999999999034,
          "durationTicks": 24,
          "midi": 42,
          "name": "F#2",
          "ticks": 23112,
          "time": 115.56,
          "velocity": 0.8818897637795275
        },
        {
          "duration": 0.12000000000000455,
          "durationTicks": 24,
          "midi": 38,
          "name": "D2",
          "ticks": 23136,
          "time": 115.67999999999999,
          "velocity": 0.8818897637795275
        },
        {
          "duration": 0.12000000000000455,
          "durationTicks": 24,
          "midi": 46,
          "name": "A#2",
          "ticks": 23136,
          "time": 115.67999999999999,
          "velocity": 0.6299212598425197
        },
        {
          "duration": 0.11999999999999034,
          "durationTicks": 24,
          "midi": 42,
          "name": "F#2",
          "ticks": 23184,
          "time": 115.92,
          "velocity": 0.8818897637795275
        },
        {
          "duration": 0.12000000000000455,
          "durationTicks": 24,
          "midi": 42,
          "name": "F#2",
          "ticks": 23208,
          "time": 116.03999999999999,
          "velocity": 0.8818897637795275
        },
        {
          "duration": 0.12000000000000455,
          "durationTicks": 24,
          "midi": 42,
          "name": "F#2",
          "ticks": 23232,
          "time": 116.16,
          "velocity": 0.8818897637795275
        },
        {
          "duration": 0.12000000000000455,
          "durationTicks": 24,
          "midi": 36,
          "name": "C2",
          "ticks": 23232,
          "time": 116.16,
          "velocity": 0.7874015748031497
        },
        {
          "duration": 0.12000000000000455,
          "durationTicks": 24,
          "midi": 77,
          "name": "F5",
          "ticks": 23232,
          "time": 116.16,
          "velocity": 0.7244094488188977
        },
        {
          "duration": 0.11999999999999034,
          "durationTicks": 24,
          "midi": 77,
          "name": "F5",
          "ticks": 23256,
          "time": 116.28,
          "velocity": 0.47244094488188976
        },
        {
          "duration": 0.12000000000000455,
          "durationTicks": 24,
          "midi": 77,
          "name": "F5",
          "ticks": 23280,
          "time": 116.39999999999999,
          "velocity": 0.28346456692913385
        },
        {
          "duration": 0.12000000000000455,
          "durationTicks": 24,
          "midi": 42,
          "name": "F#2",
          "ticks": 23280,
          "time": 116.39999999999999,
          "velocity": 0.8818897637795275
        },
        {
          "duration": 0.12000000000000455,
          "durationTicks": 24,
          "midi": 64,
          "name": "E4",
          "ticks": 23280,
          "time": 116.39999999999999,
          "velocity": 0.5669291338582677
        },
        {
          "duration": 0.12000000000000455,
          "durationTicks": 24,
          "midi": 42,
          "name": "F#2",
          "ticks": 23304,
          "time": 116.52,
          "velocity": 0.8818897637795275
        },
        {
          "duration": 0.12000000000000455,
          "durationTicks": 24,
          "midi": 63,
          "name": "D#4",
          "ticks": 23304,
          "time": 116.52,
          "velocity": 0.5669291338582677
        },
        {
          "duration": 0.11999999999999034,
          "durationTicks": 24,
          "midi": 46,
          "name": "A#2",
          "ticks": 23328,
          "time": 116.64,
          "velocity": 0.6299212598425197
        },
        {
          "duration": 0.11999999999999034,
          "durationTicks": 24,
          "midi": 38,
          "name": "D2",
          "ticks": 23328,
          "time": 116.64,
          "velocity": 0.8818897637795275
        },
        {
          "duration": 0.12000000000000455,
          "durationTicks": 24,
          "midi": 42,
          "name": "F#2",
          "ticks": 23376,
          "time": 116.88,
          "velocity": 0.8818897637795275
        },
        {
          "duration": 0.11999999999999034,
          "durationTicks": 24,
          "midi": 42,
          "name": "F#2",
          "ticks": 23400,
          "time": 117,
          "velocity": 0.8818897637795275
        },
        {
          "duration": 0.12000000000000455,
          "durationTicks": 24,
          "midi": 36,
          "name": "C2",
          "ticks": 23424,
          "time": 117.11999999999999,
          "velocity": 0.7874015748031497
        },
        {
          "duration": 0.12000000000000455,
          "durationTicks": 24,
          "midi": 42,
          "name": "F#2",
          "ticks": 23424,
          "time": 117.11999999999999,
          "velocity": 0.8818897637795275
        },
        {
          "duration": 0.12000000000000455,
          "durationTicks": 24,
          "midi": 77,
          "name": "F5",
          "ticks": 23424,
          "time": 117.11999999999999,
          "velocity": 0.7244094488188977
        },
        {
          "duration": 0.12000000000000455,
          "durationTicks": 24,
          "midi": 77,
          "name": "F5",
          "ticks": 23448,
          "time": 117.24,
          "velocity": 0.47244094488188976
        },
        {
          "duration": 0.11999999999999034,
          "durationTicks": 24,
          "midi": 77,
          "name": "F5",
          "ticks": 23472,
          "time": 117.36,
          "velocity": 0.28346456692913385
        },
        {
          "duration": 0.11999999999999034,
          "durationTicks": 24,
          "midi": 42,
          "name": "F#2",
          "ticks": 23472,
          "time": 117.36,
          "velocity": 0.8818897637795275
        },
        {
          "duration": 0.12000000000000455,
          "durationTicks": 24,
          "midi": 42,
          "name": "F#2",
          "ticks": 23496,
          "time": 117.47999999999999,
          "velocity": 0.8818897637795275
        },
        {
          "duration": 0.12000000000000455,
          "durationTicks": 24,
          "midi": 38,
          "name": "D2",
          "ticks": 23520,
          "time": 117.6,
          "velocity": 0.8818897637795275
        },
        {
          "duration": 0.12000000000000455,
          "durationTicks": 24,
          "midi": 46,
          "name": "A#2",
          "ticks": 23520,
          "time": 117.6,
          "velocity": 0.6299212598425197
        },
        {
          "duration": 0.12000000000000455,
          "durationTicks": 24,
          "midi": 42,
          "name": "F#2",
          "ticks": 23568,
          "time": 117.83999999999999,
          "velocity": 0.8818897637795275
        },
        {
          "duration": 0.12000000000000455,
          "durationTicks": 24,
          "midi": 42,
          "name": "F#2",
          "ticks": 23592,
          "time": 117.96,
          "velocity": 0.8818897637795275
        },
        {
          "duration": 0.11999999999999034,
          "durationTicks": 24,
          "midi": 77,
          "name": "F5",
          "ticks": 23616,
          "time": 118.08,
          "velocity": 0.7244094488188977
        },
        {
          "duration": 0.11999999999999034,
          "durationTicks": 24,
          "midi": 42,
          "name": "F#2",
          "ticks": 23616,
          "time": 118.08,
          "velocity": 0.8818897637795275
        },
        {
          "duration": 0.11999999999999034,
          "durationTicks": 24,
          "midi": 36,
          "name": "C2",
          "ticks": 23616,
          "time": 118.08,
          "velocity": 0.7874015748031497
        },
        {
          "duration": 0.12000000000000455,
          "durationTicks": 24,
          "midi": 77,
          "name": "F5",
          "ticks": 23640,
          "time": 118.19999999999999,
          "velocity": 0.47244094488188976
        },
        {
          "duration": 0.12000000000000455,
          "durationTicks": 24,
          "midi": 42,
          "name": "F#2",
          "ticks": 23664,
          "time": 118.32,
          "velocity": 0.8818897637795275
        },
        {
          "duration": 0.12000000000000455,
          "durationTicks": 24,
          "midi": 64,
          "name": "E4",
          "ticks": 23664,
          "time": 118.32,
          "velocity": 0.5669291338582677
        },
        {
          "duration": 0.12000000000000455,
          "durationTicks": 24,
          "midi": 77,
          "name": "F5",
          "ticks": 23664,
          "time": 118.32,
          "velocity": 0.28346456692913385
        },
        {
          "duration": 0.12000000000000455,
          "durationTicks": 24,
          "midi": 42,
          "name": "F#2",
          "ticks": 23688,
          "time": 118.44,
          "velocity": 0.8818897637795275
        },
        {
          "duration": 0.12000000000000455,
          "durationTicks": 24,
          "midi": 63,
          "name": "D#4",
          "ticks": 23688,
          "time": 118.44,
          "velocity": 0.5669291338582677
        },
        {
          "duration": 0.11999999999999034,
          "durationTicks": 24,
          "midi": 38,
          "name": "D2",
          "ticks": 23712,
          "time": 118.56,
          "velocity": 0.8818897637795275
        },
        {
          "duration": 0.11999999999999034,
          "durationTicks": 24,
          "midi": 46,
          "name": "A#2",
          "ticks": 23712,
          "time": 118.56,
          "velocity": 0.6299212598425197
        },
        {
          "duration": 0.12000000000000455,
          "durationTicks": 24,
          "midi": 42,
          "name": "F#2",
          "ticks": 23760,
          "time": 118.8,
          "velocity": 0.8818897637795275
        },
        {
          "duration": 0.11999999999999034,
          "durationTicks": 24,
          "midi": 42,
          "name": "F#2",
          "ticks": 23784,
          "time": 118.92,
          "velocity": 0.8818897637795275
        },
        {
          "duration": 0.12000000000000455,
          "durationTicks": 24,
          "midi": 42,
          "name": "F#2",
          "ticks": 23808,
          "time": 119.03999999999999,
          "velocity": 0.8818897637795275
        },
        {
          "duration": 0.12000000000000455,
          "durationTicks": 24,
          "midi": 36,
          "name": "C2",
          "ticks": 23808,
          "time": 119.03999999999999,
          "velocity": 0.7874015748031497
        },
        {
          "duration": 0.12000000000000455,
          "durationTicks": 24,
          "midi": 77,
          "name": "F5",
          "ticks": 23808,
          "time": 119.03999999999999,
          "velocity": 0.7244094488188977
        },
        {
          "duration": 0.12000000000000455,
          "durationTicks": 24,
          "midi": 77,
          "name": "F5",
          "ticks": 23832,
          "time": 119.16,
          "velocity": 0.47244094488188976
        },
        {
          "duration": 0.11999999999999034,
          "durationTicks": 24,
          "midi": 77,
          "name": "F5",
          "ticks": 23856,
          "time": 119.28,
          "velocity": 0.28346456692913385
        },
        {
          "duration": 0.11999999999999034,
          "durationTicks": 24,
          "midi": 42,
          "name": "F#2",
          "ticks": 23856,
          "time": 119.28,
          "velocity": 0.8818897637795275
        },
        {
          "duration": 0.12000000000000455,
          "durationTicks": 24,
          "midi": 42,
          "name": "F#2",
          "ticks": 23880,
          "time": 119.39999999999999,
          "velocity": 0.8818897637795275
        },
        {
          "duration": 0.12000000000000455,
          "durationTicks": 24,
          "midi": 38,
          "name": "D2",
          "ticks": 23904,
          "time": 119.52,
          "velocity": 0.8818897637795275
        },
        {
          "duration": 0.12000000000000455,
          "durationTicks": 24,
          "midi": 46,
          "name": "A#2",
          "ticks": 23904,
          "time": 119.52,
          "velocity": 0.6299212598425197
        },
        {
          "duration": 0.12000000000000455,
          "durationTicks": 24,
          "midi": 42,
          "name": "F#2",
          "ticks": 23952,
          "time": 119.75999999999999,
          "velocity": 0.8818897637795275
        },
        {
          "duration": 0.12000000000000455,
          "durationTicks": 24,
          "midi": 42,
          "name": "F#2",
          "ticks": 23976,
          "time": 119.88,
          "velocity": 0.8818897637795275
        },
        {
          "duration": 0.11999999999999034,
          "durationTicks": 24,
          "midi": 42,
          "name": "F#2",
          "ticks": 24000,
          "time": 120,
          "velocity": 0.8818897637795275
        },
        {
          "duration": 0.11999999999999034,
          "durationTicks": 24,
          "midi": 36,
          "name": "C2",
          "ticks": 24000,
          "time": 120,
          "velocity": 0.7874015748031497
        },
        {
          "duration": 0.11999999999999034,
          "durationTicks": 24,
          "midi": 77,
          "name": "F5",
          "ticks": 24000,
          "time": 120,
          "velocity": 0.7244094488188977
        },
        {
          "duration": 0.12000000000000455,
          "durationTicks": 24,
          "midi": 77,
          "name": "F5",
          "ticks": 24024,
          "time": 120.11999999999999,
          "velocity": 0.47244094488188976
        },
        {
          "duration": 0.12000000000000455,
          "durationTicks": 24,
          "midi": 77,
          "name": "F5",
          "ticks": 24048,
          "time": 120.24,
          "velocity": 0.28346456692913385
        },
        {
          "duration": 0.12000000000000455,
          "durationTicks": 24,
          "midi": 42,
          "name": "F#2",
          "ticks": 24048,
          "time": 120.24,
          "velocity": 0.8818897637795275
        },
        {
          "duration": 0.12000000000000455,
          "durationTicks": 24,
          "midi": 64,
          "name": "E4",
          "ticks": 24048,
          "time": 120.24,
          "velocity": 0.5669291338582677
        },
        {
          "duration": 0.11999999999999034,
          "durationTicks": 24,
          "midi": 42,
          "name": "F#2",
          "ticks": 24072,
          "time": 120.36,
          "velocity": 0.8818897637795275
        },
        {
          "duration": 0.11999999999999034,
          "durationTicks": 24,
          "midi": 63,
          "name": "D#4",
          "ticks": 24072,
          "time": 120.36,
          "velocity": 0.5669291338582677
        },
        {
          "duration": 0.12000000000000455,
          "durationTicks": 24,
          "midi": 46,
          "name": "A#2",
          "ticks": 24096,
          "time": 120.47999999999999,
          "velocity": 0.6299212598425197
        },
        {
          "duration": 0.12000000000000455,
          "durationTicks": 24,
          "midi": 38,
          "name": "D2",
          "ticks": 24096,
          "time": 120.47999999999999,
          "velocity": 0.8818897637795275
        },
        {
          "duration": 0.11999999999999034,
          "durationTicks": 24,
          "midi": 42,
          "name": "F#2",
          "ticks": 24144,
          "time": 120.72,
          "velocity": 0.8818897637795275
        },
        {
          "duration": 0.12000000000000455,
          "durationTicks": 24,
          "midi": 42,
          "name": "F#2",
          "ticks": 24168,
          "time": 120.83999999999999,
          "velocity": 0.8818897637795275
        },
        {
          "duration": 0.12000000000000455,
          "durationTicks": 24,
          "midi": 42,
          "name": "F#2",
          "ticks": 24192,
          "time": 120.96,
          "velocity": 0.8818897637795275
        },
        {
          "duration": 0.12000000000000455,
          "durationTicks": 24,
          "midi": 36,
          "name": "C2",
          "ticks": 24192,
          "time": 120.96,
          "velocity": 0.7874015748031497
        },
        {
          "duration": 0.12000000000000455,
          "durationTicks": 24,
          "midi": 77,
          "name": "F5",
          "ticks": 24192,
          "time": 120.96,
          "velocity": 0.7244094488188977
        },
        {
          "duration": 0.11999999999999034,
          "durationTicks": 24,
          "midi": 77,
          "name": "F5",
          "ticks": 24216,
          "time": 121.08,
          "velocity": 0.47244094488188976
        },
        {
          "duration": 0.12000000000000455,
          "durationTicks": 24,
          "midi": 77,
          "name": "F5",
          "ticks": 24240,
          "time": 121.19999999999999,
          "velocity": 0.28346456692913385
        },
        {
          "duration": 0.12000000000000455,
          "durationTicks": 24,
          "midi": 42,
          "name": "F#2",
          "ticks": 24240,
          "time": 121.19999999999999,
          "velocity": 0.8818897637795275
        },
        {
          "duration": 0.12000000000000455,
          "durationTicks": 24,
          "midi": 42,
          "name": "F#2",
          "ticks": 24264,
          "time": 121.32,
          "velocity": 0.8818897637795275
        },
        {
          "duration": 0.12000000000000455,
          "durationTicks": 24,
          "midi": 38,
          "name": "D2",
          "ticks": 24288,
          "time": 121.44,
          "velocity": 0.8818897637795275
        },
        {
          "duration": 0.12000000000000455,
          "durationTicks": 24,
          "midi": 46,
          "name": "A#2",
          "ticks": 24288,
          "time": 121.44,
          "velocity": 0.6299212598425197
        },
        {
          "duration": 0.12000000000000455,
          "durationTicks": 24,
          "midi": 42,
          "name": "F#2",
          "ticks": 24336,
          "time": 121.67999999999999,
          "velocity": 0.8818897637795275
        },
        {
          "duration": 0.12000000000000455,
          "durationTicks": 24,
          "midi": 42,
          "name": "F#2",
          "ticks": 24360,
          "time": 121.8,
          "velocity": 0.8818897637795275
        },
        {
          "duration": 0.11999999999999034,
          "durationTicks": 24,
          "midi": 77,
          "name": "F5",
          "ticks": 24384,
          "time": 121.92,
          "velocity": 0.7244094488188977
        },
        {
          "duration": 0.11999999999999034,
          "durationTicks": 24,
          "midi": 36,
          "name": "C2",
          "ticks": 24384,
          "time": 121.92,
          "velocity": 0.7874015748031497
        },
        {
          "duration": 0.11999999999999034,
          "durationTicks": 24,
          "midi": 42,
          "name": "F#2",
          "ticks": 24384,
          "time": 121.92,
          "velocity": 0.8818897637795275
        },
        {
          "duration": 0.12000000000000455,
          "durationTicks": 24,
          "midi": 77,
          "name": "F5",
          "ticks": 24408,
          "time": 122.03999999999999,
          "velocity": 0.47244094488188976
        },
        {
          "duration": 0.12000000000000455,
          "durationTicks": 24,
          "midi": 42,
          "name": "F#2",
          "ticks": 24432,
          "time": 122.16,
          "velocity": 0.8818897637795275
        },
        {
          "duration": 0.12000000000000455,
          "durationTicks": 24,
          "midi": 64,
          "name": "E4",
          "ticks": 24432,
          "time": 122.16,
          "velocity": 0.5669291338582677
        },
        {
          "duration": 0.12000000000000455,
          "durationTicks": 24,
          "midi": 77,
          "name": "F5",
          "ticks": 24432,
          "time": 122.16,
          "velocity": 0.28346456692913385
        },
        {
          "duration": 0.11999999999999034,
          "durationTicks": 24,
          "midi": 42,
          "name": "F#2",
          "ticks": 24456,
          "time": 122.28,
          "velocity": 0.8818897637795275
        },
        {
          "duration": 0.11999999999999034,
          "durationTicks": 24,
          "midi": 63,
          "name": "D#4",
          "ticks": 24456,
          "time": 122.28,
          "velocity": 0.5669291338582677
        },
        {
          "duration": 0.12000000000000455,
          "durationTicks": 24,
          "midi": 38,
          "name": "D2",
          "ticks": 24480,
          "time": 122.39999999999999,
          "velocity": 0.8818897637795275
        },
        {
          "duration": 0.12000000000000455,
          "durationTicks": 24,
          "midi": 46,
          "name": "A#2",
          "ticks": 24480,
          "time": 122.39999999999999,
          "velocity": 0.6299212598425197
        },
        {
          "duration": 0.11999999999999034,
          "durationTicks": 24,
          "midi": 42,
          "name": "F#2",
          "ticks": 24528,
          "time": 122.64,
          "velocity": 0.8818897637795275
        },
        {
          "duration": 0.12000000000000455,
          "durationTicks": 24,
          "midi": 42,
          "name": "F#2",
          "ticks": 24552,
          "time": 122.75999999999999,
          "velocity": 0.8818897637795275
        },
        {
          "duration": 0.12000000000000455,
          "durationTicks": 24,
          "midi": 42,
          "name": "F#2",
          "ticks": 24576,
          "time": 122.88,
          "velocity": 0.8818897637795275
        },
        {
          "duration": 0.12000000000000455,
          "durationTicks": 24,
          "midi": 36,
          "name": "C2",
          "ticks": 24576,
          "time": 122.88,
          "velocity": 0.7874015748031497
        },
        {
          "duration": 0.12000000000000455,
          "durationTicks": 24,
          "midi": 77,
          "name": "F5",
          "ticks": 24576,
          "time": 122.88,
          "velocity": 0.7244094488188977
        },
        {
          "duration": 0.11999999999999034,
          "durationTicks": 24,
          "midi": 77,
          "name": "F5",
          "ticks": 24600,
          "time": 123,
          "velocity": 0.47244094488188976
        },
        {
          "duration": 0.12000000000000455,
          "durationTicks": 24,
          "midi": 77,
          "name": "F5",
          "ticks": 24624,
          "time": 123.11999999999999,
          "velocity": 0.28346456692913385
        },
        {
          "duration": 0.12000000000000455,
          "durationTicks": 24,
          "midi": 42,
          "name": "F#2",
          "ticks": 24624,
          "time": 123.11999999999999,
          "velocity": 0.8818897637795275
        },
        {
          "duration": 0.12000000000000455,
          "durationTicks": 24,
          "midi": 42,
          "name": "F#2",
          "ticks": 24648,
          "time": 123.24,
          "velocity": 0.8818897637795275
        },
        {
          "duration": 0.11999999999999034,
          "durationTicks": 24,
          "midi": 38,
          "name": "D2",
          "ticks": 24672,
          "time": 123.36,
          "velocity": 0.8818897637795275
        },
        {
          "duration": 0.11999999999999034,
          "durationTicks": 24,
          "midi": 46,
          "name": "A#2",
          "ticks": 24672,
          "time": 123.36,
          "velocity": 0.6299212598425197
        },
        {
          "duration": 0.12000000000000455,
          "durationTicks": 24,
          "midi": 42,
          "name": "F#2",
          "ticks": 24720,
          "time": 123.6,
          "velocity": 0.8818897637795275
        },
        {
          "duration": 0.11999999999999034,
          "durationTicks": 24,
          "midi": 42,
          "name": "F#2",
          "ticks": 24744,
          "time": 123.72,
          "velocity": 0.8818897637795275
        },
        {
          "duration": 0.12000000000000455,
          "durationTicks": 24,
          "midi": 42,
          "name": "F#2",
          "ticks": 24768,
          "time": 123.83999999999999,
          "velocity": 0.8818897637795275
        },
        {
          "duration": 0.12000000000000455,
          "durationTicks": 24,
          "midi": 36,
          "name": "C2",
          "ticks": 24768,
          "time": 123.83999999999999,
          "velocity": 0.7874015748031497
        },
        {
          "duration": 0.12000000000000455,
          "durationTicks": 24,
          "midi": 77,
          "name": "F5",
          "ticks": 24768,
          "time": 123.83999999999999,
          "velocity": 0.7244094488188977
        },
        {
          "duration": 0.12000000000000455,
          "durationTicks": 24,
          "midi": 77,
          "name": "F5",
          "ticks": 24792,
          "time": 123.96,
          "velocity": 0.47244094488188976
        },
        {
          "duration": 0.11999999999999034,
          "durationTicks": 24,
          "midi": 77,
          "name": "F5",
          "ticks": 24816,
          "time": 124.08,
          "velocity": 0.28346456692913385
        },
        {
          "duration": 0.11999999999999034,
          "durationTicks": 24,
          "midi": 64,
          "name": "E4",
          "ticks": 24816,
          "time": 124.08,
          "velocity": 0.5669291338582677
        },
        {
          "duration": 0.11999999999999034,
          "durationTicks": 24,
          "midi": 42,
          "name": "F#2",
          "ticks": 24816,
          "time": 124.08,
          "velocity": 0.8818897637795275
        },
        {
          "duration": 0.12000000000000455,
          "durationTicks": 24,
          "midi": 63,
          "name": "D#4",
          "ticks": 24840,
          "time": 124.19999999999999,
          "velocity": 0.5669291338582677
        },
        {
          "duration": 0.12000000000000455,
          "durationTicks": 24,
          "midi": 42,
          "name": "F#2",
          "ticks": 24840,
          "time": 124.19999999999999,
          "velocity": 0.8818897637795275
        },
        {
          "duration": 0.12000000000000455,
          "durationTicks": 24,
          "midi": 38,
          "name": "D2",
          "ticks": 24864,
          "time": 124.32,
          "velocity": 0.8818897637795275
        },
        {
          "duration": 0.12000000000000455,
          "durationTicks": 24,
          "midi": 46,
          "name": "A#2",
          "ticks": 24864,
          "time": 124.32,
          "velocity": 0.6299212598425197
        },
        {
          "duration": 0.11999999999999034,
          "durationTicks": 24,
          "midi": 42,
          "name": "F#2",
          "ticks": 24912,
          "time": 124.56,
          "velocity": 0.8818897637795275
        },
        {
          "duration": 0.12000000000000455,
          "durationTicks": 24,
          "midi": 42,
          "name": "F#2",
          "ticks": 24936,
          "time": 124.67999999999999,
          "velocity": 0.8818897637795275
        },
        {
          "duration": 0.12000000000000455,
          "durationTicks": 24,
          "midi": 42,
          "name": "F#2",
          "ticks": 24960,
          "time": 124.8,
          "velocity": 0.8818897637795275
        },
        {
          "duration": 0.12000000000000455,
          "durationTicks": 24,
          "midi": 36,
          "name": "C2",
          "ticks": 24960,
          "time": 124.8,
          "velocity": 0.7874015748031497
        },
        {
          "duration": 0.12000000000000455,
          "durationTicks": 24,
          "midi": 77,
          "name": "F5",
          "ticks": 24960,
          "time": 124.8,
          "velocity": 0.7244094488188977
        },
        {
          "duration": 0.11999999999999034,
          "durationTicks": 24,
          "midi": 77,
          "name": "F5",
          "ticks": 24984,
          "time": 124.92,
          "velocity": 0.47244094488188976
        },
        {
          "duration": 0.12000000000000455,
          "durationTicks": 24,
          "midi": 77,
          "name": "F5",
          "ticks": 25008,
          "time": 125.03999999999999,
          "velocity": 0.28346456692913385
        },
        {
          "duration": 0.12000000000000455,
          "durationTicks": 24,
          "midi": 42,
          "name": "F#2",
          "ticks": 25008,
          "time": 125.03999999999999,
          "velocity": 0.8818897637795275
        },
        {
          "duration": 0.12000000000000455,
          "durationTicks": 24,
          "midi": 42,
          "name": "F#2",
          "ticks": 25032,
          "time": 125.16,
          "velocity": 0.8818897637795275
        },
        {
          "duration": 0.11999999999999034,
          "durationTicks": 24,
          "midi": 38,
          "name": "D2",
          "ticks": 25056,
          "time": 125.28,
          "velocity": 0.8818897637795275
        },
        {
          "duration": 0.11999999999999034,
          "durationTicks": 24,
          "midi": 46,
          "name": "A#2",
          "ticks": 25056,
          "time": 125.28,
          "velocity": 0.6299212598425197
        },
        {
          "duration": 0.12000000000000455,
          "durationTicks": 24,
          "midi": 42,
          "name": "F#2",
          "ticks": 25104,
          "time": 125.52,
          "velocity": 0.8818897637795275
        },
        {
          "duration": 0.11999999999999034,
          "durationTicks": 24,
          "midi": 42,
          "name": "F#2",
          "ticks": 25128,
          "time": 125.64,
          "velocity": 0.8818897637795275
        },
        {
          "duration": 0.12000000000000455,
          "durationTicks": 24,
          "midi": 42,
          "name": "F#2",
          "ticks": 25152,
          "time": 125.75999999999999,
          "velocity": 0.8818897637795275
        },
        {
          "duration": 0.12000000000000455,
          "durationTicks": 24,
          "midi": 36,
          "name": "C2",
          "ticks": 25152,
          "time": 125.75999999999999,
          "velocity": 0.7874015748031497
        },
        {
          "duration": 0.12000000000000455,
          "durationTicks": 24,
          "midi": 77,
          "name": "F5",
          "ticks": 25152,
          "time": 125.75999999999999,
          "velocity": 0.7244094488188977
        },
        {
          "duration": 0.12000000000000455,
          "durationTicks": 24,
          "midi": 77,
          "name": "F5",
          "ticks": 25176,
          "time": 125.88,
          "velocity": 0.47244094488188976
        },
        {
          "duration": 0.11999999999999034,
          "durationTicks": 24,
          "midi": 77,
          "name": "F5",
          "ticks": 25200,
          "time": 126,
          "velocity": 0.28346456692913385
        },
        {
          "duration": 0.11999999999999034,
          "durationTicks": 24,
          "midi": 64,
          "name": "E4",
          "ticks": 25200,
          "time": 126,
          "velocity": 0.5669291338582677
        },
        {
          "duration": 0.11999999999999034,
          "durationTicks": 24,
          "midi": 42,
          "name": "F#2",
          "ticks": 25200,
          "time": 126,
          "velocity": 0.8818897637795275
        },
        {
          "duration": 0.12000000000000455,
          "durationTicks": 24,
          "midi": 63,
          "name": "D#4",
          "ticks": 25224,
          "time": 126.11999999999999,
          "velocity": 0.5669291338582677
        },
        {
          "duration": 0.12000000000000455,
          "durationTicks": 24,
          "midi": 42,
          "name": "F#2",
          "ticks": 25224,
          "time": 126.11999999999999,
          "velocity": 0.8818897637795275
        },
        {
          "duration": 0.12000000000000455,
          "durationTicks": 24,
          "midi": 46,
          "name": "A#2",
          "ticks": 25248,
          "time": 126.24,
          "velocity": 0.6299212598425197
        },
        {
          "duration": 0.12000000000000455,
          "durationTicks": 24,
          "midi": 38,
          "name": "D2",
          "ticks": 25248,
          "time": 126.24,
          "velocity": 0.8818897637795275
        },
        {
          "duration": 0.12000000000000455,
          "durationTicks": 24,
          "midi": 42,
          "name": "F#2",
          "ticks": 25296,
          "time": 126.47999999999999,
          "velocity": 0.8818897637795275
        },
        {
          "duration": 0.12000000000000455,
          "durationTicks": 24,
          "midi": 42,
          "name": "F#2",
          "ticks": 25320,
          "time": 126.6,
          "velocity": 0.8818897637795275
        },
        {
          "duration": 0.11999999999999034,
          "durationTicks": 24,
          "midi": 36,
          "name": "C2",
          "ticks": 25344,
          "time": 126.72,
          "velocity": 0.7874015748031497
        },
        {
          "duration": 0.11999999999999034,
          "durationTicks": 24,
          "midi": 42,
          "name": "F#2",
          "ticks": 25344,
          "time": 126.72,
          "velocity": 0.8818897637795275
        },
        {
          "duration": 0.11999999999999034,
          "durationTicks": 24,
          "midi": 77,
          "name": "F5",
          "ticks": 25344,
          "time": 126.72,
          "velocity": 0.7244094488188977
        },
        {
          "duration": 0.12000000000000455,
          "durationTicks": 24,
          "midi": 77,
          "name": "F5",
          "ticks": 25368,
          "time": 126.83999999999999,
          "velocity": 0.47244094488188976
        },
        {
          "duration": 0.12000000000000455,
          "durationTicks": 24,
          "midi": 77,
          "name": "F5",
          "ticks": 25392,
          "time": 126.96,
          "velocity": 0.28346456692913385
        },
        {
          "duration": 0.12000000000000455,
          "durationTicks": 24,
          "midi": 42,
          "name": "F#2",
          "ticks": 25392,
          "time": 126.96,
          "velocity": 0.8818897637795275
        },
        {
          "duration": 0.11999999999999034,
          "durationTicks": 24,
          "midi": 42,
          "name": "F#2",
          "ticks": 25416,
          "time": 127.08,
          "velocity": 0.8818897637795275
        },
        {
          "duration": 0.12000000000000455,
          "durationTicks": 24,
          "midi": 38,
          "name": "D2",
          "ticks": 25440,
          "time": 127.19999999999999,
          "velocity": 0.8818897637795275
        },
        {
          "duration": 0.12000000000000455,
          "durationTicks": 24,
          "midi": 46,
          "name": "A#2",
          "ticks": 25440,
          "time": 127.19999999999999,
          "velocity": 0.6299212598425197
        },
        {
          "duration": 0.12000000000000455,
          "durationTicks": 24,
          "midi": 42,
          "name": "F#2",
          "ticks": 25488,
          "time": 127.44,
          "velocity": 0.8818897637795275
        },
        {
          "duration": 0.11999999999999034,
          "durationTicks": 24,
          "midi": 42,
          "name": "F#2",
          "ticks": 25512,
          "time": 127.56,
          "velocity": 0.8818897637795275
        },
        {
          "duration": 0.12000000000000455,
          "durationTicks": 24,
          "midi": 42,
          "name": "F#2",
          "ticks": 25536,
          "time": 127.67999999999999,
          "velocity": 0.8818897637795275
        },
        {
          "duration": 0.12000000000000455,
          "durationTicks": 24,
          "midi": 36,
          "name": "C2",
          "ticks": 25536,
          "time": 127.67999999999999,
          "velocity": 0.7874015748031497
        },
        {
          "duration": 0.12000000000000455,
          "durationTicks": 24,
          "midi": 77,
          "name": "F5",
          "ticks": 25536,
          "time": 127.67999999999999,
          "velocity": 0.7244094488188977
        },
        {
          "duration": 0.12000000000000455,
          "durationTicks": 24,
          "midi": 77,
          "name": "F5",
          "ticks": 25560,
          "time": 127.8,
          "velocity": 0.47244094488188976
        },
        {
          "duration": 0.11999999999999034,
          "durationTicks": 24,
          "midi": 77,
          "name": "F5",
          "ticks": 25584,
          "time": 127.92,
          "velocity": 0.28346456692913385
        },
        {
          "duration": 0.11999999999999034,
          "durationTicks": 24,
          "midi": 42,
          "name": "F#2",
          "ticks": 25584,
          "time": 127.92,
          "velocity": 0.8818897637795275
        },
        {
          "duration": 0.11999999999999034,
          "durationTicks": 24,
          "midi": 64,
          "name": "E4",
          "ticks": 25584,
          "time": 127.92,
          "velocity": 0.5669291338582677
        },
        {
          "duration": 0.12000000000000455,
          "durationTicks": 24,
          "midi": 42,
          "name": "F#2",
          "ticks": 25608,
          "time": 128.04,
          "velocity": 0.8818897637795275
        },
        {
          "duration": 0.12000000000000455,
          "durationTicks": 24,
          "midi": 63,
          "name": "D#4",
          "ticks": 25608,
          "time": 128.04,
          "velocity": 0.5669291338582677
        },
        {
          "duration": 0.12000000000000455,
          "durationTicks": 24,
          "midi": 46,
          "name": "A#2",
          "ticks": 25632,
          "time": 128.16,
          "velocity": 0.6299212598425197
        },
        {
          "duration": 0.12000000000000455,
          "durationTicks": 24,
          "midi": 38,
          "name": "D2",
          "ticks": 25632,
          "time": 128.16,
          "velocity": 0.8818897637795275
        },
        {
          "duration": 0.11999999999997613,
          "durationTicks": 24,
          "midi": 42,
          "name": "F#2",
          "ticks": 25680,
          "time": 128.4,
          "velocity": 0.8818897637795275
        },
        {
          "duration": 0.12000000000000455,
          "durationTicks": 24,
          "midi": 42,
          "name": "F#2",
          "ticks": 25704,
          "time": 128.51999999999998,
          "velocity": 0.8818897637795275
        },
        {
          "duration": 0.12000000000000455,
          "durationTicks": 24,
          "midi": 36,
          "name": "C2",
          "ticks": 25728,
          "time": 128.64,
          "velocity": 0.7874015748031497
        },
        {
          "duration": 0.12000000000000455,
          "durationTicks": 24,
          "midi": 42,
          "name": "F#2",
          "ticks": 25728,
          "time": 128.64,
          "velocity": 0.8818897637795275
        },
        {
          "duration": 0.12000000000000455,
          "durationTicks": 24,
          "midi": 77,
          "name": "F5",
          "ticks": 25728,
          "time": 128.64,
          "velocity": 0.7244094488188977
        },
        {
          "duration": 0.12000000000000455,
          "durationTicks": 24,
          "midi": 77,
          "name": "F5",
          "ticks": 25752,
          "time": 128.76,
          "velocity": 0.47244094488188976
        },
        {
          "duration": 0.12000000000000455,
          "durationTicks": 24,
          "midi": 77,
          "name": "F5",
          "ticks": 25776,
          "time": 128.88,
          "velocity": 0.28346456692913385
        },
        {
          "duration": 0.12000000000000455,
          "durationTicks": 24,
          "midi": 42,
          "name": "F#2",
          "ticks": 25776,
          "time": 128.88,
          "velocity": 0.8818897637795275
        },
        {
          "duration": 0.12000000000000455,
          "durationTicks": 24,
          "midi": 42,
          "name": "F#2",
          "ticks": 25800,
          "time": 129,
          "velocity": 0.8818897637795275
        },
        {
          "duration": 0.12000000000000455,
          "durationTicks": 24,
          "midi": 38,
          "name": "D2",
          "ticks": 25824,
          "time": 129.12,
          "velocity": 0.8818897637795275
        },
        {
          "duration": 0.12000000000000455,
          "durationTicks": 24,
          "midi": 46,
          "name": "A#2",
          "ticks": 25824,
          "time": 129.12,
          "velocity": 0.6299212598425197
        },
        {
          "duration": 0.12000000000000455,
          "durationTicks": 24,
          "midi": 42,
          "name": "F#2",
          "ticks": 25872,
          "time": 129.35999999999999,
          "velocity": 0.8818897637795275
        },
        {
          "duration": 0.12000000000000455,
          "durationTicks": 24,
          "midi": 42,
          "name": "F#2",
          "ticks": 25896,
          "time": 129.48,
          "velocity": 0.8818897637795275
        },
        {
          "duration": 0.12000000000000455,
          "durationTicks": 24,
          "midi": 36,
          "name": "C2",
          "ticks": 25920,
          "time": 129.6,
          "velocity": 0.7874015748031497
        },
        {
          "duration": 0.12000000000000455,
          "durationTicks": 24,
          "midi": 42,
          "name": "F#2",
          "ticks": 25920,
          "time": 129.6,
          "velocity": 0.8818897637795275
        },
        {
          "duration": 0.12000000000000455,
          "durationTicks": 24,
          "midi": 77,
          "name": "F5",
          "ticks": 25920,
          "time": 129.6,
          "velocity": 0.7244094488188977
        },
        {
          "duration": 0.12000000000000455,
          "durationTicks": 24,
          "midi": 77,
          "name": "F5",
          "ticks": 25944,
          "time": 129.72,
          "velocity": 0.47244094488188976
        },
        {
          "duration": 0.12000000000000455,
          "durationTicks": 24,
          "midi": 77,
          "name": "F5",
          "ticks": 25968,
          "time": 129.84,
          "velocity": 0.28346456692913385
        },
        {
          "duration": 0.12000000000000455,
          "durationTicks": 24,
          "midi": 64,
          "name": "E4",
          "ticks": 25968,
          "time": 129.84,
          "velocity": 0.5669291338582677
        },
        {
          "duration": 0.12000000000000455,
          "durationTicks": 24,
          "midi": 42,
          "name": "F#2",
          "ticks": 25968,
          "time": 129.84,
          "velocity": 0.8818897637795275
        },
        {
          "duration": 0.11999999999997613,
          "durationTicks": 24,
          "midi": 42,
          "name": "F#2",
          "ticks": 25992,
          "time": 129.96,
          "velocity": 0.8818897637795275
        },
        {
          "duration": 0.11999999999997613,
          "durationTicks": 24,
          "midi": 63,
          "name": "D#4",
          "ticks": 25992,
          "time": 129.96,
          "velocity": 0.5669291338582677
        },
        {
          "duration": 0.12000000000000455,
          "durationTicks": 24,
          "midi": 38,
          "name": "D2",
          "ticks": 26016,
          "time": 130.07999999999998,
          "velocity": 0.8818897637795275
        },
        {
          "duration": 0.12000000000000455,
          "durationTicks": 24,
          "midi": 46,
          "name": "A#2",
          "ticks": 26016,
          "time": 130.07999999999998,
          "velocity": 0.6299212598425197
        },
        {
          "duration": 0.12000000000000455,
          "durationTicks": 24,
          "midi": 42,
          "name": "F#2",
          "ticks": 26064,
          "time": 130.32,
          "velocity": 0.8818897637795275
        },
        {
          "duration": 0.12000000000000455,
          "durationTicks": 24,
          "midi": 42,
          "name": "F#2",
          "ticks": 26088,
          "time": 130.44,
          "velocity": 0.8818897637795275
        },
        {
          "duration": 0.12000000000000455,
          "durationTicks": 24,
          "midi": 77,
          "name": "F5",
          "ticks": 26112,
          "time": 130.56,
          "velocity": 0.7244094488188977
        },
        {
          "duration": 0.12000000000000455,
          "durationTicks": 24,
          "midi": 36,
          "name": "C2",
          "ticks": 26112,
          "time": 130.56,
          "velocity": 0.7874015748031497
        },
        {
          "duration": 0.12000000000000455,
          "durationTicks": 24,
          "midi": 42,
          "name": "F#2",
          "ticks": 26112,
          "time": 130.56,
          "velocity": 0.8818897637795275
        },
        {
          "duration": 0.11999999999997613,
          "durationTicks": 24,
          "midi": 77,
          "name": "F5",
          "ticks": 26136,
          "time": 130.68,
          "velocity": 0.5354330708661418
        },
        {
          "duration": 0.12000000000000455,
          "durationTicks": 24,
          "midi": 42,
          "name": "F#2",
          "ticks": 26160,
          "time": 130.79999999999998,
          "velocity": 0.8818897637795275
        },
        {
          "duration": 0.12000000000000455,
          "durationTicks": 24,
          "midi": 77,
          "name": "F5",
          "ticks": 26160,
          "time": 130.79999999999998,
          "velocity": 0.28346456692913385
        },
        {
          "duration": 0.12000000000000455,
          "durationTicks": 24,
          "midi": 42,
          "name": "F#2",
          "ticks": 26184,
          "time": 130.92,
          "velocity": 0.8818897637795275
        },
        {
          "duration": 0.12000000000000455,
          "durationTicks": 24,
          "midi": 46,
          "name": "A#2",
          "ticks": 26208,
          "time": 131.04,
          "velocity": 0.6299212598425197
        },
        {
          "duration": 0.12000000000000455,
          "durationTicks": 24,
          "midi": 38,
          "name": "D2",
          "ticks": 26208,
          "time": 131.04,
          "velocity": 0.8818897637795275
        },
        {
          "duration": 0.12000000000000455,
          "durationTicks": 24,
          "midi": 42,
          "name": "F#2",
          "ticks": 26256,
          "time": 131.28,
          "velocity": 0.8818897637795275
        },
        {
          "duration": 0.11999999999997613,
          "durationTicks": 24,
          "midi": 42,
          "name": "F#2",
          "ticks": 26280,
          "time": 131.4,
          "velocity": 0.8818897637795275
        },
        {
          "duration": 0.12000000000000455,
          "durationTicks": 24,
          "midi": 77,
          "name": "F5",
          "ticks": 26304,
          "time": 131.51999999999998,
          "velocity": 0.7244094488188977
        },
        {
          "duration": 0.12000000000000455,
          "durationTicks": 24,
          "midi": 36,
          "name": "C2",
          "ticks": 26304,
          "time": 131.51999999999998,
          "velocity": 0.7874015748031497
        },
        {
          "duration": 0.12000000000000455,
          "durationTicks": 24,
          "midi": 42,
          "name": "F#2",
          "ticks": 26304,
          "time": 131.51999999999998,
          "velocity": 0.8818897637795275
        },
        {
          "duration": 0.12000000000000455,
          "durationTicks": 24,
          "midi": 77,
          "name": "F5",
          "ticks": 26328,
          "time": 131.64,
          "velocity": 0.47244094488188976
        },
        {
          "duration": 0.12000000000000455,
          "durationTicks": 24,
          "midi": 64,
          "name": "E4",
          "ticks": 26352,
          "time": 131.76,
          "velocity": 0.5669291338582677
        },
        {
          "duration": 0.12000000000000455,
          "durationTicks": 24,
          "midi": 42,
          "name": "F#2",
          "ticks": 26352,
          "time": 131.76,
          "velocity": 0.8818897637795275
        },
        {
          "duration": 0.12000000000000455,
          "durationTicks": 24,
          "midi": 77,
          "name": "F5",
          "ticks": 26352,
          "time": 131.76,
          "velocity": 0.28346456692913385
        },
        {
          "duration": 0.12000000000000455,
          "durationTicks": 24,
          "midi": 63,
          "name": "D#4",
          "ticks": 26376,
          "time": 131.88,
          "velocity": 0.5669291338582677
        },
        {
          "duration": 0.12000000000000455,
          "durationTicks": 24,
          "midi": 42,
          "name": "F#2",
          "ticks": 26376,
          "time": 131.88,
          "velocity": 0.8818897637795275
        },
        {
          "duration": 0.12000000000000455,
          "durationTicks": 24,
          "midi": 38,
          "name": "D2",
          "ticks": 26400,
          "time": 132,
          "velocity": 0.8818897637795275
        },
        {
          "duration": 0.12000000000000455,
          "durationTicks": 24,
          "midi": 46,
          "name": "A#2",
          "ticks": 26400,
          "time": 132,
          "velocity": 0.6299212598425197
        },
        {
          "duration": 0.11999999999997613,
          "durationTicks": 24,
          "midi": 42,
          "name": "F#2",
          "ticks": 26448,
          "time": 132.24,
          "velocity": 0.8818897637795275
        },
        {
          "duration": 0.12000000000000455,
          "durationTicks": 24,
          "midi": 42,
          "name": "F#2",
          "ticks": 26472,
          "time": 132.35999999999999,
          "velocity": 0.8818897637795275
        },
        {
          "duration": 0.12000000000000455,
          "durationTicks": 24,
          "midi": 77,
          "name": "F5",
          "ticks": 26496,
          "time": 132.48,
          "velocity": 0.7244094488188977
        },
        {
          "duration": 0.12000000000000455,
          "durationTicks": 24,
          "midi": 42,
          "name": "F#2",
          "ticks": 26496,
          "time": 132.48,
          "velocity": 0.8818897637795275
        },
        {
          "duration": 0.12000000000000455,
          "durationTicks": 24,
          "midi": 36,
          "name": "C2",
          "ticks": 26496,
          "time": 132.48,
          "velocity": 0.7874015748031497
        },
        {
          "duration": 0.12000000000000455,
          "durationTicks": 24,
          "midi": 77,
          "name": "F5",
          "ticks": 26520,
          "time": 132.6,
          "velocity": 0.47244094488188976
        },
        {
          "duration": 0.12000000000000455,
          "durationTicks": 24,
          "midi": 42,
          "name": "F#2",
          "ticks": 26544,
          "time": 132.72,
          "velocity": 0.8818897637795275
        },
        {
          "duration": 0.12000000000000455,
          "durationTicks": 24,
          "midi": 77,
          "name": "F5",
          "ticks": 26544,
          "time": 132.72,
          "velocity": 0.28346456692913385
        },
        {
          "duration": 0.12000000000000455,
          "durationTicks": 24,
          "midi": 42,
          "name": "F#2",
          "ticks": 26568,
          "time": 132.84,
          "velocity": 0.8818897637795275
        },
        {
          "duration": 0.11999999999997613,
          "durationTicks": 24,
          "midi": 38,
          "name": "D2",
          "ticks": 26592,
          "time": 132.96,
          "velocity": 0.8818897637795275
        },
        {
          "duration": 0.11999999999997613,
          "durationTicks": 24,
          "midi": 46,
          "name": "A#2",
          "ticks": 26592,
          "time": 132.96,
          "velocity": 0.6299212598425197
        },
        {
          "duration": 0.12000000000000455,
          "durationTicks": 24,
          "midi": 42,
          "name": "F#2",
          "ticks": 26640,
          "time": 133.2,
          "velocity": 0.8818897637795275
        },
        {
          "duration": 0.12000000000000455,
          "durationTicks": 24,
          "midi": 42,
          "name": "F#2",
          "ticks": 26664,
          "time": 133.32,
          "velocity": 0.8818897637795275
        },
        {
          "duration": 0.12000000000000455,
          "durationTicks": 24,
          "midi": 77,
          "name": "F5",
          "ticks": 26688,
          "time": 133.44,
          "velocity": 0.7244094488188977
        },
        {
          "duration": 0.12000000000000455,
          "durationTicks": 24,
          "midi": 42,
          "name": "F#2",
          "ticks": 26688,
          "time": 133.44,
          "velocity": 0.8818897637795275
        },
        {
          "duration": 0.12000000000000455,
          "durationTicks": 24,
          "midi": 36,
          "name": "C2",
          "ticks": 26688,
          "time": 133.44,
          "velocity": 0.7874015748031497
        },
        {
          "duration": 0.12000000000000455,
          "durationTicks": 24,
          "midi": 77,
          "name": "F5",
          "ticks": 26712,
          "time": 133.56,
          "velocity": 0.47244094488188976
        },
        {
          "duration": 0.11999999999997613,
          "durationTicks": 24,
          "midi": 42,
          "name": "F#2",
          "ticks": 26736,
          "time": 133.68,
          "velocity": 0.8818897637795275
        },
        {
          "duration": 0.11999999999997613,
          "durationTicks": 24,
          "midi": 64,
          "name": "E4",
          "ticks": 26736,
          "time": 133.68,
          "velocity": 0.5669291338582677
        },
        {
          "duration": 0.11999999999997613,
          "durationTicks": 24,
          "midi": 77,
          "name": "F5",
          "ticks": 26736,
          "time": 133.68,
          "velocity": 0.28346456692913385
        },
        {
          "duration": 0.12000000000000455,
          "durationTicks": 24,
          "midi": 42,
          "name": "F#2",
          "ticks": 26760,
          "time": 133.79999999999998,
          "velocity": 0.8818897637795275
        },
        {
          "duration": 0.12000000000000455,
          "durationTicks": 24,
          "midi": 63,
          "name": "D#4",
          "ticks": 26760,
          "time": 133.79999999999998,
          "velocity": 0.5669291338582677
        },
        {
          "duration": 0.12000000000000455,
          "durationTicks": 24,
          "midi": 38,
          "name": "D2",
          "ticks": 26784,
          "time": 133.92,
          "velocity": 0.8818897637795275
        },
        {
          "duration": 0.12000000000000455,
          "durationTicks": 24,
          "midi": 46,
          "name": "A#2",
          "ticks": 26784,
          "time": 133.92,
          "velocity": 0.6299212598425197
        },
        {
          "duration": 0.12000000000000455,
          "durationTicks": 24,
          "midi": 42,
          "name": "F#2",
          "ticks": 26832,
          "time": 134.16,
          "velocity": 0.8818897637795275
        },
        {
          "duration": 0.12000000000000455,
          "durationTicks": 24,
          "midi": 42,
          "name": "F#2",
          "ticks": 26856,
          "time": 134.28,
          "velocity": 0.8818897637795275
        },
        {
          "duration": 0.11999999999997613,
          "durationTicks": 24,
          "midi": 77,
          "name": "F5",
          "ticks": 26880,
          "time": 134.4,
          "velocity": 0.7244094488188977
        },
        {
          "duration": 0.11999999999997613,
          "durationTicks": 24,
          "midi": 36,
          "name": "C2",
          "ticks": 26880,
          "time": 134.4,
          "velocity": 0.7874015748031497
        },
        {
          "duration": 0.11999999999997613,
          "durationTicks": 24,
          "midi": 42,
          "name": "F#2",
          "ticks": 26880,
          "time": 134.4,
          "velocity": 0.8818897637795275
        },
        {
          "duration": 0.12000000000000455,
          "durationTicks": 24,
          "midi": 77,
          "name": "F5",
          "ticks": 26904,
          "time": 134.51999999999998,
          "velocity": 0.47244094488188976
        },
        {
          "duration": 0.12000000000000455,
          "durationTicks": 24,
          "midi": 42,
          "name": "F#2",
          "ticks": 26928,
          "time": 134.64,
          "velocity": 0.8818897637795275
        },
        {
          "duration": 0.12000000000000455,
          "durationTicks": 24,
          "midi": 77,
          "name": "F5",
          "ticks": 26928,
          "time": 134.64,
          "velocity": 0.28346456692913385
        },
        {
          "duration": 0.12000000000000455,
          "durationTicks": 24,
          "midi": 42,
          "name": "F#2",
          "ticks": 26952,
          "time": 134.76,
          "velocity": 0.8818897637795275
        },
        {
          "duration": 0.12000000000000455,
          "durationTicks": 24,
          "midi": 38,
          "name": "D2",
          "ticks": 26976,
          "time": 134.88,
          "velocity": 0.8818897637795275
        },
        {
          "duration": 0.12000000000000455,
          "durationTicks": 24,
          "midi": 46,
          "name": "A#2",
          "ticks": 26976,
          "time": 134.88,
          "velocity": 0.6299212598425197
        },
        {
          "duration": 0.12000000000000455,
          "durationTicks": 24,
          "midi": 42,
          "name": "F#2",
          "ticks": 27024,
          "time": 135.12,
          "velocity": 0.8818897637795275
        },
        {
          "duration": 0.11999999999997613,
          "durationTicks": 24,
          "midi": 42,
          "name": "F#2",
          "ticks": 27048,
          "time": 135.24,
          "velocity": 0.8818897637795275
        },
        {
          "duration": 0.12000000000000455,
          "durationTicks": 24,
          "midi": 77,
          "name": "F5",
          "ticks": 27072,
          "time": 135.35999999999999,
          "velocity": 0.7244094488188977
        },
        {
          "duration": 0.12000000000000455,
          "durationTicks": 24,
          "midi": 42,
          "name": "F#2",
          "ticks": 27072,
          "time": 135.35999999999999,
          "velocity": 0.8818897637795275
        },
        {
          "duration": 0.12000000000000455,
          "durationTicks": 24,
          "midi": 36,
          "name": "C2",
          "ticks": 27072,
          "time": 135.35999999999999,
          "velocity": 0.7874015748031497
        },
        {
          "duration": 0.12000000000000455,
          "durationTicks": 24,
          "midi": 77,
          "name": "F5",
          "ticks": 27096,
          "time": 135.48,
          "velocity": 0.47244094488188976
        },
        {
          "duration": 0.12000000000000455,
          "durationTicks": 24,
          "midi": 42,
          "name": "F#2",
          "ticks": 27120,
          "time": 135.6,
          "velocity": 0.8818897637795275
        },
        {
          "duration": 0.12000000000000455,
          "durationTicks": 24,
          "midi": 64,
          "name": "E4",
          "ticks": 27120,
          "time": 135.6,
          "velocity": 0.5669291338582677
        },
        {
          "duration": 0.12000000000000455,
          "durationTicks": 24,
          "midi": 77,
          "name": "F5",
          "ticks": 27120,
          "time": 135.6,
          "velocity": 0.28346456692913385
        },
        {
          "duration": 0.12000000000000455,
          "durationTicks": 24,
          "midi": 42,
          "name": "F#2",
          "ticks": 27144,
          "time": 135.72,
          "velocity": 0.8818897637795275
        },
        {
          "duration": 0.12000000000000455,
          "durationTicks": 24,
          "midi": 63,
          "name": "D#4",
          "ticks": 27144,
          "time": 135.72,
          "velocity": 0.5669291338582677
        },
        {
          "duration": 0.12000000000000455,
          "durationTicks": 24,
          "midi": 46,
          "name": "A#2",
          "ticks": 27168,
          "time": 135.84,
          "velocity": 0.6299212598425197
        },
        {
          "duration": 0.12000000000000455,
          "durationTicks": 24,
          "midi": 38,
          "name": "D2",
          "ticks": 27168,
          "time": 135.84,
          "velocity": 0.8818897637795275
        },
        {
          "duration": 0.12000000000000455,
          "durationTicks": 24,
          "midi": 42,
          "name": "F#2",
          "ticks": 27216,
          "time": 136.07999999999998,
          "velocity": 0.8818897637795275
        },
        {
          "duration": 0.12000000000000455,
          "durationTicks": 24,
          "midi": 42,
          "name": "F#2",
          "ticks": 27240,
          "time": 136.2,
          "velocity": 0.8818897637795275
        },
        {
          "duration": 0.12000000000000455,
          "durationTicks": 24,
          "midi": 77,
          "name": "F5",
          "ticks": 27264,
          "time": 136.32,
          "velocity": 0.7244094488188977
        },
        {
          "duration": 0.12000000000000455,
          "durationTicks": 24,
          "midi": 42,
          "name": "F#2",
          "ticks": 27264,
          "time": 136.32,
          "velocity": 0.8818897637795275
        },
        {
          "duration": 0.12000000000000455,
          "durationTicks": 24,
          "midi": 36,
          "name": "C2",
          "ticks": 27264,
          "time": 136.32,
          "velocity": 0.7874015748031497
        },
        {
          "duration": 0.12000000000000455,
          "durationTicks": 24,
          "midi": 77,
          "name": "F5",
          "ticks": 27288,
          "time": 136.44,
          "velocity": 0.47244094488188976
        },
        {
          "duration": 0.12000000000000455,
          "durationTicks": 24,
          "midi": 42,
          "name": "F#2",
          "ticks": 27312,
          "time": 136.56,
          "velocity": 0.8818897637795275
        },
        {
          "duration": 0.12000000000000455,
          "durationTicks": 24,
          "midi": 77,
          "name": "F5",
          "ticks": 27312,
          "time": 136.56,
          "velocity": 0.28346456692913385
        },
        {
          "duration": 0.11999999999997613,
          "durationTicks": 24,
          "midi": 42,
          "name": "F#2",
          "ticks": 27336,
          "time": 136.68,
          "velocity": 0.8818897637795275
        },
        {
          "duration": 0.12000000000000455,
          "durationTicks": 24,
          "midi": 38,
          "name": "D2",
          "ticks": 27360,
          "time": 136.79999999999998,
          "velocity": 0.8818897637795275
        },
        {
          "duration": 0.12000000000000455,
          "durationTicks": 24,
          "midi": 46,
          "name": "A#2",
          "ticks": 27360,
          "time": 136.79999999999998,
          "velocity": 0.6299212598425197
        },
        {
          "duration": 0.12000000000000455,
          "durationTicks": 24,
          "midi": 42,
          "name": "F#2",
          "ticks": 27408,
          "time": 137.04,
          "velocity": 0.8818897637795275
        },
        {
          "duration": 0.12000000000000455,
          "durationTicks": 24,
          "midi": 42,
          "name": "F#2",
          "ticks": 27432,
          "time": 137.16,
          "velocity": 0.8818897637795275
        },
        {
          "duration": 0.12000000000000455,
          "durationTicks": 24,
          "midi": 77,
          "name": "F5",
          "ticks": 27456,
          "time": 137.28,
          "velocity": 0.7244094488188977
        },
        {
          "duration": 0.12000000000000455,
          "durationTicks": 24,
          "midi": 42,
          "name": "F#2",
          "ticks": 27456,
          "time": 137.28,
          "velocity": 0.8818897637795275
        },
        {
          "duration": 0.12000000000000455,
          "durationTicks": 24,
          "midi": 36,
          "name": "C2",
          "ticks": 27456,
          "time": 137.28,
          "velocity": 0.7874015748031497
        },
        {
          "duration": 0.11999999999997613,
          "durationTicks": 24,
          "midi": 77,
          "name": "F5",
          "ticks": 27480,
          "time": 137.4,
          "velocity": 0.47244094488188976
        },
        {
          "duration": 0.12000000000000455,
          "durationTicks": 24,
          "midi": 42,
          "name": "F#2",
          "ticks": 27504,
          "time": 137.51999999999998,
          "velocity": 0.8818897637795275
        },
        {
          "duration": 0.12000000000000455,
          "durationTicks": 24,
          "midi": 64,
          "name": "E4",
          "ticks": 27504,
          "time": 137.51999999999998,
          "velocity": 0.5669291338582677
        },
        {
          "duration": 0.12000000000000455,
          "durationTicks": 24,
          "midi": 77,
          "name": "F5",
          "ticks": 27504,
          "time": 137.51999999999998,
          "velocity": 0.28346456692913385
        },
        {
          "duration": 0.12000000000000455,
          "durationTicks": 24,
          "midi": 42,
          "name": "F#2",
          "ticks": 27528,
          "time": 137.64,
          "velocity": 0.8818897637795275
        },
        {
          "duration": 0.12000000000000455,
          "durationTicks": 24,
          "midi": 63,
          "name": "D#4",
          "ticks": 27528,
          "time": 137.64,
          "velocity": 0.5669291338582677
        },
        {
          "duration": 0.12000000000000455,
          "durationTicks": 24,
          "midi": 46,
          "name": "A#2",
          "ticks": 27552,
          "time": 137.76,
          "velocity": 0.6299212598425197
        },
        {
          "duration": 0.12000000000000455,
          "durationTicks": 24,
          "midi": 38,
          "name": "D2",
          "ticks": 27552,
          "time": 137.76,
          "velocity": 0.8818897637795275
        },
        {
          "duration": 0.12000000000000455,
          "durationTicks": 24,
          "midi": 42,
          "name": "F#2",
          "ticks": 27600,
          "time": 138,
          "velocity": 0.8818897637795275
        },
        {
          "duration": 0.12000000000000455,
          "durationTicks": 24,
          "midi": 42,
          "name": "F#2",
          "ticks": 27624,
          "time": 138.12,
          "velocity": 0.8818897637795275
        },
        {
          "duration": 0.11999999999997613,
          "durationTicks": 24,
          "midi": 77,
          "name": "F5",
          "ticks": 27648,
          "time": 138.24,
          "velocity": 0.7244094488188977
        },
        {
          "duration": 0.11999999999997613,
          "durationTicks": 24,
          "midi": 42,
          "name": "F#2",
          "ticks": 27648,
          "time": 138.24,
          "velocity": 0.8818897637795275
        },
        {
          "duration": 0.11999999999997613,
          "durationTicks": 24,
          "midi": 36,
          "name": "C2",
          "ticks": 27648,
          "time": 138.24,
          "velocity": 0.7874015748031497
        },
        {
          "duration": 0.12000000000000455,
          "durationTicks": 24,
          "midi": 77,
          "name": "F5",
          "ticks": 27672,
          "time": 138.35999999999999,
          "velocity": 0.47244094488188976
        },
        {
          "duration": 0.12000000000000455,
          "durationTicks": 24,
          "midi": 42,
          "name": "F#2",
          "ticks": 27696,
          "time": 138.48,
          "velocity": 0.8818897637795275
        },
        {
          "duration": 0.12000000000000455,
          "durationTicks": 24,
          "midi": 77,
          "name": "F5",
          "ticks": 27696,
          "time": 138.48,
          "velocity": 0.28346456692913385
        },
        {
          "duration": 0.12000000000000455,
          "durationTicks": 24,
          "midi": 42,
          "name": "F#2",
          "ticks": 27720,
          "time": 138.6,
          "velocity": 0.8818897637795275
        },
        {
          "duration": 0.12000000000000455,
          "durationTicks": 24,
          "midi": 38,
          "name": "D2",
          "ticks": 27744,
          "time": 138.72,
          "velocity": 0.8818897637795275
        },
        {
          "duration": 0.12000000000000455,
          "durationTicks": 24,
          "midi": 46,
          "name": "A#2",
          "ticks": 27744,
          "time": 138.72,
          "velocity": 0.6299212598425197
        },
        {
          "duration": 0.11999999999997613,
          "durationTicks": 24,
          "midi": 42,
          "name": "F#2",
          "ticks": 27792,
          "time": 138.96,
          "velocity": 0.8818897637795275
        },
        {
          "duration": 0.12000000000000455,
          "durationTicks": 24,
          "midi": 42,
          "name": "F#2",
          "ticks": 27816,
          "time": 139.07999999999998,
          "velocity": 0.8818897637795275
        },
        {
          "duration": 0.12000000000000455,
          "durationTicks": 24,
          "midi": 77,
          "name": "F5",
          "ticks": 27840,
          "time": 139.2,
          "velocity": 0.7244094488188977
        },
        {
          "duration": 0.12000000000000455,
          "durationTicks": 24,
          "midi": 42,
          "name": "F#2",
          "ticks": 27840,
          "time": 139.2,
          "velocity": 0.8818897637795275
        },
        {
          "duration": 0.12000000000000455,
          "durationTicks": 24,
          "midi": 36,
          "name": "C2",
          "ticks": 27840,
          "time": 139.2,
          "velocity": 0.7874015748031497
        },
        {
          "duration": 0.12000000000000455,
          "durationTicks": 24,
          "midi": 77,
          "name": "F5",
          "ticks": 27864,
          "time": 139.32,
          "velocity": 0.47244094488188976
        },
        {
          "duration": 0.12000000000000455,
          "durationTicks": 24,
          "midi": 64,
          "name": "E4",
          "ticks": 27888,
          "time": 139.44,
          "velocity": 0.5669291338582677
        },
        {
          "duration": 0.12000000000000455,
          "durationTicks": 24,
          "midi": 42,
          "name": "F#2",
          "ticks": 27888,
          "time": 139.44,
          "velocity": 0.8818897637795275
        },
        {
          "duration": 0.12000000000000455,
          "durationTicks": 24,
          "midi": 77,
          "name": "F5",
          "ticks": 27888,
          "time": 139.44,
          "velocity": 0.28346456692913385
        },
        {
          "duration": 0.12000000000000455,
          "durationTicks": 24,
          "midi": 63,
          "name": "D#4",
          "ticks": 27912,
          "time": 139.56,
          "velocity": 0.5669291338582677
        },
        {
          "duration": 0.12000000000000455,
          "durationTicks": 24,
          "midi": 42,
          "name": "F#2",
          "ticks": 27912,
          "time": 139.56,
          "velocity": 0.8818897637795275
        },
        {
          "duration": 0.11999999999997613,
          "durationTicks": 24,
          "midi": 46,
          "name": "A#2",
          "ticks": 27936,
          "time": 139.68,
          "velocity": 0.6299212598425197
        },
        {
          "duration": 0.11999999999997613,
          "durationTicks": 24,
          "midi": 38,
          "name": "D2",
          "ticks": 27936,
          "time": 139.68,
          "velocity": 0.8818897637795275
        },
        {
          "duration": 0.12000000000000455,
          "durationTicks": 24,
          "midi": 42,
          "name": "F#2",
          "ticks": 27984,
          "time": 139.92,
          "velocity": 0.8818897637795275
        },
        {
          "duration": 0.12000000000000455,
          "durationTicks": 24,
          "midi": 42,
          "name": "F#2",
          "ticks": 28008,
          "time": 140.04,
          "velocity": 0.8818897637795275
        },
        {
          "duration": 0.12000000000000455,
          "durationTicks": 24,
          "midi": 77,
          "name": "F5",
          "ticks": 28032,
          "time": 140.16,
          "velocity": 0.7244094488188977
        },
        {
          "duration": 0.12000000000000455,
          "durationTicks": 24,
          "midi": 36,
          "name": "C2",
          "ticks": 28032,
          "time": 140.16,
          "velocity": 0.7874015748031497
        },
        {
          "duration": 0.12000000000000455,
          "durationTicks": 24,
          "midi": 42,
          "name": "F#2",
          "ticks": 28032,
          "time": 140.16,
          "velocity": 0.8818897637795275
        },
        {
          "duration": 0.12000000000000455,
          "durationTicks": 24,
          "midi": 77,
          "name": "F5",
          "ticks": 28056,
          "time": 140.28,
          "velocity": 0.47244094488188976
        },
        {
          "duration": 0.11999999999997613,
          "durationTicks": 24,
          "midi": 42,
          "name": "F#2",
          "ticks": 28080,
          "time": 140.4,
          "velocity": 0.8818897637795275
        },
        {
          "duration": 0.11999999999997613,
          "durationTicks": 24,
          "midi": 77,
          "name": "F5",
          "ticks": 28080,
          "time": 140.4,
          "velocity": 0.28346456692913385
        },
        {
          "duration": 0.12000000000000455,
          "durationTicks": 24,
          "midi": 42,
          "name": "F#2",
          "ticks": 28104,
          "time": 140.51999999999998,
          "velocity": 0.8818897637795275
        },
        {
          "duration": 0.12000000000000455,
          "durationTicks": 24,
          "midi": 38,
          "name": "D2",
          "ticks": 28128,
          "time": 140.64,
          "velocity": 0.8818897637795275
        },
        {
          "duration": 0.12000000000000455,
          "durationTicks": 24,
          "midi": 46,
          "name": "A#2",
          "ticks": 28128,
          "time": 140.64,
          "velocity": 0.6299212598425197
        },
        {
          "duration": 0.12000000000000455,
          "durationTicks": 24,
          "midi": 42,
          "name": "F#2",
          "ticks": 28176,
          "time": 140.88,
          "velocity": 0.8818897637795275
        },
        {
          "duration": 0.12000000000000455,
          "durationTicks": 24,
          "midi": 42,
          "name": "F#2",
          "ticks": 28200,
          "time": 141,
          "velocity": 0.8818897637795275
        },
        {
          "duration": 0.11999999999997613,
          "durationTicks": 24,
          "midi": 77,
          "name": "F5",
          "ticks": 28224,
          "time": 141.12,
          "velocity": 0.7244094488188977
        },
        {
          "duration": 0.11999999999997613,
          "durationTicks": 24,
          "midi": 36,
          "name": "C2",
          "ticks": 28224,
          "time": 141.12,
          "velocity": 0.7874015748031497
        },
        {
          "duration": 0.11999999999997613,
          "durationTicks": 24,
          "midi": 42,
          "name": "F#2",
          "ticks": 28224,
          "time": 141.12,
          "velocity": 0.8818897637795275
        },
        {
          "duration": 0.12000000000000455,
          "durationTicks": 24,
          "midi": 77,
          "name": "F5",
          "ticks": 28248,
          "time": 141.23999999999998,
          "velocity": 0.47244094488188976
        },
        {
          "duration": 0.12000000000000455,
          "durationTicks": 24,
          "midi": 42,
          "name": "F#2",
          "ticks": 28272,
          "time": 141.35999999999999,
          "velocity": 0.8818897637795275
        },
        {
          "duration": 0.12000000000000455,
          "durationTicks": 24,
          "midi": 64,
          "name": "E4",
          "ticks": 28272,
          "time": 141.35999999999999,
          "velocity": 0.5669291338582677
        },
        {
          "duration": 0.12000000000000455,
          "durationTicks": 24,
          "midi": 77,
          "name": "F5",
          "ticks": 28272,
          "time": 141.35999999999999,
          "velocity": 0.28346456692913385
        },
        {
          "duration": 0.12000000000000455,
          "durationTicks": 24,
          "midi": 42,
          "name": "F#2",
          "ticks": 28296,
          "time": 141.48,
          "velocity": 0.8818897637795275
        },
        {
          "duration": 0.12000000000000455,
          "durationTicks": 24,
          "midi": 63,
          "name": "D#4",
          "ticks": 28296,
          "time": 141.48,
          "velocity": 0.5669291338582677
        },
        {
          "duration": 0.12000000000000455,
          "durationTicks": 24,
          "midi": 46,
          "name": "A#2",
          "ticks": 28320,
          "time": 141.6,
          "velocity": 0.6299212598425197
        },
        {
          "duration": 0.12000000000000455,
          "durationTicks": 24,
          "midi": 38,
          "name": "D2",
          "ticks": 28320,
          "time": 141.6,
          "velocity": 0.8818897637795275
        },
        {
          "duration": 0.12000000000000455,
          "durationTicks": 24,
          "midi": 42,
          "name": "F#2",
          "ticks": 28368,
          "time": 141.84,
          "velocity": 0.8818897637795275
        },
        {
          "duration": 0.11999999999997613,
          "durationTicks": 24,
          "midi": 42,
          "name": "F#2",
          "ticks": 28392,
          "time": 141.96,
          "velocity": 0.8818897637795275
        },
        {
          "duration": 0.12000000000000455,
          "durationTicks": 24,
          "midi": 77,
          "name": "F5",
          "ticks": 28416,
          "time": 142.07999999999998,
          "velocity": 0.7244094488188977
        },
        {
          "duration": 0.12000000000000455,
          "durationTicks": 24,
          "midi": 42,
          "name": "F#2",
          "ticks": 28416,
          "time": 142.07999999999998,
          "velocity": 0.8818897637795275
        },
        {
          "duration": 0.12000000000000455,
          "durationTicks": 24,
          "midi": 36,
          "name": "C2",
          "ticks": 28416,
          "time": 142.07999999999998,
          "velocity": 0.7874015748031497
        },
        {
          "duration": 0.12000000000000455,
          "durationTicks": 24,
          "midi": 77,
          "name": "F5",
          "ticks": 28440,
          "time": 142.2,
          "velocity": 0.47244094488188976
        },
        {
          "duration": 0.12000000000000455,
          "durationTicks": 24,
          "midi": 42,
          "name": "F#2",
          "ticks": 28464,
          "time": 142.32,
          "velocity": 0.8818897637795275
        },
        {
          "duration": 0.12000000000000455,
          "durationTicks": 24,
          "midi": 77,
          "name": "F5",
          "ticks": 28464,
          "time": 142.32,
          "velocity": 0.28346456692913385
        },
        {
          "duration": 0.12000000000000455,
          "durationTicks": 24,
          "midi": 42,
          "name": "F#2",
          "ticks": 28488,
          "time": 142.44,
          "velocity": 0.8818897637795275
        },
        {
          "duration": 0.12000000000000455,
          "durationTicks": 24,
          "midi": 46,
          "name": "A#2",
          "ticks": 28512,
          "time": 142.56,
          "velocity": 0.6299212598425197
        },
        {
          "duration": 0.12000000000000455,
          "durationTicks": 24,
          "midi": 38,
          "name": "D2",
          "ticks": 28512,
          "time": 142.56,
          "velocity": 0.8818897637795275
        },
        {
          "duration": 0.12000000000000455,
          "durationTicks": 24,
          "midi": 42,
          "name": "F#2",
          "ticks": 28560,
          "time": 142.79999999999998,
          "velocity": 0.8818897637795275
        },
        {
          "duration": 0.12000000000000455,
          "durationTicks": 24,
          "midi": 42,
          "name": "F#2",
          "ticks": 28584,
          "time": 142.92,
          "velocity": 0.8818897637795275
        },
        {
          "duration": 0.12000000000000455,
          "durationTicks": 24,
          "midi": 77,
          "name": "F5",
          "ticks": 28608,
          "time": 143.04,
          "velocity": 0.7244094488188977
        },
        {
          "duration": 0.12000000000000455,
          "durationTicks": 24,
          "midi": 42,
          "name": "F#2",
          "ticks": 28608,
          "time": 143.04,
          "velocity": 0.8818897637795275
        },
        {
          "duration": 0.12000000000000455,
          "durationTicks": 24,
          "midi": 36,
          "name": "C2",
          "ticks": 28608,
          "time": 143.04,
          "velocity": 0.7874015748031497
        },
        {
          "duration": 0.12000000000000455,
          "durationTicks": 24,
          "midi": 77,
          "name": "F5",
          "ticks": 28632,
          "time": 143.16,
          "velocity": 0.47244094488188976
        },
        {
          "duration": 0.12000000000000455,
          "durationTicks": 24,
          "midi": 77,
          "name": "F5",
          "ticks": 28656,
          "time": 143.28,
          "velocity": 0.28346456692913385
        },
        {
          "duration": 0.12000000000000455,
          "durationTicks": 24,
          "midi": 64,
          "name": "E4",
          "ticks": 28656,
          "time": 143.28,
          "velocity": 0.5669291338582677
        },
        {
          "duration": 0.12000000000000455,
          "durationTicks": 24,
          "midi": 42,
          "name": "F#2",
          "ticks": 28656,
          "time": 143.28,
          "velocity": 0.8818897637795275
        },
        {
          "duration": 0.11999999999997613,
          "durationTicks": 24,
          "midi": 42,
          "name": "F#2",
          "ticks": 28680,
          "time": 143.4,
          "velocity": 0.8818897637795275
        },
        {
          "duration": 0.11999999999997613,
          "durationTicks": 24,
          "midi": 63,
          "name": "D#4",
          "ticks": 28680,
          "time": 143.4,
          "velocity": 0.5669291338582677
        },
        {
          "duration": 0.12000000000000455,
          "durationTicks": 24,
          "midi": 46,
          "name": "A#2",
          "ticks": 28704,
          "time": 143.51999999999998,
          "velocity": 0.6299212598425197
        },
        {
          "duration": 0.12000000000000455,
          "durationTicks": 24,
          "midi": 38,
          "name": "D2",
          "ticks": 28704,
          "time": 143.51999999999998,
          "velocity": 0.8818897637795275
        },
        {
          "duration": 0.12000000000000455,
          "durationTicks": 24,
          "midi": 42,
          "name": "F#2",
          "ticks": 28752,
          "time": 143.76,
          "velocity": 0.8818897637795275
        },
        {
          "duration": 0.12000000000000455,
          "durationTicks": 24,
          "midi": 42,
          "name": "F#2",
          "ticks": 28776,
          "time": 143.88,
          "velocity": 0.8818897637795275
        },
        {
          "duration": 0.12000000000000455,
          "durationTicks": 24,
          "midi": 42,
          "name": "F#2",
          "ticks": 28800,
          "time": 144,
          "velocity": 0.8818897637795275
        },
        {
          "duration": 0.12000000000000455,
          "durationTicks": 24,
          "midi": 36,
          "name": "C2",
          "ticks": 28800,
          "time": 144,
          "velocity": 0.7874015748031497
        },
        {
          "duration": 0.12000000000000455,
          "durationTicks": 24,
          "midi": 77,
          "name": "F5",
          "ticks": 28800,
          "time": 144,
          "velocity": 0.7244094488188977
        },
        {
          "duration": 0.11999999999997613,
          "durationTicks": 24,
          "midi": 77,
          "name": "F5",
          "ticks": 28824,
          "time": 144.12,
          "velocity": 0.47244094488188976
        },
        {
          "duration": 0.12000000000000455,
          "durationTicks": 24,
          "midi": 77,
          "name": "F5",
          "ticks": 28848,
          "time": 144.23999999999998,
          "velocity": 0.28346456692913385
        },
        {
          "duration": 0.12000000000000455,
          "durationTicks": 24,
          "midi": 42,
          "name": "F#2",
          "ticks": 28848,
          "time": 144.23999999999998,
          "velocity": 0.8818897637795275
        },
        {
          "duration": 0.12000000000000455,
          "durationTicks": 24,
          "midi": 42,
          "name": "F#2",
          "ticks": 28872,
          "time": 144.35999999999999,
          "velocity": 0.8818897637795275
        },
        {
          "duration": 0.12000000000000455,
          "durationTicks": 24,
          "midi": 38,
          "name": "D2",
          "ticks": 28896,
          "time": 144.48,
          "velocity": 0.8818897637795275
        },
        {
          "duration": 0.12000000000000455,
          "durationTicks": 24,
          "midi": 46,
          "name": "A#2",
          "ticks": 28896,
          "time": 144.48,
          "velocity": 0.6299212598425197
        },
        {
          "duration": 0.12000000000000455,
          "durationTicks": 24,
          "midi": 42,
          "name": "F#2",
          "ticks": 28944,
          "time": 144.72,
          "velocity": 0.8818897637795275
        },
        {
          "duration": 0.12000000000000455,
          "durationTicks": 24,
          "midi": 42,
          "name": "F#2",
          "ticks": 28968,
          "time": 144.84,
          "velocity": 0.8818897637795275
        },
        {
          "duration": 0.11999999999997613,
          "durationTicks": 24,
          "midi": 77,
          "name": "F5",
          "ticks": 28992,
          "time": 144.96,
          "velocity": 0.7244094488188977
        },
        {
          "duration": 0.11999999999997613,
          "durationTicks": 24,
          "midi": 42,
          "name": "F#2",
          "ticks": 28992,
          "time": 144.96,
          "velocity": 0.8818897637795275
        },
        {
          "duration": 0.11999999999997613,
          "durationTicks": 24,
          "midi": 36,
          "name": "C2",
          "ticks": 28992,
          "time": 144.96,
          "velocity": 0.7874015748031497
        },
        {
          "duration": 0.12000000000000455,
          "durationTicks": 24,
          "midi": 77,
          "name": "F5",
          "ticks": 29016,
          "time": 145.07999999999998,
          "velocity": 0.47244094488188976
        },
        {
          "duration": 0.12000000000000455,
          "durationTicks": 24,
          "midi": 77,
          "name": "F5",
          "ticks": 29040,
          "time": 145.2,
          "velocity": 0.28346456692913385
        },
        {
          "duration": 0.12000000000000455,
          "durationTicks": 24,
          "midi": 64,
          "name": "E4",
          "ticks": 29040,
          "time": 145.2,
          "velocity": 0.5669291338582677
        },
        {
          "duration": 0.12000000000000455,
          "durationTicks": 24,
          "midi": 42,
          "name": "F#2",
          "ticks": 29040,
          "time": 145.2,
          "velocity": 0.8818897637795275
        },
        {
          "duration": 0.12000000000000455,
          "durationTicks": 24,
          "midi": 63,
          "name": "D#4",
          "ticks": 29064,
          "time": 145.32,
          "velocity": 0.5669291338582677
        },
        {
          "duration": 0.12000000000000455,
          "durationTicks": 24,
          "midi": 42,
          "name": "F#2",
          "ticks": 29064,
          "time": 145.32,
          "velocity": 0.8818897637795275
        },
        {
          "duration": 0.12000000000000455,
          "durationTicks": 24,
          "midi": 38,
          "name": "D2",
          "ticks": 29088,
          "time": 145.44,
          "velocity": 0.8818897637795275
        },
        {
          "duration": 0.12000000000000455,
          "durationTicks": 24,
          "midi": 46,
          "name": "A#2",
          "ticks": 29088,
          "time": 145.44,
          "velocity": 0.6299212598425197
        },
        {
          "duration": 0.11999999999997613,
          "durationTicks": 24,
          "midi": 42,
          "name": "F#2",
          "ticks": 29136,
          "time": 145.68,
          "velocity": 0.8818897637795275
        },
        {
          "duration": 0.12000000000000455,
          "durationTicks": 24,
          "midi": 42,
          "name": "F#2",
          "ticks": 29160,
          "time": 145.79999999999998,
          "velocity": 0.8818897637795275
        }
      ],
      "endOfTrackTicks": 32340
    },
    {
      "channel": 0,
      "controlChanges": {
        "6": [
          {
            "number": 6,
            "ticks": 0,
            "time": 0,
            "value": 0.09448818897637795
          }
        ],
        "7": [
          {
            "number": 7,
            "ticks": 0,
            "time": 0,
            "value": 0.7874015748031497
          },
          {
            "number": 7,
            "ticks": 0,
            "time": 0,
            "value": 0.7874015748031497
          }
        ],
        "10": [
          {
            "number": 10,
            "ticks": 0,
            "time": 0,
            "value": 0.5039370078740157
          },
          {
            "number": 10,
            "ticks": 0,
            "time": 0,
            "value": 0.5039370078740157
          }
        ],
        "100": [
          {
            "number": 100,
            "ticks": 0,
            "time": 0,
            "value": 0
          }
        ],
        "101": [
          {
            "number": 101,
            "ticks": 0,
            "time": 0,
            "value": 0
          }
        ]
      },
      "pitchBends": [
        {
          "ticks": 0,
          "time": 0,
          "value": 0
        },
        {
          "ticks": 0,
          "time": 0,
          "value": 0
        }
      ],
      "instrument": {
        "family": "piano",
        "number": 0,
        "name": "acoustic grand piano"
      },
      "name": "Arp. Synth",
      "notes": [],
      "endOfTrackTicks": 32340
    },
    {
      "channel": 3,
      "controlChanges": {
        "6": [
          {
            "number": 6,
            "ticks": 0,
            "time": 0,
            "value": 0.09448818897637795
          },
          {
            "number": 6,
            "ticks": 32256,
            "time": 161.28,
            "value": 0.09448818897637795
          },
          {
            "number": 6,
            "ticks": 32340,
            "time": 161.7,
            "value": 0.09448818897637795
          },
          {
            "number": 6,
            "ticks": 32340,
            "time": 161.7,
            "value": 0.09448818897637795
          }
        ],
        "7": [
          {
            "number": 7,
            "ticks": 0,
            "time": 0,
            "value": 0.7874015748031497
          },
          {
            "number": 7,
            "ticks": 32256,
            "time": 161.28,
            "value": 0.7874015748031497
          },
          {
            "number": 7,
            "ticks": 32340,
            "time": 161.7,
            "value": 0.7874015748031497
          },
          {
            "number": 7,
            "ticks": 32340,
            "time": 161.7,
            "value": 0.7874015748031497
          }
        ],
        "10": [
          {
            "number": 10,
            "ticks": 0,
            "time": 0,
            "value": 0.5039370078740157
          },
          {
            "number": 10,
            "ticks": 32256,
            "time": 161.28,
            "value": 0.5039370078740157
          },
          {
            "number": 10,
            "ticks": 32340,
            "time": 161.7,
            "value": 0.5039370078740157
          },
          {
            "number": 10,
            "ticks": 32340,
            "time": 161.7,
            "value": 0.5039370078740157
          }
        ],
        "100": [
          {
            "number": 100,
            "ticks": 0,
            "time": 0,
            "value": 0
          },
          {
            "number": 100,
            "ticks": 32256,
            "time": 161.28,
            "value": 0
          },
          {
            "number": 100,
            "ticks": 32340,
            "time": 161.7,
            "value": 0
          },
          {
            "number": 100,
            "ticks": 32340,
            "time": 161.7,
            "value": 0
          }
        ],
        "101": [
          {
            "number": 101,
            "ticks": 0,
            "time": 0,
            "value": 0
          },
          {
            "number": 101,
            "ticks": 32256,
            "time": 161.28,
            "value": 0
          },
          {
            "number": 101,
            "ticks": 32340,
            "time": 161.7,
            "value": 0
          },
          {
            "number": 101,
            "ticks": 32340,
            "time": 161.7,
            "value": 0
          }
        ]
      },
      "pitchBends": [
        {
          "ticks": 0,
          "time": 0,
          "value": 0
        },
        {
          "ticks": 32256,
          "time": 161.28,
          "value": 0
        },
        {
          "ticks": 32340,
          "time": 161.7,
          "value": 0
        },
        {
          "ticks": 32340,
          "time": 161.7,
          "value": 0
        }
      ],
      "instrument": {
        "family": "synth lead",
        "number": 87,
        "name": "lead 8 (bass + lead)"
      },
      "name": "",
      "notes": [
        {
          "duration": 0.0600000000000005,
          "durationTicks": 12,
          "midi": 55,
          "name": "G3",
          "ticks": 3072,
          "time": 15.36,
          "velocity": 0.6299212598425197
        },
        {
          "duration": 0.0600000000000005,
          "durationTicks": 12,
          "midi": 67,
          "name": "G4",
          "ticks": 3096,
          "time": 15.479999999999999,
          "velocity": 0.6299212598425197
        },
        {
          "duration": 0.0600000000000005,
          "durationTicks": 12,
          "midi": 62,
          "name": "D4",
          "ticks": 3120,
          "time": 15.6,
          "velocity": 0.6299212598425197
        },
        {
          "duration": 0.0600000000000005,
          "durationTicks": 12,
          "midi": 55,
          "name": "G3",
          "ticks": 3144,
          "time": 15.719999999999999,
          "velocity": 0.6299212598425197
        },
        {
          "duration": 0.05999999999999872,
          "durationTicks": 12,
          "midi": 67,
          "name": "G4",
          "ticks": 3168,
          "time": 15.84,
          "velocity": 0.6299212598425197
        },
        {
          "duration": 0.0600000000000005,
          "durationTicks": 12,
          "midi": 62,
          "name": "D4",
          "ticks": 3192,
          "time": 15.959999999999999,
          "velocity": 0.6299212598425197
        },
        {
          "duration": 0.120000000000001,
          "durationTicks": 24,
          "midi": 53,
          "name": "F3",
          "ticks": 3216,
          "time": 16.08,
          "velocity": 0.6299212598425197
        },
        {
          "duration": 0.05999999999999872,
          "durationTicks": 12,
          "midi": 55,
          "name": "G3",
          "ticks": 3264,
          "time": 16.32,
          "velocity": 0.6299212598425197
        },
        {
          "duration": 0.060000000000002274,
          "durationTicks": 12,
          "midi": 67,
          "name": "G4",
          "ticks": 3288,
          "time": 16.439999999999998,
          "velocity": 0.6299212598425197
        },
        {
          "duration": 0.060000000000002274,
          "durationTicks": 12,
          "midi": 62,
          "name": "D4",
          "ticks": 3312,
          "time": 16.56,
          "velocity": 0.6299212598425197
        },
        {
          "duration": 0.05999999999999872,
          "durationTicks": 12,
          "midi": 55,
          "name": "G3",
          "ticks": 3336,
          "time": 16.68,
          "velocity": 0.6299212598425197
        },
        {
          "duration": 0.05999999999999872,
          "durationTicks": 12,
          "midi": 67,
          "name": "G4",
          "ticks": 3360,
          "time": 16.8,
          "velocity": 0.6299212598425197
        },
        {
          "duration": 0.060000000000002274,
          "durationTicks": 12,
          "midi": 62,
          "name": "D4",
          "ticks": 3384,
          "time": 16.919999999999998,
          "velocity": 0.6299212598425197
        },
        {
          "duration": 0.120000000000001,
          "durationTicks": 24,
          "midi": 53,
          "name": "F3",
          "ticks": 3408,
          "time": 17.04,
          "velocity": 0.6299212598425197
        },
        {
          "duration": 0.05999999999999872,
          "durationTicks": 12,
          "midi": 55,
          "name": "G3",
          "ticks": 3456,
          "time": 17.28,
          "velocity": 0.6299212598425197
        },
        {
          "duration": 0.060000000000002274,
          "durationTicks": 12,
          "midi": 67,
          "name": "G4",
          "ticks": 3480,
          "time": 17.4,
          "velocity": 0.6299212598425197
        },
        {
          "duration": 0.05999999999999872,
          "durationTicks": 12,
          "midi": 62,
          "name": "D4",
          "ticks": 3504,
          "time": 17.52,
          "velocity": 0.6299212598425197
        },
        {
          "duration": 0.05999999999999872,
          "durationTicks": 12,
          "midi": 55,
          "name": "G3",
          "ticks": 3528,
          "time": 17.64,
          "velocity": 0.6299212598425197
        },
        {
          "duration": 0.060000000000002274,
          "durationTicks": 12,
          "midi": 67,
          "name": "G4",
          "ticks": 3552,
          "time": 17.759999999999998,
          "velocity": 0.6299212598425197
        },
        {
          "duration": 0.05999999999999872,
          "durationTicks": 12,
          "midi": 62,
          "name": "D4",
          "ticks": 3576,
          "time": 17.88,
          "velocity": 0.6299212598425197
        },
        {
          "duration": 0.120000000000001,
          "durationTicks": 24,
          "midi": 53,
          "name": "F3",
          "ticks": 3600,
          "time": 18,
          "velocity": 0.6299212598425197
        },
        {
          "duration": 0.060000000000002274,
          "durationTicks": 12,
          "midi": 55,
          "name": "G3",
          "ticks": 3648,
          "time": 18.24,
          "velocity": 0.6299212598425197
        },
        {
          "duration": 0.05999999999999872,
          "durationTicks": 12,
          "midi": 67,
          "name": "G4",
          "ticks": 3672,
          "time": 18.36,
          "velocity": 0.6299212598425197
        },
        {
          "duration": 0.05999999999999872,
          "durationTicks": 12,
          "midi": 62,
          "name": "D4",
          "ticks": 3696,
          "time": 18.48,
          "velocity": 0.6299212598425197
        },
        {
          "duration": 0.060000000000002274,
          "durationTicks": 12,
          "midi": 55,
          "name": "G3",
          "ticks": 3720,
          "time": 18.599999999999998,
          "velocity": 0.6299212598425197
        },
        {
          "duration": 0.05999999999999872,
          "durationTicks": 12,
          "midi": 53,
          "name": "F3",
          "ticks": 3744,
          "time": 18.72,
          "velocity": 0.6299212598425197
        },
        {
          "duration": 0.05999999999999872,
          "durationTicks": 12,
          "midi": 60,
          "name": "C4",
          "ticks": 3768,
          "time": 18.84,
          "velocity": 0.6299212598425197
        },
        {
          "duration": 0.11999999999999744,
          "durationTicks": 24,
          "midi": 53,
          "name": "F3",
          "ticks": 3792,
          "time": 18.96,
          "velocity": 0.6299212598425197
        },
        {
          "duration": 0.05999999999999872,
          "durationTicks": 12,
          "midi": 55,
          "name": "G3",
          "ticks": 3840,
          "time": 19.2,
          "velocity": 0.6299212598425197
        },
        {
          "duration": 0.05999999999999872,
          "durationTicks": 12,
          "midi": 67,
          "name": "G4",
          "ticks": 3864,
          "time": 19.32,
          "velocity": 0.6299212598425197
        },
        {
          "duration": 0.060000000000002274,
          "durationTicks": 12,
          "midi": 62,
          "name": "D4",
          "ticks": 3888,
          "time": 19.439999999999998,
          "velocity": 0.6299212598425197
        },
        {
          "duration": 0.060000000000002274,
          "durationTicks": 12,
          "midi": 55,
          "name": "G3",
          "ticks": 3912,
          "time": 19.56,
          "velocity": 0.6299212598425197
        },
        {
          "duration": 0.05999999999999872,
          "durationTicks": 12,
          "midi": 67,
          "name": "G4",
          "ticks": 3936,
          "time": 19.68,
          "velocity": 0.6299212598425197
        },
        {
          "duration": 0.05999999999999872,
          "durationTicks": 12,
          "midi": 62,
          "name": "D4",
          "ticks": 3960,
          "time": 19.8,
          "velocity": 0.6299212598425197
        },
        {
          "duration": 0.120000000000001,
          "durationTicks": 24,
          "midi": 53,
          "name": "F3",
          "ticks": 3984,
          "time": 19.919999999999998,
          "velocity": 0.6299212598425197
        },
        {
          "duration": 0.05999999999999872,
          "durationTicks": 12,
          "midi": 55,
          "name": "G3",
          "ticks": 4032,
          "time": 20.16,
          "velocity": 0.6299212598425197
        },
        {
          "duration": 0.060000000000002274,
          "durationTicks": 12,
          "midi": 67,
          "name": "G4",
          "ticks": 4056,
          "time": 20.279999999999998,
          "velocity": 0.6299212598425197
        },
        {
          "duration": 0.060000000000002274,
          "durationTicks": 12,
          "midi": 62,
          "name": "D4",
          "ticks": 4080,
          "time": 20.4,
          "velocity": 0.6299212598425197
        },
        {
          "duration": 0.05999999999999872,
          "durationTicks": 12,
          "midi": 55,
          "name": "G3",
          "ticks": 4104,
          "time": 20.52,
          "velocity": 0.6299212598425197
        },
        {
          "duration": 0.05999999999999872,
          "durationTicks": 12,
          "midi": 67,
          "name": "G4",
          "ticks": 4128,
          "time": 20.64,
          "velocity": 0.6299212598425197
        },
        {
          "duration": 0.060000000000002274,
          "durationTicks": 12,
          "midi": 62,
          "name": "D4",
          "ticks": 4152,
          "time": 20.759999999999998,
          "velocity": 0.6299212598425197
        },
        {
          "duration": 0.120000000000001,
          "durationTicks": 24,
          "midi": 53,
          "name": "F3",
          "ticks": 4176,
          "time": 20.88,
          "velocity": 0.6299212598425197
        },
        {
          "duration": 0.060000000000002274,
          "durationTicks": 12,
          "midi": 55,
          "name": "G3",
          "ticks": 4224,
          "time": 21.119999999999997,
          "velocity": 0.6299212598425197
        },
        {
          "duration": 0.060000000000002274,
          "durationTicks": 12,
          "midi": 67,
          "name": "G4",
          "ticks": 4248,
          "time": 21.24,
          "velocity": 0.6299212598425197
        },
        {
          "duration": 0.05999999999999872,
          "durationTicks": 12,
          "midi": 62,
          "name": "D4",
          "ticks": 4272,
          "time": 21.36,
          "velocity": 0.6299212598425197
        },
        {
          "duration": 0.05999999999999872,
          "durationTicks": 12,
          "midi": 55,
          "name": "G3",
          "ticks": 4296,
          "time": 21.48,
          "velocity": 0.6299212598425197
        },
        {
          "duration": 0.060000000000002274,
          "durationTicks": 12,
          "midi": 67,
          "name": "G4",
          "ticks": 4320,
          "time": 21.599999999999998,
          "velocity": 0.6299212598425197
        },
        {
          "duration": 0.05999999999999872,
          "durationTicks": 12,
          "midi": 62,
          "name": "D4",
          "ticks": 4344,
          "time": 21.72,
          "velocity": 0.6299212598425197
        },
        {
          "duration": 0.120000000000001,
          "durationTicks": 24,
          "midi": 53,
          "name": "F3",
          "ticks": 4368,
          "time": 21.84,
          "velocity": 0.6299212598425197
        },
        {
          "duration": 0.060000000000002274,
          "durationTicks": 12,
          "midi": 55,
          "name": "G3",
          "ticks": 4416,
          "time": 22.08,
          "velocity": 0.6299212598425197
        },
        {
          "duration": 0.05999999999999872,
          "durationTicks": 12,
          "midi": 67,
          "name": "G4",
          "ticks": 4440,
          "time": 22.2,
          "velocity": 0.6299212598425197
        },
        {
          "duration": 0.05999999999999872,
          "durationTicks": 12,
          "midi": 62,
          "name": "D4",
          "ticks": 4464,
          "time": 22.32,
          "velocity": 0.6299212598425197
        },
        {
          "duration": 0.060000000000002274,
          "durationTicks": 12,
          "midi": 55,
          "name": "G3",
          "ticks": 4488,
          "time": 22.439999999999998,
          "velocity": 0.6299212598425197
        },
        {
          "duration": 0.05999999999999872,
          "durationTicks": 12,
          "midi": 53,
          "name": "F3",
          "ticks": 4512,
          "time": 22.56,
          "velocity": 0.6299212598425197
        },
        {
          "duration": 0.05999999999999872,
          "durationTicks": 12,
          "midi": 60,
          "name": "C4",
          "ticks": 4536,
          "time": 22.68,
          "velocity": 0.6299212598425197
        },
        {
          "duration": 0.23999999999999844,
          "durationTicks": 48,
          "midi": 53,
          "name": "F3",
          "ticks": 4560,
          "time": 22.8,
          "velocity": 0.6299212598425197
        },
        {
          "duration": 0.05999999999999872,
          "durationTicks": 12,
          "midi": 51,
          "name": "D#3",
          "ticks": 4608,
          "time": 23.04,
          "velocity": 0.6299212598425197
        },
        {
          "duration": 0.05999999999999872,
          "durationTicks": 12,
          "midi": 63,
          "name": "D#4",
          "ticks": 4632,
          "time": 23.16,
          "velocity": 0.6299212598425197
        },
        {
          "duration": 0.060000000000002274,
          "durationTicks": 12,
          "midi": 58,
          "name": "A#3",
          "ticks": 4656,
          "time": 23.279999999999998,
          "velocity": 0.6299212598425197
        },
        {
          "duration": 0.060000000000002274,
          "durationTicks": 12,
          "midi": 51,
          "name": "D#3",
          "ticks": 4680,
          "time": 23.4,
          "velocity": 0.6299212598425197
        },
        {
          "duration": 0.05999999999999872,
          "durationTicks": 12,
          "midi": 63,
          "name": "D#4",
          "ticks": 4704,
          "time": 23.52,
          "velocity": 0.6299212598425197
        },
        {
          "duration": 0.05999999999999872,
          "durationTicks": 12,
          "midi": 58,
          "name": "A#3",
          "ticks": 4728,
          "time": 23.64,
          "velocity": 0.6299212598425197
        },
        {
          "duration": 0.120000000000001,
          "durationTicks": 24,
          "midi": 50,
          "name": "D3",
          "ticks": 4752,
          "time": 23.759999999999998,
          "velocity": 0.6299212598425197
        },
        {
          "duration": 0.05999999999999872,
          "durationTicks": 12,
          "midi": 51,
          "name": "D#3",
          "ticks": 4800,
          "time": 24,
          "velocity": 0.6299212598425197
        },
        {
          "duration": 0.060000000000002274,
          "durationTicks": 12,
          "midi": 63,
          "name": "D#4",
          "ticks": 4824,
          "time": 24.119999999999997,
          "velocity": 0.6299212598425197
        },
        {
          "duration": 0.060000000000002274,
          "durationTicks": 12,
          "midi": 58,
          "name": "A#3",
          "ticks": 4848,
          "time": 24.24,
          "velocity": 0.6299212598425197
        },
        {
          "duration": 0.05999999999999872,
          "durationTicks": 12,
          "midi": 51,
          "name": "D#3",
          "ticks": 4872,
          "time": 24.36,
          "velocity": 0.6299212598425197
        },
        {
          "duration": 0.05999999999999872,
          "durationTicks": 12,
          "midi": 63,
          "name": "D#4",
          "ticks": 4896,
          "time": 24.48,
          "velocity": 0.6299212598425197
        },
        {
          "duration": 0.060000000000002274,
          "durationTicks": 12,
          "midi": 58,
          "name": "A#3",
          "ticks": 4920,
          "time": 24.599999999999998,
          "velocity": 0.6299212598425197
        },
        {
          "duration": 0.120000000000001,
          "durationTicks": 24,
          "midi": 50,
          "name": "D3",
          "ticks": 4944,
          "time": 24.72,
          "velocity": 0.6299212598425197
        },
        {
          "duration": 0.05999999999999872,
          "durationTicks": 12,
          "midi": 51,
          "name": "D#3",
          "ticks": 4992,
          "time": 24.96,
          "velocity": 0.6299212598425197
        },
        {
          "duration": 0.060000000000002274,
          "durationTicks": 12,
          "midi": 63,
          "name": "D#4",
          "ticks": 5016,
          "time": 25.08,
          "velocity": 0.6299212598425197
        },
        {
          "duration": 0.05999999999999872,
          "durationTicks": 12,
          "midi": 58,
          "name": "A#3",
          "ticks": 5040,
          "time": 25.2,
          "velocity": 0.6299212598425197
        },
        {
          "duration": 0.05999999999999872,
          "durationTicks": 12,
          "midi": 51,
          "name": "D#3",
          "ticks": 5064,
          "time": 25.32,
          "velocity": 0.6299212598425197
        },
        {
          "duration": 0.060000000000002274,
          "durationTicks": 12,
          "midi": 63,
          "name": "D#4",
          "ticks": 5088,
          "time": 25.439999999999998,
          "velocity": 0.6299212598425197
        },
        {
          "duration": 0.05999999999999872,
          "durationTicks": 12,
          "midi": 58,
          "name": "A#3",
          "ticks": 5112,
          "time": 25.56,
          "velocity": 0.6299212598425197
        },
        {
          "duration": 0.120000000000001,
          "durationTicks": 24,
          "midi": 50,
          "name": "D3",
          "ticks": 5136,
          "time": 25.68,
          "velocity": 0.6299212598425197
        },
        {
          "duration": 0.060000000000002274,
          "durationTicks": 12,
          "midi": 51,
          "name": "D#3",
          "ticks": 5184,
          "time": 25.919999999999998,
          "velocity": 0.6299212598425197
        },
        {
          "duration": 0.05999999999999872,
          "durationTicks": 12,
          "midi": 63,
          "name": "D#4",
          "ticks": 5208,
          "time": 26.04,
          "velocity": 0.6299212598425197
        },
        {
          "duration": 0.05999999999999872,
          "durationTicks": 12,
          "midi": 58,
          "name": "A#3",
          "ticks": 5232,
          "time": 26.16,
          "velocity": 0.6299212598425197
        },
        {
          "duration": 0.060000000000002274,
          "durationTicks": 12,
          "midi": 51,
          "name": "D#3",
          "ticks": 5256,
          "time": 26.279999999999998,
          "velocity": 0.6299212598425197
        },
        {
          "duration": 0.05999999999999872,
          "durationTicks": 12,
          "midi": 53,
          "name": "F3",
          "ticks": 5280,
          "time": 26.4,
          "velocity": 0.6299212598425197
        },
        {
          "duration": 0.05999999999999872,
          "durationTicks": 12,
          "midi": 60,
          "name": "C4",
          "ticks": 5304,
          "time": 26.52,
          "velocity": 0.6299212598425197
        },
        {
          "duration": 0.23999999999999844,
          "durationTicks": 48,
          "midi": 53,
          "name": "F3",
          "ticks": 5328,
          "time": 26.64,
          "velocity": 0.6299212598425197
        },
        {
          "duration": 0.05999999999999872,
          "durationTicks": 12,
          "midi": 51,
          "name": "D#3",
          "ticks": 5376,
          "time": 26.88,
          "velocity": 0.6299212598425197
        },
        {
          "duration": 0.05999999999999872,
          "durationTicks": 12,
          "midi": 63,
          "name": "D#4",
          "ticks": 5400,
          "time": 27,
          "velocity": 0.6299212598425197
        },
        {
          "duration": 0.060000000000002274,
          "durationTicks": 12,
          "midi": 58,
          "name": "A#3",
          "ticks": 5424,
          "time": 27.119999999999997,
          "velocity": 0.6299212598425197
        },
        {
          "duration": 0.060000000000002274,
          "durationTicks": 12,
          "midi": 51,
          "name": "D#3",
          "ticks": 5448,
          "time": 27.24,
          "velocity": 0.6299212598425197
        },
        {
          "duration": 0.05999999999999872,
          "durationTicks": 12,
          "midi": 63,
          "name": "D#4",
          "ticks": 5472,
          "time": 27.36,
          "velocity": 0.6299212598425197
        },
        {
          "duration": 0.05999999999999872,
          "durationTicks": 12,
          "midi": 58,
          "name": "A#3",
          "ticks": 5496,
          "time": 27.48,
          "velocity": 0.6299212598425197
        },
        {
          "duration": 0.120000000000001,
          "durationTicks": 24,
          "midi": 50,
          "name": "D3",
          "ticks": 5520,
          "time": 27.599999999999998,
          "velocity": 0.6299212598425197
        },
        {
          "duration": 0.05999999999999872,
          "durationTicks": 12,
          "midi": 51,
          "name": "D#3",
          "ticks": 5568,
          "time": 27.84,
          "velocity": 0.6299212598425197
        },
        {
          "duration": 0.060000000000002274,
          "durationTicks": 12,
          "midi": 63,
          "name": "D#4",
          "ticks": 5592,
          "time": 27.959999999999997,
          "velocity": 0.6299212598425197
        },
        {
          "duration": 0.060000000000002274,
          "durationTicks": 12,
          "midi": 58,
          "name": "A#3",
          "ticks": 5616,
          "time": 28.08,
          "velocity": 0.6299212598425197
        },
        {
          "duration": 0.05999999999999872,
          "durationTicks": 12,
          "midi": 51,
          "name": "D#3",
          "ticks": 5640,
          "time": 28.2,
          "velocity": 0.6299212598425197
        },
        {
          "duration": 0.05999999999999872,
          "durationTicks": 12,
          "midi": 63,
          "name": "D#4",
          "ticks": 5664,
          "time": 28.32,
          "velocity": 0.6299212598425197
        },
        {
          "duration": 0.060000000000002274,
          "durationTicks": 12,
          "midi": 58,
          "name": "A#3",
          "ticks": 5688,
          "time": 28.439999999999998,
          "velocity": 0.6299212598425197
        },
        {
          "duration": 0.120000000000001,
          "durationTicks": 24,
          "midi": 50,
          "name": "D3",
          "ticks": 5712,
          "time": 28.56,
          "velocity": 0.6299212598425197
        },
        {
          "duration": 0.060000000000002274,
          "durationTicks": 12,
          "midi": 51,
          "name": "D#3",
          "ticks": 5760,
          "time": 28.799999999999997,
          "velocity": 0.6299212598425197
        },
        {
          "duration": 0.060000000000002274,
          "durationTicks": 12,
          "midi": 63,
          "name": "D#4",
          "ticks": 5784,
          "time": 28.919999999999998,
          "velocity": 0.6299212598425197
        },
        {
          "duration": 0.05999999999999872,
          "durationTicks": 12,
          "midi": 58,
          "name": "A#3",
          "ticks": 5808,
          "time": 29.04,
          "velocity": 0.6299212598425197
        },
        {
          "duration": 0.05999999999999872,
          "durationTicks": 12,
          "midi": 51,
          "name": "D#3",
          "ticks": 5832,
          "time": 29.16,
          "velocity": 0.6299212598425197
        },
        {
          "duration": 0.060000000000002274,
          "durationTicks": 12,
          "midi": 63,
          "name": "D#4",
          "ticks": 5856,
          "time": 29.279999999999998,
          "velocity": 0.6299212598425197
        },
        {
          "duration": 0.05999999999999872,
          "durationTicks": 12,
          "midi": 58,
          "name": "A#3",
          "ticks": 5880,
          "time": 29.4,
          "velocity": 0.6299212598425197
        },
        {
          "duration": 0.120000000000001,
          "durationTicks": 24,
          "midi": 50,
          "name": "D3",
          "ticks": 5904,
          "time": 29.52,
          "velocity": 0.6299212598425197
        },
        {
          "duration": 0.060000000000002274,
          "durationTicks": 12,
          "midi": 51,
          "name": "D#3",
          "ticks": 5952,
          "time": 29.759999999999998,
          "velocity": 0.6299212598425197
        },
        {
          "duration": 0.05999999999999872,
          "durationTicks": 12,
          "midi": 63,
          "name": "D#4",
          "ticks": 5976,
          "time": 29.88,
          "velocity": 0.6299212598425197
        },
        {
          "duration": 0.05999999999999872,
          "durationTicks": 12,
          "midi": 58,
          "name": "A#3",
          "ticks": 6000,
          "time": 30,
          "velocity": 0.6299212598425197
        },
        {
          "duration": 0.060000000000002274,
          "durationTicks": 12,
          "midi": 51,
          "name": "D#3",
          "ticks": 6024,
          "time": 30.119999999999997,
          "velocity": 0.6299212598425197
        },
        {
          "duration": 0.05999999999999872,
          "durationTicks": 12,
          "midi": 53,
          "name": "F3",
          "ticks": 6048,
          "time": 30.24,
          "velocity": 0.6299212598425197
        },
        {
          "duration": 0.05999999999999872,
          "durationTicks": 12,
          "midi": 60,
          "name": "C4",
          "ticks": 6072,
          "time": 30.36,
          "velocity": 0.6299212598425197
        },
        {
          "duration": 0.23999999999999844,
          "durationTicks": 48,
          "midi": 53,
          "name": "F3",
          "ticks": 6096,
          "time": 30.48,
          "velocity": 0.6299212598425197
        },
        {
          "duration": 0.05999999999999872,
          "durationTicks": 12,
          "midi": 55,
          "name": "G3",
          "ticks": 6144,
          "time": 30.72,
          "velocity": 0.6299212598425197
        },
        {
          "duration": 0.05999999999999872,
          "durationTicks": 12,
          "midi": 67,
          "name": "G4",
          "ticks": 6168,
          "time": 30.84,
          "velocity": 0.6299212598425197
        },
        {
          "duration": 0.060000000000002274,
          "durationTicks": 12,
          "midi": 62,
          "name": "D4",
          "ticks": 6192,
          "time": 30.959999999999997,
          "velocity": 0.6299212598425197
        },
        {
          "duration": 0.060000000000002274,
          "durationTicks": 12,
          "midi": 55,
          "name": "G3",
          "ticks": 6216,
          "time": 31.08,
          "velocity": 0.6299212598425197
        },
        {
          "duration": 0.05999999999999872,
          "durationTicks": 12,
          "midi": 67,
          "name": "G4",
          "ticks": 6240,
          "time": 31.2,
          "velocity": 0.6299212598425197
        },
        {
          "duration": 0.05999999999999872,
          "durationTicks": 12,
          "midi": 62,
          "name": "D4",
          "ticks": 6264,
          "time": 31.32,
          "velocity": 0.6299212598425197
        },
        {
          "duration": 0.120000000000001,
          "durationTicks": 24,
          "midi": 53,
          "name": "F3",
          "ticks": 6288,
          "time": 31.439999999999998,
          "velocity": 0.6299212598425197
        },
        {
          "duration": 0.05999999999999872,
          "durationTicks": 12,
          "midi": 55,
          "name": "G3",
          "ticks": 6336,
          "time": 31.68,
          "velocity": 0.6299212598425197
        },
        {
          "duration": 0.060000000000002274,
          "durationTicks": 12,
          "midi": 67,
          "name": "G4",
          "ticks": 6360,
          "time": 31.799999999999997,
          "velocity": 0.6299212598425197
        },
        {
          "duration": 0.060000000000002274,
          "durationTicks": 12,
          "midi": 62,
          "name": "D4",
          "ticks": 6384,
          "time": 31.919999999999998,
          "velocity": 0.6299212598425197
        },
        {
          "duration": 0.060000000000002274,
          "durationTicks": 12,
          "midi": 55,
          "name": "G3",
          "ticks": 6408,
          "time": 32.04,
          "velocity": 0.6299212598425197
        },
        {
          "duration": 0.060000000000002274,
          "durationTicks": 12,
          "midi": 67,
          "name": "G4",
          "ticks": 6432,
          "time": 32.16,
          "velocity": 0.6299212598425197
        },
        {
          "duration": 0.05999999999999517,
          "durationTicks": 12,
          "midi": 62,
          "name": "D4",
          "ticks": 6456,
          "time": 32.28,
          "velocity": 0.6299212598425197
        },
        {
          "duration": 0.11999999999999744,
          "durationTicks": 24,
          "midi": 53,
          "name": "F3",
          "ticks": 6480,
          "time": 32.4,
          "velocity": 0.6299212598425197
        },
        {
          "duration": 0.05999999999999517,
          "durationTicks": 12,
          "midi": 55,
          "name": "G3",
          "ticks": 6528,
          "time": 32.64,
          "velocity": 0.6299212598425197
        },
        {
          "duration": 0.060000000000002274,
          "durationTicks": 12,
          "midi": 67,
          "name": "G4",
          "ticks": 6552,
          "time": 32.76,
          "velocity": 0.6299212598425197
        },
        {
          "duration": 0.060000000000002274,
          "durationTicks": 12,
          "midi": 62,
          "name": "D4",
          "ticks": 6576,
          "time": 32.879999999999995,
          "velocity": 0.6299212598425197
        },
        {
          "duration": 0.060000000000002274,
          "durationTicks": 12,
          "midi": 55,
          "name": "G3",
          "ticks": 6600,
          "time": 33,
          "velocity": 0.6299212598425197
        },
        {
          "duration": 0.060000000000002274,
          "durationTicks": 12,
          "midi": 67,
          "name": "G4",
          "ticks": 6624,
          "time": 33.12,
          "velocity": 0.6299212598425197
        },
        {
          "duration": 0.05999999999999517,
          "durationTicks": 12,
          "midi": 62,
          "name": "D4",
          "ticks": 6648,
          "time": 33.24,
          "velocity": 0.6299212598425197
        },
        {
          "duration": 0.11999999999999744,
          "durationTicks": 24,
          "midi": 53,
          "name": "F3",
          "ticks": 6672,
          "time": 33.36,
          "velocity": 0.6299212598425197
        },
        {
          "duration": 0.05999999999999517,
          "durationTicks": 12,
          "midi": 55,
          "name": "G3",
          "ticks": 6720,
          "time": 33.6,
          "velocity": 0.6299212598425197
        },
        {
          "duration": 0.060000000000002274,
          "durationTicks": 12,
          "midi": 67,
          "name": "G4",
          "ticks": 6744,
          "time": 33.72,
          "velocity": 0.6299212598425197
        },
        {
          "duration": 0.060000000000002274,
          "durationTicks": 12,
          "midi": 62,
          "name": "D4",
          "ticks": 6768,
          "time": 33.839999999999996,
          "velocity": 0.6299212598425197
        },
        {
          "duration": 0.05999999999999517,
          "durationTicks": 12,
          "midi": 55,
          "name": "G3",
          "ticks": 6792,
          "time": 33.96,
          "velocity": 0.6299212598425197
        },
        {
          "duration": 0.060000000000002274,
          "durationTicks": 12,
          "midi": 53,
          "name": "F3",
          "ticks": 6816,
          "time": 34.08,
          "velocity": 0.6299212598425197
        },
        {
          "duration": 0.060000000000002274,
          "durationTicks": 12,
          "midi": 60,
          "name": "C4",
          "ticks": 6840,
          "time": 34.199999999999996,
          "velocity": 0.6299212598425197
        },
        {
          "duration": 0.11999999999999744,
          "durationTicks": 24,
          "midi": 53,
          "name": "F3",
          "ticks": 6864,
          "time": 34.32,
          "velocity": 0.6299212598425197
        },
        {
          "duration": 0.05999999999999517,
          "durationTicks": 12,
          "midi": 55,
          "name": "G3",
          "ticks": 6912,
          "time": 34.56,
          "velocity": 0.6299212598425197
        },
        {
          "duration": 0.060000000000002274,
          "durationTicks": 12,
          "midi": 67,
          "name": "G4",
          "ticks": 6936,
          "time": 34.68,
          "velocity": 0.6299212598425197
        },
        {
          "duration": 0.060000000000002274,
          "durationTicks": 12,
          "midi": 62,
          "name": "D4",
          "ticks": 6960,
          "time": 34.8,
          "velocity": 0.6299212598425197
        },
        {
          "duration": 0.05999999999999517,
          "durationTicks": 12,
          "midi": 55,
          "name": "G3",
          "ticks": 6984,
          "time": 34.92,
          "velocity": 0.6299212598425197
        },
        {
          "duration": 0.060000000000002274,
          "durationTicks": 12,
          "midi": 67,
          "name": "G4",
          "ticks": 7008,
          "time": 35.04,
          "velocity": 0.6299212598425197
        },
        {
          "duration": 0.060000000000002274,
          "durationTicks": 12,
          "midi": 62,
          "name": "D4",
          "ticks": 7032,
          "time": 35.16,
          "velocity": 0.6299212598425197
        },
        {
          "duration": 0.11999999999999744,
          "durationTicks": 24,
          "midi": 53,
          "name": "F3",
          "ticks": 7056,
          "time": 35.28,
          "velocity": 0.6299212598425197
        },
        {
          "duration": 0.060000000000002274,
          "durationTicks": 12,
          "midi": 55,
          "name": "G3",
          "ticks": 7104,
          "time": 35.519999999999996,
          "velocity": 0.6299212598425197
        },
        {
          "duration": 0.05999999999999517,
          "durationTicks": 12,
          "midi": 67,
          "name": "G4",
          "ticks": 7128,
          "time": 35.64,
          "velocity": 0.6299212598425197
        },
        {
          "duration": 0.060000000000002274,
          "durationTicks": 12,
          "midi": 62,
          "name": "D4",
          "ticks": 7152,
          "time": 35.76,
          "velocity": 0.6299212598425197
        },
        {
          "duration": 0.060000000000002274,
          "durationTicks": 12,
          "midi": 55,
          "name": "G3",
          "ticks": 7176,
          "time": 35.879999999999995,
          "velocity": 0.6299212598425197
        },
        {
          "duration": 0.05999999999999517,
          "durationTicks": 12,
          "midi": 67,
          "name": "G4",
          "ticks": 7200,
          "time": 36,
          "velocity": 0.6299212598425197
        },
        {
          "duration": 0.060000000000002274,
          "durationTicks": 12,
          "midi": 62,
          "name": "D4",
          "ticks": 7224,
          "time": 36.12,
          "velocity": 0.6299212598425197
        },
        {
          "duration": 0.11999999999999744,
          "durationTicks": 24,
          "midi": 53,
          "name": "F3",
          "ticks": 7248,
          "time": 36.24,
          "velocity": 0.6299212598425197
        },
        {
          "duration": 0.060000000000002274,
          "durationTicks": 12,
          "midi": 55,
          "name": "G3",
          "ticks": 7296,
          "time": 36.48,
          "velocity": 0.6299212598425197
        },
        {
          "duration": 0.05999999999999517,
          "durationTicks": 12,
          "midi": 67,
          "name": "G4",
          "ticks": 7320,
          "time": 36.6,
          "velocity": 0.6299212598425197
        },
        {
          "duration": 0.060000000000002274,
          "durationTicks": 12,
          "midi": 62,
          "name": "D4",
          "ticks": 7344,
          "time": 36.72,
          "velocity": 0.6299212598425197
        },
        {
          "duration": 0.060000000000002274,
          "durationTicks": 12,
          "midi": 55,
          "name": "G3",
          "ticks": 7368,
          "time": 36.839999999999996,
          "velocity": 0.6299212598425197
        },
        {
          "duration": 0.05999999999999517,
          "durationTicks": 12,
          "midi": 67,
          "name": "G4",
          "ticks": 7392,
          "time": 36.96,
          "velocity": 0.6299212598425197
        },
        {
          "duration": 0.060000000000002274,
          "durationTicks": 12,
          "midi": 62,
          "name": "D4",
          "ticks": 7416,
          "time": 37.08,
          "velocity": 0.6299212598425197
        },
        {
          "duration": 0.12000000000000455,
          "durationTicks": 24,
          "midi": 53,
          "name": "F3",
          "ticks": 7440,
          "time": 37.199999999999996,
          "velocity": 0.6299212598425197
        },
        {
          "duration": 0.060000000000002274,
          "durationTicks": 12,
          "midi": 55,
          "name": "G3",
          "ticks": 7488,
          "time": 37.44,
          "velocity": 0.6299212598425197
        },
        {
          "duration": 0.060000000000002274,
          "durationTicks": 12,
          "midi": 67,
          "name": "G4",
          "ticks": 7512,
          "time": 37.559999999999995,
          "velocity": 0.6299212598425197
        },
        {
          "duration": 0.060000000000002274,
          "durationTicks": 12,
          "midi": 62,
          "name": "D4",
          "ticks": 7536,
          "time": 37.68,
          "velocity": 0.6299212598425197
        },
        {
          "duration": 0.060000000000002274,
          "durationTicks": 12,
          "midi": 55,
          "name": "G3",
          "ticks": 7560,
          "time": 37.8,
          "velocity": 0.6299212598425197
        },
        {
          "duration": 0.05999999999999517,
          "durationTicks": 12,
          "midi": 53,
          "name": "F3",
          "ticks": 7584,
          "time": 37.92,
          "velocity": 0.6299212598425197
        },
        {
          "duration": 0.060000000000002274,
          "durationTicks": 12,
          "midi": 60,
          "name": "C4",
          "ticks": 7608,
          "time": 38.04,
          "velocity": 0.6299212598425197
        },
        {
          "duration": 0.240000000000002,
          "durationTicks": 48,
          "midi": 53,
          "name": "F3",
          "ticks": 7632,
          "time": 38.16,
          "velocity": 0.6299212598425197
        },
        {
          "duration": 0.060000000000002274,
          "durationTicks": 12,
          "midi": 51,
          "name": "D#3",
          "ticks": 7680,
          "time": 38.4,
          "velocity": 0.6299212598425197
        },
        {
          "duration": 0.060000000000002274,
          "durationTicks": 12,
          "midi": 63,
          "name": "D#4",
          "ticks": 7704,
          "time": 38.519999999999996,
          "velocity": 0.6299212598425197
        },
        {
          "duration": 0.05999999999999517,
          "durationTicks": 12,
          "midi": 58,
          "name": "A#3",
          "ticks": 7728,
          "time": 38.64,
          "velocity": 0.6299212598425197
        },
        {
          "duration": 0.060000000000002274,
          "durationTicks": 12,
          "midi": 51,
          "name": "D#3",
          "ticks": 7752,
          "time": 38.76,
          "velocity": 0.6299212598425197
        },
        {
          "duration": 0.060000000000002274,
          "durationTicks": 12,
          "midi": 63,
          "name": "D#4",
          "ticks": 7776,
          "time": 38.879999999999995,
          "velocity": 0.6299212598425197
        },
        {
          "duration": 0.05999999999999517,
          "durationTicks": 12,
          "midi": 58,
          "name": "A#3",
          "ticks": 7800,
          "time": 39,
          "velocity": 0.6299212598425197
        },
        {
          "duration": 0.12000000000000455,
          "durationTicks": 24,
          "midi": 50,
          "name": "D3",
          "ticks": 7824,
          "time": 39.12,
          "velocity": 0.6299212598425197
        },
        {
          "duration": 0.060000000000002274,
          "durationTicks": 12,
          "midi": 51,
          "name": "D#3",
          "ticks": 7872,
          "time": 39.36,
          "velocity": 0.6299212598425197
        },
        {
          "duration": 0.060000000000002274,
          "durationTicks": 12,
          "midi": 63,
          "name": "D#4",
          "ticks": 7896,
          "time": 39.48,
          "velocity": 0.6299212598425197
        },
        {
          "duration": 0.05999999999999517,
          "durationTicks": 12,
          "midi": 58,
          "name": "A#3",
          "ticks": 7920,
          "time": 39.6,
          "velocity": 0.6299212598425197
        },
        {
          "duration": 0.060000000000002274,
          "durationTicks": 12,
          "midi": 51,
          "name": "D#3",
          "ticks": 7944,
          "time": 39.72,
          "velocity": 0.6299212598425197
        },
        {
          "duration": 0.060000000000002274,
          "durationTicks": 12,
          "midi": 63,
          "name": "D#4",
          "ticks": 7968,
          "time": 39.839999999999996,
          "velocity": 0.6299212598425197
        },
        {
          "duration": 0.05999999999999517,
          "durationTicks": 12,
          "midi": 58,
          "name": "A#3",
          "ticks": 7992,
          "time": 39.96,
          "velocity": 0.6299212598425197
        },
        {
          "duration": 0.11999999999999744,
          "durationTicks": 24,
          "midi": 50,
          "name": "D3",
          "ticks": 8016,
          "time": 40.08,
          "velocity": 0.6299212598425197
        },
        {
          "duration": 0.05999999999999517,
          "durationTicks": 12,
          "midi": 51,
          "name": "D#3",
          "ticks": 8064,
          "time": 40.32,
          "velocity": 0.6299212598425197
        },
        {
          "duration": 0.060000000000002274,
          "durationTicks": 12,
          "midi": 63,
          "name": "D#4",
          "ticks": 8088,
          "time": 40.44,
          "velocity": 0.6299212598425197
        },
        {
          "duration": 0.060000000000002274,
          "durationTicks": 12,
          "midi": 58,
          "name": "A#3",
          "ticks": 8112,
          "time": 40.559999999999995,
          "velocity": 0.6299212598425197
        },
        {
          "duration": 0.060000000000002274,
          "durationTicks": 12,
          "midi": 51,
          "name": "D#3",
          "ticks": 8136,
          "time": 40.68,
          "velocity": 0.6299212598425197
        },
        {
          "duration": 0.060000000000002274,
          "durationTicks": 12,
          "midi": 63,
          "name": "D#4",
          "ticks": 8160,
          "time": 40.8,
          "velocity": 0.6299212598425197
        },
        {
          "duration": 0.05999999999999517,
          "durationTicks": 12,
          "midi": 58,
          "name": "A#3",
          "ticks": 8184,
          "time": 40.92,
          "velocity": 0.6299212598425197
        },
        {
          "duration": 0.11999999999999744,
          "durationTicks": 24,
          "midi": 50,
          "name": "D3",
          "ticks": 8208,
          "time": 41.04,
          "velocity": 0.6299212598425197
        },
        {
          "duration": 0.05999999999999517,
          "durationTicks": 12,
          "midi": 51,
          "name": "D#3",
          "ticks": 8256,
          "time": 41.28,
          "velocity": 0.6299212598425197
        },
        {
          "duration": 0.060000000000002274,
          "durationTicks": 12,
          "midi": 63,
          "name": "D#4",
          "ticks": 8280,
          "time": 41.4,
          "velocity": 0.6299212598425197
        },
        {
          "duration": 0.060000000000002274,
          "durationTicks": 12,
          "midi": 58,
          "name": "A#3",
          "ticks": 8304,
          "time": 41.519999999999996,
          "velocity": 0.6299212598425197
        },
        {
          "duration": 0.05999999999999517,
          "durationTicks": 12,
          "midi": 51,
          "name": "D#3",
          "ticks": 8328,
          "time": 41.64,
          "velocity": 0.6299212598425197
        },
        {
          "duration": 0.060000000000002274,
          "durationTicks": 12,
          "midi": 53,
          "name": "F3",
          "ticks": 8352,
          "time": 41.76,
          "velocity": 0.6299212598425197
        },
        {
          "duration": 0.060000000000002274,
          "durationTicks": 12,
          "midi": 60,
          "name": "C4",
          "ticks": 8376,
          "time": 41.879999999999995,
          "velocity": 0.6299212598425197
        },
        {
          "duration": 0.23999999999999488,
          "durationTicks": 48,
          "midi": 53,
          "name": "F3",
          "ticks": 8400,
          "time": 42,
          "velocity": 0.6299212598425197
        },
        {
          "duration": 0.060000000000002274,
          "durationTicks": 12,
          "midi": 51,
          "name": "D#3",
          "ticks": 8448,
          "time": 42.239999999999995,
          "velocity": 0.6299212598425197
        },
        {
          "duration": 0.060000000000002274,
          "durationTicks": 12,
          "midi": 63,
          "name": "D#4",
          "ticks": 8472,
          "time": 42.36,
          "velocity": 0.6299212598425197
        },
        {
          "duration": 0.060000000000002274,
          "durationTicks": 12,
          "midi": 58,
          "name": "A#3",
          "ticks": 8496,
          "time": 42.48,
          "velocity": 0.6299212598425197
        },
        {
          "duration": 0.05999999999999517,
          "durationTicks": 12,
          "midi": 51,
          "name": "D#3",
          "ticks": 8520,
          "time": 42.6,
          "velocity": 0.6299212598425197
        },
        {
          "duration": 0.060000000000002274,
          "durationTicks": 12,
          "midi": 63,
          "name": "D#4",
          "ticks": 8544,
          "time": 42.72,
          "velocity": 0.6299212598425197
        },
        {
          "duration": 0.060000000000002274,
          "durationTicks": 12,
          "midi": 58,
          "name": "A#3",
          "ticks": 8568,
          "time": 42.839999999999996,
          "velocity": 0.6299212598425197
        },
        {
          "duration": 0.11999999999999744,
          "durationTicks": 24,
          "midi": 50,
          "name": "D3",
          "ticks": 8592,
          "time": 42.96,
          "velocity": 0.6299212598425197
        },
        {
          "duration": 0.060000000000002274,
          "durationTicks": 12,
          "midi": 51,
          "name": "D#3",
          "ticks": 8640,
          "time": 43.199999999999996,
          "velocity": 0.6299212598425197
        },
        {
          "duration": 0.05999999999999517,
          "durationTicks": 12,
          "midi": 63,
          "name": "D#4",
          "ticks": 8664,
          "time": 43.32,
          "velocity": 0.6299212598425197
        },
        {
          "duration": 0.060000000000002274,
          "durationTicks": 12,
          "midi": 58,
          "name": "A#3",
          "ticks": 8688,
          "time": 43.44,
          "velocity": 0.6299212598425197
        },
        {
          "duration": 0.060000000000002274,
          "durationTicks": 12,
          "midi": 51,
          "name": "D#3",
          "ticks": 8712,
          "time": 43.559999999999995,
          "velocity": 0.6299212598425197
        },
        {
          "duration": 0.05999999999999517,
          "durationTicks": 12,
          "midi": 63,
          "name": "D#4",
          "ticks": 8736,
          "time": 43.68,
          "velocity": 0.6299212598425197
        },
        {
          "duration": 0.060000000000002274,
          "durationTicks": 12,
          "midi": 58,
          "name": "A#3",
          "ticks": 8760,
          "time": 43.8,
          "velocity": 0.6299212598425197
        },
        {
          "duration": 0.11999999999999744,
          "durationTicks": 24,
          "midi": 50,
          "name": "D3",
          "ticks": 8784,
          "time": 43.92,
          "velocity": 0.6299212598425197
        },
        {
          "duration": 0.060000000000002274,
          "durationTicks": 12,
          "midi": 51,
          "name": "D#3",
          "ticks": 8832,
          "time": 44.16,
          "velocity": 0.6299212598425197
        },
        {
          "duration": 0.05999999999999517,
          "durationTicks": 12,
          "midi": 63,
          "name": "D#4",
          "ticks": 8856,
          "time": 44.28,
          "velocity": 0.6299212598425197
        },
        {
          "duration": 0.060000000000002274,
          "durationTicks": 12,
          "midi": 58,
          "name": "A#3",
          "ticks": 8880,
          "time": 44.4,
          "velocity": 0.6299212598425197
        },
        {
          "duration": 0.060000000000002274,
          "durationTicks": 12,
          "midi": 51,
          "name": "D#3",
          "ticks": 8904,
          "time": 44.519999999999996,
          "velocity": 0.6299212598425197
        },
        {
          "duration": 0.05999999999999517,
          "durationTicks": 12,
          "midi": 63,
          "name": "D#4",
          "ticks": 8928,
          "time": 44.64,
          "velocity": 0.6299212598425197
        },
        {
          "duration": 0.060000000000002274,
          "durationTicks": 12,
          "midi": 58,
          "name": "A#3",
          "ticks": 8952,
          "time": 44.76,
          "velocity": 0.6299212598425197
        },
        {
          "duration": 0.12000000000000455,
          "durationTicks": 24,
          "midi": 50,
          "name": "D3",
          "ticks": 8976,
          "time": 44.879999999999995,
          "velocity": 0.6299212598425197
        },
        {
          "duration": 0.060000000000002274,
          "durationTicks": 12,
          "midi": 51,
          "name": "D#3",
          "ticks": 9024,
          "time": 45.12,
          "velocity": 0.6299212598425197
        },
        {
          "duration": 0.060000000000002274,
          "durationTicks": 12,
          "midi": 63,
          "name": "D#4",
          "ticks": 9048,
          "time": 45.239999999999995,
          "velocity": 0.6299212598425197
        },
        {
          "duration": 0.060000000000002274,
          "durationTicks": 12,
          "midi": 58,
          "name": "A#3",
          "ticks": 9072,
          "time": 45.36,
          "velocity": 0.6299212598425197
        },
        {
          "duration": 0.060000000000002274,
          "durationTicks": 12,
          "midi": 51,
          "name": "D#3",
          "ticks": 9096,
          "time": 45.48,
          "velocity": 0.6299212598425197
        },
        {
          "duration": 0.05999999999999517,
          "durationTicks": 12,
          "midi": 53,
          "name": "F3",
          "ticks": 9120,
          "time": 45.6,
          "velocity": 0.6299212598425197
        },
        {
          "duration": 0.060000000000002274,
          "durationTicks": 12,
          "midi": 60,
          "name": "C4",
          "ticks": 9144,
          "time": 45.72,
          "velocity": 0.6299212598425197
        },
        {
          "duration": 0.240000000000002,
          "durationTicks": 48,
          "midi": 53,
          "name": "F3",
          "ticks": 9168,
          "time": 45.839999999999996,
          "velocity": 0.6299212598425197
        },
        {
          "duration": 0.05999999999998806,
          "durationTicks": 12,
          "midi": 55,
          "name": "G3",
          "ticks": 19968,
          "time": 99.84,
          "velocity": 0.6299212598425197
        },
        {
          "duration": 0.060000000000002274,
          "durationTicks": 12,
          "midi": 67,
          "name": "G4",
          "ticks": 19992,
          "time": 99.96,
          "velocity": 0.6299212598425197
        },
        {
          "duration": 0.060000000000002274,
          "durationTicks": 12,
          "midi": 62,
          "name": "D4",
          "ticks": 20016,
          "time": 100.08,
          "velocity": 0.6299212598425197
        },
        {
          "duration": 0.05999999999998806,
          "durationTicks": 12,
          "midi": 55,
          "name": "G3",
          "ticks": 20040,
          "time": 100.2,
          "velocity": 0.6299212598425197
        },
        {
          "duration": 0.060000000000002274,
          "durationTicks": 12,
          "midi": 67,
          "name": "G4",
          "ticks": 20064,
          "time": 100.32,
          "velocity": 0.6299212598425197
        },
        {
          "duration": 0.060000000000002274,
          "durationTicks": 12,
          "midi": 62,
          "name": "D4",
          "ticks": 20088,
          "time": 100.44,
          "velocity": 0.6299212598425197
        },
        {
          "duration": 0.11999999999999034,
          "durationTicks": 24,
          "midi": 53,
          "name": "F3",
          "ticks": 20112,
          "time": 100.56,
          "velocity": 0.6299212598425197
        },
        {
          "duration": 0.060000000000002274,
          "durationTicks": 12,
          "midi": 55,
          "name": "G3",
          "ticks": 20160,
          "time": 100.8,
          "velocity": 0.6299212598425197
        },
        {
          "duration": 0.05999999999998806,
          "durationTicks": 12,
          "midi": 67,
          "name": "G4",
          "ticks": 20184,
          "time": 100.92,
          "velocity": 0.6299212598425197
        },
        {
          "duration": 0.060000000000002274,
          "durationTicks": 12,
          "midi": 62,
          "name": "D4",
          "ticks": 20208,
          "time": 101.03999999999999,
          "velocity": 0.6299212598425197
        },
        {
          "duration": 0.060000000000002274,
          "durationTicks": 12,
          "midi": 55,
          "name": "G3",
          "ticks": 20232,
          "time": 101.16,
          "velocity": 0.6299212598425197
        },
        {
          "duration": 0.05999999999998806,
          "durationTicks": 12,
          "midi": 67,
          "name": "G4",
          "ticks": 20256,
          "time": 101.28,
          "velocity": 0.6299212598425197
        },
        {
          "duration": 0.060000000000002274,
          "durationTicks": 12,
          "midi": 62,
          "name": "D4",
          "ticks": 20280,
          "time": 101.39999999999999,
          "velocity": 0.6299212598425197
        },
        {
          "duration": 0.12000000000000455,
          "durationTicks": 24,
          "midi": 53,
          "name": "F3",
          "ticks": 20304,
          "time": 101.52,
          "velocity": 0.6299212598425197
        },
        {
          "duration": 0.060000000000002274,
          "durationTicks": 12,
          "midi": 55,
          "name": "G3",
          "ticks": 20352,
          "time": 101.75999999999999,
          "velocity": 0.6299212598425197
        },
        {
          "duration": 0.060000000000002274,
          "durationTicks": 12,
          "midi": 67,
          "name": "G4",
          "ticks": 20376,
          "time": 101.88,
          "velocity": 0.6299212598425197
        },
        {
          "duration": 0.060000000000002274,
          "durationTicks": 12,
          "midi": 62,
          "name": "D4",
          "ticks": 20400,
          "time": 102,
          "velocity": 0.6299212598425197
        },
        {
          "duration": 0.060000000000002274,
          "durationTicks": 12,
          "midi": 55,
          "name": "G3",
          "ticks": 20424,
          "time": 102.11999999999999,
          "velocity": 0.6299212598425197
        },
        {
          "duration": 0.060000000000002274,
          "durationTicks": 12,
          "midi": 67,
          "name": "G4",
          "ticks": 20448,
          "time": 102.24,
          "velocity": 0.6299212598425197
        },
        {
          "duration": 0.060000000000002274,
          "durationTicks": 12,
          "midi": 62,
          "name": "D4",
          "ticks": 20472,
          "time": 102.36,
          "velocity": 0.6299212598425197
        },
        {
          "duration": 0.12000000000000455,
          "durationTicks": 24,
          "midi": 53,
          "name": "F3",
          "ticks": 20496,
          "time": 102.47999999999999,
          "velocity": 0.6299212598425197
        },
        {
          "duration": 0.060000000000002274,
          "durationTicks": 12,
          "midi": 55,
          "name": "G3",
          "ticks": 20544,
          "time": 102.72,
          "velocity": 0.6299212598425197
        },
        {
          "duration": 0.060000000000002274,
          "durationTicks": 12,
          "midi": 67,
          "name": "G4",
          "ticks": 20568,
          "time": 102.83999999999999,
          "velocity": 0.6299212598425197
        },
        {
          "duration": 0.060000000000002274,
          "durationTicks": 12,
          "midi": 62,
          "name": "D4",
          "ticks": 20592,
          "time": 102.96,
          "velocity": 0.6299212598425197
        },
        {
          "duration": 0.060000000000002274,
          "durationTicks": 12,
          "midi": 55,
          "name": "G3",
          "ticks": 20616,
          "time": 103.08,
          "velocity": 0.6299212598425197
        },
        {
          "duration": 0.05999999999998806,
          "durationTicks": 12,
          "midi": 53,
          "name": "F3",
          "ticks": 20640,
          "time": 103.2,
          "velocity": 0.6299212598425197
        },
        {
          "duration": 0.060000000000002274,
          "durationTicks": 12,
          "midi": 60,
          "name": "C4",
          "ticks": 20664,
          "time": 103.32,
          "velocity": 0.6299212598425197
        },
        {
          "duration": 0.12000000000000455,
          "durationTicks": 24,
          "midi": 53,
          "name": "F3",
          "ticks": 20688,
          "time": 103.44,
          "velocity": 0.6299212598425197
        },
        {
          "duration": 0.060000000000002274,
          "durationTicks": 12,
          "midi": 55,
          "name": "G3",
          "ticks": 20736,
          "time": 103.67999999999999,
          "velocity": 0.6299212598425197
        },
        {
          "duration": 0.060000000000002274,
          "durationTicks": 12,
          "midi": 67,
          "name": "G4",
          "ticks": 20760,
          "time": 103.8,
          "velocity": 0.6299212598425197
        },
        {
          "duration": 0.05999999999998806,
          "durationTicks": 12,
          "midi": 62,
          "name": "D4",
          "ticks": 20784,
          "time": 103.92,
          "velocity": 0.6299212598425197
        },
        {
          "duration": 0.060000000000002274,
          "durationTicks": 12,
          "midi": 55,
          "name": "G3",
          "ticks": 20808,
          "time": 104.03999999999999,
          "velocity": 0.6299212598425197
        },
        {
          "duration": 0.060000000000002274,
          "durationTicks": 12,
          "midi": 67,
          "name": "G4",
          "ticks": 20832,
          "time": 104.16,
          "velocity": 0.6299212598425197
        },
        {
          "duration": 0.05999999999998806,
          "durationTicks": 12,
          "midi": 62,
          "name": "D4",
          "ticks": 20856,
          "time": 104.28,
          "velocity": 0.6299212598425197
        },
        {
          "duration": 0.12000000000000455,
          "durationTicks": 24,
          "midi": 53,
          "name": "F3",
          "ticks": 20880,
          "time": 104.39999999999999,
          "velocity": 0.6299212598425197
        },
        {
          "duration": 0.060000000000002274,
          "durationTicks": 12,
          "midi": 55,
          "name": "G3",
          "ticks": 20928,
          "time": 104.64,
          "velocity": 0.6299212598425197
        },
        {
          "duration": 0.060000000000002274,
          "durationTicks": 12,
          "midi": 67,
          "name": "G4",
          "ticks": 20952,
          "time": 104.75999999999999,
          "velocity": 0.6299212598425197
        },
        {
          "duration": 0.060000000000002274,
          "durationTicks": 12,
          "midi": 62,
          "name": "D4",
          "ticks": 20976,
          "time": 104.88,
          "velocity": 0.6299212598425197
        },
        {
          "duration": 0.060000000000002274,
          "durationTicks": 12,
          "midi": 55,
          "name": "G3",
          "ticks": 21000,
          "time": 105,
          "velocity": 0.6299212598425197
        },
        {
          "duration": 0.060000000000002274,
          "durationTicks": 12,
          "midi": 67,
          "name": "G4",
          "ticks": 21024,
          "time": 105.11999999999999,
          "velocity": 0.6299212598425197
        },
        {
          "duration": 0.060000000000002274,
          "durationTicks": 12,
          "midi": 62,
          "name": "D4",
          "ticks": 21048,
          "time": 105.24,
          "velocity": 0.6299212598425197
        },
        {
          "duration": 0.11999999999999034,
          "durationTicks": 24,
          "midi": 53,
          "name": "F3",
          "ticks": 21072,
          "time": 105.36,
          "velocity": 0.6299212598425197
        },
        {
          "duration": 0.060000000000002274,
          "durationTicks": 12,
          "midi": 55,
          "name": "G3",
          "ticks": 21120,
          "time": 105.6,
          "velocity": 0.6299212598425197
        },
        {
          "duration": 0.060000000000002274,
          "durationTicks": 12,
          "midi": 67,
          "name": "G4",
          "ticks": 21144,
          "time": 105.72,
          "velocity": 0.6299212598425197
        },
        {
          "duration": 0.060000000000002274,
          "durationTicks": 12,
          "midi": 62,
          "name": "D4",
          "ticks": 21168,
          "time": 105.83999999999999,
          "velocity": 0.6299212598425197
        },
        {
          "duration": 0.060000000000002274,
          "durationTicks": 12,
          "midi": 55,
          "name": "G3",
          "ticks": 21192,
          "time": 105.96,
          "velocity": 0.6299212598425197
        },
        {
          "duration": 0.060000000000002274,
          "durationTicks": 12,
          "midi": 67,
          "name": "G4",
          "ticks": 21216,
          "time": 106.08,
          "velocity": 0.6299212598425197
        },
        {
          "duration": 0.05999999999998806,
          "durationTicks": 12,
          "midi": 62,
          "name": "D4",
          "ticks": 21240,
          "time": 106.2,
          "velocity": 0.6299212598425197
        },
        {
          "duration": 0.12000000000000455,
          "durationTicks": 24,
          "midi": 53,
          "name": "F3",
          "ticks": 21264,
          "time": 106.32,
          "velocity": 0.6299212598425197
        },
        {
          "duration": 0.05999999999998806,
          "durationTicks": 12,
          "midi": 55,
          "name": "G3",
          "ticks": 21312,
          "time": 106.56,
          "velocity": 0.6299212598425197
        },
        {
          "duration": 0.060000000000002274,
          "durationTicks": 12,
          "midi": 67,
          "name": "G4",
          "ticks": 21336,
          "time": 106.67999999999999,
          "velocity": 0.6299212598425197
        },
        {
          "duration": 0.060000000000002274,
          "durationTicks": 12,
          "midi": 62,
          "name": "D4",
          "ticks": 21360,
          "time": 106.8,
          "velocity": 0.6299212598425197
        },
        {
          "duration": 0.05999999999998806,
          "durationTicks": 12,
          "midi": 55,
          "name": "G3",
          "ticks": 21384,
          "time": 106.92,
          "velocity": 0.6299212598425197
        },
        {
          "duration": 0.060000000000002274,
          "durationTicks": 12,
          "midi": 53,
          "name": "F3",
          "ticks": 21408,
          "time": 107.03999999999999,
          "velocity": 0.6299212598425197
        },
        {
          "duration": 0.060000000000002274,
          "durationTicks": 12,
          "midi": 60,
          "name": "C4",
          "ticks": 21432,
          "time": 107.16,
          "velocity": 0.6299212598425197
        },
        {
          "duration": 0.23999999999999488,
          "durationTicks": 48,
          "midi": 53,
          "name": "F3",
          "ticks": 21456,
          "time": 107.28,
          "velocity": 0.6299212598425197
        },
        {
          "duration": 0.060000000000002274,
          "durationTicks": 12,
          "midi": 51,
          "name": "D#3",
          "ticks": 21504,
          "time": 107.52,
          "velocity": 0.6299212598425197
        },
        {
          "duration": 0.060000000000002274,
          "durationTicks": 12,
          "midi": 63,
          "name": "D#4",
          "ticks": 21528,
          "time": 107.64,
          "velocity": 0.6299212598425197
        },
        {
          "duration": 0.060000000000002274,
          "durationTicks": 12,
          "midi": 58,
          "name": "A#3",
          "ticks": 21552,
          "time": 107.75999999999999,
          "velocity": 0.6299212598425197
        },
        {
          "duration": 0.060000000000002274,
          "durationTicks": 12,
          "midi": 51,
          "name": "D#3",
          "ticks": 21576,
          "time": 107.88,
          "velocity": 0.6299212598425197
        },
        {
          "duration": 0.060000000000002274,
          "durationTicks": 12,
          "midi": 63,
          "name": "D#4",
          "ticks": 21600,
          "time": 108,
          "velocity": 0.6299212598425197
        },
        {
          "duration": 0.060000000000002274,
          "durationTicks": 12,
          "midi": 58,
          "name": "A#3",
          "ticks": 21624,
          "time": 108.11999999999999,
          "velocity": 0.6299212598425197
        },
        {
          "duration": 0.12000000000000455,
          "durationTicks": 24,
          "midi": 50,
          "name": "D3",
          "ticks": 21648,
          "time": 108.24,
          "velocity": 0.6299212598425197
        },
        {
          "duration": 0.060000000000002274,
          "durationTicks": 12,
          "midi": 51,
          "name": "D#3",
          "ticks": 21696,
          "time": 108.47999999999999,
          "velocity": 0.6299212598425197
        },
        {
          "duration": 0.060000000000002274,
          "durationTicks": 12,
          "midi": 63,
          "name": "D#4",
          "ticks": 21720,
          "time": 108.6,
          "velocity": 0.6299212598425197
        },
        {
          "duration": 0.060000000000002274,
          "durationTicks": 12,
          "midi": 58,
          "name": "A#3",
          "ticks": 21744,
          "time": 108.72,
          "velocity": 0.6299212598425197
        },
        {
          "duration": 0.060000000000002274,
          "durationTicks": 12,
          "midi": 51,
          "name": "D#3",
          "ticks": 21768,
          "time": 108.83999999999999,
          "velocity": 0.6299212598425197
        },
        {
          "duration": 0.060000000000002274,
          "durationTicks": 12,
          "midi": 63,
          "name": "D#4",
          "ticks": 21792,
          "time": 108.96,
          "velocity": 0.6299212598425197
        },
        {
          "duration": 0.060000000000002274,
          "durationTicks": 12,
          "midi": 58,
          "name": "A#3",
          "ticks": 21816,
          "time": 109.08,
          "velocity": 0.6299212598425197
        },
        {
          "duration": 0.11999999999999034,
          "durationTicks": 24,
          "midi": 50,
          "name": "D3",
          "ticks": 21840,
          "time": 109.2,
          "velocity": 0.6299212598425197
        },
        {
          "duration": 0.060000000000002274,
          "durationTicks": 12,
          "midi": 51,
          "name": "D#3",
          "ticks": 21888,
          "time": 109.44,
          "velocity": 0.6299212598425197
        },
        {
          "duration": 0.05999999999998806,
          "durationTicks": 12,
          "midi": 63,
          "name": "D#4",
          "ticks": 21912,
          "time": 109.56,
          "velocity": 0.6299212598425197
        },
        {
          "duration": 0.060000000000002274,
          "durationTicks": 12,
          "midi": 58,
          "name": "A#3",
          "ticks": 21936,
          "time": 109.67999999999999,
          "velocity": 0.6299212598425197
        },
        {
          "duration": 0.060000000000002274,
          "durationTicks": 12,
          "midi": 51,
          "name": "D#3",
          "ticks": 21960,
          "time": 109.8,
          "velocity": 0.6299212598425197
        },
        {
          "duration": 0.05999999999998806,
          "durationTicks": 12,
          "midi": 63,
          "name": "D#4",
          "ticks": 21984,
          "time": 109.92,
          "velocity": 0.6299212598425197
        },
        {
          "duration": 0.060000000000002274,
          "durationTicks": 12,
          "midi": 58,
          "name": "A#3",
          "ticks": 22008,
          "time": 110.03999999999999,
          "velocity": 0.6299212598425197
        },
        {
          "duration": 0.12000000000000455,
          "durationTicks": 24,
          "midi": 50,
          "name": "D3",
          "ticks": 22032,
          "time": 110.16,
          "velocity": 0.6299212598425197
        },
        {
          "duration": 0.060000000000002274,
          "durationTicks": 12,
          "midi": 51,
          "name": "D#3",
          "ticks": 22080,
          "time": 110.39999999999999,
          "velocity": 0.6299212598425197
        },
        {
          "duration": 0.060000000000002274,
          "durationTicks": 12,
          "midi": 63,
          "name": "D#4",
          "ticks": 22104,
          "time": 110.52,
          "velocity": 0.6299212598425197
        },
        {
          "duration": 0.060000000000002274,
          "durationTicks": 12,
          "midi": 58,
          "name": "A#3",
          "ticks": 22128,
          "time": 110.64,
          "velocity": 0.6299212598425197
        },
        {
          "duration": 0.060000000000002274,
          "durationTicks": 12,
          "midi": 51,
          "name": "D#3",
          "ticks": 22152,
          "time": 110.75999999999999,
          "velocity": 0.6299212598425197
        },
        {
          "duration": 0.060000000000002274,
          "durationTicks": 12,
          "midi": 53,
          "name": "F3",
          "ticks": 22176,
          "time": 110.88,
          "velocity": 0.6299212598425197
        },
        {
          "duration": 0.060000000000002274,
          "durationTicks": 12,
          "midi": 60,
          "name": "C4",
          "ticks": 22200,
          "time": 111,
          "velocity": 0.6299212598425197
        },
        {
          "duration": 0.2400000000000091,
          "durationTicks": 48,
          "midi": 53,
          "name": "F3",
          "ticks": 22224,
          "time": 111.11999999999999,
          "velocity": 0.6299212598425197
        },
        {
          "duration": 0.060000000000002274,
          "durationTicks": 12,
          "midi": 51,
          "name": "D#3",
          "ticks": 22272,
          "time": 111.36,
          "velocity": 0.6299212598425197
        },
        {
          "duration": 0.060000000000002274,
          "durationTicks": 12,
          "midi": 63,
          "name": "D#4",
          "ticks": 22296,
          "time": 111.47999999999999,
          "velocity": 0.6299212598425197
        },
        {
          "duration": 0.060000000000002274,
          "durationTicks": 12,
          "midi": 58,
          "name": "A#3",
          "ticks": 22320,
          "time": 111.6,
          "velocity": 0.6299212598425197
        },
        {
          "duration": 0.060000000000002274,
          "durationTicks": 12,
          "midi": 51,
          "name": "D#3",
          "ticks": 22344,
          "time": 111.72,
          "velocity": 0.6299212598425197
        },
        {
          "duration": 0.060000000000002274,
          "durationTicks": 12,
          "midi": 63,
          "name": "D#4",
          "ticks": 22368,
          "time": 111.83999999999999,
          "velocity": 0.6299212598425197
        },
        {
          "duration": 0.060000000000002274,
          "durationTicks": 12,
          "midi": 58,
          "name": "A#3",
          "ticks": 22392,
          "time": 111.96,
          "velocity": 0.6299212598425197
        },
        {
          "duration": 0.12000000000000455,
          "durationTicks": 24,
          "midi": 50,
          "name": "D3",
          "ticks": 22416,
          "time": 112.08,
          "velocity": 0.6299212598425197
        },
        {
          "duration": 0.060000000000002274,
          "durationTicks": 12,
          "midi": 51,
          "name": "D#3",
          "ticks": 22464,
          "time": 112.32,
          "velocity": 0.6299212598425197
        },
        {
          "duration": 0.060000000000002274,
          "durationTicks": 12,
          "midi": 63,
          "name": "D#4",
          "ticks": 22488,
          "time": 112.44,
          "velocity": 0.6299212598425197
        },
        {
          "duration": 0.05999999999998806,
          "durationTicks": 12,
          "midi": 58,
          "name": "A#3",
          "ticks": 22512,
          "time": 112.56,
          "velocity": 0.6299212598425197
        },
        {
          "duration": 0.060000000000002274,
          "durationTicks": 12,
          "midi": 51,
          "name": "D#3",
          "ticks": 22536,
          "time": 112.67999999999999,
          "velocity": 0.6299212598425197
        },
        {
          "duration": 0.060000000000002274,
          "durationTicks": 12,
          "midi": 63,
          "name": "D#4",
          "ticks": 22560,
          "time": 112.8,
          "velocity": 0.6299212598425197
        },
        {
          "duration": 0.05999999999998806,
          "durationTicks": 12,
          "midi": 58,
          "name": "A#3",
          "ticks": 22584,
          "time": 112.92,
          "velocity": 0.6299212598425197
        },
        {
          "duration": 0.12000000000000455,
          "durationTicks": 24,
          "midi": 50,
          "name": "D3",
          "ticks": 22608,
          "time": 113.03999999999999,
          "velocity": 0.6299212598425197
        },
        {
          "duration": 0.05999999999998806,
          "durationTicks": 12,
          "midi": 51,
          "name": "D#3",
          "ticks": 22656,
          "time": 113.28,
          "velocity": 0.6299212598425197
        },
        {
          "duration": 0.060000000000002274,
          "durationTicks": 12,
          "midi": 63,
          "name": "D#4",
          "ticks": 22680,
          "time": 113.39999999999999,
          "velocity": 0.6299212598425197
        },
        {
          "duration": 0.060000000000002274,
          "durationTicks": 12,
          "midi": 58,
          "name": "A#3",
          "ticks": 22704,
          "time": 113.52,
          "velocity": 0.6299212598425197
        },
        {
          "duration": 0.060000000000002274,
          "durationTicks": 12,
          "midi": 51,
          "name": "D#3",
          "ticks": 22728,
          "time": 113.64,
          "velocity": 0.6299212598425197
        },
        {
          "duration": 0.060000000000002274,
          "durationTicks": 12,
          "midi": 63,
          "name": "D#4",
          "ticks": 22752,
          "time": 113.75999999999999,
          "velocity": 0.6299212598425197
        },
        {
          "duration": 0.060000000000002274,
          "durationTicks": 12,
          "midi": 58,
          "name": "A#3",
          "ticks": 22776,
          "time": 113.88,
          "velocity": 0.6299212598425197
        },
        {
          "duration": 0.11999999999999034,
          "durationTicks": 24,
          "midi": 50,
          "name": "D3",
          "ticks": 22800,
          "time": 114,
          "velocity": 0.6299212598425197
        },
        {
          "duration": 0.060000000000002274,
          "durationTicks": 12,
          "midi": 51,
          "name": "D#3",
          "ticks": 22848,
          "time": 114.24,
          "velocity": 0.6299212598425197
        },
        {
          "duration": 0.060000000000002274,
          "durationTicks": 12,
          "midi": 63,
          "name": "D#4",
          "ticks": 22872,
          "time": 114.36,
          "velocity": 0.6299212598425197
        },
        {
          "duration": 0.060000000000002274,
          "durationTicks": 12,
          "midi": 58,
          "name": "A#3",
          "ticks": 22896,
          "time": 114.47999999999999,
          "velocity": 0.6299212598425197
        },
        {
          "duration": 0.060000000000002274,
          "durationTicks": 12,
          "midi": 51,
          "name": "D#3",
          "ticks": 22920,
          "time": 114.6,
          "velocity": 0.6299212598425197
        },
        {
          "duration": 0.060000000000002274,
          "durationTicks": 12,
          "midi": 53,
          "name": "F3",
          "ticks": 22944,
          "time": 114.72,
          "velocity": 0.6299212598425197
        },
        {
          "duration": 0.060000000000002274,
          "durationTicks": 12,
          "midi": 60,
          "name": "C4",
          "ticks": 22968,
          "time": 114.83999999999999,
          "velocity": 0.6299212598425197
        },
        {
          "duration": 0.23999999999999488,
          "durationTicks": 48,
          "midi": 53,
          "name": "F3",
          "ticks": 22992,
          "time": 114.96,
          "velocity": 0.6299212598425197
        },
        {
          "duration": 0.060000000000002274,
          "durationTicks": 12,
          "midi": 55,
          "name": "G3",
          "ticks": 23040,
          "time": 115.19999999999999,
          "velocity": 0.6299212598425197
        },
        {
          "duration": 0.060000000000002274,
          "durationTicks": 12,
          "midi": 67,
          "name": "G4",
          "ticks": 23064,
          "time": 115.32,
          "velocity": 0.6299212598425197
        },
        {
          "duration": 0.060000000000002274,
          "durationTicks": 12,
          "midi": 62,
          "name": "D4",
          "ticks": 23088,
          "time": 115.44,
          "velocity": 0.6299212598425197
        },
        {
          "duration": 0.05999999999998806,
          "durationTicks": 12,
          "midi": 55,
          "name": "G3",
          "ticks": 23112,
          "time": 115.56,
          "velocity": 0.6299212598425197
        },
        {
          "duration": 0.060000000000002274,
          "durationTicks": 12,
          "midi": 67,
          "name": "G4",
          "ticks": 23136,
          "time": 115.67999999999999,
          "velocity": 0.6299212598425197
        },
        {
          "duration": 0.060000000000002274,
          "durationTicks": 12,
          "midi": 62,
          "name": "D4",
          "ticks": 23160,
          "time": 115.8,
          "velocity": 0.6299212598425197
        },
        {
          "duration": 0.11999999999999034,
          "durationTicks": 24,
          "midi": 53,
          "name": "F3",
          "ticks": 23184,
          "time": 115.92,
          "velocity": 0.6299212598425197
        },
        {
          "duration": 0.060000000000002274,
          "durationTicks": 12,
          "midi": 55,
          "name": "G3",
          "ticks": 23232,
          "time": 116.16,
          "velocity": 0.6299212598425197
        },
        {
          "duration": 0.05999999999998806,
          "durationTicks": 12,
          "midi": 67,
          "name": "G4",
          "ticks": 23256,
          "time": 116.28,
          "velocity": 0.6299212598425197
        },
        {
          "duration": 0.060000000000002274,
          "durationTicks": 12,
          "midi": 62,
          "name": "D4",
          "ticks": 23280,
          "time": 116.39999999999999,
          "velocity": 0.6299212598425197
        },
        {
          "duration": 0.060000000000002274,
          "durationTicks": 12,
          "midi": 55,
          "name": "G3",
          "ticks": 23304,
          "time": 116.52,
          "velocity": 0.6299212598425197
        },
        {
          "duration": 0.05999999999998806,
          "durationTicks": 12,
          "midi": 67,
          "name": "G4",
          "ticks": 23328,
          "time": 116.64,
          "velocity": 0.6299212598425197
        },
        {
          "duration": 0.060000000000002274,
          "durationTicks": 12,
          "midi": 62,
          "name": "D4",
          "ticks": 23352,
          "time": 116.75999999999999,
          "velocity": 0.6299212598425197
        },
        {
          "duration": 0.12000000000000455,
          "durationTicks": 24,
          "midi": 53,
          "name": "F3",
          "ticks": 23376,
          "time": 116.88,
          "velocity": 0.6299212598425197
        },
        {
          "duration": 0.060000000000002274,
          "durationTicks": 12,
          "midi": 55,
          "name": "G3",
          "ticks": 23424,
          "time": 117.11999999999999,
          "velocity": 0.6299212598425197
        },
        {
          "duration": 0.060000000000002274,
          "durationTicks": 12,
          "midi": 67,
          "name": "G4",
          "ticks": 23448,
          "time": 117.24,
          "velocity": 0.6299212598425197
        },
        {
          "duration": 0.060000000000002274,
          "durationTicks": 12,
          "midi": 62,
          "name": "D4",
          "ticks": 23472,
          "time": 117.36,
          "velocity": 0.6299212598425197
        },
        {
          "duration": 0.060000000000002274,
          "durationTicks": 12,
          "midi": 55,
          "name": "G3",
          "ticks": 23496,
          "time": 117.47999999999999,
          "velocity": 0.6299212598425197
        },
        {
          "duration": 0.060000000000002274,
          "durationTicks": 12,
          "midi": 67,
          "name": "G4",
          "ticks": 23520,
          "time": 117.6,
          "velocity": 0.6299212598425197
        },
        {
          "duration": 0.060000000000002274,
          "durationTicks": 12,
          "midi": 62,
          "name": "D4",
          "ticks": 23544,
          "time": 117.72,
          "velocity": 0.6299212598425197
        },
        {
          "duration": 0.12000000000000455,
          "durationTicks": 24,
          "midi": 53,
          "name": "F3",
          "ticks": 23568,
          "time": 117.83999999999999,
          "velocity": 0.6299212598425197
        },
        {
          "duration": 0.060000000000002274,
          "durationTicks": 12,
          "midi": 55,
          "name": "G3",
          "ticks": 23616,
          "time": 118.08,
          "velocity": 0.6299212598425197
        },
        {
          "duration": 0.060000000000002274,
          "durationTicks": 12,
          "midi": 67,
          "name": "G4",
          "ticks": 23640,
          "time": 118.19999999999999,
          "velocity": 0.6299212598425197
        },
        {
          "duration": 0.060000000000002274,
          "durationTicks": 12,
          "midi": 62,
          "name": "D4",
          "ticks": 23664,
          "time": 118.32,
          "velocity": 0.6299212598425197
        },
        {
          "duration": 0.060000000000002274,
          "durationTicks": 12,
          "midi": 55,
          "name": "G3",
          "ticks": 23688,
          "time": 118.44,
          "velocity": 0.6299212598425197
        },
        {
          "duration": 0.05999999999998806,
          "durationTicks": 12,
          "midi": 53,
          "name": "F3",
          "ticks": 23712,
          "time": 118.56,
          "velocity": 0.6299212598425197
        },
        {
          "duration": 0.060000000000002274,
          "durationTicks": 12,
          "midi": 60,
          "name": "C4",
          "ticks": 23736,
          "time": 118.67999999999999,
          "velocity": 0.6299212598425197
        },
        {
          "duration": 0.12000000000000455,
          "durationTicks": 24,
          "midi": 53,
          "name": "F3",
          "ticks": 23760,
          "time": 118.8,
          "velocity": 0.6299212598425197
        },
        {
          "duration": 0.060000000000002274,
          "durationTicks": 12,
          "midi": 55,
          "name": "G3",
          "ticks": 23808,
          "time": 119.03999999999999,
          "velocity": 0.6299212598425197
        },
        {
          "duration": 0.060000000000002274,
          "durationTicks": 12,
          "midi": 67,
          "name": "G4",
          "ticks": 23832,
          "time": 119.16,
          "velocity": 0.6299212598425197
        },
        {
          "duration": 0.05999999999998806,
          "durationTicks": 12,
          "midi": 62,
          "name": "D4",
          "ticks": 23856,
          "time": 119.28,
          "velocity": 0.6299212598425197
        },
        {
          "duration": 0.060000000000002274,
          "durationTicks": 12,
          "midi": 55,
          "name": "G3",
          "ticks": 23880,
          "time": 119.39999999999999,
          "velocity": 0.6299212598425197
        },
        {
          "duration": 0.060000000000002274,
          "durationTicks": 12,
          "midi": 67,
          "name": "G4",
          "ticks": 23904,
          "time": 119.52,
          "velocity": 0.6299212598425197
        },
        {
          "duration": 0.05999999999998806,
          "durationTicks": 12,
          "midi": 62,
          "name": "D4",
          "ticks": 23928,
          "time": 119.64,
          "velocity": 0.6299212598425197
        },
        {
          "duration": 0.12000000000000455,
          "durationTicks": 24,
          "midi": 53,
          "name": "F3",
          "ticks": 23952,
          "time": 119.75999999999999,
          "velocity": 0.6299212598425197
        },
        {
          "duration": 0.060000000000002274,
          "durationTicks": 12,
          "midi": 55,
          "name": "G3",
          "ticks": 24000,
          "time": 120,
          "velocity": 0.6299212598425197
        },
        {
          "duration": 0.060000000000002274,
          "durationTicks": 12,
          "midi": 67,
          "name": "G4",
          "ticks": 24024,
          "time": 120.11999999999999,
          "velocity": 0.6299212598425197
        },
        {
          "duration": 0.060000000000002274,
          "durationTicks": 12,
          "midi": 62,
          "name": "D4",
          "ticks": 24048,
          "time": 120.24,
          "velocity": 0.6299212598425197
        },
        {
          "duration": 0.060000000000002274,
          "durationTicks": 12,
          "midi": 55,
          "name": "G3",
          "ticks": 24072,
          "time": 120.36,
          "velocity": 0.6299212598425197
        },
        {
          "duration": 0.060000000000002274,
          "durationTicks": 12,
          "midi": 67,
          "name": "G4",
          "ticks": 24096,
          "time": 120.47999999999999,
          "velocity": 0.6299212598425197
        },
        {
          "duration": 0.060000000000002274,
          "durationTicks": 12,
          "midi": 62,
          "name": "D4",
          "ticks": 24120,
          "time": 120.6,
          "velocity": 0.6299212598425197
        },
        {
          "duration": 0.11999999999999034,
          "durationTicks": 24,
          "midi": 53,
          "name": "F3",
          "ticks": 24144,
          "time": 120.72,
          "velocity": 0.6299212598425197
        },
        {
          "duration": 0.060000000000002274,
          "durationTicks": 12,
          "midi": 55,
          "name": "G3",
          "ticks": 24192,
          "time": 120.96,
          "velocity": 0.6299212598425197
        },
        {
          "duration": 0.060000000000002274,
          "durationTicks": 12,
          "midi": 67,
          "name": "G4",
          "ticks": 24216,
          "time": 121.08,
          "velocity": 0.6299212598425197
        },
        {
          "duration": 0.060000000000002274,
          "durationTicks": 12,
          "midi": 62,
          "name": "D4",
          "ticks": 24240,
          "time": 121.19999999999999,
          "velocity": 0.6299212598425197
        },
        {
          "duration": 0.060000000000002274,
          "durationTicks": 12,
          "midi": 55,
          "name": "G3",
          "ticks": 24264,
          "time": 121.32,
          "velocity": 0.6299212598425197
        },
        {
          "duration": 0.060000000000002274,
          "durationTicks": 12,
          "midi": 67,
          "name": "G4",
          "ticks": 24288,
          "time": 121.44,
          "velocity": 0.6299212598425197
        },
        {
          "duration": 0.05999999999998806,
          "durationTicks": 12,
          "midi": 62,
          "name": "D4",
          "ticks": 24312,
          "time": 121.56,
          "velocity": 0.6299212598425197
        },
        {
          "duration": 0.12000000000000455,
          "durationTicks": 24,
          "midi": 53,
          "name": "F3",
          "ticks": 24336,
          "time": 121.67999999999999,
          "velocity": 0.6299212598425197
        },
        {
          "duration": 0.05999999999998806,
          "durationTicks": 12,
          "midi": 55,
          "name": "G3",
          "ticks": 24384,
          "time": 121.92,
          "velocity": 0.6299212598425197
        },
        {
          "duration": 0.060000000000002274,
          "durationTicks": 12,
          "midi": 67,
          "name": "G4",
          "ticks": 24408,
          "time": 122.03999999999999,
          "velocity": 0.6299212598425197
        },
        {
          "duration": 0.060000000000002274,
          "durationTicks": 12,
          "midi": 62,
          "name": "D4",
          "ticks": 24432,
          "time": 122.16,
          "velocity": 0.6299212598425197
        },
        {
          "duration": 0.05999999999998806,
          "durationTicks": 12,
          "midi": 55,
          "name": "G3",
          "ticks": 24456,
          "time": 122.28,
          "velocity": 0.6299212598425197
        },
        {
          "duration": 0.060000000000002274,
          "durationTicks": 12,
          "midi": 53,
          "name": "F3",
          "ticks": 24480,
          "time": 122.39999999999999,
          "velocity": 0.6299212598425197
        },
        {
          "duration": 0.060000000000002274,
          "durationTicks": 12,
          "midi": 60,
          "name": "C4",
          "ticks": 24504,
          "time": 122.52,
          "velocity": 0.6299212598425197
        },
        {
          "duration": 0.23999999999999488,
          "durationTicks": 48,
          "midi": 53,
          "name": "F3",
          "ticks": 24528,
          "time": 122.64,
          "velocity": 0.6299212598425197
        },
        {
          "duration": 0.060000000000002274,
          "durationTicks": 12,
          "midi": 51,
          "name": "D#3",
          "ticks": 24576,
          "time": 122.88,
          "velocity": 0.6299212598425197
        },
        {
          "duration": 0.060000000000002274,
          "durationTicks": 12,
          "midi": 63,
          "name": "D#4",
          "ticks": 24600,
          "time": 123,
          "velocity": 0.6299212598425197
        },
        {
          "duration": 0.060000000000002274,
          "durationTicks": 12,
          "midi": 58,
          "name": "A#3",
          "ticks": 24624,
          "time": 123.11999999999999,
          "velocity": 0.6299212598425197
        },
        {
          "duration": 0.060000000000002274,
          "durationTicks": 12,
          "midi": 51,
          "name": "D#3",
          "ticks": 24648,
          "time": 123.24,
          "velocity": 0.6299212598425197
        },
        {
          "duration": 0.060000000000002274,
          "durationTicks": 12,
          "midi": 63,
          "name": "D#4",
          "ticks": 24672,
          "time": 123.36,
          "velocity": 0.6299212598425197
        },
        {
          "duration": 0.060000000000002274,
          "durationTicks": 12,
          "midi": 58,
          "name": "A#3",
          "ticks": 24696,
          "time": 123.47999999999999,
          "velocity": 0.6299212598425197
        },
        {
          "duration": 0.12000000000000455,
          "durationTicks": 24,
          "midi": 50,
          "name": "D3",
          "ticks": 24720,
          "time": 123.6,
          "velocity": 0.6299212598425197
        },
        {
          "duration": 0.060000000000002274,
          "durationTicks": 12,
          "midi": 51,
          "name": "D#3",
          "ticks": 24768,
          "time": 123.83999999999999,
          "velocity": 0.6299212598425197
        },
        {
          "duration": 0.060000000000002274,
          "durationTicks": 12,
          "midi": 63,
          "name": "D#4",
          "ticks": 24792,
          "time": 123.96,
          "velocity": 0.6299212598425197
        },
        {
          "duration": 0.060000000000002274,
          "durationTicks": 12,
          "midi": 58,
          "name": "A#3",
          "ticks": 24816,
          "time": 124.08,
          "velocity": 0.6299212598425197
        },
        {
          "duration": 0.060000000000002274,
          "durationTicks": 12,
          "midi": 51,
          "name": "D#3",
          "ticks": 24840,
          "time": 124.19999999999999,
          "velocity": 0.6299212598425197
        },
        {
          "duration": 0.060000000000002274,
          "durationTicks": 12,
          "midi": 63,
          "name": "D#4",
          "ticks": 24864,
          "time": 124.32,
          "velocity": 0.6299212598425197
        },
        {
          "duration": 0.060000000000002274,
          "durationTicks": 12,
          "midi": 58,
          "name": "A#3",
          "ticks": 24888,
          "time": 124.44,
          "velocity": 0.6299212598425197
        },
        {
          "duration": 0.11999999999999034,
          "durationTicks": 24,
          "midi": 50,
          "name": "D3",
          "ticks": 24912,
          "time": 124.56,
          "velocity": 0.6299212598425197
        },
        {
          "duration": 0.060000000000002274,
          "durationTicks": 12,
          "midi": 51,
          "name": "D#3",
          "ticks": 24960,
          "time": 124.8,
          "velocity": 0.6299212598425197
        },
        {
          "duration": 0.05999999999998806,
          "durationTicks": 12,
          "midi": 63,
          "name": "D#4",
          "ticks": 24984,
          "time": 124.92,
          "velocity": 0.6299212598425197
        },
        {
          "duration": 0.060000000000002274,
          "durationTicks": 12,
          "midi": 58,
          "name": "A#3",
          "ticks": 25008,
          "time": 125.03999999999999,
          "velocity": 0.6299212598425197
        },
        {
          "duration": 0.060000000000002274,
          "durationTicks": 12,
          "midi": 51,
          "name": "D#3",
          "ticks": 25032,
          "time": 125.16,
          "velocity": 0.6299212598425197
        },
        {
          "duration": 0.05999999999998806,
          "durationTicks": 12,
          "midi": 63,
          "name": "D#4",
          "ticks": 25056,
          "time": 125.28,
          "velocity": 0.6299212598425197
        },
        {
          "duration": 0.060000000000002274,
          "durationTicks": 12,
          "midi": 58,
          "name": "A#3",
          "ticks": 25080,
          "time": 125.39999999999999,
          "velocity": 0.6299212598425197
        },
        {
          "duration": 0.12000000000000455,
          "durationTicks": 24,
          "midi": 50,
          "name": "D3",
          "ticks": 25104,
          "time": 125.52,
          "velocity": 0.6299212598425197
        },
        {
          "duration": 0.060000000000002274,
          "durationTicks": 12,
          "midi": 51,
          "name": "D#3",
          "ticks": 25152,
          "time": 125.75999999999999,
          "velocity": 0.6299212598425197
        },
        {
          "duration": 0.060000000000002274,
          "durationTicks": 12,
          "midi": 63,
          "name": "D#4",
          "ticks": 25176,
          "time": 125.88,
          "velocity": 0.6299212598425197
        },
        {
          "duration": 0.060000000000002274,
          "durationTicks": 12,
          "midi": 58,
          "name": "A#3",
          "ticks": 25200,
          "time": 126,
          "velocity": 0.6299212598425197
        },
        {
          "duration": 0.060000000000002274,
          "durationTicks": 12,
          "midi": 51,
          "name": "D#3",
          "ticks": 25224,
          "time": 126.11999999999999,
          "velocity": 0.6299212598425197
        },
        {
          "duration": 0.060000000000002274,
          "durationTicks": 12,
          "midi": 53,
          "name": "F3",
          "ticks": 25248,
          "time": 126.24,
          "velocity": 0.6299212598425197
        },
        {
          "duration": 0.060000000000002274,
          "durationTicks": 12,
          "midi": 60,
          "name": "C4",
          "ticks": 25272,
          "time": 126.36,
          "velocity": 0.6299212598425197
        },
        {
          "duration": 0.2400000000000091,
          "durationTicks": 48,
          "midi": 53,
          "name": "F3",
          "ticks": 25296,
          "time": 126.47999999999999,
          "velocity": 0.6299212598425197
        },
        {
          "duration": 0.060000000000002274,
          "durationTicks": 12,
          "midi": 51,
          "name": "D#3",
          "ticks": 25344,
          "time": 126.72,
          "velocity": 0.6299212598425197
        },
        {
          "duration": 0.060000000000002274,
          "durationTicks": 12,
          "midi": 63,
          "name": "D#4",
          "ticks": 25368,
          "time": 126.83999999999999,
          "velocity": 0.6299212598425197
        },
        {
          "duration": 0.060000000000002274,
          "durationTicks": 12,
          "midi": 58,
          "name": "A#3",
          "ticks": 25392,
          "time": 126.96,
          "velocity": 0.6299212598425197
        },
        {
          "duration": 0.060000000000002274,
          "durationTicks": 12,
          "midi": 51,
          "name": "D#3",
          "ticks": 25416,
          "time": 127.08,
          "velocity": 0.6299212598425197
        },
        {
          "duration": 0.060000000000002274,
          "durationTicks": 12,
          "midi": 63,
          "name": "D#4",
          "ticks": 25440,
          "time": 127.19999999999999,
          "velocity": 0.6299212598425197
        },
        {
          "duration": 0.060000000000002274,
          "durationTicks": 12,
          "midi": 58,
          "name": "A#3",
          "ticks": 25464,
          "time": 127.32,
          "velocity": 0.6299212598425197
        },
        {
          "duration": 0.12000000000000455,
          "durationTicks": 24,
          "midi": 50,
          "name": "D3",
          "ticks": 25488,
          "time": 127.44,
          "velocity": 0.6299212598425197
        },
        {
          "duration": 0.060000000000002274,
          "durationTicks": 12,
          "midi": 51,
          "name": "D#3",
          "ticks": 25536,
          "time": 127.67999999999999,
          "velocity": 0.6299212598425197
        },
        {
          "duration": 0.060000000000002274,
          "durationTicks": 12,
          "midi": 63,
          "name": "D#4",
          "ticks": 25560,
          "time": 127.8,
          "velocity": 0.6299212598425197
        },
        {
          "duration": 0.05999999999998806,
          "durationTicks": 12,
          "midi": 58,
          "name": "A#3",
          "ticks": 25584,
          "time": 127.92,
          "velocity": 0.6299212598425197
        },
        {
          "duration": 0.060000000000002274,
          "durationTicks": 12,
          "midi": 51,
          "name": "D#3",
          "ticks": 25608,
          "time": 128.04,
          "velocity": 0.6299212598425197
        },
        {
          "duration": 0.060000000000002274,
          "durationTicks": 12,
          "midi": 63,
          "name": "D#4",
          "ticks": 25632,
          "time": 128.16,
          "velocity": 0.6299212598425197
        },
        {
          "duration": 0.060000000000002274,
          "durationTicks": 12,
          "midi": 58,
          "name": "A#3",
          "ticks": 25656,
          "time": 128.28,
          "velocity": 0.6299212598425197
        },
        {
          "duration": 0.11999999999997613,
          "durationTicks": 24,
          "midi": 50,
          "name": "D3",
          "ticks": 25680,
          "time": 128.4,
          "velocity": 0.6299212598425197
        },
        {
          "duration": 0.060000000000002274,
          "durationTicks": 12,
          "midi": 51,
          "name": "D#3",
          "ticks": 25728,
          "time": 128.64,
          "velocity": 0.6299212598425197
        },
        {
          "duration": 0.060000000000002274,
          "durationTicks": 12,
          "midi": 63,
          "name": "D#4",
          "ticks": 25752,
          "time": 128.76,
          "velocity": 0.6299212598425197
        },
        {
          "duration": 0.060000000000002274,
          "durationTicks": 12,
          "midi": 58,
          "name": "A#3",
          "ticks": 25776,
          "time": 128.88,
          "velocity": 0.6299212598425197
        },
        {
          "duration": 0.060000000000002274,
          "durationTicks": 12,
          "midi": 51,
          "name": "D#3",
          "ticks": 25800,
          "time": 129,
          "velocity": 0.6299212598425197
        },
        {
          "duration": 0.060000000000002274,
          "durationTicks": 12,
          "midi": 63,
          "name": "D#4",
          "ticks": 25824,
          "time": 129.12,
          "velocity": 0.6299212598425197
        },
        {
          "duration": 0.05999999999997385,
          "durationTicks": 12,
          "midi": 58,
          "name": "A#3",
          "ticks": 25848,
          "time": 129.24,
          "velocity": 0.6299212598425197
        },
        {
          "duration": 0.12000000000000455,
          "durationTicks": 24,
          "midi": 50,
          "name": "D3",
          "ticks": 25872,
          "time": 129.35999999999999,
          "velocity": 0.6299212598425197
        },
        {
          "duration": 0.060000000000002274,
          "durationTicks": 12,
          "midi": 51,
          "name": "D#3",
          "ticks": 25920,
          "time": 129.6,
          "velocity": 0.6299212598425197
        },
        {
          "duration": 0.060000000000002274,
          "durationTicks": 12,
          "midi": 63,
          "name": "D#4",
          "ticks": 25944,
          "time": 129.72,
          "velocity": 0.6299212598425197
        },
        {
          "duration": 0.060000000000002274,
          "durationTicks": 12,
          "midi": 58,
          "name": "A#3",
          "ticks": 25968,
          "time": 129.84,
          "velocity": 0.6299212598425197
        },
        {
          "duration": 0.05999999999997385,
          "durationTicks": 12,
          "midi": 51,
          "name": "D#3",
          "ticks": 25992,
          "time": 129.96,
          "velocity": 0.6299212598425197
        },
        {
          "duration": 0.060000000000002274,
          "durationTicks": 12,
          "midi": 53,
          "name": "F3",
          "ticks": 26016,
          "time": 130.07999999999998,
          "velocity": 0.6299212598425197
        },
        {
          "duration": 0.060000000000002274,
          "durationTicks": 12,
          "midi": 60,
          "name": "C4",
          "ticks": 26040,
          "time": 130.2,
          "velocity": 0.6299212598425197
        },
        {
          "duration": 0.2400000000000091,
          "durationTicks": 48,
          "midi": 53,
          "name": "F3",
          "ticks": 26064,
          "time": 130.32,
          "velocity": 0.6299212598425197
        }
      ]
    },
    {
      "channel": 0,
      "controlChanges": {
        "6": [
          {
            "number": 6,
            "ticks": 0,
            "time": 0,
            "value": 0.09448818897637795
          }
        ],
        "7": [
          {
            "number": 7,
            "ticks": 0,
            "time": 0,
            "value": 0.7874015748031497
          },
          {
            "number": 7,
            "ticks": 0,
            "time": 0,
            "value": 0.7874015748031497
          }
        ],
        "10": [
          {
            "number": 10,
            "ticks": 0,
            "time": 0,
            "value": 0.5039370078740157
          },
          {
            "number": 10,
            "ticks": 0,
            "time": 0,
            "value": 0.5039370078740157
          }
        ],
        "100": [
          {
            "number": 100,
            "ticks": 0,
            "time": 0,
            "value": 0
          }
        ],
        "101": [
          {
            "number": 101,
            "ticks": 0,
            "time": 0,
            "value": 0
          }
        ]
      },
      "pitchBends": [
        {
          "ticks": 0,
          "time": 0,
          "value": 0
        },
        {
          "ticks": 0,
          "time": 0,
          "value": 0
        }
      ],
      "instrument": {
        "family": "piano",
        "number": 0,
        "name": "acoustic grand piano"
      },
      "name": "Bass",
      "notes": [],
      "endOfTrackTicks": 32340
    },
    {
      "channel": 4,
      "controlChanges": {
        "6": [
          {
            "number": 6,
            "ticks": 0,
            "time": 0,
            "value": 0.09448818897637795
          },
          {
            "number": 6,
            "ticks": 32256,
            "time": 161.28,
            "value": 0.09448818897637795
          },
          {
            "number": 6,
            "ticks": 32340,
            "time": 161.7,
            "value": 0.09448818897637795
          },
          {
            "number": 6,
            "ticks": 32340,
            "time": 161.7,
            "value": 0.09448818897637795
          }
        ],
        "7": [
          {
            "number": 7,
            "ticks": 0,
            "time": 0,
            "value": 0.7874015748031497
          },
          {
            "number": 7,
            "ticks": 32256,
            "time": 161.28,
            "value": 0.7874015748031497
          },
          {
            "number": 7,
            "ticks": 32340,
            "time": 161.7,
            "value": 0.7874015748031497
          },
          {
            "number": 7,
            "ticks": 32340,
            "time": 161.7,
            "value": 0.7874015748031497
          }
        ],
        "10": [
          {
            "number": 10,
            "ticks": 0,
            "time": 0,
            "value": 0.5039370078740157
          },
          {
            "number": 10,
            "ticks": 32256,
            "time": 161.28,
            "value": 0.5039370078740157
          },
          {
            "number": 10,
            "ticks": 32340,
            "time": 161.7,
            "value": 0.5039370078740157
          },
          {
            "number": 10,
            "ticks": 32340,
            "time": 161.7,
            "value": 0.5039370078740157
          }
        ],
        "100": [
          {
            "number": 100,
            "ticks": 0,
            "time": 0,
            "value": 0
          },
          {
            "number": 100,
            "ticks": 32256,
            "time": 161.28,
            "value": 0
          },
          {
            "number": 100,
            "ticks": 32340,
            "time": 161.7,
            "value": 0
          },
          {
            "number": 100,
            "ticks": 32340,
            "time": 161.7,
            "value": 0
          }
        ],
        "101": [
          {
            "number": 101,
            "ticks": 0,
            "time": 0,
            "value": 0
          },
          {
            "number": 101,
            "ticks": 32256,
            "time": 161.28,
            "value": 0
          },
          {
            "number": 101,
            "ticks": 32340,
            "time": 161.7,
            "value": 0
          },
          {
            "number": 101,
            "ticks": 32340,
            "time": 161.7,
            "value": 0
          }
        ]
      },
      "pitchBends": [
        {
          "ticks": 0,
          "time": 0,
          "value": 0
        },
        {
          "ticks": 32256,
          "time": 161.28,
          "value": 0
        },
        {
          "ticks": 32340,
          "time": 161.7,
          "value": 0
        },
        {
          "ticks": 32340,
          "time": 161.7,
          "value": 0
        }
      ],
      "instrument": {
        "family": "bass",
        "number": 37,
        "name": "slap bass 2"
      },
      "name": "",
      "notes": [
        {
          "duration": 0.16000000000000192,
          "durationTicks": 32,
          "midi": 31,
          "name": "G1",
          "ticks": 3072,
          "time": 15.36,
          "velocity": 0.8818897637795275
        },
        {
          "duration": 0.16000000000000192,
          "durationTicks": 32,
          "midi": 31,
          "name": "G1",
          "ticks": 3144,
          "time": 15.719999999999999,
          "velocity": 0.8818897637795275
        },
        {
          "duration": 0.1600000000000037,
          "durationTicks": 32,
          "midi": 29,
          "name": "F1",
          "ticks": 3216,
          "time": 16.08,
          "velocity": 0.8818897637795275
        },
        {
          "duration": 0.16000000000000014,
          "durationTicks": 32,
          "midi": 31,
          "name": "G1",
          "ticks": 3264,
          "time": 16.32,
          "velocity": 0.8818897637795275
        },
        {
          "duration": 0.16000000000000014,
          "durationTicks": 32,
          "midi": 31,
          "name": "G1",
          "ticks": 3312,
          "time": 16.56,
          "velocity": 0.8818897637795275
        },
        {
          "duration": 0.16000000000000014,
          "durationTicks": 32,
          "midi": 26,
          "name": "D1",
          "ticks": 3360,
          "time": 16.8,
          "velocity": 0.8818897637795275
        },
        {
          "duration": 0.16000000000000014,
          "durationTicks": 32,
          "midi": 29,
          "name": "F1",
          "ticks": 3408,
          "time": 17.04,
          "velocity": 0.8818897637795275
        },
        {
          "duration": 0.16000000000000014,
          "durationTicks": 32,
          "midi": 31,
          "name": "G1",
          "ticks": 3456,
          "time": 17.28,
          "velocity": 0.8818897637795275
        },
        {
          "duration": 0.16000000000000014,
          "durationTicks": 32,
          "midi": 31,
          "name": "G1",
          "ticks": 3528,
          "time": 17.64,
          "velocity": 0.8818897637795275
        },
        {
          "duration": 0.16000000000000014,
          "durationTicks": 32,
          "midi": 29,
          "name": "F1",
          "ticks": 3600,
          "time": 18,
          "velocity": 0.8818897637795275
        },
        {
          "duration": 0.1600000000000037,
          "durationTicks": 32,
          "midi": 31,
          "name": "G1",
          "ticks": 3648,
          "time": 18.24,
          "velocity": 0.8818897637795275
        },
        {
          "duration": 0.16000000000000014,
          "durationTicks": 32,
          "midi": 31,
          "name": "G1",
          "ticks": 3696,
          "time": 18.48,
          "velocity": 0.8818897637795275
        },
        {
          "duration": 0.16000000000000014,
          "durationTicks": 32,
          "midi": 31,
          "name": "G1",
          "ticks": 3744,
          "time": 18.72,
          "velocity": 0.8818897637795275
        },
        {
          "duration": 0.16000000000000014,
          "durationTicks": 32,
          "midi": 29,
          "name": "F1",
          "ticks": 3792,
          "time": 18.96,
          "velocity": 0.8818897637795275
        },
        {
          "duration": 0.16000000000000014,
          "durationTicks": 32,
          "midi": 31,
          "name": "G1",
          "ticks": 3840,
          "time": 19.2,
          "velocity": 0.8818897637795275
        },
        {
          "duration": 0.16000000000000014,
          "durationTicks": 32,
          "midi": 31,
          "name": "G1",
          "ticks": 3912,
          "time": 19.56,
          "velocity": 0.8818897637795275
        },
        {
          "duration": 0.1600000000000037,
          "durationTicks": 32,
          "midi": 29,
          "name": "F1",
          "ticks": 3984,
          "time": 19.919999999999998,
          "velocity": 0.8818897637795275
        },
        {
          "duration": 0.16000000000000014,
          "durationTicks": 32,
          "midi": 31,
          "name": "G1",
          "ticks": 4032,
          "time": 20.16,
          "velocity": 0.8818897637795275
        },
        {
          "duration": 0.16000000000000014,
          "durationTicks": 32,
          "midi": 31,
          "name": "G1",
          "ticks": 4080,
          "time": 20.4,
          "velocity": 0.8818897637795275
        },
        {
          "duration": 0.16000000000000014,
          "durationTicks": 32,
          "midi": 26,
          "name": "D1",
          "ticks": 4128,
          "time": 20.64,
          "velocity": 0.8818897637795275
        },
        {
          "duration": 0.16000000000000014,
          "durationTicks": 32,
          "midi": 29,
          "name": "F1",
          "ticks": 4176,
          "time": 20.88,
          "velocity": 0.8818897637795275
        },
        {
          "duration": 0.1600000000000037,
          "durationTicks": 32,
          "midi": 31,
          "name": "G1",
          "ticks": 4224,
          "time": 21.119999999999997,
          "velocity": 0.8818897637795275
        },
        {
          "duration": 0.16000000000000014,
          "durationTicks": 32,
          "midi": 31,
          "name": "G1",
          "ticks": 4296,
          "time": 21.48,
          "velocity": 0.8818897637795275
        },
        {
          "duration": 0.16000000000000014,
          "durationTicks": 32,
          "midi": 29,
          "name": "F1",
          "ticks": 4368,
          "time": 21.84,
          "velocity": 0.8818897637795275
        },
        {
          "duration": 0.1600000000000037,
          "durationTicks": 32,
          "midi": 31,
          "name": "G1",
          "ticks": 4416,
          "time": 22.08,
          "velocity": 0.8818897637795275
        },
        {
          "duration": 0.16000000000000014,
          "durationTicks": 32,
          "midi": 31,
          "name": "G1",
          "ticks": 4464,
          "time": 22.32,
          "velocity": 0.8818897637795275
        },
        {
          "duration": 0.16000000000000014,
          "durationTicks": 32,
          "midi": 31,
          "name": "G1",
          "ticks": 4512,
          "time": 22.56,
          "velocity": 0.8818897637795275
        },
        {
          "duration": 0.16000000000000014,
          "durationTicks": 32,
          "midi": 29,
          "name": "F1",
          "ticks": 4560,
          "time": 22.8,
          "velocity": 0.8818897637795275
        },
        {
          "duration": 0.16000000000000014,
          "durationTicks": 32,
          "midi": 27,
          "name": "D#1",
          "ticks": 4608,
          "time": 23.04,
          "velocity": 0.8818897637795275
        },
        {
          "duration": 0.16000000000000014,
          "durationTicks": 32,
          "midi": 27,
          "name": "D#1",
          "ticks": 4680,
          "time": 23.4,
          "velocity": 0.8818897637795275
        },
        {
          "duration": 0.1600000000000037,
          "durationTicks": 32,
          "midi": 26,
          "name": "D1",
          "ticks": 4752,
          "time": 23.759999999999998,
          "velocity": 0.8818897637795275
        },
        {
          "duration": 0.16000000000000014,
          "durationTicks": 32,
          "midi": 27,
          "name": "D#1",
          "ticks": 4800,
          "time": 24,
          "velocity": 0.8818897637795275
        },
        {
          "duration": 0.16000000000000014,
          "durationTicks": 32,
          "midi": 27,
          "name": "D#1",
          "ticks": 4848,
          "time": 24.24,
          "velocity": 0.8818897637795275
        },
        {
          "duration": 0.16000000000000014,
          "durationTicks": 32,
          "midi": 26,
          "name": "D1",
          "ticks": 4896,
          "time": 24.48,
          "velocity": 0.8818897637795275
        },
        {
          "duration": 0.16000000000000014,
          "durationTicks": 32,
          "midi": 29,
          "name": "F1",
          "ticks": 4944,
          "time": 24.72,
          "velocity": 0.8818897637795275
        },
        {
          "duration": 0.16000000000000014,
          "durationTicks": 32,
          "midi": 27,
          "name": "D#1",
          "ticks": 4992,
          "time": 24.96,
          "velocity": 0.8818897637795275
        },
        {
          "duration": 0.16000000000000014,
          "durationTicks": 32,
          "midi": 27,
          "name": "D#1",
          "ticks": 5064,
          "time": 25.32,
          "velocity": 0.8818897637795275
        },
        {
          "duration": 0.16000000000000014,
          "durationTicks": 32,
          "midi": 26,
          "name": "D1",
          "ticks": 5136,
          "time": 25.68,
          "velocity": 0.8818897637795275
        },
        {
          "duration": 0.1600000000000037,
          "durationTicks": 32,
          "midi": 27,
          "name": "D#1",
          "ticks": 5184,
          "time": 25.919999999999998,
          "velocity": 0.8818897637795275
        },
        {
          "duration": 0.16000000000000014,
          "durationTicks": 32,
          "midi": 27,
          "name": "D#1",
          "ticks": 5232,
          "time": 26.16,
          "velocity": 0.8818897637795275
        },
        {
          "duration": 0.16000000000000014,
          "durationTicks": 32,
          "midi": 26,
          "name": "D1",
          "ticks": 5280,
          "time": 26.4,
          "velocity": 0.8818897637795275
        },
        {
          "duration": 0.16000000000000014,
          "durationTicks": 32,
          "midi": 29,
          "name": "F1",
          "ticks": 5328,
          "time": 26.64,
          "velocity": 0.8818897637795275
        },
        {
          "duration": 0.16000000000000014,
          "durationTicks": 32,
          "midi": 27,
          "name": "D#1",
          "ticks": 5376,
          "time": 26.88,
          "velocity": 0.8818897637795275
        },
        {
          "duration": 0.16000000000000014,
          "durationTicks": 32,
          "midi": 27,
          "name": "D#1",
          "ticks": 5448,
          "time": 27.24,
          "velocity": 0.8818897637795275
        },
        {
          "duration": 0.1600000000000037,
          "durationTicks": 32,
          "midi": 26,
          "name": "D1",
          "ticks": 5520,
          "time": 27.599999999999998,
          "velocity": 0.8818897637795275
        },
        {
          "duration": 0.16000000000000014,
          "durationTicks": 32,
          "midi": 27,
          "name": "D#1",
          "ticks": 5568,
          "time": 27.84,
          "velocity": 0.8818897637795275
        },
        {
          "duration": 0.16000000000000014,
          "durationTicks": 32,
          "midi": 27,
          "name": "D#1",
          "ticks": 5616,
          "time": 28.08,
          "velocity": 0.8818897637795275
        },
        {
          "duration": 0.16000000000000014,
          "durationTicks": 32,
          "midi": 26,
          "name": "D1",
          "ticks": 5664,
          "time": 28.32,
          "velocity": 0.8818897637795275
        },
        {
          "duration": 0.16000000000000014,
          "durationTicks": 32,
          "midi": 29,
          "name": "F1",
          "ticks": 5712,
          "time": 28.56,
          "velocity": 0.8818897637795275
        },
        {
          "duration": 0.1600000000000037,
          "durationTicks": 32,
          "midi": 27,
          "name": "D#1",
          "ticks": 5760,
          "time": 28.799999999999997,
          "velocity": 0.8818897637795275
        },
        {
          "duration": 0.16000000000000014,
          "durationTicks": 32,
          "midi": 27,
          "name": "D#1",
          "ticks": 5832,
          "time": 29.16,
          "velocity": 0.8818897637795275
        },
        {
          "duration": 0.16000000000000014,
          "durationTicks": 32,
          "midi": 26,
          "name": "D1",
          "ticks": 5904,
          "time": 29.52,
          "velocity": 0.8818897637795275
        },
        {
          "duration": 0.1600000000000037,
          "durationTicks": 32,
          "midi": 27,
          "name": "D#1",
          "ticks": 5952,
          "time": 29.759999999999998,
          "velocity": 0.8818897637795275
        },
        {
          "duration": 0.16000000000000014,
          "durationTicks": 32,
          "midi": 27,
          "name": "D#1",
          "ticks": 6000,
          "time": 30,
          "velocity": 0.8818897637795275
        },
        {
          "duration": 0.16000000000000014,
          "durationTicks": 32,
          "midi": 26,
          "name": "D1",
          "ticks": 6048,
          "time": 30.24,
          "velocity": 0.8818897637795275
        },
        {
          "duration": 0.16000000000000014,
          "durationTicks": 32,
          "midi": 29,
          "name": "F1",
          "ticks": 6096,
          "time": 30.48,
          "velocity": 0.8818897637795275
        },
        {
          "duration": 0.1599999999999966,
          "durationTicks": 32,
          "midi": 31,
          "name": "G1",
          "ticks": 6144,
          "time": 30.72,
          "velocity": 0.8818897637795275
        },
        {
          "duration": 0.1599999999999966,
          "durationTicks": 32,
          "midi": 31,
          "name": "G1",
          "ticks": 6216,
          "time": 31.08,
          "velocity": 0.8818897637795275
        },
        {
          "duration": 0.16000000000000014,
          "durationTicks": 32,
          "midi": 29,
          "name": "F1",
          "ticks": 6288,
          "time": 31.439999999999998,
          "velocity": 0.8818897637795275
        },
        {
          "duration": 0.1599999999999966,
          "durationTicks": 32,
          "midi": 31,
          "name": "G1",
          "ticks": 6336,
          "time": 31.68,
          "velocity": 0.8818897637795275
        },
        {
          "duration": 0.16000000000000014,
          "durationTicks": 32,
          "midi": 31,
          "name": "G1",
          "ticks": 6384,
          "time": 31.919999999999998,
          "velocity": 0.8818897637795275
        },
        {
          "duration": 0.1599999999999966,
          "durationTicks": 32,
          "midi": 26,
          "name": "D1",
          "ticks": 6432,
          "time": 32.16,
          "velocity": 0.8818897637795275
        },
        {
          "duration": 0.1599999999999966,
          "durationTicks": 32,
          "midi": 29,
          "name": "F1",
          "ticks": 6480,
          "time": 32.4,
          "velocity": 0.8818897637795275
        },
        {
          "duration": 0.1599999999999966,
          "durationTicks": 32,
          "midi": 31,
          "name": "G1",
          "ticks": 6528,
          "time": 32.64,
          "velocity": 0.8818897637795275
        },
        {
          "duration": 0.1599999999999966,
          "durationTicks": 32,
          "midi": 31,
          "name": "G1",
          "ticks": 6600,
          "time": 33,
          "velocity": 0.8818897637795275
        },
        {
          "duration": 0.1599999999999966,
          "durationTicks": 32,
          "midi": 29,
          "name": "F1",
          "ticks": 6672,
          "time": 33.36,
          "velocity": 0.8818897637795275
        },
        {
          "duration": 0.1599999999999966,
          "durationTicks": 32,
          "midi": 31,
          "name": "G1",
          "ticks": 6720,
          "time": 33.6,
          "velocity": 0.8818897637795275
        },
        {
          "duration": 0.1600000000000037,
          "durationTicks": 32,
          "midi": 31,
          "name": "G1",
          "ticks": 6768,
          "time": 33.839999999999996,
          "velocity": 0.8818897637795275
        },
        {
          "duration": 0.1599999999999966,
          "durationTicks": 32,
          "midi": 31,
          "name": "G1",
          "ticks": 6816,
          "time": 34.08,
          "velocity": 0.8818897637795275
        },
        {
          "duration": 0.1599999999999966,
          "durationTicks": 32,
          "midi": 29,
          "name": "F1",
          "ticks": 6864,
          "time": 34.32,
          "velocity": 0.8818897637795275
        },
        {
          "duration": 0.1599999999999966,
          "durationTicks": 32,
          "midi": 31,
          "name": "G1",
          "ticks": 6912,
          "time": 34.56,
          "velocity": 0.8818897637795275
        },
        {
          "duration": 0.1599999999999966,
          "durationTicks": 32,
          "midi": 31,
          "name": "G1",
          "ticks": 6984,
          "time": 34.92,
          "velocity": 0.8818897637795275
        },
        {
          "duration": 0.1599999999999966,
          "durationTicks": 32,
          "midi": 29,
          "name": "F1",
          "ticks": 7056,
          "time": 35.28,
          "velocity": 0.8818897637795275
        },
        {
          "duration": 0.1600000000000037,
          "durationTicks": 32,
          "midi": 31,
          "name": "G1",
          "ticks": 7104,
          "time": 35.519999999999996,
          "velocity": 0.8818897637795275
        },
        {
          "duration": 0.1599999999999966,
          "durationTicks": 32,
          "midi": 31,
          "name": "G1",
          "ticks": 7152,
          "time": 35.76,
          "velocity": 0.8818897637795275
        },
        {
          "duration": 0.1599999999999966,
          "durationTicks": 32,
          "midi": 26,
          "name": "D1",
          "ticks": 7200,
          "time": 36,
          "velocity": 0.8818897637795275
        },
        {
          "duration": 0.1599999999999966,
          "durationTicks": 32,
          "midi": 29,
          "name": "F1",
          "ticks": 7248,
          "time": 36.24,
          "velocity": 0.8818897637795275
        },
        {
          "duration": 0.1599999999999966,
          "durationTicks": 32,
          "midi": 31,
          "name": "G1",
          "ticks": 7296,
          "time": 36.48,
          "velocity": 0.8818897637795275
        },
        {
          "duration": 0.1599999999999966,
          "durationTicks": 32,
          "midi": 31,
          "name": "G1",
          "ticks": 7368,
          "time": 36.839999999999996,
          "velocity": 0.8818897637795275
        },
        {
          "duration": 0.1600000000000037,
          "durationTicks": 32,
          "midi": 29,
          "name": "F1",
          "ticks": 7440,
          "time": 37.199999999999996,
          "velocity": 0.8818897637795275
        },
        {
          "duration": 0.1599999999999966,
          "durationTicks": 32,
          "midi": 31,
          "name": "G1",
          "ticks": 7488,
          "time": 37.44,
          "velocity": 0.8818897637795275
        },
        {
          "duration": 0.1599999999999966,
          "durationTicks": 32,
          "midi": 31,
          "name": "G1",
          "ticks": 7536,
          "time": 37.68,
          "velocity": 0.8818897637795275
        },
        {
          "duration": 0.1599999999999966,
          "durationTicks": 32,
          "midi": 31,
          "name": "G1",
          "ticks": 7584,
          "time": 37.92,
          "velocity": 0.8818897637795275
        },
        {
          "duration": 0.1599999999999966,
          "durationTicks": 32,
          "midi": 29,
          "name": "F1",
          "ticks": 7632,
          "time": 38.16,
          "velocity": 0.8818897637795275
        },
        {
          "duration": 0.1599999999999966,
          "durationTicks": 32,
          "midi": 27,
          "name": "D#1",
          "ticks": 7680,
          "time": 38.4,
          "velocity": 0.8818897637795275
        },
        {
          "duration": 0.1599999999999966,
          "durationTicks": 32,
          "midi": 27,
          "name": "D#1",
          "ticks": 7752,
          "time": 38.76,
          "velocity": 0.8818897637795275
        },
        {
          "duration": 0.1599999999999966,
          "durationTicks": 32,
          "midi": 26,
          "name": "D1",
          "ticks": 7824,
          "time": 39.12,
          "velocity": 0.8818897637795275
        },
        {
          "duration": 0.1599999999999966,
          "durationTicks": 32,
          "midi": 27,
          "name": "D#1",
          "ticks": 7872,
          "time": 39.36,
          "velocity": 0.8818897637795275
        },
        {
          "duration": 0.1599999999999966,
          "durationTicks": 32,
          "midi": 27,
          "name": "D#1",
          "ticks": 7920,
          "time": 39.6,
          "velocity": 0.8818897637795275
        },
        {
          "duration": 0.1599999999999966,
          "durationTicks": 32,
          "midi": 26,
          "name": "D1",
          "ticks": 7968,
          "time": 39.839999999999996,
          "velocity": 0.8818897637795275
        },
        {
          "duration": 0.1599999999999966,
          "durationTicks": 32,
          "midi": 29,
          "name": "F1",
          "ticks": 8016,
          "time": 40.08,
          "velocity": 0.8818897637795275
        },
        {
          "duration": 0.1599999999999966,
          "durationTicks": 32,
          "midi": 27,
          "name": "D#1",
          "ticks": 8064,
          "time": 40.32,
          "velocity": 0.8818897637795275
        },
        {
          "duration": 0.1599999999999966,
          "durationTicks": 32,
          "midi": 27,
          "name": "D#1",
          "ticks": 8136,
          "time": 40.68,
          "velocity": 0.8818897637795275
        },
        {
          "duration": 0.1599999999999966,
          "durationTicks": 32,
          "midi": 26,
          "name": "D1",
          "ticks": 8208,
          "time": 41.04,
          "velocity": 0.8818897637795275
        },
        {
          "duration": 0.1599999999999966,
          "durationTicks": 32,
          "midi": 27,
          "name": "D#1",
          "ticks": 8256,
          "time": 41.28,
          "velocity": 0.8818897637795275
        },
        {
          "duration": 0.1600000000000037,
          "durationTicks": 32,
          "midi": 27,
          "name": "D#1",
          "ticks": 8304,
          "time": 41.519999999999996,
          "velocity": 0.8818897637795275
        },
        {
          "duration": 0.1599999999999966,
          "durationTicks": 32,
          "midi": 26,
          "name": "D1",
          "ticks": 8352,
          "time": 41.76,
          "velocity": 0.8818897637795275
        },
        {
          "duration": 0.1599999999999966,
          "durationTicks": 32,
          "midi": 29,
          "name": "F1",
          "ticks": 8400,
          "time": 42,
          "velocity": 0.8818897637795275
        },
        {
          "duration": 0.1600000000000037,
          "durationTicks": 32,
          "midi": 27,
          "name": "D#1",
          "ticks": 8448,
          "time": 42.239999999999995,
          "velocity": 0.8818897637795275
        },
        {
          "duration": 0.1599999999999966,
          "durationTicks": 32,
          "midi": 27,
          "name": "D#1",
          "ticks": 8520,
          "time": 42.6,
          "velocity": 0.8818897637795275
        },
        {
          "duration": 0.1599999999999966,
          "durationTicks": 32,
          "midi": 26,
          "name": "D1",
          "ticks": 8592,
          "time": 42.96,
          "velocity": 0.8818897637795275
        },
        {
          "duration": 0.1600000000000037,
          "durationTicks": 32,
          "midi": 27,
          "name": "D#1",
          "ticks": 8640,
          "time": 43.199999999999996,
          "velocity": 0.8818897637795275
        },
        {
          "duration": 0.1599999999999966,
          "durationTicks": 32,
          "midi": 27,
          "name": "D#1",
          "ticks": 8688,
          "time": 43.44,
          "velocity": 0.8818897637795275
        },
        {
          "duration": 0.1599999999999966,
          "durationTicks": 32,
          "midi": 26,
          "name": "D1",
          "ticks": 8736,
          "time": 43.68,
          "velocity": 0.8818897637795275
        },
        {
          "duration": 0.1599999999999966,
          "durationTicks": 32,
          "midi": 29,
          "name": "F1",
          "ticks": 8784,
          "time": 43.92,
          "velocity": 0.8818897637795275
        },
        {
          "duration": 0.1599999999999966,
          "durationTicks": 32,
          "midi": 27,
          "name": "D#1",
          "ticks": 8832,
          "time": 44.16,
          "velocity": 0.8818897637795275
        },
        {
          "duration": 0.1599999999999966,
          "durationTicks": 32,
          "midi": 27,
          "name": "D#1",
          "ticks": 8904,
          "time": 44.519999999999996,
          "velocity": 0.8818897637795275
        },
        {
          "duration": 0.1600000000000037,
          "durationTicks": 32,
          "midi": 26,
          "name": "D1",
          "ticks": 8976,
          "time": 44.879999999999995,
          "velocity": 0.8818897637795275
        },
        {
          "duration": 0.1599999999999966,
          "durationTicks": 32,
          "midi": 27,
          "name": "D#1",
          "ticks": 9024,
          "time": 45.12,
          "velocity": 0.8818897637795275
        },
        {
          "duration": 0.1599999999999966,
          "durationTicks": 32,
          "midi": 27,
          "name": "D#1",
          "ticks": 9072,
          "time": 45.36,
          "velocity": 0.8818897637795275
        },
        {
          "duration": 0.1599999999999966,
          "durationTicks": 32,
          "midi": 26,
          "name": "D1",
          "ticks": 9120,
          "time": 45.6,
          "velocity": 0.8818897637795275
        },
        {
          "duration": 0.1599999999999966,
          "durationTicks": 32,
          "midi": 29,
          "name": "F1",
          "ticks": 9168,
          "time": 45.839999999999996,
          "velocity": 0.8818897637795275
        },
        {
          "duration": 0.1599999999999966,
          "durationTicks": 32,
          "midi": 24,
          "name": "C1",
          "ticks": 9216,
          "time": 46.08,
          "velocity": 0.8818897637795275
        },
        {
          "duration": 0.1599999999999966,
          "durationTicks": 32,
          "midi": 24,
          "name": "C1",
          "ticks": 9288,
          "time": 46.44,
          "velocity": 0.8818897637795275
        },
        {
          "duration": 0.1599999999999966,
          "durationTicks": 32,
          "midi": 36,
          "name": "C2",
          "ticks": 9360,
          "time": 46.8,
          "velocity": 0.8818897637795275
        },
        {
          "duration": 0.1599999999999966,
          "durationTicks": 32,
          "midi": 24,
          "name": "C1",
          "ticks": 9408,
          "time": 47.04,
          "velocity": 0.8818897637795275
        },
        {
          "duration": 0.1599999999999966,
          "durationTicks": 32,
          "midi": 24,
          "name": "C1",
          "ticks": 9456,
          "time": 47.28,
          "velocity": 0.8818897637795275
        },
        {
          "duration": 0.1599999999999966,
          "durationTicks": 32,
          "midi": 24,
          "name": "C1",
          "ticks": 9504,
          "time": 47.519999999999996,
          "velocity": 0.8818897637795275
        },
        {
          "duration": 0.1599999999999966,
          "durationTicks": 32,
          "midi": 36,
          "name": "C2",
          "ticks": 9552,
          "time": 47.76,
          "velocity": 0.8818897637795275
        },
        {
          "duration": 0.1599999999999966,
          "durationTicks": 32,
          "midi": 26,
          "name": "D1",
          "ticks": 9600,
          "time": 48,
          "velocity": 0.8818897637795275
        },
        {
          "duration": 0.1599999999999966,
          "durationTicks": 32,
          "midi": 26,
          "name": "D1",
          "ticks": 9672,
          "time": 48.36,
          "velocity": 0.8818897637795275
        },
        {
          "duration": 0.1599999999999966,
          "durationTicks": 32,
          "midi": 38,
          "name": "D2",
          "ticks": 9744,
          "time": 48.72,
          "velocity": 0.8818897637795275
        },
        {
          "duration": 0.1599999999999966,
          "durationTicks": 32,
          "midi": 26,
          "name": "D1",
          "ticks": 9792,
          "time": 48.96,
          "velocity": 0.8818897637795275
        },
        {
          "duration": 0.1600000000000037,
          "durationTicks": 32,
          "midi": 26,
          "name": "D1",
          "ticks": 9840,
          "time": 49.199999999999996,
          "velocity": 0.8818897637795275
        },
        {
          "duration": 0.1599999999999966,
          "durationTicks": 32,
          "midi": 26,
          "name": "D1",
          "ticks": 9888,
          "time": 49.44,
          "velocity": 0.8818897637795275
        },
        {
          "duration": 0.1599999999999966,
          "durationTicks": 32,
          "midi": 38,
          "name": "D2",
          "ticks": 9936,
          "time": 49.68,
          "velocity": 0.8818897637795275
        },
        {
          "duration": 0.1599999999999966,
          "durationTicks": 32,
          "midi": 27,
          "name": "D#1",
          "ticks": 9984,
          "time": 49.92,
          "velocity": 0.8818897637795275
        },
        {
          "duration": 0.1599999999999966,
          "durationTicks": 32,
          "midi": 27,
          "name": "D#1",
          "ticks": 10056,
          "time": 50.28,
          "velocity": 0.8818897637795275
        },
        {
          "duration": 0.1599999999999966,
          "durationTicks": 32,
          "midi": 39,
          "name": "D#2",
          "ticks": 10128,
          "time": 50.64,
          "velocity": 0.8818897637795275
        },
        {
          "duration": 0.1600000000000037,
          "durationTicks": 32,
          "midi": 29,
          "name": "F1",
          "ticks": 10176,
          "time": 50.879999999999995,
          "velocity": 0.8818897637795275
        },
        {
          "duration": 0.1599999999999966,
          "durationTicks": 32,
          "midi": 29,
          "name": "F1",
          "ticks": 10224,
          "time": 51.12,
          "velocity": 0.8818897637795275
        },
        {
          "duration": 0.1599999999999966,
          "durationTicks": 32,
          "midi": 30,
          "name": "F#1",
          "ticks": 10272,
          "time": 51.36,
          "velocity": 0.8818897637795275
        },
        {
          "duration": 0.1599999999999966,
          "durationTicks": 32,
          "midi": 42,
          "name": "F#2",
          "ticks": 10320,
          "time": 51.6,
          "velocity": 0.8818897637795275
        },
        {
          "duration": 0.1599999999999966,
          "durationTicks": 32,
          "midi": 31,
          "name": "G1",
          "ticks": 10368,
          "time": 51.839999999999996,
          "velocity": 0.8818897637795275
        },
        {
          "duration": 0.1599999999999966,
          "durationTicks": 32,
          "midi": 31,
          "name": "G1",
          "ticks": 10440,
          "time": 52.199999999999996,
          "velocity": 0.8818897637795275
        },
        {
          "duration": 0.1600000000000037,
          "durationTicks": 32,
          "midi": 43,
          "name": "G2",
          "ticks": 10512,
          "time": 52.559999999999995,
          "velocity": 0.8818897637795275
        },
        {
          "duration": 0.1599999999999966,
          "durationTicks": 32,
          "midi": 29,
          "name": "F1",
          "ticks": 10560,
          "time": 52.8,
          "velocity": 0.8818897637795275
        },
        {
          "duration": 0.1599999999999966,
          "durationTicks": 32,
          "midi": 29,
          "name": "F1",
          "ticks": 10608,
          "time": 53.04,
          "velocity": 0.8818897637795275
        },
        {
          "duration": 0.1599999999999966,
          "durationTicks": 32,
          "midi": 29,
          "name": "F1",
          "ticks": 10656,
          "time": 53.28,
          "velocity": 0.8818897637795275
        },
        {
          "duration": 0.1599999999999966,
          "durationTicks": 32,
          "midi": 41,
          "name": "F2",
          "ticks": 10704,
          "time": 53.519999999999996,
          "velocity": 0.8818897637795275
        },
        {
          "duration": 0.1599999999999966,
          "durationTicks": 32,
          "midi": 24,
          "name": "C1",
          "ticks": 10752,
          "time": 53.76,
          "velocity": 0.8818897637795275
        },
        {
          "duration": 0.1599999999999966,
          "durationTicks": 32,
          "midi": 24,
          "name": "C1",
          "ticks": 10824,
          "time": 54.12,
          "velocity": 0.8818897637795275
        },
        {
          "duration": 0.1599999999999966,
          "durationTicks": 32,
          "midi": 36,
          "name": "C2",
          "ticks": 10896,
          "time": 54.48,
          "velocity": 0.8818897637795275
        },
        {
          "duration": 0.1599999999999966,
          "durationTicks": 32,
          "midi": 24,
          "name": "C1",
          "ticks": 10944,
          "time": 54.72,
          "velocity": 0.8818897637795275
        },
        {
          "duration": 0.1599999999999966,
          "durationTicks": 32,
          "midi": 24,
          "name": "C1",
          "ticks": 10992,
          "time": 54.96,
          "velocity": 0.8818897637795275
        },
        {
          "duration": 0.1599999999999966,
          "durationTicks": 32,
          "midi": 24,
          "name": "C1",
          "ticks": 11040,
          "time": 55.199999999999996,
          "velocity": 0.8818897637795275
        },
        {
          "duration": 0.1599999999999966,
          "durationTicks": 32,
          "midi": 36,
          "name": "C2",
          "ticks": 11088,
          "time": 55.44,
          "velocity": 0.8818897637795275
        },
        {
          "duration": 0.1599999999999966,
          "durationTicks": 32,
          "midi": 26,
          "name": "D1",
          "ticks": 11136,
          "time": 55.68,
          "velocity": 0.8818897637795275
        },
        {
          "duration": 0.1599999999999966,
          "durationTicks": 32,
          "midi": 26,
          "name": "D1",
          "ticks": 11208,
          "time": 56.04,
          "velocity": 0.8818897637795275
        },
        {
          "duration": 0.1599999999999966,
          "durationTicks": 32,
          "midi": 38,
          "name": "D2",
          "ticks": 11280,
          "time": 56.4,
          "velocity": 0.8818897637795275
        },
        {
          "duration": 0.1599999999999966,
          "durationTicks": 32,
          "midi": 26,
          "name": "D1",
          "ticks": 11328,
          "time": 56.64,
          "velocity": 0.8818897637795275
        },
        {
          "duration": 0.1600000000000037,
          "durationTicks": 32,
          "midi": 26,
          "name": "D1",
          "ticks": 11376,
          "time": 56.879999999999995,
          "velocity": 0.8818897637795275
        },
        {
          "duration": 0.1599999999999966,
          "durationTicks": 32,
          "midi": 26,
          "name": "D1",
          "ticks": 11424,
          "time": 57.12,
          "velocity": 0.8818897637795275
        },
        {
          "duration": 0.1599999999999966,
          "durationTicks": 32,
          "midi": 38,
          "name": "D2",
          "ticks": 11472,
          "time": 57.36,
          "velocity": 0.8818897637795275
        },
        {
          "duration": 0.1600000000000037,
          "durationTicks": 32,
          "midi": 27,
          "name": "D#1",
          "ticks": 11520,
          "time": 57.599999999999994,
          "velocity": 0.8818897637795275
        },
        {
          "duration": 0.1599999999999966,
          "durationTicks": 32,
          "midi": 27,
          "name": "D#1",
          "ticks": 11592,
          "time": 57.96,
          "velocity": 0.8818897637795275
        },
        {
          "duration": 0.1599999999999966,
          "durationTicks": 32,
          "midi": 39,
          "name": "D#2",
          "ticks": 11664,
          "time": 58.32,
          "velocity": 0.8818897637795275
        },
        {
          "duration": 0.1600000000000037,
          "durationTicks": 32,
          "midi": 29,
          "name": "F1",
          "ticks": 11712,
          "time": 58.559999999999995,
          "velocity": 0.8818897637795275
        },
        {
          "duration": 0.1599999999999966,
          "durationTicks": 32,
          "midi": 29,
          "name": "F1",
          "ticks": 11760,
          "time": 58.8,
          "velocity": 0.8818897637795275
        },
        {
          "duration": 0.1599999999999966,
          "durationTicks": 32,
          "midi": 30,
          "name": "F#1",
          "ticks": 11808,
          "time": 59.04,
          "velocity": 0.8818897637795275
        },
        {
          "duration": 0.1599999999999966,
          "durationTicks": 32,
          "midi": 42,
          "name": "F#2",
          "ticks": 11856,
          "time": 59.28,
          "velocity": 0.8818897637795275
        },
        {
          "duration": 0.1599999999999966,
          "durationTicks": 32,
          "midi": 31,
          "name": "G1",
          "ticks": 11904,
          "time": 59.519999999999996,
          "velocity": 0.8818897637795275
        },
        {
          "duration": 0.1599999999999966,
          "durationTicks": 32,
          "midi": 31,
          "name": "G1",
          "ticks": 11976,
          "time": 59.879999999999995,
          "velocity": 0.8818897637795275
        },
        {
          "duration": 0.1600000000000037,
          "durationTicks": 32,
          "midi": 43,
          "name": "G2",
          "ticks": 12048,
          "time": 60.239999999999995,
          "velocity": 0.8818897637795275
        },
        {
          "duration": 0.9600000000000009,
          "durationTicks": 192,
          "midi": 29,
          "name": "F1",
          "ticks": 12096,
          "time": 60.48,
          "velocity": 0.8818897637795275
        },
        {
          "duration": 0.23999999999999488,
          "durationTicks": 48,
          "midi": 27,
          "name": "D#1",
          "ticks": 15360,
          "time": 76.8,
          "velocity": 0.8818897637795275
        },
        {
          "duration": 0.23999999999999488,
          "durationTicks": 48,
          "midi": 27,
          "name": "D#1",
          "ticks": 15432,
          "time": 77.16,
          "velocity": 0.8818897637795275
        },
        {
          "duration": 0.23999999999999488,
          "durationTicks": 48,
          "midi": 27,
          "name": "D#1",
          "ticks": 15504,
          "time": 77.52,
          "velocity": 0.8818897637795275
        },
        {
          "duration": 0.23999999999999488,
          "durationTicks": 48,
          "midi": 27,
          "name": "D#1",
          "ticks": 15600,
          "time": 78,
          "velocity": 0.8818897637795275
        },
        {
          "duration": 0.2400000000000091,
          "durationTicks": 48,
          "midi": 31,
          "name": "G1",
          "ticks": 15648,
          "time": 78.24,
          "velocity": 0.8818897637795275
        },
        {
          "duration": 0.23999999999999488,
          "durationTicks": 48,
          "midi": 27,
          "name": "D#1",
          "ticks": 15696,
          "time": 78.48,
          "velocity": 0.8818897637795275
        },
        {
          "duration": 0.23999999999999488,
          "durationTicks": 48,
          "midi": 29,
          "name": "F1",
          "ticks": 15744,
          "time": 78.72,
          "velocity": 0.8818897637795275
        },
        {
          "duration": 0.23999999999999488,
          "durationTicks": 48,
          "midi": 29,
          "name": "F1",
          "ticks": 15816,
          "time": 79.08,
          "velocity": 0.8818897637795275
        },
        {
          "duration": 0.23999999999999488,
          "durationTicks": 48,
          "midi": 29,
          "name": "F1",
          "ticks": 15888,
          "time": 79.44,
          "velocity": 0.8818897637795275
        },
        {
          "duration": 0.23999999999999488,
          "durationTicks": 48,
          "midi": 34,
          "name": "A#1",
          "ticks": 15984,
          "time": 79.92,
          "velocity": 0.8818897637795275
        },
        {
          "duration": 0.23999999999999488,
          "durationTicks": 48,
          "midi": 33,
          "name": "A1",
          "ticks": 16032,
          "time": 80.16,
          "velocity": 0.8818897637795275
        },
        {
          "duration": 0.2400000000000091,
          "durationTicks": 48,
          "midi": 29,
          "name": "F1",
          "ticks": 16080,
          "time": 80.39999999999999,
          "velocity": 0.8818897637795275
        },
        {
          "duration": 0.23999999999999488,
          "durationTicks": 48,
          "midi": 31,
          "name": "G1",
          "ticks": 16128,
          "time": 80.64,
          "velocity": 0.8818897637795275
        },
        {
          "duration": 0.23999999999999488,
          "durationTicks": 48,
          "midi": 31,
          "name": "G1",
          "ticks": 16200,
          "time": 81,
          "velocity": 0.8818897637795275
        },
        {
          "duration": 0.23999999999999488,
          "durationTicks": 48,
          "midi": 31,
          "name": "G1",
          "ticks": 16272,
          "time": 81.36,
          "velocity": 0.8818897637795275
        },
        {
          "duration": 0.23999999999999488,
          "durationTicks": 48,
          "midi": 31,
          "name": "G1",
          "ticks": 16368,
          "time": 81.84,
          "velocity": 0.8818897637795275
        },
        {
          "duration": 0.23999999999999488,
          "durationTicks": 48,
          "midi": 34,
          "name": "A#1",
          "ticks": 16416,
          "time": 82.08,
          "velocity": 0.8818897637795275
        },
        {
          "duration": 0.2400000000000091,
          "durationTicks": 48,
          "midi": 31,
          "name": "G1",
          "ticks": 16464,
          "time": 82.32,
          "velocity": 0.8818897637795275
        },
        {
          "duration": 0.23999999999999488,
          "durationTicks": 48,
          "midi": 26,
          "name": "D1",
          "ticks": 16512,
          "time": 82.56,
          "velocity": 0.8818897637795275
        },
        {
          "duration": 0.23999999999999488,
          "durationTicks": 48,
          "midi": 26,
          "name": "D1",
          "ticks": 16584,
          "time": 82.92,
          "velocity": 0.8818897637795275
        },
        {
          "duration": 0.23999999999999488,
          "durationTicks": 48,
          "midi": 26,
          "name": "D1",
          "ticks": 16656,
          "time": 83.28,
          "velocity": 0.8818897637795275
        },
        {
          "duration": 0.23999999999999488,
          "durationTicks": 48,
          "midi": 33,
          "name": "A1",
          "ticks": 16704,
          "time": 83.52,
          "velocity": 0.8818897637795275
        },
        {
          "duration": 0.2400000000000091,
          "durationTicks": 48,
          "midi": 36,
          "name": "C2",
          "ticks": 16752,
          "time": 83.75999999999999,
          "velocity": 0.8818897637795275
        },
        {
          "duration": 0.23999999999999488,
          "durationTicks": 48,
          "midi": 33,
          "name": "A1",
          "ticks": 16800,
          "time": 84,
          "velocity": 0.8818897637795275
        },
        {
          "duration": 0.23999999999999488,
          "durationTicks": 48,
          "midi": 29,
          "name": "F1",
          "ticks": 16848,
          "time": 84.24,
          "velocity": 0.8818897637795275
        },
        {
          "duration": 0.2400000000000091,
          "durationTicks": 48,
          "midi": 27,
          "name": "D#1",
          "ticks": 16896,
          "time": 84.47999999999999,
          "velocity": 0.8818897637795275
        },
        {
          "duration": 0.23999999999999488,
          "durationTicks": 48,
          "midi": 27,
          "name": "D#1",
          "ticks": 16968,
          "time": 84.84,
          "velocity": 0.8818897637795275
        },
        {
          "duration": 0.23999999999999488,
          "durationTicks": 48,
          "midi": 27,
          "name": "D#1",
          "ticks": 17040,
          "time": 85.2,
          "velocity": 0.8818897637795275
        },
        {
          "duration": 0.2400000000000091,
          "durationTicks": 48,
          "midi": 27,
          "name": "D#1",
          "ticks": 17136,
          "time": 85.67999999999999,
          "velocity": 0.8818897637795275
        },
        {
          "duration": 0.23999999999999488,
          "durationTicks": 48,
          "midi": 31,
          "name": "G1",
          "ticks": 17184,
          "time": 85.92,
          "velocity": 0.8818897637795275
        },
        {
          "duration": 0.23999999999999488,
          "durationTicks": 48,
          "midi": 27,
          "name": "D#1",
          "ticks": 17232,
          "time": 86.16,
          "velocity": 0.8818897637795275
        },
        {
          "duration": 0.2400000000000091,
          "durationTicks": 48,
          "midi": 29,
          "name": "F1",
          "ticks": 17280,
          "time": 86.39999999999999,
          "velocity": 0.8818897637795275
        },
        {
          "duration": 0.2400000000000091,
          "durationTicks": 48,
          "midi": 29,
          "name": "F1",
          "ticks": 17352,
          "time": 86.75999999999999,
          "velocity": 0.8818897637795275
        },
        {
          "duration": 0.2400000000000091,
          "durationTicks": 48,
          "midi": 29,
          "name": "F1",
          "ticks": 17424,
          "time": 87.11999999999999,
          "velocity": 0.8818897637795275
        },
        {
          "duration": 0.2400000000000091,
          "durationTicks": 48,
          "midi": 34,
          "name": "A#1",
          "ticks": 17520,
          "time": 87.6,
          "velocity": 0.8818897637795275
        },
        {
          "duration": 0.23999999999999488,
          "durationTicks": 48,
          "midi": 33,
          "name": "A1",
          "ticks": 17568,
          "time": 87.84,
          "velocity": 0.8818897637795275
        },
        {
          "duration": 0.23999999999999488,
          "durationTicks": 48,
          "midi": 29,
          "name": "F1",
          "ticks": 17616,
          "time": 88.08,
          "velocity": 0.8818897637795275
        },
        {
          "duration": 0.2400000000000091,
          "durationTicks": 48,
          "midi": 24,
          "name": "C1",
          "ticks": 17664,
          "time": 88.32,
          "velocity": 0.8818897637795275
        },
        {
          "duration": 0.2400000000000091,
          "durationTicks": 48,
          "midi": 24,
          "name": "C1",
          "ticks": 17736,
          "time": 88.67999999999999,
          "velocity": 0.8818897637795275
        },
        {
          "duration": 0.12000000000000455,
          "durationTicks": 24,
          "midi": 24,
          "name": "C1",
          "ticks": 17808,
          "time": 89.03999999999999,
          "velocity": 0.8818897637795275
        },
        {
          "duration": 0.12000000000000455,
          "durationTicks": 24,
          "midi": 24,
          "name": "C1",
          "ticks": 17832,
          "time": 89.16,
          "velocity": 0.8818897637795275
        },
        {
          "duration": 0.07999999999998408,
          "durationTicks": 16,
          "midi": 24,
          "name": "C1",
          "ticks": 17856,
          "time": 89.28,
          "velocity": 0.8818897637795275
        },
        {
          "duration": 0.0799999999999983,
          "durationTicks": 16,
          "midi": 24,
          "name": "C1",
          "ticks": 17904,
          "time": 89.52,
          "velocity": 0.8818897637795275
        },
        {
          "duration": 0.0799999999999983,
          "durationTicks": 16,
          "midi": 29,
          "name": "F1",
          "ticks": 17952,
          "time": 89.75999999999999,
          "velocity": 0.8818897637795275
        },
        {
          "duration": 0.0799999999999983,
          "durationTicks": 16,
          "midi": 29,
          "name": "F1",
          "ticks": 18000,
          "time": 90,
          "velocity": 0.8818897637795275
        },
        {
          "duration": 0.23999999999999488,
          "durationTicks": 48,
          "midi": 31,
          "name": "G1",
          "ticks": 18048,
          "time": 90.24,
          "velocity": 0.8818897637795275
        },
        {
          "duration": 0.2400000000000091,
          "durationTicks": 48,
          "midi": 26,
          "name": "D1",
          "ticks": 18120,
          "time": 90.6,
          "velocity": 0.8818897637795275
        },
        {
          "duration": 0.2400000000000091,
          "durationTicks": 48,
          "midi": 31,
          "name": "G1",
          "ticks": 18192,
          "time": 90.96,
          "velocity": 0.8818897637795275
        },
        {
          "duration": 0.23999999999999488,
          "durationTicks": 48,
          "midi": 29,
          "name": "F1",
          "ticks": 18240,
          "time": 91.2,
          "velocity": 0.8818897637795275
        },
        {
          "duration": 0.23999999999999488,
          "durationTicks": 48,
          "midi": 29,
          "name": "F1",
          "ticks": 18288,
          "time": 91.44,
          "velocity": 0.8818897637795275
        },
        {
          "duration": 0.2400000000000091,
          "durationTicks": 48,
          "midi": 24,
          "name": "C1",
          "ticks": 18336,
          "time": 91.67999999999999,
          "velocity": 0.8818897637795275
        },
        {
          "duration": 0.23999999999999488,
          "durationTicks": 48,
          "midi": 29,
          "name": "F1",
          "ticks": 18384,
          "time": 91.92,
          "velocity": 0.8818897637795275
        },
        {
          "duration": 0.23999999999999488,
          "durationTicks": 48,
          "midi": 24,
          "name": "C1",
          "ticks": 18432,
          "time": 92.16,
          "velocity": 0.8818897637795275
        },
        {
          "duration": 0.23999999999999488,
          "durationTicks": 48,
          "midi": 24,
          "name": "C1",
          "ticks": 18504,
          "time": 92.52,
          "velocity": 0.8818897637795275
        },
        {
          "duration": 0.12000000000000455,
          "durationTicks": 24,
          "midi": 24,
          "name": "C1",
          "ticks": 18576,
          "time": 92.88,
          "velocity": 0.8818897637795275
        },
        {
          "duration": 0.11999999999999034,
          "durationTicks": 24,
          "midi": 24,
          "name": "C1",
          "ticks": 18600,
          "time": 93,
          "velocity": 0.8818897637795275
        },
        {
          "duration": 0.0799999999999983,
          "durationTicks": 16,
          "midi": 24,
          "name": "C1",
          "ticks": 18624,
          "time": 93.11999999999999,
          "velocity": 0.8818897637795275
        },
        {
          "duration": 0.0799999999999983,
          "durationTicks": 16,
          "midi": 24,
          "name": "C1",
          "ticks": 18672,
          "time": 93.36,
          "velocity": 0.8818897637795275
        },
        {
          "duration": 0.0799999999999983,
          "durationTicks": 16,
          "midi": 29,
          "name": "F1",
          "ticks": 18720,
          "time": 93.6,
          "velocity": 0.8818897637795275
        },
        {
          "duration": 0.07999999999998408,
          "durationTicks": 16,
          "midi": 29,
          "name": "F1",
          "ticks": 18768,
          "time": 93.84,
          "velocity": 0.8818897637795275
        },
        {
          "duration": 0.23999999999999488,
          "durationTicks": 48,
          "midi": 31,
          "name": "G1",
          "ticks": 18816,
          "time": 94.08,
          "velocity": 0.8818897637795275
        },
        {
          "duration": 0.23999999999999488,
          "durationTicks": 48,
          "midi": 26,
          "name": "D1",
          "ticks": 18888,
          "time": 94.44,
          "velocity": 0.8818897637795275
        },
        {
          "duration": 0.23999999999999488,
          "durationTicks": 48,
          "midi": 31,
          "name": "G1",
          "ticks": 18960,
          "time": 94.8,
          "velocity": 0.8818897637795275
        },
        {
          "duration": 0.2400000000000091,
          "durationTicks": 48,
          "midi": 29,
          "name": "F1",
          "ticks": 19008,
          "time": 95.03999999999999,
          "velocity": 0.8818897637795275
        },
        {
          "duration": 0.23999999999999488,
          "durationTicks": 48,
          "midi": 29,
          "name": "F1",
          "ticks": 19056,
          "time": 95.28,
          "velocity": 0.8818897637795275
        },
        {
          "duration": 0.23999999999999488,
          "durationTicks": 48,
          "midi": 24,
          "name": "C1",
          "ticks": 19104,
          "time": 95.52,
          "velocity": 0.8818897637795275
        },
        {
          "duration": 0.2400000000000091,
          "durationTicks": 48,
          "midi": 29,
          "name": "F1",
          "ticks": 19152,
          "time": 95.75999999999999,
          "velocity": 0.8818897637795275
        },
        {
          "duration": 0.1599999999999966,
          "durationTicks": 32,
          "midi": 31,
          "name": "G1",
          "ticks": 19968,
          "time": 99.84,
          "velocity": 0.8818897637795275
        },
        {
          "duration": 0.1599999999999966,
          "durationTicks": 32,
          "midi": 31,
          "name": "G1",
          "ticks": 20040,
          "time": 100.2,
          "velocity": 0.8818897637795275
        },
        {
          "duration": 0.1599999999999966,
          "durationTicks": 32,
          "midi": 29,
          "name": "F1",
          "ticks": 20112,
          "time": 100.56,
          "velocity": 0.8818897637795275
        },
        {
          "duration": 0.1599999999999966,
          "durationTicks": 32,
          "midi": 31,
          "name": "G1",
          "ticks": 20160,
          "time": 100.8,
          "velocity": 0.8818897637795275
        },
        {
          "duration": 0.1600000000000108,
          "durationTicks": 32,
          "midi": 31,
          "name": "G1",
          "ticks": 20208,
          "time": 101.03999999999999,
          "velocity": 0.8818897637795275
        },
        {
          "duration": 0.1599999999999966,
          "durationTicks": 32,
          "midi": 26,
          "name": "D1",
          "ticks": 20256,
          "time": 101.28,
          "velocity": 0.8818897637795275
        },
        {
          "duration": 0.1600000000000108,
          "durationTicks": 32,
          "midi": 29,
          "name": "F1",
          "ticks": 20304,
          "time": 101.52,
          "velocity": 0.8818897637795275
        },
        {
          "duration": 0.1600000000000108,
          "durationTicks": 32,
          "midi": 31,
          "name": "G1",
          "ticks": 20352,
          "time": 101.75999999999999,
          "velocity": 0.8818897637795275
        },
        {
          "duration": 0.1600000000000108,
          "durationTicks": 32,
          "midi": 31,
          "name": "G1",
          "ticks": 20424,
          "time": 102.11999999999999,
          "velocity": 0.8818897637795275
        },
        {
          "duration": 0.1600000000000108,
          "durationTicks": 32,
          "midi": 29,
          "name": "F1",
          "ticks": 20496,
          "time": 102.47999999999999,
          "velocity": 0.8818897637795275
        },
        {
          "duration": 0.1599999999999966,
          "durationTicks": 32,
          "midi": 31,
          "name": "G1",
          "ticks": 20544,
          "time": 102.72,
          "velocity": 0.8818897637795275
        },
        {
          "duration": 0.1600000000000108,
          "durationTicks": 32,
          "midi": 31,
          "name": "G1",
          "ticks": 20592,
          "time": 102.96,
          "velocity": 0.8818897637795275
        },
        {
          "duration": 0.1599999999999966,
          "durationTicks": 32,
          "midi": 31,
          "name": "G1",
          "ticks": 20640,
          "time": 103.2,
          "velocity": 0.8818897637795275
        },
        {
          "duration": 0.1599999999999966,
          "durationTicks": 32,
          "midi": 29,
          "name": "F1",
          "ticks": 20688,
          "time": 103.44,
          "velocity": 0.8818897637795275
        },
        {
          "duration": 0.1600000000000108,
          "durationTicks": 32,
          "midi": 31,
          "name": "G1",
          "ticks": 20736,
          "time": 103.67999999999999,
          "velocity": 0.8818897637795275
        },
        {
          "duration": 0.1600000000000108,
          "durationTicks": 32,
          "midi": 31,
          "name": "G1",
          "ticks": 20808,
          "time": 104.03999999999999,
          "velocity": 0.8818897637795275
        },
        {
          "duration": 0.1600000000000108,
          "durationTicks": 32,
          "midi": 29,
          "name": "F1",
          "ticks": 20880,
          "time": 104.39999999999999,
          "velocity": 0.8818897637795275
        },
        {
          "duration": 0.1599999999999966,
          "durationTicks": 32,
          "midi": 31,
          "name": "G1",
          "ticks": 20928,
          "time": 104.64,
          "velocity": 0.8818897637795275
        },
        {
          "duration": 0.1600000000000108,
          "durationTicks": 32,
          "midi": 31,
          "name": "G1",
          "ticks": 20976,
          "time": 104.88,
          "velocity": 0.8818897637795275
        },
        {
          "duration": 0.1600000000000108,
          "durationTicks": 32,
          "midi": 26,
          "name": "D1",
          "ticks": 21024,
          "time": 105.11999999999999,
          "velocity": 0.8818897637795275
        },
        {
          "duration": 0.1599999999999966,
          "durationTicks": 32,
          "midi": 29,
          "name": "F1",
          "ticks": 21072,
          "time": 105.36,
          "velocity": 0.8818897637795275
        },
        {
          "duration": 0.1600000000000108,
          "durationTicks": 32,
          "midi": 31,
          "name": "G1",
          "ticks": 21120,
          "time": 105.6,
          "velocity": 0.8818897637795275
        },
        {
          "duration": 0.1600000000000108,
          "durationTicks": 32,
          "midi": 31,
          "name": "G1",
          "ticks": 21192,
          "time": 105.96,
          "velocity": 0.8818897637795275
        },
        {
          "duration": 0.1600000000000108,
          "durationTicks": 32,
          "midi": 29,
          "name": "F1",
          "ticks": 21264,
          "time": 106.32,
          "velocity": 0.8818897637795275
        },
        {
          "duration": 0.1599999999999966,
          "durationTicks": 32,
          "midi": 31,
          "name": "G1",
          "ticks": 21312,
          "time": 106.56,
          "velocity": 0.8818897637795275
        },
        {
          "duration": 0.1599999999999966,
          "durationTicks": 32,
          "midi": 31,
          "name": "G1",
          "ticks": 21360,
          "time": 106.8,
          "velocity": 0.8818897637795275
        },
        {
          "duration": 0.1600000000000108,
          "durationTicks": 32,
          "midi": 31,
          "name": "G1",
          "ticks": 21408,
          "time": 107.03999999999999,
          "velocity": 0.8818897637795275
        },
        {
          "duration": 0.1599999999999966,
          "durationTicks": 32,
          "midi": 29,
          "name": "F1",
          "ticks": 21456,
          "time": 107.28,
          "velocity": 0.8818897637795275
        },
        {
          "duration": 0.1600000000000108,
          "durationTicks": 32,
          "midi": 27,
          "name": "D#1",
          "ticks": 21504,
          "time": 107.52,
          "velocity": 0.8818897637795275
        },
        {
          "duration": 0.1600000000000108,
          "durationTicks": 32,
          "midi": 27,
          "name": "D#1",
          "ticks": 21576,
          "time": 107.88,
          "velocity": 0.8818897637795275
        },
        {
          "duration": 0.1600000000000108,
          "durationTicks": 32,
          "midi": 26,
          "name": "D1",
          "ticks": 21648,
          "time": 108.24,
          "velocity": 0.8818897637795275
        },
        {
          "duration": 0.1600000000000108,
          "durationTicks": 32,
          "midi": 27,
          "name": "D#1",
          "ticks": 21696,
          "time": 108.47999999999999,
          "velocity": 0.8818897637795275
        },
        {
          "duration": 0.1599999999999966,
          "durationTicks": 32,
          "midi": 27,
          "name": "D#1",
          "ticks": 21744,
          "time": 108.72,
          "velocity": 0.8818897637795275
        },
        {
          "duration": 0.1600000000000108,
          "durationTicks": 32,
          "midi": 26,
          "name": "D1",
          "ticks": 21792,
          "time": 108.96,
          "velocity": 0.8818897637795275
        },
        {
          "duration": 0.1599999999999966,
          "durationTicks": 32,
          "midi": 29,
          "name": "F1",
          "ticks": 21840,
          "time": 109.2,
          "velocity": 0.8818897637795275
        },
        {
          "duration": 0.1599999999999966,
          "durationTicks": 32,
          "midi": 27,
          "name": "D#1",
          "ticks": 21888,
          "time": 109.44,
          "velocity": 0.8818897637795275
        },
        {
          "duration": 0.1599999999999966,
          "durationTicks": 32,
          "midi": 27,
          "name": "D#1",
          "ticks": 21960,
          "time": 109.8,
          "velocity": 0.8818897637795275
        },
        {
          "duration": 0.1600000000000108,
          "durationTicks": 32,
          "midi": 26,
          "name": "D1",
          "ticks": 22032,
          "time": 110.16,
          "velocity": 0.8818897637795275
        },
        {
          "duration": 0.1600000000000108,
          "durationTicks": 32,
          "midi": 27,
          "name": "D#1",
          "ticks": 22080,
          "time": 110.39999999999999,
          "velocity": 0.8818897637795275
        },
        {
          "duration": 0.1599999999999966,
          "durationTicks": 32,
          "midi": 27,
          "name": "D#1",
          "ticks": 22128,
          "time": 110.64,
          "velocity": 0.8818897637795275
        },
        {
          "duration": 0.1600000000000108,
          "durationTicks": 32,
          "midi": 26,
          "name": "D1",
          "ticks": 22176,
          "time": 110.88,
          "velocity": 0.8818897637795275
        },
        {
          "duration": 0.1600000000000108,
          "durationTicks": 32,
          "midi": 29,
          "name": "F1",
          "ticks": 22224,
          "time": 111.11999999999999,
          "velocity": 0.8818897637795275
        },
        {
          "duration": 0.1599999999999966,
          "durationTicks": 32,
          "midi": 27,
          "name": "D#1",
          "ticks": 22272,
          "time": 111.36,
          "velocity": 0.8818897637795275
        },
        {
          "duration": 0.1599999999999966,
          "durationTicks": 32,
          "midi": 27,
          "name": "D#1",
          "ticks": 22344,
          "time": 111.72,
          "velocity": 0.8818897637795275
        },
        {
          "duration": 0.1599999999999966,
          "durationTicks": 32,
          "midi": 26,
          "name": "D1",
          "ticks": 22416,
          "time": 112.08,
          "velocity": 0.8818897637795275
        },
        {
          "duration": 0.1600000000000108,
          "durationTicks": 32,
          "midi": 27,
          "name": "D#1",
          "ticks": 22464,
          "time": 112.32,
          "velocity": 0.8818897637795275
        },
        {
          "duration": 0.1599999999999966,
          "durationTicks": 32,
          "midi": 27,
          "name": "D#1",
          "ticks": 22512,
          "time": 112.56,
          "velocity": 0.8818897637795275
        },
        {
          "duration": 0.1599999999999966,
          "durationTicks": 32,
          "midi": 26,
          "name": "D1",
          "ticks": 22560,
          "time": 112.8,
          "velocity": 0.8818897637795275
        },
        {
          "duration": 0.1600000000000108,
          "durationTicks": 32,
          "midi": 29,
          "name": "F1",
          "ticks": 22608,
          "time": 113.03999999999999,
          "velocity": 0.8818897637795275
        },
        {
          "duration": 0.1599999999999966,
          "durationTicks": 32,
          "midi": 27,
          "name": "D#1",
          "ticks": 22656,
          "time": 113.28,
          "velocity": 0.8818897637795275
        },
        {
          "duration": 0.1599999999999966,
          "durationTicks": 32,
          "midi": 27,
          "name": "D#1",
          "ticks": 22728,
          "time": 113.64,
          "velocity": 0.8818897637795275
        },
        {
          "duration": 0.1599999999999966,
          "durationTicks": 32,
          "midi": 26,
          "name": "D1",
          "ticks": 22800,
          "time": 114,
          "velocity": 0.8818897637795275
        },
        {
          "duration": 0.1600000000000108,
          "durationTicks": 32,
          "midi": 27,
          "name": "D#1",
          "ticks": 22848,
          "time": 114.24,
          "velocity": 0.8818897637795275
        },
        {
          "duration": 0.1600000000000108,
          "durationTicks": 32,
          "midi": 27,
          "name": "D#1",
          "ticks": 22896,
          "time": 114.47999999999999,
          "velocity": 0.8818897637795275
        },
        {
          "duration": 0.1599999999999966,
          "durationTicks": 32,
          "midi": 26,
          "name": "D1",
          "ticks": 22944,
          "time": 114.72,
          "velocity": 0.8818897637795275
        },
        {
          "duration": 0.1600000000000108,
          "durationTicks": 32,
          "midi": 29,
          "name": "F1",
          "ticks": 22992,
          "time": 114.96,
          "velocity": 0.8818897637795275
        },
        {
          "duration": 0.1600000000000108,
          "durationTicks": 32,
          "midi": 31,
          "name": "G1",
          "ticks": 23040,
          "time": 115.19999999999999,
          "velocity": 0.8818897637795275
        },
        {
          "duration": 0.1599999999999966,
          "durationTicks": 32,
          "midi": 31,
          "name": "G1",
          "ticks": 23112,
          "time": 115.56,
          "velocity": 0.8818897637795275
        },
        {
          "duration": 0.1599999999999966,
          "durationTicks": 32,
          "midi": 29,
          "name": "F1",
          "ticks": 23184,
          "time": 115.92,
          "velocity": 0.8818897637795275
        },
        {
          "duration": 0.1599999999999966,
          "durationTicks": 32,
          "midi": 31,
          "name": "G1",
          "ticks": 23232,
          "time": 116.16,
          "velocity": 0.8818897637795275
        },
        {
          "duration": 0.1600000000000108,
          "durationTicks": 32,
          "midi": 31,
          "name": "G1",
          "ticks": 23280,
          "time": 116.39999999999999,
          "velocity": 0.8818897637795275
        },
        {
          "duration": 0.1599999999999966,
          "durationTicks": 32,
          "midi": 26,
          "name": "D1",
          "ticks": 23328,
          "time": 116.64,
          "velocity": 0.8818897637795275
        },
        {
          "duration": 0.1600000000000108,
          "durationTicks": 32,
          "midi": 29,
          "name": "F1",
          "ticks": 23376,
          "time": 116.88,
          "velocity": 0.8818897637795275
        },
        {
          "duration": 0.1600000000000108,
          "durationTicks": 32,
          "midi": 31,
          "name": "G1",
          "ticks": 23424,
          "time": 117.11999999999999,
          "velocity": 0.8818897637795275
        },
        {
          "duration": 0.1600000000000108,
          "durationTicks": 32,
          "midi": 31,
          "name": "G1",
          "ticks": 23496,
          "time": 117.47999999999999,
          "velocity": 0.8818897637795275
        },
        {
          "duration": 0.1600000000000108,
          "durationTicks": 32,
          "midi": 29,
          "name": "F1",
          "ticks": 23568,
          "time": 117.83999999999999,
          "velocity": 0.8818897637795275
        },
        {
          "duration": 0.1599999999999966,
          "durationTicks": 32,
          "midi": 31,
          "name": "G1",
          "ticks": 23616,
          "time": 118.08,
          "velocity": 0.8818897637795275
        },
        {
          "duration": 0.1600000000000108,
          "durationTicks": 32,
          "midi": 31,
          "name": "G1",
          "ticks": 23664,
          "time": 118.32,
          "velocity": 0.8818897637795275
        },
        {
          "duration": 0.1599999999999966,
          "durationTicks": 32,
          "midi": 31,
          "name": "G1",
          "ticks": 23712,
          "time": 118.56,
          "velocity": 0.8818897637795275
        },
        {
          "duration": 0.1599999999999966,
          "durationTicks": 32,
          "midi": 29,
          "name": "F1",
          "ticks": 23760,
          "time": 118.8,
          "velocity": 0.8818897637795275
        },
        {
          "duration": 0.1600000000000108,
          "durationTicks": 32,
          "midi": 31,
          "name": "G1",
          "ticks": 23808,
          "time": 119.03999999999999,
          "velocity": 0.8818897637795275
        },
        {
          "duration": 0.1600000000000108,
          "durationTicks": 32,
          "midi": 31,
          "name": "G1",
          "ticks": 23880,
          "time": 119.39999999999999,
          "velocity": 0.8818897637795275
        },
        {
          "duration": 0.1600000000000108,
          "durationTicks": 32,
          "midi": 29,
          "name": "F1",
          "ticks": 23952,
          "time": 119.75999999999999,
          "velocity": 0.8818897637795275
        },
        {
          "duration": 0.1599999999999966,
          "durationTicks": 32,
          "midi": 31,
          "name": "G1",
          "ticks": 24000,
          "time": 120,
          "velocity": 0.8818897637795275
        },
        {
          "duration": 0.1600000000000108,
          "durationTicks": 32,
          "midi": 31,
          "name": "G1",
          "ticks": 24048,
          "time": 120.24,
          "velocity": 0.8818897637795275
        },
        {
          "duration": 0.1600000000000108,
          "durationTicks": 32,
          "midi": 26,
          "name": "D1",
          "ticks": 24096,
          "time": 120.47999999999999,
          "velocity": 0.8818897637795275
        },
        {
          "duration": 0.1599999999999966,
          "durationTicks": 32,
          "midi": 29,
          "name": "F1",
          "ticks": 24144,
          "time": 120.72,
          "velocity": 0.8818897637795275
        },
        {
          "duration": 0.1600000000000108,
          "durationTicks": 32,
          "midi": 31,
          "name": "G1",
          "ticks": 24192,
          "time": 120.96,
          "velocity": 0.8818897637795275
        },
        {
          "duration": 0.1600000000000108,
          "durationTicks": 32,
          "midi": 31,
          "name": "G1",
          "ticks": 24264,
          "time": 121.32,
          "velocity": 0.8818897637795275
        },
        {
          "duration": 0.1600000000000108,
          "durationTicks": 32,
          "midi": 29,
          "name": "F1",
          "ticks": 24336,
          "time": 121.67999999999999,
          "velocity": 0.8818897637795275
        },
        {
          "duration": 0.1599999999999966,
          "durationTicks": 32,
          "midi": 31,
          "name": "G1",
          "ticks": 24384,
          "time": 121.92,
          "velocity": 0.8818897637795275
        },
        {
          "duration": 0.1599999999999966,
          "durationTicks": 32,
          "midi": 31,
          "name": "G1",
          "ticks": 24432,
          "time": 122.16,
          "velocity": 0.8818897637795275
        },
        {
          "duration": 0.1600000000000108,
          "durationTicks": 32,
          "midi": 31,
          "name": "G1",
          "ticks": 24480,
          "time": 122.39999999999999,
          "velocity": 0.8818897637795275
        },
        {
          "duration": 0.1599999999999966,
          "durationTicks": 32,
          "midi": 29,
          "name": "F1",
          "ticks": 24528,
          "time": 122.64,
          "velocity": 0.8818897637795275
        },
        {
          "duration": 0.1599999999999966,
          "durationTicks": 32,
          "midi": 27,
          "name": "D#1",
          "ticks": 24576,
          "time": 122.88,
          "velocity": 0.8818897637795275
        },
        {
          "duration": 0.1599999999999966,
          "durationTicks": 32,
          "midi": 27,
          "name": "D#1",
          "ticks": 24648,
          "time": 123.24,
          "velocity": 0.8818897637795275
        },
        {
          "duration": 0.1599999999999966,
          "durationTicks": 32,
          "midi": 26,
          "name": "D1",
          "ticks": 24720,
          "time": 123.6,
          "velocity": 0.8818897637795275
        },
        {
          "duration": 0.1599999999999966,
          "durationTicks": 32,
          "midi": 27,
          "name": "D#1",
          "ticks": 24768,
          "time": 123.83999999999999,
          "velocity": 0.8818897637795275
        },
        {
          "duration": 0.15999999999998238,
          "durationTicks": 32,
          "midi": 27,
          "name": "D#1",
          "ticks": 24816,
          "time": 124.08,
          "velocity": 0.8818897637795275
        },
        {
          "duration": 0.1599999999999966,
          "durationTicks": 32,
          "midi": 26,
          "name": "D1",
          "ticks": 24864,
          "time": 124.32,
          "velocity": 0.8818897637795275
        },
        {
          "duration": 0.15999999999998238,
          "durationTicks": 32,
          "midi": 29,
          "name": "F1",
          "ticks": 24912,
          "time": 124.56,
          "velocity": 0.8818897637795275
        },
        {
          "duration": 0.15999999999998238,
          "durationTicks": 32,
          "midi": 27,
          "name": "D#1",
          "ticks": 24960,
          "time": 124.8,
          "velocity": 0.8818897637795275
        },
        {
          "duration": 0.1599999999999966,
          "durationTicks": 32,
          "midi": 27,
          "name": "D#1",
          "ticks": 25032,
          "time": 125.16,
          "velocity": 0.8818897637795275
        },
        {
          "duration": 0.1599999999999966,
          "durationTicks": 32,
          "midi": 26,
          "name": "D1",
          "ticks": 25104,
          "time": 125.52,
          "velocity": 0.8818897637795275
        },
        {
          "duration": 0.1599999999999966,
          "durationTicks": 32,
          "midi": 27,
          "name": "D#1",
          "ticks": 25152,
          "time": 125.75999999999999,
          "velocity": 0.8818897637795275
        },
        {
          "duration": 0.15999999999998238,
          "durationTicks": 32,
          "midi": 27,
          "name": "D#1",
          "ticks": 25200,
          "time": 126,
          "velocity": 0.8818897637795275
        },
        {
          "duration": 0.1599999999999966,
          "durationTicks": 32,
          "midi": 26,
          "name": "D1",
          "ticks": 25248,
          "time": 126.24,
          "velocity": 0.8818897637795275
        },
        {
          "duration": 0.1599999999999966,
          "durationTicks": 32,
          "midi": 29,
          "name": "F1",
          "ticks": 25296,
          "time": 126.47999999999999,
          "velocity": 0.8818897637795275
        },
        {
          "duration": 0.15999999999998238,
          "durationTicks": 32,
          "midi": 27,
          "name": "D#1",
          "ticks": 25344,
          "time": 126.72,
          "velocity": 0.8818897637795275
        },
        {
          "duration": 0.15999999999998238,
          "durationTicks": 32,
          "midi": 27,
          "name": "D#1",
          "ticks": 25416,
          "time": 127.08,
          "velocity": 0.8818897637795275
        },
        {
          "duration": 0.15999999999998238,
          "durationTicks": 32,
          "midi": 26,
          "name": "D1",
          "ticks": 25488,
          "time": 127.44,
          "velocity": 0.8818897637795275
        },
        {
          "duration": 0.1599999999999966,
          "durationTicks": 32,
          "midi": 27,
          "name": "D#1",
          "ticks": 25536,
          "time": 127.67999999999999,
          "velocity": 0.8818897637795275
        },
        {
          "duration": 0.15999999999998238,
          "durationTicks": 32,
          "midi": 27,
          "name": "D#1",
          "ticks": 25584,
          "time": 127.92,
          "velocity": 0.8818897637795275
        },
        {
          "duration": 0.1599999999999966,
          "durationTicks": 32,
          "midi": 26,
          "name": "D1",
          "ticks": 25632,
          "time": 128.16,
          "velocity": 0.8818897637795275
        },
        {
          "duration": 0.15999999999996817,
          "durationTicks": 32,
          "midi": 29,
          "name": "F1",
          "ticks": 25680,
          "time": 128.4,
          "velocity": 0.8818897637795275
        },
        {
          "duration": 0.1599999999999966,
          "durationTicks": 32,
          "midi": 27,
          "name": "D#1",
          "ticks": 25728,
          "time": 128.64,
          "velocity": 0.8818897637795275
        },
        {
          "duration": 0.1599999999999966,
          "durationTicks": 32,
          "midi": 27,
          "name": "D#1",
          "ticks": 25800,
          "time": 129,
          "velocity": 0.8818897637795275
        },
        {
          "duration": 0.1599999999999966,
          "durationTicks": 32,
          "midi": 26,
          "name": "D1",
          "ticks": 25872,
          "time": 129.35999999999999,
          "velocity": 0.8818897637795275
        },
        {
          "duration": 0.1599999999999966,
          "durationTicks": 32,
          "midi": 27,
          "name": "D#1",
          "ticks": 25920,
          "time": 129.6,
          "velocity": 0.8818897637795275
        },
        {
          "duration": 0.1599999999999966,
          "durationTicks": 32,
          "midi": 27,
          "name": "D#1",
          "ticks": 25968,
          "time": 129.84,
          "velocity": 0.8818897637795275
        },
        {
          "duration": 0.1599999999999966,
          "durationTicks": 32,
          "midi": 26,
          "name": "D1",
          "ticks": 26016,
          "time": 130.07999999999998,
          "velocity": 0.8818897637795275
        },
        {
          "duration": 0.1599999999999966,
          "durationTicks": 32,
          "midi": 29,
          "name": "F1",
          "ticks": 26064,
          "time": 130.32,
          "velocity": 0.8818897637795275
        },
        {
          "duration": 0.1599999999999966,
          "durationTicks": 32,
          "midi": 24,
          "name": "C1",
          "ticks": 26112,
          "time": 130.56,
          "velocity": 0.8818897637795275
        },
        {
          "duration": 0.1599999999999966,
          "durationTicks": 32,
          "midi": 24,
          "name": "C1",
          "ticks": 26184,
          "time": 130.92,
          "velocity": 0.8818897637795275
        },
        {
          "duration": 0.1599999999999966,
          "durationTicks": 32,
          "midi": 36,
          "name": "C2",
          "ticks": 26256,
          "time": 131.28,
          "velocity": 0.8818897637795275
        },
        {
          "duration": 0.1599999999999966,
          "durationTicks": 32,
          "midi": 24,
          "name": "C1",
          "ticks": 26304,
          "time": 131.51999999999998,
          "velocity": 0.8818897637795275
        },
        {
          "duration": 0.1599999999999966,
          "durationTicks": 32,
          "midi": 24,
          "name": "C1",
          "ticks": 26352,
          "time": 131.76,
          "velocity": 0.8818897637795275
        },
        {
          "duration": 0.1599999999999966,
          "durationTicks": 32,
          "midi": 24,
          "name": "C1",
          "ticks": 26400,
          "time": 132,
          "velocity": 0.8818897637795275
        },
        {
          "duration": 0.15999999999996817,
          "durationTicks": 32,
          "midi": 36,
          "name": "C2",
          "ticks": 26448,
          "time": 132.24,
          "velocity": 0.8818897637795275
        },
        {
          "duration": 0.1599999999999966,
          "durationTicks": 32,
          "midi": 26,
          "name": "D1",
          "ticks": 26496,
          "time": 132.48,
          "velocity": 0.8818897637795275
        },
        {
          "duration": 0.1599999999999966,
          "durationTicks": 32,
          "midi": 26,
          "name": "D1",
          "ticks": 26568,
          "time": 132.84,
          "velocity": 0.8818897637795275
        },
        {
          "duration": 0.1599999999999966,
          "durationTicks": 32,
          "midi": 38,
          "name": "D2",
          "ticks": 26640,
          "time": 133.2,
          "velocity": 0.8818897637795275
        },
        {
          "duration": 0.1599999999999966,
          "durationTicks": 32,
          "midi": 26,
          "name": "D1",
          "ticks": 26688,
          "time": 133.44,
          "velocity": 0.8818897637795275
        },
        {
          "duration": 0.15999999999996817,
          "durationTicks": 32,
          "midi": 26,
          "name": "D1",
          "ticks": 26736,
          "time": 133.68,
          "velocity": 0.8818897637795275
        },
        {
          "duration": 0.1599999999999966,
          "durationTicks": 32,
          "midi": 26,
          "name": "D1",
          "ticks": 26784,
          "time": 133.92,
          "velocity": 0.8818897637795275
        },
        {
          "duration": 0.1599999999999966,
          "durationTicks": 32,
          "midi": 38,
          "name": "D2",
          "ticks": 26832,
          "time": 134.16,
          "velocity": 0.8818897637795275
        },
        {
          "duration": 0.15999999999996817,
          "durationTicks": 32,
          "midi": 27,
          "name": "D#1",
          "ticks": 26880,
          "time": 134.4,
          "velocity": 0.8818897637795275
        },
        {
          "duration": 0.1599999999999966,
          "durationTicks": 32,
          "midi": 27,
          "name": "D#1",
          "ticks": 26952,
          "time": 134.76,
          "velocity": 0.8818897637795275
        },
        {
          "duration": 0.15999999999996817,
          "durationTicks": 32,
          "midi": 39,
          "name": "D#2",
          "ticks": 27024,
          "time": 135.12,
          "velocity": 0.8818897637795275
        },
        {
          "duration": 0.1599999999999966,
          "durationTicks": 32,
          "midi": 29,
          "name": "F1",
          "ticks": 27072,
          "time": 135.35999999999999,
          "velocity": 0.8818897637795275
        },
        {
          "duration": 0.1599999999999966,
          "durationTicks": 32,
          "midi": 29,
          "name": "F1",
          "ticks": 27120,
          "time": 135.6,
          "velocity": 0.8818897637795275
        },
        {
          "duration": 0.1599999999999966,
          "durationTicks": 32,
          "midi": 30,
          "name": "F#1",
          "ticks": 27168,
          "time": 135.84,
          "velocity": 0.8818897637795275
        },
        {
          "duration": 0.1599999999999966,
          "durationTicks": 32,
          "midi": 42,
          "name": "F#2",
          "ticks": 27216,
          "time": 136.07999999999998,
          "velocity": 0.8818897637795275
        },
        {
          "duration": 0.1599999999999966,
          "durationTicks": 32,
          "midi": 31,
          "name": "G1",
          "ticks": 27264,
          "time": 136.32,
          "velocity": 0.8818897637795275
        },
        {
          "duration": 0.15999999999996817,
          "durationTicks": 32,
          "midi": 31,
          "name": "G1",
          "ticks": 27336,
          "time": 136.68,
          "velocity": 0.8818897637795275
        },
        {
          "duration": 0.1599999999999966,
          "durationTicks": 32,
          "midi": 43,
          "name": "G2",
          "ticks": 27408,
          "time": 137.04,
          "velocity": 0.8818897637795275
        },
        {
          "duration": 0.1599999999999966,
          "durationTicks": 32,
          "midi": 29,
          "name": "F1",
          "ticks": 27456,
          "time": 137.28,
          "velocity": 0.8818897637795275
        },
        {
          "duration": 0.1599999999999966,
          "durationTicks": 32,
          "midi": 29,
          "name": "F1",
          "ticks": 27504,
          "time": 137.51999999999998,
          "velocity": 0.8818897637795275
        },
        {
          "duration": 0.1599999999999966,
          "durationTicks": 32,
          "midi": 29,
          "name": "F1",
          "ticks": 27552,
          "time": 137.76,
          "velocity": 0.8818897637795275
        },
        {
          "duration": 0.1599999999999966,
          "durationTicks": 32,
          "midi": 41,
          "name": "F2",
          "ticks": 27600,
          "time": 138,
          "velocity": 0.8818897637795275
        },
        {
          "duration": 0.15999999999996817,
          "durationTicks": 32,
          "midi": 24,
          "name": "C1",
          "ticks": 27648,
          "time": 138.24,
          "velocity": 0.8818897637795275
        },
        {
          "duration": 0.1599999999999966,
          "durationTicks": 32,
          "midi": 24,
          "name": "C1",
          "ticks": 27720,
          "time": 138.6,
          "velocity": 0.8818897637795275
        },
        {
          "duration": 0.15999999999996817,
          "durationTicks": 32,
          "midi": 36,
          "name": "C2",
          "ticks": 27792,
          "time": 138.96,
          "velocity": 0.8818897637795275
        },
        {
          "duration": 0.1599999999999966,
          "durationTicks": 32,
          "midi": 24,
          "name": "C1",
          "ticks": 27840,
          "time": 139.2,
          "velocity": 0.8818897637795275
        },
        {
          "duration": 0.1599999999999966,
          "durationTicks": 32,
          "midi": 24,
          "name": "C1",
          "ticks": 27888,
          "time": 139.44,
          "velocity": 0.8818897637795275
        },
        {
          "duration": 0.15999999999996817,
          "durationTicks": 32,
          "midi": 24,
          "name": "C1",
          "ticks": 27936,
          "time": 139.68,
          "velocity": 0.8818897637795275
        },
        {
          "duration": 0.1599999999999966,
          "durationTicks": 32,
          "midi": 36,
          "name": "C2",
          "ticks": 27984,
          "time": 139.92,
          "velocity": 0.8818897637795275
        },
        {
          "duration": 0.1599999999999966,
          "durationTicks": 32,
          "midi": 26,
          "name": "D1",
          "ticks": 28032,
          "time": 140.16,
          "velocity": 0.8818897637795275
        },
        {
          "duration": 0.1599999999999966,
          "durationTicks": 32,
          "midi": 26,
          "name": "D1",
          "ticks": 28104,
          "time": 140.51999999999998,
          "velocity": 0.8818897637795275
        },
        {
          "duration": 0.1599999999999966,
          "durationTicks": 32,
          "midi": 38,
          "name": "D2",
          "ticks": 28176,
          "time": 140.88,
          "velocity": 0.8818897637795275
        },
        {
          "duration": 0.15999999999996817,
          "durationTicks": 32,
          "midi": 26,
          "name": "D1",
          "ticks": 28224,
          "time": 141.12,
          "velocity": 0.8818897637795275
        },
        {
          "duration": 0.1599999999999966,
          "durationTicks": 32,
          "midi": 26,
          "name": "D1",
          "ticks": 28272,
          "time": 141.35999999999999,
          "velocity": 0.8818897637795275
        },
        {
          "duration": 0.1599999999999966,
          "durationTicks": 32,
          "midi": 26,
          "name": "D1",
          "ticks": 28320,
          "time": 141.6,
          "velocity": 0.8818897637795275
        },
        {
          "duration": 0.15999999999996817,
          "durationTicks": 32,
          "midi": 38,
          "name": "D2",
          "ticks": 28368,
          "time": 141.84,
          "velocity": 0.8818897637795275
        },
        {
          "duration": 0.1599999999999966,
          "durationTicks": 32,
          "midi": 27,
          "name": "D#1",
          "ticks": 28416,
          "time": 142.07999999999998,
          "velocity": 0.8818897637795275
        },
        {
          "duration": 0.1599999999999966,
          "durationTicks": 32,
          "midi": 27,
          "name": "D#1",
          "ticks": 28488,
          "time": 142.44,
          "velocity": 0.8818897637795275
        },
        {
          "duration": 0.1599999999999966,
          "durationTicks": 32,
          "midi": 39,
          "name": "D#2",
          "ticks": 28560,
          "time": 142.79999999999998,
          "velocity": 0.8818897637795275
        },
        {
          "duration": 0.1599999999999966,
          "durationTicks": 32,
          "midi": 29,
          "name": "F1",
          "ticks": 28608,
          "time": 143.04,
          "velocity": 0.8818897637795275
        },
        {
          "duration": 0.1599999999999966,
          "durationTicks": 32,
          "midi": 29,
          "name": "F1",
          "ticks": 28656,
          "time": 143.28,
          "velocity": 0.8818897637795275
        },
        {
          "duration": 0.1599999999999966,
          "durationTicks": 32,
          "midi": 30,
          "name": "F#1",
          "ticks": 28704,
          "time": 143.51999999999998,
          "velocity": 0.8818897637795275
        },
        {
          "duration": 0.1599999999999966,
          "durationTicks": 32,
          "midi": 42,
          "name": "F#2",
          "ticks": 28752,
          "time": 143.76,
          "velocity": 0.8818897637795275
        },
        {
          "duration": 0.1599999999999966,
          "durationTicks": 32,
          "midi": 31,
          "name": "G1",
          "ticks": 28800,
          "time": 144,
          "velocity": 0.8818897637795275
        },
        {
          "duration": 0.1599999999999966,
          "durationTicks": 32,
          "midi": 31,
          "name": "G1",
          "ticks": 28872,
          "time": 144.35999999999999,
          "velocity": 0.8818897637795275
        },
        {
          "duration": 0.1599999999999966,
          "durationTicks": 32,
          "midi": 43,
          "name": "G2",
          "ticks": 28944,
          "time": 144.72,
          "velocity": 0.8818897637795275
        },
        {
          "duration": 0.9599999999999795,
          "durationTicks": 192,
          "midi": 29,
          "name": "F1",
          "ticks": 28992,
          "time": 144.96,
          "velocity": 0.8818897637795275
        }
      ]
    },
    {
      "channel": 0,
      "controlChanges": {
        "6": [
          {
            "number": 6,
            "ticks": 0,
            "time": 0,
            "value": 0.09448818897637795
          }
        ],
        "7": [
          {
            "number": 7,
            "ticks": 0,
            "time": 0,
            "value": 0.7874015748031497
          },
          {
            "number": 7,
            "ticks": 0,
            "time": 0,
            "value": 0.7874015748031497
          }
        ],
        "10": [
          {
            "number": 10,
            "ticks": 0,
            "time": 0,
            "value": 0.5039370078740157
          },
          {
            "number": 10,
            "ticks": 0,
            "time": 0,
            "value": 0.5039370078740157
          }
        ],
        "100": [
          {
            "number": 100,
            "ticks": 0,
            "time": 0,
            "value": 0
          }
        ],
        "101": [
          {
            "number": 101,
            "ticks": 0,
            "time": 0,
            "value": 0
          }
        ]
      },
      "pitchBends": [
        {
          "ticks": 0,
          "time": 0,
          "value": 0
        },
        {
          "ticks": 0,
          "time": 0,
          "value": 0
        }
      ],
      "instrument": {
        "family": "piano",
        "number": 0,
        "name": "acoustic grand piano"
      },
      "name": "Synth Bass",
      "notes": [],
      "endOfTrackTicks": 32340
    },
    {
      "channel": 5,
      "controlChanges": {
        "6": [
          {
            "number": 6,
            "ticks": 0,
            "time": 0,
            "value": 0.09448818897637795
          },
          {
            "number": 6,
            "ticks": 32256,
            "time": 161.28,
            "value": 0.09448818897637795
          },
          {
            "number": 6,
            "ticks": 32340,
            "time": 161.7,
            "value": 0.09448818897637795
          },
          {
            "number": 6,
            "ticks": 32340,
            "time": 161.7,
            "value": 0.09448818897637795
          }
        ],
        "7": [
          {
            "number": 7,
            "ticks": 0,
            "time": 0,
            "value": 0.7874015748031497
          },
          {
            "number": 7,
            "ticks": 32256,
            "time": 161.28,
            "value": 0.7874015748031497
          },
          {
            "number": 7,
            "ticks": 32340,
            "time": 161.7,
            "value": 0.7874015748031497
          },
          {
            "number": 7,
            "ticks": 32340,
            "time": 161.7,
            "value": 0.7874015748031497
          }
        ],
        "10": [
          {
            "number": 10,
            "ticks": 0,
            "time": 0,
            "value": 0.5039370078740157
          },
          {
            "number": 10,
            "ticks": 32256,
            "time": 161.28,
            "value": 0.5039370078740157
          },
          {
            "number": 10,
            "ticks": 32340,
            "time": 161.7,
            "value": 0.5039370078740157
          },
          {
            "number": 10,
            "ticks": 32340,
            "time": 161.7,
            "value": 0.5039370078740157
          }
        ],
        "100": [
          {
            "number": 100,
            "ticks": 0,
            "time": 0,
            "value": 0
          },
          {
            "number": 100,
            "ticks": 32256,
            "time": 161.28,
            "value": 0
          },
          {
            "number": 100,
            "ticks": 32340,
            "time": 161.7,
            "value": 0
          },
          {
            "number": 100,
            "ticks": 32340,
            "time": 161.7,
            "value": 0
          }
        ],
        "101": [
          {
            "number": 101,
            "ticks": 0,
            "time": 0,
            "value": 0
          },
          {
            "number": 101,
            "ticks": 32256,
            "time": 161.28,
            "value": 0
          },
          {
            "number": 101,
            "ticks": 32340,
            "time": 161.7,
            "value": 0
          },
          {
            "number": 101,
            "ticks": 32340,
            "time": 161.7,
            "value": 0
          }
        ]
      },
      "pitchBends": [
        {
          "ticks": 0,
          "time": 0,
          "value": 0
        },
        {
          "ticks": 32256,
          "time": 161.28,
          "value": 0
        },
        {
          "ticks": 32340,
          "time": 161.7,
          "value": 0
        },
        {
          "ticks": 32340,
          "time": 161.7,
          "value": 0
        }
      ],
      "instrument": {
        "family": "bass",
        "number": 38,
        "name": "synth bass 1"
      },
      "name": "",
      "notes": [
        {
          "duration": 0.16000000000000192,
          "durationTicks": 32,
          "midi": 43,
          "name": "G2",
          "ticks": 3072,
          "time": 15.36,
          "velocity": 0.6614173228346457
        },
        {
          "duration": 0.16000000000000192,
          "durationTicks": 32,
          "midi": 43,
          "name": "G2",
          "ticks": 3144,
          "time": 15.719999999999999,
          "velocity": 0.6614173228346457
        },
        {
          "duration": 0.1600000000000037,
          "durationTicks": 32,
          "midi": 41,
          "name": "F2",
          "ticks": 3216,
          "time": 16.08,
          "velocity": 0.6614173228346457
        },
        {
          "duration": 0.16000000000000014,
          "durationTicks": 32,
          "midi": 43,
          "name": "G2",
          "ticks": 3264,
          "time": 16.32,
          "velocity": 0.6614173228346457
        },
        {
          "duration": 0.16000000000000014,
          "durationTicks": 32,
          "midi": 43,
          "name": "G2",
          "ticks": 3312,
          "time": 16.56,
          "velocity": 0.6614173228346457
        },
        {
          "duration": 0.16000000000000014,
          "durationTicks": 32,
          "midi": 38,
          "name": "D2",
          "ticks": 3360,
          "time": 16.8,
          "velocity": 0.6614173228346457
        },
        {
          "duration": 0.16000000000000014,
          "durationTicks": 32,
          "midi": 41,
          "name": "F2",
          "ticks": 3408,
          "time": 17.04,
          "velocity": 0.6614173228346457
        },
        {
          "duration": 0.16000000000000014,
          "durationTicks": 32,
          "midi": 43,
          "name": "G2",
          "ticks": 3456,
          "time": 17.28,
          "velocity": 0.6614173228346457
        },
        {
          "duration": 0.16000000000000014,
          "durationTicks": 32,
          "midi": 43,
          "name": "G2",
          "ticks": 3528,
          "time": 17.64,
          "velocity": 0.6614173228346457
        },
        {
          "duration": 0.16000000000000014,
          "durationTicks": 32,
          "midi": 41,
          "name": "F2",
          "ticks": 3600,
          "time": 18,
          "velocity": 0.6614173228346457
        },
        {
          "duration": 0.1600000000000037,
          "durationTicks": 32,
          "midi": 43,
          "name": "G2",
          "ticks": 3648,
          "time": 18.24,
          "velocity": 0.6614173228346457
        },
        {
          "duration": 0.16000000000000014,
          "durationTicks": 32,
          "midi": 43,
          "name": "G2",
          "ticks": 3696,
          "time": 18.48,
          "velocity": 0.6614173228346457
        },
        {
          "duration": 0.16000000000000014,
          "durationTicks": 32,
          "midi": 43,
          "name": "G2",
          "ticks": 3744,
          "time": 18.72,
          "velocity": 0.6614173228346457
        },
        {
          "duration": 0.16000000000000014,
          "durationTicks": 32,
          "midi": 41,
          "name": "F2",
          "ticks": 3792,
          "time": 18.96,
          "velocity": 0.6614173228346457
        },
        {
          "duration": 0.16000000000000014,
          "durationTicks": 32,
          "midi": 43,
          "name": "G2",
          "ticks": 3840,
          "time": 19.2,
          "velocity": 0.6614173228346457
        },
        {
          "duration": 0.16000000000000014,
          "durationTicks": 32,
          "midi": 43,
          "name": "G2",
          "ticks": 3912,
          "time": 19.56,
          "velocity": 0.6614173228346457
        },
        {
          "duration": 0.1600000000000037,
          "durationTicks": 32,
          "midi": 41,
          "name": "F2",
          "ticks": 3984,
          "time": 19.919999999999998,
          "velocity": 0.6614173228346457
        },
        {
          "duration": 0.16000000000000014,
          "durationTicks": 32,
          "midi": 43,
          "name": "G2",
          "ticks": 4032,
          "time": 20.16,
          "velocity": 0.6614173228346457
        },
        {
          "duration": 0.16000000000000014,
          "durationTicks": 32,
          "midi": 43,
          "name": "G2",
          "ticks": 4080,
          "time": 20.4,
          "velocity": 0.6614173228346457
        },
        {
          "duration": 0.16000000000000014,
          "durationTicks": 32,
          "midi": 38,
          "name": "D2",
          "ticks": 4128,
          "time": 20.64,
          "velocity": 0.6614173228346457
        },
        {
          "duration": 0.16000000000000014,
          "durationTicks": 32,
          "midi": 41,
          "name": "F2",
          "ticks": 4176,
          "time": 20.88,
          "velocity": 0.6614173228346457
        },
        {
          "duration": 0.1600000000000037,
          "durationTicks": 32,
          "midi": 43,
          "name": "G2",
          "ticks": 4224,
          "time": 21.119999999999997,
          "velocity": 0.6614173228346457
        },
        {
          "duration": 0.16000000000000014,
          "durationTicks": 32,
          "midi": 43,
          "name": "G2",
          "ticks": 4296,
          "time": 21.48,
          "velocity": 0.6614173228346457
        },
        {
          "duration": 0.16000000000000014,
          "durationTicks": 32,
          "midi": 41,
          "name": "F2",
          "ticks": 4368,
          "time": 21.84,
          "velocity": 0.6614173228346457
        },
        {
          "duration": 0.1600000000000037,
          "durationTicks": 32,
          "midi": 43,
          "name": "G2",
          "ticks": 4416,
          "time": 22.08,
          "velocity": 0.6614173228346457
        },
        {
          "duration": 0.16000000000000014,
          "durationTicks": 32,
          "midi": 43,
          "name": "G2",
          "ticks": 4464,
          "time": 22.32,
          "velocity": 0.6614173228346457
        },
        {
          "duration": 0.16000000000000014,
          "durationTicks": 32,
          "midi": 43,
          "name": "G2",
          "ticks": 4512,
          "time": 22.56,
          "velocity": 0.6614173228346457
        },
        {
          "duration": 0.16000000000000014,
          "durationTicks": 32,
          "midi": 41,
          "name": "F2",
          "ticks": 4560,
          "time": 22.8,
          "velocity": 0.6614173228346457
        },
        {
          "duration": 0.16000000000000014,
          "durationTicks": 32,
          "midi": 39,
          "name": "D#2",
          "ticks": 4608,
          "time": 23.04,
          "velocity": 0.6614173228346457
        },
        {
          "duration": 0.16000000000000014,
          "durationTicks": 32,
          "midi": 39,
          "name": "D#2",
          "ticks": 4680,
          "time": 23.4,
          "velocity": 0.6614173228346457
        },
        {
          "duration": 0.1600000000000037,
          "durationTicks": 32,
          "midi": 38,
          "name": "D2",
          "ticks": 4752,
          "time": 23.759999999999998,
          "velocity": 0.6614173228346457
        },
        {
          "duration": 0.16000000000000014,
          "durationTicks": 32,
          "midi": 39,
          "name": "D#2",
          "ticks": 4800,
          "time": 24,
          "velocity": 0.6614173228346457
        },
        {
          "duration": 0.16000000000000014,
          "durationTicks": 32,
          "midi": 39,
          "name": "D#2",
          "ticks": 4848,
          "time": 24.24,
          "velocity": 0.6614173228346457
        },
        {
          "duration": 0.16000000000000014,
          "durationTicks": 32,
          "midi": 38,
          "name": "D2",
          "ticks": 4896,
          "time": 24.48,
          "velocity": 0.6614173228346457
        },
        {
          "duration": 0.16000000000000014,
          "durationTicks": 32,
          "midi": 41,
          "name": "F2",
          "ticks": 4944,
          "time": 24.72,
          "velocity": 0.6614173228346457
        },
        {
          "duration": 0.16000000000000014,
          "durationTicks": 32,
          "midi": 39,
          "name": "D#2",
          "ticks": 4992,
          "time": 24.96,
          "velocity": 0.6614173228346457
        },
        {
          "duration": 0.16000000000000014,
          "durationTicks": 32,
          "midi": 39,
          "name": "D#2",
          "ticks": 5064,
          "time": 25.32,
          "velocity": 0.6614173228346457
        },
        {
          "duration": 0.16000000000000014,
          "durationTicks": 32,
          "midi": 38,
          "name": "D2",
          "ticks": 5136,
          "time": 25.68,
          "velocity": 0.6614173228346457
        },
        {
          "duration": 0.1600000000000037,
          "durationTicks": 32,
          "midi": 39,
          "name": "D#2",
          "ticks": 5184,
          "time": 25.919999999999998,
          "velocity": 0.6614173228346457
        },
        {
          "duration": 0.16000000000000014,
          "durationTicks": 32,
          "midi": 39,
          "name": "D#2",
          "ticks": 5232,
          "time": 26.16,
          "velocity": 0.6614173228346457
        },
        {
          "duration": 0.16000000000000014,
          "durationTicks": 32,
          "midi": 38,
          "name": "D2",
          "ticks": 5280,
          "time": 26.4,
          "velocity": 0.6614173228346457
        },
        {
          "duration": 0.16000000000000014,
          "durationTicks": 32,
          "midi": 41,
          "name": "F2",
          "ticks": 5328,
          "time": 26.64,
          "velocity": 0.6614173228346457
        },
        {
          "duration": 0.16000000000000014,
          "durationTicks": 32,
          "midi": 39,
          "name": "D#2",
          "ticks": 5376,
          "time": 26.88,
          "velocity": 0.6614173228346457
        },
        {
          "duration": 0.16000000000000014,
          "durationTicks": 32,
          "midi": 39,
          "name": "D#2",
          "ticks": 5448,
          "time": 27.24,
          "velocity": 0.6614173228346457
        },
        {
          "duration": 0.1600000000000037,
          "durationTicks": 32,
          "midi": 38,
          "name": "D2",
          "ticks": 5520,
          "time": 27.599999999999998,
          "velocity": 0.6614173228346457
        },
        {
          "duration": 0.16000000000000014,
          "durationTicks": 32,
          "midi": 39,
          "name": "D#2",
          "ticks": 5568,
          "time": 27.84,
          "velocity": 0.6614173228346457
        },
        {
          "duration": 0.16000000000000014,
          "durationTicks": 32,
          "midi": 39,
          "name": "D#2",
          "ticks": 5616,
          "time": 28.08,
          "velocity": 0.6614173228346457
        },
        {
          "duration": 0.16000000000000014,
          "durationTicks": 32,
          "midi": 38,
          "name": "D2",
          "ticks": 5664,
          "time": 28.32,
          "velocity": 0.6614173228346457
        },
        {
          "duration": 0.16000000000000014,
          "durationTicks": 32,
          "midi": 41,
          "name": "F2",
          "ticks": 5712,
          "time": 28.56,
          "velocity": 0.6614173228346457
        },
        {
          "duration": 0.1600000000000037,
          "durationTicks": 32,
          "midi": 39,
          "name": "D#2",
          "ticks": 5760,
          "time": 28.799999999999997,
          "velocity": 0.6614173228346457
        },
        {
          "duration": 0.16000000000000014,
          "durationTicks": 32,
          "midi": 39,
          "name": "D#2",
          "ticks": 5832,
          "time": 29.16,
          "velocity": 0.6614173228346457
        },
        {
          "duration": 0.16000000000000014,
          "durationTicks": 32,
          "midi": 38,
          "name": "D2",
          "ticks": 5904,
          "time": 29.52,
          "velocity": 0.6614173228346457
        },
        {
          "duration": 0.1600000000000037,
          "durationTicks": 32,
          "midi": 39,
          "name": "D#2",
          "ticks": 5952,
          "time": 29.759999999999998,
          "velocity": 0.6614173228346457
        },
        {
          "duration": 0.16000000000000014,
          "durationTicks": 32,
          "midi": 39,
          "name": "D#2",
          "ticks": 6000,
          "time": 30,
          "velocity": 0.6614173228346457
        },
        {
          "duration": 0.16000000000000014,
          "durationTicks": 32,
          "midi": 38,
          "name": "D2",
          "ticks": 6048,
          "time": 30.24,
          "velocity": 0.6614173228346457
        },
        {
          "duration": 0.16000000000000014,
          "durationTicks": 32,
          "midi": 41,
          "name": "F2",
          "ticks": 6096,
          "time": 30.48,
          "velocity": 0.6614173228346457
        },
        {
          "duration": 0.1599999999999966,
          "durationTicks": 32,
          "midi": 43,
          "name": "G2",
          "ticks": 6144,
          "time": 30.72,
          "velocity": 0.6614173228346457
        },
        {
          "duration": 0.1599999999999966,
          "durationTicks": 32,
          "midi": 43,
          "name": "G2",
          "ticks": 6216,
          "time": 31.08,
          "velocity": 0.6614173228346457
        },
        {
          "duration": 0.16000000000000014,
          "durationTicks": 32,
          "midi": 41,
          "name": "F2",
          "ticks": 6288,
          "time": 31.439999999999998,
          "velocity": 0.6614173228346457
        },
        {
          "duration": 0.1599999999999966,
          "durationTicks": 32,
          "midi": 43,
          "name": "G2",
          "ticks": 6336,
          "time": 31.68,
          "velocity": 0.6614173228346457
        },
        {
          "duration": 0.16000000000000014,
          "durationTicks": 32,
          "midi": 43,
          "name": "G2",
          "ticks": 6384,
          "time": 31.919999999999998,
          "velocity": 0.6614173228346457
        },
        {
          "duration": 0.1599999999999966,
          "durationTicks": 32,
          "midi": 38,
          "name": "D2",
          "ticks": 6432,
          "time": 32.16,
          "velocity": 0.6614173228346457
        },
        {
          "duration": 0.1599999999999966,
          "durationTicks": 32,
          "midi": 41,
          "name": "F2",
          "ticks": 6480,
          "time": 32.4,
          "velocity": 0.6614173228346457
        },
        {
          "duration": 0.1599999999999966,
          "durationTicks": 32,
          "midi": 43,
          "name": "G2",
          "ticks": 6528,
          "time": 32.64,
          "velocity": 0.6614173228346457
        },
        {
          "duration": 0.1599999999999966,
          "durationTicks": 32,
          "midi": 43,
          "name": "G2",
          "ticks": 6600,
          "time": 33,
          "velocity": 0.6614173228346457
        },
        {
          "duration": 0.1599999999999966,
          "durationTicks": 32,
          "midi": 41,
          "name": "F2",
          "ticks": 6672,
          "time": 33.36,
          "velocity": 0.6614173228346457
        },
        {
          "duration": 0.1599999999999966,
          "durationTicks": 32,
          "midi": 43,
          "name": "G2",
          "ticks": 6720,
          "time": 33.6,
          "velocity": 0.6614173228346457
        },
        {
          "duration": 0.1600000000000037,
          "durationTicks": 32,
          "midi": 43,
          "name": "G2",
          "ticks": 6768,
          "time": 33.839999999999996,
          "velocity": 0.6614173228346457
        },
        {
          "duration": 0.1599999999999966,
          "durationTicks": 32,
          "midi": 43,
          "name": "G2",
          "ticks": 6816,
          "time": 34.08,
          "velocity": 0.6614173228346457
        },
        {
          "duration": 0.1599999999999966,
          "durationTicks": 32,
          "midi": 41,
          "name": "F2",
          "ticks": 6864,
          "time": 34.32,
          "velocity": 0.6614173228346457
        },
        {
          "duration": 0.1599999999999966,
          "durationTicks": 32,
          "midi": 43,
          "name": "G2",
          "ticks": 6912,
          "time": 34.56,
          "velocity": 0.6614173228346457
        },
        {
          "duration": 0.1599999999999966,
          "durationTicks": 32,
          "midi": 43,
          "name": "G2",
          "ticks": 6984,
          "time": 34.92,
          "velocity": 0.6614173228346457
        },
        {
          "duration": 0.1599999999999966,
          "durationTicks": 32,
          "midi": 41,
          "name": "F2",
          "ticks": 7056,
          "time": 35.28,
          "velocity": 0.6614173228346457
        },
        {
          "duration": 0.1600000000000037,
          "durationTicks": 32,
          "midi": 43,
          "name": "G2",
          "ticks": 7104,
          "time": 35.519999999999996,
          "velocity": 0.6614173228346457
        },
        {
          "duration": 0.1599999999999966,
          "durationTicks": 32,
          "midi": 43,
          "name": "G2",
          "ticks": 7152,
          "time": 35.76,
          "velocity": 0.6614173228346457
        },
        {
          "duration": 0.1599999999999966,
          "durationTicks": 32,
          "midi": 38,
          "name": "D2",
          "ticks": 7200,
          "time": 36,
          "velocity": 0.6614173228346457
        },
        {
          "duration": 0.1599999999999966,
          "durationTicks": 32,
          "midi": 41,
          "name": "F2",
          "ticks": 7248,
          "time": 36.24,
          "velocity": 0.6614173228346457
        },
        {
          "duration": 0.1599999999999966,
          "durationTicks": 32,
          "midi": 43,
          "name": "G2",
          "ticks": 7296,
          "time": 36.48,
          "velocity": 0.6614173228346457
        },
        {
          "duration": 0.1599999999999966,
          "durationTicks": 32,
          "midi": 43,
          "name": "G2",
          "ticks": 7368,
          "time": 36.839999999999996,
          "velocity": 0.6614173228346457
        },
        {
          "duration": 0.1600000000000037,
          "durationTicks": 32,
          "midi": 41,
          "name": "F2",
          "ticks": 7440,
          "time": 37.199999999999996,
          "velocity": 0.6614173228346457
        },
        {
          "duration": 0.1599999999999966,
          "durationTicks": 32,
          "midi": 43,
          "name": "G2",
          "ticks": 7488,
          "time": 37.44,
          "velocity": 0.6614173228346457
        },
        {
          "duration": 0.1599999999999966,
          "durationTicks": 32,
          "midi": 43,
          "name": "G2",
          "ticks": 7536,
          "time": 37.68,
          "velocity": 0.6614173228346457
        },
        {
          "duration": 0.1599999999999966,
          "durationTicks": 32,
          "midi": 43,
          "name": "G2",
          "ticks": 7584,
          "time": 37.92,
          "velocity": 0.6614173228346457
        },
        {
          "duration": 0.1599999999999966,
          "durationTicks": 32,
          "midi": 41,
          "name": "F2",
          "ticks": 7632,
          "time": 38.16,
          "velocity": 0.6614173228346457
        },
        {
          "duration": 0.1599999999999966,
          "durationTicks": 32,
          "midi": 39,
          "name": "D#2",
          "ticks": 7680,
          "time": 38.4,
          "velocity": 0.6614173228346457
        },
        {
          "duration": 0.1599999999999966,
          "durationTicks": 32,
          "midi": 39,
          "name": "D#2",
          "ticks": 7752,
          "time": 38.76,
          "velocity": 0.6614173228346457
        },
        {
          "duration": 0.1599999999999966,
          "durationTicks": 32,
          "midi": 38,
          "name": "D2",
          "ticks": 7824,
          "time": 39.12,
          "velocity": 0.6614173228346457
        },
        {
          "duration": 0.1599999999999966,
          "durationTicks": 32,
          "midi": 39,
          "name": "D#2",
          "ticks": 7872,
          "time": 39.36,
          "velocity": 0.6614173228346457
        },
        {
          "duration": 0.1599999999999966,
          "durationTicks": 32,
          "midi": 39,
          "name": "D#2",
          "ticks": 7920,
          "time": 39.6,
          "velocity": 0.6614173228346457
        },
        {
          "duration": 0.1599999999999966,
          "durationTicks": 32,
          "midi": 38,
          "name": "D2",
          "ticks": 7968,
          "time": 39.839999999999996,
          "velocity": 0.6614173228346457
        },
        {
          "duration": 0.1599999999999966,
          "durationTicks": 32,
          "midi": 41,
          "name": "F2",
          "ticks": 8016,
          "time": 40.08,
          "velocity": 0.6614173228346457
        },
        {
          "duration": 0.1599999999999966,
          "durationTicks": 32,
          "midi": 39,
          "name": "D#2",
          "ticks": 8064,
          "time": 40.32,
          "velocity": 0.6614173228346457
        },
        {
          "duration": 0.1599999999999966,
          "durationTicks": 32,
          "midi": 39,
          "name": "D#2",
          "ticks": 8136,
          "time": 40.68,
          "velocity": 0.6614173228346457
        },
        {
          "duration": 0.1599999999999966,
          "durationTicks": 32,
          "midi": 38,
          "name": "D2",
          "ticks": 8208,
          "time": 41.04,
          "velocity": 0.6614173228346457
        },
        {
          "duration": 0.1599999999999966,
          "durationTicks": 32,
          "midi": 39,
          "name": "D#2",
          "ticks": 8256,
          "time": 41.28,
          "velocity": 0.6614173228346457
        },
        {
          "duration": 0.1600000000000037,
          "durationTicks": 32,
          "midi": 39,
          "name": "D#2",
          "ticks": 8304,
          "time": 41.519999999999996,
          "velocity": 0.6614173228346457
        },
        {
          "duration": 0.1599999999999966,
          "durationTicks": 32,
          "midi": 38,
          "name": "D2",
          "ticks": 8352,
          "time": 41.76,
          "velocity": 0.6614173228346457
        },
        {
          "duration": 0.1599999999999966,
          "durationTicks": 32,
          "midi": 41,
          "name": "F2",
          "ticks": 8400,
          "time": 42,
          "velocity": 0.6614173228346457
        },
        {
          "duration": 0.1600000000000037,
          "durationTicks": 32,
          "midi": 39,
          "name": "D#2",
          "ticks": 8448,
          "time": 42.239999999999995,
          "velocity": 0.6614173228346457
        },
        {
          "duration": 0.1599999999999966,
          "durationTicks": 32,
          "midi": 39,
          "name": "D#2",
          "ticks": 8520,
          "time": 42.6,
          "velocity": 0.6614173228346457
        },
        {
          "duration": 0.1599999999999966,
          "durationTicks": 32,
          "midi": 38,
          "name": "D2",
          "ticks": 8592,
          "time": 42.96,
          "velocity": 0.6614173228346457
        },
        {
          "duration": 0.1600000000000037,
          "durationTicks": 32,
          "midi": 39,
          "name": "D#2",
          "ticks": 8640,
          "time": 43.199999999999996,
          "velocity": 0.6614173228346457
        },
        {
          "duration": 0.1599999999999966,
          "durationTicks": 32,
          "midi": 39,
          "name": "D#2",
          "ticks": 8688,
          "time": 43.44,
          "velocity": 0.6614173228346457
        },
        {
          "duration": 0.1599999999999966,
          "durationTicks": 32,
          "midi": 38,
          "name": "D2",
          "ticks": 8736,
          "time": 43.68,
          "velocity": 0.6614173228346457
        },
        {
          "duration": 0.1599999999999966,
          "durationTicks": 32,
          "midi": 41,
          "name": "F2",
          "ticks": 8784,
          "time": 43.92,
          "velocity": 0.6614173228346457
        },
        {
          "duration": 0.1599999999999966,
          "durationTicks": 32,
          "midi": 39,
          "name": "D#2",
          "ticks": 8832,
          "time": 44.16,
          "velocity": 0.6614173228346457
        },
        {
          "duration": 0.1599999999999966,
          "durationTicks": 32,
          "midi": 39,
          "name": "D#2",
          "ticks": 8904,
          "time": 44.519999999999996,
          "velocity": 0.6614173228346457
        },
        {
          "duration": 0.1600000000000037,
          "durationTicks": 32,
          "midi": 38,
          "name": "D2",
          "ticks": 8976,
          "time": 44.879999999999995,
          "velocity": 0.6614173228346457
        },
        {
          "duration": 0.1599999999999966,
          "durationTicks": 32,
          "midi": 39,
          "name": "D#2",
          "ticks": 9024,
          "time": 45.12,
          "velocity": 0.6614173228346457
        },
        {
          "duration": 0.1599999999999966,
          "durationTicks": 32,
          "midi": 39,
          "name": "D#2",
          "ticks": 9072,
          "time": 45.36,
          "velocity": 0.6614173228346457
        },
        {
          "duration": 0.1599999999999966,
          "durationTicks": 32,
          "midi": 38,
          "name": "D2",
          "ticks": 9120,
          "time": 45.6,
          "velocity": 0.6614173228346457
        },
        {
          "duration": 0.1599999999999966,
          "durationTicks": 32,
          "midi": 41,
          "name": "F2",
          "ticks": 9168,
          "time": 45.839999999999996,
          "velocity": 0.6614173228346457
        },
        {
          "duration": 0.1599999999999966,
          "durationTicks": 32,
          "midi": 36,
          "name": "C2",
          "ticks": 9216,
          "time": 46.08,
          "velocity": 0.6614173228346457
        },
        {
          "duration": 0.1599999999999966,
          "durationTicks": 32,
          "midi": 36,
          "name": "C2",
          "ticks": 9288,
          "time": 46.44,
          "velocity": 0.6614173228346457
        },
        {
          "duration": 0.1599999999999966,
          "durationTicks": 32,
          "midi": 48,
          "name": "C3",
          "ticks": 9360,
          "time": 46.8,
          "velocity": 0.6614173228346457
        },
        {
          "duration": 0.1599999999999966,
          "durationTicks": 32,
          "midi": 36,
          "name": "C2",
          "ticks": 9408,
          "time": 47.04,
          "velocity": 0.6614173228346457
        },
        {
          "duration": 0.1599999999999966,
          "durationTicks": 32,
          "midi": 36,
          "name": "C2",
          "ticks": 9456,
          "time": 47.28,
          "velocity": 0.6614173228346457
        },
        {
          "duration": 0.1599999999999966,
          "durationTicks": 32,
          "midi": 36,
          "name": "C2",
          "ticks": 9504,
          "time": 47.519999999999996,
          "velocity": 0.6614173228346457
        },
        {
          "duration": 0.1599999999999966,
          "durationTicks": 32,
          "midi": 48,
          "name": "C3",
          "ticks": 9552,
          "time": 47.76,
          "velocity": 0.6614173228346457
        },
        {
          "duration": 0.1599999999999966,
          "durationTicks": 32,
          "midi": 38,
          "name": "D2",
          "ticks": 9600,
          "time": 48,
          "velocity": 0.6614173228346457
        },
        {
          "duration": 0.1599999999999966,
          "durationTicks": 32,
          "midi": 38,
          "name": "D2",
          "ticks": 9672,
          "time": 48.36,
          "velocity": 0.6614173228346457
        },
        {
          "duration": 0.1599999999999966,
          "durationTicks": 32,
          "midi": 50,
          "name": "D3",
          "ticks": 9744,
          "time": 48.72,
          "velocity": 0.6614173228346457
        },
        {
          "duration": 0.1599999999999966,
          "durationTicks": 32,
          "midi": 38,
          "name": "D2",
          "ticks": 9792,
          "time": 48.96,
          "velocity": 0.6614173228346457
        },
        {
          "duration": 0.1600000000000037,
          "durationTicks": 32,
          "midi": 38,
          "name": "D2",
          "ticks": 9840,
          "time": 49.199999999999996,
          "velocity": 0.6614173228346457
        },
        {
          "duration": 0.1599999999999966,
          "durationTicks": 32,
          "midi": 38,
          "name": "D2",
          "ticks": 9888,
          "time": 49.44,
          "velocity": 0.6614173228346457
        },
        {
          "duration": 0.1599999999999966,
          "durationTicks": 32,
          "midi": 50,
          "name": "D3",
          "ticks": 9936,
          "time": 49.68,
          "velocity": 0.6614173228346457
        },
        {
          "duration": 0.1599999999999966,
          "durationTicks": 32,
          "midi": 39,
          "name": "D#2",
          "ticks": 9984,
          "time": 49.92,
          "velocity": 0.6614173228346457
        },
        {
          "duration": 0.1599999999999966,
          "durationTicks": 32,
          "midi": 39,
          "name": "D#2",
          "ticks": 10056,
          "time": 50.28,
          "velocity": 0.6614173228346457
        },
        {
          "duration": 0.1599999999999966,
          "durationTicks": 32,
          "midi": 51,
          "name": "D#3",
          "ticks": 10128,
          "time": 50.64,
          "velocity": 0.6614173228346457
        },
        {
          "duration": 0.1600000000000037,
          "durationTicks": 32,
          "midi": 41,
          "name": "F2",
          "ticks": 10176,
          "time": 50.879999999999995,
          "velocity": 0.6614173228346457
        },
        {
          "duration": 0.1599999999999966,
          "durationTicks": 32,
          "midi": 41,
          "name": "F2",
          "ticks": 10224,
          "time": 51.12,
          "velocity": 0.6614173228346457
        },
        {
          "duration": 0.1599999999999966,
          "durationTicks": 32,
          "midi": 42,
          "name": "F#2",
          "ticks": 10272,
          "time": 51.36,
          "velocity": 0.6614173228346457
        },
        {
          "duration": 0.1599999999999966,
          "durationTicks": 32,
          "midi": 54,
          "name": "F#3",
          "ticks": 10320,
          "time": 51.6,
          "velocity": 0.6614173228346457
        },
        {
          "duration": 0.1599999999999966,
          "durationTicks": 32,
          "midi": 43,
          "name": "G2",
          "ticks": 10368,
          "time": 51.839999999999996,
          "velocity": 0.6614173228346457
        },
        {
          "duration": 0.1599999999999966,
          "durationTicks": 32,
          "midi": 43,
          "name": "G2",
          "ticks": 10440,
          "time": 52.199999999999996,
          "velocity": 0.6614173228346457
        },
        {
          "duration": 0.1600000000000037,
          "durationTicks": 32,
          "midi": 55,
          "name": "G3",
          "ticks": 10512,
          "time": 52.559999999999995,
          "velocity": 0.6614173228346457
        },
        {
          "duration": 0.1599999999999966,
          "durationTicks": 32,
          "midi": 41,
          "name": "F2",
          "ticks": 10560,
          "time": 52.8,
          "velocity": 0.6614173228346457
        },
        {
          "duration": 0.1599999999999966,
          "durationTicks": 32,
          "midi": 41,
          "name": "F2",
          "ticks": 10608,
          "time": 53.04,
          "velocity": 0.6614173228346457
        },
        {
          "duration": 0.1599999999999966,
          "durationTicks": 32,
          "midi": 41,
          "name": "F2",
          "ticks": 10656,
          "time": 53.28,
          "velocity": 0.6614173228346457
        },
        {
          "duration": 0.1599999999999966,
          "durationTicks": 32,
          "midi": 53,
          "name": "F3",
          "ticks": 10704,
          "time": 53.519999999999996,
          "velocity": 0.6614173228346457
        },
        {
          "duration": 0.1599999999999966,
          "durationTicks": 32,
          "midi": 36,
          "name": "C2",
          "ticks": 10752,
          "time": 53.76,
          "velocity": 0.6614173228346457
        },
        {
          "duration": 0.1599999999999966,
          "durationTicks": 32,
          "midi": 36,
          "name": "C2",
          "ticks": 10824,
          "time": 54.12,
          "velocity": 0.6614173228346457
        },
        {
          "duration": 0.1599999999999966,
          "durationTicks": 32,
          "midi": 48,
          "name": "C3",
          "ticks": 10896,
          "time": 54.48,
          "velocity": 0.6614173228346457
        },
        {
          "duration": 0.1599999999999966,
          "durationTicks": 32,
          "midi": 36,
          "name": "C2",
          "ticks": 10944,
          "time": 54.72,
          "velocity": 0.6614173228346457
        },
        {
          "duration": 0.1599999999999966,
          "durationTicks": 32,
          "midi": 36,
          "name": "C2",
          "ticks": 10992,
          "time": 54.96,
          "velocity": 0.6614173228346457
        },
        {
          "duration": 0.1599999999999966,
          "durationTicks": 32,
          "midi": 36,
          "name": "C2",
          "ticks": 11040,
          "time": 55.199999999999996,
          "velocity": 0.6614173228346457
        },
        {
          "duration": 0.1599999999999966,
          "durationTicks": 32,
          "midi": 48,
          "name": "C3",
          "ticks": 11088,
          "time": 55.44,
          "velocity": 0.6614173228346457
        },
        {
          "duration": 0.1599999999999966,
          "durationTicks": 32,
          "midi": 38,
          "name": "D2",
          "ticks": 11136,
          "time": 55.68,
          "velocity": 0.6614173228346457
        },
        {
          "duration": 0.1599999999999966,
          "durationTicks": 32,
          "midi": 38,
          "name": "D2",
          "ticks": 11208,
          "time": 56.04,
          "velocity": 0.6614173228346457
        },
        {
          "duration": 0.1599999999999966,
          "durationTicks": 32,
          "midi": 50,
          "name": "D3",
          "ticks": 11280,
          "time": 56.4,
          "velocity": 0.6614173228346457
        },
        {
          "duration": 0.1599999999999966,
          "durationTicks": 32,
          "midi": 38,
          "name": "D2",
          "ticks": 11328,
          "time": 56.64,
          "velocity": 0.6614173228346457
        },
        {
          "duration": 0.1600000000000037,
          "durationTicks": 32,
          "midi": 38,
          "name": "D2",
          "ticks": 11376,
          "time": 56.879999999999995,
          "velocity": 0.6614173228346457
        },
        {
          "duration": 0.1599999999999966,
          "durationTicks": 32,
          "midi": 38,
          "name": "D2",
          "ticks": 11424,
          "time": 57.12,
          "velocity": 0.6614173228346457
        },
        {
          "duration": 0.1599999999999966,
          "durationTicks": 32,
          "midi": 50,
          "name": "D3",
          "ticks": 11472,
          "time": 57.36,
          "velocity": 0.6614173228346457
        },
        {
          "duration": 0.1600000000000037,
          "durationTicks": 32,
          "midi": 39,
          "name": "D#2",
          "ticks": 11520,
          "time": 57.599999999999994,
          "velocity": 0.6614173228346457
        },
        {
          "duration": 0.1599999999999966,
          "durationTicks": 32,
          "midi": 39,
          "name": "D#2",
          "ticks": 11592,
          "time": 57.96,
          "velocity": 0.6614173228346457
        },
        {
          "duration": 0.1599999999999966,
          "durationTicks": 32,
          "midi": 51,
          "name": "D#3",
          "ticks": 11664,
          "time": 58.32,
          "velocity": 0.6614173228346457
        },
        {
          "duration": 0.1600000000000037,
          "durationTicks": 32,
          "midi": 41,
          "name": "F2",
          "ticks": 11712,
          "time": 58.559999999999995,
          "velocity": 0.6614173228346457
        },
        {
          "duration": 0.1599999999999966,
          "durationTicks": 32,
          "midi": 41,
          "name": "F2",
          "ticks": 11760,
          "time": 58.8,
          "velocity": 0.6614173228346457
        },
        {
          "duration": 0.1599999999999966,
          "durationTicks": 32,
          "midi": 42,
          "name": "F#2",
          "ticks": 11808,
          "time": 59.04,
          "velocity": 0.6614173228346457
        },
        {
          "duration": 0.1599999999999966,
          "durationTicks": 32,
          "midi": 54,
          "name": "F#3",
          "ticks": 11856,
          "time": 59.28,
          "velocity": 0.6614173228346457
        },
        {
          "duration": 0.1599999999999966,
          "durationTicks": 32,
          "midi": 43,
          "name": "G2",
          "ticks": 11904,
          "time": 59.519999999999996,
          "velocity": 0.6614173228346457
        },
        {
          "duration": 0.1599999999999966,
          "durationTicks": 32,
          "midi": 43,
          "name": "G2",
          "ticks": 11976,
          "time": 59.879999999999995,
          "velocity": 0.6614173228346457
        },
        {
          "duration": 0.1600000000000037,
          "durationTicks": 32,
          "midi": 55,
          "name": "G3",
          "ticks": 12048,
          "time": 60.239999999999995,
          "velocity": 0.6614173228346457
        },
        {
          "duration": 0.9600000000000009,
          "durationTicks": 192,
          "midi": 41,
          "name": "F2",
          "ticks": 12096,
          "time": 60.48,
          "velocity": 0.6614173228346457
        },
        {
          "duration": 0.23999999999999488,
          "durationTicks": 48,
          "midi": 39,
          "name": "D#2",
          "ticks": 15360,
          "time": 76.8,
          "velocity": 0.6614173228346457
        },
        {
          "duration": 0.23999999999999488,
          "durationTicks": 48,
          "midi": 39,
          "name": "D#2",
          "ticks": 15432,
          "time": 77.16,
          "velocity": 0.6614173228346457
        },
        {
          "duration": 0.23999999999999488,
          "durationTicks": 48,
          "midi": 39,
          "name": "D#2",
          "ticks": 15504,
          "time": 77.52,
          "velocity": 0.6614173228346457
        },
        {
          "duration": 0.23999999999999488,
          "durationTicks": 48,
          "midi": 39,
          "name": "D#2",
          "ticks": 15600,
          "time": 78,
          "velocity": 0.6614173228346457
        },
        {
          "duration": 0.2400000000000091,
          "durationTicks": 48,
          "midi": 43,
          "name": "G2",
          "ticks": 15648,
          "time": 78.24,
          "velocity": 0.6614173228346457
        },
        {
          "duration": 0.23999999999999488,
          "durationTicks": 48,
          "midi": 39,
          "name": "D#2",
          "ticks": 15696,
          "time": 78.48,
          "velocity": 0.6614173228346457
        },
        {
          "duration": 0.23999999999999488,
          "durationTicks": 48,
          "midi": 41,
          "name": "F2",
          "ticks": 15744,
          "time": 78.72,
          "velocity": 0.6614173228346457
        },
        {
          "duration": 0.23999999999999488,
          "durationTicks": 48,
          "midi": 41,
          "name": "F2",
          "ticks": 15816,
          "time": 79.08,
          "velocity": 0.6614173228346457
        },
        {
          "duration": 0.23999999999999488,
          "durationTicks": 48,
          "midi": 41,
          "name": "F2",
          "ticks": 15888,
          "time": 79.44,
          "velocity": 0.6614173228346457
        },
        {
          "duration": 0.23999999999999488,
          "durationTicks": 48,
          "midi": 46,
          "name": "A#2",
          "ticks": 15984,
          "time": 79.92,
          "velocity": 0.6614173228346457
        },
        {
          "duration": 0.23999999999999488,
          "durationTicks": 48,
          "midi": 45,
          "name": "A2",
          "ticks": 16032,
          "time": 80.16,
          "velocity": 0.6614173228346457
        },
        {
          "duration": 0.2400000000000091,
          "durationTicks": 48,
          "midi": 41,
          "name": "F2",
          "ticks": 16080,
          "time": 80.39999999999999,
          "velocity": 0.6614173228346457
        },
        {
          "duration": 0.23999999999999488,
          "durationTicks": 48,
          "midi": 43,
          "name": "G2",
          "ticks": 16128,
          "time": 80.64,
          "velocity": 0.6614173228346457
        },
        {
          "duration": 0.23999999999999488,
          "durationTicks": 48,
          "midi": 43,
          "name": "G2",
          "ticks": 16200,
          "time": 81,
          "velocity": 0.6614173228346457
        },
        {
          "duration": 0.23999999999999488,
          "durationTicks": 48,
          "midi": 43,
          "name": "G2",
          "ticks": 16272,
          "time": 81.36,
          "velocity": 0.6614173228346457
        },
        {
          "duration": 0.23999999999999488,
          "durationTicks": 48,
          "midi": 43,
          "name": "G2",
          "ticks": 16368,
          "time": 81.84,
          "velocity": 0.6614173228346457
        },
        {
          "duration": 0.23999999999999488,
          "durationTicks": 48,
          "midi": 46,
          "name": "A#2",
          "ticks": 16416,
          "time": 82.08,
          "velocity": 0.6614173228346457
        },
        {
          "duration": 0.2400000000000091,
          "durationTicks": 48,
          "midi": 43,
          "name": "G2",
          "ticks": 16464,
          "time": 82.32,
          "velocity": 0.6614173228346457
        },
        {
          "duration": 0.23999999999999488,
          "durationTicks": 48,
          "midi": 38,
          "name": "D2",
          "ticks": 16512,
          "time": 82.56,
          "velocity": 0.6614173228346457
        },
        {
          "duration": 0.23999999999999488,
          "durationTicks": 48,
          "midi": 38,
          "name": "D2",
          "ticks": 16584,
          "time": 82.92,
          "velocity": 0.6614173228346457
        },
        {
          "duration": 0.23999999999999488,
          "durationTicks": 48,
          "midi": 38,
          "name": "D2",
          "ticks": 16656,
          "time": 83.28,
          "velocity": 0.6614173228346457
        },
        {
          "duration": 0.23999999999999488,
          "durationTicks": 48,
          "midi": 45,
          "name": "A2",
          "ticks": 16704,
          "time": 83.52,
          "velocity": 0.6614173228346457
        },
        {
          "duration": 0.2400000000000091,
          "durationTicks": 48,
          "midi": 48,
          "name": "C3",
          "ticks": 16752,
          "time": 83.75999999999999,
          "velocity": 0.6614173228346457
        },
        {
          "duration": 0.23999999999999488,
          "durationTicks": 48,
          "midi": 45,
          "name": "A2",
          "ticks": 16800,
          "time": 84,
          "velocity": 0.6614173228346457
        },
        {
          "duration": 0.23999999999999488,
          "durationTicks": 48,
          "midi": 41,
          "name": "F2",
          "ticks": 16848,
          "time": 84.24,
          "velocity": 0.6614173228346457
        },
        {
          "duration": 0.2400000000000091,
          "durationTicks": 48,
          "midi": 39,
          "name": "D#2",
          "ticks": 16896,
          "time": 84.47999999999999,
          "velocity": 0.6614173228346457
        },
        {
          "duration": 0.23999999999999488,
          "durationTicks": 48,
          "midi": 39,
          "name": "D#2",
          "ticks": 16968,
          "time": 84.84,
          "velocity": 0.6614173228346457
        },
        {
          "duration": 0.23999999999999488,
          "durationTicks": 48,
          "midi": 39,
          "name": "D#2",
          "ticks": 17040,
          "time": 85.2,
          "velocity": 0.6614173228346457
        },
        {
          "duration": 0.2400000000000091,
          "durationTicks": 48,
          "midi": 39,
          "name": "D#2",
          "ticks": 17136,
          "time": 85.67999999999999,
          "velocity": 0.6614173228346457
        },
        {
          "duration": 0.23999999999999488,
          "durationTicks": 48,
          "midi": 43,
          "name": "G2",
          "ticks": 17184,
          "time": 85.92,
          "velocity": 0.6614173228346457
        },
        {
          "duration": 0.23999999999999488,
          "durationTicks": 48,
          "midi": 39,
          "name": "D#2",
          "ticks": 17232,
          "time": 86.16,
          "velocity": 0.6614173228346457
        },
        {
          "duration": 0.2400000000000091,
          "durationTicks": 48,
          "midi": 41,
          "name": "F2",
          "ticks": 17280,
          "time": 86.39999999999999,
          "velocity": 0.6614173228346457
        },
        {
          "duration": 0.2400000000000091,
          "durationTicks": 48,
          "midi": 41,
          "name": "F2",
          "ticks": 17352,
          "time": 86.75999999999999,
          "velocity": 0.6614173228346457
        },
        {
          "duration": 0.2400000000000091,
          "durationTicks": 48,
          "midi": 41,
          "name": "F2",
          "ticks": 17424,
          "time": 87.11999999999999,
          "velocity": 0.6614173228346457
        },
        {
          "duration": 0.2400000000000091,
          "durationTicks": 48,
          "midi": 46,
          "name": "A#2",
          "ticks": 17520,
          "time": 87.6,
          "velocity": 0.6614173228346457
        },
        {
          "duration": 0.23999999999999488,
          "durationTicks": 48,
          "midi": 45,
          "name": "A2",
          "ticks": 17568,
          "time": 87.84,
          "velocity": 0.6614173228346457
        },
        {
          "duration": 0.23999999999999488,
          "durationTicks": 48,
          "midi": 41,
          "name": "F2",
          "ticks": 17616,
          "time": 88.08,
          "velocity": 0.6614173228346457
        },
        {
          "duration": 0.2400000000000091,
          "durationTicks": 48,
          "midi": 36,
          "name": "C2",
          "ticks": 17664,
          "time": 88.32,
          "velocity": 0.6614173228346457
        },
        {
          "duration": 0.2400000000000091,
          "durationTicks": 48,
          "midi": 36,
          "name": "C2",
          "ticks": 17736,
          "time": 88.67999999999999,
          "velocity": 0.6614173228346457
        },
        {
          "duration": 0.12000000000000455,
          "durationTicks": 24,
          "midi": 36,
          "name": "C2",
          "ticks": 17808,
          "time": 89.03999999999999,
          "velocity": 0.6614173228346457
        },
        {
          "duration": 0.12000000000000455,
          "durationTicks": 24,
          "midi": 36,
          "name": "C2",
          "ticks": 17832,
          "time": 89.16,
          "velocity": 0.6614173228346457
        },
        {
          "duration": 0.07999999999998408,
          "durationTicks": 16,
          "midi": 36,
          "name": "C2",
          "ticks": 17856,
          "time": 89.28,
          "velocity": 0.6614173228346457
        },
        {
          "duration": 0.0799999999999983,
          "durationTicks": 16,
          "midi": 36,
          "name": "C2",
          "ticks": 17904,
          "time": 89.52,
          "velocity": 0.6614173228346457
        },
        {
          "duration": 0.0799999999999983,
          "durationTicks": 16,
          "midi": 41,
          "name": "F2",
          "ticks": 17952,
          "time": 89.75999999999999,
          "velocity": 0.6614173228346457
        },
        {
          "duration": 0.0799999999999983,
          "durationTicks": 16,
          "midi": 41,
          "name": "F2",
          "ticks": 18000,
          "time": 90,
          "velocity": 0.6614173228346457
        },
        {
          "duration": 0.23999999999999488,
          "durationTicks": 48,
          "midi": 43,
          "name": "G2",
          "ticks": 18048,
          "time": 90.24,
          "velocity": 0.6614173228346457
        },
        {
          "duration": 0.2400000000000091,
          "durationTicks": 48,
          "midi": 38,
          "name": "D2",
          "ticks": 18120,
          "time": 90.6,
          "velocity": 0.6614173228346457
        },
        {
          "duration": 0.2400000000000091,
          "durationTicks": 48,
          "midi": 43,
          "name": "G2",
          "ticks": 18192,
          "time": 90.96,
          "velocity": 0.6614173228346457
        },
        {
          "duration": 0.23999999999999488,
          "durationTicks": 48,
          "midi": 41,
          "name": "F2",
          "ticks": 18240,
          "time": 91.2,
          "velocity": 0.6614173228346457
        },
        {
          "duration": 0.23999999999999488,
          "durationTicks": 48,
          "midi": 41,
          "name": "F2",
          "ticks": 18288,
          "time": 91.44,
          "velocity": 0.6614173228346457
        },
        {
          "duration": 0.2400000000000091,
          "durationTicks": 48,
          "midi": 36,
          "name": "C2",
          "ticks": 18336,
          "time": 91.67999999999999,
          "velocity": 0.6614173228346457
        },
        {
          "duration": 0.23999999999999488,
          "durationTicks": 48,
          "midi": 41,
          "name": "F2",
          "ticks": 18384,
          "time": 91.92,
          "velocity": 0.6614173228346457
        },
        {
          "duration": 0.23999999999999488,
          "durationTicks": 48,
          "midi": 36,
          "name": "C2",
          "ticks": 18432,
          "time": 92.16,
          "velocity": 0.6614173228346457
        },
        {
          "duration": 0.23999999999999488,
          "durationTicks": 48,
          "midi": 36,
          "name": "C2",
          "ticks": 18504,
          "time": 92.52,
          "velocity": 0.6614173228346457
        },
        {
          "duration": 0.12000000000000455,
          "durationTicks": 24,
          "midi": 36,
          "name": "C2",
          "ticks": 18576,
          "time": 92.88,
          "velocity": 0.6614173228346457
        },
        {
          "duration": 0.11999999999999034,
          "durationTicks": 24,
          "midi": 36,
          "name": "C2",
          "ticks": 18600,
          "time": 93,
          "velocity": 0.6614173228346457
        },
        {
          "duration": 0.0799999999999983,
          "durationTicks": 16,
          "midi": 36,
          "name": "C2",
          "ticks": 18624,
          "time": 93.11999999999999,
          "velocity": 0.6614173228346457
        },
        {
          "duration": 0.0799999999999983,
          "durationTicks": 16,
          "midi": 36,
          "name": "C2",
          "ticks": 18672,
          "time": 93.36,
          "velocity": 0.6614173228346457
        },
        {
          "duration": 0.0799999999999983,
          "durationTicks": 16,
          "midi": 41,
          "name": "F2",
          "ticks": 18720,
          "time": 93.6,
          "velocity": 0.6614173228346457
        },
        {
          "duration": 0.07999999999998408,
          "durationTicks": 16,
          "midi": 41,
          "name": "F2",
          "ticks": 18768,
          "time": 93.84,
          "velocity": 0.6614173228346457
        },
        {
          "duration": 0.23999999999999488,
          "durationTicks": 48,
          "midi": 43,
          "name": "G2",
          "ticks": 18816,
          "time": 94.08,
          "velocity": 0.6614173228346457
        },
        {
          "duration": 0.23999999999999488,
          "durationTicks": 48,
          "midi": 38,
          "name": "D2",
          "ticks": 18888,
          "time": 94.44,
          "velocity": 0.6614173228346457
        },
        {
          "duration": 0.23999999999999488,
          "durationTicks": 48,
          "midi": 43,
          "name": "G2",
          "ticks": 18960,
          "time": 94.8,
          "velocity": 0.6614173228346457
        },
        {
          "duration": 0.2400000000000091,
          "durationTicks": 48,
          "midi": 41,
          "name": "F2",
          "ticks": 19008,
          "time": 95.03999999999999,
          "velocity": 0.6614173228346457
        },
        {
          "duration": 0.23999999999999488,
          "durationTicks": 48,
          "midi": 41,
          "name": "F2",
          "ticks": 19056,
          "time": 95.28,
          "velocity": 0.6614173228346457
        },
        {
          "duration": 0.23999999999999488,
          "durationTicks": 48,
          "midi": 36,
          "name": "C2",
          "ticks": 19104,
          "time": 95.52,
          "velocity": 0.6614173228346457
        },
        {
          "duration": 0.2400000000000091,
          "durationTicks": 48,
          "midi": 41,
          "name": "F2",
          "ticks": 19152,
          "time": 95.75999999999999,
          "velocity": 0.6614173228346457
        },
        {
          "duration": 0.1599999999999966,
          "durationTicks": 32,
          "midi": 43,
          "name": "G2",
          "ticks": 19968,
          "time": 99.84,
          "velocity": 0.6614173228346457
        },
        {
          "duration": 0.1599999999999966,
          "durationTicks": 32,
          "midi": 43,
          "name": "G2",
          "ticks": 20040,
          "time": 100.2,
          "velocity": 0.6614173228346457
        },
        {
          "duration": 0.1599999999999966,
          "durationTicks": 32,
          "midi": 41,
          "name": "F2",
          "ticks": 20112,
          "time": 100.56,
          "velocity": 0.6614173228346457
        },
        {
          "duration": 0.1599999999999966,
          "durationTicks": 32,
          "midi": 43,
          "name": "G2",
          "ticks": 20160,
          "time": 100.8,
          "velocity": 0.6614173228346457
        },
        {
          "duration": 0.1600000000000108,
          "durationTicks": 32,
          "midi": 43,
          "name": "G2",
          "ticks": 20208,
          "time": 101.03999999999999,
          "velocity": 0.6614173228346457
        },
        {
          "duration": 0.1599999999999966,
          "durationTicks": 32,
          "midi": 38,
          "name": "D2",
          "ticks": 20256,
          "time": 101.28,
          "velocity": 0.6614173228346457
        },
        {
          "duration": 0.1600000000000108,
          "durationTicks": 32,
          "midi": 41,
          "name": "F2",
          "ticks": 20304,
          "time": 101.52,
          "velocity": 0.6614173228346457
        },
        {
          "duration": 0.1600000000000108,
          "durationTicks": 32,
          "midi": 43,
          "name": "G2",
          "ticks": 20352,
          "time": 101.75999999999999,
          "velocity": 0.6614173228346457
        },
        {
          "duration": 0.1600000000000108,
          "durationTicks": 32,
          "midi": 43,
          "name": "G2",
          "ticks": 20424,
          "time": 102.11999999999999,
          "velocity": 0.6614173228346457
        },
        {
          "duration": 0.1600000000000108,
          "durationTicks": 32,
          "midi": 41,
          "name": "F2",
          "ticks": 20496,
          "time": 102.47999999999999,
          "velocity": 0.6614173228346457
        },
        {
          "duration": 0.1599999999999966,
          "durationTicks": 32,
          "midi": 43,
          "name": "G2",
          "ticks": 20544,
          "time": 102.72,
          "velocity": 0.6614173228346457
        },
        {
          "duration": 0.1600000000000108,
          "durationTicks": 32,
          "midi": 43,
          "name": "G2",
          "ticks": 20592,
          "time": 102.96,
          "velocity": 0.6614173228346457
        },
        {
          "duration": 0.1599999999999966,
          "durationTicks": 32,
          "midi": 43,
          "name": "G2",
          "ticks": 20640,
          "time": 103.2,
          "velocity": 0.6614173228346457
        },
        {
          "duration": 0.1599999999999966,
          "durationTicks": 32,
          "midi": 41,
          "name": "F2",
          "ticks": 20688,
          "time": 103.44,
          "velocity": 0.6614173228346457
        },
        {
          "duration": 0.1600000000000108,
          "durationTicks": 32,
          "midi": 43,
          "name": "G2",
          "ticks": 20736,
          "time": 103.67999999999999,
          "velocity": 0.6614173228346457
        },
        {
          "duration": 0.1600000000000108,
          "durationTicks": 32,
          "midi": 43,
          "name": "G2",
          "ticks": 20808,
          "time": 104.03999999999999,
          "velocity": 0.6614173228346457
        },
        {
          "duration": 0.1600000000000108,
          "durationTicks": 32,
          "midi": 41,
          "name": "F2",
          "ticks": 20880,
          "time": 104.39999999999999,
          "velocity": 0.6614173228346457
        },
        {
          "duration": 0.1599999999999966,
          "durationTicks": 32,
          "midi": 43,
          "name": "G2",
          "ticks": 20928,
          "time": 104.64,
          "velocity": 0.6614173228346457
        },
        {
          "duration": 0.1600000000000108,
          "durationTicks": 32,
          "midi": 43,
          "name": "G2",
          "ticks": 20976,
          "time": 104.88,
          "velocity": 0.6614173228346457
        },
        {
          "duration": 0.1600000000000108,
          "durationTicks": 32,
          "midi": 38,
          "name": "D2",
          "ticks": 21024,
          "time": 105.11999999999999,
          "velocity": 0.6614173228346457
        },
        {
          "duration": 0.1599999999999966,
          "durationTicks": 32,
          "midi": 41,
          "name": "F2",
          "ticks": 21072,
          "time": 105.36,
          "velocity": 0.6614173228346457
        },
        {
          "duration": 0.1600000000000108,
          "durationTicks": 32,
          "midi": 43,
          "name": "G2",
          "ticks": 21120,
          "time": 105.6,
          "velocity": 0.6614173228346457
        },
        {
          "duration": 0.1600000000000108,
          "durationTicks": 32,
          "midi": 43,
          "name": "G2",
          "ticks": 21192,
          "time": 105.96,
          "velocity": 0.6614173228346457
        },
        {
          "duration": 0.1600000000000108,
          "durationTicks": 32,
          "midi": 41,
          "name": "F2",
          "ticks": 21264,
          "time": 106.32,
          "velocity": 0.6614173228346457
        },
        {
          "duration": 0.1599999999999966,
          "durationTicks": 32,
          "midi": 43,
          "name": "G2",
          "ticks": 21312,
          "time": 106.56,
          "velocity": 0.6614173228346457
        },
        {
          "duration": 0.1599999999999966,
          "durationTicks": 32,
          "midi": 43,
          "name": "G2",
          "ticks": 21360,
          "time": 106.8,
          "velocity": 0.6614173228346457
        },
        {
          "duration": 0.1600000000000108,
          "durationTicks": 32,
          "midi": 43,
          "name": "G2",
          "ticks": 21408,
          "time": 107.03999999999999,
          "velocity": 0.6614173228346457
        },
        {
          "duration": 0.1599999999999966,
          "durationTicks": 32,
          "midi": 41,
          "name": "F2",
          "ticks": 21456,
          "time": 107.28,
          "velocity": 0.6614173228346457
        },
        {
          "duration": 0.1600000000000108,
          "durationTicks": 32,
          "midi": 39,
          "name": "D#2",
          "ticks": 21504,
          "time": 107.52,
          "velocity": 0.6614173228346457
        },
        {
          "duration": 0.1600000000000108,
          "durationTicks": 32,
          "midi": 39,
          "name": "D#2",
          "ticks": 21576,
          "time": 107.88,
          "velocity": 0.6614173228346457
        },
        {
          "duration": 0.1600000000000108,
          "durationTicks": 32,
          "midi": 38,
          "name": "D2",
          "ticks": 21648,
          "time": 108.24,
          "velocity": 0.6614173228346457
        },
        {
          "duration": 0.1600000000000108,
          "durationTicks": 32,
          "midi": 39,
          "name": "D#2",
          "ticks": 21696,
          "time": 108.47999999999999,
          "velocity": 0.6614173228346457
        },
        {
          "duration": 0.1599999999999966,
          "durationTicks": 32,
          "midi": 39,
          "name": "D#2",
          "ticks": 21744,
          "time": 108.72,
          "velocity": 0.6614173228346457
        },
        {
          "duration": 0.1600000000000108,
          "durationTicks": 32,
          "midi": 38,
          "name": "D2",
          "ticks": 21792,
          "time": 108.96,
          "velocity": 0.6614173228346457
        },
        {
          "duration": 0.1599999999999966,
          "durationTicks": 32,
          "midi": 41,
          "name": "F2",
          "ticks": 21840,
          "time": 109.2,
          "velocity": 0.6614173228346457
        },
        {
          "duration": 0.1599999999999966,
          "durationTicks": 32,
          "midi": 39,
          "name": "D#2",
          "ticks": 21888,
          "time": 109.44,
          "velocity": 0.6614173228346457
        },
        {
          "duration": 0.1599999999999966,
          "durationTicks": 32,
          "midi": 39,
          "name": "D#2",
          "ticks": 21960,
          "time": 109.8,
          "velocity": 0.6614173228346457
        },
        {
          "duration": 0.1600000000000108,
          "durationTicks": 32,
          "midi": 38,
          "name": "D2",
          "ticks": 22032,
          "time": 110.16,
          "velocity": 0.6614173228346457
        },
        {
          "duration": 0.1600000000000108,
          "durationTicks": 32,
          "midi": 39,
          "name": "D#2",
          "ticks": 22080,
          "time": 110.39999999999999,
          "velocity": 0.6614173228346457
        },
        {
          "duration": 0.1599999999999966,
          "durationTicks": 32,
          "midi": 39,
          "name": "D#2",
          "ticks": 22128,
          "time": 110.64,
          "velocity": 0.6614173228346457
        },
        {
          "duration": 0.1600000000000108,
          "durationTicks": 32,
          "midi": 38,
          "name": "D2",
          "ticks": 22176,
          "time": 110.88,
          "velocity": 0.6614173228346457
        },
        {
          "duration": 0.1600000000000108,
          "durationTicks": 32,
          "midi": 41,
          "name": "F2",
          "ticks": 22224,
          "time": 111.11999999999999,
          "velocity": 0.6614173228346457
        },
        {
          "duration": 0.1599999999999966,
          "durationTicks": 32,
          "midi": 39,
          "name": "D#2",
          "ticks": 22272,
          "time": 111.36,
          "velocity": 0.6614173228346457
        },
        {
          "duration": 0.1599999999999966,
          "durationTicks": 32,
          "midi": 39,
          "name": "D#2",
          "ticks": 22344,
          "time": 111.72,
          "velocity": 0.6614173228346457
        },
        {
          "duration": 0.1599999999999966,
          "durationTicks": 32,
          "midi": 38,
          "name": "D2",
          "ticks": 22416,
          "time": 112.08,
          "velocity": 0.6614173228346457
        },
        {
          "duration": 0.1600000000000108,
          "durationTicks": 32,
          "midi": 39,
          "name": "D#2",
          "ticks": 22464,
          "time": 112.32,
          "velocity": 0.6614173228346457
        },
        {
          "duration": 0.1599999999999966,
          "durationTicks": 32,
          "midi": 39,
          "name": "D#2",
          "ticks": 22512,
          "time": 112.56,
          "velocity": 0.6614173228346457
        },
        {
          "duration": 0.1599999999999966,
          "durationTicks": 32,
          "midi": 38,
          "name": "D2",
          "ticks": 22560,
          "time": 112.8,
          "velocity": 0.6614173228346457
        },
        {
          "duration": 0.1600000000000108,
          "durationTicks": 32,
          "midi": 41,
          "name": "F2",
          "ticks": 22608,
          "time": 113.03999999999999,
          "velocity": 0.6614173228346457
        },
        {
          "duration": 0.1599999999999966,
          "durationTicks": 32,
          "midi": 39,
          "name": "D#2",
          "ticks": 22656,
          "time": 113.28,
          "velocity": 0.6614173228346457
        },
        {
          "duration": 0.1599999999999966,
          "durationTicks": 32,
          "midi": 39,
          "name": "D#2",
          "ticks": 22728,
          "time": 113.64,
          "velocity": 0.6614173228346457
        },
        {
          "duration": 0.1599999999999966,
          "durationTicks": 32,
          "midi": 38,
          "name": "D2",
          "ticks": 22800,
          "time": 114,
          "velocity": 0.6614173228346457
        },
        {
          "duration": 0.1600000000000108,
          "durationTicks": 32,
          "midi": 39,
          "name": "D#2",
          "ticks": 22848,
          "time": 114.24,
          "velocity": 0.6614173228346457
        },
        {
          "duration": 0.1600000000000108,
          "durationTicks": 32,
          "midi": 39,
          "name": "D#2",
          "ticks": 22896,
          "time": 114.47999999999999,
          "velocity": 0.6614173228346457
        },
        {
          "duration": 0.1599999999999966,
          "durationTicks": 32,
          "midi": 38,
          "name": "D2",
          "ticks": 22944,
          "time": 114.72,
          "velocity": 0.6614173228346457
        },
        {
          "duration": 0.1600000000000108,
          "durationTicks": 32,
          "midi": 41,
          "name": "F2",
          "ticks": 22992,
          "time": 114.96,
          "velocity": 0.6614173228346457
        },
        {
          "duration": 0.1600000000000108,
          "durationTicks": 32,
          "midi": 43,
          "name": "G2",
          "ticks": 23040,
          "time": 115.19999999999999,
          "velocity": 0.6614173228346457
        },
        {
          "duration": 0.1599999999999966,
          "durationTicks": 32,
          "midi": 43,
          "name": "G2",
          "ticks": 23112,
          "time": 115.56,
          "velocity": 0.6614173228346457
        },
        {
          "duration": 0.1599999999999966,
          "durationTicks": 32,
          "midi": 41,
          "name": "F2",
          "ticks": 23184,
          "time": 115.92,
          "velocity": 0.6614173228346457
        },
        {
          "duration": 0.1599999999999966,
          "durationTicks": 32,
          "midi": 43,
          "name": "G2",
          "ticks": 23232,
          "time": 116.16,
          "velocity": 0.6614173228346457
        },
        {
          "duration": 0.1600000000000108,
          "durationTicks": 32,
          "midi": 43,
          "name": "G2",
          "ticks": 23280,
          "time": 116.39999999999999,
          "velocity": 0.6614173228346457
        },
        {
          "duration": 0.1599999999999966,
          "durationTicks": 32,
          "midi": 38,
          "name": "D2",
          "ticks": 23328,
          "time": 116.64,
          "velocity": 0.6614173228346457
        },
        {
          "duration": 0.1600000000000108,
          "durationTicks": 32,
          "midi": 41,
          "name": "F2",
          "ticks": 23376,
          "time": 116.88,
          "velocity": 0.6614173228346457
        },
        {
          "duration": 0.1600000000000108,
          "durationTicks": 32,
          "midi": 43,
          "name": "G2",
          "ticks": 23424,
          "time": 117.11999999999999,
          "velocity": 0.6614173228346457
        },
        {
          "duration": 0.1600000000000108,
          "durationTicks": 32,
          "midi": 43,
          "name": "G2",
          "ticks": 23496,
          "time": 117.47999999999999,
          "velocity": 0.6614173228346457
        },
        {
          "duration": 0.1600000000000108,
          "durationTicks": 32,
          "midi": 41,
          "name": "F2",
          "ticks": 23568,
          "time": 117.83999999999999,
          "velocity": 0.6614173228346457
        },
        {
          "duration": 0.1599999999999966,
          "durationTicks": 32,
          "midi": 43,
          "name": "G2",
          "ticks": 23616,
          "time": 118.08,
          "velocity": 0.6614173228346457
        },
        {
          "duration": 0.1600000000000108,
          "durationTicks": 32,
          "midi": 43,
          "name": "G2",
          "ticks": 23664,
          "time": 118.32,
          "velocity": 0.6614173228346457
        },
        {
          "duration": 0.1599999999999966,
          "durationTicks": 32,
          "midi": 43,
          "name": "G2",
          "ticks": 23712,
          "time": 118.56,
          "velocity": 0.6614173228346457
        },
        {
          "duration": 0.1599999999999966,
          "durationTicks": 32,
          "midi": 41,
          "name": "F2",
          "ticks": 23760,
          "time": 118.8,
          "velocity": 0.6614173228346457
        },
        {
          "duration": 0.1600000000000108,
          "durationTicks": 32,
          "midi": 43,
          "name": "G2",
          "ticks": 23808,
          "time": 119.03999999999999,
          "velocity": 0.6614173228346457
        },
        {
          "duration": 0.1600000000000108,
          "durationTicks": 32,
          "midi": 43,
          "name": "G2",
          "ticks": 23880,
          "time": 119.39999999999999,
          "velocity": 0.6614173228346457
        },
        {
          "duration": 0.1600000000000108,
          "durationTicks": 32,
          "midi": 41,
          "name": "F2",
          "ticks": 23952,
          "time": 119.75999999999999,
          "velocity": 0.6614173228346457
        },
        {
          "duration": 0.1599999999999966,
          "durationTicks": 32,
          "midi": 43,
          "name": "G2",
          "ticks": 24000,
          "time": 120,
          "velocity": 0.6614173228346457
        },
        {
          "duration": 0.1600000000000108,
          "durationTicks": 32,
          "midi": 43,
          "name": "G2",
          "ticks": 24048,
          "time": 120.24,
          "velocity": 0.6614173228346457
        },
        {
          "duration": 0.1600000000000108,
          "durationTicks": 32,
          "midi": 38,
          "name": "D2",
          "ticks": 24096,
          "time": 120.47999999999999,
          "velocity": 0.6614173228346457
        },
        {
          "duration": 0.1599999999999966,
          "durationTicks": 32,
          "midi": 41,
          "name": "F2",
          "ticks": 24144,
          "time": 120.72,
          "velocity": 0.6614173228346457
        },
        {
          "duration": 0.1600000000000108,
          "durationTicks": 32,
          "midi": 43,
          "name": "G2",
          "ticks": 24192,
          "time": 120.96,
          "velocity": 0.6614173228346457
        },
        {
          "duration": 0.1600000000000108,
          "durationTicks": 32,
          "midi": 43,
          "name": "G2",
          "ticks": 24264,
          "time": 121.32,
          "velocity": 0.6614173228346457
        },
        {
          "duration": 0.1600000000000108,
          "durationTicks": 32,
          "midi": 41,
          "name": "F2",
          "ticks": 24336,
          "time": 121.67999999999999,
          "velocity": 0.6614173228346457
        },
        {
          "duration": 0.1599999999999966,
          "durationTicks": 32,
          "midi": 43,
          "name": "G2",
          "ticks": 24384,
          "time": 121.92,
          "velocity": 0.6614173228346457
        },
        {
          "duration": 0.1599999999999966,
          "durationTicks": 32,
          "midi": 43,
          "name": "G2",
          "ticks": 24432,
          "time": 122.16,
          "velocity": 0.6614173228346457
        },
        {
          "duration": 0.1600000000000108,
          "durationTicks": 32,
          "midi": 43,
          "name": "G2",
          "ticks": 24480,
          "time": 122.39999999999999,
          "velocity": 0.6614173228346457
        },
        {
          "duration": 0.1599999999999966,
          "durationTicks": 32,
          "midi": 41,
          "name": "F2",
          "ticks": 24528,
          "time": 122.64,
          "velocity": 0.6614173228346457
        },
        {
          "duration": 0.1599999999999966,
          "durationTicks": 32,
          "midi": 39,
          "name": "D#2",
          "ticks": 24576,
          "time": 122.88,
          "velocity": 0.6614173228346457
        },
        {
          "duration": 0.1599999999999966,
          "durationTicks": 32,
          "midi": 39,
          "name": "D#2",
          "ticks": 24648,
          "time": 123.24,
          "velocity": 0.6614173228346457
        },
        {
          "duration": 0.1599999999999966,
          "durationTicks": 32,
          "midi": 38,
          "name": "D2",
          "ticks": 24720,
          "time": 123.6,
          "velocity": 0.6614173228346457
        },
        {
          "duration": 0.1599999999999966,
          "durationTicks": 32,
          "midi": 39,
          "name": "D#2",
          "ticks": 24768,
          "time": 123.83999999999999,
          "velocity": 0.6614173228346457
        },
        {
          "duration": 0.15999999999998238,
          "durationTicks": 32,
          "midi": 39,
          "name": "D#2",
          "ticks": 24816,
          "time": 124.08,
          "velocity": 0.6614173228346457
        },
        {
          "duration": 0.1599999999999966,
          "durationTicks": 32,
          "midi": 38,
          "name": "D2",
          "ticks": 24864,
          "time": 124.32,
          "velocity": 0.6614173228346457
        },
        {
          "duration": 0.15999999999998238,
          "durationTicks": 32,
          "midi": 41,
          "name": "F2",
          "ticks": 24912,
          "time": 124.56,
          "velocity": 0.6614173228346457
        },
        {
          "duration": 0.15999999999998238,
          "durationTicks": 32,
          "midi": 39,
          "name": "D#2",
          "ticks": 24960,
          "time": 124.8,
          "velocity": 0.6614173228346457
        },
        {
          "duration": 0.1599999999999966,
          "durationTicks": 32,
          "midi": 39,
          "name": "D#2",
          "ticks": 25032,
          "time": 125.16,
          "velocity": 0.6614173228346457
        },
        {
          "duration": 0.1599999999999966,
          "durationTicks": 32,
          "midi": 38,
          "name": "D2",
          "ticks": 25104,
          "time": 125.52,
          "velocity": 0.6614173228346457
        },
        {
          "duration": 0.1599999999999966,
          "durationTicks": 32,
          "midi": 39,
          "name": "D#2",
          "ticks": 25152,
          "time": 125.75999999999999,
          "velocity": 0.6614173228346457
        },
        {
          "duration": 0.15999999999998238,
          "durationTicks": 32,
          "midi": 39,
          "name": "D#2",
          "ticks": 25200,
          "time": 126,
          "velocity": 0.6614173228346457
        },
        {
          "duration": 0.1599999999999966,
          "durationTicks": 32,
          "midi": 38,
          "name": "D2",
          "ticks": 25248,
          "time": 126.24,
          "velocity": 0.6614173228346457
        },
        {
          "duration": 0.1599999999999966,
          "durationTicks": 32,
          "midi": 41,
          "name": "F2",
          "ticks": 25296,
          "time": 126.47999999999999,
          "velocity": 0.6614173228346457
        },
        {
          "duration": 0.15999999999998238,
          "durationTicks": 32,
          "midi": 39,
          "name": "D#2",
          "ticks": 25344,
          "time": 126.72,
          "velocity": 0.6614173228346457
        },
        {
          "duration": 0.15999999999998238,
          "durationTicks": 32,
          "midi": 39,
          "name": "D#2",
          "ticks": 25416,
          "time": 127.08,
          "velocity": 0.6614173228346457
        },
        {
          "duration": 0.15999999999998238,
          "durationTicks": 32,
          "midi": 38,
          "name": "D2",
          "ticks": 25488,
          "time": 127.44,
          "velocity": 0.6614173228346457
        },
        {
          "duration": 0.1599999999999966,
          "durationTicks": 32,
          "midi": 39,
          "name": "D#2",
          "ticks": 25536,
          "time": 127.67999999999999,
          "velocity": 0.6614173228346457
        },
        {
          "duration": 0.15999999999998238,
          "durationTicks": 32,
          "midi": 39,
          "name": "D#2",
          "ticks": 25584,
          "time": 127.92,
          "velocity": 0.6614173228346457
        },
        {
          "duration": 0.1599999999999966,
          "durationTicks": 32,
          "midi": 38,
          "name": "D2",
          "ticks": 25632,
          "time": 128.16,
          "velocity": 0.6614173228346457
        },
        {
          "duration": 0.15999999999996817,
          "durationTicks": 32,
          "midi": 41,
          "name": "F2",
          "ticks": 25680,
          "time": 128.4,
          "velocity": 0.6614173228346457
        },
        {
          "duration": 0.1599999999999966,
          "durationTicks": 32,
          "midi": 39,
          "name": "D#2",
          "ticks": 25728,
          "time": 128.64,
          "velocity": 0.6614173228346457
        },
        {
          "duration": 0.1599999999999966,
          "durationTicks": 32,
          "midi": 39,
          "name": "D#2",
          "ticks": 25800,
          "time": 129,
          "velocity": 0.6614173228346457
        },
        {
          "duration": 0.1599999999999966,
          "durationTicks": 32,
          "midi": 38,
          "name": "D2",
          "ticks": 25872,
          "time": 129.35999999999999,
          "velocity": 0.6614173228346457
        },
        {
          "duration": 0.1599999999999966,
          "durationTicks": 32,
          "midi": 39,
          "name": "D#2",
          "ticks": 25920,
          "time": 129.6,
          "velocity": 0.6614173228346457
        },
        {
          "duration": 0.1599999999999966,
          "durationTicks": 32,
          "midi": 39,
          "name": "D#2",
          "ticks": 25968,
          "time": 129.84,
          "velocity": 0.6614173228346457
        },
        {
          "duration": 0.1599999999999966,
          "durationTicks": 32,
          "midi": 38,
          "name": "D2",
          "ticks": 26016,
          "time": 130.07999999999998,
          "velocity": 0.6614173228346457
        },
        {
          "duration": 0.1599999999999966,
          "durationTicks": 32,
          "midi": 41,
          "name": "F2",
          "ticks": 26064,
          "time": 130.32,
          "velocity": 0.6614173228346457
        },
        {
          "duration": 0.1599999999999966,
          "durationTicks": 32,
          "midi": 36,
          "name": "C2",
          "ticks": 26112,
          "time": 130.56,
          "velocity": 0.6614173228346457
        },
        {
          "duration": 0.1599999999999966,
          "durationTicks": 32,
          "midi": 36,
          "name": "C2",
          "ticks": 26184,
          "time": 130.92,
          "velocity": 0.6614173228346457
        },
        {
          "duration": 0.1599999999999966,
          "durationTicks": 32,
          "midi": 48,
          "name": "C3",
          "ticks": 26256,
          "time": 131.28,
          "velocity": 0.6614173228346457
        },
        {
          "duration": 0.1599999999999966,
          "durationTicks": 32,
          "midi": 36,
          "name": "C2",
          "ticks": 26304,
          "time": 131.51999999999998,
          "velocity": 0.6614173228346457
        },
        {
          "duration": 0.1599999999999966,
          "durationTicks": 32,
          "midi": 36,
          "name": "C2",
          "ticks": 26352,
          "time": 131.76,
          "velocity": 0.6614173228346457
        },
        {
          "duration": 0.1599999999999966,
          "durationTicks": 32,
          "midi": 36,
          "name": "C2",
          "ticks": 26400,
          "time": 132,
          "velocity": 0.6614173228346457
        },
        {
          "duration": 0.15999999999996817,
          "durationTicks": 32,
          "midi": 48,
          "name": "C3",
          "ticks": 26448,
          "time": 132.24,
          "velocity": 0.6614173228346457
        },
        {
          "duration": 0.1599999999999966,
          "durationTicks": 32,
          "midi": 38,
          "name": "D2",
          "ticks": 26496,
          "time": 132.48,
          "velocity": 0.6614173228346457
        },
        {
          "duration": 0.1599999999999966,
          "durationTicks": 32,
          "midi": 38,
          "name": "D2",
          "ticks": 26568,
          "time": 132.84,
          "velocity": 0.6614173228346457
        },
        {
          "duration": 0.1599999999999966,
          "durationTicks": 32,
          "midi": 50,
          "name": "D3",
          "ticks": 26640,
          "time": 133.2,
          "velocity": 0.6614173228346457
        },
        {
          "duration": 0.1599999999999966,
          "durationTicks": 32,
          "midi": 38,
          "name": "D2",
          "ticks": 26688,
          "time": 133.44,
          "velocity": 0.6614173228346457
        },
        {
          "duration": 0.15999999999996817,
          "durationTicks": 32,
          "midi": 38,
          "name": "D2",
          "ticks": 26736,
          "time": 133.68,
          "velocity": 0.6614173228346457
        },
        {
          "duration": 0.1599999999999966,
          "durationTicks": 32,
          "midi": 38,
          "name": "D2",
          "ticks": 26784,
          "time": 133.92,
          "velocity": 0.6614173228346457
        },
        {
          "duration": 0.1599999999999966,
          "durationTicks": 32,
          "midi": 50,
          "name": "D3",
          "ticks": 26832,
          "time": 134.16,
          "velocity": 0.6614173228346457
        },
        {
          "duration": 0.15999999999996817,
          "durationTicks": 32,
          "midi": 39,
          "name": "D#2",
          "ticks": 26880,
          "time": 134.4,
          "velocity": 0.6614173228346457
        },
        {
          "duration": 0.1599999999999966,
          "durationTicks": 32,
          "midi": 39,
          "name": "D#2",
          "ticks": 26952,
          "time": 134.76,
          "velocity": 0.6614173228346457
        },
        {
          "duration": 0.15999999999996817,
          "durationTicks": 32,
          "midi": 51,
          "name": "D#3",
          "ticks": 27024,
          "time": 135.12,
          "velocity": 0.6614173228346457
        },
        {
          "duration": 0.1599999999999966,
          "durationTicks": 32,
          "midi": 41,
          "name": "F2",
          "ticks": 27072,
          "time": 135.35999999999999,
          "velocity": 0.6614173228346457
        },
        {
          "duration": 0.1599999999999966,
          "durationTicks": 32,
          "midi": 41,
          "name": "F2",
          "ticks": 27120,
          "time": 135.6,
          "velocity": 0.6614173228346457
        },
        {
          "duration": 0.1599999999999966,
          "durationTicks": 32,
          "midi": 42,
          "name": "F#2",
          "ticks": 27168,
          "time": 135.84,
          "velocity": 0.6614173228346457
        },
        {
          "duration": 0.1599999999999966,
          "durationTicks": 32,
          "midi": 54,
          "name": "F#3",
          "ticks": 27216,
          "time": 136.07999999999998,
          "velocity": 0.6614173228346457
        },
        {
          "duration": 0.1599999999999966,
          "durationTicks": 32,
          "midi": 43,
          "name": "G2",
          "ticks": 27264,
          "time": 136.32,
          "velocity": 0.6614173228346457
        },
        {
          "duration": 0.15999999999996817,
          "durationTicks": 32,
          "midi": 43,
          "name": "G2",
          "ticks": 27336,
          "time": 136.68,
          "velocity": 0.6614173228346457
        },
        {
          "duration": 0.1599999999999966,
          "durationTicks": 32,
          "midi": 55,
          "name": "G3",
          "ticks": 27408,
          "time": 137.04,
          "velocity": 0.6614173228346457
        },
        {
          "duration": 0.1599999999999966,
          "durationTicks": 32,
          "midi": 41,
          "name": "F2",
          "ticks": 27456,
          "time": 137.28,
          "velocity": 0.6614173228346457
        },
        {
          "duration": 0.1599999999999966,
          "durationTicks": 32,
          "midi": 41,
          "name": "F2",
          "ticks": 27504,
          "time": 137.51999999999998,
          "velocity": 0.6614173228346457
        },
        {
          "duration": 0.1599999999999966,
          "durationTicks": 32,
          "midi": 41,
          "name": "F2",
          "ticks": 27552,
          "time": 137.76,
          "velocity": 0.6614173228346457
        },
        {
          "duration": 0.1599999999999966,
          "durationTicks": 32,
          "midi": 53,
          "name": "F3",
          "ticks": 27600,
          "time": 138,
          "velocity": 0.6614173228346457
        },
        {
          "duration": 0.15999999999996817,
          "durationTicks": 32,
          "midi": 36,
          "name": "C2",
          "ticks": 27648,
          "time": 138.24,
          "velocity": 0.6614173228346457
        },
        {
          "duration": 0.1599999999999966,
          "durationTicks": 32,
          "midi": 36,
          "name": "C2",
          "ticks": 27720,
          "time": 138.6,
          "velocity": 0.6614173228346457
        },
        {
          "duration": 0.15999999999996817,
          "durationTicks": 32,
          "midi": 48,
          "name": "C3",
          "ticks": 27792,
          "time": 138.96,
          "velocity": 0.6614173228346457
        },
        {
          "duration": 0.1599999999999966,
          "durationTicks": 32,
          "midi": 36,
          "name": "C2",
          "ticks": 27840,
          "time": 139.2,
          "velocity": 0.6614173228346457
        },
        {
          "duration": 0.1599999999999966,
          "durationTicks": 32,
          "midi": 36,
          "name": "C2",
          "ticks": 27888,
          "time": 139.44,
          "velocity": 0.6614173228346457
        },
        {
          "duration": 0.15999999999996817,
          "durationTicks": 32,
          "midi": 36,
          "name": "C2",
          "ticks": 27936,
          "time": 139.68,
          "velocity": 0.6614173228346457
        },
        {
          "duration": 0.1599999999999966,
          "durationTicks": 32,
          "midi": 48,
          "name": "C3",
          "ticks": 27984,
          "time": 139.92,
          "velocity": 0.6614173228346457
        },
        {
          "duration": 0.1599999999999966,
          "durationTicks": 32,
          "midi": 38,
          "name": "D2",
          "ticks": 28032,
          "time": 140.16,
          "velocity": 0.6614173228346457
        },
        {
          "duration": 0.1599999999999966,
          "durationTicks": 32,
          "midi": 38,
          "name": "D2",
          "ticks": 28104,
          "time": 140.51999999999998,
          "velocity": 0.6614173228346457
        },
        {
          "duration": 0.1599999999999966,
          "durationTicks": 32,
          "midi": 50,
          "name": "D3",
          "ticks": 28176,
          "time": 140.88,
          "velocity": 0.6614173228346457
        },
        {
          "duration": 0.15999999999996817,
          "durationTicks": 32,
          "midi": 38,
          "name": "D2",
          "ticks": 28224,
          "time": 141.12,
          "velocity": 0.6614173228346457
        },
        {
          "duration": 0.1599999999999966,
          "durationTicks": 32,
          "midi": 38,
          "name": "D2",
          "ticks": 28272,
          "time": 141.35999999999999,
          "velocity": 0.6614173228346457
        },
        {
          "duration": 0.1599999999999966,
          "durationTicks": 32,
          "midi": 38,
          "name": "D2",
          "ticks": 28320,
          "time": 141.6,
          "velocity": 0.6614173228346457
        },
        {
          "duration": 0.15999999999996817,
          "durationTicks": 32,
          "midi": 50,
          "name": "D3",
          "ticks": 28368,
          "time": 141.84,
          "velocity": 0.6614173228346457
        },
        {
          "duration": 0.1599999999999966,
          "durationTicks": 32,
          "midi": 39,
          "name": "D#2",
          "ticks": 28416,
          "time": 142.07999999999998,
          "velocity": 0.6614173228346457
        },
        {
          "duration": 0.1599999999999966,
          "durationTicks": 32,
          "midi": 39,
          "name": "D#2",
          "ticks": 28488,
          "time": 142.44,
          "velocity": 0.6614173228346457
        },
        {
          "duration": 0.1599999999999966,
          "durationTicks": 32,
          "midi": 51,
          "name": "D#3",
          "ticks": 28560,
          "time": 142.79999999999998,
          "velocity": 0.6614173228346457
        },
        {
          "duration": 0.1599999999999966,
          "durationTicks": 32,
          "midi": 41,
          "name": "F2",
          "ticks": 28608,
          "time": 143.04,
          "velocity": 0.6614173228346457
        },
        {
          "duration": 0.1599999999999966,
          "durationTicks": 32,
          "midi": 41,
          "name": "F2",
          "ticks": 28656,
          "time": 143.28,
          "velocity": 0.6614173228346457
        },
        {
          "duration": 0.1599999999999966,
          "durationTicks": 32,
          "midi": 42,
          "name": "F#2",
          "ticks": 28704,
          "time": 143.51999999999998,
          "velocity": 0.6614173228346457
        },
        {
          "duration": 0.1599999999999966,
          "durationTicks": 32,
          "midi": 54,
          "name": "F#3",
          "ticks": 28752,
          "time": 143.76,
          "velocity": 0.6614173228346457
        },
        {
          "duration": 0.1599999999999966,
          "durationTicks": 32,
          "midi": 43,
          "name": "G2",
          "ticks": 28800,
          "time": 144,
          "velocity": 0.6614173228346457
        },
        {
          "duration": 0.1599999999999966,
          "durationTicks": 32,
          "midi": 43,
          "name": "G2",
          "ticks": 28872,
          "time": 144.35999999999999,
          "velocity": 0.6614173228346457
        },
        {
          "duration": 0.1599999999999966,
          "durationTicks": 32,
          "midi": 55,
          "name": "G3",
          "ticks": 28944,
          "time": 144.72,
          "velocity": 0.6614173228346457
        },
        {
          "duration": 0.9599999999999795,
          "durationTicks": 192,
          "midi": 41,
          "name": "F2",
          "ticks": 28992,
          "time": 144.96,
          "velocity": 0.6614173228346457
        }
      ]
    },
    {
      "channel": 0,
      "controlChanges": {
        "6": [
          {
            "number": 6,
            "ticks": 0,
            "time": 0,
            "value": 0.09448818897637795
          }
        ],
        "7": [
          {
            "number": 7,
            "ticks": 0,
            "time": 0,
            "value": 0.7874015748031497
          },
          {
            "number": 7,
            "ticks": 0,
            "time": 0,
            "value": 0.7874015748031497
          }
        ],
        "10": [
          {
            "number": 10,
            "ticks": 0,
            "time": 0,
            "value": 0.5039370078740157
          },
          {
            "number": 10,
            "ticks": 0,
            "time": 0,
            "value": 0.5039370078740157
          }
        ],
        "100": [
          {
            "number": 100,
            "ticks": 0,
            "time": 0,
            "value": 0
          }
        ],
        "101": [
          {
            "number": 101,
            "ticks": 0,
            "time": 0,
            "value": 0
          }
        ]
      },
      "pitchBends": [
        {
          "ticks": 0,
          "time": 0,
          "value": 0
        },
        {
          "ticks": 0,
          "time": 0,
          "value": 0
        }
      ],
      "instrument": {
        "family": "piano",
        "number": 0,
        "name": "acoustic grand piano"
      },
      "name": "Sub",
      "notes": [],
      "endOfTrackTicks": 32340
    },
    {
      "channel": 6,
      "controlChanges": {
        "6": [
          {
            "number": 6,
            "ticks": 0,
            "time": 0,
            "value": 0.09448818897637795
          },
          {
            "number": 6,
            "ticks": 32256,
            "time": 161.28,
            "value": 0.09448818897637795
          },
          {
            "number": 6,
            "ticks": 32340,
            "time": 161.7,
            "value": 0.09448818897637795
          },
          {
            "number": 6,
            "ticks": 32340,
            "time": 161.7,
            "value": 0.09448818897637795
          }
        ],
        "7": [
          {
            "number": 7,
            "ticks": 0,
            "time": 0,
            "value": 0.7874015748031497
          },
          {
            "number": 7,
            "ticks": 32256,
            "time": 161.28,
            "value": 0.7874015748031497
          },
          {
            "number": 7,
            "ticks": 32340,
            "time": 161.7,
            "value": 0.7874015748031497
          },
          {
            "number": 7,
            "ticks": 32340,
            "time": 161.7,
            "value": 0.7874015748031497
          }
        ],
        "10": [
          {
            "number": 10,
            "ticks": 0,
            "time": 0,
            "value": 0.5039370078740157
          },
          {
            "number": 10,
            "ticks": 32256,
            "time": 161.28,
            "value": 0.5039370078740157
          },
          {
            "number": 10,
            "ticks": 32340,
            "time": 161.7,
            "value": 0.5039370078740157
          },
          {
            "number": 10,
            "ticks": 32340,
            "time": 161.7,
            "value": 0.5039370078740157
          }
        ],
        "100": [
          {
            "number": 100,
            "ticks": 0,
            "time": 0,
            "value": 0
          },
          {
            "number": 100,
            "ticks": 32256,
            "time": 161.28,
            "value": 0
          },
          {
            "number": 100,
            "ticks": 32340,
            "time": 161.7,
            "value": 0
          },
          {
            "number": 100,
            "ticks": 32340,
            "time": 161.7,
            "value": 0
          }
        ],
        "101": [
          {
            "number": 101,
            "ticks": 0,
            "time": 0,
            "value": 0
          },
          {
            "number": 101,
            "ticks": 32256,
            "time": 161.28,
            "value": 0
          },
          {
            "number": 101,
            "ticks": 32340,
            "time": 161.7,
            "value": 0
          },
          {
            "number": 101,
            "ticks": 32340,
            "time": 161.7,
            "value": 0
          }
        ]
      },
      "pitchBends": [
        {
          "ticks": 0,
          "time": 0,
          "value": 0
        },
        {
          "ticks": 32256,
          "time": 161.28,
          "value": 0
        },
        {
          "ticks": 32340,
          "time": 161.7,
          "value": 0
        },
        {
          "ticks": 32340,
          "time": 161.7,
          "value": 0
        }
      ],
      "instrument": {
        "family": "bass",
        "number": 33,
        "name": "electric bass (finger)"
      },
      "name": "",
      "notes": [
        {
          "duration": 0.16000000000000192,
          "durationTicks": 32,
          "midi": 31,
          "name": "G1",
          "ticks": 3072,
          "time": 15.36,
          "velocity": 0.8503937007874016
        },
        {
          "duration": 0.16000000000000192,
          "durationTicks": 32,
          "midi": 31,
          "name": "G1",
          "ticks": 3144,
          "time": 15.719999999999999,
          "velocity": 0.8503937007874016
        },
        {
          "duration": 0.1600000000000037,
          "durationTicks": 32,
          "midi": 29,
          "name": "F1",
          "ticks": 3216,
          "time": 16.08,
          "velocity": 0.8503937007874016
        },
        {
          "duration": 0.16000000000000014,
          "durationTicks": 32,
          "midi": 31,
          "name": "G1",
          "ticks": 3264,
          "time": 16.32,
          "velocity": 0.8503937007874016
        },
        {
          "duration": 0.16000000000000014,
          "durationTicks": 32,
          "midi": 31,
          "name": "G1",
          "ticks": 3312,
          "time": 16.56,
          "velocity": 0.8503937007874016
        },
        {
          "duration": 0.16000000000000014,
          "durationTicks": 32,
          "midi": 26,
          "name": "D1",
          "ticks": 3360,
          "time": 16.8,
          "velocity": 0.8503937007874016
        },
        {
          "duration": 0.16000000000000014,
          "durationTicks": 32,
          "midi": 29,
          "name": "F1",
          "ticks": 3408,
          "time": 17.04,
          "velocity": 0.8503937007874016
        },
        {
          "duration": 0.16000000000000014,
          "durationTicks": 32,
          "midi": 31,
          "name": "G1",
          "ticks": 3456,
          "time": 17.28,
          "velocity": 0.8503937007874016
        },
        {
          "duration": 0.16000000000000014,
          "durationTicks": 32,
          "midi": 31,
          "name": "G1",
          "ticks": 3528,
          "time": 17.64,
          "velocity": 0.8503937007874016
        },
        {
          "duration": 0.16000000000000014,
          "durationTicks": 32,
          "midi": 29,
          "name": "F1",
          "ticks": 3600,
          "time": 18,
          "velocity": 0.8503937007874016
        },
        {
          "duration": 0.1600000000000037,
          "durationTicks": 32,
          "midi": 31,
          "name": "G1",
          "ticks": 3648,
          "time": 18.24,
          "velocity": 0.8503937007874016
        },
        {
          "duration": 0.16000000000000014,
          "durationTicks": 32,
          "midi": 31,
          "name": "G1",
          "ticks": 3696,
          "time": 18.48,
          "velocity": 0.8503937007874016
        },
        {
          "duration": 0.16000000000000014,
          "durationTicks": 32,
          "midi": 31,
          "name": "G1",
          "ticks": 3744,
          "time": 18.72,
          "velocity": 0.8503937007874016
        },
        {
          "duration": 0.16000000000000014,
          "durationTicks": 32,
          "midi": 29,
          "name": "F1",
          "ticks": 3792,
          "time": 18.96,
          "velocity": 0.8503937007874016
        },
        {
          "duration": 0.16000000000000014,
          "durationTicks": 32,
          "midi": 31,
          "name": "G1",
          "ticks": 3840,
          "time": 19.2,
          "velocity": 0.8503937007874016
        },
        {
          "duration": 0.16000000000000014,
          "durationTicks": 32,
          "midi": 31,
          "name": "G1",
          "ticks": 3912,
          "time": 19.56,
          "velocity": 0.8503937007874016
        },
        {
          "duration": 0.1600000000000037,
          "durationTicks": 32,
          "midi": 29,
          "name": "F1",
          "ticks": 3984,
          "time": 19.919999999999998,
          "velocity": 0.8503937007874016
        },
        {
          "duration": 0.16000000000000014,
          "durationTicks": 32,
          "midi": 31,
          "name": "G1",
          "ticks": 4032,
          "time": 20.16,
          "velocity": 0.8503937007874016
        },
        {
          "duration": 0.16000000000000014,
          "durationTicks": 32,
          "midi": 31,
          "name": "G1",
          "ticks": 4080,
          "time": 20.4,
          "velocity": 0.8503937007874016
        },
        {
          "duration": 0.16000000000000014,
          "durationTicks": 32,
          "midi": 26,
          "name": "D1",
          "ticks": 4128,
          "time": 20.64,
          "velocity": 0.8503937007874016
        },
        {
          "duration": 0.16000000000000014,
          "durationTicks": 32,
          "midi": 29,
          "name": "F1",
          "ticks": 4176,
          "time": 20.88,
          "velocity": 0.8503937007874016
        },
        {
          "duration": 0.1600000000000037,
          "durationTicks": 32,
          "midi": 31,
          "name": "G1",
          "ticks": 4224,
          "time": 21.119999999999997,
          "velocity": 0.8503937007874016
        },
        {
          "duration": 0.16000000000000014,
          "durationTicks": 32,
          "midi": 31,
          "name": "G1",
          "ticks": 4296,
          "time": 21.48,
          "velocity": 0.8503937007874016
        },
        {
          "duration": 0.16000000000000014,
          "durationTicks": 32,
          "midi": 29,
          "name": "F1",
          "ticks": 4368,
          "time": 21.84,
          "velocity": 0.8503937007874016
        },
        {
          "duration": 0.1600000000000037,
          "durationTicks": 32,
          "midi": 31,
          "name": "G1",
          "ticks": 4416,
          "time": 22.08,
          "velocity": 0.8503937007874016
        },
        {
          "duration": 0.16000000000000014,
          "durationTicks": 32,
          "midi": 31,
          "name": "G1",
          "ticks": 4464,
          "time": 22.32,
          "velocity": 0.8503937007874016
        },
        {
          "duration": 0.16000000000000014,
          "durationTicks": 32,
          "midi": 31,
          "name": "G1",
          "ticks": 4512,
          "time": 22.56,
          "velocity": 0.8503937007874016
        },
        {
          "duration": 0.16000000000000014,
          "durationTicks": 32,
          "midi": 29,
          "name": "F1",
          "ticks": 4560,
          "time": 22.8,
          "velocity": 0.8503937007874016
        },
        {
          "duration": 0.16000000000000014,
          "durationTicks": 32,
          "midi": 27,
          "name": "D#1",
          "ticks": 4608,
          "time": 23.04,
          "velocity": 0.8503937007874016
        },
        {
          "duration": 0.16000000000000014,
          "durationTicks": 32,
          "midi": 27,
          "name": "D#1",
          "ticks": 4680,
          "time": 23.4,
          "velocity": 0.8503937007874016
        },
        {
          "duration": 0.1600000000000037,
          "durationTicks": 32,
          "midi": 26,
          "name": "D1",
          "ticks": 4752,
          "time": 23.759999999999998,
          "velocity": 0.8503937007874016
        },
        {
          "duration": 0.16000000000000014,
          "durationTicks": 32,
          "midi": 27,
          "name": "D#1",
          "ticks": 4800,
          "time": 24,
          "velocity": 0.8503937007874016
        },
        {
          "duration": 0.16000000000000014,
          "durationTicks": 32,
          "midi": 27,
          "name": "D#1",
          "ticks": 4848,
          "time": 24.24,
          "velocity": 0.8503937007874016
        },
        {
          "duration": 0.16000000000000014,
          "durationTicks": 32,
          "midi": 26,
          "name": "D1",
          "ticks": 4896,
          "time": 24.48,
          "velocity": 0.8503937007874016
        },
        {
          "duration": 0.16000000000000014,
          "durationTicks": 32,
          "midi": 29,
          "name": "F1",
          "ticks": 4944,
          "time": 24.72,
          "velocity": 0.8503937007874016
        },
        {
          "duration": 0.16000000000000014,
          "durationTicks": 32,
          "midi": 27,
          "name": "D#1",
          "ticks": 4992,
          "time": 24.96,
          "velocity": 0.8503937007874016
        },
        {
          "duration": 0.16000000000000014,
          "durationTicks": 32,
          "midi": 27,
          "name": "D#1",
          "ticks": 5064,
          "time": 25.32,
          "velocity": 0.8503937007874016
        },
        {
          "duration": 0.16000000000000014,
          "durationTicks": 32,
          "midi": 26,
          "name": "D1",
          "ticks": 5136,
          "time": 25.68,
          "velocity": 0.8503937007874016
        },
        {
          "duration": 0.1600000000000037,
          "durationTicks": 32,
          "midi": 27,
          "name": "D#1",
          "ticks": 5184,
          "time": 25.919999999999998,
          "velocity": 0.8503937007874016
        },
        {
          "duration": 0.16000000000000014,
          "durationTicks": 32,
          "midi": 27,
          "name": "D#1",
          "ticks": 5232,
          "time": 26.16,
          "velocity": 0.8503937007874016
        },
        {
          "duration": 0.16000000000000014,
          "durationTicks": 32,
          "midi": 26,
          "name": "D1",
          "ticks": 5280,
          "time": 26.4,
          "velocity": 0.8503937007874016
        },
        {
          "duration": 0.16000000000000014,
          "durationTicks": 32,
          "midi": 29,
          "name": "F1",
          "ticks": 5328,
          "time": 26.64,
          "velocity": 0.8503937007874016
        },
        {
          "duration": 0.16000000000000014,
          "durationTicks": 32,
          "midi": 27,
          "name": "D#1",
          "ticks": 5376,
          "time": 26.88,
          "velocity": 0.8503937007874016
        },
        {
          "duration": 0.16000000000000014,
          "durationTicks": 32,
          "midi": 27,
          "name": "D#1",
          "ticks": 5448,
          "time": 27.24,
          "velocity": 0.8503937007874016
        },
        {
          "duration": 0.1600000000000037,
          "durationTicks": 32,
          "midi": 26,
          "name": "D1",
          "ticks": 5520,
          "time": 27.599999999999998,
          "velocity": 0.8503937007874016
        },
        {
          "duration": 0.16000000000000014,
          "durationTicks": 32,
          "midi": 27,
          "name": "D#1",
          "ticks": 5568,
          "time": 27.84,
          "velocity": 0.8503937007874016
        },
        {
          "duration": 0.16000000000000014,
          "durationTicks": 32,
          "midi": 27,
          "name": "D#1",
          "ticks": 5616,
          "time": 28.08,
          "velocity": 0.8503937007874016
        },
        {
          "duration": 0.16000000000000014,
          "durationTicks": 32,
          "midi": 26,
          "name": "D1",
          "ticks": 5664,
          "time": 28.32,
          "velocity": 0.8503937007874016
        },
        {
          "duration": 0.16000000000000014,
          "durationTicks": 32,
          "midi": 29,
          "name": "F1",
          "ticks": 5712,
          "time": 28.56,
          "velocity": 0.8503937007874016
        },
        {
          "duration": 0.1600000000000037,
          "durationTicks": 32,
          "midi": 27,
          "name": "D#1",
          "ticks": 5760,
          "time": 28.799999999999997,
          "velocity": 0.8503937007874016
        },
        {
          "duration": 0.16000000000000014,
          "durationTicks": 32,
          "midi": 27,
          "name": "D#1",
          "ticks": 5832,
          "time": 29.16,
          "velocity": 0.8503937007874016
        },
        {
          "duration": 0.16000000000000014,
          "durationTicks": 32,
          "midi": 26,
          "name": "D1",
          "ticks": 5904,
          "time": 29.52,
          "velocity": 0.8503937007874016
        },
        {
          "duration": 0.1600000000000037,
          "durationTicks": 32,
          "midi": 27,
          "name": "D#1",
          "ticks": 5952,
          "time": 29.759999999999998,
          "velocity": 0.8503937007874016
        },
        {
          "duration": 0.16000000000000014,
          "durationTicks": 32,
          "midi": 27,
          "name": "D#1",
          "ticks": 6000,
          "time": 30,
          "velocity": 0.8503937007874016
        },
        {
          "duration": 0.16000000000000014,
          "durationTicks": 32,
          "midi": 26,
          "name": "D1",
          "ticks": 6048,
          "time": 30.24,
          "velocity": 0.8503937007874016
        },
        {
          "duration": 0.16000000000000014,
          "durationTicks": 32,
          "midi": 29,
          "name": "F1",
          "ticks": 6096,
          "time": 30.48,
          "velocity": 0.8503937007874016
        },
        {
          "duration": 0.1599999999999966,
          "durationTicks": 32,
          "midi": 31,
          "name": "G1",
          "ticks": 6144,
          "time": 30.72,
          "velocity": 0.8503937007874016
        },
        {
          "duration": 0.1599999999999966,
          "durationTicks": 32,
          "midi": 31,
          "name": "G1",
          "ticks": 6216,
          "time": 31.08,
          "velocity": 0.8503937007874016
        },
        {
          "duration": 0.16000000000000014,
          "durationTicks": 32,
          "midi": 29,
          "name": "F1",
          "ticks": 6288,
          "time": 31.439999999999998,
          "velocity": 0.8503937007874016
        },
        {
          "duration": 0.1599999999999966,
          "durationTicks": 32,
          "midi": 31,
          "name": "G1",
          "ticks": 6336,
          "time": 31.68,
          "velocity": 0.8503937007874016
        },
        {
          "duration": 0.16000000000000014,
          "durationTicks": 32,
          "midi": 31,
          "name": "G1",
          "ticks": 6384,
          "time": 31.919999999999998,
          "velocity": 0.8503937007874016
        },
        {
          "duration": 0.1599999999999966,
          "durationTicks": 32,
          "midi": 26,
          "name": "D1",
          "ticks": 6432,
          "time": 32.16,
          "velocity": 0.8503937007874016
        },
        {
          "duration": 0.1599999999999966,
          "durationTicks": 32,
          "midi": 29,
          "name": "F1",
          "ticks": 6480,
          "time": 32.4,
          "velocity": 0.8503937007874016
        },
        {
          "duration": 0.1599999999999966,
          "durationTicks": 32,
          "midi": 31,
          "name": "G1",
          "ticks": 6528,
          "time": 32.64,
          "velocity": 0.8503937007874016
        },
        {
          "duration": 0.1599999999999966,
          "durationTicks": 32,
          "midi": 31,
          "name": "G1",
          "ticks": 6600,
          "time": 33,
          "velocity": 0.8503937007874016
        },
        {
          "duration": 0.1599999999999966,
          "durationTicks": 32,
          "midi": 29,
          "name": "F1",
          "ticks": 6672,
          "time": 33.36,
          "velocity": 0.8503937007874016
        },
        {
          "duration": 0.1599999999999966,
          "durationTicks": 32,
          "midi": 31,
          "name": "G1",
          "ticks": 6720,
          "time": 33.6,
          "velocity": 0.8503937007874016
        },
        {
          "duration": 0.1600000000000037,
          "durationTicks": 32,
          "midi": 31,
          "name": "G1",
          "ticks": 6768,
          "time": 33.839999999999996,
          "velocity": 0.8503937007874016
        },
        {
          "duration": 0.1599999999999966,
          "durationTicks": 32,
          "midi": 31,
          "name": "G1",
          "ticks": 6816,
          "time": 34.08,
          "velocity": 0.8503937007874016
        },
        {
          "duration": 0.1599999999999966,
          "durationTicks": 32,
          "midi": 29,
          "name": "F1",
          "ticks": 6864,
          "time": 34.32,
          "velocity": 0.8503937007874016
        },
        {
          "duration": 0.1599999999999966,
          "durationTicks": 32,
          "midi": 31,
          "name": "G1",
          "ticks": 6912,
          "time": 34.56,
          "velocity": 0.8503937007874016
        },
        {
          "duration": 0.1599999999999966,
          "durationTicks": 32,
          "midi": 31,
          "name": "G1",
          "ticks": 6984,
          "time": 34.92,
          "velocity": 0.8503937007874016
        },
        {
          "duration": 0.1599999999999966,
          "durationTicks": 32,
          "midi": 29,
          "name": "F1",
          "ticks": 7056,
          "time": 35.28,
          "velocity": 0.8503937007874016
        },
        {
          "duration": 0.1600000000000037,
          "durationTicks": 32,
          "midi": 31,
          "name": "G1",
          "ticks": 7104,
          "time": 35.519999999999996,
          "velocity": 0.8503937007874016
        },
        {
          "duration": 0.1599999999999966,
          "durationTicks": 32,
          "midi": 31,
          "name": "G1",
          "ticks": 7152,
          "time": 35.76,
          "velocity": 0.8503937007874016
        },
        {
          "duration": 0.1599999999999966,
          "durationTicks": 32,
          "midi": 26,
          "name": "D1",
          "ticks": 7200,
          "time": 36,
          "velocity": 0.8503937007874016
        },
        {
          "duration": 0.1599999999999966,
          "durationTicks": 32,
          "midi": 29,
          "name": "F1",
          "ticks": 7248,
          "time": 36.24,
          "velocity": 0.8503937007874016
        },
        {
          "duration": 0.1599999999999966,
          "durationTicks": 32,
          "midi": 31,
          "name": "G1",
          "ticks": 7296,
          "time": 36.48,
          "velocity": 0.8503937007874016
        },
        {
          "duration": 0.1599999999999966,
          "durationTicks": 32,
          "midi": 31,
          "name": "G1",
          "ticks": 7368,
          "time": 36.839999999999996,
          "velocity": 0.8503937007874016
        },
        {
          "duration": 0.1600000000000037,
          "durationTicks": 32,
          "midi": 29,
          "name": "F1",
          "ticks": 7440,
          "time": 37.199999999999996,
          "velocity": 0.8503937007874016
        },
        {
          "duration": 0.1599999999999966,
          "durationTicks": 32,
          "midi": 31,
          "name": "G1",
          "ticks": 7488,
          "time": 37.44,
          "velocity": 0.8503937007874016
        },
        {
          "duration": 0.1599999999999966,
          "durationTicks": 32,
          "midi": 31,
          "name": "G1",
          "ticks": 7536,
          "time": 37.68,
          "velocity": 0.8503937007874016
        },
        {
          "duration": 0.1599999999999966,
          "durationTicks": 32,
          "midi": 31,
          "name": "G1",
          "ticks": 7584,
          "time": 37.92,
          "velocity": 0.8503937007874016
        },
        {
          "duration": 0.1599999999999966,
          "durationTicks": 32,
          "midi": 29,
          "name": "F1",
          "ticks": 7632,
          "time": 38.16,
          "velocity": 0.8503937007874016
        },
        {
          "duration": 0.1599999999999966,
          "durationTicks": 32,
          "midi": 27,
          "name": "D#1",
          "ticks": 7680,
          "time": 38.4,
          "velocity": 0.8503937007874016
        },
        {
          "duration": 0.1599999999999966,
          "durationTicks": 32,
          "midi": 27,
          "name": "D#1",
          "ticks": 7752,
          "time": 38.76,
          "velocity": 0.8503937007874016
        },
        {
          "duration": 0.1599999999999966,
          "durationTicks": 32,
          "midi": 26,
          "name": "D1",
          "ticks": 7824,
          "time": 39.12,
          "velocity": 0.8503937007874016
        },
        {
          "duration": 0.1599999999999966,
          "durationTicks": 32,
          "midi": 27,
          "name": "D#1",
          "ticks": 7872,
          "time": 39.36,
          "velocity": 0.8503937007874016
        },
        {
          "duration": 0.1599999999999966,
          "durationTicks": 32,
          "midi": 27,
          "name": "D#1",
          "ticks": 7920,
          "time": 39.6,
          "velocity": 0.8503937007874016
        },
        {
          "duration": 0.1599999999999966,
          "durationTicks": 32,
          "midi": 26,
          "name": "D1",
          "ticks": 7968,
          "time": 39.839999999999996,
          "velocity": 0.8503937007874016
        },
        {
          "duration": 0.1599999999999966,
          "durationTicks": 32,
          "midi": 29,
          "name": "F1",
          "ticks": 8016,
          "time": 40.08,
          "velocity": 0.8503937007874016
        },
        {
          "duration": 0.1599999999999966,
          "durationTicks": 32,
          "midi": 27,
          "name": "D#1",
          "ticks": 8064,
          "time": 40.32,
          "velocity": 0.8503937007874016
        },
        {
          "duration": 0.1599999999999966,
          "durationTicks": 32,
          "midi": 27,
          "name": "D#1",
          "ticks": 8136,
          "time": 40.68,
          "velocity": 0.8503937007874016
        },
        {
          "duration": 0.1599999999999966,
          "durationTicks": 32,
          "midi": 26,
          "name": "D1",
          "ticks": 8208,
          "time": 41.04,
          "velocity": 0.8503937007874016
        },
        {
          "duration": 0.1599999999999966,
          "durationTicks": 32,
          "midi": 27,
          "name": "D#1",
          "ticks": 8256,
          "time": 41.28,
          "velocity": 0.8503937007874016
        },
        {
          "duration": 0.1600000000000037,
          "durationTicks": 32,
          "midi": 27,
          "name": "D#1",
          "ticks": 8304,
          "time": 41.519999999999996,
          "velocity": 0.8503937007874016
        },
        {
          "duration": 0.1599999999999966,
          "durationTicks": 32,
          "midi": 26,
          "name": "D1",
          "ticks": 8352,
          "time": 41.76,
          "velocity": 0.8503937007874016
        },
        {
          "duration": 0.1599999999999966,
          "durationTicks": 32,
          "midi": 29,
          "name": "F1",
          "ticks": 8400,
          "time": 42,
          "velocity": 0.8503937007874016
        },
        {
          "duration": 0.1600000000000037,
          "durationTicks": 32,
          "midi": 27,
          "name": "D#1",
          "ticks": 8448,
          "time": 42.239999999999995,
          "velocity": 0.8503937007874016
        },
        {
          "duration": 0.1599999999999966,
          "durationTicks": 32,
          "midi": 27,
          "name": "D#1",
          "ticks": 8520,
          "time": 42.6,
          "velocity": 0.8503937007874016
        },
        {
          "duration": 0.1599999999999966,
          "durationTicks": 32,
          "midi": 26,
          "name": "D1",
          "ticks": 8592,
          "time": 42.96,
          "velocity": 0.8503937007874016
        },
        {
          "duration": 0.1600000000000037,
          "durationTicks": 32,
          "midi": 27,
          "name": "D#1",
          "ticks": 8640,
          "time": 43.199999999999996,
          "velocity": 0.8503937007874016
        },
        {
          "duration": 0.1599999999999966,
          "durationTicks": 32,
          "midi": 27,
          "name": "D#1",
          "ticks": 8688,
          "time": 43.44,
          "velocity": 0.8503937007874016
        },
        {
          "duration": 0.1599999999999966,
          "durationTicks": 32,
          "midi": 26,
          "name": "D1",
          "ticks": 8736,
          "time": 43.68,
          "velocity": 0.8503937007874016
        },
        {
          "duration": 0.1599999999999966,
          "durationTicks": 32,
          "midi": 29,
          "name": "F1",
          "ticks": 8784,
          "time": 43.92,
          "velocity": 0.8503937007874016
        },
        {
          "duration": 0.1599999999999966,
          "durationTicks": 32,
          "midi": 27,
          "name": "D#1",
          "ticks": 8832,
          "time": 44.16,
          "velocity": 0.8503937007874016
        },
        {
          "duration": 0.1599999999999966,
          "durationTicks": 32,
          "midi": 27,
          "name": "D#1",
          "ticks": 8904,
          "time": 44.519999999999996,
          "velocity": 0.8503937007874016
        },
        {
          "duration": 0.1600000000000037,
          "durationTicks": 32,
          "midi": 26,
          "name": "D1",
          "ticks": 8976,
          "time": 44.879999999999995,
          "velocity": 0.8503937007874016
        },
        {
          "duration": 0.1599999999999966,
          "durationTicks": 32,
          "midi": 27,
          "name": "D#1",
          "ticks": 9024,
          "time": 45.12,
          "velocity": 0.8503937007874016
        },
        {
          "duration": 0.1599999999999966,
          "durationTicks": 32,
          "midi": 27,
          "name": "D#1",
          "ticks": 9072,
          "time": 45.36,
          "velocity": 0.8503937007874016
        },
        {
          "duration": 0.1599999999999966,
          "durationTicks": 32,
          "midi": 26,
          "name": "D1",
          "ticks": 9120,
          "time": 45.6,
          "velocity": 0.8503937007874016
        },
        {
          "duration": 0.1599999999999966,
          "durationTicks": 32,
          "midi": 29,
          "name": "F1",
          "ticks": 9168,
          "time": 45.839999999999996,
          "velocity": 0.8503937007874016
        },
        {
          "duration": 0.1599999999999966,
          "durationTicks": 32,
          "midi": 24,
          "name": "C1",
          "ticks": 9216,
          "time": 46.08,
          "velocity": 0.8503937007874016
        },
        {
          "duration": 0.1599999999999966,
          "durationTicks": 32,
          "midi": 24,
          "name": "C1",
          "ticks": 9288,
          "time": 46.44,
          "velocity": 0.8503937007874016
        },
        {
          "duration": 0.1599999999999966,
          "durationTicks": 32,
          "midi": 36,
          "name": "C2",
          "ticks": 9360,
          "time": 46.8,
          "velocity": 0.8503937007874016
        },
        {
          "duration": 0.1599999999999966,
          "durationTicks": 32,
          "midi": 24,
          "name": "C1",
          "ticks": 9408,
          "time": 47.04,
          "velocity": 0.8503937007874016
        },
        {
          "duration": 0.1599999999999966,
          "durationTicks": 32,
          "midi": 24,
          "name": "C1",
          "ticks": 9456,
          "time": 47.28,
          "velocity": 0.8503937007874016
        },
        {
          "duration": 0.1599999999999966,
          "durationTicks": 32,
          "midi": 24,
          "name": "C1",
          "ticks": 9504,
          "time": 47.519999999999996,
          "velocity": 0.8503937007874016
        },
        {
          "duration": 0.1599999999999966,
          "durationTicks": 32,
          "midi": 36,
          "name": "C2",
          "ticks": 9552,
          "time": 47.76,
          "velocity": 0.8503937007874016
        },
        {
          "duration": 0.1599999999999966,
          "durationTicks": 32,
          "midi": 26,
          "name": "D1",
          "ticks": 9600,
          "time": 48,
          "velocity": 0.8503937007874016
        },
        {
          "duration": 0.1599999999999966,
          "durationTicks": 32,
          "midi": 26,
          "name": "D1",
          "ticks": 9672,
          "time": 48.36,
          "velocity": 0.8503937007874016
        },
        {
          "duration": 0.1599999999999966,
          "durationTicks": 32,
          "midi": 38,
          "name": "D2",
          "ticks": 9744,
          "time": 48.72,
          "velocity": 0.8503937007874016
        },
        {
          "duration": 0.1599999999999966,
          "durationTicks": 32,
          "midi": 26,
          "name": "D1",
          "ticks": 9792,
          "time": 48.96,
          "velocity": 0.8503937007874016
        },
        {
          "duration": 0.1600000000000037,
          "durationTicks": 32,
          "midi": 26,
          "name": "D1",
          "ticks": 9840,
          "time": 49.199999999999996,
          "velocity": 0.8503937007874016
        },
        {
          "duration": 0.1599999999999966,
          "durationTicks": 32,
          "midi": 26,
          "name": "D1",
          "ticks": 9888,
          "time": 49.44,
          "velocity": 0.8503937007874016
        },
        {
          "duration": 0.1599999999999966,
          "durationTicks": 32,
          "midi": 38,
          "name": "D2",
          "ticks": 9936,
          "time": 49.68,
          "velocity": 0.8503937007874016
        },
        {
          "duration": 0.1599999999999966,
          "durationTicks": 32,
          "midi": 27,
          "name": "D#1",
          "ticks": 9984,
          "time": 49.92,
          "velocity": 0.8503937007874016
        },
        {
          "duration": 0.1599999999999966,
          "durationTicks": 32,
          "midi": 27,
          "name": "D#1",
          "ticks": 10056,
          "time": 50.28,
          "velocity": 0.8503937007874016
        },
        {
          "duration": 0.1599999999999966,
          "durationTicks": 32,
          "midi": 39,
          "name": "D#2",
          "ticks": 10128,
          "time": 50.64,
          "velocity": 0.8503937007874016
        },
        {
          "duration": 0.1600000000000037,
          "durationTicks": 32,
          "midi": 29,
          "name": "F1",
          "ticks": 10176,
          "time": 50.879999999999995,
          "velocity": 0.8503937007874016
        },
        {
          "duration": 0.1599999999999966,
          "durationTicks": 32,
          "midi": 29,
          "name": "F1",
          "ticks": 10224,
          "time": 51.12,
          "velocity": 0.8503937007874016
        },
        {
          "duration": 0.1599999999999966,
          "durationTicks": 32,
          "midi": 30,
          "name": "F#1",
          "ticks": 10272,
          "time": 51.36,
          "velocity": 0.8503937007874016
        },
        {
          "duration": 0.1599999999999966,
          "durationTicks": 32,
          "midi": 42,
          "name": "F#2",
          "ticks": 10320,
          "time": 51.6,
          "velocity": 0.8503937007874016
        },
        {
          "duration": 0.1599999999999966,
          "durationTicks": 32,
          "midi": 31,
          "name": "G1",
          "ticks": 10368,
          "time": 51.839999999999996,
          "velocity": 0.8503937007874016
        },
        {
          "duration": 0.1599999999999966,
          "durationTicks": 32,
          "midi": 31,
          "name": "G1",
          "ticks": 10440,
          "time": 52.199999999999996,
          "velocity": 0.8503937007874016
        },
        {
          "duration": 0.1600000000000037,
          "durationTicks": 32,
          "midi": 43,
          "name": "G2",
          "ticks": 10512,
          "time": 52.559999999999995,
          "velocity": 0.8503937007874016
        },
        {
          "duration": 0.1599999999999966,
          "durationTicks": 32,
          "midi": 29,
          "name": "F1",
          "ticks": 10560,
          "time": 52.8,
          "velocity": 0.8503937007874016
        },
        {
          "duration": 0.1599999999999966,
          "durationTicks": 32,
          "midi": 29,
          "name": "F1",
          "ticks": 10608,
          "time": 53.04,
          "velocity": 0.8503937007874016
        },
        {
          "duration": 0.1599999999999966,
          "durationTicks": 32,
          "midi": 29,
          "name": "F1",
          "ticks": 10656,
          "time": 53.28,
          "velocity": 0.8503937007874016
        },
        {
          "duration": 0.1599999999999966,
          "durationTicks": 32,
          "midi": 41,
          "name": "F2",
          "ticks": 10704,
          "time": 53.519999999999996,
          "velocity": 0.8503937007874016
        },
        {
          "duration": 0.1599999999999966,
          "durationTicks": 32,
          "midi": 24,
          "name": "C1",
          "ticks": 10752,
          "time": 53.76,
          "velocity": 0.8503937007874016
        },
        {
          "duration": 0.1599999999999966,
          "durationTicks": 32,
          "midi": 24,
          "name": "C1",
          "ticks": 10824,
          "time": 54.12,
          "velocity": 0.8503937007874016
        },
        {
          "duration": 0.1599999999999966,
          "durationTicks": 32,
          "midi": 36,
          "name": "C2",
          "ticks": 10896,
          "time": 54.48,
          "velocity": 0.8503937007874016
        },
        {
          "duration": 0.1599999999999966,
          "durationTicks": 32,
          "midi": 24,
          "name": "C1",
          "ticks": 10944,
          "time": 54.72,
          "velocity": 0.8503937007874016
        },
        {
          "duration": 0.1599999999999966,
          "durationTicks": 32,
          "midi": 24,
          "name": "C1",
          "ticks": 10992,
          "time": 54.96,
          "velocity": 0.8503937007874016
        },
        {
          "duration": 0.1599999999999966,
          "durationTicks": 32,
          "midi": 24,
          "name": "C1",
          "ticks": 11040,
          "time": 55.199999999999996,
          "velocity": 0.8503937007874016
        },
        {
          "duration": 0.1599999999999966,
          "durationTicks": 32,
          "midi": 36,
          "name": "C2",
          "ticks": 11088,
          "time": 55.44,
          "velocity": 0.8503937007874016
        },
        {
          "duration": 0.1599999999999966,
          "durationTicks": 32,
          "midi": 26,
          "name": "D1",
          "ticks": 11136,
          "time": 55.68,
          "velocity": 0.8503937007874016
        },
        {
          "duration": 0.1599999999999966,
          "durationTicks": 32,
          "midi": 26,
          "name": "D1",
          "ticks": 11208,
          "time": 56.04,
          "velocity": 0.8503937007874016
        },
        {
          "duration": 0.1599999999999966,
          "durationTicks": 32,
          "midi": 38,
          "name": "D2",
          "ticks": 11280,
          "time": 56.4,
          "velocity": 0.8503937007874016
        },
        {
          "duration": 0.1599999999999966,
          "durationTicks": 32,
          "midi": 26,
          "name": "D1",
          "ticks": 11328,
          "time": 56.64,
          "velocity": 0.8503937007874016
        },
        {
          "duration": 0.1600000000000037,
          "durationTicks": 32,
          "midi": 26,
          "name": "D1",
          "ticks": 11376,
          "time": 56.879999999999995,
          "velocity": 0.8503937007874016
        },
        {
          "duration": 0.1599999999999966,
          "durationTicks": 32,
          "midi": 26,
          "name": "D1",
          "ticks": 11424,
          "time": 57.12,
          "velocity": 0.8503937007874016
        },
        {
          "duration": 0.1599999999999966,
          "durationTicks": 32,
          "midi": 38,
          "name": "D2",
          "ticks": 11472,
          "time": 57.36,
          "velocity": 0.8503937007874016
        },
        {
          "duration": 0.1600000000000037,
          "durationTicks": 32,
          "midi": 27,
          "name": "D#1",
          "ticks": 11520,
          "time": 57.599999999999994,
          "velocity": 0.8503937007874016
        },
        {
          "duration": 0.1599999999999966,
          "durationTicks": 32,
          "midi": 27,
          "name": "D#1",
          "ticks": 11592,
          "time": 57.96,
          "velocity": 0.8503937007874016
        },
        {
          "duration": 0.1599999999999966,
          "durationTicks": 32,
          "midi": 39,
          "name": "D#2",
          "ticks": 11664,
          "time": 58.32,
          "velocity": 0.8503937007874016
        },
        {
          "duration": 0.1600000000000037,
          "durationTicks": 32,
          "midi": 29,
          "name": "F1",
          "ticks": 11712,
          "time": 58.559999999999995,
          "velocity": 0.8503937007874016
        },
        {
          "duration": 0.1599999999999966,
          "durationTicks": 32,
          "midi": 29,
          "name": "F1",
          "ticks": 11760,
          "time": 58.8,
          "velocity": 0.8503937007874016
        },
        {
          "duration": 0.1599999999999966,
          "durationTicks": 32,
          "midi": 30,
          "name": "F#1",
          "ticks": 11808,
          "time": 59.04,
          "velocity": 0.8503937007874016
        },
        {
          "duration": 0.1599999999999966,
          "durationTicks": 32,
          "midi": 42,
          "name": "F#2",
          "ticks": 11856,
          "time": 59.28,
          "velocity": 0.8503937007874016
        },
        {
          "duration": 0.1599999999999966,
          "durationTicks": 32,
          "midi": 31,
          "name": "G1",
          "ticks": 11904,
          "time": 59.519999999999996,
          "velocity": 0.8503937007874016
        },
        {
          "duration": 0.1599999999999966,
          "durationTicks": 32,
          "midi": 31,
          "name": "G1",
          "ticks": 11976,
          "time": 59.879999999999995,
          "velocity": 0.8503937007874016
        },
        {
          "duration": 0.1600000000000037,
          "durationTicks": 32,
          "midi": 43,
          "name": "G2",
          "ticks": 12048,
          "time": 60.239999999999995,
          "velocity": 0.8503937007874016
        },
        {
          "duration": 0.9600000000000009,
          "durationTicks": 192,
          "midi": 29,
          "name": "F1",
          "ticks": 12096,
          "time": 60.48,
          "velocity": 0.8503937007874016
        },
        {
          "duration": 0.23999999999999488,
          "durationTicks": 48,
          "midi": 27,
          "name": "D#1",
          "ticks": 15360,
          "time": 76.8,
          "velocity": 0.8503937007874016
        },
        {
          "duration": 0.23999999999999488,
          "durationTicks": 48,
          "midi": 27,
          "name": "D#1",
          "ticks": 15432,
          "time": 77.16,
          "velocity": 0.8503937007874016
        },
        {
          "duration": 0.23999999999999488,
          "durationTicks": 48,
          "midi": 27,
          "name": "D#1",
          "ticks": 15504,
          "time": 77.52,
          "velocity": 0.8503937007874016
        },
        {
          "duration": 0.23999999999999488,
          "durationTicks": 48,
          "midi": 27,
          "name": "D#1",
          "ticks": 15600,
          "time": 78,
          "velocity": 0.8503937007874016
        },
        {
          "duration": 0.2400000000000091,
          "durationTicks": 48,
          "midi": 31,
          "name": "G1",
          "ticks": 15648,
          "time": 78.24,
          "velocity": 0.8503937007874016
        },
        {
          "duration": 0.23999999999999488,
          "durationTicks": 48,
          "midi": 27,
          "name": "D#1",
          "ticks": 15696,
          "time": 78.48,
          "velocity": 0.8503937007874016
        },
        {
          "duration": 0.23999999999999488,
          "durationTicks": 48,
          "midi": 29,
          "name": "F1",
          "ticks": 15744,
          "time": 78.72,
          "velocity": 0.8503937007874016
        },
        {
          "duration": 0.23999999999999488,
          "durationTicks": 48,
          "midi": 29,
          "name": "F1",
          "ticks": 15816,
          "time": 79.08,
          "velocity": 0.8503937007874016
        },
        {
          "duration": 0.23999999999999488,
          "durationTicks": 48,
          "midi": 29,
          "name": "F1",
          "ticks": 15888,
          "time": 79.44,
          "velocity": 0.8503937007874016
        },
        {
          "duration": 0.23999999999999488,
          "durationTicks": 48,
          "midi": 34,
          "name": "A#1",
          "ticks": 15984,
          "time": 79.92,
          "velocity": 0.8503937007874016
        },
        {
          "duration": 0.23999999999999488,
          "durationTicks": 48,
          "midi": 33,
          "name": "A1",
          "ticks": 16032,
          "time": 80.16,
          "velocity": 0.8503937007874016
        },
        {
          "duration": 0.2400000000000091,
          "durationTicks": 48,
          "midi": 29,
          "name": "F1",
          "ticks": 16080,
          "time": 80.39999999999999,
          "velocity": 0.8503937007874016
        },
        {
          "duration": 0.23999999999999488,
          "durationTicks": 48,
          "midi": 31,
          "name": "G1",
          "ticks": 16128,
          "time": 80.64,
          "velocity": 0.8503937007874016
        },
        {
          "duration": 0.23999999999999488,
          "durationTicks": 48,
          "midi": 31,
          "name": "G1",
          "ticks": 16200,
          "time": 81,
          "velocity": 0.8503937007874016
        },
        {
          "duration": 0.23999999999999488,
          "durationTicks": 48,
          "midi": 31,
          "name": "G1",
          "ticks": 16272,
          "time": 81.36,
          "velocity": 0.8503937007874016
        },
        {
          "duration": 0.23999999999999488,
          "durationTicks": 48,
          "midi": 31,
          "name": "G1",
          "ticks": 16368,
          "time": 81.84,
          "velocity": 0.8503937007874016
        },
        {
          "duration": 0.23999999999999488,
          "durationTicks": 48,
          "midi": 34,
          "name": "A#1",
          "ticks": 16416,
          "time": 82.08,
          "velocity": 0.8503937007874016
        },
        {
          "duration": 0.2400000000000091,
          "durationTicks": 48,
          "midi": 31,
          "name": "G1",
          "ticks": 16464,
          "time": 82.32,
          "velocity": 0.8503937007874016
        },
        {
          "duration": 0.23999999999999488,
          "durationTicks": 48,
          "midi": 26,
          "name": "D1",
          "ticks": 16512,
          "time": 82.56,
          "velocity": 0.8503937007874016
        },
        {
          "duration": 0.23999999999999488,
          "durationTicks": 48,
          "midi": 26,
          "name": "D1",
          "ticks": 16584,
          "time": 82.92,
          "velocity": 0.8503937007874016
        },
        {
          "duration": 0.23999999999999488,
          "durationTicks": 48,
          "midi": 26,
          "name": "D1",
          "ticks": 16656,
          "time": 83.28,
          "velocity": 0.8503937007874016
        },
        {
          "duration": 0.23999999999999488,
          "durationTicks": 48,
          "midi": 33,
          "name": "A1",
          "ticks": 16704,
          "time": 83.52,
          "velocity": 0.8503937007874016
        },
        {
          "duration": 0.2400000000000091,
          "durationTicks": 48,
          "midi": 36,
          "name": "C2",
          "ticks": 16752,
          "time": 83.75999999999999,
          "velocity": 0.8503937007874016
        },
        {
          "duration": 0.23999999999999488,
          "durationTicks": 48,
          "midi": 33,
          "name": "A1",
          "ticks": 16800,
          "time": 84,
          "velocity": 0.8503937007874016
        },
        {
          "duration": 0.23999999999999488,
          "durationTicks": 48,
          "midi": 29,
          "name": "F1",
          "ticks": 16848,
          "time": 84.24,
          "velocity": 0.8503937007874016
        },
        {
          "duration": 0.2400000000000091,
          "durationTicks": 48,
          "midi": 27,
          "name": "D#1",
          "ticks": 16896,
          "time": 84.47999999999999,
          "velocity": 0.8503937007874016
        },
        {
          "duration": 0.23999999999999488,
          "durationTicks": 48,
          "midi": 27,
          "name": "D#1",
          "ticks": 16968,
          "time": 84.84,
          "velocity": 0.8503937007874016
        },
        {
          "duration": 0.23999999999999488,
          "durationTicks": 48,
          "midi": 27,
          "name": "D#1",
          "ticks": 17040,
          "time": 85.2,
          "velocity": 0.8503937007874016
        },
        {
          "duration": 0.2400000000000091,
          "durationTicks": 48,
          "midi": 27,
          "name": "D#1",
          "ticks": 17136,
          "time": 85.67999999999999,
          "velocity": 0.8503937007874016
        },
        {
          "duration": 0.23999999999999488,
          "durationTicks": 48,
          "midi": 31,
          "name": "G1",
          "ticks": 17184,
          "time": 85.92,
          "velocity": 0.8503937007874016
        },
        {
          "duration": 0.23999999999999488,
          "durationTicks": 48,
          "midi": 27,
          "name": "D#1",
          "ticks": 17232,
          "time": 86.16,
          "velocity": 0.8503937007874016
        },
        {
          "duration": 0.2400000000000091,
          "durationTicks": 48,
          "midi": 29,
          "name": "F1",
          "ticks": 17280,
          "time": 86.39999999999999,
          "velocity": 0.8503937007874016
        },
        {
          "duration": 0.2400000000000091,
          "durationTicks": 48,
          "midi": 29,
          "name": "F1",
          "ticks": 17352,
          "time": 86.75999999999999,
          "velocity": 0.8503937007874016
        },
        {
          "duration": 0.2400000000000091,
          "durationTicks": 48,
          "midi": 29,
          "name": "F1",
          "ticks": 17424,
          "time": 87.11999999999999,
          "velocity": 0.8503937007874016
        },
        {
          "duration": 0.2400000000000091,
          "durationTicks": 48,
          "midi": 34,
          "name": "A#1",
          "ticks": 17520,
          "time": 87.6,
          "velocity": 0.8503937007874016
        },
        {
          "duration": 0.23999999999999488,
          "durationTicks": 48,
          "midi": 33,
          "name": "A1",
          "ticks": 17568,
          "time": 87.84,
          "velocity": 0.8503937007874016
        },
        {
          "duration": 0.23999999999999488,
          "durationTicks": 48,
          "midi": 29,
          "name": "F1",
          "ticks": 17616,
          "time": 88.08,
          "velocity": 0.8503937007874016
        },
        {
          "duration": 0.2400000000000091,
          "durationTicks": 48,
          "midi": 24,
          "name": "C1",
          "ticks": 17664,
          "time": 88.32,
          "velocity": 0.8503937007874016
        },
        {
          "duration": 0.2400000000000091,
          "durationTicks": 48,
          "midi": 24,
          "name": "C1",
          "ticks": 17736,
          "time": 88.67999999999999,
          "velocity": 0.8503937007874016
        },
        {
          "duration": 0.12000000000000455,
          "durationTicks": 24,
          "midi": 24,
          "name": "C1",
          "ticks": 17808,
          "time": 89.03999999999999,
          "velocity": 0.8503937007874016
        },
        {
          "duration": 0.12000000000000455,
          "durationTicks": 24,
          "midi": 24,
          "name": "C1",
          "ticks": 17832,
          "time": 89.16,
          "velocity": 0.8503937007874016
        },
        {
          "duration": 0.07999999999998408,
          "durationTicks": 16,
          "midi": 24,
          "name": "C1",
          "ticks": 17856,
          "time": 89.28,
          "velocity": 0.8503937007874016
        },
        {
          "duration": 0.0799999999999983,
          "durationTicks": 16,
          "midi": 24,
          "name": "C1",
          "ticks": 17904,
          "time": 89.52,
          "velocity": 0.8503937007874016
        },
        {
          "duration": 0.0799999999999983,
          "durationTicks": 16,
          "midi": 29,
          "name": "F1",
          "ticks": 17952,
          "time": 89.75999999999999,
          "velocity": 0.8503937007874016
        },
        {
          "duration": 0.0799999999999983,
          "durationTicks": 16,
          "midi": 29,
          "name": "F1",
          "ticks": 18000,
          "time": 90,
          "velocity": 0.8503937007874016
        },
        {
          "duration": 0.23999999999999488,
          "durationTicks": 48,
          "midi": 31,
          "name": "G1",
          "ticks": 18048,
          "time": 90.24,
          "velocity": 0.8503937007874016
        },
        {
          "duration": 0.2400000000000091,
          "durationTicks": 48,
          "midi": 26,
          "name": "D1",
          "ticks": 18120,
          "time": 90.6,
          "velocity": 0.8503937007874016
        },
        {
          "duration": 0.2400000000000091,
          "durationTicks": 48,
          "midi": 31,
          "name": "G1",
          "ticks": 18192,
          "time": 90.96,
          "velocity": 0.8503937007874016
        },
        {
          "duration": 0.23999999999999488,
          "durationTicks": 48,
          "midi": 29,
          "name": "F1",
          "ticks": 18240,
          "time": 91.2,
          "velocity": 0.8503937007874016
        },
        {
          "duration": 0.23999999999999488,
          "durationTicks": 48,
          "midi": 29,
          "name": "F1",
          "ticks": 18288,
          "time": 91.44,
          "velocity": 0.8503937007874016
        },
        {
          "duration": 0.2400000000000091,
          "durationTicks": 48,
          "midi": 24,
          "name": "C1",
          "ticks": 18336,
          "time": 91.67999999999999,
          "velocity": 0.8503937007874016
        },
        {
          "duration": 0.23999999999999488,
          "durationTicks": 48,
          "midi": 29,
          "name": "F1",
          "ticks": 18384,
          "time": 91.92,
          "velocity": 0.8503937007874016
        },
        {
          "duration": 0.23999999999999488,
          "durationTicks": 48,
          "midi": 24,
          "name": "C1",
          "ticks": 18432,
          "time": 92.16,
          "velocity": 0.8503937007874016
        },
        {
          "duration": 0.23999999999999488,
          "durationTicks": 48,
          "midi": 24,
          "name": "C1",
          "ticks": 18504,
          "time": 92.52,
          "velocity": 0.8503937007874016
        },
        {
          "duration": 0.12000000000000455,
          "durationTicks": 24,
          "midi": 24,
          "name": "C1",
          "ticks": 18576,
          "time": 92.88,
          "velocity": 0.8503937007874016
        },
        {
          "duration": 0.11999999999999034,
          "durationTicks": 24,
          "midi": 24,
          "name": "C1",
          "ticks": 18600,
          "time": 93,
          "velocity": 0.8503937007874016
        },
        {
          "duration": 0.0799999999999983,
          "durationTicks": 16,
          "midi": 24,
          "name": "C1",
          "ticks": 18624,
          "time": 93.11999999999999,
          "velocity": 0.8503937007874016
        },
        {
          "duration": 0.0799999999999983,
          "durationTicks": 16,
          "midi": 24,
          "name": "C1",
          "ticks": 18672,
          "time": 93.36,
          "velocity": 0.8503937007874016
        },
        {
          "duration": 0.0799999999999983,
          "durationTicks": 16,
          "midi": 29,
          "name": "F1",
          "ticks": 18720,
          "time": 93.6,
          "velocity": 0.8503937007874016
        },
        {
          "duration": 0.07999999999998408,
          "durationTicks": 16,
          "midi": 29,
          "name": "F1",
          "ticks": 18768,
          "time": 93.84,
          "velocity": 0.8503937007874016
        },
        {
          "duration": 0.23999999999999488,
          "durationTicks": 48,
          "midi": 31,
          "name": "G1",
          "ticks": 18816,
          "time": 94.08,
          "velocity": 0.8503937007874016
        },
        {
          "duration": 0.23999999999999488,
          "durationTicks": 48,
          "midi": 26,
          "name": "D1",
          "ticks": 18888,
          "time": 94.44,
          "velocity": 0.8503937007874016
        },
        {
          "duration": 0.23999999999999488,
          "durationTicks": 48,
          "midi": 31,
          "name": "G1",
          "ticks": 18960,
          "time": 94.8,
          "velocity": 0.8503937007874016
        },
        {
          "duration": 0.2400000000000091,
          "durationTicks": 48,
          "midi": 29,
          "name": "F1",
          "ticks": 19008,
          "time": 95.03999999999999,
          "velocity": 0.8503937007874016
        },
        {
          "duration": 0.23999999999999488,
          "durationTicks": 48,
          "midi": 29,
          "name": "F1",
          "ticks": 19056,
          "time": 95.28,
          "velocity": 0.8503937007874016
        },
        {
          "duration": 0.23999999999999488,
          "durationTicks": 48,
          "midi": 24,
          "name": "C1",
          "ticks": 19104,
          "time": 95.52,
          "velocity": 0.8503937007874016
        },
        {
          "duration": 0.2400000000000091,
          "durationTicks": 48,
          "midi": 29,
          "name": "F1",
          "ticks": 19152,
          "time": 95.75999999999999,
          "velocity": 0.8503937007874016
        },
        {
          "duration": 0.1599999999999966,
          "durationTicks": 32,
          "midi": 31,
          "name": "G1",
          "ticks": 19968,
          "time": 99.84,
          "velocity": 0.8503937007874016
        },
        {
          "duration": 0.1599999999999966,
          "durationTicks": 32,
          "midi": 31,
          "name": "G1",
          "ticks": 20040,
          "time": 100.2,
          "velocity": 0.8503937007874016
        },
        {
          "duration": 0.1599999999999966,
          "durationTicks": 32,
          "midi": 29,
          "name": "F1",
          "ticks": 20112,
          "time": 100.56,
          "velocity": 0.8503937007874016
        },
        {
          "duration": 0.1599999999999966,
          "durationTicks": 32,
          "midi": 31,
          "name": "G1",
          "ticks": 20160,
          "time": 100.8,
          "velocity": 0.8503937007874016
        },
        {
          "duration": 0.1600000000000108,
          "durationTicks": 32,
          "midi": 31,
          "name": "G1",
          "ticks": 20208,
          "time": 101.03999999999999,
          "velocity": 0.8503937007874016
        },
        {
          "duration": 0.1599999999999966,
          "durationTicks": 32,
          "midi": 26,
          "name": "D1",
          "ticks": 20256,
          "time": 101.28,
          "velocity": 0.8503937007874016
        },
        {
          "duration": 0.1600000000000108,
          "durationTicks": 32,
          "midi": 29,
          "name": "F1",
          "ticks": 20304,
          "time": 101.52,
          "velocity": 0.8503937007874016
        },
        {
          "duration": 0.1600000000000108,
          "durationTicks": 32,
          "midi": 31,
          "name": "G1",
          "ticks": 20352,
          "time": 101.75999999999999,
          "velocity": 0.8503937007874016
        },
        {
          "duration": 0.1600000000000108,
          "durationTicks": 32,
          "midi": 31,
          "name": "G1",
          "ticks": 20424,
          "time": 102.11999999999999,
          "velocity": 0.8503937007874016
        },
        {
          "duration": 0.1600000000000108,
          "durationTicks": 32,
          "midi": 29,
          "name": "F1",
          "ticks": 20496,
          "time": 102.47999999999999,
          "velocity": 0.8503937007874016
        },
        {
          "duration": 0.1599999999999966,
          "durationTicks": 32,
          "midi": 31,
          "name": "G1",
          "ticks": 20544,
          "time": 102.72,
          "velocity": 0.8503937007874016
        },
        {
          "duration": 0.1600000000000108,
          "durationTicks": 32,
          "midi": 31,
          "name": "G1",
          "ticks": 20592,
          "time": 102.96,
          "velocity": 0.8503937007874016
        },
        {
          "duration": 0.1599999999999966,
          "durationTicks": 32,
          "midi": 31,
          "name": "G1",
          "ticks": 20640,
          "time": 103.2,
          "velocity": 0.8503937007874016
        },
        {
          "duration": 0.1599999999999966,
          "durationTicks": 32,
          "midi": 29,
          "name": "F1",
          "ticks": 20688,
          "time": 103.44,
          "velocity": 0.8503937007874016
        },
        {
          "duration": 0.1600000000000108,
          "durationTicks": 32,
          "midi": 31,
          "name": "G1",
          "ticks": 20736,
          "time": 103.67999999999999,
          "velocity": 0.8503937007874016
        },
        {
          "duration": 0.1600000000000108,
          "durationTicks": 32,
          "midi": 31,
          "name": "G1",
          "ticks": 20808,
          "time": 104.03999999999999,
          "velocity": 0.8503937007874016
        },
        {
          "duration": 0.1600000000000108,
          "durationTicks": 32,
          "midi": 29,
          "name": "F1",
          "ticks": 20880,
          "time": 104.39999999999999,
          "velocity": 0.8503937007874016
        },
        {
          "duration": 0.1599999999999966,
          "durationTicks": 32,
          "midi": 31,
          "name": "G1",
          "ticks": 20928,
          "time": 104.64,
          "velocity": 0.8503937007874016
        },
        {
          "duration": 0.1600000000000108,
          "durationTicks": 32,
          "midi": 31,
          "name": "G1",
          "ticks": 20976,
          "time": 104.88,
          "velocity": 0.8503937007874016
        },
        {
          "duration": 0.1600000000000108,
          "durationTicks": 32,
          "midi": 26,
          "name": "D1",
          "ticks": 21024,
          "time": 105.11999999999999,
          "velocity": 0.8503937007874016
        },
        {
          "duration": 0.1599999999999966,
          "durationTicks": 32,
          "midi": 29,
          "name": "F1",
          "ticks": 21072,
          "time": 105.36,
          "velocity": 0.8503937007874016
        },
        {
          "duration": 0.1600000000000108,
          "durationTicks": 32,
          "midi": 31,
          "name": "G1",
          "ticks": 21120,
          "time": 105.6,
          "velocity": 0.8503937007874016
        },
        {
          "duration": 0.1600000000000108,
          "durationTicks": 32,
          "midi": 31,
          "name": "G1",
          "ticks": 21192,
          "time": 105.96,
          "velocity": 0.8503937007874016
        },
        {
          "duration": 0.1600000000000108,
          "durationTicks": 32,
          "midi": 29,
          "name": "F1",
          "ticks": 21264,
          "time": 106.32,
          "velocity": 0.8503937007874016
        },
        {
          "duration": 0.1599999999999966,
          "durationTicks": 32,
          "midi": 31,
          "name": "G1",
          "ticks": 21312,
          "time": 106.56,
          "velocity": 0.8503937007874016
        },
        {
          "duration": 0.1599999999999966,
          "durationTicks": 32,
          "midi": 31,
          "name": "G1",
          "ticks": 21360,
          "time": 106.8,
          "velocity": 0.8503937007874016
        },
        {
          "duration": 0.1600000000000108,
          "durationTicks": 32,
          "midi": 31,
          "name": "G1",
          "ticks": 21408,
          "time": 107.03999999999999,
          "velocity": 0.8503937007874016
        },
        {
          "duration": 0.1599999999999966,
          "durationTicks": 32,
          "midi": 29,
          "name": "F1",
          "ticks": 21456,
          "time": 107.28,
          "velocity": 0.8503937007874016
        },
        {
          "duration": 0.1600000000000108,
          "durationTicks": 32,
          "midi": 27,
          "name": "D#1",
          "ticks": 21504,
          "time": 107.52,
          "velocity": 0.8503937007874016
        },
        {
          "duration": 0.1600000000000108,
          "durationTicks": 32,
          "midi": 27,
          "name": "D#1",
          "ticks": 21576,
          "time": 107.88,
          "velocity": 0.8503937007874016
        },
        {
          "duration": 0.1600000000000108,
          "durationTicks": 32,
          "midi": 26,
          "name": "D1",
          "ticks": 21648,
          "time": 108.24,
          "velocity": 0.8503937007874016
        },
        {
          "duration": 0.1600000000000108,
          "durationTicks": 32,
          "midi": 27,
          "name": "D#1",
          "ticks": 21696,
          "time": 108.47999999999999,
          "velocity": 0.8503937007874016
        },
        {
          "duration": 0.1599999999999966,
          "durationTicks": 32,
          "midi": 27,
          "name": "D#1",
          "ticks": 21744,
          "time": 108.72,
          "velocity": 0.8503937007874016
        },
        {
          "duration": 0.1600000000000108,
          "durationTicks": 32,
          "midi": 26,
          "name": "D1",
          "ticks": 21792,
          "time": 108.96,
          "velocity": 0.8503937007874016
        },
        {
          "duration": 0.1599999999999966,
          "durationTicks": 32,
          "midi": 29,
          "name": "F1",
          "ticks": 21840,
          "time": 109.2,
          "velocity": 0.8503937007874016
        },
        {
          "duration": 0.1599999999999966,
          "durationTicks": 32,
          "midi": 27,
          "name": "D#1",
          "ticks": 21888,
          "time": 109.44,
          "velocity": 0.8503937007874016
        },
        {
          "duration": 0.1599999999999966,
          "durationTicks": 32,
          "midi": 27,
          "name": "D#1",
          "ticks": 21960,
          "time": 109.8,
          "velocity": 0.8503937007874016
        },
        {
          "duration": 0.1600000000000108,
          "durationTicks": 32,
          "midi": 26,
          "name": "D1",
          "ticks": 22032,
          "time": 110.16,
          "velocity": 0.8503937007874016
        },
        {
          "duration": 0.1600000000000108,
          "durationTicks": 32,
          "midi": 27,
          "name": "D#1",
          "ticks": 22080,
          "time": 110.39999999999999,
          "velocity": 0.8503937007874016
        },
        {
          "duration": 0.1599999999999966,
          "durationTicks": 32,
          "midi": 27,
          "name": "D#1",
          "ticks": 22128,
          "time": 110.64,
          "velocity": 0.8503937007874016
        },
        {
          "duration": 0.1600000000000108,
          "durationTicks": 32,
          "midi": 26,
          "name": "D1",
          "ticks": 22176,
          "time": 110.88,
          "velocity": 0.8503937007874016
        },
        {
          "duration": 0.1600000000000108,
          "durationTicks": 32,
          "midi": 29,
          "name": "F1",
          "ticks": 22224,
          "time": 111.11999999999999,
          "velocity": 0.8503937007874016
        },
        {
          "duration": 0.1599999999999966,
          "durationTicks": 32,
          "midi": 27,
          "name": "D#1",
          "ticks": 22272,
          "time": 111.36,
          "velocity": 0.8503937007874016
        },
        {
          "duration": 0.1599999999999966,
          "durationTicks": 32,
          "midi": 27,
          "name": "D#1",
          "ticks": 22344,
          "time": 111.72,
          "velocity": 0.8503937007874016
        },
        {
          "duration": 0.1599999999999966,
          "durationTicks": 32,
          "midi": 26,
          "name": "D1",
          "ticks": 22416,
          "time": 112.08,
          "velocity": 0.8503937007874016
        },
        {
          "duration": 0.1600000000000108,
          "durationTicks": 32,
          "midi": 27,
          "name": "D#1",
          "ticks": 22464,
          "time": 112.32,
          "velocity": 0.8503937007874016
        },
        {
          "duration": 0.1599999999999966,
          "durationTicks": 32,
          "midi": 27,
          "name": "D#1",
          "ticks": 22512,
          "time": 112.56,
          "velocity": 0.8503937007874016
        },
        {
          "duration": 0.1599999999999966,
          "durationTicks": 32,
          "midi": 26,
          "name": "D1",
          "ticks": 22560,
          "time": 112.8,
          "velocity": 0.8503937007874016
        },
        {
          "duration": 0.1600000000000108,
          "durationTicks": 32,
          "midi": 29,
          "name": "F1",
          "ticks": 22608,
          "time": 113.03999999999999,
          "velocity": 0.8503937007874016
        },
        {
          "duration": 0.1599999999999966,
          "durationTicks": 32,
          "midi": 27,
          "name": "D#1",
          "ticks": 22656,
          "time": 113.28,
          "velocity": 0.8503937007874016
        },
        {
          "duration": 0.1599999999999966,
          "durationTicks": 32,
          "midi": 27,
          "name": "D#1",
          "ticks": 22728,
          "time": 113.64,
          "velocity": 0.8503937007874016
        },
        {
          "duration": 0.1599999999999966,
          "durationTicks": 32,
          "midi": 26,
          "name": "D1",
          "ticks": 22800,
          "time": 114,
          "velocity": 0.8503937007874016
        },
        {
          "duration": 0.1600000000000108,
          "durationTicks": 32,
          "midi": 27,
          "name": "D#1",
          "ticks": 22848,
          "time": 114.24,
          "velocity": 0.8503937007874016
        },
        {
          "duration": 0.1600000000000108,
          "durationTicks": 32,
          "midi": 27,
          "name": "D#1",
          "ticks": 22896,
          "time": 114.47999999999999,
          "velocity": 0.8503937007874016
        },
        {
          "duration": 0.1599999999999966,
          "durationTicks": 32,
          "midi": 26,
          "name": "D1",
          "ticks": 22944,
          "time": 114.72,
          "velocity": 0.8503937007874016
        },
        {
          "duration": 0.1600000000000108,
          "durationTicks": 32,
          "midi": 29,
          "name": "F1",
          "ticks": 22992,
          "time": 114.96,
          "velocity": 0.8503937007874016
        },
        {
          "duration": 0.1600000000000108,
          "durationTicks": 32,
          "midi": 31,
          "name": "G1",
          "ticks": 23040,
          "time": 115.19999999999999,
          "velocity": 0.8503937007874016
        },
        {
          "duration": 0.1599999999999966,
          "durationTicks": 32,
          "midi": 31,
          "name": "G1",
          "ticks": 23112,
          "time": 115.56,
          "velocity": 0.8503937007874016
        },
        {
          "duration": 0.1599999999999966,
          "durationTicks": 32,
          "midi": 29,
          "name": "F1",
          "ticks": 23184,
          "time": 115.92,
          "velocity": 0.8503937007874016
        },
        {
          "duration": 0.1599999999999966,
          "durationTicks": 32,
          "midi": 31,
          "name": "G1",
          "ticks": 23232,
          "time": 116.16,
          "velocity": 0.8503937007874016
        },
        {
          "duration": 0.1600000000000108,
          "durationTicks": 32,
          "midi": 31,
          "name": "G1",
          "ticks": 23280,
          "time": 116.39999999999999,
          "velocity": 0.8503937007874016
        },
        {
          "duration": 0.1599999999999966,
          "durationTicks": 32,
          "midi": 26,
          "name": "D1",
          "ticks": 23328,
          "time": 116.64,
          "velocity": 0.8503937007874016
        },
        {
          "duration": 0.1600000000000108,
          "durationTicks": 32,
          "midi": 29,
          "name": "F1",
          "ticks": 23376,
          "time": 116.88,
          "velocity": 0.8503937007874016
        },
        {
          "duration": 0.1600000000000108,
          "durationTicks": 32,
          "midi": 31,
          "name": "G1",
          "ticks": 23424,
          "time": 117.11999999999999,
          "velocity": 0.8503937007874016
        },
        {
          "duration": 0.1600000000000108,
          "durationTicks": 32,
          "midi": 31,
          "name": "G1",
          "ticks": 23496,
          "time": 117.47999999999999,
          "velocity": 0.8503937007874016
        },
        {
          "duration": 0.1600000000000108,
          "durationTicks": 32,
          "midi": 29,
          "name": "F1",
          "ticks": 23568,
          "time": 117.83999999999999,
          "velocity": 0.8503937007874016
        },
        {
          "duration": 0.1599999999999966,
          "durationTicks": 32,
          "midi": 31,
          "name": "G1",
          "ticks": 23616,
          "time": 118.08,
          "velocity": 0.8503937007874016
        },
        {
          "duration": 0.1600000000000108,
          "durationTicks": 32,
          "midi": 31,
          "name": "G1",
          "ticks": 23664,
          "time": 118.32,
          "velocity": 0.8503937007874016
        },
        {
          "duration": 0.1599999999999966,
          "durationTicks": 32,
          "midi": 31,
          "name": "G1",
          "ticks": 23712,
          "time": 118.56,
          "velocity": 0.8503937007874016
        },
        {
          "duration": 0.1599999999999966,
          "durationTicks": 32,
          "midi": 29,
          "name": "F1",
          "ticks": 23760,
          "time": 118.8,
          "velocity": 0.8503937007874016
        },
        {
          "duration": 0.1600000000000108,
          "durationTicks": 32,
          "midi": 31,
          "name": "G1",
          "ticks": 23808,
          "time": 119.03999999999999,
          "velocity": 0.8503937007874016
        },
        {
          "duration": 0.1600000000000108,
          "durationTicks": 32,
          "midi": 31,
          "name": "G1",
          "ticks": 23880,
          "time": 119.39999999999999,
          "velocity": 0.8503937007874016
        },
        {
          "duration": 0.1600000000000108,
          "durationTicks": 32,
          "midi": 29,
          "name": "F1",
          "ticks": 23952,
          "time": 119.75999999999999,
          "velocity": 0.8503937007874016
        },
        {
          "duration": 0.1599999999999966,
          "durationTicks": 32,
          "midi": 31,
          "name": "G1",
          "ticks": 24000,
          "time": 120,
          "velocity": 0.8503937007874016
        },
        {
          "duration": 0.1600000000000108,
          "durationTicks": 32,
          "midi": 31,
          "name": "G1",
          "ticks": 24048,
          "time": 120.24,
          "velocity": 0.8503937007874016
        },
        {
          "duration": 0.1600000000000108,
          "durationTicks": 32,
          "midi": 26,
          "name": "D1",
          "ticks": 24096,
          "time": 120.47999999999999,
          "velocity": 0.8503937007874016
        },
        {
          "duration": 0.1599999999999966,
          "durationTicks": 32,
          "midi": 29,
          "name": "F1",
          "ticks": 24144,
          "time": 120.72,
          "velocity": 0.8503937007874016
        },
        {
          "duration": 0.1600000000000108,
          "durationTicks": 32,
          "midi": 31,
          "name": "G1",
          "ticks": 24192,
          "time": 120.96,
          "velocity": 0.8503937007874016
        },
        {
          "duration": 0.1600000000000108,
          "durationTicks": 32,
          "midi": 31,
          "name": "G1",
          "ticks": 24264,
          "time": 121.32,
          "velocity": 0.8503937007874016
        },
        {
          "duration": 0.1600000000000108,
          "durationTicks": 32,
          "midi": 29,
          "name": "F1",
          "ticks": 24336,
          "time": 121.67999999999999,
          "velocity": 0.8503937007874016
        },
        {
          "duration": 0.1599999999999966,
          "durationTicks": 32,
          "midi": 31,
          "name": "G1",
          "ticks": 24384,
          "time": 121.92,
          "velocity": 0.8503937007874016
        },
        {
          "duration": 0.1599999999999966,
          "durationTicks": 32,
          "midi": 31,
          "name": "G1",
          "ticks": 24432,
          "time": 122.16,
          "velocity": 0.8503937007874016
        },
        {
          "duration": 0.1600000000000108,
          "durationTicks": 32,
          "midi": 31,
          "name": "G1",
          "ticks": 24480,
          "time": 122.39999999999999,
          "velocity": 0.8503937007874016
        },
        {
          "duration": 0.1599999999999966,
          "durationTicks": 32,
          "midi": 29,
          "name": "F1",
          "ticks": 24528,
          "time": 122.64,
          "velocity": 0.8503937007874016
        },
        {
          "duration": 0.1599999999999966,
          "durationTicks": 32,
          "midi": 27,
          "name": "D#1",
          "ticks": 24576,
          "time": 122.88,
          "velocity": 0.8503937007874016
        },
        {
          "duration": 0.1599999999999966,
          "durationTicks": 32,
          "midi": 27,
          "name": "D#1",
          "ticks": 24648,
          "time": 123.24,
          "velocity": 0.8503937007874016
        },
        {
          "duration": 0.1599999999999966,
          "durationTicks": 32,
          "midi": 26,
          "name": "D1",
          "ticks": 24720,
          "time": 123.6,
          "velocity": 0.8503937007874016
        },
        {
          "duration": 0.1599999999999966,
          "durationTicks": 32,
          "midi": 27,
          "name": "D#1",
          "ticks": 24768,
          "time": 123.83999999999999,
          "velocity": 0.8503937007874016
        },
        {
          "duration": 0.15999999999998238,
          "durationTicks": 32,
          "midi": 27,
          "name": "D#1",
          "ticks": 24816,
          "time": 124.08,
          "velocity": 0.8503937007874016
        },
        {
          "duration": 0.1599999999999966,
          "durationTicks": 32,
          "midi": 26,
          "name": "D1",
          "ticks": 24864,
          "time": 124.32,
          "velocity": 0.8503937007874016
        },
        {
          "duration": 0.15999999999998238,
          "durationTicks": 32,
          "midi": 29,
          "name": "F1",
          "ticks": 24912,
          "time": 124.56,
          "velocity": 0.8503937007874016
        },
        {
          "duration": 0.15999999999998238,
          "durationTicks": 32,
          "midi": 27,
          "name": "D#1",
          "ticks": 24960,
          "time": 124.8,
          "velocity": 0.8503937007874016
        },
        {
          "duration": 0.1599999999999966,
          "durationTicks": 32,
          "midi": 27,
          "name": "D#1",
          "ticks": 25032,
          "time": 125.16,
          "velocity": 0.8503937007874016
        },
        {
          "duration": 0.1599999999999966,
          "durationTicks": 32,
          "midi": 26,
          "name": "D1",
          "ticks": 25104,
          "time": 125.52,
          "velocity": 0.8503937007874016
        },
        {
          "duration": 0.1599999999999966,
          "durationTicks": 32,
          "midi": 27,
          "name": "D#1",
          "ticks": 25152,
          "time": 125.75999999999999,
          "velocity": 0.8503937007874016
        },
        {
          "duration": 0.15999999999998238,
          "durationTicks": 32,
          "midi": 27,
          "name": "D#1",
          "ticks": 25200,
          "time": 126,
          "velocity": 0.8503937007874016
        },
        {
          "duration": 0.1599999999999966,
          "durationTicks": 32,
          "midi": 26,
          "name": "D1",
          "ticks": 25248,
          "time": 126.24,
          "velocity": 0.8503937007874016
        },
        {
          "duration": 0.1599999999999966,
          "durationTicks": 32,
          "midi": 29,
          "name": "F1",
          "ticks": 25296,
          "time": 126.47999999999999,
          "velocity": 0.8503937007874016
        },
        {
          "duration": 0.15999999999998238,
          "durationTicks": 32,
          "midi": 27,
          "name": "D#1",
          "ticks": 25344,
          "time": 126.72,
          "velocity": 0.8503937007874016
        },
        {
          "duration": 0.15999999999998238,
          "durationTicks": 32,
          "midi": 27,
          "name": "D#1",
          "ticks": 25416,
          "time": 127.08,
          "velocity": 0.8503937007874016
        },
        {
          "duration": 0.15999999999998238,
          "durationTicks": 32,
          "midi": 26,
          "name": "D1",
          "ticks": 25488,
          "time": 127.44,
          "velocity": 0.8503937007874016
        },
        {
          "duration": 0.1599999999999966,
          "durationTicks": 32,
          "midi": 27,
          "name": "D#1",
          "ticks": 25536,
          "time": 127.67999999999999,
          "velocity": 0.8503937007874016
        },
        {
          "duration": 0.15999999999998238,
          "durationTicks": 32,
          "midi": 27,
          "name": "D#1",
          "ticks": 25584,
          "time": 127.92,
          "velocity": 0.8503937007874016
        },
        {
          "duration": 0.1599999999999966,
          "durationTicks": 32,
          "midi": 26,
          "name": "D1",
          "ticks": 25632,
          "time": 128.16,
          "velocity": 0.8503937007874016
        },
        {
          "duration": 0.15999999999996817,
          "durationTicks": 32,
          "midi": 29,
          "name": "F1",
          "ticks": 25680,
          "time": 128.4,
          "velocity": 0.8503937007874016
        },
        {
          "duration": 0.1599999999999966,
          "durationTicks": 32,
          "midi": 27,
          "name": "D#1",
          "ticks": 25728,
          "time": 128.64,
          "velocity": 0.8503937007874016
        },
        {
          "duration": 0.1599999999999966,
          "durationTicks": 32,
          "midi": 27,
          "name": "D#1",
          "ticks": 25800,
          "time": 129,
          "velocity": 0.8503937007874016
        },
        {
          "duration": 0.1599999999999966,
          "durationTicks": 32,
          "midi": 26,
          "name": "D1",
          "ticks": 25872,
          "time": 129.35999999999999,
          "velocity": 0.8503937007874016
        },
        {
          "duration": 0.1599999999999966,
          "durationTicks": 32,
          "midi": 27,
          "name": "D#1",
          "ticks": 25920,
          "time": 129.6,
          "velocity": 0.8503937007874016
        },
        {
          "duration": 0.1599999999999966,
          "durationTicks": 32,
          "midi": 27,
          "name": "D#1",
          "ticks": 25968,
          "time": 129.84,
          "velocity": 0.8503937007874016
        },
        {
          "duration": 0.1599999999999966,
          "durationTicks": 32,
          "midi": 26,
          "name": "D1",
          "ticks": 26016,
          "time": 130.07999999999998,
          "velocity": 0.8503937007874016
        },
        {
          "duration": 0.1599999999999966,
          "durationTicks": 32,
          "midi": 29,
          "name": "F1",
          "ticks": 26064,
          "time": 130.32,
          "velocity": 0.8503937007874016
        },
        {
          "duration": 0.1599999999999966,
          "durationTicks": 32,
          "midi": 24,
          "name": "C1",
          "ticks": 26112,
          "time": 130.56,
          "velocity": 0.8503937007874016
        },
        {
          "duration": 0.1599999999999966,
          "durationTicks": 32,
          "midi": 24,
          "name": "C1",
          "ticks": 26184,
          "time": 130.92,
          "velocity": 0.8503937007874016
        },
        {
          "duration": 0.1599999999999966,
          "durationTicks": 32,
          "midi": 36,
          "name": "C2",
          "ticks": 26256,
          "time": 131.28,
          "velocity": 0.8503937007874016
        },
        {
          "duration": 0.1599999999999966,
          "durationTicks": 32,
          "midi": 24,
          "name": "C1",
          "ticks": 26304,
          "time": 131.51999999999998,
          "velocity": 0.8503937007874016
        },
        {
          "duration": 0.1599999999999966,
          "durationTicks": 32,
          "midi": 24,
          "name": "C1",
          "ticks": 26352,
          "time": 131.76,
          "velocity": 0.8503937007874016
        },
        {
          "duration": 0.1599999999999966,
          "durationTicks": 32,
          "midi": 24,
          "name": "C1",
          "ticks": 26400,
          "time": 132,
          "velocity": 0.8503937007874016
        },
        {
          "duration": 0.15999999999996817,
          "durationTicks": 32,
          "midi": 36,
          "name": "C2",
          "ticks": 26448,
          "time": 132.24,
          "velocity": 0.8503937007874016
        },
        {
          "duration": 0.1599999999999966,
          "durationTicks": 32,
          "midi": 26,
          "name": "D1",
          "ticks": 26496,
          "time": 132.48,
          "velocity": 0.8503937007874016
        },
        {
          "duration": 0.1599999999999966,
          "durationTicks": 32,
          "midi": 26,
          "name": "D1",
          "ticks": 26568,
          "time": 132.84,
          "velocity": 0.8503937007874016
        },
        {
          "duration": 0.1599999999999966,
          "durationTicks": 32,
          "midi": 38,
          "name": "D2",
          "ticks": 26640,
          "time": 133.2,
          "velocity": 0.8503937007874016
        },
        {
          "duration": 0.1599999999999966,
          "durationTicks": 32,
          "midi": 26,
          "name": "D1",
          "ticks": 26688,
          "time": 133.44,
          "velocity": 0.8503937007874016
        },
        {
          "duration": 0.15999999999996817,
          "durationTicks": 32,
          "midi": 26,
          "name": "D1",
          "ticks": 26736,
          "time": 133.68,
          "velocity": 0.8503937007874016
        },
        {
          "duration": 0.1599999999999966,
          "durationTicks": 32,
          "midi": 26,
          "name": "D1",
          "ticks": 26784,
          "time": 133.92,
          "velocity": 0.8503937007874016
        },
        {
          "duration": 0.1599999999999966,
          "durationTicks": 32,
          "midi": 38,
          "name": "D2",
          "ticks": 26832,
          "time": 134.16,
          "velocity": 0.8503937007874016
        },
        {
          "duration": 0.15999999999996817,
          "durationTicks": 32,
          "midi": 27,
          "name": "D#1",
          "ticks": 26880,
          "time": 134.4,
          "velocity": 0.8503937007874016
        },
        {
          "duration": 0.1599999999999966,
          "durationTicks": 32,
          "midi": 27,
          "name": "D#1",
          "ticks": 26952,
          "time": 134.76,
          "velocity": 0.8503937007874016
        },
        {
          "duration": 0.15999999999996817,
          "durationTicks": 32,
          "midi": 39,
          "name": "D#2",
          "ticks": 27024,
          "time": 135.12,
          "velocity": 0.8503937007874016
        },
        {
          "duration": 0.1599999999999966,
          "durationTicks": 32,
          "midi": 29,
          "name": "F1",
          "ticks": 27072,
          "time": 135.35999999999999,
          "velocity": 0.8503937007874016
        },
        {
          "duration": 0.1599999999999966,
          "durationTicks": 32,
          "midi": 29,
          "name": "F1",
          "ticks": 27120,
          "time": 135.6,
          "velocity": 0.8503937007874016
        },
        {
          "duration": 0.1599999999999966,
          "durationTicks": 32,
          "midi": 30,
          "name": "F#1",
          "ticks": 27168,
          "time": 135.84,
          "velocity": 0.8503937007874016
        },
        {
          "duration": 0.1599999999999966,
          "durationTicks": 32,
          "midi": 42,
          "name": "F#2",
          "ticks": 27216,
          "time": 136.07999999999998,
          "velocity": 0.8503937007874016
        },
        {
          "duration": 0.1599999999999966,
          "durationTicks": 32,
          "midi": 31,
          "name": "G1",
          "ticks": 27264,
          "time": 136.32,
          "velocity": 0.8503937007874016
        },
        {
          "duration": 0.15999999999996817,
          "durationTicks": 32,
          "midi": 31,
          "name": "G1",
          "ticks": 27336,
          "time": 136.68,
          "velocity": 0.8503937007874016
        },
        {
          "duration": 0.1599999999999966,
          "durationTicks": 32,
          "midi": 43,
          "name": "G2",
          "ticks": 27408,
          "time": 137.04,
          "velocity": 0.8503937007874016
        },
        {
          "duration": 0.1599999999999966,
          "durationTicks": 32,
          "midi": 29,
          "name": "F1",
          "ticks": 27456,
          "time": 137.28,
          "velocity": 0.8503937007874016
        },
        {
          "duration": 0.1599999999999966,
          "durationTicks": 32,
          "midi": 29,
          "name": "F1",
          "ticks": 27504,
          "time": 137.51999999999998,
          "velocity": 0.8503937007874016
        },
        {
          "duration": 0.1599999999999966,
          "durationTicks": 32,
          "midi": 29,
          "name": "F1",
          "ticks": 27552,
          "time": 137.76,
          "velocity": 0.8503937007874016
        },
        {
          "duration": 0.1599999999999966,
          "durationTicks": 32,
          "midi": 41,
          "name": "F2",
          "ticks": 27600,
          "time": 138,
          "velocity": 0.8503937007874016
        },
        {
          "duration": 0.15999999999996817,
          "durationTicks": 32,
          "midi": 24,
          "name": "C1",
          "ticks": 27648,
          "time": 138.24,
          "velocity": 0.8503937007874016
        },
        {
          "duration": 0.1599999999999966,
          "durationTicks": 32,
          "midi": 24,
          "name": "C1",
          "ticks": 27720,
          "time": 138.6,
          "velocity": 0.8503937007874016
        },
        {
          "duration": 0.15999999999996817,
          "durationTicks": 32,
          "midi": 36,
          "name": "C2",
          "ticks": 27792,
          "time": 138.96,
          "velocity": 0.8503937007874016
        },
        {
          "duration": 0.1599999999999966,
          "durationTicks": 32,
          "midi": 24,
          "name": "C1",
          "ticks": 27840,
          "time": 139.2,
          "velocity": 0.8503937007874016
        },
        {
          "duration": 0.1599999999999966,
          "durationTicks": 32,
          "midi": 24,
          "name": "C1",
          "ticks": 27888,
          "time": 139.44,
          "velocity": 0.8503937007874016
        },
        {
          "duration": 0.15999999999996817,
          "durationTicks": 32,
          "midi": 24,
          "name": "C1",
          "ticks": 27936,
          "time": 139.68,
          "velocity": 0.8503937007874016
        },
        {
          "duration": 0.1599999999999966,
          "durationTicks": 32,
          "midi": 36,
          "name": "C2",
          "ticks": 27984,
          "time": 139.92,
          "velocity": 0.8503937007874016
        },
        {
          "duration": 0.1599999999999966,
          "durationTicks": 32,
          "midi": 26,
          "name": "D1",
          "ticks": 28032,
          "time": 140.16,
          "velocity": 0.8503937007874016
        },
        {
          "duration": 0.1599999999999966,
          "durationTicks": 32,
          "midi": 26,
          "name": "D1",
          "ticks": 28104,
          "time": 140.51999999999998,
          "velocity": 0.8503937007874016
        },
        {
          "duration": 0.1599999999999966,
          "durationTicks": 32,
          "midi": 38,
          "name": "D2",
          "ticks": 28176,
          "time": 140.88,
          "velocity": 0.8503937007874016
        },
        {
          "duration": 0.15999999999996817,
          "durationTicks": 32,
          "midi": 26,
          "name": "D1",
          "ticks": 28224,
          "time": 141.12,
          "velocity": 0.8503937007874016
        },
        {
          "duration": 0.1599999999999966,
          "durationTicks": 32,
          "midi": 26,
          "name": "D1",
          "ticks": 28272,
          "time": 141.35999999999999,
          "velocity": 0.8503937007874016
        },
        {
          "duration": 0.1599999999999966,
          "durationTicks": 32,
          "midi": 26,
          "name": "D1",
          "ticks": 28320,
          "time": 141.6,
          "velocity": 0.8503937007874016
        },
        {
          "duration": 0.15999999999996817,
          "durationTicks": 32,
          "midi": 38,
          "name": "D2",
          "ticks": 28368,
          "time": 141.84,
          "velocity": 0.8503937007874016
        },
        {
          "duration": 0.1599999999999966,
          "durationTicks": 32,
          "midi": 27,
          "name": "D#1",
          "ticks": 28416,
          "time": 142.07999999999998,
          "velocity": 0.8503937007874016
        },
        {
          "duration": 0.1599999999999966,
          "durationTicks": 32,
          "midi": 27,
          "name": "D#1",
          "ticks": 28488,
          "time": 142.44,
          "velocity": 0.8503937007874016
        },
        {
          "duration": 0.1599999999999966,
          "durationTicks": 32,
          "midi": 39,
          "name": "D#2",
          "ticks": 28560,
          "time": 142.79999999999998,
          "velocity": 0.8503937007874016
        },
        {
          "duration": 0.1599999999999966,
          "durationTicks": 32,
          "midi": 29,
          "name": "F1",
          "ticks": 28608,
          "time": 143.04,
          "velocity": 0.8503937007874016
        },
        {
          "duration": 0.1599999999999966,
          "durationTicks": 32,
          "midi": 29,
          "name": "F1",
          "ticks": 28656,
          "time": 143.28,
          "velocity": 0.8503937007874016
        },
        {
          "duration": 0.1599999999999966,
          "durationTicks": 32,
          "midi": 30,
          "name": "F#1",
          "ticks": 28704,
          "time": 143.51999999999998,
          "velocity": 0.8503937007874016
        },
        {
          "duration": 0.1599999999999966,
          "durationTicks": 32,
          "midi": 42,
          "name": "F#2",
          "ticks": 28752,
          "time": 143.76,
          "velocity": 0.8503937007874016
        },
        {
          "duration": 0.1599999999999966,
          "durationTicks": 32,
          "midi": 31,
          "name": "G1",
          "ticks": 28800,
          "time": 144,
          "velocity": 0.8503937007874016
        },
        {
          "duration": 0.1599999999999966,
          "durationTicks": 32,
          "midi": 31,
          "name": "G1",
          "ticks": 28872,
          "time": 144.35999999999999,
          "velocity": 0.8503937007874016
        },
        {
          "duration": 0.1599999999999966,
          "durationTicks": 32,
          "midi": 43,
          "name": "G2",
          "ticks": 28944,
          "time": 144.72,
          "velocity": 0.8503937007874016
        },
        {
          "duration": 0.9599999999999795,
          "durationTicks": 192,
          "midi": 29,
          "name": "F1",
          "ticks": 28992,
          "time": 144.96,
          "velocity": 0.8503937007874016
        }
      ]
    },
    {
      "channel": 0,
      "controlChanges": {
        "6": [
          {
            "number": 6,
            "ticks": 0,
            "time": 0,
            "value": 0.09448818897637795
          }
        ],
        "7": [
          {
            "number": 7,
            "ticks": 0,
            "time": 0,
            "value": 0.7874015748031497
          },
          {
            "number": 7,
            "ticks": 0,
            "time": 0,
            "value": 0.7874015748031497
          }
        ],
        "10": [
          {
            "number": 10,
            "ticks": 0,
            "time": 0,
            "value": 0.5039370078740157
          },
          {
            "number": 10,
            "ticks": 0,
            "time": 0,
            "value": 0.5039370078740157
          }
        ],
        "100": [
          {
            "number": 100,
            "ticks": 0,
            "time": 0,
            "value": 0
          }
        ],
        "101": [
          {
            "number": 101,
            "ticks": 0,
            "time": 0,
            "value": 0
          }
        ]
      },
      "pitchBends": [
        {
          "ticks": 0,
          "time": 0,
          "value": 0
        },
        {
          "ticks": 0,
          "time": 0,
          "value": 0
        }
      ],
      "instrument": {
        "family": "piano",
        "number": 0,
        "name": "acoustic grand piano"
      },
      "name": "Chior",
      "notes": [],
      "endOfTrackTicks": 32340
    },
    {
      "channel": 7,
      "controlChanges": {
        "6": [
          {
            "number": 6,
            "ticks": 0,
            "time": 0,
            "value": 0.09448818897637795
          },
          {
            "number": 6,
            "ticks": 32256,
            "time": 161.28,
            "value": 0.09448818897637795
          },
          {
            "number": 6,
            "ticks": 32340,
            "time": 161.7,
            "value": 0.09448818897637795
          },
          {
            "number": 6,
            "ticks": 32340,
            "time": 161.7,
            "value": 0.09448818897637795
          }
        ],
        "7": [
          {
            "number": 7,
            "ticks": 0,
            "time": 0,
            "value": 0.7874015748031497
          },
          {
            "number": 7,
            "ticks": 32256,
            "time": 161.28,
            "value": 0.7874015748031497
          },
          {
            "number": 7,
            "ticks": 32340,
            "time": 161.7,
            "value": 0.7874015748031497
          },
          {
            "number": 7,
            "ticks": 32340,
            "time": 161.7,
            "value": 0.7874015748031497
          }
        ],
        "10": [
          {
            "number": 10,
            "ticks": 0,
            "time": 0,
            "value": 0.5039370078740157
          },
          {
            "number": 10,
            "ticks": 32256,
            "time": 161.28,
            "value": 0.5039370078740157
          },
          {
            "number": 10,
            "ticks": 32340,
            "time": 161.7,
            "value": 0.5039370078740157
          },
          {
            "number": 10,
            "ticks": 32340,
            "time": 161.7,
            "value": 0.5039370078740157
          }
        ],
        "100": [
          {
            "number": 100,
            "ticks": 0,
            "time": 0,
            "value": 0
          },
          {
            "number": 100,
            "ticks": 32256,
            "time": 161.28,
            "value": 0
          },
          {
            "number": 100,
            "ticks": 32340,
            "time": 161.7,
            "value": 0
          },
          {
            "number": 100,
            "ticks": 32340,
            "time": 161.7,
            "value": 0
          }
        ],
        "101": [
          {
            "number": 101,
            "ticks": 0,
            "time": 0,
            "value": 0
          },
          {
            "number": 101,
            "ticks": 32256,
            "time": 161.28,
            "value": 0
          },
          {
            "number": 101,
            "ticks": 32340,
            "time": 161.7,
            "value": 0
          },
          {
            "number": 101,
            "ticks": 32340,
            "time": 161.7,
            "value": 0
          }
        ]
      },
      "pitchBends": [
        {
          "ticks": 0,
          "time": 0,
          "value": 0
        },
        {
          "ticks": 32256,
          "time": 161.28,
          "value": 0
        },
        {
          "ticks": 32340,
          "time": 161.7,
          "value": 0
        },
        {
          "ticks": 32340,
          "time": 161.7,
          "value": 0
        }
      ],
      "instrument": {
        "family": "ensemble",
        "number": 52,
        "name": "choir aahs"
      },
      "name": "",
      "notes": [
        {
          "duration": 0.11999999999999922,
          "durationTicks": 24,
          "midi": 70,
          "name": "A#4",
          "ticks": 3072,
          "time": 15.36,
          "velocity": 0.4409448818897638
        },
        {
          "duration": 0.11999999999999922,
          "durationTicks": 24,
          "midi": 67,
          "name": "G4",
          "ticks": 3072,
          "time": 15.36,
          "velocity": 0.4409448818897638
        },
        {
          "duration": 0.11999999999999922,
          "durationTicks": 24,
          "midi": 62,
          "name": "D4",
          "ticks": 3072,
          "time": 15.36,
          "velocity": 0.4409448818897638
        },
        {
          "duration": 0.120000000000001,
          "durationTicks": 24,
          "midi": 62,
          "name": "D4",
          "ticks": 3144,
          "time": 15.719999999999999,
          "velocity": 0.4409448818897638
        },
        {
          "duration": 0.120000000000001,
          "durationTicks": 24,
          "midi": 67,
          "name": "G4",
          "ticks": 3144,
          "time": 15.719999999999999,
          "velocity": 0.4409448818897638
        },
        {
          "duration": 0.120000000000001,
          "durationTicks": 24,
          "midi": 70,
          "name": "A#4",
          "ticks": 3144,
          "time": 15.719999999999999,
          "velocity": 0.4409448818897638
        },
        {
          "duration": 0.120000000000001,
          "durationTicks": 24,
          "midi": 72,
          "name": "C5",
          "ticks": 3216,
          "time": 16.08,
          "velocity": 0.4409448818897638
        },
        {
          "duration": 0.120000000000001,
          "durationTicks": 24,
          "midi": 69,
          "name": "A4",
          "ticks": 3216,
          "time": 16.08,
          "velocity": 0.4409448818897638
        },
        {
          "duration": 0.120000000000001,
          "durationTicks": 24,
          "midi": 65,
          "name": "F4",
          "ticks": 3216,
          "time": 16.08,
          "velocity": 0.4409448818897638
        },
        {
          "duration": 0.11999999999999744,
          "durationTicks": 24,
          "midi": 70,
          "name": "A#4",
          "ticks": 3264,
          "time": 16.32,
          "velocity": 0.4409448818897638
        },
        {
          "duration": 0.11999999999999744,
          "durationTicks": 24,
          "midi": 62,
          "name": "D4",
          "ticks": 3264,
          "time": 16.32,
          "velocity": 0.4409448818897638
        },
        {
          "duration": 0.11999999999999744,
          "durationTicks": 24,
          "midi": 67,
          "name": "G4",
          "ticks": 3264,
          "time": 16.32,
          "velocity": 0.4409448818897638
        },
        {
          "duration": 0.120000000000001,
          "durationTicks": 24,
          "midi": 67,
          "name": "G4",
          "ticks": 3336,
          "time": 16.68,
          "velocity": 0.4409448818897638
        },
        {
          "duration": 0.120000000000001,
          "durationTicks": 24,
          "midi": 62,
          "name": "D4",
          "ticks": 3336,
          "time": 16.68,
          "velocity": 0.4409448818897638
        },
        {
          "duration": 0.120000000000001,
          "durationTicks": 24,
          "midi": 70,
          "name": "A#4",
          "ticks": 3336,
          "time": 16.68,
          "velocity": 0.4409448818897638
        },
        {
          "duration": 0.120000000000001,
          "durationTicks": 24,
          "midi": 72,
          "name": "C5",
          "ticks": 3408,
          "time": 17.04,
          "velocity": 0.4409448818897638
        },
        {
          "duration": 0.120000000000001,
          "durationTicks": 24,
          "midi": 65,
          "name": "F4",
          "ticks": 3408,
          "time": 17.04,
          "velocity": 0.4409448818897638
        },
        {
          "duration": 0.120000000000001,
          "durationTicks": 24,
          "midi": 69,
          "name": "A4",
          "ticks": 3408,
          "time": 17.04,
          "velocity": 0.4409448818897638
        },
        {
          "duration": 0.11999999999999744,
          "durationTicks": 24,
          "midi": 70,
          "name": "A#4",
          "ticks": 3456,
          "time": 17.28,
          "velocity": 0.4409448818897638
        },
        {
          "duration": 0.11999999999999744,
          "durationTicks": 24,
          "midi": 67,
          "name": "G4",
          "ticks": 3456,
          "time": 17.28,
          "velocity": 0.4409448818897638
        },
        {
          "duration": 0.11999999999999744,
          "durationTicks": 24,
          "midi": 62,
          "name": "D4",
          "ticks": 3456,
          "time": 17.28,
          "velocity": 0.4409448818897638
        },
        {
          "duration": 0.11999999999999744,
          "durationTicks": 24,
          "midi": 62,
          "name": "D4",
          "ticks": 3528,
          "time": 17.64,
          "velocity": 0.4409448818897638
        },
        {
          "duration": 0.11999999999999744,
          "durationTicks": 24,
          "midi": 67,
          "name": "G4",
          "ticks": 3528,
          "time": 17.64,
          "velocity": 0.4409448818897638
        },
        {
          "duration": 0.11999999999999744,
          "durationTicks": 24,
          "midi": 70,
          "name": "A#4",
          "ticks": 3528,
          "time": 17.64,
          "velocity": 0.4409448818897638
        },
        {
          "duration": 0.120000000000001,
          "durationTicks": 24,
          "midi": 69,
          "name": "A4",
          "ticks": 3600,
          "time": 18,
          "velocity": 0.4409448818897638
        },
        {
          "duration": 0.120000000000001,
          "durationTicks": 24,
          "midi": 65,
          "name": "F4",
          "ticks": 3600,
          "time": 18,
          "velocity": 0.4409448818897638
        },
        {
          "duration": 0.120000000000001,
          "durationTicks": 24,
          "midi": 72,
          "name": "C5",
          "ticks": 3600,
          "time": 18,
          "velocity": 0.4409448818897638
        },
        {
          "duration": 0.120000000000001,
          "durationTicks": 24,
          "midi": 70,
          "name": "A#4",
          "ticks": 3648,
          "time": 18.24,
          "velocity": 0.4409448818897638
        },
        {
          "duration": 0.120000000000001,
          "durationTicks": 24,
          "midi": 62,
          "name": "D4",
          "ticks": 3648,
          "time": 18.24,
          "velocity": 0.4409448818897638
        },
        {
          "duration": 0.120000000000001,
          "durationTicks": 24,
          "midi": 67,
          "name": "G4",
          "ticks": 3648,
          "time": 18.24,
          "velocity": 0.4409448818897638
        },
        {
          "duration": 0.11999999999999744,
          "durationTicks": 24,
          "midi": 65,
          "name": "F4",
          "ticks": 3696,
          "time": 18.48,
          "velocity": 0.4409448818897638
        },
        {
          "duration": 0.11999999999999744,
          "durationTicks": 24,
          "midi": 69,
          "name": "A4",
          "ticks": 3696,
          "time": 18.48,
          "velocity": 0.4409448818897638
        },
        {
          "duration": 0.11999999999999744,
          "durationTicks": 24,
          "midi": 72,
          "name": "C5",
          "ticks": 3696,
          "time": 18.48,
          "velocity": 0.4409448818897638
        },
        {
          "duration": 0.120000000000001,
          "durationTicks": 24,
          "midi": 70,
          "name": "A#4",
          "ticks": 3744,
          "time": 18.72,
          "velocity": 0.4409448818897638
        },
        {
          "duration": 0.120000000000001,
          "durationTicks": 24,
          "midi": 74,
          "name": "D5",
          "ticks": 3744,
          "time": 18.72,
          "velocity": 0.4409448818897638
        },
        {
          "duration": 0.120000000000001,
          "durationTicks": 24,
          "midi": 65,
          "name": "F4",
          "ticks": 3744,
          "time": 18.72,
          "velocity": 0.4409448818897638
        },
        {
          "duration": 0.11999999999999744,
          "durationTicks": 24,
          "midi": 65,
          "name": "F4",
          "ticks": 3792,
          "time": 18.96,
          "velocity": 0.4409448818897638
        },
        {
          "duration": 0.11999999999999744,
          "durationTicks": 24,
          "midi": 69,
          "name": "A4",
          "ticks": 3792,
          "time": 18.96,
          "velocity": 0.4409448818897638
        },
        {
          "duration": 0.11999999999999744,
          "durationTicks": 24,
          "midi": 72,
          "name": "C5",
          "ticks": 3792,
          "time": 18.96,
          "velocity": 0.4409448818897638
        },
        {
          "duration": 0.120000000000001,
          "durationTicks": 24,
          "midi": 70,
          "name": "A#4",
          "ticks": 3840,
          "time": 19.2,
          "velocity": 0.4409448818897638
        },
        {
          "duration": 0.120000000000001,
          "durationTicks": 24,
          "midi": 67,
          "name": "G4",
          "ticks": 3840,
          "time": 19.2,
          "velocity": 0.4409448818897638
        },
        {
          "duration": 0.120000000000001,
          "durationTicks": 24,
          "midi": 62,
          "name": "D4",
          "ticks": 3840,
          "time": 19.2,
          "velocity": 0.4409448818897638
        },
        {
          "duration": 0.120000000000001,
          "durationTicks": 24,
          "midi": 62,
          "name": "D4",
          "ticks": 3912,
          "time": 19.56,
          "velocity": 0.4409448818897638
        },
        {
          "duration": 0.120000000000001,
          "durationTicks": 24,
          "midi": 67,
          "name": "G4",
          "ticks": 3912,
          "time": 19.56,
          "velocity": 0.4409448818897638
        },
        {
          "duration": 0.120000000000001,
          "durationTicks": 24,
          "midi": 70,
          "name": "A#4",
          "ticks": 3912,
          "time": 19.56,
          "velocity": 0.4409448818897638
        },
        {
          "duration": 0.120000000000001,
          "durationTicks": 24,
          "midi": 69,
          "name": "A4",
          "ticks": 3984,
          "time": 19.919999999999998,
          "velocity": 0.4409448818897638
        },
        {
          "duration": 0.120000000000001,
          "durationTicks": 24,
          "midi": 65,
          "name": "F4",
          "ticks": 3984,
          "time": 19.919999999999998,
          "velocity": 0.4409448818897638
        },
        {
          "duration": 0.120000000000001,
          "durationTicks": 24,
          "midi": 72,
          "name": "C5",
          "ticks": 3984,
          "time": 19.919999999999998,
          "velocity": 0.4409448818897638
        },
        {
          "duration": 0.11999999999999744,
          "durationTicks": 24,
          "midi": 70,
          "name": "A#4",
          "ticks": 4032,
          "time": 20.16,
          "velocity": 0.4409448818897638
        },
        {
          "duration": 0.11999999999999744,
          "durationTicks": 24,
          "midi": 62,
          "name": "D4",
          "ticks": 4032,
          "time": 20.16,
          "velocity": 0.4409448818897638
        },
        {
          "duration": 0.11999999999999744,
          "durationTicks": 24,
          "midi": 67,
          "name": "G4",
          "ticks": 4032,
          "time": 20.16,
          "velocity": 0.4409448818897638
        },
        {
          "duration": 0.120000000000001,
          "durationTicks": 24,
          "midi": 70,
          "name": "A#4",
          "ticks": 4104,
          "time": 20.52,
          "velocity": 0.4409448818897638
        },
        {
          "duration": 0.120000000000001,
          "durationTicks": 24,
          "midi": 62,
          "name": "D4",
          "ticks": 4104,
          "time": 20.52,
          "velocity": 0.4409448818897638
        },
        {
          "duration": 0.120000000000001,
          "durationTicks": 24,
          "midi": 67,
          "name": "G4",
          "ticks": 4104,
          "time": 20.52,
          "velocity": 0.4409448818897638
        },
        {
          "duration": 0.120000000000001,
          "durationTicks": 24,
          "midi": 72,
          "name": "C5",
          "ticks": 4176,
          "time": 20.88,
          "velocity": 0.4409448818897638
        },
        {
          "duration": 0.120000000000001,
          "durationTicks": 24,
          "midi": 69,
          "name": "A4",
          "ticks": 4176,
          "time": 20.88,
          "velocity": 0.4409448818897638
        },
        {
          "duration": 0.120000000000001,
          "durationTicks": 24,
          "midi": 65,
          "name": "F4",
          "ticks": 4176,
          "time": 20.88,
          "velocity": 0.4409448818897638
        },
        {
          "duration": 0.120000000000001,
          "durationTicks": 24,
          "midi": 62,
          "name": "D4",
          "ticks": 4224,
          "time": 21.119999999999997,
          "velocity": 0.4409448818897638
        },
        {
          "duration": 0.120000000000001,
          "durationTicks": 24,
          "midi": 67,
          "name": "G4",
          "ticks": 4224,
          "time": 21.119999999999997,
          "velocity": 0.4409448818897638
        },
        {
          "duration": 0.120000000000001,
          "durationTicks": 24,
          "midi": 70,
          "name": "A#4",
          "ticks": 4224,
          "time": 21.119999999999997,
          "velocity": 0.4409448818897638
        },
        {
          "duration": 0.11999999999999744,
          "durationTicks": 24,
          "midi": 70,
          "name": "A#4",
          "ticks": 4296,
          "time": 21.48,
          "velocity": 0.4409448818897638
        },
        {
          "duration": 0.11999999999999744,
          "durationTicks": 24,
          "midi": 67,
          "name": "G4",
          "ticks": 4296,
          "time": 21.48,
          "velocity": 0.4409448818897638
        },
        {
          "duration": 0.11999999999999744,
          "durationTicks": 24,
          "midi": 62,
          "name": "D4",
          "ticks": 4296,
          "time": 21.48,
          "velocity": 0.4409448818897638
        },
        {
          "duration": 0.120000000000001,
          "durationTicks": 24,
          "midi": 72,
          "name": "C5",
          "ticks": 4368,
          "time": 21.84,
          "velocity": 0.4409448818897638
        },
        {
          "duration": 0.120000000000001,
          "durationTicks": 24,
          "midi": 65,
          "name": "F4",
          "ticks": 4368,
          "time": 21.84,
          "velocity": 0.4409448818897638
        },
        {
          "duration": 0.120000000000001,
          "durationTicks": 24,
          "midi": 69,
          "name": "A4",
          "ticks": 4368,
          "time": 21.84,
          "velocity": 0.4409448818897638
        },
        {
          "duration": 0.120000000000001,
          "durationTicks": 24,
          "midi": 67,
          "name": "G4",
          "ticks": 4416,
          "time": 22.08,
          "velocity": 0.4409448818897638
        },
        {
          "duration": 0.120000000000001,
          "durationTicks": 24,
          "midi": 70,
          "name": "A#4",
          "ticks": 4416,
          "time": 22.08,
          "velocity": 0.4409448818897638
        },
        {
          "duration": 0.120000000000001,
          "durationTicks": 24,
          "midi": 62,
          "name": "D4",
          "ticks": 4416,
          "time": 22.08,
          "velocity": 0.4409448818897638
        },
        {
          "duration": 0.11999999999999744,
          "durationTicks": 24,
          "midi": 65,
          "name": "F4",
          "ticks": 4464,
          "time": 22.32,
          "velocity": 0.4409448818897638
        },
        {
          "duration": 0.11999999999999744,
          "durationTicks": 24,
          "midi": 69,
          "name": "A4",
          "ticks": 4464,
          "time": 22.32,
          "velocity": 0.4409448818897638
        },
        {
          "duration": 0.11999999999999744,
          "durationTicks": 24,
          "midi": 72,
          "name": "C5",
          "ticks": 4464,
          "time": 22.32,
          "velocity": 0.4409448818897638
        },
        {
          "duration": 0.120000000000001,
          "durationTicks": 24,
          "midi": 65,
          "name": "F4",
          "ticks": 4512,
          "time": 22.56,
          "velocity": 0.4409448818897638
        },
        {
          "duration": 0.120000000000001,
          "durationTicks": 24,
          "midi": 74,
          "name": "D5",
          "ticks": 4512,
          "time": 22.56,
          "velocity": 0.4409448818897638
        },
        {
          "duration": 0.120000000000001,
          "durationTicks": 24,
          "midi": 70,
          "name": "A#4",
          "ticks": 4512,
          "time": 22.56,
          "velocity": 0.4409448818897638
        },
        {
          "duration": 0.11999999999999744,
          "durationTicks": 24,
          "midi": 65,
          "name": "F4",
          "ticks": 4560,
          "time": 22.8,
          "velocity": 0.4409448818897638
        },
        {
          "duration": 0.11999999999999744,
          "durationTicks": 24,
          "midi": 69,
          "name": "A4",
          "ticks": 4560,
          "time": 22.8,
          "velocity": 0.4409448818897638
        },
        {
          "duration": 0.11999999999999744,
          "durationTicks": 24,
          "midi": 72,
          "name": "C5",
          "ticks": 4560,
          "time": 22.8,
          "velocity": 0.4409448818897638
        },
        {
          "duration": 0.120000000000001,
          "durationTicks": 24,
          "midi": 62,
          "name": "D4",
          "ticks": 4608,
          "time": 23.04,
          "velocity": 0.4409448818897638
        },
        {
          "duration": 0.120000000000001,
          "durationTicks": 24,
          "midi": 70,
          "name": "A#4",
          "ticks": 4608,
          "time": 23.04,
          "velocity": 0.4409448818897638
        },
        {
          "duration": 0.120000000000001,
          "durationTicks": 24,
          "midi": 67,
          "name": "G4",
          "ticks": 4608,
          "time": 23.04,
          "velocity": 0.4409448818897638
        },
        {
          "duration": 0.120000000000001,
          "durationTicks": 24,
          "midi": 70,
          "name": "A#4",
          "ticks": 4680,
          "time": 23.4,
          "velocity": 0.4409448818897638
        },
        {
          "duration": 0.120000000000001,
          "durationTicks": 24,
          "midi": 62,
          "name": "D4",
          "ticks": 4680,
          "time": 23.4,
          "velocity": 0.4409448818897638
        },
        {
          "duration": 0.120000000000001,
          "durationTicks": 24,
          "midi": 67,
          "name": "G4",
          "ticks": 4680,
          "time": 23.4,
          "velocity": 0.4409448818897638
        },
        {
          "duration": 0.120000000000001,
          "durationTicks": 24,
          "midi": 69,
          "name": "A4",
          "ticks": 4752,
          "time": 23.759999999999998,
          "velocity": 0.4409448818897638
        },
        {
          "duration": 0.120000000000001,
          "durationTicks": 24,
          "midi": 65,
          "name": "F4",
          "ticks": 4752,
          "time": 23.759999999999998,
          "velocity": 0.4409448818897638
        },
        {
          "duration": 0.120000000000001,
          "durationTicks": 24,
          "midi": 72,
          "name": "C5",
          "ticks": 4752,
          "time": 23.759999999999998,
          "velocity": 0.4409448818897638
        },
        {
          "duration": 0.11999999999999744,
          "durationTicks": 24,
          "midi": 70,
          "name": "A#4",
          "ticks": 4800,
          "time": 24,
          "velocity": 0.4409448818897638
        },
        {
          "duration": 0.11999999999999744,
          "durationTicks": 24,
          "midi": 62,
          "name": "D4",
          "ticks": 4800,
          "time": 24,
          "velocity": 0.4409448818897638
        },
        {
          "duration": 0.11999999999999744,
          "durationTicks": 24,
          "midi": 67,
          "name": "G4",
          "ticks": 4800,
          "time": 24,
          "velocity": 0.4409448818897638
        },
        {
          "duration": 0.120000000000001,
          "durationTicks": 24,
          "midi": 67,
          "name": "G4",
          "ticks": 4872,
          "time": 24.36,
          "velocity": 0.4409448818897638
        },
        {
          "duration": 0.120000000000001,
          "durationTicks": 24,
          "midi": 62,
          "name": "D4",
          "ticks": 4872,
          "time": 24.36,
          "velocity": 0.4409448818897638
        },
        {
          "duration": 0.120000000000001,
          "durationTicks": 24,
          "midi": 70,
          "name": "A#4",
          "ticks": 4872,
          "time": 24.36,
          "velocity": 0.4409448818897638
        },
        {
          "duration": 0.120000000000001,
          "durationTicks": 24,
          "midi": 65,
          "name": "F4",
          "ticks": 4944,
          "time": 24.72,
          "velocity": 0.4409448818897638
        },
        {
          "duration": 0.120000000000001,
          "durationTicks": 24,
          "midi": 69,
          "name": "A4",
          "ticks": 4944,
          "time": 24.72,
          "velocity": 0.4409448818897638
        },
        {
          "duration": 0.120000000000001,
          "durationTicks": 24,
          "midi": 72,
          "name": "C5",
          "ticks": 4944,
          "time": 24.72,
          "velocity": 0.4409448818897638
        },
        {
          "duration": 0.11999999999999744,
          "durationTicks": 24,
          "midi": 70,
          "name": "A#4",
          "ticks": 4992,
          "time": 24.96,
          "velocity": 0.4409448818897638
        },
        {
          "duration": 0.11999999999999744,
          "durationTicks": 24,
          "midi": 67,
          "name": "G4",
          "ticks": 4992,
          "time": 24.96,
          "velocity": 0.4409448818897638
        },
        {
          "duration": 0.11999999999999744,
          "durationTicks": 24,
          "midi": 62,
          "name": "D4",
          "ticks": 4992,
          "time": 24.96,
          "velocity": 0.4409448818897638
        },
        {
          "duration": 0.11999999999999744,
          "durationTicks": 24,
          "midi": 62,
          "name": "D4",
          "ticks": 5064,
          "time": 25.32,
          "velocity": 0.4409448818897638
        },
        {
          "duration": 0.11999999999999744,
          "durationTicks": 24,
          "midi": 67,
          "name": "G4",
          "ticks": 5064,
          "time": 25.32,
          "velocity": 0.4409448818897638
        },
        {
          "duration": 0.11999999999999744,
          "durationTicks": 24,
          "midi": 70,
          "name": "A#4",
          "ticks": 5064,
          "time": 25.32,
          "velocity": 0.4409448818897638
        },
        {
          "duration": 0.120000000000001,
          "durationTicks": 24,
          "midi": 69,
          "name": "A4",
          "ticks": 5136,
          "time": 25.68,
          "velocity": 0.4409448818897638
        },
        {
          "duration": 0.120000000000001,
          "durationTicks": 24,
          "midi": 65,
          "name": "F4",
          "ticks": 5136,
          "time": 25.68,
          "velocity": 0.4409448818897638
        },
        {
          "duration": 0.120000000000001,
          "durationTicks": 24,
          "midi": 72,
          "name": "C5",
          "ticks": 5136,
          "time": 25.68,
          "velocity": 0.4409448818897638
        },
        {
          "duration": 0.120000000000001,
          "durationTicks": 24,
          "midi": 70,
          "name": "A#4",
          "ticks": 5184,
          "time": 25.919999999999998,
          "velocity": 0.4409448818897638
        },
        {
          "duration": 0.120000000000001,
          "durationTicks": 24,
          "midi": 62,
          "name": "D4",
          "ticks": 5184,
          "time": 25.919999999999998,
          "velocity": 0.4409448818897638
        },
        {
          "duration": 0.120000000000001,
          "durationTicks": 24,
          "midi": 67,
          "name": "G4",
          "ticks": 5184,
          "time": 25.919999999999998,
          "velocity": 0.4409448818897638
        },
        {
          "duration": 0.11999999999999744,
          "durationTicks": 24,
          "midi": 65,
          "name": "F4",
          "ticks": 5232,
          "time": 26.16,
          "velocity": 0.4409448818897638
        },
        {
          "duration": 0.11999999999999744,
          "durationTicks": 24,
          "midi": 69,
          "name": "A4",
          "ticks": 5232,
          "time": 26.16,
          "velocity": 0.4409448818897638
        },
        {
          "duration": 0.11999999999999744,
          "durationTicks": 24,
          "midi": 72,
          "name": "C5",
          "ticks": 5232,
          "time": 26.16,
          "velocity": 0.4409448818897638
        },
        {
          "duration": 0.120000000000001,
          "durationTicks": 24,
          "midi": 70,
          "name": "A#4",
          "ticks": 5280,
          "time": 26.4,
          "velocity": 0.4409448818897638
        },
        {
          "duration": 0.120000000000001,
          "durationTicks": 24,
          "midi": 74,
          "name": "D5",
          "ticks": 5280,
          "time": 26.4,
          "velocity": 0.4409448818897638
        },
        {
          "duration": 0.120000000000001,
          "durationTicks": 24,
          "midi": 65,
          "name": "F4",
          "ticks": 5280,
          "time": 26.4,
          "velocity": 0.4409448818897638
        },
        {
          "duration": 0.11999999999999744,
          "durationTicks": 24,
          "midi": 65,
          "name": "F4",
          "ticks": 5328,
          "time": 26.64,
          "velocity": 0.4409448818897638
        },
        {
          "duration": 0.11999999999999744,
          "durationTicks": 24,
          "midi": 69,
          "name": "A4",
          "ticks": 5328,
          "time": 26.64,
          "velocity": 0.4409448818897638
        },
        {
          "duration": 0.11999999999999744,
          "durationTicks": 24,
          "midi": 72,
          "name": "C5",
          "ticks": 5328,
          "time": 26.64,
          "velocity": 0.4409448818897638
        },
        {
          "duration": 0.120000000000001,
          "durationTicks": 24,
          "midi": 62,
          "name": "D4",
          "ticks": 5376,
          "time": 26.88,
          "velocity": 0.4409448818897638
        },
        {
          "duration": 0.120000000000001,
          "durationTicks": 24,
          "midi": 70,
          "name": "A#4",
          "ticks": 5376,
          "time": 26.88,
          "velocity": 0.4409448818897638
        },
        {
          "duration": 0.120000000000001,
          "durationTicks": 24,
          "midi": 67,
          "name": "G4",
          "ticks": 5376,
          "time": 26.88,
          "velocity": 0.4409448818897638
        },
        {
          "duration": 0.120000000000001,
          "durationTicks": 24,
          "midi": 70,
          "name": "A#4",
          "ticks": 5448,
          "time": 27.24,
          "velocity": 0.4409448818897638
        },
        {
          "duration": 0.120000000000001,
          "durationTicks": 24,
          "midi": 62,
          "name": "D4",
          "ticks": 5448,
          "time": 27.24,
          "velocity": 0.4409448818897638
        },
        {
          "duration": 0.120000000000001,
          "durationTicks": 24,
          "midi": 67,
          "name": "G4",
          "ticks": 5448,
          "time": 27.24,
          "velocity": 0.4409448818897638
        },
        {
          "duration": 0.120000000000001,
          "durationTicks": 24,
          "midi": 69,
          "name": "A4",
          "ticks": 5520,
          "time": 27.599999999999998,
          "velocity": 0.4409448818897638
        },
        {
          "duration": 0.120000000000001,
          "durationTicks": 24,
          "midi": 65,
          "name": "F4",
          "ticks": 5520,
          "time": 27.599999999999998,
          "velocity": 0.4409448818897638
        },
        {
          "duration": 0.120000000000001,
          "durationTicks": 24,
          "midi": 72,
          "name": "C5",
          "ticks": 5520,
          "time": 27.599999999999998,
          "velocity": 0.4409448818897638
        },
        {
          "duration": 0.11999999999999744,
          "durationTicks": 24,
          "midi": 70,
          "name": "A#4",
          "ticks": 5568,
          "time": 27.84,
          "velocity": 0.4409448818897638
        },
        {
          "duration": 0.11999999999999744,
          "durationTicks": 24,
          "midi": 62,
          "name": "D4",
          "ticks": 5568,
          "time": 27.84,
          "velocity": 0.4409448818897638
        },
        {
          "duration": 0.11999999999999744,
          "durationTicks": 24,
          "midi": 67,
          "name": "G4",
          "ticks": 5568,
          "time": 27.84,
          "velocity": 0.4409448818897638
        },
        {
          "duration": 0.120000000000001,
          "durationTicks": 24,
          "midi": 67,
          "name": "G4",
          "ticks": 5640,
          "time": 28.2,
          "velocity": 0.4409448818897638
        },
        {
          "duration": 0.120000000000001,
          "durationTicks": 24,
          "midi": 62,
          "name": "D4",
          "ticks": 5640,
          "time": 28.2,
          "velocity": 0.4409448818897638
        },
        {
          "duration": 0.120000000000001,
          "durationTicks": 24,
          "midi": 70,
          "name": "A#4",
          "ticks": 5640,
          "time": 28.2,
          "velocity": 0.4409448818897638
        },
        {
          "duration": 0.120000000000001,
          "durationTicks": 24,
          "midi": 65,
          "name": "F4",
          "ticks": 5712,
          "time": 28.56,
          "velocity": 0.4409448818897638
        },
        {
          "duration": 0.120000000000001,
          "durationTicks": 24,
          "midi": 69,
          "name": "A4",
          "ticks": 5712,
          "time": 28.56,
          "velocity": 0.4409448818897638
        },
        {
          "duration": 0.120000000000001,
          "durationTicks": 24,
          "midi": 72,
          "name": "C5",
          "ticks": 5712,
          "time": 28.56,
          "velocity": 0.4409448818897638
        },
        {
          "duration": 0.120000000000001,
          "durationTicks": 24,
          "midi": 70,
          "name": "A#4",
          "ticks": 5760,
          "time": 28.799999999999997,
          "velocity": 0.4409448818897638
        },
        {
          "duration": 0.120000000000001,
          "durationTicks": 24,
          "midi": 67,
          "name": "G4",
          "ticks": 5760,
          "time": 28.799999999999997,
          "velocity": 0.4409448818897638
        },
        {
          "duration": 0.120000000000001,
          "durationTicks": 24,
          "midi": 62,
          "name": "D4",
          "ticks": 5760,
          "time": 28.799999999999997,
          "velocity": 0.4409448818897638
        },
        {
          "duration": 0.11999999999999744,
          "durationTicks": 24,
          "midi": 62,
          "name": "D4",
          "ticks": 5832,
          "time": 29.16,
          "velocity": 0.4409448818897638
        },
        {
          "duration": 0.11999999999999744,
          "durationTicks": 24,
          "midi": 67,
          "name": "G4",
          "ticks": 5832,
          "time": 29.16,
          "velocity": 0.4409448818897638
        },
        {
          "duration": 0.11999999999999744,
          "durationTicks": 24,
          "midi": 70,
          "name": "A#4",
          "ticks": 5832,
          "time": 29.16,
          "velocity": 0.4409448818897638
        },
        {
          "duration": 0.120000000000001,
          "durationTicks": 24,
          "midi": 69,
          "name": "A4",
          "ticks": 5904,
          "time": 29.52,
          "velocity": 0.4409448818897638
        },
        {
          "duration": 0.120000000000001,
          "durationTicks": 24,
          "midi": 65,
          "name": "F4",
          "ticks": 5904,
          "time": 29.52,
          "velocity": 0.4409448818897638
        },
        {
          "duration": 0.120000000000001,
          "durationTicks": 24,
          "midi": 72,
          "name": "C5",
          "ticks": 5904,
          "time": 29.52,
          "velocity": 0.4409448818897638
        },
        {
          "duration": 0.120000000000001,
          "durationTicks": 24,
          "midi": 70,
          "name": "A#4",
          "ticks": 5952,
          "time": 29.759999999999998,
          "velocity": 0.4409448818897638
        },
        {
          "duration": 0.120000000000001,
          "durationTicks": 24,
          "midi": 62,
          "name": "D4",
          "ticks": 5952,
          "time": 29.759999999999998,
          "velocity": 0.4409448818897638
        },
        {
          "duration": 0.120000000000001,
          "durationTicks": 24,
          "midi": 67,
          "name": "G4",
          "ticks": 5952,
          "time": 29.759999999999998,
          "velocity": 0.4409448818897638
        },
        {
          "duration": 0.11999999999999744,
          "durationTicks": 24,
          "midi": 65,
          "name": "F4",
          "ticks": 6000,
          "time": 30,
          "velocity": 0.4409448818897638
        },
        {
          "duration": 0.11999999999999744,
          "durationTicks": 24,
          "midi": 69,
          "name": "A4",
          "ticks": 6000,
          "time": 30,
          "velocity": 0.4409448818897638
        },
        {
          "duration": 0.11999999999999744,
          "durationTicks": 24,
          "midi": 72,
          "name": "C5",
          "ticks": 6000,
          "time": 30,
          "velocity": 0.4409448818897638
        },
        {
          "duration": 0.120000000000001,
          "durationTicks": 24,
          "midi": 70,
          "name": "A#4",
          "ticks": 6048,
          "time": 30.24,
          "velocity": 0.4409448818897638
        },
        {
          "duration": 0.120000000000001,
          "durationTicks": 24,
          "midi": 74,
          "name": "D5",
          "ticks": 6048,
          "time": 30.24,
          "velocity": 0.4409448818897638
        },
        {
          "duration": 0.120000000000001,
          "durationTicks": 24,
          "midi": 65,
          "name": "F4",
          "ticks": 6048,
          "time": 30.24,
          "velocity": 0.4409448818897638
        },
        {
          "duration": 0.11999999999999744,
          "durationTicks": 24,
          "midi": 65,
          "name": "F4",
          "ticks": 6096,
          "time": 30.48,
          "velocity": 0.4409448818897638
        },
        {
          "duration": 0.11999999999999744,
          "durationTicks": 24,
          "midi": 69,
          "name": "A4",
          "ticks": 6096,
          "time": 30.48,
          "velocity": 0.4409448818897638
        },
        {
          "duration": 0.11999999999999744,
          "durationTicks": 24,
          "midi": 72,
          "name": "C5",
          "ticks": 6096,
          "time": 30.48,
          "velocity": 0.4409448818897638
        },
        {
          "duration": 0.120000000000001,
          "durationTicks": 24,
          "midi": 70,
          "name": "A#4",
          "ticks": 6144,
          "time": 30.72,
          "velocity": 0.4409448818897638
        },
        {
          "duration": 0.120000000000001,
          "durationTicks": 24,
          "midi": 67,
          "name": "G4",
          "ticks": 6144,
          "time": 30.72,
          "velocity": 0.4409448818897638
        },
        {
          "duration": 0.120000000000001,
          "durationTicks": 24,
          "midi": 62,
          "name": "D4",
          "ticks": 6144,
          "time": 30.72,
          "velocity": 0.4409448818897638
        },
        {
          "duration": 0.120000000000001,
          "durationTicks": 24,
          "midi": 62,
          "name": "D4",
          "ticks": 6216,
          "time": 31.08,
          "velocity": 0.4409448818897638
        },
        {
          "duration": 0.120000000000001,
          "durationTicks": 24,
          "midi": 67,
          "name": "G4",
          "ticks": 6216,
          "time": 31.08,
          "velocity": 0.4409448818897638
        },
        {
          "duration": 0.120000000000001,
          "durationTicks": 24,
          "midi": 70,
          "name": "A#4",
          "ticks": 6216,
          "time": 31.08,
          "velocity": 0.4409448818897638
        },
        {
          "duration": 0.120000000000001,
          "durationTicks": 24,
          "midi": 69,
          "name": "A4",
          "ticks": 6288,
          "time": 31.439999999999998,
          "velocity": 0.4409448818897638
        },
        {
          "duration": 0.120000000000001,
          "durationTicks": 24,
          "midi": 65,
          "name": "F4",
          "ticks": 6288,
          "time": 31.439999999999998,
          "velocity": 0.4409448818897638
        },
        {
          "duration": 0.120000000000001,
          "durationTicks": 24,
          "midi": 72,
          "name": "C5",
          "ticks": 6288,
          "time": 31.439999999999998,
          "velocity": 0.4409448818897638
        },
        {
          "duration": 0.11999999999999744,
          "durationTicks": 24,
          "midi": 70,
          "name": "A#4",
          "ticks": 6336,
          "time": 31.68,
          "velocity": 0.4409448818897638
        },
        {
          "duration": 0.11999999999999744,
          "durationTicks": 24,
          "midi": 62,
          "name": "D4",
          "ticks": 6336,
          "time": 31.68,
          "velocity": 0.4409448818897638
        },
        {
          "duration": 0.11999999999999744,
          "durationTicks": 24,
          "midi": 67,
          "name": "G4",
          "ticks": 6336,
          "time": 31.68,
          "velocity": 0.4409448818897638
        },
        {
          "duration": 0.11999999999999744,
          "durationTicks": 24,
          "midi": 67,
          "name": "G4",
          "ticks": 6408,
          "time": 32.04,
          "velocity": 0.4409448818897638
        },
        {
          "duration": 0.11999999999999744,
          "durationTicks": 24,
          "midi": 62,
          "name": "D4",
          "ticks": 6408,
          "time": 32.04,
          "velocity": 0.4409448818897638
        },
        {
          "duration": 0.11999999999999744,
          "durationTicks": 24,
          "midi": 70,
          "name": "A#4",
          "ticks": 6408,
          "time": 32.04,
          "velocity": 0.4409448818897638
        },
        {
          "duration": 0.11999999999999744,
          "durationTicks": 24,
          "midi": 65,
          "name": "F4",
          "ticks": 6480,
          "time": 32.4,
          "velocity": 0.4409448818897638
        },
        {
          "duration": 0.11999999999999744,
          "durationTicks": 24,
          "midi": 69,
          "name": "A4",
          "ticks": 6480,
          "time": 32.4,
          "velocity": 0.4409448818897638
        },
        {
          "duration": 0.11999999999999744,
          "durationTicks": 24,
          "midi": 72,
          "name": "C5",
          "ticks": 6480,
          "time": 32.4,
          "velocity": 0.4409448818897638
        },
        {
          "duration": 0.11999999999999744,
          "durationTicks": 24,
          "midi": 62,
          "name": "D4",
          "ticks": 6528,
          "time": 32.64,
          "velocity": 0.4409448818897638
        },
        {
          "duration": 0.11999999999999744,
          "durationTicks": 24,
          "midi": 67,
          "name": "G4",
          "ticks": 6528,
          "time": 32.64,
          "velocity": 0.4409448818897638
        },
        {
          "duration": 0.11999999999999744,
          "durationTicks": 24,
          "midi": 70,
          "name": "A#4",
          "ticks": 6528,
          "time": 32.64,
          "velocity": 0.4409448818897638
        },
        {
          "duration": 0.11999999999999744,
          "durationTicks": 24,
          "midi": 62,
          "name": "D4",
          "ticks": 6600,
          "time": 33,
          "velocity": 0.4409448818897638
        },
        {
          "duration": 0.11999999999999744,
          "durationTicks": 24,
          "midi": 67,
          "name": "G4",
          "ticks": 6600,
          "time": 33,
          "velocity": 0.4409448818897638
        },
        {
          "duration": 0.11999999999999744,
          "durationTicks": 24,
          "midi": 70,
          "name": "A#4",
          "ticks": 6600,
          "time": 33,
          "velocity": 0.4409448818897638
        },
        {
          "duration": 0.11999999999999744,
          "durationTicks": 24,
          "midi": 69,
          "name": "A4",
          "ticks": 6672,
          "time": 33.36,
          "velocity": 0.4409448818897638
        },
        {
          "duration": 0.11999999999999744,
          "durationTicks": 24,
          "midi": 65,
          "name": "F4",
          "ticks": 6672,
          "time": 33.36,
          "velocity": 0.4409448818897638
        },
        {
          "duration": 0.11999999999999744,
          "durationTicks": 24,
          "midi": 72,
          "name": "C5",
          "ticks": 6672,
          "time": 33.36,
          "velocity": 0.4409448818897638
        },
        {
          "duration": 0.11999999999999744,
          "durationTicks": 24,
          "midi": 67,
          "name": "G4",
          "ticks": 6720,
          "time": 33.6,
          "velocity": 0.4409448818897638
        },
        {
          "duration": 0.11999999999999744,
          "durationTicks": 24,
          "midi": 62,
          "name": "D4",
          "ticks": 6720,
          "time": 33.6,
          "velocity": 0.4409448818897638
        },
        {
          "duration": 0.11999999999999744,
          "durationTicks": 24,
          "midi": 70,
          "name": "A#4",
          "ticks": 6720,
          "time": 33.6,
          "velocity": 0.4409448818897638
        },
        {
          "duration": 0.12000000000000455,
          "durationTicks": 24,
          "midi": 72,
          "name": "C5",
          "ticks": 6768,
          "time": 33.839999999999996,
          "velocity": 0.4409448818897638
        },
        {
          "duration": 0.12000000000000455,
          "durationTicks": 24,
          "midi": 69,
          "name": "A4",
          "ticks": 6768,
          "time": 33.839999999999996,
          "velocity": 0.4409448818897638
        },
        {
          "duration": 0.12000000000000455,
          "durationTicks": 24,
          "midi": 65,
          "name": "F4",
          "ticks": 6768,
          "time": 33.839999999999996,
          "velocity": 0.4409448818897638
        },
        {
          "duration": 0.11999999999999744,
          "durationTicks": 24,
          "midi": 70,
          "name": "A#4",
          "ticks": 6816,
          "time": 34.08,
          "velocity": 0.4409448818897638
        },
        {
          "duration": 0.11999999999999744,
          "durationTicks": 24,
          "midi": 74,
          "name": "D5",
          "ticks": 6816,
          "time": 34.08,
          "velocity": 0.4409448818897638
        },
        {
          "duration": 0.11999999999999744,
          "durationTicks": 24,
          "midi": 65,
          "name": "F4",
          "ticks": 6816,
          "time": 34.08,
          "velocity": 0.4409448818897638
        },
        {
          "duration": 0.11999999999999744,
          "durationTicks": 24,
          "midi": 65,
          "name": "F4",
          "ticks": 6864,
          "time": 34.32,
          "velocity": 0.4409448818897638
        },
        {
          "duration": 0.11999999999999744,
          "durationTicks": 24,
          "midi": 69,
          "name": "A4",
          "ticks": 6864,
          "time": 34.32,
          "velocity": 0.4409448818897638
        },
        {
          "duration": 0.11999999999999744,
          "durationTicks": 24,
          "midi": 72,
          "name": "C5",
          "ticks": 6864,
          "time": 34.32,
          "velocity": 0.4409448818897638
        },
        {
          "duration": 0.11999999999999744,
          "durationTicks": 24,
          "midi": 62,
          "name": "D4",
          "ticks": 6912,
          "time": 34.56,
          "velocity": 0.4409448818897638
        },
        {
          "duration": 0.11999999999999744,
          "durationTicks": 24,
          "midi": 67,
          "name": "G4",
          "ticks": 6912,
          "time": 34.56,
          "velocity": 0.4409448818897638
        },
        {
          "duration": 0.11999999999999744,
          "durationTicks": 24,
          "midi": 70,
          "name": "A#4",
          "ticks": 6912,
          "time": 34.56,
          "velocity": 0.4409448818897638
        },
        {
          "duration": 0.11999999999999744,
          "durationTicks": 24,
          "midi": 70,
          "name": "A#4",
          "ticks": 6984,
          "time": 34.92,
          "velocity": 0.4409448818897638
        },
        {
          "duration": 0.11999999999999744,
          "durationTicks": 24,
          "midi": 67,
          "name": "G4",
          "ticks": 6984,
          "time": 34.92,
          "velocity": 0.4409448818897638
        },
        {
          "duration": 0.11999999999999744,
          "durationTicks": 24,
          "midi": 62,
          "name": "D4",
          "ticks": 6984,
          "time": 34.92,
          "velocity": 0.4409448818897638
        },
        {
          "duration": 0.11999999999999744,
          "durationTicks": 24,
          "midi": 72,
          "name": "C5",
          "ticks": 7056,
          "time": 35.28,
          "velocity": 0.4409448818897638
        },
        {
          "duration": 0.11999999999999744,
          "durationTicks": 24,
          "midi": 65,
          "name": "F4",
          "ticks": 7056,
          "time": 35.28,
          "velocity": 0.4409448818897638
        },
        {
          "duration": 0.11999999999999744,
          "durationTicks": 24,
          "midi": 69,
          "name": "A4",
          "ticks": 7056,
          "time": 35.28,
          "velocity": 0.4409448818897638
        },
        {
          "duration": 0.12000000000000455,
          "durationTicks": 24,
          "midi": 67,
          "name": "G4",
          "ticks": 7104,
          "time": 35.519999999999996,
          "velocity": 0.4409448818897638
        },
        {
          "duration": 0.12000000000000455,
          "durationTicks": 24,
          "midi": 62,
          "name": "D4",
          "ticks": 7104,
          "time": 35.519999999999996,
          "velocity": 0.4409448818897638
        },
        {
          "duration": 0.12000000000000455,
          "durationTicks": 24,
          "midi": 70,
          "name": "A#4",
          "ticks": 7104,
          "time": 35.519999999999996,
          "velocity": 0.4409448818897638
        },
        {
          "duration": 0.12000000000000455,
          "durationTicks": 24,
          "midi": 67,
          "name": "G4",
          "ticks": 7176,
          "time": 35.879999999999995,
          "velocity": 0.4409448818897638
        },
        {
          "duration": 0.12000000000000455,
          "durationTicks": 24,
          "midi": 62,
          "name": "D4",
          "ticks": 7176,
          "time": 35.879999999999995,
          "velocity": 0.4409448818897638
        },
        {
          "duration": 0.12000000000000455,
          "durationTicks": 24,
          "midi": 70,
          "name": "A#4",
          "ticks": 7176,
          "time": 35.879999999999995,
          "velocity": 0.4409448818897638
        },
        {
          "duration": 0.11999999999999744,
          "durationTicks": 24,
          "midi": 65,
          "name": "F4",
          "ticks": 7248,
          "time": 36.24,
          "velocity": 0.4409448818897638
        },
        {
          "duration": 0.11999999999999744,
          "durationTicks": 24,
          "midi": 69,
          "name": "A4",
          "ticks": 7248,
          "time": 36.24,
          "velocity": 0.4409448818897638
        },
        {
          "duration": 0.11999999999999744,
          "durationTicks": 24,
          "midi": 72,
          "name": "C5",
          "ticks": 7248,
          "time": 36.24,
          "velocity": 0.4409448818897638
        },
        {
          "duration": 0.12000000000000455,
          "durationTicks": 24,
          "midi": 70,
          "name": "A#4",
          "ticks": 7296,
          "time": 36.48,
          "velocity": 0.4409448818897638
        },
        {
          "duration": 0.12000000000000455,
          "durationTicks": 24,
          "midi": 67,
          "name": "G4",
          "ticks": 7296,
          "time": 36.48,
          "velocity": 0.4409448818897638
        },
        {
          "duration": 0.12000000000000455,
          "durationTicks": 24,
          "midi": 62,
          "name": "D4",
          "ticks": 7296,
          "time": 36.48,
          "velocity": 0.4409448818897638
        },
        {
          "duration": 0.12000000000000455,
          "durationTicks": 24,
          "midi": 70,
          "name": "A#4",
          "ticks": 7368,
          "time": 36.839999999999996,
          "velocity": 0.4409448818897638
        },
        {
          "duration": 0.12000000000000455,
          "durationTicks": 24,
          "midi": 67,
          "name": "G4",
          "ticks": 7368,
          "time": 36.839999999999996,
          "velocity": 0.4409448818897638
        },
        {
          "duration": 0.12000000000000455,
          "durationTicks": 24,
          "midi": 62,
          "name": "D4",
          "ticks": 7368,
          "time": 36.839999999999996,
          "velocity": 0.4409448818897638
        },
        {
          "duration": 0.12000000000000455,
          "durationTicks": 24,
          "midi": 72,
          "name": "C5",
          "ticks": 7440,
          "time": 37.199999999999996,
          "velocity": 0.4409448818897638
        },
        {
          "duration": 0.12000000000000455,
          "durationTicks": 24,
          "midi": 65,
          "name": "F4",
          "ticks": 7440,
          "time": 37.199999999999996,
          "velocity": 0.4409448818897638
        },
        {
          "duration": 0.12000000000000455,
          "durationTicks": 24,
          "midi": 69,
          "name": "A4",
          "ticks": 7440,
          "time": 37.199999999999996,
          "velocity": 0.4409448818897638
        },
        {
          "duration": 0.11999999999999744,
          "durationTicks": 24,
          "midi": 67,
          "name": "G4",
          "ticks": 7488,
          "time": 37.44,
          "velocity": 0.4409448818897638
        },
        {
          "duration": 0.11999999999999744,
          "durationTicks": 24,
          "midi": 62,
          "name": "D4",
          "ticks": 7488,
          "time": 37.44,
          "velocity": 0.4409448818897638
        },
        {
          "duration": 0.11999999999999744,
          "durationTicks": 24,
          "midi": 70,
          "name": "A#4",
          "ticks": 7488,
          "time": 37.44,
          "velocity": 0.4409448818897638
        },
        {
          "duration": 0.11999999999999744,
          "durationTicks": 24,
          "midi": 65,
          "name": "F4",
          "ticks": 7536,
          "time": 37.68,
          "velocity": 0.4409448818897638
        },
        {
          "duration": 0.11999999999999744,
          "durationTicks": 24,
          "midi": 69,
          "name": "A4",
          "ticks": 7536,
          "time": 37.68,
          "velocity": 0.4409448818897638
        },
        {
          "duration": 0.11999999999999744,
          "durationTicks": 24,
          "midi": 72,
          "name": "C5",
          "ticks": 7536,
          "time": 37.68,
          "velocity": 0.4409448818897638
        },
        {
          "duration": 0.11999999999999744,
          "durationTicks": 24,
          "midi": 70,
          "name": "A#4",
          "ticks": 7584,
          "time": 37.92,
          "velocity": 0.4409448818897638
        },
        {
          "duration": 0.11999999999999744,
          "durationTicks": 24,
          "midi": 74,
          "name": "D5",
          "ticks": 7584,
          "time": 37.92,
          "velocity": 0.4409448818897638
        },
        {
          "duration": 0.11999999999999744,
          "durationTicks": 24,
          "midi": 65,
          "name": "F4",
          "ticks": 7584,
          "time": 37.92,
          "velocity": 0.4409448818897638
        },
        {
          "duration": 0.12000000000000455,
          "durationTicks": 24,
          "midi": 65,
          "name": "F4",
          "ticks": 7632,
          "time": 38.16,
          "velocity": 0.4409448818897638
        },
        {
          "duration": 0.12000000000000455,
          "durationTicks": 24,
          "midi": 69,
          "name": "A4",
          "ticks": 7632,
          "time": 38.16,
          "velocity": 0.4409448818897638
        },
        {
          "duration": 0.12000000000000455,
          "durationTicks": 24,
          "midi": 72,
          "name": "C5",
          "ticks": 7632,
          "time": 38.16,
          "velocity": 0.4409448818897638
        },
        {
          "duration": 0.11999999999999744,
          "durationTicks": 24,
          "midi": 67,
          "name": "G4",
          "ticks": 7680,
          "time": 38.4,
          "velocity": 0.4409448818897638
        },
        {
          "duration": 0.11999999999999744,
          "durationTicks": 24,
          "midi": 70,
          "name": "A#4",
          "ticks": 7680,
          "time": 38.4,
          "velocity": 0.4409448818897638
        },
        {
          "duration": 0.11999999999999744,
          "durationTicks": 24,
          "midi": 62,
          "name": "D4",
          "ticks": 7680,
          "time": 38.4,
          "velocity": 0.4409448818897638
        },
        {
          "duration": 0.11999999999999744,
          "durationTicks": 24,
          "midi": 67,
          "name": "G4",
          "ticks": 7752,
          "time": 38.76,
          "velocity": 0.4409448818897638
        },
        {
          "duration": 0.11999999999999744,
          "durationTicks": 24,
          "midi": 62,
          "name": "D4",
          "ticks": 7752,
          "time": 38.76,
          "velocity": 0.4409448818897638
        },
        {
          "duration": 0.11999999999999744,
          "durationTicks": 24,
          "midi": 70,
          "name": "A#4",
          "ticks": 7752,
          "time": 38.76,
          "velocity": 0.4409448818897638
        },
        {
          "duration": 0.12000000000000455,
          "durationTicks": 24,
          "midi": 72,
          "name": "C5",
          "ticks": 7824,
          "time": 39.12,
          "velocity": 0.4409448818897638
        },
        {
          "duration": 0.12000000000000455,
          "durationTicks": 24,
          "midi": 65,
          "name": "F4",
          "ticks": 7824,
          "time": 39.12,
          "velocity": 0.4409448818897638
        },
        {
          "duration": 0.12000000000000455,
          "durationTicks": 24,
          "midi": 69,
          "name": "A4",
          "ticks": 7824,
          "time": 39.12,
          "velocity": 0.4409448818897638
        },
        {
          "duration": 0.11999999999999744,
          "durationTicks": 24,
          "midi": 70,
          "name": "A#4",
          "ticks": 7872,
          "time": 39.36,
          "velocity": 0.4409448818897638
        },
        {
          "duration": 0.11999999999999744,
          "durationTicks": 24,
          "midi": 62,
          "name": "D4",
          "ticks": 7872,
          "time": 39.36,
          "velocity": 0.4409448818897638
        },
        {
          "duration": 0.11999999999999744,
          "durationTicks": 24,
          "midi": 67,
          "name": "G4",
          "ticks": 7872,
          "time": 39.36,
          "velocity": 0.4409448818897638
        },
        {
          "duration": 0.11999999999999744,
          "durationTicks": 24,
          "midi": 70,
          "name": "A#4",
          "ticks": 7944,
          "time": 39.72,
          "velocity": 0.4409448818897638
        },
        {
          "duration": 0.11999999999999744,
          "durationTicks": 24,
          "midi": 62,
          "name": "D4",
          "ticks": 7944,
          "time": 39.72,
          "velocity": 0.4409448818897638
        },
        {
          "duration": 0.11999999999999744,
          "durationTicks": 24,
          "midi": 67,
          "name": "G4",
          "ticks": 7944,
          "time": 39.72,
          "velocity": 0.4409448818897638
        },
        {
          "duration": 0.11999999999999744,
          "durationTicks": 24,
          "midi": 72,
          "name": "C5",
          "ticks": 8016,
          "time": 40.08,
          "velocity": 0.4409448818897638
        },
        {
          "duration": 0.11999999999999744,
          "durationTicks": 24,
          "midi": 69,
          "name": "A4",
          "ticks": 8016,
          "time": 40.08,
          "velocity": 0.4409448818897638
        },
        {
          "duration": 0.11999999999999744,
          "durationTicks": 24,
          "midi": 65,
          "name": "F4",
          "ticks": 8016,
          "time": 40.08,
          "velocity": 0.4409448818897638
        },
        {
          "duration": 0.11999999999999744,
          "durationTicks": 24,
          "midi": 70,
          "name": "A#4",
          "ticks": 8064,
          "time": 40.32,
          "velocity": 0.4409448818897638
        },
        {
          "duration": 0.11999999999999744,
          "durationTicks": 24,
          "midi": 67,
          "name": "G4",
          "ticks": 8064,
          "time": 40.32,
          "velocity": 0.4409448818897638
        },
        {
          "duration": 0.11999999999999744,
          "durationTicks": 24,
          "midi": 62,
          "name": "D4",
          "ticks": 8064,
          "time": 40.32,
          "velocity": 0.4409448818897638
        },
        {
          "duration": 0.11999999999999744,
          "durationTicks": 24,
          "midi": 62,
          "name": "D4",
          "ticks": 8136,
          "time": 40.68,
          "velocity": 0.4409448818897638
        },
        {
          "duration": 0.11999999999999744,
          "durationTicks": 24,
          "midi": 67,
          "name": "G4",
          "ticks": 8136,
          "time": 40.68,
          "velocity": 0.4409448818897638
        },
        {
          "duration": 0.11999999999999744,
          "durationTicks": 24,
          "midi": 70,
          "name": "A#4",
          "ticks": 8136,
          "time": 40.68,
          "velocity": 0.4409448818897638
        },
        {
          "duration": 0.11999999999999744,
          "durationTicks": 24,
          "midi": 69,
          "name": "A4",
          "ticks": 8208,
          "time": 41.04,
          "velocity": 0.4409448818897638
        },
        {
          "duration": 0.11999999999999744,
          "durationTicks": 24,
          "midi": 65,
          "name": "F4",
          "ticks": 8208,
          "time": 41.04,
          "velocity": 0.4409448818897638
        },
        {
          "duration": 0.11999999999999744,
          "durationTicks": 24,
          "midi": 72,
          "name": "C5",
          "ticks": 8208,
          "time": 41.04,
          "velocity": 0.4409448818897638
        },
        {
          "duration": 0.11999999999999744,
          "durationTicks": 24,
          "midi": 67,
          "name": "G4",
          "ticks": 8256,
          "time": 41.28,
          "velocity": 0.4409448818897638
        },
        {
          "duration": 0.11999999999999744,
          "durationTicks": 24,
          "midi": 62,
          "name": "D4",
          "ticks": 8256,
          "time": 41.28,
          "velocity": 0.4409448818897638
        },
        {
          "duration": 0.11999999999999744,
          "durationTicks": 24,
          "midi": 70,
          "name": "A#4",
          "ticks": 8256,
          "time": 41.28,
          "velocity": 0.4409448818897638
        },
        {
          "duration": 0.12000000000000455,
          "durationTicks": 24,
          "midi": 65,
          "name": "F4",
          "ticks": 8304,
          "time": 41.519999999999996,
          "velocity": 0.4409448818897638
        },
        {
          "duration": 0.12000000000000455,
          "durationTicks": 24,
          "midi": 69,
          "name": "A4",
          "ticks": 8304,
          "time": 41.519999999999996,
          "velocity": 0.4409448818897638
        },
        {
          "duration": 0.12000000000000455,
          "durationTicks": 24,
          "midi": 72,
          "name": "C5",
          "ticks": 8304,
          "time": 41.519999999999996,
          "velocity": 0.4409448818897638
        },
        {
          "duration": 0.11999999999999744,
          "durationTicks": 24,
          "midi": 65,
          "name": "F4",
          "ticks": 8352,
          "time": 41.76,
          "velocity": 0.4409448818897638
        },
        {
          "duration": 0.11999999999999744,
          "durationTicks": 24,
          "midi": 74,
          "name": "D5",
          "ticks": 8352,
          "time": 41.76,
          "velocity": 0.4409448818897638
        },
        {
          "duration": 0.11999999999999744,
          "durationTicks": 24,
          "midi": 70,
          "name": "A#4",
          "ticks": 8352,
          "time": 41.76,
          "velocity": 0.4409448818897638
        },
        {
          "duration": 0.11999999999999744,
          "durationTicks": 24,
          "midi": 65,
          "name": "F4",
          "ticks": 8400,
          "time": 42,
          "velocity": 0.4409448818897638
        },
        {
          "duration": 0.11999999999999744,
          "durationTicks": 24,
          "midi": 69,
          "name": "A4",
          "ticks": 8400,
          "time": 42,
          "velocity": 0.4409448818897638
        },
        {
          "duration": 0.11999999999999744,
          "durationTicks": 24,
          "midi": 72,
          "name": "C5",
          "ticks": 8400,
          "time": 42,
          "velocity": 0.4409448818897638
        },
        {
          "duration": 0.12000000000000455,
          "durationTicks": 24,
          "midi": 62,
          "name": "D4",
          "ticks": 8448,
          "time": 42.239999999999995,
          "velocity": 0.4409448818897638
        },
        {
          "duration": 0.12000000000000455,
          "durationTicks": 24,
          "midi": 70,
          "name": "A#4",
          "ticks": 8448,
          "time": 42.239999999999995,
          "velocity": 0.4409448818897638
        },
        {
          "duration": 0.12000000000000455,
          "durationTicks": 24,
          "midi": 67,
          "name": "G4",
          "ticks": 8448,
          "time": 42.239999999999995,
          "velocity": 0.4409448818897638
        },
        {
          "duration": 0.11999999999999744,
          "durationTicks": 24,
          "midi": 67,
          "name": "G4",
          "ticks": 8520,
          "time": 42.6,
          "velocity": 0.4409448818897638
        },
        {
          "duration": 0.11999999999999744,
          "durationTicks": 24,
          "midi": 62,
          "name": "D4",
          "ticks": 8520,
          "time": 42.6,
          "velocity": 0.4409448818897638
        },
        {
          "duration": 0.11999999999999744,
          "durationTicks": 24,
          "midi": 70,
          "name": "A#4",
          "ticks": 8520,
          "time": 42.6,
          "velocity": 0.4409448818897638
        },
        {
          "duration": 0.11999999999999744,
          "durationTicks": 24,
          "midi": 72,
          "name": "C5",
          "ticks": 8592,
          "time": 42.96,
          "velocity": 0.4409448818897638
        },
        {
          "duration": 0.11999999999999744,
          "durationTicks": 24,
          "midi": 65,
          "name": "F4",
          "ticks": 8592,
          "time": 42.96,
          "velocity": 0.4409448818897638
        },
        {
          "duration": 0.11999999999999744,
          "durationTicks": 24,
          "midi": 69,
          "name": "A4",
          "ticks": 8592,
          "time": 42.96,
          "velocity": 0.4409448818897638
        },
        {
          "duration": 0.12000000000000455,
          "durationTicks": 24,
          "midi": 67,
          "name": "G4",
          "ticks": 8640,
          "time": 43.199999999999996,
          "velocity": 0.4409448818897638
        },
        {
          "duration": 0.12000000000000455,
          "durationTicks": 24,
          "midi": 62,
          "name": "D4",
          "ticks": 8640,
          "time": 43.199999999999996,
          "velocity": 0.4409448818897638
        },
        {
          "duration": 0.12000000000000455,
          "durationTicks": 24,
          "midi": 70,
          "name": "A#4",
          "ticks": 8640,
          "time": 43.199999999999996,
          "velocity": 0.4409448818897638
        },
        {
          "duration": 0.12000000000000455,
          "durationTicks": 24,
          "midi": 67,
          "name": "G4",
          "ticks": 8712,
          "time": 43.559999999999995,
          "velocity": 0.4409448818897638
        },
        {
          "duration": 0.12000000000000455,
          "durationTicks": 24,
          "midi": 62,
          "name": "D4",
          "ticks": 8712,
          "time": 43.559999999999995,
          "velocity": 0.4409448818897638
        },
        {
          "duration": 0.12000000000000455,
          "durationTicks": 24,
          "midi": 70,
          "name": "A#4",
          "ticks": 8712,
          "time": 43.559999999999995,
          "velocity": 0.4409448818897638
        },
        {
          "duration": 0.11999999999999744,
          "durationTicks": 24,
          "midi": 65,
          "name": "F4",
          "ticks": 8784,
          "time": 43.92,
          "velocity": 0.4409448818897638
        },
        {
          "duration": 0.11999999999999744,
          "durationTicks": 24,
          "midi": 69,
          "name": "A4",
          "ticks": 8784,
          "time": 43.92,
          "velocity": 0.4409448818897638
        },
        {
          "duration": 0.11999999999999744,
          "durationTicks": 24,
          "midi": 72,
          "name": "C5",
          "ticks": 8784,
          "time": 43.92,
          "velocity": 0.4409448818897638
        },
        {
          "duration": 0.12000000000000455,
          "durationTicks": 24,
          "midi": 62,
          "name": "D4",
          "ticks": 8832,
          "time": 44.16,
          "velocity": 0.4409448818897638
        },
        {
          "duration": 0.12000000000000455,
          "durationTicks": 24,
          "midi": 67,
          "name": "G4",
          "ticks": 8832,
          "time": 44.16,
          "velocity": 0.4409448818897638
        },
        {
          "duration": 0.12000000000000455,
          "durationTicks": 24,
          "midi": 70,
          "name": "A#4",
          "ticks": 8832,
          "time": 44.16,
          "velocity": 0.4409448818897638
        },
        {
          "duration": 0.12000000000000455,
          "durationTicks": 24,
          "midi": 70,
          "name": "A#4",
          "ticks": 8904,
          "time": 44.519999999999996,
          "velocity": 0.4409448818897638
        },
        {
          "duration": 0.12000000000000455,
          "durationTicks": 24,
          "midi": 67,
          "name": "G4",
          "ticks": 8904,
          "time": 44.519999999999996,
          "velocity": 0.4409448818897638
        },
        {
          "duration": 0.12000000000000455,
          "durationTicks": 24,
          "midi": 62,
          "name": "D4",
          "ticks": 8904,
          "time": 44.519999999999996,
          "velocity": 0.4409448818897638
        },
        {
          "duration": 0.12000000000000455,
          "durationTicks": 24,
          "midi": 72,
          "name": "C5",
          "ticks": 8976,
          "time": 44.879999999999995,
          "velocity": 0.4409448818897638
        },
        {
          "duration": 0.12000000000000455,
          "durationTicks": 24,
          "midi": 65,
          "name": "F4",
          "ticks": 8976,
          "time": 44.879999999999995,
          "velocity": 0.4409448818897638
        },
        {
          "duration": 0.12000000000000455,
          "durationTicks": 24,
          "midi": 69,
          "name": "A4",
          "ticks": 8976,
          "time": 44.879999999999995,
          "velocity": 0.4409448818897638
        },
        {
          "duration": 0.11999999999999744,
          "durationTicks": 24,
          "midi": 67,
          "name": "G4",
          "ticks": 9024,
          "time": 45.12,
          "velocity": 0.4409448818897638
        },
        {
          "duration": 0.11999999999999744,
          "durationTicks": 24,
          "midi": 62,
          "name": "D4",
          "ticks": 9024,
          "time": 45.12,
          "velocity": 0.4409448818897638
        },
        {
          "duration": 0.11999999999999744,
          "durationTicks": 24,
          "midi": 70,
          "name": "A#4",
          "ticks": 9024,
          "time": 45.12,
          "velocity": 0.4409448818897638
        },
        {
          "duration": 0.11999999999999744,
          "durationTicks": 24,
          "midi": 65,
          "name": "F4",
          "ticks": 9072,
          "time": 45.36,
          "velocity": 0.4409448818897638
        },
        {
          "duration": 0.11999999999999744,
          "durationTicks": 24,
          "midi": 69,
          "name": "A4",
          "ticks": 9072,
          "time": 45.36,
          "velocity": 0.4409448818897638
        },
        {
          "duration": 0.11999999999999744,
          "durationTicks": 24,
          "midi": 72,
          "name": "C5",
          "ticks": 9072,
          "time": 45.36,
          "velocity": 0.4409448818897638
        },
        {
          "duration": 0.11999999999999744,
          "durationTicks": 24,
          "midi": 70,
          "name": "A#4",
          "ticks": 9120,
          "time": 45.6,
          "velocity": 0.4409448818897638
        },
        {
          "duration": 0.11999999999999744,
          "durationTicks": 24,
          "midi": 74,
          "name": "D5",
          "ticks": 9120,
          "time": 45.6,
          "velocity": 0.4409448818897638
        },
        {
          "duration": 0.11999999999999744,
          "durationTicks": 24,
          "midi": 65,
          "name": "F4",
          "ticks": 9120,
          "time": 45.6,
          "velocity": 0.4409448818897638
        },
        {
          "duration": 0.12000000000000455,
          "durationTicks": 24,
          "midi": 65,
          "name": "F4",
          "ticks": 9168,
          "time": 45.839999999999996,
          "velocity": 0.4409448818897638
        },
        {
          "duration": 0.12000000000000455,
          "durationTicks": 24,
          "midi": 69,
          "name": "A4",
          "ticks": 9168,
          "time": 45.839999999999996,
          "velocity": 0.4409448818897638
        },
        {
          "duration": 0.12000000000000455,
          "durationTicks": 24,
          "midi": 72,
          "name": "C5",
          "ticks": 9168,
          "time": 45.839999999999996,
          "velocity": 0.4409448818897638
        },
        {
          "duration": 1.9200000000000017,
          "durationTicks": 384,
          "midi": 60,
          "name": "C4",
          "ticks": 9216,
          "time": 46.08,
          "velocity": 0.4409448818897638
        },
        {
          "duration": 1.9200000000000017,
          "durationTicks": 384,
          "midi": 67,
          "name": "G4",
          "ticks": 9216,
          "time": 46.08,
          "velocity": 0.4409448818897638
        },
        {
          "duration": 1.9200000000000017,
          "durationTicks": 384,
          "midi": 63,
          "name": "D#4",
          "ticks": 9216,
          "time": 46.08,
          "velocity": 0.4409448818897638
        },
        {
          "duration": 1.4399999999999977,
          "durationTicks": 288,
          "midi": 65,
          "name": "F4",
          "ticks": 9600,
          "time": 48,
          "velocity": 0.4409448818897638
        },
        {
          "duration": 1.4399999999999977,
          "durationTicks": 288,
          "midi": 69,
          "name": "A4",
          "ticks": 9600,
          "time": 48,
          "velocity": 0.4409448818897638
        },
        {
          "duration": 1.4399999999999977,
          "durationTicks": 288,
          "midi": 62,
          "name": "D4",
          "ticks": 9600,
          "time": 48,
          "velocity": 0.4409448818897638
        },
        {
          "duration": 0.11999999999999744,
          "durationTicks": 24,
          "midi": 70,
          "name": "A#4",
          "ticks": 9888,
          "time": 49.44,
          "velocity": 0.4409448818897638
        },
        {
          "duration": 0.11999999999999744,
          "durationTicks": 24,
          "midi": 74,
          "name": "D5",
          "ticks": 9888,
          "time": 49.44,
          "velocity": 0.4409448818897638
        },
        {
          "duration": 0.11999999999999744,
          "durationTicks": 24,
          "midi": 65,
          "name": "F4",
          "ticks": 9888,
          "time": 49.44,
          "velocity": 0.4409448818897638
        },
        {
          "duration": 0.9599999999999937,
          "durationTicks": 192,
          "midi": 67,
          "name": "G4",
          "ticks": 9984,
          "time": 49.92,
          "velocity": 0.4409448818897638
        },
        {
          "duration": 0.9599999999999937,
          "durationTicks": 192,
          "midi": 63,
          "name": "D#4",
          "ticks": 9984,
          "time": 49.92,
          "velocity": 0.4409448818897638
        },
        {
          "duration": 0.9599999999999937,
          "durationTicks": 192,
          "midi": 70,
          "name": "A#4",
          "ticks": 9984,
          "time": 49.92,
          "velocity": 0.4409448818897638
        },
        {
          "duration": 0.9600000000000009,
          "durationTicks": 192,
          "midi": 69,
          "name": "A4",
          "ticks": 10176,
          "time": 50.879999999999995,
          "velocity": 0.4409448818897638
        },
        {
          "duration": 0.9600000000000009,
          "durationTicks": 192,
          "midi": 65,
          "name": "F4",
          "ticks": 10176,
          "time": 50.879999999999995,
          "velocity": 0.4409448818897638
        },
        {
          "duration": 0.9600000000000009,
          "durationTicks": 192,
          "midi": 72,
          "name": "C5",
          "ticks": 10176,
          "time": 50.879999999999995,
          "velocity": 0.4409448818897638
        },
        {
          "duration": 0.12000000000000455,
          "durationTicks": 24,
          "midi": 67,
          "name": "G4",
          "ticks": 10368,
          "time": 51.839999999999996,
          "velocity": 0.4409448818897638
        },
        {
          "duration": 0.12000000000000455,
          "durationTicks": 24,
          "midi": 62,
          "name": "D4",
          "ticks": 10368,
          "time": 51.839999999999996,
          "velocity": 0.4409448818897638
        },
        {
          "duration": 0.12000000000000455,
          "durationTicks": 24,
          "midi": 70,
          "name": "A#4",
          "ticks": 10368,
          "time": 51.839999999999996,
          "velocity": 0.4409448818897638
        },
        {
          "duration": 0.12000000000000455,
          "durationTicks": 24,
          "midi": 67,
          "name": "G4",
          "ticks": 10440,
          "time": 52.199999999999996,
          "velocity": 0.4409448818897638
        },
        {
          "duration": 0.12000000000000455,
          "durationTicks": 24,
          "midi": 62,
          "name": "D4",
          "ticks": 10440,
          "time": 52.199999999999996,
          "velocity": 0.4409448818897638
        },
        {
          "duration": 0.12000000000000455,
          "durationTicks": 24,
          "midi": 70,
          "name": "A#4",
          "ticks": 10440,
          "time": 52.199999999999996,
          "velocity": 0.4409448818897638
        },
        {
          "duration": 0.12000000000000455,
          "durationTicks": 24,
          "midi": 65,
          "name": "F4",
          "ticks": 10512,
          "time": 52.559999999999995,
          "velocity": 0.4409448818897638
        },
        {
          "duration": 0.12000000000000455,
          "durationTicks": 24,
          "midi": 74,
          "name": "D5",
          "ticks": 10512,
          "time": 52.559999999999995,
          "velocity": 0.4409448818897638
        },
        {
          "duration": 0.12000000000000455,
          "durationTicks": 24,
          "midi": 70,
          "name": "A#4",
          "ticks": 10512,
          "time": 52.559999999999995,
          "velocity": 0.4409448818897638
        },
        {
          "duration": 0.11999999999999744,
          "durationTicks": 24,
          "midi": 67,
          "name": "G4",
          "ticks": 10560,
          "time": 52.8,
          "velocity": 0.4409448818897638
        },
        {
          "duration": 0.11999999999999744,
          "durationTicks": 24,
          "midi": 62,
          "name": "D4",
          "ticks": 10560,
          "time": 52.8,
          "velocity": 0.4409448818897638
        },
        {
          "duration": 0.11999999999999744,
          "durationTicks": 24,
          "midi": 70,
          "name": "A#4",
          "ticks": 10560,
          "time": 52.8,
          "velocity": 0.4409448818897638
        },
        {
          "duration": 0.11999999999999744,
          "durationTicks": 24,
          "midi": 65,
          "name": "F4",
          "ticks": 10608,
          "time": 53.04,
          "velocity": 0.4409448818897638
        },
        {
          "duration": 0.11999999999999744,
          "durationTicks": 24,
          "midi": 69,
          "name": "A4",
          "ticks": 10608,
          "time": 53.04,
          "velocity": 0.4409448818897638
        },
        {
          "duration": 0.11999999999999744,
          "durationTicks": 24,
          "midi": 72,
          "name": "C5",
          "ticks": 10608,
          "time": 53.04,
          "velocity": 0.4409448818897638
        },
        {
          "duration": 0.11999999999999744,
          "durationTicks": 24,
          "midi": 65,
          "name": "F4",
          "ticks": 10656,
          "time": 53.28,
          "velocity": 0.4409448818897638
        },
        {
          "duration": 0.11999999999999744,
          "durationTicks": 24,
          "midi": 74,
          "name": "D5",
          "ticks": 10656,
          "time": 53.28,
          "velocity": 0.4409448818897638
        },
        {
          "duration": 0.11999999999999744,
          "durationTicks": 24,
          "midi": 70,
          "name": "A#4",
          "ticks": 10656,
          "time": 53.28,
          "velocity": 0.4409448818897638
        },
        {
          "duration": 0.12000000000000455,
          "durationTicks": 24,
          "midi": 65,
          "name": "F4",
          "ticks": 10704,
          "time": 53.519999999999996,
          "velocity": 0.4409448818897638
        },
        {
          "duration": 0.12000000000000455,
          "durationTicks": 24,
          "midi": 69,
          "name": "A4",
          "ticks": 10704,
          "time": 53.519999999999996,
          "velocity": 0.4409448818897638
        },
        {
          "duration": 0.12000000000000455,
          "durationTicks": 24,
          "midi": 72,
          "name": "C5",
          "ticks": 10704,
          "time": 53.519999999999996,
          "velocity": 0.4409448818897638
        },
        {
          "duration": 1.9200000000000017,
          "durationTicks": 384,
          "midi": 60,
          "name": "C4",
          "ticks": 10752,
          "time": 53.76,
          "velocity": 0.4409448818897638
        },
        {
          "duration": 1.9200000000000017,
          "durationTicks": 384,
          "midi": 63,
          "name": "D#4",
          "ticks": 10752,
          "time": 53.76,
          "velocity": 0.4409448818897638
        },
        {
          "duration": 1.9200000000000017,
          "durationTicks": 384,
          "midi": 67,
          "name": "G4",
          "ticks": 10752,
          "time": 53.76,
          "velocity": 0.4409448818897638
        },
        {
          "duration": 1.4399999999999977,
          "durationTicks": 288,
          "midi": 62,
          "name": "D4",
          "ticks": 11136,
          "time": 55.68,
          "velocity": 0.4409448818897638
        },
        {
          "duration": 1.4399999999999977,
          "durationTicks": 288,
          "midi": 69,
          "name": "A4",
          "ticks": 11136,
          "time": 55.68,
          "velocity": 0.4409448818897638
        },
        {
          "duration": 1.4399999999999977,
          "durationTicks": 288,
          "midi": 65,
          "name": "F4",
          "ticks": 11136,
          "time": 55.68,
          "velocity": 0.4409448818897638
        },
        {
          "duration": 0.11999999999999744,
          "durationTicks": 24,
          "midi": 70,
          "name": "A#4",
          "ticks": 11424,
          "time": 57.12,
          "velocity": 0.4409448818897638
        },
        {
          "duration": 0.11999999999999744,
          "durationTicks": 24,
          "midi": 74,
          "name": "D5",
          "ticks": 11424,
          "time": 57.12,
          "velocity": 0.4409448818897638
        },
        {
          "duration": 0.11999999999999744,
          "durationTicks": 24,
          "midi": 65,
          "name": "F4",
          "ticks": 11424,
          "time": 57.12,
          "velocity": 0.4409448818897638
        },
        {
          "duration": 0.9600000000000009,
          "durationTicks": 192,
          "midi": 70,
          "name": "A#4",
          "ticks": 11520,
          "time": 57.599999999999994,
          "velocity": 0.4409448818897638
        },
        {
          "duration": 0.9600000000000009,
          "durationTicks": 192,
          "midi": 63,
          "name": "D#4",
          "ticks": 11520,
          "time": 57.599999999999994,
          "velocity": 0.4409448818897638
        },
        {
          "duration": 0.9600000000000009,
          "durationTicks": 192,
          "midi": 67,
          "name": "G4",
          "ticks": 11520,
          "time": 57.599999999999994,
          "velocity": 0.4409448818897638
        },
        {
          "duration": 0.9600000000000009,
          "durationTicks": 192,
          "midi": 72,
          "name": "C5",
          "ticks": 11712,
          "time": 58.559999999999995,
          "velocity": 0.4409448818897638
        },
        {
          "duration": 0.9600000000000009,
          "durationTicks": 192,
          "midi": 65,
          "name": "F4",
          "ticks": 11712,
          "time": 58.559999999999995,
          "velocity": 0.4409448818897638
        },
        {
          "duration": 0.9600000000000009,
          "durationTicks": 192,
          "midi": 69,
          "name": "A4",
          "ticks": 11712,
          "time": 58.559999999999995,
          "velocity": 0.4409448818897638
        },
        {
          "duration": 0.12000000000000455,
          "durationTicks": 24,
          "midi": 70,
          "name": "A#4",
          "ticks": 11904,
          "time": 59.519999999999996,
          "velocity": 0.4409448818897638
        },
        {
          "duration": 0.12000000000000455,
          "durationTicks": 24,
          "midi": 62,
          "name": "D4",
          "ticks": 11904,
          "time": 59.519999999999996,
          "velocity": 0.4409448818897638
        },
        {
          "duration": 0.12000000000000455,
          "durationTicks": 24,
          "midi": 67,
          "name": "G4",
          "ticks": 11904,
          "time": 59.519999999999996,
          "velocity": 0.4409448818897638
        },
        {
          "duration": 0.12000000000000455,
          "durationTicks": 24,
          "midi": 70,
          "name": "A#4",
          "ticks": 11976,
          "time": 59.879999999999995,
          "velocity": 0.4409448818897638
        },
        {
          "duration": 0.12000000000000455,
          "durationTicks": 24,
          "midi": 62,
          "name": "D4",
          "ticks": 11976,
          "time": 59.879999999999995,
          "velocity": 0.4409448818897638
        },
        {
          "duration": 0.12000000000000455,
          "durationTicks": 24,
          "midi": 67,
          "name": "G4",
          "ticks": 11976,
          "time": 59.879999999999995,
          "velocity": 0.4409448818897638
        },
        {
          "duration": 0.12000000000000455,
          "durationTicks": 24,
          "midi": 70,
          "name": "A#4",
          "ticks": 12048,
          "time": 60.239999999999995,
          "velocity": 0.4409448818897638
        },
        {
          "duration": 0.12000000000000455,
          "durationTicks": 24,
          "midi": 74,
          "name": "D5",
          "ticks": 12048,
          "time": 60.239999999999995,
          "velocity": 0.4409448818897638
        },
        {
          "duration": 0.12000000000000455,
          "durationTicks": 24,
          "midi": 65,
          "name": "F4",
          "ticks": 12048,
          "time": 60.239999999999995,
          "velocity": 0.4409448818897638
        },
        {
          "duration": 0.9600000000000009,
          "durationTicks": 192,
          "midi": 70,
          "name": "A#4",
          "ticks": 12096,
          "time": 60.48,
          "velocity": 0.4409448818897638
        },
        {
          "duration": 0.9600000000000009,
          "durationTicks": 192,
          "midi": 62,
          "name": "D4",
          "ticks": 12096,
          "time": 60.48,
          "velocity": 0.4409448818897638
        },
        {
          "duration": 0.9600000000000009,
          "durationTicks": 192,
          "midi": 67,
          "name": "G4",
          "ticks": 12096,
          "time": 60.48,
          "velocity": 0.4409448818897638
        },
        {
          "duration": 0.11999999999999034,
          "durationTicks": 24,
          "midi": 62,
          "name": "D4",
          "ticks": 19968,
          "time": 99.84,
          "velocity": 0.4409448818897638
        },
        {
          "duration": 0.11999999999999034,
          "durationTicks": 24,
          "midi": 67,
          "name": "G4",
          "ticks": 19968,
          "time": 99.84,
          "velocity": 0.4409448818897638
        },
        {
          "duration": 0.11999999999999034,
          "durationTicks": 24,
          "midi": 70,
          "name": "A#4",
          "ticks": 19968,
          "time": 99.84,
          "velocity": 0.4409448818897638
        },
        {
          "duration": 0.11999999999999034,
          "durationTicks": 24,
          "midi": 62,
          "name": "D4",
          "ticks": 20040,
          "time": 100.2,
          "velocity": 0.4409448818897638
        },
        {
          "duration": 0.11999999999999034,
          "durationTicks": 24,
          "midi": 67,
          "name": "G4",
          "ticks": 20040,
          "time": 100.2,
          "velocity": 0.4409448818897638
        },
        {
          "duration": 0.11999999999999034,
          "durationTicks": 24,
          "midi": 70,
          "name": "A#4",
          "ticks": 20040,
          "time": 100.2,
          "velocity": 0.4409448818897638
        },
        {
          "duration": 0.11999999999999034,
          "durationTicks": 24,
          "midi": 65,
          "name": "F4",
          "ticks": 20112,
          "time": 100.56,
          "velocity": 0.4409448818897638
        },
        {
          "duration": 0.11999999999999034,
          "durationTicks": 24,
          "midi": 69,
          "name": "A4",
          "ticks": 20112,
          "time": 100.56,
          "velocity": 0.4409448818897638
        },
        {
          "duration": 0.11999999999999034,
          "durationTicks": 24,
          "midi": 72,
          "name": "C5",
          "ticks": 20112,
          "time": 100.56,
          "velocity": 0.4409448818897638
        },
        {
          "duration": 0.12000000000000455,
          "durationTicks": 24,
          "midi": 70,
          "name": "A#4",
          "ticks": 20160,
          "time": 100.8,
          "velocity": 0.4409448818897638
        },
        {
          "duration": 0.12000000000000455,
          "durationTicks": 24,
          "midi": 62,
          "name": "D4",
          "ticks": 20160,
          "time": 100.8,
          "velocity": 0.4409448818897638
        },
        {
          "duration": 0.12000000000000455,
          "durationTicks": 24,
          "midi": 67,
          "name": "G4",
          "ticks": 20160,
          "time": 100.8,
          "velocity": 0.4409448818897638
        },
        {
          "duration": 0.12000000000000455,
          "durationTicks": 24,
          "midi": 67,
          "name": "G4",
          "ticks": 20232,
          "time": 101.16,
          "velocity": 0.4409448818897638
        },
        {
          "duration": 0.12000000000000455,
          "durationTicks": 24,
          "midi": 62,
          "name": "D4",
          "ticks": 20232,
          "time": 101.16,
          "velocity": 0.4409448818897638
        },
        {
          "duration": 0.12000000000000455,
          "durationTicks": 24,
          "midi": 70,
          "name": "A#4",
          "ticks": 20232,
          "time": 101.16,
          "velocity": 0.4409448818897638
        },
        {
          "duration": 0.12000000000000455,
          "durationTicks": 24,
          "midi": 72,
          "name": "C5",
          "ticks": 20304,
          "time": 101.52,
          "velocity": 0.4409448818897638
        },
        {
          "duration": 0.12000000000000455,
          "durationTicks": 24,
          "midi": 65,
          "name": "F4",
          "ticks": 20304,
          "time": 101.52,
          "velocity": 0.4409448818897638
        },
        {
          "duration": 0.12000000000000455,
          "durationTicks": 24,
          "midi": 69,
          "name": "A4",
          "ticks": 20304,
          "time": 101.52,
          "velocity": 0.4409448818897638
        },
        {
          "duration": 0.12000000000000455,
          "durationTicks": 24,
          "midi": 62,
          "name": "D4",
          "ticks": 20352,
          "time": 101.75999999999999,
          "velocity": 0.4409448818897638
        },
        {
          "duration": 0.12000000000000455,
          "durationTicks": 24,
          "midi": 67,
          "name": "G4",
          "ticks": 20352,
          "time": 101.75999999999999,
          "velocity": 0.4409448818897638
        },
        {
          "duration": 0.12000000000000455,
          "durationTicks": 24,
          "midi": 70,
          "name": "A#4",
          "ticks": 20352,
          "time": 101.75999999999999,
          "velocity": 0.4409448818897638
        },
        {
          "duration": 0.12000000000000455,
          "durationTicks": 24,
          "midi": 62,
          "name": "D4",
          "ticks": 20424,
          "time": 102.11999999999999,
          "velocity": 0.4409448818897638
        },
        {
          "duration": 0.12000000000000455,
          "durationTicks": 24,
          "midi": 67,
          "name": "G4",
          "ticks": 20424,
          "time": 102.11999999999999,
          "velocity": 0.4409448818897638
        },
        {
          "duration": 0.12000000000000455,
          "durationTicks": 24,
          "midi": 70,
          "name": "A#4",
          "ticks": 20424,
          "time": 102.11999999999999,
          "velocity": 0.4409448818897638
        },
        {
          "duration": 0.12000000000000455,
          "durationTicks": 24,
          "midi": 72,
          "name": "C5",
          "ticks": 20496,
          "time": 102.47999999999999,
          "velocity": 0.4409448818897638
        },
        {
          "duration": 0.12000000000000455,
          "durationTicks": 24,
          "midi": 65,
          "name": "F4",
          "ticks": 20496,
          "time": 102.47999999999999,
          "velocity": 0.4409448818897638
        },
        {
          "duration": 0.12000000000000455,
          "durationTicks": 24,
          "midi": 69,
          "name": "A4",
          "ticks": 20496,
          "time": 102.47999999999999,
          "velocity": 0.4409448818897638
        },
        {
          "duration": 0.11999999999999034,
          "durationTicks": 24,
          "midi": 67,
          "name": "G4",
          "ticks": 20544,
          "time": 102.72,
          "velocity": 0.4409448818897638
        },
        {
          "duration": 0.11999999999999034,
          "durationTicks": 24,
          "midi": 62,
          "name": "D4",
          "ticks": 20544,
          "time": 102.72,
          "velocity": 0.4409448818897638
        },
        {
          "duration": 0.11999999999999034,
          "durationTicks": 24,
          "midi": 70,
          "name": "A#4",
          "ticks": 20544,
          "time": 102.72,
          "velocity": 0.4409448818897638
        },
        {
          "duration": 0.12000000000000455,
          "durationTicks": 24,
          "midi": 72,
          "name": "C5",
          "ticks": 20592,
          "time": 102.96,
          "velocity": 0.4409448818897638
        },
        {
          "duration": 0.12000000000000455,
          "durationTicks": 24,
          "midi": 69,
          "name": "A4",
          "ticks": 20592,
          "time": 102.96,
          "velocity": 0.4409448818897638
        },
        {
          "duration": 0.12000000000000455,
          "durationTicks": 24,
          "midi": 65,
          "name": "F4",
          "ticks": 20592,
          "time": 102.96,
          "velocity": 0.4409448818897638
        },
        {
          "duration": 0.11999999999999034,
          "durationTicks": 24,
          "midi": 65,
          "name": "F4",
          "ticks": 20640,
          "time": 103.2,
          "velocity": 0.4409448818897638
        },
        {
          "duration": 0.11999999999999034,
          "durationTicks": 24,
          "midi": 74,
          "name": "D5",
          "ticks": 20640,
          "time": 103.2,
          "velocity": 0.4409448818897638
        },
        {
          "duration": 0.11999999999999034,
          "durationTicks": 24,
          "midi": 70,
          "name": "A#4",
          "ticks": 20640,
          "time": 103.2,
          "velocity": 0.4409448818897638
        },
        {
          "duration": 0.12000000000000455,
          "durationTicks": 24,
          "midi": 72,
          "name": "C5",
          "ticks": 20688,
          "time": 103.44,
          "velocity": 0.4409448818897638
        },
        {
          "duration": 0.12000000000000455,
          "durationTicks": 24,
          "midi": 69,
          "name": "A4",
          "ticks": 20688,
          "time": 103.44,
          "velocity": 0.4409448818897638
        },
        {
          "duration": 0.12000000000000455,
          "durationTicks": 24,
          "midi": 65,
          "name": "F4",
          "ticks": 20688,
          "time": 103.44,
          "velocity": 0.4409448818897638
        },
        {
          "duration": 0.12000000000000455,
          "durationTicks": 24,
          "midi": 62,
          "name": "D4",
          "ticks": 20736,
          "time": 103.67999999999999,
          "velocity": 0.4409448818897638
        },
        {
          "duration": 0.12000000000000455,
          "durationTicks": 24,
          "midi": 67,
          "name": "G4",
          "ticks": 20736,
          "time": 103.67999999999999,
          "velocity": 0.4409448818897638
        },
        {
          "duration": 0.12000000000000455,
          "durationTicks": 24,
          "midi": 70,
          "name": "A#4",
          "ticks": 20736,
          "time": 103.67999999999999,
          "velocity": 0.4409448818897638
        },
        {
          "duration": 0.12000000000000455,
          "durationTicks": 24,
          "midi": 62,
          "name": "D4",
          "ticks": 20808,
          "time": 104.03999999999999,
          "velocity": 0.4409448818897638
        },
        {
          "duration": 0.12000000000000455,
          "durationTicks": 24,
          "midi": 67,
          "name": "G4",
          "ticks": 20808,
          "time": 104.03999999999999,
          "velocity": 0.4409448818897638
        },
        {
          "duration": 0.12000000000000455,
          "durationTicks": 24,
          "midi": 70,
          "name": "A#4",
          "ticks": 20808,
          "time": 104.03999999999999,
          "velocity": 0.4409448818897638
        },
        {
          "duration": 0.12000000000000455,
          "durationTicks": 24,
          "midi": 72,
          "name": "C5",
          "ticks": 20880,
          "time": 104.39999999999999,
          "velocity": 0.4409448818897638
        },
        {
          "duration": 0.12000000000000455,
          "durationTicks": 24,
          "midi": 65,
          "name": "F4",
          "ticks": 20880,
          "time": 104.39999999999999,
          "velocity": 0.4409448818897638
        },
        {
          "duration": 0.12000000000000455,
          "durationTicks": 24,
          "midi": 69,
          "name": "A4",
          "ticks": 20880,
          "time": 104.39999999999999,
          "velocity": 0.4409448818897638
        },
        {
          "duration": 0.11999999999999034,
          "durationTicks": 24,
          "midi": 67,
          "name": "G4",
          "ticks": 20928,
          "time": 104.64,
          "velocity": 0.4409448818897638
        },
        {
          "duration": 0.11999999999999034,
          "durationTicks": 24,
          "midi": 62,
          "name": "D4",
          "ticks": 20928,
          "time": 104.64,
          "velocity": 0.4409448818897638
        },
        {
          "duration": 0.11999999999999034,
          "durationTicks": 24,
          "midi": 70,
          "name": "A#4",
          "ticks": 20928,
          "time": 104.64,
          "velocity": 0.4409448818897638
        },
        {
          "duration": 0.11999999999999034,
          "durationTicks": 24,
          "midi": 70,
          "name": "A#4",
          "ticks": 21000,
          "time": 105,
          "velocity": 0.4409448818897638
        },
        {
          "duration": 0.11999999999999034,
          "durationTicks": 24,
          "midi": 62,
          "name": "D4",
          "ticks": 21000,
          "time": 105,
          "velocity": 0.4409448818897638
        },
        {
          "duration": 0.11999999999999034,
          "durationTicks": 24,
          "midi": 67,
          "name": "G4",
          "ticks": 21000,
          "time": 105,
          "velocity": 0.4409448818897638
        },
        {
          "duration": 0.11999999999999034,
          "durationTicks": 24,
          "midi": 65,
          "name": "F4",
          "ticks": 21072,
          "time": 105.36,
          "velocity": 0.4409448818897638
        },
        {
          "duration": 0.11999999999999034,
          "durationTicks": 24,
          "midi": 69,
          "name": "A4",
          "ticks": 21072,
          "time": 105.36,
          "velocity": 0.4409448818897638
        },
        {
          "duration": 0.11999999999999034,
          "durationTicks": 24,
          "midi": 72,
          "name": "C5",
          "ticks": 21072,
          "time": 105.36,
          "velocity": 0.4409448818897638
        },
        {
          "duration": 0.12000000000000455,
          "durationTicks": 24,
          "midi": 62,
          "name": "D4",
          "ticks": 21120,
          "time": 105.6,
          "velocity": 0.4409448818897638
        },
        {
          "duration": 0.12000000000000455,
          "durationTicks": 24,
          "midi": 67,
          "name": "G4",
          "ticks": 21120,
          "time": 105.6,
          "velocity": 0.4409448818897638
        },
        {
          "duration": 0.12000000000000455,
          "durationTicks": 24,
          "midi": 70,
          "name": "A#4",
          "ticks": 21120,
          "time": 105.6,
          "velocity": 0.4409448818897638
        },
        {
          "duration": 0.12000000000000455,
          "durationTicks": 24,
          "midi": 70,
          "name": "A#4",
          "ticks": 21192,
          "time": 105.96,
          "velocity": 0.4409448818897638
        },
        {
          "duration": 0.12000000000000455,
          "durationTicks": 24,
          "midi": 67,
          "name": "G4",
          "ticks": 21192,
          "time": 105.96,
          "velocity": 0.4409448818897638
        },
        {
          "duration": 0.12000000000000455,
          "durationTicks": 24,
          "midi": 62,
          "name": "D4",
          "ticks": 21192,
          "time": 105.96,
          "velocity": 0.4409448818897638
        },
        {
          "duration": 0.12000000000000455,
          "durationTicks": 24,
          "midi": 72,
          "name": "C5",
          "ticks": 21264,
          "time": 106.32,
          "velocity": 0.4409448818897638
        },
        {
          "duration": 0.12000000000000455,
          "durationTicks": 24,
          "midi": 65,
          "name": "F4",
          "ticks": 21264,
          "time": 106.32,
          "velocity": 0.4409448818897638
        },
        {
          "duration": 0.12000000000000455,
          "durationTicks": 24,
          "midi": 69,
          "name": "A4",
          "ticks": 21264,
          "time": 106.32,
          "velocity": 0.4409448818897638
        },
        {
          "duration": 0.11999999999999034,
          "durationTicks": 24,
          "midi": 67,
          "name": "G4",
          "ticks": 21312,
          "time": 106.56,
          "velocity": 0.4409448818897638
        },
        {
          "duration": 0.11999999999999034,
          "durationTicks": 24,
          "midi": 70,
          "name": "A#4",
          "ticks": 21312,
          "time": 106.56,
          "velocity": 0.4409448818897638
        },
        {
          "duration": 0.11999999999999034,
          "durationTicks": 24,
          "midi": 62,
          "name": "D4",
          "ticks": 21312,
          "time": 106.56,
          "velocity": 0.4409448818897638
        },
        {
          "duration": 0.12000000000000455,
          "durationTicks": 24,
          "midi": 72,
          "name": "C5",
          "ticks": 21360,
          "time": 106.8,
          "velocity": 0.4409448818897638
        },
        {
          "duration": 0.12000000000000455,
          "durationTicks": 24,
          "midi": 69,
          "name": "A4",
          "ticks": 21360,
          "time": 106.8,
          "velocity": 0.4409448818897638
        },
        {
          "duration": 0.12000000000000455,
          "durationTicks": 24,
          "midi": 65,
          "name": "F4",
          "ticks": 21360,
          "time": 106.8,
          "velocity": 0.4409448818897638
        },
        {
          "duration": 0.12000000000000455,
          "durationTicks": 24,
          "midi": 70,
          "name": "A#4",
          "ticks": 21408,
          "time": 107.03999999999999,
          "velocity": 0.4409448818897638
        },
        {
          "duration": 0.12000000000000455,
          "durationTicks": 24,
          "midi": 74,
          "name": "D5",
          "ticks": 21408,
          "time": 107.03999999999999,
          "velocity": 0.4409448818897638
        },
        {
          "duration": 0.12000000000000455,
          "durationTicks": 24,
          "midi": 65,
          "name": "F4",
          "ticks": 21408,
          "time": 107.03999999999999,
          "velocity": 0.4409448818897638
        },
        {
          "duration": 0.11999999999999034,
          "durationTicks": 24,
          "midi": 72,
          "name": "C5",
          "ticks": 21456,
          "time": 107.28,
          "velocity": 0.4409448818897638
        },
        {
          "duration": 0.11999999999999034,
          "durationTicks": 24,
          "midi": 69,
          "name": "A4",
          "ticks": 21456,
          "time": 107.28,
          "velocity": 0.4409448818897638
        },
        {
          "duration": 0.11999999999999034,
          "durationTicks": 24,
          "midi": 65,
          "name": "F4",
          "ticks": 21456,
          "time": 107.28,
          "velocity": 0.4409448818897638
        },
        {
          "duration": 0.12000000000000455,
          "durationTicks": 24,
          "midi": 67,
          "name": "G4",
          "ticks": 21504,
          "time": 107.52,
          "velocity": 0.4409448818897638
        },
        {
          "duration": 0.12000000000000455,
          "durationTicks": 24,
          "midi": 70,
          "name": "A#4",
          "ticks": 21504,
          "time": 107.52,
          "velocity": 0.4409448818897638
        },
        {
          "duration": 0.12000000000000455,
          "durationTicks": 24,
          "midi": 62,
          "name": "D4",
          "ticks": 21504,
          "time": 107.52,
          "velocity": 0.4409448818897638
        },
        {
          "duration": 0.12000000000000455,
          "durationTicks": 24,
          "midi": 70,
          "name": "A#4",
          "ticks": 21576,
          "time": 107.88,
          "velocity": 0.4409448818897638
        },
        {
          "duration": 0.12000000000000455,
          "durationTicks": 24,
          "midi": 62,
          "name": "D4",
          "ticks": 21576,
          "time": 107.88,
          "velocity": 0.4409448818897638
        },
        {
          "duration": 0.12000000000000455,
          "durationTicks": 24,
          "midi": 67,
          "name": "G4",
          "ticks": 21576,
          "time": 107.88,
          "velocity": 0.4409448818897638
        },
        {
          "duration": 0.12000000000000455,
          "durationTicks": 24,
          "midi": 72,
          "name": "C5",
          "ticks": 21648,
          "time": 108.24,
          "velocity": 0.4409448818897638
        },
        {
          "duration": 0.12000000000000455,
          "durationTicks": 24,
          "midi": 65,
          "name": "F4",
          "ticks": 21648,
          "time": 108.24,
          "velocity": 0.4409448818897638
        },
        {
          "duration": 0.12000000000000455,
          "durationTicks": 24,
          "midi": 69,
          "name": "A4",
          "ticks": 21648,
          "time": 108.24,
          "velocity": 0.4409448818897638
        },
        {
          "duration": 0.12000000000000455,
          "durationTicks": 24,
          "midi": 67,
          "name": "G4",
          "ticks": 21696,
          "time": 108.47999999999999,
          "velocity": 0.4409448818897638
        },
        {
          "duration": 0.12000000000000455,
          "durationTicks": 24,
          "midi": 62,
          "name": "D4",
          "ticks": 21696,
          "time": 108.47999999999999,
          "velocity": 0.4409448818897638
        },
        {
          "duration": 0.12000000000000455,
          "durationTicks": 24,
          "midi": 70,
          "name": "A#4",
          "ticks": 21696,
          "time": 108.47999999999999,
          "velocity": 0.4409448818897638
        },
        {
          "duration": 0.12000000000000455,
          "durationTicks": 24,
          "midi": 70,
          "name": "A#4",
          "ticks": 21768,
          "time": 108.83999999999999,
          "velocity": 0.4409448818897638
        },
        {
          "duration": 0.12000000000000455,
          "durationTicks": 24,
          "midi": 62,
          "name": "D4",
          "ticks": 21768,
          "time": 108.83999999999999,
          "velocity": 0.4409448818897638
        },
        {
          "duration": 0.12000000000000455,
          "durationTicks": 24,
          "midi": 67,
          "name": "G4",
          "ticks": 21768,
          "time": 108.83999999999999,
          "velocity": 0.4409448818897638
        },
        {
          "duration": 0.11999999999999034,
          "durationTicks": 24,
          "midi": 72,
          "name": "C5",
          "ticks": 21840,
          "time": 109.2,
          "velocity": 0.4409448818897638
        },
        {
          "duration": 0.11999999999999034,
          "durationTicks": 24,
          "midi": 69,
          "name": "A4",
          "ticks": 21840,
          "time": 109.2,
          "velocity": 0.4409448818897638
        },
        {
          "duration": 0.11999999999999034,
          "durationTicks": 24,
          "midi": 65,
          "name": "F4",
          "ticks": 21840,
          "time": 109.2,
          "velocity": 0.4409448818897638
        },
        {
          "duration": 0.12000000000000455,
          "durationTicks": 24,
          "midi": 70,
          "name": "A#4",
          "ticks": 21888,
          "time": 109.44,
          "velocity": 0.4409448818897638
        },
        {
          "duration": 0.12000000000000455,
          "durationTicks": 24,
          "midi": 67,
          "name": "G4",
          "ticks": 21888,
          "time": 109.44,
          "velocity": 0.4409448818897638
        },
        {
          "duration": 0.12000000000000455,
          "durationTicks": 24,
          "midi": 62,
          "name": "D4",
          "ticks": 21888,
          "time": 109.44,
          "velocity": 0.4409448818897638
        },
        {
          "duration": 0.12000000000000455,
          "durationTicks": 24,
          "midi": 70,
          "name": "A#4",
          "ticks": 21960,
          "time": 109.8,
          "velocity": 0.4409448818897638
        },
        {
          "duration": 0.12000000000000455,
          "durationTicks": 24,
          "midi": 67,
          "name": "G4",
          "ticks": 21960,
          "time": 109.8,
          "velocity": 0.4409448818897638
        },
        {
          "duration": 0.12000000000000455,
          "durationTicks": 24,
          "midi": 62,
          "name": "D4",
          "ticks": 21960,
          "time": 109.8,
          "velocity": 0.4409448818897638
        },
        {
          "duration": 0.12000000000000455,
          "durationTicks": 24,
          "midi": 69,
          "name": "A4",
          "ticks": 22032,
          "time": 110.16,
          "velocity": 0.4409448818897638
        },
        {
          "duration": 0.12000000000000455,
          "durationTicks": 24,
          "midi": 65,
          "name": "F4",
          "ticks": 22032,
          "time": 110.16,
          "velocity": 0.4409448818897638
        },
        {
          "duration": 0.12000000000000455,
          "durationTicks": 24,
          "midi": 72,
          "name": "C5",
          "ticks": 22032,
          "time": 110.16,
          "velocity": 0.4409448818897638
        },
        {
          "duration": 0.12000000000000455,
          "durationTicks": 24,
          "midi": 67,
          "name": "G4",
          "ticks": 22080,
          "time": 110.39999999999999,
          "velocity": 0.4409448818897638
        },
        {
          "duration": 0.12000000000000455,
          "durationTicks": 24,
          "midi": 62,
          "name": "D4",
          "ticks": 22080,
          "time": 110.39999999999999,
          "velocity": 0.4409448818897638
        },
        {
          "duration": 0.12000000000000455,
          "durationTicks": 24,
          "midi": 70,
          "name": "A#4",
          "ticks": 22080,
          "time": 110.39999999999999,
          "velocity": 0.4409448818897638
        },
        {
          "duration": 0.11999999999999034,
          "durationTicks": 24,
          "midi": 72,
          "name": "C5",
          "ticks": 22128,
          "time": 110.64,
          "velocity": 0.4409448818897638
        },
        {
          "duration": 0.11999999999999034,
          "durationTicks": 24,
          "midi": 69,
          "name": "A4",
          "ticks": 22128,
          "time": 110.64,
          "velocity": 0.4409448818897638
        },
        {
          "duration": 0.11999999999999034,
          "durationTicks": 24,
          "midi": 65,
          "name": "F4",
          "ticks": 22128,
          "time": 110.64,
          "velocity": 0.4409448818897638
        },
        {
          "duration": 0.12000000000000455,
          "durationTicks": 24,
          "midi": 70,
          "name": "A#4",
          "ticks": 22176,
          "time": 110.88,
          "velocity": 0.4409448818897638
        },
        {
          "duration": 0.12000000000000455,
          "durationTicks": 24,
          "midi": 74,
          "name": "D5",
          "ticks": 22176,
          "time": 110.88,
          "velocity": 0.4409448818897638
        },
        {
          "duration": 0.12000000000000455,
          "durationTicks": 24,
          "midi": 65,
          "name": "F4",
          "ticks": 22176,
          "time": 110.88,
          "velocity": 0.4409448818897638
        },
        {
          "duration": 0.12000000000000455,
          "durationTicks": 24,
          "midi": 65,
          "name": "F4",
          "ticks": 22224,
          "time": 111.11999999999999,
          "velocity": 0.4409448818897638
        },
        {
          "duration": 0.12000000000000455,
          "durationTicks": 24,
          "midi": 69,
          "name": "A4",
          "ticks": 22224,
          "time": 111.11999999999999,
          "velocity": 0.4409448818897638
        },
        {
          "duration": 0.12000000000000455,
          "durationTicks": 24,
          "midi": 72,
          "name": "C5",
          "ticks": 22224,
          "time": 111.11999999999999,
          "velocity": 0.4409448818897638
        },
        {
          "duration": 0.11999999999999034,
          "durationTicks": 24,
          "midi": 67,
          "name": "G4",
          "ticks": 22272,
          "time": 111.36,
          "velocity": 0.4409448818897638
        },
        {
          "duration": 0.11999999999999034,
          "durationTicks": 24,
          "midi": 70,
          "name": "A#4",
          "ticks": 22272,
          "time": 111.36,
          "velocity": 0.4409448818897638
        },
        {
          "duration": 0.11999999999999034,
          "durationTicks": 24,
          "midi": 62,
          "name": "D4",
          "ticks": 22272,
          "time": 111.36,
          "velocity": 0.4409448818897638
        },
        {
          "duration": 0.11999999999999034,
          "durationTicks": 24,
          "midi": 67,
          "name": "G4",
          "ticks": 22344,
          "time": 111.72,
          "velocity": 0.4409448818897638
        },
        {
          "duration": 0.11999999999999034,
          "durationTicks": 24,
          "midi": 62,
          "name": "D4",
          "ticks": 22344,
          "time": 111.72,
          "velocity": 0.4409448818897638
        },
        {
          "duration": 0.11999999999999034,
          "durationTicks": 24,
          "midi": 70,
          "name": "A#4",
          "ticks": 22344,
          "time": 111.72,
          "velocity": 0.4409448818897638
        },
        {
          "duration": 0.12000000000000455,
          "durationTicks": 24,
          "midi": 69,
          "name": "A4",
          "ticks": 22416,
          "time": 112.08,
          "velocity": 0.4409448818897638
        },
        {
          "duration": 0.12000000000000455,
          "durationTicks": 24,
          "midi": 65,
          "name": "F4",
          "ticks": 22416,
          "time": 112.08,
          "velocity": 0.4409448818897638
        },
        {
          "duration": 0.12000000000000455,
          "durationTicks": 24,
          "midi": 72,
          "name": "C5",
          "ticks": 22416,
          "time": 112.08,
          "velocity": 0.4409448818897638
        },
        {
          "duration": 0.12000000000000455,
          "durationTicks": 24,
          "midi": 67,
          "name": "G4",
          "ticks": 22464,
          "time": 112.32,
          "velocity": 0.4409448818897638
        },
        {
          "duration": 0.12000000000000455,
          "durationTicks": 24,
          "midi": 62,
          "name": "D4",
          "ticks": 22464,
          "time": 112.32,
          "velocity": 0.4409448818897638
        },
        {
          "duration": 0.12000000000000455,
          "durationTicks": 24,
          "midi": 70,
          "name": "A#4",
          "ticks": 22464,
          "time": 112.32,
          "velocity": 0.4409448818897638
        },
        {
          "duration": 0.12000000000000455,
          "durationTicks": 24,
          "midi": 70,
          "name": "A#4",
          "ticks": 22536,
          "time": 112.67999999999999,
          "velocity": 0.4409448818897638
        },
        {
          "duration": 0.12000000000000455,
          "durationTicks": 24,
          "midi": 62,
          "name": "D4",
          "ticks": 22536,
          "time": 112.67999999999999,
          "velocity": 0.4409448818897638
        },
        {
          "duration": 0.12000000000000455,
          "durationTicks": 24,
          "midi": 67,
          "name": "G4",
          "ticks": 22536,
          "time": 112.67999999999999,
          "velocity": 0.4409448818897638
        },
        {
          "duration": 0.12000000000000455,
          "durationTicks": 24,
          "midi": 65,
          "name": "F4",
          "ticks": 22608,
          "time": 113.03999999999999,
          "velocity": 0.4409448818897638
        },
        {
          "duration": 0.12000000000000455,
          "durationTicks": 24,
          "midi": 69,
          "name": "A4",
          "ticks": 22608,
          "time": 113.03999999999999,
          "velocity": 0.4409448818897638
        },
        {
          "duration": 0.12000000000000455,
          "durationTicks": 24,
          "midi": 72,
          "name": "C5",
          "ticks": 22608,
          "time": 113.03999999999999,
          "velocity": 0.4409448818897638
        },
        {
          "duration": 0.11999999999999034,
          "durationTicks": 24,
          "midi": 70,
          "name": "A#4",
          "ticks": 22656,
          "time": 113.28,
          "velocity": 0.4409448818897638
        },
        {
          "duration": 0.11999999999999034,
          "durationTicks": 24,
          "midi": 67,
          "name": "G4",
          "ticks": 22656,
          "time": 113.28,
          "velocity": 0.4409448818897638
        },
        {
          "duration": 0.11999999999999034,
          "durationTicks": 24,
          "midi": 62,
          "name": "D4",
          "ticks": 22656,
          "time": 113.28,
          "velocity": 0.4409448818897638
        },
        {
          "duration": 0.11999999999999034,
          "durationTicks": 24,
          "midi": 70,
          "name": "A#4",
          "ticks": 22728,
          "time": 113.64,
          "velocity": 0.4409448818897638
        },
        {
          "duration": 0.11999999999999034,
          "durationTicks": 24,
          "midi": 67,
          "name": "G4",
          "ticks": 22728,
          "time": 113.64,
          "velocity": 0.4409448818897638
        },
        {
          "duration": 0.11999999999999034,
          "durationTicks": 24,
          "midi": 62,
          "name": "D4",
          "ticks": 22728,
          "time": 113.64,
          "velocity": 0.4409448818897638
        },
        {
          "duration": 0.11999999999999034,
          "durationTicks": 24,
          "midi": 72,
          "name": "C5",
          "ticks": 22800,
          "time": 114,
          "velocity": 0.4409448818897638
        },
        {
          "duration": 0.11999999999999034,
          "durationTicks": 24,
          "midi": 65,
          "name": "F4",
          "ticks": 22800,
          "time": 114,
          "velocity": 0.4409448818897638
        },
        {
          "duration": 0.11999999999999034,
          "durationTicks": 24,
          "midi": 69,
          "name": "A4",
          "ticks": 22800,
          "time": 114,
          "velocity": 0.4409448818897638
        },
        {
          "duration": 0.12000000000000455,
          "durationTicks": 24,
          "midi": 70,
          "name": "A#4",
          "ticks": 22848,
          "time": 114.24,
          "velocity": 0.4409448818897638
        },
        {
          "duration": 0.12000000000000455,
          "durationTicks": 24,
          "midi": 62,
          "name": "D4",
          "ticks": 22848,
          "time": 114.24,
          "velocity": 0.4409448818897638
        },
        {
          "duration": 0.12000000000000455,
          "durationTicks": 24,
          "midi": 67,
          "name": "G4",
          "ticks": 22848,
          "time": 114.24,
          "velocity": 0.4409448818897638
        },
        {
          "duration": 0.12000000000000455,
          "durationTicks": 24,
          "midi": 65,
          "name": "F4",
          "ticks": 22896,
          "time": 114.47999999999999,
          "velocity": 0.4409448818897638
        },
        {
          "duration": 0.12000000000000455,
          "durationTicks": 24,
          "midi": 69,
          "name": "A4",
          "ticks": 22896,
          "time": 114.47999999999999,
          "velocity": 0.4409448818897638
        },
        {
          "duration": 0.12000000000000455,
          "durationTicks": 24,
          "midi": 72,
          "name": "C5",
          "ticks": 22896,
          "time": 114.47999999999999,
          "velocity": 0.4409448818897638
        },
        {
          "duration": 0.11999999999999034,
          "durationTicks": 24,
          "midi": 65,
          "name": "F4",
          "ticks": 22944,
          "time": 114.72,
          "velocity": 0.4409448818897638
        },
        {
          "duration": 0.11999999999999034,
          "durationTicks": 24,
          "midi": 74,
          "name": "D5",
          "ticks": 22944,
          "time": 114.72,
          "velocity": 0.4409448818897638
        },
        {
          "duration": 0.11999999999999034,
          "durationTicks": 24,
          "midi": 70,
          "name": "A#4",
          "ticks": 22944,
          "time": 114.72,
          "velocity": 0.4409448818897638
        },
        {
          "duration": 0.12000000000000455,
          "durationTicks": 24,
          "midi": 72,
          "name": "C5",
          "ticks": 22992,
          "time": 114.96,
          "velocity": 0.4409448818897638
        },
        {
          "duration": 0.12000000000000455,
          "durationTicks": 24,
          "midi": 69,
          "name": "A4",
          "ticks": 22992,
          "time": 114.96,
          "velocity": 0.4409448818897638
        },
        {
          "duration": 0.12000000000000455,
          "durationTicks": 24,
          "midi": 65,
          "name": "F4",
          "ticks": 22992,
          "time": 114.96,
          "velocity": 0.4409448818897638
        },
        {
          "duration": 0.12000000000000455,
          "durationTicks": 24,
          "midi": 70,
          "name": "A#4",
          "ticks": 23040,
          "time": 115.19999999999999,
          "velocity": 0.4409448818897638
        },
        {
          "duration": 0.12000000000000455,
          "durationTicks": 24,
          "midi": 67,
          "name": "G4",
          "ticks": 23040,
          "time": 115.19999999999999,
          "velocity": 0.4409448818897638
        },
        {
          "duration": 0.12000000000000455,
          "durationTicks": 24,
          "midi": 62,
          "name": "D4",
          "ticks": 23040,
          "time": 115.19999999999999,
          "velocity": 0.4409448818897638
        },
        {
          "duration": 0.11999999999999034,
          "durationTicks": 24,
          "midi": 70,
          "name": "A#4",
          "ticks": 23112,
          "time": 115.56,
          "velocity": 0.4409448818897638
        },
        {
          "duration": 0.11999999999999034,
          "durationTicks": 24,
          "midi": 67,
          "name": "G4",
          "ticks": 23112,
          "time": 115.56,
          "velocity": 0.4409448818897638
        },
        {
          "duration": 0.11999999999999034,
          "durationTicks": 24,
          "midi": 62,
          "name": "D4",
          "ticks": 23112,
          "time": 115.56,
          "velocity": 0.4409448818897638
        },
        {
          "duration": 0.11999999999999034,
          "durationTicks": 24,
          "midi": 72,
          "name": "C5",
          "ticks": 23184,
          "time": 115.92,
          "velocity": 0.4409448818897638
        },
        {
          "duration": 0.11999999999999034,
          "durationTicks": 24,
          "midi": 65,
          "name": "F4",
          "ticks": 23184,
          "time": 115.92,
          "velocity": 0.4409448818897638
        },
        {
          "duration": 0.11999999999999034,
          "durationTicks": 24,
          "midi": 69,
          "name": "A4",
          "ticks": 23184,
          "time": 115.92,
          "velocity": 0.4409448818897638
        },
        {
          "duration": 0.12000000000000455,
          "durationTicks": 24,
          "midi": 67,
          "name": "G4",
          "ticks": 23232,
          "time": 116.16,
          "velocity": 0.4409448818897638
        },
        {
          "duration": 0.12000000000000455,
          "durationTicks": 24,
          "midi": 62,
          "name": "D4",
          "ticks": 23232,
          "time": 116.16,
          "velocity": 0.4409448818897638
        },
        {
          "duration": 0.12000000000000455,
          "durationTicks": 24,
          "midi": 70,
          "name": "A#4",
          "ticks": 23232,
          "time": 116.16,
          "velocity": 0.4409448818897638
        },
        {
          "duration": 0.12000000000000455,
          "durationTicks": 24,
          "midi": 70,
          "name": "A#4",
          "ticks": 23304,
          "time": 116.52,
          "velocity": 0.4409448818897638
        },
        {
          "duration": 0.12000000000000455,
          "durationTicks": 24,
          "midi": 62,
          "name": "D4",
          "ticks": 23304,
          "time": 116.52,
          "velocity": 0.4409448818897638
        },
        {
          "duration": 0.12000000000000455,
          "durationTicks": 24,
          "midi": 67,
          "name": "G4",
          "ticks": 23304,
          "time": 116.52,
          "velocity": 0.4409448818897638
        },
        {
          "duration": 0.12000000000000455,
          "durationTicks": 24,
          "midi": 65,
          "name": "F4",
          "ticks": 23376,
          "time": 116.88,
          "velocity": 0.4409448818897638
        },
        {
          "duration": 0.12000000000000455,
          "durationTicks": 24,
          "midi": 69,
          "name": "A4",
          "ticks": 23376,
          "time": 116.88,
          "velocity": 0.4409448818897638
        },
        {
          "duration": 0.12000000000000455,
          "durationTicks": 24,
          "midi": 72,
          "name": "C5",
          "ticks": 23376,
          "time": 116.88,
          "velocity": 0.4409448818897638
        },
        {
          "duration": 0.12000000000000455,
          "durationTicks": 24,
          "midi": 62,
          "name": "D4",
          "ticks": 23424,
          "time": 117.11999999999999,
          "velocity": 0.4409448818897638
        },
        {
          "duration": 0.12000000000000455,
          "durationTicks": 24,
          "midi": 67,
          "name": "G4",
          "ticks": 23424,
          "time": 117.11999999999999,
          "velocity": 0.4409448818897638
        },
        {
          "duration": 0.12000000000000455,
          "durationTicks": 24,
          "midi": 70,
          "name": "A#4",
          "ticks": 23424,
          "time": 117.11999999999999,
          "velocity": 0.4409448818897638
        },
        {
          "duration": 0.12000000000000455,
          "durationTicks": 24,
          "midi": 70,
          "name": "A#4",
          "ticks": 23496,
          "time": 117.47999999999999,
          "velocity": 0.4409448818897638
        },
        {
          "duration": 0.12000000000000455,
          "durationTicks": 24,
          "midi": 67,
          "name": "G4",
          "ticks": 23496,
          "time": 117.47999999999999,
          "velocity": 0.4409448818897638
        },
        {
          "duration": 0.12000000000000455,
          "durationTicks": 24,
          "midi": 62,
          "name": "D4",
          "ticks": 23496,
          "time": 117.47999999999999,
          "velocity": 0.4409448818897638
        },
        {
          "duration": 0.12000000000000455,
          "durationTicks": 24,
          "midi": 69,
          "name": "A4",
          "ticks": 23568,
          "time": 117.83999999999999,
          "velocity": 0.4409448818897638
        },
        {
          "duration": 0.12000000000000455,
          "durationTicks": 24,
          "midi": 65,
          "name": "F4",
          "ticks": 23568,
          "time": 117.83999999999999,
          "velocity": 0.4409448818897638
        },
        {
          "duration": 0.12000000000000455,
          "durationTicks": 24,
          "midi": 72,
          "name": "C5",
          "ticks": 23568,
          "time": 117.83999999999999,
          "velocity": 0.4409448818897638
        },
        {
          "duration": 0.11999999999999034,
          "durationTicks": 24,
          "midi": 67,
          "name": "G4",
          "ticks": 23616,
          "time": 118.08,
          "velocity": 0.4409448818897638
        },
        {
          "duration": 0.11999999999999034,
          "durationTicks": 24,
          "midi": 62,
          "name": "D4",
          "ticks": 23616,
          "time": 118.08,
          "velocity": 0.4409448818897638
        },
        {
          "duration": 0.11999999999999034,
          "durationTicks": 24,
          "midi": 70,
          "name": "A#4",
          "ticks": 23616,
          "time": 118.08,
          "velocity": 0.4409448818897638
        },
        {
          "duration": 0.12000000000000455,
          "durationTicks": 24,
          "midi": 72,
          "name": "C5",
          "ticks": 23664,
          "time": 118.32,
          "velocity": 0.4409448818897638
        },
        {
          "duration": 0.12000000000000455,
          "durationTicks": 24,
          "midi": 69,
          "name": "A4",
          "ticks": 23664,
          "time": 118.32,
          "velocity": 0.4409448818897638
        },
        {
          "duration": 0.12000000000000455,
          "durationTicks": 24,
          "midi": 65,
          "name": "F4",
          "ticks": 23664,
          "time": 118.32,
          "velocity": 0.4409448818897638
        },
        {
          "duration": 0.11999999999999034,
          "durationTicks": 24,
          "midi": 70,
          "name": "A#4",
          "ticks": 23712,
          "time": 118.56,
          "velocity": 0.4409448818897638
        },
        {
          "duration": 0.11999999999999034,
          "durationTicks": 24,
          "midi": 74,
          "name": "D5",
          "ticks": 23712,
          "time": 118.56,
          "velocity": 0.4409448818897638
        },
        {
          "duration": 0.11999999999999034,
          "durationTicks": 24,
          "midi": 65,
          "name": "F4",
          "ticks": 23712,
          "time": 118.56,
          "velocity": 0.4409448818897638
        },
        {
          "duration": 0.12000000000000455,
          "durationTicks": 24,
          "midi": 65,
          "name": "F4",
          "ticks": 23760,
          "time": 118.8,
          "velocity": 0.4409448818897638
        },
        {
          "duration": 0.12000000000000455,
          "durationTicks": 24,
          "midi": 69,
          "name": "A4",
          "ticks": 23760,
          "time": 118.8,
          "velocity": 0.4409448818897638
        },
        {
          "duration": 0.12000000000000455,
          "durationTicks": 24,
          "midi": 72,
          "name": "C5",
          "ticks": 23760,
          "time": 118.8,
          "velocity": 0.4409448818897638
        },
        {
          "duration": 0.12000000000000455,
          "durationTicks": 24,
          "midi": 62,
          "name": "D4",
          "ticks": 23808,
          "time": 119.03999999999999,
          "velocity": 0.4409448818897638
        },
        {
          "duration": 0.12000000000000455,
          "durationTicks": 24,
          "midi": 67,
          "name": "G4",
          "ticks": 23808,
          "time": 119.03999999999999,
          "velocity": 0.4409448818897638
        },
        {
          "duration": 0.12000000000000455,
          "durationTicks": 24,
          "midi": 70,
          "name": "A#4",
          "ticks": 23808,
          "time": 119.03999999999999,
          "velocity": 0.4409448818897638
        },
        {
          "duration": 0.12000000000000455,
          "durationTicks": 24,
          "midi": 62,
          "name": "D4",
          "ticks": 23880,
          "time": 119.39999999999999,
          "velocity": 0.4409448818897638
        },
        {
          "duration": 0.12000000000000455,
          "durationTicks": 24,
          "midi": 67,
          "name": "G4",
          "ticks": 23880,
          "time": 119.39999999999999,
          "velocity": 0.4409448818897638
        },
        {
          "duration": 0.12000000000000455,
          "durationTicks": 24,
          "midi": 70,
          "name": "A#4",
          "ticks": 23880,
          "time": 119.39999999999999,
          "velocity": 0.4409448818897638
        },
        {
          "duration": 0.12000000000000455,
          "durationTicks": 24,
          "midi": 72,
          "name": "C5",
          "ticks": 23952,
          "time": 119.75999999999999,
          "velocity": 0.4409448818897638
        },
        {
          "duration": 0.12000000000000455,
          "durationTicks": 24,
          "midi": 65,
          "name": "F4",
          "ticks": 23952,
          "time": 119.75999999999999,
          "velocity": 0.4409448818897638
        },
        {
          "duration": 0.12000000000000455,
          "durationTicks": 24,
          "midi": 69,
          "name": "A4",
          "ticks": 23952,
          "time": 119.75999999999999,
          "velocity": 0.4409448818897638
        },
        {
          "duration": 0.11999999999999034,
          "durationTicks": 24,
          "midi": 67,
          "name": "G4",
          "ticks": 24000,
          "time": 120,
          "velocity": 0.4409448818897638
        },
        {
          "duration": 0.11999999999999034,
          "durationTicks": 24,
          "midi": 62,
          "name": "D4",
          "ticks": 24000,
          "time": 120,
          "velocity": 0.4409448818897638
        },
        {
          "duration": 0.11999999999999034,
          "durationTicks": 24,
          "midi": 70,
          "name": "A#4",
          "ticks": 24000,
          "time": 120,
          "velocity": 0.4409448818897638
        },
        {
          "duration": 0.11999999999999034,
          "durationTicks": 24,
          "midi": 70,
          "name": "A#4",
          "ticks": 24072,
          "time": 120.36,
          "velocity": 0.4409448818897638
        },
        {
          "duration": 0.11999999999999034,
          "durationTicks": 24,
          "midi": 62,
          "name": "D4",
          "ticks": 24072,
          "time": 120.36,
          "velocity": 0.4409448818897638
        },
        {
          "duration": 0.11999999999999034,
          "durationTicks": 24,
          "midi": 67,
          "name": "G4",
          "ticks": 24072,
          "time": 120.36,
          "velocity": 0.4409448818897638
        },
        {
          "duration": 0.11999999999999034,
          "durationTicks": 24,
          "midi": 65,
          "name": "F4",
          "ticks": 24144,
          "time": 120.72,
          "velocity": 0.4409448818897638
        },
        {
          "duration": 0.11999999999999034,
          "durationTicks": 24,
          "midi": 69,
          "name": "A4",
          "ticks": 24144,
          "time": 120.72,
          "velocity": 0.4409448818897638
        },
        {
          "duration": 0.11999999999999034,
          "durationTicks": 24,
          "midi": 72,
          "name": "C5",
          "ticks": 24144,
          "time": 120.72,
          "velocity": 0.4409448818897638
        },
        {
          "duration": 0.12000000000000455,
          "durationTicks": 24,
          "midi": 70,
          "name": "A#4",
          "ticks": 24192,
          "time": 120.96,
          "velocity": 0.4409448818897638
        },
        {
          "duration": 0.12000000000000455,
          "durationTicks": 24,
          "midi": 67,
          "name": "G4",
          "ticks": 24192,
          "time": 120.96,
          "velocity": 0.4409448818897638
        },
        {
          "duration": 0.12000000000000455,
          "durationTicks": 24,
          "midi": 62,
          "name": "D4",
          "ticks": 24192,
          "time": 120.96,
          "velocity": 0.4409448818897638
        },
        {
          "duration": 0.12000000000000455,
          "durationTicks": 24,
          "midi": 62,
          "name": "D4",
          "ticks": 24264,
          "time": 121.32,
          "velocity": 0.4409448818897638
        },
        {
          "duration": 0.12000000000000455,
          "durationTicks": 24,
          "midi": 67,
          "name": "G4",
          "ticks": 24264,
          "time": 121.32,
          "velocity": 0.4409448818897638
        },
        {
          "duration": 0.12000000000000455,
          "durationTicks": 24,
          "midi": 70,
          "name": "A#4",
          "ticks": 24264,
          "time": 121.32,
          "velocity": 0.4409448818897638
        },
        {
          "duration": 0.12000000000000455,
          "durationTicks": 24,
          "midi": 72,
          "name": "C5",
          "ticks": 24336,
          "time": 121.67999999999999,
          "velocity": 0.4409448818897638
        },
        {
          "duration": 0.12000000000000455,
          "durationTicks": 24,
          "midi": 65,
          "name": "F4",
          "ticks": 24336,
          "time": 121.67999999999999,
          "velocity": 0.4409448818897638
        },
        {
          "duration": 0.12000000000000455,
          "durationTicks": 24,
          "midi": 69,
          "name": "A4",
          "ticks": 24336,
          "time": 121.67999999999999,
          "velocity": 0.4409448818897638
        },
        {
          "duration": 0.11999999999999034,
          "durationTicks": 24,
          "midi": 67,
          "name": "G4",
          "ticks": 24384,
          "time": 121.92,
          "velocity": 0.4409448818897638
        },
        {
          "duration": 0.11999999999999034,
          "durationTicks": 24,
          "midi": 62,
          "name": "D4",
          "ticks": 24384,
          "time": 121.92,
          "velocity": 0.4409448818897638
        },
        {
          "duration": 0.11999999999999034,
          "durationTicks": 24,
          "midi": 70,
          "name": "A#4",
          "ticks": 24384,
          "time": 121.92,
          "velocity": 0.4409448818897638
        },
        {
          "duration": 0.12000000000000455,
          "durationTicks": 24,
          "midi": 72,
          "name": "C5",
          "ticks": 24432,
          "time": 122.16,
          "velocity": 0.4409448818897638
        },
        {
          "duration": 0.12000000000000455,
          "durationTicks": 24,
          "midi": 69,
          "name": "A4",
          "ticks": 24432,
          "time": 122.16,
          "velocity": 0.4409448818897638
        },
        {
          "duration": 0.12000000000000455,
          "durationTicks": 24,
          "midi": 65,
          "name": "F4",
          "ticks": 24432,
          "time": 122.16,
          "velocity": 0.4409448818897638
        },
        {
          "duration": 0.12000000000000455,
          "durationTicks": 24,
          "midi": 70,
          "name": "A#4",
          "ticks": 24480,
          "time": 122.39999999999999,
          "velocity": 0.4409448818897638
        },
        {
          "duration": 0.12000000000000455,
          "durationTicks": 24,
          "midi": 74,
          "name": "D5",
          "ticks": 24480,
          "time": 122.39999999999999,
          "velocity": 0.4409448818897638
        },
        {
          "duration": 0.12000000000000455,
          "durationTicks": 24,
          "midi": 65,
          "name": "F4",
          "ticks": 24480,
          "time": 122.39999999999999,
          "velocity": 0.4409448818897638
        },
        {
          "duration": 0.11999999999999034,
          "durationTicks": 24,
          "midi": 65,
          "name": "F4",
          "ticks": 24528,
          "time": 122.64,
          "velocity": 0.4409448818897638
        },
        {
          "duration": 0.11999999999999034,
          "durationTicks": 24,
          "midi": 69,
          "name": "A4",
          "ticks": 24528,
          "time": 122.64,
          "velocity": 0.4409448818897638
        },
        {
          "duration": 0.11999999999999034,
          "durationTicks": 24,
          "midi": 72,
          "name": "C5",
          "ticks": 24528,
          "time": 122.64,
          "velocity": 0.4409448818897638
        },
        {
          "duration": 0.12000000000000455,
          "durationTicks": 24,
          "midi": 67,
          "name": "G4",
          "ticks": 24576,
          "time": 122.88,
          "velocity": 0.4409448818897638
        },
        {
          "duration": 0.12000000000000455,
          "durationTicks": 24,
          "midi": 70,
          "name": "A#4",
          "ticks": 24576,
          "time": 122.88,
          "velocity": 0.4409448818897638
        },
        {
          "duration": 0.12000000000000455,
          "durationTicks": 24,
          "midi": 62,
          "name": "D4",
          "ticks": 24576,
          "time": 122.88,
          "velocity": 0.4409448818897638
        },
        {
          "duration": 0.12000000000000455,
          "durationTicks": 24,
          "midi": 70,
          "name": "A#4",
          "ticks": 24648,
          "time": 123.24,
          "velocity": 0.4409448818897638
        },
        {
          "duration": 0.12000000000000455,
          "durationTicks": 24,
          "midi": 62,
          "name": "D4",
          "ticks": 24648,
          "time": 123.24,
          "velocity": 0.4409448818897638
        },
        {
          "duration": 0.12000000000000455,
          "durationTicks": 24,
          "midi": 67,
          "name": "G4",
          "ticks": 24648,
          "time": 123.24,
          "velocity": 0.4409448818897638
        },
        {
          "duration": 0.12000000000000455,
          "durationTicks": 24,
          "midi": 72,
          "name": "C5",
          "ticks": 24720,
          "time": 123.6,
          "velocity": 0.4409448818897638
        },
        {
          "duration": 0.12000000000000455,
          "durationTicks": 24,
          "midi": 65,
          "name": "F4",
          "ticks": 24720,
          "time": 123.6,
          "velocity": 0.4409448818897638
        },
        {
          "duration": 0.12000000000000455,
          "durationTicks": 24,
          "midi": 69,
          "name": "A4",
          "ticks": 24720,
          "time": 123.6,
          "velocity": 0.4409448818897638
        },
        {
          "duration": 0.12000000000000455,
          "durationTicks": 24,
          "midi": 70,
          "name": "A#4",
          "ticks": 24768,
          "time": 123.83999999999999,
          "velocity": 0.4409448818897638
        },
        {
          "duration": 0.12000000000000455,
          "durationTicks": 24,
          "midi": 62,
          "name": "D4",
          "ticks": 24768,
          "time": 123.83999999999999,
          "velocity": 0.4409448818897638
        },
        {
          "duration": 0.12000000000000455,
          "durationTicks": 24,
          "midi": 67,
          "name": "G4",
          "ticks": 24768,
          "time": 123.83999999999999,
          "velocity": 0.4409448818897638
        },
        {
          "duration": 0.12000000000000455,
          "durationTicks": 24,
          "midi": 67,
          "name": "G4",
          "ticks": 24840,
          "time": 124.19999999999999,
          "velocity": 0.4409448818897638
        },
        {
          "duration": 0.12000000000000455,
          "durationTicks": 24,
          "midi": 62,
          "name": "D4",
          "ticks": 24840,
          "time": 124.19999999999999,
          "velocity": 0.4409448818897638
        },
        {
          "duration": 0.12000000000000455,
          "durationTicks": 24,
          "midi": 70,
          "name": "A#4",
          "ticks": 24840,
          "time": 124.19999999999999,
          "velocity": 0.4409448818897638
        },
        {
          "duration": 0.11999999999999034,
          "durationTicks": 24,
          "midi": 72,
          "name": "C5",
          "ticks": 24912,
          "time": 124.56,
          "velocity": 0.4409448818897638
        },
        {
          "duration": 0.11999999999999034,
          "durationTicks": 24,
          "midi": 69,
          "name": "A4",
          "ticks": 24912,
          "time": 124.56,
          "velocity": 0.4409448818897638
        },
        {
          "duration": 0.11999999999999034,
          "durationTicks": 24,
          "midi": 65,
          "name": "F4",
          "ticks": 24912,
          "time": 124.56,
          "velocity": 0.4409448818897638
        },
        {
          "duration": 0.12000000000000455,
          "durationTicks": 24,
          "midi": 70,
          "name": "A#4",
          "ticks": 24960,
          "time": 124.8,
          "velocity": 0.4409448818897638
        },
        {
          "duration": 0.12000000000000455,
          "durationTicks": 24,
          "midi": 67,
          "name": "G4",
          "ticks": 24960,
          "time": 124.8,
          "velocity": 0.4409448818897638
        },
        {
          "duration": 0.12000000000000455,
          "durationTicks": 24,
          "midi": 62,
          "name": "D4",
          "ticks": 24960,
          "time": 124.8,
          "velocity": 0.4409448818897638
        },
        {
          "duration": 0.12000000000000455,
          "durationTicks": 24,
          "midi": 70,
          "name": "A#4",
          "ticks": 25032,
          "time": 125.16,
          "velocity": 0.4409448818897638
        },
        {
          "duration": 0.12000000000000455,
          "durationTicks": 24,
          "midi": 67,
          "name": "G4",
          "ticks": 25032,
          "time": 125.16,
          "velocity": 0.4409448818897638
        },
        {
          "duration": 0.12000000000000455,
          "durationTicks": 24,
          "midi": 62,
          "name": "D4",
          "ticks": 25032,
          "time": 125.16,
          "velocity": 0.4409448818897638
        },
        {
          "duration": 0.12000000000000455,
          "durationTicks": 24,
          "midi": 69,
          "name": "A4",
          "ticks": 25104,
          "time": 125.52,
          "velocity": 0.4409448818897638
        },
        {
          "duration": 0.12000000000000455,
          "durationTicks": 24,
          "midi": 65,
          "name": "F4",
          "ticks": 25104,
          "time": 125.52,
          "velocity": 0.4409448818897638
        },
        {
          "duration": 0.12000000000000455,
          "durationTicks": 24,
          "midi": 72,
          "name": "C5",
          "ticks": 25104,
          "time": 125.52,
          "velocity": 0.4409448818897638
        },
        {
          "duration": 0.12000000000000455,
          "durationTicks": 24,
          "midi": 67,
          "name": "G4",
          "ticks": 25152,
          "time": 125.75999999999999,
          "velocity": 0.4409448818897638
        },
        {
          "duration": 0.12000000000000455,
          "durationTicks": 24,
          "midi": 62,
          "name": "D4",
          "ticks": 25152,
          "time": 125.75999999999999,
          "velocity": 0.4409448818897638
        },
        {
          "duration": 0.12000000000000455,
          "durationTicks": 24,
          "midi": 70,
          "name": "A#4",
          "ticks": 25152,
          "time": 125.75999999999999,
          "velocity": 0.4409448818897638
        },
        {
          "duration": 0.11999999999999034,
          "durationTicks": 24,
          "midi": 72,
          "name": "C5",
          "ticks": 25200,
          "time": 126,
          "velocity": 0.4409448818897638
        },
        {
          "duration": 0.11999999999999034,
          "durationTicks": 24,
          "midi": 69,
          "name": "A4",
          "ticks": 25200,
          "time": 126,
          "velocity": 0.4409448818897638
        },
        {
          "duration": 0.11999999999999034,
          "durationTicks": 24,
          "midi": 65,
          "name": "F4",
          "ticks": 25200,
          "time": 126,
          "velocity": 0.4409448818897638
        },
        {
          "duration": 0.12000000000000455,
          "durationTicks": 24,
          "midi": 65,
          "name": "F4",
          "ticks": 25248,
          "time": 126.24,
          "velocity": 0.4409448818897638
        },
        {
          "duration": 0.12000000000000455,
          "durationTicks": 24,
          "midi": 74,
          "name": "D5",
          "ticks": 25248,
          "time": 126.24,
          "velocity": 0.4409448818897638
        },
        {
          "duration": 0.12000000000000455,
          "durationTicks": 24,
          "midi": 70,
          "name": "A#4",
          "ticks": 25248,
          "time": 126.24,
          "velocity": 0.4409448818897638
        },
        {
          "duration": 0.12000000000000455,
          "durationTicks": 24,
          "midi": 65,
          "name": "F4",
          "ticks": 25296,
          "time": 126.47999999999999,
          "velocity": 0.4409448818897638
        },
        {
          "duration": 0.12000000000000455,
          "durationTicks": 24,
          "midi": 69,
          "name": "A4",
          "ticks": 25296,
          "time": 126.47999999999999,
          "velocity": 0.4409448818897638
        },
        {
          "duration": 0.12000000000000455,
          "durationTicks": 24,
          "midi": 72,
          "name": "C5",
          "ticks": 25296,
          "time": 126.47999999999999,
          "velocity": 0.4409448818897638
        },
        {
          "duration": 0.11999999999999034,
          "durationTicks": 24,
          "midi": 62,
          "name": "D4",
          "ticks": 25344,
          "time": 126.72,
          "velocity": 0.4409448818897638
        },
        {
          "duration": 0.11999999999999034,
          "durationTicks": 24,
          "midi": 70,
          "name": "A#4",
          "ticks": 25344,
          "time": 126.72,
          "velocity": 0.4409448818897638
        },
        {
          "duration": 0.11999999999999034,
          "durationTicks": 24,
          "midi": 67,
          "name": "G4",
          "ticks": 25344,
          "time": 126.72,
          "velocity": 0.4409448818897638
        },
        {
          "duration": 0.11999999999999034,
          "durationTicks": 24,
          "midi": 70,
          "name": "A#4",
          "ticks": 25416,
          "time": 127.08,
          "velocity": 0.4409448818897638
        },
        {
          "duration": 0.11999999999999034,
          "durationTicks": 24,
          "midi": 62,
          "name": "D4",
          "ticks": 25416,
          "time": 127.08,
          "velocity": 0.4409448818897638
        },
        {
          "duration": 0.11999999999999034,
          "durationTicks": 24,
          "midi": 67,
          "name": "G4",
          "ticks": 25416,
          "time": 127.08,
          "velocity": 0.4409448818897638
        },
        {
          "duration": 0.12000000000000455,
          "durationTicks": 24,
          "midi": 72,
          "name": "C5",
          "ticks": 25488,
          "time": 127.44,
          "velocity": 0.4409448818897638
        },
        {
          "duration": 0.12000000000000455,
          "durationTicks": 24,
          "midi": 65,
          "name": "F4",
          "ticks": 25488,
          "time": 127.44,
          "velocity": 0.4409448818897638
        },
        {
          "duration": 0.12000000000000455,
          "durationTicks": 24,
          "midi": 69,
          "name": "A4",
          "ticks": 25488,
          "time": 127.44,
          "velocity": 0.4409448818897638
        },
        {
          "duration": 0.12000000000000455,
          "durationTicks": 24,
          "midi": 67,
          "name": "G4",
          "ticks": 25536,
          "time": 127.67999999999999,
          "velocity": 0.4409448818897638
        },
        {
          "duration": 0.12000000000000455,
          "durationTicks": 24,
          "midi": 62,
          "name": "D4",
          "ticks": 25536,
          "time": 127.67999999999999,
          "velocity": 0.4409448818897638
        },
        {
          "duration": 0.12000000000000455,
          "durationTicks": 24,
          "midi": 70,
          "name": "A#4",
          "ticks": 25536,
          "time": 127.67999999999999,
          "velocity": 0.4409448818897638
        },
        {
          "duration": 0.12000000000000455,
          "durationTicks": 24,
          "midi": 70,
          "name": "A#4",
          "ticks": 25608,
          "time": 128.04,
          "velocity": 0.4409448818897638
        },
        {
          "duration": 0.12000000000000455,
          "durationTicks": 24,
          "midi": 62,
          "name": "D4",
          "ticks": 25608,
          "time": 128.04,
          "velocity": 0.4409448818897638
        },
        {
          "duration": 0.12000000000000455,
          "durationTicks": 24,
          "midi": 67,
          "name": "G4",
          "ticks": 25608,
          "time": 128.04,
          "velocity": 0.4409448818897638
        },
        {
          "duration": 0.11999999999997613,
          "durationTicks": 24,
          "midi": 65,
          "name": "F4",
          "ticks": 25680,
          "time": 128.4,
          "velocity": 0.4409448818897638
        },
        {
          "duration": 0.11999999999997613,
          "durationTicks": 24,
          "midi": 69,
          "name": "A4",
          "ticks": 25680,
          "time": 128.4,
          "velocity": 0.4409448818897638
        },
        {
          "duration": 0.11999999999997613,
          "durationTicks": 24,
          "midi": 72,
          "name": "C5",
          "ticks": 25680,
          "time": 128.4,
          "velocity": 0.4409448818897638
        },
        {
          "duration": 0.12000000000000455,
          "durationTicks": 24,
          "midi": 70,
          "name": "A#4",
          "ticks": 25728,
          "time": 128.64,
          "velocity": 0.4409448818897638
        },
        {
          "duration": 0.12000000000000455,
          "durationTicks": 24,
          "midi": 67,
          "name": "G4",
          "ticks": 25728,
          "time": 128.64,
          "velocity": 0.4409448818897638
        },
        {
          "duration": 0.12000000000000455,
          "durationTicks": 24,
          "midi": 62,
          "name": "D4",
          "ticks": 25728,
          "time": 128.64,
          "velocity": 0.4409448818897638
        },
        {
          "duration": 0.12000000000000455,
          "durationTicks": 24,
          "midi": 62,
          "name": "D4",
          "ticks": 25800,
          "time": 129,
          "velocity": 0.4409448818897638
        },
        {
          "duration": 0.12000000000000455,
          "durationTicks": 24,
          "midi": 67,
          "name": "G4",
          "ticks": 25800,
          "time": 129,
          "velocity": 0.4409448818897638
        },
        {
          "duration": 0.12000000000000455,
          "durationTicks": 24,
          "midi": 70,
          "name": "A#4",
          "ticks": 25800,
          "time": 129,
          "velocity": 0.4409448818897638
        },
        {
          "duration": 0.12000000000000455,
          "durationTicks": 24,
          "midi": 69,
          "name": "A4",
          "ticks": 25872,
          "time": 129.35999999999999,
          "velocity": 0.4409448818897638
        },
        {
          "duration": 0.12000000000000455,
          "durationTicks": 24,
          "midi": 65,
          "name": "F4",
          "ticks": 25872,
          "time": 129.35999999999999,
          "velocity": 0.4409448818897638
        },
        {
          "duration": 0.12000000000000455,
          "durationTicks": 24,
          "midi": 72,
          "name": "C5",
          "ticks": 25872,
          "time": 129.35999999999999,
          "velocity": 0.4409448818897638
        },
        {
          "duration": 0.12000000000000455,
          "durationTicks": 24,
          "midi": 70,
          "name": "A#4",
          "ticks": 25920,
          "time": 129.6,
          "velocity": 0.4409448818897638
        },
        {
          "duration": 0.12000000000000455,
          "durationTicks": 24,
          "midi": 62,
          "name": "D4",
          "ticks": 25920,
          "time": 129.6,
          "velocity": 0.4409448818897638
        },
        {
          "duration": 0.12000000000000455,
          "durationTicks": 24,
          "midi": 67,
          "name": "G4",
          "ticks": 25920,
          "time": 129.6,
          "velocity": 0.4409448818897638
        },
        {
          "duration": 0.12000000000000455,
          "durationTicks": 24,
          "midi": 72,
          "name": "C5",
          "ticks": 25968,
          "time": 129.84,
          "velocity": 0.4409448818897638
        },
        {
          "duration": 0.12000000000000455,
          "durationTicks": 24,
          "midi": 69,
          "name": "A4",
          "ticks": 25968,
          "time": 129.84,
          "velocity": 0.4409448818897638
        },
        {
          "duration": 0.12000000000000455,
          "durationTicks": 24,
          "midi": 65,
          "name": "F4",
          "ticks": 25968,
          "time": 129.84,
          "velocity": 0.4409448818897638
        },
        {
          "duration": 0.12000000000000455,
          "durationTicks": 24,
          "midi": 65,
          "name": "F4",
          "ticks": 26016,
          "time": 130.07999999999998,
          "velocity": 0.4409448818897638
        },
        {
          "duration": 0.12000000000000455,
          "durationTicks": 24,
          "midi": 74,
          "name": "D5",
          "ticks": 26016,
          "time": 130.07999999999998,
          "velocity": 0.4409448818897638
        },
        {
          "duration": 0.12000000000000455,
          "durationTicks": 24,
          "midi": 70,
          "name": "A#4",
          "ticks": 26016,
          "time": 130.07999999999998,
          "velocity": 0.4409448818897638
        },
        {
          "duration": 0.12000000000000455,
          "durationTicks": 24,
          "midi": 72,
          "name": "C5",
          "ticks": 26064,
          "time": 130.32,
          "velocity": 0.4409448818897638
        },
        {
          "duration": 0.12000000000000455,
          "durationTicks": 24,
          "midi": 69,
          "name": "A4",
          "ticks": 26064,
          "time": 130.32,
          "velocity": 0.4409448818897638
        },
        {
          "duration": 0.12000000000000455,
          "durationTicks": 24,
          "midi": 65,
          "name": "F4",
          "ticks": 26064,
          "time": 130.32,
          "velocity": 0.4409448818897638
        },
        {
          "duration": 1.9199999999999875,
          "durationTicks": 384,
          "midi": 63,
          "name": "D#4",
          "ticks": 26112,
          "time": 130.56,
          "velocity": 0.4409448818897638
        },
        {
          "duration": 1.9199999999999875,
          "durationTicks": 384,
          "midi": 67,
          "name": "G4",
          "ticks": 26112,
          "time": 130.56,
          "velocity": 0.4409448818897638
        },
        {
          "duration": 1.9199999999999875,
          "durationTicks": 384,
          "midi": 60,
          "name": "C4",
          "ticks": 26112,
          "time": 130.56,
          "velocity": 0.4409448818897638
        },
        {
          "duration": 1.4399999999999977,
          "durationTicks": 288,
          "midi": 65,
          "name": "F4",
          "ticks": 26496,
          "time": 132.48,
          "velocity": 0.4409448818897638
        },
        {
          "duration": 1.4399999999999977,
          "durationTicks": 288,
          "midi": 69,
          "name": "A4",
          "ticks": 26496,
          "time": 132.48,
          "velocity": 0.4409448818897638
        },
        {
          "duration": 1.4399999999999977,
          "durationTicks": 288,
          "midi": 62,
          "name": "D4",
          "ticks": 26496,
          "time": 132.48,
          "velocity": 0.4409448818897638
        },
        {
          "duration": 0.12000000000000455,
          "durationTicks": 24,
          "midi": 70,
          "name": "A#4",
          "ticks": 26784,
          "time": 133.92,
          "velocity": 0.4409448818897638
        },
        {
          "duration": 0.12000000000000455,
          "durationTicks": 24,
          "midi": 74,
          "name": "D5",
          "ticks": 26784,
          "time": 133.92,
          "velocity": 0.4409448818897638
        },
        {
          "duration": 0.12000000000000455,
          "durationTicks": 24,
          "midi": 65,
          "name": "F4",
          "ticks": 26784,
          "time": 133.92,
          "velocity": 0.4409448818897638
        },
        {
          "duration": 0.9599999999999795,
          "durationTicks": 192,
          "midi": 67,
          "name": "G4",
          "ticks": 26880,
          "time": 134.4,
          "velocity": 0.4409448818897638
        },
        {
          "duration": 0.9599999999999795,
          "durationTicks": 192,
          "midi": 63,
          "name": "D#4",
          "ticks": 26880,
          "time": 134.4,
          "velocity": 0.4409448818897638
        },
        {
          "duration": 0.9599999999999795,
          "durationTicks": 192,
          "midi": 70,
          "name": "A#4",
          "ticks": 26880,
          "time": 134.4,
          "velocity": 0.4409448818897638
        },
        {
          "duration": 0.960000000000008,
          "durationTicks": 192,
          "midi": 69,
          "name": "A4",
          "ticks": 27072,
          "time": 135.35999999999999,
          "velocity": 0.4409448818897638
        },
        {
          "duration": 0.960000000000008,
          "durationTicks": 192,
          "midi": 65,
          "name": "F4",
          "ticks": 27072,
          "time": 135.35999999999999,
          "velocity": 0.4409448818897638
        },
        {
          "duration": 0.960000000000008,
          "durationTicks": 192,
          "midi": 72,
          "name": "C5",
          "ticks": 27072,
          "time": 135.35999999999999,
          "velocity": 0.4409448818897638
        },
        {
          "duration": 0.12000000000000455,
          "durationTicks": 24,
          "midi": 70,
          "name": "A#4",
          "ticks": 27264,
          "time": 136.32,
          "velocity": 0.4409448818897638
        },
        {
          "duration": 0.12000000000000455,
          "durationTicks": 24,
          "midi": 62,
          "name": "D4",
          "ticks": 27264,
          "time": 136.32,
          "velocity": 0.4409448818897638
        },
        {
          "duration": 0.12000000000000455,
          "durationTicks": 24,
          "midi": 67,
          "name": "G4",
          "ticks": 27264,
          "time": 136.32,
          "velocity": 0.4409448818897638
        },
        {
          "duration": 0.11999999999997613,
          "durationTicks": 24,
          "midi": 70,
          "name": "A#4",
          "ticks": 27336,
          "time": 136.68,
          "velocity": 0.4409448818897638
        },
        {
          "duration": 0.11999999999997613,
          "durationTicks": 24,
          "midi": 62,
          "name": "D4",
          "ticks": 27336,
          "time": 136.68,
          "velocity": 0.4409448818897638
        },
        {
          "duration": 0.11999999999997613,
          "durationTicks": 24,
          "midi": 67,
          "name": "G4",
          "ticks": 27336,
          "time": 136.68,
          "velocity": 0.4409448818897638
        },
        {
          "duration": 0.12000000000000455,
          "durationTicks": 24,
          "midi": 65,
          "name": "F4",
          "ticks": 27408,
          "time": 137.04,
          "velocity": 0.4409448818897638
        },
        {
          "duration": 0.12000000000000455,
          "durationTicks": 24,
          "midi": 74,
          "name": "D5",
          "ticks": 27408,
          "time": 137.04,
          "velocity": 0.4409448818897638
        },
        {
          "duration": 0.12000000000000455,
          "durationTicks": 24,
          "midi": 70,
          "name": "A#4",
          "ticks": 27408,
          "time": 137.04,
          "velocity": 0.4409448818897638
        },
        {
          "duration": 0.12000000000000455,
          "durationTicks": 24,
          "midi": 70,
          "name": "A#4",
          "ticks": 27456,
          "time": 137.28,
          "velocity": 0.4409448818897638
        },
        {
          "duration": 0.12000000000000455,
          "durationTicks": 24,
          "midi": 62,
          "name": "D4",
          "ticks": 27456,
          "time": 137.28,
          "velocity": 0.4409448818897638
        },
        {
          "duration": 0.12000000000000455,
          "durationTicks": 24,
          "midi": 67,
          "name": "G4",
          "ticks": 27456,
          "time": 137.28,
          "velocity": 0.4409448818897638
        },
        {
          "duration": 0.12000000000000455,
          "durationTicks": 24,
          "midi": 72,
          "name": "C5",
          "ticks": 27504,
          "time": 137.51999999999998,
          "velocity": 0.4409448818897638
        },
        {
          "duration": 0.12000000000000455,
          "durationTicks": 24,
          "midi": 69,
          "name": "A4",
          "ticks": 27504,
          "time": 137.51999999999998,
          "velocity": 0.4409448818897638
        },
        {
          "duration": 0.12000000000000455,
          "durationTicks": 24,
          "midi": 65,
          "name": "F4",
          "ticks": 27504,
          "time": 137.51999999999998,
          "velocity": 0.4409448818897638
        },
        {
          "duration": 0.12000000000000455,
          "durationTicks": 24,
          "midi": 65,
          "name": "F4",
          "ticks": 27552,
          "time": 137.76,
          "velocity": 0.4409448818897638
        },
        {
          "duration": 0.12000000000000455,
          "durationTicks": 24,
          "midi": 74,
          "name": "D5",
          "ticks": 27552,
          "time": 137.76,
          "velocity": 0.4409448818897638
        },
        {
          "duration": 0.12000000000000455,
          "durationTicks": 24,
          "midi": 70,
          "name": "A#4",
          "ticks": 27552,
          "time": 137.76,
          "velocity": 0.4409448818897638
        },
        {
          "duration": 0.12000000000000455,
          "durationTicks": 24,
          "midi": 65,
          "name": "F4",
          "ticks": 27600,
          "time": 138,
          "velocity": 0.4409448818897638
        },
        {
          "duration": 0.12000000000000455,
          "durationTicks": 24,
          "midi": 69,
          "name": "A4",
          "ticks": 27600,
          "time": 138,
          "velocity": 0.4409448818897638
        },
        {
          "duration": 0.12000000000000455,
          "durationTicks": 24,
          "midi": 72,
          "name": "C5",
          "ticks": 27600,
          "time": 138,
          "velocity": 0.4409448818897638
        },
        {
          "duration": 1.9199999999999875,
          "durationTicks": 384,
          "midi": 60,
          "name": "C4",
          "ticks": 27648,
          "time": 138.24,
          "velocity": 0.4409448818897638
        },
        {
          "duration": 1.9199999999999875,
          "durationTicks": 384,
          "midi": 63,
          "name": "D#4",
          "ticks": 27648,
          "time": 138.24,
          "velocity": 0.4409448818897638
        },
        {
          "duration": 1.9199999999999875,
          "durationTicks": 384,
          "midi": 67,
          "name": "G4",
          "ticks": 27648,
          "time": 138.24,
          "velocity": 0.4409448818897638
        },
        {
          "duration": 1.4399999999999977,
          "durationTicks": 288,
          "midi": 62,
          "name": "D4",
          "ticks": 28032,
          "time": 140.16,
          "velocity": 0.4409448818897638
        },
        {
          "duration": 1.4399999999999977,
          "durationTicks": 288,
          "midi": 69,
          "name": "A4",
          "ticks": 28032,
          "time": 140.16,
          "velocity": 0.4409448818897638
        },
        {
          "duration": 1.4399999999999977,
          "durationTicks": 288,
          "midi": 65,
          "name": "F4",
          "ticks": 28032,
          "time": 140.16,
          "velocity": 0.4409448818897638
        },
        {
          "duration": 0.12000000000000455,
          "durationTicks": 24,
          "midi": 70,
          "name": "A#4",
          "ticks": 28320,
          "time": 141.6,
          "velocity": 0.4409448818897638
        },
        {
          "duration": 0.12000000000000455,
          "durationTicks": 24,
          "midi": 74,
          "name": "D5",
          "ticks": 28320,
          "time": 141.6,
          "velocity": 0.4409448818897638
        },
        {
          "duration": 0.12000000000000455,
          "durationTicks": 24,
          "midi": 65,
          "name": "F4",
          "ticks": 28320,
          "time": 141.6,
          "velocity": 0.4409448818897638
        },
        {
          "duration": 0.960000000000008,
          "durationTicks": 192,
          "midi": 70,
          "name": "A#4",
          "ticks": 28416,
          "time": 142.07999999999998,
          "velocity": 0.4409448818897638
        },
        {
          "duration": 0.960000000000008,
          "durationTicks": 192,
          "midi": 63,
          "name": "D#4",
          "ticks": 28416,
          "time": 142.07999999999998,
          "velocity": 0.4409448818897638
        },
        {
          "duration": 0.960000000000008,
          "durationTicks": 192,
          "midi": 67,
          "name": "G4",
          "ticks": 28416,
          "time": 142.07999999999998,
          "velocity": 0.4409448818897638
        },
        {
          "duration": 0.960000000000008,
          "durationTicks": 192,
          "midi": 72,
          "name": "C5",
          "ticks": 28608,
          "time": 143.04,
          "velocity": 0.4409448818897638
        },
        {
          "duration": 0.960000000000008,
          "durationTicks": 192,
          "midi": 65,
          "name": "F4",
          "ticks": 28608,
          "time": 143.04,
          "velocity": 0.4409448818897638
        },
        {
          "duration": 0.960000000000008,
          "durationTicks": 192,
          "midi": 69,
          "name": "A4",
          "ticks": 28608,
          "time": 143.04,
          "velocity": 0.4409448818897638
        },
        {
          "duration": 0.12000000000000455,
          "durationTicks": 24,
          "midi": 67,
          "name": "G4",
          "ticks": 28800,
          "time": 144,
          "velocity": 0.4409448818897638
        },
        {
          "duration": 0.12000000000000455,
          "durationTicks": 24,
          "midi": 62,
          "name": "D4",
          "ticks": 28800,
          "time": 144,
          "velocity": 0.4409448818897638
        },
        {
          "duration": 0.12000000000000455,
          "durationTicks": 24,
          "midi": 70,
          "name": "A#4",
          "ticks": 28800,
          "time": 144,
          "velocity": 0.4409448818897638
        },
        {
          "duration": 0.12000000000000455,
          "durationTicks": 24,
          "midi": 70,
          "name": "A#4",
          "ticks": 28872,
          "time": 144.35999999999999,
          "velocity": 0.4409448818897638
        },
        {
          "duration": 0.12000000000000455,
          "durationTicks": 24,
          "midi": 62,
          "name": "D4",
          "ticks": 28872,
          "time": 144.35999999999999,
          "velocity": 0.4409448818897638
        },
        {
          "duration": 0.12000000000000455,
          "durationTicks": 24,
          "midi": 67,
          "name": "G4",
          "ticks": 28872,
          "time": 144.35999999999999,
          "velocity": 0.4409448818897638
        },
        {
          "duration": 0.12000000000000455,
          "durationTicks": 24,
          "midi": 65,
          "name": "F4",
          "ticks": 28944,
          "time": 144.72,
          "velocity": 0.4409448818897638
        },
        {
          "duration": 0.12000000000000455,
          "durationTicks": 24,
          "midi": 74,
          "name": "D5",
          "ticks": 28944,
          "time": 144.72,
          "velocity": 0.4409448818897638
        },
        {
          "duration": 0.12000000000000455,
          "durationTicks": 24,
          "midi": 70,
          "name": "A#4",
          "ticks": 28944,
          "time": 144.72,
          "velocity": 0.4409448818897638
        },
        {
          "duration": 0.9599999999999795,
          "durationTicks": 192,
          "midi": 70,
          "name": "A#4",
          "ticks": 28992,
          "time": 144.96,
          "velocity": 0.4409448818897638
        },
        {
          "duration": 0.9599999999999795,
          "durationTicks": 192,
          "midi": 62,
          "name": "D4",
          "ticks": 28992,
          "time": 144.96,
          "velocity": 0.4409448818897638
        },
        {
          "duration": 0.9599999999999795,
          "durationTicks": 192,
          "midi": 67,
          "name": "G4",
          "ticks": 28992,
          "time": 144.96,
          "velocity": 0.4409448818897638
        }
      ]
    },
    {
      "channel": 0,
      "controlChanges": {
        "6": [
          {
            "number": 6,
            "ticks": 0,
            "time": 0,
            "value": 0.09448818897637795
          }
        ],
        "7": [
          {
            "number": 7,
            "ticks": 0,
            "time": 0,
            "value": 0.7874015748031497
          },
          {
            "number": 7,
            "ticks": 0,
            "time": 0,
            "value": 0.7874015748031497
          }
        ],
        "10": [
          {
            "number": 10,
            "ticks": 0,
            "time": 0,
            "value": 0.5039370078740157
          },
          {
            "number": 10,
            "ticks": 0,
            "time": 0,
            "value": 0.5039370078740157
          }
        ],
        "100": [
          {
            "number": 100,
            "ticks": 0,
            "time": 0,
            "value": 0
          }
        ],
        "101": [
          {
            "number": 101,
            "ticks": 0,
            "time": 0,
            "value": 0
          }
        ]
      },
      "pitchBends": [
        {
          "ticks": 0,
          "time": 0,
          "value": 0
        },
        {
          "ticks": 0,
          "time": 0,
          "value": 0
        }
      ],
      "instrument": {
        "family": "piano",
        "number": 0,
        "name": "acoustic grand piano"
      },
      "name": "Pizzicato",
      "notes": [],
      "endOfTrackTicks": 32340
    },
    {
      "channel": 8,
      "controlChanges": {
        "6": [
          {
            "number": 6,
            "ticks": 0,
            "time": 0,
            "value": 0.09448818897637795
          },
          {
            "number": 6,
            "ticks": 32256,
            "time": 161.28,
            "value": 0.09448818897637795
          },
          {
            "number": 6,
            "ticks": 32340,
            "time": 161.7,
            "value": 0.09448818897637795
          },
          {
            "number": 6,
            "ticks": 32340,
            "time": 161.7,
            "value": 0.09448818897637795
          }
        ],
        "7": [
          {
            "number": 7,
            "ticks": 0,
            "time": 0,
            "value": 0.7874015748031497
          },
          {
            "number": 7,
            "ticks": 32256,
            "time": 161.28,
            "value": 0.7874015748031497
          },
          {
            "number": 7,
            "ticks": 32340,
            "time": 161.7,
            "value": 0.7874015748031497
          },
          {
            "number": 7,
            "ticks": 32340,
            "time": 161.7,
            "value": 0.7874015748031497
          }
        ],
        "10": [
          {
            "number": 10,
            "ticks": 0,
            "time": 0,
            "value": 0.5039370078740157
          },
          {
            "number": 10,
            "ticks": 32256,
            "time": 161.28,
            "value": 0.5039370078740157
          },
          {
            "number": 10,
            "ticks": 32340,
            "time": 161.7,
            "value": 0.5039370078740157
          },
          {
            "number": 10,
            "ticks": 32340,
            "time": 161.7,
            "value": 0.5039370078740157
          }
        ],
        "100": [
          {
            "number": 100,
            "ticks": 0,
            "time": 0,
            "value": 0
          },
          {
            "number": 100,
            "ticks": 32256,
            "time": 161.28,
            "value": 0
          },
          {
            "number": 100,
            "ticks": 32340,
            "time": 161.7,
            "value": 0
          },
          {
            "number": 100,
            "ticks": 32340,
            "time": 161.7,
            "value": 0
          }
        ],
        "101": [
          {
            "number": 101,
            "ticks": 0,
            "time": 0,
            "value": 0
          },
          {
            "number": 101,
            "ticks": 32256,
            "time": 161.28,
            "value": 0
          },
          {
            "number": 101,
            "ticks": 32340,
            "time": 161.7,
            "value": 0
          },
          {
            "number": 101,
            "ticks": 32340,
            "time": 161.7,
            "value": 0
          }
        ]
      },
      "pitchBends": [
        {
          "ticks": 0,
          "time": 0,
          "value": 0
        },
        {
          "ticks": 32256,
          "time": 161.28,
          "value": 0
        },
        {
          "ticks": 32340,
          "time": 161.7,
          "value": 0
        },
        {
          "ticks": 32340,
          "time": 161.7,
          "value": 0
        }
      ],
      "instrument": {
        "family": "strings",
        "number": 45,
        "name": "pizzicato strings"
      },
      "name": "",
      "notes": [
        {
          "duration": 0.11999999999999744,
          "durationTicks": 24,
          "midi": 63,
          "name": "D#4",
          "ticks": 12288,
          "time": 61.44,
          "velocity": 0.7559055118110236
        },
        {
          "duration": 0.11999999999999744,
          "durationTicks": 24,
          "midi": 67,
          "name": "G4",
          "ticks": 12336,
          "time": 61.68,
          "velocity": 0.7559055118110236
        },
        {
          "duration": 0.11999999999999744,
          "durationTicks": 24,
          "midi": 70,
          "name": "A#4",
          "ticks": 12336,
          "time": 61.68,
          "velocity": 0.7559055118110236
        },
        {
          "duration": 0.12000000000000455,
          "durationTicks": 24,
          "midi": 58,
          "name": "A#3",
          "ticks": 12384,
          "time": 61.919999999999995,
          "velocity": 0.7559055118110236
        },
        {
          "duration": 0.12000000000000455,
          "durationTicks": 24,
          "midi": 70,
          "name": "A#4",
          "ticks": 12432,
          "time": 62.16,
          "velocity": 0.7559055118110236
        },
        {
          "duration": 0.12000000000000455,
          "durationTicks": 24,
          "midi": 67,
          "name": "G4",
          "ticks": 12432,
          "time": 62.16,
          "velocity": 0.7559055118110236
        },
        {
          "duration": 0.11999999999999744,
          "durationTicks": 24,
          "midi": 63,
          "name": "D#4",
          "ticks": 12480,
          "time": 62.4,
          "velocity": 0.7559055118110236
        },
        {
          "duration": 0.11999999999999744,
          "durationTicks": 24,
          "midi": 70,
          "name": "A#4",
          "ticks": 12528,
          "time": 62.64,
          "velocity": 0.7559055118110236
        },
        {
          "duration": 0.11999999999999744,
          "durationTicks": 24,
          "midi": 67,
          "name": "G4",
          "ticks": 12528,
          "time": 62.64,
          "velocity": 0.7559055118110236
        },
        {
          "duration": 0.12000000000000455,
          "durationTicks": 24,
          "midi": 58,
          "name": "A#3",
          "ticks": 12576,
          "time": 62.879999999999995,
          "velocity": 0.7559055118110236
        },
        {
          "duration": 0.11999999999999744,
          "durationTicks": 24,
          "midi": 67,
          "name": "G4",
          "ticks": 12624,
          "time": 63.12,
          "velocity": 0.7559055118110236
        },
        {
          "duration": 0.11999999999999744,
          "durationTicks": 24,
          "midi": 70,
          "name": "A#4",
          "ticks": 12624,
          "time": 63.12,
          "velocity": 0.7559055118110236
        },
        {
          "duration": 0.11999999999999744,
          "durationTicks": 24,
          "midi": 65,
          "name": "F4",
          "ticks": 12672,
          "time": 63.36,
          "velocity": 0.7559055118110236
        },
        {
          "duration": 0.12000000000000455,
          "durationTicks": 24,
          "midi": 69,
          "name": "A4",
          "ticks": 12720,
          "time": 63.599999999999994,
          "velocity": 0.7559055118110236
        },
        {
          "duration": 0.12000000000000455,
          "durationTicks": 24,
          "midi": 72,
          "name": "C5",
          "ticks": 12720,
          "time": 63.599999999999994,
          "velocity": 0.7559055118110236
        },
        {
          "duration": 0.12000000000000455,
          "durationTicks": 24,
          "midi": 60,
          "name": "C4",
          "ticks": 12768,
          "time": 63.839999999999996,
          "velocity": 0.7559055118110236
        },
        {
          "duration": 0.12000000000000455,
          "durationTicks": 24,
          "midi": 69,
          "name": "A4",
          "ticks": 12816,
          "time": 64.08,
          "velocity": 0.7559055118110236
        },
        {
          "duration": 0.12000000000000455,
          "durationTicks": 24,
          "midi": 72,
          "name": "C5",
          "ticks": 12816,
          "time": 64.08,
          "velocity": 0.7559055118110236
        },
        {
          "duration": 0.12000000000000455,
          "durationTicks": 24,
          "midi": 65,
          "name": "F4",
          "ticks": 12864,
          "time": 64.32,
          "velocity": 0.7559055118110236
        },
        {
          "duration": 0.11999999999999034,
          "durationTicks": 24,
          "midi": 69,
          "name": "A4",
          "ticks": 12912,
          "time": 64.56,
          "velocity": 0.7559055118110236
        },
        {
          "duration": 0.11999999999999034,
          "durationTicks": 24,
          "midi": 72,
          "name": "C5",
          "ticks": 12912,
          "time": 64.56,
          "velocity": 0.7559055118110236
        },
        {
          "duration": 0.12000000000000455,
          "durationTicks": 24,
          "midi": 60,
          "name": "C4",
          "ticks": 12960,
          "time": 64.8,
          "velocity": 0.7559055118110236
        },
        {
          "duration": 0.12000000000000455,
          "durationTicks": 24,
          "midi": 69,
          "name": "A4",
          "ticks": 13008,
          "time": 65.03999999999999,
          "velocity": 0.7559055118110236
        },
        {
          "duration": 0.12000000000000455,
          "durationTicks": 24,
          "midi": 72,
          "name": "C5",
          "ticks": 13008,
          "time": 65.03999999999999,
          "velocity": 0.7559055118110236
        },
        {
          "duration": 0.11999999999999034,
          "durationTicks": 24,
          "midi": 67,
          "name": "G4",
          "ticks": 13056,
          "time": 65.28,
          "velocity": 0.7559055118110236
        },
        {
          "duration": 0.12000000000000455,
          "durationTicks": 24,
          "midi": 70,
          "name": "A#4",
          "ticks": 13104,
          "time": 65.52,
          "velocity": 0.7559055118110236
        },
        {
          "duration": 0.12000000000000455,
          "durationTicks": 24,
          "midi": 74,
          "name": "D5",
          "ticks": 13104,
          "time": 65.52,
          "velocity": 0.7559055118110236
        },
        {
          "duration": 0.12000000000000455,
          "durationTicks": 24,
          "midi": 62,
          "name": "D4",
          "ticks": 13152,
          "time": 65.75999999999999,
          "velocity": 0.7559055118110236
        },
        {
          "duration": 0.12000000000000455,
          "durationTicks": 24,
          "midi": 74,
          "name": "D5",
          "ticks": 13200,
          "time": 66,
          "velocity": 0.7559055118110236
        },
        {
          "duration": 0.12000000000000455,
          "durationTicks": 24,
          "midi": 70,
          "name": "A#4",
          "ticks": 13200,
          "time": 66,
          "velocity": 0.7559055118110236
        },
        {
          "duration": 0.12000000000000455,
          "durationTicks": 24,
          "midi": 67,
          "name": "G4",
          "ticks": 13248,
          "time": 66.24,
          "velocity": 0.7559055118110236
        },
        {
          "duration": 0.11999999999999034,
          "durationTicks": 24,
          "midi": 74,
          "name": "D5",
          "ticks": 13296,
          "time": 66.48,
          "velocity": 0.7559055118110236
        },
        {
          "duration": 0.11999999999999034,
          "durationTicks": 24,
          "midi": 70,
          "name": "A#4",
          "ticks": 13296,
          "time": 66.48,
          "velocity": 0.7559055118110236
        },
        {
          "duration": 0.12000000000000455,
          "durationTicks": 24,
          "midi": 62,
          "name": "D4",
          "ticks": 13344,
          "time": 66.72,
          "velocity": 0.7559055118110236
        },
        {
          "duration": 0.12000000000000455,
          "durationTicks": 24,
          "midi": 70,
          "name": "A#4",
          "ticks": 13392,
          "time": 66.96,
          "velocity": 0.7559055118110236
        },
        {
          "duration": 0.12000000000000455,
          "durationTicks": 24,
          "midi": 74,
          "name": "D5",
          "ticks": 13392,
          "time": 66.96,
          "velocity": 0.7559055118110236
        },
        {
          "duration": 0.11999999999999034,
          "durationTicks": 24,
          "midi": 62,
          "name": "D4",
          "ticks": 13440,
          "time": 67.2,
          "velocity": 0.7559055118110236
        },
        {
          "duration": 0.12000000000000455,
          "durationTicks": 24,
          "midi": 72,
          "name": "C5",
          "ticks": 13488,
          "time": 67.44,
          "velocity": 0.7559055118110236
        },
        {
          "duration": 0.12000000000000455,
          "durationTicks": 24,
          "midi": 69,
          "name": "A4",
          "ticks": 13488,
          "time": 67.44,
          "velocity": 0.7559055118110236
        },
        {
          "duration": 0.12000000000000455,
          "durationTicks": 24,
          "midi": 65,
          "name": "F4",
          "ticks": 13536,
          "time": 67.67999999999999,
          "velocity": 0.7559055118110236
        },
        {
          "duration": 0.11999999999999034,
          "durationTicks": 24,
          "midi": 72,
          "name": "C5",
          "ticks": 13584,
          "time": 67.92,
          "velocity": 0.7559055118110236
        },
        {
          "duration": 0.11999999999999034,
          "durationTicks": 24,
          "midi": 69,
          "name": "A4",
          "ticks": 13584,
          "time": 67.92,
          "velocity": 0.7559055118110236
        },
        {
          "duration": 0.12000000000000455,
          "durationTicks": 24,
          "midi": 62,
          "name": "D4",
          "ticks": 13632,
          "time": 68.16,
          "velocity": 0.7559055118110236
        },
        {
          "duration": 0.12000000000000455,
          "durationTicks": 24,
          "midi": 72,
          "name": "C5",
          "ticks": 13680,
          "time": 68.39999999999999,
          "velocity": 0.7559055118110236
        },
        {
          "duration": 0.12000000000000455,
          "durationTicks": 24,
          "midi": 69,
          "name": "A4",
          "ticks": 13680,
          "time": 68.39999999999999,
          "velocity": 0.7559055118110236
        },
        {
          "duration": 0.11999999999999034,
          "durationTicks": 24,
          "midi": 65,
          "name": "F4",
          "ticks": 13728,
          "time": 68.64,
          "velocity": 0.7559055118110236
        },
        {
          "duration": 0.12000000000000455,
          "durationTicks": 24,
          "midi": 69,
          "name": "A4",
          "ticks": 13776,
          "time": 68.88,
          "velocity": 0.7559055118110236
        },
        {
          "duration": 0.12000000000000455,
          "durationTicks": 24,
          "midi": 72,
          "name": "C5",
          "ticks": 13776,
          "time": 68.88,
          "velocity": 0.7559055118110236
        },
        {
          "duration": 0.11999999999999034,
          "durationTicks": 24,
          "midi": 63,
          "name": "D#4",
          "ticks": 13824,
          "time": 69.12,
          "velocity": 0.7559055118110236
        },
        {
          "duration": 0.12000000000000455,
          "durationTicks": 24,
          "midi": 70,
          "name": "A#4",
          "ticks": 13872,
          "time": 69.36,
          "velocity": 0.7559055118110236
        },
        {
          "duration": 0.12000000000000455,
          "durationTicks": 24,
          "midi": 67,
          "name": "G4",
          "ticks": 13872,
          "time": 69.36,
          "velocity": 0.7559055118110236
        },
        {
          "duration": 0.12000000000000455,
          "durationTicks": 24,
          "midi": 58,
          "name": "A#3",
          "ticks": 13920,
          "time": 69.6,
          "velocity": 0.7559055118110236
        },
        {
          "duration": 0.11999999999999034,
          "durationTicks": 24,
          "midi": 67,
          "name": "G4",
          "ticks": 13968,
          "time": 69.84,
          "velocity": 0.7559055118110236
        },
        {
          "duration": 0.11999999999999034,
          "durationTicks": 24,
          "midi": 70,
          "name": "A#4",
          "ticks": 13968,
          "time": 69.84,
          "velocity": 0.7559055118110236
        },
        {
          "duration": 0.12000000000000455,
          "durationTicks": 24,
          "midi": 63,
          "name": "D#4",
          "ticks": 14016,
          "time": 70.08,
          "velocity": 0.7559055118110236
        },
        {
          "duration": 0.12000000000000455,
          "durationTicks": 24,
          "midi": 70,
          "name": "A#4",
          "ticks": 14064,
          "time": 70.32,
          "velocity": 0.7559055118110236
        },
        {
          "duration": 0.12000000000000455,
          "durationTicks": 24,
          "midi": 67,
          "name": "G4",
          "ticks": 14064,
          "time": 70.32,
          "velocity": 0.7559055118110236
        },
        {
          "duration": 0.11999999999999034,
          "durationTicks": 24,
          "midi": 58,
          "name": "A#3",
          "ticks": 14112,
          "time": 70.56,
          "velocity": 0.7559055118110236
        },
        {
          "duration": 0.12000000000000455,
          "durationTicks": 24,
          "midi": 70,
          "name": "A#4",
          "ticks": 14160,
          "time": 70.8,
          "velocity": 0.7559055118110236
        },
        {
          "duration": 0.12000000000000455,
          "durationTicks": 24,
          "midi": 67,
          "name": "G4",
          "ticks": 14160,
          "time": 70.8,
          "velocity": 0.7559055118110236
        },
        {
          "duration": 0.12000000000000455,
          "durationTicks": 24,
          "midi": 65,
          "name": "F4",
          "ticks": 14208,
          "time": 71.03999999999999,
          "velocity": 0.7559055118110236
        },
        {
          "duration": 0.11999999999999034,
          "durationTicks": 24,
          "midi": 72,
          "name": "C5",
          "ticks": 14256,
          "time": 71.28,
          "velocity": 0.7559055118110236
        },
        {
          "duration": 0.11999999999999034,
          "durationTicks": 24,
          "midi": 69,
          "name": "A4",
          "ticks": 14256,
          "time": 71.28,
          "velocity": 0.7559055118110236
        },
        {
          "duration": 0.12000000000000455,
          "durationTicks": 24,
          "midi": 60,
          "name": "C4",
          "ticks": 14304,
          "time": 71.52,
          "velocity": 0.7559055118110236
        },
        {
          "duration": 0.12000000000000455,
          "durationTicks": 24,
          "midi": 69,
          "name": "A4",
          "ticks": 14352,
          "time": 71.75999999999999,
          "velocity": 0.7559055118110236
        },
        {
          "duration": 0.12000000000000455,
          "durationTicks": 24,
          "midi": 72,
          "name": "C5",
          "ticks": 14352,
          "time": 71.75999999999999,
          "velocity": 0.7559055118110236
        },
        {
          "duration": 0.11999999999999034,
          "durationTicks": 24,
          "midi": 65,
          "name": "F4",
          "ticks": 14400,
          "time": 72,
          "velocity": 0.7559055118110236
        },
        {
          "duration": 0.12000000000000455,
          "durationTicks": 24,
          "midi": 72,
          "name": "C5",
          "ticks": 14448,
          "time": 72.24,
          "velocity": 0.7559055118110236
        },
        {
          "duration": 0.12000000000000455,
          "durationTicks": 24,
          "midi": 69,
          "name": "A4",
          "ticks": 14448,
          "time": 72.24,
          "velocity": 0.7559055118110236
        },
        {
          "duration": 0.11999999999999034,
          "durationTicks": 24,
          "midi": 60,
          "name": "C4",
          "ticks": 14496,
          "time": 72.48,
          "velocity": 0.7559055118110236
        },
        {
          "duration": 0.12000000000000455,
          "durationTicks": 24,
          "midi": 72,
          "name": "C5",
          "ticks": 14544,
          "time": 72.72,
          "velocity": 0.7559055118110236
        },
        {
          "duration": 0.12000000000000455,
          "durationTicks": 24,
          "midi": 69,
          "name": "A4",
          "ticks": 14544,
          "time": 72.72,
          "velocity": 0.7559055118110236
        },
        {
          "duration": 0.12000000000000455,
          "durationTicks": 24,
          "midi": 70,
          "name": "A#4",
          "ticks": 14592,
          "time": 72.96,
          "velocity": 0.7559055118110236
        },
        {
          "duration": 0.11999999999999034,
          "durationTicks": 24,
          "midi": 74,
          "name": "D5",
          "ticks": 14640,
          "time": 73.2,
          "velocity": 0.7559055118110236
        },
        {
          "duration": 0.11999999999999034,
          "durationTicks": 24,
          "midi": 77,
          "name": "F5",
          "ticks": 14640,
          "time": 73.2,
          "velocity": 0.7559055118110236
        },
        {
          "duration": 0.12000000000000455,
          "durationTicks": 24,
          "midi": 65,
          "name": "F4",
          "ticks": 14688,
          "time": 73.44,
          "velocity": 0.7559055118110236
        },
        {
          "duration": 0.12000000000000455,
          "durationTicks": 24,
          "midi": 74,
          "name": "D5",
          "ticks": 14736,
          "time": 73.67999999999999,
          "velocity": 0.7559055118110236
        },
        {
          "duration": 0.12000000000000455,
          "durationTicks": 24,
          "midi": 77,
          "name": "F5",
          "ticks": 14736,
          "time": 73.67999999999999,
          "velocity": 0.7559055118110236
        },
        {
          "duration": 0.11999999999999034,
          "durationTicks": 24,
          "midi": 70,
          "name": "A#4",
          "ticks": 14784,
          "time": 73.92,
          "velocity": 0.7559055118110236
        },
        {
          "duration": 0.12000000000000455,
          "durationTicks": 24,
          "midi": 74,
          "name": "D5",
          "ticks": 14832,
          "time": 74.16,
          "velocity": 0.7559055118110236
        },
        {
          "duration": 0.12000000000000455,
          "durationTicks": 24,
          "midi": 77,
          "name": "F5",
          "ticks": 14832,
          "time": 74.16,
          "velocity": 0.7559055118110236
        },
        {
          "duration": 0.12000000000000455,
          "durationTicks": 24,
          "midi": 65,
          "name": "F4",
          "ticks": 14880,
          "time": 74.39999999999999,
          "velocity": 0.7559055118110236
        },
        {
          "duration": 0.11999999999999034,
          "durationTicks": 24,
          "midi": 77,
          "name": "F5",
          "ticks": 14928,
          "time": 74.64,
          "velocity": 0.7559055118110236
        },
        {
          "duration": 0.11999999999999034,
          "durationTicks": 24,
          "midi": 74,
          "name": "D5",
          "ticks": 14928,
          "time": 74.64,
          "velocity": 0.7559055118110236
        },
        {
          "duration": 0.12000000000000455,
          "durationTicks": 24,
          "midi": 69,
          "name": "A4",
          "ticks": 14976,
          "time": 74.88,
          "velocity": 0.7559055118110236
        }
      ]
    },
    {
      "channel": 0,
      "controlChanges": {
        "6": [
          {
            "number": 6,
            "ticks": 0,
            "time": 0,
            "value": 0.09448818897637795
          }
        ],
        "7": [
          {
            "number": 7,
            "ticks": 0,
            "time": 0,
            "value": 0.7874015748031497
          },
          {
            "number": 7,
            "ticks": 0,
            "time": 0,
            "value": 0.7874015748031497
          }
        ],
        "10": [
          {
            "number": 10,
            "ticks": 0,
            "time": 0,
            "value": 0.5039370078740157
          },
          {
            "number": 10,
            "ticks": 0,
            "time": 0,
            "value": 0.5039370078740157
          }
        ],
        "100": [
          {
            "number": 100,
            "ticks": 0,
            "time": 0,
            "value": 0
          }
        ],
        "101": [
          {
            "number": 101,
            "ticks": 0,
            "time": 0,
            "value": 0
          }
        ]
      },
      "pitchBends": [
        {
          "ticks": 0,
          "time": 0,
          "value": 0
        },
        {
          "ticks": 0,
          "time": 0,
          "value": 0
        }
      ],
      "instrument": {
        "family": "piano",
        "number": 0,
        "name": "acoustic grand piano"
      },
      "name": "Violin Lead",
      "notes": [],
      "endOfTrackTicks": 32340
    },
    {
      "channel": 10,
      "controlChanges": {
        "6": [
          {
            "number": 6,
            "ticks": 0,
            "time": 0,
            "value": 0.09448818897637795
          },
          {
            "number": 6,
            "ticks": 32256,
            "time": 161.28,
            "value": 0.09448818897637795
          },
          {
            "number": 6,
            "ticks": 32340,
            "time": 161.7,
            "value": 0.09448818897637795
          },
          {
            "number": 6,
            "ticks": 32340,
            "time": 161.7,
            "value": 0.09448818897637795
          }
        ],
        "7": [
          {
            "number": 7,
            "ticks": 0,
            "time": 0,
            "value": 0.7874015748031497
          },
          {
            "number": 7,
            "ticks": 32256,
            "time": 161.28,
            "value": 0.7874015748031497
          },
          {
            "number": 7,
            "ticks": 32340,
            "time": 161.7,
            "value": 0.7874015748031497
          },
          {
            "number": 7,
            "ticks": 32340,
            "time": 161.7,
            "value": 0.7874015748031497
          }
        ],
        "10": [
          {
            "number": 10,
            "ticks": 0,
            "time": 0,
            "value": 0.5039370078740157
          },
          {
            "number": 10,
            "ticks": 32256,
            "time": 161.28,
            "value": 0.5039370078740157
          },
          {
            "number": 10,
            "ticks": 32340,
            "time": 161.7,
            "value": 0.5039370078740157
          },
          {
            "number": 10,
            "ticks": 32340,
            "time": 161.7,
            "value": 0.5039370078740157
          }
        ],
        "100": [
          {
            "number": 100,
            "ticks": 0,
            "time": 0,
            "value": 0
          },
          {
            "number": 100,
            "ticks": 32256,
            "time": 161.28,
            "value": 0
          },
          {
            "number": 100,
            "ticks": 32340,
            "time": 161.7,
            "value": 0
          },
          {
            "number": 100,
            "ticks": 32340,
            "time": 161.7,
            "value": 0
          }
        ],
        "101": [
          {
            "number": 101,
            "ticks": 0,
            "time": 0,
            "value": 0
          },
          {
            "number": 101,
            "ticks": 32256,
            "time": 161.28,
            "value": 0
          },
          {
            "number": 101,
            "ticks": 32340,
            "time": 161.7,
            "value": 0
          },
          {
            "number": 101,
            "ticks": 32340,
            "time": 161.7,
            "value": 0
          }
        ]
      },
      "pitchBends": [
        {
          "ticks": 0,
          "time": 0,
          "value": 0
        },
        {
          "ticks": 32256,
          "time": 161.28,
          "value": 0
        },
        {
          "ticks": 32340,
          "time": 161.7,
          "value": 0
        },
        {
          "ticks": 32340,
          "time": 161.7,
          "value": 0
        }
      ],
      "instrument": {
        "family": "strings",
        "number": 40,
        "name": "violin"
      },
      "name": "",
      "notes": [
        {
          "duration": 0.240000000000002,
          "durationTicks": 48,
          "midi": 65,
          "name": "F4",
          "ticks": 12048,
          "time": 60.239999999999995,
          "velocity": 0.7559055118110236
        },
        {
          "duration": 0.240000000000002,
          "durationTicks": 48,
          "midi": 70,
          "name": "A#4",
          "ticks": 12096,
          "time": 60.48,
          "velocity": 0.7559055118110236
        },
        {
          "duration": 0.240000000000002,
          "durationTicks": 48,
          "midi": 72,
          "name": "C5",
          "ticks": 12144,
          "time": 60.72,
          "velocity": 0.7559055118110236
        },
        {
          "duration": 0.23999999999999488,
          "durationTicks": 48,
          "midi": 74,
          "name": "D5",
          "ticks": 12192,
          "time": 60.96,
          "velocity": 0.7559055118110236
        },
        {
          "duration": 0.240000000000002,
          "durationTicks": 48,
          "midi": 75,
          "name": "D#5",
          "ticks": 12240,
          "time": 61.199999999999996,
          "velocity": 0.7559055118110236
        },
        {
          "duration": 0.1600000000000037,
          "durationTicks": 32,
          "midi": 77,
          "name": "F5",
          "ticks": 12288,
          "time": 61.44,
          "velocity": 0.7559055118110236
        },
        {
          "duration": 0.1600000000000037,
          "durationTicks": 32,
          "midi": 77,
          "name": "F5",
          "ticks": 12336,
          "time": 61.68,
          "velocity": 0.7559055118110236
        },
        {
          "duration": 0.1600000000000108,
          "durationTicks": 32,
          "midi": 77,
          "name": "F5",
          "ticks": 12384,
          "time": 61.919999999999995,
          "velocity": 0.7559055118110236
        },
        {
          "duration": 0.1600000000000037,
          "durationTicks": 32,
          "midi": 77,
          "name": "F5",
          "ticks": 12432,
          "time": 62.16,
          "velocity": 0.7559055118110236
        },
        {
          "duration": 0.4799999999999969,
          "durationTicks": 96,
          "midi": 77,
          "name": "F5",
          "ticks": 12480,
          "time": 62.4,
          "velocity": 0.7559055118110236
        },
        {
          "duration": 0.240000000000002,
          "durationTicks": 48,
          "midi": 70,
          "name": "A#4",
          "ticks": 12576,
          "time": 62.879999999999995,
          "velocity": 0.7559055118110236
        },
        {
          "duration": 0.240000000000002,
          "durationTicks": 48,
          "midi": 74,
          "name": "D5",
          "ticks": 12624,
          "time": 63.12,
          "velocity": 0.7559055118110236
        },
        {
          "duration": 0.1600000000000037,
          "durationTicks": 32,
          "midi": 72,
          "name": "C5",
          "ticks": 12672,
          "time": 63.36,
          "velocity": 0.7559055118110236
        },
        {
          "duration": 0.1600000000000108,
          "durationTicks": 32,
          "midi": 72,
          "name": "C5",
          "ticks": 12720,
          "time": 63.599999999999994,
          "velocity": 0.7559055118110236
        },
        {
          "duration": 0.1600000000000037,
          "durationTicks": 32,
          "midi": 72,
          "name": "C5",
          "ticks": 12768,
          "time": 63.839999999999996,
          "velocity": 0.7559055118110236
        },
        {
          "duration": 0.1600000000000108,
          "durationTicks": 32,
          "midi": 72,
          "name": "C5",
          "ticks": 12816,
          "time": 64.08,
          "velocity": 0.7559055118110236
        },
        {
          "duration": 0.7199999999999989,
          "durationTicks": 144,
          "midi": 72,
          "name": "C5",
          "ticks": 12864,
          "time": 64.32,
          "velocity": 0.7559055118110236
        },
        {
          "duration": 0.12000000000000455,
          "durationTicks": 24,
          "midi": 74,
          "name": "D5",
          "ticks": 13008,
          "time": 65.03999999999999,
          "velocity": 0.7559055118110236
        },
        {
          "duration": 0.12000000000000455,
          "durationTicks": 24,
          "midi": 72,
          "name": "C5",
          "ticks": 13032,
          "time": 65.16,
          "velocity": 0.7559055118110236
        },
        {
          "duration": 0.1599999999999966,
          "durationTicks": 32,
          "midi": 70,
          "name": "A#4",
          "ticks": 13056,
          "time": 65.28,
          "velocity": 0.7559055118110236
        },
        {
          "duration": 0.1600000000000108,
          "durationTicks": 32,
          "midi": 70,
          "name": "A#4",
          "ticks": 13104,
          "time": 65.52,
          "velocity": 0.7559055118110236
        },
        {
          "duration": 0.1600000000000108,
          "durationTicks": 32,
          "midi": 70,
          "name": "A#4",
          "ticks": 13152,
          "time": 65.75999999999999,
          "velocity": 0.7559055118110236
        },
        {
          "duration": 0.1599999999999966,
          "durationTicks": 32,
          "midi": 70,
          "name": "A#4",
          "ticks": 13200,
          "time": 66,
          "velocity": 0.7559055118110236
        },
        {
          "duration": 0.480000000000004,
          "durationTicks": 96,
          "midi": 70,
          "name": "A#4",
          "ticks": 13248,
          "time": 66.24,
          "velocity": 0.7559055118110236
        },
        {
          "duration": 0.23999999999999488,
          "durationTicks": 48,
          "midi": 81,
          "name": "A5",
          "ticks": 13344,
          "time": 66.72,
          "velocity": 0.7559055118110236
        },
        {
          "duration": 0.2400000000000091,
          "durationTicks": 48,
          "midi": 82,
          "name": "A#5",
          "ticks": 13392,
          "time": 66.96,
          "velocity": 0.7559055118110236
        },
        {
          "duration": 0.7199999999999989,
          "durationTicks": 144,
          "midi": 81,
          "name": "A5",
          "ticks": 13440,
          "time": 67.2,
          "velocity": 0.7559055118110236
        },
        {
          "duration": 0.23999999999999488,
          "durationTicks": 48,
          "midi": 77,
          "name": "F5",
          "ticks": 13584,
          "time": 67.92,
          "velocity": 0.7559055118110236
        },
        {
          "duration": 0.7199999999999989,
          "durationTicks": 144,
          "midi": 74,
          "name": "D5",
          "ticks": 13632,
          "time": 68.16,
          "velocity": 0.7559055118110236
        },
        {
          "duration": 0.12000000000000455,
          "durationTicks": 24,
          "midi": 74,
          "name": "D5",
          "ticks": 13776,
          "time": 68.88,
          "velocity": 0.7559055118110236
        },
        {
          "duration": 0.12000000000000455,
          "durationTicks": 24,
          "midi": 75,
          "name": "D#5",
          "ticks": 13800,
          "time": 69,
          "velocity": 0.7559055118110236
        },
        {
          "duration": 0.1599999999999966,
          "durationTicks": 32,
          "midi": 77,
          "name": "F5",
          "ticks": 13824,
          "time": 69.12,
          "velocity": 0.7559055118110236
        },
        {
          "duration": 0.1599999999999966,
          "durationTicks": 32,
          "midi": 77,
          "name": "F5",
          "ticks": 13872,
          "time": 69.36,
          "velocity": 0.7559055118110236
        },
        {
          "duration": 0.1600000000000108,
          "durationTicks": 32,
          "midi": 77,
          "name": "F5",
          "ticks": 13920,
          "time": 69.6,
          "velocity": 0.7559055118110236
        },
        {
          "duration": 0.1599999999999966,
          "durationTicks": 32,
          "midi": 77,
          "name": "F5",
          "ticks": 13968,
          "time": 69.84,
          "velocity": 0.7559055118110236
        },
        {
          "duration": 0.480000000000004,
          "durationTicks": 96,
          "midi": 77,
          "name": "F5",
          "ticks": 14016,
          "time": 70.08,
          "velocity": 0.7559055118110236
        },
        {
          "duration": 0.23999999999999488,
          "durationTicks": 48,
          "midi": 70,
          "name": "A#4",
          "ticks": 14112,
          "time": 70.56,
          "velocity": 0.7559055118110236
        },
        {
          "duration": 0.23999999999999488,
          "durationTicks": 48,
          "midi": 74,
          "name": "D5",
          "ticks": 14160,
          "time": 70.8,
          "velocity": 0.7559055118110236
        },
        {
          "duration": 0.1600000000000108,
          "durationTicks": 32,
          "midi": 72,
          "name": "C5",
          "ticks": 14208,
          "time": 71.03999999999999,
          "velocity": 0.7559055118110236
        },
        {
          "duration": 0.1599999999999966,
          "durationTicks": 32,
          "midi": 72,
          "name": "C5",
          "ticks": 14256,
          "time": 71.28,
          "velocity": 0.7559055118110236
        },
        {
          "duration": 0.1600000000000108,
          "durationTicks": 32,
          "midi": 72,
          "name": "C5",
          "ticks": 14304,
          "time": 71.52,
          "velocity": 0.7559055118110236
        },
        {
          "duration": 0.1600000000000108,
          "durationTicks": 32,
          "midi": 72,
          "name": "C5",
          "ticks": 14352,
          "time": 71.75999999999999,
          "velocity": 0.7559055118110236
        },
        {
          "duration": 0.480000000000004,
          "durationTicks": 96,
          "midi": 72,
          "name": "C5",
          "ticks": 14400,
          "time": 72,
          "velocity": 0.7559055118110236
        },
        {
          "duration": 0.23999999999999488,
          "durationTicks": 48,
          "midi": 74,
          "name": "D5",
          "ticks": 14496,
          "time": 72.48,
          "velocity": 0.7559055118110236
        },
        {
          "duration": 0.23999999999999488,
          "durationTicks": 48,
          "midi": 72,
          "name": "C5",
          "ticks": 14544,
          "time": 72.72,
          "velocity": 0.7559055118110236
        },
        {
          "duration": 0.1600000000000108,
          "durationTicks": 32,
          "midi": 74,
          "name": "D5",
          "ticks": 14592,
          "time": 72.96,
          "velocity": 0.7559055118110236
        },
        {
          "duration": 0.1599999999999966,
          "durationTicks": 32,
          "midi": 74,
          "name": "D5",
          "ticks": 14640,
          "time": 73.2,
          "velocity": 0.7559055118110236
        },
        {
          "duration": 0.1600000000000108,
          "durationTicks": 32,
          "midi": 74,
          "name": "D5",
          "ticks": 14688,
          "time": 73.44,
          "velocity": 0.7559055118110236
        },
        {
          "duration": 0.1600000000000108,
          "durationTicks": 32,
          "midi": 74,
          "name": "D5",
          "ticks": 14736,
          "time": 73.67999999999999,
          "velocity": 0.7559055118110236
        },
        {
          "duration": 0.47999999999998977,
          "durationTicks": 96,
          "midi": 74,
          "name": "D5",
          "ticks": 14784,
          "time": 73.92,
          "velocity": 0.7559055118110236
        },
        {
          "duration": 0.2400000000000091,
          "durationTicks": 48,
          "midi": 75,
          "name": "D#5",
          "ticks": 14880,
          "time": 74.39999999999999,
          "velocity": 0.7559055118110236
        },
        {
          "duration": 0.23999999999999488,
          "durationTicks": 48,
          "midi": 74,
          "name": "D5",
          "ticks": 14928,
          "time": 74.64,
          "velocity": 0.7559055118110236
        },
        {
          "duration": 0.7199999999999989,
          "durationTicks": 144,
          "midi": 72,
          "name": "C5",
          "ticks": 14976,
          "time": 74.88,
          "velocity": 0.7559055118110236
        },
        {
          "duration": 0.2400000000000091,
          "durationTicks": 48,
          "midi": 65,
          "name": "F4",
          "ticks": 15120,
          "time": 75.6,
          "velocity": 0.7559055118110236
        },
        {
          "duration": 0.2400000000000091,
          "durationTicks": 48,
          "midi": 62,
          "name": "D4",
          "ticks": 15120,
          "time": 75.6,
          "velocity": 0.7559055118110236
        },
        {
          "duration": 0.23999999999999488,
          "durationTicks": 48,
          "midi": 70,
          "name": "A#4",
          "ticks": 15168,
          "time": 75.84,
          "velocity": 0.7559055118110236
        },
        {
          "duration": 0.23999999999999488,
          "durationTicks": 48,
          "midi": 65,
          "name": "F4",
          "ticks": 15168,
          "time": 75.84,
          "velocity": 0.7559055118110236
        },
        {
          "duration": 0.23999999999999488,
          "durationTicks": 48,
          "midi": 72,
          "name": "C5",
          "ticks": 15216,
          "time": 76.08,
          "velocity": 0.7559055118110236
        },
        {
          "duration": 0.23999999999999488,
          "durationTicks": 48,
          "midi": 69,
          "name": "A4",
          "ticks": 15216,
          "time": 76.08,
          "velocity": 0.7559055118110236
        },
        {
          "duration": 0.2400000000000091,
          "durationTicks": 48,
          "midi": 74,
          "name": "D5",
          "ticks": 15264,
          "time": 76.32,
          "velocity": 0.7559055118110236
        },
        {
          "duration": 0.2400000000000091,
          "durationTicks": 48,
          "midi": 70,
          "name": "A#4",
          "ticks": 15264,
          "time": 76.32,
          "velocity": 0.7559055118110236
        },
        {
          "duration": 0.23999999999999488,
          "durationTicks": 48,
          "midi": 75,
          "name": "D#5",
          "ticks": 15312,
          "time": 76.56,
          "velocity": 0.7559055118110236
        },
        {
          "duration": 0.23999999999999488,
          "durationTicks": 48,
          "midi": 72,
          "name": "C5",
          "ticks": 15312,
          "time": 76.56,
          "velocity": 0.7559055118110236
        },
        {
          "duration": 0.1600000000000108,
          "durationTicks": 32,
          "midi": 77,
          "name": "F5",
          "ticks": 15360,
          "time": 76.8,
          "velocity": 0.7559055118110236
        },
        {
          "duration": 0.1600000000000108,
          "durationTicks": 32,
          "midi": 77,
          "name": "F5",
          "ticks": 15408,
          "time": 77.03999999999999,
          "velocity": 0.7559055118110236
        },
        {
          "duration": 0.1599999999999966,
          "durationTicks": 32,
          "midi": 77,
          "name": "F5",
          "ticks": 15456,
          "time": 77.28,
          "velocity": 0.7559055118110236
        },
        {
          "duration": 0.1600000000000108,
          "durationTicks": 32,
          "midi": 77,
          "name": "F5",
          "ticks": 15504,
          "time": 77.52,
          "velocity": 0.7559055118110236
        },
        {
          "duration": 0.480000000000004,
          "durationTicks": 96,
          "midi": 77,
          "name": "F5",
          "ticks": 15552,
          "time": 77.75999999999999,
          "velocity": 0.7559055118110236
        },
        {
          "duration": 0.2400000000000091,
          "durationTicks": 48,
          "midi": 70,
          "name": "A#4",
          "ticks": 15648,
          "time": 78.24,
          "velocity": 0.7559055118110236
        },
        {
          "duration": 0.23999999999999488,
          "durationTicks": 48,
          "midi": 74,
          "name": "D5",
          "ticks": 15696,
          "time": 78.48,
          "velocity": 0.7559055118110236
        },
        {
          "duration": 0.1599999999999966,
          "durationTicks": 32,
          "midi": 72,
          "name": "C5",
          "ticks": 15744,
          "time": 78.72,
          "velocity": 0.7559055118110236
        },
        {
          "duration": 0.1600000000000108,
          "durationTicks": 32,
          "midi": 72,
          "name": "C5",
          "ticks": 15792,
          "time": 78.96,
          "velocity": 0.7559055118110236
        },
        {
          "duration": 0.1599999999999966,
          "durationTicks": 32,
          "midi": 72,
          "name": "C5",
          "ticks": 15840,
          "time": 79.2,
          "velocity": 0.7559055118110236
        },
        {
          "duration": 0.1600000000000108,
          "durationTicks": 32,
          "midi": 72,
          "name": "C5",
          "ticks": 15888,
          "time": 79.44,
          "velocity": 0.7559055118110236
        },
        {
          "duration": 0.7199999999999989,
          "durationTicks": 144,
          "midi": 72,
          "name": "C5",
          "ticks": 15936,
          "time": 79.67999999999999,
          "velocity": 0.7559055118110236
        },
        {
          "duration": 0.12000000000000455,
          "durationTicks": 24,
          "midi": 74,
          "name": "D5",
          "ticks": 16080,
          "time": 80.39999999999999,
          "velocity": 0.7559055118110236
        },
        {
          "duration": 0.12000000000000455,
          "durationTicks": 24,
          "midi": 72,
          "name": "C5",
          "ticks": 16104,
          "time": 80.52,
          "velocity": 0.7559055118110236
        },
        {
          "duration": 0.1599999999999966,
          "durationTicks": 32,
          "midi": 70,
          "name": "A#4",
          "ticks": 16128,
          "time": 80.64,
          "velocity": 0.7559055118110236
        },
        {
          "duration": 0.1600000000000108,
          "durationTicks": 32,
          "midi": 70,
          "name": "A#4",
          "ticks": 16176,
          "time": 80.88,
          "velocity": 0.7559055118110236
        },
        {
          "duration": 0.1600000000000108,
          "durationTicks": 32,
          "midi": 70,
          "name": "A#4",
          "ticks": 16224,
          "time": 81.11999999999999,
          "velocity": 0.7559055118110236
        },
        {
          "duration": 0.1599999999999966,
          "durationTicks": 32,
          "midi": 70,
          "name": "A#4",
          "ticks": 16272,
          "time": 81.36,
          "velocity": 0.7559055118110236
        },
        {
          "duration": 0.480000000000004,
          "durationTicks": 96,
          "midi": 70,
          "name": "A#4",
          "ticks": 16320,
          "time": 81.6,
          "velocity": 0.7559055118110236
        },
        {
          "duration": 0.23999999999999488,
          "durationTicks": 48,
          "midi": 81,
          "name": "A5",
          "ticks": 16416,
          "time": 82.08,
          "velocity": 0.7559055118110236
        },
        {
          "duration": 0.2400000000000091,
          "durationTicks": 48,
          "midi": 82,
          "name": "A#5",
          "ticks": 16464,
          "time": 82.32,
          "velocity": 0.7559055118110236
        },
        {
          "duration": 0.7199999999999989,
          "durationTicks": 144,
          "midi": 81,
          "name": "A5",
          "ticks": 16512,
          "time": 82.56,
          "velocity": 0.7559055118110236
        },
        {
          "duration": 0.23999999999999488,
          "durationTicks": 48,
          "midi": 77,
          "name": "F5",
          "ticks": 16656,
          "time": 83.28,
          "velocity": 0.7559055118110236
        },
        {
          "duration": 0.7199999999999989,
          "durationTicks": 144,
          "midi": 74,
          "name": "D5",
          "ticks": 16704,
          "time": 83.52,
          "velocity": 0.7559055118110236
        },
        {
          "duration": 0.12000000000000455,
          "durationTicks": 24,
          "midi": 74,
          "name": "D5",
          "ticks": 16848,
          "time": 84.24,
          "velocity": 0.7559055118110236
        },
        {
          "duration": 0.11999999999999034,
          "durationTicks": 24,
          "midi": 75,
          "name": "D#5",
          "ticks": 16872,
          "time": 84.36,
          "velocity": 0.7559055118110236
        },
        {
          "duration": 0.1600000000000108,
          "durationTicks": 32,
          "midi": 77,
          "name": "F5",
          "ticks": 16896,
          "time": 84.47999999999999,
          "velocity": 0.7559055118110236
        },
        {
          "duration": 0.1599999999999966,
          "durationTicks": 32,
          "midi": 77,
          "name": "F5",
          "ticks": 16944,
          "time": 84.72,
          "velocity": 0.7559055118110236
        },
        {
          "duration": 0.1600000000000108,
          "durationTicks": 32,
          "midi": 77,
          "name": "F5",
          "ticks": 16992,
          "time": 84.96,
          "velocity": 0.7559055118110236
        },
        {
          "duration": 0.1599999999999966,
          "durationTicks": 32,
          "midi": 77,
          "name": "F5",
          "ticks": 17040,
          "time": 85.2,
          "velocity": 0.7559055118110236
        },
        {
          "duration": 0.480000000000004,
          "durationTicks": 96,
          "midi": 77,
          "name": "F5",
          "ticks": 17088,
          "time": 85.44,
          "velocity": 0.7559055118110236
        },
        {
          "duration": 0.23999999999999488,
          "durationTicks": 48,
          "midi": 70,
          "name": "A#4",
          "ticks": 17184,
          "time": 85.92,
          "velocity": 0.7559055118110236
        },
        {
          "duration": 0.23999999999999488,
          "durationTicks": 48,
          "midi": 74,
          "name": "D5",
          "ticks": 17232,
          "time": 86.16,
          "velocity": 0.7559055118110236
        },
        {
          "duration": 0.1600000000000108,
          "durationTicks": 32,
          "midi": 72,
          "name": "C5",
          "ticks": 17280,
          "time": 86.39999999999999,
          "velocity": 0.7559055118110236
        },
        {
          "duration": 0.1599999999999966,
          "durationTicks": 32,
          "midi": 72,
          "name": "C5",
          "ticks": 17328,
          "time": 86.64,
          "velocity": 0.7559055118110236
        },
        {
          "duration": 0.1600000000000108,
          "durationTicks": 32,
          "midi": 72,
          "name": "C5",
          "ticks": 17376,
          "time": 86.88,
          "velocity": 0.7559055118110236
        },
        {
          "duration": 0.1600000000000108,
          "durationTicks": 32,
          "midi": 72,
          "name": "C5",
          "ticks": 17424,
          "time": 87.11999999999999,
          "velocity": 0.7559055118110236
        },
        {
          "duration": 0.4200000000000017,
          "durationTicks": 84,
          "midi": 72,
          "name": "C5",
          "ticks": 17472,
          "time": 87.36,
          "velocity": 0.7559055118110236
        },
        {
          "duration": 0.060000000000002274,
          "durationTicks": 12,
          "midi": 73,
          "name": "C#5",
          "ticks": 17556,
          "time": 87.78,
          "velocity": 0.7559055118110236
        },
        {
          "duration": 0.23999999999999488,
          "durationTicks": 48,
          "midi": 74,
          "name": "D5",
          "ticks": 17568,
          "time": 87.84,
          "velocity": 0.7559055118110236
        },
        {
          "duration": 0.23999999999999488,
          "durationTicks": 48,
          "midi": 72,
          "name": "C5",
          "ticks": 17616,
          "time": 88.08,
          "velocity": 0.7559055118110236
        },
        {
          "duration": 0.7199999999999989,
          "durationTicks": 144,
          "midi": 70,
          "name": "A#4",
          "ticks": 17664,
          "time": 88.32,
          "velocity": 0.7559055118110236
        },
        {
          "duration": 0.2400000000000091,
          "durationTicks": 48,
          "midi": 65,
          "name": "F4",
          "ticks": 17808,
          "time": 89.03999999999999,
          "velocity": 0.7559055118110236
        },
        {
          "duration": 0.23999999999999488,
          "durationTicks": 48,
          "midi": 74,
          "name": "D5",
          "ticks": 17856,
          "time": 89.28,
          "velocity": 0.7559055118110236
        },
        {
          "duration": 0.23999999999999488,
          "durationTicks": 48,
          "midi": 75,
          "name": "D#5",
          "ticks": 17904,
          "time": 89.52,
          "velocity": 0.7559055118110236
        },
        {
          "duration": 0.35999999999999943,
          "durationTicks": 72,
          "midi": 72,
          "name": "C5",
          "ticks": 17952,
          "time": 89.75999999999999,
          "velocity": 0.7559055118110236
        },
        {
          "duration": 0.12000000000000455,
          "durationTicks": 24,
          "midi": 70,
          "name": "A#4",
          "ticks": 18024,
          "time": 90.11999999999999,
          "velocity": 0.7559055118110236
        },
        {
          "duration": 1.9200000000000017,
          "durationTicks": 384,
          "midi": 70,
          "name": "A#4",
          "ticks": 18048,
          "time": 90.24,
          "velocity": 0.7559055118110236
        }
      ]
    },
    {
      "channel": 0,
      "controlChanges": {
        "6": [
          {
            "number": 6,
            "ticks": 0,
            "time": 0,
            "value": 0.09448818897637795
          }
        ],
        "7": [
          {
            "number": 7,
            "ticks": 0,
            "time": 0,
            "value": 0.7874015748031497
          },
          {
            "number": 7,
            "ticks": 0,
            "time": 0,
            "value": 0.7874015748031497
          }
        ],
        "10": [
          {
            "number": 10,
            "ticks": 0,
            "time": 0,
            "value": 0.5039370078740157
          },
          {
            "number": 10,
            "ticks": 0,
            "time": 0,
            "value": 0.5039370078740157
          }
        ],
        "100": [
          {
            "number": 100,
            "ticks": 0,
            "time": 0,
            "value": 0
          }
        ],
        "101": [
          {
            "number": 101,
            "ticks": 0,
            "time": 0,
            "value": 0
          }
        ]
      },
      "pitchBends": [
        {
          "ticks": 0,
          "time": 0,
          "value": 0
        },
        {
          "ticks": 0,
          "time": 0,
          "value": 0
        }
      ],
      "instrument": {
        "family": "piano",
        "number": 0,
        "name": "acoustic grand piano"
      },
      "name": "Square Stab",
      "notes": [],
      "endOfTrackTicks": 32340
    },
    {
      "channel": 11,
      "controlChanges": {
        "6": [
          {
            "number": 6,
            "ticks": 0,
            "time": 0,
            "value": 0.09448818897637795
          },
          {
            "number": 6,
            "ticks": 32256,
            "time": 161.28,
            "value": 0.09448818897637795
          },
          {
            "number": 6,
            "ticks": 32340,
            "time": 161.7,
            "value": 0.09448818897637795
          },
          {
            "number": 6,
            "ticks": 32340,
            "time": 161.7,
            "value": 0.09448818897637795
          }
        ],
        "7": [
          {
            "number": 7,
            "ticks": 0,
            "time": 0,
            "value": 0.7874015748031497
          },
          {
            "number": 7,
            "ticks": 32256,
            "time": 161.28,
            "value": 0.7874015748031497
          },
          {
            "number": 7,
            "ticks": 32340,
            "time": 161.7,
            "value": 0.7874015748031497
          },
          {
            "number": 7,
            "ticks": 32340,
            "time": 161.7,
            "value": 0.7874015748031497
          }
        ],
        "10": [
          {
            "number": 10,
            "ticks": 0,
            "time": 0,
            "value": 0.5039370078740157
          },
          {
            "number": 10,
            "ticks": 32256,
            "time": 161.28,
            "value": 0.5039370078740157
          },
          {
            "number": 10,
            "ticks": 32340,
            "time": 161.7,
            "value": 0.5039370078740157
          },
          {
            "number": 10,
            "ticks": 32340,
            "time": 161.7,
            "value": 0.5039370078740157
          }
        ],
        "100": [
          {
            "number": 100,
            "ticks": 0,
            "time": 0,
            "value": 0
          },
          {
            "number": 100,
            "ticks": 32256,
            "time": 161.28,
            "value": 0
          },
          {
            "number": 100,
            "ticks": 32340,
            "time": 161.7,
            "value": 0
          },
          {
            "number": 100,
            "ticks": 32340,
            "time": 161.7,
            "value": 0
          }
        ],
        "101": [
          {
            "number": 101,
            "ticks": 0,
            "time": 0,
            "value": 0
          },
          {
            "number": 101,
            "ticks": 32256,
            "time": 161.28,
            "value": 0
          },
          {
            "number": 101,
            "ticks": 32340,
            "time": 161.7,
            "value": 0
          },
          {
            "number": 101,
            "ticks": 32340,
            "time": 161.7,
            "value": 0
          }
        ]
      },
      "pitchBends": [
        {
          "ticks": 0,
          "time": 0,
          "value": 0
        },
        {
          "ticks": 32256,
          "time": 161.28,
          "value": 0
        },
        {
          "ticks": 32340,
          "time": 161.7,
          "value": 0
        },
        {
          "ticks": 32340,
          "time": 161.7,
          "value": 0
        }
      ],
      "instrument": {
        "family": "synth lead",
        "number": 80,
        "name": "lead 1 (square)"
      },
      "name": "",
      "notes": [
        {
          "duration": 0.060000000000002274,
          "durationTicks": 12,
          "midi": 91,
          "name": "G6",
          "ticks": 15360,
          "time": 76.8,
          "velocity": 0.47244094488188976
        },
        {
          "duration": 0.060000000000002274,
          "durationTicks": 12,
          "midi": 98,
          "name": "D7",
          "ticks": 15384,
          "time": 76.92,
          "velocity": 0.47244094488188976
        },
        {
          "duration": 0.060000000000002274,
          "durationTicks": 12,
          "midi": 94,
          "name": "A#6",
          "ticks": 15408,
          "time": 77.03999999999999,
          "velocity": 0.47244094488188976
        },
        {
          "duration": 0.060000000000002274,
          "durationTicks": 12,
          "midi": 91,
          "name": "G6",
          "ticks": 15432,
          "time": 77.16,
          "velocity": 0.47244094488188976
        },
        {
          "duration": 0.060000000000002274,
          "durationTicks": 12,
          "midi": 98,
          "name": "D7",
          "ticks": 15456,
          "time": 77.28,
          "velocity": 0.47244094488188976
        },
        {
          "duration": 0.060000000000002274,
          "durationTicks": 12,
          "midi": 94,
          "name": "A#6",
          "ticks": 15480,
          "time": 77.39999999999999,
          "velocity": 0.47244094488188976
        },
        {
          "duration": 0.35999999999999943,
          "durationTicks": 72,
          "midi": 91,
          "name": "G6",
          "ticks": 15504,
          "time": 77.52,
          "velocity": 0.47244094488188976
        },
        {
          "duration": 0.060000000000002274,
          "durationTicks": 12,
          "midi": 98,
          "name": "D7",
          "ticks": 15576,
          "time": 77.88,
          "velocity": 0.47244094488188976
        },
        {
          "duration": 0.060000000000002274,
          "durationTicks": 12,
          "midi": 94,
          "name": "A#6",
          "ticks": 15600,
          "time": 78,
          "velocity": 0.47244094488188976
        },
        {
          "duration": 0.060000000000002274,
          "durationTicks": 12,
          "midi": 91,
          "name": "G6",
          "ticks": 15624,
          "time": 78.11999999999999,
          "velocity": 0.47244094488188976
        },
        {
          "duration": 0.060000000000002274,
          "durationTicks": 12,
          "midi": 98,
          "name": "D7",
          "ticks": 15648,
          "time": 78.24,
          "velocity": 0.47244094488188976
        },
        {
          "duration": 0.060000000000002274,
          "durationTicks": 12,
          "midi": 94,
          "name": "A#6",
          "ticks": 15672,
          "time": 78.36,
          "velocity": 0.47244094488188976
        },
        {
          "duration": 0.23999999999999488,
          "durationTicks": 48,
          "midi": 91,
          "name": "G6",
          "ticks": 15696,
          "time": 78.48,
          "velocity": 0.47244094488188976
        },
        {
          "duration": 0.060000000000002274,
          "durationTicks": 12,
          "midi": 91,
          "name": "G6",
          "ticks": 15744,
          "time": 78.72,
          "velocity": 0.47244094488188976
        },
        {
          "duration": 0.05999999999998806,
          "durationTicks": 12,
          "midi": 98,
          "name": "D7",
          "ticks": 15768,
          "time": 78.84,
          "velocity": 0.47244094488188976
        },
        {
          "duration": 0.060000000000002274,
          "durationTicks": 12,
          "midi": 94,
          "name": "A#6",
          "ticks": 15792,
          "time": 78.96,
          "velocity": 0.47244094488188976
        },
        {
          "duration": 0.060000000000002274,
          "durationTicks": 12,
          "midi": 91,
          "name": "G6",
          "ticks": 15816,
          "time": 79.08,
          "velocity": 0.47244094488188976
        },
        {
          "duration": 0.05999999999998806,
          "durationTicks": 12,
          "midi": 98,
          "name": "D7",
          "ticks": 15840,
          "time": 79.2,
          "velocity": 0.47244094488188976
        },
        {
          "duration": 0.060000000000002274,
          "durationTicks": 12,
          "midi": 94,
          "name": "A#6",
          "ticks": 15864,
          "time": 79.32,
          "velocity": 0.47244094488188976
        },
        {
          "duration": 0.35999999999999943,
          "durationTicks": 72,
          "midi": 89,
          "name": "F6",
          "ticks": 15888,
          "time": 79.44,
          "velocity": 0.47244094488188976
        },
        {
          "duration": 0.060000000000002274,
          "durationTicks": 12,
          "midi": 98,
          "name": "D7",
          "ticks": 15960,
          "time": 79.8,
          "velocity": 0.47244094488188976
        },
        {
          "duration": 0.060000000000002274,
          "durationTicks": 12,
          "midi": 94,
          "name": "A#6",
          "ticks": 15984,
          "time": 79.92,
          "velocity": 0.47244094488188976
        },
        {
          "duration": 0.060000000000002274,
          "durationTicks": 12,
          "midi": 91,
          "name": "G6",
          "ticks": 16008,
          "time": 80.03999999999999,
          "velocity": 0.47244094488188976
        },
        {
          "duration": 0.060000000000002274,
          "durationTicks": 12,
          "midi": 98,
          "name": "D7",
          "ticks": 16032,
          "time": 80.16,
          "velocity": 0.47244094488188976
        },
        {
          "duration": 0.060000000000002274,
          "durationTicks": 12,
          "midi": 94,
          "name": "A#6",
          "ticks": 16056,
          "time": 80.28,
          "velocity": 0.47244094488188976
        },
        {
          "duration": 0.2400000000000091,
          "durationTicks": 48,
          "midi": 89,
          "name": "F6",
          "ticks": 16080,
          "time": 80.39999999999999,
          "velocity": 0.4409448818897638
        },
        {
          "duration": 0.060000000000002274,
          "durationTicks": 12,
          "midi": 91,
          "name": "G6",
          "ticks": 16128,
          "time": 80.64,
          "velocity": 0.47244094488188976
        },
        {
          "duration": 0.060000000000002274,
          "durationTicks": 12,
          "midi": 98,
          "name": "D7",
          "ticks": 16152,
          "time": 80.75999999999999,
          "velocity": 0.47244094488188976
        },
        {
          "duration": 0.060000000000002274,
          "durationTicks": 12,
          "midi": 94,
          "name": "A#6",
          "ticks": 16176,
          "time": 80.88,
          "velocity": 0.47244094488188976
        },
        {
          "duration": 0.060000000000002274,
          "durationTicks": 12,
          "midi": 91,
          "name": "G6",
          "ticks": 16200,
          "time": 81,
          "velocity": 0.47244094488188976
        },
        {
          "duration": 0.060000000000002274,
          "durationTicks": 12,
          "midi": 98,
          "name": "D7",
          "ticks": 16224,
          "time": 81.11999999999999,
          "velocity": 0.47244094488188976
        },
        {
          "duration": 0.060000000000002274,
          "durationTicks": 12,
          "midi": 94,
          "name": "A#6",
          "ticks": 16248,
          "time": 81.24,
          "velocity": 0.47244094488188976
        },
        {
          "duration": 0.35999999999999943,
          "durationTicks": 72,
          "midi": 91,
          "name": "G6",
          "ticks": 16272,
          "time": 81.36,
          "velocity": 0.47244094488188976
        },
        {
          "duration": 0.060000000000002274,
          "durationTicks": 12,
          "midi": 98,
          "name": "D7",
          "ticks": 16344,
          "time": 81.72,
          "velocity": 0.47244094488188976
        },
        {
          "duration": 0.05999999999998806,
          "durationTicks": 12,
          "midi": 94,
          "name": "A#6",
          "ticks": 16368,
          "time": 81.84,
          "velocity": 0.47244094488188976
        },
        {
          "duration": 0.060000000000002274,
          "durationTicks": 12,
          "midi": 91,
          "name": "G6",
          "ticks": 16392,
          "time": 81.96,
          "velocity": 0.47244094488188976
        },
        {
          "duration": 0.060000000000002274,
          "durationTicks": 12,
          "midi": 98,
          "name": "D7",
          "ticks": 16416,
          "time": 82.08,
          "velocity": 0.47244094488188976
        },
        {
          "duration": 0.05999999999998806,
          "durationTicks": 12,
          "midi": 94,
          "name": "A#6",
          "ticks": 16440,
          "time": 82.2,
          "velocity": 0.47244094488188976
        },
        {
          "duration": 0.2400000000000091,
          "durationTicks": 48,
          "midi": 91,
          "name": "G6",
          "ticks": 16464,
          "time": 82.32,
          "velocity": 0.47244094488188976
        },
        {
          "duration": 0.060000000000002274,
          "durationTicks": 12,
          "midi": 96,
          "name": "C7",
          "ticks": 16584,
          "time": 82.92,
          "velocity": 0.47244094488188976
        },
        {
          "duration": 0.23999999999999488,
          "durationTicks": 48,
          "midi": 101,
          "name": "F7",
          "ticks": 16656,
          "time": 83.28,
          "velocity": 0.47244094488188976
        },
        {
          "duration": 0.9599999999999937,
          "durationTicks": 192,
          "midi": 98,
          "name": "D7",
          "ticks": 16704,
          "time": 83.52,
          "velocity": 0.47244094488188976
        },
        {
          "duration": 0.060000000000002274,
          "durationTicks": 12,
          "midi": 91,
          "name": "G6",
          "ticks": 16896,
          "time": 84.47999999999999,
          "velocity": 0.47244094488188976
        },
        {
          "duration": 0.060000000000002274,
          "durationTicks": 12,
          "midi": 98,
          "name": "D7",
          "ticks": 16920,
          "time": 84.6,
          "velocity": 0.47244094488188976
        },
        {
          "duration": 0.060000000000002274,
          "durationTicks": 12,
          "midi": 94,
          "name": "A#6",
          "ticks": 16944,
          "time": 84.72,
          "velocity": 0.47244094488188976
        },
        {
          "duration": 0.05999999999998806,
          "durationTicks": 12,
          "midi": 91,
          "name": "G6",
          "ticks": 16968,
          "time": 84.84,
          "velocity": 0.47244094488188976
        },
        {
          "duration": 0.060000000000002274,
          "durationTicks": 12,
          "midi": 98,
          "name": "D7",
          "ticks": 16992,
          "time": 84.96,
          "velocity": 0.47244094488188976
        },
        {
          "duration": 0.060000000000002274,
          "durationTicks": 12,
          "midi": 94,
          "name": "A#6",
          "ticks": 17016,
          "time": 85.08,
          "velocity": 0.47244094488188976
        },
        {
          "duration": 0.35999999999999943,
          "durationTicks": 72,
          "midi": 91,
          "name": "G6",
          "ticks": 17040,
          "time": 85.2,
          "velocity": 0.47244094488188976
        },
        {
          "duration": 0.05999999999998806,
          "durationTicks": 12,
          "midi": 98,
          "name": "D7",
          "ticks": 17112,
          "time": 85.56,
          "velocity": 0.47244094488188976
        },
        {
          "duration": 0.060000000000002274,
          "durationTicks": 12,
          "midi": 94,
          "name": "A#6",
          "ticks": 17136,
          "time": 85.67999999999999,
          "velocity": 0.47244094488188976
        },
        {
          "duration": 0.060000000000002274,
          "durationTicks": 12,
          "midi": 91,
          "name": "G6",
          "ticks": 17160,
          "time": 85.8,
          "velocity": 0.47244094488188976
        },
        {
          "duration": 0.05999999999998806,
          "durationTicks": 12,
          "midi": 98,
          "name": "D7",
          "ticks": 17184,
          "time": 85.92,
          "velocity": 0.47244094488188976
        },
        {
          "duration": 0.060000000000002274,
          "durationTicks": 12,
          "midi": 94,
          "name": "A#6",
          "ticks": 17208,
          "time": 86.03999999999999,
          "velocity": 0.47244094488188976
        },
        {
          "duration": 0.23999999999999488,
          "durationTicks": 48,
          "midi": 91,
          "name": "G6",
          "ticks": 17232,
          "time": 86.16,
          "velocity": 0.47244094488188976
        },
        {
          "duration": 0.060000000000002274,
          "durationTicks": 12,
          "midi": 91,
          "name": "G6",
          "ticks": 17280,
          "time": 86.39999999999999,
          "velocity": 0.47244094488188976
        },
        {
          "duration": 0.060000000000002274,
          "durationTicks": 12,
          "midi": 98,
          "name": "D7",
          "ticks": 17304,
          "time": 86.52,
          "velocity": 0.47244094488188976
        },
        {
          "duration": 0.060000000000002274,
          "durationTicks": 12,
          "midi": 94,
          "name": "A#6",
          "ticks": 17328,
          "time": 86.64,
          "velocity": 0.47244094488188976
        },
        {
          "duration": 0.060000000000002274,
          "durationTicks": 12,
          "midi": 91,
          "name": "G6",
          "ticks": 17352,
          "time": 86.75999999999999,
          "velocity": 0.47244094488188976
        },
        {
          "duration": 0.060000000000002274,
          "durationTicks": 12,
          "midi": 98,
          "name": "D7",
          "ticks": 17376,
          "time": 86.88,
          "velocity": 0.47244094488188976
        },
        {
          "duration": 0.060000000000002274,
          "durationTicks": 12,
          "midi": 94,
          "name": "A#6",
          "ticks": 17400,
          "time": 87,
          "velocity": 0.47244094488188976
        },
        {
          "duration": 0.35999999999999943,
          "durationTicks": 72,
          "midi": 89,
          "name": "F6",
          "ticks": 17424,
          "time": 87.11999999999999,
          "velocity": 0.47244094488188976
        },
        {
          "duration": 0.060000000000002274,
          "durationTicks": 12,
          "midi": 98,
          "name": "D7",
          "ticks": 17496,
          "time": 87.47999999999999,
          "velocity": 0.47244094488188976
        },
        {
          "duration": 0.060000000000002274,
          "durationTicks": 12,
          "midi": 94,
          "name": "A#6",
          "ticks": 17520,
          "time": 87.6,
          "velocity": 0.47244094488188976
        }
      ]
    },
    {
      "channel": 0,
      "controlChanges": {
        "6": [
          {
            "number": 6,
            "ticks": 0,
            "time": 0,
            "value": 0.09448818897637795
          }
        ],
        "7": [
          {
            "number": 7,
            "ticks": 0,
            "time": 0,
            "value": 0.7874015748031497
          },
          {
            "number": 7,
            "ticks": 0,
            "time": 0,
            "value": 0.7874015748031497
          }
        ],
        "10": [
          {
            "number": 10,
            "ticks": 0,
            "time": 0,
            "value": 0.5039370078740157
          },
          {
            "number": 10,
            "ticks": 0,
            "time": 0,
            "value": 0.5039370078740157
          }
        ],
        "100": [
          {
            "number": 100,
            "ticks": 0,
            "time": 0,
            "value": 0
          }
        ],
        "101": [
          {
            "number": 101,
            "ticks": 0,
            "time": 0,
            "value": 0
          }
        ]
      },
      "pitchBends": [
        {
          "ticks": 0,
          "time": 0,
          "value": 0
        },
        {
          "ticks": 0,
          "time": 0,
          "value": 0
        }
      ],
      "instrument": {
        "family": "piano",
        "number": 0,
        "name": "acoustic grand piano"
      },
      "name": "Horns maybe",
      "notes": [],
      "endOfTrackTicks": 32340
    },
    {
      "channel": 12,
      "controlChanges": {
        "6": [
          {
            "number": 6,
            "ticks": 0,
            "time": 0,
            "value": 0.09448818897637795
          },
          {
            "number": 6,
            "ticks": 32256,
            "time": 161.28,
            "value": 0.09448818897637795
          },
          {
            "number": 6,
            "ticks": 32340,
            "time": 161.7,
            "value": 0.09448818897637795
          },
          {
            "number": 6,
            "ticks": 32340,
            "time": 161.7,
            "value": 0.09448818897637795
          }
        ],
        "7": [
          {
            "number": 7,
            "ticks": 0,
            "time": 0,
            "value": 0.7874015748031497
          },
          {
            "number": 7,
            "ticks": 32256,
            "time": 161.28,
            "value": 0.7874015748031497
          },
          {
            "number": 7,
            "ticks": 32340,
            "time": 161.7,
            "value": 0.7874015748031497
          },
          {
            "number": 7,
            "ticks": 32340,
            "time": 161.7,
            "value": 0.7874015748031497
          }
        ],
        "10": [
          {
            "number": 10,
            "ticks": 0,
            "time": 0,
            "value": 0.5039370078740157
          },
          {
            "number": 10,
            "ticks": 32256,
            "time": 161.28,
            "value": 0.5039370078740157
          },
          {
            "number": 10,
            "ticks": 32340,
            "time": 161.7,
            "value": 0.5039370078740157
          },
          {
            "number": 10,
            "ticks": 32340,
            "time": 161.7,
            "value": 0.5039370078740157
          }
        ],
        "100": [
          {
            "number": 100,
            "ticks": 0,
            "time": 0,
            "value": 0
          },
          {
            "number": 100,
            "ticks": 32256,
            "time": 161.28,
            "value": 0
          },
          {
            "number": 100,
            "ticks": 32340,
            "time": 161.7,
            "value": 0
          },
          {
            "number": 100,
            "ticks": 32340,
            "time": 161.7,
            "value": 0
          }
        ],
        "101": [
          {
            "number": 101,
            "ticks": 0,
            "time": 0,
            "value": 0
          },
          {
            "number": 101,
            "ticks": 32256,
            "time": 161.28,
            "value": 0
          },
          {
            "number": 101,
            "ticks": 32340,
            "time": 161.7,
            "value": 0
          },
          {
            "number": 101,
            "ticks": 32340,
            "time": 161.7,
            "value": 0
          }
        ]
      },
      "pitchBends": [
        {
          "ticks": 0,
          "time": 0,
          "value": 0
        },
        {
          "ticks": 32256,
          "time": 161.28,
          "value": 0
        },
        {
          "ticks": 32340,
          "time": 161.7,
          "value": 0
        },
        {
          "ticks": 32340,
          "time": 161.7,
          "value": 0
        }
      ],
      "instrument": {
        "family": "reed",
        "number": 68,
        "name": "oboe"
      },
      "name": "",
      "notes": [
        {
          "duration": 0.23999999999999488,
          "durationTicks": 48,
          "midi": 58,
          "name": "A#3",
          "ticks": 17568,
          "time": 87.84,
          "velocity": 0.5669291338582677
        },
        {
          "duration": 0.23999999999999488,
          "durationTicks": 48,
          "midi": 55,
          "name": "G3",
          "ticks": 17568,
          "time": 87.84,
          "velocity": 0.5669291338582677
        },
        {
          "duration": 0.23999999999999488,
          "durationTicks": 48,
          "midi": 53,
          "name": "F3",
          "ticks": 17616,
          "time": 88.08,
          "velocity": 0.5669291338582677
        },
        {
          "duration": 0.23999999999999488,
          "durationTicks": 48,
          "midi": 62,
          "name": "D4",
          "ticks": 17616,
          "time": 88.08,
          "velocity": 0.5669291338582677
        },
        {
          "duration": 1.4399999999999977,
          "durationTicks": 288,
          "midi": 55,
          "name": "G3",
          "ticks": 17664,
          "time": 88.32,
          "velocity": 0.5669291338582677
        },
        {
          "duration": 1.4399999999999977,
          "durationTicks": 288,
          "midi": 58,
          "name": "A#3",
          "ticks": 17664,
          "time": 88.32,
          "velocity": 0.5669291338582677
        },
        {
          "duration": 0.35999999999999943,
          "durationTicks": 72,
          "midi": 60,
          "name": "C4",
          "ticks": 17952,
          "time": 89.75999999999999,
          "velocity": 0.5669291338582677
        },
        {
          "duration": 0.35999999999999943,
          "durationTicks": 72,
          "midi": 65,
          "name": "F4",
          "ticks": 17952,
          "time": 89.75999999999999,
          "velocity": 0.5669291338582677
        },
        {
          "duration": 0.12000000000000455,
          "durationTicks": 24,
          "midi": 58,
          "name": "A#3",
          "ticks": 18024,
          "time": 90.11999999999999,
          "velocity": 0.5669291338582677
        },
        {
          "duration": 0.12000000000000455,
          "durationTicks": 24,
          "midi": 63,
          "name": "D#4",
          "ticks": 18024,
          "time": 90.11999999999999,
          "velocity": 0.5669291338582677
        },
        {
          "duration": 1.4399999999999977,
          "durationTicks": 288,
          "midi": 55,
          "name": "G3",
          "ticks": 18048,
          "time": 90.24,
          "velocity": 0.5669291338582677
        },
        {
          "duration": 1.4399999999999977,
          "durationTicks": 288,
          "midi": 55,
          "name": "G3",
          "ticks": 18048,
          "time": 90.24,
          "velocity": 0.5669291338582677
        },
        {
          "duration": 1.4399999999999977,
          "durationTicks": 288,
          "midi": 62,
          "name": "D4",
          "ticks": 18048,
          "time": 90.24,
          "velocity": 0.5669291338582677
        }
      ]
    },
    {
      "channel": 0,
      "controlChanges": {
        "6": [
          {
            "number": 6,
            "ticks": 0,
            "time": 0,
            "value": 0.09448818897637795
          }
        ],
        "7": [
          {
            "number": 7,
            "ticks": 0,
            "time": 0,
            "value": 0.7874015748031497
          },
          {
            "number": 7,
            "ticks": 0,
            "time": 0,
            "value": 0.7874015748031497
          }
        ],
        "10": [
          {
            "number": 10,
            "ticks": 0,
            "time": 0,
            "value": 0.5039370078740157
          },
          {
            "number": 10,
            "ticks": 0,
            "time": 0,
            "value": 0.5039370078740157
          }
        ],
        "100": [
          {
            "number": 100,
            "ticks": 0,
            "time": 0,
            "value": 0
          }
        ],
        "101": [
          {
            "number": 101,
            "ticks": 0,
            "time": 0,
            "value": 0
          }
        ]
      },
      "pitchBends": [
        {
          "ticks": 0,
          "time": 0,
          "value": 0
        },
        {
          "ticks": 0,
          "time": 0,
          "value": 0
        }
      ],
      "instrument": {
        "family": "piano",
        "number": 0,
        "name": "acoustic grand piano"
      },
      "name": "Dry Piano",
      "notes": [],
      "endOfTrackTicks": 32340
    },
    {
      "channel": 13,
      "controlChanges": {
        "6": [
          {
            "number": 6,
            "ticks": 0,
            "time": 0,
            "value": 0.09448818897637795
          },
          {
            "number": 6,
            "ticks": 32256,
            "time": 161.28,
            "value": 0.09448818897637795
          },
          {
            "number": 6,
            "ticks": 32340,
            "time": 161.7,
            "value": 0.09448818897637795
          },
          {
            "number": 6,
            "ticks": 32340,
            "time": 161.7,
            "value": 0.09448818897637795
          }
        ],
        "7": [
          {
            "number": 7,
            "ticks": 0,
            "time": 0,
            "value": 0.7874015748031497
          },
          {
            "number": 7,
            "ticks": 32256,
            "time": 161.28,
            "value": 0.7874015748031497
          },
          {
            "number": 7,
            "ticks": 32340,
            "time": 161.7,
            "value": 0.7874015748031497
          },
          {
            "number": 7,
            "ticks": 32340,
            "time": 161.7,
            "value": 0.7874015748031497
          }
        ],
        "10": [
          {
            "number": 10,
            "ticks": 0,
            "time": 0,
            "value": 0.5039370078740157
          },
          {
            "number": 10,
            "ticks": 32256,
            "time": 161.28,
            "value": 0.5039370078740157
          },
          {
            "number": 10,
            "ticks": 32340,
            "time": 161.7,
            "value": 0.5039370078740157
          },
          {
            "number": 10,
            "ticks": 32340,
            "time": 161.7,
            "value": 0.5039370078740157
          }
        ],
        "100": [
          {
            "number": 100,
            "ticks": 0,
            "time": 0,
            "value": 0
          },
          {
            "number": 100,
            "ticks": 32256,
            "time": 161.28,
            "value": 0
          },
          {
            "number": 100,
            "ticks": 32340,
            "time": 161.7,
            "value": 0
          },
          {
            "number": 100,
            "ticks": 32340,
            "time": 161.7,
            "value": 0
          }
        ],
        "101": [
          {
            "number": 101,
            "ticks": 0,
            "time": 0,
            "value": 0
          },
          {
            "number": 101,
            "ticks": 32256,
            "time": 161.28,
            "value": 0
          },
          {
            "number": 101,
            "ticks": 32340,
            "time": 161.7,
            "value": 0
          },
          {
            "number": 101,
            "ticks": 32340,
            "time": 161.7,
            "value": 0
          }
        ]
      },
      "pitchBends": [
        {
          "ticks": 0,
          "time": 0,
          "value": 0
        },
        {
          "ticks": 32256,
          "time": 161.28,
          "value": 0
        },
        {
          "ticks": 32340,
          "time": 161.7,
          "value": 0
        },
        {
          "ticks": 32340,
          "time": 161.7,
          "value": 0
        }
      ],
      "instrument": {
        "family": "piano",
        "number": 6,
        "name": "harpsichord"
      },
      "name": "",
      "notes": [
        {
          "duration": 0.1599999999999966,
          "durationTicks": 32,
          "midi": 74,
          "name": "D5",
          "ticks": 19728,
          "time": 98.64,
          "velocity": 0.6929133858267716
        },
        {
          "duration": 0.1599999999999966,
          "durationTicks": 32,
          "midi": 81,
          "name": "A5",
          "ticks": 19728,
          "time": 98.64,
          "velocity": 0.6929133858267716
        },
        {
          "duration": 0.23999999999999488,
          "durationTicks": 48,
          "midi": 66,
          "name": "F#4",
          "ticks": 19776,
          "time": 98.88,
          "velocity": 0.6929133858267716
        },
        {
          "duration": 0.23999999999999488,
          "durationTicks": 48,
          "midi": 74,
          "name": "D5",
          "ticks": 19776,
          "time": 98.88,
          "velocity": 0.6929133858267716
        },
        {
          "duration": 0.060000000000002274,
          "durationTicks": 12,
          "midi": 72,
          "name": "C5",
          "ticks": 19824,
          "time": 99.11999999999999,
          "velocity": 0.6929133858267716
        },
        {
          "duration": 0.060000000000002274,
          "durationTicks": 12,
          "midi": 63,
          "name": "D#4",
          "ticks": 19824,
          "time": 99.11999999999999,
          "velocity": 0.6929133858267716
        },
        {
          "duration": 0.060000000000002274,
          "durationTicks": 12,
          "midi": 74,
          "name": "D5",
          "ticks": 19836,
          "time": 99.17999999999999,
          "velocity": 0.6929133858267716
        },
        {
          "duration": 0.060000000000002274,
          "durationTicks": 12,
          "midi": 65,
          "name": "F4",
          "ticks": 19836,
          "time": 99.17999999999999,
          "velocity": 0.6929133858267716
        },
        {
          "duration": 0.060000000000002274,
          "durationTicks": 12,
          "midi": 72,
          "name": "C5",
          "ticks": 19848,
          "time": 99.24,
          "velocity": 0.6929133858267716
        },
        {
          "duration": 0.060000000000002274,
          "durationTicks": 12,
          "midi": 63,
          "name": "D#4",
          "ticks": 19848,
          "time": 99.24,
          "velocity": 0.6929133858267716
        },
        {
          "duration": 0.23999999999999488,
          "durationTicks": 48,
          "midi": 62,
          "name": "D4",
          "ticks": 19872,
          "time": 99.36,
          "velocity": 0.6929133858267716
        },
        {
          "duration": 0.23999999999999488,
          "durationTicks": 48,
          "midi": 70,
          "name": "A#4",
          "ticks": 19872,
          "time": 99.36,
          "velocity": 0.6929133858267716
        },
        {
          "duration": 0.2400000000000091,
          "durationTicks": 48,
          "midi": 72,
          "name": "C5",
          "ticks": 19920,
          "time": 99.6,
          "velocity": 0.6929133858267716
        },
        {
          "duration": 0.2400000000000091,
          "durationTicks": 48,
          "midi": 63,
          "name": "D#4",
          "ticks": 19920,
          "time": 99.6,
          "velocity": 0.6929133858267716
        },
        {
          "duration": 0.04000000000000625,
          "durationTicks": 8,
          "midi": 84,
          "name": "C6",
          "ticks": 21216,
          "time": 106.08,
          "velocity": 0.6929133858267716
        },
        {
          "duration": 0.03999999999999204,
          "durationTicks": 8,
          "midi": 86,
          "name": "D6",
          "ticks": 21224,
          "time": 106.12,
          "velocity": 0.6929133858267716
        },
        {
          "duration": 0.04000000000000625,
          "durationTicks": 8,
          "midi": 84,
          "name": "C6",
          "ticks": 21232,
          "time": 106.16,
          "velocity": 0.6929133858267716
        },
        {
          "duration": 0.03999999999999204,
          "durationTicks": 8,
          "midi": 82,
          "name": "A#5",
          "ticks": 21312,
          "time": 106.56,
          "velocity": 0.6929133858267716
        },
        {
          "duration": 0.03999999999999204,
          "durationTicks": 8,
          "midi": 84,
          "name": "C6",
          "ticks": 21320,
          "time": 106.6,
          "velocity": 0.6929133858267716
        },
        {
          "duration": 0.04000000000000625,
          "durationTicks": 8,
          "midi": 82,
          "name": "A#5",
          "ticks": 21328,
          "time": 106.63999999999999,
          "velocity": 0.6929133858267716
        },
        {
          "duration": 0.04000000000000625,
          "durationTicks": 8,
          "midi": 81,
          "name": "A5",
          "ticks": 21408,
          "time": 107.03999999999999,
          "velocity": 0.6929133858267716
        },
        {
          "duration": 0.03999999999999204,
          "durationTicks": 8,
          "midi": 82,
          "name": "A#5",
          "ticks": 21416,
          "time": 107.08,
          "velocity": 0.6929133858267716
        },
        {
          "duration": 0.04000000000000625,
          "durationTicks": 8,
          "midi": 81,
          "name": "A5",
          "ticks": 21424,
          "time": 107.11999999999999,
          "velocity": 0.6929133858267716
        },
        {
          "duration": 0.060000000000002274,
          "durationTicks": 12,
          "midi": 84,
          "name": "C6",
          "ticks": 21600,
          "time": 108,
          "velocity": 0.6929133858267716
        },
        {
          "duration": 0.060000000000002274,
          "durationTicks": 12,
          "midi": 82,
          "name": "A#5",
          "ticks": 21624,
          "time": 108.11999999999999,
          "velocity": 0.47244094488188976
        },
        {
          "duration": 0.060000000000002274,
          "durationTicks": 12,
          "midi": 82,
          "name": "A#5",
          "ticks": 21696,
          "time": 108.47999999999999,
          "velocity": 0.6929133858267716
        },
        {
          "duration": 0.060000000000002274,
          "durationTicks": 12,
          "midi": 82,
          "name": "A#5",
          "ticks": 21720,
          "time": 108.6,
          "velocity": 0.47244094488188976
        },
        {
          "duration": 0.060000000000002274,
          "durationTicks": 12,
          "midi": 82,
          "name": "A#5",
          "ticks": 21792,
          "time": 108.96,
          "velocity": 0.6929133858267716
        },
        {
          "duration": 0.060000000000002274,
          "durationTicks": 12,
          "midi": 82,
          "name": "A#5",
          "ticks": 21816,
          "time": 109.08,
          "velocity": 0.47244094488188976
        },
        {
          "duration": 0.060000000000002274,
          "durationTicks": 12,
          "midi": 84,
          "name": "C6",
          "ticks": 21888,
          "time": 109.44,
          "velocity": 0.6929133858267716
        },
        {
          "duration": 0.05999999999998806,
          "durationTicks": 12,
          "midi": 82,
          "name": "A#5",
          "ticks": 21912,
          "time": 109.56,
          "velocity": 0.47244094488188976
        },
        {
          "duration": 0.060000000000002274,
          "durationTicks": 12,
          "midi": 84,
          "name": "C6",
          "ticks": 22008,
          "time": 110.03999999999999,
          "velocity": 0.6929133858267716
        },
        {
          "duration": 0.04000000000000625,
          "durationTicks": 8,
          "midi": 84,
          "name": "C6",
          "ticks": 22056,
          "time": 110.28,
          "velocity": 0.6929133858267716
        },
        {
          "duration": 0.03999999999997783,
          "durationTicks": 8,
          "midi": 82,
          "name": "A#5",
          "ticks": 22064,
          "time": 110.32000000000001,
          "velocity": 0.6929133858267716
        },
        {
          "duration": 0.04000000000000625,
          "durationTicks": 8,
          "midi": 79,
          "name": "G5",
          "ticks": 22072,
          "time": 110.35999999999999,
          "velocity": 0.6929133858267716
        },
        {
          "duration": 0.060000000000002274,
          "durationTicks": 12,
          "midi": 77,
          "name": "F5",
          "ticks": 22080,
          "time": 110.39999999999999,
          "velocity": 0.6929133858267716
        },
        {
          "duration": 0.060000000000002274,
          "durationTicks": 12,
          "midi": 77,
          "name": "F5",
          "ticks": 22128,
          "time": 110.64,
          "velocity": 0.5039370078740157
        },
        {
          "duration": 0.04000000000000625,
          "durationTicks": 8,
          "midi": 84,
          "name": "C6",
          "ticks": 24288,
          "time": 121.44,
          "velocity": 0.6614173228346457
        },
        {
          "duration": 0.03999999999999204,
          "durationTicks": 8,
          "midi": 86,
          "name": "D6",
          "ticks": 24296,
          "time": 121.48,
          "velocity": 0.6614173228346457
        },
        {
          "duration": 0.04000000000000625,
          "durationTicks": 8,
          "midi": 84,
          "name": "C6",
          "ticks": 24304,
          "time": 121.52,
          "velocity": 0.6614173228346457
        },
        {
          "duration": 0.03999999999999204,
          "durationTicks": 8,
          "midi": 82,
          "name": "A#5",
          "ticks": 24384,
          "time": 121.92,
          "velocity": 0.6614173228346457
        },
        {
          "duration": 0.03999999999999204,
          "durationTicks": 8,
          "midi": 84,
          "name": "C6",
          "ticks": 24392,
          "time": 121.96,
          "velocity": 0.6614173228346457
        },
        {
          "duration": 0.04000000000000625,
          "durationTicks": 8,
          "midi": 82,
          "name": "A#5",
          "ticks": 24400,
          "time": 121.99999999999999,
          "velocity": 0.6614173228346457
        },
        {
          "duration": 0.04000000000000625,
          "durationTicks": 8,
          "midi": 81,
          "name": "A5",
          "ticks": 24480,
          "time": 122.39999999999999,
          "velocity": 0.6614173228346457
        },
        {
          "duration": 0.03999999999999204,
          "durationTicks": 8,
          "midi": 82,
          "name": "A#5",
          "ticks": 24488,
          "time": 122.44,
          "velocity": 0.6614173228346457
        },
        {
          "duration": 0.04000000000000625,
          "durationTicks": 8,
          "midi": 81,
          "name": "A5",
          "ticks": 24496,
          "time": 122.47999999999999,
          "velocity": 0.6614173228346457
        },
        {
          "duration": 0.060000000000002274,
          "durationTicks": 12,
          "midi": 84,
          "name": "C6",
          "ticks": 24672,
          "time": 123.36,
          "velocity": 0.6614173228346457
        },
        {
          "duration": 0.060000000000002274,
          "durationTicks": 12,
          "midi": 82,
          "name": "A#5",
          "ticks": 24696,
          "time": 123.47999999999999,
          "velocity": 0.4409448818897638
        },
        {
          "duration": 0.060000000000002274,
          "durationTicks": 12,
          "midi": 82,
          "name": "A#5",
          "ticks": 24768,
          "time": 123.83999999999999,
          "velocity": 0.6614173228346457
        },
        {
          "duration": 0.060000000000002274,
          "durationTicks": 12,
          "midi": 82,
          "name": "A#5",
          "ticks": 24792,
          "time": 123.96,
          "velocity": 0.4409448818897638
        },
        {
          "duration": 0.060000000000002274,
          "durationTicks": 12,
          "midi": 82,
          "name": "A#5",
          "ticks": 24864,
          "time": 124.32,
          "velocity": 0.6614173228346457
        },
        {
          "duration": 0.060000000000002274,
          "durationTicks": 12,
          "midi": 82,
          "name": "A#5",
          "ticks": 24888,
          "time": 124.44,
          "velocity": 0.4409448818897638
        },
        {
          "duration": 0.060000000000002274,
          "durationTicks": 12,
          "midi": 84,
          "name": "C6",
          "ticks": 24960,
          "time": 124.8,
          "velocity": 0.6614173228346457
        },
        {
          "duration": 0.05999999999998806,
          "durationTicks": 12,
          "midi": 82,
          "name": "A#5",
          "ticks": 24984,
          "time": 124.92,
          "velocity": 0.4409448818897638
        },
        {
          "duration": 0.060000000000002274,
          "durationTicks": 12,
          "midi": 84,
          "name": "C6",
          "ticks": 25080,
          "time": 125.39999999999999,
          "velocity": 0.6614173228346457
        },
        {
          "duration": 0.03999999999999204,
          "durationTicks": 8,
          "midi": 84,
          "name": "C6",
          "ticks": 25128,
          "time": 125.64,
          "velocity": 0.6614173228346457
        },
        {
          "duration": 0.04000000000000625,
          "durationTicks": 8,
          "midi": 82,
          "name": "A#5",
          "ticks": 25136,
          "time": 125.67999999999999,
          "velocity": 0.6614173228346457
        },
        {
          "duration": 0.03999999999999204,
          "durationTicks": 8,
          "midi": 79,
          "name": "G5",
          "ticks": 25144,
          "time": 125.72,
          "velocity": 0.6614173228346457
        },
        {
          "duration": 0.060000000000002274,
          "durationTicks": 12,
          "midi": 77,
          "name": "F5",
          "ticks": 25152,
          "time": 125.75999999999999,
          "velocity": 0.6614173228346457
        },
        {
          "duration": 0.060000000000002274,
          "durationTicks": 12,
          "midi": 77,
          "name": "F5",
          "ticks": 25200,
          "time": 126,
          "velocity": 0.47244094488188976
        }
      ]
    },
    {
      "channel": 0,
      "controlChanges": {
        "6": [
          {
            "number": 6,
            "ticks": 0,
            "time": 0,
            "value": 0.09448818897637795
          }
        ],
        "7": [
          {
            "number": 7,
            "ticks": 0,
            "time": 0,
            "value": 0.7874015748031497
          },
          {
            "number": 7,
            "ticks": 0,
            "time": 0,
            "value": 0.7874015748031497
          }
        ],
        "10": [
          {
            "number": 10,
            "ticks": 0,
            "time": 0,
            "value": 0.5039370078740157
          },
          {
            "number": 10,
            "ticks": 0,
            "time": 0,
            "value": 0.5039370078740157
          }
        ],
        "100": [
          {
            "number": 100,
            "ticks": 0,
            "time": 0,
            "value": 0
          }
        ],
        "101": [
          {
            "number": 101,
            "ticks": 0,
            "time": 0,
            "value": 0
          }
        ]
      },
      "pitchBends": [
        {
          "ticks": 0,
          "time": 0,
          "value": 0
        },
        {
          "ticks": 0,
          "time": 0,
          "value": 0
        }
      ],
      "instrument": {
        "family": "piano",
        "number": 0,
        "name": "acoustic grand piano"
      },
      "name": "Sax Lead",
      "notes": [],
      "endOfTrackTicks": 32340
    },
    {
      "channel": 14,
      "controlChanges": {
        "6": [
          {
            "number": 6,
            "ticks": 0,
            "time": 0,
            "value": 0.09448818897637795
          },
          {
            "number": 6,
            "ticks": 32256,
            "time": 161.28,
            "value": 0.09448818897637795
          },
          {
            "number": 6,
            "ticks": 32340,
            "time": 161.7,
            "value": 0.09448818897637795
          },
          {
            "number": 6,
            "ticks": 32340,
            "time": 161.7,
            "value": 0.09448818897637795
          }
        ],
        "7": [
          {
            "number": 7,
            "ticks": 0,
            "time": 0,
            "value": 0.7874015748031497
          },
          {
            "number": 7,
            "ticks": 32256,
            "time": 161.28,
            "value": 0.7874015748031497
          },
          {
            "number": 7,
            "ticks": 32340,
            "time": 161.7,
            "value": 0.7874015748031497
          },
          {
            "number": 7,
            "ticks": 32340,
            "time": 161.7,
            "value": 0.7874015748031497
          }
        ],
        "10": [
          {
            "number": 10,
            "ticks": 0,
            "time": 0,
            "value": 0.5039370078740157
          },
          {
            "number": 10,
            "ticks": 32256,
            "time": 161.28,
            "value": 0.5039370078740157
          },
          {
            "number": 10,
            "ticks": 32340,
            "time": 161.7,
            "value": 0.5039370078740157
          },
          {
            "number": 10,
            "ticks": 32340,
            "time": 161.7,
            "value": 0.5039370078740157
          }
        ],
        "100": [
          {
            "number": 100,
            "ticks": 0,
            "time": 0,
            "value": 0
          },
          {
            "number": 100,
            "ticks": 32256,
            "time": 161.28,
            "value": 0
          },
          {
            "number": 100,
            "ticks": 32340,
            "time": 161.7,
            "value": 0
          },
          {
            "number": 100,
            "ticks": 32340,
            "time": 161.7,
            "value": 0
          }
        ],
        "101": [
          {
            "number": 101,
            "ticks": 0,
            "time": 0,
            "value": 0
          },
          {
            "number": 101,
            "ticks": 32256,
            "time": 161.28,
            "value": 0
          },
          {
            "number": 101,
            "ticks": 32340,
            "time": 161.7,
            "value": 0
          },
          {
            "number": 101,
            "ticks": 32340,
            "time": 161.7,
            "value": 0
          }
        ]
      },
      "pitchBends": [
        {
          "ticks": 0,
          "time": 0,
          "value": 0
        },
        {
          "ticks": 32256,
          "time": 161.28,
          "value": 0
        },
        {
          "ticks": 32340,
          "time": 161.7,
          "value": 0
        },
        {
          "ticks": 32340,
          "time": 161.7,
          "value": 0
        }
      ],
      "instrument": {
        "family": "reed",
        "number": 65,
        "name": "alto sax"
      },
      "name": "",
      "notes": [
        {
          "duration": 1.1999999999999886,
          "durationTicks": 240,
          "midi": 58,
          "name": "A#3",
          "ticks": 19968,
          "time": 99.84,
          "velocity": 1
        },
        {
          "duration": 0.2400000000000091,
          "durationTicks": 48,
          "midi": 62,
          "name": "D4",
          "ticks": 20208,
          "time": 101.03999999999999,
          "velocity": 1
        },
        {
          "duration": 0.23999999999999488,
          "durationTicks": 48,
          "midi": 55,
          "name": "G3",
          "ticks": 20256,
          "time": 101.28,
          "velocity": 1
        },
        {
          "duration": 0.5999999999999943,
          "durationTicks": 120,
          "midi": 60,
          "name": "C4",
          "ticks": 20304,
          "time": 101.52,
          "velocity": 1
        },
        {
          "duration": 0.060000000000002274,
          "durationTicks": 12,
          "midi": 58,
          "name": "A#3",
          "ticks": 20424,
          "time": 102.11999999999999,
          "velocity": 1
        },
        {
          "duration": 0.060000000000002274,
          "durationTicks": 12,
          "midi": 60,
          "name": "C4",
          "ticks": 20436,
          "time": 102.17999999999999,
          "velocity": 1
        },
        {
          "duration": 0.480000000000004,
          "durationTicks": 96,
          "midi": 58,
          "name": "A#3",
          "ticks": 20448,
          "time": 102.24,
          "velocity": 1
        },
        {
          "duration": 0.480000000000004,
          "durationTicks": 96,
          "midi": 58,
          "name": "A#3",
          "ticks": 20544,
          "time": 102.72,
          "velocity": 1
        },
        {
          "duration": 0.47999999999998977,
          "durationTicks": 96,
          "midi": 57,
          "name": "A3",
          "ticks": 20640,
          "time": 103.2,
          "velocity": 1
        },
        {
          "duration": 0.35999999999999943,
          "durationTicks": 72,
          "midi": 57,
          "name": "A3",
          "ticks": 20736,
          "time": 103.67999999999999,
          "velocity": 1
        },
        {
          "duration": 0.35999999999999943,
          "durationTicks": 72,
          "midi": 58,
          "name": "A#3",
          "ticks": 20808,
          "time": 104.03999999999999,
          "velocity": 1
        },
        {
          "duration": 0.7199999999999989,
          "durationTicks": 144,
          "midi": 65,
          "name": "F4",
          "ticks": 20880,
          "time": 104.39999999999999,
          "velocity": 1
        },
        {
          "duration": 0.2400000000000091,
          "durationTicks": 48,
          "midi": 67,
          "name": "G4",
          "ticks": 21024,
          "time": 105.11999999999999,
          "velocity": 1
        },
        {
          "duration": 0.7199999999999989,
          "durationTicks": 144,
          "midi": 62,
          "name": "D4",
          "ticks": 21072,
          "time": 105.36,
          "velocity": 1
        },
        {
          "duration": 0.14999999999999147,
          "durationTicks": 30,
          "midi": 70,
          "name": "A#4",
          "ticks": 21216,
          "time": 106.08,
          "velocity": 1
        },
        {
          "duration": 0.15000000000000568,
          "durationTicks": 30,
          "midi": 62,
          "name": "D4",
          "ticks": 21264,
          "time": 106.32,
          "velocity": 1
        },
        {
          "duration": 0.14999999999999147,
          "durationTicks": 30,
          "midi": 69,
          "name": "A4",
          "ticks": 21312,
          "time": 106.56,
          "velocity": 1
        },
        {
          "duration": 0.15000000000000568,
          "durationTicks": 30,
          "midi": 60,
          "name": "C4",
          "ticks": 21360,
          "time": 106.8,
          "velocity": 1
        },
        {
          "duration": 0.15000000000000568,
          "durationTicks": 30,
          "midi": 65,
          "name": "F4",
          "ticks": 21408,
          "time": 107.03999999999999,
          "velocity": 1
        },
        {
          "duration": 0.14999999999999147,
          "durationTicks": 30,
          "midi": 60,
          "name": "C4",
          "ticks": 21456,
          "time": 107.28,
          "velocity": 1
        },
        {
          "duration": 0.9599999999999937,
          "durationTicks": 192,
          "midi": 55,
          "name": "G3",
          "ticks": 21504,
          "time": 107.52,
          "velocity": 0.6929133858267716
        },
        {
          "duration": 0.35999999999999943,
          "durationTicks": 72,
          "midi": 58,
          "name": "A#3",
          "ticks": 21504,
          "time": 107.52,
          "velocity": 1
        },
        {
          "duration": 0.35999999999999943,
          "durationTicks": 72,
          "midi": 60,
          "name": "C4",
          "ticks": 21576,
          "time": 107.88,
          "velocity": 1
        },
        {
          "duration": 0.23999999999999488,
          "durationTicks": 48,
          "midi": 62,
          "name": "D4",
          "ticks": 21648,
          "time": 108.24,
          "velocity": 1
        },
        {
          "duration": 0.960000000000008,
          "durationTicks": 192,
          "midi": 51,
          "name": "D#3",
          "ticks": 21696,
          "time": 108.47999999999999,
          "velocity": 0.6929133858267716
        },
        {
          "duration": 0.35999999999999943,
          "durationTicks": 72,
          "midi": 67,
          "name": "G4",
          "ticks": 21696,
          "time": 108.47999999999999,
          "velocity": 1
        },
        {
          "duration": 0.36000000000001364,
          "durationTicks": 72,
          "midi": 70,
          "name": "A#4",
          "ticks": 21768,
          "time": 108.83999999999999,
          "velocity": 1
        },
        {
          "duration": 0.23999999999999488,
          "durationTicks": 48,
          "midi": 69,
          "name": "A4",
          "ticks": 21840,
          "time": 109.2,
          "velocity": 1
        },
        {
          "duration": 0.8400000000000034,
          "durationTicks": 168,
          "midi": 65,
          "name": "F4",
          "ticks": 21888,
          "time": 109.44,
          "velocity": 1
        },
        {
          "duration": 0.05999999999998806,
          "durationTicks": 12,
          "midi": 62,
          "name": "D4",
          "ticks": 22056,
          "time": 110.28,
          "velocity": 1
        },
        {
          "duration": 0.060000000000002274,
          "durationTicks": 12,
          "midi": 65,
          "name": "F4",
          "ticks": 22068,
          "time": 110.33999999999999,
          "velocity": 1
        },
        {
          "duration": 0.480000000000004,
          "durationTicks": 96,
          "midi": 50,
          "name": "D3",
          "ticks": 22080,
          "time": 110.39999999999999,
          "velocity": 0.6929133858267716
        },
        {
          "duration": 0.480000000000004,
          "durationTicks": 96,
          "midi": 62,
          "name": "D4",
          "ticks": 22080,
          "time": 110.39999999999999,
          "velocity": 1
        },
        {
          "duration": 0.23999999999999488,
          "durationTicks": 48,
          "midi": 51,
          "name": "D#3",
          "ticks": 22176,
          "time": 110.88,
          "velocity": 0.6929133858267716
        },
        {
          "duration": 0.480000000000004,
          "durationTicks": 96,
          "midi": 58,
          "name": "A#3",
          "ticks": 22176,
          "time": 110.88,
          "velocity": 1
        },
        {
          "duration": 0.2400000000000091,
          "durationTicks": 48,
          "midi": 53,
          "name": "F3",
          "ticks": 22224,
          "time": 111.11999999999999,
          "velocity": 0.6929133858267716
        },
        {
          "duration": 0.35999999999999943,
          "durationTicks": 72,
          "midi": 60,
          "name": "C4",
          "ticks": 22272,
          "time": 111.36,
          "velocity": 1
        },
        {
          "duration": 0.11999999999999034,
          "durationTicks": 24,
          "midi": 51,
          "name": "D#3",
          "ticks": 22272,
          "time": 111.36,
          "velocity": 0.6929133858267716
        },
        {
          "duration": 0.14999999999999147,
          "durationTicks": 30,
          "midi": 62,
          "name": "D4",
          "ticks": 22344,
          "time": 111.72,
          "velocity": 1
        },
        {
          "duration": 0.7199999999999989,
          "durationTicks": 144,
          "midi": 62,
          "name": "D4",
          "ticks": 22416,
          "time": 112.08,
          "velocity": 1
        },
        {
          "duration": 0.23999999999999488,
          "durationTicks": 48,
          "midi": 55,
          "name": "G3",
          "ticks": 22560,
          "time": 112.8,
          "velocity": 1
        },
        {
          "duration": 0.7199999999999989,
          "durationTicks": 144,
          "midi": 60,
          "name": "C4",
          "ticks": 22608,
          "time": 113.03999999999999,
          "velocity": 1
        },
        {
          "duration": 0.480000000000004,
          "durationTicks": 96,
          "midi": 58,
          "name": "A#3",
          "ticks": 22848,
          "time": 114.24,
          "velocity": 1
        },
        {
          "duration": 0.47999999999998977,
          "durationTicks": 96,
          "midi": 57,
          "name": "A3",
          "ticks": 22944,
          "time": 114.72,
          "velocity": 1
        },
        {
          "duration": 1.2000000000000028,
          "durationTicks": 240,
          "midi": 58,
          "name": "A#3",
          "ticks": 23040,
          "time": 115.19999999999999,
          "velocity": 1
        },
        {
          "duration": 0.2400000000000091,
          "durationTicks": 48,
          "midi": 62,
          "name": "D4",
          "ticks": 23280,
          "time": 116.39999999999999,
          "velocity": 1
        },
        {
          "duration": 0.23999999999999488,
          "durationTicks": 48,
          "midi": 55,
          "name": "G3",
          "ticks": 23328,
          "time": 116.64,
          "velocity": 1
        },
        {
          "duration": 0.5999999999999943,
          "durationTicks": 120,
          "midi": 60,
          "name": "C4",
          "ticks": 23376,
          "time": 116.88,
          "velocity": 1
        },
        {
          "duration": 0.060000000000002274,
          "durationTicks": 12,
          "midi": 58,
          "name": "A#3",
          "ticks": 23496,
          "time": 117.47999999999999,
          "velocity": 1
        },
        {
          "duration": 0.060000000000002274,
          "durationTicks": 12,
          "midi": 60,
          "name": "C4",
          "ticks": 23508,
          "time": 117.53999999999999,
          "velocity": 1
        },
        {
          "duration": 0.480000000000004,
          "durationTicks": 96,
          "midi": 58,
          "name": "A#3",
          "ticks": 23520,
          "time": 117.6,
          "velocity": 1
        },
        {
          "duration": 0.480000000000004,
          "durationTicks": 96,
          "midi": 58,
          "name": "A#3",
          "ticks": 23616,
          "time": 118.08,
          "velocity": 1
        },
        {
          "duration": 0.47999999999998977,
          "durationTicks": 96,
          "midi": 57,
          "name": "A3",
          "ticks": 23712,
          "time": 118.56,
          "velocity": 1
        },
        {
          "duration": 0.35999999999999943,
          "durationTicks": 72,
          "midi": 57,
          "name": "A3",
          "ticks": 23808,
          "time": 119.03999999999999,
          "velocity": 1
        },
        {
          "duration": 0.35999999999999943,
          "durationTicks": 72,
          "midi": 58,
          "name": "A#3",
          "ticks": 23880,
          "time": 119.39999999999999,
          "velocity": 1
        },
        {
          "duration": 0.7199999999999989,
          "durationTicks": 144,
          "midi": 65,
          "name": "F4",
          "ticks": 23952,
          "time": 119.75999999999999,
          "velocity": 1
        },
        {
          "duration": 0.2400000000000091,
          "durationTicks": 48,
          "midi": 67,
          "name": "G4",
          "ticks": 24096,
          "time": 120.47999999999999,
          "velocity": 1
        },
        {
          "duration": 0.7199999999999989,
          "durationTicks": 144,
          "midi": 62,
          "name": "D4",
          "ticks": 24144,
          "time": 120.72,
          "velocity": 1
        },
        {
          "duration": 0.14999999999999147,
          "durationTicks": 30,
          "midi": 70,
          "name": "A#4",
          "ticks": 24288,
          "time": 121.44,
          "velocity": 1
        },
        {
          "duration": 0.15000000000000568,
          "durationTicks": 30,
          "midi": 62,
          "name": "D4",
          "ticks": 24336,
          "time": 121.67999999999999,
          "velocity": 1
        },
        {
          "duration": 0.14999999999999147,
          "durationTicks": 30,
          "midi": 69,
          "name": "A4",
          "ticks": 24384,
          "time": 121.92,
          "velocity": 1
        },
        {
          "duration": 0.15000000000000568,
          "durationTicks": 30,
          "midi": 60,
          "name": "C4",
          "ticks": 24432,
          "time": 122.16,
          "velocity": 1
        },
        {
          "duration": 0.15000000000000568,
          "durationTicks": 30,
          "midi": 65,
          "name": "F4",
          "ticks": 24480,
          "time": 122.39999999999999,
          "velocity": 1
        },
        {
          "duration": 0.14999999999999147,
          "durationTicks": 30,
          "midi": 60,
          "name": "C4",
          "ticks": 24528,
          "time": 122.64,
          "velocity": 1
        },
        {
          "duration": 0.9599999999999937,
          "durationTicks": 192,
          "midi": 55,
          "name": "G3",
          "ticks": 24576,
          "time": 122.88,
          "velocity": 0.6929133858267716
        },
        {
          "duration": 0.35999999999999943,
          "durationTicks": 72,
          "midi": 58,
          "name": "A#3",
          "ticks": 24576,
          "time": 122.88,
          "velocity": 1
        },
        {
          "duration": 0.35999999999999943,
          "durationTicks": 72,
          "midi": 60,
          "name": "C4",
          "ticks": 24648,
          "time": 123.24,
          "velocity": 1
        },
        {
          "duration": 0.23999999999999488,
          "durationTicks": 48,
          "midi": 62,
          "name": "D4",
          "ticks": 24720,
          "time": 123.6,
          "velocity": 1
        },
        {
          "duration": 0.960000000000008,
          "durationTicks": 192,
          "midi": 51,
          "name": "D#3",
          "ticks": 24768,
          "time": 123.83999999999999,
          "velocity": 0.6929133858267716
        },
        {
          "duration": 0.35999999999999943,
          "durationTicks": 72,
          "midi": 67,
          "name": "G4",
          "ticks": 24768,
          "time": 123.83999999999999,
          "velocity": 1
        },
        {
          "duration": 0.36000000000001364,
          "durationTicks": 72,
          "midi": 70,
          "name": "A#4",
          "ticks": 24840,
          "time": 124.19999999999999,
          "velocity": 1
        },
        {
          "duration": 0.23999999999999488,
          "durationTicks": 48,
          "midi": 69,
          "name": "A4",
          "ticks": 24912,
          "time": 124.56,
          "velocity": 1
        },
        {
          "duration": 0.8400000000000034,
          "durationTicks": 168,
          "midi": 65,
          "name": "F4",
          "ticks": 24960,
          "time": 124.8,
          "velocity": 1
        },
        {
          "duration": 0.05999999999998806,
          "durationTicks": 12,
          "midi": 62,
          "name": "D4",
          "ticks": 25128,
          "time": 125.64,
          "velocity": 1
        },
        {
          "duration": 0.060000000000002274,
          "durationTicks": 12,
          "midi": 65,
          "name": "F4",
          "ticks": 25140,
          "time": 125.69999999999999,
          "velocity": 1
        },
        {
          "duration": 0.480000000000004,
          "durationTicks": 96,
          "midi": 50,
          "name": "D3",
          "ticks": 25152,
          "time": 125.75999999999999,
          "velocity": 0.6929133858267716
        },
        {
          "duration": 0.480000000000004,
          "durationTicks": 96,
          "midi": 62,
          "name": "D4",
          "ticks": 25152,
          "time": 125.75999999999999,
          "velocity": 1
        },
        {
          "duration": 0.480000000000004,
          "durationTicks": 96,
          "midi": 58,
          "name": "A#3",
          "ticks": 25248,
          "time": 126.24,
          "velocity": 1
        },
        {
          "duration": 0.23999999999999488,
          "durationTicks": 48,
          "midi": 51,
          "name": "D#3",
          "ticks": 25248,
          "time": 126.24,
          "velocity": 0.6929133858267716
        },
        {
          "duration": 0.2400000000000091,
          "durationTicks": 48,
          "midi": 53,
          "name": "F3",
          "ticks": 25296,
          "time": 126.47999999999999,
          "velocity": 0.6929133858267716
        },
        {
          "duration": 0.35999999999999943,
          "durationTicks": 72,
          "midi": 60,
          "name": "C4",
          "ticks": 25344,
          "time": 126.72,
          "velocity": 1
        },
        {
          "duration": 0.11999999999999034,
          "durationTicks": 24,
          "midi": 51,
          "name": "D#3",
          "ticks": 25344,
          "time": 126.72,
          "velocity": 0.6929133858267716
        },
        {
          "duration": 0.14999999999999147,
          "durationTicks": 30,
          "midi": 62,
          "name": "D4",
          "ticks": 25416,
          "time": 127.08,
          "velocity": 1
        },
        {
          "duration": 0.7199999999999989,
          "durationTicks": 144,
          "midi": 62,
          "name": "D4",
          "ticks": 25488,
          "time": 127.44,
          "velocity": 1
        },
        {
          "duration": 0.2400000000000091,
          "durationTicks": 48,
          "midi": 55,
          "name": "G3",
          "ticks": 25632,
          "time": 128.16,
          "velocity": 1
        },
        {
          "duration": 0.7199999999999989,
          "durationTicks": 144,
          "midi": 60,
          "name": "C4",
          "ticks": 25680,
          "time": 128.4,
          "velocity": 1
        },
        {
          "duration": 0.47999999999998977,
          "durationTicks": 96,
          "midi": 58,
          "name": "A#3",
          "ticks": 25920,
          "time": 129.6,
          "velocity": 1
        },
        {
          "duration": 0.4800000000000182,
          "durationTicks": 96,
          "midi": 57,
          "name": "A3",
          "ticks": 26016,
          "time": 130.07999999999998,
          "velocity": 1
        },
        {
          "duration": 1.9199999999999875,
          "durationTicks": 384,
          "midi": 55,
          "name": "G3",
          "ticks": 26112,
          "time": 130.56,
          "velocity": 0.6929133858267716
        },
        {
          "duration": 1.9199999999999875,
          "durationTicks": 384,
          "midi": 57,
          "name": "A3",
          "ticks": 26112,
          "time": 130.56,
          "velocity": 0.6929133858267716
        },
        {
          "duration": 1.920000000000016,
          "durationTicks": 384,
          "midi": 65,
          "name": "F4",
          "ticks": 26496,
          "time": 132.48,
          "velocity": 0.6929133858267716
        },
        {
          "duration": 1.920000000000016,
          "durationTicks": 384,
          "midi": 62,
          "name": "D4",
          "ticks": 26496,
          "time": 132.48,
          "velocity": 0.6929133858267716
        },
        {
          "duration": 0.9599999999999795,
          "durationTicks": 192,
          "midi": 63,
          "name": "D#4",
          "ticks": 26880,
          "time": 134.4,
          "velocity": 0.6929133858267716
        },
        {
          "duration": 0.9599999999999795,
          "durationTicks": 192,
          "midi": 67,
          "name": "G4",
          "ticks": 26880,
          "time": 134.4,
          "velocity": 0.6929133858267716
        },
        {
          "duration": 0.960000000000008,
          "durationTicks": 192,
          "midi": 65,
          "name": "F4",
          "ticks": 27072,
          "time": 135.35999999999999,
          "velocity": 0.6929133858267716
        },
        {
          "duration": 0.960000000000008,
          "durationTicks": 192,
          "midi": 69,
          "name": "A4",
          "ticks": 27072,
          "time": 135.35999999999999,
          "velocity": 0.6929133858267716
        },
        {
          "duration": 0.960000000000008,
          "durationTicks": 192,
          "midi": 70,
          "name": "A#4",
          "ticks": 27264,
          "time": 136.32,
          "velocity": 0.6929133858267716
        },
        {
          "duration": 0.960000000000008,
          "durationTicks": 192,
          "midi": 67,
          "name": "G4",
          "ticks": 27264,
          "time": 136.32,
          "velocity": 0.6929133858267716
        },
        {
          "duration": 0.960000000000008,
          "durationTicks": 192,
          "midi": 65,
          "name": "F4",
          "ticks": 27456,
          "time": 137.28,
          "velocity": 0.6929133858267716
        },
        {
          "duration": 0.960000000000008,
          "durationTicks": 192,
          "midi": 69,
          "name": "A4",
          "ticks": 27456,
          "time": 137.28,
          "velocity": 0.6929133858267716
        },
        {
          "duration": 1.9199999999999875,
          "durationTicks": 384,
          "midi": 60,
          "name": "C4",
          "ticks": 27648,
          "time": 138.24,
          "velocity": 0.6929133858267716
        },
        {
          "duration": 1.9199999999999875,
          "durationTicks": 384,
          "midi": 70,
          "name": "A#4",
          "ticks": 27648,
          "time": 138.24,
          "velocity": 0.6929133858267716
        },
        {
          "duration": 1.9199999999999875,
          "durationTicks": 384,
          "midi": 62,
          "name": "D4",
          "ticks": 28032,
          "time": 140.16,
          "velocity": 0.6929133858267716
        },
        {
          "duration": 1.9199999999999875,
          "durationTicks": 384,
          "midi": 69,
          "name": "A4",
          "ticks": 28032,
          "time": 140.16,
          "velocity": 0.6929133858267716
        },
        {
          "duration": 0.960000000000008,
          "durationTicks": 192,
          "midi": 58,
          "name": "A#3",
          "ticks": 28416,
          "time": 142.07999999999998,
          "velocity": 0.6929133858267716
        },
        {
          "duration": 0.960000000000008,
          "durationTicks": 192,
          "midi": 62,
          "name": "D4",
          "ticks": 28416,
          "time": 142.07999999999998,
          "velocity": 0.6929133858267716
        },
        {
          "duration": 0.960000000000008,
          "durationTicks": 192,
          "midi": 57,
          "name": "A3",
          "ticks": 28608,
          "time": 143.04,
          "velocity": 0.6929133858267716
        },
        {
          "duration": 0.960000000000008,
          "durationTicks": 192,
          "midi": 60,
          "name": "C4",
          "ticks": 28608,
          "time": 143.04,
          "velocity": 0.6929133858267716
        },
        {
          "duration": 1.9199999999999875,
          "durationTicks": 384,
          "midi": 55,
          "name": "G3",
          "ticks": 28800,
          "time": 144,
          "velocity": 0.6929133858267716
        },
        {
          "duration": 1.9199999999999875,
          "durationTicks": 384,
          "midi": 58,
          "name": "A#3",
          "ticks": 28800,
          "time": 144,
          "velocity": 0.6929133858267716
        }
      ]
    },
    {
      "channel": 0,
      "controlChanges": {
        "6": [
          {
            "number": 6,
            "ticks": 0,
            "time": 0,
            "value": 0.09448818897637795
          }
        ],
        "7": [
          {
            "number": 7,
            "ticks": 0,
            "time": 0,
            "value": 0.7874015748031497
          },
          {
            "number": 7,
            "ticks": 0,
            "time": 0,
            "value": 0.7874015748031497
          }
        ],
        "10": [
          {
            "number": 10,
            "ticks": 0,
            "time": 0,
            "value": 0.5039370078740157
          },
          {
            "number": 10,
            "ticks": 0,
            "time": 0,
            "value": 0.5039370078740157
          }
        ],
        "100": [
          {
            "number": 100,
            "ticks": 0,
            "time": 0,
            "value": 0
          }
        ],
        "101": [
          {
            "number": 101,
            "ticks": 0,
            "time": 0,
            "value": 0
          }
        ]
      },
      "pitchBends": [
        {
          "ticks": 0,
          "time": 0,
          "value": 0
        },
        {
          "ticks": 0,
          "time": 0,
          "value": 0
        }
      ],
      "instrument": {
        "family": "piano",
        "number": 0,
        "name": "acoustic grand piano"
      },
      "name": "Flute",
      "notes": [],
      "endOfTrackTicks": 32340
    },
    {
      "channel": 15,
      "controlChanges": {
        "6": [
          {
            "number": 6,
            "ticks": 0,
            "time": 0,
            "value": 0.09448818897637795
          },
          {
            "number": 6,
            "ticks": 32256,
            "time": 161.28,
            "value": 0.09448818897637795
          },
          {
            "number": 6,
            "ticks": 32340,
            "time": 161.7,
            "value": 0.09448818897637795
          },
          {
            "number": 6,
            "ticks": 32340,
            "time": 161.7,
            "value": 0.09448818897637795
          }
        ],
        "7": [
          {
            "number": 7,
            "ticks": 0,
            "time": 0,
            "value": 0.7874015748031497
          },
          {
            "number": 7,
            "ticks": 32256,
            "time": 161.28,
            "value": 0.7874015748031497
          },
          {
            "number": 7,
            "ticks": 32340,
            "time": 161.7,
            "value": 0.7874015748031497
          },
          {
            "number": 7,
            "ticks": 32340,
            "time": 161.7,
            "value": 0.7874015748031497
          }
        ],
        "10": [
          {
            "number": 10,
            "ticks": 0,
            "time": 0,
            "value": 0.5039370078740157
          },
          {
            "number": 10,
            "ticks": 32256,
            "time": 161.28,
            "value": 0.5039370078740157
          },
          {
            "number": 10,
            "ticks": 32340,
            "time": 161.7,
            "value": 0.5039370078740157
          },
          {
            "number": 10,
            "ticks": 32340,
            "time": 161.7,
            "value": 0.5039370078740157
          }
        ],
        "100": [
          {
            "number": 100,
            "ticks": 0,
            "time": 0,
            "value": 0
          },
          {
            "number": 100,
            "ticks": 32256,
            "time": 161.28,
            "value": 0
          },
          {
            "number": 100,
            "ticks": 32340,
            "time": 161.7,
            "value": 0
          },
          {
            "number": 100,
            "ticks": 32340,
            "time": 161.7,
            "value": 0
          }
        ],
        "101": [
          {
            "number": 101,
            "ticks": 0,
            "time": 0,
            "value": 0
          },
          {
            "number": 101,
            "ticks": 32256,
            "time": 161.28,
            "value": 0
          },
          {
            "number": 101,
            "ticks": 32340,
            "time": 161.7,
            "value": 0
          },
          {
            "number": 101,
            "ticks": 32340,
            "time": 161.7,
            "value": 0
          }
        ]
      },
      "pitchBends": [
        {
          "ticks": 0,
          "time": 0,
          "value": 0
        },
        {
          "ticks": 32256,
          "time": 161.28,
          "value": 0
        },
        {
          "ticks": 32340,
          "time": 161.7,
          "value": 0
        },
        {
          "ticks": 32340,
          "time": 161.7,
          "value": 0
        }
      ],
      "instrument": {
        "family": "pipe",
        "number": 73,
        "name": "flute"
      },
      "name": "",
      "notes": [
        {
          "duration": 0.7199999999999989,
          "durationTicks": 144,
          "midi": 89,
          "name": "F6",
          "ticks": 21504,
          "time": 107.52,
          "velocity": 0.47244094488188976
        },
        {
          "duration": 1.6800000000000068,
          "durationTicks": 336,
          "midi": 89,
          "name": "F6",
          "ticks": 22608,
          "time": 113.03999999999999,
          "velocity": 0.47244094488188976
        },
        {
          "duration": 0.11999999999999034,
          "durationTicks": 24,
          "midi": 86,
          "name": "D6",
          "ticks": 22944,
          "time": 114.72,
          "velocity": 0.47244094488188976
        },
        {
          "duration": 0.11999999999999034,
          "durationTicks": 24,
          "midi": 82,
          "name": "A#5",
          "ticks": 22944,
          "time": 114.72,
          "velocity": 0.47244094488188976
        },
        {
          "duration": 0.12000000000000455,
          "durationTicks": 24,
          "midi": 86,
          "name": "D6",
          "ticks": 22992,
          "time": 114.96,
          "velocity": 0.47244094488188976
        },
        {
          "duration": 0.12000000000000455,
          "durationTicks": 24,
          "midi": 89,
          "name": "F6",
          "ticks": 22992,
          "time": 114.96,
          "velocity": 0.47244094488188976
        },
        {
          "duration": 0.7199999999999989,
          "durationTicks": 144,
          "midi": 89,
          "name": "F6",
          "ticks": 24576,
          "time": 122.88,
          "velocity": 0.47244094488188976
        },
        {
          "duration": 1.6799999999999784,
          "durationTicks": 336,
          "midi": 89,
          "name": "F6",
          "ticks": 25680,
          "time": 128.4,
          "velocity": 0.47244094488188976
        },
        {
          "duration": 0.12000000000000455,
          "durationTicks": 24,
          "midi": 86,
          "name": "D6",
          "ticks": 26016,
          "time": 130.07999999999998,
          "velocity": 0.47244094488188976
        },
        {
          "duration": 0.12000000000000455,
          "durationTicks": 24,
          "midi": 82,
          "name": "A#5",
          "ticks": 26016,
          "time": 130.07999999999998,
          "velocity": 0.47244094488188976
        },
        {
          "duration": 0.12000000000000455,
          "durationTicks": 24,
          "midi": 86,
          "name": "D6",
          "ticks": 26064,
          "time": 130.32,
          "velocity": 0.47244094488188976
        },
        {
          "duration": 0.12000000000000455,
          "durationTicks": 24,
          "midi": 89,
          "name": "F6",
          "ticks": 26064,
          "time": 130.32,
          "velocity": 0.47244094488188976
        }
      ]
    }
  ]
}
