{"header":{"keySignatures":[],"meta":[{"text":"yTCg¼z URL","ticks":0,"type":"text"},{"text":"Setup","ticks":0,"type":"marker"},{"text":"Start","ticks":1920,"type":"marker"},{"text":"1","ticks":48000,"type":"marker"},{"text":"2","ticks":82560,"type":"marker"},{"text":"3","ticks":144000,"type":"marker"},{"text":"4","ticks":190080,"type":"marker"},{"text":"5","ticks":289920,"type":"marker"},{"text":"6","ticks":355200,"type":"marker"}],"name":"","ppq":480,"tempos":[{"bpm":120,"ticks":0},{"bpm":222.22222222222223,"ticks":1920}],"timeSignatures":[{"ticks":0,"timeSignature":[4,4],"measures":0}]},"tracks":[{"channel":0,"controlChanges":{"0":[{"number":0,"ticks":120,"time":0.125,"value":0}],"1":[{"number":1,"ticks":350,"time":0.3645833333333333,"value":0}],"6":[{"number":6,"ticks":360,"time":0.375,"value":0.09448818897637795}],"7":[{"number":7,"ticks":250,"time":0.2604166666666667,"value":0.7874015748031497}],"10":[{"number":10,"ticks":240,"time":0.25,"value":0.5039370078740157}],"11":[{"number":11,"ticks":340,"time":0.3541666666666667,"value":1}],"32":[{"number":32,"ticks":120,"time":0.125,"value":0}],"64":[{"number":64,"ticks":0,"time":0,"value":0}],"70":[{"number":70,"ticks":310,"time":0.3229166666666667,"value":0.5039370078740157}],"72":[{"number":72,"ticks":330,"time":0.34375,"value":0.5039370078740157}],"73":[{"number":73,"ticks":290,"time":0.3020833333333333,"value":0.5039370078740157}],"74":[{"number":74,"ticks":280,"time":0.2916666666666667,"value":0.5039370078740157}],"75":[{"number":75,"ticks":300,"time":0.3125,"value":0.5039370078740157}],"76":[{"number":76,"ticks":320,"time":0.3333333333333333,"value":0.5039370078740157}],"91":[{"number":91,"ticks":260,"time":0.2708333333333333,"value":0.47244094488188976}],"93":[{"number":93,"ticks":270,"time":0.28125,"value":0}],"100":[{"number":100,"ticks":360,"time":0.375,"value":0},{"number":100,"ticks":380,"time":0.3958333333333333,"value":1}],"101":[{"number":101,"ticks":360,"time":0.375,"value":0},{"number":101,"ticks":380,"time":0.3958333333333333,"value":1}],"123":[{"number":123,"ticks":60,"time":0.0625,"value":0}]},"pitchBends":[{"ticks":370,"time":0.3854166666666667,"value":0}],"instrument":{"family":"piano","number":0,"name":"acoustic grand piano"},"name":"","notes":[{"duration":0.0674999999999999,"durationTicks":120,"midi":55,"name":"G3","ticks":1920,"time":2,"velocity":0.7874015748031497},{"duration":0.0674999999999999,"durationTicks":120,"midi":57,"name":"A3","ticks":2040,"time":2.0675,"velocity":0.7874015748031497},{"duration":0.06750000000000034,"durationTicks":120,"midi":59,"name":"B3","ticks":2160,"time":2.135,"velocity":0.7874015748031497},{"duration":0.0674999999999999,"durationTicks":120,"midi":62,"name":"D4","ticks":2280,"time":2.2025,"velocity":0.7874015748031497},{"duration":0.0674999999999999,"durationTicks":120,"midi":67,"name":"G4","ticks":2400,"time":2.27,"velocity":0.7874015748031497},{"duration":0.06750000000000034,"durationTicks":120,"midi":62,"name":"D4","ticks":2520,"time":2.3375,"velocity":0.7874015748031497},{"duration":0.0674999999999999,"durationTicks":120,"midi":59,"name":"B3","ticks":2640,"time":2.4050000000000002,"velocity":0.7874015748031497},{"duration":0.0674999999999999,"durationTicks":120,"midi":55,"name":"G3","ticks":2760,"time":2.4725,"velocity":0.7874015748031497},{"duration":0.0674999999999999,"durationTicks":120,"midi":55,"name":"G3","ticks":2880,"time":2.54,"velocity":0.7874015748031497},{"duration":0.0674999999999999,"durationTicks":120,"midi":57,"name":"A3","ticks":3000,"time":2.6075,"velocity":0.7874015748031497},{"duration":0.06750000000000034,"durationTicks":120,"midi":59,"name":"B3","ticks":3120,"time":2.675,"velocity":0.7874015748031497},{"duration":0.0674999999999999,"durationTicks":120,"midi":62,"name":"D4","ticks":3240,"time":2.7425,"velocity":0.7874015748031497},{"duration":0.0674999999999999,"durationTicks":120,"midi":67,"name":"G4","ticks":3360,"time":2.81,"velocity":0.7874015748031497},{"duration":0.06750000000000034,"durationTicks":120,"midi":62,"name":"D4","ticks":3480,"time":2.8775,"velocity":0.7874015748031497},{"duration":0.0674999999999999,"durationTicks":120,"midi":59,"name":"B3","ticks":3600,"time":2.9450000000000003,"velocity":0.7874015748031497},{"duration":0.0674999999999999,"durationTicks":120,"midi":55,"name":"G3","ticks":3720,"time":3.0125,"velocity":0.7874015748031497},{"duration":0.0674999999999999,"durationTicks":120,"midi":55,"name":"G3","ticks":3840,"time":3.08,"velocity":0.7874015748031497},{"duration":0.0674999999999999,"durationTicks":120,"midi":57,"name":"A3","ticks":3960,"time":3.1475,"velocity":0.7874015748031497},{"duration":0.06750000000000034,"durationTicks":120,"midi":59,"name":"B3","ticks":4080,"time":3.215,"velocity":0.7874015748031497},{"duration":0.0674999999999999,"durationTicks":120,"midi":62,"name":"D4","ticks":4200,"time":3.2825,"velocity":0.7874015748031497},{"duration":0.0674999999999999,"durationTicks":120,"midi":67,"name":"G4","ticks":4320,"time":3.35,"velocity":0.7874015748031497},{"duration":0.06750000000000034,"durationTicks":120,"midi":62,"name":"D4","ticks":4440,"time":3.4175,"velocity":0.7874015748031497},{"duration":0.0674999999999999,"durationTicks":120,"midi":59,"name":"B3","ticks":4560,"time":3.4850000000000003,"velocity":0.7874015748031497},{"duration":0.0674999999999999,"durationTicks":120,"midi":55,"name":"G3","ticks":4680,"time":3.5525,"velocity":0.7874015748031497},{"duration":0.0674999999999999,"durationTicks":120,"midi":55,"name":"G3","ticks":4800,"time":3.62,"velocity":0.7874015748031497},{"duration":0.0674999999999999,"durationTicks":120,"midi":57,"name":"A3","ticks":4920,"time":3.6875,"velocity":0.7874015748031497},{"duration":0.06750000000000034,"durationTicks":120,"midi":59,"name":"B3","ticks":5040,"time":3.755,"velocity":0.7874015748031497},{"duration":0.0674999999999999,"durationTicks":120,"midi":62,"name":"D4","ticks":5160,"time":3.8225000000000002,"velocity":0.7874015748031497},{"duration":0.0674999999999999,"durationTicks":120,"midi":67,"name":"G4","ticks":5280,"time":3.89,"velocity":0.7874015748031497},{"duration":0.06750000000000034,"durationTicks":120,"midi":62,"name":"D4","ticks":5400,"time":3.9575,"velocity":0.7874015748031497},{"duration":0.0674999999999999,"durationTicks":120,"midi":59,"name":"B3","ticks":5520,"time":4.025,"velocity":0.7874015748031497},{"duration":0.0674999999999999,"durationTicks":120,"midi":55,"name":"G3","ticks":5640,"time":4.0925,"velocity":0.7874015748031497},{"duration":0.0674999999999999,"durationTicks":120,"midi":55,"name":"G3","ticks":5760,"time":4.16,"velocity":0.7874015748031497},{"duration":0.0674999999999999,"durationTicks":120,"midi":57,"name":"A3","ticks":5880,"time":4.2275,"velocity":0.7874015748031497},{"duration":0.06750000000000078,"durationTicks":120,"midi":59,"name":"B3","ticks":6000,"time":4.295,"velocity":0.7874015748031497},{"duration":0.067499999999999,"durationTicks":120,"midi":62,"name":"D4","ticks":6120,"time":4.362500000000001,"velocity":0.7874015748031497},{"duration":0.06750000000000078,"durationTicks":120,"midi":67,"name":"G4","ticks":6240,"time":4.43,"velocity":0.7874015748031497},{"duration":0.0674999999999999,"durationTicks":120,"midi":62,"name":"D4","ticks":6360,"time":4.4975000000000005,"velocity":0.7874015748031497},{"duration":0.0674999999999999,"durationTicks":120,"midi":59,"name":"B3","ticks":6480,"time":4.565,"velocity":0.7874015748031497},{"duration":0.0674999999999999,"durationTicks":120,"midi":55,"name":"G3","ticks":6600,"time":4.6325,"velocity":0.7874015748031497},{"duration":0.0674999999999999,"durationTicks":120,"midi":55,"name":"G3","ticks":6720,"time":4.7,"velocity":0.7874015748031497},{"duration":0.0674999999999999,"durationTicks":120,"midi":57,"name":"A3","ticks":6840,"time":4.7675,"velocity":0.7874015748031497},{"duration":0.0674999999999999,"durationTicks":120,"midi":59,"name":"B3","ticks":6960,"time":4.835,"velocity":0.7874015748031497},{"duration":0.06750000000000078,"durationTicks":120,"midi":62,"name":"D4","ticks":7080,"time":4.9025,"velocity":0.7874015748031497},{"duration":0.067499999999999,"durationTicks":120,"midi":67,"name":"G4","ticks":7200,"time":4.970000000000001,"velocity":0.7874015748031497},{"duration":0.06750000000000078,"durationTicks":120,"midi":62,"name":"D4","ticks":7320,"time":5.0375,"velocity":0.7874015748031497},{"duration":0.0674999999999999,"durationTicks":120,"midi":59,"name":"B3","ticks":7440,"time":5.105,"velocity":0.7874015748031497},{"duration":0.0674999999999999,"durationTicks":120,"midi":55,"name":"G3","ticks":7560,"time":5.1725,"velocity":0.7874015748031497},{"duration":0.0674999999999999,"durationTicks":120,"midi":55,"name":"G3","ticks":7680,"time":5.24,"velocity":0.7874015748031497},{"duration":0.0674999999999999,"durationTicks":120,"midi":57,"name":"A3","ticks":7800,"time":5.3075,"velocity":0.7874015748031497},{"duration":0.06750000000000078,"durationTicks":120,"midi":59,"name":"B3","ticks":7920,"time":5.375,"velocity":0.7874015748031497},{"duration":0.067499999999999,"durationTicks":120,"midi":62,"name":"D4","ticks":8040,"time":5.442500000000001,"velocity":0.7874015748031497},{"duration":0.06750000000000078,"durationTicks":120,"midi":67,"name":"G4","ticks":8160,"time":5.51,"velocity":0.7874015748031497},{"duration":0.0674999999999999,"durationTicks":120,"midi":62,"name":"D4","ticks":8280,"time":5.577500000000001,"velocity":0.7874015748031497},{"duration":0.0674999999999999,"durationTicks":120,"midi":59,"name":"B3","ticks":8400,"time":5.6450000000000005,"velocity":0.7874015748031497},{"duration":0.0674999999999999,"durationTicks":120,"midi":55,"name":"G3","ticks":8520,"time":5.7125,"velocity":0.7874015748031497},{"duration":0.0674999999999999,"durationTicks":120,"midi":55,"name":"G3","ticks":8640,"time":5.78,"velocity":0.7874015748031497},{"duration":0.0674999999999999,"durationTicks":120,"midi":59,"name":"B3","ticks":8760,"time":5.8475,"velocity":0.7874015748031497},{"duration":0.0674999999999999,"durationTicks":120,"midi":62,"name":"D4","ticks":8880,"time":5.915,"velocity":0.7874015748031497},{"duration":0.06750000000000078,"durationTicks":120,"midi":66,"name":"F#4","ticks":9000,"time":5.9825,"velocity":0.7874015748031497},{"duration":0.0674999999999999,"durationTicks":120,"midi":67,"name":"G4","ticks":9120,"time":6.050000000000001,"velocity":0.7874015748031497},{"duration":0.0674999999999999,"durationTicks":120,"midi":69,"name":"A4","ticks":9240,"time":6.117500000000001,"velocity":0.7874015748031497},{"duration":0.0674999999999999,"durationTicks":120,"midi":66,"name":"F#4","ticks":9360,"time":6.1850000000000005,"velocity":0.7874015748031497},{"duration":0.0674999999999999,"durationTicks":120,"midi":67,"name":"G4","ticks":9480,"time":6.2525,"velocity":0.7874015748031497},{"duration":0.0674999999999999,"durationTicks":120,"midi":55,"name":"G3","ticks":9600,"time":6.32,"velocity":0.7874015748031497},{"duration":0.0674999999999999,"durationTicks":120,"midi":57,"name":"A3","ticks":9720,"time":6.3875,"velocity":0.7874015748031497},{"duration":0.0674999999999999,"durationTicks":120,"midi":59,"name":"B3","ticks":9840,"time":6.455,"velocity":0.7874015748031497},{"duration":0.0674999999999999,"durationTicks":120,"midi":62,"name":"D4","ticks":9960,"time":6.5225,"velocity":0.7874015748031497},{"duration":0.06750000000000078,"durationTicks":120,"midi":67,"name":"G4","ticks":10080,"time":6.59,"velocity":0.7874015748031497},{"duration":0.0674999999999999,"durationTicks":120,"midi":62,"name":"D4","ticks":10200,"time":6.657500000000001,"velocity":0.7874015748031497},{"duration":0.0674999999999999,"durationTicks":120,"midi":59,"name":"B3","ticks":10320,"time":6.7250000000000005,"velocity":0.7874015748031497},{"duration":0.0674999999999999,"durationTicks":120,"midi":55,"name":"G3","ticks":10440,"time":6.7925,"velocity":0.7874015748031497},{"duration":0.0674999999999999,"durationTicks":120,"midi":55,"name":"G3","ticks":10560,"time":6.86,"velocity":0.7874015748031497},{"duration":0.0674999999999999,"durationTicks":120,"midi":57,"name":"A3","ticks":10680,"time":6.9275,"velocity":0.7874015748031497},{"duration":0.0674999999999999,"durationTicks":120,"midi":59,"name":"B3","ticks":10800,"time":6.995,"velocity":0.7874015748031497},{"duration":0.06750000000000078,"durationTicks":120,"midi":62,"name":"D4","ticks":10920,"time":7.0625,"velocity":0.7874015748031497},{"duration":0.0674999999999999,"durationTicks":120,"midi":67,"name":"G4","ticks":11040,"time":7.130000000000001,"velocity":0.7874015748031497},{"duration":0.0674999999999999,"durationTicks":120,"midi":62,"name":"D4","ticks":11160,"time":7.197500000000001,"velocity":0.7874015748031497},{"duration":0.0674999999999999,"durationTicks":120,"midi":59,"name":"B3","ticks":11280,"time":7.265000000000001,"velocity":0.7874015748031497},{"duration":0.0674999999999999,"durationTicks":120,"midi":55,"name":"G3","ticks":11400,"time":7.3325000000000005,"velocity":0.7874015748031497},{"duration":0.0674999999999999,"durationTicks":120,"midi":55,"name":"G3","ticks":11520,"time":7.4,"velocity":0.7874015748031497},{"duration":0.0674999999999999,"durationTicks":120,"midi":57,"name":"A3","ticks":11640,"time":7.4675,"velocity":0.7874015748031497},{"duration":0.0674999999999999,"durationTicks":120,"midi":59,"name":"B3","ticks":11760,"time":7.535,"velocity":0.7874015748031497},{"duration":0.0674999999999999,"durationTicks":120,"midi":62,"name":"D4","ticks":11880,"time":7.6025,"velocity":0.7874015748031497},{"duration":0.06750000000000078,"durationTicks":120,"midi":67,"name":"G4","ticks":12000,"time":7.67,"velocity":0.7874015748031497},{"duration":0.0674999999999999,"durationTicks":120,"midi":62,"name":"D4","ticks":12120,"time":7.737500000000001,"velocity":0.7874015748031497},{"duration":0.0674999999999999,"durationTicks":120,"midi":59,"name":"B3","ticks":12240,"time":7.805000000000001,"velocity":0.7874015748031497},{"duration":0.0674999999999999,"durationTicks":120,"midi":55,"name":"G3","ticks":12360,"time":7.8725000000000005,"velocity":0.7874015748031497},{"duration":0.0674999999999999,"durationTicks":120,"midi":55,"name":"G3","ticks":12480,"time":7.94,"velocity":0.7874015748031497},{"duration":0.067499999999999,"durationTicks":120,"midi":57,"name":"A3","ticks":12600,"time":8.0075,"velocity":0.7874015748031497},{"duration":0.06750000000000078,"durationTicks":120,"midi":59,"name":"B3","ticks":12720,"time":8.075,"velocity":0.7874015748031497},{"duration":0.06750000000000078,"durationTicks":120,"midi":62,"name":"D4","ticks":12840,"time":8.1425,"velocity":0.7874015748031497},{"duration":0.067499999999999,"durationTicks":120,"midi":67,"name":"G4","ticks":12960,"time":8.21,"velocity":0.7874015748031497},{"duration":0.06750000000000078,"durationTicks":120,"midi":62,"name":"D4","ticks":13080,"time":8.2775,"velocity":0.7874015748031497},{"duration":0.06750000000000078,"durationTicks":120,"midi":59,"name":"B3","ticks":13200,"time":8.345,"velocity":0.7874015748031497},{"duration":0.067499999999999,"durationTicks":120,"midi":55,"name":"G3","ticks":13320,"time":8.412500000000001,"velocity":0.7874015748031497},{"duration":0.067499999999999,"durationTicks":120,"midi":55,"name":"G3","ticks":13440,"time":8.48,"velocity":0.7874015748031497},{"duration":0.06750000000000078,"durationTicks":120,"midi":57,"name":"A3","ticks":13560,"time":8.5475,"velocity":0.7874015748031497},{"duration":0.06750000000000078,"durationTicks":120,"midi":59,"name":"B3","ticks":13680,"time":8.615,"velocity":0.7874015748031497},{"duration":0.067499999999999,"durationTicks":120,"midi":62,"name":"D4","ticks":13800,"time":8.682500000000001,"velocity":0.7874015748031497},{"duration":0.06750000000000078,"durationTicks":120,"midi":67,"name":"G4","ticks":13920,"time":8.75,"velocity":0.7874015748031497},{"duration":0.06750000000000078,"durationTicks":120,"midi":62,"name":"D4","ticks":14040,"time":8.8175,"velocity":0.7874015748031497},{"duration":0.067499999999999,"durationTicks":120,"midi":59,"name":"B3","ticks":14160,"time":8.885000000000002,"velocity":0.7874015748031497},{"duration":0.067499999999999,"durationTicks":120,"midi":55,"name":"G3","ticks":14280,"time":8.9525,"velocity":0.7874015748031497},{"duration":0.06750000000000078,"durationTicks":120,"midi":55,"name":"G3","ticks":14400,"time":9.02,"velocity":0.7874015748031497},{"duration":0.06750000000000078,"durationTicks":120,"midi":57,"name":"A3","ticks":14520,"time":9.0875,"velocity":0.7874015748031497},{"duration":0.067499999999999,"durationTicks":120,"midi":59,"name":"B3","ticks":14640,"time":9.155000000000001,"velocity":0.7874015748031497},{"duration":0.06750000000000078,"durationTicks":120,"midi":62,"name":"D4","ticks":14760,"time":9.2225,"velocity":0.7874015748031497},{"duration":0.06750000000000078,"durationTicks":120,"midi":67,"name":"G4","ticks":14880,"time":9.290000000000001,"velocity":0.7874015748031497},{"duration":0.067499999999999,"durationTicks":120,"midi":62,"name":"D4","ticks":15000,"time":9.357500000000002,"velocity":0.7874015748031497},{"duration":0.067499999999999,"durationTicks":120,"midi":59,"name":"B3","ticks":15120,"time":9.425,"velocity":0.7874015748031497},{"duration":0.06750000000000078,"durationTicks":120,"midi":55,"name":"G3","ticks":15240,"time":9.4925,"velocity":0.7874015748031497},{"duration":0.06750000000000078,"durationTicks":120,"midi":55,"name":"G3","ticks":15360,"time":9.56,"velocity":0.7874015748031497},{"duration":0.067499999999999,"durationTicks":120,"midi":57,"name":"A3","ticks":15480,"time":9.627500000000001,"velocity":0.7874015748031497},{"duration":0.067499999999999,"durationTicks":120,"midi":59,"name":"B3","ticks":15600,"time":9.695,"velocity":0.7874015748031497},{"duration":0.06750000000000078,"durationTicks":120,"midi":62,"name":"D4","ticks":15720,"time":9.7625,"velocity":0.7874015748031497},{"duration":0.06750000000000078,"durationTicks":120,"midi":67,"name":"G4","ticks":15840,"time":9.83,"velocity":0.7874015748031497},{"duration":0.067499999999999,"durationTicks":120,"midi":62,"name":"D4","ticks":15960,"time":9.8975,"velocity":0.7874015748031497},{"duration":0.06750000000000078,"durationTicks":120,"midi":59,"name":"B3","ticks":16080,"time":9.965,"velocity":0.7874015748031497},{"duration":0.06750000000000078,"durationTicks":120,"midi":55,"name":"G3","ticks":16200,"time":10.0325,"velocity":0.7874015748031497},{"duration":0.067499999999999,"durationTicks":120,"midi":55,"name":"G3","ticks":16320,"time":10.100000000000001,"velocity":0.7874015748031497},{"duration":0.067499999999999,"durationTicks":120,"midi":67,"name":"G4","ticks":16320,"time":10.100000000000001,"velocity":0.7874015748031497},{"duration":0.06750000000000078,"durationTicks":120,"midi":59,"name":"B3","ticks":16440,"time":10.1675,"velocity":0.7874015748031497},{"duration":0.06750000000000078,"durationTicks":120,"midi":71,"name":"B4","ticks":16440,"time":10.1675,"velocity":0.7874015748031497},{"duration":0.067499999999999,"durationTicks":120,"midi":62,"name":"D4","ticks":16560,"time":10.235000000000001,"velocity":0.7874015748031497},{"duration":0.067499999999999,"durationTicks":120,"midi":74,"name":"D5","ticks":16560,"time":10.235000000000001,"velocity":0.7874015748031497},{"duration":0.06750000000000078,"durationTicks":120,"midi":66,"name":"F#4","ticks":16680,"time":10.3025,"velocity":0.7874015748031497},{"duration":0.06750000000000078,"durationTicks":120,"midi":78,"name":"F#5","ticks":16680,"time":10.3025,"velocity":0.7874015748031497},{"duration":0.067499999999999,"durationTicks":120,"midi":67,"name":"G4","ticks":16800,"time":10.370000000000001,"velocity":0.7874015748031497},{"duration":0.067499999999999,"durationTicks":120,"midi":79,"name":"G5","ticks":16800,"time":10.370000000000001,"velocity":0.7874015748031497},{"duration":0.06750000000000078,"durationTicks":120,"midi":69,"name":"A4","ticks":16920,"time":10.4375,"velocity":0.7874015748031497},{"duration":0.06750000000000078,"durationTicks":120,"midi":81,"name":"A5","ticks":16920,"time":10.4375,"velocity":0.7874015748031497},{"duration":0.067499999999999,"durationTicks":120,"midi":66,"name":"F#4","ticks":17040,"time":10.505,"velocity":0.7874015748031497},{"duration":0.067499999999999,"durationTicks":120,"midi":78,"name":"F#5","ticks":17040,"time":10.505,"velocity":0.7874015748031497},{"duration":0.06750000000000078,"durationTicks":120,"midi":67,"name":"G4","ticks":17160,"time":10.5725,"velocity":0.7874015748031497},{"duration":0.06750000000000078,"durationTicks":120,"midi":79,"name":"G5","ticks":17160,"time":10.5725,"velocity":0.7874015748031497},{"duration":0.06750000000000078,"durationTicks":120,"midi":55,"name":"G3","ticks":17280,"time":10.64,"velocity":0.7874015748031497},{"duration":0.067499999999999,"durationTicks":120,"midi":57,"name":"A3","ticks":17400,"time":10.707500000000001,"velocity":0.7874015748031497},{"duration":0.06750000000000078,"durationTicks":120,"midi":59,"name":"B3","ticks":17520,"time":10.775,"velocity":0.7874015748031497},{"duration":0.067499999999999,"durationTicks":120,"midi":62,"name":"D4","ticks":17640,"time":10.842500000000001,"velocity":0.7874015748031497},{"duration":0.06750000000000078,"durationTicks":120,"midi":67,"name":"G4","ticks":17760,"time":10.91,"velocity":0.7874015748031497},{"duration":0.067499999999999,"durationTicks":120,"midi":62,"name":"D4","ticks":17880,"time":10.977500000000001,"velocity":0.7874015748031497},{"duration":0.06750000000000078,"durationTicks":120,"midi":59,"name":"B3","ticks":18000,"time":11.045,"velocity":0.7874015748031497},{"duration":0.067499999999999,"durationTicks":120,"midi":55,"name":"G3","ticks":18120,"time":11.1125,"velocity":0.7874015748031497},{"duration":0.06750000000000078,"durationTicks":120,"midi":55,"name":"G3","ticks":18240,"time":11.18,"velocity":0.7874015748031497},{"duration":0.06750000000000078,"durationTicks":120,"midi":57,"name":"A3","ticks":18360,"time":11.2475,"velocity":0.7874015748031497},{"duration":0.067499999999999,"durationTicks":120,"midi":59,"name":"B3","ticks":18480,"time":11.315000000000001,"velocity":0.7874015748031497},{"duration":0.06750000000000078,"durationTicks":120,"midi":62,"name":"D4","ticks":18600,"time":11.3825,"velocity":0.7874015748031497},{"duration":0.067499999999999,"durationTicks":120,"midi":67,"name":"G4","ticks":18720,"time":11.450000000000001,"velocity":0.7874015748031497},{"duration":0.06750000000000078,"durationTicks":120,"midi":62,"name":"D4","ticks":18840,"time":11.5175,"velocity":0.7874015748031497},{"duration":0.067499999999999,"durationTicks":120,"midi":59,"name":"B3","ticks":18960,"time":11.585,"velocity":0.7874015748031497},{"duration":0.06750000000000078,"durationTicks":120,"midi":55,"name":"G3","ticks":19080,"time":11.6525,"velocity":0.7874015748031497},{"duration":0.06750000000000078,"durationTicks":120,"midi":55,"name":"G3","ticks":19200,"time":11.72,"velocity":0.7874015748031497},{"duration":0.067499999999999,"durationTicks":120,"midi":57,"name":"A3","ticks":19320,"time":11.787500000000001,"velocity":0.7874015748031497},{"duration":0.06750000000000078,"durationTicks":120,"midi":59,"name":"B3","ticks":19440,"time":11.855,"velocity":0.7874015748031497},{"duration":0.067499999999999,"durationTicks":120,"midi":62,"name":"D4","ticks":19560,"time":11.922500000000001,"velocity":0.7874015748031497},{"duration":0.06750000000000078,"durationTicks":120,"midi":67,"name":"G4","ticks":19680,"time":11.99,"velocity":0.7874015748031497},{"duration":0.067499999999999,"durationTicks":120,"midi":62,"name":"D4","ticks":19800,"time":12.057500000000001,"velocity":0.7874015748031497},{"duration":0.06750000000000078,"durationTicks":120,"midi":59,"name":"B3","ticks":19920,"time":12.125,"velocity":0.7874015748031497},{"duration":0.06750000000000078,"durationTicks":120,"midi":55,"name":"G3","ticks":20040,"time":12.1925,"velocity":0.7874015748031497},{"duration":0.067499999999999,"durationTicks":120,"midi":55,"name":"G3","ticks":20160,"time":12.260000000000002,"velocity":0.7874015748031497},{"duration":0.06750000000000078,"durationTicks":120,"midi":57,"name":"A3","ticks":20280,"time":12.3275,"velocity":0.7874015748031497},{"duration":0.067499999999999,"durationTicks":120,"midi":59,"name":"B3","ticks":20400,"time":12.395000000000001,"velocity":0.7874015748031497},{"duration":0.06750000000000078,"durationTicks":120,"midi":62,"name":"D4","ticks":20520,"time":12.4625,"velocity":0.7874015748031497},{"duration":0.067499999999999,"durationTicks":120,"midi":67,"name":"G4","ticks":20640,"time":12.530000000000001,"velocity":0.7874015748031497},{"duration":0.06750000000000078,"durationTicks":120,"midi":62,"name":"D4","ticks":20760,"time":12.5975,"velocity":0.7874015748031497},{"duration":0.067499999999999,"durationTicks":120,"midi":59,"name":"B3","ticks":20880,"time":12.665000000000001,"velocity":0.7874015748031497},{"duration":0.06750000000000078,"durationTicks":120,"midi":55,"name":"G3","ticks":21000,"time":12.7325,"velocity":0.7874015748031497},{"duration":0.06750000000000078,"durationTicks":120,"midi":55,"name":"G3","ticks":21120,"time":12.8,"velocity":0.7874015748031497},{"duration":0.067499999999999,"durationTicks":120,"midi":57,"name":"A3","ticks":21240,"time":12.867500000000001,"velocity":0.7874015748031497},{"duration":0.06750000000000078,"durationTicks":120,"midi":59,"name":"B3","ticks":21360,"time":12.935,"velocity":0.7874015748031497},{"duration":0.067499999999999,"durationTicks":120,"midi":62,"name":"D4","ticks":21480,"time":13.002500000000001,"velocity":0.7874015748031497},{"duration":0.06750000000000078,"durationTicks":120,"midi":67,"name":"G4","ticks":21600,"time":13.07,"velocity":0.7874015748031497},{"duration":0.067499999999999,"durationTicks":120,"midi":62,"name":"D4","ticks":21720,"time":13.137500000000001,"velocity":0.7874015748031497},{"duration":0.06750000000000078,"durationTicks":120,"midi":59,"name":"B3","ticks":21840,"time":13.205,"velocity":0.7874015748031497},{"duration":0.067499999999999,"durationTicks":120,"midi":55,"name":"G3","ticks":21960,"time":13.2725,"velocity":0.7874015748031497},{"duration":0.06750000000000078,"durationTicks":120,"midi":55,"name":"G3","ticks":22080,"time":13.34,"velocity":0.7874015748031497},{"duration":0.06750000000000078,"durationTicks":120,"midi":57,"name":"A3","ticks":22200,"time":13.4075,"velocity":0.7874015748031497},{"duration":0.067499999999999,"durationTicks":120,"midi":59,"name":"B3","ticks":22320,"time":13.475000000000001,"velocity":0.7874015748031497},{"duration":0.06750000000000078,"durationTicks":120,"midi":62,"name":"D4","ticks":22440,"time":13.5425,"velocity":0.7874015748031497},{"duration":0.067499999999999,"durationTicks":120,"midi":67,"name":"G4","ticks":22560,"time":13.610000000000001,"velocity":0.7874015748031497},{"duration":0.06750000000000078,"durationTicks":120,"midi":62,"name":"D4","ticks":22680,"time":13.6775,"velocity":0.7874015748031497},{"duration":0.067499999999999,"durationTicks":120,"midi":59,"name":"B3","ticks":22800,"time":13.745000000000001,"velocity":0.7874015748031497},{"duration":0.06750000000000078,"durationTicks":120,"midi":55,"name":"G3","ticks":22920,"time":13.8125,"velocity":0.7874015748031497},{"duration":0.06750000000000078,"durationTicks":120,"midi":55,"name":"G3","ticks":23040,"time":13.88,"velocity":0.7874015748031497},{"duration":0.067499999999999,"durationTicks":120,"midi":57,"name":"A3","ticks":23160,"time":13.947500000000002,"velocity":0.7874015748031497},{"duration":0.06750000000000078,"durationTicks":120,"midi":59,"name":"B3","ticks":23280,"time":14.015,"velocity":0.7874015748031497},{"duration":0.067499999999999,"durationTicks":120,"midi":62,"name":"D4","ticks":23400,"time":14.082500000000001,"velocity":0.7874015748031497},{"duration":0.06750000000000078,"durationTicks":120,"midi":67,"name":"G4","ticks":23520,"time":14.15,"velocity":0.7874015748031497},{"duration":0.067499999999999,"durationTicks":120,"midi":62,"name":"D4","ticks":23640,"time":14.217500000000001,"velocity":0.7874015748031497},{"duration":0.06750000000000078,"durationTicks":120,"midi":59,"name":"B3","ticks":23760,"time":14.285,"velocity":0.7874015748031497},{"duration":0.06750000000000078,"durationTicks":120,"midi":55,"name":"G3","ticks":23880,"time":14.352500000000001,"velocity":0.7874015748031497},{"duration":0.067499999999999,"durationTicks":120,"midi":55,"name":"G3","ticks":24000,"time":14.420000000000002,"velocity":0.7874015748031497},{"duration":0.06750000000000078,"durationTicks":120,"midi":59,"name":"B3","ticks":24120,"time":14.4875,"velocity":0.7874015748031497},{"duration":0.067499999999999,"durationTicks":120,"midi":62,"name":"D4","ticks":24240,"time":14.555000000000001,"velocity":0.7874015748031497},{"duration":0.06750000000000078,"durationTicks":120,"midi":66,"name":"F#4","ticks":24360,"time":14.6225,"velocity":0.7874015748031497},{"duration":0.067499999999999,"durationTicks":120,"midi":67,"name":"G4","ticks":24480,"time":14.690000000000001,"velocity":0.7874015748031497},{"duration":0.06750000000000078,"durationTicks":120,"midi":69,"name":"A4","ticks":24600,"time":14.7575,"velocity":0.7874015748031497},{"duration":0.067499999999999,"durationTicks":120,"midi":66,"name":"F#4","ticks":24720,"time":14.825000000000001,"velocity":0.7874015748031497},{"duration":0.06750000000000078,"durationTicks":120,"midi":67,"name":"G4","ticks":24840,"time":14.8925,"velocity":0.7874015748031497},{"duration":0.06750000000000078,"durationTicks":120,"midi":55,"name":"G3","ticks":24960,"time":14.96,"velocity":0.7874015748031497},{"duration":0.067499999999999,"durationTicks":120,"midi":57,"name":"A3","ticks":25080,"time":15.027500000000002,"velocity":0.7874015748031497},{"duration":0.06750000000000078,"durationTicks":120,"midi":59,"name":"B3","ticks":25200,"time":15.095,"velocity":0.7874015748031497},{"duration":0.067499999999999,"durationTicks":120,"midi":62,"name":"D4","ticks":25320,"time":15.162500000000001,"velocity":0.7874015748031497},{"duration":0.06750000000000078,"durationTicks":120,"midi":67,"name":"G4","ticks":25440,"time":15.23,"velocity":0.7874015748031497},{"duration":0.067499999999999,"durationTicks":120,"midi":62,"name":"D4","ticks":25560,"time":15.297500000000001,"velocity":0.7874015748031497},{"duration":0.06750000000000078,"durationTicks":120,"midi":59,"name":"B3","ticks":25680,"time":15.365,"velocity":0.7874015748031497},{"duration":0.067499999999999,"durationTicks":120,"midi":55,"name":"G3","ticks":25800,"time":15.432500000000001,"velocity":0.7874015748031497},{"duration":0.06750000000000078,"durationTicks":120,"midi":55,"name":"G3","ticks":25920,"time":15.5,"velocity":0.7874015748031497},{"duration":0.06750000000000078,"durationTicks":120,"midi":57,"name":"A3","ticks":26040,"time":15.5675,"velocity":0.7874015748031497},{"duration":0.067499999999999,"durationTicks":120,"midi":59,"name":"B3","ticks":26160,"time":15.635000000000002,"velocity":0.7874015748031497},{"duration":0.06750000000000078,"durationTicks":120,"midi":62,"name":"D4","ticks":26280,"time":15.7025,"velocity":0.7874015748031497},{"duration":0.067499999999999,"durationTicks":120,"midi":67,"name":"G4","ticks":26400,"time":15.770000000000001,"velocity":0.7874015748031497},{"duration":0.06750000000000078,"durationTicks":120,"midi":62,"name":"D4","ticks":26520,"time":15.8375,"velocity":0.7874015748031497},{"duration":0.067499999999999,"durationTicks":120,"midi":59,"name":"B3","ticks":26640,"time":15.905000000000001,"velocity":0.7874015748031497},{"duration":0.067499999999999,"durationTicks":120,"midi":55,"name":"G3","ticks":26760,"time":15.9725,"velocity":0.7874015748031497},{"duration":0.06750000000000256,"durationTicks":120,"midi":55,"name":"G3","ticks":26880,"time":16.04,"velocity":0.7874015748031497},{"duration":0.067499999999999,"durationTicks":120,"midi":57,"name":"A3","ticks":27000,"time":16.1075,"velocity":0.7874015748031497},{"duration":0.067499999999999,"durationTicks":120,"midi":59,"name":"B3","ticks":27120,"time":16.175,"velocity":0.7874015748031497},{"duration":0.06750000000000256,"durationTicks":120,"midi":62,"name":"D4","ticks":27240,"time":16.2425,"velocity":0.7874015748031497},{"duration":0.067499999999999,"durationTicks":120,"midi":67,"name":"G4","ticks":27360,"time":16.310000000000002,"velocity":0.7874015748031497},{"duration":0.067499999999999,"durationTicks":120,"midi":62,"name":"D4","ticks":27480,"time":16.3775,"velocity":0.7874015748031497},{"duration":0.06750000000000256,"durationTicks":120,"midi":59,"name":"B3","ticks":27600,"time":16.445,"velocity":0.7874015748031497},{"duration":0.067499999999999,"durationTicks":120,"midi":55,"name":"G3","ticks":27720,"time":16.512500000000003,"velocity":0.7874015748031497},{"duration":0.067499999999999,"durationTicks":120,"midi":55,"name":"G3","ticks":27840,"time":16.580000000000002,"velocity":0.7874015748031497},{"duration":0.06750000000000256,"durationTicks":120,"midi":57,"name":"A3","ticks":27960,"time":16.6475,"velocity":0.7874015748031497},{"duration":0.06749999999999545,"durationTicks":120,"midi":59,"name":"B3","ticks":28080,"time":16.715000000000003,"velocity":0.7874015748031497},{"duration":0.06750000000000256,"durationTicks":120,"midi":62,"name":"D4","ticks":28200,"time":16.7825,"velocity":0.7874015748031497},{"duration":0.067499999999999,"durationTicks":120,"midi":67,"name":"G4","ticks":28320,"time":16.85,"velocity":0.7874015748031497},{"duration":0.067499999999999,"durationTicks":120,"midi":62,"name":"D4","ticks":28440,"time":16.9175,"velocity":0.7874015748031497},{"duration":0.06750000000000256,"durationTicks":120,"midi":59,"name":"B3","ticks":28560,"time":16.985,"velocity":0.7874015748031497},{"duration":0.067499999999999,"durationTicks":120,"midi":55,"name":"G3","ticks":28680,"time":17.052500000000002,"velocity":0.7874015748031497},{"duration":0.067499999999999,"durationTicks":120,"midi":55,"name":"G3","ticks":28800,"time":17.12,"velocity":0.7874015748031497},{"duration":0.06750000000000256,"durationTicks":120,"midi":57,"name":"A3","ticks":28920,"time":17.1875,"velocity":0.7874015748031497},{"duration":0.067499999999999,"durationTicks":120,"midi":59,"name":"B3","ticks":29040,"time":17.255000000000003,"velocity":0.7874015748031497},{"duration":0.067499999999999,"durationTicks":120,"midi":62,"name":"D4","ticks":29160,"time":17.3225,"velocity":0.7874015748031497},{"duration":0.06750000000000256,"durationTicks":120,"midi":67,"name":"G4","ticks":29280,"time":17.39,"velocity":0.7874015748031497},{"duration":0.06749999999999545,"durationTicks":120,"midi":62,"name":"D4","ticks":29400,"time":17.457500000000003,"velocity":0.7874015748031497},{"duration":0.06750000000000256,"durationTicks":120,"midi":59,"name":"B3","ticks":29520,"time":17.525,"velocity":0.7874015748031497},{"duration":0.067499999999999,"durationTicks":120,"midi":55,"name":"G3","ticks":29640,"time":17.5925,"velocity":0.7874015748031497},{"duration":0.067499999999999,"durationTicks":120,"midi":55,"name":"G3","ticks":29760,"time":17.66,"velocity":0.7874015748031497},{"duration":0.06750000000000256,"durationTicks":120,"midi":57,"name":"A3","ticks":29880,"time":17.7275,"velocity":0.7874015748031497},{"duration":0.067499999999999,"durationTicks":120,"midi":59,"name":"B3","ticks":30000,"time":17.795,"velocity":0.7874015748031497},{"duration":0.067499999999999,"durationTicks":120,"midi":62,"name":"D4","ticks":30120,"time":17.8625,"velocity":0.7874015748031497},{"duration":0.06750000000000256,"durationTicks":120,"midi":67,"name":"G4","ticks":30240,"time":17.93,"velocity":0.7874015748031497},{"duration":0.067499999999999,"durationTicks":120,"midi":62,"name":"D4","ticks":30360,"time":17.997500000000002,"velocity":0.7874015748031497},{"duration":0.067499999999999,"durationTicks":120,"midi":59,"name":"B3","ticks":30480,"time":18.065,"velocity":0.7874015748031497},{"duration":0.06750000000000256,"durationTicks":120,"midi":55,"name":"G3","ticks":30600,"time":18.1325,"velocity":0.7874015748031497},{"duration":0.067499999999999,"durationTicks":120,"midi":55,"name":"G3","ticks":30720,"time":18.200000000000003,"velocity":0.7874015748031497},{"duration":0.067499999999999,"durationTicks":120,"midi":57,"name":"A3","ticks":30840,"time":18.267500000000002,"velocity":0.7874015748031497},{"duration":0.067499999999999,"durationTicks":120,"midi":59,"name":"B3","ticks":30960,"time":18.335,"velocity":0.7874015748031497},{"duration":0.06750000000000256,"durationTicks":120,"midi":62,"name":"D4","ticks":31080,"time":18.4025,"velocity":0.7874015748031497},{"duration":0.067499999999999,"durationTicks":120,"midi":67,"name":"G4","ticks":31200,"time":18.470000000000002,"velocity":0.7874015748031497},{"duration":0.067499999999999,"durationTicks":120,"midi":62,"name":"D4","ticks":31320,"time":18.5375,"velocity":0.7874015748031497},{"duration":0.067499999999999,"durationTicks":120,"midi":59,"name":"B3","ticks":31440,"time":18.605,"velocity":0.7874015748031497},{"duration":0.06750000000000256,"durationTicks":120,"midi":55,"name":"G3","ticks":31560,"time":18.6725,"velocity":0.7874015748031497},{"duration":0.067499999999999,"durationTicks":120,"midi":55,"name":"G3","ticks":31680,"time":18.740000000000002,"velocity":0.7874015748031497},{"duration":0.067499999999999,"durationTicks":120,"midi":67,"name":"G4","ticks":31680,"time":18.740000000000002,"velocity":0.7874015748031497},{"duration":0.067499999999999,"durationTicks":120,"midi":59,"name":"B3","ticks":31800,"time":18.8075,"velocity":0.7874015748031497},{"duration":0.067499999999999,"durationTicks":120,"midi":71,"name":"B4","ticks":31800,"time":18.8075,"velocity":0.7874015748031497},{"duration":0.06750000000000256,"durationTicks":120,"midi":62,"name":"D4","ticks":31920,"time":18.875,"velocity":0.7874015748031497},{"duration":0.06750000000000256,"durationTicks":120,"midi":74,"name":"D5","ticks":31920,"time":18.875,"velocity":0.7874015748031497},{"duration":0.067499999999999,"durationTicks":120,"midi":66,"name":"F#4","ticks":32040,"time":18.942500000000003,"velocity":0.7874015748031497},{"duration":0.067499999999999,"durationTicks":120,"midi":78,"name":"F#5","ticks":32040,"time":18.942500000000003,"velocity":0.7874015748031497},{"duration":0.067499999999999,"durationTicks":120,"midi":67,"name":"G4","ticks":32160,"time":19.01,"velocity":0.7874015748031497},{"duration":0.067499999999999,"durationTicks":120,"midi":79,"name":"G5","ticks":32160,"time":19.01,"velocity":0.7874015748031497},{"duration":0.067499999999999,"durationTicks":120,"midi":69,"name":"A4","ticks":32280,"time":19.0775,"velocity":0.7874015748031497},{"duration":0.067499999999999,"durationTicks":120,"midi":81,"name":"A5","ticks":32280,"time":19.0775,"velocity":0.7874015748031497},{"duration":0.06750000000000256,"durationTicks":120,"midi":66,"name":"F#4","ticks":32400,"time":19.145,"velocity":0.7874015748031497},{"duration":0.06750000000000256,"durationTicks":120,"midi":78,"name":"F#5","ticks":32400,"time":19.145,"velocity":0.7874015748031497},{"duration":0.067499999999999,"durationTicks":120,"midi":67,"name":"G4","ticks":32520,"time":19.212500000000002,"velocity":0.7874015748031497},{"duration":0.067499999999999,"durationTicks":120,"midi":79,"name":"G5","ticks":32520,"time":19.212500000000002,"velocity":0.7874015748031497},{"duration":0.067499999999999,"durationTicks":120,"midi":55,"name":"G3","ticks":32640,"time":19.28,"velocity":0.7874015748031497},{"duration":0.06750000000000256,"durationTicks":120,"midi":57,"name":"A3","ticks":32760,"time":19.3475,"velocity":0.7874015748031497},{"duration":0.067499999999999,"durationTicks":120,"midi":59,"name":"B3","ticks":32880,"time":19.415000000000003,"velocity":0.7874015748031497},{"duration":0.067499999999999,"durationTicks":120,"midi":62,"name":"D4","ticks":33000,"time":19.4825,"velocity":0.7874015748031497},{"duration":0.067499999999999,"durationTicks":120,"midi":67,"name":"G4","ticks":33120,"time":19.55,"velocity":0.7874015748031497},{"duration":0.06750000000000256,"durationTicks":120,"midi":62,"name":"D4","ticks":33240,"time":19.6175,"velocity":0.7874015748031497},{"duration":0.067499999999999,"durationTicks":120,"midi":59,"name":"B3","ticks":33360,"time":19.685000000000002,"velocity":0.7874015748031497},{"duration":0.067499999999999,"durationTicks":120,"midi":55,"name":"G3","ticks":33480,"time":19.7525,"velocity":0.7874015748031497},{"duration":0.06750000000000256,"durationTicks":120,"midi":55,"name":"G3","ticks":33600,"time":19.82,"velocity":0.7874015748031497},{"duration":0.067499999999999,"durationTicks":120,"midi":57,"name":"A3","ticks":33720,"time":19.887500000000003,"velocity":0.7874015748031497},{"duration":0.067499999999999,"durationTicks":120,"midi":59,"name":"B3","ticks":33840,"time":19.955000000000002,"velocity":0.7874015748031497},{"duration":0.067499999999999,"durationTicks":120,"midi":62,"name":"D4","ticks":33960,"time":20.0225,"velocity":0.7874015748031497},{"duration":0.06750000000000256,"durationTicks":120,"midi":67,"name":"G4","ticks":34080,"time":20.09,"velocity":0.7874015748031497},{"duration":0.067499999999999,"durationTicks":120,"midi":62,"name":"D4","ticks":34200,"time":20.157500000000002,"velocity":0.7874015748031497},{"duration":0.067499999999999,"durationTicks":120,"midi":59,"name":"B3","ticks":34320,"time":20.225,"velocity":0.7874015748031497},{"duration":0.067499999999999,"durationTicks":120,"midi":55,"name":"G3","ticks":34440,"time":20.2925,"velocity":0.7874015748031497},{"duration":0.06750000000000256,"durationTicks":120,"midi":55,"name":"G3","ticks":34560,"time":20.36,"velocity":0.7874015748031497},{"duration":0.067499999999999,"durationTicks":120,"midi":57,"name":"A3","ticks":34680,"time":20.427500000000002,"velocity":0.7874015748031497},{"duration":0.067499999999999,"durationTicks":120,"midi":59,"name":"B3","ticks":34800,"time":20.495,"velocity":0.7874015748031497},{"duration":0.06750000000000256,"durationTicks":120,"midi":62,"name":"D4","ticks":34920,"time":20.5625,"velocity":0.7874015748031497},{"duration":0.067499999999999,"durationTicks":120,"midi":67,"name":"G4","ticks":35040,"time":20.630000000000003,"velocity":0.7874015748031497},{"duration":0.067499999999999,"durationTicks":120,"midi":62,"name":"D4","ticks":35160,"time":20.6975,"velocity":0.7874015748031497},{"duration":0.067499999999999,"durationTicks":120,"midi":59,"name":"B3","ticks":35280,"time":20.765,"velocity":0.7874015748031497},{"duration":0.06750000000000256,"durationTicks":120,"midi":55,"name":"G3","ticks":35400,"time":20.8325,"velocity":0.7874015748031497},{"duration":0.067499999999999,"durationTicks":120,"midi":55,"name":"G3","ticks":35520,"time":20.900000000000002,"velocity":0.7874015748031497},{"duration":0.067499999999999,"durationTicks":120,"midi":57,"name":"A3","ticks":35640,"time":20.9675,"velocity":0.7874015748031497},{"duration":0.06750000000000256,"durationTicks":120,"midi":59,"name":"B3","ticks":35760,"time":21.035,"velocity":0.7874015748031497},{"duration":0.067499999999999,"durationTicks":120,"midi":62,"name":"D4","ticks":35880,"time":21.102500000000003,"velocity":0.7874015748031497},{"duration":0.067499999999999,"durationTicks":120,"midi":67,"name":"G4","ticks":36000,"time":21.17,"velocity":0.7874015748031497},{"duration":0.067499999999999,"durationTicks":120,"midi":62,"name":"D4","ticks":36120,"time":21.2375,"velocity":0.7874015748031497},{"duration":0.06750000000000256,"durationTicks":120,"midi":59,"name":"B3","ticks":36240,"time":21.305,"velocity":0.7874015748031497},{"duration":0.067499999999999,"durationTicks":120,"midi":55,"name":"G3","ticks":36360,"time":21.372500000000002,"velocity":0.7874015748031497},{"duration":0.067499999999999,"durationTicks":120,"midi":55,"name":"G3","ticks":36480,"time":21.44,"velocity":0.7874015748031497},{"duration":0.06750000000000256,"durationTicks":120,"midi":57,"name":"A3","ticks":36600,"time":21.5075,"velocity":0.7874015748031497},{"duration":0.067499999999999,"durationTicks":120,"midi":59,"name":"B3","ticks":36720,"time":21.575000000000003,"velocity":0.7874015748031497},{"duration":0.067499999999999,"durationTicks":120,"midi":62,"name":"D4","ticks":36840,"time":21.642500000000002,"velocity":0.7874015748031497},{"duration":0.067499999999999,"durationTicks":120,"midi":67,"name":"G4","ticks":36960,"time":21.71,"velocity":0.7874015748031497},{"duration":0.06750000000000256,"durationTicks":120,"midi":62,"name":"D4","ticks":37080,"time":21.7775,"velocity":0.7874015748031497},{"duration":0.067499999999999,"durationTicks":120,"midi":59,"name":"B3","ticks":37200,"time":21.845000000000002,"velocity":0.7874015748031497},{"duration":0.067499999999999,"durationTicks":120,"midi":55,"name":"G3","ticks":37320,"time":21.9125,"velocity":0.7874015748031497},{"duration":0.06750000000000256,"durationTicks":120,"midi":55,"name":"G3","ticks":37440,"time":21.98,"velocity":0.7874015748031497},{"duration":0.067499999999999,"durationTicks":120,"midi":57,"name":"A3","ticks":37560,"time":22.047500000000003,"velocity":0.7874015748031497},{"duration":0.067499999999999,"durationTicks":120,"midi":59,"name":"B3","ticks":37680,"time":22.115000000000002,"velocity":0.7874015748031497},{"duration":0.067499999999999,"durationTicks":120,"midi":62,"name":"D4","ticks":37800,"time":22.1825,"velocity":0.7874015748031497},{"duration":0.06750000000000256,"durationTicks":120,"midi":67,"name":"G4","ticks":37920,"time":22.25,"velocity":0.7874015748031497},{"duration":0.067499999999999,"durationTicks":120,"midi":62,"name":"D4","ticks":38040,"time":22.317500000000003,"velocity":0.7874015748031497},{"duration":0.067499999999999,"durationTicks":120,"midi":59,"name":"B3","ticks":38160,"time":22.385,"velocity":0.7874015748031497},{"duration":0.06750000000000256,"durationTicks":120,"midi":55,"name":"G3","ticks":38280,"time":22.4525,"velocity":0.7874015748031497},{"duration":0.067499999999999,"durationTicks":120,"midi":55,"name":"G3","ticks":38400,"time":22.520000000000003,"velocity":0.7874015748031497},{"duration":0.067499999999999,"durationTicks":120,"midi":57,"name":"A3","ticks":38520,"time":22.587500000000002,"velocity":0.7874015748031497},{"duration":0.067499999999999,"durationTicks":120,"midi":59,"name":"B3","ticks":38640,"time":22.655,"velocity":0.7874015748031497},{"duration":0.06750000000000256,"durationTicks":120,"midi":62,"name":"D4","ticks":38760,"time":22.7225,"velocity":0.7874015748031497},{"duration":0.067499999999999,"durationTicks":120,"midi":67,"name":"G4","ticks":38880,"time":22.790000000000003,"velocity":0.7874015748031497},{"duration":0.067499999999999,"durationTicks":120,"midi":62,"name":"D4","ticks":39000,"time":22.8575,"velocity":0.7874015748031497},{"duration":0.067499999999999,"durationTicks":120,"midi":59,"name":"B3","ticks":39120,"time":22.925,"velocity":0.7874015748031497},{"duration":0.06750000000000256,"durationTicks":120,"midi":55,"name":"G3","ticks":39240,"time":22.9925,"velocity":0.7874015748031497},{"duration":0.067499999999999,"durationTicks":120,"midi":55,"name":"G3","ticks":39360,"time":23.060000000000002,"velocity":0.7874015748031497},{"duration":0.067499999999999,"durationTicks":120,"midi":59,"name":"B3","ticks":39480,"time":23.1275,"velocity":0.7874015748031497},{"duration":0.06750000000000256,"durationTicks":120,"midi":62,"name":"D4","ticks":39600,"time":23.195,"velocity":0.7874015748031497},{"duration":0.067499999999999,"durationTicks":120,"midi":66,"name":"F#4","ticks":39720,"time":23.262500000000003,"velocity":0.7874015748031497},{"duration":0.067499999999999,"durationTicks":120,"midi":67,"name":"G4","ticks":39840,"time":23.330000000000002,"velocity":0.7874015748031497},{"duration":0.067499999999999,"durationTicks":120,"midi":69,"name":"A4","ticks":39960,"time":23.3975,"velocity":0.7874015748031497},{"duration":0.06750000000000256,"durationTicks":120,"midi":66,"name":"F#4","ticks":40080,"time":23.465,"velocity":0.7874015748031497},{"duration":0.067499999999999,"durationTicks":120,"midi":67,"name":"G4","ticks":40200,"time":23.532500000000002,"velocity":0.7874015748031497},{"duration":0.067499999999999,"durationTicks":120,"midi":55,"name":"G3","ticks":40320,"time":23.6,"velocity":0.7874015748031497},{"duration":0.06750000000000256,"durationTicks":120,"midi":57,"name":"A3","ticks":40440,"time":23.6675,"velocity":0.7874015748031497},{"duration":0.067499999999999,"durationTicks":120,"midi":59,"name":"B3","ticks":40560,"time":23.735000000000003,"velocity":0.7874015748031497},{"duration":0.067499999999999,"durationTicks":120,"midi":62,"name":"D4","ticks":40680,"time":23.802500000000002,"velocity":0.7874015748031497},{"duration":0.067499999999999,"durationTicks":120,"midi":67,"name":"G4","ticks":40800,"time":23.87,"velocity":0.7874015748031497},{"duration":0.06750000000000256,"durationTicks":120,"midi":62,"name":"D4","ticks":40920,"time":23.9375,"velocity":0.7874015748031497},{"duration":0.067499999999999,"durationTicks":120,"midi":59,"name":"B3","ticks":41040,"time":24.005000000000003,"velocity":0.7874015748031497},{"duration":0.067499999999999,"durationTicks":120,"midi":55,"name":"G3","ticks":41160,"time":24.0725,"velocity":0.7874015748031497},{"duration":0.06750000000000256,"durationTicks":120,"midi":55,"name":"G3","ticks":41280,"time":24.14,"velocity":0.7874015748031497},{"duration":0.067499999999999,"durationTicks":120,"midi":57,"name":"A3","ticks":41400,"time":24.207500000000003,"velocity":0.7874015748031497},{"duration":0.067499999999999,"durationTicks":120,"midi":59,"name":"B3","ticks":41520,"time":24.275000000000002,"velocity":0.7874015748031497},{"duration":0.067499999999999,"durationTicks":120,"midi":62,"name":"D4","ticks":41640,"time":24.3425,"velocity":0.7874015748031497},{"duration":0.06750000000000256,"durationTicks":120,"midi":67,"name":"G4","ticks":41760,"time":24.41,"velocity":0.7874015748031497},{"duration":0.067499999999999,"durationTicks":120,"midi":62,"name":"D4","ticks":41880,"time":24.477500000000003,"velocity":0.7874015748031497},{"duration":0.067499999999999,"durationTicks":120,"midi":59,"name":"B3","ticks":42000,"time":24.545,"velocity":0.7874015748031497},{"duration":0.067499999999999,"durationTicks":120,"midi":55,"name":"G3","ticks":42120,"time":24.6125,"velocity":0.7874015748031497},{"duration":0.06750000000000256,"durationTicks":120,"midi":55,"name":"G3","ticks":42240,"time":24.68,"velocity":0.7874015748031497},{"duration":0.067499999999999,"durationTicks":120,"midi":57,"name":"A3","ticks":42360,"time":24.747500000000002,"velocity":0.7874015748031497},{"duration":0.067499999999999,"durationTicks":120,"midi":59,"name":"B3","ticks":42480,"time":24.815,"velocity":0.7874015748031497},{"duration":0.06750000000000256,"durationTicks":120,"midi":62,"name":"D4","ticks":42600,"time":24.8825,"velocity":0.7874015748031497},{"duration":0.067499999999999,"durationTicks":120,"midi":67,"name":"G4","ticks":42720,"time":24.950000000000003,"velocity":0.7874015748031497},{"duration":0.067499999999999,"durationTicks":120,"midi":62,"name":"D4","ticks":42840,"time":25.017500000000002,"velocity":0.7874015748031497},{"duration":0.067499999999999,"durationTicks":120,"midi":59,"name":"B3","ticks":42960,"time":25.085,"velocity":0.7874015748031497},{"duration":0.06750000000000256,"durationTicks":120,"midi":55,"name":"G3","ticks":43080,"time":25.1525,"velocity":0.7874015748031497},{"duration":0.067499999999999,"durationTicks":120,"midi":55,"name":"G3","ticks":43200,"time":25.220000000000002,"velocity":0.7874015748031497},{"duration":0.067499999999999,"durationTicks":120,"midi":57,"name":"A3","ticks":43320,"time":25.2875,"velocity":0.7874015748031497},{"duration":0.06750000000000256,"durationTicks":120,"midi":59,"name":"B3","ticks":43440,"time":25.355,"velocity":0.7874015748031497},{"duration":0.067499999999999,"durationTicks":120,"midi":62,"name":"D4","ticks":43560,"time":25.422500000000003,"velocity":0.7874015748031497},{"duration":0.067499999999999,"durationTicks":120,"midi":67,"name":"G4","ticks":43680,"time":25.490000000000002,"velocity":0.7874015748031497},{"duration":0.067499999999999,"durationTicks":120,"midi":62,"name":"D4","ticks":43800,"time":25.5575,"velocity":0.7874015748031497},{"duration":0.06750000000000256,"durationTicks":120,"midi":59,"name":"B3","ticks":43920,"time":25.625,"velocity":0.7874015748031497},{"duration":0.067499999999999,"durationTicks":120,"midi":55,"name":"G3","ticks":44040,"time":25.692500000000003,"velocity":0.7874015748031497},{"duration":0.2699999999999996,"durationTicks":480,"midi":62,"name":"D4","ticks":44160,"time":25.76,"velocity":0.7874015748031497},{"duration":0.2699999999999996,"durationTicks":480,"midi":66,"name":"F#4","ticks":44640,"time":26.03,"velocity":0.7874015748031497},{"duration":0.2699999999999996,"durationTicks":480,"midi":69,"name":"A4","ticks":45120,"time":26.3,"velocity":0.7874015748031497},{"duration":0.2700000000000031,"durationTicks":480,"midi":72,"name":"C5","ticks":45600,"time":26.57,"velocity":0.7874015748031497},{"duration":0.2699999999999996,"durationTicks":480,"midi":74,"name":"D5","ticks":46080,"time":26.840000000000003,"velocity":0.7874015748031497},{"duration":0.2699999999999996,"durationTicks":480,"midi":78,"name":"F#5","ticks":46560,"time":27.110000000000003,"velocity":0.7874015748031497},{"duration":0.2699999999999996,"durationTicks":480,"midi":81,"name":"A5","ticks":47040,"time":27.380000000000003,"velocity":0.7874015748031497},{"duration":0.2699999999999996,"durationTicks":480,"midi":84,"name":"C6","ticks":47520,"time":27.650000000000002,"velocity":0.7874015748031497},{"duration":0.067499999999999,"durationTicks":120,"midi":86,"name":"D6","ticks":48000,"time":27.92,"velocity":0.7874015748031497},{"duration":0.06750000000000256,"durationTicks":120,"midi":83,"name":"B5","ticks":48120,"time":27.9875,"velocity":0.7874015748031497},{"duration":0.067499999999999,"durationTicks":120,"midi":79,"name":"G5","ticks":48240,"time":28.055000000000003,"velocity":0.7874015748031497},{"duration":0.067499999999999,"durationTicks":120,"midi":86,"name":"D6","ticks":48360,"time":28.122500000000002,"velocity":0.7874015748031497},{"duration":0.067499999999999,"durationTicks":120,"midi":83,"name":"B5","ticks":48480,"time":28.19,"velocity":0.7874015748031497},{"duration":0.06750000000000256,"durationTicks":120,"midi":79,"name":"G5","ticks":48600,"time":28.2575,"velocity":0.7874015748031497},{"duration":0.067499999999999,"durationTicks":120,"midi":86,"name":"D6","ticks":48720,"time":28.325000000000003,"velocity":0.7874015748031497},{"duration":0.067499999999999,"durationTicks":120,"midi":83,"name":"B5","ticks":48840,"time":28.392500000000002,"velocity":0.7874015748031497},{"duration":0.06750000000000256,"durationTicks":120,"midi":79,"name":"G5","ticks":48960,"time":28.46,"velocity":0.7874015748031497},{"duration":0.067499999999999,"durationTicks":120,"midi":84,"name":"C6","ticks":49080,"time":28.527500000000003,"velocity":0.7874015748031497},{"duration":0.067499999999999,"durationTicks":120,"midi":79,"name":"G5","ticks":49200,"time":28.595000000000002,"velocity":0.7874015748031497},{"duration":0.067499999999999,"durationTicks":120,"midi":79,"name":"G5","ticks":49320,"time":28.6625,"velocity":0.7874015748031497},{"duration":0.06750000000000256,"durationTicks":120,"midi":84,"name":"C6","ticks":49440,"time":28.73,"velocity":0.7874015748031497},{"duration":0.067499999999999,"durationTicks":120,"midi":79,"name":"G5","ticks":49560,"time":28.797500000000003,"velocity":0.7874015748031497},{"duration":0.067499999999999,"durationTicks":120,"midi":84,"name":"C6","ticks":49680,"time":28.865000000000002,"velocity":0.7874015748031497},{"duration":0.067499999999999,"durationTicks":120,"midi":79,"name":"G5","ticks":49800,"time":28.9325,"velocity":0.7874015748031497},{"duration":0.06750000000000256,"durationTicks":120,"midi":83,"name":"B5","ticks":49920,"time":29,"velocity":0.7874015748031497},{"duration":0.067499999999999,"durationTicks":120,"midi":79,"name":"G5","ticks":50040,"time":29.067500000000003,"velocity":0.7874015748031497},{"duration":0.067499999999999,"durationTicks":120,"midi":74,"name":"D5","ticks":50160,"time":29.135,"velocity":0.7874015748031497},{"duration":0.06750000000000256,"durationTicks":120,"midi":83,"name":"B5","ticks":50280,"time":29.2025,"velocity":0.7874015748031497},{"duration":0.067499999999999,"durationTicks":120,"midi":79,"name":"G5","ticks":50400,"time":29.270000000000003,"velocity":0.7874015748031497},{"duration":0.067499999999999,"durationTicks":120,"midi":74,"name":"D5","ticks":50520,"time":29.337500000000002,"velocity":0.7874015748031497},{"duration":0.067499999999999,"durationTicks":120,"midi":83,"name":"B5","ticks":50640,"time":29.405,"velocity":0.7874015748031497},{"duration":0.06750000000000256,"durationTicks":120,"midi":79,"name":"G5","ticks":50760,"time":29.4725,"velocity":0.7874015748031497},{"duration":0.067499999999999,"durationTicks":120,"midi":74,"name":"D5","ticks":50880,"time":29.540000000000003,"velocity":0.7874015748031497},{"duration":0.067499999999999,"durationTicks":120,"midi":78,"name":"F#5","ticks":51000,"time":29.6075,"velocity":0.7874015748031497},{"duration":0.06750000000000256,"durationTicks":120,"midi":74,"name":"D5","ticks":51120,"time":29.675,"velocity":0.7874015748031497},{"duration":0.067499999999999,"durationTicks":120,"midi":74,"name":"D5","ticks":51240,"time":29.742500000000003,"velocity":0.7874015748031497},{"duration":0.067499999999999,"durationTicks":120,"midi":78,"name":"F#5","ticks":51360,"time":29.810000000000002,"velocity":0.7874015748031497},{"duration":0.067499999999999,"durationTicks":120,"midi":74,"name":"D5","ticks":51480,"time":29.8775,"velocity":0.7874015748031497},{"duration":0.06750000000000256,"durationTicks":120,"midi":78,"name":"F#5","ticks":51600,"time":29.945,"velocity":0.7874015748031497},{"duration":0.067499999999999,"durationTicks":120,"midi":74,"name":"D5","ticks":51720,"time":30.012500000000003,"velocity":0.7874015748031497},{"duration":0.067499999999999,"durationTicks":120,"midi":81,"name":"A5","ticks":51840,"time":30.080000000000002,"velocity":0.7874015748031497},{"duration":0.06750000000000256,"durationTicks":120,"midi":76,"name":"E5","ticks":51960,"time":30.1475,"velocity":0.7874015748031497},{"duration":0.067499999999999,"durationTicks":120,"midi":71,"name":"B4","ticks":52080,"time":30.215000000000003,"velocity":0.7874015748031497},{"duration":0.067499999999999,"durationTicks":120,"midi":81,"name":"A5","ticks":52200,"time":30.282500000000002,"velocity":0.7874015748031497},{"duration":0.067499999999999,"durationTicks":120,"midi":76,"name":"E5","ticks":52320,"time":30.35,"velocity":0.7874015748031497},{"duration":0.06750000000000256,"durationTicks":120,"midi":71,"name":"B4","ticks":52440,"time":30.4175,"velocity":0.7874015748031497},{"duration":0.067499999999999,"durationTicks":120,"midi":81,"name":"A5","ticks":52560,"time":30.485000000000003,"velocity":0.7874015748031497},{"duration":0.067499999999999,"durationTicks":120,"midi":76,"name":"E5","ticks":52680,"time":30.552500000000002,"velocity":0.7874015748031497},{"duration":0.06750000000000256,"durationTicks":120,"midi":71,"name":"B4","ticks":52800,"time":30.62,"velocity":0.7874015748031497},{"duration":0.067499999999999,"durationTicks":120,"midi":79,"name":"G5","ticks":52920,"time":30.687500000000004,"velocity":0.7874015748031497},{"duration":0.067499999999999,"durationTicks":120,"midi":71,"name":"B4","ticks":53040,"time":30.755000000000003,"velocity":0.7874015748031497},{"duration":0.067499999999999,"durationTicks":120,"midi":71,"name":"B4","ticks":53160,"time":30.8225,"velocity":0.7874015748031497},{"duration":0.06750000000000256,"durationTicks":120,"midi":79,"name":"G5","ticks":53280,"time":30.89,"velocity":0.7874015748031497},{"duration":0.067499999999999,"durationTicks":120,"midi":71,"name":"B4","ticks":53400,"time":30.957500000000003,"velocity":0.7874015748031497},{"duration":0.067499999999999,"durationTicks":120,"midi":79,"name":"G5","ticks":53520,"time":31.025000000000002,"velocity":0.7874015748031497},{"duration":0.06750000000000256,"durationTicks":120,"midi":71,"name":"B4","ticks":53640,"time":31.0925,"velocity":0.7874015748031497},{"duration":0.067499999999999,"durationTicks":120,"midi":78,"name":"F#5","ticks":53760,"time":31.160000000000004,"velocity":0.7874015748031497},{"duration":0.067499999999999,"durationTicks":120,"midi":76,"name":"E5","ticks":53880,"time":31.227500000000003,"velocity":0.7874015748031497},{"duration":0.067499999999999,"durationTicks":120,"midi":71,"name":"B4","ticks":54000,"time":31.295,"velocity":0.7874015748031497},{"duration":0.06750000000000256,"durationTicks":120,"midi":78,"name":"F#5","ticks":54120,"time":31.3625,"velocity":0.7874015748031497},{"duration":0.067499999999999,"durationTicks":120,"midi":76,"name":"E5","ticks":54240,"time":31.430000000000003,"velocity":0.7874015748031497},{"duration":0.067499999999999,"durationTicks":120,"midi":71,"name":"B4","ticks":54360,"time":31.497500000000002,"velocity":0.7874015748031497},{"duration":0.067499999999999,"durationTicks":120,"midi":79,"name":"G5","ticks":54480,"time":31.565,"velocity":0.7874015748031497},{"duration":0.06750000000000256,"durationTicks":120,"midi":76,"name":"E5","ticks":54600,"time":31.6325,"velocity":0.7874015748031497},{"duration":0.134999999999998,"durationTicks":240,"midi":81,"name":"A5","ticks":54720,"time":31.700000000000003,"velocity":0.7874015748031497},{"duration":0.067499999999999,"durationTicks":120,"midi":74,"name":"D5","ticks":54840,"time":31.767500000000002,"velocity":0.6929133858267716},{"duration":0.13500000000000156,"durationTicks":240,"midi":83,"name":"B5","ticks":54960,"time":31.835,"velocity":0.7874015748031497},{"duration":0.067499999999999,"durationTicks":120,"midi":74,"name":"D5","ticks":55080,"time":31.902500000000003,"velocity":0.6929133858267716},{"duration":0.13500000000000156,"durationTicks":240,"midi":84,"name":"C6","ticks":55200,"time":31.970000000000002,"velocity":0.7874015748031497},{"duration":0.06750000000000256,"durationTicks":120,"midi":74,"name":"D5","ticks":55320,"time":32.0375,"velocity":0.6929133858267716},{"duration":0.134999999999998,"durationTicks":240,"midi":86,"name":"D6","ticks":55440,"time":32.105000000000004,"velocity":0.7874015748031497},{"duration":0.06750000000000256,"durationTicks":120,"midi":74,"name":"D5","ticks":55560,"time":32.1725,"velocity":0.6929133858267716},{"duration":0.06750000000000256,"durationTicks":120,"midi":88,"name":"E6","ticks":55680,"time":32.24,"velocity":0.7874015748031497},{"duration":0.06749999999999545,"durationTicks":120,"midi":84,"name":"C6","ticks":55800,"time":32.307500000000005,"velocity":0.7874015748031497},{"duration":0.06750000000000256,"durationTicks":120,"midi":79,"name":"G5","ticks":55920,"time":32.375,"velocity":0.7874015748031497},{"duration":0.06750000000000256,"durationTicks":120,"midi":88,"name":"E6","ticks":56040,"time":32.4425,"velocity":0.7874015748031497},{"duration":0.06749999999999545,"durationTicks":120,"midi":84,"name":"C6","ticks":56160,"time":32.510000000000005,"velocity":0.7874015748031497},{"duration":0.06750000000000256,"durationTicks":120,"midi":79,"name":"G5","ticks":56280,"time":32.5775,"velocity":0.7874015748031497},{"duration":0.06750000000000256,"durationTicks":120,"midi":88,"name":"E6","ticks":56400,"time":32.645,"velocity":0.7874015748031497},{"duration":0.06749999999999545,"durationTicks":120,"midi":84,"name":"C6","ticks":56520,"time":32.712500000000006,"velocity":0.7874015748031497},{"duration":0.06750000000000256,"durationTicks":120,"midi":90,"name":"F#6","ticks":56640,"time":32.78,"velocity":0.7874015748031497},{"duration":0.06750000000000256,"durationTicks":120,"midi":84,"name":"C6","ticks":56760,"time":32.847500000000004,"velocity":0.7874015748031497},{"duration":0.06749999999999545,"durationTicks":120,"midi":90,"name":"F#6","ticks":56880,"time":32.915000000000006,"velocity":0.7874015748031497},{"duration":0.06750000000000966,"durationTicks":120,"midi":91,"name":"G6","ticks":57120,"time":33.05,"velocity":0.7874015748031497},{"duration":0.06749999999999545,"durationTicks":120,"midi":84,"name":"C6","ticks":57240,"time":33.11750000000001,"velocity":0.7874015748031497},{"duration":0.06749999999999545,"durationTicks":120,"midi":91,"name":"G6","ticks":57360,"time":33.185,"velocity":0.7874015748031497},{"duration":0.06750000000000256,"durationTicks":120,"midi":93,"name":"A6","ticks":57600,"time":33.32,"velocity":0.7874015748031497},{"duration":0.06749999999999545,"durationTicks":120,"midi":84,"name":"C6","ticks":57720,"time":33.3875,"velocity":0.7874015748031497},{"duration":0.06750000000000256,"durationTicks":120,"midi":93,"name":"A6","ticks":57840,"time":33.455,"velocity":0.7874015748031497},{"duration":0.06749999999999545,"durationTicks":120,"midi":91,"name":"G6","ticks":58080,"time":33.59,"velocity":0.7874015748031497},{"duration":0.06750000000000256,"durationTicks":120,"midi":84,"name":"C6","ticks":58200,"time":33.6575,"velocity":0.7874015748031497},{"duration":0.06750000000000256,"durationTicks":120,"midi":91,"name":"G6","ticks":58320,"time":33.725,"velocity":0.7874015748031497},{"duration":0.06750000000000256,"durationTicks":120,"midi":90,"name":"F#6","ticks":58560,"time":33.86,"velocity":0.7874015748031497},{"duration":0.06750000000000256,"durationTicks":120,"midi":84,"name":"C6","ticks":58680,"time":33.9275,"velocity":0.7874015748031497},{"duration":0.06749999999999545,"durationTicks":120,"midi":90,"name":"F#6","ticks":58800,"time":33.995000000000005,"velocity":0.7874015748031497},{"duration":0.06750000000000256,"durationTicks":120,"midi":88,"name":"E6","ticks":59040,"time":34.13,"velocity":0.7874015748031497},{"duration":0.06749999999999545,"durationTicks":120,"midi":84,"name":"C6","ticks":59160,"time":34.197500000000005,"velocity":0.7874015748031497},{"duration":0.06750000000000256,"durationTicks":120,"midi":88,"name":"E6","ticks":59280,"time":34.265,"velocity":0.7874015748031497},{"duration":0.06749999999999545,"durationTicks":120,"midi":88,"name":"E6","ticks":59520,"time":34.400000000000006,"velocity":0.7874015748031497},{"duration":0.06750000000000256,"durationTicks":120,"midi":83,"name":"B5","ticks":59640,"time":34.4675,"velocity":0.7874015748031497},{"duration":0.06749999999999545,"durationTicks":120,"midi":88,"name":"E6","ticks":59760,"time":34.535000000000004,"velocity":0.7874015748031497},{"duration":0.06750000000000256,"durationTicks":120,"midi":86,"name":"D6","ticks":60000,"time":34.67,"velocity":0.7874015748031497},{"duration":0.06749999999999545,"durationTicks":120,"midi":83,"name":"B5","ticks":60120,"time":34.737500000000004,"velocity":0.7874015748031497},{"duration":0.06750000000000256,"durationTicks":120,"midi":86,"name":"D6","ticks":60240,"time":34.805,"velocity":0.7874015748031497},{"duration":0.06749999999999545,"durationTicks":120,"midi":85,"name":"C#6","ticks":60480,"time":34.940000000000005,"velocity":0.7874015748031497},{"duration":0.06750000000000256,"durationTicks":120,"midi":83,"name":"B5","ticks":60600,"time":35.0075,"velocity":0.7874015748031497},{"duration":0.06750000000000256,"durationTicks":120,"midi":85,"name":"C#6","ticks":60720,"time":35.075,"velocity":0.7874015748031497},{"duration":0.06750000000000256,"durationTicks":120,"midi":88,"name":"E6","ticks":60960,"time":35.21,"velocity":0.7874015748031497},{"duration":0.06749999999999545,"durationTicks":120,"midi":83,"name":"B5","ticks":61080,"time":35.2775,"velocity":0.7874015748031497},{"duration":0.06750000000000256,"durationTicks":120,"midi":88,"name":"E6","ticks":61200,"time":35.345,"velocity":0.7874015748031497},{"duration":0.06749999999999545,"durationTicks":120,"midi":86,"name":"D6","ticks":61440,"time":35.480000000000004,"velocity":0.7874015748031497},{"duration":0.06750000000000256,"durationTicks":120,"midi":83,"name":"B5","ticks":61560,"time":35.5475,"velocity":0.7874015748031497},{"duration":0.06750000000000256,"durationTicks":120,"midi":79,"name":"G5","ticks":61680,"time":35.615,"velocity":0.7874015748031497},{"duration":0.06749999999999545,"durationTicks":120,"midi":86,"name":"D6","ticks":61800,"time":35.682500000000005,"velocity":0.7874015748031497},{"duration":0.06750000000000256,"durationTicks":120,"midi":83,"name":"B5","ticks":61920,"time":35.75,"velocity":0.7874015748031497},{"duration":0.06750000000000256,"durationTicks":120,"midi":79,"name":"G5","ticks":62040,"time":35.8175,"velocity":0.7874015748031497},{"duration":0.06749999999999545,"durationTicks":120,"midi":86,"name":"D6","ticks":62160,"time":35.885000000000005,"velocity":0.7874015748031497},{"duration":0.06750000000000256,"durationTicks":120,"midi":83,"name":"B5","ticks":62280,"time":35.9525,"velocity":0.7874015748031497},{"duration":0.06750000000000256,"durationTicks":120,"midi":79,"name":"G5","ticks":62400,"time":36.02,"velocity":0.7874015748031497},{"duration":0.06749999999999545,"durationTicks":120,"midi":83,"name":"B5","ticks":62520,"time":36.087500000000006,"velocity":0.7874015748031497},{"duration":0.06750000000000256,"durationTicks":120,"midi":79,"name":"G5","ticks":62640,"time":36.155,"velocity":0.7874015748031497},{"duration":0.06749999999999545,"durationTicks":120,"midi":79,"name":"G5","ticks":62760,"time":36.222500000000004,"velocity":0.7874015748031497},{"duration":0.06750000000000256,"durationTicks":120,"midi":83,"name":"B5","ticks":62880,"time":36.29,"velocity":0.7874015748031497},{"duration":0.06750000000000256,"durationTicks":120,"midi":79,"name":"G5","ticks":63000,"time":36.3575,"velocity":0.7874015748031497},{"duration":0.06749999999999545,"durationTicks":120,"midi":83,"name":"B5","ticks":63120,"time":36.425000000000004,"velocity":0.7874015748031497},{"duration":0.06750000000000256,"durationTicks":120,"midi":79,"name":"G5","ticks":63240,"time":36.4925,"velocity":0.7874015748031497},{"duration":0.06750000000000256,"durationTicks":120,"midi":84,"name":"C6","ticks":63360,"time":36.56,"velocity":0.7874015748031497},{"duration":0.06749999999999545,"durationTicks":120,"midi":79,"name":"G5","ticks":63480,"time":36.627500000000005,"velocity":0.7874015748031497},{"duration":0.06750000000000256,"durationTicks":120,"midi":84,"name":"C6","ticks":63600,"time":36.695,"velocity":0.7874015748031497},{"duration":0.06749999999999545,"durationTicks":120,"midi":86,"name":"D6","ticks":63840,"time":36.830000000000005,"velocity":0.7874015748031497},{"duration":0.06750000000000256,"durationTicks":120,"midi":79,"name":"G5","ticks":63960,"time":36.8975,"velocity":0.7874015748031497},{"duration":0.06749999999999545,"durationTicks":120,"midi":86,"name":"D6","ticks":64080,"time":36.965,"velocity":0.7874015748031497},{"duration":0.06750000000000256,"durationTicks":120,"midi":88,"name":"E6","ticks":64320,"time":37.1,"velocity":0.7874015748031497},{"duration":0.06749999999999545,"durationTicks":120,"midi":79,"name":"G5","ticks":64440,"time":37.167500000000004,"velocity":0.7874015748031497},{"duration":0.06750000000000256,"durationTicks":120,"midi":88,"name":"E6","ticks":64560,"time":37.235,"velocity":0.7874015748031497},{"duration":0.06749999999999545,"durationTicks":120,"midi":91,"name":"G6","ticks":64800,"time":37.370000000000005,"velocity":0.7874015748031497},{"duration":0.06750000000000256,"durationTicks":120,"midi":79,"name":"G5","ticks":64920,"time":37.4375,"velocity":0.7874015748031497},{"duration":0.06750000000000256,"durationTicks":120,"midi":91,"name":"G6","ticks":65040,"time":37.505,"velocity":0.7874015748031497},{"duration":0.09000000000000341,"durationTicks":160,"midi":90,"name":"F#6","ticks":65280,"time":37.64,"velocity":0.7874015748031497},{"duration":0.0899999999999963,"durationTicks":160,"midi":91,"name":"G6","ticks":65440,"time":37.730000000000004,"velocity":0.7874015748031497},{"duration":0.09000000000000341,"durationTicks":160,"midi":90,"name":"F#6","ticks":65600,"time":37.82,"velocity":0.7874015748031497},{"duration":0.269999999999996,"durationTicks":480,"midi":88,"name":"E6","ticks":65760,"time":37.910000000000004,"velocity":0.7874015748031497},{"duration":0.06750000000000256,"durationTicks":120,"midi":86,"name":"D6","ticks":66240,"time":38.18,"velocity":0.7874015748031497},{"duration":0.06750000000000256,"durationTicks":120,"midi":79,"name":"G5","ticks":66360,"time":38.2475,"velocity":0.7874015748031497},{"duration":0.06749999999999545,"durationTicks":120,"midi":86,"name":"D6","ticks":66480,"time":38.315000000000005,"velocity":0.7874015748031497},{"duration":0.06750000000000256,"durationTicks":120,"midi":83,"name":"B5","ticks":66720,"time":38.45,"velocity":0.7874015748031497},{"duration":0.06749999999999545,"durationTicks":120,"midi":79,"name":"G5","ticks":66840,"time":38.517500000000005,"velocity":0.7874015748031497},{"duration":0.06750000000000256,"durationTicks":120,"midi":84,"name":"C6","ticks":66960,"time":38.585,"velocity":0.7874015748031497},{"duration":0.06750000000000256,"durationTicks":120,"midi":83,"name":"B5","ticks":67200,"time":38.72,"velocity":0.7874015748031497},{"duration":0.06750000000000256,"durationTicks":120,"midi":75,"name":"D#5","ticks":67320,"time":38.7875,"velocity":0.7874015748031497},{"duration":0.06749999999999545,"durationTicks":120,"midi":83,"name":"B5","ticks":67440,"time":38.855000000000004,"velocity":0.7874015748031497},{"duration":0.06750000000000256,"durationTicks":120,"midi":87,"name":"D#6","ticks":67680,"time":38.99,"velocity":0.7874015748031497},{"duration":0.06749999999999545,"durationTicks":120,"midi":75,"name":"D#5","ticks":67800,"time":39.057500000000005,"velocity":0.7874015748031497},{"duration":0.06750000000000256,"durationTicks":120,"midi":87,"name":"D#6","ticks":67920,"time":39.125,"velocity":0.7874015748031497},{"duration":0.06749999999999545,"durationTicks":120,"midi":90,"name":"F#6","ticks":68160,"time":39.260000000000005,"velocity":0.7874015748031497},{"duration":0.06750000000000256,"durationTicks":120,"midi":75,"name":"D#5","ticks":68280,"time":39.3275,"velocity":0.7874015748031497},{"duration":0.06750000000000256,"durationTicks":120,"midi":90,"name":"F#6","ticks":68400,"time":39.395,"velocity":0.7874015748031497},{"duration":0.06750000000000256,"durationTicks":120,"midi":83,"name":"B5","ticks":68640,"time":39.53,"velocity":0.7874015748031497},{"duration":0.06749999999999545,"durationTicks":120,"midi":75,"name":"D#5","ticks":68760,"time":39.597500000000004,"velocity":0.7874015748031497},{"duration":0.06750000000000256,"durationTicks":120,"midi":83,"name":"B5","ticks":68880,"time":39.665,"velocity":0.7874015748031497},{"duration":0.06749999999999545,"durationTicks":120,"midi":93,"name":"A6","ticks":69120,"time":39.800000000000004,"velocity":0.7874015748031497},{"duration":0.06750000000000256,"durationTicks":120,"midi":88,"name":"E6","ticks":69240,"time":39.8675,"velocity":0.7874015748031497},{"duration":0.06750000000000256,"durationTicks":120,"midi":93,"name":"A6","ticks":69360,"time":39.935,"velocity":0.7874015748031497},{"duration":0.06750000000000256,"durationTicks":120,"midi":91,"name":"G6","ticks":69600,"time":40.07,"velocity":0.7874015748031497},{"duration":0.06750000000000256,"durationTicks":120,"midi":88,"name":"E6","ticks":69720,"time":40.1375,"velocity":0.7874015748031497},{"duration":0.06749999999999545,"durationTicks":120,"midi":91,"name":"G6","ticks":69840,"time":40.205000000000005,"velocity":0.7874015748031497},{"duration":0.06750000000000256,"durationTicks":120,"midi":90,"name":"F#6","ticks":70080,"time":40.34,"velocity":0.7874015748031497},{"duration":0.06749999999999545,"durationTicks":120,"midi":88,"name":"E6","ticks":70200,"time":40.407500000000006,"velocity":0.7874015748031497},{"duration":0.06750000000000256,"durationTicks":120,"midi":90,"name":"F#6","ticks":70320,"time":40.475,"velocity":0.7874015748031497},{"duration":0.06750000000000256,"durationTicks":120,"midi":91,"name":"G6","ticks":70560,"time":40.61,"velocity":0.7874015748031497},{"duration":0.06750000000000256,"durationTicks":120,"midi":88,"name":"E6","ticks":70680,"time":40.6775,"velocity":0.7874015748031497},{"duration":0.06749999999999545,"durationTicks":120,"midi":91,"name":"G6","ticks":70800,"time":40.745000000000005,"velocity":0.7874015748031497},{"duration":0.06750000000000256,"durationTicks":120,"midi":95,"name":"B6","ticks":71040,"time":40.88,"velocity":0.7874015748031497},{"duration":0.06749999999999545,"durationTicks":120,"midi":91,"name":"G6","ticks":71160,"time":40.947500000000005,"velocity":0.7874015748031497},{"duration":0.06750000000000256,"durationTicks":120,"midi":88,"name":"E6","ticks":71280,"time":41.015,"velocity":0.7874015748031497},{"duration":0.06750000000000256,"durationTicks":120,"midi":95,"name":"B6","ticks":71400,"time":41.0825,"velocity":0.7874015748031497},{"duration":0.06749999999999545,"durationTicks":120,"midi":91,"name":"G6","ticks":71520,"time":41.150000000000006,"velocity":0.7874015748031497},{"duration":0.06750000000000256,"durationTicks":120,"midi":88,"name":"E6","ticks":71640,"time":41.2175,"velocity":0.7874015748031497},{"duration":0.06749999999999545,"durationTicks":120,"midi":95,"name":"B6","ticks":71760,"time":41.285000000000004,"velocity":0.7874015748031497},{"duration":0.06750000000000256,"durationTicks":120,"midi":91,"name":"G6","ticks":71880,"time":41.3525,"velocity":0.7874015748031497},{"duration":0.06750000000000256,"durationTicks":120,"midi":88,"name":"E6","ticks":72000,"time":41.42,"velocity":0.7874015748031497},{"duration":0.06749999999999545,"durationTicks":120,"midi":91,"name":"G6","ticks":72120,"time":41.487500000000004,"velocity":0.7874015748031497},{"duration":0.06750000000000256,"durationTicks":120,"midi":88,"name":"E6","ticks":72240,"time":41.555,"velocity":0.7874015748031497},{"duration":0.06750000000000256,"durationTicks":120,"midi":88,"name":"E6","ticks":72360,"time":41.6225,"velocity":0.7874015748031497},{"duration":0.06749999999999545,"durationTicks":120,"midi":91,"name":"G6","ticks":72480,"time":41.690000000000005,"velocity":0.6929133858267716},{"duration":0.06750000000000256,"durationTicks":120,"midi":88,"name":"E6","ticks":72600,"time":41.7575,"velocity":0.6929133858267716},{"duration":0.06750000000000256,"durationTicks":120,"midi":91,"name":"G6","ticks":72720,"time":41.825,"velocity":0.6929133858267716},{"duration":0.06749999999999545,"durationTicks":120,"midi":93,"name":"A6","ticks":72840,"time":41.892500000000005,"velocity":0.7874015748031497},{"duration":0.06750000000000256,"durationTicks":120,"midi":95,"name":"B6","ticks":72960,"time":41.96,"velocity":0.7874015748031497},{"duration":0.06750000000000256,"durationTicks":120,"midi":91,"name":"G6","ticks":73080,"time":42.0275,"velocity":0.7874015748031497},{"duration":0.06749999999999545,"durationTicks":120,"midi":95,"name":"B6","ticks":73200,"time":42.095000000000006,"velocity":0.7874015748031497},{"duration":0.06750000000000256,"durationTicks":120,"midi":91,"name":"G6","ticks":73320,"time":42.1625,"velocity":0.7874015748031497},{"duration":0.06749999999999545,"durationTicks":120,"midi":88,"name":"E6","ticks":73440,"time":42.230000000000004,"velocity":0.7874015748031497},{"duration":0.06750000000000256,"durationTicks":120,"midi":85,"name":"C#6","ticks":73560,"time":42.2975,"velocity":0.7874015748031497},{"duration":0.06750000000000256,"durationTicks":120,"midi":88,"name":"E6","ticks":73680,"time":42.365,"velocity":0.7874015748031497},{"duration":0.06749999999999545,"durationTicks":120,"midi":85,"name":"C#6","ticks":73800,"time":42.432500000000005,"velocity":0.7874015748031497},{"duration":0.06750000000000256,"durationTicks":120,"midi":95,"name":"B6","ticks":73920,"time":42.5,"velocity":0.7874015748031497},{"duration":0.06750000000000256,"durationTicks":120,"midi":91,"name":"G6","ticks":74040,"time":42.5675,"velocity":0.7874015748031497},{"duration":0.06749999999999545,"durationTicks":120,"midi":88,"name":"E6","ticks":74160,"time":42.635000000000005,"velocity":0.7874015748031497},{"duration":0.06750000000000256,"durationTicks":120,"midi":96,"name":"C7","ticks":74280,"time":42.7025,"velocity":0.7874015748031497},{"duration":0.06750000000000256,"durationTicks":120,"midi":91,"name":"G6","ticks":74400,"time":42.77,"velocity":0.7874015748031497},{"duration":0.06749999999999545,"durationTicks":120,"midi":88,"name":"E6","ticks":74520,"time":42.837500000000006,"velocity":0.7874015748031497},{"duration":0.06750000000000256,"durationTicks":120,"midi":91,"name":"G6","ticks":74640,"time":42.905,"velocity":0.7874015748031497},{"duration":0.06750000000000256,"durationTicks":120,"midi":88,"name":"E6","ticks":74760,"time":42.972500000000004,"velocity":0.6929133858267716},{"duration":0.06749999999999545,"durationTicks":120,"midi":95,"name":"B6","ticks":74880,"time":43.040000000000006,"velocity":0.6929133858267716},{"duration":0.06750000000000256,"durationTicks":120,"midi":91,"name":"G6","ticks":75000,"time":43.1075,"velocity":0.7874015748031497},{"duration":0.06749999999999545,"durationTicks":120,"midi":86,"name":"D6","ticks":75120,"time":43.175000000000004,"velocity":0.7874015748031497},{"duration":0.06750000000000256,"durationTicks":120,"midi":95,"name":"B6","ticks":75240,"time":43.2425,"velocity":0.7874015748031497},{"duration":0.06750000000000256,"durationTicks":120,"midi":91,"name":"G6","ticks":75360,"time":43.31,"velocity":0.7874015748031497},{"duration":0.06749999999999545,"durationTicks":120,"midi":86,"name":"D6","ticks":75480,"time":43.377500000000005,"velocity":0.7874015748031497},{"duration":0.06750000000000256,"durationTicks":120,"midi":95,"name":"B6","ticks":75600,"time":43.445,"velocity":0.7874015748031497},{"duration":0.06750000000000256,"durationTicks":120,"midi":91,"name":"G6","ticks":75720,"time":43.5125,"velocity":0.7874015748031497},{"duration":0.06749999999999545,"durationTicks":120,"midi":86,"name":"D6","ticks":75840,"time":43.580000000000005,"velocity":0.7874015748031497},{"duration":0.06750000000000256,"durationTicks":120,"midi":93,"name":"A6","ticks":75960,"time":43.6475,"velocity":0.7874015748031497},{"duration":0.06750000000000256,"durationTicks":120,"midi":90,"name":"F#6","ticks":76080,"time":43.715,"velocity":0.7874015748031497},{"duration":0.06749999999999545,"durationTicks":120,"midi":86,"name":"D6","ticks":76200,"time":43.782500000000006,"velocity":0.7874015748031497},{"duration":0.06750000000000256,"durationTicks":120,"midi":95,"name":"B6","ticks":76320,"time":43.85,"velocity":0.7874015748031497},{"duration":0.06749999999999545,"durationTicks":120,"midi":90,"name":"F#6","ticks":76440,"time":43.917500000000004,"velocity":0.7874015748031497},{"duration":0.06750000000000256,"durationTicks":120,"midi":93,"name":"A6","ticks":76560,"time":43.985,"velocity":0.7874015748031497},{"duration":0.06750000000000256,"durationTicks":120,"midi":90,"name":"F#6","ticks":76680,"time":44.0525,"velocity":0.6929133858267716},{"duration":0.06749999999999545,"durationTicks":120,"midi":98,"name":"D7","ticks":76800,"time":44.120000000000005,"velocity":0.7874015748031497},{"duration":0.06750000000000256,"durationTicks":120,"midi":91,"name":"G6","ticks":76920,"time":44.1875,"velocity":0.7874015748031497},{"duration":0.06750000000000256,"durationTicks":120,"midi":98,"name":"D7","ticks":77040,"time":44.255,"velocity":0.7874015748031497},{"duration":0.06750000000000256,"durationTicks":120,"midi":96,"name":"C7","ticks":77280,"time":44.39,"velocity":0.7874015748031497},{"duration":0.06750000000000256,"durationTicks":120,"midi":91,"name":"G6","ticks":77400,"time":44.4575,"velocity":0.7874015748031497},{"duration":0.06749999999999545,"durationTicks":120,"midi":96,"name":"C7","ticks":77520,"time":44.525000000000006,"velocity":0.7874015748031497},{"duration":0.06750000000000256,"durationTicks":120,"midi":95,"name":"B6","ticks":77760,"time":44.660000000000004,"velocity":0.7874015748031497},{"duration":0.06749999999999545,"durationTicks":120,"midi":91,"name":"G6","ticks":77880,"time":44.727500000000006,"velocity":0.7874015748031497},{"duration":0.06750000000000256,"durationTicks":120,"midi":95,"name":"B6","ticks":78000,"time":44.795,"velocity":0.7874015748031497},{"duration":0.06750000000000256,"durationTicks":120,"midi":93,"name":"A6","ticks":78240,"time":44.93,"velocity":0.7874015748031497},{"duration":0.06750000000000256,"durationTicks":120,"midi":91,"name":"G6","ticks":78360,"time":44.9975,"velocity":0.7874015748031497},{"duration":0.06749999999999545,"durationTicks":120,"midi":93,"name":"A6","ticks":78480,"time":45.065000000000005,"velocity":0.7874015748031497},{"duration":0.2700000000000031,"durationTicks":480,"midi":62,"name":"D4","ticks":78720,"time":45.2,"velocity":0.7874015748031497},{"duration":0.2700000000000031,"durationTicks":480,"midi":74,"name":"D5","ticks":78720,"time":45.2,"velocity":0.7874015748031497},{"duration":0.269999999999996,"durationTicks":480,"midi":66,"name":"F#4","ticks":79200,"time":45.470000000000006,"velocity":0.7874015748031497},{"duration":0.269999999999996,"durationTicks":480,"midi":78,"name":"F#5","ticks":79200,"time":45.470000000000006,"velocity":0.7874015748031497},{"duration":0.2700000000000031,"durationTicks":480,"midi":69,"name":"A4","ticks":79680,"time":45.74,"velocity":0.7874015748031497},{"duration":0.2700000000000031,"durationTicks":480,"midi":81,"name":"A5","ticks":79680,"time":45.74,"velocity":0.7874015748031497},{"duration":0.269999999999996,"durationTicks":480,"midi":72,"name":"C5","ticks":80160,"time":46.010000000000005,"velocity":0.7874015748031497},{"duration":0.269999999999996,"durationTicks":480,"midi":84,"name":"C6","ticks":80160,"time":46.010000000000005,"velocity":0.7874015748031497},{"duration":0.2700000000000031,"durationTicks":480,"midi":74,"name":"D5","ticks":80640,"time":46.28,"velocity":0.7874015748031497},{"duration":0.2700000000000031,"durationTicks":480,"midi":86,"name":"D6","ticks":80640,"time":46.28,"velocity":0.7874015748031497},{"duration":0.269999999999996,"durationTicks":480,"midi":78,"name":"F#5","ticks":81120,"time":46.550000000000004,"velocity":0.7874015748031497},{"duration":0.269999999999996,"durationTicks":480,"midi":90,"name":"F#6","ticks":81120,"time":46.550000000000004,"velocity":0.7874015748031497},{"duration":0.2700000000000031,"durationTicks":480,"midi":81,"name":"A5","ticks":81600,"time":46.82,"velocity":0.7874015748031497},{"duration":0.2700000000000031,"durationTicks":480,"midi":93,"name":"A6","ticks":81600,"time":46.82,"velocity":0.7874015748031497},{"duration":0.269999999999996,"durationTicks":480,"midi":84,"name":"C6","ticks":82080,"time":47.09,"velocity":0.7874015748031497},{"duration":0.269999999999996,"durationTicks":480,"midi":96,"name":"C7","ticks":82080,"time":47.09,"velocity":0.7874015748031497},{"duration":0.13500000000000512,"durationTicks":240,"midi":74,"name":"D5","ticks":82560,"time":47.36,"velocity":0.7874015748031497},{"duration":0.13500000000000512,"durationTicks":240,"midi":71,"name":"B4","ticks":82560,"time":47.36,"velocity":0.6929133858267716},{"duration":0.134999999999998,"durationTicks":240,"midi":74,"name":"D5","ticks":83040,"time":47.63,"velocity":0.7874015748031497},{"duration":0.134999999999998,"durationTicks":240,"midi":71,"name":"B4","ticks":83040,"time":47.63,"velocity":0.6929133858267716},{"duration":0.134999999999998,"durationTicks":240,"midi":76,"name":"E5","ticks":83520,"time":47.900000000000006,"velocity":0.7874015748031497},{"duration":0.134999999999998,"durationTicks":240,"midi":72,"name":"C5","ticks":83520,"time":47.900000000000006,"velocity":0.6929133858267716},{"duration":0.134999999999998,"durationTicks":240,"midi":74,"name":"D5","ticks":84000,"time":48.17,"velocity":0.7874015748031497},{"duration":0.134999999999998,"durationTicks":240,"midi":71,"name":"B4","ticks":84000,"time":48.17,"velocity":0.6929133858267716},{"duration":0.134999999999998,"durationTicks":240,"midi":72,"name":"C5","ticks":84480,"time":48.440000000000005,"velocity":0.7874015748031497},{"duration":0.134999999999998,"durationTicks":240,"midi":69,"name":"A4","ticks":84480,"time":48.440000000000005,"velocity":0.6929133858267716},{"duration":0.13500000000000512,"durationTicks":240,"midi":71,"name":"B4","ticks":84960,"time":48.71,"velocity":0.7874015748031497},{"duration":0.13500000000000512,"durationTicks":240,"midi":67,"name":"G4","ticks":84960,"time":48.71,"velocity":0.6929133858267716},{"duration":0.134999999999998,"durationTicks":240,"midi":69,"name":"A4","ticks":85440,"time":48.980000000000004,"velocity":0.7874015748031497},{"duration":0.134999999999998,"durationTicks":240,"midi":66,"name":"F#4","ticks":85440,"time":48.980000000000004,"velocity":0.6929133858267716},{"duration":0.13500000000000512,"durationTicks":240,"midi":66,"name":"F#4","ticks":85920,"time":49.25,"velocity":0.7874015748031497},{"duration":0.13500000000000512,"durationTicks":240,"midi":62,"name":"D4","ticks":85920,"time":49.25,"velocity":0.6929133858267716},{"duration":0.134999999999998,"durationTicks":240,"midi":71,"name":"B4","ticks":86400,"time":49.52,"velocity":0.7874015748031497},{"duration":0.134999999999998,"durationTicks":240,"midi":67,"name":"G4","ticks":86400,"time":49.52,"velocity":0.6929133858267716},{"duration":0.134999999999998,"durationTicks":240,"midi":76,"name":"E5","ticks":86880,"time":49.790000000000006,"velocity":0.7874015748031497},{"duration":0.134999999999998,"durationTicks":240,"midi":71,"name":"B4","ticks":86880,"time":49.790000000000006,"velocity":0.6929133858267716},{"duration":0.134999999999998,"durationTicks":240,"midi":79,"name":"G5","ticks":87360,"time":50.06,"velocity":0.7874015748031497},{"duration":0.134999999999998,"durationTicks":240,"midi":76,"name":"E5","ticks":87360,"time":50.06,"velocity":0.6929133858267716},{"duration":0.134999999999998,"durationTicks":240,"midi":79,"name":"G5","ticks":87840,"time":50.330000000000005,"velocity":0.7874015748031497},{"duration":0.134999999999998,"durationTicks":240,"midi":76,"name":"E5","ticks":87840,"time":50.330000000000005,"velocity":0.6929133858267716},{"duration":0.13500000000000512,"durationTicks":240,"midi":81,"name":"A5","ticks":88320,"time":50.6,"velocity":0.7874015748031497},{"duration":0.13500000000000512,"durationTicks":240,"midi":78,"name":"F#5","ticks":88320,"time":50.6,"velocity":0.6929133858267716},{"duration":0.134999999999998,"durationTicks":240,"midi":79,"name":"G5","ticks":88800,"time":50.870000000000005,"velocity":0.7874015748031497},{"duration":0.134999999999998,"durationTicks":240,"midi":76,"name":"E5","ticks":88800,"time":50.870000000000005,"velocity":0.6929133858267716},{"duration":0.13500000000000512,"durationTicks":240,"midi":78,"name":"F#5","ticks":89280,"time":51.14,"velocity":0.7874015748031497},{"duration":0.13500000000000512,"durationTicks":240,"midi":74,"name":"D5","ticks":89280,"time":51.14,"velocity":0.6929133858267716},{"duration":0.134999999999998,"durationTicks":240,"midi":74,"name":"D5","ticks":89760,"time":51.410000000000004,"velocity":0.7874015748031497},{"duration":0.134999999999998,"durationTicks":240,"midi":71,"name":"B4","ticks":89760,"time":51.410000000000004,"velocity":0.6929133858267716},{"duration":0.134999999999998,"durationTicks":240,"midi":76,"name":"E5","ticks":90240,"time":51.68000000000001,"velocity":0.7874015748031497},{"duration":0.134999999999998,"durationTicks":240,"midi":72,"name":"C5","ticks":90240,"time":51.68000000000001,"velocity":0.6929133858267716},{"duration":0.134999999999998,"durationTicks":240,"midi":78,"name":"F#5","ticks":90720,"time":51.95,"velocity":0.7874015748031497},{"duration":0.134999999999998,"durationTicks":240,"midi":74,"name":"D5","ticks":90720,"time":51.95,"velocity":0.6929133858267716},{"duration":0.134999999999998,"durationTicks":240,"midi":79,"name":"G5","ticks":91200,"time":52.220000000000006,"velocity":0.7874015748031497},{"duration":0.134999999999998,"durationTicks":240,"midi":76,"name":"E5","ticks":91200,"time":52.220000000000006,"velocity":0.6929133858267716},{"duration":0.134999999999998,"durationTicks":240,"midi":76,"name":"E5","ticks":91680,"time":52.49,"velocity":0.7874015748031497},{"duration":0.134999999999998,"durationTicks":240,"midi":72,"name":"C5","ticks":91680,"time":52.49,"velocity":0.6929133858267716},{"duration":0.134999999999998,"durationTicks":240,"midi":74,"name":"D5","ticks":92160,"time":52.760000000000005,"velocity":0.7874015748031497},{"duration":0.134999999999998,"durationTicks":240,"midi":71,"name":"B4","ticks":92160,"time":52.760000000000005,"velocity":0.6929133858267716},{"duration":0.13500000000000512,"durationTicks":240,"midi":81,"name":"A5","ticks":92640,"time":53.03,"velocity":0.7874015748031497},{"duration":0.13500000000000512,"durationTicks":240,"midi":78,"name":"F#5","ticks":92640,"time":53.03,"velocity":0.6929133858267716},{"duration":0.134999999999998,"durationTicks":240,"midi":79,"name":"G5","ticks":93120,"time":53.300000000000004,"velocity":0.7874015748031497},{"duration":0.134999999999998,"durationTicks":240,"midi":76,"name":"E5","ticks":93120,"time":53.300000000000004,"velocity":0.6929133858267716},{"duration":0.13500000000000512,"durationTicks":240,"midi":74,"name":"D5","ticks":93600,"time":53.57,"velocity":0.7874015748031497},{"duration":0.13500000000000512,"durationTicks":240,"midi":71,"name":"B4","ticks":93600,"time":53.57,"velocity":0.6929133858267716},{"duration":0.134999999999998,"durationTicks":240,"midi":72,"name":"C5","ticks":94080,"time":53.84,"velocity":0.7874015748031497},{"duration":0.134999999999998,"durationTicks":240,"midi":69,"name":"A4","ticks":94080,"time":53.84,"velocity":0.6929133858267716},{"duration":0.134999999999998,"durationTicks":240,"midi":74,"name":"D5","ticks":94560,"time":54.11000000000001,"velocity":0.7874015748031497},{"duration":0.134999999999998,"durationTicks":240,"midi":71,"name":"B4","ticks":94560,"time":54.11000000000001,"velocity":0.6929133858267716},{"duration":0.134999999999998,"durationTicks":240,"midi":76,"name":"E5","ticks":95040,"time":54.38,"velocity":0.7874015748031497},{"duration":0.134999999999998,"durationTicks":240,"midi":72,"name":"C5","ticks":95040,"time":54.38,"velocity":0.6929133858267716},{"duration":0.134999999999998,"durationTicks":240,"midi":79,"name":"G5","ticks":95520,"time":54.650000000000006,"velocity":0.7874015748031497},{"duration":0.134999999999998,"durationTicks":240,"midi":76,"name":"E5","ticks":95520,"time":54.650000000000006,"velocity":0.6929133858267716},{"duration":0.13500000000000512,"durationTicks":240,"midi":83,"name":"B5","ticks":96000,"time":54.92,"velocity":0.7874015748031497},{"duration":0.13500000000000512,"durationTicks":240,"midi":79,"name":"G5","ticks":96000,"time":54.92,"velocity":0.6929133858267716},{"duration":0.134999999999998,"durationTicks":240,"midi":81,"name":"A5","ticks":96480,"time":55.190000000000005,"velocity":0.7874015748031497},{"duration":0.134999999999998,"durationTicks":240,"midi":78,"name":"F#5","ticks":96480,"time":55.190000000000005,"velocity":0.6929133858267716},{"duration":0.13500000000000512,"durationTicks":240,"midi":79,"name":"G5","ticks":96960,"time":55.46,"velocity":0.7874015748031497},{"duration":0.13500000000000512,"durationTicks":240,"midi":76,"name":"E5","ticks":96960,"time":55.46,"velocity":0.6929133858267716},{"duration":0.134999999999998,"durationTicks":240,"midi":81,"name":"A5","ticks":97440,"time":55.730000000000004,"velocity":0.7874015748031497},{"duration":0.134999999999998,"durationTicks":240,"midi":78,"name":"F#5","ticks":97440,"time":55.730000000000004,"velocity":0.6929133858267716},{"duration":0.13500000000000512,"durationTicks":240,"midi":74,"name":"D5","ticks":97920,"time":56,"velocity":0.7874015748031497},{"duration":0.13500000000000512,"durationTicks":240,"midi":71,"name":"B4","ticks":97920,"time":56,"velocity":0.6929133858267716},{"duration":0.134999999999998,"durationTicks":240,"midi":74,"name":"D5","ticks":98400,"time":56.27,"velocity":0.7874015748031497},{"duration":0.134999999999998,"durationTicks":240,"midi":71,"name":"B4","ticks":98400,"time":56.27,"velocity":0.6929133858267716},{"duration":0.134999999999998,"durationTicks":240,"midi":76,"name":"E5","ticks":98880,"time":56.540000000000006,"velocity":0.7874015748031497},{"duration":0.134999999999998,"durationTicks":240,"midi":72,"name":"C5","ticks":98880,"time":56.540000000000006,"velocity":0.6929133858267716},{"duration":0.134999999999998,"durationTicks":240,"midi":74,"name":"D5","ticks":99360,"time":56.81,"velocity":0.7874015748031497},{"duration":0.134999999999998,"durationTicks":240,"midi":71,"name":"B4","ticks":99360,"time":56.81,"velocity":0.6929133858267716},{"duration":0.134999999999998,"durationTicks":240,"midi":72,"name":"C5","ticks":99840,"time":57.080000000000005,"velocity":0.7874015748031497},{"duration":0.134999999999998,"durationTicks":240,"midi":69,"name":"A4","ticks":99840,"time":57.080000000000005,"velocity":0.6929133858267716},{"duration":0.13500000000000512,"durationTicks":240,"midi":71,"name":"B4","ticks":100320,"time":57.35,"velocity":0.7874015748031497},{"duration":0.13500000000000512,"durationTicks":240,"midi":67,"name":"G4","ticks":100320,"time":57.35,"velocity":0.6929133858267716},{"duration":0.134999999999998,"durationTicks":240,"midi":69,"name":"A4","ticks":100800,"time":57.620000000000005,"velocity":0.7874015748031497},{"duration":0.134999999999998,"durationTicks":240,"midi":66,"name":"F#4","ticks":100800,"time":57.620000000000005,"velocity":0.6929133858267716},{"duration":0.13500000000000512,"durationTicks":240,"midi":66,"name":"F#4","ticks":101280,"time":57.89,"velocity":0.7874015748031497},{"duration":0.13500000000000512,"durationTicks":240,"midi":62,"name":"D4","ticks":101280,"time":57.89,"velocity":0.6929133858267716},{"duration":0.134999999999998,"durationTicks":240,"midi":71,"name":"B4","ticks":101760,"time":58.160000000000004,"velocity":0.7874015748031497},{"duration":0.134999999999998,"durationTicks":240,"midi":67,"name":"G4","ticks":101760,"time":58.160000000000004,"velocity":0.6929133858267716},{"duration":0.134999999999998,"durationTicks":240,"midi":76,"name":"E5","ticks":102240,"time":58.43000000000001,"velocity":0.7874015748031497},{"duration":0.134999999999998,"durationTicks":240,"midi":71,"name":"B4","ticks":102240,"time":58.43000000000001,"velocity":0.6929133858267716},{"duration":0.134999999999998,"durationTicks":240,"midi":79,"name":"G5","ticks":102720,"time":58.7,"velocity":0.7874015748031497},{"duration":0.134999999999998,"durationTicks":240,"midi":76,"name":"E5","ticks":102720,"time":58.7,"velocity":0.6929133858267716},{"duration":0.134999999999998,"durationTicks":240,"midi":79,"name":"G5","ticks":103200,"time":58.970000000000006,"velocity":0.7874015748031497},{"duration":0.134999999999998,"durationTicks":240,"midi":76,"name":"E5","ticks":103200,"time":58.970000000000006,"velocity":0.6929133858267716},{"duration":0.13500000000000512,"durationTicks":240,"midi":81,"name":"A5","ticks":103680,"time":59.24,"velocity":0.7874015748031497},{"duration":0.13500000000000512,"durationTicks":240,"midi":78,"name":"F#5","ticks":103680,"time":59.24,"velocity":0.6929133858267716},{"duration":0.134999999999998,"durationTicks":240,"midi":79,"name":"G5","ticks":104160,"time":59.510000000000005,"velocity":0.7874015748031497},{"duration":0.134999999999998,"durationTicks":240,"midi":76,"name":"E5","ticks":104160,"time":59.510000000000005,"velocity":0.6929133858267716},{"duration":0.13500000000000512,"durationTicks":240,"midi":78,"name":"F#5","ticks":104640,"time":59.78,"velocity":0.7874015748031497},{"duration":0.13500000000000512,"durationTicks":240,"midi":74,"name":"D5","ticks":104640,"time":59.78,"velocity":0.6929133858267716},{"duration":0.134999999999998,"durationTicks":240,"midi":74,"name":"D5","ticks":105120,"time":60.050000000000004,"velocity":0.7874015748031497},{"duration":0.134999999999998,"durationTicks":240,"midi":71,"name":"B4","ticks":105120,"time":60.050000000000004,"velocity":0.6929133858267716},{"duration":0.134999999999998,"durationTicks":240,"midi":76,"name":"E5","ticks":105600,"time":60.32000000000001,"velocity":0.7874015748031497},{"duration":0.134999999999998,"durationTicks":240,"midi":72,"name":"C5","ticks":105600,"time":60.32000000000001,"velocity":0.6929133858267716},{"duration":0.134999999999998,"durationTicks":240,"midi":78,"name":"F#5","ticks":106080,"time":60.59,"velocity":0.7874015748031497},{"duration":0.134999999999998,"durationTicks":240,"midi":74,"name":"D5","ticks":106080,"time":60.59,"velocity":0.6929133858267716},{"duration":0.134999999999998,"durationTicks":240,"midi":79,"name":"G5","ticks":106560,"time":60.86000000000001,"velocity":0.7874015748031497},{"duration":0.134999999999998,"durationTicks":240,"midi":76,"name":"E5","ticks":106560,"time":60.86000000000001,"velocity":0.6929133858267716},{"duration":0.134999999999998,"durationTicks":240,"midi":76,"name":"E5","ticks":107040,"time":61.13,"velocity":0.7874015748031497},{"duration":0.134999999999998,"durationTicks":240,"midi":72,"name":"C5","ticks":107040,"time":61.13,"velocity":0.6929133858267716},{"duration":0.134999999999998,"durationTicks":240,"midi":74,"name":"D5","ticks":107520,"time":61.400000000000006,"velocity":0.7874015748031497},{"duration":0.134999999999998,"durationTicks":240,"midi":71,"name":"B4","ticks":107520,"time":61.400000000000006,"velocity":0.6929133858267716},{"duration":0.13500000000000512,"durationTicks":240,"midi":81,"name":"A5","ticks":108000,"time":61.67,"velocity":0.7874015748031497},{"duration":0.13500000000000512,"durationTicks":240,"midi":78,"name":"F#5","ticks":108000,"time":61.67,"velocity":0.6929133858267716},{"duration":0.134999999999998,"durationTicks":240,"midi":79,"name":"G5","ticks":108480,"time":61.940000000000005,"velocity":0.7874015748031497},{"duration":0.134999999999998,"durationTicks":240,"midi":76,"name":"E5","ticks":108480,"time":61.940000000000005,"velocity":0.6929133858267716},{"duration":0.13500000000000512,"durationTicks":240,"midi":74,"name":"D5","ticks":108960,"time":62.21,"velocity":0.7874015748031497},{"duration":0.13500000000000512,"durationTicks":240,"midi":71,"name":"B4","ticks":108960,"time":62.21,"velocity":0.6929133858267716},{"duration":0.134999999999998,"durationTicks":240,"midi":60,"name":"C4","ticks":109440,"time":62.480000000000004,"velocity":0.6929133858267716},{"duration":0.134999999999998,"durationTicks":240,"midi":72,"name":"C5","ticks":109440,"time":62.480000000000004,"velocity":0.6929133858267716},{"duration":0.13500000000000512,"durationTicks":240,"midi":62,"name":"D4","ticks":109680,"time":62.615,"velocity":0.6929133858267716},{"duration":0.13500000000000512,"durationTicks":240,"midi":74,"name":"D5","ticks":109680,"time":62.615,"velocity":0.6929133858267716},{"duration":0.134999999999998,"durationTicks":240,"midi":64,"name":"E4","ticks":109920,"time":62.75000000000001,"velocity":0.6929133858267716},{"duration":0.134999999999998,"durationTicks":240,"midi":76,"name":"E5","ticks":109920,"time":62.75000000000001,"velocity":0.6929133858267716},{"duration":0.134999999999998,"durationTicks":240,"midi":66,"name":"F#4","ticks":110160,"time":62.885000000000005,"velocity":0.6929133858267716},{"duration":0.134999999999998,"durationTicks":240,"midi":78,"name":"F#5","ticks":110160,"time":62.885000000000005,"velocity":0.6929133858267716},{"duration":0.134999999999998,"durationTicks":240,"midi":67,"name":"G4","ticks":110400,"time":63.02,"velocity":0.6929133858267716},{"duration":0.134999999999998,"durationTicks":240,"midi":79,"name":"G5","ticks":110400,"time":63.02,"velocity":0.6929133858267716},{"duration":0.13500000000000512,"durationTicks":240,"midi":60,"name":"C4","ticks":110640,"time":63.155,"velocity":0.6929133858267716},{"duration":0.13500000000000512,"durationTicks":240,"midi":72,"name":"C5","ticks":110640,"time":63.155,"velocity":0.6929133858267716},{"duration":0.134999999999998,"durationTicks":240,"midi":64,"name":"E4","ticks":110880,"time":63.290000000000006,"velocity":0.6929133858267716},{"duration":0.134999999999998,"durationTicks":240,"midi":76,"name":"E5","ticks":110880,"time":63.290000000000006,"velocity":0.6929133858267716},{"duration":0.134999999999998,"durationTicks":240,"midi":67,"name":"G4","ticks":111120,"time":63.425000000000004,"velocity":0.6929133858267716},{"duration":0.134999999999998,"durationTicks":240,"midi":79,"name":"G5","ticks":111120,"time":63.425000000000004,"velocity":0.6929133858267716},{"duration":0.13500000000000512,"durationTicks":240,"midi":69,"name":"A4","ticks":111360,"time":63.56,"velocity":0.6929133858267716},{"duration":0.13500000000000512,"durationTicks":240,"midi":81,"name":"A5","ticks":111360,"time":63.56,"velocity":0.6929133858267716},{"duration":0.134999999999998,"durationTicks":240,"midi":62,"name":"D4","ticks":111600,"time":63.69500000000001,"velocity":0.6929133858267716},{"duration":0.134999999999998,"durationTicks":240,"midi":74,"name":"D5","ticks":111600,"time":63.69500000000001,"velocity":0.6929133858267716},{"duration":0.134999999999998,"durationTicks":240,"midi":66,"name":"F#4","ticks":111840,"time":63.830000000000005,"velocity":0.6929133858267716},{"duration":0.134999999999998,"durationTicks":240,"midi":78,"name":"F#5","ticks":111840,"time":63.830000000000005,"velocity":0.6929133858267716},{"duration":0.1349999999999909,"durationTicks":240,"midi":69,"name":"A4","ticks":112080,"time":63.965,"velocity":0.6929133858267716},{"duration":0.1349999999999909,"durationTicks":240,"midi":81,"name":"A5","ticks":112080,"time":63.965,"velocity":0.6929133858267716},{"duration":0.13500000000001933,"durationTicks":240,"midi":74,"name":"D5","ticks":112320,"time":64.1,"velocity":0.6929133858267716},{"duration":0.13500000000001933,"durationTicks":240,"midi":86,"name":"D6","ticks":112320,"time":64.1,"velocity":0.6929133858267716},{"duration":0.1349999999999909,"durationTicks":240,"midi":72,"name":"C5","ticks":112560,"time":64.23500000000001,"velocity":0.6929133858267716},{"duration":0.1349999999999909,"durationTicks":240,"midi":84,"name":"C6","ticks":112560,"time":64.23500000000001,"velocity":0.6929133858267716},{"duration":0.1349999999999909,"durationTicks":240,"midi":71,"name":"B4","ticks":112800,"time":64.37,"velocity":0.6929133858267716},{"duration":0.1349999999999909,"durationTicks":240,"midi":83,"name":"B5","ticks":112800,"time":64.37,"velocity":0.6929133858267716},{"duration":0.13500000000000512,"durationTicks":240,"midi":69,"name":"A4","ticks":113040,"time":64.505,"velocity":0.6929133858267716},{"duration":0.13500000000000512,"durationTicks":240,"midi":81,"name":"A5","ticks":113040,"time":64.505,"velocity":0.6929133858267716},{"duration":0.06750000000000966,"durationTicks":120,"midi":86,"name":"D6","ticks":113280,"time":64.64,"velocity":0.7874015748031497},{"duration":0.20250000000000057,"durationTicks":360,"midi":79,"name":"G5","ticks":113280,"time":64.64,"velocity":0.6929133858267716},{"duration":2.160000000000011,"durationTicks":3840,"midi":67,"name":"G4","ticks":113280,"time":64.64,"velocity":0.6929133858267716},{"duration":0.06749999999999545,"durationTicks":120,"midi":83,"name":"B5","ticks":113400,"time":64.70750000000001,"velocity":0.7874015748031497},{"duration":0.269999999999996,"durationTicks":480,"midi":79,"name":"G5","ticks":113520,"time":64.775,"velocity":0.7874015748031497},{"duration":0.06749999999999545,"durationTicks":120,"midi":86,"name":"D6","ticks":113640,"time":64.8425,"velocity":0.7874015748031497},{"duration":0.06750000000000966,"durationTicks":120,"midi":83,"name":"B5","ticks":113760,"time":64.91,"velocity":0.7874015748031497},{"duration":0.269999999999996,"durationTicks":480,"midi":79,"name":"G5","ticks":113880,"time":64.9775,"velocity":0.7874015748031497},{"duration":0.06750000000000966,"durationTicks":120,"midi":86,"name":"D6","ticks":114000,"time":65.045,"velocity":0.7874015748031497},{"duration":0.06749999999999545,"durationTicks":120,"midi":83,"name":"B5","ticks":114120,"time":65.11250000000001,"velocity":0.7874015748031497},{"duration":0.20250000000000057,"durationTicks":360,"midi":79,"name":"G5","ticks":114240,"time":65.18,"velocity":0.7874015748031497},{"duration":0.06749999999999545,"durationTicks":120,"midi":84,"name":"C6","ticks":114360,"time":65.2475,"velocity":0.7874015748031497},{"duration":0.13500000000000512,"durationTicks":240,"midi":79,"name":"G5","ticks":114480,"time":65.315,"velocity":0.7874015748031497},{"duration":0.20250000000000057,"durationTicks":360,"midi":79,"name":"G5","ticks":114600,"time":65.38250000000001,"velocity":0.7874015748031497},{"duration":0.06750000000000966,"durationTicks":120,"midi":84,"name":"C6","ticks":114720,"time":65.45,"velocity":0.7874015748031497},{"duration":0.20249999999998636,"durationTicks":360,"midi":79,"name":"G5","ticks":114840,"time":65.51750000000001,"velocity":0.7874015748031497},{"duration":0.06749999999999545,"durationTicks":120,"midi":84,"name":"C6","ticks":114960,"time":65.58500000000001,"velocity":0.7874015748031497},{"duration":0.20250000000000057,"durationTicks":360,"midi":79,"name":"G5","ticks":115080,"time":65.6525,"velocity":0.7874015748031497},{"duration":0.06749999999999545,"durationTicks":120,"midi":83,"name":"B5","ticks":115200,"time":65.72,"velocity":0.7874015748031497},{"duration":0.27000000000001023,"durationTicks":480,"midi":79,"name":"G5","ticks":115320,"time":65.7875,"velocity":0.7874015748031497},{"duration":0.06750000000000966,"durationTicks":120,"midi":74,"name":"D5","ticks":115440,"time":65.855,"velocity":0.7874015748031497},{"duration":0.06749999999999545,"durationTicks":120,"midi":83,"name":"B5","ticks":115560,"time":65.92250000000001,"velocity":0.7874015748031497},{"duration":0.269999999999996,"durationTicks":480,"midi":79,"name":"G5","ticks":115680,"time":65.99000000000001,"velocity":0.7874015748031497},{"duration":0.06749999999999545,"durationTicks":120,"midi":74,"name":"D5","ticks":115800,"time":66.0575,"velocity":0.7874015748031497},{"duration":0.06750000000000966,"durationTicks":120,"midi":83,"name":"B5","ticks":115920,"time":66.125,"velocity":0.7874015748031497},{"duration":0.6075000000000017,"durationTicks":1080,"midi":79,"name":"G5","ticks":116040,"time":66.19250000000001,"velocity":0.7874015748031497},{"duration":0.06749999999999545,"durationTicks":120,"midi":74,"name":"D5","ticks":116160,"time":66.26,"velocity":0.7874015748031497},{"duration":0.06750000000000966,"durationTicks":120,"midi":78,"name":"F#5","ticks":116280,"time":66.3275,"velocity":0.7874015748031497},{"duration":0.06749999999999545,"durationTicks":120,"midi":74,"name":"D5","ticks":116400,"time":66.39500000000001,"velocity":0.7874015748031497},{"duration":0.06749999999999545,"durationTicks":120,"midi":74,"name":"D5","ticks":116520,"time":66.4625,"velocity":0.7874015748031497},{"duration":0.06750000000000966,"durationTicks":120,"midi":78,"name":"F#5","ticks":116640,"time":66.53,"velocity":0.7874015748031497},{"duration":0.06749999999999545,"durationTicks":120,"midi":74,"name":"D5","ticks":116760,"time":66.59750000000001,"velocity":0.7874015748031497},{"duration":0.06749999999999545,"durationTicks":120,"midi":78,"name":"F#5","ticks":116880,"time":66.665,"velocity":0.7874015748031497},{"duration":0.06750000000000966,"durationTicks":120,"midi":74,"name":"D5","ticks":117000,"time":66.7325,"velocity":0.7874015748031497},{"duration":0.06749999999999545,"durationTicks":120,"midi":81,"name":"A5","ticks":117120,"time":66.80000000000001,"velocity":0.7874015748031497},{"duration":0.06749999999999545,"durationTicks":120,"midi":76,"name":"E5","ticks":117240,"time":66.8675,"velocity":0.7874015748031497},{"duration":0.06749999999999545,"durationTicks":120,"midi":71,"name":"B4","ticks":117360,"time":66.935,"velocity":0.7874015748031497},{"duration":0.06750000000000966,"durationTicks":120,"midi":81,"name":"A5","ticks":117480,"time":67.0025,"velocity":0.7874015748031497},{"duration":0.06749999999999545,"durationTicks":120,"midi":76,"name":"E5","ticks":117600,"time":67.07000000000001,"velocity":0.7874015748031497},{"duration":0.06749999999999545,"durationTicks":120,"midi":71,"name":"B4","ticks":117720,"time":67.1375,"velocity":0.7874015748031497},{"duration":0.06750000000000966,"durationTicks":120,"midi":81,"name":"A5","ticks":117840,"time":67.205,"velocity":0.7874015748031497},{"duration":0.06749999999999545,"durationTicks":120,"midi":76,"name":"E5","ticks":117960,"time":67.27250000000001,"velocity":0.7874015748031497},{"duration":0.06749999999999545,"durationTicks":120,"midi":71,"name":"B4","ticks":118080,"time":67.34,"velocity":0.7874015748031497},{"duration":0.06750000000000966,"durationTicks":120,"midi":79,"name":"G5","ticks":118200,"time":67.4075,"velocity":0.7874015748031497},{"duration":0.06749999999999545,"durationTicks":120,"midi":71,"name":"B4","ticks":118320,"time":67.47500000000001,"velocity":0.7874015748031497},{"duration":0.06749999999999545,"durationTicks":120,"midi":71,"name":"B4","ticks":118440,"time":67.5425,"velocity":0.7874015748031497},{"duration":0.06750000000000966,"durationTicks":120,"midi":79,"name":"G5","ticks":118560,"time":67.61,"velocity":0.7874015748031497},{"duration":0.06749999999999545,"durationTicks":120,"midi":71,"name":"B4","ticks":118680,"time":67.67750000000001,"velocity":0.7874015748031497},{"duration":0.06749999999999545,"durationTicks":120,"midi":79,"name":"G5","ticks":118800,"time":67.745,"velocity":0.7874015748031497},{"duration":0.06750000000000966,"durationTicks":120,"midi":71,"name":"B4","ticks":118920,"time":67.8125,"velocity":0.7874015748031497},{"duration":0.06749999999999545,"durationTicks":120,"midi":78,"name":"F#5","ticks":119040,"time":67.88000000000001,"velocity":0.7874015748031497},{"duration":0.06749999999999545,"durationTicks":120,"midi":76,"name":"E5","ticks":119160,"time":67.9475,"velocity":0.7874015748031497},{"duration":0.06750000000000966,"durationTicks":120,"midi":71,"name":"B4","ticks":119280,"time":68.015,"velocity":0.7874015748031497},{"duration":0.06749999999999545,"durationTicks":120,"midi":78,"name":"F#5","ticks":119400,"time":68.08250000000001,"velocity":0.7874015748031497},{"duration":0.06749999999999545,"durationTicks":120,"midi":76,"name":"E5","ticks":119520,"time":68.15,"velocity":0.7874015748031497},{"duration":0.06750000000000966,"durationTicks":120,"midi":71,"name":"B4","ticks":119640,"time":68.2175,"velocity":0.7874015748031497},{"duration":0.06749999999999545,"durationTicks":120,"midi":79,"name":"G5","ticks":119760,"time":68.28500000000001,"velocity":0.7874015748031497},{"duration":0.06749999999999545,"durationTicks":120,"midi":76,"name":"E5","ticks":119880,"time":68.3525,"velocity":0.7874015748031497},{"duration":0.13500000000000512,"durationTicks":240,"midi":81,"name":"A5","ticks":120000,"time":68.42,"velocity":0.7874015748031497},{"duration":0.06749999999999545,"durationTicks":120,"midi":74,"name":"D5","ticks":120120,"time":68.48750000000001,"velocity":0.6929133858267716},{"duration":0.1349999999999909,"durationTicks":240,"midi":83,"name":"B5","ticks":120240,"time":68.555,"velocity":0.7874015748031497},{"duration":0.06749999999999545,"durationTicks":120,"midi":74,"name":"D5","ticks":120360,"time":68.6225,"velocity":0.6929133858267716},{"duration":0.13500000000000512,"durationTicks":240,"midi":84,"name":"C6","ticks":120480,"time":68.69,"velocity":0.7874015748031497},{"duration":0.06749999999999545,"durationTicks":120,"midi":74,"name":"D5","ticks":120600,"time":68.75750000000001,"velocity":0.6929133858267716},{"duration":0.13500000000000512,"durationTicks":240,"midi":86,"name":"D6","ticks":120720,"time":68.825,"velocity":0.7874015748031497},{"duration":0.06750000000000966,"durationTicks":120,"midi":74,"name":"D5","ticks":120840,"time":68.8925,"velocity":0.6929133858267716},{"duration":0.06749999999999545,"durationTicks":120,"midi":88,"name":"E6","ticks":120960,"time":68.96000000000001,"velocity":0.7874015748031497},{"duration":0.06749999999999545,"durationTicks":120,"midi":84,"name":"C6","ticks":121080,"time":69.0275,"velocity":0.7874015748031497},{"duration":0.06750000000000966,"durationTicks":120,"midi":79,"name":"G5","ticks":121200,"time":69.095,"velocity":0.7874015748031497},{"duration":0.06749999999999545,"durationTicks":120,"midi":88,"name":"E6","ticks":121320,"time":69.16250000000001,"velocity":0.7874015748031497},{"duration":0.06749999999999545,"durationTicks":120,"midi":84,"name":"C6","ticks":121440,"time":69.23,"velocity":0.7874015748031497},{"duration":0.06750000000000966,"durationTicks":120,"midi":79,"name":"G5","ticks":121560,"time":69.2975,"velocity":0.7874015748031497},{"duration":0.06749999999999545,"durationTicks":120,"midi":88,"name":"E6","ticks":121680,"time":69.36500000000001,"velocity":0.7874015748031497},{"duration":0.06749999999999545,"durationTicks":120,"midi":84,"name":"C6","ticks":121800,"time":69.4325,"velocity":0.7874015748031497},{"duration":0.06750000000000966,"durationTicks":120,"midi":90,"name":"F#6","ticks":121920,"time":69.5,"velocity":0.7874015748031497},{"duration":0.06749999999999545,"durationTicks":120,"midi":84,"name":"C6","ticks":122040,"time":69.56750000000001,"velocity":0.7874015748031497},{"duration":0.06749999999999545,"durationTicks":120,"midi":90,"name":"F#6","ticks":122160,"time":69.635,"velocity":0.7874015748031497},{"duration":0.06749999999999545,"durationTicks":120,"midi":91,"name":"G6","ticks":122400,"time":69.77000000000001,"velocity":0.7874015748031497},{"duration":0.06749999999999545,"durationTicks":120,"midi":84,"name":"C6","ticks":122520,"time":69.8375,"velocity":0.7874015748031497},{"duration":0.06750000000000966,"durationTicks":120,"midi":91,"name":"G6","ticks":122640,"time":69.905,"velocity":0.7874015748031497},{"duration":0.06749999999999545,"durationTicks":120,"midi":93,"name":"A6","ticks":122880,"time":70.04,"velocity":0.7874015748031497},{"duration":0.06750000000000966,"durationTicks":120,"midi":84,"name":"C6","ticks":123000,"time":70.1075,"velocity":0.7874015748031497},{"duration":0.06749999999999545,"durationTicks":120,"midi":93,"name":"A6","ticks":123120,"time":70.17500000000001,"velocity":0.7874015748031497},{"duration":0.06749999999999545,"durationTicks":120,"midi":91,"name":"G6","ticks":123360,"time":70.31,"velocity":0.7874015748031497},{"duration":0.06750000000000966,"durationTicks":120,"midi":84,"name":"C6","ticks":123480,"time":70.3775,"velocity":0.7874015748031497},{"duration":0.06749999999999545,"durationTicks":120,"midi":91,"name":"G6","ticks":123600,"time":70.44500000000001,"velocity":0.7874015748031497},{"duration":0.06750000000000966,"durationTicks":120,"midi":90,"name":"F#6","ticks":123840,"time":70.58,"velocity":0.7874015748031497},{"duration":0.06749999999999545,"durationTicks":120,"midi":84,"name":"C6","ticks":123960,"time":70.64750000000001,"velocity":0.7874015748031497},{"duration":0.06749999999999545,"durationTicks":120,"midi":90,"name":"F#6","ticks":124080,"time":70.715,"velocity":0.7874015748031497},{"duration":0.06749999999999545,"durationTicks":120,"midi":88,"name":"E6","ticks":124320,"time":70.85000000000001,"velocity":0.7874015748031497},{"duration":0.06749999999999545,"durationTicks":120,"midi":84,"name":"C6","ticks":124440,"time":70.9175,"velocity":0.7874015748031497},{"duration":0.06750000000000966,"durationTicks":120,"midi":88,"name":"E6","ticks":124560,"time":70.985,"velocity":0.7874015748031497},{"duration":0.06749999999999545,"durationTicks":120,"midi":88,"name":"E6","ticks":124800,"time":71.12,"velocity":0.7874015748031497},{"duration":0.06750000000000966,"durationTicks":120,"midi":83,"name":"B5","ticks":124920,"time":71.1875,"velocity":0.7874015748031497},{"duration":0.06749999999999545,"durationTicks":120,"midi":88,"name":"E6","ticks":125040,"time":71.25500000000001,"velocity":0.7874015748031497},{"duration":0.06750000000000966,"durationTicks":120,"midi":86,"name":"D6","ticks":125280,"time":71.39,"velocity":0.7874015748031497},{"duration":0.06749999999999545,"durationTicks":120,"midi":83,"name":"B5","ticks":125400,"time":71.45750000000001,"velocity":0.7874015748031497},{"duration":0.06749999999999545,"durationTicks":120,"midi":86,"name":"D6","ticks":125520,"time":71.525,"velocity":0.7874015748031497},{"duration":0.06749999999999545,"durationTicks":120,"midi":85,"name":"C#6","ticks":125760,"time":71.66000000000001,"velocity":0.7874015748031497},{"duration":0.06749999999999545,"durationTicks":120,"midi":83,"name":"B5","ticks":125880,"time":71.7275,"velocity":0.7874015748031497},{"duration":0.06750000000000966,"durationTicks":120,"midi":85,"name":"C#6","ticks":126000,"time":71.795,"velocity":0.7874015748031497},{"duration":0.06749999999999545,"durationTicks":120,"midi":88,"name":"E6","ticks":126240,"time":71.93,"velocity":0.7874015748031497},{"duration":0.06749999999999545,"durationTicks":120,"midi":83,"name":"B5","ticks":126360,"time":71.9975,"velocity":0.7874015748031497},{"duration":0.06750000000000966,"durationTicks":120,"midi":88,"name":"E6","ticks":126480,"time":72.065,"velocity":0.7874015748031497},{"duration":0.06749999999999545,"durationTicks":120,"midi":86,"name":"D6","ticks":126720,"time":72.2,"velocity":0.7874015748031497},{"duration":0.06750000000000966,"durationTicks":120,"midi":83,"name":"B5","ticks":126840,"time":72.2675,"velocity":0.7874015748031497},{"duration":0.06749999999999545,"durationTicks":120,"midi":79,"name":"G5","ticks":126960,"time":72.33500000000001,"velocity":0.7874015748031497},{"duration":0.06749999999999545,"durationTicks":120,"midi":86,"name":"D6","ticks":127080,"time":72.4025,"velocity":0.7874015748031497},{"duration":0.06750000000000966,"durationTicks":120,"midi":83,"name":"B5","ticks":127200,"time":72.47,"velocity":0.7874015748031497},{"duration":0.06749999999999545,"durationTicks":120,"midi":79,"name":"G5","ticks":127320,"time":72.53750000000001,"velocity":0.7874015748031497},{"duration":0.06749999999999545,"durationTicks":120,"midi":86,"name":"D6","ticks":127440,"time":72.605,"velocity":0.7874015748031497},{"duration":0.06750000000000966,"durationTicks":120,"midi":83,"name":"B5","ticks":127560,"time":72.6725,"velocity":0.7874015748031497},{"duration":0.06749999999999545,"durationTicks":120,"midi":79,"name":"G5","ticks":127680,"time":72.74000000000001,"velocity":0.7874015748031497},{"duration":0.06749999999999545,"durationTicks":120,"midi":83,"name":"B5","ticks":127800,"time":72.8075,"velocity":0.7874015748031497},{"duration":0.06750000000000966,"durationTicks":120,"midi":79,"name":"G5","ticks":127920,"time":72.875,"velocity":0.7874015748031497},{"duration":0.06749999999999545,"durationTicks":120,"midi":79,"name":"G5","ticks":128040,"time":72.94250000000001,"velocity":0.7874015748031497},{"duration":0.06749999999999545,"durationTicks":120,"midi":83,"name":"B5","ticks":128160,"time":73.01,"velocity":0.7874015748031497},{"duration":0.06750000000000966,"durationTicks":120,"midi":79,"name":"G5","ticks":128280,"time":73.0775,"velocity":0.7874015748031497},{"duration":0.06749999999999545,"durationTicks":120,"midi":83,"name":"B5","ticks":128400,"time":73.14500000000001,"velocity":0.7874015748031497},{"duration":0.06749999999999545,"durationTicks":120,"midi":79,"name":"G5","ticks":128520,"time":73.2125,"velocity":0.7874015748031497},{"duration":0.06750000000000966,"durationTicks":120,"midi":84,"name":"C6","ticks":128640,"time":73.28,"velocity":0.7874015748031497},{"duration":0.06749999999999545,"durationTicks":120,"midi":79,"name":"G5","ticks":128760,"time":73.34750000000001,"velocity":0.7874015748031497},{"duration":0.06749999999999545,"durationTicks":120,"midi":84,"name":"C6","ticks":128880,"time":73.415,"velocity":0.7874015748031497},{"duration":0.06749999999999545,"durationTicks":120,"midi":86,"name":"D6","ticks":129120,"time":73.55000000000001,"velocity":0.7874015748031497},{"duration":0.06749999999999545,"durationTicks":120,"midi":79,"name":"G5","ticks":129240,"time":73.6175,"velocity":0.7874015748031497},{"duration":0.06749999999999545,"durationTicks":120,"midi":86,"name":"D6","ticks":129360,"time":73.685,"velocity":0.7874015748031497},{"duration":0.06749999999999545,"durationTicks":120,"midi":88,"name":"E6","ticks":129600,"time":73.82000000000001,"velocity":0.7874015748031497},{"duration":0.06749999999999545,"durationTicks":120,"midi":79,"name":"G5","ticks":129720,"time":73.8875,"velocity":0.7874015748031497},{"duration":0.06750000000000966,"durationTicks":120,"midi":88,"name":"E6","ticks":129840,"time":73.955,"velocity":0.7874015748031497},{"duration":0.06749999999999545,"durationTicks":120,"midi":91,"name":"G6","ticks":130080,"time":74.09,"velocity":0.7874015748031497},{"duration":0.06750000000000966,"durationTicks":120,"midi":79,"name":"G5","ticks":130200,"time":74.1575,"velocity":0.7874015748031497},{"duration":0.06749999999999545,"durationTicks":120,"midi":91,"name":"G6","ticks":130320,"time":74.22500000000001,"velocity":0.7874015748031497},{"duration":0.09000000000000341,"durationTicks":160,"midi":90,"name":"F#6","ticks":130560,"time":74.36,"velocity":0.7874015748031497},{"duration":0.09000000000000341,"durationTicks":160,"midi":91,"name":"G6","ticks":130720,"time":74.45,"velocity":0.7874015748031497},{"duration":0.09000000000000341,"durationTicks":160,"midi":90,"name":"F#6","ticks":130880,"time":74.54,"velocity":0.7874015748031497},{"duration":0.269999999999996,"durationTicks":480,"midi":88,"name":"E6","ticks":131040,"time":74.63000000000001,"velocity":0.7874015748031497},{"duration":0.06749999999999545,"durationTicks":120,"midi":86,"name":"D6","ticks":131520,"time":74.9,"velocity":0.7874015748031497},{"duration":0.06750000000000966,"durationTicks":120,"midi":79,"name":"G5","ticks":131640,"time":74.9675,"velocity":0.7874015748031497},{"duration":0.06749999999999545,"durationTicks":120,"midi":86,"name":"D6","ticks":131760,"time":75.03500000000001,"velocity":0.7874015748031497},{"duration":0.06750000000000966,"durationTicks":120,"midi":83,"name":"B5","ticks":132000,"time":75.17,"velocity":0.7874015748031497},{"duration":0.06749999999999545,"durationTicks":120,"midi":79,"name":"G5","ticks":132120,"time":75.23750000000001,"velocity":0.7874015748031497},{"duration":0.06749999999999545,"durationTicks":120,"midi":84,"name":"C6","ticks":132240,"time":75.305,"velocity":0.7874015748031497},{"duration":0.06750000000000966,"durationTicks":120,"midi":83,"name":"B5","ticks":132480,"time":75.44,"velocity":0.7874015748031497},{"duration":0.06749999999999545,"durationTicks":120,"midi":75,"name":"D#5","ticks":132600,"time":75.50750000000001,"velocity":0.7874015748031497},{"duration":0.06749999999999545,"durationTicks":120,"midi":83,"name":"B5","ticks":132720,"time":75.575,"velocity":0.7874015748031497},{"duration":0.06749999999999545,"durationTicks":120,"midi":87,"name":"D#6","ticks":132960,"time":75.71000000000001,"velocity":0.7874015748031497},{"duration":0.06749999999999545,"durationTicks":120,"midi":75,"name":"D#5","ticks":133080,"time":75.7775,"velocity":0.7874015748031497},{"duration":0.06750000000000966,"durationTicks":120,"midi":87,"name":"D#6","ticks":133200,"time":75.845,"velocity":0.7874015748031497},{"duration":0.06749999999999545,"durationTicks":120,"midi":90,"name":"F#6","ticks":133440,"time":75.98,"velocity":0.7874015748031497},{"duration":0.06750000000000966,"durationTicks":120,"midi":75,"name":"D#5","ticks":133560,"time":76.0475,"velocity":0.7874015748031497},{"duration":0.06749999999999545,"durationTicks":120,"midi":90,"name":"F#6","ticks":133680,"time":76.11500000000001,"velocity":0.7874015748031497},{"duration":0.06750000000000966,"durationTicks":120,"midi":83,"name":"B5","ticks":133920,"time":76.25,"velocity":0.7874015748031497},{"duration":0.06749999999999545,"durationTicks":120,"midi":75,"name":"D#5","ticks":134040,"time":76.31750000000001,"velocity":0.7874015748031497},{"duration":0.06749999999999545,"durationTicks":120,"midi":83,"name":"B5","ticks":134160,"time":76.385,"velocity":0.7874015748031497},{"duration":0.06749999999999545,"durationTicks":120,"midi":93,"name":"A6","ticks":134400,"time":76.52000000000001,"velocity":0.7874015748031497},{"duration":0.06749999999999545,"durationTicks":120,"midi":88,"name":"E6","ticks":134520,"time":76.5875,"velocity":0.7874015748031497},{"duration":0.06750000000000966,"durationTicks":120,"midi":93,"name":"A6","ticks":134640,"time":76.655,"velocity":0.7874015748031497},{"duration":0.06749999999999545,"durationTicks":120,"midi":91,"name":"G6","ticks":134880,"time":76.79,"velocity":0.7874015748031497},{"duration":0.06750000000000966,"durationTicks":120,"midi":88,"name":"E6","ticks":135000,"time":76.8575,"velocity":0.7874015748031497},{"duration":0.06749999999999545,"durationTicks":120,"midi":91,"name":"G6","ticks":135120,"time":76.92500000000001,"velocity":0.7874015748031497},{"duration":0.06750000000000966,"durationTicks":120,"midi":90,"name":"F#6","ticks":135360,"time":77.06,"velocity":0.7874015748031497},{"duration":0.06749999999999545,"durationTicks":120,"midi":88,"name":"E6","ticks":135480,"time":77.12750000000001,"velocity":0.7874015748031497},{"duration":0.06749999999999545,"durationTicks":120,"midi":90,"name":"F#6","ticks":135600,"time":77.19500000000001,"velocity":0.7874015748031497},{"duration":0.06750000000000966,"durationTicks":120,"midi":91,"name":"G6","ticks":135840,"time":77.33,"velocity":0.7874015748031497},{"duration":0.06749999999999545,"durationTicks":120,"midi":88,"name":"E6","ticks":135960,"time":77.39750000000001,"velocity":0.7874015748031497},{"duration":0.06749999999999545,"durationTicks":120,"midi":91,"name":"G6","ticks":136080,"time":77.465,"velocity":0.7874015748031497},{"duration":0.06749999999999545,"durationTicks":120,"midi":95,"name":"B6","ticks":136320,"time":77.60000000000001,"velocity":0.7874015748031497},{"duration":0.06749999999999545,"durationTicks":120,"midi":91,"name":"G6","ticks":136440,"time":77.6675,"velocity":0.7874015748031497},{"duration":0.06750000000000966,"durationTicks":120,"midi":88,"name":"E6","ticks":136560,"time":77.735,"velocity":0.7874015748031497},{"duration":0.06749999999999545,"durationTicks":120,"midi":95,"name":"B6","ticks":136680,"time":77.80250000000001,"velocity":0.7874015748031497},{"duration":0.06749999999999545,"durationTicks":120,"midi":91,"name":"G6","ticks":136800,"time":77.87,"velocity":0.7874015748031497},{"duration":0.06750000000000966,"durationTicks":120,"midi":88,"name":"E6","ticks":136920,"time":77.9375,"velocity":0.7874015748031497},{"duration":0.06749999999999545,"durationTicks":120,"midi":95,"name":"B6","ticks":137040,"time":78.00500000000001,"velocity":0.7874015748031497},{"duration":0.06749999999999545,"durationTicks":120,"midi":91,"name":"G6","ticks":137160,"time":78.0725,"velocity":0.7874015748031497},{"duration":0.06750000000000966,"durationTicks":120,"midi":88,"name":"E6","ticks":137280,"time":78.14,"velocity":0.7874015748031497},{"duration":0.06749999999999545,"durationTicks":120,"midi":91,"name":"G6","ticks":137400,"time":78.20750000000001,"velocity":0.7874015748031497},{"duration":0.06749999999999545,"durationTicks":120,"midi":88,"name":"E6","ticks":137520,"time":78.275,"velocity":0.7874015748031497},{"duration":0.06750000000000966,"durationTicks":120,"midi":88,"name":"E6","ticks":137640,"time":78.3425,"velocity":0.7874015748031497},{"duration":0.06749999999999545,"durationTicks":120,"midi":91,"name":"G6","ticks":137760,"time":78.41000000000001,"velocity":0.6929133858267716},{"duration":0.06749999999999545,"durationTicks":120,"midi":88,"name":"E6","ticks":137880,"time":78.4775,"velocity":0.6929133858267716},{"duration":0.06750000000000966,"durationTicks":120,"midi":91,"name":"G6","ticks":138000,"time":78.545,"velocity":0.6929133858267716},{"duration":0.06749999999999545,"durationTicks":120,"midi":93,"name":"A6","ticks":138120,"time":78.61250000000001,"velocity":0.7874015748031497},{"duration":0.06749999999999545,"durationTicks":120,"midi":95,"name":"B6","ticks":138240,"time":78.68,"velocity":0.7874015748031497},{"duration":0.06750000000000966,"durationTicks":120,"midi":91,"name":"G6","ticks":138360,"time":78.7475,"velocity":0.7874015748031497},{"duration":0.06749999999999545,"durationTicks":120,"midi":95,"name":"B6","ticks":138480,"time":78.81500000000001,"velocity":0.7874015748031497},{"duration":0.06749999999999545,"durationTicks":120,"midi":91,"name":"G6","ticks":138600,"time":78.88250000000001,"velocity":0.7874015748031497},{"duration":0.06749999999999545,"durationTicks":120,"midi":88,"name":"E6","ticks":138720,"time":78.95,"velocity":0.7874015748031497},{"duration":0.06750000000000966,"durationTicks":120,"midi":85,"name":"C#6","ticks":138840,"time":79.0175,"velocity":0.7874015748031497},{"duration":0.06749999999999545,"durationTicks":120,"midi":88,"name":"E6","ticks":138960,"time":79.08500000000001,"velocity":0.7874015748031497},{"duration":0.06749999999999545,"durationTicks":120,"midi":85,"name":"C#6","ticks":139080,"time":79.1525,"velocity":0.7874015748031497},{"duration":0.06750000000000966,"durationTicks":120,"midi":95,"name":"B6","ticks":139200,"time":79.22,"velocity":0.7874015748031497},{"duration":0.06749999999999545,"durationTicks":120,"midi":91,"name":"G6","ticks":139320,"time":79.28750000000001,"velocity":0.7874015748031497},{"duration":0.06749999999999545,"durationTicks":120,"midi":88,"name":"E6","ticks":139440,"time":79.355,"velocity":0.7874015748031497},{"duration":0.06750000000000966,"durationTicks":120,"midi":96,"name":"C7","ticks":139560,"time":79.4225,"velocity":0.7874015748031497},{"duration":0.06749999999999545,"durationTicks":120,"midi":91,"name":"G6","ticks":139680,"time":79.49000000000001,"velocity":0.7874015748031497},{"duration":0.06749999999999545,"durationTicks":120,"midi":88,"name":"E6","ticks":139800,"time":79.5575,"velocity":0.7874015748031497},{"duration":0.06750000000000966,"durationTicks":120,"midi":91,"name":"G6","ticks":139920,"time":79.625,"velocity":0.7874015748031497},{"duration":0.06749999999999545,"durationTicks":120,"midi":88,"name":"E6","ticks":140040,"time":79.69250000000001,"velocity":0.6929133858267716},{"duration":0.06749999999999545,"durationTicks":120,"midi":95,"name":"B6","ticks":140160,"time":79.76,"velocity":0.6929133858267716},{"duration":0.06750000000000966,"durationTicks":120,"midi":91,"name":"G6","ticks":140280,"time":79.8275,"velocity":0.7874015748031497},{"duration":0.06749999999999545,"durationTicks":120,"midi":86,"name":"D6","ticks":140400,"time":79.89500000000001,"velocity":0.7874015748031497},{"duration":0.06749999999999545,"durationTicks":120,"midi":95,"name":"B6","ticks":140520,"time":79.9625,"velocity":0.7874015748031497},{"duration":0.06750000000000966,"durationTicks":120,"midi":91,"name":"G6","ticks":140640,"time":80.03,"velocity":0.7874015748031497},{"duration":0.06749999999999545,"durationTicks":120,"midi":86,"name":"D6","ticks":140760,"time":80.09750000000001,"velocity":0.7874015748031497},{"duration":0.06749999999999545,"durationTicks":120,"midi":95,"name":"B6","ticks":140880,"time":80.165,"velocity":0.7874015748031497},{"duration":0.06750000000000966,"durationTicks":120,"midi":91,"name":"G6","ticks":141000,"time":80.2325,"velocity":0.7874015748031497},{"duration":0.06749999999999545,"durationTicks":120,"midi":86,"name":"D6","ticks":141120,"time":80.30000000000001,"velocity":0.7874015748031497},{"duration":0.06749999999999545,"durationTicks":120,"midi":93,"name":"A6","ticks":141240,"time":80.3675,"velocity":0.7874015748031497},{"duration":0.06750000000000966,"durationTicks":120,"midi":90,"name":"F#6","ticks":141360,"time":80.435,"velocity":0.7874015748031497},{"duration":0.06749999999999545,"durationTicks":120,"midi":86,"name":"D6","ticks":141480,"time":80.50250000000001,"velocity":0.7874015748031497},{"duration":0.06749999999999545,"durationTicks":120,"midi":95,"name":"B6","ticks":141600,"time":80.57000000000001,"velocity":0.7874015748031497},{"duration":0.06749999999999545,"durationTicks":120,"midi":90,"name":"F#6","ticks":141720,"time":80.6375,"velocity":0.7874015748031497},{"duration":0.13500000000000512,"durationTicks":240,"midi":93,"name":"A6","ticks":141840,"time":80.705,"velocity":0.7874015748031497},{"duration":0.06749999999999545,"durationTicks":120,"midi":98,"name":"D7","ticks":142080,"time":80.84,"velocity":0.7874015748031497},{"duration":0.06750000000000966,"durationTicks":120,"midi":91,"name":"G6","ticks":142200,"time":80.9075,"velocity":0.7874015748031497},{"duration":0.06749999999999545,"durationTicks":120,"midi":98,"name":"D7","ticks":142320,"time":80.97500000000001,"velocity":0.7874015748031497},{"duration":0.06750000000000966,"durationTicks":120,"midi":96,"name":"C7","ticks":142560,"time":81.11,"velocity":0.7874015748031497},{"duration":0.06749999999999545,"durationTicks":120,"midi":91,"name":"G6","ticks":142680,"time":81.17750000000001,"velocity":0.7874015748031497},{"duration":0.06749999999999545,"durationTicks":120,"midi":96,"name":"C7","ticks":142800,"time":81.245,"velocity":0.7874015748031497},{"duration":0.06749999999999545,"durationTicks":120,"midi":95,"name":"B6","ticks":143040,"time":81.38000000000001,"velocity":0.7874015748031497},{"duration":0.06749999999999545,"durationTicks":120,"midi":91,"name":"G6","ticks":143160,"time":81.4475,"velocity":0.7874015748031497},{"duration":0.06750000000000966,"durationTicks":120,"midi":95,"name":"B6","ticks":143280,"time":81.515,"velocity":0.7874015748031497},{"duration":0.06749999999999545,"durationTicks":120,"midi":93,"name":"A6","ticks":143520,"time":81.65,"velocity":0.7874015748031497},{"duration":0.06750000000000966,"durationTicks":120,"midi":91,"name":"G6","ticks":143640,"time":81.7175,"velocity":0.7874015748031497},{"duration":0.06749999999999545,"durationTicks":120,"midi":93,"name":"A6","ticks":143760,"time":81.78500000000001,"velocity":0.7874015748031497},{"duration":0.13500000000000512,"durationTicks":240,"midi":64,"name":"E4","ticks":144000,"time":81.92,"velocity":0.6929133858267716},{"duration":0.13500000000000512,"durationTicks":240,"midi":76,"name":"E5","ticks":144000,"time":81.92,"velocity":0.6929133858267716},{"duration":1.0799999999999983,"durationTicks":1920,"midi":91,"name":"G6","ticks":144000,"time":81.92,"velocity":0.7874015748031497},{"duration":0.13500000000000512,"durationTicks":240,"midi":59,"name":"B3","ticks":144240,"time":82.055,"velocity":0.6929133858267716},{"duration":0.13500000000000512,"durationTicks":240,"midi":71,"name":"B4","ticks":144240,"time":82.055,"velocity":0.6929133858267716},{"duration":0.1349999999999909,"durationTicks":240,"midi":64,"name":"E4","ticks":144480,"time":82.19000000000001,"velocity":0.6929133858267716},{"duration":0.1349999999999909,"durationTicks":240,"midi":76,"name":"E5","ticks":144480,"time":82.19000000000001,"velocity":0.6929133858267716},{"duration":0.13500000000000512,"durationTicks":240,"midi":66,"name":"F#4","ticks":144720,"time":82.325,"velocity":0.6929133858267716},{"duration":0.13500000000000512,"durationTicks":240,"midi":78,"name":"F#5","ticks":144720,"time":82.325,"velocity":0.6929133858267716},{"duration":0.1349999999999909,"durationTicks":240,"midi":67,"name":"G4","ticks":144960,"time":82.46000000000001,"velocity":0.6929133858267716},{"duration":0.1349999999999909,"durationTicks":240,"midi":79,"name":"G5","ticks":144960,"time":82.46000000000001,"velocity":0.6929133858267716},{"duration":0.13500000000000512,"durationTicks":240,"midi":66,"name":"F#4","ticks":145200,"time":82.595,"velocity":0.7874015748031497},{"duration":0.13500000000000512,"durationTicks":240,"midi":78,"name":"F#5","ticks":145200,"time":82.595,"velocity":0.7874015748031497},{"duration":0.13500000000000512,"durationTicks":240,"midi":67,"name":"G4","ticks":145440,"time":82.73,"velocity":0.6929133858267716},{"duration":0.13500000000000512,"durationTicks":240,"midi":79,"name":"G5","ticks":145440,"time":82.73,"velocity":0.6929133858267716},{"duration":0.1349999999999909,"durationTicks":240,"midi":64,"name":"E4","ticks":145680,"time":82.86500000000001,"velocity":0.6929133858267716},{"duration":0.1349999999999909,"durationTicks":240,"midi":76,"name":"E5","ticks":145680,"time":82.86500000000001,"velocity":0.6929133858267716},{"duration":0.13500000000000512,"durationTicks":240,"midi":69,"name":"A4","ticks":145920,"time":83,"velocity":0.6929133858267716},{"duration":0.13500000000000512,"durationTicks":240,"midi":81,"name":"A5","ticks":145920,"time":83,"velocity":0.6929133858267716},{"duration":0.13500000000000512,"durationTicks":240,"midi":67,"name":"G4","ticks":146160,"time":83.135,"velocity":0.6929133858267716},{"duration":0.13500000000000512,"durationTicks":240,"midi":79,"name":"G5","ticks":146160,"time":83.135,"velocity":0.6929133858267716},{"duration":0.1349999999999909,"durationTicks":240,"midi":69,"name":"A4","ticks":146400,"time":83.27000000000001,"velocity":0.6929133858267716},{"duration":0.1349999999999909,"durationTicks":240,"midi":81,"name":"A5","ticks":146400,"time":83.27000000000001,"velocity":0.6929133858267716},{"duration":0.13500000000000512,"durationTicks":240,"midi":72,"name":"C5","ticks":146640,"time":83.405,"velocity":0.6929133858267716},{"duration":0.13500000000000512,"durationTicks":240,"midi":84,"name":"C6","ticks":146640,"time":83.405,"velocity":0.6929133858267716},{"duration":0.13500000000000512,"durationTicks":240,"midi":71,"name":"B4","ticks":146880,"time":83.54,"velocity":0.6929133858267716},{"duration":0.13500000000000512,"durationTicks":240,"midi":83,"name":"B5","ticks":146880,"time":83.54,"velocity":0.6929133858267716},{"duration":0.1349999999999909,"durationTicks":240,"midi":72,"name":"C5","ticks":147120,"time":83.67500000000001,"velocity":0.6929133858267716},{"duration":0.1349999999999909,"durationTicks":240,"midi":84,"name":"C6","ticks":147120,"time":83.67500000000001,"velocity":0.6929133858267716},{"duration":0.13500000000000512,"durationTicks":240,"midi":71,"name":"B4","ticks":147360,"time":83.81,"velocity":0.6929133858267716},{"duration":0.13500000000000512,"durationTicks":240,"midi":83,"name":"B5","ticks":147360,"time":83.81,"velocity":0.6929133858267716},{"duration":0.13500000000000512,"durationTicks":240,"midi":66,"name":"F#4","ticks":147600,"time":83.94500000000001,"velocity":0.6929133858267716},{"duration":0.13500000000000512,"durationTicks":240,"midi":78,"name":"F#5","ticks":147600,"time":83.94500000000001,"velocity":0.6929133858267716},{"duration":0.1349999999999909,"durationTicks":240,"midi":67,"name":"G4","ticks":147840,"time":84.08000000000001,"velocity":0.6929133858267716},{"duration":0.1349999999999909,"durationTicks":240,"midi":79,"name":"G5","ticks":147840,"time":84.08000000000001,"velocity":0.6929133858267716},{"duration":0.13500000000000512,"durationTicks":240,"midi":66,"name":"F#4","ticks":148080,"time":84.215,"velocity":0.6929133858267716},{"duration":0.13500000000000512,"durationTicks":240,"midi":78,"name":"F#5","ticks":148080,"time":84.215,"velocity":0.6929133858267716},{"duration":0.1349999999999909,"durationTicks":240,"midi":64,"name":"E4","ticks":148320,"time":84.35000000000001,"velocity":0.6929133858267716},{"duration":0.1349999999999909,"durationTicks":240,"midi":76,"name":"E5","ticks":148320,"time":84.35000000000001,"velocity":0.6929133858267716},{"duration":0.13500000000000512,"durationTicks":240,"midi":66,"name":"F#4","ticks":148560,"time":84.485,"velocity":0.6929133858267716},{"duration":0.13500000000000512,"durationTicks":240,"midi":78,"name":"F#5","ticks":148560,"time":84.485,"velocity":0.6929133858267716},{"duration":0.13500000000000512,"durationTicks":240,"midi":67,"name":"G4","ticks":148800,"time":84.62,"velocity":0.6929133858267716},{"duration":0.13500000000000512,"durationTicks":240,"midi":79,"name":"G5","ticks":148800,"time":84.62,"velocity":0.6929133858267716},{"duration":0.1349999999999909,"durationTicks":240,"midi":66,"name":"F#4","ticks":149040,"time":84.75500000000001,"velocity":0.7874015748031497},{"duration":0.1349999999999909,"durationTicks":240,"midi":78,"name":"F#5","ticks":149040,"time":84.75500000000001,"velocity":0.7874015748031497},{"duration":0.13500000000000512,"durationTicks":240,"midi":67,"name":"G4","ticks":149280,"time":84.89,"velocity":0.6929133858267716},{"duration":0.13500000000000512,"durationTicks":240,"midi":79,"name":"G5","ticks":149280,"time":84.89,"velocity":0.6929133858267716},{"duration":0.13500000000000512,"durationTicks":240,"midi":71,"name":"B4","ticks":149520,"time":85.025,"velocity":0.6929133858267716},{"duration":0.13500000000000512,"durationTicks":240,"midi":83,"name":"B5","ticks":149520,"time":85.025,"velocity":0.6929133858267716},{"duration":0.1349999999999909,"durationTicks":240,"midi":66,"name":"F#4","ticks":149760,"time":85.16000000000001,"velocity":0.6929133858267716},{"duration":0.1349999999999909,"durationTicks":240,"midi":78,"name":"F#5","ticks":149760,"time":85.16000000000001,"velocity":0.6929133858267716},{"duration":0.13500000000000512,"durationTicks":240,"midi":69,"name":"A4","ticks":150000,"time":85.295,"velocity":0.6929133858267716},{"duration":0.13500000000000512,"durationTicks":240,"midi":81,"name":"A5","ticks":150000,"time":85.295,"velocity":0.6929133858267716},{"duration":0.13500000000000512,"durationTicks":240,"midi":74,"name":"D5","ticks":150240,"time":85.43,"velocity":0.6929133858267716},{"duration":0.13500000000000512,"durationTicks":240,"midi":86,"name":"D6","ticks":150240,"time":85.43,"velocity":0.6929133858267716},{"duration":0.1349999999999909,"durationTicks":240,"midi":78,"name":"F#5","ticks":150480,"time":85.56500000000001,"velocity":0.6929133858267716},{"duration":0.1349999999999909,"durationTicks":240,"midi":90,"name":"F#6","ticks":150480,"time":85.56500000000001,"velocity":0.6929133858267716},{"duration":0.13500000000000512,"durationTicks":240,"midi":79,"name":"G5","ticks":150720,"time":85.7,"velocity":0.6929133858267716},{"duration":0.13500000000000512,"durationTicks":240,"midi":91,"name":"G6","ticks":150720,"time":85.7,"velocity":0.6929133858267716},{"duration":0.1349999999999909,"durationTicks":240,"midi":78,"name":"F#5","ticks":150960,"time":85.83500000000001,"velocity":0.6929133858267716},{"duration":0.1349999999999909,"durationTicks":240,"midi":90,"name":"F#6","ticks":150960,"time":85.83500000000001,"velocity":0.6929133858267716},{"duration":0.13500000000000512,"durationTicks":240,"midi":74,"name":"D5","ticks":151200,"time":85.97,"velocity":0.6929133858267716},{"duration":0.13500000000000512,"durationTicks":240,"midi":86,"name":"D6","ticks":151200,"time":85.97,"velocity":0.6929133858267716},{"duration":0.13500000000000512,"durationTicks":240,"midi":71,"name":"B4","ticks":151440,"time":86.105,"velocity":0.6929133858267716},{"duration":0.13500000000000512,"durationTicks":240,"midi":83,"name":"B5","ticks":151440,"time":86.105,"velocity":0.6929133858267716},{"duration":0.1349999999999909,"durationTicks":240,"midi":64,"name":"E4","ticks":151680,"time":86.24000000000001,"velocity":0.6929133858267716},{"duration":0.1349999999999909,"durationTicks":240,"midi":76,"name":"E5","ticks":151680,"time":86.24000000000001,"velocity":0.6929133858267716},{"duration":0.13500000000000512,"durationTicks":240,"midi":59,"name":"B3","ticks":151920,"time":86.375,"velocity":0.6929133858267716},{"duration":0.13500000000000512,"durationTicks":240,"midi":71,"name":"B4","ticks":151920,"time":86.375,"velocity":0.6929133858267716},{"duration":0.13500000000000512,"durationTicks":240,"midi":64,"name":"E4","ticks":152160,"time":86.51,"velocity":0.6929133858267716},{"duration":0.13500000000000512,"durationTicks":240,"midi":76,"name":"E5","ticks":152160,"time":86.51,"velocity":0.6929133858267716},{"duration":0.1349999999999909,"durationTicks":240,"midi":66,"name":"F#4","ticks":152400,"time":86.64500000000001,"velocity":0.6929133858267716},{"duration":0.1349999999999909,"durationTicks":240,"midi":78,"name":"F#5","ticks":152400,"time":86.64500000000001,"velocity":0.6929133858267716},{"duration":0.13500000000000512,"durationTicks":240,"midi":67,"name":"G4","ticks":152640,"time":86.78,"velocity":0.6929133858267716},{"duration":0.13500000000000512,"durationTicks":240,"midi":79,"name":"G5","ticks":152640,"time":86.78,"velocity":0.6929133858267716},{"duration":0.13500000000000512,"durationTicks":240,"midi":66,"name":"F#4","ticks":152880,"time":86.915,"velocity":0.6929133858267716},{"duration":0.13500000000000512,"durationTicks":240,"midi":78,"name":"F#5","ticks":152880,"time":86.915,"velocity":0.6929133858267716},{"duration":0.1349999999999909,"durationTicks":240,"midi":67,"name":"G4","ticks":153120,"time":87.05000000000001,"velocity":0.6929133858267716},{"duration":0.1349999999999909,"durationTicks":240,"midi":79,"name":"G5","ticks":153120,"time":87.05000000000001,"velocity":0.6929133858267716},{"duration":0.13500000000000512,"durationTicks":240,"midi":64,"name":"E4","ticks":153360,"time":87.185,"velocity":0.6929133858267716},{"duration":0.13500000000000512,"durationTicks":240,"midi":76,"name":"E5","ticks":153360,"time":87.185,"velocity":0.6929133858267716},{"duration":0.13500000000000512,"durationTicks":240,"midi":69,"name":"A4","ticks":153600,"time":87.32000000000001,"velocity":0.6929133858267716},{"duration":0.13500000000000512,"durationTicks":240,"midi":81,"name":"A5","ticks":153600,"time":87.32000000000001,"velocity":0.6929133858267716},{"duration":0.1349999999999909,"durationTicks":240,"midi":67,"name":"G4","ticks":153840,"time":87.45500000000001,"velocity":0.6929133858267716},{"duration":0.1349999999999909,"durationTicks":240,"midi":79,"name":"G5","ticks":153840,"time":87.45500000000001,"velocity":0.6929133858267716},{"duration":0.13500000000000512,"durationTicks":240,"midi":69,"name":"A4","ticks":154080,"time":87.59,"velocity":0.6929133858267716},{"duration":0.13500000000000512,"durationTicks":240,"midi":81,"name":"A5","ticks":154080,"time":87.59,"velocity":0.6929133858267716},{"duration":0.1349999999999909,"durationTicks":240,"midi":72,"name":"C5","ticks":154320,"time":87.72500000000001,"velocity":0.6929133858267716},{"duration":0.1349999999999909,"durationTicks":240,"midi":84,"name":"C6","ticks":154320,"time":87.72500000000001,"velocity":0.6929133858267716},{"duration":0.13500000000000512,"durationTicks":240,"midi":71,"name":"B4","ticks":154560,"time":87.86,"velocity":0.6929133858267716},{"duration":0.13500000000000512,"durationTicks":240,"midi":83,"name":"B5","ticks":154560,"time":87.86,"velocity":0.6929133858267716},{"duration":0.13500000000000512,"durationTicks":240,"midi":72,"name":"C5","ticks":154800,"time":87.995,"velocity":0.6929133858267716},{"duration":0.13500000000000512,"durationTicks":240,"midi":84,"name":"C6","ticks":154800,"time":87.995,"velocity":0.6929133858267716},{"duration":0.1349999999999909,"durationTicks":240,"midi":71,"name":"B4","ticks":155040,"time":88.13000000000001,"velocity":0.6929133858267716},{"duration":0.1349999999999909,"durationTicks":240,"midi":83,"name":"B5","ticks":155040,"time":88.13000000000001,"velocity":0.6929133858267716},{"duration":0.13500000000000512,"durationTicks":240,"midi":66,"name":"F#4","ticks":155280,"time":88.265,"velocity":0.6929133858267716},{"duration":0.13500000000000512,"durationTicks":240,"midi":78,"name":"F#5","ticks":155280,"time":88.265,"velocity":0.6929133858267716},{"duration":0.13500000000000512,"durationTicks":240,"midi":67,"name":"G4","ticks":155520,"time":88.4,"velocity":0.6929133858267716},{"duration":0.13500000000000512,"durationTicks":240,"midi":79,"name":"G5","ticks":155520,"time":88.4,"velocity":0.6929133858267716},{"duration":0.1349999999999909,"durationTicks":240,"midi":66,"name":"F#4","ticks":155760,"time":88.53500000000001,"velocity":0.6929133858267716},{"duration":0.1349999999999909,"durationTicks":240,"midi":78,"name":"F#5","ticks":155760,"time":88.53500000000001,"velocity":0.6929133858267716},{"duration":0.13500000000000512,"durationTicks":240,"midi":64,"name":"E4","ticks":156000,"time":88.67,"velocity":0.6929133858267716},{"duration":0.13500000000000512,"durationTicks":240,"midi":76,"name":"E5","ticks":156000,"time":88.67,"velocity":0.6929133858267716},{"duration":0.13500000000000512,"durationTicks":240,"midi":66,"name":"F#4","ticks":156240,"time":88.805,"velocity":0.6929133858267716},{"duration":0.13500000000000512,"durationTicks":240,"midi":78,"name":"F#5","ticks":156240,"time":88.805,"velocity":0.6929133858267716},{"duration":0.1349999999999909,"durationTicks":240,"midi":67,"name":"G4","ticks":156480,"time":88.94000000000001,"velocity":0.6929133858267716},{"duration":0.1349999999999909,"durationTicks":240,"midi":79,"name":"G5","ticks":156480,"time":88.94000000000001,"velocity":0.6929133858267716},{"duration":0.13500000000000512,"durationTicks":240,"midi":69,"name":"A4","ticks":156720,"time":89.075,"velocity":0.6929133858267716},{"duration":0.13500000000000512,"durationTicks":240,"midi":81,"name":"A5","ticks":156720,"time":89.075,"velocity":0.6929133858267716},{"duration":0.1349999999999909,"durationTicks":240,"midi":71,"name":"B4","ticks":156960,"time":89.21000000000001,"velocity":0.6929133858267716},{"duration":0.1349999999999909,"durationTicks":240,"midi":83,"name":"B5","ticks":156960,"time":89.21000000000001,"velocity":0.6929133858267716},{"duration":0.13500000000000512,"durationTicks":240,"midi":72,"name":"C5","ticks":157200,"time":89.345,"velocity":0.6929133858267716},{"duration":0.13500000000000512,"durationTicks":240,"midi":84,"name":"C6","ticks":157200,"time":89.345,"velocity":0.6929133858267716},{"duration":0.13500000000000512,"durationTicks":240,"midi":74,"name":"D5","ticks":157440,"time":89.48,"velocity":0.6929133858267716},{"duration":0.13500000000000512,"durationTicks":240,"midi":86,"name":"D6","ticks":157440,"time":89.48,"velocity":0.6929133858267716},{"duration":0.1349999999999909,"durationTicks":240,"midi":69,"name":"A4","ticks":157680,"time":89.61500000000001,"velocity":0.6929133858267716},{"duration":0.1349999999999909,"durationTicks":240,"midi":81,"name":"A5","ticks":157680,"time":89.61500000000001,"velocity":0.6929133858267716},{"duration":0.13500000000000512,"durationTicks":240,"midi":66,"name":"F#4","ticks":157920,"time":89.75,"velocity":0.6929133858267716},{"duration":0.13500000000000512,"durationTicks":240,"midi":78,"name":"F#5","ticks":157920,"time":89.75,"velocity":0.6929133858267716},{"duration":0.13500000000000512,"durationTicks":240,"midi":69,"name":"A4","ticks":158160,"time":89.885,"velocity":0.6929133858267716},{"duration":0.13500000000000512,"durationTicks":240,"midi":81,"name":"A5","ticks":158160,"time":89.885,"velocity":0.6929133858267716},{"duration":0.269999999999996,"durationTicks":480,"midi":67,"name":"G4","ticks":158400,"time":90.02000000000001,"velocity":0.6929133858267716},{"duration":0.269999999999996,"durationTicks":480,"midi":79,"name":"G5","ticks":158400,"time":90.02000000000001,"velocity":0.6929133858267716},{"duration":0.269999999999996,"durationTicks":480,"midi":66,"name":"F#4","ticks":158880,"time":90.29,"velocity":0.6929133858267716},{"duration":0.269999999999996,"durationTicks":480,"midi":78,"name":"F#5","ticks":158880,"time":90.29,"velocity":0.6929133858267716},{"duration":0.13500000000000512,"durationTicks":240,"midi":64,"name":"E4","ticks":159360,"time":90.56,"velocity":0.6929133858267716},{"duration":0.13500000000000512,"durationTicks":240,"midi":76,"name":"E5","ticks":159360,"time":90.56,"velocity":0.6929133858267716},{"duration":0.13500000000000512,"durationTicks":240,"midi":59,"name":"B3","ticks":159600,"time":90.69500000000001,"velocity":0.6929133858267716},{"duration":0.13500000000000512,"durationTicks":240,"midi":71,"name":"B4","ticks":159600,"time":90.69500000000001,"velocity":0.6929133858267716},{"duration":0.1349999999999909,"durationTicks":240,"midi":64,"name":"E4","ticks":159840,"time":90.83000000000001,"velocity":0.6929133858267716},{"duration":0.1349999999999909,"durationTicks":240,"midi":76,"name":"E5","ticks":159840,"time":90.83000000000001,"velocity":0.6929133858267716},{"duration":0.13500000000000512,"durationTicks":240,"midi":66,"name":"F#4","ticks":160080,"time":90.965,"velocity":0.6929133858267716},{"duration":0.13500000000000512,"durationTicks":240,"midi":78,"name":"F#5","ticks":160080,"time":90.965,"velocity":0.6929133858267716},{"duration":0.1349999999999909,"durationTicks":240,"midi":67,"name":"G4","ticks":160320,"time":91.10000000000001,"velocity":0.6929133858267716},{"duration":0.1349999999999909,"durationTicks":240,"midi":79,"name":"G5","ticks":160320,"time":91.10000000000001,"velocity":0.6929133858267716},{"duration":0.13500000000000512,"durationTicks":240,"midi":66,"name":"F#4","ticks":160560,"time":91.235,"velocity":0.7874015748031497},{"duration":0.13500000000000512,"durationTicks":240,"midi":78,"name":"F#5","ticks":160560,"time":91.235,"velocity":0.7874015748031497},{"duration":0.13500000000000512,"durationTicks":240,"midi":67,"name":"G4","ticks":160800,"time":91.37,"velocity":0.6929133858267716},{"duration":0.13500000000000512,"durationTicks":240,"midi":79,"name":"G5","ticks":160800,"time":91.37,"velocity":0.6929133858267716},{"duration":0.1349999999999909,"durationTicks":240,"midi":64,"name":"E4","ticks":161040,"time":91.50500000000001,"velocity":0.6929133858267716},{"duration":0.1349999999999909,"durationTicks":240,"midi":76,"name":"E5","ticks":161040,"time":91.50500000000001,"velocity":0.6929133858267716},{"duration":0.13500000000000512,"durationTicks":240,"midi":69,"name":"A4","ticks":161280,"time":91.64,"velocity":0.6929133858267716},{"duration":0.13500000000000512,"durationTicks":240,"midi":81,"name":"A5","ticks":161280,"time":91.64,"velocity":0.6929133858267716},{"duration":0.13500000000000512,"durationTicks":240,"midi":67,"name":"G4","ticks":161520,"time":91.775,"velocity":0.6929133858267716},{"duration":0.13500000000000512,"durationTicks":240,"midi":79,"name":"G5","ticks":161520,"time":91.775,"velocity":0.6929133858267716},{"duration":0.1349999999999909,"durationTicks":240,"midi":69,"name":"A4","ticks":161760,"time":91.91000000000001,"velocity":0.6929133858267716},{"duration":0.1349999999999909,"durationTicks":240,"midi":81,"name":"A5","ticks":161760,"time":91.91000000000001,"velocity":0.6929133858267716},{"duration":0.13500000000000512,"durationTicks":240,"midi":72,"name":"C5","ticks":162000,"time":92.045,"velocity":0.6929133858267716},{"duration":0.13500000000000512,"durationTicks":240,"midi":84,"name":"C6","ticks":162000,"time":92.045,"velocity":0.6929133858267716},{"duration":0.13500000000000512,"durationTicks":240,"midi":71,"name":"B4","ticks":162240,"time":92.18,"velocity":0.6929133858267716},{"duration":0.13500000000000512,"durationTicks":240,"midi":83,"name":"B5","ticks":162240,"time":92.18,"velocity":0.6929133858267716},{"duration":0.1349999999999909,"durationTicks":240,"midi":72,"name":"C5","ticks":162480,"time":92.31500000000001,"velocity":0.6929133858267716},{"duration":0.1349999999999909,"durationTicks":240,"midi":84,"name":"C6","ticks":162480,"time":92.31500000000001,"velocity":0.6929133858267716},{"duration":0.13500000000000512,"durationTicks":240,"midi":71,"name":"B4","ticks":162720,"time":92.45,"velocity":0.6929133858267716},{"duration":0.13500000000000512,"durationTicks":240,"midi":83,"name":"B5","ticks":162720,"time":92.45,"velocity":0.6929133858267716},{"duration":0.1349999999999909,"durationTicks":240,"midi":66,"name":"F#4","ticks":162960,"time":92.58500000000001,"velocity":0.6929133858267716},{"duration":0.1349999999999909,"durationTicks":240,"midi":78,"name":"F#5","ticks":162960,"time":92.58500000000001,"velocity":0.6929133858267716},{"duration":0.13500000000000512,"durationTicks":240,"midi":67,"name":"G4","ticks":163200,"time":92.72,"velocity":0.6929133858267716},{"duration":0.13500000000000512,"durationTicks":240,"midi":79,"name":"G5","ticks":163200,"time":92.72,"velocity":0.6929133858267716},{"duration":0.13500000000000512,"durationTicks":240,"midi":66,"name":"F#4","ticks":163440,"time":92.855,"velocity":0.6929133858267716},{"duration":0.13500000000000512,"durationTicks":240,"midi":78,"name":"F#5","ticks":163440,"time":92.855,"velocity":0.6929133858267716},{"duration":0.1349999999999909,"durationTicks":240,"midi":64,"name":"E4","ticks":163680,"time":92.99000000000001,"velocity":0.6929133858267716},{"duration":0.1349999999999909,"durationTicks":240,"midi":76,"name":"E5","ticks":163680,"time":92.99000000000001,"velocity":0.6929133858267716},{"duration":0.13500000000000512,"durationTicks":240,"midi":66,"name":"F#4","ticks":163920,"time":93.125,"velocity":0.6929133858267716},{"duration":0.13500000000000512,"durationTicks":240,"midi":78,"name":"F#5","ticks":163920,"time":93.125,"velocity":0.6929133858267716},{"duration":0.13500000000000512,"durationTicks":240,"midi":67,"name":"G4","ticks":164160,"time":93.26,"velocity":0.6929133858267716},{"duration":0.13500000000000512,"durationTicks":240,"midi":79,"name":"G5","ticks":164160,"time":93.26,"velocity":0.6929133858267716},{"duration":0.1349999999999909,"durationTicks":240,"midi":66,"name":"F#4","ticks":164400,"time":93.39500000000001,"velocity":0.7874015748031497},{"duration":0.1349999999999909,"durationTicks":240,"midi":78,"name":"F#5","ticks":164400,"time":93.39500000000001,"velocity":0.7874015748031497},{"duration":0.13500000000000512,"durationTicks":240,"midi":67,"name":"G4","ticks":164640,"time":93.53,"velocity":0.6929133858267716},{"duration":0.13500000000000512,"durationTicks":240,"midi":79,"name":"G5","ticks":164640,"time":93.53,"velocity":0.6929133858267716},{"duration":0.13500000000000512,"durationTicks":240,"midi":71,"name":"B4","ticks":164880,"time":93.665,"velocity":0.6929133858267716},{"duration":0.13500000000000512,"durationTicks":240,"midi":83,"name":"B5","ticks":164880,"time":93.665,"velocity":0.6929133858267716},{"duration":0.1349999999999909,"durationTicks":240,"midi":66,"name":"F#4","ticks":165120,"time":93.80000000000001,"velocity":0.6929133858267716},{"duration":0.1349999999999909,"durationTicks":240,"midi":78,"name":"F#5","ticks":165120,"time":93.80000000000001,"velocity":0.6929133858267716},{"duration":0.13500000000000512,"durationTicks":240,"midi":69,"name":"A4","ticks":165360,"time":93.935,"velocity":0.6929133858267716},{"duration":0.13500000000000512,"durationTicks":240,"midi":81,"name":"A5","ticks":165360,"time":93.935,"velocity":0.6929133858267716},{"duration":0.13500000000000512,"durationTicks":240,"midi":74,"name":"D5","ticks":165600,"time":94.07000000000001,"velocity":0.6929133858267716},{"duration":0.13500000000000512,"durationTicks":240,"midi":86,"name":"D6","ticks":165600,"time":94.07000000000001,"velocity":0.6929133858267716},{"duration":0.1349999999999909,"durationTicks":240,"midi":78,"name":"F#5","ticks":165840,"time":94.20500000000001,"velocity":0.6929133858267716},{"duration":0.1349999999999909,"durationTicks":240,"midi":90,"name":"F#6","ticks":165840,"time":94.20500000000001,"velocity":0.6929133858267716},{"duration":0.13500000000000512,"durationTicks":240,"midi":79,"name":"G5","ticks":166080,"time":94.34,"velocity":0.6929133858267716},{"duration":0.13500000000000512,"durationTicks":240,"midi":91,"name":"G6","ticks":166080,"time":94.34,"velocity":0.6929133858267716},{"duration":0.1349999999999909,"durationTicks":240,"midi":78,"name":"F#5","ticks":166320,"time":94.47500000000001,"velocity":0.6929133858267716},{"duration":0.1349999999999909,"durationTicks":240,"midi":90,"name":"F#6","ticks":166320,"time":94.47500000000001,"velocity":0.6929133858267716},{"duration":0.13500000000000512,"durationTicks":240,"midi":74,"name":"D5","ticks":166560,"time":94.61,"velocity":0.6929133858267716},{"duration":0.13500000000000512,"durationTicks":240,"midi":86,"name":"D6","ticks":166560,"time":94.61,"velocity":0.6929133858267716},{"duration":0.13500000000000512,"durationTicks":240,"midi":71,"name":"B4","ticks":166800,"time":94.745,"velocity":0.6929133858267716},{"duration":0.13500000000000512,"durationTicks":240,"midi":83,"name":"B5","ticks":166800,"time":94.745,"velocity":0.6929133858267716},{"duration":0.1349999999999909,"durationTicks":240,"midi":66,"name":"F#4","ticks":167040,"time":94.88000000000001,"velocity":0.6929133858267716},{"duration":0.1349999999999909,"durationTicks":240,"midi":78,"name":"F#5","ticks":167040,"time":94.88000000000001,"velocity":0.6929133858267716},{"duration":0.13500000000000512,"durationTicks":240,"midi":61,"name":"C#4","ticks":167280,"time":95.015,"velocity":0.6929133858267716},{"duration":0.13500000000000512,"durationTicks":240,"midi":73,"name":"C#5","ticks":167280,"time":95.015,"velocity":0.6929133858267716},{"duration":0.13500000000000512,"durationTicks":240,"midi":66,"name":"F#4","ticks":167520,"time":95.15,"velocity":0.6929133858267716},{"duration":0.13500000000000512,"durationTicks":240,"midi":78,"name":"F#5","ticks":167520,"time":95.15,"velocity":0.6929133858267716},{"duration":0.1349999999999909,"durationTicks":240,"midi":68,"name":"G#4","ticks":167760,"time":95.28500000000001,"velocity":0.6929133858267716},{"duration":0.1349999999999909,"durationTicks":240,"midi":80,"name":"G#5","ticks":167760,"time":95.28500000000001,"velocity":0.6929133858267716},{"duration":0.13500000000000512,"durationTicks":240,"midi":69,"name":"A4","ticks":168000,"time":95.42,"velocity":0.6929133858267716},{"duration":0.13500000000000512,"durationTicks":240,"midi":81,"name":"A5","ticks":168000,"time":95.42,"velocity":0.6929133858267716},{"duration":0.13500000000000512,"durationTicks":240,"midi":68,"name":"G#4","ticks":168240,"time":95.555,"velocity":0.6929133858267716},{"duration":0.13500000000000512,"durationTicks":240,"midi":80,"name":"G#5","ticks":168240,"time":95.555,"velocity":0.6929133858267716},{"duration":0.1349999999999909,"durationTicks":240,"midi":69,"name":"A4","ticks":168480,"time":95.69000000000001,"velocity":0.6929133858267716},{"duration":0.1349999999999909,"durationTicks":240,"midi":81,"name":"A5","ticks":168480,"time":95.69000000000001,"velocity":0.6929133858267716},{"duration":0.13500000000000512,"durationTicks":240,"midi":66,"name":"F#4","ticks":168720,"time":95.825,"velocity":0.6929133858267716},{"duration":0.13500000000000512,"durationTicks":240,"midi":78,"name":"F#5","ticks":168720,"time":95.825,"velocity":0.6929133858267716},{"duration":0.13500000000000512,"durationTicks":240,"midi":71,"name":"B4","ticks":168960,"time":95.96000000000001,"velocity":0.6929133858267716},{"duration":0.13500000000000512,"durationTicks":240,"midi":83,"name":"B5","ticks":168960,"time":95.96000000000001,"velocity":0.6929133858267716},{"duration":0.1349999999999909,"durationTicks":240,"midi":69,"name":"A4","ticks":169200,"time":96.09500000000001,"velocity":0.6929133858267716},{"duration":0.1349999999999909,"durationTicks":240,"midi":81,"name":"A5","ticks":169200,"time":96.09500000000001,"velocity":0.6929133858267716},{"duration":0.13500000000000512,"durationTicks":240,"midi":71,"name":"B4","ticks":169440,"time":96.23,"velocity":0.6929133858267716},{"duration":0.13500000000000512,"durationTicks":240,"midi":83,"name":"B5","ticks":169440,"time":96.23,"velocity":0.6929133858267716},{"duration":0.1349999999999909,"durationTicks":240,"midi":74,"name":"D5","ticks":169680,"time":96.36500000000001,"velocity":0.6929133858267716},{"duration":0.1349999999999909,"durationTicks":240,"midi":86,"name":"D6","ticks":169680,"time":96.36500000000001,"velocity":0.6929133858267716},{"duration":0.13500000000000512,"durationTicks":240,"midi":73,"name":"C#5","ticks":169920,"time":96.5,"velocity":0.6929133858267716},{"duration":0.13500000000000512,"durationTicks":240,"midi":85,"name":"C#6","ticks":169920,"time":96.5,"velocity":0.6929133858267716},{"duration":0.13500000000000512,"durationTicks":240,"midi":74,"name":"D5","ticks":170160,"time":96.635,"velocity":0.6929133858267716},{"duration":0.13500000000000512,"durationTicks":240,"midi":86,"name":"D6","ticks":170160,"time":96.635,"velocity":0.6929133858267716},{"duration":0.1349999999999909,"durationTicks":240,"midi":73,"name":"C#5","ticks":170400,"time":96.77000000000001,"velocity":0.6929133858267716},{"duration":0.1349999999999909,"durationTicks":240,"midi":85,"name":"C#6","ticks":170400,"time":96.77000000000001,"velocity":0.6929133858267716},{"duration":0.13500000000000512,"durationTicks":240,"midi":71,"name":"B4","ticks":170640,"time":96.905,"velocity":0.6929133858267716},{"duration":0.13500000000000512,"durationTicks":240,"midi":83,"name":"B5","ticks":170640,"time":96.905,"velocity":0.6929133858267716},{"duration":0.13500000000000512,"durationTicks":240,"midi":69,"name":"A4","ticks":170880,"time":97.04,"velocity":0.6929133858267716},{"duration":0.13500000000000512,"durationTicks":240,"midi":81,"name":"A5","ticks":170880,"time":97.04,"velocity":0.6929133858267716},{"duration":0.1349999999999909,"durationTicks":240,"midi":68,"name":"G#4","ticks":171120,"time":97.17500000000001,"velocity":0.6929133858267716},{"duration":0.1349999999999909,"durationTicks":240,"midi":80,"name":"G#5","ticks":171120,"time":97.17500000000001,"velocity":0.6929133858267716},{"duration":0.13500000000000512,"durationTicks":240,"midi":66,"name":"F#4","ticks":171360,"time":97.31,"velocity":0.6929133858267716},{"duration":0.13500000000000512,"durationTicks":240,"midi":78,"name":"F#5","ticks":171360,"time":97.31,"velocity":0.6929133858267716},{"duration":0.13500000000000512,"durationTicks":240,"midi":68,"name":"G#4","ticks":171600,"time":97.44500000000001,"velocity":0.6929133858267716},{"duration":0.13500000000000512,"durationTicks":240,"midi":80,"name":"G#5","ticks":171600,"time":97.44500000000001,"velocity":0.6929133858267716},{"duration":0.1349999999999909,"durationTicks":240,"midi":69,"name":"A4","ticks":171840,"time":97.58000000000001,"velocity":0.6929133858267716},{"duration":0.1349999999999909,"durationTicks":240,"midi":81,"name":"A5","ticks":171840,"time":97.58000000000001,"velocity":0.6929133858267716},{"duration":0.13500000000000512,"durationTicks":240,"midi":71,"name":"B4","ticks":172080,"time":97.715,"velocity":0.6929133858267716},{"duration":0.13500000000000512,"durationTicks":240,"midi":83,"name":"B5","ticks":172080,"time":97.715,"velocity":0.6929133858267716},{"duration":0.1349999999999909,"durationTicks":240,"midi":73,"name":"C#5","ticks":172320,"time":97.85000000000001,"velocity":0.6929133858267716},{"duration":0.1349999999999909,"durationTicks":240,"midi":85,"name":"C#6","ticks":172320,"time":97.85000000000001,"velocity":0.6929133858267716},{"duration":0.13500000000000512,"durationTicks":240,"midi":74,"name":"D5","ticks":172560,"time":97.985,"velocity":0.6929133858267716},{"duration":0.13500000000000512,"durationTicks":240,"midi":86,"name":"D6","ticks":172560,"time":97.985,"velocity":0.6929133858267716},{"duration":1.0799999999999983,"durationTicks":1920,"midi":76,"name":"E5","ticks":172800,"time":98.12,"velocity":0.7874015748031497},{"duration":1.0799999999999983,"durationTicks":1920,"midi":88,"name":"E6","ticks":172800,"time":98.12,"velocity":0.7874015748031497},{"duration":0.27000000000001023,"durationTicks":480,"midi":80,"name":"G#5","ticks":174720,"time":99.2,"velocity":0.7874015748031497},{"duration":0.27000000000001023,"durationTicks":480,"midi":92,"name":"G#6","ticks":174720,"time":99.2,"velocity":0.7874015748031497},{"duration":0.1349999999999909,"durationTicks":240,"midi":80,"name":"G#5","ticks":175200,"time":99.47000000000001,"velocity":0.7874015748031497},{"duration":0.1349999999999909,"durationTicks":240,"midi":92,"name":"G#6","ticks":175200,"time":99.47000000000001,"velocity":0.7874015748031497},{"duration":0.13500000000000512,"durationTicks":240,"midi":80,"name":"G#5","ticks":175440,"time":99.605,"velocity":0.7874015748031497},{"duration":0.13500000000000512,"durationTicks":240,"midi":92,"name":"G#6","ticks":175440,"time":99.605,"velocity":0.7874015748031497},{"duration":0.1349999999999909,"durationTicks":240,"midi":80,"name":"G#5","ticks":175680,"time":99.74000000000001,"velocity":0.7874015748031497},{"duration":0.1349999999999909,"durationTicks":240,"midi":92,"name":"G#6","ticks":175680,"time":99.74000000000001,"velocity":0.7874015748031497},{"duration":0.13500000000000512,"durationTicks":240,"midi":80,"name":"G#5","ticks":175920,"time":99.875,"velocity":0.7874015748031497},{"duration":0.13500000000000512,"durationTicks":240,"midi":92,"name":"G#6","ticks":175920,"time":99.875,"velocity":0.7874015748031497},{"duration":0.13500000000000512,"durationTicks":240,"midi":80,"name":"G#5","ticks":176160,"time":100.01,"velocity":0.7874015748031497},{"duration":0.13500000000000512,"durationTicks":240,"midi":92,"name":"G#6","ticks":176160,"time":100.01,"velocity":0.7874015748031497},{"duration":0.1349999999999909,"durationTicks":240,"midi":80,"name":"G#5","ticks":176400,"time":100.14500000000001,"velocity":0.7874015748031497},{"duration":0.1349999999999909,"durationTicks":240,"midi":92,"name":"G#6","ticks":176400,"time":100.14500000000001,"velocity":0.7874015748031497},{"duration":0.13500000000000512,"durationTicks":240,"midi":83,"name":"B5","ticks":176640,"time":100.28,"velocity":0.7874015748031497},{"duration":0.13500000000000512,"durationTicks":240,"midi":95,"name":"B6","ticks":176640,"time":100.28,"velocity":0.7874015748031497},{"duration":0.13500000000000512,"durationTicks":240,"midi":83,"name":"B5","ticks":176880,"time":100.415,"velocity":0.7874015748031497},{"duration":0.13500000000000512,"durationTicks":240,"midi":95,"name":"B6","ticks":176880,"time":100.415,"velocity":0.7874015748031497},{"duration":0.1349999999999909,"durationTicks":240,"midi":83,"name":"B5","ticks":177120,"time":100.55000000000001,"velocity":0.7874015748031497},{"duration":0.1349999999999909,"durationTicks":240,"midi":95,"name":"B6","ticks":177120,"time":100.55000000000001,"velocity":0.7874015748031497},{"duration":0.13500000000000512,"durationTicks":240,"midi":83,"name":"B5","ticks":177360,"time":100.685,"velocity":0.7874015748031497},{"duration":0.13500000000000512,"durationTicks":240,"midi":95,"name":"B6","ticks":177360,"time":100.685,"velocity":0.7874015748031497},{"duration":0.13500000000000512,"durationTicks":240,"midi":83,"name":"B5","ticks":177600,"time":100.82000000000001,"velocity":0.7874015748031497},{"duration":0.13500000000000512,"durationTicks":240,"midi":95,"name":"B6","ticks":177600,"time":100.82000000000001,"velocity":0.7874015748031497},{"duration":0.1349999999999909,"durationTicks":240,"midi":83,"name":"B5","ticks":177840,"time":100.95500000000001,"velocity":0.7874015748031497},{"duration":0.1349999999999909,"durationTicks":240,"midi":95,"name":"B6","ticks":177840,"time":100.95500000000001,"velocity":0.7874015748031497},{"duration":0.13500000000000512,"durationTicks":240,"midi":83,"name":"B5","ticks":178080,"time":101.09,"velocity":0.7874015748031497},{"duration":0.13500000000000512,"durationTicks":240,"midi":95,"name":"B6","ticks":178080,"time":101.09,"velocity":0.7874015748031497},{"duration":0.13500000000000512,"durationTicks":240,"midi":83,"name":"B5","ticks":178320,"time":101.22500000000001,"velocity":0.7874015748031497},{"duration":0.13500000000000512,"durationTicks":240,"midi":95,"name":"B6","ticks":178320,"time":101.22500000000001,"velocity":0.7874015748031497},{"duration":0.1349999999999909,"durationTicks":240,"midi":86,"name":"D6","ticks":178560,"time":101.36000000000001,"velocity":0.7874015748031497},{"duration":0.1349999999999909,"durationTicks":240,"midi":98,"name":"D7","ticks":178560,"time":101.36000000000001,"velocity":0.7874015748031497},{"duration":0.13500000000000512,"durationTicks":240,"midi":86,"name":"D6","ticks":178800,"time":101.495,"velocity":0.7874015748031497},{"duration":0.13500000000000512,"durationTicks":240,"midi":98,"name":"D7","ticks":178800,"time":101.495,"velocity":0.7874015748031497},{"duration":0.1349999999999909,"durationTicks":240,"midi":86,"name":"D6","ticks":179040,"time":101.63000000000001,"velocity":0.7874015748031497},{"duration":0.1349999999999909,"durationTicks":240,"midi":98,"name":"D7","ticks":179040,"time":101.63000000000001,"velocity":0.7874015748031497},{"duration":0.13500000000000512,"durationTicks":240,"midi":86,"name":"D6","ticks":179280,"time":101.765,"velocity":0.7874015748031497},{"duration":0.13500000000000512,"durationTicks":240,"midi":98,"name":"D7","ticks":179280,"time":101.765,"velocity":0.7874015748031497},{"duration":0.13500000000000512,"durationTicks":240,"midi":86,"name":"D6","ticks":179520,"time":101.9,"velocity":0.7874015748031497},{"duration":0.13500000000000512,"durationTicks":240,"midi":98,"name":"D7","ticks":179520,"time":101.9,"velocity":0.7874015748031497},{"duration":0.1349999999999909,"durationTicks":240,"midi":86,"name":"D6","ticks":179760,"time":102.03500000000001,"velocity":0.7874015748031497},{"duration":0.1349999999999909,"durationTicks":240,"midi":98,"name":"D7","ticks":179760,"time":102.03500000000001,"velocity":0.7874015748031497},{"duration":0.13500000000000512,"durationTicks":240,"midi":86,"name":"D6","ticks":180000,"time":102.17,"velocity":0.7874015748031497},{"duration":0.13500000000000512,"durationTicks":240,"midi":98,"name":"D7","ticks":180000,"time":102.17,"velocity":0.7874015748031497},{"duration":0.13500000000000512,"durationTicks":240,"midi":86,"name":"D6","ticks":180240,"time":102.305,"velocity":0.7874015748031497},{"duration":0.13500000000000512,"durationTicks":240,"midi":98,"name":"D7","ticks":180240,"time":102.305,"velocity":0.7874015748031497},{"duration":0.1349999999999909,"durationTicks":240,"midi":88,"name":"E6","ticks":180480,"time":102.44000000000001,"velocity":0.7874015748031497},{"duration":0.1349999999999909,"durationTicks":240,"midi":100,"name":"E7","ticks":180480,"time":102.44000000000001,"velocity":0.7874015748031497},{"duration":0.13500000000000512,"durationTicks":240,"midi":88,"name":"E6","ticks":180720,"time":102.575,"velocity":0.7874015748031497},{"duration":0.13500000000000512,"durationTicks":240,"midi":100,"name":"E7","ticks":180720,"time":102.575,"velocity":0.7874015748031497},{"duration":0.13500000000000512,"durationTicks":240,"midi":88,"name":"E6","ticks":180960,"time":102.71000000000001,"velocity":0.7874015748031497},{"duration":0.13500000000000512,"durationTicks":240,"midi":100,"name":"E7","ticks":180960,"time":102.71000000000001,"velocity":0.7874015748031497},{"duration":0.1349999999999909,"durationTicks":240,"midi":88,"name":"E6","ticks":181200,"time":102.84500000000001,"velocity":0.7874015748031497},{"duration":0.1349999999999909,"durationTicks":240,"midi":100,"name":"E7","ticks":181200,"time":102.84500000000001,"velocity":0.7874015748031497},{"duration":0.13500000000000512,"durationTicks":240,"midi":88,"name":"E6","ticks":181440,"time":102.98,"velocity":0.7874015748031497},{"duration":0.13500000000000512,"durationTicks":240,"midi":100,"name":"E7","ticks":181440,"time":102.98,"velocity":0.7874015748031497},{"duration":0.1349999999999909,"durationTicks":240,"midi":88,"name":"E6","ticks":181680,"time":103.11500000000001,"velocity":0.7874015748031497},{"duration":0.1349999999999909,"durationTicks":240,"midi":100,"name":"E7","ticks":181680,"time":103.11500000000001,"velocity":0.7874015748031497},{"duration":0.13500000000000512,"durationTicks":240,"midi":88,"name":"E6","ticks":181920,"time":103.25,"velocity":0.7874015748031497},{"duration":0.13500000000000512,"durationTicks":240,"midi":100,"name":"E7","ticks":181920,"time":103.25,"velocity":0.7874015748031497},{"duration":0.13500000000000512,"durationTicks":240,"midi":88,"name":"E6","ticks":182160,"time":103.385,"velocity":0.7874015748031497},{"duration":0.13500000000000512,"durationTicks":240,"midi":100,"name":"E7","ticks":182160,"time":103.385,"velocity":0.7874015748031497},{"duration":0.1349999999999909,"durationTicks":240,"midi":92,"name":"G#6","ticks":182400,"time":103.52000000000001,"velocity":0.7874015748031497},{"duration":0.1349999999999909,"durationTicks":240,"midi":104,"name":"G#7","ticks":182400,"time":103.52000000000001,"velocity":0.7874015748031497},{"duration":0.13500000000000512,"durationTicks":240,"midi":104,"name":"G#7","ticks":182640,"time":103.655,"velocity":0.7874015748031497},{"duration":0.13500000000000512,"durationTicks":240,"midi":92,"name":"G#6","ticks":182640,"time":103.655,"velocity":0.7874015748031497},{"duration":0.13500000000000512,"durationTicks":240,"midi":92,"name":"G#6","ticks":182880,"time":103.79,"velocity":0.7874015748031497},{"duration":0.13500000000000512,"durationTicks":240,"midi":104,"name":"G#7","ticks":182880,"time":103.79,"velocity":0.7874015748031497},{"duration":0.1349999999999909,"durationTicks":240,"midi":92,"name":"G#6","ticks":183120,"time":103.92500000000001,"velocity":0.7874015748031497},{"duration":0.1349999999999909,"durationTicks":240,"midi":104,"name":"G#7","ticks":183120,"time":103.92500000000001,"velocity":0.7874015748031497},{"duration":0.13500000000000512,"durationTicks":240,"midi":92,"name":"G#6","ticks":183360,"time":104.06,"velocity":0.7874015748031497},{"duration":0.13500000000000512,"durationTicks":240,"midi":104,"name":"G#7","ticks":183360,"time":104.06,"velocity":0.7874015748031497},{"duration":0.13500000000000512,"durationTicks":240,"midi":92,"name":"G#6","ticks":183600,"time":104.19500000000001,"velocity":0.7874015748031497},{"duration":0.13500000000000512,"durationTicks":240,"midi":104,"name":"G#7","ticks":183600,"time":104.19500000000001,"velocity":0.7874015748031497},{"duration":0.1349999999999909,"durationTicks":240,"midi":92,"name":"G#6","ticks":183840,"time":104.33000000000001,"velocity":0.7874015748031497},{"duration":0.1349999999999909,"durationTicks":240,"midi":104,"name":"G#7","ticks":183840,"time":104.33000000000001,"velocity":0.7874015748031497},{"duration":0.13500000000000512,"durationTicks":240,"midi":92,"name":"G#6","ticks":184080,"time":104.465,"velocity":0.7874015748031497},{"duration":0.13500000000000512,"durationTicks":240,"midi":104,"name":"G#7","ticks":184080,"time":104.465,"velocity":0.7874015748031497},{"duration":0.13500000000000512,"durationTicks":240,"midi":95,"name":"B6","ticks":184320,"time":104.60000000000001,"velocity":0.7874015748031497},{"duration":0.13500000000000512,"durationTicks":240,"midi":107,"name":"B7","ticks":184320,"time":104.60000000000001,"velocity":0.7874015748031497},{"duration":0.1349999999999909,"durationTicks":240,"midi":95,"name":"B6","ticks":184560,"time":104.73500000000001,"velocity":0.7874015748031497},{"duration":0.1349999999999909,"durationTicks":240,"midi":107,"name":"B7","ticks":184560,"time":104.73500000000001,"velocity":0.7874015748031497},{"duration":0.13500000000000512,"durationTicks":240,"midi":95,"name":"B6","ticks":184800,"time":104.87,"velocity":0.7874015748031497},{"duration":0.13500000000000512,"durationTicks":240,"midi":107,"name":"B7","ticks":184800,"time":104.87,"velocity":0.7874015748031497},{"duration":0.1349999999999909,"durationTicks":240,"midi":95,"name":"B6","ticks":185040,"time":105.00500000000001,"velocity":0.7874015748031497},{"duration":0.1349999999999909,"durationTicks":240,"midi":107,"name":"B7","ticks":185040,"time":105.00500000000001,"velocity":0.7874015748031497},{"duration":0.13500000000000512,"durationTicks":240,"midi":95,"name":"B6","ticks":185280,"time":105.14,"velocity":0.7874015748031497},{"duration":0.13500000000000512,"durationTicks":240,"midi":107,"name":"B7","ticks":185280,"time":105.14,"velocity":0.7874015748031497},{"duration":0.13500000000000512,"durationTicks":240,"midi":95,"name":"B6","ticks":185520,"time":105.275,"velocity":0.7874015748031497},{"duration":0.13500000000000512,"durationTicks":240,"midi":107,"name":"B7","ticks":185520,"time":105.275,"velocity":0.7874015748031497},{"duration":0.1349999999999909,"durationTicks":240,"midi":95,"name":"B6","ticks":185760,"time":105.41000000000001,"velocity":0.7874015748031497},{"duration":0.1349999999999909,"durationTicks":240,"midi":107,"name":"B7","ticks":185760,"time":105.41000000000001,"velocity":0.7874015748031497},{"duration":0.13500000000000512,"durationTicks":240,"midi":95,"name":"B6","ticks":186000,"time":105.545,"velocity":0.7874015748031497},{"duration":0.13500000000000512,"durationTicks":240,"midi":107,"name":"B7","ticks":186000,"time":105.545,"velocity":0.7874015748031497},{"duration":0.13500000000000512,"durationTicks":240,"midi":98,"name":"D7","ticks":186240,"time":105.68,"velocity":0.7874015748031497},{"duration":0.13500000000000512,"durationTicks":240,"midi":110,"name":"D8","ticks":186240,"time":105.68,"velocity":0.7874015748031497},{"duration":0.1349999999999909,"durationTicks":240,"midi":98,"name":"D7","ticks":186480,"time":105.81500000000001,"velocity":0.7874015748031497},{"duration":0.1349999999999909,"durationTicks":240,"midi":110,"name":"D8","ticks":186480,"time":105.81500000000001,"velocity":0.7874015748031497},{"duration":0.13500000000000512,"durationTicks":240,"midi":98,"name":"D7","ticks":186720,"time":105.95,"velocity":0.7874015748031497},{"duration":0.13500000000000512,"durationTicks":240,"midi":110,"name":"D8","ticks":186720,"time":105.95,"velocity":0.7874015748031497},{"duration":0.13500000000000512,"durationTicks":240,"midi":98,"name":"D7","ticks":186960,"time":106.08500000000001,"velocity":0.7874015748031497},{"duration":0.13500000000000512,"durationTicks":240,"midi":110,"name":"D8","ticks":186960,"time":106.08500000000001,"velocity":0.7874015748031497},{"duration":0.1349999999999909,"durationTicks":240,"midi":99,"name":"D#7","ticks":187200,"time":106.22000000000001,"velocity":0.7874015748031497},{"duration":0.1349999999999909,"durationTicks":240,"midi":111,"name":"D#8","ticks":187200,"time":106.22000000000001,"velocity":0.7874015748031497},{"duration":0.13500000000000512,"durationTicks":240,"midi":99,"name":"D#7","ticks":187440,"time":106.355,"velocity":0.7874015748031497},{"duration":0.13500000000000512,"durationTicks":240,"midi":111,"name":"D#8","ticks":187440,"time":106.355,"velocity":0.7874015748031497},{"duration":0.1349999999999909,"durationTicks":240,"midi":99,"name":"D#7","ticks":187680,"time":106.49000000000001,"velocity":0.7874015748031497},{"duration":0.1349999999999909,"durationTicks":240,"midi":111,"name":"D#8","ticks":187680,"time":106.49000000000001,"velocity":0.7874015748031497},{"duration":0.13500000000000512,"durationTicks":240,"midi":99,"name":"D#7","ticks":187920,"time":106.625,"velocity":0.7874015748031497},{"duration":0.13500000000000512,"durationTicks":240,"midi":111,"name":"D#8","ticks":187920,"time":106.625,"velocity":0.7874015748031497},{"duration":0.8100000000000023,"durationTicks":1440,"midi":100,"name":"E7","ticks":188160,"time":106.76,"velocity":0.7874015748031497},{"duration":0.8100000000000023,"durationTicks":1440,"midi":112,"name":"E8","ticks":188160,"time":106.76,"velocity":0.7874015748031497},{"duration":0.06749999999999545,"durationTicks":120,"midi":76,"name":"E5","ticks":189600,"time":107.57000000000001,"velocity":0.7874015748031497},{"duration":0.269999999999996,"durationTicks":480,"midi":112,"name":"E8","ticks":189600,"time":107.57000000000001,"velocity":0.7874015748031497},{"duration":0.269999999999996,"durationTicks":480,"midi":100,"name":"E7","ticks":189600,"time":107.57000000000001,"velocity":0.7874015748031497},{"duration":0.06750000000000966,"durationTicks":120,"midi":80,"name":"G#5","ticks":189720,"time":107.6375,"velocity":0.7874015748031497},{"duration":0.06749999999999545,"durationTicks":120,"midi":83,"name":"B5","ticks":189840,"time":107.70500000000001,"velocity":0.7874015748031497},{"duration":0.06749999999999545,"durationTicks":120,"midi":86,"name":"D6","ticks":189960,"time":107.77250000000001,"velocity":0.7874015748031497},{"duration":0.06750000000000966,"durationTicks":120,"midi":88,"name":"E6","ticks":190080,"time":107.84,"velocity":0.7874015748031497},{"duration":0.06749999999999545,"durationTicks":120,"midi":85,"name":"C#6","ticks":190200,"time":107.90750000000001,"velocity":0.7874015748031497},{"duration":0.06749999999999545,"durationTicks":120,"midi":81,"name":"A5","ticks":190320,"time":107.97500000000001,"velocity":0.7874015748031497},{"duration":0.06750000000000966,"durationTicks":120,"midi":88,"name":"E6","ticks":190440,"time":108.0425,"velocity":0.7874015748031497},{"duration":0.06749999999999545,"durationTicks":120,"midi":85,"name":"C#6","ticks":190560,"time":108.11000000000001,"velocity":0.7874015748031497},{"duration":0.06749999999999545,"durationTicks":120,"midi":81,"name":"A5","ticks":190680,"time":108.17750000000001,"velocity":0.7874015748031497},{"duration":0.06749999999999545,"durationTicks":120,"midi":88,"name":"E6","ticks":190800,"time":108.245,"velocity":0.7874015748031497},{"duration":0.06750000000000966,"durationTicks":120,"midi":85,"name":"C#6","ticks":190920,"time":108.3125,"velocity":0.7874015748031497},{"duration":0.06749999999999545,"durationTicks":120,"midi":81,"name":"A5","ticks":191040,"time":108.38000000000001,"velocity":0.7874015748031497},{"duration":0.06749999999999545,"durationTicks":120,"midi":86,"name":"D6","ticks":191160,"time":108.4475,"velocity":0.7874015748031497},{"duration":0.06750000000000966,"durationTicks":120,"midi":81,"name":"A5","ticks":191280,"time":108.515,"velocity":0.7874015748031497},{"duration":0.06749999999999545,"durationTicks":120,"midi":81,"name":"A5","ticks":191400,"time":108.58250000000001,"velocity":0.7874015748031497},{"duration":0.06749999999999545,"durationTicks":120,"midi":86,"name":"D6","ticks":191520,"time":108.65,"velocity":0.7874015748031497},{"duration":0.06750000000000966,"durationTicks":120,"midi":81,"name":"A5","ticks":191640,"time":108.7175,"velocity":0.7874015748031497},{"duration":0.06749999999999545,"durationTicks":120,"midi":86,"name":"D6","ticks":191760,"time":108.78500000000001,"velocity":0.7874015748031497},{"duration":0.06749999999999545,"durationTicks":120,"midi":81,"name":"A5","ticks":191880,"time":108.8525,"velocity":0.7874015748031497},{"duration":0.06750000000000966,"durationTicks":120,"midi":85,"name":"C#6","ticks":192000,"time":108.92,"velocity":0.7874015748031497},{"duration":0.06749999999999545,"durationTicks":120,"midi":81,"name":"A5","ticks":192120,"time":108.98750000000001,"velocity":0.7874015748031497},{"duration":0.06749999999999545,"durationTicks":120,"midi":76,"name":"E5","ticks":192240,"time":109.055,"velocity":0.7874015748031497},{"duration":0.06750000000000966,"durationTicks":120,"midi":85,"name":"C#6","ticks":192360,"time":109.1225,"velocity":0.7874015748031497},{"duration":0.06749999999999545,"durationTicks":120,"midi":81,"name":"A5","ticks":192480,"time":109.19000000000001,"velocity":0.7874015748031497},{"duration":0.06749999999999545,"durationTicks":120,"midi":76,"name":"E5","ticks":192600,"time":109.25750000000001,"velocity":0.7874015748031497},{"duration":0.06750000000000966,"durationTicks":120,"midi":85,"name":"C#6","ticks":192720,"time":109.325,"velocity":0.7874015748031497},{"duration":0.06749999999999545,"durationTicks":120,"midi":81,"name":"A5","ticks":192840,"time":109.39250000000001,"velocity":0.7874015748031497},{"duration":0.06749999999999545,"durationTicks":120,"midi":76,"name":"E5","ticks":192960,"time":109.46000000000001,"velocity":0.7874015748031497},{"duration":0.06750000000000966,"durationTicks":120,"midi":80,"name":"G#5","ticks":193080,"time":109.5275,"velocity":0.7874015748031497},{"duration":0.06749999999999545,"durationTicks":120,"midi":76,"name":"E5","ticks":193200,"time":109.59500000000001,"velocity":0.7874015748031497},{"duration":0.06749999999999545,"durationTicks":120,"midi":76,"name":"E5","ticks":193320,"time":109.66250000000001,"velocity":0.7874015748031497},{"duration":0.06750000000000966,"durationTicks":120,"midi":80,"name":"G#5","ticks":193440,"time":109.73,"velocity":0.7874015748031497},{"duration":0.06749999999999545,"durationTicks":120,"midi":76,"name":"E5","ticks":193560,"time":109.79750000000001,"velocity":0.7874015748031497},{"duration":0.06749999999999545,"durationTicks":120,"midi":80,"name":"G#5","ticks":193680,"time":109.86500000000001,"velocity":0.7874015748031497},{"duration":0.06749999999999545,"durationTicks":120,"midi":76,"name":"E5","ticks":193800,"time":109.9325,"velocity":0.7874015748031497},{"duration":0.06750000000000966,"durationTicks":120,"midi":83,"name":"B5","ticks":193920,"time":110,"velocity":0.7874015748031497},{"duration":0.06749999999999545,"durationTicks":120,"midi":78,"name":"F#5","ticks":194040,"time":110.06750000000001,"velocity":0.7874015748031497},{"duration":0.06749999999999545,"durationTicks":120,"midi":73,"name":"C#5","ticks":194160,"time":110.135,"velocity":0.7874015748031497},{"duration":0.06750000000000966,"durationTicks":120,"midi":83,"name":"B5","ticks":194280,"time":110.2025,"velocity":0.7874015748031497},{"duration":0.06749999999999545,"durationTicks":120,"midi":78,"name":"F#5","ticks":194400,"time":110.27000000000001,"velocity":0.7874015748031497},{"duration":0.06749999999999545,"durationTicks":120,"midi":73,"name":"C#5","ticks":194520,"time":110.3375,"velocity":0.7874015748031497},{"duration":0.06750000000000966,"durationTicks":120,"midi":83,"name":"B5","ticks":194640,"time":110.405,"velocity":0.7874015748031497},{"duration":0.06749999999999545,"durationTicks":120,"midi":78,"name":"F#5","ticks":194760,"time":110.47250000000001,"velocity":0.7874015748031497},{"duration":0.06749999999999545,"durationTicks":120,"midi":73,"name":"C#5","ticks":194880,"time":110.54,"velocity":0.7874015748031497},{"duration":0.06750000000000966,"durationTicks":120,"midi":81,"name":"A5","ticks":195000,"time":110.6075,"velocity":0.7874015748031497},{"duration":0.06749999999999545,"durationTicks":120,"midi":73,"name":"C#5","ticks":195120,"time":110.67500000000001,"velocity":0.7874015748031497},{"duration":0.06749999999999545,"durationTicks":120,"midi":73,"name":"C#5","ticks":195240,"time":110.7425,"velocity":0.7874015748031497},{"duration":0.06750000000000966,"durationTicks":120,"midi":81,"name":"A5","ticks":195360,"time":110.81,"velocity":0.7874015748031497},{"duration":0.06749999999999545,"durationTicks":120,"midi":73,"name":"C#5","ticks":195480,"time":110.87750000000001,"velocity":0.7874015748031497},{"duration":0.06749999999999545,"durationTicks":120,"midi":81,"name":"A5","ticks":195600,"time":110.94500000000001,"velocity":0.7874015748031497},{"duration":0.06750000000000966,"durationTicks":120,"midi":73,"name":"C#5","ticks":195720,"time":111.0125,"velocity":0.7874015748031497},{"duration":0.06749999999999545,"durationTicks":120,"midi":80,"name":"G#5","ticks":195840,"time":111.08000000000001,"velocity":0.7874015748031497},{"duration":0.06749999999999545,"durationTicks":120,"midi":78,"name":"F#5","ticks":195960,"time":111.14750000000001,"velocity":0.7874015748031497},{"duration":0.06750000000000966,"durationTicks":120,"midi":73,"name":"C#5","ticks":196080,"time":111.215,"velocity":0.7874015748031497},{"duration":0.06749999999999545,"durationTicks":120,"midi":80,"name":"G#5","ticks":196200,"time":111.28250000000001,"velocity":0.7874015748031497},{"duration":0.06749999999999545,"durationTicks":120,"midi":78,"name":"F#5","ticks":196320,"time":111.35000000000001,"velocity":0.7874015748031497},{"duration":0.06750000000000966,"durationTicks":120,"midi":73,"name":"C#5","ticks":196440,"time":111.4175,"velocity":0.7874015748031497},{"duration":0.06749999999999545,"durationTicks":120,"midi":81,"name":"A5","ticks":196560,"time":111.48500000000001,"velocity":0.7874015748031497},{"duration":0.06749999999999545,"durationTicks":120,"midi":78,"name":"F#5","ticks":196680,"time":111.55250000000001,"velocity":0.7874015748031497},{"duration":0.13500000000000512,"durationTicks":240,"midi":83,"name":"B5","ticks":196800,"time":111.62,"velocity":0.7874015748031497},{"duration":0.06749999999999545,"durationTicks":120,"midi":76,"name":"E5","ticks":196920,"time":111.68750000000001,"velocity":0.6929133858267716},{"duration":0.1349999999999909,"durationTicks":240,"midi":85,"name":"C#6","ticks":197040,"time":111.75500000000001,"velocity":0.7874015748031497},{"duration":0.06749999999999545,"durationTicks":120,"midi":76,"name":"E5","ticks":197160,"time":111.8225,"velocity":0.6929133858267716},{"duration":0.13500000000000512,"durationTicks":240,"midi":86,"name":"D6","ticks":197280,"time":111.89,"velocity":0.7874015748031497},{"duration":0.06749999999999545,"durationTicks":120,"midi":76,"name":"E5","ticks":197400,"time":111.95750000000001,"velocity":0.6929133858267716},{"duration":0.13500000000000512,"durationTicks":240,"midi":88,"name":"E6","ticks":197520,"time":112.025,"velocity":0.7874015748031497},{"duration":0.06750000000000966,"durationTicks":120,"midi":76,"name":"E5","ticks":197640,"time":112.0925,"velocity":0.6929133858267716},{"duration":0.06749999999999545,"durationTicks":120,"midi":90,"name":"F#6","ticks":197760,"time":112.16000000000001,"velocity":0.7874015748031497},{"duration":0.06749999999999545,"durationTicks":120,"midi":86,"name":"D6","ticks":197880,"time":112.2275,"velocity":0.7874015748031497},{"duration":0.06750000000000966,"durationTicks":120,"midi":81,"name":"A5","ticks":198000,"time":112.295,"velocity":0.7874015748031497},{"duration":0.06749999999999545,"durationTicks":120,"midi":90,"name":"F#6","ticks":198120,"time":112.36250000000001,"velocity":0.7874015748031497},{"duration":0.06749999999999545,"durationTicks":120,"midi":86,"name":"D6","ticks":198240,"time":112.43,"velocity":0.7874015748031497},{"duration":0.06750000000000966,"durationTicks":120,"midi":81,"name":"A5","ticks":198360,"time":112.4975,"velocity":0.7874015748031497},{"duration":0.06749999999999545,"durationTicks":120,"midi":90,"name":"F#6","ticks":198480,"time":112.56500000000001,"velocity":0.7874015748031497},{"duration":0.06749999999999545,"durationTicks":120,"midi":86,"name":"D6","ticks":198600,"time":112.63250000000001,"velocity":0.7874015748031497},{"duration":0.06750000000000966,"durationTicks":120,"midi":92,"name":"G#6","ticks":198720,"time":112.7,"velocity":0.7874015748031497},{"duration":0.06749999999999545,"durationTicks":120,"midi":86,"name":"D6","ticks":198840,"time":112.76750000000001,"velocity":0.7874015748031497},{"duration":0.06749999999999545,"durationTicks":120,"midi":92,"name":"G#6","ticks":198960,"time":112.83500000000001,"velocity":0.7874015748031497},{"duration":0.06749999999999545,"durationTicks":120,"midi":93,"name":"A6","ticks":199200,"time":112.97000000000001,"velocity":0.7874015748031497},{"duration":0.06749999999999545,"durationTicks":120,"midi":86,"name":"D6","ticks":199320,"time":113.03750000000001,"velocity":0.7874015748031497},{"duration":0.06750000000000966,"durationTicks":120,"midi":93,"name":"A6","ticks":199440,"time":113.105,"velocity":0.7874015748031497},{"duration":0.06749999999999545,"durationTicks":120,"midi":95,"name":"B6","ticks":199680,"time":113.24000000000001,"velocity":0.7874015748031497},{"duration":0.06750000000000966,"durationTicks":120,"midi":86,"name":"D6","ticks":199800,"time":113.3075,"velocity":0.7874015748031497},{"duration":0.06749999999999545,"durationTicks":120,"midi":95,"name":"B6","ticks":199920,"time":113.37500000000001,"velocity":0.7874015748031497},{"duration":0.06749999999999545,"durationTicks":120,"midi":93,"name":"A6","ticks":200160,"time":113.51,"velocity":0.7874015748031497},{"duration":0.06750000000000966,"durationTicks":120,"midi":86,"name":"D6","ticks":200280,"time":113.5775,"velocity":0.7874015748031497},{"duration":0.06749999999999545,"durationTicks":120,"midi":93,"name":"A6","ticks":200400,"time":113.64500000000001,"velocity":0.7874015748031497},{"duration":0.06750000000000966,"durationTicks":120,"midi":92,"name":"G#6","ticks":200640,"time":113.78,"velocity":0.7874015748031497},{"duration":0.06749999999999545,"durationTicks":120,"midi":86,"name":"D6","ticks":200760,"time":113.84750000000001,"velocity":0.7874015748031497},{"duration":0.06749999999999545,"durationTicks":120,"midi":92,"name":"G#6","ticks":200880,"time":113.915,"velocity":0.7874015748031497},{"duration":0.06749999999999545,"durationTicks":120,"midi":90,"name":"F#6","ticks":201120,"time":114.05000000000001,"velocity":0.7874015748031497},{"duration":0.06749999999999545,"durationTicks":120,"midi":86,"name":"D6","ticks":201240,"time":114.1175,"velocity":0.7874015748031497},{"duration":0.06750000000000966,"durationTicks":120,"midi":90,"name":"F#6","ticks":201360,"time":114.185,"velocity":0.7874015748031497},{"duration":0.06749999999999545,"durationTicks":120,"midi":90,"name":"F#6","ticks":201600,"time":114.32000000000001,"velocity":0.7874015748031497},{"duration":0.06750000000000966,"durationTicks":120,"midi":85,"name":"C#6","ticks":201720,"time":114.3875,"velocity":0.7874015748031497},{"duration":0.06749999999999545,"durationTicks":120,"midi":90,"name":"F#6","ticks":201840,"time":114.45500000000001,"velocity":0.7874015748031497},{"duration":0.06750000000000966,"durationTicks":120,"midi":88,"name":"E6","ticks":202080,"time":114.59,"velocity":0.7874015748031497},{"duration":0.06749999999999545,"durationTicks":120,"midi":85,"name":"C#6","ticks":202200,"time":114.65750000000001,"velocity":0.7874015748031497},{"duration":0.06749999999999545,"durationTicks":120,"midi":88,"name":"E6","ticks":202320,"time":114.72500000000001,"velocity":0.7874015748031497},{"duration":0.06749999999999545,"durationTicks":120,"midi":87,"name":"D#6","ticks":202560,"time":114.86000000000001,"velocity":0.7874015748031497},{"duration":0.06749999999999545,"durationTicks":120,"midi":85,"name":"C#6","ticks":202680,"time":114.92750000000001,"velocity":0.7874015748031497},{"duration":0.06750000000000966,"durationTicks":120,"midi":87,"name":"D#6","ticks":202800,"time":114.995,"velocity":0.7874015748031497},{"duration":0.06749999999999545,"durationTicks":120,"midi":90,"name":"F#6","ticks":203040,"time":115.13000000000001,"velocity":0.7874015748031497},{"duration":0.06749999999999545,"durationTicks":120,"midi":85,"name":"C#6","ticks":203160,"time":115.1975,"velocity":0.7874015748031497},{"duration":0.06750000000000966,"durationTicks":120,"midi":90,"name":"F#6","ticks":203280,"time":115.265,"velocity":0.7874015748031497},{"duration":0.06749999999999545,"durationTicks":120,"midi":88,"name":"E6","ticks":203520,"time":115.4,"velocity":0.7874015748031497},{"duration":0.06750000000000966,"durationTicks":120,"midi":85,"name":"C#6","ticks":203640,"time":115.4675,"velocity":0.7874015748031497},{"duration":0.06749999999999545,"durationTicks":120,"midi":81,"name":"A5","ticks":203760,"time":115.53500000000001,"velocity":0.7874015748031497},{"duration":0.06749999999999545,"durationTicks":120,"midi":88,"name":"E6","ticks":203880,"time":115.6025,"velocity":0.7874015748031497},{"duration":0.06750000000000966,"durationTicks":120,"midi":85,"name":"C#6","ticks":204000,"time":115.67,"velocity":0.7874015748031497},{"duration":0.06749999999999545,"durationTicks":120,"midi":81,"name":"A5","ticks":204120,"time":115.73750000000001,"velocity":0.7874015748031497},{"duration":0.06749999999999545,"durationTicks":120,"midi":88,"name":"E6","ticks":204240,"time":115.805,"velocity":0.7874015748031497},{"duration":0.06750000000000966,"durationTicks":120,"midi":85,"name":"C#6","ticks":204360,"time":115.8725,"velocity":0.7874015748031497},{"duration":0.06749999999999545,"durationTicks":120,"midi":81,"name":"A5","ticks":204480,"time":115.94000000000001,"velocity":0.7874015748031497},{"duration":0.06749999999999545,"durationTicks":120,"midi":85,"name":"C#6","ticks":204600,"time":116.00750000000001,"velocity":0.7874015748031497},{"duration":0.06750000000000966,"durationTicks":120,"midi":81,"name":"A5","ticks":204720,"time":116.075,"velocity":0.7874015748031497},{"duration":0.06749999999999545,"durationTicks":120,"midi":81,"name":"A5","ticks":204840,"time":116.14250000000001,"velocity":0.7874015748031497},{"duration":0.06749999999999545,"durationTicks":120,"midi":85,"name":"C#6","ticks":204960,"time":116.21000000000001,"velocity":0.7874015748031497},{"duration":0.06750000000000966,"durationTicks":120,"midi":81,"name":"A5","ticks":205080,"time":116.2775,"velocity":0.7874015748031497},{"duration":0.06749999999999545,"durationTicks":120,"midi":85,"name":"C#6","ticks":205200,"time":116.34500000000001,"velocity":0.7874015748031497},{"duration":0.06749999999999545,"durationTicks":120,"midi":81,"name":"A5","ticks":205320,"time":116.41250000000001,"velocity":0.7874015748031497},{"duration":0.06750000000000966,"durationTicks":120,"midi":86,"name":"D6","ticks":205440,"time":116.48,"velocity":0.7874015748031497},{"duration":0.06749999999999545,"durationTicks":120,"midi":81,"name":"A5","ticks":205560,"time":116.54750000000001,"velocity":0.7874015748031497},{"duration":0.06749999999999545,"durationTicks":120,"midi":86,"name":"D6","ticks":205680,"time":116.61500000000001,"velocity":0.7874015748031497},{"duration":0.06749999999999545,"durationTicks":120,"midi":88,"name":"E6","ticks":205920,"time":116.75000000000001,"velocity":0.7874015748031497},{"duration":0.06749999999999545,"durationTicks":120,"midi":81,"name":"A5","ticks":206040,"time":116.81750000000001,"velocity":0.7874015748031497},{"duration":0.06749999999999545,"durationTicks":120,"midi":88,"name":"E6","ticks":206160,"time":116.885,"velocity":0.7874015748031497},{"duration":0.06749999999999545,"durationTicks":120,"midi":90,"name":"F#6","ticks":206400,"time":117.02000000000001,"velocity":0.7874015748031497},{"duration":0.06749999999999545,"durationTicks":120,"midi":81,"name":"A5","ticks":206520,"time":117.0875,"velocity":0.7874015748031497},{"duration":0.06750000000000966,"durationTicks":120,"midi":90,"name":"F#6","ticks":206640,"time":117.155,"velocity":0.7874015748031497},{"duration":0.06749999999999545,"durationTicks":120,"midi":93,"name":"A6","ticks":206880,"time":117.29,"velocity":0.7874015748031497},{"duration":0.06750000000000966,"durationTicks":120,"midi":81,"name":"A5","ticks":207000,"time":117.3575,"velocity":0.7874015748031497},{"duration":0.06749999999999545,"durationTicks":120,"midi":93,"name":"A6","ticks":207120,"time":117.42500000000001,"velocity":0.7874015748031497},{"duration":0.09000000000000341,"durationTicks":160,"midi":92,"name":"G#6","ticks":207360,"time":117.56,"velocity":0.7874015748031497},{"duration":0.09000000000000341,"durationTicks":160,"midi":93,"name":"A6","ticks":207520,"time":117.65,"velocity":0.7874015748031497},{"duration":0.09000000000000341,"durationTicks":160,"midi":92,"name":"G#6","ticks":207680,"time":117.74000000000001,"velocity":0.7874015748031497},{"duration":0.269999999999996,"durationTicks":480,"midi":90,"name":"F#6","ticks":207840,"time":117.83000000000001,"velocity":0.7874015748031497},{"duration":0.06749999999999545,"durationTicks":120,"midi":88,"name":"E6","ticks":208320,"time":118.10000000000001,"velocity":0.7874015748031497},{"duration":0.06750000000000966,"durationTicks":120,"midi":81,"name":"A5","ticks":208440,"time":118.1675,"velocity":0.7874015748031497},{"duration":0.06749999999999545,"durationTicks":120,"midi":88,"name":"E6","ticks":208560,"time":118.23500000000001,"velocity":0.7874015748031497},{"duration":0.06750000000000966,"durationTicks":120,"midi":85,"name":"C#6","ticks":208800,"time":118.37,"velocity":0.7874015748031497},{"duration":0.06749999999999545,"durationTicks":120,"midi":81,"name":"A5","ticks":208920,"time":118.43750000000001,"velocity":0.7874015748031497},{"duration":0.06749999999999545,"durationTicks":120,"midi":86,"name":"D6","ticks":209040,"time":118.50500000000001,"velocity":0.7874015748031497},{"duration":0.06749999999999545,"durationTicks":120,"midi":85,"name":"C#6","ticks":209280,"time":118.64000000000001,"velocity":0.7874015748031497},{"duration":0.06749999999999545,"durationTicks":120,"midi":77,"name":"F5","ticks":209400,"time":118.70750000000001,"velocity":0.7874015748031497},{"duration":0.06749999999999545,"durationTicks":120,"midi":85,"name":"C#6","ticks":209520,"time":118.775,"velocity":0.7874015748031497},{"duration":0.06749999999999545,"durationTicks":120,"midi":89,"name":"F6","ticks":209760,"time":118.91000000000001,"velocity":0.7874015748031497},{"duration":0.06749999999999545,"durationTicks":120,"midi":77,"name":"F5","ticks":209880,"time":118.9775,"velocity":0.7874015748031497},{"duration":0.06750000000000966,"durationTicks":120,"midi":89,"name":"F6","ticks":210000,"time":119.045,"velocity":0.7874015748031497},{"duration":0.06749999999999545,"durationTicks":120,"midi":92,"name":"G#6","ticks":210240,"time":119.18,"velocity":0.7874015748031497},{"duration":0.06750000000000966,"durationTicks":120,"midi":77,"name":"F5","ticks":210360,"time":119.2475,"velocity":0.7874015748031497},{"duration":0.06749999999999545,"durationTicks":120,"midi":92,"name":"G#6","ticks":210480,"time":119.31500000000001,"velocity":0.7874015748031497},{"duration":0.06750000000000966,"durationTicks":120,"midi":85,"name":"C#6","ticks":210720,"time":119.45,"velocity":0.7874015748031497},{"duration":0.06749999999999545,"durationTicks":120,"midi":77,"name":"F5","ticks":210840,"time":119.51750000000001,"velocity":0.7874015748031497},{"duration":0.06749999999999545,"durationTicks":120,"midi":85,"name":"C#6","ticks":210960,"time":119.58500000000001,"velocity":0.7874015748031497},{"duration":0.06749999999999545,"durationTicks":120,"midi":95,"name":"B6","ticks":211200,"time":119.72000000000001,"velocity":0.7874015748031497},{"duration":0.06749999999999545,"durationTicks":120,"midi":90,"name":"F#6","ticks":211320,"time":119.78750000000001,"velocity":0.7874015748031497},{"duration":0.06750000000000966,"durationTicks":120,"midi":95,"name":"B6","ticks":211440,"time":119.855,"velocity":0.7874015748031497},{"duration":0.06749999999999545,"durationTicks":120,"midi":93,"name":"A6","ticks":211680,"time":119.99000000000001,"velocity":0.7874015748031497},{"duration":0.06750000000000966,"durationTicks":120,"midi":90,"name":"F#6","ticks":211800,"time":120.0575,"velocity":0.7874015748031497},{"duration":0.06749999999999545,"durationTicks":120,"midi":93,"name":"A6","ticks":211920,"time":120.12500000000001,"velocity":0.7874015748031497},{"duration":0.06750000000000966,"durationTicks":120,"midi":92,"name":"G#6","ticks":212160,"time":120.26,"velocity":0.7874015748031497},{"duration":0.06749999999999545,"durationTicks":120,"midi":90,"name":"F#6","ticks":212280,"time":120.32750000000001,"velocity":0.7874015748031497},{"duration":0.06749999999999545,"durationTicks":120,"midi":92,"name":"G#6","ticks":212400,"time":120.39500000000001,"velocity":0.7874015748031497},{"duration":0.06750000000000966,"durationTicks":120,"midi":93,"name":"A6","ticks":212640,"time":120.53,"velocity":0.7874015748031497},{"duration":0.06749999999999545,"durationTicks":120,"midi":90,"name":"F#6","ticks":212760,"time":120.59750000000001,"velocity":0.7874015748031497},{"duration":0.06749999999999545,"durationTicks":120,"midi":93,"name":"A6","ticks":212880,"time":120.665,"velocity":0.7874015748031497},{"duration":0.06749999999999545,"durationTicks":120,"midi":97,"name":"C#7","ticks":213120,"time":120.80000000000001,"velocity":0.7874015748031497},{"duration":0.06749999999999545,"durationTicks":120,"midi":93,"name":"A6","ticks":213240,"time":120.8675,"velocity":0.7874015748031497},{"duration":0.06750000000000966,"durationTicks":120,"midi":90,"name":"F#6","ticks":213360,"time":120.935,"velocity":0.7874015748031497},{"duration":0.06749999999999545,"durationTicks":120,"midi":97,"name":"C#7","ticks":213480,"time":121.00250000000001,"velocity":0.7874015748031497},{"duration":0.06749999999999545,"durationTicks":120,"midi":93,"name":"A6","ticks":213600,"time":121.07000000000001,"velocity":0.7874015748031497},{"duration":0.06750000000000966,"durationTicks":120,"midi":90,"name":"F#6","ticks":213720,"time":121.1375,"velocity":0.7874015748031497},{"duration":0.06749999999999545,"durationTicks":120,"midi":97,"name":"C#7","ticks":213840,"time":121.20500000000001,"velocity":0.7874015748031497},{"duration":0.06749999999999545,"durationTicks":120,"midi":93,"name":"A6","ticks":213960,"time":121.27250000000001,"velocity":0.7874015748031497},{"duration":0.06750000000000966,"durationTicks":120,"midi":90,"name":"F#6","ticks":214080,"time":121.34,"velocity":0.7874015748031497},{"duration":0.06749999999999545,"durationTicks":120,"midi":93,"name":"A6","ticks":214200,"time":121.40750000000001,"velocity":0.7874015748031497},{"duration":0.06749999999999545,"durationTicks":120,"midi":90,"name":"F#6","ticks":214320,"time":121.47500000000001,"velocity":0.7874015748031497},{"duration":0.06750000000000966,"durationTicks":120,"midi":90,"name":"F#6","ticks":214440,"time":121.5425,"velocity":0.7874015748031497},{"duration":0.06749999999999545,"durationTicks":120,"midi":93,"name":"A6","ticks":214560,"time":121.61000000000001,"velocity":0.6929133858267716},{"duration":0.06749999999999545,"durationTicks":120,"midi":90,"name":"F#6","ticks":214680,"time":121.67750000000001,"velocity":0.6929133858267716},{"duration":0.06750000000000966,"durationTicks":120,"midi":93,"name":"A6","ticks":214800,"time":121.745,"velocity":0.6929133858267716},{"duration":0.06749999999999545,"durationTicks":120,"midi":95,"name":"B6","ticks":214920,"time":121.81250000000001,"velocity":0.7874015748031497},{"duration":0.06749999999999545,"durationTicks":120,"midi":97,"name":"C#7","ticks":215040,"time":121.88000000000001,"velocity":0.7874015748031497},{"duration":0.06750000000000966,"durationTicks":120,"midi":93,"name":"A6","ticks":215160,"time":121.9475,"velocity":0.7874015748031497},{"duration":0.06749999999999545,"durationTicks":120,"midi":97,"name":"C#7","ticks":215280,"time":122.01500000000001,"velocity":0.7874015748031497},{"duration":0.06749999999999545,"durationTicks":120,"midi":93,"name":"A6","ticks":215400,"time":122.08250000000001,"velocity":0.7874015748031497},{"duration":0.06749999999999545,"durationTicks":120,"midi":90,"name":"F#6","ticks":215520,"time":122.15,"velocity":0.7874015748031497},{"duration":0.06750000000000966,"durationTicks":120,"midi":87,"name":"D#6","ticks":215640,"time":122.2175,"velocity":0.7874015748031497},{"duration":0.06749999999999545,"durationTicks":120,"midi":90,"name":"F#6","ticks":215760,"time":122.28500000000001,"velocity":0.7874015748031497},{"duration":0.06749999999999545,"durationTicks":120,"midi":87,"name":"D#6","ticks":215880,"time":122.3525,"velocity":0.7874015748031497},{"duration":0.06750000000000966,"durationTicks":120,"midi":97,"name":"C#7","ticks":216000,"time":122.42,"velocity":0.7874015748031497},{"duration":0.06749999999999545,"durationTicks":120,"midi":93,"name":"A6","ticks":216120,"time":122.48750000000001,"velocity":0.7874015748031497},{"duration":0.06749999999999545,"durationTicks":120,"midi":90,"name":"F#6","ticks":216240,"time":122.555,"velocity":0.7874015748031497},{"duration":0.06750000000000966,"durationTicks":120,"midi":98,"name":"D7","ticks":216360,"time":122.6225,"velocity":0.7874015748031497},{"duration":0.06749999999999545,"durationTicks":120,"midi":93,"name":"A6","ticks":216480,"time":122.69000000000001,"velocity":0.7874015748031497},{"duration":0.06749999999999545,"durationTicks":120,"midi":90,"name":"F#6","ticks":216600,"time":122.75750000000001,"velocity":0.7874015748031497},{"duration":0.06750000000000966,"durationTicks":120,"midi":93,"name":"A6","ticks":216720,"time":122.825,"velocity":0.7874015748031497},{"duration":0.06749999999999545,"durationTicks":120,"midi":90,"name":"F#6","ticks":216840,"time":122.89250000000001,"velocity":0.6929133858267716},{"duration":0.06749999999999545,"durationTicks":120,"midi":97,"name":"C#7","ticks":216960,"time":122.96000000000001,"velocity":0.6929133858267716},{"duration":0.06750000000000966,"durationTicks":120,"midi":93,"name":"A6","ticks":217080,"time":123.0275,"velocity":0.7874015748031497},{"duration":0.06749999999999545,"durationTicks":120,"midi":88,"name":"E6","ticks":217200,"time":123.09500000000001,"velocity":0.7874015748031497},{"duration":0.06749999999999545,"durationTicks":120,"midi":97,"name":"C#7","ticks":217320,"time":123.16250000000001,"velocity":0.7874015748031497},{"duration":0.06750000000000966,"durationTicks":120,"midi":93,"name":"A6","ticks":217440,"time":123.23,"velocity":0.7874015748031497},{"duration":0.06749999999999545,"durationTicks":120,"midi":88,"name":"E6","ticks":217560,"time":123.29750000000001,"velocity":0.7874015748031497},{"duration":0.06749999999999545,"durationTicks":120,"midi":97,"name":"C#7","ticks":217680,"time":123.36500000000001,"velocity":0.7874015748031497},{"duration":0.06750000000000966,"durationTicks":120,"midi":93,"name":"A6","ticks":217800,"time":123.4325,"velocity":0.7874015748031497},{"duration":0.06749999999999545,"durationTicks":120,"midi":88,"name":"E6","ticks":217920,"time":123.50000000000001,"velocity":0.7874015748031497},{"duration":0.06749999999999545,"durationTicks":120,"midi":95,"name":"B6","ticks":218040,"time":123.56750000000001,"velocity":0.7874015748031497},{"duration":0.06750000000000966,"durationTicks":120,"midi":92,"name":"G#6","ticks":218160,"time":123.635,"velocity":0.7874015748031497},{"duration":0.06749999999999545,"durationTicks":120,"midi":88,"name":"E6","ticks":218280,"time":123.70250000000001,"velocity":0.7874015748031497},{"duration":0.06749999999999545,"durationTicks":120,"midi":97,"name":"C#7","ticks":218400,"time":123.77000000000001,"velocity":0.7874015748031497},{"duration":0.06749999999999545,"durationTicks":120,"midi":92,"name":"G#6","ticks":218520,"time":123.8375,"velocity":0.7874015748031497},{"duration":0.13500000000000512,"durationTicks":240,"midi":95,"name":"B6","ticks":218640,"time":123.905,"velocity":0.7874015748031497},{"duration":0.06749999999999545,"durationTicks":120,"midi":100,"name":"E7","ticks":218880,"time":124.04,"velocity":0.7874015748031497},{"duration":0.06750000000000966,"durationTicks":120,"midi":93,"name":"A6","ticks":219000,"time":124.1075,"velocity":0.7874015748031497},{"duration":0.06749999999999545,"durationTicks":120,"midi":100,"name":"E7","ticks":219120,"time":124.17500000000001,"velocity":0.7874015748031497},{"duration":0.06750000000000966,"durationTicks":120,"midi":98,"name":"D7","ticks":219360,"time":124.31,"velocity":0.7874015748031497},{"duration":0.06749999999999545,"durationTicks":120,"midi":93,"name":"A6","ticks":219480,"time":124.37750000000001,"velocity":0.7874015748031497},{"duration":0.06749999999999545,"durationTicks":120,"midi":98,"name":"D7","ticks":219600,"time":124.44500000000001,"velocity":0.7874015748031497},{"duration":0.06749999999999545,"durationTicks":120,"midi":97,"name":"C#7","ticks":219840,"time":124.58000000000001,"velocity":0.7874015748031497},{"duration":0.06749999999999545,"durationTicks":120,"midi":93,"name":"A6","ticks":219960,"time":124.64750000000001,"velocity":0.7874015748031497},{"duration":0.06750000000000966,"durationTicks":120,"midi":97,"name":"C#7","ticks":220080,"time":124.715,"velocity":0.7874015748031497},{"duration":0.06749999999999545,"durationTicks":120,"midi":95,"name":"B6","ticks":220320,"time":124.85000000000001,"velocity":0.7874015748031497},{"duration":0.06750000000000966,"durationTicks":120,"midi":93,"name":"A6","ticks":220440,"time":124.9175,"velocity":0.7874015748031497},{"duration":0.06749999999999545,"durationTicks":120,"midi":95,"name":"B6","ticks":220560,"time":124.98500000000001,"velocity":0.7874015748031497},{"duration":0.06750000000000966,"durationTicks":120,"midi":88,"name":"E6","ticks":220800,"time":125.12,"velocity":0.7874015748031497},{"duration":0.06749999999999545,"durationTicks":120,"midi":85,"name":"C#6","ticks":220920,"time":125.18750000000001,"velocity":0.7874015748031497},{"duration":0.06749999999999545,"durationTicks":120,"midi":81,"name":"A5","ticks":221040,"time":125.25500000000001,"velocity":0.7874015748031497},{"duration":0.06750000000000966,"durationTicks":120,"midi":88,"name":"E6","ticks":221160,"time":125.3225,"velocity":0.7874015748031497},{"duration":0.06749999999999545,"durationTicks":120,"midi":85,"name":"C#6","ticks":221280,"time":125.39000000000001,"velocity":0.7874015748031497},{"duration":0.06749999999999545,"durationTicks":120,"midi":81,"name":"A5","ticks":221400,"time":125.45750000000001,"velocity":0.7874015748031497},{"duration":0.06749999999999545,"durationTicks":120,"midi":88,"name":"E6","ticks":221520,"time":125.525,"velocity":0.7874015748031497},{"duration":0.06750000000000966,"durationTicks":120,"midi":85,"name":"C#6","ticks":221640,"time":125.5925,"velocity":0.7874015748031497},{"duration":0.06749999999999545,"durationTicks":120,"midi":81,"name":"A5","ticks":221760,"time":125.66000000000001,"velocity":0.7874015748031497},{"duration":0.06749999999999545,"durationTicks":120,"midi":86,"name":"D6","ticks":221880,"time":125.7275,"velocity":0.7874015748031497},{"duration":0.06750000000000966,"durationTicks":120,"midi":81,"name":"A5","ticks":222000,"time":125.795,"velocity":0.7874015748031497},{"duration":0.06749999999999545,"durationTicks":120,"midi":81,"name":"A5","ticks":222120,"time":125.86250000000001,"velocity":0.7874015748031497},{"duration":0.06749999999999545,"durationTicks":120,"midi":86,"name":"D6","ticks":222240,"time":125.93,"velocity":0.7874015748031497},{"duration":0.06750000000000966,"durationTicks":120,"midi":81,"name":"A5","ticks":222360,"time":125.9975,"velocity":0.7874015748031497},{"duration":0.06749999999999545,"durationTicks":120,"midi":86,"name":"D6","ticks":222480,"time":126.06500000000001,"velocity":0.7874015748031497},{"duration":0.06749999999999545,"durationTicks":120,"midi":81,"name":"A5","ticks":222600,"time":126.13250000000001,"velocity":0.7874015748031497},{"duration":0.06750000000000966,"durationTicks":120,"midi":85,"name":"C#6","ticks":222720,"time":126.2,"velocity":0.7874015748031497},{"duration":0.06749999999999545,"durationTicks":120,"midi":81,"name":"A5","ticks":222840,"time":126.26750000000001,"velocity":0.7874015748031497},{"duration":0.06749999999999545,"durationTicks":120,"midi":76,"name":"E5","ticks":222960,"time":126.33500000000001,"velocity":0.7874015748031497},{"duration":0.06750000000000966,"durationTicks":120,"midi":85,"name":"C#6","ticks":223080,"time":126.4025,"velocity":0.7874015748031497},{"duration":0.06749999999999545,"durationTicks":120,"midi":81,"name":"A5","ticks":223200,"time":126.47000000000001,"velocity":0.7874015748031497},{"duration":0.06749999999999545,"durationTicks":120,"midi":76,"name":"E5","ticks":223320,"time":126.53750000000001,"velocity":0.7874015748031497},{"duration":0.06750000000000966,"durationTicks":120,"midi":85,"name":"C#6","ticks":223440,"time":126.605,"velocity":0.7874015748031497},{"duration":0.06749999999999545,"durationTicks":120,"midi":81,"name":"A5","ticks":223560,"time":126.67250000000001,"velocity":0.7874015748031497},{"duration":0.06749999999999545,"durationTicks":120,"midi":76,"name":"E5","ticks":223680,"time":126.74000000000001,"velocity":0.7874015748031497},{"duration":0.06750000000000966,"durationTicks":120,"midi":80,"name":"G#5","ticks":223800,"time":126.8075,"velocity":0.7874015748031497},{"duration":0.06749999999999545,"durationTicks":120,"midi":76,"name":"E5","ticks":223920,"time":126.87500000000001,"velocity":0.7874015748031497},{"duration":0.06749999999999545,"durationTicks":120,"midi":76,"name":"E5","ticks":224040,"time":126.94250000000001,"velocity":0.7874015748031497},{"duration":0.06750000000000966,"durationTicks":120,"midi":80,"name":"G#5","ticks":224160,"time":127.01,"velocity":0.7874015748031497},{"duration":0.06749999999999545,"durationTicks":120,"midi":76,"name":"E5","ticks":224280,"time":127.07750000000001,"velocity":0.7874015748031497},{"duration":0.06749999999999545,"durationTicks":120,"midi":80,"name":"G#5","ticks":224400,"time":127.14500000000001,"velocity":0.7874015748031497},{"duration":0.06749999999999545,"durationTicks":120,"midi":76,"name":"E5","ticks":224520,"time":127.2125,"velocity":0.7874015748031497},{"duration":0.06750000000000966,"durationTicks":120,"midi":83,"name":"B5","ticks":224640,"time":127.28,"velocity":0.7874015748031497},{"duration":0.06749999999999545,"durationTicks":120,"midi":78,"name":"F#5","ticks":224760,"time":127.34750000000001,"velocity":0.7874015748031497},{"duration":0.06749999999999545,"durationTicks":120,"midi":73,"name":"C#5","ticks":224880,"time":127.415,"velocity":0.7874015748031497},{"duration":0.06750000000000966,"durationTicks":120,"midi":83,"name":"B5","ticks":225000,"time":127.4825,"velocity":0.7874015748031497},{"duration":0.06749999999999545,"durationTicks":120,"midi":78,"name":"F#5","ticks":225120,"time":127.55000000000001,"velocity":0.7874015748031497},{"duration":0.06749999999999545,"durationTicks":120,"midi":73,"name":"C#5","ticks":225240,"time":127.6175,"velocity":0.7874015748031497},{"duration":0.06750000000000966,"durationTicks":120,"midi":83,"name":"B5","ticks":225360,"time":127.685,"velocity":0.7874015748031497},{"duration":0.06749999999999545,"durationTicks":120,"midi":78,"name":"F#5","ticks":225480,"time":127.75250000000001,"velocity":0.7874015748031497},{"duration":0.06749999999999545,"durationTicks":120,"midi":73,"name":"C#5","ticks":225600,"time":127.82000000000001,"velocity":0.7874015748031497},{"duration":0.06750000000000966,"durationTicks":120,"midi":81,"name":"A5","ticks":225720,"time":127.8875,"velocity":0.7874015748031497},{"duration":0.06749999999999545,"durationTicks":120,"midi":73,"name":"C#5","ticks":225840,"time":127.95500000000001,"velocity":0.7874015748031497},{"duration":0.06749999999999545,"durationTicks":120,"midi":73,"name":"C#5","ticks":225960,"time":128.0225,"velocity":0.7874015748031497},{"duration":0.06750000000002387,"durationTicks":120,"midi":81,"name":"A5","ticks":226080,"time":128.09,"velocity":0.7874015748031497},{"duration":0.06749999999999545,"durationTicks":120,"midi":73,"name":"C#5","ticks":226200,"time":128.15750000000003,"velocity":0.7874015748031497},{"duration":0.06749999999999545,"durationTicks":120,"midi":81,"name":"A5","ticks":226320,"time":128.22500000000002,"velocity":0.7874015748031497},{"duration":0.06749999999999545,"durationTicks":120,"midi":73,"name":"C#5","ticks":226440,"time":128.29250000000002,"velocity":0.7874015748031497},{"duration":0.06749999999999545,"durationTicks":120,"midi":80,"name":"G#5","ticks":226560,"time":128.36,"velocity":0.7874015748031497},{"duration":0.06749999999999545,"durationTicks":120,"midi":78,"name":"F#5","ticks":226680,"time":128.4275,"velocity":0.7874015748031497},{"duration":0.06749999999999545,"durationTicks":120,"midi":73,"name":"C#5","ticks":226800,"time":128.495,"velocity":0.7874015748031497},{"duration":0.06749999999999545,"durationTicks":120,"midi":80,"name":"G#5","ticks":226920,"time":128.5625,"velocity":0.7874015748031497},{"duration":0.06749999999999545,"durationTicks":120,"midi":78,"name":"F#5","ticks":227040,"time":128.63,"velocity":0.7874015748031497},{"duration":0.06750000000002387,"durationTicks":120,"midi":73,"name":"C#5","ticks":227160,"time":128.6975,"velocity":0.7874015748031497},{"duration":0.06749999999999545,"durationTicks":120,"midi":81,"name":"A5","ticks":227280,"time":128.76500000000001,"velocity":0.7874015748031497},{"duration":0.06749999999999545,"durationTicks":120,"midi":78,"name":"F#5","ticks":227400,"time":128.8325,"velocity":0.7874015748031497},{"duration":0.13500000000001933,"durationTicks":240,"midi":83,"name":"B5","ticks":227520,"time":128.9,"velocity":0.7874015748031497},{"duration":0.06749999999999545,"durationTicks":120,"midi":76,"name":"E5","ticks":227640,"time":128.96750000000003,"velocity":0.6929133858267716},{"duration":0.1349999999999909,"durationTicks":240,"midi":85,"name":"C#6","ticks":227760,"time":129.03500000000003,"velocity":0.7874015748031497},{"duration":0.06749999999999545,"durationTicks":120,"midi":76,"name":"E5","ticks":227880,"time":129.10250000000002,"velocity":0.6929133858267716},{"duration":0.1349999999999909,"durationTicks":240,"midi":86,"name":"D6","ticks":228000,"time":129.17000000000002,"velocity":0.7874015748031497},{"duration":0.06749999999999545,"durationTicks":120,"midi":76,"name":"E5","ticks":228120,"time":129.2375,"velocity":0.6929133858267716},{"duration":0.1349999999999909,"durationTicks":240,"midi":88,"name":"E6","ticks":228240,"time":129.305,"velocity":0.7874015748031497},{"duration":0.06749999999999545,"durationTicks":120,"midi":76,"name":"E5","ticks":228360,"time":129.3725,"velocity":0.6929133858267716},{"duration":0.06749999999999545,"durationTicks":120,"midi":90,"name":"F#6","ticks":228480,"time":129.44,"velocity":0.7874015748031497},{"duration":0.06749999999999545,"durationTicks":120,"midi":86,"name":"D6","ticks":228600,"time":129.5075,"velocity":0.7874015748031497},{"duration":0.06750000000002387,"durationTicks":120,"midi":81,"name":"A5","ticks":228720,"time":129.575,"velocity":0.7874015748031497},{"duration":0.06749999999999545,"durationTicks":120,"midi":90,"name":"F#6","ticks":228840,"time":129.6425,"velocity":0.7874015748031497},{"duration":0.06749999999999545,"durationTicks":120,"midi":86,"name":"D6","ticks":228960,"time":129.71,"velocity":0.7874015748031497},{"duration":0.06750000000002387,"durationTicks":120,"midi":81,"name":"A5","ticks":229080,"time":129.7775,"velocity":0.7874015748031497},{"duration":0.06749999999999545,"durationTicks":120,"midi":90,"name":"F#6","ticks":229200,"time":129.84500000000003,"velocity":0.7874015748031497},{"duration":0.06749999999999545,"durationTicks":120,"midi":86,"name":"D6","ticks":229320,"time":129.91250000000002,"velocity":0.7874015748031497},{"duration":0.06749999999999545,"durationTicks":120,"midi":92,"name":"G#6","ticks":229440,"time":129.98000000000002,"velocity":0.7874015748031497},{"duration":0.06749999999999545,"durationTicks":120,"midi":86,"name":"D6","ticks":229560,"time":130.0475,"velocity":0.7874015748031497},{"duration":0.06749999999999545,"durationTicks":120,"midi":92,"name":"G#6","ticks":229680,"time":130.115,"velocity":0.7874015748031497},{"duration":0.06749999999999545,"durationTicks":120,"midi":93,"name":"A6","ticks":229920,"time":130.25,"velocity":0.7874015748031497},{"duration":0.06750000000002387,"durationTicks":120,"midi":86,"name":"D6","ticks":230040,"time":130.3175,"velocity":0.7874015748031497},{"duration":0.06749999999999545,"durationTicks":120,"midi":93,"name":"A6","ticks":230160,"time":130.38500000000002,"velocity":0.7874015748031497},{"duration":0.06749999999999545,"durationTicks":120,"midi":95,"name":"B6","ticks":230400,"time":130.52,"velocity":0.7874015748031497},{"duration":0.06749999999999545,"durationTicks":120,"midi":86,"name":"D6","ticks":230520,"time":130.5875,"velocity":0.7874015748031497},{"duration":0.06749999999999545,"durationTicks":120,"midi":95,"name":"B6","ticks":230640,"time":130.655,"velocity":0.7874015748031497},{"duration":0.06749999999999545,"durationTicks":120,"midi":93,"name":"A6","ticks":230880,"time":130.79000000000002,"velocity":0.7874015748031497},{"duration":0.06749999999999545,"durationTicks":120,"midi":86,"name":"D6","ticks":231000,"time":130.85750000000002,"velocity":0.7874015748031497},{"duration":0.06749999999999545,"durationTicks":120,"midi":93,"name":"A6","ticks":231120,"time":130.925,"velocity":0.7874015748031497},{"duration":0.06749999999999545,"durationTicks":120,"midi":92,"name":"G#6","ticks":231360,"time":131.06,"velocity":0.7874015748031497},{"duration":0.06750000000002387,"durationTicks":120,"midi":86,"name":"D6","ticks":231480,"time":131.1275,"velocity":0.7874015748031497},{"duration":0.06749999999999545,"durationTicks":120,"midi":92,"name":"G#6","ticks":231600,"time":131.19500000000002,"velocity":0.7874015748031497},{"duration":0.06749999999999545,"durationTicks":120,"midi":90,"name":"F#6","ticks":231840,"time":131.33,"velocity":0.7874015748031497},{"duration":0.06749999999999545,"durationTicks":120,"midi":86,"name":"D6","ticks":231960,"time":131.3975,"velocity":0.7874015748031497},{"duration":0.06749999999999545,"durationTicks":120,"midi":90,"name":"F#6","ticks":232080,"time":131.465,"velocity":0.7874015748031497},{"duration":0.06749999999999545,"durationTicks":120,"midi":90,"name":"F#6","ticks":232320,"time":131.60000000000002,"velocity":0.7874015748031497},{"duration":0.06749999999999545,"durationTicks":120,"midi":85,"name":"C#6","ticks":232440,"time":131.66750000000002,"velocity":0.7874015748031497},{"duration":0.06749999999999545,"durationTicks":120,"midi":90,"name":"F#6","ticks":232560,"time":131.735,"velocity":0.7874015748031497},{"duration":0.06749999999999545,"durationTicks":120,"midi":88,"name":"E6","ticks":232800,"time":131.87,"velocity":0.7874015748031497},{"duration":0.06749999999999545,"durationTicks":120,"midi":85,"name":"C#6","ticks":232920,"time":131.9375,"velocity":0.7874015748031497},{"duration":0.06750000000002387,"durationTicks":120,"midi":88,"name":"E6","ticks":233040,"time":132.005,"velocity":0.7874015748031497},{"duration":0.06749999999999545,"durationTicks":120,"midi":87,"name":"D#6","ticks":233280,"time":132.14000000000001,"velocity":0.7874015748031497},{"duration":0.06749999999999545,"durationTicks":120,"midi":85,"name":"C#6","ticks":233400,"time":132.2075,"velocity":0.7874015748031497},{"duration":0.06749999999999545,"durationTicks":120,"midi":87,"name":"D#6","ticks":233520,"time":132.275,"velocity":0.7874015748031497},{"duration":0.06750000000002387,"durationTicks":120,"midi":90,"name":"F#6","ticks":233760,"time":132.41,"velocity":0.7874015748031497},{"duration":0.06749999999999545,"durationTicks":120,"midi":85,"name":"C#6","ticks":233880,"time":132.47750000000002,"velocity":0.7874015748031497},{"duration":0.06749999999999545,"durationTicks":120,"midi":90,"name":"F#6","ticks":234000,"time":132.54500000000002,"velocity":0.7874015748031497},{"duration":0.06749999999999545,"durationTicks":120,"midi":88,"name":"E6","ticks":234240,"time":132.68,"velocity":0.7874015748031497},{"duration":0.06749999999999545,"durationTicks":120,"midi":85,"name":"C#6","ticks":234360,"time":132.7475,"velocity":0.7874015748031497},{"duration":0.06750000000002387,"durationTicks":120,"midi":81,"name":"A5","ticks":234480,"time":132.815,"velocity":0.7874015748031497},{"duration":0.06749999999999545,"durationTicks":120,"midi":88,"name":"E6","ticks":234600,"time":132.88250000000002,"velocity":0.7874015748031497},{"duration":0.06749999999999545,"durationTicks":120,"midi":85,"name":"C#6","ticks":234720,"time":132.95000000000002,"velocity":0.7874015748031497},{"duration":0.06749999999999545,"durationTicks":120,"midi":81,"name":"A5","ticks":234840,"time":133.0175,"velocity":0.7874015748031497},{"duration":0.06749999999999545,"durationTicks":120,"midi":88,"name":"E6","ticks":234960,"time":133.085,"velocity":0.7874015748031497},{"duration":0.06749999999999545,"durationTicks":120,"midi":85,"name":"C#6","ticks":235080,"time":133.1525,"velocity":0.7874015748031497},{"duration":0.06750000000002387,"durationTicks":120,"midi":81,"name":"A5","ticks":235200,"time":133.22,"velocity":0.7874015748031497},{"duration":0.06749999999999545,"durationTicks":120,"midi":85,"name":"C#6","ticks":235320,"time":133.28750000000002,"velocity":0.7874015748031497},{"duration":0.06749999999999545,"durationTicks":120,"midi":81,"name":"A5","ticks":235440,"time":133.35500000000002,"velocity":0.7874015748031497},{"duration":0.06749999999999545,"durationTicks":120,"midi":81,"name":"A5","ticks":235560,"time":133.4225,"velocity":0.7874015748031497},{"duration":0.06749999999999545,"durationTicks":120,"midi":85,"name":"C#6","ticks":235680,"time":133.49,"velocity":0.7874015748031497},{"duration":0.06749999999999545,"durationTicks":120,"midi":81,"name":"A5","ticks":235800,"time":133.5575,"velocity":0.7874015748031497},{"duration":0.06749999999999545,"durationTicks":120,"midi":85,"name":"C#6","ticks":235920,"time":133.625,"velocity":0.7874015748031497},{"duration":0.06750000000002387,"durationTicks":120,"midi":81,"name":"A5","ticks":236040,"time":133.6925,"velocity":0.7874015748031497},{"duration":0.06749999999999545,"durationTicks":120,"midi":86,"name":"D6","ticks":236160,"time":133.76000000000002,"velocity":0.7874015748031497},{"duration":0.06749999999999545,"durationTicks":120,"midi":81,"name":"A5","ticks":236280,"time":133.82750000000001,"velocity":0.7874015748031497},{"duration":0.06749999999999545,"durationTicks":120,"midi":86,"name":"D6","ticks":236400,"time":133.895,"velocity":0.7874015748031497},{"duration":0.06749999999999545,"durationTicks":120,"midi":88,"name":"E6","ticks":236640,"time":134.03,"velocity":0.7874015748031497},{"duration":0.06750000000002387,"durationTicks":120,"midi":81,"name":"A5","ticks":236760,"time":134.0975,"velocity":0.7874015748031497},{"duration":0.06749999999999545,"durationTicks":120,"midi":88,"name":"E6","ticks":236880,"time":134.16500000000002,"velocity":0.7874015748031497},{"duration":0.06749999999999545,"durationTicks":120,"midi":90,"name":"F#6","ticks":237120,"time":134.3,"velocity":0.7874015748031497},{"duration":0.06749999999999545,"durationTicks":120,"midi":81,"name":"A5","ticks":237240,"time":134.3675,"velocity":0.7874015748031497},{"duration":0.06749999999999545,"durationTicks":120,"midi":90,"name":"F#6","ticks":237360,"time":134.435,"velocity":0.7874015748031497},{"duration":0.06749999999999545,"durationTicks":120,"midi":93,"name":"A6","ticks":237600,"time":134.57000000000002,"velocity":0.7874015748031497},{"duration":0.06749999999999545,"durationTicks":120,"midi":81,"name":"A5","ticks":237720,"time":134.63750000000002,"velocity":0.7874015748031497},{"duration":0.06749999999999545,"durationTicks":120,"midi":93,"name":"A6","ticks":237840,"time":134.705,"velocity":0.7874015748031497},{"duration":0.09000000000000341,"durationTicks":160,"midi":92,"name":"G#6","ticks":238080,"time":134.84,"velocity":0.7874015748031497},{"duration":0.09000000000000341,"durationTicks":160,"midi":93,"name":"A6","ticks":238240,"time":134.93,"velocity":0.7874015748031497},{"duration":0.09000000000000341,"durationTicks":160,"midi":92,"name":"G#6","ticks":238400,"time":135.02,"velocity":0.7874015748031497},{"duration":0.2699999999999818,"durationTicks":480,"midi":90,"name":"F#6","ticks":238560,"time":135.11,"velocity":0.7874015748031497},{"duration":0.06750000000002387,"durationTicks":120,"midi":88,"name":"E6","ticks":239040,"time":135.38,"velocity":0.7874015748031497},{"duration":0.06749999999999545,"durationTicks":120,"midi":81,"name":"A5","ticks":239160,"time":135.44750000000002,"velocity":0.7874015748031497},{"duration":0.06749999999999545,"durationTicks":120,"midi":88,"name":"E6","ticks":239280,"time":135.51500000000001,"velocity":0.7874015748031497},{"duration":0.06749999999999545,"durationTicks":120,"midi":85,"name":"C#6","ticks":239520,"time":135.65,"velocity":0.7874015748031497},{"duration":0.06749999999999545,"durationTicks":120,"midi":81,"name":"A5","ticks":239640,"time":135.7175,"velocity":0.7874015748031497},{"duration":0.06750000000002387,"durationTicks":120,"midi":86,"name":"D6","ticks":239760,"time":135.785,"velocity":0.7874015748031497},{"duration":0.06749999999999545,"durationTicks":120,"midi":85,"name":"C#6","ticks":240000,"time":135.92000000000002,"velocity":0.7874015748031497},{"duration":0.06749999999999545,"durationTicks":120,"midi":77,"name":"F5","ticks":240120,"time":135.9875,"velocity":0.7874015748031497},{"duration":0.06749999999999545,"durationTicks":120,"midi":85,"name":"C#6","ticks":240240,"time":136.055,"velocity":0.7874015748031497},{"duration":0.06750000000002387,"durationTicks":120,"midi":89,"name":"F6","ticks":240480,"time":136.19,"velocity":0.7874015748031497},{"duration":0.06749999999999545,"durationTicks":120,"midi":77,"name":"F5","ticks":240600,"time":136.25750000000002,"velocity":0.7874015748031497},{"duration":0.06749999999999545,"durationTicks":120,"midi":89,"name":"F6","ticks":240720,"time":136.32500000000002,"velocity":0.7874015748031497},{"duration":0.06749999999999545,"durationTicks":120,"midi":92,"name":"G#6","ticks":240960,"time":136.46,"velocity":0.7874015748031497},{"duration":0.06749999999999545,"durationTicks":120,"midi":77,"name":"F5","ticks":241080,"time":136.5275,"velocity":0.7874015748031497},{"duration":0.06750000000002387,"durationTicks":120,"midi":92,"name":"G#6","ticks":241200,"time":136.595,"velocity":0.7874015748031497},{"duration":0.06749999999999545,"durationTicks":120,"midi":85,"name":"C#6","ticks":241440,"time":136.73000000000002,"velocity":0.7874015748031497},{"duration":0.06749999999999545,"durationTicks":120,"midi":77,"name":"F5","ticks":241560,"time":136.7975,"velocity":0.7874015748031497},{"duration":0.06749999999999545,"durationTicks":120,"midi":85,"name":"C#6","ticks":241680,"time":136.865,"velocity":0.7874015748031497},{"duration":0.06749999999999545,"durationTicks":120,"midi":95,"name":"B6","ticks":241920,"time":137,"velocity":0.7874015748031497},{"duration":0.06750000000002387,"durationTicks":120,"midi":90,"name":"F#6","ticks":242040,"time":137.0675,"velocity":0.7874015748031497},{"duration":0.06749999999999545,"durationTicks":120,"midi":95,"name":"B6","ticks":242160,"time":137.13500000000002,"velocity":0.7874015748031497},{"duration":0.06749999999999545,"durationTicks":120,"midi":93,"name":"A6","ticks":242400,"time":137.27,"velocity":0.7874015748031497},{"duration":0.06749999999999545,"durationTicks":120,"midi":90,"name":"F#6","ticks":242520,"time":137.3375,"velocity":0.7874015748031497},{"duration":0.06749999999999545,"durationTicks":120,"midi":93,"name":"A6","ticks":242640,"time":137.405,"velocity":0.7874015748031497},{"duration":0.06749999999999545,"durationTicks":120,"midi":92,"name":"G#6","ticks":242880,"time":137.54000000000002,"velocity":0.7874015748031497},{"duration":0.06749999999999545,"durationTicks":120,"midi":90,"name":"F#6","ticks":243000,"time":137.60750000000002,"velocity":0.7874015748031497},{"duration":0.06749999999999545,"durationTicks":120,"midi":92,"name":"G#6","ticks":243120,"time":137.675,"velocity":0.7874015748031497},{"duration":0.06749999999999545,"durationTicks":120,"midi":93,"name":"A6","ticks":243360,"time":137.81,"velocity":0.7874015748031497},{"duration":0.06750000000002387,"durationTicks":120,"midi":90,"name":"F#6","ticks":243480,"time":137.8775,"velocity":0.7874015748031497},{"duration":0.06749999999999545,"durationTicks":120,"midi":93,"name":"A6","ticks":243600,"time":137.94500000000002,"velocity":0.7874015748031497},{"duration":0.06749999999999545,"durationTicks":120,"midi":97,"name":"C#7","ticks":243840,"time":138.08,"velocity":0.7874015748031497},{"duration":0.06749999999999545,"durationTicks":120,"midi":93,"name":"A6","ticks":243960,"time":138.1475,"velocity":0.7874015748031497},{"duration":0.06749999999999545,"durationTicks":120,"midi":90,"name":"F#6","ticks":244080,"time":138.215,"velocity":0.7874015748031497},{"duration":0.06750000000002387,"durationTicks":120,"midi":97,"name":"C#7","ticks":244200,"time":138.2825,"velocity":0.7874015748031497},{"duration":0.06749999999999545,"durationTicks":120,"midi":93,"name":"A6","ticks":244320,"time":138.35000000000002,"velocity":0.7874015748031497},{"duration":0.06749999999999545,"durationTicks":120,"midi":90,"name":"F#6","ticks":244440,"time":138.41750000000002,"velocity":0.7874015748031497},{"duration":0.06749999999999545,"durationTicks":120,"midi":97,"name":"C#7","ticks":244560,"time":138.485,"velocity":0.7874015748031497},{"duration":0.06749999999999545,"durationTicks":120,"midi":93,"name":"A6","ticks":244680,"time":138.5525,"velocity":0.7874015748031497},{"duration":0.06749999999999545,"durationTicks":120,"midi":90,"name":"F#6","ticks":244800,"time":138.62,"velocity":0.7874015748031497},{"duration":0.06749999999999545,"durationTicks":120,"midi":93,"name":"A6","ticks":244920,"time":138.6875,"velocity":0.7874015748031497},{"duration":0.06750000000002387,"durationTicks":120,"midi":90,"name":"F#6","ticks":245040,"time":138.755,"velocity":0.7874015748031497},{"duration":0.06749999999999545,"durationTicks":120,"midi":90,"name":"F#6","ticks":245160,"time":138.82250000000002,"velocity":0.7874015748031497},{"duration":0.06749999999999545,"durationTicks":120,"midi":93,"name":"A6","ticks":245280,"time":138.89000000000001,"velocity":0.6929133858267716},{"duration":0.06749999999999545,"durationTicks":120,"midi":90,"name":"F#6","ticks":245400,"time":138.9575,"velocity":0.6929133858267716},{"duration":0.06749999999999545,"durationTicks":120,"midi":93,"name":"A6","ticks":245520,"time":139.025,"velocity":0.6929133858267716},{"duration":0.06749999999999545,"durationTicks":120,"midi":95,"name":"B6","ticks":245640,"time":139.0925,"velocity":0.7874015748031497},{"duration":0.06750000000002387,"durationTicks":120,"midi":97,"name":"C#7","ticks":245760,"time":139.16,"velocity":0.7874015748031497},{"duration":0.06749999999999545,"durationTicks":120,"midi":93,"name":"A6","ticks":245880,"time":139.22750000000002,"velocity":0.7874015748031497},{"duration":0.06749999999999545,"durationTicks":120,"midi":97,"name":"C#7","ticks":246000,"time":139.29500000000002,"velocity":0.7874015748031497},{"duration":0.06749999999999545,"durationTicks":120,"midi":93,"name":"A6","ticks":246120,"time":139.3625,"velocity":0.7874015748031497},{"duration":0.06749999999999545,"durationTicks":120,"midi":90,"name":"F#6","ticks":246240,"time":139.43,"velocity":0.7874015748031497},{"duration":0.06749999999999545,"durationTicks":120,"midi":87,"name":"D#6","ticks":246360,"time":139.4975,"velocity":0.7874015748031497},{"duration":0.06750000000002387,"durationTicks":120,"midi":90,"name":"F#6","ticks":246480,"time":139.565,"velocity":0.7874015748031497},{"duration":0.06749999999999545,"durationTicks":120,"midi":87,"name":"D#6","ticks":246600,"time":139.63250000000002,"velocity":0.7874015748031497},{"duration":0.06749999999999545,"durationTicks":120,"midi":97,"name":"C#7","ticks":246720,"time":139.70000000000002,"velocity":0.7874015748031497},{"duration":0.06749999999999545,"durationTicks":120,"midi":93,"name":"A6","ticks":246840,"time":139.7675,"velocity":0.7874015748031497},{"duration":0.06749999999999545,"durationTicks":120,"midi":90,"name":"F#6","ticks":246960,"time":139.835,"velocity":0.7874015748031497},{"duration":0.06749999999999545,"durationTicks":120,"midi":98,"name":"D7","ticks":247080,"time":139.9025,"velocity":0.7874015748031497},{"duration":0.06750000000002387,"durationTicks":120,"midi":93,"name":"A6","ticks":247200,"time":139.97,"velocity":0.7874015748031497},{"duration":0.06749999999999545,"durationTicks":120,"midi":90,"name":"F#6","ticks":247320,"time":140.03750000000002,"velocity":0.7874015748031497},{"duration":0.06749999999999545,"durationTicks":120,"midi":93,"name":"A6","ticks":247440,"time":140.10500000000002,"velocity":0.7874015748031497},{"duration":0.06749999999999545,"durationTicks":120,"midi":90,"name":"F#6","ticks":247560,"time":140.1725,"velocity":0.6929133858267716},{"duration":0.06749999999999545,"durationTicks":120,"midi":97,"name":"C#7","ticks":247680,"time":140.24,"velocity":0.6929133858267716},{"duration":0.06749999999999545,"durationTicks":120,"midi":93,"name":"A6","ticks":247800,"time":140.3075,"velocity":0.7874015748031497},{"duration":0.06749999999999545,"durationTicks":120,"midi":88,"name":"E6","ticks":247920,"time":140.375,"velocity":0.7874015748031497},{"duration":0.06750000000002387,"durationTicks":120,"midi":97,"name":"C#7","ticks":248040,"time":140.4425,"velocity":0.7874015748031497},{"duration":0.06749999999999545,"durationTicks":120,"midi":93,"name":"A6","ticks":248160,"time":140.51000000000002,"velocity":0.7874015748031497},{"duration":0.06749999999999545,"durationTicks":120,"midi":88,"name":"E6","ticks":248280,"time":140.57750000000001,"velocity":0.7874015748031497},{"duration":0.06749999999999545,"durationTicks":120,"midi":97,"name":"C#7","ticks":248400,"time":140.645,"velocity":0.7874015748031497},{"duration":0.06749999999999545,"durationTicks":120,"midi":93,"name":"A6","ticks":248520,"time":140.7125,"velocity":0.7874015748031497},{"duration":0.06749999999999545,"durationTicks":120,"midi":88,"name":"E6","ticks":248640,"time":140.78,"velocity":0.7874015748031497},{"duration":0.06750000000002387,"durationTicks":120,"midi":95,"name":"B6","ticks":248760,"time":140.8475,"velocity":0.7874015748031497},{"duration":0.06749999999999545,"durationTicks":120,"midi":92,"name":"G#6","ticks":248880,"time":140.91500000000002,"velocity":0.7874015748031497},{"duration":0.06749999999999545,"durationTicks":120,"midi":88,"name":"E6","ticks":249000,"time":140.98250000000002,"velocity":0.7874015748031497},{"duration":0.06749999999999545,"durationTicks":120,"midi":97,"name":"C#7","ticks":249120,"time":141.05,"velocity":0.7874015748031497},{"duration":0.06749999999999545,"durationTicks":120,"midi":92,"name":"G#6","ticks":249240,"time":141.1175,"velocity":0.7874015748031497},{"duration":0.13500000000001933,"durationTicks":240,"midi":95,"name":"B6","ticks":249360,"time":141.185,"velocity":0.7874015748031497},{"duration":0.06749999999999545,"durationTicks":120,"midi":100,"name":"E7","ticks":249600,"time":141.32000000000002,"velocity":0.7874015748031497},{"duration":0.06749999999999545,"durationTicks":120,"midi":93,"name":"A6","ticks":249720,"time":141.38750000000002,"velocity":0.7874015748031497},{"duration":0.06749999999999545,"durationTicks":120,"midi":100,"name":"E7","ticks":249840,"time":141.455,"velocity":0.7874015748031497},{"duration":0.06749999999999545,"durationTicks":120,"midi":98,"name":"D7","ticks":250080,"time":141.59,"velocity":0.7874015748031497},{"duration":0.06750000000002387,"durationTicks":120,"midi":93,"name":"A6","ticks":250200,"time":141.6575,"velocity":0.7874015748031497},{"duration":0.06749999999999545,"durationTicks":120,"midi":98,"name":"D7","ticks":250320,"time":141.72500000000002,"velocity":0.7874015748031497},{"duration":0.06749999999999545,"durationTicks":120,"midi":97,"name":"C#7","ticks":250560,"time":141.86,"velocity":0.7874015748031497},{"duration":0.06749999999999545,"durationTicks":120,"midi":93,"name":"A6","ticks":250680,"time":141.9275,"velocity":0.7874015748031497},{"duration":0.06749999999999545,"durationTicks":120,"midi":97,"name":"C#7","ticks":250800,"time":141.995,"velocity":0.7874015748031497},{"duration":0.06750000000002387,"durationTicks":120,"midi":95,"name":"B6","ticks":251040,"time":142.13,"velocity":0.7874015748031497},{"duration":0.06749999999999545,"durationTicks":120,"midi":93,"name":"A6","ticks":251160,"time":142.19750000000002,"velocity":0.7874015748031497},{"duration":0.06749999999999545,"durationTicks":120,"midi":95,"name":"B6","ticks":251280,"time":142.26500000000001,"velocity":0.7874015748031497},{"duration":0.27000000000001023,"durationTicks":480,"midi":64,"name":"E4","ticks":251520,"time":142.4,"velocity":0.6929133858267716},{"duration":0.27000000000001023,"durationTicks":480,"midi":76,"name":"E5","ticks":251520,"time":142.4,"velocity":0.7874015748031497},{"duration":0.2699999999999818,"durationTicks":480,"midi":68,"name":"G#4","ticks":252000,"time":142.67000000000002,"velocity":0.6929133858267716},{"duration":0.2699999999999818,"durationTicks":480,"midi":80,"name":"G#5","ticks":252000,"time":142.67000000000002,"velocity":0.7874015748031497},{"duration":0.27000000000001023,"durationTicks":480,"midi":71,"name":"B4","ticks":252480,"time":142.94,"velocity":0.6929133858267716},{"duration":0.27000000000001023,"durationTicks":480,"midi":83,"name":"B5","ticks":252480,"time":142.94,"velocity":0.7874015748031497},{"duration":0.27000000000001023,"durationTicks":480,"midi":74,"name":"D5","ticks":252960,"time":143.21,"velocity":0.6929133858267716},{"duration":0.27000000000001023,"durationTicks":480,"midi":86,"name":"D6","ticks":252960,"time":143.21,"velocity":0.7874015748031497},{"duration":0.2699999999999818,"durationTicks":480,"midi":64,"name":"E4","ticks":253440,"time":143.48000000000002,"velocity":0.6929133858267716},{"duration":0.2699999999999818,"durationTicks":480,"midi":76,"name":"E5","ticks":253440,"time":143.48000000000002,"velocity":0.7874015748031497},{"duration":0.2699999999999818,"durationTicks":480,"midi":88,"name":"E6","ticks":253440,"time":143.48000000000002,"velocity":0.6929133858267716},{"duration":0.27000000000001023,"durationTicks":480,"midi":68,"name":"G#4","ticks":253920,"time":143.75,"velocity":0.6929133858267716},{"duration":0.27000000000001023,"durationTicks":480,"midi":80,"name":"G#5","ticks":253920,"time":143.75,"velocity":0.7874015748031497},{"duration":0.27000000000001023,"durationTicks":480,"midi":71,"name":"B4","ticks":254400,"time":144.02,"velocity":0.6929133858267716},{"duration":0.27000000000001023,"durationTicks":480,"midi":83,"name":"B5","ticks":254400,"time":144.02,"velocity":0.7874015748031497},{"duration":0.2699999999999818,"durationTicks":480,"midi":74,"name":"D5","ticks":254880,"time":144.29000000000002,"velocity":0.6929133858267716},{"duration":0.2699999999999818,"durationTicks":480,"midi":86,"name":"D6","ticks":254880,"time":144.29000000000002,"velocity":0.7874015748031497},{"duration":0.27000000000001023,"durationTicks":480,"midi":68,"name":"G#4","ticks":255360,"time":144.56,"velocity":0.7874015748031497},{"duration":0.27000000000001023,"durationTicks":480,"midi":80,"name":"G#5","ticks":255360,"time":144.56,"velocity":0.7874015748031497},{"duration":0.27000000000001023,"durationTicks":480,"midi":88,"name":"E6","ticks":255360,"time":144.56,"velocity":0.6929133858267716},{"duration":0.27000000000001023,"durationTicks":480,"midi":71,"name":"B4","ticks":255840,"time":144.83,"velocity":0.7874015748031497},{"duration":0.27000000000001023,"durationTicks":480,"midi":83,"name":"B5","ticks":255840,"time":144.83,"velocity":0.7874015748031497},{"duration":0.2699999999999818,"durationTicks":480,"midi":76,"name":"E5","ticks":256320,"time":145.10000000000002,"velocity":0.7874015748031497},{"duration":0.2699999999999818,"durationTicks":480,"midi":88,"name":"E6","ticks":256320,"time":145.10000000000002,"velocity":0.7874015748031497},{"duration":0.27000000000001023,"durationTicks":480,"midi":78,"name":"F#5","ticks":256800,"time":145.37,"velocity":0.7874015748031497},{"duration":0.27000000000001023,"durationTicks":480,"midi":90,"name":"F#6","ticks":256800,"time":145.37,"velocity":0.7874015748031497},{"duration":0.2699999999999818,"durationTicks":480,"midi":80,"name":"G#5","ticks":257280,"time":145.64000000000001,"velocity":0.7874015748031497},{"duration":0.2699999999999818,"durationTicks":480,"midi":92,"name":"G#6","ticks":257280,"time":145.64000000000001,"velocity":0.7874015748031497},{"duration":0.27000000000001023,"durationTicks":480,"midi":83,"name":"B5","ticks":257760,"time":145.91,"velocity":0.7874015748031497},{"duration":0.27000000000001023,"durationTicks":480,"midi":95,"name":"B6","ticks":257760,"time":145.91,"velocity":0.7874015748031497},{"duration":0.27000000000001023,"durationTicks":480,"midi":88,"name":"E6","ticks":258240,"time":146.18,"velocity":0.7874015748031497},{"duration":0.27000000000001023,"durationTicks":480,"midi":100,"name":"E7","ticks":258240,"time":146.18,"velocity":0.7874015748031497},{"duration":0.2699999999999818,"durationTicks":480,"midi":92,"name":"G#6","ticks":258720,"time":146.45000000000002,"velocity":0.7874015748031497},{"duration":0.2699999999999818,"durationTicks":480,"midi":104,"name":"G#7","ticks":258720,"time":146.45000000000002,"velocity":0.7874015748031497},{"duration":3.240000000000009,"durationTicks":5760,"midi":105,"name":"A7","ticks":259200,"time":146.72,"velocity":0.8188976377952756},{"duration":3.240000000000009,"durationTicks":5760,"midi":93,"name":"A6","ticks":259200,"time":146.72,"velocity":0.8188976377952756},{"duration":0.06750000000002387,"durationTicks":120,"midi":69,"name":"A4","ticks":259200,"time":146.72,"velocity":0.7874015748031497},{"duration":0.06749999999999545,"durationTicks":120,"midi":71,"name":"B4","ticks":259320,"time":146.78750000000002,"velocity":0.7874015748031497},{"duration":0.06749999999999545,"durationTicks":120,"midi":73,"name":"C#5","ticks":259440,"time":146.85500000000002,"velocity":0.7874015748031497},{"duration":0.06749999999999545,"durationTicks":120,"midi":76,"name":"E5","ticks":259560,"time":146.9225,"velocity":0.7874015748031497},{"duration":0.06749999999999545,"durationTicks":120,"midi":81,"name":"A5","ticks":259680,"time":146.99,"velocity":0.7874015748031497},{"duration":0.06749999999999545,"durationTicks":120,"midi":76,"name":"E5","ticks":259800,"time":147.0575,"velocity":0.7874015748031497},{"duration":0.06749999999999545,"durationTicks":120,"midi":73,"name":"C#5","ticks":259920,"time":147.125,"velocity":0.7874015748031497},{"duration":0.06750000000002387,"durationTicks":120,"midi":69,"name":"A4","ticks":260040,"time":147.1925,"velocity":0.7874015748031497},{"duration":0.06749999999999545,"durationTicks":120,"midi":69,"name":"A4","ticks":260160,"time":147.26000000000002,"velocity":0.7874015748031497},{"duration":0.06749999999999545,"durationTicks":120,"midi":71,"name":"B4","ticks":260280,"time":147.32750000000001,"velocity":0.7874015748031497},{"duration":0.06749999999999545,"durationTicks":120,"midi":73,"name":"C#5","ticks":260400,"time":147.395,"velocity":0.7874015748031497},{"duration":0.06749999999999545,"durationTicks":120,"midi":76,"name":"E5","ticks":260520,"time":147.4625,"velocity":0.7874015748031497},{"duration":0.06749999999999545,"durationTicks":120,"midi":81,"name":"A5","ticks":260640,"time":147.53,"velocity":0.7874015748031497},{"duration":0.06750000000002387,"durationTicks":120,"midi":76,"name":"E5","ticks":260760,"time":147.5975,"velocity":0.7874015748031497},{"duration":0.06749999999999545,"durationTicks":120,"midi":73,"name":"C#5","ticks":260880,"time":147.66500000000002,"velocity":0.7874015748031497},{"duration":0.06749999999999545,"durationTicks":120,"midi":69,"name":"A4","ticks":261000,"time":147.73250000000002,"velocity":0.7874015748031497},{"duration":0.06749999999999545,"durationTicks":120,"midi":69,"name":"A4","ticks":261120,"time":147.8,"velocity":0.7874015748031497},{"duration":0.06749999999999545,"durationTicks":120,"midi":71,"name":"B4","ticks":261240,"time":147.8675,"velocity":0.7874015748031497},{"duration":0.06749999999999545,"durationTicks":120,"midi":73,"name":"C#5","ticks":261360,"time":147.935,"velocity":0.7874015748031497},{"duration":0.06750000000002387,"durationTicks":120,"midi":76,"name":"E5","ticks":261480,"time":148.0025,"velocity":0.7874015748031497},{"duration":0.06749999999999545,"durationTicks":120,"midi":81,"name":"A5","ticks":261600,"time":148.07000000000002,"velocity":0.7874015748031497},{"duration":0.06749999999999545,"durationTicks":120,"midi":76,"name":"E5","ticks":261720,"time":148.13750000000002,"velocity":0.7874015748031497},{"duration":0.06749999999999545,"durationTicks":120,"midi":73,"name":"C#5","ticks":261840,"time":148.205,"velocity":0.7874015748031497},{"duration":0.06749999999999545,"durationTicks":120,"midi":69,"name":"A4","ticks":261960,"time":148.2725,"velocity":0.7874015748031497},{"duration":0.06749999999999545,"durationTicks":120,"midi":69,"name":"A4","ticks":262080,"time":148.34,"velocity":0.7874015748031497},{"duration":0.06750000000002387,"durationTicks":120,"midi":71,"name":"B4","ticks":262200,"time":148.4075,"velocity":0.7874015748031497},{"duration":0.06749999999999545,"durationTicks":120,"midi":73,"name":"C#5","ticks":262320,"time":148.47500000000002,"velocity":0.7874015748031497},{"duration":0.06749999999999545,"durationTicks":120,"midi":76,"name":"E5","ticks":262440,"time":148.54250000000002,"velocity":0.7874015748031497},{"duration":0.06749999999999545,"durationTicks":120,"midi":81,"name":"A5","ticks":262560,"time":148.61,"velocity":0.7874015748031497},{"duration":0.06749999999999545,"durationTicks":120,"midi":76,"name":"E5","ticks":262680,"time":148.6775,"velocity":0.7874015748031497},{"duration":0.06749999999999545,"durationTicks":120,"midi":73,"name":"C#5","ticks":262800,"time":148.745,"velocity":0.7874015748031497},{"duration":0.06749999999999545,"durationTicks":120,"midi":69,"name":"A4","ticks":262920,"time":148.8125,"velocity":0.7874015748031497},{"duration":0.06750000000002387,"durationTicks":120,"midi":69,"name":"A4","ticks":263040,"time":148.88,"velocity":0.7874015748031497},{"duration":0.06749999999999545,"durationTicks":120,"midi":71,"name":"B4","ticks":263160,"time":148.94750000000002,"velocity":0.7874015748031497},{"duration":0.06749999999999545,"durationTicks":120,"midi":73,"name":"C#5","ticks":263280,"time":149.01500000000001,"velocity":0.7874015748031497},{"duration":0.06749999999999545,"durationTicks":120,"midi":76,"name":"E5","ticks":263400,"time":149.0825,"velocity":0.7874015748031497},{"duration":0.06749999999999545,"durationTicks":120,"midi":81,"name":"A5","ticks":263520,"time":149.15,"velocity":0.7874015748031497},{"duration":0.06749999999999545,"durationTicks":120,"midi":76,"name":"E5","ticks":263640,"time":149.2175,"velocity":0.7874015748031497},{"duration":0.06750000000002387,"durationTicks":120,"midi":73,"name":"C#5","ticks":263760,"time":149.285,"velocity":0.7874015748031497},{"duration":0.06749999999999545,"durationTicks":120,"midi":69,"name":"A4","ticks":263880,"time":149.35250000000002,"velocity":0.7874015748031497},{"duration":0.06749999999999545,"durationTicks":120,"midi":69,"name":"A4","ticks":264000,"time":149.42000000000002,"velocity":0.7874015748031497},{"duration":0.06749999999999545,"durationTicks":120,"midi":71,"name":"B4","ticks":264120,"time":149.4875,"velocity":0.7874015748031497},{"duration":0.06749999999999545,"durationTicks":120,"midi":73,"name":"C#5","ticks":264240,"time":149.555,"velocity":0.7874015748031497},{"duration":0.06749999999999545,"durationTicks":120,"midi":76,"name":"E5","ticks":264360,"time":149.6225,"velocity":0.7874015748031497},{"duration":0.06750000000002387,"durationTicks":120,"midi":81,"name":"A5","ticks":264480,"time":149.69,"velocity":0.7874015748031497},{"duration":0.06749999999999545,"durationTicks":120,"midi":76,"name":"E5","ticks":264600,"time":149.75750000000002,"velocity":0.7874015748031497},{"duration":0.06749999999999545,"durationTicks":120,"midi":73,"name":"C#5","ticks":264720,"time":149.82500000000002,"velocity":0.7874015748031497},{"duration":0.06749999999999545,"durationTicks":120,"midi":69,"name":"A4","ticks":264840,"time":149.8925,"velocity":0.7874015748031497},{"duration":0.06749999999999545,"durationTicks":120,"midi":69,"name":"A4","ticks":264960,"time":149.96,"velocity":0.7874015748031497},{"duration":0.06749999999999545,"durationTicks":120,"midi":71,"name":"B4","ticks":265080,"time":150.0275,"velocity":0.7874015748031497},{"duration":0.06750000000002387,"durationTicks":120,"midi":73,"name":"C#5","ticks":265200,"time":150.095,"velocity":0.7874015748031497},{"duration":0.06749999999999545,"durationTicks":120,"midi":76,"name":"E5","ticks":265320,"time":150.16250000000002,"velocity":0.7874015748031497},{"duration":0.06749999999999545,"durationTicks":120,"midi":81,"name":"A5","ticks":265440,"time":150.23000000000002,"velocity":0.7874015748031497},{"duration":0.06749999999999545,"durationTicks":120,"midi":76,"name":"E5","ticks":265560,"time":150.2975,"velocity":0.7874015748031497},{"duration":0.06749999999999545,"durationTicks":120,"midi":73,"name":"C#5","ticks":265680,"time":150.365,"velocity":0.7874015748031497},{"duration":0.06749999999999545,"durationTicks":120,"midi":69,"name":"A4","ticks":265800,"time":150.4325,"velocity":0.7874015748031497},{"duration":0.06750000000002387,"durationTicks":120,"midi":69,"name":"A4","ticks":265920,"time":150.5,"velocity":0.7874015748031497},{"duration":0.06749999999999545,"durationTicks":120,"midi":73,"name":"C#5","ticks":266040,"time":150.56750000000002,"velocity":0.7874015748031497},{"duration":0.06749999999999545,"durationTicks":120,"midi":76,"name":"E5","ticks":266160,"time":150.63500000000002,"velocity":0.7874015748031497},{"duration":0.06749999999999545,"durationTicks":120,"midi":80,"name":"G#5","ticks":266280,"time":150.70250000000001,"velocity":0.7874015748031497},{"duration":0.06749999999999545,"durationTicks":120,"midi":81,"name":"A5","ticks":266400,"time":150.77,"velocity":0.7874015748031497},{"duration":0.06749999999999545,"durationTicks":120,"midi":83,"name":"B5","ticks":266520,"time":150.8375,"velocity":0.7874015748031497},{"duration":0.06749999999999545,"durationTicks":120,"midi":80,"name":"G#5","ticks":266640,"time":150.905,"velocity":0.7874015748031497},{"duration":0.06750000000002387,"durationTicks":120,"midi":81,"name":"A5","ticks":266760,"time":150.9725,"velocity":0.7874015748031497},{"duration":0.06749999999999545,"durationTicks":120,"midi":69,"name":"A4","ticks":266880,"time":151.04000000000002,"velocity":0.7874015748031497},{"duration":0.06749999999999545,"durationTicks":120,"midi":71,"name":"B4","ticks":267000,"time":151.10750000000002,"velocity":0.7874015748031497},{"duration":0.06749999999999545,"durationTicks":120,"midi":73,"name":"C#5","ticks":267120,"time":151.175,"velocity":0.7874015748031497},{"duration":0.06749999999999545,"durationTicks":120,"midi":76,"name":"E5","ticks":267240,"time":151.2425,"velocity":0.7874015748031497},{"duration":0.06749999999999545,"durationTicks":120,"midi":81,"name":"A5","ticks":267360,"time":151.31,"velocity":0.7874015748031497},{"duration":0.06750000000002387,"durationTicks":120,"midi":76,"name":"E5","ticks":267480,"time":151.3775,"velocity":0.7874015748031497},{"duration":0.06749999999999545,"durationTicks":120,"midi":73,"name":"C#5","ticks":267600,"time":151.44500000000002,"velocity":0.7874015748031497},{"duration":0.06749999999999545,"durationTicks":120,"midi":69,"name":"A4","ticks":267720,"time":151.51250000000002,"velocity":0.7874015748031497},{"duration":0.06749999999999545,"durationTicks":120,"midi":69,"name":"A4","ticks":267840,"time":151.58,"velocity":0.7874015748031497},{"duration":0.06749999999999545,"durationTicks":120,"midi":71,"name":"B4","ticks":267960,"time":151.6475,"velocity":0.7874015748031497},{"duration":0.06749999999999545,"durationTicks":120,"midi":73,"name":"C#5","ticks":268080,"time":151.715,"velocity":0.7874015748031497},{"duration":0.06750000000002387,"durationTicks":120,"midi":76,"name":"E5","ticks":268200,"time":151.7825,"velocity":0.7874015748031497},{"duration":0.06749999999999545,"durationTicks":120,"midi":81,"name":"A5","ticks":268320,"time":151.85000000000002,"velocity":0.7874015748031497},{"duration":0.06749999999999545,"durationTicks":120,"midi":76,"name":"E5","ticks":268440,"time":151.91750000000002,"velocity":0.7874015748031497},{"duration":0.06749999999999545,"durationTicks":120,"midi":73,"name":"C#5","ticks":268560,"time":151.985,"velocity":0.7874015748031497},{"duration":0.06749999999999545,"durationTicks":120,"midi":69,"name":"A4","ticks":268680,"time":152.0525,"velocity":0.7874015748031497},{"duration":0.06749999999999545,"durationTicks":120,"midi":69,"name":"A4","ticks":268800,"time":152.12,"velocity":0.7874015748031497},{"duration":0.06750000000002387,"durationTicks":120,"midi":71,"name":"B4","ticks":268920,"time":152.1875,"velocity":0.7874015748031497},{"duration":0.06749999999999545,"durationTicks":120,"midi":73,"name":"C#5","ticks":269040,"time":152.25500000000002,"velocity":0.7874015748031497},{"duration":0.06749999999999545,"durationTicks":120,"midi":76,"name":"E5","ticks":269160,"time":152.32250000000002,"velocity":0.7874015748031497},{"duration":0.06749999999999545,"durationTicks":120,"midi":81,"name":"A5","ticks":269280,"time":152.39000000000001,"velocity":0.7874015748031497},{"duration":0.06749999999999545,"durationTicks":120,"midi":76,"name":"E5","ticks":269400,"time":152.4575,"velocity":0.7874015748031497},{"duration":0.06749999999999545,"durationTicks":120,"midi":73,"name":"C#5","ticks":269520,"time":152.525,"velocity":0.7874015748031497},{"duration":0.06749999999999545,"durationTicks":120,"midi":69,"name":"A4","ticks":269640,"time":152.5925,"velocity":0.7874015748031497},{"duration":0.06750000000002387,"durationTicks":120,"midi":69,"name":"A4","ticks":269760,"time":152.66,"velocity":0.7874015748031497},{"duration":0.06749999999999545,"durationTicks":120,"midi":71,"name":"B4","ticks":269880,"time":152.72750000000002,"velocity":0.7874015748031497},{"duration":0.06749999999999545,"durationTicks":120,"midi":73,"name":"C#5","ticks":270000,"time":152.79500000000002,"velocity":0.7874015748031497},{"duration":0.06749999999999545,"durationTicks":120,"midi":76,"name":"E5","ticks":270120,"time":152.8625,"velocity":0.7874015748031497},{"duration":0.06749999999999545,"durationTicks":120,"midi":81,"name":"A5","ticks":270240,"time":152.93,"velocity":0.7874015748031497},{"duration":0.06749999999999545,"durationTicks":120,"midi":76,"name":"E5","ticks":270360,"time":152.9975,"velocity":0.7874015748031497},{"duration":0.06750000000002387,"durationTicks":120,"midi":73,"name":"C#5","ticks":270480,"time":153.065,"velocity":0.7874015748031497},{"duration":0.06749999999999545,"durationTicks":120,"midi":69,"name":"A4","ticks":270600,"time":153.13250000000002,"velocity":0.7874015748031497},{"duration":0.06749999999999545,"durationTicks":120,"midi":69,"name":"A4","ticks":270720,"time":153.20000000000002,"velocity":0.7874015748031497},{"duration":0.06749999999999545,"durationTicks":120,"midi":71,"name":"B4","ticks":270840,"time":153.2675,"velocity":0.7874015748031497},{"duration":0.06749999999999545,"durationTicks":120,"midi":73,"name":"C#5","ticks":270960,"time":153.335,"velocity":0.7874015748031497},{"duration":0.06749999999999545,"durationTicks":120,"midi":76,"name":"E5","ticks":271080,"time":153.4025,"velocity":0.7874015748031497},{"duration":0.06750000000002387,"durationTicks":120,"midi":81,"name":"A5","ticks":271200,"time":153.47,"velocity":0.7874015748031497},{"duration":0.06749999999999545,"durationTicks":120,"midi":76,"name":"E5","ticks":271320,"time":153.53750000000002,"velocity":0.7874015748031497},{"duration":0.06749999999999545,"durationTicks":120,"midi":73,"name":"C#5","ticks":271440,"time":153.60500000000002,"velocity":0.7874015748031497},{"duration":0.06749999999999545,"durationTicks":120,"midi":69,"name":"A4","ticks":271560,"time":153.6725,"velocity":0.7874015748031497},{"duration":0.06749999999999545,"durationTicks":120,"midi":69,"name":"A4","ticks":271680,"time":153.74,"velocity":0.7874015748031497},{"duration":0.06749999999999545,"durationTicks":120,"midi":71,"name":"B4","ticks":271800,"time":153.8075,"velocity":0.7874015748031497},{"duration":0.06750000000002387,"durationTicks":120,"midi":73,"name":"C#5","ticks":271920,"time":153.875,"velocity":0.7874015748031497},{"duration":0.06749999999999545,"durationTicks":120,"midi":76,"name":"E5","ticks":272040,"time":153.94250000000002,"velocity":0.7874015748031497},{"duration":0.06749999999999545,"durationTicks":120,"midi":81,"name":"A5","ticks":272160,"time":154.01000000000002,"velocity":0.7874015748031497},{"duration":0.06749999999999545,"durationTicks":120,"midi":76,"name":"E5","ticks":272280,"time":154.07750000000001,"velocity":0.7874015748031497},{"duration":0.06749999999999545,"durationTicks":120,"midi":73,"name":"C#5","ticks":272400,"time":154.145,"velocity":0.7874015748031497},{"duration":0.06749999999999545,"durationTicks":120,"midi":69,"name":"A4","ticks":272520,"time":154.2125,"velocity":0.7874015748031497},{"duration":0.06749999999999545,"durationTicks":120,"midi":69,"name":"A4","ticks":272640,"time":154.28,"velocity":0.7874015748031497},{"duration":0.06750000000002387,"durationTicks":120,"midi":71,"name":"B4","ticks":272760,"time":154.3475,"velocity":0.7874015748031497},{"duration":0.06749999999999545,"durationTicks":120,"midi":73,"name":"C#5","ticks":272880,"time":154.41500000000002,"velocity":0.7874015748031497},{"duration":0.06749999999999545,"durationTicks":120,"midi":76,"name":"E5","ticks":273000,"time":154.48250000000002,"velocity":0.7874015748031497},{"duration":0.06749999999999545,"durationTicks":120,"midi":81,"name":"A5","ticks":273120,"time":154.55,"velocity":0.7874015748031497},{"duration":0.06749999999999545,"durationTicks":120,"midi":76,"name":"E5","ticks":273240,"time":154.6175,"velocity":0.7874015748031497},{"duration":0.06749999999999545,"durationTicks":120,"midi":73,"name":"C#5","ticks":273360,"time":154.685,"velocity":0.7874015748031497},{"duration":0.06750000000002387,"durationTicks":120,"midi":69,"name":"A4","ticks":273480,"time":154.7525,"velocity":0.7874015748031497},{"duration":0.06749999999999545,"durationTicks":120,"midi":69,"name":"A4","ticks":273600,"time":154.82000000000002,"velocity":0.7874015748031497},{"duration":0.06749999999999545,"durationTicks":120,"midi":81,"name":"A5","ticks":273600,"time":154.82000000000002,"velocity":0.7874015748031497},{"duration":0.06749999999999545,"durationTicks":120,"midi":73,"name":"C#5","ticks":273720,"time":154.88750000000002,"velocity":0.7874015748031497},{"duration":0.06749999999999545,"durationTicks":120,"midi":85,"name":"C#6","ticks":273720,"time":154.88750000000002,"velocity":0.7874015748031497},{"duration":0.06749999999999545,"durationTicks":120,"midi":76,"name":"E5","ticks":273840,"time":154.955,"velocity":0.7874015748031497},{"duration":0.06749999999999545,"durationTicks":120,"midi":88,"name":"E6","ticks":273840,"time":154.955,"velocity":0.7874015748031497},{"duration":0.06749999999999545,"durationTicks":120,"midi":80,"name":"G#5","ticks":273960,"time":155.0225,"velocity":0.7874015748031497},{"duration":0.06749999999999545,"durationTicks":120,"midi":92,"name":"G#6","ticks":273960,"time":155.0225,"velocity":0.7874015748031497},{"duration":0.06749999999999545,"durationTicks":120,"midi":81,"name":"A5","ticks":274080,"time":155.09,"velocity":0.7874015748031497},{"duration":0.06749999999999545,"durationTicks":120,"midi":93,"name":"A6","ticks":274080,"time":155.09,"velocity":0.7874015748031497},{"duration":0.06750000000002387,"durationTicks":120,"midi":83,"name":"B5","ticks":274200,"time":155.1575,"velocity":0.7874015748031497},{"duration":0.06750000000002387,"durationTicks":120,"midi":95,"name":"B6","ticks":274200,"time":155.1575,"velocity":0.7874015748031497},{"duration":0.06749999999999545,"durationTicks":120,"midi":80,"name":"G#5","ticks":274320,"time":155.22500000000002,"velocity":0.7874015748031497},{"duration":0.06749999999999545,"durationTicks":120,"midi":92,"name":"G#6","ticks":274320,"time":155.22500000000002,"velocity":0.7874015748031497},{"duration":0.06749999999999545,"durationTicks":120,"midi":81,"name":"A5","ticks":274440,"time":155.29250000000002,"velocity":0.7874015748031497},{"duration":0.06749999999999545,"durationTicks":120,"midi":93,"name":"A6","ticks":274440,"time":155.29250000000002,"velocity":0.7874015748031497},{"duration":0.06749999999999545,"durationTicks":120,"midi":69,"name":"A4","ticks":274560,"time":155.36,"velocity":0.7874015748031497},{"duration":0.06749999999999545,"durationTicks":120,"midi":71,"name":"B4","ticks":274680,"time":155.4275,"velocity":0.7874015748031497},{"duration":0.06749999999999545,"durationTicks":120,"midi":73,"name":"C#5","ticks":274800,"time":155.495,"velocity":0.7874015748031497},{"duration":0.06750000000002387,"durationTicks":120,"midi":76,"name":"E5","ticks":274920,"time":155.5625,"velocity":0.7874015748031497},{"duration":0.06749999999999545,"durationTicks":120,"midi":81,"name":"A5","ticks":275040,"time":155.63000000000002,"velocity":0.7874015748031497},{"duration":0.06749999999999545,"durationTicks":120,"midi":76,"name":"E5","ticks":275160,"time":155.69750000000002,"velocity":0.7874015748031497},{"duration":0.06749999999999545,"durationTicks":120,"midi":73,"name":"C#5","ticks":275280,"time":155.76500000000001,"velocity":0.7874015748031497},{"duration":0.06749999999999545,"durationTicks":120,"midi":69,"name":"A4","ticks":275400,"time":155.8325,"velocity":0.7874015748031497},{"duration":0.06749999999999545,"durationTicks":120,"midi":69,"name":"A4","ticks":275520,"time":155.9,"velocity":0.7874015748031497},{"duration":0.06749999999999545,"durationTicks":120,"midi":71,"name":"B4","ticks":275640,"time":155.9675,"velocity":0.7874015748031497},{"duration":0.06750000000002387,"durationTicks":120,"midi":73,"name":"C#5","ticks":275760,"time":156.035,"velocity":0.7874015748031497},{"duration":0.06749999999999545,"durationTicks":120,"midi":76,"name":"E5","ticks":275880,"time":156.10250000000002,"velocity":0.7874015748031497},{"duration":0.06749999999999545,"durationTicks":120,"midi":81,"name":"A5","ticks":276000,"time":156.17000000000002,"velocity":0.7874015748031497},{"duration":0.06749999999999545,"durationTicks":120,"midi":76,"name":"E5","ticks":276120,"time":156.2375,"velocity":0.7874015748031497},{"duration":0.06749999999999545,"durationTicks":120,"midi":73,"name":"C#5","ticks":276240,"time":156.305,"velocity":0.7874015748031497},{"duration":0.06749999999999545,"durationTicks":120,"midi":69,"name":"A4","ticks":276360,"time":156.3725,"velocity":0.7874015748031497},{"duration":0.06750000000002387,"durationTicks":120,"midi":69,"name":"A4","ticks":276480,"time":156.44,"velocity":0.7874015748031497},{"duration":0.06749999999999545,"durationTicks":120,"midi":71,"name":"B4","ticks":276600,"time":156.50750000000002,"velocity":0.7874015748031497},{"duration":0.06749999999999545,"durationTicks":120,"midi":73,"name":"C#5","ticks":276720,"time":156.57500000000002,"velocity":0.7874015748031497},{"duration":0.06749999999999545,"durationTicks":120,"midi":76,"name":"E5","ticks":276840,"time":156.6425,"velocity":0.7874015748031497},{"duration":0.06749999999999545,"durationTicks":120,"midi":81,"name":"A5","ticks":276960,"time":156.71,"velocity":0.7874015748031497},{"duration":0.06749999999999545,"durationTicks":120,"midi":76,"name":"E5","ticks":277080,"time":156.7775,"velocity":0.7874015748031497},{"duration":0.06750000000002387,"durationTicks":120,"midi":73,"name":"C#5","ticks":277200,"time":156.845,"velocity":0.7874015748031497},{"duration":0.06749999999999545,"durationTicks":120,"midi":69,"name":"A4","ticks":277320,"time":156.91250000000002,"velocity":0.7874015748031497},{"duration":0.06749999999999545,"durationTicks":120,"midi":69,"name":"A4","ticks":277440,"time":156.98000000000002,"velocity":0.7874015748031497},{"duration":0.06749999999999545,"durationTicks":120,"midi":71,"name":"B4","ticks":277560,"time":157.0475,"velocity":0.7874015748031497},{"duration":0.06749999999999545,"durationTicks":120,"midi":73,"name":"C#5","ticks":277680,"time":157.115,"velocity":0.7874015748031497},{"duration":0.06749999999999545,"durationTicks":120,"midi":76,"name":"E5","ticks":277800,"time":157.1825,"velocity":0.7874015748031497},{"duration":0.06750000000002387,"durationTicks":120,"midi":81,"name":"A5","ticks":277920,"time":157.25,"velocity":0.7874015748031497},{"duration":0.06749999999999545,"durationTicks":120,"midi":76,"name":"E5","ticks":278040,"time":157.31750000000002,"velocity":0.7874015748031497},{"duration":0.06749999999999545,"durationTicks":120,"midi":73,"name":"C#5","ticks":278160,"time":157.38500000000002,"velocity":0.7874015748031497},{"duration":0.06749999999999545,"durationTicks":120,"midi":69,"name":"A4","ticks":278280,"time":157.45250000000001,"velocity":0.7874015748031497},{"duration":0.06749999999999545,"durationTicks":120,"midi":69,"name":"A4","ticks":278400,"time":157.52,"velocity":0.7874015748031497},{"duration":0.06749999999999545,"durationTicks":120,"midi":71,"name":"B4","ticks":278520,"time":157.5875,"velocity":0.7874015748031497},{"duration":0.06749999999999545,"durationTicks":120,"midi":73,"name":"C#5","ticks":278640,"time":157.655,"velocity":0.7874015748031497},{"duration":0.06750000000002387,"durationTicks":120,"midi":76,"name":"E5","ticks":278760,"time":157.7225,"velocity":0.7874015748031497},{"duration":0.06749999999999545,"durationTicks":120,"midi":81,"name":"A5","ticks":278880,"time":157.79000000000002,"velocity":0.7874015748031497},{"duration":0.06749999999999545,"durationTicks":120,"midi":76,"name":"E5","ticks":279000,"time":157.85750000000002,"velocity":0.7874015748031497},{"duration":0.06749999999999545,"durationTicks":120,"midi":73,"name":"C#5","ticks":279120,"time":157.925,"velocity":0.7874015748031497},{"duration":0.06749999999999545,"durationTicks":120,"midi":69,"name":"A4","ticks":279240,"time":157.9925,"velocity":0.7874015748031497},{"duration":0.06749999999999545,"durationTicks":120,"midi":69,"name":"A4","ticks":279360,"time":158.06,"velocity":0.7874015748031497},{"duration":0.06750000000002387,"durationTicks":120,"midi":71,"name":"B4","ticks":279480,"time":158.1275,"velocity":0.7874015748031497},{"duration":0.06749999999999545,"durationTicks":120,"midi":73,"name":"C#5","ticks":279600,"time":158.19500000000002,"velocity":0.7874015748031497},{"duration":0.06749999999999545,"durationTicks":120,"midi":76,"name":"E5","ticks":279720,"time":158.26250000000002,"velocity":0.7874015748031497},{"duration":0.06749999999999545,"durationTicks":120,"midi":81,"name":"A5","ticks":279840,"time":158.33,"velocity":0.7874015748031497},{"duration":0.06749999999999545,"durationTicks":120,"midi":76,"name":"E5","ticks":279960,"time":158.3975,"velocity":0.7874015748031497},{"duration":0.06749999999999545,"durationTicks":120,"midi":73,"name":"C#5","ticks":280080,"time":158.465,"velocity":0.7874015748031497},{"duration":0.06750000000002387,"durationTicks":120,"midi":69,"name":"A4","ticks":280200,"time":158.5325,"velocity":0.7874015748031497},{"duration":0.06749999999999545,"durationTicks":120,"midi":69,"name":"A4","ticks":280320,"time":158.60000000000002,"velocity":0.7874015748031497},{"duration":0.06749999999999545,"durationTicks":120,"midi":71,"name":"B4","ticks":280440,"time":158.66750000000002,"velocity":0.7874015748031497},{"duration":0.06749999999999545,"durationTicks":120,"midi":73,"name":"C#5","ticks":280560,"time":158.735,"velocity":0.7874015748031497},{"duration":0.06749999999999545,"durationTicks":120,"midi":76,"name":"E5","ticks":280680,"time":158.8025,"velocity":0.7874015748031497},{"duration":0.06749999999999545,"durationTicks":120,"midi":81,"name":"A5","ticks":280800,"time":158.87,"velocity":0.7874015748031497},{"duration":0.06750000000002387,"durationTicks":120,"midi":76,"name":"E5","ticks":280920,"time":158.9375,"velocity":0.7874015748031497},{"duration":0.06749999999999545,"durationTicks":120,"midi":73,"name":"C#5","ticks":281040,"time":159.00500000000002,"velocity":0.7874015748031497},{"duration":0.06749999999999545,"durationTicks":120,"midi":69,"name":"A4","ticks":281160,"time":159.07250000000002,"velocity":0.7874015748031497},{"duration":0.06749999999999545,"durationTicks":120,"midi":69,"name":"A4","ticks":281280,"time":159.14000000000001,"velocity":0.7874015748031497},{"duration":0.06749999999999545,"durationTicks":120,"midi":73,"name":"C#5","ticks":281400,"time":159.2075,"velocity":0.7874015748031497},{"duration":0.06749999999999545,"durationTicks":120,"midi":76,"name":"E5","ticks":281520,"time":159.275,"velocity":0.7874015748031497},{"duration":0.06749999999999545,"durationTicks":120,"midi":80,"name":"G#5","ticks":281640,"time":159.3425,"velocity":0.7874015748031497},{"duration":0.06750000000002387,"durationTicks":120,"midi":81,"name":"A5","ticks":281760,"time":159.41,"velocity":0.7874015748031497},{"duration":0.06749999999999545,"durationTicks":120,"midi":83,"name":"B5","ticks":281880,"time":159.47750000000002,"velocity":0.7874015748031497},{"duration":0.06749999999999545,"durationTicks":120,"midi":80,"name":"G#5","ticks":282000,"time":159.54500000000002,"velocity":0.7874015748031497},{"duration":0.06749999999999545,"durationTicks":120,"midi":81,"name":"A5","ticks":282120,"time":159.6125,"velocity":0.7874015748031497},{"duration":0.06749999999999545,"durationTicks":120,"midi":69,"name":"A4","ticks":282240,"time":159.68,"velocity":0.7874015748031497},{"duration":0.06749999999999545,"durationTicks":120,"midi":71,"name":"B4","ticks":282360,"time":159.7475,"velocity":0.7874015748031497},{"duration":0.06750000000002387,"durationTicks":120,"midi":73,"name":"C#5","ticks":282480,"time":159.815,"velocity":0.7874015748031497},{"duration":0.06749999999999545,"durationTicks":120,"midi":76,"name":"E5","ticks":282600,"time":159.88250000000002,"velocity":0.7874015748031497},{"duration":0.06749999999999545,"durationTicks":120,"midi":81,"name":"A5","ticks":282720,"time":159.95000000000002,"velocity":0.7874015748031497},{"duration":0.06749999999999545,"durationTicks":120,"midi":76,"name":"E5","ticks":282840,"time":160.0175,"velocity":0.7874015748031497},{"duration":0.06749999999999545,"durationTicks":120,"midi":73,"name":"C#5","ticks":282960,"time":160.085,"velocity":0.7874015748031497},{"duration":0.06749999999999545,"durationTicks":120,"midi":69,"name":"A4","ticks":283080,"time":160.1525,"velocity":0.7874015748031497},{"duration":0.06750000000002387,"durationTicks":120,"midi":69,"name":"A4","ticks":283200,"time":160.22,"velocity":0.7874015748031497},{"duration":0.06749999999999545,"durationTicks":120,"midi":71,"name":"B4","ticks":283320,"time":160.28750000000002,"velocity":0.7874015748031497},{"duration":0.06749999999999545,"durationTicks":120,"midi":73,"name":"C#5","ticks":283440,"time":160.35500000000002,"velocity":0.7874015748031497},{"duration":0.06749999999999545,"durationTicks":120,"midi":76,"name":"E5","ticks":283560,"time":160.4225,"velocity":0.7874015748031497},{"duration":0.06749999999999545,"durationTicks":120,"midi":81,"name":"A5","ticks":283680,"time":160.49,"velocity":0.7874015748031497},{"duration":0.06749999999999545,"durationTicks":120,"midi":76,"name":"E5","ticks":283800,"time":160.5575,"velocity":0.7874015748031497},{"duration":0.06750000000002387,"durationTicks":120,"midi":73,"name":"C#5","ticks":283920,"time":160.625,"velocity":0.7874015748031497},{"duration":0.06749999999999545,"durationTicks":120,"midi":69,"name":"A4","ticks":284040,"time":160.69250000000002,"velocity":0.7874015748031497},{"duration":0.06749999999999545,"durationTicks":120,"midi":69,"name":"A4","ticks":284160,"time":160.76000000000002,"velocity":0.7874015748031497},{"duration":0.06749999999999545,"durationTicks":120,"midi":71,"name":"B4","ticks":284280,"time":160.82750000000001,"velocity":0.7874015748031497},{"duration":0.06749999999999545,"durationTicks":120,"midi":73,"name":"C#5","ticks":284400,"time":160.895,"velocity":0.7874015748031497},{"duration":0.06749999999999545,"durationTicks":120,"midi":76,"name":"E5","ticks":284520,"time":160.9625,"velocity":0.7874015748031497},{"duration":0.06749999999999545,"durationTicks":120,"midi":81,"name":"A5","ticks":284640,"time":161.03,"velocity":0.7874015748031497},{"duration":0.06750000000002387,"durationTicks":120,"midi":76,"name":"E5","ticks":284760,"time":161.0975,"velocity":0.7874015748031497},{"duration":0.06749999999999545,"durationTicks":120,"midi":73,"name":"C#5","ticks":284880,"time":161.16500000000002,"velocity":0.7874015748031497},{"duration":0.06749999999999545,"durationTicks":120,"midi":69,"name":"A4","ticks":285000,"time":161.23250000000002,"velocity":0.7874015748031497},{"duration":0.06749999999999545,"durationTicks":120,"midi":69,"name":"A4","ticks":285120,"time":161.3,"velocity":0.7874015748031497},{"duration":0.06749999999999545,"durationTicks":120,"midi":71,"name":"B4","ticks":285240,"time":161.3675,"velocity":0.7874015748031497},{"duration":0.06749999999999545,"durationTicks":120,"midi":73,"name":"C#5","ticks":285360,"time":161.435,"velocity":0.7874015748031497},{"duration":0.06750000000002387,"durationTicks":120,"midi":76,"name":"E5","ticks":285480,"time":161.5025,"velocity":0.7874015748031497},{"duration":0.06749999999999545,"durationTicks":120,"midi":81,"name":"A5","ticks":285600,"time":161.57000000000002,"velocity":0.7874015748031497},{"duration":0.06749999999999545,"durationTicks":120,"midi":76,"name":"E5","ticks":285720,"time":161.63750000000002,"velocity":0.7874015748031497},{"duration":0.06749999999999545,"durationTicks":120,"midi":73,"name":"C#5","ticks":285840,"time":161.705,"velocity":0.7874015748031497},{"duration":0.06749999999999545,"durationTicks":120,"midi":69,"name":"A4","ticks":285960,"time":161.7725,"velocity":0.7874015748031497},{"duration":0.27000000000001023,"durationTicks":480,"midi":52,"name":"E3","ticks":286080,"time":161.84,"velocity":0.7874015748031497},{"duration":0.27000000000001023,"durationTicks":480,"midi":64,"name":"E4","ticks":286080,"time":161.84,"velocity":0.7874015748031497},{"duration":0.27000000000001023,"durationTicks":480,"midi":56,"name":"G#3","ticks":286560,"time":162.11,"velocity":0.7874015748031497},{"duration":0.27000000000001023,"durationTicks":480,"midi":68,"name":"G#4","ticks":286560,"time":162.11,"velocity":0.7874015748031497},{"duration":0.2699999999999818,"durationTicks":480,"midi":59,"name":"B3","ticks":287040,"time":162.38000000000002,"velocity":0.7874015748031497},{"duration":0.2699999999999818,"durationTicks":480,"midi":71,"name":"B4","ticks":287040,"time":162.38000000000002,"velocity":0.7874015748031497},{"duration":0.27000000000001023,"durationTicks":480,"midi":62,"name":"D4","ticks":287520,"time":162.65,"velocity":0.7874015748031497},{"duration":0.27000000000001023,"durationTicks":480,"midi":74,"name":"D5","ticks":287520,"time":162.65,"velocity":0.7874015748031497},{"duration":0.2699999999999818,"durationTicks":480,"midi":64,"name":"E4","ticks":288000,"time":162.92000000000002,"velocity":0.7874015748031497},{"duration":0.2699999999999818,"durationTicks":480,"midi":76,"name":"E5","ticks":288000,"time":162.92000000000002,"velocity":0.7874015748031497},{"duration":0.27000000000001023,"durationTicks":480,"midi":68,"name":"G#4","ticks":288480,"time":163.19,"velocity":0.7874015748031497},{"duration":0.27000000000001023,"durationTicks":480,"midi":80,"name":"G#5","ticks":288480,"time":163.19,"velocity":0.7874015748031497},{"duration":0.27000000000001023,"durationTicks":480,"midi":71,"name":"B4","ticks":288960,"time":163.46,"velocity":0.7874015748031497},{"duration":0.27000000000001023,"durationTicks":480,"midi":83,"name":"B5","ticks":288960,"time":163.46,"velocity":0.7874015748031497},{"duration":0.2699999999999818,"durationTicks":480,"midi":74,"name":"D5","ticks":289440,"time":163.73000000000002,"velocity":0.7874015748031497},{"duration":0.2699999999999818,"durationTicks":480,"midi":86,"name":"D6","ticks":289440,"time":163.73000000000002,"velocity":0.7874015748031497},{"duration":0.06750000000002387,"durationTicks":120,"midi":69,"name":"A4","ticks":289920,"time":164,"velocity":0.7874015748031497},{"duration":0.06749999999999545,"durationTicks":120,"midi":66,"name":"F#4","ticks":290040,"time":164.06750000000002,"velocity":0.7874015748031497},{"duration":0.06749999999999545,"durationTicks":120,"midi":69,"name":"A4","ticks":290160,"time":164.13500000000002,"velocity":0.7874015748031497},{"duration":0.06749999999999545,"durationTicks":120,"midi":71,"name":"B4","ticks":290280,"time":164.20250000000001,"velocity":0.7874015748031497},{"duration":0.06749999999999545,"durationTicks":120,"midi":73,"name":"C#5","ticks":290400,"time":164.27,"velocity":0.7874015748031497},{"duration":0.06749999999999545,"durationTicks":120,"midi":69,"name":"A4","ticks":290520,"time":164.3375,"velocity":0.7874015748031497},{"duration":0.06749999999999545,"durationTicks":120,"midi":73,"name":"C#5","ticks":290640,"time":164.405,"velocity":0.7874015748031497},{"duration":0.06750000000002387,"durationTicks":120,"midi":74,"name":"D5","ticks":290760,"time":164.4725,"velocity":0.7874015748031497},{"duration":0.06749999999999545,"durationTicks":120,"midi":76,"name":"E5","ticks":290880,"time":164.54000000000002,"velocity":0.7874015748031497},{"duration":0.06749999999999545,"durationTicks":120,"midi":73,"name":"C#5","ticks":291000,"time":164.60750000000002,"velocity":0.7874015748031497},{"duration":0.06749999999999545,"durationTicks":120,"midi":76,"name":"E5","ticks":291120,"time":164.675,"velocity":0.7874015748031497},{"duration":0.06749999999999545,"durationTicks":120,"midi":80,"name":"G#5","ticks":291240,"time":164.7425,"velocity":0.7874015748031497},{"duration":0.06749999999999545,"durationTicks":120,"midi":83,"name":"B5","ticks":291360,"time":164.81,"velocity":0.7874015748031497},{"duration":0.06750000000002387,"durationTicks":120,"midi":80,"name":"G#5","ticks":291480,"time":164.8775,"velocity":0.7874015748031497},{"duration":0.06749999999999545,"durationTicks":120,"midi":85,"name":"C#6","ticks":291600,"time":164.94500000000002,"velocity":0.7874015748031497},{"duration":0.06749999999999545,"durationTicks":120,"midi":81,"name":"A5","ticks":291600,"time":164.94500000000002,"velocity":0.7874015748031497},{"duration":0.20249999999998636,"durationTicks":360,"midi":86,"name":"D6","ticks":291720,"time":165.01250000000002,"velocity":0.7874015748031497},{"duration":0.20249999999998636,"durationTicks":360,"midi":83,"name":"B5","ticks":291720,"time":165.01250000000002,"velocity":0.7874015748031497},{"duration":0.20250000000001478,"durationTicks":360,"midi":88,"name":"E6","ticks":292080,"time":165.215,"velocity":0.7874015748031497},{"duration":0.20250000000001478,"durationTicks":360,"midi":80,"name":"G#5","ticks":292080,"time":165.215,"velocity":0.7874015748031497},{"duration":0.20249999999998636,"durationTicks":360,"midi":86,"name":"D6","ticks":292440,"time":165.41750000000002,"velocity":0.7874015748031497},{"duration":0.20249999999998636,"durationTicks":360,"midi":78,"name":"F#5","ticks":292440,"time":165.41750000000002,"velocity":0.7874015748031497},{"duration":0.20250000000001478,"durationTicks":360,"midi":85,"name":"C#6","ticks":292800,"time":165.62,"velocity":0.7874015748031497},{"duration":0.20250000000001478,"durationTicks":360,"midi":78,"name":"F#5","ticks":292800,"time":165.62,"velocity":0.7874015748031497},{"duration":0.20249999999998636,"durationTicks":360,"midi":83,"name":"B5","ticks":293160,"time":165.82250000000002,"velocity":0.7874015748031497},{"duration":0.20249999999998636,"durationTicks":360,"midi":76,"name":"E5","ticks":293160,"time":165.82250000000002,"velocity":0.7874015748031497},{"duration":0.13500000000001933,"durationTicks":240,"midi":81,"name":"A5","ticks":293520,"time":166.025,"velocity":0.7874015748031497},{"duration":0.13500000000001933,"durationTicks":240,"midi":73,"name":"C#5","ticks":293520,"time":166.025,"velocity":0.7874015748031497},{"duration":0.06749999999999545,"durationTicks":120,"midi":80,"name":"G#5","ticks":293760,"time":166.16000000000003,"velocity":0.7874015748031497},{"duration":0.06749999999999545,"durationTicks":120,"midi":76,"name":"E5","ticks":293880,"time":166.22750000000002,"velocity":0.7874015748031497},{"duration":0.06749999999999545,"durationTicks":120,"midi":71,"name":"B4","ticks":294000,"time":166.29500000000002,"velocity":0.7874015748031497},{"duration":0.06749999999999545,"durationTicks":120,"midi":68,"name":"G#4","ticks":294120,"time":166.3625,"velocity":0.7874015748031497},{"duration":0.06749999999999545,"durationTicks":120,"midi":80,"name":"G#5","ticks":294240,"time":166.43,"velocity":0.7874015748031497},{"duration":0.06749999999999545,"durationTicks":120,"midi":76,"name":"E5","ticks":294360,"time":166.4975,"velocity":0.7874015748031497},{"duration":0.06750000000002387,"durationTicks":120,"midi":71,"name":"B4","ticks":294480,"time":166.565,"velocity":0.7874015748031497},{"duration":0.06749999999999545,"durationTicks":120,"midi":68,"name":"G#4","ticks":294600,"time":166.63250000000002,"velocity":0.7874015748031497},{"duration":0.044999999999987494,"durationTicks":80,"midi":80,"name":"G#5","ticks":294720,"time":166.70000000000002,"velocity":0.7874015748031497},{"duration":0.045000000000015916,"durationTicks":80,"midi":76,"name":"E5","ticks":294800,"time":166.745,"velocity":0.7874015748031497},{"duration":0.044999999999987494,"durationTicks":80,"midi":71,"name":"B4","ticks":294880,"time":166.79000000000002,"velocity":0.7874015748031497},{"duration":0.044999999999987494,"durationTicks":80,"midi":80,"name":"G#5","ticks":294960,"time":166.835,"velocity":0.7874015748031497},{"duration":0.045000000000015916,"durationTicks":80,"midi":76,"name":"E5","ticks":295040,"time":166.88,"velocity":0.7874015748031497},{"duration":0.044999999999987494,"durationTicks":80,"midi":71,"name":"B4","ticks":295120,"time":166.925,"velocity":0.7874015748031497},{"duration":0.045000000000015916,"durationTicks":80,"midi":80,"name":"G#5","ticks":295200,"time":166.97,"velocity":0.7874015748031497},{"duration":0.045000000000015916,"durationTicks":80,"midi":76,"name":"E5","ticks":295280,"time":167.01500000000001,"velocity":0.7874015748031497},{"duration":0.044999999999987494,"durationTicks":80,"midi":71,"name":"B4","ticks":295360,"time":167.06000000000003,"velocity":0.7874015748031497},{"duration":0.06749999999999545,"durationTicks":120,"midi":80,"name":"G#5","ticks":295440,"time":167.10500000000002,"velocity":0.7874015748031497},{"duration":0.20249999999998636,"durationTicks":360,"midi":81,"name":"A5","ticks":295560,"time":167.1725,"velocity":0.7874015748031497},{"duration":0.20249999999998636,"durationTicks":360,"midi":78,"name":"F#5","ticks":295560,"time":167.1725,"velocity":0.7874015748031497},{"duration":0.13500000000001933,"durationTicks":240,"midi":83,"name":"B5","ticks":295920,"time":167.375,"velocity":0.7874015748031497},{"duration":0.13500000000001933,"durationTicks":240,"midi":78,"name":"F#5","ticks":295920,"time":167.375,"velocity":0.7874015748031497},{"duration":0.20249999999998636,"durationTicks":360,"midi":81,"name":"A5","ticks":296160,"time":167.51000000000002,"velocity":0.7874015748031497},{"duration":0.20249999999998636,"durationTicks":360,"midi":78,"name":"F#5","ticks":296160,"time":167.51000000000002,"velocity":0.7874015748031497},{"duration":0.13500000000001933,"durationTicks":240,"midi":80,"name":"G#5","ticks":296640,"time":167.78,"velocity":0.7874015748031497},{"duration":0.13500000000001933,"durationTicks":240,"midi":73,"name":"C#5","ticks":296640,"time":167.78,"velocity":0.7874015748031497},{"duration":0.1349999999999909,"durationTicks":240,"midi":80,"name":"G#5","ticks":297000,"time":167.98250000000002,"velocity":0.7874015748031497},{"duration":0.1349999999999909,"durationTicks":240,"midi":69,"name":"A4","ticks":297000,"time":167.98250000000002,"velocity":0.7874015748031497},{"duration":0.13500000000001933,"durationTicks":240,"midi":76,"name":"E5","ticks":297360,"time":168.185,"velocity":0.7874015748031497},{"duration":0.13500000000001933,"durationTicks":240,"midi":66,"name":"F#4","ticks":297360,"time":168.185,"velocity":0.7874015748031497},{"duration":0.2699999999999818,"durationTicks":480,"midi":68,"name":"G#4","ticks":297600,"time":168.32000000000002,"velocity":0.7874015748031497},{"duration":0.2699999999999818,"durationTicks":480,"midi":64,"name":"E4","ticks":297600,"time":168.32000000000002,"velocity":0.7874015748031497},{"duration":0.29249999999998977,"durationTicks":520,"midi":68,"name":"G#4","ticks":298320,"time":168.72500000000002,"velocity":0.7874015748031497},{"duration":0.29249999999998977,"durationTicks":520,"midi":64,"name":"E4","ticks":298320,"time":168.72500000000002,"velocity":0.7874015748031497},{"duration":0.06749999999999545,"durationTicks":120,"midi":76,"name":"E5","ticks":299040,"time":169.13000000000002,"velocity":0.7874015748031497},{"duration":0.06749999999999545,"durationTicks":120,"midi":78,"name":"F#5","ticks":299160,"time":169.19750000000002,"velocity":0.7874015748031497},{"duration":0.06749999999999545,"durationTicks":120,"midi":80,"name":"G#5","ticks":299280,"time":169.26500000000001,"velocity":0.7874015748031497},{"duration":0.06749999999999545,"durationTicks":120,"midi":81,"name":"A5","ticks":299400,"time":169.3325,"velocity":0.7874015748031497},{"duration":0.06749999999999545,"durationTicks":120,"midi":83,"name":"B5","ticks":299520,"time":169.4,"velocity":0.7874015748031497},{"duration":0.06750000000002387,"durationTicks":120,"midi":81,"name":"A5","ticks":299640,"time":169.4675,"velocity":0.7874015748031497},{"duration":0.06749999999999545,"durationTicks":120,"midi":80,"name":"G#5","ticks":299760,"time":169.53500000000003,"velocity":0.7874015748031497},{"duration":0.06749999999999545,"durationTicks":120,"midi":81,"name":"A5","ticks":299880,"time":169.60250000000002,"velocity":0.7874015748031497},{"duration":0.06749999999999545,"durationTicks":120,"midi":83,"name":"B5","ticks":300000,"time":169.67000000000002,"velocity":0.7874015748031497},{"duration":0.06749999999999545,"durationTicks":120,"midi":81,"name":"A5","ticks":300120,"time":169.7375,"velocity":0.7874015748031497},{"duration":0.06749999999999545,"durationTicks":120,"midi":80,"name":"G#5","ticks":300240,"time":169.805,"velocity":0.7874015748031497},{"duration":0.06749999999999545,"durationTicks":120,"midi":81,"name":"A5","ticks":300360,"time":169.8725,"velocity":0.7874015748031497},{"duration":0.06750000000002387,"durationTicks":120,"midi":83,"name":"B5","ticks":300480,"time":169.94,"velocity":0.7874015748031497},{"duration":0.06749999999999545,"durationTicks":120,"midi":86,"name":"D6","ticks":300600,"time":170.00750000000002,"velocity":0.7874015748031497},{"duration":0.06749999999999545,"durationTicks":120,"midi":87,"name":"D#6","ticks":300720,"time":170.07500000000002,"velocity":0.7874015748031497},{"duration":0.06749999999999545,"durationTicks":120,"midi":88,"name":"E6","ticks":300840,"time":170.1425,"velocity":0.7874015748031497},{"duration":0.06749999999999545,"durationTicks":120,"midi":92,"name":"G#6","ticks":300960,"time":170.21,"velocity":0.7874015748031497},{"duration":0.06749999999999545,"durationTicks":120,"midi":88,"name":"E6","ticks":301080,"time":170.2775,"velocity":0.7874015748031497},{"duration":0.06750000000002387,"durationTicks":120,"midi":92,"name":"G#6","ticks":301200,"time":170.345,"velocity":0.7874015748031497},{"duration":0.06749999999999545,"durationTicks":120,"midi":93,"name":"A6","ticks":301320,"time":170.41250000000002,"velocity":0.7874015748031497},{"duration":0.06749999999999545,"durationTicks":120,"midi":95,"name":"B6","ticks":301440,"time":170.48000000000002,"velocity":0.7874015748031497},{"duration":0.06749999999999545,"durationTicks":120,"midi":90,"name":"F#6","ticks":301560,"time":170.5475,"velocity":0.7874015748031497},{"duration":0.06749999999999545,"durationTicks":120,"midi":85,"name":"C#6","ticks":301680,"time":170.615,"velocity":0.7874015748031497},{"duration":0.06749999999999545,"durationTicks":120,"midi":81,"name":"A5","ticks":301800,"time":170.6825,"velocity":0.7874015748031497},{"duration":0.27000000000001023,"durationTicks":480,"midi":93,"name":"A6","ticks":301920,"time":170.75,"velocity":0.7874015748031497},{"duration":0.27000000000001023,"durationTicks":480,"midi":90,"name":"F#6","ticks":301920,"time":170.75,"velocity":0.7874015748031497},{"duration":0.20250000000001478,"durationTicks":360,"midi":92,"name":"G#6","ticks":302400,"time":171.02,"velocity":0.7874015748031497},{"duration":0.20250000000001478,"durationTicks":360,"midi":88,"name":"E6","ticks":302400,"time":171.02,"velocity":0.7874015748031497},{"duration":0.20249999999998636,"durationTicks":360,"midi":93,"name":"A6","ticks":302760,"time":171.22250000000003,"velocity":0.7874015748031497},{"duration":0.20249999999998636,"durationTicks":360,"midi":90,"name":"F#6","ticks":302760,"time":171.22250000000003,"velocity":0.7874015748031497},{"duration":0.20249999999998636,"durationTicks":360,"midi":85,"name":"C#6","ticks":303120,"time":171.425,"velocity":0.7874015748031497},{"duration":0.20249999999998636,"durationTicks":360,"midi":81,"name":"A5","ticks":303120,"time":171.425,"velocity":0.7874015748031497},{"duration":0.20250000000001478,"durationTicks":360,"midi":88,"name":"E6","ticks":303480,"time":171.6275,"velocity":0.7874015748031497},{"duration":0.20250000000001478,"durationTicks":360,"midi":92,"name":"G#6","ticks":303480,"time":171.6275,"velocity":0.7874015748031497},{"duration":0.20249999999998636,"durationTicks":360,"midi":83,"name":"B5","ticks":303840,"time":171.83,"velocity":0.7874015748031497},{"duration":0.20249999999998636,"durationTicks":360,"midi":80,"name":"G#5","ticks":303840,"time":171.83,"velocity":0.7874015748031497},{"duration":0.20250000000001478,"durationTicks":360,"midi":80,"name":"G#5","ticks":304200,"time":172.0325,"velocity":0.8188976377952756},{"duration":0.20250000000001478,"durationTicks":360,"midi":76,"name":"E5","ticks":304200,"time":172.0325,"velocity":0.7874015748031497},{"duration":0.20249999999998636,"durationTicks":360,"midi":80,"name":"G#5","ticks":304560,"time":172.235,"velocity":0.7874015748031497},{"duration":0.20249999999998636,"durationTicks":360,"midi":71,"name":"B4","ticks":304560,"time":172.235,"velocity":0.7874015748031497},{"duration":0.20250000000001478,"durationTicks":360,"midi":80,"name":"G#5","ticks":304920,"time":172.4375,"velocity":0.8188976377952756},{"duration":0.20250000000001478,"durationTicks":360,"midi":68,"name":"G#4","ticks":304920,"time":172.4375,"velocity":0.7874015748031497},{"duration":0.06749999999999545,"durationTicks":120,"midi":66,"name":"F#4","ticks":305280,"time":172.64000000000001,"velocity":0.7874015748031497},{"duration":0.06749999999999545,"durationTicks":120,"midi":62,"name":"D4","ticks":305400,"time":172.7075,"velocity":0.7874015748031497},{"duration":0.06749999999999545,"durationTicks":120,"midi":66,"name":"F#4","ticks":305520,"time":172.775,"velocity":0.7874015748031497},{"duration":0.06750000000002387,"durationTicks":120,"midi":68,"name":"G#4","ticks":305640,"time":172.8425,"velocity":0.7874015748031497},{"duration":0.06749999999999545,"durationTicks":120,"midi":69,"name":"A4","ticks":305760,"time":172.91000000000003,"velocity":0.7874015748031497},{"duration":0.06749999999999545,"durationTicks":120,"midi":66,"name":"F#4","ticks":305880,"time":172.97750000000002,"velocity":0.7874015748031497},{"duration":0.06749999999999545,"durationTicks":120,"midi":69,"name":"A4","ticks":306000,"time":173.04500000000002,"velocity":0.7874015748031497},{"duration":0.06749999999999545,"durationTicks":120,"midi":71,"name":"B4","ticks":306120,"time":173.1125,"velocity":0.7874015748031497},{"duration":0.06749999999999545,"durationTicks":120,"midi":73,"name":"C#5","ticks":306240,"time":173.18,"velocity":0.7874015748031497},{"duration":0.06749999999999545,"durationTicks":120,"midi":69,"name":"A4","ticks":306360,"time":173.2475,"velocity":0.7874015748031497},{"duration":0.06750000000002387,"durationTicks":120,"midi":73,"name":"C#5","ticks":306480,"time":173.315,"velocity":0.7874015748031497},{"duration":0.06749999999999545,"durationTicks":120,"midi":74,"name":"D5","ticks":306600,"time":173.38250000000002,"velocity":0.7874015748031497},{"duration":0.1349999999999909,"durationTicks":240,"midi":76,"name":"E5","ticks":306720,"time":173.45000000000002,"velocity":0.7874015748031497},{"duration":0.1349999999999909,"durationTicks":240,"midi":73,"name":"C#5","ticks":306720,"time":173.45000000000002,"velocity":0.7874015748031497},{"duration":0.27000000000001023,"durationTicks":480,"midi":78,"name":"F#5","ticks":306960,"time":173.585,"velocity":0.7874015748031497},{"duration":0.27000000000001023,"durationTicks":480,"midi":74,"name":"D5","ticks":306960,"time":173.585,"velocity":0.7874015748031497},{"duration":0.1349999999999909,"durationTicks":240,"midi":66,"name":"F#4","ticks":307440,"time":173.85500000000002,"velocity":0.7874015748031497},{"duration":0.1349999999999909,"durationTicks":240,"midi":71,"name":"B4","ticks":307680,"time":173.99,"velocity":0.7874015748031497},{"duration":0.13500000000001933,"durationTicks":240,"midi":73,"name":"C#5","ticks":307920,"time":174.125,"velocity":0.7874015748031497},{"duration":0.06749999999999545,"durationTicks":120,"midi":74,"name":"D5","ticks":308160,"time":174.26000000000002,"velocity":0.7874015748031497},{"duration":0.06749999999999545,"durationTicks":120,"midi":66,"name":"F#4","ticks":308280,"time":174.32750000000001,"velocity":0.7874015748031497},{"duration":0.06749999999999545,"durationTicks":120,"midi":71,"name":"B4","ticks":308400,"time":174.395,"velocity":0.7874015748031497},{"duration":0.06749999999999545,"durationTicks":120,"midi":74,"name":"D5","ticks":308520,"time":174.4625,"velocity":0.7874015748031497},{"duration":0.06750000000002387,"durationTicks":120,"midi":83,"name":"B5","ticks":308640,"time":174.53,"velocity":0.7874015748031497},{"duration":0.06749999999999545,"durationTicks":120,"midi":78,"name":"F#5","ticks":308760,"time":174.59750000000003,"velocity":0.7874015748031497},{"duration":0.06749999999999545,"durationTicks":120,"midi":74,"name":"D5","ticks":308880,"time":174.66500000000002,"velocity":0.7874015748031497},{"duration":0.06749999999999545,"durationTicks":120,"midi":71,"name":"B4","ticks":309000,"time":174.73250000000002,"velocity":0.7874015748031497},{"duration":0.06749999999999545,"durationTicks":120,"midi":64,"name":"E4","ticks":309120,"time":174.8,"velocity":0.7874015748031497},{"duration":0.06749999999999545,"durationTicks":120,"midi":59,"name":"B3","ticks":309240,"time":174.8675,"velocity":0.7874015748031497},{"duration":0.06749999999999545,"durationTicks":120,"midi":64,"name":"E4","ticks":309360,"time":174.935,"velocity":0.7874015748031497},{"duration":0.06750000000002387,"durationTicks":120,"midi":66,"name":"F#4","ticks":309480,"time":175.0025,"velocity":0.7874015748031497},{"duration":0.06749999999999545,"durationTicks":120,"midi":68,"name":"G#4","ticks":309600,"time":175.07000000000002,"velocity":0.7874015748031497},{"duration":0.06749999999999545,"durationTicks":120,"midi":64,"name":"E4","ticks":309720,"time":175.13750000000002,"velocity":0.7874015748031497},{"duration":0.06749999999999545,"durationTicks":120,"midi":68,"name":"G#4","ticks":309840,"time":175.205,"velocity":0.7874015748031497},{"duration":0.06749999999999545,"durationTicks":120,"midi":69,"name":"A4","ticks":309960,"time":175.2725,"velocity":0.7874015748031497},{"duration":0.06749999999999545,"durationTicks":120,"midi":76,"name":"E5","ticks":310080,"time":175.34,"velocity":0.7874015748031497},{"duration":0.06750000000002387,"durationTicks":120,"midi":71,"name":"B4","ticks":310200,"time":175.4075,"velocity":0.7874015748031497},{"duration":0.06749999999999545,"durationTicks":120,"midi":74,"name":"D5","ticks":310320,"time":175.47500000000002,"velocity":0.7874015748031497},{"duration":0.06749999999999545,"durationTicks":120,"midi":76,"name":"E5","ticks":310440,"time":175.54250000000002,"velocity":0.7874015748031497},{"duration":0.1349999999999909,"durationTicks":240,"midi":78,"name":"F#5","ticks":310560,"time":175.61,"velocity":0.7874015748031497},{"duration":0.1349999999999909,"durationTicks":240,"midi":74,"name":"D5","ticks":310560,"time":175.61,"velocity":0.7874015748031497},{"duration":0.27000000000001023,"durationTicks":480,"midi":80,"name":"G#5","ticks":310800,"time":175.745,"velocity":0.7874015748031497},{"duration":0.27000000000001023,"durationTicks":480,"midi":76,"name":"E5","ticks":310800,"time":175.745,"velocity":0.7874015748031497},{"duration":0.1349999999999909,"durationTicks":240,"midi":64,"name":"E4","ticks":311280,"time":176.01500000000001,"velocity":0.7874015748031497},{"duration":0.13500000000001933,"durationTicks":240,"midi":71,"name":"B4","ticks":311520,"time":176.15,"velocity":0.7874015748031497},{"duration":0.1349999999999909,"durationTicks":240,"midi":74,"name":"D5","ticks":311760,"time":176.28500000000003,"velocity":0.7874015748031497},{"duration":0.06749999999999545,"durationTicks":120,"midi":76,"name":"E5","ticks":312000,"time":176.42000000000002,"velocity":0.7874015748031497},{"duration":0.06749999999999545,"durationTicks":120,"midi":71,"name":"B4","ticks":312120,"time":176.4875,"velocity":0.7874015748031497},{"duration":0.06749999999999545,"durationTicks":120,"midi":74,"name":"D5","ticks":312240,"time":176.555,"velocity":0.7874015748031497},{"duration":0.06749999999999545,"durationTicks":120,"midi":76,"name":"E5","ticks":312360,"time":176.6225,"velocity":0.7874015748031497},{"duration":0.06750000000002387,"durationTicks":120,"midi":88,"name":"E6","ticks":312480,"time":176.69,"velocity":0.7874015748031497},{"duration":0.06749999999999545,"durationTicks":120,"midi":83,"name":"B5","ticks":312600,"time":176.75750000000002,"velocity":0.7874015748031497},{"duration":0.06749999999999545,"durationTicks":120,"midi":80,"name":"G#5","ticks":312720,"time":176.82500000000002,"velocity":0.7874015748031497},{"duration":0.06749999999999545,"durationTicks":120,"midi":76,"name":"E5","ticks":312840,"time":176.8925,"velocity":0.7874015748031497},{"duration":0.06749999999999545,"durationTicks":120,"midi":86,"name":"D6","ticks":312960,"time":176.96,"velocity":0.7874015748031497},{"duration":0.06749999999999545,"durationTicks":120,"midi":80,"name":"G#5","ticks":312960,"time":176.96,"velocity":0.7874015748031497},{"duration":0.06749999999999545,"durationTicks":120,"midi":83,"name":"B5","ticks":313080,"time":177.0275,"velocity":0.7874015748031497},{"duration":0.06749999999999545,"durationTicks":120,"midi":76,"name":"E5","ticks":313080,"time":177.0275,"velocity":0.7874015748031497},{"duration":0.06750000000002387,"durationTicks":120,"midi":80,"name":"G#5","ticks":313200,"time":177.095,"velocity":0.7874015748031497},{"duration":0.06750000000002387,"durationTicks":120,"midi":71,"name":"B4","ticks":313200,"time":177.095,"velocity":0.7874015748031497},{"duration":0.06749999999999545,"durationTicks":120,"midi":76,"name":"E5","ticks":313320,"time":177.16250000000002,"velocity":0.7874015748031497},{"duration":0.06749999999999545,"durationTicks":120,"midi":74,"name":"D5","ticks":313440,"time":177.23000000000002,"velocity":0.7874015748031497},{"duration":0.06749999999999545,"durationTicks":120,"midi":71,"name":"B4","ticks":313560,"time":177.2975,"velocity":0.7874015748031497},{"duration":0.06749999999999545,"durationTicks":120,"midi":86,"name":"D6","ticks":313680,"time":177.365,"velocity":0.7874015748031497},{"duration":0.06749999999999545,"durationTicks":120,"midi":80,"name":"G#5","ticks":313680,"time":177.365,"velocity":0.7874015748031497},{"duration":0.06749999999999545,"durationTicks":120,"midi":83,"name":"B5","ticks":313800,"time":177.4325,"velocity":0.7874015748031497},{"duration":0.06749999999999545,"durationTicks":120,"midi":76,"name":"E5","ticks":313800,"time":177.4325,"velocity":0.7874015748031497},{"duration":0.06750000000002387,"durationTicks":120,"midi":80,"name":"G#5","ticks":313920,"time":177.5,"velocity":0.7874015748031497},{"duration":0.06750000000002387,"durationTicks":120,"midi":71,"name":"B4","ticks":313920,"time":177.5,"velocity":0.7874015748031497},{"duration":0.06749999999999545,"durationTicks":120,"midi":76,"name":"E5","ticks":314040,"time":177.56750000000002,"velocity":0.7874015748031497},{"duration":0.06749999999999545,"durationTicks":120,"midi":74,"name":"D5","ticks":314160,"time":177.63500000000002,"velocity":0.7874015748031497},{"duration":0.06749999999999545,"durationTicks":120,"midi":71,"name":"B4","ticks":314280,"time":177.70250000000001,"velocity":0.7874015748031497},{"duration":0.06749999999999545,"durationTicks":120,"midi":86,"name":"D6","ticks":314400,"time":177.77,"velocity":0.7874015748031497},{"duration":0.06749999999999545,"durationTicks":120,"midi":80,"name":"G#5","ticks":314400,"time":177.77,"velocity":0.7874015748031497},{"duration":0.06749999999999545,"durationTicks":120,"midi":83,"name":"B5","ticks":314520,"time":177.8375,"velocity":0.7874015748031497},{"duration":0.06749999999999545,"durationTicks":120,"midi":76,"name":"E5","ticks":314520,"time":177.8375,"velocity":0.7874015748031497},{"duration":0.06750000000002387,"durationTicks":120,"midi":80,"name":"G#5","ticks":314640,"time":177.905,"velocity":0.7874015748031497},{"duration":0.06750000000002387,"durationTicks":120,"midi":71,"name":"B4","ticks":314640,"time":177.905,"velocity":0.7874015748031497},{"duration":0.06749999999999545,"durationTicks":120,"midi":76,"name":"E5","ticks":314760,"time":177.97250000000003,"velocity":0.7874015748031497},{"duration":0.06749999999999545,"durationTicks":120,"midi":74,"name":"D5","ticks":314880,"time":178.04000000000002,"velocity":0.7874015748031497},{"duration":0.06749999999999545,"durationTicks":120,"midi":71,"name":"B4","ticks":315000,"time":178.10750000000002,"velocity":0.7874015748031497},{"duration":0.044999999999987494,"durationTicks":80,"midi":86,"name":"D6","ticks":315120,"time":178.175,"velocity":0.7874015748031497},{"duration":0.044999999999987494,"durationTicks":80,"midi":80,"name":"G#5","ticks":315120,"time":178.175,"velocity":0.7874015748031497},{"duration":0.045000000000015916,"durationTicks":80,"midi":83,"name":"B5","ticks":315200,"time":178.22,"velocity":0.7874015748031497},{"duration":0.045000000000015916,"durationTicks":80,"midi":76,"name":"E5","ticks":315200,"time":178.22,"velocity":0.7874015748031497},{"duration":0.044999999999987494,"durationTicks":80,"midi":80,"name":"G#5","ticks":315280,"time":178.26500000000001,"velocity":0.7874015748031497},{"duration":0.044999999999987494,"durationTicks":80,"midi":71,"name":"B4","ticks":315280,"time":178.26500000000001,"velocity":0.7874015748031497},{"duration":0.06749999999999545,"durationTicks":120,"midi":86,"name":"D6","ticks":315360,"time":178.31,"velocity":0.7874015748031497},{"duration":0.06749999999999545,"durationTicks":120,"midi":80,"name":"G#5","ticks":315360,"time":178.31,"velocity":0.7874015748031497},{"duration":0.06750000000002387,"durationTicks":120,"midi":83,"name":"B5","ticks":315480,"time":178.3775,"velocity":0.7874015748031497},{"duration":0.06750000000002387,"durationTicks":120,"midi":76,"name":"E5","ticks":315480,"time":178.3775,"velocity":0.7874015748031497},{"duration":0.06749999999999545,"durationTicks":120,"midi":80,"name":"G#5","ticks":315600,"time":178.44500000000002,"velocity":0.7874015748031497},{"duration":0.06749999999999545,"durationTicks":120,"midi":76,"name":"E5","ticks":315720,"time":178.51250000000002,"velocity":0.7874015748031497},{"duration":0.06749999999999545,"durationTicks":120,"midi":71,"name":"B4","ticks":315720,"time":178.51250000000002,"velocity":0.7874015748031497},{"duration":0.06749999999999545,"durationTicks":120,"midi":86,"name":"D6","ticks":315840,"time":178.58,"velocity":0.7874015748031497},{"duration":0.06749999999999545,"durationTicks":120,"midi":80,"name":"G#5","ticks":315840,"time":178.58,"velocity":0.7874015748031497},{"duration":0.06749999999999545,"durationTicks":120,"midi":83,"name":"B5","ticks":315960,"time":178.6475,"velocity":0.7874015748031497},{"duration":0.06749999999999545,"durationTicks":120,"midi":76,"name":"E5","ticks":315960,"time":178.6475,"velocity":0.7874015748031497},{"duration":0.06749999999999545,"durationTicks":120,"midi":80,"name":"G#5","ticks":316080,"time":178.715,"velocity":0.7874015748031497},{"duration":0.06750000000002387,"durationTicks":120,"midi":76,"name":"E5","ticks":316200,"time":178.7825,"velocity":0.7874015748031497},{"duration":0.06750000000002387,"durationTicks":120,"midi":71,"name":"B4","ticks":316200,"time":178.7825,"velocity":0.7874015748031497},{"duration":0.1349999999999909,"durationTicks":240,"midi":88,"name":"E6","ticks":316320,"time":178.85000000000002,"velocity":0.7874015748031497},{"duration":0.1349999999999909,"durationTicks":240,"midi":86,"name":"D6","ticks":316560,"time":178.985,"velocity":0.7874015748031497},{"duration":0.13500000000001933,"durationTicks":240,"midi":85,"name":"C#6","ticks":316800,"time":179.12,"velocity":0.7874015748031497},{"duration":0.13500000000001933,"durationTicks":240,"midi":77,"name":"F5","ticks":316800,"time":179.12,"velocity":0.7874015748031497},{"duration":0.06749999999999545,"durationTicks":120,"midi":65,"name":"F4","ticks":316800,"time":179.12,"velocity":0.7874015748031497},{"duration":0.06750000000002387,"durationTicks":120,"midi":65,"name":"F4","ticks":316920,"time":179.1875,"velocity":0.7874015748031497},{"duration":0.06749999999999545,"durationTicks":120,"midi":68,"name":"G#4","ticks":317040,"time":179.25500000000002,"velocity":0.7874015748031497},{"duration":0.06749999999999545,"durationTicks":120,"midi":65,"name":"F4","ticks":317160,"time":179.32250000000002,"velocity":0.7874015748031497},{"duration":0.06749999999999545,"durationTicks":120,"midi":68,"name":"G#4","ticks":317280,"time":179.39000000000001,"velocity":0.7874015748031497},{"duration":0.06749999999999545,"durationTicks":120,"midi":65,"name":"F4","ticks":317400,"time":179.4575,"velocity":0.7874015748031497},{"duration":0.06749999999999545,"durationTicks":120,"midi":65,"name":"F4","ticks":317520,"time":179.525,"velocity":0.7874015748031497},{"duration":0.06750000000002387,"durationTicks":120,"midi":68,"name":"G#4","ticks":317640,"time":179.5925,"velocity":0.7874015748031497},{"duration":0.06749999999999545,"durationTicks":120,"midi":77,"name":"F5","ticks":317760,"time":179.66000000000003,"velocity":0.7874015748031497},{"duration":0.06749999999999545,"durationTicks":120,"midi":73,"name":"C#5","ticks":317880,"time":179.72750000000002,"velocity":0.7874015748031497},{"duration":0.06749999999999545,"durationTicks":120,"midi":68,"name":"G#4","ticks":318000,"time":179.79500000000002,"velocity":0.7874015748031497},{"duration":0.06749999999999545,"durationTicks":120,"midi":73,"name":"C#5","ticks":318120,"time":179.8625,"velocity":0.7874015748031497},{"duration":0.06749999999999545,"durationTicks":120,"midi":80,"name":"G#5","ticks":318240,"time":179.93,"velocity":0.7874015748031497},{"duration":0.06749999999999545,"durationTicks":120,"midi":77,"name":"F5","ticks":318360,"time":179.9975,"velocity":0.7874015748031497},{"duration":0.06750000000002387,"durationTicks":120,"midi":73,"name":"C#5","ticks":318480,"time":180.065,"velocity":0.7874015748031497},{"duration":0.06749999999999545,"durationTicks":120,"midi":80,"name":"G#5","ticks":318600,"time":180.13250000000002,"velocity":0.7874015748031497},{"duration":0.06749999999999545,"durationTicks":120,"midi":77,"name":"F5","ticks":318720,"time":180.20000000000002,"velocity":0.7874015748031497},{"duration":0.06749999999999545,"durationTicks":120,"midi":77,"name":"F5","ticks":318840,"time":180.2675,"velocity":0.7874015748031497},{"duration":0.06749999999999545,"durationTicks":120,"midi":83,"name":"B5","ticks":318960,"time":180.335,"velocity":0.7874015748031497},{"duration":0.06749999999999545,"durationTicks":120,"midi":85,"name":"C#6","ticks":319080,"time":180.4025,"velocity":0.7874015748031497},{"duration":0.06750000000002387,"durationTicks":120,"midi":77,"name":"F5","ticks":319200,"time":180.47,"velocity":0.7874015748031497},{"duration":0.06749999999999545,"durationTicks":120,"midi":80,"name":"G#5","ticks":319320,"time":180.53750000000002,"velocity":0.7874015748031497},{"duration":0.06749999999999545,"durationTicks":120,"midi":85,"name":"C#6","ticks":319440,"time":180.60500000000002,"velocity":0.7874015748031497},{"duration":0.06749999999999545,"durationTicks":120,"midi":92,"name":"G#6","ticks":319560,"time":180.6725,"velocity":0.7874015748031497},{"duration":0.06749999999999545,"durationTicks":120,"midi":97,"name":"C#7","ticks":319680,"time":180.74,"velocity":0.7874015748031497},{"duration":0.06749999999999545,"durationTicks":120,"midi":92,"name":"G#6","ticks":319800,"time":180.8075,"velocity":0.7874015748031497},{"duration":0.06750000000002387,"durationTicks":120,"midi":89,"name":"F6","ticks":319920,"time":180.875,"velocity":0.7874015748031497},{"duration":0.06749999999999545,"durationTicks":120,"midi":85,"name":"C#6","ticks":320040,"time":180.94250000000002,"velocity":0.7874015748031497},{"duration":0.06749999999999545,"durationTicks":120,"midi":92,"name":"G#6","ticks":320160,"time":181.01000000000002,"velocity":0.7874015748031497},{"duration":0.06749999999999545,"durationTicks":120,"midi":89,"name":"F6","ticks":320280,"time":181.07750000000001,"velocity":0.7874015748031497},{"duration":0.06749999999999545,"durationTicks":120,"midi":85,"name":"C#6","ticks":320400,"time":181.145,"velocity":0.7874015748031497},{"duration":0.06749999999999545,"durationTicks":120,"midi":80,"name":"G#5","ticks":320520,"time":181.2125,"velocity":0.7874015748031497},{"duration":0.06750000000002387,"durationTicks":120,"midi":66,"name":"F#4","ticks":320640,"time":181.28,"velocity":0.7874015748031497},{"duration":0.06750000000002387,"durationTicks":120,"midi":61,"name":"C#4","ticks":320640,"time":181.28,"velocity":0.7874015748031497},{"duration":0.06749999999999545,"durationTicks":120,"midi":69,"name":"A4","ticks":320760,"time":181.34750000000003,"velocity":0.7874015748031497},{"duration":0.06749999999999545,"durationTicks":120,"midi":66,"name":"F#4","ticks":320760,"time":181.34750000000003,"velocity":0.7874015748031497},{"duration":0.06749999999999545,"durationTicks":120,"midi":73,"name":"C#5","ticks":320880,"time":181.41500000000002,"velocity":0.7874015748031497},{"duration":0.06749999999999545,"durationTicks":120,"midi":69,"name":"A4","ticks":320880,"time":181.41500000000002,"velocity":0.7874015748031497},{"duration":0.06749999999999545,"durationTicks":120,"midi":78,"name":"F#5","ticks":321000,"time":181.48250000000002,"velocity":0.7874015748031497},{"duration":0.06749999999999545,"durationTicks":120,"midi":73,"name":"C#5","ticks":321000,"time":181.48250000000002,"velocity":0.7874015748031497},{"duration":0.1349999999999909,"durationTicks":240,"midi":81,"name":"A5","ticks":321120,"time":181.55,"velocity":0.7874015748031497},{"duration":0.1349999999999909,"durationTicks":240,"midi":78,"name":"F#5","ticks":321120,"time":181.55,"velocity":0.7874015748031497},{"duration":0.27000000000001023,"durationTicks":480,"midi":66,"name":"F#4","ticks":321360,"time":181.685,"velocity":0.7874015748031497},{"duration":0.27000000000001023,"durationTicks":480,"midi":61,"name":"C#4","ticks":321360,"time":181.685,"velocity":0.7874015748031497},{"duration":0.27000000000001023,"durationTicks":480,"midi":83,"name":"B5","ticks":321840,"time":181.955,"velocity":0.7874015748031497},{"duration":0.27000000000001023,"durationTicks":480,"midi":78,"name":"F#5","ticks":321840,"time":181.955,"velocity":0.7874015748031497},{"duration":0.1349999999999909,"durationTicks":240,"midi":85,"name":"C#6","ticks":322320,"time":182.22500000000002,"velocity":0.7874015748031497},{"duration":0.1349999999999909,"durationTicks":240,"midi":78,"name":"F#5","ticks":322320,"time":182.22500000000002,"velocity":0.7874015748031497},{"duration":0.06749999999999545,"durationTicks":120,"midi":66,"name":"F#4","ticks":322560,"time":182.36,"velocity":0.7874015748031497},{"duration":0.06749999999999545,"durationTicks":120,"midi":69,"name":"A4","ticks":322680,"time":182.4275,"velocity":0.7874015748031497},{"duration":0.06749999999999545,"durationTicks":120,"midi":73,"name":"C#5","ticks":322800,"time":182.495,"velocity":0.7874015748031497},{"duration":0.06750000000002387,"durationTicks":120,"midi":78,"name":"F#5","ticks":322920,"time":182.5625,"velocity":0.7874015748031497},{"duration":0.06749999999999545,"durationTicks":120,"midi":81,"name":"A5","ticks":323040,"time":182.63000000000002,"velocity":0.7874015748031497},{"duration":0.06749999999999545,"durationTicks":120,"midi":85,"name":"C#6","ticks":323160,"time":182.69750000000002,"velocity":0.7874015748031497},{"duration":0.06749999999999545,"durationTicks":120,"midi":90,"name":"F#6","ticks":323280,"time":182.76500000000001,"velocity":0.7874015748031497},{"duration":0.06749999999999545,"durationTicks":120,"midi":93,"name":"A6","ticks":323400,"time":182.8325,"velocity":0.7874015748031497},{"duration":0.06749999999999545,"durationTicks":120,"midi":97,"name":"C#7","ticks":323520,"time":182.9,"velocity":0.7874015748031497},{"duration":0.06750000000002387,"durationTicks":120,"midi":93,"name":"A6","ticks":323640,"time":182.9675,"velocity":0.7874015748031497},{"duration":0.06749999999999545,"durationTicks":120,"midi":90,"name":"F#6","ticks":323760,"time":183.03500000000003,"velocity":0.7874015748031497},{"duration":0.06749999999999545,"durationTicks":120,"midi":85,"name":"C#6","ticks":323880,"time":183.10250000000002,"velocity":0.7874015748031497},{"duration":0.06749999999999545,"durationTicks":120,"midi":93,"name":"A6","ticks":324000,"time":183.17000000000002,"velocity":0.7874015748031497},{"duration":0.06749999999999545,"durationTicks":120,"midi":90,"name":"F#6","ticks":324120,"time":183.2375,"velocity":0.7874015748031497},{"duration":0.06749999999999545,"durationTicks":120,"midi":85,"name":"C#6","ticks":324240,"time":183.305,"velocity":0.7874015748031497},{"duration":0.06749999999999545,"durationTicks":120,"midi":81,"name":"A5","ticks":324360,"time":183.3725,"velocity":0.7874015748031497},{"duration":0.06750000000002387,"durationTicks":120,"midi":65,"name":"F4","ticks":324480,"time":183.44,"velocity":0.7874015748031497},{"duration":0.06750000000002387,"durationTicks":120,"midi":61,"name":"C#4","ticks":324480,"time":183.44,"velocity":0.7874015748031497},{"duration":0.06749999999999545,"durationTicks":120,"midi":68,"name":"G#4","ticks":324600,"time":183.50750000000002,"velocity":0.7874015748031497},{"duration":0.06749999999999545,"durationTicks":120,"midi":65,"name":"F4","ticks":324600,"time":183.50750000000002,"velocity":0.7874015748031497},{"duration":0.06749999999999545,"durationTicks":120,"midi":71,"name":"B4","ticks":324720,"time":183.57500000000002,"velocity":0.7874015748031497},{"duration":0.06749999999999545,"durationTicks":120,"midi":68,"name":"G#4","ticks":324720,"time":183.57500000000002,"velocity":0.7874015748031497},{"duration":0.06749999999999545,"durationTicks":120,"midi":77,"name":"F5","ticks":324840,"time":183.6425,"velocity":0.7874015748031497},{"duration":0.06749999999999545,"durationTicks":120,"midi":71,"name":"B4","ticks":324840,"time":183.6425,"velocity":0.7874015748031497},{"duration":0.1349999999999909,"durationTicks":240,"midi":80,"name":"G#5","ticks":324960,"time":183.71,"velocity":0.7874015748031497},{"duration":0.1349999999999909,"durationTicks":240,"midi":77,"name":"F5","ticks":324960,"time":183.71,"velocity":0.7874015748031497},{"duration":0.27000000000001023,"durationTicks":480,"midi":61,"name":"C#4","ticks":325200,"time":183.845,"velocity":0.7874015748031497},{"duration":0.27000000000001023,"durationTicks":480,"midi":65,"name":"F4","ticks":325200,"time":183.845,"velocity":0.7874015748031497},{"duration":0.27000000000001023,"durationTicks":480,"midi":83,"name":"B5","ticks":325680,"time":184.115,"velocity":0.7874015748031497},{"duration":0.27000000000001023,"durationTicks":480,"midi":77,"name":"F5","ticks":325680,"time":184.115,"velocity":0.7874015748031497},{"duration":0.1349999999999909,"durationTicks":240,"midi":85,"name":"C#6","ticks":326160,"time":184.38500000000002,"velocity":0.7874015748031497},{"duration":0.1349999999999909,"durationTicks":240,"midi":77,"name":"F5","ticks":326160,"time":184.38500000000002,"velocity":0.7874015748031497},{"duration":0.06749999999999545,"durationTicks":120,"midi":65,"name":"F4","ticks":326400,"time":184.52,"velocity":0.7874015748031497},{"duration":0.06749999999999545,"durationTicks":120,"midi":68,"name":"G#4","ticks":326520,"time":184.5875,"velocity":0.7874015748031497},{"duration":0.06750000000002387,"durationTicks":120,"midi":71,"name":"B4","ticks":326640,"time":184.655,"velocity":0.7874015748031497},{"duration":0.06749999999999545,"durationTicks":120,"midi":77,"name":"F5","ticks":326760,"time":184.72250000000003,"velocity":0.7874015748031497},{"duration":0.06749999999999545,"durationTicks":120,"midi":80,"name":"G#5","ticks":326880,"time":184.79000000000002,"velocity":0.7874015748031497},{"duration":0.06749999999999545,"durationTicks":120,"midi":83,"name":"B5","ticks":327000,"time":184.85750000000002,"velocity":0.7874015748031497},{"duration":0.06749999999999545,"durationTicks":120,"midi":89,"name":"F6","ticks":327120,"time":184.925,"velocity":0.7874015748031497},{"duration":0.06749999999999545,"durationTicks":120,"midi":92,"name":"G#6","ticks":327240,"time":184.9925,"velocity":0.7874015748031497},{"duration":0.06750000000002387,"durationTicks":120,"midi":97,"name":"C#7","ticks":327360,"time":185.06,"velocity":0.7874015748031497},{"duration":0.06749999999999545,"durationTicks":120,"midi":92,"name":"G#6","ticks":327480,"time":185.12750000000003,"velocity":0.7874015748031497},{"duration":0.06749999999999545,"durationTicks":120,"midi":89,"name":"F6","ticks":327600,"time":185.19500000000002,"velocity":0.7874015748031497},{"duration":0.06749999999999545,"durationTicks":120,"midi":85,"name":"C#6","ticks":327720,"time":185.26250000000002,"velocity":0.7874015748031497},{"duration":0.06749999999999545,"durationTicks":120,"midi":89,"name":"F6","ticks":327840,"time":185.33,"velocity":0.7874015748031497},{"duration":0.06749999999999545,"durationTicks":120,"midi":77,"name":"F5","ticks":327960,"time":185.3975,"velocity":0.7874015748031497},{"duration":0.06749999999999545,"durationTicks":120,"midi":85,"name":"C#6","ticks":328080,"time":185.465,"velocity":0.7874015748031497},{"duration":0.06750000000002387,"durationTicks":120,"midi":73,"name":"C#5","ticks":328200,"time":185.5325,"velocity":0.7874015748031497},{"duration":0.06749999999999545,"durationTicks":120,"midi":64,"name":"E4","ticks":328320,"time":185.60000000000002,"velocity":0.7874015748031497},{"duration":0.06749999999999545,"durationTicks":120,"midi":61,"name":"C#4","ticks":328320,"time":185.60000000000002,"velocity":0.7874015748031497},{"duration":0.06749999999999545,"durationTicks":120,"midi":68,"name":"G#4","ticks":328440,"time":185.66750000000002,"velocity":0.7874015748031497},{"duration":0.06749999999999545,"durationTicks":120,"midi":64,"name":"E4","ticks":328440,"time":185.66750000000002,"velocity":0.7874015748031497},{"duration":0.06749999999999545,"durationTicks":120,"midi":73,"name":"C#5","ticks":328560,"time":185.735,"velocity":0.7874015748031497},{"duration":0.06749999999999545,"durationTicks":120,"midi":68,"name":"G#4","ticks":328560,"time":185.735,"velocity":0.7874015748031497},{"duration":0.06749999999999545,"durationTicks":120,"midi":76,"name":"E5","ticks":328680,"time":185.8025,"velocity":0.7874015748031497},{"duration":0.06749999999999545,"durationTicks":120,"midi":73,"name":"C#5","ticks":328680,"time":185.8025,"velocity":0.7874015748031497},{"duration":0.27000000000001023,"durationTicks":480,"midi":80,"name":"G#5","ticks":328800,"time":185.87,"velocity":0.7874015748031497},{"duration":0.27000000000001023,"durationTicks":480,"midi":76,"name":"E5","ticks":328800,"time":185.87,"velocity":0.7874015748031497},{"duration":0.1349999999999909,"durationTicks":240,"midi":83,"name":"B5","ticks":329280,"time":186.14000000000001,"velocity":0.7874015748031497},{"duration":0.1349999999999909,"durationTicks":240,"midi":80,"name":"G#5","ticks":329280,"time":186.14000000000001,"velocity":0.5669291338582677},{"duration":0.13500000000001933,"durationTicks":240,"midi":85,"name":"C#6","ticks":329640,"time":186.3425,"velocity":0.7874015748031497},{"duration":0.13500000000001933,"durationTicks":240,"midi":80,"name":"G#5","ticks":329640,"time":186.3425,"velocity":0.5669291338582677},{"duration":0.1349999999999909,"durationTicks":240,"midi":87,"name":"D#6","ticks":330000,"time":186.54500000000002,"velocity":0.7874015748031497},{"duration":0.1349999999999909,"durationTicks":240,"midi":80,"name":"G#5","ticks":330000,"time":186.54500000000002,"velocity":0.5669291338582677},{"duration":0.13500000000001933,"durationTicks":240,"midi":88,"name":"E6","ticks":330360,"time":186.7475,"velocity":0.7874015748031497},{"duration":0.13500000000001933,"durationTicks":240,"midi":80,"name":"G#5","ticks":330360,"time":186.7475,"velocity":0.5669291338582677},{"duration":0.1349999999999909,"durationTicks":240,"midi":90,"name":"F#6","ticks":330720,"time":186.95000000000002,"velocity":0.7874015748031497},{"duration":0.1349999999999909,"durationTicks":240,"midi":80,"name":"G#5","ticks":330720,"time":186.95000000000002,"velocity":0.5669291338582677},{"duration":0.13500000000001933,"durationTicks":240,"midi":92,"name":"G#6","ticks":331080,"time":187.1525,"velocity":0.7874015748031497},{"duration":0.13500000000001933,"durationTicks":240,"midi":80,"name":"G#5","ticks":331080,"time":187.1525,"velocity":0.5669291338582677},{"duration":0.1349999999999909,"durationTicks":240,"midi":93,"name":"A6","ticks":331440,"time":187.35500000000002,"velocity":0.7874015748031497},{"duration":0.06749999999999545,"durationTicks":120,"midi":93,"name":"A6","ticks":331680,"time":187.49,"velocity":0.7874015748031497},{"duration":0.06749999999999545,"durationTicks":120,"midi":92,"name":"G#6","ticks":331800,"time":187.5575,"velocity":0.7874015748031497},{"duration":0.06750000000002387,"durationTicks":120,"midi":93,"name":"A6","ticks":331920,"time":187.625,"velocity":0.7874015748031497},{"duration":0.06749999999999545,"durationTicks":120,"midi":95,"name":"B6","ticks":332040,"time":187.69250000000002,"velocity":0.7874015748031497},{"duration":0.06749999999999545,"durationTicks":120,"midi":97,"name":"C#7","ticks":332160,"time":187.76000000000002,"velocity":0.7874015748031497},{"duration":0.06749999999999545,"durationTicks":120,"midi":93,"name":"A6","ticks":332280,"time":187.82750000000001,"velocity":0.7874015748031497},{"duration":0.06749999999999545,"durationTicks":120,"midi":90,"name":"F#6","ticks":332400,"time":187.895,"velocity":0.7874015748031497},{"duration":0.06749999999999545,"durationTicks":120,"midi":85,"name":"C#6","ticks":332520,"time":187.9625,"velocity":0.7874015748031497},{"duration":0.06750000000002387,"durationTicks":120,"midi":93,"name":"A6","ticks":332640,"time":188.03,"velocity":0.7874015748031497},{"duration":0.06749999999999545,"durationTicks":120,"midi":90,"name":"F#6","ticks":332760,"time":188.09750000000003,"velocity":0.7874015748031497},{"duration":0.06749999999999545,"durationTicks":120,"midi":85,"name":"C#6","ticks":332880,"time":188.16500000000002,"velocity":0.7874015748031497},{"duration":0.06749999999999545,"durationTicks":120,"midi":81,"name":"A5","ticks":333000,"time":188.23250000000002,"velocity":0.7874015748031497},{"duration":0.06749999999999545,"durationTicks":120,"midi":90,"name":"F#6","ticks":333120,"time":188.3,"velocity":0.7874015748031497},{"duration":0.06749999999999545,"durationTicks":120,"midi":85,"name":"C#6","ticks":333240,"time":188.3675,"velocity":0.7874015748031497},{"duration":0.06750000000002387,"durationTicks":120,"midi":81,"name":"A5","ticks":333360,"time":188.435,"velocity":0.7874015748031497},{"duration":0.06749999999999545,"durationTicks":120,"midi":78,"name":"F#5","ticks":333480,"time":188.50250000000003,"velocity":0.7874015748031497},{"duration":0.06749999999999545,"durationTicks":120,"midi":85,"name":"C#6","ticks":333600,"time":188.57000000000002,"velocity":0.7874015748031497},{"duration":0.06749999999999545,"durationTicks":120,"midi":81,"name":"A5","ticks":333720,"time":188.63750000000002,"velocity":0.7874015748031497},{"duration":0.06749999999999545,"durationTicks":120,"midi":78,"name":"F#5","ticks":333840,"time":188.705,"velocity":0.7874015748031497},{"duration":0.06749999999999545,"durationTicks":120,"midi":73,"name":"C#5","ticks":333960,"time":188.7725,"velocity":0.7874015748031497},{"duration":0.06749999999999545,"durationTicks":120,"midi":73,"name":"C#5","ticks":334080,"time":188.84,"velocity":0.7874015748031497},{"duration":0.06750000000002387,"durationTicks":120,"midi":93,"name":"A6","ticks":334200,"time":188.9075,"velocity":0.7874015748031497},{"duration":0.06750000000002387,"durationTicks":120,"midi":90,"name":"F#6","ticks":334200,"time":188.9075,"velocity":0.7874015748031497},{"duration":0.06749999999999545,"durationTicks":120,"midi":93,"name":"A6","ticks":334320,"time":188.97500000000002,"velocity":0.7874015748031497},{"duration":0.06749999999999545,"durationTicks":120,"midi":90,"name":"F#6","ticks":334320,"time":188.97500000000002,"velocity":0.7874015748031497},{"duration":0.06749999999999545,"durationTicks":120,"midi":73,"name":"C#5","ticks":334440,"time":189.04250000000002,"velocity":0.7874015748031497},{"duration":0.06749999999999545,"durationTicks":120,"midi":90,"name":"F#6","ticks":334560,"time":189.11,"velocity":0.7874015748031497},{"duration":0.06749999999999545,"durationTicks":120,"midi":85,"name":"C#6","ticks":334560,"time":189.11,"velocity":0.7874015748031497},{"duration":0.06749999999999545,"durationTicks":120,"midi":90,"name":"F#6","ticks":334680,"time":189.1775,"velocity":0.7874015748031497},{"duration":0.06749999999999545,"durationTicks":120,"midi":85,"name":"C#6","ticks":334680,"time":189.1775,"velocity":0.7874015748031497},{"duration":0.06749999999999545,"durationTicks":120,"midi":73,"name":"C#5","ticks":334800,"time":189.245,"velocity":0.7874015748031497},{"duration":0.06750000000002387,"durationTicks":120,"midi":85,"name":"C#6","ticks":334920,"time":189.3125,"velocity":0.7874015748031497},{"duration":0.06750000000002387,"durationTicks":120,"midi":81,"name":"A5","ticks":334920,"time":189.3125,"velocity":0.7874015748031497},{"duration":0.06749999999999545,"durationTicks":120,"midi":85,"name":"C#6","ticks":335040,"time":189.38000000000002,"velocity":0.7874015748031497},{"duration":0.06749999999999545,"durationTicks":120,"midi":81,"name":"A5","ticks":335040,"time":189.38000000000002,"velocity":0.7874015748031497},{"duration":0.06749999999999545,"durationTicks":120,"midi":73,"name":"C#5","ticks":335160,"time":189.44750000000002,"velocity":0.7874015748031497},{"duration":0.06749999999999545,"durationTicks":120,"midi":81,"name":"A5","ticks":335280,"time":189.51500000000001,"velocity":0.7874015748031497},{"duration":0.06749999999999545,"durationTicks":120,"midi":78,"name":"F#5","ticks":335280,"time":189.51500000000001,"velocity":0.7874015748031497},{"duration":0.06749999999999545,"durationTicks":120,"midi":81,"name":"A5","ticks":335400,"time":189.5825,"velocity":0.7874015748031497},{"duration":0.06749999999999545,"durationTicks":120,"midi":78,"name":"F#5","ticks":335400,"time":189.5825,"velocity":0.7874015748031497},{"duration":0.06749999999999545,"durationTicks":120,"midi":73,"name":"C#5","ticks":335520,"time":189.65,"velocity":0.7874015748031497},{"duration":0.06750000000002387,"durationTicks":120,"midi":78,"name":"F#5","ticks":335640,"time":189.7175,"velocity":0.7874015748031497},{"duration":0.06750000000002387,"durationTicks":120,"midi":73,"name":"C#5","ticks":335640,"time":189.7175,"velocity":0.7874015748031497},{"duration":0.06749999999999545,"durationTicks":120,"midi":78,"name":"F#5","ticks":335760,"time":189.78500000000003,"velocity":0.7874015748031497},{"duration":0.06749999999999545,"durationTicks":120,"midi":73,"name":"C#5","ticks":335760,"time":189.78500000000003,"velocity":0.7874015748031497},{"duration":0.06749999999999545,"durationTicks":120,"midi":76,"name":"E5","ticks":336000,"time":189.92000000000002,"velocity":0.7874015748031497},{"duration":0.06749999999999545,"durationTicks":120,"midi":73,"name":"C#5","ticks":336000,"time":189.92000000000002,"velocity":0.7874015748031497},{"duration":0.06749999999999545,"durationTicks":120,"midi":66,"name":"F#4","ticks":336120,"time":189.9875,"velocity":0.7874015748031497},{"duration":0.06749999999999545,"durationTicks":120,"midi":69,"name":"A4","ticks":336240,"time":190.055,"velocity":0.7874015748031497},{"duration":0.06750000000002387,"durationTicks":120,"midi":71,"name":"B4","ticks":336360,"time":190.1225,"velocity":0.7874015748031497},{"duration":0.06749999999999545,"durationTicks":120,"midi":73,"name":"C#5","ticks":336480,"time":190.19000000000003,"velocity":0.7874015748031497},{"duration":0.06749999999999545,"durationTicks":120,"midi":69,"name":"A4","ticks":336600,"time":190.25750000000002,"velocity":0.7874015748031497},{"duration":0.06749999999999545,"durationTicks":120,"midi":73,"name":"C#5","ticks":336720,"time":190.32500000000002,"velocity":0.7874015748031497},{"duration":0.06749999999999545,"durationTicks":120,"midi":74,"name":"D5","ticks":336840,"time":190.3925,"velocity":0.7874015748031497},{"duration":0.06749999999999545,"durationTicks":120,"midi":76,"name":"E5","ticks":336960,"time":190.46,"velocity":0.7874015748031497},{"duration":0.06749999999999545,"durationTicks":120,"midi":73,"name":"C#5","ticks":337080,"time":190.5275,"velocity":0.7874015748031497},{"duration":0.06750000000002387,"durationTicks":120,"midi":74,"name":"D5","ticks":337200,"time":190.595,"velocity":0.7874015748031497},{"duration":0.06749999999999545,"durationTicks":120,"midi":75,"name":"D#5","ticks":337320,"time":190.66250000000002,"velocity":0.7874015748031497},{"duration":0.06749999999999545,"durationTicks":120,"midi":76,"name":"E5","ticks":337440,"time":190.73000000000002,"velocity":0.6929133858267716},{"duration":0.06749999999999545,"durationTicks":120,"midi":81,"name":"A5","ticks":337560,"time":190.7975,"velocity":0.6929133858267716},{"duration":0.06749999999999545,"durationTicks":120,"midi":85,"name":"C#6","ticks":337680,"time":190.865,"velocity":0.6929133858267716},{"duration":0.06749999999999545,"durationTicks":120,"midi":86,"name":"D6","ticks":337800,"time":190.9325,"velocity":0.6929133858267716},{"duration":0.06750000000002387,"durationTicks":120,"midi":88,"name":"E6","ticks":337920,"time":191,"velocity":0.7874015748031497},{"duration":0.06749999999999545,"durationTicks":120,"midi":86,"name":"D6","ticks":338040,"time":191.06750000000002,"velocity":0.7874015748031497},{"duration":0.06749999999999545,"durationTicks":120,"midi":85,"name":"C#6","ticks":338160,"time":191.13500000000002,"velocity":0.7874015748031497},{"duration":0.06749999999999545,"durationTicks":120,"midi":86,"name":"D6","ticks":338280,"time":191.20250000000001,"velocity":0.7874015748031497},{"duration":0.06749999999999545,"durationTicks":120,"midi":88,"name":"E6","ticks":338400,"time":191.27,"velocity":0.7874015748031497},{"duration":0.06749999999999545,"durationTicks":120,"midi":86,"name":"D6","ticks":338520,"time":191.3375,"velocity":0.7874015748031497},{"duration":0.06750000000002387,"durationTicks":120,"midi":85,"name":"C#6","ticks":338640,"time":191.405,"velocity":0.7874015748031497},{"duration":0.06749999999999545,"durationTicks":120,"midi":86,"name":"D6","ticks":338760,"time":191.47250000000003,"velocity":0.7874015748031497},{"duration":0.06749999999999545,"durationTicks":120,"midi":88,"name":"E6","ticks":338880,"time":191.54000000000002,"velocity":0.7874015748031497},{"duration":0.06749999999999545,"durationTicks":120,"midi":86,"name":"D6","ticks":339000,"time":191.60750000000002,"velocity":0.7874015748031497},{"duration":0.06749999999999545,"durationTicks":120,"midi":85,"name":"C#6","ticks":339120,"time":191.675,"velocity":0.7874015748031497},{"duration":0.06749999999999545,"durationTicks":120,"midi":86,"name":"D6","ticks":339240,"time":191.7425,"velocity":0.7874015748031497},{"duration":0.06750000000002387,"durationTicks":120,"midi":88,"name":"E6","ticks":339360,"time":191.81,"velocity":0.7874015748031497},{"duration":0.06749999999999545,"durationTicks":120,"midi":93,"name":"A6","ticks":339480,"time":191.87750000000003,"velocity":0.7874015748031497},{"duration":0.06749999999999545,"durationTicks":120,"midi":92,"name":"G#6","ticks":339600,"time":191.94500000000002,"velocity":0.7874015748031497},{"duration":0.15749999999999886,"durationTicks":280,"midi":93,"name":"A6","ticks":339720,"time":192.01250000000002,"velocity":0.7874015748031497},{"duration":0.13500000000001933,"durationTicks":240,"midi":95,"name":"B6","ticks":340080,"time":192.215,"velocity":0.7874015748031497},{"duration":0.13500000000001933,"durationTicks":240,"midi":85,"name":"C#6","ticks":340080,"time":192.215,"velocity":0.5669291338582677},{"duration":0.1349999999999909,"durationTicks":240,"midi":93,"name":"A6","ticks":340320,"time":192.35000000000002,"velocity":0.7874015748031497},{"duration":0.1349999999999909,"durationTicks":240,"midi":85,"name":"C#6","ticks":340320,"time":192.35000000000002,"velocity":0.5669291338582677},{"duration":0.13500000000001933,"durationTicks":240,"midi":92,"name":"G#6","ticks":340800,"time":192.62,"velocity":0.7874015748031497},{"duration":0.13500000000001933,"durationTicks":240,"midi":85,"name":"C#6","ticks":340800,"time":192.62,"velocity":0.5669291338582677},{"duration":0.1349999999999909,"durationTicks":240,"midi":93,"name":"A6","ticks":341160,"time":192.82250000000002,"velocity":0.7874015748031497},{"duration":0.1349999999999909,"durationTicks":240,"midi":85,"name":"C#6","ticks":341160,"time":192.82250000000002,"velocity":0.5669291338582677},{"duration":0.13500000000001933,"durationTicks":240,"midi":88,"name":"E6","ticks":341520,"time":193.025,"velocity":0.7874015748031497},{"duration":0.13500000000001933,"durationTicks":240,"midi":85,"name":"C#6","ticks":341520,"time":193.025,"velocity":0.5669291338582677},{"duration":0.06749999999999545,"durationTicks":120,"midi":100,"name":"E7","ticks":341760,"time":193.16000000000003,"velocity":0.7874015748031497},{"duration":0.06749999999999545,"durationTicks":120,"midi":93,"name":"A6","ticks":341880,"time":193.22750000000002,"velocity":0.7874015748031497},{"duration":0.06749999999999545,"durationTicks":120,"midi":88,"name":"E6","ticks":342000,"time":193.29500000000002,"velocity":0.7874015748031497},{"duration":0.06749999999999545,"durationTicks":120,"midi":85,"name":"C#6","ticks":342120,"time":193.3625,"velocity":0.6929133858267716},{"duration":0.06749999999999545,"durationTicks":120,"midi":98,"name":"D7","ticks":342240,"time":193.43,"velocity":0.7874015748031497},{"duration":0.06750000000002387,"durationTicks":120,"midi":93,"name":"A6","ticks":342360,"time":193.4975,"velocity":0.7874015748031497},{"duration":0.06749999999999545,"durationTicks":120,"midi":88,"name":"E6","ticks":342480,"time":193.56500000000003,"velocity":0.7874015748031497},{"duration":0.06749999999999545,"durationTicks":120,"midi":85,"name":"C#6","ticks":342600,"time":193.63250000000002,"velocity":0.6929133858267716},{"duration":0.06749999999999545,"durationTicks":120,"midi":97,"name":"C#7","ticks":342720,"time":193.70000000000002,"velocity":0.7874015748031497},{"duration":0.06749999999999545,"durationTicks":120,"midi":93,"name":"A6","ticks":342840,"time":193.7675,"velocity":0.7874015748031497},{"duration":0.06749999999999545,"durationTicks":120,"midi":88,"name":"E6","ticks":342960,"time":193.835,"velocity":0.7874015748031497},{"duration":0.06749999999999545,"durationTicks":120,"midi":85,"name":"C#6","ticks":343080,"time":193.9025,"velocity":0.6929133858267716},{"duration":0.06750000000002387,"durationTicks":120,"midi":98,"name":"D7","ticks":343200,"time":193.97,"velocity":0.7874015748031497},{"duration":0.06749999999999545,"durationTicks":120,"midi":93,"name":"A6","ticks":343320,"time":194.03750000000002,"velocity":0.6929133858267716},{"duration":0.06749999999999545,"durationTicks":120,"midi":88,"name":"E6","ticks":343440,"time":194.10500000000002,"velocity":0.6929133858267716},{"duration":0.06749999999999545,"durationTicks":120,"midi":85,"name":"C#6","ticks":343560,"time":194.1725,"velocity":0.6929133858267716},{"duration":0.06749999999999545,"durationTicks":120,"midi":86,"name":"D6","ticks":343680,"time":194.24,"velocity":0.6929133858267716},{"duration":0.06749999999999545,"durationTicks":120,"midi":85,"name":"C#6","ticks":343800,"time":194.3075,"velocity":0.6929133858267716},{"duration":0.06750000000002387,"durationTicks":120,"midi":93,"name":"A6","ticks":343920,"time":194.375,"velocity":0.6929133858267716},{"duration":0.06749999999999545,"durationTicks":120,"midi":95,"name":"B6","ticks":344040,"time":194.44250000000002,"velocity":0.6929133858267716},{"duration":0.1349999999999909,"durationTicks":240,"midi":93,"name":"A6","ticks":344160,"time":194.51000000000002,"velocity":0.6929133858267716},{"duration":0.06749999999999545,"durationTicks":120,"midi":86,"name":"D6","ticks":344400,"time":194.645,"velocity":0.6929133858267716},{"duration":0.06749999999999545,"durationTicks":120,"midi":90,"name":"F#6","ticks":344520,"time":194.7125,"velocity":0.6929133858267716},{"duration":0.06750000000002387,"durationTicks":120,"midi":93,"name":"A6","ticks":344640,"time":194.78,"velocity":0.6929133858267716},{"duration":0.06749999999999545,"durationTicks":120,"midi":95,"name":"B6","ticks":344760,"time":194.84750000000003,"velocity":0.6929133858267716},{"duration":0.1349999999999909,"durationTicks":240,"midi":93,"name":"A6","ticks":344880,"time":194.91500000000002,"velocity":0.6929133858267716},{"duration":0.06749999999999545,"durationTicks":120,"midi":74,"name":"D5","ticks":345120,"time":195.05,"velocity":0.6929133858267716},{"duration":0.06749999999999545,"durationTicks":120,"midi":78,"name":"F#5","ticks":345240,"time":195.1175,"velocity":0.6929133858267716},{"duration":0.06750000000002387,"durationTicks":120,"midi":81,"name":"A5","ticks":345360,"time":195.185,"velocity":0.6929133858267716},{"duration":0.06749999999999545,"durationTicks":120,"midi":83,"name":"B5","ticks":345480,"time":195.25250000000003,"velocity":0.6929133858267716},{"duration":0.1349999999999909,"durationTicks":240,"midi":81,"name":"A5","ticks":345600,"time":195.32000000000002,"velocity":0.6929133858267716},{"duration":0.06749999999999545,"durationTicks":120,"midi":74,"name":"D5","ticks":345840,"time":195.455,"velocity":0.6929133858267716},{"duration":0.06749999999999545,"durationTicks":120,"midi":78,"name":"F#5","ticks":345960,"time":195.5225,"velocity":0.6929133858267716},{"duration":0.06749999999999545,"durationTicks":120,"midi":81,"name":"A5","ticks":346080,"time":195.59,"velocity":0.6929133858267716},{"duration":0.06750000000002387,"durationTicks":120,"midi":83,"name":"B5","ticks":346200,"time":195.6575,"velocity":0.6929133858267716},{"duration":0.06749999999999545,"durationTicks":120,"midi":86,"name":"D6","ticks":346320,"time":195.72500000000002,"velocity":0.6929133858267716},{"duration":0.06749999999999545,"durationTicks":120,"midi":81,"name":"A5","ticks":346440,"time":195.79250000000002,"velocity":0.6929133858267716},{"duration":0.06749999999999545,"durationTicks":120,"midi":86,"name":"D6","ticks":346560,"time":195.86,"velocity":0.6929133858267716},{"duration":0.06749999999999545,"durationTicks":120,"midi":81,"name":"A5","ticks":346680,"time":195.9275,"velocity":0.6929133858267716},{"duration":0.06749999999999545,"durationTicks":120,"midi":85,"name":"C#6","ticks":346800,"time":195.995,"velocity":0.6929133858267716},{"duration":0.06750000000002387,"durationTicks":120,"midi":86,"name":"D6","ticks":346920,"time":196.0625,"velocity":0.6929133858267716},{"duration":0.06749999999999545,"durationTicks":120,"midi":93,"name":"A6","ticks":347040,"time":196.13000000000002,"velocity":0.6929133858267716},{"duration":0.06749999999999545,"durationTicks":120,"midi":92,"name":"G#6","ticks":347160,"time":196.19750000000002,"velocity":0.6929133858267716},{"duration":0.06749999999999545,"durationTicks":120,"midi":93,"name":"A6","ticks":347280,"time":196.26500000000001,"velocity":0.6929133858267716},{"duration":0.06749999999999545,"durationTicks":120,"midi":95,"name":"B6","ticks":347400,"time":196.3325,"velocity":0.6929133858267716},{"duration":0.06749999999999545,"durationTicks":120,"midi":52,"name":"E3","ticks":347520,"time":196.4,"velocity":0.6929133858267716},{"duration":0.06750000000002387,"durationTicks":120,"midi":56,"name":"G#3","ticks":347640,"time":196.4675,"velocity":0.6929133858267716},{"duration":0.06749999999999545,"durationTicks":120,"midi":59,"name":"B3","ticks":347760,"time":196.53500000000003,"velocity":0.6929133858267716},{"duration":0.06749999999999545,"durationTicks":120,"midi":62,"name":"D4","ticks":347880,"time":196.60250000000002,"velocity":0.6929133858267716},{"duration":0.06749999999999545,"durationTicks":120,"midi":56,"name":"G#3","ticks":348000,"time":196.67000000000002,"velocity":0.6929133858267716},{"duration":0.06749999999999545,"durationTicks":120,"midi":59,"name":"B3","ticks":348120,"time":196.7375,"velocity":0.6929133858267716},{"duration":0.06749999999999545,"durationTicks":120,"midi":62,"name":"D4","ticks":348240,"time":196.805,"velocity":0.6929133858267716},{"duration":0.06750000000002387,"durationTicks":120,"midi":64,"name":"E4","ticks":348360,"time":196.8725,"velocity":0.6929133858267716},{"duration":0.06749999999999545,"durationTicks":120,"midi":59,"name":"B3","ticks":348480,"time":196.94000000000003,"velocity":0.6929133858267716},{"duration":0.06749999999999545,"durationTicks":120,"midi":62,"name":"D4","ticks":348600,"time":197.00750000000002,"velocity":0.6929133858267716},{"duration":0.06749999999999545,"durationTicks":120,"midi":64,"name":"E4","ticks":348720,"time":197.07500000000002,"velocity":0.6929133858267716},{"duration":0.06749999999999545,"durationTicks":120,"midi":68,"name":"G#4","ticks":348840,"time":197.1425,"velocity":0.6929133858267716},{"duration":0.06749999999999545,"durationTicks":120,"midi":62,"name":"D4","ticks":348960,"time":197.21,"velocity":0.6929133858267716},{"duration":0.06749999999999545,"durationTicks":120,"midi":64,"name":"E4","ticks":349080,"time":197.2775,"velocity":0.6929133858267716},{"duration":0.06750000000002387,"durationTicks":120,"midi":68,"name":"G#4","ticks":349200,"time":197.345,"velocity":0.6929133858267716},{"duration":0.06749999999999545,"durationTicks":120,"midi":71,"name":"B4","ticks":349320,"time":197.41250000000002,"velocity":0.6929133858267716},{"duration":0.06749999999999545,"durationTicks":120,"midi":64,"name":"E4","ticks":349440,"time":197.48000000000002,"velocity":0.6929133858267716},{"duration":0.06749999999999545,"durationTicks":120,"midi":68,"name":"G#4","ticks":349560,"time":197.5475,"velocity":0.6929133858267716},{"duration":0.06749999999999545,"durationTicks":120,"midi":71,"name":"B4","ticks":349680,"time":197.615,"velocity":0.6929133858267716},{"duration":0.06749999999999545,"durationTicks":120,"midi":74,"name":"D5","ticks":349800,"time":197.6825,"velocity":0.6929133858267716},{"duration":0.06750000000002387,"durationTicks":120,"midi":80,"name":"G#5","ticks":349920,"time":197.75,"velocity":0.6929133858267716},{"duration":0.06749999999999545,"durationTicks":120,"midi":76,"name":"E5","ticks":350040,"time":197.81750000000002,"velocity":0.6929133858267716},{"duration":0.06749999999999545,"durationTicks":120,"midi":80,"name":"G#5","ticks":350160,"time":197.88500000000002,"velocity":0.6929133858267716},{"duration":0.06749999999999545,"durationTicks":120,"midi":83,"name":"B5","ticks":350280,"time":197.95250000000001,"velocity":0.6929133858267716},{"duration":0.15749999999999886,"durationTicks":280,"midi":88,"name":"E6","ticks":350400,"time":198.02,"velocity":0.6929133858267716},{"duration":0.15749999999999886,"durationTicks":280,"midi":83,"name":"B5","ticks":350400,"time":198.02,"velocity":0.6929133858267716},{"duration":0.1349999999999909,"durationTicks":240,"midi":76,"name":"E5","ticks":350400,"time":198.02,"velocity":0.8188976377952756},{"duration":0.06750000000002387,"durationTicks":120,"midi":64,"name":"E4","ticks":350640,"time":198.155,"velocity":0.6929133858267716},{"duration":0.06749999999999545,"durationTicks":120,"midi":68,"name":"G#4","ticks":350760,"time":198.22250000000003,"velocity":0.6929133858267716},{"duration":0.06749999999999545,"durationTicks":120,"midi":71,"name":"B4","ticks":350880,"time":198.29000000000002,"velocity":0.6929133858267716},{"duration":0.06749999999999545,"durationTicks":120,"midi":68,"name":"G#4","ticks":351000,"time":198.35750000000002,"velocity":0.6929133858267716},{"duration":0.06749999999999545,"durationTicks":120,"midi":71,"name":"B4","ticks":351120,"time":198.425,"velocity":0.6929133858267716},{"duration":0.06749999999999545,"durationTicks":120,"midi":74,"name":"D5","ticks":351240,"time":198.4925,"velocity":0.6929133858267716},{"duration":0.06750000000002387,"durationTicks":120,"midi":53,"name":"F3","ticks":351360,"time":198.56,"velocity":0.6929133858267716},{"duration":0.06749999999999545,"durationTicks":120,"midi":57,"name":"A3","ticks":351480,"time":198.62750000000003,"velocity":0.6929133858267716},{"duration":0.06749999999999545,"durationTicks":120,"midi":60,"name":"C4","ticks":351600,"time":198.69500000000002,"velocity":0.6929133858267716},{"duration":0.06749999999999545,"durationTicks":120,"midi":63,"name":"D#4","ticks":351720,"time":198.76250000000002,"velocity":0.6929133858267716},{"duration":0.06749999999999545,"durationTicks":120,"midi":57,"name":"A3","ticks":351840,"time":198.83,"velocity":0.6929133858267716},{"duration":0.06749999999999545,"durationTicks":120,"midi":60,"name":"C4","ticks":351960,"time":198.8975,"velocity":0.6929133858267716},{"duration":0.06749999999999545,"durationTicks":120,"midi":63,"name":"D#4","ticks":352080,"time":198.965,"velocity":0.6929133858267716},{"duration":0.06750000000002387,"durationTicks":120,"midi":65,"name":"F4","ticks":352200,"time":199.0325,"velocity":0.6929133858267716},{"duration":0.06749999999999545,"durationTicks":120,"midi":60,"name":"C4","ticks":352320,"time":199.10000000000002,"velocity":0.6929133858267716},{"duration":0.06749999999999545,"durationTicks":120,"midi":63,"name":"D#4","ticks":352440,"time":199.16750000000002,"velocity":0.6929133858267716},{"duration":0.06749999999999545,"durationTicks":120,"midi":65,"name":"F4","ticks":352560,"time":199.235,"velocity":0.6929133858267716},{"duration":0.06749999999999545,"durationTicks":120,"midi":69,"name":"A4","ticks":352680,"time":199.3025,"velocity":0.6929133858267716},{"duration":0.06749999999999545,"durationTicks":120,"midi":63,"name":"D#4","ticks":352800,"time":199.37,"velocity":0.6929133858267716},{"duration":0.06750000000002387,"durationTicks":120,"midi":65,"name":"F4","ticks":352920,"time":199.4375,"velocity":0.6929133858267716},{"duration":0.06749999999999545,"durationTicks":120,"midi":69,"name":"A4","ticks":353040,"time":199.50500000000002,"velocity":0.6929133858267716},{"duration":0.06749999999999545,"durationTicks":120,"midi":72,"name":"C5","ticks":353160,"time":199.57250000000002,"velocity":0.6929133858267716},{"duration":0.06749999999999545,"durationTicks":120,"midi":65,"name":"F4","ticks":353280,"time":199.64000000000001,"velocity":0.6929133858267716},{"duration":0.06749999999999545,"durationTicks":120,"midi":69,"name":"A4","ticks":353400,"time":199.7075,"velocity":0.6929133858267716},{"duration":0.06749999999999545,"durationTicks":120,"midi":72,"name":"C5","ticks":353520,"time":199.775,"velocity":0.6929133858267716},{"duration":0.06750000000002387,"durationTicks":120,"midi":75,"name":"D#5","ticks":353640,"time":199.8425,"velocity":0.6929133858267716},{"duration":0.06749999999999545,"durationTicks":120,"midi":77,"name":"F5","ticks":353760,"time":199.91000000000003,"velocity":0.6929133858267716},{"duration":0.06749999999999545,"durationTicks":120,"midi":81,"name":"A5","ticks":353880,"time":199.97750000000002,"velocity":0.6929133858267716},{"duration":0.06749999999999545,"durationTicks":120,"midi":84,"name":"C6","ticks":354000,"time":200.04500000000002,"velocity":0.6929133858267716},{"duration":0.06749999999999545,"durationTicks":120,"midi":87,"name":"D#6","ticks":354120,"time":200.1125,"velocity":0.6929133858267716},{"duration":0.13500000000001933,"durationTicks":240,"midi":89,"name":"F6","ticks":354240,"time":200.18,"velocity":0.6929133858267716},{"duration":0.13500000000001933,"durationTicks":240,"midi":84,"name":"C6","ticks":354240,"time":200.18,"velocity":0.6929133858267716},{"duration":0.13500000000001933,"durationTicks":240,"midi":77,"name":"F5","ticks":354240,"time":200.18,"velocity":0.8188976377952756},{"duration":0.06749999999999545,"durationTicks":120,"midi":65,"name":"F4","ticks":354480,"time":200.31500000000003,"velocity":0.6929133858267716},{"duration":0.06749999999999545,"durationTicks":120,"midi":69,"name":"A4","ticks":354600,"time":200.38250000000002,"velocity":0.6929133858267716},{"duration":0.06749999999999545,"durationTicks":120,"midi":72,"name":"C5","ticks":354720,"time":200.45000000000002,"velocity":0.6929133858267716},{"duration":0.06749999999999545,"durationTicks":120,"midi":69,"name":"A4","ticks":354840,"time":200.5175,"velocity":0.6929133858267716},{"duration":0.06749999999999545,"durationTicks":120,"midi":72,"name":"C5","ticks":354960,"time":200.585,"velocity":0.6929133858267716},{"duration":0.06750000000002387,"durationTicks":120,"midi":75,"name":"D#5","ticks":355080,"time":200.6525,"velocity":0.6929133858267716},{"duration":0.06749999999999545,"durationTicks":120,"midi":89,"name":"F6","ticks":355200,"time":200.72000000000003,"velocity":0.7874015748031497},{"duration":0.06749999999999545,"durationTicks":120,"midi":86,"name":"D6","ticks":355320,"time":200.78750000000002,"velocity":0.7874015748031497},{"duration":0.06749999999999545,"durationTicks":120,"midi":82,"name":"A#5","ticks":355440,"time":200.85500000000002,"velocity":0.7874015748031497},{"duration":0.06749999999999545,"durationTicks":120,"midi":89,"name":"F6","ticks":355560,"time":200.9225,"velocity":0.7874015748031497},{"duration":0.06749999999999545,"durationTicks":120,"midi":86,"name":"D6","ticks":355680,"time":200.99,"velocity":0.7874015748031497},{"duration":0.06749999999999545,"durationTicks":120,"midi":82,"name":"A#5","ticks":355800,"time":201.0575,"velocity":0.7874015748031497},{"duration":0.06750000000002387,"durationTicks":120,"midi":89,"name":"F6","ticks":355920,"time":201.125,"velocity":0.7874015748031497},{"duration":0.06749999999999545,"durationTicks":120,"midi":86,"name":"D6","ticks":356040,"time":201.19250000000002,"velocity":0.7874015748031497},{"duration":0.06749999999999545,"durationTicks":120,"midi":82,"name":"A#5","ticks":356160,"time":201.26000000000002,"velocity":0.7874015748031497},{"duration":0.06749999999999545,"durationTicks":120,"midi":87,"name":"D#6","ticks":356280,"time":201.32750000000001,"velocity":0.7874015748031497},{"duration":0.06749999999999545,"durationTicks":120,"midi":82,"name":"A#5","ticks":356400,"time":201.395,"velocity":0.7874015748031497},{"duration":0.06749999999999545,"durationTicks":120,"midi":82,"name":"A#5","ticks":356520,"time":201.4625,"velocity":0.7874015748031497},{"duration":0.06750000000002387,"durationTicks":120,"midi":87,"name":"D#6","ticks":356640,"time":201.53,"velocity":0.7874015748031497},{"duration":0.06749999999999545,"durationTicks":120,"midi":82,"name":"A#5","ticks":356760,"time":201.59750000000003,"velocity":0.7874015748031497},{"duration":0.06749999999999545,"durationTicks":120,"midi":87,"name":"D#6","ticks":356880,"time":201.66500000000002,"velocity":0.7874015748031497},{"duration":0.06749999999999545,"durationTicks":120,"midi":82,"name":"A#5","ticks":357000,"time":201.73250000000002,"velocity":0.7874015748031497},{"duration":0.06749999999999545,"durationTicks":120,"midi":86,"name":"D6","ticks":357120,"time":201.8,"velocity":0.7874015748031497},{"duration":0.06749999999999545,"durationTicks":120,"midi":82,"name":"A#5","ticks":357240,"time":201.8675,"velocity":0.7874015748031497},{"duration":0.06750000000002387,"durationTicks":120,"midi":77,"name":"F5","ticks":357360,"time":201.935,"velocity":0.7874015748031497},{"duration":0.06749999999999545,"durationTicks":120,"midi":86,"name":"D6","ticks":357480,"time":202.00250000000003,"velocity":0.7874015748031497},{"duration":0.06749999999999545,"durationTicks":120,"midi":82,"name":"A#5","ticks":357600,"time":202.07000000000002,"velocity":0.7874015748031497},{"duration":0.06749999999999545,"durationTicks":120,"midi":77,"name":"F5","ticks":357720,"time":202.13750000000002,"velocity":0.7874015748031497},{"duration":0.06749999999999545,"durationTicks":120,"midi":86,"name":"D6","ticks":357840,"time":202.205,"velocity":0.7874015748031497},{"duration":0.06749999999999545,"durationTicks":120,"midi":82,"name":"A#5","ticks":357960,"time":202.2725,"velocity":0.7874015748031497},{"duration":0.06750000000002387,"durationTicks":120,"midi":77,"name":"F5","ticks":358080,"time":202.34,"velocity":0.7874015748031497},{"duration":0.06749999999999545,"durationTicks":120,"midi":81,"name":"A5","ticks":358200,"time":202.40750000000003,"velocity":0.7874015748031497},{"duration":0.06749999999999545,"durationTicks":120,"midi":77,"name":"F5","ticks":358320,"time":202.47500000000002,"velocity":0.7874015748031497},{"duration":0.06749999999999545,"durationTicks":120,"midi":77,"name":"F5","ticks":358440,"time":202.54250000000002,"velocity":0.7874015748031497},{"duration":0.06749999999999545,"durationTicks":120,"midi":81,"name":"A5","ticks":358560,"time":202.61,"velocity":0.7874015748031497},{"duration":0.06749999999999545,"durationTicks":120,"midi":77,"name":"F5","ticks":358680,"time":202.6775,"velocity":0.7874015748031497},{"duration":0.06749999999999545,"durationTicks":120,"midi":81,"name":"A5","ticks":358800,"time":202.745,"velocity":0.7874015748031497},{"duration":0.06750000000002387,"durationTicks":120,"midi":77,"name":"F5","ticks":358920,"time":202.8125,"velocity":0.7874015748031497},{"duration":0.06749999999999545,"durationTicks":120,"midi":84,"name":"C6","ticks":359040,"time":202.88000000000002,"velocity":0.7874015748031497},{"duration":0.06749999999999545,"durationTicks":120,"midi":79,"name":"G5","ticks":359160,"time":202.94750000000002,"velocity":0.7874015748031497},{"duration":0.06749999999999545,"durationTicks":120,"midi":74,"name":"D5","ticks":359280,"time":203.01500000000001,"velocity":0.7874015748031497},{"duration":0.06749999999999545,"durationTicks":120,"midi":84,"name":"C6","ticks":359400,"time":203.0825,"velocity":0.7874015748031497},{"duration":0.06749999999999545,"durationTicks":120,"midi":79,"name":"G5","ticks":359520,"time":203.15,"velocity":0.7874015748031497},{"duration":0.06750000000002387,"durationTicks":120,"midi":74,"name":"D5","ticks":359640,"time":203.2175,"velocity":0.7874015748031497},{"duration":0.06749999999999545,"durationTicks":120,"midi":84,"name":"C6","ticks":359760,"time":203.28500000000003,"velocity":0.7874015748031497},{"duration":0.06749999999999545,"durationTicks":120,"midi":79,"name":"G5","ticks":359880,"time":203.35250000000002,"velocity":0.7874015748031497},{"duration":0.06749999999999545,"durationTicks":120,"midi":74,"name":"D5","ticks":360000,"time":203.42000000000002,"velocity":0.7874015748031497},{"duration":0.06749999999999545,"durationTicks":120,"midi":82,"name":"A#5","ticks":360120,"time":203.4875,"velocity":0.7874015748031497},{"duration":0.06749999999999545,"durationTicks":120,"midi":74,"name":"D5","ticks":360240,"time":203.555,"velocity":0.7874015748031497},{"duration":0.06750000000002387,"durationTicks":120,"midi":74,"name":"D5","ticks":360360,"time":203.6225,"velocity":0.7874015748031497},{"duration":0.06749999999999545,"durationTicks":120,"midi":82,"name":"A#5","ticks":360480,"time":203.69000000000003,"velocity":0.7874015748031497},{"duration":0.06749999999999545,"durationTicks":120,"midi":74,"name":"D5","ticks":360600,"time":203.75750000000002,"velocity":0.7874015748031497},{"duration":0.06749999999999545,"durationTicks":120,"midi":82,"name":"A#5","ticks":360720,"time":203.82500000000002,"velocity":0.7874015748031497},{"duration":0.06749999999999545,"durationTicks":120,"midi":74,"name":"D5","ticks":360840,"time":203.8925,"velocity":0.7874015748031497},{"duration":0.06749999999999545,"durationTicks":120,"midi":81,"name":"A5","ticks":360960,"time":203.96,"velocity":0.7874015748031497},{"duration":0.06750000000002387,"durationTicks":120,"midi":79,"name":"G5","ticks":361080,"time":204.0275,"velocity":0.7874015748031497},{"duration":0.06749999999999545,"durationTicks":120,"midi":74,"name":"D5","ticks":361200,"time":204.09500000000003,"velocity":0.7874015748031497},{"duration":0.06749999999999545,"durationTicks":120,"midi":81,"name":"A5","ticks":361320,"time":204.16250000000002,"velocity":0.7874015748031497},{"duration":0.06749999999999545,"durationTicks":120,"midi":79,"name":"G5","ticks":361440,"time":204.23000000000002,"velocity":0.7874015748031497},{"duration":0.06749999999999545,"durationTicks":120,"midi":74,"name":"D5","ticks":361560,"time":204.2975,"velocity":0.7874015748031497},{"duration":0.06749999999999545,"durationTicks":120,"midi":82,"name":"A#5","ticks":361680,"time":204.365,"velocity":0.7874015748031497},{"duration":0.06749999999999545,"durationTicks":120,"midi":79,"name":"G5","ticks":361800,"time":204.4325,"velocity":0.7874015748031497},{"duration":0.13500000000001933,"durationTicks":240,"midi":84,"name":"C6","ticks":361920,"time":204.5,"velocity":0.7874015748031497},{"duration":0.06749999999999545,"durationTicks":120,"midi":77,"name":"F5","ticks":362040,"time":204.56750000000002,"velocity":0.6929133858267716},{"duration":0.1349999999999909,"durationTicks":240,"midi":86,"name":"D6","ticks":362160,"time":204.63500000000002,"velocity":0.7874015748031497},{"duration":0.06749999999999545,"durationTicks":120,"midi":77,"name":"F5","ticks":362280,"time":204.70250000000001,"velocity":0.6929133858267716},{"duration":0.1349999999999909,"durationTicks":240,"midi":87,"name":"D#6","ticks":362400,"time":204.77,"velocity":0.7874015748031497},{"duration":0.06749999999999545,"durationTicks":120,"midi":77,"name":"F5","ticks":362520,"time":204.8375,"velocity":0.6929133858267716},{"duration":0.13500000000001933,"durationTicks":240,"midi":89,"name":"F6","ticks":362640,"time":204.905,"velocity":0.7874015748031497},{"duration":0.06749999999999545,"durationTicks":120,"midi":77,"name":"F5","ticks":362760,"time":204.97250000000003,"velocity":0.6929133858267716},{"duration":0.06749999999999545,"durationTicks":120,"midi":91,"name":"G6","ticks":362880,"time":205.04000000000002,"velocity":0.7874015748031497},{"duration":0.06749999999999545,"durationTicks":120,"midi":87,"name":"D#6","ticks":363000,"time":205.10750000000002,"velocity":0.7874015748031497},{"duration":0.06749999999999545,"durationTicks":120,"midi":82,"name":"A#5","ticks":363120,"time":205.175,"velocity":0.7874015748031497},{"duration":0.06749999999999545,"durationTicks":120,"midi":91,"name":"G6","ticks":363240,"time":205.2425,"velocity":0.7874015748031497},{"duration":0.06750000000002387,"durationTicks":120,"midi":87,"name":"D#6","ticks":363360,"time":205.31,"velocity":0.7874015748031497},{"duration":0.06749999999999545,"durationTicks":120,"midi":82,"name":"A#5","ticks":363480,"time":205.37750000000003,"velocity":0.7874015748031497},{"duration":0.06749999999999545,"durationTicks":120,"midi":91,"name":"G6","ticks":363600,"time":205.44500000000002,"velocity":0.7874015748031497},{"duration":0.06749999999999545,"durationTicks":120,"midi":87,"name":"D#6","ticks":363720,"time":205.51250000000002,"velocity":0.7874015748031497},{"duration":0.06749999999999545,"durationTicks":120,"midi":93,"name":"A6","ticks":363840,"time":205.58,"velocity":0.7874015748031497},{"duration":0.06749999999999545,"durationTicks":120,"midi":87,"name":"D#6","ticks":363960,"time":205.6475,"velocity":0.7874015748031497},{"duration":0.06750000000002387,"durationTicks":120,"midi":93,"name":"A6","ticks":364080,"time":205.715,"velocity":0.7874015748031497},{"duration":0.06749999999999545,"durationTicks":120,"midi":94,"name":"A#6","ticks":364320,"time":205.85000000000002,"velocity":0.7874015748031497},{"duration":0.06749999999999545,"durationTicks":120,"midi":87,"name":"D#6","ticks":364440,"time":205.91750000000002,"velocity":0.7874015748031497},{"duration":0.06749999999999545,"durationTicks":120,"midi":94,"name":"A#6","ticks":364560,"time":205.985,"velocity":0.7874015748031497},{"duration":0.06749999999999545,"durationTicks":120,"midi":96,"name":"C7","ticks":364800,"time":206.12,"velocity":0.7874015748031497},{"duration":0.06750000000002387,"durationTicks":120,"midi":87,"name":"D#6","ticks":364920,"time":206.1875,"velocity":0.7874015748031497},{"duration":0.06749999999999545,"durationTicks":120,"midi":96,"name":"C7","ticks":365040,"time":206.25500000000002,"velocity":0.7874015748031497},{"duration":0.06749999999999545,"durationTicks":120,"midi":94,"name":"A#6","ticks":365280,"time":206.39000000000001,"velocity":0.7874015748031497},{"duration":0.06749999999999545,"durationTicks":120,"midi":87,"name":"D#6","ticks":365400,"time":206.4575,"velocity":0.7874015748031497},{"duration":0.06749999999999545,"durationTicks":120,"midi":94,"name":"A#6","ticks":365520,"time":206.525,"velocity":0.7874015748031497},{"duration":0.06749999999999545,"durationTicks":120,"midi":93,"name":"A6","ticks":365760,"time":206.66000000000003,"velocity":0.7874015748031497},{"duration":0.06749999999999545,"durationTicks":120,"midi":87,"name":"D#6","ticks":365880,"time":206.72750000000002,"velocity":0.7874015748031497},{"duration":0.06749999999999545,"durationTicks":120,"midi":93,"name":"A6","ticks":366000,"time":206.79500000000002,"velocity":0.7874015748031497},{"duration":0.06749999999999545,"durationTicks":120,"midi":91,"name":"G6","ticks":366240,"time":206.93,"velocity":0.7874015748031497},{"duration":0.06750000000002387,"durationTicks":120,"midi":87,"name":"D#6","ticks":366360,"time":206.9975,"velocity":0.7874015748031497},{"duration":0.06749999999999545,"durationTicks":120,"midi":91,"name":"G6","ticks":366480,"time":207.06500000000003,"velocity":0.7874015748031497},{"duration":0.06749999999999545,"durationTicks":120,"midi":91,"name":"G6","ticks":366720,"time":207.20000000000002,"velocity":0.7874015748031497},{"duration":0.06749999999999545,"durationTicks":120,"midi":86,"name":"D6","ticks":366840,"time":207.2675,"velocity":0.7874015748031497},{"duration":0.06749999999999545,"durationTicks":120,"midi":91,"name":"G6","ticks":366960,"time":207.335,"velocity":0.7874015748031497},{"duration":0.06749999999999545,"durationTicks":120,"midi":89,"name":"F6","ticks":367200,"time":207.47000000000003,"velocity":0.7874015748031497},{"duration":0.06749999999999545,"durationTicks":120,"midi":86,"name":"D6","ticks":367320,"time":207.53750000000002,"velocity":0.7874015748031497},{"duration":0.06749999999999545,"durationTicks":120,"midi":89,"name":"F6","ticks":367440,"time":207.60500000000002,"velocity":0.7874015748031497},{"duration":0.06749999999999545,"durationTicks":120,"midi":88,"name":"E6","ticks":367680,"time":207.74,"velocity":0.7874015748031497},{"duration":0.06749999999999545,"durationTicks":120,"midi":86,"name":"D6","ticks":367800,"time":207.8075,"velocity":0.7874015748031497},{"duration":0.06750000000002387,"durationTicks":120,"midi":88,"name":"E6","ticks":367920,"time":207.875,"velocity":0.7874015748031497},{"duration":0.06749999999999545,"durationTicks":120,"midi":91,"name":"G6","ticks":368160,"time":208.01000000000002,"velocity":0.7874015748031497},{"duration":0.06749999999999545,"durationTicks":120,"midi":86,"name":"D6","ticks":368280,"time":208.07750000000001,"velocity":0.7874015748031497},{"duration":0.06749999999999545,"durationTicks":120,"midi":91,"name":"G6","ticks":368400,"time":208.145,"velocity":0.7874015748031497},{"duration":0.06750000000002387,"durationTicks":120,"midi":89,"name":"F6","ticks":368640,"time":208.28,"velocity":0.7874015748031497},{"duration":0.06749999999999545,"durationTicks":120,"midi":86,"name":"D6","ticks":368760,"time":208.34750000000003,"velocity":0.7874015748031497},{"duration":0.06749999999999545,"durationTicks":120,"midi":82,"name":"A#5","ticks":368880,"time":208.41500000000002,"velocity":0.7874015748031497},{"duration":0.06749999999999545,"durationTicks":120,"midi":89,"name":"F6","ticks":369000,"time":208.48250000000002,"velocity":0.7874015748031497},{"duration":0.06749999999999545,"durationTicks":120,"midi":86,"name":"D6","ticks":369120,"time":208.55,"velocity":0.7874015748031497},{"duration":0.06749999999999545,"durationTicks":120,"midi":82,"name":"A#5","ticks":369240,"time":208.6175,"velocity":0.7874015748031497},{"duration":0.06750000000002387,"durationTicks":120,"midi":89,"name":"F6","ticks":369360,"time":208.685,"velocity":0.7874015748031497},{"duration":0.06749999999999545,"durationTicks":120,"midi":86,"name":"D6","ticks":369480,"time":208.75250000000003,"velocity":0.7874015748031497},{"duration":0.06749999999999545,"durationTicks":120,"midi":82,"name":"A#5","ticks":369600,"time":208.82000000000002,"velocity":0.7874015748031497},{"duration":0.06749999999999545,"durationTicks":120,"midi":86,"name":"D6","ticks":369720,"time":208.88750000000002,"velocity":0.7874015748031497},{"duration":0.06749999999999545,"durationTicks":120,"midi":82,"name":"A#5","ticks":369840,"time":208.955,"velocity":0.7874015748031497},{"duration":0.06749999999999545,"durationTicks":120,"midi":82,"name":"A#5","ticks":369960,"time":209.0225,"velocity":0.7874015748031497},{"duration":0.06750000000002387,"durationTicks":120,"midi":86,"name":"D6","ticks":370080,"time":209.09,"velocity":0.7874015748031497},{"duration":0.06749999999999545,"durationTicks":120,"midi":82,"name":"A#5","ticks":370200,"time":209.15750000000003,"velocity":0.7874015748031497},{"duration":0.06749999999999545,"durationTicks":120,"midi":86,"name":"D6","ticks":370320,"time":209.22500000000002,"velocity":0.7874015748031497},{"duration":0.06749999999999545,"durationTicks":120,"midi":82,"name":"A#5","ticks":370440,"time":209.29250000000002,"velocity":0.7874015748031497},{"duration":0.06749999999999545,"durationTicks":120,"midi":87,"name":"D#6","ticks":370560,"time":209.36,"velocity":0.7874015748031497},{"duration":0.06749999999999545,"durationTicks":120,"midi":82,"name":"A#5","ticks":370680,"time":209.4275,"velocity":0.7874015748031497},{"duration":0.06749999999999545,"durationTicks":120,"midi":87,"name":"D#6","ticks":370800,"time":209.495,"velocity":0.7874015748031497},{"duration":0.06749999999999545,"durationTicks":120,"midi":89,"name":"F6","ticks":371040,"time":209.63000000000002,"velocity":0.7874015748031497},{"duration":0.06749999999999545,"durationTicks":120,"midi":82,"name":"A#5","ticks":371160,"time":209.69750000000002,"velocity":0.7874015748031497},{"duration":0.06749999999999545,"durationTicks":120,"midi":89,"name":"F6","ticks":371280,"time":209.76500000000001,"velocity":0.7874015748031497},{"duration":0.06749999999999545,"durationTicks":120,"midi":91,"name":"G6","ticks":371520,"time":209.9,"velocity":0.7874015748031497},{"duration":0.06750000000002387,"durationTicks":120,"midi":82,"name":"A#5","ticks":371640,"time":209.9675,"velocity":0.7874015748031497},{"duration":0.06749999999999545,"durationTicks":120,"midi":91,"name":"G6","ticks":371760,"time":210.03500000000003,"velocity":0.7874015748031497},{"duration":0.06749999999999545,"durationTicks":120,"midi":94,"name":"A#6","ticks":372000,"time":210.17000000000002,"velocity":0.7874015748031497},{"duration":0.06749999999999545,"durationTicks":120,"midi":82,"name":"A#5","ticks":372120,"time":210.2375,"velocity":0.7874015748031497},{"duration":0.06749999999999545,"durationTicks":120,"midi":94,"name":"A#6","ticks":372240,"time":210.305,"velocity":0.7874015748031497},{"duration":0.09000000000000341,"durationTicks":160,"midi":93,"name":"A6","ticks":372480,"time":210.44000000000003,"velocity":0.7874015748031497},{"duration":0.08999999999997499,"durationTicks":160,"midi":94,"name":"A#6","ticks":372640,"time":210.53000000000003,"velocity":0.7874015748031497},{"duration":0.09000000000000341,"durationTicks":160,"midi":93,"name":"A6","ticks":372800,"time":210.62,"velocity":0.7874015748031497},{"duration":0.27000000000001023,"durationTicks":480,"midi":91,"name":"G6","ticks":372960,"time":210.71,"velocity":0.7874015748031497},{"duration":0.06749999999999545,"durationTicks":120,"midi":89,"name":"F6","ticks":373440,"time":210.98000000000002,"velocity":0.7874015748031497},{"duration":0.06749999999999545,"durationTicks":120,"midi":82,"name":"A#5","ticks":373560,"time":211.0475,"velocity":0.7874015748031497},{"duration":0.06749999999999545,"durationTicks":120,"midi":89,"name":"F6","ticks":373680,"time":211.115,"velocity":0.7874015748031497},{"duration":0.06750000000002387,"durationTicks":120,"midi":86,"name":"D6","ticks":373920,"time":211.25,"velocity":0.7874015748031497},{"duration":0.06749999999999545,"durationTicks":120,"midi":82,"name":"A#5","ticks":374040,"time":211.31750000000002,"velocity":0.7874015748031497},{"duration":0.06749999999999545,"durationTicks":120,"midi":87,"name":"D#6","ticks":374160,"time":211.38500000000002,"velocity":0.7874015748031497},{"duration":0.06749999999999545,"durationTicks":120,"midi":86,"name":"D6","ticks":374400,"time":211.52,"velocity":0.7874015748031497},{"duration":0.06749999999999545,"durationTicks":120,"midi":78,"name":"F#5","ticks":374520,"time":211.5875,"velocity":0.7874015748031497},{"duration":0.06750000000002387,"durationTicks":120,"midi":86,"name":"D6","ticks":374640,"time":211.655,"velocity":0.7874015748031497},{"duration":0.06749999999999545,"durationTicks":120,"midi":90,"name":"F#6","ticks":374880,"time":211.79000000000002,"velocity":0.7874015748031497},{"duration":0.06749999999999545,"durationTicks":120,"midi":78,"name":"F#5","ticks":375000,"time":211.85750000000002,"velocity":0.7874015748031497},{"duration":0.06749999999999545,"durationTicks":120,"midi":90,"name":"F#6","ticks":375120,"time":211.925,"velocity":0.7874015748031497},{"duration":0.06750000000002387,"durationTicks":120,"midi":93,"name":"A6","ticks":375360,"time":212.06,"velocity":0.7874015748031497},{"duration":0.06749999999999545,"durationTicks":120,"midi":78,"name":"F#5","ticks":375480,"time":212.12750000000003,"velocity":0.7874015748031497},{"duration":0.06749999999999545,"durationTicks":120,"midi":93,"name":"A6","ticks":375600,"time":212.19500000000002,"velocity":0.7874015748031497},{"duration":0.06749999999999545,"durationTicks":120,"midi":86,"name":"D6","ticks":375840,"time":212.33,"velocity":0.7874015748031497},{"duration":0.06749999999999545,"durationTicks":120,"midi":78,"name":"F#5","ticks":375960,"time":212.3975,"velocity":0.7874015748031497},{"duration":0.06750000000002387,"durationTicks":120,"midi":86,"name":"D6","ticks":376080,"time":212.465,"velocity":0.7874015748031497},{"duration":0.06749999999999545,"durationTicks":120,"midi":96,"name":"C7","ticks":376320,"time":212.60000000000002,"velocity":0.7874015748031497},{"duration":0.06749999999999545,"durationTicks":120,"midi":91,"name":"G6","ticks":376440,"time":212.66750000000002,"velocity":0.7874015748031497},{"duration":0.06749999999999545,"durationTicks":120,"midi":96,"name":"C7","ticks":376560,"time":212.735,"velocity":0.7874015748031497},{"duration":0.06749999999999545,"durationTicks":120,"midi":94,"name":"A#6","ticks":376800,"time":212.87,"velocity":0.7874015748031497},{"duration":0.06750000000002387,"durationTicks":120,"midi":91,"name":"G6","ticks":376920,"time":212.9375,"velocity":0.7874015748031497},{"duration":0.06749999999999545,"durationTicks":120,"midi":94,"name":"A#6","ticks":377040,"time":213.00500000000002,"velocity":0.7874015748031497},{"duration":0.06749999999999545,"durationTicks":120,"midi":93,"name":"A6","ticks":377280,"time":213.14000000000001,"velocity":0.7874015748031497},{"duration":0.06749999999999545,"durationTicks":120,"midi":91,"name":"G6","ticks":377400,"time":213.2075,"velocity":0.7874015748031497},{"duration":0.06749999999999545,"durationTicks":120,"midi":93,"name":"A6","ticks":377520,"time":213.275,"velocity":0.7874015748031497},{"duration":0.06749999999999545,"durationTicks":120,"midi":94,"name":"A#6","ticks":377760,"time":213.41000000000003,"velocity":0.7874015748031497},{"duration":0.06749999999999545,"durationTicks":120,"midi":91,"name":"G6","ticks":377880,"time":213.47750000000002,"velocity":0.7874015748031497},{"duration":0.06749999999999545,"durationTicks":120,"midi":94,"name":"A#6","ticks":378000,"time":213.54500000000002,"velocity":0.7874015748031497},{"duration":0.06749999999999545,"durationTicks":120,"midi":98,"name":"D7","ticks":378240,"time":213.68,"velocity":0.7874015748031497},{"duration":0.06750000000002387,"durationTicks":120,"midi":94,"name":"A#6","ticks":378360,"time":213.7475,"velocity":0.7874015748031497},{"duration":0.06749999999999545,"durationTicks":120,"midi":91,"name":"G6","ticks":378480,"time":213.81500000000003,"velocity":0.7874015748031497},{"duration":0.06749999999999545,"durationTicks":120,"midi":98,"name":"D7","ticks":378600,"time":213.88250000000002,"velocity":0.7874015748031497},{"duration":0.06749999999999545,"durationTicks":120,"midi":94,"name":"A#6","ticks":378720,"time":213.95000000000002,"velocity":0.7874015748031497},{"duration":0.06749999999999545,"durationTicks":120,"midi":91,"name":"G6","ticks":378840,"time":214.0175,"velocity":0.7874015748031497},{"duration":0.06749999999999545,"durationTicks":120,"midi":98,"name":"D7","ticks":378960,"time":214.085,"velocity":0.7874015748031497},{"duration":0.06750000000002387,"durationTicks":120,"midi":94,"name":"A#6","ticks":379080,"time":214.1525,"velocity":0.7874015748031497},{"duration":0.06749999999999545,"durationTicks":120,"midi":91,"name":"G6","ticks":379200,"time":214.22000000000003,"velocity":0.7874015748031497},{"duration":0.06749999999999545,"durationTicks":120,"midi":94,"name":"A#6","ticks":379320,"time":214.28750000000002,"velocity":0.7874015748031497},{"duration":0.06749999999999545,"durationTicks":120,"midi":91,"name":"G6","ticks":379440,"time":214.35500000000002,"velocity":0.7874015748031497},{"duration":0.06749999999999545,"durationTicks":120,"midi":91,"name":"G6","ticks":379560,"time":214.4225,"velocity":0.7874015748031497},{"duration":0.06749999999999545,"durationTicks":120,"midi":94,"name":"A#6","ticks":379680,"time":214.49,"velocity":0.6929133858267716},{"duration":0.06749999999999545,"durationTicks":120,"midi":91,"name":"G6","ticks":379800,"time":214.5575,"velocity":0.6929133858267716},{"duration":0.06750000000002387,"durationTicks":120,"midi":94,"name":"A#6","ticks":379920,"time":214.625,"velocity":0.6929133858267716},{"duration":0.06749999999999545,"durationTicks":120,"midi":96,"name":"C7","ticks":380040,"time":214.69250000000002,"velocity":0.7874015748031497},{"duration":0.06749999999999545,"durationTicks":120,"midi":98,"name":"D7","ticks":380160,"time":214.76000000000002,"velocity":0.7874015748031497},{"duration":0.06749999999999545,"durationTicks":120,"midi":94,"name":"A#6","ticks":380280,"time":214.82750000000001,"velocity":0.7874015748031497},{"duration":0.06749999999999545,"durationTicks":120,"midi":98,"name":"D7","ticks":380400,"time":214.895,"velocity":0.7874015748031497},{"duration":0.06749999999999545,"durationTicks":120,"midi":94,"name":"A#6","ticks":380520,"time":214.9625,"velocity":0.7874015748031497},{"duration":0.06750000000002387,"durationTicks":120,"midi":91,"name":"G6","ticks":380640,"time":215.03,"velocity":0.7874015748031497},{"duration":0.06749999999999545,"durationTicks":120,"midi":88,"name":"E6","ticks":380760,"time":215.09750000000003,"velocity":0.7874015748031497},{"duration":0.06749999999999545,"durationTicks":120,"midi":91,"name":"G6","ticks":380880,"time":215.16500000000002,"velocity":0.7874015748031497},{"duration":0.06749999999999545,"durationTicks":120,"midi":88,"name":"E6","ticks":381000,"time":215.23250000000002,"velocity":0.7874015748031497},{"duration":0.06749999999999545,"durationTicks":120,"midi":98,"name":"D7","ticks":381120,"time":215.3,"velocity":0.7874015748031497},{"duration":0.06749999999999545,"durationTicks":120,"midi":94,"name":"A#6","ticks":381240,"time":215.3675,"velocity":0.7874015748031497},{"duration":0.06750000000002387,"durationTicks":120,"midi":91,"name":"G6","ticks":381360,"time":215.435,"velocity":0.7874015748031497},{"duration":0.06749999999999545,"durationTicks":120,"midi":99,"name":"D#7","ticks":381480,"time":215.50250000000003,"velocity":0.7874015748031497},{"duration":0.06749999999999545,"durationTicks":120,"midi":94,"name":"A#6","ticks":381600,"time":215.57000000000002,"velocity":0.7874015748031497},{"duration":0.06749999999999545,"durationTicks":120,"midi":91,"name":"G6","ticks":381720,"time":215.63750000000002,"velocity":0.7874015748031497},{"duration":0.06749999999999545,"durationTicks":120,"midi":94,"name":"A#6","ticks":381840,"time":215.705,"velocity":0.7874015748031497},{"duration":0.06749999999999545,"durationTicks":120,"midi":91,"name":"G6","ticks":381960,"time":215.7725,"velocity":0.6929133858267716},{"duration":0.06750000000002387,"durationTicks":120,"midi":98,"name":"D7","ticks":382080,"time":215.84,"velocity":0.6929133858267716},{"duration":0.06749999999999545,"durationTicks":120,"midi":94,"name":"A#6","ticks":382200,"time":215.90750000000003,"velocity":0.7874015748031497},{"duration":0.06749999999999545,"durationTicks":120,"midi":89,"name":"F6","ticks":382320,"time":215.97500000000002,"velocity":0.7874015748031497},{"duration":0.06749999999999545,"durationTicks":120,"midi":98,"name":"D7","ticks":382440,"time":216.04250000000002,"velocity":0.7874015748031497},{"duration":0.06749999999999545,"durationTicks":120,"midi":94,"name":"A#6","ticks":382560,"time":216.11,"velocity":0.7874015748031497},{"duration":0.06749999999999545,"durationTicks":120,"midi":89,"name":"F6","ticks":382680,"time":216.1775,"velocity":0.7874015748031497},{"duration":0.06749999999999545,"durationTicks":120,"midi":98,"name":"D7","ticks":382800,"time":216.245,"velocity":0.7874015748031497},{"duration":0.06750000000002387,"durationTicks":120,"midi":94,"name":"A#6","ticks":382920,"time":216.3125,"velocity":0.7874015748031497},{"duration":0.06749999999999545,"durationTicks":120,"midi":89,"name":"F6","ticks":383040,"time":216.38000000000002,"velocity":0.7874015748031497},{"duration":0.06749999999999545,"durationTicks":120,"midi":96,"name":"C7","ticks":383160,"time":216.44750000000002,"velocity":0.7874015748031497},{"duration":0.06749999999999545,"durationTicks":120,"midi":93,"name":"A6","ticks":383280,"time":216.51500000000001,"velocity":0.7874015748031497},{"duration":0.06749999999999545,"durationTicks":120,"midi":89,"name":"F6","ticks":383400,"time":216.5825,"velocity":0.7874015748031497},{"duration":0.06749999999999545,"durationTicks":120,"midi":98,"name":"D7","ticks":383520,"time":216.65,"velocity":0.7874015748031497},{"duration":0.06750000000002387,"durationTicks":120,"midi":93,"name":"A6","ticks":383640,"time":216.7175,"velocity":0.7874015748031497},{"duration":0.1349999999999909,"durationTicks":240,"midi":96,"name":"C7","ticks":383760,"time":216.78500000000003,"velocity":0.7874015748031497},{"duration":0.06749999999999545,"durationTicks":120,"midi":101,"name":"F7","ticks":384000,"time":216.92000000000002,"velocity":0.7874015748031497},{"duration":0.06749999999999545,"durationTicks":120,"midi":94,"name":"A#6","ticks":384120,"time":216.9875,"velocity":0.7874015748031497},{"duration":0.06749999999999545,"durationTicks":120,"midi":101,"name":"F7","ticks":384240,"time":217.055,"velocity":0.7874015748031497},{"duration":0.06749999999999545,"durationTicks":120,"midi":99,"name":"D#7","ticks":384480,"time":217.19000000000003,"velocity":0.7874015748031497},{"duration":0.06749999999999545,"durationTicks":120,"midi":94,"name":"A#6","ticks":384600,"time":217.25750000000002,"velocity":0.7874015748031497},{"duration":0.06749999999999545,"durationTicks":120,"midi":99,"name":"D#7","ticks":384720,"time":217.32500000000002,"velocity":0.7874015748031497},{"duration":0.06749999999999545,"durationTicks":120,"midi":98,"name":"D7","ticks":384960,"time":217.46,"velocity":0.7874015748031497},{"duration":0.06750000000002387,"durationTicks":120,"midi":94,"name":"A#6","ticks":385080,"time":217.5275,"velocity":0.7874015748031497},{"duration":0.06749999999999545,"durationTicks":120,"midi":98,"name":"D7","ticks":385200,"time":217.59500000000003,"velocity":0.7874015748031497},{"duration":0.06749999999999545,"durationTicks":120,"midi":96,"name":"C7","ticks":385440,"time":217.73000000000002,"velocity":0.7874015748031497},{"duration":0.06749999999999545,"durationTicks":120,"midi":94,"name":"A#6","ticks":385560,"time":217.7975,"velocity":0.7874015748031497},{"duration":0.06749999999999545,"durationTicks":120,"midi":96,"name":"C7","ticks":385680,"time":217.865,"velocity":0.7874015748031497},{"duration":0.06750000000002387,"durationTicks":120,"midi":90,"name":"F#6","ticks":385920,"time":218,"velocity":0.7874015748031497},{"duration":0.06749999999999545,"durationTicks":120,"midi":87,"name":"D#6","ticks":386040,"time":218.06750000000002,"velocity":0.7874015748031497},{"duration":0.06749999999999545,"durationTicks":120,"midi":83,"name":"B5","ticks":386160,"time":218.13500000000002,"velocity":0.7874015748031497},{"duration":0.06749999999999545,"durationTicks":120,"midi":90,"name":"F#6","ticks":386280,"time":218.20250000000001,"velocity":0.7874015748031497},{"duration":0.06749999999999545,"durationTicks":120,"midi":87,"name":"D#6","ticks":386400,"time":218.27,"velocity":0.7874015748031497},{"duration":0.06749999999999545,"durationTicks":120,"midi":83,"name":"B5","ticks":386520,"time":218.3375,"velocity":0.7874015748031497},{"duration":0.06750000000002387,"durationTicks":120,"midi":90,"name":"F#6","ticks":386640,"time":218.405,"velocity":0.7874015748031497},{"duration":0.06749999999999545,"durationTicks":120,"midi":87,"name":"D#6","ticks":386760,"time":218.47250000000003,"velocity":0.7874015748031497},{"duration":0.06749999999999545,"durationTicks":120,"midi":83,"name":"B5","ticks":386880,"time":218.54000000000002,"velocity":0.7874015748031497},{"duration":0.06749999999999545,"durationTicks":120,"midi":88,"name":"E6","ticks":387000,"time":218.60750000000002,"velocity":0.7874015748031497},{"duration":0.06749999999999545,"durationTicks":120,"midi":83,"name":"B5","ticks":387120,"time":218.675,"velocity":0.7874015748031497},{"duration":0.06749999999999545,"durationTicks":120,"midi":83,"name":"B5","ticks":387240,"time":218.7425,"velocity":0.7874015748031497},{"duration":0.06750000000002387,"durationTicks":120,"midi":88,"name":"E6","ticks":387360,"time":218.81,"velocity":0.7874015748031497},{"duration":0.06749999999999545,"durationTicks":120,"midi":83,"name":"B5","ticks":387480,"time":218.87750000000003,"velocity":0.7874015748031497},{"duration":0.06749999999999545,"durationTicks":120,"midi":88,"name":"E6","ticks":387600,"time":218.94500000000002,"velocity":0.7874015748031497},{"duration":0.06749999999999545,"durationTicks":120,"midi":83,"name":"B5","ticks":387720,"time":219.01250000000002,"velocity":0.7874015748031497},{"duration":0.06749999999999545,"durationTicks":120,"midi":87,"name":"D#6","ticks":387840,"time":219.08,"velocity":0.7874015748031497},{"duration":0.06749999999999545,"durationTicks":120,"midi":83,"name":"B5","ticks":387960,"time":219.1475,"velocity":0.7874015748031497},{"duration":0.06750000000002387,"durationTicks":120,"midi":78,"name":"F#5","ticks":388080,"time":219.215,"velocity":0.7874015748031497},{"duration":0.06749999999999545,"durationTicks":120,"midi":87,"name":"D#6","ticks":388200,"time":219.28250000000003,"velocity":0.7874015748031497},{"duration":0.06749999999999545,"durationTicks":120,"midi":83,"name":"B5","ticks":388320,"time":219.35000000000002,"velocity":0.7874015748031497},{"duration":0.06749999999999545,"durationTicks":120,"midi":78,"name":"F#5","ticks":388440,"time":219.41750000000002,"velocity":0.7874015748031497},{"duration":0.06749999999999545,"durationTicks":120,"midi":87,"name":"D#6","ticks":388560,"time":219.485,"velocity":0.7874015748031497},{"duration":0.06749999999999545,"durationTicks":120,"midi":83,"name":"B5","ticks":388680,"time":219.5525,"velocity":0.7874015748031497},{"duration":0.06750000000002387,"durationTicks":120,"midi":78,"name":"F#5","ticks":388800,"time":219.62,"velocity":0.7874015748031497},{"duration":0.06749999999999545,"durationTicks":120,"midi":82,"name":"A#5","ticks":388920,"time":219.68750000000003,"velocity":0.7874015748031497},{"duration":0.06749999999999545,"durationTicks":120,"midi":78,"name":"F#5","ticks":389040,"time":219.75500000000002,"velocity":0.7874015748031497},{"duration":0.06749999999999545,"durationTicks":120,"midi":78,"name":"F#5","ticks":389160,"time":219.82250000000002,"velocity":0.7874015748031497},{"duration":0.06749999999999545,"durationTicks":120,"midi":82,"name":"A#5","ticks":389280,"time":219.89000000000001,"velocity":0.7874015748031497},{"duration":0.06749999999999545,"durationTicks":120,"midi":78,"name":"F#5","ticks":389400,"time":219.9575,"velocity":0.7874015748031497},{"duration":0.06749999999999545,"durationTicks":120,"midi":82,"name":"A#5","ticks":389520,"time":220.025,"velocity":0.7874015748031497},{"duration":0.06750000000002387,"durationTicks":120,"midi":78,"name":"F#5","ticks":389640,"time":220.0925,"velocity":0.7874015748031497},{"duration":0.06749999999999545,"durationTicks":120,"midi":85,"name":"C#6","ticks":389760,"time":220.16000000000003,"velocity":0.7874015748031497},{"duration":0.06749999999999545,"durationTicks":120,"midi":80,"name":"G#5","ticks":389880,"time":220.22750000000002,"velocity":0.7874015748031497},{"duration":0.06749999999999545,"durationTicks":120,"midi":75,"name":"D#5","ticks":390000,"time":220.29500000000002,"velocity":0.7874015748031497},{"duration":0.06749999999999545,"durationTicks":120,"midi":85,"name":"C#6","ticks":390120,"time":220.3625,"velocity":0.7874015748031497},{"duration":0.06749999999999545,"durationTicks":120,"midi":80,"name":"G#5","ticks":390240,"time":220.43,"velocity":0.7874015748031497},{"duration":0.06750000000002387,"durationTicks":120,"midi":75,"name":"D#5","ticks":390360,"time":220.4975,"velocity":0.7874015748031497},{"duration":0.06749999999999545,"durationTicks":120,"midi":85,"name":"C#6","ticks":390480,"time":220.56500000000003,"velocity":0.7874015748031497},{"duration":0.06749999999999545,"durationTicks":120,"midi":80,"name":"G#5","ticks":390600,"time":220.63250000000002,"velocity":0.7874015748031497},{"duration":0.06749999999999545,"durationTicks":120,"midi":75,"name":"D#5","ticks":390720,"time":220.70000000000002,"velocity":0.7874015748031497},{"duration":0.06749999999999545,"durationTicks":120,"midi":83,"name":"B5","ticks":390840,"time":220.7675,"velocity":0.7874015748031497},{"duration":0.06749999999999545,"durationTicks":120,"midi":75,"name":"D#5","ticks":390960,"time":220.835,"velocity":0.7874015748031497},{"duration":0.06750000000002387,"durationTicks":120,"midi":75,"name":"D#5","ticks":391080,"time":220.9025,"velocity":0.7874015748031497},{"duration":0.06749999999999545,"durationTicks":120,"midi":83,"name":"B5","ticks":391200,"time":220.97000000000003,"velocity":0.7874015748031497},{"duration":0.06749999999999545,"durationTicks":120,"midi":75,"name":"D#5","ticks":391320,"time":221.03750000000002,"velocity":0.7874015748031497},{"duration":0.06749999999999545,"durationTicks":120,"midi":83,"name":"B5","ticks":391440,"time":221.10500000000002,"velocity":0.7874015748031497},{"duration":0.06749999999999545,"durationTicks":120,"midi":75,"name":"D#5","ticks":391560,"time":221.1725,"velocity":0.7874015748031497},{"duration":0.06749999999999545,"durationTicks":120,"midi":82,"name":"A#5","ticks":391680,"time":221.24,"velocity":0.7874015748031497},{"duration":0.06750000000002387,"durationTicks":120,"midi":80,"name":"G#5","ticks":391800,"time":221.3075,"velocity":0.7874015748031497},{"duration":0.06749999999999545,"durationTicks":120,"midi":75,"name":"D#5","ticks":391920,"time":221.37500000000003,"velocity":0.7874015748031497},{"duration":0.06749999999999545,"durationTicks":120,"midi":82,"name":"A#5","ticks":392040,"time":221.44250000000002,"velocity":0.7874015748031497},{"duration":0.06749999999999545,"durationTicks":120,"midi":80,"name":"G#5","ticks":392160,"time":221.51000000000002,"velocity":0.7874015748031497},{"duration":0.06749999999999545,"durationTicks":120,"midi":75,"name":"D#5","ticks":392280,"time":221.57750000000001,"velocity":0.7874015748031497},{"duration":0.06749999999999545,"durationTicks":120,"midi":83,"name":"B5","ticks":392400,"time":221.645,"velocity":0.7874015748031497},{"duration":0.06749999999999545,"durationTicks":120,"midi":80,"name":"G#5","ticks":392520,"time":221.7125,"velocity":0.7874015748031497},{"duration":0.13500000000001933,"durationTicks":240,"midi":85,"name":"C#6","ticks":392640,"time":221.78,"velocity":0.7874015748031497},{"duration":0.06749999999999545,"durationTicks":120,"midi":78,"name":"F#5","ticks":392760,"time":221.84750000000003,"velocity":0.6929133858267716},{"duration":0.1349999999999909,"durationTicks":240,"midi":87,"name":"D#6","ticks":392880,"time":221.91500000000002,"velocity":0.7874015748031497},{"duration":0.06749999999999545,"durationTicks":120,"midi":78,"name":"F#5","ticks":393000,"time":221.98250000000002,"velocity":0.6929133858267716},{"duration":0.1349999999999909,"durationTicks":240,"midi":88,"name":"E6","ticks":393120,"time":222.05,"velocity":0.7874015748031497},{"duration":0.06749999999999545,"durationTicks":120,"midi":78,"name":"F#5","ticks":393240,"time":222.1175,"velocity":0.6929133858267716},{"duration":0.13500000000001933,"durationTicks":240,"midi":90,"name":"F#6","ticks":393360,"time":222.185,"velocity":0.7874015748031497},{"duration":0.06749999999999545,"durationTicks":120,"midi":78,"name":"F#5","ticks":393480,"time":222.25250000000003,"velocity":0.6929133858267716},{"duration":0.06749999999999545,"durationTicks":120,"midi":92,"name":"G#6","ticks":393600,"time":222.32000000000002,"velocity":0.7874015748031497},{"duration":0.06749999999999545,"durationTicks":120,"midi":88,"name":"E6","ticks":393720,"time":222.38750000000002,"velocity":0.7874015748031497},{"duration":0.06749999999999545,"durationTicks":120,"midi":83,"name":"B5","ticks":393840,"time":222.455,"velocity":0.7874015748031497},{"duration":0.06749999999999545,"durationTicks":120,"midi":92,"name":"G#6","ticks":393960,"time":222.5225,"velocity":0.7874015748031497},{"duration":0.06750000000002387,"durationTicks":120,"midi":88,"name":"E6","ticks":394080,"time":222.59,"velocity":0.7874015748031497},{"duration":0.06749999999999545,"durationTicks":120,"midi":83,"name":"B5","ticks":394200,"time":222.65750000000003,"velocity":0.7874015748031497},{"duration":0.06749999999999545,"durationTicks":120,"midi":92,"name":"G#6","ticks":394320,"time":222.72500000000002,"velocity":0.7874015748031497},{"duration":0.06749999999999545,"durationTicks":120,"midi":88,"name":"E6","ticks":394440,"time":222.79250000000002,"velocity":0.7874015748031497},{"duration":0.06749999999999545,"durationTicks":120,"midi":94,"name":"A#6","ticks":394560,"time":222.86,"velocity":0.7874015748031497},{"duration":0.06749999999999545,"durationTicks":120,"midi":88,"name":"E6","ticks":394680,"time":222.9275,"velocity":0.7874015748031497},{"duration":0.06750000000002387,"durationTicks":120,"midi":94,"name":"A#6","ticks":394800,"time":222.995,"velocity":0.7874015748031497},{"duration":0.06749999999999545,"durationTicks":120,"midi":95,"name":"B6","ticks":395040,"time":223.13000000000002,"velocity":0.7874015748031497},{"duration":0.06749999999999545,"durationTicks":120,"midi":88,"name":"E6","ticks":395160,"time":223.19750000000002,"velocity":0.7874015748031497},{"duration":0.06749999999999545,"durationTicks":120,"midi":95,"name":"B6","ticks":395280,"time":223.26500000000001,"velocity":0.7874015748031497},{"duration":0.06749999999999545,"durationTicks":120,"midi":97,"name":"C#7","ticks":395520,"time":223.4,"velocity":0.7874015748031497},{"duration":0.06750000000002387,"durationTicks":120,"midi":88,"name":"E6","ticks":395640,"time":223.4675,"velocity":0.7874015748031497},{"duration":0.06749999999999545,"durationTicks":120,"midi":97,"name":"C#7","ticks":395760,"time":223.53500000000003,"velocity":0.7874015748031497},{"duration":0.06749999999999545,"durationTicks":120,"midi":95,"name":"B6","ticks":396000,"time":223.67000000000002,"velocity":0.7874015748031497},{"duration":0.06749999999999545,"durationTicks":120,"midi":88,"name":"E6","ticks":396120,"time":223.7375,"velocity":0.7874015748031497},{"duration":0.06749999999999545,"durationTicks":120,"midi":95,"name":"B6","ticks":396240,"time":223.805,"velocity":0.7874015748031497},{"duration":0.06749999999999545,"durationTicks":120,"midi":94,"name":"A#6","ticks":396480,"time":223.94000000000003,"velocity":0.7874015748031497},{"duration":0.06749999999999545,"durationTicks":120,"midi":88,"name":"E6","ticks":396600,"time":224.00750000000002,"velocity":0.7874015748031497},{"duration":0.06749999999999545,"durationTicks":120,"midi":94,"name":"A#6","ticks":396720,"time":224.07500000000002,"velocity":0.7874015748031497},{"duration":0.06749999999999545,"durationTicks":120,"midi":92,"name":"G#6","ticks":396960,"time":224.21,"velocity":0.7874015748031497},{"duration":0.06750000000002387,"durationTicks":120,"midi":88,"name":"E6","ticks":397080,"time":224.2775,"velocity":0.7874015748031497},{"duration":0.06749999999999545,"durationTicks":120,"midi":92,"name":"G#6","ticks":397200,"time":224.34500000000003,"velocity":0.7874015748031497},{"duration":0.06749999999999545,"durationTicks":120,"midi":92,"name":"G#6","ticks":397440,"time":224.48000000000002,"velocity":0.7874015748031497},{"duration":0.06749999999999545,"durationTicks":120,"midi":87,"name":"D#6","ticks":397560,"time":224.5475,"velocity":0.7874015748031497},{"duration":0.06749999999999545,"durationTicks":120,"midi":92,"name":"G#6","ticks":397680,"time":224.615,"velocity":0.7874015748031497},{"duration":0.06749999999999545,"durationTicks":120,"midi":90,"name":"F#6","ticks":397920,"time":224.75000000000003,"velocity":0.7874015748031497},{"duration":0.06749999999999545,"durationTicks":120,"midi":87,"name":"D#6","ticks":398040,"time":224.81750000000002,"velocity":0.7874015748031497},{"duration":0.06749999999999545,"durationTicks":120,"midi":90,"name":"F#6","ticks":398160,"time":224.88500000000002,"velocity":0.7874015748031497},{"duration":0.06749999999999545,"durationTicks":120,"midi":89,"name":"F6","ticks":398400,"time":225.02,"velocity":0.7874015748031497},{"duration":0.06749999999999545,"durationTicks":120,"midi":87,"name":"D#6","ticks":398520,"time":225.0875,"velocity":0.7874015748031497},{"duration":0.06750000000002387,"durationTicks":120,"midi":89,"name":"F6","ticks":398640,"time":225.155,"velocity":0.7874015748031497},{"duration":0.06749999999999545,"durationTicks":120,"midi":92,"name":"G#6","ticks":398880,"time":225.29000000000002,"velocity":0.7874015748031497},{"duration":0.06749999999999545,"durationTicks":120,"midi":87,"name":"D#6","ticks":399000,"time":225.35750000000002,"velocity":0.7874015748031497},{"duration":0.06749999999999545,"durationTicks":120,"midi":92,"name":"G#6","ticks":399120,"time":225.425,"velocity":0.7874015748031497},{"duration":0.06750000000002387,"durationTicks":120,"midi":90,"name":"F#6","ticks":399360,"time":225.56,"velocity":0.7874015748031497},{"duration":0.06749999999999545,"durationTicks":120,"midi":87,"name":"D#6","ticks":399480,"time":225.62750000000003,"velocity":0.7874015748031497},{"duration":0.06749999999999545,"durationTicks":120,"midi":83,"name":"B5","ticks":399600,"time":225.69500000000002,"velocity":0.7874015748031497},{"duration":0.06749999999999545,"durationTicks":120,"midi":90,"name":"F#6","ticks":399720,"time":225.76250000000002,"velocity":0.7874015748031497},{"duration":0.06749999999999545,"durationTicks":120,"midi":87,"name":"D#6","ticks":399840,"time":225.83,"velocity":0.7874015748031497},{"duration":0.06749999999999545,"durationTicks":120,"midi":83,"name":"B5","ticks":399960,"time":225.8975,"velocity":0.7874015748031497},{"duration":0.06750000000002387,"durationTicks":120,"midi":90,"name":"F#6","ticks":400080,"time":225.965,"velocity":0.7874015748031497},{"duration":0.06749999999999545,"durationTicks":120,"midi":87,"name":"D#6","ticks":400200,"time":226.03250000000003,"velocity":0.7874015748031497},{"duration":0.06749999999999545,"durationTicks":120,"midi":83,"name":"B5","ticks":400320,"time":226.10000000000002,"velocity":0.7874015748031497},{"duration":0.06749999999999545,"durationTicks":120,"midi":87,"name":"D#6","ticks":400440,"time":226.16750000000002,"velocity":0.7874015748031497},{"duration":0.06749999999999545,"durationTicks":120,"midi":83,"name":"B5","ticks":400560,"time":226.235,"velocity":0.7874015748031497},{"duration":0.06749999999999545,"durationTicks":120,"midi":83,"name":"B5","ticks":400680,"time":226.3025,"velocity":0.7874015748031497},{"duration":0.06750000000002387,"durationTicks":120,"midi":87,"name":"D#6","ticks":400800,"time":226.37,"velocity":0.7874015748031497},{"duration":0.06749999999999545,"durationTicks":120,"midi":83,"name":"B5","ticks":400920,"time":226.43750000000003,"velocity":0.7874015748031497},{"duration":0.06749999999999545,"durationTicks":120,"midi":87,"name":"D#6","ticks":401040,"time":226.50500000000002,"velocity":0.7874015748031497},{"duration":0.06749999999999545,"durationTicks":120,"midi":83,"name":"B5","ticks":401160,"time":226.57250000000002,"velocity":0.7874015748031497},{"duration":0.06749999999999545,"durationTicks":120,"midi":88,"name":"E6","ticks":401280,"time":226.64000000000001,"velocity":0.7874015748031497},{"duration":0.06749999999999545,"durationTicks":120,"midi":83,"name":"B5","ticks":401400,"time":226.7075,"velocity":0.7874015748031497},{"duration":0.06749999999999545,"durationTicks":120,"midi":88,"name":"E6","ticks":401520,"time":226.775,"velocity":0.7874015748031497},{"duration":0.06749999999999545,"durationTicks":120,"midi":90,"name":"F#6","ticks":401760,"time":226.91000000000003,"velocity":0.7874015748031497},{"duration":0.06749999999999545,"durationTicks":120,"midi":83,"name":"B5","ticks":401880,"time":226.97750000000002,"velocity":0.7874015748031497},{"duration":0.06749999999999545,"durationTicks":120,"midi":90,"name":"F#6","ticks":402000,"time":227.04500000000002,"velocity":0.7874015748031497},{"duration":0.06749999999999545,"durationTicks":120,"midi":92,"name":"G#6","ticks":402240,"time":227.18,"velocity":0.7874015748031497},{"duration":0.06750000000002387,"durationTicks":120,"midi":83,"name":"B5","ticks":402360,"time":227.2475,"velocity":0.7874015748031497},{"duration":0.06749999999999545,"durationTicks":120,"midi":92,"name":"G#6","ticks":402480,"time":227.31500000000003,"velocity":0.7874015748031497},{"duration":0.06749999999999545,"durationTicks":120,"midi":95,"name":"B6","ticks":402720,"time":227.45000000000002,"velocity":0.7874015748031497},{"duration":0.06749999999999545,"durationTicks":120,"midi":83,"name":"B5","ticks":402840,"time":227.5175,"velocity":0.7874015748031497},{"duration":0.06749999999999545,"durationTicks":120,"midi":95,"name":"B6","ticks":402960,"time":227.585,"velocity":0.7874015748031497},{"duration":0.09000000000000341,"durationTicks":160,"midi":94,"name":"A#6","ticks":403200,"time":227.72000000000003,"velocity":0.7874015748031497},{"duration":0.08999999999997499,"durationTicks":160,"midi":95,"name":"B6","ticks":403360,"time":227.81000000000003,"velocity":0.7874015748031497},{"duration":0.09000000000000341,"durationTicks":160,"midi":94,"name":"A#6","ticks":403520,"time":227.9,"velocity":0.7874015748031497},{"duration":0.27000000000001023,"durationTicks":480,"midi":92,"name":"G#6","ticks":403680,"time":227.99,"velocity":0.7874015748031497},{"duration":0.06749999999999545,"durationTicks":120,"midi":90,"name":"F#6","ticks":404160,"time":228.26000000000002,"velocity":0.7874015748031497},{"duration":0.06749999999999545,"durationTicks":120,"midi":83,"name":"B5","ticks":404280,"time":228.32750000000001,"velocity":0.7874015748031497},{"duration":0.06749999999999545,"durationTicks":120,"midi":90,"name":"F#6","ticks":404400,"time":228.395,"velocity":0.7874015748031497},{"duration":0.06750000000002387,"durationTicks":120,"midi":87,"name":"D#6","ticks":404640,"time":228.53,"velocity":0.7874015748031497},{"duration":0.06749999999999545,"durationTicks":120,"midi":83,"name":"B5","ticks":404760,"time":228.59750000000003,"velocity":0.7874015748031497},{"duration":0.06749999999999545,"durationTicks":120,"midi":88,"name":"E6","ticks":404880,"time":228.66500000000002,"velocity":0.7874015748031497},{"duration":0.06749999999999545,"durationTicks":120,"midi":87,"name":"D#6","ticks":405120,"time":228.8,"velocity":0.7874015748031497},{"duration":0.06749999999999545,"durationTicks":120,"midi":79,"name":"G5","ticks":405240,"time":228.8675,"velocity":0.7874015748031497},{"duration":0.06750000000002387,"durationTicks":120,"midi":87,"name":"D#6","ticks":405360,"time":228.935,"velocity":0.7874015748031497},{"duration":0.06749999999999545,"durationTicks":120,"midi":91,"name":"G6","ticks":405600,"time":229.07000000000002,"velocity":0.7874015748031497},{"duration":0.06749999999999545,"durationTicks":120,"midi":79,"name":"G5","ticks":405720,"time":229.13750000000002,"velocity":0.7874015748031497},{"duration":0.06749999999999545,"durationTicks":120,"midi":91,"name":"G6","ticks":405840,"time":229.205,"velocity":0.7874015748031497},{"duration":0.06750000000002387,"durationTicks":120,"midi":94,"name":"A#6","ticks":406080,"time":229.34,"velocity":0.7874015748031497},{"duration":0.06749999999999545,"durationTicks":120,"midi":79,"name":"G5","ticks":406200,"time":229.40750000000003,"velocity":0.7874015748031497},{"duration":0.06749999999999545,"durationTicks":120,"midi":94,"name":"A#6","ticks":406320,"time":229.47500000000002,"velocity":0.7874015748031497},{"duration":0.06749999999999545,"durationTicks":120,"midi":87,"name":"D#6","ticks":406560,"time":229.61,"velocity":0.7874015748031497},{"duration":0.06749999999999545,"durationTicks":120,"midi":79,"name":"G5","ticks":406680,"time":229.6775,"velocity":0.7874015748031497},{"duration":0.06750000000002387,"durationTicks":120,"midi":87,"name":"D#6","ticks":406800,"time":229.745,"velocity":0.7874015748031497},{"duration":0.06749999999999545,"durationTicks":120,"midi":97,"name":"C#7","ticks":407040,"time":229.88000000000002,"velocity":0.7874015748031497},{"duration":0.06749999999999545,"durationTicks":120,"midi":92,"name":"G#6","ticks":407160,"time":229.94750000000002,"velocity":0.7874015748031497},{"duration":0.06749999999999545,"durationTicks":120,"midi":97,"name":"C#7","ticks":407280,"time":230.01500000000001,"velocity":0.7874015748031497},{"duration":0.06749999999999545,"durationTicks":120,"midi":95,"name":"B6","ticks":407520,"time":230.15,"velocity":0.7874015748031497},{"duration":0.06750000000002387,"durationTicks":120,"midi":92,"name":"G#6","ticks":407640,"time":230.2175,"velocity":0.7874015748031497},{"duration":0.06749999999999545,"durationTicks":120,"midi":95,"name":"B6","ticks":407760,"time":230.28500000000003,"velocity":0.7874015748031497},{"duration":0.06749999999999545,"durationTicks":120,"midi":94,"name":"A#6","ticks":408000,"time":230.42000000000002,"velocity":0.7874015748031497},{"duration":0.06749999999999545,"durationTicks":120,"midi":92,"name":"G#6","ticks":408120,"time":230.4875,"velocity":0.7874015748031497},{"duration":0.06749999999999545,"durationTicks":120,"midi":94,"name":"A#6","ticks":408240,"time":230.555,"velocity":0.7874015748031497},{"duration":0.06749999999999545,"durationTicks":120,"midi":95,"name":"B6","ticks":408480,"time":230.69000000000003,"velocity":0.7874015748031497},{"duration":0.06749999999999545,"durationTicks":120,"midi":92,"name":"G#6","ticks":408600,"time":230.75750000000002,"velocity":0.7874015748031497},{"duration":0.06749999999999545,"durationTicks":120,"midi":95,"name":"B6","ticks":408720,"time":230.82500000000002,"velocity":0.7874015748031497},{"duration":0.06749999999999545,"durationTicks":120,"midi":99,"name":"D#7","ticks":408960,"time":230.96,"velocity":0.7874015748031497},{"duration":0.06750000000002387,"durationTicks":120,"midi":95,"name":"B6","ticks":409080,"time":231.0275,"velocity":0.7874015748031497},{"duration":0.06749999999999545,"durationTicks":120,"midi":92,"name":"G#6","ticks":409200,"time":231.09500000000003,"velocity":0.7874015748031497},{"duration":0.06749999999999545,"durationTicks":120,"midi":99,"name":"D#7","ticks":409320,"time":231.16250000000002,"velocity":0.7874015748031497},{"duration":0.06749999999999545,"durationTicks":120,"midi":95,"name":"B6","ticks":409440,"time":231.23000000000002,"velocity":0.7874015748031497},{"duration":0.06749999999999545,"durationTicks":120,"midi":92,"name":"G#6","ticks":409560,"time":231.2975,"velocity":0.7874015748031497},{"duration":0.06749999999999545,"durationTicks":120,"midi":99,"name":"D#7","ticks":409680,"time":231.365,"velocity":0.7874015748031497},{"duration":0.06750000000002387,"durationTicks":120,"midi":95,"name":"B6","ticks":409800,"time":231.4325,"velocity":0.7874015748031497},{"duration":0.06749999999999545,"durationTicks":120,"midi":92,"name":"G#6","ticks":409920,"time":231.50000000000003,"velocity":0.7874015748031497},{"duration":0.06749999999999545,"durationTicks":120,"midi":95,"name":"B6","ticks":410040,"time":231.56750000000002,"velocity":0.7874015748031497},{"duration":0.06749999999999545,"durationTicks":120,"midi":92,"name":"G#6","ticks":410160,"time":231.63500000000002,"velocity":0.7874015748031497},{"duration":0.06749999999999545,"durationTicks":120,"midi":92,"name":"G#6","ticks":410280,"time":231.70250000000001,"velocity":0.7874015748031497},{"duration":0.06749999999999545,"durationTicks":120,"midi":95,"name":"B6","ticks":410400,"time":231.77,"velocity":0.6929133858267716},{"duration":0.06749999999999545,"durationTicks":120,"midi":92,"name":"G#6","ticks":410520,"time":231.8375,"velocity":0.6929133858267716},{"duration":0.06750000000002387,"durationTicks":120,"midi":95,"name":"B6","ticks":410640,"time":231.905,"velocity":0.6929133858267716},{"duration":0.06749999999999545,"durationTicks":120,"midi":97,"name":"C#7","ticks":410760,"time":231.97250000000003,"velocity":0.7874015748031497},{"duration":0.06749999999999545,"durationTicks":120,"midi":99,"name":"D#7","ticks":410880,"time":232.04000000000002,"velocity":0.7874015748031497},{"duration":0.06749999999999545,"durationTicks":120,"midi":95,"name":"B6","ticks":411000,"time":232.10750000000002,"velocity":0.7874015748031497},{"duration":0.06749999999999545,"durationTicks":120,"midi":99,"name":"D#7","ticks":411120,"time":232.175,"velocity":0.7874015748031497},{"duration":0.06749999999999545,"durationTicks":120,"midi":95,"name":"B6","ticks":411240,"time":232.2425,"velocity":0.7874015748031497},{"duration":0.06750000000002387,"durationTicks":120,"midi":92,"name":"G#6","ticks":411360,"time":232.31,"velocity":0.7874015748031497},{"duration":0.06749999999999545,"durationTicks":120,"midi":89,"name":"F6","ticks":411480,"time":232.37750000000003,"velocity":0.7874015748031497},{"duration":0.06749999999999545,"durationTicks":120,"midi":92,"name":"G#6","ticks":411600,"time":232.44500000000002,"velocity":0.7874015748031497},{"duration":0.06749999999999545,"durationTicks":120,"midi":89,"name":"F6","ticks":411720,"time":232.51250000000002,"velocity":0.7874015748031497},{"duration":0.06749999999999545,"durationTicks":120,"midi":99,"name":"D#7","ticks":411840,"time":232.58,"velocity":0.7874015748031497},{"duration":0.06749999999999545,"durationTicks":120,"midi":95,"name":"B6","ticks":411960,"time":232.6475,"velocity":0.7874015748031497},{"duration":0.06750000000002387,"durationTicks":120,"midi":92,"name":"G#6","ticks":412080,"time":232.715,"velocity":0.7874015748031497},{"duration":0.06749999999999545,"durationTicks":120,"midi":100,"name":"E7","ticks":412200,"time":232.78250000000003,"velocity":0.7874015748031497},{"duration":0.06749999999999545,"durationTicks":120,"midi":95,"name":"B6","ticks":412320,"time":232.85000000000002,"velocity":0.7874015748031497},{"duration":0.06749999999999545,"durationTicks":120,"midi":92,"name":"G#6","ticks":412440,"time":232.91750000000002,"velocity":0.7874015748031497},{"duration":0.06749999999999545,"durationTicks":120,"midi":95,"name":"B6","ticks":412560,"time":232.985,"velocity":0.7874015748031497},{"duration":0.06749999999999545,"durationTicks":120,"midi":92,"name":"G#6","ticks":412680,"time":233.0525,"velocity":0.6929133858267716},{"duration":0.06750000000002387,"durationTicks":120,"midi":99,"name":"D#7","ticks":412800,"time":233.12,"velocity":0.6929133858267716},{"duration":0.06749999999999545,"durationTicks":120,"midi":95,"name":"B6","ticks":412920,"time":233.18750000000003,"velocity":0.7874015748031497},{"duration":0.06749999999999545,"durationTicks":120,"midi":90,"name":"F#6","ticks":413040,"time":233.25500000000002,"velocity":0.7874015748031497},{"duration":0.06749999999999545,"durationTicks":120,"midi":99,"name":"D#7","ticks":413160,"time":233.32250000000002,"velocity":0.7874015748031497},{"duration":0.06749999999999545,"durationTicks":120,"midi":95,"name":"B6","ticks":413280,"time":233.39000000000001,"velocity":0.7874015748031497},{"duration":0.06749999999999545,"durationTicks":120,"midi":90,"name":"F#6","ticks":413400,"time":233.4575,"velocity":0.7874015748031497},{"duration":0.06749999999999545,"durationTicks":120,"midi":99,"name":"D#7","ticks":413520,"time":233.525,"velocity":0.7874015748031497},{"duration":0.06750000000002387,"durationTicks":120,"midi":95,"name":"B6","ticks":413640,"time":233.5925,"velocity":0.7874015748031497},{"duration":0.06749999999999545,"durationTicks":120,"midi":90,"name":"F#6","ticks":413760,"time":233.66000000000003,"velocity":0.7874015748031497},{"duration":0.06749999999999545,"durationTicks":120,"midi":97,"name":"C#7","ticks":413880,"time":233.72750000000002,"velocity":0.7874015748031497},{"duration":0.06749999999999545,"durationTicks":120,"midi":94,"name":"A#6","ticks":414000,"time":233.79500000000002,"velocity":0.7874015748031497},{"duration":0.06749999999999545,"durationTicks":120,"midi":90,"name":"F#6","ticks":414120,"time":233.8625,"velocity":0.7874015748031497},{"duration":0.06749999999999545,"durationTicks":120,"midi":99,"name":"D#7","ticks":414240,"time":233.93,"velocity":0.7874015748031497},{"duration":0.06750000000002387,"durationTicks":120,"midi":94,"name":"A#6","ticks":414360,"time":233.9975,"velocity":0.7874015748031497},{"duration":0.1349999999999909,"durationTicks":240,"midi":97,"name":"C#7","ticks":414480,"time":234.06500000000003,"velocity":0.7874015748031497},{"duration":0.06749999999999545,"durationTicks":120,"midi":102,"name":"F#7","ticks":414720,"time":234.20000000000002,"velocity":0.7874015748031497},{"duration":0.06749999999999545,"durationTicks":120,"midi":95,"name":"B6","ticks":414840,"time":234.2675,"velocity":0.7874015748031497},{"duration":0.06749999999999545,"durationTicks":120,"midi":102,"name":"F#7","ticks":414960,"time":234.335,"velocity":0.7874015748031497},{"duration":0.06749999999999545,"durationTicks":120,"midi":100,"name":"E7","ticks":415200,"time":234.47000000000003,"velocity":0.7874015748031497},{"duration":0.06749999999999545,"durationTicks":120,"midi":95,"name":"B6","ticks":415320,"time":234.53750000000002,"velocity":0.7874015748031497},{"duration":0.06749999999999545,"durationTicks":120,"midi":100,"name":"E7","ticks":415440,"time":234.60500000000002,"velocity":0.7874015748031497},{"duration":0.06749999999999545,"durationTicks":120,"midi":99,"name":"D#7","ticks":415680,"time":234.74,"velocity":0.7874015748031497},{"duration":0.06750000000002387,"durationTicks":120,"midi":95,"name":"B6","ticks":415800,"time":234.8075,"velocity":0.7874015748031497},{"duration":0.06749999999999545,"durationTicks":120,"midi":99,"name":"D#7","ticks":415920,"time":234.87500000000003,"velocity":0.7874015748031497},{"duration":0.06749999999999545,"durationTicks":120,"midi":97,"name":"C#7","ticks":416160,"time":235.01000000000002,"velocity":0.7874015748031497},{"duration":0.06749999999999545,"durationTicks":120,"midi":95,"name":"B6","ticks":416280,"time":235.07750000000001,"velocity":0.7874015748031497},{"duration":0.06749999999999545,"durationTicks":120,"midi":97,"name":"C#7","ticks":416400,"time":235.145,"velocity":0.7874015748031497},{"duration":0.06749999999999545,"durationTicks":120,"midi":92,"name":"G#6","ticks":416640,"time":235.28000000000003,"velocity":0.7874015748031497},{"duration":0.06749999999999545,"durationTicks":120,"midi":89,"name":"F6","ticks":416760,"time":235.34750000000003,"velocity":0.7874015748031497},{"duration":0.06749999999999545,"durationTicks":120,"midi":85,"name":"C#6","ticks":416880,"time":235.41500000000002,"velocity":0.7874015748031497},{"duration":0.06749999999999545,"durationTicks":120,"midi":92,"name":"G#6","ticks":417000,"time":235.48250000000002,"velocity":0.7874015748031497},{"duration":0.06749999999999545,"durationTicks":120,"midi":89,"name":"F6","ticks":417120,"time":235.55,"velocity":0.7874015748031497},{"duration":0.06749999999999545,"durationTicks":120,"midi":85,"name":"C#6","ticks":417240,"time":235.6175,"velocity":0.7874015748031497},{"duration":0.06750000000002387,"durationTicks":120,"midi":92,"name":"G#6","ticks":417360,"time":235.685,"velocity":0.7874015748031497},{"duration":0.06749999999999545,"durationTicks":120,"midi":89,"name":"F6","ticks":417480,"time":235.75250000000003,"velocity":0.7874015748031497},{"duration":0.06749999999999545,"durationTicks":120,"midi":85,"name":"C#6","ticks":417600,"time":235.82000000000002,"velocity":0.7874015748031497},{"duration":0.06749999999999545,"durationTicks":120,"midi":90,"name":"F#6","ticks":417720,"time":235.88750000000002,"velocity":0.7874015748031497},{"duration":0.06749999999999545,"durationTicks":120,"midi":85,"name":"C#6","ticks":417840,"time":235.955,"velocity":0.7874015748031497},{"duration":0.06749999999999545,"durationTicks":120,"midi":85,"name":"C#6","ticks":417960,"time":236.0225,"velocity":0.7874015748031497},{"duration":0.06750000000002387,"durationTicks":120,"midi":90,"name":"F#6","ticks":418080,"time":236.09,"velocity":0.7874015748031497},{"duration":0.06749999999999545,"durationTicks":120,"midi":85,"name":"C#6","ticks":418200,"time":236.15750000000003,"velocity":0.7874015748031497},{"duration":0.06749999999999545,"durationTicks":120,"midi":90,"name":"F#6","ticks":418320,"time":236.22500000000002,"velocity":0.7874015748031497},{"duration":0.06749999999999545,"durationTicks":120,"midi":85,"name":"C#6","ticks":418440,"time":236.29250000000002,"velocity":0.7874015748031497},{"duration":0.06749999999999545,"durationTicks":120,"midi":89,"name":"F6","ticks":418560,"time":236.36,"velocity":0.7874015748031497},{"duration":0.06749999999999545,"durationTicks":120,"midi":85,"name":"C#6","ticks":418680,"time":236.4275,"velocity":0.7874015748031497},{"duration":0.06750000000002387,"durationTicks":120,"midi":80,"name":"G#5","ticks":418800,"time":236.495,"velocity":0.7874015748031497},{"duration":0.06749999999999545,"durationTicks":120,"midi":89,"name":"F6","ticks":418920,"time":236.56250000000003,"velocity":0.7874015748031497},{"duration":0.06749999999999545,"durationTicks":120,"midi":85,"name":"C#6","ticks":419040,"time":236.63000000000002,"velocity":0.7874015748031497},{"duration":0.06749999999999545,"durationTicks":120,"midi":80,"name":"G#5","ticks":419160,"time":236.69750000000002,"velocity":0.7874015748031497},{"duration":0.06749999999999545,"durationTicks":120,"midi":89,"name":"F6","ticks":419280,"time":236.76500000000001,"velocity":0.7874015748031497},{"duration":0.06749999999999545,"durationTicks":120,"midi":85,"name":"C#6","ticks":419400,"time":236.8325,"velocity":0.7874015748031497},{"duration":0.06750000000002387,"durationTicks":120,"midi":80,"name":"G#5","ticks":419520,"time":236.9,"velocity":0.7874015748031497},{"duration":0.06749999999999545,"durationTicks":120,"midi":84,"name":"C6","ticks":419640,"time":236.96750000000003,"velocity":0.7874015748031497},{"duration":0.06749999999999545,"durationTicks":120,"midi":80,"name":"G#5","ticks":419760,"time":237.03500000000003,"velocity":0.7874015748031497},{"duration":0.06749999999999545,"durationTicks":120,"midi":80,"name":"G#5","ticks":419880,"time":237.10250000000002,"velocity":0.7874015748031497},{"duration":0.06749999999999545,"durationTicks":120,"midi":84,"name":"C6","ticks":420000,"time":237.17000000000002,"velocity":0.7874015748031497},{"duration":0.06749999999999545,"durationTicks":120,"midi":80,"name":"G#5","ticks":420120,"time":237.2375,"velocity":0.7874015748031497},{"duration":0.06749999999999545,"durationTicks":120,"midi":84,"name":"C6","ticks":420240,"time":237.305,"velocity":0.7874015748031497},{"duration":0.06750000000002387,"durationTicks":120,"midi":80,"name":"G#5","ticks":420360,"time":237.3725,"velocity":0.7874015748031497},{"duration":0.06749999999999545,"durationTicks":120,"midi":87,"name":"D#6","ticks":420480,"time":237.44000000000003,"velocity":0.7874015748031497},{"duration":0.06749999999999545,"durationTicks":120,"midi":82,"name":"A#5","ticks":420600,"time":237.50750000000002,"velocity":0.7874015748031497},{"duration":0.06749999999999545,"durationTicks":120,"midi":77,"name":"F5","ticks":420720,"time":237.57500000000002,"velocity":0.7874015748031497},{"duration":0.06749999999999545,"durationTicks":120,"midi":87,"name":"D#6","ticks":420840,"time":237.6425,"velocity":0.7874015748031497},{"duration":0.06749999999999545,"durationTicks":120,"midi":82,"name":"A#5","ticks":420960,"time":237.71,"velocity":0.7874015748031497},{"duration":0.06750000000002387,"durationTicks":120,"midi":77,"name":"F5","ticks":421080,"time":237.7775,"velocity":0.7874015748031497},{"duration":0.06749999999999545,"durationTicks":120,"midi":87,"name":"D#6","ticks":421200,"time":237.84500000000003,"velocity":0.7874015748031497},{"duration":0.06749999999999545,"durationTicks":120,"midi":82,"name":"A#5","ticks":421320,"time":237.91250000000002,"velocity":0.7874015748031497},{"duration":0.06749999999999545,"durationTicks":120,"midi":77,"name":"F5","ticks":421440,"time":237.98000000000002,"velocity":0.7874015748031497},{"duration":0.06749999999999545,"durationTicks":120,"midi":85,"name":"C#6","ticks":421560,"time":238.0475,"velocity":0.7874015748031497},{"duration":0.06749999999999545,"durationTicks":120,"midi":77,"name":"F5","ticks":421680,"time":238.115,"velocity":0.7874015748031497},{"duration":0.06750000000002387,"durationTicks":120,"midi":77,"name":"F5","ticks":421800,"time":238.1825,"velocity":0.7874015748031497},{"duration":0.06749999999999545,"durationTicks":120,"midi":85,"name":"C#6","ticks":421920,"time":238.25000000000003,"velocity":0.7874015748031497},{"duration":0.06749999999999545,"durationTicks":120,"midi":77,"name":"F5","ticks":422040,"time":238.31750000000002,"velocity":0.7874015748031497},{"duration":0.06749999999999545,"durationTicks":120,"midi":85,"name":"C#6","ticks":422160,"time":238.38500000000002,"velocity":0.7874015748031497},{"duration":0.06749999999999545,"durationTicks":120,"midi":77,"name":"F5","ticks":422280,"time":238.45250000000001,"velocity":0.7874015748031497},{"duration":0.06749999999999545,"durationTicks":120,"midi":84,"name":"C6","ticks":422400,"time":238.52,"velocity":0.7874015748031497},{"duration":0.06750000000002387,"durationTicks":120,"midi":82,"name":"A#5","ticks":422520,"time":238.5875,"velocity":0.7874015748031497},{"duration":0.06749999999999545,"durationTicks":120,"midi":77,"name":"F5","ticks":422640,"time":238.65500000000003,"velocity":0.7874015748031497},{"duration":0.06749999999999545,"durationTicks":120,"midi":84,"name":"C6","ticks":422760,"time":238.72250000000003,"velocity":0.7874015748031497},{"duration":0.06749999999999545,"durationTicks":120,"midi":82,"name":"A#5","ticks":422880,"time":238.79000000000002,"velocity":0.7874015748031497},{"duration":0.06749999999999545,"durationTicks":120,"midi":77,"name":"F5","ticks":423000,"time":238.85750000000002,"velocity":0.7874015748031497},{"duration":0.06749999999999545,"durationTicks":120,"midi":85,"name":"C#6","ticks":423120,"time":238.925,"velocity":0.7874015748031497},{"duration":0.06749999999999545,"durationTicks":120,"midi":82,"name":"A#5","ticks":423240,"time":238.9925,"velocity":0.7874015748031497},{"duration":0.13500000000001933,"durationTicks":240,"midi":87,"name":"D#6","ticks":423360,"time":239.06,"velocity":0.7874015748031497},{"duration":0.06749999999999545,"durationTicks":120,"midi":80,"name":"G#5","ticks":423480,"time":239.12750000000003,"velocity":0.6929133858267716},{"duration":0.1349999999999909,"durationTicks":240,"midi":89,"name":"F6","ticks":423600,"time":239.19500000000002,"velocity":0.7874015748031497},{"duration":0.06749999999999545,"durationTicks":120,"midi":80,"name":"G#5","ticks":423720,"time":239.26250000000002,"velocity":0.6929133858267716},{"duration":0.1349999999999909,"durationTicks":240,"midi":90,"name":"F#6","ticks":423840,"time":239.33,"velocity":0.7874015748031497},{"duration":0.06749999999999545,"durationTicks":120,"midi":80,"name":"G#5","ticks":423960,"time":239.3975,"velocity":0.6929133858267716},{"duration":0.13500000000001933,"durationTicks":240,"midi":92,"name":"G#6","ticks":424080,"time":239.465,"velocity":0.7874015748031497},{"duration":0.06749999999999545,"durationTicks":120,"midi":80,"name":"G#5","ticks":424200,"time":239.53250000000003,"velocity":0.6929133858267716},{"duration":0.06749999999999545,"durationTicks":120,"midi":94,"name":"A#6","ticks":424320,"time":239.60000000000002,"velocity":0.7874015748031497},{"duration":0.06749999999999545,"durationTicks":120,"midi":90,"name":"F#6","ticks":424440,"time":239.66750000000002,"velocity":0.7874015748031497},{"duration":0.06749999999999545,"durationTicks":120,"midi":85,"name":"C#6","ticks":424560,"time":239.735,"velocity":0.7874015748031497},{"duration":0.06749999999999545,"durationTicks":120,"midi":94,"name":"A#6","ticks":424680,"time":239.8025,"velocity":0.7874015748031497},{"duration":0.06750000000002387,"durationTicks":120,"midi":90,"name":"F#6","ticks":424800,"time":239.87,"velocity":0.7874015748031497},{"duration":0.06749999999999545,"durationTicks":120,"midi":85,"name":"C#6","ticks":424920,"time":239.93750000000003,"velocity":0.7874015748031497},{"duration":0.06749999999999545,"durationTicks":120,"midi":94,"name":"A#6","ticks":425040,"time":240.00500000000002,"velocity":0.7874015748031497},{"duration":0.06749999999999545,"durationTicks":120,"midi":90,"name":"F#6","ticks":425160,"time":240.07250000000002,"velocity":0.7874015748031497},{"duration":0.06749999999999545,"durationTicks":120,"midi":96,"name":"C7","ticks":425280,"time":240.14000000000001,"velocity":0.7874015748031497},{"duration":0.06749999999999545,"durationTicks":120,"midi":90,"name":"F#6","ticks":425400,"time":240.2075,"velocity":0.7874015748031497},{"duration":0.06750000000002387,"durationTicks":120,"midi":96,"name":"C7","ticks":425520,"time":240.275,"velocity":0.7874015748031497},{"duration":0.06749999999999545,"durationTicks":120,"midi":97,"name":"C#7","ticks":425760,"time":240.41000000000003,"velocity":0.7874015748031497},{"duration":0.06749999999999545,"durationTicks":120,"midi":90,"name":"F#6","ticks":425880,"time":240.47750000000002,"velocity":0.7874015748031497},{"duration":0.06749999999999545,"durationTicks":120,"midi":97,"name":"C#7","ticks":426000,"time":240.54500000000002,"velocity":0.7874015748031497},{"duration":0.06749999999999545,"durationTicks":120,"midi":99,"name":"D#7","ticks":426240,"time":240.68,"velocity":0.7874015748031497},{"duration":0.06750000000002387,"durationTicks":120,"midi":90,"name":"F#6","ticks":426360,"time":240.7475,"velocity":0.7874015748031497},{"duration":0.06749999999999545,"durationTicks":120,"midi":99,"name":"D#7","ticks":426480,"time":240.81500000000003,"velocity":0.7874015748031497},{"duration":0.06749999999999545,"durationTicks":120,"midi":97,"name":"C#7","ticks":426720,"time":240.95000000000002,"velocity":0.7874015748031497},{"duration":0.06749999999999545,"durationTicks":120,"midi":90,"name":"F#6","ticks":426840,"time":241.0175,"velocity":0.7874015748031497},{"duration":0.06749999999999545,"durationTicks":120,"midi":97,"name":"C#7","ticks":426960,"time":241.085,"velocity":0.7874015748031497},{"duration":0.06749999999999545,"durationTicks":120,"midi":96,"name":"C7","ticks":427200,"time":241.22000000000003,"velocity":0.7874015748031497},{"duration":0.06749999999999545,"durationTicks":120,"midi":90,"name":"F#6","ticks":427320,"time":241.28750000000002,"velocity":0.7874015748031497},{"duration":0.06749999999999545,"durationTicks":120,"midi":96,"name":"C7","ticks":427440,"time":241.35500000000002,"velocity":0.7874015748031497},{"duration":0.06749999999999545,"durationTicks":120,"midi":94,"name":"A#6","ticks":427680,"time":241.49,"velocity":0.7874015748031497},{"duration":0.06750000000002387,"durationTicks":120,"midi":90,"name":"F#6","ticks":427800,"time":241.5575,"velocity":0.7874015748031497},{"duration":0.06749999999999545,"durationTicks":120,"midi":94,"name":"A#6","ticks":427920,"time":241.62500000000003,"velocity":0.7874015748031497},{"duration":0.06749999999999545,"durationTicks":120,"midi":94,"name":"A#6","ticks":428160,"time":241.76000000000002,"velocity":0.7874015748031497},{"duration":0.06749999999999545,"durationTicks":120,"midi":89,"name":"F6","ticks":428280,"time":241.82750000000001,"velocity":0.7874015748031497},{"duration":0.06749999999999545,"durationTicks":120,"midi":94,"name":"A#6","ticks":428400,"time":241.895,"velocity":0.7874015748031497},{"duration":0.06749999999999545,"durationTicks":120,"midi":92,"name":"G#6","ticks":428640,"time":242.03000000000003,"velocity":0.7874015748031497},{"duration":0.06749999999999545,"durationTicks":120,"midi":89,"name":"F6","ticks":428760,"time":242.09750000000003,"velocity":0.7874015748031497},{"duration":0.06749999999999545,"durationTicks":120,"midi":92,"name":"G#6","ticks":428880,"time":242.16500000000002,"velocity":0.7874015748031497},{"duration":0.06749999999999545,"durationTicks":120,"midi":91,"name":"G6","ticks":429120,"time":242.3,"velocity":0.7874015748031497},{"duration":0.06749999999999545,"durationTicks":120,"midi":89,"name":"F6","ticks":429240,"time":242.3675,"velocity":0.7874015748031497},{"duration":0.06750000000002387,"durationTicks":120,"midi":91,"name":"G6","ticks":429360,"time":242.435,"velocity":0.7874015748031497},{"duration":0.06749999999999545,"durationTicks":120,"midi":94,"name":"A#6","ticks":429600,"time":242.57000000000002,"velocity":0.7874015748031497},{"duration":0.06749999999999545,"durationTicks":120,"midi":89,"name":"F6","ticks":429720,"time":242.63750000000002,"velocity":0.7874015748031497},{"duration":0.06749999999999545,"durationTicks":120,"midi":94,"name":"A#6","ticks":429840,"time":242.705,"velocity":0.7874015748031497},{"duration":0.06750000000002387,"durationTicks":120,"midi":92,"name":"G#6","ticks":430080,"time":242.84,"velocity":0.7874015748031497},{"duration":0.06749999999999545,"durationTicks":120,"midi":89,"name":"F6","ticks":430200,"time":242.90750000000003,"velocity":0.7874015748031497},{"duration":0.06749999999999545,"durationTicks":120,"midi":85,"name":"C#6","ticks":430320,"time":242.97500000000002,"velocity":0.7874015748031497},{"duration":0.06749999999999545,"durationTicks":120,"midi":92,"name":"G#6","ticks":430440,"time":243.04250000000002,"velocity":0.7874015748031497},{"duration":0.06749999999999545,"durationTicks":120,"midi":89,"name":"F6","ticks":430560,"time":243.11,"velocity":0.7874015748031497},{"duration":0.06749999999999545,"durationTicks":120,"midi":85,"name":"C#6","ticks":430680,"time":243.1775,"velocity":0.7874015748031497},{"duration":0.06750000000002387,"durationTicks":120,"midi":92,"name":"G#6","ticks":430800,"time":243.245,"velocity":0.7874015748031497},{"duration":0.06749999999999545,"durationTicks":120,"midi":89,"name":"F6","ticks":430920,"time":243.31250000000003,"velocity":0.7874015748031497},{"duration":0.06749999999999545,"durationTicks":120,"midi":85,"name":"C#6","ticks":431040,"time":243.38000000000002,"velocity":0.7874015748031497},{"duration":0.06749999999999545,"durationTicks":120,"midi":89,"name":"F6","ticks":431160,"time":243.44750000000002,"velocity":0.7874015748031497},{"duration":0.06749999999999545,"durationTicks":120,"midi":85,"name":"C#6","ticks":431280,"time":243.51500000000001,"velocity":0.7874015748031497},{"duration":0.06749999999999545,"durationTicks":120,"midi":85,"name":"C#6","ticks":431400,"time":243.5825,"velocity":0.7874015748031497},{"duration":0.06750000000002387,"durationTicks":120,"midi":89,"name":"F6","ticks":431520,"time":243.65,"velocity":0.7874015748031497},{"duration":0.06749999999999545,"durationTicks":120,"midi":85,"name":"C#6","ticks":431640,"time":243.71750000000003,"velocity":0.7874015748031497},{"duration":0.06749999999999545,"durationTicks":120,"midi":89,"name":"F6","ticks":431760,"time":243.78500000000003,"velocity":0.7874015748031497},{"duration":0.06749999999999545,"durationTicks":120,"midi":85,"name":"C#6","ticks":431880,"time":243.85250000000002,"velocity":0.7874015748031497},{"duration":0.06749999999999545,"durationTicks":120,"midi":90,"name":"F#6","ticks":432000,"time":243.92000000000002,"velocity":0.7874015748031497},{"duration":0.06749999999999545,"durationTicks":120,"midi":85,"name":"C#6","ticks":432120,"time":243.9875,"velocity":0.7874015748031497},{"duration":0.06749999999999545,"durationTicks":120,"midi":90,"name":"F#6","ticks":432240,"time":244.055,"velocity":0.7874015748031497},{"duration":0.06749999999999545,"durationTicks":120,"midi":92,"name":"G#6","ticks":432480,"time":244.19000000000003,"velocity":0.7874015748031497},{"duration":0.06749999999999545,"durationTicks":120,"midi":85,"name":"C#6","ticks":432600,"time":244.25750000000002,"velocity":0.7874015748031497},{"duration":0.06749999999999545,"durationTicks":120,"midi":92,"name":"G#6","ticks":432720,"time":244.32500000000002,"velocity":0.7874015748031497},{"duration":0.06749999999999545,"durationTicks":120,"midi":94,"name":"A#6","ticks":432960,"time":244.46,"velocity":0.7874015748031497},{"duration":0.06750000000002387,"durationTicks":120,"midi":85,"name":"C#6","ticks":433080,"time":244.5275,"velocity":0.7874015748031497},{"duration":0.06749999999999545,"durationTicks":120,"midi":94,"name":"A#6","ticks":433200,"time":244.59500000000003,"velocity":0.7874015748031497},{"duration":0.06749999999999545,"durationTicks":120,"midi":97,"name":"C#7","ticks":433440,"time":244.73000000000002,"velocity":0.7874015748031497},{"duration":0.06749999999999545,"durationTicks":120,"midi":85,"name":"C#6","ticks":433560,"time":244.7975,"velocity":0.7874015748031497},{"duration":0.06749999999999545,"durationTicks":120,"midi":97,"name":"C#7","ticks":433680,"time":244.865,"velocity":0.7874015748031497},{"duration":0.09000000000000341,"durationTicks":160,"midi":96,"name":"C7","ticks":433920,"time":245.00000000000003,"velocity":0.7874015748031497},{"duration":0.08999999999997499,"durationTicks":160,"midi":97,"name":"C#7","ticks":434080,"time":245.09000000000003,"velocity":0.7874015748031497},{"duration":0.09000000000000341,"durationTicks":160,"midi":96,"name":"C7","ticks":434240,"time":245.18,"velocity":0.7874015748031497},{"duration":0.27000000000001023,"durationTicks":480,"midi":94,"name":"A#6","ticks":434400,"time":245.27,"velocity":0.7874015748031497},{"duration":0.06749999999999545,"durationTicks":120,"midi":92,"name":"G#6","ticks":434880,"time":245.54000000000002,"velocity":0.7874015748031497},{"duration":0.06749999999999545,"durationTicks":120,"midi":85,"name":"C#6","ticks":435000,"time":245.60750000000002,"velocity":0.7874015748031497},{"duration":0.06749999999999545,"durationTicks":120,"midi":92,"name":"G#6","ticks":435120,"time":245.675,"velocity":0.7874015748031497},{"duration":0.06750000000002387,"durationTicks":120,"midi":89,"name":"F6","ticks":435360,"time":245.81,"velocity":0.7874015748031497},{"duration":0.06749999999999545,"durationTicks":120,"midi":85,"name":"C#6","ticks":435480,"time":245.87750000000003,"velocity":0.7874015748031497},{"duration":0.06749999999999545,"durationTicks":120,"midi":90,"name":"F#6","ticks":435600,"time":245.94500000000002,"velocity":0.7874015748031497},{"duration":0.06749999999999545,"durationTicks":120,"midi":89,"name":"F6","ticks":435840,"time":246.08,"velocity":0.7874015748031497},{"duration":0.06749999999999545,"durationTicks":120,"midi":81,"name":"A5","ticks":435960,"time":246.1475,"velocity":0.7874015748031497},{"duration":0.06750000000002387,"durationTicks":120,"midi":89,"name":"F6","ticks":436080,"time":246.215,"velocity":0.7874015748031497},{"duration":0.06749999999999545,"durationTicks":120,"midi":93,"name":"A6","ticks":436320,"time":246.35000000000002,"velocity":0.7874015748031497},{"duration":0.06749999999999545,"durationTicks":120,"midi":81,"name":"A5","ticks":436440,"time":246.41750000000002,"velocity":0.7874015748031497},{"duration":0.06749999999999545,"durationTicks":120,"midi":93,"name":"A6","ticks":436560,"time":246.485,"velocity":0.7874015748031497},{"duration":0.06750000000002387,"durationTicks":120,"midi":96,"name":"C7","ticks":436800,"time":246.62,"velocity":0.7874015748031497},{"duration":0.06749999999999545,"durationTicks":120,"midi":81,"name":"A5","ticks":436920,"time":246.68750000000003,"velocity":0.7874015748031497},{"duration":0.06749999999999545,"durationTicks":120,"midi":96,"name":"C7","ticks":437040,"time":246.75500000000002,"velocity":0.7874015748031497},{"duration":0.06749999999999545,"durationTicks":120,"midi":89,"name":"F6","ticks":437280,"time":246.89000000000001,"velocity":0.7874015748031497},{"duration":0.06749999999999545,"durationTicks":120,"midi":81,"name":"A5","ticks":437400,"time":246.9575,"velocity":0.7874015748031497},{"duration":0.06750000000002387,"durationTicks":120,"midi":89,"name":"F6","ticks":437520,"time":247.025,"velocity":0.7874015748031497},{"duration":0.06749999999999545,"durationTicks":120,"midi":99,"name":"D#7","ticks":437760,"time":247.16000000000003,"velocity":0.7874015748031497},{"duration":0.06749999999999545,"durationTicks":120,"midi":94,"name":"A#6","ticks":437880,"time":247.22750000000002,"velocity":0.7874015748031497},{"duration":0.06749999999999545,"durationTicks":120,"midi":99,"name":"D#7","ticks":438000,"time":247.29500000000002,"velocity":0.7874015748031497},{"duration":0.06749999999999545,"durationTicks":120,"midi":97,"name":"C#7","ticks":438240,"time":247.43,"velocity":0.7874015748031497},{"duration":0.06750000000002387,"durationTicks":120,"midi":94,"name":"A#6","ticks":438360,"time":247.4975,"velocity":0.7874015748031497},{"duration":0.06749999999999545,"durationTicks":120,"midi":97,"name":"C#7","ticks":438480,"time":247.56500000000003,"velocity":0.7874015748031497},{"duration":0.06749999999999545,"durationTicks":120,"midi":96,"name":"C7","ticks":438720,"time":247.70000000000002,"velocity":0.7874015748031497},{"duration":0.06749999999999545,"durationTicks":120,"midi":94,"name":"A#6","ticks":438840,"time":247.7675,"velocity":0.7874015748031497},{"duration":0.06749999999999545,"durationTicks":120,"midi":96,"name":"C7","ticks":438960,"time":247.835,"velocity":0.7874015748031497},{"duration":0.06749999999999545,"durationTicks":120,"midi":97,"name":"C#7","ticks":439200,"time":247.97000000000003,"velocity":0.7874015748031497},{"duration":0.06749999999999545,"durationTicks":120,"midi":94,"name":"A#6","ticks":439320,"time":248.03750000000002,"velocity":0.7874015748031497},{"duration":0.06749999999999545,"durationTicks":120,"midi":97,"name":"C#7","ticks":439440,"time":248.10500000000002,"velocity":0.7874015748031497},{"duration":0.06749999999999545,"durationTicks":120,"midi":101,"name":"F7","ticks":439680,"time":248.24,"velocity":0.7874015748031497},{"duration":0.06750000000002387,"durationTicks":120,"midi":97,"name":"C#7","ticks":439800,"time":248.3075,"velocity":0.7874015748031497},{"duration":0.06749999999999545,"durationTicks":120,"midi":94,"name":"A#6","ticks":439920,"time":248.37500000000003,"velocity":0.7874015748031497},{"duration":0.06749999999999545,"durationTicks":120,"midi":101,"name":"F7","ticks":440040,"time":248.44250000000002,"velocity":0.7874015748031497},{"duration":0.06749999999999545,"durationTicks":120,"midi":97,"name":"C#7","ticks":440160,"time":248.51000000000002,"velocity":0.7874015748031497},{"duration":0.06749999999999545,"durationTicks":120,"midi":94,"name":"A#6","ticks":440280,"time":248.57750000000001,"velocity":0.7874015748031497},{"duration":0.06749999999999545,"durationTicks":120,"midi":101,"name":"F7","ticks":440400,"time":248.645,"velocity":0.7874015748031497},{"duration":0.06750000000002387,"durationTicks":120,"midi":97,"name":"C#7","ticks":440520,"time":248.7125,"velocity":0.7874015748031497},{"duration":0.06749999999999545,"durationTicks":120,"midi":94,"name":"A#6","ticks":440640,"time":248.78000000000003,"velocity":0.7874015748031497},{"duration":0.06749999999999545,"durationTicks":120,"midi":97,"name":"C#7","ticks":440760,"time":248.84750000000003,"velocity":0.7874015748031497},{"duration":0.06749999999999545,"durationTicks":120,"midi":94,"name":"A#6","ticks":440880,"time":248.91500000000002,"velocity":0.7874015748031497},{"duration":0.06749999999999545,"durationTicks":120,"midi":94,"name":"A#6","ticks":441000,"time":248.98250000000002,"velocity":0.7874015748031497},{"duration":0.06749999999999545,"durationTicks":120,"midi":97,"name":"C#7","ticks":441120,"time":249.05,"velocity":0.6929133858267716},{"duration":0.06749999999999545,"durationTicks":120,"midi":94,"name":"A#6","ticks":441240,"time":249.1175,"velocity":0.6929133858267716},{"duration":0.06750000000002387,"durationTicks":120,"midi":97,"name":"C#7","ticks":441360,"time":249.185,"velocity":0.6929133858267716},{"duration":0.06749999999999545,"durationTicks":120,"midi":99,"name":"D#7","ticks":441480,"time":249.25250000000003,"velocity":0.7874015748031497},{"duration":0.06749999999999545,"durationTicks":120,"midi":101,"name":"F7","ticks":441600,"time":249.32000000000002,"velocity":0.7874015748031497},{"duration":0.06749999999999545,"durationTicks":120,"midi":97,"name":"C#7","ticks":441720,"time":249.38750000000002,"velocity":0.7874015748031497},{"duration":0.06749999999999545,"durationTicks":120,"midi":101,"name":"F7","ticks":441840,"time":249.455,"velocity":0.7874015748031497},{"duration":0.06749999999999545,"durationTicks":120,"midi":97,"name":"C#7","ticks":441960,"time":249.5225,"velocity":0.7874015748031497},{"duration":0.06750000000002387,"durationTicks":120,"midi":94,"name":"A#6","ticks":442080,"time":249.59,"velocity":0.7874015748031497},{"duration":0.06749999999999545,"durationTicks":120,"midi":91,"name":"G6","ticks":442200,"time":249.65750000000003,"velocity":0.7874015748031497},{"duration":0.06749999999999545,"durationTicks":120,"midi":94,"name":"A#6","ticks":442320,"time":249.72500000000002,"velocity":0.7874015748031497},{"duration":0.06749999999999545,"durationTicks":120,"midi":91,"name":"G6","ticks":442440,"time":249.79250000000002,"velocity":0.7874015748031497},{"duration":0.06749999999999545,"durationTicks":120,"midi":101,"name":"F7","ticks":442560,"time":249.86,"velocity":0.7874015748031497},{"duration":0.06749999999999545,"durationTicks":120,"midi":97,"name":"C#7","ticks":442680,"time":249.9275,"velocity":0.7874015748031497},{"duration":0.06750000000002387,"durationTicks":120,"midi":94,"name":"A#6","ticks":442800,"time":249.995,"velocity":0.7874015748031497},{"duration":0.06749999999999545,"durationTicks":120,"midi":102,"name":"F#7","ticks":442920,"time":250.06250000000003,"velocity":0.7874015748031497},{"duration":0.06749999999999545,"durationTicks":120,"midi":97,"name":"C#7","ticks":443040,"time":250.13000000000002,"velocity":0.7874015748031497},{"duration":0.06749999999999545,"durationTicks":120,"midi":94,"name":"A#6","ticks":443160,"time":250.19750000000002,"velocity":0.7874015748031497},{"duration":0.06749999999999545,"durationTicks":120,"midi":97,"name":"C#7","ticks":443280,"time":250.26500000000001,"velocity":0.7874015748031497},{"duration":0.06749999999999545,"durationTicks":120,"midi":94,"name":"A#6","ticks":443400,"time":250.3325,"velocity":0.6929133858267716},{"duration":0.06750000000002387,"durationTicks":120,"midi":101,"name":"F7","ticks":443520,"time":250.4,"velocity":0.6929133858267716},{"duration":0.06749999999999545,"durationTicks":120,"midi":97,"name":"C#7","ticks":443640,"time":250.46750000000003,"velocity":0.7874015748031497},{"duration":0.06749999999999545,"durationTicks":120,"midi":92,"name":"G#6","ticks":443760,"time":250.53500000000003,"velocity":0.7874015748031497},{"duration":0.06749999999999545,"durationTicks":120,"midi":101,"name":"F7","ticks":443880,"time":250.60250000000002,"velocity":0.7874015748031497},{"duration":0.06749999999999545,"durationTicks":120,"midi":97,"name":"C#7","ticks":444000,"time":250.67000000000002,"velocity":0.7874015748031497},{"duration":0.06749999999999545,"durationTicks":120,"midi":92,"name":"G#6","ticks":444120,"time":250.7375,"velocity":0.7874015748031497},{"duration":0.06749999999999545,"durationTicks":120,"midi":101,"name":"F7","ticks":444240,"time":250.805,"velocity":0.7874015748031497},{"duration":0.06750000000002387,"durationTicks":120,"midi":97,"name":"C#7","ticks":444360,"time":250.8725,"velocity":0.7874015748031497},{"duration":0.06749999999999545,"durationTicks":120,"midi":92,"name":"G#6","ticks":444480,"time":250.94000000000003,"velocity":0.7874015748031497},{"duration":0.06749999999999545,"durationTicks":120,"midi":99,"name":"D#7","ticks":444600,"time":251.00750000000002,"velocity":0.7874015748031497},{"duration":0.06749999999999545,"durationTicks":120,"midi":96,"name":"C7","ticks":444720,"time":251.07500000000002,"velocity":0.7874015748031497},{"duration":0.06749999999999545,"durationTicks":120,"midi":92,"name":"G#6","ticks":444840,"time":251.1425,"velocity":0.7874015748031497},{"duration":0.06749999999999545,"durationTicks":120,"midi":101,"name":"F7","ticks":444960,"time":251.21,"velocity":0.7874015748031497},{"duration":0.06750000000002387,"durationTicks":120,"midi":96,"name":"C7","ticks":445080,"time":251.2775,"velocity":0.7874015748031497},{"duration":0.1349999999999909,"durationTicks":240,"midi":99,"name":"D#7","ticks":445200,"time":251.34500000000003,"velocity":0.7874015748031497},{"duration":0.06749999999999545,"durationTicks":120,"midi":104,"name":"G#7","ticks":445440,"time":251.48000000000002,"velocity":0.7874015748031497},{"duration":0.06749999999999545,"durationTicks":120,"midi":97,"name":"C#7","ticks":445560,"time":251.5475,"velocity":0.7874015748031497},{"duration":0.06749999999999545,"durationTicks":120,"midi":104,"name":"G#7","ticks":445680,"time":251.615,"velocity":0.7874015748031497},{"duration":0.06749999999999545,"durationTicks":120,"midi":102,"name":"F#7","ticks":445920,"time":251.75000000000003,"velocity":0.7874015748031497},{"duration":0.06749999999999545,"durationTicks":120,"midi":97,"name":"C#7","ticks":446040,"time":251.81750000000002,"velocity":0.7874015748031497},{"duration":0.06749999999999545,"durationTicks":120,"midi":102,"name":"F#7","ticks":446160,"time":251.88500000000002,"velocity":0.7874015748031497},{"duration":0.06749999999999545,"durationTicks":120,"midi":101,"name":"F7","ticks":446400,"time":252.02,"velocity":0.7874015748031497},{"duration":0.06750000000002387,"durationTicks":120,"midi":97,"name":"C#7","ticks":446520,"time":252.0875,"velocity":0.7874015748031497},{"duration":0.06749999999999545,"durationTicks":120,"midi":101,"name":"F7","ticks":446640,"time":252.15500000000003,"velocity":0.7874015748031497},{"duration":0.06749999999999545,"durationTicks":120,"midi":99,"name":"D#7","ticks":446880,"time":252.29000000000002,"velocity":0.7874015748031497},{"duration":0.06749999999999545,"durationTicks":120,"midi":97,"name":"C#7","ticks":447000,"time":252.35750000000002,"velocity":0.7874015748031497},{"duration":0.06749999999999545,"durationTicks":120,"midi":99,"name":"D#7","ticks":447120,"time":252.425,"velocity":0.7874015748031497},{"duration":0.27000000000001023,"durationTicks":480,"midi":68,"name":"G#4","ticks":447360,"time":252.56,"velocity":0.6929133858267716},{"duration":0.27000000000001023,"durationTicks":480,"midi":80,"name":"G#5","ticks":447360,"time":252.56,"velocity":0.7874015748031497},{"duration":0.27000000000001023,"durationTicks":480,"midi":72,"name":"C5","ticks":447840,"time":252.83,"velocity":0.6929133858267716},{"duration":0.27000000000001023,"durationTicks":480,"midi":84,"name":"C6","ticks":447840,"time":252.83,"velocity":0.7874015748031497},{"duration":0.2699999999999818,"durationTicks":480,"midi":75,"name":"D#5","ticks":448320,"time":253.10000000000002,"velocity":0.6929133858267716},{"duration":0.2699999999999818,"durationTicks":480,"midi":87,"name":"D#6","ticks":448320,"time":253.10000000000002,"velocity":0.7874015748031497},{"duration":0.27000000000001023,"durationTicks":480,"midi":78,"name":"F#5","ticks":448800,"time":253.37,"velocity":0.6929133858267716},{"duration":0.27000000000001023,"durationTicks":480,"midi":90,"name":"F#6","ticks":448800,"time":253.37,"velocity":0.7874015748031497},{"duration":0.27000000000001023,"durationTicks":480,"midi":68,"name":"G#4","ticks":449280,"time":253.64000000000001,"velocity":0.6929133858267716},{"duration":0.27000000000001023,"durationTicks":480,"midi":80,"name":"G#5","ticks":449280,"time":253.64000000000001,"velocity":0.7874015748031497},{"duration":0.27000000000001023,"durationTicks":480,"midi":92,"name":"G#6","ticks":449280,"time":253.64000000000001,"velocity":0.6929133858267716},{"duration":0.2699999999999818,"durationTicks":480,"midi":72,"name":"C5","ticks":449760,"time":253.91000000000003,"velocity":0.6929133858267716},{"duration":0.2699999999999818,"durationTicks":480,"midi":84,"name":"C6","ticks":449760,"time":253.91000000000003,"velocity":0.7874015748031497},{"duration":0.27000000000001023,"durationTicks":480,"midi":75,"name":"D#5","ticks":450240,"time":254.18,"velocity":0.6929133858267716},{"duration":0.27000000000001023,"durationTicks":480,"midi":87,"name":"D#6","ticks":450240,"time":254.18,"velocity":0.7874015748031497},{"duration":0.27000000000001023,"durationTicks":480,"midi":78,"name":"F#5","ticks":450720,"time":254.45000000000002,"velocity":0.6929133858267716},{"duration":0.27000000000001023,"durationTicks":480,"midi":90,"name":"F#6","ticks":450720,"time":254.45000000000002,"velocity":0.7874015748031497},{"duration":0.2699999999999818,"durationTicks":480,"midi":72,"name":"C5","ticks":451200,"time":254.72000000000003,"velocity":0.7874015748031497},{"duration":0.2699999999999818,"durationTicks":480,"midi":84,"name":"C6","ticks":451200,"time":254.72000000000003,"velocity":0.7874015748031497},{"duration":0.2699999999999818,"durationTicks":480,"midi":92,"name":"G#6","ticks":451200,"time":254.72000000000003,"velocity":0.6929133858267716},{"duration":0.27000000000001023,"durationTicks":480,"midi":75,"name":"D#5","ticks":451680,"time":254.99,"velocity":0.7874015748031497},{"duration":0.27000000000001023,"durationTicks":480,"midi":87,"name":"D#6","ticks":451680,"time":254.99,"velocity":0.7874015748031497},{"duration":0.27000000000001023,"durationTicks":480,"midi":80,"name":"G#5","ticks":452160,"time":255.26000000000002,"velocity":0.7874015748031497},{"duration":0.27000000000001023,"durationTicks":480,"midi":92,"name":"G#6","ticks":452160,"time":255.26000000000002,"velocity":0.7874015748031497},{"duration":0.2699999999999818,"durationTicks":480,"midi":82,"name":"A#5","ticks":452640,"time":255.53000000000003,"velocity":0.7874015748031497},{"duration":0.2699999999999818,"durationTicks":480,"midi":94,"name":"A#6","ticks":452640,"time":255.53000000000003,"velocity":0.7874015748031497},{"duration":0.27000000000003865,"durationTicks":480,"midi":84,"name":"C6","ticks":453120,"time":255.8,"velocity":0.7874015748031497},{"duration":0.27000000000003865,"durationTicks":480,"midi":96,"name":"C7","ticks":453120,"time":255.8,"velocity":0.7874015748031497},{"duration":0.2699999999999818,"durationTicks":480,"midi":87,"name":"D#6","ticks":453600,"time":256.07000000000005,"velocity":0.7874015748031497},{"duration":0.2699999999999818,"durationTicks":480,"midi":99,"name":"D#7","ticks":453600,"time":256.07000000000005,"velocity":0.7874015748031497},{"duration":0.2699999999999818,"durationTicks":480,"midi":92,"name":"G#6","ticks":454080,"time":256.34000000000003,"velocity":0.7874015748031497},{"duration":0.2699999999999818,"durationTicks":480,"midi":104,"name":"G#7","ticks":454080,"time":256.34000000000003,"velocity":0.7874015748031497},{"duration":0.2699999999999818,"durationTicks":480,"midi":96,"name":"C7","ticks":454560,"time":256.61,"velocity":0.7874015748031497},{"duration":0.2699999999999818,"durationTicks":480,"midi":108,"name":"C8","ticks":454560,"time":256.61,"velocity":0.7874015748031497},{"duration":4.32000000000005,"durationTicks":7680,"midi":109,"name":"C#8","ticks":455040,"time":256.88,"velocity":0.8188976377952756},{"duration":4.32000000000005,"durationTicks":7680,"midi":97,"name":"C#7","ticks":455040,"time":256.88,"velocity":0.8188976377952756}],"endOfTrackTicks":462720},{"channel":1,"controlChanges":{"0":[{"number":0,"ticks":120,"time":0.125,"value":0}],"1":[{"number":1,"ticks":350,"time":0.3645833333333333,"value":0}],"6":[{"number":6,"ticks":360,"time":0.375,"value":0.09448818897637795}],"7":[{"number":7,"ticks":250,"time":0.2604166666666667,"value":0.7874015748031497}],"10":[{"number":10,"ticks":240,"time":0.25,"value":0.5039370078740157}],"11":[{"number":11,"ticks":340,"time":0.3541666666666667,"value":1}],"32":[{"number":32,"ticks":120,"time":0.125,"value":0}],"64":[{"number":64,"ticks":0,"time":0,"value":0}],"70":[{"number":70,"ticks":310,"time":0.3229166666666667,"value":0.5039370078740157}],"72":[{"number":72,"ticks":330,"time":0.34375,"value":0.5039370078740157}],"73":[{"number":73,"ticks":290,"time":0.3020833333333333,"value":0.5039370078740157}],"74":[{"number":74,"ticks":280,"time":0.2916666666666667,"value":0.5039370078740157}],"75":[{"number":75,"ticks":300,"time":0.3125,"value":0.5039370078740157}],"76":[{"number":76,"ticks":320,"time":0.3333333333333333,"value":0.5039370078740157}],"91":[{"number":91,"ticks":260,"time":0.2708333333333333,"value":0.47244094488188976}],"93":[{"number":93,"ticks":270,"time":0.28125,"value":0}],"100":[{"number":100,"ticks":360,"time":0.375,"value":0},{"number":100,"ticks":380,"time":0.3958333333333333,"value":1}],"101":[{"number":101,"ticks":360,"time":0.375,"value":0},{"number":101,"ticks":380,"time":0.3958333333333333,"value":1}],"123":[{"number":123,"ticks":60,"time":0.0625,"value":0}]},"pitchBends":[{"ticks":370,"time":0.3854166666666667,"value":0}],"instrument":{"family":"piano","number":0,"name":"acoustic grand piano"},"name":"","notes":[{"duration":0.1349999999999998,"durationTicks":240,"midi":43,"name":"G2","ticks":1920,"time":2,"velocity":0.7874015748031497},{"duration":0.13500000000000023,"durationTicks":240,"midi":55,"name":"G3","ticks":2160,"time":2.135,"velocity":0.7874015748031497},{"duration":0.13500000000000023,"durationTicks":240,"midi":50,"name":"D3","ticks":2160,"time":2.135,"velocity":0.7874015748031497},{"duration":0.13500000000000023,"durationTicks":240,"midi":43,"name":"G2","ticks":2400,"time":2.27,"velocity":0.7874015748031497},{"duration":0.1349999999999998,"durationTicks":240,"midi":55,"name":"G3","ticks":2640,"time":2.4050000000000002,"velocity":0.7874015748031497},{"duration":0.1349999999999998,"durationTicks":240,"midi":50,"name":"D3","ticks":2640,"time":2.4050000000000002,"velocity":0.7874015748031497},{"duration":0.1349999999999998,"durationTicks":240,"midi":43,"name":"G2","ticks":2880,"time":2.54,"velocity":0.7874015748031497},{"duration":0.1349999999999998,"durationTicks":240,"midi":55,"name":"G3","ticks":3130,"time":2.680625,"velocity":0.7874015748031497},{"duration":0.1349999999999998,"durationTicks":240,"midi":50,"name":"D3","ticks":3130,"time":2.680625,"velocity":0.7874015748031497},{"duration":0.13500000000000023,"durationTicks":240,"midi":43,"name":"G2","ticks":3360,"time":2.81,"velocity":0.7874015748031497},{"duration":0.13500000000000023,"durationTicks":240,"midi":55,"name":"G3","ticks":3610,"time":2.950625,"velocity":0.7874015748031497},{"duration":0.13500000000000023,"durationTicks":240,"midi":50,"name":"D3","ticks":3610,"time":2.950625,"velocity":0.7874015748031497},{"duration":0.1349999999999998,"durationTicks":240,"midi":43,"name":"G2","ticks":3840,"time":3.08,"velocity":0.7874015748031497},{"duration":0.13500000000000023,"durationTicks":240,"midi":55,"name":"G3","ticks":4080,"time":3.215,"velocity":0.7874015748031497},{"duration":0.13500000000000023,"durationTicks":240,"midi":50,"name":"D3","ticks":4080,"time":3.215,"velocity":0.7874015748031497},{"duration":0.13500000000000023,"durationTicks":240,"midi":43,"name":"G2","ticks":4320,"time":3.35,"velocity":0.7874015748031497},{"duration":0.1349999999999998,"durationTicks":240,"midi":55,"name":"G3","ticks":4560,"time":3.4850000000000003,"velocity":0.7874015748031497},{"duration":0.1349999999999998,"durationTicks":240,"midi":50,"name":"D3","ticks":4560,"time":3.4850000000000003,"velocity":0.7874015748031497},{"duration":0.1349999999999998,"durationTicks":240,"midi":43,"name":"G2","ticks":4800,"time":3.62,"velocity":0.7874015748031497},{"duration":0.13500000000000023,"durationTicks":240,"midi":55,"name":"G3","ticks":5040,"time":3.755,"velocity":0.7874015748031497},{"duration":0.13500000000000023,"durationTicks":240,"midi":50,"name":"D3","ticks":5040,"time":3.755,"velocity":0.7874015748031497},{"duration":0.13500000000000023,"durationTicks":240,"midi":43,"name":"G2","ticks":5280,"time":3.89,"velocity":0.7874015748031497},{"duration":0.1349999999999998,"durationTicks":240,"midi":55,"name":"G3","ticks":5520,"time":4.025,"velocity":0.7874015748031497},{"duration":0.1349999999999998,"durationTicks":240,"midi":50,"name":"D3","ticks":5520,"time":4.025,"velocity":0.7874015748031497},{"duration":0.1349999999999998,"durationTicks":240,"midi":43,"name":"G2","ticks":5760,"time":4.16,"velocity":0.7874015748031497},{"duration":0.1349999999999998,"durationTicks":240,"midi":55,"name":"G3","ticks":6010,"time":4.300625,"velocity":0.7874015748031497},{"duration":0.1349999999999998,"durationTicks":240,"midi":50,"name":"D3","ticks":6010,"time":4.300625,"velocity":0.7874015748031497},{"duration":0.13500000000000068,"durationTicks":240,"midi":43,"name":"G2","ticks":6240,"time":4.43,"velocity":0.7874015748031497},{"duration":0.13500000000000068,"durationTicks":240,"midi":55,"name":"G3","ticks":6490,"time":4.570625,"velocity":0.7874015748031497},{"duration":0.13500000000000068,"durationTicks":240,"midi":50,"name":"D3","ticks":6490,"time":4.570625,"velocity":0.7874015748031497},{"duration":0.1349999999999998,"durationTicks":240,"midi":43,"name":"G2","ticks":6720,"time":4.7,"velocity":0.7874015748031497},{"duration":0.13500000000000068,"durationTicks":240,"midi":55,"name":"G3","ticks":6960,"time":4.835,"velocity":0.7874015748031497},{"duration":0.13500000000000068,"durationTicks":240,"midi":50,"name":"D3","ticks":6960,"time":4.835,"velocity":0.7874015748031497},{"duration":0.1349999999999998,"durationTicks":240,"midi":43,"name":"G2","ticks":7200,"time":4.970000000000001,"velocity":0.7874015748031497},{"duration":0.1349999999999998,"durationTicks":240,"midi":55,"name":"G3","ticks":7440,"time":5.105,"velocity":0.7874015748031497},{"duration":0.1349999999999998,"durationTicks":240,"midi":50,"name":"D3","ticks":7440,"time":5.105,"velocity":0.7874015748031497},{"duration":0.1349999999999998,"durationTicks":240,"midi":43,"name":"G2","ticks":7680,"time":5.24,"velocity":0.7874015748031497},{"duration":0.1349999999999998,"durationTicks":240,"midi":55,"name":"G3","ticks":7920,"time":5.375,"velocity":0.7874015748031497},{"duration":0.1349999999999998,"durationTicks":240,"midi":50,"name":"D3","ticks":7920,"time":5.375,"velocity":0.7874015748031497},{"duration":0.13500000000000068,"durationTicks":240,"midi":43,"name":"G2","ticks":8160,"time":5.51,"velocity":0.7874015748031497},{"duration":0.1349999999999998,"durationTicks":240,"midi":55,"name":"G3","ticks":8400,"time":5.6450000000000005,"velocity":0.7874015748031497},{"duration":0.1349999999999998,"durationTicks":240,"midi":50,"name":"D3","ticks":8400,"time":5.6450000000000005,"velocity":0.7874015748031497},{"duration":0.1349999999999998,"durationTicks":240,"midi":43,"name":"G2","ticks":8640,"time":5.78,"velocity":0.7874015748031497},{"duration":0.1349999999999998,"durationTicks":240,"midi":55,"name":"G3","ticks":8890,"time":5.920625,"velocity":0.7874015748031497},{"duration":0.1349999999999998,"durationTicks":240,"midi":50,"name":"D3","ticks":8890,"time":5.920625,"velocity":0.7874015748031497},{"duration":0.1349999999999998,"durationTicks":240,"midi":43,"name":"G2","ticks":9120,"time":6.050000000000001,"velocity":0.7874015748031497},{"duration":0.1349999999999989,"durationTicks":240,"midi":55,"name":"G3","ticks":9370,"time":6.190625000000001,"velocity":0.7874015748031497},{"duration":0.1349999999999989,"durationTicks":240,"midi":50,"name":"D3","ticks":9370,"time":6.190625000000001,"velocity":0.7874015748031497},{"duration":0.1349999999999998,"durationTicks":240,"midi":43,"name":"G2","ticks":9600,"time":6.32,"velocity":0.7874015748031497},{"duration":0.1349999999999998,"durationTicks":240,"midi":55,"name":"G3","ticks":9840,"time":6.455,"velocity":0.7874015748031497},{"duration":0.1349999999999998,"durationTicks":240,"midi":50,"name":"D3","ticks":9840,"time":6.455,"velocity":0.7874015748031497},{"duration":0.13500000000000068,"durationTicks":240,"midi":43,"name":"G2","ticks":10080,"time":6.59,"velocity":0.7874015748031497},{"duration":0.1349999999999998,"durationTicks":240,"midi":55,"name":"G3","ticks":10320,"time":6.7250000000000005,"velocity":0.7874015748031497},{"duration":0.1349999999999998,"durationTicks":240,"midi":50,"name":"D3","ticks":10320,"time":6.7250000000000005,"velocity":0.7874015748031497},{"duration":0.1349999999999998,"durationTicks":240,"midi":43,"name":"G2","ticks":10560,"time":6.86,"velocity":0.7874015748031497},{"duration":0.13500000000000068,"durationTicks":240,"midi":55,"name":"G3","ticks":10800,"time":6.995,"velocity":0.7874015748031497},{"duration":0.13500000000000068,"durationTicks":240,"midi":50,"name":"D3","ticks":10800,"time":6.995,"velocity":0.7874015748031497},{"duration":0.1349999999999998,"durationTicks":240,"midi":43,"name":"G2","ticks":11040,"time":7.130000000000001,"velocity":0.7874015748031497},{"duration":0.1349999999999998,"durationTicks":240,"midi":55,"name":"G3","ticks":11280,"time":7.265000000000001,"velocity":0.7874015748031497},{"duration":0.1349999999999998,"durationTicks":240,"midi":50,"name":"D3","ticks":11280,"time":7.265000000000001,"velocity":0.7874015748031497},{"duration":0.1349999999999998,"durationTicks":240,"midi":43,"name":"G2","ticks":11520,"time":7.4,"velocity":0.7874015748031497},{"duration":0.1349999999999998,"durationTicks":240,"midi":55,"name":"G3","ticks":11770,"time":7.540625,"velocity":0.7874015748031497},{"duration":0.1349999999999998,"durationTicks":240,"midi":50,"name":"D3","ticks":11770,"time":7.540625,"velocity":0.7874015748031497},{"duration":0.13500000000000068,"durationTicks":240,"midi":43,"name":"G2","ticks":12000,"time":7.67,"velocity":0.7874015748031497},{"duration":0.1349999999999998,"durationTicks":240,"midi":55,"name":"G3","ticks":12250,"time":7.810625,"velocity":0.7874015748031497},{"duration":0.1349999999999998,"durationTicks":240,"midi":50,"name":"D3","ticks":12250,"time":7.810625,"velocity":0.7874015748031497},{"duration":0.1349999999999989,"durationTicks":240,"midi":43,"name":"G2","ticks":12480,"time":7.94,"velocity":0.7874015748031497},{"duration":0.13500000000000156,"durationTicks":240,"midi":55,"name":"G3","ticks":12720,"time":8.075,"velocity":0.7874015748031497},{"duration":0.13500000000000156,"durationTicks":240,"midi":50,"name":"D3","ticks":12720,"time":8.075,"velocity":0.7874015748031497},{"duration":0.1349999999999998,"durationTicks":240,"midi":43,"name":"G2","ticks":12960,"time":8.21,"velocity":0.7874015748031497},{"duration":0.1349999999999998,"durationTicks":240,"midi":55,"name":"G3","ticks":13200,"time":8.345,"velocity":0.7874015748031497},{"duration":0.1349999999999998,"durationTicks":240,"midi":50,"name":"D3","ticks":13200,"time":8.345,"velocity":0.7874015748031497},{"duration":0.1349999999999998,"durationTicks":240,"midi":43,"name":"G2","ticks":13440,"time":8.48,"velocity":0.7874015748031497},{"duration":0.1349999999999998,"durationTicks":240,"midi":55,"name":"G3","ticks":13680,"time":8.615,"velocity":0.7874015748031497},{"duration":0.1349999999999998,"durationTicks":240,"midi":50,"name":"D3","ticks":13680,"time":8.615,"velocity":0.7874015748031497},{"duration":0.13500000000000156,"durationTicks":240,"midi":43,"name":"G2","ticks":13920,"time":8.75,"velocity":0.7874015748031497},{"duration":0.134999999999998,"durationTicks":240,"midi":55,"name":"G3","ticks":14160,"time":8.885000000000002,"velocity":0.7874015748031497},{"duration":0.134999999999998,"durationTicks":240,"midi":50,"name":"D3","ticks":14160,"time":8.885000000000002,"velocity":0.7874015748031497},{"duration":0.13500000000000156,"durationTicks":240,"midi":43,"name":"G2","ticks":14400,"time":9.02,"velocity":0.7874015748031497},{"duration":0.13500000000000156,"durationTicks":240,"midi":55,"name":"G3","ticks":14650,"time":9.160625,"velocity":0.7874015748031497},{"duration":0.13500000000000156,"durationTicks":240,"midi":50,"name":"D3","ticks":14650,"time":9.160625,"velocity":0.7874015748031497},{"duration":0.1349999999999998,"durationTicks":240,"midi":43,"name":"G2","ticks":14880,"time":9.290000000000001,"velocity":0.7874015748031497},{"duration":0.13500000000000156,"durationTicks":240,"midi":55,"name":"G3","ticks":15130,"time":9.430625,"velocity":0.7874015748031497},{"duration":0.13500000000000156,"durationTicks":240,"midi":50,"name":"D3","ticks":15130,"time":9.430625,"velocity":0.7874015748031497},{"duration":0.1349999999999998,"durationTicks":240,"midi":43,"name":"G2","ticks":15360,"time":9.56,"velocity":0.7874015748031497},{"duration":0.1349999999999998,"durationTicks":240,"midi":55,"name":"G3","ticks":15600,"time":9.695,"velocity":0.7874015748031497},{"duration":0.1349999999999998,"durationTicks":240,"midi":50,"name":"D3","ticks":15600,"time":9.695,"velocity":0.7874015748031497},{"duration":0.1349999999999998,"durationTicks":240,"midi":43,"name":"G2","ticks":15840,"time":9.83,"velocity":0.7874015748031497},{"duration":0.13500000000000156,"durationTicks":240,"midi":55,"name":"G3","ticks":16080,"time":9.965,"velocity":0.7874015748031497},{"duration":0.13500000000000156,"durationTicks":240,"midi":50,"name":"D3","ticks":16080,"time":9.965,"velocity":0.7874015748031497},{"duration":0.1349999999999998,"durationTicks":240,"midi":43,"name":"G2","ticks":16320,"time":10.100000000000001,"velocity":0.7874015748031497},{"duration":0.1349999999999998,"durationTicks":240,"midi":55,"name":"G3","ticks":16560,"time":10.235000000000001,"velocity":0.7874015748031497},{"duration":0.1349999999999998,"durationTicks":240,"midi":50,"name":"D3","ticks":16560,"time":10.235000000000001,"velocity":0.7874015748031497},{"duration":0.1349999999999998,"durationTicks":240,"midi":43,"name":"G2","ticks":16800,"time":10.370000000000001,"velocity":0.7874015748031497},{"duration":0.1349999999999998,"durationTicks":240,"midi":55,"name":"G3","ticks":17040,"time":10.505,"velocity":0.7874015748031497},{"duration":0.1349999999999998,"durationTicks":240,"midi":50,"name":"D3","ticks":17040,"time":10.505,"velocity":0.7874015748031497},{"duration":0.1349999999999998,"durationTicks":240,"midi":43,"name":"G2","ticks":17280,"time":10.64,"velocity":0.7874015748031497},{"duration":0.1349999999999998,"durationTicks":240,"midi":55,"name":"G3","ticks":17530,"time":10.780625,"velocity":0.7874015748031497},{"duration":0.1349999999999998,"durationTicks":240,"midi":50,"name":"D3","ticks":17530,"time":10.780625,"velocity":0.7874015748031497},{"duration":0.1349999999999998,"durationTicks":240,"midi":43,"name":"G2","ticks":17760,"time":10.91,"velocity":0.7874015748031497},{"duration":0.1349999999999998,"durationTicks":240,"midi":55,"name":"G3","ticks":18010,"time":11.050625000000002,"velocity":0.7874015748031497},{"duration":0.1349999999999998,"durationTicks":240,"midi":50,"name":"D3","ticks":18010,"time":11.050625000000002,"velocity":0.7874015748031497},{"duration":0.13500000000000156,"durationTicks":240,"midi":43,"name":"G2","ticks":18240,"time":11.18,"velocity":0.7874015748031497},{"duration":0.1349999999999998,"durationTicks":240,"midi":55,"name":"G3","ticks":18480,"time":11.315000000000001,"velocity":0.7874015748031497},{"duration":0.1349999999999998,"durationTicks":240,"midi":50,"name":"D3","ticks":18480,"time":11.315000000000001,"velocity":0.7874015748031497},{"duration":0.1349999999999998,"durationTicks":240,"midi":43,"name":"G2","ticks":18720,"time":11.450000000000001,"velocity":0.7874015748031497},{"duration":0.1349999999999998,"durationTicks":240,"midi":55,"name":"G3","ticks":18960,"time":11.585,"velocity":0.7874015748031497},{"duration":0.1349999999999998,"durationTicks":240,"midi":50,"name":"D3","ticks":18960,"time":11.585,"velocity":0.7874015748031497},{"duration":0.1349999999999998,"durationTicks":240,"midi":43,"name":"G2","ticks":19200,"time":11.72,"velocity":0.7874015748031497},{"duration":0.1349999999999998,"durationTicks":240,"midi":55,"name":"G3","ticks":19440,"time":11.855,"velocity":0.7874015748031497},{"duration":0.1349999999999998,"durationTicks":240,"midi":50,"name":"D3","ticks":19440,"time":11.855,"velocity":0.7874015748031497},{"duration":0.1349999999999998,"durationTicks":240,"midi":43,"name":"G2","ticks":19680,"time":11.99,"velocity":0.7874015748031497},{"duration":0.13500000000000156,"durationTicks":240,"midi":55,"name":"G3","ticks":19920,"time":12.125,"velocity":0.7874015748031497},{"duration":0.13500000000000156,"durationTicks":240,"midi":50,"name":"D3","ticks":19920,"time":12.125,"velocity":0.7874015748031497},{"duration":0.1349999999999998,"durationTicks":240,"midi":43,"name":"G2","ticks":20160,"time":12.260000000000002,"velocity":0.7874015748031497},{"duration":0.1349999999999998,"durationTicks":240,"midi":55,"name":"G3","ticks":20410,"time":12.400625000000002,"velocity":0.7874015748031497},{"duration":0.1349999999999998,"durationTicks":240,"midi":50,"name":"D3","ticks":20410,"time":12.400625000000002,"velocity":0.7874015748031497},{"duration":0.1349999999999998,"durationTicks":240,"midi":43,"name":"G2","ticks":20640,"time":12.530000000000001,"velocity":0.7874015748031497},{"duration":0.1349999999999998,"durationTicks":240,"midi":55,"name":"G3","ticks":20890,"time":12.670625000000001,"velocity":0.7874015748031497},{"duration":0.1349999999999998,"durationTicks":240,"midi":50,"name":"D3","ticks":20890,"time":12.670625000000001,"velocity":0.7874015748031497},{"duration":0.1349999999999998,"durationTicks":240,"midi":43,"name":"G2","ticks":21120,"time":12.8,"velocity":0.7874015748031497},{"duration":0.1349999999999998,"durationTicks":240,"midi":55,"name":"G3","ticks":21360,"time":12.935,"velocity":0.7874015748031497},{"duration":0.1349999999999998,"durationTicks":240,"midi":50,"name":"D3","ticks":21360,"time":12.935,"velocity":0.7874015748031497},{"duration":0.1349999999999998,"durationTicks":240,"midi":43,"name":"G2","ticks":21600,"time":13.07,"velocity":0.7874015748031497},{"duration":0.1349999999999998,"durationTicks":240,"midi":55,"name":"G3","ticks":21840,"time":13.205,"velocity":0.7874015748031497},{"duration":0.1349999999999998,"durationTicks":240,"midi":50,"name":"D3","ticks":21840,"time":13.205,"velocity":0.7874015748031497},{"duration":0.13500000000000156,"durationTicks":240,"midi":43,"name":"G2","ticks":22080,"time":13.34,"velocity":0.7874015748031497},{"duration":0.1349999999999998,"durationTicks":240,"midi":55,"name":"G3","ticks":22320,"time":13.475000000000001,"velocity":0.7874015748031497},{"duration":0.1349999999999998,"durationTicks":240,"midi":50,"name":"D3","ticks":22320,"time":13.475000000000001,"velocity":0.7874015748031497},{"duration":0.1349999999999998,"durationTicks":240,"midi":43,"name":"G2","ticks":22560,"time":13.610000000000001,"velocity":0.7874015748031497},{"duration":0.1349999999999998,"durationTicks":240,"midi":55,"name":"G3","ticks":22800,"time":13.745000000000001,"velocity":0.7874015748031497},{"duration":0.1349999999999998,"durationTicks":240,"midi":50,"name":"D3","ticks":22800,"time":13.745000000000001,"velocity":0.7874015748031497},{"duration":0.1349999999999998,"durationTicks":240,"midi":43,"name":"G2","ticks":23040,"time":13.88,"velocity":0.7874015748031497},{"duration":0.1349999999999998,"durationTicks":240,"midi":55,"name":"G3","ticks":23290,"time":14.020625,"velocity":0.7874015748031497},{"duration":0.1349999999999998,"durationTicks":240,"midi":50,"name":"D3","ticks":23290,"time":14.020625,"velocity":0.7874015748031497},{"duration":0.1349999999999998,"durationTicks":240,"midi":43,"name":"G2","ticks":23520,"time":14.15,"velocity":0.7874015748031497},{"duration":0.1349999999999998,"durationTicks":240,"midi":55,"name":"G3","ticks":23770,"time":14.290625000000002,"velocity":0.7874015748031497},{"duration":0.1349999999999998,"durationTicks":240,"midi":50,"name":"D3","ticks":23770,"time":14.290625000000002,"velocity":0.7874015748031497},{"duration":0.1349999999999998,"durationTicks":240,"midi":43,"name":"G2","ticks":24000,"time":14.420000000000002,"velocity":0.7874015748031497},{"duration":0.1349999999999998,"durationTicks":240,"midi":55,"name":"G3","ticks":24240,"time":14.555000000000001,"velocity":0.7874015748031497},{"duration":0.1349999999999998,"durationTicks":240,"midi":50,"name":"D3","ticks":24240,"time":14.555000000000001,"velocity":0.7874015748031497},{"duration":0.1349999999999998,"durationTicks":240,"midi":43,"name":"G2","ticks":24480,"time":14.690000000000001,"velocity":0.7874015748031497},{"duration":0.1349999999999998,"durationTicks":240,"midi":55,"name":"G3","ticks":24720,"time":14.825000000000001,"velocity":0.7874015748031497},{"duration":0.1349999999999998,"durationTicks":240,"midi":50,"name":"D3","ticks":24720,"time":14.825000000000001,"velocity":0.7874015748031497},{"duration":0.1349999999999998,"durationTicks":240,"midi":43,"name":"G2","ticks":24960,"time":14.96,"velocity":0.7874015748031497},{"duration":0.1349999999999998,"durationTicks":240,"midi":55,"name":"G3","ticks":25200,"time":15.095,"velocity":0.7874015748031497},{"duration":0.1349999999999998,"durationTicks":240,"midi":50,"name":"D3","ticks":25200,"time":15.095,"velocity":0.7874015748031497},{"duration":0.1349999999999998,"durationTicks":240,"midi":43,"name":"G2","ticks":25440,"time":15.23,"velocity":0.7874015748031497},{"duration":0.1349999999999998,"durationTicks":240,"midi":55,"name":"G3","ticks":25680,"time":15.365,"velocity":0.7874015748031497},{"duration":0.1349999999999998,"durationTicks":240,"midi":50,"name":"D3","ticks":25680,"time":15.365,"velocity":0.7874015748031497},{"duration":0.13500000000000156,"durationTicks":240,"midi":43,"name":"G2","ticks":25920,"time":15.5,"velocity":0.7874015748031497},{"duration":0.1349999999999998,"durationTicks":240,"midi":55,"name":"G3","ticks":26170,"time":15.640625000000002,"velocity":0.7874015748031497},{"duration":0.1349999999999998,"durationTicks":240,"midi":50,"name":"D3","ticks":26170,"time":15.640625000000002,"velocity":0.7874015748031497},{"duration":0.1349999999999998,"durationTicks":240,"midi":43,"name":"G2","ticks":26400,"time":15.770000000000001,"velocity":0.7874015748031497},{"duration":0.1349999999999998,"durationTicks":240,"midi":55,"name":"G3","ticks":26650,"time":15.910625000000001,"velocity":0.7874015748031497},{"duration":0.1349999999999998,"durationTicks":240,"midi":50,"name":"D3","ticks":26650,"time":15.910625000000001,"velocity":0.7874015748031497},{"duration":0.13500000000000156,"durationTicks":240,"midi":43,"name":"G2","ticks":26880,"time":16.04,"velocity":0.7874015748031497},{"duration":0.13500000000000156,"durationTicks":240,"midi":55,"name":"G3","ticks":27120,"time":16.175,"velocity":0.7874015748031497},{"duration":0.13500000000000156,"durationTicks":240,"midi":50,"name":"D3","ticks":27120,"time":16.175,"velocity":0.7874015748031497},{"duration":0.134999999999998,"durationTicks":240,"midi":43,"name":"G2","ticks":27360,"time":16.310000000000002,"velocity":0.7874015748031497},{"duration":0.13500000000000156,"durationTicks":240,"midi":55,"name":"G3","ticks":27600,"time":16.445,"velocity":0.7874015748031497},{"duration":0.13500000000000156,"durationTicks":240,"midi":50,"name":"D3","ticks":27600,"time":16.445,"velocity":0.7874015748031497},{"duration":0.13500000000000156,"durationTicks":240,"midi":43,"name":"G2","ticks":27840,"time":16.580000000000002,"velocity":0.7874015748031497},{"duration":0.134999999999998,"durationTicks":240,"midi":55,"name":"G3","ticks":28080,"time":16.715000000000003,"velocity":0.7874015748031497},{"duration":0.134999999999998,"durationTicks":240,"midi":50,"name":"D3","ticks":28080,"time":16.715000000000003,"velocity":0.7874015748031497},{"duration":0.134999999999998,"durationTicks":240,"midi":43,"name":"G2","ticks":28320,"time":16.85,"velocity":0.7874015748031497},{"duration":0.13500000000000156,"durationTicks":240,"midi":55,"name":"G3","ticks":28560,"time":16.985,"velocity":0.7874015748031497},{"duration":0.13500000000000156,"durationTicks":240,"midi":50,"name":"D3","ticks":28560,"time":16.985,"velocity":0.7874015748031497},{"duration":0.13500000000000156,"durationTicks":240,"midi":43,"name":"G2","ticks":28800,"time":17.12,"velocity":0.7874015748031497},{"duration":0.13500000000000156,"durationTicks":240,"midi":55,"name":"G3","ticks":29050,"time":17.260625,"velocity":0.7874015748031497},{"duration":0.13500000000000156,"durationTicks":240,"midi":50,"name":"D3","ticks":29050,"time":17.260625,"velocity":0.7874015748031497},{"duration":0.134999999999998,"durationTicks":240,"midi":43,"name":"G2","ticks":29280,"time":17.39,"velocity":0.7874015748031497},{"duration":0.13500000000000156,"durationTicks":240,"midi":55,"name":"G3","ticks":29530,"time":17.530625,"velocity":0.7874015748031497},{"duration":0.13500000000000156,"durationTicks":240,"midi":50,"name":"D3","ticks":29530,"time":17.530625,"velocity":0.7874015748031497},{"duration":0.13500000000000156,"durationTicks":240,"midi":43,"name":"G2","ticks":29760,"time":17.66,"velocity":0.7874015748031497},{"duration":0.134999999999998,"durationTicks":240,"midi":55,"name":"G3","ticks":30000,"time":17.795,"velocity":0.7874015748031497},{"duration":0.134999999999998,"durationTicks":240,"midi":50,"name":"D3","ticks":30000,"time":17.795,"velocity":0.7874015748031497},{"duration":0.13500000000000156,"durationTicks":240,"midi":43,"name":"G2","ticks":30240,"time":17.93,"velocity":0.7874015748031497},{"duration":0.13500000000000156,"durationTicks":240,"midi":55,"name":"G3","ticks":30480,"time":18.065,"velocity":0.7874015748031497},{"duration":0.13500000000000156,"durationTicks":240,"midi":50,"name":"D3","ticks":30480,"time":18.065,"velocity":0.7874015748031497},{"duration":0.134999999999998,"durationTicks":240,"midi":43,"name":"G2","ticks":30720,"time":18.200000000000003,"velocity":0.7874015748031497},{"duration":0.13500000000000156,"durationTicks":240,"midi":55,"name":"G3","ticks":30960,"time":18.335,"velocity":0.7874015748031497},{"duration":0.13500000000000156,"durationTicks":240,"midi":50,"name":"D3","ticks":30960,"time":18.335,"velocity":0.7874015748031497},{"duration":0.134999999999998,"durationTicks":240,"midi":43,"name":"G2","ticks":31200,"time":18.470000000000002,"velocity":0.7874015748031497},{"duration":0.13500000000000156,"durationTicks":240,"midi":55,"name":"G3","ticks":31440,"time":18.605,"velocity":0.7874015748031497},{"duration":0.13500000000000156,"durationTicks":240,"midi":50,"name":"D3","ticks":31440,"time":18.605,"velocity":0.7874015748031497},{"duration":0.134999999999998,"durationTicks":240,"midi":43,"name":"G2","ticks":31680,"time":18.740000000000002,"velocity":0.7874015748031497},{"duration":0.134999999999998,"durationTicks":240,"midi":55,"name":"G3","ticks":31930,"time":18.880625000000002,"velocity":0.7874015748031497},{"duration":0.134999999999998,"durationTicks":240,"midi":50,"name":"D3","ticks":31930,"time":18.880625000000002,"velocity":0.7874015748031497},{"duration":0.134999999999998,"durationTicks":240,"midi":43,"name":"G2","ticks":32160,"time":19.01,"velocity":0.7874015748031497},{"duration":0.134999999999998,"durationTicks":240,"midi":55,"name":"G3","ticks":32410,"time":19.150625,"velocity":0.7874015748031497},{"duration":0.134999999999998,"durationTicks":240,"midi":50,"name":"D3","ticks":32410,"time":19.150625,"velocity":0.7874015748031497},{"duration":0.13500000000000156,"durationTicks":240,"midi":43,"name":"G2","ticks":32640,"time":19.28,"velocity":0.7874015748031497},{"duration":0.134999999999998,"durationTicks":240,"midi":55,"name":"G3","ticks":32880,"time":19.415000000000003,"velocity":0.7874015748031497},{"duration":0.134999999999998,"durationTicks":240,"midi":50,"name":"D3","ticks":32880,"time":19.415000000000003,"velocity":0.7874015748031497},{"duration":0.13500000000000156,"durationTicks":240,"midi":43,"name":"G2","ticks":33120,"time":19.55,"velocity":0.7874015748031497},{"duration":0.134999999999998,"durationTicks":240,"midi":55,"name":"G3","ticks":33360,"time":19.685000000000002,"velocity":0.7874015748031497},{"duration":0.134999999999998,"durationTicks":240,"midi":50,"name":"D3","ticks":33360,"time":19.685000000000002,"velocity":0.7874015748031497},{"duration":0.13500000000000156,"durationTicks":240,"midi":43,"name":"G2","ticks":33600,"time":19.82,"velocity":0.7874015748031497},{"duration":0.134999999999998,"durationTicks":240,"midi":55,"name":"G3","ticks":33840,"time":19.955000000000002,"velocity":0.7874015748031497},{"duration":0.134999999999998,"durationTicks":240,"midi":50,"name":"D3","ticks":33840,"time":19.955000000000002,"velocity":0.7874015748031497},{"duration":0.13500000000000156,"durationTicks":240,"midi":43,"name":"G2","ticks":34080,"time":20.09,"velocity":0.7874015748031497},{"duration":0.134999999999998,"durationTicks":240,"midi":55,"name":"G3","ticks":34320,"time":20.225,"velocity":0.7874015748031497},{"duration":0.134999999999998,"durationTicks":240,"midi":50,"name":"D3","ticks":34320,"time":20.225,"velocity":0.7874015748031497},{"duration":0.13500000000000156,"durationTicks":240,"midi":43,"name":"G2","ticks":34560,"time":20.36,"velocity":0.7874015748031497},{"duration":0.13500000000000156,"durationTicks":240,"midi":55,"name":"G3","ticks":34810,"time":20.500625,"velocity":0.7874015748031497},{"duration":0.13500000000000156,"durationTicks":240,"midi":50,"name":"D3","ticks":34810,"time":20.500625,"velocity":0.7874015748031497},{"duration":0.134999999999998,"durationTicks":240,"midi":43,"name":"G2","ticks":35040,"time":20.630000000000003,"velocity":0.7874015748031497},{"duration":0.13500000000000156,"durationTicks":240,"midi":55,"name":"G3","ticks":35290,"time":20.770625,"velocity":0.7874015748031497},{"duration":0.13500000000000156,"durationTicks":240,"midi":50,"name":"D3","ticks":35290,"time":20.770625,"velocity":0.7874015748031497},{"duration":0.134999999999998,"durationTicks":240,"midi":43,"name":"G2","ticks":35520,"time":20.900000000000002,"velocity":0.7874015748031497},{"duration":0.13500000000000156,"durationTicks":240,"midi":55,"name":"G3","ticks":35760,"time":21.035,"velocity":0.7874015748031497},{"duration":0.13500000000000156,"durationTicks":240,"midi":50,"name":"D3","ticks":35760,"time":21.035,"velocity":0.7874015748031497},{"duration":0.134999999999998,"durationTicks":240,"midi":43,"name":"G2","ticks":36000,"time":21.17,"velocity":0.7874015748031497},{"duration":0.13500000000000156,"durationTicks":240,"midi":55,"name":"G3","ticks":36240,"time":21.305,"velocity":0.7874015748031497},{"duration":0.13500000000000156,"durationTicks":240,"midi":50,"name":"D3","ticks":36240,"time":21.305,"velocity":0.7874015748031497},{"duration":0.13500000000000156,"durationTicks":240,"midi":43,"name":"G2","ticks":36480,"time":21.44,"velocity":0.7874015748031497},{"duration":0.134999999999998,"durationTicks":240,"midi":55,"name":"G3","ticks":36720,"time":21.575000000000003,"velocity":0.7874015748031497},{"duration":0.134999999999998,"durationTicks":240,"midi":50,"name":"D3","ticks":36720,"time":21.575000000000003,"velocity":0.7874015748031497},{"duration":0.13500000000000156,"durationTicks":240,"midi":43,"name":"G2","ticks":36960,"time":21.71,"velocity":0.7874015748031497},{"duration":0.134999999999998,"durationTicks":240,"midi":55,"name":"G3","ticks":37200,"time":21.845000000000002,"velocity":0.7874015748031497},{"duration":0.134999999999998,"durationTicks":240,"midi":50,"name":"D3","ticks":37200,"time":21.845000000000002,"velocity":0.7874015748031497},{"duration":0.13500000000000156,"durationTicks":240,"midi":43,"name":"G2","ticks":37440,"time":21.98,"velocity":0.7874015748031497},{"duration":0.134999999999998,"durationTicks":240,"midi":55,"name":"G3","ticks":37690,"time":22.120625,"velocity":0.7874015748031497},{"duration":0.134999999999998,"durationTicks":240,"midi":50,"name":"D3","ticks":37690,"time":22.120625,"velocity":0.7874015748031497},{"duration":0.13500000000000156,"durationTicks":240,"midi":43,"name":"G2","ticks":37920,"time":22.25,"velocity":0.7874015748031497},{"duration":0.13500000000000156,"durationTicks":240,"midi":55,"name":"G3","ticks":38170,"time":22.390625,"velocity":0.7874015748031497},{"duration":0.13500000000000156,"durationTicks":240,"midi":50,"name":"D3","ticks":38170,"time":22.390625,"velocity":0.7874015748031497},{"duration":0.134999999999998,"durationTicks":240,"midi":43,"name":"G2","ticks":38400,"time":22.520000000000003,"velocity":0.7874015748031497},{"duration":0.13500000000000156,"durationTicks":240,"midi":55,"name":"G3","ticks":38640,"time":22.655,"velocity":0.7874015748031497},{"duration":0.13500000000000156,"durationTicks":240,"midi":50,"name":"D3","ticks":38640,"time":22.655,"velocity":0.7874015748031497},{"duration":0.134999999999998,"durationTicks":240,"midi":43,"name":"G2","ticks":38880,"time":22.790000000000003,"velocity":0.7874015748031497},{"duration":0.13500000000000156,"durationTicks":240,"midi":55,"name":"G3","ticks":39120,"time":22.925,"velocity":0.7874015748031497},{"duration":0.13500000000000156,"durationTicks":240,"midi":50,"name":"D3","ticks":39120,"time":22.925,"velocity":0.7874015748031497},{"duration":0.134999999999998,"durationTicks":240,"midi":43,"name":"G2","ticks":39360,"time":23.060000000000002,"velocity":0.7874015748031497},{"duration":0.13500000000000156,"durationTicks":240,"midi":55,"name":"G3","ticks":39600,"time":23.195,"velocity":0.7874015748031497},{"duration":0.13500000000000156,"durationTicks":240,"midi":50,"name":"D3","ticks":39600,"time":23.195,"velocity":0.7874015748031497},{"duration":0.134999999999998,"durationTicks":240,"midi":43,"name":"G2","ticks":39840,"time":23.330000000000002,"velocity":0.7874015748031497},{"duration":0.13500000000000156,"durationTicks":240,"midi":55,"name":"G3","ticks":40080,"time":23.465,"velocity":0.7874015748031497},{"duration":0.13500000000000156,"durationTicks":240,"midi":50,"name":"D3","ticks":40080,"time":23.465,"velocity":0.7874015748031497},{"duration":0.13500000000000156,"durationTicks":240,"midi":43,"name":"G2","ticks":40320,"time":23.6,"velocity":0.7874015748031497},{"duration":0.134999999999998,"durationTicks":240,"midi":55,"name":"G3","ticks":40560,"time":23.735000000000003,"velocity":0.7874015748031497},{"duration":0.134999999999998,"durationTicks":240,"midi":50,"name":"D3","ticks":40560,"time":23.735000000000003,"velocity":0.7874015748031497},{"duration":0.13500000000000156,"durationTicks":240,"midi":43,"name":"G2","ticks":40800,"time":23.87,"velocity":0.7874015748031497},{"duration":0.134999999999998,"durationTicks":240,"midi":55,"name":"G3","ticks":41040,"time":24.005000000000003,"velocity":0.7874015748031497},{"duration":0.134999999999998,"durationTicks":240,"midi":50,"name":"D3","ticks":41040,"time":24.005000000000003,"velocity":0.7874015748031497},{"duration":0.13500000000000156,"durationTicks":240,"midi":43,"name":"G2","ticks":41280,"time":24.14,"velocity":0.7874015748031497},{"duration":0.134999999999998,"durationTicks":240,"midi":55,"name":"G3","ticks":41530,"time":24.280625,"velocity":0.7874015748031497},{"duration":0.134999999999998,"durationTicks":240,"midi":50,"name":"D3","ticks":41530,"time":24.280625,"velocity":0.7874015748031497},{"duration":0.13500000000000156,"durationTicks":240,"midi":43,"name":"G2","ticks":41760,"time":24.41,"velocity":0.7874015748031497},{"duration":0.13500000000000156,"durationTicks":240,"midi":55,"name":"G3","ticks":42010,"time":24.550625,"velocity":0.7874015748031497},{"duration":0.13500000000000156,"durationTicks":240,"midi":50,"name":"D3","ticks":42010,"time":24.550625,"velocity":0.7874015748031497},{"duration":0.13500000000000156,"durationTicks":240,"midi":43,"name":"G2","ticks":42240,"time":24.68,"velocity":0.7874015748031497},{"duration":0.13500000000000156,"durationTicks":240,"midi":55,"name":"G3","ticks":42480,"time":24.815,"velocity":0.7874015748031497},{"duration":0.13500000000000156,"durationTicks":240,"midi":50,"name":"D3","ticks":42480,"time":24.815,"velocity":0.7874015748031497},{"duration":0.134999999999998,"durationTicks":240,"midi":43,"name":"G2","ticks":42720,"time":24.950000000000003,"velocity":0.7874015748031497},{"duration":0.13500000000000156,"durationTicks":240,"midi":55,"name":"G3","ticks":42960,"time":25.085,"velocity":0.7874015748031497},{"duration":0.13500000000000156,"durationTicks":240,"midi":50,"name":"D3","ticks":42960,"time":25.085,"velocity":0.7874015748031497},{"duration":0.134999999999998,"durationTicks":240,"midi":43,"name":"G2","ticks":43200,"time":25.220000000000002,"velocity":0.7874015748031497},{"duration":0.13500000000000156,"durationTicks":240,"midi":55,"name":"G3","ticks":43440,"time":25.355,"velocity":0.7874015748031497},{"duration":0.13500000000000156,"durationTicks":240,"midi":50,"name":"D3","ticks":43440,"time":25.355,"velocity":0.7874015748031497},{"duration":0.134999999999998,"durationTicks":240,"midi":43,"name":"G2","ticks":43680,"time":25.490000000000002,"velocity":0.7874015748031497},{"duration":0.13500000000000156,"durationTicks":240,"midi":55,"name":"G3","ticks":43920,"time":25.625,"velocity":0.7874015748031497},{"duration":0.13500000000000156,"durationTicks":240,"midi":50,"name":"D3","ticks":43920,"time":25.625,"velocity":0.7874015748031497},{"duration":0.2699999999999996,"durationTicks":480,"midi":50,"name":"D3","ticks":44160,"time":25.76,"velocity":0.7874015748031497},{"duration":0.2699999999999996,"durationTicks":480,"midi":38,"name":"D2","ticks":44160,"time":25.76,"velocity":0.7874015748031497},{"duration":0.2699999999999996,"durationTicks":480,"midi":54,"name":"F#3","ticks":44640,"time":26.03,"velocity":0.7874015748031497},{"duration":0.2699999999999996,"durationTicks":480,"midi":38,"name":"D2","ticks":44640,"time":26.03,"velocity":0.7874015748031497},{"duration":0.2699999999999996,"durationTicks":480,"midi":57,"name":"A3","ticks":45120,"time":26.3,"velocity":0.7874015748031497},{"duration":0.2699999999999996,"durationTicks":480,"midi":38,"name":"D2","ticks":45120,"time":26.3,"velocity":0.7874015748031497},{"duration":0.2700000000000031,"durationTicks":480,"midi":60,"name":"C4","ticks":45600,"time":26.57,"velocity":0.7874015748031497},{"duration":0.2700000000000031,"durationTicks":480,"midi":38,"name":"D2","ticks":45600,"time":26.57,"velocity":0.7874015748031497},{"duration":0.2699999999999996,"durationTicks":480,"midi":62,"name":"D4","ticks":46080,"time":26.840000000000003,"velocity":0.7874015748031497},{"duration":0.2699999999999996,"durationTicks":480,"midi":38,"name":"D2","ticks":46090,"time":26.845625000000002,"velocity":0.7874015748031497},{"duration":0.2699999999999996,"durationTicks":480,"midi":66,"name":"F#4","ticks":46560,"time":27.110000000000003,"velocity":0.7874015748031497},{"duration":0.2699999999999996,"durationTicks":480,"midi":38,"name":"D2","ticks":46570,"time":27.115625,"velocity":0.7874015748031497},{"duration":0.2699999999999996,"durationTicks":480,"midi":69,"name":"A4","ticks":47040,"time":27.380000000000003,"velocity":0.7874015748031497},{"duration":0.2699999999999996,"durationTicks":480,"midi":38,"name":"D2","ticks":47050,"time":27.385625,"velocity":0.7874015748031497},{"duration":0.2699999999999996,"durationTicks":480,"midi":72,"name":"C5","ticks":47520,"time":27.650000000000002,"velocity":0.7874015748031497},{"duration":0.2699999999999996,"durationTicks":480,"midi":38,"name":"D2","ticks":47530,"time":27.655625,"velocity":0.7874015748031497},{"duration":2.16,"durationTicks":3840,"midi":55,"name":"G3","ticks":48000,"time":27.92,"velocity":0.7874015748031497},{"duration":2.16,"durationTicks":3840,"midi":43,"name":"G2","ticks":48000,"time":27.92,"velocity":0.7874015748031497},{"duration":1.0800000000000018,"durationTicks":1920,"midi":52,"name":"E3","ticks":51840,"time":30.080000000000002,"velocity":0.7874015748031497},{"duration":1.0800000000000018,"durationTicks":1920,"midi":40,"name":"E2","ticks":51840,"time":30.080000000000002,"velocity":0.7874015748031497},{"duration":0.5399999999999991,"durationTicks":960,"midi":64,"name":"E4","ticks":53760,"time":31.160000000000004,"velocity":0.7874015748031497},{"duration":0.5399999999999991,"durationTicks":960,"midi":52,"name":"E3","ticks":53760,"time":31.160000000000004,"velocity":0.7874015748031497},{"duration":0.5399999999999991,"durationTicks":960,"midi":62,"name":"D4","ticks":54720,"time":31.700000000000003,"velocity":0.7874015748031497},{"duration":0.5399999999999991,"durationTicks":960,"midi":50,"name":"D3","ticks":54720,"time":31.700000000000003,"velocity":0.7874015748031497},{"duration":1.0799999999999983,"durationTicks":1920,"midi":60,"name":"C4","ticks":55680,"time":32.24,"velocity":0.7874015748031497},{"duration":1.0799999999999983,"durationTicks":1920,"midi":48,"name":"C3","ticks":55680,"time":32.24,"velocity":0.7874015748031497},{"duration":0.5399999999999991,"durationTicks":960,"midi":62,"name":"D4","ticks":57600,"time":33.32,"velocity":0.7874015748031497},{"duration":0.5399999999999991,"durationTicks":960,"midi":50,"name":"D3","ticks":57600,"time":33.32,"velocity":0.7874015748031497},{"duration":0.5400000000000063,"durationTicks":960,"midi":60,"name":"C4","ticks":58560,"time":33.86,"velocity":0.7874015748031497},{"duration":0.5400000000000063,"durationTicks":960,"midi":48,"name":"C3","ticks":58560,"time":33.86,"velocity":0.7874015748031497},{"duration":1.0799999999999983,"durationTicks":1920,"midi":59,"name":"B3","ticks":59520,"time":34.400000000000006,"velocity":0.7874015748031497},{"duration":1.0799999999999983,"durationTicks":1920,"midi":47,"name":"B2","ticks":59520,"time":34.400000000000006,"velocity":0.7874015748031497},{"duration":1.0799999999999983,"durationTicks":1920,"midi":52,"name":"E3","ticks":61440,"time":35.480000000000004,"velocity":0.7874015748031497},{"duration":1.0799999999999983,"durationTicks":1920,"midi":40,"name":"E2","ticks":61440,"time":35.480000000000004,"velocity":0.7874015748031497},{"duration":1.0799999999999983,"durationTicks":1920,"midi":60,"name":"C4","ticks":63360,"time":36.56,"velocity":0.7874015748031497},{"duration":1.0799999999999983,"durationTicks":1920,"midi":48,"name":"C3","ticks":63360,"time":36.56,"velocity":0.7874015748031497},{"duration":0.5399999999999991,"durationTicks":960,"midi":62,"name":"D4","ticks":65280,"time":37.64,"velocity":0.7874015748031497},{"duration":0.5399999999999991,"durationTicks":960,"midi":50,"name":"D3","ticks":65280,"time":37.64,"velocity":0.7874015748031497},{"duration":0.5399999999999991,"durationTicks":960,"midi":60,"name":"C4","ticks":66240,"time":38.18,"velocity":0.7874015748031497},{"duration":0.5399999999999991,"durationTicks":960,"midi":48,"name":"C3","ticks":66240,"time":38.18,"velocity":0.7874015748031497},{"duration":0.5400000000000063,"durationTicks":960,"midi":59,"name":"B3","ticks":67200,"time":38.72,"velocity":0.7874015748031497},{"duration":0.5400000000000063,"durationTicks":960,"midi":47,"name":"B2","ticks":67200,"time":38.72,"velocity":0.7874015748031497},{"duration":0.5399999999999991,"durationTicks":960,"midi":63,"name":"D#4","ticks":68160,"time":39.260000000000005,"velocity":0.7874015748031497},{"duration":0.5399999999999991,"durationTicks":960,"midi":51,"name":"D#3","ticks":68160,"time":39.260000000000005,"velocity":0.7874015748031497},{"duration":0.5399999999999991,"durationTicks":960,"midi":64,"name":"E4","ticks":69120,"time":39.800000000000004,"velocity":0.7874015748031497},{"duration":0.5399999999999991,"durationTicks":960,"midi":52,"name":"E3","ticks":69120,"time":39.800000000000004,"velocity":0.7874015748031497},{"duration":0.5399999999999991,"durationTicks":960,"midi":62,"name":"D4","ticks":70080,"time":40.34,"velocity":0.7874015748031497},{"duration":0.5399999999999991,"durationTicks":960,"midi":50,"name":"D3","ticks":70080,"time":40.34,"velocity":0.7874015748031497},{"duration":1.0799999999999983,"durationTicks":1920,"midi":60,"name":"C4","ticks":71040,"time":40.88,"velocity":0.7874015748031497},{"duration":1.0799999999999983,"durationTicks":1920,"midi":48,"name":"C3","ticks":71040,"time":40.88,"velocity":0.7874015748031497},{"duration":0.5399999999999991,"durationTicks":960,"midi":61,"name":"C#4","ticks":72960,"time":41.96,"velocity":0.7874015748031497},{"duration":0.5399999999999991,"durationTicks":960,"midi":49,"name":"C#3","ticks":72960,"time":41.96,"velocity":0.7874015748031497},{"duration":0.5400000000000063,"durationTicks":960,"midi":57,"name":"A3","ticks":73920,"time":42.5,"velocity":0.7874015748031497},{"duration":0.5400000000000063,"durationTicks":960,"midi":45,"name":"A2","ticks":73920,"time":42.5,"velocity":0.7874015748031497},{"duration":1.0799999999999983,"durationTicks":1920,"midi":62,"name":"D4","ticks":74880,"time":43.040000000000006,"velocity":0.7874015748031497},{"duration":1.0799999999999983,"durationTicks":1920,"midi":50,"name":"D3","ticks":74880,"time":43.040000000000006,"velocity":0.7874015748031497},{"duration":1.0799999999999983,"durationTicks":1920,"midi":50,"name":"D3","ticks":76800,"time":44.120000000000005,"velocity":0.7874015748031497},{"duration":1.0799999999999983,"durationTicks":1920,"midi":38,"name":"D2","ticks":76800,"time":44.120000000000005,"velocity":0.7874015748031497},{"duration":2.1599999999999966,"durationTicks":3840,"midi":38,"name":"D2","ticks":78720,"time":45.2,"velocity":0.7874015748031497},{"duration":2.1599999999999966,"durationTicks":3840,"midi":50,"name":"D3","ticks":78720,"time":45.2,"velocity":0.7874015748031497},{"duration":0.13500000000000512,"durationTicks":240,"midi":43,"name":"G2","ticks":82560,"time":47.36,"velocity":0.7874015748031497},{"duration":0.134999999999998,"durationTicks":240,"midi":55,"name":"G3","ticks":82800,"time":47.495000000000005,"velocity":0.7874015748031497},{"duration":0.134999999999998,"durationTicks":240,"midi":43,"name":"G2","ticks":83040,"time":47.63,"velocity":0.7874015748031497},{"duration":0.13500000000000512,"durationTicks":240,"midi":55,"name":"G3","ticks":83280,"time":47.765,"velocity":0.7874015748031497},{"duration":0.134999999999998,"durationTicks":240,"midi":43,"name":"G2","ticks":83520,"time":47.900000000000006,"velocity":0.7874015748031497},{"duration":0.134999999999998,"durationTicks":240,"midi":55,"name":"G3","ticks":83760,"time":48.035000000000004,"velocity":0.7874015748031497},{"duration":0.134999999999998,"durationTicks":240,"midi":43,"name":"G2","ticks":84000,"time":48.17,"velocity":0.7874015748031497},{"duration":0.13500000000000512,"durationTicks":240,"midi":55,"name":"G3","ticks":84240,"time":48.305,"velocity":0.7874015748031497},{"duration":0.134999999999998,"durationTicks":240,"midi":38,"name":"D2","ticks":84480,"time":48.440000000000005,"velocity":0.7874015748031497},{"duration":0.134999999999998,"durationTicks":240,"midi":50,"name":"D3","ticks":84720,"time":48.575,"velocity":0.7874015748031497},{"duration":0.13500000000000512,"durationTicks":240,"midi":38,"name":"D2","ticks":84960,"time":48.71,"velocity":0.7874015748031497},{"duration":0.134999999999998,"durationTicks":240,"midi":50,"name":"D3","ticks":85200,"time":48.845000000000006,"velocity":0.7874015748031497},{"duration":0.134999999999998,"durationTicks":240,"midi":39,"name":"D#2","ticks":85440,"time":48.980000000000004,"velocity":0.7874015748031497},{"duration":0.134999999999998,"durationTicks":240,"midi":51,"name":"D#3","ticks":85680,"time":49.115,"velocity":0.7874015748031497},{"duration":0.13500000000000512,"durationTicks":240,"midi":39,"name":"D#2","ticks":85920,"time":49.25,"velocity":0.7874015748031497},{"duration":0.134999999999998,"durationTicks":240,"midi":51,"name":"D#3","ticks":86160,"time":49.385000000000005,"velocity":0.7874015748031497},{"duration":0.134999999999998,"durationTicks":240,"midi":40,"name":"E2","ticks":86400,"time":49.52,"velocity":0.7874015748031497},{"duration":0.13500000000000512,"durationTicks":240,"midi":52,"name":"E3","ticks":86640,"time":49.655,"velocity":0.7874015748031497},{"duration":0.134999999999998,"durationTicks":240,"midi":40,"name":"E2","ticks":86880,"time":49.790000000000006,"velocity":0.7874015748031497},{"duration":0.134999999999998,"durationTicks":240,"midi":52,"name":"E3","ticks":87120,"time":49.925000000000004,"velocity":0.7874015748031497},{"duration":0.134999999999998,"durationTicks":240,"midi":40,"name":"E2","ticks":87360,"time":50.06,"velocity":0.7874015748031497},{"duration":0.13500000000000512,"durationTicks":240,"midi":52,"name":"E3","ticks":87600,"time":50.195,"velocity":0.7874015748031497},{"duration":0.134999999999998,"durationTicks":240,"midi":40,"name":"E2","ticks":87840,"time":50.330000000000005,"velocity":0.7874015748031497},{"duration":0.134999999999998,"durationTicks":240,"midi":52,"name":"E3","ticks":88080,"time":50.465,"velocity":0.7874015748031497},{"duration":0.13500000000000512,"durationTicks":240,"midi":47,"name":"B2","ticks":88320,"time":50.6,"velocity":0.7874015748031497},{"duration":0.134999999999998,"durationTicks":240,"midi":59,"name":"B3","ticks":88560,"time":50.73500000000001,"velocity":0.7874015748031497},{"duration":0.134999999999998,"durationTicks":240,"midi":47,"name":"B2","ticks":88800,"time":50.870000000000005,"velocity":0.7874015748031497},{"duration":0.134999999999998,"durationTicks":240,"midi":59,"name":"B3","ticks":89040,"time":51.005,"velocity":0.7874015748031497},{"duration":0.13500000000000512,"durationTicks":240,"midi":47,"name":"B2","ticks":89280,"time":51.14,"velocity":0.7874015748031497},{"duration":0.134999999999998,"durationTicks":240,"midi":59,"name":"B3","ticks":89520,"time":51.275000000000006,"velocity":0.7874015748031497},{"duration":0.134999999999998,"durationTicks":240,"midi":47,"name":"B2","ticks":89760,"time":51.410000000000004,"velocity":0.7874015748031497},{"duration":0.13500000000000512,"durationTicks":240,"midi":59,"name":"B3","ticks":90000,"time":51.545,"velocity":0.7874015748031497},{"duration":0.134999999999998,"durationTicks":240,"midi":48,"name":"C3","ticks":90240,"time":51.68000000000001,"velocity":0.7874015748031497},{"duration":0.134999999999998,"durationTicks":240,"midi":60,"name":"C4","ticks":90480,"time":51.815000000000005,"velocity":0.7874015748031497},{"duration":0.134999999999998,"durationTicks":240,"midi":48,"name":"C3","ticks":90720,"time":51.95,"velocity":0.7874015748031497},{"duration":0.13500000000000512,"durationTicks":240,"midi":60,"name":"C4","ticks":90960,"time":52.085,"velocity":0.7874015748031497},{"duration":0.134999999999998,"durationTicks":240,"midi":48,"name":"C3","ticks":91200,"time":52.220000000000006,"velocity":0.7874015748031497},{"duration":0.134999999999998,"durationTicks":240,"midi":60,"name":"C4","ticks":91440,"time":52.355000000000004,"velocity":0.7874015748031497},{"duration":0.134999999999998,"durationTicks":240,"midi":48,"name":"C3","ticks":91680,"time":52.49,"velocity":0.7874015748031497},{"duration":0.13500000000000512,"durationTicks":240,"midi":60,"name":"C4","ticks":91920,"time":52.625,"velocity":0.7874015748031497},{"duration":0.134999999999998,"durationTicks":240,"midi":43,"name":"G2","ticks":92160,"time":52.760000000000005,"velocity":0.7874015748031497},{"duration":0.134999999999998,"durationTicks":240,"midi":55,"name":"G3","ticks":92400,"time":52.895,"velocity":0.7874015748031497},{"duration":0.13500000000000512,"durationTicks":240,"midi":43,"name":"G2","ticks":92640,"time":53.03,"velocity":0.7874015748031497},{"duration":0.134999999999998,"durationTicks":240,"midi":55,"name":"G3","ticks":92880,"time":53.165000000000006,"velocity":0.7874015748031497},{"duration":0.134999999999998,"durationTicks":240,"midi":43,"name":"G2","ticks":93120,"time":53.300000000000004,"velocity":0.7874015748031497},{"duration":0.134999999999998,"durationTicks":240,"midi":55,"name":"G3","ticks":93360,"time":53.435,"velocity":0.7874015748031497},{"duration":0.13500000000000512,"durationTicks":240,"midi":43,"name":"G2","ticks":93600,"time":53.57,"velocity":0.7874015748031497},{"duration":0.134999999999998,"durationTicks":240,"midi":55,"name":"G3","ticks":93840,"time":53.705000000000005,"velocity":0.7874015748031497},{"duration":0.134999999999998,"durationTicks":240,"midi":48,"name":"C3","ticks":94080,"time":53.84,"velocity":0.7874015748031497},{"duration":0.13500000000000512,"durationTicks":240,"midi":60,"name":"C4","ticks":94320,"time":53.975,"velocity":0.7874015748031497},{"duration":0.134999999999998,"durationTicks":240,"midi":48,"name":"C3","ticks":94560,"time":54.11000000000001,"velocity":0.7874015748031497},{"duration":0.134999999999998,"durationTicks":240,"midi":60,"name":"C4","ticks":94800,"time":54.245000000000005,"velocity":0.7874015748031497},{"duration":0.134999999999998,"durationTicks":240,"midi":49,"name":"C#3","ticks":95040,"time":54.38,"velocity":0.7874015748031497},{"duration":0.13500000000000512,"durationTicks":240,"midi":61,"name":"C#4","ticks":95280,"time":54.515,"velocity":0.7874015748031497},{"duration":0.134999999999998,"durationTicks":240,"midi":49,"name":"C#3","ticks":95520,"time":54.650000000000006,"velocity":0.7874015748031497},{"duration":0.134999999999998,"durationTicks":240,"midi":61,"name":"C#4","ticks":95760,"time":54.785000000000004,"velocity":0.7874015748031497},{"duration":0.13500000000000512,"durationTicks":240,"midi":50,"name":"D3","ticks":96000,"time":54.92,"velocity":0.7874015748031497},{"duration":0.134999999999998,"durationTicks":240,"midi":62,"name":"D4","ticks":96240,"time":55.05500000000001,"velocity":0.7874015748031497},{"duration":0.134999999999998,"durationTicks":240,"midi":50,"name":"D3","ticks":96480,"time":55.190000000000005,"velocity":0.7874015748031497},{"duration":0.134999999999998,"durationTicks":240,"midi":62,"name":"D4","ticks":96720,"time":55.325,"velocity":0.7874015748031497},{"duration":0.13500000000000512,"durationTicks":240,"midi":50,"name":"D3","ticks":96960,"time":55.46,"velocity":0.7874015748031497},{"duration":0.134999999999998,"durationTicks":240,"midi":62,"name":"D4","ticks":97200,"time":55.595000000000006,"velocity":0.7874015748031497},{"duration":0.134999999999998,"durationTicks":240,"midi":50,"name":"D3","ticks":97440,"time":55.730000000000004,"velocity":0.7874015748031497},{"duration":0.134999999999998,"durationTicks":240,"midi":62,"name":"D4","ticks":97680,"time":55.865,"velocity":0.7874015748031497},{"duration":0.13500000000000512,"durationTicks":240,"midi":43,"name":"G2","ticks":97920,"time":56,"velocity":0.7874015748031497},{"duration":0.134999999999998,"durationTicks":240,"midi":55,"name":"G3","ticks":98160,"time":56.135000000000005,"velocity":0.7874015748031497},{"duration":0.134999999999998,"durationTicks":240,"midi":43,"name":"G2","ticks":98400,"time":56.27,"velocity":0.7874015748031497},{"duration":0.13500000000000512,"durationTicks":240,"midi":55,"name":"G3","ticks":98640,"time":56.405,"velocity":0.7874015748031497},{"duration":0.134999999999998,"durationTicks":240,"midi":43,"name":"G2","ticks":98880,"time":56.540000000000006,"velocity":0.7874015748031497},{"duration":0.134999999999998,"durationTicks":240,"midi":55,"name":"G3","ticks":99120,"time":56.675000000000004,"velocity":0.7874015748031497},{"duration":0.134999999999998,"durationTicks":240,"midi":43,"name":"G2","ticks":99360,"time":56.81,"velocity":0.7874015748031497},{"duration":0.13500000000000512,"durationTicks":240,"midi":55,"name":"G3","ticks":99600,"time":56.945,"velocity":0.7874015748031497},{"duration":0.134999999999998,"durationTicks":240,"midi":38,"name":"D2","ticks":99840,"time":57.080000000000005,"velocity":0.7874015748031497},{"duration":0.134999999999998,"durationTicks":240,"midi":50,"name":"D3","ticks":100080,"time":57.215,"velocity":0.7874015748031497},{"duration":0.13500000000000512,"durationTicks":240,"midi":38,"name":"D2","ticks":100320,"time":57.35,"velocity":0.7874015748031497},{"duration":0.134999999999998,"durationTicks":240,"midi":50,"name":"D3","ticks":100560,"time":57.48500000000001,"velocity":0.7874015748031497},{"duration":0.134999999999998,"durationTicks":240,"midi":39,"name":"D#2","ticks":100800,"time":57.620000000000005,"velocity":0.7874015748031497},{"duration":0.134999999999998,"durationTicks":240,"midi":51,"name":"D#3","ticks":101040,"time":57.755,"velocity":0.7874015748031497},{"duration":0.13500000000000512,"durationTicks":240,"midi":39,"name":"D#2","ticks":101280,"time":57.89,"velocity":0.7874015748031497},{"duration":0.134999999999998,"durationTicks":240,"midi":51,"name":"D#3","ticks":101520,"time":58.025000000000006,"velocity":0.7874015748031497},{"duration":0.134999999999998,"durationTicks":240,"midi":40,"name":"E2","ticks":101760,"time":58.160000000000004,"velocity":0.7874015748031497},{"duration":0.13500000000000512,"durationTicks":240,"midi":52,"name":"E3","ticks":102000,"time":58.295,"velocity":0.7874015748031497},{"duration":0.134999999999998,"durationTicks":240,"midi":40,"name":"E2","ticks":102240,"time":58.43000000000001,"velocity":0.7874015748031497},{"duration":0.134999999999998,"durationTicks":240,"midi":52,"name":"E3","ticks":102480,"time":58.565000000000005,"velocity":0.7874015748031497},{"duration":0.134999999999998,"durationTicks":240,"midi":40,"name":"E2","ticks":102720,"time":58.7,"velocity":0.7874015748031497},{"duration":0.13500000000000512,"durationTicks":240,"midi":52,"name":"E3","ticks":102960,"time":58.835,"velocity":0.7874015748031497},{"duration":0.134999999999998,"durationTicks":240,"midi":40,"name":"E2","ticks":103200,"time":58.970000000000006,"velocity":0.7874015748031497},{"duration":0.134999999999998,"durationTicks":240,"midi":52,"name":"E3","ticks":103440,"time":59.105000000000004,"velocity":0.7874015748031497},{"duration":0.13500000000000512,"durationTicks":240,"midi":47,"name":"B2","ticks":103680,"time":59.24,"velocity":0.7874015748031497},{"duration":0.134999999999998,"durationTicks":240,"midi":59,"name":"B3","ticks":103920,"time":59.37500000000001,"velocity":0.7874015748031497},{"duration":0.134999999999998,"durationTicks":240,"midi":47,"name":"B2","ticks":104160,"time":59.510000000000005,"velocity":0.7874015748031497},{"duration":0.134999999999998,"durationTicks":240,"midi":59,"name":"B3","ticks":104400,"time":59.645,"velocity":0.7874015748031497},{"duration":0.13500000000000512,"durationTicks":240,"midi":47,"name":"B2","ticks":104640,"time":59.78,"velocity":0.7874015748031497},{"duration":0.134999999999998,"durationTicks":240,"midi":59,"name":"B3","ticks":104880,"time":59.915000000000006,"velocity":0.7874015748031497},{"duration":0.134999999999998,"durationTicks":240,"midi":47,"name":"B2","ticks":105120,"time":60.050000000000004,"velocity":0.7874015748031497},{"duration":0.13500000000000512,"durationTicks":240,"midi":59,"name":"B3","ticks":105360,"time":60.185,"velocity":0.7874015748031497},{"duration":0.134999999999998,"durationTicks":240,"midi":48,"name":"C3","ticks":105600,"time":60.32000000000001,"velocity":0.7874015748031497},{"duration":0.134999999999998,"durationTicks":240,"midi":60,"name":"C4","ticks":105840,"time":60.455000000000005,"velocity":0.7874015748031497},{"duration":0.134999999999998,"durationTicks":240,"midi":48,"name":"C3","ticks":106080,"time":60.59,"velocity":0.7874015748031497},{"duration":0.13500000000000512,"durationTicks":240,"midi":60,"name":"C4","ticks":106320,"time":60.725,"velocity":0.7874015748031497},{"duration":0.134999999999998,"durationTicks":240,"midi":48,"name":"C3","ticks":106560,"time":60.86000000000001,"velocity":0.7874015748031497},{"duration":0.134999999999998,"durationTicks":240,"midi":60,"name":"C4","ticks":106800,"time":60.995000000000005,"velocity":0.7874015748031497},{"duration":0.134999999999998,"durationTicks":240,"midi":48,"name":"C3","ticks":107040,"time":61.13,"velocity":0.7874015748031497},{"duration":0.13500000000000512,"durationTicks":240,"midi":60,"name":"C4","ticks":107280,"time":61.265,"velocity":0.7874015748031497},{"duration":0.134999999999998,"durationTicks":240,"midi":43,"name":"G2","ticks":107520,"time":61.400000000000006,"velocity":0.7874015748031497},{"duration":0.134999999999998,"durationTicks":240,"midi":55,"name":"G3","ticks":107760,"time":61.535000000000004,"velocity":0.7874015748031497},{"duration":0.13500000000000512,"durationTicks":240,"midi":43,"name":"G2","ticks":108000,"time":61.67,"velocity":0.7874015748031497},{"duration":0.134999999999998,"durationTicks":240,"midi":55,"name":"G3","ticks":108240,"time":61.80500000000001,"velocity":0.7874015748031497},{"duration":0.134999999999998,"durationTicks":240,"midi":43,"name":"G2","ticks":108480,"time":61.940000000000005,"velocity":0.7874015748031497},{"duration":0.134999999999998,"durationTicks":240,"midi":55,"name":"G3","ticks":108720,"time":62.075,"velocity":0.7874015748031497},{"duration":0.13500000000000512,"durationTicks":240,"midi":43,"name":"G2","ticks":108960,"time":62.21,"velocity":0.7874015748031497},{"duration":0.134999999999998,"durationTicks":240,"midi":55,"name":"G3","ticks":109200,"time":62.345000000000006,"velocity":0.7874015748031497},{"duration":0.134999999999998,"durationTicks":240,"midi":48,"name":"C3","ticks":109440,"time":62.480000000000004,"velocity":0.7874015748031497},{"duration":0.13500000000000512,"durationTicks":240,"midi":60,"name":"C4","ticks":109680,"time":62.615,"velocity":0.7874015748031497},{"duration":0.134999999999998,"durationTicks":240,"midi":48,"name":"C3","ticks":109920,"time":62.75000000000001,"velocity":0.7874015748031497},{"duration":0.134999999999998,"durationTicks":240,"midi":60,"name":"C4","ticks":110160,"time":62.885000000000005,"velocity":0.7874015748031497},{"duration":0.134999999999998,"durationTicks":240,"midi":49,"name":"C#3","ticks":110400,"time":63.02,"velocity":0.7874015748031497},{"duration":0.13500000000000512,"durationTicks":240,"midi":61,"name":"C#4","ticks":110640,"time":63.155,"velocity":0.7874015748031497},{"duration":0.134999999999998,"durationTicks":240,"midi":49,"name":"C#3","ticks":110880,"time":63.290000000000006,"velocity":0.7874015748031497},{"duration":0.134999999999998,"durationTicks":240,"midi":61,"name":"C#4","ticks":111120,"time":63.425000000000004,"velocity":0.7874015748031497},{"duration":0.13500000000000512,"durationTicks":240,"midi":50,"name":"D3","ticks":111360,"time":63.56,"velocity":0.7874015748031497},{"duration":0.134999999999998,"durationTicks":240,"midi":62,"name":"D4","ticks":111600,"time":63.69500000000001,"velocity":0.7874015748031497},{"duration":0.134999999999998,"durationTicks":240,"midi":50,"name":"D3","ticks":111840,"time":63.830000000000005,"velocity":0.7874015748031497},{"duration":0.1349999999999909,"durationTicks":240,"midi":62,"name":"D4","ticks":112080,"time":63.965,"velocity":0.7874015748031497},{"duration":0.13500000000001933,"durationTicks":240,"midi":50,"name":"D3","ticks":112320,"time":64.1,"velocity":0.7874015748031497},{"duration":0.1349999999999909,"durationTicks":240,"midi":62,"name":"D4","ticks":112560,"time":64.23500000000001,"velocity":0.7874015748031497},{"duration":0.1349999999999909,"durationTicks":240,"midi":50,"name":"D3","ticks":112800,"time":64.37,"velocity":0.7874015748031497},{"duration":0.13500000000000512,"durationTicks":240,"midi":62,"name":"D4","ticks":113040,"time":64.505,"velocity":0.7874015748031497},{"duration":0.13500000000000512,"durationTicks":240,"midi":43,"name":"G2","ticks":113280,"time":64.64,"velocity":0.7874015748031497},{"duration":0.1349999999999909,"durationTicks":240,"midi":55,"name":"G3","ticks":113520,"time":64.775,"velocity":0.7874015748031497},{"duration":0.13500000000000512,"durationTicks":240,"midi":43,"name":"G2","ticks":113760,"time":64.91,"velocity":0.7874015748031497},{"duration":0.13500000000000512,"durationTicks":240,"midi":55,"name":"G3","ticks":114000,"time":65.045,"velocity":0.7874015748031497},{"duration":0.1349999999999909,"durationTicks":240,"midi":43,"name":"G2","ticks":114240,"time":65.18,"velocity":0.7874015748031497},{"duration":0.13500000000000512,"durationTicks":240,"midi":55,"name":"G3","ticks":114480,"time":65.315,"velocity":0.7874015748031497},{"duration":0.13500000000000512,"durationTicks":240,"midi":43,"name":"G2","ticks":114720,"time":65.45,"velocity":0.7874015748031497},{"duration":0.1349999999999909,"durationTicks":240,"midi":55,"name":"G3","ticks":114960,"time":65.58500000000001,"velocity":0.7874015748031497},{"duration":0.13500000000000512,"durationTicks":240,"midi":43,"name":"G2","ticks":115200,"time":65.72,"velocity":0.7874015748031497},{"duration":0.13500000000000512,"durationTicks":240,"midi":55,"name":"G3","ticks":115440,"time":65.855,"velocity":0.7874015748031497},{"duration":0.1349999999999909,"durationTicks":240,"midi":43,"name":"G2","ticks":115680,"time":65.99000000000001,"velocity":0.7874015748031497},{"duration":0.13500000000000512,"durationTicks":240,"midi":55,"name":"G3","ticks":115920,"time":66.125,"velocity":0.7874015748031497},{"duration":0.13500000000000512,"durationTicks":240,"midi":43,"name":"G2","ticks":116160,"time":66.26,"velocity":0.7874015748031497},{"duration":0.1349999999999909,"durationTicks":240,"midi":55,"name":"G3","ticks":116400,"time":66.39500000000001,"velocity":0.7874015748031497},{"duration":0.13500000000000512,"durationTicks":240,"midi":43,"name":"G2","ticks":116640,"time":66.53,"velocity":0.7874015748031497},{"duration":0.13500000000000512,"durationTicks":240,"midi":55,"name":"G3","ticks":116880,"time":66.665,"velocity":0.7874015748031497},{"duration":0.1349999999999909,"durationTicks":240,"midi":40,"name":"E2","ticks":117120,"time":66.80000000000001,"velocity":0.7874015748031497},{"duration":0.13500000000000512,"durationTicks":240,"midi":52,"name":"E3","ticks":117360,"time":66.935,"velocity":0.7874015748031497},{"duration":0.1349999999999909,"durationTicks":240,"midi":40,"name":"E2","ticks":117600,"time":67.07000000000001,"velocity":0.7874015748031497},{"duration":0.13500000000000512,"durationTicks":240,"midi":52,"name":"E3","ticks":117840,"time":67.205,"velocity":0.7874015748031497},{"duration":0.13500000000000512,"durationTicks":240,"midi":40,"name":"E2","ticks":118080,"time":67.34,"velocity":0.7874015748031497},{"duration":0.1349999999999909,"durationTicks":240,"midi":52,"name":"E3","ticks":118320,"time":67.47500000000001,"velocity":0.7874015748031497},{"duration":0.13500000000000512,"durationTicks":240,"midi":40,"name":"E2","ticks":118560,"time":67.61,"velocity":0.7874015748031497},{"duration":0.13500000000000512,"durationTicks":240,"midi":52,"name":"E3","ticks":118800,"time":67.745,"velocity":0.7874015748031497},{"duration":0.1349999999999909,"durationTicks":240,"midi":52,"name":"E3","ticks":119040,"time":67.88000000000001,"velocity":0.7874015748031497},{"duration":0.13500000000000512,"durationTicks":240,"midi":64,"name":"E4","ticks":119280,"time":68.015,"velocity":0.7874015748031497},{"duration":0.13500000000000512,"durationTicks":240,"midi":52,"name":"E3","ticks":119520,"time":68.15,"velocity":0.7874015748031497},{"duration":0.1349999999999909,"durationTicks":240,"midi":64,"name":"E4","ticks":119760,"time":68.28500000000001,"velocity":0.7874015748031497},{"duration":0.13500000000000512,"durationTicks":240,"midi":50,"name":"D3","ticks":120000,"time":68.42,"velocity":0.7874015748031497},{"duration":0.1349999999999909,"durationTicks":240,"midi":62,"name":"D4","ticks":120240,"time":68.555,"velocity":0.7874015748031497},{"duration":0.13500000000000512,"durationTicks":240,"midi":50,"name":"D3","ticks":120480,"time":68.69,"velocity":0.7874015748031497},{"duration":0.13500000000000512,"durationTicks":240,"midi":62,"name":"D4","ticks":120720,"time":68.825,"velocity":0.7874015748031497},{"duration":0.1349999999999909,"durationTicks":240,"midi":48,"name":"C3","ticks":120960,"time":68.96000000000001,"velocity":0.7874015748031497},{"duration":0.13500000000000512,"durationTicks":240,"midi":60,"name":"C4","ticks":121200,"time":69.095,"velocity":0.7874015748031497},{"duration":0.13500000000000512,"durationTicks":240,"midi":48,"name":"C3","ticks":121440,"time":69.23,"velocity":0.7874015748031497},{"duration":0.1349999999999909,"durationTicks":240,"midi":60,"name":"C4","ticks":121680,"time":69.36500000000001,"velocity":0.7874015748031497},{"duration":0.13500000000000512,"durationTicks":240,"midi":48,"name":"C3","ticks":121920,"time":69.5,"velocity":0.7874015748031497},{"duration":0.13500000000000512,"durationTicks":240,"midi":60,"name":"C4","ticks":122160,"time":69.635,"velocity":0.7874015748031497},{"duration":0.1349999999999909,"durationTicks":240,"midi":48,"name":"C3","ticks":122400,"time":69.77000000000001,"velocity":0.7874015748031497},{"duration":0.13500000000000512,"durationTicks":240,"midi":60,"name":"C4","ticks":122640,"time":69.905,"velocity":0.7874015748031497},{"duration":0.13500000000000512,"durationTicks":240,"midi":50,"name":"D3","ticks":122880,"time":70.04,"velocity":0.7874015748031497},{"duration":0.1349999999999909,"durationTicks":240,"midi":62,"name":"D4","ticks":123120,"time":70.17500000000001,"velocity":0.7874015748031497},{"duration":0.13500000000000512,"durationTicks":240,"midi":50,"name":"D3","ticks":123360,"time":70.31,"velocity":0.7874015748031497},{"duration":0.1349999999999909,"durationTicks":240,"midi":62,"name":"D4","ticks":123600,"time":70.44500000000001,"velocity":0.7874015748031497},{"duration":0.13500000000000512,"durationTicks":240,"midi":48,"name":"C3","ticks":123840,"time":70.58,"velocity":0.7874015748031497},{"duration":0.13500000000000512,"durationTicks":240,"midi":60,"name":"C4","ticks":124080,"time":70.715,"velocity":0.7874015748031497},{"duration":0.1349999999999909,"durationTicks":240,"midi":48,"name":"C3","ticks":124320,"time":70.85000000000001,"velocity":0.7874015748031497},{"duration":0.13500000000000512,"durationTicks":240,"midi":60,"name":"C4","ticks":124560,"time":70.985,"velocity":0.7874015748031497},{"duration":0.13500000000000512,"durationTicks":240,"midi":47,"name":"B2","ticks":124800,"time":71.12,"velocity":0.7874015748031497},{"duration":0.1349999999999909,"durationTicks":240,"midi":59,"name":"B3","ticks":125040,"time":71.25500000000001,"velocity":0.7874015748031497},{"duration":0.13500000000000512,"durationTicks":240,"midi":47,"name":"B2","ticks":125280,"time":71.39,"velocity":0.7874015748031497},{"duration":0.13500000000000512,"durationTicks":240,"midi":59,"name":"B3","ticks":125520,"time":71.525,"velocity":0.7874015748031497},{"duration":0.1349999999999909,"durationTicks":240,"midi":47,"name":"B2","ticks":125760,"time":71.66000000000001,"velocity":0.7874015748031497},{"duration":0.13500000000000512,"durationTicks":240,"midi":59,"name":"B3","ticks":126000,"time":71.795,"velocity":0.7874015748031497},{"duration":0.1349999999999909,"durationTicks":240,"midi":47,"name":"B2","ticks":126240,"time":71.93,"velocity":0.7874015748031497},{"duration":0.13500000000000512,"durationTicks":240,"midi":59,"name":"B3","ticks":126480,"time":72.065,"velocity":0.7874015748031497},{"duration":0.13500000000000512,"durationTicks":240,"midi":40,"name":"E2","ticks":126720,"time":72.2,"velocity":0.7874015748031497},{"duration":0.1349999999999909,"durationTicks":240,"midi":52,"name":"E3","ticks":126960,"time":72.33500000000001,"velocity":0.7874015748031497},{"duration":0.13500000000000512,"durationTicks":240,"midi":40,"name":"E2","ticks":127200,"time":72.47,"velocity":0.7874015748031497},{"duration":0.13500000000000512,"durationTicks":240,"midi":52,"name":"E3","ticks":127440,"time":72.605,"velocity":0.7874015748031497},{"duration":0.1349999999999909,"durationTicks":240,"midi":40,"name":"E2","ticks":127680,"time":72.74000000000001,"velocity":0.7874015748031497},{"duration":0.13500000000000512,"durationTicks":240,"midi":52,"name":"E3","ticks":127920,"time":72.875,"velocity":0.7874015748031497},{"duration":0.13500000000000512,"durationTicks":240,"midi":40,"name":"E2","ticks":128160,"time":73.01,"velocity":0.7874015748031497},{"duration":0.1349999999999909,"durationTicks":240,"midi":52,"name":"E3","ticks":128400,"time":73.14500000000001,"velocity":0.7874015748031497},{"duration":0.13500000000000512,"durationTicks":240,"midi":48,"name":"C3","ticks":128640,"time":73.28,"velocity":0.7874015748031497},{"duration":0.13500000000000512,"durationTicks":240,"midi":60,"name":"C4","ticks":128880,"time":73.415,"velocity":0.7874015748031497},{"duration":0.1349999999999909,"durationTicks":240,"midi":48,"name":"C3","ticks":129120,"time":73.55000000000001,"velocity":0.7874015748031497},{"duration":0.13500000000000512,"durationTicks":240,"midi":60,"name":"C4","ticks":129360,"time":73.685,"velocity":0.7874015748031497},{"duration":0.1349999999999909,"durationTicks":240,"midi":48,"name":"C3","ticks":129600,"time":73.82000000000001,"velocity":0.7874015748031497},{"duration":0.13500000000000512,"durationTicks":240,"midi":60,"name":"C4","ticks":129840,"time":73.955,"velocity":0.7874015748031497},{"duration":0.13500000000000512,"durationTicks":240,"midi":48,"name":"C3","ticks":130080,"time":74.09,"velocity":0.7874015748031497},{"duration":0.1349999999999909,"durationTicks":240,"midi":60,"name":"C4","ticks":130320,"time":74.22500000000001,"velocity":0.7874015748031497},{"duration":0.13500000000000512,"durationTicks":240,"midi":50,"name":"D3","ticks":130560,"time":74.36,"velocity":0.7874015748031497},{"duration":0.13500000000000512,"durationTicks":240,"midi":62,"name":"D4","ticks":130800,"time":74.495,"velocity":0.7874015748031497},{"duration":0.1349999999999909,"durationTicks":240,"midi":50,"name":"D3","ticks":131040,"time":74.63000000000001,"velocity":0.7874015748031497},{"duration":0.13500000000000512,"durationTicks":240,"midi":62,"name":"D4","ticks":131280,"time":74.765,"velocity":0.7874015748031497},{"duration":0.13500000000000512,"durationTicks":240,"midi":48,"name":"C3","ticks":131520,"time":74.9,"velocity":0.7874015748031497},{"duration":0.1349999999999909,"durationTicks":240,"midi":60,"name":"C4","ticks":131760,"time":75.03500000000001,"velocity":0.7874015748031497},{"duration":0.13500000000000512,"durationTicks":240,"midi":48,"name":"C3","ticks":132000,"time":75.17,"velocity":0.7874015748031497},{"duration":0.1349999999999909,"durationTicks":240,"midi":60,"name":"C4","ticks":132240,"time":75.305,"velocity":0.7874015748031497},{"duration":0.13500000000000512,"durationTicks":240,"midi":47,"name":"B2","ticks":132480,"time":75.44,"velocity":0.7874015748031497},{"duration":0.13500000000000512,"durationTicks":240,"midi":59,"name":"B3","ticks":132720,"time":75.575,"velocity":0.7874015748031497},{"duration":0.1349999999999909,"durationTicks":240,"midi":47,"name":"B2","ticks":132960,"time":75.71000000000001,"velocity":0.7874015748031497},{"duration":0.13500000000000512,"durationTicks":240,"midi":59,"name":"B3","ticks":133200,"time":75.845,"velocity":0.7874015748031497},{"duration":0.13500000000000512,"durationTicks":240,"midi":51,"name":"D#3","ticks":133440,"time":75.98,"velocity":0.7874015748031497},{"duration":0.1349999999999909,"durationTicks":240,"midi":63,"name":"D#4","ticks":133680,"time":76.11500000000001,"velocity":0.7874015748031497},{"duration":0.13500000000000512,"durationTicks":240,"midi":51,"name":"D#3","ticks":133920,"time":76.25,"velocity":0.7874015748031497},{"duration":0.13500000000000512,"durationTicks":240,"midi":63,"name":"D#4","ticks":134160,"time":76.385,"velocity":0.7874015748031497},{"duration":0.1349999999999909,"durationTicks":240,"midi":52,"name":"E3","ticks":134400,"time":76.52000000000001,"velocity":0.7874015748031497},{"duration":0.13500000000000512,"durationTicks":240,"midi":64,"name":"E4","ticks":134640,"time":76.655,"velocity":0.7874015748031497},{"duration":0.13500000000000512,"durationTicks":240,"midi":52,"name":"E3","ticks":134880,"time":76.79,"velocity":0.7874015748031497},{"duration":0.1349999999999909,"durationTicks":240,"midi":64,"name":"E4","ticks":135120,"time":76.92500000000001,"velocity":0.7874015748031497},{"duration":0.13500000000000512,"durationTicks":240,"midi":50,"name":"D3","ticks":135360,"time":77.06,"velocity":0.7874015748031497},{"duration":0.1349999999999909,"durationTicks":240,"midi":62,"name":"D4","ticks":135600,"time":77.19500000000001,"velocity":0.7874015748031497},{"duration":0.13500000000000512,"durationTicks":240,"midi":50,"name":"D3","ticks":135840,"time":77.33,"velocity":0.7874015748031497},{"duration":0.13500000000000512,"durationTicks":240,"midi":62,"name":"D4","ticks":136080,"time":77.465,"velocity":0.7874015748031497},{"duration":0.1349999999999909,"durationTicks":240,"midi":48,"name":"C3","ticks":136320,"time":77.60000000000001,"velocity":0.7874015748031497},{"duration":0.13500000000000512,"durationTicks":240,"midi":60,"name":"C4","ticks":136560,"time":77.735,"velocity":0.7874015748031497},{"duration":0.13500000000000512,"durationTicks":240,"midi":48,"name":"C3","ticks":136800,"time":77.87,"velocity":0.7874015748031497},{"duration":0.1349999999999909,"durationTicks":240,"midi":60,"name":"C4","ticks":137040,"time":78.00500000000001,"velocity":0.7874015748031497},{"duration":0.13500000000000512,"durationTicks":240,"midi":48,"name":"C3","ticks":137280,"time":78.14,"velocity":0.7874015748031497},{"duration":0.13500000000000512,"durationTicks":240,"midi":60,"name":"C4","ticks":137520,"time":78.275,"velocity":0.7874015748031497},{"duration":0.1349999999999909,"durationTicks":240,"midi":48,"name":"C3","ticks":137760,"time":78.41000000000001,"velocity":0.7874015748031497},{"duration":0.13500000000000512,"durationTicks":240,"midi":60,"name":"C4","ticks":138000,"time":78.545,"velocity":0.7874015748031497},{"duration":0.13500000000000512,"durationTicks":240,"midi":49,"name":"C#3","ticks":138240,"time":78.68,"velocity":0.7874015748031497},{"duration":0.1349999999999909,"durationTicks":240,"midi":61,"name":"C#4","ticks":138480,"time":78.81500000000001,"velocity":0.7874015748031497},{"duration":0.13500000000000512,"durationTicks":240,"midi":49,"name":"C#3","ticks":138720,"time":78.95,"velocity":0.7874015748031497},{"duration":0.1349999999999909,"durationTicks":240,"midi":61,"name":"C#4","ticks":138960,"time":79.08500000000001,"velocity":0.7874015748031497},{"duration":0.13500000000000512,"durationTicks":240,"midi":45,"name":"A2","ticks":139200,"time":79.22,"velocity":0.7874015748031497},{"duration":0.13500000000000512,"durationTicks":240,"midi":57,"name":"A3","ticks":139440,"time":79.355,"velocity":0.7874015748031497},{"duration":0.1349999999999909,"durationTicks":240,"midi":45,"name":"A2","ticks":139680,"time":79.49000000000001,"velocity":0.7874015748031497},{"duration":0.13500000000000512,"durationTicks":240,"midi":57,"name":"A3","ticks":139920,"time":79.625,"velocity":0.7874015748031497},{"duration":0.13500000000000512,"durationTicks":240,"midi":50,"name":"D3","ticks":140160,"time":79.76,"velocity":0.7874015748031497},{"duration":0.1349999999999909,"durationTicks":240,"midi":62,"name":"D4","ticks":140400,"time":79.89500000000001,"velocity":0.7874015748031497},{"duration":0.13500000000000512,"durationTicks":240,"midi":50,"name":"D3","ticks":140640,"time":80.03,"velocity":0.7874015748031497},{"duration":0.13500000000000512,"durationTicks":240,"midi":62,"name":"D4","ticks":140880,"time":80.165,"velocity":0.7874015748031497},{"duration":0.1349999999999909,"durationTicks":240,"midi":50,"name":"D3","ticks":141120,"time":80.30000000000001,"velocity":0.7874015748031497},{"duration":0.13500000000000512,"durationTicks":240,"midi":62,"name":"D4","ticks":141360,"time":80.435,"velocity":0.7874015748031497},{"duration":0.1349999999999909,"durationTicks":240,"midi":50,"name":"D3","ticks":141600,"time":80.57000000000001,"velocity":0.7874015748031497},{"duration":0.13500000000000512,"durationTicks":240,"midi":62,"name":"D4","ticks":141840,"time":80.705,"velocity":0.7874015748031497},{"duration":0.13500000000000512,"durationTicks":240,"midi":50,"name":"D3","ticks":142080,"time":80.84,"velocity":0.7874015748031497},{"duration":0.1349999999999909,"durationTicks":240,"midi":62,"name":"D4","ticks":142320,"time":80.97500000000001,"velocity":0.7874015748031497},{"duration":0.13500000000000512,"durationTicks":240,"midi":48,"name":"C3","ticks":142560,"time":81.11,"velocity":0.7874015748031497},{"duration":0.13500000000000512,"durationTicks":240,"midi":60,"name":"C4","ticks":142800,"time":81.245,"velocity":0.7874015748031497},{"duration":0.1349999999999909,"durationTicks":240,"midi":47,"name":"B2","ticks":143040,"time":81.38000000000001,"velocity":0.7874015748031497},{"duration":0.13500000000000512,"durationTicks":240,"midi":59,"name":"B3","ticks":143280,"time":81.515,"velocity":0.7874015748031497},{"duration":0.13500000000000512,"durationTicks":240,"midi":45,"name":"A2","ticks":143520,"time":81.65,"velocity":0.7874015748031497},{"duration":0.1349999999999909,"durationTicks":240,"midi":57,"name":"A3","ticks":143760,"time":81.78500000000001,"velocity":0.7874015748031497},{"duration":0.5400000000000063,"durationTicks":960,"midi":52,"name":"E3","ticks":144000,"time":81.92,"velocity":0.7874015748031497},{"duration":0.539999999999992,"durationTicks":960,"midi":48,"name":"C3","ticks":144960,"time":82.46000000000001,"velocity":0.7874015748031497},{"duration":0.5400000000000063,"durationTicks":960,"midi":50,"name":"D3","ticks":145920,"time":83,"velocity":0.7874015748031497},{"duration":0.269999999999996,"durationTicks":480,"midi":55,"name":"G3","ticks":146880,"time":83.54,"velocity":0.7874015748031497},{"duration":0.27000000000001023,"durationTicks":480,"midi":54,"name":"F#3","ticks":147360,"time":83.81,"velocity":0.7874015748031497},{"duration":0.539999999999992,"durationTicks":960,"midi":52,"name":"E3","ticks":147840,"time":84.08000000000001,"velocity":0.7874015748031497},{"duration":0.5400000000000063,"durationTicks":960,"midi":48,"name":"C3","ticks":148800,"time":84.62,"velocity":0.7874015748031497},{"duration":0.269999999999996,"durationTicks":480,"midi":50,"name":"D3","ticks":149760,"time":85.16000000000001,"velocity":0.7874015748031497},{"duration":0.13500000000000512,"durationTicks":240,"midi":50,"name":"D3","ticks":150240,"time":85.43,"velocity":0.7874015748031497},{"duration":0.1349999999999909,"durationTicks":240,"midi":54,"name":"F#3","ticks":150480,"time":85.56500000000001,"velocity":0.7874015748031497},{"duration":0.18000000000000682,"durationTicks":320,"midi":55,"name":"G3","ticks":150720,"time":85.7,"velocity":0.7874015748031497},{"duration":0.1799999999999926,"durationTicks":320,"midi":54,"name":"F#3","ticks":151040,"time":85.88000000000001,"velocity":0.7874015748031497},{"duration":0.18000000000000682,"durationTicks":320,"midi":50,"name":"D3","ticks":151360,"time":86.06,"velocity":0.7874015748031497},{"duration":0.539999999999992,"durationTicks":960,"midi":52,"name":"E3","ticks":151680,"time":86.24000000000001,"velocity":0.7874015748031497},{"duration":0.5400000000000063,"durationTicks":960,"midi":48,"name":"C3","ticks":152640,"time":86.78,"velocity":0.7874015748031497},{"duration":0.539999999999992,"durationTicks":960,"midi":50,"name":"D3","ticks":153600,"time":87.32000000000001,"velocity":0.7874015748031497},{"duration":0.27000000000001023,"durationTicks":480,"midi":55,"name":"G3","ticks":154560,"time":87.86,"velocity":0.7874015748031497},{"duration":0.269999999999996,"durationTicks":480,"midi":54,"name":"F#3","ticks":155040,"time":88.13000000000001,"velocity":0.7874015748031497},{"duration":0.5400000000000063,"durationTicks":960,"midi":52,"name":"E3","ticks":155520,"time":88.4,"velocity":0.7874015748031497},{"duration":0.539999999999992,"durationTicks":960,"midi":48,"name":"C3","ticks":156480,"time":88.94000000000001,"velocity":0.7874015748031497},{"duration":0.269999999999996,"durationTicks":480,"midi":50,"name":"D3","ticks":157440,"time":89.48,"velocity":0.7874015748031497},{"duration":0.13500000000000512,"durationTicks":240,"midi":50,"name":"D3","ticks":157920,"time":89.75,"velocity":0.7874015748031497},{"duration":0.13500000000000512,"durationTicks":240,"midi":54,"name":"F#3","ticks":158160,"time":89.885,"velocity":0.7874015748031497},{"duration":0.18000000000000682,"durationTicks":320,"midi":55,"name":"G3","ticks":158400,"time":90.02000000000001,"velocity":0.7874015748031497},{"duration":0.1799999999999784,"durationTicks":320,"midi":54,"name":"F#3","ticks":158720,"time":90.20000000000002,"velocity":0.7874015748031497},{"duration":0.18000000000000682,"durationTicks":320,"midi":50,"name":"D3","ticks":159040,"time":90.38,"velocity":0.7874015748031497},{"duration":0.5400000000000063,"durationTicks":960,"midi":52,"name":"E3","ticks":159360,"time":90.56,"velocity":0.7874015748031497},{"duration":0.539999999999992,"durationTicks":960,"midi":48,"name":"C3","ticks":160320,"time":91.10000000000001,"velocity":0.7874015748031497},{"duration":0.5400000000000063,"durationTicks":960,"midi":50,"name":"D3","ticks":161280,"time":91.64,"velocity":0.7874015748031497},{"duration":0.269999999999996,"durationTicks":480,"midi":55,"name":"G3","ticks":162240,"time":92.18,"velocity":0.7874015748031497},{"duration":0.269999999999996,"durationTicks":480,"midi":54,"name":"F#3","ticks":162720,"time":92.45,"velocity":0.7874015748031497},{"duration":0.5400000000000063,"durationTicks":960,"midi":52,"name":"E3","ticks":163200,"time":92.72,"velocity":0.7874015748031497},{"duration":0.5400000000000063,"durationTicks":960,"midi":48,"name":"C3","ticks":164160,"time":93.26,"velocity":0.7874015748031497},{"duration":0.269999999999996,"durationTicks":480,"midi":50,"name":"D3","ticks":165120,"time":93.80000000000001,"velocity":0.7874015748031497},{"duration":0.13500000000000512,"durationTicks":240,"midi":50,"name":"D3","ticks":165600,"time":94.07000000000001,"velocity":0.7874015748031497},{"duration":0.1349999999999909,"durationTicks":240,"midi":54,"name":"F#3","ticks":165840,"time":94.20500000000001,"velocity":0.7874015748031497},{"duration":0.18000000000000682,"durationTicks":320,"midi":55,"name":"G3","ticks":166080,"time":94.34,"velocity":0.7874015748031497},{"duration":0.1799999999999926,"durationTicks":320,"midi":54,"name":"F#3","ticks":166400,"time":94.52000000000001,"velocity":0.7874015748031497},{"duration":0.18000000000000682,"durationTicks":320,"midi":50,"name":"D3","ticks":166720,"time":94.7,"velocity":0.7874015748031497},{"duration":0.539999999999992,"durationTicks":960,"midi":54,"name":"F#3","ticks":167040,"time":94.88000000000001,"velocity":0.7874015748031497},{"duration":0.5400000000000063,"durationTicks":960,"midi":50,"name":"D3","ticks":168000,"time":95.42,"velocity":0.7874015748031497},{"duration":0.539999999999992,"durationTicks":960,"midi":52,"name":"E3","ticks":168960,"time":95.96000000000001,"velocity":0.7874015748031497},{"duration":0.5400000000000063,"durationTicks":960,"midi":57,"name":"A3","ticks":169920,"time":96.5,"velocity":0.7874015748031497},{"duration":0.5400000000000063,"durationTicks":960,"midi":54,"name":"F#3","ticks":170880,"time":97.04,"velocity":0.7874015748031497},{"duration":0.539999999999992,"durationTicks":960,"midi":50,"name":"D3","ticks":171840,"time":97.58000000000001,"velocity":0.7874015748031497},{"duration":0.13500000000000512,"durationTicks":240,"midi":40,"name":"E2","ticks":172800,"time":98.12,"velocity":0.7874015748031497},{"duration":0.1349999999999909,"durationTicks":240,"midi":52,"name":"E3","ticks":173040,"time":98.25500000000001,"velocity":0.7874015748031497},{"duration":0.13500000000000512,"durationTicks":240,"midi":40,"name":"E2","ticks":173280,"time":98.39,"velocity":0.7874015748031497},{"duration":0.13500000000000512,"durationTicks":240,"midi":52,"name":"E3","ticks":173520,"time":98.525,"velocity":0.7874015748031497},{"duration":0.1349999999999909,"durationTicks":240,"midi":40,"name":"E2","ticks":173760,"time":98.66000000000001,"velocity":0.7874015748031497},{"duration":0.13500000000000512,"durationTicks":240,"midi":52,"name":"E3","ticks":174000,"time":98.795,"velocity":0.7874015748031497},{"duration":0.13500000000000512,"durationTicks":240,"midi":40,"name":"E2","ticks":174240,"time":98.93,"velocity":0.7874015748031497},{"duration":0.1349999999999909,"durationTicks":240,"midi":52,"name":"E3","ticks":174480,"time":99.06500000000001,"velocity":0.7874015748031497},{"duration":0.13500000000000512,"durationTicks":240,"midi":40,"name":"E2","ticks":174720,"time":99.2,"velocity":0.7874015748031497},{"duration":0.13500000000000512,"durationTicks":240,"midi":52,"name":"E3","ticks":174960,"time":99.33500000000001,"velocity":0.7874015748031497},{"duration":0.1349999999999909,"durationTicks":240,"midi":40,"name":"E2","ticks":175200,"time":99.47000000000001,"velocity":0.7874015748031497},{"duration":0.13500000000000512,"durationTicks":240,"midi":52,"name":"E3","ticks":175440,"time":99.605,"velocity":0.7874015748031497},{"duration":0.1349999999999909,"durationTicks":240,"midi":40,"name":"E2","ticks":175680,"time":99.74000000000001,"velocity":0.7874015748031497},{"duration":0.13500000000000512,"durationTicks":240,"midi":52,"name":"E3","ticks":175920,"time":99.875,"velocity":0.7874015748031497},{"duration":0.13500000000000512,"durationTicks":240,"midi":40,"name":"E2","ticks":176160,"time":100.01,"velocity":0.7874015748031497},{"duration":0.1349999999999909,"durationTicks":240,"midi":52,"name":"E3","ticks":176400,"time":100.14500000000001,"velocity":0.7874015748031497},{"duration":0.13500000000000512,"durationTicks":240,"midi":40,"name":"E2","ticks":176640,"time":100.28,"velocity":0.7874015748031497},{"duration":0.13500000000000512,"durationTicks":240,"midi":52,"name":"E3","ticks":176880,"time":100.415,"velocity":0.7874015748031497},{"duration":0.1349999999999909,"durationTicks":240,"midi":40,"name":"E2","ticks":177120,"time":100.55000000000001,"velocity":0.7874015748031497},{"duration":0.13500000000000512,"durationTicks":240,"midi":52,"name":"E3","ticks":177360,"time":100.685,"velocity":0.7874015748031497},{"duration":0.13500000000000512,"durationTicks":240,"midi":40,"name":"E2","ticks":177600,"time":100.82000000000001,"velocity":0.7874015748031497},{"duration":0.1349999999999909,"durationTicks":240,"midi":52,"name":"E3","ticks":177840,"time":100.95500000000001,"velocity":0.7874015748031497},{"duration":0.13500000000000512,"durationTicks":240,"midi":40,"name":"E2","ticks":178080,"time":101.09,"velocity":0.7874015748031497},{"duration":0.13500000000000512,"durationTicks":240,"midi":52,"name":"E3","ticks":178320,"time":101.22500000000001,"velocity":0.7874015748031497},{"duration":0.1349999999999909,"durationTicks":240,"midi":40,"name":"E2","ticks":178560,"time":101.36000000000001,"velocity":0.7874015748031497},{"duration":0.13500000000000512,"durationTicks":240,"midi":52,"name":"E3","ticks":178800,"time":101.495,"velocity":0.7874015748031497},{"duration":0.1349999999999909,"durationTicks":240,"midi":40,"name":"E2","ticks":179040,"time":101.63000000000001,"velocity":0.7874015748031497},{"duration":0.13500000000000512,"durationTicks":240,"midi":52,"name":"E3","ticks":179280,"time":101.765,"velocity":0.7874015748031497},{"duration":0.13500000000000512,"durationTicks":240,"midi":40,"name":"E2","ticks":179520,"time":101.9,"velocity":0.7874015748031497},{"duration":0.1349999999999909,"durationTicks":240,"midi":52,"name":"E3","ticks":179760,"time":102.03500000000001,"velocity":0.7874015748031497},{"duration":0.13500000000000512,"durationTicks":240,"midi":40,"name":"E2","ticks":180000,"time":102.17,"velocity":0.7874015748031497},{"duration":0.13500000000000512,"durationTicks":240,"midi":52,"name":"E3","ticks":180240,"time":102.305,"velocity":0.7874015748031497},{"duration":0.1349999999999909,"durationTicks":240,"midi":40,"name":"E2","ticks":180480,"time":102.44000000000001,"velocity":0.7874015748031497},{"duration":0.13500000000000512,"durationTicks":240,"midi":52,"name":"E3","ticks":180720,"time":102.575,"velocity":0.7874015748031497},{"duration":0.13500000000000512,"durationTicks":240,"midi":40,"name":"E2","ticks":180960,"time":102.71000000000001,"velocity":0.7874015748031497},{"duration":0.1349999999999909,"durationTicks":240,"midi":52,"name":"E3","ticks":181200,"time":102.84500000000001,"velocity":0.7874015748031497},{"duration":0.13500000000000512,"durationTicks":240,"midi":40,"name":"E2","ticks":181440,"time":102.98,"velocity":0.7874015748031497},{"duration":0.1349999999999909,"durationTicks":240,"midi":52,"name":"E3","ticks":181680,"time":103.11500000000001,"velocity":0.7874015748031497},{"duration":0.13500000000000512,"durationTicks":240,"midi":40,"name":"E2","ticks":181920,"time":103.25,"velocity":0.7874015748031497},{"duration":0.13500000000000512,"durationTicks":240,"midi":52,"name":"E3","ticks":182160,"time":103.385,"velocity":0.7874015748031497},{"duration":0.1349999999999909,"durationTicks":240,"midi":40,"name":"E2","ticks":182400,"time":103.52000000000001,"velocity":0.7874015748031497},{"duration":0.13500000000000512,"durationTicks":240,"midi":52,"name":"E3","ticks":182640,"time":103.655,"velocity":0.7874015748031497},{"duration":0.13500000000000512,"durationTicks":240,"midi":40,"name":"E2","ticks":182880,"time":103.79,"velocity":0.7874015748031497},{"duration":0.1349999999999909,"durationTicks":240,"midi":52,"name":"E3","ticks":183120,"time":103.92500000000001,"velocity":0.7874015748031497},{"duration":0.13500000000000512,"durationTicks":240,"midi":40,"name":"E2","ticks":183360,"time":104.06,"velocity":0.7874015748031497},{"duration":0.13500000000000512,"durationTicks":240,"midi":52,"name":"E3","ticks":183600,"time":104.19500000000001,"velocity":0.7874015748031497},{"duration":0.1349999999999909,"durationTicks":240,"midi":40,"name":"E2","ticks":183840,"time":104.33000000000001,"velocity":0.7874015748031497},{"duration":0.13500000000000512,"durationTicks":240,"midi":52,"name":"E3","ticks":184080,"time":104.465,"velocity":0.7874015748031497},{"duration":0.13500000000000512,"durationTicks":240,"midi":40,"name":"E2","ticks":184320,"time":104.60000000000001,"velocity":0.7874015748031497},{"duration":0.1349999999999909,"durationTicks":240,"midi":52,"name":"E3","ticks":184560,"time":104.73500000000001,"velocity":0.7874015748031497},{"duration":0.13500000000000512,"durationTicks":240,"midi":40,"name":"E2","ticks":184800,"time":104.87,"velocity":0.7874015748031497},{"duration":0.1349999999999909,"durationTicks":240,"midi":52,"name":"E3","ticks":185040,"time":105.00500000000001,"velocity":0.7874015748031497},{"duration":0.13500000000000512,"durationTicks":240,"midi":40,"name":"E2","ticks":185280,"time":105.14,"velocity":0.7874015748031497},{"duration":0.13500000000000512,"durationTicks":240,"midi":52,"name":"E3","ticks":185520,"time":105.275,"velocity":0.7874015748031497},{"duration":0.1349999999999909,"durationTicks":240,"midi":40,"name":"E2","ticks":185760,"time":105.41000000000001,"velocity":0.7874015748031497},{"duration":0.13500000000000512,"durationTicks":240,"midi":52,"name":"E3","ticks":186000,"time":105.545,"velocity":0.7874015748031497},{"duration":0.13500000000000512,"durationTicks":240,"midi":40,"name":"E2","ticks":186240,"time":105.68,"velocity":0.7874015748031497},{"duration":0.1349999999999909,"durationTicks":240,"midi":52,"name":"E3","ticks":186480,"time":105.81500000000001,"velocity":0.7874015748031497},{"duration":0.13500000000000512,"durationTicks":240,"midi":40,"name":"E2","ticks":186720,"time":105.95,"velocity":0.7874015748031497},{"duration":0.13500000000000512,"durationTicks":240,"midi":52,"name":"E3","ticks":186960,"time":106.08500000000001,"velocity":0.7874015748031497},{"duration":0.1349999999999909,"durationTicks":240,"midi":40,"name":"E2","ticks":187200,"time":106.22000000000001,"velocity":0.7874015748031497},{"duration":0.13500000000000512,"durationTicks":240,"midi":52,"name":"E3","ticks":187440,"time":106.355,"velocity":0.7874015748031497},{"duration":0.1349999999999909,"durationTicks":240,"midi":40,"name":"E2","ticks":187680,"time":106.49000000000001,"velocity":0.7874015748031497},{"duration":0.13500000000000512,"durationTicks":240,"midi":52,"name":"E3","ticks":187920,"time":106.625,"velocity":0.7874015748031497},{"duration":0.8100000000000023,"durationTicks":1440,"midi":40,"name":"E2","ticks":188160,"time":106.76,"velocity":0.7874015748031497},{"duration":0.8100000000000023,"durationTicks":1440,"midi":52,"name":"E3","ticks":188160,"time":106.76,"velocity":0.7874015748031497},{"duration":0.269999999999996,"durationTicks":480,"midi":40,"name":"E2","ticks":189600,"time":107.57000000000001,"velocity":0.7874015748031497},{"duration":0.269999999999996,"durationTicks":480,"midi":52,"name":"E3","ticks":189600,"time":107.57000000000001,"velocity":0.7874015748031497},{"duration":0.13500000000000512,"durationTicks":240,"midi":45,"name":"A2","ticks":190080,"time":107.84,"velocity":0.7874015748031497},{"duration":0.13500000000000512,"durationTicks":240,"midi":57,"name":"A3","ticks":190320,"time":107.97500000000001,"velocity":0.7874015748031497},{"duration":0.1349999999999909,"durationTicks":240,"midi":45,"name":"A2","ticks":190560,"time":108.11000000000001,"velocity":0.7874015748031497},{"duration":0.13500000000000512,"durationTicks":240,"midi":57,"name":"A3","ticks":190800,"time":108.245,"velocity":0.7874015748031497},{"duration":0.1349999999999909,"durationTicks":240,"midi":45,"name":"A2","ticks":191040,"time":108.38000000000001,"velocity":0.7874015748031497},{"duration":0.13500000000000512,"durationTicks":240,"midi":57,"name":"A3","ticks":191280,"time":108.515,"velocity":0.7874015748031497},{"duration":0.13500000000000512,"durationTicks":240,"midi":45,"name":"A2","ticks":191520,"time":108.65,"velocity":0.7874015748031497},{"duration":0.1349999999999909,"durationTicks":240,"midi":57,"name":"A3","ticks":191760,"time":108.78500000000001,"velocity":0.7874015748031497},{"duration":0.13500000000000512,"durationTicks":240,"midi":45,"name":"A2","ticks":192000,"time":108.92,"velocity":0.7874015748031497},{"duration":0.13500000000000512,"durationTicks":240,"midi":57,"name":"A3","ticks":192240,"time":109.055,"velocity":0.7874015748031497},{"duration":0.1349999999999909,"durationTicks":240,"midi":45,"name":"A2","ticks":192480,"time":109.19000000000001,"velocity":0.7874015748031497},{"duration":0.13500000000000512,"durationTicks":240,"midi":57,"name":"A3","ticks":192720,"time":109.325,"velocity":0.7874015748031497},{"duration":0.13500000000000512,"durationTicks":240,"midi":45,"name":"A2","ticks":192960,"time":109.46000000000001,"velocity":0.7874015748031497},{"duration":0.1349999999999909,"durationTicks":240,"midi":57,"name":"A3","ticks":193200,"time":109.59500000000001,"velocity":0.7874015748031497},{"duration":0.13500000000000512,"durationTicks":240,"midi":45,"name":"A2","ticks":193440,"time":109.73,"velocity":0.7874015748031497},{"duration":0.1349999999999909,"durationTicks":240,"midi":57,"name":"A3","ticks":193680,"time":109.86500000000001,"velocity":0.7874015748031497},{"duration":0.13500000000000512,"durationTicks":240,"midi":42,"name":"F#2","ticks":193920,"time":110,"velocity":0.7874015748031497},{"duration":0.13500000000000512,"durationTicks":240,"midi":54,"name":"F#3","ticks":194160,"time":110.135,"velocity":0.7874015748031497},{"duration":0.1349999999999909,"durationTicks":240,"midi":42,"name":"F#2","ticks":194400,"time":110.27000000000001,"velocity":0.7874015748031497},{"duration":0.13500000000000512,"durationTicks":240,"midi":54,"name":"F#3","ticks":194640,"time":110.405,"velocity":0.7874015748031497},{"duration":0.13500000000000512,"durationTicks":240,"midi":42,"name":"F#2","ticks":194880,"time":110.54,"velocity":0.7874015748031497},{"duration":0.1349999999999909,"durationTicks":240,"midi":54,"name":"F#3","ticks":195120,"time":110.67500000000001,"velocity":0.7874015748031497},{"duration":0.13500000000000512,"durationTicks":240,"midi":42,"name":"F#2","ticks":195360,"time":110.81,"velocity":0.7874015748031497},{"duration":0.13500000000000512,"durationTicks":240,"midi":54,"name":"F#3","ticks":195600,"time":110.94500000000001,"velocity":0.7874015748031497},{"duration":0.1349999999999909,"durationTicks":240,"midi":54,"name":"F#3","ticks":195840,"time":111.08000000000001,"velocity":0.7874015748031497},{"duration":0.13500000000000512,"durationTicks":240,"midi":66,"name":"F#4","ticks":196080,"time":111.215,"velocity":0.7874015748031497},{"duration":0.13500000000000512,"durationTicks":240,"midi":54,"name":"F#3","ticks":196320,"time":111.35000000000001,"velocity":0.7874015748031497},{"duration":0.1349999999999909,"durationTicks":240,"midi":66,"name":"F#4","ticks":196560,"time":111.48500000000001,"velocity":0.7874015748031497},{"duration":0.13500000000000512,"durationTicks":240,"midi":52,"name":"E3","ticks":196800,"time":111.62,"velocity":0.7874015748031497},{"duration":0.1349999999999909,"durationTicks":240,"midi":64,"name":"E4","ticks":197040,"time":111.75500000000001,"velocity":0.7874015748031497},{"duration":0.13500000000000512,"durationTicks":240,"midi":52,"name":"E3","ticks":197280,"time":111.89,"velocity":0.7874015748031497},{"duration":0.13500000000000512,"durationTicks":240,"midi":64,"name":"E4","ticks":197520,"time":112.025,"velocity":0.7874015748031497},{"duration":0.1349999999999909,"durationTicks":240,"midi":50,"name":"D3","ticks":197760,"time":112.16000000000001,"velocity":0.7874015748031497},{"duration":0.13500000000000512,"durationTicks":240,"midi":62,"name":"D4","ticks":198000,"time":112.295,"velocity":0.7874015748031497},{"duration":0.13500000000000512,"durationTicks":240,"midi":50,"name":"D3","ticks":198240,"time":112.43,"velocity":0.7874015748031497},{"duration":0.1349999999999909,"durationTicks":240,"midi":62,"name":"D4","ticks":198480,"time":112.56500000000001,"velocity":0.7874015748031497},{"duration":0.13500000000000512,"durationTicks":240,"midi":50,"name":"D3","ticks":198720,"time":112.7,"velocity":0.7874015748031497},{"duration":0.13500000000000512,"durationTicks":240,"midi":62,"name":"D4","ticks":198960,"time":112.83500000000001,"velocity":0.7874015748031497},{"duration":0.1349999999999909,"durationTicks":240,"midi":50,"name":"D3","ticks":199200,"time":112.97000000000001,"velocity":0.7874015748031497},{"duration":0.13500000000000512,"durationTicks":240,"midi":62,"name":"D4","ticks":199440,"time":113.105,"velocity":0.7874015748031497},{"duration":0.13500000000000512,"durationTicks":240,"midi":52,"name":"E3","ticks":199680,"time":113.24000000000001,"velocity":0.7874015748031497},{"duration":0.1349999999999909,"durationTicks":240,"midi":64,"name":"E4","ticks":199920,"time":113.37500000000001,"velocity":0.7874015748031497},{"duration":0.13500000000000512,"durationTicks":240,"midi":52,"name":"E3","ticks":200160,"time":113.51,"velocity":0.7874015748031497},{"duration":0.1349999999999909,"durationTicks":240,"midi":64,"name":"E4","ticks":200400,"time":113.64500000000001,"velocity":0.7874015748031497},{"duration":0.13500000000000512,"durationTicks":240,"midi":50,"name":"D3","ticks":200640,"time":113.78,"velocity":0.7874015748031497},{"duration":0.13500000000000512,"durationTicks":240,"midi":62,"name":"D4","ticks":200880,"time":113.915,"velocity":0.7874015748031497},{"duration":0.1349999999999909,"durationTicks":240,"midi":50,"name":"D3","ticks":201120,"time":114.05000000000001,"velocity":0.7874015748031497},{"duration":0.13500000000000512,"durationTicks":240,"midi":62,"name":"D4","ticks":201360,"time":114.185,"velocity":0.7874015748031497},{"duration":0.13500000000000512,"durationTicks":240,"midi":49,"name":"C#3","ticks":201600,"time":114.32000000000001,"velocity":0.7874015748031497},{"duration":0.1349999999999909,"durationTicks":240,"midi":61,"name":"C#4","ticks":201840,"time":114.45500000000001,"velocity":0.7874015748031497},{"duration":0.13500000000000512,"durationTicks":240,"midi":49,"name":"C#3","ticks":202080,"time":114.59,"velocity":0.7874015748031497},{"duration":0.13500000000000512,"durationTicks":240,"midi":61,"name":"C#4","ticks":202320,"time":114.72500000000001,"velocity":0.7874015748031497},{"duration":0.1349999999999909,"durationTicks":240,"midi":49,"name":"C#3","ticks":202560,"time":114.86000000000001,"velocity":0.7874015748031497},{"duration":0.13500000000000512,"durationTicks":240,"midi":61,"name":"C#4","ticks":202800,"time":114.995,"velocity":0.7874015748031497},{"duration":0.1349999999999909,"durationTicks":240,"midi":49,"name":"C#3","ticks":203040,"time":115.13000000000001,"velocity":0.7874015748031497},{"duration":0.13500000000000512,"durationTicks":240,"midi":61,"name":"C#4","ticks":203280,"time":115.265,"velocity":0.7874015748031497},{"duration":0.13500000000000512,"durationTicks":240,"midi":42,"name":"F#2","ticks":203520,"time":115.4,"velocity":0.7874015748031497},{"duration":0.1349999999999909,"durationTicks":240,"midi":54,"name":"F#3","ticks":203760,"time":115.53500000000001,"velocity":0.7874015748031497},{"duration":0.13500000000000512,"durationTicks":240,"midi":42,"name":"F#2","ticks":204000,"time":115.67,"velocity":0.7874015748031497},{"duration":0.13500000000000512,"durationTicks":240,"midi":54,"name":"F#3","ticks":204240,"time":115.805,"velocity":0.7874015748031497},{"duration":0.1349999999999909,"durationTicks":240,"midi":42,"name":"F#2","ticks":204480,"time":115.94000000000001,"velocity":0.7874015748031497},{"duration":0.13500000000000512,"durationTicks":240,"midi":54,"name":"F#3","ticks":204720,"time":116.075,"velocity":0.7874015748031497},{"duration":0.13500000000000512,"durationTicks":240,"midi":42,"name":"F#2","ticks":204960,"time":116.21000000000001,"velocity":0.7874015748031497},{"duration":0.1349999999999909,"durationTicks":240,"midi":54,"name":"F#3","ticks":205200,"time":116.34500000000001,"velocity":0.7874015748031497},{"duration":0.13500000000000512,"durationTicks":240,"midi":50,"name":"D3","ticks":205440,"time":116.48,"velocity":0.7874015748031497},{"duration":0.13500000000000512,"durationTicks":240,"midi":62,"name":"D4","ticks":205680,"time":116.61500000000001,"velocity":0.7874015748031497},{"duration":0.1349999999999909,"durationTicks":240,"midi":50,"name":"D3","ticks":205920,"time":116.75000000000001,"velocity":0.7874015748031497},{"duration":0.13500000000000512,"durationTicks":240,"midi":62,"name":"D4","ticks":206160,"time":116.885,"velocity":0.7874015748031497},{"duration":0.1349999999999909,"durationTicks":240,"midi":50,"name":"D3","ticks":206400,"time":117.02000000000001,"velocity":0.7874015748031497},{"duration":0.13500000000000512,"durationTicks":240,"midi":62,"name":"D4","ticks":206640,"time":117.155,"velocity":0.7874015748031497},{"duration":0.13500000000000512,"durationTicks":240,"midi":50,"name":"D3","ticks":206880,"time":117.29,"velocity":0.7874015748031497},{"duration":0.1349999999999909,"durationTicks":240,"midi":62,"name":"D4","ticks":207120,"time":117.42500000000001,"velocity":0.7874015748031497},{"duration":0.13500000000000512,"durationTicks":240,"midi":52,"name":"E3","ticks":207360,"time":117.56,"velocity":0.7874015748031497},{"duration":0.13500000000000512,"durationTicks":240,"midi":64,"name":"E4","ticks":207600,"time":117.69500000000001,"velocity":0.7874015748031497},{"duration":0.1349999999999909,"durationTicks":240,"midi":52,"name":"E3","ticks":207840,"time":117.83000000000001,"velocity":0.7874015748031497},{"duration":0.13500000000000512,"durationTicks":240,"midi":64,"name":"E4","ticks":208080,"time":117.965,"velocity":0.7874015748031497},{"duration":0.13500000000000512,"durationTicks":240,"midi":50,"name":"D3","ticks":208320,"time":118.10000000000001,"velocity":0.7874015748031497},{"duration":0.1349999999999909,"durationTicks":240,"midi":62,"name":"D4","ticks":208560,"time":118.23500000000001,"velocity":0.7874015748031497},{"duration":0.13500000000000512,"durationTicks":240,"midi":50,"name":"D3","ticks":208800,"time":118.37,"velocity":0.7874015748031497},{"duration":0.13500000000000512,"durationTicks":240,"midi":62,"name":"D4","ticks":209040,"time":118.50500000000001,"velocity":0.7874015748031497},{"duration":0.1349999999999909,"durationTicks":240,"midi":49,"name":"C#3","ticks":209280,"time":118.64000000000001,"velocity":0.7874015748031497},{"duration":0.13500000000000512,"durationTicks":240,"midi":61,"name":"C#4","ticks":209520,"time":118.775,"velocity":0.7874015748031497},{"duration":0.1349999999999909,"durationTicks":240,"midi":49,"name":"C#3","ticks":209760,"time":118.91000000000001,"velocity":0.7874015748031497},{"duration":0.13500000000000512,"durationTicks":240,"midi":61,"name":"C#4","ticks":210000,"time":119.045,"velocity":0.7874015748031497},{"duration":0.13500000000000512,"durationTicks":240,"midi":53,"name":"F3","ticks":210240,"time":119.18,"velocity":0.7874015748031497},{"duration":0.1349999999999909,"durationTicks":240,"midi":65,"name":"F4","ticks":210480,"time":119.31500000000001,"velocity":0.7874015748031497},{"duration":0.13500000000000512,"durationTicks":240,"midi":53,"name":"F3","ticks":210720,"time":119.45,"velocity":0.7874015748031497},{"duration":0.13500000000000512,"durationTicks":240,"midi":65,"name":"F4","ticks":210960,"time":119.58500000000001,"velocity":0.7874015748031497},{"duration":0.1349999999999909,"durationTicks":240,"midi":54,"name":"F#3","ticks":211200,"time":119.72000000000001,"velocity":0.7874015748031497},{"duration":0.13500000000000512,"durationTicks":240,"midi":66,"name":"F#4","ticks":211440,"time":119.855,"velocity":0.7874015748031497},{"duration":0.13500000000000512,"durationTicks":240,"midi":54,"name":"F#3","ticks":211680,"time":119.99000000000001,"velocity":0.7874015748031497},{"duration":0.1349999999999909,"durationTicks":240,"midi":66,"name":"F#4","ticks":211920,"time":120.12500000000001,"velocity":0.7874015748031497},{"duration":0.13500000000000512,"durationTicks":240,"midi":52,"name":"E3","ticks":212160,"time":120.26,"velocity":0.7874015748031497},{"duration":0.1349999999999909,"durationTicks":240,"midi":64,"name":"E4","ticks":212400,"time":120.39500000000001,"velocity":0.7874015748031497},{"duration":0.13500000000000512,"durationTicks":240,"midi":52,"name":"E3","ticks":212640,"time":120.53,"velocity":0.7874015748031497},{"duration":0.13500000000000512,"durationTicks":240,"midi":64,"name":"E4","ticks":212880,"time":120.665,"velocity":0.7874015748031497},{"duration":0.1349999999999909,"durationTicks":240,"midi":50,"name":"D3","ticks":213120,"time":120.80000000000001,"velocity":0.7874015748031497},{"duration":0.13500000000000512,"durationTicks":240,"midi":62,"name":"D4","ticks":213360,"time":120.935,"velocity":0.7874015748031497},{"duration":0.13500000000000512,"durationTicks":240,"midi":50,"name":"D3","ticks":213600,"time":121.07000000000001,"velocity":0.7874015748031497},{"duration":0.1349999999999909,"durationTicks":240,"midi":62,"name":"D4","ticks":213840,"time":121.20500000000001,"velocity":0.7874015748031497},{"duration":0.13500000000000512,"durationTicks":240,"midi":50,"name":"D3","ticks":214080,"time":121.34,"velocity":0.7874015748031497},{"duration":0.13500000000000512,"durationTicks":240,"midi":62,"name":"D4","ticks":214320,"time":121.47500000000001,"velocity":0.7874015748031497},{"duration":0.1349999999999909,"durationTicks":240,"midi":50,"name":"D3","ticks":214560,"time":121.61000000000001,"velocity":0.7874015748031497},{"duration":0.13500000000000512,"durationTicks":240,"midi":62,"name":"D4","ticks":214800,"time":121.745,"velocity":0.7874015748031497},{"duration":0.13500000000000512,"durationTicks":240,"midi":51,"name":"D#3","ticks":215040,"time":121.88000000000001,"velocity":0.7874015748031497},{"duration":0.1349999999999909,"durationTicks":240,"midi":63,"name":"D#4","ticks":215280,"time":122.01500000000001,"velocity":0.7874015748031497},{"duration":0.13500000000000512,"durationTicks":240,"midi":51,"name":"D#3","ticks":215520,"time":122.15,"velocity":0.7874015748031497},{"duration":0.1349999999999909,"durationTicks":240,"midi":63,"name":"D#4","ticks":215760,"time":122.28500000000001,"velocity":0.7874015748031497},{"duration":0.13500000000000512,"durationTicks":240,"midi":47,"name":"B2","ticks":216000,"time":122.42,"velocity":0.7874015748031497},{"duration":0.13500000000000512,"durationTicks":240,"midi":59,"name":"B3","ticks":216240,"time":122.555,"velocity":0.7874015748031497},{"duration":0.1349999999999909,"durationTicks":240,"midi":47,"name":"B2","ticks":216480,"time":122.69000000000001,"velocity":0.7874015748031497},{"duration":0.13500000000000512,"durationTicks":240,"midi":59,"name":"B3","ticks":216720,"time":122.825,"velocity":0.7874015748031497},{"duration":0.13500000000000512,"durationTicks":240,"midi":52,"name":"E3","ticks":216960,"time":122.96000000000001,"velocity":0.7874015748031497},{"duration":0.1349999999999909,"durationTicks":240,"midi":64,"name":"E4","ticks":217200,"time":123.09500000000001,"velocity":0.7874015748031497},{"duration":0.13500000000000512,"durationTicks":240,"midi":52,"name":"E3","ticks":217440,"time":123.23,"velocity":0.7874015748031497},{"duration":0.13500000000000512,"durationTicks":240,"midi":64,"name":"E4","ticks":217680,"time":123.36500000000001,"velocity":0.7874015748031497},{"duration":0.1349999999999909,"durationTicks":240,"midi":52,"name":"E3","ticks":217920,"time":123.50000000000001,"velocity":0.7874015748031497},{"duration":0.13500000000000512,"durationTicks":240,"midi":64,"name":"E4","ticks":218160,"time":123.635,"velocity":0.7874015748031497},{"duration":0.1349999999999909,"durationTicks":240,"midi":52,"name":"E3","ticks":218400,"time":123.77000000000001,"velocity":0.7874015748031497},{"duration":0.13500000000000512,"durationTicks":240,"midi":64,"name":"E4","ticks":218640,"time":123.905,"velocity":0.7874015748031497},{"duration":0.13500000000000512,"durationTicks":240,"midi":52,"name":"E3","ticks":218880,"time":124.04,"velocity":0.7874015748031497},{"duration":0.1349999999999909,"durationTicks":240,"midi":64,"name":"E4","ticks":219120,"time":124.17500000000001,"velocity":0.7874015748031497},{"duration":0.13500000000000512,"durationTicks":240,"midi":50,"name":"D3","ticks":219360,"time":124.31,"velocity":0.7874015748031497},{"duration":0.13500000000000512,"durationTicks":240,"midi":62,"name":"D4","ticks":219600,"time":124.44500000000001,"velocity":0.7874015748031497},{"duration":0.1349999999999909,"durationTicks":240,"midi":49,"name":"C#3","ticks":219840,"time":124.58000000000001,"velocity":0.7874015748031497},{"duration":0.13500000000000512,"durationTicks":240,"midi":61,"name":"C#4","ticks":220080,"time":124.715,"velocity":0.7874015748031497},{"duration":0.13500000000000512,"durationTicks":240,"midi":47,"name":"B2","ticks":220320,"time":124.85000000000001,"velocity":0.7874015748031497},{"duration":0.1349999999999909,"durationTicks":240,"midi":59,"name":"B3","ticks":220560,"time":124.98500000000001,"velocity":0.7874015748031497},{"duration":0.13500000000000512,"durationTicks":240,"midi":45,"name":"A2","ticks":220800,"time":125.12,"velocity":0.7874015748031497},{"duration":0.13500000000000512,"durationTicks":240,"midi":57,"name":"A3","ticks":221040,"time":125.25500000000001,"velocity":0.7874015748031497},{"duration":0.1349999999999909,"durationTicks":240,"midi":45,"name":"A2","ticks":221280,"time":125.39000000000001,"velocity":0.7874015748031497},{"duration":0.13500000000000512,"durationTicks":240,"midi":57,"name":"A3","ticks":221520,"time":125.525,"velocity":0.7874015748031497},{"duration":0.1349999999999909,"durationTicks":240,"midi":45,"name":"A2","ticks":221760,"time":125.66000000000001,"velocity":0.7874015748031497},{"duration":0.13500000000000512,"durationTicks":240,"midi":57,"name":"A3","ticks":222000,"time":125.795,"velocity":0.7874015748031497},{"duration":0.13500000000000512,"durationTicks":240,"midi":45,"name":"A2","ticks":222240,"time":125.93,"velocity":0.7874015748031497},{"duration":0.1349999999999909,"durationTicks":240,"midi":57,"name":"A3","ticks":222480,"time":126.06500000000001,"velocity":0.7874015748031497},{"duration":0.13500000000000512,"durationTicks":240,"midi":45,"name":"A2","ticks":222720,"time":126.2,"velocity":0.7874015748031497},{"duration":0.13500000000000512,"durationTicks":240,"midi":57,"name":"A3","ticks":222960,"time":126.33500000000001,"velocity":0.7874015748031497},{"duration":0.1349999999999909,"durationTicks":240,"midi":45,"name":"A2","ticks":223200,"time":126.47000000000001,"velocity":0.7874015748031497},{"duration":0.13500000000000512,"durationTicks":240,"midi":57,"name":"A3","ticks":223440,"time":126.605,"velocity":0.7874015748031497},{"duration":0.13500000000000512,"durationTicks":240,"midi":45,"name":"A2","ticks":223680,"time":126.74000000000001,"velocity":0.7874015748031497},{"duration":0.1349999999999909,"durationTicks":240,"midi":57,"name":"A3","ticks":223920,"time":126.87500000000001,"velocity":0.7874015748031497},{"duration":0.13500000000000512,"durationTicks":240,"midi":45,"name":"A2","ticks":224160,"time":127.01,"velocity":0.7874015748031497},{"duration":0.1349999999999909,"durationTicks":240,"midi":57,"name":"A3","ticks":224400,"time":127.14500000000001,"velocity":0.7874015748031497},{"duration":0.13500000000000512,"durationTicks":240,"midi":42,"name":"F#2","ticks":224640,"time":127.28,"velocity":0.7874015748031497},{"duration":0.13500000000000512,"durationTicks":240,"midi":54,"name":"F#3","ticks":224880,"time":127.415,"velocity":0.7874015748031497},{"duration":0.1349999999999909,"durationTicks":240,"midi":42,"name":"F#2","ticks":225120,"time":127.55000000000001,"velocity":0.7874015748031497},{"duration":0.13500000000000512,"durationTicks":240,"midi":54,"name":"F#3","ticks":225360,"time":127.685,"velocity":0.7874015748031497},{"duration":0.13500000000000512,"durationTicks":240,"midi":42,"name":"F#2","ticks":225600,"time":127.82000000000001,"velocity":0.7874015748031497},{"duration":0.1349999999999909,"durationTicks":240,"midi":54,"name":"F#3","ticks":225840,"time":127.95500000000001,"velocity":0.7874015748031497},{"duration":0.13500000000001933,"durationTicks":240,"midi":42,"name":"F#2","ticks":226080,"time":128.09,"velocity":0.7874015748031497},{"duration":0.1349999999999909,"durationTicks":240,"midi":54,"name":"F#3","ticks":226320,"time":128.22500000000002,"velocity":0.7874015748031497},{"duration":0.1349999999999909,"durationTicks":240,"midi":54,"name":"F#3","ticks":226560,"time":128.36,"velocity":0.7874015748031497},{"duration":0.1349999999999909,"durationTicks":240,"midi":66,"name":"F#4","ticks":226800,"time":128.495,"velocity":0.7874015748031497},{"duration":0.13500000000001933,"durationTicks":240,"midi":54,"name":"F#3","ticks":227040,"time":128.63,"velocity":0.7874015748031497},{"duration":0.1349999999999909,"durationTicks":240,"midi":66,"name":"F#4","ticks":227280,"time":128.76500000000001,"velocity":0.7874015748031497},{"duration":0.13500000000001933,"durationTicks":240,"midi":52,"name":"E3","ticks":227520,"time":128.9,"velocity":0.7874015748031497},{"duration":0.1349999999999909,"durationTicks":240,"midi":64,"name":"E4","ticks":227760,"time":129.03500000000003,"velocity":0.7874015748031497},{"duration":0.1349999999999909,"durationTicks":240,"midi":52,"name":"E3","ticks":228000,"time":129.17000000000002,"velocity":0.7874015748031497},{"duration":0.1349999999999909,"durationTicks":240,"midi":64,"name":"E4","ticks":228240,"time":129.305,"velocity":0.7874015748031497},{"duration":0.1349999999999909,"durationTicks":240,"midi":50,"name":"D3","ticks":228480,"time":129.44,"velocity":0.7874015748031497},{"duration":0.13500000000001933,"durationTicks":240,"midi":62,"name":"D4","ticks":228720,"time":129.575,"velocity":0.7874015748031497},{"duration":0.13500000000001933,"durationTicks":240,"midi":50,"name":"D3","ticks":228960,"time":129.71,"velocity":0.7874015748031497},{"duration":0.1349999999999909,"durationTicks":240,"midi":62,"name":"D4","ticks":229200,"time":129.84500000000003,"velocity":0.7874015748031497},{"duration":0.1349999999999909,"durationTicks":240,"midi":50,"name":"D3","ticks":229440,"time":129.98000000000002,"velocity":0.7874015748031497},{"duration":0.1349999999999909,"durationTicks":240,"midi":62,"name":"D4","ticks":229680,"time":130.115,"velocity":0.7874015748031497},{"duration":0.13500000000001933,"durationTicks":240,"midi":50,"name":"D3","ticks":229920,"time":130.25,"velocity":0.7874015748031497},{"duration":0.1349999999999909,"durationTicks":240,"midi":62,"name":"D4","ticks":230160,"time":130.38500000000002,"velocity":0.7874015748031497},{"duration":0.1349999999999909,"durationTicks":240,"midi":52,"name":"E3","ticks":230400,"time":130.52,"velocity":0.7874015748031497},{"duration":0.13500000000001933,"durationTicks":240,"midi":64,"name":"E4","ticks":230640,"time":130.655,"velocity":0.7874015748031497},{"duration":0.1349999999999909,"durationTicks":240,"midi":52,"name":"E3","ticks":230880,"time":130.79000000000002,"velocity":0.7874015748031497},{"duration":0.1349999999999909,"durationTicks":240,"midi":64,"name":"E4","ticks":231120,"time":130.925,"velocity":0.7874015748031497},{"duration":0.13500000000001933,"durationTicks":240,"midi":50,"name":"D3","ticks":231360,"time":131.06,"velocity":0.7874015748031497},{"duration":0.1349999999999909,"durationTicks":240,"midi":62,"name":"D4","ticks":231600,"time":131.19500000000002,"velocity":0.7874015748031497},{"duration":0.1349999999999909,"durationTicks":240,"midi":50,"name":"D3","ticks":231840,"time":131.33,"velocity":0.7874015748031497},{"duration":0.13500000000001933,"durationTicks":240,"midi":62,"name":"D4","ticks":232080,"time":131.465,"velocity":0.7874015748031497},{"duration":0.1349999999999909,"durationTicks":240,"midi":49,"name":"C#3","ticks":232320,"time":131.60000000000002,"velocity":0.7874015748031497},{"duration":0.1349999999999909,"durationTicks":240,"midi":61,"name":"C#4","ticks":232560,"time":131.735,"velocity":0.7874015748031497},{"duration":0.1349999999999909,"durationTicks":240,"midi":49,"name":"C#3","ticks":232800,"time":131.87,"velocity":0.7874015748031497},{"duration":0.13500000000001933,"durationTicks":240,"midi":61,"name":"C#4","ticks":233040,"time":132.005,"velocity":0.7874015748031497},{"duration":0.1349999999999909,"durationTicks":240,"midi":49,"name":"C#3","ticks":233280,"time":132.14000000000001,"velocity":0.7874015748031497},{"duration":0.1349999999999909,"durationTicks":240,"midi":61,"name":"C#4","ticks":233520,"time":132.275,"velocity":0.7874015748031497},{"duration":0.13500000000001933,"durationTicks":240,"midi":49,"name":"C#3","ticks":233760,"time":132.41,"velocity":0.7874015748031497},{"duration":0.1349999999999909,"durationTicks":240,"midi":61,"name":"C#4","ticks":234000,"time":132.54500000000002,"velocity":0.7874015748031497},{"duration":0.1349999999999909,"durationTicks":240,"midi":42,"name":"F#2","ticks":234240,"time":132.68,"velocity":0.7874015748031497},{"duration":0.13500000000001933,"durationTicks":240,"midi":54,"name":"F#3","ticks":234480,"time":132.815,"velocity":0.7874015748031497},{"duration":0.1349999999999909,"durationTicks":240,"midi":42,"name":"F#2","ticks":234720,"time":132.95000000000002,"velocity":0.7874015748031497},{"duration":0.1349999999999909,"durationTicks":240,"midi":54,"name":"F#3","ticks":234960,"time":133.085,"velocity":0.7874015748031497},{"duration":0.13500000000001933,"durationTicks":240,"midi":42,"name":"F#2","ticks":235200,"time":133.22,"velocity":0.7874015748031497},{"duration":0.1349999999999909,"durationTicks":240,"midi":54,"name":"F#3","ticks":235440,"time":133.35500000000002,"velocity":0.7874015748031497},{"duration":0.1349999999999909,"durationTicks":240,"midi":42,"name":"F#2","ticks":235680,"time":133.49,"velocity":0.7874015748031497},{"duration":0.13500000000001933,"durationTicks":240,"midi":54,"name":"F#3","ticks":235920,"time":133.625,"velocity":0.7874015748031497},{"duration":0.1349999999999909,"durationTicks":240,"midi":50,"name":"D3","ticks":236160,"time":133.76000000000002,"velocity":0.7874015748031497},{"duration":0.1349999999999909,"durationTicks":240,"midi":62,"name":"D4","ticks":236400,"time":133.895,"velocity":0.7874015748031497},{"duration":0.13500000000001933,"durationTicks":240,"midi":50,"name":"D3","ticks":236640,"time":134.03,"velocity":0.7874015748031497},{"duration":0.1349999999999909,"durationTicks":240,"midi":62,"name":"D4","ticks":236880,"time":134.16500000000002,"velocity":0.7874015748031497},{"duration":0.1349999999999909,"durationTicks":240,"midi":50,"name":"D3","ticks":237120,"time":134.3,"velocity":0.7874015748031497},{"duration":0.13500000000001933,"durationTicks":240,"midi":62,"name":"D4","ticks":237360,"time":134.435,"velocity":0.7874015748031497},{"duration":0.1349999999999909,"durationTicks":240,"midi":50,"name":"D3","ticks":237600,"time":134.57000000000002,"velocity":0.7874015748031497},{"duration":0.1349999999999909,"durationTicks":240,"midi":62,"name":"D4","ticks":237840,"time":134.705,"velocity":0.7874015748031497},{"duration":0.13500000000001933,"durationTicks":240,"midi":52,"name":"E3","ticks":238080,"time":134.84,"velocity":0.7874015748031497},{"duration":0.1349999999999909,"durationTicks":240,"midi":64,"name":"E4","ticks":238320,"time":134.97500000000002,"velocity":0.7874015748031497},{"duration":0.1349999999999909,"durationTicks":240,"midi":52,"name":"E3","ticks":238560,"time":135.11,"velocity":0.7874015748031497},{"duration":0.1349999999999909,"durationTicks":240,"midi":64,"name":"E4","ticks":238800,"time":135.245,"velocity":0.7874015748031497},{"duration":0.13500000000001933,"durationTicks":240,"midi":50,"name":"D3","ticks":239040,"time":135.38,"velocity":0.7874015748031497},{"duration":0.1349999999999909,"durationTicks":240,"midi":62,"name":"D4","ticks":239280,"time":135.51500000000001,"velocity":0.7874015748031497},{"duration":0.1349999999999909,"durationTicks":240,"midi":50,"name":"D3","ticks":239520,"time":135.65,"velocity":0.7874015748031497},{"duration":0.13500000000001933,"durationTicks":240,"midi":62,"name":"D4","ticks":239760,"time":135.785,"velocity":0.7874015748031497},{"duration":0.1349999999999909,"durationTicks":240,"midi":49,"name":"C#3","ticks":240000,"time":135.92000000000002,"velocity":0.7874015748031497},{"duration":0.1349999999999909,"durationTicks":240,"midi":61,"name":"C#4","ticks":240240,"time":136.055,"velocity":0.7874015748031497},{"duration":0.13500000000001933,"durationTicks":240,"midi":49,"name":"C#3","ticks":240480,"time":136.19,"velocity":0.7874015748031497},{"duration":0.1349999999999909,"durationTicks":240,"midi":61,"name":"C#4","ticks":240720,"time":136.32500000000002,"velocity":0.7874015748031497},{"duration":0.1349999999999909,"durationTicks":240,"midi":53,"name":"F3","ticks":240960,"time":136.46,"velocity":0.7874015748031497},{"duration":0.13500000000001933,"durationTicks":240,"midi":65,"name":"F4","ticks":241200,"time":136.595,"velocity":0.7874015748031497},{"duration":0.1349999999999909,"durationTicks":240,"midi":53,"name":"F3","ticks":241440,"time":136.73000000000002,"velocity":0.7874015748031497},{"duration":0.1349999999999909,"durationTicks":240,"midi":65,"name":"F4","ticks":241680,"time":136.865,"velocity":0.7874015748031497},{"duration":0.13500000000001933,"durationTicks":240,"midi":54,"name":"F#3","ticks":241920,"time":137,"velocity":0.7874015748031497},{"duration":0.1349999999999909,"durationTicks":240,"midi":66,"name":"F#4","ticks":242160,"time":137.13500000000002,"velocity":0.7874015748031497},{"duration":0.1349999999999909,"durationTicks":240,"midi":54,"name":"F#3","ticks":242400,"time":137.27,"velocity":0.7874015748031497},{"duration":0.13500000000001933,"durationTicks":240,"midi":66,"name":"F#4","ticks":242640,"time":137.405,"velocity":0.7874015748031497},{"duration":0.1349999999999909,"durationTicks":240,"midi":52,"name":"E3","ticks":242880,"time":137.54000000000002,"velocity":0.7874015748031497},{"duration":0.1349999999999909,"durationTicks":240,"midi":64,"name":"E4","ticks":243120,"time":137.675,"velocity":0.7874015748031497},{"duration":0.13500000000001933,"durationTicks":240,"midi":52,"name":"E3","ticks":243360,"time":137.81,"velocity":0.7874015748031497},{"duration":0.1349999999999909,"durationTicks":240,"midi":64,"name":"E4","ticks":243600,"time":137.94500000000002,"velocity":0.7874015748031497},{"duration":0.1349999999999909,"durationTicks":240,"midi":50,"name":"D3","ticks":243840,"time":138.08,"velocity":0.7874015748031497},{"duration":0.13500000000001933,"durationTicks":240,"midi":62,"name":"D4","ticks":244080,"time":138.215,"velocity":0.7874015748031497},{"duration":0.1349999999999909,"durationTicks":240,"midi":50,"name":"D3","ticks":244320,"time":138.35000000000002,"velocity":0.7874015748031497},{"duration":0.1349999999999909,"durationTicks":240,"midi":62,"name":"D4","ticks":244560,"time":138.485,"velocity":0.7874015748031497},{"duration":0.1349999999999909,"durationTicks":240,"midi":50,"name":"D3","ticks":244800,"time":138.62,"velocity":0.7874015748031497},{"duration":0.13500000000001933,"durationTicks":240,"midi":62,"name":"D4","ticks":245040,"time":138.755,"velocity":0.7874015748031497},{"duration":0.1349999999999909,"durationTicks":240,"midi":50,"name":"D3","ticks":245280,"time":138.89000000000001,"velocity":0.7874015748031497},{"duration":0.1349999999999909,"durationTicks":240,"midi":62,"name":"D4","ticks":245520,"time":139.025,"velocity":0.7874015748031497},{"duration":0.13500000000001933,"durationTicks":240,"midi":51,"name":"D#3","ticks":245760,"time":139.16,"velocity":0.7874015748031497},{"duration":0.1349999999999909,"durationTicks":240,"midi":63,"name":"D#4","ticks":246000,"time":139.29500000000002,"velocity":0.7874015748031497},{"duration":0.1349999999999909,"durationTicks":240,"midi":51,"name":"D#3","ticks":246240,"time":139.43,"velocity":0.7874015748031497},{"duration":0.13500000000001933,"durationTicks":240,"midi":63,"name":"D#4","ticks":246480,"time":139.565,"velocity":0.7874015748031497},{"duration":0.1349999999999909,"durationTicks":240,"midi":47,"name":"B2","ticks":246720,"time":139.70000000000002,"velocity":0.7874015748031497},{"duration":0.1349999999999909,"durationTicks":240,"midi":59,"name":"B3","ticks":246960,"time":139.835,"velocity":0.7874015748031497},{"duration":0.13500000000001933,"durationTicks":240,"midi":47,"name":"B2","ticks":247200,"time":139.97,"velocity":0.7874015748031497},{"duration":0.1349999999999909,"durationTicks":240,"midi":59,"name":"B3","ticks":247440,"time":140.10500000000002,"velocity":0.7874015748031497},{"duration":0.1349999999999909,"durationTicks":240,"midi":52,"name":"E3","ticks":247680,"time":140.24,"velocity":0.7874015748031497},{"duration":0.13500000000001933,"durationTicks":240,"midi":64,"name":"E4","ticks":247920,"time":140.375,"velocity":0.7874015748031497},{"duration":0.1349999999999909,"durationTicks":240,"midi":52,"name":"E3","ticks":248160,"time":140.51000000000002,"velocity":0.7874015748031497},{"duration":0.1349999999999909,"durationTicks":240,"midi":64,"name":"E4","ticks":248400,"time":140.645,"velocity":0.7874015748031497},{"duration":0.13500000000001933,"durationTicks":240,"midi":52,"name":"E3","ticks":248640,"time":140.78,"velocity":0.7874015748031497},{"duration":0.1349999999999909,"durationTicks":240,"midi":64,"name":"E4","ticks":248880,"time":140.91500000000002,"velocity":0.7874015748031497},{"duration":0.1349999999999909,"durationTicks":240,"midi":52,"name":"E3","ticks":249120,"time":141.05,"velocity":0.7874015748031497},{"duration":0.13500000000001933,"durationTicks":240,"midi":64,"name":"E4","ticks":249360,"time":141.185,"velocity":0.7874015748031497},{"duration":0.1349999999999909,"durationTicks":240,"midi":52,"name":"E3","ticks":249600,"time":141.32000000000002,"velocity":0.7874015748031497},{"duration":0.1349999999999909,"durationTicks":240,"midi":64,"name":"E4","ticks":249840,"time":141.455,"velocity":0.7874015748031497},{"duration":0.13500000000001933,"durationTicks":240,"midi":50,"name":"D3","ticks":250080,"time":141.59,"velocity":0.7874015748031497},{"duration":0.1349999999999909,"durationTicks":240,"midi":62,"name":"D4","ticks":250320,"time":141.72500000000002,"velocity":0.7874015748031497},{"duration":0.1349999999999909,"durationTicks":240,"midi":49,"name":"C#3","ticks":250560,"time":141.86,"velocity":0.7874015748031497},{"duration":0.1349999999999909,"durationTicks":240,"midi":61,"name":"C#4","ticks":250800,"time":141.995,"velocity":0.7874015748031497},{"duration":0.13500000000001933,"durationTicks":240,"midi":47,"name":"B2","ticks":251040,"time":142.13,"velocity":0.7874015748031497},{"duration":0.1349999999999909,"durationTicks":240,"midi":59,"name":"B3","ticks":251280,"time":142.26500000000001,"velocity":0.7874015748031497},{"duration":0.1349999999999909,"durationTicks":240,"midi":40,"name":"E2","ticks":251520,"time":142.4,"velocity":0.7874015748031497},{"duration":0.13500000000001933,"durationTicks":240,"midi":52,"name":"E3","ticks":251760,"time":142.535,"velocity":0.7874015748031497},{"duration":0.1349999999999909,"durationTicks":240,"midi":40,"name":"E2","ticks":252000,"time":142.67000000000002,"velocity":0.7874015748031497},{"duration":0.1349999999999909,"durationTicks":240,"midi":52,"name":"E3","ticks":252240,"time":142.805,"velocity":0.7874015748031497},{"duration":0.13500000000001933,"durationTicks":240,"midi":40,"name":"E2","ticks":252480,"time":142.94,"velocity":0.7874015748031497},{"duration":0.1349999999999909,"durationTicks":240,"midi":52,"name":"E3","ticks":252720,"time":143.07500000000002,"velocity":0.7874015748031497},{"duration":0.1349999999999909,"durationTicks":240,"midi":40,"name":"E2","ticks":252960,"time":143.21,"velocity":0.7874015748031497},{"duration":0.13500000000001933,"durationTicks":240,"midi":52,"name":"E3","ticks":253200,"time":143.345,"velocity":0.7874015748031497},{"duration":0.1349999999999909,"durationTicks":240,"midi":40,"name":"E2","ticks":253440,"time":143.48000000000002,"velocity":0.7874015748031497},{"duration":0.1349999999999909,"durationTicks":240,"midi":52,"name":"E3","ticks":253680,"time":143.615,"velocity":0.7874015748031497},{"duration":0.13500000000001933,"durationTicks":240,"midi":40,"name":"E2","ticks":253920,"time":143.75,"velocity":0.7874015748031497},{"duration":0.1349999999999909,"durationTicks":240,"midi":52,"name":"E3","ticks":254160,"time":143.88500000000002,"velocity":0.7874015748031497},{"duration":0.1349999999999909,"durationTicks":240,"midi":40,"name":"E2","ticks":254400,"time":144.02,"velocity":0.7874015748031497},{"duration":0.13500000000001933,"durationTicks":240,"midi":52,"name":"E3","ticks":254640,"time":144.155,"velocity":0.7874015748031497},{"duration":0.1349999999999909,"durationTicks":240,"midi":40,"name":"E2","ticks":254880,"time":144.29000000000002,"velocity":0.7874015748031497},{"duration":0.1349999999999909,"durationTicks":240,"midi":52,"name":"E3","ticks":255120,"time":144.425,"velocity":0.7874015748031497},{"duration":0.13500000000001933,"durationTicks":240,"midi":40,"name":"E2","ticks":255360,"time":144.56,"velocity":0.7874015748031497},{"duration":0.1349999999999909,"durationTicks":240,"midi":52,"name":"E3","ticks":255600,"time":144.69500000000002,"velocity":0.7874015748031497},{"duration":0.1349999999999909,"durationTicks":240,"midi":40,"name":"E2","ticks":255840,"time":144.83,"velocity":0.7874015748031497},{"duration":0.13500000000001933,"durationTicks":240,"midi":52,"name":"E3","ticks":256080,"time":144.965,"velocity":0.7874015748031497},{"duration":0.1349999999999909,"durationTicks":240,"midi":40,"name":"E2","ticks":256320,"time":145.10000000000002,"velocity":0.7874015748031497},{"duration":0.1349999999999909,"durationTicks":240,"midi":52,"name":"E3","ticks":256560,"time":145.235,"velocity":0.7874015748031497},{"duration":0.1349999999999909,"durationTicks":240,"midi":40,"name":"E2","ticks":256800,"time":145.37,"velocity":0.7874015748031497},{"duration":0.13500000000001933,"durationTicks":240,"midi":52,"name":"E3","ticks":257040,"time":145.505,"velocity":0.7874015748031497},{"duration":0.1349999999999909,"durationTicks":240,"midi":40,"name":"E2","ticks":257280,"time":145.64000000000001,"velocity":0.7874015748031497},{"duration":0.1349999999999909,"durationTicks":240,"midi":52,"name":"E3","ticks":257520,"time":145.775,"velocity":0.7874015748031497},{"duration":0.13500000000001933,"durationTicks":240,"midi":40,"name":"E2","ticks":257760,"time":145.91,"velocity":0.7874015748031497},{"duration":0.1349999999999909,"durationTicks":240,"midi":52,"name":"E3","ticks":258000,"time":146.04500000000002,"velocity":0.7874015748031497},{"duration":0.1349999999999909,"durationTicks":240,"midi":40,"name":"E2","ticks":258240,"time":146.18,"velocity":0.7874015748031497},{"duration":0.13500000000001933,"durationTicks":240,"midi":52,"name":"E3","ticks":258480,"time":146.315,"velocity":0.7874015748031497},{"duration":0.1349999999999909,"durationTicks":240,"midi":40,"name":"E2","ticks":258720,"time":146.45000000000002,"velocity":0.7874015748031497},{"duration":0.1349999999999909,"durationTicks":240,"midi":52,"name":"E3","ticks":258960,"time":146.585,"velocity":0.7874015748031497},{"duration":0.13500000000001933,"durationTicks":240,"midi":45,"name":"A2","ticks":259200,"time":146.72,"velocity":0.7874015748031497},{"duration":0.1349999999999909,"durationTicks":240,"midi":57,"name":"A3","ticks":259440,"time":146.85500000000002,"velocity":0.7874015748031497},{"duration":0.1349999999999909,"durationTicks":240,"midi":45,"name":"A2","ticks":259680,"time":146.99,"velocity":0.7874015748031497},{"duration":0.13500000000001933,"durationTicks":240,"midi":57,"name":"A3","ticks":259920,"time":147.125,"velocity":0.7874015748031497},{"duration":0.1349999999999909,"durationTicks":240,"midi":45,"name":"A2","ticks":260160,"time":147.26000000000002,"velocity":0.7874015748031497},{"duration":0.1349999999999909,"durationTicks":240,"midi":57,"name":"A3","ticks":260400,"time":147.395,"velocity":0.7874015748031497},{"duration":0.13500000000001933,"durationTicks":240,"midi":45,"name":"A2","ticks":260640,"time":147.53,"velocity":0.7874015748031497},{"duration":0.1349999999999909,"durationTicks":240,"midi":57,"name":"A3","ticks":260880,"time":147.66500000000002,"velocity":0.7874015748031497},{"duration":0.1349999999999909,"durationTicks":240,"midi":45,"name":"A2","ticks":261120,"time":147.8,"velocity":0.7874015748031497},{"duration":0.13500000000001933,"durationTicks":240,"midi":57,"name":"A3","ticks":261360,"time":147.935,"velocity":0.7874015748031497},{"duration":0.1349999999999909,"durationTicks":240,"midi":45,"name":"A2","ticks":261600,"time":148.07000000000002,"velocity":0.7874015748031497},{"duration":0.1349999999999909,"durationTicks":240,"midi":57,"name":"A3","ticks":261840,"time":148.205,"velocity":0.7874015748031497},{"duration":0.13500000000001933,"durationTicks":240,"midi":45,"name":"A2","ticks":262080,"time":148.34,"velocity":0.7874015748031497},{"duration":0.1349999999999909,"durationTicks":240,"midi":57,"name":"A3","ticks":262320,"time":148.47500000000002,"velocity":0.7874015748031497},{"duration":0.1349999999999909,"durationTicks":240,"midi":45,"name":"A2","ticks":262560,"time":148.61,"velocity":0.7874015748031497},{"duration":0.1349999999999909,"durationTicks":240,"midi":57,"name":"A3","ticks":262800,"time":148.745,"velocity":0.7874015748031497},{"duration":0.13500000000001933,"durationTicks":240,"midi":45,"name":"A2","ticks":263040,"time":148.88,"velocity":0.7874015748031497},{"duration":0.1349999999999909,"durationTicks":240,"midi":57,"name":"A3","ticks":263280,"time":149.01500000000001,"velocity":0.7874015748031497},{"duration":0.1349999999999909,"durationTicks":240,"midi":45,"name":"A2","ticks":263520,"time":149.15,"velocity":0.7874015748031497},{"duration":0.13500000000001933,"durationTicks":240,"midi":57,"name":"A3","ticks":263760,"time":149.285,"velocity":0.7874015748031497},{"duration":0.1349999999999909,"durationTicks":240,"midi":45,"name":"A2","ticks":264000,"time":149.42000000000002,"velocity":0.7874015748031497},{"duration":0.1349999999999909,"durationTicks":240,"midi":57,"name":"A3","ticks":264240,"time":149.555,"velocity":0.7874015748031497},{"duration":0.13500000000001933,"durationTicks":240,"midi":45,"name":"A2","ticks":264480,"time":149.69,"velocity":0.7874015748031497},{"duration":0.1349999999999909,"durationTicks":240,"midi":57,"name":"A3","ticks":264720,"time":149.82500000000002,"velocity":0.7874015748031497},{"duration":0.1349999999999909,"durationTicks":240,"midi":45,"name":"A2","ticks":264960,"time":149.96,"velocity":0.7874015748031497},{"duration":0.13500000000001933,"durationTicks":240,"midi":57,"name":"A3","ticks":265200,"time":150.095,"velocity":0.7874015748031497},{"duration":0.1349999999999909,"durationTicks":240,"midi":45,"name":"A2","ticks":265440,"time":150.23000000000002,"velocity":0.7874015748031497},{"duration":0.1349999999999909,"durationTicks":240,"midi":57,"name":"A3","ticks":265680,"time":150.365,"velocity":0.7874015748031497},{"duration":0.13500000000001933,"durationTicks":240,"midi":45,"name":"A2","ticks":265920,"time":150.5,"velocity":0.7874015748031497},{"duration":0.1349999999999909,"durationTicks":240,"midi":57,"name":"A3","ticks":266160,"time":150.63500000000002,"velocity":0.7874015748031497},{"duration":0.1349999999999909,"durationTicks":240,"midi":45,"name":"A2","ticks":266400,"time":150.77,"velocity":0.7874015748031497},{"duration":0.13500000000001933,"durationTicks":240,"midi":57,"name":"A3","ticks":266640,"time":150.905,"velocity":0.7874015748031497},{"duration":0.1349999999999909,"durationTicks":240,"midi":45,"name":"A2","ticks":266880,"time":151.04000000000002,"velocity":0.7874015748031497},{"duration":0.1349999999999909,"durationTicks":240,"midi":57,"name":"A3","ticks":267120,"time":151.175,"velocity":0.7874015748031497},{"duration":0.13500000000001933,"durationTicks":240,"midi":45,"name":"A2","ticks":267360,"time":151.31,"velocity":0.7874015748031497},{"duration":0.1349999999999909,"durationTicks":240,"midi":57,"name":"A3","ticks":267600,"time":151.44500000000002,"velocity":0.7874015748031497},{"duration":0.1349999999999909,"durationTicks":240,"midi":45,"name":"A2","ticks":267840,"time":151.58,"velocity":0.7874015748031497},{"duration":0.13500000000001933,"durationTicks":240,"midi":57,"name":"A3","ticks":268080,"time":151.715,"velocity":0.7874015748031497},{"duration":0.1349999999999909,"durationTicks":240,"midi":45,"name":"A2","ticks":268320,"time":151.85000000000002,"velocity":0.7874015748031497},{"duration":0.1349999999999909,"durationTicks":240,"midi":57,"name":"A3","ticks":268560,"time":151.985,"velocity":0.7874015748031497},{"duration":0.13500000000001933,"durationTicks":240,"midi":45,"name":"A2","ticks":268800,"time":152.12,"velocity":0.7874015748031497},{"duration":0.1349999999999909,"durationTicks":240,"midi":57,"name":"A3","ticks":269040,"time":152.25500000000002,"velocity":0.7874015748031497},{"duration":0.1349999999999909,"durationTicks":240,"midi":45,"name":"A2","ticks":269280,"time":152.39000000000001,"velocity":0.7874015748031497},{"duration":0.1349999999999909,"durationTicks":240,"midi":57,"name":"A3","ticks":269520,"time":152.525,"velocity":0.7874015748031497},{"duration":0.13500000000001933,"durationTicks":240,"midi":45,"name":"A2","ticks":269760,"time":152.66,"velocity":0.7874015748031497},{"duration":0.1349999999999909,"durationTicks":240,"midi":57,"name":"A3","ticks":270000,"time":152.79500000000002,"velocity":0.7874015748031497},{"duration":0.1349999999999909,"durationTicks":240,"midi":45,"name":"A2","ticks":270240,"time":152.93,"velocity":0.7874015748031497},{"duration":0.13500000000001933,"durationTicks":240,"midi":57,"name":"A3","ticks":270480,"time":153.065,"velocity":0.7874015748031497},{"duration":0.1349999999999909,"durationTicks":240,"midi":45,"name":"A2","ticks":270720,"time":153.20000000000002,"velocity":0.7874015748031497},{"duration":0.1349999999999909,"durationTicks":240,"midi":57,"name":"A3","ticks":270960,"time":153.335,"velocity":0.7874015748031497},{"duration":0.13500000000001933,"durationTicks":240,"midi":45,"name":"A2","ticks":271200,"time":153.47,"velocity":0.7874015748031497},{"duration":0.1349999999999909,"durationTicks":240,"midi":57,"name":"A3","ticks":271440,"time":153.60500000000002,"velocity":0.7874015748031497},{"duration":0.1349999999999909,"durationTicks":240,"midi":45,"name":"A2","ticks":271680,"time":153.74,"velocity":0.7874015748031497},{"duration":0.13500000000001933,"durationTicks":240,"midi":57,"name":"A3","ticks":271920,"time":153.875,"velocity":0.7874015748031497},{"duration":0.1349999999999909,"durationTicks":240,"midi":45,"name":"A2","ticks":272160,"time":154.01000000000002,"velocity":0.7874015748031497},{"duration":0.1349999999999909,"durationTicks":240,"midi":57,"name":"A3","ticks":272400,"time":154.145,"velocity":0.7874015748031497},{"duration":0.13500000000001933,"durationTicks":240,"midi":45,"name":"A2","ticks":272640,"time":154.28,"velocity":0.7874015748031497},{"duration":0.1349999999999909,"durationTicks":240,"midi":57,"name":"A3","ticks":272880,"time":154.41500000000002,"velocity":0.7874015748031497},{"duration":0.1349999999999909,"durationTicks":240,"midi":45,"name":"A2","ticks":273120,"time":154.55,"velocity":0.7874015748031497},{"duration":0.13500000000001933,"durationTicks":240,"midi":57,"name":"A3","ticks":273360,"time":154.685,"velocity":0.7874015748031497},{"duration":0.1349999999999909,"durationTicks":240,"midi":45,"name":"A2","ticks":273600,"time":154.82000000000002,"velocity":0.7874015748031497},{"duration":0.1349999999999909,"durationTicks":240,"midi":57,"name":"A3","ticks":273840,"time":154.955,"velocity":0.7874015748031497},{"duration":0.13500000000001933,"durationTicks":240,"midi":45,"name":"A2","ticks":274080,"time":155.09,"velocity":0.7874015748031497},{"duration":0.1349999999999909,"durationTicks":240,"midi":57,"name":"A3","ticks":274320,"time":155.22500000000002,"velocity":0.7874015748031497},{"duration":0.1349999999999909,"durationTicks":240,"midi":45,"name":"A2","ticks":274560,"time":155.36,"velocity":0.7874015748031497},{"duration":0.13500000000001933,"durationTicks":240,"midi":57,"name":"A3","ticks":274800,"time":155.495,"velocity":0.7874015748031497},{"duration":0.1349999999999909,"durationTicks":240,"midi":45,"name":"A2","ticks":275040,"time":155.63000000000002,"velocity":0.7874015748031497},{"duration":0.1349999999999909,"durationTicks":240,"midi":57,"name":"A3","ticks":275280,"time":155.76500000000001,"velocity":0.7874015748031497},{"duration":0.1349999999999909,"durationTicks":240,"midi":45,"name":"A2","ticks":275520,"time":155.9,"velocity":0.7874015748031497},{"duration":0.13500000000001933,"durationTicks":240,"midi":57,"name":"A3","ticks":275760,"time":156.035,"velocity":0.7874015748031497},{"duration":0.1349999999999909,"durationTicks":240,"midi":45,"name":"A2","ticks":276000,"time":156.17000000000002,"velocity":0.7874015748031497},{"duration":0.1349999999999909,"durationTicks":240,"midi":57,"name":"A3","ticks":276240,"time":156.305,"velocity":0.7874015748031497},{"duration":0.13500000000001933,"durationTicks":240,"midi":45,"name":"A2","ticks":276480,"time":156.44,"velocity":0.7874015748031497},{"duration":0.1349999999999909,"durationTicks":240,"midi":57,"name":"A3","ticks":276720,"time":156.57500000000002,"velocity":0.7874015748031497},{"duration":0.1349999999999909,"durationTicks":240,"midi":45,"name":"A2","ticks":276960,"time":156.71,"velocity":0.7874015748031497},{"duration":0.13500000000001933,"durationTicks":240,"midi":57,"name":"A3","ticks":277200,"time":156.845,"velocity":0.7874015748031497},{"duration":0.1349999999999909,"durationTicks":240,"midi":45,"name":"A2","ticks":277440,"time":156.98000000000002,"velocity":0.7874015748031497},{"duration":0.1349999999999909,"durationTicks":240,"midi":57,"name":"A3","ticks":277680,"time":157.115,"velocity":0.7874015748031497},{"duration":0.13500000000001933,"durationTicks":240,"midi":45,"name":"A2","ticks":277920,"time":157.25,"velocity":0.7874015748031497},{"duration":0.1349999999999909,"durationTicks":240,"midi":57,"name":"A3","ticks":278160,"time":157.38500000000002,"velocity":0.7874015748031497},{"duration":0.1349999999999909,"durationTicks":240,"midi":45,"name":"A2","ticks":278400,"time":157.52,"velocity":0.7874015748031497},{"duration":0.13500000000001933,"durationTicks":240,"midi":57,"name":"A3","ticks":278640,"time":157.655,"velocity":0.7874015748031497},{"duration":0.1349999999999909,"durationTicks":240,"midi":45,"name":"A2","ticks":278880,"time":157.79000000000002,"velocity":0.7874015748031497},{"duration":0.1349999999999909,"durationTicks":240,"midi":57,"name":"A3","ticks":279120,"time":157.925,"velocity":0.7874015748031497},{"duration":0.13500000000001933,"durationTicks":240,"midi":45,"name":"A2","ticks":279360,"time":158.06,"velocity":0.7874015748031497},{"duration":0.1349999999999909,"durationTicks":240,"midi":57,"name":"A3","ticks":279600,"time":158.19500000000002,"velocity":0.7874015748031497},{"duration":0.1349999999999909,"durationTicks":240,"midi":45,"name":"A2","ticks":279840,"time":158.33,"velocity":0.7874015748031497},{"duration":0.13500000000001933,"durationTicks":240,"midi":57,"name":"A3","ticks":280080,"time":158.465,"velocity":0.7874015748031497},{"duration":0.1349999999999909,"durationTicks":240,"midi":45,"name":"A2","ticks":280320,"time":158.60000000000002,"velocity":0.7874015748031497},{"duration":0.1349999999999909,"durationTicks":240,"midi":57,"name":"A3","ticks":280560,"time":158.735,"velocity":0.7874015748031497},{"duration":0.13500000000001933,"durationTicks":240,"midi":45,"name":"A2","ticks":280800,"time":158.87,"velocity":0.7874015748031497},{"duration":0.1349999999999909,"durationTicks":240,"midi":57,"name":"A3","ticks":281040,"time":159.00500000000002,"velocity":0.7874015748031497},{"duration":0.1349999999999909,"durationTicks":240,"midi":45,"name":"A2","ticks":281280,"time":159.14000000000001,"velocity":0.7874015748031497},{"duration":0.1349999999999909,"durationTicks":240,"midi":57,"name":"A3","ticks":281520,"time":159.275,"velocity":0.7874015748031497},{"duration":0.13500000000001933,"durationTicks":240,"midi":45,"name":"A2","ticks":281760,"time":159.41,"velocity":0.7874015748031497},{"duration":0.1349999999999909,"durationTicks":240,"midi":57,"name":"A3","ticks":282000,"time":159.54500000000002,"velocity":0.7874015748031497},{"duration":0.1349999999999909,"durationTicks":240,"midi":45,"name":"A2","ticks":282240,"time":159.68,"velocity":0.7874015748031497},{"duration":0.13500000000001933,"durationTicks":240,"midi":57,"name":"A3","ticks":282480,"time":159.815,"velocity":0.7874015748031497},{"duration":0.1349999999999909,"durationTicks":240,"midi":45,"name":"A2","ticks":282720,"time":159.95000000000002,"velocity":0.7874015748031497},{"duration":0.1349999999999909,"durationTicks":240,"midi":57,"name":"A3","ticks":282960,"time":160.085,"velocity":0.7874015748031497},{"duration":0.13500000000001933,"durationTicks":240,"midi":45,"name":"A2","ticks":283200,"time":160.22,"velocity":0.7874015748031497},{"duration":0.1349999999999909,"durationTicks":240,"midi":57,"name":"A3","ticks":283440,"time":160.35500000000002,"velocity":0.7874015748031497},{"duration":0.1349999999999909,"durationTicks":240,"midi":45,"name":"A2","ticks":283680,"time":160.49,"velocity":0.7874015748031497},{"duration":0.13500000000001933,"durationTicks":240,"midi":57,"name":"A3","ticks":283920,"time":160.625,"velocity":0.7874015748031497},{"duration":0.1349999999999909,"durationTicks":240,"midi":45,"name":"A2","ticks":284160,"time":160.76000000000002,"velocity":0.7874015748031497},{"duration":0.1349999999999909,"durationTicks":240,"midi":57,"name":"A3","ticks":284400,"time":160.895,"velocity":0.7874015748031497},{"duration":0.13500000000001933,"durationTicks":240,"midi":45,"name":"A2","ticks":284640,"time":161.03,"velocity":0.7874015748031497},{"duration":0.1349999999999909,"durationTicks":240,"midi":57,"name":"A3","ticks":284880,"time":161.16500000000002,"velocity":0.7874015748031497},{"duration":0.1349999999999909,"durationTicks":240,"midi":45,"name":"A2","ticks":285120,"time":161.3,"velocity":0.7874015748031497},{"duration":0.13500000000001933,"durationTicks":240,"midi":57,"name":"A3","ticks":285360,"time":161.435,"velocity":0.7874015748031497},{"duration":0.1349999999999909,"durationTicks":240,"midi":45,"name":"A2","ticks":285600,"time":161.57000000000002,"velocity":0.7874015748031497},{"duration":0.1349999999999909,"durationTicks":240,"midi":57,"name":"A3","ticks":285840,"time":161.705,"velocity":0.7874015748031497},{"duration":0.13500000000001933,"durationTicks":240,"midi":40,"name":"E2","ticks":286080,"time":161.84,"velocity":0.7874015748031497},{"duration":0.1349999999999909,"durationTicks":240,"midi":52,"name":"E3","ticks":286320,"time":161.97500000000002,"velocity":0.7874015748031497},{"duration":0.1349999999999909,"durationTicks":240,"midi":40,"name":"E2","ticks":286560,"time":162.11,"velocity":0.7874015748031497},{"duration":0.13500000000001933,"durationTicks":240,"midi":52,"name":"E3","ticks":286800,"time":162.245,"velocity":0.7874015748031497},{"duration":0.1349999999999909,"durationTicks":240,"midi":40,"name":"E2","ticks":287040,"time":162.38000000000002,"velocity":0.7874015748031497},{"duration":0.1349999999999909,"durationTicks":240,"midi":52,"name":"E3","ticks":287280,"time":162.51500000000001,"velocity":0.7874015748031497},{"duration":0.1349999999999909,"durationTicks":240,"midi":40,"name":"E2","ticks":287520,"time":162.65,"velocity":0.7874015748031497},{"duration":0.13500000000001933,"durationTicks":240,"midi":52,"name":"E3","ticks":287760,"time":162.785,"velocity":0.7874015748031497},{"duration":0.1349999999999909,"durationTicks":240,"midi":40,"name":"E2","ticks":288000,"time":162.92000000000002,"velocity":0.7874015748031497},{"duration":0.1349999999999909,"durationTicks":240,"midi":52,"name":"E3","ticks":288240,"time":163.055,"velocity":0.7874015748031497},{"duration":0.13500000000001933,"durationTicks":240,"midi":40,"name":"E2","ticks":288480,"time":163.19,"velocity":0.7874015748031497},{"duration":0.1349999999999909,"durationTicks":240,"midi":52,"name":"E3","ticks":288720,"time":163.32500000000002,"velocity":0.7874015748031497},{"duration":0.1349999999999909,"durationTicks":240,"midi":40,"name":"E2","ticks":288960,"time":163.46,"velocity":0.7874015748031497},{"duration":0.13500000000001933,"durationTicks":240,"midi":52,"name":"E3","ticks":289200,"time":163.595,"velocity":0.7874015748031497},{"duration":0.1349999999999909,"durationTicks":240,"midi":40,"name":"E2","ticks":289440,"time":163.73000000000002,"velocity":0.7874015748031497},{"duration":0.1349999999999909,"durationTicks":240,"midi":52,"name":"E3","ticks":289680,"time":163.865,"velocity":0.7874015748031497},{"duration":0.13500000000001933,"durationTicks":240,"midi":38,"name":"D2","ticks":289920,"time":164,"velocity":0.7874015748031497},{"duration":0.1349999999999909,"durationTicks":240,"midi":50,"name":"D3","ticks":290160,"time":164.13500000000002,"velocity":0.7874015748031497},{"duration":0.1349999999999909,"durationTicks":240,"midi":38,"name":"D2","ticks":290400,"time":164.27,"velocity":0.7874015748031497},{"duration":0.13500000000001933,"durationTicks":240,"midi":50,"name":"D3","ticks":290640,"time":164.405,"velocity":0.7874015748031497},{"duration":0.1349999999999909,"durationTicks":240,"midi":38,"name":"D2","ticks":290880,"time":164.54000000000002,"velocity":0.7874015748031497},{"duration":0.1349999999999909,"durationTicks":240,"midi":50,"name":"D3","ticks":291120,"time":164.675,"velocity":0.7874015748031497},{"duration":0.13500000000001933,"durationTicks":240,"midi":38,"name":"D2","ticks":291360,"time":164.81,"velocity":0.7874015748031497},{"duration":0.1349999999999909,"durationTicks":240,"midi":50,"name":"D3","ticks":291600,"time":164.94500000000002,"velocity":0.7874015748031497},{"duration":0.1349999999999909,"durationTicks":240,"midi":38,"name":"D2","ticks":291840,"time":165.08,"velocity":0.7874015748031497},{"duration":0.13500000000001933,"durationTicks":240,"midi":50,"name":"D3","ticks":292080,"time":165.215,"velocity":0.7874015748031497},{"duration":0.1349999999999909,"durationTicks":240,"midi":38,"name":"D2","ticks":292320,"time":165.35000000000002,"velocity":0.7874015748031497},{"duration":0.1349999999999909,"durationTicks":240,"midi":50,"name":"D3","ticks":292560,"time":165.485,"velocity":0.7874015748031497},{"duration":0.13500000000001933,"durationTicks":240,"midi":38,"name":"D2","ticks":292800,"time":165.62,"velocity":0.7874015748031497},{"duration":0.1349999999999909,"durationTicks":240,"midi":50,"name":"D3","ticks":293040,"time":165.75500000000002,"velocity":0.7874015748031497},{"duration":0.1349999999999909,"durationTicks":240,"midi":38,"name":"D2","ticks":293280,"time":165.89000000000001,"velocity":0.7874015748031497},{"duration":0.13500000000001933,"durationTicks":240,"midi":50,"name":"D3","ticks":293520,"time":166.025,"velocity":0.7874015748031497},{"duration":0.1349999999999909,"durationTicks":240,"midi":38,"name":"D2","ticks":293760,"time":166.16000000000003,"velocity":0.7874015748031497},{"duration":0.1349999999999909,"durationTicks":240,"midi":50,"name":"D3","ticks":294000,"time":166.29500000000002,"velocity":0.7874015748031497},{"duration":0.1349999999999909,"durationTicks":240,"midi":38,"name":"D2","ticks":294240,"time":166.43,"velocity":0.7874015748031497},{"duration":0.13500000000001933,"durationTicks":240,"midi":50,"name":"D3","ticks":294480,"time":166.565,"velocity":0.7874015748031497},{"duration":0.1349999999999909,"durationTicks":240,"midi":38,"name":"D2","ticks":294720,"time":166.70000000000002,"velocity":0.7874015748031497},{"duration":0.1349999999999909,"durationTicks":240,"midi":50,"name":"D3","ticks":294960,"time":166.835,"velocity":0.7874015748031497},{"duration":0.13500000000001933,"durationTicks":240,"midi":38,"name":"D2","ticks":295200,"time":166.97,"velocity":0.7874015748031497},{"duration":0.1349999999999909,"durationTicks":240,"midi":50,"name":"D3","ticks":295440,"time":167.10500000000002,"velocity":0.7874015748031497},{"duration":0.1349999999999909,"durationTicks":240,"midi":38,"name":"D2","ticks":295680,"time":167.24,"velocity":0.7874015748031497},{"duration":0.13500000000001933,"durationTicks":240,"midi":50,"name":"D3","ticks":295920,"time":167.375,"velocity":0.7874015748031497},{"duration":0.1349999999999909,"durationTicks":240,"midi":38,"name":"D2","ticks":296160,"time":167.51000000000002,"velocity":0.7874015748031497},{"duration":0.1349999999999909,"durationTicks":240,"midi":50,"name":"D3","ticks":296400,"time":167.645,"velocity":0.7874015748031497},{"duration":0.13500000000001933,"durationTicks":240,"midi":38,"name":"D2","ticks":296640,"time":167.78,"velocity":0.7874015748031497},{"duration":0.1349999999999909,"durationTicks":240,"midi":50,"name":"D3","ticks":296880,"time":167.91500000000002,"velocity":0.7874015748031497},{"duration":0.1349999999999909,"durationTicks":240,"midi":38,"name":"D2","ticks":297120,"time":168.05,"velocity":0.7874015748031497},{"duration":0.13500000000001933,"durationTicks":240,"midi":50,"name":"D3","ticks":297360,"time":168.185,"velocity":0.7874015748031497},{"duration":0.1349999999999909,"durationTicks":240,"midi":37,"name":"C#2","ticks":297600,"time":168.32000000000002,"velocity":0.7874015748031497},{"duration":0.1349999999999909,"durationTicks":240,"midi":49,"name":"C#3","ticks":297840,"time":168.455,"velocity":0.7874015748031497},{"duration":0.13500000000001933,"durationTicks":240,"midi":37,"name":"C#2","ticks":298080,"time":168.59,"velocity":0.7874015748031497},{"duration":0.1349999999999909,"durationTicks":240,"midi":49,"name":"C#3","ticks":298320,"time":168.72500000000002,"velocity":0.7874015748031497},{"duration":0.1349999999999909,"durationTicks":240,"midi":37,"name":"C#2","ticks":298560,"time":168.86,"velocity":0.7874015748031497},{"duration":0.13500000000001933,"durationTicks":240,"midi":49,"name":"C#3","ticks":298800,"time":168.995,"velocity":0.7874015748031497},{"duration":0.1349999999999909,"durationTicks":240,"midi":37,"name":"C#2","ticks":299040,"time":169.13000000000002,"velocity":0.7874015748031497},{"duration":0.1349999999999909,"durationTicks":240,"midi":49,"name":"C#3","ticks":299280,"time":169.26500000000001,"velocity":0.7874015748031497},{"duration":0.13500000000001933,"durationTicks":240,"midi":37,"name":"C#2","ticks":299520,"time":169.4,"velocity":0.7874015748031497},{"duration":0.1349999999999909,"durationTicks":240,"midi":49,"name":"C#3","ticks":299760,"time":169.53500000000003,"velocity":0.7874015748031497},{"duration":0.1349999999999909,"durationTicks":240,"midi":37,"name":"C#2","ticks":300000,"time":169.67000000000002,"velocity":0.7874015748031497},{"duration":0.1349999999999909,"durationTicks":240,"midi":49,"name":"C#3","ticks":300240,"time":169.805,"velocity":0.7874015748031497},{"duration":0.13500000000001933,"durationTicks":240,"midi":37,"name":"C#2","ticks":300480,"time":169.94,"velocity":0.7874015748031497},{"duration":0.1349999999999909,"durationTicks":240,"midi":49,"name":"C#3","ticks":300720,"time":170.07500000000002,"velocity":0.7874015748031497},{"duration":0.1349999999999909,"durationTicks":240,"midi":37,"name":"C#2","ticks":300960,"time":170.21,"velocity":0.7874015748031497},{"duration":0.13500000000001933,"durationTicks":240,"midi":49,"name":"C#3","ticks":301200,"time":170.345,"velocity":0.7874015748031497},{"duration":0.1349999999999909,"durationTicks":240,"midi":42,"name":"F#2","ticks":301440,"time":170.48000000000002,"velocity":0.7874015748031497},{"duration":0.1349999999999909,"durationTicks":240,"midi":54,"name":"F#3","ticks":301680,"time":170.615,"velocity":0.7874015748031497},{"duration":0.13500000000001933,"durationTicks":240,"midi":42,"name":"F#2","ticks":301920,"time":170.75,"velocity":0.7874015748031497},{"duration":0.1349999999999909,"durationTicks":240,"midi":54,"name":"F#3","ticks":302160,"time":170.88500000000002,"velocity":0.7874015748031497},{"duration":0.1349999999999909,"durationTicks":240,"midi":42,"name":"F#2","ticks":302400,"time":171.02,"velocity":0.7874015748031497},{"duration":0.13500000000001933,"durationTicks":240,"midi":54,"name":"F#3","ticks":302640,"time":171.155,"velocity":0.7874015748031497},{"duration":0.1349999999999909,"durationTicks":240,"midi":42,"name":"F#2","ticks":302880,"time":171.29000000000002,"velocity":0.7874015748031497},{"duration":0.1349999999999909,"durationTicks":240,"midi":54,"name":"F#3","ticks":303120,"time":171.425,"velocity":0.7874015748031497},{"duration":0.13500000000001933,"durationTicks":240,"midi":42,"name":"F#2","ticks":303360,"time":171.56,"velocity":0.7874015748031497},{"duration":0.1349999999999909,"durationTicks":240,"midi":54,"name":"F#3","ticks":303600,"time":171.69500000000002,"velocity":0.7874015748031497},{"duration":0.1349999999999909,"durationTicks":240,"midi":42,"name":"F#2","ticks":303840,"time":171.83,"velocity":0.7874015748031497},{"duration":0.13500000000001933,"durationTicks":240,"midi":54,"name":"F#3","ticks":304080,"time":171.965,"velocity":0.7874015748031497},{"duration":0.1349999999999909,"durationTicks":240,"midi":42,"name":"F#2","ticks":304320,"time":172.10000000000002,"velocity":0.7874015748031497},{"duration":0.1349999999999909,"durationTicks":240,"midi":54,"name":"F#3","ticks":304560,"time":172.235,"velocity":0.7874015748031497},{"duration":0.13500000000001933,"durationTicks":240,"midi":42,"name":"F#2","ticks":304800,"time":172.37,"velocity":0.7874015748031497},{"duration":0.1349999999999909,"durationTicks":240,"midi":54,"name":"F#3","ticks":305040,"time":172.50500000000002,"velocity":0.7874015748031497},{"duration":0.1349999999999909,"durationTicks":240,"midi":38,"name":"D2","ticks":305280,"time":172.64000000000001,"velocity":0.7874015748031497},{"duration":0.13500000000001933,"durationTicks":240,"midi":50,"name":"D3","ticks":305520,"time":172.775,"velocity":0.7874015748031497},{"duration":0.1349999999999909,"durationTicks":240,"midi":38,"name":"D2","ticks":305760,"time":172.91000000000003,"velocity":0.7874015748031497},{"duration":0.1349999999999909,"durationTicks":240,"midi":50,"name":"D3","ticks":306000,"time":173.04500000000002,"velocity":0.7874015748031497},{"duration":0.1349999999999909,"durationTicks":240,"midi":38,"name":"D2","ticks":306240,"time":173.18,"velocity":0.7874015748031497},{"duration":0.13500000000001933,"durationTicks":240,"midi":50,"name":"D3","ticks":306480,"time":173.315,"velocity":0.7874015748031497},{"duration":0.1349999999999909,"durationTicks":240,"midi":38,"name":"D2","ticks":306720,"time":173.45000000000002,"velocity":0.7874015748031497},{"duration":0.1349999999999909,"durationTicks":240,"midi":50,"name":"D3","ticks":306960,"time":173.585,"velocity":0.7874015748031497},{"duration":0.13500000000001933,"durationTicks":240,"midi":38,"name":"D2","ticks":307200,"time":173.72,"velocity":0.7874015748031497},{"duration":0.1349999999999909,"durationTicks":240,"midi":50,"name":"D3","ticks":307440,"time":173.85500000000002,"velocity":0.7874015748031497},{"duration":0.1349999999999909,"durationTicks":240,"midi":38,"name":"D2","ticks":307680,"time":173.99,"velocity":0.7874015748031497},{"duration":0.13500000000001933,"durationTicks":240,"midi":50,"name":"D3","ticks":307920,"time":174.125,"velocity":0.7874015748031497},{"duration":0.1349999999999909,"durationTicks":240,"midi":38,"name":"D2","ticks":308160,"time":174.26000000000002,"velocity":0.7874015748031497},{"duration":0.1349999999999909,"durationTicks":240,"midi":50,"name":"D3","ticks":308400,"time":174.395,"velocity":0.7874015748031497},{"duration":0.13500000000001933,"durationTicks":240,"midi":38,"name":"D2","ticks":308640,"time":174.53,"velocity":0.7874015748031497},{"duration":0.1349999999999909,"durationTicks":240,"midi":50,"name":"D3","ticks":308880,"time":174.66500000000002,"velocity":0.7874015748031497},{"duration":0.1349999999999909,"durationTicks":240,"midi":40,"name":"E2","ticks":309120,"time":174.8,"velocity":0.7874015748031497},{"duration":0.13500000000001933,"durationTicks":240,"midi":52,"name":"E3","ticks":309360,"time":174.935,"velocity":0.7874015748031497},{"duration":0.1349999999999909,"durationTicks":240,"midi":40,"name":"E2","ticks":309600,"time":175.07000000000002,"velocity":0.7874015748031497},{"duration":0.1349999999999909,"durationTicks":240,"midi":52,"name":"E3","ticks":309840,"time":175.205,"velocity":0.7874015748031497},{"duration":0.13500000000001933,"durationTicks":240,"midi":40,"name":"E2","ticks":310080,"time":175.34,"velocity":0.7874015748031497},{"duration":0.1349999999999909,"durationTicks":240,"midi":52,"name":"E3","ticks":310320,"time":175.47500000000002,"velocity":0.7874015748031497},{"duration":0.1349999999999909,"durationTicks":240,"midi":40,"name":"E2","ticks":310560,"time":175.61,"velocity":0.7874015748031497},{"duration":0.13500000000001933,"durationTicks":240,"midi":52,"name":"E3","ticks":310800,"time":175.745,"velocity":0.7874015748031497},{"duration":0.1349999999999909,"durationTicks":240,"midi":40,"name":"E2","ticks":311040,"time":175.88000000000002,"velocity":0.7874015748031497},{"duration":0.1349999999999909,"durationTicks":240,"midi":52,"name":"E3","ticks":311280,"time":176.01500000000001,"velocity":0.7874015748031497},{"duration":0.13500000000001933,"durationTicks":240,"midi":40,"name":"E2","ticks":311520,"time":176.15,"velocity":0.7874015748031497},{"duration":0.1349999999999909,"durationTicks":240,"midi":52,"name":"E3","ticks":311760,"time":176.28500000000003,"velocity":0.7874015748031497},{"duration":0.1349999999999909,"durationTicks":240,"midi":40,"name":"E2","ticks":312000,"time":176.42000000000002,"velocity":0.7874015748031497},{"duration":0.1349999999999909,"durationTicks":240,"midi":52,"name":"E3","ticks":312240,"time":176.555,"velocity":0.7874015748031497},{"duration":0.13500000000001933,"durationTicks":240,"midi":40,"name":"E2","ticks":312480,"time":176.69,"velocity":0.7874015748031497},{"duration":0.1349999999999909,"durationTicks":240,"midi":52,"name":"E3","ticks":312720,"time":176.82500000000002,"velocity":0.7874015748031497},{"duration":0.1349999999999909,"durationTicks":240,"midi":45,"name":"A2","ticks":312960,"time":176.96,"velocity":0.7874015748031497},{"duration":0.13500000000001933,"durationTicks":240,"midi":57,"name":"A3","ticks":313200,"time":177.095,"velocity":0.7874015748031497},{"duration":0.1349999999999909,"durationTicks":240,"midi":45,"name":"A2","ticks":313440,"time":177.23000000000002,"velocity":0.7874015748031497},{"duration":0.1349999999999909,"durationTicks":240,"midi":57,"name":"A3","ticks":313680,"time":177.365,"velocity":0.7874015748031497},{"duration":0.13500000000001933,"durationTicks":240,"midi":45,"name":"A2","ticks":313920,"time":177.5,"velocity":0.7874015748031497},{"duration":0.1349999999999909,"durationTicks":240,"midi":57,"name":"A3","ticks":314160,"time":177.63500000000002,"velocity":0.7874015748031497},{"duration":0.1349999999999909,"durationTicks":240,"midi":45,"name":"A2","ticks":314400,"time":177.77,"velocity":0.7874015748031497},{"duration":0.13500000000001933,"durationTicks":240,"midi":57,"name":"A3","ticks":314640,"time":177.905,"velocity":0.7874015748031497},{"duration":0.1349999999999909,"durationTicks":240,"midi":45,"name":"A2","ticks":314880,"time":178.04000000000002,"velocity":0.7874015748031497},{"duration":0.1349999999999909,"durationTicks":240,"midi":57,"name":"A3","ticks":315120,"time":178.175,"velocity":0.7874015748031497},{"duration":0.13500000000001933,"durationTicks":240,"midi":45,"name":"A2","ticks":315360,"time":178.31,"velocity":0.7874015748031497},{"duration":0.1349999999999909,"durationTicks":240,"midi":57,"name":"A3","ticks":315600,"time":178.44500000000002,"velocity":0.7874015748031497},{"duration":0.1349999999999909,"durationTicks":240,"midi":45,"name":"A2","ticks":315840,"time":178.58,"velocity":0.7874015748031497},{"duration":0.13500000000001933,"durationTicks":240,"midi":57,"name":"A3","ticks":316080,"time":178.715,"velocity":0.7874015748031497},{"duration":0.1349999999999909,"durationTicks":240,"midi":45,"name":"A2","ticks":316320,"time":178.85000000000002,"velocity":0.7874015748031497},{"duration":0.1349999999999909,"durationTicks":240,"midi":57,"name":"A3","ticks":316560,"time":178.985,"velocity":0.7874015748031497},{"duration":0.13500000000001933,"durationTicks":240,"midi":44,"name":"G#2","ticks":316800,"time":179.12,"velocity":0.7874015748031497},{"duration":0.1349999999999909,"durationTicks":240,"midi":56,"name":"G#3","ticks":317040,"time":179.25500000000002,"velocity":0.7874015748031497},{"duration":0.1349999999999909,"durationTicks":240,"midi":44,"name":"G#2","ticks":317280,"time":179.39000000000001,"velocity":0.7874015748031497},{"duration":0.13500000000001933,"durationTicks":240,"midi":56,"name":"G#3","ticks":317520,"time":179.525,"velocity":0.7874015748031497},{"duration":0.1349999999999909,"durationTicks":240,"midi":44,"name":"G#2","ticks":317760,"time":179.66000000000003,"velocity":0.7874015748031497},{"duration":0.1349999999999909,"durationTicks":240,"midi":56,"name":"G#3","ticks":318000,"time":179.79500000000002,"velocity":0.7874015748031497},{"duration":0.1349999999999909,"durationTicks":240,"midi":44,"name":"G#2","ticks":318240,"time":179.93,"velocity":0.7874015748031497},{"duration":0.13500000000001933,"durationTicks":240,"midi":56,"name":"G#3","ticks":318480,"time":180.065,"velocity":0.7874015748031497},{"duration":0.1349999999999909,"durationTicks":240,"midi":44,"name":"G#2","ticks":318720,"time":180.20000000000002,"velocity":0.7874015748031497},{"duration":0.1349999999999909,"durationTicks":240,"midi":56,"name":"G#3","ticks":318960,"time":180.335,"velocity":0.7874015748031497},{"duration":0.13500000000001933,"durationTicks":240,"midi":44,"name":"G#2","ticks":319200,"time":180.47,"velocity":0.7874015748031497},{"duration":0.1349999999999909,"durationTicks":240,"midi":56,"name":"G#3","ticks":319440,"time":180.60500000000002,"velocity":0.7874015748031497},{"duration":0.1349999999999909,"durationTicks":240,"midi":44,"name":"G#2","ticks":319680,"time":180.74,"velocity":0.7874015748031497},{"duration":0.13500000000001933,"durationTicks":240,"midi":56,"name":"G#3","ticks":319920,"time":180.875,"velocity":0.7874015748031497},{"duration":0.1349999999999909,"durationTicks":240,"midi":44,"name":"G#2","ticks":320160,"time":181.01000000000002,"velocity":0.7874015748031497},{"duration":0.1349999999999909,"durationTicks":240,"midi":56,"name":"G#3","ticks":320400,"time":181.145,"velocity":0.7874015748031497},{"duration":0.13500000000001933,"durationTicks":240,"midi":42,"name":"F#2","ticks":320640,"time":181.28,"velocity":0.7874015748031497},{"duration":0.1349999999999909,"durationTicks":240,"midi":54,"name":"F#3","ticks":320880,"time":181.41500000000002,"velocity":0.7874015748031497},{"duration":0.1349999999999909,"durationTicks":240,"midi":42,"name":"F#2","ticks":321120,"time":181.55,"velocity":0.7874015748031497},{"duration":0.13500000000001933,"durationTicks":240,"midi":54,"name":"F#3","ticks":321360,"time":181.685,"velocity":0.7874015748031497},{"duration":0.1349999999999909,"durationTicks":240,"midi":42,"name":"F#2","ticks":321600,"time":181.82000000000002,"velocity":0.7874015748031497},{"duration":0.1349999999999909,"durationTicks":240,"midi":54,"name":"F#3","ticks":321840,"time":181.955,"velocity":0.7874015748031497},{"duration":0.13500000000001933,"durationTicks":240,"midi":42,"name":"F#2","ticks":322080,"time":182.09,"velocity":0.7874015748031497},{"duration":0.1349999999999909,"durationTicks":240,"midi":54,"name":"F#3","ticks":322320,"time":182.22500000000002,"velocity":0.7874015748031497},{"duration":0.1349999999999909,"durationTicks":240,"midi":42,"name":"F#2","ticks":322560,"time":182.36,"velocity":0.7874015748031497},{"duration":0.13500000000001933,"durationTicks":240,"midi":54,"name":"F#3","ticks":322800,"time":182.495,"velocity":0.7874015748031497},{"duration":0.1349999999999909,"durationTicks":240,"midi":42,"name":"F#2","ticks":323040,"time":182.63000000000002,"velocity":0.7874015748031497},{"duration":0.1349999999999909,"durationTicks":240,"midi":54,"name":"F#3","ticks":323280,"time":182.76500000000001,"velocity":0.7874015748031497},{"duration":0.13500000000001933,"durationTicks":240,"midi":42,"name":"F#2","ticks":323520,"time":182.9,"velocity":0.7874015748031497},{"duration":0.1349999999999909,"durationTicks":240,"midi":54,"name":"F#3","ticks":323760,"time":183.03500000000003,"velocity":0.7874015748031497},{"duration":0.1349999999999909,"durationTicks":240,"midi":42,"name":"F#2","ticks":324000,"time":183.17000000000002,"velocity":0.7874015748031497},{"duration":0.1349999999999909,"durationTicks":240,"midi":54,"name":"F#3","ticks":324240,"time":183.305,"velocity":0.7874015748031497},{"duration":0.13500000000001933,"durationTicks":240,"midi":41,"name":"F2","ticks":324480,"time":183.44,"velocity":0.7874015748031497},{"duration":0.1349999999999909,"durationTicks":240,"midi":53,"name":"F3","ticks":324720,"time":183.57500000000002,"velocity":0.7874015748031497},{"duration":0.1349999999999909,"durationTicks":240,"midi":41,"name":"F2","ticks":324960,"time":183.71,"velocity":0.7874015748031497},{"duration":0.13500000000001933,"durationTicks":240,"midi":53,"name":"F3","ticks":325200,"time":183.845,"velocity":0.7874015748031497},{"duration":0.1349999999999909,"durationTicks":240,"midi":41,"name":"F2","ticks":325440,"time":183.98000000000002,"velocity":0.7874015748031497},{"duration":0.1349999999999909,"durationTicks":240,"midi":53,"name":"F3","ticks":325680,"time":184.115,"velocity":0.7874015748031497},{"duration":0.13500000000001933,"durationTicks":240,"midi":41,"name":"F2","ticks":325920,"time":184.25,"velocity":0.7874015748031497},{"duration":0.1349999999999909,"durationTicks":240,"midi":53,"name":"F3","ticks":326160,"time":184.38500000000002,"velocity":0.7874015748031497},{"duration":0.1349999999999909,"durationTicks":240,"midi":41,"name":"F2","ticks":326400,"time":184.52,"velocity":0.7874015748031497},{"duration":0.13500000000001933,"durationTicks":240,"midi":53,"name":"F3","ticks":326640,"time":184.655,"velocity":0.7874015748031497},{"duration":0.1349999999999909,"durationTicks":240,"midi":41,"name":"F2","ticks":326880,"time":184.79000000000002,"velocity":0.7874015748031497},{"duration":0.1349999999999909,"durationTicks":240,"midi":53,"name":"F3","ticks":327120,"time":184.925,"velocity":0.7874015748031497},{"duration":0.13500000000001933,"durationTicks":240,"midi":41,"name":"F2","ticks":327360,"time":185.06,"velocity":0.7874015748031497},{"duration":0.1349999999999909,"durationTicks":240,"midi":53,"name":"F3","ticks":327600,"time":185.19500000000002,"velocity":0.7874015748031497},{"duration":0.1349999999999909,"durationTicks":240,"midi":41,"name":"F2","ticks":327840,"time":185.33,"velocity":0.7874015748031497},{"duration":0.13500000000001933,"durationTicks":240,"midi":53,"name":"F3","ticks":328080,"time":185.465,"velocity":0.7874015748031497},{"duration":0.1349999999999909,"durationTicks":240,"midi":40,"name":"E2","ticks":328320,"time":185.60000000000002,"velocity":0.7874015748031497},{"duration":0.1349999999999909,"durationTicks":240,"midi":52,"name":"E3","ticks":328560,"time":185.735,"velocity":0.7874015748031497},{"duration":0.13500000000001933,"durationTicks":240,"midi":40,"name":"E2","ticks":328800,"time":185.87,"velocity":0.7874015748031497},{"duration":0.1349999999999909,"durationTicks":240,"midi":52,"name":"E3","ticks":329040,"time":186.00500000000002,"velocity":0.7874015748031497},{"duration":0.1349999999999909,"durationTicks":240,"midi":40,"name":"E2","ticks":329280,"time":186.14000000000001,"velocity":0.7874015748031497},{"duration":0.13500000000001933,"durationTicks":240,"midi":52,"name":"E3","ticks":329520,"time":186.275,"velocity":0.7874015748031497},{"duration":0.1349999999999909,"durationTicks":240,"midi":40,"name":"E2","ticks":329760,"time":186.41000000000003,"velocity":0.7874015748031497},{"duration":0.1349999999999909,"durationTicks":240,"midi":52,"name":"E3","ticks":330000,"time":186.54500000000002,"velocity":0.7874015748031497},{"duration":0.13500000000001933,"durationTicks":240,"midi":40,"name":"E2","ticks":330240,"time":186.68,"velocity":0.7874015748031497},{"duration":0.1349999999999909,"durationTicks":240,"midi":52,"name":"E3","ticks":330480,"time":186.81500000000003,"velocity":0.7874015748031497},{"duration":0.1349999999999909,"durationTicks":240,"midi":40,"name":"E2","ticks":330720,"time":186.95000000000002,"velocity":0.7874015748031497},{"duration":0.1349999999999909,"durationTicks":240,"midi":52,"name":"E3","ticks":330960,"time":187.085,"velocity":0.7874015748031497},{"duration":0.13500000000001933,"durationTicks":240,"midi":40,"name":"E2","ticks":331200,"time":187.22,"velocity":0.7874015748031497},{"duration":0.1349999999999909,"durationTicks":240,"midi":52,"name":"E3","ticks":331440,"time":187.35500000000002,"velocity":0.7874015748031497},{"duration":0.1349999999999909,"durationTicks":240,"midi":40,"name":"E2","ticks":331680,"time":187.49,"velocity":0.7874015748031497},{"duration":0.13500000000001933,"durationTicks":240,"midi":52,"name":"E3","ticks":331920,"time":187.625,"velocity":0.7874015748031497},{"duration":0.1349999999999909,"durationTicks":240,"midi":39,"name":"D#2","ticks":332160,"time":187.76000000000002,"velocity":0.7874015748031497},{"duration":0.1349999999999909,"durationTicks":240,"midi":51,"name":"D#3","ticks":332400,"time":187.895,"velocity":0.7874015748031497},{"duration":0.13500000000001933,"durationTicks":240,"midi":39,"name":"D#2","ticks":332640,"time":188.03,"velocity":0.7874015748031497},{"duration":0.1349999999999909,"durationTicks":240,"midi":51,"name":"D#3","ticks":332880,"time":188.16500000000002,"velocity":0.7874015748031497},{"duration":0.1349999999999909,"durationTicks":240,"midi":39,"name":"D#2","ticks":333120,"time":188.3,"velocity":0.7874015748031497},{"duration":0.13500000000001933,"durationTicks":240,"midi":51,"name":"D#3","ticks":333360,"time":188.435,"velocity":0.7874015748031497},{"duration":0.1349999999999909,"durationTicks":240,"midi":39,"name":"D#2","ticks":333600,"time":188.57000000000002,"velocity":0.7874015748031497},{"duration":0.1349999999999909,"durationTicks":240,"midi":51,"name":"D#3","ticks":333840,"time":188.705,"velocity":0.7874015748031497},{"duration":0.13500000000001933,"durationTicks":240,"midi":39,"name":"D#2","ticks":334080,"time":188.84,"velocity":0.7874015748031497},{"duration":0.1349999999999909,"durationTicks":240,"midi":51,"name":"D#3","ticks":334320,"time":188.97500000000002,"velocity":0.7874015748031497},{"duration":0.1349999999999909,"durationTicks":240,"midi":39,"name":"D#2","ticks":334560,"time":189.11,"velocity":0.7874015748031497},{"duration":0.13500000000001933,"durationTicks":240,"midi":51,"name":"D#3","ticks":334800,"time":189.245,"velocity":0.7874015748031497},{"duration":0.1349999999999909,"durationTicks":240,"midi":39,"name":"D#2","ticks":335040,"time":189.38000000000002,"velocity":0.7874015748031497},{"duration":0.1349999999999909,"durationTicks":240,"midi":51,"name":"D#3","ticks":335280,"time":189.51500000000001,"velocity":0.7874015748031497},{"duration":0.13500000000001933,"durationTicks":240,"midi":39,"name":"D#2","ticks":335520,"time":189.65,"velocity":0.7874015748031497},{"duration":0.1349999999999909,"durationTicks":240,"midi":51,"name":"D#3","ticks":335760,"time":189.78500000000003,"velocity":0.7874015748031497},{"duration":0.1349999999999909,"durationTicks":240,"midi":35,"name":"B1","ticks":336000,"time":189.92000000000002,"velocity":0.7874015748031497},{"duration":0.13500000000001933,"durationTicks":240,"midi":47,"name":"B2","ticks":336240,"time":190.055,"velocity":0.7874015748031497},{"duration":0.1349999999999909,"durationTicks":240,"midi":35,"name":"B1","ticks":336480,"time":190.19000000000003,"velocity":0.7874015748031497},{"duration":0.1349999999999909,"durationTicks":240,"midi":47,"name":"B2","ticks":336720,"time":190.32500000000002,"velocity":0.7874015748031497},{"duration":0.1349999999999909,"durationTicks":240,"midi":35,"name":"B1","ticks":336960,"time":190.46,"velocity":0.7874015748031497},{"duration":0.13500000000001933,"durationTicks":240,"midi":47,"name":"B2","ticks":337200,"time":190.595,"velocity":0.7874015748031497},{"duration":0.1349999999999909,"durationTicks":240,"midi":35,"name":"B1","ticks":337440,"time":190.73000000000002,"velocity":0.7874015748031497},{"duration":0.1349999999999909,"durationTicks":240,"midi":47,"name":"B2","ticks":337680,"time":190.865,"velocity":0.7874015748031497},{"duration":0.13500000000001933,"durationTicks":240,"midi":35,"name":"B1","ticks":337920,"time":191,"velocity":0.7874015748031497},{"duration":0.1349999999999909,"durationTicks":240,"midi":47,"name":"B2","ticks":338160,"time":191.13500000000002,"velocity":0.7874015748031497},{"duration":0.1349999999999909,"durationTicks":240,"midi":35,"name":"B1","ticks":338400,"time":191.27,"velocity":0.7874015748031497},{"duration":0.13500000000001933,"durationTicks":240,"midi":47,"name":"B2","ticks":338640,"time":191.405,"velocity":0.7874015748031497},{"duration":0.1349999999999909,"durationTicks":240,"midi":35,"name":"B1","ticks":338880,"time":191.54000000000002,"velocity":0.7874015748031497},{"duration":0.1349999999999909,"durationTicks":240,"midi":47,"name":"B2","ticks":339120,"time":191.675,"velocity":0.7874015748031497},{"duration":0.13500000000001933,"durationTicks":240,"midi":35,"name":"B1","ticks":339360,"time":191.81,"velocity":0.7874015748031497},{"duration":0.1349999999999909,"durationTicks":240,"midi":47,"name":"B2","ticks":339600,"time":191.94500000000002,"velocity":0.7874015748031497},{"duration":0.1349999999999909,"durationTicks":240,"midi":37,"name":"C#2","ticks":339840,"time":192.08,"velocity":0.7874015748031497},{"duration":0.13500000000001933,"durationTicks":240,"midi":49,"name":"C#3","ticks":340080,"time":192.215,"velocity":0.7874015748031497},{"duration":0.1349999999999909,"durationTicks":240,"midi":37,"name":"C#2","ticks":340320,"time":192.35000000000002,"velocity":0.7874015748031497},{"duration":0.1349999999999909,"durationTicks":240,"midi":49,"name":"C#3","ticks":340560,"time":192.485,"velocity":0.7874015748031497},{"duration":0.13500000000001933,"durationTicks":240,"midi":37,"name":"C#2","ticks":340800,"time":192.62,"velocity":0.7874015748031497},{"duration":0.1349999999999909,"durationTicks":240,"midi":49,"name":"C#3","ticks":341040,"time":192.75500000000002,"velocity":0.7874015748031497},{"duration":0.1349999999999909,"durationTicks":240,"midi":37,"name":"C#2","ticks":341280,"time":192.89000000000001,"velocity":0.7874015748031497},{"duration":0.13500000000001933,"durationTicks":240,"midi":49,"name":"C#3","ticks":341520,"time":193.025,"velocity":0.7874015748031497},{"duration":0.1349999999999909,"durationTicks":240,"midi":37,"name":"C#2","ticks":341760,"time":193.16000000000003,"velocity":0.7874015748031497},{"duration":0.1349999999999909,"durationTicks":240,"midi":49,"name":"C#3","ticks":342000,"time":193.29500000000002,"velocity":0.7874015748031497},{"duration":0.13500000000001933,"durationTicks":240,"midi":37,"name":"C#2","ticks":342240,"time":193.43,"velocity":0.7874015748031497},{"duration":0.1349999999999909,"durationTicks":240,"midi":49,"name":"C#3","ticks":342480,"time":193.56500000000003,"velocity":0.7874015748031497},{"duration":0.1349999999999909,"durationTicks":240,"midi":37,"name":"C#2","ticks":342720,"time":193.70000000000002,"velocity":0.7874015748031497},{"duration":0.1349999999999909,"durationTicks":240,"midi":49,"name":"C#3","ticks":342960,"time":193.835,"velocity":0.7874015748031497},{"duration":0.13500000000001933,"durationTicks":240,"midi":37,"name":"C#2","ticks":343200,"time":193.97,"velocity":0.7874015748031497},{"duration":0.1349999999999909,"durationTicks":240,"midi":49,"name":"C#3","ticks":343440,"time":194.10500000000002,"velocity":0.7874015748031497},{"duration":0.1349999999999909,"durationTicks":240,"midi":38,"name":"D2","ticks":343680,"time":194.24,"velocity":0.7874015748031497},{"duration":0.13500000000001933,"durationTicks":240,"midi":50,"name":"D3","ticks":343920,"time":194.375,"velocity":0.7874015748031497},{"duration":0.1349999999999909,"durationTicks":240,"midi":38,"name":"D2","ticks":344160,"time":194.51000000000002,"velocity":0.7874015748031497},{"duration":0.1349999999999909,"durationTicks":240,"midi":50,"name":"D3","ticks":344400,"time":194.645,"velocity":0.7874015748031497},{"duration":0.13500000000001933,"durationTicks":240,"midi":38,"name":"D2","ticks":344640,"time":194.78,"velocity":0.7874015748031497},{"duration":0.1349999999999909,"durationTicks":240,"midi":50,"name":"D3","ticks":344880,"time":194.91500000000002,"velocity":0.7874015748031497},{"duration":0.1349999999999909,"durationTicks":240,"midi":38,"name":"D2","ticks":345120,"time":195.05,"velocity":0.7874015748031497},{"duration":0.13500000000001933,"durationTicks":240,"midi":50,"name":"D3","ticks":345360,"time":195.185,"velocity":0.7874015748031497},{"duration":0.1349999999999909,"durationTicks":240,"midi":38,"name":"D2","ticks":345600,"time":195.32000000000002,"velocity":0.7874015748031497},{"duration":0.1349999999999909,"durationTicks":240,"midi":50,"name":"D3","ticks":345840,"time":195.455,"velocity":0.7874015748031497},{"duration":0.13500000000001933,"durationTicks":240,"midi":38,"name":"D2","ticks":346080,"time":195.59,"velocity":0.7874015748031497},{"duration":0.1349999999999909,"durationTicks":240,"midi":50,"name":"D3","ticks":346320,"time":195.72500000000002,"velocity":0.7874015748031497},{"duration":0.1349999999999909,"durationTicks":240,"midi":38,"name":"D2","ticks":346560,"time":195.86,"velocity":0.7874015748031497},{"duration":0.13500000000001933,"durationTicks":240,"midi":50,"name":"D3","ticks":346800,"time":195.995,"velocity":0.7874015748031497},{"duration":0.1349999999999909,"durationTicks":240,"midi":38,"name":"D2","ticks":347040,"time":196.13000000000002,"velocity":0.7874015748031497},{"duration":0.1349999999999909,"durationTicks":240,"midi":50,"name":"D3","ticks":347280,"time":196.26500000000001,"velocity":0.7874015748031497},{"duration":0.13500000000001933,"durationTicks":240,"midi":40,"name":"E2","ticks":347520,"time":196.4,"velocity":0.7874015748031497},{"duration":0.1349999999999909,"durationTicks":240,"midi":52,"name":"E3","ticks":347760,"time":196.53500000000003,"velocity":0.7874015748031497},{"duration":0.1349999999999909,"durationTicks":240,"midi":40,"name":"E2","ticks":348000,"time":196.67000000000002,"velocity":0.7874015748031497},{"duration":0.13500000000001933,"durationTicks":240,"midi":52,"name":"E3","ticks":348240,"time":196.805,"velocity":0.7874015748031497},{"duration":0.1349999999999909,"durationTicks":240,"midi":40,"name":"E2","ticks":348480,"time":196.94000000000003,"velocity":0.7874015748031497},{"duration":0.1349999999999909,"durationTicks":240,"midi":52,"name":"E3","ticks":348720,"time":197.07500000000002,"velocity":0.7874015748031497},{"duration":0.1349999999999909,"durationTicks":240,"midi":40,"name":"E2","ticks":348960,"time":197.21,"velocity":0.7874015748031497},{"duration":0.13500000000001933,"durationTicks":240,"midi":52,"name":"E3","ticks":349200,"time":197.345,"velocity":0.7874015748031497},{"duration":0.1349999999999909,"durationTicks":240,"midi":40,"name":"E2","ticks":349440,"time":197.48000000000002,"velocity":0.7874015748031497},{"duration":0.1349999999999909,"durationTicks":240,"midi":52,"name":"E3","ticks":349680,"time":197.615,"velocity":0.7874015748031497},{"duration":0.13500000000001933,"durationTicks":240,"midi":40,"name":"E2","ticks":349920,"time":197.75,"velocity":0.7874015748031497},{"duration":0.1349999999999909,"durationTicks":240,"midi":52,"name":"E3","ticks":350160,"time":197.88500000000002,"velocity":0.7874015748031497},{"duration":0.1349999999999909,"durationTicks":240,"midi":40,"name":"E2","ticks":350400,"time":198.02,"velocity":0.7874015748031497},{"duration":0.13500000000001933,"durationTicks":240,"midi":52,"name":"E3","ticks":350640,"time":198.155,"velocity":0.7874015748031497},{"duration":0.1349999999999909,"durationTicks":240,"midi":40,"name":"E2","ticks":350880,"time":198.29000000000002,"velocity":0.7874015748031497},{"duration":0.1349999999999909,"durationTicks":240,"midi":52,"name":"E3","ticks":351120,"time":198.425,"velocity":0.7874015748031497},{"duration":0.13500000000001933,"durationTicks":240,"midi":41,"name":"F2","ticks":351360,"time":198.56,"velocity":0.7874015748031497},{"duration":0.1349999999999909,"durationTicks":240,"midi":53,"name":"F3","ticks":351600,"time":198.69500000000002,"velocity":0.7874015748031497},{"duration":0.1349999999999909,"durationTicks":240,"midi":41,"name":"F2","ticks":351840,"time":198.83,"velocity":0.7874015748031497},{"duration":0.13500000000001933,"durationTicks":240,"midi":53,"name":"F3","ticks":352080,"time":198.965,"velocity":0.7874015748031497},{"duration":0.1349999999999909,"durationTicks":240,"midi":41,"name":"F2","ticks":352320,"time":199.10000000000002,"velocity":0.7874015748031497},{"duration":0.1349999999999909,"durationTicks":240,"midi":53,"name":"F3","ticks":352560,"time":199.235,"velocity":0.7874015748031497},{"duration":0.13500000000001933,"durationTicks":240,"midi":41,"name":"F2","ticks":352800,"time":199.37,"velocity":0.7874015748031497},{"duration":0.1349999999999909,"durationTicks":240,"midi":53,"name":"F3","ticks":353040,"time":199.50500000000002,"velocity":0.7874015748031497},{"duration":0.1349999999999909,"durationTicks":240,"midi":41,"name":"F2","ticks":353280,"time":199.64000000000001,"velocity":0.7874015748031497},{"duration":0.13500000000001933,"durationTicks":240,"midi":53,"name":"F3","ticks":353520,"time":199.775,"velocity":0.7874015748031497},{"duration":0.1349999999999909,"durationTicks":240,"midi":41,"name":"F2","ticks":353760,"time":199.91000000000003,"velocity":0.7874015748031497},{"duration":0.1349999999999909,"durationTicks":240,"midi":53,"name":"F3","ticks":354000,"time":200.04500000000002,"velocity":0.7874015748031497},{"duration":0.13500000000001933,"durationTicks":240,"midi":41,"name":"F2","ticks":354240,"time":200.18,"velocity":0.7874015748031497},{"duration":0.1349999999999909,"durationTicks":240,"midi":53,"name":"F3","ticks":354480,"time":200.31500000000003,"velocity":0.7874015748031497},{"duration":0.1349999999999909,"durationTicks":240,"midi":41,"name":"F2","ticks":354720,"time":200.45000000000002,"velocity":0.7874015748031497},{"duration":0.13500000000001933,"durationTicks":240,"midi":53,"name":"F3","ticks":354960,"time":200.585,"velocity":0.7874015748031497},{"duration":0.1349999999999909,"durationTicks":240,"midi":46,"name":"A#2","ticks":355200,"time":200.72000000000003,"velocity":0.7874015748031497},{"duration":0.1349999999999909,"durationTicks":240,"midi":58,"name":"A#3","ticks":355440,"time":200.85500000000002,"velocity":0.7874015748031497},{"duration":0.1349999999999909,"durationTicks":240,"midi":46,"name":"A#2","ticks":355680,"time":200.99,"velocity":0.7874015748031497},{"duration":0.13500000000001933,"durationTicks":240,"midi":58,"name":"A#3","ticks":355920,"time":201.125,"velocity":0.7874015748031497},{"duration":0.1349999999999909,"durationTicks":240,"midi":46,"name":"A#2","ticks":356160,"time":201.26000000000002,"velocity":0.7874015748031497},{"duration":0.1349999999999909,"durationTicks":240,"midi":58,"name":"A#3","ticks":356400,"time":201.395,"velocity":0.7874015748031497},{"duration":0.13500000000001933,"durationTicks":240,"midi":46,"name":"A#2","ticks":356640,"time":201.53,"velocity":0.7874015748031497},{"duration":0.1349999999999909,"durationTicks":240,"midi":58,"name":"A#3","ticks":356880,"time":201.66500000000002,"velocity":0.7874015748031497},{"duration":0.1349999999999909,"durationTicks":240,"midi":46,"name":"A#2","ticks":357120,"time":201.8,"velocity":0.7874015748031497},{"duration":0.13500000000001933,"durationTicks":240,"midi":58,"name":"A#3","ticks":357360,"time":201.935,"velocity":0.7874015748031497},{"duration":0.1349999999999909,"durationTicks":240,"midi":46,"name":"A#2","ticks":357600,"time":202.07000000000002,"velocity":0.7874015748031497},{"duration":0.1349999999999909,"durationTicks":240,"midi":58,"name":"A#3","ticks":357840,"time":202.205,"velocity":0.7874015748031497},{"duration":0.13500000000001933,"durationTicks":240,"midi":46,"name":"A#2","ticks":358080,"time":202.34,"velocity":0.7874015748031497},{"duration":0.1349999999999909,"durationTicks":240,"midi":58,"name":"A#3","ticks":358320,"time":202.47500000000002,"velocity":0.7874015748031497},{"duration":0.1349999999999909,"durationTicks":240,"midi":46,"name":"A#2","ticks":358560,"time":202.61,"velocity":0.7874015748031497},{"duration":0.13500000000001933,"durationTicks":240,"midi":58,"name":"A#3","ticks":358800,"time":202.745,"velocity":0.7874015748031497},{"duration":0.1349999999999909,"durationTicks":240,"midi":43,"name":"G2","ticks":359040,"time":202.88000000000002,"velocity":0.7874015748031497},{"duration":0.1349999999999909,"durationTicks":240,"midi":55,"name":"G3","ticks":359280,"time":203.01500000000001,"velocity":0.7874015748031497},{"duration":0.13500000000001933,"durationTicks":240,"midi":43,"name":"G2","ticks":359520,"time":203.15,"velocity":0.7874015748031497},{"duration":0.1349999999999909,"durationTicks":240,"midi":55,"name":"G3","ticks":359760,"time":203.28500000000003,"velocity":0.7874015748031497},{"duration":0.1349999999999909,"durationTicks":240,"midi":43,"name":"G2","ticks":360000,"time":203.42000000000002,"velocity":0.7874015748031497},{"duration":0.13500000000001933,"durationTicks":240,"midi":55,"name":"G3","ticks":360240,"time":203.555,"velocity":0.7874015748031497},{"duration":0.1349999999999909,"durationTicks":240,"midi":43,"name":"G2","ticks":360480,"time":203.69000000000003,"velocity":0.7874015748031497},{"duration":0.1349999999999909,"durationTicks":240,"midi":55,"name":"G3","ticks":360720,"time":203.82500000000002,"velocity":0.7874015748031497},{"duration":0.13500000000001933,"durationTicks":240,"midi":55,"name":"G3","ticks":360960,"time":203.96,"velocity":0.7874015748031497},{"duration":0.1349999999999909,"durationTicks":240,"midi":67,"name":"G4","ticks":361200,"time":204.09500000000003,"velocity":0.7874015748031497},{"duration":0.1349999999999909,"durationTicks":240,"midi":55,"name":"G3","ticks":361440,"time":204.23000000000002,"velocity":0.7874015748031497},{"duration":0.1349999999999909,"durationTicks":240,"midi":67,"name":"G4","ticks":361680,"time":204.365,"velocity":0.7874015748031497},{"duration":0.13500000000001933,"durationTicks":240,"midi":53,"name":"F3","ticks":361920,"time":204.5,"velocity":0.7874015748031497},{"duration":0.1349999999999909,"durationTicks":240,"midi":65,"name":"F4","ticks":362160,"time":204.63500000000002,"velocity":0.7874015748031497},{"duration":0.1349999999999909,"durationTicks":240,"midi":53,"name":"F3","ticks":362400,"time":204.77,"velocity":0.7874015748031497},{"duration":0.13500000000001933,"durationTicks":240,"midi":65,"name":"F4","ticks":362640,"time":204.905,"velocity":0.7874015748031497},{"duration":0.1349999999999909,"durationTicks":240,"midi":51,"name":"D#3","ticks":362880,"time":205.04000000000002,"velocity":0.7874015748031497},{"duration":0.1349999999999909,"durationTicks":240,"midi":63,"name":"D#4","ticks":363120,"time":205.175,"velocity":0.7874015748031497},{"duration":0.13500000000001933,"durationTicks":240,"midi":51,"name":"D#3","ticks":363360,"time":205.31,"velocity":0.7874015748031497},{"duration":0.1349999999999909,"durationTicks":240,"midi":63,"name":"D#4","ticks":363600,"time":205.44500000000002,"velocity":0.7874015748031497},{"duration":0.1349999999999909,"durationTicks":240,"midi":51,"name":"D#3","ticks":363840,"time":205.58,"velocity":0.7874015748031497},{"duration":0.13500000000001933,"durationTicks":240,"midi":63,"name":"D#4","ticks":364080,"time":205.715,"velocity":0.7874015748031497},{"duration":0.1349999999999909,"durationTicks":240,"midi":51,"name":"D#3","ticks":364320,"time":205.85000000000002,"velocity":0.7874015748031497},{"duration":0.1349999999999909,"durationTicks":240,"midi":63,"name":"D#4","ticks":364560,"time":205.985,"velocity":0.7874015748031497},{"duration":0.13500000000001933,"durationTicks":240,"midi":53,"name":"F3","ticks":364800,"time":206.12,"velocity":0.7874015748031497},{"duration":0.1349999999999909,"durationTicks":240,"midi":65,"name":"F4","ticks":365040,"time":206.25500000000002,"velocity":0.7874015748031497},{"duration":0.1349999999999909,"durationTicks":240,"midi":53,"name":"F3","ticks":365280,"time":206.39000000000001,"velocity":0.7874015748031497},{"duration":0.13500000000001933,"durationTicks":240,"midi":65,"name":"F4","ticks":365520,"time":206.525,"velocity":0.7874015748031497},{"duration":0.1349999999999909,"durationTicks":240,"midi":51,"name":"D#3","ticks":365760,"time":206.66000000000003,"velocity":0.7874015748031497},{"duration":0.1349999999999909,"durationTicks":240,"midi":63,"name":"D#4","ticks":366000,"time":206.79500000000002,"velocity":0.7874015748031497},{"duration":0.13500000000001933,"durationTicks":240,"midi":51,"name":"D#3","ticks":366240,"time":206.93,"velocity":0.7874015748031497},{"duration":0.1349999999999909,"durationTicks":240,"midi":63,"name":"D#4","ticks":366480,"time":207.06500000000003,"velocity":0.7874015748031497},{"duration":0.1349999999999909,"durationTicks":240,"midi":50,"name":"D3","ticks":366720,"time":207.20000000000002,"velocity":0.7874015748031497},{"duration":0.13500000000001933,"durationTicks":240,"midi":62,"name":"D4","ticks":366960,"time":207.335,"velocity":0.7874015748031497},{"duration":0.1349999999999909,"durationTicks":240,"midi":50,"name":"D3","ticks":367200,"time":207.47000000000003,"velocity":0.7874015748031497},{"duration":0.1349999999999909,"durationTicks":240,"midi":62,"name":"D4","ticks":367440,"time":207.60500000000002,"velocity":0.7874015748031497},{"duration":0.1349999999999909,"durationTicks":240,"midi":50,"name":"D3","ticks":367680,"time":207.74,"velocity":0.7874015748031497},{"duration":0.13500000000001933,"durationTicks":240,"midi":62,"name":"D4","ticks":367920,"time":207.875,"velocity":0.7874015748031497},{"duration":0.1349999999999909,"durationTicks":240,"midi":50,"name":"D3","ticks":368160,"time":208.01000000000002,"velocity":0.7874015748031497},{"duration":0.1349999999999909,"durationTicks":240,"midi":62,"name":"D4","ticks":368400,"time":208.145,"velocity":0.7874015748031497},{"duration":0.13500000000001933,"durationTicks":240,"midi":43,"name":"G2","ticks":368640,"time":208.28,"velocity":0.7874015748031497},{"duration":0.1349999999999909,"durationTicks":240,"midi":55,"name":"G3","ticks":368880,"time":208.41500000000002,"velocity":0.7874015748031497},{"duration":0.1349999999999909,"durationTicks":240,"midi":43,"name":"G2","ticks":369120,"time":208.55,"velocity":0.7874015748031497},{"duration":0.13500000000001933,"durationTicks":240,"midi":55,"name":"G3","ticks":369360,"time":208.685,"velocity":0.7874015748031497},{"duration":0.1349999999999909,"durationTicks":240,"midi":43,"name":"G2","ticks":369600,"time":208.82000000000002,"velocity":0.7874015748031497},{"duration":0.1349999999999909,"durationTicks":240,"midi":55,"name":"G3","ticks":369840,"time":208.955,"velocity":0.7874015748031497},{"duration":0.13500000000001933,"durationTicks":240,"midi":43,"name":"G2","ticks":370080,"time":209.09,"velocity":0.7874015748031497},{"duration":0.1349999999999909,"durationTicks":240,"midi":55,"name":"G3","ticks":370320,"time":209.22500000000002,"velocity":0.7874015748031497},{"duration":0.1349999999999909,"durationTicks":240,"midi":51,"name":"D#3","ticks":370560,"time":209.36,"velocity":0.7874015748031497},{"duration":0.13500000000001933,"durationTicks":240,"midi":63,"name":"D#4","ticks":370800,"time":209.495,"velocity":0.7874015748031497},{"duration":0.1349999999999909,"durationTicks":240,"midi":51,"name":"D#3","ticks":371040,"time":209.63000000000002,"velocity":0.7874015748031497},{"duration":0.1349999999999909,"durationTicks":240,"midi":63,"name":"D#4","ticks":371280,"time":209.76500000000001,"velocity":0.7874015748031497},{"duration":0.13500000000001933,"durationTicks":240,"midi":51,"name":"D#3","ticks":371520,"time":209.9,"velocity":0.7874015748031497},{"duration":0.1349999999999909,"durationTicks":240,"midi":63,"name":"D#4","ticks":371760,"time":210.03500000000003,"velocity":0.7874015748031497},{"duration":0.1349999999999909,"durationTicks":240,"midi":51,"name":"D#3","ticks":372000,"time":210.17000000000002,"velocity":0.7874015748031497},{"duration":0.13500000000001933,"durationTicks":240,"midi":63,"name":"D#4","ticks":372240,"time":210.305,"velocity":0.7874015748031497},{"duration":0.1349999999999909,"durationTicks":240,"midi":53,"name":"F3","ticks":372480,"time":210.44000000000003,"velocity":0.7874015748031497},{"duration":0.1349999999999909,"durationTicks":240,"midi":65,"name":"F4","ticks":372720,"time":210.57500000000002,"velocity":0.7874015748031497},{"duration":0.13500000000001933,"durationTicks":240,"midi":53,"name":"F3","ticks":372960,"time":210.71,"velocity":0.7874015748031497},{"duration":0.1349999999999909,"durationTicks":240,"midi":65,"name":"F4","ticks":373200,"time":210.84500000000003,"velocity":0.7874015748031497},{"duration":0.1349999999999909,"durationTicks":240,"midi":51,"name":"D#3","ticks":373440,"time":210.98000000000002,"velocity":0.7874015748031497},{"duration":0.1349999999999909,"durationTicks":240,"midi":63,"name":"D#4","ticks":373680,"time":211.115,"velocity":0.7874015748031497},{"duration":0.13500000000001933,"durationTicks":240,"midi":51,"name":"D#3","ticks":373920,"time":211.25,"velocity":0.7874015748031497},{"duration":0.1349999999999909,"durationTicks":240,"midi":63,"name":"D#4","ticks":374160,"time":211.38500000000002,"velocity":0.7874015748031497},{"duration":0.1349999999999909,"durationTicks":240,"midi":50,"name":"D3","ticks":374400,"time":211.52,"velocity":0.7874015748031497},{"duration":0.13500000000001933,"durationTicks":240,"midi":62,"name":"D4","ticks":374640,"time":211.655,"velocity":0.7874015748031497},{"duration":0.1349999999999909,"durationTicks":240,"midi":50,"name":"D3","ticks":374880,"time":211.79000000000002,"velocity":0.7874015748031497},{"duration":0.1349999999999909,"durationTicks":240,"midi":62,"name":"D4","ticks":375120,"time":211.925,"velocity":0.7874015748031497},{"duration":0.13500000000001933,"durationTicks":240,"midi":54,"name":"F#3","ticks":375360,"time":212.06,"velocity":0.7874015748031497},{"duration":0.1349999999999909,"durationTicks":240,"midi":66,"name":"F#4","ticks":375600,"time":212.19500000000002,"velocity":0.7874015748031497},{"duration":0.1349999999999909,"durationTicks":240,"midi":54,"name":"F#3","ticks":375840,"time":212.33,"velocity":0.7874015748031497},{"duration":0.13500000000001933,"durationTicks":240,"midi":66,"name":"F#4","ticks":376080,"time":212.465,"velocity":0.7874015748031497},{"duration":0.1349999999999909,"durationTicks":240,"midi":55,"name":"G3","ticks":376320,"time":212.60000000000002,"velocity":0.7874015748031497},{"duration":0.1349999999999909,"durationTicks":240,"midi":67,"name":"G4","ticks":376560,"time":212.735,"velocity":0.7874015748031497},{"duration":0.13500000000001933,"durationTicks":240,"midi":55,"name":"G3","ticks":376800,"time":212.87,"velocity":0.7874015748031497},{"duration":0.1349999999999909,"durationTicks":240,"midi":67,"name":"G4","ticks":377040,"time":213.00500000000002,"velocity":0.7874015748031497},{"duration":0.1349999999999909,"durationTicks":240,"midi":53,"name":"F3","ticks":377280,"time":213.14000000000001,"velocity":0.7874015748031497},{"duration":0.13500000000001933,"durationTicks":240,"midi":65,"name":"F4","ticks":377520,"time":213.275,"velocity":0.7874015748031497},{"duration":0.1349999999999909,"durationTicks":240,"midi":53,"name":"F3","ticks":377760,"time":213.41000000000003,"velocity":0.7874015748031497},{"duration":0.1349999999999909,"durationTicks":240,"midi":65,"name":"F4","ticks":378000,"time":213.54500000000002,"velocity":0.7874015748031497},{"duration":0.13500000000001933,"durationTicks":240,"midi":51,"name":"D#3","ticks":378240,"time":213.68,"velocity":0.7874015748031497},{"duration":0.1349999999999909,"durationTicks":240,"midi":63,"name":"D#4","ticks":378480,"time":213.81500000000003,"velocity":0.7874015748031497},{"duration":0.1349999999999909,"durationTicks":240,"midi":51,"name":"D#3","ticks":378720,"time":213.95000000000002,"velocity":0.7874015748031497},{"duration":0.13500000000001933,"durationTicks":240,"midi":63,"name":"D#4","ticks":378960,"time":214.085,"velocity":0.7874015748031497},{"duration":0.1349999999999909,"durationTicks":240,"midi":51,"name":"D#3","ticks":379200,"time":214.22000000000003,"velocity":0.7874015748031497},{"duration":0.1349999999999909,"durationTicks":240,"midi":63,"name":"D#4","ticks":379440,"time":214.35500000000002,"velocity":0.7874015748031497},{"duration":0.1349999999999909,"durationTicks":240,"midi":51,"name":"D#3","ticks":379680,"time":214.49,"velocity":0.7874015748031497},{"duration":0.13500000000001933,"durationTicks":240,"midi":63,"name":"D#4","ticks":379920,"time":214.625,"velocity":0.7874015748031497},{"duration":0.1349999999999909,"durationTicks":240,"midi":52,"name":"E3","ticks":380160,"time":214.76000000000002,"velocity":0.7874015748031497},{"duration":0.1349999999999909,"durationTicks":240,"midi":64,"name":"E4","ticks":380400,"time":214.895,"velocity":0.7874015748031497},{"duration":0.13500000000001933,"durationTicks":240,"midi":52,"name":"E3","ticks":380640,"time":215.03,"velocity":0.7874015748031497},{"duration":0.1349999999999909,"durationTicks":240,"midi":64,"name":"E4","ticks":380880,"time":215.16500000000002,"velocity":0.7874015748031497},{"duration":0.1349999999999909,"durationTicks":240,"midi":48,"name":"C3","ticks":381120,"time":215.3,"velocity":0.7874015748031497},{"duration":0.13500000000001933,"durationTicks":240,"midi":60,"name":"C4","ticks":381360,"time":215.435,"velocity":0.7874015748031497},{"duration":0.1349999999999909,"durationTicks":240,"midi":48,"name":"C3","ticks":381600,"time":215.57000000000002,"velocity":0.7874015748031497},{"duration":0.1349999999999909,"durationTicks":240,"midi":60,"name":"C4","ticks":381840,"time":215.705,"velocity":0.7874015748031497},{"duration":0.13500000000001933,"durationTicks":240,"midi":53,"name":"F3","ticks":382080,"time":215.84,"velocity":0.7874015748031497},{"duration":0.1349999999999909,"durationTicks":240,"midi":65,"name":"F4","ticks":382320,"time":215.97500000000002,"velocity":0.7874015748031497},{"duration":0.1349999999999909,"durationTicks":240,"midi":53,"name":"F3","ticks":382560,"time":216.11,"velocity":0.7874015748031497},{"duration":0.13500000000001933,"durationTicks":240,"midi":65,"name":"F4","ticks":382800,"time":216.245,"velocity":0.7874015748031497},{"duration":0.1349999999999909,"durationTicks":240,"midi":53,"name":"F3","ticks":383040,"time":216.38000000000002,"velocity":0.7874015748031497},{"duration":0.1349999999999909,"durationTicks":240,"midi":65,"name":"F4","ticks":383280,"time":216.51500000000001,"velocity":0.7874015748031497},{"duration":0.13500000000001933,"durationTicks":240,"midi":53,"name":"F3","ticks":383520,"time":216.65,"velocity":0.7874015748031497},{"duration":0.1349999999999909,"durationTicks":240,"midi":65,"name":"F4","ticks":383760,"time":216.78500000000003,"velocity":0.7874015748031497},{"duration":0.1349999999999909,"durationTicks":240,"midi":53,"name":"F3","ticks":384000,"time":216.92000000000002,"velocity":0.7874015748031497},{"duration":0.13500000000001933,"durationTicks":240,"midi":65,"name":"F4","ticks":384240,"time":217.055,"velocity":0.7874015748031497},{"duration":0.1349999999999909,"durationTicks":240,"midi":51,"name":"D#3","ticks":384480,"time":217.19000000000003,"velocity":0.7874015748031497},{"duration":0.1349999999999909,"durationTicks":240,"midi":63,"name":"D#4","ticks":384720,"time":217.32500000000002,"velocity":0.7874015748031497},{"duration":0.13500000000001933,"durationTicks":240,"midi":50,"name":"D3","ticks":384960,"time":217.46,"velocity":0.7874015748031497},{"duration":0.1349999999999909,"durationTicks":240,"midi":62,"name":"D4","ticks":385200,"time":217.59500000000003,"velocity":0.7874015748031497},{"duration":0.1349999999999909,"durationTicks":240,"midi":48,"name":"C3","ticks":385440,"time":217.73000000000002,"velocity":0.7874015748031497},{"duration":0.1349999999999909,"durationTicks":240,"midi":60,"name":"C4","ticks":385680,"time":217.865,"velocity":0.7874015748031497},{"duration":0.13500000000001933,"durationTicks":240,"midi":47,"name":"B2","ticks":385920,"time":218,"velocity":0.7874015748031497},{"duration":0.1349999999999909,"durationTicks":240,"midi":59,"name":"B3","ticks":386160,"time":218.13500000000002,"velocity":0.7874015748031497},{"duration":0.1349999999999909,"durationTicks":240,"midi":47,"name":"B2","ticks":386400,"time":218.27,"velocity":0.7874015748031497},{"duration":0.13500000000001933,"durationTicks":240,"midi":59,"name":"B3","ticks":386640,"time":218.405,"velocity":0.7874015748031497},{"duration":0.1349999999999909,"durationTicks":240,"midi":47,"name":"B2","ticks":386880,"time":218.54000000000002,"velocity":0.7874015748031497},{"duration":0.1349999999999909,"durationTicks":240,"midi":59,"name":"B3","ticks":387120,"time":218.675,"velocity":0.7874015748031497},{"duration":0.13500000000001933,"durationTicks":240,"midi":47,"name":"B2","ticks":387360,"time":218.81,"velocity":0.7874015748031497},{"duration":0.1349999999999909,"durationTicks":240,"midi":59,"name":"B3","ticks":387600,"time":218.94500000000002,"velocity":0.7874015748031497},{"duration":0.1349999999999909,"durationTicks":240,"midi":47,"name":"B2","ticks":387840,"time":219.08,"velocity":0.7874015748031497},{"duration":0.13500000000001933,"durationTicks":240,"midi":59,"name":"B3","ticks":388080,"time":219.215,"velocity":0.7874015748031497},{"duration":0.1349999999999909,"durationTicks":240,"midi":47,"name":"B2","ticks":388320,"time":219.35000000000002,"velocity":0.7874015748031497},{"duration":0.1349999999999909,"durationTicks":240,"midi":59,"name":"B3","ticks":388560,"time":219.485,"velocity":0.7874015748031497},{"duration":0.13500000000001933,"durationTicks":240,"midi":47,"name":"B2","ticks":388800,"time":219.62,"velocity":0.7874015748031497},{"duration":0.1349999999999909,"durationTicks":240,"midi":59,"name":"B3","ticks":389040,"time":219.75500000000002,"velocity":0.7874015748031497},{"duration":0.1349999999999909,"durationTicks":240,"midi":47,"name":"B2","ticks":389280,"time":219.89000000000001,"velocity":0.7874015748031497},{"duration":0.13500000000001933,"durationTicks":240,"midi":59,"name":"B3","ticks":389520,"time":220.025,"velocity":0.7874015748031497},{"duration":0.1349999999999909,"durationTicks":240,"midi":44,"name":"G#2","ticks":389760,"time":220.16000000000003,"velocity":0.7874015748031497},{"duration":0.1349999999999909,"durationTicks":240,"midi":56,"name":"G#3","ticks":390000,"time":220.29500000000002,"velocity":0.7874015748031497},{"duration":0.13500000000001933,"durationTicks":240,"midi":44,"name":"G#2","ticks":390240,"time":220.43,"velocity":0.7874015748031497},{"duration":0.1349999999999909,"durationTicks":240,"midi":56,"name":"G#3","ticks":390480,"time":220.56500000000003,"velocity":0.7874015748031497},{"duration":0.1349999999999909,"durationTicks":240,"midi":44,"name":"G#2","ticks":390720,"time":220.70000000000002,"velocity":0.7874015748031497},{"duration":0.13500000000001933,"durationTicks":240,"midi":56,"name":"G#3","ticks":390960,"time":220.835,"velocity":0.7874015748031497},{"duration":0.1349999999999909,"durationTicks":240,"midi":44,"name":"G#2","ticks":391200,"time":220.97000000000003,"velocity":0.7874015748031497},{"duration":0.1349999999999909,"durationTicks":240,"midi":56,"name":"G#3","ticks":391440,"time":221.10500000000002,"velocity":0.7874015748031497},{"duration":0.13500000000001933,"durationTicks":240,"midi":56,"name":"G#3","ticks":391680,"time":221.24,"velocity":0.7874015748031497},{"duration":0.1349999999999909,"durationTicks":240,"midi":68,"name":"G#4","ticks":391920,"time":221.37500000000003,"velocity":0.7874015748031497},{"duration":0.1349999999999909,"durationTicks":240,"midi":56,"name":"G#3","ticks":392160,"time":221.51000000000002,"velocity":0.7874015748031497},{"duration":0.1349999999999909,"durationTicks":240,"midi":68,"name":"G#4","ticks":392400,"time":221.645,"velocity":0.7874015748031497},{"duration":0.13500000000001933,"durationTicks":240,"midi":54,"name":"F#3","ticks":392640,"time":221.78,"velocity":0.7874015748031497},{"duration":0.1349999999999909,"durationTicks":240,"midi":66,"name":"F#4","ticks":392880,"time":221.91500000000002,"velocity":0.7874015748031497},{"duration":0.1349999999999909,"durationTicks":240,"midi":54,"name":"F#3","ticks":393120,"time":222.05,"velocity":0.7874015748031497},{"duration":0.13500000000001933,"durationTicks":240,"midi":66,"name":"F#4","ticks":393360,"time":222.185,"velocity":0.7874015748031497},{"duration":0.1349999999999909,"durationTicks":240,"midi":52,"name":"E3","ticks":393600,"time":222.32000000000002,"velocity":0.7874015748031497},{"duration":0.1349999999999909,"durationTicks":240,"midi":64,"name":"E4","ticks":393840,"time":222.455,"velocity":0.7874015748031497},{"duration":0.13500000000001933,"durationTicks":240,"midi":52,"name":"E3","ticks":394080,"time":222.59,"velocity":0.7874015748031497},{"duration":0.1349999999999909,"durationTicks":240,"midi":64,"name":"E4","ticks":394320,"time":222.72500000000002,"velocity":0.7874015748031497},{"duration":0.1349999999999909,"durationTicks":240,"midi":52,"name":"E3","ticks":394560,"time":222.86,"velocity":0.7874015748031497},{"duration":0.13500000000001933,"durationTicks":240,"midi":64,"name":"E4","ticks":394800,"time":222.995,"velocity":0.7874015748031497},{"duration":0.1349999999999909,"durationTicks":240,"midi":52,"name":"E3","ticks":395040,"time":223.13000000000002,"velocity":0.7874015748031497},{"duration":0.1349999999999909,"durationTicks":240,"midi":64,"name":"E4","ticks":395280,"time":223.26500000000001,"velocity":0.7874015748031497},{"duration":0.13500000000001933,"durationTicks":240,"midi":54,"name":"F#3","ticks":395520,"time":223.4,"velocity":0.7874015748031497},{"duration":0.1349999999999909,"durationTicks":240,"midi":66,"name":"F#4","ticks":395760,"time":223.53500000000003,"velocity":0.7874015748031497},{"duration":0.1349999999999909,"durationTicks":240,"midi":54,"name":"F#3","ticks":396000,"time":223.67000000000002,"velocity":0.7874015748031497},{"duration":0.13500000000001933,"durationTicks":240,"midi":66,"name":"F#4","ticks":396240,"time":223.805,"velocity":0.7874015748031497},{"duration":0.1349999999999909,"durationTicks":240,"midi":52,"name":"E3","ticks":396480,"time":223.94000000000003,"velocity":0.7874015748031497},{"duration":0.1349999999999909,"durationTicks":240,"midi":64,"name":"E4","ticks":396720,"time":224.07500000000002,"velocity":0.7874015748031497},{"duration":0.13500000000001933,"durationTicks":240,"midi":52,"name":"E3","ticks":396960,"time":224.21,"velocity":0.7874015748031497},{"duration":0.1349999999999909,"durationTicks":240,"midi":64,"name":"E4","ticks":397200,"time":224.34500000000003,"velocity":0.7874015748031497},{"duration":0.1349999999999909,"durationTicks":240,"midi":51,"name":"D#3","ticks":397440,"time":224.48000000000002,"velocity":0.7874015748031497},{"duration":0.13500000000001933,"durationTicks":240,"midi":63,"name":"D#4","ticks":397680,"time":224.615,"velocity":0.7874015748031497},{"duration":0.1349999999999909,"durationTicks":240,"midi":51,"name":"D#3","ticks":397920,"time":224.75000000000003,"velocity":0.7874015748031497},{"duration":0.1349999999999909,"durationTicks":240,"midi":63,"name":"D#4","ticks":398160,"time":224.88500000000002,"velocity":0.7874015748031497},{"duration":0.1349999999999909,"durationTicks":240,"midi":51,"name":"D#3","ticks":398400,"time":225.02,"velocity":0.7874015748031497},{"duration":0.13500000000001933,"durationTicks":240,"midi":63,"name":"D#4","ticks":398640,"time":225.155,"velocity":0.7874015748031497},{"duration":0.1349999999999909,"durationTicks":240,"midi":51,"name":"D#3","ticks":398880,"time":225.29000000000002,"velocity":0.7874015748031497},{"duration":0.1349999999999909,"durationTicks":240,"midi":63,"name":"D#4","ticks":399120,"time":225.425,"velocity":0.7874015748031497},{"duration":0.13500000000001933,"durationTicks":240,"midi":44,"name":"G#2","ticks":399360,"time":225.56,"velocity":0.7874015748031497},{"duration":0.1349999999999909,"durationTicks":240,"midi":56,"name":"G#3","ticks":399600,"time":225.69500000000002,"velocity":0.7874015748031497},{"duration":0.1349999999999909,"durationTicks":240,"midi":44,"name":"G#2","ticks":399840,"time":225.83,"velocity":0.7874015748031497},{"duration":0.13500000000001933,"durationTicks":240,"midi":56,"name":"G#3","ticks":400080,"time":225.965,"velocity":0.7874015748031497},{"duration":0.1349999999999909,"durationTicks":240,"midi":44,"name":"G#2","ticks":400320,"time":226.10000000000002,"velocity":0.7874015748031497},{"duration":0.1349999999999909,"durationTicks":240,"midi":56,"name":"G#3","ticks":400560,"time":226.235,"velocity":0.7874015748031497},{"duration":0.13500000000001933,"durationTicks":240,"midi":44,"name":"G#2","ticks":400800,"time":226.37,"velocity":0.7874015748031497},{"duration":0.1349999999999909,"durationTicks":240,"midi":56,"name":"G#3","ticks":401040,"time":226.50500000000002,"velocity":0.7874015748031497},{"duration":0.1349999999999909,"durationTicks":240,"midi":52,"name":"E3","ticks":401280,"time":226.64000000000001,"velocity":0.7874015748031497},{"duration":0.13500000000001933,"durationTicks":240,"midi":64,"name":"E4","ticks":401520,"time":226.775,"velocity":0.7874015748031497},{"duration":0.1349999999999909,"durationTicks":240,"midi":52,"name":"E3","ticks":401760,"time":226.91000000000003,"velocity":0.7874015748031497},{"duration":0.1349999999999909,"durationTicks":240,"midi":64,"name":"E4","ticks":402000,"time":227.04500000000002,"velocity":0.7874015748031497},{"duration":0.13500000000001933,"durationTicks":240,"midi":52,"name":"E3","ticks":402240,"time":227.18,"velocity":0.7874015748031497},{"duration":0.1349999999999909,"durationTicks":240,"midi":64,"name":"E4","ticks":402480,"time":227.31500000000003,"velocity":0.7874015748031497},{"duration":0.1349999999999909,"durationTicks":240,"midi":52,"name":"E3","ticks":402720,"time":227.45000000000002,"velocity":0.7874015748031497},{"duration":0.13500000000001933,"durationTicks":240,"midi":64,"name":"E4","ticks":402960,"time":227.585,"velocity":0.7874015748031497},{"duration":0.1349999999999909,"durationTicks":240,"midi":54,"name":"F#3","ticks":403200,"time":227.72000000000003,"velocity":0.7874015748031497},{"duration":0.1349999999999909,"durationTicks":240,"midi":66,"name":"F#4","ticks":403440,"time":227.85500000000002,"velocity":0.7874015748031497},{"duration":0.13500000000001933,"durationTicks":240,"midi":54,"name":"F#3","ticks":403680,"time":227.99,"velocity":0.7874015748031497},{"duration":0.1349999999999909,"durationTicks":240,"midi":66,"name":"F#4","ticks":403920,"time":228.12500000000003,"velocity":0.7874015748031497},{"duration":0.1349999999999909,"durationTicks":240,"midi":52,"name":"E3","ticks":404160,"time":228.26000000000002,"velocity":0.7874015748031497},{"duration":0.1349999999999909,"durationTicks":240,"midi":64,"name":"E4","ticks":404400,"time":228.395,"velocity":0.7874015748031497},{"duration":0.13500000000001933,"durationTicks":240,"midi":52,"name":"E3","ticks":404640,"time":228.53,"velocity":0.7874015748031497},{"duration":0.1349999999999909,"durationTicks":240,"midi":64,"name":"E4","ticks":404880,"time":228.66500000000002,"velocity":0.7874015748031497},{"duration":0.1349999999999909,"durationTicks":240,"midi":51,"name":"D#3","ticks":405120,"time":228.8,"velocity":0.7874015748031497},{"duration":0.13500000000001933,"durationTicks":240,"midi":63,"name":"D#4","ticks":405360,"time":228.935,"velocity":0.7874015748031497},{"duration":0.1349999999999909,"durationTicks":240,"midi":51,"name":"D#3","ticks":405600,"time":229.07000000000002,"velocity":0.7874015748031497},{"duration":0.1349999999999909,"durationTicks":240,"midi":63,"name":"D#4","ticks":405840,"time":229.205,"velocity":0.7874015748031497},{"duration":0.13500000000001933,"durationTicks":240,"midi":55,"name":"G3","ticks":406080,"time":229.34,"velocity":0.7874015748031497},{"duration":0.1349999999999909,"durationTicks":240,"midi":67,"name":"G4","ticks":406320,"time":229.47500000000002,"velocity":0.7874015748031497},{"duration":0.1349999999999909,"durationTicks":240,"midi":55,"name":"G3","ticks":406560,"time":229.61,"velocity":0.7874015748031497},{"duration":0.13500000000001933,"durationTicks":240,"midi":67,"name":"G4","ticks":406800,"time":229.745,"velocity":0.7874015748031497},{"duration":0.1349999999999909,"durationTicks":240,"midi":56,"name":"G#3","ticks":407040,"time":229.88000000000002,"velocity":0.7874015748031497},{"duration":0.1349999999999909,"durationTicks":240,"midi":68,"name":"G#4","ticks":407280,"time":230.01500000000001,"velocity":0.7874015748031497},{"duration":0.13500000000001933,"durationTicks":240,"midi":56,"name":"G#3","ticks":407520,"time":230.15,"velocity":0.7874015748031497},{"duration":0.1349999999999909,"durationTicks":240,"midi":68,"name":"G#4","ticks":407760,"time":230.28500000000003,"velocity":0.7874015748031497},{"duration":0.1349999999999909,"durationTicks":240,"midi":54,"name":"F#3","ticks":408000,"time":230.42000000000002,"velocity":0.7874015748031497},{"duration":0.13500000000001933,"durationTicks":240,"midi":66,"name":"F#4","ticks":408240,"time":230.555,"velocity":0.7874015748031497},{"duration":0.1349999999999909,"durationTicks":240,"midi":54,"name":"F#3","ticks":408480,"time":230.69000000000003,"velocity":0.7874015748031497},{"duration":0.1349999999999909,"durationTicks":240,"midi":66,"name":"F#4","ticks":408720,"time":230.82500000000002,"velocity":0.7874015748031497},{"duration":0.13500000000001933,"durationTicks":240,"midi":52,"name":"E3","ticks":408960,"time":230.96,"velocity":0.7874015748031497},{"duration":0.1349999999999909,"durationTicks":240,"midi":64,"name":"E4","ticks":409200,"time":231.09500000000003,"velocity":0.7874015748031497},{"duration":0.1349999999999909,"durationTicks":240,"midi":52,"name":"E3","ticks":409440,"time":231.23000000000002,"velocity":0.7874015748031497},{"duration":0.13500000000001933,"durationTicks":240,"midi":64,"name":"E4","ticks":409680,"time":231.365,"velocity":0.7874015748031497},{"duration":0.1349999999999909,"durationTicks":240,"midi":52,"name":"E3","ticks":409920,"time":231.50000000000003,"velocity":0.7874015748031497},{"duration":0.1349999999999909,"durationTicks":240,"midi":64,"name":"E4","ticks":410160,"time":231.63500000000002,"velocity":0.7874015748031497},{"duration":0.1349999999999909,"durationTicks":240,"midi":52,"name":"E3","ticks":410400,"time":231.77,"velocity":0.7874015748031497},{"duration":0.13500000000001933,"durationTicks":240,"midi":64,"name":"E4","ticks":410640,"time":231.905,"velocity":0.7874015748031497},{"duration":0.1349999999999909,"durationTicks":240,"midi":53,"name":"F3","ticks":410880,"time":232.04000000000002,"velocity":0.7874015748031497},{"duration":0.1349999999999909,"durationTicks":240,"midi":65,"name":"F4","ticks":411120,"time":232.175,"velocity":0.7874015748031497},{"duration":0.13500000000001933,"durationTicks":240,"midi":53,"name":"F3","ticks":411360,"time":232.31,"velocity":0.7874015748031497},{"duration":0.1349999999999909,"durationTicks":240,"midi":65,"name":"F4","ticks":411600,"time":232.44500000000002,"velocity":0.7874015748031497},{"duration":0.1349999999999909,"durationTicks":240,"midi":49,"name":"C#3","ticks":411840,"time":232.58,"velocity":0.7874015748031497},{"duration":0.13500000000001933,"durationTicks":240,"midi":61,"name":"C#4","ticks":412080,"time":232.715,"velocity":0.7874015748031497},{"duration":0.1349999999999909,"durationTicks":240,"midi":49,"name":"C#3","ticks":412320,"time":232.85000000000002,"velocity":0.7874015748031497},{"duration":0.1349999999999909,"durationTicks":240,"midi":61,"name":"C#4","ticks":412560,"time":232.985,"velocity":0.7874015748031497},{"duration":0.13500000000001933,"durationTicks":240,"midi":54,"name":"F#3","ticks":412800,"time":233.12,"velocity":0.7874015748031497},{"duration":0.1349999999999909,"durationTicks":240,"midi":66,"name":"F#4","ticks":413040,"time":233.25500000000002,"velocity":0.7874015748031497},{"duration":0.1349999999999909,"durationTicks":240,"midi":54,"name":"F#3","ticks":413280,"time":233.39000000000001,"velocity":0.7874015748031497},{"duration":0.13500000000001933,"durationTicks":240,"midi":66,"name":"F#4","ticks":413520,"time":233.525,"velocity":0.7874015748031497},{"duration":0.1349999999999909,"durationTicks":240,"midi":54,"name":"F#3","ticks":413760,"time":233.66000000000003,"velocity":0.7874015748031497},{"duration":0.1349999999999909,"durationTicks":240,"midi":66,"name":"F#4","ticks":414000,"time":233.79500000000002,"velocity":0.7874015748031497},{"duration":0.13500000000001933,"durationTicks":240,"midi":54,"name":"F#3","ticks":414240,"time":233.93,"velocity":0.7874015748031497},{"duration":0.1349999999999909,"durationTicks":240,"midi":66,"name":"F#4","ticks":414480,"time":234.06500000000003,"velocity":0.7874015748031497},{"duration":0.1349999999999909,"durationTicks":240,"midi":54,"name":"F#3","ticks":414720,"time":234.20000000000002,"velocity":0.7874015748031497},{"duration":0.13500000000001933,"durationTicks":240,"midi":66,"name":"F#4","ticks":414960,"time":234.335,"velocity":0.7874015748031497},{"duration":0.1349999999999909,"durationTicks":240,"midi":52,"name":"E3","ticks":415200,"time":234.47000000000003,"velocity":0.7874015748031497},{"duration":0.1349999999999909,"durationTicks":240,"midi":64,"name":"E4","ticks":415440,"time":234.60500000000002,"velocity":0.7874015748031497},{"duration":0.13500000000001933,"durationTicks":240,"midi":51,"name":"D#3","ticks":415680,"time":234.74,"velocity":0.7874015748031497},{"duration":0.1349999999999909,"durationTicks":240,"midi":63,"name":"D#4","ticks":415920,"time":234.87500000000003,"velocity":0.7874015748031497},{"duration":0.1349999999999909,"durationTicks":240,"midi":49,"name":"C#3","ticks":416160,"time":235.01000000000002,"velocity":0.7874015748031497},{"duration":0.13500000000001933,"durationTicks":240,"midi":61,"name":"C#4","ticks":416400,"time":235.145,"velocity":0.7874015748031497},{"duration":0.1349999999999909,"durationTicks":240,"midi":49,"name":"C#3","ticks":416640,"time":235.28000000000003,"velocity":0.7874015748031497},{"duration":0.1349999999999909,"durationTicks":240,"midi":61,"name":"C#4","ticks":416880,"time":235.41500000000002,"velocity":0.7874015748031497},{"duration":0.1349999999999909,"durationTicks":240,"midi":49,"name":"C#3","ticks":417120,"time":235.55,"velocity":0.7874015748031497},{"duration":0.13500000000001933,"durationTicks":240,"midi":61,"name":"C#4","ticks":417360,"time":235.685,"velocity":0.7874015748031497},{"duration":0.1349999999999909,"durationTicks":240,"midi":49,"name":"C#3","ticks":417600,"time":235.82000000000002,"velocity":0.7874015748031497},{"duration":0.1349999999999909,"durationTicks":240,"midi":61,"name":"C#4","ticks":417840,"time":235.955,"velocity":0.7874015748031497},{"duration":0.13500000000001933,"durationTicks":240,"midi":49,"name":"C#3","ticks":418080,"time":236.09,"velocity":0.7874015748031497},{"duration":0.1349999999999909,"durationTicks":240,"midi":61,"name":"C#4","ticks":418320,"time":236.22500000000002,"velocity":0.7874015748031497},{"duration":0.1349999999999909,"durationTicks":240,"midi":49,"name":"C#3","ticks":418560,"time":236.36,"velocity":0.7874015748031497},{"duration":0.13500000000001933,"durationTicks":240,"midi":61,"name":"C#4","ticks":418800,"time":236.495,"velocity":0.7874015748031497},{"duration":0.1349999999999909,"durationTicks":240,"midi":49,"name":"C#3","ticks":419040,"time":236.63000000000002,"velocity":0.7874015748031497},{"duration":0.1349999999999909,"durationTicks":240,"midi":61,"name":"C#4","ticks":419280,"time":236.76500000000001,"velocity":0.7874015748031497},{"duration":0.13500000000001933,"durationTicks":240,"midi":49,"name":"C#3","ticks":419520,"time":236.9,"velocity":0.7874015748031497},{"duration":0.1349999999999909,"durationTicks":240,"midi":61,"name":"C#4","ticks":419760,"time":237.03500000000003,"velocity":0.7874015748031497},{"duration":0.1349999999999909,"durationTicks":240,"midi":49,"name":"C#3","ticks":420000,"time":237.17000000000002,"velocity":0.7874015748031497},{"duration":0.13500000000001933,"durationTicks":240,"midi":61,"name":"C#4","ticks":420240,"time":237.305,"velocity":0.7874015748031497},{"duration":0.1349999999999909,"durationTicks":240,"midi":46,"name":"A#2","ticks":420480,"time":237.44000000000003,"velocity":0.7874015748031497},{"duration":0.1349999999999909,"durationTicks":240,"midi":58,"name":"A#3","ticks":420720,"time":237.57500000000002,"velocity":0.7874015748031497},{"duration":0.13500000000001933,"durationTicks":240,"midi":46,"name":"A#2","ticks":420960,"time":237.71,"velocity":0.7874015748031497},{"duration":0.1349999999999909,"durationTicks":240,"midi":58,"name":"A#3","ticks":421200,"time":237.84500000000003,"velocity":0.7874015748031497},{"duration":0.1349999999999909,"durationTicks":240,"midi":46,"name":"A#2","ticks":421440,"time":237.98000000000002,"velocity":0.7874015748031497},{"duration":0.13500000000001933,"durationTicks":240,"midi":58,"name":"A#3","ticks":421680,"time":238.115,"velocity":0.7874015748031497},{"duration":0.1349999999999909,"durationTicks":240,"midi":46,"name":"A#2","ticks":421920,"time":238.25000000000003,"velocity":0.7874015748031497},{"duration":0.1349999999999909,"durationTicks":240,"midi":58,"name":"A#3","ticks":422160,"time":238.38500000000002,"velocity":0.7874015748031497},{"duration":0.13500000000001933,"durationTicks":240,"midi":58,"name":"A#3","ticks":422400,"time":238.52,"velocity":0.7874015748031497},{"duration":0.1349999999999909,"durationTicks":240,"midi":70,"name":"A#4","ticks":422640,"time":238.65500000000003,"velocity":0.7874015748031497},{"duration":0.1349999999999909,"durationTicks":240,"midi":58,"name":"A#3","ticks":422880,"time":238.79000000000002,"velocity":0.7874015748031497},{"duration":0.1349999999999909,"durationTicks":240,"midi":70,"name":"A#4","ticks":423120,"time":238.925,"velocity":0.7874015748031497},{"duration":0.13500000000001933,"durationTicks":240,"midi":56,"name":"G#3","ticks":423360,"time":239.06,"velocity":0.7874015748031497},{"duration":0.1349999999999909,"durationTicks":240,"midi":68,"name":"G#4","ticks":423600,"time":239.19500000000002,"velocity":0.7874015748031497},{"duration":0.1349999999999909,"durationTicks":240,"midi":56,"name":"G#3","ticks":423840,"time":239.33,"velocity":0.7874015748031497},{"duration":0.13500000000001933,"durationTicks":240,"midi":68,"name":"G#4","ticks":424080,"time":239.465,"velocity":0.7874015748031497},{"duration":0.1349999999999909,"durationTicks":240,"midi":54,"name":"F#3","ticks":424320,"time":239.60000000000002,"velocity":0.7874015748031497},{"duration":0.1349999999999909,"durationTicks":240,"midi":66,"name":"F#4","ticks":424560,"time":239.735,"velocity":0.7874015748031497},{"duration":0.13500000000001933,"durationTicks":240,"midi":54,"name":"F#3","ticks":424800,"time":239.87,"velocity":0.7874015748031497},{"duration":0.1349999999999909,"durationTicks":240,"midi":66,"name":"F#4","ticks":425040,"time":240.00500000000002,"velocity":0.7874015748031497},{"duration":0.1349999999999909,"durationTicks":240,"midi":54,"name":"F#3","ticks":425280,"time":240.14000000000001,"velocity":0.7874015748031497},{"duration":0.13500000000001933,"durationTicks":240,"midi":66,"name":"F#4","ticks":425520,"time":240.275,"velocity":0.7874015748031497},{"duration":0.1349999999999909,"durationTicks":240,"midi":54,"name":"F#3","ticks":425760,"time":240.41000000000003,"velocity":0.7874015748031497},{"duration":0.1349999999999909,"durationTicks":240,"midi":66,"name":"F#4","ticks":426000,"time":240.54500000000002,"velocity":0.7874015748031497},{"duration":0.13500000000001933,"durationTicks":240,"midi":56,"name":"G#3","ticks":426240,"time":240.68,"velocity":0.7874015748031497},{"duration":0.1349999999999909,"durationTicks":240,"midi":68,"name":"G#4","ticks":426480,"time":240.81500000000003,"velocity":0.7874015748031497},{"duration":0.1349999999999909,"durationTicks":240,"midi":56,"name":"G#3","ticks":426720,"time":240.95000000000002,"velocity":0.7874015748031497},{"duration":0.13500000000001933,"durationTicks":240,"midi":68,"name":"G#4","ticks":426960,"time":241.085,"velocity":0.7874015748031497},{"duration":0.1349999999999909,"durationTicks":240,"midi":54,"name":"F#3","ticks":427200,"time":241.22000000000003,"velocity":0.7874015748031497},{"duration":0.1349999999999909,"durationTicks":240,"midi":66,"name":"F#4","ticks":427440,"time":241.35500000000002,"velocity":0.7874015748031497},{"duration":0.13500000000001933,"durationTicks":240,"midi":54,"name":"F#3","ticks":427680,"time":241.49,"velocity":0.7874015748031497},{"duration":0.1349999999999909,"durationTicks":240,"midi":66,"name":"F#4","ticks":427920,"time":241.62500000000003,"velocity":0.7874015748031497},{"duration":0.1349999999999909,"durationTicks":240,"midi":53,"name":"F3","ticks":428160,"time":241.76000000000002,"velocity":0.7874015748031497},{"duration":0.13500000000001933,"durationTicks":240,"midi":65,"name":"F4","ticks":428400,"time":241.895,"velocity":0.7874015748031497},{"duration":0.1349999999999909,"durationTicks":240,"midi":53,"name":"F3","ticks":428640,"time":242.03000000000003,"velocity":0.7874015748031497},{"duration":0.1349999999999909,"durationTicks":240,"midi":65,"name":"F4","ticks":428880,"time":242.16500000000002,"velocity":0.7874015748031497},{"duration":0.1349999999999909,"durationTicks":240,"midi":53,"name":"F3","ticks":429120,"time":242.3,"velocity":0.7874015748031497},{"duration":0.13500000000001933,"durationTicks":240,"midi":65,"name":"F4","ticks":429360,"time":242.435,"velocity":0.7874015748031497},{"duration":0.1349999999999909,"durationTicks":240,"midi":53,"name":"F3","ticks":429600,"time":242.57000000000002,"velocity":0.7874015748031497},{"duration":0.1349999999999909,"durationTicks":240,"midi":65,"name":"F4","ticks":429840,"time":242.705,"velocity":0.7874015748031497},{"duration":0.13500000000001933,"durationTicks":240,"midi":46,"name":"A#2","ticks":430080,"time":242.84,"velocity":0.7874015748031497},{"duration":0.1349999999999909,"durationTicks":240,"midi":58,"name":"A#3","ticks":430320,"time":242.97500000000002,"velocity":0.7874015748031497},{"duration":0.1349999999999909,"durationTicks":240,"midi":46,"name":"A#2","ticks":430560,"time":243.11,"velocity":0.7874015748031497},{"duration":0.13500000000001933,"durationTicks":240,"midi":58,"name":"A#3","ticks":430800,"time":243.245,"velocity":0.7874015748031497},{"duration":0.1349999999999909,"durationTicks":240,"midi":46,"name":"A#2","ticks":431040,"time":243.38000000000002,"velocity":0.7874015748031497},{"duration":0.1349999999999909,"durationTicks":240,"midi":58,"name":"A#3","ticks":431280,"time":243.51500000000001,"velocity":0.7874015748031497},{"duration":0.13500000000001933,"durationTicks":240,"midi":46,"name":"A#2","ticks":431520,"time":243.65,"velocity":0.7874015748031497},{"duration":0.1349999999999909,"durationTicks":240,"midi":58,"name":"A#3","ticks":431760,"time":243.78500000000003,"velocity":0.7874015748031497},{"duration":0.1349999999999909,"durationTicks":240,"midi":54,"name":"F#3","ticks":432000,"time":243.92000000000002,"velocity":0.7874015748031497},{"duration":0.13500000000001933,"durationTicks":240,"midi":66,"name":"F#4","ticks":432240,"time":244.055,"velocity":0.7874015748031497},{"duration":0.1349999999999909,"durationTicks":240,"midi":54,"name":"F#3","ticks":432480,"time":244.19000000000003,"velocity":0.7874015748031497},{"duration":0.1349999999999909,"durationTicks":240,"midi":66,"name":"F#4","ticks":432720,"time":244.32500000000002,"velocity":0.7874015748031497},{"duration":0.13500000000001933,"durationTicks":240,"midi":54,"name":"F#3","ticks":432960,"time":244.46,"velocity":0.7874015748031497},{"duration":0.1349999999999909,"durationTicks":240,"midi":66,"name":"F#4","ticks":433200,"time":244.59500000000003,"velocity":0.7874015748031497},{"duration":0.1349999999999909,"durationTicks":240,"midi":54,"name":"F#3","ticks":433440,"time":244.73000000000002,"velocity":0.7874015748031497},{"duration":0.13500000000001933,"durationTicks":240,"midi":66,"name":"F#4","ticks":433680,"time":244.865,"velocity":0.7874015748031497},{"duration":0.1349999999999909,"durationTicks":240,"midi":56,"name":"G#3","ticks":433920,"time":245.00000000000003,"velocity":0.7874015748031497},{"duration":0.1349999999999909,"durationTicks":240,"midi":68,"name":"G#4","ticks":434160,"time":245.13500000000002,"velocity":0.7874015748031497},{"duration":0.13500000000001933,"durationTicks":240,"midi":56,"name":"G#3","ticks":434400,"time":245.27,"velocity":0.7874015748031497},{"duration":0.1349999999999909,"durationTicks":240,"midi":68,"name":"G#4","ticks":434640,"time":245.40500000000003,"velocity":0.7874015748031497},{"duration":0.1349999999999909,"durationTicks":240,"midi":54,"name":"F#3","ticks":434880,"time":245.54000000000002,"velocity":0.7874015748031497},{"duration":0.1349999999999909,"durationTicks":240,"midi":66,"name":"F#4","ticks":435120,"time":245.675,"velocity":0.7874015748031497},{"duration":0.13500000000001933,"durationTicks":240,"midi":54,"name":"F#3","ticks":435360,"time":245.81,"velocity":0.7874015748031497},{"duration":0.1349999999999909,"durationTicks":240,"midi":66,"name":"F#4","ticks":435600,"time":245.94500000000002,"velocity":0.7874015748031497},{"duration":0.1349999999999909,"durationTicks":240,"midi":53,"name":"F3","ticks":435840,"time":246.08,"velocity":0.7874015748031497},{"duration":0.13500000000001933,"durationTicks":240,"midi":65,"name":"F4","ticks":436080,"time":246.215,"velocity":0.7874015748031497},{"duration":0.1349999999999909,"durationTicks":240,"midi":53,"name":"F3","ticks":436320,"time":246.35000000000002,"velocity":0.7874015748031497},{"duration":0.1349999999999909,"durationTicks":240,"midi":65,"name":"F4","ticks":436560,"time":246.485,"velocity":0.7874015748031497},{"duration":0.13500000000001933,"durationTicks":240,"midi":57,"name":"A3","ticks":436800,"time":246.62,"velocity":0.7874015748031497},{"duration":0.1349999999999909,"durationTicks":240,"midi":69,"name":"A4","ticks":437040,"time":246.75500000000002,"velocity":0.7874015748031497},{"duration":0.1349999999999909,"durationTicks":240,"midi":57,"name":"A3","ticks":437280,"time":246.89000000000001,"velocity":0.7874015748031497},{"duration":0.13500000000001933,"durationTicks":240,"midi":69,"name":"A4","ticks":437520,"time":247.025,"velocity":0.7874015748031497},{"duration":0.1349999999999909,"durationTicks":240,"midi":58,"name":"A#3","ticks":437760,"time":247.16000000000003,"velocity":0.7874015748031497},{"duration":0.1349999999999909,"durationTicks":240,"midi":70,"name":"A#4","ticks":438000,"time":247.29500000000002,"velocity":0.7874015748031497},{"duration":0.13500000000001933,"durationTicks":240,"midi":58,"name":"A#3","ticks":438240,"time":247.43,"velocity":0.7874015748031497},{"duration":0.1349999999999909,"durationTicks":240,"midi":70,"name":"A#4","ticks":438480,"time":247.56500000000003,"velocity":0.7874015748031497},{"duration":0.1349999999999909,"durationTicks":240,"midi":56,"name":"G#3","ticks":438720,"time":247.70000000000002,"velocity":0.7874015748031497},{"duration":0.13500000000001933,"durationTicks":240,"midi":68,"name":"G#4","ticks":438960,"time":247.835,"velocity":0.7874015748031497},{"duration":0.1349999999999909,"durationTicks":240,"midi":56,"name":"G#3","ticks":439200,"time":247.97000000000003,"velocity":0.7874015748031497},{"duration":0.1349999999999909,"durationTicks":240,"midi":68,"name":"G#4","ticks":439440,"time":248.10500000000002,"velocity":0.7874015748031497},{"duration":0.13500000000001933,"durationTicks":240,"midi":54,"name":"F#3","ticks":439680,"time":248.24,"velocity":0.7874015748031497},{"duration":0.1349999999999909,"durationTicks":240,"midi":66,"name":"F#4","ticks":439920,"time":248.37500000000003,"velocity":0.7874015748031497},{"duration":0.1349999999999909,"durationTicks":240,"midi":54,"name":"F#3","ticks":440160,"time":248.51000000000002,"velocity":0.7874015748031497},{"duration":0.13500000000001933,"durationTicks":240,"midi":66,"name":"F#4","ticks":440400,"time":248.645,"velocity":0.7874015748031497},{"duration":0.1349999999999909,"durationTicks":240,"midi":54,"name":"F#3","ticks":440640,"time":248.78000000000003,"velocity":0.7874015748031497},{"duration":0.1349999999999909,"durationTicks":240,"midi":66,"name":"F#4","ticks":440880,"time":248.91500000000002,"velocity":0.7874015748031497},{"duration":0.1349999999999909,"durationTicks":240,"midi":54,"name":"F#3","ticks":441120,"time":249.05,"velocity":0.7874015748031497},{"duration":0.13500000000001933,"durationTicks":240,"midi":66,"name":"F#4","ticks":441360,"time":249.185,"velocity":0.7874015748031497},{"duration":0.1349999999999909,"durationTicks":240,"midi":55,"name":"G3","ticks":441600,"time":249.32000000000002,"velocity":0.7874015748031497},{"duration":0.1349999999999909,"durationTicks":240,"midi":67,"name":"G4","ticks":441840,"time":249.455,"velocity":0.7874015748031497},{"duration":0.13500000000001933,"durationTicks":240,"midi":55,"name":"G3","ticks":442080,"time":249.59,"velocity":0.7874015748031497},{"duration":0.1349999999999909,"durationTicks":240,"midi":67,"name":"G4","ticks":442320,"time":249.72500000000002,"velocity":0.7874015748031497},{"duration":0.1349999999999909,"durationTicks":240,"midi":51,"name":"D#3","ticks":442560,"time":249.86,"velocity":0.7874015748031497},{"duration":0.13500000000001933,"durationTicks":240,"midi":63,"name":"D#4","ticks":442800,"time":249.995,"velocity":0.7874015748031497},{"duration":0.1349999999999909,"durationTicks":240,"midi":51,"name":"D#3","ticks":443040,"time":250.13000000000002,"velocity":0.7874015748031497},{"duration":0.1349999999999909,"durationTicks":240,"midi":63,"name":"D#4","ticks":443280,"time":250.26500000000001,"velocity":0.7874015748031497},{"duration":0.13500000000001933,"durationTicks":240,"midi":56,"name":"G#3","ticks":443520,"time":250.4,"velocity":0.7874015748031497},{"duration":0.1349999999999909,"durationTicks":240,"midi":68,"name":"G#4","ticks":443760,"time":250.53500000000003,"velocity":0.7874015748031497},{"duration":0.1349999999999909,"durationTicks":240,"midi":56,"name":"G#3","ticks":444000,"time":250.67000000000002,"velocity":0.7874015748031497},{"duration":0.13500000000001933,"durationTicks":240,"midi":68,"name":"G#4","ticks":444240,"time":250.805,"velocity":0.7874015748031497},{"duration":0.1349999999999909,"durationTicks":240,"midi":56,"name":"G#3","ticks":444480,"time":250.94000000000003,"velocity":0.7874015748031497},{"duration":0.1349999999999909,"durationTicks":240,"midi":68,"name":"G#4","ticks":444720,"time":251.07500000000002,"velocity":0.7874015748031497},{"duration":0.13500000000001933,"durationTicks":240,"midi":56,"name":"G#3","ticks":444960,"time":251.21,"velocity":0.7874015748031497},{"duration":0.1349999999999909,"durationTicks":240,"midi":68,"name":"G#4","ticks":445200,"time":251.34500000000003,"velocity":0.7874015748031497},{"duration":0.1349999999999909,"durationTicks":240,"midi":56,"name":"G#3","ticks":445440,"time":251.48000000000002,"velocity":0.7874015748031497},{"duration":0.13500000000001933,"durationTicks":240,"midi":68,"name":"G#4","ticks":445680,"time":251.615,"velocity":0.7874015748031497},{"duration":0.1349999999999909,"durationTicks":240,"midi":54,"name":"F#3","ticks":445920,"time":251.75000000000003,"velocity":0.7874015748031497},{"duration":0.1349999999999909,"durationTicks":240,"midi":66,"name":"F#4","ticks":446160,"time":251.88500000000002,"velocity":0.7874015748031497},{"duration":0.13500000000001933,"durationTicks":240,"midi":53,"name":"F3","ticks":446400,"time":252.02,"velocity":0.7874015748031497},{"duration":0.1349999999999909,"durationTicks":240,"midi":65,"name":"F4","ticks":446640,"time":252.15500000000003,"velocity":0.7874015748031497},{"duration":0.1349999999999909,"durationTicks":240,"midi":51,"name":"D#3","ticks":446880,"time":252.29000000000002,"velocity":0.7874015748031497},{"duration":0.1349999999999909,"durationTicks":240,"midi":63,"name":"D#4","ticks":447120,"time":252.425,"velocity":0.7874015748031497},{"duration":0.13500000000001933,"durationTicks":240,"midi":44,"name":"G#2","ticks":447360,"time":252.56,"velocity":0.7874015748031497},{"duration":0.1349999999999909,"durationTicks":240,"midi":56,"name":"G#3","ticks":447600,"time":252.69500000000002,"velocity":0.7874015748031497},{"duration":0.1349999999999909,"durationTicks":240,"midi":44,"name":"G#2","ticks":447840,"time":252.83,"velocity":0.7874015748031497},{"duration":0.13500000000001933,"durationTicks":240,"midi":56,"name":"G#3","ticks":448080,"time":252.965,"velocity":0.7874015748031497},{"duration":0.1349999999999909,"durationTicks":240,"midi":44,"name":"G#2","ticks":448320,"time":253.10000000000002,"velocity":0.7874015748031497},{"duration":0.1349999999999909,"durationTicks":240,"midi":56,"name":"G#3","ticks":448560,"time":253.235,"velocity":0.7874015748031497},{"duration":0.13500000000001933,"durationTicks":240,"midi":44,"name":"G#2","ticks":448800,"time":253.37,"velocity":0.7874015748031497},{"duration":0.1349999999999909,"durationTicks":240,"midi":56,"name":"G#3","ticks":449040,"time":253.50500000000002,"velocity":0.7874015748031497},{"duration":0.1349999999999909,"durationTicks":240,"midi":44,"name":"G#2","ticks":449280,"time":253.64000000000001,"velocity":0.7874015748031497},{"duration":0.13500000000001933,"durationTicks":240,"midi":56,"name":"G#3","ticks":449520,"time":253.775,"velocity":0.7874015748031497},{"duration":0.1349999999999909,"durationTicks":240,"midi":44,"name":"G#2","ticks":449760,"time":253.91000000000003,"velocity":0.7874015748031497},{"duration":0.1349999999999909,"durationTicks":240,"midi":56,"name":"G#3","ticks":450000,"time":254.04500000000002,"velocity":0.7874015748031497},{"duration":0.13500000000001933,"durationTicks":240,"midi":44,"name":"G#2","ticks":450240,"time":254.18,"velocity":0.7874015748031497},{"duration":0.1349999999999909,"durationTicks":240,"midi":56,"name":"G#3","ticks":450480,"time":254.31500000000003,"velocity":0.7874015748031497},{"duration":0.1349999999999909,"durationTicks":240,"midi":44,"name":"G#2","ticks":450720,"time":254.45000000000002,"velocity":0.7874015748031497},{"duration":0.13500000000001933,"durationTicks":240,"midi":56,"name":"G#3","ticks":450960,"time":254.585,"velocity":0.7874015748031497},{"duration":0.1349999999999909,"durationTicks":240,"midi":44,"name":"G#2","ticks":451200,"time":254.72000000000003,"velocity":0.7874015748031497},{"duration":0.1349999999999909,"durationTicks":240,"midi":56,"name":"G#3","ticks":451440,"time":254.85500000000002,"velocity":0.7874015748031497},{"duration":0.13500000000001933,"durationTicks":240,"midi":44,"name":"G#2","ticks":451680,"time":254.99,"velocity":0.7874015748031497},{"duration":0.1349999999999909,"durationTicks":240,"midi":56,"name":"G#3","ticks":451920,"time":255.12500000000003,"velocity":0.7874015748031497},{"duration":0.1349999999999909,"durationTicks":240,"midi":44,"name":"G#2","ticks":452160,"time":255.26000000000002,"velocity":0.7874015748031497},{"duration":0.13500000000001933,"durationTicks":240,"midi":56,"name":"G#3","ticks":452400,"time":255.395,"velocity":0.7874015748031497},{"duration":0.1349999999999909,"durationTicks":240,"midi":44,"name":"G#2","ticks":452640,"time":255.53000000000003,"velocity":0.7874015748031497},{"duration":0.1349999999999909,"durationTicks":240,"midi":56,"name":"G#3","ticks":452880,"time":255.66500000000002,"velocity":0.7874015748031497},{"duration":0.13500000000001933,"durationTicks":240,"midi":44,"name":"G#2","ticks":453120,"time":255.8,"velocity":0.7874015748031497},{"duration":0.13500000000001933,"durationTicks":240,"midi":56,"name":"G#3","ticks":453360,"time":255.93500000000003,"velocity":0.7874015748031497},{"duration":0.1349999999999909,"durationTicks":240,"midi":44,"name":"G#2","ticks":453600,"time":256.07000000000005,"velocity":0.7874015748031497},{"duration":0.1349999999999909,"durationTicks":240,"midi":56,"name":"G#3","ticks":453840,"time":256.20500000000004,"velocity":0.7874015748031497},{"duration":0.1349999999999909,"durationTicks":240,"midi":44,"name":"G#2","ticks":454080,"time":256.34000000000003,"velocity":0.7874015748031497},{"duration":0.1349999999999909,"durationTicks":240,"midi":56,"name":"G#3","ticks":454320,"time":256.475,"velocity":0.7874015748031497},{"duration":0.1349999999999909,"durationTicks":240,"midi":44,"name":"G#2","ticks":454560,"time":256.61,"velocity":0.7874015748031497},{"duration":0.1349999999999909,"durationTicks":240,"midi":56,"name":"G#3","ticks":454800,"time":256.745,"velocity":0.7874015748031497},{"duration":4.32000000000005,"durationTicks":7680,"midi":61,"name":"C#4","ticks":455040,"time":256.88,"velocity":0.7874015748031497},{"duration":4.32000000000005,"durationTicks":7680,"midi":49,"name":"C#3","ticks":455040,"time":256.88,"velocity":0.7874015748031497}],"endOfTrackTicks":462720},{"channel":0,"controlChanges":{"0":[{"number":0,"ticks":120,"time":0.125,"value":0}],"1":[{"number":1,"ticks":350,"time":0.3645833333333333,"value":0}],"6":[{"number":6,"ticks":360,"time":0.375,"value":0.09448818897637795}],"7":[{"number":7,"ticks":250,"time":0.2604166666666667,"value":0.7874015748031497}],"10":[{"number":10,"ticks":240,"time":0.25,"value":0.5039370078740157}],"11":[{"number":11,"ticks":340,"time":0.3541666666666667,"value":1}],"32":[{"number":32,"ticks":120,"time":0.125,"value":0}],"64":[{"number":64,"ticks":0,"time":0,"value":0}],"70":[{"number":70,"ticks":310,"time":0.3229166666666667,"value":0.5039370078740157}],"72":[{"number":72,"ticks":330,"time":0.34375,"value":0.5039370078740157}],"73":[{"number":73,"ticks":290,"time":0.3020833333333333,"value":0.5039370078740157}],"74":[{"number":74,"ticks":280,"time":0.2916666666666667,"value":0.5039370078740157}],"75":[{"number":75,"ticks":300,"time":0.3125,"value":0.5039370078740157}],"76":[{"number":76,"ticks":320,"time":0.3333333333333333,"value":0.5039370078740157}],"91":[{"number":91,"ticks":260,"time":0.2708333333333333,"value":0}],"93":[{"number":93,"ticks":270,"time":0.28125,"value":0}],"100":[{"number":100,"ticks":360,"time":0.375,"value":0},{"number":100,"ticks":380,"time":0.3958333333333333,"value":1}],"101":[{"number":101,"ticks":360,"time":0.375,"value":0},{"number":101,"ticks":380,"time":0.3958333333333333,"value":1}],"123":[{"number":123,"ticks":60,"time":0.0625,"value":0}]},"pitchBends":[{"ticks":370,"time":0.3854166666666667,"value":0}],"instrument":{"family":"piano","number":0,"name":"acoustic grand piano"},"name":"","notes":[],"endOfTrackTicks":1920},{"channel":0,"controlChanges":{"0":[{"number":0,"ticks":120,"time":0.125,"value":0}],"1":[{"number":1,"ticks":350,"time":0.3645833333333333,"value":0}],"6":[{"number":6,"ticks":360,"time":0.375,"value":0.09448818897637795}],"7":[{"number":7,"ticks":250,"time":0.2604166666666667,"value":0.7874015748031497}],"10":[{"number":10,"ticks":240,"time":0.25,"value":0.5039370078740157}],"11":[{"number":11,"ticks":340,"time":0.3541666666666667,"value":1}],"32":[{"number":32,"ticks":120,"time":0.125,"value":0}],"64":[{"number":64,"ticks":0,"time":0,"value":0}],"70":[{"number":70,"ticks":310,"time":0.3229166666666667,"value":0.5039370078740157}],"72":[{"number":72,"ticks":330,"time":0.34375,"value":0.5039370078740157}],"73":[{"number":73,"ticks":290,"time":0.3020833333333333,"value":0.5039370078740157}],"74":[{"number":74,"ticks":280,"time":0.2916666666666667,"value":0.5039370078740157}],"75":[{"number":75,"ticks":300,"time":0.3125,"value":0.5039370078740157}],"76":[{"number":76,"ticks":320,"time":0.3333333333333333,"value":0.5039370078740157}],"91":[{"number":91,"ticks":260,"time":0.2708333333333333,"value":0}],"93":[{"number":93,"ticks":270,"time":0.28125,"value":0}],"100":[{"number":100,"ticks":360,"time":0.375,"value":0},{"number":100,"ticks":380,"time":0.3958333333333333,"value":1}],"101":[{"number":101,"ticks":360,"time":0.375,"value":0},{"number":101,"ticks":380,"time":0.3958333333333333,"value":1}],"123":[{"number":123,"ticks":60,"time":0.0625,"value":0}]},"pitchBends":[{"ticks":370,"time":0.3854166666666667,"value":0}],"instrument":{"family":"piano","number":0,"name":"acoustic grand piano"},"name":"","notes":[],"endOfTrackTicks":1920},{"channel":0,"controlChanges":{"0":[{"number":0,"ticks":120,"time":0.125,"value":0}],"1":[{"number":1,"ticks":350,"time":0.3645833333333333,"value":0}],"6":[{"number":6,"ticks":360,"time":0.375,"value":0.09448818897637795}],"7":[{"number":7,"ticks":250,"time":0.2604166666666667,"value":0.7874015748031497}],"10":[{"number":10,"ticks":240,"time":0.25,"value":0.5039370078740157}],"11":[{"number":11,"ticks":340,"time":0.3541666666666667,"value":1}],"32":[{"number":32,"ticks":120,"time":0.125,"value":0}],"64":[{"number":64,"ticks":0,"time":0,"value":0}],"70":[{"number":70,"ticks":310,"time":0.3229166666666667,"value":0.5039370078740157}],"72":[{"number":72,"ticks":330,"time":0.34375,"value":0.5039370078740157}],"73":[{"number":73,"ticks":290,"time":0.3020833333333333,"value":0.5039370078740157}],"74":[{"number":74,"ticks":280,"time":0.2916666666666667,"value":0.5039370078740157}],"75":[{"number":75,"ticks":300,"time":0.3125,"value":0.5039370078740157}],"76":[{"number":76,"ticks":320,"time":0.3333333333333333,"value":0.5039370078740157}],"91":[{"number":91,"ticks":260,"time":0.2708333333333333,"value":0}],"93":[{"number":93,"ticks":270,"time":0.28125,"value":0}],"100":[{"number":100,"ticks":360,"time":0.375,"value":0},{"number":100,"ticks":380,"time":0.3958333333333333,"value":1}],"101":[{"number":101,"ticks":360,"time":0.375,"value":0},{"number":101,"ticks":380,"time":0.3958333333333333,"value":1}],"123":[{"number":123,"ticks":60,"time":0.0625,"value":0}]},"pitchBends":[{"ticks":370,"time":0.3854166666666667,"value":0}],"instrument":{"family":"piano","number":0,"name":"acoustic grand piano"},"name":"","notes":[],"endOfTrackTicks":1920},{"channel":0,"controlChanges":{"0":[{"number":0,"ticks":120,"time":0.125,"value":0}],"1":[{"number":1,"ticks":350,"time":0.3645833333333333,"value":0}],"6":[{"number":6,"ticks":360,"time":0.375,"value":0.09448818897637795}],"7":[{"number":7,"ticks":250,"time":0.2604166666666667,"value":0.7874015748031497}],"10":[{"number":10,"ticks":240,"time":0.25,"value":0.5039370078740157}],"11":[{"number":11,"ticks":340,"time":0.3541666666666667,"value":1}],"32":[{"number":32,"ticks":120,"time":0.125,"value":0}],"64":[{"number":64,"ticks":0,"time":0,"value":0}],"70":[{"number":70,"ticks":310,"time":0.3229166666666667,"value":0.5039370078740157}],"72":[{"number":72,"ticks":330,"time":0.34375,"value":0.5039370078740157}],"73":[{"number":73,"ticks":290,"time":0.3020833333333333,"value":0.5039370078740157}],"74":[{"number":74,"ticks":280,"time":0.2916666666666667,"value":0.5039370078740157}],"75":[{"number":75,"ticks":300,"time":0.3125,"value":0.5039370078740157}],"76":[{"number":76,"ticks":320,"time":0.3333333333333333,"value":0.5039370078740157}],"91":[{"number":91,"ticks":260,"time":0.2708333333333333,"value":0}],"93":[{"number":93,"ticks":270,"time":0.28125,"value":0}],"100":[{"number":100,"ticks":360,"time":0.375,"value":0},{"number":100,"ticks":380,"time":0.3958333333333333,"value":1}],"101":[{"number":101,"ticks":360,"time":0.375,"value":0},{"number":101,"ticks":380,"time":0.3958333333333333,"value":1}],"123":[{"number":123,"ticks":60,"time":0.0625,"value":0}]},"pitchBends":[{"ticks":370,"time":0.3854166666666667,"value":0}],"instrument":{"family":"piano","number":0,"name":"acoustic grand piano"},"name":"","notes":[],"endOfTrackTicks":1920},{"channel":0,"controlChanges":{"0":[{"number":0,"ticks":120,"time":0.125,"value":0}],"1":[{"number":1,"ticks":350,"time":0.3645833333333333,"value":0}],"6":[{"number":6,"ticks":360,"time":0.375,"value":0.09448818897637795}],"7":[{"number":7,"ticks":250,"time":0.2604166666666667,"value":0.7874015748031497}],"10":[{"number":10,"ticks":240,"time":0.25,"value":0.5039370078740157}],"11":[{"number":11,"ticks":340,"time":0.3541666666666667,"value":1}],"32":[{"number":32,"ticks":120,"time":0.125,"value":0}],"64":[{"number":64,"ticks":0,"time":0,"value":0}],"70":[{"number":70,"ticks":310,"time":0.3229166666666667,"value":0.5039370078740157}],"72":[{"number":72,"ticks":330,"time":0.34375,"value":0.5039370078740157}],"73":[{"number":73,"ticks":290,"time":0.3020833333333333,"value":0.5039370078740157}],"74":[{"number":74,"ticks":280,"time":0.2916666666666667,"value":0.5039370078740157}],"75":[{"number":75,"ticks":300,"time":0.3125,"value":0.5039370078740157}],"76":[{"number":76,"ticks":320,"time":0.3333333333333333,"value":0.5039370078740157}],"91":[{"number":91,"ticks":260,"time":0.2708333333333333,"value":0}],"93":[{"number":93,"ticks":270,"time":0.28125,"value":0}],"100":[{"number":100,"ticks":360,"time":0.375,"value":0},{"number":100,"ticks":380,"time":0.3958333333333333,"value":1}],"101":[{"number":101,"ticks":360,"time":0.375,"value":0},{"number":101,"ticks":380,"time":0.3958333333333333,"value":1}],"123":[{"number":123,"ticks":60,"time":0.0625,"value":0}]},"pitchBends":[{"ticks":370,"time":0.3854166666666667,"value":0}],"instrument":{"family":"piano","number":0,"name":"acoustic grand piano"},"name":"","notes":[],"endOfTrackTicks":1920},{"channel":0,"controlChanges":{"0":[{"number":0,"ticks":120,"time":0.125,"value":0}],"1":[{"number":1,"ticks":350,"time":0.3645833333333333,"value":0}],"6":[{"number":6,"ticks":360,"time":0.375,"value":0.09448818897637795}],"7":[{"number":7,"ticks":250,"time":0.2604166666666667,"value":0.7874015748031497}],"10":[{"number":10,"ticks":240,"time":0.25,"value":0.5039370078740157}],"11":[{"number":11,"ticks":340,"time":0.3541666666666667,"value":1}],"32":[{"number":32,"ticks":120,"time":0.125,"value":0}],"64":[{"number":64,"ticks":0,"time":0,"value":0}],"70":[{"number":70,"ticks":310,"time":0.3229166666666667,"value":0.5039370078740157}],"72":[{"number":72,"ticks":330,"time":0.34375,"value":0.5039370078740157}],"73":[{"number":73,"ticks":290,"time":0.3020833333333333,"value":0.5039370078740157}],"74":[{"number":74,"ticks":280,"time":0.2916666666666667,"value":0.5039370078740157}],"75":[{"number":75,"ticks":300,"time":0.3125,"value":0.5039370078740157}],"76":[{"number":76,"ticks":320,"time":0.3333333333333333,"value":0.5039370078740157}],"91":[{"number":91,"ticks":260,"time":0.2708333333333333,"value":0}],"93":[{"number":93,"ticks":270,"time":0.28125,"value":0}],"100":[{"number":100,"ticks":360,"time":0.375,"value":0},{"number":100,"ticks":380,"time":0.3958333333333333,"value":1}],"101":[{"number":101,"ticks":360,"time":0.375,"value":0},{"number":101,"ticks":380,"time":0.3958333333333333,"value":1}],"123":[{"number":123,"ticks":60,"time":0.0625,"value":0}]},"pitchBends":[{"ticks":370,"time":0.3854166666666667,"value":0}],"instrument":{"family":"piano","number":0,"name":"acoustic grand piano"},"name":"","notes":[],"endOfTrackTicks":1920},{"channel":0,"controlChanges":{"0":[{"number":0,"ticks":120,"time":0.125,"value":0}],"1":[{"number":1,"ticks":350,"time":0.3645833333333333,"value":0}],"6":[{"number":6,"ticks":360,"time":0.375,"value":0.09448818897637795}],"7":[{"number":7,"ticks":250,"time":0.2604166666666667,"value":0.7874015748031497}],"10":[{"number":10,"ticks":240,"time":0.25,"value":0.5039370078740157}],"11":[{"number":11,"ticks":340,"time":0.3541666666666667,"value":1}],"32":[{"number":32,"ticks":120,"time":0.125,"value":0}],"64":[{"number":64,"ticks":0,"time":0,"value":0}],"70":[{"number":70,"ticks":310,"time":0.3229166666666667,"value":0.5039370078740157}],"72":[{"number":72,"ticks":330,"time":0.34375,"value":0.5039370078740157}],"73":[{"number":73,"ticks":290,"time":0.3020833333333333,"value":0.5039370078740157}],"74":[{"number":74,"ticks":280,"time":0.2916666666666667,"value":0.5039370078740157}],"75":[{"number":75,"ticks":300,"time":0.3125,"value":0.5039370078740157}],"76":[{"number":76,"ticks":320,"time":0.3333333333333333,"value":0.5039370078740157}],"91":[{"number":91,"ticks":260,"time":0.2708333333333333,"value":0}],"93":[{"number":93,"ticks":270,"time":0.28125,"value":0}],"100":[{"number":100,"ticks":360,"time":0.375,"value":0},{"number":100,"ticks":380,"time":0.3958333333333333,"value":1}],"101":[{"number":101,"ticks":360,"time":0.375,"value":0},{"number":101,"ticks":380,"time":0.3958333333333333,"value":1}],"123":[{"number":123,"ticks":60,"time":0.0625,"value":0}]},"pitchBends":[{"ticks":370,"time":0.3854166666666667,"value":0}],"instrument":{"family":"piano","number":0,"name":"acoustic grand piano"},"name":"","notes":[],"endOfTrackTicks":1920},{"channel":0,"controlChanges":{"1":[{"number":1,"ticks":350,"time":0.3645833333333333,"value":0}],"6":[{"number":6,"ticks":360,"time":0.375,"value":0.09448818897637795}],"7":[{"number":7,"ticks":250,"time":0.2604166666666667,"value":0.7874015748031497}],"10":[{"number":10,"ticks":240,"time":0.25,"value":0.5039370078740157}],"11":[{"number":11,"ticks":340,"time":0.3541666666666667,"value":1}],"32":[{"number":32,"ticks":120,"time":0.125,"value":1}],"64":[{"number":64,"ticks":0,"time":0,"value":0}],"70":[{"number":70,"ticks":310,"time":0.3229166666666667,"value":0.5039370078740157}],"72":[{"number":72,"ticks":330,"time":0.34375,"value":0.5039370078740157}],"73":[{"number":73,"ticks":290,"time":0.3020833333333333,"value":0.5039370078740157}],"74":[{"number":74,"ticks":280,"time":0.2916666666666667,"value":0.5039370078740157}],"75":[{"number":75,"ticks":300,"time":0.3125,"value":0.5039370078740157}],"76":[{"number":76,"ticks":320,"time":0.3333333333333333,"value":0.5039370078740157}],"91":[{"number":91,"ticks":260,"time":0.2708333333333333,"value":0}],"93":[{"number":93,"ticks":270,"time":0.28125,"value":0}],"100":[{"number":100,"ticks":360,"time":0.375,"value":0},{"number":100,"ticks":380,"time":0.3958333333333333,"value":1}],"101":[{"number":101,"ticks":360,"time":0.375,"value":0},{"number":101,"ticks":380,"time":0.3958333333333333,"value":1}],"123":[{"number":123,"ticks":60,"time":0.0625,"value":0}]},"pitchBends":[{"ticks":370,"time":0.3854166666666667,"value":0}],"instrument":{"family":"piano","number":0,"name":"acoustic grand piano"},"name":"","notes":[],"endOfTrackTicks":1920},{"channel":0,"controlChanges":{"0":[{"number":0,"ticks":120,"time":0.125,"value":0}],"1":[{"number":1,"ticks":350,"time":0.3645833333333333,"value":0}],"6":[{"number":6,"ticks":360,"time":0.375,"value":0.09448818897637795}],"7":[{"number":7,"ticks":250,"time":0.2604166666666667,"value":0.7874015748031497}],"10":[{"number":10,"ticks":240,"time":0.25,"value":0.5039370078740157}],"11":[{"number":11,"ticks":340,"time":0.3541666666666667,"value":1}],"32":[{"number":32,"ticks":120,"time":0.125,"value":0}],"64":[{"number":64,"ticks":0,"time":0,"value":0}],"70":[{"number":70,"ticks":310,"time":0.3229166666666667,"value":0.5039370078740157}],"72":[{"number":72,"ticks":330,"time":0.34375,"value":0.5039370078740157}],"73":[{"number":73,"ticks":290,"time":0.3020833333333333,"value":0.5039370078740157}],"74":[{"number":74,"ticks":280,"time":0.2916666666666667,"value":0.5039370078740157}],"75":[{"number":75,"ticks":300,"time":0.3125,"value":0.5039370078740157}],"76":[{"number":76,"ticks":320,"time":0.3333333333333333,"value":0.5039370078740157}],"91":[{"number":91,"ticks":260,"time":0.2708333333333333,"value":0}],"93":[{"number":93,"ticks":270,"time":0.28125,"value":0}],"100":[{"number":100,"ticks":360,"time":0.375,"value":0},{"number":100,"ticks":380,"time":0.3958333333333333,"value":1}],"101":[{"number":101,"ticks":360,"time":0.375,"value":0},{"number":101,"ticks":380,"time":0.3958333333333333,"value":1}],"123":[{"number":123,"ticks":60,"time":0.0625,"value":0}]},"pitchBends":[{"ticks":370,"time":0.3854166666666667,"value":0}],"instrument":{"family":"piano","number":0,"name":"acoustic grand piano"},"name":"","notes":[],"endOfTrackTicks":1920},{"channel":0,"controlChanges":{"0":[{"number":0,"ticks":120,"time":0.125,"value":0}],"1":[{"number":1,"ticks":350,"time":0.3645833333333333,"value":0}],"6":[{"number":6,"ticks":360,"time":0.375,"value":0.09448818897637795}],"7":[{"number":7,"ticks":250,"time":0.2604166666666667,"value":0.7874015748031497}],"10":[{"number":10,"ticks":240,"time":0.25,"value":0.5039370078740157}],"11":[{"number":11,"ticks":340,"time":0.3541666666666667,"value":1}],"32":[{"number":32,"ticks":120,"time":0.125,"value":0}],"64":[{"number":64,"ticks":0,"time":0,"value":0}],"70":[{"number":70,"ticks":310,"time":0.3229166666666667,"value":0.5039370078740157}],"72":[{"number":72,"ticks":330,"time":0.34375,"value":0.5039370078740157}],"73":[{"number":73,"ticks":290,"time":0.3020833333333333,"value":0.5039370078740157}],"74":[{"number":74,"ticks":280,"time":0.2916666666666667,"value":0.5039370078740157}],"75":[{"number":75,"ticks":300,"time":0.3125,"value":0.5039370078740157}],"76":[{"number":76,"ticks":320,"time":0.3333333333333333,"value":0.5039370078740157}],"91":[{"number":91,"ticks":260,"time":0.2708333333333333,"value":0}],"93":[{"number":93,"ticks":270,"time":0.28125,"value":0}],"100":[{"number":100,"ticks":360,"time":0.375,"value":0},{"number":100,"ticks":380,"time":0.3958333333333333,"value":1}],"101":[{"number":101,"ticks":360,"time":0.375,"value":0},{"number":101,"ticks":380,"time":0.3958333333333333,"value":1}],"123":[{"number":123,"ticks":60,"time":0.0625,"value":0}]},"pitchBends":[{"ticks":370,"time":0.3854166666666667,"value":0}],"instrument":{"family":"piano","number":0,"name":"acoustic grand piano"},"name":"","notes":[],"endOfTrackTicks":1920},{"channel":0,"controlChanges":{"0":[{"number":0,"ticks":120,"time":0.125,"value":0}],"1":[{"number":1,"ticks":350,"time":0.3645833333333333,"value":0}],"6":[{"number":6,"ticks":360,"time":0.375,"value":0.09448818897637795}],"7":[{"number":7,"ticks":250,"time":0.2604166666666667,"value":0.7874015748031497}],"10":[{"number":10,"ticks":240,"time":0.25,"value":0.5039370078740157}],"11":[{"number":11,"ticks":340,"time":0.3541666666666667,"value":1}],"32":[{"number":32,"ticks":120,"time":0.125,"value":0}],"64":[{"number":64,"ticks":0,"time":0,"value":0}],"70":[{"number":70,"ticks":310,"time":0.3229166666666667,"value":0.5039370078740157}],"72":[{"number":72,"ticks":330,"time":0.34375,"value":0.5039370078740157}],"73":[{"number":73,"ticks":290,"time":0.3020833333333333,"value":0.5039370078740157}],"74":[{"number":74,"ticks":280,"time":0.2916666666666667,"value":0.5039370078740157}],"75":[{"number":75,"ticks":300,"time":0.3125,"value":0.5039370078740157}],"76":[{"number":76,"ticks":320,"time":0.3333333333333333,"value":0.5039370078740157}],"91":[{"number":91,"ticks":260,"time":0.2708333333333333,"value":0}],"93":[{"number":93,"ticks":270,"time":0.28125,"value":0}],"100":[{"number":100,"ticks":360,"time":0.375,"value":0},{"number":100,"ticks":380,"time":0.3958333333333333,"value":1}],"101":[{"number":101,"ticks":360,"time":0.375,"value":0},{"number":101,"ticks":380,"time":0.3958333333333333,"value":1}],"123":[{"number":123,"ticks":60,"time":0.0625,"value":0}]},"pitchBends":[{"ticks":370,"time":0.3854166666666667,"value":0}],"instrument":{"family":"piano","number":0,"name":"acoustic grand piano"},"name":"","notes":[],"endOfTrackTicks":1920},{"channel":0,"controlChanges":{"0":[{"number":0,"ticks":120,"time":0.125,"value":0}],"1":[{"number":1,"ticks":350,"time":0.3645833333333333,"value":0}],"6":[{"number":6,"ticks":360,"time":0.375,"value":0.09448818897637795}],"7":[{"number":7,"ticks":250,"time":0.2604166666666667,"value":0.7874015748031497}],"10":[{"number":10,"ticks":240,"time":0.25,"value":0.5039370078740157}],"11":[{"number":11,"ticks":340,"time":0.3541666666666667,"value":1}],"32":[{"number":32,"ticks":120,"time":0.125,"value":0}],"64":[{"number":64,"ticks":0,"time":0,"value":0}],"70":[{"number":70,"ticks":310,"time":0.3229166666666667,"value":0.5039370078740157}],"72":[{"number":72,"ticks":330,"time":0.34375,"value":0.5039370078740157}],"73":[{"number":73,"ticks":290,"time":0.3020833333333333,"value":0.5039370078740157}],"74":[{"number":74,"ticks":280,"time":0.2916666666666667,"value":0.5039370078740157}],"75":[{"number":75,"ticks":300,"time":0.3125,"value":0.5039370078740157}],"76":[{"number":76,"ticks":320,"time":0.3333333333333333,"value":0.5039370078740157}],"91":[{"number":91,"ticks":260,"time":0.2708333333333333,"value":0}],"93":[{"number":93,"ticks":270,"time":0.28125,"value":0}],"100":[{"number":100,"ticks":360,"time":0.375,"value":0},{"number":100,"ticks":380,"time":0.3958333333333333,"value":1}],"101":[{"number":101,"ticks":360,"time":0.375,"value":0},{"number":101,"ticks":380,"time":0.3958333333333333,"value":1}],"123":[{"number":123,"ticks":60,"time":0.0625,"value":0}]},"pitchBends":[{"ticks":370,"time":0.3854166666666667,"value":0}],"instrument":{"family":"piano","number":0,"name":"acoustic grand piano"},"name":"","notes":[],"endOfTrackTicks":1920},{"channel":0,"controlChanges":{"0":[{"number":0,"ticks":120,"time":0.125,"value":0}],"1":[{"number":1,"ticks":350,"time":0.3645833333333333,"value":0}],"6":[{"number":6,"ticks":360,"time":0.375,"value":0.09448818897637795}],"7":[{"number":7,"ticks":250,"time":0.2604166666666667,"value":0.7874015748031497}],"10":[{"number":10,"ticks":240,"time":0.25,"value":0.5039370078740157}],"11":[{"number":11,"ticks":340,"time":0.3541666666666667,"value":1}],"32":[{"number":32,"ticks":120,"time":0.125,"value":0}],"64":[{"number":64,"ticks":0,"time":0,"value":0}],"70":[{"number":70,"ticks":310,"time":0.3229166666666667,"value":0.5039370078740157}],"72":[{"number":72,"ticks":330,"time":0.34375,"value":0.5039370078740157}],"73":[{"number":73,"ticks":290,"time":0.3020833333333333,"value":0.5039370078740157}],"74":[{"number":74,"ticks":280,"time":0.2916666666666667,"value":0.5039370078740157}],"75":[{"number":75,"ticks":300,"time":0.3125,"value":0.5039370078740157}],"76":[{"number":76,"ticks":320,"time":0.3333333333333333,"value":0.5039370078740157}],"91":[{"number":91,"ticks":260,"time":0.2708333333333333,"value":0}],"93":[{"number":93,"ticks":270,"time":0.28125,"value":0}],"100":[{"number":100,"ticks":360,"time":0.375,"value":0},{"number":100,"ticks":380,"time":0.3958333333333333,"value":1}],"101":[{"number":101,"ticks":360,"time":0.375,"value":0},{"number":101,"ticks":380,"time":0.3958333333333333,"value":1}],"123":[{"number":123,"ticks":60,"time":0.0625,"value":0}]},"pitchBends":[{"ticks":370,"time":0.3854166666666667,"value":0}],"instrument":{"family":"piano","number":0,"name":"acoustic grand piano"},"name":"","notes":[],"endOfTrackTicks":1920},{"channel":0,"controlChanges":{"0":[{"number":0,"ticks":120,"time":0.125,"value":0}],"1":[{"number":1,"ticks":350,"time":0.3645833333333333,"value":0}],"6":[{"number":6,"ticks":360,"time":0.375,"value":0.09448818897637795}],"7":[{"number":7,"ticks":250,"time":0.2604166666666667,"value":0.7874015748031497}],"10":[{"number":10,"ticks":240,"time":0.25,"value":0.5039370078740157}],"11":[{"number":11,"ticks":340,"time":0.3541666666666667,"value":1}],"32":[{"number":32,"ticks":120,"time":0.125,"value":0}],"64":[{"number":64,"ticks":0,"time":0,"value":0}],"70":[{"number":70,"ticks":310,"time":0.3229166666666667,"value":0.5039370078740157}],"72":[{"number":72,"ticks":330,"time":0.34375,"value":0.5039370078740157}],"73":[{"number":73,"ticks":290,"time":0.3020833333333333,"value":0.5039370078740157}],"74":[{"number":74,"ticks":280,"time":0.2916666666666667,"value":0.5039370078740157}],"75":[{"number":75,"ticks":300,"time":0.3125,"value":0.5039370078740157}],"76":[{"number":76,"ticks":320,"time":0.3333333333333333,"value":0.5039370078740157}],"91":[{"number":91,"ticks":260,"time":0.2708333333333333,"value":0}],"93":[{"number":93,"ticks":270,"time":0.28125,"value":0}],"100":[{"number":100,"ticks":360,"time":0.375,"value":0},{"number":100,"ticks":380,"time":0.3958333333333333,"value":1}],"101":[{"number":101,"ticks":360,"time":0.375,"value":0},{"number":101,"ticks":380,"time":0.3958333333333333,"value":1}],"123":[{"number":123,"ticks":60,"time":0.0625,"value":0}]},"pitchBends":[{"ticks":370,"time":0.3854166666666667,"value":0}],"instrument":{"family":"piano","number":0,"name":"acoustic grand piano"},"name":"","notes":[],"endOfTrackTicks":1920}]}
