{
  "header": {
    "keySignatures": [
      {
        "key": "E",
        "scale": "major",
        "ticks": 0
      },
      {
        "key": "Db",
        "scale": "major",
        "ticks": 251280
      },
      {
        "key": "E",
        "scale": "major",
        "ticks": 289680
      },
      {
        "key": "F",
        "scale": "major",
        "ticks": 299280
      },
      {
        "key": "E",
        "scale": "major",
        "ticks": 0
      },
      {
        "key": "Db",
        "scale": "major",
        "ticks": 251280
      },
      {
        "key": "E",
        "scale": "major",
        "ticks": 289680
      },
      {
        "key": "F",
        "scale": "major",
        "ticks": 299280
      }
    ],
    "meta": [],
    "name": "Piano\u0000",
    "ppq": 480,
    "tempos": [
      {
        "bpm": 220.00022000022,
        "ticks": 0
      },
      {
        "bpm": 109.99990833340972,
        "ticks": 140160
      },
      {
        "bpm": 220.00022000022,
        "ticks": 155760
      }
    ],
    "timeSignatures": [
      {
        "ticks": 0,
        "timeSignature": [
          4,
          4
        ],
        "measures": 0
      },
      {
        "ticks": 155520,
        "timeSignature": [
          1,
          8
        ],
        "measures": 81
      },
      {
        "ticks": 155760,
        "timeSignature": [
          4,
          4
        ],
        "measures": 81.25
      },
      {
        "ticks": 192240,
        "timeSignature": [
          3,
          4
        ],
        "measures": 100.25
      },
      {
        "ticks": 193680,
        "timeSignature": [
          4,
          4
        ],
        "measures": 101.25
      }
    ]
  },
  "tracks": [
    {
      "channel": 0,
      "controlChanges": {
        "7": [
          {
            "number": 7,
            "ticks": 0,
            "time": 0,
            "value": 0.7874015748031497
          }
        ],
        "10": [
          {
            "number": 10,
            "ticks": 0,
            "time": 0,
            "value": 0.5039370078740157
          }
        ],
        "91": [
          {
            "number": 91,
            "ticks": 0,
            "time": 0,
            "value": 0
          }
        ],
        "93": [
          {
            "number": 93,
            "ticks": 0,
            "time": 0,
            "value": 0
          }
        ],
        "121": [
          {
            "number": 121,
            "ticks": 0,
            "time": 0,
            "value": 0
          }
        ]
      },
      "pitchBends": [],
      "instrument": {
        "family": "piano",
        "number": 0,
        "name": "acoustic grand piano"
      },
      "name": "Piano\u0000",
      "notes": [
        {
          "duration": 0.12215896875,
          "durationTicks": 215,
          "midi": 61,
          "name": "C#4",
          "ticks": 0,
          "time": 0,
          "velocity": 0.7559055118110236
        },
        {
          "duration": 0.12215896875,
          "durationTicks": 215,
          "midi": 64,
          "name": "E4",
          "ticks": 0,
          "time": 0,
          "velocity": 0.7559055118110236
        },
        {
          "duration": 0.12215896875,
          "durationTicks": 215,
          "midi": 69,
          "name": "A4",
          "ticks": 0,
          "time": 0,
          "velocity": 0.7559055118110236
        },
        {
          "duration": 0.12215896875000001,
          "durationTicks": 215,
          "midi": 61,
          "name": "C#4",
          "ticks": 240,
          "time": 0.1363635,
          "velocity": 0.7559055118110236
        },
        {
          "duration": 0.12215896875000001,
          "durationTicks": 215,
          "midi": 64,
          "name": "E4",
          "ticks": 240,
          "time": 0.1363635,
          "velocity": 0.7559055118110236
        },
        {
          "duration": 0.12215896875000001,
          "durationTicks": 215,
          "midi": 69,
          "name": "A4",
          "ticks": 240,
          "time": 0.1363635,
          "velocity": 0.7559055118110236
        },
        {
          "duration": 0.12215896875000004,
          "durationTicks": 215,
          "midi": 61,
          "name": "C#4",
          "ticks": 480,
          "time": 0.272727,
          "velocity": 0.7559055118110236
        },
        {
          "duration": 0.12215896875000004,
          "durationTicks": 215,
          "midi": 64,
          "name": "E4",
          "ticks": 480,
          "time": 0.272727,
          "velocity": 0.7559055118110236
        },
        {
          "duration": 0.12215896875000004,
          "durationTicks": 215,
          "midi": 69,
          "name": "A4",
          "ticks": 480,
          "time": 0.272727,
          "velocity": 0.7559055118110236
        },
        {
          "duration": 0.12215896874999999,
          "durationTicks": 215,
          "midi": 61,
          "name": "C#4",
          "ticks": 720,
          "time": 0.4090905,
          "velocity": 0.7559055118110236
        },
        {
          "duration": 0.12215896874999999,
          "durationTicks": 215,
          "midi": 64,
          "name": "E4",
          "ticks": 720,
          "time": 0.4090905,
          "velocity": 0.7559055118110236
        },
        {
          "duration": 0.12215896874999999,
          "durationTicks": 215,
          "midi": 69,
          "name": "A4",
          "ticks": 720,
          "time": 0.4090905,
          "velocity": 0.7559055118110236
        },
        {
          "duration": 0.12215896874999999,
          "durationTicks": 215,
          "midi": 61,
          "name": "C#4",
          "ticks": 960,
          "time": 0.545454,
          "velocity": 0.7559055118110236
        },
        {
          "duration": 0.12215896874999999,
          "durationTicks": 215,
          "midi": 64,
          "name": "E4",
          "ticks": 960,
          "time": 0.545454,
          "velocity": 0.7559055118110236
        },
        {
          "duration": 0.12215896874999999,
          "durationTicks": 215,
          "midi": 69,
          "name": "A4",
          "ticks": 960,
          "time": 0.545454,
          "velocity": 0.7559055118110236
        },
        {
          "duration": 0.12215896874999999,
          "durationTicks": 215,
          "midi": 61,
          "name": "C#4",
          "ticks": 1200,
          "time": 0.6818175,
          "velocity": 0.7559055118110236
        },
        {
          "duration": 0.12215896874999999,
          "durationTicks": 215,
          "midi": 64,
          "name": "E4",
          "ticks": 1200,
          "time": 0.6818175,
          "velocity": 0.7559055118110236
        },
        {
          "duration": 0.12215896874999999,
          "durationTicks": 215,
          "midi": 69,
          "name": "A4",
          "ticks": 1200,
          "time": 0.6818175,
          "velocity": 0.7559055118110236
        },
        {
          "duration": 0.12215896874999987,
          "durationTicks": 215,
          "midi": 61,
          "name": "C#4",
          "ticks": 1440,
          "time": 0.818181,
          "velocity": 0.7559055118110236
        },
        {
          "duration": 0.12215896874999987,
          "durationTicks": 215,
          "midi": 64,
          "name": "E4",
          "ticks": 1440,
          "time": 0.818181,
          "velocity": 0.7559055118110236
        },
        {
          "duration": 0.12215896874999987,
          "durationTicks": 215,
          "midi": 69,
          "name": "A4",
          "ticks": 1440,
          "time": 0.818181,
          "velocity": 0.7559055118110236
        },
        {
          "duration": 0.12215896874999987,
          "durationTicks": 215,
          "midi": 61,
          "name": "C#4",
          "ticks": 1680,
          "time": 0.9545445,
          "velocity": 0.7559055118110236
        },
        {
          "duration": 0.12215896874999987,
          "durationTicks": 215,
          "midi": 64,
          "name": "E4",
          "ticks": 1680,
          "time": 0.9545445,
          "velocity": 0.7559055118110236
        },
        {
          "duration": 0.12215896874999987,
          "durationTicks": 215,
          "midi": 69,
          "name": "A4",
          "ticks": 1680,
          "time": 0.9545445,
          "velocity": 0.7559055118110236
        },
        {
          "duration": 0.12897714375000002,
          "durationTicks": 227,
          "midi": 57,
          "name": "A3",
          "ticks": 1920,
          "time": 1.090908,
          "velocity": 0.7559055118110236
        },
        {
          "duration": 0.12897714375000002,
          "durationTicks": 227,
          "midi": 60,
          "name": "C4",
          "ticks": 1920,
          "time": 1.090908,
          "velocity": 0.7559055118110236
        },
        {
          "duration": 0.12897714375000002,
          "durationTicks": 227,
          "midi": 63,
          "name": "D#4",
          "ticks": 1920,
          "time": 1.090908,
          "velocity": 0.7559055118110236
        },
        {
          "duration": 0.12897714375000002,
          "durationTicks": 227,
          "midi": 66,
          "name": "F#4",
          "ticks": 1920,
          "time": 1.090908,
          "velocity": 0.7559055118110236
        },
        {
          "duration": 0.1289771437499998,
          "durationTicks": 227,
          "midi": 57,
          "name": "A3",
          "ticks": 2160,
          "time": 1.2272715,
          "velocity": 0.7559055118110236
        },
        {
          "duration": 0.1289771437499998,
          "durationTicks": 227,
          "midi": 60,
          "name": "C4",
          "ticks": 2160,
          "time": 1.2272715,
          "velocity": 0.7559055118110236
        },
        {
          "duration": 0.1289771437499998,
          "durationTicks": 227,
          "midi": 63,
          "name": "D#4",
          "ticks": 2160,
          "time": 1.2272715,
          "velocity": 0.7559055118110236
        },
        {
          "duration": 0.1289771437499998,
          "durationTicks": 227,
          "midi": 66,
          "name": "F#4",
          "ticks": 2160,
          "time": 1.2272715,
          "velocity": 0.7559055118110236
        },
        {
          "duration": 0.12897714375000002,
          "durationTicks": 227,
          "midi": 57,
          "name": "A3",
          "ticks": 2400,
          "time": 1.363635,
          "velocity": 0.7559055118110236
        },
        {
          "duration": 0.12897714375000002,
          "durationTicks": 227,
          "midi": 60,
          "name": "C4",
          "ticks": 2400,
          "time": 1.363635,
          "velocity": 0.7559055118110236
        },
        {
          "duration": 0.12897714375000002,
          "durationTicks": 227,
          "midi": 63,
          "name": "D#4",
          "ticks": 2400,
          "time": 1.363635,
          "velocity": 0.7559055118110236
        },
        {
          "duration": 0.12897714375000002,
          "durationTicks": 227,
          "midi": 66,
          "name": "F#4",
          "ticks": 2400,
          "time": 1.363635,
          "velocity": 0.7559055118110236
        },
        {
          "duration": 0.1289771437499998,
          "durationTicks": 227,
          "midi": 57,
          "name": "A3",
          "ticks": 2640,
          "time": 1.4999985,
          "velocity": 0.7559055118110236
        },
        {
          "duration": 0.1289771437499998,
          "durationTicks": 227,
          "midi": 60,
          "name": "C4",
          "ticks": 2640,
          "time": 1.4999985,
          "velocity": 0.7559055118110236
        },
        {
          "duration": 0.1289771437499998,
          "durationTicks": 227,
          "midi": 63,
          "name": "D#4",
          "ticks": 2640,
          "time": 1.4999985,
          "velocity": 0.7559055118110236
        },
        {
          "duration": 0.1289771437499998,
          "durationTicks": 227,
          "midi": 66,
          "name": "F#4",
          "ticks": 2640,
          "time": 1.4999985,
          "velocity": 0.7559055118110236
        },
        {
          "duration": 0.13579531874999984,
          "durationTicks": 239,
          "midi": 57,
          "name": "A3",
          "ticks": 2880,
          "time": 1.636362,
          "velocity": 0.7559055118110236
        },
        {
          "duration": 0.13579531874999984,
          "durationTicks": 239,
          "midi": 60,
          "name": "C4",
          "ticks": 2880,
          "time": 1.636362,
          "velocity": 0.7559055118110236
        },
        {
          "duration": 0.13579531874999984,
          "durationTicks": 239,
          "midi": 63,
          "name": "D#4",
          "ticks": 2880,
          "time": 1.636362,
          "velocity": 0.7559055118110236
        },
        {
          "duration": 0.13579531874999984,
          "durationTicks": 239,
          "midi": 66,
          "name": "F#4",
          "ticks": 2880,
          "time": 1.636362,
          "velocity": 0.7559055118110236
        },
        {
          "duration": 0.25852246874999985,
          "durationTicks": 455,
          "midi": 80,
          "name": "G#5",
          "ticks": 3840,
          "time": 2.181816,
          "velocity": 0.7559055118110236
        },
        {
          "duration": 0.1289771437499998,
          "durationTicks": 227,
          "midi": 76,
          "name": "E5",
          "ticks": 4320,
          "time": 2.454543,
          "velocity": 0.7559055118110236
        },
        {
          "duration": 0.1289771437499998,
          "durationTicks": 227,
          "midi": 85,
          "name": "C#6",
          "ticks": 4560,
          "time": 2.5909065,
          "velocity": 0.7559055118110236
        },
        {
          "duration": 0.25852246874999985,
          "durationTicks": 455,
          "midi": 83,
          "name": "B5",
          "ticks": 4800,
          "time": 2.72727,
          "velocity": 0.7559055118110236
        },
        {
          "duration": 0.1289771437499998,
          "durationTicks": 227,
          "midi": 78,
          "name": "F#5",
          "ticks": 5280,
          "time": 2.999997,
          "velocity": 0.7559055118110236
        },
        {
          "duration": 0.1289771437499998,
          "durationTicks": 227,
          "midi": 80,
          "name": "G#5",
          "ticks": 5520,
          "time": 3.1363605,
          "velocity": 0.7559055118110236
        },
        {
          "duration": 0.2585224687499994,
          "durationTicks": 455,
          "midi": 73,
          "name": "C#5",
          "ticks": 5760,
          "time": 3.272724,
          "velocity": 0.7559055118110236
        },
        {
          "duration": 0.1289771437499998,
          "durationTicks": 227,
          "midi": 78,
          "name": "F#5",
          "ticks": 6240,
          "time": 3.545451,
          "velocity": 0.7559055118110236
        },
        {
          "duration": 0.12897714375000024,
          "durationTicks": 227,
          "midi": 80,
          "name": "G#5",
          "ticks": 6480,
          "time": 3.6818144999999998,
          "velocity": 0.7559055118110236
        },
        {
          "duration": 0.1289771437499998,
          "durationTicks": 227,
          "midi": 75,
          "name": "D#5",
          "ticks": 6720,
          "time": 3.818178,
          "velocity": 0.7559055118110236
        },
        {
          "duration": 0.1289771437499998,
          "durationTicks": 227,
          "midi": 79,
          "name": "G5",
          "ticks": 6960,
          "time": 3.9545415,
          "velocity": 0.7559055118110236
        },
        {
          "duration": 0.12897714374999936,
          "durationTicks": 227,
          "midi": 78,
          "name": "F#5",
          "ticks": 7200,
          "time": 4.090905,
          "velocity": 0.7559055118110236
        },
        {
          "duration": 0.12897714374999936,
          "durationTicks": 227,
          "midi": 76,
          "name": "E5",
          "ticks": 7440,
          "time": 4.2272685,
          "velocity": 0.7559055118110236
        },
        {
          "duration": 0.12897714375000024,
          "durationTicks": 227,
          "midi": 72,
          "name": "C5",
          "ticks": 7680,
          "time": 4.363632,
          "velocity": 0.7559055118110236
        },
        {
          "duration": 0.12897714375000024,
          "durationTicks": 227,
          "midi": 77,
          "name": "F5",
          "ticks": 7920,
          "time": 4.4999955,
          "velocity": 0.7559055118110236
        },
        {
          "duration": 0.12897714375000024,
          "durationTicks": 227,
          "midi": 73,
          "name": "C#5",
          "ticks": 8160,
          "time": 4.636359,
          "velocity": 0.7559055118110236
        },
        {
          "duration": 0.12897714375000024,
          "durationTicks": 227,
          "midi": 75,
          "name": "D#5",
          "ticks": 8400,
          "time": 4.7727224999999995,
          "velocity": 0.7559055118110236
        },
        {
          "duration": 0.12897714374999936,
          "durationTicks": 227,
          "midi": 70,
          "name": "A#4",
          "ticks": 8640,
          "time": 4.909086,
          "velocity": 0.7559055118110236
        },
        {
          "duration": 0.12897714374999936,
          "durationTicks": 227,
          "midi": 75,
          "name": "D#5",
          "ticks": 8880,
          "time": 5.0454495,
          "velocity": 0.7559055118110236
        },
        {
          "duration": 0.12897714375000024,
          "durationTicks": 227,
          "midi": 72,
          "name": "C5",
          "ticks": 9120,
          "time": 5.181813,
          "velocity": 0.7559055118110236
        },
        {
          "duration": 0.12897714375000024,
          "durationTicks": 227,
          "midi": 77,
          "name": "F5",
          "ticks": 9360,
          "time": 5.3181765,
          "velocity": 0.7559055118110236
        },
        {
          "duration": 0.12897714375000024,
          "durationTicks": 227,
          "midi": 71,
          "name": "B4",
          "ticks": 9600,
          "time": 5.45454,
          "velocity": 0.7559055118110236
        },
        {
          "duration": 0.12897714375000024,
          "durationTicks": 227,
          "midi": 78,
          "name": "F#5",
          "ticks": 9840,
          "time": 5.5909035,
          "velocity": 0.7559055118110236
        },
        {
          "duration": 0.12897714374999936,
          "durationTicks": 227,
          "midi": 73,
          "name": "C#5",
          "ticks": 10080,
          "time": 5.727267,
          "velocity": 0.7559055118110236
        },
        {
          "duration": 0.38806779374999945,
          "durationTicks": 683,
          "midi": 80,
          "name": "G#5",
          "ticks": 10320,
          "time": 5.8636305,
          "velocity": 0.7559055118110236
        },
        {
          "duration": 0.38806779374999945,
          "durationTicks": 683,
          "midi": 76,
          "name": "E5",
          "ticks": 11520,
          "time": 6.545448,
          "velocity": 0.7559055118110236
        },
        {
          "duration": 0.38806779374999945,
          "durationTicks": 683,
          "midi": 83,
          "name": "B5",
          "ticks": 11520,
          "time": 6.545448,
          "velocity": 0.6535433070866141
        },
        {
          "duration": 0.12897714375000024,
          "durationTicks": 227,
          "midi": 73,
          "name": "C#5",
          "ticks": 12240,
          "time": 6.9545385,
          "velocity": 0.7559055118110236
        },
        {
          "duration": 0.38806779374999945,
          "durationTicks": 683,
          "midi": 76,
          "name": "E5",
          "ticks": 12480,
          "time": 7.090902,
          "velocity": 0.7559055118110236
        },
        {
          "duration": 0.38806779374999945,
          "durationTicks": 683,
          "midi": 83,
          "name": "B5",
          "ticks": 12480,
          "time": 7.090902,
          "velocity": 0.6535433070866141
        },
        {
          "duration": 0.12897714374999936,
          "durationTicks": 227,
          "midi": 73,
          "name": "C#5",
          "ticks": 13200,
          "time": 7.4999925,
          "velocity": 0.7559055118110236
        },
        {
          "duration": 0.12897714374999936,
          "durationTicks": 227,
          "midi": 76,
          "name": "E5",
          "ticks": 13440,
          "time": 7.636356,
          "velocity": 0.7559055118110236
        },
        {
          "duration": 0.12897714374999936,
          "durationTicks": 227,
          "midi": 83,
          "name": "B5",
          "ticks": 13440,
          "time": 7.636356,
          "velocity": 0.6535433070866141
        },
        {
          "duration": 0.12897714375000024,
          "durationTicks": 227,
          "midi": 73,
          "name": "C#5",
          "ticks": 13680,
          "time": 7.7727195,
          "velocity": 0.7559055118110236
        },
        {
          "duration": 0.12897714375000024,
          "durationTicks": 227,
          "midi": 76,
          "name": "E5",
          "ticks": 13920,
          "time": 7.909083,
          "velocity": 0.7559055118110236
        },
        {
          "duration": 0.12897714375000024,
          "durationTicks": 227,
          "midi": 83,
          "name": "B5",
          "ticks": 13920,
          "time": 7.909083,
          "velocity": 0.6535433070866141
        },
        {
          "duration": 0.12897714374999936,
          "durationTicks": 227,
          "midi": 78,
          "name": "F#5",
          "ticks": 14160,
          "time": 8.0454465,
          "velocity": 0.7559055118110236
        },
        {
          "duration": 0.517613118749999,
          "durationTicks": 911,
          "midi": 80,
          "name": "G#5",
          "ticks": 14400,
          "time": 8.18181,
          "velocity": 0.7559055118110236
        },
        {
          "duration": 0.517613118749999,
          "durationTicks": 911,
          "midi": 86,
          "name": "D6",
          "ticks": 14400,
          "time": 8.18181,
          "velocity": 0.6535433070866141
        },
        {
          "duration": 0.38806779375000033,
          "durationTicks": 683,
          "midi": 76,
          "name": "E5",
          "ticks": 15360,
          "time": 8.727264,
          "velocity": 0.7559055118110236
        },
        {
          "duration": 0.38806779375000033,
          "durationTicks": 683,
          "midi": 83,
          "name": "B5",
          "ticks": 15360,
          "time": 8.727264,
          "velocity": 0.7559055118110236
        },
        {
          "duration": 0.12897714375000113,
          "durationTicks": 227,
          "midi": 80,
          "name": "G#5",
          "ticks": 16080,
          "time": 9.1363545,
          "velocity": 0.7559055118110236
        },
        {
          "duration": 0.38806779375000033,
          "durationTicks": 683,
          "midi": 76,
          "name": "E5",
          "ticks": 16320,
          "time": 9.272718,
          "velocity": 0.7559055118110236
        },
        {
          "duration": 0.38806779375000033,
          "durationTicks": 683,
          "midi": 83,
          "name": "B5",
          "ticks": 16320,
          "time": 9.272718,
          "velocity": 0.7559055118110236
        },
        {
          "duration": 0.12897714374999936,
          "durationTicks": 227,
          "midi": 80,
          "name": "G#5",
          "ticks": 17040,
          "time": 9.6818085,
          "velocity": 0.7559055118110236
        },
        {
          "duration": 0.12897714374999936,
          "durationTicks": 227,
          "midi": 76,
          "name": "E5",
          "ticks": 17280,
          "time": 9.818172,
          "velocity": 0.7559055118110236
        },
        {
          "duration": 0.12897714374999936,
          "durationTicks": 227,
          "midi": 83,
          "name": "B5",
          "ticks": 17280,
          "time": 9.818172,
          "velocity": 0.7559055118110236
        },
        {
          "duration": 0.12897714375000113,
          "durationTicks": 227,
          "midi": 80,
          "name": "G#5",
          "ticks": 17520,
          "time": 9.9545355,
          "velocity": 0.7559055118110236
        },
        {
          "duration": 0.12897714375000113,
          "durationTicks": 227,
          "midi": 83,
          "name": "B5",
          "ticks": 17760,
          "time": 10.090899,
          "velocity": 0.7559055118110236
        },
        {
          "duration": 0.12897714375000113,
          "durationTicks": 227,
          "midi": 91,
          "name": "G6",
          "ticks": 18000,
          "time": 10.2272625,
          "velocity": 0.7559055118110236
        },
        {
          "duration": 0.5176131187500008,
          "durationTicks": 911,
          "midi": 85,
          "name": "C#6",
          "ticks": 18240,
          "time": 10.363626,
          "velocity": 0.7559055118110236
        },
        {
          "duration": 0.5176131187500008,
          "durationTicks": 911,
          "midi": 90,
          "name": "F#6",
          "ticks": 18240,
          "time": 10.363626,
          "velocity": 0.7559055118110236
        },
        {
          "duration": 0.25852246874999985,
          "durationTicks": 455,
          "midi": 80,
          "name": "G#5",
          "ticks": 19200,
          "time": 10.90908,
          "velocity": 0.7559055118110236
        },
        {
          "duration": 0.12897714375000113,
          "durationTicks": 227,
          "midi": 76,
          "name": "E5",
          "ticks": 19680,
          "time": 11.181807,
          "velocity": 0.7559055118110236
        },
        {
          "duration": 0.12897714375000113,
          "durationTicks": 227,
          "midi": 85,
          "name": "C#6",
          "ticks": 19920,
          "time": 11.318170499999999,
          "velocity": 0.7559055118110236
        },
        {
          "duration": 0.25852246874999807,
          "durationTicks": 455,
          "midi": 83,
          "name": "B5",
          "ticks": 20160,
          "time": 11.454534,
          "velocity": 0.7559055118110236
        },
        {
          "duration": 0.12897714375000113,
          "durationTicks": 227,
          "midi": 78,
          "name": "F#5",
          "ticks": 20640,
          "time": 11.727261,
          "velocity": 0.7559055118110236
        },
        {
          "duration": 0.12897714375000113,
          "durationTicks": 227,
          "midi": 80,
          "name": "G#5",
          "ticks": 20880,
          "time": 11.8636245,
          "velocity": 0.7559055118110236
        },
        {
          "duration": 0.25852246874999985,
          "durationTicks": 455,
          "midi": 73,
          "name": "C#5",
          "ticks": 21120,
          "time": 11.999988,
          "velocity": 0.7559055118110236
        },
        {
          "duration": 0.12897714375000113,
          "durationTicks": 227,
          "midi": 78,
          "name": "F#5",
          "ticks": 21600,
          "time": 12.272715,
          "velocity": 0.7559055118110236
        },
        {
          "duration": 0.12897714375000113,
          "durationTicks": 227,
          "midi": 80,
          "name": "G#5",
          "ticks": 21840,
          "time": 12.4090785,
          "velocity": 0.7559055118110236
        },
        {
          "duration": 0.12897714375000113,
          "durationTicks": 227,
          "midi": 75,
          "name": "D#5",
          "ticks": 22080,
          "time": 12.545442,
          "velocity": 0.7559055118110236
        },
        {
          "duration": 0.12897714375000113,
          "durationTicks": 227,
          "midi": 79,
          "name": "G5",
          "ticks": 22320,
          "time": 12.6818055,
          "velocity": 0.7559055118110236
        },
        {
          "duration": 0.12897714375000113,
          "durationTicks": 227,
          "midi": 78,
          "name": "F#5",
          "ticks": 22560,
          "time": 12.818169,
          "velocity": 0.7559055118110236
        },
        {
          "duration": 0.12897714375000113,
          "durationTicks": 227,
          "midi": 76,
          "name": "E5",
          "ticks": 22800,
          "time": 12.9545325,
          "velocity": 0.7559055118110236
        },
        {
          "duration": 0.12897714374999936,
          "durationTicks": 227,
          "midi": 72,
          "name": "C5",
          "ticks": 23040,
          "time": 13.090896,
          "velocity": 0.7559055118110236
        },
        {
          "duration": 0.12897714374999936,
          "durationTicks": 227,
          "midi": 77,
          "name": "F5",
          "ticks": 23280,
          "time": 13.2272595,
          "velocity": 0.7559055118110236
        },
        {
          "duration": 0.12897714375000113,
          "durationTicks": 227,
          "midi": 73,
          "name": "C#5",
          "ticks": 23520,
          "time": 13.363623,
          "velocity": 0.7559055118110236
        },
        {
          "duration": 0.12897714375000113,
          "durationTicks": 227,
          "midi": 75,
          "name": "D#5",
          "ticks": 23760,
          "time": 13.4999865,
          "velocity": 0.7559055118110236
        },
        {
          "duration": 0.12897714375000113,
          "durationTicks": 227,
          "midi": 70,
          "name": "A#4",
          "ticks": 24000,
          "time": 13.63635,
          "velocity": 0.7559055118110236
        },
        {
          "duration": 0.12897714375000113,
          "durationTicks": 227,
          "midi": 75,
          "name": "D#5",
          "ticks": 24240,
          "time": 13.7727135,
          "velocity": 0.7559055118110236
        },
        {
          "duration": 0.12897714375000113,
          "durationTicks": 227,
          "midi": 72,
          "name": "C5",
          "ticks": 24480,
          "time": 13.909077,
          "velocity": 0.7559055118110236
        },
        {
          "duration": 0.12897714375000113,
          "durationTicks": 227,
          "midi": 77,
          "name": "F5",
          "ticks": 24720,
          "time": 14.0454405,
          "velocity": 0.7559055118110236
        },
        {
          "duration": 0.12897714375000113,
          "durationTicks": 227,
          "midi": 71,
          "name": "B4",
          "ticks": 24960,
          "time": 14.181804,
          "velocity": 0.7559055118110236
        },
        {
          "duration": 0.12897714375000113,
          "durationTicks": 227,
          "midi": 78,
          "name": "F#5",
          "ticks": 25200,
          "time": 14.3181675,
          "velocity": 0.7559055118110236
        },
        {
          "duration": 0.12897714375000113,
          "durationTicks": 227,
          "midi": 73,
          "name": "C#5",
          "ticks": 25440,
          "time": 14.454531,
          "velocity": 0.7559055118110236
        },
        {
          "duration": 0.38806779375000033,
          "durationTicks": 683,
          "midi": 80,
          "name": "G#5",
          "ticks": 25680,
          "time": 14.5908945,
          "velocity": 0.7559055118110236
        },
        {
          "duration": 0.38806779374999856,
          "durationTicks": 683,
          "midi": 76,
          "name": "E5",
          "ticks": 26880,
          "time": 15.272712,
          "velocity": 0.7559055118110236
        },
        {
          "duration": 0.38806779374999856,
          "durationTicks": 683,
          "midi": 83,
          "name": "B5",
          "ticks": 26880,
          "time": 15.272712,
          "velocity": 0.6535433070866141
        },
        {
          "duration": 0.12897714375000113,
          "durationTicks": 227,
          "midi": 73,
          "name": "C#5",
          "ticks": 27600,
          "time": 15.6818025,
          "velocity": 0.7559055118110236
        },
        {
          "duration": 0.38806779374999856,
          "durationTicks": 683,
          "midi": 76,
          "name": "E5",
          "ticks": 27840,
          "time": 15.818166,
          "velocity": 0.7559055118110236
        },
        {
          "duration": 0.38806779374999856,
          "durationTicks": 683,
          "midi": 83,
          "name": "B5",
          "ticks": 27840,
          "time": 15.818166,
          "velocity": 0.6535433070866141
        },
        {
          "duration": 0.1289771437500029,
          "durationTicks": 227,
          "midi": 73,
          "name": "C#5",
          "ticks": 28560,
          "time": 16.2272565,
          "velocity": 0.7559055118110236
        },
        {
          "duration": 0.12897714374999936,
          "durationTicks": 227,
          "midi": 76,
          "name": "E5",
          "ticks": 28800,
          "time": 16.36362,
          "velocity": 0.7559055118110236
        },
        {
          "duration": 0.12897714374999936,
          "durationTicks": 227,
          "midi": 83,
          "name": "B5",
          "ticks": 28800,
          "time": 16.36362,
          "velocity": 0.6535433070866141
        },
        {
          "duration": 0.1289771437500029,
          "durationTicks": 227,
          "midi": 73,
          "name": "C#5",
          "ticks": 29040,
          "time": 16.4999835,
          "velocity": 0.7559055118110236
        },
        {
          "duration": 0.12897714374999936,
          "durationTicks": 227,
          "midi": 76,
          "name": "E5",
          "ticks": 29280,
          "time": 16.636347,
          "velocity": 0.7559055118110236
        },
        {
          "duration": 0.12897714374999936,
          "durationTicks": 227,
          "midi": 83,
          "name": "B5",
          "ticks": 29280,
          "time": 16.636347,
          "velocity": 0.6535433070866141
        },
        {
          "duration": 0.1289771437500029,
          "durationTicks": 227,
          "midi": 78,
          "name": "F#5",
          "ticks": 29520,
          "time": 16.7727105,
          "velocity": 0.7559055118110236
        },
        {
          "duration": 0.517613118749999,
          "durationTicks": 911,
          "midi": 80,
          "name": "G#5",
          "ticks": 29760,
          "time": 16.909074,
          "velocity": 0.7559055118110236
        },
        {
          "duration": 0.517613118749999,
          "durationTicks": 911,
          "midi": 86,
          "name": "D6",
          "ticks": 29760,
          "time": 16.909074,
          "velocity": 0.6535433070866141
        },
        {
          "duration": 0.38806779375000033,
          "durationTicks": 683,
          "midi": 76,
          "name": "E5",
          "ticks": 30720,
          "time": 17.454528,
          "velocity": 0.7559055118110236
        },
        {
          "duration": 0.38806779375000033,
          "durationTicks": 683,
          "midi": 83,
          "name": "B5",
          "ticks": 30720,
          "time": 17.454528,
          "velocity": 0.7559055118110236
        },
        {
          "duration": 0.12897714374999936,
          "durationTicks": 227,
          "midi": 80,
          "name": "G#5",
          "ticks": 31440,
          "time": 17.8636185,
          "velocity": 0.7559055118110236
        },
        {
          "duration": 0.38806779375000033,
          "durationTicks": 683,
          "midi": 76,
          "name": "E5",
          "ticks": 31680,
          "time": 17.999982,
          "velocity": 0.7559055118110236
        },
        {
          "duration": 0.38806779375000033,
          "durationTicks": 683,
          "midi": 83,
          "name": "B5",
          "ticks": 31680,
          "time": 17.999982,
          "velocity": 0.7559055118110236
        },
        {
          "duration": 0.12897714374999936,
          "durationTicks": 227,
          "midi": 80,
          "name": "G#5",
          "ticks": 32400,
          "time": 18.4090725,
          "velocity": 0.7559055118110236
        },
        {
          "duration": 0.12897714374999936,
          "durationTicks": 227,
          "midi": 76,
          "name": "E5",
          "ticks": 32640,
          "time": 18.545436,
          "velocity": 0.7559055118110236
        },
        {
          "duration": 0.12897714374999936,
          "durationTicks": 227,
          "midi": 83,
          "name": "B5",
          "ticks": 32640,
          "time": 18.545436,
          "velocity": 0.7559055118110236
        },
        {
          "duration": 0.12897714374999936,
          "durationTicks": 227,
          "midi": 80,
          "name": "G#5",
          "ticks": 32880,
          "time": 18.6817995,
          "velocity": 0.7559055118110236
        },
        {
          "duration": 0.12897714374999936,
          "durationTicks": 227,
          "midi": 83,
          "name": "B5",
          "ticks": 33120,
          "time": 18.818163,
          "velocity": 0.7559055118110236
        },
        {
          "duration": 0.12897714374999936,
          "durationTicks": 227,
          "midi": 91,
          "name": "G6",
          "ticks": 33360,
          "time": 18.9545265,
          "velocity": 0.7559055118110236
        },
        {
          "duration": 0.517613118749999,
          "durationTicks": 911,
          "midi": 85,
          "name": "C#6",
          "ticks": 33600,
          "time": 19.090889999999998,
          "velocity": 0.7559055118110236
        },
        {
          "duration": 0.517613118749999,
          "durationTicks": 911,
          "midi": 90,
          "name": "F#6",
          "ticks": 33600,
          "time": 19.090889999999998,
          "velocity": 0.7559055118110236
        },
        {
          "duration": 0.2585224687500016,
          "durationTicks": 455,
          "midi": 75,
          "name": "D#5",
          "ticks": 34560,
          "time": 19.636344,
          "velocity": 0.6535433070866141
        },
        {
          "duration": 0.2585224687500016,
          "durationTicks": 455,
          "midi": 83,
          "name": "B5",
          "ticks": 34560,
          "time": 19.636344,
          "velocity": 0.7559055118110236
        },
        {
          "duration": 0.2585224687500016,
          "durationTicks": 455,
          "midi": 75,
          "name": "D#5",
          "ticks": 35040,
          "time": 19.909071,
          "velocity": 0.6535433070866141
        },
        {
          "duration": 0.2585224687500016,
          "durationTicks": 455,
          "midi": 83,
          "name": "B5",
          "ticks": 35040,
          "time": 19.909071,
          "velocity": 0.7559055118110236
        },
        {
          "duration": 0.2585224687500016,
          "durationTicks": 455,
          "midi": 75,
          "name": "D#5",
          "ticks": 35520,
          "time": 20.181798,
          "velocity": 0.6535433070866141
        },
        {
          "duration": 0.2585224687500016,
          "durationTicks": 455,
          "midi": 83,
          "name": "B5",
          "ticks": 35520,
          "time": 20.181798,
          "velocity": 0.7559055118110236
        },
        {
          "duration": 0.2585224687500016,
          "durationTicks": 455,
          "midi": 75,
          "name": "D#5",
          "ticks": 36000,
          "time": 20.454525,
          "velocity": 0.6535433070866141
        },
        {
          "duration": 0.2585224687500016,
          "durationTicks": 455,
          "midi": 83,
          "name": "B5",
          "ticks": 36000,
          "time": 20.454525,
          "velocity": 0.7559055118110236
        },
        {
          "duration": 0.38806779375000033,
          "durationTicks": 683,
          "midi": 76,
          "name": "E5",
          "ticks": 36480,
          "time": 20.727252,
          "velocity": 0.6535433070866141
        },
        {
          "duration": 0.38806779375000033,
          "durationTicks": 683,
          "midi": 83,
          "name": "B5",
          "ticks": 36480,
          "time": 20.727252,
          "velocity": 0.7559055118110236
        },
        {
          "duration": 0.3880677937499968,
          "durationTicks": 683,
          "midi": 80,
          "name": "G#5",
          "ticks": 37200,
          "time": 21.1363425,
          "velocity": 0.7559055118110236
        },
        {
          "duration": 0.3880677937499968,
          "durationTicks": 683,
          "midi": 88,
          "name": "E6",
          "ticks": 37200,
          "time": 21.1363425,
          "velocity": 0.7559055118110236
        },
        {
          "duration": 0.2585224687500016,
          "durationTicks": 455,
          "midi": 75,
          "name": "D#5",
          "ticks": 38400,
          "time": 21.81816,
          "velocity": 0.6535433070866141
        },
        {
          "duration": 0.2585224687500016,
          "durationTicks": 455,
          "midi": 83,
          "name": "B5",
          "ticks": 38400,
          "time": 21.81816,
          "velocity": 0.7559055118110236
        },
        {
          "duration": 0.2585224687500016,
          "durationTicks": 455,
          "midi": 75,
          "name": "D#5",
          "ticks": 38880,
          "time": 22.090887,
          "velocity": 0.6535433070866141
        },
        {
          "duration": 0.2585224687500016,
          "durationTicks": 455,
          "midi": 83,
          "name": "B5",
          "ticks": 38880,
          "time": 22.090887,
          "velocity": 0.7559055118110236
        },
        {
          "duration": 0.2585224687500016,
          "durationTicks": 455,
          "midi": 76,
          "name": "E5",
          "ticks": 39360,
          "time": 22.363614,
          "velocity": 0.6535433070866141
        },
        {
          "duration": 0.2585224687500016,
          "durationTicks": 455,
          "midi": 83,
          "name": "B5",
          "ticks": 39360,
          "time": 22.363614,
          "velocity": 0.7559055118110236
        },
        {
          "duration": 0.2585224687500016,
          "durationTicks": 455,
          "midi": 76,
          "name": "E5",
          "ticks": 39840,
          "time": 22.636340999999998,
          "velocity": 0.6535433070866141
        },
        {
          "duration": 0.2585224687500016,
          "durationTicks": 455,
          "midi": 83,
          "name": "B5",
          "ticks": 39840,
          "time": 22.636340999999998,
          "velocity": 0.7559055118110236
        },
        {
          "duration": 0.12897714374999936,
          "durationTicks": 227,
          "midi": 88,
          "name": "E6",
          "ticks": 40800,
          "time": 23.181795,
          "velocity": 0.7559055118110236
        },
        {
          "duration": 0.12897714374999936,
          "durationTicks": 227,
          "midi": 76,
          "name": "E5",
          "ticks": 41040,
          "time": 23.3181585,
          "velocity": 0.7559055118110236
        },
        {
          "duration": 0.12897714374999936,
          "durationTicks": 227,
          "midi": 80,
          "name": "G#5",
          "ticks": 41040,
          "time": 23.3181585,
          "velocity": 0.7559055118110236
        },
        {
          "duration": 0.38806779375000033,
          "durationTicks": 683,
          "midi": 75,
          "name": "D#5",
          "ticks": 41520,
          "time": 23.5908855,
          "velocity": 0.7559055118110236
        },
        {
          "duration": 0.38806779375000033,
          "durationTicks": 683,
          "midi": 78,
          "name": "F#5",
          "ticks": 41520,
          "time": 23.5908855,
          "velocity": 0.7559055118110236
        },
        {
          "duration": 0.38806779375000033,
          "durationTicks": 683,
          "midi": 75,
          "name": "D#5",
          "ticks": 42240,
          "time": 23.999976,
          "velocity": 0.7559055118110236
        },
        {
          "duration": 0.38806779375000033,
          "durationTicks": 683,
          "midi": 83,
          "name": "B5",
          "ticks": 42240,
          "time": 23.999976,
          "velocity": 0.7559055118110236
        },
        {
          "duration": 0.12897714374999936,
          "durationTicks": 227,
          "midi": 80,
          "name": "G#5",
          "ticks": 42960,
          "time": 24.409066499999998,
          "velocity": 0.7559055118110236
        },
        {
          "duration": 0.38806779375000033,
          "durationTicks": 683,
          "midi": 75,
          "name": "D#5",
          "ticks": 43200,
          "time": 24.54543,
          "velocity": 0.7559055118110236
        },
        {
          "duration": 0.38806779375000033,
          "durationTicks": 683,
          "midi": 83,
          "name": "B5",
          "ticks": 43200,
          "time": 24.54543,
          "velocity": 0.7559055118110236
        },
        {
          "duration": 0.12897714374999936,
          "durationTicks": 227,
          "midi": 80,
          "name": "G#5",
          "ticks": 43920,
          "time": 24.9545205,
          "velocity": 0.7559055118110236
        },
        {
          "duration": 0.12897714374999936,
          "durationTicks": 227,
          "midi": 76,
          "name": "E5",
          "ticks": 44160,
          "time": 25.090884,
          "velocity": 0.7559055118110236
        },
        {
          "duration": 0.12897714374999936,
          "durationTicks": 227,
          "midi": 83,
          "name": "B5",
          "ticks": 44160,
          "time": 25.090884,
          "velocity": 0.7559055118110236
        },
        {
          "duration": 0.12897714374999936,
          "durationTicks": 227,
          "midi": 80,
          "name": "G#5",
          "ticks": 44400,
          "time": 25.2272475,
          "velocity": 0.7559055118110236
        },
        {
          "duration": 0.12897714374999936,
          "durationTicks": 227,
          "midi": 83,
          "name": "B5",
          "ticks": 44640,
          "time": 25.363611,
          "velocity": 0.7559055118110236
        },
        {
          "duration": 0.12897714374999936,
          "durationTicks": 227,
          "midi": 85,
          "name": "C#6",
          "ticks": 44880,
          "time": 25.4999745,
          "velocity": 0.7559055118110236
        },
        {
          "duration": 0.517613118749999,
          "durationTicks": 911,
          "midi": 76,
          "name": "E5",
          "ticks": 45120,
          "time": 25.636338,
          "velocity": 0.7559055118110236
        },
        {
          "duration": 0.517613118749999,
          "durationTicks": 911,
          "midi": 83,
          "name": "B5",
          "ticks": 45120,
          "time": 25.636338,
          "velocity": 0.7559055118110236
        },
        {
          "duration": 0.3880677937499968,
          "durationTicks": 683,
          "midi": 73,
          "name": "C#5",
          "ticks": 46080,
          "time": 26.181792,
          "velocity": 0.7559055118110236
        },
        {
          "duration": 0.3880677937499968,
          "durationTicks": 683,
          "midi": 76,
          "name": "E5",
          "ticks": 46080,
          "time": 26.181792,
          "velocity": 0.7559055118110236
        },
        {
          "duration": 0.12897714374999936,
          "durationTicks": 227,
          "midi": 78,
          "name": "F#5",
          "ticks": 46800,
          "time": 26.5908825,
          "velocity": 0.7559055118110236
        },
        {
          "duration": 0.3880677937499968,
          "durationTicks": 683,
          "midi": 76,
          "name": "E5",
          "ticks": 47040,
          "time": 26.727246,
          "velocity": 0.7559055118110236
        },
        {
          "duration": 0.12897714374999936,
          "durationTicks": 227,
          "midi": 78,
          "name": "F#5",
          "ticks": 47760,
          "time": 27.1363365,
          "velocity": 0.7559055118110236
        },
        {
          "duration": 0.12897714374999936,
          "durationTicks": 227,
          "midi": 76,
          "name": "E5",
          "ticks": 48000,
          "time": 27.2727,
          "velocity": 0.7559055118110236
        },
        {
          "duration": 0.12897714374999936,
          "durationTicks": 227,
          "midi": 78,
          "name": "F#5",
          "ticks": 48240,
          "time": 27.4090635,
          "velocity": 0.7559055118110236
        },
        {
          "duration": 0.12897714374999936,
          "durationTicks": 227,
          "midi": 76,
          "name": "E5",
          "ticks": 48480,
          "time": 27.545427,
          "velocity": 0.7559055118110236
        },
        {
          "duration": 0.12897714374999936,
          "durationTicks": 227,
          "midi": 78,
          "name": "F#5",
          "ticks": 48720,
          "time": 27.681790499999998,
          "velocity": 0.7559055118110236
        },
        {
          "duration": 0.2585224687500016,
          "durationTicks": 455,
          "midi": 76,
          "name": "E5",
          "ticks": 48960,
          "time": 27.818154,
          "velocity": 0.7559055118110236
        },
        {
          "duration": 0.2585224687500016,
          "durationTicks": 455,
          "midi": 75,
          "name": "D#5",
          "ticks": 49920,
          "time": 28.363608,
          "velocity": 0.6535433070866141
        },
        {
          "duration": 0.2585224687500016,
          "durationTicks": 455,
          "midi": 83,
          "name": "B5",
          "ticks": 49920,
          "time": 28.363608,
          "velocity": 0.7559055118110236
        },
        {
          "duration": 0.2585224687500016,
          "durationTicks": 455,
          "midi": 75,
          "name": "D#5",
          "ticks": 50400,
          "time": 28.636335,
          "velocity": 0.6535433070866141
        },
        {
          "duration": 0.2585224687500016,
          "durationTicks": 455,
          "midi": 83,
          "name": "B5",
          "ticks": 50400,
          "time": 28.636335,
          "velocity": 0.7559055118110236
        },
        {
          "duration": 0.2585224687500016,
          "durationTicks": 455,
          "midi": 75,
          "name": "D#5",
          "ticks": 50880,
          "time": 28.909062,
          "velocity": 0.6535433070866141
        },
        {
          "duration": 0.2585224687500016,
          "durationTicks": 455,
          "midi": 83,
          "name": "B5",
          "ticks": 50880,
          "time": 28.909062,
          "velocity": 0.7559055118110236
        },
        {
          "duration": 0.2585224687500016,
          "durationTicks": 455,
          "midi": 75,
          "name": "D#5",
          "ticks": 51360,
          "time": 29.181789,
          "velocity": 0.6535433070866141
        },
        {
          "duration": 0.2585224687500016,
          "durationTicks": 455,
          "midi": 83,
          "name": "B5",
          "ticks": 51360,
          "time": 29.181789,
          "velocity": 0.7559055118110236
        },
        {
          "duration": 0.38806779375000033,
          "durationTicks": 683,
          "midi": 76,
          "name": "E5",
          "ticks": 51840,
          "time": 29.454515999999998,
          "velocity": 0.6535433070866141
        },
        {
          "duration": 0.38806779375000033,
          "durationTicks": 683,
          "midi": 83,
          "name": "B5",
          "ticks": 51840,
          "time": 29.454515999999998,
          "velocity": 0.7559055118110236
        },
        {
          "duration": 0.38806779375000033,
          "durationTicks": 683,
          "midi": 80,
          "name": "G#5",
          "ticks": 52560,
          "time": 29.8636065,
          "velocity": 0.7559055118110236
        },
        {
          "duration": 0.38806779375000033,
          "durationTicks": 683,
          "midi": 88,
          "name": "E6",
          "ticks": 52560,
          "time": 29.8636065,
          "velocity": 0.7559055118110236
        },
        {
          "duration": 0.38806779375000033,
          "durationTicks": 683,
          "midi": 75,
          "name": "D#5",
          "ticks": 53760,
          "time": 30.545424,
          "velocity": 0.6535433070866141
        },
        {
          "duration": 0.38806779375000033,
          "durationTicks": 683,
          "midi": 83,
          "name": "B5",
          "ticks": 53760,
          "time": 30.545424,
          "velocity": 0.7559055118110236
        },
        {
          "duration": 0.12897714374999936,
          "durationTicks": 227,
          "midi": 83,
          "name": "B5",
          "ticks": 54480,
          "time": 30.9545145,
          "velocity": 0.7559055118110236
        },
        {
          "duration": 0.12897714374999936,
          "durationTicks": 227,
          "midi": 78,
          "name": "F#5",
          "ticks": 54720,
          "time": 31.090878,
          "velocity": 0.7559055118110236
        },
        {
          "duration": 0.12897714374999936,
          "durationTicks": 227,
          "midi": 85,
          "name": "C#6",
          "ticks": 54720,
          "time": 31.090878,
          "velocity": 0.7559055118110236
        },
        {
          "duration": 0.12897714374999936,
          "durationTicks": 227,
          "midi": 85,
          "name": "C#6",
          "ticks": 54960,
          "time": 31.227241499999998,
          "velocity": 0.7559055118110236
        },
        {
          "duration": 0.2585224687500016,
          "durationTicks": 455,
          "midi": 76,
          "name": "E5",
          "ticks": 55200,
          "time": 31.363605,
          "velocity": 0.6535433070866141
        },
        {
          "duration": 0.2585224687500016,
          "durationTicks": 455,
          "midi": 83,
          "name": "B5",
          "ticks": 55200,
          "time": 31.363605,
          "velocity": 0.7559055118110236
        },
        {
          "duration": 0.12897714374999936,
          "durationTicks": 227,
          "midi": 88,
          "name": "E6",
          "ticks": 56160,
          "time": 31.909059,
          "velocity": 0.7559055118110236
        },
        {
          "duration": 0.12897714374999936,
          "durationTicks": 227,
          "midi": 76,
          "name": "E5",
          "ticks": 56400,
          "time": 32.0454225,
          "velocity": 0.7559055118110236
        },
        {
          "duration": 0.12897714374999936,
          "durationTicks": 227,
          "midi": 80,
          "name": "G#5",
          "ticks": 56400,
          "time": 32.0454225,
          "velocity": 0.7559055118110236
        },
        {
          "duration": 0.3880677937500039,
          "durationTicks": 683,
          "midi": 75,
          "name": "D#5",
          "ticks": 56880,
          "time": 32.3181495,
          "velocity": 0.7559055118110236
        },
        {
          "duration": 0.3880677937500039,
          "durationTicks": 683,
          "midi": 78,
          "name": "F#5",
          "ticks": 56880,
          "time": 32.3181495,
          "velocity": 0.7559055118110236
        },
        {
          "duration": 0.3880677937499968,
          "durationTicks": 683,
          "midi": 75,
          "name": "D#5",
          "ticks": 57600,
          "time": 32.72724,
          "velocity": 0.7559055118110236
        },
        {
          "duration": 0.3880677937499968,
          "durationTicks": 683,
          "midi": 83,
          "name": "B5",
          "ticks": 57600,
          "time": 32.72724,
          "velocity": 0.7559055118110236
        },
        {
          "duration": 0.12897714374999936,
          "durationTicks": 227,
          "midi": 80,
          "name": "G#5",
          "ticks": 58320,
          "time": 33.1363305,
          "velocity": 0.7559055118110236
        },
        {
          "duration": 0.3880677937499968,
          "durationTicks": 683,
          "midi": 75,
          "name": "D#5",
          "ticks": 58560,
          "time": 33.272694,
          "velocity": 0.7559055118110236
        },
        {
          "duration": 0.3880677937499968,
          "durationTicks": 683,
          "midi": 83,
          "name": "B5",
          "ticks": 58560,
          "time": 33.272694,
          "velocity": 0.7559055118110236
        },
        {
          "duration": 0.12897714374999936,
          "durationTicks": 227,
          "midi": 80,
          "name": "G#5",
          "ticks": 59280,
          "time": 33.6817845,
          "velocity": 0.7559055118110236
        },
        {
          "duration": 0.12897714374999936,
          "durationTicks": 227,
          "midi": 76,
          "name": "E5",
          "ticks": 59520,
          "time": 33.818148,
          "velocity": 0.7559055118110236
        },
        {
          "duration": 0.12897714374999936,
          "durationTicks": 227,
          "midi": 83,
          "name": "B5",
          "ticks": 59520,
          "time": 33.818148,
          "velocity": 0.7559055118110236
        },
        {
          "duration": 0.12897714374999936,
          "durationTicks": 227,
          "midi": 80,
          "name": "G#5",
          "ticks": 59760,
          "time": 33.9545115,
          "velocity": 0.7559055118110236
        },
        {
          "duration": 0.12897714374999936,
          "durationTicks": 227,
          "midi": 83,
          "name": "B5",
          "ticks": 60000,
          "time": 34.090875,
          "velocity": 0.7559055118110236
        },
        {
          "duration": 0.12897714374999936,
          "durationTicks": 227,
          "midi": 85,
          "name": "C#6",
          "ticks": 60240,
          "time": 34.2272385,
          "velocity": 0.7559055118110236
        },
        {
          "duration": 0.517613118749999,
          "durationTicks": 911,
          "midi": 76,
          "name": "E5",
          "ticks": 60480,
          "time": 34.363602,
          "velocity": 0.7559055118110236
        },
        {
          "duration": 0.517613118749999,
          "durationTicks": 911,
          "midi": 83,
          "name": "B5",
          "ticks": 60480,
          "time": 34.363602,
          "velocity": 0.7559055118110236
        },
        {
          "duration": 0.3880677937500039,
          "durationTicks": 683,
          "midi": 73,
          "name": "C#5",
          "ticks": 61440,
          "time": 34.909056,
          "velocity": 0.7559055118110236
        },
        {
          "duration": 0.3880677937500039,
          "durationTicks": 683,
          "midi": 76,
          "name": "E5",
          "ticks": 61440,
          "time": 34.909056,
          "velocity": 0.7559055118110236
        },
        {
          "duration": 0.12897714374999936,
          "durationTicks": 227,
          "midi": 78,
          "name": "F#5",
          "ticks": 62160,
          "time": 35.3181465,
          "velocity": 0.7559055118110236
        },
        {
          "duration": 0.3880677937500039,
          "durationTicks": 683,
          "midi": 76,
          "name": "E5",
          "ticks": 62400,
          "time": 35.45451,
          "velocity": 0.7559055118110236
        },
        {
          "duration": 0.12897714374999936,
          "durationTicks": 227,
          "midi": 78,
          "name": "F#5",
          "ticks": 63120,
          "time": 35.8636005,
          "velocity": 0.7559055118110236
        },
        {
          "duration": 0.12897714374999936,
          "durationTicks": 227,
          "midi": 76,
          "name": "E5",
          "ticks": 63360,
          "time": 35.999964,
          "velocity": 0.7559055118110236
        },
        {
          "duration": 0.12897714374999936,
          "durationTicks": 227,
          "midi": 78,
          "name": "F#5",
          "ticks": 63600,
          "time": 36.1363275,
          "velocity": 0.7559055118110236
        },
        {
          "duration": 0.12897714374999936,
          "durationTicks": 227,
          "midi": 76,
          "name": "E5",
          "ticks": 63840,
          "time": 36.272691,
          "velocity": 0.7559055118110236
        },
        {
          "duration": 0.12897714374999936,
          "durationTicks": 227,
          "midi": 78,
          "name": "F#5",
          "ticks": 64080,
          "time": 36.409054499999996,
          "velocity": 0.7559055118110236
        },
        {
          "duration": 0.2585224687500016,
          "durationTicks": 455,
          "midi": 76,
          "name": "E5",
          "ticks": 64320,
          "time": 36.545418,
          "velocity": 0.7559055118110236
        },
        {
          "duration": 0.2585224687499945,
          "durationTicks": 455,
          "midi": 78,
          "name": "F#5",
          "ticks": 64800,
          "time": 36.818145,
          "velocity": 0.6929133858267716
        },
        {
          "duration": 0.5176131187500062,
          "durationTicks": 911,
          "midi": 75,
          "name": "D#5",
          "ticks": 65280,
          "time": 37.090872,
          "velocity": 0.6299212598425197
        },
        {
          "duration": 0.5176131187500062,
          "durationTicks": 911,
          "midi": 80,
          "name": "G#5",
          "ticks": 65280,
          "time": 37.090872,
          "velocity": 0.6299212598425197
        },
        {
          "duration": 0.12897714374999936,
          "durationTicks": 227,
          "midi": 77,
          "name": "F5",
          "ticks": 66960,
          "time": 38.0454165,
          "velocity": 0.6299212598425197
        },
        {
          "duration": 0.5176131187500062,
          "durationTicks": 911,
          "midi": 72,
          "name": "C5",
          "ticks": 67200,
          "time": 38.181779999999996,
          "velocity": 0.6299212598425197
        },
        {
          "duration": 0.5176131187500062,
          "durationTicks": 911,
          "midi": 75,
          "name": "D#5",
          "ticks": 67200,
          "time": 38.181779999999996,
          "velocity": 0.6299212598425197
        },
        {
          "duration": 0.12897714374999936,
          "durationTicks": 227,
          "midi": 68,
          "name": "G#4",
          "ticks": 68880,
          "time": 39.1363245,
          "velocity": 0.6299212598425197
        },
        {
          "duration": 0.12897714374999936,
          "durationTicks": 227,
          "midi": 75,
          "name": "D#5",
          "ticks": 69120,
          "time": 39.272688,
          "velocity": 0.6299212598425197
        },
        {
          "duration": 0.12897714374999936,
          "durationTicks": 227,
          "midi": 73,
          "name": "C#5",
          "ticks": 69360,
          "time": 39.4090515,
          "velocity": 0.6299212598425197
        },
        {
          "duration": 0.12897714374999936,
          "durationTicks": 227,
          "midi": 75,
          "name": "D#5",
          "ticks": 69600,
          "time": 39.545415,
          "velocity": 0.6299212598425197
        },
        {
          "duration": 0.12897714374999936,
          "durationTicks": 227,
          "midi": 73,
          "name": "C#5",
          "ticks": 69840,
          "time": 39.6817785,
          "velocity": 0.6299212598425197
        },
        {
          "duration": 0.2585224687499945,
          "durationTicks": 455,
          "midi": 75,
          "name": "D#5",
          "ticks": 70080,
          "time": 39.818142,
          "velocity": 0.6299212598425197
        },
        {
          "duration": 0.2585224687500016,
          "durationTicks": 455,
          "midi": 77,
          "name": "F5",
          "ticks": 70560,
          "time": 40.090869,
          "velocity": 0.6299212598425197
        },
        {
          "duration": 0.3880677937500039,
          "durationTicks": 683,
          "midi": 63,
          "name": "D#4",
          "ticks": 71040,
          "time": 40.363596,
          "velocity": 0.5669291338582677
        },
        {
          "duration": 0.3880677937500039,
          "durationTicks": 683,
          "midi": 72,
          "name": "C5",
          "ticks": 71040,
          "time": 40.363596,
          "velocity": 0.6299212598425197
        },
        {
          "duration": 0.3880677937500039,
          "durationTicks": 683,
          "midi": 65,
          "name": "F4",
          "ticks": 71760,
          "time": 40.7726865,
          "velocity": 0.5669291338582677
        },
        {
          "duration": 0.3880677937500039,
          "durationTicks": 683,
          "midi": 73,
          "name": "C#5",
          "ticks": 71760,
          "time": 40.7726865,
          "velocity": 0.6299212598425197
        },
        {
          "duration": 0.12897714374999936,
          "durationTicks": 227,
          "midi": 76,
          "name": "E5",
          "ticks": 73440,
          "time": 41.727230999999996,
          "velocity": 0.6299212598425197
        },
        {
          "duration": 0.12897714374999936,
          "durationTicks": 227,
          "midi": 80,
          "name": "G#5",
          "ticks": 73440,
          "time": 41.727230999999996,
          "velocity": 0.6299212598425197
        },
        {
          "duration": 0.12897714374999936,
          "durationTicks": 227,
          "midi": 80,
          "name": "G#5",
          "ticks": 73680,
          "time": 41.8635945,
          "velocity": 0.6299212598425197
        },
        {
          "duration": 0.12897714374999936,
          "durationTicks": 227,
          "midi": 80,
          "name": "G#5",
          "ticks": 73920,
          "time": 41.999958,
          "velocity": 0.6299212598425197
        },
        {
          "duration": 0.12897714374999936,
          "durationTicks": 227,
          "midi": 80,
          "name": "G#5",
          "ticks": 74160,
          "time": 42.1363215,
          "velocity": 0.6299212598425197
        },
        {
          "duration": 0.2585224687499945,
          "durationTicks": 455,
          "midi": 76,
          "name": "E5",
          "ticks": 74400,
          "time": 42.272685,
          "velocity": 0.6299212598425197
        },
        {
          "duration": 0.2585224687499945,
          "durationTicks": 455,
          "midi": 80,
          "name": "G#5",
          "ticks": 74400,
          "time": 42.272685,
          "velocity": 0.6299212598425197
        },
        {
          "duration": 0.2585224687500016,
          "durationTicks": 455,
          "midi": 76,
          "name": "E5",
          "ticks": 74880,
          "time": 42.545412,
          "velocity": 0.6299212598425197
        },
        {
          "duration": 0.2585224687500016,
          "durationTicks": 455,
          "midi": 80,
          "name": "G#5",
          "ticks": 74880,
          "time": 42.545412,
          "velocity": 0.6299212598425197
        },
        {
          "duration": 0.12897714374999936,
          "durationTicks": 227,
          "midi": 80,
          "name": "G#5",
          "ticks": 75360,
          "time": 42.818139,
          "velocity": 0.6299212598425197
        },
        {
          "duration": 0.2585224687500016,
          "durationTicks": 455,
          "midi": 80,
          "name": "G#5",
          "ticks": 75600,
          "time": 42.9545025,
          "velocity": 0.6299212598425197
        },
        {
          "duration": 0.3880677937500039,
          "durationTicks": 683,
          "midi": 80,
          "name": "G#5",
          "ticks": 76080,
          "time": 43.2272295,
          "velocity": 0.6299212598425197
        },
        {
          "duration": 0.3880677937500039,
          "durationTicks": 683,
          "midi": 83,
          "name": "B5",
          "ticks": 76080,
          "time": 43.2272295,
          "velocity": 0.6299212598425197
        },
        {
          "duration": 0.2585224687499945,
          "durationTicks": 455,
          "midi": 85,
          "name": "C#6",
          "ticks": 77280,
          "time": 43.909047,
          "velocity": 0.6299212598425197
        },
        {
          "duration": 0.12897714374999936,
          "durationTicks": 227,
          "midi": 83,
          "name": "B5",
          "ticks": 77760,
          "time": 44.181774,
          "velocity": 0.6299212598425197
        },
        {
          "duration": 0.12897714374999936,
          "durationTicks": 227,
          "midi": 80,
          "name": "G#5",
          "ticks": 78000,
          "time": 44.3181375,
          "velocity": 0.6299212598425197
        },
        {
          "duration": 0.12897714374999936,
          "durationTicks": 227,
          "midi": 78,
          "name": "F#5",
          "ticks": 78240,
          "time": 44.454501,
          "velocity": 0.6299212598425197
        },
        {
          "duration": 0.12897714374999936,
          "durationTicks": 227,
          "midi": 76,
          "name": "E5",
          "ticks": 78480,
          "time": 44.5908645,
          "velocity": 0.6299212598425197
        },
        {
          "duration": 0.1721589187500001,
          "durationTicks": 303,
          "midi": 71,
          "name": "B4",
          "ticks": 78720,
          "time": 44.727228,
          "velocity": 0.6299212598425197
        },
        {
          "duration": 0.1721589187500001,
          "durationTicks": 303,
          "midi": 76,
          "name": "E5",
          "ticks": 78720,
          "time": 44.727228,
          "velocity": 0.6299212598425197
        },
        {
          "duration": 0.17215891875000722,
          "durationTicks": 303,
          "midi": 76,
          "name": "E5",
          "ticks": 79040,
          "time": 44.909046,
          "velocity": 0.6299212598425197
        },
        {
          "duration": 0.1721589187500001,
          "durationTicks": 303,
          "midi": 76,
          "name": "E5",
          "ticks": 79360,
          "time": 45.090864,
          "velocity": 0.6299212598425197
        },
        {
          "duration": 0.5176131187500062,
          "durationTicks": 911,
          "midi": 71,
          "name": "B4",
          "ticks": 79680,
          "time": 45.272681999999996,
          "velocity": 0.6299212598425197
        },
        {
          "duration": 0.5176131187500062,
          "durationTicks": 911,
          "midi": 78,
          "name": "F#5",
          "ticks": 79680,
          "time": 45.272681999999996,
          "velocity": 0.6299212598425197
        },
        {
          "duration": 0.517613118749999,
          "durationTicks": 911,
          "midi": 71,
          "name": "B4",
          "ticks": 80640,
          "time": 45.818136,
          "velocity": 0.7559055118110236
        },
        {
          "duration": 0.517613118749999,
          "durationTicks": 911,
          "midi": 80,
          "name": "G#5",
          "ticks": 80640,
          "time": 45.818136,
          "velocity": 0.7559055118110236
        },
        {
          "duration": 0.517613118749999,
          "durationTicks": 911,
          "midi": 83,
          "name": "B5",
          "ticks": 80640,
          "time": 45.818136,
          "velocity": 0.7559055118110236
        },
        {
          "duration": 0.12897714374999936,
          "durationTicks": 227,
          "midi": 80,
          "name": "G#5",
          "ticks": 81600,
          "time": 46.36359,
          "velocity": 0.7559055118110236
        },
        {
          "duration": 0.12897714374999936,
          "durationTicks": 227,
          "midi": 81,
          "name": "A5",
          "ticks": 81840,
          "time": 46.4999535,
          "velocity": 0.7559055118110236
        },
        {
          "duration": 0.12897714374999936,
          "durationTicks": 227,
          "midi": 83,
          "name": "B5",
          "ticks": 82080,
          "time": 46.636317,
          "velocity": 0.7559055118110236
        },
        {
          "duration": 0.12897714374999936,
          "durationTicks": 227,
          "midi": 85,
          "name": "C#6",
          "ticks": 82320,
          "time": 46.7726805,
          "velocity": 0.7559055118110236
        },
        {
          "duration": 0.13579531874999873,
          "durationTicks": 239,
          "midi": 71,
          "name": "B4",
          "ticks": 82560,
          "time": 46.909044,
          "velocity": 0.7559055118110236
        },
        {
          "duration": 0.13579531874999873,
          "durationTicks": 239,
          "midi": 83,
          "name": "B5",
          "ticks": 82560,
          "time": 46.909044,
          "velocity": 0.7559055118110236
        },
        {
          "duration": 0.2585224687500016,
          "durationTicks": 455,
          "midi": 69,
          "name": "A4",
          "ticks": 83040,
          "time": 47.181771,
          "velocity": 0.7559055118110236
        },
        {
          "duration": 0.2585224687500016,
          "durationTicks": 455,
          "midi": 81,
          "name": "A5",
          "ticks": 83040,
          "time": 47.181771,
          "velocity": 0.7559055118110236
        },
        {
          "duration": 0.2585224687499945,
          "durationTicks": 455,
          "midi": 68,
          "name": "G#4",
          "ticks": 83520,
          "time": 47.454498,
          "velocity": 0.7559055118110236
        },
        {
          "duration": 0.2585224687499945,
          "durationTicks": 455,
          "midi": 80,
          "name": "G#5",
          "ticks": 83520,
          "time": 47.454498,
          "velocity": 0.7559055118110236
        },
        {
          "duration": 0.2585224687500016,
          "durationTicks": 455,
          "midi": 66,
          "name": "F#4",
          "ticks": 84000,
          "time": 47.727225,
          "velocity": 0.7559055118110236
        },
        {
          "duration": 0.2585224687500016,
          "durationTicks": 455,
          "midi": 78,
          "name": "F#5",
          "ticks": 84000,
          "time": 47.727225,
          "velocity": 0.7559055118110236
        },
        {
          "duration": 0.517613118749999,
          "durationTicks": 911,
          "midi": 68,
          "name": "G#4",
          "ticks": 84480,
          "time": 47.999952,
          "velocity": 0.7559055118110236
        },
        {
          "duration": 0.517613118749999,
          "durationTicks": 911,
          "midi": 76,
          "name": "E5",
          "ticks": 84480,
          "time": 47.999952,
          "velocity": 0.7559055118110236
        },
        {
          "duration": 0.517613118749999,
          "durationTicks": 911,
          "midi": 80,
          "name": "G#5",
          "ticks": 84480,
          "time": 47.999952,
          "velocity": 0.7559055118110236
        },
        {
          "duration": 0.12897714374999936,
          "durationTicks": 227,
          "midi": 76,
          "name": "E5",
          "ticks": 85440,
          "time": 48.545406,
          "velocity": 0.7559055118110236
        },
        {
          "duration": 0.12897714374999936,
          "durationTicks": 227,
          "midi": 78,
          "name": "F#5",
          "ticks": 85680,
          "time": 48.6817695,
          "velocity": 0.7559055118110236
        },
        {
          "duration": 0.12897714374999936,
          "durationTicks": 227,
          "midi": 80,
          "name": "G#5",
          "ticks": 85920,
          "time": 48.818132999999996,
          "velocity": 0.7559055118110236
        },
        {
          "duration": 0.12897714374999936,
          "durationTicks": 227,
          "midi": 83,
          "name": "B5",
          "ticks": 86160,
          "time": 48.9544965,
          "velocity": 0.7559055118110236
        },
        {
          "duration": 0.13579531874999873,
          "durationTicks": 239,
          "midi": 72,
          "name": "C5",
          "ticks": 86400,
          "time": 49.09086,
          "velocity": 0.7559055118110236
        },
        {
          "duration": 0.13579531874999873,
          "durationTicks": 239,
          "midi": 84,
          "name": "C6",
          "ticks": 86400,
          "time": 49.09086,
          "velocity": 0.7559055118110236
        },
        {
          "duration": 0.2585224687499945,
          "durationTicks": 455,
          "midi": 71,
          "name": "B4",
          "ticks": 86880,
          "time": 49.363587,
          "velocity": 0.7559055118110236
        },
        {
          "duration": 0.2585224687499945,
          "durationTicks": 455,
          "midi": 83,
          "name": "B5",
          "ticks": 86880,
          "time": 49.363587,
          "velocity": 0.7559055118110236
        },
        {
          "duration": 0.2585224687500016,
          "durationTicks": 455,
          "midi": 69,
          "name": "A4",
          "ticks": 87360,
          "time": 49.636314,
          "velocity": 0.7559055118110236
        },
        {
          "duration": 0.2585224687500016,
          "durationTicks": 455,
          "midi": 81,
          "name": "A5",
          "ticks": 87360,
          "time": 49.636314,
          "velocity": 0.7559055118110236
        },
        {
          "duration": 0.2585224687499945,
          "durationTicks": 455,
          "midi": 72,
          "name": "C5",
          "ticks": 87840,
          "time": 49.909041,
          "velocity": 0.7559055118110236
        },
        {
          "duration": 0.2585224687499945,
          "durationTicks": 455,
          "midi": 84,
          "name": "C6",
          "ticks": 87840,
          "time": 49.909041,
          "velocity": 0.7559055118110236
        },
        {
          "duration": 0.3880677937500039,
          "durationTicks": 683,
          "midi": 71,
          "name": "B4",
          "ticks": 88320,
          "time": 50.181768,
          "velocity": 0.7559055118110236
        },
        {
          "duration": 0.3880677937500039,
          "durationTicks": 683,
          "midi": 75,
          "name": "D#5",
          "ticks": 88320,
          "time": 50.181768,
          "velocity": 0.7559055118110236
        },
        {
          "duration": 0.3880677937500039,
          "durationTicks": 683,
          "midi": 83,
          "name": "B5",
          "ticks": 88320,
          "time": 50.181768,
          "velocity": 0.7559055118110236
        },
        {
          "duration": 0.12897714374999936,
          "durationTicks": 227,
          "midi": 80,
          "name": "G#5",
          "ticks": 89040,
          "time": 50.590858499999996,
          "velocity": 0.7559055118110236
        },
        {
          "duration": 0.12897714374999936,
          "durationTicks": 227,
          "midi": 83,
          "name": "B5",
          "ticks": 89280,
          "time": 50.727222,
          "velocity": 0.7559055118110236
        },
        {
          "duration": 0.12897714374999936,
          "durationTicks": 227,
          "midi": 85,
          "name": "C#6",
          "ticks": 89520,
          "time": 50.8635855,
          "velocity": 0.7559055118110236
        },
        {
          "duration": 0.12897714374999936,
          "durationTicks": 227,
          "midi": 87,
          "name": "D#6",
          "ticks": 89760,
          "time": 50.999949,
          "velocity": 0.7559055118110236
        },
        {
          "duration": 0.12897714374999936,
          "durationTicks": 227,
          "midi": 76,
          "name": "E5",
          "ticks": 90000,
          "time": 51.1363125,
          "velocity": 0.7559055118110236
        },
        {
          "duration": 0.12897714374999936,
          "durationTicks": 227,
          "midi": 88,
          "name": "E6",
          "ticks": 90000,
          "time": 51.1363125,
          "velocity": 0.7559055118110236
        },
        {
          "duration": 0.12897714374999936,
          "durationTicks": 227,
          "midi": 79,
          "name": "G5",
          "ticks": 90480,
          "time": 51.4090395,
          "velocity": 0.7559055118110236
        },
        {
          "duration": 0.6471584437500013,
          "durationTicks": 1139,
          "midi": 78,
          "name": "F#5",
          "ticks": 90960,
          "time": 51.6817665,
          "velocity": 0.7559055118110236
        },
        {
          "duration": 0.2585224687499945,
          "durationTicks": 455,
          "midi": 76,
          "name": "E5",
          "ticks": 92160,
          "time": 52.363584,
          "velocity": 0.7559055118110236
        },
        {
          "duration": 0.12897714374999936,
          "durationTicks": 227,
          "midi": 76,
          "name": "E5",
          "ticks": 92640,
          "time": 52.636311,
          "velocity": 0.7559055118110236
        },
        {
          "duration": 0.12897714374999936,
          "durationTicks": 227,
          "midi": 76,
          "name": "E5",
          "ticks": 92880,
          "time": 52.7726745,
          "velocity": 0.7559055118110236
        },
        {
          "duration": 0.12897714374999936,
          "durationTicks": 227,
          "midi": 76,
          "name": "E5",
          "ticks": 93120,
          "time": 52.909038,
          "velocity": 0.7559055118110236
        },
        {
          "duration": 0.12897714374999936,
          "durationTicks": 227,
          "midi": 76,
          "name": "E5",
          "ticks": 93360,
          "time": 53.0454015,
          "velocity": 0.7559055118110236
        },
        {
          "duration": 0.12897714374999936,
          "durationTicks": 227,
          "midi": 76,
          "name": "E5",
          "ticks": 93600,
          "time": 53.181765,
          "velocity": 0.7559055118110236
        },
        {
          "duration": 0.12897714374999936,
          "durationTicks": 227,
          "midi": 76,
          "name": "E5",
          "ticks": 93840,
          "time": 53.3181285,
          "velocity": 0.7559055118110236
        },
        {
          "duration": 0.3880677937500039,
          "durationTicks": 683,
          "midi": 76,
          "name": "E5",
          "ticks": 94080,
          "time": 53.454492,
          "velocity": 0.7559055118110236
        },
        {
          "duration": 0.3880677937500039,
          "durationTicks": 683,
          "midi": 88,
          "name": "E6",
          "ticks": 94080,
          "time": 53.454492,
          "velocity": 0.7559055118110236
        },
        {
          "duration": 0.12897714374999936,
          "durationTicks": 227,
          "midi": 71,
          "name": "B4",
          "ticks": 94800,
          "time": 53.8635825,
          "velocity": 0.7559055118110236
        },
        {
          "duration": 0.12897714374999936,
          "durationTicks": 227,
          "midi": 83,
          "name": "B5",
          "ticks": 94800,
          "time": 53.8635825,
          "velocity": 0.7559055118110236
        },
        {
          "duration": 0.517613118749999,
          "durationTicks": 911,
          "midi": 71,
          "name": "B4",
          "ticks": 95040,
          "time": 53.999946,
          "velocity": 0.7559055118110236
        },
        {
          "duration": 0.517613118749999,
          "durationTicks": 911,
          "midi": 75,
          "name": "D#5",
          "ticks": 95040,
          "time": 53.999946,
          "velocity": 0.7559055118110236
        },
        {
          "duration": 0.517613118749999,
          "durationTicks": 911,
          "midi": 78,
          "name": "F#5",
          "ticks": 95040,
          "time": 53.999946,
          "velocity": 0.7559055118110236
        },
        {
          "duration": 0.517613118749999,
          "durationTicks": 911,
          "midi": 83,
          "name": "B5",
          "ticks": 95040,
          "time": 53.999946,
          "velocity": 0.7559055118110236
        },
        {
          "duration": 0.12897714374999936,
          "durationTicks": 227,
          "midi": 73,
          "name": "C#5",
          "ticks": 96000,
          "time": 54.5454,
          "velocity": 0.7559055118110236
        },
        {
          "duration": 0.12897714374999936,
          "durationTicks": 227,
          "midi": 76,
          "name": "E5",
          "ticks": 96000,
          "time": 54.5454,
          "velocity": 0.7559055118110236
        },
        {
          "duration": 0.12897714374999936,
          "durationTicks": 227,
          "midi": 85,
          "name": "C#6",
          "ticks": 96000,
          "time": 54.5454,
          "velocity": 0.7559055118110236
        },
        {
          "duration": 0.2585224687499945,
          "durationTicks": 455,
          "midi": 73,
          "name": "C#5",
          "ticks": 96240,
          "time": 54.6817635,
          "velocity": 0.7559055118110236
        },
        {
          "duration": 0.2585224687499945,
          "durationTicks": 455,
          "midi": 76,
          "name": "E5",
          "ticks": 96240,
          "time": 54.6817635,
          "velocity": 0.7559055118110236
        },
        {
          "duration": 0.2585224687499945,
          "durationTicks": 455,
          "midi": 85,
          "name": "C#6",
          "ticks": 96240,
          "time": 54.6817635,
          "velocity": 0.7559055118110236
        },
        {
          "duration": 0.12897714374999936,
          "durationTicks": 227,
          "midi": 85,
          "name": "C#6",
          "ticks": 96720,
          "time": 54.9544905,
          "velocity": 0.7559055118110236
        },
        {
          "duration": 0.12897714374999936,
          "durationTicks": 227,
          "midi": 85,
          "name": "C#6",
          "ticks": 96960,
          "time": 55.090854,
          "velocity": 0.7559055118110236
        },
        {
          "duration": 0.12897714374999936,
          "durationTicks": 227,
          "midi": 85,
          "name": "C#6",
          "ticks": 97200,
          "time": 55.2272175,
          "velocity": 0.7559055118110236
        },
        {
          "duration": 0.12897714374999936,
          "durationTicks": 227,
          "midi": 85,
          "name": "C#6",
          "ticks": 97440,
          "time": 55.363580999999996,
          "velocity": 0.7559055118110236
        },
        {
          "duration": 0.12897714374999936,
          "durationTicks": 227,
          "midi": 85,
          "name": "C#6",
          "ticks": 97680,
          "time": 55.4999445,
          "velocity": 0.7559055118110236
        },
        {
          "duration": 0.2585224687499945,
          "durationTicks": 455,
          "midi": 75,
          "name": "D#5",
          "ticks": 97920,
          "time": 55.636308,
          "velocity": 0.7559055118110236
        },
        {
          "duration": 0.2585224687499945,
          "durationTicks": 455,
          "midi": 84,
          "name": "C6",
          "ticks": 97920,
          "time": 55.636308,
          "velocity": 0.7559055118110236
        },
        {
          "duration": 0.12897714374999225,
          "durationTicks": 227,
          "midi": 80,
          "name": "G#5",
          "ticks": 98400,
          "time": 55.909035,
          "velocity": 0.7559055118110236
        },
        {
          "duration": 0.3880677937500039,
          "durationTicks": 683,
          "midi": 72,
          "name": "C5",
          "ticks": 98640,
          "time": 56.0453985,
          "velocity": 0.7559055118110236
        },
        {
          "duration": 0.3880677937500039,
          "durationTicks": 683,
          "midi": 78,
          "name": "F#5",
          "ticks": 98640,
          "time": 56.0453985,
          "velocity": 0.7559055118110236
        },
        {
          "duration": 0.2585224687500016,
          "durationTicks": 455,
          "midi": 73,
          "name": "C#5",
          "ticks": 99840,
          "time": 56.727216,
          "velocity": 0.7559055118110236
        },
        {
          "duration": 0.2585224687500016,
          "durationTicks": 455,
          "midi": 80,
          "name": "G#5",
          "ticks": 99840,
          "time": 56.727216,
          "velocity": 0.7559055118110236
        },
        {
          "duration": 0.12897714374999936,
          "durationTicks": 227,
          "midi": 80,
          "name": "G#5",
          "ticks": 100320,
          "time": 56.999943,
          "velocity": 0.7559055118110236
        },
        {
          "duration": 0.12897714374999936,
          "durationTicks": 227,
          "midi": 80,
          "name": "G#5",
          "ticks": 100560,
          "time": 57.136306499999996,
          "velocity": 0.7559055118110236
        },
        {
          "duration": 0.12897714374999936,
          "durationTicks": 227,
          "midi": 80,
          "name": "G#5",
          "ticks": 100800,
          "time": 57.27267,
          "velocity": 0.7559055118110236
        },
        {
          "duration": 0.12897714374999936,
          "durationTicks": 227,
          "midi": 80,
          "name": "G#5",
          "ticks": 101040,
          "time": 57.4090335,
          "velocity": 0.7559055118110236
        },
        {
          "duration": 0.12897714374999936,
          "durationTicks": 227,
          "midi": 80,
          "name": "G#5",
          "ticks": 101280,
          "time": 57.545397,
          "velocity": 0.7559055118110236
        },
        {
          "duration": 0.12897714374999225,
          "durationTicks": 227,
          "midi": 81,
          "name": "A5",
          "ticks": 101520,
          "time": 57.6817605,
          "velocity": 0.7559055118110236
        },
        {
          "duration": 0.12897714374999936,
          "durationTicks": 227,
          "midi": 70,
          "name": "A#4",
          "ticks": 101760,
          "time": 57.818124,
          "velocity": 0.7559055118110236
        },
        {
          "duration": 0.12897714374999936,
          "durationTicks": 227,
          "midi": 80,
          "name": "G#5",
          "ticks": 101760,
          "time": 57.818124,
          "velocity": 0.7559055118110236
        },
        {
          "duration": 0.12897714374999936,
          "durationTicks": 227,
          "midi": 78,
          "name": "F#5",
          "ticks": 102000,
          "time": 57.9544875,
          "velocity": 0.7559055118110236
        },
        {
          "duration": 0.12897714374999936,
          "durationTicks": 227,
          "midi": 76,
          "name": "E5",
          "ticks": 102240,
          "time": 58.090851,
          "velocity": 0.7559055118110236
        },
        {
          "duration": 0.3880677937500039,
          "durationTicks": 683,
          "midi": 70,
          "name": "A#4",
          "ticks": 102480,
          "time": 58.2272145,
          "velocity": 0.7559055118110236
        },
        {
          "duration": 0.3880677937500039,
          "durationTicks": 683,
          "midi": 78,
          "name": "F#5",
          "ticks": 102480,
          "time": 58.2272145,
          "velocity": 0.7559055118110236
        },
        {
          "duration": 0.2585224687499945,
          "durationTicks": 455,
          "midi": 71,
          "name": "B4",
          "ticks": 103200,
          "time": 58.636305,
          "velocity": 0.7559055118110236
        },
        {
          "duration": 0.2585224687499945,
          "durationTicks": 455,
          "midi": 80,
          "name": "G#5",
          "ticks": 103200,
          "time": 58.636305,
          "velocity": 0.7559055118110236
        },
        {
          "duration": 0.2585224687500016,
          "durationTicks": 455,
          "midi": 69,
          "name": "A4",
          "ticks": 103680,
          "time": 58.909031999999996,
          "velocity": 0.7559055118110236
        },
        {
          "duration": 0.2585224687500016,
          "durationTicks": 455,
          "midi": 73,
          "name": "C#5",
          "ticks": 103680,
          "time": 58.909031999999996,
          "velocity": 0.7559055118110236
        },
        {
          "duration": 0.2585224687500016,
          "durationTicks": 455,
          "midi": 76,
          "name": "E5",
          "ticks": 103680,
          "time": 58.909031999999996,
          "velocity": 0.7559055118110236
        },
        {
          "duration": 0.12897714374999936,
          "durationTicks": 227,
          "midi": 76,
          "name": "E5",
          "ticks": 104160,
          "time": 59.181759,
          "velocity": 0.7559055118110236
        },
        {
          "duration": 0.2585224687499945,
          "durationTicks": 455,
          "midi": 71,
          "name": "B4",
          "ticks": 104400,
          "time": 59.3181225,
          "velocity": 0.7559055118110236
        },
        {
          "duration": 0.2585224687499945,
          "durationTicks": 455,
          "midi": 75,
          "name": "D#5",
          "ticks": 104400,
          "time": 59.3181225,
          "velocity": 0.7559055118110236
        },
        {
          "duration": 0.2585224687499945,
          "durationTicks": 455,
          "midi": 80,
          "name": "G#5",
          "ticks": 104400,
          "time": 59.3181225,
          "velocity": 0.7559055118110236
        },
        {
          "duration": 0.12897714374999936,
          "durationTicks": 227,
          "midi": 83,
          "name": "B5",
          "ticks": 104880,
          "time": 59.5908495,
          "velocity": 0.7559055118110236
        },
        {
          "duration": 0.12897714374999936,
          "durationTicks": 227,
          "midi": 85,
          "name": "C#6",
          "ticks": 105120,
          "time": 59.727213,
          "velocity": 0.7559055118110236
        },
        {
          "duration": 0.12897714374999936,
          "durationTicks": 227,
          "midi": 83,
          "name": "B5",
          "ticks": 105360,
          "time": 59.8635765,
          "velocity": 0.7559055118110236
        },
        {
          "duration": 0.12897714374999936,
          "durationTicks": 227,
          "midi": 80,
          "name": "G#5",
          "ticks": 105600,
          "time": 59.99994,
          "velocity": 0.7559055118110236
        },
        {
          "duration": 0.12897714374999936,
          "durationTicks": 227,
          "midi": 83,
          "name": "B5",
          "ticks": 105600,
          "time": 59.99994,
          "velocity": 0.7559055118110236
        },
        {
          "duration": 0.12897714374999936,
          "durationTicks": 227,
          "midi": 88,
          "name": "E6",
          "ticks": 105840,
          "time": 60.1363035,
          "velocity": 0.7559055118110236
        },
        {
          "duration": 0.12897714374999936,
          "durationTicks": 227,
          "midi": 87,
          "name": "D#6",
          "ticks": 106080,
          "time": 60.272667,
          "velocity": 0.7559055118110236
        },
        {
          "duration": 0.3880677937500039,
          "durationTicks": 683,
          "midi": 78,
          "name": "F#5",
          "ticks": 106320,
          "time": 60.4090305,
          "velocity": 0.7559055118110236
        },
        {
          "duration": 0.3880677937500039,
          "durationTicks": 683,
          "midi": 86,
          "name": "D6",
          "ticks": 106320,
          "time": 60.4090305,
          "velocity": 0.7559055118110236
        },
        {
          "duration": 0.2585224687500016,
          "durationTicks": 455,
          "midi": 78,
          "name": "F#5",
          "ticks": 107040,
          "time": 60.818121,
          "velocity": 0.7559055118110236
        },
        {
          "duration": 0.3880677937500039,
          "durationTicks": 683,
          "midi": 69,
          "name": "A4",
          "ticks": 107520,
          "time": 61.090848,
          "velocity": 0.7559055118110236
        },
        {
          "duration": 0.3880677937500039,
          "durationTicks": 683,
          "midi": 73,
          "name": "C#5",
          "ticks": 107520,
          "time": 61.090848,
          "velocity": 0.7559055118110236
        },
        {
          "duration": 0.3880677937500039,
          "durationTicks": 683,
          "midi": 76,
          "name": "E5",
          "ticks": 107520,
          "time": 61.090848,
          "velocity": 0.7559055118110236
        },
        {
          "duration": 0.12897714374999936,
          "durationTicks": 227,
          "midi": 76,
          "name": "E5",
          "ticks": 108240,
          "time": 61.4999385,
          "velocity": 0.7559055118110236
        },
        {
          "duration": 0.2585224687499945,
          "durationTicks": 455,
          "midi": 69,
          "name": "A4",
          "ticks": 108480,
          "time": 61.636302,
          "velocity": 0.7559055118110236
        },
        {
          "duration": 0.2585224687499945,
          "durationTicks": 455,
          "midi": 72,
          "name": "C5",
          "ticks": 108480,
          "time": 61.636302,
          "velocity": 0.7559055118110236
        },
        {
          "duration": 0.2585224687499945,
          "durationTicks": 455,
          "midi": 76,
          "name": "E5",
          "ticks": 108480,
          "time": 61.636302,
          "velocity": 0.7559055118110236
        },
        {
          "duration": 0.12897714374999936,
          "durationTicks": 227,
          "midi": 75,
          "name": "D#5",
          "ticks": 108960,
          "time": 61.909029,
          "velocity": 0.7559055118110236
        },
        {
          "duration": 0.12897714374999936,
          "durationTicks": 227,
          "midi": 75,
          "name": "D#5",
          "ticks": 109200,
          "time": 62.0453925,
          "velocity": 0.7559055118110236
        },
        {
          "duration": 0.2585224687499945,
          "durationTicks": 455,
          "midi": 76,
          "name": "E5",
          "ticks": 109440,
          "time": 62.181756,
          "velocity": 0.7559055118110236
        },
        {
          "duration": 0.2585224687499945,
          "durationTicks": 455,
          "midi": 80,
          "name": "G#5",
          "ticks": 109440,
          "time": 62.181756,
          "velocity": 0.7559055118110236
        },
        {
          "duration": 0.12897714374999936,
          "durationTicks": 227,
          "midi": 76,
          "name": "E5",
          "ticks": 109920,
          "time": 62.454482999999996,
          "velocity": 0.7559055118110236
        },
        {
          "duration": 0.12897714374999936,
          "durationTicks": 227,
          "midi": 85,
          "name": "C#6",
          "ticks": 110160,
          "time": 62.5908465,
          "velocity": 0.7559055118110236
        },
        {
          "duration": 0.2585224687499945,
          "durationTicks": 455,
          "midi": 83,
          "name": "B5",
          "ticks": 110400,
          "time": 62.72721,
          "velocity": 0.7559055118110236
        },
        {
          "duration": 0.12897714374999225,
          "durationTicks": 227,
          "midi": 78,
          "name": "F#5",
          "ticks": 110880,
          "time": 62.999937,
          "velocity": 0.7559055118110236
        },
        {
          "duration": 0.12897714374999936,
          "durationTicks": 227,
          "midi": 80,
          "name": "G#5",
          "ticks": 111120,
          "time": 63.1363005,
          "velocity": 0.7559055118110236
        },
        {
          "duration": 0.2585224687499945,
          "durationTicks": 455,
          "midi": 73,
          "name": "C#5",
          "ticks": 111360,
          "time": 63.272664,
          "velocity": 0.7559055118110236
        },
        {
          "duration": 0.12897714374999936,
          "durationTicks": 227,
          "midi": 78,
          "name": "F#5",
          "ticks": 111840,
          "time": 63.545391,
          "velocity": 0.7559055118110236
        },
        {
          "duration": 0.12897714374999936,
          "durationTicks": 227,
          "midi": 80,
          "name": "G#5",
          "ticks": 112080,
          "time": 63.6817545,
          "velocity": 0.7559055118110236
        },
        {
          "duration": 0.12897714374999936,
          "durationTicks": 227,
          "midi": 75,
          "name": "D#5",
          "ticks": 112320,
          "time": 63.818118,
          "velocity": 0.7559055118110236
        },
        {
          "duration": 0.12897714374999225,
          "durationTicks": 227,
          "midi": 79,
          "name": "G5",
          "ticks": 112560,
          "time": 63.9544815,
          "velocity": 0.7559055118110236
        },
        {
          "duration": 0.12897714374999225,
          "durationTicks": 227,
          "midi": 78,
          "name": "F#5",
          "ticks": 112800,
          "time": 64.090845,
          "velocity": 0.7559055118110236
        },
        {
          "duration": 0.12897714374999225,
          "durationTicks": 227,
          "midi": 76,
          "name": "E5",
          "ticks": 113040,
          "time": 64.2272085,
          "velocity": 0.7559055118110236
        },
        {
          "duration": 0.12897714374999225,
          "durationTicks": 227,
          "midi": 72,
          "name": "C5",
          "ticks": 113280,
          "time": 64.363572,
          "velocity": 0.7559055118110236
        },
        {
          "duration": 0.12897714375000646,
          "durationTicks": 227,
          "midi": 77,
          "name": "F5",
          "ticks": 113520,
          "time": 64.49993549999999,
          "velocity": 0.7559055118110236
        },
        {
          "duration": 0.12897714375000646,
          "durationTicks": 227,
          "midi": 73,
          "name": "C#5",
          "ticks": 113760,
          "time": 64.636299,
          "velocity": 0.7559055118110236
        },
        {
          "duration": 0.12897714375000646,
          "durationTicks": 227,
          "midi": 75,
          "name": "D#5",
          "ticks": 114000,
          "time": 64.7726625,
          "velocity": 0.7559055118110236
        },
        {
          "duration": 0.12897714375000646,
          "durationTicks": 227,
          "midi": 70,
          "name": "A#4",
          "ticks": 114240,
          "time": 64.909026,
          "velocity": 0.7559055118110236
        },
        {
          "duration": 0.12897714375000646,
          "durationTicks": 227,
          "midi": 75,
          "name": "D#5",
          "ticks": 114480,
          "time": 65.0453895,
          "velocity": 0.7559055118110236
        },
        {
          "duration": 0.12897714374999225,
          "durationTicks": 227,
          "midi": 72,
          "name": "C5",
          "ticks": 114720,
          "time": 65.181753,
          "velocity": 0.7559055118110236
        },
        {
          "duration": 0.12897714374999225,
          "durationTicks": 227,
          "midi": 77,
          "name": "F5",
          "ticks": 114960,
          "time": 65.3181165,
          "velocity": 0.7559055118110236
        },
        {
          "duration": 0.12897714374999225,
          "durationTicks": 227,
          "midi": 71,
          "name": "B4",
          "ticks": 115200,
          "time": 65.45448,
          "velocity": 0.7559055118110236
        },
        {
          "duration": 0.12897714374999225,
          "durationTicks": 227,
          "midi": 78,
          "name": "F#5",
          "ticks": 115440,
          "time": 65.5908435,
          "velocity": 0.7559055118110236
        },
        {
          "duration": 0.12897714375000646,
          "durationTicks": 227,
          "midi": 73,
          "name": "C#5",
          "ticks": 115680,
          "time": 65.72720699999999,
          "velocity": 0.7559055118110236
        },
        {
          "duration": 0.388067793750011,
          "durationTicks": 683,
          "midi": 80,
          "name": "G#5",
          "ticks": 115920,
          "time": 65.8635705,
          "velocity": 0.7559055118110236
        },
        {
          "duration": 0.3880677937499968,
          "durationTicks": 683,
          "midi": 76,
          "name": "E5",
          "ticks": 117120,
          "time": 66.545388,
          "velocity": 0.7559055118110236
        },
        {
          "duration": 0.3880677937499968,
          "durationTicks": 683,
          "midi": 83,
          "name": "B5",
          "ticks": 117120,
          "time": 66.545388,
          "velocity": 0.6535433070866141
        },
        {
          "duration": 0.12897714375000646,
          "durationTicks": 227,
          "midi": 73,
          "name": "C#5",
          "ticks": 117840,
          "time": 66.9544785,
          "velocity": 0.7559055118110236
        },
        {
          "duration": 0.388067793750011,
          "durationTicks": 683,
          "midi": 76,
          "name": "E5",
          "ticks": 118080,
          "time": 67.090842,
          "velocity": 0.7559055118110236
        },
        {
          "duration": 0.388067793750011,
          "durationTicks": 683,
          "midi": 83,
          "name": "B5",
          "ticks": 118080,
          "time": 67.090842,
          "velocity": 0.6535433070866141
        },
        {
          "duration": 0.12897714374999225,
          "durationTicks": 227,
          "midi": 73,
          "name": "C#5",
          "ticks": 118800,
          "time": 67.4999325,
          "velocity": 0.7559055118110236
        },
        {
          "duration": 0.12897714374999225,
          "durationTicks": 227,
          "midi": 76,
          "name": "E5",
          "ticks": 119040,
          "time": 67.636296,
          "velocity": 0.7559055118110236
        },
        {
          "duration": 0.12897714374999225,
          "durationTicks": 227,
          "midi": 83,
          "name": "B5",
          "ticks": 119040,
          "time": 67.636296,
          "velocity": 0.6535433070866141
        },
        {
          "duration": 0.12897714374999225,
          "durationTicks": 227,
          "midi": 73,
          "name": "C#5",
          "ticks": 119280,
          "time": 67.7726595,
          "velocity": 0.7559055118110236
        },
        {
          "duration": 0.12897714374999225,
          "durationTicks": 227,
          "midi": 76,
          "name": "E5",
          "ticks": 119520,
          "time": 67.909023,
          "velocity": 0.7559055118110236
        },
        {
          "duration": 0.12897714374999225,
          "durationTicks": 227,
          "midi": 83,
          "name": "B5",
          "ticks": 119520,
          "time": 67.909023,
          "velocity": 0.6535433070866141
        },
        {
          "duration": 0.12897714375000646,
          "durationTicks": 227,
          "midi": 78,
          "name": "F#5",
          "ticks": 119760,
          "time": 68.04538649999999,
          "velocity": 0.7559055118110236
        },
        {
          "duration": 0.5176131187500062,
          "durationTicks": 911,
          "midi": 80,
          "name": "G#5",
          "ticks": 120000,
          "time": 68.18175,
          "velocity": 0.7559055118110236
        },
        {
          "duration": 0.5176131187500062,
          "durationTicks": 911,
          "midi": 86,
          "name": "D6",
          "ticks": 120000,
          "time": 68.18175,
          "velocity": 0.6535433070866141
        },
        {
          "duration": 0.3880677937499968,
          "durationTicks": 683,
          "midi": 76,
          "name": "E5",
          "ticks": 120960,
          "time": 68.727204,
          "velocity": 0.7559055118110236
        },
        {
          "duration": 0.3880677937499968,
          "durationTicks": 683,
          "midi": 83,
          "name": "B5",
          "ticks": 120960,
          "time": 68.727204,
          "velocity": 0.7559055118110236
        },
        {
          "duration": 0.12897714374999225,
          "durationTicks": 227,
          "midi": 80,
          "name": "G#5",
          "ticks": 121680,
          "time": 69.1362945,
          "velocity": 0.7559055118110236
        },
        {
          "duration": 0.388067793750011,
          "durationTicks": 683,
          "midi": 76,
          "name": "E5",
          "ticks": 121920,
          "time": 69.27265799999999,
          "velocity": 0.7559055118110236
        },
        {
          "duration": 0.388067793750011,
          "durationTicks": 683,
          "midi": 83,
          "name": "B5",
          "ticks": 121920,
          "time": 69.27265799999999,
          "velocity": 0.7559055118110236
        },
        {
          "duration": 0.12897714375000646,
          "durationTicks": 227,
          "midi": 80,
          "name": "G#5",
          "ticks": 122640,
          "time": 69.6817485,
          "velocity": 0.7559055118110236
        },
        {
          "duration": 0.12897714374999225,
          "durationTicks": 227,
          "midi": 76,
          "name": "E5",
          "ticks": 122880,
          "time": 69.818112,
          "velocity": 0.7559055118110236
        },
        {
          "duration": 0.12897714374999225,
          "durationTicks": 227,
          "midi": 83,
          "name": "B5",
          "ticks": 122880,
          "time": 69.818112,
          "velocity": 0.7559055118110236
        },
        {
          "duration": 0.12897714374999225,
          "durationTicks": 227,
          "midi": 80,
          "name": "G#5",
          "ticks": 123120,
          "time": 69.9544755,
          "velocity": 0.7559055118110236
        },
        {
          "duration": 0.12897714374999225,
          "durationTicks": 227,
          "midi": 83,
          "name": "B5",
          "ticks": 123360,
          "time": 70.090839,
          "velocity": 0.7559055118110236
        },
        {
          "duration": 0.12897714374999225,
          "durationTicks": 227,
          "midi": 91,
          "name": "G6",
          "ticks": 123600,
          "time": 70.2272025,
          "velocity": 0.7559055118110236
        },
        {
          "duration": 0.5176131187499919,
          "durationTicks": 911,
          "midi": 85,
          "name": "C#6",
          "ticks": 123840,
          "time": 70.363566,
          "velocity": 0.7559055118110236
        },
        {
          "duration": 0.5176131187499919,
          "durationTicks": 911,
          "midi": 90,
          "name": "F#6",
          "ticks": 123840,
          "time": 70.363566,
          "velocity": 0.7559055118110236
        },
        {
          "duration": 0.2585224687500016,
          "durationTicks": 455,
          "midi": 80,
          "name": "G#5",
          "ticks": 124800,
          "time": 70.90902,
          "velocity": 0.7559055118110236
        },
        {
          "duration": 0.12897714374999225,
          "durationTicks": 227,
          "midi": 76,
          "name": "E5",
          "ticks": 125280,
          "time": 71.181747,
          "velocity": 0.7559055118110236
        },
        {
          "duration": 0.12897714374999225,
          "durationTicks": 227,
          "midi": 85,
          "name": "C#6",
          "ticks": 125520,
          "time": 71.3181105,
          "velocity": 0.7559055118110236
        },
        {
          "duration": 0.2585224687500016,
          "durationTicks": 455,
          "midi": 83,
          "name": "B5",
          "ticks": 125760,
          "time": 71.454474,
          "velocity": 0.7559055118110236
        },
        {
          "duration": 0.12897714375000646,
          "durationTicks": 227,
          "midi": 78,
          "name": "F#5",
          "ticks": 126240,
          "time": 71.727201,
          "velocity": 0.7559055118110236
        },
        {
          "duration": 0.12897714375000646,
          "durationTicks": 227,
          "midi": 80,
          "name": "G#5",
          "ticks": 126480,
          "time": 71.8635645,
          "velocity": 0.7559055118110236
        },
        {
          "duration": 0.2585224687500016,
          "durationTicks": 455,
          "midi": 73,
          "name": "C#5",
          "ticks": 126720,
          "time": 71.999928,
          "velocity": 0.7559055118110236
        },
        {
          "duration": 0.12897714374999225,
          "durationTicks": 227,
          "midi": 78,
          "name": "F#5",
          "ticks": 127200,
          "time": 72.272655,
          "velocity": 0.7559055118110236
        },
        {
          "duration": 0.12897714374999225,
          "durationTicks": 227,
          "midi": 80,
          "name": "G#5",
          "ticks": 127440,
          "time": 72.4090185,
          "velocity": 0.7559055118110236
        },
        {
          "duration": 0.12897714374999225,
          "durationTicks": 227,
          "midi": 75,
          "name": "D#5",
          "ticks": 127680,
          "time": 72.545382,
          "velocity": 0.7559055118110236
        },
        {
          "duration": 0.12897714374999225,
          "durationTicks": 227,
          "midi": 79,
          "name": "G5",
          "ticks": 127920,
          "time": 72.6817455,
          "velocity": 0.7559055118110236
        },
        {
          "duration": 0.12897714375000646,
          "durationTicks": 227,
          "midi": 78,
          "name": "F#5",
          "ticks": 128160,
          "time": 72.81810899999999,
          "velocity": 0.7559055118110236
        },
        {
          "duration": 0.12897714375000646,
          "durationTicks": 227,
          "midi": 76,
          "name": "E5",
          "ticks": 128400,
          "time": 72.9544725,
          "velocity": 0.7559055118110236
        },
        {
          "duration": 0.12897714375000646,
          "durationTicks": 227,
          "midi": 72,
          "name": "C5",
          "ticks": 128640,
          "time": 73.090836,
          "velocity": 0.7559055118110236
        },
        {
          "duration": 0.12897714375000646,
          "durationTicks": 227,
          "midi": 77,
          "name": "F5",
          "ticks": 128880,
          "time": 73.2271995,
          "velocity": 0.7559055118110236
        },
        {
          "duration": 0.12897714374999225,
          "durationTicks": 227,
          "midi": 73,
          "name": "C#5",
          "ticks": 129120,
          "time": 73.363563,
          "velocity": 0.7559055118110236
        },
        {
          "duration": 0.12897714374999225,
          "durationTicks": 227,
          "midi": 75,
          "name": "D#5",
          "ticks": 129360,
          "time": 73.4999265,
          "velocity": 0.7559055118110236
        },
        {
          "duration": 0.12897714374999225,
          "durationTicks": 227,
          "midi": 70,
          "name": "A#4",
          "ticks": 129600,
          "time": 73.63629,
          "velocity": 0.7559055118110236
        },
        {
          "duration": 0.12897714374999225,
          "durationTicks": 227,
          "midi": 75,
          "name": "D#5",
          "ticks": 129840,
          "time": 73.7726535,
          "velocity": 0.7559055118110236
        },
        {
          "duration": 0.12897714374999225,
          "durationTicks": 227,
          "midi": 72,
          "name": "C5",
          "ticks": 130080,
          "time": 73.909017,
          "velocity": 0.7559055118110236
        },
        {
          "duration": 0.12897714375000646,
          "durationTicks": 227,
          "midi": 77,
          "name": "F5",
          "ticks": 130320,
          "time": 74.0453805,
          "velocity": 0.7559055118110236
        },
        {
          "duration": 0.12897714375000646,
          "durationTicks": 227,
          "midi": 71,
          "name": "B4",
          "ticks": 130560,
          "time": 74.181744,
          "velocity": 0.7559055118110236
        },
        {
          "duration": 0.12897714375000646,
          "durationTicks": 227,
          "midi": 78,
          "name": "F#5",
          "ticks": 130800,
          "time": 74.3181075,
          "velocity": 0.7559055118110236
        },
        {
          "duration": 0.12897714375000646,
          "durationTicks": 227,
          "midi": 73,
          "name": "C#5",
          "ticks": 131040,
          "time": 74.454471,
          "velocity": 0.7559055118110236
        },
        {
          "duration": 0.3880677937499968,
          "durationTicks": 683,
          "midi": 80,
          "name": "G#5",
          "ticks": 131280,
          "time": 74.5908345,
          "velocity": 0.7559055118110236
        },
        {
          "duration": 0.3880677937499968,
          "durationTicks": 683,
          "midi": 76,
          "name": "E5",
          "ticks": 132480,
          "time": 75.272652,
          "velocity": 0.7559055118110236
        },
        {
          "duration": 0.3880677937499968,
          "durationTicks": 683,
          "midi": 83,
          "name": "B5",
          "ticks": 132480,
          "time": 75.272652,
          "velocity": 0.6535433070866141
        },
        {
          "duration": 0.12897714375000646,
          "durationTicks": 227,
          "midi": 73,
          "name": "C#5",
          "ticks": 133200,
          "time": 75.6817425,
          "velocity": 0.7559055118110236
        },
        {
          "duration": 0.3880677937499968,
          "durationTicks": 683,
          "midi": 76,
          "name": "E5",
          "ticks": 133440,
          "time": 75.818106,
          "velocity": 0.7559055118110236
        },
        {
          "duration": 0.3880677937499968,
          "durationTicks": 683,
          "midi": 83,
          "name": "B5",
          "ticks": 133440,
          "time": 75.818106,
          "velocity": 0.6535433070866141
        },
        {
          "duration": 0.12897714374999225,
          "durationTicks": 227,
          "midi": 73,
          "name": "C#5",
          "ticks": 134160,
          "time": 76.2271965,
          "velocity": 0.7559055118110236
        },
        {
          "duration": 0.12897714375000646,
          "durationTicks": 227,
          "midi": 76,
          "name": "E5",
          "ticks": 134400,
          "time": 76.36355999999999,
          "velocity": 0.7559055118110236
        },
        {
          "duration": 0.12897714375000646,
          "durationTicks": 227,
          "midi": 83,
          "name": "B5",
          "ticks": 134400,
          "time": 76.36355999999999,
          "velocity": 0.6535433070866141
        },
        {
          "duration": 0.12897714375000646,
          "durationTicks": 227,
          "midi": 73,
          "name": "C#5",
          "ticks": 134640,
          "time": 76.4999235,
          "velocity": 0.7559055118110236
        },
        {
          "duration": 0.12897714375000646,
          "durationTicks": 227,
          "midi": 76,
          "name": "E5",
          "ticks": 134880,
          "time": 76.636287,
          "velocity": 0.7559055118110236
        },
        {
          "duration": 0.12897714375000646,
          "durationTicks": 227,
          "midi": 83,
          "name": "B5",
          "ticks": 134880,
          "time": 76.636287,
          "velocity": 0.6535433070866141
        },
        {
          "duration": 0.12897714375000646,
          "durationTicks": 227,
          "midi": 78,
          "name": "F#5",
          "ticks": 135120,
          "time": 76.7726505,
          "velocity": 0.7559055118110236
        },
        {
          "duration": 0.5176131187500062,
          "durationTicks": 911,
          "midi": 80,
          "name": "G#5",
          "ticks": 135360,
          "time": 76.909014,
          "velocity": 0.7559055118110236
        },
        {
          "duration": 0.5176131187500062,
          "durationTicks": 911,
          "midi": 86,
          "name": "D6",
          "ticks": 135360,
          "time": 76.909014,
          "velocity": 0.6535433070866141
        },
        {
          "duration": 0.38806779374998257,
          "durationTicks": 683,
          "midi": 76,
          "name": "E5",
          "ticks": 136320,
          "time": 77.454468,
          "velocity": 0.7559055118110236
        },
        {
          "duration": 0.38806779374998257,
          "durationTicks": 683,
          "midi": 83,
          "name": "B5",
          "ticks": 136320,
          "time": 77.454468,
          "velocity": 0.7559055118110236
        },
        {
          "duration": 0.12897714375000646,
          "durationTicks": 227,
          "midi": 80,
          "name": "G#5",
          "ticks": 137040,
          "time": 77.8635585,
          "velocity": 0.7559055118110236
        },
        {
          "duration": 0.3880677937499968,
          "durationTicks": 683,
          "midi": 76,
          "name": "E5",
          "ticks": 137280,
          "time": 77.999922,
          "velocity": 0.7559055118110236
        },
        {
          "duration": 0.3880677937499968,
          "durationTicks": 683,
          "midi": 83,
          "name": "B5",
          "ticks": 137280,
          "time": 77.999922,
          "velocity": 0.7559055118110236
        },
        {
          "duration": 0.12897714374999225,
          "durationTicks": 227,
          "midi": 80,
          "name": "G#5",
          "ticks": 138000,
          "time": 78.4090125,
          "velocity": 0.7559055118110236
        },
        {
          "duration": 0.12897714374999225,
          "durationTicks": 227,
          "midi": 76,
          "name": "E5",
          "ticks": 138240,
          "time": 78.545376,
          "velocity": 0.7559055118110236
        },
        {
          "duration": 0.12897714374999225,
          "durationTicks": 227,
          "midi": 83,
          "name": "B5",
          "ticks": 138240,
          "time": 78.545376,
          "velocity": 0.7559055118110236
        },
        {
          "duration": 0.12897714374999225,
          "durationTicks": 227,
          "midi": 80,
          "name": "G#5",
          "ticks": 138480,
          "time": 78.6817395,
          "velocity": 0.7244094488188977
        },
        {
          "duration": 0.12897714375000646,
          "durationTicks": 227,
          "midi": 83,
          "name": "B5",
          "ticks": 138720,
          "time": 78.818103,
          "velocity": 0.6929133858267716
        },
        {
          "duration": 0.12897714375000646,
          "durationTicks": 227,
          "midi": 76,
          "name": "E5",
          "ticks": 138960,
          "time": 78.9544665,
          "velocity": 0.6614173228346457
        },
        {
          "duration": 0.3880677937499968,
          "durationTicks": 683,
          "midi": 76,
          "name": "E5",
          "ticks": 139200,
          "time": 79.09083,
          "velocity": 0.6299212598425197
        },
        {
          "duration": 0.3880677937499968,
          "durationTicks": 683,
          "midi": 88,
          "name": "E6",
          "ticks": 139200,
          "time": 79.09083,
          "velocity": 0.6299212598425197
        },
        {
          "duration": 0.12897714374999225,
          "durationTicks": 227,
          "midi": 76,
          "name": "E5",
          "ticks": 139920,
          "time": 79.4999205,
          "velocity": 0.5354330708661418
        },
        {
          "duration": 1.0352281354166735,
          "durationTicks": 911,
          "midi": 76,
          "name": "E5",
          "ticks": 140160,
          "time": 79.636284,
          "velocity": 0.5039370078740157
        },
        {
          "duration": 0.1284091979166675,
          "durationTicks": 113,
          "midi": 76,
          "name": "E5",
          "ticks": 141360,
          "time": 80.9999215,
          "velocity": 0.5039370078740157
        },
        {
          "duration": 0.1284091979166675,
          "durationTicks": 113,
          "midi": 71,
          "name": "B4",
          "ticks": 141480,
          "time": 81.13628525,
          "velocity": 0.5039370078740157
        },
        {
          "duration": 0.1284091979166675,
          "durationTicks": 113,
          "midi": 76,
          "name": "E5",
          "ticks": 141600,
          "time": 81.272649,
          "velocity": 0.5039370078740157
        },
        {
          "duration": 0.1284091979166675,
          "durationTicks": 113,
          "midi": 71,
          "name": "B4",
          "ticks": 141720,
          "time": 81.40901275,
          "velocity": 0.5039370078740157
        },
        {
          "duration": 0.1284091979166675,
          "durationTicks": 113,
          "midi": 76,
          "name": "E5",
          "ticks": 141840,
          "time": 81.5453765,
          "velocity": 0.5039370078740157
        },
        {
          "duration": 0.1284091979166675,
          "durationTicks": 113,
          "midi": 78,
          "name": "F#5",
          "ticks": 141960,
          "time": 81.68174025,
          "velocity": 0.5039370078740157
        },
        {
          "duration": 1.0352281354166593,
          "durationTicks": 911,
          "midi": 80,
          "name": "G#5",
          "ticks": 142080,
          "time": 81.818104,
          "velocity": 0.5039370078740157
        },
        {
          "duration": 0.1284091979166675,
          "durationTicks": 113,
          "midi": 80,
          "name": "G#5",
          "ticks": 143280,
          "time": 83.1817415,
          "velocity": 0.5039370078740157
        },
        {
          "duration": 0.1284091979166675,
          "durationTicks": 113,
          "midi": 76,
          "name": "E5",
          "ticks": 143400,
          "time": 83.31810525,
          "velocity": 0.5039370078740157
        },
        {
          "duration": 0.1284091979166675,
          "durationTicks": 113,
          "midi": 80,
          "name": "G#5",
          "ticks": 143520,
          "time": 83.454469,
          "velocity": 0.5039370078740157
        },
        {
          "duration": 0.1284091979166675,
          "durationTicks": 113,
          "midi": 76,
          "name": "E5",
          "ticks": 143640,
          "time": 83.59083275,
          "velocity": 0.5039370078740157
        },
        {
          "duration": 0.1284091979166675,
          "durationTicks": 113,
          "midi": 80,
          "name": "G#5",
          "ticks": 143760,
          "time": 83.7271965,
          "velocity": 0.5039370078740157
        },
        {
          "duration": 0.06704551041666207,
          "durationTicks": 59,
          "midi": 81,
          "name": "A5",
          "ticks": 143880,
          "time": 83.86356025,
          "velocity": 0.5039370078740157
        },
        {
          "duration": 0.21704563541666744,
          "durationTicks": 191,
          "midi": 82,
          "name": "A#5",
          "ticks": 143943,
          "time": 83.93515121875001,
          "velocity": 0.5039370078740157
        },
        {
          "duration": 0.9727280833333367,
          "durationTicks": 856,
          "midi": 83,
          "name": "B5",
          "ticks": 144000,
          "time": 83.99992400000001,
          "velocity": 0.5039370078740157
        },
        {
          "duration": 0.1284091979166675,
          "durationTicks": 113,
          "midi": 83,
          "name": "B5",
          "ticks": 145200,
          "time": 85.3635615,
          "velocity": 0.5039370078740157
        },
        {
          "duration": 0.1284091979166675,
          "durationTicks": 113,
          "midi": 82,
          "name": "A#5",
          "ticks": 145320,
          "time": 85.49992525,
          "velocity": 0.5039370078740157
        },
        {
          "duration": 0.1284091979166675,
          "durationTicks": 113,
          "midi": 83,
          "name": "B5",
          "ticks": 145440,
          "time": 85.636289,
          "velocity": 0.5039370078740157
        },
        {
          "duration": 0.1284091979166675,
          "durationTicks": 113,
          "midi": 82,
          "name": "A#5",
          "ticks": 145560,
          "time": 85.77265275,
          "velocity": 0.5039370078740157
        },
        {
          "duration": 0.1284091979166675,
          "durationTicks": 113,
          "midi": 83,
          "name": "B5",
          "ticks": 145680,
          "time": 85.9090165,
          "velocity": 0.5039370078740157
        },
        {
          "duration": 0.1284091979166675,
          "durationTicks": 113,
          "midi": 82,
          "name": "A#5",
          "ticks": 145800,
          "time": 86.04538025000001,
          "velocity": 0.5039370078740157
        },
        {
          "duration": 0.517045885416664,
          "durationTicks": 455,
          "midi": 83,
          "name": "B5",
          "ticks": 145920,
          "time": 86.18174400000001,
          "velocity": 0.5039370078740157
        },
        {
          "duration": 0.517045885416664,
          "durationTicks": 455,
          "midi": 78,
          "name": "F#5",
          "ticks": 146400,
          "time": 86.727199,
          "velocity": 0.5039370078740157
        },
        {
          "duration": 0.517045885416664,
          "durationTicks": 455,
          "midi": 80,
          "name": "G#5",
          "ticks": 146880,
          "time": 87.272654,
          "velocity": 0.5039370078740157
        },
        {
          "duration": 0.517045885416664,
          "durationTicks": 455,
          "midi": 83,
          "name": "B5",
          "ticks": 147360,
          "time": 87.818109,
          "velocity": 0.5039370078740157
        },
        {
          "duration": 1.0352281354166735,
          "durationTicks": 911,
          "midi": 80,
          "name": "G#5",
          "ticks": 147840,
          "time": 88.363564,
          "velocity": 0.5039370078740157
        },
        {
          "duration": 1.0352281354166735,
          "durationTicks": 911,
          "midi": 88,
          "name": "E6",
          "ticks": 147840,
          "time": 88.363564,
          "velocity": 0.5039370078740157
        },
        {
          "duration": 0.1284091979166675,
          "durationTicks": 113,
          "midi": 76,
          "name": "E5",
          "ticks": 149040,
          "time": 89.7272015,
          "velocity": 0.5039370078740157
        },
        {
          "duration": 0.1284091979166675,
          "durationTicks": 113,
          "midi": 76,
          "name": "E5",
          "ticks": 149160,
          "time": 89.86356525000001,
          "velocity": 0.5039370078740157
        },
        {
          "duration": 0.17159105208332903,
          "durationTicks": 151,
          "midi": 76,
          "name": "E5",
          "ticks": 149280,
          "time": 89.99992900000001,
          "velocity": 0.5039370078740157
        },
        {
          "duration": 0.17159105208332903,
          "durationTicks": 151,
          "midi": 76,
          "name": "E5",
          "ticks": 149440,
          "time": 90.18174733333333,
          "velocity": 0.5039370078740157
        },
        {
          "duration": 0.17159105208332903,
          "durationTicks": 151,
          "midi": 78,
          "name": "F#5",
          "ticks": 149600,
          "time": 90.36356566666667,
          "velocity": 0.5039370078740157
        },
        {
          "duration": 1.0352281354166735,
          "durationTicks": 911,
          "midi": 76,
          "name": "E5",
          "ticks": 149760,
          "time": 90.545384,
          "velocity": 0.5039370078740157
        },
        {
          "duration": 0.12840919791665328,
          "durationTicks": 113,
          "midi": 71,
          "name": "B4",
          "ticks": 151080,
          "time": 92.04538525000001,
          "velocity": 0.5039370078740157
        },
        {
          "duration": 0.1284091979166675,
          "durationTicks": 113,
          "midi": 76,
          "name": "E5",
          "ticks": 151200,
          "time": 92.181749,
          "velocity": 0.5039370078740157
        },
        {
          "duration": 0.2579547604166521,
          "durationTicks": 227,
          "midi": 76,
          "name": "E5",
          "ticks": 151320,
          "time": 92.31811275000001,
          "velocity": 0.5039370078740157
        },
        {
          "duration": 0.1284091979166675,
          "durationTicks": 113,
          "midi": 71,
          "name": "B4",
          "ticks": 151560,
          "time": 92.59084025,
          "velocity": 0.5039370078740157
        },
        {
          "duration": 1.0352281354166735,
          "durationTicks": 911,
          "midi": 76,
          "name": "E5",
          "ticks": 151680,
          "time": 92.727204,
          "velocity": 0.5039370078740157
        },
        {
          "duration": 0.17159105208334324,
          "durationTicks": 151,
          "midi": 76,
          "name": "E5",
          "ticks": 153120,
          "time": 94.363569,
          "velocity": 0.5039370078740157
        },
        {
          "duration": 0.17159105208332903,
          "durationTicks": 151,
          "midi": 76,
          "name": "E5",
          "ticks": 153280,
          "time": 94.54538733333334,
          "velocity": 0.5039370078740157
        },
        {
          "duration": 0.17159105208332903,
          "durationTicks": 151,
          "midi": 76,
          "name": "E5",
          "ticks": 153440,
          "time": 94.72720566666668,
          "velocity": 0.5039370078740157
        },
        {
          "duration": 1.0352281354166735,
          "durationTicks": 911,
          "midi": 78,
          "name": "F#5",
          "ticks": 153600,
          "time": 94.909024,
          "velocity": 0.5039370078740157
        },
        {
          "duration": 0.38750032291667935,
          "durationTicks": 341,
          "midi": 80,
          "name": "G#5",
          "ticks": 155040,
          "time": 96.545389,
          "velocity": 0.5039370078740157
        },
        {
          "duration": 0.1284091979166675,
          "durationTicks": 113,
          "midi": 76,
          "name": "E5",
          "ticks": 155400,
          "time": 96.95448025,
          "velocity": 0.5039370078740157
        },
        {
          "duration": 0.2579547604166663,
          "durationTicks": 227,
          "midi": 76,
          "name": "E5",
          "ticks": 155520,
          "time": 97.090844,
          "velocity": 0.5039370078740157
        },
        {
          "duration": 0.2585224687500016,
          "durationTicks": 455,
          "midi": 75,
          "name": "D#5",
          "ticks": 155760,
          "time": 97.3635715,
          "velocity": 0.4409448818897638
        },
        {
          "duration": 0.2585224687500016,
          "durationTicks": 455,
          "midi": 83,
          "name": "B5",
          "ticks": 155760,
          "time": 97.3635715,
          "velocity": 0.5039370078740157
        },
        {
          "duration": 0.2585224687500016,
          "durationTicks": 455,
          "midi": 75,
          "name": "D#5",
          "ticks": 156240,
          "time": 97.63629850000001,
          "velocity": 0.4409448818897638
        },
        {
          "duration": 0.2585224687500016,
          "durationTicks": 455,
          "midi": 83,
          "name": "B5",
          "ticks": 156240,
          "time": 97.63629850000001,
          "velocity": 0.5039370078740157
        },
        {
          "duration": 0.2585224687499874,
          "durationTicks": 455,
          "midi": 75,
          "name": "D#5",
          "ticks": 156720,
          "time": 97.90902550000001,
          "velocity": 0.4409448818897638
        },
        {
          "duration": 0.2585224687499874,
          "durationTicks": 455,
          "midi": 83,
          "name": "B5",
          "ticks": 156720,
          "time": 97.90902550000001,
          "velocity": 0.5039370078740157
        },
        {
          "duration": 0.2585224687500016,
          "durationTicks": 455,
          "midi": 75,
          "name": "D#5",
          "ticks": 157200,
          "time": 98.1817525,
          "velocity": 0.4409448818897638
        },
        {
          "duration": 0.2585224687500016,
          "durationTicks": 455,
          "midi": 83,
          "name": "B5",
          "ticks": 157200,
          "time": 98.1817525,
          "velocity": 0.5039370078740157
        },
        {
          "duration": 0.3880677937499968,
          "durationTicks": 683,
          "midi": 76,
          "name": "E5",
          "ticks": 157680,
          "time": 98.4544795,
          "velocity": 0.4409448818897638
        },
        {
          "duration": 0.3880677937499968,
          "durationTicks": 683,
          "midi": 83,
          "name": "B5",
          "ticks": 157680,
          "time": 98.4544795,
          "velocity": 0.5039370078740157
        },
        {
          "duration": 0.3880677937499968,
          "durationTicks": 683,
          "midi": 80,
          "name": "G#5",
          "ticks": 158400,
          "time": 98.86357000000001,
          "velocity": 0.5039370078740157
        },
        {
          "duration": 0.3880677937499968,
          "durationTicks": 683,
          "midi": 88,
          "name": "E6",
          "ticks": 158400,
          "time": 98.86357000000001,
          "velocity": 0.5039370078740157
        },
        {
          "duration": 0.2585224687500016,
          "durationTicks": 455,
          "midi": 75,
          "name": "D#5",
          "ticks": 159600,
          "time": 99.5453875,
          "velocity": 0.4409448818897638
        },
        {
          "duration": 0.2585224687500016,
          "durationTicks": 455,
          "midi": 83,
          "name": "B5",
          "ticks": 159600,
          "time": 99.5453875,
          "velocity": 0.5039370078740157
        },
        {
          "duration": 0.2585224687500016,
          "durationTicks": 455,
          "midi": 75,
          "name": "D#5",
          "ticks": 160080,
          "time": 99.81811450000001,
          "velocity": 0.4409448818897638
        },
        {
          "duration": 0.2585224687500016,
          "durationTicks": 455,
          "midi": 83,
          "name": "B5",
          "ticks": 160080,
          "time": 99.81811450000001,
          "velocity": 0.5039370078740157
        },
        {
          "duration": 0.2585224687500016,
          "durationTicks": 455,
          "midi": 76,
          "name": "E5",
          "ticks": 160560,
          "time": 100.09084150000001,
          "velocity": 0.4409448818897638
        },
        {
          "duration": 0.2585224687500016,
          "durationTicks": 455,
          "midi": 83,
          "name": "B5",
          "ticks": 160560,
          "time": 100.09084150000001,
          "velocity": 0.5039370078740157
        },
        {
          "duration": 0.2585224687500016,
          "durationTicks": 455,
          "midi": 76,
          "name": "E5",
          "ticks": 161040,
          "time": 100.3635685,
          "velocity": 0.4409448818897638
        },
        {
          "duration": 0.2585224687500016,
          "durationTicks": 455,
          "midi": 83,
          "name": "B5",
          "ticks": 161040,
          "time": 100.3635685,
          "velocity": 0.5039370078740157
        },
        {
          "duration": 0.12897714375000646,
          "durationTicks": 227,
          "midi": 88,
          "name": "E6",
          "ticks": 162000,
          "time": 100.9090225,
          "velocity": 0.5039370078740157
        },
        {
          "duration": 0.12897714374999225,
          "durationTicks": 227,
          "midi": 76,
          "name": "E5",
          "ticks": 162240,
          "time": 101.04538600000001,
          "velocity": 0.5039370078740157
        },
        {
          "duration": 0.12897714374999225,
          "durationTicks": 227,
          "midi": 80,
          "name": "G#5",
          "ticks": 162240,
          "time": 101.04538600000001,
          "velocity": 0.5039370078740157
        },
        {
          "duration": 0.3880677937499968,
          "durationTicks": 683,
          "midi": 75,
          "name": "D#5",
          "ticks": 162720,
          "time": 101.31811300000001,
          "velocity": 0.5039370078740157
        },
        {
          "duration": 0.3880677937499968,
          "durationTicks": 683,
          "midi": 78,
          "name": "F#5",
          "ticks": 162720,
          "time": 101.31811300000001,
          "velocity": 0.5039370078740157
        },
        {
          "duration": 0.3880677937499968,
          "durationTicks": 683,
          "midi": 75,
          "name": "D#5",
          "ticks": 163440,
          "time": 101.7272035,
          "velocity": 0.5039370078740157
        },
        {
          "duration": 0.3880677937499968,
          "durationTicks": 683,
          "midi": 83,
          "name": "B5",
          "ticks": 163440,
          "time": 101.7272035,
          "velocity": 0.5039370078740157
        },
        {
          "duration": 0.12897714374999225,
          "durationTicks": 227,
          "midi": 80,
          "name": "G#5",
          "ticks": 164160,
          "time": 102.136294,
          "velocity": 0.5039370078740157
        },
        {
          "duration": 0.3880677937499968,
          "durationTicks": 683,
          "midi": 75,
          "name": "D#5",
          "ticks": 164400,
          "time": 102.27265750000001,
          "velocity": 0.5039370078740157
        },
        {
          "duration": 0.3880677937499968,
          "durationTicks": 683,
          "midi": 83,
          "name": "B5",
          "ticks": 164400,
          "time": 102.27265750000001,
          "velocity": 0.5039370078740157
        },
        {
          "duration": 0.12897714375000646,
          "durationTicks": 227,
          "midi": 80,
          "name": "G#5",
          "ticks": 165120,
          "time": 102.681748,
          "velocity": 0.5039370078740157
        },
        {
          "duration": 0.12897714375000646,
          "durationTicks": 227,
          "midi": 76,
          "name": "E5",
          "ticks": 165360,
          "time": 102.8181115,
          "velocity": 0.5039370078740157
        },
        {
          "duration": 0.12897714375000646,
          "durationTicks": 227,
          "midi": 83,
          "name": "B5",
          "ticks": 165360,
          "time": 102.8181115,
          "velocity": 0.5039370078740157
        },
        {
          "duration": 0.12897714375000646,
          "durationTicks": 227,
          "midi": 80,
          "name": "G#5",
          "ticks": 165600,
          "time": 102.954475,
          "velocity": 0.5039370078740157
        },
        {
          "duration": 0.12897714375000646,
          "durationTicks": 227,
          "midi": 83,
          "name": "B5",
          "ticks": 165840,
          "time": 103.0908385,
          "velocity": 0.5039370078740157
        },
        {
          "duration": 0.12897714375000646,
          "durationTicks": 227,
          "midi": 85,
          "name": "C#6",
          "ticks": 166080,
          "time": 103.227202,
          "velocity": 0.5039370078740157
        },
        {
          "duration": 0.5176131187499919,
          "durationTicks": 911,
          "midi": 76,
          "name": "E5",
          "ticks": 166320,
          "time": 103.3635655,
          "velocity": 0.5039370078740157
        },
        {
          "duration": 0.5176131187499919,
          "durationTicks": 911,
          "midi": 83,
          "name": "B5",
          "ticks": 166320,
          "time": 103.3635655,
          "velocity": 0.5039370078740157
        },
        {
          "duration": 0.388067793750011,
          "durationTicks": 683,
          "midi": 73,
          "name": "C#5",
          "ticks": 167280,
          "time": 103.9090195,
          "velocity": 0.5039370078740157
        },
        {
          "duration": 0.388067793750011,
          "durationTicks": 683,
          "midi": 76,
          "name": "E5",
          "ticks": 167280,
          "time": 103.9090195,
          "velocity": 0.5039370078740157
        },
        {
          "duration": 0.12897714375000646,
          "durationTicks": 227,
          "midi": 78,
          "name": "F#5",
          "ticks": 168000,
          "time": 104.31811,
          "velocity": 0.5039370078740157
        },
        {
          "duration": 0.3880677937499968,
          "durationTicks": 683,
          "midi": 76,
          "name": "E5",
          "ticks": 168240,
          "time": 104.4544735,
          "velocity": 0.5039370078740157
        },
        {
          "duration": 0.12897714374999225,
          "durationTicks": 227,
          "midi": 78,
          "name": "F#5",
          "ticks": 168960,
          "time": 104.86356400000001,
          "velocity": 0.5039370078740157
        },
        {
          "duration": 0.12897714374999225,
          "durationTicks": 227,
          "midi": 76,
          "name": "E5",
          "ticks": 169200,
          "time": 104.99992750000001,
          "velocity": 0.5039370078740157
        },
        {
          "duration": 0.12897714375000646,
          "durationTicks": 227,
          "midi": 78,
          "name": "F#5",
          "ticks": 169440,
          "time": 105.136291,
          "velocity": 0.5039370078740157
        },
        {
          "duration": 0.12897714375000646,
          "durationTicks": 227,
          "midi": 76,
          "name": "E5",
          "ticks": 169680,
          "time": 105.2726545,
          "velocity": 0.5039370078740157
        },
        {
          "duration": 0.12897714375000646,
          "durationTicks": 227,
          "midi": 78,
          "name": "F#5",
          "ticks": 169920,
          "time": 105.409018,
          "velocity": 0.5039370078740157
        },
        {
          "duration": 0.2585224687500016,
          "durationTicks": 455,
          "midi": 76,
          "name": "E5",
          "ticks": 170160,
          "time": 105.5453815,
          "velocity": 0.5039370078740157
        },
        {
          "duration": 0.2585224687500016,
          "durationTicks": 455,
          "midi": 75,
          "name": "D#5",
          "ticks": 171120,
          "time": 106.09083550000001,
          "velocity": 0.4409448818897638
        },
        {
          "duration": 0.2585224687500016,
          "durationTicks": 455,
          "midi": 83,
          "name": "B5",
          "ticks": 171120,
          "time": 106.09083550000001,
          "velocity": 0.5039370078740157
        },
        {
          "duration": 0.2585224687500016,
          "durationTicks": 455,
          "midi": 75,
          "name": "D#5",
          "ticks": 171600,
          "time": 106.3635625,
          "velocity": 0.4409448818897638
        },
        {
          "duration": 0.2585224687500016,
          "durationTicks": 455,
          "midi": 83,
          "name": "B5",
          "ticks": 171600,
          "time": 106.3635625,
          "velocity": 0.5039370078740157
        },
        {
          "duration": 0.2585224687500016,
          "durationTicks": 455,
          "midi": 75,
          "name": "D#5",
          "ticks": 172080,
          "time": 106.6362895,
          "velocity": 0.4409448818897638
        },
        {
          "duration": 0.2585224687500016,
          "durationTicks": 455,
          "midi": 83,
          "name": "B5",
          "ticks": 172080,
          "time": 106.6362895,
          "velocity": 0.5039370078740157
        },
        {
          "duration": 0.2585224687500016,
          "durationTicks": 455,
          "midi": 75,
          "name": "D#5",
          "ticks": 172560,
          "time": 106.9090165,
          "velocity": 0.4409448818897638
        },
        {
          "duration": 0.2585224687500016,
          "durationTicks": 455,
          "midi": 83,
          "name": "B5",
          "ticks": 172560,
          "time": 106.9090165,
          "velocity": 0.5039370078740157
        },
        {
          "duration": 0.3880677937499968,
          "durationTicks": 683,
          "midi": 81,
          "name": "A5",
          "ticks": 173040,
          "time": 107.18174350000001,
          "velocity": 0.4409448818897638
        },
        {
          "duration": 0.3880677937499968,
          "durationTicks": 683,
          "midi": 90,
          "name": "F#6",
          "ticks": 173040,
          "time": 107.18174350000001,
          "velocity": 0.5039370078740157
        },
        {
          "duration": 0.388067793750011,
          "durationTicks": 683,
          "midi": 80,
          "name": "G#5",
          "ticks": 173760,
          "time": 107.590834,
          "velocity": 0.5039370078740157
        },
        {
          "duration": 0.388067793750011,
          "durationTicks": 683,
          "midi": 88,
          "name": "E6",
          "ticks": 173760,
          "time": 107.590834,
          "velocity": 0.5039370078740157
        },
        {
          "duration": 0.2585224687500016,
          "durationTicks": 455,
          "midi": 75,
          "name": "D#5",
          "ticks": 174960,
          "time": 108.27265150000001,
          "velocity": 0.4409448818897638
        },
        {
          "duration": 0.2585224687500016,
          "durationTicks": 455,
          "midi": 83,
          "name": "B5",
          "ticks": 174960,
          "time": 108.27265150000001,
          "velocity": 0.5039370078740157
        },
        {
          "duration": 0.12897714375000646,
          "durationTicks": 227,
          "midi": 83,
          "name": "B5",
          "ticks": 175440,
          "time": 108.5453785,
          "velocity": 0.5039370078740157
        },
        {
          "duration": 0.12897714375000646,
          "durationTicks": 227,
          "midi": 83,
          "name": "B5",
          "ticks": 175680,
          "time": 108.681742,
          "velocity": 0.5039370078740157
        },
        {
          "duration": 0.12897714375000646,
          "durationTicks": 227,
          "midi": 83,
          "name": "B5",
          "ticks": 175920,
          "time": 108.8181055,
          "velocity": 0.5039370078740157
        },
        {
          "duration": 0.2585224687500016,
          "durationTicks": 455,
          "midi": 80,
          "name": "G#5",
          "ticks": 176160,
          "time": 108.954469,
          "velocity": 0.5039370078740157
        },
        {
          "duration": 0.2585224687500016,
          "durationTicks": 455,
          "midi": 92,
          "name": "G#6",
          "ticks": 176160,
          "time": 108.954469,
          "velocity": 0.5039370078740157
        },
        {
          "duration": 0.12897714375000646,
          "durationTicks": 227,
          "midi": 80,
          "name": "G#5",
          "ticks": 176640,
          "time": 109.227196,
          "velocity": 0.5039370078740157
        },
        {
          "duration": 0.12897714375000646,
          "durationTicks": 227,
          "midi": 92,
          "name": "G#6",
          "ticks": 176640,
          "time": 109.227196,
          "velocity": 0.5039370078740157
        },
        {
          "duration": 0.12897714374999225,
          "durationTicks": 227,
          "midi": 83,
          "name": "B5",
          "ticks": 177360,
          "time": 109.63628650000001,
          "velocity": 0.5039370078740157
        },
        {
          "duration": 0.12897714375000646,
          "durationTicks": 227,
          "midi": 76,
          "name": "E5",
          "ticks": 177600,
          "time": 109.77265,
          "velocity": 0.5039370078740157
        },
        {
          "duration": 0.12897714375000646,
          "durationTicks": 227,
          "midi": 80,
          "name": "G#5",
          "ticks": 177600,
          "time": 109.77265,
          "velocity": 0.5039370078740157
        },
        {
          "duration": 0.3880677937499968,
          "durationTicks": 683,
          "midi": 75,
          "name": "D#5",
          "ticks": 178080,
          "time": 110.045377,
          "velocity": 0.5039370078740157
        },
        {
          "duration": 0.3880677937499968,
          "durationTicks": 683,
          "midi": 78,
          "name": "F#5",
          "ticks": 178080,
          "time": 110.045377,
          "velocity": 0.5039370078740157
        },
        {
          "duration": 0.3880677937499968,
          "durationTicks": 683,
          "midi": 75,
          "name": "D#5",
          "ticks": 178800,
          "time": 110.4544675,
          "velocity": 0.5039370078740157
        },
        {
          "duration": 0.3880677937499968,
          "durationTicks": 683,
          "midi": 83,
          "name": "B5",
          "ticks": 178800,
          "time": 110.4544675,
          "velocity": 0.5039370078740157
        },
        {
          "duration": 0.12897714374999225,
          "durationTicks": 227,
          "midi": 85,
          "name": "C#6",
          "ticks": 179520,
          "time": 110.86355800000001,
          "velocity": 0.5039370078740157
        },
        {
          "duration": 0.388067793750011,
          "durationTicks": 683,
          "midi": 75,
          "name": "D#5",
          "ticks": 179760,
          "time": 110.9999215,
          "velocity": 0.5039370078740157
        },
        {
          "duration": 0.388067793750011,
          "durationTicks": 683,
          "midi": 83,
          "name": "B5",
          "ticks": 179760,
          "time": 110.9999215,
          "velocity": 0.5039370078740157
        },
        {
          "duration": 0.12897714375000646,
          "durationTicks": 227,
          "midi": 80,
          "name": "G#5",
          "ticks": 180480,
          "time": 111.409012,
          "velocity": 0.5039370078740157
        },
        {
          "duration": 0.12897714375000646,
          "durationTicks": 227,
          "midi": 76,
          "name": "E5",
          "ticks": 180720,
          "time": 111.5453755,
          "velocity": 0.5039370078740157
        },
        {
          "duration": 0.12897714375000646,
          "durationTicks": 227,
          "midi": 83,
          "name": "B5",
          "ticks": 180720,
          "time": 111.5453755,
          "velocity": 0.5039370078740157
        },
        {
          "duration": 0.12897714374999225,
          "durationTicks": 227,
          "midi": 80,
          "name": "G#5",
          "ticks": 180960,
          "time": 111.68173900000001,
          "velocity": 0.5039370078740157
        },
        {
          "duration": 0.12897714374999225,
          "durationTicks": 227,
          "midi": 83,
          "name": "B5",
          "ticks": 181200,
          "time": 111.81810250000001,
          "velocity": 0.5039370078740157
        },
        {
          "duration": 0.12897714374999225,
          "durationTicks": 227,
          "midi": 85,
          "name": "C#6",
          "ticks": 181440,
          "time": 111.95446600000001,
          "velocity": 0.5039370078740157
        },
        {
          "duration": 0.5176131187499919,
          "durationTicks": 911,
          "midi": 76,
          "name": "E5",
          "ticks": 181680,
          "time": 112.09082950000001,
          "velocity": 0.5039370078740157
        },
        {
          "duration": 0.5176131187499919,
          "durationTicks": 911,
          "midi": 83,
          "name": "B5",
          "ticks": 181680,
          "time": 112.09082950000001,
          "velocity": 0.5039370078740157
        },
        {
          "duration": 0.3880677937499968,
          "durationTicks": 683,
          "midi": 73,
          "name": "C#5",
          "ticks": 182640,
          "time": 112.6362835,
          "velocity": 0.5039370078740157
        },
        {
          "duration": 0.3880677937499968,
          "durationTicks": 683,
          "midi": 76,
          "name": "E5",
          "ticks": 182640,
          "time": 112.6362835,
          "velocity": 0.5039370078740157
        },
        {
          "duration": 0.12897714374999225,
          "durationTicks": 227,
          "midi": 78,
          "name": "F#5",
          "ticks": 183360,
          "time": 113.04537400000001,
          "velocity": 0.5039370078740157
        },
        {
          "duration": 0.3880677937499968,
          "durationTicks": 683,
          "midi": 76,
          "name": "E5",
          "ticks": 183600,
          "time": 113.18173750000001,
          "velocity": 0.5039370078740157
        },
        {
          "duration": 0.12897714375000646,
          "durationTicks": 227,
          "midi": 78,
          "name": "F#5",
          "ticks": 184320,
          "time": 113.590828,
          "velocity": 0.5039370078740157
        },
        {
          "duration": 0.12897714375000646,
          "durationTicks": 227,
          "midi": 76,
          "name": "E5",
          "ticks": 184560,
          "time": 113.7271915,
          "velocity": 0.5039370078740157
        },
        {
          "duration": 0.12897714375000646,
          "durationTicks": 227,
          "midi": 78,
          "name": "F#5",
          "ticks": 184800,
          "time": 113.863555,
          "velocity": 0.5039370078740157
        },
        {
          "duration": 0.12897714375000646,
          "durationTicks": 227,
          "midi": 76,
          "name": "E5",
          "ticks": 185040,
          "time": 113.9999185,
          "velocity": 0.5039370078740157
        },
        {
          "duration": 0.12897714374999225,
          "durationTicks": 227,
          "midi": 78,
          "name": "F#5",
          "ticks": 185280,
          "time": 114.13628200000001,
          "velocity": 0.5039370078740157
        },
        {
          "duration": 0.2585224687499874,
          "durationTicks": 455,
          "midi": 76,
          "name": "E5",
          "ticks": 185520,
          "time": 114.27264550000001,
          "velocity": 0.5039370078740157
        },
        {
          "duration": 0.2585224687499874,
          "durationTicks": 455,
          "midi": 78,
          "name": "F#5",
          "ticks": 186000,
          "time": 114.54537250000001,
          "velocity": 0.5039370078740157
        },
        {
          "duration": 0.2585224687500016,
          "durationTicks": 455,
          "midi": 85,
          "name": "C#6",
          "ticks": 186960,
          "time": 115.0908265,
          "velocity": 0.5039370078740157
        },
        {
          "duration": 0.12897714374999225,
          "durationTicks": 227,
          "midi": 83,
          "name": "B5",
          "ticks": 187440,
          "time": 115.36355350000001,
          "velocity": 0.5039370078740157
        },
        {
          "duration": 0.12897714374999225,
          "durationTicks": 227,
          "midi": 80,
          "name": "G#5",
          "ticks": 187680,
          "time": 115.49991700000001,
          "velocity": 0.5039370078740157
        },
        {
          "duration": 0.12897714375000646,
          "durationTicks": 227,
          "midi": 78,
          "name": "F#5",
          "ticks": 187920,
          "time": 115.6362805,
          "velocity": 0.5039370078740157
        },
        {
          "duration": 0.12897714374999225,
          "durationTicks": 227,
          "midi": 76,
          "name": "E5",
          "ticks": 188160,
          "time": 115.77264400000001,
          "velocity": 0.5039370078740157
        },
        {
          "duration": 0.1721589187500001,
          "durationTicks": 303,
          "midi": 76,
          "name": "E5",
          "ticks": 188400,
          "time": 115.9090075,
          "velocity": 0.5039370078740157
        },
        {
          "duration": 0.1721589187500001,
          "durationTicks": 303,
          "midi": 76,
          "name": "E5",
          "ticks": 188720,
          "time": 116.09082550000001,
          "velocity": 0.5039370078740157
        },
        {
          "duration": 0.17215891875001432,
          "durationTicks": 303,
          "midi": 76,
          "name": "E5",
          "ticks": 189040,
          "time": 116.2726435,
          "velocity": 0.5039370078740157
        },
        {
          "duration": 0.1721589187500001,
          "durationTicks": 303,
          "midi": 69,
          "name": "A4",
          "ticks": 189360,
          "time": 116.45446150000001,
          "velocity": 0.5039370078740157
        },
        {
          "duration": 0.1721589187500001,
          "durationTicks": 303,
          "midi": 78,
          "name": "F#5",
          "ticks": 189360,
          "time": 116.45446150000001,
          "velocity": 0.5039370078740157
        },
        {
          "duration": 0.1721589187500001,
          "durationTicks": 303,
          "midi": 71,
          "name": "B4",
          "ticks": 189680,
          "time": 116.6362795,
          "velocity": 0.5039370078740157
        },
        {
          "duration": 0.1721589187500001,
          "durationTicks": 303,
          "midi": 74,
          "name": "D5",
          "ticks": 190000,
          "time": 116.81809750000001,
          "velocity": 0.5039370078740157
        },
        {
          "duration": 0.5176131187499919,
          "durationTicks": 911,
          "midi": 71,
          "name": "B4",
          "ticks": 190320,
          "time": 116.99991550000001,
          "velocity": 0.7559055118110236
        },
        {
          "duration": 0.5176131187499919,
          "durationTicks": 911,
          "midi": 80,
          "name": "G#5",
          "ticks": 190320,
          "time": 116.99991550000001,
          "velocity": 0.7559055118110236
        },
        {
          "duration": 0.5176131187499919,
          "durationTicks": 911,
          "midi": 83,
          "name": "B5",
          "ticks": 190320,
          "time": 116.99991550000001,
          "velocity": 0.7559055118110236
        },
        {
          "duration": 0.12897714374999225,
          "durationTicks": 227,
          "midi": 80,
          "name": "G#5",
          "ticks": 191280,
          "time": 117.5453695,
          "velocity": 0.7559055118110236
        },
        {
          "duration": 0.12897714374999225,
          "durationTicks": 227,
          "midi": 81,
          "name": "A5",
          "ticks": 191520,
          "time": 117.68173300000001,
          "velocity": 0.7559055118110236
        },
        {
          "duration": 0.12897714374999225,
          "durationTicks": 227,
          "midi": 83,
          "name": "B5",
          "ticks": 191760,
          "time": 117.81809650000001,
          "velocity": 0.7559055118110236
        },
        {
          "duration": 0.12897714374999225,
          "durationTicks": 227,
          "midi": 85,
          "name": "C#6",
          "ticks": 192000,
          "time": 117.95446000000001,
          "velocity": 0.7559055118110236
        },
        {
          "duration": 0.13579531875001294,
          "durationTicks": 239,
          "midi": 71,
          "name": "B4",
          "ticks": 192240,
          "time": 118.0908235,
          "velocity": 0.7559055118110236
        },
        {
          "duration": 0.13579531875001294,
          "durationTicks": 239,
          "midi": 83,
          "name": "B5",
          "ticks": 192240,
          "time": 118.0908235,
          "velocity": 0.7559055118110236
        },
        {
          "duration": 0.2585224687500016,
          "durationTicks": 455,
          "midi": 69,
          "name": "A4",
          "ticks": 192720,
          "time": 118.3635505,
          "velocity": 0.7559055118110236
        },
        {
          "duration": 0.2585224687500016,
          "durationTicks": 455,
          "midi": 81,
          "name": "A5",
          "ticks": 192720,
          "time": 118.3635505,
          "velocity": 0.7559055118110236
        },
        {
          "duration": 0.2585224687500016,
          "durationTicks": 455,
          "midi": 68,
          "name": "G#4",
          "ticks": 193200,
          "time": 118.6362775,
          "velocity": 0.7559055118110236
        },
        {
          "duration": 0.2585224687500016,
          "durationTicks": 455,
          "midi": 80,
          "name": "G#5",
          "ticks": 193200,
          "time": 118.6362775,
          "velocity": 0.7559055118110236
        },
        {
          "duration": 0.5176131187499919,
          "durationTicks": 911,
          "midi": 68,
          "name": "G#4",
          "ticks": 193680,
          "time": 118.90900450000001,
          "velocity": 0.7559055118110236
        },
        {
          "duration": 0.5176131187499919,
          "durationTicks": 911,
          "midi": 76,
          "name": "E5",
          "ticks": 193680,
          "time": 118.90900450000001,
          "velocity": 0.7559055118110236
        },
        {
          "duration": 0.5176131187499919,
          "durationTicks": 911,
          "midi": 80,
          "name": "G#5",
          "ticks": 193680,
          "time": 118.90900450000001,
          "velocity": 0.7559055118110236
        },
        {
          "duration": 0.12897714375000646,
          "durationTicks": 227,
          "midi": 76,
          "name": "E5",
          "ticks": 194640,
          "time": 119.4544585,
          "velocity": 0.7559055118110236
        },
        {
          "duration": 0.12897714375000646,
          "durationTicks": 227,
          "midi": 78,
          "name": "F#5",
          "ticks": 194880,
          "time": 119.590822,
          "velocity": 0.7559055118110236
        },
        {
          "duration": 0.12897714374999225,
          "durationTicks": 227,
          "midi": 80,
          "name": "G#5",
          "ticks": 195120,
          "time": 119.7271855,
          "velocity": 0.7559055118110236
        },
        {
          "duration": 0.12897714375000646,
          "durationTicks": 227,
          "midi": 83,
          "name": "B5",
          "ticks": 195360,
          "time": 119.863549,
          "velocity": 0.7559055118110236
        },
        {
          "duration": 0.13579531874999873,
          "durationTicks": 239,
          "midi": 72,
          "name": "C5",
          "ticks": 195600,
          "time": 119.99991250000001,
          "velocity": 0.7559055118110236
        },
        {
          "duration": 0.13579531874999873,
          "durationTicks": 239,
          "midi": 84,
          "name": "C6",
          "ticks": 195600,
          "time": 119.99991250000001,
          "velocity": 0.7559055118110236
        },
        {
          "duration": 0.2585224687500016,
          "durationTicks": 455,
          "midi": 71,
          "name": "B4",
          "ticks": 196080,
          "time": 120.27263950000001,
          "velocity": 0.7559055118110236
        },
        {
          "duration": 0.2585224687500016,
          "durationTicks": 455,
          "midi": 83,
          "name": "B5",
          "ticks": 196080,
          "time": 120.27263950000001,
          "velocity": 0.7559055118110236
        },
        {
          "duration": 0.25852246875001583,
          "durationTicks": 455,
          "midi": 69,
          "name": "A4",
          "ticks": 196560,
          "time": 120.5453665,
          "velocity": 0.7559055118110236
        },
        {
          "duration": 0.25852246875001583,
          "durationTicks": 455,
          "midi": 81,
          "name": "A5",
          "ticks": 196560,
          "time": 120.5453665,
          "velocity": 0.7559055118110236
        },
        {
          "duration": 0.2585224687500016,
          "durationTicks": 455,
          "midi": 72,
          "name": "C5",
          "ticks": 197040,
          "time": 120.8180935,
          "velocity": 0.7559055118110236
        },
        {
          "duration": 0.2585224687500016,
          "durationTicks": 455,
          "midi": 84,
          "name": "C6",
          "ticks": 197040,
          "time": 120.8180935,
          "velocity": 0.7559055118110236
        },
        {
          "duration": 0.3880677937499968,
          "durationTicks": 683,
          "midi": 71,
          "name": "B4",
          "ticks": 197520,
          "time": 121.0908205,
          "velocity": 0.7559055118110236
        },
        {
          "duration": 0.3880677937499968,
          "durationTicks": 683,
          "midi": 75,
          "name": "D#5",
          "ticks": 197520,
          "time": 121.0908205,
          "velocity": 0.7559055118110236
        },
        {
          "duration": 0.3880677937499968,
          "durationTicks": 683,
          "midi": 83,
          "name": "B5",
          "ticks": 197520,
          "time": 121.0908205,
          "velocity": 0.7559055118110236
        },
        {
          "duration": 0.12897714375000646,
          "durationTicks": 227,
          "midi": 80,
          "name": "G#5",
          "ticks": 198240,
          "time": 121.499911,
          "velocity": 0.7559055118110236
        },
        {
          "duration": 0.12897714374999225,
          "durationTicks": 227,
          "midi": 83,
          "name": "B5",
          "ticks": 198480,
          "time": 121.63627450000001,
          "velocity": 0.7559055118110236
        },
        {
          "duration": 0.12897714375000646,
          "durationTicks": 227,
          "midi": 85,
          "name": "C#6",
          "ticks": 198720,
          "time": 121.772638,
          "velocity": 0.7559055118110236
        },
        {
          "duration": 0.12897714375000646,
          "durationTicks": 227,
          "midi": 87,
          "name": "D#6",
          "ticks": 198960,
          "time": 121.9090015,
          "velocity": 0.7559055118110236
        },
        {
          "duration": 0.12897714375000646,
          "durationTicks": 227,
          "midi": 76,
          "name": "E5",
          "ticks": 199200,
          "time": 122.045365,
          "velocity": 0.7559055118110236
        },
        {
          "duration": 0.12897714375000646,
          "durationTicks": 227,
          "midi": 88,
          "name": "E6",
          "ticks": 199200,
          "time": 122.045365,
          "velocity": 0.7559055118110236
        },
        {
          "duration": 0.12897714375000646,
          "durationTicks": 227,
          "midi": 79,
          "name": "G5",
          "ticks": 199680,
          "time": 122.31809200000001,
          "velocity": 0.7559055118110236
        },
        {
          "duration": 0.6471584437500013,
          "durationTicks": 1139,
          "midi": 78,
          "name": "F#5",
          "ticks": 200160,
          "time": 122.59081900000001,
          "velocity": 0.7559055118110236
        },
        {
          "duration": 0.2585224687500016,
          "durationTicks": 455,
          "midi": 76,
          "name": "E5",
          "ticks": 201360,
          "time": 123.2726365,
          "velocity": 0.7559055118110236
        },
        {
          "duration": 0.12897714374999225,
          "durationTicks": 227,
          "midi": 76,
          "name": "E5",
          "ticks": 201840,
          "time": 123.54536350000001,
          "velocity": 0.7559055118110236
        },
        {
          "duration": 0.12897714374999225,
          "durationTicks": 227,
          "midi": 76,
          "name": "E5",
          "ticks": 202080,
          "time": 123.68172700000001,
          "velocity": 0.7559055118110236
        },
        {
          "duration": 0.12897714374999225,
          "durationTicks": 227,
          "midi": 76,
          "name": "E5",
          "ticks": 202320,
          "time": 123.81809050000001,
          "velocity": 0.7559055118110236
        },
        {
          "duration": 0.12897714375000646,
          "durationTicks": 227,
          "midi": 76,
          "name": "E5",
          "ticks": 202560,
          "time": 123.954454,
          "velocity": 0.7559055118110236
        },
        {
          "duration": 0.12897714374999225,
          "durationTicks": 227,
          "midi": 76,
          "name": "E5",
          "ticks": 202800,
          "time": 124.09081750000001,
          "velocity": 0.7559055118110236
        },
        {
          "duration": 0.12897714375000646,
          "durationTicks": 227,
          "midi": 76,
          "name": "E5",
          "ticks": 203040,
          "time": 124.227181,
          "velocity": 0.7559055118110236
        },
        {
          "duration": 0.388067793750011,
          "durationTicks": 683,
          "midi": 76,
          "name": "E5",
          "ticks": 203280,
          "time": 124.3635445,
          "velocity": 0.7559055118110236
        },
        {
          "duration": 0.388067793750011,
          "durationTicks": 683,
          "midi": 88,
          "name": "E6",
          "ticks": 203280,
          "time": 124.3635445,
          "velocity": 0.7559055118110236
        },
        {
          "duration": 0.12897714374999225,
          "durationTicks": 227,
          "midi": 71,
          "name": "B4",
          "ticks": 204000,
          "time": 124.77263500000001,
          "velocity": 0.7559055118110236
        },
        {
          "duration": 0.12897714374999225,
          "durationTicks": 227,
          "midi": 83,
          "name": "B5",
          "ticks": 204000,
          "time": 124.77263500000001,
          "velocity": 0.7559055118110236
        },
        {
          "duration": 0.3880677937499968,
          "durationTicks": 683,
          "midi": 71,
          "name": "B4",
          "ticks": 204240,
          "time": 124.90899850000001,
          "velocity": 0.7559055118110236
        },
        {
          "duration": 0.3880677937499968,
          "durationTicks": 683,
          "midi": 75,
          "name": "D#5",
          "ticks": 204240,
          "time": 124.90899850000001,
          "velocity": 0.7559055118110236
        },
        {
          "duration": 0.3880677937499968,
          "durationTicks": 683,
          "midi": 78,
          "name": "F#5",
          "ticks": 204240,
          "time": 124.90899850000001,
          "velocity": 0.7559055118110236
        },
        {
          "duration": 0.3880677937499968,
          "durationTicks": 683,
          "midi": 83,
          "name": "B5",
          "ticks": 204240,
          "time": 124.90899850000001,
          "velocity": 0.7559055118110236
        },
        {
          "duration": 0.12897714374999225,
          "durationTicks": 227,
          "midi": 76,
          "name": "E5",
          "ticks": 204960,
          "time": 125.31808900000001,
          "velocity": 0.7559055118110236
        },
        {
          "duration": 0.2585224687500016,
          "durationTicks": 455,
          "midi": 73,
          "name": "C#5",
          "ticks": 205200,
          "time": 125.4544525,
          "velocity": 0.7559055118110236
        },
        {
          "duration": 0.2585224687500016,
          "durationTicks": 455,
          "midi": 76,
          "name": "E5",
          "ticks": 205200,
          "time": 125.4544525,
          "velocity": 0.7559055118110236
        },
        {
          "duration": 0.2585224687500016,
          "durationTicks": 455,
          "midi": 85,
          "name": "C#6",
          "ticks": 205200,
          "time": 125.4544525,
          "velocity": 0.7559055118110236
        },
        {
          "duration": 0.12897714375000646,
          "durationTicks": 227,
          "midi": 73,
          "name": "C#5",
          "ticks": 205680,
          "time": 125.7271795,
          "velocity": 0.7559055118110236
        },
        {
          "duration": 0.12897714375000646,
          "durationTicks": 227,
          "midi": 85,
          "name": "C#6",
          "ticks": 205680,
          "time": 125.7271795,
          "velocity": 0.7559055118110236
        },
        {
          "duration": 0.2585224687500016,
          "durationTicks": 455,
          "midi": 73,
          "name": "C#5",
          "ticks": 205920,
          "time": 125.863543,
          "velocity": 0.7559055118110236
        },
        {
          "duration": 0.2585224687500016,
          "durationTicks": 455,
          "midi": 85,
          "name": "C#6",
          "ticks": 205920,
          "time": 125.863543,
          "velocity": 0.7559055118110236
        },
        {
          "duration": 0.2585224687500016,
          "durationTicks": 455,
          "midi": 73,
          "name": "C#5",
          "ticks": 206400,
          "time": 126.13627000000001,
          "velocity": 0.7559055118110236
        },
        {
          "duration": 0.2585224687500016,
          "durationTicks": 455,
          "midi": 85,
          "name": "C#6",
          "ticks": 206400,
          "time": 126.13627000000001,
          "velocity": 0.7559055118110236
        },
        {
          "duration": 0.12897714375000646,
          "durationTicks": 227,
          "midi": 85,
          "name": "C#6",
          "ticks": 206880,
          "time": 126.408997,
          "velocity": 0.7559055118110236
        },
        {
          "duration": 0.2585224687500016,
          "durationTicks": 455,
          "midi": 75,
          "name": "D#5",
          "ticks": 207120,
          "time": 126.5453605,
          "velocity": 0.7559055118110236
        },
        {
          "duration": 0.2585224687500016,
          "durationTicks": 455,
          "midi": 84,
          "name": "C6",
          "ticks": 207120,
          "time": 126.5453605,
          "velocity": 0.7559055118110236
        },
        {
          "duration": 0.12897714374999225,
          "durationTicks": 227,
          "midi": 80,
          "name": "G#5",
          "ticks": 207600,
          "time": 126.8180875,
          "velocity": 0.7559055118110236
        },
        {
          "duration": 0.3880677937499968,
          "durationTicks": 683,
          "midi": 72,
          "name": "C5",
          "ticks": 207840,
          "time": 126.954451,
          "velocity": 0.7559055118110236
        },
        {
          "duration": 0.3880677937499968,
          "durationTicks": 683,
          "midi": 78,
          "name": "F#5",
          "ticks": 207840,
          "time": 126.954451,
          "velocity": 0.7559055118110236
        },
        {
          "duration": 0.12897714374999225,
          "durationTicks": 227,
          "midi": 71,
          "name": "B4",
          "ticks": 208800,
          "time": 127.49990500000001,
          "velocity": 0.7559055118110236
        },
        {
          "duration": 0.25852246875001583,
          "durationTicks": 455,
          "midi": 73,
          "name": "C#5",
          "ticks": 209040,
          "time": 127.6362685,
          "velocity": 0.7559055118110236
        },
        {
          "duration": 0.25852246875001583,
          "durationTicks": 455,
          "midi": 80,
          "name": "G#5",
          "ticks": 209040,
          "time": 127.6362685,
          "velocity": 0.7559055118110236
        },
        {
          "duration": 0.12897714375000646,
          "durationTicks": 227,
          "midi": 80,
          "name": "G#5",
          "ticks": 209520,
          "time": 127.9089955,
          "velocity": 0.7559055118110236
        },
        {
          "duration": 0.12897714374997804,
          "durationTicks": 227,
          "midi": 80,
          "name": "G#5",
          "ticks": 209760,
          "time": 128.04535900000002,
          "velocity": 0.7559055118110236
        },
        {
          "duration": 0.12897714375000646,
          "durationTicks": 227,
          "midi": 80,
          "name": "G#5",
          "ticks": 210000,
          "time": 128.1817225,
          "velocity": 0.7559055118110236
        },
        {
          "duration": 0.12897714375000646,
          "durationTicks": 227,
          "midi": 80,
          "name": "G#5",
          "ticks": 210240,
          "time": 128.318086,
          "velocity": 0.7559055118110236
        },
        {
          "duration": 0.12897714375000646,
          "durationTicks": 227,
          "midi": 80,
          "name": "G#5",
          "ticks": 210480,
          "time": 128.4544495,
          "velocity": 0.7559055118110236
        },
        {
          "duration": 0.12897714375000646,
          "durationTicks": 227,
          "midi": 81,
          "name": "A5",
          "ticks": 210720,
          "time": 128.590813,
          "velocity": 0.7559055118110236
        },
        {
          "duration": 0.12897714375000646,
          "durationTicks": 227,
          "midi": 70,
          "name": "A#4",
          "ticks": 210960,
          "time": 128.7271765,
          "velocity": 0.7559055118110236
        },
        {
          "duration": 0.12897714375000646,
          "durationTicks": 227,
          "midi": 80,
          "name": "G#5",
          "ticks": 210960,
          "time": 128.7271765,
          "velocity": 0.7559055118110236
        },
        {
          "duration": 0.12897714375000646,
          "durationTicks": 227,
          "midi": 78,
          "name": "F#5",
          "ticks": 211200,
          "time": 128.86354,
          "velocity": 0.7559055118110236
        },
        {
          "duration": 0.12897714374997804,
          "durationTicks": 227,
          "midi": 76,
          "name": "E5",
          "ticks": 211440,
          "time": 128.99990350000002,
          "velocity": 0.7559055118110236
        },
        {
          "duration": 0.3880677937499968,
          "durationTicks": 683,
          "midi": 70,
          "name": "A#4",
          "ticks": 211680,
          "time": 129.136267,
          "velocity": 0.7559055118110236
        },
        {
          "duration": 0.3880677937499968,
          "durationTicks": 683,
          "midi": 78,
          "name": "F#5",
          "ticks": 211680,
          "time": 129.136267,
          "velocity": 0.7559055118110236
        },
        {
          "duration": 0.2585224687499874,
          "durationTicks": 455,
          "midi": 71,
          "name": "B4",
          "ticks": 212400,
          "time": 129.54535750000002,
          "velocity": 0.7559055118110236
        },
        {
          "duration": 0.2585224687499874,
          "durationTicks": 455,
          "midi": 80,
          "name": "G#5",
          "ticks": 212400,
          "time": 129.54535750000002,
          "velocity": 0.7559055118110236
        },
        {
          "duration": 0.25852246875001583,
          "durationTicks": 455,
          "midi": 69,
          "name": "A4",
          "ticks": 212880,
          "time": 129.8180845,
          "velocity": 0.7559055118110236
        },
        {
          "duration": 0.25852246875001583,
          "durationTicks": 455,
          "midi": 73,
          "name": "C#5",
          "ticks": 212880,
          "time": 129.8180845,
          "velocity": 0.7559055118110236
        },
        {
          "duration": 0.25852246875001583,
          "durationTicks": 455,
          "midi": 76,
          "name": "E5",
          "ticks": 212880,
          "time": 129.8180845,
          "velocity": 0.7559055118110236
        },
        {
          "duration": 0.12897714375000646,
          "durationTicks": 227,
          "midi": 76,
          "name": "E5",
          "ticks": 213360,
          "time": 130.0908115,
          "velocity": 0.7559055118110236
        },
        {
          "duration": 0.25852246875001583,
          "durationTicks": 455,
          "midi": 71,
          "name": "B4",
          "ticks": 213600,
          "time": 130.227175,
          "velocity": 0.7559055118110236
        },
        {
          "duration": 0.25852246875001583,
          "durationTicks": 455,
          "midi": 75,
          "name": "D#5",
          "ticks": 213600,
          "time": 130.227175,
          "velocity": 0.7559055118110236
        },
        {
          "duration": 0.25852246875001583,
          "durationTicks": 455,
          "midi": 80,
          "name": "G#5",
          "ticks": 213600,
          "time": 130.227175,
          "velocity": 0.7559055118110236
        },
        {
          "duration": 0.12897714374997804,
          "durationTicks": 227,
          "midi": 83,
          "name": "B5",
          "ticks": 214080,
          "time": 130.49990200000002,
          "velocity": 0.7559055118110236
        },
        {
          "duration": 0.12897714375000646,
          "durationTicks": 227,
          "midi": 85,
          "name": "C#6",
          "ticks": 214320,
          "time": 130.6362655,
          "velocity": 0.7559055118110236
        },
        {
          "duration": 0.12897714375000646,
          "durationTicks": 227,
          "midi": 83,
          "name": "B5",
          "ticks": 214560,
          "time": 130.772629,
          "velocity": 0.7559055118110236
        },
        {
          "duration": 0.12897714374997804,
          "durationTicks": 227,
          "midi": 80,
          "name": "G#5",
          "ticks": 214800,
          "time": 130.9089925,
          "velocity": 0.7559055118110236
        },
        {
          "duration": 0.12897714374997804,
          "durationTicks": 227,
          "midi": 83,
          "name": "B5",
          "ticks": 214800,
          "time": 130.9089925,
          "velocity": 0.7559055118110236
        },
        {
          "duration": 0.12897714375000646,
          "durationTicks": 227,
          "midi": 88,
          "name": "E6",
          "ticks": 215040,
          "time": 131.045356,
          "velocity": 0.7559055118110236
        },
        {
          "duration": 0.12897714375000646,
          "durationTicks": 227,
          "midi": 87,
          "name": "D#6",
          "ticks": 215280,
          "time": 131.1817195,
          "velocity": 0.7559055118110236
        },
        {
          "duration": 0.3880677937499968,
          "durationTicks": 683,
          "midi": 78,
          "name": "F#5",
          "ticks": 215520,
          "time": 131.318083,
          "velocity": 0.7559055118110236
        },
        {
          "duration": 0.3880677937499968,
          "durationTicks": 683,
          "midi": 86,
          "name": "D6",
          "ticks": 215520,
          "time": 131.318083,
          "velocity": 0.7559055118110236
        },
        {
          "duration": 0.25852246875001583,
          "durationTicks": 455,
          "midi": 78,
          "name": "F#5",
          "ticks": 216240,
          "time": 131.7271735,
          "velocity": 0.7559055118110236
        },
        {
          "duration": 0.3880677937500252,
          "durationTicks": 683,
          "midi": 69,
          "name": "A4",
          "ticks": 216720,
          "time": 131.9999005,
          "velocity": 0.7559055118110236
        },
        {
          "duration": 0.3880677937500252,
          "durationTicks": 683,
          "midi": 73,
          "name": "C#5",
          "ticks": 216720,
          "time": 131.9999005,
          "velocity": 0.7559055118110236
        },
        {
          "duration": 0.3880677937500252,
          "durationTicks": 683,
          "midi": 76,
          "name": "E5",
          "ticks": 216720,
          "time": 131.9999005,
          "velocity": 0.7559055118110236
        },
        {
          "duration": 0.12897714374997804,
          "durationTicks": 227,
          "midi": 76,
          "name": "E5",
          "ticks": 217440,
          "time": 132.40899100000001,
          "velocity": 0.7559055118110236
        },
        {
          "duration": 0.2585224687499874,
          "durationTicks": 455,
          "midi": 69,
          "name": "A4",
          "ticks": 217680,
          "time": 132.5453545,
          "velocity": 0.7559055118110236
        },
        {
          "duration": 0.2585224687499874,
          "durationTicks": 455,
          "midi": 72,
          "name": "C5",
          "ticks": 217680,
          "time": 132.5453545,
          "velocity": 0.7559055118110236
        },
        {
          "duration": 0.2585224687499874,
          "durationTicks": 455,
          "midi": 76,
          "name": "E5",
          "ticks": 217680,
          "time": 132.5453545,
          "velocity": 0.7559055118110236
        },
        {
          "duration": 0.12897714375000646,
          "durationTicks": 227,
          "midi": 75,
          "name": "D#5",
          "ticks": 218160,
          "time": 132.8180815,
          "velocity": 0.7559055118110236
        },
        {
          "duration": 0.12897714374997804,
          "durationTicks": 227,
          "midi": 75,
          "name": "D#5",
          "ticks": 218400,
          "time": 132.95444500000002,
          "velocity": 0.7559055118110236
        },
        {
          "duration": 0.5176131187500062,
          "durationTicks": 911,
          "midi": 69,
          "name": "A4",
          "ticks": 218640,
          "time": 133.0908085,
          "velocity": 0.7559055118110236
        },
        {
          "duration": 0.5176131187500062,
          "durationTicks": 911,
          "midi": 72,
          "name": "C5",
          "ticks": 218640,
          "time": 133.0908085,
          "velocity": 0.7559055118110236
        },
        {
          "duration": 0.5176131187500062,
          "durationTicks": 911,
          "midi": 76,
          "name": "E5",
          "ticks": 218640,
          "time": 133.0908085,
          "velocity": 0.7559055118110236
        },
        {
          "duration": 0.2585224687499874,
          "durationTicks": 455,
          "midi": 88,
          "name": "E6",
          "ticks": 220080,
          "time": 133.90898950000002,
          "velocity": 0.7559055118110236
        },
        {
          "duration": 0.12897714374997804,
          "durationTicks": 227,
          "midi": 68,
          "name": "G#4",
          "ticks": 220800,
          "time": 134.31808,
          "velocity": 0.6299212598425197
        },
        {
          "duration": 0.12897714374997804,
          "durationTicks": 227,
          "midi": 80,
          "name": "G#5",
          "ticks": 220800,
          "time": 134.31808,
          "velocity": 0.6299212598425197
        },
        {
          "duration": 0.12897714375000646,
          "durationTicks": 227,
          "midi": 73,
          "name": "C#5",
          "ticks": 221040,
          "time": 134.4544435,
          "velocity": 0.6299212598425197
        },
        {
          "duration": 0.12897714375000646,
          "durationTicks": 227,
          "midi": 85,
          "name": "C#6",
          "ticks": 221040,
          "time": 134.4544435,
          "velocity": 0.6299212598425197
        },
        {
          "duration": 0.12897714375000646,
          "durationTicks": 227,
          "midi": 73,
          "name": "C#5",
          "ticks": 221280,
          "time": 134.590807,
          "velocity": 0.6299212598425197
        },
        {
          "duration": 0.12897714375000646,
          "durationTicks": 227,
          "midi": 85,
          "name": "C#6",
          "ticks": 221280,
          "time": 134.590807,
          "velocity": 0.6299212598425197
        },
        {
          "duration": 0.12897714374997804,
          "durationTicks": 227,
          "midi": 72,
          "name": "C5",
          "ticks": 221760,
          "time": 134.86353400000002,
          "velocity": 0.6299212598425197
        },
        {
          "duration": 0.12897714374997804,
          "durationTicks": 227,
          "midi": 84,
          "name": "C6",
          "ticks": 221760,
          "time": 134.86353400000002,
          "velocity": 0.6299212598425197
        },
        {
          "duration": 0.12897714375000646,
          "durationTicks": 227,
          "midi": 70,
          "name": "A#4",
          "ticks": 222240,
          "time": 135.136261,
          "velocity": 0.6299212598425197
        },
        {
          "duration": 0.12897714375000646,
          "durationTicks": 227,
          "midi": 82,
          "name": "A#5",
          "ticks": 222240,
          "time": 135.136261,
          "velocity": 0.6299212598425197
        },
        {
          "duration": 0.12897714374997804,
          "durationTicks": 227,
          "midi": 68,
          "name": "G#4",
          "ticks": 222720,
          "time": 135.40898800000002,
          "velocity": 0.6299212598425197
        },
        {
          "duration": 0.12897714374997804,
          "durationTicks": 227,
          "midi": 80,
          "name": "G#5",
          "ticks": 222720,
          "time": 135.40898800000002,
          "velocity": 0.6299212598425197
        },
        {
          "duration": 0.12897714375000646,
          "durationTicks": 227,
          "midi": 65,
          "name": "F4",
          "ticks": 223200,
          "time": 135.681715,
          "velocity": 0.6299212598425197
        },
        {
          "duration": 0.12897714375000646,
          "durationTicks": 227,
          "midi": 77,
          "name": "F5",
          "ticks": 223200,
          "time": 135.681715,
          "velocity": 0.6299212598425197
        },
        {
          "duration": 0.12897714375000646,
          "durationTicks": 227,
          "midi": 67,
          "name": "G4",
          "ticks": 223680,
          "time": 135.954442,
          "velocity": 0.6299212598425197
        },
        {
          "duration": 0.12897714375000646,
          "durationTicks": 227,
          "midi": 79,
          "name": "G5",
          "ticks": 223680,
          "time": 135.954442,
          "velocity": 0.6299212598425197
        },
        {
          "duration": 0.12897714375000646,
          "durationTicks": 227,
          "midi": 64,
          "name": "E4",
          "ticks": 224160,
          "time": 136.227169,
          "velocity": 0.6299212598425197
        },
        {
          "duration": 0.12897714375000646,
          "durationTicks": 227,
          "midi": 76,
          "name": "E5",
          "ticks": 224160,
          "time": 136.227169,
          "velocity": 0.6299212598425197
        },
        {
          "duration": 0.12897714374997804,
          "durationTicks": 227,
          "midi": 66,
          "name": "F#4",
          "ticks": 224400,
          "time": 136.36353250000002,
          "velocity": 0.6299212598425197
        },
        {
          "duration": 0.12897714374997804,
          "durationTicks": 227,
          "midi": 78,
          "name": "F#5",
          "ticks": 224400,
          "time": 136.36353250000002,
          "velocity": 0.6299212598425197
        },
        {
          "duration": 0.12897714375000646,
          "durationTicks": 227,
          "midi": 68,
          "name": "G#4",
          "ticks": 224880,
          "time": 136.6362595,
          "velocity": 0.6299212598425197
        },
        {
          "duration": 0.12897714375000646,
          "durationTicks": 227,
          "midi": 80,
          "name": "G#5",
          "ticks": 224880,
          "time": 136.6362595,
          "velocity": 0.6299212598425197
        },
        {
          "duration": 0.12897714375000646,
          "durationTicks": 227,
          "midi": 64,
          "name": "E4",
          "ticks": 225360,
          "time": 136.9089865,
          "velocity": 0.6299212598425197
        },
        {
          "duration": 0.12897714375000646,
          "durationTicks": 227,
          "midi": 76,
          "name": "E5",
          "ticks": 225360,
          "time": 136.9089865,
          "velocity": 0.6299212598425197
        },
        {
          "duration": 0.12897714375000646,
          "durationTicks": 227,
          "midi": 66,
          "name": "F#4",
          "ticks": 225600,
          "time": 137.04535,
          "velocity": 0.6299212598425197
        },
        {
          "duration": 0.12897714375000646,
          "durationTicks": 227,
          "midi": 78,
          "name": "F#5",
          "ticks": 225600,
          "time": 137.04535,
          "velocity": 0.6299212598425197
        },
        {
          "duration": 0.12897714374997804,
          "durationTicks": 227,
          "midi": 71,
          "name": "B4",
          "ticks": 226080,
          "time": 137.31807700000002,
          "velocity": 0.6299212598425197
        },
        {
          "duration": 0.12897714375000646,
          "durationTicks": 227,
          "midi": 63,
          "name": "D#4",
          "ticks": 226320,
          "time": 137.4544405,
          "velocity": 0.6299212598425197
        },
        {
          "duration": 0.12897714375000646,
          "durationTicks": 227,
          "midi": 75,
          "name": "D#5",
          "ticks": 226320,
          "time": 137.4544405,
          "velocity": 0.6299212598425197
        },
        {
          "duration": 0.12897714375000646,
          "durationTicks": 227,
          "midi": 61,
          "name": "C#4",
          "ticks": 226560,
          "time": 137.590804,
          "velocity": 0.6299212598425197
        },
        {
          "duration": 0.12897714375000646,
          "durationTicks": 227,
          "midi": 73,
          "name": "C#5",
          "ticks": 226560,
          "time": 137.590804,
          "velocity": 0.6299212598425197
        },
        {
          "duration": 0.06420448124998757,
          "durationTicks": 113,
          "midi": 71,
          "name": "B4",
          "ticks": 227040,
          "time": 137.86353100000002,
          "velocity": 0.6299212598425197
        },
        {
          "duration": 0.06420448125001599,
          "durationTicks": 113,
          "midi": 72,
          "name": "C5",
          "ticks": 227160,
          "time": 137.93171275,
          "velocity": 0.6299212598425197
        },
        {
          "duration": 0.4357950187499853,
          "durationTicks": 767,
          "midi": 61,
          "name": "C#4",
          "ticks": 227280,
          "time": 137.9998945,
          "velocity": 0.6299212598425197
        },
        {
          "duration": 0.4357950187499853,
          "durationTicks": 767,
          "midi": 73,
          "name": "C#5",
          "ticks": 227280,
          "time": 137.9998945,
          "velocity": 0.6299212598425197
        },
        {
          "duration": 0.12897714375000646,
          "durationTicks": 227,
          "midi": 71,
          "name": "B4",
          "ticks": 228240,
          "time": 138.5453485,
          "velocity": 0.6299212598425197
        },
        {
          "duration": 0.12897714375000646,
          "durationTicks": 227,
          "midi": 73,
          "name": "C#5",
          "ticks": 228480,
          "time": 138.681712,
          "velocity": 0.6299212598425197
        },
        {
          "duration": 0.12897714375000646,
          "durationTicks": 227,
          "midi": 76,
          "name": "E5",
          "ticks": 228960,
          "time": 138.954439,
          "velocity": 0.6299212598425197
        },
        {
          "duration": 0.12897714374997804,
          "durationTicks": 227,
          "midi": 78,
          "name": "F#5",
          "ticks": 229440,
          "time": 139.227166,
          "velocity": 0.6299212598425197
        },
        {
          "duration": 0.12897714375000646,
          "durationTicks": 227,
          "midi": 72,
          "name": "C5",
          "ticks": 229680,
          "time": 139.3635295,
          "velocity": 0.6299212598425197
        },
        {
          "duration": 0.12897714375000646,
          "durationTicks": 227,
          "midi": 79,
          "name": "G5",
          "ticks": 229920,
          "time": 139.49989300000001,
          "velocity": 0.6299212598425197
        },
        {
          "duration": 0.12897714374997804,
          "durationTicks": 227,
          "midi": 77,
          "name": "F5",
          "ticks": 230400,
          "time": 139.77262000000002,
          "velocity": 0.6299212598425197
        },
        {
          "duration": 0.06420448125001599,
          "durationTicks": 113,
          "midi": 63,
          "name": "D#4",
          "ticks": 230640,
          "time": 139.9089835,
          "velocity": 0.6299212598425197
        },
        {
          "duration": 0.06420448124998757,
          "durationTicks": 113,
          "midi": 76,
          "name": "E5",
          "ticks": 230760,
          "time": 139.97716525,
          "velocity": 0.6299212598425197
        },
        {
          "duration": 0.12897714375000646,
          "durationTicks": 227,
          "midi": 77,
          "name": "F5",
          "ticks": 231120,
          "time": 140.1817105,
          "velocity": 0.6299212598425197
        },
        {
          "duration": 0.12897714375000646,
          "durationTicks": 227,
          "midi": 76,
          "name": "E5",
          "ticks": 231600,
          "time": 140.4544375,
          "velocity": 0.6299212598425197
        },
        {
          "duration": 0.06420448125001599,
          "durationTicks": 113,
          "midi": 79,
          "name": "G5",
          "ticks": 231840,
          "time": 140.590801,
          "velocity": 0.6299212598425197
        },
        {
          "duration": 0.06704538749997369,
          "durationTicks": 118,
          "midi": 80,
          "name": "G#5",
          "ticks": 231954,
          "time": 140.65557366250002,
          "velocity": 0.6299212598425197
        },
        {
          "duration": 0.12897714375000646,
          "durationTicks": 227,
          "midi": 80,
          "name": "G#5",
          "ticks": 232320,
          "time": 140.863528,
          "velocity": 0.6299212598425197
        },
        {
          "duration": 0.12897714375000646,
          "durationTicks": 227,
          "midi": 80,
          "name": "G#5",
          "ticks": 232800,
          "time": 141.136255,
          "velocity": 0.6299212598425197
        },
        {
          "duration": 0.12897714375000646,
          "durationTicks": 227,
          "midi": 78,
          "name": "F#5",
          "ticks": 233280,
          "time": 141.408982,
          "velocity": 0.6299212598425197
        },
        {
          "duration": 0.12897714375000646,
          "durationTicks": 227,
          "midi": 80,
          "name": "G#5",
          "ticks": 233520,
          "time": 141.5453455,
          "velocity": 0.6299212598425197
        },
        {
          "duration": 0.12897714374997804,
          "durationTicks": 227,
          "midi": 71,
          "name": "B4",
          "ticks": 233760,
          "time": 141.681709,
          "velocity": 0.6299212598425197
        },
        {
          "duration": 0.12897714374997804,
          "durationTicks": 227,
          "midi": 83,
          "name": "B5",
          "ticks": 233760,
          "time": 141.681709,
          "velocity": 0.6299212598425197
        },
        {
          "duration": 0.12897714375000646,
          "durationTicks": 227,
          "midi": 68,
          "name": "G#4",
          "ticks": 234240,
          "time": 141.95443600000002,
          "velocity": 0.6299212598425197
        },
        {
          "duration": 0.12897714375000646,
          "durationTicks": 227,
          "midi": 80,
          "name": "G#5",
          "ticks": 234240,
          "time": 141.95443600000002,
          "velocity": 0.6299212598425197
        },
        {
          "duration": 0.12897714374997804,
          "durationTicks": 227,
          "midi": 71,
          "name": "B4",
          "ticks": 234720,
          "time": 142.22716300000002,
          "velocity": 0.6299212598425197
        },
        {
          "duration": 0.12897714374997804,
          "durationTicks": 227,
          "midi": 83,
          "name": "B5",
          "ticks": 234720,
          "time": 142.22716300000002,
          "velocity": 0.6299212598425197
        },
        {
          "duration": 0.2585224687499874,
          "durationTicks": 455,
          "midi": 73,
          "name": "C#5",
          "ticks": 234960,
          "time": 142.3635265,
          "velocity": 0.6299212598425197
        },
        {
          "duration": 0.2585224687499874,
          "durationTicks": 455,
          "midi": 85,
          "name": "C#6",
          "ticks": 234960,
          "time": 142.3635265,
          "velocity": 0.6299212598425197
        },
        {
          "duration": 0.12897714375000646,
          "durationTicks": 227,
          "midi": 68,
          "name": "G#4",
          "ticks": 236160,
          "time": 143.045344,
          "velocity": 0.6299212598425197
        },
        {
          "duration": 0.12897714375000646,
          "durationTicks": 227,
          "midi": 80,
          "name": "G#5",
          "ticks": 236160,
          "time": 143.045344,
          "velocity": 0.6299212598425197
        },
        {
          "duration": 0.12897714374997804,
          "durationTicks": 227,
          "midi": 73,
          "name": "C#5",
          "ticks": 236400,
          "time": 143.18170750000002,
          "velocity": 0.6299212598425197
        },
        {
          "duration": 0.12897714374997804,
          "durationTicks": 227,
          "midi": 85,
          "name": "C#6",
          "ticks": 236400,
          "time": 143.18170750000002,
          "velocity": 0.6299212598425197
        },
        {
          "duration": 0.12897714375000646,
          "durationTicks": 227,
          "midi": 73,
          "name": "C#5",
          "ticks": 236640,
          "time": 143.318071,
          "velocity": 0.6299212598425197
        },
        {
          "duration": 0.12897714375000646,
          "durationTicks": 227,
          "midi": 85,
          "name": "C#6",
          "ticks": 236640,
          "time": 143.318071,
          "velocity": 0.6299212598425197
        },
        {
          "duration": 0.12897714375000646,
          "durationTicks": 227,
          "midi": 72,
          "name": "C5",
          "ticks": 237120,
          "time": 143.590798,
          "velocity": 0.6299212598425197
        },
        {
          "duration": 0.12897714375000646,
          "durationTicks": 227,
          "midi": 84,
          "name": "C6",
          "ticks": 237120,
          "time": 143.590798,
          "velocity": 0.6299212598425197
        },
        {
          "duration": 0.12897714375000646,
          "durationTicks": 227,
          "midi": 70,
          "name": "A#4",
          "ticks": 237600,
          "time": 143.863525,
          "velocity": 0.6299212598425197
        },
        {
          "duration": 0.12897714375000646,
          "durationTicks": 227,
          "midi": 82,
          "name": "A#5",
          "ticks": 237600,
          "time": 143.863525,
          "velocity": 0.6299212598425197
        },
        {
          "duration": 0.12897714374997804,
          "durationTicks": 227,
          "midi": 68,
          "name": "G#4",
          "ticks": 238080,
          "time": 144.136252,
          "velocity": 0.6299212598425197
        },
        {
          "duration": 0.12897714374997804,
          "durationTicks": 227,
          "midi": 80,
          "name": "G#5",
          "ticks": 238080,
          "time": 144.136252,
          "velocity": 0.6299212598425197
        },
        {
          "duration": 0.12897714375000646,
          "durationTicks": 227,
          "midi": 65,
          "name": "F4",
          "ticks": 238560,
          "time": 144.408979,
          "velocity": 0.6299212598425197
        },
        {
          "duration": 0.12897714375000646,
          "durationTicks": 227,
          "midi": 77,
          "name": "F5",
          "ticks": 238560,
          "time": 144.408979,
          "velocity": 0.6299212598425197
        },
        {
          "duration": 0.12897714374997804,
          "durationTicks": 227,
          "midi": 67,
          "name": "G4",
          "ticks": 239040,
          "time": 144.68170600000002,
          "velocity": 0.6299212598425197
        },
        {
          "duration": 0.12897714374997804,
          "durationTicks": 227,
          "midi": 79,
          "name": "G5",
          "ticks": 239040,
          "time": 144.68170600000002,
          "velocity": 0.6299212598425197
        },
        {
          "duration": 0.12897714375000646,
          "durationTicks": 227,
          "midi": 64,
          "name": "E4",
          "ticks": 239520,
          "time": 144.954433,
          "velocity": 0.6299212598425197
        },
        {
          "duration": 0.12897714375000646,
          "durationTicks": 227,
          "midi": 76,
          "name": "E5",
          "ticks": 239520,
          "time": 144.954433,
          "velocity": 0.6299212598425197
        },
        {
          "duration": 0.12897714374997804,
          "durationTicks": 227,
          "midi": 66,
          "name": "F#4",
          "ticks": 239760,
          "time": 145.0907965,
          "velocity": 0.6299212598425197
        },
        {
          "duration": 0.12897714374997804,
          "durationTicks": 227,
          "midi": 78,
          "name": "F#5",
          "ticks": 239760,
          "time": 145.0907965,
          "velocity": 0.6299212598425197
        },
        {
          "duration": 0.12897714375000646,
          "durationTicks": 227,
          "midi": 68,
          "name": "G#4",
          "ticks": 240240,
          "time": 145.3635235,
          "velocity": 0.6299212598425197
        },
        {
          "duration": 0.12897714375000646,
          "durationTicks": 227,
          "midi": 80,
          "name": "G#5",
          "ticks": 240240,
          "time": 145.3635235,
          "velocity": 0.6299212598425197
        },
        {
          "duration": 0.12897714374997804,
          "durationTicks": 227,
          "midi": 64,
          "name": "E4",
          "ticks": 240720,
          "time": 145.63625050000002,
          "velocity": 0.6299212598425197
        },
        {
          "duration": 0.12897714374997804,
          "durationTicks": 227,
          "midi": 76,
          "name": "E5",
          "ticks": 240720,
          "time": 145.63625050000002,
          "velocity": 0.6299212598425197
        },
        {
          "duration": 0.12897714375000646,
          "durationTicks": 227,
          "midi": 66,
          "name": "F#4",
          "ticks": 240960,
          "time": 145.772614,
          "velocity": 0.6299212598425197
        },
        {
          "duration": 0.12897714375000646,
          "durationTicks": 227,
          "midi": 78,
          "name": "F#5",
          "ticks": 240960,
          "time": 145.772614,
          "velocity": 0.6299212598425197
        },
        {
          "duration": 0.12897714375000646,
          "durationTicks": 227,
          "midi": 71,
          "name": "B4",
          "ticks": 241440,
          "time": 146.045341,
          "velocity": 0.6299212598425197
        },
        {
          "duration": 0.12897714375000646,
          "durationTicks": 227,
          "midi": 63,
          "name": "D#4",
          "ticks": 241680,
          "time": 146.1817045,
          "velocity": 0.6299212598425197
        },
        {
          "duration": 0.12897714375000646,
          "durationTicks": 227,
          "midi": 75,
          "name": "D#5",
          "ticks": 241680,
          "time": 146.1817045,
          "velocity": 0.6299212598425197
        },
        {
          "duration": 0.12897714375000646,
          "durationTicks": 227,
          "midi": 61,
          "name": "C#4",
          "ticks": 241920,
          "time": 146.318068,
          "velocity": 0.6299212598425197
        },
        {
          "duration": 0.12897714375000646,
          "durationTicks": 227,
          "midi": 73,
          "name": "C#5",
          "ticks": 241920,
          "time": 146.318068,
          "velocity": 0.6299212598425197
        },
        {
          "duration": 0.06420448124998757,
          "durationTicks": 113,
          "midi": 71,
          "name": "B4",
          "ticks": 242400,
          "time": 146.590795,
          "velocity": 0.6299212598425197
        },
        {
          "duration": 0.06420448124998757,
          "durationTicks": 113,
          "midi": 72,
          "name": "C5",
          "ticks": 242520,
          "time": 146.65897675000002,
          "velocity": 0.6299212598425197
        },
        {
          "duration": 0.4357950187499853,
          "durationTicks": 767,
          "midi": 61,
          "name": "C#4",
          "ticks": 242640,
          "time": 146.7271585,
          "velocity": 0.6299212598425197
        },
        {
          "duration": 0.4357950187499853,
          "durationTicks": 767,
          "midi": 73,
          "name": "C#5",
          "ticks": 242640,
          "time": 146.7271585,
          "velocity": 0.6299212598425197
        },
        {
          "duration": 0.12897714375000646,
          "durationTicks": 227,
          "midi": 71,
          "name": "B4",
          "ticks": 243600,
          "time": 147.2726125,
          "velocity": 0.6299212598425197
        },
        {
          "duration": 0.12897714375000646,
          "durationTicks": 227,
          "midi": 73,
          "name": "C#5",
          "ticks": 243840,
          "time": 147.408976,
          "velocity": 0.6299212598425197
        },
        {
          "duration": 0.12897714375000646,
          "durationTicks": 227,
          "midi": 76,
          "name": "E5",
          "ticks": 244320,
          "time": 147.681703,
          "velocity": 0.6299212598425197
        },
        {
          "duration": 0.12897714375000646,
          "durationTicks": 227,
          "midi": 78,
          "name": "F#5",
          "ticks": 244800,
          "time": 147.95443,
          "velocity": 0.6299212598425197
        },
        {
          "duration": 0.12897714374997804,
          "durationTicks": 227,
          "midi": 72,
          "name": "C5",
          "ticks": 245040,
          "time": 148.09079350000002,
          "velocity": 0.6299212598425197
        },
        {
          "duration": 0.12897714375000646,
          "durationTicks": 227,
          "midi": 79,
          "name": "G5",
          "ticks": 245280,
          "time": 148.227157,
          "velocity": 0.6299212598425197
        },
        {
          "duration": 0.12897714375000646,
          "durationTicks": 227,
          "midi": 77,
          "name": "F5",
          "ticks": 245760,
          "time": 148.499884,
          "velocity": 0.6299212598425197
        },
        {
          "duration": 0.06420448125001599,
          "durationTicks": 113,
          "midi": 63,
          "name": "D#4",
          "ticks": 246000,
          "time": 148.6362475,
          "velocity": 0.6299212598425197
        },
        {
          "duration": 0.06420448125001599,
          "durationTicks": 113,
          "midi": 76,
          "name": "E5",
          "ticks": 246120,
          "time": 148.70442925,
          "velocity": 0.6299212598425197
        },
        {
          "duration": 0.12897714375000646,
          "durationTicks": 227,
          "midi": 77,
          "name": "F5",
          "ticks": 246480,
          "time": 148.9089745,
          "velocity": 0.6299212598425197
        },
        {
          "duration": 0.12897714375000646,
          "durationTicks": 227,
          "midi": 76,
          "name": "E5",
          "ticks": 246960,
          "time": 149.1817015,
          "velocity": 0.6299212598425197
        },
        {
          "duration": 0.06420448125001599,
          "durationTicks": 113,
          "midi": 79,
          "name": "G5",
          "ticks": 247200,
          "time": 149.318065,
          "velocity": 0.6299212598425197
        },
        {
          "duration": 0.06704538750000211,
          "durationTicks": 118,
          "midi": 80,
          "name": "G#5",
          "ticks": 247314,
          "time": 149.3828376625,
          "velocity": 0.6299212598425197
        },
        {
          "duration": 0.12897714374997804,
          "durationTicks": 227,
          "midi": 80,
          "name": "G#5",
          "ticks": 247680,
          "time": 149.59079200000002,
          "velocity": 0.6299212598425197
        },
        {
          "duration": 0.12897714375000646,
          "durationTicks": 227,
          "midi": 80,
          "name": "G#5",
          "ticks": 248160,
          "time": 149.863519,
          "velocity": 0.6299212598425197
        },
        {
          "duration": 0.12897714375000646,
          "durationTicks": 227,
          "midi": 78,
          "name": "F#5",
          "ticks": 248640,
          "time": 150.136246,
          "velocity": 0.6299212598425197
        },
        {
          "duration": 0.12897714375000646,
          "durationTicks": 227,
          "midi": 80,
          "name": "G#5",
          "ticks": 248880,
          "time": 150.27260950000002,
          "velocity": 0.6299212598425197
        },
        {
          "duration": 0.12897714375000646,
          "durationTicks": 227,
          "midi": 71,
          "name": "B4",
          "ticks": 249120,
          "time": 150.408973,
          "velocity": 0.6299212598425197
        },
        {
          "duration": 0.12897714375000646,
          "durationTicks": 227,
          "midi": 83,
          "name": "B5",
          "ticks": 249120,
          "time": 150.408973,
          "velocity": 0.6299212598425197
        },
        {
          "duration": 0.12897714375000646,
          "durationTicks": 227,
          "midi": 68,
          "name": "G#4",
          "ticks": 249600,
          "time": 150.6817,
          "velocity": 0.6299212598425197
        },
        {
          "duration": 0.12897714375000646,
          "durationTicks": 227,
          "midi": 80,
          "name": "G#5",
          "ticks": 249600,
          "time": 150.6817,
          "velocity": 0.6299212598425197
        },
        {
          "duration": 0.12897714374997804,
          "durationTicks": 227,
          "midi": 71,
          "name": "B4",
          "ticks": 250080,
          "time": 150.954427,
          "velocity": 0.6299212598425197
        },
        {
          "duration": 0.12897714374997804,
          "durationTicks": 227,
          "midi": 83,
          "name": "B5",
          "ticks": 250080,
          "time": 150.954427,
          "velocity": 0.6299212598425197
        },
        {
          "duration": 0.25852246875001583,
          "durationTicks": 455,
          "midi": 73,
          "name": "C#5",
          "ticks": 250320,
          "time": 151.0907905,
          "velocity": 0.6299212598425197
        },
        {
          "duration": 0.25852246875001583,
          "durationTicks": 455,
          "midi": 85,
          "name": "C#6",
          "ticks": 250320,
          "time": 151.0907905,
          "velocity": 0.6299212598425197
        },
        {
          "duration": 0.5176131187500062,
          "durationTicks": 911,
          "midi": 73,
          "name": "C#5",
          "ticks": 251280,
          "time": 151.6362445,
          "velocity": 0.5039370078740157
        },
        {
          "duration": 0.5176131187500062,
          "durationTicks": 911,
          "midi": 77,
          "name": "F5",
          "ticks": 251280,
          "time": 151.6362445,
          "velocity": 0.5039370078740157
        },
        {
          "duration": 0.5176131187500062,
          "durationTicks": 911,
          "midi": 80,
          "name": "G#5",
          "ticks": 251280,
          "time": 151.6362445,
          "velocity": 0.5039370078740157
        },
        {
          "duration": 0.12897714375000646,
          "durationTicks": 227,
          "midi": 77,
          "name": "F5",
          "ticks": 252240,
          "time": 152.1816985,
          "velocity": 0.5039370078740157
        },
        {
          "duration": 0.12897714375000646,
          "durationTicks": 227,
          "midi": 78,
          "name": "F#5",
          "ticks": 252480,
          "time": 152.318062,
          "velocity": 0.5039370078740157
        },
        {
          "duration": 0.12897714374997804,
          "durationTicks": 227,
          "midi": 80,
          "name": "G#5",
          "ticks": 252720,
          "time": 152.4544255,
          "velocity": 0.5039370078740157
        },
        {
          "duration": 0.12897714375000646,
          "durationTicks": 227,
          "midi": 82,
          "name": "A#5",
          "ticks": 252960,
          "time": 152.590789,
          "velocity": 0.5039370078740157
        },
        {
          "duration": 0.13579531875001294,
          "durationTicks": 239,
          "midi": 80,
          "name": "G#5",
          "ticks": 253200,
          "time": 152.7271525,
          "velocity": 0.5039370078740157
        },
        {
          "duration": 0.2585224687499874,
          "durationTicks": 455,
          "midi": 78,
          "name": "F#5",
          "ticks": 253680,
          "time": 152.99987950000002,
          "velocity": 0.5039370078740157
        },
        {
          "duration": 0.25852246875001583,
          "durationTicks": 455,
          "midi": 77,
          "name": "F5",
          "ticks": 254160,
          "time": 153.2726065,
          "velocity": 0.5039370078740157
        },
        {
          "duration": 0.25852246875001583,
          "durationTicks": 455,
          "midi": 82,
          "name": "A#5",
          "ticks": 254160,
          "time": 153.2726065,
          "velocity": 0.5039370078740157
        },
        {
          "duration": 0.2585224687499874,
          "durationTicks": 455,
          "midi": 75,
          "name": "D#5",
          "ticks": 254640,
          "time": 153.5453335,
          "velocity": 0.5039370078740157
        },
        {
          "duration": 0.2585224687499874,
          "durationTicks": 455,
          "midi": 84,
          "name": "C6",
          "ticks": 254640,
          "time": 153.5453335,
          "velocity": 0.5039370078740157
        },
        {
          "duration": 0.5176131187500062,
          "durationTicks": 911,
          "midi": 73,
          "name": "C#5",
          "ticks": 255120,
          "time": 153.8180605,
          "velocity": 0.5039370078740157
        },
        {
          "duration": 0.5176131187500062,
          "durationTicks": 911,
          "midi": 85,
          "name": "C#6",
          "ticks": 255120,
          "time": 153.8180605,
          "velocity": 0.5039370078740157
        },
        {
          "duration": 0.2585224687499874,
          "durationTicks": 455,
          "midi": 80,
          "name": "G#5",
          "ticks": 256080,
          "time": 154.3635145,
          "velocity": 0.5039370078740157
        },
        {
          "duration": 0.2585224687499874,
          "durationTicks": 455,
          "midi": 84,
          "name": "C6",
          "ticks": 256080,
          "time": 154.3635145,
          "velocity": 0.5039370078740157
        },
        {
          "duration": 0.2585224687499874,
          "durationTicks": 455,
          "midi": 80,
          "name": "G#5",
          "ticks": 256560,
          "time": 154.6362415,
          "velocity": 0.5039370078740157
        },
        {
          "duration": 0.2585224687499874,
          "durationTicks": 455,
          "midi": 85,
          "name": "C#6",
          "ticks": 256560,
          "time": 154.6362415,
          "velocity": 0.5039370078740157
        },
        {
          "duration": 0.5176131187499777,
          "durationTicks": 911,
          "midi": 75,
          "name": "D#5",
          "ticks": 257040,
          "time": 154.90896850000001,
          "velocity": 0.5039370078740157
        },
        {
          "duration": 0.5176131187499777,
          "durationTicks": 911,
          "midi": 81,
          "name": "A5",
          "ticks": 257040,
          "time": 154.90896850000001,
          "velocity": 0.5039370078740157
        },
        {
          "duration": 0.5176131187499777,
          "durationTicks": 911,
          "midi": 87,
          "name": "D#6",
          "ticks": 257040,
          "time": 154.90896850000001,
          "velocity": 0.5039370078740157
        },
        {
          "duration": 0.49034041874998024,
          "durationTicks": 863,
          "midi": 77,
          "name": "F5",
          "ticks": 258000,
          "time": 155.45442250000002,
          "velocity": 0.5039370078740157
        },
        {
          "duration": 0.49034041874998024,
          "durationTicks": 863,
          "midi": 80,
          "name": "G#5",
          "ticks": 258000,
          "time": 155.45442250000002,
          "velocity": 0.5039370078740157
        },
        {
          "duration": 0.49034041874998024,
          "durationTicks": 863,
          "midi": 89,
          "name": "F6",
          "ticks": 258000,
          "time": 155.45442250000002,
          "velocity": 0.5039370078740157
        },
        {
          "duration": 0.06363630000001308,
          "durationTicks": 112,
          "midi": 79,
          "name": "G5",
          "ticks": 258888,
          "time": 155.95896745,
          "velocity": 0.5039370078740157
        },
        {
          "duration": 0.3261360374999924,
          "durationTicks": 574,
          "midi": 80,
          "name": "G#5",
          "ticks": 258996,
          "time": 156.02033102500002,
          "velocity": 0.5039370078740157
        },
        {
          "duration": 0.12897714374997804,
          "durationTicks": 227,
          "midi": 77,
          "name": "F5",
          "ticks": 259680,
          "time": 156.40896700000002,
          "velocity": 0.5039370078740157
        },
        {
          "duration": 0.12897714375000646,
          "durationTicks": 227,
          "midi": 80,
          "name": "G#5",
          "ticks": 259920,
          "time": 156.5453305,
          "velocity": 0.5039370078740157
        },
        {
          "duration": 0.12897714375000646,
          "durationTicks": 227,
          "midi": 82,
          "name": "A#5",
          "ticks": 260160,
          "time": 156.681694,
          "velocity": 0.5039370078740157
        },
        {
          "duration": 0.12897714374997804,
          "durationTicks": 227,
          "midi": 84,
          "name": "C6",
          "ticks": 260400,
          "time": 156.8180575,
          "velocity": 0.5039370078740157
        },
        {
          "duration": 0.12897714375000646,
          "durationTicks": 227,
          "midi": 85,
          "name": "C#6",
          "ticks": 260640,
          "time": 156.954421,
          "velocity": 0.5039370078740157
        },
        {
          "duration": 0.12897714375000646,
          "durationTicks": 227,
          "midi": 80,
          "name": "G#5",
          "ticks": 261120,
          "time": 157.227148,
          "velocity": 0.5039370078740157
        },
        {
          "duration": 0.6471584437499871,
          "durationTicks": 1139,
          "midi": 85,
          "name": "C#6",
          "ticks": 261600,
          "time": 157.499875,
          "velocity": 0.5039370078740157
        },
        {
          "duration": 0.5176131187500062,
          "durationTicks": 911,
          "midi": 75,
          "name": "D#5",
          "ticks": 262800,
          "time": 158.1816925,
          "velocity": 0.5039370078740157
        },
        {
          "duration": 0.5176131187500062,
          "durationTicks": 911,
          "midi": 82,
          "name": "A#5",
          "ticks": 262800,
          "time": 158.1816925,
          "velocity": 0.5039370078740157
        },
        {
          "duration": 0.5176131187500062,
          "durationTicks": 911,
          "midi": 78,
          "name": "F#5",
          "ticks": 263760,
          "time": 158.7271465,
          "velocity": 0.5039370078740157
        },
        {
          "duration": 0.5176131187500062,
          "durationTicks": 911,
          "midi": 85,
          "name": "C#6",
          "ticks": 263760,
          "time": 158.7271465,
          "velocity": 0.5039370078740157
        },
        {
          "duration": 0.5176131187500062,
          "durationTicks": 911,
          "midi": 87,
          "name": "D#6",
          "ticks": 263760,
          "time": 158.7271465,
          "velocity": 0.5039370078740157
        },
        {
          "duration": 0.13579531875001294,
          "durationTicks": 239,
          "midi": 80,
          "name": "G#5",
          "ticks": 264720,
          "time": 159.2726005,
          "velocity": 0.5039370078740157
        },
        {
          "duration": 0.13579531875001294,
          "durationTicks": 239,
          "midi": 85,
          "name": "C#6",
          "ticks": 264720,
          "time": 159.2726005,
          "velocity": 0.5039370078740157
        },
        {
          "duration": 0.13579531874998452,
          "durationTicks": 239,
          "midi": 84,
          "name": "C6",
          "ticks": 265200,
          "time": 159.5453275,
          "velocity": 0.5039370078740157
        },
        {
          "duration": 0.13579531874998452,
          "durationTicks": 239,
          "midi": 80,
          "name": "G#5",
          "ticks": 265680,
          "time": 159.81805450000002,
          "velocity": 0.5039370078740157
        },
        {
          "duration": 0.13579531875001294,
          "durationTicks": 239,
          "midi": 68,
          "name": "G#4",
          "ticks": 266160,
          "time": 160.0907815,
          "velocity": 0.5039370078740157
        },
        {
          "duration": 0.12897714374997804,
          "durationTicks": 227,
          "midi": 82,
          "name": "A#5",
          "ticks": 266640,
          "time": 160.36350850000002,
          "velocity": 0.5039370078740157
        },
        {
          "duration": 0.12897714375000646,
          "durationTicks": 227,
          "midi": 82,
          "name": "A#5",
          "ticks": 266880,
          "time": 160.499872,
          "velocity": 0.5039370078740157
        },
        {
          "duration": 0.12897714375000646,
          "durationTicks": 227,
          "midi": 82,
          "name": "A#5",
          "ticks": 267120,
          "time": 160.6362355,
          "velocity": 0.5039370078740157
        },
        {
          "duration": 0.12897714374997804,
          "durationTicks": 227,
          "midi": 82,
          "name": "A#5",
          "ticks": 267360,
          "time": 160.772599,
          "velocity": 0.5039370078740157
        },
        {
          "duration": 0.12897714375000646,
          "durationTicks": 227,
          "midi": 82,
          "name": "A#5",
          "ticks": 267600,
          "time": 160.9089625,
          "velocity": 0.5039370078740157
        },
        {
          "duration": 0.12897714375000646,
          "durationTicks": 227,
          "midi": 82,
          "name": "A#5",
          "ticks": 267840,
          "time": 161.045326,
          "velocity": 0.5039370078740157
        },
        {
          "duration": 0.12897714375000646,
          "durationTicks": 227,
          "midi": 82,
          "name": "A#5",
          "ticks": 268080,
          "time": 161.1816895,
          "velocity": 0.5039370078740157
        },
        {
          "duration": 0.12897714374997804,
          "durationTicks": 227,
          "midi": 82,
          "name": "A#5",
          "ticks": 268320,
          "time": 161.31805300000002,
          "velocity": 0.5039370078740157
        },
        {
          "duration": 0.2585224687499874,
          "durationTicks": 455,
          "midi": 81,
          "name": "A5",
          "ticks": 268560,
          "time": 161.4544165,
          "velocity": 0.5039370078740157
        },
        {
          "duration": 0.12897714374997804,
          "durationTicks": 227,
          "midi": 82,
          "name": "A#5",
          "ticks": 269040,
          "time": 161.7271435,
          "velocity": 0.5039370078740157
        },
        {
          "duration": 0.6471584437499871,
          "durationTicks": 1139,
          "midi": 85,
          "name": "C#6",
          "ticks": 269280,
          "time": 161.863507,
          "velocity": 0.5039370078740157
        },
        {
          "duration": 0.25852246875001583,
          "durationTicks": 455,
          "midi": 80,
          "name": "G#5",
          "ticks": 270480,
          "time": 162.5453245,
          "velocity": 0.5039370078740157
        },
        {
          "duration": 0.12897714374997804,
          "durationTicks": 227,
          "midi": 80,
          "name": "G#5",
          "ticks": 270960,
          "time": 162.81805150000002,
          "velocity": 0.5039370078740157
        },
        {
          "duration": 0.12897714375000646,
          "durationTicks": 227,
          "midi": 80,
          "name": "G#5",
          "ticks": 271200,
          "time": 162.954415,
          "velocity": 0.5039370078740157
        },
        {
          "duration": 0.12897714375000646,
          "durationTicks": 227,
          "midi": 80,
          "name": "G#5",
          "ticks": 271440,
          "time": 163.0907785,
          "velocity": 0.5039370078740157
        },
        {
          "duration": 0.12897714374997804,
          "durationTicks": 227,
          "midi": 80,
          "name": "G#5",
          "ticks": 271680,
          "time": 163.22714200000001,
          "velocity": 0.5039370078740157
        },
        {
          "duration": 0.12897714375000646,
          "durationTicks": 227,
          "midi": 80,
          "name": "G#5",
          "ticks": 271920,
          "time": 163.3635055,
          "velocity": 0.5039370078740157
        },
        {
          "duration": 0.12897714375003488,
          "durationTicks": 227,
          "midi": 80,
          "name": "G#5",
          "ticks": 272160,
          "time": 163.499869,
          "velocity": 0.5039370078740157
        },
        {
          "duration": 0.25852246875001583,
          "durationTicks": 455,
          "midi": 80,
          "name": "G#5",
          "ticks": 272400,
          "time": 163.6362325,
          "velocity": 0.5039370078740157
        },
        {
          "duration": 0.12897714375000646,
          "durationTicks": 227,
          "midi": 79,
          "name": "G5",
          "ticks": 272880,
          "time": 163.9089595,
          "velocity": 0.5039370078740157
        },
        {
          "duration": 0.6471584437500155,
          "durationTicks": 1139,
          "midi": 75,
          "name": "D#5",
          "ticks": 273120,
          "time": 164.045323,
          "velocity": 0.5039370078740157
        },
        {
          "duration": 0.2585224687499874,
          "durationTicks": 455,
          "midi": 73,
          "name": "C#5",
          "ticks": 274320,
          "time": 164.72714050000002,
          "velocity": 0.5039370078740157
        },
        {
          "duration": 0.2585224687499874,
          "durationTicks": 455,
          "midi": 73,
          "name": "C#5",
          "ticks": 275040,
          "time": 165.136231,
          "velocity": 0.5039370078740157
        },
        {
          "duration": 0.12897714375003488,
          "durationTicks": 227,
          "midi": 75,
          "name": "D#5",
          "ticks": 275520,
          "time": 165.40895799999998,
          "velocity": 0.5039370078740157
        },
        {
          "duration": 0.12897714375000646,
          "durationTicks": 227,
          "midi": 73,
          "name": "C#5",
          "ticks": 275760,
          "time": 165.5453215,
          "velocity": 0.5039370078740157
        },
        {
          "duration": 0.2585224687499874,
          "durationTicks": 455,
          "midi": 75,
          "name": "D#5",
          "ticks": 276000,
          "time": 165.68168500000002,
          "velocity": 0.5039370078740157
        },
        {
          "duration": 0.12897714375003488,
          "durationTicks": 227,
          "midi": 77,
          "name": "F5",
          "ticks": 276480,
          "time": 165.954412,
          "velocity": 0.5039370078740157
        },
        {
          "duration": 0.12897714374997804,
          "durationTicks": 227,
          "midi": 75,
          "name": "D#5",
          "ticks": 276720,
          "time": 166.0907755,
          "velocity": 0.5039370078740157
        },
        {
          "duration": 0.3880677937499968,
          "durationTicks": 683,
          "midi": 73,
          "name": "C#5",
          "ticks": 276960,
          "time": 166.22713900000002,
          "velocity": 0.5039370078740157
        },
        {
          "duration": 0.2585224687499874,
          "durationTicks": 455,
          "midi": 75,
          "name": "D#5",
          "ticks": 277680,
          "time": 166.6362295,
          "velocity": 0.5039370078740157
        },
        {
          "duration": 0.25852246875001583,
          "durationTicks": 455,
          "midi": 73,
          "name": "C#5",
          "ticks": 278160,
          "time": 166.9089565,
          "velocity": 0.5039370078740157
        },
        {
          "duration": 0.12897714375000646,
          "durationTicks": 227,
          "midi": 73,
          "name": "C#5",
          "ticks": 278880,
          "time": 167.318047,
          "velocity": 0.5039370078740157
        },
        {
          "duration": 0.25852246875001583,
          "durationTicks": 455,
          "midi": 66,
          "name": "F#4",
          "ticks": 279120,
          "time": 167.4544105,
          "velocity": 0.5039370078740157
        },
        {
          "duration": 0.25852246875001583,
          "durationTicks": 455,
          "midi": 73,
          "name": "C#5",
          "ticks": 279120,
          "time": 167.4544105,
          "velocity": 0.5039370078740157
        },
        {
          "duration": 0.12897714374997804,
          "durationTicks": 227,
          "midi": 72,
          "name": "C5",
          "ticks": 279600,
          "time": 167.72713750000003,
          "velocity": 0.5039370078740157
        },
        {
          "duration": 0.12897714375003488,
          "durationTicks": 227,
          "midi": 72,
          "name": "C5",
          "ticks": 279840,
          "time": 167.86350099999999,
          "velocity": 0.5039370078740157
        },
        {
          "duration": 1.0357944187500152,
          "durationTicks": 1823,
          "midi": 65,
          "name": "F4",
          "ticks": 280080,
          "time": 167.9998645,
          "velocity": 0.5039370078740157
        },
        {
          "duration": 1.0357944187500152,
          "durationTicks": 1823,
          "midi": 73,
          "name": "C#5",
          "ticks": 280080,
          "time": 167.9998645,
          "velocity": 0.5039370078740157
        },
        {
          "duration": 0.5176131187499777,
          "durationTicks": 911,
          "midi": 75,
          "name": "D#5",
          "ticks": 282000,
          "time": 169.0907725,
          "velocity": 0.5039370078740157
        },
        {
          "duration": 0.5176131187499777,
          "durationTicks": 911,
          "midi": 80,
          "name": "G#5",
          "ticks": 282000,
          "time": 169.0907725,
          "velocity": 0.5039370078740157
        },
        {
          "duration": 0.12897714374997804,
          "durationTicks": 227,
          "midi": 77,
          "name": "F5",
          "ticks": 283680,
          "time": 170.045317,
          "velocity": 0.5039370078740157
        },
        {
          "duration": 0.5176131187500062,
          "durationTicks": 911,
          "midi": 72,
          "name": "C5",
          "ticks": 283920,
          "time": 170.1816805,
          "velocity": 0.5039370078740157
        },
        {
          "duration": 0.5176131187500062,
          "durationTicks": 911,
          "midi": 75,
          "name": "D#5",
          "ticks": 283920,
          "time": 170.1816805,
          "velocity": 0.5039370078740157
        },
        {
          "duration": 0.12897714374997804,
          "durationTicks": 227,
          "midi": 68,
          "name": "G#4",
          "ticks": 285600,
          "time": 171.13622500000002,
          "velocity": 0.5039370078740157
        },
        {
          "duration": 0.12897714375000646,
          "durationTicks": 227,
          "midi": 75,
          "name": "D#5",
          "ticks": 285840,
          "time": 171.2725885,
          "velocity": 0.5039370078740157
        },
        {
          "duration": 0.12897714375000646,
          "durationTicks": 227,
          "midi": 73,
          "name": "C#5",
          "ticks": 286080,
          "time": 171.408952,
          "velocity": 0.5039370078740157
        },
        {
          "duration": 0.12897714374997804,
          "durationTicks": 227,
          "midi": 75,
          "name": "D#5",
          "ticks": 286320,
          "time": 171.54531550000002,
          "velocity": 0.5039370078740157
        },
        {
          "duration": 0.12897714375000646,
          "durationTicks": 227,
          "midi": 73,
          "name": "C#5",
          "ticks": 286560,
          "time": 171.681679,
          "velocity": 0.5039370078740157
        },
        {
          "duration": 0.25852246875001583,
          "durationTicks": 455,
          "midi": 75,
          "name": "D#5",
          "ticks": 286800,
          "time": 171.8180425,
          "velocity": 0.5039370078740157
        },
        {
          "duration": 0.2585224687499874,
          "durationTicks": 455,
          "midi": 77,
          "name": "F5",
          "ticks": 287280,
          "time": 172.09076950000002,
          "velocity": 0.5039370078740157
        },
        {
          "duration": 0.3880677937499968,
          "durationTicks": 683,
          "midi": 63,
          "name": "D#4",
          "ticks": 287760,
          "time": 172.3634965,
          "velocity": 0.4566929133858268
        },
        {
          "duration": 0.3880677937499968,
          "durationTicks": 683,
          "midi": 72,
          "name": "C5",
          "ticks": 287760,
          "time": 172.3634965,
          "velocity": 0.5039370078740157
        },
        {
          "duration": 0.3880677937499968,
          "durationTicks": 683,
          "midi": 65,
          "name": "F4",
          "ticks": 288480,
          "time": 172.772587,
          "velocity": 0.4566929133858268
        },
        {
          "duration": 0.3880677937499968,
          "durationTicks": 683,
          "midi": 73,
          "name": "C#5",
          "ticks": 288480,
          "time": 172.772587,
          "velocity": 0.5039370078740157
        },
        {
          "duration": 0.12897714375003488,
          "durationTicks": 227,
          "midi": 76,
          "name": "E5",
          "ticks": 290160,
          "time": 173.72713149999998,
          "velocity": 0.5039370078740157
        },
        {
          "duration": 0.12897714375003488,
          "durationTicks": 227,
          "midi": 80,
          "name": "G#5",
          "ticks": 290160,
          "time": 173.72713149999998,
          "velocity": 0.5039370078740157
        },
        {
          "duration": 0.12897714375000646,
          "durationTicks": 227,
          "midi": 80,
          "name": "G#5",
          "ticks": 290400,
          "time": 173.863495,
          "velocity": 0.5039370078740157
        },
        {
          "duration": 0.12897714374997804,
          "durationTicks": 227,
          "midi": 80,
          "name": "G#5",
          "ticks": 290640,
          "time": 173.99985850000002,
          "velocity": 0.5039370078740157
        },
        {
          "duration": 0.12897714375000646,
          "durationTicks": 227,
          "midi": 80,
          "name": "G#5",
          "ticks": 290880,
          "time": 174.136222,
          "velocity": 0.5039370078740157
        },
        {
          "duration": 0.25852246875001583,
          "durationTicks": 455,
          "midi": 76,
          "name": "E5",
          "ticks": 291120,
          "time": 174.2725855,
          "velocity": 0.5039370078740157
        },
        {
          "duration": 0.25852246875001583,
          "durationTicks": 455,
          "midi": 80,
          "name": "G#5",
          "ticks": 291120,
          "time": 174.2725855,
          "velocity": 0.5039370078740157
        },
        {
          "duration": 0.2585224687499874,
          "durationTicks": 455,
          "midi": 76,
          "name": "E5",
          "ticks": 291600,
          "time": 174.54531250000002,
          "velocity": 0.5039370078740157
        },
        {
          "duration": 0.2585224687499874,
          "durationTicks": 455,
          "midi": 80,
          "name": "G#5",
          "ticks": 291600,
          "time": 174.54531250000002,
          "velocity": 0.5039370078740157
        },
        {
          "duration": 0.12897714375000646,
          "durationTicks": 227,
          "midi": 80,
          "name": "G#5",
          "ticks": 292080,
          "time": 174.8180395,
          "velocity": 0.5039370078740157
        },
        {
          "duration": 0.25852246875001583,
          "durationTicks": 455,
          "midi": 80,
          "name": "G#5",
          "ticks": 292320,
          "time": 174.954403,
          "velocity": 0.5039370078740157
        },
        {
          "duration": 0.3880677937499968,
          "durationTicks": 683,
          "midi": 80,
          "name": "G#5",
          "ticks": 292800,
          "time": 175.22713,
          "velocity": 0.5039370078740157
        },
        {
          "duration": 0.3880677937499968,
          "durationTicks": 683,
          "midi": 83,
          "name": "B5",
          "ticks": 292800,
          "time": 175.22713,
          "velocity": 0.5039370078740157
        },
        {
          "duration": 0.25852246875001583,
          "durationTicks": 455,
          "midi": 85,
          "name": "C#6",
          "ticks": 294000,
          "time": 175.9089475,
          "velocity": 0.5039370078740157
        },
        {
          "duration": 0.12897714375003488,
          "durationTicks": 227,
          "midi": 83,
          "name": "B5",
          "ticks": 294480,
          "time": 176.18167449999999,
          "velocity": 0.5039370078740157
        },
        {
          "duration": 0.12897714375000646,
          "durationTicks": 227,
          "midi": 80,
          "name": "G#5",
          "ticks": 294720,
          "time": 176.318038,
          "velocity": 0.5039370078740157
        },
        {
          "duration": 0.12897714374997804,
          "durationTicks": 227,
          "midi": 78,
          "name": "F#5",
          "ticks": 294960,
          "time": 176.45440150000002,
          "velocity": 0.5039370078740157
        },
        {
          "duration": 0.12897714375000646,
          "durationTicks": 227,
          "midi": 76,
          "name": "E5",
          "ticks": 295200,
          "time": 176.590765,
          "velocity": 0.5039370078740157
        },
        {
          "duration": 0.17215891875002853,
          "durationTicks": 303,
          "midi": 71,
          "name": "B4",
          "ticks": 295440,
          "time": 176.7271285,
          "velocity": 0.5039370078740157
        },
        {
          "duration": 0.17215891875002853,
          "durationTicks": 303,
          "midi": 76,
          "name": "E5",
          "ticks": 295440,
          "time": 176.7271285,
          "velocity": 0.5039370078740157
        },
        {
          "duration": 0.1721589187499717,
          "durationTicks": 303,
          "midi": 76,
          "name": "E5",
          "ticks": 295760,
          "time": 176.9089465,
          "velocity": 0.5196850393700787
        },
        {
          "duration": 0.1721589187500001,
          "durationTicks": 303,
          "midi": 76,
          "name": "E5",
          "ticks": 296080,
          "time": 177.0907645,
          "velocity": 0.5433070866141733
        },
        {
          "duration": 0.5176131187500062,
          "durationTicks": 911,
          "midi": 71,
          "name": "B4",
          "ticks": 296400,
          "time": 177.2725825,
          "velocity": 0.5669291338582677
        },
        {
          "duration": 0.5176131187500062,
          "durationTicks": 911,
          "midi": 78,
          "name": "F#5",
          "ticks": 296400,
          "time": 177.2725825,
          "velocity": 0.5669291338582677
        },
        {
          "duration": 0.1721589187500001,
          "durationTicks": 303,
          "midi": 72,
          "name": "C5",
          "ticks": 297360,
          "time": 177.8180365,
          "velocity": 0.6299212598425197
        },
        {
          "duration": 0.1721589187500001,
          "durationTicks": 303,
          "midi": 77,
          "name": "F5",
          "ticks": 297360,
          "time": 177.8180365,
          "velocity": 0.6299212598425197
        },
        {
          "duration": 0.1721589187499717,
          "durationTicks": 303,
          "midi": 77,
          "name": "F5",
          "ticks": 297680,
          "time": 177.99985450000003,
          "velocity": 0.6456692913385826
        },
        {
          "duration": 0.17215891875002853,
          "durationTicks": 303,
          "midi": 77,
          "name": "F5",
          "ticks": 298000,
          "time": 178.1816725,
          "velocity": 0.6692913385826772
        },
        {
          "duration": 0.5176131187499777,
          "durationTicks": 911,
          "midi": 72,
          "name": "C5",
          "ticks": 298320,
          "time": 178.3634905,
          "velocity": 0.6929133858267716
        },
        {
          "duration": 0.5176131187499777,
          "durationTicks": 911,
          "midi": 79,
          "name": "G5",
          "ticks": 298320,
          "time": 178.3634905,
          "velocity": 0.6929133858267716
        },
        {
          "duration": 0.5176131187499777,
          "durationTicks": 911,
          "midi": 72,
          "name": "C5",
          "ticks": 299280,
          "time": 178.90894450000002,
          "velocity": 0.7559055118110236
        },
        {
          "duration": 0.5176131187499777,
          "durationTicks": 911,
          "midi": 81,
          "name": "A5",
          "ticks": 299280,
          "time": 178.90894450000002,
          "velocity": 0.7559055118110236
        },
        {
          "duration": 0.5176131187499777,
          "durationTicks": 911,
          "midi": 84,
          "name": "C6",
          "ticks": 299280,
          "time": 178.90894450000002,
          "velocity": 0.7559055118110236
        },
        {
          "duration": 0.12897714374997804,
          "durationTicks": 227,
          "midi": 81,
          "name": "A5",
          "ticks": 300240,
          "time": 179.45439850000002,
          "velocity": 0.7559055118110236
        },
        {
          "duration": 0.12897714375000646,
          "durationTicks": 227,
          "midi": 82,
          "name": "A#5",
          "ticks": 300480,
          "time": 179.590762,
          "velocity": 0.7559055118110236
        },
        {
          "duration": 0.12897714375000646,
          "durationTicks": 227,
          "midi": 84,
          "name": "C6",
          "ticks": 300720,
          "time": 179.7271255,
          "velocity": 0.7559055118110236
        },
        {
          "duration": 0.12897714374997804,
          "durationTicks": 227,
          "midi": 86,
          "name": "D6",
          "ticks": 300960,
          "time": 179.86348900000002,
          "velocity": 0.7559055118110236
        },
        {
          "duration": 0.13579531874998452,
          "durationTicks": 239,
          "midi": 72,
          "name": "C5",
          "ticks": 301200,
          "time": 179.9998525,
          "velocity": 0.7559055118110236
        },
        {
          "duration": 0.13579531874998452,
          "durationTicks": 239,
          "midi": 84,
          "name": "C6",
          "ticks": 301200,
          "time": 179.9998525,
          "velocity": 0.7559055118110236
        },
        {
          "duration": 0.25852246875001583,
          "durationTicks": 455,
          "midi": 70,
          "name": "A#4",
          "ticks": 301680,
          "time": 180.2725795,
          "velocity": 0.7559055118110236
        },
        {
          "duration": 0.25852246875001583,
          "durationTicks": 455,
          "midi": 82,
          "name": "A#5",
          "ticks": 301680,
          "time": 180.2725795,
          "velocity": 0.7559055118110236
        },
        {
          "duration": 0.2585224687499874,
          "durationTicks": 455,
          "midi": 69,
          "name": "A4",
          "ticks": 302160,
          "time": 180.5453065,
          "velocity": 0.7559055118110236
        },
        {
          "duration": 0.2585224687499874,
          "durationTicks": 455,
          "midi": 81,
          "name": "A5",
          "ticks": 302160,
          "time": 180.5453065,
          "velocity": 0.7559055118110236
        },
        {
          "duration": 0.25852246875001583,
          "durationTicks": 455,
          "midi": 67,
          "name": "G4",
          "ticks": 302640,
          "time": 180.8180335,
          "velocity": 0.7559055118110236
        },
        {
          "duration": 0.25852246875001583,
          "durationTicks": 455,
          "midi": 79,
          "name": "G5",
          "ticks": 302640,
          "time": 180.8180335,
          "velocity": 0.7559055118110236
        },
        {
          "duration": 0.5176131187500346,
          "durationTicks": 911,
          "midi": 69,
          "name": "A4",
          "ticks": 303120,
          "time": 181.0907605,
          "velocity": 0.7559055118110236
        },
        {
          "duration": 0.5176131187500346,
          "durationTicks": 911,
          "midi": 77,
          "name": "F5",
          "ticks": 303120,
          "time": 181.0907605,
          "velocity": 0.7559055118110236
        },
        {
          "duration": 0.5176131187500346,
          "durationTicks": 911,
          "midi": 81,
          "name": "A5",
          "ticks": 303120,
          "time": 181.0907605,
          "velocity": 0.7559055118110236
        },
        {
          "duration": 0.12897714375000646,
          "durationTicks": 227,
          "midi": 77,
          "name": "F5",
          "ticks": 304080,
          "time": 181.6362145,
          "velocity": 0.7559055118110236
        },
        {
          "duration": 0.12897714374997804,
          "durationTicks": 227,
          "midi": 79,
          "name": "G5",
          "ticks": 304320,
          "time": 181.772578,
          "velocity": 0.7559055118110236
        },
        {
          "duration": 0.12897714374997804,
          "durationTicks": 227,
          "midi": 81,
          "name": "A5",
          "ticks": 304560,
          "time": 181.90894150000003,
          "velocity": 0.7559055118110236
        },
        {
          "duration": 0.12897714375003488,
          "durationTicks": 227,
          "midi": 84,
          "name": "C6",
          "ticks": 304800,
          "time": 182.04530499999998,
          "velocity": 0.7559055118110236
        },
        {
          "duration": 0.13579531875001294,
          "durationTicks": 239,
          "midi": 73,
          "name": "C#5",
          "ticks": 305040,
          "time": 182.1816685,
          "velocity": 0.7559055118110236
        },
        {
          "duration": 0.13579531875001294,
          "durationTicks": 239,
          "midi": 85,
          "name": "C#6",
          "ticks": 305040,
          "time": 182.1816685,
          "velocity": 0.7559055118110236
        },
        {
          "duration": 0.2585224687499874,
          "durationTicks": 455,
          "midi": 72,
          "name": "C5",
          "ticks": 305520,
          "time": 182.4543955,
          "velocity": 0.7559055118110236
        },
        {
          "duration": 0.2585224687499874,
          "durationTicks": 455,
          "midi": 84,
          "name": "C6",
          "ticks": 305520,
          "time": 182.4543955,
          "velocity": 0.7559055118110236
        },
        {
          "duration": 0.25852246875001583,
          "durationTicks": 455,
          "midi": 70,
          "name": "A#4",
          "ticks": 306000,
          "time": 182.7271225,
          "velocity": 0.7559055118110236
        },
        {
          "duration": 0.25852246875001583,
          "durationTicks": 455,
          "midi": 82,
          "name": "A#5",
          "ticks": 306000,
          "time": 182.7271225,
          "velocity": 0.7559055118110236
        },
        {
          "duration": 0.2585224687499874,
          "durationTicks": 455,
          "midi": 73,
          "name": "C#5",
          "ticks": 306480,
          "time": 182.9998495,
          "velocity": 0.7559055118110236
        },
        {
          "duration": 0.2585224687499874,
          "durationTicks": 455,
          "midi": 85,
          "name": "C#6",
          "ticks": 306480,
          "time": 182.9998495,
          "velocity": 0.7559055118110236
        },
        {
          "duration": 0.3880677937499968,
          "durationTicks": 683,
          "midi": 72,
          "name": "C5",
          "ticks": 306960,
          "time": 183.2725765,
          "velocity": 0.7559055118110236
        },
        {
          "duration": 0.3880677937499968,
          "durationTicks": 683,
          "midi": 76,
          "name": "E5",
          "ticks": 306960,
          "time": 183.2725765,
          "velocity": 0.7559055118110236
        },
        {
          "duration": 0.3880677937499968,
          "durationTicks": 683,
          "midi": 84,
          "name": "C6",
          "ticks": 306960,
          "time": 183.2725765,
          "velocity": 0.7559055118110236
        },
        {
          "duration": 0.12897714375000646,
          "durationTicks": 227,
          "midi": 81,
          "name": "A5",
          "ticks": 307680,
          "time": 183.681667,
          "velocity": 0.7559055118110236
        },
        {
          "duration": 0.12897714374997804,
          "durationTicks": 227,
          "midi": 84,
          "name": "C6",
          "ticks": 307920,
          "time": 183.81803050000002,
          "velocity": 0.7559055118110236
        },
        {
          "duration": 0.12897714375000646,
          "durationTicks": 227,
          "midi": 86,
          "name": "D6",
          "ticks": 308160,
          "time": 183.954394,
          "velocity": 0.7559055118110236
        },
        {
          "duration": 0.12897714375000646,
          "durationTicks": 227,
          "midi": 88,
          "name": "E6",
          "ticks": 308400,
          "time": 184.0907575,
          "velocity": 0.7559055118110236
        },
        {
          "duration": 0.12897714374997804,
          "durationTicks": 227,
          "midi": 77,
          "name": "F5",
          "ticks": 308640,
          "time": 184.227121,
          "velocity": 0.7559055118110236
        },
        {
          "duration": 0.12897714374997804,
          "durationTicks": 227,
          "midi": 89,
          "name": "F6",
          "ticks": 308640,
          "time": 184.227121,
          "velocity": 0.7559055118110236
        },
        {
          "duration": 0.12897714375003488,
          "durationTicks": 227,
          "midi": 80,
          "name": "G#5",
          "ticks": 309120,
          "time": 184.499848,
          "velocity": 0.7559055118110236
        },
        {
          "duration": 0.6471584437499871,
          "durationTicks": 1139,
          "midi": 79,
          "name": "G5",
          "ticks": 309600,
          "time": 184.77257500000002,
          "velocity": 0.7559055118110236
        },
        {
          "duration": 0.2585224687499874,
          "durationTicks": 455,
          "midi": 77,
          "name": "F5",
          "ticks": 310800,
          "time": 185.4543925,
          "velocity": 0.7559055118110236
        },
        {
          "duration": 0.12897714374997804,
          "durationTicks": 227,
          "midi": 77,
          "name": "F5",
          "ticks": 311280,
          "time": 185.72711950000001,
          "velocity": 0.7559055118110236
        },
        {
          "duration": 0.12897714375000646,
          "durationTicks": 227,
          "midi": 77,
          "name": "F5",
          "ticks": 311520,
          "time": 185.863483,
          "velocity": 0.7559055118110236
        },
        {
          "duration": 0.12897714375003488,
          "durationTicks": 227,
          "midi": 77,
          "name": "F5",
          "ticks": 311760,
          "time": 185.9998465,
          "velocity": 0.7559055118110236
        },
        {
          "duration": 0.12897714374997804,
          "durationTicks": 227,
          "midi": 77,
          "name": "F5",
          "ticks": 312000,
          "time": 186.13621,
          "velocity": 0.7559055118110236
        },
        {
          "duration": 0.12897714374997804,
          "durationTicks": 227,
          "midi": 77,
          "name": "F5",
          "ticks": 312240,
          "time": 186.27257350000002,
          "velocity": 0.7559055118110236
        },
        {
          "duration": 0.12897714375000646,
          "durationTicks": 227,
          "midi": 77,
          "name": "F5",
          "ticks": 312480,
          "time": 186.408937,
          "velocity": 0.7559055118110236
        },
        {
          "duration": 0.3880677937499968,
          "durationTicks": 683,
          "midi": 77,
          "name": "F5",
          "ticks": 312720,
          "time": 186.5453005,
          "velocity": 0.7559055118110236
        },
        {
          "duration": 0.3880677937499968,
          "durationTicks": 683,
          "midi": 89,
          "name": "F6",
          "ticks": 312720,
          "time": 186.5453005,
          "velocity": 0.7559055118110236
        },
        {
          "duration": 0.12897714375003488,
          "durationTicks": 227,
          "midi": 72,
          "name": "C5",
          "ticks": 313440,
          "time": 186.954391,
          "velocity": 0.7559055118110236
        },
        {
          "duration": 0.12897714375003488,
          "durationTicks": 227,
          "midi": 84,
          "name": "C6",
          "ticks": 313440,
          "time": 186.954391,
          "velocity": 0.7559055118110236
        },
        {
          "duration": 0.5176131187500062,
          "durationTicks": 911,
          "midi": 72,
          "name": "C5",
          "ticks": 313680,
          "time": 187.0907545,
          "velocity": 0.7559055118110236
        },
        {
          "duration": 0.5176131187500062,
          "durationTicks": 911,
          "midi": 76,
          "name": "E5",
          "ticks": 313680,
          "time": 187.0907545,
          "velocity": 0.7559055118110236
        },
        {
          "duration": 0.5176131187500062,
          "durationTicks": 911,
          "midi": 79,
          "name": "G5",
          "ticks": 313680,
          "time": 187.0907545,
          "velocity": 0.7559055118110236
        },
        {
          "duration": 0.5176131187500062,
          "durationTicks": 911,
          "midi": 84,
          "name": "C6",
          "ticks": 313680,
          "time": 187.0907545,
          "velocity": 0.7559055118110236
        },
        {
          "duration": 0.12897714374997804,
          "durationTicks": 227,
          "midi": 74,
          "name": "D5",
          "ticks": 314640,
          "time": 187.6362085,
          "velocity": 0.7559055118110236
        },
        {
          "duration": 0.12897714374997804,
          "durationTicks": 227,
          "midi": 77,
          "name": "F5",
          "ticks": 314640,
          "time": 187.6362085,
          "velocity": 0.7559055118110236
        },
        {
          "duration": 0.12897714374997804,
          "durationTicks": 227,
          "midi": 86,
          "name": "D6",
          "ticks": 314640,
          "time": 187.6362085,
          "velocity": 0.7559055118110236
        },
        {
          "duration": 0.2585224687499874,
          "durationTicks": 455,
          "midi": 74,
          "name": "D5",
          "ticks": 314880,
          "time": 187.77257200000003,
          "velocity": 0.7559055118110236
        },
        {
          "duration": 0.2585224687499874,
          "durationTicks": 455,
          "midi": 77,
          "name": "F5",
          "ticks": 314880,
          "time": 187.77257200000003,
          "velocity": 0.7559055118110236
        },
        {
          "duration": 0.2585224687499874,
          "durationTicks": 455,
          "midi": 86,
          "name": "D6",
          "ticks": 314880,
          "time": 187.77257200000003,
          "velocity": 0.7559055118110236
        },
        {
          "duration": 0.12897714375000646,
          "durationTicks": 227,
          "midi": 86,
          "name": "D6",
          "ticks": 315360,
          "time": 188.045299,
          "velocity": 0.7559055118110236
        },
        {
          "duration": 0.12897714374997804,
          "durationTicks": 227,
          "midi": 86,
          "name": "D6",
          "ticks": 315600,
          "time": 188.18166250000002,
          "velocity": 0.7559055118110236
        },
        {
          "duration": 0.12897714375000646,
          "durationTicks": 227,
          "midi": 86,
          "name": "D6",
          "ticks": 315840,
          "time": 188.318026,
          "velocity": 0.7559055118110236
        },
        {
          "duration": 0.12897714375000646,
          "durationTicks": 227,
          "midi": 86,
          "name": "D6",
          "ticks": 316080,
          "time": 188.4543895,
          "velocity": 0.7559055118110236
        },
        {
          "duration": 0.12897714374997804,
          "durationTicks": 227,
          "midi": 86,
          "name": "D6",
          "ticks": 316320,
          "time": 188.590753,
          "velocity": 0.7559055118110236
        },
        {
          "duration": 0.2585224687499874,
          "durationTicks": 455,
          "midi": 76,
          "name": "E5",
          "ticks": 316560,
          "time": 188.72711650000002,
          "velocity": 0.7559055118110236
        },
        {
          "duration": 0.2585224687499874,
          "durationTicks": 455,
          "midi": 85,
          "name": "C#6",
          "ticks": 316560,
          "time": 188.72711650000002,
          "velocity": 0.7559055118110236
        },
        {
          "duration": 0.12897714375000646,
          "durationTicks": 227,
          "midi": 81,
          "name": "A5",
          "ticks": 317040,
          "time": 188.9998435,
          "velocity": 0.7559055118110236
        },
        {
          "duration": 0.3880677937499968,
          "durationTicks": 683,
          "midi": 73,
          "name": "C#5",
          "ticks": 317280,
          "time": 189.136207,
          "velocity": 0.7559055118110236
        },
        {
          "duration": 0.3880677937499968,
          "durationTicks": 683,
          "midi": 79,
          "name": "G5",
          "ticks": 317280,
          "time": 189.136207,
          "velocity": 0.7559055118110236
        },
        {
          "duration": 0.2585224687499874,
          "durationTicks": 455,
          "midi": 74,
          "name": "D5",
          "ticks": 318480,
          "time": 189.8180245,
          "velocity": 0.7559055118110236
        },
        {
          "duration": 0.2585224687499874,
          "durationTicks": 455,
          "midi": 81,
          "name": "A5",
          "ticks": 318480,
          "time": 189.8180245,
          "velocity": 0.7559055118110236
        },
        {
          "duration": 0.12897714374997804,
          "durationTicks": 227,
          "midi": 81,
          "name": "A5",
          "ticks": 318960,
          "time": 190.0907515,
          "velocity": 0.7559055118110236
        },
        {
          "duration": 0.12897714374997804,
          "durationTicks": 227,
          "midi": 81,
          "name": "A5",
          "ticks": 319200,
          "time": 190.22711500000003,
          "velocity": 0.7559055118110236
        },
        {
          "duration": 0.12897714375003488,
          "durationTicks": 227,
          "midi": 81,
          "name": "A5",
          "ticks": 319440,
          "time": 190.36347849999999,
          "velocity": 0.7559055118110236
        },
        {
          "duration": 0.12897714375000646,
          "durationTicks": 227,
          "midi": 81,
          "name": "A5",
          "ticks": 319680,
          "time": 190.499842,
          "velocity": 0.7559055118110236
        },
        {
          "duration": 0.12897714374997804,
          "durationTicks": 227,
          "midi": 81,
          "name": "A5",
          "ticks": 319920,
          "time": 190.63620550000002,
          "velocity": 0.7559055118110236
        },
        {
          "duration": 0.12897714375000646,
          "durationTicks": 227,
          "midi": 82,
          "name": "A#5",
          "ticks": 320160,
          "time": 190.772569,
          "velocity": 0.7559055118110236
        },
        {
          "duration": 0.12897714375000646,
          "durationTicks": 227,
          "midi": 71,
          "name": "B4",
          "ticks": 320400,
          "time": 190.9089325,
          "velocity": 0.7559055118110236
        },
        {
          "duration": 0.12897714375000646,
          "durationTicks": 227,
          "midi": 81,
          "name": "A5",
          "ticks": 320400,
          "time": 190.9089325,
          "velocity": 0.7559055118110236
        },
        {
          "duration": 0.12897714374997804,
          "durationTicks": 227,
          "midi": 79,
          "name": "G5",
          "ticks": 320640,
          "time": 191.045296,
          "velocity": 0.7559055118110236
        },
        {
          "duration": 0.12897714374997804,
          "durationTicks": 227,
          "midi": 77,
          "name": "F5",
          "ticks": 320880,
          "time": 191.18165950000002,
          "velocity": 0.7559055118110236
        },
        {
          "duration": 0.3880677937499968,
          "durationTicks": 683,
          "midi": 71,
          "name": "B4",
          "ticks": 321120,
          "time": 191.318023,
          "velocity": 0.7559055118110236
        },
        {
          "duration": 0.3880677937499968,
          "durationTicks": 683,
          "midi": 79,
          "name": "G5",
          "ticks": 321120,
          "time": 191.318023,
          "velocity": 0.7559055118110236
        },
        {
          "duration": 0.25852246875001583,
          "durationTicks": 455,
          "midi": 72,
          "name": "C5",
          "ticks": 321840,
          "time": 191.7271135,
          "velocity": 0.7559055118110236
        },
        {
          "duration": 0.25852246875001583,
          "durationTicks": 455,
          "midi": 81,
          "name": "A5",
          "ticks": 321840,
          "time": 191.7271135,
          "velocity": 0.7559055118110236
        },
        {
          "duration": 0.25852246875001583,
          "durationTicks": 455,
          "midi": 70,
          "name": "A#4",
          "ticks": 322320,
          "time": 191.9998405,
          "velocity": 0.7559055118110236
        },
        {
          "duration": 0.25852246875001583,
          "durationTicks": 455,
          "midi": 74,
          "name": "D5",
          "ticks": 322320,
          "time": 191.9998405,
          "velocity": 0.7559055118110236
        },
        {
          "duration": 0.25852246875001583,
          "durationTicks": 455,
          "midi": 77,
          "name": "F5",
          "ticks": 322320,
          "time": 191.9998405,
          "velocity": 0.7559055118110236
        },
        {
          "duration": 0.12897714375000646,
          "durationTicks": 227,
          "midi": 77,
          "name": "F5",
          "ticks": 322800,
          "time": 192.2725675,
          "velocity": 0.7559055118110236
        },
        {
          "duration": 0.25852246875001583,
          "durationTicks": 455,
          "midi": 72,
          "name": "C5",
          "ticks": 323040,
          "time": 192.408931,
          "velocity": 0.7559055118110236
        },
        {
          "duration": 0.25852246875001583,
          "durationTicks": 455,
          "midi": 76,
          "name": "E5",
          "ticks": 323040,
          "time": 192.408931,
          "velocity": 0.7559055118110236
        },
        {
          "duration": 0.25852246875001583,
          "durationTicks": 455,
          "midi": 81,
          "name": "A5",
          "ticks": 323040,
          "time": 192.408931,
          "velocity": 0.7559055118110236
        },
        {
          "duration": 0.12897714375000646,
          "durationTicks": 227,
          "midi": 84,
          "name": "C6",
          "ticks": 323520,
          "time": 192.681658,
          "velocity": 0.7559055118110236
        },
        {
          "duration": 0.12897714375003488,
          "durationTicks": 227,
          "midi": 86,
          "name": "D6",
          "ticks": 323760,
          "time": 192.8180215,
          "velocity": 0.7559055118110236
        },
        {
          "duration": 0.12897714375000646,
          "durationTicks": 227,
          "midi": 84,
          "name": "C6",
          "ticks": 324000,
          "time": 192.954385,
          "velocity": 0.7559055118110236
        },
        {
          "duration": 0.12897714374997804,
          "durationTicks": 227,
          "midi": 81,
          "name": "A5",
          "ticks": 324240,
          "time": 193.09074850000002,
          "velocity": 0.7559055118110236
        },
        {
          "duration": 0.12897714374997804,
          "durationTicks": 227,
          "midi": 84,
          "name": "C6",
          "ticks": 324240,
          "time": 193.09074850000002,
          "velocity": 0.7559055118110236
        },
        {
          "duration": 0.12897714375000646,
          "durationTicks": 227,
          "midi": 89,
          "name": "F6",
          "ticks": 324480,
          "time": 193.227112,
          "velocity": 0.7559055118110236
        },
        {
          "duration": 0.12897714375000646,
          "durationTicks": 227,
          "midi": 88,
          "name": "E6",
          "ticks": 324720,
          "time": 193.3634755,
          "velocity": 0.7559055118110236
        },
        {
          "duration": 0.3880677937499968,
          "durationTicks": 683,
          "midi": 79,
          "name": "G5",
          "ticks": 324960,
          "time": 193.499839,
          "velocity": 0.7559055118110236
        },
        {
          "duration": 0.3880677937499968,
          "durationTicks": 683,
          "midi": 87,
          "name": "D#6",
          "ticks": 324960,
          "time": 193.499839,
          "velocity": 0.7559055118110236
        },
        {
          "duration": 0.25852246875001583,
          "durationTicks": 455,
          "midi": 79,
          "name": "G5",
          "ticks": 325680,
          "time": 193.9089295,
          "velocity": 0.7559055118110236
        },
        {
          "duration": 0.3880677937499968,
          "durationTicks": 683,
          "midi": 70,
          "name": "A#4",
          "ticks": 326160,
          "time": 194.1816565,
          "velocity": 0.7559055118110236
        },
        {
          "duration": 0.3880677937499968,
          "durationTicks": 683,
          "midi": 74,
          "name": "D5",
          "ticks": 326160,
          "time": 194.1816565,
          "velocity": 0.7559055118110236
        },
        {
          "duration": 0.3880677937499968,
          "durationTicks": 683,
          "midi": 77,
          "name": "F5",
          "ticks": 326160,
          "time": 194.1816565,
          "velocity": 0.7559055118110236
        },
        {
          "duration": 0.12897714374997804,
          "durationTicks": 227,
          "midi": 77,
          "name": "F5",
          "ticks": 326880,
          "time": 194.59074700000002,
          "velocity": 0.7559055118110236
        },
        {
          "duration": 0.2585224687499874,
          "durationTicks": 455,
          "midi": 70,
          "name": "A#4",
          "ticks": 327120,
          "time": 194.7271105,
          "velocity": 0.7559055118110236
        },
        {
          "duration": 0.2585224687499874,
          "durationTicks": 455,
          "midi": 73,
          "name": "C#5",
          "ticks": 327120,
          "time": 194.7271105,
          "velocity": 0.7559055118110236
        },
        {
          "duration": 0.2585224687499874,
          "durationTicks": 455,
          "midi": 77,
          "name": "F5",
          "ticks": 327120,
          "time": 194.7271105,
          "velocity": 0.7559055118110236
        },
        {
          "duration": 0.12897714374997804,
          "durationTicks": 227,
          "midi": 76,
          "name": "E5",
          "ticks": 327600,
          "time": 194.9998375,
          "velocity": 0.7559055118110236
        },
        {
          "duration": 0.12897714375000646,
          "durationTicks": 227,
          "midi": 76,
          "name": "E5",
          "ticks": 327840,
          "time": 195.136201,
          "velocity": 0.7559055118110236
        },
        {
          "duration": 0.3880677937499968,
          "durationTicks": 683,
          "midi": 77,
          "name": "F5",
          "ticks": 328080,
          "time": 195.2725645,
          "velocity": 0.7559055118110236
        },
        {
          "duration": 0.3880677937499968,
          "durationTicks": 683,
          "midi": 89,
          "name": "F6",
          "ticks": 328080,
          "time": 195.2725645,
          "velocity": 0.7559055118110236
        },
        {
          "duration": 0.12897714375000646,
          "durationTicks": 227,
          "midi": 89,
          "name": "F6",
          "ticks": 328800,
          "time": 195.681655,
          "velocity": 0.7559055118110236
        },
        {
          "duration": 0.12897714375000646,
          "durationTicks": 227,
          "midi": 88,
          "name": "E6",
          "ticks": 329040,
          "time": 195.8180185,
          "velocity": 0.7559055118110236
        },
        {
          "duration": 0.12897714374997804,
          "durationTicks": 227,
          "midi": 86,
          "name": "D6",
          "ticks": 329280,
          "time": 195.954382,
          "velocity": 0.7559055118110236
        },
        {
          "duration": 0.12897714374997804,
          "durationTicks": 227,
          "midi": 84,
          "name": "C6",
          "ticks": 329520,
          "time": 196.09074550000003,
          "velocity": 0.7559055118110236
        },
        {
          "duration": 0.12897714375003488,
          "durationTicks": 227,
          "midi": 82,
          "name": "A#5",
          "ticks": 329760,
          "time": 196.22710899999998,
          "velocity": 0.7559055118110236
        },
        {
          "duration": 0.13579531875001294,
          "durationTicks": 239,
          "midi": 72,
          "name": "C5",
          "ticks": 330000,
          "time": 196.3634725,
          "velocity": 0.7559055118110236
        },
        {
          "duration": 0.13579531875001294,
          "durationTicks": 239,
          "midi": 84,
          "name": "C6",
          "ticks": 330000,
          "time": 196.3634725,
          "velocity": 0.7559055118110236
        },
        {
          "duration": 0.2585224687499874,
          "durationTicks": 455,
          "midi": 70,
          "name": "A#4",
          "ticks": 330480,
          "time": 196.6361995,
          "velocity": 0.7559055118110236
        },
        {
          "duration": 0.2585224687499874,
          "durationTicks": 455,
          "midi": 82,
          "name": "A#5",
          "ticks": 330480,
          "time": 196.6361995,
          "velocity": 0.7559055118110236
        },
        {
          "duration": 0.25852246875001583,
          "durationTicks": 455,
          "midi": 69,
          "name": "A4",
          "ticks": 330960,
          "time": 196.9089265,
          "velocity": 0.7559055118110236
        },
        {
          "duration": 0.25852246875001583,
          "durationTicks": 455,
          "midi": 81,
          "name": "A5",
          "ticks": 330960,
          "time": 196.9089265,
          "velocity": 0.7559055118110236
        },
        {
          "duration": 0.2585224687499874,
          "durationTicks": 455,
          "midi": 67,
          "name": "G4",
          "ticks": 331440,
          "time": 197.1816535,
          "velocity": 0.7559055118110236
        },
        {
          "duration": 0.2585224687499874,
          "durationTicks": 455,
          "midi": 79,
          "name": "G5",
          "ticks": 331440,
          "time": 197.1816535,
          "velocity": 0.7559055118110236
        },
        {
          "duration": 0.5176131187499777,
          "durationTicks": 911,
          "midi": 69,
          "name": "A4",
          "ticks": 331920,
          "time": 197.4543805,
          "velocity": 0.7559055118110236
        },
        {
          "duration": 0.5176131187499777,
          "durationTicks": 911,
          "midi": 77,
          "name": "F5",
          "ticks": 331920,
          "time": 197.4543805,
          "velocity": 0.7559055118110236
        },
        {
          "duration": 0.5176131187499777,
          "durationTicks": 911,
          "midi": 81,
          "name": "A5",
          "ticks": 331920,
          "time": 197.4543805,
          "velocity": 0.7559055118110236
        },
        {
          "duration": 0.12897714374997804,
          "durationTicks": 227,
          "midi": 77,
          "name": "F5",
          "ticks": 332880,
          "time": 197.99983450000002,
          "velocity": 0.7559055118110236
        },
        {
          "duration": 0.12897714375000646,
          "durationTicks": 227,
          "midi": 79,
          "name": "G5",
          "ticks": 333120,
          "time": 198.136198,
          "velocity": 0.7559055118110236
        },
        {
          "duration": 0.12897714375000646,
          "durationTicks": 227,
          "midi": 81,
          "name": "A5",
          "ticks": 333360,
          "time": 198.2725615,
          "velocity": 0.7559055118110236
        },
        {
          "duration": 0.12897714374997804,
          "durationTicks": 227,
          "midi": 84,
          "name": "C6",
          "ticks": 333600,
          "time": 198.408925,
          "velocity": 0.7559055118110236
        },
        {
          "duration": 0.13579531874998452,
          "durationTicks": 239,
          "midi": 73,
          "name": "C#5",
          "ticks": 333840,
          "time": 198.5452885,
          "velocity": 0.7559055118110236
        },
        {
          "duration": 0.13579531874998452,
          "durationTicks": 239,
          "midi": 85,
          "name": "C#6",
          "ticks": 333840,
          "time": 198.5452885,
          "velocity": 0.7559055118110236
        },
        {
          "duration": 0.25852246875001583,
          "durationTicks": 455,
          "midi": 72,
          "name": "C5",
          "ticks": 334320,
          "time": 198.8180155,
          "velocity": 0.7559055118110236
        },
        {
          "duration": 0.25852246875001583,
          "durationTicks": 455,
          "midi": 84,
          "name": "C6",
          "ticks": 334320,
          "time": 198.8180155,
          "velocity": 0.7559055118110236
        },
        {
          "duration": 0.2585224687499874,
          "durationTicks": 455,
          "midi": 70,
          "name": "A#4",
          "ticks": 334800,
          "time": 199.0907425,
          "velocity": 0.7559055118110236
        },
        {
          "duration": 0.2585224687499874,
          "durationTicks": 455,
          "midi": 82,
          "name": "A#5",
          "ticks": 334800,
          "time": 199.0907425,
          "velocity": 0.7559055118110236
        },
        {
          "duration": 0.25852246875001583,
          "durationTicks": 455,
          "midi": 73,
          "name": "C#5",
          "ticks": 335280,
          "time": 199.3634695,
          "velocity": 0.7559055118110236
        },
        {
          "duration": 0.25852246875001583,
          "durationTicks": 455,
          "midi": 85,
          "name": "C#6",
          "ticks": 335280,
          "time": 199.3634695,
          "velocity": 0.7559055118110236
        },
        {
          "duration": 0.3880677937499968,
          "durationTicks": 683,
          "midi": 72,
          "name": "C5",
          "ticks": 335760,
          "time": 199.6361965,
          "velocity": 0.7559055118110236
        },
        {
          "duration": 0.3880677937499968,
          "durationTicks": 683,
          "midi": 76,
          "name": "E5",
          "ticks": 335760,
          "time": 199.6361965,
          "velocity": 0.7559055118110236
        },
        {
          "duration": 0.3880677937499968,
          "durationTicks": 683,
          "midi": 84,
          "name": "C6",
          "ticks": 335760,
          "time": 199.6361965,
          "velocity": 0.7559055118110236
        },
        {
          "duration": 0.12897714375000646,
          "durationTicks": 227,
          "midi": 81,
          "name": "A5",
          "ticks": 336480,
          "time": 200.045287,
          "velocity": 0.7559055118110236
        },
        {
          "duration": 0.12897714375003488,
          "durationTicks": 227,
          "midi": 84,
          "name": "C6",
          "ticks": 336720,
          "time": 200.1816505,
          "velocity": 0.7559055118110236
        },
        {
          "duration": 0.12897714374997804,
          "durationTicks": 227,
          "midi": 86,
          "name": "D6",
          "ticks": 336960,
          "time": 200.318014,
          "velocity": 0.7559055118110236
        },
        {
          "duration": 0.12897714374997804,
          "durationTicks": 227,
          "midi": 88,
          "name": "E6",
          "ticks": 337200,
          "time": 200.45437750000002,
          "velocity": 0.7559055118110236
        },
        {
          "duration": 0.12897714375000646,
          "durationTicks": 227,
          "midi": 77,
          "name": "F5",
          "ticks": 337440,
          "time": 200.590741,
          "velocity": 0.7559055118110236
        },
        {
          "duration": 0.12897714375000646,
          "durationTicks": 227,
          "midi": 89,
          "name": "F6",
          "ticks": 337440,
          "time": 200.590741,
          "velocity": 0.7559055118110236
        },
        {
          "duration": 0.12897714374997804,
          "durationTicks": 227,
          "midi": 80,
          "name": "G#5",
          "ticks": 337920,
          "time": 200.863468,
          "velocity": 0.7559055118110236
        },
        {
          "duration": 0.6471584437500155,
          "durationTicks": 1139,
          "midi": 79,
          "name": "G5",
          "ticks": 338400,
          "time": 201.136195,
          "velocity": 0.7559055118110236
        },
        {
          "duration": 0.25852246875001583,
          "durationTicks": 455,
          "midi": 77,
          "name": "F5",
          "ticks": 339600,
          "time": 201.8180125,
          "velocity": 0.7559055118110236
        },
        {
          "duration": 0.12897714375000646,
          "durationTicks": 227,
          "midi": 77,
          "name": "F5",
          "ticks": 340080,
          "time": 202.0907395,
          "velocity": 0.7559055118110236
        },
        {
          "duration": 0.12897714375000646,
          "durationTicks": 227,
          "midi": 77,
          "name": "F5",
          "ticks": 340320,
          "time": 202.227103,
          "velocity": 0.7559055118110236
        },
        {
          "duration": 0.12897714374997804,
          "durationTicks": 227,
          "midi": 77,
          "name": "F5",
          "ticks": 340560,
          "time": 202.36346650000002,
          "velocity": 0.7559055118110236
        },
        {
          "duration": 0.12897714375000646,
          "durationTicks": 227,
          "midi": 77,
          "name": "F5",
          "ticks": 340800,
          "time": 202.49983,
          "velocity": 0.7559055118110236
        },
        {
          "duration": 0.12897714375003488,
          "durationTicks": 227,
          "midi": 77,
          "name": "F5",
          "ticks": 341040,
          "time": 202.6361935,
          "velocity": 0.7559055118110236
        },
        {
          "duration": 0.12897714374997804,
          "durationTicks": 227,
          "midi": 77,
          "name": "F5",
          "ticks": 341280,
          "time": 202.772557,
          "velocity": 0.7559055118110236
        },
        {
          "duration": 0.3880677937499968,
          "durationTicks": 683,
          "midi": 77,
          "name": "F5",
          "ticks": 341520,
          "time": 202.90892050000002,
          "velocity": 0.7559055118110236
        },
        {
          "duration": 0.3880677937499968,
          "durationTicks": 683,
          "midi": 89,
          "name": "F6",
          "ticks": 341520,
          "time": 202.90892050000002,
          "velocity": 0.7559055118110236
        },
        {
          "duration": 0.12897714374997804,
          "durationTicks": 227,
          "midi": 72,
          "name": "C5",
          "ticks": 342240,
          "time": 203.318011,
          "velocity": 0.7559055118110236
        },
        {
          "duration": 0.12897714374997804,
          "durationTicks": 227,
          "midi": 84,
          "name": "C6",
          "ticks": 342240,
          "time": 203.318011,
          "velocity": 0.7559055118110236
        },
        {
          "duration": 0.5176131187500062,
          "durationTicks": 911,
          "midi": 72,
          "name": "C5",
          "ticks": 342480,
          "time": 203.4543745,
          "velocity": 0.7559055118110236
        },
        {
          "duration": 0.5176131187500062,
          "durationTicks": 911,
          "midi": 76,
          "name": "E5",
          "ticks": 342480,
          "time": 203.4543745,
          "velocity": 0.7559055118110236
        },
        {
          "duration": 0.5176131187500062,
          "durationTicks": 911,
          "midi": 79,
          "name": "G5",
          "ticks": 342480,
          "time": 203.4543745,
          "velocity": 0.7559055118110236
        },
        {
          "duration": 0.5176131187500062,
          "durationTicks": 911,
          "midi": 84,
          "name": "C6",
          "ticks": 342480,
          "time": 203.4543745,
          "velocity": 0.7559055118110236
        },
        {
          "duration": 0.12897714375000646,
          "durationTicks": 227,
          "midi": 74,
          "name": "D5",
          "ticks": 343440,
          "time": 203.9998285,
          "velocity": 0.7559055118110236
        },
        {
          "duration": 0.12897714375000646,
          "durationTicks": 227,
          "midi": 77,
          "name": "F5",
          "ticks": 343440,
          "time": 203.9998285,
          "velocity": 0.7559055118110236
        },
        {
          "duration": 0.12897714375000646,
          "durationTicks": 227,
          "midi": 86,
          "name": "D6",
          "ticks": 343440,
          "time": 203.9998285,
          "velocity": 0.7559055118110236
        },
        {
          "duration": 0.25852246875001583,
          "durationTicks": 455,
          "midi": 74,
          "name": "D5",
          "ticks": 343680,
          "time": 204.136192,
          "velocity": 0.7559055118110236
        },
        {
          "duration": 0.25852246875001583,
          "durationTicks": 455,
          "midi": 77,
          "name": "F5",
          "ticks": 343680,
          "time": 204.136192,
          "velocity": 0.7559055118110236
        },
        {
          "duration": 0.25852246875001583,
          "durationTicks": 455,
          "midi": 86,
          "name": "D6",
          "ticks": 343680,
          "time": 204.136192,
          "velocity": 0.7559055118110236
        },
        {
          "duration": 0.12897714374997804,
          "durationTicks": 227,
          "midi": 86,
          "name": "D6",
          "ticks": 344160,
          "time": 204.40891900000003,
          "velocity": 0.7559055118110236
        },
        {
          "duration": 0.12897714375003488,
          "durationTicks": 227,
          "midi": 86,
          "name": "D6",
          "ticks": 344400,
          "time": 204.54528249999998,
          "velocity": 0.7559055118110236
        },
        {
          "duration": 0.12897714375000646,
          "durationTicks": 227,
          "midi": 86,
          "name": "D6",
          "ticks": 344640,
          "time": 204.681646,
          "velocity": 0.7559055118110236
        },
        {
          "duration": 0.12897714374997804,
          "durationTicks": 227,
          "midi": 86,
          "name": "D6",
          "ticks": 344880,
          "time": 204.81800950000002,
          "velocity": 0.7559055118110236
        },
        {
          "duration": 0.12897714375000646,
          "durationTicks": 227,
          "midi": 86,
          "name": "D6",
          "ticks": 345120,
          "time": 204.954373,
          "velocity": 0.7559055118110236
        },
        {
          "duration": 0.25852246875001583,
          "durationTicks": 455,
          "midi": 76,
          "name": "E5",
          "ticks": 345360,
          "time": 205.0907365,
          "velocity": 0.7559055118110236
        },
        {
          "duration": 0.25852246875001583,
          "durationTicks": 455,
          "midi": 85,
          "name": "C#6",
          "ticks": 345360,
          "time": 205.0907365,
          "velocity": 0.7559055118110236
        },
        {
          "duration": 0.12897714374997804,
          "durationTicks": 227,
          "midi": 81,
          "name": "A5",
          "ticks": 345840,
          "time": 205.36346350000002,
          "velocity": 0.7559055118110236
        },
        {
          "duration": 0.3880677937499968,
          "durationTicks": 683,
          "midi": 73,
          "name": "C#5",
          "ticks": 346080,
          "time": 205.499827,
          "velocity": 0.7559055118110236
        },
        {
          "duration": 0.3880677937499968,
          "durationTicks": 683,
          "midi": 79,
          "name": "G5",
          "ticks": 346080,
          "time": 205.499827,
          "velocity": 0.7559055118110236
        },
        {
          "duration": 0.25852246875001583,
          "durationTicks": 455,
          "midi": 74,
          "name": "D5",
          "ticks": 347280,
          "time": 206.1816445,
          "velocity": 0.7559055118110236
        },
        {
          "duration": 0.25852246875001583,
          "durationTicks": 455,
          "midi": 81,
          "name": "A5",
          "ticks": 347280,
          "time": 206.1816445,
          "velocity": 0.7559055118110236
        },
        {
          "duration": 0.12897714375000646,
          "durationTicks": 227,
          "midi": 81,
          "name": "A5",
          "ticks": 347760,
          "time": 206.4543715,
          "velocity": 0.7559055118110236
        },
        {
          "duration": 0.12897714375000646,
          "durationTicks": 227,
          "midi": 81,
          "name": "A5",
          "ticks": 348000,
          "time": 206.590735,
          "velocity": 0.7559055118110236
        },
        {
          "duration": 0.12897714374997804,
          "durationTicks": 227,
          "midi": 81,
          "name": "A5",
          "ticks": 348240,
          "time": 206.7270985,
          "velocity": 0.7559055118110236
        },
        {
          "duration": 0.12897714375000646,
          "durationTicks": 227,
          "midi": 81,
          "name": "A5",
          "ticks": 348480,
          "time": 206.863462,
          "velocity": 0.7559055118110236
        },
        {
          "duration": 0.12897714375003488,
          "durationTicks": 227,
          "midi": 81,
          "name": "A5",
          "ticks": 348720,
          "time": 206.9998255,
          "velocity": 0.7559055118110236
        },
        {
          "duration": 0.12897714375000646,
          "durationTicks": 227,
          "midi": 82,
          "name": "A#5",
          "ticks": 348960,
          "time": 207.136189,
          "velocity": 0.7559055118110236
        },
        {
          "duration": 0.12897714374997804,
          "durationTicks": 227,
          "midi": 71,
          "name": "B4",
          "ticks": 349200,
          "time": 207.27255250000002,
          "velocity": 0.7559055118110236
        },
        {
          "duration": 0.12897714374997804,
          "durationTicks": 227,
          "midi": 81,
          "name": "A5",
          "ticks": 349200,
          "time": 207.27255250000002,
          "velocity": 0.7559055118110236
        },
        {
          "duration": 0.12897714375000646,
          "durationTicks": 227,
          "midi": 79,
          "name": "G5",
          "ticks": 349440,
          "time": 207.408916,
          "velocity": 0.7559055118110236
        },
        {
          "duration": 0.12897714375000646,
          "durationTicks": 227,
          "midi": 77,
          "name": "F5",
          "ticks": 349680,
          "time": 207.5452795,
          "velocity": 0.7559055118110236
        },
        {
          "duration": 0.3880677937499968,
          "durationTicks": 683,
          "midi": 71,
          "name": "B4",
          "ticks": 349920,
          "time": 207.681643,
          "velocity": 0.7559055118110236
        },
        {
          "duration": 0.3880677937499968,
          "durationTicks": 683,
          "midi": 79,
          "name": "G5",
          "ticks": 349920,
          "time": 207.681643,
          "velocity": 0.7559055118110236
        },
        {
          "duration": 0.25852246875001583,
          "durationTicks": 455,
          "midi": 72,
          "name": "C5",
          "ticks": 350640,
          "time": 208.0907335,
          "velocity": 0.7559055118110236
        },
        {
          "duration": 0.25852246875001583,
          "durationTicks": 455,
          "midi": 81,
          "name": "A5",
          "ticks": 350640,
          "time": 208.0907335,
          "velocity": 0.7559055118110236
        },
        {
          "duration": 0.2585224687499874,
          "durationTicks": 455,
          "midi": 70,
          "name": "A#4",
          "ticks": 351120,
          "time": 208.3634605,
          "velocity": 0.7559055118110236
        },
        {
          "duration": 0.2585224687499874,
          "durationTicks": 455,
          "midi": 74,
          "name": "D5",
          "ticks": 351120,
          "time": 208.3634605,
          "velocity": 0.7559055118110236
        },
        {
          "duration": 0.2585224687499874,
          "durationTicks": 455,
          "midi": 77,
          "name": "F5",
          "ticks": 351120,
          "time": 208.3634605,
          "velocity": 0.7559055118110236
        },
        {
          "duration": 0.12897714374997804,
          "durationTicks": 227,
          "midi": 77,
          "name": "F5",
          "ticks": 351600,
          "time": 208.6361875,
          "velocity": 0.7559055118110236
        },
        {
          "duration": 0.2585224687499874,
          "durationTicks": 455,
          "midi": 72,
          "name": "C5",
          "ticks": 351840,
          "time": 208.77255100000002,
          "velocity": 0.7559055118110236
        },
        {
          "duration": 0.2585224687499874,
          "durationTicks": 455,
          "midi": 76,
          "name": "E5",
          "ticks": 351840,
          "time": 208.77255100000002,
          "velocity": 0.7559055118110236
        },
        {
          "duration": 0.2585224687499874,
          "durationTicks": 455,
          "midi": 81,
          "name": "A5",
          "ticks": 351840,
          "time": 208.77255100000002,
          "velocity": 0.7559055118110236
        },
        {
          "duration": 0.12897714375000646,
          "durationTicks": 227,
          "midi": 84,
          "name": "C6",
          "ticks": 352320,
          "time": 209.045278,
          "velocity": 0.7559055118110236
        },
        {
          "duration": 0.12897714374997804,
          "durationTicks": 227,
          "midi": 86,
          "name": "D6",
          "ticks": 352560,
          "time": 209.1816415,
          "velocity": 0.7559055118110236
        },
        {
          "duration": 0.12897714375000646,
          "durationTicks": 227,
          "midi": 84,
          "name": "C6",
          "ticks": 352800,
          "time": 209.318005,
          "velocity": 0.7559055118110236
        },
        {
          "duration": 0.12897714375003488,
          "durationTicks": 227,
          "midi": 81,
          "name": "A5",
          "ticks": 353040,
          "time": 209.4543685,
          "velocity": 0.7559055118110236
        },
        {
          "duration": 0.12897714375003488,
          "durationTicks": 227,
          "midi": 84,
          "name": "C6",
          "ticks": 353040,
          "time": 209.4543685,
          "velocity": 0.7559055118110236
        },
        {
          "duration": 0.12897714375000646,
          "durationTicks": 227,
          "midi": 89,
          "name": "F6",
          "ticks": 353280,
          "time": 209.590732,
          "velocity": 0.7559055118110236
        },
        {
          "duration": 0.12897714374997804,
          "durationTicks": 227,
          "midi": 88,
          "name": "E6",
          "ticks": 353520,
          "time": 209.72709550000002,
          "velocity": 0.7559055118110236
        },
        {
          "duration": 0.3880677937499968,
          "durationTicks": 683,
          "midi": 79,
          "name": "G5",
          "ticks": 353760,
          "time": 209.863459,
          "velocity": 0.7559055118110236
        },
        {
          "duration": 0.3880677937499968,
          "durationTicks": 683,
          "midi": 87,
          "name": "D#6",
          "ticks": 353760,
          "time": 209.863459,
          "velocity": 0.7559055118110236
        },
        {
          "duration": 0.2585224687499874,
          "durationTicks": 455,
          "midi": 79,
          "name": "G5",
          "ticks": 354480,
          "time": 210.27254950000003,
          "velocity": 0.7559055118110236
        },
        {
          "duration": 0.3880677937499968,
          "durationTicks": 683,
          "midi": 70,
          "name": "A#4",
          "ticks": 354960,
          "time": 210.5452765,
          "velocity": 0.7559055118110236
        },
        {
          "duration": 0.3880677937499968,
          "durationTicks": 683,
          "midi": 74,
          "name": "D5",
          "ticks": 354960,
          "time": 210.5452765,
          "velocity": 0.7559055118110236
        },
        {
          "duration": 0.3880677937499968,
          "durationTicks": 683,
          "midi": 77,
          "name": "F5",
          "ticks": 354960,
          "time": 210.5452765,
          "velocity": 0.7559055118110236
        },
        {
          "duration": 0.12897714375000646,
          "durationTicks": 227,
          "midi": 77,
          "name": "F5",
          "ticks": 355680,
          "time": 210.954367,
          "velocity": 0.7086614173228346
        },
        {
          "duration": 0.25852246875001583,
          "durationTicks": 455,
          "midi": 70,
          "name": "A#4",
          "ticks": 355920,
          "time": 211.0907305,
          "velocity": 0.6929133858267716
        },
        {
          "duration": 0.25852246875001583,
          "durationTicks": 455,
          "midi": 73,
          "name": "C#5",
          "ticks": 355920,
          "time": 211.0907305,
          "velocity": 0.6929133858267716
        },
        {
          "duration": 0.25852246875001583,
          "durationTicks": 455,
          "midi": 77,
          "name": "F5",
          "ticks": 355920,
          "time": 211.0907305,
          "velocity": 0.6929133858267716
        },
        {
          "duration": 0.12897714375000646,
          "durationTicks": 227,
          "midi": 76,
          "name": "E5",
          "ticks": 356400,
          "time": 211.3634575,
          "velocity": 0.6614173228346457
        },
        {
          "duration": 0.12897714375000646,
          "durationTicks": 227,
          "midi": 76,
          "name": "E5",
          "ticks": 356640,
          "time": 211.499821,
          "velocity": 0.6456692913385826
        },
        {
          "duration": 0.5176131187499777,
          "durationTicks": 911,
          "midi": 69,
          "name": "A4",
          "ticks": 356880,
          "time": 211.6361845,
          "velocity": 0.6299212598425197
        },
        {
          "duration": 0.5176131187499777,
          "durationTicks": 911,
          "midi": 72,
          "name": "C5",
          "ticks": 356880,
          "time": 211.6361845,
          "velocity": 0.6299212598425197
        },
        {
          "duration": 0.5176131187499777,
          "durationTicks": 911,
          "midi": 77,
          "name": "F5",
          "ticks": 356880,
          "time": 211.6361845,
          "velocity": 0.6299212598425197
        }
      ],
      "endOfTrackTicks": 357792
    },
    {
      "channel": 0,
      "controlChanges": {
        "64": [
          {
            "number": 64,
            "ticks": 72962,
            "time": 41.4556403625,
            "value": 1
          },
          {
            "number": 64,
            "ticks": 74401,
            "time": 42.27325318125,
            "value": 0
          },
          {
            "number": 64,
            "ticks": 74882,
            "time": 42.5465483625,
            "value": 1
          },
          {
            "number": 64,
            "ticks": 76801,
            "time": 43.63688818125,
            "value": 0
          },
          {
            "number": 64,
            "ticks": 76802,
            "time": 43.6374563625,
            "value": 1
          },
          {
            "number": 64,
            "ticks": 78721,
            "time": 44.72779618125,
            "value": 0
          },
          {
            "number": 64,
            "ticks": 78722,
            "time": 44.728364362499995,
            "value": 1
          },
          {
            "number": 64,
            "ticks": 80641,
            "time": 45.81870418125,
            "value": 0
          },
          {
            "number": 64,
            "ticks": 188402,
            "time": 115.91014386250001,
            "value": 1
          },
          {
            "number": 64,
            "ticks": 190321,
            "time": 117.00048368125,
            "value": 0
          },
          {
            "number": 64,
            "ticks": 257042,
            "time": 154.91010486250002,
            "value": 1
          },
          {
            "number": 64,
            "ticks": 258961,
            "time": 156.00044468125,
            "value": 0
          },
          {
            "number": 64,
            "ticks": 262802,
            "time": 158.1828288625,
            "value": 1
          },
          {
            "number": 64,
            "ticks": 264721,
            "time": 159.27316868125,
            "value": 0
          },
          {
            "number": 64,
            "ticks": 289682,
            "time": 173.45554086250002,
            "value": 1
          },
          {
            "number": 64,
            "ticks": 291121,
            "time": 174.27315368125,
            "value": 0
          },
          {
            "number": 64,
            "ticks": 291602,
            "time": 174.5464488625,
            "value": 1
          },
          {
            "number": 64,
            "ticks": 293521,
            "time": 175.63678868125,
            "value": 0
          },
          {
            "number": 64,
            "ticks": 293522,
            "time": 175.63735686249998,
            "value": 1
          },
          {
            "number": 64,
            "ticks": 295441,
            "time": 176.72769668125,
            "value": 0
          },
          {
            "number": 64,
            "ticks": 295442,
            "time": 176.7282648625,
            "value": 1
          },
          {
            "number": 64,
            "ticks": 297361,
            "time": 177.81860468125,
            "value": 0
          },
          {
            "number": 64,
            "ticks": 297362,
            "time": 177.8191728625,
            "value": 1
          },
          {
            "number": 64,
            "ticks": 299281,
            "time": 178.90951268125002,
            "value": 0
          }
        ]
      },
      "pitchBends": [],
      "instrument": {
        "family": "piano",
        "number": 0,
        "name": "acoustic grand piano"
      },
      "name": "Piano\u0000",
      "notes": [
        {
          "duration": 0.12215896875,
          "durationTicks": 215,
          "midi": 42,
          "name": "F#2",
          "ticks": 0,
          "time": 0,
          "velocity": 0.7559055118110236
        },
        {
          "duration": 0.12215896875,
          "durationTicks": 215,
          "midi": 54,
          "name": "F#3",
          "ticks": 0,
          "time": 0,
          "velocity": 0.7559055118110236
        },
        {
          "duration": 0.12215896875000001,
          "durationTicks": 215,
          "midi": 42,
          "name": "F#2",
          "ticks": 240,
          "time": 0.1363635,
          "velocity": 0.7559055118110236
        },
        {
          "duration": 0.12215896875000001,
          "durationTicks": 215,
          "midi": 54,
          "name": "F#3",
          "ticks": 240,
          "time": 0.1363635,
          "velocity": 0.7559055118110236
        },
        {
          "duration": 0.12215896875000004,
          "durationTicks": 215,
          "midi": 42,
          "name": "F#2",
          "ticks": 480,
          "time": 0.272727,
          "velocity": 0.7559055118110236
        },
        {
          "duration": 0.12215896875000004,
          "durationTicks": 215,
          "midi": 54,
          "name": "F#3",
          "ticks": 480,
          "time": 0.272727,
          "velocity": 0.7559055118110236
        },
        {
          "duration": 0.12215896874999999,
          "durationTicks": 215,
          "midi": 42,
          "name": "F#2",
          "ticks": 720,
          "time": 0.4090905,
          "velocity": 0.7559055118110236
        },
        {
          "duration": 0.12215896874999999,
          "durationTicks": 215,
          "midi": 54,
          "name": "F#3",
          "ticks": 720,
          "time": 0.4090905,
          "velocity": 0.7559055118110236
        },
        {
          "duration": 0.12215896874999999,
          "durationTicks": 215,
          "midi": 42,
          "name": "F#2",
          "ticks": 960,
          "time": 0.545454,
          "velocity": 0.7559055118110236
        },
        {
          "duration": 0.12215896874999999,
          "durationTicks": 215,
          "midi": 54,
          "name": "F#3",
          "ticks": 960,
          "time": 0.545454,
          "velocity": 0.7559055118110236
        },
        {
          "duration": 0.12215896874999999,
          "durationTicks": 215,
          "midi": 42,
          "name": "F#2",
          "ticks": 1200,
          "time": 0.6818175,
          "velocity": 0.7559055118110236
        },
        {
          "duration": 0.12215896874999999,
          "durationTicks": 215,
          "midi": 54,
          "name": "F#3",
          "ticks": 1200,
          "time": 0.6818175,
          "velocity": 0.7559055118110236
        },
        {
          "duration": 0.12215896874999987,
          "durationTicks": 215,
          "midi": 42,
          "name": "F#2",
          "ticks": 1440,
          "time": 0.818181,
          "velocity": 0.7559055118110236
        },
        {
          "duration": 0.12215896874999987,
          "durationTicks": 215,
          "midi": 54,
          "name": "F#3",
          "ticks": 1440,
          "time": 0.818181,
          "velocity": 0.7559055118110236
        },
        {
          "duration": 0.12215896874999987,
          "durationTicks": 215,
          "midi": 42,
          "name": "F#2",
          "ticks": 1680,
          "time": 0.9545445,
          "velocity": 0.7559055118110236
        },
        {
          "duration": 0.12215896874999987,
          "durationTicks": 215,
          "midi": 54,
          "name": "F#3",
          "ticks": 1680,
          "time": 0.9545445,
          "velocity": 0.7559055118110236
        },
        {
          "duration": 0.12897714375000002,
          "durationTicks": 227,
          "midi": 35,
          "name": "B1",
          "ticks": 1920,
          "time": 1.090908,
          "velocity": 0.7559055118110236
        },
        {
          "duration": 0.12215896874999999,
          "durationTicks": 215,
          "midi": 47,
          "name": "B2",
          "ticks": 1920,
          "time": 1.090908,
          "velocity": 0.7559055118110236
        },
        {
          "duration": 0.1289771437499998,
          "durationTicks": 227,
          "midi": 35,
          "name": "B1",
          "ticks": 2160,
          "time": 1.2272715,
          "velocity": 0.7559055118110236
        },
        {
          "duration": 0.12215896874999999,
          "durationTicks": 215,
          "midi": 47,
          "name": "B2",
          "ticks": 2160,
          "time": 1.2272715,
          "velocity": 0.7559055118110236
        },
        {
          "duration": 0.12897714375000002,
          "durationTicks": 227,
          "midi": 35,
          "name": "B1",
          "ticks": 2400,
          "time": 1.363635,
          "velocity": 0.7559055118110236
        },
        {
          "duration": 0.12215896875000021,
          "durationTicks": 215,
          "midi": 47,
          "name": "B2",
          "ticks": 2400,
          "time": 1.363635,
          "velocity": 0.7559055118110236
        },
        {
          "duration": 0.1289771437499998,
          "durationTicks": 227,
          "midi": 35,
          "name": "B1",
          "ticks": 2640,
          "time": 1.4999985,
          "velocity": 0.7559055118110236
        },
        {
          "duration": 0.12215896874999999,
          "durationTicks": 215,
          "midi": 47,
          "name": "B2",
          "ticks": 2640,
          "time": 1.4999985,
          "velocity": 0.7559055118110236
        },
        {
          "duration": 0.13579531874999984,
          "durationTicks": 239,
          "midi": 35,
          "name": "B1",
          "ticks": 2880,
          "time": 1.636362,
          "velocity": 0.7559055118110236
        },
        {
          "duration": 0.24488611874999977,
          "durationTicks": 431,
          "midi": 47,
          "name": "B2",
          "ticks": 2880,
          "time": 1.636362,
          "velocity": 0.7559055118110236
        },
        {
          "duration": 0.18181800000000004,
          "durationTicks": 320,
          "midi": 35,
          "name": "B1",
          "ticks": 3360,
          "time": 1.909089,
          "velocity": 0.905511811023622
        },
        {
          "duration": 0.18181800000000004,
          "durationTicks": 320,
          "midi": 47,
          "name": "B2",
          "ticks": 3360,
          "time": 1.909089,
          "velocity": 0.905511811023622
        },
        {
          "duration": 0.25852246874999985,
          "durationTicks": 455,
          "midi": 40,
          "name": "E2",
          "ticks": 3840,
          "time": 2.181816,
          "velocity": 0.7559055118110236
        },
        {
          "duration": 0.25852246874999985,
          "durationTicks": 455,
          "midi": 52,
          "name": "E3",
          "ticks": 3840,
          "time": 2.181816,
          "velocity": 0.7559055118110236
        },
        {
          "duration": 0.10852261874999991,
          "durationTicks": 191,
          "midi": 52,
          "name": "E3",
          "ticks": 4320,
          "time": 2.454543,
          "velocity": 0.7559055118110236
        },
        {
          "duration": 0.10852261874999991,
          "durationTicks": 191,
          "midi": 56,
          "name": "G#3",
          "ticks": 4320,
          "time": 2.454543,
          "velocity": 0.7559055118110236
        },
        {
          "duration": 0.10852261874999991,
          "durationTicks": 191,
          "midi": 59,
          "name": "B3",
          "ticks": 4320,
          "time": 2.454543,
          "velocity": 0.7559055118110236
        },
        {
          "duration": 0.25852246874999985,
          "durationTicks": 455,
          "midi": 40,
          "name": "E2",
          "ticks": 4560,
          "time": 2.5909065,
          "velocity": 0.7559055118110236
        },
        {
          "duration": 0.1289771437499998,
          "durationTicks": 227,
          "midi": 47,
          "name": "B2",
          "ticks": 5040,
          "time": 2.8636335,
          "velocity": 0.7559055118110236
        },
        {
          "duration": 0.21761341875000006,
          "durationTicks": 383,
          "midi": 52,
          "name": "E3",
          "ticks": 5280,
          "time": 2.999997,
          "velocity": 0.7559055118110236
        },
        {
          "duration": 0.21761341875000006,
          "durationTicks": 383,
          "midi": 56,
          "name": "G#3",
          "ticks": 5280,
          "time": 2.999997,
          "velocity": 0.7559055118110236
        },
        {
          "duration": 0.21761341875000006,
          "durationTicks": 383,
          "midi": 59,
          "name": "B3",
          "ticks": 5280,
          "time": 2.999997,
          "velocity": 0.7559055118110236
        },
        {
          "duration": 0.2585224687499994,
          "durationTicks": 455,
          "midi": 42,
          "name": "F#2",
          "ticks": 5760,
          "time": 3.272724,
          "velocity": 0.7559055118110236
        },
        {
          "duration": 0.2585224687499994,
          "durationTicks": 455,
          "midi": 54,
          "name": "F#3",
          "ticks": 5760,
          "time": 3.272724,
          "velocity": 0.7559055118110236
        },
        {
          "duration": 0.10852261875000035,
          "durationTicks": 191,
          "midi": 54,
          "name": "F#3",
          "ticks": 6240,
          "time": 3.545451,
          "velocity": 0.7559055118110236
        },
        {
          "duration": 0.10852261875000035,
          "durationTicks": 191,
          "midi": 57,
          "name": "A3",
          "ticks": 6240,
          "time": 3.545451,
          "velocity": 0.7559055118110236
        },
        {
          "duration": 0.10852261875000035,
          "durationTicks": 191,
          "midi": 61,
          "name": "C#4",
          "ticks": 6240,
          "time": 3.545451,
          "velocity": 0.7559055118110236
        },
        {
          "duration": 0.25852246874999985,
          "durationTicks": 455,
          "midi": 42,
          "name": "F#2",
          "ticks": 6480,
          "time": 3.6818144999999998,
          "velocity": 0.7559055118110236
        },
        {
          "duration": 0.1289771437499998,
          "durationTicks": 227,
          "midi": 49,
          "name": "C#3",
          "ticks": 6960,
          "time": 3.9545415,
          "velocity": 0.7559055118110236
        },
        {
          "duration": 0.21761341875000006,
          "durationTicks": 383,
          "midi": 54,
          "name": "F#3",
          "ticks": 7200,
          "time": 4.090905,
          "velocity": 0.7559055118110236
        },
        {
          "duration": 0.21761341875000006,
          "durationTicks": 383,
          "midi": 57,
          "name": "A3",
          "ticks": 7200,
          "time": 4.090905,
          "velocity": 0.7559055118110236
        },
        {
          "duration": 0.21761341875000006,
          "durationTicks": 383,
          "midi": 61,
          "name": "C#4",
          "ticks": 7200,
          "time": 4.090905,
          "velocity": 0.7559055118110236
        },
        {
          "duration": 0.25852246875000073,
          "durationTicks": 455,
          "midi": 44,
          "name": "G#2",
          "ticks": 7680,
          "time": 4.363632,
          "velocity": 0.7559055118110236
        },
        {
          "duration": 0.25852246875000073,
          "durationTicks": 455,
          "midi": 56,
          "name": "G#3",
          "ticks": 7680,
          "time": 4.363632,
          "velocity": 0.7559055118110236
        },
        {
          "duration": 0.10852261875000035,
          "durationTicks": 191,
          "midi": 51,
          "name": "D#3",
          "ticks": 8160,
          "time": 4.636359,
          "velocity": 0.7559055118110236
        },
        {
          "duration": 0.10852261875000035,
          "durationTicks": 191,
          "midi": 56,
          "name": "G#3",
          "ticks": 8160,
          "time": 4.636359,
          "velocity": 0.7559055118110236
        },
        {
          "duration": 0.10852261875000035,
          "durationTicks": 191,
          "midi": 59,
          "name": "B3",
          "ticks": 8160,
          "time": 4.636359,
          "velocity": 0.7559055118110236
        },
        {
          "duration": 0.25852246875000073,
          "durationTicks": 455,
          "midi": 44,
          "name": "G#2",
          "ticks": 8400,
          "time": 4.7727224999999995,
          "velocity": 0.7559055118110236
        },
        {
          "duration": 0.12897714374999936,
          "durationTicks": 227,
          "midi": 44,
          "name": "G#2",
          "ticks": 8880,
          "time": 5.0454495,
          "velocity": 0.7559055118110236
        },
        {
          "duration": 0.21761341875000006,
          "durationTicks": 383,
          "midi": 51,
          "name": "D#3",
          "ticks": 9120,
          "time": 5.181813,
          "velocity": 0.7559055118110236
        },
        {
          "duration": 0.21761341875000006,
          "durationTicks": 383,
          "midi": 56,
          "name": "G#3",
          "ticks": 9120,
          "time": 5.181813,
          "velocity": 0.7559055118110236
        },
        {
          "duration": 0.21761341875000006,
          "durationTicks": 383,
          "midi": 59,
          "name": "B3",
          "ticks": 9120,
          "time": 5.181813,
          "velocity": 0.7559055118110236
        },
        {
          "duration": 0.25852246875000073,
          "durationTicks": 455,
          "midi": 45,
          "name": "A2",
          "ticks": 9600,
          "time": 5.45454,
          "velocity": 0.7559055118110236
        },
        {
          "duration": 0.25852246875000073,
          "durationTicks": 455,
          "midi": 57,
          "name": "A3",
          "ticks": 9600,
          "time": 5.45454,
          "velocity": 0.7559055118110236
        },
        {
          "duration": 0.10852261874999947,
          "durationTicks": 191,
          "midi": 52,
          "name": "E3",
          "ticks": 10080,
          "time": 5.727267,
          "velocity": 0.7559055118110236
        },
        {
          "duration": 0.10852261874999947,
          "durationTicks": 191,
          "midi": 57,
          "name": "A3",
          "ticks": 10080,
          "time": 5.727267,
          "velocity": 0.7559055118110236
        },
        {
          "duration": 0.10852261874999947,
          "durationTicks": 191,
          "midi": 61,
          "name": "C#4",
          "ticks": 10080,
          "time": 5.727267,
          "velocity": 0.7559055118110236
        },
        {
          "duration": 0.25852246874999985,
          "durationTicks": 455,
          "midi": 45,
          "name": "A2",
          "ticks": 10320,
          "time": 5.8636305,
          "velocity": 0.7559055118110236
        },
        {
          "duration": 0.12897714375000024,
          "durationTicks": 227,
          "midi": 45,
          "name": "A2",
          "ticks": 10800,
          "time": 6.1363575,
          "velocity": 0.7559055118110236
        },
        {
          "duration": 0.21761341875000006,
          "durationTicks": 383,
          "midi": 52,
          "name": "E3",
          "ticks": 11040,
          "time": 6.272721,
          "velocity": 0.7559055118110236
        },
        {
          "duration": 0.21761341875000006,
          "durationTicks": 383,
          "midi": 57,
          "name": "A3",
          "ticks": 11040,
          "time": 6.272721,
          "velocity": 0.7559055118110236
        },
        {
          "duration": 0.21761341875000006,
          "durationTicks": 383,
          "midi": 61,
          "name": "C#4",
          "ticks": 11040,
          "time": 6.272721,
          "velocity": 0.7559055118110236
        },
        {
          "duration": 0.25852246874999985,
          "durationTicks": 455,
          "midi": 36,
          "name": "C2",
          "ticks": 11520,
          "time": 6.545448,
          "velocity": 0.7559055118110236
        },
        {
          "duration": 0.25852246874999985,
          "durationTicks": 455,
          "midi": 48,
          "name": "C3",
          "ticks": 11520,
          "time": 6.545448,
          "velocity": 0.7559055118110236
        },
        {
          "duration": 0.10852261875000035,
          "durationTicks": 191,
          "midi": 54,
          "name": "F#3",
          "ticks": 12000,
          "time": 6.818175,
          "velocity": 0.7559055118110236
        },
        {
          "duration": 0.10852261875000035,
          "durationTicks": 191,
          "midi": 60,
          "name": "C4",
          "ticks": 12000,
          "time": 6.818175,
          "velocity": 0.7559055118110236
        },
        {
          "duration": 0.10852261875000035,
          "durationTicks": 191,
          "midi": 63,
          "name": "D#4",
          "ticks": 12000,
          "time": 6.818175,
          "velocity": 0.7559055118110236
        },
        {
          "duration": 0.25852246875000073,
          "durationTicks": 455,
          "midi": 48,
          "name": "C3",
          "ticks": 12240,
          "time": 6.9545385,
          "velocity": 0.7559055118110236
        },
        {
          "duration": 0.12897714375000024,
          "durationTicks": 227,
          "midi": 48,
          "name": "C3",
          "ticks": 12720,
          "time": 7.2272655,
          "velocity": 0.7559055118110236
        },
        {
          "duration": 0.21761341875000006,
          "durationTicks": 383,
          "midi": 54,
          "name": "F#3",
          "ticks": 12960,
          "time": 7.3636289999999995,
          "velocity": 0.7559055118110236
        },
        {
          "duration": 0.21761341875000006,
          "durationTicks": 383,
          "midi": 60,
          "name": "C4",
          "ticks": 12960,
          "time": 7.3636289999999995,
          "velocity": 0.7559055118110236
        },
        {
          "duration": 0.21761341875000006,
          "durationTicks": 383,
          "midi": 63,
          "name": "D#4",
          "ticks": 12960,
          "time": 7.3636289999999995,
          "velocity": 0.7559055118110236
        },
        {
          "duration": 0.25852246874999985,
          "durationTicks": 455,
          "midi": 37,
          "name": "C#2",
          "ticks": 13440,
          "time": 7.636356,
          "velocity": 0.7559055118110236
        },
        {
          "duration": 0.25852246874999985,
          "durationTicks": 455,
          "midi": 49,
          "name": "C#3",
          "ticks": 13440,
          "time": 7.636356,
          "velocity": 0.7559055118110236
        },
        {
          "duration": 0.10852261875000035,
          "durationTicks": 191,
          "midi": 52,
          "name": "E3",
          "ticks": 13920,
          "time": 7.909083,
          "velocity": 0.7559055118110236
        },
        {
          "duration": 0.10852261875000035,
          "durationTicks": 191,
          "midi": 56,
          "name": "G#3",
          "ticks": 13920,
          "time": 7.909083,
          "velocity": 0.7559055118110236
        },
        {
          "duration": 0.10852261875000035,
          "durationTicks": 191,
          "midi": 61,
          "name": "C#4",
          "ticks": 13920,
          "time": 7.909083,
          "velocity": 0.7559055118110236
        },
        {
          "duration": 0.25852246874999985,
          "durationTicks": 455,
          "midi": 37,
          "name": "C#2",
          "ticks": 14160,
          "time": 8.0454465,
          "velocity": 0.7559055118110236
        },
        {
          "duration": 0.12897714374999936,
          "durationTicks": 227,
          "midi": 49,
          "name": "C#3",
          "ticks": 14640,
          "time": 8.3181735,
          "velocity": 0.7559055118110236
        },
        {
          "duration": 0.21761341875000006,
          "durationTicks": 383,
          "midi": 52,
          "name": "E3",
          "ticks": 14880,
          "time": 8.454537,
          "velocity": 0.7559055118110236
        },
        {
          "duration": 0.21761341875000006,
          "durationTicks": 383,
          "midi": 56,
          "name": "G#3",
          "ticks": 14880,
          "time": 8.454537,
          "velocity": 0.7559055118110236
        },
        {
          "duration": 0.21761341875000006,
          "durationTicks": 383,
          "midi": 61,
          "name": "C#4",
          "ticks": 14880,
          "time": 8.454537,
          "velocity": 0.7559055118110236
        },
        {
          "duration": 0.25852246874999985,
          "durationTicks": 455,
          "midi": 42,
          "name": "F#2",
          "ticks": 15360,
          "time": 8.727264,
          "velocity": 0.7559055118110236
        },
        {
          "duration": 0.25852246874999985,
          "durationTicks": 455,
          "midi": 54,
          "name": "F#3",
          "ticks": 15360,
          "time": 8.727264,
          "velocity": 0.7559055118110236
        },
        {
          "duration": 0.10852261875000124,
          "durationTicks": 191,
          "midi": 54,
          "name": "F#3",
          "ticks": 15840,
          "time": 8.999991,
          "velocity": 0.7559055118110236
        },
        {
          "duration": 0.10852261875000124,
          "durationTicks": 191,
          "midi": 57,
          "name": "A3",
          "ticks": 15840,
          "time": 8.999991,
          "velocity": 0.7559055118110236
        },
        {
          "duration": 0.10852261875000124,
          "durationTicks": 191,
          "midi": 61,
          "name": "C#4",
          "ticks": 15840,
          "time": 8.999991,
          "velocity": 0.7559055118110236
        },
        {
          "duration": 0.25852246874999985,
          "durationTicks": 455,
          "midi": 42,
          "name": "F#2",
          "ticks": 16080,
          "time": 9.1363545,
          "velocity": 0.7559055118110236
        },
        {
          "duration": 0.12897714375000113,
          "durationTicks": 227,
          "midi": 49,
          "name": "C#3",
          "ticks": 16560,
          "time": 9.4090815,
          "velocity": 0.7559055118110236
        },
        {
          "duration": 0.21761341875000006,
          "durationTicks": 383,
          "midi": 54,
          "name": "F#3",
          "ticks": 16800,
          "time": 9.545444999999999,
          "velocity": 0.7559055118110236
        },
        {
          "duration": 0.21761341875000006,
          "durationTicks": 383,
          "midi": 57,
          "name": "A3",
          "ticks": 16800,
          "time": 9.545444999999999,
          "velocity": 0.7559055118110236
        },
        {
          "duration": 0.21761341875000006,
          "durationTicks": 383,
          "midi": 61,
          "name": "C#4",
          "ticks": 16800,
          "time": 9.545444999999999,
          "velocity": 0.7559055118110236
        },
        {
          "duration": 0.25852246874999807,
          "durationTicks": 455,
          "midi": 48,
          "name": "C3",
          "ticks": 17280,
          "time": 9.818172,
          "velocity": 0.7559055118110236
        },
        {
          "duration": 0.25852246874999807,
          "durationTicks": 455,
          "midi": 52,
          "name": "E3",
          "ticks": 17280,
          "time": 9.818172,
          "velocity": 0.7559055118110236
        },
        {
          "duration": 0.25852246874999807,
          "durationTicks": 455,
          "midi": 53,
          "name": "F3",
          "ticks": 17280,
          "time": 9.818172,
          "velocity": 0.7559055118110236
        },
        {
          "duration": 0.25852246874999807,
          "durationTicks": 455,
          "midi": 57,
          "name": "A3",
          "ticks": 17280,
          "time": 9.818172,
          "velocity": 0.7559055118110236
        },
        {
          "duration": 0.12897714375000113,
          "durationTicks": 227,
          "midi": 41,
          "name": "F2",
          "ticks": 18000,
          "time": 10.2272625,
          "velocity": 0.7559055118110236
        },
        {
          "duration": 0.21761341875000006,
          "durationTicks": 383,
          "midi": 48,
          "name": "C3",
          "ticks": 18240,
          "time": 10.363626,
          "velocity": 0.7559055118110236
        },
        {
          "duration": 0.21761341875000006,
          "durationTicks": 383,
          "midi": 52,
          "name": "E3",
          "ticks": 18240,
          "time": 10.363626,
          "velocity": 0.7559055118110236
        },
        {
          "duration": 0.21761341875000006,
          "durationTicks": 383,
          "midi": 53,
          "name": "F3",
          "ticks": 18240,
          "time": 10.363626,
          "velocity": 0.7559055118110236
        },
        {
          "duration": 0.21761341875000006,
          "durationTicks": 383,
          "midi": 57,
          "name": "A3",
          "ticks": 18240,
          "time": 10.363626,
          "velocity": 0.7559055118110236
        },
        {
          "duration": 0.25852246874999985,
          "durationTicks": 455,
          "midi": 48,
          "name": "C3",
          "ticks": 18720,
          "time": 10.636353,
          "velocity": 0.7559055118110236
        },
        {
          "duration": 0.25852246874999985,
          "durationTicks": 455,
          "midi": 52,
          "name": "E3",
          "ticks": 18720,
          "time": 10.636353,
          "velocity": 0.7559055118110236
        },
        {
          "duration": 0.25852246874999985,
          "durationTicks": 455,
          "midi": 53,
          "name": "F3",
          "ticks": 18720,
          "time": 10.636353,
          "velocity": 0.7559055118110236
        },
        {
          "duration": 0.25852246874999985,
          "durationTicks": 455,
          "midi": 57,
          "name": "A3",
          "ticks": 18720,
          "time": 10.636353,
          "velocity": 0.7559055118110236
        },
        {
          "duration": 0.25852246874999985,
          "durationTicks": 455,
          "midi": 40,
          "name": "E2",
          "ticks": 19200,
          "time": 10.90908,
          "velocity": 0.7559055118110236
        },
        {
          "duration": 0.25852246874999985,
          "durationTicks": 455,
          "midi": 52,
          "name": "E3",
          "ticks": 19200,
          "time": 10.90908,
          "velocity": 0.7559055118110236
        },
        {
          "duration": 0.10852261875000124,
          "durationTicks": 191,
          "midi": 52,
          "name": "E3",
          "ticks": 19680,
          "time": 11.181807,
          "velocity": 0.7559055118110236
        },
        {
          "duration": 0.10852261875000124,
          "durationTicks": 191,
          "midi": 56,
          "name": "G#3",
          "ticks": 19680,
          "time": 11.181807,
          "velocity": 0.7559055118110236
        },
        {
          "duration": 0.10852261875000124,
          "durationTicks": 191,
          "midi": 59,
          "name": "B3",
          "ticks": 19680,
          "time": 11.181807,
          "velocity": 0.7559055118110236
        },
        {
          "duration": 0.25852246874999985,
          "durationTicks": 455,
          "midi": 40,
          "name": "E2",
          "ticks": 19920,
          "time": 11.318170499999999,
          "velocity": 0.7559055118110236
        },
        {
          "duration": 0.12897714375000113,
          "durationTicks": 227,
          "midi": 47,
          "name": "B2",
          "ticks": 20400,
          "time": 11.5908975,
          "velocity": 0.7559055118110236
        },
        {
          "duration": 0.21761341875000006,
          "durationTicks": 383,
          "midi": 52,
          "name": "E3",
          "ticks": 20640,
          "time": 11.727261,
          "velocity": 0.7559055118110236
        },
        {
          "duration": 0.21761341875000006,
          "durationTicks": 383,
          "midi": 56,
          "name": "G#3",
          "ticks": 20640,
          "time": 11.727261,
          "velocity": 0.7559055118110236
        },
        {
          "duration": 0.21761341875000006,
          "durationTicks": 383,
          "midi": 59,
          "name": "B3",
          "ticks": 20640,
          "time": 11.727261,
          "velocity": 0.7559055118110236
        },
        {
          "duration": 0.25852246874999985,
          "durationTicks": 455,
          "midi": 42,
          "name": "F#2",
          "ticks": 21120,
          "time": 11.999988,
          "velocity": 0.7559055118110236
        },
        {
          "duration": 0.25852246874999985,
          "durationTicks": 455,
          "midi": 54,
          "name": "F#3",
          "ticks": 21120,
          "time": 11.999988,
          "velocity": 0.7559055118110236
        },
        {
          "duration": 0.10852261874999947,
          "durationTicks": 191,
          "midi": 54,
          "name": "F#3",
          "ticks": 21600,
          "time": 12.272715,
          "velocity": 0.7559055118110236
        },
        {
          "duration": 0.10852261874999947,
          "durationTicks": 191,
          "midi": 57,
          "name": "A3",
          "ticks": 21600,
          "time": 12.272715,
          "velocity": 0.7559055118110236
        },
        {
          "duration": 0.10852261874999947,
          "durationTicks": 191,
          "midi": 61,
          "name": "C#4",
          "ticks": 21600,
          "time": 12.272715,
          "velocity": 0.7559055118110236
        },
        {
          "duration": 0.25852246874999985,
          "durationTicks": 455,
          "midi": 42,
          "name": "F#2",
          "ticks": 21840,
          "time": 12.4090785,
          "velocity": 0.7559055118110236
        },
        {
          "duration": 0.12897714375000113,
          "durationTicks": 227,
          "midi": 49,
          "name": "C#3",
          "ticks": 22320,
          "time": 12.6818055,
          "velocity": 0.7559055118110236
        },
        {
          "duration": 0.21761341875000006,
          "durationTicks": 383,
          "midi": 54,
          "name": "F#3",
          "ticks": 22560,
          "time": 12.818169,
          "velocity": 0.7559055118110236
        },
        {
          "duration": 0.21761341875000006,
          "durationTicks": 383,
          "midi": 57,
          "name": "A3",
          "ticks": 22560,
          "time": 12.818169,
          "velocity": 0.7559055118110236
        },
        {
          "duration": 0.21761341875000006,
          "durationTicks": 383,
          "midi": 61,
          "name": "C#4",
          "ticks": 22560,
          "time": 12.818169,
          "velocity": 0.7559055118110236
        },
        {
          "duration": 0.25852246874999807,
          "durationTicks": 455,
          "midi": 44,
          "name": "G#2",
          "ticks": 23040,
          "time": 13.090896,
          "velocity": 0.7559055118110236
        },
        {
          "duration": 0.25852246874999807,
          "durationTicks": 455,
          "midi": 56,
          "name": "G#3",
          "ticks": 23040,
          "time": 13.090896,
          "velocity": 0.7559055118110236
        },
        {
          "duration": 0.10852261874999947,
          "durationTicks": 191,
          "midi": 51,
          "name": "D#3",
          "ticks": 23520,
          "time": 13.363623,
          "velocity": 0.7559055118110236
        },
        {
          "duration": 0.10852261874999947,
          "durationTicks": 191,
          "midi": 56,
          "name": "G#3",
          "ticks": 23520,
          "time": 13.363623,
          "velocity": 0.7559055118110236
        },
        {
          "duration": 0.10852261874999947,
          "durationTicks": 191,
          "midi": 59,
          "name": "B3",
          "ticks": 23520,
          "time": 13.363623,
          "velocity": 0.7559055118110236
        },
        {
          "duration": 0.25852246874999807,
          "durationTicks": 455,
          "midi": 44,
          "name": "G#2",
          "ticks": 23760,
          "time": 13.4999865,
          "velocity": 0.7559055118110236
        },
        {
          "duration": 0.12897714375000113,
          "durationTicks": 227,
          "midi": 44,
          "name": "G#2",
          "ticks": 24240,
          "time": 13.7727135,
          "velocity": 0.7559055118110236
        },
        {
          "duration": 0.21761341875000006,
          "durationTicks": 383,
          "midi": 51,
          "name": "D#3",
          "ticks": 24480,
          "time": 13.909077,
          "velocity": 0.7559055118110236
        },
        {
          "duration": 0.21761341875000006,
          "durationTicks": 383,
          "midi": 56,
          "name": "G#3",
          "ticks": 24480,
          "time": 13.909077,
          "velocity": 0.7559055118110236
        },
        {
          "duration": 0.21761341875000006,
          "durationTicks": 383,
          "midi": 59,
          "name": "B3",
          "ticks": 24480,
          "time": 13.909077,
          "velocity": 0.7559055118110236
        },
        {
          "duration": 0.25852246874999985,
          "durationTicks": 455,
          "midi": 45,
          "name": "A2",
          "ticks": 24960,
          "time": 14.181804,
          "velocity": 0.7559055118110236
        },
        {
          "duration": 0.25852246874999985,
          "durationTicks": 455,
          "midi": 57,
          "name": "A3",
          "ticks": 24960,
          "time": 14.181804,
          "velocity": 0.7559055118110236
        },
        {
          "duration": 0.10852261875000124,
          "durationTicks": 191,
          "midi": 52,
          "name": "E3",
          "ticks": 25440,
          "time": 14.454531,
          "velocity": 0.7559055118110236
        },
        {
          "duration": 0.10852261875000124,
          "durationTicks": 191,
          "midi": 57,
          "name": "A3",
          "ticks": 25440,
          "time": 14.454531,
          "velocity": 0.7559055118110236
        },
        {
          "duration": 0.10852261875000124,
          "durationTicks": 191,
          "midi": 61,
          "name": "C#4",
          "ticks": 25440,
          "time": 14.454531,
          "velocity": 0.7559055118110236
        },
        {
          "duration": 0.25852246874999985,
          "durationTicks": 455,
          "midi": 45,
          "name": "A2",
          "ticks": 25680,
          "time": 14.5908945,
          "velocity": 0.7559055118110236
        },
        {
          "duration": 0.12897714374999936,
          "durationTicks": 227,
          "midi": 45,
          "name": "A2",
          "ticks": 26160,
          "time": 14.8636215,
          "velocity": 0.7559055118110236
        },
        {
          "duration": 0.2176134187499983,
          "durationTicks": 383,
          "midi": 52,
          "name": "E3",
          "ticks": 26400,
          "time": 14.999985,
          "velocity": 0.7559055118110236
        },
        {
          "duration": 0.2176134187499983,
          "durationTicks": 383,
          "midi": 57,
          "name": "A3",
          "ticks": 26400,
          "time": 14.999985,
          "velocity": 0.7559055118110236
        },
        {
          "duration": 0.2176134187499983,
          "durationTicks": 383,
          "midi": 61,
          "name": "C#4",
          "ticks": 26400,
          "time": 14.999985,
          "velocity": 0.7559055118110236
        },
        {
          "duration": 0.25852246874999807,
          "durationTicks": 455,
          "midi": 36,
          "name": "C2",
          "ticks": 26880,
          "time": 15.272712,
          "velocity": 0.7559055118110236
        },
        {
          "duration": 0.25852246874999807,
          "durationTicks": 455,
          "midi": 48,
          "name": "C3",
          "ticks": 26880,
          "time": 15.272712,
          "velocity": 0.7559055118110236
        },
        {
          "duration": 0.10852261874999947,
          "durationTicks": 191,
          "midi": 54,
          "name": "F#3",
          "ticks": 27360,
          "time": 15.545439,
          "velocity": 0.7559055118110236
        },
        {
          "duration": 0.10852261874999947,
          "durationTicks": 191,
          "midi": 60,
          "name": "C4",
          "ticks": 27360,
          "time": 15.545439,
          "velocity": 0.7559055118110236
        },
        {
          "duration": 0.10852261874999947,
          "durationTicks": 191,
          "midi": 63,
          "name": "D#4",
          "ticks": 27360,
          "time": 15.545439,
          "velocity": 0.7559055118110236
        },
        {
          "duration": 0.25852246874999985,
          "durationTicks": 455,
          "midi": 48,
          "name": "C3",
          "ticks": 27600,
          "time": 15.6818025,
          "velocity": 0.7559055118110236
        },
        {
          "duration": 0.1289771437500029,
          "durationTicks": 227,
          "midi": 48,
          "name": "C3",
          "ticks": 28080,
          "time": 15.9545295,
          "velocity": 0.7559055118110236
        },
        {
          "duration": 0.2176134187499983,
          "durationTicks": 383,
          "midi": 54,
          "name": "F#3",
          "ticks": 28320,
          "time": 16.090893,
          "velocity": 0.7559055118110236
        },
        {
          "duration": 0.2176134187499983,
          "durationTicks": 383,
          "midi": 60,
          "name": "C4",
          "ticks": 28320,
          "time": 16.090893,
          "velocity": 0.7559055118110236
        },
        {
          "duration": 0.2176134187499983,
          "durationTicks": 383,
          "midi": 63,
          "name": "D#4",
          "ticks": 28320,
          "time": 16.090893,
          "velocity": 0.7559055118110236
        },
        {
          "duration": 0.25852246874999807,
          "durationTicks": 455,
          "midi": 37,
          "name": "C#2",
          "ticks": 28800,
          "time": 16.36362,
          "velocity": 0.7559055118110236
        },
        {
          "duration": 0.25852246874999807,
          "durationTicks": 455,
          "midi": 49,
          "name": "C#3",
          "ticks": 28800,
          "time": 16.36362,
          "velocity": 0.7559055118110236
        },
        {
          "duration": 0.10852261874999769,
          "durationTicks": 191,
          "midi": 52,
          "name": "E3",
          "ticks": 29280,
          "time": 16.636347,
          "velocity": 0.7559055118110236
        },
        {
          "duration": 0.10852261874999769,
          "durationTicks": 191,
          "midi": 56,
          "name": "G#3",
          "ticks": 29280,
          "time": 16.636347,
          "velocity": 0.7559055118110236
        },
        {
          "duration": 0.10852261874999769,
          "durationTicks": 191,
          "midi": 61,
          "name": "C#4",
          "ticks": 29280,
          "time": 16.636347,
          "velocity": 0.7559055118110236
        },
        {
          "duration": 0.2585224687500016,
          "durationTicks": 455,
          "midi": 37,
          "name": "C#2",
          "ticks": 29520,
          "time": 16.7727105,
          "velocity": 0.7559055118110236
        },
        {
          "duration": 0.1289771437500029,
          "durationTicks": 227,
          "midi": 49,
          "name": "C#3",
          "ticks": 30000,
          "time": 17.0454375,
          "velocity": 0.7559055118110236
        },
        {
          "duration": 0.2176134187499983,
          "durationTicks": 383,
          "midi": 52,
          "name": "E3",
          "ticks": 30240,
          "time": 17.181801,
          "velocity": 0.7559055118110236
        },
        {
          "duration": 0.2176134187499983,
          "durationTicks": 383,
          "midi": 56,
          "name": "G#3",
          "ticks": 30240,
          "time": 17.181801,
          "velocity": 0.7559055118110236
        },
        {
          "duration": 0.2176134187499983,
          "durationTicks": 383,
          "midi": 61,
          "name": "C#4",
          "ticks": 30240,
          "time": 17.181801,
          "velocity": 0.7559055118110236
        },
        {
          "duration": 0.2585224687500016,
          "durationTicks": 455,
          "midi": 42,
          "name": "F#2",
          "ticks": 30720,
          "time": 17.454528,
          "velocity": 0.7559055118110236
        },
        {
          "duration": 0.2585224687500016,
          "durationTicks": 455,
          "midi": 54,
          "name": "F#3",
          "ticks": 30720,
          "time": 17.454528,
          "velocity": 0.7559055118110236
        },
        {
          "duration": 0.10852261874999769,
          "durationTicks": 191,
          "midi": 54,
          "name": "F#3",
          "ticks": 31200,
          "time": 17.727255,
          "velocity": 0.7559055118110236
        },
        {
          "duration": 0.10852261874999769,
          "durationTicks": 191,
          "midi": 57,
          "name": "A3",
          "ticks": 31200,
          "time": 17.727255,
          "velocity": 0.7559055118110236
        },
        {
          "duration": 0.10852261874999769,
          "durationTicks": 191,
          "midi": 61,
          "name": "C#4",
          "ticks": 31200,
          "time": 17.727255,
          "velocity": 0.7559055118110236
        },
        {
          "duration": 0.2585224687500016,
          "durationTicks": 455,
          "midi": 42,
          "name": "F#2",
          "ticks": 31440,
          "time": 17.8636185,
          "velocity": 0.7559055118110236
        },
        {
          "duration": 0.12897714374999936,
          "durationTicks": 227,
          "midi": 49,
          "name": "C#3",
          "ticks": 31920,
          "time": 18.1363455,
          "velocity": 0.7559055118110236
        },
        {
          "duration": 0.21761341875000184,
          "durationTicks": 383,
          "midi": 54,
          "name": "F#3",
          "ticks": 32160,
          "time": 18.272709,
          "velocity": 0.7559055118110236
        },
        {
          "duration": 0.21761341875000184,
          "durationTicks": 383,
          "midi": 57,
          "name": "A3",
          "ticks": 32160,
          "time": 18.272709,
          "velocity": 0.7559055118110236
        },
        {
          "duration": 0.21761341875000184,
          "durationTicks": 383,
          "midi": 61,
          "name": "C#4",
          "ticks": 32160,
          "time": 18.272709,
          "velocity": 0.7559055118110236
        },
        {
          "duration": 0.21761341875000184,
          "durationTicks": 383,
          "midi": 52,
          "name": "E3",
          "ticks": 32640,
          "time": 18.545436,
          "velocity": 0.7559055118110236
        },
        {
          "duration": 0.21761341875000184,
          "durationTicks": 383,
          "midi": 54,
          "name": "F#3",
          "ticks": 32640,
          "time": 18.545436,
          "velocity": 0.7559055118110236
        },
        {
          "duration": 0.21761341875000184,
          "durationTicks": 383,
          "midi": 59,
          "name": "B3",
          "ticks": 32640,
          "time": 18.545436,
          "velocity": 0.7559055118110236
        },
        {
          "duration": 0.21761341875000184,
          "durationTicks": 383,
          "midi": 35,
          "name": "B1",
          "ticks": 33120,
          "time": 18.818163,
          "velocity": 0.7559055118110236
        },
        {
          "duration": 0.21761341875000184,
          "durationTicks": 383,
          "midi": 47,
          "name": "B2",
          "ticks": 33120,
          "time": 18.818163,
          "velocity": 0.7559055118110236
        },
        {
          "duration": 0.21761341875000184,
          "durationTicks": 383,
          "midi": 35,
          "name": "B1",
          "ticks": 33600,
          "time": 19.090889999999998,
          "velocity": 0.7559055118110236
        },
        {
          "duration": 0.21761341875000184,
          "durationTicks": 383,
          "midi": 47,
          "name": "B2",
          "ticks": 33600,
          "time": 19.090889999999998,
          "velocity": 0.7559055118110236
        },
        {
          "duration": 0.2176134187499983,
          "durationTicks": 383,
          "midi": 35,
          "name": "B1",
          "ticks": 34080,
          "time": 19.363617,
          "velocity": 0.7559055118110236
        },
        {
          "duration": 0.2176134187499983,
          "durationTicks": 383,
          "midi": 47,
          "name": "B2",
          "ticks": 34080,
          "time": 19.363617,
          "velocity": 0.7559055118110236
        },
        {
          "duration": 0.2585224687500016,
          "durationTicks": 455,
          "midi": 40,
          "name": "E2",
          "ticks": 34560,
          "time": 19.636344,
          "velocity": 0.7559055118110236
        },
        {
          "duration": 0.2585224687500016,
          "durationTicks": 455,
          "midi": 52,
          "name": "E3",
          "ticks": 34560,
          "time": 19.636344,
          "velocity": 0.7559055118110236
        },
        {
          "duration": 0.10852261874999769,
          "durationTicks": 191,
          "midi": 52,
          "name": "E3",
          "ticks": 35040,
          "time": 19.909071,
          "velocity": 0.7559055118110236
        },
        {
          "duration": 0.10852261874999769,
          "durationTicks": 191,
          "midi": 56,
          "name": "G#3",
          "ticks": 35040,
          "time": 19.909071,
          "velocity": 0.7559055118110236
        },
        {
          "duration": 0.10852261874999769,
          "durationTicks": 191,
          "midi": 59,
          "name": "B3",
          "ticks": 35040,
          "time": 19.909071,
          "velocity": 0.7559055118110236
        },
        {
          "duration": 0.2585224687500016,
          "durationTicks": 455,
          "midi": 40,
          "name": "E2",
          "ticks": 35280,
          "time": 20.0454345,
          "velocity": 0.7559055118110236
        },
        {
          "duration": 0.12897714374999936,
          "durationTicks": 227,
          "midi": 47,
          "name": "B2",
          "ticks": 35760,
          "time": 20.3181615,
          "velocity": 0.7559055118110236
        },
        {
          "duration": 0.2176134187499983,
          "durationTicks": 383,
          "midi": 52,
          "name": "E3",
          "ticks": 36000,
          "time": 20.454525,
          "velocity": 0.7559055118110236
        },
        {
          "duration": 0.2176134187499983,
          "durationTicks": 383,
          "midi": 56,
          "name": "G#3",
          "ticks": 36000,
          "time": 20.454525,
          "velocity": 0.7559055118110236
        },
        {
          "duration": 0.2176134187499983,
          "durationTicks": 383,
          "midi": 59,
          "name": "B3",
          "ticks": 36000,
          "time": 20.454525,
          "velocity": 0.7559055118110236
        },
        {
          "duration": 0.2585224687500016,
          "durationTicks": 455,
          "midi": 42,
          "name": "F#2",
          "ticks": 36480,
          "time": 20.727252,
          "velocity": 0.7559055118110236
        },
        {
          "duration": 0.2585224687500016,
          "durationTicks": 455,
          "midi": 54,
          "name": "F#3",
          "ticks": 36480,
          "time": 20.727252,
          "velocity": 0.7559055118110236
        },
        {
          "duration": 0.10852261874999769,
          "durationTicks": 191,
          "midi": 54,
          "name": "F#3",
          "ticks": 36960,
          "time": 20.999979,
          "velocity": 0.7559055118110236
        },
        {
          "duration": 0.10852261874999769,
          "durationTicks": 191,
          "midi": 57,
          "name": "A3",
          "ticks": 36960,
          "time": 20.999979,
          "velocity": 0.7559055118110236
        },
        {
          "duration": 0.10852261874999769,
          "durationTicks": 191,
          "midi": 61,
          "name": "C#4",
          "ticks": 36960,
          "time": 20.999979,
          "velocity": 0.7559055118110236
        },
        {
          "duration": 0.25852246874999807,
          "durationTicks": 455,
          "midi": 42,
          "name": "F#2",
          "ticks": 37200,
          "time": 21.1363425,
          "velocity": 0.7559055118110236
        },
        {
          "duration": 0.12897714374999936,
          "durationTicks": 227,
          "midi": 49,
          "name": "C#3",
          "ticks": 37680,
          "time": 21.4090695,
          "velocity": 0.7559055118110236
        },
        {
          "duration": 0.21761341875000184,
          "durationTicks": 383,
          "midi": 54,
          "name": "F#3",
          "ticks": 37920,
          "time": 21.545433,
          "velocity": 0.7559055118110236
        },
        {
          "duration": 0.21761341875000184,
          "durationTicks": 383,
          "midi": 57,
          "name": "A3",
          "ticks": 37920,
          "time": 21.545433,
          "velocity": 0.7559055118110236
        },
        {
          "duration": 0.21761341875000184,
          "durationTicks": 383,
          "midi": 61,
          "name": "C#4",
          "ticks": 37920,
          "time": 21.545433,
          "velocity": 0.7559055118110236
        },
        {
          "duration": 0.2585224687500016,
          "durationTicks": 455,
          "midi": 44,
          "name": "G#2",
          "ticks": 38400,
          "time": 21.81816,
          "velocity": 0.7559055118110236
        },
        {
          "duration": 0.2585224687500016,
          "durationTicks": 455,
          "midi": 56,
          "name": "G#3",
          "ticks": 38400,
          "time": 21.81816,
          "velocity": 0.7559055118110236
        },
        {
          "duration": 0.10852261874999769,
          "durationTicks": 191,
          "midi": 51,
          "name": "D#3",
          "ticks": 38880,
          "time": 22.090887,
          "velocity": 0.7559055118110236
        },
        {
          "duration": 0.10852261874999769,
          "durationTicks": 191,
          "midi": 56,
          "name": "G#3",
          "ticks": 38880,
          "time": 22.090887,
          "velocity": 0.7559055118110236
        },
        {
          "duration": 0.10852261874999769,
          "durationTicks": 191,
          "midi": 59,
          "name": "B3",
          "ticks": 38880,
          "time": 22.090887,
          "velocity": 0.7559055118110236
        },
        {
          "duration": 0.2585224687500016,
          "durationTicks": 455,
          "midi": 44,
          "name": "G#2",
          "ticks": 39120,
          "time": 22.2272505,
          "velocity": 0.7559055118110236
        },
        {
          "duration": 0.12897714374999936,
          "durationTicks": 227,
          "midi": 44,
          "name": "G#2",
          "ticks": 39600,
          "time": 22.4999775,
          "velocity": 0.7559055118110236
        },
        {
          "duration": 0.21761341875000184,
          "durationTicks": 383,
          "midi": 51,
          "name": "D#3",
          "ticks": 39840,
          "time": 22.636340999999998,
          "velocity": 0.7559055118110236
        },
        {
          "duration": 0.21761341875000184,
          "durationTicks": 383,
          "midi": 56,
          "name": "G#3",
          "ticks": 39840,
          "time": 22.636340999999998,
          "velocity": 0.7559055118110236
        },
        {
          "duration": 0.21761341875000184,
          "durationTicks": 383,
          "midi": 59,
          "name": "B3",
          "ticks": 39840,
          "time": 22.636340999999998,
          "velocity": 0.7559055118110236
        },
        {
          "duration": 0.25852246874999807,
          "durationTicks": 455,
          "midi": 45,
          "name": "A2",
          "ticks": 40320,
          "time": 22.909068,
          "velocity": 0.7559055118110236
        },
        {
          "duration": 0.25852246874999807,
          "durationTicks": 455,
          "midi": 57,
          "name": "A3",
          "ticks": 40320,
          "time": 22.909068,
          "velocity": 0.7559055118110236
        },
        {
          "duration": 0.10852261874999769,
          "durationTicks": 191,
          "midi": 52,
          "name": "E3",
          "ticks": 40800,
          "time": 23.181795,
          "velocity": 0.7559055118110236
        },
        {
          "duration": 0.10852261874999769,
          "durationTicks": 191,
          "midi": 57,
          "name": "A3",
          "ticks": 40800,
          "time": 23.181795,
          "velocity": 0.7559055118110236
        },
        {
          "duration": 0.10852261874999769,
          "durationTicks": 191,
          "midi": 61,
          "name": "C#4",
          "ticks": 40800,
          "time": 23.181795,
          "velocity": 0.7559055118110236
        },
        {
          "duration": 0.2585224687500016,
          "durationTicks": 455,
          "midi": 45,
          "name": "A2",
          "ticks": 41040,
          "time": 23.3181585,
          "velocity": 0.7559055118110236
        },
        {
          "duration": 0.12897714374999936,
          "durationTicks": 227,
          "midi": 45,
          "name": "A2",
          "ticks": 41520,
          "time": 23.5908855,
          "velocity": 0.7559055118110236
        },
        {
          "duration": 0.2176134187499983,
          "durationTicks": 383,
          "midi": 52,
          "name": "E3",
          "ticks": 41760,
          "time": 23.727249,
          "velocity": 0.7559055118110236
        },
        {
          "duration": 0.2176134187499983,
          "durationTicks": 383,
          "midi": 57,
          "name": "A3",
          "ticks": 41760,
          "time": 23.727249,
          "velocity": 0.7559055118110236
        },
        {
          "duration": 0.2176134187499983,
          "durationTicks": 383,
          "midi": 61,
          "name": "C#4",
          "ticks": 41760,
          "time": 23.727249,
          "velocity": 0.7559055118110236
        },
        {
          "duration": 0.2585224687500016,
          "durationTicks": 455,
          "midi": 36,
          "name": "C2",
          "ticks": 42240,
          "time": 23.999976,
          "velocity": 0.7559055118110236
        },
        {
          "duration": 0.2585224687500016,
          "durationTicks": 455,
          "midi": 48,
          "name": "C3",
          "ticks": 42240,
          "time": 23.999976,
          "velocity": 0.7559055118110236
        },
        {
          "duration": 0.10852261874999769,
          "durationTicks": 191,
          "midi": 54,
          "name": "F#3",
          "ticks": 42720,
          "time": 24.272703,
          "velocity": 0.7559055118110236
        },
        {
          "duration": 0.10852261874999769,
          "durationTicks": 191,
          "midi": 60,
          "name": "C4",
          "ticks": 42720,
          "time": 24.272703,
          "velocity": 0.7559055118110236
        },
        {
          "duration": 0.10852261874999769,
          "durationTicks": 191,
          "midi": 63,
          "name": "D#4",
          "ticks": 42720,
          "time": 24.272703,
          "velocity": 0.7559055118110236
        },
        {
          "duration": 0.2585224687500016,
          "durationTicks": 455,
          "midi": 48,
          "name": "C3",
          "ticks": 42960,
          "time": 24.409066499999998,
          "velocity": 0.7559055118110236
        },
        {
          "duration": 0.1289771437499958,
          "durationTicks": 227,
          "midi": 48,
          "name": "C3",
          "ticks": 43440,
          "time": 24.6817935,
          "velocity": 0.7559055118110236
        },
        {
          "duration": 0.21761341875000184,
          "durationTicks": 383,
          "midi": 54,
          "name": "F#3",
          "ticks": 43680,
          "time": 24.818157,
          "velocity": 0.7559055118110236
        },
        {
          "duration": 0.21761341875000184,
          "durationTicks": 383,
          "midi": 60,
          "name": "C4",
          "ticks": 43680,
          "time": 24.818157,
          "velocity": 0.7559055118110236
        },
        {
          "duration": 0.21761341875000184,
          "durationTicks": 383,
          "midi": 63,
          "name": "D#4",
          "ticks": 43680,
          "time": 24.818157,
          "velocity": 0.7559055118110236
        },
        {
          "duration": 0.2585224687500016,
          "durationTicks": 455,
          "midi": 37,
          "name": "C#2",
          "ticks": 44160,
          "time": 25.090884,
          "velocity": 0.7559055118110236
        },
        {
          "duration": 0.2585224687500016,
          "durationTicks": 455,
          "midi": 49,
          "name": "C#3",
          "ticks": 44160,
          "time": 25.090884,
          "velocity": 0.7559055118110236
        },
        {
          "duration": 0.10852261874999769,
          "durationTicks": 191,
          "midi": 52,
          "name": "E3",
          "ticks": 44640,
          "time": 25.363611,
          "velocity": 0.7559055118110236
        },
        {
          "duration": 0.10852261874999769,
          "durationTicks": 191,
          "midi": 56,
          "name": "G#3",
          "ticks": 44640,
          "time": 25.363611,
          "velocity": 0.7559055118110236
        },
        {
          "duration": 0.10852261874999769,
          "durationTicks": 191,
          "midi": 61,
          "name": "C#4",
          "ticks": 44640,
          "time": 25.363611,
          "velocity": 0.7559055118110236
        },
        {
          "duration": 0.2585224687500016,
          "durationTicks": 455,
          "midi": 37,
          "name": "C#2",
          "ticks": 44880,
          "time": 25.4999745,
          "velocity": 0.7559055118110236
        },
        {
          "duration": 0.12897714374999936,
          "durationTicks": 227,
          "midi": 49,
          "name": "C#3",
          "ticks": 45360,
          "time": 25.7727015,
          "velocity": 0.7559055118110236
        },
        {
          "duration": 0.21761341875000184,
          "durationTicks": 383,
          "midi": 52,
          "name": "E3",
          "ticks": 45600,
          "time": 25.909065,
          "velocity": 0.7559055118110236
        },
        {
          "duration": 0.21761341875000184,
          "durationTicks": 383,
          "midi": 56,
          "name": "G#3",
          "ticks": 45600,
          "time": 25.909065,
          "velocity": 0.7559055118110236
        },
        {
          "duration": 0.21761341875000184,
          "durationTicks": 383,
          "midi": 61,
          "name": "C#4",
          "ticks": 45600,
          "time": 25.909065,
          "velocity": 0.7559055118110236
        },
        {
          "duration": 0.25852246874999807,
          "durationTicks": 455,
          "midi": 42,
          "name": "F#2",
          "ticks": 46080,
          "time": 26.181792,
          "velocity": 0.7559055118110236
        },
        {
          "duration": 0.25852246874999807,
          "durationTicks": 455,
          "midi": 54,
          "name": "F#3",
          "ticks": 46080,
          "time": 26.181792,
          "velocity": 0.7559055118110236
        },
        {
          "duration": 0.10852261874999769,
          "durationTicks": 191,
          "midi": 54,
          "name": "F#3",
          "ticks": 46560,
          "time": 26.454519,
          "velocity": 0.7559055118110236
        },
        {
          "duration": 0.10852261874999769,
          "durationTicks": 191,
          "midi": 57,
          "name": "A3",
          "ticks": 46560,
          "time": 26.454519,
          "velocity": 0.7559055118110236
        },
        {
          "duration": 0.10852261874999769,
          "durationTicks": 191,
          "midi": 61,
          "name": "C#4",
          "ticks": 46560,
          "time": 26.454519,
          "velocity": 0.7559055118110236
        },
        {
          "duration": 0.2585224687500016,
          "durationTicks": 455,
          "midi": 42,
          "name": "F#2",
          "ticks": 46800,
          "time": 26.5908825,
          "velocity": 0.7559055118110236
        },
        {
          "duration": 0.12897714374999936,
          "durationTicks": 227,
          "midi": 49,
          "name": "C#3",
          "ticks": 47280,
          "time": 26.8636095,
          "velocity": 0.7559055118110236
        },
        {
          "duration": 0.2176134187499983,
          "durationTicks": 383,
          "midi": 54,
          "name": "F#3",
          "ticks": 47520,
          "time": 26.999973,
          "velocity": 0.7559055118110236
        },
        {
          "duration": 0.2176134187499983,
          "durationTicks": 383,
          "midi": 57,
          "name": "A3",
          "ticks": 47520,
          "time": 26.999973,
          "velocity": 0.7559055118110236
        },
        {
          "duration": 0.2176134187499983,
          "durationTicks": 383,
          "midi": 61,
          "name": "C#4",
          "ticks": 47520,
          "time": 26.999973,
          "velocity": 0.7559055118110236
        },
        {
          "duration": 0.2585224687500016,
          "durationTicks": 455,
          "midi": 48,
          "name": "C3",
          "ticks": 48000,
          "time": 27.2727,
          "velocity": 0.7559055118110236
        },
        {
          "duration": 0.2585224687500016,
          "durationTicks": 455,
          "midi": 52,
          "name": "E3",
          "ticks": 48000,
          "time": 27.2727,
          "velocity": 0.7559055118110236
        },
        {
          "duration": 0.2585224687500016,
          "durationTicks": 455,
          "midi": 53,
          "name": "F3",
          "ticks": 48000,
          "time": 27.2727,
          "velocity": 0.7559055118110236
        },
        {
          "duration": 0.2585224687500016,
          "durationTicks": 455,
          "midi": 57,
          "name": "A3",
          "ticks": 48000,
          "time": 27.2727,
          "velocity": 0.7559055118110236
        },
        {
          "duration": 0.12897714374999936,
          "durationTicks": 227,
          "midi": 41,
          "name": "F2",
          "ticks": 48720,
          "time": 27.681790499999998,
          "velocity": 0.7559055118110236
        },
        {
          "duration": 0.2176134187499983,
          "durationTicks": 383,
          "midi": 48,
          "name": "C3",
          "ticks": 48960,
          "time": 27.818154,
          "velocity": 0.7559055118110236
        },
        {
          "duration": 0.2176134187499983,
          "durationTicks": 383,
          "midi": 52,
          "name": "E3",
          "ticks": 48960,
          "time": 27.818154,
          "velocity": 0.7559055118110236
        },
        {
          "duration": 0.2176134187499983,
          "durationTicks": 383,
          "midi": 53,
          "name": "F3",
          "ticks": 48960,
          "time": 27.818154,
          "velocity": 0.7559055118110236
        },
        {
          "duration": 0.2176134187499983,
          "durationTicks": 383,
          "midi": 57,
          "name": "A3",
          "ticks": 48960,
          "time": 27.818154,
          "velocity": 0.7559055118110236
        },
        {
          "duration": 0.2585224687500016,
          "durationTicks": 455,
          "midi": 48,
          "name": "C3",
          "ticks": 49440,
          "time": 28.090881,
          "velocity": 0.7559055118110236
        },
        {
          "duration": 0.2585224687500016,
          "durationTicks": 455,
          "midi": 52,
          "name": "E3",
          "ticks": 49440,
          "time": 28.090881,
          "velocity": 0.7559055118110236
        },
        {
          "duration": 0.2585224687500016,
          "durationTicks": 455,
          "midi": 53,
          "name": "F3",
          "ticks": 49440,
          "time": 28.090881,
          "velocity": 0.7559055118110236
        },
        {
          "duration": 0.2585224687500016,
          "durationTicks": 455,
          "midi": 57,
          "name": "A3",
          "ticks": 49440,
          "time": 28.090881,
          "velocity": 0.7559055118110236
        },
        {
          "duration": 0.2585224687500016,
          "durationTicks": 455,
          "midi": 40,
          "name": "E2",
          "ticks": 49920,
          "time": 28.363608,
          "velocity": 0.7559055118110236
        },
        {
          "duration": 0.2585224687500016,
          "durationTicks": 455,
          "midi": 52,
          "name": "E3",
          "ticks": 49920,
          "time": 28.363608,
          "velocity": 0.7559055118110236
        },
        {
          "duration": 0.10852261874999769,
          "durationTicks": 191,
          "midi": 52,
          "name": "E3",
          "ticks": 50400,
          "time": 28.636335,
          "velocity": 0.7559055118110236
        },
        {
          "duration": 0.10852261874999769,
          "durationTicks": 191,
          "midi": 56,
          "name": "G#3",
          "ticks": 50400,
          "time": 28.636335,
          "velocity": 0.7559055118110236
        },
        {
          "duration": 0.10852261874999769,
          "durationTicks": 191,
          "midi": 59,
          "name": "B3",
          "ticks": 50400,
          "time": 28.636335,
          "velocity": 0.7559055118110236
        },
        {
          "duration": 0.2585224687500016,
          "durationTicks": 455,
          "midi": 40,
          "name": "E2",
          "ticks": 50640,
          "time": 28.7726985,
          "velocity": 0.7559055118110236
        },
        {
          "duration": 0.12897714374999936,
          "durationTicks": 227,
          "midi": 47,
          "name": "B2",
          "ticks": 51120,
          "time": 29.0454255,
          "velocity": 0.7559055118110236
        },
        {
          "duration": 0.21761341875000184,
          "durationTicks": 383,
          "midi": 52,
          "name": "E3",
          "ticks": 51360,
          "time": 29.181789,
          "velocity": 0.7559055118110236
        },
        {
          "duration": 0.21761341875000184,
          "durationTicks": 383,
          "midi": 56,
          "name": "G#3",
          "ticks": 51360,
          "time": 29.181789,
          "velocity": 0.7559055118110236
        },
        {
          "duration": 0.21761341875000184,
          "durationTicks": 383,
          "midi": 59,
          "name": "B3",
          "ticks": 51360,
          "time": 29.181789,
          "velocity": 0.7559055118110236
        },
        {
          "duration": 0.2585224687500016,
          "durationTicks": 455,
          "midi": 42,
          "name": "F#2",
          "ticks": 51840,
          "time": 29.454515999999998,
          "velocity": 0.7559055118110236
        },
        {
          "duration": 0.2585224687500016,
          "durationTicks": 455,
          "midi": 54,
          "name": "F#3",
          "ticks": 51840,
          "time": 29.454515999999998,
          "velocity": 0.7559055118110236
        },
        {
          "duration": 0.10852261874999769,
          "durationTicks": 191,
          "midi": 54,
          "name": "F#3",
          "ticks": 52320,
          "time": 29.727243,
          "velocity": 0.7559055118110236
        },
        {
          "duration": 0.10852261874999769,
          "durationTicks": 191,
          "midi": 57,
          "name": "A3",
          "ticks": 52320,
          "time": 29.727243,
          "velocity": 0.7559055118110236
        },
        {
          "duration": 0.10852261874999769,
          "durationTicks": 191,
          "midi": 61,
          "name": "C#4",
          "ticks": 52320,
          "time": 29.727243,
          "velocity": 0.7559055118110236
        },
        {
          "duration": 0.2585224687500016,
          "durationTicks": 455,
          "midi": 42,
          "name": "F#2",
          "ticks": 52560,
          "time": 29.8636065,
          "velocity": 0.7559055118110236
        },
        {
          "duration": 0.12897714374999936,
          "durationTicks": 227,
          "midi": 49,
          "name": "C#3",
          "ticks": 53040,
          "time": 30.1363335,
          "velocity": 0.7559055118110236
        },
        {
          "duration": 0.2176134187499983,
          "durationTicks": 383,
          "midi": 54,
          "name": "F#3",
          "ticks": 53280,
          "time": 30.272697,
          "velocity": 0.7559055118110236
        },
        {
          "duration": 0.2176134187499983,
          "durationTicks": 383,
          "midi": 57,
          "name": "A3",
          "ticks": 53280,
          "time": 30.272697,
          "velocity": 0.7559055118110236
        },
        {
          "duration": 0.2176134187499983,
          "durationTicks": 383,
          "midi": 61,
          "name": "C#4",
          "ticks": 53280,
          "time": 30.272697,
          "velocity": 0.7559055118110236
        },
        {
          "duration": 0.2585224687500016,
          "durationTicks": 455,
          "midi": 44,
          "name": "G#2",
          "ticks": 53760,
          "time": 30.545424,
          "velocity": 0.7559055118110236
        },
        {
          "duration": 0.2585224687500016,
          "durationTicks": 455,
          "midi": 56,
          "name": "G#3",
          "ticks": 53760,
          "time": 30.545424,
          "velocity": 0.7559055118110236
        },
        {
          "duration": 0.10852261874999769,
          "durationTicks": 191,
          "midi": 51,
          "name": "D#3",
          "ticks": 54240,
          "time": 30.818151,
          "velocity": 0.7559055118110236
        },
        {
          "duration": 0.10852261874999769,
          "durationTicks": 191,
          "midi": 56,
          "name": "G#3",
          "ticks": 54240,
          "time": 30.818151,
          "velocity": 0.7559055118110236
        },
        {
          "duration": 0.10852261874999769,
          "durationTicks": 191,
          "midi": 59,
          "name": "B3",
          "ticks": 54240,
          "time": 30.818151,
          "velocity": 0.7559055118110236
        },
        {
          "duration": 0.2585224687500016,
          "durationTicks": 455,
          "midi": 44,
          "name": "G#2",
          "ticks": 54480,
          "time": 30.9545145,
          "velocity": 0.7559055118110236
        },
        {
          "duration": 0.12897714374999936,
          "durationTicks": 227,
          "midi": 44,
          "name": "G#2",
          "ticks": 54960,
          "time": 31.227241499999998,
          "velocity": 0.7559055118110236
        },
        {
          "duration": 0.2176134187499983,
          "durationTicks": 383,
          "midi": 51,
          "name": "D#3",
          "ticks": 55200,
          "time": 31.363605,
          "velocity": 0.7559055118110236
        },
        {
          "duration": 0.2176134187499983,
          "durationTicks": 383,
          "midi": 56,
          "name": "G#3",
          "ticks": 55200,
          "time": 31.363605,
          "velocity": 0.7559055118110236
        },
        {
          "duration": 0.2176134187499983,
          "durationTicks": 383,
          "midi": 59,
          "name": "B3",
          "ticks": 55200,
          "time": 31.363605,
          "velocity": 0.7559055118110236
        },
        {
          "duration": 0.2585224687500016,
          "durationTicks": 455,
          "midi": 45,
          "name": "A2",
          "ticks": 55680,
          "time": 31.636332,
          "velocity": 0.7559055118110236
        },
        {
          "duration": 0.2585224687500016,
          "durationTicks": 455,
          "midi": 57,
          "name": "A3",
          "ticks": 55680,
          "time": 31.636332,
          "velocity": 0.7559055118110236
        },
        {
          "duration": 0.10852261875000124,
          "durationTicks": 191,
          "midi": 52,
          "name": "E3",
          "ticks": 56160,
          "time": 31.909059,
          "velocity": 0.7559055118110236
        },
        {
          "duration": 0.10852261875000124,
          "durationTicks": 191,
          "midi": 57,
          "name": "A3",
          "ticks": 56160,
          "time": 31.909059,
          "velocity": 0.7559055118110236
        },
        {
          "duration": 0.10852261875000124,
          "durationTicks": 191,
          "midi": 61,
          "name": "C#4",
          "ticks": 56160,
          "time": 31.909059,
          "velocity": 0.7559055118110236
        },
        {
          "duration": 0.2585224687500016,
          "durationTicks": 455,
          "midi": 45,
          "name": "A2",
          "ticks": 56400,
          "time": 32.0454225,
          "velocity": 0.7559055118110236
        },
        {
          "duration": 0.12897714374999936,
          "durationTicks": 227,
          "midi": 45,
          "name": "A2",
          "ticks": 56880,
          "time": 32.3181495,
          "velocity": 0.7559055118110236
        },
        {
          "duration": 0.2176134187499983,
          "durationTicks": 383,
          "midi": 52,
          "name": "E3",
          "ticks": 57120,
          "time": 32.454513,
          "velocity": 0.7559055118110236
        },
        {
          "duration": 0.2176134187499983,
          "durationTicks": 383,
          "midi": 57,
          "name": "A3",
          "ticks": 57120,
          "time": 32.454513,
          "velocity": 0.7559055118110236
        },
        {
          "duration": 0.2176134187499983,
          "durationTicks": 383,
          "midi": 61,
          "name": "C#4",
          "ticks": 57120,
          "time": 32.454513,
          "velocity": 0.7559055118110236
        },
        {
          "duration": 0.2585224687500016,
          "durationTicks": 455,
          "midi": 36,
          "name": "C2",
          "ticks": 57600,
          "time": 32.72724,
          "velocity": 0.7559055118110236
        },
        {
          "duration": 0.2585224687500016,
          "durationTicks": 455,
          "midi": 48,
          "name": "C3",
          "ticks": 57600,
          "time": 32.72724,
          "velocity": 0.7559055118110236
        },
        {
          "duration": 0.10852261875000124,
          "durationTicks": 191,
          "midi": 54,
          "name": "F#3",
          "ticks": 58080,
          "time": 32.999967,
          "velocity": 0.7559055118110236
        },
        {
          "duration": 0.10852261875000124,
          "durationTicks": 191,
          "midi": 60,
          "name": "C4",
          "ticks": 58080,
          "time": 32.999967,
          "velocity": 0.7559055118110236
        },
        {
          "duration": 0.10852261875000124,
          "durationTicks": 191,
          "midi": 63,
          "name": "D#4",
          "ticks": 58080,
          "time": 32.999967,
          "velocity": 0.7559055118110236
        },
        {
          "duration": 0.2585224687500016,
          "durationTicks": 455,
          "midi": 48,
          "name": "C3",
          "ticks": 58320,
          "time": 33.1363305,
          "velocity": 0.7559055118110236
        },
        {
          "duration": 0.12897714374999225,
          "durationTicks": 227,
          "midi": 48,
          "name": "C3",
          "ticks": 58800,
          "time": 33.4090575,
          "velocity": 0.7559055118110236
        },
        {
          "duration": 0.2176134187500054,
          "durationTicks": 383,
          "midi": 54,
          "name": "F#3",
          "ticks": 59040,
          "time": 33.545421,
          "velocity": 0.7559055118110236
        },
        {
          "duration": 0.2176134187500054,
          "durationTicks": 383,
          "midi": 60,
          "name": "C4",
          "ticks": 59040,
          "time": 33.545421,
          "velocity": 0.7559055118110236
        },
        {
          "duration": 0.2176134187500054,
          "durationTicks": 383,
          "midi": 63,
          "name": "D#4",
          "ticks": 59040,
          "time": 33.545421,
          "velocity": 0.7559055118110236
        },
        {
          "duration": 0.2585224687500016,
          "durationTicks": 455,
          "midi": 37,
          "name": "C#2",
          "ticks": 59520,
          "time": 33.818148,
          "velocity": 0.7559055118110236
        },
        {
          "duration": 0.2585224687500016,
          "durationTicks": 455,
          "midi": 49,
          "name": "C#3",
          "ticks": 59520,
          "time": 33.818148,
          "velocity": 0.7559055118110236
        },
        {
          "duration": 0.10852261875000124,
          "durationTicks": 191,
          "midi": 52,
          "name": "E3",
          "ticks": 60000,
          "time": 34.090875,
          "velocity": 0.7559055118110236
        },
        {
          "duration": 0.10852261875000124,
          "durationTicks": 191,
          "midi": 56,
          "name": "G#3",
          "ticks": 60000,
          "time": 34.090875,
          "velocity": 0.7559055118110236
        },
        {
          "duration": 0.10852261875000124,
          "durationTicks": 191,
          "midi": 61,
          "name": "C#4",
          "ticks": 60000,
          "time": 34.090875,
          "velocity": 0.7559055118110236
        },
        {
          "duration": 0.2585224687500016,
          "durationTicks": 455,
          "midi": 37,
          "name": "C#2",
          "ticks": 60240,
          "time": 34.2272385,
          "velocity": 0.7559055118110236
        },
        {
          "duration": 0.12897714374999936,
          "durationTicks": 227,
          "midi": 49,
          "name": "C#3",
          "ticks": 60720,
          "time": 34.4999655,
          "velocity": 0.7559055118110236
        },
        {
          "duration": 0.2176134187500054,
          "durationTicks": 383,
          "midi": 52,
          "name": "E3",
          "ticks": 60960,
          "time": 34.636328999999996,
          "velocity": 0.7559055118110236
        },
        {
          "duration": 0.2176134187500054,
          "durationTicks": 383,
          "midi": 56,
          "name": "G#3",
          "ticks": 60960,
          "time": 34.636328999999996,
          "velocity": 0.7559055118110236
        },
        {
          "duration": 0.2176134187500054,
          "durationTicks": 383,
          "midi": 61,
          "name": "C#4",
          "ticks": 60960,
          "time": 34.636328999999996,
          "velocity": 0.7559055118110236
        },
        {
          "duration": 0.2585224687499945,
          "durationTicks": 455,
          "midi": 42,
          "name": "F#2",
          "ticks": 61440,
          "time": 34.909056,
          "velocity": 0.7559055118110236
        },
        {
          "duration": 0.2585224687499945,
          "durationTicks": 455,
          "midi": 54,
          "name": "F#3",
          "ticks": 61440,
          "time": 34.909056,
          "velocity": 0.7559055118110236
        },
        {
          "duration": 0.10852261875000124,
          "durationTicks": 191,
          "midi": 54,
          "name": "F#3",
          "ticks": 61920,
          "time": 35.181783,
          "velocity": 0.7559055118110236
        },
        {
          "duration": 0.10852261875000124,
          "durationTicks": 191,
          "midi": 57,
          "name": "A3",
          "ticks": 61920,
          "time": 35.181783,
          "velocity": 0.7559055118110236
        },
        {
          "duration": 0.10852261875000124,
          "durationTicks": 191,
          "midi": 61,
          "name": "C#4",
          "ticks": 61920,
          "time": 35.181783,
          "velocity": 0.7559055118110236
        },
        {
          "duration": 0.2585224687500016,
          "durationTicks": 455,
          "midi": 42,
          "name": "F#2",
          "ticks": 62160,
          "time": 35.3181465,
          "velocity": 0.7559055118110236
        },
        {
          "duration": 0.12897714374999936,
          "durationTicks": 227,
          "midi": 49,
          "name": "C#3",
          "ticks": 62640,
          "time": 35.5908735,
          "velocity": 0.7559055118110236
        },
        {
          "duration": 0.2176134187499983,
          "durationTicks": 383,
          "midi": 54,
          "name": "F#3",
          "ticks": 62880,
          "time": 35.727237,
          "velocity": 0.7559055118110236
        },
        {
          "duration": 0.2176134187499983,
          "durationTicks": 383,
          "midi": 57,
          "name": "A3",
          "ticks": 62880,
          "time": 35.727237,
          "velocity": 0.7559055118110236
        },
        {
          "duration": 0.2176134187499983,
          "durationTicks": 383,
          "midi": 61,
          "name": "C#4",
          "ticks": 62880,
          "time": 35.727237,
          "velocity": 0.7559055118110236
        },
        {
          "duration": 0.2176134187500054,
          "durationTicks": 383,
          "midi": 52,
          "name": "E3",
          "ticks": 63360,
          "time": 35.999964,
          "velocity": 0.7559055118110236
        },
        {
          "duration": 0.2176134187500054,
          "durationTicks": 383,
          "midi": 54,
          "name": "F#3",
          "ticks": 63360,
          "time": 35.999964,
          "velocity": 0.7559055118110236
        },
        {
          "duration": 0.2176134187500054,
          "durationTicks": 383,
          "midi": 59,
          "name": "B3",
          "ticks": 63360,
          "time": 35.999964,
          "velocity": 0.7559055118110236
        },
        {
          "duration": 0.2176134187499983,
          "durationTicks": 383,
          "midi": 35,
          "name": "B1",
          "ticks": 63840,
          "time": 36.272691,
          "velocity": 0.7559055118110236
        },
        {
          "duration": 0.2176134187499983,
          "durationTicks": 383,
          "midi": 47,
          "name": "B2",
          "ticks": 63840,
          "time": 36.272691,
          "velocity": 0.7559055118110236
        },
        {
          "duration": 0.2176134187500054,
          "durationTicks": 383,
          "midi": 35,
          "name": "B1",
          "ticks": 64320,
          "time": 36.545418,
          "velocity": 0.7559055118110236
        },
        {
          "duration": 0.2176134187500054,
          "durationTicks": 383,
          "midi": 47,
          "name": "B2",
          "ticks": 64320,
          "time": 36.545418,
          "velocity": 0.7559055118110236
        },
        {
          "duration": 0.2176134187500054,
          "durationTicks": 383,
          "midi": 35,
          "name": "B1",
          "ticks": 64800,
          "time": 36.818145,
          "velocity": 0.6929133858267716
        },
        {
          "duration": 0.2176134187500054,
          "durationTicks": 383,
          "midi": 47,
          "name": "B2",
          "ticks": 64800,
          "time": 36.818145,
          "velocity": 0.6929133858267716
        },
        {
          "duration": 0.2585224687500016,
          "durationTicks": 455,
          "midi": 51,
          "name": "D#3",
          "ticks": 65280,
          "time": 37.090872,
          "velocity": 0.6299212598425197
        },
        {
          "duration": 0.32670421874999533,
          "durationTicks": 575,
          "midi": 54,
          "name": "F#3",
          "ticks": 65760,
          "time": 37.363599,
          "velocity": 0.6299212598425197
        },
        {
          "duration": 0.32670421874999533,
          "durationTicks": 575,
          "midi": 58,
          "name": "A#3",
          "ticks": 65760,
          "time": 37.363599,
          "velocity": 0.6299212598425197
        },
        {
          "duration": 0.32670421874999533,
          "durationTicks": 575,
          "midi": 61,
          "name": "C#4",
          "ticks": 65760,
          "time": 37.363599,
          "velocity": 0.6299212598425197
        },
        {
          "duration": 0.12897714374999936,
          "durationTicks": 227,
          "midi": 51,
          "name": "D#3",
          "ticks": 66480,
          "time": 37.7726895,
          "velocity": 0.6299212598425197
        },
        {
          "duration": 0.2176134187500054,
          "durationTicks": 383,
          "midi": 54,
          "name": "F#3",
          "ticks": 66720,
          "time": 37.909053,
          "velocity": 0.6299212598425197
        },
        {
          "duration": 0.2176134187500054,
          "durationTicks": 383,
          "midi": 58,
          "name": "A#3",
          "ticks": 66720,
          "time": 37.909053,
          "velocity": 0.6299212598425197
        },
        {
          "duration": 0.2176134187500054,
          "durationTicks": 383,
          "midi": 61,
          "name": "C#4",
          "ticks": 66720,
          "time": 37.909053,
          "velocity": 0.6299212598425197
        },
        {
          "duration": 0.2585224687500016,
          "durationTicks": 455,
          "midi": 44,
          "name": "G#2",
          "ticks": 67200,
          "time": 38.181779999999996,
          "velocity": 0.6299212598425197
        },
        {
          "duration": 0.32670421874999533,
          "durationTicks": 575,
          "midi": 51,
          "name": "D#3",
          "ticks": 67680,
          "time": 38.454507,
          "velocity": 0.6299212598425197
        },
        {
          "duration": 0.32670421874999533,
          "durationTicks": 575,
          "midi": 56,
          "name": "G#3",
          "ticks": 67680,
          "time": 38.454507,
          "velocity": 0.6299212598425197
        },
        {
          "duration": 0.32670421874999533,
          "durationTicks": 575,
          "midi": 60,
          "name": "C4",
          "ticks": 67680,
          "time": 38.454507,
          "velocity": 0.6299212598425197
        },
        {
          "duration": 0.12897714374999936,
          "durationTicks": 227,
          "midi": 44,
          "name": "G#2",
          "ticks": 68400,
          "time": 38.8635975,
          "velocity": 0.6299212598425197
        },
        {
          "duration": 0.2176134187500054,
          "durationTicks": 383,
          "midi": 51,
          "name": "D#3",
          "ticks": 68640,
          "time": 38.999961,
          "velocity": 0.6299212598425197
        },
        {
          "duration": 0.2176134187500054,
          "durationTicks": 383,
          "midi": 56,
          "name": "G#3",
          "ticks": 68640,
          "time": 38.999961,
          "velocity": 0.6299212598425197
        },
        {
          "duration": 0.2176134187500054,
          "durationTicks": 383,
          "midi": 60,
          "name": "C4",
          "ticks": 68640,
          "time": 38.999961,
          "velocity": 0.6299212598425197
        },
        {
          "duration": 0.2585224687499945,
          "durationTicks": 455,
          "midi": 49,
          "name": "C#3",
          "ticks": 69120,
          "time": 39.272688,
          "velocity": 0.6299212598425197
        },
        {
          "duration": 0.3880677937500039,
          "durationTicks": 683,
          "midi": 53,
          "name": "F3",
          "ticks": 69600,
          "time": 39.545415,
          "velocity": 0.6299212598425197
        },
        {
          "duration": 0.32670421874999533,
          "durationTicks": 575,
          "midi": 56,
          "name": "G#3",
          "ticks": 69600,
          "time": 39.545415,
          "velocity": 0.6299212598425197
        },
        {
          "duration": 0.32670421874999533,
          "durationTicks": 575,
          "midi": 61,
          "name": "C#4",
          "ticks": 69600,
          "time": 39.545415,
          "velocity": 0.6299212598425197
        },
        {
          "duration": 0.12897714374999936,
          "durationTicks": 227,
          "midi": 44,
          "name": "G#2",
          "ticks": 70320,
          "time": 39.954505499999996,
          "velocity": 0.6299212598425197
        },
        {
          "duration": 0.2585224687500016,
          "durationTicks": 455,
          "midi": 53,
          "name": "F3",
          "ticks": 70560,
          "time": 40.090869,
          "velocity": 0.6299212598425197
        },
        {
          "duration": 0.2176134187500054,
          "durationTicks": 383,
          "midi": 56,
          "name": "G#3",
          "ticks": 70560,
          "time": 40.090869,
          "velocity": 0.6299212598425197
        },
        {
          "duration": 0.2176134187500054,
          "durationTicks": 383,
          "midi": 61,
          "name": "C#4",
          "ticks": 70560,
          "time": 40.090869,
          "velocity": 0.6299212598425197
        },
        {
          "duration": 0.2585224687499945,
          "durationTicks": 455,
          "midi": 49,
          "name": "C#3",
          "ticks": 71040,
          "time": 40.363596,
          "velocity": 0.6299212598425197
        },
        {
          "duration": 0.3880677937500039,
          "durationTicks": 683,
          "midi": 53,
          "name": "F3",
          "ticks": 71520,
          "time": 40.636323,
          "velocity": 0.6299212598425197
        },
        {
          "duration": 0.32670421875000244,
          "durationTicks": 575,
          "midi": 56,
          "name": "G#3",
          "ticks": 71520,
          "time": 40.636323,
          "velocity": 0.6299212598425197
        },
        {
          "duration": 0.32670421875000244,
          "durationTicks": 575,
          "midi": 61,
          "name": "C#4",
          "ticks": 71520,
          "time": 40.636323,
          "velocity": 0.6299212598425197
        },
        {
          "duration": 0.12897714374999936,
          "durationTicks": 227,
          "midi": 44,
          "name": "G#2",
          "ticks": 72240,
          "time": 41.0454135,
          "velocity": 0.6299212598425197
        },
        {
          "duration": 0.2585224687500016,
          "durationTicks": 455,
          "midi": 53,
          "name": "F3",
          "ticks": 72480,
          "time": 41.181777,
          "velocity": 0.6299212598425197
        },
        {
          "duration": 0.2176134187500054,
          "durationTicks": 383,
          "midi": 56,
          "name": "G#3",
          "ticks": 72480,
          "time": 41.181777,
          "velocity": 0.6299212598425197
        },
        {
          "duration": 0.2176134187500054,
          "durationTicks": 383,
          "midi": 61,
          "name": "C#4",
          "ticks": 72480,
          "time": 41.181777,
          "velocity": 0.6299212598425197
        },
        {
          "duration": 0.2585224687499945,
          "durationTicks": 455,
          "midi": 54,
          "name": "F#3",
          "ticks": 72960,
          "time": 41.454504,
          "velocity": 0.5669291338582677
        },
        {
          "duration": 0.2585224687500016,
          "durationTicks": 455,
          "midi": 61,
          "name": "C#4",
          "ticks": 73440,
          "time": 41.727230999999996,
          "velocity": 0.5669291338582677
        },
        {
          "duration": 0.2585224687499945,
          "durationTicks": 455,
          "midi": 66,
          "name": "F#4",
          "ticks": 73920,
          "time": 41.999958,
          "velocity": 0.5669291338582677
        },
        {
          "duration": 0.2585224687499945,
          "durationTicks": 455,
          "midi": 56,
          "name": "G#3",
          "ticks": 74400,
          "time": 42.272685,
          "velocity": 0.5669291338582677
        },
        {
          "duration": 0.2585224687500016,
          "durationTicks": 455,
          "midi": 57,
          "name": "A3",
          "ticks": 74880,
          "time": 42.545412,
          "velocity": 0.5669291338582677
        },
        {
          "duration": 0.2585224687499945,
          "durationTicks": 455,
          "midi": 64,
          "name": "E4",
          "ticks": 75360,
          "time": 42.818139,
          "velocity": 0.5669291338582677
        },
        {
          "duration": 0.2585224687500016,
          "durationTicks": 455,
          "midi": 69,
          "name": "A4",
          "ticks": 75840,
          "time": 43.090866,
          "velocity": 0.5669291338582677
        },
        {
          "duration": 0.2585224687499945,
          "durationTicks": 455,
          "midi": 57,
          "name": "A3",
          "ticks": 76320,
          "time": 43.363593,
          "velocity": 0.5669291338582677
        },
        {
          "duration": 0.2585224687500016,
          "durationTicks": 455,
          "midi": 59,
          "name": "B3",
          "ticks": 76800,
          "time": 43.63632,
          "velocity": 0.5669291338582677
        },
        {
          "duration": 0.2585224687499945,
          "durationTicks": 455,
          "midi": 66,
          "name": "F#4",
          "ticks": 77280,
          "time": 43.909047,
          "velocity": 0.5669291338582677
        },
        {
          "duration": 0.2585224687500016,
          "durationTicks": 455,
          "midi": 71,
          "name": "B4",
          "ticks": 77760,
          "time": 44.181774,
          "velocity": 0.5669291338582677
        },
        {
          "duration": 0.2585224687499945,
          "durationTicks": 455,
          "midi": 59,
          "name": "B3",
          "ticks": 78240,
          "time": 44.454501,
          "velocity": 0.5669291338582677
        },
        {
          "duration": 1.035794418750008,
          "durationTicks": 1823,
          "midi": 56,
          "name": "G#3",
          "ticks": 78720,
          "time": 44.727228,
          "velocity": 0.5669291338582677
        },
        {
          "duration": 1.035794418750008,
          "durationTicks": 1823,
          "midi": 59,
          "name": "B3",
          "ticks": 78720,
          "time": 44.727228,
          "velocity": 0.5669291338582677
        },
        {
          "duration": 1.035794418750008,
          "durationTicks": 1823,
          "midi": 64,
          "name": "E4",
          "ticks": 78720,
          "time": 44.727228,
          "velocity": 0.5669291338582677
        },
        {
          "duration": 0.517613118749999,
          "durationTicks": 911,
          "midi": 40,
          "name": "E2",
          "ticks": 80640,
          "time": 45.818136,
          "velocity": 0.7559055118110236
        },
        {
          "duration": 0.517613118749999,
          "durationTicks": 911,
          "midi": 52,
          "name": "E3",
          "ticks": 80640,
          "time": 45.818136,
          "velocity": 0.7559055118110236
        },
        {
          "duration": 0.517613118749999,
          "durationTicks": 911,
          "midi": 52,
          "name": "E3",
          "ticks": 81600,
          "time": 46.36359,
          "velocity": 0.7559055118110236
        },
        {
          "duration": 0.517613118749999,
          "durationTicks": 911,
          "midi": 56,
          "name": "G#3",
          "ticks": 81600,
          "time": 46.36359,
          "velocity": 0.7559055118110236
        },
        {
          "duration": 0.517613118749999,
          "durationTicks": 911,
          "midi": 59,
          "name": "B3",
          "ticks": 81600,
          "time": 46.36359,
          "velocity": 0.7559055118110236
        },
        {
          "duration": 0.13579531874999873,
          "durationTicks": 239,
          "midi": 39,
          "name": "D#2",
          "ticks": 82560,
          "time": 46.909044,
          "velocity": 0.7559055118110236
        },
        {
          "duration": 0.13579531874999873,
          "durationTicks": 239,
          "midi": 51,
          "name": "D#3",
          "ticks": 82560,
          "time": 46.909044,
          "velocity": 0.7559055118110236
        },
        {
          "duration": 0.2176134187500054,
          "durationTicks": 383,
          "midi": 51,
          "name": "D#3",
          "ticks": 83040,
          "time": 47.181771,
          "velocity": 0.7559055118110236
        },
        {
          "duration": 0.2176134187500054,
          "durationTicks": 383,
          "midi": 54,
          "name": "F#3",
          "ticks": 83040,
          "time": 47.181771,
          "velocity": 0.7559055118110236
        },
        {
          "duration": 0.2176134187500054,
          "durationTicks": 383,
          "midi": 61,
          "name": "C#4",
          "ticks": 83040,
          "time": 47.181771,
          "velocity": 0.7559055118110236
        },
        {
          "duration": 0.2585224687499945,
          "durationTicks": 455,
          "midi": 44,
          "name": "G#2",
          "ticks": 83520,
          "time": 47.454498,
          "velocity": 0.7559055118110236
        },
        {
          "duration": 0.2585224687499945,
          "durationTicks": 455,
          "midi": 56,
          "name": "G#3",
          "ticks": 83520,
          "time": 47.454498,
          "velocity": 0.7559055118110236
        },
        {
          "duration": 0.2176134187500054,
          "durationTicks": 383,
          "midi": 51,
          "name": "D#3",
          "ticks": 84000,
          "time": 47.727225,
          "velocity": 0.7559055118110236
        },
        {
          "duration": 0.2176134187500054,
          "durationTicks": 383,
          "midi": 54,
          "name": "F#3",
          "ticks": 84000,
          "time": 47.727225,
          "velocity": 0.7559055118110236
        },
        {
          "duration": 0.2176134187500054,
          "durationTicks": 383,
          "midi": 56,
          "name": "G#3",
          "ticks": 84000,
          "time": 47.727225,
          "velocity": 0.7559055118110236
        },
        {
          "duration": 0.2176134187500054,
          "durationTicks": 383,
          "midi": 60,
          "name": "C4",
          "ticks": 84000,
          "time": 47.727225,
          "velocity": 0.7559055118110236
        },
        {
          "duration": 0.2585224687499945,
          "durationTicks": 455,
          "midi": 37,
          "name": "C#2",
          "ticks": 84480,
          "time": 47.999952,
          "velocity": 0.7559055118110236
        },
        {
          "duration": 0.2585224687499945,
          "durationTicks": 455,
          "midi": 49,
          "name": "C#3",
          "ticks": 84480,
          "time": 47.999952,
          "velocity": 0.7559055118110236
        },
        {
          "duration": 0.10852261875000835,
          "durationTicks": 191,
          "midi": 52,
          "name": "E3",
          "ticks": 84960,
          "time": 48.272679,
          "velocity": 0.7559055118110236
        },
        {
          "duration": 0.10852261875000835,
          "durationTicks": 191,
          "midi": 56,
          "name": "G#3",
          "ticks": 84960,
          "time": 48.272679,
          "velocity": 0.7559055118110236
        },
        {
          "duration": 0.10852261875000835,
          "durationTicks": 191,
          "midi": 61,
          "name": "C#4",
          "ticks": 84960,
          "time": 48.272679,
          "velocity": 0.7559055118110236
        },
        {
          "duration": 0.2585224687500016,
          "durationTicks": 455,
          "midi": 49,
          "name": "C#3",
          "ticks": 85200,
          "time": 48.4090425,
          "velocity": 0.7559055118110236
        },
        {
          "duration": 0.12897714374999936,
          "durationTicks": 227,
          "midi": 49,
          "name": "C#3",
          "ticks": 85680,
          "time": 48.6817695,
          "velocity": 0.7559055118110236
        },
        {
          "duration": 0.2176134187500054,
          "durationTicks": 383,
          "midi": 52,
          "name": "E3",
          "ticks": 85920,
          "time": 48.818132999999996,
          "velocity": 0.7559055118110236
        },
        {
          "duration": 0.2176134187500054,
          "durationTicks": 383,
          "midi": 56,
          "name": "G#3",
          "ticks": 85920,
          "time": 48.818132999999996,
          "velocity": 0.7559055118110236
        },
        {
          "duration": 0.2176134187500054,
          "durationTicks": 383,
          "midi": 61,
          "name": "C#4",
          "ticks": 85920,
          "time": 48.818132999999996,
          "velocity": 0.7559055118110236
        },
        {
          "duration": 0.2585224687499945,
          "durationTicks": 455,
          "midi": 36,
          "name": "C2",
          "ticks": 86400,
          "time": 49.09086,
          "velocity": 0.7559055118110236
        },
        {
          "duration": 0.2585224687499945,
          "durationTicks": 455,
          "midi": 48,
          "name": "C3",
          "ticks": 86400,
          "time": 49.09086,
          "velocity": 0.7559055118110236
        },
        {
          "duration": 0.2176134187499983,
          "durationTicks": 383,
          "midi": 52,
          "name": "E3",
          "ticks": 86880,
          "time": 49.363587,
          "velocity": 0.7559055118110236
        },
        {
          "duration": 0.2176134187499983,
          "durationTicks": 383,
          "midi": 57,
          "name": "A3",
          "ticks": 86880,
          "time": 49.363587,
          "velocity": 0.7559055118110236
        },
        {
          "duration": 0.2176134187499983,
          "durationTicks": 383,
          "midi": 60,
          "name": "C4",
          "ticks": 86880,
          "time": 49.363587,
          "velocity": 0.7559055118110236
        },
        {
          "duration": 0.2585224687500016,
          "durationTicks": 455,
          "midi": 35,
          "name": "B1",
          "ticks": 87360,
          "time": 49.636314,
          "velocity": 0.7559055118110236
        },
        {
          "duration": 0.2585224687500016,
          "durationTicks": 455,
          "midi": 47,
          "name": "B2",
          "ticks": 87360,
          "time": 49.636314,
          "velocity": 0.7559055118110236
        },
        {
          "duration": 0.2585224687499945,
          "durationTicks": 455,
          "midi": 33,
          "name": "A1",
          "ticks": 87840,
          "time": 49.909041,
          "velocity": 0.7559055118110236
        },
        {
          "duration": 0.2585224687499945,
          "durationTicks": 455,
          "midi": 45,
          "name": "A2",
          "ticks": 87840,
          "time": 49.909041,
          "velocity": 0.7559055118110236
        },
        {
          "duration": 0.2585224687500016,
          "durationTicks": 455,
          "midi": 32,
          "name": "G#1",
          "ticks": 88320,
          "time": 50.181768,
          "velocity": 0.7559055118110236
        },
        {
          "duration": 0.2585224687500016,
          "durationTicks": 455,
          "midi": 44,
          "name": "G#2",
          "ticks": 88320,
          "time": 50.181768,
          "velocity": 0.7559055118110236
        },
        {
          "duration": 0.10852261875000124,
          "durationTicks": 191,
          "midi": 51,
          "name": "D#3",
          "ticks": 88800,
          "time": 50.454495,
          "velocity": 0.7559055118110236
        },
        {
          "duration": 0.10852261875000124,
          "durationTicks": 191,
          "midi": 56,
          "name": "G#3",
          "ticks": 88800,
          "time": 50.454495,
          "velocity": 0.7559055118110236
        },
        {
          "duration": 0.10852261875000124,
          "durationTicks": 191,
          "midi": 59,
          "name": "B3",
          "ticks": 88800,
          "time": 50.454495,
          "velocity": 0.7559055118110236
        },
        {
          "duration": 0.2585224687500016,
          "durationTicks": 455,
          "midi": 44,
          "name": "G#2",
          "ticks": 89040,
          "time": 50.590858499999996,
          "velocity": 0.7559055118110236
        },
        {
          "duration": 0.12897714374999936,
          "durationTicks": 227,
          "midi": 44,
          "name": "G#2",
          "ticks": 89520,
          "time": 50.8635855,
          "velocity": 0.7559055118110236
        },
        {
          "duration": 0.2176134187500054,
          "durationTicks": 383,
          "midi": 51,
          "name": "D#3",
          "ticks": 89760,
          "time": 50.999949,
          "velocity": 0.7559055118110236
        },
        {
          "duration": 0.2176134187500054,
          "durationTicks": 383,
          "midi": 56,
          "name": "G#3",
          "ticks": 89760,
          "time": 50.999949,
          "velocity": 0.7559055118110236
        },
        {
          "duration": 0.2176134187500054,
          "durationTicks": 383,
          "midi": 59,
          "name": "B3",
          "ticks": 89760,
          "time": 50.999949,
          "velocity": 0.7559055118110236
        },
        {
          "duration": 0.2585224687500016,
          "durationTicks": 455,
          "midi": 37,
          "name": "C#2",
          "ticks": 90240,
          "time": 51.272676,
          "velocity": 0.7559055118110236
        },
        {
          "duration": 0.2585224687500016,
          "durationTicks": 455,
          "midi": 49,
          "name": "C#3",
          "ticks": 90240,
          "time": 51.272676,
          "velocity": 0.7559055118110236
        },
        {
          "duration": 0.10852261875000124,
          "durationTicks": 191,
          "midi": 52,
          "name": "E3",
          "ticks": 90720,
          "time": 51.545403,
          "velocity": 0.7559055118110236
        },
        {
          "duration": 0.10852261875000124,
          "durationTicks": 191,
          "midi": 56,
          "name": "G#3",
          "ticks": 90720,
          "time": 51.545403,
          "velocity": 0.7559055118110236
        },
        {
          "duration": 0.10852261875000124,
          "durationTicks": 191,
          "midi": 61,
          "name": "C#4",
          "ticks": 90720,
          "time": 51.545403,
          "velocity": 0.7559055118110236
        },
        {
          "duration": 0.2585224687499945,
          "durationTicks": 455,
          "midi": 49,
          "name": "C#3",
          "ticks": 90960,
          "time": 51.6817665,
          "velocity": 0.7559055118110236
        },
        {
          "duration": 0.12897714374999936,
          "durationTicks": 227,
          "midi": 49,
          "name": "C#3",
          "ticks": 91440,
          "time": 51.9544935,
          "velocity": 0.7559055118110236
        },
        {
          "duration": 0.2176134187500054,
          "durationTicks": 383,
          "midi": 52,
          "name": "E3",
          "ticks": 91680,
          "time": 52.090857,
          "velocity": 0.7559055118110236
        },
        {
          "duration": 0.2176134187500054,
          "durationTicks": 383,
          "midi": 56,
          "name": "G#3",
          "ticks": 91680,
          "time": 52.090857,
          "velocity": 0.7559055118110236
        },
        {
          "duration": 0.2176134187500054,
          "durationTicks": 383,
          "midi": 61,
          "name": "C#4",
          "ticks": 91680,
          "time": 52.090857,
          "velocity": 0.7559055118110236
        },
        {
          "duration": 0.2585224687499945,
          "durationTicks": 455,
          "midi": 42,
          "name": "F#2",
          "ticks": 92160,
          "time": 52.363584,
          "velocity": 0.7559055118110236
        },
        {
          "duration": 0.2585224687499945,
          "durationTicks": 455,
          "midi": 54,
          "name": "F#3",
          "ticks": 92160,
          "time": 52.363584,
          "velocity": 0.7559055118110236
        },
        {
          "duration": 0.10852261875000124,
          "durationTicks": 191,
          "midi": 54,
          "name": "F#3",
          "ticks": 92640,
          "time": 52.636311,
          "velocity": 0.7559055118110236
        },
        {
          "duration": 0.10852261875000124,
          "durationTicks": 191,
          "midi": 57,
          "name": "A3",
          "ticks": 92640,
          "time": 52.636311,
          "velocity": 0.7559055118110236
        },
        {
          "duration": 0.10852261875000124,
          "durationTicks": 191,
          "midi": 61,
          "name": "C#4",
          "ticks": 92640,
          "time": 52.636311,
          "velocity": 0.7559055118110236
        },
        {
          "duration": 0.2585224687499945,
          "durationTicks": 455,
          "midi": 42,
          "name": "F#2",
          "ticks": 92880,
          "time": 52.7726745,
          "velocity": 0.7559055118110236
        },
        {
          "duration": 0.12897714374999936,
          "durationTicks": 227,
          "midi": 42,
          "name": "F#2",
          "ticks": 93360,
          "time": 53.0454015,
          "velocity": 0.7559055118110236
        },
        {
          "duration": 0.2176134187500054,
          "durationTicks": 383,
          "midi": 54,
          "name": "F#3",
          "ticks": 93600,
          "time": 53.181765,
          "velocity": 0.7559055118110236
        },
        {
          "duration": 0.2176134187500054,
          "durationTicks": 383,
          "midi": 57,
          "name": "A3",
          "ticks": 93600,
          "time": 53.181765,
          "velocity": 0.7559055118110236
        },
        {
          "duration": 0.2176134187500054,
          "durationTicks": 383,
          "midi": 61,
          "name": "C#4",
          "ticks": 93600,
          "time": 53.181765,
          "velocity": 0.7559055118110236
        },
        {
          "duration": 0.2176134187499983,
          "durationTicks": 383,
          "midi": 54,
          "name": "F#3",
          "ticks": 94080,
          "time": 53.454492,
          "velocity": 0.7559055118110236
        },
        {
          "duration": 0.2176134187499983,
          "durationTicks": 383,
          "midi": 59,
          "name": "B3",
          "ticks": 94080,
          "time": 53.454492,
          "velocity": 0.7559055118110236
        },
        {
          "duration": 0.2176134187499983,
          "durationTicks": 383,
          "midi": 63,
          "name": "D#4",
          "ticks": 94080,
          "time": 53.454492,
          "velocity": 0.7559055118110236
        },
        {
          "duration": 0.2176134187500054,
          "durationTicks": 383,
          "midi": 35,
          "name": "B1",
          "ticks": 94560,
          "time": 53.727219,
          "velocity": 0.7559055118110236
        },
        {
          "duration": 0.2176134187500054,
          "durationTicks": 383,
          "midi": 47,
          "name": "B2",
          "ticks": 94560,
          "time": 53.727219,
          "velocity": 0.7559055118110236
        },
        {
          "duration": 0.2176134187499983,
          "durationTicks": 383,
          "midi": 35,
          "name": "B1",
          "ticks": 95040,
          "time": 53.999946,
          "velocity": 0.7559055118110236
        },
        {
          "duration": 0.2176134187499983,
          "durationTicks": 383,
          "midi": 47,
          "name": "B2",
          "ticks": 95040,
          "time": 53.999946,
          "velocity": 0.7559055118110236
        },
        {
          "duration": 0.2176134187500054,
          "durationTicks": 383,
          "midi": 35,
          "name": "B1",
          "ticks": 95520,
          "time": 54.272673,
          "velocity": 0.7559055118110236
        },
        {
          "duration": 0.2176134187500054,
          "durationTicks": 383,
          "midi": 47,
          "name": "B2",
          "ticks": 95520,
          "time": 54.272673,
          "velocity": 0.7559055118110236
        },
        {
          "duration": 0.2585224687499945,
          "durationTicks": 455,
          "midi": 33,
          "name": "A1",
          "ticks": 96000,
          "time": 54.5454,
          "velocity": 0.7559055118110236
        },
        {
          "duration": 0.2585224687499945,
          "durationTicks": 455,
          "midi": 45,
          "name": "A2",
          "ticks": 96000,
          "time": 54.5454,
          "velocity": 0.7559055118110236
        },
        {
          "duration": 0.10852261875000124,
          "durationTicks": 191,
          "midi": 52,
          "name": "E3",
          "ticks": 96480,
          "time": 54.818127,
          "velocity": 0.7559055118110236
        },
        {
          "duration": 0.10852261875000124,
          "durationTicks": 191,
          "midi": 57,
          "name": "A3",
          "ticks": 96480,
          "time": 54.818127,
          "velocity": 0.7559055118110236
        },
        {
          "duration": 0.10852261875000124,
          "durationTicks": 191,
          "midi": 61,
          "name": "C#4",
          "ticks": 96480,
          "time": 54.818127,
          "velocity": 0.7559055118110236
        },
        {
          "duration": 0.2585224687500016,
          "durationTicks": 455,
          "midi": 45,
          "name": "A2",
          "ticks": 96720,
          "time": 54.9544905,
          "velocity": 0.7559055118110236
        },
        {
          "duration": 0.12897714374999936,
          "durationTicks": 227,
          "midi": 45,
          "name": "A2",
          "ticks": 97200,
          "time": 55.2272175,
          "velocity": 0.7559055118110236
        },
        {
          "duration": 0.2176134187500054,
          "durationTicks": 383,
          "midi": 52,
          "name": "E3",
          "ticks": 97440,
          "time": 55.363580999999996,
          "velocity": 0.7559055118110236
        },
        {
          "duration": 0.2176134187500054,
          "durationTicks": 383,
          "midi": 57,
          "name": "A3",
          "ticks": 97440,
          "time": 55.363580999999996,
          "velocity": 0.7559055118110236
        },
        {
          "duration": 0.2176134187500054,
          "durationTicks": 383,
          "midi": 61,
          "name": "C#4",
          "ticks": 97440,
          "time": 55.363580999999996,
          "velocity": 0.7559055118110236
        },
        {
          "duration": 0.2585224687499945,
          "durationTicks": 455,
          "midi": 32,
          "name": "G#1",
          "ticks": 97920,
          "time": 55.636308,
          "velocity": 0.7559055118110236
        },
        {
          "duration": 0.2585224687499945,
          "durationTicks": 455,
          "midi": 44,
          "name": "G#2",
          "ticks": 97920,
          "time": 55.636308,
          "velocity": 0.7559055118110236
        },
        {
          "duration": 0.10852261875000124,
          "durationTicks": 191,
          "midi": 51,
          "name": "D#3",
          "ticks": 98400,
          "time": 55.909035,
          "velocity": 0.7559055118110236
        },
        {
          "duration": 0.10852261875000124,
          "durationTicks": 191,
          "midi": 54,
          "name": "F#3",
          "ticks": 98400,
          "time": 55.909035,
          "velocity": 0.7559055118110236
        },
        {
          "duration": 0.10852261875000124,
          "durationTicks": 191,
          "midi": 60,
          "name": "C4",
          "ticks": 98400,
          "time": 55.909035,
          "velocity": 0.7559055118110236
        },
        {
          "duration": 0.2585224687500016,
          "durationTicks": 455,
          "midi": 44,
          "name": "G#2",
          "ticks": 98640,
          "time": 56.0453985,
          "velocity": 0.7559055118110236
        },
        {
          "duration": 0.12897714374999936,
          "durationTicks": 227,
          "midi": 44,
          "name": "G#2",
          "ticks": 99120,
          "time": 56.3181255,
          "velocity": 0.7559055118110236
        },
        {
          "duration": 0.2176134187499983,
          "durationTicks": 383,
          "midi": 51,
          "name": "D#3",
          "ticks": 99360,
          "time": 56.454489,
          "velocity": 0.7559055118110236
        },
        {
          "duration": 0.2176134187499983,
          "durationTicks": 383,
          "midi": 54,
          "name": "F#3",
          "ticks": 99360,
          "time": 56.454489,
          "velocity": 0.7559055118110236
        },
        {
          "duration": 0.2176134187499983,
          "durationTicks": 383,
          "midi": 60,
          "name": "C4",
          "ticks": 99360,
          "time": 56.454489,
          "velocity": 0.7559055118110236
        },
        {
          "duration": 0.2585224687500016,
          "durationTicks": 455,
          "midi": 37,
          "name": "C#2",
          "ticks": 99840,
          "time": 56.727216,
          "velocity": 0.7559055118110236
        },
        {
          "duration": 0.2585224687500016,
          "durationTicks": 455,
          "midi": 49,
          "name": "C#3",
          "ticks": 99840,
          "time": 56.727216,
          "velocity": 0.7559055118110236
        },
        {
          "duration": 0.10852261875000124,
          "durationTicks": 191,
          "midi": 52,
          "name": "E3",
          "ticks": 100320,
          "time": 56.999943,
          "velocity": 0.7559055118110236
        },
        {
          "duration": 0.10852261875000124,
          "durationTicks": 191,
          "midi": 56,
          "name": "G#3",
          "ticks": 100320,
          "time": 56.999943,
          "velocity": 0.7559055118110236
        },
        {
          "duration": 0.10852261875000124,
          "durationTicks": 191,
          "midi": 61,
          "name": "C#4",
          "ticks": 100320,
          "time": 56.999943,
          "velocity": 0.7559055118110236
        },
        {
          "duration": 0.2585224687500016,
          "durationTicks": 455,
          "midi": 49,
          "name": "C#3",
          "ticks": 100560,
          "time": 57.136306499999996,
          "velocity": 0.7559055118110236
        },
        {
          "duration": 0.12897714374999936,
          "durationTicks": 227,
          "midi": 49,
          "name": "C#3",
          "ticks": 101040,
          "time": 57.4090335,
          "velocity": 0.7559055118110236
        },
        {
          "duration": 0.2176134187499983,
          "durationTicks": 383,
          "midi": 52,
          "name": "E3",
          "ticks": 101280,
          "time": 57.545397,
          "velocity": 0.7559055118110236
        },
        {
          "duration": 0.2176134187499983,
          "durationTicks": 383,
          "midi": 56,
          "name": "G#3",
          "ticks": 101280,
          "time": 57.545397,
          "velocity": 0.7559055118110236
        },
        {
          "duration": 0.2176134187499983,
          "durationTicks": 383,
          "midi": 61,
          "name": "C#4",
          "ticks": 101280,
          "time": 57.545397,
          "velocity": 0.7559055118110236
        },
        {
          "duration": 0.2585224687500016,
          "durationTicks": 455,
          "midi": 42,
          "name": "F#2",
          "ticks": 101760,
          "time": 57.818124,
          "velocity": 0.7559055118110236
        },
        {
          "duration": 0.2585224687500016,
          "durationTicks": 455,
          "midi": 54,
          "name": "F#3",
          "ticks": 101760,
          "time": 57.818124,
          "velocity": 0.7559055118110236
        },
        {
          "duration": 0.10852261875000124,
          "durationTicks": 191,
          "midi": 52,
          "name": "E3",
          "ticks": 102240,
          "time": 58.090851,
          "velocity": 0.7559055118110236
        },
        {
          "duration": 0.10852261875000124,
          "durationTicks": 191,
          "midi": 58,
          "name": "A#3",
          "ticks": 102240,
          "time": 58.090851,
          "velocity": 0.7559055118110236
        },
        {
          "duration": 0.10852261875000124,
          "durationTicks": 191,
          "midi": 61,
          "name": "C#4",
          "ticks": 102240,
          "time": 58.090851,
          "velocity": 0.7559055118110236
        },
        {
          "duration": 0.2585224687499945,
          "durationTicks": 455,
          "midi": 42,
          "name": "F#2",
          "ticks": 102480,
          "time": 58.2272145,
          "velocity": 0.7559055118110236
        },
        {
          "duration": 0.12897714374999936,
          "durationTicks": 227,
          "midi": 42,
          "name": "F#2",
          "ticks": 102960,
          "time": 58.4999415,
          "velocity": 0.7559055118110236
        },
        {
          "duration": 0.2176134187500054,
          "durationTicks": 383,
          "midi": 52,
          "name": "E3",
          "ticks": 103200,
          "time": 58.636305,
          "velocity": 0.7559055118110236
        },
        {
          "duration": 0.2176134187500054,
          "durationTicks": 383,
          "midi": 58,
          "name": "A#3",
          "ticks": 103200,
          "time": 58.636305,
          "velocity": 0.7559055118110236
        },
        {
          "duration": 0.2176134187500054,
          "durationTicks": 383,
          "midi": 61,
          "name": "C#4",
          "ticks": 103200,
          "time": 58.636305,
          "velocity": 0.7559055118110236
        },
        {
          "duration": 0.2585224687500016,
          "durationTicks": 455,
          "midi": 45,
          "name": "A2",
          "ticks": 103680,
          "time": 58.909031999999996,
          "velocity": 0.7559055118110236
        },
        {
          "duration": 0.2585224687500016,
          "durationTicks": 455,
          "midi": 57,
          "name": "A3",
          "ticks": 103680,
          "time": 58.909031999999996,
          "velocity": 0.7559055118110236
        },
        {
          "duration": 0.6471584437500013,
          "durationTicks": 1139,
          "midi": 47,
          "name": "B2",
          "ticks": 104400,
          "time": 59.3181225,
          "velocity": 0.7559055118110236
        },
        {
          "duration": 0.6471584437500013,
          "durationTicks": 1139,
          "midi": 59,
          "name": "B3",
          "ticks": 104400,
          "time": 59.3181225,
          "velocity": 0.7559055118110236
        },
        {
          "duration": 0.2585224687499945,
          "durationTicks": 455,
          "midi": 44,
          "name": "G#2",
          "ticks": 105600,
          "time": 59.99994,
          "velocity": 0.7559055118110236
        },
        {
          "duration": 0.2585224687499945,
          "durationTicks": 455,
          "midi": 56,
          "name": "G#3",
          "ticks": 105600,
          "time": 59.99994,
          "velocity": 0.7559055118110236
        },
        {
          "duration": 0.6471584437500013,
          "durationTicks": 1139,
          "midi": 43,
          "name": "G2",
          "ticks": 106320,
          "time": 60.4090305,
          "velocity": 0.7559055118110236
        },
        {
          "duration": 0.6471584437500013,
          "durationTicks": 1139,
          "midi": 55,
          "name": "G3",
          "ticks": 106320,
          "time": 60.4090305,
          "velocity": 0.7559055118110236
        },
        {
          "duration": 0.517613118749999,
          "durationTicks": 911,
          "midi": 42,
          "name": "F#2",
          "ticks": 107520,
          "time": 61.090848,
          "velocity": 0.7559055118110236
        },
        {
          "duration": 0.517613118749999,
          "durationTicks": 911,
          "midi": 54,
          "name": "F#3",
          "ticks": 107520,
          "time": 61.090848,
          "velocity": 0.7559055118110236
        },
        {
          "duration": 0.2585224687499945,
          "durationTicks": 455,
          "midi": 41,
          "name": "F2",
          "ticks": 108480,
          "time": 61.636302,
          "velocity": 0.7559055118110236
        },
        {
          "duration": 0.2585224687499945,
          "durationTicks": 455,
          "midi": 53,
          "name": "F3",
          "ticks": 108480,
          "time": 61.636302,
          "velocity": 0.7559055118110236
        },
        {
          "duration": 0.2585224687500016,
          "durationTicks": 455,
          "midi": 41,
          "name": "F2",
          "ticks": 108960,
          "time": 61.909029,
          "velocity": 0.7559055118110236
        },
        {
          "duration": 0.2585224687500016,
          "durationTicks": 455,
          "midi": 53,
          "name": "F3",
          "ticks": 108960,
          "time": 61.909029,
          "velocity": 0.7559055118110236
        },
        {
          "duration": 0.2585224687499945,
          "durationTicks": 455,
          "midi": 40,
          "name": "E2",
          "ticks": 109440,
          "time": 62.181756,
          "velocity": 0.7559055118110236
        },
        {
          "duration": 0.2585224687499945,
          "durationTicks": 455,
          "midi": 52,
          "name": "E3",
          "ticks": 109440,
          "time": 62.181756,
          "velocity": 0.7559055118110236
        },
        {
          "duration": 0.10852261875000835,
          "durationTicks": 191,
          "midi": 52,
          "name": "E3",
          "ticks": 109920,
          "time": 62.454482999999996,
          "velocity": 0.7559055118110236
        },
        {
          "duration": 0.10852261875000835,
          "durationTicks": 191,
          "midi": 56,
          "name": "G#3",
          "ticks": 109920,
          "time": 62.454482999999996,
          "velocity": 0.7559055118110236
        },
        {
          "duration": 0.10852261875000835,
          "durationTicks": 191,
          "midi": 59,
          "name": "B3",
          "ticks": 109920,
          "time": 62.454482999999996,
          "velocity": 0.7559055118110236
        },
        {
          "duration": 0.2585224687500016,
          "durationTicks": 455,
          "midi": 40,
          "name": "E2",
          "ticks": 110160,
          "time": 62.5908465,
          "velocity": 0.7559055118110236
        },
        {
          "duration": 0.12897714374999936,
          "durationTicks": 227,
          "midi": 47,
          "name": "B2",
          "ticks": 110640,
          "time": 62.8635735,
          "velocity": 0.7559055118110236
        },
        {
          "duration": 0.2176134187499983,
          "durationTicks": 383,
          "midi": 52,
          "name": "E3",
          "ticks": 110880,
          "time": 62.999937,
          "velocity": 0.7559055118110236
        },
        {
          "duration": 0.2176134187499983,
          "durationTicks": 383,
          "midi": 56,
          "name": "G#3",
          "ticks": 110880,
          "time": 62.999937,
          "velocity": 0.7559055118110236
        },
        {
          "duration": 0.2176134187499983,
          "durationTicks": 383,
          "midi": 59,
          "name": "B3",
          "ticks": 110880,
          "time": 62.999937,
          "velocity": 0.7559055118110236
        },
        {
          "duration": 0.2585224687499945,
          "durationTicks": 455,
          "midi": 42,
          "name": "F#2",
          "ticks": 111360,
          "time": 63.272664,
          "velocity": 0.7559055118110236
        },
        {
          "duration": 0.2585224687499945,
          "durationTicks": 455,
          "midi": 54,
          "name": "F#3",
          "ticks": 111360,
          "time": 63.272664,
          "velocity": 0.7559055118110236
        },
        {
          "duration": 0.10852261875000124,
          "durationTicks": 191,
          "midi": 54,
          "name": "F#3",
          "ticks": 111840,
          "time": 63.545391,
          "velocity": 0.7559055118110236
        },
        {
          "duration": 0.10852261875000124,
          "durationTicks": 191,
          "midi": 57,
          "name": "A3",
          "ticks": 111840,
          "time": 63.545391,
          "velocity": 0.7559055118110236
        },
        {
          "duration": 0.10852261875000124,
          "durationTicks": 191,
          "midi": 61,
          "name": "C#4",
          "ticks": 111840,
          "time": 63.545391,
          "velocity": 0.7559055118110236
        },
        {
          "duration": 0.2585224687500016,
          "durationTicks": 455,
          "midi": 42,
          "name": "F#2",
          "ticks": 112080,
          "time": 63.6817545,
          "velocity": 0.7559055118110236
        },
        {
          "duration": 0.12897714374999225,
          "durationTicks": 227,
          "midi": 49,
          "name": "C#3",
          "ticks": 112560,
          "time": 63.9544815,
          "velocity": 0.7559055118110236
        },
        {
          "duration": 0.2176134187500054,
          "durationTicks": 383,
          "midi": 54,
          "name": "F#3",
          "ticks": 112800,
          "time": 64.090845,
          "velocity": 0.7559055118110236
        },
        {
          "duration": 0.2176134187500054,
          "durationTicks": 383,
          "midi": 57,
          "name": "A3",
          "ticks": 112800,
          "time": 64.090845,
          "velocity": 0.7559055118110236
        },
        {
          "duration": 0.2176134187500054,
          "durationTicks": 383,
          "midi": 61,
          "name": "C#4",
          "ticks": 112800,
          "time": 64.090845,
          "velocity": 0.7559055118110236
        },
        {
          "duration": 0.2585224687499874,
          "durationTicks": 455,
          "midi": 44,
          "name": "G#2",
          "ticks": 113280,
          "time": 64.363572,
          "velocity": 0.7559055118110236
        },
        {
          "duration": 0.2585224687499874,
          "durationTicks": 455,
          "midi": 56,
          "name": "G#3",
          "ticks": 113280,
          "time": 64.363572,
          "velocity": 0.7559055118110236
        },
        {
          "duration": 0.10852261875000124,
          "durationTicks": 191,
          "midi": 51,
          "name": "D#3",
          "ticks": 113760,
          "time": 64.636299,
          "velocity": 0.7559055118110236
        },
        {
          "duration": 0.10852261875000124,
          "durationTicks": 191,
          "midi": 56,
          "name": "G#3",
          "ticks": 113760,
          "time": 64.636299,
          "velocity": 0.7559055118110236
        },
        {
          "duration": 0.10852261875000124,
          "durationTicks": 191,
          "midi": 59,
          "name": "B3",
          "ticks": 113760,
          "time": 64.636299,
          "velocity": 0.7559055118110236
        },
        {
          "duration": 0.2585224687500016,
          "durationTicks": 455,
          "midi": 44,
          "name": "G#2",
          "ticks": 114000,
          "time": 64.7726625,
          "velocity": 0.7559055118110236
        },
        {
          "duration": 0.12897714375000646,
          "durationTicks": 227,
          "midi": 44,
          "name": "G#2",
          "ticks": 114480,
          "time": 65.0453895,
          "velocity": 0.7559055118110236
        },
        {
          "duration": 0.2176134187500054,
          "durationTicks": 383,
          "midi": 51,
          "name": "D#3",
          "ticks": 114720,
          "time": 65.181753,
          "velocity": 0.7559055118110236
        },
        {
          "duration": 0.2176134187500054,
          "durationTicks": 383,
          "midi": 56,
          "name": "G#3",
          "ticks": 114720,
          "time": 65.181753,
          "velocity": 0.7559055118110236
        },
        {
          "duration": 0.2176134187500054,
          "durationTicks": 383,
          "midi": 59,
          "name": "B3",
          "ticks": 114720,
          "time": 65.181753,
          "velocity": 0.7559055118110236
        },
        {
          "duration": 0.2585224687499874,
          "durationTicks": 455,
          "midi": 45,
          "name": "A2",
          "ticks": 115200,
          "time": 65.45448,
          "velocity": 0.7559055118110236
        },
        {
          "duration": 0.2585224687499874,
          "durationTicks": 455,
          "midi": 57,
          "name": "A3",
          "ticks": 115200,
          "time": 65.45448,
          "velocity": 0.7559055118110236
        },
        {
          "duration": 0.10852261875001545,
          "durationTicks": 191,
          "midi": 52,
          "name": "E3",
          "ticks": 115680,
          "time": 65.72720699999999,
          "velocity": 0.7559055118110236
        },
        {
          "duration": 0.10852261875001545,
          "durationTicks": 191,
          "midi": 57,
          "name": "A3",
          "ticks": 115680,
          "time": 65.72720699999999,
          "velocity": 0.7559055118110236
        },
        {
          "duration": 0.10852261875001545,
          "durationTicks": 191,
          "midi": 61,
          "name": "C#4",
          "ticks": 115680,
          "time": 65.72720699999999,
          "velocity": 0.7559055118110236
        },
        {
          "duration": 0.2585224687500016,
          "durationTicks": 455,
          "midi": 45,
          "name": "A2",
          "ticks": 115920,
          "time": 65.8635705,
          "velocity": 0.7559055118110236
        },
        {
          "duration": 0.12897714375000646,
          "durationTicks": 227,
          "midi": 45,
          "name": "A2",
          "ticks": 116400,
          "time": 66.1362975,
          "velocity": 0.7559055118110236
        },
        {
          "duration": 0.2176134187500054,
          "durationTicks": 383,
          "midi": 52,
          "name": "E3",
          "ticks": 116640,
          "time": 66.272661,
          "velocity": 0.7559055118110236
        },
        {
          "duration": 0.2176134187500054,
          "durationTicks": 383,
          "midi": 57,
          "name": "A3",
          "ticks": 116640,
          "time": 66.272661,
          "velocity": 0.7559055118110236
        },
        {
          "duration": 0.2176134187500054,
          "durationTicks": 383,
          "midi": 61,
          "name": "C#4",
          "ticks": 116640,
          "time": 66.272661,
          "velocity": 0.7559055118110236
        },
        {
          "duration": 0.2585224687499874,
          "durationTicks": 455,
          "midi": 36,
          "name": "C2",
          "ticks": 117120,
          "time": 66.545388,
          "velocity": 0.7559055118110236
        },
        {
          "duration": 0.2585224687499874,
          "durationTicks": 455,
          "midi": 48,
          "name": "C3",
          "ticks": 117120,
          "time": 66.545388,
          "velocity": 0.7559055118110236
        },
        {
          "duration": 0.10852261875000124,
          "durationTicks": 191,
          "midi": 54,
          "name": "F#3",
          "ticks": 117600,
          "time": 66.818115,
          "velocity": 0.7559055118110236
        },
        {
          "duration": 0.10852261875000124,
          "durationTicks": 191,
          "midi": 60,
          "name": "C4",
          "ticks": 117600,
          "time": 66.818115,
          "velocity": 0.7559055118110236
        },
        {
          "duration": 0.10852261875000124,
          "durationTicks": 191,
          "midi": 63,
          "name": "D#4",
          "ticks": 117600,
          "time": 66.818115,
          "velocity": 0.7559055118110236
        },
        {
          "duration": 0.2585224687500016,
          "durationTicks": 455,
          "midi": 48,
          "name": "C3",
          "ticks": 117840,
          "time": 66.9544785,
          "velocity": 0.7559055118110236
        },
        {
          "duration": 0.12897714375000646,
          "durationTicks": 227,
          "midi": 48,
          "name": "C3",
          "ticks": 118320,
          "time": 67.2272055,
          "velocity": 0.7559055118110236
        },
        {
          "duration": 0.2176134187500054,
          "durationTicks": 383,
          "midi": 54,
          "name": "F#3",
          "ticks": 118560,
          "time": 67.363569,
          "velocity": 0.7559055118110236
        },
        {
          "duration": 0.2176134187500054,
          "durationTicks": 383,
          "midi": 60,
          "name": "C4",
          "ticks": 118560,
          "time": 67.363569,
          "velocity": 0.7559055118110236
        },
        {
          "duration": 0.2176134187500054,
          "durationTicks": 383,
          "midi": 63,
          "name": "D#4",
          "ticks": 118560,
          "time": 67.363569,
          "velocity": 0.7559055118110236
        },
        {
          "duration": 0.2585224687500016,
          "durationTicks": 455,
          "midi": 37,
          "name": "C#2",
          "ticks": 119040,
          "time": 67.636296,
          "velocity": 0.7559055118110236
        },
        {
          "duration": 0.2585224687500016,
          "durationTicks": 455,
          "midi": 49,
          "name": "C#3",
          "ticks": 119040,
          "time": 67.636296,
          "velocity": 0.7559055118110236
        },
        {
          "duration": 0.10852261875000124,
          "durationTicks": 191,
          "midi": 52,
          "name": "E3",
          "ticks": 119520,
          "time": 67.909023,
          "velocity": 0.7559055118110236
        },
        {
          "duration": 0.10852261875000124,
          "durationTicks": 191,
          "midi": 56,
          "name": "G#3",
          "ticks": 119520,
          "time": 67.909023,
          "velocity": 0.7559055118110236
        },
        {
          "duration": 0.10852261875000124,
          "durationTicks": 191,
          "midi": 61,
          "name": "C#4",
          "ticks": 119520,
          "time": 67.909023,
          "velocity": 0.7559055118110236
        },
        {
          "duration": 0.2585224687500016,
          "durationTicks": 455,
          "midi": 37,
          "name": "C#2",
          "ticks": 119760,
          "time": 68.04538649999999,
          "velocity": 0.7559055118110236
        },
        {
          "duration": 0.12897714375000646,
          "durationTicks": 227,
          "midi": 49,
          "name": "C#3",
          "ticks": 120240,
          "time": 68.3181135,
          "velocity": 0.7559055118110236
        },
        {
          "duration": 0.2176134187500054,
          "durationTicks": 383,
          "midi": 52,
          "name": "E3",
          "ticks": 120480,
          "time": 68.454477,
          "velocity": 0.7559055118110236
        },
        {
          "duration": 0.2176134187500054,
          "durationTicks": 383,
          "midi": 56,
          "name": "G#3",
          "ticks": 120480,
          "time": 68.454477,
          "velocity": 0.7559055118110236
        },
        {
          "duration": 0.2176134187500054,
          "durationTicks": 383,
          "midi": 61,
          "name": "C#4",
          "ticks": 120480,
          "time": 68.454477,
          "velocity": 0.7559055118110236
        },
        {
          "duration": 0.2585224687500016,
          "durationTicks": 455,
          "midi": 42,
          "name": "F#2",
          "ticks": 120960,
          "time": 68.727204,
          "velocity": 0.7559055118110236
        },
        {
          "duration": 0.2585224687500016,
          "durationTicks": 455,
          "midi": 54,
          "name": "F#3",
          "ticks": 120960,
          "time": 68.727204,
          "velocity": 0.7559055118110236
        },
        {
          "duration": 0.10852261875000124,
          "durationTicks": 191,
          "midi": 54,
          "name": "F#3",
          "ticks": 121440,
          "time": 68.999931,
          "velocity": 0.7559055118110236
        },
        {
          "duration": 0.10852261875000124,
          "durationTicks": 191,
          "midi": 57,
          "name": "A3",
          "ticks": 121440,
          "time": 68.999931,
          "velocity": 0.7559055118110236
        },
        {
          "duration": 0.10852261875000124,
          "durationTicks": 191,
          "midi": 61,
          "name": "C#4",
          "ticks": 121440,
          "time": 68.999931,
          "velocity": 0.7559055118110236
        },
        {
          "duration": 0.2585224687499874,
          "durationTicks": 455,
          "midi": 42,
          "name": "F#2",
          "ticks": 121680,
          "time": 69.1362945,
          "velocity": 0.7559055118110236
        },
        {
          "duration": 0.12897714375000646,
          "durationTicks": 227,
          "midi": 49,
          "name": "C#3",
          "ticks": 122160,
          "time": 69.4090215,
          "velocity": 0.7559055118110236
        },
        {
          "duration": 0.2176134187500054,
          "durationTicks": 383,
          "midi": 54,
          "name": "F#3",
          "ticks": 122400,
          "time": 69.545385,
          "velocity": 0.7559055118110236
        },
        {
          "duration": 0.2176134187500054,
          "durationTicks": 383,
          "midi": 57,
          "name": "A3",
          "ticks": 122400,
          "time": 69.545385,
          "velocity": 0.7559055118110236
        },
        {
          "duration": 0.2176134187500054,
          "durationTicks": 383,
          "midi": 61,
          "name": "C#4",
          "ticks": 122400,
          "time": 69.545385,
          "velocity": 0.7559055118110236
        },
        {
          "duration": 0.2585224687500016,
          "durationTicks": 455,
          "midi": 48,
          "name": "C3",
          "ticks": 122880,
          "time": 69.818112,
          "velocity": 0.7559055118110236
        },
        {
          "duration": 0.2585224687500016,
          "durationTicks": 455,
          "midi": 52,
          "name": "E3",
          "ticks": 122880,
          "time": 69.818112,
          "velocity": 0.7559055118110236
        },
        {
          "duration": 0.2585224687500016,
          "durationTicks": 455,
          "midi": 53,
          "name": "F3",
          "ticks": 122880,
          "time": 69.818112,
          "velocity": 0.7559055118110236
        },
        {
          "duration": 0.2585224687500016,
          "durationTicks": 455,
          "midi": 57,
          "name": "A3",
          "ticks": 122880,
          "time": 69.818112,
          "velocity": 0.7559055118110236
        },
        {
          "duration": 0.12897714374999225,
          "durationTicks": 227,
          "midi": 41,
          "name": "F2",
          "ticks": 123600,
          "time": 70.2272025,
          "velocity": 0.7559055118110236
        },
        {
          "duration": 0.21761341874999118,
          "durationTicks": 383,
          "midi": 48,
          "name": "C3",
          "ticks": 123840,
          "time": 70.363566,
          "velocity": 0.7559055118110236
        },
        {
          "duration": 0.21761341874999118,
          "durationTicks": 383,
          "midi": 52,
          "name": "E3",
          "ticks": 123840,
          "time": 70.363566,
          "velocity": 0.7559055118110236
        },
        {
          "duration": 0.21761341874999118,
          "durationTicks": 383,
          "midi": 53,
          "name": "F3",
          "ticks": 123840,
          "time": 70.363566,
          "velocity": 0.7559055118110236
        },
        {
          "duration": 0.21761341874999118,
          "durationTicks": 383,
          "midi": 57,
          "name": "A3",
          "ticks": 123840,
          "time": 70.363566,
          "velocity": 0.7559055118110236
        },
        {
          "duration": 0.25852246875001583,
          "durationTicks": 455,
          "midi": 48,
          "name": "C3",
          "ticks": 124320,
          "time": 70.636293,
          "velocity": 0.7559055118110236
        },
        {
          "duration": 0.25852246875001583,
          "durationTicks": 455,
          "midi": 52,
          "name": "E3",
          "ticks": 124320,
          "time": 70.636293,
          "velocity": 0.7559055118110236
        },
        {
          "duration": 0.25852246875001583,
          "durationTicks": 455,
          "midi": 53,
          "name": "F3",
          "ticks": 124320,
          "time": 70.636293,
          "velocity": 0.7559055118110236
        },
        {
          "duration": 0.25852246875001583,
          "durationTicks": 455,
          "midi": 57,
          "name": "A3",
          "ticks": 124320,
          "time": 70.636293,
          "velocity": 0.7559055118110236
        },
        {
          "duration": 0.2585224687500016,
          "durationTicks": 455,
          "midi": 40,
          "name": "E2",
          "ticks": 124800,
          "time": 70.90902,
          "velocity": 0.7559055118110236
        },
        {
          "duration": 0.2585224687500016,
          "durationTicks": 455,
          "midi": 52,
          "name": "E3",
          "ticks": 124800,
          "time": 70.90902,
          "velocity": 0.7559055118110236
        },
        {
          "duration": 0.10852261875000124,
          "durationTicks": 191,
          "midi": 52,
          "name": "E3",
          "ticks": 125280,
          "time": 71.181747,
          "velocity": 0.7559055118110236
        },
        {
          "duration": 0.10852261875000124,
          "durationTicks": 191,
          "midi": 56,
          "name": "G#3",
          "ticks": 125280,
          "time": 71.181747,
          "velocity": 0.7559055118110236
        },
        {
          "duration": 0.10852261875000124,
          "durationTicks": 191,
          "midi": 59,
          "name": "B3",
          "ticks": 125280,
          "time": 71.181747,
          "velocity": 0.7559055118110236
        },
        {
          "duration": 0.2585224687500016,
          "durationTicks": 455,
          "midi": 40,
          "name": "E2",
          "ticks": 125520,
          "time": 71.3181105,
          "velocity": 0.7559055118110236
        },
        {
          "duration": 0.12897714374999225,
          "durationTicks": 227,
          "midi": 47,
          "name": "B2",
          "ticks": 126000,
          "time": 71.5908375,
          "velocity": 0.7559055118110236
        },
        {
          "duration": 0.2176134187500054,
          "durationTicks": 383,
          "midi": 52,
          "name": "E3",
          "ticks": 126240,
          "time": 71.727201,
          "velocity": 0.7559055118110236
        },
        {
          "duration": 0.2176134187500054,
          "durationTicks": 383,
          "midi": 56,
          "name": "G#3",
          "ticks": 126240,
          "time": 71.727201,
          "velocity": 0.7559055118110236
        },
        {
          "duration": 0.2176134187500054,
          "durationTicks": 383,
          "midi": 59,
          "name": "B3",
          "ticks": 126240,
          "time": 71.727201,
          "velocity": 0.7559055118110236
        },
        {
          "duration": 0.2585224687500016,
          "durationTicks": 455,
          "midi": 42,
          "name": "F#2",
          "ticks": 126720,
          "time": 71.999928,
          "velocity": 0.7559055118110236
        },
        {
          "duration": 0.2585224687500016,
          "durationTicks": 455,
          "midi": 54,
          "name": "F#3",
          "ticks": 126720,
          "time": 71.999928,
          "velocity": 0.7559055118110236
        },
        {
          "duration": 0.10852261875000124,
          "durationTicks": 191,
          "midi": 54,
          "name": "F#3",
          "ticks": 127200,
          "time": 72.272655,
          "velocity": 0.7559055118110236
        },
        {
          "duration": 0.10852261875000124,
          "durationTicks": 191,
          "midi": 57,
          "name": "A3",
          "ticks": 127200,
          "time": 72.272655,
          "velocity": 0.7559055118110236
        },
        {
          "duration": 0.10852261875000124,
          "durationTicks": 191,
          "midi": 61,
          "name": "C#4",
          "ticks": 127200,
          "time": 72.272655,
          "velocity": 0.7559055118110236
        },
        {
          "duration": 0.2585224687500016,
          "durationTicks": 455,
          "midi": 42,
          "name": "F#2",
          "ticks": 127440,
          "time": 72.4090185,
          "velocity": 0.7559055118110236
        },
        {
          "duration": 0.12897714374999225,
          "durationTicks": 227,
          "midi": 49,
          "name": "C#3",
          "ticks": 127920,
          "time": 72.6817455,
          "velocity": 0.7559055118110236
        },
        {
          "duration": 0.2176134187500054,
          "durationTicks": 383,
          "midi": 54,
          "name": "F#3",
          "ticks": 128160,
          "time": 72.81810899999999,
          "velocity": 0.7559055118110236
        },
        {
          "duration": 0.2176134187500054,
          "durationTicks": 383,
          "midi": 57,
          "name": "A3",
          "ticks": 128160,
          "time": 72.81810899999999,
          "velocity": 0.7559055118110236
        },
        {
          "duration": 0.2176134187500054,
          "durationTicks": 383,
          "midi": 61,
          "name": "C#4",
          "ticks": 128160,
          "time": 72.81810899999999,
          "velocity": 0.7559055118110236
        },
        {
          "duration": 0.2585224687500016,
          "durationTicks": 455,
          "midi": 44,
          "name": "G#2",
          "ticks": 128640,
          "time": 73.090836,
          "velocity": 0.7559055118110236
        },
        {
          "duration": 0.2585224687500016,
          "durationTicks": 455,
          "midi": 56,
          "name": "G#3",
          "ticks": 128640,
          "time": 73.090836,
          "velocity": 0.7559055118110236
        },
        {
          "duration": 0.10852261875000124,
          "durationTicks": 191,
          "midi": 51,
          "name": "D#3",
          "ticks": 129120,
          "time": 73.363563,
          "velocity": 0.7559055118110236
        },
        {
          "duration": 0.10852261875000124,
          "durationTicks": 191,
          "midi": 56,
          "name": "G#3",
          "ticks": 129120,
          "time": 73.363563,
          "velocity": 0.7559055118110236
        },
        {
          "duration": 0.10852261875000124,
          "durationTicks": 191,
          "midi": 59,
          "name": "B3",
          "ticks": 129120,
          "time": 73.363563,
          "velocity": 0.7559055118110236
        },
        {
          "duration": 0.2585224687500016,
          "durationTicks": 455,
          "midi": 44,
          "name": "G#2",
          "ticks": 129360,
          "time": 73.4999265,
          "velocity": 0.7559055118110236
        },
        {
          "duration": 0.12897714374999225,
          "durationTicks": 227,
          "midi": 44,
          "name": "G#2",
          "ticks": 129840,
          "time": 73.7726535,
          "velocity": 0.7559055118110236
        },
        {
          "duration": 0.21761341874999118,
          "durationTicks": 383,
          "midi": 51,
          "name": "D#3",
          "ticks": 130080,
          "time": 73.909017,
          "velocity": 0.7559055118110236
        },
        {
          "duration": 0.21761341874999118,
          "durationTicks": 383,
          "midi": 56,
          "name": "G#3",
          "ticks": 130080,
          "time": 73.909017,
          "velocity": 0.7559055118110236
        },
        {
          "duration": 0.21761341874999118,
          "durationTicks": 383,
          "midi": 59,
          "name": "B3",
          "ticks": 130080,
          "time": 73.909017,
          "velocity": 0.7559055118110236
        },
        {
          "duration": 0.25852246875001583,
          "durationTicks": 455,
          "midi": 45,
          "name": "A2",
          "ticks": 130560,
          "time": 74.181744,
          "velocity": 0.7559055118110236
        },
        {
          "duration": 0.25852246875001583,
          "durationTicks": 455,
          "midi": 57,
          "name": "A3",
          "ticks": 130560,
          "time": 74.181744,
          "velocity": 0.7559055118110236
        },
        {
          "duration": 0.10852261875000124,
          "durationTicks": 191,
          "midi": 52,
          "name": "E3",
          "ticks": 131040,
          "time": 74.454471,
          "velocity": 0.7559055118110236
        },
        {
          "duration": 0.10852261875000124,
          "durationTicks": 191,
          "midi": 57,
          "name": "A3",
          "ticks": 131040,
          "time": 74.454471,
          "velocity": 0.7559055118110236
        },
        {
          "duration": 0.10852261875000124,
          "durationTicks": 191,
          "midi": 61,
          "name": "C#4",
          "ticks": 131040,
          "time": 74.454471,
          "velocity": 0.7559055118110236
        },
        {
          "duration": 0.2585224687500016,
          "durationTicks": 455,
          "midi": 45,
          "name": "A2",
          "ticks": 131280,
          "time": 74.5908345,
          "velocity": 0.7559055118110236
        },
        {
          "duration": 0.12897714374999225,
          "durationTicks": 227,
          "midi": 45,
          "name": "A2",
          "ticks": 131760,
          "time": 74.8635615,
          "velocity": 0.7559055118110236
        },
        {
          "duration": 0.21761341874999118,
          "durationTicks": 383,
          "midi": 52,
          "name": "E3",
          "ticks": 132000,
          "time": 74.999925,
          "velocity": 0.7559055118110236
        },
        {
          "duration": 0.21761341874999118,
          "durationTicks": 383,
          "midi": 57,
          "name": "A3",
          "ticks": 132000,
          "time": 74.999925,
          "velocity": 0.7559055118110236
        },
        {
          "duration": 0.21761341874999118,
          "durationTicks": 383,
          "midi": 61,
          "name": "C#4",
          "ticks": 132000,
          "time": 74.999925,
          "velocity": 0.7559055118110236
        },
        {
          "duration": 0.25852246875001583,
          "durationTicks": 455,
          "midi": 36,
          "name": "C2",
          "ticks": 132480,
          "time": 75.272652,
          "velocity": 0.7559055118110236
        },
        {
          "duration": 0.25852246875001583,
          "durationTicks": 455,
          "midi": 48,
          "name": "C3",
          "ticks": 132480,
          "time": 75.272652,
          "velocity": 0.7559055118110236
        },
        {
          "duration": 0.10852261875000124,
          "durationTicks": 191,
          "midi": 54,
          "name": "F#3",
          "ticks": 132960,
          "time": 75.545379,
          "velocity": 0.7559055118110236
        },
        {
          "duration": 0.10852261875000124,
          "durationTicks": 191,
          "midi": 60,
          "name": "C4",
          "ticks": 132960,
          "time": 75.545379,
          "velocity": 0.7559055118110236
        },
        {
          "duration": 0.10852261875000124,
          "durationTicks": 191,
          "midi": 63,
          "name": "D#4",
          "ticks": 132960,
          "time": 75.545379,
          "velocity": 0.7559055118110236
        },
        {
          "duration": 0.2585224687500016,
          "durationTicks": 455,
          "midi": 48,
          "name": "C3",
          "ticks": 133200,
          "time": 75.6817425,
          "velocity": 0.7559055118110236
        },
        {
          "duration": 0.12897714374999225,
          "durationTicks": 227,
          "midi": 48,
          "name": "C3",
          "ticks": 133680,
          "time": 75.9544695,
          "velocity": 0.7559055118110236
        },
        {
          "duration": 0.21761341874999118,
          "durationTicks": 383,
          "midi": 54,
          "name": "F#3",
          "ticks": 133920,
          "time": 76.090833,
          "velocity": 0.7559055118110236
        },
        {
          "duration": 0.21761341874999118,
          "durationTicks": 383,
          "midi": 60,
          "name": "C4",
          "ticks": 133920,
          "time": 76.090833,
          "velocity": 0.7559055118110236
        },
        {
          "duration": 0.21761341874999118,
          "durationTicks": 383,
          "midi": 63,
          "name": "D#4",
          "ticks": 133920,
          "time": 76.090833,
          "velocity": 0.7559055118110236
        },
        {
          "duration": 0.25852246875001583,
          "durationTicks": 455,
          "midi": 37,
          "name": "C#2",
          "ticks": 134400,
          "time": 76.36355999999999,
          "velocity": 0.7559055118110236
        },
        {
          "duration": 0.25852246875001583,
          "durationTicks": 455,
          "midi": 49,
          "name": "C#3",
          "ticks": 134400,
          "time": 76.36355999999999,
          "velocity": 0.7559055118110236
        },
        {
          "duration": 0.10852261875000124,
          "durationTicks": 191,
          "midi": 52,
          "name": "E3",
          "ticks": 134880,
          "time": 76.636287,
          "velocity": 0.7559055118110236
        },
        {
          "duration": 0.10852261875000124,
          "durationTicks": 191,
          "midi": 56,
          "name": "G#3",
          "ticks": 134880,
          "time": 76.636287,
          "velocity": 0.7559055118110236
        },
        {
          "duration": 0.10852261875000124,
          "durationTicks": 191,
          "midi": 61,
          "name": "C#4",
          "ticks": 134880,
          "time": 76.636287,
          "velocity": 0.7559055118110236
        },
        {
          "duration": 0.2585224687500016,
          "durationTicks": 455,
          "midi": 37,
          "name": "C#2",
          "ticks": 135120,
          "time": 76.7726505,
          "velocity": 0.7559055118110236
        },
        {
          "duration": 0.12897714374999225,
          "durationTicks": 227,
          "midi": 49,
          "name": "C#3",
          "ticks": 135600,
          "time": 77.0453775,
          "velocity": 0.7559055118110236
        },
        {
          "duration": 0.21761341874999118,
          "durationTicks": 383,
          "midi": 52,
          "name": "E3",
          "ticks": 135840,
          "time": 77.181741,
          "velocity": 0.7559055118110236
        },
        {
          "duration": 0.21761341874999118,
          "durationTicks": 383,
          "midi": 56,
          "name": "G#3",
          "ticks": 135840,
          "time": 77.181741,
          "velocity": 0.7559055118110236
        },
        {
          "duration": 0.21761341874999118,
          "durationTicks": 383,
          "midi": 61,
          "name": "C#4",
          "ticks": 135840,
          "time": 77.181741,
          "velocity": 0.7559055118110236
        },
        {
          "duration": 0.2585224687500016,
          "durationTicks": 455,
          "midi": 42,
          "name": "F#2",
          "ticks": 136320,
          "time": 77.454468,
          "velocity": 0.7559055118110236
        },
        {
          "duration": 0.2585224687500016,
          "durationTicks": 455,
          "midi": 54,
          "name": "F#3",
          "ticks": 136320,
          "time": 77.454468,
          "velocity": 0.7559055118110236
        },
        {
          "duration": 0.10852261875000124,
          "durationTicks": 191,
          "midi": 54,
          "name": "F#3",
          "ticks": 136800,
          "time": 77.727195,
          "velocity": 0.7559055118110236
        },
        {
          "duration": 0.10852261875000124,
          "durationTicks": 191,
          "midi": 57,
          "name": "A3",
          "ticks": 136800,
          "time": 77.727195,
          "velocity": 0.7559055118110236
        },
        {
          "duration": 0.10852261875000124,
          "durationTicks": 191,
          "midi": 61,
          "name": "C#4",
          "ticks": 136800,
          "time": 77.727195,
          "velocity": 0.7559055118110236
        },
        {
          "duration": 0.2585224687500016,
          "durationTicks": 455,
          "midi": 42,
          "name": "F#2",
          "ticks": 137040,
          "time": 77.8635585,
          "velocity": 0.7559055118110236
        },
        {
          "duration": 0.12897714374999225,
          "durationTicks": 227,
          "midi": 49,
          "name": "C#3",
          "ticks": 137520,
          "time": 78.1362855,
          "velocity": 0.7559055118110236
        },
        {
          "duration": 0.21761341874999118,
          "durationTicks": 383,
          "midi": 54,
          "name": "F#3",
          "ticks": 137760,
          "time": 78.272649,
          "velocity": 0.7559055118110236
        },
        {
          "duration": 0.21761341874999118,
          "durationTicks": 383,
          "midi": 57,
          "name": "A3",
          "ticks": 137760,
          "time": 78.272649,
          "velocity": 0.7559055118110236
        },
        {
          "duration": 0.21761341874999118,
          "durationTicks": 383,
          "midi": 61,
          "name": "C#4",
          "ticks": 137760,
          "time": 78.272649,
          "velocity": 0.7559055118110236
        },
        {
          "duration": 0.21761341874999118,
          "durationTicks": 383,
          "midi": 52,
          "name": "E3",
          "ticks": 138240,
          "time": 78.545376,
          "velocity": 0.7559055118110236
        },
        {
          "duration": 0.21761341874999118,
          "durationTicks": 383,
          "midi": 54,
          "name": "F#3",
          "ticks": 138240,
          "time": 78.545376,
          "velocity": 0.7559055118110236
        },
        {
          "duration": 0.21761341874999118,
          "durationTicks": 383,
          "midi": 59,
          "name": "B3",
          "ticks": 138240,
          "time": 78.545376,
          "velocity": 0.7559055118110236
        },
        {
          "duration": 0.2176134187500054,
          "durationTicks": 383,
          "midi": 35,
          "name": "B1",
          "ticks": 138720,
          "time": 78.818103,
          "velocity": 0.6929133858267716
        },
        {
          "duration": 0.2176134187500054,
          "durationTicks": 383,
          "midi": 47,
          "name": "B2",
          "ticks": 138720,
          "time": 78.818103,
          "velocity": 0.6929133858267716
        },
        {
          "duration": 0.21761341874999118,
          "durationTicks": 383,
          "midi": 35,
          "name": "B1",
          "ticks": 139200,
          "time": 79.09083,
          "velocity": 0.6299212598425197
        },
        {
          "duration": 0.21761341874999118,
          "durationTicks": 383,
          "midi": 47,
          "name": "B2",
          "ticks": 139200,
          "time": 79.09083,
          "velocity": 0.6299212598425197
        },
        {
          "duration": 0.21761341874999118,
          "durationTicks": 383,
          "midi": 35,
          "name": "B1",
          "ticks": 139680,
          "time": 79.363557,
          "velocity": 0.5669291338582677
        },
        {
          "duration": 0.21761341874999118,
          "durationTicks": 383,
          "midi": 47,
          "name": "B2",
          "ticks": 139680,
          "time": 79.363557,
          "velocity": 0.5669291338582677
        },
        {
          "duration": 0.517045885416664,
          "durationTicks": 455,
          "midi": 40,
          "name": "E2",
          "ticks": 140160,
          "time": 79.636284,
          "velocity": 0.5039370078740157
        },
        {
          "duration": 0.517045885416664,
          "durationTicks": 455,
          "midi": 52,
          "name": "E3",
          "ticks": 140160,
          "time": 79.636284,
          "velocity": 0.5039370078740157
        },
        {
          "duration": 0.2579547604166663,
          "durationTicks": 227,
          "midi": 40,
          "name": "E2",
          "ticks": 140640,
          "time": 80.18173900000001,
          "velocity": 0.5039370078740157
        },
        {
          "duration": 0.7352278854166627,
          "durationTicks": 647,
          "midi": 52,
          "name": "E3",
          "ticks": 140880,
          "time": 80.45446650000001,
          "velocity": 0.5039370078740157
        },
        {
          "duration": 0.7352278854166627,
          "durationTicks": 647,
          "midi": 56,
          "name": "G#3",
          "ticks": 140880,
          "time": 80.45446650000001,
          "velocity": 0.5039370078740157
        },
        {
          "duration": 0.7352278854166627,
          "durationTicks": 647,
          "midi": 59,
          "name": "B3",
          "ticks": 140880,
          "time": 80.45446650000001,
          "velocity": 0.5039370078740157
        },
        {
          "duration": 0.4352276354166662,
          "durationTicks": 383,
          "midi": 52,
          "name": "E3",
          "ticks": 141600,
          "time": 81.272649,
          "velocity": 0.5039370078740157
        },
        {
          "duration": 0.4352276354166662,
          "durationTicks": 383,
          "midi": 56,
          "name": "G#3",
          "ticks": 141600,
          "time": 81.272649,
          "velocity": 0.5039370078740157
        },
        {
          "duration": 0.4352276354166662,
          "durationTicks": 383,
          "midi": 59,
          "name": "B3",
          "ticks": 141600,
          "time": 81.272649,
          "velocity": 0.5039370078740157
        },
        {
          "duration": 0.517045885416664,
          "durationTicks": 455,
          "midi": 42,
          "name": "F#2",
          "ticks": 142080,
          "time": 81.818104,
          "velocity": 0.5039370078740157
        },
        {
          "duration": 0.517045885416664,
          "durationTicks": 455,
          "midi": 54,
          "name": "F#3",
          "ticks": 142080,
          "time": 81.818104,
          "velocity": 0.5039370078740157
        },
        {
          "duration": 0.2579547604166663,
          "durationTicks": 227,
          "midi": 42,
          "name": "F#2",
          "ticks": 142560,
          "time": 82.36355900000001,
          "velocity": 0.5039370078740157
        },
        {
          "duration": 0.6534096354166792,
          "durationTicks": 575,
          "midi": 54,
          "name": "F#3",
          "ticks": 142800,
          "time": 82.6362865,
          "velocity": 0.5039370078740157
        },
        {
          "duration": 0.6534096354166792,
          "durationTicks": 575,
          "midi": 57,
          "name": "A3",
          "ticks": 142800,
          "time": 82.6362865,
          "velocity": 0.5039370078740157
        },
        {
          "duration": 0.6534096354166792,
          "durationTicks": 575,
          "midi": 61,
          "name": "C#4",
          "ticks": 142800,
          "time": 82.6362865,
          "velocity": 0.5039370078740157
        },
        {
          "duration": 0.4352276354166662,
          "durationTicks": 383,
          "midi": 54,
          "name": "F#3",
          "ticks": 143520,
          "time": 83.454469,
          "velocity": 0.5039370078740157
        },
        {
          "duration": 0.4352276354166662,
          "durationTicks": 383,
          "midi": 57,
          "name": "A3",
          "ticks": 143520,
          "time": 83.454469,
          "velocity": 0.5039370078740157
        },
        {
          "duration": 0.4352276354166662,
          "durationTicks": 383,
          "midi": 61,
          "name": "C#4",
          "ticks": 143520,
          "time": 83.454469,
          "velocity": 0.5039370078740157
        },
        {
          "duration": 0.517045885416664,
          "durationTicks": 455,
          "midi": 44,
          "name": "G#2",
          "ticks": 144000,
          "time": 83.99992400000001,
          "velocity": 0.5039370078740157
        },
        {
          "duration": 0.517045885416664,
          "durationTicks": 455,
          "midi": 56,
          "name": "G#3",
          "ticks": 144000,
          "time": 83.99992400000001,
          "velocity": 0.5039370078740157
        },
        {
          "duration": 0.25795476041668053,
          "durationTicks": 227,
          "midi": 44,
          "name": "G#2",
          "ticks": 144480,
          "time": 84.545379,
          "velocity": 0.5039370078740157
        },
        {
          "duration": 0.653409635416665,
          "durationTicks": 575,
          "midi": 51,
          "name": "D#3",
          "ticks": 144720,
          "time": 84.8181065,
          "velocity": 0.5039370078740157
        },
        {
          "duration": 0.653409635416665,
          "durationTicks": 575,
          "midi": 56,
          "name": "G#3",
          "ticks": 144720,
          "time": 84.8181065,
          "velocity": 0.5039370078740157
        },
        {
          "duration": 0.653409635416665,
          "durationTicks": 575,
          "midi": 59,
          "name": "B3",
          "ticks": 144720,
          "time": 84.8181065,
          "velocity": 0.5039370078740157
        },
        {
          "duration": 0.4352276354166662,
          "durationTicks": 383,
          "midi": 51,
          "name": "D#3",
          "ticks": 145440,
          "time": 85.636289,
          "velocity": 0.5039370078740157
        },
        {
          "duration": 0.4352276354166662,
          "durationTicks": 383,
          "midi": 56,
          "name": "G#3",
          "ticks": 145440,
          "time": 85.636289,
          "velocity": 0.5039370078740157
        },
        {
          "duration": 0.4352276354166662,
          "durationTicks": 383,
          "midi": 59,
          "name": "B3",
          "ticks": 145440,
          "time": 85.636289,
          "velocity": 0.5039370078740157
        },
        {
          "duration": 0.517045885416664,
          "durationTicks": 455,
          "midi": 45,
          "name": "A2",
          "ticks": 145920,
          "time": 86.18174400000001,
          "velocity": 0.5039370078740157
        },
        {
          "duration": 0.517045885416664,
          "durationTicks": 455,
          "midi": 57,
          "name": "A3",
          "ticks": 145920,
          "time": 86.18174400000001,
          "velocity": 0.5039370078740157
        },
        {
          "duration": 0.2579547604166663,
          "durationTicks": 227,
          "midi": 45,
          "name": "A2",
          "ticks": 146400,
          "time": 86.727199,
          "velocity": 0.5039370078740157
        },
        {
          "duration": 0.653409635416665,
          "durationTicks": 575,
          "midi": 52,
          "name": "E3",
          "ticks": 146640,
          "time": 86.9999265,
          "velocity": 0.5039370078740157
        },
        {
          "duration": 0.653409635416665,
          "durationTicks": 575,
          "midi": 57,
          "name": "A3",
          "ticks": 146640,
          "time": 86.9999265,
          "velocity": 0.5039370078740157
        },
        {
          "duration": 0.653409635416665,
          "durationTicks": 575,
          "midi": 61,
          "name": "C#4",
          "ticks": 146640,
          "time": 86.9999265,
          "velocity": 0.5039370078740157
        },
        {
          "duration": 0.4352276354166662,
          "durationTicks": 383,
          "midi": 52,
          "name": "E3",
          "ticks": 147360,
          "time": 87.818109,
          "velocity": 0.5039370078740157
        },
        {
          "duration": 0.4352276354166662,
          "durationTicks": 383,
          "midi": 57,
          "name": "A3",
          "ticks": 147360,
          "time": 87.818109,
          "velocity": 0.5039370078740157
        },
        {
          "duration": 0.4352276354166662,
          "durationTicks": 383,
          "midi": 61,
          "name": "C#4",
          "ticks": 147360,
          "time": 87.818109,
          "velocity": 0.5039370078740157
        },
        {
          "duration": 0.5170458854166782,
          "durationTicks": 455,
          "midi": 36,
          "name": "C2",
          "ticks": 147840,
          "time": 88.363564,
          "velocity": 0.5039370078740157
        },
        {
          "duration": 0.5170458854166782,
          "durationTicks": 455,
          "midi": 48,
          "name": "C3",
          "ticks": 147840,
          "time": 88.363564,
          "velocity": 0.5039370078740157
        },
        {
          "duration": 0.2579547604166663,
          "durationTicks": 227,
          "midi": 48,
          "name": "C3",
          "ticks": 148320,
          "time": 88.909019,
          "velocity": 0.5039370078740157
        },
        {
          "duration": 0.653409635416665,
          "durationTicks": 575,
          "midi": 54,
          "name": "F#3",
          "ticks": 148560,
          "time": 89.1817465,
          "velocity": 0.5039370078740157
        },
        {
          "duration": 0.653409635416665,
          "durationTicks": 575,
          "midi": 60,
          "name": "C4",
          "ticks": 148560,
          "time": 89.1817465,
          "velocity": 0.5039370078740157
        },
        {
          "duration": 0.653409635416665,
          "durationTicks": 575,
          "midi": 63,
          "name": "D#4",
          "ticks": 148560,
          "time": 89.1817465,
          "velocity": 0.5039370078740157
        },
        {
          "duration": 0.4352276354166662,
          "durationTicks": 383,
          "midi": 54,
          "name": "F#3",
          "ticks": 149280,
          "time": 89.99992900000001,
          "velocity": 0.5039370078740157
        },
        {
          "duration": 0.4352276354166662,
          "durationTicks": 383,
          "midi": 60,
          "name": "C4",
          "ticks": 149280,
          "time": 89.99992900000001,
          "velocity": 0.5039370078740157
        },
        {
          "duration": 0.4352276354166662,
          "durationTicks": 383,
          "midi": 63,
          "name": "D#4",
          "ticks": 149280,
          "time": 89.99992900000001,
          "velocity": 0.5039370078740157
        },
        {
          "duration": 0.5170458854166782,
          "durationTicks": 455,
          "midi": 37,
          "name": "C#2",
          "ticks": 149760,
          "time": 90.545384,
          "velocity": 0.5039370078740157
        },
        {
          "duration": 0.5170458854166782,
          "durationTicks": 455,
          "midi": 49,
          "name": "C#3",
          "ticks": 149760,
          "time": 90.545384,
          "velocity": 0.5039370078740157
        },
        {
          "duration": 0.2579547604166663,
          "durationTicks": 227,
          "midi": 49,
          "name": "C#3",
          "ticks": 150240,
          "time": 91.090839,
          "velocity": 0.5039370078740157
        },
        {
          "duration": 0.653409635416665,
          "durationTicks": 575,
          "midi": 52,
          "name": "E3",
          "ticks": 150480,
          "time": 91.3635665,
          "velocity": 0.5039370078740157
        },
        {
          "duration": 0.653409635416665,
          "durationTicks": 575,
          "midi": 56,
          "name": "G#3",
          "ticks": 150480,
          "time": 91.3635665,
          "velocity": 0.5039370078740157
        },
        {
          "duration": 0.653409635416665,
          "durationTicks": 575,
          "midi": 61,
          "name": "C#4",
          "ticks": 150480,
          "time": 91.3635665,
          "velocity": 0.5039370078740157
        },
        {
          "duration": 0.4352276354166804,
          "durationTicks": 383,
          "midi": 52,
          "name": "E3",
          "ticks": 151200,
          "time": 92.181749,
          "velocity": 0.5039370078740157
        },
        {
          "duration": 0.4352276354166804,
          "durationTicks": 383,
          "midi": 56,
          "name": "G#3",
          "ticks": 151200,
          "time": 92.181749,
          "velocity": 0.5039370078740157
        },
        {
          "duration": 0.4352276354166804,
          "durationTicks": 383,
          "midi": 61,
          "name": "C#4",
          "ticks": 151200,
          "time": 92.181749,
          "velocity": 0.5039370078740157
        },
        {
          "duration": 0.5170458854166782,
          "durationTicks": 455,
          "midi": 42,
          "name": "F#2",
          "ticks": 151680,
          "time": 92.727204,
          "velocity": 0.5039370078740157
        },
        {
          "duration": 0.5170458854166782,
          "durationTicks": 455,
          "midi": 54,
          "name": "F#3",
          "ticks": 151680,
          "time": 92.727204,
          "velocity": 0.5039370078740157
        },
        {
          "duration": 0.2579547604166663,
          "durationTicks": 227,
          "midi": 42,
          "name": "F#2",
          "ticks": 152160,
          "time": 93.272659,
          "velocity": 0.5039370078740157
        },
        {
          "duration": 0.653409635416665,
          "durationTicks": 575,
          "midi": 54,
          "name": "F#3",
          "ticks": 152400,
          "time": 93.5453865,
          "velocity": 0.5039370078740157
        },
        {
          "duration": 0.653409635416665,
          "durationTicks": 575,
          "midi": 58,
          "name": "A#3",
          "ticks": 152400,
          "time": 93.5453865,
          "velocity": 0.5039370078740157
        },
        {
          "duration": 0.653409635416665,
          "durationTicks": 575,
          "midi": 61,
          "name": "C#4",
          "ticks": 152400,
          "time": 93.5453865,
          "velocity": 0.5039370078740157
        },
        {
          "duration": 0.4352276354166662,
          "durationTicks": 383,
          "midi": 54,
          "name": "F#3",
          "ticks": 153120,
          "time": 94.363569,
          "velocity": 0.5039370078740157
        },
        {
          "duration": 0.4352276354166662,
          "durationTicks": 383,
          "midi": 58,
          "name": "A#3",
          "ticks": 153120,
          "time": 94.363569,
          "velocity": 0.5039370078740157
        },
        {
          "duration": 0.4352276354166662,
          "durationTicks": 383,
          "midi": 61,
          "name": "C#4",
          "ticks": 153120,
          "time": 94.363569,
          "velocity": 0.5039370078740157
        },
        {
          "duration": 0.517045885416664,
          "durationTicks": 455,
          "midi": 51,
          "name": "D#3",
          "ticks": 153600,
          "time": 94.909024,
          "velocity": 0.5039370078740157
        },
        {
          "duration": 0.517045885416664,
          "durationTicks": 455,
          "midi": 54,
          "name": "F#3",
          "ticks": 153600,
          "time": 94.909024,
          "velocity": 0.5039370078740157
        },
        {
          "duration": 0.517045885416664,
          "durationTicks": 455,
          "midi": 57,
          "name": "A3",
          "ticks": 153600,
          "time": 94.909024,
          "velocity": 0.5039370078740157
        },
        {
          "duration": 0.517045885416664,
          "durationTicks": 455,
          "midi": 60,
          "name": "C4",
          "ticks": 153600,
          "time": 94.909024,
          "velocity": 0.5039370078740157
        },
        {
          "duration": 0.2579547604166663,
          "durationTicks": 227,
          "midi": 42,
          "name": "F#2",
          "ticks": 154080,
          "time": 95.454479,
          "velocity": 0.5039370078740157
        },
        {
          "duration": 0.7761370104166616,
          "durationTicks": 683,
          "midi": 51,
          "name": "D#3",
          "ticks": 154320,
          "time": 95.72720650000001,
          "velocity": 0.5039370078740157
        },
        {
          "duration": 0.7761370104166616,
          "durationTicks": 683,
          "midi": 54,
          "name": "F#3",
          "ticks": 154320,
          "time": 95.72720650000001,
          "velocity": 0.5039370078740157
        },
        {
          "duration": 0.7761370104166616,
          "durationTicks": 683,
          "midi": 57,
          "name": "A3",
          "ticks": 154320,
          "time": 95.72720650000001,
          "velocity": 0.5039370078740157
        },
        {
          "duration": 0.7761370104166616,
          "durationTicks": 683,
          "midi": 60,
          "name": "C4",
          "ticks": 154320,
          "time": 95.72720650000001,
          "velocity": 0.5039370078740157
        },
        {
          "duration": 0.5170458854166782,
          "durationTicks": 455,
          "midi": 51,
          "name": "D#3",
          "ticks": 155040,
          "time": 96.545389,
          "velocity": 0.5039370078740157
        },
        {
          "duration": 0.5170458854166782,
          "durationTicks": 455,
          "midi": 54,
          "name": "F#3",
          "ticks": 155040,
          "time": 96.545389,
          "velocity": 0.5039370078740157
        },
        {
          "duration": 0.5170458854166782,
          "durationTicks": 455,
          "midi": 57,
          "name": "A3",
          "ticks": 155040,
          "time": 96.545389,
          "velocity": 0.5039370078740157
        },
        {
          "duration": 0.5170458854166782,
          "durationTicks": 455,
          "midi": 60,
          "name": "C4",
          "ticks": 155040,
          "time": 96.545389,
          "velocity": 0.5039370078740157
        },
        {
          "duration": 0.2585224687500016,
          "durationTicks": 455,
          "midi": 40,
          "name": "E2",
          "ticks": 155760,
          "time": 97.3635715,
          "velocity": 0.5039370078740157
        },
        {
          "duration": 0.2585224687500016,
          "durationTicks": 455,
          "midi": 52,
          "name": "E3",
          "ticks": 155760,
          "time": 97.3635715,
          "velocity": 0.5039370078740157
        },
        {
          "duration": 0.10852261875000124,
          "durationTicks": 191,
          "midi": 52,
          "name": "E3",
          "ticks": 156240,
          "time": 97.63629850000001,
          "velocity": 0.5039370078740157
        },
        {
          "duration": 0.10852261875000124,
          "durationTicks": 191,
          "midi": 56,
          "name": "G#3",
          "ticks": 156240,
          "time": 97.63629850000001,
          "velocity": 0.5039370078740157
        },
        {
          "duration": 0.10852261875000124,
          "durationTicks": 191,
          "midi": 59,
          "name": "B3",
          "ticks": 156240,
          "time": 97.63629850000001,
          "velocity": 0.5039370078740157
        },
        {
          "duration": 0.2585224687500016,
          "durationTicks": 455,
          "midi": 40,
          "name": "E2",
          "ticks": 156480,
          "time": 97.77266200000001,
          "velocity": 0.5039370078740157
        },
        {
          "duration": 0.12897714375000646,
          "durationTicks": 227,
          "midi": 47,
          "name": "B2",
          "ticks": 156960,
          "time": 98.045389,
          "velocity": 0.5039370078740157
        },
        {
          "duration": 0.2176134187500054,
          "durationTicks": 383,
          "midi": 52,
          "name": "E3",
          "ticks": 157200,
          "time": 98.1817525,
          "velocity": 0.5039370078740157
        },
        {
          "duration": 0.2176134187500054,
          "durationTicks": 383,
          "midi": 56,
          "name": "G#3",
          "ticks": 157200,
          "time": 98.1817525,
          "velocity": 0.5039370078740157
        },
        {
          "duration": 0.2176134187500054,
          "durationTicks": 383,
          "midi": 59,
          "name": "B3",
          "ticks": 157200,
          "time": 98.1817525,
          "velocity": 0.5039370078740157
        },
        {
          "duration": 0.2585224687500016,
          "durationTicks": 455,
          "midi": 42,
          "name": "F#2",
          "ticks": 157680,
          "time": 98.4544795,
          "velocity": 0.5039370078740157
        },
        {
          "duration": 0.2585224687500016,
          "durationTicks": 455,
          "midi": 54,
          "name": "F#3",
          "ticks": 157680,
          "time": 98.4544795,
          "velocity": 0.5039370078740157
        },
        {
          "duration": 0.10852261875000124,
          "durationTicks": 191,
          "midi": 54,
          "name": "F#3",
          "ticks": 158160,
          "time": 98.72720650000001,
          "velocity": 0.5039370078740157
        },
        {
          "duration": 0.10852261875000124,
          "durationTicks": 191,
          "midi": 57,
          "name": "A3",
          "ticks": 158160,
          "time": 98.72720650000001,
          "velocity": 0.5039370078740157
        },
        {
          "duration": 0.10852261875000124,
          "durationTicks": 191,
          "midi": 61,
          "name": "C#4",
          "ticks": 158160,
          "time": 98.72720650000001,
          "velocity": 0.5039370078740157
        },
        {
          "duration": 0.2585224687500016,
          "durationTicks": 455,
          "midi": 42,
          "name": "F#2",
          "ticks": 158400,
          "time": 98.86357000000001,
          "velocity": 0.5039370078740157
        },
        {
          "duration": 0.12897714374999225,
          "durationTicks": 227,
          "midi": 49,
          "name": "C#3",
          "ticks": 158880,
          "time": 99.13629700000001,
          "velocity": 0.5039370078740157
        },
        {
          "duration": 0.2176134187500054,
          "durationTicks": 383,
          "midi": 54,
          "name": "F#3",
          "ticks": 159120,
          "time": 99.2726605,
          "velocity": 0.5039370078740157
        },
        {
          "duration": 0.2176134187500054,
          "durationTicks": 383,
          "midi": 57,
          "name": "A3",
          "ticks": 159120,
          "time": 99.2726605,
          "velocity": 0.5039370078740157
        },
        {
          "duration": 0.2176134187500054,
          "durationTicks": 383,
          "midi": 61,
          "name": "C#4",
          "ticks": 159120,
          "time": 99.2726605,
          "velocity": 0.5039370078740157
        },
        {
          "duration": 0.2585224687500016,
          "durationTicks": 455,
          "midi": 44,
          "name": "G#2",
          "ticks": 159600,
          "time": 99.5453875,
          "velocity": 0.5039370078740157
        },
        {
          "duration": 0.2585224687500016,
          "durationTicks": 455,
          "midi": 56,
          "name": "G#3",
          "ticks": 159600,
          "time": 99.5453875,
          "velocity": 0.5039370078740157
        },
        {
          "duration": 0.10852261875000124,
          "durationTicks": 191,
          "midi": 51,
          "name": "D#3",
          "ticks": 160080,
          "time": 99.81811450000001,
          "velocity": 0.5039370078740157
        },
        {
          "duration": 0.10852261875000124,
          "durationTicks": 191,
          "midi": 56,
          "name": "G#3",
          "ticks": 160080,
          "time": 99.81811450000001,
          "velocity": 0.5039370078740157
        },
        {
          "duration": 0.10852261875000124,
          "durationTicks": 191,
          "midi": 59,
          "name": "B3",
          "ticks": 160080,
          "time": 99.81811450000001,
          "velocity": 0.5039370078740157
        },
        {
          "duration": 0.2585224687500016,
          "durationTicks": 455,
          "midi": 44,
          "name": "G#2",
          "ticks": 160320,
          "time": 99.95447800000001,
          "velocity": 0.5039370078740157
        },
        {
          "duration": 0.12897714374999225,
          "durationTicks": 227,
          "midi": 44,
          "name": "G#2",
          "ticks": 160800,
          "time": 100.22720500000001,
          "velocity": 0.5039370078740157
        },
        {
          "duration": 0.2176134187500054,
          "durationTicks": 383,
          "midi": 51,
          "name": "D#3",
          "ticks": 161040,
          "time": 100.3635685,
          "velocity": 0.5039370078740157
        },
        {
          "duration": 0.2176134187500054,
          "durationTicks": 383,
          "midi": 56,
          "name": "G#3",
          "ticks": 161040,
          "time": 100.3635685,
          "velocity": 0.5039370078740157
        },
        {
          "duration": 0.2176134187500054,
          "durationTicks": 383,
          "midi": 59,
          "name": "B3",
          "ticks": 161040,
          "time": 100.3635685,
          "velocity": 0.5039370078740157
        },
        {
          "duration": 0.2585224687500016,
          "durationTicks": 455,
          "midi": 45,
          "name": "A2",
          "ticks": 161520,
          "time": 100.6362955,
          "velocity": 0.5039370078740157
        },
        {
          "duration": 0.2585224687500016,
          "durationTicks": 455,
          "midi": 57,
          "name": "A3",
          "ticks": 161520,
          "time": 100.6362955,
          "velocity": 0.5039370078740157
        },
        {
          "duration": 0.10852261875000124,
          "durationTicks": 191,
          "midi": 52,
          "name": "E3",
          "ticks": 162000,
          "time": 100.9090225,
          "velocity": 0.5039370078740157
        },
        {
          "duration": 0.10852261875000124,
          "durationTicks": 191,
          "midi": 57,
          "name": "A3",
          "ticks": 162000,
          "time": 100.9090225,
          "velocity": 0.5039370078740157
        },
        {
          "duration": 0.10852261875000124,
          "durationTicks": 191,
          "midi": 61,
          "name": "C#4",
          "ticks": 162000,
          "time": 100.9090225,
          "velocity": 0.5039370078740157
        },
        {
          "duration": 0.2585224687500016,
          "durationTicks": 455,
          "midi": 45,
          "name": "A2",
          "ticks": 162240,
          "time": 101.04538600000001,
          "velocity": 0.5039370078740157
        },
        {
          "duration": 0.12897714374999225,
          "durationTicks": 227,
          "midi": 45,
          "name": "A2",
          "ticks": 162720,
          "time": 101.31811300000001,
          "velocity": 0.5039370078740157
        },
        {
          "duration": 0.21761341874999118,
          "durationTicks": 383,
          "midi": 52,
          "name": "E3",
          "ticks": 162960,
          "time": 101.45447650000001,
          "velocity": 0.5039370078740157
        },
        {
          "duration": 0.21761341874999118,
          "durationTicks": 383,
          "midi": 57,
          "name": "A3",
          "ticks": 162960,
          "time": 101.45447650000001,
          "velocity": 0.5039370078740157
        },
        {
          "duration": 0.21761341874999118,
          "durationTicks": 383,
          "midi": 61,
          "name": "C#4",
          "ticks": 162960,
          "time": 101.45447650000001,
          "velocity": 0.5039370078740157
        },
        {
          "duration": 0.2585224687500016,
          "durationTicks": 455,
          "midi": 36,
          "name": "C2",
          "ticks": 163440,
          "time": 101.7272035,
          "velocity": 0.5039370078740157
        },
        {
          "duration": 0.2585224687500016,
          "durationTicks": 455,
          "midi": 48,
          "name": "C3",
          "ticks": 163440,
          "time": 101.7272035,
          "velocity": 0.5039370078740157
        },
        {
          "duration": 0.10852261875000124,
          "durationTicks": 191,
          "midi": 54,
          "name": "F#3",
          "ticks": 163920,
          "time": 101.9999305,
          "velocity": 0.5039370078740157
        },
        {
          "duration": 0.10852261875000124,
          "durationTicks": 191,
          "midi": 60,
          "name": "C4",
          "ticks": 163920,
          "time": 101.9999305,
          "velocity": 0.5039370078740157
        },
        {
          "duration": 0.10852261875000124,
          "durationTicks": 191,
          "midi": 63,
          "name": "D#4",
          "ticks": 163920,
          "time": 101.9999305,
          "velocity": 0.5039370078740157
        },
        {
          "duration": 0.2585224687500016,
          "durationTicks": 455,
          "midi": 48,
          "name": "C3",
          "ticks": 164160,
          "time": 102.136294,
          "velocity": 0.5039370078740157
        },
        {
          "duration": 0.12897714374999225,
          "durationTicks": 227,
          "midi": 48,
          "name": "C3",
          "ticks": 164640,
          "time": 102.40902100000001,
          "velocity": 0.5039370078740157
        },
        {
          "duration": 0.21761341874999118,
          "durationTicks": 383,
          "midi": 54,
          "name": "F#3",
          "ticks": 164880,
          "time": 102.54538450000001,
          "velocity": 0.5039370078740157
        },
        {
          "duration": 0.21761341874999118,
          "durationTicks": 383,
          "midi": 60,
          "name": "C4",
          "ticks": 164880,
          "time": 102.54538450000001,
          "velocity": 0.5039370078740157
        },
        {
          "duration": 0.21761341874999118,
          "durationTicks": 383,
          "midi": 63,
          "name": "D#4",
          "ticks": 164880,
          "time": 102.54538450000001,
          "velocity": 0.5039370078740157
        },
        {
          "duration": 0.2585224687500016,
          "durationTicks": 455,
          "midi": 37,
          "name": "C#2",
          "ticks": 165360,
          "time": 102.8181115,
          "velocity": 0.5039370078740157
        },
        {
          "duration": 0.2585224687500016,
          "durationTicks": 455,
          "midi": 49,
          "name": "C#3",
          "ticks": 165360,
          "time": 102.8181115,
          "velocity": 0.5039370078740157
        },
        {
          "duration": 0.10852261875000124,
          "durationTicks": 191,
          "midi": 52,
          "name": "E3",
          "ticks": 165840,
          "time": 103.0908385,
          "velocity": 0.5039370078740157
        },
        {
          "duration": 0.10852261875000124,
          "durationTicks": 191,
          "midi": 56,
          "name": "G#3",
          "ticks": 165840,
          "time": 103.0908385,
          "velocity": 0.5039370078740157
        },
        {
          "duration": 0.10852261875000124,
          "durationTicks": 191,
          "midi": 61,
          "name": "C#4",
          "ticks": 165840,
          "time": 103.0908385,
          "velocity": 0.5039370078740157
        },
        {
          "duration": 0.2585224687500016,
          "durationTicks": 455,
          "midi": 37,
          "name": "C#2",
          "ticks": 166080,
          "time": 103.227202,
          "velocity": 0.5039370078740157
        },
        {
          "duration": 0.12897714374999225,
          "durationTicks": 227,
          "midi": 49,
          "name": "C#3",
          "ticks": 166560,
          "time": 103.49992900000001,
          "velocity": 0.5039370078740157
        },
        {
          "duration": 0.21761341874999118,
          "durationTicks": 383,
          "midi": 52,
          "name": "E3",
          "ticks": 166800,
          "time": 103.63629250000001,
          "velocity": 0.5039370078740157
        },
        {
          "duration": 0.21761341874999118,
          "durationTicks": 383,
          "midi": 56,
          "name": "G#3",
          "ticks": 166800,
          "time": 103.63629250000001,
          "velocity": 0.5039370078740157
        },
        {
          "duration": 0.21761341874999118,
          "durationTicks": 383,
          "midi": 61,
          "name": "C#4",
          "ticks": 166800,
          "time": 103.63629250000001,
          "velocity": 0.5039370078740157
        },
        {
          "duration": 0.2585224687500016,
          "durationTicks": 455,
          "midi": 42,
          "name": "F#2",
          "ticks": 167280,
          "time": 103.9090195,
          "velocity": 0.5039370078740157
        },
        {
          "duration": 0.2585224687500016,
          "durationTicks": 455,
          "midi": 54,
          "name": "F#3",
          "ticks": 167280,
          "time": 103.9090195,
          "velocity": 0.5039370078740157
        },
        {
          "duration": 0.10852261875000124,
          "durationTicks": 191,
          "midi": 54,
          "name": "F#3",
          "ticks": 167760,
          "time": 104.1817465,
          "velocity": 0.5039370078740157
        },
        {
          "duration": 0.10852261875000124,
          "durationTicks": 191,
          "midi": 57,
          "name": "A3",
          "ticks": 167760,
          "time": 104.1817465,
          "velocity": 0.5039370078740157
        },
        {
          "duration": 0.10852261875000124,
          "durationTicks": 191,
          "midi": 61,
          "name": "C#4",
          "ticks": 167760,
          "time": 104.1817465,
          "velocity": 0.5039370078740157
        },
        {
          "duration": 0.2585224687500016,
          "durationTicks": 455,
          "midi": 42,
          "name": "F#2",
          "ticks": 168000,
          "time": 104.31811,
          "velocity": 0.5039370078740157
        },
        {
          "duration": 0.12897714374999225,
          "durationTicks": 227,
          "midi": 49,
          "name": "C#3",
          "ticks": 168480,
          "time": 104.59083700000001,
          "velocity": 0.5039370078740157
        },
        {
          "duration": 0.21761341874999118,
          "durationTicks": 383,
          "midi": 54,
          "name": "F#3",
          "ticks": 168720,
          "time": 104.72720050000001,
          "velocity": 0.5039370078740157
        },
        {
          "duration": 0.21761341874999118,
          "durationTicks": 383,
          "midi": 57,
          "name": "A3",
          "ticks": 168720,
          "time": 104.72720050000001,
          "velocity": 0.5039370078740157
        },
        {
          "duration": 0.21761341874999118,
          "durationTicks": 383,
          "midi": 61,
          "name": "C#4",
          "ticks": 168720,
          "time": 104.72720050000001,
          "velocity": 0.5039370078740157
        },
        {
          "duration": 0.2585224687499874,
          "durationTicks": 455,
          "midi": 48,
          "name": "C3",
          "ticks": 169200,
          "time": 104.99992750000001,
          "velocity": 0.5039370078740157
        },
        {
          "duration": 0.2585224687499874,
          "durationTicks": 455,
          "midi": 52,
          "name": "E3",
          "ticks": 169200,
          "time": 104.99992750000001,
          "velocity": 0.5039370078740157
        },
        {
          "duration": 0.2585224687499874,
          "durationTicks": 455,
          "midi": 53,
          "name": "F3",
          "ticks": 169200,
          "time": 104.99992750000001,
          "velocity": 0.5039370078740157
        },
        {
          "duration": 0.2585224687499874,
          "durationTicks": 455,
          "midi": 57,
          "name": "A3",
          "ticks": 169200,
          "time": 104.99992750000001,
          "velocity": 0.5039370078740157
        },
        {
          "duration": 0.12897714375000646,
          "durationTicks": 227,
          "midi": 41,
          "name": "F2",
          "ticks": 169920,
          "time": 105.409018,
          "velocity": 0.5039370078740157
        },
        {
          "duration": 0.2176134187500054,
          "durationTicks": 383,
          "midi": 48,
          "name": "C3",
          "ticks": 170160,
          "time": 105.5453815,
          "velocity": 0.5039370078740157
        },
        {
          "duration": 0.2176134187500054,
          "durationTicks": 383,
          "midi": 52,
          "name": "E3",
          "ticks": 170160,
          "time": 105.5453815,
          "velocity": 0.5039370078740157
        },
        {
          "duration": 0.2176134187500054,
          "durationTicks": 383,
          "midi": 53,
          "name": "F3",
          "ticks": 170160,
          "time": 105.5453815,
          "velocity": 0.5039370078740157
        },
        {
          "duration": 0.2176134187500054,
          "durationTicks": 383,
          "midi": 57,
          "name": "A3",
          "ticks": 170160,
          "time": 105.5453815,
          "velocity": 0.5039370078740157
        },
        {
          "duration": 0.2585224687500016,
          "durationTicks": 455,
          "midi": 48,
          "name": "C3",
          "ticks": 170640,
          "time": 105.81810850000001,
          "velocity": 0.5039370078740157
        },
        {
          "duration": 0.2585224687500016,
          "durationTicks": 455,
          "midi": 52,
          "name": "E3",
          "ticks": 170640,
          "time": 105.81810850000001,
          "velocity": 0.5039370078740157
        },
        {
          "duration": 0.2585224687500016,
          "durationTicks": 455,
          "midi": 53,
          "name": "F3",
          "ticks": 170640,
          "time": 105.81810850000001,
          "velocity": 0.5039370078740157
        },
        {
          "duration": 0.2585224687500016,
          "durationTicks": 455,
          "midi": 57,
          "name": "A3",
          "ticks": 170640,
          "time": 105.81810850000001,
          "velocity": 0.5039370078740157
        },
        {
          "duration": 0.2585224687500016,
          "durationTicks": 455,
          "midi": 40,
          "name": "E2",
          "ticks": 171120,
          "time": 106.09083550000001,
          "velocity": 0.5039370078740157
        },
        {
          "duration": 0.2585224687500016,
          "durationTicks": 455,
          "midi": 52,
          "name": "E3",
          "ticks": 171120,
          "time": 106.09083550000001,
          "velocity": 0.5039370078740157
        },
        {
          "duration": 0.10852261875000124,
          "durationTicks": 191,
          "midi": 52,
          "name": "E3",
          "ticks": 171600,
          "time": 106.3635625,
          "velocity": 0.5039370078740157
        },
        {
          "duration": 0.10852261875000124,
          "durationTicks": 191,
          "midi": 56,
          "name": "G#3",
          "ticks": 171600,
          "time": 106.3635625,
          "velocity": 0.5039370078740157
        },
        {
          "duration": 0.10852261875000124,
          "durationTicks": 191,
          "midi": 59,
          "name": "B3",
          "ticks": 171600,
          "time": 106.3635625,
          "velocity": 0.5039370078740157
        },
        {
          "duration": 0.2585224687500016,
          "durationTicks": 455,
          "midi": 40,
          "name": "E2",
          "ticks": 171840,
          "time": 106.499926,
          "velocity": 0.5039370078740157
        },
        {
          "duration": 0.12897714375000646,
          "durationTicks": 227,
          "midi": 47,
          "name": "B2",
          "ticks": 172320,
          "time": 106.772653,
          "velocity": 0.5039370078740157
        },
        {
          "duration": 0.2176134187500054,
          "durationTicks": 383,
          "midi": 52,
          "name": "E3",
          "ticks": 172560,
          "time": 106.9090165,
          "velocity": 0.5039370078740157
        },
        {
          "duration": 0.2176134187500054,
          "durationTicks": 383,
          "midi": 56,
          "name": "G#3",
          "ticks": 172560,
          "time": 106.9090165,
          "velocity": 0.5039370078740157
        },
        {
          "duration": 0.2176134187500054,
          "durationTicks": 383,
          "midi": 59,
          "name": "B3",
          "ticks": 172560,
          "time": 106.9090165,
          "velocity": 0.5039370078740157
        },
        {
          "duration": 0.2585224687499874,
          "durationTicks": 455,
          "midi": 42,
          "name": "F#2",
          "ticks": 173040,
          "time": 107.18174350000001,
          "velocity": 0.5039370078740157
        },
        {
          "duration": 0.2585224687499874,
          "durationTicks": 455,
          "midi": 54,
          "name": "F#3",
          "ticks": 173040,
          "time": 107.18174350000001,
          "velocity": 0.5039370078740157
        },
        {
          "duration": 0.10852261874998703,
          "durationTicks": 191,
          "midi": 54,
          "name": "F#3",
          "ticks": 173520,
          "time": 107.45447050000001,
          "velocity": 0.5039370078740157
        },
        {
          "duration": 0.10852261874998703,
          "durationTicks": 191,
          "midi": 57,
          "name": "A3",
          "ticks": 173520,
          "time": 107.45447050000001,
          "velocity": 0.5039370078740157
        },
        {
          "duration": 0.10852261874998703,
          "durationTicks": 191,
          "midi": 61,
          "name": "C#4",
          "ticks": 173520,
          "time": 107.45447050000001,
          "velocity": 0.5039370078740157
        },
        {
          "duration": 0.2585224687500016,
          "durationTicks": 455,
          "midi": 42,
          "name": "F#2",
          "ticks": 173760,
          "time": 107.590834,
          "velocity": 0.5039370078740157
        },
        {
          "duration": 0.12897714375000646,
          "durationTicks": 227,
          "midi": 49,
          "name": "C#3",
          "ticks": 174240,
          "time": 107.863561,
          "velocity": 0.5039370078740157
        },
        {
          "duration": 0.2176134187500054,
          "durationTicks": 383,
          "midi": 54,
          "name": "F#3",
          "ticks": 174480,
          "time": 107.9999245,
          "velocity": 0.5039370078740157
        },
        {
          "duration": 0.2176134187500054,
          "durationTicks": 383,
          "midi": 57,
          "name": "A3",
          "ticks": 174480,
          "time": 107.9999245,
          "velocity": 0.5039370078740157
        },
        {
          "duration": 0.2176134187500054,
          "durationTicks": 383,
          "midi": 61,
          "name": "C#4",
          "ticks": 174480,
          "time": 107.9999245,
          "velocity": 0.5039370078740157
        },
        {
          "duration": 0.2585224687500016,
          "durationTicks": 455,
          "midi": 44,
          "name": "G#2",
          "ticks": 174960,
          "time": 108.27265150000001,
          "velocity": 0.5039370078740157
        },
        {
          "duration": 0.2585224687500016,
          "durationTicks": 455,
          "midi": 56,
          "name": "G#3",
          "ticks": 174960,
          "time": 108.27265150000001,
          "velocity": 0.5039370078740157
        },
        {
          "duration": 0.10852261875001545,
          "durationTicks": 191,
          "midi": 51,
          "name": "D#3",
          "ticks": 175440,
          "time": 108.5453785,
          "velocity": 0.5039370078740157
        },
        {
          "duration": 0.10852261875001545,
          "durationTicks": 191,
          "midi": 56,
          "name": "G#3",
          "ticks": 175440,
          "time": 108.5453785,
          "velocity": 0.5039370078740157
        },
        {
          "duration": 0.10852261875001545,
          "durationTicks": 191,
          "midi": 59,
          "name": "B3",
          "ticks": 175440,
          "time": 108.5453785,
          "velocity": 0.5039370078740157
        },
        {
          "duration": 0.2585224687500016,
          "durationTicks": 455,
          "midi": 44,
          "name": "G#2",
          "ticks": 175680,
          "time": 108.681742,
          "velocity": 0.5039370078740157
        },
        {
          "duration": 0.12897714375000646,
          "durationTicks": 227,
          "midi": 44,
          "name": "G#2",
          "ticks": 176160,
          "time": 108.954469,
          "velocity": 0.5039370078740157
        },
        {
          "duration": 0.2176134187500054,
          "durationTicks": 383,
          "midi": 51,
          "name": "D#3",
          "ticks": 176400,
          "time": 109.0908325,
          "velocity": 0.5039370078740157
        },
        {
          "duration": 0.2176134187500054,
          "durationTicks": 383,
          "midi": 56,
          "name": "G#3",
          "ticks": 176400,
          "time": 109.0908325,
          "velocity": 0.5039370078740157
        },
        {
          "duration": 0.2176134187500054,
          "durationTicks": 383,
          "midi": 59,
          "name": "B3",
          "ticks": 176400,
          "time": 109.0908325,
          "velocity": 0.5039370078740157
        },
        {
          "duration": 0.2585224687500016,
          "durationTicks": 455,
          "midi": 45,
          "name": "A2",
          "ticks": 176880,
          "time": 109.36355950000001,
          "velocity": 0.5039370078740157
        },
        {
          "duration": 0.2585224687500016,
          "durationTicks": 455,
          "midi": 57,
          "name": "A3",
          "ticks": 176880,
          "time": 109.36355950000001,
          "velocity": 0.5039370078740157
        },
        {
          "duration": 0.10852261874998703,
          "durationTicks": 191,
          "midi": 52,
          "name": "E3",
          "ticks": 177360,
          "time": 109.63628650000001,
          "velocity": 0.5039370078740157
        },
        {
          "duration": 0.10852261874998703,
          "durationTicks": 191,
          "midi": 57,
          "name": "A3",
          "ticks": 177360,
          "time": 109.63628650000001,
          "velocity": 0.5039370078740157
        },
        {
          "duration": 0.10852261874998703,
          "durationTicks": 191,
          "midi": 61,
          "name": "C#4",
          "ticks": 177360,
          "time": 109.63628650000001,
          "velocity": 0.5039370078740157
        },
        {
          "duration": 0.2585224687500016,
          "durationTicks": 455,
          "midi": 45,
          "name": "A2",
          "ticks": 177600,
          "time": 109.77265,
          "velocity": 0.5039370078740157
        },
        {
          "duration": 0.12897714375000646,
          "durationTicks": 227,
          "midi": 45,
          "name": "A2",
          "ticks": 178080,
          "time": 110.045377,
          "velocity": 0.5039370078740157
        },
        {
          "duration": 0.2176134187500054,
          "durationTicks": 383,
          "midi": 52,
          "name": "E3",
          "ticks": 178320,
          "time": 110.1817405,
          "velocity": 0.5039370078740157
        },
        {
          "duration": 0.2176134187500054,
          "durationTicks": 383,
          "midi": 57,
          "name": "A3",
          "ticks": 178320,
          "time": 110.1817405,
          "velocity": 0.5039370078740157
        },
        {
          "duration": 0.2176134187500054,
          "durationTicks": 383,
          "midi": 61,
          "name": "C#4",
          "ticks": 178320,
          "time": 110.1817405,
          "velocity": 0.5039370078740157
        },
        {
          "duration": 0.2585224687500016,
          "durationTicks": 455,
          "midi": 36,
          "name": "C2",
          "ticks": 178800,
          "time": 110.4544675,
          "velocity": 0.5039370078740157
        },
        {
          "duration": 0.2585224687500016,
          "durationTicks": 455,
          "midi": 48,
          "name": "C3",
          "ticks": 178800,
          "time": 110.4544675,
          "velocity": 0.5039370078740157
        },
        {
          "duration": 0.10852261875000124,
          "durationTicks": 191,
          "midi": 54,
          "name": "F#3",
          "ticks": 179280,
          "time": 110.72719450000001,
          "velocity": 0.5039370078740157
        },
        {
          "duration": 0.10852261875000124,
          "durationTicks": 191,
          "midi": 60,
          "name": "C4",
          "ticks": 179280,
          "time": 110.72719450000001,
          "velocity": 0.5039370078740157
        },
        {
          "duration": 0.10852261875000124,
          "durationTicks": 191,
          "midi": 63,
          "name": "D#4",
          "ticks": 179280,
          "time": 110.72719450000001,
          "velocity": 0.5039370078740157
        },
        {
          "duration": 0.2585224687499874,
          "durationTicks": 455,
          "midi": 48,
          "name": "C3",
          "ticks": 179520,
          "time": 110.86355800000001,
          "velocity": 0.5039370078740157
        },
        {
          "duration": 0.12897714375000646,
          "durationTicks": 227,
          "midi": 48,
          "name": "C3",
          "ticks": 180000,
          "time": 111.136285,
          "velocity": 0.5039370078740157
        },
        {
          "duration": 0.2176134187500054,
          "durationTicks": 383,
          "midi": 54,
          "name": "F#3",
          "ticks": 180240,
          "time": 111.2726485,
          "velocity": 0.5039370078740157
        },
        {
          "duration": 0.2176134187500054,
          "durationTicks": 383,
          "midi": 60,
          "name": "C4",
          "ticks": 180240,
          "time": 111.2726485,
          "velocity": 0.5039370078740157
        },
        {
          "duration": 0.2176134187500054,
          "durationTicks": 383,
          "midi": 63,
          "name": "D#4",
          "ticks": 180240,
          "time": 111.2726485,
          "velocity": 0.5039370078740157
        },
        {
          "duration": 0.2585224687500016,
          "durationTicks": 455,
          "midi": 37,
          "name": "C#2",
          "ticks": 180720,
          "time": 111.5453755,
          "velocity": 0.5039370078740157
        },
        {
          "duration": 0.2585224687500016,
          "durationTicks": 455,
          "midi": 49,
          "name": "C#3",
          "ticks": 180720,
          "time": 111.5453755,
          "velocity": 0.5039370078740157
        },
        {
          "duration": 0.10852261875000124,
          "durationTicks": 191,
          "midi": 52,
          "name": "E3",
          "ticks": 181200,
          "time": 111.81810250000001,
          "velocity": 0.5039370078740157
        },
        {
          "duration": 0.10852261875000124,
          "durationTicks": 191,
          "midi": 56,
          "name": "G#3",
          "ticks": 181200,
          "time": 111.81810250000001,
          "velocity": 0.5039370078740157
        },
        {
          "duration": 0.10852261875000124,
          "durationTicks": 191,
          "midi": 61,
          "name": "C#4",
          "ticks": 181200,
          "time": 111.81810250000001,
          "velocity": 0.5039370078740157
        },
        {
          "duration": 0.2585224687500016,
          "durationTicks": 455,
          "midi": 37,
          "name": "C#2",
          "ticks": 181440,
          "time": 111.95446600000001,
          "velocity": 0.5039370078740157
        },
        {
          "duration": 0.12897714375000646,
          "durationTicks": 227,
          "midi": 49,
          "name": "C#3",
          "ticks": 181920,
          "time": 112.227193,
          "velocity": 0.5039370078740157
        },
        {
          "duration": 0.2176134187500054,
          "durationTicks": 383,
          "midi": 52,
          "name": "E3",
          "ticks": 182160,
          "time": 112.3635565,
          "velocity": 0.5039370078740157
        },
        {
          "duration": 0.2176134187500054,
          "durationTicks": 383,
          "midi": 56,
          "name": "G#3",
          "ticks": 182160,
          "time": 112.3635565,
          "velocity": 0.5039370078740157
        },
        {
          "duration": 0.2176134187500054,
          "durationTicks": 383,
          "midi": 61,
          "name": "C#4",
          "ticks": 182160,
          "time": 112.3635565,
          "velocity": 0.5039370078740157
        },
        {
          "duration": 0.2585224687500016,
          "durationTicks": 455,
          "midi": 42,
          "name": "F#2",
          "ticks": 182640,
          "time": 112.6362835,
          "velocity": 0.5039370078740157
        },
        {
          "duration": 0.2585224687500016,
          "durationTicks": 455,
          "midi": 54,
          "name": "F#3",
          "ticks": 182640,
          "time": 112.6362835,
          "velocity": 0.5039370078740157
        },
        {
          "duration": 0.10852261875000124,
          "durationTicks": 191,
          "midi": 54,
          "name": "F#3",
          "ticks": 183120,
          "time": 112.90901050000001,
          "velocity": 0.5039370078740157
        },
        {
          "duration": 0.10852261875000124,
          "durationTicks": 191,
          "midi": 57,
          "name": "A3",
          "ticks": 183120,
          "time": 112.90901050000001,
          "velocity": 0.5039370078740157
        },
        {
          "duration": 0.10852261875000124,
          "durationTicks": 191,
          "midi": 61,
          "name": "C#4",
          "ticks": 183120,
          "time": 112.90901050000001,
          "velocity": 0.5039370078740157
        },
        {
          "duration": 0.2585224687500016,
          "durationTicks": 455,
          "midi": 42,
          "name": "F#2",
          "ticks": 183360,
          "time": 113.04537400000001,
          "velocity": 0.5039370078740157
        },
        {
          "duration": 0.12897714374999225,
          "durationTicks": 227,
          "midi": 49,
          "name": "C#3",
          "ticks": 183840,
          "time": 113.31810100000001,
          "velocity": 0.5039370078740157
        },
        {
          "duration": 0.2176134187500054,
          "durationTicks": 383,
          "midi": 54,
          "name": "F#3",
          "ticks": 184080,
          "time": 113.4544645,
          "velocity": 0.5039370078740157
        },
        {
          "duration": 0.2176134187500054,
          "durationTicks": 383,
          "midi": 57,
          "name": "A3",
          "ticks": 184080,
          "time": 113.4544645,
          "velocity": 0.5039370078740157
        },
        {
          "duration": 0.2176134187500054,
          "durationTicks": 383,
          "midi": 61,
          "name": "C#4",
          "ticks": 184080,
          "time": 113.4544645,
          "velocity": 0.5039370078740157
        },
        {
          "duration": 0.2176134187500054,
          "durationTicks": 383,
          "midi": 52,
          "name": "E3",
          "ticks": 184560,
          "time": 113.7271915,
          "velocity": 0.5039370078740157
        },
        {
          "duration": 0.2176134187500054,
          "durationTicks": 383,
          "midi": 54,
          "name": "F#3",
          "ticks": 184560,
          "time": 113.7271915,
          "velocity": 0.5039370078740157
        },
        {
          "duration": 0.2176134187500054,
          "durationTicks": 383,
          "midi": 59,
          "name": "B3",
          "ticks": 184560,
          "time": 113.7271915,
          "velocity": 0.5039370078740157
        },
        {
          "duration": 0.2176134187500054,
          "durationTicks": 383,
          "midi": 35,
          "name": "B1",
          "ticks": 185040,
          "time": 113.9999185,
          "velocity": 0.5039370078740157
        },
        {
          "duration": 0.2176134187500054,
          "durationTicks": 383,
          "midi": 47,
          "name": "B2",
          "ticks": 185040,
          "time": 113.9999185,
          "velocity": 0.5039370078740157
        },
        {
          "duration": 0.21761341874999118,
          "durationTicks": 383,
          "midi": 35,
          "name": "B1",
          "ticks": 185520,
          "time": 114.27264550000001,
          "velocity": 0.5039370078740157
        },
        {
          "duration": 0.21761341874999118,
          "durationTicks": 383,
          "midi": 47,
          "name": "B2",
          "ticks": 185520,
          "time": 114.27264550000001,
          "velocity": 0.5039370078740157
        },
        {
          "duration": 0.21761341874999118,
          "durationTicks": 383,
          "midi": 35,
          "name": "B1",
          "ticks": 186000,
          "time": 114.54537250000001,
          "velocity": 0.5039370078740157
        },
        {
          "duration": 0.21761341874999118,
          "durationTicks": 383,
          "midi": 47,
          "name": "B2",
          "ticks": 186000,
          "time": 114.54537250000001,
          "velocity": 0.5039370078740157
        },
        {
          "duration": 0.13579531874999873,
          "durationTicks": 239,
          "midi": 62,
          "name": "D4",
          "ticks": 186480,
          "time": 114.8180995,
          "velocity": 0.5039370078740157
        },
        {
          "duration": 0.13579531874999873,
          "durationTicks": 239,
          "midi": 62,
          "name": "D4",
          "ticks": 186960,
          "time": 115.0908265,
          "velocity": 0.5039370078740157
        },
        {
          "duration": 0.13579531874999873,
          "durationTicks": 239,
          "midi": 62,
          "name": "D4",
          "ticks": 187440,
          "time": 115.36355350000001,
          "velocity": 0.5039370078740157
        },
        {
          "duration": 0.13579531875001294,
          "durationTicks": 239,
          "midi": 62,
          "name": "D4",
          "ticks": 187920,
          "time": 115.6362805,
          "velocity": 0.5039370078740157
        },
        {
          "duration": 0.12897714375000646,
          "durationTicks": 227,
          "midi": 59,
          "name": "B3",
          "ticks": 188400,
          "time": 115.9090075,
          "velocity": 0.5039370078740157
        },
        {
          "duration": 0.12897714375000646,
          "durationTicks": 227,
          "midi": 62,
          "name": "D4",
          "ticks": 188640,
          "time": 116.045371,
          "velocity": 0.5039370078740157
        },
        {
          "duration": 0.12897714375000646,
          "durationTicks": 227,
          "midi": 64,
          "name": "E4",
          "ticks": 188880,
          "time": 116.1817345,
          "velocity": 0.5039370078740157
        },
        {
          "duration": 0.12897714374999225,
          "durationTicks": 227,
          "midi": 66,
          "name": "F#4",
          "ticks": 189120,
          "time": 116.318098,
          "velocity": 0.5039370078740157
        },
        {
          "duration": 0.5176131187499919,
          "durationTicks": 911,
          "midi": 40,
          "name": "E2",
          "ticks": 190320,
          "time": 116.99991550000001,
          "velocity": 0.7559055118110236
        },
        {
          "duration": 0.5176131187499919,
          "durationTicks": 911,
          "midi": 52,
          "name": "E3",
          "ticks": 190320,
          "time": 116.99991550000001,
          "velocity": 0.7559055118110236
        },
        {
          "duration": 0.5176131187499919,
          "durationTicks": 911,
          "midi": 52,
          "name": "E3",
          "ticks": 191280,
          "time": 117.5453695,
          "velocity": 0.7559055118110236
        },
        {
          "duration": 0.5176131187499919,
          "durationTicks": 911,
          "midi": 56,
          "name": "G#3",
          "ticks": 191280,
          "time": 117.5453695,
          "velocity": 0.7559055118110236
        },
        {
          "duration": 0.5176131187499919,
          "durationTicks": 911,
          "midi": 59,
          "name": "B3",
          "ticks": 191280,
          "time": 117.5453695,
          "velocity": 0.7559055118110236
        },
        {
          "duration": 0.13579531875001294,
          "durationTicks": 239,
          "midi": 39,
          "name": "D#2",
          "ticks": 192240,
          "time": 118.0908235,
          "velocity": 0.7559055118110236
        },
        {
          "duration": 0.13579531875001294,
          "durationTicks": 239,
          "midi": 51,
          "name": "D#3",
          "ticks": 192240,
          "time": 118.0908235,
          "velocity": 0.7559055118110236
        },
        {
          "duration": 0.2176134187500054,
          "durationTicks": 383,
          "midi": 51,
          "name": "D#3",
          "ticks": 192720,
          "time": 118.3635505,
          "velocity": 0.7559055118110236
        },
        {
          "duration": 0.2176134187500054,
          "durationTicks": 383,
          "midi": 54,
          "name": "F#3",
          "ticks": 192720,
          "time": 118.3635505,
          "velocity": 0.7559055118110236
        },
        {
          "duration": 0.2176134187500054,
          "durationTicks": 383,
          "midi": 61,
          "name": "C#4",
          "ticks": 192720,
          "time": 118.3635505,
          "velocity": 0.7559055118110236
        },
        {
          "duration": 0.2585224687500016,
          "durationTicks": 455,
          "midi": 44,
          "name": "G#2",
          "ticks": 193200,
          "time": 118.6362775,
          "velocity": 0.7559055118110236
        },
        {
          "duration": 0.2585224687500016,
          "durationTicks": 455,
          "midi": 56,
          "name": "G#3",
          "ticks": 193200,
          "time": 118.6362775,
          "velocity": 0.7559055118110236
        },
        {
          "duration": 0.2585224687500016,
          "durationTicks": 455,
          "midi": 37,
          "name": "C#2",
          "ticks": 193680,
          "time": 118.90900450000001,
          "velocity": 0.7559055118110236
        },
        {
          "duration": 0.2585224687500016,
          "durationTicks": 455,
          "midi": 49,
          "name": "C#3",
          "ticks": 193680,
          "time": 118.90900450000001,
          "velocity": 0.7559055118110236
        },
        {
          "duration": 0.10852261874998703,
          "durationTicks": 191,
          "midi": 52,
          "name": "E3",
          "ticks": 194160,
          "time": 119.18173150000001,
          "velocity": 0.7559055118110236
        },
        {
          "duration": 0.10852261874998703,
          "durationTicks": 191,
          "midi": 56,
          "name": "G#3",
          "ticks": 194160,
          "time": 119.18173150000001,
          "velocity": 0.7559055118110236
        },
        {
          "duration": 0.10852261874998703,
          "durationTicks": 191,
          "midi": 61,
          "name": "C#4",
          "ticks": 194160,
          "time": 119.18173150000001,
          "velocity": 0.7559055118110236
        },
        {
          "duration": 0.25852246875001583,
          "durationTicks": 455,
          "midi": 49,
          "name": "C#3",
          "ticks": 194400,
          "time": 119.318095,
          "velocity": 0.7559055118110236
        },
        {
          "duration": 0.12897714375000646,
          "durationTicks": 227,
          "midi": 49,
          "name": "C#3",
          "ticks": 194880,
          "time": 119.590822,
          "velocity": 0.7559055118110236
        },
        {
          "duration": 0.2176134187500054,
          "durationTicks": 383,
          "midi": 52,
          "name": "E3",
          "ticks": 195120,
          "time": 119.7271855,
          "velocity": 0.7559055118110236
        },
        {
          "duration": 0.2176134187500054,
          "durationTicks": 383,
          "midi": 56,
          "name": "G#3",
          "ticks": 195120,
          "time": 119.7271855,
          "velocity": 0.7559055118110236
        },
        {
          "duration": 0.2176134187500054,
          "durationTicks": 383,
          "midi": 61,
          "name": "C#4",
          "ticks": 195120,
          "time": 119.7271855,
          "velocity": 0.7559055118110236
        },
        {
          "duration": 0.2585224687500016,
          "durationTicks": 455,
          "midi": 36,
          "name": "C2",
          "ticks": 195600,
          "time": 119.99991250000001,
          "velocity": 0.7559055118110236
        },
        {
          "duration": 0.2585224687500016,
          "durationTicks": 455,
          "midi": 48,
          "name": "C3",
          "ticks": 195600,
          "time": 119.99991250000001,
          "velocity": 0.7559055118110236
        },
        {
          "duration": 0.21761341874999118,
          "durationTicks": 383,
          "midi": 52,
          "name": "E3",
          "ticks": 196080,
          "time": 120.27263950000001,
          "velocity": 0.7559055118110236
        },
        {
          "duration": 0.21761341874999118,
          "durationTicks": 383,
          "midi": 57,
          "name": "A3",
          "ticks": 196080,
          "time": 120.27263950000001,
          "velocity": 0.7559055118110236
        },
        {
          "duration": 0.21761341874999118,
          "durationTicks": 383,
          "midi": 60,
          "name": "C4",
          "ticks": 196080,
          "time": 120.27263950000001,
          "velocity": 0.7559055118110236
        },
        {
          "duration": 0.25852246875001583,
          "durationTicks": 455,
          "midi": 35,
          "name": "B1",
          "ticks": 196560,
          "time": 120.5453665,
          "velocity": 0.7559055118110236
        },
        {
          "duration": 0.25852246875001583,
          "durationTicks": 455,
          "midi": 47,
          "name": "B2",
          "ticks": 196560,
          "time": 120.5453665,
          "velocity": 0.7559055118110236
        },
        {
          "duration": 0.2585224687500016,
          "durationTicks": 455,
          "midi": 33,
          "name": "A1",
          "ticks": 197040,
          "time": 120.8180935,
          "velocity": 0.7559055118110236
        },
        {
          "duration": 0.2585224687500016,
          "durationTicks": 455,
          "midi": 45,
          "name": "A2",
          "ticks": 197040,
          "time": 120.8180935,
          "velocity": 0.7559055118110236
        },
        {
          "duration": 0.2585224687500016,
          "durationTicks": 455,
          "midi": 32,
          "name": "G#1",
          "ticks": 197520,
          "time": 121.0908205,
          "velocity": 0.7559055118110236
        },
        {
          "duration": 0.2585224687500016,
          "durationTicks": 455,
          "midi": 44,
          "name": "G#2",
          "ticks": 197520,
          "time": 121.0908205,
          "velocity": 0.7559055118110236
        },
        {
          "duration": 0.10852261874998703,
          "durationTicks": 191,
          "midi": 51,
          "name": "D#3",
          "ticks": 198000,
          "time": 121.36354750000001,
          "velocity": 0.7559055118110236
        },
        {
          "duration": 0.10852261874998703,
          "durationTicks": 191,
          "midi": 56,
          "name": "G#3",
          "ticks": 198000,
          "time": 121.36354750000001,
          "velocity": 0.7559055118110236
        },
        {
          "duration": 0.10852261874998703,
          "durationTicks": 191,
          "midi": 59,
          "name": "B3",
          "ticks": 198000,
          "time": 121.36354750000001,
          "velocity": 0.7559055118110236
        },
        {
          "duration": 0.25852246875001583,
          "durationTicks": 455,
          "midi": 44,
          "name": "G#2",
          "ticks": 198240,
          "time": 121.499911,
          "velocity": 0.7559055118110236
        },
        {
          "duration": 0.12897714375000646,
          "durationTicks": 227,
          "midi": 44,
          "name": "G#2",
          "ticks": 198720,
          "time": 121.772638,
          "velocity": 0.7559055118110236
        },
        {
          "duration": 0.2176134187500054,
          "durationTicks": 383,
          "midi": 51,
          "name": "D#3",
          "ticks": 198960,
          "time": 121.9090015,
          "velocity": 0.7559055118110236
        },
        {
          "duration": 0.2176134187500054,
          "durationTicks": 383,
          "midi": 56,
          "name": "G#3",
          "ticks": 198960,
          "time": 121.9090015,
          "velocity": 0.7559055118110236
        },
        {
          "duration": 0.2176134187500054,
          "durationTicks": 383,
          "midi": 59,
          "name": "B3",
          "ticks": 198960,
          "time": 121.9090015,
          "velocity": 0.7559055118110236
        },
        {
          "duration": 0.2585224687500016,
          "durationTicks": 455,
          "midi": 37,
          "name": "C#2",
          "ticks": 199440,
          "time": 122.1817285,
          "velocity": 0.7559055118110236
        },
        {
          "duration": 0.2585224687500016,
          "durationTicks": 455,
          "midi": 49,
          "name": "C#3",
          "ticks": 199440,
          "time": 122.1817285,
          "velocity": 0.7559055118110236
        },
        {
          "duration": 0.10852261875000124,
          "durationTicks": 191,
          "midi": 52,
          "name": "E3",
          "ticks": 199920,
          "time": 122.45445550000001,
          "velocity": 0.7559055118110236
        },
        {
          "duration": 0.10852261875000124,
          "durationTicks": 191,
          "midi": 56,
          "name": "G#3",
          "ticks": 199920,
          "time": 122.45445550000001,
          "velocity": 0.7559055118110236
        },
        {
          "duration": 0.10852261875000124,
          "durationTicks": 191,
          "midi": 61,
          "name": "C#4",
          "ticks": 199920,
          "time": 122.45445550000001,
          "velocity": 0.7559055118110236
        },
        {
          "duration": 0.2585224687500016,
          "durationTicks": 455,
          "midi": 49,
          "name": "C#3",
          "ticks": 200160,
          "time": 122.59081900000001,
          "velocity": 0.7559055118110236
        },
        {
          "duration": 0.12897714374999225,
          "durationTicks": 227,
          "midi": 49,
          "name": "C#3",
          "ticks": 200640,
          "time": 122.86354600000001,
          "velocity": 0.7559055118110236
        },
        {
          "duration": 0.2176134187500054,
          "durationTicks": 383,
          "midi": 52,
          "name": "E3",
          "ticks": 200880,
          "time": 122.9999095,
          "velocity": 0.7559055118110236
        },
        {
          "duration": 0.2176134187500054,
          "durationTicks": 383,
          "midi": 56,
          "name": "G#3",
          "ticks": 200880,
          "time": 122.9999095,
          "velocity": 0.7559055118110236
        },
        {
          "duration": 0.2176134187500054,
          "durationTicks": 383,
          "midi": 61,
          "name": "C#4",
          "ticks": 200880,
          "time": 122.9999095,
          "velocity": 0.7559055118110236
        },
        {
          "duration": 0.2585224687500016,
          "durationTicks": 455,
          "midi": 42,
          "name": "F#2",
          "ticks": 201360,
          "time": 123.2726365,
          "velocity": 0.7559055118110236
        },
        {
          "duration": 0.2585224687500016,
          "durationTicks": 455,
          "midi": 54,
          "name": "F#3",
          "ticks": 201360,
          "time": 123.2726365,
          "velocity": 0.7559055118110236
        },
        {
          "duration": 0.10852261875000124,
          "durationTicks": 191,
          "midi": 54,
          "name": "F#3",
          "ticks": 201840,
          "time": 123.54536350000001,
          "velocity": 0.7559055118110236
        },
        {
          "duration": 0.10852261875000124,
          "durationTicks": 191,
          "midi": 57,
          "name": "A3",
          "ticks": 201840,
          "time": 123.54536350000001,
          "velocity": 0.7559055118110236
        },
        {
          "duration": 0.10852261875000124,
          "durationTicks": 191,
          "midi": 61,
          "name": "C#4",
          "ticks": 201840,
          "time": 123.54536350000001,
          "velocity": 0.7559055118110236
        },
        {
          "duration": 0.2585224687500016,
          "durationTicks": 455,
          "midi": 42,
          "name": "F#2",
          "ticks": 202080,
          "time": 123.68172700000001,
          "velocity": 0.7559055118110236
        },
        {
          "duration": 0.12897714375000646,
          "durationTicks": 227,
          "midi": 42,
          "name": "F#2",
          "ticks": 202560,
          "time": 123.954454,
          "velocity": 0.7559055118110236
        },
        {
          "duration": 0.21761341874999118,
          "durationTicks": 383,
          "midi": 54,
          "name": "F#3",
          "ticks": 202800,
          "time": 124.09081750000001,
          "velocity": 0.7559055118110236
        },
        {
          "duration": 0.21761341874999118,
          "durationTicks": 383,
          "midi": 57,
          "name": "A3",
          "ticks": 202800,
          "time": 124.09081750000001,
          "velocity": 0.7559055118110236
        },
        {
          "duration": 0.21761341874999118,
          "durationTicks": 383,
          "midi": 61,
          "name": "C#4",
          "ticks": 202800,
          "time": 124.09081750000001,
          "velocity": 0.7559055118110236
        },
        {
          "duration": 0.2176134187500054,
          "durationTicks": 383,
          "midi": 54,
          "name": "F#3",
          "ticks": 203280,
          "time": 124.3635445,
          "velocity": 0.7559055118110236
        },
        {
          "duration": 0.2176134187500054,
          "durationTicks": 383,
          "midi": 59,
          "name": "B3",
          "ticks": 203280,
          "time": 124.3635445,
          "velocity": 0.7559055118110236
        },
        {
          "duration": 0.2176134187500054,
          "durationTicks": 383,
          "midi": 63,
          "name": "D#4",
          "ticks": 203280,
          "time": 124.3635445,
          "velocity": 0.7559055118110236
        },
        {
          "duration": 0.21761341874999118,
          "durationTicks": 383,
          "midi": 35,
          "name": "B1",
          "ticks": 203760,
          "time": 124.6362715,
          "velocity": 0.7559055118110236
        },
        {
          "duration": 0.21761341874999118,
          "durationTicks": 383,
          "midi": 47,
          "name": "B2",
          "ticks": 203760,
          "time": 124.6362715,
          "velocity": 0.7559055118110236
        },
        {
          "duration": 0.21761341874999118,
          "durationTicks": 383,
          "midi": 35,
          "name": "B1",
          "ticks": 204240,
          "time": 124.90899850000001,
          "velocity": 0.7559055118110236
        },
        {
          "duration": 0.21761341874999118,
          "durationTicks": 383,
          "midi": 47,
          "name": "B2",
          "ticks": 204240,
          "time": 124.90899850000001,
          "velocity": 0.7559055118110236
        },
        {
          "duration": 0.2176134187500054,
          "durationTicks": 383,
          "midi": 35,
          "name": "B1",
          "ticks": 204720,
          "time": 125.1817255,
          "velocity": 0.7559055118110236
        },
        {
          "duration": 0.2176134187500054,
          "durationTicks": 383,
          "midi": 47,
          "name": "B2",
          "ticks": 204720,
          "time": 125.1817255,
          "velocity": 0.7559055118110236
        },
        {
          "duration": 0.2585224687500016,
          "durationTicks": 455,
          "midi": 33,
          "name": "A1",
          "ticks": 205200,
          "time": 125.4544525,
          "velocity": 0.7559055118110236
        },
        {
          "duration": 0.2585224687500016,
          "durationTicks": 455,
          "midi": 45,
          "name": "A2",
          "ticks": 205200,
          "time": 125.4544525,
          "velocity": 0.7559055118110236
        },
        {
          "duration": 0.10852261875000124,
          "durationTicks": 191,
          "midi": 52,
          "name": "E3",
          "ticks": 205680,
          "time": 125.7271795,
          "velocity": 0.7559055118110236
        },
        {
          "duration": 0.10852261875000124,
          "durationTicks": 191,
          "midi": 57,
          "name": "A3",
          "ticks": 205680,
          "time": 125.7271795,
          "velocity": 0.7559055118110236
        },
        {
          "duration": 0.10852261875000124,
          "durationTicks": 191,
          "midi": 61,
          "name": "C#4",
          "ticks": 205680,
          "time": 125.7271795,
          "velocity": 0.7559055118110236
        },
        {
          "duration": 0.2585224687500016,
          "durationTicks": 455,
          "midi": 45,
          "name": "A2",
          "ticks": 205920,
          "time": 125.863543,
          "velocity": 0.7559055118110236
        },
        {
          "duration": 0.12897714374999225,
          "durationTicks": 227,
          "midi": 45,
          "name": "A2",
          "ticks": 206400,
          "time": 126.13627000000001,
          "velocity": 0.7559055118110236
        },
        {
          "duration": 0.21761341874999118,
          "durationTicks": 383,
          "midi": 52,
          "name": "E3",
          "ticks": 206640,
          "time": 126.27263350000001,
          "velocity": 0.7559055118110236
        },
        {
          "duration": 0.21761341874999118,
          "durationTicks": 383,
          "midi": 57,
          "name": "A3",
          "ticks": 206640,
          "time": 126.27263350000001,
          "velocity": 0.7559055118110236
        },
        {
          "duration": 0.21761341874999118,
          "durationTicks": 383,
          "midi": 61,
          "name": "C#4",
          "ticks": 206640,
          "time": 126.27263350000001,
          "velocity": 0.7559055118110236
        },
        {
          "duration": 0.2585224687500016,
          "durationTicks": 455,
          "midi": 32,
          "name": "G#1",
          "ticks": 207120,
          "time": 126.5453605,
          "velocity": 0.7559055118110236
        },
        {
          "duration": 0.2585224687500016,
          "durationTicks": 455,
          "midi": 44,
          "name": "G#2",
          "ticks": 207120,
          "time": 126.5453605,
          "velocity": 0.7559055118110236
        },
        {
          "duration": 0.10852261875000124,
          "durationTicks": 191,
          "midi": 51,
          "name": "D#3",
          "ticks": 207600,
          "time": 126.8180875,
          "velocity": 0.7559055118110236
        },
        {
          "duration": 0.10852261875000124,
          "durationTicks": 191,
          "midi": 54,
          "name": "F#3",
          "ticks": 207600,
          "time": 126.8180875,
          "velocity": 0.7559055118110236
        },
        {
          "duration": 0.10852261875000124,
          "durationTicks": 191,
          "midi": 60,
          "name": "C4",
          "ticks": 207600,
          "time": 126.8180875,
          "velocity": 0.7559055118110236
        },
        {
          "duration": 0.2585224687500016,
          "durationTicks": 455,
          "midi": 44,
          "name": "G#2",
          "ticks": 207840,
          "time": 126.954451,
          "velocity": 0.7559055118110236
        },
        {
          "duration": 0.12897714374999225,
          "durationTicks": 227,
          "midi": 44,
          "name": "G#2",
          "ticks": 208320,
          "time": 127.22717800000001,
          "velocity": 0.7559055118110236
        },
        {
          "duration": 0.21761341874999118,
          "durationTicks": 383,
          "midi": 51,
          "name": "D#3",
          "ticks": 208560,
          "time": 127.36354150000001,
          "velocity": 0.7559055118110236
        },
        {
          "duration": 0.21761341874999118,
          "durationTicks": 383,
          "midi": 54,
          "name": "F#3",
          "ticks": 208560,
          "time": 127.36354150000001,
          "velocity": 0.7559055118110236
        },
        {
          "duration": 0.21761341874999118,
          "durationTicks": 383,
          "midi": 60,
          "name": "C4",
          "ticks": 208560,
          "time": 127.36354150000001,
          "velocity": 0.7559055118110236
        },
        {
          "duration": 0.25852246875001583,
          "durationTicks": 455,
          "midi": 37,
          "name": "C#2",
          "ticks": 209040,
          "time": 127.6362685,
          "velocity": 0.7559055118110236
        },
        {
          "duration": 0.25852246875001583,
          "durationTicks": 455,
          "midi": 49,
          "name": "C#3",
          "ticks": 209040,
          "time": 127.6362685,
          "velocity": 0.7559055118110236
        },
        {
          "duration": 0.10852261874998703,
          "durationTicks": 191,
          "midi": 52,
          "name": "E3",
          "ticks": 209520,
          "time": 127.9089955,
          "velocity": 0.7559055118110236
        },
        {
          "duration": 0.10852261874998703,
          "durationTicks": 191,
          "midi": 56,
          "name": "G#3",
          "ticks": 209520,
          "time": 127.9089955,
          "velocity": 0.7559055118110236
        },
        {
          "duration": 0.10852261874998703,
          "durationTicks": 191,
          "midi": 61,
          "name": "C#4",
          "ticks": 209520,
          "time": 127.9089955,
          "velocity": 0.7559055118110236
        },
        {
          "duration": 0.2585224687499874,
          "durationTicks": 455,
          "midi": 49,
          "name": "C#3",
          "ticks": 209760,
          "time": 128.04535900000002,
          "velocity": 0.7559055118110236
        },
        {
          "duration": 0.12897714375000646,
          "durationTicks": 227,
          "midi": 49,
          "name": "C#3",
          "ticks": 210240,
          "time": 128.318086,
          "velocity": 0.7559055118110236
        },
        {
          "duration": 0.2176134187500054,
          "durationTicks": 383,
          "midi": 52,
          "name": "E3",
          "ticks": 210480,
          "time": 128.4544495,
          "velocity": 0.7559055118110236
        },
        {
          "duration": 0.2176134187500054,
          "durationTicks": 383,
          "midi": 56,
          "name": "G#3",
          "ticks": 210480,
          "time": 128.4544495,
          "velocity": 0.7559055118110236
        },
        {
          "duration": 0.2176134187500054,
          "durationTicks": 383,
          "midi": 61,
          "name": "C#4",
          "ticks": 210480,
          "time": 128.4544495,
          "velocity": 0.7559055118110236
        },
        {
          "duration": 0.2585224687499874,
          "durationTicks": 455,
          "midi": 42,
          "name": "F#2",
          "ticks": 210960,
          "time": 128.7271765,
          "velocity": 0.7559055118110236
        },
        {
          "duration": 0.2585224687499874,
          "durationTicks": 455,
          "midi": 54,
          "name": "F#3",
          "ticks": 210960,
          "time": 128.7271765,
          "velocity": 0.7559055118110236
        },
        {
          "duration": 0.10852261874998703,
          "durationTicks": 191,
          "midi": 52,
          "name": "E3",
          "ticks": 211440,
          "time": 128.99990350000002,
          "velocity": 0.7559055118110236
        },
        {
          "duration": 0.10852261874998703,
          "durationTicks": 191,
          "midi": 58,
          "name": "A#3",
          "ticks": 211440,
          "time": 128.99990350000002,
          "velocity": 0.7559055118110236
        },
        {
          "duration": 0.10852261874998703,
          "durationTicks": 191,
          "midi": 61,
          "name": "C#4",
          "ticks": 211440,
          "time": 128.99990350000002,
          "velocity": 0.7559055118110236
        },
        {
          "duration": 0.2585224687499874,
          "durationTicks": 455,
          "midi": 42,
          "name": "F#2",
          "ticks": 211680,
          "time": 129.136267,
          "velocity": 0.7559055118110236
        },
        {
          "duration": 0.12897714375000646,
          "durationTicks": 227,
          "midi": 42,
          "name": "F#2",
          "ticks": 212160,
          "time": 129.408994,
          "velocity": 0.7559055118110236
        },
        {
          "duration": 0.21761341874997697,
          "durationTicks": 383,
          "midi": 52,
          "name": "E3",
          "ticks": 212400,
          "time": 129.54535750000002,
          "velocity": 0.7559055118110236
        },
        {
          "duration": 0.21761341874997697,
          "durationTicks": 383,
          "midi": 58,
          "name": "A#3",
          "ticks": 212400,
          "time": 129.54535750000002,
          "velocity": 0.7559055118110236
        },
        {
          "duration": 0.21761341874997697,
          "durationTicks": 383,
          "midi": 61,
          "name": "C#4",
          "ticks": 212400,
          "time": 129.54535750000002,
          "velocity": 0.7559055118110236
        },
        {
          "duration": 0.25852246875001583,
          "durationTicks": 455,
          "midi": 45,
          "name": "A2",
          "ticks": 212880,
          "time": 129.8180845,
          "velocity": 0.7559055118110236
        },
        {
          "duration": 0.25852246875001583,
          "durationTicks": 455,
          "midi": 57,
          "name": "A3",
          "ticks": 212880,
          "time": 129.8180845,
          "velocity": 0.7559055118110236
        },
        {
          "duration": 0.6471584437500155,
          "durationTicks": 1139,
          "midi": 47,
          "name": "B2",
          "ticks": 213600,
          "time": 130.227175,
          "velocity": 0.7559055118110236
        },
        {
          "duration": 0.6471584437500155,
          "durationTicks": 1139,
          "midi": 59,
          "name": "B3",
          "ticks": 213600,
          "time": 130.227175,
          "velocity": 0.7559055118110236
        },
        {
          "duration": 0.2585224687499874,
          "durationTicks": 455,
          "midi": 44,
          "name": "G#2",
          "ticks": 214800,
          "time": 130.9089925,
          "velocity": 0.7559055118110236
        },
        {
          "duration": 0.2585224687499874,
          "durationTicks": 455,
          "midi": 56,
          "name": "G#3",
          "ticks": 214800,
          "time": 130.9089925,
          "velocity": 0.7559055118110236
        },
        {
          "duration": 0.6471584437500155,
          "durationTicks": 1139,
          "midi": 43,
          "name": "G2",
          "ticks": 215520,
          "time": 131.318083,
          "velocity": 0.7559055118110236
        },
        {
          "duration": 0.6471584437500155,
          "durationTicks": 1139,
          "midi": 55,
          "name": "G3",
          "ticks": 215520,
          "time": 131.318083,
          "velocity": 0.7559055118110236
        },
        {
          "duration": 0.5176131187500062,
          "durationTicks": 911,
          "midi": 42,
          "name": "F#2",
          "ticks": 216720,
          "time": 131.9999005,
          "velocity": 0.7559055118110236
        },
        {
          "duration": 0.5176131187500062,
          "durationTicks": 911,
          "midi": 54,
          "name": "F#3",
          "ticks": 216720,
          "time": 131.9999005,
          "velocity": 0.7559055118110236
        },
        {
          "duration": 0.2585224687499874,
          "durationTicks": 455,
          "midi": 35,
          "name": "B1",
          "ticks": 217680,
          "time": 132.5453545,
          "velocity": 0.7559055118110236
        },
        {
          "duration": 0.2585224687499874,
          "durationTicks": 455,
          "midi": 47,
          "name": "B2",
          "ticks": 217680,
          "time": 132.5453545,
          "velocity": 0.7559055118110236
        },
        {
          "duration": 0.2585224687499874,
          "durationTicks": 455,
          "midi": 35,
          "name": "B1",
          "ticks": 218160,
          "time": 132.8180815,
          "velocity": 0.7559055118110236
        },
        {
          "duration": 0.2585224687499874,
          "durationTicks": 455,
          "midi": 47,
          "name": "B2",
          "ticks": 218160,
          "time": 132.8180815,
          "velocity": 0.7559055118110236
        },
        {
          "duration": 0.5176131187500062,
          "durationTicks": 911,
          "midi": 33,
          "name": "A1",
          "ticks": 218640,
          "time": 133.0908085,
          "velocity": 0.7559055118110236
        },
        {
          "duration": 0.5176131187500062,
          "durationTicks": 911,
          "midi": 45,
          "name": "A2",
          "ticks": 218640,
          "time": 133.0908085,
          "velocity": 0.7559055118110236
        },
        {
          "duration": 0.2585224687499874,
          "durationTicks": 455,
          "midi": 59,
          "name": "B3",
          "ticks": 220080,
          "time": 133.90898950000002,
          "velocity": 0.7559055118110236
        },
        {
          "duration": 0.32670421875002376,
          "durationTicks": 575,
          "midi": 52,
          "name": "E3",
          "ticks": 220560,
          "time": 134.1817165,
          "velocity": 0.6299212598425197
        },
        {
          "duration": 0.32670421875002376,
          "durationTicks": 575,
          "midi": 56,
          "name": "G#3",
          "ticks": 220560,
          "time": 134.1817165,
          "velocity": 0.6299212598425197
        },
        {
          "duration": 0.32670421875002376,
          "durationTicks": 575,
          "midi": 57,
          "name": "A3",
          "ticks": 220560,
          "time": 134.1817165,
          "velocity": 0.6299212598425197
        },
        {
          "duration": 0.32670421875002376,
          "durationTicks": 575,
          "midi": 61,
          "name": "C#4",
          "ticks": 220560,
          "time": 134.1817165,
          "velocity": 0.6299212598425197
        },
        {
          "duration": 0.32670421874999533,
          "durationTicks": 575,
          "midi": 50,
          "name": "D3",
          "ticks": 221280,
          "time": 134.590807,
          "velocity": 0.6299212598425197
        },
        {
          "duration": 0.32670421874999533,
          "durationTicks": 575,
          "midi": 54,
          "name": "F#3",
          "ticks": 221280,
          "time": 134.590807,
          "velocity": 0.6299212598425197
        },
        {
          "duration": 0.32670421874999533,
          "durationTicks": 575,
          "midi": 57,
          "name": "A3",
          "ticks": 221280,
          "time": 134.590807,
          "velocity": 0.6299212598425197
        },
        {
          "duration": 0.32670421874999533,
          "durationTicks": 575,
          "midi": 61,
          "name": "C#4",
          "ticks": 221280,
          "time": 134.590807,
          "velocity": 0.6299212598425197
        },
        {
          "duration": 0.34715874375001476,
          "durationTicks": 611,
          "midi": 52,
          "name": "E3",
          "ticks": 222000,
          "time": 134.9998975,
          "velocity": 0.6299212598425197
        },
        {
          "duration": 0.34715874375001476,
          "durationTicks": 611,
          "midi": 56,
          "name": "G#3",
          "ticks": 222000,
          "time": 134.9998975,
          "velocity": 0.6299212598425197
        },
        {
          "duration": 0.34715874375001476,
          "durationTicks": 611,
          "midi": 60,
          "name": "C4",
          "ticks": 222000,
          "time": 134.9998975,
          "velocity": 0.6299212598425197
        },
        {
          "duration": 0.3267042187499669,
          "durationTicks": 575,
          "midi": 52,
          "name": "E3",
          "ticks": 222720,
          "time": 135.40898800000002,
          "velocity": 0.6299212598425197
        },
        {
          "duration": 0.3267042187499669,
          "durationTicks": 575,
          "midi": 54,
          "name": "F#3",
          "ticks": 222720,
          "time": 135.40898800000002,
          "velocity": 0.6299212598425197
        },
        {
          "duration": 0.3267042187499669,
          "durationTicks": 575,
          "midi": 56,
          "name": "G#3",
          "ticks": 222720,
          "time": 135.40898800000002,
          "velocity": 0.6299212598425197
        },
        {
          "duration": 0.3267042187499669,
          "durationTicks": 575,
          "midi": 59,
          "name": "B3",
          "ticks": 222720,
          "time": 135.40898800000002,
          "velocity": 0.6299212598425197
        },
        {
          "duration": 0.32670421874999533,
          "durationTicks": 575,
          "midi": 50,
          "name": "D3",
          "ticks": 223440,
          "time": 135.8180785,
          "velocity": 0.6299212598425197
        },
        {
          "duration": 0.32670421874999533,
          "durationTicks": 575,
          "midi": 53,
          "name": "F3",
          "ticks": 223440,
          "time": 135.8180785,
          "velocity": 0.6299212598425197
        },
        {
          "duration": 0.32670421874999533,
          "durationTicks": 575,
          "midi": 57,
          "name": "A3",
          "ticks": 223440,
          "time": 135.8180785,
          "velocity": 0.6299212598425197
        },
        {
          "duration": 0.32670421874999533,
          "durationTicks": 575,
          "midi": 58,
          "name": "A#3",
          "ticks": 223440,
          "time": 135.8180785,
          "velocity": 0.6299212598425197
        },
        {
          "duration": 0.3676132687500058,
          "durationTicks": 647,
          "midi": 47,
          "name": "B2",
          "ticks": 224160,
          "time": 136.227169,
          "velocity": 0.6299212598425197
        },
        {
          "duration": 0.3676132687500058,
          "durationTicks": 647,
          "midi": 51,
          "name": "D#3",
          "ticks": 224160,
          "time": 136.227169,
          "velocity": 0.6299212598425197
        },
        {
          "duration": 0.3676132687500058,
          "durationTicks": 647,
          "midi": 52,
          "name": "E3",
          "ticks": 224160,
          "time": 136.227169,
          "velocity": 0.6299212598425197
        },
        {
          "duration": 0.3676132687500058,
          "durationTicks": 647,
          "midi": 56,
          "name": "G#3",
          "ticks": 224160,
          "time": 136.227169,
          "velocity": 0.6299212598425197
        },
        {
          "duration": 0.32670421875002376,
          "durationTicks": 575,
          "midi": 51,
          "name": "D#3",
          "ticks": 224880,
          "time": 136.6362595,
          "velocity": 0.6299212598425197
        },
        {
          "duration": 0.32670421875002376,
          "durationTicks": 575,
          "midi": 54,
          "name": "F#3",
          "ticks": 224880,
          "time": 136.6362595,
          "velocity": 0.6299212598425197
        },
        {
          "duration": 0.32670421875002376,
          "durationTicks": 575,
          "midi": 57,
          "name": "A3",
          "ticks": 224880,
          "time": 136.6362595,
          "velocity": 0.6299212598425197
        },
        {
          "duration": 0.32670421875002376,
          "durationTicks": 575,
          "midi": 59,
          "name": "B3",
          "ticks": 224880,
          "time": 136.6362595,
          "velocity": 0.6299212598425197
        },
        {
          "duration": 0.32670421874999533,
          "durationTicks": 575,
          "midi": 51,
          "name": "D#3",
          "ticks": 225600,
          "time": 137.04535,
          "velocity": 0.6299212598425197
        },
        {
          "duration": 0.32670421874999533,
          "durationTicks": 575,
          "midi": 54,
          "name": "F#3",
          "ticks": 225600,
          "time": 137.04535,
          "velocity": 0.6299212598425197
        },
        {
          "duration": 0.32670421874999533,
          "durationTicks": 575,
          "midi": 56,
          "name": "G#3",
          "ticks": 225600,
          "time": 137.04535,
          "velocity": 0.6299212598425197
        },
        {
          "duration": 0.32670421874999533,
          "durationTicks": 575,
          "midi": 59,
          "name": "B3",
          "ticks": 225600,
          "time": 137.04535,
          "velocity": 0.6299212598425197
        },
        {
          "duration": 0.4357950187499853,
          "durationTicks": 767,
          "midi": 47,
          "name": "B2",
          "ticks": 226320,
          "time": 137.4544405,
          "velocity": 0.6299212598425197
        },
        {
          "duration": 0.4357950187499853,
          "durationTicks": 767,
          "midi": 51,
          "name": "D#3",
          "ticks": 226320,
          "time": 137.4544405,
          "velocity": 0.6299212598425197
        },
        {
          "duration": 0.4357950187499853,
          "durationTicks": 767,
          "midi": 54,
          "name": "F#3",
          "ticks": 226320,
          "time": 137.4544405,
          "velocity": 0.6299212598425197
        },
        {
          "duration": 0.4357950187499853,
          "durationTicks": 767,
          "midi": 56,
          "name": "G#3",
          "ticks": 226320,
          "time": 137.4544405,
          "velocity": 0.6299212598425197
        },
        {
          "duration": 0.4357950187499853,
          "durationTicks": 767,
          "midi": 45,
          "name": "A2",
          "ticks": 227280,
          "time": 137.9998945,
          "velocity": 0.6299212598425197
        },
        {
          "duration": 0.4357950187499853,
          "durationTicks": 767,
          "midi": 49,
          "name": "C#3",
          "ticks": 227280,
          "time": 137.9998945,
          "velocity": 0.6299212598425197
        },
        {
          "duration": 0.4357950187499853,
          "durationTicks": 767,
          "midi": 52,
          "name": "E3",
          "ticks": 227280,
          "time": 137.9998945,
          "velocity": 0.6299212598425197
        },
        {
          "duration": 0.4357950187499853,
          "durationTicks": 767,
          "midi": 56,
          "name": "G#3",
          "ticks": 227280,
          "time": 137.9998945,
          "velocity": 0.6299212598425197
        },
        {
          "duration": 0.32670421875002376,
          "durationTicks": 575,
          "midi": 45,
          "name": "A2",
          "ticks": 228240,
          "time": 138.5453485,
          "velocity": 0.6299212598425197
        },
        {
          "duration": 0.32670421875002376,
          "durationTicks": 575,
          "midi": 49,
          "name": "C#3",
          "ticks": 228240,
          "time": 138.5453485,
          "velocity": 0.6299212598425197
        },
        {
          "duration": 0.32670421875002376,
          "durationTicks": 575,
          "midi": 52,
          "name": "E3",
          "ticks": 228240,
          "time": 138.5453485,
          "velocity": 0.6299212598425197
        },
        {
          "duration": 0.32670421875002376,
          "durationTicks": 575,
          "midi": 56,
          "name": "G#3",
          "ticks": 228240,
          "time": 138.5453485,
          "velocity": 0.6299212598425197
        },
        {
          "duration": 0.3880677937499968,
          "durationTicks": 683,
          "midi": 49,
          "name": "C#3",
          "ticks": 228960,
          "time": 138.954439,
          "velocity": 0.6299212598425197
        },
        {
          "duration": 0.3880677937499968,
          "durationTicks": 683,
          "midi": 52,
          "name": "E3",
          "ticks": 228960,
          "time": 138.954439,
          "velocity": 0.6299212598425197
        },
        {
          "duration": 0.3880677937499968,
          "durationTicks": 683,
          "midi": 54,
          "name": "F#3",
          "ticks": 228960,
          "time": 138.954439,
          "velocity": 0.6299212598425197
        },
        {
          "duration": 0.3880677937499968,
          "durationTicks": 683,
          "midi": 56,
          "name": "G#3",
          "ticks": 228960,
          "time": 138.954439,
          "velocity": 0.6299212598425197
        },
        {
          "duration": 0.3880677937500252,
          "durationTicks": 683,
          "midi": 48,
          "name": "C3",
          "ticks": 229680,
          "time": 139.3635295,
          "velocity": 0.6299212598425197
        },
        {
          "duration": 0.3880677937500252,
          "durationTicks": 683,
          "midi": 51,
          "name": "D#3",
          "ticks": 229680,
          "time": 139.3635295,
          "velocity": 0.6299212598425197
        },
        {
          "duration": 0.3880677937500252,
          "durationTicks": 683,
          "midi": 54,
          "name": "F#3",
          "ticks": 229680,
          "time": 139.3635295,
          "velocity": 0.6299212598425197
        },
        {
          "duration": 0.3880677937500252,
          "durationTicks": 683,
          "midi": 57,
          "name": "A3",
          "ticks": 229680,
          "time": 139.3635295,
          "velocity": 0.6299212598425197
        },
        {
          "duration": 0.3880677937499968,
          "durationTicks": 683,
          "midi": 49,
          "name": "C#3",
          "ticks": 230400,
          "time": 139.77262000000002,
          "velocity": 0.6299212598425197
        },
        {
          "duration": 0.3880677937499968,
          "durationTicks": 683,
          "midi": 52,
          "name": "E3",
          "ticks": 230400,
          "time": 139.77262000000002,
          "velocity": 0.6299212598425197
        },
        {
          "duration": 0.3880677937499968,
          "durationTicks": 683,
          "midi": 56,
          "name": "G#3",
          "ticks": 230400,
          "time": 139.77262000000002,
          "velocity": 0.6299212598425197
        },
        {
          "duration": 0.3880677937499968,
          "durationTicks": 683,
          "midi": 59,
          "name": "B3",
          "ticks": 230400,
          "time": 139.77262000000002,
          "velocity": 0.6299212598425197
        },
        {
          "duration": 0.3880677937499968,
          "durationTicks": 683,
          "midi": 46,
          "name": "A#2",
          "ticks": 231120,
          "time": 140.1817105,
          "velocity": 0.6299212598425197
        },
        {
          "duration": 0.3880677937499968,
          "durationTicks": 683,
          "midi": 49,
          "name": "C#3",
          "ticks": 231120,
          "time": 140.1817105,
          "velocity": 0.6299212598425197
        },
        {
          "duration": 0.3880677937499968,
          "durationTicks": 683,
          "midi": 52,
          "name": "E3",
          "ticks": 231120,
          "time": 140.1817105,
          "velocity": 0.6299212598425197
        },
        {
          "duration": 0.3880677937499968,
          "durationTicks": 683,
          "midi": 55,
          "name": "G3",
          "ticks": 231120,
          "time": 140.1817105,
          "velocity": 0.6299212598425197
        },
        {
          "duration": 0.3880677937499968,
          "durationTicks": 683,
          "midi": 52,
          "name": "E3",
          "ticks": 231840,
          "time": 140.590801,
          "velocity": 0.6299212598425197
        },
        {
          "duration": 0.3880677937499968,
          "durationTicks": 683,
          "midi": 54,
          "name": "F#3",
          "ticks": 231840,
          "time": 140.590801,
          "velocity": 0.6299212598425197
        },
        {
          "duration": 0.3880677937499968,
          "durationTicks": 683,
          "midi": 59,
          "name": "B3",
          "ticks": 231840,
          "time": 140.590801,
          "velocity": 0.6299212598425197
        },
        {
          "duration": 0.3880677937500252,
          "durationTicks": 683,
          "midi": 49,
          "name": "C#3",
          "ticks": 232560,
          "time": 140.9998915,
          "velocity": 0.6299212598425197
        },
        {
          "duration": 0.3880677937500252,
          "durationTicks": 683,
          "midi": 53,
          "name": "F3",
          "ticks": 232560,
          "time": 140.9998915,
          "velocity": 0.6299212598425197
        },
        {
          "duration": 0.3880677937500252,
          "durationTicks": 683,
          "midi": 54,
          "name": "F#3",
          "ticks": 232560,
          "time": 140.9998915,
          "velocity": 0.6299212598425197
        },
        {
          "duration": 0.3880677937500252,
          "durationTicks": 683,
          "midi": 59,
          "name": "B3",
          "ticks": 232560,
          "time": 140.9998915,
          "velocity": 0.6299212598425197
        },
        {
          "duration": 0.3880677937499968,
          "durationTicks": 683,
          "midi": 49,
          "name": "C#3",
          "ticks": 233280,
          "time": 141.408982,
          "velocity": 0.6299212598425197
        },
        {
          "duration": 0.3880677937499968,
          "durationTicks": 683,
          "midi": 51,
          "name": "D#3",
          "ticks": 233280,
          "time": 141.408982,
          "velocity": 0.6299212598425197
        },
        {
          "duration": 0.3880677937499968,
          "durationTicks": 683,
          "midi": 54,
          "name": "F#3",
          "ticks": 233280,
          "time": 141.408982,
          "velocity": 0.6299212598425197
        },
        {
          "duration": 0.3880677937499968,
          "durationTicks": 683,
          "midi": 57,
          "name": "A3",
          "ticks": 233280,
          "time": 141.408982,
          "velocity": 0.6299212598425197
        },
        {
          "duration": 0.5176131187500062,
          "durationTicks": 911,
          "midi": 49,
          "name": "C#3",
          "ticks": 234000,
          "time": 141.8180725,
          "velocity": 0.6299212598425197
        },
        {
          "duration": 0.5176131187500062,
          "durationTicks": 911,
          "midi": 52,
          "name": "E3",
          "ticks": 234000,
          "time": 141.8180725,
          "velocity": 0.6299212598425197
        },
        {
          "duration": 0.5176131187500062,
          "durationTicks": 911,
          "midi": 56,
          "name": "G#3",
          "ticks": 234000,
          "time": 141.8180725,
          "velocity": 0.6299212598425197
        },
        {
          "duration": 0.5176131187500062,
          "durationTicks": 911,
          "midi": 59,
          "name": "B3",
          "ticks": 234000,
          "time": 141.8180725,
          "velocity": 0.6299212598425197
        },
        {
          "duration": 0.2585224687499874,
          "durationTicks": 455,
          "midi": 52,
          "name": "E3",
          "ticks": 234960,
          "time": 142.3635265,
          "velocity": 0.6299212598425197
        },
        {
          "duration": 0.2585224687499874,
          "durationTicks": 455,
          "midi": 56,
          "name": "G#3",
          "ticks": 234960,
          "time": 142.3635265,
          "velocity": 0.6299212598425197
        },
        {
          "duration": 0.2585224687499874,
          "durationTicks": 455,
          "midi": 59,
          "name": "B3",
          "ticks": 234960,
          "time": 142.3635265,
          "velocity": 0.6299212598425197
        },
        {
          "duration": 0.2585224687499874,
          "durationTicks": 455,
          "midi": 61,
          "name": "C#4",
          "ticks": 234960,
          "time": 142.3635265,
          "velocity": 0.6299212598425197
        },
        {
          "duration": 0.2585224687499874,
          "durationTicks": 455,
          "midi": 63,
          "name": "D#4",
          "ticks": 234960,
          "time": 142.3635265,
          "velocity": 0.6299212598425197
        },
        {
          "duration": 0.32670421874999533,
          "durationTicks": 575,
          "midi": 52,
          "name": "E3",
          "ticks": 235920,
          "time": 142.9089805,
          "velocity": 0.6299212598425197
        },
        {
          "duration": 0.32670421874999533,
          "durationTicks": 575,
          "midi": 56,
          "name": "G#3",
          "ticks": 235920,
          "time": 142.9089805,
          "velocity": 0.6299212598425197
        },
        {
          "duration": 0.32670421874999533,
          "durationTicks": 575,
          "midi": 57,
          "name": "A3",
          "ticks": 235920,
          "time": 142.9089805,
          "velocity": 0.6299212598425197
        },
        {
          "duration": 0.32670421874999533,
          "durationTicks": 575,
          "midi": 61,
          "name": "C#4",
          "ticks": 235920,
          "time": 142.9089805,
          "velocity": 0.6299212598425197
        },
        {
          "duration": 0.32670421874999533,
          "durationTicks": 575,
          "midi": 50,
          "name": "D3",
          "ticks": 236640,
          "time": 143.318071,
          "velocity": 0.6299212598425197
        },
        {
          "duration": 0.32670421874999533,
          "durationTicks": 575,
          "midi": 54,
          "name": "F#3",
          "ticks": 236640,
          "time": 143.318071,
          "velocity": 0.6299212598425197
        },
        {
          "duration": 0.32670421874999533,
          "durationTicks": 575,
          "midi": 57,
          "name": "A3",
          "ticks": 236640,
          "time": 143.318071,
          "velocity": 0.6299212598425197
        },
        {
          "duration": 0.32670421874999533,
          "durationTicks": 575,
          "midi": 61,
          "name": "C#4",
          "ticks": 236640,
          "time": 143.318071,
          "velocity": 0.6299212598425197
        },
        {
          "duration": 0.34715874374998634,
          "durationTicks": 611,
          "midi": 52,
          "name": "E3",
          "ticks": 237360,
          "time": 143.72716150000002,
          "velocity": 0.6299212598425197
        },
        {
          "duration": 0.34715874374998634,
          "durationTicks": 611,
          "midi": 56,
          "name": "G#3",
          "ticks": 237360,
          "time": 143.72716150000002,
          "velocity": 0.6299212598425197
        },
        {
          "duration": 0.34715874374998634,
          "durationTicks": 611,
          "midi": 60,
          "name": "C4",
          "ticks": 237360,
          "time": 143.72716150000002,
          "velocity": 0.6299212598425197
        },
        {
          "duration": 0.32670421874999533,
          "durationTicks": 575,
          "midi": 52,
          "name": "E3",
          "ticks": 238080,
          "time": 144.136252,
          "velocity": 0.6299212598425197
        },
        {
          "duration": 0.32670421874999533,
          "durationTicks": 575,
          "midi": 54,
          "name": "F#3",
          "ticks": 238080,
          "time": 144.136252,
          "velocity": 0.6299212598425197
        },
        {
          "duration": 0.32670421874999533,
          "durationTicks": 575,
          "midi": 56,
          "name": "G#3",
          "ticks": 238080,
          "time": 144.136252,
          "velocity": 0.6299212598425197
        },
        {
          "duration": 0.32670421874999533,
          "durationTicks": 575,
          "midi": 59,
          "name": "B3",
          "ticks": 238080,
          "time": 144.136252,
          "velocity": 0.6299212598425197
        },
        {
          "duration": 0.32670421874999533,
          "durationTicks": 575,
          "midi": 50,
          "name": "D3",
          "ticks": 238800,
          "time": 144.5453425,
          "velocity": 0.6299212598425197
        },
        {
          "duration": 0.32670421874999533,
          "durationTicks": 575,
          "midi": 53,
          "name": "F3",
          "ticks": 238800,
          "time": 144.5453425,
          "velocity": 0.6299212598425197
        },
        {
          "duration": 0.32670421874999533,
          "durationTicks": 575,
          "midi": 57,
          "name": "A3",
          "ticks": 238800,
          "time": 144.5453425,
          "velocity": 0.6299212598425197
        },
        {
          "duration": 0.32670421874999533,
          "durationTicks": 575,
          "midi": 58,
          "name": "A#3",
          "ticks": 238800,
          "time": 144.5453425,
          "velocity": 0.6299212598425197
        },
        {
          "duration": 0.3676132687500058,
          "durationTicks": 647,
          "midi": 47,
          "name": "B2",
          "ticks": 239520,
          "time": 144.954433,
          "velocity": 0.6299212598425197
        },
        {
          "duration": 0.3676132687500058,
          "durationTicks": 647,
          "midi": 51,
          "name": "D#3",
          "ticks": 239520,
          "time": 144.954433,
          "velocity": 0.6299212598425197
        },
        {
          "duration": 0.3676132687500058,
          "durationTicks": 647,
          "midi": 52,
          "name": "E3",
          "ticks": 239520,
          "time": 144.954433,
          "velocity": 0.6299212598425197
        },
        {
          "duration": 0.3676132687500058,
          "durationTicks": 647,
          "midi": 56,
          "name": "G#3",
          "ticks": 239520,
          "time": 144.954433,
          "velocity": 0.6299212598425197
        },
        {
          "duration": 0.32670421874999533,
          "durationTicks": 575,
          "midi": 51,
          "name": "D#3",
          "ticks": 240240,
          "time": 145.3635235,
          "velocity": 0.6299212598425197
        },
        {
          "duration": 0.32670421874999533,
          "durationTicks": 575,
          "midi": 54,
          "name": "F#3",
          "ticks": 240240,
          "time": 145.3635235,
          "velocity": 0.6299212598425197
        },
        {
          "duration": 0.32670421874999533,
          "durationTicks": 575,
          "midi": 57,
          "name": "A3",
          "ticks": 240240,
          "time": 145.3635235,
          "velocity": 0.6299212598425197
        },
        {
          "duration": 0.32670421874999533,
          "durationTicks": 575,
          "midi": 59,
          "name": "B3",
          "ticks": 240240,
          "time": 145.3635235,
          "velocity": 0.6299212598425197
        },
        {
          "duration": 0.32670421874999533,
          "durationTicks": 575,
          "midi": 51,
          "name": "D#3",
          "ticks": 240960,
          "time": 145.772614,
          "velocity": 0.6299212598425197
        },
        {
          "duration": 0.32670421874999533,
          "durationTicks": 575,
          "midi": 54,
          "name": "F#3",
          "ticks": 240960,
          "time": 145.772614,
          "velocity": 0.6299212598425197
        },
        {
          "duration": 0.32670421874999533,
          "durationTicks": 575,
          "midi": 56,
          "name": "G#3",
          "ticks": 240960,
          "time": 145.772614,
          "velocity": 0.6299212598425197
        },
        {
          "duration": 0.32670421874999533,
          "durationTicks": 575,
          "midi": 59,
          "name": "B3",
          "ticks": 240960,
          "time": 145.772614,
          "velocity": 0.6299212598425197
        },
        {
          "duration": 0.4357950187500137,
          "durationTicks": 767,
          "midi": 47,
          "name": "B2",
          "ticks": 241680,
          "time": 146.1817045,
          "velocity": 0.6299212598425197
        },
        {
          "duration": 0.4357950187500137,
          "durationTicks": 767,
          "midi": 51,
          "name": "D#3",
          "ticks": 241680,
          "time": 146.1817045,
          "velocity": 0.6299212598425197
        },
        {
          "duration": 0.4357950187500137,
          "durationTicks": 767,
          "midi": 54,
          "name": "F#3",
          "ticks": 241680,
          "time": 146.1817045,
          "velocity": 0.6299212598425197
        },
        {
          "duration": 0.4357950187500137,
          "durationTicks": 767,
          "midi": 56,
          "name": "G#3",
          "ticks": 241680,
          "time": 146.1817045,
          "velocity": 0.6299212598425197
        },
        {
          "duration": 0.4357950187499853,
          "durationTicks": 767,
          "midi": 45,
          "name": "A2",
          "ticks": 242640,
          "time": 146.7271585,
          "velocity": 0.6299212598425197
        },
        {
          "duration": 0.4357950187499853,
          "durationTicks": 767,
          "midi": 49,
          "name": "C#3",
          "ticks": 242640,
          "time": 146.7271585,
          "velocity": 0.6299212598425197
        },
        {
          "duration": 0.4357950187499853,
          "durationTicks": 767,
          "midi": 52,
          "name": "E3",
          "ticks": 242640,
          "time": 146.7271585,
          "velocity": 0.6299212598425197
        },
        {
          "duration": 0.4357950187499853,
          "durationTicks": 767,
          "midi": 56,
          "name": "G#3",
          "ticks": 242640,
          "time": 146.7271585,
          "velocity": 0.6299212598425197
        },
        {
          "duration": 0.32670421874999533,
          "durationTicks": 575,
          "midi": 45,
          "name": "A2",
          "ticks": 243600,
          "time": 147.2726125,
          "velocity": 0.6299212598425197
        },
        {
          "duration": 0.32670421874999533,
          "durationTicks": 575,
          "midi": 49,
          "name": "C#3",
          "ticks": 243600,
          "time": 147.2726125,
          "velocity": 0.6299212598425197
        },
        {
          "duration": 0.32670421874999533,
          "durationTicks": 575,
          "midi": 52,
          "name": "E3",
          "ticks": 243600,
          "time": 147.2726125,
          "velocity": 0.6299212598425197
        },
        {
          "duration": 0.32670421874999533,
          "durationTicks": 575,
          "midi": 56,
          "name": "G#3",
          "ticks": 243600,
          "time": 147.2726125,
          "velocity": 0.6299212598425197
        },
        {
          "duration": 0.3880677937500252,
          "durationTicks": 683,
          "midi": 49,
          "name": "C#3",
          "ticks": 244320,
          "time": 147.681703,
          "velocity": 0.6299212598425197
        },
        {
          "duration": 0.3880677937500252,
          "durationTicks": 683,
          "midi": 52,
          "name": "E3",
          "ticks": 244320,
          "time": 147.681703,
          "velocity": 0.6299212598425197
        },
        {
          "duration": 0.3880677937500252,
          "durationTicks": 683,
          "midi": 54,
          "name": "F#3",
          "ticks": 244320,
          "time": 147.681703,
          "velocity": 0.6299212598425197
        },
        {
          "duration": 0.3880677937500252,
          "durationTicks": 683,
          "midi": 56,
          "name": "G#3",
          "ticks": 244320,
          "time": 147.681703,
          "velocity": 0.6299212598425197
        },
        {
          "duration": 0.3880677937499968,
          "durationTicks": 683,
          "midi": 48,
          "name": "C3",
          "ticks": 245040,
          "time": 148.09079350000002,
          "velocity": 0.6299212598425197
        },
        {
          "duration": 0.3880677937499968,
          "durationTicks": 683,
          "midi": 51,
          "name": "D#3",
          "ticks": 245040,
          "time": 148.09079350000002,
          "velocity": 0.6299212598425197
        },
        {
          "duration": 0.3880677937499968,
          "durationTicks": 683,
          "midi": 54,
          "name": "F#3",
          "ticks": 245040,
          "time": 148.09079350000002,
          "velocity": 0.6299212598425197
        },
        {
          "duration": 0.3880677937499968,
          "durationTicks": 683,
          "midi": 57,
          "name": "A3",
          "ticks": 245040,
          "time": 148.09079350000002,
          "velocity": 0.6299212598425197
        },
        {
          "duration": 0.3880677937499968,
          "durationTicks": 683,
          "midi": 49,
          "name": "C#3",
          "ticks": 245760,
          "time": 148.499884,
          "velocity": 0.6299212598425197
        },
        {
          "duration": 0.3880677937499968,
          "durationTicks": 683,
          "midi": 52,
          "name": "E3",
          "ticks": 245760,
          "time": 148.499884,
          "velocity": 0.6299212598425197
        },
        {
          "duration": 0.3880677937499968,
          "durationTicks": 683,
          "midi": 56,
          "name": "G#3",
          "ticks": 245760,
          "time": 148.499884,
          "velocity": 0.6299212598425197
        },
        {
          "duration": 0.3880677937499968,
          "durationTicks": 683,
          "midi": 59,
          "name": "B3",
          "ticks": 245760,
          "time": 148.499884,
          "velocity": 0.6299212598425197
        },
        {
          "duration": 0.3880677937499968,
          "durationTicks": 683,
          "midi": 46,
          "name": "A#2",
          "ticks": 246480,
          "time": 148.9089745,
          "velocity": 0.6299212598425197
        },
        {
          "duration": 0.3880677937499968,
          "durationTicks": 683,
          "midi": 49,
          "name": "C#3",
          "ticks": 246480,
          "time": 148.9089745,
          "velocity": 0.6299212598425197
        },
        {
          "duration": 0.3880677937499968,
          "durationTicks": 683,
          "midi": 52,
          "name": "E3",
          "ticks": 246480,
          "time": 148.9089745,
          "velocity": 0.6299212598425197
        },
        {
          "duration": 0.3880677937499968,
          "durationTicks": 683,
          "midi": 55,
          "name": "G3",
          "ticks": 246480,
          "time": 148.9089745,
          "velocity": 0.6299212598425197
        },
        {
          "duration": 0.3880677937500252,
          "durationTicks": 683,
          "midi": 52,
          "name": "E3",
          "ticks": 247200,
          "time": 149.318065,
          "velocity": 0.6299212598425197
        },
        {
          "duration": 0.3880677937500252,
          "durationTicks": 683,
          "midi": 54,
          "name": "F#3",
          "ticks": 247200,
          "time": 149.318065,
          "velocity": 0.6299212598425197
        },
        {
          "duration": 0.3880677937500252,
          "durationTicks": 683,
          "midi": 59,
          "name": "B3",
          "ticks": 247200,
          "time": 149.318065,
          "velocity": 0.6299212598425197
        },
        {
          "duration": 0.3880677937499968,
          "durationTicks": 683,
          "midi": 49,
          "name": "C#3",
          "ticks": 247920,
          "time": 149.7271555,
          "velocity": 0.6299212598425197
        },
        {
          "duration": 0.3880677937499968,
          "durationTicks": 683,
          "midi": 53,
          "name": "F3",
          "ticks": 247920,
          "time": 149.7271555,
          "velocity": 0.6299212598425197
        },
        {
          "duration": 0.3880677937499968,
          "durationTicks": 683,
          "midi": 54,
          "name": "F#3",
          "ticks": 247920,
          "time": 149.7271555,
          "velocity": 0.6299212598425197
        },
        {
          "duration": 0.3880677937499968,
          "durationTicks": 683,
          "midi": 59,
          "name": "B3",
          "ticks": 247920,
          "time": 149.7271555,
          "velocity": 0.6299212598425197
        },
        {
          "duration": 0.3880677937500252,
          "durationTicks": 683,
          "midi": 49,
          "name": "C#3",
          "ticks": 248640,
          "time": 150.136246,
          "velocity": 0.6299212598425197
        },
        {
          "duration": 0.3880677937500252,
          "durationTicks": 683,
          "midi": 51,
          "name": "D#3",
          "ticks": 248640,
          "time": 150.136246,
          "velocity": 0.6299212598425197
        },
        {
          "duration": 0.3880677937500252,
          "durationTicks": 683,
          "midi": 54,
          "name": "F#3",
          "ticks": 248640,
          "time": 150.136246,
          "velocity": 0.6299212598425197
        },
        {
          "duration": 0.3880677937500252,
          "durationTicks": 683,
          "midi": 57,
          "name": "A3",
          "ticks": 248640,
          "time": 150.136246,
          "velocity": 0.6299212598425197
        },
        {
          "duration": 0.5176131187499777,
          "durationTicks": 911,
          "midi": 49,
          "name": "C#3",
          "ticks": 249360,
          "time": 150.54533650000002,
          "velocity": 0.6299212598425197
        },
        {
          "duration": 0.5176131187499777,
          "durationTicks": 911,
          "midi": 52,
          "name": "E3",
          "ticks": 249360,
          "time": 150.54533650000002,
          "velocity": 0.6299212598425197
        },
        {
          "duration": 0.5176131187499777,
          "durationTicks": 911,
          "midi": 56,
          "name": "G#3",
          "ticks": 249360,
          "time": 150.54533650000002,
          "velocity": 0.6299212598425197
        },
        {
          "duration": 0.5176131187499777,
          "durationTicks": 911,
          "midi": 59,
          "name": "B3",
          "ticks": 249360,
          "time": 150.54533650000002,
          "velocity": 0.6299212598425197
        },
        {
          "duration": 0.25852246875001583,
          "durationTicks": 455,
          "midi": 52,
          "name": "E3",
          "ticks": 250320,
          "time": 151.0907905,
          "velocity": 0.6299212598425197
        },
        {
          "duration": 0.25852246875001583,
          "durationTicks": 455,
          "midi": 56,
          "name": "G#3",
          "ticks": 250320,
          "time": 151.0907905,
          "velocity": 0.6299212598425197
        },
        {
          "duration": 0.25852246875001583,
          "durationTicks": 455,
          "midi": 59,
          "name": "B3",
          "ticks": 250320,
          "time": 151.0907905,
          "velocity": 0.6299212598425197
        },
        {
          "duration": 0.25852246875001583,
          "durationTicks": 455,
          "midi": 61,
          "name": "C#4",
          "ticks": 250320,
          "time": 151.0907905,
          "velocity": 0.6299212598425197
        },
        {
          "duration": 0.25852246875001583,
          "durationTicks": 455,
          "midi": 63,
          "name": "D#4",
          "ticks": 250320,
          "time": 151.0907905,
          "velocity": 0.6299212598425197
        },
        {
          "duration": 0.5176131187500062,
          "durationTicks": 911,
          "midi": 49,
          "name": "C#3",
          "ticks": 251280,
          "time": 151.6362445,
          "velocity": 0.5039370078740157
        },
        {
          "duration": 0.5176131187500062,
          "durationTicks": 911,
          "midi": 61,
          "name": "C#4",
          "ticks": 251280,
          "time": 151.6362445,
          "velocity": 0.5039370078740157
        },
        {
          "duration": 0.5176131187500062,
          "durationTicks": 911,
          "midi": 56,
          "name": "G#3",
          "ticks": 252240,
          "time": 152.1816985,
          "velocity": 0.5039370078740157
        },
        {
          "duration": 0.1903407187500079,
          "durationTicks": 335,
          "midi": 58,
          "name": "A#3",
          "ticks": 253200,
          "time": 152.7271525,
          "velocity": 0.5039370078740157
        },
        {
          "duration": 0.1903407187500079,
          "durationTicks": 335,
          "midi": 61,
          "name": "C#4",
          "ticks": 253200,
          "time": 152.7271525,
          "velocity": 0.5039370078740157
        },
        {
          "duration": 0.1903407187500079,
          "durationTicks": 335,
          "midi": 65,
          "name": "F4",
          "ticks": 253200,
          "time": 152.7271525,
          "velocity": 0.5039370078740157
        },
        {
          "duration": 0.1903407187499795,
          "durationTicks": 335,
          "midi": 58,
          "name": "A#3",
          "ticks": 253680,
          "time": 152.99987950000002,
          "velocity": 0.5039370078740157
        },
        {
          "duration": 0.1903407187499795,
          "durationTicks": 335,
          "midi": 61,
          "name": "C#4",
          "ticks": 253680,
          "time": 152.99987950000002,
          "velocity": 0.5039370078740157
        },
        {
          "duration": 0.1903407187499795,
          "durationTicks": 335,
          "midi": 65,
          "name": "F4",
          "ticks": 253680,
          "time": 152.99987950000002,
          "velocity": 0.5039370078740157
        },
        {
          "duration": 0.1903407187500079,
          "durationTicks": 335,
          "midi": 57,
          "name": "A3",
          "ticks": 254160,
          "time": 153.2726065,
          "velocity": 0.5039370078740157
        },
        {
          "duration": 0.1903407187500079,
          "durationTicks": 335,
          "midi": 60,
          "name": "C4",
          "ticks": 254160,
          "time": 153.2726065,
          "velocity": 0.5039370078740157
        },
        {
          "duration": 0.1903407187500079,
          "durationTicks": 335,
          "midi": 65,
          "name": "F4",
          "ticks": 254160,
          "time": 153.2726065,
          "velocity": 0.5039370078740157
        },
        {
          "duration": 0.1903407187500079,
          "durationTicks": 335,
          "midi": 57,
          "name": "A3",
          "ticks": 254640,
          "time": 153.5453335,
          "velocity": 0.5039370078740157
        },
        {
          "duration": 0.1903407187500079,
          "durationTicks": 335,
          "midi": 60,
          "name": "C4",
          "ticks": 254640,
          "time": 153.5453335,
          "velocity": 0.5039370078740157
        },
        {
          "duration": 0.1903407187500079,
          "durationTicks": 335,
          "midi": 65,
          "name": "F4",
          "ticks": 254640,
          "time": 153.5453335,
          "velocity": 0.5039370078740157
        },
        {
          "duration": 0.9812490187500202,
          "durationTicks": 1727,
          "midi": 56,
          "name": "G#3",
          "ticks": 255120,
          "time": 153.8180605,
          "velocity": 0.5039370078740157
        },
        {
          "duration": 0.9812490187500202,
          "durationTicks": 1727,
          "midi": 58,
          "name": "A#3",
          "ticks": 255120,
          "time": 153.8180605,
          "velocity": 0.5039370078740157
        },
        {
          "duration": 0.9812490187500202,
          "durationTicks": 1727,
          "midi": 61,
          "name": "C#4",
          "ticks": 255120,
          "time": 153.8180605,
          "velocity": 0.5039370078740157
        },
        {
          "duration": 0.9812490187500202,
          "durationTicks": 1727,
          "midi": 65,
          "name": "F4",
          "ticks": 255120,
          "time": 153.8180605,
          "velocity": 0.5039370078740157
        },
        {
          "duration": 0.4085223187500162,
          "durationTicks": 719,
          "midi": 42,
          "name": "F#2",
          "ticks": 256925,
          "time": 154.84362765625,
          "velocity": 0.5039370078740157
        },
        {
          "duration": 0.3426132937499915,
          "durationTicks": 603,
          "midi": 49,
          "name": "C#3",
          "ticks": 256983,
          "time": 154.87658216875002,
          "velocity": 0.5039370078740157
        },
        {
          "duration": 0.2755679062499894,
          "durationTicks": 485,
          "midi": 54,
          "name": "F#3",
          "ticks": 257040,
          "time": 154.90896850000001,
          "velocity": 0.5039370078740157
        },
        {
          "duration": 0.20397706874999244,
          "durationTicks": 359,
          "midi": 56,
          "name": "G#3",
          "ticks": 257760,
          "time": 155.318059,
          "velocity": 0.5039370078740157
        },
        {
          "duration": 0.25852246875001583,
          "durationTicks": 455,
          "midi": 56,
          "name": "G#3",
          "ticks": 258480,
          "time": 155.7271495,
          "velocity": 0.5039370078740157
        },
        {
          "duration": 1.0357944187500152,
          "durationTicks": 1823,
          "midi": 53,
          "name": "F3",
          "ticks": 258960,
          "time": 155.9998765,
          "velocity": 0.5039370078740157
        },
        {
          "duration": 1.0357944187500152,
          "durationTicks": 1823,
          "midi": 56,
          "name": "G#3",
          "ticks": 258960,
          "time": 155.9998765,
          "velocity": 0.5039370078740157
        },
        {
          "duration": 1.0357944187500152,
          "durationTicks": 1823,
          "midi": 60,
          "name": "C4",
          "ticks": 258960,
          "time": 155.9998765,
          "velocity": 0.5039370078740157
        },
        {
          "duration": 1.0357944187499868,
          "durationTicks": 1823,
          "midi": 52,
          "name": "E3",
          "ticks": 260880,
          "time": 157.0907845,
          "velocity": 0.5039370078740157
        },
        {
          "duration": 1.0357944187499868,
          "durationTicks": 1823,
          "midi": 55,
          "name": "G3",
          "ticks": 260880,
          "time": 157.0907845,
          "velocity": 0.5039370078740157
        },
        {
          "duration": 1.0357944187499868,
          "durationTicks": 1823,
          "midi": 59,
          "name": "B3",
          "ticks": 260880,
          "time": 157.0907845,
          "velocity": 0.5039370078740157
        },
        {
          "duration": 0.25852246875001583,
          "durationTicks": 455,
          "midi": 51,
          "name": "D#3",
          "ticks": 262800,
          "time": 158.1816925,
          "velocity": 0.5039370078740157
        },
        {
          "duration": 0.25852246875001583,
          "durationTicks": 455,
          "midi": 54,
          "name": "F#3",
          "ticks": 262800,
          "time": 158.1816925,
          "velocity": 0.5039370078740157
        },
        {
          "duration": 0.25852246875001583,
          "durationTicks": 455,
          "midi": 58,
          "name": "A#3",
          "ticks": 262800,
          "time": 158.1816925,
          "velocity": 0.5039370078740157
        },
        {
          "duration": 0.12897714375000646,
          "durationTicks": 227,
          "midi": 61,
          "name": "C#4",
          "ticks": 263280,
          "time": 158.4544195,
          "velocity": 0.5039370078740157
        },
        {
          "duration": 0.12897714374997804,
          "durationTicks": 227,
          "midi": 58,
          "name": "A#3",
          "ticks": 263520,
          "time": 158.59078300000002,
          "velocity": 0.5039370078740157
        },
        {
          "duration": 0.12897714375000646,
          "durationTicks": 227,
          "midi": 54,
          "name": "F#3",
          "ticks": 263760,
          "time": 158.7271465,
          "velocity": 0.5039370078740157
        },
        {
          "duration": 0.12897714374997804,
          "durationTicks": 227,
          "midi": 61,
          "name": "C#4",
          "ticks": 264000,
          "time": 158.86351000000002,
          "velocity": 0.5039370078740157
        },
        {
          "duration": 0.12897714375000646,
          "durationTicks": 227,
          "midi": 58,
          "name": "A#3",
          "ticks": 264240,
          "time": 158.9998735,
          "velocity": 0.5039370078740157
        },
        {
          "duration": 0.12897714375000646,
          "durationTicks": 227,
          "midi": 54,
          "name": "F#3",
          "ticks": 264480,
          "time": 159.136237,
          "velocity": 0.5039370078740157
        },
        {
          "duration": 0.13579531875001294,
          "durationTicks": 239,
          "midi": 56,
          "name": "G#3",
          "ticks": 264720,
          "time": 159.2726005,
          "velocity": 0.5039370078740157
        },
        {
          "duration": 0.13579531875001294,
          "durationTicks": 239,
          "midi": 60,
          "name": "C4",
          "ticks": 264720,
          "time": 159.2726005,
          "velocity": 0.5039370078740157
        },
        {
          "duration": 0.13579531875001294,
          "durationTicks": 239,
          "midi": 63,
          "name": "D#4",
          "ticks": 264720,
          "time": 159.2726005,
          "velocity": 0.5039370078740157
        },
        {
          "duration": 0.13579531874998452,
          "durationTicks": 239,
          "midi": 56,
          "name": "G#3",
          "ticks": 265200,
          "time": 159.5453275,
          "velocity": 0.5039370078740157
        },
        {
          "duration": 0.13579531874998452,
          "durationTicks": 239,
          "midi": 60,
          "name": "C4",
          "ticks": 265200,
          "time": 159.5453275,
          "velocity": 0.5039370078740157
        },
        {
          "duration": 0.13579531874998452,
          "durationTicks": 239,
          "midi": 63,
          "name": "D#4",
          "ticks": 265200,
          "time": 159.5453275,
          "velocity": 0.5039370078740157
        },
        {
          "duration": 0.13579531874998452,
          "durationTicks": 239,
          "midi": 56,
          "name": "G#3",
          "ticks": 265680,
          "time": 159.81805450000002,
          "velocity": 0.5039370078740157
        },
        {
          "duration": 0.13579531874998452,
          "durationTicks": 239,
          "midi": 60,
          "name": "C4",
          "ticks": 265680,
          "time": 159.81805450000002,
          "velocity": 0.5039370078740157
        },
        {
          "duration": 0.13579531874998452,
          "durationTicks": 239,
          "midi": 63,
          "name": "D#4",
          "ticks": 265680,
          "time": 159.81805450000002,
          "velocity": 0.5039370078740157
        },
        {
          "duration": 0.13579531875001294,
          "durationTicks": 239,
          "midi": 56,
          "name": "G#3",
          "ticks": 266160,
          "time": 160.0907815,
          "velocity": 0.5039370078740157
        },
        {
          "duration": 0.13579531875001294,
          "durationTicks": 239,
          "midi": 60,
          "name": "C4",
          "ticks": 266160,
          "time": 160.0907815,
          "velocity": 0.5039370078740157
        },
        {
          "duration": 0.13579531875001294,
          "durationTicks": 239,
          "midi": 63,
          "name": "D#4",
          "ticks": 266160,
          "time": 160.0907815,
          "velocity": 0.5039370078740157
        },
        {
          "duration": 1.0357944187499868,
          "durationTicks": 1823,
          "midi": 54,
          "name": "F#3",
          "ticks": 266640,
          "time": 160.36350850000002,
          "velocity": 0.5039370078740157
        },
        {
          "duration": 1.0357944187499868,
          "durationTicks": 1823,
          "midi": 58,
          "name": "A#3",
          "ticks": 266640,
          "time": 160.36350850000002,
          "velocity": 0.5039370078740157
        },
        {
          "duration": 1.0357944187499868,
          "durationTicks": 1823,
          "midi": 61,
          "name": "C#4",
          "ticks": 266640,
          "time": 160.36350850000002,
          "velocity": 0.5039370078740157
        },
        {
          "duration": 1.0357944187499868,
          "durationTicks": 1823,
          "midi": 53,
          "name": "F3",
          "ticks": 268560,
          "time": 161.4544165,
          "velocity": 0.5039370078740157
        },
        {
          "duration": 1.0357944187499868,
          "durationTicks": 1823,
          "midi": 57,
          "name": "A3",
          "ticks": 268560,
          "time": 161.4544165,
          "velocity": 0.5039370078740157
        },
        {
          "duration": 1.0357944187499868,
          "durationTicks": 1823,
          "midi": 60,
          "name": "C4",
          "ticks": 268560,
          "time": 161.4544165,
          "velocity": 0.5039370078740157
        },
        {
          "duration": 1.0357944187500152,
          "durationTicks": 1823,
          "midi": 53,
          "name": "F3",
          "ticks": 270480,
          "time": 162.5453245,
          "velocity": 0.5039370078740157
        },
        {
          "duration": 1.0357944187500152,
          "durationTicks": 1823,
          "midi": 58,
          "name": "A#3",
          "ticks": 270480,
          "time": 162.5453245,
          "velocity": 0.5039370078740157
        },
        {
          "duration": 1.0357944187500152,
          "durationTicks": 1823,
          "midi": 61,
          "name": "C#4",
          "ticks": 270480,
          "time": 162.5453245,
          "velocity": 0.5039370078740157
        },
        {
          "duration": 1.0357944187500152,
          "durationTicks": 1823,
          "midi": 55,
          "name": "G3",
          "ticks": 272400,
          "time": 163.6362325,
          "velocity": 0.5039370078740157
        },
        {
          "duration": 1.0357944187500152,
          "durationTicks": 1823,
          "midi": 58,
          "name": "A#3",
          "ticks": 272400,
          "time": 163.6362325,
          "velocity": 0.5039370078740157
        },
        {
          "duration": 1.0357944187500152,
          "durationTicks": 1823,
          "midi": 63,
          "name": "D#4",
          "ticks": 272400,
          "time": 163.6362325,
          "velocity": 0.5039370078740157
        },
        {
          "duration": 0.2585224687499874,
          "durationTicks": 455,
          "midi": 54,
          "name": "F#3",
          "ticks": 274320,
          "time": 164.72714050000002,
          "velocity": 0.5039370078740157
        },
        {
          "duration": 0.2585224687499874,
          "durationTicks": 455,
          "midi": 58,
          "name": "A#3",
          "ticks": 274320,
          "time": 164.72714050000002,
          "velocity": 0.5039370078740157
        },
        {
          "duration": 0.2585224687499874,
          "durationTicks": 455,
          "midi": 61,
          "name": "C#4",
          "ticks": 274320,
          "time": 164.72714050000002,
          "velocity": 0.5039370078740157
        },
        {
          "duration": 0.6471584437500155,
          "durationTicks": 1139,
          "midi": 56,
          "name": "G#3",
          "ticks": 275040,
          "time": 165.136231,
          "velocity": 0.5039370078740157
        },
        {
          "duration": 0.6471584437500155,
          "durationTicks": 1139,
          "midi": 60,
          "name": "C4",
          "ticks": 275040,
          "time": 165.136231,
          "velocity": 0.5039370078740157
        },
        {
          "duration": 0.6471584437500155,
          "durationTicks": 1139,
          "midi": 63,
          "name": "D#4",
          "ticks": 275040,
          "time": 165.136231,
          "velocity": 0.5039370078740157
        },
        {
          "duration": 0.2585224687499874,
          "durationTicks": 455,
          "midi": 53,
          "name": "F3",
          "ticks": 276240,
          "time": 165.8180485,
          "velocity": 0.5039370078740157
        },
        {
          "duration": 0.2585224687499874,
          "durationTicks": 455,
          "midi": 56,
          "name": "G#3",
          "ticks": 276240,
          "time": 165.8180485,
          "velocity": 0.5039370078740157
        },
        {
          "duration": 0.2585224687499874,
          "durationTicks": 455,
          "midi": 60,
          "name": "C4",
          "ticks": 276240,
          "time": 165.8180485,
          "velocity": 0.5039370078740157
        },
        {
          "duration": 0.6471584437499871,
          "durationTicks": 1139,
          "midi": 52,
          "name": "E3",
          "ticks": 276960,
          "time": 166.22713900000002,
          "velocity": 0.5039370078740157
        },
        {
          "duration": 0.6471584437499871,
          "durationTicks": 1139,
          "midi": 55,
          "name": "G3",
          "ticks": 276960,
          "time": 166.22713900000002,
          "velocity": 0.5039370078740157
        },
        {
          "duration": 0.6471584437499871,
          "durationTicks": 1139,
          "midi": 59,
          "name": "B3",
          "ticks": 276960,
          "time": 166.22713900000002,
          "velocity": 0.5039370078740157
        },
        {
          "duration": 0.5176131187500346,
          "durationTicks": 911,
          "midi": 51,
          "name": "D#3",
          "ticks": 278160,
          "time": 166.9089565,
          "velocity": 0.5039370078740157
        },
        {
          "duration": 0.5176131187500346,
          "durationTicks": 911,
          "midi": 54,
          "name": "F#3",
          "ticks": 278160,
          "time": 166.9089565,
          "velocity": 0.5039370078740157
        },
        {
          "duration": 0.5176131187500346,
          "durationTicks": 911,
          "midi": 58,
          "name": "A#3",
          "ticks": 278160,
          "time": 166.9089565,
          "velocity": 0.5039370078740157
        },
        {
          "duration": 0.25852246875001583,
          "durationTicks": 455,
          "midi": 44,
          "name": "G#2",
          "ticks": 279120,
          "time": 167.4544105,
          "velocity": 0.5039370078740157
        },
        {
          "duration": 0.25852246875001583,
          "durationTicks": 455,
          "midi": 51,
          "name": "D#3",
          "ticks": 279120,
          "time": 167.4544105,
          "velocity": 0.5039370078740157
        },
        {
          "duration": 0.25852246875001583,
          "durationTicks": 455,
          "midi": 57,
          "name": "A3",
          "ticks": 279120,
          "time": 167.4544105,
          "velocity": 0.5039370078740157
        },
        {
          "duration": 0.2585224687499874,
          "durationTicks": 455,
          "midi": 44,
          "name": "G#2",
          "ticks": 279600,
          "time": 167.72713750000003,
          "velocity": 0.5039370078740157
        },
        {
          "duration": 0.2585224687499874,
          "durationTicks": 455,
          "midi": 51,
          "name": "D#3",
          "ticks": 279600,
          "time": 167.72713750000003,
          "velocity": 0.5039370078740157
        },
        {
          "duration": 0.2585224687499874,
          "durationTicks": 455,
          "midi": 57,
          "name": "A3",
          "ticks": 279600,
          "time": 167.72713750000003,
          "velocity": 0.5039370078740157
        },
        {
          "duration": 1.0357944187500152,
          "durationTicks": 1823,
          "midi": 49,
          "name": "C#3",
          "ticks": 280080,
          "time": 167.9998645,
          "velocity": 0.5039370078740157
        },
        {
          "duration": 1.0357944187500152,
          "durationTicks": 1823,
          "midi": 53,
          "name": "F3",
          "ticks": 280080,
          "time": 167.9998645,
          "velocity": 0.5039370078740157
        },
        {
          "duration": 1.0357944187500152,
          "durationTicks": 1823,
          "midi": 56,
          "name": "G#3",
          "ticks": 280080,
          "time": 167.9998645,
          "velocity": 0.5039370078740157
        },
        {
          "duration": 0.25852246875001583,
          "durationTicks": 455,
          "midi": 51,
          "name": "D#3",
          "ticks": 282000,
          "time": 169.0907725,
          "velocity": 0.5039370078740157
        },
        {
          "duration": 0.32670421875002376,
          "durationTicks": 575,
          "midi": 54,
          "name": "F#3",
          "ticks": 282480,
          "time": 169.3634995,
          "velocity": 0.5039370078740157
        },
        {
          "duration": 0.32670421875002376,
          "durationTicks": 575,
          "midi": 58,
          "name": "A#3",
          "ticks": 282480,
          "time": 169.3634995,
          "velocity": 0.5039370078740157
        },
        {
          "duration": 0.32670421875002376,
          "durationTicks": 575,
          "midi": 61,
          "name": "C#4",
          "ticks": 282480,
          "time": 169.3634995,
          "velocity": 0.5039370078740157
        },
        {
          "duration": 0.12897714375000646,
          "durationTicks": 227,
          "midi": 51,
          "name": "D#3",
          "ticks": 283200,
          "time": 169.77259,
          "velocity": 0.5039370078740157
        },
        {
          "duration": 0.2176134187500054,
          "durationTicks": 383,
          "midi": 54,
          "name": "F#3",
          "ticks": 283440,
          "time": 169.9089535,
          "velocity": 0.5039370078740157
        },
        {
          "duration": 0.2176134187500054,
          "durationTicks": 383,
          "midi": 58,
          "name": "A#3",
          "ticks": 283440,
          "time": 169.9089535,
          "velocity": 0.5039370078740157
        },
        {
          "duration": 0.2176134187500054,
          "durationTicks": 383,
          "midi": 61,
          "name": "C#4",
          "ticks": 283440,
          "time": 169.9089535,
          "velocity": 0.5039370078740157
        },
        {
          "duration": 0.25852246875001583,
          "durationTicks": 455,
          "midi": 44,
          "name": "G#2",
          "ticks": 283920,
          "time": 170.1816805,
          "velocity": 0.5039370078740157
        },
        {
          "duration": 0.32670421875002376,
          "durationTicks": 575,
          "midi": 51,
          "name": "D#3",
          "ticks": 284400,
          "time": 170.4544075,
          "velocity": 0.5039370078740157
        },
        {
          "duration": 0.32670421875002376,
          "durationTicks": 575,
          "midi": 56,
          "name": "G#3",
          "ticks": 284400,
          "time": 170.4544075,
          "velocity": 0.5039370078740157
        },
        {
          "duration": 0.32670421875002376,
          "durationTicks": 575,
          "midi": 60,
          "name": "C4",
          "ticks": 284400,
          "time": 170.4544075,
          "velocity": 0.5039370078740157
        },
        {
          "duration": 0.12897714375000646,
          "durationTicks": 227,
          "midi": 44,
          "name": "G#2",
          "ticks": 285120,
          "time": 170.863498,
          "velocity": 0.5039370078740157
        },
        {
          "duration": 0.21761341874997697,
          "durationTicks": 383,
          "midi": 51,
          "name": "D#3",
          "ticks": 285360,
          "time": 170.9998615,
          "velocity": 0.5039370078740157
        },
        {
          "duration": 0.21761341874997697,
          "durationTicks": 383,
          "midi": 56,
          "name": "G#3",
          "ticks": 285360,
          "time": 170.9998615,
          "velocity": 0.5039370078740157
        },
        {
          "duration": 0.21761341874997697,
          "durationTicks": 383,
          "midi": 60,
          "name": "C4",
          "ticks": 285360,
          "time": 170.9998615,
          "velocity": 0.5039370078740157
        },
        {
          "duration": 0.2585224687499874,
          "durationTicks": 455,
          "midi": 49,
          "name": "C#3",
          "ticks": 285840,
          "time": 171.2725885,
          "velocity": 0.5039370078740157
        },
        {
          "duration": 0.3880677937499968,
          "durationTicks": 683,
          "midi": 53,
          "name": "F3",
          "ticks": 286320,
          "time": 171.54531550000002,
          "velocity": 0.5039370078740157
        },
        {
          "duration": 0.32670421874999533,
          "durationTicks": 575,
          "midi": 56,
          "name": "G#3",
          "ticks": 286320,
          "time": 171.54531550000002,
          "velocity": 0.5039370078740157
        },
        {
          "duration": 0.32670421874999533,
          "durationTicks": 575,
          "midi": 61,
          "name": "C#4",
          "ticks": 286320,
          "time": 171.54531550000002,
          "velocity": 0.5039370078740157
        },
        {
          "duration": 0.12897714374997804,
          "durationTicks": 227,
          "midi": 44,
          "name": "G#2",
          "ticks": 287040,
          "time": 171.954406,
          "velocity": 0.5039370078740157
        },
        {
          "duration": 0.2585224687499874,
          "durationTicks": 455,
          "midi": 53,
          "name": "F3",
          "ticks": 287280,
          "time": 172.09076950000002,
          "velocity": 0.5039370078740157
        },
        {
          "duration": 0.21761341874997697,
          "durationTicks": 383,
          "midi": 56,
          "name": "G#3",
          "ticks": 287280,
          "time": 172.09076950000002,
          "velocity": 0.5039370078740157
        },
        {
          "duration": 0.21761341874997697,
          "durationTicks": 383,
          "midi": 61,
          "name": "C#4",
          "ticks": 287280,
          "time": 172.09076950000002,
          "velocity": 0.5039370078740157
        },
        {
          "duration": 0.25852246875001583,
          "durationTicks": 455,
          "midi": 49,
          "name": "C#3",
          "ticks": 287760,
          "time": 172.3634965,
          "velocity": 0.5039370078740157
        },
        {
          "duration": 0.3880677937499968,
          "durationTicks": 683,
          "midi": 53,
          "name": "F3",
          "ticks": 288240,
          "time": 172.6362235,
          "velocity": 0.5039370078740157
        },
        {
          "duration": 0.32670421874999533,
          "durationTicks": 575,
          "midi": 56,
          "name": "G#3",
          "ticks": 288240,
          "time": 172.6362235,
          "velocity": 0.5039370078740157
        },
        {
          "duration": 0.32670421874999533,
          "durationTicks": 575,
          "midi": 61,
          "name": "C#4",
          "ticks": 288240,
          "time": 172.6362235,
          "velocity": 0.5039370078740157
        },
        {
          "duration": 0.12897714374997804,
          "durationTicks": 227,
          "midi": 44,
          "name": "G#2",
          "ticks": 288960,
          "time": 173.04531400000002,
          "velocity": 0.5039370078740157
        },
        {
          "duration": 0.2585224687499874,
          "durationTicks": 455,
          "midi": 53,
          "name": "F3",
          "ticks": 289200,
          "time": 173.1816775,
          "velocity": 0.5039370078740157
        },
        {
          "duration": 0.2176134187500054,
          "durationTicks": 383,
          "midi": 56,
          "name": "G#3",
          "ticks": 289200,
          "time": 173.1816775,
          "velocity": 0.5039370078740157
        },
        {
          "duration": 0.2176134187500054,
          "durationTicks": 383,
          "midi": 61,
          "name": "C#4",
          "ticks": 289200,
          "time": 173.1816775,
          "velocity": 0.5039370078740157
        },
        {
          "duration": 0.25852246875001583,
          "durationTicks": 455,
          "midi": 54,
          "name": "F#3",
          "ticks": 289680,
          "time": 173.4544045,
          "velocity": 0.4566929133858268
        },
        {
          "duration": 0.25852246875001583,
          "durationTicks": 455,
          "midi": 61,
          "name": "C#4",
          "ticks": 290160,
          "time": 173.72713149999998,
          "velocity": 0.4566929133858268
        },
        {
          "duration": 0.2585224687499874,
          "durationTicks": 455,
          "midi": 66,
          "name": "F#4",
          "ticks": 290640,
          "time": 173.99985850000002,
          "velocity": 0.4566929133858268
        },
        {
          "duration": 0.25852246875001583,
          "durationTicks": 455,
          "midi": 56,
          "name": "G#3",
          "ticks": 291120,
          "time": 174.2725855,
          "velocity": 0.4566929133858268
        },
        {
          "duration": 0.2585224687499874,
          "durationTicks": 455,
          "midi": 57,
          "name": "A3",
          "ticks": 291600,
          "time": 174.54531250000002,
          "velocity": 0.4566929133858268
        },
        {
          "duration": 0.25852246875001583,
          "durationTicks": 455,
          "midi": 64,
          "name": "E4",
          "ticks": 292080,
          "time": 174.8180395,
          "velocity": 0.4566929133858268
        },
        {
          "duration": 0.25852246875001583,
          "durationTicks": 455,
          "midi": 69,
          "name": "A4",
          "ticks": 292560,
          "time": 175.0907665,
          "velocity": 0.4566929133858268
        },
        {
          "duration": 0.25852246875001583,
          "durationTicks": 455,
          "midi": 57,
          "name": "A3",
          "ticks": 293040,
          "time": 175.3634935,
          "velocity": 0.4566929133858268
        },
        {
          "duration": 0.2585224687499874,
          "durationTicks": 455,
          "midi": 59,
          "name": "B3",
          "ticks": 293520,
          "time": 175.6362205,
          "velocity": 0.4566929133858268
        },
        {
          "duration": 0.25852246875001583,
          "durationTicks": 455,
          "midi": 66,
          "name": "F#4",
          "ticks": 294000,
          "time": 175.9089475,
          "velocity": 0.4566929133858268
        },
        {
          "duration": 0.25852246875001583,
          "durationTicks": 455,
          "midi": 71,
          "name": "B4",
          "ticks": 294480,
          "time": 176.18167449999999,
          "velocity": 0.4566929133858268
        },
        {
          "duration": 0.2585224687499874,
          "durationTicks": 455,
          "midi": 59,
          "name": "B3",
          "ticks": 294960,
          "time": 176.45440150000002,
          "velocity": 0.4566929133858268
        },
        {
          "duration": 1.0357944187500152,
          "durationTicks": 1823,
          "midi": 56,
          "name": "G#3",
          "ticks": 295440,
          "time": 176.7271285,
          "velocity": 0.4566929133858268
        },
        {
          "duration": 1.0357944187500152,
          "durationTicks": 1823,
          "midi": 59,
          "name": "B3",
          "ticks": 295440,
          "time": 176.7271285,
          "velocity": 0.4566929133858268
        },
        {
          "duration": 1.0357944187500152,
          "durationTicks": 1823,
          "midi": 64,
          "name": "E4",
          "ticks": 295440,
          "time": 176.7271285,
          "velocity": 0.4566929133858268
        },
        {
          "duration": 1.0357944187500152,
          "durationTicks": 1823,
          "midi": 57,
          "name": "A3",
          "ticks": 297360,
          "time": 177.8180365,
          "velocity": 0.5669291338582677
        },
        {
          "duration": 1.0357944187500152,
          "durationTicks": 1823,
          "midi": 60,
          "name": "C4",
          "ticks": 297360,
          "time": 177.8180365,
          "velocity": 0.5669291338582677
        },
        {
          "duration": 1.0357944187500152,
          "durationTicks": 1823,
          "midi": 65,
          "name": "F4",
          "ticks": 297360,
          "time": 177.8180365,
          "velocity": 0.5669291338582677
        },
        {
          "duration": 0.5176131187499777,
          "durationTicks": 911,
          "midi": 41,
          "name": "F2",
          "ticks": 299280,
          "time": 178.90894450000002,
          "velocity": 0.7559055118110236
        },
        {
          "duration": 0.5176131187499777,
          "durationTicks": 911,
          "midi": 53,
          "name": "F3",
          "ticks": 299280,
          "time": 178.90894450000002,
          "velocity": 0.7559055118110236
        },
        {
          "duration": 0.5176131187499777,
          "durationTicks": 911,
          "midi": 53,
          "name": "F3",
          "ticks": 300240,
          "time": 179.45439850000002,
          "velocity": 0.7559055118110236
        },
        {
          "duration": 0.5176131187499777,
          "durationTicks": 911,
          "midi": 57,
          "name": "A3",
          "ticks": 300240,
          "time": 179.45439850000002,
          "velocity": 0.7559055118110236
        },
        {
          "duration": 0.5176131187499777,
          "durationTicks": 911,
          "midi": 60,
          "name": "C4",
          "ticks": 300240,
          "time": 179.45439850000002,
          "velocity": 0.7559055118110236
        },
        {
          "duration": 0.13579531874998452,
          "durationTicks": 239,
          "midi": 40,
          "name": "E2",
          "ticks": 301200,
          "time": 179.9998525,
          "velocity": 0.7559055118110236
        },
        {
          "duration": 0.13579531874998452,
          "durationTicks": 239,
          "midi": 52,
          "name": "E3",
          "ticks": 301200,
          "time": 179.9998525,
          "velocity": 0.7559055118110236
        },
        {
          "duration": 0.21761341874997697,
          "durationTicks": 383,
          "midi": 52,
          "name": "E3",
          "ticks": 301680,
          "time": 180.2725795,
          "velocity": 0.7559055118110236
        },
        {
          "duration": 0.21761341874997697,
          "durationTicks": 383,
          "midi": 55,
          "name": "G3",
          "ticks": 301680,
          "time": 180.2725795,
          "velocity": 0.7559055118110236
        },
        {
          "duration": 0.21761341874997697,
          "durationTicks": 383,
          "midi": 62,
          "name": "D4",
          "ticks": 301680,
          "time": 180.2725795,
          "velocity": 0.7559055118110236
        },
        {
          "duration": 0.2585224687499874,
          "durationTicks": 455,
          "midi": 45,
          "name": "A2",
          "ticks": 302160,
          "time": 180.5453065,
          "velocity": 0.7559055118110236
        },
        {
          "duration": 0.2585224687499874,
          "durationTicks": 455,
          "midi": 57,
          "name": "A3",
          "ticks": 302160,
          "time": 180.5453065,
          "velocity": 0.7559055118110236
        },
        {
          "duration": 0.21761341874997697,
          "durationTicks": 383,
          "midi": 52,
          "name": "E3",
          "ticks": 302640,
          "time": 180.8180335,
          "velocity": 0.7559055118110236
        },
        {
          "duration": 0.21761341874997697,
          "durationTicks": 383,
          "midi": 55,
          "name": "G3",
          "ticks": 302640,
          "time": 180.8180335,
          "velocity": 0.7559055118110236
        },
        {
          "duration": 0.21761341874997697,
          "durationTicks": 383,
          "midi": 57,
          "name": "A3",
          "ticks": 302640,
          "time": 180.8180335,
          "velocity": 0.7559055118110236
        },
        {
          "duration": 0.21761341874997697,
          "durationTicks": 383,
          "midi": 61,
          "name": "C#4",
          "ticks": 302640,
          "time": 180.8180335,
          "velocity": 0.7559055118110236
        },
        {
          "duration": 0.25852246875001583,
          "durationTicks": 455,
          "midi": 38,
          "name": "D2",
          "ticks": 303120,
          "time": 181.0907605,
          "velocity": 0.7559055118110236
        },
        {
          "duration": 0.25852246875001583,
          "durationTicks": 455,
          "midi": 50,
          "name": "D3",
          "ticks": 303120,
          "time": 181.0907605,
          "velocity": 0.7559055118110236
        },
        {
          "duration": 0.10852261874998703,
          "durationTicks": 191,
          "midi": 53,
          "name": "F3",
          "ticks": 303600,
          "time": 181.36348750000002,
          "velocity": 0.7559055118110236
        },
        {
          "duration": 0.10852261874998703,
          "durationTicks": 191,
          "midi": 57,
          "name": "A3",
          "ticks": 303600,
          "time": 181.36348750000002,
          "velocity": 0.7559055118110236
        },
        {
          "duration": 0.10852261874998703,
          "durationTicks": 191,
          "midi": 62,
          "name": "D4",
          "ticks": 303600,
          "time": 181.36348750000002,
          "velocity": 0.7559055118110236
        },
        {
          "duration": 0.2585224687499874,
          "durationTicks": 455,
          "midi": 50,
          "name": "D3",
          "ticks": 303840,
          "time": 181.499851,
          "velocity": 0.7559055118110236
        },
        {
          "duration": 0.12897714374997804,
          "durationTicks": 227,
          "midi": 50,
          "name": "D3",
          "ticks": 304320,
          "time": 181.772578,
          "velocity": 0.7559055118110236
        },
        {
          "duration": 0.21761341874997697,
          "durationTicks": 383,
          "midi": 53,
          "name": "F3",
          "ticks": 304560,
          "time": 181.90894150000003,
          "velocity": 0.7559055118110236
        },
        {
          "duration": 0.21761341874997697,
          "durationTicks": 383,
          "midi": 57,
          "name": "A3",
          "ticks": 304560,
          "time": 181.90894150000003,
          "velocity": 0.7559055118110236
        },
        {
          "duration": 0.21761341874997697,
          "durationTicks": 383,
          "midi": 62,
          "name": "D4",
          "ticks": 304560,
          "time": 181.90894150000003,
          "velocity": 0.7559055118110236
        },
        {
          "duration": 0.25852246875001583,
          "durationTicks": 455,
          "midi": 37,
          "name": "C#2",
          "ticks": 305040,
          "time": 182.1816685,
          "velocity": 0.7559055118110236
        },
        {
          "duration": 0.25852246875001583,
          "durationTicks": 455,
          "midi": 49,
          "name": "C#3",
          "ticks": 305040,
          "time": 182.1816685,
          "velocity": 0.7559055118110236
        },
        {
          "duration": 0.2176134187500054,
          "durationTicks": 383,
          "midi": 53,
          "name": "F3",
          "ticks": 305520,
          "time": 182.4543955,
          "velocity": 0.7559055118110236
        },
        {
          "duration": 0.2176134187500054,
          "durationTicks": 383,
          "midi": 58,
          "name": "A#3",
          "ticks": 305520,
          "time": 182.4543955,
          "velocity": 0.7559055118110236
        },
        {
          "duration": 0.2176134187500054,
          "durationTicks": 383,
          "midi": 61,
          "name": "C#4",
          "ticks": 305520,
          "time": 182.4543955,
          "velocity": 0.7559055118110236
        },
        {
          "duration": 0.25852246875001583,
          "durationTicks": 455,
          "midi": 36,
          "name": "C2",
          "ticks": 306000,
          "time": 182.7271225,
          "velocity": 0.7559055118110236
        },
        {
          "duration": 0.25852246875001583,
          "durationTicks": 455,
          "midi": 48,
          "name": "C3",
          "ticks": 306000,
          "time": 182.7271225,
          "velocity": 0.7559055118110236
        },
        {
          "duration": 0.2585224687499874,
          "durationTicks": 455,
          "midi": 34,
          "name": "A#1",
          "ticks": 306480,
          "time": 182.9998495,
          "velocity": 0.7559055118110236
        },
        {
          "duration": 0.2585224687499874,
          "durationTicks": 455,
          "midi": 46,
          "name": "A#2",
          "ticks": 306480,
          "time": 182.9998495,
          "velocity": 0.7559055118110236
        },
        {
          "duration": 0.25852246875001583,
          "durationTicks": 455,
          "midi": 33,
          "name": "A1",
          "ticks": 306960,
          "time": 183.2725765,
          "velocity": 0.7559055118110236
        },
        {
          "duration": 0.25852246875001583,
          "durationTicks": 455,
          "midi": 45,
          "name": "A2",
          "ticks": 306960,
          "time": 183.2725765,
          "velocity": 0.7559055118110236
        },
        {
          "duration": 0.10852261875001545,
          "durationTicks": 191,
          "midi": 52,
          "name": "E3",
          "ticks": 307440,
          "time": 183.5453035,
          "velocity": 0.7559055118110236
        },
        {
          "duration": 0.10852261875001545,
          "durationTicks": 191,
          "midi": 57,
          "name": "A3",
          "ticks": 307440,
          "time": 183.5453035,
          "velocity": 0.7559055118110236
        },
        {
          "duration": 0.10852261875001545,
          "durationTicks": 191,
          "midi": 60,
          "name": "C4",
          "ticks": 307440,
          "time": 183.5453035,
          "velocity": 0.7559055118110236
        },
        {
          "duration": 0.25852246875001583,
          "durationTicks": 455,
          "midi": 45,
          "name": "A2",
          "ticks": 307680,
          "time": 183.681667,
          "velocity": 0.7559055118110236
        },
        {
          "duration": 0.12897714375000646,
          "durationTicks": 227,
          "midi": 45,
          "name": "A2",
          "ticks": 308160,
          "time": 183.954394,
          "velocity": 0.7559055118110236
        },
        {
          "duration": 0.2176134187500054,
          "durationTicks": 383,
          "midi": 52,
          "name": "E3",
          "ticks": 308400,
          "time": 184.0907575,
          "velocity": 0.7559055118110236
        },
        {
          "duration": 0.2176134187500054,
          "durationTicks": 383,
          "midi": 57,
          "name": "A3",
          "ticks": 308400,
          "time": 184.0907575,
          "velocity": 0.7559055118110236
        },
        {
          "duration": 0.2176134187500054,
          "durationTicks": 383,
          "midi": 60,
          "name": "C4",
          "ticks": 308400,
          "time": 184.0907575,
          "velocity": 0.7559055118110236
        },
        {
          "duration": 0.25852246875001583,
          "durationTicks": 455,
          "midi": 38,
          "name": "D2",
          "ticks": 308880,
          "time": 184.3634845,
          "velocity": 0.7559055118110236
        },
        {
          "duration": 0.25852246875001583,
          "durationTicks": 455,
          "midi": 50,
          "name": "D3",
          "ticks": 308880,
          "time": 184.3634845,
          "velocity": 0.7559055118110236
        },
        {
          "duration": 0.10852261874998703,
          "durationTicks": 191,
          "midi": 53,
          "name": "F3",
          "ticks": 309360,
          "time": 184.6362115,
          "velocity": 0.7559055118110236
        },
        {
          "duration": 0.10852261874998703,
          "durationTicks": 191,
          "midi": 57,
          "name": "A3",
          "ticks": 309360,
          "time": 184.6362115,
          "velocity": 0.7559055118110236
        },
        {
          "duration": 0.10852261874998703,
          "durationTicks": 191,
          "midi": 62,
          "name": "D4",
          "ticks": 309360,
          "time": 184.6362115,
          "velocity": 0.7559055118110236
        },
        {
          "duration": 0.2585224687499874,
          "durationTicks": 455,
          "midi": 50,
          "name": "D3",
          "ticks": 309600,
          "time": 184.77257500000002,
          "velocity": 0.7559055118110236
        },
        {
          "duration": 0.12897714375000646,
          "durationTicks": 227,
          "midi": 50,
          "name": "D3",
          "ticks": 310080,
          "time": 185.045302,
          "velocity": 0.7559055118110236
        },
        {
          "duration": 0.21761341874997697,
          "durationTicks": 383,
          "midi": 53,
          "name": "F3",
          "ticks": 310320,
          "time": 185.1816655,
          "velocity": 0.7559055118110236
        },
        {
          "duration": 0.21761341874997697,
          "durationTicks": 383,
          "midi": 57,
          "name": "A3",
          "ticks": 310320,
          "time": 185.1816655,
          "velocity": 0.7559055118110236
        },
        {
          "duration": 0.21761341874997697,
          "durationTicks": 383,
          "midi": 62,
          "name": "D4",
          "ticks": 310320,
          "time": 185.1816655,
          "velocity": 0.7559055118110236
        },
        {
          "duration": 0.2585224687499874,
          "durationTicks": 455,
          "midi": 43,
          "name": "G2",
          "ticks": 310800,
          "time": 185.4543925,
          "velocity": 0.7559055118110236
        },
        {
          "duration": 0.2585224687499874,
          "durationTicks": 455,
          "midi": 55,
          "name": "G3",
          "ticks": 310800,
          "time": 185.4543925,
          "velocity": 0.7559055118110236
        },
        {
          "duration": 0.10852261874998703,
          "durationTicks": 191,
          "midi": 55,
          "name": "G3",
          "ticks": 311280,
          "time": 185.72711950000001,
          "velocity": 0.7559055118110236
        },
        {
          "duration": 0.10852261874998703,
          "durationTicks": 191,
          "midi": 58,
          "name": "A#3",
          "ticks": 311280,
          "time": 185.72711950000001,
          "velocity": 0.7559055118110236
        },
        {
          "duration": 0.10852261874998703,
          "durationTicks": 191,
          "midi": 62,
          "name": "D4",
          "ticks": 311280,
          "time": 185.72711950000001,
          "velocity": 0.7559055118110236
        },
        {
          "duration": 0.2585224687499874,
          "durationTicks": 455,
          "midi": 43,
          "name": "G2",
          "ticks": 311520,
          "time": 185.863483,
          "velocity": 0.7559055118110236
        },
        {
          "duration": 0.12897714374997804,
          "durationTicks": 227,
          "midi": 43,
          "name": "G2",
          "ticks": 312000,
          "time": 186.13621,
          "velocity": 0.7559055118110236
        },
        {
          "duration": 0.21761341874997697,
          "durationTicks": 383,
          "midi": 55,
          "name": "G3",
          "ticks": 312240,
          "time": 186.27257350000002,
          "velocity": 0.7559055118110236
        },
        {
          "duration": 0.21761341874997697,
          "durationTicks": 383,
          "midi": 58,
          "name": "A#3",
          "ticks": 312240,
          "time": 186.27257350000002,
          "velocity": 0.7559055118110236
        },
        {
          "duration": 0.21761341874997697,
          "durationTicks": 383,
          "midi": 62,
          "name": "D4",
          "ticks": 312240,
          "time": 186.27257350000002,
          "velocity": 0.7559055118110236
        },
        {
          "duration": 0.2176134187500054,
          "durationTicks": 383,
          "midi": 55,
          "name": "G3",
          "ticks": 312720,
          "time": 186.5453005,
          "velocity": 0.7559055118110236
        },
        {
          "duration": 0.2176134187500054,
          "durationTicks": 383,
          "midi": 60,
          "name": "C4",
          "ticks": 312720,
          "time": 186.5453005,
          "velocity": 0.7559055118110236
        },
        {
          "duration": 0.2176134187500054,
          "durationTicks": 383,
          "midi": 64,
          "name": "E4",
          "ticks": 312720,
          "time": 186.5453005,
          "velocity": 0.7559055118110236
        },
        {
          "duration": 0.2176134187500054,
          "durationTicks": 383,
          "midi": 36,
          "name": "C2",
          "ticks": 313200,
          "time": 186.8180275,
          "velocity": 0.7559055118110236
        },
        {
          "duration": 0.2176134187500054,
          "durationTicks": 383,
          "midi": 48,
          "name": "C3",
          "ticks": 313200,
          "time": 186.8180275,
          "velocity": 0.7559055118110236
        },
        {
          "duration": 0.2176134187500054,
          "durationTicks": 383,
          "midi": 36,
          "name": "C2",
          "ticks": 313680,
          "time": 187.0907545,
          "velocity": 0.7559055118110236
        },
        {
          "duration": 0.2176134187500054,
          "durationTicks": 383,
          "midi": 48,
          "name": "C3",
          "ticks": 313680,
          "time": 187.0907545,
          "velocity": 0.7559055118110236
        },
        {
          "duration": 0.2176134187500054,
          "durationTicks": 383,
          "midi": 36,
          "name": "C2",
          "ticks": 314160,
          "time": 187.3634815,
          "velocity": 0.7559055118110236
        },
        {
          "duration": 0.2176134187500054,
          "durationTicks": 383,
          "midi": 48,
          "name": "C3",
          "ticks": 314160,
          "time": 187.3634815,
          "velocity": 0.7559055118110236
        },
        {
          "duration": 0.25852246875001583,
          "durationTicks": 455,
          "midi": 34,
          "name": "A#1",
          "ticks": 314640,
          "time": 187.6362085,
          "velocity": 0.7559055118110236
        },
        {
          "duration": 0.25852246875001583,
          "durationTicks": 455,
          "midi": 46,
          "name": "A#2",
          "ticks": 314640,
          "time": 187.6362085,
          "velocity": 0.7559055118110236
        },
        {
          "duration": 0.10852261875004388,
          "durationTicks": 191,
          "midi": 53,
          "name": "F3",
          "ticks": 315120,
          "time": 187.90893549999998,
          "velocity": 0.7559055118110236
        },
        {
          "duration": 0.10852261875004388,
          "durationTicks": 191,
          "midi": 58,
          "name": "A#3",
          "ticks": 315120,
          "time": 187.90893549999998,
          "velocity": 0.7559055118110236
        },
        {
          "duration": 0.10852261875004388,
          "durationTicks": 191,
          "midi": 62,
          "name": "D4",
          "ticks": 315120,
          "time": 187.90893549999998,
          "velocity": 0.7559055118110236
        },
        {
          "duration": 0.25852246875001583,
          "durationTicks": 455,
          "midi": 46,
          "name": "A#2",
          "ticks": 315360,
          "time": 188.045299,
          "velocity": 0.7559055118110236
        },
        {
          "duration": 0.12897714375000646,
          "durationTicks": 227,
          "midi": 46,
          "name": "A#2",
          "ticks": 315840,
          "time": 188.318026,
          "velocity": 0.7559055118110236
        },
        {
          "duration": 0.2176134187500054,
          "durationTicks": 383,
          "midi": 53,
          "name": "F3",
          "ticks": 316080,
          "time": 188.4543895,
          "velocity": 0.7559055118110236
        },
        {
          "duration": 0.2176134187500054,
          "durationTicks": 383,
          "midi": 58,
          "name": "A#3",
          "ticks": 316080,
          "time": 188.4543895,
          "velocity": 0.7559055118110236
        },
        {
          "duration": 0.2176134187500054,
          "durationTicks": 383,
          "midi": 62,
          "name": "D4",
          "ticks": 316080,
          "time": 188.4543895,
          "velocity": 0.7559055118110236
        },
        {
          "duration": 0.2585224687499874,
          "durationTicks": 455,
          "midi": 33,
          "name": "A1",
          "ticks": 316560,
          "time": 188.72711650000002,
          "velocity": 0.7559055118110236
        },
        {
          "duration": 0.2585224687499874,
          "durationTicks": 455,
          "midi": 45,
          "name": "A2",
          "ticks": 316560,
          "time": 188.72711650000002,
          "velocity": 0.7559055118110236
        },
        {
          "duration": 0.10852261875001545,
          "durationTicks": 191,
          "midi": 52,
          "name": "E3",
          "ticks": 317040,
          "time": 188.9998435,
          "velocity": 0.7559055118110236
        },
        {
          "duration": 0.10852261875001545,
          "durationTicks": 191,
          "midi": 55,
          "name": "G3",
          "ticks": 317040,
          "time": 188.9998435,
          "velocity": 0.7559055118110236
        },
        {
          "duration": 0.10852261875001545,
          "durationTicks": 191,
          "midi": 61,
          "name": "C#4",
          "ticks": 317040,
          "time": 188.9998435,
          "velocity": 0.7559055118110236
        },
        {
          "duration": 0.25852246875001583,
          "durationTicks": 455,
          "midi": 45,
          "name": "A2",
          "ticks": 317280,
          "time": 189.136207,
          "velocity": 0.7559055118110236
        },
        {
          "duration": 0.12897714375003488,
          "durationTicks": 227,
          "midi": 45,
          "name": "A2",
          "ticks": 317760,
          "time": 189.408934,
          "velocity": 0.7559055118110236
        },
        {
          "duration": 0.21761341874997697,
          "durationTicks": 383,
          "midi": 52,
          "name": "E3",
          "ticks": 318000,
          "time": 189.5452975,
          "velocity": 0.7559055118110236
        },
        {
          "duration": 0.21761341874997697,
          "durationTicks": 383,
          "midi": 55,
          "name": "G3",
          "ticks": 318000,
          "time": 189.5452975,
          "velocity": 0.7559055118110236
        },
        {
          "duration": 0.21761341874997697,
          "durationTicks": 383,
          "midi": 61,
          "name": "C#4",
          "ticks": 318000,
          "time": 189.5452975,
          "velocity": 0.7559055118110236
        },
        {
          "duration": 0.2585224687499874,
          "durationTicks": 455,
          "midi": 38,
          "name": "D2",
          "ticks": 318480,
          "time": 189.8180245,
          "velocity": 0.7559055118110236
        },
        {
          "duration": 0.2585224687499874,
          "durationTicks": 455,
          "midi": 50,
          "name": "D3",
          "ticks": 318480,
          "time": 189.8180245,
          "velocity": 0.7559055118110236
        },
        {
          "duration": 0.10852261874998703,
          "durationTicks": 191,
          "midi": 53,
          "name": "F3",
          "ticks": 318960,
          "time": 190.0907515,
          "velocity": 0.7559055118110236
        },
        {
          "duration": 0.10852261874998703,
          "durationTicks": 191,
          "midi": 57,
          "name": "A3",
          "ticks": 318960,
          "time": 190.0907515,
          "velocity": 0.7559055118110236
        },
        {
          "duration": 0.10852261874998703,
          "durationTicks": 191,
          "midi": 62,
          "name": "D4",
          "ticks": 318960,
          "time": 190.0907515,
          "velocity": 0.7559055118110236
        },
        {
          "duration": 0.2585224687499874,
          "durationTicks": 455,
          "midi": 50,
          "name": "D3",
          "ticks": 319200,
          "time": 190.22711500000003,
          "velocity": 0.7559055118110236
        },
        {
          "duration": 0.12897714375000646,
          "durationTicks": 227,
          "midi": 50,
          "name": "D3",
          "ticks": 319680,
          "time": 190.499842,
          "velocity": 0.7559055118110236
        },
        {
          "duration": 0.21761341874997697,
          "durationTicks": 383,
          "midi": 53,
          "name": "F3",
          "ticks": 319920,
          "time": 190.63620550000002,
          "velocity": 0.7559055118110236
        },
        {
          "duration": 0.21761341874997697,
          "durationTicks": 383,
          "midi": 57,
          "name": "A3",
          "ticks": 319920,
          "time": 190.63620550000002,
          "velocity": 0.7559055118110236
        },
        {
          "duration": 0.21761341874997697,
          "durationTicks": 383,
          "midi": 62,
          "name": "D4",
          "ticks": 319920,
          "time": 190.63620550000002,
          "velocity": 0.7559055118110236
        },
        {
          "duration": 0.25852246875001583,
          "durationTicks": 455,
          "midi": 43,
          "name": "G2",
          "ticks": 320400,
          "time": 190.9089325,
          "velocity": 0.7559055118110236
        },
        {
          "duration": 0.25852246875001583,
          "durationTicks": 455,
          "midi": 55,
          "name": "G3",
          "ticks": 320400,
          "time": 190.9089325,
          "velocity": 0.7559055118110236
        },
        {
          "duration": 0.10852261874998703,
          "durationTicks": 191,
          "midi": 53,
          "name": "F3",
          "ticks": 320880,
          "time": 191.18165950000002,
          "velocity": 0.7559055118110236
        },
        {
          "duration": 0.10852261874998703,
          "durationTicks": 191,
          "midi": 59,
          "name": "B3",
          "ticks": 320880,
          "time": 191.18165950000002,
          "velocity": 0.7559055118110236
        },
        {
          "duration": 0.10852261874998703,
          "durationTicks": 191,
          "midi": 62,
          "name": "D4",
          "ticks": 320880,
          "time": 191.18165950000002,
          "velocity": 0.7559055118110236
        },
        {
          "duration": 0.2585224687499874,
          "durationTicks": 455,
          "midi": 43,
          "name": "G2",
          "ticks": 321120,
          "time": 191.318023,
          "velocity": 0.7559055118110236
        },
        {
          "duration": 0.12897714374997804,
          "durationTicks": 227,
          "midi": 43,
          "name": "G2",
          "ticks": 321600,
          "time": 191.59075,
          "velocity": 0.7559055118110236
        },
        {
          "duration": 0.2176134187500054,
          "durationTicks": 383,
          "midi": 53,
          "name": "F3",
          "ticks": 321840,
          "time": 191.7271135,
          "velocity": 0.7559055118110236
        },
        {
          "duration": 0.2176134187500054,
          "durationTicks": 383,
          "midi": 59,
          "name": "B3",
          "ticks": 321840,
          "time": 191.7271135,
          "velocity": 0.7559055118110236
        },
        {
          "duration": 0.2176134187500054,
          "durationTicks": 383,
          "midi": 62,
          "name": "D4",
          "ticks": 321840,
          "time": 191.7271135,
          "velocity": 0.7559055118110236
        },
        {
          "duration": 0.25852246875001583,
          "durationTicks": 455,
          "midi": 46,
          "name": "A#2",
          "ticks": 322320,
          "time": 191.9998405,
          "velocity": 0.7559055118110236
        },
        {
          "duration": 0.25852246875001583,
          "durationTicks": 455,
          "midi": 58,
          "name": "A#3",
          "ticks": 322320,
          "time": 191.9998405,
          "velocity": 0.7559055118110236
        },
        {
          "duration": 0.6471584437500155,
          "durationTicks": 1139,
          "midi": 48,
          "name": "C3",
          "ticks": 323040,
          "time": 192.408931,
          "velocity": 0.7559055118110236
        },
        {
          "duration": 0.6471584437500155,
          "durationTicks": 1139,
          "midi": 60,
          "name": "C4",
          "ticks": 323040,
          "time": 192.408931,
          "velocity": 0.7559055118110236
        },
        {
          "duration": 0.2585224687499874,
          "durationTicks": 455,
          "midi": 45,
          "name": "A2",
          "ticks": 324240,
          "time": 193.09074850000002,
          "velocity": 0.7559055118110236
        },
        {
          "duration": 0.2585224687499874,
          "durationTicks": 455,
          "midi": 57,
          "name": "A3",
          "ticks": 324240,
          "time": 193.09074850000002,
          "velocity": 0.7559055118110236
        },
        {
          "duration": 0.6471584437499871,
          "durationTicks": 1139,
          "midi": 44,
          "name": "G#2",
          "ticks": 324960,
          "time": 193.499839,
          "velocity": 0.7559055118110236
        },
        {
          "duration": 0.6471584437499871,
          "durationTicks": 1139,
          "midi": 56,
          "name": "G#3",
          "ticks": 324960,
          "time": 193.499839,
          "velocity": 0.7559055118110236
        },
        {
          "duration": 0.5176131187500062,
          "durationTicks": 911,
          "midi": 43,
          "name": "G2",
          "ticks": 326160,
          "time": 194.1816565,
          "velocity": 0.7559055118110236
        },
        {
          "duration": 0.5176131187500062,
          "durationTicks": 911,
          "midi": 55,
          "name": "G3",
          "ticks": 326160,
          "time": 194.1816565,
          "velocity": 0.7559055118110236
        },
        {
          "duration": 0.2585224687499874,
          "durationTicks": 455,
          "midi": 42,
          "name": "F#2",
          "ticks": 327120,
          "time": 194.7271105,
          "velocity": 0.7559055118110236
        },
        {
          "duration": 0.2585224687499874,
          "durationTicks": 455,
          "midi": 54,
          "name": "F#3",
          "ticks": 327120,
          "time": 194.7271105,
          "velocity": 0.7559055118110236
        },
        {
          "duration": 0.25852246875001583,
          "durationTicks": 455,
          "midi": 42,
          "name": "F#2",
          "ticks": 327600,
          "time": 194.9998375,
          "velocity": 0.7559055118110236
        },
        {
          "duration": 0.25852246875001583,
          "durationTicks": 455,
          "midi": 54,
          "name": "F#3",
          "ticks": 327600,
          "time": 194.9998375,
          "velocity": 0.7559055118110236
        },
        {
          "duration": 0.25852246875001583,
          "durationTicks": 455,
          "midi": 41,
          "name": "F2",
          "ticks": 328080,
          "time": 195.2725645,
          "velocity": 0.7559055118110236
        },
        {
          "duration": 0.25852246875001583,
          "durationTicks": 455,
          "midi": 53,
          "name": "F3",
          "ticks": 328080,
          "time": 195.2725645,
          "velocity": 0.7559055118110236
        },
        {
          "duration": 0.2585224687499874,
          "durationTicks": 455,
          "midi": 53,
          "name": "F3",
          "ticks": 328560,
          "time": 195.54529150000002,
          "velocity": 0.7559055118110236
        },
        {
          "duration": 0.2585224687499874,
          "durationTicks": 455,
          "midi": 57,
          "name": "A3",
          "ticks": 328560,
          "time": 195.54529150000002,
          "velocity": 0.7559055118110236
        },
        {
          "duration": 0.2585224687499874,
          "durationTicks": 455,
          "midi": 60,
          "name": "C4",
          "ticks": 328560,
          "time": 195.54529150000002,
          "velocity": 0.7559055118110236
        },
        {
          "duration": 0.25852246875001583,
          "durationTicks": 455,
          "midi": 36,
          "name": "C2",
          "ticks": 329040,
          "time": 195.8180185,
          "velocity": 0.7559055118110236
        },
        {
          "duration": 0.25852246875001583,
          "durationTicks": 455,
          "midi": 48,
          "name": "C3",
          "ticks": 329040,
          "time": 195.8180185,
          "velocity": 0.7559055118110236
        },
        {
          "duration": 0.2585224687499874,
          "durationTicks": 455,
          "midi": 53,
          "name": "F3",
          "ticks": 329520,
          "time": 196.09074550000003,
          "velocity": 0.7559055118110236
        },
        {
          "duration": 0.2585224687499874,
          "durationTicks": 455,
          "midi": 57,
          "name": "A3",
          "ticks": 329520,
          "time": 196.09074550000003,
          "velocity": 0.7559055118110236
        },
        {
          "duration": 0.2585224687499874,
          "durationTicks": 455,
          "midi": 60,
          "name": "C4",
          "ticks": 329520,
          "time": 196.09074550000003,
          "velocity": 0.7559055118110236
        },
        {
          "duration": 0.13579531875001294,
          "durationTicks": 239,
          "midi": 40,
          "name": "E2",
          "ticks": 330000,
          "time": 196.3634725,
          "velocity": 0.7559055118110236
        },
        {
          "duration": 0.13579531875001294,
          "durationTicks": 239,
          "midi": 52,
          "name": "E3",
          "ticks": 330000,
          "time": 196.3634725,
          "velocity": 0.7559055118110236
        },
        {
          "duration": 0.2176134187500054,
          "durationTicks": 383,
          "midi": 52,
          "name": "E3",
          "ticks": 330480,
          "time": 196.6361995,
          "velocity": 0.7559055118110236
        },
        {
          "duration": 0.2176134187500054,
          "durationTicks": 383,
          "midi": 55,
          "name": "G3",
          "ticks": 330480,
          "time": 196.6361995,
          "velocity": 0.7559055118110236
        },
        {
          "duration": 0.2176134187500054,
          "durationTicks": 383,
          "midi": 62,
          "name": "D4",
          "ticks": 330480,
          "time": 196.6361995,
          "velocity": 0.7559055118110236
        },
        {
          "duration": 0.25852246875001583,
          "durationTicks": 455,
          "midi": 45,
          "name": "A2",
          "ticks": 330960,
          "time": 196.9089265,
          "velocity": 0.7559055118110236
        },
        {
          "duration": 0.25852246875001583,
          "durationTicks": 455,
          "midi": 57,
          "name": "A3",
          "ticks": 330960,
          "time": 196.9089265,
          "velocity": 0.7559055118110236
        },
        {
          "duration": 0.2176134187500054,
          "durationTicks": 383,
          "midi": 52,
          "name": "E3",
          "ticks": 331440,
          "time": 197.1816535,
          "velocity": 0.7559055118110236
        },
        {
          "duration": 0.2176134187500054,
          "durationTicks": 383,
          "midi": 55,
          "name": "G3",
          "ticks": 331440,
          "time": 197.1816535,
          "velocity": 0.7559055118110236
        },
        {
          "duration": 0.2176134187500054,
          "durationTicks": 383,
          "midi": 57,
          "name": "A3",
          "ticks": 331440,
          "time": 197.1816535,
          "velocity": 0.7559055118110236
        },
        {
          "duration": 0.2176134187500054,
          "durationTicks": 383,
          "midi": 61,
          "name": "C#4",
          "ticks": 331440,
          "time": 197.1816535,
          "velocity": 0.7559055118110236
        },
        {
          "duration": 0.25852246875001583,
          "durationTicks": 455,
          "midi": 38,
          "name": "D2",
          "ticks": 331920,
          "time": 197.4543805,
          "velocity": 0.7559055118110236
        },
        {
          "duration": 0.25852246875001583,
          "durationTicks": 455,
          "midi": 50,
          "name": "D3",
          "ticks": 331920,
          "time": 197.4543805,
          "velocity": 0.7559055118110236
        },
        {
          "duration": 0.10852261875001545,
          "durationTicks": 191,
          "midi": 53,
          "name": "F3",
          "ticks": 332400,
          "time": 197.7271075,
          "velocity": 0.7559055118110236
        },
        {
          "duration": 0.10852261875001545,
          "durationTicks": 191,
          "midi": 57,
          "name": "A3",
          "ticks": 332400,
          "time": 197.7271075,
          "velocity": 0.7559055118110236
        },
        {
          "duration": 0.10852261875001545,
          "durationTicks": 191,
          "midi": 62,
          "name": "D4",
          "ticks": 332400,
          "time": 197.7271075,
          "velocity": 0.7559055118110236
        },
        {
          "duration": 0.25852246875001583,
          "durationTicks": 455,
          "midi": 50,
          "name": "D3",
          "ticks": 332640,
          "time": 197.863471,
          "velocity": 0.7559055118110236
        },
        {
          "duration": 0.12897714375000646,
          "durationTicks": 227,
          "midi": 50,
          "name": "D3",
          "ticks": 333120,
          "time": 198.136198,
          "velocity": 0.7559055118110236
        },
        {
          "duration": 0.2176134187500054,
          "durationTicks": 383,
          "midi": 53,
          "name": "F3",
          "ticks": 333360,
          "time": 198.2725615,
          "velocity": 0.7559055118110236
        },
        {
          "duration": 0.2176134187500054,
          "durationTicks": 383,
          "midi": 57,
          "name": "A3",
          "ticks": 333360,
          "time": 198.2725615,
          "velocity": 0.7559055118110236
        },
        {
          "duration": 0.2176134187500054,
          "durationTicks": 383,
          "midi": 62,
          "name": "D4",
          "ticks": 333360,
          "time": 198.2725615,
          "velocity": 0.7559055118110236
        },
        {
          "duration": 0.25852246875001583,
          "durationTicks": 455,
          "midi": 37,
          "name": "C#2",
          "ticks": 333840,
          "time": 198.5452885,
          "velocity": 0.7559055118110236
        },
        {
          "duration": 0.25852246875001583,
          "durationTicks": 455,
          "midi": 49,
          "name": "C#3",
          "ticks": 333840,
          "time": 198.5452885,
          "velocity": 0.7559055118110236
        },
        {
          "duration": 0.2176134187500054,
          "durationTicks": 383,
          "midi": 53,
          "name": "F3",
          "ticks": 334320,
          "time": 198.8180155,
          "velocity": 0.7559055118110236
        },
        {
          "duration": 0.2176134187500054,
          "durationTicks": 383,
          "midi": 58,
          "name": "A#3",
          "ticks": 334320,
          "time": 198.8180155,
          "velocity": 0.7559055118110236
        },
        {
          "duration": 0.2176134187500054,
          "durationTicks": 383,
          "midi": 61,
          "name": "C#4",
          "ticks": 334320,
          "time": 198.8180155,
          "velocity": 0.7559055118110236
        },
        {
          "duration": 0.2585224687499874,
          "durationTicks": 455,
          "midi": 36,
          "name": "C2",
          "ticks": 334800,
          "time": 199.0907425,
          "velocity": 0.7559055118110236
        },
        {
          "duration": 0.2585224687499874,
          "durationTicks": 455,
          "midi": 48,
          "name": "C3",
          "ticks": 334800,
          "time": 199.0907425,
          "velocity": 0.7559055118110236
        },
        {
          "duration": 0.25852246875001583,
          "durationTicks": 455,
          "midi": 34,
          "name": "A#1",
          "ticks": 335280,
          "time": 199.3634695,
          "velocity": 0.7559055118110236
        },
        {
          "duration": 0.25852246875001583,
          "durationTicks": 455,
          "midi": 46,
          "name": "A#2",
          "ticks": 335280,
          "time": 199.3634695,
          "velocity": 0.7559055118110236
        },
        {
          "duration": 0.2585224687499874,
          "durationTicks": 455,
          "midi": 33,
          "name": "A1",
          "ticks": 335760,
          "time": 199.6361965,
          "velocity": 0.7559055118110236
        },
        {
          "duration": 0.2585224687499874,
          "durationTicks": 455,
          "midi": 45,
          "name": "A2",
          "ticks": 335760,
          "time": 199.6361965,
          "velocity": 0.7559055118110236
        },
        {
          "duration": 0.10852261874998703,
          "durationTicks": 191,
          "midi": 52,
          "name": "E3",
          "ticks": 336240,
          "time": 199.90892350000001,
          "velocity": 0.7559055118110236
        },
        {
          "duration": 0.10852261874998703,
          "durationTicks": 191,
          "midi": 57,
          "name": "A3",
          "ticks": 336240,
          "time": 199.90892350000001,
          "velocity": 0.7559055118110236
        },
        {
          "duration": 0.10852261874998703,
          "durationTicks": 191,
          "midi": 60,
          "name": "C4",
          "ticks": 336240,
          "time": 199.90892350000001,
          "velocity": 0.7559055118110236
        },
        {
          "duration": 0.2585224687499874,
          "durationTicks": 455,
          "midi": 45,
          "name": "A2",
          "ticks": 336480,
          "time": 200.045287,
          "velocity": 0.7559055118110236
        },
        {
          "duration": 0.12897714374997804,
          "durationTicks": 227,
          "midi": 45,
          "name": "A2",
          "ticks": 336960,
          "time": 200.318014,
          "velocity": 0.7559055118110236
        },
        {
          "duration": 0.21761341874997697,
          "durationTicks": 383,
          "midi": 52,
          "name": "E3",
          "ticks": 337200,
          "time": 200.45437750000002,
          "velocity": 0.7559055118110236
        },
        {
          "duration": 0.21761341874997697,
          "durationTicks": 383,
          "midi": 57,
          "name": "A3",
          "ticks": 337200,
          "time": 200.45437750000002,
          "velocity": 0.7559055118110236
        },
        {
          "duration": 0.21761341874997697,
          "durationTicks": 383,
          "midi": 60,
          "name": "C4",
          "ticks": 337200,
          "time": 200.45437750000002,
          "velocity": 0.7559055118110236
        },
        {
          "duration": 0.25852246875001583,
          "durationTicks": 455,
          "midi": 38,
          "name": "D2",
          "ticks": 337680,
          "time": 200.7271045,
          "velocity": 0.7559055118110236
        },
        {
          "duration": 0.25852246875001583,
          "durationTicks": 455,
          "midi": 50,
          "name": "D3",
          "ticks": 337680,
          "time": 200.7271045,
          "velocity": 0.7559055118110236
        },
        {
          "duration": 0.10852261875001545,
          "durationTicks": 191,
          "midi": 53,
          "name": "F3",
          "ticks": 338160,
          "time": 200.9998315,
          "velocity": 0.7559055118110236
        },
        {
          "duration": 0.10852261875001545,
          "durationTicks": 191,
          "midi": 57,
          "name": "A3",
          "ticks": 338160,
          "time": 200.9998315,
          "velocity": 0.7559055118110236
        },
        {
          "duration": 0.10852261875001545,
          "durationTicks": 191,
          "midi": 62,
          "name": "D4",
          "ticks": 338160,
          "time": 200.9998315,
          "velocity": 0.7559055118110236
        },
        {
          "duration": 0.25852246875001583,
          "durationTicks": 455,
          "midi": 50,
          "name": "D3",
          "ticks": 338400,
          "time": 201.136195,
          "velocity": 0.7559055118110236
        },
        {
          "duration": 0.12897714374997804,
          "durationTicks": 227,
          "midi": 50,
          "name": "D3",
          "ticks": 338880,
          "time": 201.40892200000002,
          "velocity": 0.7559055118110236
        },
        {
          "duration": 0.2176134187500054,
          "durationTicks": 383,
          "midi": 53,
          "name": "F3",
          "ticks": 339120,
          "time": 201.5452855,
          "velocity": 0.7559055118110236
        },
        {
          "duration": 0.2176134187500054,
          "durationTicks": 383,
          "midi": 57,
          "name": "A3",
          "ticks": 339120,
          "time": 201.5452855,
          "velocity": 0.7559055118110236
        },
        {
          "duration": 0.2176134187500054,
          "durationTicks": 383,
          "midi": 62,
          "name": "D4",
          "ticks": 339120,
          "time": 201.5452855,
          "velocity": 0.7559055118110236
        },
        {
          "duration": 0.25852246875001583,
          "durationTicks": 455,
          "midi": 43,
          "name": "G2",
          "ticks": 339600,
          "time": 201.8180125,
          "velocity": 0.7559055118110236
        },
        {
          "duration": 0.25852246875001583,
          "durationTicks": 455,
          "midi": 55,
          "name": "G3",
          "ticks": 339600,
          "time": 201.8180125,
          "velocity": 0.7559055118110236
        },
        {
          "duration": 0.10852261875001545,
          "durationTicks": 191,
          "midi": 55,
          "name": "G3",
          "ticks": 340080,
          "time": 202.0907395,
          "velocity": 0.7559055118110236
        },
        {
          "duration": 0.10852261875001545,
          "durationTicks": 191,
          "midi": 58,
          "name": "A#3",
          "ticks": 340080,
          "time": 202.0907395,
          "velocity": 0.7559055118110236
        },
        {
          "duration": 0.10852261875001545,
          "durationTicks": 191,
          "midi": 62,
          "name": "D4",
          "ticks": 340080,
          "time": 202.0907395,
          "velocity": 0.7559055118110236
        },
        {
          "duration": 0.25852246875001583,
          "durationTicks": 455,
          "midi": 43,
          "name": "G2",
          "ticks": 340320,
          "time": 202.227103,
          "velocity": 0.7559055118110236
        },
        {
          "duration": 0.12897714375000646,
          "durationTicks": 227,
          "midi": 43,
          "name": "G2",
          "ticks": 340800,
          "time": 202.49983,
          "velocity": 0.7559055118110236
        },
        {
          "duration": 0.2176134187500054,
          "durationTicks": 383,
          "midi": 55,
          "name": "G3",
          "ticks": 341040,
          "time": 202.6361935,
          "velocity": 0.7559055118110236
        },
        {
          "duration": 0.2176134187500054,
          "durationTicks": 383,
          "midi": 58,
          "name": "A#3",
          "ticks": 341040,
          "time": 202.6361935,
          "velocity": 0.7559055118110236
        },
        {
          "duration": 0.2176134187500054,
          "durationTicks": 383,
          "midi": 62,
          "name": "D4",
          "ticks": 341040,
          "time": 202.6361935,
          "velocity": 0.7559055118110236
        },
        {
          "duration": 0.21761341874997697,
          "durationTicks": 383,
          "midi": 55,
          "name": "G3",
          "ticks": 341520,
          "time": 202.90892050000002,
          "velocity": 0.7559055118110236
        },
        {
          "duration": 0.21761341874997697,
          "durationTicks": 383,
          "midi": 60,
          "name": "C4",
          "ticks": 341520,
          "time": 202.90892050000002,
          "velocity": 0.7559055118110236
        },
        {
          "duration": 0.21761341874997697,
          "durationTicks": 383,
          "midi": 64,
          "name": "E4",
          "ticks": 341520,
          "time": 202.90892050000002,
          "velocity": 0.7559055118110236
        },
        {
          "duration": 0.2176134187500054,
          "durationTicks": 383,
          "midi": 36,
          "name": "C2",
          "ticks": 342000,
          "time": 203.1816475,
          "velocity": 0.7559055118110236
        },
        {
          "duration": 0.2176134187500054,
          "durationTicks": 383,
          "midi": 48,
          "name": "C3",
          "ticks": 342000,
          "time": 203.1816475,
          "velocity": 0.7559055118110236
        },
        {
          "duration": 0.2176134187500054,
          "durationTicks": 383,
          "midi": 36,
          "name": "C2",
          "ticks": 342480,
          "time": 203.4543745,
          "velocity": 0.7559055118110236
        },
        {
          "duration": 0.2176134187500054,
          "durationTicks": 383,
          "midi": 48,
          "name": "C3",
          "ticks": 342480,
          "time": 203.4543745,
          "velocity": 0.7559055118110236
        },
        {
          "duration": 0.21761341874997697,
          "durationTicks": 383,
          "midi": 36,
          "name": "C2",
          "ticks": 342960,
          "time": 203.7271015,
          "velocity": 0.7559055118110236
        },
        {
          "duration": 0.21761341874997697,
          "durationTicks": 383,
          "midi": 48,
          "name": "C3",
          "ticks": 342960,
          "time": 203.7271015,
          "velocity": 0.7559055118110236
        },
        {
          "duration": 0.2585224687499874,
          "durationTicks": 455,
          "midi": 34,
          "name": "A#1",
          "ticks": 343440,
          "time": 203.9998285,
          "velocity": 0.7559055118110236
        },
        {
          "duration": 0.2585224687499874,
          "durationTicks": 455,
          "midi": 46,
          "name": "A#2",
          "ticks": 343440,
          "time": 203.9998285,
          "velocity": 0.7559055118110236
        },
        {
          "duration": 0.10852261874998703,
          "durationTicks": 191,
          "midi": 53,
          "name": "F3",
          "ticks": 343920,
          "time": 204.2725555,
          "velocity": 0.7559055118110236
        },
        {
          "duration": 0.10852261874998703,
          "durationTicks": 191,
          "midi": 58,
          "name": "A#3",
          "ticks": 343920,
          "time": 204.2725555,
          "velocity": 0.7559055118110236
        },
        {
          "duration": 0.10852261874998703,
          "durationTicks": 191,
          "midi": 62,
          "name": "D4",
          "ticks": 343920,
          "time": 204.2725555,
          "velocity": 0.7559055118110236
        },
        {
          "duration": 0.2585224687499874,
          "durationTicks": 455,
          "midi": 46,
          "name": "A#2",
          "ticks": 344160,
          "time": 204.40891900000003,
          "velocity": 0.7559055118110236
        },
        {
          "duration": 0.12897714375000646,
          "durationTicks": 227,
          "midi": 46,
          "name": "A#2",
          "ticks": 344640,
          "time": 204.681646,
          "velocity": 0.7559055118110236
        },
        {
          "duration": 0.21761341874997697,
          "durationTicks": 383,
          "midi": 53,
          "name": "F3",
          "ticks": 344880,
          "time": 204.81800950000002,
          "velocity": 0.7559055118110236
        },
        {
          "duration": 0.21761341874997697,
          "durationTicks": 383,
          "midi": 58,
          "name": "A#3",
          "ticks": 344880,
          "time": 204.81800950000002,
          "velocity": 0.7559055118110236
        },
        {
          "duration": 0.21761341874997697,
          "durationTicks": 383,
          "midi": 62,
          "name": "D4",
          "ticks": 344880,
          "time": 204.81800950000002,
          "velocity": 0.7559055118110236
        },
        {
          "duration": 0.25852246875001583,
          "durationTicks": 455,
          "midi": 33,
          "name": "A1",
          "ticks": 345360,
          "time": 205.0907365,
          "velocity": 0.7559055118110236
        },
        {
          "duration": 0.25852246875001583,
          "durationTicks": 455,
          "midi": 45,
          "name": "A2",
          "ticks": 345360,
          "time": 205.0907365,
          "velocity": 0.7559055118110236
        },
        {
          "duration": 0.10852261874998703,
          "durationTicks": 191,
          "midi": 52,
          "name": "E3",
          "ticks": 345840,
          "time": 205.36346350000002,
          "velocity": 0.7559055118110236
        },
        {
          "duration": 0.10852261874998703,
          "durationTicks": 191,
          "midi": 55,
          "name": "G3",
          "ticks": 345840,
          "time": 205.36346350000002,
          "velocity": 0.7559055118110236
        },
        {
          "duration": 0.10852261874998703,
          "durationTicks": 191,
          "midi": 61,
          "name": "C#4",
          "ticks": 345840,
          "time": 205.36346350000002,
          "velocity": 0.7559055118110236
        },
        {
          "duration": 0.2585224687499874,
          "durationTicks": 455,
          "midi": 45,
          "name": "A2",
          "ticks": 346080,
          "time": 205.499827,
          "velocity": 0.7559055118110236
        },
        {
          "duration": 0.12897714374997804,
          "durationTicks": 227,
          "midi": 45,
          "name": "A2",
          "ticks": 346560,
          "time": 205.772554,
          "velocity": 0.7559055118110236
        },
        {
          "duration": 0.2176134187500054,
          "durationTicks": 383,
          "midi": 52,
          "name": "E3",
          "ticks": 346800,
          "time": 205.9089175,
          "velocity": 0.7559055118110236
        },
        {
          "duration": 0.2176134187500054,
          "durationTicks": 383,
          "midi": 55,
          "name": "G3",
          "ticks": 346800,
          "time": 205.9089175,
          "velocity": 0.7559055118110236
        },
        {
          "duration": 0.2176134187500054,
          "durationTicks": 383,
          "midi": 61,
          "name": "C#4",
          "ticks": 346800,
          "time": 205.9089175,
          "velocity": 0.7559055118110236
        },
        {
          "duration": 0.25852246875001583,
          "durationTicks": 455,
          "midi": 38,
          "name": "D2",
          "ticks": 347280,
          "time": 206.1816445,
          "velocity": 0.7559055118110236
        },
        {
          "duration": 0.25852246875001583,
          "durationTicks": 455,
          "midi": 50,
          "name": "D3",
          "ticks": 347280,
          "time": 206.1816445,
          "velocity": 0.7559055118110236
        },
        {
          "duration": 0.10852261875001545,
          "durationTicks": 191,
          "midi": 53,
          "name": "F3",
          "ticks": 347760,
          "time": 206.4543715,
          "velocity": 0.7559055118110236
        },
        {
          "duration": 0.10852261875001545,
          "durationTicks": 191,
          "midi": 57,
          "name": "A3",
          "ticks": 347760,
          "time": 206.4543715,
          "velocity": 0.7559055118110236
        },
        {
          "duration": 0.10852261875001545,
          "durationTicks": 191,
          "midi": 62,
          "name": "D4",
          "ticks": 347760,
          "time": 206.4543715,
          "velocity": 0.7559055118110236
        },
        {
          "duration": 0.25852246875001583,
          "durationTicks": 455,
          "midi": 50,
          "name": "D3",
          "ticks": 348000,
          "time": 206.590735,
          "velocity": 0.7559055118110236
        },
        {
          "duration": 0.12897714375000646,
          "durationTicks": 227,
          "midi": 50,
          "name": "D3",
          "ticks": 348480,
          "time": 206.863462,
          "velocity": 0.7559055118110236
        },
        {
          "duration": 0.21761341875003382,
          "durationTicks": 383,
          "midi": 53,
          "name": "F3",
          "ticks": 348720,
          "time": 206.9998255,
          "velocity": 0.7559055118110236
        },
        {
          "duration": 0.21761341875003382,
          "durationTicks": 383,
          "midi": 57,
          "name": "A3",
          "ticks": 348720,
          "time": 206.9998255,
          "velocity": 0.7559055118110236
        },
        {
          "duration": 0.21761341875003382,
          "durationTicks": 383,
          "midi": 62,
          "name": "D4",
          "ticks": 348720,
          "time": 206.9998255,
          "velocity": 0.7559055118110236
        },
        {
          "duration": 0.2585224687499874,
          "durationTicks": 455,
          "midi": 43,
          "name": "G2",
          "ticks": 349200,
          "time": 207.27255250000002,
          "velocity": 0.7559055118110236
        },
        {
          "duration": 0.2585224687499874,
          "durationTicks": 455,
          "midi": 55,
          "name": "G3",
          "ticks": 349200,
          "time": 207.27255250000002,
          "velocity": 0.7559055118110236
        },
        {
          "duration": 0.10852261875001545,
          "durationTicks": 191,
          "midi": 53,
          "name": "F3",
          "ticks": 349680,
          "time": 207.5452795,
          "velocity": 0.7559055118110236
        },
        {
          "duration": 0.10852261875001545,
          "durationTicks": 191,
          "midi": 59,
          "name": "B3",
          "ticks": 349680,
          "time": 207.5452795,
          "velocity": 0.7559055118110236
        },
        {
          "duration": 0.10852261875001545,
          "durationTicks": 191,
          "midi": 62,
          "name": "D4",
          "ticks": 349680,
          "time": 207.5452795,
          "velocity": 0.7559055118110236
        },
        {
          "duration": 0.25852246875001583,
          "durationTicks": 455,
          "midi": 43,
          "name": "G2",
          "ticks": 349920,
          "time": 207.681643,
          "velocity": 0.7559055118110236
        },
        {
          "duration": 0.12897714375000646,
          "durationTicks": 227,
          "midi": 43,
          "name": "G2",
          "ticks": 350400,
          "time": 207.95437,
          "velocity": 0.7559055118110236
        },
        {
          "duration": 0.2176134187500054,
          "durationTicks": 383,
          "midi": 53,
          "name": "F3",
          "ticks": 350640,
          "time": 208.0907335,
          "velocity": 0.7559055118110236
        },
        {
          "duration": 0.2176134187500054,
          "durationTicks": 383,
          "midi": 59,
          "name": "B3",
          "ticks": 350640,
          "time": 208.0907335,
          "velocity": 0.7559055118110236
        },
        {
          "duration": 0.2176134187500054,
          "durationTicks": 383,
          "midi": 62,
          "name": "D4",
          "ticks": 350640,
          "time": 208.0907335,
          "velocity": 0.7559055118110236
        },
        {
          "duration": 0.2585224687499874,
          "durationTicks": 455,
          "midi": 46,
          "name": "A#2",
          "ticks": 351120,
          "time": 208.3634605,
          "velocity": 0.7559055118110236
        },
        {
          "duration": 0.2585224687499874,
          "durationTicks": 455,
          "midi": 58,
          "name": "A#3",
          "ticks": 351120,
          "time": 208.3634605,
          "velocity": 0.7559055118110236
        },
        {
          "duration": 0.6471584437499587,
          "durationTicks": 1139,
          "midi": 48,
          "name": "C3",
          "ticks": 351840,
          "time": 208.77255100000002,
          "velocity": 0.7559055118110236
        },
        {
          "duration": 0.6471584437499587,
          "durationTicks": 1139,
          "midi": 60,
          "name": "C4",
          "ticks": 351840,
          "time": 208.77255100000002,
          "velocity": 0.7559055118110236
        },
        {
          "duration": 0.25852246875001583,
          "durationTicks": 455,
          "midi": 45,
          "name": "A2",
          "ticks": 353040,
          "time": 209.4543685,
          "velocity": 0.7559055118110236
        },
        {
          "duration": 0.25852246875001583,
          "durationTicks": 455,
          "midi": 57,
          "name": "A3",
          "ticks": 353040,
          "time": 209.4543685,
          "velocity": 0.7559055118110236
        },
        {
          "duration": 0.6471584437499871,
          "durationTicks": 1139,
          "midi": 44,
          "name": "G#2",
          "ticks": 353760,
          "time": 209.863459,
          "velocity": 0.7559055118110236
        },
        {
          "duration": 0.6471584437499871,
          "durationTicks": 1139,
          "midi": 56,
          "name": "G#3",
          "ticks": 353760,
          "time": 209.863459,
          "velocity": 0.7559055118110236
        },
        {
          "duration": 0.25852246875001583,
          "durationTicks": 455,
          "midi": 43,
          "name": "G2",
          "ticks": 354960,
          "time": 210.5452765,
          "velocity": 0.7559055118110236
        },
        {
          "duration": 0.25852246875001583,
          "durationTicks": 455,
          "midi": 55,
          "name": "G3",
          "ticks": 354960,
          "time": 210.5452765,
          "velocity": 0.7559055118110236
        },
        {
          "duration": 0.25852246875001583,
          "durationTicks": 455,
          "midi": 42,
          "name": "F#2",
          "ticks": 355920,
          "time": 211.0907305,
          "velocity": 0.6929133858267716
        },
        {
          "duration": 0.25852246875001583,
          "durationTicks": 455,
          "midi": 54,
          "name": "F#3",
          "ticks": 355920,
          "time": 211.0907305,
          "velocity": 0.6929133858267716
        },
        {
          "duration": 0.2585224687499874,
          "durationTicks": 455,
          "midi": 42,
          "name": "F#2",
          "ticks": 356400,
          "time": 211.3634575,
          "velocity": 0.6614173228346457
        },
        {
          "duration": 0.2585224687499874,
          "durationTicks": 455,
          "midi": 54,
          "name": "F#3",
          "ticks": 356400,
          "time": 211.3634575,
          "velocity": 0.6614173228346457
        },
        {
          "duration": 0.5176131187499777,
          "durationTicks": 911,
          "midi": 41,
          "name": "F2",
          "ticks": 356880,
          "time": 211.6361845,
          "velocity": 0.6299212598425197
        },
        {
          "duration": 0.5176131187499777,
          "durationTicks": 911,
          "midi": 53,
          "name": "F3",
          "ticks": 356880,
          "time": 211.6361845,
          "velocity": 0.6299212598425197
        }
      ],
      "endOfTrackTicks": 357792
    }
  ]
}
