{
  "header": {
    "keySignatures": [],
    "meta": [],
    "name": "",
    "ppq": 96,
    "tempos": [
      {
        "bpm": 154.000154000154,
        "ticks": 0
      }
    ],
    "timeSignatures": [
      {
        "ticks": 0,
        "timeSignature": [
          4,
          4
        ],
        "measures": 0
      }
    ]
  },
  "tracks": [
    {
      "channel": 0,
      "controlChanges": {},
      "pitchBends": [],
      "instrument": {
        "family": "piano",
        "number": 0,
        "name": "acoustic grand piano"
      },
      "name": "",
      "notes": [],
      "endOfTrackTicks": 0
    },
    {
      "channel": 0,
      "controlChanges": {},
      "pitchBends": [],
      "instrument": {
        "family": "piano",
        "number": 0,
        "name": "acoustic grand piano"
      },
      "name": "NOTE",
      "notes": [],
      "endOfTrackTicks": 0
    },
    {
      "channel": 0,
      "controlChanges": {},
      "pitchBends": [],
      "instrument": {
        "family": "piano",
        "number": 0,
        "name": "acoustic grand piano"
      },
      "name": "VOZ",
      "notes": [],
      "endOfTrackTicks": 0
    },
    {
      "channel": 0,
      "controlChanges": {},
      "pitchBends": [],
      "instrument": {
        "family": "piano",
        "number": 0,
        "name": "acoustic grand piano"
      },
      "name": "BASS",
      "notes": [],
      "endOfTrackTicks": 0
    },
    {
      "channel": 0,
      "controlChanges": {
        "6": [
          {
            "number": 6,
            "ticks": 0,
            "time": 0,
            "value": 0.09448818897637795
          },
          {
            "number": 6,
            "ticks": 0,
            "time": 0,
            "value": 0.09448818897637795
          },
          {
            "number": 6,
            "ticks": 0,
            "time": 0,
            "value": 0.09448818897637795
          },
          {
            "number": 6,
            "ticks": 58728,
            "time": 238.3439175,
            "value": 0.09448818897637795
          },
          {
            "number": 6,
            "ticks": 58865,
            "time": 238.89992343750004,
            "value": 0.09448818897637795
          }
        ],
        "7": [
          {
            "number": 7,
            "ticks": 0,
            "time": 0,
            "value": 0.7874015748031497
          },
          {
            "number": 7,
            "ticks": 0,
            "time": 0,
            "value": 0.7874015748031497
          },
          {
            "number": 7,
            "ticks": 0,
            "time": 0,
            "value": 0.7874015748031497
          },
          {
            "number": 7,
            "ticks": 0,
            "time": 0,
            "value": 0.7874015748031497
          },
          {
            "number": 7,
            "ticks": 58728,
            "time": 238.3439175,
            "value": 0.7874015748031497
          },
          {
            "number": 7,
            "ticks": 58865,
            "time": 238.89992343750004,
            "value": 0.7874015748031497
          }
        ],
        "10": [
          {
            "number": 10,
            "ticks": 0,
            "time": 0,
            "value": 0.5039370078740157
          },
          {
            "number": 10,
            "ticks": 0,
            "time": 0,
            "value": 0.5039370078740157
          },
          {
            "number": 10,
            "ticks": 0,
            "time": 0,
            "value": 0.5039370078740157
          },
          {
            "number": 10,
            "ticks": 0,
            "time": 0,
            "value": 0.5039370078740157
          },
          {
            "number": 10,
            "ticks": 58728,
            "time": 238.3439175,
            "value": 0.5039370078740157
          },
          {
            "number": 10,
            "ticks": 58865,
            "time": 238.89992343750004,
            "value": 0.5039370078740157
          }
        ],
        "100": [
          {
            "number": 100,
            "ticks": 0,
            "time": 0,
            "value": 0
          },
          {
            "number": 100,
            "ticks": 0,
            "time": 0,
            "value": 0
          },
          {
            "number": 100,
            "ticks": 0,
            "time": 0,
            "value": 0
          },
          {
            "number": 100,
            "ticks": 58728,
            "time": 238.3439175,
            "value": 0
          },
          {
            "number": 100,
            "ticks": 58865,
            "time": 238.89992343750004,
            "value": 0
          }
        ],
        "101": [
          {
            "number": 101,
            "ticks": 0,
            "time": 0,
            "value": 0
          },
          {
            "number": 101,
            "ticks": 0,
            "time": 0,
            "value": 0
          },
          {
            "number": 101,
            "ticks": 0,
            "time": 0,
            "value": 0
          },
          {
            "number": 101,
            "ticks": 58728,
            "time": 238.3439175,
            "value": 0
          },
          {
            "number": 101,
            "ticks": 58865,
            "time": 238.89992343750004,
            "value": 0
          }
        ]
      },
      "pitchBends": [
        {
          "ticks": 0,
          "time": 0,
          "value": 0
        },
        {
          "ticks": 0,
          "time": 0,
          "value": 0
        },
        {
          "ticks": 0,
          "time": 0,
          "value": 0
        },
        {
          "ticks": 0,
          "time": 0,
          "value": 0
        },
        {
          "ticks": 58728,
          "time": 238.3439175,
          "value": 0
        },
        {
          "ticks": 58865,
          "time": 238.89992343750004,
          "value": 0
        }
      ],
      "instrument": {
        "family": "piano",
        "number": 0,
        "name": "acoustic grand piano"
      },
      "name": "NOTE",
      "notes": [
        {
          "duration": 0.04870125,
          "durationTicks": 12,
          "midi": 60,
          "name": "C4",
          "ticks": 0,
          "time": 0,
          "velocity": 0.7637795275590551
        },
        {
          "duration": 0.04870125,
          "durationTicks": 12,
          "midi": 61,
          "name": "C#4",
          "ticks": 12,
          "time": 0.04870125,
          "velocity": 0.8582677165354331
        },
        {
          "duration": 0.194805,
          "durationTicks": 48,
          "midi": 57,
          "name": "A3",
          "ticks": 24,
          "time": 0.0974025,
          "velocity": 1
        },
        {
          "duration": 0.194805,
          "durationTicks": 48,
          "midi": 62,
          "name": "D4",
          "ticks": 24,
          "time": 0.0974025,
          "velocity": 1
        },
        {
          "duration": 0.194805,
          "durationTicks": 48,
          "midi": 62,
          "name": "D4",
          "ticks": 96,
          "time": 0.38961,
          "velocity": 1
        },
        {
          "duration": 0.194805,
          "durationTicks": 48,
          "midi": 57,
          "name": "A3",
          "ticks": 96,
          "time": 0.38961,
          "velocity": 1
        },
        {
          "duration": 0.19480500000000012,
          "durationTicks": 48,
          "midi": 55,
          "name": "G3",
          "ticks": 168,
          "time": 0.6818175,
          "velocity": 1
        },
        {
          "duration": 0.19480500000000012,
          "durationTicks": 48,
          "midi": 60,
          "name": "C4",
          "ticks": 168,
          "time": 0.6818175,
          "velocity": 1
        },
        {
          "duration": 0.1948049999999999,
          "durationTicks": 48,
          "midi": 62,
          "name": "D4",
          "ticks": 216,
          "time": 0.8766225000000001,
          "velocity": 1
        },
        {
          "duration": 0.1948049999999999,
          "durationTicks": 48,
          "midi": 57,
          "name": "A3",
          "ticks": 216,
          "time": 0.8766225000000001,
          "velocity": 1
        },
        {
          "duration": 0.1948049999999999,
          "durationTicks": 48,
          "midi": 57,
          "name": "A3",
          "ticks": 288,
          "time": 1.16883,
          "velocity": 1
        },
        {
          "duration": 0.1948049999999999,
          "durationTicks": 48,
          "midi": 62,
          "name": "D4",
          "ticks": 288,
          "time": 1.16883,
          "velocity": 1
        },
        {
          "duration": 0.19480500000000012,
          "durationTicks": 48,
          "midi": 60,
          "name": "C4",
          "ticks": 360,
          "time": 1.4610375,
          "velocity": 1
        },
        {
          "duration": 0.19480500000000012,
          "durationTicks": 48,
          "midi": 55,
          "name": "G3",
          "ticks": 360,
          "time": 1.4610375,
          "velocity": 1
        },
        {
          "duration": 0.1948049999999999,
          "durationTicks": 48,
          "midi": 57,
          "name": "A3",
          "ticks": 408,
          "time": 1.6558425,
          "velocity": 1
        },
        {
          "duration": 1.16883,
          "durationTicks": 288,
          "midi": 65,
          "name": "F4",
          "ticks": 408,
          "time": 1.6558425,
          "velocity": 1
        },
        {
          "duration": 0.1948049999999999,
          "durationTicks": 48,
          "midi": 62,
          "name": "D4",
          "ticks": 408,
          "time": 1.6558425,
          "velocity": 1
        },
        {
          "duration": 0.1948049999999999,
          "durationTicks": 48,
          "midi": 57,
          "name": "A3",
          "ticks": 480,
          "time": 1.94805,
          "velocity": 1
        },
        {
          "duration": 0.1948049999999999,
          "durationTicks": 48,
          "midi": 62,
          "name": "D4",
          "ticks": 480,
          "time": 1.94805,
          "velocity": 1
        },
        {
          "duration": 0.19480499999999967,
          "durationTicks": 48,
          "midi": 55,
          "name": "G3",
          "ticks": 552,
          "time": 2.2402575000000002,
          "velocity": 1
        },
        {
          "duration": 0.19480499999999967,
          "durationTicks": 48,
          "midi": 60,
          "name": "C4",
          "ticks": 552,
          "time": 2.2402575000000002,
          "velocity": 1
        },
        {
          "duration": 0.19480500000000012,
          "durationTicks": 48,
          "midi": 57,
          "name": "A3",
          "ticks": 600,
          "time": 2.4350625,
          "velocity": 1
        },
        {
          "duration": 0.19480500000000012,
          "durationTicks": 48,
          "midi": 62,
          "name": "D4",
          "ticks": 600,
          "time": 2.4350625,
          "velocity": 1
        },
        {
          "duration": 0.3896099999999998,
          "durationTicks": 96,
          "midi": 55,
          "name": "G3",
          "ticks": 696,
          "time": 2.8246725,
          "velocity": 1
        },
        {
          "duration": 0.3896099999999998,
          "durationTicks": 96,
          "midi": 65,
          "name": "F4",
          "ticks": 696,
          "time": 2.8246725,
          "velocity": 1
        },
        {
          "duration": 0.3896099999999998,
          "durationTicks": 96,
          "midi": 67,
          "name": "G4",
          "ticks": 696,
          "time": 2.8246725,
          "velocity": 1
        },
        {
          "duration": 0.19480500000000012,
          "durationTicks": 48,
          "midi": 57,
          "name": "A3",
          "ticks": 792,
          "time": 3.2142825,
          "velocity": 1
        },
        {
          "duration": 1.5584400000000005,
          "durationTicks": 384,
          "midi": 69,
          "name": "A4",
          "ticks": 792,
          "time": 3.2142825,
          "velocity": 1
        },
        {
          "duration": 0.19480500000000012,
          "durationTicks": 48,
          "midi": 62,
          "name": "D4",
          "ticks": 792,
          "time": 3.2142825,
          "velocity": 1
        },
        {
          "duration": 0.19480499999999967,
          "durationTicks": 48,
          "midi": 62,
          "name": "D4",
          "ticks": 864,
          "time": 3.5064900000000003,
          "velocity": 1
        },
        {
          "duration": 0.19480499999999967,
          "durationTicks": 48,
          "midi": 57,
          "name": "A3",
          "ticks": 864,
          "time": 3.5064900000000003,
          "velocity": 1
        },
        {
          "duration": 0.19480499999999967,
          "durationTicks": 48,
          "midi": 55,
          "name": "G3",
          "ticks": 936,
          "time": 3.7986975000000003,
          "velocity": 1
        },
        {
          "duration": 0.19480499999999967,
          "durationTicks": 48,
          "midi": 60,
          "name": "C4",
          "ticks": 936,
          "time": 3.7986975000000003,
          "velocity": 1
        },
        {
          "duration": 0.19480500000000056,
          "durationTicks": 48,
          "midi": 62,
          "name": "D4",
          "ticks": 984,
          "time": 3.9935025,
          "velocity": 1
        },
        {
          "duration": 0.19480500000000056,
          "durationTicks": 48,
          "midi": 57,
          "name": "A3",
          "ticks": 984,
          "time": 3.9935025,
          "velocity": 1
        },
        {
          "duration": 0.19480500000000056,
          "durationTicks": 48,
          "midi": 57,
          "name": "A3",
          "ticks": 1056,
          "time": 4.28571,
          "velocity": 1
        },
        {
          "duration": 0.19480500000000056,
          "durationTicks": 48,
          "midi": 62,
          "name": "D4",
          "ticks": 1056,
          "time": 4.28571,
          "velocity": 1
        },
        {
          "duration": 0.19480500000000056,
          "durationTicks": 48,
          "midi": 60,
          "name": "C4",
          "ticks": 1128,
          "time": 4.5779175,
          "velocity": 1
        },
        {
          "duration": 0.19480500000000056,
          "durationTicks": 48,
          "midi": 55,
          "name": "G3",
          "ticks": 1128,
          "time": 4.5779175,
          "velocity": 1
        },
        {
          "duration": 0.19480499999999967,
          "durationTicks": 48,
          "midi": 62,
          "name": "D4",
          "ticks": 1176,
          "time": 4.7727225,
          "velocity": 1
        },
        {
          "duration": 0.19480499999999967,
          "durationTicks": 48,
          "midi": 69,
          "name": "A4",
          "ticks": 1176,
          "time": 4.7727225,
          "velocity": 1
        },
        {
          "duration": 0.19480499999999967,
          "durationTicks": 48,
          "midi": 74,
          "name": "D5",
          "ticks": 1176,
          "time": 4.7727225,
          "velocity": 1
        },
        {
          "duration": 0.024350625000000292,
          "durationTicks": 6,
          "midi": 72,
          "name": "C5",
          "ticks": 1224,
          "time": 4.9675275,
          "velocity": 0.9606299212598425
        },
        {
          "duration": 0.024350624999999404,
          "durationTicks": 6,
          "midi": 71,
          "name": "B4",
          "ticks": 1230,
          "time": 4.991878125,
          "velocity": 0.905511811023622
        },
        {
          "duration": 0.024350625000000292,
          "durationTicks": 6,
          "midi": 69,
          "name": "A4",
          "ticks": 1236,
          "time": 5.01622875,
          "velocity": 0.84251968503937
        },
        {
          "duration": 0.024350625000000292,
          "durationTicks": 6,
          "midi": 67,
          "name": "G4",
          "ticks": 1242,
          "time": 5.040579375,
          "velocity": 0.7795275590551181
        },
        {
          "duration": 0.024350624999999404,
          "durationTicks": 6,
          "midi": 65,
          "name": "F4",
          "ticks": 1248,
          "time": 5.06493,
          "velocity": 0.7244094488188977
        },
        {
          "duration": 0.024350625000000292,
          "durationTicks": 6,
          "midi": 64,
          "name": "E4",
          "ticks": 1254,
          "time": 5.089280625,
          "velocity": 0.6614173228346457
        },
        {
          "duration": 0.19480500000000056,
          "durationTicks": 48,
          "midi": 72,
          "name": "C5",
          "ticks": 1272,
          "time": 5.1623325,
          "velocity": 1
        },
        {
          "duration": 0.19480500000000056,
          "durationTicks": 48,
          "midi": 67,
          "name": "G4",
          "ticks": 1272,
          "time": 5.1623325,
          "velocity": 1
        },
        {
          "duration": 0.19480500000000056,
          "durationTicks": 48,
          "midi": 65,
          "name": "F4",
          "ticks": 1272,
          "time": 5.1623325,
          "velocity": 1
        },
        {
          "duration": 0.19480500000000056,
          "durationTicks": 48,
          "midi": 77,
          "name": "F5",
          "ticks": 1272,
          "time": 5.1623325,
          "velocity": 1
        },
        {
          "duration": 0.19480500000000056,
          "durationTicks": 48,
          "midi": 74,
          "name": "D5",
          "ticks": 1368,
          "time": 5.5519425,
          "velocity": 1
        },
        {
          "duration": 0.19480500000000056,
          "durationTicks": 48,
          "midi": 67,
          "name": "G4",
          "ticks": 1368,
          "time": 5.5519425,
          "velocity": 1
        },
        {
          "duration": 0.19480500000000056,
          "durationTicks": 48,
          "midi": 79,
          "name": "G5",
          "ticks": 1368,
          "time": 5.5519425,
          "velocity": 1
        },
        {
          "duration": 0.19480499999999967,
          "durationTicks": 48,
          "midi": 76,
          "name": "E5",
          "ticks": 1464,
          "time": 5.9415525,
          "velocity": 1
        },
        {
          "duration": 0.19480499999999967,
          "durationTicks": 48,
          "midi": 69,
          "name": "A4",
          "ticks": 1464,
          "time": 5.9415525,
          "velocity": 1
        },
        {
          "duration": 0.19480499999999967,
          "durationTicks": 48,
          "midi": 81,
          "name": "A5",
          "ticks": 1464,
          "time": 5.9415525,
          "velocity": 1
        },
        {
          "duration": 0.19480499999999967,
          "durationTicks": 48,
          "midi": 67,
          "name": "G4",
          "ticks": 1560,
          "time": 6.3311625000000005,
          "velocity": 1
        },
        {
          "duration": 0.19480499999999967,
          "durationTicks": 48,
          "midi": 62,
          "name": "D4",
          "ticks": 1560,
          "time": 6.3311625000000005,
          "velocity": 1
        },
        {
          "duration": 0.19480499999999967,
          "durationTicks": 48,
          "midi": 69,
          "name": "A4",
          "ticks": 1608,
          "time": 6.5259675,
          "velocity": 1
        },
        {
          "duration": 0.19480499999999967,
          "durationTicks": 48,
          "midi": 64,
          "name": "E4",
          "ticks": 1608,
          "time": 6.5259675,
          "velocity": 1
        },
        {
          "duration": 0.09740250000000028,
          "durationTicks": 24,
          "midi": 62,
          "name": "D4",
          "ticks": 1656,
          "time": 6.7207725,
          "velocity": 1
        },
        {
          "duration": 0.09740250000000028,
          "durationTicks": 24,
          "midi": 60,
          "name": "C4",
          "ticks": 1680,
          "time": 6.818175,
          "velocity": 1
        },
        {
          "duration": 0.09740250000000028,
          "durationTicks": 24,
          "midi": 62,
          "name": "D4",
          "ticks": 1704,
          "time": 6.9155775,
          "velocity": 1
        },
        {
          "duration": 0.09740249999999939,
          "durationTicks": 24,
          "midi": 60,
          "name": "C4",
          "ticks": 1728,
          "time": 7.012980000000001,
          "velocity": 1
        },
        {
          "duration": 0.19480500000000056,
          "durationTicks": 48,
          "midi": 62,
          "name": "D4",
          "ticks": 1752,
          "time": 7.1103825,
          "velocity": 1
        },
        {
          "duration": 0.19480500000000056,
          "durationTicks": 48,
          "midi": 67,
          "name": "G4",
          "ticks": 1752,
          "time": 7.1103825,
          "velocity": 1
        },
        {
          "duration": 0.19480499999999967,
          "durationTicks": 48,
          "midi": 69,
          "name": "A4",
          "ticks": 1800,
          "time": 7.305187500000001,
          "velocity": 1
        },
        {
          "duration": 0.19480499999999967,
          "durationTicks": 48,
          "midi": 64,
          "name": "E4",
          "ticks": 1800,
          "time": 7.305187500000001,
          "velocity": 1
        },
        {
          "duration": 0.09740250000000028,
          "durationTicks": 24,
          "midi": 62,
          "name": "D4",
          "ticks": 1848,
          "time": 7.4999925,
          "velocity": 1
        },
        {
          "duration": 0.09740249999999939,
          "durationTicks": 24,
          "midi": 60,
          "name": "C4",
          "ticks": 1872,
          "time": 7.597395000000001,
          "velocity": 1
        },
        {
          "duration": 0.09740250000000028,
          "durationTicks": 24,
          "midi": 62,
          "name": "D4",
          "ticks": 1896,
          "time": 7.6947975,
          "velocity": 1
        },
        {
          "duration": 0.09740250000000028,
          "durationTicks": 24,
          "midi": 60,
          "name": "C4",
          "ticks": 1920,
          "time": 7.7922,
          "velocity": 1
        },
        {
          "duration": 0.19480500000000056,
          "durationTicks": 48,
          "midi": 62,
          "name": "D4",
          "ticks": 1944,
          "time": 7.8896025000000005,
          "velocity": 1
        },
        {
          "duration": 0.19480500000000056,
          "durationTicks": 48,
          "midi": 67,
          "name": "G4",
          "ticks": 1944,
          "time": 7.8896025000000005,
          "velocity": 1
        },
        {
          "duration": 0.19480499999999878,
          "durationTicks": 48,
          "midi": 64,
          "name": "E4",
          "ticks": 1992,
          "time": 8.084407500000001,
          "velocity": 1
        },
        {
          "duration": 0.19480499999999878,
          "durationTicks": 48,
          "midi": 69,
          "name": "A4",
          "ticks": 1992,
          "time": 8.084407500000001,
          "velocity": 1
        },
        {
          "duration": 0.09740250000000117,
          "durationTicks": 24,
          "midi": 62,
          "name": "D4",
          "ticks": 2040,
          "time": 8.2792125,
          "velocity": 1
        },
        {
          "duration": 0.09740249999999939,
          "durationTicks": 24,
          "midi": 60,
          "name": "C4",
          "ticks": 2064,
          "time": 8.376615000000001,
          "velocity": 1
        },
        {
          "duration": 0.09740249999999939,
          "durationTicks": 24,
          "midi": 62,
          "name": "D4",
          "ticks": 2088,
          "time": 8.4740175,
          "velocity": 1
        },
        {
          "duration": 0.048701250000000584,
          "durationTicks": 12,
          "midi": 60,
          "name": "C4",
          "ticks": 2112,
          "time": 8.57142,
          "velocity": 1
        },
        {
          "duration": 0.048701250000000584,
          "durationTicks": 12,
          "midi": 62,
          "name": "D4",
          "ticks": 2124,
          "time": 8.62012125,
          "velocity": 1
        },
        {
          "duration": 0.19480499999999878,
          "durationTicks": 48,
          "midi": 65,
          "name": "F4",
          "ticks": 2136,
          "time": 8.668822500000001,
          "velocity": 1
        },
        {
          "duration": 0.09740250000000117,
          "durationTicks": 24,
          "midi": 64,
          "name": "E4",
          "ticks": 2184,
          "time": 8.8636275,
          "velocity": 1
        },
        {
          "duration": 0.04870124999999881,
          "durationTicks": 12,
          "midi": 65,
          "name": "F4",
          "ticks": 2208,
          "time": 8.961030000000001,
          "velocity": 1
        },
        {
          "duration": 0.048701250000000584,
          "durationTicks": 12,
          "midi": 64,
          "name": "E4",
          "ticks": 2220,
          "time": 9.00973125,
          "velocity": 1
        },
        {
          "duration": 0.19480500000000056,
          "durationTicks": 48,
          "midi": 62,
          "name": "D4",
          "ticks": 2232,
          "time": 9.0584325,
          "velocity": 1
        },
        {
          "duration": 0.19480499999999878,
          "durationTicks": 48,
          "midi": 60,
          "name": "C4",
          "ticks": 2280,
          "time": 9.253237500000001,
          "velocity": 1
        },
        {
          "duration": 0.19480500000000056,
          "durationTicks": 48,
          "midi": 67,
          "name": "G4",
          "ticks": 2328,
          "time": 9.4480425,
          "velocity": 1
        },
        {
          "duration": 0.19480500000000056,
          "durationTicks": 48,
          "midi": 62,
          "name": "D4",
          "ticks": 2328,
          "time": 9.4480425,
          "velocity": 1
        },
        {
          "duration": 0.19480500000000056,
          "durationTicks": 48,
          "midi": 69,
          "name": "A4",
          "ticks": 2376,
          "time": 9.6428475,
          "velocity": 1
        },
        {
          "duration": 0.19480500000000056,
          "durationTicks": 48,
          "midi": 64,
          "name": "E4",
          "ticks": 2376,
          "time": 9.6428475,
          "velocity": 1
        },
        {
          "duration": 0.09740249999999939,
          "durationTicks": 24,
          "midi": 62,
          "name": "D4",
          "ticks": 2424,
          "time": 9.8376525,
          "velocity": 1
        },
        {
          "duration": 0.09740249999999939,
          "durationTicks": 24,
          "midi": 60,
          "name": "C4",
          "ticks": 2448,
          "time": 9.935055,
          "velocity": 1
        },
        {
          "duration": 0.09740250000000117,
          "durationTicks": 24,
          "midi": 62,
          "name": "D4",
          "ticks": 2472,
          "time": 10.0324575,
          "velocity": 1
        },
        {
          "duration": 0.09740249999999939,
          "durationTicks": 24,
          "midi": 60,
          "name": "C4",
          "ticks": 2496,
          "time": 10.12986,
          "velocity": 1
        },
        {
          "duration": 0.19480500000000056,
          "durationTicks": 48,
          "midi": 67,
          "name": "G4",
          "ticks": 2520,
          "time": 10.2272625,
          "velocity": 1
        },
        {
          "duration": 0.19480500000000056,
          "durationTicks": 48,
          "midi": 62,
          "name": "D4",
          "ticks": 2520,
          "time": 10.2272625,
          "velocity": 1
        },
        {
          "duration": 0.19480499999999878,
          "durationTicks": 48,
          "midi": 69,
          "name": "A4",
          "ticks": 2568,
          "time": 10.4220675,
          "velocity": 1
        },
        {
          "duration": 0.19480499999999878,
          "durationTicks": 48,
          "midi": 64,
          "name": "E4",
          "ticks": 2568,
          "time": 10.4220675,
          "velocity": 1
        },
        {
          "duration": 0.09740250000000117,
          "durationTicks": 24,
          "midi": 62,
          "name": "D4",
          "ticks": 2616,
          "time": 10.6168725,
          "velocity": 1
        },
        {
          "duration": 0.09740249999999939,
          "durationTicks": 24,
          "midi": 60,
          "name": "C4",
          "ticks": 2640,
          "time": 10.714275,
          "velocity": 1
        },
        {
          "duration": 0.09740249999999939,
          "durationTicks": 24,
          "midi": 62,
          "name": "D4",
          "ticks": 2664,
          "time": 10.8116775,
          "velocity": 1
        },
        {
          "duration": 0.09740250000000117,
          "durationTicks": 24,
          "midi": 65,
          "name": "F4",
          "ticks": 2688,
          "time": 10.90908,
          "velocity": 1
        },
        {
          "duration": 0.19480500000000056,
          "durationTicks": 48,
          "midi": 67,
          "name": "G4",
          "ticks": 2712,
          "time": 11.0064825,
          "velocity": 1
        },
        {
          "duration": 0.19480500000000056,
          "durationTicks": 48,
          "midi": 62,
          "name": "D4",
          "ticks": 2712,
          "time": 11.0064825,
          "velocity": 1
        },
        {
          "duration": 0.19480499999999878,
          "durationTicks": 48,
          "midi": 69,
          "name": "A4",
          "ticks": 2760,
          "time": 11.201287500000001,
          "velocity": 1
        },
        {
          "duration": 0.19480499999999878,
          "durationTicks": 48,
          "midi": 64,
          "name": "E4",
          "ticks": 2760,
          "time": 11.201287500000001,
          "velocity": 1
        },
        {
          "duration": 0.19480500000000056,
          "durationTicks": 48,
          "midi": 72,
          "name": "C5",
          "ticks": 2808,
          "time": 11.3960925,
          "velocity": 1
        },
        {
          "duration": 0.19480500000000056,
          "durationTicks": 48,
          "midi": 77,
          "name": "F5",
          "ticks": 2856,
          "time": 11.5908975,
          "velocity": 1
        },
        {
          "duration": 0.09740249999999939,
          "durationTicks": 24,
          "midi": 76,
          "name": "E5",
          "ticks": 2904,
          "time": 11.785702500000001,
          "velocity": 1
        },
        {
          "duration": 0.09740249999999939,
          "durationTicks": 24,
          "midi": 77,
          "name": "F5",
          "ticks": 2928,
          "time": 11.883105,
          "velocity": 1
        },
        {
          "duration": 0.09740250000000117,
          "durationTicks": 24,
          "midi": 76,
          "name": "E5",
          "ticks": 2952,
          "time": 11.9805075,
          "velocity": 1
        },
        {
          "duration": 0.09740249999999939,
          "durationTicks": 24,
          "midi": 74,
          "name": "D5",
          "ticks": 2976,
          "time": 12.077910000000001,
          "velocity": 1
        },
        {
          "duration": 0.19480500000000056,
          "durationTicks": 48,
          "midi": 62,
          "name": "D4",
          "ticks": 3000,
          "time": 12.1753125,
          "velocity": 1
        },
        {
          "duration": 0.19480500000000056,
          "durationTicks": 48,
          "midi": 72,
          "name": "C5",
          "ticks": 3000,
          "time": 12.1753125,
          "velocity": 1
        },
        {
          "duration": 0.19480500000000056,
          "durationTicks": 48,
          "midi": 67,
          "name": "G4",
          "ticks": 3000,
          "time": 12.1753125,
          "velocity": 1
        },
        {
          "duration": 0.19480499999999878,
          "durationTicks": 48,
          "midi": 64,
          "name": "E4",
          "ticks": 3048,
          "time": 12.370117500000001,
          "velocity": 1
        },
        {
          "duration": 0.19480499999999878,
          "durationTicks": 48,
          "midi": 69,
          "name": "A4",
          "ticks": 3048,
          "time": 12.370117500000001,
          "velocity": 1
        },
        {
          "duration": 0.19480500000000056,
          "durationTicks": 48,
          "midi": 67,
          "name": "G4",
          "ticks": 3096,
          "time": 12.5649225,
          "velocity": 1
        },
        {
          "duration": 0.19480500000000056,
          "durationTicks": 48,
          "midi": 62,
          "name": "D4",
          "ticks": 3096,
          "time": 12.5649225,
          "velocity": 1
        },
        {
          "duration": 0.19480500000000056,
          "durationTicks": 48,
          "midi": 69,
          "name": "A4",
          "ticks": 3144,
          "time": 12.7597275,
          "velocity": 1
        },
        {
          "duration": 0.19480500000000056,
          "durationTicks": 48,
          "midi": 64,
          "name": "E4",
          "ticks": 3144,
          "time": 12.7597275,
          "velocity": 1
        },
        {
          "duration": 0.09740249999999939,
          "durationTicks": 24,
          "midi": 62,
          "name": "D4",
          "ticks": 3192,
          "time": 12.954532500000001,
          "velocity": 1
        },
        {
          "duration": 0.09740249999999939,
          "durationTicks": 24,
          "midi": 60,
          "name": "C4",
          "ticks": 3216,
          "time": 13.051935,
          "velocity": 1
        },
        {
          "duration": 0.09740250000000117,
          "durationTicks": 24,
          "midi": 62,
          "name": "D4",
          "ticks": 3240,
          "time": 13.1493375,
          "velocity": 1
        },
        {
          "duration": 0.09740249999999939,
          "durationTicks": 24,
          "midi": 60,
          "name": "C4",
          "ticks": 3264,
          "time": 13.24674,
          "velocity": 1
        },
        {
          "duration": 0.19480500000000056,
          "durationTicks": 48,
          "midi": 67,
          "name": "G4",
          "ticks": 3288,
          "time": 13.3441425,
          "velocity": 1
        },
        {
          "duration": 0.19480500000000056,
          "durationTicks": 48,
          "midi": 62,
          "name": "D4",
          "ticks": 3288,
          "time": 13.3441425,
          "velocity": 1
        },
        {
          "duration": 0.19480499999999878,
          "durationTicks": 48,
          "midi": 69,
          "name": "A4",
          "ticks": 3336,
          "time": 13.5389475,
          "velocity": 1
        },
        {
          "duration": 0.19480499999999878,
          "durationTicks": 48,
          "midi": 64,
          "name": "E4",
          "ticks": 3336,
          "time": 13.5389475,
          "velocity": 1
        },
        {
          "duration": 0.09740250000000117,
          "durationTicks": 24,
          "midi": 62,
          "name": "D4",
          "ticks": 3384,
          "time": 13.7337525,
          "velocity": 1
        },
        {
          "duration": 0.09740249999999939,
          "durationTicks": 24,
          "midi": 60,
          "name": "C4",
          "ticks": 3408,
          "time": 13.831155,
          "velocity": 1
        },
        {
          "duration": 0.09740250000000117,
          "durationTicks": 24,
          "midi": 62,
          "name": "D4",
          "ticks": 3432,
          "time": 13.9285575,
          "velocity": 1
        },
        {
          "duration": 0.09740249999999939,
          "durationTicks": 24,
          "midi": 60,
          "name": "C4",
          "ticks": 3456,
          "time": 14.025960000000001,
          "velocity": 1
        },
        {
          "duration": 0.19480500000000056,
          "durationTicks": 48,
          "midi": 67,
          "name": "G4",
          "ticks": 3480,
          "time": 14.1233625,
          "velocity": 1
        },
        {
          "duration": 0.19480500000000056,
          "durationTicks": 48,
          "midi": 62,
          "name": "D4",
          "ticks": 3480,
          "time": 14.1233625,
          "velocity": 1
        },
        {
          "duration": 0.19480499999999878,
          "durationTicks": 48,
          "midi": 69,
          "name": "A4",
          "ticks": 3528,
          "time": 14.318167500000001,
          "velocity": 1
        },
        {
          "duration": 0.19480499999999878,
          "durationTicks": 48,
          "midi": 64,
          "name": "E4",
          "ticks": 3528,
          "time": 14.318167500000001,
          "velocity": 1
        },
        {
          "duration": 0.09740250000000117,
          "durationTicks": 24,
          "midi": 62,
          "name": "D4",
          "ticks": 3576,
          "time": 14.5129725,
          "velocity": 1
        },
        {
          "duration": 0.09740249999999939,
          "durationTicks": 24,
          "midi": 60,
          "name": "C4",
          "ticks": 3600,
          "time": 14.610375000000001,
          "velocity": 1
        },
        {
          "duration": 0.09740249999999939,
          "durationTicks": 24,
          "midi": 62,
          "name": "D4",
          "ticks": 3624,
          "time": 14.7077775,
          "velocity": 1
        },
        {
          "duration": 0.09740250000000117,
          "durationTicks": 24,
          "midi": 60,
          "name": "C4",
          "ticks": 3648,
          "time": 14.80518,
          "velocity": 1
        },
        {
          "duration": 0.19480499999999878,
          "durationTicks": 48,
          "midi": 60,
          "name": "C4",
          "ticks": 3672,
          "time": 14.902582500000001,
          "velocity": 1
        },
        {
          "duration": 0.19480499999999878,
          "durationTicks": 48,
          "midi": 65,
          "name": "F4",
          "ticks": 3672,
          "time": 14.902582500000001,
          "velocity": 1
        },
        {
          "duration": 0.09740250000000117,
          "durationTicks": 24,
          "midi": 64,
          "name": "E4",
          "ticks": 3720,
          "time": 15.0973875,
          "velocity": 1
        },
        {
          "duration": 0.04870124999999881,
          "durationTicks": 12,
          "midi": 65,
          "name": "F4",
          "ticks": 3744,
          "time": 15.194790000000001,
          "velocity": 1
        },
        {
          "duration": 0.048701250000000584,
          "durationTicks": 12,
          "midi": 64,
          "name": "E4",
          "ticks": 3756,
          "time": 15.24349125,
          "velocity": 1
        },
        {
          "duration": 0.19480500000000056,
          "durationTicks": 48,
          "midi": 62,
          "name": "D4",
          "ticks": 3768,
          "time": 15.2921925,
          "velocity": 1
        },
        {
          "duration": 0.19480499999999878,
          "durationTicks": 48,
          "midi": 60,
          "name": "C4",
          "ticks": 3816,
          "time": 15.486997500000001,
          "velocity": 1
        },
        {
          "duration": 0.19480500000000056,
          "durationTicks": 48,
          "midi": 57,
          "name": "A3",
          "ticks": 3864,
          "time": 15.6818025,
          "velocity": 1
        },
        {
          "duration": 0.19480500000000056,
          "durationTicks": 48,
          "midi": 62,
          "name": "D4",
          "ticks": 3864,
          "time": 15.6818025,
          "velocity": 1
        },
        {
          "duration": 0.09740249999999939,
          "durationTicks": 24,
          "midi": 60,
          "name": "C4",
          "ticks": 3912,
          "time": 15.8766075,
          "velocity": 1
        },
        {
          "duration": 0.09740250000000117,
          "durationTicks": 24,
          "midi": 62,
          "name": "D4",
          "ticks": 3936,
          "time": 15.97401,
          "velocity": 1
        },
        {
          "duration": 0.19480499999999878,
          "durationTicks": 48,
          "midi": 60,
          "name": "C4",
          "ticks": 3960,
          "time": 16.0714125,
          "velocity": 1
        },
        {
          "duration": 0.19480499999999878,
          "durationTicks": 48,
          "midi": 65,
          "name": "F4",
          "ticks": 3960,
          "time": 16.0714125,
          "velocity": 1
        },
        {
          "duration": 0.09740250000000117,
          "durationTicks": 24,
          "midi": 62,
          "name": "D4",
          "ticks": 4008,
          "time": 16.2662175,
          "velocity": 1
        },
        {
          "duration": 0.09740250000000117,
          "durationTicks": 24,
          "midi": 65,
          "name": "F4",
          "ticks": 4032,
          "time": 16.36362,
          "velocity": 1
        },
        {
          "duration": 0.19480499999999878,
          "durationTicks": 48,
          "midi": 64,
          "name": "E4",
          "ticks": 4056,
          "time": 16.461022500000002,
          "velocity": 1
        },
        {
          "duration": 0.19480499999999878,
          "durationTicks": 48,
          "midi": 69,
          "name": "A4",
          "ticks": 4056,
          "time": 16.461022500000002,
          "velocity": 1
        },
        {
          "duration": 0.09740250000000117,
          "durationTicks": 24,
          "midi": 65,
          "name": "F4",
          "ticks": 4104,
          "time": 16.6558275,
          "velocity": 1
        },
        {
          "duration": 0.09740249999999762,
          "durationTicks": 24,
          "midi": 69,
          "name": "A4",
          "ticks": 4128,
          "time": 16.753230000000002,
          "velocity": 1
        },
        {
          "duration": 0.09740250000000117,
          "durationTicks": 24,
          "midi": 72,
          "name": "C5",
          "ticks": 4152,
          "time": 16.8506325,
          "velocity": 1
        },
        {
          "duration": 0.09740250000000117,
          "durationTicks": 24,
          "midi": 77,
          "name": "F5",
          "ticks": 4176,
          "time": 16.948035,
          "velocity": 1
        },
        {
          "duration": 0.09740249999999762,
          "durationTicks": 24,
          "midi": 69,
          "name": "A4",
          "ticks": 4200,
          "time": 17.045437500000002,
          "velocity": 1
        },
        {
          "duration": 0.09740250000000117,
          "durationTicks": 24,
          "midi": 72,
          "name": "C5",
          "ticks": 4224,
          "time": 17.14284,
          "velocity": 1
        },
        {
          "duration": 0.19480499999999878,
          "durationTicks": 48,
          "midi": 77,
          "name": "F5",
          "ticks": 4248,
          "time": 17.2402425,
          "velocity": 1
        },
        {
          "duration": 0.19480499999999878,
          "durationTicks": 48,
          "midi": 72,
          "name": "C5",
          "ticks": 4248,
          "time": 17.2402425,
          "velocity": 1
        },
        {
          "duration": 0.19480500000000234,
          "durationTicks": 48,
          "midi": 72,
          "name": "C5",
          "ticks": 4296,
          "time": 17.4350475,
          "velocity": 1
        },
        {
          "duration": 0.09740250000000117,
          "durationTicks": 24,
          "midi": 76,
          "name": "E5",
          "ticks": 4296,
          "time": 17.4350475,
          "velocity": 1
        },
        {
          "duration": 0.048701250000000584,
          "durationTicks": 12,
          "midi": 77,
          "name": "F5",
          "ticks": 4320,
          "time": 17.53245,
          "velocity": 1
        },
        {
          "duration": 0.048701250000000584,
          "durationTicks": 12,
          "midi": 76,
          "name": "E5",
          "ticks": 4332,
          "time": 17.58115125,
          "velocity": 1
        },
        {
          "duration": 0.19480499999999878,
          "durationTicks": 48,
          "midi": 69,
          "name": "A4",
          "ticks": 4344,
          "time": 17.629852500000002,
          "velocity": 1
        },
        {
          "duration": 0.19480499999999878,
          "durationTicks": 48,
          "midi": 74,
          "name": "D5",
          "ticks": 4344,
          "time": 17.629852500000002,
          "velocity": 1
        },
        {
          "duration": 0.19480499999999878,
          "durationTicks": 48,
          "midi": 72,
          "name": "C5",
          "ticks": 4392,
          "time": 17.8246575,
          "velocity": 1
        },
        {
          "duration": 0.19480499999999878,
          "durationTicks": 48,
          "midi": 69,
          "name": "A4",
          "ticks": 4392,
          "time": 17.8246575,
          "velocity": 1
        },
        {
          "duration": 0.19480500000000234,
          "durationTicks": 48,
          "midi": 74,
          "name": "D5",
          "ticks": 4440,
          "time": 18.0194625,
          "velocity": 1
        },
        {
          "duration": 0.19480500000000234,
          "durationTicks": 48,
          "midi": 69,
          "name": "A4",
          "ticks": 4440,
          "time": 18.0194625,
          "velocity": 1
        },
        {
          "duration": 0.04870124999999703,
          "durationTicks": 12,
          "midi": 72,
          "name": "C5",
          "ticks": 4488,
          "time": 18.214267500000002,
          "velocity": 1
        },
        {
          "duration": 0.048701250000000584,
          "durationTicks": 12,
          "midi": 71,
          "name": "B4",
          "ticks": 4500,
          "time": 18.26296875,
          "velocity": 1
        },
        {
          "duration": 0.09740250000000117,
          "durationTicks": 24,
          "midi": 69,
          "name": "A4",
          "ticks": 4512,
          "time": 18.31167,
          "velocity": 1
        },
        {
          "duration": 0.19480499999999878,
          "durationTicks": 48,
          "midi": 62,
          "name": "D4",
          "ticks": 4536,
          "time": 18.4090725,
          "velocity": 1
        },
        {
          "duration": 0.19480499999999878,
          "durationTicks": 48,
          "midi": 69,
          "name": "A4",
          "ticks": 4536,
          "time": 18.4090725,
          "velocity": 1
        },
        {
          "duration": 0.19480499999999878,
          "durationTicks": 48,
          "midi": 74,
          "name": "D5",
          "ticks": 4536,
          "time": 18.4090725,
          "velocity": 1
        },
        {
          "duration": 0.19480500000000234,
          "durationTicks": 48,
          "midi": 65,
          "name": "F4",
          "ticks": 4584,
          "time": 18.6038775,
          "velocity": 1
        },
        {
          "duration": 0.19480500000000234,
          "durationTicks": 48,
          "midi": 77,
          "name": "F5",
          "ticks": 4584,
          "time": 18.6038775,
          "velocity": 1
        },
        {
          "duration": 0.19480499999999878,
          "durationTicks": 48,
          "midi": 74,
          "name": "D5",
          "ticks": 4632,
          "time": 18.7986825,
          "velocity": 1
        },
        {
          "duration": 0.19480499999999878,
          "durationTicks": 48,
          "midi": 79,
          "name": "G5",
          "ticks": 4632,
          "time": 18.7986825,
          "velocity": 1
        },
        {
          "duration": 0.19480499999999878,
          "durationTicks": 48,
          "midi": 67,
          "name": "G4",
          "ticks": 4632,
          "time": 18.7986825,
          "velocity": 1
        },
        {
          "duration": 0.19480499999999878,
          "durationTicks": 48,
          "midi": 76,
          "name": "E5",
          "ticks": 4680,
          "time": 18.9934875,
          "velocity": 1
        },
        {
          "duration": 0.19480499999999878,
          "durationTicks": 48,
          "midi": 81,
          "name": "A5",
          "ticks": 4680,
          "time": 18.9934875,
          "velocity": 1
        },
        {
          "duration": 0.19480499999999878,
          "durationTicks": 48,
          "midi": 69,
          "name": "A4",
          "ticks": 4680,
          "time": 18.9934875,
          "velocity": 1
        },
        {
          "duration": 0.09740250000000117,
          "durationTicks": 24,
          "midi": 74,
          "name": "D5",
          "ticks": 4728,
          "time": 19.1882925,
          "velocity": 1
        },
        {
          "duration": 0.09740250000000117,
          "durationTicks": 24,
          "midi": 67,
          "name": "G4",
          "ticks": 4752,
          "time": 19.285695,
          "velocity": 1
        },
        {
          "duration": 0.09740250000000117,
          "durationTicks": 24,
          "midi": 72,
          "name": "C5",
          "ticks": 4752,
          "time": 19.285695,
          "velocity": 1
        },
        {
          "duration": 0.09740249999999762,
          "durationTicks": 24,
          "midi": 74,
          "name": "D5",
          "ticks": 4776,
          "time": 19.3830975,
          "velocity": 1
        },
        {
          "duration": 0.09740250000000117,
          "durationTicks": 24,
          "midi": 67,
          "name": "G4",
          "ticks": 4800,
          "time": 19.4805,
          "velocity": 1
        },
        {
          "duration": 0.09740250000000117,
          "durationTicks": 24,
          "midi": 72,
          "name": "C5",
          "ticks": 4800,
          "time": 19.4805,
          "velocity": 1
        },
        {
          "duration": 0.19480499999999878,
          "durationTicks": 48,
          "midi": 74,
          "name": "D5",
          "ticks": 4824,
          "time": 19.5779025,
          "velocity": 1
        },
        {
          "duration": 0.19480499999999878,
          "durationTicks": 48,
          "midi": 79,
          "name": "G5",
          "ticks": 4824,
          "time": 19.5779025,
          "velocity": 1
        },
        {
          "duration": 0.19480499999999878,
          "durationTicks": 48,
          "midi": 67,
          "name": "G4",
          "ticks": 4824,
          "time": 19.5779025,
          "velocity": 1
        },
        {
          "duration": 0.19480500000000234,
          "durationTicks": 48,
          "midi": 76,
          "name": "E5",
          "ticks": 4872,
          "time": 19.7727075,
          "velocity": 1
        },
        {
          "duration": 0.19480500000000234,
          "durationTicks": 48,
          "midi": 81,
          "name": "A5",
          "ticks": 4872,
          "time": 19.7727075,
          "velocity": 1
        },
        {
          "duration": 0.19480500000000234,
          "durationTicks": 48,
          "midi": 69,
          "name": "A4",
          "ticks": 4872,
          "time": 19.7727075,
          "velocity": 1
        },
        {
          "duration": 0.09740249999999762,
          "durationTicks": 24,
          "midi": 74,
          "name": "D5",
          "ticks": 4920,
          "time": 19.9675125,
          "velocity": 1
        },
        {
          "duration": 0.09740250000000117,
          "durationTicks": 24,
          "midi": 67,
          "name": "G4",
          "ticks": 4944,
          "time": 20.064915,
          "velocity": 1
        },
        {
          "duration": 0.09740250000000117,
          "durationTicks": 24,
          "midi": 72,
          "name": "C5",
          "ticks": 4944,
          "time": 20.064915,
          "velocity": 1
        },
        {
          "duration": 0.09740250000000117,
          "durationTicks": 24,
          "midi": 74,
          "name": "D5",
          "ticks": 4968,
          "time": 20.1623175,
          "velocity": 1
        },
        {
          "duration": 0.09740249999999762,
          "durationTicks": 24,
          "midi": 67,
          "name": "G4",
          "ticks": 4992,
          "time": 20.25972,
          "velocity": 1
        },
        {
          "duration": 0.09740249999999762,
          "durationTicks": 24,
          "midi": 72,
          "name": "C5",
          "ticks": 4992,
          "time": 20.25972,
          "velocity": 1
        },
        {
          "duration": 0.19480500000000234,
          "durationTicks": 48,
          "midi": 74,
          "name": "D5",
          "ticks": 5016,
          "time": 20.3571225,
          "velocity": 1
        },
        {
          "duration": 0.19480500000000234,
          "durationTicks": 48,
          "midi": 79,
          "name": "G5",
          "ticks": 5016,
          "time": 20.3571225,
          "velocity": 1
        },
        {
          "duration": 0.19480500000000234,
          "durationTicks": 48,
          "midi": 67,
          "name": "G4",
          "ticks": 5016,
          "time": 20.3571225,
          "velocity": 1
        },
        {
          "duration": 0.19480499999999878,
          "durationTicks": 48,
          "midi": 76,
          "name": "E5",
          "ticks": 5064,
          "time": 20.5519275,
          "velocity": 1
        },
        {
          "duration": 0.19480499999999878,
          "durationTicks": 48,
          "midi": 81,
          "name": "A5",
          "ticks": 5064,
          "time": 20.5519275,
          "velocity": 1
        },
        {
          "duration": 0.19480499999999878,
          "durationTicks": 48,
          "midi": 69,
          "name": "A4",
          "ticks": 5064,
          "time": 20.5519275,
          "velocity": 1
        },
        {
          "duration": 0.09740250000000117,
          "durationTicks": 24,
          "midi": 74,
          "name": "D5",
          "ticks": 5112,
          "time": 20.7467325,
          "velocity": 1
        },
        {
          "duration": 0.09740249999999762,
          "durationTicks": 24,
          "midi": 67,
          "name": "G4",
          "ticks": 5136,
          "time": 20.844135,
          "velocity": 1
        },
        {
          "duration": 0.09740249999999762,
          "durationTicks": 24,
          "midi": 72,
          "name": "C5",
          "ticks": 5136,
          "time": 20.844135,
          "velocity": 1
        },
        {
          "duration": 0.09740250000000117,
          "durationTicks": 24,
          "midi": 74,
          "name": "D5",
          "ticks": 5160,
          "time": 20.9415375,
          "velocity": 1
        },
        {
          "duration": 0.09740250000000117,
          "durationTicks": 24,
          "midi": 67,
          "name": "G4",
          "ticks": 5184,
          "time": 21.03894,
          "velocity": 1
        },
        {
          "duration": 0.09740250000000117,
          "durationTicks": 24,
          "midi": 72,
          "name": "C5",
          "ticks": 5184,
          "time": 21.03894,
          "velocity": 1
        },
        {
          "duration": 0.19480499999999878,
          "durationTicks": 48,
          "midi": 72,
          "name": "C5",
          "ticks": 5208,
          "time": 21.1363425,
          "velocity": 1
        },
        {
          "duration": 0.19480499999999878,
          "durationTicks": 48,
          "midi": 77,
          "name": "F5",
          "ticks": 5208,
          "time": 21.1363425,
          "velocity": 1
        },
        {
          "duration": 0.09740250000000117,
          "durationTicks": 24,
          "midi": 76,
          "name": "E5",
          "ticks": 5256,
          "time": 21.3311475,
          "velocity": 1
        },
        {
          "duration": 0.048701250000000584,
          "durationTicks": 12,
          "midi": 77,
          "name": "F5",
          "ticks": 5280,
          "time": 21.42855,
          "velocity": 1
        },
        {
          "duration": 0.04870124999999703,
          "durationTicks": 12,
          "midi": 76,
          "name": "E5",
          "ticks": 5292,
          "time": 21.477251250000002,
          "velocity": 1
        },
        {
          "duration": 0.19480500000000234,
          "durationTicks": 48,
          "midi": 69,
          "name": "A4",
          "ticks": 5304,
          "time": 21.5259525,
          "velocity": 1
        },
        {
          "duration": 0.19480500000000234,
          "durationTicks": 48,
          "midi": 74,
          "name": "D5",
          "ticks": 5304,
          "time": 21.5259525,
          "velocity": 1
        },
        {
          "duration": 0.19480499999999878,
          "durationTicks": 48,
          "midi": 67,
          "name": "G4",
          "ticks": 5352,
          "time": 21.7207575,
          "velocity": 1
        },
        {
          "duration": 0.19480499999999878,
          "durationTicks": 48,
          "midi": 72,
          "name": "C5",
          "ticks": 5352,
          "time": 21.7207575,
          "velocity": 1
        },
        {
          "duration": 0.19480500000000234,
          "durationTicks": 48,
          "midi": 74,
          "name": "D5",
          "ticks": 5400,
          "time": 21.9155625,
          "velocity": 1
        },
        {
          "duration": 0.19480500000000234,
          "durationTicks": 48,
          "midi": 79,
          "name": "G5",
          "ticks": 5400,
          "time": 21.9155625,
          "velocity": 1
        },
        {
          "duration": 0.19480500000000234,
          "durationTicks": 48,
          "midi": 67,
          "name": "G4",
          "ticks": 5400,
          "time": 21.9155625,
          "velocity": 1
        },
        {
          "duration": 0.19480499999999878,
          "durationTicks": 48,
          "midi": 76,
          "name": "E5",
          "ticks": 5448,
          "time": 22.110367500000002,
          "velocity": 1
        },
        {
          "duration": 0.19480499999999878,
          "durationTicks": 48,
          "midi": 81,
          "name": "A5",
          "ticks": 5448,
          "time": 22.110367500000002,
          "velocity": 1
        },
        {
          "duration": 0.19480499999999878,
          "durationTicks": 48,
          "midi": 69,
          "name": "A4",
          "ticks": 5448,
          "time": 22.110367500000002,
          "velocity": 1
        },
        {
          "duration": 0.09740250000000117,
          "durationTicks": 24,
          "midi": 74,
          "name": "D5",
          "ticks": 5496,
          "time": 22.3051725,
          "velocity": 1
        },
        {
          "duration": 0.09740249999999762,
          "durationTicks": 24,
          "midi": 67,
          "name": "G4",
          "ticks": 5520,
          "time": 22.402575000000002,
          "velocity": 1
        },
        {
          "duration": 0.09740249999999762,
          "durationTicks": 24,
          "midi": 72,
          "name": "C5",
          "ticks": 5520,
          "time": 22.402575000000002,
          "velocity": 1
        },
        {
          "duration": 0.09740250000000117,
          "durationTicks": 24,
          "midi": 74,
          "name": "D5",
          "ticks": 5544,
          "time": 22.4999775,
          "velocity": 1
        },
        {
          "duration": 0.09740250000000117,
          "durationTicks": 24,
          "midi": 67,
          "name": "G4",
          "ticks": 5568,
          "time": 22.59738,
          "velocity": 1
        },
        {
          "duration": 0.09740250000000117,
          "durationTicks": 24,
          "midi": 72,
          "name": "C5",
          "ticks": 5568,
          "time": 22.59738,
          "velocity": 1
        },
        {
          "duration": 0.19480499999999878,
          "durationTicks": 48,
          "midi": 74,
          "name": "D5",
          "ticks": 5592,
          "time": 22.694782500000002,
          "velocity": 1
        },
        {
          "duration": 0.19480499999999878,
          "durationTicks": 48,
          "midi": 79,
          "name": "G5",
          "ticks": 5592,
          "time": 22.694782500000002,
          "velocity": 1
        },
        {
          "duration": 0.19480499999999878,
          "durationTicks": 48,
          "midi": 67,
          "name": "G4",
          "ticks": 5592,
          "time": 22.694782500000002,
          "velocity": 1
        },
        {
          "duration": 0.19480499999999878,
          "durationTicks": 48,
          "midi": 76,
          "name": "E5",
          "ticks": 5640,
          "time": 22.8895875,
          "velocity": 1
        },
        {
          "duration": 0.19480499999999878,
          "durationTicks": 48,
          "midi": 81,
          "name": "A5",
          "ticks": 5640,
          "time": 22.8895875,
          "velocity": 1
        },
        {
          "duration": 0.19480499999999878,
          "durationTicks": 48,
          "midi": 69,
          "name": "A4",
          "ticks": 5640,
          "time": 22.8895875,
          "velocity": 1
        },
        {
          "duration": 0.09740250000000117,
          "durationTicks": 24,
          "midi": 74,
          "name": "D5",
          "ticks": 5688,
          "time": 23.0843925,
          "velocity": 1
        },
        {
          "duration": 0.09740250000000117,
          "durationTicks": 24,
          "midi": 67,
          "name": "G4",
          "ticks": 5712,
          "time": 23.181795,
          "velocity": 1
        },
        {
          "duration": 0.09740250000000117,
          "durationTicks": 24,
          "midi": 72,
          "name": "C5",
          "ticks": 5712,
          "time": 23.181795,
          "velocity": 1
        },
        {
          "duration": 0.09740249999999762,
          "durationTicks": 24,
          "midi": 74,
          "name": "D5",
          "ticks": 5736,
          "time": 23.279197500000002,
          "velocity": 1
        },
        {
          "duration": 0.09740250000000117,
          "durationTicks": 24,
          "midi": 77,
          "name": "F5",
          "ticks": 5760,
          "time": 23.3766,
          "velocity": 1
        },
        {
          "duration": 0.19480499999999878,
          "durationTicks": 48,
          "midi": 74,
          "name": "D5",
          "ticks": 5784,
          "time": 23.4740025,
          "velocity": 1
        },
        {
          "duration": 0.19480499999999878,
          "durationTicks": 48,
          "midi": 79,
          "name": "G5",
          "ticks": 5784,
          "time": 23.4740025,
          "velocity": 1
        },
        {
          "duration": 0.19480499999999878,
          "durationTicks": 48,
          "midi": 67,
          "name": "G4",
          "ticks": 5784,
          "time": 23.4740025,
          "velocity": 1
        },
        {
          "duration": 0.19480500000000234,
          "durationTicks": 48,
          "midi": 77,
          "name": "F5",
          "ticks": 5832,
          "time": 23.6688075,
          "velocity": 1
        },
        {
          "duration": 0.19480500000000234,
          "durationTicks": 48,
          "midi": 81,
          "name": "A5",
          "ticks": 5832,
          "time": 23.6688075,
          "velocity": 1
        },
        {
          "duration": 0.19480500000000234,
          "durationTicks": 48,
          "midi": 69,
          "name": "A4",
          "ticks": 5832,
          "time": 23.6688075,
          "velocity": 1
        },
        {
          "duration": 0.19480499999999878,
          "durationTicks": 48,
          "midi": 77,
          "name": "F5",
          "ticks": 5880,
          "time": 23.863612500000002,
          "velocity": 1
        },
        {
          "duration": 0.19480499999999878,
          "durationTicks": 48,
          "midi": 84,
          "name": "C6",
          "ticks": 5880,
          "time": 23.863612500000002,
          "velocity": 1
        },
        {
          "duration": 0.19480499999999878,
          "durationTicks": 48,
          "midi": 77,
          "name": "F5",
          "ticks": 5928,
          "time": 24.0584175,
          "velocity": 1
        },
        {
          "duration": 0.19480499999999878,
          "durationTicks": 48,
          "midi": 89,
          "name": "F6",
          "ticks": 5928,
          "time": 24.0584175,
          "velocity": 1
        },
        {
          "duration": 0.09740250000000117,
          "durationTicks": 24,
          "midi": 88,
          "name": "E6",
          "ticks": 5976,
          "time": 24.2532225,
          "velocity": 1
        },
        {
          "duration": 0.09740250000000117,
          "durationTicks": 24,
          "midi": 89,
          "name": "F6",
          "ticks": 6000,
          "time": 24.350625,
          "velocity": 1
        },
        {
          "duration": 0.09740249999999762,
          "durationTicks": 24,
          "midi": 88,
          "name": "E6",
          "ticks": 6024,
          "time": 24.448027500000002,
          "velocity": 1
        },
        {
          "duration": 0.09740250000000117,
          "durationTicks": 24,
          "midi": 86,
          "name": "D6",
          "ticks": 6048,
          "time": 24.54543,
          "velocity": 1
        },
        {
          "duration": 0.19480499999999878,
          "durationTicks": 48,
          "midi": 79,
          "name": "G5",
          "ticks": 6072,
          "time": 24.6428325,
          "velocity": 1
        },
        {
          "duration": 0.19480499999999878,
          "durationTicks": 48,
          "midi": 84,
          "name": "C6",
          "ticks": 6072,
          "time": 24.6428325,
          "velocity": 1
        },
        {
          "duration": 0.19480500000000234,
          "durationTicks": 48,
          "midi": 77,
          "name": "F5",
          "ticks": 6120,
          "time": 24.8376375,
          "velocity": 1
        },
        {
          "duration": 0.19480500000000234,
          "durationTicks": 48,
          "midi": 81,
          "name": "A5",
          "ticks": 6120,
          "time": 24.8376375,
          "velocity": 1
        },
        {
          "duration": 0.19480500000000234,
          "durationTicks": 48,
          "midi": 69,
          "name": "A4",
          "ticks": 6120,
          "time": 24.8376375,
          "velocity": 1
        },
        {
          "duration": 0.19480499999999878,
          "durationTicks": 48,
          "midi": 74,
          "name": "D5",
          "ticks": 6168,
          "time": 25.032442500000002,
          "velocity": 1
        },
        {
          "duration": 0.19480499999999878,
          "durationTicks": 48,
          "midi": 79,
          "name": "G5",
          "ticks": 6168,
          "time": 25.032442500000002,
          "velocity": 1
        },
        {
          "duration": 0.19480499999999878,
          "durationTicks": 48,
          "midi": 67,
          "name": "G4",
          "ticks": 6168,
          "time": 25.032442500000002,
          "velocity": 1
        },
        {
          "duration": 0.19480499999999878,
          "durationTicks": 48,
          "midi": 77,
          "name": "F5",
          "ticks": 6216,
          "time": 25.2272475,
          "velocity": 1
        },
        {
          "duration": 0.19480499999999878,
          "durationTicks": 48,
          "midi": 81,
          "name": "A5",
          "ticks": 6216,
          "time": 25.2272475,
          "velocity": 1
        },
        {
          "duration": 0.19480499999999878,
          "durationTicks": 48,
          "midi": 69,
          "name": "A4",
          "ticks": 6216,
          "time": 25.2272475,
          "velocity": 1
        },
        {
          "duration": 0.09740250000000117,
          "durationTicks": 24,
          "midi": 74,
          "name": "D5",
          "ticks": 6264,
          "time": 25.4220525,
          "velocity": 1
        },
        {
          "duration": 0.09740250000000117,
          "durationTicks": 24,
          "midi": 72,
          "name": "C5",
          "ticks": 6288,
          "time": 25.519455,
          "velocity": 1
        },
        {
          "duration": 0.09740249999999762,
          "durationTicks": 24,
          "midi": 74,
          "name": "D5",
          "ticks": 6312,
          "time": 25.616857500000002,
          "velocity": 1
        },
        {
          "duration": 0.09740250000000117,
          "durationTicks": 24,
          "midi": 72,
          "name": "C5",
          "ticks": 6336,
          "time": 25.71426,
          "velocity": 1
        },
        {
          "duration": 0.19480499999999878,
          "durationTicks": 48,
          "midi": 74,
          "name": "D5",
          "ticks": 6360,
          "time": 25.8116625,
          "velocity": 1
        },
        {
          "duration": 0.19480499999999878,
          "durationTicks": 48,
          "midi": 79,
          "name": "G5",
          "ticks": 6360,
          "time": 25.8116625,
          "velocity": 1
        },
        {
          "duration": 0.19480499999999878,
          "durationTicks": 48,
          "midi": 67,
          "name": "G4",
          "ticks": 6360,
          "time": 25.8116625,
          "velocity": 1
        },
        {
          "duration": 0.19480500000000234,
          "durationTicks": 48,
          "midi": 76,
          "name": "E5",
          "ticks": 6408,
          "time": 26.0064675,
          "velocity": 1
        },
        {
          "duration": 0.19480500000000234,
          "durationTicks": 48,
          "midi": 81,
          "name": "A5",
          "ticks": 6408,
          "time": 26.0064675,
          "velocity": 1
        },
        {
          "duration": 0.19480500000000234,
          "durationTicks": 48,
          "midi": 69,
          "name": "A4",
          "ticks": 6408,
          "time": 26.0064675,
          "velocity": 1
        },
        {
          "duration": 0.09740249999999762,
          "durationTicks": 24,
          "midi": 74,
          "name": "D5",
          "ticks": 6456,
          "time": 26.2012725,
          "velocity": 1
        },
        {
          "duration": 0.09740250000000117,
          "durationTicks": 24,
          "midi": 72,
          "name": "C5",
          "ticks": 6480,
          "time": 26.298675,
          "velocity": 1
        },
        {
          "duration": 0.09740250000000117,
          "durationTicks": 24,
          "midi": 74,
          "name": "D5",
          "ticks": 6504,
          "time": 26.3960775,
          "velocity": 1
        },
        {
          "duration": 0.09740249999999762,
          "durationTicks": 24,
          "midi": 72,
          "name": "C5",
          "ticks": 6528,
          "time": 26.49348,
          "velocity": 1
        },
        {
          "duration": 0.19480500000000234,
          "durationTicks": 48,
          "midi": 74,
          "name": "D5",
          "ticks": 6552,
          "time": 26.5908825,
          "velocity": 1
        },
        {
          "duration": 0.19480500000000234,
          "durationTicks": 48,
          "midi": 79,
          "name": "G5",
          "ticks": 6552,
          "time": 26.5908825,
          "velocity": 1
        },
        {
          "duration": 0.19480500000000234,
          "durationTicks": 48,
          "midi": 67,
          "name": "G4",
          "ticks": 6552,
          "time": 26.5908825,
          "velocity": 1
        },
        {
          "duration": 0.19480499999999878,
          "durationTicks": 48,
          "midi": 76,
          "name": "E5",
          "ticks": 6600,
          "time": 26.7856875,
          "velocity": 1
        },
        {
          "duration": 0.19480499999999878,
          "durationTicks": 48,
          "midi": 81,
          "name": "A5",
          "ticks": 6600,
          "time": 26.7856875,
          "velocity": 1
        },
        {
          "duration": 0.19480499999999878,
          "durationTicks": 48,
          "midi": 69,
          "name": "A4",
          "ticks": 6600,
          "time": 26.7856875,
          "velocity": 1
        },
        {
          "duration": 0.09740250000000117,
          "durationTicks": 24,
          "midi": 74,
          "name": "D5",
          "ticks": 6648,
          "time": 26.9804925,
          "velocity": 1
        },
        {
          "duration": 0.09740249999999762,
          "durationTicks": 24,
          "midi": 72,
          "name": "C5",
          "ticks": 6672,
          "time": 27.077895,
          "velocity": 1
        },
        {
          "duration": 0.09740250000000117,
          "durationTicks": 24,
          "midi": 74,
          "name": "D5",
          "ticks": 6696,
          "time": 27.1752975,
          "velocity": 1
        },
        {
          "duration": 0.09740250000000117,
          "durationTicks": 24,
          "midi": 72,
          "name": "C5",
          "ticks": 6720,
          "time": 27.2727,
          "velocity": 1
        },
        {
          "duration": 0.19480499999999878,
          "durationTicks": 48,
          "midi": 72,
          "name": "C5",
          "ticks": 6744,
          "time": 27.3701025,
          "velocity": 1
        },
        {
          "duration": 0.19480499999999878,
          "durationTicks": 48,
          "midi": 77,
          "name": "F5",
          "ticks": 6744,
          "time": 27.3701025,
          "velocity": 1
        },
        {
          "duration": 0.19480499999999878,
          "durationTicks": 48,
          "midi": 72,
          "name": "C5",
          "ticks": 6792,
          "time": 27.5649075,
          "velocity": 1
        },
        {
          "duration": 0.09740250000000117,
          "durationTicks": 24,
          "midi": 76,
          "name": "E5",
          "ticks": 6792,
          "time": 27.5649075,
          "velocity": 1
        },
        {
          "duration": 0.048701250000000584,
          "durationTicks": 12,
          "midi": 77,
          "name": "F5",
          "ticks": 6816,
          "time": 27.66231,
          "velocity": 1
        },
        {
          "duration": 0.04870124999999703,
          "durationTicks": 12,
          "midi": 76,
          "name": "E5",
          "ticks": 6828,
          "time": 27.711011250000002,
          "velocity": 1
        },
        {
          "duration": 0.19480500000000234,
          "durationTicks": 48,
          "midi": 74,
          "name": "D5",
          "ticks": 6840,
          "time": 27.7597125,
          "velocity": 1
        },
        {
          "duration": 0.19480499999999878,
          "durationTicks": 48,
          "midi": 72,
          "name": "C5",
          "ticks": 6888,
          "time": 27.9545175,
          "velocity": 1
        },
        {
          "duration": 0.09740250000000117,
          "durationTicks": 24,
          "midi": 79,
          "name": "G5",
          "ticks": 6936,
          "time": 28.1493225,
          "velocity": 1
        },
        {
          "duration": 0.09740250000000117,
          "durationTicks": 24,
          "midi": 77,
          "name": "F5",
          "ticks": 6960,
          "time": 28.246725,
          "velocity": 1
        },
        {
          "duration": 0.09740249999999762,
          "durationTicks": 24,
          "midi": 81,
          "name": "A5",
          "ticks": 6984,
          "time": 28.344127500000003,
          "velocity": 1
        },
        {
          "duration": 0.09740250000000117,
          "durationTicks": 24,
          "midi": 84,
          "name": "C6",
          "ticks": 7008,
          "time": 28.44153,
          "velocity": 1
        },
        {
          "duration": 0.09740250000000117,
          "durationTicks": 24,
          "midi": 86,
          "name": "D6",
          "ticks": 7032,
          "time": 28.5389325,
          "velocity": 1
        },
        {
          "duration": 0.09740249999999762,
          "durationTicks": 24,
          "midi": 84,
          "name": "C6",
          "ticks": 7056,
          "time": 28.636335000000003,
          "velocity": 1
        },
        {
          "duration": 0.09740250000000117,
          "durationTicks": 24,
          "midi": 81,
          "name": "A5",
          "ticks": 7080,
          "time": 28.7337375,
          "velocity": 1
        },
        {
          "duration": 0.09740250000000117,
          "durationTicks": 24,
          "midi": 79,
          "name": "G5",
          "ticks": 7104,
          "time": 28.83114,
          "velocity": 1
        },
        {
          "duration": 0.19480499999999878,
          "durationTicks": 48,
          "midi": 69,
          "name": "A4",
          "ticks": 7128,
          "time": 28.928542500000002,
          "velocity": 1
        },
        {
          "duration": 0.19480499999999878,
          "durationTicks": 48,
          "midi": 74,
          "name": "D5",
          "ticks": 7128,
          "time": 28.928542500000002,
          "velocity": 1
        },
        {
          "duration": 0.19480499999999878,
          "durationTicks": 48,
          "midi": 72,
          "name": "C5",
          "ticks": 7176,
          "time": 29.1233475,
          "velocity": 1
        },
        {
          "duration": 0.19480499999999878,
          "durationTicks": 48,
          "midi": 77,
          "name": "F5",
          "ticks": 7176,
          "time": 29.1233475,
          "velocity": 1
        },
        {
          "duration": 0.19480500000000234,
          "durationTicks": 48,
          "midi": 74,
          "name": "D5",
          "ticks": 7224,
          "time": 29.3181525,
          "velocity": 1
        },
        {
          "duration": 0.19480500000000234,
          "durationTicks": 48,
          "midi": 67,
          "name": "G4",
          "ticks": 7224,
          "time": 29.3181525,
          "velocity": 1
        },
        {
          "duration": 0.19480500000000234,
          "durationTicks": 48,
          "midi": 79,
          "name": "G5",
          "ticks": 7224,
          "time": 29.3181525,
          "velocity": 1
        },
        {
          "duration": 0.19480499999999878,
          "durationTicks": 48,
          "midi": 76,
          "name": "E5",
          "ticks": 7272,
          "time": 29.512957500000002,
          "velocity": 1
        },
        {
          "duration": 0.19480499999999878,
          "durationTicks": 48,
          "midi": 69,
          "name": "A4",
          "ticks": 7272,
          "time": 29.512957500000002,
          "velocity": 1
        },
        {
          "duration": 0.19480499999999878,
          "durationTicks": 48,
          "midi": 81,
          "name": "A5",
          "ticks": 7272,
          "time": 29.512957500000002,
          "velocity": 1
        },
        {
          "duration": 0.19480499999999878,
          "durationTicks": 48,
          "midi": 62,
          "name": "D4",
          "ticks": 7320,
          "time": 29.7077625,
          "velocity": 1
        },
        {
          "duration": 0.19480499999999878,
          "durationTicks": 48,
          "midi": 74,
          "name": "D5",
          "ticks": 7320,
          "time": 29.7077625,
          "velocity": 1
        },
        {
          "duration": 0.19480499999999878,
          "durationTicks": 48,
          "midi": 69,
          "name": "A4",
          "ticks": 7320,
          "time": 29.7077625,
          "velocity": 1
        },
        {
          "duration": 0.19480499999999878,
          "durationTicks": 48,
          "midi": 62,
          "name": "D4",
          "ticks": 7392,
          "time": 29.99997,
          "velocity": 1
        },
        {
          "duration": 0.19480499999999878,
          "durationTicks": 48,
          "midi": 74,
          "name": "D5",
          "ticks": 7392,
          "time": 29.99997,
          "velocity": 1
        },
        {
          "duration": 0.19480499999999878,
          "durationTicks": 48,
          "midi": 69,
          "name": "A4",
          "ticks": 7392,
          "time": 29.99997,
          "velocity": 1
        },
        {
          "duration": 0.19480499999999878,
          "durationTicks": 48,
          "midi": 60,
          "name": "C4",
          "ticks": 7464,
          "time": 30.2921775,
          "velocity": 1
        },
        {
          "duration": 0.19480499999999878,
          "durationTicks": 48,
          "midi": 72,
          "name": "C5",
          "ticks": 7464,
          "time": 30.2921775,
          "velocity": 1
        },
        {
          "duration": 0.19480499999999878,
          "durationTicks": 48,
          "midi": 67,
          "name": "G4",
          "ticks": 7464,
          "time": 30.2921775,
          "velocity": 1
        },
        {
          "duration": 0.3896100000000011,
          "durationTicks": 96,
          "midi": 62,
          "name": "D4",
          "ticks": 7512,
          "time": 30.4869825,
          "velocity": 1
        },
        {
          "duration": 0.3896100000000011,
          "durationTicks": 96,
          "midi": 74,
          "name": "D5",
          "ticks": 7512,
          "time": 30.4869825,
          "velocity": 1
        },
        {
          "duration": 0.3896100000000011,
          "durationTicks": 96,
          "midi": 69,
          "name": "A4",
          "ticks": 7512,
          "time": 30.4869825,
          "velocity": 1
        },
        {
          "duration": 0.024350625000000292,
          "durationTicks": 6,
          "midi": 72,
          "name": "C5",
          "ticks": 7608,
          "time": 30.8765925,
          "velocity": 0.9212598425196851
        },
        {
          "duration": 0.024350625000000292,
          "durationTicks": 6,
          "midi": 71,
          "name": "B4",
          "ticks": 7614,
          "time": 30.900943125,
          "velocity": 0.8976377952755905
        },
        {
          "duration": 0.024350625000000292,
          "durationTicks": 6,
          "midi": 69,
          "name": "A4",
          "ticks": 7620,
          "time": 30.92529375,
          "velocity": 0.8740157480314961
        },
        {
          "duration": 0.024350625000000292,
          "durationTicks": 6,
          "midi": 67,
          "name": "G4",
          "ticks": 7626,
          "time": 30.949644375000002,
          "velocity": 0.8503937007874016
        },
        {
          "duration": 0.024350625000000292,
          "durationTicks": 6,
          "midi": 65,
          "name": "F4",
          "ticks": 7632,
          "time": 30.973995000000002,
          "velocity": 0.8267716535433071
        },
        {
          "duration": 0.02435062499999674,
          "durationTicks": 6,
          "midi": 64,
          "name": "E4",
          "ticks": 7638,
          "time": 30.998345625000002,
          "velocity": 0.8031496062992126
        },
        {
          "duration": 0.024350625000000292,
          "durationTicks": 6,
          "midi": 62,
          "name": "D4",
          "ticks": 7644,
          "time": 31.02269625,
          "velocity": 0.7795275590551181
        },
        {
          "duration": 0.024350625000000292,
          "durationTicks": 6,
          "midi": 60,
          "name": "C4",
          "ticks": 7650,
          "time": 31.047046875,
          "velocity": 0.7637795275590551
        },
        {
          "duration": 0.024350625000000292,
          "durationTicks": 6,
          "midi": 59,
          "name": "B3",
          "ticks": 7656,
          "time": 31.0713975,
          "velocity": 0.7401574803149606
        },
        {
          "duration": 0.024350625000000292,
          "durationTicks": 6,
          "midi": 57,
          "name": "A3",
          "ticks": 7662,
          "time": 31.095748125,
          "velocity": 0.7165354330708661
        },
        {
          "duration": 0.024350625000000292,
          "durationTicks": 6,
          "midi": 55,
          "name": "G3",
          "ticks": 7668,
          "time": 31.12009875,
          "velocity": 0.6929133858267716
        },
        {
          "duration": 0.19480499999999878,
          "durationTicks": 48,
          "midi": 69,
          "name": "A4",
          "ticks": 7704,
          "time": 31.266202500000002,
          "velocity": 1
        },
        {
          "duration": 0.19480499999999878,
          "durationTicks": 48,
          "midi": 74,
          "name": "D5",
          "ticks": 7704,
          "time": 31.266202500000002,
          "velocity": 1
        },
        {
          "duration": 0.19480500000000234,
          "durationTicks": 48,
          "midi": 69,
          "name": "A4",
          "ticks": 7800,
          "time": 31.6558125,
          "velocity": 1
        },
        {
          "duration": 0.19480500000000234,
          "durationTicks": 48,
          "midi": 74,
          "name": "D5",
          "ticks": 7800,
          "time": 31.6558125,
          "velocity": 1
        },
        {
          "duration": 0.09740250000000117,
          "durationTicks": 24,
          "midi": 69,
          "name": "A4",
          "ticks": 7872,
          "time": 31.94802,
          "velocity": 1
        },
        {
          "duration": 0.19480500000000234,
          "durationTicks": 48,
          "midi": 69,
          "name": "A4",
          "ticks": 7920,
          "time": 32.142825,
          "velocity": 1
        },
        {
          "duration": 0.19480500000000234,
          "durationTicks": 48,
          "midi": 74,
          "name": "D5",
          "ticks": 7920,
          "time": 32.142825,
          "velocity": 1
        },
        {
          "duration": 0.19480500000000234,
          "durationTicks": 48,
          "midi": 69,
          "name": "A4",
          "ticks": 7992,
          "time": 32.4350325,
          "velocity": 1
        },
        {
          "duration": 0.19480500000000234,
          "durationTicks": 48,
          "midi": 74,
          "name": "D5",
          "ticks": 7992,
          "time": 32.4350325,
          "velocity": 1
        },
        {
          "duration": 0.19480500000000234,
          "durationTicks": 48,
          "midi": 72,
          "name": "C5",
          "ticks": 8040,
          "time": 32.6298375,
          "velocity": 1
        },
        {
          "duration": 0.19480499999999523,
          "durationTicks": 48,
          "midi": 70,
          "name": "A#4",
          "ticks": 8088,
          "time": 32.8246425,
          "velocity": 1
        },
        {
          "duration": 0.19480500000000234,
          "durationTicks": 48,
          "midi": 70,
          "name": "A#4",
          "ticks": 8184,
          "time": 33.2142525,
          "velocity": 1
        },
        {
          "duration": 0.19480500000000234,
          "durationTicks": 48,
          "midi": 72,
          "name": "C5",
          "ticks": 8280,
          "time": 33.6038625,
          "velocity": 1
        },
        {
          "duration": 0.19480500000000234,
          "durationTicks": 48,
          "midi": 67,
          "name": "G4",
          "ticks": 8280,
          "time": 33.6038625,
          "velocity": 1
        },
        {
          "duration": 0.19480499999999523,
          "durationTicks": 48,
          "midi": 69,
          "name": "A4",
          "ticks": 8376,
          "time": 33.9934725,
          "velocity": 1
        },
        {
          "duration": 0.19480499999999523,
          "durationTicks": 48,
          "midi": 60,
          "name": "C4",
          "ticks": 8376,
          "time": 33.9934725,
          "velocity": 1
        },
        {
          "duration": 0.19480500000000234,
          "durationTicks": 48,
          "midi": 69,
          "name": "A4",
          "ticks": 8472,
          "time": 34.3830825,
          "velocity": 1
        },
        {
          "duration": 0.19480500000000234,
          "durationTicks": 48,
          "midi": 74,
          "name": "D5",
          "ticks": 8472,
          "time": 34.3830825,
          "velocity": 1
        },
        {
          "duration": 0.19480500000000234,
          "durationTicks": 48,
          "midi": 69,
          "name": "A4",
          "ticks": 8568,
          "time": 34.7726925,
          "velocity": 1
        },
        {
          "duration": 0.19480500000000234,
          "durationTicks": 48,
          "midi": 74,
          "name": "D5",
          "ticks": 8568,
          "time": 34.7726925,
          "velocity": 1
        },
        {
          "duration": 0.09740250000000117,
          "durationTicks": 24,
          "midi": 69,
          "name": "A4",
          "ticks": 8640,
          "time": 35.0649,
          "velocity": 1
        },
        {
          "duration": 0.19480499999999523,
          "durationTicks": 48,
          "midi": 69,
          "name": "A4",
          "ticks": 8688,
          "time": 35.259705000000004,
          "velocity": 1
        },
        {
          "duration": 0.19480499999999523,
          "durationTicks": 48,
          "midi": 74,
          "name": "D5",
          "ticks": 8688,
          "time": 35.259705000000004,
          "velocity": 1
        },
        {
          "duration": 0.19480500000000234,
          "durationTicks": 48,
          "midi": 74,
          "name": "D5",
          "ticks": 8760,
          "time": 35.5519125,
          "velocity": 1
        },
        {
          "duration": 0.19480499999999523,
          "durationTicks": 48,
          "midi": 72,
          "name": "C5",
          "ticks": 8808,
          "time": 35.7467175,
          "velocity": 1
        },
        {
          "duration": 0.19480500000000234,
          "durationTicks": 48,
          "midi": 65,
          "name": "F4",
          "ticks": 8856,
          "time": 35.9415225,
          "velocity": 1
        },
        {
          "duration": 0.19480499999999523,
          "durationTicks": 48,
          "midi": 65,
          "name": "F4",
          "ticks": 8952,
          "time": 36.3311325,
          "velocity": 1
        },
        {
          "duration": 0.19480500000000234,
          "durationTicks": 48,
          "midi": 69,
          "name": "A4",
          "ticks": 9048,
          "time": 36.7207425,
          "velocity": 1
        },
        {
          "duration": 0.19480500000000234,
          "durationTicks": 48,
          "midi": 72,
          "name": "C5",
          "ticks": 9048,
          "time": 36.7207425,
          "velocity": 1
        },
        {
          "duration": 0.19480500000000234,
          "durationTicks": 48,
          "midi": 72,
          "name": "C5",
          "ticks": 9144,
          "time": 37.1103525,
          "velocity": 1
        },
        {
          "duration": 0.19480500000000234,
          "durationTicks": 48,
          "midi": 69,
          "name": "A4",
          "ticks": 9144,
          "time": 37.1103525,
          "velocity": 1
        },
        {
          "duration": 0.19480500000000234,
          "durationTicks": 48,
          "midi": 69,
          "name": "A4",
          "ticks": 9240,
          "time": 37.4999625,
          "velocity": 1
        },
        {
          "duration": 0.19480500000000234,
          "durationTicks": 48,
          "midi": 74,
          "name": "D5",
          "ticks": 9240,
          "time": 37.4999625,
          "velocity": 1
        },
        {
          "duration": 0.19480500000000234,
          "durationTicks": 48,
          "midi": 69,
          "name": "A4",
          "ticks": 9336,
          "time": 37.8895725,
          "velocity": 1
        },
        {
          "duration": 0.19480500000000234,
          "durationTicks": 48,
          "midi": 74,
          "name": "D5",
          "ticks": 9336,
          "time": 37.8895725,
          "velocity": 1
        },
        {
          "duration": 0.09740250000000117,
          "durationTicks": 24,
          "midi": 62,
          "name": "D4",
          "ticks": 9408,
          "time": 38.18178,
          "velocity": 1
        },
        {
          "duration": 0.09740250000000117,
          "durationTicks": 24,
          "midi": 69,
          "name": "A4",
          "ticks": 9408,
          "time": 38.18178,
          "velocity": 1
        },
        {
          "duration": 0.19480500000000234,
          "durationTicks": 48,
          "midi": 69,
          "name": "A4",
          "ticks": 9456,
          "time": 38.376585,
          "velocity": 1
        },
        {
          "duration": 0.19480500000000234,
          "durationTicks": 48,
          "midi": 74,
          "name": "D5",
          "ticks": 9456,
          "time": 38.376585,
          "velocity": 1
        },
        {
          "duration": 0.19480500000000234,
          "durationTicks": 48,
          "midi": 69,
          "name": "A4",
          "ticks": 9528,
          "time": 38.6687925,
          "velocity": 1
        },
        {
          "duration": 0.19480500000000234,
          "durationTicks": 48,
          "midi": 74,
          "name": "D5",
          "ticks": 9528,
          "time": 38.6687925,
          "velocity": 1
        },
        {
          "duration": 0.19480499999999523,
          "durationTicks": 48,
          "midi": 72,
          "name": "C5",
          "ticks": 9576,
          "time": 38.863597500000004,
          "velocity": 1
        },
        {
          "duration": 0.19480500000000234,
          "durationTicks": 48,
          "midi": 65,
          "name": "F4",
          "ticks": 9624,
          "time": 39.0584025,
          "velocity": 1
        },
        {
          "duration": 0.19480500000000234,
          "durationTicks": 48,
          "midi": 70,
          "name": "A#4",
          "ticks": 9624,
          "time": 39.0584025,
          "velocity": 1
        },
        {
          "duration": 0.19480499999999523,
          "durationTicks": 48,
          "midi": 65,
          "name": "F4",
          "ticks": 9720,
          "time": 39.448012500000004,
          "velocity": 1
        },
        {
          "duration": 0.19480499999999523,
          "durationTicks": 48,
          "midi": 70,
          "name": "A#4",
          "ticks": 9720,
          "time": 39.448012500000004,
          "velocity": 1
        },
        {
          "duration": 0.19480500000000234,
          "durationTicks": 48,
          "midi": 65,
          "name": "F4",
          "ticks": 9816,
          "time": 39.8376225,
          "velocity": 1
        },
        {
          "duration": 0.19480500000000234,
          "durationTicks": 48,
          "midi": 64,
          "name": "E4",
          "ticks": 9912,
          "time": 40.2272325,
          "velocity": 1
        },
        {
          "duration": 0.09740250000000117,
          "durationTicks": 24,
          "midi": 69,
          "name": "A4",
          "ticks": 9984,
          "time": 40.51944,
          "velocity": 1
        },
        {
          "duration": 0.19480499999999523,
          "durationTicks": 48,
          "midi": 69,
          "name": "A4",
          "ticks": 10008,
          "time": 40.616842500000004,
          "velocity": 1
        },
        {
          "duration": 0.19480499999999523,
          "durationTicks": 48,
          "midi": 74,
          "name": "D5",
          "ticks": 10008,
          "time": 40.616842500000004,
          "velocity": 1
        },
        {
          "duration": 0.19480500000000234,
          "durationTicks": 48,
          "midi": 69,
          "name": "A4",
          "ticks": 10104,
          "time": 41.0064525,
          "velocity": 1
        },
        {
          "duration": 0.19480500000000234,
          "durationTicks": 48,
          "midi": 74,
          "name": "D5",
          "ticks": 10104,
          "time": 41.0064525,
          "velocity": 1
        },
        {
          "duration": 0.09740250000000117,
          "durationTicks": 24,
          "midi": 69,
          "name": "A4",
          "ticks": 10176,
          "time": 41.29866,
          "velocity": 1
        },
        {
          "duration": 0.19480500000000234,
          "durationTicks": 48,
          "midi": 69,
          "name": "A4",
          "ticks": 10224,
          "time": 41.493465,
          "velocity": 1
        },
        {
          "duration": 0.19480499999999523,
          "durationTicks": 48,
          "midi": 74,
          "name": "D5",
          "ticks": 10296,
          "time": 41.785672500000004,
          "velocity": 1
        },
        {
          "duration": 0.19480500000000234,
          "durationTicks": 48,
          "midi": 72,
          "name": "C5",
          "ticks": 10344,
          "time": 41.9804775,
          "velocity": 1
        },
        {
          "duration": 0.38960999999999757,
          "durationTicks": 96,
          "midi": 65,
          "name": "F4",
          "ticks": 10392,
          "time": 42.1752825,
          "velocity": 1
        },
        {
          "duration": 0.3896100000000047,
          "durationTicks": 96,
          "midi": 65,
          "name": "F4",
          "ticks": 10488,
          "time": 42.5648925,
          "velocity": 1
        },
        {
          "duration": 0.09740250000000117,
          "durationTicks": 24,
          "midi": 72,
          "name": "C5",
          "ticks": 10560,
          "time": 42.8571,
          "velocity": 1
        },
        {
          "duration": 0.38960999999999757,
          "durationTicks": 96,
          "midi": 76,
          "name": "E5",
          "ticks": 10584,
          "time": 42.954502500000004,
          "velocity": 1
        },
        {
          "duration": 0.38960999999999757,
          "durationTicks": 96,
          "midi": 72,
          "name": "C5",
          "ticks": 10584,
          "time": 42.954502500000004,
          "velocity": 1
        },
        {
          "duration": 0.19480499999999523,
          "durationTicks": 48,
          "midi": 72,
          "name": "C5",
          "ticks": 10728,
          "time": 43.538917500000004,
          "velocity": 1
        },
        {
          "duration": 0.3896100000000047,
          "durationTicks": 96,
          "midi": 72,
          "name": "C5",
          "ticks": 10776,
          "time": 43.7337225,
          "velocity": 1
        },
        {
          "duration": 0.3896100000000047,
          "durationTicks": 96,
          "midi": 77,
          "name": "F5",
          "ticks": 10776,
          "time": 43.7337225,
          "velocity": 1
        },
        {
          "duration": 0.38960999999999757,
          "durationTicks": 96,
          "midi": 71,
          "name": "B4",
          "ticks": 10872,
          "time": 44.123332500000004,
          "velocity": 1
        },
        {
          "duration": 0.38960999999999757,
          "durationTicks": 96,
          "midi": 69,
          "name": "A4",
          "ticks": 10968,
          "time": 44.5129425,
          "velocity": 1
        },
        {
          "duration": 0.3896100000000047,
          "durationTicks": 96,
          "midi": 67,
          "name": "G4",
          "ticks": 11064,
          "time": 44.9025525,
          "velocity": 1
        },
        {
          "duration": 0.19480499999999523,
          "durationTicks": 48,
          "midi": 67,
          "name": "G4",
          "ticks": 11160,
          "time": 45.2921625,
          "velocity": 1
        },
        {
          "duration": 0.38960999999999757,
          "durationTicks": 96,
          "midi": 65,
          "name": "F4",
          "ticks": 11160,
          "time": 45.2921625,
          "velocity": 1
        },
        {
          "duration": 0.19480500000000234,
          "durationTicks": 48,
          "midi": 64,
          "name": "E4",
          "ticks": 11256,
          "time": 45.6817725,
          "velocity": 1
        },
        {
          "duration": 0.19480499999999523,
          "durationTicks": 48,
          "midi": 64,
          "name": "E4",
          "ticks": 11304,
          "time": 45.8765775,
          "velocity": 1
        },
        {
          "duration": 0.3896100000000047,
          "durationTicks": 96,
          "midi": 64,
          "name": "E4",
          "ticks": 11352,
          "time": 46.0713825,
          "velocity": 1
        },
        {
          "duration": 0.19480500000000234,
          "durationTicks": 48,
          "midi": 64,
          "name": "E4",
          "ticks": 11544,
          "time": 46.8506025,
          "velocity": 1
        },
        {
          "duration": 0.38960999999999757,
          "durationTicks": 96,
          "midi": 62,
          "name": "D4",
          "ticks": 11544,
          "time": 46.8506025,
          "velocity": 1
        },
        {
          "duration": 0.19480499999999523,
          "durationTicks": 48,
          "midi": 67,
          "name": "G4",
          "ticks": 11592,
          "time": 47.0454075,
          "velocity": 1
        },
        {
          "duration": 0.19480500000000234,
          "durationTicks": 48,
          "midi": 69,
          "name": "A4",
          "ticks": 11640,
          "time": 47.2402125,
          "velocity": 1
        },
        {
          "duration": 0.38960999999999757,
          "durationTicks": 96,
          "midi": 74,
          "name": "D5",
          "ticks": 11736,
          "time": 47.6298225,
          "velocity": 1
        },
        {
          "duration": 0.38960999999999757,
          "durationTicks": 96,
          "midi": 64,
          "name": "E4",
          "ticks": 11736,
          "time": 47.6298225,
          "velocity": 1
        },
        {
          "duration": 0.38960999999999757,
          "durationTicks": 96,
          "midi": 72,
          "name": "C5",
          "ticks": 11832,
          "time": 48.0194325,
          "velocity": 1
        },
        {
          "duration": 0.3896100000000047,
          "durationTicks": 96,
          "midi": 72,
          "name": "C5",
          "ticks": 11928,
          "time": 48.4090425,
          "velocity": 1
        },
        {
          "duration": 0.5844149999999999,
          "durationTicks": 144,
          "midi": 77,
          "name": "F5",
          "ticks": 11928,
          "time": 48.4090425,
          "velocity": 1
        },
        {
          "duration": 0.19480499999999523,
          "durationTicks": 48,
          "midi": 72,
          "name": "C5",
          "ticks": 12024,
          "time": 48.7986525,
          "velocity": 1
        },
        {
          "duration": 0.19480500000000234,
          "durationTicks": 48,
          "midi": 67,
          "name": "G4",
          "ticks": 12072,
          "time": 48.9934575,
          "velocity": 1
        },
        {
          "duration": 0.38960999999999757,
          "durationTicks": 96,
          "midi": 69,
          "name": "A4",
          "ticks": 12120,
          "time": 49.1882625,
          "velocity": 1
        },
        {
          "duration": 0.38960999999999757,
          "durationTicks": 96,
          "midi": 65,
          "name": "F4",
          "ticks": 12120,
          "time": 49.1882625,
          "velocity": 1
        },
        {
          "duration": 0.3896100000000047,
          "durationTicks": 96,
          "midi": 65,
          "name": "F4",
          "ticks": 12216,
          "time": 49.5778725,
          "velocity": 1
        },
        {
          "duration": 0.3896100000000047,
          "durationTicks": 96,
          "midi": 69,
          "name": "A4",
          "ticks": 12216,
          "time": 49.5778725,
          "velocity": 1
        },
        {
          "duration": 0.38960999999999757,
          "durationTicks": 96,
          "midi": 77,
          "name": "F5",
          "ticks": 12312,
          "time": 49.9674825,
          "velocity": 1
        },
        {
          "duration": 0.38960999999999757,
          "durationTicks": 96,
          "midi": 70,
          "name": "A#4",
          "ticks": 12312,
          "time": 49.9674825,
          "velocity": 1
        },
        {
          "duration": 0.3896100000000047,
          "durationTicks": 96,
          "midi": 76,
          "name": "E5",
          "ticks": 12408,
          "time": 50.3570925,
          "velocity": 1
        },
        {
          "duration": 0.3896100000000047,
          "durationTicks": 96,
          "midi": 70,
          "name": "A#4",
          "ticks": 12408,
          "time": 50.3570925,
          "velocity": 1
        },
        {
          "duration": 0.38960999999999757,
          "durationTicks": 96,
          "midi": 74,
          "name": "D5",
          "ticks": 12504,
          "time": 50.746702500000005,
          "velocity": 1
        },
        {
          "duration": 0.38960999999999757,
          "durationTicks": 96,
          "midi": 70,
          "name": "A#4",
          "ticks": 12504,
          "time": 50.746702500000005,
          "velocity": 1
        },
        {
          "duration": 0.38960999999999757,
          "durationTicks": 96,
          "midi": 72,
          "name": "C5",
          "ticks": 12600,
          "time": 51.1363125,
          "velocity": 1
        },
        {
          "duration": 0.38960999999999757,
          "durationTicks": 96,
          "midi": 70,
          "name": "A#4",
          "ticks": 12600,
          "time": 51.1363125,
          "velocity": 1
        },
        {
          "duration": 0.19480500000000234,
          "durationTicks": 48,
          "midi": 69,
          "name": "A4",
          "ticks": 12696,
          "time": 51.5259225,
          "velocity": 1
        },
        {
          "duration": 0.3896100000000047,
          "durationTicks": 96,
          "midi": 65,
          "name": "F4",
          "ticks": 12696,
          "time": 51.5259225,
          "velocity": 1
        },
        {
          "duration": 0.38960999999999757,
          "durationTicks": 96,
          "midi": 65,
          "name": "F4",
          "ticks": 12792,
          "time": 51.915532500000005,
          "velocity": 1
        },
        {
          "duration": 0.38960999999999757,
          "durationTicks": 96,
          "midi": 65,
          "name": "F4",
          "ticks": 12888,
          "time": 52.3051425,
          "velocity": 1
        },
        {
          "duration": 0.19480500000000234,
          "durationTicks": 48,
          "midi": 67,
          "name": "G4",
          "ticks": 12984,
          "time": 52.6947525,
          "velocity": 1
        },
        {
          "duration": 0.3896100000000047,
          "durationTicks": 96,
          "midi": 65,
          "name": "F4",
          "ticks": 12984,
          "time": 52.6947525,
          "velocity": 1
        },
        {
          "duration": 0.19480500000000234,
          "durationTicks": 48,
          "midi": 69,
          "name": "A4",
          "ticks": 13032,
          "time": 52.8895575,
          "velocity": 1
        },
        {
          "duration": 0.19480499999999523,
          "durationTicks": 48,
          "midi": 69,
          "name": "A4",
          "ticks": 13080,
          "time": 53.084362500000005,
          "velocity": 1
        },
        {
          "duration": 0.19480499999999523,
          "durationTicks": 48,
          "midi": 74,
          "name": "D5",
          "ticks": 13080,
          "time": 53.084362500000005,
          "velocity": 1
        },
        {
          "duration": 0.19480500000000234,
          "durationTicks": 48,
          "midi": 69,
          "name": "A4",
          "ticks": 13128,
          "time": 53.2791675,
          "velocity": 1
        },
        {
          "duration": 0.19480500000000234,
          "durationTicks": 48,
          "midi": 74,
          "name": "D5",
          "ticks": 13128,
          "time": 53.2791675,
          "velocity": 1
        },
        {
          "duration": 0.19480499999999523,
          "durationTicks": 48,
          "midi": 69,
          "name": "A4",
          "ticks": 13224,
          "time": 53.668777500000004,
          "velocity": 1
        },
        {
          "duration": 0.19480499999999523,
          "durationTicks": 48,
          "midi": 74,
          "name": "D5",
          "ticks": 13224,
          "time": 53.668777500000004,
          "velocity": 1
        },
        {
          "duration": 0.3896100000000047,
          "durationTicks": 96,
          "midi": 74,
          "name": "D5",
          "ticks": 13272,
          "time": 53.8635825,
          "velocity": 1
        },
        {
          "duration": 0.38960999999999757,
          "durationTicks": 96,
          "midi": 74,
          "name": "D5",
          "ticks": 13368,
          "time": 54.253192500000004,
          "velocity": 1
        },
        {
          "duration": 0.38960999999999757,
          "durationTicks": 96,
          "midi": 69,
          "name": "A4",
          "ticks": 13464,
          "time": 54.6428025,
          "velocity": 1
        },
        {
          "duration": 0.19480500000000234,
          "durationTicks": 48,
          "midi": 76,
          "name": "E5",
          "ticks": 13464,
          "time": 54.6428025,
          "velocity": 1
        },
        {
          "duration": 0.19480500000000234,
          "durationTicks": 48,
          "midi": 76,
          "name": "E5",
          "ticks": 13560,
          "time": 55.0324125,
          "velocity": 1
        },
        {
          "duration": 0.19480500000000234,
          "durationTicks": 48,
          "midi": 69,
          "name": "A4",
          "ticks": 13560,
          "time": 55.0324125,
          "velocity": 1
        },
        {
          "duration": 0.19480500000000234,
          "durationTicks": 48,
          "midi": 76,
          "name": "E5",
          "ticks": 13608,
          "time": 55.2272175,
          "velocity": 1
        },
        {
          "duration": 0.19480500000000234,
          "durationTicks": 48,
          "midi": 69,
          "name": "A4",
          "ticks": 13608,
          "time": 55.2272175,
          "velocity": 1
        },
        {
          "duration": 0.19480500000000234,
          "durationTicks": 48,
          "midi": 50,
          "name": "D3",
          "ticks": 13752,
          "time": 55.8116325,
          "velocity": 1
        },
        {
          "duration": 0.19480500000000234,
          "durationTicks": 48,
          "midi": 57,
          "name": "A3",
          "ticks": 13752,
          "time": 55.8116325,
          "velocity": 1
        },
        {
          "duration": 0.19480499999999523,
          "durationTicks": 48,
          "midi": 53,
          "name": "F3",
          "ticks": 13800,
          "time": 56.006437500000004,
          "velocity": 1
        },
        {
          "duration": 0.19480499999999523,
          "durationTicks": 48,
          "midi": 60,
          "name": "C4",
          "ticks": 13800,
          "time": 56.006437500000004,
          "velocity": 1
        },
        {
          "duration": 0.2922075000000035,
          "durationTicks": 72,
          "midi": 55,
          "name": "G3",
          "ticks": 13848,
          "time": 56.2012425,
          "velocity": 1
        },
        {
          "duration": 0.2922075000000035,
          "durationTicks": 72,
          "midi": 62,
          "name": "D4",
          "ticks": 13848,
          "time": 56.2012425,
          "velocity": 1
        },
        {
          "duration": 0.2922074999999964,
          "durationTicks": 72,
          "midi": 55,
          "name": "G3",
          "ticks": 13920,
          "time": 56.49345,
          "velocity": 1
        },
        {
          "duration": 0.2922074999999964,
          "durationTicks": 72,
          "midi": 62,
          "name": "D4",
          "ticks": 13920,
          "time": 56.49345,
          "velocity": 1
        },
        {
          "duration": 0.19480500000000234,
          "durationTicks": 48,
          "midi": 64,
          "name": "E4",
          "ticks": 13992,
          "time": 56.7856575,
          "velocity": 1
        },
        {
          "duration": 0.19480500000000234,
          "durationTicks": 48,
          "midi": 57,
          "name": "A3",
          "ticks": 13992,
          "time": 56.7856575,
          "velocity": 1
        },
        {
          "duration": 0.38960999999999757,
          "durationTicks": 96,
          "midi": 64,
          "name": "E4",
          "ticks": 14040,
          "time": 56.9804625,
          "velocity": 1
        },
        {
          "duration": 0.38960999999999757,
          "durationTicks": 96,
          "midi": 57,
          "name": "A3",
          "ticks": 14040,
          "time": 56.9804625,
          "velocity": 1
        },
        {
          "duration": 0.19480500000000234,
          "durationTicks": 48,
          "midi": 64,
          "name": "E4",
          "ticks": 14184,
          "time": 57.5648775,
          "velocity": 1
        },
        {
          "duration": 0.19480500000000234,
          "durationTicks": 48,
          "midi": 57,
          "name": "A3",
          "ticks": 14184,
          "time": 57.5648775,
          "velocity": 1
        },
        {
          "duration": 0.19480499999999523,
          "durationTicks": 48,
          "midi": 60,
          "name": "C4",
          "ticks": 14232,
          "time": 57.759682500000004,
          "velocity": 1
        },
        {
          "duration": 0.19480499999999523,
          "durationTicks": 48,
          "midi": 67,
          "name": "G4",
          "ticks": 14232,
          "time": 57.759682500000004,
          "velocity": 1
        },
        {
          "duration": 0.19480500000000234,
          "durationTicks": 48,
          "midi": 57,
          "name": "A3",
          "ticks": 14280,
          "time": 57.9544875,
          "velocity": 1
        },
        {
          "duration": 0.19480500000000234,
          "durationTicks": 48,
          "midi": 62,
          "name": "D4",
          "ticks": 14280,
          "time": 57.9544875,
          "velocity": 1
        },
        {
          "duration": 0.19480500000000234,
          "durationTicks": 48,
          "midi": 55,
          "name": "G3",
          "ticks": 14328,
          "time": 58.1492925,
          "velocity": 1
        },
        {
          "duration": 0.19480500000000234,
          "durationTicks": 48,
          "midi": 62,
          "name": "D4",
          "ticks": 14328,
          "time": 58.1492925,
          "velocity": 1
        },
        {
          "duration": 0.19480499999999523,
          "durationTicks": 48,
          "midi": 60,
          "name": "C4",
          "ticks": 14376,
          "time": 58.344097500000004,
          "velocity": 1
        },
        {
          "duration": 0.19480500000000234,
          "durationTicks": 48,
          "midi": 57,
          "name": "A3",
          "ticks": 14424,
          "time": 58.5389025,
          "velocity": 1
        },
        {
          "duration": 0.19480499999999523,
          "durationTicks": 48,
          "midi": 57,
          "name": "A3",
          "ticks": 14520,
          "time": 58.928512500000004,
          "velocity": 1
        },
        {
          "duration": 0.19480499999999523,
          "durationTicks": 48,
          "midi": 50,
          "name": "D3",
          "ticks": 14520,
          "time": 58.928512500000004,
          "velocity": 1
        },
        {
          "duration": 0.19480500000000234,
          "durationTicks": 48,
          "midi": 60,
          "name": "C4",
          "ticks": 14568,
          "time": 59.1233175,
          "velocity": 1
        },
        {
          "duration": 0.2922075000000035,
          "durationTicks": 72,
          "midi": 55,
          "name": "G3",
          "ticks": 14616,
          "time": 59.3181225,
          "velocity": 1
        },
        {
          "duration": 0.2922075000000035,
          "durationTicks": 72,
          "midi": 62,
          "name": "D4",
          "ticks": 14616,
          "time": 59.3181225,
          "velocity": 1
        },
        {
          "duration": 0.2922074999999964,
          "durationTicks": 72,
          "midi": 55,
          "name": "G3",
          "ticks": 14688,
          "time": 59.610330000000005,
          "velocity": 1
        },
        {
          "duration": 0.2922074999999964,
          "durationTicks": 72,
          "midi": 62,
          "name": "D4",
          "ticks": 14688,
          "time": 59.610330000000005,
          "velocity": 1
        },
        {
          "duration": 0.19480500000000234,
          "durationTicks": 48,
          "midi": 57,
          "name": "A3",
          "ticks": 14760,
          "time": 59.9025375,
          "velocity": 1
        },
        {
          "duration": 0.19480500000000234,
          "durationTicks": 48,
          "midi": 64,
          "name": "E4",
          "ticks": 14760,
          "time": 59.9025375,
          "velocity": 1
        },
        {
          "duration": 0.38960999999999757,
          "durationTicks": 96,
          "midi": 57,
          "name": "A3",
          "ticks": 14808,
          "time": 60.0973425,
          "velocity": 1
        },
        {
          "duration": 0.38960999999999757,
          "durationTicks": 96,
          "midi": 64,
          "name": "E4",
          "ticks": 14808,
          "time": 60.0973425,
          "velocity": 1
        },
        {
          "duration": 0.19480499999999523,
          "durationTicks": 48,
          "midi": 57,
          "name": "A3",
          "ticks": 14952,
          "time": 60.6817575,
          "velocity": 1
        },
        {
          "duration": 0.19480499999999523,
          "durationTicks": 48,
          "midi": 64,
          "name": "E4",
          "ticks": 14952,
          "time": 60.6817575,
          "velocity": 1
        },
        {
          "duration": 0.19480500000000234,
          "durationTicks": 48,
          "midi": 58,
          "name": "A#3",
          "ticks": 15000,
          "time": 60.8765625,
          "velocity": 1
        },
        {
          "duration": 0.19480500000000234,
          "durationTicks": 48,
          "midi": 65,
          "name": "F4",
          "ticks": 15000,
          "time": 60.8765625,
          "velocity": 1
        },
        {
          "duration": 0.19480500000000234,
          "durationTicks": 48,
          "midi": 57,
          "name": "A3",
          "ticks": 15048,
          "time": 61.0713675,
          "velocity": 1
        },
        {
          "duration": 0.19480500000000234,
          "durationTicks": 48,
          "midi": 64,
          "name": "E4",
          "ticks": 15048,
          "time": 61.0713675,
          "velocity": 1
        },
        {
          "duration": 0.19480499999999523,
          "durationTicks": 48,
          "midi": 55,
          "name": "G3",
          "ticks": 15096,
          "time": 61.2661725,
          "velocity": 1
        },
        {
          "duration": 0.19480499999999523,
          "durationTicks": 48,
          "midi": 62,
          "name": "D4",
          "ticks": 15096,
          "time": 61.2661725,
          "velocity": 1
        },
        {
          "duration": 0.19480500000000234,
          "durationTicks": 48,
          "midi": 60,
          "name": "C4",
          "ticks": 15144,
          "time": 61.4609775,
          "velocity": 1
        },
        {
          "duration": 0.19480500000000234,
          "durationTicks": 48,
          "midi": 60,
          "name": "C4",
          "ticks": 15192,
          "time": 61.6557825,
          "velocity": 1
        },
        {
          "duration": 0.19480500000000234,
          "durationTicks": 48,
          "midi": 50,
          "name": "D3",
          "ticks": 15288,
          "time": 62.0453925,
          "velocity": 1
        },
        {
          "duration": 0.19480500000000234,
          "durationTicks": 48,
          "midi": 57,
          "name": "A3",
          "ticks": 15288,
          "time": 62.0453925,
          "velocity": 1
        },
        {
          "duration": 0.19480500000000234,
          "durationTicks": 48,
          "midi": 60,
          "name": "C4",
          "ticks": 15336,
          "time": 62.2401975,
          "velocity": 1
        },
        {
          "duration": 0.2922074999999964,
          "durationTicks": 72,
          "midi": 62,
          "name": "D4",
          "ticks": 15384,
          "time": 62.4350025,
          "velocity": 1
        },
        {
          "duration": 0.2922074999999964,
          "durationTicks": 72,
          "midi": 55,
          "name": "G3",
          "ticks": 15384,
          "time": 62.4350025,
          "velocity": 1
        },
        {
          "duration": 0.2922075000000035,
          "durationTicks": 72,
          "midi": 55,
          "name": "G3",
          "ticks": 15456,
          "time": 62.72721,
          "velocity": 1
        },
        {
          "duration": 0.2922075000000035,
          "durationTicks": 72,
          "midi": 62,
          "name": "D4",
          "ticks": 15456,
          "time": 62.72721,
          "velocity": 1
        },
        {
          "duration": 0.19480500000000234,
          "durationTicks": 48,
          "midi": 64,
          "name": "E4",
          "ticks": 15528,
          "time": 63.0194175,
          "velocity": 1
        },
        {
          "duration": 0.19480500000000234,
          "durationTicks": 48,
          "midi": 57,
          "name": "A3",
          "ticks": 15528,
          "time": 63.0194175,
          "velocity": 1
        },
        {
          "duration": 0.38960999999999757,
          "durationTicks": 96,
          "midi": 57,
          "name": "A3",
          "ticks": 15576,
          "time": 63.214222500000005,
          "velocity": 1
        },
        {
          "duration": 0.38960999999999757,
          "durationTicks": 96,
          "midi": 64,
          "name": "E4",
          "ticks": 15576,
          "time": 63.214222500000005,
          "velocity": 1
        },
        {
          "duration": 0.19480499999999523,
          "durationTicks": 48,
          "midi": 64,
          "name": "E4",
          "ticks": 15720,
          "time": 63.798637500000005,
          "velocity": 1
        },
        {
          "duration": 0.19480499999999523,
          "durationTicks": 48,
          "midi": 57,
          "name": "A3",
          "ticks": 15720,
          "time": 63.798637500000005,
          "velocity": 1
        },
        {
          "duration": 0.19480500000000234,
          "durationTicks": 48,
          "midi": 67,
          "name": "G4",
          "ticks": 15768,
          "time": 63.9934425,
          "velocity": 1
        },
        {
          "duration": 0.19480500000000234,
          "durationTicks": 48,
          "midi": 60,
          "name": "C4",
          "ticks": 15768,
          "time": 63.9934425,
          "velocity": 1
        },
        {
          "duration": 0.19480500000000234,
          "durationTicks": 48,
          "midi": 62,
          "name": "D4",
          "ticks": 15816,
          "time": 64.1882475,
          "velocity": 1
        },
        {
          "duration": 0.19480500000000234,
          "durationTicks": 48,
          "midi": 57,
          "name": "A3",
          "ticks": 15816,
          "time": 64.1882475,
          "velocity": 1
        },
        {
          "duration": 0.19480500000000234,
          "durationTicks": 48,
          "midi": 55,
          "name": "G3",
          "ticks": 15864,
          "time": 64.3830525,
          "velocity": 1
        },
        {
          "duration": 0.19480500000000234,
          "durationTicks": 48,
          "midi": 62,
          "name": "D4",
          "ticks": 15864,
          "time": 64.3830525,
          "velocity": 1
        },
        {
          "duration": 0.19480499999998813,
          "durationTicks": 48,
          "midi": 60,
          "name": "C4",
          "ticks": 15912,
          "time": 64.57785750000001,
          "velocity": 1
        },
        {
          "duration": 0.19480500000000234,
          "durationTicks": 48,
          "midi": 57,
          "name": "A3",
          "ticks": 15960,
          "time": 64.7726625,
          "velocity": 1
        },
        {
          "duration": 0.19480500000000234,
          "durationTicks": 48,
          "midi": 57,
          "name": "A3",
          "ticks": 16056,
          "time": 65.1622725,
          "velocity": 1
        },
        {
          "duration": 0.19480500000000234,
          "durationTicks": 48,
          "midi": 60,
          "name": "C4",
          "ticks": 16104,
          "time": 65.3570775,
          "velocity": 1
        },
        {
          "duration": 0.38960999999999046,
          "durationTicks": 96,
          "midi": 58,
          "name": "A#3",
          "ticks": 16152,
          "time": 65.5518825,
          "velocity": 1
        },
        {
          "duration": 0.38960999999999046,
          "durationTicks": 96,
          "midi": 65,
          "name": "F4",
          "ticks": 16152,
          "time": 65.5518825,
          "velocity": 1
        },
        {
          "duration": 0.3896100000000047,
          "durationTicks": 96,
          "midi": 57,
          "name": "A3",
          "ticks": 16248,
          "time": 65.9414925,
          "velocity": 1
        },
        {
          "duration": 0.3896100000000047,
          "durationTicks": 96,
          "midi": 64,
          "name": "E4",
          "ticks": 16248,
          "time": 65.9414925,
          "velocity": 1
        },
        {
          "duration": 0.3896100000000047,
          "durationTicks": 96,
          "midi": 55,
          "name": "G3",
          "ticks": 16344,
          "time": 66.3311025,
          "velocity": 1
        },
        {
          "duration": 0.3896100000000047,
          "durationTicks": 96,
          "midi": 62,
          "name": "D4",
          "ticks": 16344,
          "time": 66.3311025,
          "velocity": 1
        },
        {
          "duration": 0.3896100000000047,
          "durationTicks": 96,
          "midi": 65,
          "name": "F4",
          "ticks": 16344,
          "time": 66.3311025,
          "velocity": 1
        },
        {
          "duration": 0.38960999999999046,
          "durationTicks": 96,
          "midi": 53,
          "name": "F3",
          "ticks": 16440,
          "time": 66.7207125,
          "velocity": 1
        },
        {
          "duration": 0.38960999999999046,
          "durationTicks": 96,
          "midi": 60,
          "name": "C4",
          "ticks": 16440,
          "time": 66.7207125,
          "velocity": 1
        },
        {
          "duration": 0.3896100000000047,
          "durationTicks": 96,
          "midi": 62,
          "name": "D4",
          "ticks": 16536,
          "time": 67.1103225,
          "velocity": 1
        },
        {
          "duration": 0.19480500000000234,
          "durationTicks": 48,
          "midi": 55,
          "name": "G3",
          "ticks": 16536,
          "time": 67.1103225,
          "velocity": 1
        },
        {
          "duration": 0.19480500000000234,
          "durationTicks": 48,
          "midi": 64,
          "name": "E4",
          "ticks": 16584,
          "time": 67.3051275,
          "velocity": 1
        },
        {
          "duration": 0.19480500000000234,
          "durationTicks": 48,
          "midi": 57,
          "name": "A3",
          "ticks": 16584,
          "time": 67.3051275,
          "velocity": 1
        },
        {
          "duration": 0.19480500000000234,
          "durationTicks": 48,
          "midi": 50,
          "name": "D3",
          "ticks": 16632,
          "time": 67.4999325,
          "velocity": 1
        },
        {
          "duration": 0.19480500000000234,
          "durationTicks": 48,
          "midi": 57,
          "name": "A3",
          "ticks": 16632,
          "time": 67.4999325,
          "velocity": 1
        },
        {
          "duration": 0.19480500000000234,
          "durationTicks": 48,
          "midi": 48,
          "name": "C3",
          "ticks": 16680,
          "time": 67.6947375,
          "velocity": 1
        },
        {
          "duration": 0.19480500000000234,
          "durationTicks": 48,
          "midi": 55,
          "name": "G3",
          "ticks": 16680,
          "time": 67.6947375,
          "velocity": 1
        },
        {
          "duration": 0.19480500000000234,
          "durationTicks": 48,
          "midi": 57,
          "name": "A3",
          "ticks": 16728,
          "time": 67.8895425,
          "velocity": 1
        },
        {
          "duration": 0.19480500000000234,
          "durationTicks": 48,
          "midi": 74,
          "name": "D5",
          "ticks": 16824,
          "time": 68.2791525,
          "velocity": 1
        },
        {
          "duration": 0.19480500000000234,
          "durationTicks": 48,
          "midi": 69,
          "name": "A4",
          "ticks": 16824,
          "time": 68.2791525,
          "velocity": 1
        },
        {
          "duration": 0.19480500000000234,
          "durationTicks": 48,
          "midi": 77,
          "name": "F5",
          "ticks": 16872,
          "time": 68.4739575,
          "velocity": 1
        },
        {
          "duration": 0.19480500000000234,
          "durationTicks": 48,
          "midi": 72,
          "name": "C5",
          "ticks": 16872,
          "time": 68.4739575,
          "velocity": 1
        },
        {
          "duration": 0.2922075000000035,
          "durationTicks": 72,
          "midi": 79,
          "name": "G5",
          "ticks": 16920,
          "time": 68.6687625,
          "velocity": 1
        },
        {
          "duration": 0.2922075000000035,
          "durationTicks": 72,
          "midi": 74,
          "name": "D5",
          "ticks": 16920,
          "time": 68.6687625,
          "velocity": 1
        },
        {
          "duration": 0.2922075000000035,
          "durationTicks": 72,
          "midi": 79,
          "name": "G5",
          "ticks": 16992,
          "time": 68.96097,
          "velocity": 1
        },
        {
          "duration": 0.2922075000000035,
          "durationTicks": 72,
          "midi": 74,
          "name": "D5",
          "ticks": 16992,
          "time": 68.96097,
          "velocity": 1
        },
        {
          "duration": 0.19480500000000234,
          "durationTicks": 48,
          "midi": 81,
          "name": "A5",
          "ticks": 17064,
          "time": 69.2531775,
          "velocity": 1
        },
        {
          "duration": 0.19480500000000234,
          "durationTicks": 48,
          "midi": 76,
          "name": "E5",
          "ticks": 17064,
          "time": 69.2531775,
          "velocity": 1
        },
        {
          "duration": 0.38960999999999046,
          "durationTicks": 96,
          "midi": 81,
          "name": "A5",
          "ticks": 17112,
          "time": 69.44798250000001,
          "velocity": 1
        },
        {
          "duration": 0.38960999999999046,
          "durationTicks": 96,
          "midi": 76,
          "name": "E5",
          "ticks": 17112,
          "time": 69.44798250000001,
          "velocity": 1
        },
        {
          "duration": 0.19480500000000234,
          "durationTicks": 48,
          "midi": 81,
          "name": "A5",
          "ticks": 17256,
          "time": 70.0323975,
          "velocity": 1
        },
        {
          "duration": 0.19480500000000234,
          "durationTicks": 48,
          "midi": 76,
          "name": "E5",
          "ticks": 17256,
          "time": 70.0323975,
          "velocity": 1
        },
        {
          "duration": 0.19480500000000234,
          "durationTicks": 48,
          "midi": 84,
          "name": "C6",
          "ticks": 17304,
          "time": 70.2272025,
          "velocity": 1
        },
        {
          "duration": 0.19480500000000234,
          "durationTicks": 48,
          "midi": 79,
          "name": "G5",
          "ticks": 17304,
          "time": 70.2272025,
          "velocity": 1
        },
        {
          "duration": 0.19480500000000234,
          "durationTicks": 48,
          "midi": 86,
          "name": "D6",
          "ticks": 17352,
          "time": 70.4220075,
          "velocity": 1
        },
        {
          "duration": 0.19480500000000234,
          "durationTicks": 48,
          "midi": 81,
          "name": "A5",
          "ticks": 17352,
          "time": 70.4220075,
          "velocity": 1
        },
        {
          "duration": 0.19480499999998813,
          "durationTicks": 48,
          "midi": 79,
          "name": "G5",
          "ticks": 17400,
          "time": 70.61681250000001,
          "velocity": 1
        },
        {
          "duration": 0.19480499999998813,
          "durationTicks": 48,
          "midi": 74,
          "name": "D5",
          "ticks": 17400,
          "time": 70.61681250000001,
          "velocity": 1
        },
        {
          "duration": 0.19480500000000234,
          "durationTicks": 48,
          "midi": 77,
          "name": "F5",
          "ticks": 17448,
          "time": 70.8116175,
          "velocity": 1
        },
        {
          "duration": 0.19480500000000234,
          "durationTicks": 48,
          "midi": 72,
          "name": "C5",
          "ticks": 17448,
          "time": 70.8116175,
          "velocity": 1
        },
        {
          "duration": 0.3896100000000047,
          "durationTicks": 96,
          "midi": 81,
          "name": "A5",
          "ticks": 17496,
          "time": 71.0064225,
          "velocity": 1
        },
        {
          "duration": 0.3896100000000047,
          "durationTicks": 96,
          "midi": 76,
          "name": "E5",
          "ticks": 17496,
          "time": 71.0064225,
          "velocity": 1
        },
        {
          "duration": 0.19480500000000234,
          "durationTicks": 48,
          "midi": 74,
          "name": "D5",
          "ticks": 17592,
          "time": 71.3960325,
          "velocity": 1
        },
        {
          "duration": 0.19480500000000234,
          "durationTicks": 48,
          "midi": 69,
          "name": "A4",
          "ticks": 17592,
          "time": 71.3960325,
          "velocity": 1
        },
        {
          "duration": 0.19480500000000234,
          "durationTicks": 48,
          "midi": 77,
          "name": "F5",
          "ticks": 17640,
          "time": 71.5908375,
          "velocity": 1
        },
        {
          "duration": 0.19480500000000234,
          "durationTicks": 48,
          "midi": 72,
          "name": "C5",
          "ticks": 17640,
          "time": 71.5908375,
          "velocity": 1
        },
        {
          "duration": 0.2922074999999893,
          "durationTicks": 72,
          "midi": 79,
          "name": "G5",
          "ticks": 17688,
          "time": 71.78564250000001,
          "velocity": 1
        },
        {
          "duration": 0.2922074999999893,
          "durationTicks": 72,
          "midi": 74,
          "name": "D5",
          "ticks": 17688,
          "time": 71.78564250000001,
          "velocity": 1
        },
        {
          "duration": 0.2922075000000035,
          "durationTicks": 72,
          "midi": 79,
          "name": "G5",
          "ticks": 17760,
          "time": 72.07785,
          "velocity": 1
        },
        {
          "duration": 0.2922075000000035,
          "durationTicks": 72,
          "midi": 74,
          "name": "D5",
          "ticks": 17760,
          "time": 72.07785,
          "velocity": 1
        },
        {
          "duration": 0.19480500000000234,
          "durationTicks": 48,
          "midi": 81,
          "name": "A5",
          "ticks": 17832,
          "time": 72.3700575,
          "velocity": 1
        },
        {
          "duration": 0.19480500000000234,
          "durationTicks": 48,
          "midi": 76,
          "name": "E5",
          "ticks": 17832,
          "time": 72.3700575,
          "velocity": 1
        },
        {
          "duration": 0.3896100000000047,
          "durationTicks": 96,
          "midi": 81,
          "name": "A5",
          "ticks": 17880,
          "time": 72.5648625,
          "velocity": 1
        },
        {
          "duration": 0.3896100000000047,
          "durationTicks": 96,
          "midi": 76,
          "name": "E5",
          "ticks": 17880,
          "time": 72.5648625,
          "velocity": 1
        },
        {
          "duration": 0.19480500000000234,
          "durationTicks": 48,
          "midi": 81,
          "name": "A5",
          "ticks": 18024,
          "time": 73.1492775,
          "velocity": 1
        },
        {
          "duration": 0.19480500000000234,
          "durationTicks": 48,
          "midi": 76,
          "name": "E5",
          "ticks": 18024,
          "time": 73.1492775,
          "velocity": 1
        },
        {
          "duration": 0.19480500000000234,
          "durationTicks": 48,
          "midi": 82,
          "name": "A#5",
          "ticks": 18072,
          "time": 73.3440825,
          "velocity": 1
        },
        {
          "duration": 0.19480500000000234,
          "durationTicks": 48,
          "midi": 77,
          "name": "F5",
          "ticks": 18072,
          "time": 73.3440825,
          "velocity": 1
        },
        {
          "duration": 0.19480500000000234,
          "durationTicks": 48,
          "midi": 81,
          "name": "A5",
          "ticks": 18120,
          "time": 73.5388875,
          "velocity": 1
        },
        {
          "duration": 0.19480500000000234,
          "durationTicks": 48,
          "midi": 76,
          "name": "E5",
          "ticks": 18120,
          "time": 73.5388875,
          "velocity": 1
        },
        {
          "duration": 0.19480500000000234,
          "durationTicks": 48,
          "midi": 79,
          "name": "G5",
          "ticks": 18168,
          "time": 73.7336925,
          "velocity": 1
        },
        {
          "duration": 0.19480500000000234,
          "durationTicks": 48,
          "midi": 74,
          "name": "D5",
          "ticks": 18168,
          "time": 73.7336925,
          "velocity": 1
        },
        {
          "duration": 0.19480500000000234,
          "durationTicks": 48,
          "midi": 77,
          "name": "F5",
          "ticks": 18216,
          "time": 73.9284975,
          "velocity": 1
        },
        {
          "duration": 0.19480500000000234,
          "durationTicks": 48,
          "midi": 72,
          "name": "C5",
          "ticks": 18216,
          "time": 73.9284975,
          "velocity": 1
        },
        {
          "duration": 0.19480499999998813,
          "durationTicks": 48,
          "midi": 77,
          "name": "F5",
          "ticks": 18264,
          "time": 74.12330250000001,
          "velocity": 1
        },
        {
          "duration": 0.19480499999998813,
          "durationTicks": 48,
          "midi": 72,
          "name": "C5",
          "ticks": 18264,
          "time": 74.12330250000001,
          "velocity": 1
        },
        {
          "duration": 0.19480500000000234,
          "durationTicks": 48,
          "midi": 74,
          "name": "D5",
          "ticks": 18360,
          "time": 74.5129125,
          "velocity": 1
        },
        {
          "duration": 0.19480500000000234,
          "durationTicks": 48,
          "midi": 69,
          "name": "A4",
          "ticks": 18360,
          "time": 74.5129125,
          "velocity": 1
        },
        {
          "duration": 0.19480500000000234,
          "durationTicks": 48,
          "midi": 77,
          "name": "F5",
          "ticks": 18408,
          "time": 74.7077175,
          "velocity": 1
        },
        {
          "duration": 0.19480500000000234,
          "durationTicks": 48,
          "midi": 72,
          "name": "C5",
          "ticks": 18408,
          "time": 74.7077175,
          "velocity": 1
        },
        {
          "duration": 0.2922075000000035,
          "durationTicks": 72,
          "midi": 79,
          "name": "G5",
          "ticks": 18456,
          "time": 74.9025225,
          "velocity": 1
        },
        {
          "duration": 0.2922075000000035,
          "durationTicks": 72,
          "midi": 74,
          "name": "D5",
          "ticks": 18456,
          "time": 74.9025225,
          "velocity": 1
        },
        {
          "duration": 0.2922074999999893,
          "durationTicks": 72,
          "midi": 79,
          "name": "G5",
          "ticks": 18528,
          "time": 75.19473,
          "velocity": 1
        },
        {
          "duration": 0.2922074999999893,
          "durationTicks": 72,
          "midi": 74,
          "name": "D5",
          "ticks": 18528,
          "time": 75.19473,
          "velocity": 1
        },
        {
          "duration": 0.19480500000000234,
          "durationTicks": 48,
          "midi": 81,
          "name": "A5",
          "ticks": 18600,
          "time": 75.4869375,
          "velocity": 1
        },
        {
          "duration": 0.19480500000000234,
          "durationTicks": 48,
          "midi": 76,
          "name": "E5",
          "ticks": 18600,
          "time": 75.4869375,
          "velocity": 1
        },
        {
          "duration": 0.3896100000000047,
          "durationTicks": 96,
          "midi": 81,
          "name": "A5",
          "ticks": 18648,
          "time": 75.6817425,
          "velocity": 1
        },
        {
          "duration": 0.3896100000000047,
          "durationTicks": 96,
          "midi": 76,
          "name": "E5",
          "ticks": 18648,
          "time": 75.6817425,
          "velocity": 1
        },
        {
          "duration": 0.19480500000000234,
          "durationTicks": 48,
          "midi": 81,
          "name": "A5",
          "ticks": 18792,
          "time": 76.2661575,
          "velocity": 1
        },
        {
          "duration": 0.19480500000000234,
          "durationTicks": 48,
          "midi": 76,
          "name": "E5",
          "ticks": 18792,
          "time": 76.2661575,
          "velocity": 1
        },
        {
          "duration": 0.19480499999998813,
          "durationTicks": 48,
          "midi": 84,
          "name": "C6",
          "ticks": 18840,
          "time": 76.46096250000001,
          "velocity": 1
        },
        {
          "duration": 0.19480499999998813,
          "durationTicks": 48,
          "midi": 79,
          "name": "G5",
          "ticks": 18840,
          "time": 76.46096250000001,
          "velocity": 1
        },
        {
          "duration": 0.19480500000000234,
          "durationTicks": 48,
          "midi": 86,
          "name": "D6",
          "ticks": 18888,
          "time": 76.6557675,
          "velocity": 1
        },
        {
          "duration": 0.19480500000000234,
          "durationTicks": 48,
          "midi": 81,
          "name": "A5",
          "ticks": 18888,
          "time": 76.6557675,
          "velocity": 1
        },
        {
          "duration": 0.19480500000000234,
          "durationTicks": 48,
          "midi": 79,
          "name": "G5",
          "ticks": 18936,
          "time": 76.8505725,
          "velocity": 1
        },
        {
          "duration": 0.19480500000000234,
          "durationTicks": 48,
          "midi": 74,
          "name": "D5",
          "ticks": 18936,
          "time": 76.8505725,
          "velocity": 1
        },
        {
          "duration": 0.19480500000000234,
          "durationTicks": 48,
          "midi": 77,
          "name": "F5",
          "ticks": 18984,
          "time": 77.0453775,
          "velocity": 1
        },
        {
          "duration": 0.19480500000000234,
          "durationTicks": 48,
          "midi": 72,
          "name": "C5",
          "ticks": 18984,
          "time": 77.0453775,
          "velocity": 1
        },
        {
          "duration": 0.19480500000000234,
          "durationTicks": 48,
          "midi": 81,
          "name": "A5",
          "ticks": 19032,
          "time": 77.2401825,
          "velocity": 1
        },
        {
          "duration": 0.19480500000000234,
          "durationTicks": 48,
          "midi": 76,
          "name": "E5",
          "ticks": 19032,
          "time": 77.2401825,
          "velocity": 1
        },
        {
          "duration": 0.19480499999998813,
          "durationTicks": 48,
          "midi": 74,
          "name": "D5",
          "ticks": 19128,
          "time": 77.62979250000001,
          "velocity": 1
        },
        {
          "duration": 0.19480499999998813,
          "durationTicks": 48,
          "midi": 69,
          "name": "A4",
          "ticks": 19128,
          "time": 77.62979250000001,
          "velocity": 1
        },
        {
          "duration": 0.19480500000000234,
          "durationTicks": 48,
          "midi": 77,
          "name": "F5",
          "ticks": 19176,
          "time": 77.8245975,
          "velocity": 1
        },
        {
          "duration": 0.19480500000000234,
          "durationTicks": 48,
          "midi": 72,
          "name": "C5",
          "ticks": 19176,
          "time": 77.8245975,
          "velocity": 1
        },
        {
          "duration": 0.3896100000000047,
          "durationTicks": 96,
          "midi": 82,
          "name": "A#5",
          "ticks": 19224,
          "time": 78.0194025,
          "velocity": 1
        },
        {
          "duration": 0.3896100000000047,
          "durationTicks": 96,
          "midi": 77,
          "name": "F5",
          "ticks": 19224,
          "time": 78.0194025,
          "velocity": 1
        },
        {
          "duration": 0.3896100000000047,
          "durationTicks": 96,
          "midi": 81,
          "name": "A5",
          "ticks": 19320,
          "time": 78.4090125,
          "velocity": 1
        },
        {
          "duration": 0.3896100000000047,
          "durationTicks": 96,
          "midi": 76,
          "name": "E5",
          "ticks": 19320,
          "time": 78.4090125,
          "velocity": 1
        },
        {
          "duration": 0.38960999999999046,
          "durationTicks": 96,
          "midi": 79,
          "name": "G5",
          "ticks": 19416,
          "time": 78.79862250000001,
          "velocity": 1
        },
        {
          "duration": 0.38960999999999046,
          "durationTicks": 96,
          "midi": 74,
          "name": "D5",
          "ticks": 19416,
          "time": 78.79862250000001,
          "velocity": 1
        },
        {
          "duration": 0.3896100000000047,
          "durationTicks": 96,
          "midi": 77,
          "name": "F5",
          "ticks": 19512,
          "time": 79.1882325,
          "velocity": 1
        },
        {
          "duration": 0.3896100000000047,
          "durationTicks": 96,
          "midi": 72,
          "name": "C5",
          "ticks": 19512,
          "time": 79.1882325,
          "velocity": 1
        },
        {
          "duration": 0.19480500000000234,
          "durationTicks": 48,
          "midi": 79,
          "name": "G5",
          "ticks": 19608,
          "time": 79.5778425,
          "velocity": 1
        },
        {
          "duration": 0.19480500000000234,
          "durationTicks": 48,
          "midi": 74,
          "name": "D5",
          "ticks": 19608,
          "time": 79.5778425,
          "velocity": 1
        },
        {
          "duration": 0.19480500000000234,
          "durationTicks": 48,
          "midi": 77,
          "name": "F5",
          "ticks": 19656,
          "time": 79.7726475,
          "velocity": 1
        },
        {
          "duration": 0.19480500000000234,
          "durationTicks": 48,
          "midi": 72,
          "name": "C5",
          "ticks": 19656,
          "time": 79.7726475,
          "velocity": 1
        },
        {
          "duration": 0.19480499999998813,
          "durationTicks": 48,
          "midi": 81,
          "name": "A5",
          "ticks": 19704,
          "time": 79.96745250000001,
          "velocity": 1
        },
        {
          "duration": 0.19480499999998813,
          "durationTicks": 48,
          "midi": 76,
          "name": "E5",
          "ticks": 19704,
          "time": 79.96745250000001,
          "velocity": 1
        },
        {
          "duration": 0.19480500000000234,
          "durationTicks": 48,
          "midi": 84,
          "name": "C6",
          "ticks": 19752,
          "time": 80.1622575,
          "velocity": 1
        },
        {
          "duration": 0.19480500000000234,
          "durationTicks": 48,
          "midi": 79,
          "name": "G5",
          "ticks": 19752,
          "time": 80.1622575,
          "velocity": 1
        },
        {
          "duration": 0.3896100000000047,
          "durationTicks": 96,
          "midi": 86,
          "name": "D6",
          "ticks": 19800,
          "time": 80.3570625,
          "velocity": 1
        },
        {
          "duration": 0.3896100000000047,
          "durationTicks": 96,
          "midi": 81,
          "name": "A5",
          "ticks": 19800,
          "time": 80.3570625,
          "velocity": 1
        },
        {
          "duration": 0.02435062499999674,
          "durationTicks": 6,
          "midi": 86,
          "name": "D6",
          "ticks": 19896,
          "time": 80.7466725,
          "velocity": 0.9291338582677166
        },
        {
          "duration": 0.02435062499999674,
          "durationTicks": 6,
          "midi": 84,
          "name": "C6",
          "ticks": 19902,
          "time": 80.771023125,
          "velocity": 0.9133858267716536
        },
        {
          "duration": 0.02435062500001095,
          "durationTicks": 6,
          "midi": 83,
          "name": "B5",
          "ticks": 19908,
          "time": 80.79537375,
          "velocity": 0.8976377952755905
        },
        {
          "duration": 0.02435062499999674,
          "durationTicks": 6,
          "midi": 81,
          "name": "A5",
          "ticks": 19914,
          "time": 80.819724375,
          "velocity": 0.8818897637795275
        },
        {
          "duration": 0.02435062499999674,
          "durationTicks": 6,
          "midi": 79,
          "name": "G5",
          "ticks": 19920,
          "time": 80.844075,
          "velocity": 0.8661417322834646
        },
        {
          "duration": 0.02435062499999674,
          "durationTicks": 6,
          "midi": 77,
          "name": "F5",
          "ticks": 19926,
          "time": 80.868425625,
          "velocity": 0.8503937007874016
        },
        {
          "duration": 0.02435062500001095,
          "durationTicks": 6,
          "midi": 76,
          "name": "E5",
          "ticks": 19932,
          "time": 80.89277625,
          "velocity": 0.8346456692913385
        },
        {
          "duration": 0.02435062499999674,
          "durationTicks": 6,
          "midi": 74,
          "name": "D5",
          "ticks": 19938,
          "time": 80.91712687500001,
          "velocity": 0.8188976377952756
        },
        {
          "duration": 0.02435062499999674,
          "durationTicks": 6,
          "midi": 72,
          "name": "C5",
          "ticks": 19944,
          "time": 80.9414775,
          "velocity": 0.8031496062992126
        },
        {
          "duration": 0.02435062499999674,
          "durationTicks": 6,
          "midi": 71,
          "name": "B4",
          "ticks": 19950,
          "time": 80.965828125,
          "velocity": 0.7874015748031497
        },
        {
          "duration": 0.02435062500001095,
          "durationTicks": 6,
          "midi": 69,
          "name": "A4",
          "ticks": 19956,
          "time": 80.99017875,
          "velocity": 0.7795275590551181
        },
        {
          "duration": 0.02435062499999674,
          "durationTicks": 6,
          "midi": 67,
          "name": "G4",
          "ticks": 19962,
          "time": 81.01452937500001,
          "velocity": 0.7637795275590551
        },
        {
          "duration": 0.02435062499999674,
          "durationTicks": 6,
          "midi": 65,
          "name": "F4",
          "ticks": 19968,
          "time": 81.03888,
          "velocity": 0.7480314960629921
        },
        {
          "duration": 0.02435062499999674,
          "durationTicks": 6,
          "midi": 64,
          "name": "E4",
          "ticks": 19974,
          "time": 81.063230625,
          "velocity": 0.7322834645669292
        },
        {
          "duration": 0.02435062499999674,
          "durationTicks": 6,
          "midi": 62,
          "name": "D4",
          "ticks": 19980,
          "time": 81.08758125,
          "velocity": 0.7165354330708661
        },
        {
          "duration": 0.02435062500001095,
          "durationTicks": 6,
          "midi": 60,
          "name": "C4",
          "ticks": 19986,
          "time": 81.111931875,
          "velocity": 0.7007874015748031
        },
        {
          "duration": 0.19480500000000234,
          "durationTicks": 48,
          "midi": 74,
          "name": "D5",
          "ticks": 19992,
          "time": 81.13628250000001,
          "velocity": 1
        },
        {
          "duration": 0.19480500000000234,
          "durationTicks": 48,
          "midi": 79,
          "name": "G5",
          "ticks": 19992,
          "time": 81.13628250000001,
          "velocity": 1
        },
        {
          "duration": 0.19480500000000234,
          "durationTicks": 48,
          "midi": 67,
          "name": "G4",
          "ticks": 19992,
          "time": 81.13628250000001,
          "velocity": 1
        },
        {
          "duration": 0.19480499999998813,
          "durationTicks": 48,
          "midi": 76,
          "name": "E5",
          "ticks": 20040,
          "time": 81.33108750000001,
          "velocity": 1
        },
        {
          "duration": 0.19480499999998813,
          "durationTicks": 48,
          "midi": 81,
          "name": "A5",
          "ticks": 20040,
          "time": 81.33108750000001,
          "velocity": 1
        },
        {
          "duration": 0.19480499999998813,
          "durationTicks": 48,
          "midi": 69,
          "name": "A4",
          "ticks": 20040,
          "time": 81.33108750000001,
          "velocity": 1
        },
        {
          "duration": 0.09740250000000117,
          "durationTicks": 24,
          "midi": 74,
          "name": "D5",
          "ticks": 20088,
          "time": 81.5258925,
          "velocity": 1
        },
        {
          "duration": 0.09740250000000117,
          "durationTicks": 24,
          "midi": 67,
          "name": "G4",
          "ticks": 20112,
          "time": 81.623295,
          "velocity": 1
        },
        {
          "duration": 0.09740250000000117,
          "durationTicks": 24,
          "midi": 72,
          "name": "C5",
          "ticks": 20112,
          "time": 81.623295,
          "velocity": 1
        },
        {
          "duration": 0.09740250000000117,
          "durationTicks": 24,
          "midi": 74,
          "name": "D5",
          "ticks": 20136,
          "time": 81.7206975,
          "velocity": 1
        },
        {
          "duration": 0.09740250000000117,
          "durationTicks": 24,
          "midi": 67,
          "name": "G4",
          "ticks": 20160,
          "time": 81.8181,
          "velocity": 1
        },
        {
          "duration": 0.09740250000000117,
          "durationTicks": 24,
          "midi": 72,
          "name": "C5",
          "ticks": 20160,
          "time": 81.8181,
          "velocity": 1
        },
        {
          "duration": 0.19480500000000234,
          "durationTicks": 48,
          "midi": 74,
          "name": "D5",
          "ticks": 20184,
          "time": 81.9155025,
          "velocity": 1
        },
        {
          "duration": 0.19480500000000234,
          "durationTicks": 48,
          "midi": 79,
          "name": "G5",
          "ticks": 20184,
          "time": 81.9155025,
          "velocity": 1
        },
        {
          "duration": 0.19480500000000234,
          "durationTicks": 48,
          "midi": 67,
          "name": "G4",
          "ticks": 20184,
          "time": 81.9155025,
          "velocity": 1
        },
        {
          "duration": 0.19480500000000234,
          "durationTicks": 48,
          "midi": 76,
          "name": "E5",
          "ticks": 20232,
          "time": 82.1103075,
          "velocity": 1
        },
        {
          "duration": 0.19480500000000234,
          "durationTicks": 48,
          "midi": 81,
          "name": "A5",
          "ticks": 20232,
          "time": 82.1103075,
          "velocity": 1
        },
        {
          "duration": 0.19480500000000234,
          "durationTicks": 48,
          "midi": 69,
          "name": "A4",
          "ticks": 20232,
          "time": 82.1103075,
          "velocity": 1
        },
        {
          "duration": 0.09740250000000117,
          "durationTicks": 24,
          "midi": 74,
          "name": "D5",
          "ticks": 20280,
          "time": 82.3051125,
          "velocity": 1
        },
        {
          "duration": 0.09740250000000117,
          "durationTicks": 24,
          "midi": 67,
          "name": "G4",
          "ticks": 20304,
          "time": 82.40251500000001,
          "velocity": 1
        },
        {
          "duration": 0.09740250000000117,
          "durationTicks": 24,
          "midi": 72,
          "name": "C5",
          "ticks": 20304,
          "time": 82.40251500000001,
          "velocity": 1
        },
        {
          "duration": 0.09740249999998696,
          "durationTicks": 24,
          "midi": 74,
          "name": "D5",
          "ticks": 20328,
          "time": 82.49991750000001,
          "velocity": 1
        },
        {
          "duration": 0.09740250000000117,
          "durationTicks": 24,
          "midi": 67,
          "name": "G4",
          "ticks": 20352,
          "time": 82.59732,
          "velocity": 1
        },
        {
          "duration": 0.09740250000000117,
          "durationTicks": 24,
          "midi": 72,
          "name": "C5",
          "ticks": 20352,
          "time": 82.59732,
          "velocity": 1
        },
        {
          "duration": 0.19480500000000234,
          "durationTicks": 48,
          "midi": 74,
          "name": "D5",
          "ticks": 20376,
          "time": 82.6947225,
          "velocity": 1
        },
        {
          "duration": 0.19480500000000234,
          "durationTicks": 48,
          "midi": 79,
          "name": "G5",
          "ticks": 20376,
          "time": 82.6947225,
          "velocity": 1
        },
        {
          "duration": 0.19480500000000234,
          "durationTicks": 48,
          "midi": 67,
          "name": "G4",
          "ticks": 20376,
          "time": 82.6947225,
          "velocity": 1
        },
        {
          "duration": 0.19480500000000234,
          "durationTicks": 48,
          "midi": 76,
          "name": "E5",
          "ticks": 20424,
          "time": 82.8895275,
          "velocity": 1
        },
        {
          "duration": 0.19480500000000234,
          "durationTicks": 48,
          "midi": 81,
          "name": "A5",
          "ticks": 20424,
          "time": 82.8895275,
          "velocity": 1
        },
        {
          "duration": 0.19480500000000234,
          "durationTicks": 48,
          "midi": 69,
          "name": "A4",
          "ticks": 20424,
          "time": 82.8895275,
          "velocity": 1
        },
        {
          "duration": 0.09740250000000117,
          "durationTicks": 24,
          "midi": 74,
          "name": "D5",
          "ticks": 20472,
          "time": 83.0843325,
          "velocity": 1
        },
        {
          "duration": 0.09740250000000117,
          "durationTicks": 24,
          "midi": 67,
          "name": "G4",
          "ticks": 20496,
          "time": 83.181735,
          "velocity": 1
        },
        {
          "duration": 0.09740250000000117,
          "durationTicks": 24,
          "midi": 72,
          "name": "C5",
          "ticks": 20496,
          "time": 83.181735,
          "velocity": 1
        },
        {
          "duration": 0.09740250000000117,
          "durationTicks": 24,
          "midi": 74,
          "name": "D5",
          "ticks": 20520,
          "time": 83.2791375,
          "velocity": 1
        },
        {
          "duration": 0.09740250000000117,
          "durationTicks": 24,
          "midi": 67,
          "name": "G4",
          "ticks": 20544,
          "time": 83.37654,
          "velocity": 1
        },
        {
          "duration": 0.09740250000000117,
          "durationTicks": 24,
          "midi": 72,
          "name": "C5",
          "ticks": 20544,
          "time": 83.37654,
          "velocity": 1
        },
        {
          "duration": 0.19480500000000234,
          "durationTicks": 48,
          "midi": 72,
          "name": "C5",
          "ticks": 20568,
          "time": 83.4739425,
          "velocity": 1
        },
        {
          "duration": 0.19480500000000234,
          "durationTicks": 48,
          "midi": 77,
          "name": "F5",
          "ticks": 20568,
          "time": 83.4739425,
          "velocity": 1
        },
        {
          "duration": 0.09740249999998696,
          "durationTicks": 24,
          "midi": 76,
          "name": "E5",
          "ticks": 20616,
          "time": 83.66874750000001,
          "velocity": 1
        },
        {
          "duration": 0.04870125000000769,
          "durationTicks": 12,
          "midi": 77,
          "name": "F5",
          "ticks": 20640,
          "time": 83.76615,
          "velocity": 1
        },
        {
          "duration": 0.04870124999999348,
          "durationTicks": 12,
          "midi": 76,
          "name": "E5",
          "ticks": 20652,
          "time": 83.81485125,
          "velocity": 1
        },
        {
          "duration": 0.19480500000000234,
          "durationTicks": 48,
          "midi": 69,
          "name": "A4",
          "ticks": 20664,
          "time": 83.8635525,
          "velocity": 1
        },
        {
          "duration": 0.19480500000000234,
          "durationTicks": 48,
          "midi": 74,
          "name": "D5",
          "ticks": 20664,
          "time": 83.8635525,
          "velocity": 1
        },
        {
          "duration": 0.19480500000000234,
          "durationTicks": 48,
          "midi": 67,
          "name": "G4",
          "ticks": 20712,
          "time": 84.0583575,
          "velocity": 1
        },
        {
          "duration": 0.19480500000000234,
          "durationTicks": 48,
          "midi": 72,
          "name": "C5",
          "ticks": 20712,
          "time": 84.0583575,
          "velocity": 1
        },
        {
          "duration": 0.19480500000000234,
          "durationTicks": 48,
          "midi": 74,
          "name": "D5",
          "ticks": 20760,
          "time": 84.2531625,
          "velocity": 1
        },
        {
          "duration": 0.19480500000000234,
          "durationTicks": 48,
          "midi": 79,
          "name": "G5",
          "ticks": 20760,
          "time": 84.2531625,
          "velocity": 1
        },
        {
          "duration": 0.19480500000000234,
          "durationTicks": 48,
          "midi": 67,
          "name": "G4",
          "ticks": 20760,
          "time": 84.2531625,
          "velocity": 1
        },
        {
          "duration": 0.19480500000000234,
          "durationTicks": 48,
          "midi": 76,
          "name": "E5",
          "ticks": 20808,
          "time": 84.4479675,
          "velocity": 1
        },
        {
          "duration": 0.19480500000000234,
          "durationTicks": 48,
          "midi": 81,
          "name": "A5",
          "ticks": 20808,
          "time": 84.4479675,
          "velocity": 1
        },
        {
          "duration": 0.19480500000000234,
          "durationTicks": 48,
          "midi": 69,
          "name": "A4",
          "ticks": 20808,
          "time": 84.4479675,
          "velocity": 1
        },
        {
          "duration": 0.09740250000000117,
          "durationTicks": 24,
          "midi": 74,
          "name": "D5",
          "ticks": 20856,
          "time": 84.6427725,
          "velocity": 1
        },
        {
          "duration": 0.09740250000000117,
          "durationTicks": 24,
          "midi": 67,
          "name": "G4",
          "ticks": 20880,
          "time": 84.74017500000001,
          "velocity": 1
        },
        {
          "duration": 0.09740250000000117,
          "durationTicks": 24,
          "midi": 72,
          "name": "C5",
          "ticks": 20880,
          "time": 84.74017500000001,
          "velocity": 1
        },
        {
          "duration": 0.09740249999998696,
          "durationTicks": 24,
          "midi": 74,
          "name": "D5",
          "ticks": 20904,
          "time": 84.83757750000001,
          "velocity": 1
        },
        {
          "duration": 0.09740250000000117,
          "durationTicks": 24,
          "midi": 67,
          "name": "G4",
          "ticks": 20928,
          "time": 84.93498,
          "velocity": 1
        },
        {
          "duration": 0.09740250000000117,
          "durationTicks": 24,
          "midi": 72,
          "name": "C5",
          "ticks": 20928,
          "time": 84.93498,
          "velocity": 1
        },
        {
          "duration": 0.19480500000000234,
          "durationTicks": 48,
          "midi": 74,
          "name": "D5",
          "ticks": 20952,
          "time": 85.0323825,
          "velocity": 1
        },
        {
          "duration": 0.19480500000000234,
          "durationTicks": 48,
          "midi": 79,
          "name": "G5",
          "ticks": 20952,
          "time": 85.0323825,
          "velocity": 1
        },
        {
          "duration": 0.19480500000000234,
          "durationTicks": 48,
          "midi": 67,
          "name": "G4",
          "ticks": 20952,
          "time": 85.0323825,
          "velocity": 1
        },
        {
          "duration": 0.19480500000000234,
          "durationTicks": 48,
          "midi": 76,
          "name": "E5",
          "ticks": 21000,
          "time": 85.2271875,
          "velocity": 1
        },
        {
          "duration": 0.19480500000000234,
          "durationTicks": 48,
          "midi": 81,
          "name": "A5",
          "ticks": 21000,
          "time": 85.2271875,
          "velocity": 1
        },
        {
          "duration": 0.19480500000000234,
          "durationTicks": 48,
          "midi": 69,
          "name": "A4",
          "ticks": 21000,
          "time": 85.2271875,
          "velocity": 1
        },
        {
          "duration": 0.09740250000000117,
          "durationTicks": 24,
          "midi": 74,
          "name": "D5",
          "ticks": 21048,
          "time": 85.4219925,
          "velocity": 1
        },
        {
          "duration": 0.09740250000000117,
          "durationTicks": 24,
          "midi": 67,
          "name": "G4",
          "ticks": 21072,
          "time": 85.519395,
          "velocity": 1
        },
        {
          "duration": 0.09740250000000117,
          "durationTicks": 24,
          "midi": 72,
          "name": "C5",
          "ticks": 21072,
          "time": 85.519395,
          "velocity": 1
        },
        {
          "duration": 0.09740250000000117,
          "durationTicks": 24,
          "midi": 74,
          "name": "D5",
          "ticks": 21096,
          "time": 85.6167975,
          "velocity": 1
        },
        {
          "duration": 0.09740250000000117,
          "durationTicks": 24,
          "midi": 77,
          "name": "F5",
          "ticks": 21120,
          "time": 85.7142,
          "velocity": 1
        },
        {
          "duration": 0.19480500000000234,
          "durationTicks": 48,
          "midi": 74,
          "name": "D5",
          "ticks": 21144,
          "time": 85.8116025,
          "velocity": 1
        },
        {
          "duration": 0.19480500000000234,
          "durationTicks": 48,
          "midi": 79,
          "name": "G5",
          "ticks": 21144,
          "time": 85.8116025,
          "velocity": 1
        },
        {
          "duration": 0.19480500000000234,
          "durationTicks": 48,
          "midi": 67,
          "name": "G4",
          "ticks": 21144,
          "time": 85.8116025,
          "velocity": 1
        },
        {
          "duration": 0.19480499999998813,
          "durationTicks": 48,
          "midi": 77,
          "name": "F5",
          "ticks": 21192,
          "time": 86.00640750000001,
          "velocity": 1
        },
        {
          "duration": 0.19480499999998813,
          "durationTicks": 48,
          "midi": 81,
          "name": "A5",
          "ticks": 21192,
          "time": 86.00640750000001,
          "velocity": 1
        },
        {
          "duration": 0.19480499999998813,
          "durationTicks": 48,
          "midi": 69,
          "name": "A4",
          "ticks": 21192,
          "time": 86.00640750000001,
          "velocity": 1
        },
        {
          "duration": 0.19480500000000234,
          "durationTicks": 48,
          "midi": 77,
          "name": "F5",
          "ticks": 21240,
          "time": 86.2012125,
          "velocity": 1
        },
        {
          "duration": 0.19480500000000234,
          "durationTicks": 48,
          "midi": 84,
          "name": "C6",
          "ticks": 21240,
          "time": 86.2012125,
          "velocity": 1
        },
        {
          "duration": 0.19480500000000234,
          "durationTicks": 48,
          "midi": 84,
          "name": "C6",
          "ticks": 21288,
          "time": 86.3960175,
          "velocity": 1
        },
        {
          "duration": 0.19480500000000234,
          "durationTicks": 48,
          "midi": 89,
          "name": "F6",
          "ticks": 21288,
          "time": 86.3960175,
          "velocity": 1
        },
        {
          "duration": 0.09740250000000117,
          "durationTicks": 24,
          "midi": 88,
          "name": "E6",
          "ticks": 21336,
          "time": 86.5908225,
          "velocity": 1
        },
        {
          "duration": 0.09740250000000117,
          "durationTicks": 24,
          "midi": 89,
          "name": "F6",
          "ticks": 21360,
          "time": 86.688225,
          "velocity": 1
        },
        {
          "duration": 0.09740250000000117,
          "durationTicks": 24,
          "midi": 88,
          "name": "E6",
          "ticks": 21384,
          "time": 86.7856275,
          "velocity": 1
        },
        {
          "duration": 0.09740250000000117,
          "durationTicks": 24,
          "midi": 86,
          "name": "D6",
          "ticks": 21408,
          "time": 86.88303,
          "velocity": 1
        },
        {
          "duration": 0.19480500000000234,
          "durationTicks": 48,
          "midi": 79,
          "name": "G5",
          "ticks": 21432,
          "time": 86.9804325,
          "velocity": 1
        },
        {
          "duration": 0.19480500000000234,
          "durationTicks": 48,
          "midi": 84,
          "name": "C6",
          "ticks": 21432,
          "time": 86.9804325,
          "velocity": 1
        },
        {
          "duration": 0.19480499999998813,
          "durationTicks": 48,
          "midi": 77,
          "name": "F5",
          "ticks": 21480,
          "time": 87.17523750000001,
          "velocity": 1
        },
        {
          "duration": 0.19480499999998813,
          "durationTicks": 48,
          "midi": 81,
          "name": "A5",
          "ticks": 21480,
          "time": 87.17523750000001,
          "velocity": 1
        },
        {
          "duration": 0.19480499999998813,
          "durationTicks": 48,
          "midi": 69,
          "name": "A4",
          "ticks": 21480,
          "time": 87.17523750000001,
          "velocity": 1
        },
        {
          "duration": 0.19480500000000234,
          "durationTicks": 48,
          "midi": 74,
          "name": "D5",
          "ticks": 21528,
          "time": 87.3700425,
          "velocity": 1
        },
        {
          "duration": 0.19480500000000234,
          "durationTicks": 48,
          "midi": 79,
          "name": "G5",
          "ticks": 21528,
          "time": 87.3700425,
          "velocity": 1
        },
        {
          "duration": 0.19480500000000234,
          "durationTicks": 48,
          "midi": 67,
          "name": "G4",
          "ticks": 21528,
          "time": 87.3700425,
          "velocity": 1
        },
        {
          "duration": 0.19480500000000234,
          "durationTicks": 48,
          "midi": 77,
          "name": "F5",
          "ticks": 21576,
          "time": 87.5648475,
          "velocity": 1
        },
        {
          "duration": 0.19480500000000234,
          "durationTicks": 48,
          "midi": 81,
          "name": "A5",
          "ticks": 21576,
          "time": 87.5648475,
          "velocity": 1
        },
        {
          "duration": 0.19480500000000234,
          "durationTicks": 48,
          "midi": 69,
          "name": "A4",
          "ticks": 21576,
          "time": 87.5648475,
          "velocity": 1
        },
        {
          "duration": 0.09740250000000117,
          "durationTicks": 24,
          "midi": 74,
          "name": "D5",
          "ticks": 21624,
          "time": 87.7596525,
          "velocity": 1
        },
        {
          "duration": 0.09740250000000117,
          "durationTicks": 24,
          "midi": 67,
          "name": "G4",
          "ticks": 21648,
          "time": 87.857055,
          "velocity": 1
        },
        {
          "duration": 0.09740250000000117,
          "durationTicks": 24,
          "midi": 72,
          "name": "C5",
          "ticks": 21648,
          "time": 87.857055,
          "velocity": 1
        },
        {
          "duration": 0.09740250000000117,
          "durationTicks": 24,
          "midi": 74,
          "name": "D5",
          "ticks": 21672,
          "time": 87.9544575,
          "velocity": 1
        },
        {
          "duration": 0.09740250000000117,
          "durationTicks": 24,
          "midi": 67,
          "name": "G4",
          "ticks": 21696,
          "time": 88.05186,
          "velocity": 1
        },
        {
          "duration": 0.09740250000000117,
          "durationTicks": 24,
          "midi": 72,
          "name": "C5",
          "ticks": 21696,
          "time": 88.05186,
          "velocity": 1
        },
        {
          "duration": 0.19480500000000234,
          "durationTicks": 48,
          "midi": 74,
          "name": "D5",
          "ticks": 21720,
          "time": 88.1492625,
          "velocity": 1
        },
        {
          "duration": 0.19480500000000234,
          "durationTicks": 48,
          "midi": 79,
          "name": "G5",
          "ticks": 21720,
          "time": 88.1492625,
          "velocity": 1
        },
        {
          "duration": 0.19480500000000234,
          "durationTicks": 48,
          "midi": 67,
          "name": "G4",
          "ticks": 21720,
          "time": 88.1492625,
          "velocity": 1
        },
        {
          "duration": 0.19480499999998813,
          "durationTicks": 48,
          "midi": 76,
          "name": "E5",
          "ticks": 21768,
          "time": 88.34406750000001,
          "velocity": 1
        },
        {
          "duration": 0.19480499999998813,
          "durationTicks": 48,
          "midi": 81,
          "name": "A5",
          "ticks": 21768,
          "time": 88.34406750000001,
          "velocity": 1
        },
        {
          "duration": 0.19480499999998813,
          "durationTicks": 48,
          "midi": 69,
          "name": "A4",
          "ticks": 21768,
          "time": 88.34406750000001,
          "velocity": 1
        },
        {
          "duration": 0.09740250000000117,
          "durationTicks": 24,
          "midi": 74,
          "name": "D5",
          "ticks": 21816,
          "time": 88.5388725,
          "velocity": 1
        },
        {
          "duration": 0.09740250000000117,
          "durationTicks": 24,
          "midi": 67,
          "name": "G4",
          "ticks": 21840,
          "time": 88.636275,
          "velocity": 1
        },
        {
          "duration": 0.09740250000000117,
          "durationTicks": 24,
          "midi": 72,
          "name": "C5",
          "ticks": 21840,
          "time": 88.636275,
          "velocity": 1
        },
        {
          "duration": 0.09740250000000117,
          "durationTicks": 24,
          "midi": 74,
          "name": "D5",
          "ticks": 21864,
          "time": 88.7336775,
          "velocity": 1
        },
        {
          "duration": 0.09740250000000117,
          "durationTicks": 24,
          "midi": 67,
          "name": "G4",
          "ticks": 21888,
          "time": 88.83108,
          "velocity": 1
        },
        {
          "duration": 0.09740250000000117,
          "durationTicks": 24,
          "midi": 72,
          "name": "C5",
          "ticks": 21888,
          "time": 88.83108,
          "velocity": 1
        },
        {
          "duration": 0.19480500000000234,
          "durationTicks": 48,
          "midi": 74,
          "name": "D5",
          "ticks": 21912,
          "time": 88.9284825,
          "velocity": 1
        },
        {
          "duration": 0.19480500000000234,
          "durationTicks": 48,
          "midi": 79,
          "name": "G5",
          "ticks": 21912,
          "time": 88.9284825,
          "velocity": 1
        },
        {
          "duration": 0.19480500000000234,
          "durationTicks": 48,
          "midi": 67,
          "name": "G4",
          "ticks": 21912,
          "time": 88.9284825,
          "velocity": 1
        },
        {
          "duration": 0.19480500000000234,
          "durationTicks": 48,
          "midi": 76,
          "name": "E5",
          "ticks": 21960,
          "time": 89.1232875,
          "velocity": 1
        },
        {
          "duration": 0.19480500000000234,
          "durationTicks": 48,
          "midi": 81,
          "name": "A5",
          "ticks": 21960,
          "time": 89.1232875,
          "velocity": 1
        },
        {
          "duration": 0.19480500000000234,
          "durationTicks": 48,
          "midi": 69,
          "name": "A4",
          "ticks": 21960,
          "time": 89.1232875,
          "velocity": 1
        },
        {
          "duration": 0.09740250000000117,
          "durationTicks": 24,
          "midi": 67,
          "name": "G4",
          "ticks": 22008,
          "time": 89.3180925,
          "velocity": 1
        },
        {
          "duration": 0.09740250000000117,
          "durationTicks": 24,
          "midi": 74,
          "name": "D5",
          "ticks": 22008,
          "time": 89.3180925,
          "velocity": 1
        },
        {
          "duration": 0.09740250000000117,
          "durationTicks": 24,
          "midi": 72,
          "name": "C5",
          "ticks": 22032,
          "time": 89.415495,
          "velocity": 1
        },
        {
          "duration": 0.09740250000000117,
          "durationTicks": 24,
          "midi": 67,
          "name": "G4",
          "ticks": 22056,
          "time": 89.51289750000001,
          "velocity": 1
        },
        {
          "duration": 0.09740250000000117,
          "durationTicks": 24,
          "midi": 74,
          "name": "D5",
          "ticks": 22056,
          "time": 89.51289750000001,
          "velocity": 1
        },
        {
          "duration": 0.09740249999998696,
          "durationTicks": 24,
          "midi": 72,
          "name": "C5",
          "ticks": 22080,
          "time": 89.61030000000001,
          "velocity": 1
        },
        {
          "duration": 0.19480500000000234,
          "durationTicks": 48,
          "midi": 72,
          "name": "C5",
          "ticks": 22104,
          "time": 89.7077025,
          "velocity": 1
        },
        {
          "duration": 0.19480500000000234,
          "durationTicks": 48,
          "midi": 77,
          "name": "F5",
          "ticks": 22104,
          "time": 89.7077025,
          "velocity": 1
        },
        {
          "duration": 0.19480500000000234,
          "durationTicks": 48,
          "midi": 72,
          "name": "C5",
          "ticks": 22152,
          "time": 89.9025075,
          "velocity": 1
        },
        {
          "duration": 0.09740250000000117,
          "durationTicks": 24,
          "midi": 76,
          "name": "E5",
          "ticks": 22152,
          "time": 89.9025075,
          "velocity": 1
        },
        {
          "duration": 0.04870125000000769,
          "durationTicks": 12,
          "midi": 77,
          "name": "F5",
          "ticks": 22176,
          "time": 89.99991,
          "velocity": 1
        },
        {
          "duration": 0.04870124999999348,
          "durationTicks": 12,
          "midi": 76,
          "name": "E5",
          "ticks": 22188,
          "time": 90.04861125000001,
          "velocity": 1
        },
        {
          "duration": 0.19480500000000234,
          "durationTicks": 48,
          "midi": 74,
          "name": "D5",
          "ticks": 22200,
          "time": 90.0973125,
          "velocity": 1
        },
        {
          "duration": 0.19480500000000234,
          "durationTicks": 48,
          "midi": 72,
          "name": "C5",
          "ticks": 22248,
          "time": 90.2921175,
          "velocity": 1
        },
        {
          "duration": 0.09740250000000117,
          "durationTicks": 24,
          "midi": 79,
          "name": "G5",
          "ticks": 22296,
          "time": 90.4869225,
          "velocity": 1
        },
        {
          "duration": 0.09740250000000117,
          "durationTicks": 24,
          "midi": 77,
          "name": "F5",
          "ticks": 22320,
          "time": 90.584325,
          "velocity": 1
        },
        {
          "duration": 0.09740250000000117,
          "durationTicks": 24,
          "midi": 81,
          "name": "A5",
          "ticks": 22344,
          "time": 90.68172750000001,
          "velocity": 1
        },
        {
          "duration": 0.09740249999998696,
          "durationTicks": 24,
          "midi": 84,
          "name": "C6",
          "ticks": 22368,
          "time": 90.77913000000001,
          "velocity": 1
        },
        {
          "duration": 0.09740250000000117,
          "durationTicks": 24,
          "midi": 86,
          "name": "D6",
          "ticks": 22392,
          "time": 90.8765325,
          "velocity": 1
        },
        {
          "duration": 0.09740250000000117,
          "durationTicks": 24,
          "midi": 84,
          "name": "C6",
          "ticks": 22416,
          "time": 90.973935,
          "velocity": 1
        },
        {
          "duration": 0.09740250000000117,
          "durationTicks": 24,
          "midi": 81,
          "name": "A5",
          "ticks": 22440,
          "time": 91.0713375,
          "velocity": 1
        },
        {
          "duration": 0.09740250000000117,
          "durationTicks": 24,
          "midi": 79,
          "name": "G5",
          "ticks": 22464,
          "time": 91.16874,
          "velocity": 1
        },
        {
          "duration": 0.19480500000000234,
          "durationTicks": 48,
          "midi": 69,
          "name": "A4",
          "ticks": 22488,
          "time": 91.2661425,
          "velocity": 1
        },
        {
          "duration": 0.19480500000000234,
          "durationTicks": 48,
          "midi": 74,
          "name": "D5",
          "ticks": 22488,
          "time": 91.2661425,
          "velocity": 1
        },
        {
          "duration": 0.19480500000000234,
          "durationTicks": 48,
          "midi": 72,
          "name": "C5",
          "ticks": 22536,
          "time": 91.4609475,
          "velocity": 1
        },
        {
          "duration": 0.19480500000000234,
          "durationTicks": 48,
          "midi": 77,
          "name": "F5",
          "ticks": 22536,
          "time": 91.4609475,
          "velocity": 1
        },
        {
          "duration": 0.19480500000000234,
          "durationTicks": 48,
          "midi": 74,
          "name": "D5",
          "ticks": 22584,
          "time": 91.6557525,
          "velocity": 1
        },
        {
          "duration": 0.19480500000000234,
          "durationTicks": 48,
          "midi": 67,
          "name": "G4",
          "ticks": 22584,
          "time": 91.6557525,
          "velocity": 1
        },
        {
          "duration": 0.19480500000000234,
          "durationTicks": 48,
          "midi": 79,
          "name": "G5",
          "ticks": 22584,
          "time": 91.6557525,
          "velocity": 1
        },
        {
          "duration": 0.19480499999998813,
          "durationTicks": 48,
          "midi": 76,
          "name": "E5",
          "ticks": 22632,
          "time": 91.85055750000001,
          "velocity": 1
        },
        {
          "duration": 0.19480499999998813,
          "durationTicks": 48,
          "midi": 69,
          "name": "A4",
          "ticks": 22632,
          "time": 91.85055750000001,
          "velocity": 1
        },
        {
          "duration": 0.19480499999998813,
          "durationTicks": 48,
          "midi": 81,
          "name": "A5",
          "ticks": 22632,
          "time": 91.85055750000001,
          "velocity": 1
        },
        {
          "duration": 0.19480500000000234,
          "durationTicks": 48,
          "midi": 65,
          "name": "F4",
          "ticks": 22680,
          "time": 92.0453625,
          "velocity": 1
        },
        {
          "duration": 0.19480500000000234,
          "durationTicks": 48,
          "midi": 69,
          "name": "A4",
          "ticks": 22680,
          "time": 92.0453625,
          "velocity": 1
        },
        {
          "duration": 0.19480500000000234,
          "durationTicks": 48,
          "midi": 62,
          "name": "D4",
          "ticks": 22680,
          "time": 92.0453625,
          "velocity": 1
        },
        {
          "duration": 0.19480500000000234,
          "durationTicks": 48,
          "midi": 74,
          "name": "D5",
          "ticks": 22680,
          "time": 92.0453625,
          "velocity": 1
        },
        {
          "duration": 0.19480500000000234,
          "durationTicks": 48,
          "midi": 65,
          "name": "F4",
          "ticks": 22752,
          "time": 92.33757,
          "velocity": 1
        },
        {
          "duration": 0.19480500000000234,
          "durationTicks": 48,
          "midi": 69,
          "name": "A4",
          "ticks": 22752,
          "time": 92.33757,
          "velocity": 1
        },
        {
          "duration": 0.19480500000000234,
          "durationTicks": 48,
          "midi": 62,
          "name": "D4",
          "ticks": 22752,
          "time": 92.33757,
          "velocity": 1
        },
        {
          "duration": 0.19480500000000234,
          "durationTicks": 48,
          "midi": 74,
          "name": "D5",
          "ticks": 22752,
          "time": 92.33757,
          "velocity": 1
        },
        {
          "duration": 0.19480500000000234,
          "durationTicks": 48,
          "midi": 60,
          "name": "C4",
          "ticks": 22824,
          "time": 92.6297775,
          "velocity": 1
        },
        {
          "duration": 0.19480500000000234,
          "durationTicks": 48,
          "midi": 72,
          "name": "C5",
          "ticks": 22824,
          "time": 92.6297775,
          "velocity": 1
        },
        {
          "duration": 0.19480500000000234,
          "durationTicks": 48,
          "midi": 67,
          "name": "G4",
          "ticks": 22824,
          "time": 92.6297775,
          "velocity": 1
        },
        {
          "duration": 0.38960999999999046,
          "durationTicks": 96,
          "midi": 65,
          "name": "F4",
          "ticks": 22872,
          "time": 92.8245825,
          "velocity": 1
        },
        {
          "duration": 0.38960999999999046,
          "durationTicks": 96,
          "midi": 69,
          "name": "A4",
          "ticks": 22872,
          "time": 92.8245825,
          "velocity": 1
        },
        {
          "duration": 0.38960999999999046,
          "durationTicks": 96,
          "midi": 62,
          "name": "D4",
          "ticks": 22872,
          "time": 92.8245825,
          "velocity": 1
        },
        {
          "duration": 0.38960999999999046,
          "durationTicks": 96,
          "midi": 74,
          "name": "D5",
          "ticks": 22872,
          "time": 92.8245825,
          "velocity": 1
        },
        {
          "duration": 0.02435062500001095,
          "durationTicks": 6,
          "midi": 72,
          "name": "C5",
          "ticks": 22968,
          "time": 93.2141925,
          "velocity": 0.9606299212598425
        },
        {
          "duration": 0.02435062499999674,
          "durationTicks": 6,
          "midi": 71,
          "name": "B4",
          "ticks": 22974,
          "time": 93.238543125,
          "velocity": 0.9448818897637795
        },
        {
          "duration": 0.02435062499999674,
          "durationTicks": 6,
          "midi": 69,
          "name": "A4",
          "ticks": 22980,
          "time": 93.26289375,
          "velocity": 0.9212598425196851
        },
        {
          "duration": 0.02435062499999674,
          "durationTicks": 6,
          "midi": 67,
          "name": "G4",
          "ticks": 22986,
          "time": 93.287244375,
          "velocity": 0.8976377952755905
        },
        {
          "duration": 0.02435062500001095,
          "durationTicks": 6,
          "midi": 65,
          "name": "F4",
          "ticks": 22992,
          "time": 93.311595,
          "velocity": 0.8818897637795275
        },
        {
          "duration": 0.02435062499999674,
          "durationTicks": 6,
          "midi": 64,
          "name": "E4",
          "ticks": 22998,
          "time": 93.33594562500001,
          "velocity": 0.8582677165354331
        },
        {
          "duration": 0.02435062499999674,
          "durationTicks": 6,
          "midi": 62,
          "name": "D4",
          "ticks": 23004,
          "time": 93.36029625,
          "velocity": 0.84251968503937
        },
        {
          "duration": 0.02435062499999674,
          "durationTicks": 6,
          "midi": 60,
          "name": "C4",
          "ticks": 23010,
          "time": 93.384646875,
          "velocity": 0.8188976377952756
        },
        {
          "duration": 0.02435062500001095,
          "durationTicks": 6,
          "midi": 59,
          "name": "B3",
          "ticks": 23016,
          "time": 93.4089975,
          "velocity": 0.8031496062992126
        },
        {
          "duration": 0.02435062499999674,
          "durationTicks": 6,
          "midi": 57,
          "name": "A3",
          "ticks": 23022,
          "time": 93.43334812500001,
          "velocity": 0.7795275590551181
        },
        {
          "duration": 0.02435062499999674,
          "durationTicks": 6,
          "midi": 55,
          "name": "G3",
          "ticks": 23028,
          "time": 93.45769875,
          "velocity": 0.7559055118110236
        },
        {
          "duration": 0.19480500000000234,
          "durationTicks": 48,
          "midi": 72,
          "name": "C5",
          "ticks": 23064,
          "time": 93.6038025,
          "velocity": 1
        },
        {
          "duration": 0.19480500000000234,
          "durationTicks": 48,
          "midi": 69,
          "name": "A4",
          "ticks": 23064,
          "time": 93.6038025,
          "velocity": 1
        },
        {
          "duration": 0.19480500000000234,
          "durationTicks": 48,
          "midi": 74,
          "name": "D5",
          "ticks": 23064,
          "time": 93.6038025,
          "velocity": 1
        },
        {
          "duration": 0.2922075000000035,
          "durationTicks": 72,
          "midi": 72,
          "name": "C5",
          "ticks": 23160,
          "time": 93.9934125,
          "velocity": 1
        },
        {
          "duration": 0.19480500000000234,
          "durationTicks": 48,
          "midi": 69,
          "name": "A4",
          "ticks": 23160,
          "time": 93.9934125,
          "velocity": 1
        },
        {
          "duration": 0.19480500000000234,
          "durationTicks": 48,
          "midi": 74,
          "name": "D5",
          "ticks": 23160,
          "time": 93.9934125,
          "velocity": 1
        },
        {
          "duration": 0.09740250000000117,
          "durationTicks": 24,
          "midi": 69,
          "name": "A4",
          "ticks": 23232,
          "time": 94.28562000000001,
          "velocity": 1
        },
        {
          "duration": 0.19480499999998813,
          "durationTicks": 48,
          "midi": 72,
          "name": "C5",
          "ticks": 23256,
          "time": 94.38302250000001,
          "velocity": 1
        },
        {
          "duration": 0.09740249999998696,
          "durationTicks": 24,
          "midi": 69,
          "name": "A4",
          "ticks": 23256,
          "time": 94.38302250000001,
          "velocity": 1
        },
        {
          "duration": 0.19480500000000234,
          "durationTicks": 48,
          "midi": 69,
          "name": "A4",
          "ticks": 23280,
          "time": 94.480425,
          "velocity": 1
        },
        {
          "duration": 0.19480500000000234,
          "durationTicks": 48,
          "midi": 74,
          "name": "D5",
          "ticks": 23280,
          "time": 94.480425,
          "velocity": 1
        },
        {
          "duration": 0.19480500000000234,
          "durationTicks": 48,
          "midi": 72,
          "name": "C5",
          "ticks": 23304,
          "time": 94.5778275,
          "velocity": 1
        },
        {
          "duration": 0.19480500000000234,
          "durationTicks": 48,
          "midi": 72,
          "name": "C5",
          "ticks": 23352,
          "time": 94.7726325,
          "velocity": 1
        },
        {
          "duration": 0.19480500000000234,
          "durationTicks": 48,
          "midi": 69,
          "name": "A4",
          "ticks": 23352,
          "time": 94.7726325,
          "velocity": 1
        },
        {
          "duration": 0.19480500000000234,
          "durationTicks": 48,
          "midi": 74,
          "name": "D5",
          "ticks": 23352,
          "time": 94.7726325,
          "velocity": 1
        },
        {
          "duration": 0.19480500000000234,
          "durationTicks": 48,
          "midi": 74,
          "name": "D5",
          "ticks": 23400,
          "time": 94.9674375,
          "velocity": 1
        },
        {
          "duration": 0.19480500000000234,
          "durationTicks": 48,
          "midi": 72,
          "name": "C5",
          "ticks": 23400,
          "time": 94.9674375,
          "velocity": 1
        },
        {
          "duration": 0.19480500000000234,
          "durationTicks": 48,
          "midi": 69,
          "name": "A4",
          "ticks": 23448,
          "time": 95.1622425,
          "velocity": 1
        },
        {
          "duration": 0.19480500000000234,
          "durationTicks": 48,
          "midi": 70,
          "name": "A#4",
          "ticks": 23448,
          "time": 95.1622425,
          "velocity": 1
        },
        {
          "duration": 0.19480499999998813,
          "durationTicks": 48,
          "midi": 70,
          "name": "A#4",
          "ticks": 23544,
          "time": 95.55185250000001,
          "velocity": 1
        },
        {
          "duration": 0.19480500000000234,
          "durationTicks": 48,
          "midi": 69,
          "name": "A4",
          "ticks": 23640,
          "time": 95.9414625,
          "velocity": 1
        },
        {
          "duration": 0.19480500000000234,
          "durationTicks": 48,
          "midi": 67,
          "name": "G4",
          "ticks": 23640,
          "time": 95.9414625,
          "velocity": 1
        },
        {
          "duration": 0.19480500000000234,
          "durationTicks": 48,
          "midi": 72,
          "name": "C5",
          "ticks": 23640,
          "time": 95.9414625,
          "velocity": 1
        },
        {
          "duration": 0.19480500000000234,
          "durationTicks": 48,
          "midi": 67,
          "name": "G4",
          "ticks": 23688,
          "time": 96.1362675,
          "velocity": 1
        },
        {
          "duration": 0.19480500000000234,
          "durationTicks": 48,
          "midi": 69,
          "name": "A4",
          "ticks": 23736,
          "time": 96.3310725,
          "velocity": 1
        },
        {
          "duration": 0.19480500000000234,
          "durationTicks": 48,
          "midi": 60,
          "name": "C4",
          "ticks": 23736,
          "time": 96.3310725,
          "velocity": 1
        },
        {
          "duration": 0.19480500000000234,
          "durationTicks": 48,
          "midi": 67,
          "name": "G4",
          "ticks": 23784,
          "time": 96.5258775,
          "velocity": 1
        },
        {
          "duration": 0.19480499999998813,
          "durationTicks": 48,
          "midi": 72,
          "name": "C5",
          "ticks": 23832,
          "time": 96.72068250000001,
          "velocity": 1
        },
        {
          "duration": 0.19480499999998813,
          "durationTicks": 48,
          "midi": 69,
          "name": "A4",
          "ticks": 23832,
          "time": 96.72068250000001,
          "velocity": 1
        },
        {
          "duration": 0.19480499999998813,
          "durationTicks": 48,
          "midi": 74,
          "name": "D5",
          "ticks": 23832,
          "time": 96.72068250000001,
          "velocity": 1
        },
        {
          "duration": 0.2922075000000035,
          "durationTicks": 72,
          "midi": 72,
          "name": "C5",
          "ticks": 23928,
          "time": 97.1102925,
          "velocity": 1
        },
        {
          "duration": 0.19480500000000234,
          "durationTicks": 48,
          "midi": 69,
          "name": "A4",
          "ticks": 23928,
          "time": 97.1102925,
          "velocity": 1
        },
        {
          "duration": 0.19480500000000234,
          "durationTicks": 48,
          "midi": 74,
          "name": "D5",
          "ticks": 23928,
          "time": 97.1102925,
          "velocity": 1
        },
        {
          "duration": 0.09740250000000117,
          "durationTicks": 24,
          "midi": 69,
          "name": "A4",
          "ticks": 24000,
          "time": 97.4025,
          "velocity": 1
        },
        {
          "duration": 0.19480500000000234,
          "durationTicks": 48,
          "midi": 72,
          "name": "C5",
          "ticks": 24024,
          "time": 97.4999025,
          "velocity": 1
        },
        {
          "duration": 0.19480500000000234,
          "durationTicks": 48,
          "midi": 69,
          "name": "A4",
          "ticks": 24048,
          "time": 97.597305,
          "velocity": 1
        },
        {
          "duration": 0.19480500000000234,
          "durationTicks": 48,
          "midi": 74,
          "name": "D5",
          "ticks": 24048,
          "time": 97.597305,
          "velocity": 1
        },
        {
          "duration": 0.19480500000000234,
          "durationTicks": 48,
          "midi": 72,
          "name": "C5",
          "ticks": 24072,
          "time": 97.6947075,
          "velocity": 1
        },
        {
          "duration": 0.19480499999998813,
          "durationTicks": 48,
          "midi": 62,
          "name": "D4",
          "ticks": 24120,
          "time": 97.88951250000001,
          "velocity": 1
        },
        {
          "duration": 0.19480499999998813,
          "durationTicks": 48,
          "midi": 74,
          "name": "D5",
          "ticks": 24120,
          "time": 97.88951250000001,
          "velocity": 1
        },
        {
          "duration": 0.584415000000007,
          "durationTicks": 144,
          "midi": 64,
          "name": "E4",
          "ticks": 24168,
          "time": 98.0843175,
          "velocity": 1
        },
        {
          "duration": 0.19480500000000234,
          "durationTicks": 48,
          "midi": 72,
          "name": "C5",
          "ticks": 24168,
          "time": 98.0843175,
          "velocity": 1
        },
        {
          "duration": 0.09740250000000117,
          "durationTicks": 24,
          "midi": 62,
          "name": "D4",
          "ticks": 24312,
          "time": 98.6687325,
          "velocity": 1
        },
        {
          "duration": 0.09740250000000117,
          "durationTicks": 24,
          "midi": 65,
          "name": "F4",
          "ticks": 24312,
          "time": 98.6687325,
          "velocity": 1
        },
        {
          "duration": 0.09740250000000117,
          "durationTicks": 24,
          "midi": 70,
          "name": "A#4",
          "ticks": 24312,
          "time": 98.6687325,
          "velocity": 1
        },
        {
          "duration": 0.2922075000000035,
          "durationTicks": 72,
          "midi": 64,
          "name": "E4",
          "ticks": 24336,
          "time": 98.766135,
          "velocity": 1
        },
        {
          "duration": 0.38960999999999046,
          "durationTicks": 96,
          "midi": 72,
          "name": "C5",
          "ticks": 24408,
          "time": 99.05834250000001,
          "velocity": 1
        },
        {
          "duration": 0.19480499999998813,
          "durationTicks": 48,
          "midi": 69,
          "name": "A4",
          "ticks": 24408,
          "time": 99.05834250000001,
          "velocity": 1
        },
        {
          "duration": 0.3896100000000047,
          "durationTicks": 96,
          "midi": 69,
          "name": "A4",
          "ticks": 24504,
          "time": 99.4479525,
          "velocity": 1
        },
        {
          "duration": 0.19480500000000234,
          "durationTicks": 48,
          "midi": 72,
          "name": "C5",
          "ticks": 24504,
          "time": 99.4479525,
          "velocity": 1
        },
        {
          "duration": 0.19480500000000234,
          "durationTicks": 48,
          "midi": 72,
          "name": "C5",
          "ticks": 24600,
          "time": 99.8375625,
          "velocity": 1
        },
        {
          "duration": 0.19480500000000234,
          "durationTicks": 48,
          "midi": 69,
          "name": "A4",
          "ticks": 24600,
          "time": 99.8375625,
          "velocity": 1
        },
        {
          "duration": 0.19480500000000234,
          "durationTicks": 48,
          "midi": 74,
          "name": "D5",
          "ticks": 24600,
          "time": 99.8375625,
          "velocity": 1
        },
        {
          "duration": 0.2922074999999893,
          "durationTicks": 72,
          "midi": 69,
          "name": "A4",
          "ticks": 24696,
          "time": 100.22717250000001,
          "velocity": 1
        },
        {
          "duration": 0.2922074999999893,
          "durationTicks": 72,
          "midi": 72,
          "name": "C5",
          "ticks": 24696,
          "time": 100.22717250000001,
          "velocity": 1
        },
        {
          "duration": 0.19480499999998813,
          "durationTicks": 48,
          "midi": 74,
          "name": "D5",
          "ticks": 24696,
          "time": 100.22717250000001,
          "velocity": 1
        },
        {
          "duration": 0.09740250000000117,
          "durationTicks": 24,
          "midi": 62,
          "name": "D4",
          "ticks": 24768,
          "time": 100.51938,
          "velocity": 1
        },
        {
          "duration": 0.09740250000000117,
          "durationTicks": 24,
          "midi": 69,
          "name": "A4",
          "ticks": 24768,
          "time": 100.51938,
          "velocity": 1
        },
        {
          "duration": 0.09740250000000117,
          "durationTicks": 24,
          "midi": 69,
          "name": "A4",
          "ticks": 24792,
          "time": 100.6167825,
          "velocity": 1
        },
        {
          "duration": 0.19480500000000234,
          "durationTicks": 48,
          "midi": 72,
          "name": "C5",
          "ticks": 24792,
          "time": 100.6167825,
          "velocity": 1
        },
        {
          "duration": 0.19480500000000234,
          "durationTicks": 48,
          "midi": 69,
          "name": "A4",
          "ticks": 24816,
          "time": 100.714185,
          "velocity": 1
        },
        {
          "duration": 0.19480500000000234,
          "durationTicks": 48,
          "midi": 74,
          "name": "D5",
          "ticks": 24816,
          "time": 100.714185,
          "velocity": 1
        },
        {
          "duration": 0.19480500000000234,
          "durationTicks": 48,
          "midi": 72,
          "name": "C5",
          "ticks": 24840,
          "time": 100.8115875,
          "velocity": 1
        },
        {
          "duration": 0.19480500000000234,
          "durationTicks": 48,
          "midi": 72,
          "name": "C5",
          "ticks": 24888,
          "time": 101.0063925,
          "velocity": 1
        },
        {
          "duration": 0.19480500000000234,
          "durationTicks": 48,
          "midi": 69,
          "name": "A4",
          "ticks": 24888,
          "time": 101.0063925,
          "velocity": 1
        },
        {
          "duration": 0.19480500000000234,
          "durationTicks": 48,
          "midi": 74,
          "name": "D5",
          "ticks": 24888,
          "time": 101.0063925,
          "velocity": 1
        },
        {
          "duration": 0.19480500000000234,
          "durationTicks": 48,
          "midi": 74,
          "name": "D5",
          "ticks": 24936,
          "time": 101.2011975,
          "velocity": 1
        },
        {
          "duration": 0.19480500000000234,
          "durationTicks": 48,
          "midi": 72,
          "name": "C5",
          "ticks": 24936,
          "time": 101.2011975,
          "velocity": 1
        },
        {
          "duration": 0.19480499999998813,
          "durationTicks": 48,
          "midi": 65,
          "name": "F4",
          "ticks": 24984,
          "time": 101.39600250000001,
          "velocity": 1
        },
        {
          "duration": 0.19480499999998813,
          "durationTicks": 48,
          "midi": 70,
          "name": "A#4",
          "ticks": 24984,
          "time": 101.39600250000001,
          "velocity": 1
        },
        {
          "duration": 0.19480500000000234,
          "durationTicks": 48,
          "midi": 65,
          "name": "F4",
          "ticks": 25080,
          "time": 101.7856125,
          "velocity": 1
        },
        {
          "duration": 0.19480500000000234,
          "durationTicks": 48,
          "midi": 70,
          "name": "A#4",
          "ticks": 25080,
          "time": 101.7856125,
          "velocity": 1
        },
        {
          "duration": 0.09740250000000117,
          "durationTicks": 24,
          "midi": 67,
          "name": "G4",
          "ticks": 25152,
          "time": 102.07782,
          "velocity": 1
        },
        {
          "duration": 0.19480500000000234,
          "durationTicks": 48,
          "midi": 69,
          "name": "A4",
          "ticks": 25176,
          "time": 102.1752225,
          "velocity": 1
        },
        {
          "duration": 0.19480500000000234,
          "durationTicks": 48,
          "midi": 65,
          "name": "F4",
          "ticks": 25176,
          "time": 102.1752225,
          "velocity": 1
        },
        {
          "duration": 0.19480500000000234,
          "durationTicks": 48,
          "midi": 67,
          "name": "G4",
          "ticks": 25224,
          "time": 102.3700275,
          "velocity": 1
        },
        {
          "duration": 0.19480499999998813,
          "durationTicks": 48,
          "midi": 67,
          "name": "G4",
          "ticks": 25272,
          "time": 102.56483250000001,
          "velocity": 1
        },
        {
          "duration": 0.19480499999998813,
          "durationTicks": 48,
          "midi": 64,
          "name": "E4",
          "ticks": 25272,
          "time": 102.56483250000001,
          "velocity": 1
        },
        {
          "duration": 0.19480500000000234,
          "durationTicks": 48,
          "midi": 64,
          "name": "E4",
          "ticks": 25320,
          "time": 102.7596375,
          "velocity": 1
        },
        {
          "duration": 0.09740250000000117,
          "durationTicks": 24,
          "midi": 69,
          "name": "A4",
          "ticks": 25344,
          "time": 102.85704,
          "velocity": 1
        },
        {
          "duration": 0.3896100000000047,
          "durationTicks": 96,
          "midi": 69,
          "name": "A4",
          "ticks": 25368,
          "time": 102.9544425,
          "velocity": 1
        },
        {
          "duration": 0.19480500000000234,
          "durationTicks": 48,
          "midi": 74,
          "name": "D5",
          "ticks": 25368,
          "time": 102.9544425,
          "velocity": 1
        },
        {
          "duration": 0.19480500000000234,
          "durationTicks": 48,
          "midi": 69,
          "name": "A4",
          "ticks": 25464,
          "time": 103.3440525,
          "velocity": 1
        },
        {
          "duration": 0.19480500000000234,
          "durationTicks": 48,
          "midi": 74,
          "name": "D5",
          "ticks": 25464,
          "time": 103.3440525,
          "velocity": 1
        },
        {
          "duration": 0.09740250000000117,
          "durationTicks": 24,
          "midi": 67,
          "name": "G4",
          "ticks": 25536,
          "time": 103.63626000000001,
          "velocity": 1
        },
        {
          "duration": 0.09740250000000117,
          "durationTicks": 24,
          "midi": 69,
          "name": "A4",
          "ticks": 25536,
          "time": 103.63626000000001,
          "velocity": 1
        },
        {
          "duration": 0.19480499999998813,
          "durationTicks": 48,
          "midi": 67,
          "name": "G4",
          "ticks": 25560,
          "time": 103.73366250000001,
          "velocity": 1
        },
        {
          "duration": 0.09740249999998696,
          "durationTicks": 24,
          "midi": 69,
          "name": "A4",
          "ticks": 25584,
          "time": 103.83106500000001,
          "velocity": 1
        },
        {
          "duration": 0.19480500000000234,
          "durationTicks": 48,
          "midi": 69,
          "name": "A4",
          "ticks": 25608,
          "time": 103.9284675,
          "velocity": 1
        },
        {
          "duration": 0.19480500000000234,
          "durationTicks": 48,
          "midi": 72,
          "name": "C5",
          "ticks": 25656,
          "time": 104.1232725,
          "velocity": 1
        },
        {
          "duration": 0.19480500000000234,
          "durationTicks": 48,
          "midi": 74,
          "name": "D5",
          "ticks": 25656,
          "time": 104.1232725,
          "velocity": 1
        },
        {
          "duration": 0.19480500000000234,
          "durationTicks": 48,
          "midi": 74,
          "name": "D5",
          "ticks": 25704,
          "time": 104.3180775,
          "velocity": 1
        },
        {
          "duration": 0.19480500000000234,
          "durationTicks": 48,
          "midi": 72,
          "name": "C5",
          "ticks": 25704,
          "time": 104.3180775,
          "velocity": 1
        },
        {
          "duration": 0.3896100000000047,
          "durationTicks": 96,
          "midi": 64,
          "name": "E4",
          "ticks": 25752,
          "time": 104.5128825,
          "velocity": 1
        },
        {
          "duration": 0.2922074999999893,
          "durationTicks": 72,
          "midi": 67,
          "name": "G4",
          "ticks": 25872,
          "time": 104.99989500000001,
          "velocity": 1
        },
        {
          "duration": 0.2922074999999893,
          "durationTicks": 72,
          "midi": 64,
          "name": "E4",
          "ticks": 25872,
          "time": 104.99989500000001,
          "velocity": 1
        },
        {
          "duration": 0.09740250000000117,
          "durationTicks": 24,
          "midi": 72,
          "name": "C5",
          "ticks": 25920,
          "time": 105.1947,
          "velocity": 1
        },
        {
          "duration": 0.3896100000000047,
          "durationTicks": 96,
          "midi": 72,
          "name": "C5",
          "ticks": 25944,
          "time": 105.2921025,
          "velocity": 1
        },
        {
          "duration": 0.3896100000000047,
          "durationTicks": 96,
          "midi": 76,
          "name": "E5",
          "ticks": 25944,
          "time": 105.2921025,
          "velocity": 1
        },
        {
          "duration": 0.3896100000000047,
          "durationTicks": 96,
          "midi": 69,
          "name": "A4",
          "ticks": 26040,
          "time": 105.6817125,
          "velocity": 1
        },
        {
          "duration": 0.19480500000000234,
          "durationTicks": 48,
          "midi": 72,
          "name": "C5",
          "ticks": 26088,
          "time": 105.8765175,
          "velocity": 1
        },
        {
          "duration": 0.38960999999999046,
          "durationTicks": 96,
          "midi": 77,
          "name": "F5",
          "ticks": 26136,
          "time": 106.07132250000001,
          "velocity": 1
        },
        {
          "duration": 0.38960999999999046,
          "durationTicks": 96,
          "midi": 72,
          "name": "C5",
          "ticks": 26136,
          "time": 106.07132250000001,
          "velocity": 1
        },
        {
          "duration": 0.3896100000000047,
          "durationTicks": 96,
          "midi": 76,
          "name": "E5",
          "ticks": 26232,
          "time": 106.4609325,
          "velocity": 1
        },
        {
          "duration": 0.3896100000000047,
          "durationTicks": 96,
          "midi": 71,
          "name": "B4",
          "ticks": 26232,
          "time": 106.4609325,
          "velocity": 1
        },
        {
          "duration": 0.3896100000000047,
          "durationTicks": 96,
          "midi": 74,
          "name": "D5",
          "ticks": 26328,
          "time": 106.8505425,
          "velocity": 1
        },
        {
          "duration": 0.3896100000000047,
          "durationTicks": 96,
          "midi": 69,
          "name": "A4",
          "ticks": 26328,
          "time": 106.8505425,
          "velocity": 1
        },
        {
          "duration": 0.19480500000000234,
          "durationTicks": 48,
          "midi": 72,
          "name": "C5",
          "ticks": 26424,
          "time": 107.24015250000001,
          "velocity": 1
        },
        {
          "duration": 0.19480500000000234,
          "durationTicks": 48,
          "midi": 67,
          "name": "G4",
          "ticks": 26424,
          "time": 107.24015250000001,
          "velocity": 1
        },
        {
          "duration": 0.3896100000000047,
          "durationTicks": 96,
          "midi": 65,
          "name": "F4",
          "ticks": 26520,
          "time": 107.6297625,
          "velocity": 1
        },
        {
          "duration": 0.09740250000000117,
          "durationTicks": 24,
          "midi": 67,
          "name": "G4",
          "ticks": 26520,
          "time": 107.6297625,
          "velocity": 1
        },
        {
          "duration": 0.09740250000000117,
          "durationTicks": 24,
          "midi": 67,
          "name": "G4",
          "ticks": 26568,
          "time": 107.8245675,
          "velocity": 1
        },
        {
          "duration": 0.09740250000000117,
          "durationTicks": 24,
          "midi": 69,
          "name": "A4",
          "ticks": 26592,
          "time": 107.92197,
          "velocity": 1
        },
        {
          "duration": 0.19480500000000234,
          "durationTicks": 48,
          "midi": 64,
          "name": "E4",
          "ticks": 26616,
          "time": 108.0193725,
          "velocity": 1
        },
        {
          "duration": 0.19480500000000234,
          "durationTicks": 48,
          "midi": 62,
          "name": "D4",
          "ticks": 26664,
          "time": 108.2141775,
          "velocity": 1
        },
        {
          "duration": 0.38960999999999046,
          "durationTicks": 96,
          "midi": 64,
          "name": "E4",
          "ticks": 26712,
          "time": 108.40898250000001,
          "velocity": 1
        },
        {
          "duration": 0.19480500000000234,
          "durationTicks": 48,
          "midi": 64,
          "name": "E4",
          "ticks": 26904,
          "time": 109.1882025,
          "velocity": 1
        },
        {
          "duration": 0.3896100000000047,
          "durationTicks": 96,
          "midi": 62,
          "name": "D4",
          "ticks": 26904,
          "time": 109.1882025,
          "velocity": 1
        },
        {
          "duration": 0.19480500000000234,
          "durationTicks": 48,
          "midi": 67,
          "name": "G4",
          "ticks": 26952,
          "time": 109.3830075,
          "velocity": 1
        },
        {
          "duration": 0.19480500000000234,
          "durationTicks": 48,
          "midi": 69,
          "name": "A4",
          "ticks": 27000,
          "time": 109.57781250000001,
          "velocity": 1
        },
        {
          "duration": 0.19480499999998813,
          "durationTicks": 48,
          "midi": 69,
          "name": "A4",
          "ticks": 27048,
          "time": 109.77261750000001,
          "velocity": 1
        },
        {
          "duration": 0.3896100000000047,
          "durationTicks": 96,
          "midi": 74,
          "name": "D5",
          "ticks": 27096,
          "time": 109.9674225,
          "velocity": 1
        },
        {
          "duration": 0.3896100000000047,
          "durationTicks": 96,
          "midi": 64,
          "name": "E4",
          "ticks": 27096,
          "time": 109.9674225,
          "velocity": 1
        },
        {
          "duration": 0.3896100000000047,
          "durationTicks": 96,
          "midi": 71,
          "name": "B4",
          "ticks": 27192,
          "time": 110.3570325,
          "velocity": 1
        },
        {
          "duration": 0.19480500000000234,
          "durationTicks": 48,
          "midi": 72,
          "name": "C5",
          "ticks": 27288,
          "time": 110.74664250000001,
          "velocity": 1
        },
        {
          "duration": 0.5844149999999928,
          "durationTicks": 144,
          "midi": 77,
          "name": "F5",
          "ticks": 27288,
          "time": 110.74664250000001,
          "velocity": 1
        },
        {
          "duration": 0.19480499999998813,
          "durationTicks": 48,
          "midi": 72,
          "name": "C5",
          "ticks": 27336,
          "time": 110.94144750000001,
          "velocity": 1
        },
        {
          "duration": 0.19480500000000234,
          "durationTicks": 48,
          "midi": 71,
          "name": "B4",
          "ticks": 27384,
          "time": 111.1362525,
          "velocity": 1
        },
        {
          "duration": 0.19480500000000234,
          "durationTicks": 48,
          "midi": 67,
          "name": "G4",
          "ticks": 27432,
          "time": 111.3310575,
          "velocity": 1
        },
        {
          "duration": 0.3896100000000047,
          "durationTicks": 96,
          "midi": 69,
          "name": "A4",
          "ticks": 27480,
          "time": 111.5258625,
          "velocity": 1
        },
        {
          "duration": 0.3896100000000047,
          "durationTicks": 96,
          "midi": 65,
          "name": "F4",
          "ticks": 27480,
          "time": 111.5258625,
          "velocity": 1
        },
        {
          "duration": 0.38960999999999046,
          "durationTicks": 96,
          "midi": 65,
          "name": "F4",
          "ticks": 27576,
          "time": 111.9154725,
          "velocity": 1
        },
        {
          "duration": 0.38960999999999046,
          "durationTicks": 96,
          "midi": 69,
          "name": "A4",
          "ticks": 27576,
          "time": 111.9154725,
          "velocity": 1
        },
        {
          "duration": 0.3896100000000047,
          "durationTicks": 96,
          "midi": 70,
          "name": "A#4",
          "ticks": 27672,
          "time": 112.3050825,
          "velocity": 1
        },
        {
          "duration": 0.3896100000000047,
          "durationTicks": 96,
          "midi": 72,
          "name": "C5",
          "ticks": 27672,
          "time": 112.3050825,
          "velocity": 1
        },
        {
          "duration": 0.3896100000000047,
          "durationTicks": 96,
          "midi": 71,
          "name": "B4",
          "ticks": 27768,
          "time": 112.6946925,
          "velocity": 1
        },
        {
          "duration": 0.38960999999999046,
          "durationTicks": 96,
          "midi": 69,
          "name": "A4",
          "ticks": 27864,
          "time": 113.0843025,
          "velocity": 1
        },
        {
          "duration": 0.3896100000000047,
          "durationTicks": 96,
          "midi": 70,
          "name": "A#4",
          "ticks": 27960,
          "time": 113.4739125,
          "velocity": 1
        },
        {
          "duration": 0.19480500000000234,
          "durationTicks": 48,
          "midi": 67,
          "name": "G4",
          "ticks": 27960,
          "time": 113.4739125,
          "velocity": 1
        },
        {
          "duration": 0.19480500000000234,
          "durationTicks": 48,
          "midi": 67,
          "name": "G4",
          "ticks": 28008,
          "time": 113.6687175,
          "velocity": 1
        },
        {
          "duration": 0.3896100000000047,
          "durationTicks": 96,
          "midi": 65,
          "name": "F4",
          "ticks": 28056,
          "time": 113.8635225,
          "velocity": 1
        },
        {
          "duration": 0.19480500000000234,
          "durationTicks": 48,
          "midi": 67,
          "name": "G4",
          "ticks": 28056,
          "time": 113.8635225,
          "velocity": 1
        },
        {
          "duration": 0.19480500000000234,
          "durationTicks": 48,
          "midi": 69,
          "name": "A4",
          "ticks": 28104,
          "time": 114.0583275,
          "velocity": 1
        },
        {
          "duration": 0.19480500000000234,
          "durationTicks": 48,
          "midi": 64,
          "name": "E4",
          "ticks": 28152,
          "time": 114.2531325,
          "velocity": 1
        },
        {
          "duration": 0.19480499999998813,
          "durationTicks": 48,
          "midi": 62,
          "name": "D4",
          "ticks": 28200,
          "time": 114.44793750000001,
          "velocity": 1
        },
        {
          "duration": 0.19480500000000234,
          "durationTicks": 48,
          "midi": 64,
          "name": "E4",
          "ticks": 28248,
          "time": 114.6427425,
          "velocity": 1
        },
        {
          "duration": 0.19480500000000234,
          "durationTicks": 48,
          "midi": 64,
          "name": "E4",
          "ticks": 28344,
          "time": 115.0323525,
          "velocity": 1
        },
        {
          "duration": 0.19480500000000234,
          "durationTicks": 48,
          "midi": 67,
          "name": "G4",
          "ticks": 28392,
          "time": 115.2271575,
          "velocity": 1
        },
        {
          "duration": 0.19480500000000234,
          "durationTicks": 48,
          "midi": 74,
          "name": "D5",
          "ticks": 28440,
          "time": 115.4219625,
          "velocity": 1
        },
        {
          "duration": 0.19480500000000234,
          "durationTicks": 48,
          "midi": 69,
          "name": "A4",
          "ticks": 28440,
          "time": 115.4219625,
          "velocity": 1
        },
        {
          "duration": 0.19480499999998813,
          "durationTicks": 48,
          "midi": 74,
          "name": "D5",
          "ticks": 28488,
          "time": 115.61676750000001,
          "velocity": 1
        },
        {
          "duration": 0.19480499999998813,
          "durationTicks": 48,
          "midi": 69,
          "name": "A4",
          "ticks": 28488,
          "time": 115.61676750000001,
          "velocity": 1
        },
        {
          "duration": 0.19480500000000234,
          "durationTicks": 48,
          "midi": 69,
          "name": "A4",
          "ticks": 28584,
          "time": 116.0063775,
          "velocity": 1
        },
        {
          "duration": 0.3896100000000047,
          "durationTicks": 96,
          "midi": 72,
          "name": "C5",
          "ticks": 28632,
          "time": 116.2011825,
          "velocity": 1
        },
        {
          "duration": 0.38960999999999046,
          "durationTicks": 96,
          "midi": 74,
          "name": "D5",
          "ticks": 28728,
          "time": 116.5907925,
          "velocity": 1
        },
        {
          "duration": 0.19480500000000234,
          "durationTicks": 48,
          "midi": 76,
          "name": "E5",
          "ticks": 28824,
          "time": 116.9804025,
          "velocity": 1
        },
        {
          "duration": 0.7792200000000093,
          "durationTicks": 192,
          "midi": 71,
          "name": "B4",
          "ticks": 28824,
          "time": 116.9804025,
          "velocity": 1
        },
        {
          "duration": 0.19480500000000234,
          "durationTicks": 48,
          "midi": 76,
          "name": "E5",
          "ticks": 28920,
          "time": 117.3700125,
          "velocity": 1
        },
        {
          "duration": 0.19480500000000234,
          "durationTicks": 48,
          "midi": 69,
          "name": "A4",
          "ticks": 28920,
          "time": 117.3700125,
          "velocity": 1
        },
        {
          "duration": 0.19480500000000234,
          "durationTicks": 48,
          "midi": 76,
          "name": "E5",
          "ticks": 28968,
          "time": 117.5648175,
          "velocity": 1
        },
        {
          "duration": 0.19480500000000234,
          "durationTicks": 48,
          "midi": 69,
          "name": "A4",
          "ticks": 28968,
          "time": 117.5648175,
          "velocity": 1
        },
        {
          "duration": 0.19480500000000234,
          "durationTicks": 48,
          "midi": 50,
          "name": "D3",
          "ticks": 29112,
          "time": 118.1492325,
          "velocity": 1
        },
        {
          "duration": 0.19480500000000234,
          "durationTicks": 48,
          "midi": 57,
          "name": "A3",
          "ticks": 29112,
          "time": 118.1492325,
          "velocity": 1
        },
        {
          "duration": 0.19480500000000234,
          "durationTicks": 48,
          "midi": 53,
          "name": "F3",
          "ticks": 29160,
          "time": 118.3440375,
          "velocity": 1
        },
        {
          "duration": 0.19480500000000234,
          "durationTicks": 48,
          "midi": 60,
          "name": "C4",
          "ticks": 29160,
          "time": 118.3440375,
          "velocity": 1
        },
        {
          "duration": 0.2922075000000035,
          "durationTicks": 72,
          "midi": 55,
          "name": "G3",
          "ticks": 29208,
          "time": 118.5388425,
          "velocity": 1
        },
        {
          "duration": 0.2922075000000035,
          "durationTicks": 72,
          "midi": 62,
          "name": "D4",
          "ticks": 29208,
          "time": 118.5388425,
          "velocity": 1
        },
        {
          "duration": 0.2922075000000035,
          "durationTicks": 72,
          "midi": 55,
          "name": "G3",
          "ticks": 29280,
          "time": 118.83105,
          "velocity": 1
        },
        {
          "duration": 0.2922075000000035,
          "durationTicks": 72,
          "midi": 62,
          "name": "D4",
          "ticks": 29280,
          "time": 118.83105,
          "velocity": 1
        },
        {
          "duration": 0.19480500000000234,
          "durationTicks": 48,
          "midi": 57,
          "name": "A3",
          "ticks": 29352,
          "time": 119.12325750000001,
          "velocity": 1
        },
        {
          "duration": 0.19480500000000234,
          "durationTicks": 48,
          "midi": 64,
          "name": "E4",
          "ticks": 29352,
          "time": 119.12325750000001,
          "velocity": 1
        },
        {
          "duration": 0.38960999999999046,
          "durationTicks": 96,
          "midi": 57,
          "name": "A3",
          "ticks": 29400,
          "time": 119.31806250000001,
          "velocity": 1
        },
        {
          "duration": 0.38960999999999046,
          "durationTicks": 96,
          "midi": 64,
          "name": "E4",
          "ticks": 29400,
          "time": 119.31806250000001,
          "velocity": 1
        },
        {
          "duration": 0.19480500000000234,
          "durationTicks": 48,
          "midi": 57,
          "name": "A3",
          "ticks": 29544,
          "time": 119.9024775,
          "velocity": 1
        },
        {
          "duration": 0.19480500000000234,
          "durationTicks": 48,
          "midi": 64,
          "name": "E4",
          "ticks": 29544,
          "time": 119.9024775,
          "velocity": 1
        },
        {
          "duration": 0.19480500000000234,
          "durationTicks": 48,
          "midi": 60,
          "name": "C4",
          "ticks": 29592,
          "time": 120.0972825,
          "velocity": 1
        },
        {
          "duration": 0.19480500000000234,
          "durationTicks": 48,
          "midi": 67,
          "name": "G4",
          "ticks": 29592,
          "time": 120.0972825,
          "velocity": 1
        },
        {
          "duration": 0.19480500000000234,
          "durationTicks": 48,
          "midi": 62,
          "name": "D4",
          "ticks": 29640,
          "time": 120.29208750000001,
          "velocity": 1
        },
        {
          "duration": 0.19480500000000234,
          "durationTicks": 48,
          "midi": 57,
          "name": "A3",
          "ticks": 29640,
          "time": 120.29208750000001,
          "velocity": 1
        },
        {
          "duration": 0.19480499999998813,
          "durationTicks": 48,
          "midi": 55,
          "name": "G3",
          "ticks": 29688,
          "time": 120.48689250000001,
          "velocity": 1
        },
        {
          "duration": 0.19480499999998813,
          "durationTicks": 48,
          "midi": 62,
          "name": "D4",
          "ticks": 29688,
          "time": 120.48689250000001,
          "velocity": 1
        },
        {
          "duration": 0.19480500000000234,
          "durationTicks": 48,
          "midi": 60,
          "name": "C4",
          "ticks": 29736,
          "time": 120.6816975,
          "velocity": 1
        },
        {
          "duration": 0.19480500000000234,
          "durationTicks": 48,
          "midi": 57,
          "name": "A3",
          "ticks": 29784,
          "time": 120.8765025,
          "velocity": 1
        },
        {
          "duration": 0.19480500000000234,
          "durationTicks": 48,
          "midi": 64,
          "name": "E4",
          "ticks": 29784,
          "time": 120.8765025,
          "velocity": 1
        },
        {
          "duration": 0.19480500000000234,
          "durationTicks": 48,
          "midi": 50,
          "name": "D3",
          "ticks": 29880,
          "time": 121.2661125,
          "velocity": 1
        },
        {
          "duration": 0.19480500000000234,
          "durationTicks": 48,
          "midi": 57,
          "name": "A3",
          "ticks": 29880,
          "time": 121.2661125,
          "velocity": 1
        },
        {
          "duration": 0.19480500000000234,
          "durationTicks": 48,
          "midi": 60,
          "name": "C4",
          "ticks": 29928,
          "time": 121.46091750000001,
          "velocity": 1
        },
        {
          "duration": 0.2922074999999893,
          "durationTicks": 72,
          "midi": 55,
          "name": "G3",
          "ticks": 29976,
          "time": 121.65572250000001,
          "velocity": 1
        },
        {
          "duration": 0.2922074999999893,
          "durationTicks": 72,
          "midi": 62,
          "name": "D4",
          "ticks": 29976,
          "time": 121.65572250000001,
          "velocity": 1
        },
        {
          "duration": 0.2922075000000035,
          "durationTicks": 72,
          "midi": 55,
          "name": "G3",
          "ticks": 30048,
          "time": 121.94793,
          "velocity": 1
        },
        {
          "duration": 0.2922075000000035,
          "durationTicks": 72,
          "midi": 62,
          "name": "D4",
          "ticks": 30048,
          "time": 121.94793,
          "velocity": 1
        },
        {
          "duration": 0.19480500000000234,
          "durationTicks": 48,
          "midi": 57,
          "name": "A3",
          "ticks": 30120,
          "time": 122.2401375,
          "velocity": 1
        },
        {
          "duration": 0.19480500000000234,
          "durationTicks": 48,
          "midi": 64,
          "name": "E4",
          "ticks": 30120,
          "time": 122.2401375,
          "velocity": 1
        },
        {
          "duration": 0.3896100000000047,
          "durationTicks": 96,
          "midi": 57,
          "name": "A3",
          "ticks": 30168,
          "time": 122.4349425,
          "velocity": 1
        },
        {
          "duration": 0.3896100000000047,
          "durationTicks": 96,
          "midi": 64,
          "name": "E4",
          "ticks": 30168,
          "time": 122.4349425,
          "velocity": 1
        },
        {
          "duration": 0.19480500000000234,
          "durationTicks": 48,
          "midi": 57,
          "name": "A3",
          "ticks": 30312,
          "time": 123.0193575,
          "velocity": 1
        },
        {
          "duration": 0.19480500000000234,
          "durationTicks": 48,
          "midi": 64,
          "name": "E4",
          "ticks": 30312,
          "time": 123.0193575,
          "velocity": 1
        },
        {
          "duration": 0.19480500000000234,
          "durationTicks": 48,
          "midi": 58,
          "name": "A#3",
          "ticks": 30360,
          "time": 123.2141625,
          "velocity": 1
        },
        {
          "duration": 0.19480500000000234,
          "durationTicks": 48,
          "midi": 65,
          "name": "F4",
          "ticks": 30360,
          "time": 123.2141625,
          "velocity": 1
        },
        {
          "duration": 0.19480500000000234,
          "durationTicks": 48,
          "midi": 57,
          "name": "A3",
          "ticks": 30408,
          "time": 123.4089675,
          "velocity": 1
        },
        {
          "duration": 0.19480500000000234,
          "durationTicks": 48,
          "midi": 64,
          "name": "E4",
          "ticks": 30408,
          "time": 123.4089675,
          "velocity": 1
        },
        {
          "duration": 0.19480500000000234,
          "durationTicks": 48,
          "midi": 55,
          "name": "G3",
          "ticks": 30456,
          "time": 123.6037725,
          "velocity": 1
        },
        {
          "duration": 0.19480500000000234,
          "durationTicks": 48,
          "midi": 62,
          "name": "D4",
          "ticks": 30456,
          "time": 123.6037725,
          "velocity": 1
        },
        {
          "duration": 0.19480500000000234,
          "durationTicks": 48,
          "midi": 60,
          "name": "C4",
          "ticks": 30504,
          "time": 123.79857750000001,
          "velocity": 1
        },
        {
          "duration": 0.19480499999998813,
          "durationTicks": 48,
          "midi": 60,
          "name": "C4",
          "ticks": 30552,
          "time": 123.99338250000001,
          "velocity": 1
        },
        {
          "duration": 0.19480500000000234,
          "durationTicks": 48,
          "midi": 50,
          "name": "D3",
          "ticks": 30648,
          "time": 124.3829925,
          "velocity": 1
        },
        {
          "duration": 0.19480500000000234,
          "durationTicks": 48,
          "midi": 57,
          "name": "A3",
          "ticks": 30648,
          "time": 124.3829925,
          "velocity": 1
        },
        {
          "duration": 0.19480500000000234,
          "durationTicks": 48,
          "midi": 60,
          "name": "C4",
          "ticks": 30696,
          "time": 124.5777975,
          "velocity": 1
        },
        {
          "duration": 0.2922075000000035,
          "durationTicks": 72,
          "midi": 55,
          "name": "G3",
          "ticks": 30744,
          "time": 124.7726025,
          "velocity": 1
        },
        {
          "duration": 0.2922075000000035,
          "durationTicks": 72,
          "midi": 62,
          "name": "D4",
          "ticks": 30744,
          "time": 124.7726025,
          "velocity": 1
        },
        {
          "duration": 0.2922074999999893,
          "durationTicks": 72,
          "midi": 55,
          "name": "G3",
          "ticks": 30816,
          "time": 125.06481000000001,
          "velocity": 1
        },
        {
          "duration": 0.2922074999999893,
          "durationTicks": 72,
          "midi": 62,
          "name": "D4",
          "ticks": 30816,
          "time": 125.06481000000001,
          "velocity": 1
        },
        {
          "duration": 0.19480500000000234,
          "durationTicks": 48,
          "midi": 57,
          "name": "A3",
          "ticks": 30888,
          "time": 125.3570175,
          "velocity": 1
        },
        {
          "duration": 0.19480500000000234,
          "durationTicks": 48,
          "midi": 64,
          "name": "E4",
          "ticks": 30888,
          "time": 125.3570175,
          "velocity": 1
        },
        {
          "duration": 0.3896100000000047,
          "durationTicks": 96,
          "midi": 57,
          "name": "A3",
          "ticks": 30936,
          "time": 125.5518225,
          "velocity": 1
        },
        {
          "duration": 0.3896100000000047,
          "durationTicks": 96,
          "midi": 64,
          "name": "E4",
          "ticks": 30936,
          "time": 125.5518225,
          "velocity": 1
        },
        {
          "duration": 0.19480500000000234,
          "durationTicks": 48,
          "midi": 57,
          "name": "A3",
          "ticks": 31080,
          "time": 126.13623750000001,
          "velocity": 1
        },
        {
          "duration": 0.19480500000000234,
          "durationTicks": 48,
          "midi": 64,
          "name": "E4",
          "ticks": 31080,
          "time": 126.13623750000001,
          "velocity": 1
        },
        {
          "duration": 0.19480499999998813,
          "durationTicks": 48,
          "midi": 60,
          "name": "C4",
          "ticks": 31128,
          "time": 126.33104250000001,
          "velocity": 1
        },
        {
          "duration": 0.19480499999998813,
          "durationTicks": 48,
          "midi": 67,
          "name": "G4",
          "ticks": 31128,
          "time": 126.33104250000001,
          "velocity": 1
        },
        {
          "duration": 0.19480500000000234,
          "durationTicks": 48,
          "midi": 62,
          "name": "D4",
          "ticks": 31176,
          "time": 126.5258475,
          "velocity": 1
        },
        {
          "duration": 0.19480500000000234,
          "durationTicks": 48,
          "midi": 69,
          "name": "A4",
          "ticks": 31176,
          "time": 126.5258475,
          "velocity": 1
        },
        {
          "duration": 0.19480500000000234,
          "durationTicks": 48,
          "midi": 55,
          "name": "G3",
          "ticks": 31224,
          "time": 126.7206525,
          "velocity": 1
        },
        {
          "duration": 0.19480500000000234,
          "durationTicks": 48,
          "midi": 62,
          "name": "D4",
          "ticks": 31224,
          "time": 126.7206525,
          "velocity": 1
        },
        {
          "duration": 0.19480500000000234,
          "durationTicks": 48,
          "midi": 60,
          "name": "C4",
          "ticks": 31272,
          "time": 126.9154575,
          "velocity": 1
        },
        {
          "duration": 0.19480500000000234,
          "durationTicks": 48,
          "midi": 57,
          "name": "A3",
          "ticks": 31320,
          "time": 127.1102625,
          "velocity": 1
        },
        {
          "duration": 0.19480500000000234,
          "durationTicks": 48,
          "midi": 64,
          "name": "E4",
          "ticks": 31320,
          "time": 127.1102625,
          "velocity": 1
        },
        {
          "duration": 0.19480499999998813,
          "durationTicks": 48,
          "midi": 50,
          "name": "D3",
          "ticks": 31416,
          "time": 127.49987250000001,
          "velocity": 1
        },
        {
          "duration": 0.19480499999998813,
          "durationTicks": 48,
          "midi": 57,
          "name": "A3",
          "ticks": 31416,
          "time": 127.49987250000001,
          "velocity": 1
        },
        {
          "duration": 0.19480500000000234,
          "durationTicks": 48,
          "midi": 60,
          "name": "C4",
          "ticks": 31464,
          "time": 127.6946775,
          "velocity": 1
        },
        {
          "duration": 0.38960999999999046,
          "durationTicks": 96,
          "midi": 58,
          "name": "A#3",
          "ticks": 31512,
          "time": 127.8894825,
          "velocity": 1
        },
        {
          "duration": 0.38960999999999046,
          "durationTicks": 96,
          "midi": 65,
          "name": "F4",
          "ticks": 31512,
          "time": 127.8894825,
          "velocity": 1
        },
        {
          "duration": 0.3896100000000047,
          "durationTicks": 96,
          "midi": 57,
          "name": "A3",
          "ticks": 31608,
          "time": 128.2790925,
          "velocity": 1
        },
        {
          "duration": 0.3896100000000047,
          "durationTicks": 96,
          "midi": 64,
          "name": "E4",
          "ticks": 31608,
          "time": 128.2790925,
          "velocity": 1
        },
        {
          "duration": 0.3896100000000047,
          "durationTicks": 96,
          "midi": 55,
          "name": "G3",
          "ticks": 31704,
          "time": 128.6687025,
          "velocity": 1
        },
        {
          "duration": 0.3896100000000047,
          "durationTicks": 96,
          "midi": 62,
          "name": "D4",
          "ticks": 31704,
          "time": 128.6687025,
          "velocity": 1
        },
        {
          "duration": 0.3896100000000047,
          "durationTicks": 96,
          "midi": 65,
          "name": "F4",
          "ticks": 31704,
          "time": 128.6687025,
          "velocity": 1
        },
        {
          "duration": 0.3896100000000047,
          "durationTicks": 96,
          "midi": 53,
          "name": "F3",
          "ticks": 31800,
          "time": 129.0583125,
          "velocity": 1
        },
        {
          "duration": 0.3896100000000047,
          "durationTicks": 96,
          "midi": 60,
          "name": "C4",
          "ticks": 31800,
          "time": 129.0583125,
          "velocity": 1
        },
        {
          "duration": 0.19480500000000234,
          "durationTicks": 48,
          "midi": 55,
          "name": "G3",
          "ticks": 31896,
          "time": 129.4479225,
          "velocity": 1
        },
        {
          "duration": 0.3896100000000047,
          "durationTicks": 96,
          "midi": 62,
          "name": "D4",
          "ticks": 31896,
          "time": 129.4479225,
          "velocity": 1
        },
        {
          "duration": 0.19480500000000234,
          "durationTicks": 48,
          "midi": 57,
          "name": "A3",
          "ticks": 31944,
          "time": 129.6427275,
          "velocity": 1
        },
        {
          "duration": 0.19480500000000234,
          "durationTicks": 48,
          "midi": 64,
          "name": "E4",
          "ticks": 31944,
          "time": 129.6427275,
          "velocity": 1
        },
        {
          "duration": 0.19480500000000234,
          "durationTicks": 48,
          "midi": 50,
          "name": "D3",
          "ticks": 31992,
          "time": 129.8375325,
          "velocity": 1
        },
        {
          "duration": 0.19480500000000234,
          "durationTicks": 48,
          "midi": 57,
          "name": "A3",
          "ticks": 31992,
          "time": 129.8375325,
          "velocity": 1
        },
        {
          "duration": 0.19480500000000234,
          "durationTicks": 48,
          "midi": 48,
          "name": "C3",
          "ticks": 32040,
          "time": 130.0323375,
          "velocity": 1
        },
        {
          "duration": 0.19480500000000234,
          "durationTicks": 48,
          "midi": 55,
          "name": "G3",
          "ticks": 32040,
          "time": 130.0323375,
          "velocity": 1
        },
        {
          "duration": 0.19480500000000234,
          "durationTicks": 48,
          "midi": 57,
          "name": "A3",
          "ticks": 32088,
          "time": 130.2271425,
          "velocity": 1
        },
        {
          "duration": 0.19480500000000234,
          "durationTicks": 48,
          "midi": 74,
          "name": "D5",
          "ticks": 32184,
          "time": 130.6167525,
          "velocity": 1
        },
        {
          "duration": 0.19480500000000234,
          "durationTicks": 48,
          "midi": 69,
          "name": "A4",
          "ticks": 32184,
          "time": 130.6167525,
          "velocity": 1
        },
        {
          "duration": 0.19480500000000234,
          "durationTicks": 48,
          "midi": 77,
          "name": "F5",
          "ticks": 32232,
          "time": 130.8115575,
          "velocity": 1
        },
        {
          "duration": 0.19480500000000234,
          "durationTicks": 48,
          "midi": 72,
          "name": "C5",
          "ticks": 32232,
          "time": 130.8115575,
          "velocity": 1
        },
        {
          "duration": 0.2922075000000177,
          "durationTicks": 72,
          "midi": 79,
          "name": "G5",
          "ticks": 32280,
          "time": 131.0063625,
          "velocity": 1
        },
        {
          "duration": 0.2922075000000177,
          "durationTicks": 72,
          "midi": 74,
          "name": "D5",
          "ticks": 32280,
          "time": 131.0063625,
          "velocity": 1
        },
        {
          "duration": 0.2922074999999893,
          "durationTicks": 72,
          "midi": 79,
          "name": "G5",
          "ticks": 32352,
          "time": 131.29857,
          "velocity": 1
        },
        {
          "duration": 0.2922074999999893,
          "durationTicks": 72,
          "midi": 74,
          "name": "D5",
          "ticks": 32352,
          "time": 131.29857,
          "velocity": 1
        },
        {
          "duration": 0.19480500000000234,
          "durationTicks": 48,
          "midi": 81,
          "name": "A5",
          "ticks": 32424,
          "time": 131.5907775,
          "velocity": 1
        },
        {
          "duration": 0.19480500000000234,
          "durationTicks": 48,
          "midi": 76,
          "name": "E5",
          "ticks": 32424,
          "time": 131.5907775,
          "velocity": 1
        },
        {
          "duration": 0.3896100000000047,
          "durationTicks": 96,
          "midi": 81,
          "name": "A5",
          "ticks": 32472,
          "time": 131.7855825,
          "velocity": 1
        },
        {
          "duration": 0.3896100000000047,
          "durationTicks": 96,
          "midi": 76,
          "name": "E5",
          "ticks": 32472,
          "time": 131.7855825,
          "velocity": 1
        },
        {
          "duration": 0.19480500000000234,
          "durationTicks": 48,
          "midi": 81,
          "name": "A5",
          "ticks": 32616,
          "time": 132.3699975,
          "velocity": 1
        },
        {
          "duration": 0.19480500000000234,
          "durationTicks": 48,
          "midi": 76,
          "name": "E5",
          "ticks": 32616,
          "time": 132.3699975,
          "velocity": 1
        },
        {
          "duration": 0.19480500000000234,
          "durationTicks": 48,
          "midi": 84,
          "name": "C6",
          "ticks": 32664,
          "time": 132.5648025,
          "velocity": 1
        },
        {
          "duration": 0.19480500000000234,
          "durationTicks": 48,
          "midi": 79,
          "name": "G5",
          "ticks": 32664,
          "time": 132.5648025,
          "velocity": 1
        },
        {
          "duration": 0.19480500000000234,
          "durationTicks": 48,
          "midi": 86,
          "name": "D6",
          "ticks": 32712,
          "time": 132.75960750000002,
          "velocity": 1
        },
        {
          "duration": 0.19480500000000234,
          "durationTicks": 48,
          "midi": 81,
          "name": "A5",
          "ticks": 32712,
          "time": 132.75960750000002,
          "velocity": 1
        },
        {
          "duration": 0.19480499999997392,
          "durationTicks": 48,
          "midi": 79,
          "name": "G5",
          "ticks": 32760,
          "time": 132.95441250000002,
          "velocity": 1
        },
        {
          "duration": 0.19480499999997392,
          "durationTicks": 48,
          "midi": 74,
          "name": "D5",
          "ticks": 32760,
          "time": 132.95441250000002,
          "velocity": 1
        },
        {
          "duration": 0.19480500000000234,
          "durationTicks": 48,
          "midi": 77,
          "name": "F5",
          "ticks": 32808,
          "time": 133.1492175,
          "velocity": 1
        },
        {
          "duration": 0.19480500000000234,
          "durationTicks": 48,
          "midi": 72,
          "name": "C5",
          "ticks": 32808,
          "time": 133.1492175,
          "velocity": 1
        },
        {
          "duration": 0.3896100000000047,
          "durationTicks": 96,
          "midi": 81,
          "name": "A5",
          "ticks": 32856,
          "time": 133.3440225,
          "velocity": 1
        },
        {
          "duration": 0.3896100000000047,
          "durationTicks": 96,
          "midi": 76,
          "name": "E5",
          "ticks": 32856,
          "time": 133.3440225,
          "velocity": 1
        },
        {
          "duration": 0.19480500000000234,
          "durationTicks": 48,
          "midi": 74,
          "name": "D5",
          "ticks": 32952,
          "time": 133.7336325,
          "velocity": 1
        },
        {
          "duration": 0.19480500000000234,
          "durationTicks": 48,
          "midi": 69,
          "name": "A4",
          "ticks": 32952,
          "time": 133.7336325,
          "velocity": 1
        },
        {
          "duration": 0.19480500000000234,
          "durationTicks": 48,
          "midi": 77,
          "name": "F5",
          "ticks": 33000,
          "time": 133.9284375,
          "velocity": 1
        },
        {
          "duration": 0.19480500000000234,
          "durationTicks": 48,
          "midi": 72,
          "name": "C5",
          "ticks": 33000,
          "time": 133.9284375,
          "velocity": 1
        },
        {
          "duration": 0.2922074999999893,
          "durationTicks": 72,
          "midi": 79,
          "name": "G5",
          "ticks": 33048,
          "time": 134.1232425,
          "velocity": 1
        },
        {
          "duration": 0.2922074999999893,
          "durationTicks": 72,
          "midi": 74,
          "name": "D5",
          "ticks": 33048,
          "time": 134.1232425,
          "velocity": 1
        },
        {
          "duration": 0.2922075000000177,
          "durationTicks": 72,
          "midi": 79,
          "name": "G5",
          "ticks": 33120,
          "time": 134.41545,
          "velocity": 1
        },
        {
          "duration": 0.2922075000000177,
          "durationTicks": 72,
          "midi": 74,
          "name": "D5",
          "ticks": 33120,
          "time": 134.41545,
          "velocity": 1
        },
        {
          "duration": 0.19480500000000234,
          "durationTicks": 48,
          "midi": 81,
          "name": "A5",
          "ticks": 33192,
          "time": 134.7076575,
          "velocity": 1
        },
        {
          "duration": 0.19480500000000234,
          "durationTicks": 48,
          "midi": 76,
          "name": "E5",
          "ticks": 33192,
          "time": 134.7076575,
          "velocity": 1
        },
        {
          "duration": 0.3896100000000047,
          "durationTicks": 96,
          "midi": 81,
          "name": "A5",
          "ticks": 33240,
          "time": 134.9024625,
          "velocity": 1
        },
        {
          "duration": 0.3896100000000047,
          "durationTicks": 96,
          "midi": 76,
          "name": "E5",
          "ticks": 33240,
          "time": 134.9024625,
          "velocity": 1
        },
        {
          "duration": 0.19480500000000234,
          "durationTicks": 48,
          "midi": 81,
          "name": "A5",
          "ticks": 33384,
          "time": 135.4868775,
          "velocity": 1
        },
        {
          "duration": 0.19480500000000234,
          "durationTicks": 48,
          "midi": 76,
          "name": "E5",
          "ticks": 33384,
          "time": 135.4868775,
          "velocity": 1
        },
        {
          "duration": 0.19480500000000234,
          "durationTicks": 48,
          "midi": 82,
          "name": "A#5",
          "ticks": 33432,
          "time": 135.6816825,
          "velocity": 1
        },
        {
          "duration": 0.19480500000000234,
          "durationTicks": 48,
          "midi": 77,
          "name": "F5",
          "ticks": 33432,
          "time": 135.6816825,
          "velocity": 1
        },
        {
          "duration": 0.19480500000000234,
          "durationTicks": 48,
          "midi": 81,
          "name": "A5",
          "ticks": 33480,
          "time": 135.8764875,
          "velocity": 1
        },
        {
          "duration": 0.19480500000000234,
          "durationTicks": 48,
          "midi": 76,
          "name": "E5",
          "ticks": 33480,
          "time": 135.8764875,
          "velocity": 1
        },
        {
          "duration": 0.19480500000000234,
          "durationTicks": 48,
          "midi": 79,
          "name": "G5",
          "ticks": 33528,
          "time": 136.0712925,
          "velocity": 1
        },
        {
          "duration": 0.19480500000000234,
          "durationTicks": 48,
          "midi": 74,
          "name": "D5",
          "ticks": 33528,
          "time": 136.0712925,
          "velocity": 1
        },
        {
          "duration": 0.19480500000000234,
          "durationTicks": 48,
          "midi": 77,
          "name": "F5",
          "ticks": 33576,
          "time": 136.2660975,
          "velocity": 1
        },
        {
          "duration": 0.19480500000000234,
          "durationTicks": 48,
          "midi": 72,
          "name": "C5",
          "ticks": 33576,
          "time": 136.2660975,
          "velocity": 1
        },
        {
          "duration": 0.19480500000000234,
          "durationTicks": 48,
          "midi": 77,
          "name": "F5",
          "ticks": 33624,
          "time": 136.4609025,
          "velocity": 1
        },
        {
          "duration": 0.19480500000000234,
          "durationTicks": 48,
          "midi": 72,
          "name": "C5",
          "ticks": 33624,
          "time": 136.4609025,
          "velocity": 1
        },
        {
          "duration": 0.19480500000000234,
          "durationTicks": 48,
          "midi": 74,
          "name": "D5",
          "ticks": 33720,
          "time": 136.8505125,
          "velocity": 1
        },
        {
          "duration": 0.19480500000000234,
          "durationTicks": 48,
          "midi": 69,
          "name": "A4",
          "ticks": 33720,
          "time": 136.8505125,
          "velocity": 1
        },
        {
          "duration": 0.19480500000000234,
          "durationTicks": 48,
          "midi": 77,
          "name": "F5",
          "ticks": 33768,
          "time": 137.0453175,
          "velocity": 1
        },
        {
          "duration": 0.19480500000000234,
          "durationTicks": 48,
          "midi": 72,
          "name": "C5",
          "ticks": 33768,
          "time": 137.0453175,
          "velocity": 1
        },
        {
          "duration": 0.2922074999999893,
          "durationTicks": 72,
          "midi": 79,
          "name": "G5",
          "ticks": 33816,
          "time": 137.2401225,
          "velocity": 1
        },
        {
          "duration": 0.2922074999999893,
          "durationTicks": 72,
          "midi": 74,
          "name": "D5",
          "ticks": 33816,
          "time": 137.2401225,
          "velocity": 1
        },
        {
          "duration": 0.2922074999999893,
          "durationTicks": 72,
          "midi": 79,
          "name": "G5",
          "ticks": 33888,
          "time": 137.53233,
          "velocity": 1
        },
        {
          "duration": 0.2922074999999893,
          "durationTicks": 72,
          "midi": 74,
          "name": "D5",
          "ticks": 33888,
          "time": 137.53233,
          "velocity": 1
        },
        {
          "duration": 0.19480500000000234,
          "durationTicks": 48,
          "midi": 81,
          "name": "A5",
          "ticks": 33960,
          "time": 137.8245375,
          "velocity": 1
        },
        {
          "duration": 0.19480500000000234,
          "durationTicks": 48,
          "midi": 76,
          "name": "E5",
          "ticks": 33960,
          "time": 137.8245375,
          "velocity": 1
        },
        {
          "duration": 0.3896100000000047,
          "durationTicks": 96,
          "midi": 81,
          "name": "A5",
          "ticks": 34008,
          "time": 138.0193425,
          "velocity": 1
        },
        {
          "duration": 0.3896100000000047,
          "durationTicks": 96,
          "midi": 76,
          "name": "E5",
          "ticks": 34008,
          "time": 138.0193425,
          "velocity": 1
        },
        {
          "duration": 0.19480500000000234,
          "durationTicks": 48,
          "midi": 81,
          "name": "A5",
          "ticks": 34152,
          "time": 138.6037575,
          "velocity": 1
        },
        {
          "duration": 0.19480500000000234,
          "durationTicks": 48,
          "midi": 76,
          "name": "E5",
          "ticks": 34152,
          "time": 138.6037575,
          "velocity": 1
        },
        {
          "duration": 0.19480500000000234,
          "durationTicks": 48,
          "midi": 84,
          "name": "C6",
          "ticks": 34200,
          "time": 138.7985625,
          "velocity": 1
        },
        {
          "duration": 0.19480500000000234,
          "durationTicks": 48,
          "midi": 79,
          "name": "G5",
          "ticks": 34200,
          "time": 138.7985625,
          "velocity": 1
        },
        {
          "duration": 0.19480500000000234,
          "durationTicks": 48,
          "midi": 86,
          "name": "D6",
          "ticks": 34248,
          "time": 138.9933675,
          "velocity": 1
        },
        {
          "duration": 0.19480500000000234,
          "durationTicks": 48,
          "midi": 81,
          "name": "A5",
          "ticks": 34248,
          "time": 138.9933675,
          "velocity": 1
        },
        {
          "duration": 0.19480500000000234,
          "durationTicks": 48,
          "midi": 79,
          "name": "G5",
          "ticks": 34296,
          "time": 139.1881725,
          "velocity": 1
        },
        {
          "duration": 0.19480500000000234,
          "durationTicks": 48,
          "midi": 74,
          "name": "D5",
          "ticks": 34296,
          "time": 139.1881725,
          "velocity": 1
        },
        {
          "duration": 0.19480500000000234,
          "durationTicks": 48,
          "midi": 77,
          "name": "F5",
          "ticks": 34344,
          "time": 139.3829775,
          "velocity": 1
        },
        {
          "duration": 0.19480500000000234,
          "durationTicks": 48,
          "midi": 72,
          "name": "C5",
          "ticks": 34344,
          "time": 139.3829775,
          "velocity": 1
        },
        {
          "duration": 0.19480500000000234,
          "durationTicks": 48,
          "midi": 81,
          "name": "A5",
          "ticks": 34392,
          "time": 139.5777825,
          "velocity": 1
        },
        {
          "duration": 0.19480500000000234,
          "durationTicks": 48,
          "midi": 76,
          "name": "E5",
          "ticks": 34392,
          "time": 139.5777825,
          "velocity": 1
        },
        {
          "duration": 0.19480499999997392,
          "durationTicks": 48,
          "midi": 74,
          "name": "D5",
          "ticks": 34488,
          "time": 139.96739250000002,
          "velocity": 1
        },
        {
          "duration": 0.19480499999997392,
          "durationTicks": 48,
          "midi": 69,
          "name": "A4",
          "ticks": 34488,
          "time": 139.96739250000002,
          "velocity": 1
        },
        {
          "duration": 0.19480500000000234,
          "durationTicks": 48,
          "midi": 77,
          "name": "F5",
          "ticks": 34536,
          "time": 140.1621975,
          "velocity": 1
        },
        {
          "duration": 0.19480500000000234,
          "durationTicks": 48,
          "midi": 72,
          "name": "C5",
          "ticks": 34536,
          "time": 140.1621975,
          "velocity": 1
        },
        {
          "duration": 0.3896100000000047,
          "durationTicks": 96,
          "midi": 82,
          "name": "A#5",
          "ticks": 34584,
          "time": 140.3570025,
          "velocity": 1
        },
        {
          "duration": 0.3896100000000047,
          "durationTicks": 96,
          "midi": 77,
          "name": "F5",
          "ticks": 34584,
          "time": 140.3570025,
          "velocity": 1
        },
        {
          "duration": 0.3896100000000047,
          "durationTicks": 96,
          "midi": 81,
          "name": "A5",
          "ticks": 34680,
          "time": 140.7466125,
          "velocity": 1
        },
        {
          "duration": 0.3896100000000047,
          "durationTicks": 96,
          "midi": 76,
          "name": "E5",
          "ticks": 34680,
          "time": 140.7466125,
          "velocity": 1
        },
        {
          "duration": 0.3896100000000047,
          "durationTicks": 96,
          "midi": 79,
          "name": "G5",
          "ticks": 34776,
          "time": 141.1362225,
          "velocity": 1
        },
        {
          "duration": 0.3896100000000047,
          "durationTicks": 96,
          "midi": 74,
          "name": "D5",
          "ticks": 34776,
          "time": 141.1362225,
          "velocity": 1
        },
        {
          "duration": 0.3896100000000047,
          "durationTicks": 96,
          "midi": 77,
          "name": "F5",
          "ticks": 34872,
          "time": 141.5258325,
          "velocity": 1
        },
        {
          "duration": 0.3896100000000047,
          "durationTicks": 96,
          "midi": 72,
          "name": "C5",
          "ticks": 34872,
          "time": 141.5258325,
          "velocity": 1
        },
        {
          "duration": 0.19480500000000234,
          "durationTicks": 48,
          "midi": 79,
          "name": "G5",
          "ticks": 34968,
          "time": 141.9154425,
          "velocity": 1
        },
        {
          "duration": 0.19480500000000234,
          "durationTicks": 48,
          "midi": 74,
          "name": "D5",
          "ticks": 34968,
          "time": 141.9154425,
          "velocity": 1
        },
        {
          "duration": 0.19480500000000234,
          "durationTicks": 48,
          "midi": 77,
          "name": "F5",
          "ticks": 35016,
          "time": 142.1102475,
          "velocity": 1
        },
        {
          "duration": 0.19480500000000234,
          "durationTicks": 48,
          "midi": 72,
          "name": "C5",
          "ticks": 35016,
          "time": 142.1102475,
          "velocity": 1
        },
        {
          "duration": 0.19480499999997392,
          "durationTicks": 48,
          "midi": 81,
          "name": "A5",
          "ticks": 35064,
          "time": 142.30505250000002,
          "velocity": 1
        },
        {
          "duration": 0.19480499999997392,
          "durationTicks": 48,
          "midi": 76,
          "name": "E5",
          "ticks": 35064,
          "time": 142.30505250000002,
          "velocity": 1
        },
        {
          "duration": 0.19480500000000234,
          "durationTicks": 48,
          "midi": 84,
          "name": "C6",
          "ticks": 35112,
          "time": 142.4998575,
          "velocity": 1
        },
        {
          "duration": 0.19480500000000234,
          "durationTicks": 48,
          "midi": 79,
          "name": "G5",
          "ticks": 35112,
          "time": 142.4998575,
          "velocity": 1
        },
        {
          "duration": 0.3896100000000047,
          "durationTicks": 96,
          "midi": 86,
          "name": "D6",
          "ticks": 35160,
          "time": 142.6946625,
          "velocity": 1
        },
        {
          "duration": 0.3896100000000047,
          "durationTicks": 96,
          "midi": 81,
          "name": "A5",
          "ticks": 35160,
          "time": 142.6946625,
          "velocity": 1
        },
        {
          "duration": 0.02435062500001095,
          "durationTicks": 6,
          "midi": 86,
          "name": "D6",
          "ticks": 35256,
          "time": 143.0842725,
          "velocity": 0.9212598425196851
        },
        {
          "duration": 0.02435062499998253,
          "durationTicks": 6,
          "midi": 84,
          "name": "C6",
          "ticks": 35262,
          "time": 143.108623125,
          "velocity": 0.889763779527559
        },
        {
          "duration": 0.02435062500001095,
          "durationTicks": 6,
          "midi": 83,
          "name": "B5",
          "ticks": 35268,
          "time": 143.13297375,
          "velocity": 0.8582677165354331
        },
        {
          "duration": 0.02435062500001095,
          "durationTicks": 6,
          "midi": 81,
          "name": "A5",
          "ticks": 35274,
          "time": 143.157324375,
          "velocity": 0.8267716535433071
        },
        {
          "duration": 0.02435062499998253,
          "durationTicks": 6,
          "midi": 79,
          "name": "G5",
          "ticks": 35280,
          "time": 143.181675,
          "velocity": 0.7952755905511811
        },
        {
          "duration": 0.02435062500001095,
          "durationTicks": 6,
          "midi": 77,
          "name": "F5",
          "ticks": 35286,
          "time": 143.206025625,
          "velocity": 0.7637795275590551
        },
        {
          "duration": 0.02435062500001095,
          "durationTicks": 6,
          "midi": 76,
          "name": "E5",
          "ticks": 35292,
          "time": 143.23037625,
          "velocity": 0.7322834645669292
        },
        {
          "duration": 0.02435062499998253,
          "durationTicks": 6,
          "midi": 74,
          "name": "D5",
          "ticks": 35298,
          "time": 143.25472687500002,
          "velocity": 0.7007874015748031
        },
        {
          "duration": 0.02435062500001095,
          "durationTicks": 6,
          "midi": 72,
          "name": "C5",
          "ticks": 35304,
          "time": 143.2790775,
          "velocity": 0.6692913385826772
        },
        {
          "duration": 0.02435062499998253,
          "durationTicks": 6,
          "midi": 71,
          "name": "B4",
          "ticks": 35310,
          "time": 143.303428125,
          "velocity": 0.6377952755905512
        },
        {
          "duration": 0.02435062500001095,
          "durationTicks": 6,
          "midi": 69,
          "name": "A4",
          "ticks": 35316,
          "time": 143.32777875,
          "velocity": 0.6062992125984252
        },
        {
          "duration": 0.02435062500001095,
          "durationTicks": 6,
          "midi": 67,
          "name": "G4",
          "ticks": 35322,
          "time": 143.352129375,
          "velocity": 0.5748031496062992
        },
        {
          "duration": 0.04870124999999348,
          "durationTicks": 12,
          "midi": 84,
          "name": "C6",
          "ticks": 35340,
          "time": 143.42518125,
          "velocity": 1
        },
        {
          "duration": 0.19480500000000234,
          "durationTicks": 48,
          "midi": 86,
          "name": "D6",
          "ticks": 35352,
          "time": 143.4738825,
          "velocity": 1
        },
        {
          "duration": 0.19480500000000234,
          "durationTicks": 48,
          "midi": 86,
          "name": "D6",
          "ticks": 35400,
          "time": 143.6686875,
          "velocity": 1
        },
        {
          "duration": 0.19480500000000234,
          "durationTicks": 48,
          "midi": 81,
          "name": "A5",
          "ticks": 35400,
          "time": 143.6686875,
          "velocity": 1
        },
        {
          "duration": 0.19480500000000234,
          "durationTicks": 48,
          "midi": 81,
          "name": "A5",
          "ticks": 35448,
          "time": 143.8634925,
          "velocity": 1
        },
        {
          "duration": 0.19480500000000234,
          "durationTicks": 48,
          "midi": 86,
          "name": "D6",
          "ticks": 35448,
          "time": 143.8634925,
          "velocity": 1
        },
        {
          "duration": 0.19480500000000234,
          "durationTicks": 48,
          "midi": 81,
          "name": "A5",
          "ticks": 35496,
          "time": 144.0582975,
          "velocity": 1
        },
        {
          "duration": 0.19480500000000234,
          "durationTicks": 48,
          "midi": 86,
          "name": "D6",
          "ticks": 35496,
          "time": 144.0582975,
          "velocity": 1
        },
        {
          "duration": 0.19480500000000234,
          "durationTicks": 48,
          "midi": 81,
          "name": "A5",
          "ticks": 35544,
          "time": 144.2531025,
          "velocity": 1
        },
        {
          "duration": 0.19480500000000234,
          "durationTicks": 48,
          "midi": 86,
          "name": "D6",
          "ticks": 35544,
          "time": 144.2531025,
          "velocity": 1
        },
        {
          "duration": 0.19480500000000234,
          "durationTicks": 48,
          "midi": 86,
          "name": "D6",
          "ticks": 35592,
          "time": 144.4479075,
          "velocity": 1
        },
        {
          "duration": 0.19480500000000234,
          "durationTicks": 48,
          "midi": 81,
          "name": "A5",
          "ticks": 35592,
          "time": 144.4479075,
          "velocity": 1
        },
        {
          "duration": 0.19480500000000234,
          "durationTicks": 48,
          "midi": 81,
          "name": "A5",
          "ticks": 35640,
          "time": 144.64271250000002,
          "velocity": 1
        },
        {
          "duration": 0.09740249999998696,
          "durationTicks": 24,
          "midi": 86,
          "name": "D6",
          "ticks": 35640,
          "time": 144.64271250000002,
          "velocity": 1
        },
        {
          "duration": 0.09740250000001538,
          "durationTicks": 24,
          "midi": 84,
          "name": "C6",
          "ticks": 35664,
          "time": 144.740115,
          "velocity": 1
        },
        {
          "duration": 0.19480499999997392,
          "durationTicks": 48,
          "midi": 81,
          "name": "A5",
          "ticks": 35688,
          "time": 144.83751750000002,
          "velocity": 1
        },
        {
          "duration": 0.19480500000000234,
          "durationTicks": 48,
          "midi": 74,
          "name": "D5",
          "ticks": 35736,
          "time": 145.0323225,
          "velocity": 1
        },
        {
          "duration": 0.19480500000000234,
          "durationTicks": 48,
          "midi": 79,
          "name": "G5",
          "ticks": 35736,
          "time": 145.0323225,
          "velocity": 1
        },
        {
          "duration": 0.19480500000000234,
          "durationTicks": 48,
          "midi": 74,
          "name": "D5",
          "ticks": 35784,
          "time": 145.2271275,
          "velocity": 1
        },
        {
          "duration": 0.19480500000000234,
          "durationTicks": 48,
          "midi": 79,
          "name": "G5",
          "ticks": 35784,
          "time": 145.2271275,
          "velocity": 1
        },
        {
          "duration": 0.19480500000000234,
          "durationTicks": 48,
          "midi": 74,
          "name": "D5",
          "ticks": 35832,
          "time": 145.4219325,
          "velocity": 1
        },
        {
          "duration": 0.19480500000000234,
          "durationTicks": 48,
          "midi": 79,
          "name": "G5",
          "ticks": 35832,
          "time": 145.4219325,
          "velocity": 1
        },
        {
          "duration": 0.19480500000000234,
          "durationTicks": 48,
          "midi": 74,
          "name": "D5",
          "ticks": 35880,
          "time": 145.6167375,
          "velocity": 1
        },
        {
          "duration": 0.19480500000000234,
          "durationTicks": 48,
          "midi": 79,
          "name": "G5",
          "ticks": 35880,
          "time": 145.6167375,
          "velocity": 1
        },
        {
          "duration": 0.19480500000000234,
          "durationTicks": 48,
          "midi": 74,
          "name": "D5",
          "ticks": 35928,
          "time": 145.8115425,
          "velocity": 1
        },
        {
          "duration": 0.19480500000000234,
          "durationTicks": 48,
          "midi": 79,
          "name": "G5",
          "ticks": 35928,
          "time": 145.8115425,
          "velocity": 1
        },
        {
          "duration": 0.19480500000000234,
          "durationTicks": 48,
          "midi": 74,
          "name": "D5",
          "ticks": 35976,
          "time": 146.0063475,
          "velocity": 1
        },
        {
          "duration": 0.19480500000000234,
          "durationTicks": 48,
          "midi": 79,
          "name": "G5",
          "ticks": 35976,
          "time": 146.0063475,
          "velocity": 1
        },
        {
          "duration": 0.09740249999998696,
          "durationTicks": 24,
          "midi": 79,
          "name": "G5",
          "ticks": 36024,
          "time": 146.2011525,
          "velocity": 1
        },
        {
          "duration": 0.19480500000000234,
          "durationTicks": 48,
          "midi": 74,
          "name": "D5",
          "ticks": 36024,
          "time": 146.2011525,
          "velocity": 1
        },
        {
          "duration": 0.09740250000001538,
          "durationTicks": 24,
          "midi": 77,
          "name": "F5",
          "ticks": 36048,
          "time": 146.298555,
          "velocity": 1
        },
        {
          "duration": 0.19480500000000234,
          "durationTicks": 48,
          "midi": 74,
          "name": "D5",
          "ticks": 36072,
          "time": 146.3959575,
          "velocity": 1
        },
        {
          "duration": 0.19480500000000234,
          "durationTicks": 48,
          "midi": 69,
          "name": "A4",
          "ticks": 36072,
          "time": 146.3959575,
          "velocity": 1
        },
        {
          "duration": 0.19480500000000234,
          "durationTicks": 48,
          "midi": 69,
          "name": "A4",
          "ticks": 36120,
          "time": 146.5907625,
          "velocity": 1
        },
        {
          "duration": 0.1785712500000045,
          "durationTicks": 44,
          "midi": 74,
          "name": "D5",
          "ticks": 36124,
          "time": 146.60699625,
          "velocity": 1
        },
        {
          "duration": 0.19480500000000234,
          "durationTicks": 48,
          "midi": 69,
          "name": "A4",
          "ticks": 36168,
          "time": 146.7855675,
          "velocity": 1
        },
        {
          "duration": 0.19480500000000234,
          "durationTicks": 48,
          "midi": 74,
          "name": "D5",
          "ticks": 36168,
          "time": 146.7855675,
          "velocity": 1
        },
        {
          "duration": 0.19480500000000234,
          "durationTicks": 48,
          "midi": 69,
          "name": "A4",
          "ticks": 36216,
          "time": 146.98037250000002,
          "velocity": 1
        },
        {
          "duration": 0.1785712500000045,
          "durationTicks": 44,
          "midi": 74,
          "name": "D5",
          "ticks": 36220,
          "time": 146.99660625,
          "velocity": 1
        },
        {
          "duration": 0.19480499999997392,
          "durationTicks": 48,
          "midi": 74,
          "name": "D5",
          "ticks": 36264,
          "time": 147.17517750000002,
          "velocity": 1
        },
        {
          "duration": 0.19480499999997392,
          "durationTicks": 48,
          "midi": 69,
          "name": "A4",
          "ticks": 36264,
          "time": 147.17517750000002,
          "velocity": 1
        },
        {
          "duration": 0.19480500000000234,
          "durationTicks": 48,
          "midi": 69,
          "name": "A4",
          "ticks": 36312,
          "time": 147.3699825,
          "velocity": 1
        },
        {
          "duration": 0.19480500000000234,
          "durationTicks": 48,
          "midi": 74,
          "name": "D5",
          "ticks": 36312,
          "time": 147.3699825,
          "velocity": 1
        },
        {
          "duration": 0.19480500000000234,
          "durationTicks": 48,
          "midi": 69,
          "name": "A4",
          "ticks": 36360,
          "time": 147.5647875,
          "velocity": 1
        },
        {
          "duration": 0.19480500000000234,
          "durationTicks": 48,
          "midi": 74,
          "name": "D5",
          "ticks": 36360,
          "time": 147.5647875,
          "velocity": 1
        },
        {
          "duration": 0.19480500000000234,
          "durationTicks": 48,
          "midi": 69,
          "name": "A4",
          "ticks": 36408,
          "time": 147.7595925,
          "velocity": 1
        },
        {
          "duration": 0.08116874999998913,
          "durationTicks": 20,
          "midi": 74,
          "name": "D5",
          "ticks": 36412,
          "time": 147.77582625000002,
          "velocity": 1
        },
        {
          "duration": 0.09740249999998696,
          "durationTicks": 24,
          "midi": 72,
          "name": "C5",
          "ticks": 36432,
          "time": 147.856995,
          "velocity": 1
        },
        {
          "duration": 0.19480500000000234,
          "durationTicks": 48,
          "midi": 69,
          "name": "A4",
          "ticks": 36456,
          "time": 147.9543975,
          "velocity": 1
        },
        {
          "duration": 0.19480500000000234,
          "durationTicks": 48,
          "midi": 64,
          "name": "E4",
          "ticks": 36456,
          "time": 147.9543975,
          "velocity": 1
        },
        {
          "duration": 0.19480500000000234,
          "durationTicks": 48,
          "midi": 67,
          "name": "G4",
          "ticks": 36504,
          "time": 148.1492025,
          "velocity": 1
        },
        {
          "duration": 0.09740249999998696,
          "durationTicks": 24,
          "midi": 69,
          "name": "A4",
          "ticks": 36552,
          "time": 148.3440075,
          "velocity": 1
        },
        {
          "duration": 0.09740250000001538,
          "durationTicks": 24,
          "midi": 67,
          "name": "G4",
          "ticks": 36576,
          "time": 148.44141,
          "velocity": 1
        },
        {
          "duration": 0.09740249999998696,
          "durationTicks": 24,
          "midi": 69,
          "name": "A4",
          "ticks": 36600,
          "time": 148.5388125,
          "velocity": 1
        },
        {
          "duration": 0.09740250000001538,
          "durationTicks": 24,
          "midi": 72,
          "name": "C5",
          "ticks": 36624,
          "time": 148.636215,
          "velocity": 1
        },
        {
          "duration": 0.09740249999998696,
          "durationTicks": 24,
          "midi": 73,
          "name": "C#5",
          "ticks": 36648,
          "time": 148.7336175,
          "velocity": 1
        },
        {
          "duration": 0.09740250000001538,
          "durationTicks": 24,
          "midi": 74,
          "name": "D5",
          "ticks": 36672,
          "time": 148.83102,
          "velocity": 1
        },
        {
          "duration": 0.04870124999999348,
          "durationTicks": 12,
          "midi": 75,
          "name": "D#5",
          "ticks": 36696,
          "time": 148.9284225,
          "velocity": 1
        },
        {
          "duration": 0.04870124999999348,
          "durationTicks": 12,
          "midi": 76,
          "name": "E5",
          "ticks": 36708,
          "time": 148.97712375,
          "velocity": 1
        },
        {
          "duration": 0.04870124999999348,
          "durationTicks": 12,
          "midi": 79,
          "name": "G5",
          "ticks": 36720,
          "time": 149.025825,
          "velocity": 1
        },
        {
          "duration": 0.0487012500000219,
          "durationTicks": 12,
          "midi": 81,
          "name": "A5",
          "ticks": 36732,
          "time": 149.07452625,
          "velocity": 1
        },
        {
          "duration": 0.09740249999998696,
          "durationTicks": 24,
          "midi": 86,
          "name": "D6",
          "ticks": 36744,
          "time": 149.1232275,
          "velocity": 1
        },
        {
          "duration": 0.09740250000001538,
          "durationTicks": 24,
          "midi": 89,
          "name": "F6",
          "ticks": 36768,
          "time": 149.22063,
          "velocity": 1
        },
        {
          "duration": 0.19480500000000234,
          "durationTicks": 48,
          "midi": 76,
          "name": "E5",
          "ticks": 36792,
          "time": 149.31803250000002,
          "velocity": 1
        },
        {
          "duration": 0.19480500000000234,
          "durationTicks": 48,
          "midi": 88,
          "name": "E6",
          "ticks": 36792,
          "time": 149.31803250000002,
          "velocity": 1
        },
        {
          "duration": 0.19480499999997392,
          "durationTicks": 48,
          "midi": 74,
          "name": "D5",
          "ticks": 36840,
          "time": 149.51283750000002,
          "velocity": 1
        },
        {
          "duration": 0.19480499999997392,
          "durationTicks": 48,
          "midi": 86,
          "name": "D6",
          "ticks": 36840,
          "time": 149.51283750000002,
          "velocity": 1
        },
        {
          "duration": 0.09740249999998696,
          "durationTicks": 24,
          "midi": 76,
          "name": "E5",
          "ticks": 36864,
          "time": 149.61024,
          "velocity": 1
        },
        {
          "duration": 0.09740250000001538,
          "durationTicks": 24,
          "midi": 81,
          "name": "A5",
          "ticks": 36888,
          "time": 149.7076425,
          "velocity": 1
        },
        {
          "duration": 0.09740249999998696,
          "durationTicks": 24,
          "midi": 79,
          "name": "G5",
          "ticks": 36912,
          "time": 149.805045,
          "velocity": 1
        },
        {
          "duration": 0.09740250000001538,
          "durationTicks": 24,
          "midi": 74,
          "name": "D5",
          "ticks": 36936,
          "time": 149.9024475,
          "velocity": 1
        },
        {
          "duration": 0.09740249999998696,
          "durationTicks": 24,
          "midi": 81,
          "name": "A5",
          "ticks": 36960,
          "time": 149.99985,
          "velocity": 1
        },
        {
          "duration": 0.09740249999998696,
          "durationTicks": 24,
          "midi": 81,
          "name": "A5",
          "ticks": 37008,
          "time": 150.194655,
          "velocity": 1
        },
        {
          "duration": 0.09740250000001538,
          "durationTicks": 24,
          "midi": 79,
          "name": "G5",
          "ticks": 37032,
          "time": 150.2920575,
          "velocity": 1
        },
        {
          "duration": 0.09740249999998696,
          "durationTicks": 24,
          "midi": 74,
          "name": "D5",
          "ticks": 37056,
          "time": 150.38946,
          "velocity": 1
        },
        {
          "duration": 0.09740250000001538,
          "durationTicks": 24,
          "midi": 81,
          "name": "A5",
          "ticks": 37080,
          "time": 150.4868625,
          "velocity": 1
        },
        {
          "duration": 0.09740249999998696,
          "durationTicks": 24,
          "midi": 79,
          "name": "G5",
          "ticks": 37104,
          "time": 150.58426500000002,
          "velocity": 1
        },
        {
          "duration": 0.09740250000001538,
          "durationTicks": 24,
          "midi": 74,
          "name": "D5",
          "ticks": 37128,
          "time": 150.6816675,
          "velocity": 1
        },
        {
          "duration": 0.09740249999998696,
          "durationTicks": 24,
          "midi": 81,
          "name": "A5",
          "ticks": 37152,
          "time": 150.77907000000002,
          "velocity": 1
        },
        {
          "duration": 0.09740250000001538,
          "durationTicks": 24,
          "midi": 81,
          "name": "A5",
          "ticks": 37200,
          "time": 150.973875,
          "velocity": 1
        },
        {
          "duration": 0.09740249999998696,
          "durationTicks": 24,
          "midi": 79,
          "name": "G5",
          "ticks": 37224,
          "time": 151.0712775,
          "velocity": 1
        },
        {
          "duration": 0.09740250000001538,
          "durationTicks": 24,
          "midi": 74,
          "name": "D5",
          "ticks": 37248,
          "time": 151.16868,
          "velocity": 1
        },
        {
          "duration": 0.09740249999998696,
          "durationTicks": 24,
          "midi": 82,
          "name": "A#5",
          "ticks": 37272,
          "time": 151.2660825,
          "velocity": 1
        },
        {
          "duration": 0.09740250000001538,
          "durationTicks": 24,
          "midi": 79,
          "name": "G5",
          "ticks": 37296,
          "time": 151.363485,
          "velocity": 1
        },
        {
          "duration": 0.09740249999998696,
          "durationTicks": 24,
          "midi": 75,
          "name": "D#5",
          "ticks": 37320,
          "time": 151.4608875,
          "velocity": 1
        },
        {
          "duration": 0.09740250000001538,
          "durationTicks": 24,
          "midi": 82,
          "name": "A#5",
          "ticks": 37344,
          "time": 151.55829,
          "velocity": 1
        },
        {
          "duration": 0.09740250000001538,
          "durationTicks": 24,
          "midi": 82,
          "name": "A#5",
          "ticks": 37392,
          "time": 151.753095,
          "velocity": 1
        },
        {
          "duration": 0.09740249999998696,
          "durationTicks": 24,
          "midi": 79,
          "name": "G5",
          "ticks": 37416,
          "time": 151.85049750000002,
          "velocity": 1
        },
        {
          "duration": 0.09740249999998696,
          "durationTicks": 24,
          "midi": 75,
          "name": "D#5",
          "ticks": 37440,
          "time": 151.9479,
          "velocity": 1
        },
        {
          "duration": 0.09740250000001538,
          "durationTicks": 24,
          "midi": 82,
          "name": "A#5",
          "ticks": 37464,
          "time": 152.0453025,
          "velocity": 1
        },
        {
          "duration": 0.09740249999998696,
          "durationTicks": 24,
          "midi": 79,
          "name": "G5",
          "ticks": 37488,
          "time": 152.142705,
          "velocity": 1
        },
        {
          "duration": 0.09740250000001538,
          "durationTicks": 24,
          "midi": 75,
          "name": "D#5",
          "ticks": 37512,
          "time": 152.2401075,
          "velocity": 1
        },
        {
          "duration": 0.09740249999998696,
          "durationTicks": 24,
          "midi": 82,
          "name": "A#5",
          "ticks": 37536,
          "time": 152.33751,
          "velocity": 1
        },
        {
          "duration": 0.09740249999998696,
          "durationTicks": 24,
          "midi": 82,
          "name": "A#5",
          "ticks": 37584,
          "time": 152.532315,
          "velocity": 1
        },
        {
          "duration": 0.09740250000001538,
          "durationTicks": 24,
          "midi": 79,
          "name": "G5",
          "ticks": 37608,
          "time": 152.6297175,
          "velocity": 1
        },
        {
          "duration": 0.09740249999998696,
          "durationTicks": 24,
          "midi": 75,
          "name": "D#5",
          "ticks": 37632,
          "time": 152.72712,
          "velocity": 1
        },
        {
          "duration": 0.09740250000001538,
          "durationTicks": 24,
          "midi": 82,
          "name": "A#5",
          "ticks": 37656,
          "time": 152.8245225,
          "velocity": 1
        },
        {
          "duration": 0.09740249999998696,
          "durationTicks": 24,
          "midi": 77,
          "name": "F5",
          "ticks": 37680,
          "time": 152.92192500000002,
          "velocity": 1
        },
        {
          "duration": 0.09740250000001538,
          "durationTicks": 24,
          "midi": 74,
          "name": "D5",
          "ticks": 37704,
          "time": 153.0193275,
          "velocity": 1
        },
        {
          "duration": 0.09740249999998696,
          "durationTicks": 24,
          "midi": 82,
          "name": "A#5",
          "ticks": 37728,
          "time": 153.11673000000002,
          "velocity": 1
        },
        {
          "duration": 0.09740250000001538,
          "durationTicks": 24,
          "midi": 82,
          "name": "A#5",
          "ticks": 37776,
          "time": 153.311535,
          "velocity": 1
        },
        {
          "duration": 0.09740249999998696,
          "durationTicks": 24,
          "midi": 77,
          "name": "F5",
          "ticks": 37800,
          "time": 153.4089375,
          "velocity": 1
        },
        {
          "duration": 0.09740250000001538,
          "durationTicks": 24,
          "midi": 74,
          "name": "D5",
          "ticks": 37824,
          "time": 153.50634,
          "velocity": 1
        },
        {
          "duration": 0.09740249999998696,
          "durationTicks": 24,
          "midi": 82,
          "name": "A#5",
          "ticks": 37848,
          "time": 153.6037425,
          "velocity": 1
        },
        {
          "duration": 0.09740250000001538,
          "durationTicks": 24,
          "midi": 77,
          "name": "F5",
          "ticks": 37872,
          "time": 153.701145,
          "velocity": 1
        },
        {
          "duration": 0.09740249999998696,
          "durationTicks": 24,
          "midi": 74,
          "name": "D5",
          "ticks": 37896,
          "time": 153.7985475,
          "velocity": 1
        },
        {
          "duration": 0.09740250000001538,
          "durationTicks": 24,
          "midi": 82,
          "name": "A#5",
          "ticks": 37920,
          "time": 153.89595,
          "velocity": 1
        },
        {
          "duration": 0.09740250000001538,
          "durationTicks": 24,
          "midi": 82,
          "name": "A#5",
          "ticks": 37968,
          "time": 154.090755,
          "velocity": 1
        },
        {
          "duration": 0.09740249999998696,
          "durationTicks": 24,
          "midi": 77,
          "name": "F5",
          "ticks": 37992,
          "time": 154.18815750000002,
          "velocity": 1
        },
        {
          "duration": 0.09740249999998696,
          "durationTicks": 24,
          "midi": 74,
          "name": "D5",
          "ticks": 38016,
          "time": 154.28556,
          "velocity": 1
        },
        {
          "duration": 0.09740250000001538,
          "durationTicks": 24,
          "midi": 79,
          "name": "G5",
          "ticks": 38040,
          "time": 154.3829625,
          "velocity": 1
        },
        {
          "duration": 0.09740249999998696,
          "durationTicks": 24,
          "midi": 76,
          "name": "E5",
          "ticks": 38064,
          "time": 154.480365,
          "velocity": 1
        },
        {
          "duration": 0.09740250000001538,
          "durationTicks": 24,
          "midi": 72,
          "name": "C5",
          "ticks": 38088,
          "time": 154.5777675,
          "velocity": 1
        },
        {
          "duration": 0.09740249999998696,
          "durationTicks": 24,
          "midi": 79,
          "name": "G5",
          "ticks": 38112,
          "time": 154.67517,
          "velocity": 1
        },
        {
          "duration": 0.09740249999998696,
          "durationTicks": 24,
          "midi": 79,
          "name": "G5",
          "ticks": 38160,
          "time": 154.869975,
          "velocity": 1
        },
        {
          "duration": 0.09740250000001538,
          "durationTicks": 24,
          "midi": 76,
          "name": "E5",
          "ticks": 38184,
          "time": 154.9673775,
          "velocity": 1
        },
        {
          "duration": 0.09740249999998696,
          "durationTicks": 24,
          "midi": 72,
          "name": "C5",
          "ticks": 38208,
          "time": 155.06478,
          "velocity": 1
        },
        {
          "duration": 0.09740250000001538,
          "durationTicks": 24,
          "midi": 81,
          "name": "A5",
          "ticks": 38232,
          "time": 155.1621825,
          "velocity": 1
        },
        {
          "duration": 0.09740249999998696,
          "durationTicks": 24,
          "midi": 79,
          "name": "G5",
          "ticks": 38256,
          "time": 155.25958500000002,
          "velocity": 1
        },
        {
          "duration": 0.09740250000001538,
          "durationTicks": 24,
          "midi": 73,
          "name": "C#5",
          "ticks": 38280,
          "time": 155.3569875,
          "velocity": 1
        },
        {
          "duration": 0.09740249999998696,
          "durationTicks": 24,
          "midi": 81,
          "name": "A5",
          "ticks": 38304,
          "time": 155.45439000000002,
          "velocity": 1
        },
        {
          "duration": 0.09740250000001538,
          "durationTicks": 24,
          "midi": 81,
          "name": "A5",
          "ticks": 38352,
          "time": 155.649195,
          "velocity": 1
        },
        {
          "duration": 0.09740249999998696,
          "durationTicks": 24,
          "midi": 79,
          "name": "G5",
          "ticks": 38376,
          "time": 155.7465975,
          "velocity": 1
        },
        {
          "duration": 0.0487012500000219,
          "durationTicks": 12,
          "midi": 77,
          "name": "F5",
          "ticks": 38400,
          "time": 155.844,
          "velocity": 1
        },
        {
          "duration": 0.04870124999999348,
          "durationTicks": 12,
          "midi": 79,
          "name": "G5",
          "ticks": 38412,
          "time": 155.89270125000002,
          "velocity": 1
        },
        {
          "duration": 0.09740249999998696,
          "durationTicks": 24,
          "midi": 81,
          "name": "A5",
          "ticks": 38424,
          "time": 155.9414025,
          "velocity": 1
        },
        {
          "duration": 0.09740250000001538,
          "durationTicks": 24,
          "midi": 79,
          "name": "G5",
          "ticks": 38448,
          "time": 156.038805,
          "velocity": 1
        },
        {
          "duration": 0.09740249999998696,
          "durationTicks": 24,
          "midi": 74,
          "name": "D5",
          "ticks": 38472,
          "time": 156.1362075,
          "velocity": 1
        },
        {
          "duration": 0.09740250000001538,
          "durationTicks": 24,
          "midi": 81,
          "name": "A5",
          "ticks": 38496,
          "time": 156.23361,
          "velocity": 1
        },
        {
          "duration": 0.09740249999998696,
          "durationTicks": 24,
          "midi": 86,
          "name": "D6",
          "ticks": 38520,
          "time": 156.3310125,
          "velocity": 1
        },
        {
          "duration": 0.09740250000001538,
          "durationTicks": 24,
          "midi": 81,
          "name": "A5",
          "ticks": 38544,
          "time": 156.428415,
          "velocity": 1
        },
        {
          "duration": 0.09740249999998696,
          "durationTicks": 24,
          "midi": 77,
          "name": "F5",
          "ticks": 38568,
          "time": 156.52581750000002,
          "velocity": 1
        },
        {
          "duration": 0.04870124999999348,
          "durationTicks": 12,
          "midi": 74,
          "name": "D5",
          "ticks": 38592,
          "time": 156.62322,
          "velocity": 1
        },
        {
          "duration": 0.0487012500000219,
          "durationTicks": 12,
          "midi": 77,
          "name": "F5",
          "ticks": 38604,
          "time": 156.67192125,
          "velocity": 1
        },
        {
          "duration": 0.09740249999998696,
          "durationTicks": 24,
          "midi": 81,
          "name": "A5",
          "ticks": 38616,
          "time": 156.72062250000002,
          "velocity": 1
        },
        {
          "duration": 0.09740249999998696,
          "durationTicks": 24,
          "midi": 77,
          "name": "F5",
          "ticks": 38640,
          "time": 156.818025,
          "velocity": 1
        },
        {
          "duration": 0.09740250000001538,
          "durationTicks": 24,
          "midi": 74,
          "name": "D5",
          "ticks": 38664,
          "time": 156.9154275,
          "velocity": 1
        },
        {
          "duration": 0.09740249999998696,
          "durationTicks": 24,
          "midi": 81,
          "name": "A5",
          "ticks": 38688,
          "time": 157.01283,
          "velocity": 1
        },
        {
          "duration": 0.09740250000001538,
          "durationTicks": 24,
          "midi": 89,
          "name": "F6",
          "ticks": 38712,
          "time": 157.1102325,
          "velocity": 1
        },
        {
          "duration": 0.04870124999999348,
          "durationTicks": 12,
          "midi": 88,
          "name": "E6",
          "ticks": 38736,
          "time": 157.207635,
          "velocity": 1
        },
        {
          "duration": 0.09740249999998696,
          "durationTicks": 24,
          "midi": 86,
          "name": "D6",
          "ticks": 38748,
          "time": 157.25633625,
          "velocity": 1
        },
        {
          "duration": 0.09740250000001538,
          "durationTicks": 24,
          "midi": 81,
          "name": "A5",
          "ticks": 38760,
          "time": 157.3050375,
          "velocity": 1
        },
        {
          "duration": 0.09740249999998696,
          "durationTicks": 24,
          "midi": 77,
          "name": "F5",
          "ticks": 38784,
          "time": 157.40244,
          "velocity": 1
        },
        {
          "duration": 0.09740250000001538,
          "durationTicks": 24,
          "midi": 82,
          "name": "A#5",
          "ticks": 38808,
          "time": 157.4998425,
          "velocity": 1
        },
        {
          "duration": 0.09740249999998696,
          "durationTicks": 24,
          "midi": 79,
          "name": "G5",
          "ticks": 38832,
          "time": 157.59724500000002,
          "velocity": 1
        },
        {
          "duration": 0.09740250000001538,
          "durationTicks": 24,
          "midi": 75,
          "name": "D#5",
          "ticks": 38856,
          "time": 157.6946475,
          "velocity": 1
        },
        {
          "duration": 0.04870124999999348,
          "durationTicks": 12,
          "midi": 82,
          "name": "A#5",
          "ticks": 38880,
          "time": 157.79205000000002,
          "velocity": 1
        },
        {
          "duration": 0.04870124999999348,
          "durationTicks": 12,
          "midi": 84,
          "name": "C6",
          "ticks": 38892,
          "time": 157.84075125,
          "velocity": 1
        },
        {
          "duration": 0.09740249999998696,
          "durationTicks": 24,
          "midi": 87,
          "name": "D#6",
          "ticks": 38904,
          "time": 157.8894525,
          "velocity": 1
        },
        {
          "duration": 0.09740250000001538,
          "durationTicks": 24,
          "midi": 82,
          "name": "A#5",
          "ticks": 38928,
          "time": 157.986855,
          "velocity": 1
        },
        {
          "duration": 0.09740249999998696,
          "durationTicks": 24,
          "midi": 79,
          "name": "G5",
          "ticks": 38952,
          "time": 158.0842575,
          "velocity": 1
        },
        {
          "duration": 0.09740250000001538,
          "durationTicks": 24,
          "midi": 75,
          "name": "D#5",
          "ticks": 38976,
          "time": 158.18166,
          "velocity": 1
        },
        {
          "duration": 0.09740249999998696,
          "durationTicks": 24,
          "midi": 82,
          "name": "A#5",
          "ticks": 39000,
          "time": 158.2790625,
          "velocity": 1
        },
        {
          "duration": 0.09740250000001538,
          "durationTicks": 24,
          "midi": 79,
          "name": "G5",
          "ticks": 39024,
          "time": 158.376465,
          "velocity": 1
        },
        {
          "duration": 0.09740249999998696,
          "durationTicks": 24,
          "midi": 75,
          "name": "D#5",
          "ticks": 39048,
          "time": 158.4738675,
          "velocity": 1
        },
        {
          "duration": 0.09740250000001538,
          "durationTicks": 24,
          "midi": 82,
          "name": "A#5",
          "ticks": 39072,
          "time": 158.57127,
          "velocity": 1
        },
        {
          "duration": 0.09740249999998696,
          "durationTicks": 24,
          "midi": 91,
          "name": "G6",
          "ticks": 39096,
          "time": 158.6686725,
          "velocity": 1
        },
        {
          "duration": 0.09740250000001538,
          "durationTicks": 24,
          "midi": 89,
          "name": "F6",
          "ticks": 39120,
          "time": 158.766075,
          "velocity": 1
        },
        {
          "duration": 0.09740249999998696,
          "durationTicks": 24,
          "midi": 87,
          "name": "D#6",
          "ticks": 39144,
          "time": 158.86347750000002,
          "velocity": 1
        },
        {
          "duration": 0.09740250000001538,
          "durationTicks": 24,
          "midi": 79,
          "name": "G5",
          "ticks": 39168,
          "time": 158.96088,
          "velocity": 1
        },
        {
          "duration": 0.09740249999998696,
          "durationTicks": 24,
          "midi": 86,
          "name": "D6",
          "ticks": 39192,
          "time": 159.05828250000002,
          "velocity": 1
        },
        {
          "duration": 0.09740249999998696,
          "durationTicks": 24,
          "midi": 82,
          "name": "A#5",
          "ticks": 39216,
          "time": 159.155685,
          "velocity": 1
        },
        {
          "duration": 0.09740250000001538,
          "durationTicks": 24,
          "midi": 77,
          "name": "F5",
          "ticks": 39240,
          "time": 159.2530875,
          "velocity": 1
        },
        {
          "duration": 0.04870124999999348,
          "durationTicks": 12,
          "midi": 86,
          "name": "D6",
          "ticks": 39264,
          "time": 159.35049,
          "velocity": 1
        },
        {
          "duration": 0.04870124999999348,
          "durationTicks": 12,
          "midi": 88,
          "name": "E6",
          "ticks": 39276,
          "time": 159.39919125,
          "velocity": 1
        },
        {
          "duration": 0.09740250000001538,
          "durationTicks": 24,
          "midi": 89,
          "name": "F6",
          "ticks": 39288,
          "time": 159.4478925,
          "velocity": 1
        },
        {
          "duration": 0.09740249999998696,
          "durationTicks": 24,
          "midi": 82,
          "name": "A#5",
          "ticks": 39312,
          "time": 159.545295,
          "velocity": 1
        },
        {
          "duration": 0.09740250000001538,
          "durationTicks": 24,
          "midi": 86,
          "name": "D6",
          "ticks": 39336,
          "time": 159.6426975,
          "velocity": 1
        },
        {
          "duration": 0.09740249999998696,
          "durationTicks": 24,
          "midi": 89,
          "name": "F6",
          "ticks": 39360,
          "time": 159.7401,
          "velocity": 1
        },
        {
          "duration": 0.09740250000001538,
          "durationTicks": 24,
          "midi": 94,
          "name": "A#6",
          "ticks": 39384,
          "time": 159.8375025,
          "velocity": 1
        },
        {
          "duration": 0.09740249999998696,
          "durationTicks": 24,
          "midi": 89,
          "name": "F6",
          "ticks": 39408,
          "time": 159.93490500000001,
          "velocity": 1
        },
        {
          "duration": 0.09740250000001538,
          "durationTicks": 24,
          "midi": 86,
          "name": "D6",
          "ticks": 39432,
          "time": 160.0323075,
          "velocity": 1
        },
        {
          "duration": 0.09740249999998696,
          "durationTicks": 24,
          "midi": 82,
          "name": "A#5",
          "ticks": 39456,
          "time": 160.12971000000002,
          "velocity": 1
        },
        {
          "duration": 0.09740249999998696,
          "durationTicks": 24,
          "midi": 82,
          "name": "A#5",
          "ticks": 39480,
          "time": 160.2271125,
          "velocity": 1
        },
        {
          "duration": 0.09740250000001538,
          "durationTicks": 24,
          "midi": 79,
          "name": "G5",
          "ticks": 39504,
          "time": 160.324515,
          "velocity": 1
        },
        {
          "duration": 0.09740249999998696,
          "durationTicks": 24,
          "midi": 77,
          "name": "F5",
          "ticks": 39528,
          "time": 160.4219175,
          "velocity": 1
        },
        {
          "duration": 0.09740250000001538,
          "durationTicks": 24,
          "midi": 74,
          "name": "D5",
          "ticks": 39552,
          "time": 160.51932,
          "velocity": 1
        },
        {
          "duration": 0.19480500000000234,
          "durationTicks": 48,
          "midi": 60,
          "name": "C4",
          "ticks": 39576,
          "time": 160.6167225,
          "velocity": 1
        },
        {
          "duration": 0.09740249999998696,
          "durationTicks": 24,
          "midi": 64,
          "name": "E4",
          "ticks": 39624,
          "time": 160.8115275,
          "velocity": 1
        },
        {
          "duration": 0.09740250000001538,
          "durationTicks": 24,
          "midi": 72,
          "name": "C5",
          "ticks": 39648,
          "time": 160.90893,
          "velocity": 1
        },
        {
          "duration": 0.19480500000000234,
          "durationTicks": 48,
          "midi": 67,
          "name": "G4",
          "ticks": 39672,
          "time": 161.0063325,
          "velocity": 1
        },
        {
          "duration": 0.09740249999998696,
          "durationTicks": 24,
          "midi": 69,
          "name": "A4",
          "ticks": 39720,
          "time": 161.20113750000002,
          "velocity": 1
        },
        {
          "duration": 0.09740250000001538,
          "durationTicks": 24,
          "midi": 72,
          "name": "C5",
          "ticks": 39744,
          "time": 161.29854,
          "velocity": 1
        },
        {
          "duration": 0.09740249999998696,
          "durationTicks": 24,
          "midi": 73,
          "name": "C#5",
          "ticks": 39768,
          "time": 161.39594250000002,
          "velocity": 1
        },
        {
          "duration": 0.09740249999998696,
          "durationTicks": 24,
          "midi": 67,
          "name": "G4",
          "ticks": 39792,
          "time": 161.493345,
          "velocity": 1
        },
        {
          "duration": 0.09740250000001538,
          "durationTicks": 24,
          "midi": 69,
          "name": "A4",
          "ticks": 39816,
          "time": 161.5907475,
          "velocity": 1
        },
        {
          "duration": 0.04870124999999348,
          "durationTicks": 12,
          "midi": 74,
          "name": "D5",
          "ticks": 39840,
          "time": 161.68815,
          "velocity": 1
        },
        {
          "duration": 0.04870124999999348,
          "durationTicks": 12,
          "midi": 77,
          "name": "F5",
          "ticks": 39852,
          "time": 161.73685125,
          "velocity": 1
        },
        {
          "duration": 0.3896100000000047,
          "durationTicks": 96,
          "midi": 69,
          "name": "A4",
          "ticks": 39864,
          "time": 161.7855525,
          "velocity": 1
        },
        {
          "duration": 0.09740250000001538,
          "durationTicks": 24,
          "midi": 79,
          "name": "G5",
          "ticks": 39864,
          "time": 161.7855525,
          "velocity": 1
        },
        {
          "duration": 0.09740249999998696,
          "durationTicks": 24,
          "midi": 77,
          "name": "F5",
          "ticks": 39888,
          "time": 161.882955,
          "velocity": 1
        },
        {
          "duration": 0.09740250000001538,
          "durationTicks": 24,
          "midi": 74,
          "name": "D5",
          "ticks": 39912,
          "time": 161.9803575,
          "velocity": 1
        },
        {
          "duration": 0.09740249999998696,
          "durationTicks": 24,
          "midi": 77,
          "name": "F5",
          "ticks": 39936,
          "time": 162.07776,
          "velocity": 1
        },
        {
          "duration": 0.09740250000001538,
          "durationTicks": 24,
          "midi": 81,
          "name": "A5",
          "ticks": 39960,
          "time": 162.1751625,
          "velocity": 1
        },
        {
          "duration": 0.09740249999998696,
          "durationTicks": 24,
          "midi": 79,
          "name": "G5",
          "ticks": 39984,
          "time": 162.27256500000001,
          "velocity": 1
        },
        {
          "duration": 0.09740250000001538,
          "durationTicks": 24,
          "midi": 81,
          "name": "A5",
          "ticks": 40008,
          "time": 162.3699675,
          "velocity": 1
        },
        {
          "duration": 0.09740249999998696,
          "durationTicks": 24,
          "midi": 77,
          "name": "F5",
          "ticks": 40032,
          "time": 162.46737000000002,
          "velocity": 1
        },
        {
          "duration": 0.09740250000001538,
          "durationTicks": 24,
          "midi": 81,
          "name": "A5",
          "ticks": 40056,
          "time": 162.5647725,
          "velocity": 1
        },
        {
          "duration": 0.09740249999998696,
          "durationTicks": 24,
          "midi": 79,
          "name": "G5",
          "ticks": 40080,
          "time": 162.66217500000002,
          "velocity": 1
        },
        {
          "duration": 0.09740249999998696,
          "durationTicks": 24,
          "midi": 77,
          "name": "F5",
          "ticks": 40104,
          "time": 162.7595775,
          "velocity": 1
        },
        {
          "duration": 0.09740250000001538,
          "durationTicks": 24,
          "midi": 76,
          "name": "E5",
          "ticks": 40128,
          "time": 162.85698,
          "velocity": 1
        },
        {
          "duration": 0.09740249999998696,
          "durationTicks": 24,
          "midi": 77,
          "name": "F5",
          "ticks": 40152,
          "time": 162.9543825,
          "velocity": 1
        },
        {
          "duration": 0.09740250000001538,
          "durationTicks": 24,
          "midi": 79,
          "name": "G5",
          "ticks": 40176,
          "time": 163.051785,
          "velocity": 1
        },
        {
          "duration": 0.09740249999998696,
          "durationTicks": 24,
          "midi": 76,
          "name": "E5",
          "ticks": 40200,
          "time": 163.1491875,
          "velocity": 1
        },
        {
          "duration": 0.09740250000001538,
          "durationTicks": 24,
          "midi": 74,
          "name": "D5",
          "ticks": 40224,
          "time": 163.24659,
          "velocity": 1
        },
        {
          "duration": 0.09740249999998696,
          "durationTicks": 24,
          "midi": 72,
          "name": "C5",
          "ticks": 40248,
          "time": 163.3439925,
          "velocity": 1
        },
        {
          "duration": 0.09740250000001538,
          "durationTicks": 24,
          "midi": 74,
          "name": "D5",
          "ticks": 40272,
          "time": 163.441395,
          "velocity": 1
        },
        {
          "duration": 0.09740249999998696,
          "durationTicks": 24,
          "midi": 67,
          "name": "G4",
          "ticks": 40296,
          "time": 163.53879750000002,
          "velocity": 1
        },
        {
          "duration": 0.09740250000001538,
          "durationTicks": 24,
          "midi": 69,
          "name": "A4",
          "ticks": 40320,
          "time": 163.6362,
          "velocity": 1
        },
        {
          "duration": 0.09740249999998696,
          "durationTicks": 24,
          "midi": 65,
          "name": "F4",
          "ticks": 40344,
          "time": 163.73360250000002,
          "velocity": 1
        },
        {
          "duration": 0.09740249999998696,
          "durationTicks": 24,
          "midi": 69,
          "name": "A4",
          "ticks": 40368,
          "time": 163.831005,
          "velocity": 1
        },
        {
          "duration": 0.09740250000001538,
          "durationTicks": 24,
          "midi": 67,
          "name": "G4",
          "ticks": 40392,
          "time": 163.9284075,
          "velocity": 1
        },
        {
          "duration": 0.09740249999998696,
          "durationTicks": 24,
          "midi": 67,
          "name": "G4",
          "ticks": 40416,
          "time": 164.02581,
          "velocity": 1
        },
        {
          "duration": 0.09740250000001538,
          "durationTicks": 24,
          "midi": 65,
          "name": "F4",
          "ticks": 40440,
          "time": 164.1232125,
          "velocity": 1
        },
        {
          "duration": 0.09740249999998696,
          "durationTicks": 24,
          "midi": 67,
          "name": "G4",
          "ticks": 40464,
          "time": 164.220615,
          "velocity": 1
        },
        {
          "duration": 0.09740250000001538,
          "durationTicks": 24,
          "midi": 65,
          "name": "F4",
          "ticks": 40488,
          "time": 164.3180175,
          "velocity": 1
        },
        {
          "duration": 0.09740249999998696,
          "durationTicks": 24,
          "midi": 67,
          "name": "G4",
          "ticks": 40512,
          "time": 164.41542,
          "velocity": 1
        },
        {
          "duration": 0.584415000000007,
          "durationTicks": 144,
          "midi": 62,
          "name": "D4",
          "ticks": 40536,
          "time": 164.5128225,
          "velocity": 1
        },
        {
          "duration": 0.09740249999998696,
          "durationTicks": 24,
          "midi": 48,
          "name": "C3",
          "ticks": 40680,
          "time": 165.0972375,
          "velocity": 1
        },
        {
          "duration": 0.09740250000001538,
          "durationTicks": 24,
          "midi": 49,
          "name": "C#3",
          "ticks": 40704,
          "time": 165.19464,
          "velocity": 1
        },
        {
          "duration": 0.09740249999998696,
          "durationTicks": 24,
          "midi": 50,
          "name": "D3",
          "ticks": 40728,
          "time": 165.2920425,
          "velocity": 1
        },
        {
          "duration": 0.09740250000001538,
          "durationTicks": 24,
          "midi": 52,
          "name": "E3",
          "ticks": 40752,
          "time": 165.389445,
          "velocity": 1
        },
        {
          "duration": 0.09740249999998696,
          "durationTicks": 24,
          "midi": 52,
          "name": "E3",
          "ticks": 40776,
          "time": 165.4868475,
          "velocity": 1
        },
        {
          "duration": 0.09740250000001538,
          "durationTicks": 24,
          "midi": 52,
          "name": "E3",
          "ticks": 40800,
          "time": 165.58425,
          "velocity": 1
        },
        {
          "duration": 0.09740249999998696,
          "durationTicks": 24,
          "midi": 53,
          "name": "F3",
          "ticks": 40824,
          "time": 165.6816525,
          "velocity": 1
        },
        {
          "duration": 0.09740250000001538,
          "durationTicks": 24,
          "midi": 55,
          "name": "G3",
          "ticks": 40848,
          "time": 165.779055,
          "velocity": 1
        },
        {
          "duration": 0.19480500000000234,
          "durationTicks": 48,
          "midi": 57,
          "name": "A3",
          "ticks": 40872,
          "time": 165.87645750000001,
          "velocity": 1
        },
        {
          "duration": 0.19480499999997392,
          "durationTicks": 48,
          "midi": 62,
          "name": "D4",
          "ticks": 40920,
          "time": 166.07126250000002,
          "velocity": 1
        },
        {
          "duration": 0.09740250000001538,
          "durationTicks": 24,
          "midi": 64,
          "name": "E4",
          "ticks": 40968,
          "time": 166.2660675,
          "velocity": 1
        },
        {
          "duration": 0.09740249999998696,
          "durationTicks": 24,
          "midi": 64,
          "name": "E4",
          "ticks": 40992,
          "time": 166.36347,
          "velocity": 1
        },
        {
          "duration": 0.09740250000001538,
          "durationTicks": 24,
          "midi": 65,
          "name": "F4",
          "ticks": 41016,
          "time": 166.4608725,
          "velocity": 1
        },
        {
          "duration": 0.09740249999998696,
          "durationTicks": 24,
          "midi": 64,
          "name": "E4",
          "ticks": 41040,
          "time": 166.558275,
          "velocity": 1
        },
        {
          "duration": 0.09740250000001538,
          "durationTicks": 24,
          "midi": 62,
          "name": "D4",
          "ticks": 41064,
          "time": 166.6556775,
          "velocity": 1
        },
        {
          "duration": 0.09740249999998696,
          "durationTicks": 24,
          "midi": 65,
          "name": "F4",
          "ticks": 41088,
          "time": 166.75308,
          "velocity": 1
        },
        {
          "duration": 0.3896100000000047,
          "durationTicks": 96,
          "midi": 62,
          "name": "D4",
          "ticks": 41112,
          "time": 166.8504825,
          "velocity": 1
        },
        {
          "duration": 0.3896100000000047,
          "durationTicks": 96,
          "midi": 69,
          "name": "A4",
          "ticks": 41112,
          "time": 166.8504825,
          "velocity": 1
        },
        {
          "duration": 0.19480500000000234,
          "durationTicks": 48,
          "midi": 72,
          "name": "C5",
          "ticks": 41208,
          "time": 167.2400925,
          "velocity": 1
        },
        {
          "duration": 0.19480500000000234,
          "durationTicks": 48,
          "midi": 69,
          "name": "A4",
          "ticks": 41256,
          "time": 167.4348975,
          "velocity": 1
        },
        {
          "duration": 0.04870124999999348,
          "durationTicks": 12,
          "midi": 67,
          "name": "G4",
          "ticks": 41304,
          "time": 167.6297025,
          "velocity": 1
        },
        {
          "duration": 0.5357137500000135,
          "durationTicks": 132,
          "midi": 69,
          "name": "A4",
          "ticks": 41316,
          "time": 167.67840375,
          "velocity": 1
        },
        {
          "duration": 0.5357137500000135,
          "durationTicks": 132,
          "midi": 62,
          "name": "D4",
          "ticks": 41316,
          "time": 167.67840375,
          "velocity": 1
        },
        {
          "duration": 0.02435062499998253,
          "durationTicks": 6,
          "midi": 67,
          "name": "G4",
          "ticks": 41448,
          "time": 168.21411750000001,
          "velocity": 1
        },
        {
          "duration": 0.0284090625000033,
          "durationTicks": 7,
          "midi": 65,
          "name": "F4",
          "ticks": 41454,
          "time": 168.238468125,
          "velocity": 1
        },
        {
          "duration": 0.0202921875000186,
          "durationTicks": 5,
          "midi": 64,
          "name": "E4",
          "ticks": 41461,
          "time": 168.2668771875,
          "velocity": 1
        },
        {
          "duration": 0.02435062499998253,
          "durationTicks": 6,
          "midi": 62,
          "name": "D4",
          "ticks": 41466,
          "time": 168.28716937500002,
          "velocity": 1
        },
        {
          "duration": 0.19480500000000234,
          "durationTicks": 48,
          "midi": 50,
          "name": "D3",
          "ticks": 41496,
          "time": 168.40892250000002,
          "velocity": 1
        },
        {
          "duration": 0.09740249999998696,
          "durationTicks": 24,
          "midi": 48,
          "name": "C3",
          "ticks": 41544,
          "time": 168.60372750000002,
          "velocity": 1
        },
        {
          "duration": 0.09740249999998696,
          "durationTicks": 24,
          "midi": 48,
          "name": "C3",
          "ticks": 41568,
          "time": 168.70113,
          "velocity": 1
        },
        {
          "duration": 0.0487012500000219,
          "durationTicks": 12,
          "midi": 53,
          "name": "F3",
          "ticks": 41592,
          "time": 168.7985325,
          "velocity": 1
        },
        {
          "duration": 0.04870124999999348,
          "durationTicks": 12,
          "midi": 55,
          "name": "G3",
          "ticks": 41604,
          "time": 168.84723375000002,
          "velocity": 1
        },
        {
          "duration": 0.09740249999998696,
          "durationTicks": 24,
          "midi": 55,
          "name": "G3",
          "ticks": 41616,
          "time": 168.895935,
          "velocity": 1
        },
        {
          "duration": 0.09740250000001538,
          "durationTicks": 24,
          "midi": 53,
          "name": "F3",
          "ticks": 41640,
          "time": 168.9933375,
          "velocity": 1
        },
        {
          "duration": 0.09740249999998696,
          "durationTicks": 24,
          "midi": 55,
          "name": "G3",
          "ticks": 41664,
          "time": 169.09074,
          "velocity": 1
        },
        {
          "duration": 0.09740250000001538,
          "durationTicks": 24,
          "midi": 57,
          "name": "A3",
          "ticks": 41688,
          "time": 169.1881425,
          "velocity": 1
        },
        {
          "duration": 0.09740249999998696,
          "durationTicks": 24,
          "midi": 57,
          "name": "A3",
          "ticks": 41712,
          "time": 169.285545,
          "velocity": 1
        },
        {
          "duration": 0.09740250000001538,
          "durationTicks": 24,
          "midi": 55,
          "name": "G3",
          "ticks": 41736,
          "time": 169.3829475,
          "velocity": 1
        },
        {
          "duration": 0.09740249999998696,
          "durationTicks": 24,
          "midi": 55,
          "name": "G3",
          "ticks": 41760,
          "time": 169.48035000000002,
          "velocity": 1
        },
        {
          "duration": 0.09740250000001538,
          "durationTicks": 24,
          "midi": 62,
          "name": "D4",
          "ticks": 41784,
          "time": 169.5777525,
          "velocity": 1
        },
        {
          "duration": 0.09740249999998696,
          "durationTicks": 24,
          "midi": 62,
          "name": "D4",
          "ticks": 41808,
          "time": 169.67515500000002,
          "velocity": 1
        },
        {
          "duration": 0.09740249999998696,
          "durationTicks": 24,
          "midi": 60,
          "name": "C4",
          "ticks": 41832,
          "time": 169.7725575,
          "velocity": 1
        },
        {
          "duration": 0.09740250000001538,
          "durationTicks": 24,
          "midi": 60,
          "name": "C4",
          "ticks": 41856,
          "time": 169.86996,
          "velocity": 1
        },
        {
          "duration": 0.09740249999998696,
          "durationTicks": 24,
          "midi": 67,
          "name": "G4",
          "ticks": 41880,
          "time": 169.9673625,
          "velocity": 1
        },
        {
          "duration": 0.09740250000001538,
          "durationTicks": 24,
          "midi": 67,
          "name": "G4",
          "ticks": 41904,
          "time": 170.064765,
          "velocity": 1
        },
        {
          "duration": 0.19480500000000234,
          "durationTicks": 48,
          "midi": 65,
          "name": "F4",
          "ticks": 41928,
          "time": 170.1621675,
          "velocity": 1
        },
        {
          "duration": 0.19480500000000234,
          "durationTicks": 48,
          "midi": 72,
          "name": "C5",
          "ticks": 41976,
          "time": 170.3569725,
          "velocity": 1
        },
        {
          "duration": 0.04870124999999348,
          "durationTicks": 12,
          "midi": 70,
          "name": "A#4",
          "ticks": 42024,
          "time": 170.55177750000001,
          "velocity": 1
        },
        {
          "duration": 0.14610375000000886,
          "durationTicks": 36,
          "midi": 72,
          "name": "C5",
          "ticks": 42036,
          "time": 170.60047875,
          "velocity": 1
        },
        {
          "duration": 0.09740249999998696,
          "durationTicks": 24,
          "midi": 71,
          "name": "B4",
          "ticks": 42072,
          "time": 170.74658250000002,
          "velocity": 1
        },
        {
          "duration": 0.09740250000001538,
          "durationTicks": 24,
          "midi": 72,
          "name": "C5",
          "ticks": 42096,
          "time": 170.843985,
          "velocity": 1
        },
        {
          "duration": 0.38960999999997625,
          "durationTicks": 96,
          "midi": 55,
          "name": "G3",
          "ticks": 42120,
          "time": 170.94138750000002,
          "velocity": 1
        },
        {
          "duration": 0.38960999999997625,
          "durationTicks": 96,
          "midi": 72,
          "name": "C5",
          "ticks": 42120,
          "time": 170.94138750000002,
          "velocity": 1
        },
        {
          "duration": 0.19480500000000234,
          "durationTicks": 48,
          "midi": 70,
          "name": "A#4",
          "ticks": 42216,
          "time": 171.3309975,
          "velocity": 1
        },
        {
          "duration": 0.0487012500000219,
          "durationTicks": 12,
          "midi": 76,
          "name": "E5",
          "ticks": 42264,
          "time": 171.5258025,
          "velocity": 1
        },
        {
          "duration": 0.14610374999998044,
          "durationTicks": 36,
          "midi": 77,
          "name": "F5",
          "ticks": 42276,
          "time": 171.57450375000002,
          "velocity": 1
        },
        {
          "duration": 0.09740250000001538,
          "durationTicks": 24,
          "midi": 72,
          "name": "C5",
          "ticks": 42312,
          "time": 171.7206075,
          "velocity": 1
        },
        {
          "duration": 0.09740249999998696,
          "durationTicks": 24,
          "midi": 70,
          "name": "A#4",
          "ticks": 42336,
          "time": 171.81801000000002,
          "velocity": 1
        },
        {
          "duration": 0.09740250000001538,
          "durationTicks": 24,
          "midi": 65,
          "name": "F4",
          "ticks": 42360,
          "time": 171.9154125,
          "velocity": 1
        },
        {
          "duration": 0.09740249999998696,
          "durationTicks": 24,
          "midi": 70,
          "name": "A#4",
          "ticks": 42384,
          "time": 172.01281500000002,
          "velocity": 1
        },
        {
          "duration": 0.09740249999998696,
          "durationTicks": 24,
          "midi": 74,
          "name": "D5",
          "ticks": 42408,
          "time": 172.1102175,
          "velocity": 1
        },
        {
          "duration": 0.09740250000001538,
          "durationTicks": 24,
          "midi": 77,
          "name": "F5",
          "ticks": 42432,
          "time": 172.20762,
          "velocity": 1
        },
        {
          "duration": 0.09740249999998696,
          "durationTicks": 24,
          "midi": 79,
          "name": "G5",
          "ticks": 42456,
          "time": 172.3050225,
          "velocity": 1
        },
        {
          "duration": 0.09740250000001538,
          "durationTicks": 24,
          "midi": 76,
          "name": "E5",
          "ticks": 42480,
          "time": 172.402425,
          "velocity": 1
        },
        {
          "duration": 0.19480500000000234,
          "durationTicks": 48,
          "midi": 67,
          "name": "G4",
          "ticks": 42504,
          "time": 172.4998275,
          "velocity": 1
        },
        {
          "duration": 0.09740249999998696,
          "durationTicks": 24,
          "midi": 67,
          "name": "G4",
          "ticks": 42552,
          "time": 172.6946325,
          "velocity": 1
        },
        {
          "duration": 0.09740250000001538,
          "durationTicks": 24,
          "midi": 72,
          "name": "C5",
          "ticks": 42576,
          "time": 172.792035,
          "velocity": 1
        },
        {
          "duration": 0.09740249999998696,
          "durationTicks": 24,
          "midi": 76,
          "name": "E5",
          "ticks": 42600,
          "time": 172.8894375,
          "velocity": 1
        },
        {
          "duration": 0.09740250000001538,
          "durationTicks": 24,
          "midi": 79,
          "name": "G5",
          "ticks": 42624,
          "time": 172.98684,
          "velocity": 1
        },
        {
          "duration": 0.2922074999999893,
          "durationTicks": 72,
          "midi": 76,
          "name": "E5",
          "ticks": 42648,
          "time": 173.08424250000002,
          "velocity": 1
        },
        {
          "duration": 0.2922074999999893,
          "durationTicks": 72,
          "midi": 81,
          "name": "A5",
          "ticks": 42648,
          "time": 173.08424250000002,
          "velocity": 1
        },
        {
          "duration": 0.2922074999999893,
          "durationTicks": 72,
          "midi": 76,
          "name": "E5",
          "ticks": 42720,
          "time": 173.37645,
          "velocity": 1
        },
        {
          "duration": 0.2922074999999893,
          "durationTicks": 72,
          "midi": 80,
          "name": "G#5",
          "ticks": 42720,
          "time": 173.37645,
          "velocity": 1
        },
        {
          "duration": 0.09740250000001538,
          "durationTicks": 24,
          "midi": 81,
          "name": "A5",
          "ticks": 42792,
          "time": 173.6686575,
          "velocity": 1
        },
        {
          "duration": 0.09740249999998696,
          "durationTicks": 24,
          "midi": 80,
          "name": "G#5",
          "ticks": 42816,
          "time": 173.76606,
          "velocity": 1
        },
        {
          "duration": 0.09740250000001538,
          "durationTicks": 24,
          "midi": 81,
          "name": "A5",
          "ticks": 42840,
          "time": 173.8634625,
          "velocity": 1
        },
        {
          "duration": 0.09740249999998696,
          "durationTicks": 24,
          "midi": 80,
          "name": "G#5",
          "ticks": 42864,
          "time": 173.960865,
          "velocity": 1
        },
        {
          "duration": 0.19480500000000234,
          "durationTicks": 48,
          "midi": 74,
          "name": "D5",
          "ticks": 42888,
          "time": 174.0582675,
          "velocity": 1
        },
        {
          "duration": 0.19480500000000234,
          "durationTicks": 48,
          "midi": 81,
          "name": "A5",
          "ticks": 42888,
          "time": 174.0582675,
          "velocity": 1
        },
        {
          "duration": 0.02435062500001095,
          "durationTicks": 6,
          "midi": 79,
          "name": "G5",
          "ticks": 42936,
          "time": 174.2530725,
          "velocity": 0.9291338582677166
        },
        {
          "duration": 0.02435062499998253,
          "durationTicks": 6,
          "midi": 77,
          "name": "F5",
          "ticks": 42942,
          "time": 174.277423125,
          "velocity": 0.8976377952755905
        },
        {
          "duration": 0.02435062500001095,
          "durationTicks": 6,
          "midi": 76,
          "name": "E5",
          "ticks": 42948,
          "time": 174.30177375,
          "velocity": 0.8661417322834646
        },
        {
          "duration": 0.02435062500001095,
          "durationTicks": 6,
          "midi": 74,
          "name": "D5",
          "ticks": 42954,
          "time": 174.326124375,
          "velocity": 0.8346456692913385
        },
        {
          "duration": 0.02435062499998253,
          "durationTicks": 6,
          "midi": 72,
          "name": "C5",
          "ticks": 42960,
          "time": 174.35047500000002,
          "velocity": 0.8031496062992126
        },
        {
          "duration": 0.02435062500001095,
          "durationTicks": 6,
          "midi": 71,
          "name": "B4",
          "ticks": 42966,
          "time": 174.374825625,
          "velocity": 0.7795275590551181
        },
        {
          "duration": 0.02435062499998253,
          "durationTicks": 6,
          "midi": 69,
          "name": "A4",
          "ticks": 42972,
          "time": 174.39917625,
          "velocity": 0.7480314960629921
        },
        {
          "duration": 0.02435062500001095,
          "durationTicks": 6,
          "midi": 67,
          "name": "G4",
          "ticks": 42978,
          "time": 174.423526875,
          "velocity": 0.7165354330708661
        },
        {
          "duration": 0.02435062500001095,
          "durationTicks": 6,
          "midi": 65,
          "name": "F4",
          "ticks": 42984,
          "time": 174.4478775,
          "velocity": 0.6850393700787402
        },
        {
          "duration": 0.02435062499998253,
          "durationTicks": 6,
          "midi": 64,
          "name": "E4",
          "ticks": 42990,
          "time": 174.47222812500002,
          "velocity": 0.6535433070866141
        },
        {
          "duration": 0.02435062500001095,
          "durationTicks": 6,
          "midi": 62,
          "name": "D4",
          "ticks": 42996,
          "time": 174.49657875,
          "velocity": 0.6220472440944882
        },
        {
          "duration": 0.02435062499998253,
          "durationTicks": 6,
          "midi": 60,
          "name": "C4",
          "ticks": 43002,
          "time": 174.520929375,
          "velocity": 0.5984251968503937
        },
        {
          "duration": 0.3896100000000047,
          "durationTicks": 96,
          "midi": 77,
          "name": "F5",
          "ticks": 43032,
          "time": 174.6426825,
          "velocity": 1
        },
        {
          "duration": 0.3896100000000047,
          "durationTicks": 96,
          "midi": 76,
          "name": "E5",
          "ticks": 43128,
          "time": 175.0322925,
          "velocity": 1
        },
        {
          "duration": 0.38960999999997625,
          "durationTicks": 96,
          "midi": 74,
          "name": "D5",
          "ticks": 43224,
          "time": 175.42190250000002,
          "velocity": 1
        },
        {
          "duration": 0.19480500000000234,
          "durationTicks": 48,
          "midi": 72,
          "name": "C5",
          "ticks": 43320,
          "time": 175.8115125,
          "velocity": 1
        },
        {
          "duration": 0.3896100000000047,
          "durationTicks": 96,
          "midi": 65,
          "name": "F4",
          "ticks": 43416,
          "time": 176.2011225,
          "velocity": 1
        },
        {
          "duration": 0.19480500000000234,
          "durationTicks": 48,
          "midi": 64,
          "name": "E4",
          "ticks": 43800,
          "time": 177.75956250000002,
          "velocity": 1
        },
        {
          "duration": 0.38960999999997625,
          "durationTicks": 96,
          "midi": 62,
          "name": "D4",
          "ticks": 43800,
          "time": 177.75956250000002,
          "velocity": 1
        },
        {
          "duration": 0.19480499999997392,
          "durationTicks": 48,
          "midi": 67,
          "name": "G4",
          "ticks": 43848,
          "time": 177.95436750000002,
          "velocity": 1
        },
        {
          "duration": 0.19480500000000234,
          "durationTicks": 48,
          "midi": 69,
          "name": "A4",
          "ticks": 43896,
          "time": 178.1491725,
          "velocity": 1
        },
        {
          "duration": 0.3896100000000047,
          "durationTicks": 96,
          "midi": 74,
          "name": "D5",
          "ticks": 43992,
          "time": 178.5387825,
          "velocity": 1
        },
        {
          "duration": 0.3896100000000047,
          "durationTicks": 96,
          "midi": 64,
          "name": "E4",
          "ticks": 43992,
          "time": 178.5387825,
          "velocity": 1
        },
        {
          "duration": 0.3896100000000047,
          "durationTicks": 96,
          "midi": 71,
          "name": "B4",
          "ticks": 44088,
          "time": 178.9283925,
          "velocity": 1
        },
        {
          "duration": 0.3896100000000047,
          "durationTicks": 96,
          "midi": 72,
          "name": "C5",
          "ticks": 44184,
          "time": 179.3180025,
          "velocity": 1
        },
        {
          "duration": 0.584415000000007,
          "durationTicks": 144,
          "midi": 77,
          "name": "F5",
          "ticks": 44184,
          "time": 179.3180025,
          "velocity": 1
        },
        {
          "duration": 0.19480500000000234,
          "durationTicks": 48,
          "midi": 71,
          "name": "B4",
          "ticks": 44280,
          "time": 179.7076125,
          "velocity": 1
        },
        {
          "duration": 0.19480500000000234,
          "durationTicks": 48,
          "midi": 67,
          "name": "G4",
          "ticks": 44328,
          "time": 179.9024175,
          "velocity": 1
        },
        {
          "duration": 0.38960999999997625,
          "durationTicks": 96,
          "midi": 69,
          "name": "A4",
          "ticks": 44376,
          "time": 180.09722250000002,
          "velocity": 1
        },
        {
          "duration": 0.38960999999997625,
          "durationTicks": 96,
          "midi": 65,
          "name": "F4",
          "ticks": 44376,
          "time": 180.09722250000002,
          "velocity": 1
        },
        {
          "duration": 0.3896100000000047,
          "durationTicks": 96,
          "midi": 65,
          "name": "F4",
          "ticks": 44472,
          "time": 180.4868325,
          "velocity": 1
        },
        {
          "duration": 0.3896100000000047,
          "durationTicks": 96,
          "midi": 69,
          "name": "A4",
          "ticks": 44472,
          "time": 180.4868325,
          "velocity": 1
        },
        {
          "duration": 0.3896100000000047,
          "durationTicks": 96,
          "midi": 70,
          "name": "A#4",
          "ticks": 44568,
          "time": 180.8764425,
          "velocity": 1
        },
        {
          "duration": 0.3896100000000047,
          "durationTicks": 96,
          "midi": 70,
          "name": "A#4",
          "ticks": 44664,
          "time": 181.2660525,
          "velocity": 1
        },
        {
          "duration": 0.3896100000000047,
          "durationTicks": 96,
          "midi": 70,
          "name": "A#4",
          "ticks": 44760,
          "time": 181.6556625,
          "velocity": 1
        },
        {
          "duration": 0.3896100000000047,
          "durationTicks": 96,
          "midi": 70,
          "name": "A#4",
          "ticks": 44856,
          "time": 182.0452725,
          "velocity": 1
        },
        {
          "duration": 0.3896100000000047,
          "durationTicks": 96,
          "midi": 65,
          "name": "F4",
          "ticks": 44952,
          "time": 182.43488250000001,
          "velocity": 1
        },
        {
          "duration": 0.38960999999997625,
          "durationTicks": 96,
          "midi": 65,
          "name": "F4",
          "ticks": 45048,
          "time": 182.82449250000002,
          "velocity": 1
        },
        {
          "duration": 0.3896100000000047,
          "durationTicks": 96,
          "midi": 65,
          "name": "F4",
          "ticks": 45144,
          "time": 183.2141025,
          "velocity": 1
        },
        {
          "duration": 0.19480500000000234,
          "durationTicks": 48,
          "midi": 64,
          "name": "E4",
          "ticks": 45240,
          "time": 183.6037125,
          "velocity": 1
        },
        {
          "duration": 0.19480500000000234,
          "durationTicks": 48,
          "midi": 69,
          "name": "A4",
          "ticks": 45240,
          "time": 183.6037125,
          "velocity": 1
        },
        {
          "duration": 0.19480500000000234,
          "durationTicks": 48,
          "midi": 67,
          "name": "G4",
          "ticks": 45288,
          "time": 183.7985175,
          "velocity": 1
        },
        {
          "duration": 0.19480500000000234,
          "durationTicks": 48,
          "midi": 72,
          "name": "C5",
          "ticks": 45288,
          "time": 183.7985175,
          "velocity": 1
        },
        {
          "duration": 0.19480500000000234,
          "durationTicks": 48,
          "midi": 69,
          "name": "A4",
          "ticks": 45336,
          "time": 183.9933225,
          "velocity": 1
        },
        {
          "duration": 0.19480500000000234,
          "durationTicks": 48,
          "midi": 74,
          "name": "D5",
          "ticks": 45336,
          "time": 183.9933225,
          "velocity": 1
        },
        {
          "duration": 0.19480500000000234,
          "durationTicks": 48,
          "midi": 69,
          "name": "A4",
          "ticks": 45384,
          "time": 184.1881275,
          "velocity": 1
        },
        {
          "duration": 0.19480500000000234,
          "durationTicks": 48,
          "midi": 74,
          "name": "D5",
          "ticks": 45384,
          "time": 184.1881275,
          "velocity": 1
        },
        {
          "duration": 0.19480500000000234,
          "durationTicks": 48,
          "midi": 69,
          "name": "A4",
          "ticks": 45480,
          "time": 184.5777375,
          "velocity": 1
        },
        {
          "duration": 0.19480500000000234,
          "durationTicks": 48,
          "midi": 74,
          "name": "D5",
          "ticks": 45480,
          "time": 184.5777375,
          "velocity": 1
        },
        {
          "duration": 0.3896100000000047,
          "durationTicks": 96,
          "midi": 72,
          "name": "C5",
          "ticks": 45528,
          "time": 184.77254250000001,
          "velocity": 1
        },
        {
          "duration": 0.3896100000000047,
          "durationTicks": 96,
          "midi": 77,
          "name": "F5",
          "ticks": 45528,
          "time": 184.77254250000001,
          "velocity": 1
        },
        {
          "duration": 0.19480500000000234,
          "durationTicks": 48,
          "midi": 74,
          "name": "D5",
          "ticks": 45528,
          "time": 184.77254250000001,
          "velocity": 1
        },
        {
          "duration": 0.38960999999997625,
          "durationTicks": 96,
          "midi": 74,
          "name": "D5",
          "ticks": 45624,
          "time": 185.16215250000002,
          "velocity": 1
        },
        {
          "duration": 0.38960999999997625,
          "durationTicks": 96,
          "midi": 79,
          "name": "G5",
          "ticks": 45624,
          "time": 185.16215250000002,
          "velocity": 1
        },
        {
          "duration": 0.7792200000000093,
          "durationTicks": 192,
          "midi": 71,
          "name": "B4",
          "ticks": 45720,
          "time": 185.5517625,
          "velocity": 1
        },
        {
          "duration": 0.19480500000000234,
          "durationTicks": 48,
          "midi": 76,
          "name": "E5",
          "ticks": 45720,
          "time": 185.5517625,
          "velocity": 1
        },
        {
          "duration": 0.19480500000000234,
          "durationTicks": 48,
          "midi": 69,
          "name": "A4",
          "ticks": 45816,
          "time": 185.9413725,
          "velocity": 1
        },
        {
          "duration": 0.19480500000000234,
          "durationTicks": 48,
          "midi": 76,
          "name": "E5",
          "ticks": 45816,
          "time": 185.9413725,
          "velocity": 1
        },
        {
          "duration": 0.19480500000000234,
          "durationTicks": 48,
          "midi": 69,
          "name": "A4",
          "ticks": 45864,
          "time": 186.1361775,
          "velocity": 1
        },
        {
          "duration": 0.19480500000000234,
          "durationTicks": 48,
          "midi": 76,
          "name": "E5",
          "ticks": 45864,
          "time": 186.1361775,
          "velocity": 1
        },
        {
          "duration": 0.3896100000000047,
          "durationTicks": 96,
          "midi": 65,
          "name": "F4",
          "ticks": 48408,
          "time": 196.4608425,
          "velocity": 1
        },
        {
          "duration": 0.38960999999997625,
          "durationTicks": 96,
          "midi": 65,
          "name": "F4",
          "ticks": 48504,
          "time": 196.85045250000002,
          "velocity": 1
        },
        {
          "duration": 0.3896100000000047,
          "durationTicks": 96,
          "midi": 62,
          "name": "D4",
          "ticks": 48600,
          "time": 197.2400625,
          "velocity": 1
        },
        {
          "duration": 0.19480500000000234,
          "durationTicks": 48,
          "midi": 79,
          "name": "G5",
          "ticks": 48792,
          "time": 198.0192825,
          "velocity": 1
        },
        {
          "duration": 0.19480500000000234,
          "durationTicks": 48,
          "midi": 74,
          "name": "D5",
          "ticks": 48792,
          "time": 198.0192825,
          "velocity": 1
        },
        {
          "duration": 0.19480500000000234,
          "durationTicks": 48,
          "midi": 81,
          "name": "A5",
          "ticks": 48840,
          "time": 198.2140875,
          "velocity": 1
        },
        {
          "duration": 0.19480500000000234,
          "durationTicks": 48,
          "midi": 76,
          "name": "E5",
          "ticks": 48840,
          "time": 198.2140875,
          "velocity": 1
        },
        {
          "duration": 0.19480500000000234,
          "durationTicks": 48,
          "midi": 79,
          "name": "G5",
          "ticks": 48888,
          "time": 198.4088925,
          "velocity": 1
        },
        {
          "duration": 0.19480500000000234,
          "durationTicks": 48,
          "midi": 74,
          "name": "D5",
          "ticks": 48888,
          "time": 198.4088925,
          "velocity": 1
        },
        {
          "duration": 0.19480500000000234,
          "durationTicks": 48,
          "midi": 81,
          "name": "A5",
          "ticks": 48936,
          "time": 198.6036975,
          "velocity": 1
        },
        {
          "duration": 0.19480500000000234,
          "durationTicks": 48,
          "midi": 76,
          "name": "E5",
          "ticks": 48936,
          "time": 198.6036975,
          "velocity": 1
        },
        {
          "duration": 0.19480500000000234,
          "durationTicks": 48,
          "midi": 81,
          "name": "A5",
          "ticks": 48984,
          "time": 198.7985025,
          "velocity": 1
        },
        {
          "duration": 0.19480500000000234,
          "durationTicks": 48,
          "midi": 76,
          "name": "E5",
          "ticks": 48984,
          "time": 198.7985025,
          "velocity": 1
        },
        {
          "duration": 0.19480500000000234,
          "durationTicks": 48,
          "midi": 76,
          "name": "E5",
          "ticks": 49080,
          "time": 199.18811250000002,
          "velocity": 1
        },
        {
          "duration": 0.19480500000000234,
          "durationTicks": 48,
          "midi": 71,
          "name": "B4",
          "ticks": 49080,
          "time": 199.18811250000002,
          "velocity": 1
        },
        {
          "duration": 0.19480499999997392,
          "durationTicks": 48,
          "midi": 79,
          "name": "G5",
          "ticks": 49128,
          "time": 199.38291750000002,
          "velocity": 1
        },
        {
          "duration": 0.19480499999997392,
          "durationTicks": 48,
          "midi": 74,
          "name": "D5",
          "ticks": 49128,
          "time": 199.38291750000002,
          "velocity": 1
        },
        {
          "duration": 0.2922075000000177,
          "durationTicks": 72,
          "midi": 81,
          "name": "A5",
          "ticks": 49176,
          "time": 199.5777225,
          "velocity": 1
        },
        {
          "duration": 0.2922075000000177,
          "durationTicks": 72,
          "midi": 76,
          "name": "E5",
          "ticks": 49176,
          "time": 199.5777225,
          "velocity": 1
        },
        {
          "duration": 0.2922074999999893,
          "durationTicks": 72,
          "midi": 81,
          "name": "A5",
          "ticks": 49248,
          "time": 199.86993,
          "velocity": 1
        },
        {
          "duration": 0.2922074999999893,
          "durationTicks": 72,
          "midi": 76,
          "name": "E5",
          "ticks": 49248,
          "time": 199.86993,
          "velocity": 1
        },
        {
          "duration": 0.19480500000000234,
          "durationTicks": 48,
          "midi": 83,
          "name": "B5",
          "ticks": 49320,
          "time": 200.1621375,
          "velocity": 1
        },
        {
          "duration": 0.19480500000000234,
          "durationTicks": 48,
          "midi": 78,
          "name": "F#5",
          "ticks": 49320,
          "time": 200.1621375,
          "velocity": 1
        },
        {
          "duration": 0.3896100000000047,
          "durationTicks": 96,
          "midi": 83,
          "name": "B5",
          "ticks": 49368,
          "time": 200.3569425,
          "velocity": 1
        },
        {
          "duration": 0.3896100000000047,
          "durationTicks": 96,
          "midi": 78,
          "name": "F#5",
          "ticks": 49368,
          "time": 200.3569425,
          "velocity": 1
        },
        {
          "duration": 0.19480500000000234,
          "durationTicks": 48,
          "midi": 83,
          "name": "B5",
          "ticks": 49512,
          "time": 200.9413575,
          "velocity": 1
        },
        {
          "duration": 0.19480500000000234,
          "durationTicks": 48,
          "midi": 78,
          "name": "F#5",
          "ticks": 49512,
          "time": 200.9413575,
          "velocity": 1
        },
        {
          "duration": 0.19480500000000234,
          "durationTicks": 48,
          "midi": 86,
          "name": "D6",
          "ticks": 49560,
          "time": 201.1361625,
          "velocity": 1
        },
        {
          "duration": 0.19480500000000234,
          "durationTicks": 48,
          "midi": 81,
          "name": "A5",
          "ticks": 49560,
          "time": 201.1361625,
          "velocity": 1
        },
        {
          "duration": 0.19480500000000234,
          "durationTicks": 48,
          "midi": 88,
          "name": "E6",
          "ticks": 49608,
          "time": 201.3309675,
          "velocity": 1
        },
        {
          "duration": 0.19480500000000234,
          "durationTicks": 48,
          "midi": 83,
          "name": "B5",
          "ticks": 49608,
          "time": 201.3309675,
          "velocity": 1
        },
        {
          "duration": 0.19480500000000234,
          "durationTicks": 48,
          "midi": 81,
          "name": "A5",
          "ticks": 49656,
          "time": 201.52577250000002,
          "velocity": 1
        },
        {
          "duration": 0.19480500000000234,
          "durationTicks": 48,
          "midi": 76,
          "name": "E5",
          "ticks": 49656,
          "time": 201.52577250000002,
          "velocity": 1
        },
        {
          "duration": 0.19480499999997392,
          "durationTicks": 48,
          "midi": 79,
          "name": "G5",
          "ticks": 49704,
          "time": 201.72057750000002,
          "velocity": 1
        },
        {
          "duration": 0.19480499999997392,
          "durationTicks": 48,
          "midi": 74,
          "name": "D5",
          "ticks": 49704,
          "time": 201.72057750000002,
          "velocity": 1
        },
        {
          "duration": 0.3896100000000047,
          "durationTicks": 96,
          "midi": 83,
          "name": "B5",
          "ticks": 49752,
          "time": 201.9153825,
          "velocity": 1
        },
        {
          "duration": 0.3896100000000047,
          "durationTicks": 96,
          "midi": 78,
          "name": "F#5",
          "ticks": 49752,
          "time": 201.9153825,
          "velocity": 1
        },
        {
          "duration": 0.19480500000000234,
          "durationTicks": 48,
          "midi": 76,
          "name": "E5",
          "ticks": 49848,
          "time": 202.3049925,
          "velocity": 1
        },
        {
          "duration": 0.19480500000000234,
          "durationTicks": 48,
          "midi": 71,
          "name": "B4",
          "ticks": 49848,
          "time": 202.3049925,
          "velocity": 1
        },
        {
          "duration": 0.19480500000000234,
          "durationTicks": 48,
          "midi": 79,
          "name": "G5",
          "ticks": 49896,
          "time": 202.4997975,
          "velocity": 1
        },
        {
          "duration": 0.19480500000000234,
          "durationTicks": 48,
          "midi": 74,
          "name": "D5",
          "ticks": 49896,
          "time": 202.4997975,
          "velocity": 1
        },
        {
          "duration": 0.2922075000000177,
          "durationTicks": 72,
          "midi": 81,
          "name": "A5",
          "ticks": 49944,
          "time": 202.6946025,
          "velocity": 1
        },
        {
          "duration": 0.2922075000000177,
          "durationTicks": 72,
          "midi": 76,
          "name": "E5",
          "ticks": 49944,
          "time": 202.6946025,
          "velocity": 1
        },
        {
          "duration": 0.2922074999999893,
          "durationTicks": 72,
          "midi": 81,
          "name": "A5",
          "ticks": 50016,
          "time": 202.98681000000002,
          "velocity": 1
        },
        {
          "duration": 0.2922074999999893,
          "durationTicks": 72,
          "midi": 76,
          "name": "E5",
          "ticks": 50016,
          "time": 202.98681000000002,
          "velocity": 1
        },
        {
          "duration": 0.19480500000000234,
          "durationTicks": 48,
          "midi": 83,
          "name": "B5",
          "ticks": 50088,
          "time": 203.2790175,
          "velocity": 1
        },
        {
          "duration": 0.19480500000000234,
          "durationTicks": 48,
          "midi": 78,
          "name": "F#5",
          "ticks": 50088,
          "time": 203.2790175,
          "velocity": 1
        },
        {
          "duration": 0.3896100000000047,
          "durationTicks": 96,
          "midi": 83,
          "name": "B5",
          "ticks": 50136,
          "time": 203.4738225,
          "velocity": 1
        },
        {
          "duration": 0.3896100000000047,
          "durationTicks": 96,
          "midi": 78,
          "name": "F#5",
          "ticks": 50136,
          "time": 203.4738225,
          "velocity": 1
        },
        {
          "duration": 0.19480499999997392,
          "durationTicks": 48,
          "midi": 83,
          "name": "B5",
          "ticks": 50280,
          "time": 204.05823750000002,
          "velocity": 1
        },
        {
          "duration": 0.19480499999997392,
          "durationTicks": 48,
          "midi": 78,
          "name": "F#5",
          "ticks": 50280,
          "time": 204.05823750000002,
          "velocity": 1
        },
        {
          "duration": 0.19480500000000234,
          "durationTicks": 48,
          "midi": 84,
          "name": "C6",
          "ticks": 50328,
          "time": 204.2530425,
          "velocity": 1
        },
        {
          "duration": 0.19480500000000234,
          "durationTicks": 48,
          "midi": 79,
          "name": "G5",
          "ticks": 50328,
          "time": 204.2530425,
          "velocity": 1
        },
        {
          "duration": 0.19480500000000234,
          "durationTicks": 48,
          "midi": 83,
          "name": "B5",
          "ticks": 50376,
          "time": 204.4478475,
          "velocity": 1
        },
        {
          "duration": 0.19480500000000234,
          "durationTicks": 48,
          "midi": 78,
          "name": "F#5",
          "ticks": 50376,
          "time": 204.4478475,
          "velocity": 1
        },
        {
          "duration": 0.19480500000000234,
          "durationTicks": 48,
          "midi": 81,
          "name": "A5",
          "ticks": 50424,
          "time": 204.6426525,
          "velocity": 1
        },
        {
          "duration": 0.19480500000000234,
          "durationTicks": 48,
          "midi": 76,
          "name": "E5",
          "ticks": 50424,
          "time": 204.6426525,
          "velocity": 1
        },
        {
          "duration": 0.19480500000000234,
          "durationTicks": 48,
          "midi": 79,
          "name": "G5",
          "ticks": 50472,
          "time": 204.8374575,
          "velocity": 1
        },
        {
          "duration": 0.19480500000000234,
          "durationTicks": 48,
          "midi": 74,
          "name": "D5",
          "ticks": 50472,
          "time": 204.8374575,
          "velocity": 1
        },
        {
          "duration": 0.19480500000000234,
          "durationTicks": 48,
          "midi": 79,
          "name": "G5",
          "ticks": 50520,
          "time": 205.0322625,
          "velocity": 1
        },
        {
          "duration": 0.19480500000000234,
          "durationTicks": 48,
          "midi": 74,
          "name": "D5",
          "ticks": 50520,
          "time": 205.0322625,
          "velocity": 1
        },
        {
          "duration": 0.19480500000000234,
          "durationTicks": 48,
          "midi": 76,
          "name": "E5",
          "ticks": 50616,
          "time": 205.4218725,
          "velocity": 1
        },
        {
          "duration": 0.19480500000000234,
          "durationTicks": 48,
          "midi": 71,
          "name": "B4",
          "ticks": 50616,
          "time": 205.4218725,
          "velocity": 1
        },
        {
          "duration": 0.19480500000000234,
          "durationTicks": 48,
          "midi": 79,
          "name": "G5",
          "ticks": 50664,
          "time": 205.6166775,
          "velocity": 1
        },
        {
          "duration": 0.19480500000000234,
          "durationTicks": 48,
          "midi": 74,
          "name": "D5",
          "ticks": 50664,
          "time": 205.6166775,
          "velocity": 1
        },
        {
          "duration": 0.2922074999999893,
          "durationTicks": 72,
          "midi": 81,
          "name": "A5",
          "ticks": 50712,
          "time": 205.8114825,
          "velocity": 1
        },
        {
          "duration": 0.2922074999999893,
          "durationTicks": 72,
          "midi": 76,
          "name": "E5",
          "ticks": 50712,
          "time": 205.8114825,
          "velocity": 1
        },
        {
          "duration": 0.2922075000000177,
          "durationTicks": 72,
          "midi": 81,
          "name": "A5",
          "ticks": 50784,
          "time": 206.10369,
          "velocity": 1
        },
        {
          "duration": 0.2922075000000177,
          "durationTicks": 72,
          "midi": 76,
          "name": "E5",
          "ticks": 50784,
          "time": 206.10369,
          "velocity": 1
        },
        {
          "duration": 0.19480500000000234,
          "durationTicks": 48,
          "midi": 83,
          "name": "B5",
          "ticks": 50856,
          "time": 206.39589750000002,
          "velocity": 1
        },
        {
          "duration": 0.19480500000000234,
          "durationTicks": 48,
          "midi": 78,
          "name": "F#5",
          "ticks": 50856,
          "time": 206.39589750000002,
          "velocity": 1
        },
        {
          "duration": 0.38960999999997625,
          "durationTicks": 96,
          "midi": 83,
          "name": "B5",
          "ticks": 50904,
          "time": 206.59070250000002,
          "velocity": 1
        },
        {
          "duration": 0.38960999999997625,
          "durationTicks": 96,
          "midi": 78,
          "name": "F#5",
          "ticks": 50904,
          "time": 206.59070250000002,
          "velocity": 1
        },
        {
          "duration": 0.19480500000000234,
          "durationTicks": 48,
          "midi": 83,
          "name": "B5",
          "ticks": 51048,
          "time": 207.1751175,
          "velocity": 1
        },
        {
          "duration": 0.19480500000000234,
          "durationTicks": 48,
          "midi": 78,
          "name": "F#5",
          "ticks": 51048,
          "time": 207.1751175,
          "velocity": 1
        },
        {
          "duration": 0.19480500000000234,
          "durationTicks": 48,
          "midi": 86,
          "name": "D6",
          "ticks": 51096,
          "time": 207.3699225,
          "velocity": 1
        },
        {
          "duration": 0.19480500000000234,
          "durationTicks": 48,
          "midi": 81,
          "name": "A5",
          "ticks": 51096,
          "time": 207.3699225,
          "velocity": 1
        },
        {
          "duration": 0.19480500000000234,
          "durationTicks": 48,
          "midi": 88,
          "name": "E6",
          "ticks": 51144,
          "time": 207.5647275,
          "velocity": 1
        },
        {
          "duration": 0.19480500000000234,
          "durationTicks": 48,
          "midi": 83,
          "name": "B5",
          "ticks": 51144,
          "time": 207.5647275,
          "velocity": 1
        },
        {
          "duration": 0.19480500000000234,
          "durationTicks": 48,
          "midi": 81,
          "name": "A5",
          "ticks": 51192,
          "time": 207.7595325,
          "velocity": 1
        },
        {
          "duration": 0.19480500000000234,
          "durationTicks": 48,
          "midi": 76,
          "name": "E5",
          "ticks": 51192,
          "time": 207.7595325,
          "velocity": 1
        },
        {
          "duration": 0.19480500000000234,
          "durationTicks": 48,
          "midi": 79,
          "name": "G5",
          "ticks": 51240,
          "time": 207.9543375,
          "velocity": 1
        },
        {
          "duration": 0.19480500000000234,
          "durationTicks": 48,
          "midi": 74,
          "name": "D5",
          "ticks": 51240,
          "time": 207.9543375,
          "velocity": 1
        },
        {
          "duration": 0.19480500000000234,
          "durationTicks": 48,
          "midi": 83,
          "name": "B5",
          "ticks": 51288,
          "time": 208.1491425,
          "velocity": 1
        },
        {
          "duration": 0.19480500000000234,
          "durationTicks": 48,
          "midi": 78,
          "name": "F#5",
          "ticks": 51288,
          "time": 208.1491425,
          "velocity": 1
        },
        {
          "duration": 0.19480500000000234,
          "durationTicks": 48,
          "midi": 76,
          "name": "E5",
          "ticks": 51384,
          "time": 208.53875250000002,
          "velocity": 1
        },
        {
          "duration": 0.19480500000000234,
          "durationTicks": 48,
          "midi": 71,
          "name": "B4",
          "ticks": 51384,
          "time": 208.53875250000002,
          "velocity": 1
        },
        {
          "duration": 0.19480500000000234,
          "durationTicks": 48,
          "midi": 79,
          "name": "G5",
          "ticks": 51432,
          "time": 208.73355750000002,
          "velocity": 1
        },
        {
          "duration": 0.19480500000000234,
          "durationTicks": 48,
          "midi": 74,
          "name": "D5",
          "ticks": 51432,
          "time": 208.73355750000002,
          "velocity": 1
        },
        {
          "duration": 0.38960999999997625,
          "durationTicks": 96,
          "midi": 84,
          "name": "C6",
          "ticks": 51480,
          "time": 208.92836250000002,
          "velocity": 1
        },
        {
          "duration": 0.38960999999997625,
          "durationTicks": 96,
          "midi": 79,
          "name": "G5",
          "ticks": 51480,
          "time": 208.92836250000002,
          "velocity": 1
        },
        {
          "duration": 0.3896100000000047,
          "durationTicks": 96,
          "midi": 83,
          "name": "B5",
          "ticks": 51576,
          "time": 209.3179725,
          "velocity": 1
        },
        {
          "duration": 0.3896100000000047,
          "durationTicks": 96,
          "midi": 78,
          "name": "F#5",
          "ticks": 51576,
          "time": 209.3179725,
          "velocity": 1
        },
        {
          "duration": 0.3896100000000047,
          "durationTicks": 96,
          "midi": 81,
          "name": "A5",
          "ticks": 51672,
          "time": 209.7075825,
          "velocity": 1
        },
        {
          "duration": 0.3896100000000047,
          "durationTicks": 96,
          "midi": 76,
          "name": "E5",
          "ticks": 51672,
          "time": 209.7075825,
          "velocity": 1
        },
        {
          "duration": 0.3896100000000047,
          "durationTicks": 96,
          "midi": 79,
          "name": "G5",
          "ticks": 51768,
          "time": 210.0971925,
          "velocity": 1
        },
        {
          "duration": 0.3896100000000047,
          "durationTicks": 96,
          "midi": 74,
          "name": "D5",
          "ticks": 51768,
          "time": 210.0971925,
          "velocity": 1
        },
        {
          "duration": 0.19480500000000234,
          "durationTicks": 48,
          "midi": 81,
          "name": "A5",
          "ticks": 51864,
          "time": 210.4868025,
          "velocity": 1
        },
        {
          "duration": 0.19480500000000234,
          "durationTicks": 48,
          "midi": 76,
          "name": "E5",
          "ticks": 51864,
          "time": 210.4868025,
          "velocity": 1
        },
        {
          "duration": 0.19480500000000234,
          "durationTicks": 48,
          "midi": 74,
          "name": "D5",
          "ticks": 51912,
          "time": 210.6816075,
          "velocity": 1
        },
        {
          "duration": 0.19480500000000234,
          "durationTicks": 48,
          "midi": 79,
          "name": "G5",
          "ticks": 51912,
          "time": 210.6816075,
          "velocity": 1
        },
        {
          "duration": 0.19480500000000234,
          "durationTicks": 48,
          "midi": 83,
          "name": "B5",
          "ticks": 51960,
          "time": 210.87641250000001,
          "velocity": 1
        },
        {
          "duration": 0.19480500000000234,
          "durationTicks": 48,
          "midi": 78,
          "name": "F#5",
          "ticks": 51960,
          "time": 210.87641250000001,
          "velocity": 1
        },
        {
          "duration": 0.19480500000000234,
          "durationTicks": 48,
          "midi": 81,
          "name": "A5",
          "ticks": 52008,
          "time": 211.07121750000002,
          "velocity": 1
        },
        {
          "duration": 0.19480500000000234,
          "durationTicks": 48,
          "midi": 86,
          "name": "D6",
          "ticks": 52008,
          "time": 211.07121750000002,
          "velocity": 1
        },
        {
          "duration": 0.38960999999997625,
          "durationTicks": 96,
          "midi": 88,
          "name": "E6",
          "ticks": 52056,
          "time": 211.26602250000002,
          "velocity": 1
        },
        {
          "duration": 0.38960999999997625,
          "durationTicks": 96,
          "midi": 83,
          "name": "B5",
          "ticks": 52056,
          "time": 211.26602250000002,
          "velocity": 1
        },
        {
          "duration": 0.02435062500001095,
          "durationTicks": 6,
          "midi": 86,
          "name": "D6",
          "ticks": 52152,
          "time": 211.6556325,
          "velocity": 0.9291338582677166
        },
        {
          "duration": 0.02435062500001095,
          "durationTicks": 6,
          "midi": 84,
          "name": "C6",
          "ticks": 52158,
          "time": 211.679983125,
          "velocity": 0.905511811023622
        },
        {
          "duration": 0.02435062499998253,
          "durationTicks": 6,
          "midi": 83,
          "name": "B5",
          "ticks": 52164,
          "time": 211.70433375000002,
          "velocity": 0.8740157480314961
        },
        {
          "duration": 0.02435062500001095,
          "durationTicks": 6,
          "midi": 81,
          "name": "A5",
          "ticks": 52170,
          "time": 211.728684375,
          "velocity": 0.8503937007874016
        },
        {
          "duration": 0.02435062499998253,
          "durationTicks": 6,
          "midi": 79,
          "name": "G5",
          "ticks": 52176,
          "time": 211.753035,
          "velocity": 0.8188976377952756
        },
        {
          "duration": 0.02435062500001095,
          "durationTicks": 6,
          "midi": 77,
          "name": "F5",
          "ticks": 52182,
          "time": 211.777385625,
          "velocity": 0.7874015748031497
        },
        {
          "duration": 0.02435062500001095,
          "durationTicks": 6,
          "midi": 76,
          "name": "E5",
          "ticks": 52188,
          "time": 211.80173625,
          "velocity": 0.7637795275590551
        },
        {
          "duration": 0.02435062499998253,
          "durationTicks": 6,
          "midi": 74,
          "name": "D5",
          "ticks": 52194,
          "time": 211.82608687500002,
          "velocity": 0.7322834645669292
        },
        {
          "duration": 0.02435062500001095,
          "durationTicks": 6,
          "midi": 72,
          "name": "C5",
          "ticks": 52200,
          "time": 211.8504375,
          "velocity": 0.7086614173228346
        },
        {
          "duration": 0.02435062500001095,
          "durationTicks": 6,
          "midi": 71,
          "name": "B4",
          "ticks": 52206,
          "time": 211.874788125,
          "velocity": 0.6771653543307087
        },
        {
          "duration": 0.02435062499998253,
          "durationTicks": 6,
          "midi": 69,
          "name": "A4",
          "ticks": 52212,
          "time": 211.89913875000002,
          "velocity": 0.6535433070866141
        },
        {
          "duration": 0.02435062500001095,
          "durationTicks": 6,
          "midi": 67,
          "name": "G4",
          "ticks": 52218,
          "time": 211.923489375,
          "velocity": 0.6220472440944882
        },
        {
          "duration": 0.02435062499998253,
          "durationTicks": 6,
          "midi": 65,
          "name": "F4",
          "ticks": 52224,
          "time": 211.94784,
          "velocity": 0.5905511811023622
        },
        {
          "duration": 0.19480500000000234,
          "durationTicks": 48,
          "midi": 69,
          "name": "A4",
          "ticks": 52248,
          "time": 212.0452425,
          "velocity": 1
        },
        {
          "duration": 0.19480500000000234,
          "durationTicks": 48,
          "midi": 64,
          "name": "E4",
          "ticks": 52248,
          "time": 212.0452425,
          "velocity": 1
        },
        {
          "duration": 0.19480500000000234,
          "durationTicks": 48,
          "midi": 71,
          "name": "B4",
          "ticks": 52296,
          "time": 212.2400475,
          "velocity": 1
        },
        {
          "duration": 0.19480500000000234,
          "durationTicks": 48,
          "midi": 66,
          "name": "F#4",
          "ticks": 52296,
          "time": 212.2400475,
          "velocity": 1
        },
        {
          "duration": 0.09740250000001538,
          "durationTicks": 24,
          "midi": 64,
          "name": "E4",
          "ticks": 52344,
          "time": 212.4348525,
          "velocity": 1
        },
        {
          "duration": 0.09740249999998696,
          "durationTicks": 24,
          "midi": 62,
          "name": "D4",
          "ticks": 52368,
          "time": 212.53225500000002,
          "velocity": 1
        },
        {
          "duration": 0.09740249999998696,
          "durationTicks": 24,
          "midi": 64,
          "name": "E4",
          "ticks": 52392,
          "time": 212.6296575,
          "velocity": 1
        },
        {
          "duration": 0.09740250000001538,
          "durationTicks": 24,
          "midi": 62,
          "name": "D4",
          "ticks": 52416,
          "time": 212.72706,
          "velocity": 1
        },
        {
          "duration": 0.19480500000000234,
          "durationTicks": 48,
          "midi": 69,
          "name": "A4",
          "ticks": 52440,
          "time": 212.8244625,
          "velocity": 1
        },
        {
          "duration": 0.19480500000000234,
          "durationTicks": 48,
          "midi": 64,
          "name": "E4",
          "ticks": 52440,
          "time": 212.8244625,
          "velocity": 1
        },
        {
          "duration": 0.19480500000000234,
          "durationTicks": 48,
          "midi": 71,
          "name": "B4",
          "ticks": 52488,
          "time": 213.0192675,
          "velocity": 1
        },
        {
          "duration": 0.19480500000000234,
          "durationTicks": 48,
          "midi": 66,
          "name": "F#4",
          "ticks": 52488,
          "time": 213.0192675,
          "velocity": 1
        },
        {
          "duration": 0.09740249999998696,
          "durationTicks": 24,
          "midi": 64,
          "name": "E4",
          "ticks": 52536,
          "time": 213.21407250000001,
          "velocity": 1
        },
        {
          "duration": 0.09740250000001538,
          "durationTicks": 24,
          "midi": 62,
          "name": "D4",
          "ticks": 52560,
          "time": 213.311475,
          "velocity": 1
        },
        {
          "duration": 0.09740249999998696,
          "durationTicks": 24,
          "midi": 64,
          "name": "E4",
          "ticks": 52584,
          "time": 213.40887750000002,
          "velocity": 1
        },
        {
          "duration": 0.09740250000001538,
          "durationTicks": 24,
          "midi": 62,
          "name": "D4",
          "ticks": 52608,
          "time": 213.50628,
          "velocity": 1
        },
        {
          "duration": 0.19480499999997392,
          "durationTicks": 48,
          "midi": 69,
          "name": "A4",
          "ticks": 52632,
          "time": 213.60368250000002,
          "velocity": 1
        },
        {
          "duration": 0.19480499999997392,
          "durationTicks": 48,
          "midi": 64,
          "name": "E4",
          "ticks": 52632,
          "time": 213.60368250000002,
          "velocity": 1
        },
        {
          "duration": 0.19480500000000234,
          "durationTicks": 48,
          "midi": 71,
          "name": "B4",
          "ticks": 52680,
          "time": 213.7984875,
          "velocity": 1
        },
        {
          "duration": 0.19480500000000234,
          "durationTicks": 48,
          "midi": 66,
          "name": "F#4",
          "ticks": 52680,
          "time": 213.7984875,
          "velocity": 1
        },
        {
          "duration": 0.09740250000001538,
          "durationTicks": 24,
          "midi": 64,
          "name": "E4",
          "ticks": 52728,
          "time": 213.9932925,
          "velocity": 1
        },
        {
          "duration": 0.09740249999998696,
          "durationTicks": 24,
          "midi": 62,
          "name": "D4",
          "ticks": 52752,
          "time": 214.090695,
          "velocity": 1
        },
        {
          "duration": 0.09740250000001538,
          "durationTicks": 24,
          "midi": 64,
          "name": "E4",
          "ticks": 52776,
          "time": 214.1880975,
          "velocity": 1
        },
        {
          "duration": 0.04870124999999348,
          "durationTicks": 12,
          "midi": 62,
          "name": "D4",
          "ticks": 52800,
          "time": 214.2855,
          "velocity": 1
        },
        {
          "duration": 0.04870124999999348,
          "durationTicks": 12,
          "midi": 64,
          "name": "E4",
          "ticks": 52812,
          "time": 214.33420125,
          "velocity": 1
        },
        {
          "duration": 0.19480500000000234,
          "durationTicks": 48,
          "midi": 67,
          "name": "G4",
          "ticks": 52824,
          "time": 214.3829025,
          "velocity": 1
        },
        {
          "duration": 0.09740250000001538,
          "durationTicks": 24,
          "midi": 66,
          "name": "F#4",
          "ticks": 52872,
          "time": 214.5777075,
          "velocity": 1
        },
        {
          "duration": 0.04870124999999348,
          "durationTicks": 12,
          "midi": 67,
          "name": "G4",
          "ticks": 52896,
          "time": 214.67511000000002,
          "velocity": 1
        },
        {
          "duration": 0.04870124999999348,
          "durationTicks": 12,
          "midi": 66,
          "name": "F#4",
          "ticks": 52908,
          "time": 214.72381125,
          "velocity": 1
        },
        {
          "duration": 0.19480500000000234,
          "durationTicks": 48,
          "midi": 64,
          "name": "E4",
          "ticks": 52920,
          "time": 214.7725125,
          "velocity": 1
        },
        {
          "duration": 0.19480500000000234,
          "durationTicks": 48,
          "midi": 62,
          "name": "D4",
          "ticks": 52968,
          "time": 214.9673175,
          "velocity": 1
        },
        {
          "duration": 0.19480500000000234,
          "durationTicks": 48,
          "midi": 69,
          "name": "A4",
          "ticks": 53016,
          "time": 215.1621225,
          "velocity": 1
        },
        {
          "duration": 0.19480500000000234,
          "durationTicks": 48,
          "midi": 64,
          "name": "E4",
          "ticks": 53016,
          "time": 215.1621225,
          "velocity": 1
        },
        {
          "duration": 0.19480500000000234,
          "durationTicks": 48,
          "midi": 71,
          "name": "B4",
          "ticks": 53064,
          "time": 215.3569275,
          "velocity": 1
        },
        {
          "duration": 0.19480500000000234,
          "durationTicks": 48,
          "midi": 66,
          "name": "F#4",
          "ticks": 53064,
          "time": 215.3569275,
          "velocity": 1
        },
        {
          "duration": 0.09740249999998696,
          "durationTicks": 24,
          "midi": 64,
          "name": "E4",
          "ticks": 53112,
          "time": 215.5517325,
          "velocity": 1
        },
        {
          "duration": 0.09740250000001538,
          "durationTicks": 24,
          "midi": 62,
          "name": "D4",
          "ticks": 53136,
          "time": 215.649135,
          "velocity": 1
        },
        {
          "duration": 0.09740249999998696,
          "durationTicks": 24,
          "midi": 64,
          "name": "E4",
          "ticks": 53160,
          "time": 215.74653750000002,
          "velocity": 1
        },
        {
          "duration": 0.09740250000001538,
          "durationTicks": 24,
          "midi": 62,
          "name": "D4",
          "ticks": 53184,
          "time": 215.84394,
          "velocity": 1
        },
        {
          "duration": 0.19480499999997392,
          "durationTicks": 48,
          "midi": 69,
          "name": "A4",
          "ticks": 53208,
          "time": 215.94134250000002,
          "velocity": 1
        },
        {
          "duration": 0.19480499999997392,
          "durationTicks": 48,
          "midi": 64,
          "name": "E4",
          "ticks": 53208,
          "time": 215.94134250000002,
          "velocity": 1
        },
        {
          "duration": 0.19480500000000234,
          "durationTicks": 48,
          "midi": 71,
          "name": "B4",
          "ticks": 53256,
          "time": 216.1361475,
          "velocity": 1
        },
        {
          "duration": 0.19480500000000234,
          "durationTicks": 48,
          "midi": 66,
          "name": "F#4",
          "ticks": 53256,
          "time": 216.1361475,
          "velocity": 1
        },
        {
          "duration": 0.09740250000001538,
          "durationTicks": 24,
          "midi": 64,
          "name": "E4",
          "ticks": 53304,
          "time": 216.3309525,
          "velocity": 1
        },
        {
          "duration": 0.09740249999998696,
          "durationTicks": 24,
          "midi": 62,
          "name": "D4",
          "ticks": 53328,
          "time": 216.428355,
          "velocity": 1
        },
        {
          "duration": 0.09740250000001538,
          "durationTicks": 24,
          "midi": 64,
          "name": "E4",
          "ticks": 53352,
          "time": 216.5257575,
          "velocity": 1
        },
        {
          "duration": 0.04870124999999348,
          "durationTicks": 12,
          "midi": 62,
          "name": "D4",
          "ticks": 53376,
          "time": 216.62316,
          "velocity": 1
        },
        {
          "duration": 0.04870124999999348,
          "durationTicks": 12,
          "midi": 67,
          "name": "G4",
          "ticks": 53388,
          "time": 216.67186125,
          "velocity": 1
        },
        {
          "duration": 0.19480500000000234,
          "durationTicks": 48,
          "midi": 69,
          "name": "A4",
          "ticks": 53400,
          "time": 216.7205625,
          "velocity": 1
        },
        {
          "duration": 0.19480500000000234,
          "durationTicks": 48,
          "midi": 64,
          "name": "E4",
          "ticks": 53400,
          "time": 216.7205625,
          "velocity": 1
        },
        {
          "duration": 0.19480500000000234,
          "durationTicks": 48,
          "midi": 71,
          "name": "B4",
          "ticks": 53448,
          "time": 216.9153675,
          "velocity": 1
        },
        {
          "duration": 0.19480500000000234,
          "durationTicks": 48,
          "midi": 66,
          "name": "F#4",
          "ticks": 53448,
          "time": 216.9153675,
          "velocity": 1
        },
        {
          "duration": 0.19480500000000234,
          "durationTicks": 48,
          "midi": 74,
          "name": "D5",
          "ticks": 53496,
          "time": 217.1101725,
          "velocity": 1
        },
        {
          "duration": 0.19480500000000234,
          "durationTicks": 48,
          "midi": 79,
          "name": "G5",
          "ticks": 53544,
          "time": 217.3049775,
          "velocity": 1
        },
        {
          "duration": 0.09740249999998696,
          "durationTicks": 24,
          "midi": 78,
          "name": "F#5",
          "ticks": 53592,
          "time": 217.4997825,
          "velocity": 1
        },
        {
          "duration": 0.09740250000001538,
          "durationTicks": 24,
          "midi": 79,
          "name": "G5",
          "ticks": 53616,
          "time": 217.597185,
          "velocity": 1
        },
        {
          "duration": 0.09740249999998696,
          "durationTicks": 24,
          "midi": 78,
          "name": "F#5",
          "ticks": 53640,
          "time": 217.6945875,
          "velocity": 1
        },
        {
          "duration": 0.09740250000001538,
          "durationTicks": 24,
          "midi": 76,
          "name": "E5",
          "ticks": 53664,
          "time": 217.79199,
          "velocity": 1
        },
        {
          "duration": 0.19480500000000234,
          "durationTicks": 48,
          "midi": 64,
          "name": "E4",
          "ticks": 53688,
          "time": 217.8893925,
          "velocity": 1
        },
        {
          "duration": 0.19480500000000234,
          "durationTicks": 48,
          "midi": 74,
          "name": "D5",
          "ticks": 53688,
          "time": 217.8893925,
          "velocity": 1
        },
        {
          "duration": 0.19480500000000234,
          "durationTicks": 48,
          "midi": 69,
          "name": "A4",
          "ticks": 53688,
          "time": 217.8893925,
          "velocity": 1
        },
        {
          "duration": 0.19480500000000234,
          "durationTicks": 48,
          "midi": 66,
          "name": "F#4",
          "ticks": 53736,
          "time": 218.08419750000002,
          "velocity": 1
        },
        {
          "duration": 0.19480500000000234,
          "durationTicks": 48,
          "midi": 71,
          "name": "B4",
          "ticks": 53736,
          "time": 218.08419750000002,
          "velocity": 1
        },
        {
          "duration": 0.19480500000000234,
          "durationTicks": 48,
          "midi": 69,
          "name": "A4",
          "ticks": 53784,
          "time": 218.27900250000002,
          "velocity": 1
        },
        {
          "duration": 0.19480500000000234,
          "durationTicks": 48,
          "midi": 64,
          "name": "E4",
          "ticks": 53784,
          "time": 218.27900250000002,
          "velocity": 1
        },
        {
          "duration": 0.19480499999997392,
          "durationTicks": 48,
          "midi": 71,
          "name": "B4",
          "ticks": 53832,
          "time": 218.47380750000002,
          "velocity": 1
        },
        {
          "duration": 0.19480499999997392,
          "durationTicks": 48,
          "midi": 66,
          "name": "F#4",
          "ticks": 53832,
          "time": 218.47380750000002,
          "velocity": 1
        },
        {
          "duration": 0.09740250000001538,
          "durationTicks": 24,
          "midi": 64,
          "name": "E4",
          "ticks": 53880,
          "time": 218.6686125,
          "velocity": 1
        },
        {
          "duration": 0.09740249999998696,
          "durationTicks": 24,
          "midi": 62,
          "name": "D4",
          "ticks": 53904,
          "time": 218.766015,
          "velocity": 1
        },
        {
          "duration": 0.09740250000001538,
          "durationTicks": 24,
          "midi": 64,
          "name": "E4",
          "ticks": 53928,
          "time": 218.8634175,
          "velocity": 1
        },
        {
          "duration": 0.09740249999998696,
          "durationTicks": 24,
          "midi": 62,
          "name": "D4",
          "ticks": 53952,
          "time": 218.96082,
          "velocity": 1
        },
        {
          "duration": 0.19480500000000234,
          "durationTicks": 48,
          "midi": 69,
          "name": "A4",
          "ticks": 53976,
          "time": 219.0582225,
          "velocity": 1
        },
        {
          "duration": 0.19480500000000234,
          "durationTicks": 48,
          "midi": 64,
          "name": "E4",
          "ticks": 53976,
          "time": 219.0582225,
          "velocity": 1
        },
        {
          "duration": 0.19480500000000234,
          "durationTicks": 48,
          "midi": 71,
          "name": "B4",
          "ticks": 54024,
          "time": 219.2530275,
          "velocity": 1
        },
        {
          "duration": 0.19480500000000234,
          "durationTicks": 48,
          "midi": 66,
          "name": "F#4",
          "ticks": 54024,
          "time": 219.2530275,
          "velocity": 1
        },
        {
          "duration": 0.09740250000001538,
          "durationTicks": 24,
          "midi": 64,
          "name": "E4",
          "ticks": 54072,
          "time": 219.4478325,
          "velocity": 1
        },
        {
          "duration": 0.09740249999998696,
          "durationTicks": 24,
          "midi": 62,
          "name": "D4",
          "ticks": 54096,
          "time": 219.54523500000002,
          "velocity": 1
        },
        {
          "duration": 0.09740249999998696,
          "durationTicks": 24,
          "midi": 64,
          "name": "E4",
          "ticks": 54120,
          "time": 219.6426375,
          "velocity": 1
        },
        {
          "duration": 0.09740250000001538,
          "durationTicks": 24,
          "midi": 62,
          "name": "D4",
          "ticks": 54144,
          "time": 219.74004,
          "velocity": 1
        },
        {
          "duration": 0.19480500000000234,
          "durationTicks": 48,
          "midi": 69,
          "name": "A4",
          "ticks": 54168,
          "time": 219.8374425,
          "velocity": 1
        },
        {
          "duration": 0.19480500000000234,
          "durationTicks": 48,
          "midi": 64,
          "name": "E4",
          "ticks": 54168,
          "time": 219.8374425,
          "velocity": 1
        },
        {
          "duration": 0.19480500000000234,
          "durationTicks": 48,
          "midi": 71,
          "name": "B4",
          "ticks": 54216,
          "time": 220.0322475,
          "velocity": 1
        },
        {
          "duration": 0.19480500000000234,
          "durationTicks": 48,
          "midi": 66,
          "name": "F#4",
          "ticks": 54216,
          "time": 220.0322475,
          "velocity": 1
        },
        {
          "duration": 0.09740249999998696,
          "durationTicks": 24,
          "midi": 64,
          "name": "E4",
          "ticks": 54264,
          "time": 220.2270525,
          "velocity": 1
        },
        {
          "duration": 0.09740250000001538,
          "durationTicks": 24,
          "midi": 62,
          "name": "D4",
          "ticks": 54288,
          "time": 220.324455,
          "velocity": 1
        },
        {
          "duration": 0.09740249999998696,
          "durationTicks": 24,
          "midi": 64,
          "name": "E4",
          "ticks": 54312,
          "time": 220.42185750000002,
          "velocity": 1
        },
        {
          "duration": 0.09740250000001538,
          "durationTicks": 24,
          "midi": 62,
          "name": "D4",
          "ticks": 54336,
          "time": 220.51926,
          "velocity": 1
        },
        {
          "duration": 0.19480500000000234,
          "durationTicks": 48,
          "midi": 62,
          "name": "D4",
          "ticks": 54360,
          "time": 220.61666250000002,
          "velocity": 1
        },
        {
          "duration": 0.19480500000000234,
          "durationTicks": 48,
          "midi": 67,
          "name": "G4",
          "ticks": 54360,
          "time": 220.61666250000002,
          "velocity": 1
        },
        {
          "duration": 0.09740249999998696,
          "durationTicks": 24,
          "midi": 66,
          "name": "F#4",
          "ticks": 54408,
          "time": 220.81146750000002,
          "velocity": 1
        },
        {
          "duration": 0.04870124999999348,
          "durationTicks": 12,
          "midi": 67,
          "name": "G4",
          "ticks": 54432,
          "time": 220.90887,
          "velocity": 1
        },
        {
          "duration": 0.04870124999999348,
          "durationTicks": 12,
          "midi": 66,
          "name": "F#4",
          "ticks": 54444,
          "time": 220.95757125,
          "velocity": 1
        },
        {
          "duration": 0.19480500000000234,
          "durationTicks": 48,
          "midi": 64,
          "name": "E4",
          "ticks": 54456,
          "time": 221.0062725,
          "velocity": 1
        },
        {
          "duration": 0.19480500000000234,
          "durationTicks": 48,
          "midi": 62,
          "name": "D4",
          "ticks": 54504,
          "time": 221.2010775,
          "velocity": 1
        },
        {
          "duration": 0.19480500000000234,
          "durationTicks": 48,
          "midi": 59,
          "name": "B3",
          "ticks": 54552,
          "time": 221.3958825,
          "velocity": 1
        },
        {
          "duration": 0.19480500000000234,
          "durationTicks": 48,
          "midi": 64,
          "name": "E4",
          "ticks": 54552,
          "time": 221.3958825,
          "velocity": 1
        },
        {
          "duration": 0.09740250000001538,
          "durationTicks": 24,
          "midi": 62,
          "name": "D4",
          "ticks": 54600,
          "time": 221.5906875,
          "velocity": 1
        },
        {
          "duration": 0.09740249999998696,
          "durationTicks": 24,
          "midi": 64,
          "name": "E4",
          "ticks": 54624,
          "time": 221.68809000000002,
          "velocity": 1
        },
        {
          "duration": 0.19480500000000234,
          "durationTicks": 48,
          "midi": 62,
          "name": "D4",
          "ticks": 54648,
          "time": 221.7854925,
          "velocity": 1
        },
        {
          "duration": 0.19480500000000234,
          "durationTicks": 48,
          "midi": 67,
          "name": "G4",
          "ticks": 54648,
          "time": 221.7854925,
          "velocity": 1
        },
        {
          "duration": 0.09740249999998696,
          "durationTicks": 24,
          "midi": 64,
          "name": "E4",
          "ticks": 54696,
          "time": 221.9802975,
          "velocity": 1
        },
        {
          "duration": 0.09740250000001538,
          "durationTicks": 24,
          "midi": 67,
          "name": "G4",
          "ticks": 54720,
          "time": 222.0777,
          "velocity": 1
        },
        {
          "duration": 0.19480500000000234,
          "durationTicks": 48,
          "midi": 66,
          "name": "F#4",
          "ticks": 54744,
          "time": 222.1751025,
          "velocity": 1
        },
        {
          "duration": 0.19480500000000234,
          "durationTicks": 48,
          "midi": 71,
          "name": "B4",
          "ticks": 54744,
          "time": 222.1751025,
          "velocity": 1
        },
        {
          "duration": 0.09740249999998696,
          "durationTicks": 24,
          "midi": 67,
          "name": "G4",
          "ticks": 54792,
          "time": 222.3699075,
          "velocity": 1
        },
        {
          "duration": 0.09740250000001538,
          "durationTicks": 24,
          "midi": 71,
          "name": "B4",
          "ticks": 54816,
          "time": 222.46731,
          "velocity": 1
        },
        {
          "duration": 0.09740249999998696,
          "durationTicks": 24,
          "midi": 74,
          "name": "D5",
          "ticks": 54840,
          "time": 222.5647125,
          "velocity": 1
        },
        {
          "duration": 0.09740250000001538,
          "durationTicks": 24,
          "midi": 79,
          "name": "G5",
          "ticks": 54864,
          "time": 222.662115,
          "velocity": 1
        },
        {
          "duration": 0.09740249999998696,
          "durationTicks": 24,
          "midi": 71,
          "name": "B4",
          "ticks": 54888,
          "time": 222.75951750000002,
          "velocity": 1
        },
        {
          "duration": 0.09740250000001538,
          "durationTicks": 24,
          "midi": 74,
          "name": "D5",
          "ticks": 54912,
          "time": 222.85692,
          "velocity": 1
        },
        {
          "duration": 0.19480500000000234,
          "durationTicks": 48,
          "midi": 74,
          "name": "D5",
          "ticks": 54936,
          "time": 222.95432250000002,
          "velocity": 1
        },
        {
          "duration": 0.19480500000000234,
          "durationTicks": 48,
          "midi": 79,
          "name": "G5",
          "ticks": 54936,
          "time": 222.95432250000002,
          "velocity": 1
        },
        {
          "duration": 0.19480499999997392,
          "durationTicks": 48,
          "midi": 74,
          "name": "D5",
          "ticks": 54984,
          "time": 223.14912750000002,
          "velocity": 1
        },
        {
          "duration": 0.09740249999998696,
          "durationTicks": 24,
          "midi": 78,
          "name": "F#5",
          "ticks": 54984,
          "time": 223.14912750000002,
          "velocity": 1
        },
        {
          "duration": 0.04870124999999348,
          "durationTicks": 12,
          "midi": 79,
          "name": "G5",
          "ticks": 55008,
          "time": 223.24653,
          "velocity": 1
        },
        {
          "duration": 0.04870124999999348,
          "durationTicks": 12,
          "midi": 78,
          "name": "F#5",
          "ticks": 55020,
          "time": 223.29523125,
          "velocity": 1
        },
        {
          "duration": 0.19480500000000234,
          "durationTicks": 48,
          "midi": 71,
          "name": "B4",
          "ticks": 55032,
          "time": 223.3439325,
          "velocity": 1
        },
        {
          "duration": 0.19480500000000234,
          "durationTicks": 48,
          "midi": 76,
          "name": "E5",
          "ticks": 55032,
          "time": 223.3439325,
          "velocity": 1
        },
        {
          "duration": 0.19480500000000234,
          "durationTicks": 48,
          "midi": 71,
          "name": "B4",
          "ticks": 55080,
          "time": 223.5387375,
          "velocity": 1
        },
        {
          "duration": 0.19480500000000234,
          "durationTicks": 48,
          "midi": 74,
          "name": "D5",
          "ticks": 55080,
          "time": 223.5387375,
          "velocity": 1
        },
        {
          "duration": 0.19480500000000234,
          "durationTicks": 48,
          "midi": 71,
          "name": "B4",
          "ticks": 55128,
          "time": 223.7335425,
          "velocity": 1
        },
        {
          "duration": 0.19480500000000234,
          "durationTicks": 48,
          "midi": 76,
          "name": "E5",
          "ticks": 55128,
          "time": 223.7335425,
          "velocity": 1
        },
        {
          "duration": 0.04870124999999348,
          "durationTicks": 12,
          "midi": 74,
          "name": "D5",
          "ticks": 55176,
          "time": 223.9283475,
          "velocity": 1
        },
        {
          "duration": 0.0487012500000219,
          "durationTicks": 12,
          "midi": 73,
          "name": "C#5",
          "ticks": 55188,
          "time": 223.97704875,
          "velocity": 1
        },
        {
          "duration": 0.09740249999998696,
          "durationTicks": 24,
          "midi": 71,
          "name": "B4",
          "ticks": 55200,
          "time": 224.02575000000002,
          "velocity": 1
        },
        {
          "duration": 0.19480500000000234,
          "durationTicks": 48,
          "midi": 76,
          "name": "E5",
          "ticks": 55224,
          "time": 224.1231525,
          "velocity": 1
        },
        {
          "duration": 0.19480500000000234,
          "durationTicks": 48,
          "midi": 71,
          "name": "B4",
          "ticks": 55224,
          "time": 224.1231525,
          "velocity": 1
        },
        {
          "duration": 0.19480500000000234,
          "durationTicks": 48,
          "midi": 64,
          "name": "E4",
          "ticks": 55224,
          "time": 224.1231525,
          "velocity": 1
        },
        {
          "duration": 0.19480500000000234,
          "durationTicks": 48,
          "midi": 79,
          "name": "G5",
          "ticks": 55272,
          "time": 224.3179575,
          "velocity": 1
        },
        {
          "duration": 0.19480500000000234,
          "durationTicks": 48,
          "midi": 67,
          "name": "G4",
          "ticks": 55272,
          "time": 224.3179575,
          "velocity": 1
        },
        {
          "duration": 0.19480500000000234,
          "durationTicks": 48,
          "midi": 76,
          "name": "E5",
          "ticks": 55320,
          "time": 224.5127625,
          "velocity": 1
        },
        {
          "duration": 0.19480500000000234,
          "durationTicks": 48,
          "midi": 81,
          "name": "A5",
          "ticks": 55320,
          "time": 224.5127625,
          "velocity": 1
        },
        {
          "duration": 0.19480500000000234,
          "durationTicks": 48,
          "midi": 69,
          "name": "A4",
          "ticks": 55320,
          "time": 224.5127625,
          "velocity": 1
        },
        {
          "duration": 0.19480500000000234,
          "durationTicks": 48,
          "midi": 78,
          "name": "F#5",
          "ticks": 55368,
          "time": 224.7075675,
          "velocity": 1
        },
        {
          "duration": 0.19480500000000234,
          "durationTicks": 48,
          "midi": 83,
          "name": "B5",
          "ticks": 55368,
          "time": 224.7075675,
          "velocity": 1
        },
        {
          "duration": 0.19480500000000234,
          "durationTicks": 48,
          "midi": 71,
          "name": "B4",
          "ticks": 55368,
          "time": 224.7075675,
          "velocity": 1
        },
        {
          "duration": 0.09740249999998696,
          "durationTicks": 24,
          "midi": 76,
          "name": "E5",
          "ticks": 55416,
          "time": 224.9023725,
          "velocity": 1
        },
        {
          "duration": 0.09740250000001538,
          "durationTicks": 24,
          "midi": 69,
          "name": "A4",
          "ticks": 55440,
          "time": 224.999775,
          "velocity": 1
        },
        {
          "duration": 0.09740250000001538,
          "durationTicks": 24,
          "midi": 74,
          "name": "D5",
          "ticks": 55440,
          "time": 224.999775,
          "velocity": 1
        },
        {
          "duration": 0.09740249999998696,
          "durationTicks": 24,
          "midi": 76,
          "name": "E5",
          "ticks": 55464,
          "time": 225.09717750000002,
          "velocity": 1
        },
        {
          "duration": 0.09740250000001538,
          "durationTicks": 24,
          "midi": 69,
          "name": "A4",
          "ticks": 55488,
          "time": 225.19458,
          "velocity": 1
        },
        {
          "duration": 0.09740250000001538,
          "durationTicks": 24,
          "midi": 74,
          "name": "D5",
          "ticks": 55488,
          "time": 225.19458,
          "velocity": 1
        },
        {
          "duration": 0.19480500000000234,
          "durationTicks": 48,
          "midi": 76,
          "name": "E5",
          "ticks": 55512,
          "time": 225.29198250000002,
          "velocity": 1
        },
        {
          "duration": 0.19480500000000234,
          "durationTicks": 48,
          "midi": 81,
          "name": "A5",
          "ticks": 55512,
          "time": 225.29198250000002,
          "velocity": 1
        },
        {
          "duration": 0.19480500000000234,
          "durationTicks": 48,
          "midi": 69,
          "name": "A4",
          "ticks": 55512,
          "time": 225.29198250000002,
          "velocity": 1
        },
        {
          "duration": 0.19480499999997392,
          "durationTicks": 48,
          "midi": 78,
          "name": "F#5",
          "ticks": 55560,
          "time": 225.48678750000002,
          "velocity": 1
        },
        {
          "duration": 0.19480499999997392,
          "durationTicks": 48,
          "midi": 83,
          "name": "B5",
          "ticks": 55560,
          "time": 225.48678750000002,
          "velocity": 1
        },
        {
          "duration": 0.19480499999997392,
          "durationTicks": 48,
          "midi": 71,
          "name": "B4",
          "ticks": 55560,
          "time": 225.48678750000002,
          "velocity": 1
        },
        {
          "duration": 0.09740250000001538,
          "durationTicks": 24,
          "midi": 76,
          "name": "E5",
          "ticks": 55608,
          "time": 225.6815925,
          "velocity": 1
        },
        {
          "duration": 0.09740249999998696,
          "durationTicks": 24,
          "midi": 69,
          "name": "A4",
          "ticks": 55632,
          "time": 225.778995,
          "velocity": 1
        },
        {
          "duration": 0.09740249999998696,
          "durationTicks": 24,
          "midi": 74,
          "name": "D5",
          "ticks": 55632,
          "time": 225.778995,
          "velocity": 1
        },
        {
          "duration": 0.09740250000001538,
          "durationTicks": 24,
          "midi": 76,
          "name": "E5",
          "ticks": 55656,
          "time": 225.8763975,
          "velocity": 1
        },
        {
          "duration": 0.09740249999998696,
          "durationTicks": 24,
          "midi": 69,
          "name": "A4",
          "ticks": 55680,
          "time": 225.9738,
          "velocity": 1
        },
        {
          "duration": 0.09740249999998696,
          "durationTicks": 24,
          "midi": 74,
          "name": "D5",
          "ticks": 55680,
          "time": 225.9738,
          "velocity": 1
        },
        {
          "duration": 0.19480500000000234,
          "durationTicks": 48,
          "midi": 76,
          "name": "E5",
          "ticks": 55704,
          "time": 226.0712025,
          "velocity": 1
        },
        {
          "duration": 0.19480500000000234,
          "durationTicks": 48,
          "midi": 81,
          "name": "A5",
          "ticks": 55704,
          "time": 226.0712025,
          "velocity": 1
        },
        {
          "duration": 0.19480500000000234,
          "durationTicks": 48,
          "midi": 69,
          "name": "A4",
          "ticks": 55704,
          "time": 226.0712025,
          "velocity": 1
        },
        {
          "duration": 0.19480500000000234,
          "durationTicks": 48,
          "midi": 78,
          "name": "F#5",
          "ticks": 55752,
          "time": 226.2660075,
          "velocity": 1
        },
        {
          "duration": 0.19480500000000234,
          "durationTicks": 48,
          "midi": 83,
          "name": "B5",
          "ticks": 55752,
          "time": 226.2660075,
          "velocity": 1
        },
        {
          "duration": 0.19480500000000234,
          "durationTicks": 48,
          "midi": 71,
          "name": "B4",
          "ticks": 55752,
          "time": 226.2660075,
          "velocity": 1
        },
        {
          "duration": 0.09740250000001538,
          "durationTicks": 24,
          "midi": 76,
          "name": "E5",
          "ticks": 55800,
          "time": 226.4608125,
          "velocity": 1
        },
        {
          "duration": 0.09740249999998696,
          "durationTicks": 24,
          "midi": 69,
          "name": "A4",
          "ticks": 55824,
          "time": 226.55821500000002,
          "velocity": 1
        },
        {
          "duration": 0.09740249999998696,
          "durationTicks": 24,
          "midi": 74,
          "name": "D5",
          "ticks": 55824,
          "time": 226.55821500000002,
          "velocity": 1
        },
        {
          "duration": 0.09740250000001538,
          "durationTicks": 24,
          "midi": 76,
          "name": "E5",
          "ticks": 55848,
          "time": 226.6556175,
          "velocity": 1
        },
        {
          "duration": 0.09740249999998696,
          "durationTicks": 24,
          "midi": 69,
          "name": "A4",
          "ticks": 55872,
          "time": 226.75302000000002,
          "velocity": 1
        },
        {
          "duration": 0.09740249999998696,
          "durationTicks": 24,
          "midi": 74,
          "name": "D5",
          "ticks": 55872,
          "time": 226.75302000000002,
          "velocity": 1
        },
        {
          "duration": 0.19480500000000234,
          "durationTicks": 48,
          "midi": 74,
          "name": "D5",
          "ticks": 55896,
          "time": 226.8504225,
          "velocity": 1
        },
        {
          "duration": 0.19480500000000234,
          "durationTicks": 48,
          "midi": 79,
          "name": "G5",
          "ticks": 55896,
          "time": 226.8504225,
          "velocity": 1
        },
        {
          "duration": 0.09740249999998696,
          "durationTicks": 24,
          "midi": 78,
          "name": "F#5",
          "ticks": 55944,
          "time": 227.0452275,
          "velocity": 1
        },
        {
          "duration": 0.0487012500000219,
          "durationTicks": 12,
          "midi": 79,
          "name": "G5",
          "ticks": 55968,
          "time": 227.14263,
          "velocity": 1
        },
        {
          "duration": 0.04870124999999348,
          "durationTicks": 12,
          "midi": 78,
          "name": "F#5",
          "ticks": 55980,
          "time": 227.19133125000002,
          "velocity": 1
        },
        {
          "duration": 0.19480500000000234,
          "durationTicks": 48,
          "midi": 71,
          "name": "B4",
          "ticks": 55992,
          "time": 227.2400325,
          "velocity": 1
        },
        {
          "duration": 0.19480500000000234,
          "durationTicks": 48,
          "midi": 76,
          "name": "E5",
          "ticks": 55992,
          "time": 227.2400325,
          "velocity": 1
        },
        {
          "duration": 0.19480500000000234,
          "durationTicks": 48,
          "midi": 69,
          "name": "A4",
          "ticks": 56040,
          "time": 227.43483750000001,
          "velocity": 1
        },
        {
          "duration": 0.19480500000000234,
          "durationTicks": 48,
          "midi": 74,
          "name": "D5",
          "ticks": 56040,
          "time": 227.43483750000001,
          "velocity": 1
        },
        {
          "duration": 0.19480500000000234,
          "durationTicks": 48,
          "midi": 76,
          "name": "E5",
          "ticks": 56088,
          "time": 227.62964250000002,
          "velocity": 1
        },
        {
          "duration": 0.19480500000000234,
          "durationTicks": 48,
          "midi": 81,
          "name": "A5",
          "ticks": 56088,
          "time": 227.62964250000002,
          "velocity": 1
        },
        {
          "duration": 0.19480500000000234,
          "durationTicks": 48,
          "midi": 69,
          "name": "A4",
          "ticks": 56088,
          "time": 227.62964250000002,
          "velocity": 1
        },
        {
          "duration": 0.19480499999997392,
          "durationTicks": 48,
          "midi": 78,
          "name": "F#5",
          "ticks": 56136,
          "time": 227.82444750000002,
          "velocity": 1
        },
        {
          "duration": 0.19480499999997392,
          "durationTicks": 48,
          "midi": 83,
          "name": "B5",
          "ticks": 56136,
          "time": 227.82444750000002,
          "velocity": 1
        },
        {
          "duration": 0.19480499999997392,
          "durationTicks": 48,
          "midi": 71,
          "name": "B4",
          "ticks": 56136,
          "time": 227.82444750000002,
          "velocity": 1
        },
        {
          "duration": 0.09740250000001538,
          "durationTicks": 24,
          "midi": 76,
          "name": "E5",
          "ticks": 56184,
          "time": 228.0192525,
          "velocity": 1
        },
        {
          "duration": 0.09740249999998696,
          "durationTicks": 24,
          "midi": 69,
          "name": "A4",
          "ticks": 56208,
          "time": 228.116655,
          "velocity": 1
        },
        {
          "duration": 0.09740249999998696,
          "durationTicks": 24,
          "midi": 74,
          "name": "D5",
          "ticks": 56208,
          "time": 228.116655,
          "velocity": 1
        },
        {
          "duration": 0.09740250000001538,
          "durationTicks": 24,
          "midi": 76,
          "name": "E5",
          "ticks": 56232,
          "time": 228.2140575,
          "velocity": 1
        },
        {
          "duration": 0.09740249999998696,
          "durationTicks": 24,
          "midi": 69,
          "name": "A4",
          "ticks": 56256,
          "time": 228.31146,
          "velocity": 1
        },
        {
          "duration": 0.09740249999998696,
          "durationTicks": 24,
          "midi": 74,
          "name": "D5",
          "ticks": 56256,
          "time": 228.31146,
          "velocity": 1
        },
        {
          "duration": 0.19480500000000234,
          "durationTicks": 48,
          "midi": 76,
          "name": "E5",
          "ticks": 56280,
          "time": 228.4088625,
          "velocity": 1
        },
        {
          "duration": 0.19480500000000234,
          "durationTicks": 48,
          "midi": 81,
          "name": "A5",
          "ticks": 56280,
          "time": 228.4088625,
          "velocity": 1
        },
        {
          "duration": 0.19480500000000234,
          "durationTicks": 48,
          "midi": 69,
          "name": "A4",
          "ticks": 56280,
          "time": 228.4088625,
          "velocity": 1
        },
        {
          "duration": 0.19480500000000234,
          "durationTicks": 48,
          "midi": 78,
          "name": "F#5",
          "ticks": 56328,
          "time": 228.6036675,
          "velocity": 1
        },
        {
          "duration": 0.19480500000000234,
          "durationTicks": 48,
          "midi": 83,
          "name": "B5",
          "ticks": 56328,
          "time": 228.6036675,
          "velocity": 1
        },
        {
          "duration": 0.19480500000000234,
          "durationTicks": 48,
          "midi": 71,
          "name": "B4",
          "ticks": 56328,
          "time": 228.6036675,
          "velocity": 1
        },
        {
          "duration": 0.09740250000001538,
          "durationTicks": 24,
          "midi": 76,
          "name": "E5",
          "ticks": 56376,
          "time": 228.7984725,
          "velocity": 1
        },
        {
          "duration": 0.09740249999998696,
          "durationTicks": 24,
          "midi": 69,
          "name": "A4",
          "ticks": 56400,
          "time": 228.89587500000002,
          "velocity": 1
        },
        {
          "duration": 0.09740249999998696,
          "durationTicks": 24,
          "midi": 74,
          "name": "D5",
          "ticks": 56400,
          "time": 228.89587500000002,
          "velocity": 1
        },
        {
          "duration": 0.09740250000001538,
          "durationTicks": 24,
          "midi": 76,
          "name": "E5",
          "ticks": 56424,
          "time": 228.9932775,
          "velocity": 1
        },
        {
          "duration": 0.09740249999998696,
          "durationTicks": 24,
          "midi": 79,
          "name": "G5",
          "ticks": 56448,
          "time": 229.09068000000002,
          "velocity": 1
        },
        {
          "duration": 0.19480500000000234,
          "durationTicks": 48,
          "midi": 76,
          "name": "E5",
          "ticks": 56472,
          "time": 229.1880825,
          "velocity": 1
        },
        {
          "duration": 0.19480500000000234,
          "durationTicks": 48,
          "midi": 81,
          "name": "A5",
          "ticks": 56472,
          "time": 229.1880825,
          "velocity": 1
        },
        {
          "duration": 0.19480500000000234,
          "durationTicks": 48,
          "midi": 69,
          "name": "A4",
          "ticks": 56472,
          "time": 229.1880825,
          "velocity": 1
        },
        {
          "duration": 0.19480500000000234,
          "durationTicks": 48,
          "midi": 79,
          "name": "G5",
          "ticks": 56520,
          "time": 229.3828875,
          "velocity": 1
        },
        {
          "duration": 0.19480500000000234,
          "durationTicks": 48,
          "midi": 83,
          "name": "B5",
          "ticks": 56520,
          "time": 229.3828875,
          "velocity": 1
        },
        {
          "duration": 0.19480500000000234,
          "durationTicks": 48,
          "midi": 71,
          "name": "B4",
          "ticks": 56520,
          "time": 229.3828875,
          "velocity": 1
        },
        {
          "duration": 0.19480500000000234,
          "durationTicks": 48,
          "midi": 79,
          "name": "G5",
          "ticks": 56568,
          "time": 229.5776925,
          "velocity": 1
        },
        {
          "duration": 0.19480500000000234,
          "durationTicks": 48,
          "midi": 86,
          "name": "D6",
          "ticks": 56568,
          "time": 229.5776925,
          "velocity": 1
        },
        {
          "duration": 0.19480500000000234,
          "durationTicks": 48,
          "midi": 86,
          "name": "D6",
          "ticks": 56616,
          "time": 229.77249750000001,
          "velocity": 1
        },
        {
          "duration": 0.19480500000000234,
          "durationTicks": 48,
          "midi": 91,
          "name": "G6",
          "ticks": 56616,
          "time": 229.77249750000001,
          "velocity": 1
        },
        {
          "duration": 0.09740249999998696,
          "durationTicks": 24,
          "midi": 90,
          "name": "F#6",
          "ticks": 56664,
          "time": 229.96730250000002,
          "velocity": 1
        },
        {
          "duration": 0.09740250000001538,
          "durationTicks": 24,
          "midi": 91,
          "name": "G6",
          "ticks": 56688,
          "time": 230.064705,
          "velocity": 1
        },
        {
          "duration": 0.09740249999998696,
          "durationTicks": 24,
          "midi": 90,
          "name": "F#6",
          "ticks": 56712,
          "time": 230.16210750000002,
          "velocity": 1
        },
        {
          "duration": 0.09740249999998696,
          "durationTicks": 24,
          "midi": 88,
          "name": "E6",
          "ticks": 56736,
          "time": 230.25951,
          "velocity": 1
        },
        {
          "duration": 0.19480500000000234,
          "durationTicks": 48,
          "midi": 81,
          "name": "A5",
          "ticks": 56760,
          "time": 230.3569125,
          "velocity": 1
        },
        {
          "duration": 0.19480500000000234,
          "durationTicks": 48,
          "midi": 86,
          "name": "D6",
          "ticks": 56760,
          "time": 230.3569125,
          "velocity": 1
        },
        {
          "duration": 0.19480500000000234,
          "durationTicks": 48,
          "midi": 79,
          "name": "G5",
          "ticks": 56808,
          "time": 230.5517175,
          "velocity": 1
        },
        {
          "duration": 0.19480500000000234,
          "durationTicks": 48,
          "midi": 83,
          "name": "B5",
          "ticks": 56808,
          "time": 230.5517175,
          "velocity": 1
        },
        {
          "duration": 0.19480500000000234,
          "durationTicks": 48,
          "midi": 71,
          "name": "B4",
          "ticks": 56808,
          "time": 230.5517175,
          "velocity": 1
        },
        {
          "duration": 0.19480500000000234,
          "durationTicks": 48,
          "midi": 76,
          "name": "E5",
          "ticks": 56856,
          "time": 230.7465225,
          "velocity": 1
        },
        {
          "duration": 0.19480500000000234,
          "durationTicks": 48,
          "midi": 81,
          "name": "A5",
          "ticks": 56856,
          "time": 230.7465225,
          "velocity": 1
        },
        {
          "duration": 0.19480500000000234,
          "durationTicks": 48,
          "midi": 69,
          "name": "A4",
          "ticks": 56856,
          "time": 230.7465225,
          "velocity": 1
        },
        {
          "duration": 0.19480500000000234,
          "durationTicks": 48,
          "midi": 79,
          "name": "G5",
          "ticks": 56904,
          "time": 230.9413275,
          "velocity": 1
        },
        {
          "duration": 0.19480500000000234,
          "durationTicks": 48,
          "midi": 83,
          "name": "B5",
          "ticks": 56904,
          "time": 230.9413275,
          "velocity": 1
        },
        {
          "duration": 0.19480500000000234,
          "durationTicks": 48,
          "midi": 71,
          "name": "B4",
          "ticks": 56904,
          "time": 230.9413275,
          "velocity": 1
        },
        {
          "duration": 0.09740250000001538,
          "durationTicks": 24,
          "midi": 76,
          "name": "E5",
          "ticks": 56952,
          "time": 231.1361325,
          "velocity": 1
        },
        {
          "duration": 0.09740249999998696,
          "durationTicks": 24,
          "midi": 74,
          "name": "D5",
          "ticks": 56976,
          "time": 231.23353500000002,
          "velocity": 1
        },
        {
          "duration": 0.09740250000001538,
          "durationTicks": 24,
          "midi": 76,
          "name": "E5",
          "ticks": 57000,
          "time": 231.3309375,
          "velocity": 1
        },
        {
          "duration": 0.09740249999998696,
          "durationTicks": 24,
          "midi": 74,
          "name": "D5",
          "ticks": 57024,
          "time": 231.42834000000002,
          "velocity": 1
        },
        {
          "duration": 0.19480500000000234,
          "durationTicks": 48,
          "midi": 76,
          "name": "E5",
          "ticks": 57048,
          "time": 231.5257425,
          "velocity": 1
        },
        {
          "duration": 0.19480500000000234,
          "durationTicks": 48,
          "midi": 81,
          "name": "A5",
          "ticks": 57048,
          "time": 231.5257425,
          "velocity": 1
        },
        {
          "duration": 0.19480500000000234,
          "durationTicks": 48,
          "midi": 69,
          "name": "A4",
          "ticks": 57048,
          "time": 231.5257425,
          "velocity": 1
        },
        {
          "duration": 0.19480500000000234,
          "durationTicks": 48,
          "midi": 78,
          "name": "F#5",
          "ticks": 57096,
          "time": 231.7205475,
          "velocity": 1
        },
        {
          "duration": 0.19480500000000234,
          "durationTicks": 48,
          "midi": 83,
          "name": "B5",
          "ticks": 57096,
          "time": 231.7205475,
          "velocity": 1
        },
        {
          "duration": 0.19480500000000234,
          "durationTicks": 48,
          "midi": 71,
          "name": "B4",
          "ticks": 57096,
          "time": 231.7205475,
          "velocity": 1
        },
        {
          "duration": 0.09740249999998696,
          "durationTicks": 24,
          "midi": 76,
          "name": "E5",
          "ticks": 57144,
          "time": 231.9153525,
          "velocity": 1
        },
        {
          "duration": 0.09740250000001538,
          "durationTicks": 24,
          "midi": 74,
          "name": "D5",
          "ticks": 57168,
          "time": 232.012755,
          "velocity": 1
        },
        {
          "duration": 0.09740249999998696,
          "durationTicks": 24,
          "midi": 76,
          "name": "E5",
          "ticks": 57192,
          "time": 232.1101575,
          "velocity": 1
        },
        {
          "duration": 0.09740250000001538,
          "durationTicks": 24,
          "midi": 74,
          "name": "D5",
          "ticks": 57216,
          "time": 232.20756,
          "velocity": 1
        },
        {
          "duration": 0.19480500000000234,
          "durationTicks": 48,
          "midi": 76,
          "name": "E5",
          "ticks": 57240,
          "time": 232.30496250000002,
          "velocity": 1
        },
        {
          "duration": 0.19480500000000234,
          "durationTicks": 48,
          "midi": 81,
          "name": "A5",
          "ticks": 57240,
          "time": 232.30496250000002,
          "velocity": 1
        },
        {
          "duration": 0.19480500000000234,
          "durationTicks": 48,
          "midi": 69,
          "name": "A4",
          "ticks": 57240,
          "time": 232.30496250000002,
          "velocity": 1
        },
        {
          "duration": 0.19480500000000234,
          "durationTicks": 48,
          "midi": 78,
          "name": "F#5",
          "ticks": 57288,
          "time": 232.49976750000002,
          "velocity": 1
        },
        {
          "duration": 0.19480500000000234,
          "durationTicks": 48,
          "midi": 83,
          "name": "B5",
          "ticks": 57288,
          "time": 232.49976750000002,
          "velocity": 1
        },
        {
          "duration": 0.19480500000000234,
          "durationTicks": 48,
          "midi": 71,
          "name": "B4",
          "ticks": 57288,
          "time": 232.49976750000002,
          "velocity": 1
        },
        {
          "duration": 0.09740249999998696,
          "durationTicks": 24,
          "midi": 76,
          "name": "E5",
          "ticks": 57336,
          "time": 232.69457250000002,
          "velocity": 1
        },
        {
          "duration": 0.09740249999998696,
          "durationTicks": 24,
          "midi": 74,
          "name": "D5",
          "ticks": 57360,
          "time": 232.791975,
          "velocity": 1
        },
        {
          "duration": 0.09740250000001538,
          "durationTicks": 24,
          "midi": 76,
          "name": "E5",
          "ticks": 57384,
          "time": 232.8893775,
          "velocity": 1
        },
        {
          "duration": 0.09740249999998696,
          "durationTicks": 24,
          "midi": 74,
          "name": "D5",
          "ticks": 57408,
          "time": 232.98678,
          "velocity": 1
        },
        {
          "duration": 0.19480500000000234,
          "durationTicks": 48,
          "midi": 74,
          "name": "D5",
          "ticks": 57432,
          "time": 233.0841825,
          "velocity": 1
        },
        {
          "duration": 0.19480500000000234,
          "durationTicks": 48,
          "midi": 79,
          "name": "G5",
          "ticks": 57432,
          "time": 233.0841825,
          "velocity": 1
        },
        {
          "duration": 0.19480500000000234,
          "durationTicks": 48,
          "midi": 74,
          "name": "D5",
          "ticks": 57480,
          "time": 233.2789875,
          "velocity": 1
        },
        {
          "duration": 0.09740250000001538,
          "durationTicks": 24,
          "midi": 78,
          "name": "F#5",
          "ticks": 57480,
          "time": 233.2789875,
          "velocity": 1
        },
        {
          "duration": 0.04870124999999348,
          "durationTicks": 12,
          "midi": 79,
          "name": "G5",
          "ticks": 57504,
          "time": 233.37639000000001,
          "velocity": 1
        },
        {
          "duration": 0.04870124999999348,
          "durationTicks": 12,
          "midi": 78,
          "name": "F#5",
          "ticks": 57516,
          "time": 233.42509125,
          "velocity": 1
        },
        {
          "duration": 0.19480500000000234,
          "durationTicks": 48,
          "midi": 76,
          "name": "E5",
          "ticks": 57528,
          "time": 233.4737925,
          "velocity": 1
        },
        {
          "duration": 0.19480500000000234,
          "durationTicks": 48,
          "midi": 74,
          "name": "D5",
          "ticks": 57576,
          "time": 233.6685975,
          "velocity": 1
        },
        {
          "duration": 0.09740249999998696,
          "durationTicks": 24,
          "midi": 81,
          "name": "A5",
          "ticks": 57624,
          "time": 233.8634025,
          "velocity": 1
        },
        {
          "duration": 0.09740250000001538,
          "durationTicks": 24,
          "midi": 79,
          "name": "G5",
          "ticks": 57648,
          "time": 233.960805,
          "velocity": 1
        },
        {
          "duration": 0.09740249999998696,
          "durationTicks": 24,
          "midi": 83,
          "name": "B5",
          "ticks": 57672,
          "time": 234.0582075,
          "velocity": 1
        },
        {
          "duration": 0.09740250000001538,
          "durationTicks": 24,
          "midi": 86,
          "name": "D6",
          "ticks": 57696,
          "time": 234.15561,
          "velocity": 1
        },
        {
          "duration": 0.09740249999998696,
          "durationTicks": 24,
          "midi": 88,
          "name": "E6",
          "ticks": 57720,
          "time": 234.2530125,
          "velocity": 1
        },
        {
          "duration": 0.09740250000001538,
          "durationTicks": 24,
          "midi": 86,
          "name": "D6",
          "ticks": 57744,
          "time": 234.350415,
          "velocity": 1
        },
        {
          "duration": 0.09740249999998696,
          "durationTicks": 24,
          "midi": 83,
          "name": "B5",
          "ticks": 57768,
          "time": 234.4478175,
          "velocity": 1
        },
        {
          "duration": 0.09740250000001538,
          "durationTicks": 24,
          "midi": 81,
          "name": "A5",
          "ticks": 57792,
          "time": 234.54522,
          "velocity": 1
        },
        {
          "duration": 0.19480500000000234,
          "durationTicks": 48,
          "midi": 71,
          "name": "B4",
          "ticks": 57816,
          "time": 234.64262250000002,
          "velocity": 1
        },
        {
          "duration": 0.19480500000000234,
          "durationTicks": 48,
          "midi": 76,
          "name": "E5",
          "ticks": 57816,
          "time": 234.64262250000002,
          "velocity": 1
        },
        {
          "duration": 0.19480500000000234,
          "durationTicks": 48,
          "midi": 74,
          "name": "D5",
          "ticks": 57864,
          "time": 234.83742750000002,
          "velocity": 1
        },
        {
          "duration": 0.19480500000000234,
          "durationTicks": 48,
          "midi": 79,
          "name": "G5",
          "ticks": 57864,
          "time": 234.83742750000002,
          "velocity": 1
        },
        {
          "duration": 0.19480499999997392,
          "durationTicks": 48,
          "midi": 76,
          "name": "E5",
          "ticks": 57912,
          "time": 235.03223250000002,
          "velocity": 1
        },
        {
          "duration": 0.19480499999997392,
          "durationTicks": 48,
          "midi": 69,
          "name": "A4",
          "ticks": 57912,
          "time": 235.03223250000002,
          "velocity": 1
        },
        {
          "duration": 0.19480499999997392,
          "durationTicks": 48,
          "midi": 81,
          "name": "A5",
          "ticks": 57912,
          "time": 235.03223250000002,
          "velocity": 1
        },
        {
          "duration": 0.19480500000000234,
          "durationTicks": 48,
          "midi": 78,
          "name": "F#5",
          "ticks": 57960,
          "time": 235.2270375,
          "velocity": 1
        },
        {
          "duration": 0.19480500000000234,
          "durationTicks": 48,
          "midi": 71,
          "name": "B4",
          "ticks": 57960,
          "time": 235.2270375,
          "velocity": 1
        },
        {
          "duration": 0.19480500000000234,
          "durationTicks": 48,
          "midi": 83,
          "name": "B5",
          "ticks": 57960,
          "time": 235.2270375,
          "velocity": 1
        },
        {
          "duration": 0.19480500000000234,
          "durationTicks": 48,
          "midi": 67,
          "name": "G4",
          "ticks": 58008,
          "time": 235.4218425,
          "velocity": 1
        },
        {
          "duration": 0.19480500000000234,
          "durationTicks": 48,
          "midi": 76,
          "name": "E5",
          "ticks": 58008,
          "time": 235.4218425,
          "velocity": 1
        },
        {
          "duration": 0.19480500000000234,
          "durationTicks": 48,
          "midi": 64,
          "name": "E4",
          "ticks": 58008,
          "time": 235.4218425,
          "velocity": 1
        },
        {
          "duration": 0.19480500000000234,
          "durationTicks": 48,
          "midi": 71,
          "name": "B4",
          "ticks": 58008,
          "time": 235.4218425,
          "velocity": 1
        },
        {
          "duration": 0.19480500000000234,
          "durationTicks": 48,
          "midi": 67,
          "name": "G4",
          "ticks": 58080,
          "time": 235.71405000000001,
          "velocity": 1
        },
        {
          "duration": 0.19480500000000234,
          "durationTicks": 48,
          "midi": 76,
          "name": "E5",
          "ticks": 58080,
          "time": 235.71405000000001,
          "velocity": 1
        },
        {
          "duration": 0.19480500000000234,
          "durationTicks": 48,
          "midi": 64,
          "name": "E4",
          "ticks": 58080,
          "time": 235.71405000000001,
          "velocity": 1
        },
        {
          "duration": 0.19480500000000234,
          "durationTicks": 48,
          "midi": 71,
          "name": "B4",
          "ticks": 58080,
          "time": 235.71405000000001,
          "velocity": 1
        },
        {
          "duration": 0.19480500000000234,
          "durationTicks": 48,
          "midi": 62,
          "name": "D4",
          "ticks": 58152,
          "time": 236.0062575,
          "velocity": 1
        },
        {
          "duration": 0.19480500000000234,
          "durationTicks": 48,
          "midi": 74,
          "name": "D5",
          "ticks": 58152,
          "time": 236.0062575,
          "velocity": 1
        },
        {
          "duration": 0.19480500000000234,
          "durationTicks": 48,
          "midi": 69,
          "name": "A4",
          "ticks": 58152,
          "time": 236.0062575,
          "velocity": 1
        },
        {
          "duration": 0.3896100000000047,
          "durationTicks": 96,
          "midi": 67,
          "name": "G4",
          "ticks": 58200,
          "time": 236.2010625,
          "velocity": 1
        },
        {
          "duration": 0.3896100000000047,
          "durationTicks": 96,
          "midi": 76,
          "name": "E5",
          "ticks": 58200,
          "time": 236.2010625,
          "velocity": 1
        },
        {
          "duration": 0.3896100000000047,
          "durationTicks": 96,
          "midi": 64,
          "name": "E4",
          "ticks": 58200,
          "time": 236.2010625,
          "velocity": 1
        },
        {
          "duration": 0.3896100000000047,
          "durationTicks": 96,
          "midi": 71,
          "name": "B4",
          "ticks": 58200,
          "time": 236.2010625,
          "velocity": 1
        },
        {
          "duration": 0.02435062499998253,
          "durationTicks": 6,
          "midi": 74,
          "name": "D5",
          "ticks": 58296,
          "time": 236.5906725,
          "velocity": 0.905511811023622
        },
        {
          "duration": 0.02435062500001095,
          "durationTicks": 6,
          "midi": 73,
          "name": "C#5",
          "ticks": 58302,
          "time": 236.615023125,
          "velocity": 0.8740157480314961
        },
        {
          "duration": 0.02435062500001095,
          "durationTicks": 6,
          "midi": 71,
          "name": "B4",
          "ticks": 58308,
          "time": 236.63937375,
          "velocity": 0.8346456692913385
        },
        {
          "duration": 0.02435062499998253,
          "durationTicks": 6,
          "midi": 69,
          "name": "A4",
          "ticks": 58314,
          "time": 236.66372437500002,
          "velocity": 0.7952755905511811
        },
        {
          "duration": 0.02435062500001095,
          "durationTicks": 6,
          "midi": 67,
          "name": "G4",
          "ticks": 58320,
          "time": 236.688075,
          "velocity": 0.7559055118110236
        },
        {
          "duration": 0.02435062500001095,
          "durationTicks": 6,
          "midi": 66,
          "name": "F#4",
          "ticks": 58326,
          "time": 236.712425625,
          "velocity": 0.7165354330708661
        },
        {
          "duration": 0.02435062499998253,
          "durationTicks": 6,
          "midi": 64,
          "name": "E4",
          "ticks": 58332,
          "time": 236.73677625000002,
          "velocity": 0.6850393700787402
        },
        {
          "duration": 0.02435062500001095,
          "durationTicks": 6,
          "midi": 62,
          "name": "D4",
          "ticks": 58338,
          "time": 236.761126875,
          "velocity": 0.6456692913385826
        },
        {
          "duration": 0.02435062499998253,
          "durationTicks": 6,
          "midi": 61,
          "name": "C#4",
          "ticks": 58344,
          "time": 236.7854775,
          "velocity": 0.6062992125984252
        },
        {
          "duration": 0.02435062500001095,
          "durationTicks": 6,
          "midi": 59,
          "name": "B3",
          "ticks": 58350,
          "time": 236.809828125,
          "velocity": 0.5669291338582677
        },
        {
          "duration": 0.02435062500001095,
          "durationTicks": 6,
          "midi": 57,
          "name": "A3",
          "ticks": 58356,
          "time": 236.83417875,
          "velocity": 1
        },
        {
          "duration": 0.19480500000000234,
          "durationTicks": 48,
          "midi": 67,
          "name": "G4",
          "ticks": 58392,
          "time": 236.98028250000002,
          "velocity": 1
        },
        {
          "duration": 0.19480500000000234,
          "durationTicks": 48,
          "midi": 76,
          "name": "E5",
          "ticks": 58392,
          "time": 236.98028250000002,
          "velocity": 1
        },
        {
          "duration": 0.19480500000000234,
          "durationTicks": 48,
          "midi": 71,
          "name": "B4",
          "ticks": 58392,
          "time": 236.98028250000002,
          "velocity": 1
        },
        {
          "duration": 0.19480500000000234,
          "durationTicks": 48,
          "midi": 64,
          "name": "E4",
          "ticks": 58392,
          "time": 236.98028250000002,
          "velocity": 1
        },
        {
          "duration": 0.19480500000000234,
          "durationTicks": 48,
          "midi": 67,
          "name": "G4",
          "ticks": 58464,
          "time": 237.27249,
          "velocity": 1
        },
        {
          "duration": 0.19480500000000234,
          "durationTicks": 48,
          "midi": 76,
          "name": "E5",
          "ticks": 58464,
          "time": 237.27249,
          "velocity": 1
        },
        {
          "duration": 0.19480500000000234,
          "durationTicks": 48,
          "midi": 71,
          "name": "B4",
          "ticks": 58464,
          "time": 237.27249,
          "velocity": 1
        },
        {
          "duration": 0.19480500000000234,
          "durationTicks": 48,
          "midi": 64,
          "name": "E4",
          "ticks": 58464,
          "time": 237.27249,
          "velocity": 1
        },
        {
          "duration": 0.19480500000000234,
          "durationTicks": 48,
          "midi": 69,
          "name": "A4",
          "ticks": 58536,
          "time": 237.5646975,
          "velocity": 1
        },
        {
          "duration": 0.19480500000000234,
          "durationTicks": 48,
          "midi": 74,
          "name": "D5",
          "ticks": 58536,
          "time": 237.5646975,
          "velocity": 1
        },
        {
          "duration": 0.19480500000000234,
          "durationTicks": 48,
          "midi": 62,
          "name": "D4",
          "ticks": 58536,
          "time": 237.5646975,
          "velocity": 1
        },
        {
          "duration": 0.584415000000007,
          "durationTicks": 144,
          "midi": 67,
          "name": "G4",
          "ticks": 58584,
          "time": 237.7595025,
          "velocity": 1
        },
        {
          "duration": 0.584415000000007,
          "durationTicks": 144,
          "midi": 76,
          "name": "E5",
          "ticks": 58584,
          "time": 237.7595025,
          "velocity": 1
        },
        {
          "duration": 0.584415000000007,
          "durationTicks": 144,
          "midi": 71,
          "name": "B4",
          "ticks": 58584,
          "time": 237.7595025,
          "velocity": 1
        },
        {
          "duration": 0.584415000000007,
          "durationTicks": 144,
          "midi": 64,
          "name": "E4",
          "ticks": 58584,
          "time": 237.7595025,
          "velocity": 1
        }
      ],
      "endOfTrackTicks": 58865
    },
    {
      "channel": 0,
      "controlChanges": {
        "6": [
          {
            "number": 6,
            "ticks": 0,
            "time": 0,
            "value": 0.09448818897637795
          },
          {
            "number": 6,
            "ticks": 0,
            "time": 0,
            "value": 0.09448818897637795
          },
          {
            "number": 6,
            "ticks": 0,
            "time": 0,
            "value": 0.09448818897637795
          },
          {
            "number": 6,
            "ticks": 58728,
            "time": 238.3439175,
            "value": 0.09448818897637795
          },
          {
            "number": 6,
            "ticks": 58865,
            "time": 238.89992343750004,
            "value": 0.09448818897637795
          }
        ],
        "7": [
          {
            "number": 7,
            "ticks": 0,
            "time": 0,
            "value": 0.7874015748031497
          },
          {
            "number": 7,
            "ticks": 0,
            "time": 0,
            "value": 0.7874015748031497
          },
          {
            "number": 7,
            "ticks": 0,
            "time": 0,
            "value": 0.7874015748031497
          },
          {
            "number": 7,
            "ticks": 0,
            "time": 0,
            "value": 0.7874015748031497
          },
          {
            "number": 7,
            "ticks": 58728,
            "time": 238.3439175,
            "value": 0.7874015748031497
          },
          {
            "number": 7,
            "ticks": 58865,
            "time": 238.89992343750004,
            "value": 0.7874015748031497
          }
        ],
        "10": [
          {
            "number": 10,
            "ticks": 0,
            "time": 0,
            "value": 0.5039370078740157
          },
          {
            "number": 10,
            "ticks": 0,
            "time": 0,
            "value": 0.5039370078740157
          },
          {
            "number": 10,
            "ticks": 0,
            "time": 0,
            "value": 0.5039370078740157
          },
          {
            "number": 10,
            "ticks": 0,
            "time": 0,
            "value": 0.5039370078740157
          },
          {
            "number": 10,
            "ticks": 58728,
            "time": 238.3439175,
            "value": 0.5039370078740157
          },
          {
            "number": 10,
            "ticks": 58865,
            "time": 238.89992343750004,
            "value": 0.5039370078740157
          }
        ],
        "100": [
          {
            "number": 100,
            "ticks": 0,
            "time": 0,
            "value": 0
          },
          {
            "number": 100,
            "ticks": 0,
            "time": 0,
            "value": 0
          },
          {
            "number": 100,
            "ticks": 0,
            "time": 0,
            "value": 0
          },
          {
            "number": 100,
            "ticks": 58728,
            "time": 238.3439175,
            "value": 0
          },
          {
            "number": 100,
            "ticks": 58865,
            "time": 238.89992343750004,
            "value": 0
          }
        ],
        "101": [
          {
            "number": 101,
            "ticks": 0,
            "time": 0,
            "value": 0
          },
          {
            "number": 101,
            "ticks": 0,
            "time": 0,
            "value": 0
          },
          {
            "number": 101,
            "ticks": 0,
            "time": 0,
            "value": 0
          },
          {
            "number": 101,
            "ticks": 58728,
            "time": 238.3439175,
            "value": 0
          },
          {
            "number": 101,
            "ticks": 58865,
            "time": 238.89992343750004,
            "value": 0
          }
        ]
      },
      "pitchBends": [
        {
          "ticks": 0,
          "time": 0,
          "value": 0
        },
        {
          "ticks": 0,
          "time": 0,
          "value": 0
        },
        {
          "ticks": 0,
          "time": 0,
          "value": 0
        },
        {
          "ticks": 0,
          "time": 0,
          "value": 0
        },
        {
          "ticks": 58728,
          "time": 238.3439175,
          "value": 0
        },
        {
          "ticks": 58865,
          "time": 238.89992343750004,
          "value": 0
        }
      ],
      "instrument": {
        "family": "piano",
        "number": 0,
        "name": "acoustic grand piano"
      },
      "name": "MIKU",
      "notes": [
        {
          "duration": 0.19480499999999878,
          "durationTicks": 48,
          "midi": 62,
          "name": "D4",
          "ticks": 7704,
          "time": 31.266202500000002,
          "velocity": 1
        },
        {
          "duration": 0.29220749999999995,
          "durationTicks": 72,
          "midi": 62,
          "name": "D4",
          "ticks": 7800,
          "time": 31.6558125,
          "velocity": 1
        },
        {
          "duration": 0.09740250000000117,
          "durationTicks": 24,
          "midi": 60,
          "name": "C4",
          "ticks": 7872,
          "time": 31.94802,
          "velocity": 1
        },
        {
          "duration": 0.19480500000000234,
          "durationTicks": 48,
          "midi": 62,
          "name": "D4",
          "ticks": 7896,
          "time": 32.0454225,
          "velocity": 1
        },
        {
          "duration": 0.19480499999999523,
          "durationTicks": 48,
          "midi": 65,
          "name": "F4",
          "ticks": 7944,
          "time": 32.2402275,
          "velocity": 1
        },
        {
          "duration": 0.19480500000000234,
          "durationTicks": 48,
          "midi": 65,
          "name": "F4",
          "ticks": 7992,
          "time": 32.4350325,
          "velocity": 1
        },
        {
          "duration": 0.19480500000000234,
          "durationTicks": 48,
          "midi": 67,
          "name": "G4",
          "ticks": 8040,
          "time": 32.6298375,
          "velocity": 1
        },
        {
          "duration": 0.19480499999999523,
          "durationTicks": 48,
          "midi": 62,
          "name": "D4",
          "ticks": 8088,
          "time": 32.8246425,
          "velocity": 1
        },
        {
          "duration": 0.2922075000000035,
          "durationTicks": 72,
          "midi": 62,
          "name": "D4",
          "ticks": 8184,
          "time": 33.2142525,
          "velocity": 1
        },
        {
          "duration": 0.09740249999999406,
          "durationTicks": 24,
          "midi": 60,
          "name": "C4",
          "ticks": 8256,
          "time": 33.506460000000004,
          "velocity": 1
        },
        {
          "duration": 0.19480500000000234,
          "durationTicks": 48,
          "midi": 62,
          "name": "D4",
          "ticks": 8280,
          "time": 33.6038625,
          "velocity": 1
        },
        {
          "duration": 0.19480500000000234,
          "durationTicks": 48,
          "midi": 60,
          "name": "C4",
          "ticks": 8328,
          "time": 33.7986675,
          "velocity": 1
        },
        {
          "duration": 0.19480499999999523,
          "durationTicks": 48,
          "midi": 57,
          "name": "A3",
          "ticks": 8376,
          "time": 33.9934725,
          "velocity": 1
        },
        {
          "duration": 0.19480500000000234,
          "durationTicks": 48,
          "midi": 60,
          "name": "C4",
          "ticks": 8424,
          "time": 34.1882775,
          "velocity": 1
        },
        {
          "duration": 0.19480500000000234,
          "durationTicks": 48,
          "midi": 62,
          "name": "D4",
          "ticks": 8472,
          "time": 34.3830825,
          "velocity": 1
        },
        {
          "duration": 0.2922075000000035,
          "durationTicks": 72,
          "midi": 62,
          "name": "D4",
          "ticks": 8568,
          "time": 34.7726925,
          "velocity": 1
        },
        {
          "duration": 0.09740250000000117,
          "durationTicks": 24,
          "midi": 60,
          "name": "C4",
          "ticks": 8640,
          "time": 35.0649,
          "velocity": 1
        },
        {
          "duration": 0.19480499999999523,
          "durationTicks": 48,
          "midi": 62,
          "name": "D4",
          "ticks": 8664,
          "time": 35.1623025,
          "velocity": 1
        },
        {
          "duration": 0.19480500000000234,
          "durationTicks": 48,
          "midi": 65,
          "name": "F4",
          "ticks": 8712,
          "time": 35.3571075,
          "velocity": 1
        },
        {
          "duration": 0.19480500000000234,
          "durationTicks": 48,
          "midi": 67,
          "name": "G4",
          "ticks": 8760,
          "time": 35.5519125,
          "velocity": 1
        },
        {
          "duration": 0.19480499999999523,
          "durationTicks": 48,
          "midi": 69,
          "name": "A4",
          "ticks": 8808,
          "time": 35.7467175,
          "velocity": 1
        },
        {
          "duration": 0.19480500000000234,
          "durationTicks": 48,
          "midi": 69,
          "name": "A4",
          "ticks": 8856,
          "time": 35.9415225,
          "velocity": 1
        },
        {
          "duration": 0.048701250000000584,
          "durationTicks": 12,
          "midi": 67,
          "name": "G4",
          "ticks": 8952,
          "time": 36.3311325,
          "velocity": 1
        },
        {
          "duration": 0.340908749999997,
          "durationTicks": 84,
          "midi": 69,
          "name": "A4",
          "ticks": 8964,
          "time": 36.37983375,
          "velocity": 1
        },
        {
          "duration": 0.38960999999999757,
          "durationTicks": 96,
          "midi": 65,
          "name": "F4",
          "ticks": 9048,
          "time": 36.7207425,
          "velocity": 1
        },
        {
          "duration": 0.3896100000000047,
          "durationTicks": 96,
          "midi": 62,
          "name": "D4",
          "ticks": 9144,
          "time": 37.1103525,
          "velocity": 1
        },
        {
          "duration": 0.19480500000000234,
          "durationTicks": 48,
          "midi": 62,
          "name": "D4",
          "ticks": 9240,
          "time": 37.4999625,
          "velocity": 1
        },
        {
          "duration": 0.09740250000000117,
          "durationTicks": 24,
          "midi": 60,
          "name": "C4",
          "ticks": 9312,
          "time": 37.79217,
          "velocity": 1
        },
        {
          "duration": 0.2922075000000035,
          "durationTicks": 72,
          "midi": 62,
          "name": "D4",
          "ticks": 9336,
          "time": 37.8895725,
          "velocity": 1
        },
        {
          "duration": 0.09740250000000117,
          "durationTicks": 24,
          "midi": 60,
          "name": "C4",
          "ticks": 9408,
          "time": 38.18178,
          "velocity": 1
        },
        {
          "duration": 0.19480499999999523,
          "durationTicks": 48,
          "midi": 62,
          "name": "D4",
          "ticks": 9432,
          "time": 38.279182500000005,
          "velocity": 1
        },
        {
          "duration": 0.19480500000000234,
          "durationTicks": 48,
          "midi": 65,
          "name": "F4",
          "ticks": 9480,
          "time": 38.4739875,
          "velocity": 1
        },
        {
          "duration": 0.19480500000000234,
          "durationTicks": 48,
          "midi": 65,
          "name": "F4",
          "ticks": 9528,
          "time": 38.6687925,
          "velocity": 1
        },
        {
          "duration": 0.19480499999999523,
          "durationTicks": 48,
          "midi": 67,
          "name": "G4",
          "ticks": 9576,
          "time": 38.863597500000004,
          "velocity": 1
        },
        {
          "duration": 0.19480500000000234,
          "durationTicks": 48,
          "midi": 62,
          "name": "D4",
          "ticks": 9624,
          "time": 39.0584025,
          "velocity": 1
        },
        {
          "duration": 0.2922074999999964,
          "durationTicks": 72,
          "midi": 62,
          "name": "D4",
          "ticks": 9696,
          "time": 39.35061,
          "velocity": 1
        },
        {
          "duration": 0.19480500000000234,
          "durationTicks": 48,
          "midi": 60,
          "name": "C4",
          "ticks": 9768,
          "time": 39.6428175,
          "velocity": 1
        },
        {
          "duration": 0.19480500000000234,
          "durationTicks": 48,
          "midi": 62,
          "name": "D4",
          "ticks": 9816,
          "time": 39.8376225,
          "velocity": 1
        },
        {
          "duration": 0.19480499999999523,
          "durationTicks": 48,
          "midi": 60,
          "name": "C4",
          "ticks": 9864,
          "time": 40.032427500000004,
          "velocity": 1
        },
        {
          "duration": 0.19480500000000234,
          "durationTicks": 48,
          "midi": 60,
          "name": "C4",
          "ticks": 9912,
          "time": 40.2272325,
          "velocity": 1
        },
        {
          "duration": 0.19480500000000234,
          "durationTicks": 48,
          "midi": 57,
          "name": "A3",
          "ticks": 9960,
          "time": 40.4220375,
          "velocity": 1
        },
        {
          "duration": 0.19480499999999523,
          "durationTicks": 48,
          "midi": 62,
          "name": "D4",
          "ticks": 10008,
          "time": 40.616842500000004,
          "velocity": 1
        },
        {
          "duration": 0.09740250000000117,
          "durationTicks": 24,
          "midi": 60,
          "name": "C4",
          "ticks": 10080,
          "time": 40.90905,
          "velocity": 1
        },
        {
          "duration": 0.19480500000000234,
          "durationTicks": 48,
          "midi": 62,
          "name": "D4",
          "ticks": 10104,
          "time": 41.0064525,
          "velocity": 1
        },
        {
          "duration": 0.19480499999999523,
          "durationTicks": 48,
          "midi": 60,
          "name": "C4",
          "ticks": 10152,
          "time": 41.201257500000004,
          "velocity": 1
        },
        {
          "duration": 0.19480500000000234,
          "durationTicks": 48,
          "midi": 60,
          "name": "C4",
          "ticks": 10200,
          "time": 41.3960625,
          "velocity": 1
        },
        {
          "duration": 0.19480500000000234,
          "durationTicks": 48,
          "midi": 62,
          "name": "D4",
          "ticks": 10248,
          "time": 41.5908675,
          "velocity": 1
        },
        {
          "duration": 0.19480499999999523,
          "durationTicks": 48,
          "midi": 65,
          "name": "F4",
          "ticks": 10296,
          "time": 41.785672500000004,
          "velocity": 1
        },
        {
          "duration": 0.19480500000000234,
          "durationTicks": 48,
          "midi": 67,
          "name": "G4",
          "ticks": 10344,
          "time": 41.9804775,
          "velocity": 1
        },
        {
          "duration": 0.38960999999999757,
          "durationTicks": 96,
          "midi": 69,
          "name": "A4",
          "ticks": 10392,
          "time": 42.1752825,
          "velocity": 1
        },
        {
          "duration": 0.048701250000000584,
          "durationTicks": 12,
          "midi": 67,
          "name": "G4",
          "ticks": 10488,
          "time": 42.5648925,
          "velocity": 1
        },
        {
          "duration": 0.3409087500000041,
          "durationTicks": 84,
          "midi": 69,
          "name": "A4",
          "ticks": 10500,
          "time": 42.61359375,
          "velocity": 1
        },
        {
          "duration": 0.38960999999999757,
          "durationTicks": 96,
          "midi": 65,
          "name": "F4",
          "ticks": 10584,
          "time": 42.954502500000004,
          "velocity": 1
        },
        {
          "duration": 0.38960999999999757,
          "durationTicks": 96,
          "midi": 62,
          "name": "D4",
          "ticks": 10680,
          "time": 43.3441125,
          "velocity": 1
        },
        {
          "duration": 0.3896100000000047,
          "durationTicks": 96,
          "midi": 65,
          "name": "F4",
          "ticks": 10776,
          "time": 43.7337225,
          "velocity": 1
        },
        {
          "duration": 0.38960999999999757,
          "durationTicks": 96,
          "midi": 64,
          "name": "E4",
          "ticks": 10872,
          "time": 44.123332500000004,
          "velocity": 1
        },
        {
          "duration": 0.38960999999999757,
          "durationTicks": 96,
          "midi": 62,
          "name": "D4",
          "ticks": 10968,
          "time": 44.5129425,
          "velocity": 1
        },
        {
          "duration": 0.3896100000000047,
          "durationTicks": 96,
          "midi": 60,
          "name": "C4",
          "ticks": 11064,
          "time": 44.9025525,
          "velocity": 1
        },
        {
          "duration": 0.19480499999999523,
          "durationTicks": 48,
          "midi": 60,
          "name": "C4",
          "ticks": 11160,
          "time": 45.2921625,
          "velocity": 1
        },
        {
          "duration": 0.09740250000000117,
          "durationTicks": 24,
          "midi": 60,
          "name": "C4",
          "ticks": 11208,
          "time": 45.4869675,
          "velocity": 1
        },
        {
          "duration": 0.09740250000000117,
          "durationTicks": 24,
          "midi": 62,
          "name": "D4",
          "ticks": 11232,
          "time": 45.58437,
          "velocity": 1
        },
        {
          "duration": 0.19480500000000234,
          "durationTicks": 48,
          "midi": 57,
          "name": "A3",
          "ticks": 11256,
          "time": 45.6817725,
          "velocity": 1
        },
        {
          "duration": 0.19480499999999523,
          "durationTicks": 48,
          "midi": 55,
          "name": "G3",
          "ticks": 11304,
          "time": 45.8765775,
          "velocity": 1
        },
        {
          "duration": 0.3896100000000047,
          "durationTicks": 96,
          "midi": 57,
          "name": "A3",
          "ticks": 11352,
          "time": 46.0713825,
          "velocity": 1
        },
        {
          "duration": 0.19480500000000234,
          "durationTicks": 48,
          "midi": 57,
          "name": "A3",
          "ticks": 11544,
          "time": 46.8506025,
          "velocity": 1
        },
        {
          "duration": 0.19480499999999523,
          "durationTicks": 48,
          "midi": 60,
          "name": "C4",
          "ticks": 11592,
          "time": 47.0454075,
          "velocity": 1
        },
        {
          "duration": 0.19480500000000234,
          "durationTicks": 48,
          "midi": 62,
          "name": "D4",
          "ticks": 11640,
          "time": 47.2402125,
          "velocity": 1
        },
        {
          "duration": 0.38960999999999757,
          "durationTicks": 96,
          "midi": 67,
          "name": "G4",
          "ticks": 11736,
          "time": 47.6298225,
          "velocity": 1
        },
        {
          "duration": 0.38960999999999757,
          "durationTicks": 96,
          "midi": 64,
          "name": "E4",
          "ticks": 11832,
          "time": 48.0194325,
          "velocity": 1
        },
        {
          "duration": 0.3896100000000047,
          "durationTicks": 96,
          "midi": 65,
          "name": "F4",
          "ticks": 11928,
          "time": 48.4090425,
          "velocity": 1
        },
        {
          "duration": 0.19480499999999523,
          "durationTicks": 48,
          "midi": 64,
          "name": "E4",
          "ticks": 12024,
          "time": 48.7986525,
          "velocity": 1
        },
        {
          "duration": 0.19480500000000234,
          "durationTicks": 48,
          "midi": 60,
          "name": "C4",
          "ticks": 12072,
          "time": 48.9934575,
          "velocity": 1
        },
        {
          "duration": 0.5844149999999999,
          "durationTicks": 144,
          "midi": 62,
          "name": "D4",
          "ticks": 12120,
          "time": 49.1882625,
          "velocity": 1
        },
        {
          "duration": 0.38960999999999757,
          "durationTicks": 96,
          "midi": 65,
          "name": "F4",
          "ticks": 12312,
          "time": 49.9674825,
          "velocity": 1
        },
        {
          "duration": 0.3896100000000047,
          "durationTicks": 96,
          "midi": 64,
          "name": "E4",
          "ticks": 12408,
          "time": 50.3570925,
          "velocity": 1
        },
        {
          "duration": 0.38960999999999757,
          "durationTicks": 96,
          "midi": 62,
          "name": "D4",
          "ticks": 12504,
          "time": 50.746702500000005,
          "velocity": 1
        },
        {
          "duration": 0.38960999999999757,
          "durationTicks": 96,
          "midi": 60,
          "name": "C4",
          "ticks": 12600,
          "time": 51.1363125,
          "velocity": 1
        },
        {
          "duration": 0.19480500000000234,
          "durationTicks": 48,
          "midi": 60,
          "name": "C4",
          "ticks": 12696,
          "time": 51.5259225,
          "velocity": 1
        },
        {
          "duration": 0.09740250000000117,
          "durationTicks": 24,
          "midi": 60,
          "name": "C4",
          "ticks": 12744,
          "time": 51.7207275,
          "velocity": 1
        },
        {
          "duration": 0.09740250000000117,
          "durationTicks": 24,
          "midi": 62,
          "name": "D4",
          "ticks": 12768,
          "time": 51.818130000000004,
          "velocity": 1
        },
        {
          "duration": 0.19480499999999523,
          "durationTicks": 48,
          "midi": 57,
          "name": "A3",
          "ticks": 12792,
          "time": 51.915532500000005,
          "velocity": 1
        },
        {
          "duration": 0.19480500000000234,
          "durationTicks": 48,
          "midi": 55,
          "name": "G3",
          "ticks": 12840,
          "time": 52.1103375,
          "velocity": 1
        },
        {
          "duration": 0.19480500000000234,
          "durationTicks": 48,
          "midi": 57,
          "name": "A3",
          "ticks": 12888,
          "time": 52.3051425,
          "velocity": 1
        },
        {
          "duration": 0.19480500000000234,
          "durationTicks": 48,
          "midi": 57,
          "name": "A3",
          "ticks": 12984,
          "time": 52.6947525,
          "velocity": 1
        },
        {
          "duration": 0.19480500000000234,
          "durationTicks": 48,
          "midi": 60,
          "name": "C4",
          "ticks": 13032,
          "time": 52.8895575,
          "velocity": 1
        },
        {
          "duration": 0.19480499999999523,
          "durationTicks": 48,
          "midi": 62,
          "name": "D4",
          "ticks": 13080,
          "time": 53.084362500000005,
          "velocity": 1
        },
        {
          "duration": 0.19480500000000234,
          "durationTicks": 48,
          "midi": 62,
          "name": "D4",
          "ticks": 13128,
          "time": 53.2791675,
          "velocity": 1
        },
        {
          "duration": 0.19480499999999523,
          "durationTicks": 48,
          "midi": 62,
          "name": "D4",
          "ticks": 13224,
          "time": 53.668777500000004,
          "velocity": 1
        },
        {
          "duration": 0.3896100000000047,
          "durationTicks": 96,
          "midi": 65,
          "name": "F4",
          "ticks": 13272,
          "time": 53.8635825,
          "velocity": 1
        },
        {
          "duration": 0.38960999999999757,
          "durationTicks": 96,
          "midi": 67,
          "name": "G4",
          "ticks": 13368,
          "time": 54.253192500000004,
          "velocity": 1
        },
        {
          "duration": 0.7792200000000022,
          "durationTicks": 192,
          "midi": 64,
          "name": "E4",
          "ticks": 13464,
          "time": 54.6428025,
          "velocity": 1
        },
        {
          "duration": 0.19480500000000234,
          "durationTicks": 48,
          "midi": 62,
          "name": "D4",
          "ticks": 13752,
          "time": 55.8116325,
          "velocity": 1
        },
        {
          "duration": 0.19480499999999523,
          "durationTicks": 48,
          "midi": 65,
          "name": "F4",
          "ticks": 13800,
          "time": 56.006437500000004,
          "velocity": 1
        },
        {
          "duration": 0.2922075000000035,
          "durationTicks": 72,
          "midi": 67,
          "name": "G4",
          "ticks": 13848,
          "time": 56.2012425,
          "velocity": 1
        },
        {
          "duration": 0.2922074999999964,
          "durationTicks": 72,
          "midi": 67,
          "name": "G4",
          "ticks": 13920,
          "time": 56.49345,
          "velocity": 1
        },
        {
          "duration": 0.19480500000000234,
          "durationTicks": 48,
          "midi": 69,
          "name": "A4",
          "ticks": 13992,
          "time": 56.7856575,
          "velocity": 1
        },
        {
          "duration": 0.38960999999999757,
          "durationTicks": 96,
          "midi": 69,
          "name": "A4",
          "ticks": 14040,
          "time": 56.9804625,
          "velocity": 1
        },
        {
          "duration": 0.19480500000000234,
          "durationTicks": 48,
          "midi": 69,
          "name": "A4",
          "ticks": 14184,
          "time": 57.5648775,
          "velocity": 1
        },
        {
          "duration": 0.19480499999999523,
          "durationTicks": 48,
          "midi": 72,
          "name": "C5",
          "ticks": 14232,
          "time": 57.759682500000004,
          "velocity": 1
        },
        {
          "duration": 0.19480500000000234,
          "durationTicks": 48,
          "midi": 74,
          "name": "D5",
          "ticks": 14280,
          "time": 57.9544875,
          "velocity": 1
        },
        {
          "duration": 0.19480500000000234,
          "durationTicks": 48,
          "midi": 67,
          "name": "G4",
          "ticks": 14328,
          "time": 58.1492925,
          "velocity": 1
        },
        {
          "duration": 0.19480499999999523,
          "durationTicks": 48,
          "midi": 65,
          "name": "F4",
          "ticks": 14376,
          "time": 58.344097500000004,
          "velocity": 1
        },
        {
          "duration": 0.19480500000000234,
          "durationTicks": 48,
          "midi": 69,
          "name": "A4",
          "ticks": 14424,
          "time": 58.5389025,
          "velocity": 1
        },
        {
          "duration": 0.19480499999999523,
          "durationTicks": 48,
          "midi": 62,
          "name": "D4",
          "ticks": 14520,
          "time": 58.928512500000004,
          "velocity": 1
        },
        {
          "duration": 0.19480500000000234,
          "durationTicks": 48,
          "midi": 65,
          "name": "F4",
          "ticks": 14568,
          "time": 59.1233175,
          "velocity": 1
        },
        {
          "duration": 0.2922075000000035,
          "durationTicks": 72,
          "midi": 67,
          "name": "G4",
          "ticks": 14616,
          "time": 59.3181225,
          "velocity": 1
        },
        {
          "duration": 0.2922074999999964,
          "durationTicks": 72,
          "midi": 67,
          "name": "G4",
          "ticks": 14688,
          "time": 59.610330000000005,
          "velocity": 1
        },
        {
          "duration": 0.19480500000000234,
          "durationTicks": 48,
          "midi": 69,
          "name": "A4",
          "ticks": 14760,
          "time": 59.9025375,
          "velocity": 1
        },
        {
          "duration": 0.38960999999999757,
          "durationTicks": 96,
          "midi": 69,
          "name": "A4",
          "ticks": 14808,
          "time": 60.0973425,
          "velocity": 1
        },
        {
          "duration": 0.19480499999999523,
          "durationTicks": 48,
          "midi": 69,
          "name": "A4",
          "ticks": 14952,
          "time": 60.6817575,
          "velocity": 1
        },
        {
          "duration": 0.19480500000000234,
          "durationTicks": 48,
          "midi": 70,
          "name": "A#4",
          "ticks": 15000,
          "time": 60.8765625,
          "velocity": 1
        },
        {
          "duration": 0.19480500000000234,
          "durationTicks": 48,
          "midi": 69,
          "name": "A4",
          "ticks": 15048,
          "time": 61.0713675,
          "velocity": 1
        },
        {
          "duration": 0.19480499999999523,
          "durationTicks": 48,
          "midi": 67,
          "name": "G4",
          "ticks": 15096,
          "time": 61.2661725,
          "velocity": 1
        },
        {
          "duration": 0.19480500000000234,
          "durationTicks": 48,
          "midi": 65,
          "name": "F4",
          "ticks": 15144,
          "time": 61.4609775,
          "velocity": 1
        },
        {
          "duration": 0.19480500000000234,
          "durationTicks": 48,
          "midi": 65,
          "name": "F4",
          "ticks": 15192,
          "time": 61.6557825,
          "velocity": 1
        },
        {
          "duration": 0.19480500000000234,
          "durationTicks": 48,
          "midi": 62,
          "name": "D4",
          "ticks": 15288,
          "time": 62.0453925,
          "velocity": 1
        },
        {
          "duration": 0.19480500000000234,
          "durationTicks": 48,
          "midi": 65,
          "name": "F4",
          "ticks": 15336,
          "time": 62.2401975,
          "velocity": 1
        },
        {
          "duration": 0.2922074999999964,
          "durationTicks": 72,
          "midi": 67,
          "name": "G4",
          "ticks": 15384,
          "time": 62.4350025,
          "velocity": 1
        },
        {
          "duration": 0.2922075000000035,
          "durationTicks": 72,
          "midi": 67,
          "name": "G4",
          "ticks": 15456,
          "time": 62.72721,
          "velocity": 1
        },
        {
          "duration": 0.19480500000000234,
          "durationTicks": 48,
          "midi": 69,
          "name": "A4",
          "ticks": 15528,
          "time": 63.0194175,
          "velocity": 1
        },
        {
          "duration": 0.38960999999999757,
          "durationTicks": 96,
          "midi": 69,
          "name": "A4",
          "ticks": 15576,
          "time": 63.214222500000005,
          "velocity": 1
        },
        {
          "duration": 0.19480499999999523,
          "durationTicks": 48,
          "midi": 69,
          "name": "A4",
          "ticks": 15720,
          "time": 63.798637500000005,
          "velocity": 1
        },
        {
          "duration": 0.19480500000000234,
          "durationTicks": 48,
          "midi": 72,
          "name": "C5",
          "ticks": 15768,
          "time": 63.9934425,
          "velocity": 1
        },
        {
          "duration": 0.19480500000000234,
          "durationTicks": 48,
          "midi": 74,
          "name": "D5",
          "ticks": 15816,
          "time": 64.1882475,
          "velocity": 1
        },
        {
          "duration": 0.19480500000000234,
          "durationTicks": 48,
          "midi": 67,
          "name": "G4",
          "ticks": 15864,
          "time": 64.3830525,
          "velocity": 1
        },
        {
          "duration": 0.19480499999998813,
          "durationTicks": 48,
          "midi": 65,
          "name": "F4",
          "ticks": 15912,
          "time": 64.57785750000001,
          "velocity": 1
        },
        {
          "duration": 0.19480500000000234,
          "durationTicks": 48,
          "midi": 69,
          "name": "A4",
          "ticks": 15960,
          "time": 64.7726625,
          "velocity": 1
        },
        {
          "duration": 0.19480500000000234,
          "durationTicks": 48,
          "midi": 62,
          "name": "D4",
          "ticks": 16056,
          "time": 65.1622725,
          "velocity": 1
        },
        {
          "duration": 0.19480500000000234,
          "durationTicks": 48,
          "midi": 65,
          "name": "F4",
          "ticks": 16104,
          "time": 65.3570775,
          "velocity": 1
        },
        {
          "duration": 0.38960999999999046,
          "durationTicks": 96,
          "midi": 70,
          "name": "A#4",
          "ticks": 16152,
          "time": 65.5518825,
          "velocity": 1
        },
        {
          "duration": 0.3896100000000047,
          "durationTicks": 96,
          "midi": 69,
          "name": "A4",
          "ticks": 16248,
          "time": 65.9414925,
          "velocity": 1
        },
        {
          "duration": 0.3896100000000047,
          "durationTicks": 96,
          "midi": 67,
          "name": "G4",
          "ticks": 16344,
          "time": 66.3311025,
          "velocity": 1
        },
        {
          "duration": 0.38960999999999046,
          "durationTicks": 96,
          "midi": 65,
          "name": "F4",
          "ticks": 16440,
          "time": 66.7207125,
          "velocity": 1
        },
        {
          "duration": 0.19480500000000234,
          "durationTicks": 48,
          "midi": 67,
          "name": "G4",
          "ticks": 16536,
          "time": 67.1103225,
          "velocity": 1
        },
        {
          "duration": 0.19480500000000234,
          "durationTicks": 48,
          "midi": 69,
          "name": "A4",
          "ticks": 16584,
          "time": 67.3051275,
          "velocity": 1
        },
        {
          "duration": 0.19480500000000234,
          "durationTicks": 48,
          "midi": 62,
          "name": "D4",
          "ticks": 16632,
          "time": 67.4999325,
          "velocity": 1
        },
        {
          "duration": 0.19480500000000234,
          "durationTicks": 48,
          "midi": 60,
          "name": "C4",
          "ticks": 16680,
          "time": 67.6947375,
          "velocity": 1
        },
        {
          "duration": 0.19480500000000234,
          "durationTicks": 48,
          "midi": 62,
          "name": "D4",
          "ticks": 16728,
          "time": 67.8895425,
          "velocity": 1
        },
        {
          "duration": 0.19480500000000234,
          "durationTicks": 48,
          "midi": 62,
          "name": "D4",
          "ticks": 16824,
          "time": 68.2791525,
          "velocity": 1
        },
        {
          "duration": 0.19480500000000234,
          "durationTicks": 48,
          "midi": 65,
          "name": "F4",
          "ticks": 16872,
          "time": 68.4739575,
          "velocity": 1
        },
        {
          "duration": 0.2922075000000035,
          "durationTicks": 72,
          "midi": 67,
          "name": "G4",
          "ticks": 16920,
          "time": 68.6687625,
          "velocity": 1
        },
        {
          "duration": 0.2922075000000035,
          "durationTicks": 72,
          "midi": 67,
          "name": "G4",
          "ticks": 16992,
          "time": 68.96097,
          "velocity": 1
        },
        {
          "duration": 0.19480500000000234,
          "durationTicks": 48,
          "midi": 69,
          "name": "A4",
          "ticks": 17064,
          "time": 69.2531775,
          "velocity": 1
        },
        {
          "duration": 0.38960999999999046,
          "durationTicks": 96,
          "midi": 69,
          "name": "A4",
          "ticks": 17112,
          "time": 69.44798250000001,
          "velocity": 1
        },
        {
          "duration": 0.19480500000000234,
          "durationTicks": 48,
          "midi": 69,
          "name": "A4",
          "ticks": 17256,
          "time": 70.0323975,
          "velocity": 1
        },
        {
          "duration": 0.19480500000000234,
          "durationTicks": 48,
          "midi": 72,
          "name": "C5",
          "ticks": 17304,
          "time": 70.2272025,
          "velocity": 1
        },
        {
          "duration": 0.19480500000000234,
          "durationTicks": 48,
          "midi": 74,
          "name": "D5",
          "ticks": 17352,
          "time": 70.4220075,
          "velocity": 1
        },
        {
          "duration": 0.19480499999998813,
          "durationTicks": 48,
          "midi": 67,
          "name": "G4",
          "ticks": 17400,
          "time": 70.61681250000001,
          "velocity": 1
        },
        {
          "duration": 0.19480500000000234,
          "durationTicks": 48,
          "midi": 65,
          "name": "F4",
          "ticks": 17448,
          "time": 70.8116175,
          "velocity": 1
        },
        {
          "duration": 0.3896100000000047,
          "durationTicks": 96,
          "midi": 69,
          "name": "A4",
          "ticks": 17496,
          "time": 71.0064225,
          "velocity": 1
        },
        {
          "duration": 0.19480500000000234,
          "durationTicks": 48,
          "midi": 62,
          "name": "D4",
          "ticks": 17592,
          "time": 71.3960325,
          "velocity": 1
        },
        {
          "duration": 0.19480500000000234,
          "durationTicks": 48,
          "midi": 65,
          "name": "F4",
          "ticks": 17640,
          "time": 71.5908375,
          "velocity": 1
        },
        {
          "duration": 0.2922074999999893,
          "durationTicks": 72,
          "midi": 67,
          "name": "G4",
          "ticks": 17688,
          "time": 71.78564250000001,
          "velocity": 1
        },
        {
          "duration": 0.2922075000000035,
          "durationTicks": 72,
          "midi": 67,
          "name": "G4",
          "ticks": 17760,
          "time": 72.07785,
          "velocity": 1
        },
        {
          "duration": 0.19480500000000234,
          "durationTicks": 48,
          "midi": 69,
          "name": "A4",
          "ticks": 17832,
          "time": 72.3700575,
          "velocity": 1
        },
        {
          "duration": 0.3896100000000047,
          "durationTicks": 96,
          "midi": 69,
          "name": "A4",
          "ticks": 17880,
          "time": 72.5648625,
          "velocity": 1
        },
        {
          "duration": 0.19480500000000234,
          "durationTicks": 48,
          "midi": 69,
          "name": "A4",
          "ticks": 18024,
          "time": 73.1492775,
          "velocity": 1
        },
        {
          "duration": 0.19480500000000234,
          "durationTicks": 48,
          "midi": 70,
          "name": "A#4",
          "ticks": 18072,
          "time": 73.3440825,
          "velocity": 1
        },
        {
          "duration": 0.19480500000000234,
          "durationTicks": 48,
          "midi": 69,
          "name": "A4",
          "ticks": 18120,
          "time": 73.5388875,
          "velocity": 1
        },
        {
          "duration": 0.19480500000000234,
          "durationTicks": 48,
          "midi": 67,
          "name": "G4",
          "ticks": 18168,
          "time": 73.7336925,
          "velocity": 1
        },
        {
          "duration": 0.19480500000000234,
          "durationTicks": 48,
          "midi": 65,
          "name": "F4",
          "ticks": 18216,
          "time": 73.9284975,
          "velocity": 1
        },
        {
          "duration": 0.19480499999998813,
          "durationTicks": 48,
          "midi": 65,
          "name": "F4",
          "ticks": 18264,
          "time": 74.12330250000001,
          "velocity": 1
        },
        {
          "duration": 0.19480500000000234,
          "durationTicks": 48,
          "midi": 62,
          "name": "D4",
          "ticks": 18360,
          "time": 74.5129125,
          "velocity": 1
        },
        {
          "duration": 0.19480500000000234,
          "durationTicks": 48,
          "midi": 65,
          "name": "F4",
          "ticks": 18408,
          "time": 74.7077175,
          "velocity": 1
        },
        {
          "duration": 0.2922075000000035,
          "durationTicks": 72,
          "midi": 67,
          "name": "G4",
          "ticks": 18456,
          "time": 74.9025225,
          "velocity": 1
        },
        {
          "duration": 0.2922074999999893,
          "durationTicks": 72,
          "midi": 67,
          "name": "G4",
          "ticks": 18528,
          "time": 75.19473,
          "velocity": 1
        },
        {
          "duration": 0.19480500000000234,
          "durationTicks": 48,
          "midi": 69,
          "name": "A4",
          "ticks": 18600,
          "time": 75.4869375,
          "velocity": 1
        },
        {
          "duration": 0.3896100000000047,
          "durationTicks": 96,
          "midi": 69,
          "name": "A4",
          "ticks": 18648,
          "time": 75.6817425,
          "velocity": 1
        },
        {
          "duration": 0.19480500000000234,
          "durationTicks": 48,
          "midi": 69,
          "name": "A4",
          "ticks": 18792,
          "time": 76.2661575,
          "velocity": 1
        },
        {
          "duration": 0.19480499999998813,
          "durationTicks": 48,
          "midi": 72,
          "name": "C5",
          "ticks": 18840,
          "time": 76.46096250000001,
          "velocity": 1
        },
        {
          "duration": 0.19480500000000234,
          "durationTicks": 48,
          "midi": 74,
          "name": "D5",
          "ticks": 18888,
          "time": 76.6557675,
          "velocity": 1
        },
        {
          "duration": 0.19480500000000234,
          "durationTicks": 48,
          "midi": 67,
          "name": "G4",
          "ticks": 18936,
          "time": 76.8505725,
          "velocity": 1
        },
        {
          "duration": 0.19480500000000234,
          "durationTicks": 48,
          "midi": 65,
          "name": "F4",
          "ticks": 18984,
          "time": 77.0453775,
          "velocity": 1
        },
        {
          "duration": 0.19480500000000234,
          "durationTicks": 48,
          "midi": 69,
          "name": "A4",
          "ticks": 19032,
          "time": 77.2401825,
          "velocity": 1
        },
        {
          "duration": 0.19480499999998813,
          "durationTicks": 48,
          "midi": 62,
          "name": "D4",
          "ticks": 19128,
          "time": 77.62979250000001,
          "velocity": 1
        },
        {
          "duration": 0.19480500000000234,
          "durationTicks": 48,
          "midi": 65,
          "name": "F4",
          "ticks": 19176,
          "time": 77.8245975,
          "velocity": 1
        },
        {
          "duration": 0.3896100000000047,
          "durationTicks": 96,
          "midi": 70,
          "name": "A#4",
          "ticks": 19224,
          "time": 78.0194025,
          "velocity": 1
        },
        {
          "duration": 0.3896100000000047,
          "durationTicks": 96,
          "midi": 69,
          "name": "A4",
          "ticks": 19320,
          "time": 78.4090125,
          "velocity": 1
        },
        {
          "duration": 0.38960999999999046,
          "durationTicks": 96,
          "midi": 67,
          "name": "G4",
          "ticks": 19416,
          "time": 78.79862250000001,
          "velocity": 1
        },
        {
          "duration": 0.3896100000000047,
          "durationTicks": 96,
          "midi": 65,
          "name": "F4",
          "ticks": 19512,
          "time": 79.1882325,
          "velocity": 1
        },
        {
          "duration": 0.19480500000000234,
          "durationTicks": 48,
          "midi": 67,
          "name": "G4",
          "ticks": 19608,
          "time": 79.5778425,
          "velocity": 1
        },
        {
          "duration": 0.19480500000000234,
          "durationTicks": 48,
          "midi": 65,
          "name": "F4",
          "ticks": 19656,
          "time": 79.7726475,
          "velocity": 1
        },
        {
          "duration": 0.19480499999998813,
          "durationTicks": 48,
          "midi": 69,
          "name": "A4",
          "ticks": 19704,
          "time": 79.96745250000001,
          "velocity": 1
        },
        {
          "duration": 0.19480500000000234,
          "durationTicks": 48,
          "midi": 72,
          "name": "C5",
          "ticks": 19752,
          "time": 80.1622575,
          "velocity": 1
        },
        {
          "duration": 0.3896100000000047,
          "durationTicks": 96,
          "midi": 74,
          "name": "D5",
          "ticks": 19800,
          "time": 80.3570625,
          "velocity": 1
        },
        {
          "duration": 0.19480500000000234,
          "durationTicks": 48,
          "midi": 62,
          "name": "D4",
          "ticks": 23064,
          "time": 93.6038025,
          "velocity": 1
        },
        {
          "duration": 0.09740250000000117,
          "durationTicks": 24,
          "midi": 60,
          "name": "C4",
          "ticks": 23136,
          "time": 93.89601,
          "velocity": 1
        },
        {
          "duration": 0.2922075000000035,
          "durationTicks": 72,
          "midi": 62,
          "name": "D4",
          "ticks": 23160,
          "time": 93.9934125,
          "velocity": 1
        },
        {
          "duration": 0.09740250000000117,
          "durationTicks": 24,
          "midi": 60,
          "name": "C4",
          "ticks": 23232,
          "time": 94.28562000000001,
          "velocity": 1
        },
        {
          "duration": 0.19480499999998813,
          "durationTicks": 48,
          "midi": 62,
          "name": "D4",
          "ticks": 23256,
          "time": 94.38302250000001,
          "velocity": 1
        },
        {
          "duration": 0.19480500000000234,
          "durationTicks": 48,
          "midi": 65,
          "name": "F4",
          "ticks": 23304,
          "time": 94.5778275,
          "velocity": 1
        },
        {
          "duration": 0.19480500000000234,
          "durationTicks": 48,
          "midi": 65,
          "name": "F4",
          "ticks": 23352,
          "time": 94.7726325,
          "velocity": 1
        },
        {
          "duration": 0.19480500000000234,
          "durationTicks": 48,
          "midi": 67,
          "name": "G4",
          "ticks": 23400,
          "time": 94.9674375,
          "velocity": 1
        },
        {
          "duration": 0.19480500000000234,
          "durationTicks": 48,
          "midi": 62,
          "name": "D4",
          "ticks": 23448,
          "time": 95.1622425,
          "velocity": 1
        },
        {
          "duration": 0.09740250000000117,
          "durationTicks": 24,
          "midi": 60,
          "name": "C4",
          "ticks": 23520,
          "time": 95.45445000000001,
          "velocity": 1
        },
        {
          "duration": 0.2922074999999893,
          "durationTicks": 72,
          "midi": 62,
          "name": "D4",
          "ticks": 23544,
          "time": 95.55185250000001,
          "velocity": 1
        },
        {
          "duration": 0.09740250000000117,
          "durationTicks": 24,
          "midi": 60,
          "name": "C4",
          "ticks": 23616,
          "time": 95.84406,
          "velocity": 1
        },
        {
          "duration": 0.19480500000000234,
          "durationTicks": 48,
          "midi": 62,
          "name": "D4",
          "ticks": 23640,
          "time": 95.9414625,
          "velocity": 1
        },
        {
          "duration": 0.19480500000000234,
          "durationTicks": 48,
          "midi": 60,
          "name": "C4",
          "ticks": 23688,
          "time": 96.1362675,
          "velocity": 1
        },
        {
          "duration": 0.19480500000000234,
          "durationTicks": 48,
          "midi": 57,
          "name": "A3",
          "ticks": 23736,
          "time": 96.3310725,
          "velocity": 1
        },
        {
          "duration": 0.19480500000000234,
          "durationTicks": 48,
          "midi": 60,
          "name": "C4",
          "ticks": 23784,
          "time": 96.5258775,
          "velocity": 1
        },
        {
          "duration": 0.19480499999998813,
          "durationTicks": 48,
          "midi": 62,
          "name": "D4",
          "ticks": 23832,
          "time": 96.72068250000001,
          "velocity": 1
        },
        {
          "duration": 0.2922075000000035,
          "durationTicks": 72,
          "midi": 62,
          "name": "D4",
          "ticks": 23928,
          "time": 97.1102925,
          "velocity": 1
        },
        {
          "duration": 0.09740250000000117,
          "durationTicks": 24,
          "midi": 60,
          "name": "C4",
          "ticks": 24000,
          "time": 97.4025,
          "velocity": 1
        },
        {
          "duration": 0.19480500000000234,
          "durationTicks": 48,
          "midi": 62,
          "name": "D4",
          "ticks": 24024,
          "time": 97.4999025,
          "velocity": 1
        },
        {
          "duration": 0.19480500000000234,
          "durationTicks": 48,
          "midi": 65,
          "name": "F4",
          "ticks": 24072,
          "time": 97.6947075,
          "velocity": 1
        },
        {
          "duration": 0.19480499999998813,
          "durationTicks": 48,
          "midi": 67,
          "name": "G4",
          "ticks": 24120,
          "time": 97.88951250000001,
          "velocity": 1
        },
        {
          "duration": 0.584415000000007,
          "durationTicks": 144,
          "midi": 69,
          "name": "A4",
          "ticks": 24168,
          "time": 98.0843175,
          "velocity": 1
        },
        {
          "duration": 0.09740250000000117,
          "durationTicks": 24,
          "midi": 67,
          "name": "G4",
          "ticks": 24312,
          "time": 98.6687325,
          "velocity": 1
        },
        {
          "duration": 0.2922075000000035,
          "durationTicks": 72,
          "midi": 69,
          "name": "A4",
          "ticks": 24336,
          "time": 98.766135,
          "velocity": 1
        },
        {
          "duration": 0.38960999999999046,
          "durationTicks": 96,
          "midi": 65,
          "name": "F4",
          "ticks": 24408,
          "time": 99.05834250000001,
          "velocity": 1
        },
        {
          "duration": 0.3896100000000047,
          "durationTicks": 96,
          "midi": 62,
          "name": "D4",
          "ticks": 24504,
          "time": 99.4479525,
          "velocity": 1
        },
        {
          "duration": 0.19480500000000234,
          "durationTicks": 48,
          "midi": 62,
          "name": "D4",
          "ticks": 24600,
          "time": 99.8375625,
          "velocity": 1
        },
        {
          "duration": 0.09740250000000117,
          "durationTicks": 24,
          "midi": 60,
          "name": "C4",
          "ticks": 24672,
          "time": 100.12977000000001,
          "velocity": 1
        },
        {
          "duration": 0.2922074999999893,
          "durationTicks": 72,
          "midi": 62,
          "name": "D4",
          "ticks": 24696,
          "time": 100.22717250000001,
          "velocity": 1
        },
        {
          "duration": 0.09740250000000117,
          "durationTicks": 24,
          "midi": 60,
          "name": "C4",
          "ticks": 24768,
          "time": 100.51938,
          "velocity": 1
        },
        {
          "duration": 0.19480500000000234,
          "durationTicks": 48,
          "midi": 62,
          "name": "D4",
          "ticks": 24792,
          "time": 100.6167825,
          "velocity": 1
        },
        {
          "duration": 0.19480500000000234,
          "durationTicks": 48,
          "midi": 65,
          "name": "F4",
          "ticks": 24840,
          "time": 100.8115875,
          "velocity": 1
        },
        {
          "duration": 0.19480500000000234,
          "durationTicks": 48,
          "midi": 65,
          "name": "F4",
          "ticks": 24888,
          "time": 101.0063925,
          "velocity": 1
        },
        {
          "duration": 0.19480500000000234,
          "durationTicks": 48,
          "midi": 67,
          "name": "G4",
          "ticks": 24936,
          "time": 101.2011975,
          "velocity": 1
        },
        {
          "duration": 0.38960999999999046,
          "durationTicks": 96,
          "midi": 62,
          "name": "D4",
          "ticks": 24984,
          "time": 101.39600250000001,
          "velocity": 1
        },
        {
          "duration": 0.2922075000000035,
          "durationTicks": 72,
          "midi": 62,
          "name": "D4",
          "ticks": 25080,
          "time": 101.7856125,
          "velocity": 1
        },
        {
          "duration": 0.09740250000000117,
          "durationTicks": 24,
          "midi": 60,
          "name": "C4",
          "ticks": 25152,
          "time": 102.07782,
          "velocity": 1
        },
        {
          "duration": 0.19480500000000234,
          "durationTicks": 48,
          "midi": 62,
          "name": "D4",
          "ticks": 25176,
          "time": 102.1752225,
          "velocity": 1
        },
        {
          "duration": 0.19480500000000234,
          "durationTicks": 48,
          "midi": 60,
          "name": "C4",
          "ticks": 25224,
          "time": 102.3700275,
          "velocity": 1
        },
        {
          "duration": 0.19480499999998813,
          "durationTicks": 48,
          "midi": 60,
          "name": "C4",
          "ticks": 25272,
          "time": 102.56483250000001,
          "velocity": 1
        },
        {
          "duration": 0.19480500000000234,
          "durationTicks": 48,
          "midi": 57,
          "name": "A3",
          "ticks": 25320,
          "time": 102.7596375,
          "velocity": 1
        },
        {
          "duration": 0.3896100000000047,
          "durationTicks": 96,
          "midi": 62,
          "name": "D4",
          "ticks": 25368,
          "time": 102.9544425,
          "velocity": 1
        },
        {
          "duration": 0.19480500000000234,
          "durationTicks": 48,
          "midi": 62,
          "name": "D4",
          "ticks": 25464,
          "time": 103.3440525,
          "velocity": 1
        },
        {
          "duration": 0.09740250000000117,
          "durationTicks": 24,
          "midi": 60,
          "name": "C4",
          "ticks": 25536,
          "time": 103.63626000000001,
          "velocity": 1
        },
        {
          "duration": 0.19480499999998813,
          "durationTicks": 48,
          "midi": 60,
          "name": "C4",
          "ticks": 25560,
          "time": 103.73366250000001,
          "velocity": 1
        },
        {
          "duration": 0.19480500000000234,
          "durationTicks": 48,
          "midi": 62,
          "name": "D4",
          "ticks": 25608,
          "time": 103.9284675,
          "velocity": 1
        },
        {
          "duration": 0.19480500000000234,
          "durationTicks": 48,
          "midi": 65,
          "name": "F4",
          "ticks": 25656,
          "time": 104.1232725,
          "velocity": 1
        },
        {
          "duration": 0.19480500000000234,
          "durationTicks": 48,
          "midi": 67,
          "name": "G4",
          "ticks": 25704,
          "time": 104.3180775,
          "velocity": 1
        },
        {
          "duration": 0.3896100000000047,
          "durationTicks": 96,
          "midi": 69,
          "name": "A4",
          "ticks": 25752,
          "time": 104.5128825,
          "velocity": 1
        },
        {
          "duration": 0.09740250000000117,
          "durationTicks": 24,
          "midi": 67,
          "name": "G4",
          "ticks": 25848,
          "time": 104.90249250000001,
          "velocity": 1
        },
        {
          "duration": 0.2922074999999893,
          "durationTicks": 72,
          "midi": 69,
          "name": "A4",
          "ticks": 25872,
          "time": 104.99989500000001,
          "velocity": 1
        },
        {
          "duration": 0.3896100000000047,
          "durationTicks": 96,
          "midi": 65,
          "name": "F4",
          "ticks": 25944,
          "time": 105.2921025,
          "velocity": 1
        },
        {
          "duration": 0.3896100000000047,
          "durationTicks": 96,
          "midi": 62,
          "name": "D4",
          "ticks": 26040,
          "time": 105.6817125,
          "velocity": 1
        },
        {
          "duration": 0.38960999999999046,
          "durationTicks": 96,
          "midi": 65,
          "name": "F4",
          "ticks": 26136,
          "time": 106.07132250000001,
          "velocity": 1
        },
        {
          "duration": 0.3896100000000047,
          "durationTicks": 96,
          "midi": 64,
          "name": "E4",
          "ticks": 26232,
          "time": 106.4609325,
          "velocity": 1
        },
        {
          "duration": 0.3896100000000047,
          "durationTicks": 96,
          "midi": 62,
          "name": "D4",
          "ticks": 26328,
          "time": 106.8505425,
          "velocity": 1
        },
        {
          "duration": 0.19480500000000234,
          "durationTicks": 48,
          "midi": 60,
          "name": "C4",
          "ticks": 26424,
          "time": 107.24015250000001,
          "velocity": 1
        },
        {
          "duration": 0.09740250000000117,
          "durationTicks": 24,
          "midi": 60,
          "name": "C4",
          "ticks": 26520,
          "time": 107.6297625,
          "velocity": 1
        },
        {
          "duration": 0.09740250000000117,
          "durationTicks": 24,
          "midi": 60,
          "name": "C4",
          "ticks": 26568,
          "time": 107.8245675,
          "velocity": 1
        },
        {
          "duration": 0.09740250000000117,
          "durationTicks": 24,
          "midi": 62,
          "name": "D4",
          "ticks": 26592,
          "time": 107.92197,
          "velocity": 1
        },
        {
          "duration": 0.19480500000000234,
          "durationTicks": 48,
          "midi": 57,
          "name": "A3",
          "ticks": 26616,
          "time": 108.0193725,
          "velocity": 1
        },
        {
          "duration": 0.19480500000000234,
          "durationTicks": 48,
          "midi": 55,
          "name": "G3",
          "ticks": 26664,
          "time": 108.2141775,
          "velocity": 1
        },
        {
          "duration": 0.38960999999999046,
          "durationTicks": 96,
          "midi": 57,
          "name": "A3",
          "ticks": 26712,
          "time": 108.40898250000001,
          "velocity": 1
        },
        {
          "duration": 0.19480500000000234,
          "durationTicks": 48,
          "midi": 57,
          "name": "A3",
          "ticks": 26904,
          "time": 109.1882025,
          "velocity": 1
        },
        {
          "duration": 0.19480500000000234,
          "durationTicks": 48,
          "midi": 60,
          "name": "C4",
          "ticks": 26952,
          "time": 109.3830075,
          "velocity": 1
        },
        {
          "duration": 0.19480500000000234,
          "durationTicks": 48,
          "midi": 62,
          "name": "D4",
          "ticks": 27000,
          "time": 109.57781250000001,
          "velocity": 1
        },
        {
          "duration": 0.19480499999998813,
          "durationTicks": 48,
          "midi": 62,
          "name": "D4",
          "ticks": 27048,
          "time": 109.77261750000001,
          "velocity": 1
        },
        {
          "duration": 0.3896100000000047,
          "durationTicks": 96,
          "midi": 67,
          "name": "G4",
          "ticks": 27096,
          "time": 109.9674225,
          "velocity": 1
        },
        {
          "duration": 0.3896100000000047,
          "durationTicks": 96,
          "midi": 64,
          "name": "E4",
          "ticks": 27192,
          "time": 110.3570325,
          "velocity": 1
        },
        {
          "duration": 0.19480500000000234,
          "durationTicks": 48,
          "midi": 65,
          "name": "F4",
          "ticks": 27288,
          "time": 110.74664250000001,
          "velocity": 1
        },
        {
          "duration": 0.19480499999998813,
          "durationTicks": 48,
          "midi": 65,
          "name": "F4",
          "ticks": 27336,
          "time": 110.94144750000001,
          "velocity": 1
        },
        {
          "duration": 0.19480500000000234,
          "durationTicks": 48,
          "midi": 64,
          "name": "E4",
          "ticks": 27384,
          "time": 111.1362525,
          "velocity": 1
        },
        {
          "duration": 0.19480500000000234,
          "durationTicks": 48,
          "midi": 60,
          "name": "C4",
          "ticks": 27432,
          "time": 111.3310575,
          "velocity": 1
        },
        {
          "duration": 0.584415000000007,
          "durationTicks": 144,
          "midi": 62,
          "name": "D4",
          "ticks": 27480,
          "time": 111.5258625,
          "velocity": 1
        },
        {
          "duration": 0.3896100000000047,
          "durationTicks": 96,
          "midi": 65,
          "name": "F4",
          "ticks": 27672,
          "time": 112.3050825,
          "velocity": 1
        },
        {
          "duration": 0.3896100000000047,
          "durationTicks": 96,
          "midi": 64,
          "name": "E4",
          "ticks": 27768,
          "time": 112.6946925,
          "velocity": 1
        },
        {
          "duration": 0.38960999999999046,
          "durationTicks": 96,
          "midi": 62,
          "name": "D4",
          "ticks": 27864,
          "time": 113.0843025,
          "velocity": 1
        },
        {
          "duration": 0.19480500000000234,
          "durationTicks": 48,
          "midi": 60,
          "name": "C4",
          "ticks": 27960,
          "time": 113.4739125,
          "velocity": 1
        },
        {
          "duration": 0.19480500000000234,
          "durationTicks": 48,
          "midi": 60,
          "name": "C4",
          "ticks": 28008,
          "time": 113.6687175,
          "velocity": 1
        },
        {
          "duration": 0.19480500000000234,
          "durationTicks": 48,
          "midi": 60,
          "name": "C4",
          "ticks": 28056,
          "time": 113.8635225,
          "velocity": 1
        },
        {
          "duration": 0.19480500000000234,
          "durationTicks": 48,
          "midi": 62,
          "name": "D4",
          "ticks": 28104,
          "time": 114.0583275,
          "velocity": 1
        },
        {
          "duration": 0.19480500000000234,
          "durationTicks": 48,
          "midi": 57,
          "name": "A3",
          "ticks": 28152,
          "time": 114.2531325,
          "velocity": 1
        },
        {
          "duration": 0.19480499999998813,
          "durationTicks": 48,
          "midi": 55,
          "name": "G3",
          "ticks": 28200,
          "time": 114.44793750000001,
          "velocity": 1
        },
        {
          "duration": 0.19480500000000234,
          "durationTicks": 48,
          "midi": 57,
          "name": "A3",
          "ticks": 28248,
          "time": 114.6427425,
          "velocity": 1
        },
        {
          "duration": 0.19480500000000234,
          "durationTicks": 48,
          "midi": 57,
          "name": "A3",
          "ticks": 28344,
          "time": 115.0323525,
          "velocity": 1
        },
        {
          "duration": 0.19480500000000234,
          "durationTicks": 48,
          "midi": 60,
          "name": "C4",
          "ticks": 28392,
          "time": 115.2271575,
          "velocity": 1
        },
        {
          "duration": 0.19480500000000234,
          "durationTicks": 48,
          "midi": 62,
          "name": "D4",
          "ticks": 28440,
          "time": 115.4219625,
          "velocity": 1
        },
        {
          "duration": 0.19480499999998813,
          "durationTicks": 48,
          "midi": 62,
          "name": "D4",
          "ticks": 28488,
          "time": 115.61676750000001,
          "velocity": 1
        },
        {
          "duration": 0.19480500000000234,
          "durationTicks": 48,
          "midi": 62,
          "name": "D4",
          "ticks": 28584,
          "time": 116.0063775,
          "velocity": 1
        },
        {
          "duration": 0.3896100000000047,
          "durationTicks": 96,
          "midi": 65,
          "name": "F4",
          "ticks": 28632,
          "time": 116.2011825,
          "velocity": 1
        },
        {
          "duration": 0.38960999999999046,
          "durationTicks": 96,
          "midi": 67,
          "name": "G4",
          "ticks": 28728,
          "time": 116.5907925,
          "velocity": 1
        },
        {
          "duration": 0.7792200000000093,
          "durationTicks": 192,
          "midi": 64,
          "name": "E4",
          "ticks": 28824,
          "time": 116.9804025,
          "velocity": 1
        },
        {
          "duration": 0.19480500000000234,
          "durationTicks": 48,
          "midi": 62,
          "name": "D4",
          "ticks": 29112,
          "time": 118.1492325,
          "velocity": 1
        },
        {
          "duration": 0.19480500000000234,
          "durationTicks": 48,
          "midi": 65,
          "name": "F4",
          "ticks": 29160,
          "time": 118.3440375,
          "velocity": 1
        },
        {
          "duration": 0.2922075000000035,
          "durationTicks": 72,
          "midi": 67,
          "name": "G4",
          "ticks": 29208,
          "time": 118.5388425,
          "velocity": 1
        },
        {
          "duration": 0.2922075000000035,
          "durationTicks": 72,
          "midi": 67,
          "name": "G4",
          "ticks": 29280,
          "time": 118.83105,
          "velocity": 1
        },
        {
          "duration": 0.19480500000000234,
          "durationTicks": 48,
          "midi": 69,
          "name": "A4",
          "ticks": 29352,
          "time": 119.12325750000001,
          "velocity": 1
        },
        {
          "duration": 0.38960999999999046,
          "durationTicks": 96,
          "midi": 69,
          "name": "A4",
          "ticks": 29400,
          "time": 119.31806250000001,
          "velocity": 1
        },
        {
          "duration": 0.19480500000000234,
          "durationTicks": 48,
          "midi": 69,
          "name": "A4",
          "ticks": 29544,
          "time": 119.9024775,
          "velocity": 1
        },
        {
          "duration": 0.19480500000000234,
          "durationTicks": 48,
          "midi": 72,
          "name": "C5",
          "ticks": 29592,
          "time": 120.0972825,
          "velocity": 1
        },
        {
          "duration": 0.19480500000000234,
          "durationTicks": 48,
          "midi": 74,
          "name": "D5",
          "ticks": 29640,
          "time": 120.29208750000001,
          "velocity": 1
        },
        {
          "duration": 0.19480499999998813,
          "durationTicks": 48,
          "midi": 67,
          "name": "G4",
          "ticks": 29688,
          "time": 120.48689250000001,
          "velocity": 1
        },
        {
          "duration": 0.19480500000000234,
          "durationTicks": 48,
          "midi": 65,
          "name": "F4",
          "ticks": 29736,
          "time": 120.6816975,
          "velocity": 1
        },
        {
          "duration": 0.19480500000000234,
          "durationTicks": 48,
          "midi": 69,
          "name": "A4",
          "ticks": 29784,
          "time": 120.8765025,
          "velocity": 1
        },
        {
          "duration": 0.19480500000000234,
          "durationTicks": 48,
          "midi": 62,
          "name": "D4",
          "ticks": 29880,
          "time": 121.2661125,
          "velocity": 1
        },
        {
          "duration": 0.19480500000000234,
          "durationTicks": 48,
          "midi": 65,
          "name": "F4",
          "ticks": 29928,
          "time": 121.46091750000001,
          "velocity": 1
        },
        {
          "duration": 0.2922074999999893,
          "durationTicks": 72,
          "midi": 67,
          "name": "G4",
          "ticks": 29976,
          "time": 121.65572250000001,
          "velocity": 1
        },
        {
          "duration": 0.2922075000000035,
          "durationTicks": 72,
          "midi": 67,
          "name": "G4",
          "ticks": 30048,
          "time": 121.94793,
          "velocity": 1
        },
        {
          "duration": 0.19480500000000234,
          "durationTicks": 48,
          "midi": 69,
          "name": "A4",
          "ticks": 30120,
          "time": 122.2401375,
          "velocity": 1
        },
        {
          "duration": 0.3896100000000047,
          "durationTicks": 96,
          "midi": 69,
          "name": "A4",
          "ticks": 30168,
          "time": 122.4349425,
          "velocity": 1
        },
        {
          "duration": 0.19480500000000234,
          "durationTicks": 48,
          "midi": 69,
          "name": "A4",
          "ticks": 30312,
          "time": 123.0193575,
          "velocity": 1
        },
        {
          "duration": 0.19480500000000234,
          "durationTicks": 48,
          "midi": 70,
          "name": "A#4",
          "ticks": 30360,
          "time": 123.2141625,
          "velocity": 1
        },
        {
          "duration": 0.19480500000000234,
          "durationTicks": 48,
          "midi": 69,
          "name": "A4",
          "ticks": 30408,
          "time": 123.4089675,
          "velocity": 1
        },
        {
          "duration": 0.19480500000000234,
          "durationTicks": 48,
          "midi": 67,
          "name": "G4",
          "ticks": 30456,
          "time": 123.6037725,
          "velocity": 1
        },
        {
          "duration": 0.19480500000000234,
          "durationTicks": 48,
          "midi": 65,
          "name": "F4",
          "ticks": 30504,
          "time": 123.79857750000001,
          "velocity": 1
        },
        {
          "duration": 0.19480499999998813,
          "durationTicks": 48,
          "midi": 65,
          "name": "F4",
          "ticks": 30552,
          "time": 123.99338250000001,
          "velocity": 1
        },
        {
          "duration": 0.19480500000000234,
          "durationTicks": 48,
          "midi": 62,
          "name": "D4",
          "ticks": 30648,
          "time": 124.3829925,
          "velocity": 1
        },
        {
          "duration": 0.19480500000000234,
          "durationTicks": 48,
          "midi": 65,
          "name": "F4",
          "ticks": 30696,
          "time": 124.5777975,
          "velocity": 1
        },
        {
          "duration": 0.2922075000000035,
          "durationTicks": 72,
          "midi": 67,
          "name": "G4",
          "ticks": 30744,
          "time": 124.7726025,
          "velocity": 1
        },
        {
          "duration": 0.2922074999999893,
          "durationTicks": 72,
          "midi": 67,
          "name": "G4",
          "ticks": 30816,
          "time": 125.06481000000001,
          "velocity": 1
        },
        {
          "duration": 0.19480500000000234,
          "durationTicks": 48,
          "midi": 69,
          "name": "A4",
          "ticks": 30888,
          "time": 125.3570175,
          "velocity": 1
        },
        {
          "duration": 0.3896100000000047,
          "durationTicks": 96,
          "midi": 69,
          "name": "A4",
          "ticks": 30936,
          "time": 125.5518225,
          "velocity": 1
        },
        {
          "duration": 0.19480500000000234,
          "durationTicks": 48,
          "midi": 69,
          "name": "A4",
          "ticks": 31080,
          "time": 126.13623750000001,
          "velocity": 1
        },
        {
          "duration": 0.19480499999998813,
          "durationTicks": 48,
          "midi": 72,
          "name": "C5",
          "ticks": 31128,
          "time": 126.33104250000001,
          "velocity": 1
        },
        {
          "duration": 0.19480500000000234,
          "durationTicks": 48,
          "midi": 74,
          "name": "D5",
          "ticks": 31176,
          "time": 126.5258475,
          "velocity": 1
        },
        {
          "duration": 0.19480500000000234,
          "durationTicks": 48,
          "midi": 67,
          "name": "G4",
          "ticks": 31224,
          "time": 126.7206525,
          "velocity": 1
        },
        {
          "duration": 0.19480500000000234,
          "durationTicks": 48,
          "midi": 65,
          "name": "F4",
          "ticks": 31272,
          "time": 126.9154575,
          "velocity": 1
        },
        {
          "duration": 0.19480500000000234,
          "durationTicks": 48,
          "midi": 69,
          "name": "A4",
          "ticks": 31320,
          "time": 127.1102625,
          "velocity": 1
        },
        {
          "duration": 0.19480499999998813,
          "durationTicks": 48,
          "midi": 62,
          "name": "D4",
          "ticks": 31416,
          "time": 127.49987250000001,
          "velocity": 1
        },
        {
          "duration": 0.19480500000000234,
          "durationTicks": 48,
          "midi": 65,
          "name": "F4",
          "ticks": 31464,
          "time": 127.6946775,
          "velocity": 1
        },
        {
          "duration": 0.38960999999999046,
          "durationTicks": 96,
          "midi": 70,
          "name": "A#4",
          "ticks": 31512,
          "time": 127.8894825,
          "velocity": 1
        },
        {
          "duration": 0.3896100000000047,
          "durationTicks": 96,
          "midi": 69,
          "name": "A4",
          "ticks": 31608,
          "time": 128.2790925,
          "velocity": 1
        },
        {
          "duration": 0.3896100000000047,
          "durationTicks": 96,
          "midi": 67,
          "name": "G4",
          "ticks": 31704,
          "time": 128.6687025,
          "velocity": 1
        },
        {
          "duration": 0.3896100000000047,
          "durationTicks": 96,
          "midi": 65,
          "name": "F4",
          "ticks": 31800,
          "time": 129.0583125,
          "velocity": 1
        },
        {
          "duration": 0.19480500000000234,
          "durationTicks": 48,
          "midi": 67,
          "name": "G4",
          "ticks": 31896,
          "time": 129.4479225,
          "velocity": 1
        },
        {
          "duration": 0.19480500000000234,
          "durationTicks": 48,
          "midi": 69,
          "name": "A4",
          "ticks": 31944,
          "time": 129.6427275,
          "velocity": 1
        },
        {
          "duration": 0.19480500000000234,
          "durationTicks": 48,
          "midi": 62,
          "name": "D4",
          "ticks": 31992,
          "time": 129.8375325,
          "velocity": 1
        },
        {
          "duration": 0.19480500000000234,
          "durationTicks": 48,
          "midi": 60,
          "name": "C4",
          "ticks": 32040,
          "time": 130.0323375,
          "velocity": 1
        },
        {
          "duration": 0.19480500000000234,
          "durationTicks": 48,
          "midi": 62,
          "name": "D4",
          "ticks": 32088,
          "time": 130.2271425,
          "velocity": 1
        },
        {
          "duration": 0.19480500000000234,
          "durationTicks": 48,
          "midi": 62,
          "name": "D4",
          "ticks": 32184,
          "time": 130.6167525,
          "velocity": 1
        },
        {
          "duration": 0.19480500000000234,
          "durationTicks": 48,
          "midi": 65,
          "name": "F4",
          "ticks": 32232,
          "time": 130.8115575,
          "velocity": 1
        },
        {
          "duration": 0.2922075000000177,
          "durationTicks": 72,
          "midi": 67,
          "name": "G4",
          "ticks": 32280,
          "time": 131.0063625,
          "velocity": 1
        },
        {
          "duration": 0.2922074999999893,
          "durationTicks": 72,
          "midi": 67,
          "name": "G4",
          "ticks": 32352,
          "time": 131.29857,
          "velocity": 1
        },
        {
          "duration": 0.19480500000000234,
          "durationTicks": 48,
          "midi": 69,
          "name": "A4",
          "ticks": 32424,
          "time": 131.5907775,
          "velocity": 1
        },
        {
          "duration": 0.3896100000000047,
          "durationTicks": 96,
          "midi": 69,
          "name": "A4",
          "ticks": 32472,
          "time": 131.7855825,
          "velocity": 1
        },
        {
          "duration": 0.19480500000000234,
          "durationTicks": 48,
          "midi": 69,
          "name": "A4",
          "ticks": 32616,
          "time": 132.3699975,
          "velocity": 1
        },
        {
          "duration": 0.19480500000000234,
          "durationTicks": 48,
          "midi": 72,
          "name": "C5",
          "ticks": 32664,
          "time": 132.5648025,
          "velocity": 1
        },
        {
          "duration": 0.19480500000000234,
          "durationTicks": 48,
          "midi": 74,
          "name": "D5",
          "ticks": 32712,
          "time": 132.75960750000002,
          "velocity": 1
        },
        {
          "duration": 0.19480499999997392,
          "durationTicks": 48,
          "midi": 67,
          "name": "G4",
          "ticks": 32760,
          "time": 132.95441250000002,
          "velocity": 1
        },
        {
          "duration": 0.19480500000000234,
          "durationTicks": 48,
          "midi": 65,
          "name": "F4",
          "ticks": 32808,
          "time": 133.1492175,
          "velocity": 1
        },
        {
          "duration": 0.3896100000000047,
          "durationTicks": 96,
          "midi": 69,
          "name": "A4",
          "ticks": 32856,
          "time": 133.3440225,
          "velocity": 1
        },
        {
          "duration": 0.19480500000000234,
          "durationTicks": 48,
          "midi": 62,
          "name": "D4",
          "ticks": 32952,
          "time": 133.7336325,
          "velocity": 1
        },
        {
          "duration": 0.19480500000000234,
          "durationTicks": 48,
          "midi": 65,
          "name": "F4",
          "ticks": 33000,
          "time": 133.9284375,
          "velocity": 1
        },
        {
          "duration": 0.2922074999999893,
          "durationTicks": 72,
          "midi": 67,
          "name": "G4",
          "ticks": 33048,
          "time": 134.1232425,
          "velocity": 1
        },
        {
          "duration": 0.2922075000000177,
          "durationTicks": 72,
          "midi": 67,
          "name": "G4",
          "ticks": 33120,
          "time": 134.41545,
          "velocity": 1
        },
        {
          "duration": 0.19480500000000234,
          "durationTicks": 48,
          "midi": 69,
          "name": "A4",
          "ticks": 33192,
          "time": 134.7076575,
          "velocity": 1
        },
        {
          "duration": 0.3896100000000047,
          "durationTicks": 96,
          "midi": 69,
          "name": "A4",
          "ticks": 33240,
          "time": 134.9024625,
          "velocity": 1
        },
        {
          "duration": 0.19480500000000234,
          "durationTicks": 48,
          "midi": 69,
          "name": "A4",
          "ticks": 33384,
          "time": 135.4868775,
          "velocity": 1
        },
        {
          "duration": 0.19480500000000234,
          "durationTicks": 48,
          "midi": 70,
          "name": "A#4",
          "ticks": 33432,
          "time": 135.6816825,
          "velocity": 1
        },
        {
          "duration": 0.19480500000000234,
          "durationTicks": 48,
          "midi": 69,
          "name": "A4",
          "ticks": 33480,
          "time": 135.8764875,
          "velocity": 1
        },
        {
          "duration": 0.19480500000000234,
          "durationTicks": 48,
          "midi": 67,
          "name": "G4",
          "ticks": 33528,
          "time": 136.0712925,
          "velocity": 1
        },
        {
          "duration": 0.19480500000000234,
          "durationTicks": 48,
          "midi": 65,
          "name": "F4",
          "ticks": 33576,
          "time": 136.2660975,
          "velocity": 1
        },
        {
          "duration": 0.19480500000000234,
          "durationTicks": 48,
          "midi": 65,
          "name": "F4",
          "ticks": 33624,
          "time": 136.4609025,
          "velocity": 1
        },
        {
          "duration": 0.19480500000000234,
          "durationTicks": 48,
          "midi": 62,
          "name": "D4",
          "ticks": 33720,
          "time": 136.8505125,
          "velocity": 1
        },
        {
          "duration": 0.19480500000000234,
          "durationTicks": 48,
          "midi": 65,
          "name": "F4",
          "ticks": 33768,
          "time": 137.0453175,
          "velocity": 1
        },
        {
          "duration": 0.2922074999999893,
          "durationTicks": 72,
          "midi": 67,
          "name": "G4",
          "ticks": 33816,
          "time": 137.2401225,
          "velocity": 1
        },
        {
          "duration": 0.2922074999999893,
          "durationTicks": 72,
          "midi": 67,
          "name": "G4",
          "ticks": 33888,
          "time": 137.53233,
          "velocity": 1
        },
        {
          "duration": 0.19480500000000234,
          "durationTicks": 48,
          "midi": 69,
          "name": "A4",
          "ticks": 33960,
          "time": 137.8245375,
          "velocity": 1
        },
        {
          "duration": 0.3896100000000047,
          "durationTicks": 96,
          "midi": 69,
          "name": "A4",
          "ticks": 34008,
          "time": 138.0193425,
          "velocity": 1
        },
        {
          "duration": 0.19480500000000234,
          "durationTicks": 48,
          "midi": 69,
          "name": "A4",
          "ticks": 34152,
          "time": 138.6037575,
          "velocity": 1
        },
        {
          "duration": 0.19480500000000234,
          "durationTicks": 48,
          "midi": 72,
          "name": "C5",
          "ticks": 34200,
          "time": 138.7985625,
          "velocity": 1
        },
        {
          "duration": 0.19480500000000234,
          "durationTicks": 48,
          "midi": 74,
          "name": "D5",
          "ticks": 34248,
          "time": 138.9933675,
          "velocity": 1
        },
        {
          "duration": 0.19480500000000234,
          "durationTicks": 48,
          "midi": 67,
          "name": "G4",
          "ticks": 34296,
          "time": 139.1881725,
          "velocity": 1
        },
        {
          "duration": 0.19480500000000234,
          "durationTicks": 48,
          "midi": 65,
          "name": "F4",
          "ticks": 34344,
          "time": 139.3829775,
          "velocity": 1
        },
        {
          "duration": 0.19480500000000234,
          "durationTicks": 48,
          "midi": 69,
          "name": "A4",
          "ticks": 34392,
          "time": 139.5777825,
          "velocity": 1
        },
        {
          "duration": 0.19480499999997392,
          "durationTicks": 48,
          "midi": 62,
          "name": "D4",
          "ticks": 34488,
          "time": 139.96739250000002,
          "velocity": 1
        },
        {
          "duration": 0.19480500000000234,
          "durationTicks": 48,
          "midi": 65,
          "name": "F4",
          "ticks": 34536,
          "time": 140.1621975,
          "velocity": 1
        },
        {
          "duration": 0.3896100000000047,
          "durationTicks": 96,
          "midi": 70,
          "name": "A#4",
          "ticks": 34584,
          "time": 140.3570025,
          "velocity": 1
        },
        {
          "duration": 0.3896100000000047,
          "durationTicks": 96,
          "midi": 69,
          "name": "A4",
          "ticks": 34680,
          "time": 140.7466125,
          "velocity": 1
        },
        {
          "duration": 0.3896100000000047,
          "durationTicks": 96,
          "midi": 67,
          "name": "G4",
          "ticks": 34776,
          "time": 141.1362225,
          "velocity": 1
        },
        {
          "duration": 0.3896100000000047,
          "durationTicks": 96,
          "midi": 65,
          "name": "F4",
          "ticks": 34872,
          "time": 141.5258325,
          "velocity": 1
        },
        {
          "duration": 0.19480500000000234,
          "durationTicks": 48,
          "midi": 67,
          "name": "G4",
          "ticks": 34968,
          "time": 141.9154425,
          "velocity": 1
        },
        {
          "duration": 0.19480500000000234,
          "durationTicks": 48,
          "midi": 65,
          "name": "F4",
          "ticks": 35016,
          "time": 142.1102475,
          "velocity": 1
        },
        {
          "duration": 0.19480499999997392,
          "durationTicks": 48,
          "midi": 69,
          "name": "A4",
          "ticks": 35064,
          "time": 142.30505250000002,
          "velocity": 1
        },
        {
          "duration": 0.19480500000000234,
          "durationTicks": 48,
          "midi": 72,
          "name": "C5",
          "ticks": 35112,
          "time": 142.4998575,
          "velocity": 1
        },
        {
          "duration": 0.3896100000000047,
          "durationTicks": 96,
          "midi": 74,
          "name": "D5",
          "ticks": 35160,
          "time": 142.6946625,
          "velocity": 1
        },
        {
          "duration": 0.3896100000000047,
          "durationTicks": 96,
          "midi": 65,
          "name": "F4",
          "ticks": 43032,
          "time": 174.6426825,
          "velocity": 1
        },
        {
          "duration": 0.3896100000000047,
          "durationTicks": 96,
          "midi": 64,
          "name": "E4",
          "ticks": 43128,
          "time": 175.0322925,
          "velocity": 1
        },
        {
          "duration": 0.38960999999997625,
          "durationTicks": 96,
          "midi": 62,
          "name": "D4",
          "ticks": 43224,
          "time": 175.42190250000002,
          "velocity": 1
        },
        {
          "duration": 0.19480500000000234,
          "durationTicks": 48,
          "midi": 60,
          "name": "C4",
          "ticks": 43320,
          "time": 175.8115125,
          "velocity": 1
        },
        {
          "duration": 0.09740250000001538,
          "durationTicks": 24,
          "midi": 60,
          "name": "C4",
          "ticks": 43416,
          "time": 176.2011225,
          "velocity": 1
        },
        {
          "duration": 0.09740250000001538,
          "durationTicks": 24,
          "midi": 60,
          "name": "C4",
          "ticks": 43464,
          "time": 176.3959275,
          "velocity": 1
        },
        {
          "duration": 0.09740249999998696,
          "durationTicks": 24,
          "midi": 62,
          "name": "D4",
          "ticks": 43488,
          "time": 176.49333000000001,
          "velocity": 1
        },
        {
          "duration": 0.19480500000000234,
          "durationTicks": 48,
          "midi": 57,
          "name": "A3",
          "ticks": 43512,
          "time": 176.5907325,
          "velocity": 1
        },
        {
          "duration": 0.19480500000000234,
          "durationTicks": 48,
          "midi": 55,
          "name": "G3",
          "ticks": 43560,
          "time": 176.7855375,
          "velocity": 1
        },
        {
          "duration": 0.3896100000000047,
          "durationTicks": 96,
          "midi": 57,
          "name": "A3",
          "ticks": 43608,
          "time": 176.9803425,
          "velocity": 1
        },
        {
          "duration": 0.19480500000000234,
          "durationTicks": 48,
          "midi": 57,
          "name": "A3",
          "ticks": 43800,
          "time": 177.75956250000002,
          "velocity": 1
        },
        {
          "duration": 0.19480499999997392,
          "durationTicks": 48,
          "midi": 60,
          "name": "C4",
          "ticks": 43848,
          "time": 177.95436750000002,
          "velocity": 1
        },
        {
          "duration": 0.19480500000000234,
          "durationTicks": 48,
          "midi": 62,
          "name": "D4",
          "ticks": 43896,
          "time": 178.1491725,
          "velocity": 1
        },
        {
          "duration": 0.3896100000000047,
          "durationTicks": 96,
          "midi": 67,
          "name": "G4",
          "ticks": 43992,
          "time": 178.5387825,
          "velocity": 1
        },
        {
          "duration": 0.3896100000000047,
          "durationTicks": 96,
          "midi": 64,
          "name": "E4",
          "ticks": 44088,
          "time": 178.9283925,
          "velocity": 1
        },
        {
          "duration": 0.3896100000000047,
          "durationTicks": 96,
          "midi": 65,
          "name": "F4",
          "ticks": 44184,
          "time": 179.3180025,
          "velocity": 1
        },
        {
          "duration": 0.19480500000000234,
          "durationTicks": 48,
          "midi": 64,
          "name": "E4",
          "ticks": 44280,
          "time": 179.7076125,
          "velocity": 1
        },
        {
          "duration": 0.19480500000000234,
          "durationTicks": 48,
          "midi": 60,
          "name": "C4",
          "ticks": 44328,
          "time": 179.9024175,
          "velocity": 1
        },
        {
          "duration": 0.5844149999999786,
          "durationTicks": 144,
          "midi": 62,
          "name": "D4",
          "ticks": 44376,
          "time": 180.09722250000002,
          "velocity": 1
        },
        {
          "duration": 0.3896100000000047,
          "durationTicks": 96,
          "midi": 65,
          "name": "F4",
          "ticks": 44568,
          "time": 180.8764425,
          "velocity": 1
        },
        {
          "duration": 0.3896100000000047,
          "durationTicks": 96,
          "midi": 64,
          "name": "E4",
          "ticks": 44664,
          "time": 181.2660525,
          "velocity": 1
        },
        {
          "duration": 0.3896100000000047,
          "durationTicks": 96,
          "midi": 62,
          "name": "D4",
          "ticks": 44760,
          "time": 181.6556625,
          "velocity": 1
        },
        {
          "duration": 0.19480500000000234,
          "durationTicks": 48,
          "midi": 60,
          "name": "C4",
          "ticks": 44856,
          "time": 182.0452725,
          "velocity": 1
        },
        {
          "duration": 0.19480500000000234,
          "durationTicks": 48,
          "midi": 60,
          "name": "C4",
          "ticks": 44952,
          "time": 182.43488250000001,
          "velocity": 1
        },
        {
          "duration": 0.09740249999998696,
          "durationTicks": 24,
          "midi": 60,
          "name": "C4",
          "ticks": 45000,
          "time": 182.62968750000002,
          "velocity": 1
        },
        {
          "duration": 0.09740250000001538,
          "durationTicks": 24,
          "midi": 62,
          "name": "D4",
          "ticks": 45024,
          "time": 182.72709,
          "velocity": 1
        },
        {
          "duration": 0.19480499999997392,
          "durationTicks": 48,
          "midi": 57,
          "name": "A3",
          "ticks": 45048,
          "time": 182.82449250000002,
          "velocity": 1
        },
        {
          "duration": 0.19480500000000234,
          "durationTicks": 48,
          "midi": 55,
          "name": "G3",
          "ticks": 45096,
          "time": 183.0192975,
          "velocity": 1
        },
        {
          "duration": 0.19480500000000234,
          "durationTicks": 48,
          "midi": 57,
          "name": "A3",
          "ticks": 45144,
          "time": 183.2141025,
          "velocity": 1
        },
        {
          "duration": 0.19480500000000234,
          "durationTicks": 48,
          "midi": 57,
          "name": "A3",
          "ticks": 45240,
          "time": 183.6037125,
          "velocity": 1
        },
        {
          "duration": 0.19480500000000234,
          "durationTicks": 48,
          "midi": 60,
          "name": "C4",
          "ticks": 45288,
          "time": 183.7985175,
          "velocity": 1
        },
        {
          "duration": 0.19480500000000234,
          "durationTicks": 48,
          "midi": 62,
          "name": "D4",
          "ticks": 45336,
          "time": 183.9933225,
          "velocity": 1
        },
        {
          "duration": 0.19480500000000234,
          "durationTicks": 48,
          "midi": 62,
          "name": "D4",
          "ticks": 45384,
          "time": 184.1881275,
          "velocity": 1
        },
        {
          "duration": 0.19480500000000234,
          "durationTicks": 48,
          "midi": 62,
          "name": "D4",
          "ticks": 45480,
          "time": 184.5777375,
          "velocity": 1
        },
        {
          "duration": 0.3896100000000047,
          "durationTicks": 96,
          "midi": 65,
          "name": "F4",
          "ticks": 45528,
          "time": 184.77254250000001,
          "velocity": 1
        },
        {
          "duration": 0.38960999999997625,
          "durationTicks": 96,
          "midi": 67,
          "name": "G4",
          "ticks": 45624,
          "time": 185.16215250000002,
          "velocity": 1
        },
        {
          "duration": 0.7792200000000093,
          "durationTicks": 192,
          "midi": 64,
          "name": "E4",
          "ticks": 45720,
          "time": 185.5517625,
          "velocity": 1
        },
        {
          "duration": 0.19480500000000234,
          "durationTicks": 48,
          "midi": 62,
          "name": "D4",
          "ticks": 46008,
          "time": 186.7205925,
          "velocity": 1
        },
        {
          "duration": 0.19480500000000234,
          "durationTicks": 48,
          "midi": 65,
          "name": "F4",
          "ticks": 46056,
          "time": 186.9153975,
          "velocity": 1
        },
        {
          "duration": 0.2922074999999893,
          "durationTicks": 72,
          "midi": 67,
          "name": "G4",
          "ticks": 46104,
          "time": 187.1102025,
          "velocity": 1
        },
        {
          "duration": 0.2922074999999893,
          "durationTicks": 72,
          "midi": 67,
          "name": "G4",
          "ticks": 46176,
          "time": 187.40241,
          "velocity": 1
        },
        {
          "duration": 0.19480500000000234,
          "durationTicks": 48,
          "midi": 69,
          "name": "A4",
          "ticks": 46248,
          "time": 187.6946175,
          "velocity": 1
        },
        {
          "duration": 0.3896100000000047,
          "durationTicks": 96,
          "midi": 69,
          "name": "A4",
          "ticks": 46296,
          "time": 187.8894225,
          "velocity": 1
        },
        {
          "duration": 0.19480500000000234,
          "durationTicks": 48,
          "midi": 69,
          "name": "A4",
          "ticks": 46440,
          "time": 188.4738375,
          "velocity": 1
        },
        {
          "duration": 0.19480500000000234,
          "durationTicks": 48,
          "midi": 72,
          "name": "C5",
          "ticks": 46488,
          "time": 188.6686425,
          "velocity": 1
        },
        {
          "duration": 0.19480500000000234,
          "durationTicks": 48,
          "midi": 74,
          "name": "D5",
          "ticks": 46536,
          "time": 188.8634475,
          "velocity": 1
        },
        {
          "duration": 0.19480500000000234,
          "durationTicks": 48,
          "midi": 67,
          "name": "G4",
          "ticks": 46584,
          "time": 189.0582525,
          "velocity": 1
        },
        {
          "duration": 0.19480500000000234,
          "durationTicks": 48,
          "midi": 65,
          "name": "F4",
          "ticks": 46632,
          "time": 189.2530575,
          "velocity": 1
        },
        {
          "duration": 0.19480500000000234,
          "durationTicks": 48,
          "midi": 69,
          "name": "A4",
          "ticks": 46680,
          "time": 189.4478625,
          "velocity": 1
        },
        {
          "duration": 0.19480499999997392,
          "durationTicks": 48,
          "midi": 62,
          "name": "D4",
          "ticks": 46776,
          "time": 189.83747250000002,
          "velocity": 1
        },
        {
          "duration": 0.19480500000000234,
          "durationTicks": 48,
          "midi": 65,
          "name": "F4",
          "ticks": 46824,
          "time": 190.0322775,
          "velocity": 1
        },
        {
          "duration": 0.2922075000000177,
          "durationTicks": 72,
          "midi": 67,
          "name": "G4",
          "ticks": 46872,
          "time": 190.2270825,
          "velocity": 1
        },
        {
          "duration": 0.2922074999999893,
          "durationTicks": 72,
          "midi": 67,
          "name": "G4",
          "ticks": 46944,
          "time": 190.51929,
          "velocity": 1
        },
        {
          "duration": 0.19480500000000234,
          "durationTicks": 48,
          "midi": 69,
          "name": "A4",
          "ticks": 47016,
          "time": 190.8114975,
          "velocity": 1
        },
        {
          "duration": 0.3896100000000047,
          "durationTicks": 96,
          "midi": 69,
          "name": "A4",
          "ticks": 47064,
          "time": 191.0063025,
          "velocity": 1
        },
        {
          "duration": 0.19480500000000234,
          "durationTicks": 48,
          "midi": 69,
          "name": "A4",
          "ticks": 47208,
          "time": 191.5907175,
          "velocity": 1
        },
        {
          "duration": 0.19480500000000234,
          "durationTicks": 48,
          "midi": 70,
          "name": "A#4",
          "ticks": 47256,
          "time": 191.7855225,
          "velocity": 1
        },
        {
          "duration": 0.19480500000000234,
          "durationTicks": 48,
          "midi": 69,
          "name": "A4",
          "ticks": 47304,
          "time": 191.98032750000002,
          "velocity": 1
        },
        {
          "duration": 0.19480499999997392,
          "durationTicks": 48,
          "midi": 67,
          "name": "G4",
          "ticks": 47352,
          "time": 192.17513250000002,
          "velocity": 1
        },
        {
          "duration": 0.19480500000000234,
          "durationTicks": 48,
          "midi": 65,
          "name": "F4",
          "ticks": 47400,
          "time": 192.3699375,
          "velocity": 1
        },
        {
          "duration": 0.19480500000000234,
          "durationTicks": 48,
          "midi": 65,
          "name": "F4",
          "ticks": 47448,
          "time": 192.5647425,
          "velocity": 1
        },
        {
          "duration": 0.19480500000000234,
          "durationTicks": 48,
          "midi": 62,
          "name": "D4",
          "ticks": 47544,
          "time": 192.9543525,
          "velocity": 1
        },
        {
          "duration": 0.19480500000000234,
          "durationTicks": 48,
          "midi": 65,
          "name": "F4",
          "ticks": 47592,
          "time": 193.1491575,
          "velocity": 1
        },
        {
          "duration": 0.2922074999999893,
          "durationTicks": 72,
          "midi": 67,
          "name": "G4",
          "ticks": 47640,
          "time": 193.3439625,
          "velocity": 1
        },
        {
          "duration": 0.2922075000000177,
          "durationTicks": 72,
          "midi": 67,
          "name": "G4",
          "ticks": 47712,
          "time": 193.63617,
          "velocity": 1
        },
        {
          "duration": 0.19480500000000234,
          "durationTicks": 48,
          "midi": 69,
          "name": "A4",
          "ticks": 47784,
          "time": 193.9283775,
          "velocity": 1
        },
        {
          "duration": 0.3896100000000047,
          "durationTicks": 96,
          "midi": 69,
          "name": "A4",
          "ticks": 47832,
          "time": 194.1231825,
          "velocity": 1
        },
        {
          "duration": 0.19480499999997392,
          "durationTicks": 48,
          "midi": 69,
          "name": "A4",
          "ticks": 47976,
          "time": 194.70759750000002,
          "velocity": 1
        },
        {
          "duration": 0.19480500000000234,
          "durationTicks": 48,
          "midi": 72,
          "name": "C5",
          "ticks": 48024,
          "time": 194.9024025,
          "velocity": 1
        },
        {
          "duration": 0.19480500000000234,
          "durationTicks": 48,
          "midi": 74,
          "name": "D5",
          "ticks": 48072,
          "time": 195.0972075,
          "velocity": 1
        },
        {
          "duration": 0.19480500000000234,
          "durationTicks": 48,
          "midi": 67,
          "name": "G4",
          "ticks": 48120,
          "time": 195.2920125,
          "velocity": 1
        },
        {
          "duration": 0.19480500000000234,
          "durationTicks": 48,
          "midi": 65,
          "name": "F4",
          "ticks": 48168,
          "time": 195.4868175,
          "velocity": 1
        },
        {
          "duration": 0.19480500000000234,
          "durationTicks": 48,
          "midi": 69,
          "name": "A4",
          "ticks": 48216,
          "time": 195.6816225,
          "velocity": 1
        },
        {
          "duration": 0.19480500000000234,
          "durationTicks": 48,
          "midi": 62,
          "name": "D4",
          "ticks": 48312,
          "time": 196.0712325,
          "velocity": 1
        },
        {
          "duration": 0.19480500000000234,
          "durationTicks": 48,
          "midi": 65,
          "name": "F4",
          "ticks": 48360,
          "time": 196.2660375,
          "velocity": 1
        },
        {
          "duration": 0.3896100000000047,
          "durationTicks": 96,
          "midi": 70,
          "name": "A#4",
          "ticks": 48408,
          "time": 196.4608425,
          "velocity": 1
        },
        {
          "duration": 0.38960999999997625,
          "durationTicks": 96,
          "midi": 69,
          "name": "A4",
          "ticks": 48504,
          "time": 196.85045250000002,
          "velocity": 1
        },
        {
          "duration": 0.3896100000000047,
          "durationTicks": 96,
          "midi": 67,
          "name": "G4",
          "ticks": 48600,
          "time": 197.2400625,
          "velocity": 1
        },
        {
          "duration": 0.19480500000000234,
          "durationTicks": 48,
          "midi": 65,
          "name": "F4",
          "ticks": 48696,
          "time": 197.6296725,
          "velocity": 1
        },
        {
          "duration": 0.19480500000000234,
          "durationTicks": 48,
          "midi": 67,
          "name": "G4",
          "ticks": 48792,
          "time": 198.0192825,
          "velocity": 1
        },
        {
          "duration": 0.19480500000000234,
          "durationTicks": 48,
          "midi": 69,
          "name": "A4",
          "ticks": 48840,
          "time": 198.2140875,
          "velocity": 1
        },
        {
          "duration": 0.19480500000000234,
          "durationTicks": 48,
          "midi": 67,
          "name": "G4",
          "ticks": 48888,
          "time": 198.4088925,
          "velocity": 1
        },
        {
          "duration": 0.19480500000000234,
          "durationTicks": 48,
          "midi": 69,
          "name": "A4",
          "ticks": 48936,
          "time": 198.6036975,
          "velocity": 1
        },
        {
          "duration": 0.19480500000000234,
          "durationTicks": 48,
          "midi": 69,
          "name": "A4",
          "ticks": 48984,
          "time": 198.7985025,
          "velocity": 1
        },
        {
          "duration": 0.19480500000000234,
          "durationTicks": 48,
          "midi": 64,
          "name": "E4",
          "ticks": 49080,
          "time": 199.18811250000002,
          "velocity": 1
        },
        {
          "duration": 0.19480499999997392,
          "durationTicks": 48,
          "midi": 67,
          "name": "G4",
          "ticks": 49128,
          "time": 199.38291750000002,
          "velocity": 1
        },
        {
          "duration": 0.2922075000000177,
          "durationTicks": 72,
          "midi": 69,
          "name": "A4",
          "ticks": 49176,
          "time": 199.5777225,
          "velocity": 1
        },
        {
          "duration": 0.2922074999999893,
          "durationTicks": 72,
          "midi": 69,
          "name": "A4",
          "ticks": 49248,
          "time": 199.86993,
          "velocity": 1
        },
        {
          "duration": 0.19480500000000234,
          "durationTicks": 48,
          "midi": 71,
          "name": "B4",
          "ticks": 49320,
          "time": 200.1621375,
          "velocity": 1
        },
        {
          "duration": 0.3896100000000047,
          "durationTicks": 96,
          "midi": 71,
          "name": "B4",
          "ticks": 49368,
          "time": 200.3569425,
          "velocity": 1
        },
        {
          "duration": 0.19480500000000234,
          "durationTicks": 48,
          "midi": 71,
          "name": "B4",
          "ticks": 49512,
          "time": 200.9413575,
          "velocity": 1
        },
        {
          "duration": 0.19480500000000234,
          "durationTicks": 48,
          "midi": 74,
          "name": "D5",
          "ticks": 49560,
          "time": 201.1361625,
          "velocity": 1
        },
        {
          "duration": 0.19480500000000234,
          "durationTicks": 48,
          "midi": 76,
          "name": "E5",
          "ticks": 49608,
          "time": 201.3309675,
          "velocity": 1
        },
        {
          "duration": 0.19480500000000234,
          "durationTicks": 48,
          "midi": 69,
          "name": "A4",
          "ticks": 49656,
          "time": 201.52577250000002,
          "velocity": 1
        },
        {
          "duration": 0.19480499999997392,
          "durationTicks": 48,
          "midi": 67,
          "name": "G4",
          "ticks": 49704,
          "time": 201.72057750000002,
          "velocity": 1
        },
        {
          "duration": 0.3896100000000047,
          "durationTicks": 96,
          "midi": 71,
          "name": "B4",
          "ticks": 49752,
          "time": 201.9153825,
          "velocity": 1
        },
        {
          "duration": 0.19480500000000234,
          "durationTicks": 48,
          "midi": 64,
          "name": "E4",
          "ticks": 49848,
          "time": 202.3049925,
          "velocity": 1
        },
        {
          "duration": 0.19480500000000234,
          "durationTicks": 48,
          "midi": 67,
          "name": "G4",
          "ticks": 49896,
          "time": 202.4997975,
          "velocity": 1
        },
        {
          "duration": 0.2922075000000177,
          "durationTicks": 72,
          "midi": 69,
          "name": "A4",
          "ticks": 49944,
          "time": 202.6946025,
          "velocity": 1
        },
        {
          "duration": 0.2922074999999893,
          "durationTicks": 72,
          "midi": 69,
          "name": "A4",
          "ticks": 50016,
          "time": 202.98681000000002,
          "velocity": 1
        },
        {
          "duration": 0.19480500000000234,
          "durationTicks": 48,
          "midi": 71,
          "name": "B4",
          "ticks": 50088,
          "time": 203.2790175,
          "velocity": 1
        },
        {
          "duration": 0.3896100000000047,
          "durationTicks": 96,
          "midi": 71,
          "name": "B4",
          "ticks": 50136,
          "time": 203.4738225,
          "velocity": 1
        },
        {
          "duration": 0.19480499999997392,
          "durationTicks": 48,
          "midi": 71,
          "name": "B4",
          "ticks": 50280,
          "time": 204.05823750000002,
          "velocity": 1
        },
        {
          "duration": 0.19480500000000234,
          "durationTicks": 48,
          "midi": 72,
          "name": "C5",
          "ticks": 50328,
          "time": 204.2530425,
          "velocity": 1
        },
        {
          "duration": 0.19480500000000234,
          "durationTicks": 48,
          "midi": 71,
          "name": "B4",
          "ticks": 50376,
          "time": 204.4478475,
          "velocity": 1
        },
        {
          "duration": 0.19480500000000234,
          "durationTicks": 48,
          "midi": 69,
          "name": "A4",
          "ticks": 50424,
          "time": 204.6426525,
          "velocity": 1
        },
        {
          "duration": 0.19480500000000234,
          "durationTicks": 48,
          "midi": 67,
          "name": "G4",
          "ticks": 50472,
          "time": 204.8374575,
          "velocity": 1
        },
        {
          "duration": 0.19480500000000234,
          "durationTicks": 48,
          "midi": 67,
          "name": "G4",
          "ticks": 50520,
          "time": 205.0322625,
          "velocity": 1
        },
        {
          "duration": 0.19480500000000234,
          "durationTicks": 48,
          "midi": 64,
          "name": "E4",
          "ticks": 50616,
          "time": 205.4218725,
          "velocity": 1
        },
        {
          "duration": 0.19480500000000234,
          "durationTicks": 48,
          "midi": 67,
          "name": "G4",
          "ticks": 50664,
          "time": 205.6166775,
          "velocity": 1
        },
        {
          "duration": 0.2922074999999893,
          "durationTicks": 72,
          "midi": 69,
          "name": "A4",
          "ticks": 50712,
          "time": 205.8114825,
          "velocity": 1
        },
        {
          "duration": 0.2922075000000177,
          "durationTicks": 72,
          "midi": 69,
          "name": "A4",
          "ticks": 50784,
          "time": 206.10369,
          "velocity": 1
        },
        {
          "duration": 0.19480500000000234,
          "durationTicks": 48,
          "midi": 71,
          "name": "B4",
          "ticks": 50856,
          "time": 206.39589750000002,
          "velocity": 1
        },
        {
          "duration": 0.38960999999997625,
          "durationTicks": 96,
          "midi": 71,
          "name": "B4",
          "ticks": 50904,
          "time": 206.59070250000002,
          "velocity": 1
        },
        {
          "duration": 0.19480500000000234,
          "durationTicks": 48,
          "midi": 71,
          "name": "B4",
          "ticks": 51048,
          "time": 207.1751175,
          "velocity": 1
        },
        {
          "duration": 0.19480500000000234,
          "durationTicks": 48,
          "midi": 74,
          "name": "D5",
          "ticks": 51096,
          "time": 207.3699225,
          "velocity": 1
        },
        {
          "duration": 0.19480500000000234,
          "durationTicks": 48,
          "midi": 76,
          "name": "E5",
          "ticks": 51144,
          "time": 207.5647275,
          "velocity": 1
        },
        {
          "duration": 0.19480500000000234,
          "durationTicks": 48,
          "midi": 69,
          "name": "A4",
          "ticks": 51192,
          "time": 207.7595325,
          "velocity": 1
        },
        {
          "duration": 0.19480500000000234,
          "durationTicks": 48,
          "midi": 67,
          "name": "G4",
          "ticks": 51240,
          "time": 207.9543375,
          "velocity": 1
        },
        {
          "duration": 0.19480500000000234,
          "durationTicks": 48,
          "midi": 71,
          "name": "B4",
          "ticks": 51288,
          "time": 208.1491425,
          "velocity": 1
        },
        {
          "duration": 0.19480500000000234,
          "durationTicks": 48,
          "midi": 64,
          "name": "E4",
          "ticks": 51384,
          "time": 208.53875250000002,
          "velocity": 1
        },
        {
          "duration": 0.19480500000000234,
          "durationTicks": 48,
          "midi": 67,
          "name": "G4",
          "ticks": 51432,
          "time": 208.73355750000002,
          "velocity": 1
        },
        {
          "duration": 0.38960999999997625,
          "durationTicks": 96,
          "midi": 72,
          "name": "C5",
          "ticks": 51480,
          "time": 208.92836250000002,
          "velocity": 1
        },
        {
          "duration": 0.3896100000000047,
          "durationTicks": 96,
          "midi": 71,
          "name": "B4",
          "ticks": 51576,
          "time": 209.3179725,
          "velocity": 1
        },
        {
          "duration": 0.3896100000000047,
          "durationTicks": 96,
          "midi": 69,
          "name": "A4",
          "ticks": 51672,
          "time": 209.7075825,
          "velocity": 1
        },
        {
          "duration": 0.3896100000000047,
          "durationTicks": 96,
          "midi": 67,
          "name": "G4",
          "ticks": 51768,
          "time": 210.0971925,
          "velocity": 1
        },
        {
          "duration": 0.19480500000000234,
          "durationTicks": 48,
          "midi": 69,
          "name": "A4",
          "ticks": 51864,
          "time": 210.4868025,
          "velocity": 1
        },
        {
          "duration": 0.19480500000000234,
          "durationTicks": 48,
          "midi": 67,
          "name": "G4",
          "ticks": 51912,
          "time": 210.6816075,
          "velocity": 1
        },
        {
          "duration": 0.19480500000000234,
          "durationTicks": 48,
          "midi": 71,
          "name": "B4",
          "ticks": 51960,
          "time": 210.87641250000001,
          "velocity": 1
        },
        {
          "duration": 0.19480500000000234,
          "durationTicks": 48,
          "midi": 74,
          "name": "D5",
          "ticks": 52008,
          "time": 211.07121750000002,
          "velocity": 1
        },
        {
          "duration": 0.38960999999997625,
          "durationTicks": 96,
          "midi": 76,
          "name": "E5",
          "ticks": 52056,
          "time": 211.26602250000002,
          "velocity": 1
        }
      ],
      "endOfTrackTicks": 58865
    },
    {
      "channel": 0,
      "controlChanges": {
        "6": [
          {
            "number": 6,
            "ticks": 0,
            "time": 0,
            "value": 0.09448818897637795
          },
          {
            "number": 6,
            "ticks": 0,
            "time": 0,
            "value": 0.09448818897637795
          },
          {
            "number": 6,
            "ticks": 0,
            "time": 0,
            "value": 0.09448818897637795
          },
          {
            "number": 6,
            "ticks": 58728,
            "time": 238.3439175,
            "value": 0.09448818897637795
          },
          {
            "number": 6,
            "ticks": 58865,
            "time": 238.89992343750004,
            "value": 0.09448818897637795
          }
        ],
        "7": [
          {
            "number": 7,
            "ticks": 0,
            "time": 0,
            "value": 0.7559055118110236
          },
          {
            "number": 7,
            "ticks": 0,
            "time": 0,
            "value": 0.7559055118110236
          },
          {
            "number": 7,
            "ticks": 0,
            "time": 0,
            "value": 0.7559055118110236
          },
          {
            "number": 7,
            "ticks": 0,
            "time": 0,
            "value": 0.7559055118110236
          },
          {
            "number": 7,
            "ticks": 58728,
            "time": 238.3439175,
            "value": 0.7559055118110236
          },
          {
            "number": 7,
            "ticks": 58865,
            "time": 238.89992343750004,
            "value": 0.7559055118110236
          }
        ],
        "10": [
          {
            "number": 10,
            "ticks": 0,
            "time": 0,
            "value": 0.5039370078740157
          },
          {
            "number": 10,
            "ticks": 0,
            "time": 0,
            "value": 0.5039370078740157
          },
          {
            "number": 10,
            "ticks": 0,
            "time": 0,
            "value": 0.5039370078740157
          },
          {
            "number": 10,
            "ticks": 0,
            "time": 0,
            "value": 0.5039370078740157
          },
          {
            "number": 10,
            "ticks": 58728,
            "time": 238.3439175,
            "value": 0.5039370078740157
          },
          {
            "number": 10,
            "ticks": 58865,
            "time": 238.89992343750004,
            "value": 0.5039370078740157
          }
        ],
        "100": [
          {
            "number": 100,
            "ticks": 0,
            "time": 0,
            "value": 0
          },
          {
            "number": 100,
            "ticks": 0,
            "time": 0,
            "value": 0
          },
          {
            "number": 100,
            "ticks": 0,
            "time": 0,
            "value": 0
          },
          {
            "number": 100,
            "ticks": 58728,
            "time": 238.3439175,
            "value": 0
          },
          {
            "number": 100,
            "ticks": 58865,
            "time": 238.89992343750004,
            "value": 0
          }
        ],
        "101": [
          {
            "number": 101,
            "ticks": 0,
            "time": 0,
            "value": 0
          },
          {
            "number": 101,
            "ticks": 0,
            "time": 0,
            "value": 0
          },
          {
            "number": 101,
            "ticks": 0,
            "time": 0,
            "value": 0
          },
          {
            "number": 101,
            "ticks": 58728,
            "time": 238.3439175,
            "value": 0
          },
          {
            "number": 101,
            "ticks": 58865,
            "time": 238.89992343750004,
            "value": 0
          }
        ]
      },
      "pitchBends": [
        {
          "ticks": 0,
          "time": 0,
          "value": 0
        },
        {
          "ticks": 0,
          "time": 0,
          "value": 0
        },
        {
          "ticks": 0,
          "time": 0,
          "value": 0
        },
        {
          "ticks": 0,
          "time": 0,
          "value": 0
        },
        {
          "ticks": 58728,
          "time": 238.3439175,
          "value": 0
        },
        {
          "ticks": 58865,
          "time": 238.89992343750004,
          "value": 0
        }
      ],
      "instrument": {
        "family": "piano",
        "number": 0,
        "name": "acoustic grand piano"
      },
      "name": "BASS",
      "notes": [
        {
          "duration": 0.194805,
          "durationTicks": 48,
          "midi": 50,
          "name": "D3",
          "ticks": 24,
          "time": 0.0974025,
          "velocity": 1
        },
        {
          "duration": 0.2922075,
          "durationTicks": 72,
          "midi": 38,
          "name": "D2",
          "ticks": 24,
          "time": 0.0974025,
          "velocity": 1
        },
        {
          "duration": 0.194805,
          "durationTicks": 48,
          "midi": 45,
          "name": "A2",
          "ticks": 24,
          "time": 0.0974025,
          "velocity": 1
        },
        {
          "duration": 0.194805,
          "durationTicks": 48,
          "midi": 50,
          "name": "D3",
          "ticks": 96,
          "time": 0.38961,
          "velocity": 1
        },
        {
          "duration": 0.194805,
          "durationTicks": 48,
          "midi": 45,
          "name": "A2",
          "ticks": 96,
          "time": 0.38961,
          "velocity": 1
        },
        {
          "duration": 0.29220749999999995,
          "durationTicks": 72,
          "midi": 38,
          "name": "D2",
          "ticks": 96,
          "time": 0.38961,
          "velocity": 1
        },
        {
          "duration": 0.19480500000000012,
          "durationTicks": 48,
          "midi": 36,
          "name": "C2",
          "ticks": 168,
          "time": 0.6818175,
          "velocity": 1
        },
        {
          "duration": 0.19480500000000012,
          "durationTicks": 48,
          "midi": 48,
          "name": "C3",
          "ticks": 168,
          "time": 0.6818175,
          "velocity": 1
        },
        {
          "duration": 0.1948049999999999,
          "durationTicks": 48,
          "midi": 50,
          "name": "D3",
          "ticks": 216,
          "time": 0.8766225000000001,
          "velocity": 1
        },
        {
          "duration": 0.1948049999999999,
          "durationTicks": 48,
          "midi": 45,
          "name": "A2",
          "ticks": 216,
          "time": 0.8766225000000001,
          "velocity": 1
        },
        {
          "duration": 0.29220749999999995,
          "durationTicks": 72,
          "midi": 38,
          "name": "D2",
          "ticks": 216,
          "time": 0.8766225000000001,
          "velocity": 1
        },
        {
          "duration": 0.1948049999999999,
          "durationTicks": 48,
          "midi": 50,
          "name": "D3",
          "ticks": 288,
          "time": 1.16883,
          "velocity": 1
        },
        {
          "duration": 0.29220749999999995,
          "durationTicks": 72,
          "midi": 38,
          "name": "D2",
          "ticks": 288,
          "time": 1.16883,
          "velocity": 1
        },
        {
          "duration": 0.1948049999999999,
          "durationTicks": 48,
          "midi": 45,
          "name": "A2",
          "ticks": 288,
          "time": 1.16883,
          "velocity": 1
        },
        {
          "duration": 0.19480500000000012,
          "durationTicks": 48,
          "midi": 48,
          "name": "C3",
          "ticks": 360,
          "time": 1.4610375,
          "velocity": 1
        },
        {
          "duration": 0.19480500000000012,
          "durationTicks": 48,
          "midi": 36,
          "name": "C2",
          "ticks": 360,
          "time": 1.4610375,
          "velocity": 1
        },
        {
          "duration": 0.7792199999999998,
          "durationTicks": 192,
          "midi": 41,
          "name": "F2",
          "ticks": 408,
          "time": 1.6558425,
          "velocity": 1
        },
        {
          "duration": 0.29220749999999995,
          "durationTicks": 72,
          "midi": 38,
          "name": "D2",
          "ticks": 408,
          "time": 1.6558425,
          "velocity": 1
        },
        {
          "duration": 0.1948049999999999,
          "durationTicks": 48,
          "midi": 50,
          "name": "D3",
          "ticks": 408,
          "time": 1.6558425,
          "velocity": 1
        },
        {
          "duration": 0.1948049999999999,
          "durationTicks": 48,
          "midi": 50,
          "name": "D3",
          "ticks": 480,
          "time": 1.94805,
          "velocity": 1
        },
        {
          "duration": 0.2922075000000002,
          "durationTicks": 72,
          "midi": 38,
          "name": "D2",
          "ticks": 480,
          "time": 1.94805,
          "velocity": 1
        },
        {
          "duration": 0.19480499999999967,
          "durationTicks": 48,
          "midi": 36,
          "name": "C2",
          "ticks": 552,
          "time": 2.2402575000000002,
          "velocity": 1
        },
        {
          "duration": 0.19480499999999967,
          "durationTicks": 48,
          "midi": 48,
          "name": "C3",
          "ticks": 552,
          "time": 2.2402575000000002,
          "velocity": 1
        },
        {
          "duration": 0.19480500000000012,
          "durationTicks": 48,
          "midi": 50,
          "name": "D3",
          "ticks": 600,
          "time": 2.4350625,
          "velocity": 1
        },
        {
          "duration": 0.38961000000000023,
          "durationTicks": 96,
          "midi": 38,
          "name": "D2",
          "ticks": 600,
          "time": 2.4350625,
          "velocity": 1
        },
        {
          "duration": 0.3896099999999998,
          "durationTicks": 96,
          "midi": 41,
          "name": "F2",
          "ticks": 696,
          "time": 2.8246725,
          "velocity": 1
        },
        {
          "duration": 0.3896099999999998,
          "durationTicks": 96,
          "midi": 43,
          "name": "G2",
          "ticks": 696,
          "time": 2.8246725,
          "velocity": 1
        },
        {
          "duration": 0.19480500000000012,
          "durationTicks": 48,
          "midi": 50,
          "name": "D3",
          "ticks": 792,
          "time": 3.2142825,
          "velocity": 1
        },
        {
          "duration": 1.5584400000000005,
          "durationTicks": 384,
          "midi": 45,
          "name": "A2",
          "ticks": 792,
          "time": 3.2142825,
          "velocity": 1
        },
        {
          "duration": 0.2922075000000004,
          "durationTicks": 72,
          "midi": 38,
          "name": "D2",
          "ticks": 792,
          "time": 3.2142825,
          "velocity": 1
        },
        {
          "duration": 0.19480499999999967,
          "durationTicks": 48,
          "midi": 50,
          "name": "D3",
          "ticks": 864,
          "time": 3.5064900000000003,
          "velocity": 1
        },
        {
          "duration": 0.29220749999999995,
          "durationTicks": 72,
          "midi": 38,
          "name": "D2",
          "ticks": 864,
          "time": 3.5064900000000003,
          "velocity": 1
        },
        {
          "duration": 0.19480499999999967,
          "durationTicks": 48,
          "midi": 48,
          "name": "C3",
          "ticks": 936,
          "time": 3.7986975000000003,
          "velocity": 1
        },
        {
          "duration": 0.19480499999999967,
          "durationTicks": 48,
          "midi": 36,
          "name": "C2",
          "ticks": 936,
          "time": 3.7986975000000003,
          "velocity": 1
        },
        {
          "duration": 0.19480500000000056,
          "durationTicks": 48,
          "midi": 50,
          "name": "D3",
          "ticks": 984,
          "time": 3.9935025,
          "velocity": 1
        },
        {
          "duration": 0.29220749999999995,
          "durationTicks": 72,
          "midi": 38,
          "name": "D2",
          "ticks": 984,
          "time": 3.9935025,
          "velocity": 1
        },
        {
          "duration": 0.19480500000000056,
          "durationTicks": 48,
          "midi": 50,
          "name": "D3",
          "ticks": 1056,
          "time": 4.28571,
          "velocity": 1
        },
        {
          "duration": 0.29220749999999995,
          "durationTicks": 72,
          "midi": 38,
          "name": "D2",
          "ticks": 1056,
          "time": 4.28571,
          "velocity": 1
        },
        {
          "duration": 0.19480500000000056,
          "durationTicks": 48,
          "midi": 48,
          "name": "C3",
          "ticks": 1128,
          "time": 4.5779175,
          "velocity": 1
        },
        {
          "duration": 0.19480500000000056,
          "durationTicks": 48,
          "midi": 36,
          "name": "C2",
          "ticks": 1128,
          "time": 4.5779175,
          "velocity": 1
        },
        {
          "duration": 0.38960999999999935,
          "durationTicks": 96,
          "midi": 26,
          "name": "D1",
          "ticks": 1176,
          "time": 4.7727225,
          "velocity": 1
        },
        {
          "duration": 0.38960999999999935,
          "durationTicks": 96,
          "midi": 38,
          "name": "D2",
          "ticks": 1176,
          "time": 4.7727225,
          "velocity": 1
        },
        {
          "duration": 0.38960999999999935,
          "durationTicks": 96,
          "midi": 33,
          "name": "A1",
          "ticks": 1176,
          "time": 4.7727225,
          "velocity": 1
        },
        {
          "duration": 0.38961000000000023,
          "durationTicks": 96,
          "midi": 29,
          "name": "F1",
          "ticks": 1272,
          "time": 5.1623325,
          "velocity": 1
        },
        {
          "duration": 0.38961000000000023,
          "durationTicks": 96,
          "midi": 41,
          "name": "F2",
          "ticks": 1272,
          "time": 5.1623325,
          "velocity": 1
        },
        {
          "duration": 0.38961000000000023,
          "durationTicks": 96,
          "midi": 36,
          "name": "C2",
          "ticks": 1272,
          "time": 5.1623325,
          "velocity": 1
        },
        {
          "duration": 0.38961000000000023,
          "durationTicks": 96,
          "midi": 31,
          "name": "G1",
          "ticks": 1368,
          "time": 5.5519425,
          "velocity": 1
        },
        {
          "duration": 0.38961000000000023,
          "durationTicks": 96,
          "midi": 43,
          "name": "G2",
          "ticks": 1368,
          "time": 5.5519425,
          "velocity": 1
        },
        {
          "duration": 0.38961000000000023,
          "durationTicks": 96,
          "midi": 38,
          "name": "D2",
          "ticks": 1368,
          "time": 5.5519425,
          "velocity": 1
        },
        {
          "duration": 0.38961000000000023,
          "durationTicks": 96,
          "midi": 33,
          "name": "A1",
          "ticks": 1464,
          "time": 5.9415525,
          "velocity": 1
        },
        {
          "duration": 0.38961000000000023,
          "durationTicks": 96,
          "midi": 45,
          "name": "A2",
          "ticks": 1464,
          "time": 5.9415525,
          "velocity": 1
        },
        {
          "duration": 0.38961000000000023,
          "durationTicks": 96,
          "midi": 40,
          "name": "E2",
          "ticks": 1464,
          "time": 5.9415525,
          "velocity": 1
        },
        {
          "duration": 0.19480499999999967,
          "durationTicks": 48,
          "midi": 34,
          "name": "A#1",
          "ticks": 1560,
          "time": 6.3311625000000005,
          "velocity": 1
        },
        {
          "duration": 0.19480499999999967,
          "durationTicks": 48,
          "midi": 41,
          "name": "F2",
          "ticks": 1608,
          "time": 6.5259675,
          "velocity": 1
        },
        {
          "duration": 0.19480499999999967,
          "durationTicks": 48,
          "midi": 46,
          "name": "A#2",
          "ticks": 1608,
          "time": 6.5259675,
          "velocity": 1
        },
        {
          "duration": 0.19480500000000056,
          "durationTicks": 48,
          "midi": 34,
          "name": "A#1",
          "ticks": 1656,
          "time": 6.7207725,
          "velocity": 1
        },
        {
          "duration": 0.19480500000000056,
          "durationTicks": 48,
          "midi": 41,
          "name": "F2",
          "ticks": 1680,
          "time": 6.818175,
          "velocity": 1
        },
        {
          "duration": 0.19480499999999967,
          "durationTicks": 48,
          "midi": 46,
          "name": "A#2",
          "ticks": 1704,
          "time": 6.9155775,
          "velocity": 1
        },
        {
          "duration": 0.19480500000000056,
          "durationTicks": 48,
          "midi": 36,
          "name": "C2",
          "ticks": 1752,
          "time": 7.1103825,
          "velocity": 1
        },
        {
          "duration": 0.19480499999999967,
          "durationTicks": 48,
          "midi": 43,
          "name": "G2",
          "ticks": 1800,
          "time": 7.305187500000001,
          "velocity": 1
        },
        {
          "duration": 0.19480499999999967,
          "durationTicks": 48,
          "midi": 48,
          "name": "C3",
          "ticks": 1800,
          "time": 7.305187500000001,
          "velocity": 1
        },
        {
          "duration": 0.19480499999999967,
          "durationTicks": 48,
          "midi": 36,
          "name": "C2",
          "ticks": 1848,
          "time": 7.4999925,
          "velocity": 1
        },
        {
          "duration": 0.19480499999999967,
          "durationTicks": 48,
          "midi": 43,
          "name": "G2",
          "ticks": 1872,
          "time": 7.597395000000001,
          "velocity": 1
        },
        {
          "duration": 0.19480500000000056,
          "durationTicks": 48,
          "midi": 48,
          "name": "C3",
          "ticks": 1896,
          "time": 7.6947975,
          "velocity": 1
        },
        {
          "duration": 0.19480500000000056,
          "durationTicks": 48,
          "midi": 38,
          "name": "D2",
          "ticks": 1944,
          "time": 7.8896025000000005,
          "velocity": 1
        },
        {
          "duration": 0.19480499999999878,
          "durationTicks": 48,
          "midi": 50,
          "name": "D3",
          "ticks": 1992,
          "time": 8.084407500000001,
          "velocity": 1
        },
        {
          "duration": 0.19480499999999878,
          "durationTicks": 48,
          "midi": 45,
          "name": "A2",
          "ticks": 1992,
          "time": 8.084407500000001,
          "velocity": 1
        },
        {
          "duration": 0.19480500000000056,
          "durationTicks": 48,
          "midi": 38,
          "name": "D2",
          "ticks": 2040,
          "time": 8.2792125,
          "velocity": 1
        },
        {
          "duration": 0.19480500000000056,
          "durationTicks": 48,
          "midi": 45,
          "name": "A2",
          "ticks": 2088,
          "time": 8.4740175,
          "velocity": 1
        },
        {
          "duration": 0.19480500000000056,
          "durationTicks": 48,
          "midi": 50,
          "name": "D3",
          "ticks": 2088,
          "time": 8.4740175,
          "velocity": 1
        },
        {
          "duration": 0.19480499999999878,
          "durationTicks": 48,
          "midi": 41,
          "name": "F2",
          "ticks": 2136,
          "time": 8.668822500000001,
          "velocity": 1
        },
        {
          "duration": 0.19480500000000056,
          "durationTicks": 48,
          "midi": 48,
          "name": "C3",
          "ticks": 2184,
          "time": 8.8636275,
          "velocity": 1
        },
        {
          "duration": 0.19480500000000056,
          "durationTicks": 48,
          "midi": 53,
          "name": "F3",
          "ticks": 2184,
          "time": 8.8636275,
          "velocity": 1
        },
        {
          "duration": 0.09740249999999939,
          "durationTicks": 24,
          "midi": 41,
          "name": "F2",
          "ticks": 2232,
          "time": 9.0584325,
          "velocity": 1
        },
        {
          "duration": 0.09740250000000117,
          "durationTicks": 24,
          "midi": 53,
          "name": "F3",
          "ticks": 2256,
          "time": 9.155835,
          "velocity": 1
        },
        {
          "duration": 0.09740249999999939,
          "durationTicks": 24,
          "midi": 41,
          "name": "F2",
          "ticks": 2280,
          "time": 9.253237500000001,
          "velocity": 1
        },
        {
          "duration": 0.09740249999999939,
          "durationTicks": 24,
          "midi": 53,
          "name": "F3",
          "ticks": 2304,
          "time": 9.35064,
          "velocity": 1
        },
        {
          "duration": 0.19480500000000056,
          "durationTicks": 48,
          "midi": 34,
          "name": "A#1",
          "ticks": 2328,
          "time": 9.4480425,
          "velocity": 1
        },
        {
          "duration": 0.19480500000000056,
          "durationTicks": 48,
          "midi": 41,
          "name": "F2",
          "ticks": 2376,
          "time": 9.6428475,
          "velocity": 1
        },
        {
          "duration": 0.19480500000000056,
          "durationTicks": 48,
          "midi": 46,
          "name": "A#2",
          "ticks": 2376,
          "time": 9.6428475,
          "velocity": 1
        },
        {
          "duration": 0.19480499999999878,
          "durationTicks": 48,
          "midi": 34,
          "name": "A#1",
          "ticks": 2424,
          "time": 9.8376525,
          "velocity": 1
        },
        {
          "duration": 0.19480500000000056,
          "durationTicks": 48,
          "midi": 41,
          "name": "F2",
          "ticks": 2448,
          "time": 9.935055,
          "velocity": 1
        },
        {
          "duration": 0.19480500000000056,
          "durationTicks": 48,
          "midi": 46,
          "name": "A#2",
          "ticks": 2472,
          "time": 10.0324575,
          "velocity": 1
        },
        {
          "duration": 0.19480500000000056,
          "durationTicks": 48,
          "midi": 36,
          "name": "C2",
          "ticks": 2520,
          "time": 10.2272625,
          "velocity": 1
        },
        {
          "duration": 0.19480499999999878,
          "durationTicks": 48,
          "midi": 43,
          "name": "G2",
          "ticks": 2568,
          "time": 10.4220675,
          "velocity": 1
        },
        {
          "duration": 0.19480499999999878,
          "durationTicks": 48,
          "midi": 48,
          "name": "C3",
          "ticks": 2568,
          "time": 10.4220675,
          "velocity": 1
        },
        {
          "duration": 0.19480500000000056,
          "durationTicks": 48,
          "midi": 36,
          "name": "C2",
          "ticks": 2616,
          "time": 10.6168725,
          "velocity": 1
        },
        {
          "duration": 0.19480499999999878,
          "durationTicks": 48,
          "midi": 43,
          "name": "G2",
          "ticks": 2640,
          "time": 10.714275,
          "velocity": 1
        },
        {
          "duration": 0.19480500000000056,
          "durationTicks": 48,
          "midi": 48,
          "name": "C3",
          "ticks": 2664,
          "time": 10.8116775,
          "velocity": 1
        },
        {
          "duration": 0.19480500000000056,
          "durationTicks": 48,
          "midi": 38,
          "name": "D2",
          "ticks": 2712,
          "time": 11.0064825,
          "velocity": 1
        },
        {
          "duration": 0.19480499999999878,
          "durationTicks": 48,
          "midi": 50,
          "name": "D3",
          "ticks": 2760,
          "time": 11.201287500000001,
          "velocity": 1
        },
        {
          "duration": 0.19480499999999878,
          "durationTicks": 48,
          "midi": 45,
          "name": "A2",
          "ticks": 2760,
          "time": 11.201287500000001,
          "velocity": 1
        },
        {
          "duration": 0.19480500000000056,
          "durationTicks": 48,
          "midi": 41,
          "name": "F2",
          "ticks": 2808,
          "time": 11.3960925,
          "velocity": 1
        },
        {
          "duration": 0.19480500000000056,
          "durationTicks": 48,
          "midi": 48,
          "name": "C3",
          "ticks": 2856,
          "time": 11.5908975,
          "velocity": 1
        },
        {
          "duration": 0.19480500000000056,
          "durationTicks": 48,
          "midi": 53,
          "name": "F3",
          "ticks": 2856,
          "time": 11.5908975,
          "velocity": 1
        },
        {
          "duration": 0.19480499999999878,
          "durationTicks": 48,
          "midi": 43,
          "name": "G2",
          "ticks": 2904,
          "time": 11.785702500000001,
          "velocity": 1
        },
        {
          "duration": 0.19480500000000056,
          "durationTicks": 48,
          "midi": 50,
          "name": "D3",
          "ticks": 2952,
          "time": 11.9805075,
          "velocity": 1
        },
        {
          "duration": 0.19480500000000056,
          "durationTicks": 48,
          "midi": 55,
          "name": "G3",
          "ticks": 2952,
          "time": 11.9805075,
          "velocity": 1
        },
        {
          "duration": 0.09740249999999939,
          "durationTicks": 24,
          "midi": 45,
          "name": "A2",
          "ticks": 3000,
          "time": 12.1753125,
          "velocity": 1
        },
        {
          "duration": 0.09740250000000117,
          "durationTicks": 24,
          "midi": 57,
          "name": "A3",
          "ticks": 3024,
          "time": 12.272715,
          "velocity": 1
        },
        {
          "duration": 0.09740249999999939,
          "durationTicks": 24,
          "midi": 45,
          "name": "A2",
          "ticks": 3048,
          "time": 12.370117500000001,
          "velocity": 1
        },
        {
          "duration": 0.09740249999999939,
          "durationTicks": 24,
          "midi": 57,
          "name": "A3",
          "ticks": 3072,
          "time": 12.46752,
          "velocity": 1
        },
        {
          "duration": 0.19480500000000056,
          "durationTicks": 48,
          "midi": 34,
          "name": "A#1",
          "ticks": 3096,
          "time": 12.5649225,
          "velocity": 1
        },
        {
          "duration": 0.19480500000000056,
          "durationTicks": 48,
          "midi": 41,
          "name": "F2",
          "ticks": 3144,
          "time": 12.7597275,
          "velocity": 1
        },
        {
          "duration": 0.19480500000000056,
          "durationTicks": 48,
          "midi": 46,
          "name": "A#2",
          "ticks": 3144,
          "time": 12.7597275,
          "velocity": 1
        },
        {
          "duration": 0.19480499999999878,
          "durationTicks": 48,
          "midi": 34,
          "name": "A#1",
          "ticks": 3192,
          "time": 12.954532500000001,
          "velocity": 1
        },
        {
          "duration": 0.19480500000000056,
          "durationTicks": 48,
          "midi": 41,
          "name": "F2",
          "ticks": 3216,
          "time": 13.051935,
          "velocity": 1
        },
        {
          "duration": 0.19480500000000056,
          "durationTicks": 48,
          "midi": 46,
          "name": "A#2",
          "ticks": 3240,
          "time": 13.1493375,
          "velocity": 1
        },
        {
          "duration": 0.19480500000000056,
          "durationTicks": 48,
          "midi": 36,
          "name": "C2",
          "ticks": 3288,
          "time": 13.3441425,
          "velocity": 1
        },
        {
          "duration": 0.19480499999999878,
          "durationTicks": 48,
          "midi": 43,
          "name": "G2",
          "ticks": 3336,
          "time": 13.5389475,
          "velocity": 1
        },
        {
          "duration": 0.19480499999999878,
          "durationTicks": 48,
          "midi": 48,
          "name": "C3",
          "ticks": 3336,
          "time": 13.5389475,
          "velocity": 1
        },
        {
          "duration": 0.19480500000000056,
          "durationTicks": 48,
          "midi": 36,
          "name": "C2",
          "ticks": 3384,
          "time": 13.7337525,
          "velocity": 1
        },
        {
          "duration": 0.19480500000000056,
          "durationTicks": 48,
          "midi": 43,
          "name": "G2",
          "ticks": 3408,
          "time": 13.831155,
          "velocity": 1
        },
        {
          "duration": 0.19480500000000056,
          "durationTicks": 48,
          "midi": 48,
          "name": "C3",
          "ticks": 3432,
          "time": 13.9285575,
          "velocity": 1
        },
        {
          "duration": 0.19480500000000056,
          "durationTicks": 48,
          "midi": 38,
          "name": "D2",
          "ticks": 3480,
          "time": 14.1233625,
          "velocity": 1
        },
        {
          "duration": 0.19480499999999878,
          "durationTicks": 48,
          "midi": 50,
          "name": "D3",
          "ticks": 3528,
          "time": 14.318167500000001,
          "velocity": 1
        },
        {
          "duration": 0.19480499999999878,
          "durationTicks": 48,
          "midi": 45,
          "name": "A2",
          "ticks": 3528,
          "time": 14.318167500000001,
          "velocity": 1
        },
        {
          "duration": 0.19480500000000056,
          "durationTicks": 48,
          "midi": 38,
          "name": "D2",
          "ticks": 3576,
          "time": 14.5129725,
          "velocity": 1
        },
        {
          "duration": 0.19480500000000056,
          "durationTicks": 48,
          "midi": 45,
          "name": "A2",
          "ticks": 3624,
          "time": 14.7077775,
          "velocity": 1
        },
        {
          "duration": 0.19480500000000056,
          "durationTicks": 48,
          "midi": 50,
          "name": "D3",
          "ticks": 3624,
          "time": 14.7077775,
          "velocity": 1
        },
        {
          "duration": 0.19480499999999878,
          "durationTicks": 48,
          "midi": 41,
          "name": "F2",
          "ticks": 3672,
          "time": 14.902582500000001,
          "velocity": 1
        },
        {
          "duration": 0.19480500000000056,
          "durationTicks": 48,
          "midi": 48,
          "name": "C3",
          "ticks": 3720,
          "time": 15.0973875,
          "velocity": 1
        },
        {
          "duration": 0.19480500000000056,
          "durationTicks": 48,
          "midi": 53,
          "name": "F3",
          "ticks": 3720,
          "time": 15.0973875,
          "velocity": 1
        },
        {
          "duration": 0.09740249999999939,
          "durationTicks": 24,
          "midi": 41,
          "name": "F2",
          "ticks": 3768,
          "time": 15.2921925,
          "velocity": 1
        },
        {
          "duration": 0.09740250000000117,
          "durationTicks": 24,
          "midi": 53,
          "name": "F3",
          "ticks": 3792,
          "time": 15.389595,
          "velocity": 1
        },
        {
          "duration": 0.09740249999999939,
          "durationTicks": 24,
          "midi": 41,
          "name": "F2",
          "ticks": 3816,
          "time": 15.486997500000001,
          "velocity": 1
        },
        {
          "duration": 0.09740249999999939,
          "durationTicks": 24,
          "midi": 53,
          "name": "F3",
          "ticks": 3840,
          "time": 15.5844,
          "velocity": 1
        },
        {
          "duration": 0.19480500000000056,
          "durationTicks": 48,
          "midi": 34,
          "name": "A#1",
          "ticks": 3864,
          "time": 15.6818025,
          "velocity": 1
        },
        {
          "duration": 0.19480500000000056,
          "durationTicks": 48,
          "midi": 41,
          "name": "F2",
          "ticks": 3912,
          "time": 15.8766075,
          "velocity": 1
        },
        {
          "duration": 0.19480500000000056,
          "durationTicks": 48,
          "midi": 46,
          "name": "A#2",
          "ticks": 3912,
          "time": 15.8766075,
          "velocity": 1
        },
        {
          "duration": 0.19480499999999878,
          "durationTicks": 48,
          "midi": 34,
          "name": "A#1",
          "ticks": 3960,
          "time": 16.0714125,
          "velocity": 1
        },
        {
          "duration": 0.19480499999999878,
          "durationTicks": 48,
          "midi": 41,
          "name": "F2",
          "ticks": 3984,
          "time": 16.168815000000002,
          "velocity": 1
        },
        {
          "duration": 0.19480500000000234,
          "durationTicks": 48,
          "midi": 46,
          "name": "A#2",
          "ticks": 4008,
          "time": 16.2662175,
          "velocity": 1
        },
        {
          "duration": 0.19480499999999878,
          "durationTicks": 48,
          "midi": 36,
          "name": "C2",
          "ticks": 4056,
          "time": 16.461022500000002,
          "velocity": 1
        },
        {
          "duration": 0.19480499999999878,
          "durationTicks": 48,
          "midi": 43,
          "name": "G2",
          "ticks": 4104,
          "time": 16.6558275,
          "velocity": 1
        },
        {
          "duration": 0.19480499999999878,
          "durationTicks": 48,
          "midi": 48,
          "name": "C3",
          "ticks": 4104,
          "time": 16.6558275,
          "velocity": 1
        },
        {
          "duration": 0.19480500000000234,
          "durationTicks": 48,
          "midi": 36,
          "name": "C2",
          "ticks": 4152,
          "time": 16.8506325,
          "velocity": 1
        },
        {
          "duration": 0.19480499999999878,
          "durationTicks": 48,
          "midi": 43,
          "name": "G2",
          "ticks": 4176,
          "time": 16.948035,
          "velocity": 1
        },
        {
          "duration": 0.19480499999999878,
          "durationTicks": 48,
          "midi": 48,
          "name": "C3",
          "ticks": 4200,
          "time": 17.045437500000002,
          "velocity": 1
        },
        {
          "duration": 0.19480499999999878,
          "durationTicks": 48,
          "midi": 50,
          "name": "D3",
          "ticks": 4248,
          "time": 17.2402425,
          "velocity": 1
        },
        {
          "duration": 0.19480499999999878,
          "durationTicks": 48,
          "midi": 38,
          "name": "D2",
          "ticks": 4248,
          "time": 17.2402425,
          "velocity": 1
        },
        {
          "duration": 0.19480499999999878,
          "durationTicks": 48,
          "midi": 45,
          "name": "A2",
          "ticks": 4248,
          "time": 17.2402425,
          "velocity": 1
        },
        {
          "duration": 0.19480499999999878,
          "durationTicks": 48,
          "midi": 45,
          "name": "A2",
          "ticks": 4320,
          "time": 17.53245,
          "velocity": 1
        },
        {
          "duration": 0.19480499999999878,
          "durationTicks": 48,
          "midi": 50,
          "name": "D3",
          "ticks": 4320,
          "time": 17.53245,
          "velocity": 1
        },
        {
          "duration": 0.19480499999999878,
          "durationTicks": 48,
          "midi": 38,
          "name": "D2",
          "ticks": 4320,
          "time": 17.53245,
          "velocity": 1
        },
        {
          "duration": 0.19480499999999878,
          "durationTicks": 48,
          "midi": 53,
          "name": "F3",
          "ticks": 4392,
          "time": 17.8246575,
          "velocity": 1
        },
        {
          "duration": 0.19480499999999878,
          "durationTicks": 48,
          "midi": 41,
          "name": "F2",
          "ticks": 4392,
          "time": 17.8246575,
          "velocity": 1
        },
        {
          "duration": 0.19480499999999878,
          "durationTicks": 48,
          "midi": 48,
          "name": "C3",
          "ticks": 4392,
          "time": 17.8246575,
          "velocity": 1
        },
        {
          "duration": 0.19480500000000234,
          "durationTicks": 48,
          "midi": 50,
          "name": "D3",
          "ticks": 4440,
          "time": 18.0194625,
          "velocity": 1
        },
        {
          "duration": 0.19480500000000234,
          "durationTicks": 48,
          "midi": 38,
          "name": "D2",
          "ticks": 4440,
          "time": 18.0194625,
          "velocity": 1
        },
        {
          "duration": 0.19480500000000234,
          "durationTicks": 48,
          "midi": 45,
          "name": "A2",
          "ticks": 4440,
          "time": 18.0194625,
          "velocity": 1
        },
        {
          "duration": 0.09740250000000117,
          "durationTicks": 24,
          "midi": 38,
          "name": "D2",
          "ticks": 4536,
          "time": 18.4090725,
          "velocity": 1
        },
        {
          "duration": 0.09740249999999762,
          "durationTicks": 24,
          "midi": 45,
          "name": "A2",
          "ticks": 4560,
          "time": 18.506475000000002,
          "velocity": 1
        },
        {
          "duration": 0.09740249999999762,
          "durationTicks": 24,
          "midi": 50,
          "name": "D3",
          "ticks": 4560,
          "time": 18.506475000000002,
          "velocity": 1
        },
        {
          "duration": 0.09740250000000117,
          "durationTicks": 24,
          "midi": 38,
          "name": "D2",
          "ticks": 4584,
          "time": 18.6038775,
          "velocity": 1
        },
        {
          "duration": 0.09740250000000117,
          "durationTicks": 24,
          "midi": 50,
          "name": "D3",
          "ticks": 4608,
          "time": 18.70128,
          "velocity": 1
        },
        {
          "duration": 0.09740250000000117,
          "durationTicks": 24,
          "midi": 45,
          "name": "A2",
          "ticks": 4608,
          "time": 18.70128,
          "velocity": 1
        },
        {
          "duration": 0.19480499999999878,
          "durationTicks": 48,
          "midi": 34,
          "name": "A#1",
          "ticks": 4632,
          "time": 18.7986825,
          "velocity": 1
        },
        {
          "duration": 0.19480499999999878,
          "durationTicks": 48,
          "midi": 41,
          "name": "F2",
          "ticks": 4680,
          "time": 18.9934875,
          "velocity": 1
        },
        {
          "duration": 0.19480499999999878,
          "durationTicks": 48,
          "midi": 46,
          "name": "A#2",
          "ticks": 4680,
          "time": 18.9934875,
          "velocity": 1
        },
        {
          "duration": 0.19480500000000234,
          "durationTicks": 48,
          "midi": 34,
          "name": "A#1",
          "ticks": 4728,
          "time": 19.1882925,
          "velocity": 1
        },
        {
          "duration": 0.19480499999999878,
          "durationTicks": 48,
          "midi": 41,
          "name": "F2",
          "ticks": 4752,
          "time": 19.285695,
          "velocity": 1
        },
        {
          "duration": 0.19480499999999878,
          "durationTicks": 48,
          "midi": 46,
          "name": "A#2",
          "ticks": 4776,
          "time": 19.3830975,
          "velocity": 1
        },
        {
          "duration": 0.19480499999999878,
          "durationTicks": 48,
          "midi": 36,
          "name": "C2",
          "ticks": 4824,
          "time": 19.5779025,
          "velocity": 1
        },
        {
          "duration": 0.19480500000000234,
          "durationTicks": 48,
          "midi": 43,
          "name": "G2",
          "ticks": 4872,
          "time": 19.7727075,
          "velocity": 1
        },
        {
          "duration": 0.19480500000000234,
          "durationTicks": 48,
          "midi": 48,
          "name": "C3",
          "ticks": 4872,
          "time": 19.7727075,
          "velocity": 1
        },
        {
          "duration": 0.19480499999999878,
          "durationTicks": 48,
          "midi": 36,
          "name": "C2",
          "ticks": 4920,
          "time": 19.9675125,
          "velocity": 1
        },
        {
          "duration": 0.19480500000000234,
          "durationTicks": 48,
          "midi": 43,
          "name": "G2",
          "ticks": 4944,
          "time": 20.064915,
          "velocity": 1
        },
        {
          "duration": 0.19480499999999878,
          "durationTicks": 48,
          "midi": 48,
          "name": "C3",
          "ticks": 4968,
          "time": 20.1623175,
          "velocity": 1
        },
        {
          "duration": 0.19480500000000234,
          "durationTicks": 48,
          "midi": 38,
          "name": "D2",
          "ticks": 5016,
          "time": 20.3571225,
          "velocity": 1
        },
        {
          "duration": 0.19480499999999878,
          "durationTicks": 48,
          "midi": 50,
          "name": "D3",
          "ticks": 5064,
          "time": 20.5519275,
          "velocity": 1
        },
        {
          "duration": 0.19480499999999878,
          "durationTicks": 48,
          "midi": 45,
          "name": "A2",
          "ticks": 5064,
          "time": 20.5519275,
          "velocity": 1
        },
        {
          "duration": 0.19480499999999878,
          "durationTicks": 48,
          "midi": 38,
          "name": "D2",
          "ticks": 5112,
          "time": 20.7467325,
          "velocity": 1
        },
        {
          "duration": 0.19480500000000234,
          "durationTicks": 48,
          "midi": 45,
          "name": "A2",
          "ticks": 5160,
          "time": 20.9415375,
          "velocity": 1
        },
        {
          "duration": 0.19480500000000234,
          "durationTicks": 48,
          "midi": 50,
          "name": "D3",
          "ticks": 5160,
          "time": 20.9415375,
          "velocity": 1
        },
        {
          "duration": 0.19480499999999878,
          "durationTicks": 48,
          "midi": 41,
          "name": "F2",
          "ticks": 5208,
          "time": 21.1363425,
          "velocity": 1
        },
        {
          "duration": 0.19480499999999878,
          "durationTicks": 48,
          "midi": 48,
          "name": "C3",
          "ticks": 5256,
          "time": 21.3311475,
          "velocity": 1
        },
        {
          "duration": 0.19480499999999878,
          "durationTicks": 48,
          "midi": 53,
          "name": "F3",
          "ticks": 5256,
          "time": 21.3311475,
          "velocity": 1
        },
        {
          "duration": 0.09740250000000117,
          "durationTicks": 24,
          "midi": 41,
          "name": "F2",
          "ticks": 5304,
          "time": 21.5259525,
          "velocity": 1
        },
        {
          "duration": 0.09740250000000117,
          "durationTicks": 24,
          "midi": 53,
          "name": "F3",
          "ticks": 5328,
          "time": 21.623355,
          "velocity": 1
        },
        {
          "duration": 0.09740249999999762,
          "durationTicks": 24,
          "midi": 41,
          "name": "F2",
          "ticks": 5352,
          "time": 21.7207575,
          "velocity": 1
        },
        {
          "duration": 0.09740250000000117,
          "durationTicks": 24,
          "midi": 53,
          "name": "F3",
          "ticks": 5376,
          "time": 21.81816,
          "velocity": 1
        },
        {
          "duration": 0.19480500000000234,
          "durationTicks": 48,
          "midi": 34,
          "name": "A#1",
          "ticks": 5400,
          "time": 21.9155625,
          "velocity": 1
        },
        {
          "duration": 0.19480499999999878,
          "durationTicks": 48,
          "midi": 41,
          "name": "F2",
          "ticks": 5448,
          "time": 22.110367500000002,
          "velocity": 1
        },
        {
          "duration": 0.19480499999999878,
          "durationTicks": 48,
          "midi": 46,
          "name": "A#2",
          "ticks": 5448,
          "time": 22.110367500000002,
          "velocity": 1
        },
        {
          "duration": 0.19480499999999878,
          "durationTicks": 48,
          "midi": 34,
          "name": "A#1",
          "ticks": 5496,
          "time": 22.3051725,
          "velocity": 1
        },
        {
          "duration": 0.19480499999999878,
          "durationTicks": 48,
          "midi": 41,
          "name": "F2",
          "ticks": 5520,
          "time": 22.402575000000002,
          "velocity": 1
        },
        {
          "duration": 0.19480500000000234,
          "durationTicks": 48,
          "midi": 46,
          "name": "A#2",
          "ticks": 5544,
          "time": 22.4999775,
          "velocity": 1
        },
        {
          "duration": 0.19480499999999878,
          "durationTicks": 48,
          "midi": 36,
          "name": "C2",
          "ticks": 5592,
          "time": 22.694782500000002,
          "velocity": 1
        },
        {
          "duration": 0.19480499999999878,
          "durationTicks": 48,
          "midi": 43,
          "name": "G2",
          "ticks": 5640,
          "time": 22.8895875,
          "velocity": 1
        },
        {
          "duration": 0.19480499999999878,
          "durationTicks": 48,
          "midi": 48,
          "name": "C3",
          "ticks": 5640,
          "time": 22.8895875,
          "velocity": 1
        },
        {
          "duration": 0.19480500000000234,
          "durationTicks": 48,
          "midi": 36,
          "name": "C2",
          "ticks": 5688,
          "time": 23.0843925,
          "velocity": 1
        },
        {
          "duration": 0.19480499999999878,
          "durationTicks": 48,
          "midi": 43,
          "name": "G2",
          "ticks": 5712,
          "time": 23.181795,
          "velocity": 1
        },
        {
          "duration": 0.19480499999999878,
          "durationTicks": 48,
          "midi": 48,
          "name": "C3",
          "ticks": 5736,
          "time": 23.279197500000002,
          "velocity": 1
        },
        {
          "duration": 0.19480499999999878,
          "durationTicks": 48,
          "midi": 38,
          "name": "D2",
          "ticks": 5784,
          "time": 23.4740025,
          "velocity": 1
        },
        {
          "duration": 0.19480500000000234,
          "durationTicks": 48,
          "midi": 50,
          "name": "D3",
          "ticks": 5832,
          "time": 23.6688075,
          "velocity": 1
        },
        {
          "duration": 0.19480500000000234,
          "durationTicks": 48,
          "midi": 45,
          "name": "A2",
          "ticks": 5832,
          "time": 23.6688075,
          "velocity": 1
        },
        {
          "duration": 0.19480499999999878,
          "durationTicks": 48,
          "midi": 41,
          "name": "F2",
          "ticks": 5880,
          "time": 23.863612500000002,
          "velocity": 1
        },
        {
          "duration": 0.19480499999999878,
          "durationTicks": 48,
          "midi": 48,
          "name": "C3",
          "ticks": 5928,
          "time": 24.0584175,
          "velocity": 1
        },
        {
          "duration": 0.19480499999999878,
          "durationTicks": 48,
          "midi": 53,
          "name": "F3",
          "ticks": 5928,
          "time": 24.0584175,
          "velocity": 1
        },
        {
          "duration": 0.19480500000000234,
          "durationTicks": 48,
          "midi": 43,
          "name": "G2",
          "ticks": 5976,
          "time": 24.2532225,
          "velocity": 1
        },
        {
          "duration": 0.19480499999999878,
          "durationTicks": 48,
          "midi": 50,
          "name": "D3",
          "ticks": 6024,
          "time": 24.448027500000002,
          "velocity": 1
        },
        {
          "duration": 0.19480499999999878,
          "durationTicks": 48,
          "midi": 55,
          "name": "G3",
          "ticks": 6024,
          "time": 24.448027500000002,
          "velocity": 1
        },
        {
          "duration": 0.09740250000000117,
          "durationTicks": 24,
          "midi": 45,
          "name": "A2",
          "ticks": 6072,
          "time": 24.6428325,
          "velocity": 1
        },
        {
          "duration": 0.09740249999999762,
          "durationTicks": 24,
          "midi": 57,
          "name": "A3",
          "ticks": 6096,
          "time": 24.740235000000002,
          "velocity": 1
        },
        {
          "duration": 0.09740250000000117,
          "durationTicks": 24,
          "midi": 45,
          "name": "A2",
          "ticks": 6120,
          "time": 24.8376375,
          "velocity": 1
        },
        {
          "duration": 0.09740250000000117,
          "durationTicks": 24,
          "midi": 57,
          "name": "A3",
          "ticks": 6144,
          "time": 24.93504,
          "velocity": 1
        },
        {
          "duration": 0.19480499999999878,
          "durationTicks": 48,
          "midi": 34,
          "name": "A#1",
          "ticks": 6168,
          "time": 25.032442500000002,
          "velocity": 1
        },
        {
          "duration": 0.19480499999999878,
          "durationTicks": 48,
          "midi": 41,
          "name": "F2",
          "ticks": 6216,
          "time": 25.2272475,
          "velocity": 1
        },
        {
          "duration": 0.19480499999999878,
          "durationTicks": 48,
          "midi": 46,
          "name": "A#2",
          "ticks": 6216,
          "time": 25.2272475,
          "velocity": 1
        },
        {
          "duration": 0.19480500000000234,
          "durationTicks": 48,
          "midi": 34,
          "name": "A#1",
          "ticks": 6264,
          "time": 25.4220525,
          "velocity": 1
        },
        {
          "duration": 0.19480499999999878,
          "durationTicks": 48,
          "midi": 41,
          "name": "F2",
          "ticks": 6288,
          "time": 25.519455,
          "velocity": 1
        },
        {
          "duration": 0.19480499999999878,
          "durationTicks": 48,
          "midi": 46,
          "name": "A#2",
          "ticks": 6312,
          "time": 25.616857500000002,
          "velocity": 1
        },
        {
          "duration": 0.19480499999999878,
          "durationTicks": 48,
          "midi": 36,
          "name": "C2",
          "ticks": 6360,
          "time": 25.8116625,
          "velocity": 1
        },
        {
          "duration": 0.19480500000000234,
          "durationTicks": 48,
          "midi": 43,
          "name": "G2",
          "ticks": 6408,
          "time": 26.0064675,
          "velocity": 1
        },
        {
          "duration": 0.19480500000000234,
          "durationTicks": 48,
          "midi": 48,
          "name": "C3",
          "ticks": 6408,
          "time": 26.0064675,
          "velocity": 1
        },
        {
          "duration": 0.19480499999999878,
          "durationTicks": 48,
          "midi": 36,
          "name": "C2",
          "ticks": 6456,
          "time": 26.2012725,
          "velocity": 1
        },
        {
          "duration": 0.19480500000000234,
          "durationTicks": 48,
          "midi": 43,
          "name": "G2",
          "ticks": 6480,
          "time": 26.298675,
          "velocity": 1
        },
        {
          "duration": 0.19480499999999878,
          "durationTicks": 48,
          "midi": 48,
          "name": "C3",
          "ticks": 6504,
          "time": 26.3960775,
          "velocity": 1
        },
        {
          "duration": 0.19480500000000234,
          "durationTicks": 48,
          "midi": 38,
          "name": "D2",
          "ticks": 6552,
          "time": 26.5908825,
          "velocity": 1
        },
        {
          "duration": 0.19480499999999878,
          "durationTicks": 48,
          "midi": 50,
          "name": "D3",
          "ticks": 6600,
          "time": 26.7856875,
          "velocity": 1
        },
        {
          "duration": 0.19480499999999878,
          "durationTicks": 48,
          "midi": 45,
          "name": "A2",
          "ticks": 6600,
          "time": 26.7856875,
          "velocity": 1
        },
        {
          "duration": 0.19480499999999878,
          "durationTicks": 48,
          "midi": 38,
          "name": "D2",
          "ticks": 6648,
          "time": 26.9804925,
          "velocity": 1
        },
        {
          "duration": 0.19480500000000234,
          "durationTicks": 48,
          "midi": 45,
          "name": "A2",
          "ticks": 6696,
          "time": 27.1752975,
          "velocity": 1
        },
        {
          "duration": 0.19480500000000234,
          "durationTicks": 48,
          "midi": 50,
          "name": "D3",
          "ticks": 6696,
          "time": 27.1752975,
          "velocity": 1
        },
        {
          "duration": 0.19480499999999878,
          "durationTicks": 48,
          "midi": 41,
          "name": "F2",
          "ticks": 6744,
          "time": 27.3701025,
          "velocity": 1
        },
        {
          "duration": 0.19480499999999878,
          "durationTicks": 48,
          "midi": 48,
          "name": "C3",
          "ticks": 6792,
          "time": 27.5649075,
          "velocity": 1
        },
        {
          "duration": 0.19480499999999878,
          "durationTicks": 48,
          "midi": 53,
          "name": "F3",
          "ticks": 6792,
          "time": 27.5649075,
          "velocity": 1
        },
        {
          "duration": 0.09740250000000117,
          "durationTicks": 24,
          "midi": 41,
          "name": "F2",
          "ticks": 6840,
          "time": 27.7597125,
          "velocity": 1
        },
        {
          "duration": 0.09740250000000117,
          "durationTicks": 24,
          "midi": 53,
          "name": "F3",
          "ticks": 6864,
          "time": 27.857115,
          "velocity": 1
        },
        {
          "duration": 0.09740250000000117,
          "durationTicks": 24,
          "midi": 41,
          "name": "F2",
          "ticks": 6888,
          "time": 27.9545175,
          "velocity": 1
        },
        {
          "duration": 0.09740249999999762,
          "durationTicks": 24,
          "midi": 53,
          "name": "F3",
          "ticks": 6912,
          "time": 28.051920000000003,
          "velocity": 1
        },
        {
          "duration": 0.19480500000000234,
          "durationTicks": 48,
          "midi": 34,
          "name": "A#1",
          "ticks": 6936,
          "time": 28.1493225,
          "velocity": 1
        },
        {
          "duration": 0.19480499999999878,
          "durationTicks": 48,
          "midi": 41,
          "name": "F2",
          "ticks": 6984,
          "time": 28.344127500000003,
          "velocity": 1
        },
        {
          "duration": 0.19480499999999878,
          "durationTicks": 48,
          "midi": 46,
          "name": "A#2",
          "ticks": 6984,
          "time": 28.344127500000003,
          "velocity": 1
        },
        {
          "duration": 0.19480499999999878,
          "durationTicks": 48,
          "midi": 34,
          "name": "A#1",
          "ticks": 7032,
          "time": 28.5389325,
          "velocity": 1
        },
        {
          "duration": 0.19480499999999878,
          "durationTicks": 48,
          "midi": 41,
          "name": "F2",
          "ticks": 7056,
          "time": 28.636335000000003,
          "velocity": 1
        },
        {
          "duration": 0.19480500000000234,
          "durationTicks": 48,
          "midi": 46,
          "name": "A#2",
          "ticks": 7080,
          "time": 28.7337375,
          "velocity": 1
        },
        {
          "duration": 0.19480499999999878,
          "durationTicks": 48,
          "midi": 36,
          "name": "C2",
          "ticks": 7128,
          "time": 28.928542500000002,
          "velocity": 1
        },
        {
          "duration": 0.19480499999999878,
          "durationTicks": 48,
          "midi": 43,
          "name": "G2",
          "ticks": 7176,
          "time": 29.1233475,
          "velocity": 1
        },
        {
          "duration": 0.19480499999999878,
          "durationTicks": 48,
          "midi": 48,
          "name": "C3",
          "ticks": 7176,
          "time": 29.1233475,
          "velocity": 1
        },
        {
          "duration": 0.19480500000000234,
          "durationTicks": 48,
          "midi": 36,
          "name": "C2",
          "ticks": 7224,
          "time": 29.3181525,
          "velocity": 1
        },
        {
          "duration": 0.19480499999999878,
          "durationTicks": 48,
          "midi": 43,
          "name": "G2",
          "ticks": 7248,
          "time": 29.415555,
          "velocity": 1
        },
        {
          "duration": 0.19480499999999878,
          "durationTicks": 48,
          "midi": 48,
          "name": "C3",
          "ticks": 7272,
          "time": 29.512957500000002,
          "velocity": 1
        },
        {
          "duration": 0.19480499999999878,
          "durationTicks": 48,
          "midi": 50,
          "name": "D3",
          "ticks": 7320,
          "time": 29.7077625,
          "velocity": 1
        },
        {
          "duration": 0.19480499999999878,
          "durationTicks": 48,
          "midi": 38,
          "name": "D2",
          "ticks": 7320,
          "time": 29.7077625,
          "velocity": 1
        },
        {
          "duration": 0.19480499999999878,
          "durationTicks": 48,
          "midi": 45,
          "name": "A2",
          "ticks": 7320,
          "time": 29.7077625,
          "velocity": 1
        },
        {
          "duration": 0.19480499999999878,
          "durationTicks": 48,
          "midi": 45,
          "name": "A2",
          "ticks": 7392,
          "time": 29.99997,
          "velocity": 1
        },
        {
          "duration": 0.19480499999999878,
          "durationTicks": 48,
          "midi": 50,
          "name": "D3",
          "ticks": 7392,
          "time": 29.99997,
          "velocity": 1
        },
        {
          "duration": 0.19480499999999878,
          "durationTicks": 48,
          "midi": 38,
          "name": "D2",
          "ticks": 7392,
          "time": 29.99997,
          "velocity": 1
        },
        {
          "duration": 0.19480499999999878,
          "durationTicks": 48,
          "midi": 53,
          "name": "F3",
          "ticks": 7464,
          "time": 30.2921775,
          "velocity": 1
        },
        {
          "duration": 0.19480499999999878,
          "durationTicks": 48,
          "midi": 41,
          "name": "F2",
          "ticks": 7464,
          "time": 30.2921775,
          "velocity": 1
        },
        {
          "duration": 0.19480499999999878,
          "durationTicks": 48,
          "midi": 48,
          "name": "C3",
          "ticks": 7464,
          "time": 30.2921775,
          "velocity": 1
        },
        {
          "duration": 0.19480500000000234,
          "durationTicks": 48,
          "midi": 38,
          "name": "D2",
          "ticks": 7512,
          "time": 30.4869825,
          "velocity": 1
        },
        {
          "duration": 0.19480500000000234,
          "durationTicks": 48,
          "midi": 50,
          "name": "D3",
          "ticks": 7512,
          "time": 30.4869825,
          "velocity": 1
        },
        {
          "duration": 0.19480500000000234,
          "durationTicks": 48,
          "midi": 45,
          "name": "A2",
          "ticks": 7512,
          "time": 30.4869825,
          "velocity": 1
        },
        {
          "duration": 0.19480499999999878,
          "durationTicks": 48,
          "midi": 50,
          "name": "D3",
          "ticks": 7608,
          "time": 30.8765925,
          "velocity": 1
        },
        {
          "duration": 0.19480499999999878,
          "durationTicks": 48,
          "midi": 38,
          "name": "D2",
          "ticks": 7608,
          "time": 30.8765925,
          "velocity": 1
        },
        {
          "duration": 0.19480499999999878,
          "durationTicks": 48,
          "midi": 45,
          "name": "A2",
          "ticks": 7608,
          "time": 30.8765925,
          "velocity": 1
        },
        {
          "duration": 0.38960999999999757,
          "durationTicks": 96,
          "midi": 38,
          "name": "D2",
          "ticks": 7704,
          "time": 31.266202500000002,
          "velocity": 1
        },
        {
          "duration": 0.29220749999999995,
          "durationTicks": 72,
          "midi": 45,
          "name": "A2",
          "ticks": 7800,
          "time": 31.6558125,
          "velocity": 1
        },
        {
          "duration": 0.29220749999999995,
          "durationTicks": 72,
          "midi": 50,
          "name": "D3",
          "ticks": 7800,
          "time": 31.6558125,
          "velocity": 1
        },
        {
          "duration": 0.09740250000000117,
          "durationTicks": 24,
          "midi": 50,
          "name": "D3",
          "ticks": 7872,
          "time": 31.94802,
          "velocity": 1
        },
        {
          "duration": 0.09740250000000117,
          "durationTicks": 24,
          "midi": 38,
          "name": "D2",
          "ticks": 7896,
          "time": 32.0454225,
          "velocity": 1
        },
        {
          "duration": 0.09740250000000117,
          "durationTicks": 24,
          "midi": 50,
          "name": "D3",
          "ticks": 7920,
          "time": 32.142825,
          "velocity": 1
        },
        {
          "duration": 0.19480499999999523,
          "durationTicks": 48,
          "midi": 41,
          "name": "F2",
          "ticks": 7944,
          "time": 32.2402275,
          "velocity": 1
        },
        {
          "duration": 0.19480500000000234,
          "durationTicks": 48,
          "midi": 45,
          "name": "A2",
          "ticks": 7992,
          "time": 32.4350325,
          "velocity": 1
        },
        {
          "duration": 0.19480500000000234,
          "durationTicks": 48,
          "midi": 38,
          "name": "D2",
          "ticks": 8040,
          "time": 32.6298375,
          "velocity": 1
        },
        {
          "duration": 0.2922074999999964,
          "durationTicks": 72,
          "midi": 34,
          "name": "A#1",
          "ticks": 8088,
          "time": 32.8246425,
          "velocity": 1
        },
        {
          "duration": 0.09740250000000117,
          "durationTicks": 24,
          "midi": 41,
          "name": "F2",
          "ticks": 8160,
          "time": 33.11685,
          "velocity": 1
        },
        {
          "duration": 0.19480500000000234,
          "durationTicks": 48,
          "midi": 34,
          "name": "A#1",
          "ticks": 8184,
          "time": 33.2142525,
          "velocity": 1
        },
        {
          "duration": 0.19480499999999523,
          "durationTicks": 48,
          "midi": 41,
          "name": "F2",
          "ticks": 8232,
          "time": 33.4090575,
          "velocity": 1
        },
        {
          "duration": 0.3896100000000047,
          "durationTicks": 96,
          "midi": 43,
          "name": "G2",
          "ticks": 8280,
          "time": 33.6038625,
          "velocity": 1
        },
        {
          "duration": 0.3896100000000047,
          "durationTicks": 96,
          "midi": 48,
          "name": "C3",
          "ticks": 8280,
          "time": 33.6038625,
          "velocity": 1
        },
        {
          "duration": 0.38960999999999757,
          "durationTicks": 96,
          "midi": 43,
          "name": "G2",
          "ticks": 8376,
          "time": 33.9934725,
          "velocity": 1
        },
        {
          "duration": 0.38960999999999757,
          "durationTicks": 96,
          "midi": 48,
          "name": "C3",
          "ticks": 8376,
          "time": 33.9934725,
          "velocity": 1
        },
        {
          "duration": 0.38960999999999757,
          "durationTicks": 96,
          "midi": 38,
          "name": "D2",
          "ticks": 8472,
          "time": 34.3830825,
          "velocity": 1
        },
        {
          "duration": 0.2922075000000035,
          "durationTicks": 72,
          "midi": 45,
          "name": "A2",
          "ticks": 8568,
          "time": 34.7726925,
          "velocity": 1
        },
        {
          "duration": 0.2922075000000035,
          "durationTicks": 72,
          "midi": 50,
          "name": "D3",
          "ticks": 8568,
          "time": 34.7726925,
          "velocity": 1
        },
        {
          "duration": 0.09740250000000117,
          "durationTicks": 24,
          "midi": 50,
          "name": "D3",
          "ticks": 8640,
          "time": 35.0649,
          "velocity": 1
        },
        {
          "duration": 0.09740250000000117,
          "durationTicks": 24,
          "midi": 38,
          "name": "D2",
          "ticks": 8664,
          "time": 35.1623025,
          "velocity": 1
        },
        {
          "duration": 0.09740249999999406,
          "durationTicks": 24,
          "midi": 50,
          "name": "D3",
          "ticks": 8688,
          "time": 35.259705000000004,
          "velocity": 1
        },
        {
          "duration": 0.19480500000000234,
          "durationTicks": 48,
          "midi": 41,
          "name": "F2",
          "ticks": 8712,
          "time": 35.3571075,
          "velocity": 1
        },
        {
          "duration": 0.19480500000000234,
          "durationTicks": 48,
          "midi": 45,
          "name": "A2",
          "ticks": 8760,
          "time": 35.5519125,
          "velocity": 1
        },
        {
          "duration": 0.19480499999999523,
          "durationTicks": 48,
          "midi": 38,
          "name": "D2",
          "ticks": 8808,
          "time": 35.7467175,
          "velocity": 1
        },
        {
          "duration": 0.2922075000000035,
          "durationTicks": 72,
          "midi": 34,
          "name": "A#1",
          "ticks": 8856,
          "time": 35.9415225,
          "velocity": 1
        },
        {
          "duration": 0.09740250000000117,
          "durationTicks": 24,
          "midi": 41,
          "name": "F2",
          "ticks": 8928,
          "time": 36.23373,
          "velocity": 1
        },
        {
          "duration": 0.19480499999999523,
          "durationTicks": 48,
          "midi": 34,
          "name": "A#1",
          "ticks": 8952,
          "time": 36.3311325,
          "velocity": 1
        },
        {
          "duration": 0.19480500000000234,
          "durationTicks": 48,
          "midi": 41,
          "name": "F2",
          "ticks": 9000,
          "time": 36.5259375,
          "velocity": 1
        },
        {
          "duration": 0.048701250000000584,
          "durationTicks": 12,
          "midi": 43,
          "name": "G2",
          "ticks": 9048,
          "time": 36.7207425,
          "velocity": 1
        },
        {
          "duration": 0.38960999999999757,
          "durationTicks": 96,
          "midi": 48,
          "name": "C3",
          "ticks": 9048,
          "time": 36.7207425,
          "velocity": 1
        },
        {
          "duration": 0.340908749999997,
          "durationTicks": 84,
          "midi": 43,
          "name": "G2",
          "ticks": 9060,
          "time": 36.76944375,
          "velocity": 1
        },
        {
          "duration": 0.19480500000000234,
          "durationTicks": 48,
          "midi": 43,
          "name": "G2",
          "ticks": 9144,
          "time": 37.1103525,
          "velocity": 1
        },
        {
          "duration": 0.3896100000000047,
          "durationTicks": 96,
          "midi": 48,
          "name": "C3",
          "ticks": 9144,
          "time": 37.1103525,
          "velocity": 1
        },
        {
          "duration": 0.19480500000000234,
          "durationTicks": 48,
          "midi": 43,
          "name": "G2",
          "ticks": 9192,
          "time": 37.3051575,
          "velocity": 1
        },
        {
          "duration": 0.38960999999999757,
          "durationTicks": 96,
          "midi": 38,
          "name": "D2",
          "ticks": 9240,
          "time": 37.4999625,
          "velocity": 1
        },
        {
          "duration": 0.2922075000000035,
          "durationTicks": 72,
          "midi": 45,
          "name": "A2",
          "ticks": 9336,
          "time": 37.8895725,
          "velocity": 1
        },
        {
          "duration": 0.2922075000000035,
          "durationTicks": 72,
          "midi": 50,
          "name": "D3",
          "ticks": 9336,
          "time": 37.8895725,
          "velocity": 1
        },
        {
          "duration": 0.09740250000000117,
          "durationTicks": 24,
          "midi": 50,
          "name": "D3",
          "ticks": 9408,
          "time": 38.18178,
          "velocity": 1
        },
        {
          "duration": 0.09740249999999406,
          "durationTicks": 24,
          "midi": 38,
          "name": "D2",
          "ticks": 9432,
          "time": 38.279182500000005,
          "velocity": 1
        },
        {
          "duration": 0.09740250000000117,
          "durationTicks": 24,
          "midi": 50,
          "name": "D3",
          "ticks": 9456,
          "time": 38.376585,
          "velocity": 1
        },
        {
          "duration": 0.19480500000000234,
          "durationTicks": 48,
          "midi": 41,
          "name": "F2",
          "ticks": 9480,
          "time": 38.4739875,
          "velocity": 1
        },
        {
          "duration": 0.19480500000000234,
          "durationTicks": 48,
          "midi": 45,
          "name": "A2",
          "ticks": 9528,
          "time": 38.6687925,
          "velocity": 1
        },
        {
          "duration": 0.19480499999999523,
          "durationTicks": 48,
          "midi": 38,
          "name": "D2",
          "ticks": 9576,
          "time": 38.863597500000004,
          "velocity": 1
        },
        {
          "duration": 0.2922075000000035,
          "durationTicks": 72,
          "midi": 34,
          "name": "A#1",
          "ticks": 9624,
          "time": 39.0584025,
          "velocity": 1
        },
        {
          "duration": 0.09740250000000117,
          "durationTicks": 24,
          "midi": 41,
          "name": "F2",
          "ticks": 9696,
          "time": 39.35061,
          "velocity": 1
        },
        {
          "duration": 0.19480499999999523,
          "durationTicks": 48,
          "midi": 34,
          "name": "A#1",
          "ticks": 9720,
          "time": 39.448012500000004,
          "velocity": 1
        },
        {
          "duration": 0.19480500000000234,
          "durationTicks": 48,
          "midi": 41,
          "name": "F2",
          "ticks": 9768,
          "time": 39.6428175,
          "velocity": 1
        },
        {
          "duration": 0.38960999999999757,
          "durationTicks": 96,
          "midi": 43,
          "name": "G2",
          "ticks": 9816,
          "time": 39.8376225,
          "velocity": 1
        },
        {
          "duration": 0.38960999999999757,
          "durationTicks": 96,
          "midi": 48,
          "name": "C3",
          "ticks": 9816,
          "time": 39.8376225,
          "velocity": 1
        },
        {
          "duration": 0.3896100000000047,
          "durationTicks": 96,
          "midi": 43,
          "name": "G2",
          "ticks": 9912,
          "time": 40.2272325,
          "velocity": 1
        },
        {
          "duration": 0.3896100000000047,
          "durationTicks": 96,
          "midi": 48,
          "name": "C3",
          "ticks": 9912,
          "time": 40.2272325,
          "velocity": 1
        },
        {
          "duration": 0.38960999999999757,
          "durationTicks": 96,
          "midi": 38,
          "name": "D2",
          "ticks": 10008,
          "time": 40.616842500000004,
          "velocity": 1
        },
        {
          "duration": 0.2922074999999964,
          "durationTicks": 72,
          "midi": 45,
          "name": "A2",
          "ticks": 10104,
          "time": 41.0064525,
          "velocity": 1
        },
        {
          "duration": 0.2922074999999964,
          "durationTicks": 72,
          "midi": 50,
          "name": "D3",
          "ticks": 10104,
          "time": 41.0064525,
          "velocity": 1
        },
        {
          "duration": 0.09740250000000117,
          "durationTicks": 24,
          "midi": 50,
          "name": "D3",
          "ticks": 10176,
          "time": 41.29866,
          "velocity": 1
        },
        {
          "duration": 0.09740250000000117,
          "durationTicks": 24,
          "midi": 38,
          "name": "D2",
          "ticks": 10200,
          "time": 41.3960625,
          "velocity": 1
        },
        {
          "duration": 0.09740250000000117,
          "durationTicks": 24,
          "midi": 50,
          "name": "D3",
          "ticks": 10224,
          "time": 41.493465,
          "velocity": 1
        },
        {
          "duration": 0.19480500000000234,
          "durationTicks": 48,
          "midi": 41,
          "name": "F2",
          "ticks": 10248,
          "time": 41.5908675,
          "velocity": 1
        },
        {
          "duration": 0.19480499999999523,
          "durationTicks": 48,
          "midi": 45,
          "name": "A2",
          "ticks": 10296,
          "time": 41.785672500000004,
          "velocity": 1
        },
        {
          "duration": 0.19480500000000234,
          "durationTicks": 48,
          "midi": 38,
          "name": "D2",
          "ticks": 10344,
          "time": 41.9804775,
          "velocity": 1
        },
        {
          "duration": 0.2922074999999964,
          "durationTicks": 72,
          "midi": 34,
          "name": "A#1",
          "ticks": 10392,
          "time": 42.1752825,
          "velocity": 1
        },
        {
          "duration": 0.09740250000000117,
          "durationTicks": 24,
          "midi": 41,
          "name": "F2",
          "ticks": 10464,
          "time": 42.46749,
          "velocity": 1
        },
        {
          "duration": 0.2922075000000035,
          "durationTicks": 72,
          "midi": 34,
          "name": "A#1",
          "ticks": 10488,
          "time": 42.5648925,
          "velocity": 1
        },
        {
          "duration": 0.09740250000000117,
          "durationTicks": 24,
          "midi": 41,
          "name": "F2",
          "ticks": 10560,
          "time": 42.8571,
          "velocity": 1
        },
        {
          "duration": 0.38960999999999757,
          "durationTicks": 96,
          "midi": 43,
          "name": "G2",
          "ticks": 10584,
          "time": 42.954502500000004,
          "velocity": 1
        },
        {
          "duration": 0.38960999999999757,
          "durationTicks": 96,
          "midi": 48,
          "name": "C3",
          "ticks": 10584,
          "time": 42.954502500000004,
          "velocity": 1
        },
        {
          "duration": 0.19480500000000234,
          "durationTicks": 48,
          "midi": 36,
          "name": "C2",
          "ticks": 10680,
          "time": 43.3441125,
          "velocity": 1
        },
        {
          "duration": 0.19480500000000234,
          "durationTicks": 48,
          "midi": 43,
          "name": "G2",
          "ticks": 10680,
          "time": 43.3441125,
          "velocity": 1
        },
        {
          "duration": 0.38960999999999757,
          "durationTicks": 96,
          "midi": 48,
          "name": "C3",
          "ticks": 10680,
          "time": 43.3441125,
          "velocity": 1
        },
        {
          "duration": 0.19480499999999523,
          "durationTicks": 48,
          "midi": 36,
          "name": "C2",
          "ticks": 10728,
          "time": 43.538917500000004,
          "velocity": 1
        },
        {
          "duration": 0.19480499999999523,
          "durationTicks": 48,
          "midi": 43,
          "name": "G2",
          "ticks": 10728,
          "time": 43.538917500000004,
          "velocity": 1
        },
        {
          "duration": 0.3896100000000047,
          "durationTicks": 96,
          "midi": 46,
          "name": "A#2",
          "ticks": 10776,
          "time": 43.7337225,
          "velocity": 1
        },
        {
          "duration": 0.3896100000000047,
          "durationTicks": 96,
          "midi": 34,
          "name": "A#1",
          "ticks": 10776,
          "time": 43.7337225,
          "velocity": 1
        },
        {
          "duration": 0.3896100000000047,
          "durationTicks": 96,
          "midi": 41,
          "name": "F2",
          "ticks": 10776,
          "time": 43.7337225,
          "velocity": 1
        },
        {
          "duration": 0.38960999999999757,
          "durationTicks": 96,
          "midi": 46,
          "name": "A#2",
          "ticks": 10872,
          "time": 44.123332500000004,
          "velocity": 1
        },
        {
          "duration": 0.38960999999999757,
          "durationTicks": 96,
          "midi": 34,
          "name": "A#1",
          "ticks": 10872,
          "time": 44.123332500000004,
          "velocity": 1
        },
        {
          "duration": 0.38960999999999757,
          "durationTicks": 96,
          "midi": 41,
          "name": "F2",
          "ticks": 10872,
          "time": 44.123332500000004,
          "velocity": 1
        },
        {
          "duration": 0.38960999999999757,
          "durationTicks": 96,
          "midi": 46,
          "name": "A#2",
          "ticks": 10968,
          "time": 44.5129425,
          "velocity": 1
        },
        {
          "duration": 0.38960999999999757,
          "durationTicks": 96,
          "midi": 34,
          "name": "A#1",
          "ticks": 10968,
          "time": 44.5129425,
          "velocity": 1
        },
        {
          "duration": 0.38960999999999757,
          "durationTicks": 96,
          "midi": 41,
          "name": "F2",
          "ticks": 10968,
          "time": 44.5129425,
          "velocity": 1
        },
        {
          "duration": 0.2922075000000035,
          "durationTicks": 72,
          "midi": 46,
          "name": "A#2",
          "ticks": 11064,
          "time": 44.9025525,
          "velocity": 1
        },
        {
          "duration": 0.2922075000000035,
          "durationTicks": 72,
          "midi": 34,
          "name": "A#1",
          "ticks": 11064,
          "time": 44.9025525,
          "velocity": 1
        },
        {
          "duration": 0.2922075000000035,
          "durationTicks": 72,
          "midi": 41,
          "name": "F2",
          "ticks": 11064,
          "time": 44.9025525,
          "velocity": 1
        },
        {
          "duration": 0.09740250000000117,
          "durationTicks": 24,
          "midi": 41,
          "name": "F2",
          "ticks": 11136,
          "time": 45.19476,
          "velocity": 1
        },
        {
          "duration": 0.38960999999999757,
          "durationTicks": 96,
          "midi": 41,
          "name": "F2",
          "ticks": 11160,
          "time": 45.2921625,
          "velocity": 1
        },
        {
          "duration": 0.38960999999999757,
          "durationTicks": 96,
          "midi": 29,
          "name": "F1",
          "ticks": 11160,
          "time": 45.2921625,
          "velocity": 1
        },
        {
          "duration": 0.38960999999999757,
          "durationTicks": 96,
          "midi": 36,
          "name": "C2",
          "ticks": 11160,
          "time": 45.2921625,
          "velocity": 1
        },
        {
          "duration": 0.38960999999999757,
          "durationTicks": 96,
          "midi": 41,
          "name": "F2",
          "ticks": 11256,
          "time": 45.6817725,
          "velocity": 1
        },
        {
          "duration": 0.38960999999999757,
          "durationTicks": 96,
          "midi": 29,
          "name": "F1",
          "ticks": 11256,
          "time": 45.6817725,
          "velocity": 1
        },
        {
          "duration": 0.38960999999999757,
          "durationTicks": 96,
          "midi": 36,
          "name": "C2",
          "ticks": 11256,
          "time": 45.6817725,
          "velocity": 1
        },
        {
          "duration": 0.3896100000000047,
          "durationTicks": 96,
          "midi": 41,
          "name": "F2",
          "ticks": 11352,
          "time": 46.0713825,
          "velocity": 1
        },
        {
          "duration": 0.19480500000000234,
          "durationTicks": 48,
          "midi": 29,
          "name": "F1",
          "ticks": 11352,
          "time": 46.0713825,
          "velocity": 1
        },
        {
          "duration": 0.3896100000000047,
          "durationTicks": 96,
          "midi": 36,
          "name": "C2",
          "ticks": 11352,
          "time": 46.0713825,
          "velocity": 1
        },
        {
          "duration": 0.19480500000000234,
          "durationTicks": 48,
          "midi": 29,
          "name": "F1",
          "ticks": 11400,
          "time": 46.2661875,
          "velocity": 1
        },
        {
          "duration": 0.38960999999999757,
          "durationTicks": 96,
          "midi": 41,
          "name": "F2",
          "ticks": 11448,
          "time": 46.4609925,
          "velocity": 1
        },
        {
          "duration": 0.2922074999999964,
          "durationTicks": 72,
          "midi": 29,
          "name": "F1",
          "ticks": 11448,
          "time": 46.4609925,
          "velocity": 1
        },
        {
          "duration": 0.38960999999999757,
          "durationTicks": 96,
          "midi": 36,
          "name": "C2",
          "ticks": 11448,
          "time": 46.4609925,
          "velocity": 1
        },
        {
          "duration": 0.09740250000000117,
          "durationTicks": 24,
          "midi": 36,
          "name": "C2",
          "ticks": 11520,
          "time": 46.7532,
          "velocity": 1
        },
        {
          "duration": 0.38960999999999757,
          "durationTicks": 96,
          "midi": 34,
          "name": "A#1",
          "ticks": 11544,
          "time": 46.8506025,
          "velocity": 1
        },
        {
          "duration": 0.38960999999999757,
          "durationTicks": 96,
          "midi": 46,
          "name": "A#2",
          "ticks": 11544,
          "time": 46.8506025,
          "velocity": 1
        },
        {
          "duration": 0.2922075000000035,
          "durationTicks": 72,
          "midi": 34,
          "name": "A#1",
          "ticks": 11640,
          "time": 47.2402125,
          "velocity": 1
        },
        {
          "duration": 0.2922075000000035,
          "durationTicks": 72,
          "midi": 46,
          "name": "A#2",
          "ticks": 11640,
          "time": 47.2402125,
          "velocity": 1
        },
        {
          "duration": 0.09740250000000117,
          "durationTicks": 24,
          "midi": 41,
          "name": "F2",
          "ticks": 11712,
          "time": 47.53242,
          "velocity": 1
        },
        {
          "duration": 0.38960999999999757,
          "durationTicks": 96,
          "midi": 36,
          "name": "C2",
          "ticks": 11736,
          "time": 47.6298225,
          "velocity": 1
        },
        {
          "duration": 0.38960999999999757,
          "durationTicks": 96,
          "midi": 48,
          "name": "C3",
          "ticks": 11736,
          "time": 47.6298225,
          "velocity": 1
        },
        {
          "duration": 0.38960999999999757,
          "durationTicks": 96,
          "midi": 36,
          "name": "C2",
          "ticks": 11832,
          "time": 48.0194325,
          "velocity": 1
        },
        {
          "duration": 0.38960999999999757,
          "durationTicks": 96,
          "midi": 48,
          "name": "C3",
          "ticks": 11832,
          "time": 48.0194325,
          "velocity": 1
        },
        {
          "duration": 0.3896100000000047,
          "durationTicks": 96,
          "midi": 38,
          "name": "D2",
          "ticks": 11928,
          "time": 48.4090425,
          "velocity": 1
        },
        {
          "duration": 0.3896100000000047,
          "durationTicks": 96,
          "midi": 50,
          "name": "D3",
          "ticks": 11928,
          "time": 48.4090425,
          "velocity": 1
        },
        {
          "duration": 0.09740250000000117,
          "durationTicks": 24,
          "midi": 38,
          "name": "D2",
          "ticks": 12024,
          "time": 48.7986525,
          "velocity": 1
        },
        {
          "duration": 0.09740249999999406,
          "durationTicks": 24,
          "midi": 50,
          "name": "D3",
          "ticks": 12048,
          "time": 48.896055000000004,
          "velocity": 1
        },
        {
          "duration": 0.09740250000000117,
          "durationTicks": 24,
          "midi": 38,
          "name": "D2",
          "ticks": 12072,
          "time": 48.9934575,
          "velocity": 1
        },
        {
          "duration": 0.09740250000000117,
          "durationTicks": 24,
          "midi": 50,
          "name": "D3",
          "ticks": 12096,
          "time": 49.09086,
          "velocity": 1
        },
        {
          "duration": 0.19480500000000234,
          "durationTicks": 48,
          "midi": 45,
          "name": "A2",
          "ticks": 12120,
          "time": 49.1882625,
          "velocity": 1
        },
        {
          "duration": 0.19480499999999523,
          "durationTicks": 48,
          "midi": 43,
          "name": "G2",
          "ticks": 12168,
          "time": 49.3830675,
          "velocity": 1
        },
        {
          "duration": 0.19480500000000234,
          "durationTicks": 48,
          "midi": 41,
          "name": "F2",
          "ticks": 12216,
          "time": 49.5778725,
          "velocity": 1
        },
        {
          "duration": 0.19480500000000234,
          "durationTicks": 48,
          "midi": 38,
          "name": "D2",
          "ticks": 12264,
          "time": 49.7726775,
          "velocity": 1
        },
        {
          "duration": 0.38960999999999757,
          "durationTicks": 96,
          "midi": 46,
          "name": "A#2",
          "ticks": 12312,
          "time": 49.9674825,
          "velocity": 1
        },
        {
          "duration": 0.38960999999999757,
          "durationTicks": 96,
          "midi": 34,
          "name": "A#1",
          "ticks": 12312,
          "time": 49.9674825,
          "velocity": 1
        },
        {
          "duration": 0.38960999999999757,
          "durationTicks": 96,
          "midi": 41,
          "name": "F2",
          "ticks": 12312,
          "time": 49.9674825,
          "velocity": 1
        },
        {
          "duration": 0.3896100000000047,
          "durationTicks": 96,
          "midi": 46,
          "name": "A#2",
          "ticks": 12408,
          "time": 50.3570925,
          "velocity": 1
        },
        {
          "duration": 0.3896100000000047,
          "durationTicks": 96,
          "midi": 34,
          "name": "A#1",
          "ticks": 12408,
          "time": 50.3570925,
          "velocity": 1
        },
        {
          "duration": 0.3896100000000047,
          "durationTicks": 96,
          "midi": 41,
          "name": "F2",
          "ticks": 12408,
          "time": 50.3570925,
          "velocity": 1
        },
        {
          "duration": 0.38960999999999757,
          "durationTicks": 96,
          "midi": 46,
          "name": "A#2",
          "ticks": 12504,
          "time": 50.746702500000005,
          "velocity": 1
        },
        {
          "duration": 0.38960999999999757,
          "durationTicks": 96,
          "midi": 34,
          "name": "A#1",
          "ticks": 12504,
          "time": 50.746702500000005,
          "velocity": 1
        },
        {
          "duration": 0.38960999999999757,
          "durationTicks": 96,
          "midi": 41,
          "name": "F2",
          "ticks": 12504,
          "time": 50.746702500000005,
          "velocity": 1
        },
        {
          "duration": 0.2922074999999964,
          "durationTicks": 72,
          "midi": 46,
          "name": "A#2",
          "ticks": 12600,
          "time": 51.1363125,
          "velocity": 1
        },
        {
          "duration": 0.2922074999999964,
          "durationTicks": 72,
          "midi": 34,
          "name": "A#1",
          "ticks": 12600,
          "time": 51.1363125,
          "velocity": 1
        },
        {
          "duration": 0.2922074999999964,
          "durationTicks": 72,
          "midi": 41,
          "name": "F2",
          "ticks": 12600,
          "time": 51.1363125,
          "velocity": 1
        },
        {
          "duration": 0.09740250000000117,
          "durationTicks": 24,
          "midi": 41,
          "name": "F2",
          "ticks": 12672,
          "time": 51.42852,
          "velocity": 1
        },
        {
          "duration": 0.3896100000000047,
          "durationTicks": 96,
          "midi": 41,
          "name": "F2",
          "ticks": 12696,
          "time": 51.5259225,
          "velocity": 1
        },
        {
          "duration": 0.3896100000000047,
          "durationTicks": 96,
          "midi": 29,
          "name": "F1",
          "ticks": 12696,
          "time": 51.5259225,
          "velocity": 1
        },
        {
          "duration": 0.3896100000000047,
          "durationTicks": 96,
          "midi": 36,
          "name": "C2",
          "ticks": 12696,
          "time": 51.5259225,
          "velocity": 1
        },
        {
          "duration": 0.38960999999999757,
          "durationTicks": 96,
          "midi": 41,
          "name": "F2",
          "ticks": 12792,
          "time": 51.915532500000005,
          "velocity": 1
        },
        {
          "duration": 0.38960999999999757,
          "durationTicks": 96,
          "midi": 29,
          "name": "F1",
          "ticks": 12792,
          "time": 51.915532500000005,
          "velocity": 1
        },
        {
          "duration": 0.38960999999999757,
          "durationTicks": 96,
          "midi": 36,
          "name": "C2",
          "ticks": 12792,
          "time": 51.915532500000005,
          "velocity": 1
        },
        {
          "duration": 0.38960999999999757,
          "durationTicks": 96,
          "midi": 41,
          "name": "F2",
          "ticks": 12888,
          "time": 52.3051425,
          "velocity": 1
        },
        {
          "duration": 0.19480500000000234,
          "durationTicks": 48,
          "midi": 29,
          "name": "F1",
          "ticks": 12888,
          "time": 52.3051425,
          "velocity": 1
        },
        {
          "duration": 0.38960999999999757,
          "durationTicks": 96,
          "midi": 36,
          "name": "C2",
          "ticks": 12888,
          "time": 52.3051425,
          "velocity": 1
        },
        {
          "duration": 0.19480499999999523,
          "durationTicks": 48,
          "midi": 29,
          "name": "F1",
          "ticks": 12936,
          "time": 52.499947500000005,
          "velocity": 1
        },
        {
          "duration": 0.2922075000000035,
          "durationTicks": 72,
          "midi": 41,
          "name": "F2",
          "ticks": 12984,
          "time": 52.6947525,
          "velocity": 1
        },
        {
          "duration": 0.2922075000000035,
          "durationTicks": 72,
          "midi": 29,
          "name": "F1",
          "ticks": 12984,
          "time": 52.6947525,
          "velocity": 1
        },
        {
          "duration": 0.2922075000000035,
          "durationTicks": 72,
          "midi": 36,
          "name": "C2",
          "ticks": 12984,
          "time": 52.6947525,
          "velocity": 1
        },
        {
          "duration": 0.09740250000000117,
          "durationTicks": 24,
          "midi": 36,
          "name": "C2",
          "ticks": 13056,
          "time": 52.98696,
          "velocity": 1
        },
        {
          "duration": 0.19480499999999523,
          "durationTicks": 48,
          "midi": 31,
          "name": "G1",
          "ticks": 13080,
          "time": 53.084362500000005,
          "velocity": 1
        },
        {
          "duration": 0.19480499999999523,
          "durationTicks": 48,
          "midi": 43,
          "name": "G2",
          "ticks": 13080,
          "time": 53.084362500000005,
          "velocity": 1
        },
        {
          "duration": 0.19480500000000234,
          "durationTicks": 48,
          "midi": 31,
          "name": "G1",
          "ticks": 13128,
          "time": 53.2791675,
          "velocity": 1
        },
        {
          "duration": 0.19480500000000234,
          "durationTicks": 48,
          "midi": 43,
          "name": "G2",
          "ticks": 13128,
          "time": 53.2791675,
          "velocity": 1
        },
        {
          "duration": 0.19480499999999523,
          "durationTicks": 48,
          "midi": 31,
          "name": "G1",
          "ticks": 13224,
          "time": 53.668777500000004,
          "velocity": 1
        },
        {
          "duration": 0.19480499999999523,
          "durationTicks": 48,
          "midi": 43,
          "name": "G2",
          "ticks": 13224,
          "time": 53.668777500000004,
          "velocity": 1
        },
        {
          "duration": 0.19480500000000234,
          "durationTicks": 48,
          "midi": 31,
          "name": "G1",
          "ticks": 13272,
          "time": 53.8635825,
          "velocity": 1
        },
        {
          "duration": 0.19480500000000234,
          "durationTicks": 48,
          "midi": 43,
          "name": "G2",
          "ticks": 13272,
          "time": 53.8635825,
          "velocity": 1
        },
        {
          "duration": 0.19480499999999523,
          "durationTicks": 48,
          "midi": 31,
          "name": "G1",
          "ticks": 13368,
          "time": 54.253192500000004,
          "velocity": 1
        },
        {
          "duration": 0.19480499999999523,
          "durationTicks": 48,
          "midi": 43,
          "name": "G2",
          "ticks": 13368,
          "time": 54.253192500000004,
          "velocity": 1
        },
        {
          "duration": 0.19480500000000234,
          "durationTicks": 48,
          "midi": 45,
          "name": "A2",
          "ticks": 13464,
          "time": 54.6428025,
          "velocity": 1
        },
        {
          "duration": 0.19480500000000234,
          "durationTicks": 48,
          "midi": 33,
          "name": "A1",
          "ticks": 13464,
          "time": 54.6428025,
          "velocity": 1
        },
        {
          "duration": 0.19480500000000234,
          "durationTicks": 48,
          "midi": 41,
          "name": "F2",
          "ticks": 13464,
          "time": 54.6428025,
          "velocity": 1
        },
        {
          "duration": 0.19480500000000234,
          "durationTicks": 48,
          "midi": 45,
          "name": "A2",
          "ticks": 13560,
          "time": 55.0324125,
          "velocity": 1
        },
        {
          "duration": 0.19480500000000234,
          "durationTicks": 48,
          "midi": 33,
          "name": "A1",
          "ticks": 13560,
          "time": 55.0324125,
          "velocity": 1
        },
        {
          "duration": 0.19480500000000234,
          "durationTicks": 48,
          "midi": 41,
          "name": "F2",
          "ticks": 13560,
          "time": 55.0324125,
          "velocity": 1
        },
        {
          "duration": 0.19480500000000234,
          "durationTicks": 48,
          "midi": 45,
          "name": "A2",
          "ticks": 13608,
          "time": 55.2272175,
          "velocity": 1
        },
        {
          "duration": 0.19480500000000234,
          "durationTicks": 48,
          "midi": 33,
          "name": "A1",
          "ticks": 13608,
          "time": 55.2272175,
          "velocity": 1
        },
        {
          "duration": 0.19480500000000234,
          "durationTicks": 48,
          "midi": 41,
          "name": "F2",
          "ticks": 13608,
          "time": 55.2272175,
          "velocity": 1
        },
        {
          "duration": 0.2922075000000035,
          "durationTicks": 72,
          "midi": 50,
          "name": "D3",
          "ticks": 13848,
          "time": 56.2012425,
          "velocity": 1
        },
        {
          "duration": 0.2922075000000035,
          "durationTicks": 72,
          "midi": 38,
          "name": "D2",
          "ticks": 13848,
          "time": 56.2012425,
          "velocity": 1
        },
        {
          "duration": 0.2922075000000035,
          "durationTicks": 72,
          "midi": 45,
          "name": "A2",
          "ticks": 13848,
          "time": 56.2012425,
          "velocity": 1
        },
        {
          "duration": 0.09740250000000117,
          "durationTicks": 24,
          "midi": 43,
          "name": "G2",
          "ticks": 13920,
          "time": 56.49345,
          "velocity": 1
        },
        {
          "duration": 0.19480499999999523,
          "durationTicks": 48,
          "midi": 50,
          "name": "D3",
          "ticks": 13944,
          "time": 56.590852500000004,
          "velocity": 1
        },
        {
          "duration": 0.19480500000000234,
          "durationTicks": 48,
          "midi": 48,
          "name": "C3",
          "ticks": 13992,
          "time": 56.7856575,
          "velocity": 1
        },
        {
          "duration": 0.19480500000000234,
          "durationTicks": 48,
          "midi": 53,
          "name": "F3",
          "ticks": 13992,
          "time": 56.7856575,
          "velocity": 1
        },
        {
          "duration": 0.19480500000000234,
          "durationTicks": 48,
          "midi": 53,
          "name": "F3",
          "ticks": 14040,
          "time": 56.9804625,
          "velocity": 1
        },
        {
          "duration": 0.19480500000000234,
          "durationTicks": 48,
          "midi": 46,
          "name": "A#2",
          "ticks": 14040,
          "time": 56.9804625,
          "velocity": 1
        },
        {
          "duration": 0.09740250000000117,
          "durationTicks": 24,
          "midi": 46,
          "name": "A#2",
          "ticks": 14088,
          "time": 57.175267500000004,
          "velocity": 1
        },
        {
          "duration": 0.09740249999999406,
          "durationTicks": 24,
          "midi": 41,
          "name": "F2",
          "ticks": 14112,
          "time": 57.272670000000005,
          "velocity": 1
        },
        {
          "duration": 0.19480500000000234,
          "durationTicks": 48,
          "midi": 34,
          "name": "A#1",
          "ticks": 14136,
          "time": 57.3700725,
          "velocity": 1
        },
        {
          "duration": 0.19480500000000234,
          "durationTicks": 48,
          "midi": 41,
          "name": "F2",
          "ticks": 14184,
          "time": 57.5648775,
          "velocity": 1
        },
        {
          "duration": 0.19480500000000234,
          "durationTicks": 48,
          "midi": 46,
          "name": "A#2",
          "ticks": 14184,
          "time": 57.5648775,
          "velocity": 1
        },
        {
          "duration": 0.2922074999999964,
          "durationTicks": 72,
          "midi": 48,
          "name": "C3",
          "ticks": 14232,
          "time": 57.759682500000004,
          "velocity": 1
        },
        {
          "duration": 0.2922074999999964,
          "durationTicks": 72,
          "midi": 36,
          "name": "C2",
          "ticks": 14232,
          "time": 57.759682500000004,
          "velocity": 1
        },
        {
          "duration": 0.2922074999999964,
          "durationTicks": 72,
          "midi": 43,
          "name": "G2",
          "ticks": 14232,
          "time": 57.759682500000004,
          "velocity": 1
        },
        {
          "duration": 0.09740250000000117,
          "durationTicks": 24,
          "midi": 41,
          "name": "F2",
          "ticks": 14304,
          "time": 58.05189,
          "velocity": 1
        },
        {
          "duration": 0.19480500000000234,
          "durationTicks": 48,
          "midi": 48,
          "name": "C3",
          "ticks": 14328,
          "time": 58.1492925,
          "velocity": 1
        },
        {
          "duration": 0.19480499999999523,
          "durationTicks": 48,
          "midi": 48,
          "name": "C3",
          "ticks": 14376,
          "time": 58.344097500000004,
          "velocity": 1
        },
        {
          "duration": 0.19480499999999523,
          "durationTicks": 48,
          "midi": 53,
          "name": "F3",
          "ticks": 14376,
          "time": 58.344097500000004,
          "velocity": 1
        },
        {
          "duration": 0.2922075000000035,
          "durationTicks": 72,
          "midi": 53,
          "name": "F3",
          "ticks": 14424,
          "time": 58.5389025,
          "velocity": 1
        },
        {
          "duration": 0.2922075000000035,
          "durationTicks": 72,
          "midi": 41,
          "name": "F2",
          "ticks": 14424,
          "time": 58.5389025,
          "velocity": 1
        },
        {
          "duration": 0.2922075000000035,
          "durationTicks": 72,
          "midi": 48,
          "name": "C3",
          "ticks": 14424,
          "time": 58.5389025,
          "velocity": 1
        },
        {
          "duration": 0.09740250000000117,
          "durationTicks": 24,
          "midi": 41,
          "name": "F2",
          "ticks": 14496,
          "time": 58.83111,
          "velocity": 1
        },
        {
          "duration": 0.19480499999999523,
          "durationTicks": 48,
          "midi": 41,
          "name": "F2",
          "ticks": 14520,
          "time": 58.928512500000004,
          "velocity": 1
        },
        {
          "duration": 0.19480500000000234,
          "durationTicks": 48,
          "midi": 53,
          "name": "F3",
          "ticks": 14568,
          "time": 59.1233175,
          "velocity": 1
        },
        {
          "duration": 0.19480500000000234,
          "durationTicks": 48,
          "midi": 46,
          "name": "A#2",
          "ticks": 14568,
          "time": 59.1233175,
          "velocity": 1
        },
        {
          "duration": 0.2922075000000035,
          "durationTicks": 72,
          "midi": 50,
          "name": "D3",
          "ticks": 14616,
          "time": 59.3181225,
          "velocity": 1
        },
        {
          "duration": 0.2922075000000035,
          "durationTicks": 72,
          "midi": 38,
          "name": "D2",
          "ticks": 14616,
          "time": 59.3181225,
          "velocity": 1
        },
        {
          "duration": 0.2922075000000035,
          "durationTicks": 72,
          "midi": 45,
          "name": "A2",
          "ticks": 14616,
          "time": 59.3181225,
          "velocity": 1
        },
        {
          "duration": 0.09740249999999406,
          "durationTicks": 24,
          "midi": 43,
          "name": "G2",
          "ticks": 14688,
          "time": 59.610330000000005,
          "velocity": 1
        },
        {
          "duration": 0.19480500000000234,
          "durationTicks": 48,
          "midi": 50,
          "name": "D3",
          "ticks": 14712,
          "time": 59.7077325,
          "velocity": 1
        },
        {
          "duration": 0.19480500000000234,
          "durationTicks": 48,
          "midi": 48,
          "name": "C3",
          "ticks": 14760,
          "time": 59.9025375,
          "velocity": 1
        },
        {
          "duration": 0.19480500000000234,
          "durationTicks": 48,
          "midi": 53,
          "name": "F3",
          "ticks": 14760,
          "time": 59.9025375,
          "velocity": 1
        },
        {
          "duration": 0.19480499999999523,
          "durationTicks": 48,
          "midi": 46,
          "name": "A#2",
          "ticks": 14808,
          "time": 60.0973425,
          "velocity": 1
        },
        {
          "duration": 0.19480499999999523,
          "durationTicks": 48,
          "midi": 53,
          "name": "F3",
          "ticks": 14808,
          "time": 60.0973425,
          "velocity": 1
        },
        {
          "duration": 0.09740250000000117,
          "durationTicks": 24,
          "midi": 46,
          "name": "A#2",
          "ticks": 14856,
          "time": 60.2921475,
          "velocity": 1
        },
        {
          "duration": 0.09740250000000117,
          "durationTicks": 24,
          "midi": 41,
          "name": "F2",
          "ticks": 14880,
          "time": 60.38955,
          "velocity": 1
        },
        {
          "duration": 0.19480500000000234,
          "durationTicks": 48,
          "midi": 34,
          "name": "A#1",
          "ticks": 14904,
          "time": 60.4869525,
          "velocity": 1
        },
        {
          "duration": 0.19480499999999523,
          "durationTicks": 48,
          "midi": 41,
          "name": "F2",
          "ticks": 14952,
          "time": 60.6817575,
          "velocity": 1
        },
        {
          "duration": 0.19480499999999523,
          "durationTicks": 48,
          "midi": 46,
          "name": "A#2",
          "ticks": 14952,
          "time": 60.6817575,
          "velocity": 1
        },
        {
          "duration": 0.2922075000000035,
          "durationTicks": 72,
          "midi": 48,
          "name": "C3",
          "ticks": 15000,
          "time": 60.8765625,
          "velocity": 1
        },
        {
          "duration": 0.2922075000000035,
          "durationTicks": 72,
          "midi": 36,
          "name": "C2",
          "ticks": 15000,
          "time": 60.8765625,
          "velocity": 1
        },
        {
          "duration": 0.2922075000000035,
          "durationTicks": 72,
          "midi": 43,
          "name": "G2",
          "ticks": 15000,
          "time": 60.8765625,
          "velocity": 1
        },
        {
          "duration": 0.09740250000000117,
          "durationTicks": 24,
          "midi": 41,
          "name": "F2",
          "ticks": 15072,
          "time": 61.16877,
          "velocity": 1
        },
        {
          "duration": 0.19480499999999523,
          "durationTicks": 48,
          "midi": 48,
          "name": "C3",
          "ticks": 15096,
          "time": 61.2661725,
          "velocity": 1
        },
        {
          "duration": 0.19480500000000234,
          "durationTicks": 48,
          "midi": 48,
          "name": "C3",
          "ticks": 15144,
          "time": 61.4609775,
          "velocity": 1
        },
        {
          "duration": 0.19480500000000234,
          "durationTicks": 48,
          "midi": 53,
          "name": "F3",
          "ticks": 15144,
          "time": 61.4609775,
          "velocity": 1
        },
        {
          "duration": 0.2922075000000035,
          "durationTicks": 72,
          "midi": 53,
          "name": "F3",
          "ticks": 15192,
          "time": 61.6557825,
          "velocity": 1
        },
        {
          "duration": 0.2922075000000035,
          "durationTicks": 72,
          "midi": 41,
          "name": "F2",
          "ticks": 15192,
          "time": 61.6557825,
          "velocity": 1
        },
        {
          "duration": 0.2922075000000035,
          "durationTicks": 72,
          "midi": 48,
          "name": "C3",
          "ticks": 15192,
          "time": 61.6557825,
          "velocity": 1
        },
        {
          "duration": 0.09740249999999406,
          "durationTicks": 24,
          "midi": 41,
          "name": "F2",
          "ticks": 15264,
          "time": 61.947990000000004,
          "velocity": 1
        },
        {
          "duration": 0.19480500000000234,
          "durationTicks": 48,
          "midi": 41,
          "name": "F2",
          "ticks": 15288,
          "time": 62.0453925,
          "velocity": 1
        },
        {
          "duration": 0.19480500000000234,
          "durationTicks": 48,
          "midi": 53,
          "name": "F3",
          "ticks": 15336,
          "time": 62.2401975,
          "velocity": 1
        },
        {
          "duration": 0.19480500000000234,
          "durationTicks": 48,
          "midi": 46,
          "name": "A#2",
          "ticks": 15336,
          "time": 62.2401975,
          "velocity": 1
        },
        {
          "duration": 0.2922074999999964,
          "durationTicks": 72,
          "midi": 50,
          "name": "D3",
          "ticks": 15384,
          "time": 62.4350025,
          "velocity": 1
        },
        {
          "duration": 0.2922074999999964,
          "durationTicks": 72,
          "midi": 38,
          "name": "D2",
          "ticks": 15384,
          "time": 62.4350025,
          "velocity": 1
        },
        {
          "duration": 0.2922074999999964,
          "durationTicks": 72,
          "midi": 45,
          "name": "A2",
          "ticks": 15384,
          "time": 62.4350025,
          "velocity": 1
        },
        {
          "duration": 0.09740250000000117,
          "durationTicks": 24,
          "midi": 43,
          "name": "G2",
          "ticks": 15456,
          "time": 62.72721,
          "velocity": 1
        },
        {
          "duration": 0.19480500000000234,
          "durationTicks": 48,
          "midi": 50,
          "name": "D3",
          "ticks": 15480,
          "time": 62.8246125,
          "velocity": 1
        },
        {
          "duration": 0.19480500000000234,
          "durationTicks": 48,
          "midi": 48,
          "name": "C3",
          "ticks": 15528,
          "time": 63.0194175,
          "velocity": 1
        },
        {
          "duration": 0.19480500000000234,
          "durationTicks": 48,
          "midi": 53,
          "name": "F3",
          "ticks": 15528,
          "time": 63.0194175,
          "velocity": 1
        },
        {
          "duration": 0.19480499999999523,
          "durationTicks": 48,
          "midi": 46,
          "name": "A#2",
          "ticks": 15576,
          "time": 63.214222500000005,
          "velocity": 1
        },
        {
          "duration": 0.19480499999999523,
          "durationTicks": 48,
          "midi": 53,
          "name": "F3",
          "ticks": 15576,
          "time": 63.214222500000005,
          "velocity": 1
        },
        {
          "duration": 0.09740250000000117,
          "durationTicks": 24,
          "midi": 46,
          "name": "A#2",
          "ticks": 15624,
          "time": 63.4090275,
          "velocity": 1
        },
        {
          "duration": 0.09740250000000117,
          "durationTicks": 24,
          "midi": 41,
          "name": "F2",
          "ticks": 15648,
          "time": 63.50643,
          "velocity": 1
        },
        {
          "duration": 0.19480500000000234,
          "durationTicks": 48,
          "midi": 34,
          "name": "A#1",
          "ticks": 15672,
          "time": 63.6038325,
          "velocity": 1
        },
        {
          "duration": 0.19480499999999523,
          "durationTicks": 48,
          "midi": 41,
          "name": "F2",
          "ticks": 15720,
          "time": 63.798637500000005,
          "velocity": 1
        },
        {
          "duration": 0.19480499999999523,
          "durationTicks": 48,
          "midi": 46,
          "name": "A#2",
          "ticks": 15720,
          "time": 63.798637500000005,
          "velocity": 1
        },
        {
          "duration": 0.2922075000000035,
          "durationTicks": 72,
          "midi": 48,
          "name": "C3",
          "ticks": 15768,
          "time": 63.9934425,
          "velocity": 1
        },
        {
          "duration": 0.2922075000000035,
          "durationTicks": 72,
          "midi": 36,
          "name": "C2",
          "ticks": 15768,
          "time": 63.9934425,
          "velocity": 1
        },
        {
          "duration": 0.2922075000000035,
          "durationTicks": 72,
          "midi": 43,
          "name": "G2",
          "ticks": 15768,
          "time": 63.9934425,
          "velocity": 1
        },
        {
          "duration": 0.09740250000000117,
          "durationTicks": 24,
          "midi": 41,
          "name": "F2",
          "ticks": 15840,
          "time": 64.28565,
          "velocity": 1
        },
        {
          "duration": 0.19480500000000234,
          "durationTicks": 48,
          "midi": 48,
          "name": "C3",
          "ticks": 15864,
          "time": 64.3830525,
          "velocity": 1
        },
        {
          "duration": 0.19480499999998813,
          "durationTicks": 48,
          "midi": 48,
          "name": "C3",
          "ticks": 15912,
          "time": 64.57785750000001,
          "velocity": 1
        },
        {
          "duration": 0.19480499999998813,
          "durationTicks": 48,
          "midi": 53,
          "name": "F3",
          "ticks": 15912,
          "time": 64.57785750000001,
          "velocity": 1
        },
        {
          "duration": 0.2922075000000035,
          "durationTicks": 72,
          "midi": 41,
          "name": "F2",
          "ticks": 15960,
          "time": 64.7726625,
          "velocity": 1
        },
        {
          "duration": 0.2922075000000035,
          "durationTicks": 72,
          "midi": 48,
          "name": "C3",
          "ticks": 15960,
          "time": 64.7726625,
          "velocity": 1
        },
        {
          "duration": 0.09740250000000117,
          "durationTicks": 24,
          "midi": 41,
          "name": "F2",
          "ticks": 16032,
          "time": 65.06487,
          "velocity": 1
        },
        {
          "duration": 0.19480500000000234,
          "durationTicks": 48,
          "midi": 41,
          "name": "F2",
          "ticks": 16056,
          "time": 65.1622725,
          "velocity": 1
        },
        {
          "duration": 0.19480500000000234,
          "durationTicks": 48,
          "midi": 53,
          "name": "F3",
          "ticks": 16104,
          "time": 65.3570775,
          "velocity": 1
        },
        {
          "duration": 0.19480500000000234,
          "durationTicks": 48,
          "midi": 46,
          "name": "A#2",
          "ticks": 16104,
          "time": 65.3570775,
          "velocity": 1
        },
        {
          "duration": 0.2922075000000035,
          "durationTicks": 72,
          "midi": 46,
          "name": "A#2",
          "ticks": 16152,
          "time": 65.5518825,
          "velocity": 1
        },
        {
          "duration": 0.2922075000000035,
          "durationTicks": 72,
          "midi": 34,
          "name": "A#1",
          "ticks": 16152,
          "time": 65.5518825,
          "velocity": 1
        },
        {
          "duration": 0.2922075000000035,
          "durationTicks": 72,
          "midi": 41,
          "name": "F2",
          "ticks": 16152,
          "time": 65.5518825,
          "velocity": 1
        },
        {
          "duration": 0.09740249999998696,
          "durationTicks": 24,
          "midi": 39,
          "name": "D#2",
          "ticks": 16224,
          "time": 65.84409000000001,
          "velocity": 1
        },
        {
          "duration": 0.19480500000000234,
          "durationTicks": 48,
          "midi": 34,
          "name": "A#1",
          "ticks": 16248,
          "time": 65.9414925,
          "velocity": 1
        },
        {
          "duration": 0.19480500000000234,
          "durationTicks": 48,
          "midi": 46,
          "name": "A#2",
          "ticks": 16296,
          "time": 66.1362975,
          "velocity": 1
        },
        {
          "duration": 0.19480500000000234,
          "durationTicks": 48,
          "midi": 39,
          "name": "D#2",
          "ticks": 16296,
          "time": 66.1362975,
          "velocity": 1
        },
        {
          "duration": 0.2922075000000035,
          "durationTicks": 72,
          "midi": 45,
          "name": "A2",
          "ticks": 16344,
          "time": 66.3311025,
          "velocity": 1
        },
        {
          "duration": 0.2922075000000035,
          "durationTicks": 72,
          "midi": 33,
          "name": "A1",
          "ticks": 16344,
          "time": 66.3311025,
          "velocity": 1
        },
        {
          "duration": 0.2922075000000035,
          "durationTicks": 72,
          "midi": 40,
          "name": "E2",
          "ticks": 16344,
          "time": 66.3311025,
          "velocity": 1
        },
        {
          "duration": 0.09740250000000117,
          "durationTicks": 24,
          "midi": 40,
          "name": "E2",
          "ticks": 16416,
          "time": 66.62331,
          "velocity": 1
        },
        {
          "duration": 0.19480500000000234,
          "durationTicks": 48,
          "midi": 33,
          "name": "A1",
          "ticks": 16440,
          "time": 66.7207125,
          "velocity": 1
        },
        {
          "duration": 0.19480499999998813,
          "durationTicks": 48,
          "midi": 40,
          "name": "E2",
          "ticks": 16488,
          "time": 66.9155175,
          "velocity": 1
        },
        {
          "duration": 0.19480499999998813,
          "durationTicks": 48,
          "midi": 45,
          "name": "A2",
          "ticks": 16488,
          "time": 66.9155175,
          "velocity": 1
        },
        {
          "duration": 0.3896100000000047,
          "durationTicks": 96,
          "midi": 34,
          "name": "A#1",
          "ticks": 16536,
          "time": 67.1103225,
          "velocity": 1
        },
        {
          "duration": 0.3896100000000047,
          "durationTicks": 96,
          "midi": 46,
          "name": "A#2",
          "ticks": 16536,
          "time": 67.1103225,
          "velocity": 1
        },
        {
          "duration": 0.3896100000000047,
          "durationTicks": 96,
          "midi": 41,
          "name": "F2",
          "ticks": 16536,
          "time": 67.1103225,
          "velocity": 1
        },
        {
          "duration": 0.3896100000000047,
          "durationTicks": 96,
          "midi": 36,
          "name": "C2",
          "ticks": 16632,
          "time": 67.4999325,
          "velocity": 1
        },
        {
          "duration": 0.19480500000000234,
          "durationTicks": 48,
          "midi": 48,
          "name": "C3",
          "ticks": 16632,
          "time": 67.4999325,
          "velocity": 1
        },
        {
          "duration": 0.19480500000000234,
          "durationTicks": 48,
          "midi": 43,
          "name": "G2",
          "ticks": 16632,
          "time": 67.4999325,
          "velocity": 1
        },
        {
          "duration": 0.38960999999999046,
          "durationTicks": 96,
          "midi": 50,
          "name": "D3",
          "ticks": 16728,
          "time": 67.8895425,
          "velocity": 1
        },
        {
          "duration": 0.38960999999999046,
          "durationTicks": 96,
          "midi": 38,
          "name": "D2",
          "ticks": 16728,
          "time": 67.8895425,
          "velocity": 1
        },
        {
          "duration": 0.38960999999999046,
          "durationTicks": 96,
          "midi": 45,
          "name": "A2",
          "ticks": 16728,
          "time": 67.8895425,
          "velocity": 1
        },
        {
          "duration": 0.19480500000000234,
          "durationTicks": 48,
          "midi": 38,
          "name": "D2",
          "ticks": 16824,
          "time": 68.2791525,
          "velocity": 1
        },
        {
          "duration": 0.19480500000000234,
          "durationTicks": 48,
          "midi": 38,
          "name": "D2",
          "ticks": 16872,
          "time": 68.4739575,
          "velocity": 1
        },
        {
          "duration": 0.2922075000000035,
          "durationTicks": 72,
          "midi": 50,
          "name": "D3",
          "ticks": 16920,
          "time": 68.6687625,
          "velocity": 1
        },
        {
          "duration": 0.2922075000000035,
          "durationTicks": 72,
          "midi": 38,
          "name": "D2",
          "ticks": 16920,
          "time": 68.6687625,
          "velocity": 1
        },
        {
          "duration": 0.2922075000000035,
          "durationTicks": 72,
          "midi": 45,
          "name": "A2",
          "ticks": 16920,
          "time": 68.6687625,
          "velocity": 1
        },
        {
          "duration": 0.09740250000000117,
          "durationTicks": 24,
          "midi": 43,
          "name": "G2",
          "ticks": 16992,
          "time": 68.96097,
          "velocity": 1
        },
        {
          "duration": 0.19480500000000234,
          "durationTicks": 48,
          "midi": 50,
          "name": "D3",
          "ticks": 17016,
          "time": 69.0583725,
          "velocity": 1
        },
        {
          "duration": 0.19480500000000234,
          "durationTicks": 48,
          "midi": 48,
          "name": "C3",
          "ticks": 17064,
          "time": 69.2531775,
          "velocity": 1
        },
        {
          "duration": 0.19480500000000234,
          "durationTicks": 48,
          "midi": 53,
          "name": "F3",
          "ticks": 17064,
          "time": 69.2531775,
          "velocity": 1
        },
        {
          "duration": 0.19480499999998813,
          "durationTicks": 48,
          "midi": 46,
          "name": "A#2",
          "ticks": 17112,
          "time": 69.44798250000001,
          "velocity": 1
        },
        {
          "duration": 0.19480499999998813,
          "durationTicks": 48,
          "midi": 53,
          "name": "F3",
          "ticks": 17112,
          "time": 69.44798250000001,
          "velocity": 1
        },
        {
          "duration": 0.09740250000000117,
          "durationTicks": 24,
          "midi": 46,
          "name": "A#2",
          "ticks": 17160,
          "time": 69.6427875,
          "velocity": 1
        },
        {
          "duration": 0.09740250000000117,
          "durationTicks": 24,
          "midi": 41,
          "name": "F2",
          "ticks": 17184,
          "time": 69.74019,
          "velocity": 1
        },
        {
          "duration": 0.19480500000000234,
          "durationTicks": 48,
          "midi": 34,
          "name": "A#1",
          "ticks": 17208,
          "time": 69.8375925,
          "velocity": 1
        },
        {
          "duration": 0.19480500000000234,
          "durationTicks": 48,
          "midi": 41,
          "name": "F2",
          "ticks": 17256,
          "time": 70.0323975,
          "velocity": 1
        },
        {
          "duration": 0.19480500000000234,
          "durationTicks": 48,
          "midi": 46,
          "name": "A#2",
          "ticks": 17256,
          "time": 70.0323975,
          "velocity": 1
        },
        {
          "duration": 0.2922075000000035,
          "durationTicks": 72,
          "midi": 48,
          "name": "C3",
          "ticks": 17304,
          "time": 70.2272025,
          "velocity": 1
        },
        {
          "duration": 0.2922075000000035,
          "durationTicks": 72,
          "midi": 36,
          "name": "C2",
          "ticks": 17304,
          "time": 70.2272025,
          "velocity": 1
        },
        {
          "duration": 0.2922075000000035,
          "durationTicks": 72,
          "midi": 43,
          "name": "G2",
          "ticks": 17304,
          "time": 70.2272025,
          "velocity": 1
        },
        {
          "duration": 0.09740250000000117,
          "durationTicks": 24,
          "midi": 41,
          "name": "F2",
          "ticks": 17376,
          "time": 70.51941000000001,
          "velocity": 1
        },
        {
          "duration": 0.19480499999998813,
          "durationTicks": 48,
          "midi": 48,
          "name": "C3",
          "ticks": 17400,
          "time": 70.61681250000001,
          "velocity": 1
        },
        {
          "duration": 0.19480500000000234,
          "durationTicks": 48,
          "midi": 48,
          "name": "C3",
          "ticks": 17448,
          "time": 70.8116175,
          "velocity": 1
        },
        {
          "duration": 0.19480500000000234,
          "durationTicks": 48,
          "midi": 53,
          "name": "F3",
          "ticks": 17448,
          "time": 70.8116175,
          "velocity": 1
        },
        {
          "duration": 0.2922075000000035,
          "durationTicks": 72,
          "midi": 53,
          "name": "F3",
          "ticks": 17496,
          "time": 71.0064225,
          "velocity": 1
        },
        {
          "duration": 0.2922075000000035,
          "durationTicks": 72,
          "midi": 41,
          "name": "F2",
          "ticks": 17496,
          "time": 71.0064225,
          "velocity": 1
        },
        {
          "duration": 0.2922075000000035,
          "durationTicks": 72,
          "midi": 48,
          "name": "C3",
          "ticks": 17496,
          "time": 71.0064225,
          "velocity": 1
        },
        {
          "duration": 0.09740250000000117,
          "durationTicks": 24,
          "midi": 41,
          "name": "F2",
          "ticks": 17568,
          "time": 71.29863,
          "velocity": 1
        },
        {
          "duration": 0.19480500000000234,
          "durationTicks": 48,
          "midi": 41,
          "name": "F2",
          "ticks": 17592,
          "time": 71.3960325,
          "velocity": 1
        },
        {
          "duration": 0.19480500000000234,
          "durationTicks": 48,
          "midi": 53,
          "name": "F3",
          "ticks": 17640,
          "time": 71.5908375,
          "velocity": 1
        },
        {
          "duration": 0.19480500000000234,
          "durationTicks": 48,
          "midi": 46,
          "name": "A#2",
          "ticks": 17640,
          "time": 71.5908375,
          "velocity": 1
        },
        {
          "duration": 0.2922074999999893,
          "durationTicks": 72,
          "midi": 50,
          "name": "D3",
          "ticks": 17688,
          "time": 71.78564250000001,
          "velocity": 1
        },
        {
          "duration": 0.2922074999999893,
          "durationTicks": 72,
          "midi": 38,
          "name": "D2",
          "ticks": 17688,
          "time": 71.78564250000001,
          "velocity": 1
        },
        {
          "duration": 0.2922074999999893,
          "durationTicks": 72,
          "midi": 45,
          "name": "A2",
          "ticks": 17688,
          "time": 71.78564250000001,
          "velocity": 1
        },
        {
          "duration": 0.09740250000000117,
          "durationTicks": 24,
          "midi": 43,
          "name": "G2",
          "ticks": 17760,
          "time": 72.07785,
          "velocity": 1
        },
        {
          "duration": 0.19480500000000234,
          "durationTicks": 48,
          "midi": 50,
          "name": "D3",
          "ticks": 17784,
          "time": 72.1752525,
          "velocity": 1
        },
        {
          "duration": 0.19480500000000234,
          "durationTicks": 48,
          "midi": 48,
          "name": "C3",
          "ticks": 17832,
          "time": 72.3700575,
          "velocity": 1
        },
        {
          "duration": 0.19480500000000234,
          "durationTicks": 48,
          "midi": 53,
          "name": "F3",
          "ticks": 17832,
          "time": 72.3700575,
          "velocity": 1
        },
        {
          "duration": 0.19480500000000234,
          "durationTicks": 48,
          "midi": 46,
          "name": "A#2",
          "ticks": 17880,
          "time": 72.5648625,
          "velocity": 1
        },
        {
          "duration": 0.19480500000000234,
          "durationTicks": 48,
          "midi": 53,
          "name": "F3",
          "ticks": 17880,
          "time": 72.5648625,
          "velocity": 1
        },
        {
          "duration": 0.09740250000000117,
          "durationTicks": 24,
          "midi": 46,
          "name": "A#2",
          "ticks": 17928,
          "time": 72.7596675,
          "velocity": 1
        },
        {
          "duration": 0.09740250000000117,
          "durationTicks": 24,
          "midi": 41,
          "name": "F2",
          "ticks": 17952,
          "time": 72.85707000000001,
          "velocity": 1
        },
        {
          "duration": 0.19480499999998813,
          "durationTicks": 48,
          "midi": 34,
          "name": "A#1",
          "ticks": 17976,
          "time": 72.95447250000001,
          "velocity": 1
        },
        {
          "duration": 0.19480500000000234,
          "durationTicks": 48,
          "midi": 41,
          "name": "F2",
          "ticks": 18024,
          "time": 73.1492775,
          "velocity": 1
        },
        {
          "duration": 0.19480500000000234,
          "durationTicks": 48,
          "midi": 46,
          "name": "A#2",
          "ticks": 18024,
          "time": 73.1492775,
          "velocity": 1
        },
        {
          "duration": 0.2922075000000035,
          "durationTicks": 72,
          "midi": 48,
          "name": "C3",
          "ticks": 18072,
          "time": 73.3440825,
          "velocity": 1
        },
        {
          "duration": 0.2922075000000035,
          "durationTicks": 72,
          "midi": 36,
          "name": "C2",
          "ticks": 18072,
          "time": 73.3440825,
          "velocity": 1
        },
        {
          "duration": 0.2922075000000035,
          "durationTicks": 72,
          "midi": 43,
          "name": "G2",
          "ticks": 18072,
          "time": 73.3440825,
          "velocity": 1
        },
        {
          "duration": 0.09740250000000117,
          "durationTicks": 24,
          "midi": 41,
          "name": "F2",
          "ticks": 18144,
          "time": 73.63629,
          "velocity": 1
        },
        {
          "duration": 0.19480500000000234,
          "durationTicks": 48,
          "midi": 48,
          "name": "C3",
          "ticks": 18168,
          "time": 73.7336925,
          "velocity": 1
        },
        {
          "duration": 0.19480500000000234,
          "durationTicks": 48,
          "midi": 48,
          "name": "C3",
          "ticks": 18216,
          "time": 73.9284975,
          "velocity": 1
        },
        {
          "duration": 0.19480500000000234,
          "durationTicks": 48,
          "midi": 53,
          "name": "F3",
          "ticks": 18216,
          "time": 73.9284975,
          "velocity": 1
        },
        {
          "duration": 0.2922074999999893,
          "durationTicks": 72,
          "midi": 53,
          "name": "F3",
          "ticks": 18264,
          "time": 74.12330250000001,
          "velocity": 1
        },
        {
          "duration": 0.2922074999999893,
          "durationTicks": 72,
          "midi": 41,
          "name": "F2",
          "ticks": 18264,
          "time": 74.12330250000001,
          "velocity": 1
        },
        {
          "duration": 0.2922074999999893,
          "durationTicks": 72,
          "midi": 48,
          "name": "C3",
          "ticks": 18264,
          "time": 74.12330250000001,
          "velocity": 1
        },
        {
          "duration": 0.09740250000000117,
          "durationTicks": 24,
          "midi": 41,
          "name": "F2",
          "ticks": 18336,
          "time": 74.41551,
          "velocity": 1
        },
        {
          "duration": 0.19480500000000234,
          "durationTicks": 48,
          "midi": 41,
          "name": "F2",
          "ticks": 18360,
          "time": 74.5129125,
          "velocity": 1
        },
        {
          "duration": 0.19480500000000234,
          "durationTicks": 48,
          "midi": 53,
          "name": "F3",
          "ticks": 18408,
          "time": 74.7077175,
          "velocity": 1
        },
        {
          "duration": 0.19480500000000234,
          "durationTicks": 48,
          "midi": 46,
          "name": "A#2",
          "ticks": 18408,
          "time": 74.7077175,
          "velocity": 1
        },
        {
          "duration": 0.2922075000000035,
          "durationTicks": 72,
          "midi": 50,
          "name": "D3",
          "ticks": 18456,
          "time": 74.9025225,
          "velocity": 1
        },
        {
          "duration": 0.2922075000000035,
          "durationTicks": 72,
          "midi": 38,
          "name": "D2",
          "ticks": 18456,
          "time": 74.9025225,
          "velocity": 1
        },
        {
          "duration": 0.2922075000000035,
          "durationTicks": 72,
          "midi": 45,
          "name": "A2",
          "ticks": 18456,
          "time": 74.9025225,
          "velocity": 1
        },
        {
          "duration": 0.09740250000000117,
          "durationTicks": 24,
          "midi": 43,
          "name": "G2",
          "ticks": 18528,
          "time": 75.19473,
          "velocity": 1
        },
        {
          "duration": 0.19480499999998813,
          "durationTicks": 48,
          "midi": 50,
          "name": "D3",
          "ticks": 18552,
          "time": 75.29213250000001,
          "velocity": 1
        },
        {
          "duration": 0.19480500000000234,
          "durationTicks": 48,
          "midi": 48,
          "name": "C3",
          "ticks": 18600,
          "time": 75.4869375,
          "velocity": 1
        },
        {
          "duration": 0.19480500000000234,
          "durationTicks": 48,
          "midi": 53,
          "name": "F3",
          "ticks": 18600,
          "time": 75.4869375,
          "velocity": 1
        },
        {
          "duration": 0.19480500000000234,
          "durationTicks": 48,
          "midi": 46,
          "name": "A#2",
          "ticks": 18648,
          "time": 75.6817425,
          "velocity": 1
        },
        {
          "duration": 0.19480500000000234,
          "durationTicks": 48,
          "midi": 53,
          "name": "F3",
          "ticks": 18648,
          "time": 75.6817425,
          "velocity": 1
        },
        {
          "duration": 0.09740250000000117,
          "durationTicks": 24,
          "midi": 46,
          "name": "A#2",
          "ticks": 18696,
          "time": 75.8765475,
          "velocity": 1
        },
        {
          "duration": 0.09740250000000117,
          "durationTicks": 24,
          "midi": 41,
          "name": "F2",
          "ticks": 18720,
          "time": 75.97395,
          "velocity": 1
        },
        {
          "duration": 0.19480500000000234,
          "durationTicks": 48,
          "midi": 34,
          "name": "A#1",
          "ticks": 18744,
          "time": 76.0713525,
          "velocity": 1
        },
        {
          "duration": 0.19480500000000234,
          "durationTicks": 48,
          "midi": 41,
          "name": "F2",
          "ticks": 18792,
          "time": 76.2661575,
          "velocity": 1
        },
        {
          "duration": 0.19480500000000234,
          "durationTicks": 48,
          "midi": 46,
          "name": "A#2",
          "ticks": 18792,
          "time": 76.2661575,
          "velocity": 1
        },
        {
          "duration": 0.2922074999999893,
          "durationTicks": 72,
          "midi": 48,
          "name": "C3",
          "ticks": 18840,
          "time": 76.46096250000001,
          "velocity": 1
        },
        {
          "duration": 0.2922074999999893,
          "durationTicks": 72,
          "midi": 36,
          "name": "C2",
          "ticks": 18840,
          "time": 76.46096250000001,
          "velocity": 1
        },
        {
          "duration": 0.2922074999999893,
          "durationTicks": 72,
          "midi": 43,
          "name": "G2",
          "ticks": 18840,
          "time": 76.46096250000001,
          "velocity": 1
        },
        {
          "duration": 0.09740250000000117,
          "durationTicks": 24,
          "midi": 41,
          "name": "F2",
          "ticks": 18912,
          "time": 76.75317,
          "velocity": 1
        },
        {
          "duration": 0.19480500000000234,
          "durationTicks": 48,
          "midi": 48,
          "name": "C3",
          "ticks": 18936,
          "time": 76.8505725,
          "velocity": 1
        },
        {
          "duration": 0.19480500000000234,
          "durationTicks": 48,
          "midi": 48,
          "name": "C3",
          "ticks": 18984,
          "time": 77.0453775,
          "velocity": 1
        },
        {
          "duration": 0.19480500000000234,
          "durationTicks": 48,
          "midi": 53,
          "name": "F3",
          "ticks": 18984,
          "time": 77.0453775,
          "velocity": 1
        },
        {
          "duration": 0.2922075000000035,
          "durationTicks": 72,
          "midi": 53,
          "name": "F3",
          "ticks": 19032,
          "time": 77.2401825,
          "velocity": 1
        },
        {
          "duration": 0.2922075000000035,
          "durationTicks": 72,
          "midi": 41,
          "name": "F2",
          "ticks": 19032,
          "time": 77.2401825,
          "velocity": 1
        },
        {
          "duration": 0.2922075000000035,
          "durationTicks": 72,
          "midi": 48,
          "name": "C3",
          "ticks": 19032,
          "time": 77.2401825,
          "velocity": 1
        },
        {
          "duration": 0.09740250000000117,
          "durationTicks": 24,
          "midi": 41,
          "name": "F2",
          "ticks": 19104,
          "time": 77.53239,
          "velocity": 1
        },
        {
          "duration": 0.19480499999998813,
          "durationTicks": 48,
          "midi": 41,
          "name": "F2",
          "ticks": 19128,
          "time": 77.62979250000001,
          "velocity": 1
        },
        {
          "duration": 0.19480500000000234,
          "durationTicks": 48,
          "midi": 53,
          "name": "F3",
          "ticks": 19176,
          "time": 77.8245975,
          "velocity": 1
        },
        {
          "duration": 0.19480500000000234,
          "durationTicks": 48,
          "midi": 46,
          "name": "A#2",
          "ticks": 19176,
          "time": 77.8245975,
          "velocity": 1
        },
        {
          "duration": 0.2922075000000035,
          "durationTicks": 72,
          "midi": 46,
          "name": "A#2",
          "ticks": 19224,
          "time": 78.0194025,
          "velocity": 1
        },
        {
          "duration": 0.2922075000000035,
          "durationTicks": 72,
          "midi": 34,
          "name": "A#1",
          "ticks": 19224,
          "time": 78.0194025,
          "velocity": 1
        },
        {
          "duration": 0.2922075000000035,
          "durationTicks": 72,
          "midi": 41,
          "name": "F2",
          "ticks": 19224,
          "time": 78.0194025,
          "velocity": 1
        },
        {
          "duration": 0.09740250000000117,
          "durationTicks": 24,
          "midi": 39,
          "name": "D#2",
          "ticks": 19296,
          "time": 78.31161,
          "velocity": 1
        },
        {
          "duration": 0.19480500000000234,
          "durationTicks": 48,
          "midi": 34,
          "name": "A#1",
          "ticks": 19320,
          "time": 78.4090125,
          "velocity": 1
        },
        {
          "duration": 0.19480500000000234,
          "durationTicks": 48,
          "midi": 46,
          "name": "A#2",
          "ticks": 19368,
          "time": 78.6038175,
          "velocity": 1
        },
        {
          "duration": 0.19480500000000234,
          "durationTicks": 48,
          "midi": 39,
          "name": "D#2",
          "ticks": 19368,
          "time": 78.6038175,
          "velocity": 1
        },
        {
          "duration": 0.2922074999999893,
          "durationTicks": 72,
          "midi": 45,
          "name": "A2",
          "ticks": 19416,
          "time": 78.79862250000001,
          "velocity": 1
        },
        {
          "duration": 0.2922074999999893,
          "durationTicks": 72,
          "midi": 33,
          "name": "A1",
          "ticks": 19416,
          "time": 78.79862250000001,
          "velocity": 1
        },
        {
          "duration": 0.2922074999999893,
          "durationTicks": 72,
          "midi": 40,
          "name": "E2",
          "ticks": 19416,
          "time": 78.79862250000001,
          "velocity": 1
        },
        {
          "duration": 0.09740250000000117,
          "durationTicks": 24,
          "midi": 40,
          "name": "E2",
          "ticks": 19488,
          "time": 79.09083,
          "velocity": 1
        },
        {
          "duration": 0.19480500000000234,
          "durationTicks": 48,
          "midi": 33,
          "name": "A1",
          "ticks": 19512,
          "time": 79.1882325,
          "velocity": 1
        },
        {
          "duration": 0.19480500000000234,
          "durationTicks": 48,
          "midi": 40,
          "name": "E2",
          "ticks": 19560,
          "time": 79.3830375,
          "velocity": 1
        },
        {
          "duration": 0.19480500000000234,
          "durationTicks": 48,
          "midi": 45,
          "name": "A2",
          "ticks": 19560,
          "time": 79.3830375,
          "velocity": 1
        },
        {
          "duration": 0.3896100000000047,
          "durationTicks": 96,
          "midi": 46,
          "name": "A#2",
          "ticks": 19608,
          "time": 79.5778425,
          "velocity": 1
        },
        {
          "duration": 0.3896100000000047,
          "durationTicks": 96,
          "midi": 34,
          "name": "A#1",
          "ticks": 19608,
          "time": 79.5778425,
          "velocity": 1
        },
        {
          "duration": 0.38960999999999046,
          "durationTicks": 96,
          "midi": 48,
          "name": "C3",
          "ticks": 19704,
          "time": 79.96745250000001,
          "velocity": 1
        },
        {
          "duration": 0.38960999999999046,
          "durationTicks": 96,
          "midi": 36,
          "name": "C2",
          "ticks": 19704,
          "time": 79.96745250000001,
          "velocity": 1
        },
        {
          "duration": 0.3896100000000047,
          "durationTicks": 96,
          "midi": 38,
          "name": "D2",
          "ticks": 19800,
          "time": 80.3570625,
          "velocity": 1
        },
        {
          "duration": 0.3896100000000047,
          "durationTicks": 96,
          "midi": 50,
          "name": "D3",
          "ticks": 19800,
          "time": 80.3570625,
          "velocity": 1
        },
        {
          "duration": 0.19480500000000234,
          "durationTicks": 48,
          "midi": 38,
          "name": "D2",
          "ticks": 19896,
          "time": 80.7466725,
          "velocity": 1
        },
        {
          "duration": 0.19480500000000234,
          "durationTicks": 48,
          "midi": 38,
          "name": "D2",
          "ticks": 19944,
          "time": 80.9414775,
          "velocity": 1
        },
        {
          "duration": 0.19480500000000234,
          "durationTicks": 48,
          "midi": 34,
          "name": "A#1",
          "ticks": 19992,
          "time": 81.13628250000001,
          "velocity": 1
        },
        {
          "duration": 0.19480499999998813,
          "durationTicks": 48,
          "midi": 41,
          "name": "F2",
          "ticks": 20040,
          "time": 81.33108750000001,
          "velocity": 1
        },
        {
          "duration": 0.19480499999998813,
          "durationTicks": 48,
          "midi": 46,
          "name": "A#2",
          "ticks": 20040,
          "time": 81.33108750000001,
          "velocity": 1
        },
        {
          "duration": 0.19480500000000234,
          "durationTicks": 48,
          "midi": 34,
          "name": "A#1",
          "ticks": 20088,
          "time": 81.5258925,
          "velocity": 1
        },
        {
          "duration": 0.19480500000000234,
          "durationTicks": 48,
          "midi": 41,
          "name": "F2",
          "ticks": 20112,
          "time": 81.623295,
          "velocity": 1
        },
        {
          "duration": 0.19480500000000234,
          "durationTicks": 48,
          "midi": 46,
          "name": "A#2",
          "ticks": 20136,
          "time": 81.7206975,
          "velocity": 1
        },
        {
          "duration": 0.19480500000000234,
          "durationTicks": 48,
          "midi": 36,
          "name": "C2",
          "ticks": 20184,
          "time": 81.9155025,
          "velocity": 1
        },
        {
          "duration": 0.19480500000000234,
          "durationTicks": 48,
          "midi": 43,
          "name": "G2",
          "ticks": 20232,
          "time": 82.1103075,
          "velocity": 1
        },
        {
          "duration": 0.19480500000000234,
          "durationTicks": 48,
          "midi": 48,
          "name": "C3",
          "ticks": 20232,
          "time": 82.1103075,
          "velocity": 1
        },
        {
          "duration": 0.19480500000000234,
          "durationTicks": 48,
          "midi": 36,
          "name": "C2",
          "ticks": 20280,
          "time": 82.3051125,
          "velocity": 1
        },
        {
          "duration": 0.19480499999998813,
          "durationTicks": 48,
          "midi": 43,
          "name": "G2",
          "ticks": 20304,
          "time": 82.40251500000001,
          "velocity": 1
        },
        {
          "duration": 0.19480499999998813,
          "durationTicks": 48,
          "midi": 48,
          "name": "C3",
          "ticks": 20328,
          "time": 82.49991750000001,
          "velocity": 1
        },
        {
          "duration": 0.19480500000000234,
          "durationTicks": 48,
          "midi": 38,
          "name": "D2",
          "ticks": 20376,
          "time": 82.6947225,
          "velocity": 1
        },
        {
          "duration": 0.19480500000000234,
          "durationTicks": 48,
          "midi": 50,
          "name": "D3",
          "ticks": 20424,
          "time": 82.8895275,
          "velocity": 1
        },
        {
          "duration": 0.19480500000000234,
          "durationTicks": 48,
          "midi": 45,
          "name": "A2",
          "ticks": 20424,
          "time": 82.8895275,
          "velocity": 1
        },
        {
          "duration": 0.19480500000000234,
          "durationTicks": 48,
          "midi": 38,
          "name": "D2",
          "ticks": 20472,
          "time": 83.0843325,
          "velocity": 1
        },
        {
          "duration": 0.19480500000000234,
          "durationTicks": 48,
          "midi": 45,
          "name": "A2",
          "ticks": 20520,
          "time": 83.2791375,
          "velocity": 1
        },
        {
          "duration": 0.19480500000000234,
          "durationTicks": 48,
          "midi": 50,
          "name": "D3",
          "ticks": 20520,
          "time": 83.2791375,
          "velocity": 1
        },
        {
          "duration": 0.19480500000000234,
          "durationTicks": 48,
          "midi": 41,
          "name": "F2",
          "ticks": 20568,
          "time": 83.4739425,
          "velocity": 1
        },
        {
          "duration": 0.19480499999998813,
          "durationTicks": 48,
          "midi": 48,
          "name": "C3",
          "ticks": 20616,
          "time": 83.66874750000001,
          "velocity": 1
        },
        {
          "duration": 0.19480499999998813,
          "durationTicks": 48,
          "midi": 53,
          "name": "F3",
          "ticks": 20616,
          "time": 83.66874750000001,
          "velocity": 1
        },
        {
          "duration": 0.09740250000000117,
          "durationTicks": 24,
          "midi": 41,
          "name": "F2",
          "ticks": 20664,
          "time": 83.8635525,
          "velocity": 1
        },
        {
          "duration": 0.09740250000000117,
          "durationTicks": 24,
          "midi": 53,
          "name": "F3",
          "ticks": 20688,
          "time": 83.960955,
          "velocity": 1
        },
        {
          "duration": 0.09740250000000117,
          "durationTicks": 24,
          "midi": 41,
          "name": "F2",
          "ticks": 20712,
          "time": 84.0583575,
          "velocity": 1
        },
        {
          "duration": 0.09740250000000117,
          "durationTicks": 24,
          "midi": 53,
          "name": "F3",
          "ticks": 20736,
          "time": 84.15576,
          "velocity": 1
        },
        {
          "duration": 0.19480500000000234,
          "durationTicks": 48,
          "midi": 34,
          "name": "A#1",
          "ticks": 20760,
          "time": 84.2531625,
          "velocity": 1
        },
        {
          "duration": 0.19480500000000234,
          "durationTicks": 48,
          "midi": 41,
          "name": "F2",
          "ticks": 20808,
          "time": 84.4479675,
          "velocity": 1
        },
        {
          "duration": 0.19480500000000234,
          "durationTicks": 48,
          "midi": 46,
          "name": "A#2",
          "ticks": 20808,
          "time": 84.4479675,
          "velocity": 1
        },
        {
          "duration": 0.19480500000000234,
          "durationTicks": 48,
          "midi": 34,
          "name": "A#1",
          "ticks": 20856,
          "time": 84.6427725,
          "velocity": 1
        },
        {
          "duration": 0.19480499999998813,
          "durationTicks": 48,
          "midi": 41,
          "name": "F2",
          "ticks": 20880,
          "time": 84.74017500000001,
          "velocity": 1
        },
        {
          "duration": 0.19480499999998813,
          "durationTicks": 48,
          "midi": 46,
          "name": "A#2",
          "ticks": 20904,
          "time": 84.83757750000001,
          "velocity": 1
        },
        {
          "duration": 0.19480500000000234,
          "durationTicks": 48,
          "midi": 36,
          "name": "C2",
          "ticks": 20952,
          "time": 85.0323825,
          "velocity": 1
        },
        {
          "duration": 0.19480500000000234,
          "durationTicks": 48,
          "midi": 43,
          "name": "G2",
          "ticks": 21000,
          "time": 85.2271875,
          "velocity": 1
        },
        {
          "duration": 0.19480500000000234,
          "durationTicks": 48,
          "midi": 48,
          "name": "C3",
          "ticks": 21000,
          "time": 85.2271875,
          "velocity": 1
        },
        {
          "duration": 0.19480500000000234,
          "durationTicks": 48,
          "midi": 36,
          "name": "C2",
          "ticks": 21048,
          "time": 85.4219925,
          "velocity": 1
        },
        {
          "duration": 0.19480500000000234,
          "durationTicks": 48,
          "midi": 43,
          "name": "G2",
          "ticks": 21072,
          "time": 85.519395,
          "velocity": 1
        },
        {
          "duration": 0.19480500000000234,
          "durationTicks": 48,
          "midi": 48,
          "name": "C3",
          "ticks": 21096,
          "time": 85.6167975,
          "velocity": 1
        },
        {
          "duration": 0.19480500000000234,
          "durationTicks": 48,
          "midi": 38,
          "name": "D2",
          "ticks": 21144,
          "time": 85.8116025,
          "velocity": 1
        },
        {
          "duration": 0.19480499999998813,
          "durationTicks": 48,
          "midi": 50,
          "name": "D3",
          "ticks": 21192,
          "time": 86.00640750000001,
          "velocity": 1
        },
        {
          "duration": 0.19480499999998813,
          "durationTicks": 48,
          "midi": 45,
          "name": "A2",
          "ticks": 21192,
          "time": 86.00640750000001,
          "velocity": 1
        },
        {
          "duration": 0.19480500000000234,
          "durationTicks": 48,
          "midi": 41,
          "name": "F2",
          "ticks": 21240,
          "time": 86.2012125,
          "velocity": 1
        },
        {
          "duration": 0.19480500000000234,
          "durationTicks": 48,
          "midi": 48,
          "name": "C3",
          "ticks": 21288,
          "time": 86.3960175,
          "velocity": 1
        },
        {
          "duration": 0.19480500000000234,
          "durationTicks": 48,
          "midi": 53,
          "name": "F3",
          "ticks": 21288,
          "time": 86.3960175,
          "velocity": 1
        },
        {
          "duration": 0.19480500000000234,
          "durationTicks": 48,
          "midi": 43,
          "name": "G2",
          "ticks": 21336,
          "time": 86.5908225,
          "velocity": 1
        },
        {
          "duration": 0.19480500000000234,
          "durationTicks": 48,
          "midi": 50,
          "name": "D3",
          "ticks": 21384,
          "time": 86.7856275,
          "velocity": 1
        },
        {
          "duration": 0.19480500000000234,
          "durationTicks": 48,
          "midi": 55,
          "name": "G3",
          "ticks": 21384,
          "time": 86.7856275,
          "velocity": 1
        },
        {
          "duration": 0.09740250000000117,
          "durationTicks": 24,
          "midi": 45,
          "name": "A2",
          "ticks": 21432,
          "time": 86.9804325,
          "velocity": 1
        },
        {
          "duration": 0.09740250000000117,
          "durationTicks": 24,
          "midi": 57,
          "name": "A3",
          "ticks": 21456,
          "time": 87.07783500000001,
          "velocity": 1
        },
        {
          "duration": 0.09740249999998696,
          "durationTicks": 24,
          "midi": 45,
          "name": "A2",
          "ticks": 21480,
          "time": 87.17523750000001,
          "velocity": 1
        },
        {
          "duration": 0.09740250000000117,
          "durationTicks": 24,
          "midi": 57,
          "name": "A3",
          "ticks": 21504,
          "time": 87.27264,
          "velocity": 1
        },
        {
          "duration": 0.19480500000000234,
          "durationTicks": 48,
          "midi": 34,
          "name": "A#1",
          "ticks": 21528,
          "time": 87.3700425,
          "velocity": 1
        },
        {
          "duration": 0.19480500000000234,
          "durationTicks": 48,
          "midi": 41,
          "name": "F2",
          "ticks": 21576,
          "time": 87.5648475,
          "velocity": 1
        },
        {
          "duration": 0.19480500000000234,
          "durationTicks": 48,
          "midi": 46,
          "name": "A#2",
          "ticks": 21576,
          "time": 87.5648475,
          "velocity": 1
        },
        {
          "duration": 0.19480500000000234,
          "durationTicks": 48,
          "midi": 34,
          "name": "A#1",
          "ticks": 21624,
          "time": 87.7596525,
          "velocity": 1
        },
        {
          "duration": 0.19480500000000234,
          "durationTicks": 48,
          "midi": 41,
          "name": "F2",
          "ticks": 21648,
          "time": 87.857055,
          "velocity": 1
        },
        {
          "duration": 0.19480500000000234,
          "durationTicks": 48,
          "midi": 46,
          "name": "A#2",
          "ticks": 21672,
          "time": 87.9544575,
          "velocity": 1
        },
        {
          "duration": 0.19480500000000234,
          "durationTicks": 48,
          "midi": 36,
          "name": "C2",
          "ticks": 21720,
          "time": 88.1492625,
          "velocity": 1
        },
        {
          "duration": 0.19480499999998813,
          "durationTicks": 48,
          "midi": 43,
          "name": "G2",
          "ticks": 21768,
          "time": 88.34406750000001,
          "velocity": 1
        },
        {
          "duration": 0.19480499999998813,
          "durationTicks": 48,
          "midi": 48,
          "name": "C3",
          "ticks": 21768,
          "time": 88.34406750000001,
          "velocity": 1
        },
        {
          "duration": 0.19480500000000234,
          "durationTicks": 48,
          "midi": 36,
          "name": "C2",
          "ticks": 21816,
          "time": 88.5388725,
          "velocity": 1
        },
        {
          "duration": 0.19480500000000234,
          "durationTicks": 48,
          "midi": 43,
          "name": "G2",
          "ticks": 21840,
          "time": 88.636275,
          "velocity": 1
        },
        {
          "duration": 0.19480500000000234,
          "durationTicks": 48,
          "midi": 48,
          "name": "C3",
          "ticks": 21864,
          "time": 88.7336775,
          "velocity": 1
        },
        {
          "duration": 0.19480500000000234,
          "durationTicks": 48,
          "midi": 38,
          "name": "D2",
          "ticks": 21912,
          "time": 88.9284825,
          "velocity": 1
        },
        {
          "duration": 0.19480500000000234,
          "durationTicks": 48,
          "midi": 50,
          "name": "D3",
          "ticks": 21960,
          "time": 89.1232875,
          "velocity": 1
        },
        {
          "duration": 0.19480500000000234,
          "durationTicks": 48,
          "midi": 45,
          "name": "A2",
          "ticks": 21960,
          "time": 89.1232875,
          "velocity": 1
        },
        {
          "duration": 0.19480500000000234,
          "durationTicks": 48,
          "midi": 38,
          "name": "D2",
          "ticks": 22008,
          "time": 89.3180925,
          "velocity": 1
        },
        {
          "duration": 0.19480499999998813,
          "durationTicks": 48,
          "midi": 45,
          "name": "A2",
          "ticks": 22056,
          "time": 89.51289750000001,
          "velocity": 1
        },
        {
          "duration": 0.19480499999998813,
          "durationTicks": 48,
          "midi": 50,
          "name": "D3",
          "ticks": 22056,
          "time": 89.51289750000001,
          "velocity": 1
        },
        {
          "duration": 0.19480500000000234,
          "durationTicks": 48,
          "midi": 41,
          "name": "F2",
          "ticks": 22104,
          "time": 89.7077025,
          "velocity": 1
        },
        {
          "duration": 0.19480500000000234,
          "durationTicks": 48,
          "midi": 48,
          "name": "C3",
          "ticks": 22152,
          "time": 89.9025075,
          "velocity": 1
        },
        {
          "duration": 0.19480500000000234,
          "durationTicks": 48,
          "midi": 53,
          "name": "F3",
          "ticks": 22152,
          "time": 89.9025075,
          "velocity": 1
        },
        {
          "duration": 0.09740250000000117,
          "durationTicks": 24,
          "midi": 41,
          "name": "F2",
          "ticks": 22200,
          "time": 90.0973125,
          "velocity": 1
        },
        {
          "duration": 0.09740250000000117,
          "durationTicks": 24,
          "midi": 53,
          "name": "F3",
          "ticks": 22224,
          "time": 90.194715,
          "velocity": 1
        },
        {
          "duration": 0.09740250000000117,
          "durationTicks": 24,
          "midi": 41,
          "name": "F2",
          "ticks": 22248,
          "time": 90.2921175,
          "velocity": 1
        },
        {
          "duration": 0.09740250000000117,
          "durationTicks": 24,
          "midi": 53,
          "name": "F3",
          "ticks": 22272,
          "time": 90.38952,
          "velocity": 1
        },
        {
          "duration": 0.19480500000000234,
          "durationTicks": 48,
          "midi": 34,
          "name": "A#1",
          "ticks": 22296,
          "time": 90.4869225,
          "velocity": 1
        },
        {
          "duration": 0.19480499999998813,
          "durationTicks": 48,
          "midi": 41,
          "name": "F2",
          "ticks": 22344,
          "time": 90.68172750000001,
          "velocity": 1
        },
        {
          "duration": 0.19480499999998813,
          "durationTicks": 48,
          "midi": 46,
          "name": "A#2",
          "ticks": 22344,
          "time": 90.68172750000001,
          "velocity": 1
        },
        {
          "duration": 0.19480500000000234,
          "durationTicks": 48,
          "midi": 34,
          "name": "A#1",
          "ticks": 22392,
          "time": 90.8765325,
          "velocity": 1
        },
        {
          "duration": 0.19480500000000234,
          "durationTicks": 48,
          "midi": 41,
          "name": "F2",
          "ticks": 22416,
          "time": 90.973935,
          "velocity": 1
        },
        {
          "duration": 0.19480500000000234,
          "durationTicks": 48,
          "midi": 46,
          "name": "A#2",
          "ticks": 22440,
          "time": 91.0713375,
          "velocity": 1
        },
        {
          "duration": 0.19480500000000234,
          "durationTicks": 48,
          "midi": 36,
          "name": "C2",
          "ticks": 22488,
          "time": 91.2661425,
          "velocity": 1
        },
        {
          "duration": 0.19480500000000234,
          "durationTicks": 48,
          "midi": 43,
          "name": "G2",
          "ticks": 22536,
          "time": 91.4609475,
          "velocity": 1
        },
        {
          "duration": 0.19480500000000234,
          "durationTicks": 48,
          "midi": 48,
          "name": "C3",
          "ticks": 22536,
          "time": 91.4609475,
          "velocity": 1
        },
        {
          "duration": 0.19480500000000234,
          "durationTicks": 48,
          "midi": 36,
          "name": "C2",
          "ticks": 22584,
          "time": 91.6557525,
          "velocity": 1
        },
        {
          "duration": 0.19480500000000234,
          "durationTicks": 48,
          "midi": 43,
          "name": "G2",
          "ticks": 22608,
          "time": 91.753155,
          "velocity": 1
        },
        {
          "duration": 0.19480499999998813,
          "durationTicks": 48,
          "midi": 48,
          "name": "C3",
          "ticks": 22632,
          "time": 91.85055750000001,
          "velocity": 1
        },
        {
          "duration": 0.19480500000000234,
          "durationTicks": 48,
          "midi": 50,
          "name": "D3",
          "ticks": 22680,
          "time": 92.0453625,
          "velocity": 1
        },
        {
          "duration": 0.19480500000000234,
          "durationTicks": 48,
          "midi": 38,
          "name": "D2",
          "ticks": 22680,
          "time": 92.0453625,
          "velocity": 1
        },
        {
          "duration": 0.19480500000000234,
          "durationTicks": 48,
          "midi": 45,
          "name": "A2",
          "ticks": 22680,
          "time": 92.0453625,
          "velocity": 1
        },
        {
          "duration": 0.19480500000000234,
          "durationTicks": 48,
          "midi": 45,
          "name": "A2",
          "ticks": 22752,
          "time": 92.33757,
          "velocity": 1
        },
        {
          "duration": 0.19480500000000234,
          "durationTicks": 48,
          "midi": 50,
          "name": "D3",
          "ticks": 22752,
          "time": 92.33757,
          "velocity": 1
        },
        {
          "duration": 0.19480500000000234,
          "durationTicks": 48,
          "midi": 38,
          "name": "D2",
          "ticks": 22752,
          "time": 92.33757,
          "velocity": 1
        },
        {
          "duration": 0.19480500000000234,
          "durationTicks": 48,
          "midi": 53,
          "name": "F3",
          "ticks": 22824,
          "time": 92.6297775,
          "velocity": 1
        },
        {
          "duration": 0.19480500000000234,
          "durationTicks": 48,
          "midi": 41,
          "name": "F2",
          "ticks": 22824,
          "time": 92.6297775,
          "velocity": 1
        },
        {
          "duration": 0.19480500000000234,
          "durationTicks": 48,
          "midi": 48,
          "name": "C3",
          "ticks": 22824,
          "time": 92.6297775,
          "velocity": 1
        },
        {
          "duration": 0.2922075000000035,
          "durationTicks": 72,
          "midi": 50,
          "name": "D3",
          "ticks": 22872,
          "time": 92.8245825,
          "velocity": 1
        },
        {
          "duration": 0.2922075000000035,
          "durationTicks": 72,
          "midi": 38,
          "name": "D2",
          "ticks": 22872,
          "time": 92.8245825,
          "velocity": 1
        },
        {
          "duration": 0.2922075000000035,
          "durationTicks": 72,
          "midi": 45,
          "name": "A2",
          "ticks": 22872,
          "time": 92.8245825,
          "velocity": 1
        },
        {
          "duration": 0.09740250000000117,
          "durationTicks": 24,
          "midi": 38,
          "name": "D2",
          "ticks": 22968,
          "time": 93.2141925,
          "velocity": 1
        },
        {
          "duration": 0.09740250000000117,
          "durationTicks": 24,
          "midi": 45,
          "name": "A2",
          "ticks": 22992,
          "time": 93.311595,
          "velocity": 1
        },
        {
          "duration": 0.09740250000000117,
          "durationTicks": 24,
          "midi": 50,
          "name": "D3",
          "ticks": 22992,
          "time": 93.311595,
          "velocity": 1
        },
        {
          "duration": 0.09740250000000117,
          "durationTicks": 24,
          "midi": 38,
          "name": "D2",
          "ticks": 23016,
          "time": 93.4089975,
          "velocity": 1
        },
        {
          "duration": 0.09740250000000117,
          "durationTicks": 24,
          "midi": 50,
          "name": "D3",
          "ticks": 23040,
          "time": 93.5064,
          "velocity": 1
        },
        {
          "duration": 0.09740250000000117,
          "durationTicks": 24,
          "midi": 45,
          "name": "A2",
          "ticks": 23040,
          "time": 93.5064,
          "velocity": 1
        },
        {
          "duration": 0.3896100000000047,
          "durationTicks": 96,
          "midi": 38,
          "name": "D2",
          "ticks": 23064,
          "time": 93.6038025,
          "velocity": 1
        },
        {
          "duration": 0.2922075000000035,
          "durationTicks": 72,
          "midi": 45,
          "name": "A2",
          "ticks": 23160,
          "time": 93.9934125,
          "velocity": 1
        },
        {
          "duration": 0.2922075000000035,
          "durationTicks": 72,
          "midi": 50,
          "name": "D3",
          "ticks": 23160,
          "time": 93.9934125,
          "velocity": 1
        },
        {
          "duration": 0.09740250000000117,
          "durationTicks": 24,
          "midi": 50,
          "name": "D3",
          "ticks": 23232,
          "time": 94.28562000000001,
          "velocity": 1
        },
        {
          "duration": 0.09740249999998696,
          "durationTicks": 24,
          "midi": 38,
          "name": "D2",
          "ticks": 23256,
          "time": 94.38302250000001,
          "velocity": 1
        },
        {
          "duration": 0.09740250000000117,
          "durationTicks": 24,
          "midi": 50,
          "name": "D3",
          "ticks": 23280,
          "time": 94.480425,
          "velocity": 1
        },
        {
          "duration": 0.19480500000000234,
          "durationTicks": 48,
          "midi": 41,
          "name": "F2",
          "ticks": 23304,
          "time": 94.5778275,
          "velocity": 1
        },
        {
          "duration": 0.19480500000000234,
          "durationTicks": 48,
          "midi": 45,
          "name": "A2",
          "ticks": 23352,
          "time": 94.7726325,
          "velocity": 1
        },
        {
          "duration": 0.19480500000000234,
          "durationTicks": 48,
          "midi": 38,
          "name": "D2",
          "ticks": 23400,
          "time": 94.9674375,
          "velocity": 1
        },
        {
          "duration": 0.2922075000000035,
          "durationTicks": 72,
          "midi": 34,
          "name": "A#1",
          "ticks": 23448,
          "time": 95.1622425,
          "velocity": 1
        },
        {
          "duration": 0.09740250000000117,
          "durationTicks": 24,
          "midi": 41,
          "name": "F2",
          "ticks": 23520,
          "time": 95.45445000000001,
          "velocity": 1
        },
        {
          "duration": 0.19480499999998813,
          "durationTicks": 48,
          "midi": 34,
          "name": "A#1",
          "ticks": 23544,
          "time": 95.55185250000001,
          "velocity": 1
        },
        {
          "duration": 0.19480500000000234,
          "durationTicks": 48,
          "midi": 41,
          "name": "F2",
          "ticks": 23592,
          "time": 95.7466575,
          "velocity": 1
        },
        {
          "duration": 0.3896100000000047,
          "durationTicks": 96,
          "midi": 43,
          "name": "G2",
          "ticks": 23640,
          "time": 95.9414625,
          "velocity": 1
        },
        {
          "duration": 0.3896100000000047,
          "durationTicks": 96,
          "midi": 48,
          "name": "C3",
          "ticks": 23640,
          "time": 95.9414625,
          "velocity": 1
        },
        {
          "duration": 0.3896100000000047,
          "durationTicks": 96,
          "midi": 43,
          "name": "G2",
          "ticks": 23736,
          "time": 96.3310725,
          "velocity": 1
        },
        {
          "duration": 0.3896100000000047,
          "durationTicks": 96,
          "midi": 48,
          "name": "C3",
          "ticks": 23736,
          "time": 96.3310725,
          "velocity": 1
        },
        {
          "duration": 0.38960999999999046,
          "durationTicks": 96,
          "midi": 38,
          "name": "D2",
          "ticks": 23832,
          "time": 96.72068250000001,
          "velocity": 1
        },
        {
          "duration": 0.2922075000000035,
          "durationTicks": 72,
          "midi": 45,
          "name": "A2",
          "ticks": 23928,
          "time": 97.1102925,
          "velocity": 1
        },
        {
          "duration": 0.2922075000000035,
          "durationTicks": 72,
          "midi": 50,
          "name": "D3",
          "ticks": 23928,
          "time": 97.1102925,
          "velocity": 1
        },
        {
          "duration": 0.09740250000000117,
          "durationTicks": 24,
          "midi": 50,
          "name": "D3",
          "ticks": 24000,
          "time": 97.4025,
          "velocity": 1
        },
        {
          "duration": 0.09740250000000117,
          "durationTicks": 24,
          "midi": 38,
          "name": "D2",
          "ticks": 24024,
          "time": 97.4999025,
          "velocity": 1
        },
        {
          "duration": 0.09740250000000117,
          "durationTicks": 24,
          "midi": 50,
          "name": "D3",
          "ticks": 24048,
          "time": 97.597305,
          "velocity": 1
        },
        {
          "duration": 0.19480500000000234,
          "durationTicks": 48,
          "midi": 41,
          "name": "F2",
          "ticks": 24072,
          "time": 97.6947075,
          "velocity": 1
        },
        {
          "duration": 0.19480499999998813,
          "durationTicks": 48,
          "midi": 45,
          "name": "A2",
          "ticks": 24120,
          "time": 97.88951250000001,
          "velocity": 1
        },
        {
          "duration": 0.19480500000000234,
          "durationTicks": 48,
          "midi": 38,
          "name": "D2",
          "ticks": 24168,
          "time": 98.0843175,
          "velocity": 1
        },
        {
          "duration": 0.2922075000000035,
          "durationTicks": 72,
          "midi": 34,
          "name": "A#1",
          "ticks": 24216,
          "time": 98.2791225,
          "velocity": 1
        },
        {
          "duration": 0.09740250000000117,
          "durationTicks": 24,
          "midi": 41,
          "name": "F2",
          "ticks": 24288,
          "time": 98.57133,
          "velocity": 1
        },
        {
          "duration": 0.19480500000000234,
          "durationTicks": 48,
          "midi": 34,
          "name": "A#1",
          "ticks": 24312,
          "time": 98.6687325,
          "velocity": 1
        },
        {
          "duration": 0.19480500000000234,
          "durationTicks": 48,
          "midi": 41,
          "name": "F2",
          "ticks": 24360,
          "time": 98.8635375,
          "velocity": 1
        },
        {
          "duration": 0.04870124999999348,
          "durationTicks": 12,
          "midi": 43,
          "name": "G2",
          "ticks": 24408,
          "time": 99.05834250000001,
          "velocity": 1
        },
        {
          "duration": 0.38960999999999046,
          "durationTicks": 96,
          "midi": 48,
          "name": "C3",
          "ticks": 24408,
          "time": 99.05834250000001,
          "velocity": 1
        },
        {
          "duration": 0.340908749999997,
          "durationTicks": 84,
          "midi": 43,
          "name": "G2",
          "ticks": 24420,
          "time": 99.10704375,
          "velocity": 1
        },
        {
          "duration": 0.19480500000000234,
          "durationTicks": 48,
          "midi": 43,
          "name": "G2",
          "ticks": 24504,
          "time": 99.4479525,
          "velocity": 1
        },
        {
          "duration": 0.3896100000000047,
          "durationTicks": 96,
          "midi": 48,
          "name": "C3",
          "ticks": 24504,
          "time": 99.4479525,
          "velocity": 1
        },
        {
          "duration": 0.19480500000000234,
          "durationTicks": 48,
          "midi": 43,
          "name": "G2",
          "ticks": 24552,
          "time": 99.6427575,
          "velocity": 1
        },
        {
          "duration": 0.3896100000000047,
          "durationTicks": 96,
          "midi": 38,
          "name": "D2",
          "ticks": 24600,
          "time": 99.8375625,
          "velocity": 1
        },
        {
          "duration": 0.2922074999999893,
          "durationTicks": 72,
          "midi": 45,
          "name": "A2",
          "ticks": 24696,
          "time": 100.22717250000001,
          "velocity": 1
        },
        {
          "duration": 0.2922074999999893,
          "durationTicks": 72,
          "midi": 50,
          "name": "D3",
          "ticks": 24696,
          "time": 100.22717250000001,
          "velocity": 1
        },
        {
          "duration": 0.09740250000000117,
          "durationTicks": 24,
          "midi": 50,
          "name": "D3",
          "ticks": 24768,
          "time": 100.51938,
          "velocity": 1
        },
        {
          "duration": 0.09740250000000117,
          "durationTicks": 24,
          "midi": 38,
          "name": "D2",
          "ticks": 24792,
          "time": 100.6167825,
          "velocity": 1
        },
        {
          "duration": 0.09740250000000117,
          "durationTicks": 24,
          "midi": 50,
          "name": "D3",
          "ticks": 24816,
          "time": 100.714185,
          "velocity": 1
        },
        {
          "duration": 0.19480500000000234,
          "durationTicks": 48,
          "midi": 41,
          "name": "F2",
          "ticks": 24840,
          "time": 100.8115875,
          "velocity": 1
        },
        {
          "duration": 0.19480500000000234,
          "durationTicks": 48,
          "midi": 45,
          "name": "A2",
          "ticks": 24888,
          "time": 101.0063925,
          "velocity": 1
        },
        {
          "duration": 0.19480500000000234,
          "durationTicks": 48,
          "midi": 38,
          "name": "D2",
          "ticks": 24936,
          "time": 101.2011975,
          "velocity": 1
        },
        {
          "duration": 0.2922074999999893,
          "durationTicks": 72,
          "midi": 34,
          "name": "A#1",
          "ticks": 24984,
          "time": 101.39600250000001,
          "velocity": 1
        },
        {
          "duration": 0.09740250000000117,
          "durationTicks": 24,
          "midi": 41,
          "name": "F2",
          "ticks": 25056,
          "time": 101.68821,
          "velocity": 1
        },
        {
          "duration": 0.19480500000000234,
          "durationTicks": 48,
          "midi": 34,
          "name": "A#1",
          "ticks": 25080,
          "time": 101.7856125,
          "velocity": 1
        },
        {
          "duration": 0.19480500000000234,
          "durationTicks": 48,
          "midi": 41,
          "name": "F2",
          "ticks": 25128,
          "time": 101.9804175,
          "velocity": 1
        },
        {
          "duration": 0.3896100000000047,
          "durationTicks": 96,
          "midi": 43,
          "name": "G2",
          "ticks": 25176,
          "time": 102.1752225,
          "velocity": 1
        },
        {
          "duration": 0.3896100000000047,
          "durationTicks": 96,
          "midi": 48,
          "name": "C3",
          "ticks": 25176,
          "time": 102.1752225,
          "velocity": 1
        },
        {
          "duration": 0.38960999999999046,
          "durationTicks": 96,
          "midi": 43,
          "name": "G2",
          "ticks": 25272,
          "time": 102.56483250000001,
          "velocity": 1
        },
        {
          "duration": 0.38960999999999046,
          "durationTicks": 96,
          "midi": 48,
          "name": "C3",
          "ticks": 25272,
          "time": 102.56483250000001,
          "velocity": 1
        },
        {
          "duration": 0.3896100000000047,
          "durationTicks": 96,
          "midi": 38,
          "name": "D2",
          "ticks": 25368,
          "time": 102.9544425,
          "velocity": 1
        },
        {
          "duration": 0.2922075000000035,
          "durationTicks": 72,
          "midi": 45,
          "name": "A2",
          "ticks": 25464,
          "time": 103.3440525,
          "velocity": 1
        },
        {
          "duration": 0.2922075000000035,
          "durationTicks": 72,
          "midi": 50,
          "name": "D3",
          "ticks": 25464,
          "time": 103.3440525,
          "velocity": 1
        },
        {
          "duration": 0.09740250000000117,
          "durationTicks": 24,
          "midi": 50,
          "name": "D3",
          "ticks": 25536,
          "time": 103.63626000000001,
          "velocity": 1
        },
        {
          "duration": 0.09740250000000117,
          "durationTicks": 24,
          "midi": 38,
          "name": "D2",
          "ticks": 25560,
          "time": 103.73366250000001,
          "velocity": 1
        },
        {
          "duration": 0.09740249999998696,
          "durationTicks": 24,
          "midi": 50,
          "name": "D3",
          "ticks": 25584,
          "time": 103.83106500000001,
          "velocity": 1
        },
        {
          "duration": 0.19480500000000234,
          "durationTicks": 48,
          "midi": 41,
          "name": "F2",
          "ticks": 25608,
          "time": 103.9284675,
          "velocity": 1
        },
        {
          "duration": 0.19480500000000234,
          "durationTicks": 48,
          "midi": 45,
          "name": "A2",
          "ticks": 25656,
          "time": 104.1232725,
          "velocity": 1
        },
        {
          "duration": 0.19480500000000234,
          "durationTicks": 48,
          "midi": 38,
          "name": "D2",
          "ticks": 25704,
          "time": 104.3180775,
          "velocity": 1
        },
        {
          "duration": 0.2922075000000035,
          "durationTicks": 72,
          "midi": 34,
          "name": "A#1",
          "ticks": 25752,
          "time": 104.5128825,
          "velocity": 1
        },
        {
          "duration": 0.09740250000000117,
          "durationTicks": 24,
          "midi": 41,
          "name": "F2",
          "ticks": 25824,
          "time": 104.80509,
          "velocity": 1
        },
        {
          "duration": 0.2922074999999893,
          "durationTicks": 72,
          "midi": 34,
          "name": "A#1",
          "ticks": 25848,
          "time": 104.90249250000001,
          "velocity": 1
        },
        {
          "duration": 0.09740250000000117,
          "durationTicks": 24,
          "midi": 41,
          "name": "F2",
          "ticks": 25920,
          "time": 105.1947,
          "velocity": 1
        },
        {
          "duration": 0.3896100000000047,
          "durationTicks": 96,
          "midi": 52,
          "name": "E3",
          "ticks": 25944,
          "time": 105.2921025,
          "velocity": 1
        },
        {
          "duration": 0.04870125000000769,
          "durationTicks": 12,
          "midi": 43,
          "name": "G2",
          "ticks": 25944,
          "time": 105.2921025,
          "velocity": 1
        },
        {
          "duration": 0.3896100000000047,
          "durationTicks": 96,
          "midi": 48,
          "name": "C3",
          "ticks": 25944,
          "time": 105.2921025,
          "velocity": 1
        },
        {
          "duration": 0.340908749999997,
          "durationTicks": 84,
          "midi": 43,
          "name": "G2",
          "ticks": 25956,
          "time": 105.34080375,
          "velocity": 1
        },
        {
          "duration": 0.19480500000000234,
          "durationTicks": 48,
          "midi": 36,
          "name": "C2",
          "ticks": 26040,
          "time": 105.6817125,
          "velocity": 1
        },
        {
          "duration": 0.19480500000000234,
          "durationTicks": 48,
          "midi": 43,
          "name": "G2",
          "ticks": 26040,
          "time": 105.6817125,
          "velocity": 1
        },
        {
          "duration": 0.3896100000000047,
          "durationTicks": 96,
          "midi": 48,
          "name": "C3",
          "ticks": 26040,
          "time": 105.6817125,
          "velocity": 1
        },
        {
          "duration": 0.38960999999999046,
          "durationTicks": 96,
          "midi": 46,
          "name": "A#2",
          "ticks": 26136,
          "time": 106.07132250000001,
          "velocity": 1
        },
        {
          "duration": 0.38960999999999046,
          "durationTicks": 96,
          "midi": 34,
          "name": "A#1",
          "ticks": 26136,
          "time": 106.07132250000001,
          "velocity": 1
        },
        {
          "duration": 0.38960999999999046,
          "durationTicks": 96,
          "midi": 41,
          "name": "F2",
          "ticks": 26136,
          "time": 106.07132250000001,
          "velocity": 1
        },
        {
          "duration": 0.3896100000000047,
          "durationTicks": 96,
          "midi": 46,
          "name": "A#2",
          "ticks": 26232,
          "time": 106.4609325,
          "velocity": 1
        },
        {
          "duration": 0.3896100000000047,
          "durationTicks": 96,
          "midi": 34,
          "name": "A#1",
          "ticks": 26232,
          "time": 106.4609325,
          "velocity": 1
        },
        {
          "duration": 0.3896100000000047,
          "durationTicks": 96,
          "midi": 41,
          "name": "F2",
          "ticks": 26232,
          "time": 106.4609325,
          "velocity": 1
        },
        {
          "duration": 0.3896100000000047,
          "durationTicks": 96,
          "midi": 46,
          "name": "A#2",
          "ticks": 26328,
          "time": 106.8505425,
          "velocity": 1
        },
        {
          "duration": 0.3896100000000047,
          "durationTicks": 96,
          "midi": 34,
          "name": "A#1",
          "ticks": 26328,
          "time": 106.8505425,
          "velocity": 1
        },
        {
          "duration": 0.3896100000000047,
          "durationTicks": 96,
          "midi": 41,
          "name": "F2",
          "ticks": 26328,
          "time": 106.8505425,
          "velocity": 1
        },
        {
          "duration": 0.2922074999999893,
          "durationTicks": 72,
          "midi": 46,
          "name": "A#2",
          "ticks": 26424,
          "time": 107.24015250000001,
          "velocity": 1
        },
        {
          "duration": 0.2922074999999893,
          "durationTicks": 72,
          "midi": 34,
          "name": "A#1",
          "ticks": 26424,
          "time": 107.24015250000001,
          "velocity": 1
        },
        {
          "duration": 0.2922074999999893,
          "durationTicks": 72,
          "midi": 41,
          "name": "F2",
          "ticks": 26424,
          "time": 107.24015250000001,
          "velocity": 1
        },
        {
          "duration": 0.09740250000000117,
          "durationTicks": 24,
          "midi": 41,
          "name": "F2",
          "ticks": 26496,
          "time": 107.53236,
          "velocity": 1
        },
        {
          "duration": 0.3896100000000047,
          "durationTicks": 96,
          "midi": 41,
          "name": "F2",
          "ticks": 26520,
          "time": 107.6297625,
          "velocity": 1
        },
        {
          "duration": 0.3896100000000047,
          "durationTicks": 96,
          "midi": 29,
          "name": "F1",
          "ticks": 26520,
          "time": 107.6297625,
          "velocity": 1
        },
        {
          "duration": 0.3896100000000047,
          "durationTicks": 96,
          "midi": 36,
          "name": "C2",
          "ticks": 26520,
          "time": 107.6297625,
          "velocity": 1
        },
        {
          "duration": 0.3896100000000047,
          "durationTicks": 96,
          "midi": 41,
          "name": "F2",
          "ticks": 26616,
          "time": 108.0193725,
          "velocity": 1
        },
        {
          "duration": 0.3896100000000047,
          "durationTicks": 96,
          "midi": 29,
          "name": "F1",
          "ticks": 26616,
          "time": 108.0193725,
          "velocity": 1
        },
        {
          "duration": 0.3896100000000047,
          "durationTicks": 96,
          "midi": 36,
          "name": "C2",
          "ticks": 26616,
          "time": 108.0193725,
          "velocity": 1
        },
        {
          "duration": 0.38960999999999046,
          "durationTicks": 96,
          "midi": 41,
          "name": "F2",
          "ticks": 26712,
          "time": 108.40898250000001,
          "velocity": 1
        },
        {
          "duration": 0.38960999999999046,
          "durationTicks": 96,
          "midi": 29,
          "name": "F1",
          "ticks": 26712,
          "time": 108.40898250000001,
          "velocity": 1
        },
        {
          "duration": 0.38960999999999046,
          "durationTicks": 96,
          "midi": 36,
          "name": "C2",
          "ticks": 26712,
          "time": 108.40898250000001,
          "velocity": 1
        },
        {
          "duration": 0.2922075000000035,
          "durationTicks": 72,
          "midi": 41,
          "name": "F2",
          "ticks": 26808,
          "time": 108.7985925,
          "velocity": 1
        },
        {
          "duration": 0.2922075000000035,
          "durationTicks": 72,
          "midi": 29,
          "name": "F1",
          "ticks": 26808,
          "time": 108.7985925,
          "velocity": 1
        },
        {
          "duration": 0.2922075000000035,
          "durationTicks": 72,
          "midi": 36,
          "name": "C2",
          "ticks": 26808,
          "time": 108.7985925,
          "velocity": 1
        },
        {
          "duration": 0.09740250000000117,
          "durationTicks": 24,
          "midi": 36,
          "name": "C2",
          "ticks": 26880,
          "time": 109.0908,
          "velocity": 1
        },
        {
          "duration": 0.3896100000000047,
          "durationTicks": 96,
          "midi": 34,
          "name": "A#1",
          "ticks": 26904,
          "time": 109.1882025,
          "velocity": 1
        },
        {
          "duration": 0.3896100000000047,
          "durationTicks": 96,
          "midi": 46,
          "name": "A#2",
          "ticks": 26904,
          "time": 109.1882025,
          "velocity": 1
        },
        {
          "duration": 0.2922074999999893,
          "durationTicks": 72,
          "midi": 34,
          "name": "A#1",
          "ticks": 27000,
          "time": 109.57781250000001,
          "velocity": 1
        },
        {
          "duration": 0.2922074999999893,
          "durationTicks": 72,
          "midi": 46,
          "name": "A#2",
          "ticks": 27000,
          "time": 109.57781250000001,
          "velocity": 1
        },
        {
          "duration": 0.09740250000000117,
          "durationTicks": 24,
          "midi": 41,
          "name": "F2",
          "ticks": 27072,
          "time": 109.87002,
          "velocity": 1
        },
        {
          "duration": 0.3896100000000047,
          "durationTicks": 96,
          "midi": 36,
          "name": "C2",
          "ticks": 27096,
          "time": 109.9674225,
          "velocity": 1
        },
        {
          "duration": 0.3896100000000047,
          "durationTicks": 96,
          "midi": 48,
          "name": "C3",
          "ticks": 27096,
          "time": 109.9674225,
          "velocity": 1
        },
        {
          "duration": 0.3896100000000047,
          "durationTicks": 96,
          "midi": 36,
          "name": "C2",
          "ticks": 27192,
          "time": 110.3570325,
          "velocity": 1
        },
        {
          "duration": 0.3896100000000047,
          "durationTicks": 96,
          "midi": 48,
          "name": "C3",
          "ticks": 27192,
          "time": 110.3570325,
          "velocity": 1
        },
        {
          "duration": 0.38960999999999046,
          "durationTicks": 96,
          "midi": 38,
          "name": "D2",
          "ticks": 27288,
          "time": 110.74664250000001,
          "velocity": 1
        },
        {
          "duration": 0.38960999999999046,
          "durationTicks": 96,
          "midi": 50,
          "name": "D3",
          "ticks": 27288,
          "time": 110.74664250000001,
          "velocity": 1
        },
        {
          "duration": 0.09740250000000117,
          "durationTicks": 24,
          "midi": 38,
          "name": "D2",
          "ticks": 27384,
          "time": 111.1362525,
          "velocity": 1
        },
        {
          "duration": 0.09740250000000117,
          "durationTicks": 24,
          "midi": 50,
          "name": "D3",
          "ticks": 27408,
          "time": 111.233655,
          "velocity": 1
        },
        {
          "duration": 0.09740250000000117,
          "durationTicks": 24,
          "midi": 38,
          "name": "D2",
          "ticks": 27432,
          "time": 111.3310575,
          "velocity": 1
        },
        {
          "duration": 0.09740250000000117,
          "durationTicks": 24,
          "midi": 50,
          "name": "D3",
          "ticks": 27456,
          "time": 111.42846,
          "velocity": 1
        },
        {
          "duration": 0.19480500000000234,
          "durationTicks": 48,
          "midi": 45,
          "name": "A2",
          "ticks": 27480,
          "time": 111.5258625,
          "velocity": 1
        },
        {
          "duration": 0.19480500000000234,
          "durationTicks": 48,
          "midi": 43,
          "name": "G2",
          "ticks": 27528,
          "time": 111.7206675,
          "velocity": 1
        },
        {
          "duration": 0.19480500000000234,
          "durationTicks": 48,
          "midi": 41,
          "name": "F2",
          "ticks": 27576,
          "time": 111.9154725,
          "velocity": 1
        },
        {
          "duration": 0.19480499999998813,
          "durationTicks": 48,
          "midi": 38,
          "name": "D2",
          "ticks": 27624,
          "time": 112.11027750000001,
          "velocity": 1
        },
        {
          "duration": 0.3896100000000047,
          "durationTicks": 96,
          "midi": 46,
          "name": "A#2",
          "ticks": 27672,
          "time": 112.3050825,
          "velocity": 1
        },
        {
          "duration": 0.3896100000000047,
          "durationTicks": 96,
          "midi": 34,
          "name": "A#1",
          "ticks": 27672,
          "time": 112.3050825,
          "velocity": 1
        },
        {
          "duration": 0.3896100000000047,
          "durationTicks": 96,
          "midi": 41,
          "name": "F2",
          "ticks": 27672,
          "time": 112.3050825,
          "velocity": 1
        },
        {
          "duration": 0.3896100000000047,
          "durationTicks": 96,
          "midi": 46,
          "name": "A#2",
          "ticks": 27768,
          "time": 112.6946925,
          "velocity": 1
        },
        {
          "duration": 0.3896100000000047,
          "durationTicks": 96,
          "midi": 34,
          "name": "A#1",
          "ticks": 27768,
          "time": 112.6946925,
          "velocity": 1
        },
        {
          "duration": 0.3896100000000047,
          "durationTicks": 96,
          "midi": 41,
          "name": "F2",
          "ticks": 27768,
          "time": 112.6946925,
          "velocity": 1
        },
        {
          "duration": 0.38960999999999046,
          "durationTicks": 96,
          "midi": 46,
          "name": "A#2",
          "ticks": 27864,
          "time": 113.0843025,
          "velocity": 1
        },
        {
          "duration": 0.38960999999999046,
          "durationTicks": 96,
          "midi": 34,
          "name": "A#1",
          "ticks": 27864,
          "time": 113.0843025,
          "velocity": 1
        },
        {
          "duration": 0.38960999999999046,
          "durationTicks": 96,
          "midi": 41,
          "name": "F2",
          "ticks": 27864,
          "time": 113.0843025,
          "velocity": 1
        },
        {
          "duration": 0.3896100000000047,
          "durationTicks": 96,
          "midi": 46,
          "name": "A#2",
          "ticks": 27960,
          "time": 113.4739125,
          "velocity": 1
        },
        {
          "duration": 0.2922075000000035,
          "durationTicks": 72,
          "midi": 34,
          "name": "A#1",
          "ticks": 27960,
          "time": 113.4739125,
          "velocity": 1
        },
        {
          "duration": 0.3896100000000047,
          "durationTicks": 96,
          "midi": 41,
          "name": "F2",
          "ticks": 27960,
          "time": 113.4739125,
          "velocity": 1
        },
        {
          "duration": 0.09740250000000117,
          "durationTicks": 24,
          "midi": 41,
          "name": "F2",
          "ticks": 28032,
          "time": 113.76612,
          "velocity": 1
        },
        {
          "duration": 0.3896100000000047,
          "durationTicks": 96,
          "midi": 41,
          "name": "F2",
          "ticks": 28056,
          "time": 113.8635225,
          "velocity": 1
        },
        {
          "duration": 0.3896100000000047,
          "durationTicks": 96,
          "midi": 29,
          "name": "F1",
          "ticks": 28056,
          "time": 113.8635225,
          "velocity": 1
        },
        {
          "duration": 0.3896100000000047,
          "durationTicks": 96,
          "midi": 36,
          "name": "C2",
          "ticks": 28056,
          "time": 113.8635225,
          "velocity": 1
        },
        {
          "duration": 0.38960999999999046,
          "durationTicks": 96,
          "midi": 41,
          "name": "F2",
          "ticks": 28152,
          "time": 114.2531325,
          "velocity": 1
        },
        {
          "duration": 0.38960999999999046,
          "durationTicks": 96,
          "midi": 29,
          "name": "F1",
          "ticks": 28152,
          "time": 114.2531325,
          "velocity": 1
        },
        {
          "duration": 0.38960999999999046,
          "durationTicks": 96,
          "midi": 36,
          "name": "C2",
          "ticks": 28152,
          "time": 114.2531325,
          "velocity": 1
        },
        {
          "duration": 0.3896100000000047,
          "durationTicks": 96,
          "midi": 41,
          "name": "F2",
          "ticks": 28248,
          "time": 114.6427425,
          "velocity": 1
        },
        {
          "duration": 0.3896100000000047,
          "durationTicks": 96,
          "midi": 29,
          "name": "F1",
          "ticks": 28248,
          "time": 114.6427425,
          "velocity": 1
        },
        {
          "duration": 0.3896100000000047,
          "durationTicks": 96,
          "midi": 36,
          "name": "C2",
          "ticks": 28248,
          "time": 114.6427425,
          "velocity": 1
        },
        {
          "duration": 0.3896100000000047,
          "durationTicks": 96,
          "midi": 41,
          "name": "F2",
          "ticks": 28344,
          "time": 115.0323525,
          "velocity": 1
        },
        {
          "duration": 0.2922075000000035,
          "durationTicks": 72,
          "midi": 29,
          "name": "F1",
          "ticks": 28344,
          "time": 115.0323525,
          "velocity": 1
        },
        {
          "duration": 0.3896100000000047,
          "durationTicks": 96,
          "midi": 36,
          "name": "C2",
          "ticks": 28344,
          "time": 115.0323525,
          "velocity": 1
        },
        {
          "duration": 0.09740250000000117,
          "durationTicks": 24,
          "midi": 36,
          "name": "C2",
          "ticks": 28416,
          "time": 115.32456,
          "velocity": 1
        },
        {
          "duration": 0.19480500000000234,
          "durationTicks": 48,
          "midi": 43,
          "name": "G2",
          "ticks": 28440,
          "time": 115.4219625,
          "velocity": 1
        },
        {
          "duration": 0.19480500000000234,
          "durationTicks": 48,
          "midi": 31,
          "name": "G1",
          "ticks": 28440,
          "time": 115.4219625,
          "velocity": 1
        },
        {
          "duration": 0.19480500000000234,
          "durationTicks": 48,
          "midi": 38,
          "name": "D2",
          "ticks": 28440,
          "time": 115.4219625,
          "velocity": 1
        },
        {
          "duration": 0.19480499999998813,
          "durationTicks": 48,
          "midi": 43,
          "name": "G2",
          "ticks": 28488,
          "time": 115.61676750000001,
          "velocity": 1
        },
        {
          "duration": 0.19480499999998813,
          "durationTicks": 48,
          "midi": 31,
          "name": "G1",
          "ticks": 28488,
          "time": 115.61676750000001,
          "velocity": 1
        },
        {
          "duration": 0.19480499999998813,
          "durationTicks": 48,
          "midi": 38,
          "name": "D2",
          "ticks": 28488,
          "time": 115.61676750000001,
          "velocity": 1
        },
        {
          "duration": 0.19480500000000234,
          "durationTicks": 48,
          "midi": 43,
          "name": "G2",
          "ticks": 28584,
          "time": 116.0063775,
          "velocity": 1
        },
        {
          "duration": 0.19480500000000234,
          "durationTicks": 48,
          "midi": 31,
          "name": "G1",
          "ticks": 28584,
          "time": 116.0063775,
          "velocity": 1
        },
        {
          "duration": 0.19480500000000234,
          "durationTicks": 48,
          "midi": 38,
          "name": "D2",
          "ticks": 28584,
          "time": 116.0063775,
          "velocity": 1
        },
        {
          "duration": 0.19480500000000234,
          "durationTicks": 48,
          "midi": 43,
          "name": "G2",
          "ticks": 28632,
          "time": 116.2011825,
          "velocity": 1
        },
        {
          "duration": 0.19480500000000234,
          "durationTicks": 48,
          "midi": 31,
          "name": "G1",
          "ticks": 28632,
          "time": 116.2011825,
          "velocity": 1
        },
        {
          "duration": 0.19480500000000234,
          "durationTicks": 48,
          "midi": 38,
          "name": "D2",
          "ticks": 28632,
          "time": 116.2011825,
          "velocity": 1
        },
        {
          "duration": 0.19480500000000234,
          "durationTicks": 48,
          "midi": 43,
          "name": "G2",
          "ticks": 28728,
          "time": 116.5907925,
          "velocity": 1
        },
        {
          "duration": 0.19480500000000234,
          "durationTicks": 48,
          "midi": 31,
          "name": "G1",
          "ticks": 28728,
          "time": 116.5907925,
          "velocity": 1
        },
        {
          "duration": 0.19480500000000234,
          "durationTicks": 48,
          "midi": 38,
          "name": "D2",
          "ticks": 28728,
          "time": 116.5907925,
          "velocity": 1
        },
        {
          "duration": 0.19480500000000234,
          "durationTicks": 48,
          "midi": 45,
          "name": "A2",
          "ticks": 28824,
          "time": 116.9804025,
          "velocity": 1
        },
        {
          "duration": 0.19480500000000234,
          "durationTicks": 48,
          "midi": 33,
          "name": "A1",
          "ticks": 28824,
          "time": 116.9804025,
          "velocity": 1
        },
        {
          "duration": 0.19480500000000234,
          "durationTicks": 48,
          "midi": 40,
          "name": "E2",
          "ticks": 28824,
          "time": 116.9804025,
          "velocity": 1
        },
        {
          "duration": 0.19480500000000234,
          "durationTicks": 48,
          "midi": 45,
          "name": "A2",
          "ticks": 28920,
          "time": 117.3700125,
          "velocity": 1
        },
        {
          "duration": 0.19480500000000234,
          "durationTicks": 48,
          "midi": 33,
          "name": "A1",
          "ticks": 28920,
          "time": 117.3700125,
          "velocity": 1
        },
        {
          "duration": 0.19480500000000234,
          "durationTicks": 48,
          "midi": 40,
          "name": "E2",
          "ticks": 28920,
          "time": 117.3700125,
          "velocity": 1
        },
        {
          "duration": 0.19480500000000234,
          "durationTicks": 48,
          "midi": 45,
          "name": "A2",
          "ticks": 28968,
          "time": 117.5648175,
          "velocity": 1
        },
        {
          "duration": 0.19480500000000234,
          "durationTicks": 48,
          "midi": 33,
          "name": "A1",
          "ticks": 28968,
          "time": 117.5648175,
          "velocity": 1
        },
        {
          "duration": 0.19480500000000234,
          "durationTicks": 48,
          "midi": 40,
          "name": "E2",
          "ticks": 28968,
          "time": 117.5648175,
          "velocity": 1
        },
        {
          "duration": 0.2922075000000035,
          "durationTicks": 72,
          "midi": 50,
          "name": "D3",
          "ticks": 29208,
          "time": 118.5388425,
          "velocity": 1
        },
        {
          "duration": 0.2922075000000035,
          "durationTicks": 72,
          "midi": 38,
          "name": "D2",
          "ticks": 29208,
          "time": 118.5388425,
          "velocity": 1
        },
        {
          "duration": 0.2922075000000035,
          "durationTicks": 72,
          "midi": 45,
          "name": "A2",
          "ticks": 29208,
          "time": 118.5388425,
          "velocity": 1
        },
        {
          "duration": 0.09740250000000117,
          "durationTicks": 24,
          "midi": 43,
          "name": "G2",
          "ticks": 29280,
          "time": 118.83105,
          "velocity": 1
        },
        {
          "duration": 0.19480500000000234,
          "durationTicks": 48,
          "midi": 50,
          "name": "D3",
          "ticks": 29304,
          "time": 118.9284525,
          "velocity": 1
        },
        {
          "duration": 0.19480500000000234,
          "durationTicks": 48,
          "midi": 48,
          "name": "C3",
          "ticks": 29352,
          "time": 119.12325750000001,
          "velocity": 1
        },
        {
          "duration": 0.19480500000000234,
          "durationTicks": 48,
          "midi": 53,
          "name": "F3",
          "ticks": 29352,
          "time": 119.12325750000001,
          "velocity": 1
        },
        {
          "duration": 0.19480499999998813,
          "durationTicks": 48,
          "midi": 46,
          "name": "A#2",
          "ticks": 29400,
          "time": 119.31806250000001,
          "velocity": 1
        },
        {
          "duration": 0.19480499999998813,
          "durationTicks": 48,
          "midi": 53,
          "name": "F3",
          "ticks": 29400,
          "time": 119.31806250000001,
          "velocity": 1
        },
        {
          "duration": 0.09740250000000117,
          "durationTicks": 24,
          "midi": 46,
          "name": "A#2",
          "ticks": 29448,
          "time": 119.5128675,
          "velocity": 1
        },
        {
          "duration": 0.09740250000000117,
          "durationTicks": 24,
          "midi": 41,
          "name": "F2",
          "ticks": 29472,
          "time": 119.61027,
          "velocity": 1
        },
        {
          "duration": 0.19480500000000234,
          "durationTicks": 48,
          "midi": 34,
          "name": "A#1",
          "ticks": 29496,
          "time": 119.7076725,
          "velocity": 1
        },
        {
          "duration": 0.19480500000000234,
          "durationTicks": 48,
          "midi": 41,
          "name": "F2",
          "ticks": 29544,
          "time": 119.9024775,
          "velocity": 1
        },
        {
          "duration": 0.19480500000000234,
          "durationTicks": 48,
          "midi": 46,
          "name": "A#2",
          "ticks": 29544,
          "time": 119.9024775,
          "velocity": 1
        },
        {
          "duration": 0.2922075000000035,
          "durationTicks": 72,
          "midi": 48,
          "name": "C3",
          "ticks": 29592,
          "time": 120.0972825,
          "velocity": 1
        },
        {
          "duration": 0.2922075000000035,
          "durationTicks": 72,
          "midi": 36,
          "name": "C2",
          "ticks": 29592,
          "time": 120.0972825,
          "velocity": 1
        },
        {
          "duration": 0.2922075000000035,
          "durationTicks": 72,
          "midi": 43,
          "name": "G2",
          "ticks": 29592,
          "time": 120.0972825,
          "velocity": 1
        },
        {
          "duration": 0.09740250000000117,
          "durationTicks": 24,
          "midi": 41,
          "name": "F2",
          "ticks": 29664,
          "time": 120.38949000000001,
          "velocity": 1
        },
        {
          "duration": 0.19480499999998813,
          "durationTicks": 48,
          "midi": 48,
          "name": "C3",
          "ticks": 29688,
          "time": 120.48689250000001,
          "velocity": 1
        },
        {
          "duration": 0.19480500000000234,
          "durationTicks": 48,
          "midi": 48,
          "name": "C3",
          "ticks": 29736,
          "time": 120.6816975,
          "velocity": 1
        },
        {
          "duration": 0.19480500000000234,
          "durationTicks": 48,
          "midi": 53,
          "name": "F3",
          "ticks": 29736,
          "time": 120.6816975,
          "velocity": 1
        },
        {
          "duration": 0.2922075000000035,
          "durationTicks": 72,
          "midi": 53,
          "name": "F3",
          "ticks": 29784,
          "time": 120.8765025,
          "velocity": 1
        },
        {
          "duration": 0.2922075000000035,
          "durationTicks": 72,
          "midi": 41,
          "name": "F2",
          "ticks": 29784,
          "time": 120.8765025,
          "velocity": 1
        },
        {
          "duration": 0.2922075000000035,
          "durationTicks": 72,
          "midi": 48,
          "name": "C3",
          "ticks": 29784,
          "time": 120.8765025,
          "velocity": 1
        },
        {
          "duration": 0.09740250000000117,
          "durationTicks": 24,
          "midi": 41,
          "name": "F2",
          "ticks": 29856,
          "time": 121.16871,
          "velocity": 1
        },
        {
          "duration": 0.19480500000000234,
          "durationTicks": 48,
          "midi": 41,
          "name": "F2",
          "ticks": 29880,
          "time": 121.2661125,
          "velocity": 1
        },
        {
          "duration": 0.19480500000000234,
          "durationTicks": 48,
          "midi": 53,
          "name": "F3",
          "ticks": 29928,
          "time": 121.46091750000001,
          "velocity": 1
        },
        {
          "duration": 0.19480500000000234,
          "durationTicks": 48,
          "midi": 46,
          "name": "A#2",
          "ticks": 29928,
          "time": 121.46091750000001,
          "velocity": 1
        },
        {
          "duration": 0.2922074999999893,
          "durationTicks": 72,
          "midi": 50,
          "name": "D3",
          "ticks": 29976,
          "time": 121.65572250000001,
          "velocity": 1
        },
        {
          "duration": 0.2922074999999893,
          "durationTicks": 72,
          "midi": 38,
          "name": "D2",
          "ticks": 29976,
          "time": 121.65572250000001,
          "velocity": 1
        },
        {
          "duration": 0.2922074999999893,
          "durationTicks": 72,
          "midi": 45,
          "name": "A2",
          "ticks": 29976,
          "time": 121.65572250000001,
          "velocity": 1
        },
        {
          "duration": 0.09740250000000117,
          "durationTicks": 24,
          "midi": 43,
          "name": "G2",
          "ticks": 30048,
          "time": 121.94793,
          "velocity": 1
        },
        {
          "duration": 0.19480500000000234,
          "durationTicks": 48,
          "midi": 50,
          "name": "D3",
          "ticks": 30072,
          "time": 122.0453325,
          "velocity": 1
        },
        {
          "duration": 0.19480500000000234,
          "durationTicks": 48,
          "midi": 48,
          "name": "C3",
          "ticks": 30120,
          "time": 122.2401375,
          "velocity": 1
        },
        {
          "duration": 0.19480500000000234,
          "durationTicks": 48,
          "midi": 53,
          "name": "F3",
          "ticks": 30120,
          "time": 122.2401375,
          "velocity": 1
        },
        {
          "duration": 0.19480500000000234,
          "durationTicks": 48,
          "midi": 46,
          "name": "A#2",
          "ticks": 30168,
          "time": 122.4349425,
          "velocity": 1
        },
        {
          "duration": 0.19480500000000234,
          "durationTicks": 48,
          "midi": 53,
          "name": "F3",
          "ticks": 30168,
          "time": 122.4349425,
          "velocity": 1
        },
        {
          "duration": 0.09740250000000117,
          "durationTicks": 24,
          "midi": 46,
          "name": "A#2",
          "ticks": 30216,
          "time": 122.62974750000001,
          "velocity": 1
        },
        {
          "duration": 0.09740250000000117,
          "durationTicks": 24,
          "midi": 41,
          "name": "F2",
          "ticks": 30240,
          "time": 122.72715000000001,
          "velocity": 1
        },
        {
          "duration": 0.19480499999998813,
          "durationTicks": 48,
          "midi": 34,
          "name": "A#1",
          "ticks": 30264,
          "time": 122.82455250000001,
          "velocity": 1
        },
        {
          "duration": 0.19480500000000234,
          "durationTicks": 48,
          "midi": 41,
          "name": "F2",
          "ticks": 30312,
          "time": 123.0193575,
          "velocity": 1
        },
        {
          "duration": 0.19480500000000234,
          "durationTicks": 48,
          "midi": 46,
          "name": "A#2",
          "ticks": 30312,
          "time": 123.0193575,
          "velocity": 1
        },
        {
          "duration": 0.2922075000000035,
          "durationTicks": 72,
          "midi": 48,
          "name": "C3",
          "ticks": 30360,
          "time": 123.2141625,
          "velocity": 1
        },
        {
          "duration": 0.2922075000000035,
          "durationTicks": 72,
          "midi": 36,
          "name": "C2",
          "ticks": 30360,
          "time": 123.2141625,
          "velocity": 1
        },
        {
          "duration": 0.2922075000000035,
          "durationTicks": 72,
          "midi": 43,
          "name": "G2",
          "ticks": 30360,
          "time": 123.2141625,
          "velocity": 1
        },
        {
          "duration": 0.09740250000000117,
          "durationTicks": 24,
          "midi": 41,
          "name": "F2",
          "ticks": 30432,
          "time": 123.50637,
          "velocity": 1
        },
        {
          "duration": 0.19480500000000234,
          "durationTicks": 48,
          "midi": 48,
          "name": "C3",
          "ticks": 30456,
          "time": 123.6037725,
          "velocity": 1
        },
        {
          "duration": 0.19480500000000234,
          "durationTicks": 48,
          "midi": 48,
          "name": "C3",
          "ticks": 30504,
          "time": 123.79857750000001,
          "velocity": 1
        },
        {
          "duration": 0.19480500000000234,
          "durationTicks": 48,
          "midi": 53,
          "name": "F3",
          "ticks": 30504,
          "time": 123.79857750000001,
          "velocity": 1
        },
        {
          "duration": 0.2922074999999893,
          "durationTicks": 72,
          "midi": 48,
          "name": "C3",
          "ticks": 30552,
          "time": 123.99338250000001,
          "velocity": 1
        },
        {
          "duration": 0.2922074999999893,
          "durationTicks": 72,
          "midi": 53,
          "name": "F3",
          "ticks": 30552,
          "time": 123.99338250000001,
          "velocity": 1
        },
        {
          "duration": 0.2922074999999893,
          "durationTicks": 72,
          "midi": 41,
          "name": "F2",
          "ticks": 30552,
          "time": 123.99338250000001,
          "velocity": 1
        },
        {
          "duration": 0.09740250000000117,
          "durationTicks": 24,
          "midi": 41,
          "name": "F2",
          "ticks": 30624,
          "time": 124.28559,
          "velocity": 1
        },
        {
          "duration": 0.19480500000000234,
          "durationTicks": 48,
          "midi": 41,
          "name": "F2",
          "ticks": 30648,
          "time": 124.3829925,
          "velocity": 1
        },
        {
          "duration": 0.19480500000000234,
          "durationTicks": 48,
          "midi": 53,
          "name": "F3",
          "ticks": 30696,
          "time": 124.5777975,
          "velocity": 1
        },
        {
          "duration": 0.19480500000000234,
          "durationTicks": 48,
          "midi": 46,
          "name": "A#2",
          "ticks": 30696,
          "time": 124.5777975,
          "velocity": 1
        },
        {
          "duration": 0.2922075000000035,
          "durationTicks": 72,
          "midi": 50,
          "name": "D3",
          "ticks": 30744,
          "time": 124.7726025,
          "velocity": 1
        },
        {
          "duration": 0.2922075000000035,
          "durationTicks": 72,
          "midi": 38,
          "name": "D2",
          "ticks": 30744,
          "time": 124.7726025,
          "velocity": 1
        },
        {
          "duration": 0.2922075000000035,
          "durationTicks": 72,
          "midi": 45,
          "name": "A2",
          "ticks": 30744,
          "time": 124.7726025,
          "velocity": 1
        },
        {
          "duration": 0.09740250000000117,
          "durationTicks": 24,
          "midi": 43,
          "name": "G2",
          "ticks": 30816,
          "time": 125.06481000000001,
          "velocity": 1
        },
        {
          "duration": 0.19480499999998813,
          "durationTicks": 48,
          "midi": 50,
          "name": "D3",
          "ticks": 30840,
          "time": 125.16221250000001,
          "velocity": 1
        },
        {
          "duration": 0.19480500000000234,
          "durationTicks": 48,
          "midi": 48,
          "name": "C3",
          "ticks": 30888,
          "time": 125.3570175,
          "velocity": 1
        },
        {
          "duration": 0.19480500000000234,
          "durationTicks": 48,
          "midi": 53,
          "name": "F3",
          "ticks": 30888,
          "time": 125.3570175,
          "velocity": 1
        },
        {
          "duration": 0.19480500000000234,
          "durationTicks": 48,
          "midi": 46,
          "name": "A#2",
          "ticks": 30936,
          "time": 125.5518225,
          "velocity": 1
        },
        {
          "duration": 0.19480500000000234,
          "durationTicks": 48,
          "midi": 53,
          "name": "F3",
          "ticks": 30936,
          "time": 125.5518225,
          "velocity": 1
        },
        {
          "duration": 0.09740250000000117,
          "durationTicks": 24,
          "midi": 46,
          "name": "A#2",
          "ticks": 30984,
          "time": 125.7466275,
          "velocity": 1
        },
        {
          "duration": 0.09740250000000117,
          "durationTicks": 24,
          "midi": 41,
          "name": "F2",
          "ticks": 31008,
          "time": 125.84403,
          "velocity": 1
        },
        {
          "duration": 0.19480500000000234,
          "durationTicks": 48,
          "midi": 34,
          "name": "A#1",
          "ticks": 31032,
          "time": 125.9414325,
          "velocity": 1
        },
        {
          "duration": 0.19480500000000234,
          "durationTicks": 48,
          "midi": 41,
          "name": "F2",
          "ticks": 31080,
          "time": 126.13623750000001,
          "velocity": 1
        },
        {
          "duration": 0.19480500000000234,
          "durationTicks": 48,
          "midi": 46,
          "name": "A#2",
          "ticks": 31080,
          "time": 126.13623750000001,
          "velocity": 1
        },
        {
          "duration": 0.2922074999999893,
          "durationTicks": 72,
          "midi": 48,
          "name": "C3",
          "ticks": 31128,
          "time": 126.33104250000001,
          "velocity": 1
        },
        {
          "duration": 0.2922074999999893,
          "durationTicks": 72,
          "midi": 36,
          "name": "C2",
          "ticks": 31128,
          "time": 126.33104250000001,
          "velocity": 1
        },
        {
          "duration": 0.2922074999999893,
          "durationTicks": 72,
          "midi": 43,
          "name": "G2",
          "ticks": 31128,
          "time": 126.33104250000001,
          "velocity": 1
        },
        {
          "duration": 0.09740250000000117,
          "durationTicks": 24,
          "midi": 41,
          "name": "F2",
          "ticks": 31200,
          "time": 126.62325,
          "velocity": 1
        },
        {
          "duration": 0.19480500000000234,
          "durationTicks": 48,
          "midi": 48,
          "name": "C3",
          "ticks": 31224,
          "time": 126.7206525,
          "velocity": 1
        },
        {
          "duration": 0.19480500000000234,
          "durationTicks": 48,
          "midi": 48,
          "name": "C3",
          "ticks": 31272,
          "time": 126.9154575,
          "velocity": 1
        },
        {
          "duration": 0.19480500000000234,
          "durationTicks": 48,
          "midi": 53,
          "name": "F3",
          "ticks": 31272,
          "time": 126.9154575,
          "velocity": 1
        },
        {
          "duration": 0.2922075000000035,
          "durationTicks": 72,
          "midi": 53,
          "name": "F3",
          "ticks": 31320,
          "time": 127.1102625,
          "velocity": 1
        },
        {
          "duration": 0.2922075000000035,
          "durationTicks": 72,
          "midi": 41,
          "name": "F2",
          "ticks": 31320,
          "time": 127.1102625,
          "velocity": 1
        },
        {
          "duration": 0.2922075000000035,
          "durationTicks": 72,
          "midi": 48,
          "name": "C3",
          "ticks": 31320,
          "time": 127.1102625,
          "velocity": 1
        },
        {
          "duration": 0.09740250000000117,
          "durationTicks": 24,
          "midi": 41,
          "name": "F2",
          "ticks": 31392,
          "time": 127.40247000000001,
          "velocity": 1
        },
        {
          "duration": 0.19480499999998813,
          "durationTicks": 48,
          "midi": 41,
          "name": "F2",
          "ticks": 31416,
          "time": 127.49987250000001,
          "velocity": 1
        },
        {
          "duration": 0.19480500000000234,
          "durationTicks": 48,
          "midi": 53,
          "name": "F3",
          "ticks": 31464,
          "time": 127.6946775,
          "velocity": 1
        },
        {
          "duration": 0.19480500000000234,
          "durationTicks": 48,
          "midi": 46,
          "name": "A#2",
          "ticks": 31464,
          "time": 127.6946775,
          "velocity": 1
        },
        {
          "duration": 0.2922075000000035,
          "durationTicks": 72,
          "midi": 46,
          "name": "A#2",
          "ticks": 31512,
          "time": 127.8894825,
          "velocity": 1
        },
        {
          "duration": 0.2922075000000035,
          "durationTicks": 72,
          "midi": 34,
          "name": "A#1",
          "ticks": 31512,
          "time": 127.8894825,
          "velocity": 1
        },
        {
          "duration": 0.09740249999998696,
          "durationTicks": 24,
          "midi": 39,
          "name": "D#2",
          "ticks": 31584,
          "time": 128.18169,
          "velocity": 1
        },
        {
          "duration": 0.19480500000000234,
          "durationTicks": 48,
          "midi": 34,
          "name": "A#1",
          "ticks": 31608,
          "time": 128.2790925,
          "velocity": 1
        },
        {
          "duration": 0.19480500000000234,
          "durationTicks": 48,
          "midi": 46,
          "name": "A#2",
          "ticks": 31656,
          "time": 128.4738975,
          "velocity": 1
        },
        {
          "duration": 0.2922075000000177,
          "durationTicks": 72,
          "midi": 45,
          "name": "A2",
          "ticks": 31704,
          "time": 128.6687025,
          "velocity": 1
        },
        {
          "duration": 0.2922075000000177,
          "durationTicks": 72,
          "midi": 33,
          "name": "A1",
          "ticks": 31704,
          "time": 128.6687025,
          "velocity": 1
        },
        {
          "duration": 0.09740249999998696,
          "durationTicks": 24,
          "midi": 40,
          "name": "E2",
          "ticks": 31776,
          "time": 128.96091,
          "velocity": 1
        },
        {
          "duration": 0.19480500000000234,
          "durationTicks": 48,
          "midi": 33,
          "name": "A1",
          "ticks": 31800,
          "time": 129.0583125,
          "velocity": 1
        },
        {
          "duration": 0.19480500000000234,
          "durationTicks": 48,
          "midi": 40,
          "name": "E2",
          "ticks": 31848,
          "time": 129.2531175,
          "velocity": 1
        },
        {
          "duration": 0.19480500000000234,
          "durationTicks": 48,
          "midi": 45,
          "name": "A2",
          "ticks": 31848,
          "time": 129.2531175,
          "velocity": 1
        },
        {
          "duration": 0.3896100000000047,
          "durationTicks": 96,
          "midi": 46,
          "name": "A#2",
          "ticks": 31896,
          "time": 129.4479225,
          "velocity": 1
        },
        {
          "duration": 0.3896100000000047,
          "durationTicks": 96,
          "midi": 34,
          "name": "A#1",
          "ticks": 31896,
          "time": 129.4479225,
          "velocity": 1
        },
        {
          "duration": 0.19480500000000234,
          "durationTicks": 48,
          "midi": 48,
          "name": "C3",
          "ticks": 31992,
          "time": 129.8375325,
          "velocity": 1
        },
        {
          "duration": 0.3896100000000047,
          "durationTicks": 96,
          "midi": 36,
          "name": "C2",
          "ticks": 31992,
          "time": 129.8375325,
          "velocity": 1
        },
        {
          "duration": 0.38960999999997625,
          "durationTicks": 96,
          "midi": 50,
          "name": "D3",
          "ticks": 32088,
          "time": 130.2271425,
          "velocity": 1
        },
        {
          "duration": 0.38960999999997625,
          "durationTicks": 96,
          "midi": 38,
          "name": "D2",
          "ticks": 32088,
          "time": 130.2271425,
          "velocity": 1
        },
        {
          "duration": 0.3896100000000047,
          "durationTicks": 96,
          "midi": 50,
          "name": "D3",
          "ticks": 32184,
          "time": 130.6167525,
          "velocity": 1
        },
        {
          "duration": 0.19480500000000234,
          "durationTicks": 48,
          "midi": 38,
          "name": "D2",
          "ticks": 32184,
          "time": 130.6167525,
          "velocity": 1
        },
        {
          "duration": 0.19480500000000234,
          "durationTicks": 48,
          "midi": 38,
          "name": "D2",
          "ticks": 32232,
          "time": 130.8115575,
          "velocity": 1
        },
        {
          "duration": 0.2922075000000177,
          "durationTicks": 72,
          "midi": 50,
          "name": "D3",
          "ticks": 32280,
          "time": 131.0063625,
          "velocity": 1
        },
        {
          "duration": 0.2922075000000177,
          "durationTicks": 72,
          "midi": 38,
          "name": "D2",
          "ticks": 32280,
          "time": 131.0063625,
          "velocity": 1
        },
        {
          "duration": 0.2922075000000177,
          "durationTicks": 72,
          "midi": 45,
          "name": "A2",
          "ticks": 32280,
          "time": 131.0063625,
          "velocity": 1
        },
        {
          "duration": 0.09740249999998696,
          "durationTicks": 24,
          "midi": 43,
          "name": "G2",
          "ticks": 32352,
          "time": 131.29857,
          "velocity": 1
        },
        {
          "duration": 0.19480500000000234,
          "durationTicks": 48,
          "midi": 50,
          "name": "D3",
          "ticks": 32376,
          "time": 131.3959725,
          "velocity": 1
        },
        {
          "duration": 0.19480500000000234,
          "durationTicks": 48,
          "midi": 48,
          "name": "C3",
          "ticks": 32424,
          "time": 131.5907775,
          "velocity": 1
        },
        {
          "duration": 0.19480500000000234,
          "durationTicks": 48,
          "midi": 53,
          "name": "F3",
          "ticks": 32424,
          "time": 131.5907775,
          "velocity": 1
        },
        {
          "duration": 0.19480500000000234,
          "durationTicks": 48,
          "midi": 46,
          "name": "A#2",
          "ticks": 32472,
          "time": 131.7855825,
          "velocity": 1
        },
        {
          "duration": 0.19480500000000234,
          "durationTicks": 48,
          "midi": 53,
          "name": "F3",
          "ticks": 32472,
          "time": 131.7855825,
          "velocity": 1
        },
        {
          "duration": 0.09740249999998696,
          "durationTicks": 24,
          "midi": 46,
          "name": "A#2",
          "ticks": 32520,
          "time": 131.9803875,
          "velocity": 1
        },
        {
          "duration": 0.09740250000001538,
          "durationTicks": 24,
          "midi": 41,
          "name": "F2",
          "ticks": 32544,
          "time": 132.07779,
          "velocity": 1
        },
        {
          "duration": 0.19480500000000234,
          "durationTicks": 48,
          "midi": 34,
          "name": "A#1",
          "ticks": 32568,
          "time": 132.1751925,
          "velocity": 1
        },
        {
          "duration": 0.19480500000000234,
          "durationTicks": 48,
          "midi": 41,
          "name": "F2",
          "ticks": 32616,
          "time": 132.3699975,
          "velocity": 1
        },
        {
          "duration": 0.19480500000000234,
          "durationTicks": 48,
          "midi": 46,
          "name": "A#2",
          "ticks": 32616,
          "time": 132.3699975,
          "velocity": 1
        },
        {
          "duration": 0.2922074999999893,
          "durationTicks": 72,
          "midi": 48,
          "name": "C3",
          "ticks": 32664,
          "time": 132.5648025,
          "velocity": 1
        },
        {
          "duration": 0.2922074999999893,
          "durationTicks": 72,
          "midi": 36,
          "name": "C2",
          "ticks": 32664,
          "time": 132.5648025,
          "velocity": 1
        },
        {
          "duration": 0.2922074999999893,
          "durationTicks": 72,
          "midi": 43,
          "name": "G2",
          "ticks": 32664,
          "time": 132.5648025,
          "velocity": 1
        },
        {
          "duration": 0.09740250000001538,
          "durationTicks": 24,
          "midi": 41,
          "name": "F2",
          "ticks": 32736,
          "time": 132.85701,
          "velocity": 1
        },
        {
          "duration": 0.19480499999997392,
          "durationTicks": 48,
          "midi": 48,
          "name": "C3",
          "ticks": 32760,
          "time": 132.95441250000002,
          "velocity": 1
        },
        {
          "duration": 0.19480500000000234,
          "durationTicks": 48,
          "midi": 48,
          "name": "C3",
          "ticks": 32808,
          "time": 133.1492175,
          "velocity": 1
        },
        {
          "duration": 0.19480500000000234,
          "durationTicks": 48,
          "midi": 53,
          "name": "F3",
          "ticks": 32808,
          "time": 133.1492175,
          "velocity": 1
        },
        {
          "duration": 0.2922075000000177,
          "durationTicks": 72,
          "midi": 53,
          "name": "F3",
          "ticks": 32856,
          "time": 133.3440225,
          "velocity": 1
        },
        {
          "duration": 0.2922075000000177,
          "durationTicks": 72,
          "midi": 41,
          "name": "F2",
          "ticks": 32856,
          "time": 133.3440225,
          "velocity": 1
        },
        {
          "duration": 0.2922075000000177,
          "durationTicks": 72,
          "midi": 48,
          "name": "C3",
          "ticks": 32856,
          "time": 133.3440225,
          "velocity": 1
        },
        {
          "duration": 0.09740249999998696,
          "durationTicks": 24,
          "midi": 41,
          "name": "F2",
          "ticks": 32928,
          "time": 133.63623,
          "velocity": 1
        },
        {
          "duration": 0.19480500000000234,
          "durationTicks": 48,
          "midi": 41,
          "name": "F2",
          "ticks": 32952,
          "time": 133.7336325,
          "velocity": 1
        },
        {
          "duration": 0.19480500000000234,
          "durationTicks": 48,
          "midi": 53,
          "name": "F3",
          "ticks": 33000,
          "time": 133.9284375,
          "velocity": 1
        },
        {
          "duration": 0.19480500000000234,
          "durationTicks": 48,
          "midi": 46,
          "name": "A#2",
          "ticks": 33000,
          "time": 133.9284375,
          "velocity": 1
        },
        {
          "duration": 0.2922074999999893,
          "durationTicks": 72,
          "midi": 50,
          "name": "D3",
          "ticks": 33048,
          "time": 134.1232425,
          "velocity": 1
        },
        {
          "duration": 0.2922074999999893,
          "durationTicks": 72,
          "midi": 38,
          "name": "D2",
          "ticks": 33048,
          "time": 134.1232425,
          "velocity": 1
        },
        {
          "duration": 0.2922074999999893,
          "durationTicks": 72,
          "midi": 45,
          "name": "A2",
          "ticks": 33048,
          "time": 134.1232425,
          "velocity": 1
        },
        {
          "duration": 0.09740250000001538,
          "durationTicks": 24,
          "midi": 43,
          "name": "G2",
          "ticks": 33120,
          "time": 134.41545,
          "velocity": 1
        },
        {
          "duration": 0.19480500000000234,
          "durationTicks": 48,
          "midi": 50,
          "name": "D3",
          "ticks": 33144,
          "time": 134.5128525,
          "velocity": 1
        },
        {
          "duration": 0.19480500000000234,
          "durationTicks": 48,
          "midi": 48,
          "name": "C3",
          "ticks": 33192,
          "time": 134.7076575,
          "velocity": 1
        },
        {
          "duration": 0.19480500000000234,
          "durationTicks": 48,
          "midi": 53,
          "name": "F3",
          "ticks": 33192,
          "time": 134.7076575,
          "velocity": 1
        },
        {
          "duration": 0.19480500000000234,
          "durationTicks": 48,
          "midi": 46,
          "name": "A#2",
          "ticks": 33240,
          "time": 134.9024625,
          "velocity": 1
        },
        {
          "duration": 0.19480500000000234,
          "durationTicks": 48,
          "midi": 53,
          "name": "F3",
          "ticks": 33240,
          "time": 134.9024625,
          "velocity": 1
        },
        {
          "duration": 0.09740249999998696,
          "durationTicks": 24,
          "midi": 46,
          "name": "A#2",
          "ticks": 33288,
          "time": 135.09726750000002,
          "velocity": 1
        },
        {
          "duration": 0.09740250000001538,
          "durationTicks": 24,
          "midi": 41,
          "name": "F2",
          "ticks": 33312,
          "time": 135.19467,
          "velocity": 1
        },
        {
          "duration": 0.19480499999997392,
          "durationTicks": 48,
          "midi": 34,
          "name": "A#1",
          "ticks": 33336,
          "time": 135.29207250000002,
          "velocity": 1
        },
        {
          "duration": 0.19480500000000234,
          "durationTicks": 48,
          "midi": 41,
          "name": "F2",
          "ticks": 33384,
          "time": 135.4868775,
          "velocity": 1
        },
        {
          "duration": 0.19480500000000234,
          "durationTicks": 48,
          "midi": 46,
          "name": "A#2",
          "ticks": 33384,
          "time": 135.4868775,
          "velocity": 1
        },
        {
          "duration": 0.2922075000000177,
          "durationTicks": 72,
          "midi": 48,
          "name": "C3",
          "ticks": 33432,
          "time": 135.6816825,
          "velocity": 1
        },
        {
          "duration": 0.2922075000000177,
          "durationTicks": 72,
          "midi": 36,
          "name": "C2",
          "ticks": 33432,
          "time": 135.6816825,
          "velocity": 1
        },
        {
          "duration": 0.2922075000000177,
          "durationTicks": 72,
          "midi": 43,
          "name": "G2",
          "ticks": 33432,
          "time": 135.6816825,
          "velocity": 1
        },
        {
          "duration": 0.09740249999998696,
          "durationTicks": 24,
          "midi": 41,
          "name": "F2",
          "ticks": 33504,
          "time": 135.97389,
          "velocity": 1
        },
        {
          "duration": 0.19480500000000234,
          "durationTicks": 48,
          "midi": 48,
          "name": "C3",
          "ticks": 33528,
          "time": 136.0712925,
          "velocity": 1
        },
        {
          "duration": 0.19480500000000234,
          "durationTicks": 48,
          "midi": 48,
          "name": "C3",
          "ticks": 33576,
          "time": 136.2660975,
          "velocity": 1
        },
        {
          "duration": 0.19480500000000234,
          "durationTicks": 48,
          "midi": 53,
          "name": "F3",
          "ticks": 33576,
          "time": 136.2660975,
          "velocity": 1
        },
        {
          "duration": 0.2922074999999893,
          "durationTicks": 72,
          "midi": 53,
          "name": "F3",
          "ticks": 33624,
          "time": 136.4609025,
          "velocity": 1
        },
        {
          "duration": 0.2922074999999893,
          "durationTicks": 72,
          "midi": 41,
          "name": "F2",
          "ticks": 33624,
          "time": 136.4609025,
          "velocity": 1
        },
        {
          "duration": 0.2922074999999893,
          "durationTicks": 72,
          "midi": 48,
          "name": "C3",
          "ticks": 33624,
          "time": 136.4609025,
          "velocity": 1
        },
        {
          "duration": 0.09740250000001538,
          "durationTicks": 24,
          "midi": 41,
          "name": "F2",
          "ticks": 33696,
          "time": 136.75311,
          "velocity": 1
        },
        {
          "duration": 0.19480500000000234,
          "durationTicks": 48,
          "midi": 41,
          "name": "F2",
          "ticks": 33720,
          "time": 136.8505125,
          "velocity": 1
        },
        {
          "duration": 0.19480500000000234,
          "durationTicks": 48,
          "midi": 53,
          "name": "F3",
          "ticks": 33768,
          "time": 137.0453175,
          "velocity": 1
        },
        {
          "duration": 0.19480500000000234,
          "durationTicks": 48,
          "midi": 46,
          "name": "A#2",
          "ticks": 33768,
          "time": 137.0453175,
          "velocity": 1
        },
        {
          "duration": 0.2922074999999893,
          "durationTicks": 72,
          "midi": 50,
          "name": "D3",
          "ticks": 33816,
          "time": 137.2401225,
          "velocity": 1
        },
        {
          "duration": 0.2922074999999893,
          "durationTicks": 72,
          "midi": 38,
          "name": "D2",
          "ticks": 33816,
          "time": 137.2401225,
          "velocity": 1
        },
        {
          "duration": 0.2922074999999893,
          "durationTicks": 72,
          "midi": 45,
          "name": "A2",
          "ticks": 33816,
          "time": 137.2401225,
          "velocity": 1
        },
        {
          "duration": 0.09740250000001538,
          "durationTicks": 24,
          "midi": 43,
          "name": "G2",
          "ticks": 33888,
          "time": 137.53233,
          "velocity": 1
        },
        {
          "duration": 0.19480499999997392,
          "durationTicks": 48,
          "midi": 50,
          "name": "D3",
          "ticks": 33912,
          "time": 137.62973250000002,
          "velocity": 1
        },
        {
          "duration": 0.19480500000000234,
          "durationTicks": 48,
          "midi": 48,
          "name": "C3",
          "ticks": 33960,
          "time": 137.8245375,
          "velocity": 1
        },
        {
          "duration": 0.19480500000000234,
          "durationTicks": 48,
          "midi": 53,
          "name": "F3",
          "ticks": 33960,
          "time": 137.8245375,
          "velocity": 1
        },
        {
          "duration": 0.19480500000000234,
          "durationTicks": 48,
          "midi": 46,
          "name": "A#2",
          "ticks": 34008,
          "time": 138.0193425,
          "velocity": 1
        },
        {
          "duration": 0.19480500000000234,
          "durationTicks": 48,
          "midi": 53,
          "name": "F3",
          "ticks": 34008,
          "time": 138.0193425,
          "velocity": 1
        },
        {
          "duration": 0.09740250000001538,
          "durationTicks": 24,
          "midi": 46,
          "name": "A#2",
          "ticks": 34056,
          "time": 138.2141475,
          "velocity": 1
        },
        {
          "duration": 0.09740249999998696,
          "durationTicks": 24,
          "midi": 41,
          "name": "F2",
          "ticks": 34080,
          "time": 138.31155,
          "velocity": 1
        },
        {
          "duration": 0.19480500000000234,
          "durationTicks": 48,
          "midi": 34,
          "name": "A#1",
          "ticks": 34104,
          "time": 138.4089525,
          "velocity": 1
        },
        {
          "duration": 0.19480500000000234,
          "durationTicks": 48,
          "midi": 41,
          "name": "F2",
          "ticks": 34152,
          "time": 138.6037575,
          "velocity": 1
        },
        {
          "duration": 0.19480500000000234,
          "durationTicks": 48,
          "midi": 46,
          "name": "A#2",
          "ticks": 34152,
          "time": 138.6037575,
          "velocity": 1
        },
        {
          "duration": 0.2922074999999893,
          "durationTicks": 72,
          "midi": 48,
          "name": "C3",
          "ticks": 34200,
          "time": 138.7985625,
          "velocity": 1
        },
        {
          "duration": 0.2922074999999893,
          "durationTicks": 72,
          "midi": 36,
          "name": "C2",
          "ticks": 34200,
          "time": 138.7985625,
          "velocity": 1
        },
        {
          "duration": 0.2922074999999893,
          "durationTicks": 72,
          "midi": 43,
          "name": "G2",
          "ticks": 34200,
          "time": 138.7985625,
          "velocity": 1
        },
        {
          "duration": 0.09740250000001538,
          "durationTicks": 24,
          "midi": 41,
          "name": "F2",
          "ticks": 34272,
          "time": 139.09077,
          "velocity": 1
        },
        {
          "duration": 0.19480500000000234,
          "durationTicks": 48,
          "midi": 48,
          "name": "C3",
          "ticks": 34296,
          "time": 139.1881725,
          "velocity": 1
        },
        {
          "duration": 0.19480500000000234,
          "durationTicks": 48,
          "midi": 48,
          "name": "C3",
          "ticks": 34344,
          "time": 139.3829775,
          "velocity": 1
        },
        {
          "duration": 0.19480500000000234,
          "durationTicks": 48,
          "midi": 53,
          "name": "F3",
          "ticks": 34344,
          "time": 139.3829775,
          "velocity": 1
        },
        {
          "duration": 0.2922074999999893,
          "durationTicks": 72,
          "midi": 53,
          "name": "F3",
          "ticks": 34392,
          "time": 139.5777825,
          "velocity": 1
        },
        {
          "duration": 0.2922074999999893,
          "durationTicks": 72,
          "midi": 41,
          "name": "F2",
          "ticks": 34392,
          "time": 139.5777825,
          "velocity": 1
        },
        {
          "duration": 0.2922074999999893,
          "durationTicks": 72,
          "midi": 48,
          "name": "C3",
          "ticks": 34392,
          "time": 139.5777825,
          "velocity": 1
        },
        {
          "duration": 0.09740250000001538,
          "durationTicks": 24,
          "midi": 41,
          "name": "F2",
          "ticks": 34464,
          "time": 139.86999,
          "velocity": 1
        },
        {
          "duration": 0.19480499999997392,
          "durationTicks": 48,
          "midi": 41,
          "name": "F2",
          "ticks": 34488,
          "time": 139.96739250000002,
          "velocity": 1
        },
        {
          "duration": 0.19480500000000234,
          "durationTicks": 48,
          "midi": 53,
          "name": "F3",
          "ticks": 34536,
          "time": 140.1621975,
          "velocity": 1
        },
        {
          "duration": 0.19480500000000234,
          "durationTicks": 48,
          "midi": 46,
          "name": "A#2",
          "ticks": 34536,
          "time": 140.1621975,
          "velocity": 1
        },
        {
          "duration": 0.2922075000000177,
          "durationTicks": 72,
          "midi": 46,
          "name": "A#2",
          "ticks": 34584,
          "time": 140.3570025,
          "velocity": 1
        },
        {
          "duration": 0.2922075000000177,
          "durationTicks": 72,
          "midi": 34,
          "name": "A#1",
          "ticks": 34584,
          "time": 140.3570025,
          "velocity": 1
        },
        {
          "duration": 0.2922075000000177,
          "durationTicks": 72,
          "midi": 41,
          "name": "F2",
          "ticks": 34584,
          "time": 140.3570025,
          "velocity": 1
        },
        {
          "duration": 0.09740249999998696,
          "durationTicks": 24,
          "midi": 39,
          "name": "D#2",
          "ticks": 34656,
          "time": 140.64921,
          "velocity": 1
        },
        {
          "duration": 0.19480500000000234,
          "durationTicks": 48,
          "midi": 34,
          "name": "A#1",
          "ticks": 34680,
          "time": 140.7466125,
          "velocity": 1
        },
        {
          "duration": 0.19480500000000234,
          "durationTicks": 48,
          "midi": 46,
          "name": "A#2",
          "ticks": 34728,
          "time": 140.9414175,
          "velocity": 1
        },
        {
          "duration": 0.19480500000000234,
          "durationTicks": 48,
          "midi": 39,
          "name": "D#2",
          "ticks": 34728,
          "time": 140.9414175,
          "velocity": 1
        },
        {
          "duration": 0.2922074999999893,
          "durationTicks": 72,
          "midi": 45,
          "name": "A2",
          "ticks": 34776,
          "time": 141.1362225,
          "velocity": 1
        },
        {
          "duration": 0.2922074999999893,
          "durationTicks": 72,
          "midi": 33,
          "name": "A1",
          "ticks": 34776,
          "time": 141.1362225,
          "velocity": 1
        },
        {
          "duration": 0.2922074999999893,
          "durationTicks": 72,
          "midi": 40,
          "name": "E2",
          "ticks": 34776,
          "time": 141.1362225,
          "velocity": 1
        },
        {
          "duration": 0.09740250000001538,
          "durationTicks": 24,
          "midi": 40,
          "name": "E2",
          "ticks": 34848,
          "time": 141.42843,
          "velocity": 1
        },
        {
          "duration": 0.19480500000000234,
          "durationTicks": 48,
          "midi": 33,
          "name": "A1",
          "ticks": 34872,
          "time": 141.5258325,
          "velocity": 1
        },
        {
          "duration": 0.19480500000000234,
          "durationTicks": 48,
          "midi": 40,
          "name": "E2",
          "ticks": 34920,
          "time": 141.7206375,
          "velocity": 1
        },
        {
          "duration": 0.19480500000000234,
          "durationTicks": 48,
          "midi": 45,
          "name": "A2",
          "ticks": 34920,
          "time": 141.7206375,
          "velocity": 1
        },
        {
          "duration": 0.3896100000000047,
          "durationTicks": 96,
          "midi": 40,
          "name": "E2",
          "ticks": 34968,
          "time": 141.9154425,
          "velocity": 1
        },
        {
          "duration": 0.3896100000000047,
          "durationTicks": 96,
          "midi": 46,
          "name": "A#2",
          "ticks": 34968,
          "time": 141.9154425,
          "velocity": 1
        },
        {
          "duration": 0.3896100000000047,
          "durationTicks": 96,
          "midi": 34,
          "name": "A#1",
          "ticks": 34968,
          "time": 141.9154425,
          "velocity": 1
        },
        {
          "duration": 0.38960999999997625,
          "durationTicks": 96,
          "midi": 42,
          "name": "F#2",
          "ticks": 35064,
          "time": 142.30505250000002,
          "velocity": 1
        },
        {
          "duration": 0.38960999999997625,
          "durationTicks": 96,
          "midi": 48,
          "name": "C3",
          "ticks": 35064,
          "time": 142.30505250000002,
          "velocity": 1
        },
        {
          "duration": 0.38960999999997625,
          "durationTicks": 96,
          "midi": 36,
          "name": "C2",
          "ticks": 35064,
          "time": 142.30505250000002,
          "velocity": 1
        },
        {
          "duration": 0.3896100000000047,
          "durationTicks": 96,
          "midi": 45,
          "name": "A2",
          "ticks": 35160,
          "time": 142.6946625,
          "velocity": 1
        },
        {
          "duration": 0.3896100000000047,
          "durationTicks": 96,
          "midi": 50,
          "name": "D3",
          "ticks": 35160,
          "time": 142.6946625,
          "velocity": 1
        },
        {
          "duration": 0.3896100000000047,
          "durationTicks": 96,
          "midi": 38,
          "name": "D2",
          "ticks": 35160,
          "time": 142.6946625,
          "velocity": 1
        },
        {
          "duration": 0.19480500000000234,
          "durationTicks": 48,
          "midi": 45,
          "name": "A2",
          "ticks": 35256,
          "time": 143.0842725,
          "velocity": 1
        },
        {
          "duration": 0.19480500000000234,
          "durationTicks": 48,
          "midi": 50,
          "name": "D3",
          "ticks": 35256,
          "time": 143.0842725,
          "velocity": 1
        },
        {
          "duration": 0.19480500000000234,
          "durationTicks": 48,
          "midi": 38,
          "name": "D2",
          "ticks": 35256,
          "time": 143.0842725,
          "velocity": 1
        },
        {
          "duration": 0.19480500000000234,
          "durationTicks": 48,
          "midi": 45,
          "name": "A2",
          "ticks": 35304,
          "time": 143.2790775,
          "velocity": 1
        },
        {
          "duration": 0.19480500000000234,
          "durationTicks": 48,
          "midi": 50,
          "name": "D3",
          "ticks": 35304,
          "time": 143.2790775,
          "velocity": 1
        },
        {
          "duration": 0.19480500000000234,
          "durationTicks": 48,
          "midi": 38,
          "name": "D2",
          "ticks": 35304,
          "time": 143.2790775,
          "velocity": 1
        },
        {
          "duration": 0.19480500000000234,
          "durationTicks": 48,
          "midi": 38,
          "name": "D2",
          "ticks": 35352,
          "time": 143.4738825,
          "velocity": 1
        },
        {
          "duration": 0.19480500000000234,
          "durationTicks": 48,
          "midi": 50,
          "name": "D3",
          "ticks": 35352,
          "time": 143.4738825,
          "velocity": 1
        },
        {
          "duration": 0.19480500000000234,
          "durationTicks": 48,
          "midi": 45,
          "name": "A2",
          "ticks": 35352,
          "time": 143.4738825,
          "velocity": 1
        },
        {
          "duration": 0.19480500000000234,
          "durationTicks": 48,
          "midi": 34,
          "name": "A#1",
          "ticks": 35496,
          "time": 144.0582975,
          "velocity": 1
        },
        {
          "duration": 0.19480500000000234,
          "durationTicks": 48,
          "midi": 34,
          "name": "A#1",
          "ticks": 35544,
          "time": 144.2531025,
          "velocity": 1
        },
        {
          "duration": 0.19480500000000234,
          "durationTicks": 48,
          "midi": 46,
          "name": "A#2",
          "ticks": 35544,
          "time": 144.2531025,
          "velocity": 1
        },
        {
          "duration": 0.19480500000000234,
          "durationTicks": 48,
          "midi": 41,
          "name": "F2",
          "ticks": 35544,
          "time": 144.2531025,
          "velocity": 1
        },
        {
          "duration": 0.19480499999997392,
          "durationTicks": 48,
          "midi": 36,
          "name": "C2",
          "ticks": 35688,
          "time": 144.83751750000002,
          "velocity": 1
        },
        {
          "duration": 0.19480500000000234,
          "durationTicks": 48,
          "midi": 36,
          "name": "C2",
          "ticks": 35736,
          "time": 145.0323225,
          "velocity": 1
        },
        {
          "duration": 0.19480500000000234,
          "durationTicks": 48,
          "midi": 48,
          "name": "C3",
          "ticks": 35736,
          "time": 145.0323225,
          "velocity": 1
        },
        {
          "duration": 0.19480500000000234,
          "durationTicks": 48,
          "midi": 43,
          "name": "G2",
          "ticks": 35736,
          "time": 145.0323225,
          "velocity": 1
        },
        {
          "duration": 0.19480500000000234,
          "durationTicks": 48,
          "midi": 38,
          "name": "D2",
          "ticks": 35880,
          "time": 145.6167375,
          "velocity": 1
        },
        {
          "duration": 0.19480500000000234,
          "durationTicks": 48,
          "midi": 38,
          "name": "D2",
          "ticks": 35928,
          "time": 145.8115425,
          "velocity": 1
        },
        {
          "duration": 0.19480500000000234,
          "durationTicks": 48,
          "midi": 50,
          "name": "D3",
          "ticks": 35928,
          "time": 145.8115425,
          "velocity": 1
        },
        {
          "duration": 0.19480500000000234,
          "durationTicks": 48,
          "midi": 45,
          "name": "A2",
          "ticks": 35928,
          "time": 145.8115425,
          "velocity": 1
        },
        {
          "duration": 0.19480500000000234,
          "durationTicks": 48,
          "midi": 38,
          "name": "D2",
          "ticks": 36072,
          "time": 146.3959575,
          "velocity": 1
        },
        {
          "duration": 0.19480500000000234,
          "durationTicks": 48,
          "midi": 38,
          "name": "D2",
          "ticks": 36120,
          "time": 146.5907625,
          "velocity": 1
        },
        {
          "duration": 0.19480500000000234,
          "durationTicks": 48,
          "midi": 50,
          "name": "D3",
          "ticks": 36120,
          "time": 146.5907625,
          "velocity": 1
        },
        {
          "duration": 0.19480500000000234,
          "durationTicks": 48,
          "midi": 45,
          "name": "A2",
          "ticks": 36120,
          "time": 146.5907625,
          "velocity": 1
        },
        {
          "duration": 0.19480499999997392,
          "durationTicks": 48,
          "midi": 34,
          "name": "A#1",
          "ticks": 36264,
          "time": 147.17517750000002,
          "velocity": 1
        },
        {
          "duration": 0.19480500000000234,
          "durationTicks": 48,
          "midi": 34,
          "name": "A#1",
          "ticks": 36312,
          "time": 147.3699825,
          "velocity": 1
        },
        {
          "duration": 0.19480500000000234,
          "durationTicks": 48,
          "midi": 46,
          "name": "A#2",
          "ticks": 36312,
          "time": 147.3699825,
          "velocity": 1
        },
        {
          "duration": 0.19480500000000234,
          "durationTicks": 48,
          "midi": 41,
          "name": "F2",
          "ticks": 36312,
          "time": 147.3699825,
          "velocity": 1
        },
        {
          "duration": 0.19480500000000234,
          "durationTicks": 48,
          "midi": 36,
          "name": "C2",
          "ticks": 36456,
          "time": 147.9543975,
          "velocity": 1
        },
        {
          "duration": 0.19480500000000234,
          "durationTicks": 48,
          "midi": 36,
          "name": "C2",
          "ticks": 36504,
          "time": 148.1492025,
          "velocity": 1
        },
        {
          "duration": 0.19480500000000234,
          "durationTicks": 48,
          "midi": 48,
          "name": "C3",
          "ticks": 36504,
          "time": 148.1492025,
          "velocity": 1
        },
        {
          "duration": 0.19480500000000234,
          "durationTicks": 48,
          "midi": 43,
          "name": "G2",
          "ticks": 36504,
          "time": 148.1492025,
          "velocity": 1
        },
        {
          "duration": 0.19480500000000234,
          "durationTicks": 48,
          "midi": 37,
          "name": "C#2",
          "ticks": 36648,
          "time": 148.7336175,
          "velocity": 1
        },
        {
          "duration": 0.3896100000000047,
          "durationTicks": 96,
          "midi": 44,
          "name": "G#2",
          "ticks": 36696,
          "time": 148.9284225,
          "velocity": 1
        },
        {
          "duration": 0.3896100000000047,
          "durationTicks": 96,
          "midi": 37,
          "name": "C#2",
          "ticks": 36696,
          "time": 148.9284225,
          "velocity": 1
        },
        {
          "duration": 0.3896100000000047,
          "durationTicks": 96,
          "midi": 49,
          "name": "C#3",
          "ticks": 36696,
          "time": 148.9284225,
          "velocity": 1
        },
        {
          "duration": 0.04870124999999348,
          "durationTicks": 12,
          "midi": 50,
          "name": "D3",
          "ticks": 36792,
          "time": 149.31803250000002,
          "velocity": 0.8976377952755905
        },
        {
          "duration": 0.04870124999999348,
          "durationTicks": 12,
          "midi": 48,
          "name": "C3",
          "ticks": 36804,
          "time": 149.36673375,
          "velocity": 0.8661417322834646
        },
        {
          "duration": 0.04870124999999348,
          "durationTicks": 12,
          "midi": 47,
          "name": "B2",
          "ticks": 36816,
          "time": 149.415435,
          "velocity": 0.8267716535433071
        },
        {
          "duration": 0.0487012500000219,
          "durationTicks": 12,
          "midi": 45,
          "name": "A2",
          "ticks": 36828,
          "time": 149.46413625,
          "velocity": 0.7874015748031497
        },
        {
          "duration": 0.04870124999999348,
          "durationTicks": 12,
          "midi": 43,
          "name": "G2",
          "ticks": 36840,
          "time": 149.51283750000002,
          "velocity": 0.7559055118110236
        },
        {
          "duration": 0.04870124999999348,
          "durationTicks": 12,
          "midi": 41,
          "name": "F2",
          "ticks": 36852,
          "time": 149.56153875,
          "velocity": 0.7165354330708661
        },
        {
          "duration": 0.04870124999999348,
          "durationTicks": 12,
          "midi": 40,
          "name": "E2",
          "ticks": 36864,
          "time": 149.61024,
          "velocity": 0.6771653543307087
        },
        {
          "duration": 0.04870124999999348,
          "durationTicks": 12,
          "midi": 38,
          "name": "D2",
          "ticks": 36876,
          "time": 149.65894125,
          "velocity": 0.6456692913385826
        },
        {
          "duration": 0.19480500000000234,
          "durationTicks": 48,
          "midi": 38,
          "name": "D2",
          "ticks": 36888,
          "time": 149.7076425,
          "velocity": 1
        },
        {
          "duration": 0.19480500000000234,
          "durationTicks": 48,
          "midi": 50,
          "name": "D3",
          "ticks": 36936,
          "time": 149.9024475,
          "velocity": 1
        },
        {
          "duration": 0.19480500000000234,
          "durationTicks": 48,
          "midi": 45,
          "name": "A2",
          "ticks": 36936,
          "time": 149.9024475,
          "velocity": 1
        },
        {
          "duration": 0.19480500000000234,
          "durationTicks": 48,
          "midi": 38,
          "name": "D2",
          "ticks": 36984,
          "time": 150.0972525,
          "velocity": 1
        },
        {
          "duration": 0.19480500000000234,
          "durationTicks": 48,
          "midi": 45,
          "name": "A2",
          "ticks": 37008,
          "time": 150.194655,
          "velocity": 1
        },
        {
          "duration": 0.19480500000000234,
          "durationTicks": 48,
          "midi": 50,
          "name": "D3",
          "ticks": 37032,
          "time": 150.2920575,
          "velocity": 1
        },
        {
          "duration": 0.19480500000000234,
          "durationTicks": 48,
          "midi": 38,
          "name": "D2",
          "ticks": 37080,
          "time": 150.4868625,
          "velocity": 1
        },
        {
          "duration": 0.19480500000000234,
          "durationTicks": 48,
          "midi": 50,
          "name": "D3",
          "ticks": 37128,
          "time": 150.6816675,
          "velocity": 1
        },
        {
          "duration": 0.19480500000000234,
          "durationTicks": 48,
          "midi": 45,
          "name": "A2",
          "ticks": 37128,
          "time": 150.6816675,
          "velocity": 1
        },
        {
          "duration": 0.19480500000000234,
          "durationTicks": 48,
          "midi": 38,
          "name": "D2",
          "ticks": 37176,
          "time": 150.8764725,
          "velocity": 1
        },
        {
          "duration": 0.19480500000000234,
          "durationTicks": 48,
          "midi": 45,
          "name": "A2",
          "ticks": 37200,
          "time": 150.973875,
          "velocity": 1
        },
        {
          "duration": 0.19480500000000234,
          "durationTicks": 48,
          "midi": 50,
          "name": "D3",
          "ticks": 37224,
          "time": 151.0712775,
          "velocity": 1
        },
        {
          "duration": 0.19480500000000234,
          "durationTicks": 48,
          "midi": 39,
          "name": "D#2",
          "ticks": 37272,
          "time": 151.2660825,
          "velocity": 1
        },
        {
          "duration": 0.19480500000000234,
          "durationTicks": 48,
          "midi": 46,
          "name": "A#2",
          "ticks": 37320,
          "time": 151.4608875,
          "velocity": 1
        },
        {
          "duration": 0.19480500000000234,
          "durationTicks": 48,
          "midi": 51,
          "name": "D#3",
          "ticks": 37320,
          "time": 151.4608875,
          "velocity": 1
        },
        {
          "duration": 0.19480500000000234,
          "durationTicks": 48,
          "midi": 39,
          "name": "D#2",
          "ticks": 37368,
          "time": 151.65569250000001,
          "velocity": 1
        },
        {
          "duration": 0.19480500000000234,
          "durationTicks": 48,
          "midi": 46,
          "name": "A#2",
          "ticks": 37392,
          "time": 151.753095,
          "velocity": 1
        },
        {
          "duration": 0.19480499999997392,
          "durationTicks": 48,
          "midi": 51,
          "name": "D#3",
          "ticks": 37416,
          "time": 151.85049750000002,
          "velocity": 1
        },
        {
          "duration": 0.19480500000000234,
          "durationTicks": 48,
          "midi": 39,
          "name": "D#2",
          "ticks": 37464,
          "time": 152.0453025,
          "velocity": 1
        },
        {
          "duration": 0.19480500000000234,
          "durationTicks": 48,
          "midi": 46,
          "name": "A#2",
          "ticks": 37512,
          "time": 152.2401075,
          "velocity": 1
        },
        {
          "duration": 0.19480500000000234,
          "durationTicks": 48,
          "midi": 51,
          "name": "D#3",
          "ticks": 37512,
          "time": 152.2401075,
          "velocity": 1
        },
        {
          "duration": 0.19480500000000234,
          "durationTicks": 48,
          "midi": 39,
          "name": "D#2",
          "ticks": 37560,
          "time": 152.4349125,
          "velocity": 1
        },
        {
          "duration": 0.19480500000000234,
          "durationTicks": 48,
          "midi": 46,
          "name": "A#2",
          "ticks": 37584,
          "time": 152.532315,
          "velocity": 1
        },
        {
          "duration": 0.19480500000000234,
          "durationTicks": 48,
          "midi": 51,
          "name": "D#3",
          "ticks": 37608,
          "time": 152.6297175,
          "velocity": 1
        },
        {
          "duration": 0.19480500000000234,
          "durationTicks": 48,
          "midi": 34,
          "name": "A#1",
          "ticks": 37656,
          "time": 152.8245225,
          "velocity": 1
        },
        {
          "duration": 0.19480500000000234,
          "durationTicks": 48,
          "midi": 46,
          "name": "A#2",
          "ticks": 37704,
          "time": 153.0193275,
          "velocity": 1
        },
        {
          "duration": 0.19480500000000234,
          "durationTicks": 48,
          "midi": 41,
          "name": "F2",
          "ticks": 37704,
          "time": 153.0193275,
          "velocity": 1
        },
        {
          "duration": 0.19480500000000234,
          "durationTicks": 48,
          "midi": 34,
          "name": "A#1",
          "ticks": 37752,
          "time": 153.2141325,
          "velocity": 1
        },
        {
          "duration": 0.19480500000000234,
          "durationTicks": 48,
          "midi": 41,
          "name": "F2",
          "ticks": 37776,
          "time": 153.311535,
          "velocity": 1
        },
        {
          "duration": 0.19480500000000234,
          "durationTicks": 48,
          "midi": 46,
          "name": "A#2",
          "ticks": 37800,
          "time": 153.4089375,
          "velocity": 1
        },
        {
          "duration": 0.19480500000000234,
          "durationTicks": 48,
          "midi": 34,
          "name": "A#1",
          "ticks": 37848,
          "time": 153.6037425,
          "velocity": 1
        },
        {
          "duration": 0.19480500000000234,
          "durationTicks": 48,
          "midi": 46,
          "name": "A#2",
          "ticks": 37896,
          "time": 153.7985475,
          "velocity": 1
        },
        {
          "duration": 0.19480500000000234,
          "durationTicks": 48,
          "midi": 41,
          "name": "F2",
          "ticks": 37896,
          "time": 153.7985475,
          "velocity": 1
        },
        {
          "duration": 0.19480500000000234,
          "durationTicks": 48,
          "midi": 34,
          "name": "A#1",
          "ticks": 37944,
          "time": 153.99335250000001,
          "velocity": 1
        },
        {
          "duration": 0.19480500000000234,
          "durationTicks": 48,
          "midi": 41,
          "name": "F2",
          "ticks": 37968,
          "time": 154.090755,
          "velocity": 1
        },
        {
          "duration": 0.19480499999997392,
          "durationTicks": 48,
          "midi": 46,
          "name": "A#2",
          "ticks": 37992,
          "time": 154.18815750000002,
          "velocity": 1
        },
        {
          "duration": 0.19480500000000234,
          "durationTicks": 48,
          "midi": 36,
          "name": "C2",
          "ticks": 38040,
          "time": 154.3829625,
          "velocity": 1
        },
        {
          "duration": 0.19480500000000234,
          "durationTicks": 48,
          "midi": 48,
          "name": "C3",
          "ticks": 38088,
          "time": 154.5777675,
          "velocity": 1
        },
        {
          "duration": 0.19480500000000234,
          "durationTicks": 48,
          "midi": 43,
          "name": "G2",
          "ticks": 38088,
          "time": 154.5777675,
          "velocity": 1
        },
        {
          "duration": 0.19480500000000234,
          "durationTicks": 48,
          "midi": 36,
          "name": "C2",
          "ticks": 38136,
          "time": 154.7725725,
          "velocity": 1
        },
        {
          "duration": 0.19480500000000234,
          "durationTicks": 48,
          "midi": 43,
          "name": "G2",
          "ticks": 38160,
          "time": 154.869975,
          "velocity": 1
        },
        {
          "duration": 0.19480500000000234,
          "durationTicks": 48,
          "midi": 48,
          "name": "C3",
          "ticks": 38184,
          "time": 154.9673775,
          "velocity": 1
        },
        {
          "duration": 0.19480500000000234,
          "durationTicks": 48,
          "midi": 37,
          "name": "C#2",
          "ticks": 38232,
          "time": 155.1621825,
          "velocity": 1
        },
        {
          "duration": 0.19480500000000234,
          "durationTicks": 48,
          "midi": 49,
          "name": "C#3",
          "ticks": 38280,
          "time": 155.3569875,
          "velocity": 1
        },
        {
          "duration": 0.19480500000000234,
          "durationTicks": 48,
          "midi": 44,
          "name": "G#2",
          "ticks": 38280,
          "time": 155.3569875,
          "velocity": 1
        },
        {
          "duration": 0.19480500000000234,
          "durationTicks": 48,
          "midi": 37,
          "name": "C#2",
          "ticks": 38328,
          "time": 155.5517925,
          "velocity": 1
        },
        {
          "duration": 0.19480500000000234,
          "durationTicks": 48,
          "midi": 44,
          "name": "G#2",
          "ticks": 38352,
          "time": 155.649195,
          "velocity": 1
        },
        {
          "duration": 0.19480500000000234,
          "durationTicks": 48,
          "midi": 49,
          "name": "C#3",
          "ticks": 38376,
          "time": 155.7465975,
          "velocity": 1
        },
        {
          "duration": 0.19480500000000234,
          "durationTicks": 48,
          "midi": 38,
          "name": "D2",
          "ticks": 38424,
          "time": 155.9414025,
          "velocity": 1
        },
        {
          "duration": 0.19480500000000234,
          "durationTicks": 48,
          "midi": 50,
          "name": "D3",
          "ticks": 38472,
          "time": 156.1362075,
          "velocity": 1
        },
        {
          "duration": 0.19480500000000234,
          "durationTicks": 48,
          "midi": 45,
          "name": "A2",
          "ticks": 38472,
          "time": 156.1362075,
          "velocity": 1
        },
        {
          "duration": 0.19480500000000234,
          "durationTicks": 48,
          "midi": 38,
          "name": "D2",
          "ticks": 38520,
          "time": 156.3310125,
          "velocity": 1
        },
        {
          "duration": 0.19480500000000234,
          "durationTicks": 48,
          "midi": 45,
          "name": "A2",
          "ticks": 38544,
          "time": 156.428415,
          "velocity": 1
        },
        {
          "duration": 0.19480500000000234,
          "durationTicks": 48,
          "midi": 50,
          "name": "D3",
          "ticks": 38568,
          "time": 156.52581750000002,
          "velocity": 1
        },
        {
          "duration": 0.19480499999997392,
          "durationTicks": 48,
          "midi": 38,
          "name": "D2",
          "ticks": 38616,
          "time": 156.72062250000002,
          "velocity": 1
        },
        {
          "duration": 0.19480500000000234,
          "durationTicks": 48,
          "midi": 50,
          "name": "D3",
          "ticks": 38664,
          "time": 156.9154275,
          "velocity": 1
        },
        {
          "duration": 0.19480500000000234,
          "durationTicks": 48,
          "midi": 45,
          "name": "A2",
          "ticks": 38664,
          "time": 156.9154275,
          "velocity": 1
        },
        {
          "duration": 0.19480500000000234,
          "durationTicks": 48,
          "midi": 38,
          "name": "D2",
          "ticks": 38712,
          "time": 157.1102325,
          "velocity": 1
        },
        {
          "duration": 0.19480500000000234,
          "durationTicks": 48,
          "midi": 45,
          "name": "A2",
          "ticks": 38736,
          "time": 157.207635,
          "velocity": 1
        },
        {
          "duration": 0.19480500000000234,
          "durationTicks": 48,
          "midi": 50,
          "name": "D3",
          "ticks": 38760,
          "time": 157.3050375,
          "velocity": 1
        },
        {
          "duration": 0.19480500000000234,
          "durationTicks": 48,
          "midi": 39,
          "name": "D#2",
          "ticks": 38808,
          "time": 157.4998425,
          "velocity": 1
        },
        {
          "duration": 0.19480500000000234,
          "durationTicks": 48,
          "midi": 46,
          "name": "A#2",
          "ticks": 38856,
          "time": 157.6946475,
          "velocity": 1
        },
        {
          "duration": 0.19480500000000234,
          "durationTicks": 48,
          "midi": 51,
          "name": "D#3",
          "ticks": 38856,
          "time": 157.6946475,
          "velocity": 1
        },
        {
          "duration": 0.19480500000000234,
          "durationTicks": 48,
          "midi": 39,
          "name": "D#2",
          "ticks": 38904,
          "time": 157.8894525,
          "velocity": 1
        },
        {
          "duration": 0.19480500000000234,
          "durationTicks": 48,
          "midi": 46,
          "name": "A#2",
          "ticks": 38928,
          "time": 157.986855,
          "velocity": 1
        },
        {
          "duration": 0.19480500000000234,
          "durationTicks": 48,
          "midi": 51,
          "name": "D#3",
          "ticks": 38952,
          "time": 158.0842575,
          "velocity": 1
        },
        {
          "duration": 0.19480500000000234,
          "durationTicks": 48,
          "midi": 39,
          "name": "D#2",
          "ticks": 39000,
          "time": 158.2790625,
          "velocity": 1
        },
        {
          "duration": 0.19480500000000234,
          "durationTicks": 48,
          "midi": 46,
          "name": "A#2",
          "ticks": 39048,
          "time": 158.4738675,
          "velocity": 1
        },
        {
          "duration": 0.19480500000000234,
          "durationTicks": 48,
          "midi": 51,
          "name": "D#3",
          "ticks": 39048,
          "time": 158.4738675,
          "velocity": 1
        },
        {
          "duration": 0.19480500000000234,
          "durationTicks": 48,
          "midi": 39,
          "name": "D#2",
          "ticks": 39096,
          "time": 158.6686725,
          "velocity": 1
        },
        {
          "duration": 0.19480500000000234,
          "durationTicks": 48,
          "midi": 46,
          "name": "A#2",
          "ticks": 39120,
          "time": 158.766075,
          "velocity": 1
        },
        {
          "duration": 0.19480500000000234,
          "durationTicks": 48,
          "midi": 51,
          "name": "D#3",
          "ticks": 39144,
          "time": 158.86347750000002,
          "velocity": 1
        },
        {
          "duration": 0.19480499999997392,
          "durationTicks": 48,
          "midi": 34,
          "name": "A#1",
          "ticks": 39192,
          "time": 159.05828250000002,
          "velocity": 1
        },
        {
          "duration": 0.19480500000000234,
          "durationTicks": 48,
          "midi": 46,
          "name": "A#2",
          "ticks": 39240,
          "time": 159.2530875,
          "velocity": 1
        },
        {
          "duration": 0.19480500000000234,
          "durationTicks": 48,
          "midi": 41,
          "name": "F2",
          "ticks": 39240,
          "time": 159.2530875,
          "velocity": 1
        },
        {
          "duration": 0.19480500000000234,
          "durationTicks": 48,
          "midi": 34,
          "name": "A#1",
          "ticks": 39288,
          "time": 159.4478925,
          "velocity": 1
        },
        {
          "duration": 0.19480500000000234,
          "durationTicks": 48,
          "midi": 41,
          "name": "F2",
          "ticks": 39312,
          "time": 159.545295,
          "velocity": 1
        },
        {
          "duration": 0.19480500000000234,
          "durationTicks": 48,
          "midi": 46,
          "name": "A#2",
          "ticks": 39336,
          "time": 159.6426975,
          "velocity": 1
        },
        {
          "duration": 0.19480500000000234,
          "durationTicks": 48,
          "midi": 34,
          "name": "A#1",
          "ticks": 39384,
          "time": 159.8375025,
          "velocity": 1
        },
        {
          "duration": 0.19480500000000234,
          "durationTicks": 48,
          "midi": 46,
          "name": "A#2",
          "ticks": 39432,
          "time": 160.0323075,
          "velocity": 1
        },
        {
          "duration": 0.19480500000000234,
          "durationTicks": 48,
          "midi": 41,
          "name": "F2",
          "ticks": 39432,
          "time": 160.0323075,
          "velocity": 1
        },
        {
          "duration": 0.19480500000000234,
          "durationTicks": 48,
          "midi": 34,
          "name": "A#1",
          "ticks": 39480,
          "time": 160.2271125,
          "velocity": 1
        },
        {
          "duration": 0.19480500000000234,
          "durationTicks": 48,
          "midi": 41,
          "name": "F2",
          "ticks": 39504,
          "time": 160.324515,
          "velocity": 1
        },
        {
          "duration": 0.19480500000000234,
          "durationTicks": 48,
          "midi": 46,
          "name": "A#2",
          "ticks": 39528,
          "time": 160.4219175,
          "velocity": 1
        },
        {
          "duration": 0.19480500000000234,
          "durationTicks": 48,
          "midi": 36,
          "name": "C2",
          "ticks": 39576,
          "time": 160.6167225,
          "velocity": 1
        },
        {
          "duration": 0.19480500000000234,
          "durationTicks": 48,
          "midi": 48,
          "name": "C3",
          "ticks": 39624,
          "time": 160.8115275,
          "velocity": 1
        },
        {
          "duration": 0.19480500000000234,
          "durationTicks": 48,
          "midi": 43,
          "name": "G2",
          "ticks": 39624,
          "time": 160.8115275,
          "velocity": 1
        },
        {
          "duration": 0.19480500000000234,
          "durationTicks": 48,
          "midi": 36,
          "name": "C2",
          "ticks": 39672,
          "time": 161.0063325,
          "velocity": 1
        },
        {
          "duration": 0.19480500000000234,
          "durationTicks": 48,
          "midi": 43,
          "name": "G2",
          "ticks": 39696,
          "time": 161.103735,
          "velocity": 1
        },
        {
          "duration": 0.19480500000000234,
          "durationTicks": 48,
          "midi": 48,
          "name": "C3",
          "ticks": 39720,
          "time": 161.20113750000002,
          "velocity": 1
        },
        {
          "duration": 0.19480499999997392,
          "durationTicks": 48,
          "midi": 37,
          "name": "C#2",
          "ticks": 39768,
          "time": 161.39594250000002,
          "velocity": 1
        },
        {
          "duration": 0.19480500000000234,
          "durationTicks": 48,
          "midi": 49,
          "name": "C#3",
          "ticks": 39816,
          "time": 161.5907475,
          "velocity": 1
        },
        {
          "duration": 0.19480500000000234,
          "durationTicks": 48,
          "midi": 44,
          "name": "G#2",
          "ticks": 39816,
          "time": 161.5907475,
          "velocity": 1
        },
        {
          "duration": 0.19480500000000234,
          "durationTicks": 48,
          "midi": 37,
          "name": "C#2",
          "ticks": 39864,
          "time": 161.7855525,
          "velocity": 1
        },
        {
          "duration": 0.19480500000000234,
          "durationTicks": 48,
          "midi": 44,
          "name": "G#2",
          "ticks": 39888,
          "time": 161.882955,
          "velocity": 1
        },
        {
          "duration": 0.19480500000000234,
          "durationTicks": 48,
          "midi": 49,
          "name": "C#3",
          "ticks": 39912,
          "time": 161.9803575,
          "velocity": 1
        },
        {
          "duration": 0.19480500000000234,
          "durationTicks": 48,
          "midi": 34,
          "name": "A#1",
          "ticks": 39960,
          "time": 162.1751625,
          "velocity": 1
        },
        {
          "duration": 0.19480500000000234,
          "durationTicks": 48,
          "midi": 41,
          "name": "F2",
          "ticks": 40008,
          "time": 162.3699675,
          "velocity": 1
        },
        {
          "duration": 0.19480500000000234,
          "durationTicks": 48,
          "midi": 46,
          "name": "A#2",
          "ticks": 40008,
          "time": 162.3699675,
          "velocity": 1
        },
        {
          "duration": 0.19480500000000234,
          "durationTicks": 48,
          "midi": 34,
          "name": "A#1",
          "ticks": 40056,
          "time": 162.5647725,
          "velocity": 1
        },
        {
          "duration": 0.19480499999997392,
          "durationTicks": 48,
          "midi": 41,
          "name": "F2",
          "ticks": 40080,
          "time": 162.66217500000002,
          "velocity": 1
        },
        {
          "duration": 0.19480500000000234,
          "durationTicks": 48,
          "midi": 46,
          "name": "A#2",
          "ticks": 40104,
          "time": 162.7595775,
          "velocity": 1
        },
        {
          "duration": 0.19480500000000234,
          "durationTicks": 48,
          "midi": 36,
          "name": "C2",
          "ticks": 40152,
          "time": 162.9543825,
          "velocity": 1
        },
        {
          "duration": 0.19480500000000234,
          "durationTicks": 48,
          "midi": 43,
          "name": "G2",
          "ticks": 40200,
          "time": 163.1491875,
          "velocity": 1
        },
        {
          "duration": 0.19480500000000234,
          "durationTicks": 48,
          "midi": 48,
          "name": "C3",
          "ticks": 40200,
          "time": 163.1491875,
          "velocity": 1
        },
        {
          "duration": 0.19480500000000234,
          "durationTicks": 48,
          "midi": 36,
          "name": "C2",
          "ticks": 40248,
          "time": 163.3439925,
          "velocity": 1
        },
        {
          "duration": 0.19480500000000234,
          "durationTicks": 48,
          "midi": 43,
          "name": "G2",
          "ticks": 40272,
          "time": 163.441395,
          "velocity": 1
        },
        {
          "duration": 0.19480500000000234,
          "durationTicks": 48,
          "midi": 48,
          "name": "C3",
          "ticks": 40296,
          "time": 163.53879750000002,
          "velocity": 1
        },
        {
          "duration": 0.19480499999997392,
          "durationTicks": 48,
          "midi": 38,
          "name": "D2",
          "ticks": 40344,
          "time": 163.73360250000002,
          "velocity": 1
        },
        {
          "duration": 0.19480500000000234,
          "durationTicks": 48,
          "midi": 50,
          "name": "D3",
          "ticks": 40392,
          "time": 163.9284075,
          "velocity": 1
        },
        {
          "duration": 0.19480500000000234,
          "durationTicks": 48,
          "midi": 45,
          "name": "A2",
          "ticks": 40392,
          "time": 163.9284075,
          "velocity": 1
        },
        {
          "duration": 0.19480500000000234,
          "durationTicks": 48,
          "midi": 38,
          "name": "D2",
          "ticks": 40440,
          "time": 164.1232125,
          "velocity": 1
        },
        {
          "duration": 0.19480500000000234,
          "durationTicks": 48,
          "midi": 45,
          "name": "A2",
          "ticks": 40488,
          "time": 164.3180175,
          "velocity": 1
        },
        {
          "duration": 0.19480500000000234,
          "durationTicks": 48,
          "midi": 50,
          "name": "D3",
          "ticks": 40488,
          "time": 164.3180175,
          "velocity": 1
        },
        {
          "duration": 0.19480500000000234,
          "durationTicks": 48,
          "midi": 41,
          "name": "F2",
          "ticks": 40536,
          "time": 164.5128225,
          "velocity": 1
        },
        {
          "duration": 0.19480500000000234,
          "durationTicks": 48,
          "midi": 48,
          "name": "C3",
          "ticks": 40584,
          "time": 164.7076275,
          "velocity": 1
        },
        {
          "duration": 0.19480500000000234,
          "durationTicks": 48,
          "midi": 53,
          "name": "F3",
          "ticks": 40584,
          "time": 164.7076275,
          "velocity": 1
        },
        {
          "duration": 0.09740250000001538,
          "durationTicks": 24,
          "midi": 41,
          "name": "F2",
          "ticks": 40632,
          "time": 164.9024325,
          "velocity": 1
        },
        {
          "duration": 0.09740249999998696,
          "durationTicks": 24,
          "midi": 53,
          "name": "F3",
          "ticks": 40656,
          "time": 164.99983500000002,
          "velocity": 1
        },
        {
          "duration": 0.09740249999998696,
          "durationTicks": 24,
          "midi": 41,
          "name": "F2",
          "ticks": 40680,
          "time": 165.0972375,
          "velocity": 1
        },
        {
          "duration": 0.09740250000001538,
          "durationTicks": 24,
          "midi": 53,
          "name": "F3",
          "ticks": 40704,
          "time": 165.19464,
          "velocity": 1
        },
        {
          "duration": 0.19480500000000234,
          "durationTicks": 48,
          "midi": 34,
          "name": "A#1",
          "ticks": 40728,
          "time": 165.2920425,
          "velocity": 1
        },
        {
          "duration": 0.19480500000000234,
          "durationTicks": 48,
          "midi": 41,
          "name": "F2",
          "ticks": 40776,
          "time": 165.4868475,
          "velocity": 1
        },
        {
          "duration": 0.19480500000000234,
          "durationTicks": 48,
          "midi": 46,
          "name": "A#2",
          "ticks": 40776,
          "time": 165.4868475,
          "velocity": 1
        },
        {
          "duration": 0.19480500000000234,
          "durationTicks": 48,
          "midi": 34,
          "name": "A#1",
          "ticks": 40824,
          "time": 165.6816525,
          "velocity": 1
        },
        {
          "duration": 0.19480500000000234,
          "durationTicks": 48,
          "midi": 41,
          "name": "F2",
          "ticks": 40848,
          "time": 165.779055,
          "velocity": 1
        },
        {
          "duration": 0.19480500000000234,
          "durationTicks": 48,
          "midi": 46,
          "name": "A#2",
          "ticks": 40872,
          "time": 165.87645750000001,
          "velocity": 1
        },
        {
          "duration": 0.19480499999997392,
          "durationTicks": 48,
          "midi": 36,
          "name": "C2",
          "ticks": 40920,
          "time": 166.07126250000002,
          "velocity": 1
        },
        {
          "duration": 0.19480500000000234,
          "durationTicks": 48,
          "midi": 43,
          "name": "G2",
          "ticks": 40968,
          "time": 166.2660675,
          "velocity": 1
        },
        {
          "duration": 0.19480500000000234,
          "durationTicks": 48,
          "midi": 48,
          "name": "C3",
          "ticks": 40968,
          "time": 166.2660675,
          "velocity": 1
        },
        {
          "duration": 0.19480500000000234,
          "durationTicks": 48,
          "midi": 36,
          "name": "C2",
          "ticks": 41016,
          "time": 166.4608725,
          "velocity": 1
        },
        {
          "duration": 0.19480500000000234,
          "durationTicks": 48,
          "midi": 43,
          "name": "G2",
          "ticks": 41040,
          "time": 166.558275,
          "velocity": 1
        },
        {
          "duration": 0.19480500000000234,
          "durationTicks": 48,
          "midi": 48,
          "name": "C3",
          "ticks": 41064,
          "time": 166.6556775,
          "velocity": 1
        },
        {
          "duration": 0.19480500000000234,
          "durationTicks": 48,
          "midi": 38,
          "name": "D2",
          "ticks": 41112,
          "time": 166.8504825,
          "velocity": 1
        },
        {
          "duration": 0.19480500000000234,
          "durationTicks": 48,
          "midi": 50,
          "name": "D3",
          "ticks": 41160,
          "time": 167.0452875,
          "velocity": 1
        },
        {
          "duration": 0.19480500000000234,
          "durationTicks": 48,
          "midi": 45,
          "name": "A2",
          "ticks": 41160,
          "time": 167.0452875,
          "velocity": 1
        },
        {
          "duration": 0.19480500000000234,
          "durationTicks": 48,
          "midi": 41,
          "name": "F2",
          "ticks": 41208,
          "time": 167.2400925,
          "velocity": 1
        },
        {
          "duration": 0.19480500000000234,
          "durationTicks": 48,
          "midi": 48,
          "name": "C3",
          "ticks": 41256,
          "time": 167.4348975,
          "velocity": 1
        },
        {
          "duration": 0.19480500000000234,
          "durationTicks": 48,
          "midi": 53,
          "name": "F3",
          "ticks": 41256,
          "time": 167.4348975,
          "velocity": 1
        },
        {
          "duration": 0.19480500000000234,
          "durationTicks": 48,
          "midi": 43,
          "name": "G2",
          "ticks": 41304,
          "time": 167.6297025,
          "velocity": 1
        },
        {
          "duration": 0.19480500000000234,
          "durationTicks": 48,
          "midi": 50,
          "name": "D3",
          "ticks": 41352,
          "time": 167.8245075,
          "velocity": 1
        },
        {
          "duration": 0.19480500000000234,
          "durationTicks": 48,
          "midi": 55,
          "name": "G3",
          "ticks": 41352,
          "time": 167.8245075,
          "velocity": 1
        },
        {
          "duration": 0.09740249999998696,
          "durationTicks": 24,
          "midi": 45,
          "name": "A2",
          "ticks": 41400,
          "time": 168.0193125,
          "velocity": 1
        },
        {
          "duration": 0.09740250000001538,
          "durationTicks": 24,
          "midi": 57,
          "name": "A3",
          "ticks": 41424,
          "time": 168.116715,
          "velocity": 1
        },
        {
          "duration": 0.09740249999998696,
          "durationTicks": 24,
          "midi": 45,
          "name": "A2",
          "ticks": 41448,
          "time": 168.21411750000001,
          "velocity": 1
        },
        {
          "duration": 0.09740250000001538,
          "durationTicks": 24,
          "midi": 57,
          "name": "A3",
          "ticks": 41472,
          "time": 168.31152,
          "velocity": 1
        },
        {
          "duration": 0.19480500000000234,
          "durationTicks": 48,
          "midi": 34,
          "name": "A#1",
          "ticks": 41496,
          "time": 168.40892250000002,
          "velocity": 1
        },
        {
          "duration": 0.19480499999997392,
          "durationTicks": 48,
          "midi": 41,
          "name": "F2",
          "ticks": 41544,
          "time": 168.60372750000002,
          "velocity": 1
        },
        {
          "duration": 0.19480499999997392,
          "durationTicks": 48,
          "midi": 46,
          "name": "A#2",
          "ticks": 41544,
          "time": 168.60372750000002,
          "velocity": 1
        },
        {
          "duration": 0.19480500000000234,
          "durationTicks": 48,
          "midi": 34,
          "name": "A#1",
          "ticks": 41592,
          "time": 168.7985325,
          "velocity": 1
        },
        {
          "duration": 0.19480500000000234,
          "durationTicks": 48,
          "midi": 41,
          "name": "F2",
          "ticks": 41616,
          "time": 168.895935,
          "velocity": 1
        },
        {
          "duration": 0.19480500000000234,
          "durationTicks": 48,
          "midi": 46,
          "name": "A#2",
          "ticks": 41640,
          "time": 168.9933375,
          "velocity": 1
        },
        {
          "duration": 0.19480500000000234,
          "durationTicks": 48,
          "midi": 36,
          "name": "C2",
          "ticks": 41688,
          "time": 169.1881425,
          "velocity": 1
        },
        {
          "duration": 0.19480500000000234,
          "durationTicks": 48,
          "midi": 43,
          "name": "G2",
          "ticks": 41736,
          "time": 169.3829475,
          "velocity": 1
        },
        {
          "duration": 0.19480500000000234,
          "durationTicks": 48,
          "midi": 48,
          "name": "C3",
          "ticks": 41736,
          "time": 169.3829475,
          "velocity": 1
        },
        {
          "duration": 0.19480500000000234,
          "durationTicks": 48,
          "midi": 36,
          "name": "C2",
          "ticks": 41784,
          "time": 169.5777525,
          "velocity": 1
        },
        {
          "duration": 0.19480499999997392,
          "durationTicks": 48,
          "midi": 43,
          "name": "G2",
          "ticks": 41808,
          "time": 169.67515500000002,
          "velocity": 1
        },
        {
          "duration": 0.19480500000000234,
          "durationTicks": 48,
          "midi": 48,
          "name": "C3",
          "ticks": 41832,
          "time": 169.7725575,
          "velocity": 1
        },
        {
          "duration": 0.19480500000000234,
          "durationTicks": 48,
          "midi": 38,
          "name": "D2",
          "ticks": 41880,
          "time": 169.9673625,
          "velocity": 1
        },
        {
          "duration": 0.19480500000000234,
          "durationTicks": 48,
          "midi": 50,
          "name": "D3",
          "ticks": 41928,
          "time": 170.1621675,
          "velocity": 1
        },
        {
          "duration": 0.19480500000000234,
          "durationTicks": 48,
          "midi": 45,
          "name": "A2",
          "ticks": 41928,
          "time": 170.1621675,
          "velocity": 1
        },
        {
          "duration": 0.19480500000000234,
          "durationTicks": 48,
          "midi": 38,
          "name": "D2",
          "ticks": 41976,
          "time": 170.3569725,
          "velocity": 1
        },
        {
          "duration": 0.19480500000000234,
          "durationTicks": 48,
          "midi": 45,
          "name": "A2",
          "ticks": 42024,
          "time": 170.55177750000001,
          "velocity": 1
        },
        {
          "duration": 0.19480500000000234,
          "durationTicks": 48,
          "midi": 50,
          "name": "D3",
          "ticks": 42024,
          "time": 170.55177750000001,
          "velocity": 1
        },
        {
          "duration": 0.19480500000000234,
          "durationTicks": 48,
          "midi": 41,
          "name": "F2",
          "ticks": 42072,
          "time": 170.74658250000002,
          "velocity": 1
        },
        {
          "duration": 0.19480499999997392,
          "durationTicks": 48,
          "midi": 48,
          "name": "C3",
          "ticks": 42120,
          "time": 170.94138750000002,
          "velocity": 1
        },
        {
          "duration": 0.19480499999997392,
          "durationTicks": 48,
          "midi": 53,
          "name": "F3",
          "ticks": 42120,
          "time": 170.94138750000002,
          "velocity": 1
        },
        {
          "duration": 0.09740250000001538,
          "durationTicks": 24,
          "midi": 41,
          "name": "F2",
          "ticks": 42168,
          "time": 171.1361925,
          "velocity": 1
        },
        {
          "duration": 0.09740249999998696,
          "durationTicks": 24,
          "midi": 53,
          "name": "F3",
          "ticks": 42192,
          "time": 171.233595,
          "velocity": 1
        },
        {
          "duration": 0.09740250000001538,
          "durationTicks": 24,
          "midi": 41,
          "name": "F2",
          "ticks": 42216,
          "time": 171.3309975,
          "velocity": 1
        },
        {
          "duration": 0.09740249999998696,
          "durationTicks": 24,
          "midi": 53,
          "name": "F3",
          "ticks": 42240,
          "time": 171.4284,
          "velocity": 1
        },
        {
          "duration": 0.19480500000000234,
          "durationTicks": 48,
          "midi": 34,
          "name": "A#1",
          "ticks": 42264,
          "time": 171.5258025,
          "velocity": 1
        },
        {
          "duration": 0.19480500000000234,
          "durationTicks": 48,
          "midi": 41,
          "name": "F2",
          "ticks": 42312,
          "time": 171.7206075,
          "velocity": 1
        },
        {
          "duration": 0.19480500000000234,
          "durationTicks": 48,
          "midi": 46,
          "name": "A#2",
          "ticks": 42312,
          "time": 171.7206075,
          "velocity": 1
        },
        {
          "duration": 0.19480500000000234,
          "durationTicks": 48,
          "midi": 34,
          "name": "A#1",
          "ticks": 42360,
          "time": 171.9154125,
          "velocity": 1
        },
        {
          "duration": 0.19480499999997392,
          "durationTicks": 48,
          "midi": 41,
          "name": "F2",
          "ticks": 42384,
          "time": 172.01281500000002,
          "velocity": 1
        },
        {
          "duration": 0.19480500000000234,
          "durationTicks": 48,
          "midi": 46,
          "name": "A#2",
          "ticks": 42408,
          "time": 172.1102175,
          "velocity": 1
        },
        {
          "duration": 0.19480500000000234,
          "durationTicks": 48,
          "midi": 36,
          "name": "C2",
          "ticks": 42456,
          "time": 172.3050225,
          "velocity": 1
        },
        {
          "duration": 0.19480500000000234,
          "durationTicks": 48,
          "midi": 43,
          "name": "G2",
          "ticks": 42504,
          "time": 172.4998275,
          "velocity": 1
        },
        {
          "duration": 0.19480500000000234,
          "durationTicks": 48,
          "midi": 48,
          "name": "C3",
          "ticks": 42504,
          "time": 172.4998275,
          "velocity": 1
        },
        {
          "duration": 0.19480500000000234,
          "durationTicks": 48,
          "midi": 36,
          "name": "C2",
          "ticks": 42552,
          "time": 172.6946325,
          "velocity": 1
        },
        {
          "duration": 0.19480500000000234,
          "durationTicks": 48,
          "midi": 43,
          "name": "G2",
          "ticks": 42576,
          "time": 172.792035,
          "velocity": 1
        },
        {
          "duration": 0.19480500000000234,
          "durationTicks": 48,
          "midi": 48,
          "name": "C3",
          "ticks": 42600,
          "time": 172.8894375,
          "velocity": 1
        },
        {
          "duration": 0.19480500000000234,
          "durationTicks": 48,
          "midi": 50,
          "name": "D3",
          "ticks": 42648,
          "time": 173.08424250000002,
          "velocity": 1
        },
        {
          "duration": 0.19480500000000234,
          "durationTicks": 48,
          "midi": 38,
          "name": "D2",
          "ticks": 42648,
          "time": 173.08424250000002,
          "velocity": 1
        },
        {
          "duration": 0.19480500000000234,
          "durationTicks": 48,
          "midi": 45,
          "name": "A2",
          "ticks": 42648,
          "time": 173.08424250000002,
          "velocity": 1
        },
        {
          "duration": 0.19480500000000234,
          "durationTicks": 48,
          "midi": 45,
          "name": "A2",
          "ticks": 42720,
          "time": 173.37645,
          "velocity": 1
        },
        {
          "duration": 0.19480500000000234,
          "durationTicks": 48,
          "midi": 50,
          "name": "D3",
          "ticks": 42720,
          "time": 173.37645,
          "velocity": 1
        },
        {
          "duration": 0.19480500000000234,
          "durationTicks": 48,
          "midi": 38,
          "name": "D2",
          "ticks": 42720,
          "time": 173.37645,
          "velocity": 1
        },
        {
          "duration": 0.19480500000000234,
          "durationTicks": 48,
          "midi": 53,
          "name": "F3",
          "ticks": 42792,
          "time": 173.6686575,
          "velocity": 1
        },
        {
          "duration": 0.19480500000000234,
          "durationTicks": 48,
          "midi": 41,
          "name": "F2",
          "ticks": 42792,
          "time": 173.6686575,
          "velocity": 1
        },
        {
          "duration": 0.19480500000000234,
          "durationTicks": 48,
          "midi": 48,
          "name": "C3",
          "ticks": 42792,
          "time": 173.6686575,
          "velocity": 1
        },
        {
          "duration": 0.3896100000000047,
          "durationTicks": 96,
          "midi": 50,
          "name": "D3",
          "ticks": 42840,
          "time": 173.8634625,
          "velocity": 1
        },
        {
          "duration": 0.3896100000000047,
          "durationTicks": 96,
          "midi": 38,
          "name": "D2",
          "ticks": 42840,
          "time": 173.8634625,
          "velocity": 1
        },
        {
          "duration": 0.3896100000000047,
          "durationTicks": 96,
          "midi": 45,
          "name": "A2",
          "ticks": 42840,
          "time": 173.8634625,
          "velocity": 1
        },
        {
          "duration": 0.09740250000001538,
          "durationTicks": 24,
          "midi": 38,
          "name": "D2",
          "ticks": 42936,
          "time": 174.2530725,
          "velocity": 1
        },
        {
          "duration": 0.09740249999998696,
          "durationTicks": 24,
          "midi": 45,
          "name": "A2",
          "ticks": 42960,
          "time": 174.35047500000002,
          "velocity": 1
        },
        {
          "duration": 0.09740249999998696,
          "durationTicks": 24,
          "midi": 50,
          "name": "D3",
          "ticks": 42960,
          "time": 174.35047500000002,
          "velocity": 1
        },
        {
          "duration": 0.09740249999998696,
          "durationTicks": 24,
          "midi": 38,
          "name": "D2",
          "ticks": 42984,
          "time": 174.4478775,
          "velocity": 1
        },
        {
          "duration": 0.09740250000001538,
          "durationTicks": 24,
          "midi": 50,
          "name": "D3",
          "ticks": 43008,
          "time": 174.54528,
          "velocity": 1
        },
        {
          "duration": 0.09740250000001538,
          "durationTicks": 24,
          "midi": 45,
          "name": "A2",
          "ticks": 43008,
          "time": 174.54528,
          "velocity": 1
        },
        {
          "duration": 0.3896100000000047,
          "durationTicks": 96,
          "midi": 41,
          "name": "F2",
          "ticks": 43032,
          "time": 174.6426825,
          "velocity": 1
        },
        {
          "duration": 0.3896100000000047,
          "durationTicks": 96,
          "midi": 46,
          "name": "A#2",
          "ticks": 43032,
          "time": 174.6426825,
          "velocity": 1
        },
        {
          "duration": 0.3896100000000047,
          "durationTicks": 96,
          "midi": 34,
          "name": "A#1",
          "ticks": 43032,
          "time": 174.6426825,
          "velocity": 1
        },
        {
          "duration": 0.3896100000000047,
          "durationTicks": 96,
          "midi": 41,
          "name": "F2",
          "ticks": 43128,
          "time": 175.0322925,
          "velocity": 1
        },
        {
          "duration": 0.3896100000000047,
          "durationTicks": 96,
          "midi": 46,
          "name": "A#2",
          "ticks": 43128,
          "time": 175.0322925,
          "velocity": 1
        },
        {
          "duration": 0.3896100000000047,
          "durationTicks": 96,
          "midi": 34,
          "name": "A#1",
          "ticks": 43128,
          "time": 175.0322925,
          "velocity": 1
        },
        {
          "duration": 0.38960999999997625,
          "durationTicks": 96,
          "midi": 41,
          "name": "F2",
          "ticks": 43224,
          "time": 175.42190250000002,
          "velocity": 1
        },
        {
          "duration": 0.38960999999997625,
          "durationTicks": 96,
          "midi": 46,
          "name": "A#2",
          "ticks": 43224,
          "time": 175.42190250000002,
          "velocity": 1
        },
        {
          "duration": 0.38960999999997625,
          "durationTicks": 96,
          "midi": 34,
          "name": "A#1",
          "ticks": 43224,
          "time": 175.42190250000002,
          "velocity": 1
        },
        {
          "duration": 0.2922075000000177,
          "durationTicks": 72,
          "midi": 41,
          "name": "F2",
          "ticks": 43320,
          "time": 175.8115125,
          "velocity": 1
        },
        {
          "duration": 0.2922075000000177,
          "durationTicks": 72,
          "midi": 46,
          "name": "A#2",
          "ticks": 43320,
          "time": 175.8115125,
          "velocity": 1
        },
        {
          "duration": 0.2922075000000177,
          "durationTicks": 72,
          "midi": 34,
          "name": "A#1",
          "ticks": 43320,
          "time": 175.8115125,
          "velocity": 1
        },
        {
          "duration": 0.09740249999998696,
          "durationTicks": 24,
          "midi": 41,
          "name": "F2",
          "ticks": 43392,
          "time": 176.10372,
          "velocity": 1
        },
        {
          "duration": 0.3896100000000047,
          "durationTicks": 96,
          "midi": 36,
          "name": "C2",
          "ticks": 43416,
          "time": 176.2011225,
          "velocity": 1
        },
        {
          "duration": 0.3896100000000047,
          "durationTicks": 96,
          "midi": 41,
          "name": "F2",
          "ticks": 43416,
          "time": 176.2011225,
          "velocity": 1
        },
        {
          "duration": 0.3896100000000047,
          "durationTicks": 96,
          "midi": 29,
          "name": "F1",
          "ticks": 43416,
          "time": 176.2011225,
          "velocity": 1
        },
        {
          "duration": 0.3896100000000047,
          "durationTicks": 96,
          "midi": 36,
          "name": "C2",
          "ticks": 43512,
          "time": 176.5907325,
          "velocity": 1
        },
        {
          "duration": 0.3896100000000047,
          "durationTicks": 96,
          "midi": 41,
          "name": "F2",
          "ticks": 43512,
          "time": 176.5907325,
          "velocity": 1
        },
        {
          "duration": 0.3896100000000047,
          "durationTicks": 96,
          "midi": 29,
          "name": "F1",
          "ticks": 43512,
          "time": 176.5907325,
          "velocity": 1
        },
        {
          "duration": 0.3896100000000047,
          "durationTicks": 96,
          "midi": 36,
          "name": "C2",
          "ticks": 43608,
          "time": 176.9803425,
          "velocity": 1
        },
        {
          "duration": 0.3896100000000047,
          "durationTicks": 96,
          "midi": 41,
          "name": "F2",
          "ticks": 43608,
          "time": 176.9803425,
          "velocity": 1
        },
        {
          "duration": 0.3896100000000047,
          "durationTicks": 96,
          "midi": 29,
          "name": "F1",
          "ticks": 43608,
          "time": 176.9803425,
          "velocity": 1
        },
        {
          "duration": 0.2922074999999893,
          "durationTicks": 72,
          "midi": 36,
          "name": "C2",
          "ticks": 43704,
          "time": 177.3699525,
          "velocity": 1
        },
        {
          "duration": 0.2922074999999893,
          "durationTicks": 72,
          "midi": 41,
          "name": "F2",
          "ticks": 43704,
          "time": 177.3699525,
          "velocity": 1
        },
        {
          "duration": 0.2922074999999893,
          "durationTicks": 72,
          "midi": 29,
          "name": "F1",
          "ticks": 43704,
          "time": 177.3699525,
          "velocity": 1
        },
        {
          "duration": 0.09740250000001538,
          "durationTicks": 24,
          "midi": 36,
          "name": "C2",
          "ticks": 43776,
          "time": 177.66216,
          "velocity": 1
        },
        {
          "duration": 0.38960999999997625,
          "durationTicks": 96,
          "midi": 34,
          "name": "A#1",
          "ticks": 43800,
          "time": 177.75956250000002,
          "velocity": 1
        },
        {
          "duration": 0.38960999999997625,
          "durationTicks": 96,
          "midi": 46,
          "name": "A#2",
          "ticks": 43800,
          "time": 177.75956250000002,
          "velocity": 1
        },
        {
          "duration": 0.2922075000000177,
          "durationTicks": 72,
          "midi": 34,
          "name": "A#1",
          "ticks": 43896,
          "time": 178.1491725,
          "velocity": 1
        },
        {
          "duration": 0.2922075000000177,
          "durationTicks": 72,
          "midi": 46,
          "name": "A#2",
          "ticks": 43896,
          "time": 178.1491725,
          "velocity": 1
        },
        {
          "duration": 0.09740249999998696,
          "durationTicks": 24,
          "midi": 41,
          "name": "F2",
          "ticks": 43968,
          "time": 178.44138,
          "velocity": 1
        },
        {
          "duration": 0.3896100000000047,
          "durationTicks": 96,
          "midi": 36,
          "name": "C2",
          "ticks": 43992,
          "time": 178.5387825,
          "velocity": 1
        },
        {
          "duration": 0.3896100000000047,
          "durationTicks": 96,
          "midi": 48,
          "name": "C3",
          "ticks": 43992,
          "time": 178.5387825,
          "velocity": 1
        },
        {
          "duration": 0.3896100000000047,
          "durationTicks": 96,
          "midi": 36,
          "name": "C2",
          "ticks": 44088,
          "time": 178.9283925,
          "velocity": 1
        },
        {
          "duration": 0.3896100000000047,
          "durationTicks": 96,
          "midi": 48,
          "name": "C3",
          "ticks": 44088,
          "time": 178.9283925,
          "velocity": 1
        },
        {
          "duration": 0.3896100000000047,
          "durationTicks": 96,
          "midi": 38,
          "name": "D2",
          "ticks": 44184,
          "time": 179.3180025,
          "velocity": 1
        },
        {
          "duration": 0.3896100000000047,
          "durationTicks": 96,
          "midi": 50,
          "name": "D3",
          "ticks": 44184,
          "time": 179.3180025,
          "velocity": 1
        },
        {
          "duration": 0.09740249999998696,
          "durationTicks": 24,
          "midi": 38,
          "name": "D2",
          "ticks": 44280,
          "time": 179.7076125,
          "velocity": 1
        },
        {
          "duration": 0.09740250000001538,
          "durationTicks": 24,
          "midi": 50,
          "name": "D3",
          "ticks": 44304,
          "time": 179.805015,
          "velocity": 1
        },
        {
          "duration": 0.09740249999998696,
          "durationTicks": 24,
          "midi": 38,
          "name": "D2",
          "ticks": 44328,
          "time": 179.9024175,
          "velocity": 1
        },
        {
          "duration": 0.09740250000001538,
          "durationTicks": 24,
          "midi": 50,
          "name": "D3",
          "ticks": 44352,
          "time": 179.99982,
          "velocity": 1
        },
        {
          "duration": 0.19480500000000234,
          "durationTicks": 48,
          "midi": 45,
          "name": "A2",
          "ticks": 44376,
          "time": 180.09722250000002,
          "velocity": 1
        },
        {
          "duration": 0.19480499999997392,
          "durationTicks": 48,
          "midi": 43,
          "name": "G2",
          "ticks": 44424,
          "time": 180.29202750000002,
          "velocity": 1
        },
        {
          "duration": 0.19480500000000234,
          "durationTicks": 48,
          "midi": 41,
          "name": "F2",
          "ticks": 44472,
          "time": 180.4868325,
          "velocity": 1
        },
        {
          "duration": 0.19480500000000234,
          "durationTicks": 48,
          "midi": 38,
          "name": "D2",
          "ticks": 44520,
          "time": 180.6816375,
          "velocity": 1
        },
        {
          "duration": 0.3896100000000047,
          "durationTicks": 96,
          "midi": 41,
          "name": "F2",
          "ticks": 44568,
          "time": 180.8764425,
          "velocity": 1
        },
        {
          "duration": 0.3896100000000047,
          "durationTicks": 96,
          "midi": 46,
          "name": "A#2",
          "ticks": 44568,
          "time": 180.8764425,
          "velocity": 1
        },
        {
          "duration": 0.3896100000000047,
          "durationTicks": 96,
          "midi": 34,
          "name": "A#1",
          "ticks": 44568,
          "time": 180.8764425,
          "velocity": 1
        },
        {
          "duration": 0.3896100000000047,
          "durationTicks": 96,
          "midi": 41,
          "name": "F2",
          "ticks": 44664,
          "time": 181.2660525,
          "velocity": 1
        },
        {
          "duration": 0.3896100000000047,
          "durationTicks": 96,
          "midi": 46,
          "name": "A#2",
          "ticks": 44664,
          "time": 181.2660525,
          "velocity": 1
        },
        {
          "duration": 0.3896100000000047,
          "durationTicks": 96,
          "midi": 34,
          "name": "A#1",
          "ticks": 44664,
          "time": 181.2660525,
          "velocity": 1
        },
        {
          "duration": 0.3896100000000047,
          "durationTicks": 96,
          "midi": 41,
          "name": "F2",
          "ticks": 44760,
          "time": 181.6556625,
          "velocity": 1
        },
        {
          "duration": 0.3896100000000047,
          "durationTicks": 96,
          "midi": 46,
          "name": "A#2",
          "ticks": 44760,
          "time": 181.6556625,
          "velocity": 1
        },
        {
          "duration": 0.3896100000000047,
          "durationTicks": 96,
          "midi": 34,
          "name": "A#1",
          "ticks": 44760,
          "time": 181.6556625,
          "velocity": 1
        },
        {
          "duration": 0.2922074999999893,
          "durationTicks": 72,
          "midi": 41,
          "name": "F2",
          "ticks": 44856,
          "time": 182.0452725,
          "velocity": 1
        },
        {
          "duration": 0.2922074999999893,
          "durationTicks": 72,
          "midi": 46,
          "name": "A#2",
          "ticks": 44856,
          "time": 182.0452725,
          "velocity": 1
        },
        {
          "duration": 0.2922074999999893,
          "durationTicks": 72,
          "midi": 34,
          "name": "A#1",
          "ticks": 44856,
          "time": 182.0452725,
          "velocity": 1
        },
        {
          "duration": 0.09740250000001538,
          "durationTicks": 24,
          "midi": 41,
          "name": "F2",
          "ticks": 44928,
          "time": 182.33748,
          "velocity": 1
        },
        {
          "duration": 0.3896100000000047,
          "durationTicks": 96,
          "midi": 36,
          "name": "C2",
          "ticks": 44952,
          "time": 182.43488250000001,
          "velocity": 1
        },
        {
          "duration": 0.3896100000000047,
          "durationTicks": 96,
          "midi": 41,
          "name": "F2",
          "ticks": 44952,
          "time": 182.43488250000001,
          "velocity": 1
        },
        {
          "duration": 0.3896100000000047,
          "durationTicks": 96,
          "midi": 29,
          "name": "F1",
          "ticks": 44952,
          "time": 182.43488250000001,
          "velocity": 1
        },
        {
          "duration": 0.38960999999997625,
          "durationTicks": 96,
          "midi": 36,
          "name": "C2",
          "ticks": 45048,
          "time": 182.82449250000002,
          "velocity": 1
        },
        {
          "duration": 0.38960999999997625,
          "durationTicks": 96,
          "midi": 41,
          "name": "F2",
          "ticks": 45048,
          "time": 182.82449250000002,
          "velocity": 1
        },
        {
          "duration": 0.38960999999997625,
          "durationTicks": 96,
          "midi": 29,
          "name": "F1",
          "ticks": 45048,
          "time": 182.82449250000002,
          "velocity": 1
        },
        {
          "duration": 0.3896100000000047,
          "durationTicks": 96,
          "midi": 36,
          "name": "C2",
          "ticks": 45144,
          "time": 183.2141025,
          "velocity": 1
        },
        {
          "duration": 0.3896100000000047,
          "durationTicks": 96,
          "midi": 41,
          "name": "F2",
          "ticks": 45144,
          "time": 183.2141025,
          "velocity": 1
        },
        {
          "duration": 0.3896100000000047,
          "durationTicks": 96,
          "midi": 29,
          "name": "F1",
          "ticks": 45144,
          "time": 183.2141025,
          "velocity": 1
        },
        {
          "duration": 0.2922075000000177,
          "durationTicks": 72,
          "midi": 36,
          "name": "C2",
          "ticks": 45240,
          "time": 183.6037125,
          "velocity": 1
        },
        {
          "duration": 0.2922075000000177,
          "durationTicks": 72,
          "midi": 41,
          "name": "F2",
          "ticks": 45240,
          "time": 183.6037125,
          "velocity": 1
        },
        {
          "duration": 0.2922075000000177,
          "durationTicks": 72,
          "midi": 29,
          "name": "F1",
          "ticks": 45240,
          "time": 183.6037125,
          "velocity": 1
        },
        {
          "duration": 0.09740249999998696,
          "durationTicks": 24,
          "midi": 36,
          "name": "C2",
          "ticks": 45312,
          "time": 183.89592000000002,
          "velocity": 1
        },
        {
          "duration": 0.19480500000000234,
          "durationTicks": 48,
          "midi": 38,
          "name": "D2",
          "ticks": 45336,
          "time": 183.9933225,
          "velocity": 1
        },
        {
          "duration": 0.19480500000000234,
          "durationTicks": 48,
          "midi": 43,
          "name": "G2",
          "ticks": 45336,
          "time": 183.9933225,
          "velocity": 1
        },
        {
          "duration": 0.19480500000000234,
          "durationTicks": 48,
          "midi": 31,
          "name": "G1",
          "ticks": 45336,
          "time": 183.9933225,
          "velocity": 1
        },
        {
          "duration": 0.19480500000000234,
          "durationTicks": 48,
          "midi": 38,
          "name": "D2",
          "ticks": 45384,
          "time": 184.1881275,
          "velocity": 1
        },
        {
          "duration": 0.19480500000000234,
          "durationTicks": 48,
          "midi": 43,
          "name": "G2",
          "ticks": 45384,
          "time": 184.1881275,
          "velocity": 1
        },
        {
          "duration": 0.19480500000000234,
          "durationTicks": 48,
          "midi": 31,
          "name": "G1",
          "ticks": 45384,
          "time": 184.1881275,
          "velocity": 1
        },
        {
          "duration": 0.19480500000000234,
          "durationTicks": 48,
          "midi": 38,
          "name": "D2",
          "ticks": 45480,
          "time": 184.5777375,
          "velocity": 1
        },
        {
          "duration": 0.19480500000000234,
          "durationTicks": 48,
          "midi": 43,
          "name": "G2",
          "ticks": 45480,
          "time": 184.5777375,
          "velocity": 1
        },
        {
          "duration": 0.19480500000000234,
          "durationTicks": 48,
          "midi": 31,
          "name": "G1",
          "ticks": 45480,
          "time": 184.5777375,
          "velocity": 1
        },
        {
          "duration": 0.19480500000000234,
          "durationTicks": 48,
          "midi": 38,
          "name": "D2",
          "ticks": 45528,
          "time": 184.77254250000001,
          "velocity": 1
        },
        {
          "duration": 0.19480500000000234,
          "durationTicks": 48,
          "midi": 43,
          "name": "G2",
          "ticks": 45528,
          "time": 184.77254250000001,
          "velocity": 1
        },
        {
          "duration": 0.19480500000000234,
          "durationTicks": 48,
          "midi": 31,
          "name": "G1",
          "ticks": 45528,
          "time": 184.77254250000001,
          "velocity": 1
        },
        {
          "duration": 0.19480499999997392,
          "durationTicks": 48,
          "midi": 38,
          "name": "D2",
          "ticks": 45624,
          "time": 185.16215250000002,
          "velocity": 1
        },
        {
          "duration": 0.19480499999997392,
          "durationTicks": 48,
          "midi": 43,
          "name": "G2",
          "ticks": 45624,
          "time": 185.16215250000002,
          "velocity": 1
        },
        {
          "duration": 0.19480499999997392,
          "durationTicks": 48,
          "midi": 31,
          "name": "G1",
          "ticks": 45624,
          "time": 185.16215250000002,
          "velocity": 1
        },
        {
          "duration": 0.19480500000000234,
          "durationTicks": 48,
          "midi": 45,
          "name": "A2",
          "ticks": 45720,
          "time": 185.5517625,
          "velocity": 1
        },
        {
          "duration": 0.19480500000000234,
          "durationTicks": 48,
          "midi": 40,
          "name": "E2",
          "ticks": 45720,
          "time": 185.5517625,
          "velocity": 1
        },
        {
          "duration": 0.19480500000000234,
          "durationTicks": 48,
          "midi": 33,
          "name": "A1",
          "ticks": 45720,
          "time": 185.5517625,
          "velocity": 1
        },
        {
          "duration": 0.19480500000000234,
          "durationTicks": 48,
          "midi": 45,
          "name": "A2",
          "ticks": 45816,
          "time": 185.9413725,
          "velocity": 1
        },
        {
          "duration": 0.19480500000000234,
          "durationTicks": 48,
          "midi": 40,
          "name": "E2",
          "ticks": 45816,
          "time": 185.9413725,
          "velocity": 1
        },
        {
          "duration": 0.19480500000000234,
          "durationTicks": 48,
          "midi": 33,
          "name": "A1",
          "ticks": 45816,
          "time": 185.9413725,
          "velocity": 1
        },
        {
          "duration": 0.19480500000000234,
          "durationTicks": 48,
          "midi": 45,
          "name": "A2",
          "ticks": 45864,
          "time": 186.1361775,
          "velocity": 1
        },
        {
          "duration": 0.19480500000000234,
          "durationTicks": 48,
          "midi": 40,
          "name": "E2",
          "ticks": 45864,
          "time": 186.1361775,
          "velocity": 1
        },
        {
          "duration": 0.19480500000000234,
          "durationTicks": 48,
          "midi": 33,
          "name": "A1",
          "ticks": 45864,
          "time": 186.1361775,
          "velocity": 1
        },
        {
          "duration": 0.19480500000000234,
          "durationTicks": 48,
          "midi": 38,
          "name": "D2",
          "ticks": 46104,
          "time": 187.1102025,
          "velocity": 1
        },
        {
          "duration": 0.19480500000000234,
          "durationTicks": 48,
          "midi": 50,
          "name": "D3",
          "ticks": 46104,
          "time": 187.1102025,
          "velocity": 1
        },
        {
          "duration": 0.19480500000000234,
          "durationTicks": 48,
          "midi": 38,
          "name": "D2",
          "ticks": 46176,
          "time": 187.40241,
          "velocity": 1
        },
        {
          "duration": 0.19480500000000234,
          "durationTicks": 48,
          "midi": 50,
          "name": "D3",
          "ticks": 46176,
          "time": 187.40241,
          "velocity": 1
        },
        {
          "duration": 0.19480500000000234,
          "durationTicks": 48,
          "midi": 38,
          "name": "D2",
          "ticks": 46248,
          "time": 187.6946175,
          "velocity": 1
        },
        {
          "duration": 0.19480500000000234,
          "durationTicks": 48,
          "midi": 50,
          "name": "D3",
          "ticks": 46248,
          "time": 187.6946175,
          "velocity": 1
        },
        {
          "duration": 0.584415000000007,
          "durationTicks": 144,
          "midi": 34,
          "name": "A#1",
          "ticks": 46296,
          "time": 187.8894225,
          "velocity": 1
        },
        {
          "duration": 0.584415000000007,
          "durationTicks": 144,
          "midi": 46,
          "name": "A#2",
          "ticks": 46296,
          "time": 187.8894225,
          "velocity": 1
        },
        {
          "duration": 0.19480500000000234,
          "durationTicks": 48,
          "midi": 34,
          "name": "A#1",
          "ticks": 46440,
          "time": 188.4738375,
          "velocity": 1
        },
        {
          "duration": 0.19480500000000234,
          "durationTicks": 48,
          "midi": 46,
          "name": "A#2",
          "ticks": 46440,
          "time": 188.4738375,
          "velocity": 1
        },
        {
          "duration": 0.19480500000000234,
          "durationTicks": 48,
          "midi": 36,
          "name": "C2",
          "ticks": 46488,
          "time": 188.6686425,
          "velocity": 1
        },
        {
          "duration": 0.19480500000000234,
          "durationTicks": 48,
          "midi": 48,
          "name": "C3",
          "ticks": 46488,
          "time": 188.6686425,
          "velocity": 1
        },
        {
          "duration": 0.19480500000000234,
          "durationTicks": 48,
          "midi": 36,
          "name": "C2",
          "ticks": 46584,
          "time": 189.0582525,
          "velocity": 1
        },
        {
          "duration": 0.19480500000000234,
          "durationTicks": 48,
          "midi": 48,
          "name": "C3",
          "ticks": 46584,
          "time": 189.0582525,
          "velocity": 1
        },
        {
          "duration": 0.7792199999999809,
          "durationTicks": 192,
          "midi": 41,
          "name": "F2",
          "ticks": 46680,
          "time": 189.4478625,
          "velocity": 1
        },
        {
          "duration": 0.7792199999999809,
          "durationTicks": 192,
          "midi": 53,
          "name": "F3",
          "ticks": 46680,
          "time": 189.4478625,
          "velocity": 1
        },
        {
          "duration": 0.19480500000000234,
          "durationTicks": 48,
          "midi": 38,
          "name": "D2",
          "ticks": 46872,
          "time": 190.2270825,
          "velocity": 1
        },
        {
          "duration": 0.19480500000000234,
          "durationTicks": 48,
          "midi": 50,
          "name": "D3",
          "ticks": 46872,
          "time": 190.2270825,
          "velocity": 1
        },
        {
          "duration": 0.19480500000000234,
          "durationTicks": 48,
          "midi": 38,
          "name": "D2",
          "ticks": 46944,
          "time": 190.51929,
          "velocity": 1
        },
        {
          "duration": 0.19480500000000234,
          "durationTicks": 48,
          "midi": 50,
          "name": "D3",
          "ticks": 46944,
          "time": 190.51929,
          "velocity": 1
        },
        {
          "duration": 0.19480500000000234,
          "durationTicks": 48,
          "midi": 38,
          "name": "D2",
          "ticks": 47016,
          "time": 190.8114975,
          "velocity": 1
        },
        {
          "duration": 0.19480500000000234,
          "durationTicks": 48,
          "midi": 50,
          "name": "D3",
          "ticks": 47016,
          "time": 190.8114975,
          "velocity": 1
        },
        {
          "duration": 0.584415000000007,
          "durationTicks": 144,
          "midi": 34,
          "name": "A#1",
          "ticks": 47064,
          "time": 191.0063025,
          "velocity": 1
        },
        {
          "duration": 0.584415000000007,
          "durationTicks": 144,
          "midi": 46,
          "name": "A#2",
          "ticks": 47064,
          "time": 191.0063025,
          "velocity": 1
        },
        {
          "duration": 0.19480500000000234,
          "durationTicks": 48,
          "midi": 34,
          "name": "A#1",
          "ticks": 47208,
          "time": 191.5907175,
          "velocity": 1
        },
        {
          "duration": 0.19480500000000234,
          "durationTicks": 48,
          "midi": 46,
          "name": "A#2",
          "ticks": 47208,
          "time": 191.5907175,
          "velocity": 1
        },
        {
          "duration": 0.19480500000000234,
          "durationTicks": 48,
          "midi": 36,
          "name": "C2",
          "ticks": 47256,
          "time": 191.7855225,
          "velocity": 1
        },
        {
          "duration": 0.19480500000000234,
          "durationTicks": 48,
          "midi": 48,
          "name": "C3",
          "ticks": 47256,
          "time": 191.7855225,
          "velocity": 1
        },
        {
          "duration": 0.19480499999997392,
          "durationTicks": 48,
          "midi": 36,
          "name": "C2",
          "ticks": 47352,
          "time": 192.17513250000002,
          "velocity": 1
        },
        {
          "duration": 0.19480499999997392,
          "durationTicks": 48,
          "midi": 48,
          "name": "C3",
          "ticks": 47352,
          "time": 192.17513250000002,
          "velocity": 1
        },
        {
          "duration": 0.7792200000000093,
          "durationTicks": 192,
          "midi": 41,
          "name": "F2",
          "ticks": 47448,
          "time": 192.5647425,
          "velocity": 1
        },
        {
          "duration": 0.7792200000000093,
          "durationTicks": 192,
          "midi": 53,
          "name": "F3",
          "ticks": 47448,
          "time": 192.5647425,
          "velocity": 1
        },
        {
          "duration": 0.19480500000000234,
          "durationTicks": 48,
          "midi": 38,
          "name": "D2",
          "ticks": 47640,
          "time": 193.3439625,
          "velocity": 1
        },
        {
          "duration": 0.19480500000000234,
          "durationTicks": 48,
          "midi": 50,
          "name": "D3",
          "ticks": 47688,
          "time": 193.5387675,
          "velocity": 1
        },
        {
          "duration": 0.19480500000000234,
          "durationTicks": 48,
          "midi": 38,
          "name": "D2",
          "ticks": 47736,
          "time": 193.7335725,
          "velocity": 1
        },
        {
          "duration": 0.19480500000000234,
          "durationTicks": 48,
          "midi": 50,
          "name": "D3",
          "ticks": 47784,
          "time": 193.9283775,
          "velocity": 1
        },
        {
          "duration": 0.19480500000000234,
          "durationTicks": 48,
          "midi": 34,
          "name": "A#1",
          "ticks": 47832,
          "time": 194.1231825,
          "velocity": 1
        },
        {
          "duration": 0.19480500000000234,
          "durationTicks": 48,
          "midi": 46,
          "name": "A#2",
          "ticks": 47880,
          "time": 194.31798750000002,
          "velocity": 1
        },
        {
          "duration": 0.19480500000000234,
          "durationTicks": 48,
          "midi": 34,
          "name": "A#1",
          "ticks": 47928,
          "time": 194.51279250000002,
          "velocity": 1
        },
        {
          "duration": 0.19480499999997392,
          "durationTicks": 48,
          "midi": 46,
          "name": "A#2",
          "ticks": 47976,
          "time": 194.70759750000002,
          "velocity": 1
        },
        {
          "duration": 0.19480500000000234,
          "durationTicks": 48,
          "midi": 36,
          "name": "C2",
          "ticks": 48024,
          "time": 194.9024025,
          "velocity": 1
        },
        {
          "duration": 0.19480500000000234,
          "durationTicks": 48,
          "midi": 48,
          "name": "C3",
          "ticks": 48072,
          "time": 195.0972075,
          "velocity": 1
        },
        {
          "duration": 0.19480500000000234,
          "durationTicks": 48,
          "midi": 36,
          "name": "C2",
          "ticks": 48120,
          "time": 195.2920125,
          "velocity": 1
        },
        {
          "duration": 0.19480500000000234,
          "durationTicks": 48,
          "midi": 48,
          "name": "C3",
          "ticks": 48168,
          "time": 195.4868175,
          "velocity": 1
        },
        {
          "duration": 0.19480500000000234,
          "durationTicks": 48,
          "midi": 41,
          "name": "F2",
          "ticks": 48216,
          "time": 195.6816225,
          "velocity": 1
        },
        {
          "duration": 0.19480500000000234,
          "durationTicks": 48,
          "midi": 53,
          "name": "F3",
          "ticks": 48264,
          "time": 195.8764275,
          "velocity": 1
        },
        {
          "duration": 0.19480500000000234,
          "durationTicks": 48,
          "midi": 41,
          "name": "F2",
          "ticks": 48312,
          "time": 196.0712325,
          "velocity": 1
        },
        {
          "duration": 0.19480500000000234,
          "durationTicks": 48,
          "midi": 53,
          "name": "F3",
          "ticks": 48360,
          "time": 196.2660375,
          "velocity": 1
        },
        {
          "duration": 0.3896100000000047,
          "durationTicks": 96,
          "midi": 46,
          "name": "A#2",
          "ticks": 48408,
          "time": 196.4608425,
          "velocity": 1
        },
        {
          "duration": 0.3896100000000047,
          "durationTicks": 96,
          "midi": 34,
          "name": "A#1",
          "ticks": 48408,
          "time": 196.4608425,
          "velocity": 1
        },
        {
          "duration": 0.3896100000000047,
          "durationTicks": 96,
          "midi": 41,
          "name": "F2",
          "ticks": 48408,
          "time": 196.4608425,
          "velocity": 1
        },
        {
          "duration": 0.38960999999997625,
          "durationTicks": 96,
          "midi": 46,
          "name": "A#2",
          "ticks": 48504,
          "time": 196.85045250000002,
          "velocity": 1
        },
        {
          "duration": 0.38960999999997625,
          "durationTicks": 96,
          "midi": 34,
          "name": "A#1",
          "ticks": 48504,
          "time": 196.85045250000002,
          "velocity": 1
        },
        {
          "duration": 0.38960999999997625,
          "durationTicks": 96,
          "midi": 41,
          "name": "F2",
          "ticks": 48504,
          "time": 196.85045250000002,
          "velocity": 1
        },
        {
          "duration": 0.3896100000000047,
          "durationTicks": 96,
          "midi": 45,
          "name": "A2",
          "ticks": 48600,
          "time": 197.2400625,
          "velocity": 1
        },
        {
          "duration": 0.3896100000000047,
          "durationTicks": 96,
          "midi": 33,
          "name": "A1",
          "ticks": 48600,
          "time": 197.2400625,
          "velocity": 1
        },
        {
          "duration": 0.3896100000000047,
          "durationTicks": 96,
          "midi": 40,
          "name": "E2",
          "ticks": 48600,
          "time": 197.2400625,
          "velocity": 1
        },
        {
          "duration": 0.3896100000000047,
          "durationTicks": 96,
          "midi": 45,
          "name": "A2",
          "ticks": 48696,
          "time": 197.6296725,
          "velocity": 1
        },
        {
          "duration": 0.3896100000000047,
          "durationTicks": 96,
          "midi": 33,
          "name": "A1",
          "ticks": 48696,
          "time": 197.6296725,
          "velocity": 1
        },
        {
          "duration": 0.3896100000000047,
          "durationTicks": 96,
          "midi": 40,
          "name": "E2",
          "ticks": 48696,
          "time": 197.6296725,
          "velocity": 1
        },
        {
          "duration": 0.3896100000000047,
          "durationTicks": 96,
          "midi": 34,
          "name": "A#1",
          "ticks": 48792,
          "time": 198.0192825,
          "velocity": 1
        },
        {
          "duration": 0.3896100000000047,
          "durationTicks": 96,
          "midi": 46,
          "name": "A#2",
          "ticks": 48792,
          "time": 198.0192825,
          "velocity": 1
        },
        {
          "duration": 0.3896100000000047,
          "durationTicks": 96,
          "midi": 41,
          "name": "F2",
          "ticks": 48792,
          "time": 198.0192825,
          "velocity": 1
        },
        {
          "duration": 0.3896100000000047,
          "durationTicks": 96,
          "midi": 36,
          "name": "C2",
          "ticks": 48888,
          "time": 198.4088925,
          "velocity": 1
        },
        {
          "duration": 0.3896100000000047,
          "durationTicks": 96,
          "midi": 48,
          "name": "C3",
          "ticks": 48888,
          "time": 198.4088925,
          "velocity": 1
        },
        {
          "duration": 0.3896100000000047,
          "durationTicks": 96,
          "midi": 43,
          "name": "G2",
          "ticks": 48888,
          "time": 198.4088925,
          "velocity": 1
        },
        {
          "duration": 0.3896100000000047,
          "durationTicks": 96,
          "midi": 50,
          "name": "D3",
          "ticks": 48984,
          "time": 198.7985025,
          "velocity": 1
        },
        {
          "duration": 0.3896100000000047,
          "durationTicks": 96,
          "midi": 38,
          "name": "D2",
          "ticks": 48984,
          "time": 198.7985025,
          "velocity": 1
        },
        {
          "duration": 0.3896100000000047,
          "durationTicks": 96,
          "midi": 45,
          "name": "A2",
          "ticks": 48984,
          "time": 198.7985025,
          "velocity": 1
        },
        {
          "duration": 0.19480500000000234,
          "durationTicks": 48,
          "midi": 38,
          "name": "D2",
          "ticks": 49080,
          "time": 199.18811250000002,
          "velocity": 1
        },
        {
          "duration": 0.19480499999997392,
          "durationTicks": 48,
          "midi": 38,
          "name": "D2",
          "ticks": 49128,
          "time": 199.38291750000002,
          "velocity": 1
        },
        {
          "duration": 0.2922075000000177,
          "durationTicks": 72,
          "midi": 52,
          "name": "E3",
          "ticks": 49176,
          "time": 199.5777225,
          "velocity": 1
        },
        {
          "duration": 0.2922075000000177,
          "durationTicks": 72,
          "midi": 40,
          "name": "E2",
          "ticks": 49176,
          "time": 199.5777225,
          "velocity": 1
        },
        {
          "duration": 0.2922075000000177,
          "durationTicks": 72,
          "midi": 47,
          "name": "B2",
          "ticks": 49176,
          "time": 199.5777225,
          "velocity": 1
        },
        {
          "duration": 0.09740249999998696,
          "durationTicks": 24,
          "midi": 45,
          "name": "A2",
          "ticks": 49248,
          "time": 199.86993,
          "velocity": 1
        },
        {
          "duration": 0.19480500000000234,
          "durationTicks": 48,
          "midi": 52,
          "name": "E3",
          "ticks": 49272,
          "time": 199.9673325,
          "velocity": 1
        },
        {
          "duration": 0.19480500000000234,
          "durationTicks": 48,
          "midi": 50,
          "name": "D3",
          "ticks": 49320,
          "time": 200.1621375,
          "velocity": 1
        },
        {
          "duration": 0.19480500000000234,
          "durationTicks": 48,
          "midi": 55,
          "name": "G3",
          "ticks": 49320,
          "time": 200.1621375,
          "velocity": 1
        },
        {
          "duration": 0.19480500000000234,
          "durationTicks": 48,
          "midi": 48,
          "name": "C3",
          "ticks": 49368,
          "time": 200.3569425,
          "velocity": 1
        },
        {
          "duration": 0.19480500000000234,
          "durationTicks": 48,
          "midi": 55,
          "name": "G3",
          "ticks": 49368,
          "time": 200.3569425,
          "velocity": 1
        },
        {
          "duration": 0.09740250000001538,
          "durationTicks": 24,
          "midi": 48,
          "name": "C3",
          "ticks": 49416,
          "time": 200.5517475,
          "velocity": 1
        },
        {
          "duration": 0.09740249999998696,
          "durationTicks": 24,
          "midi": 43,
          "name": "G2",
          "ticks": 49440,
          "time": 200.64915000000002,
          "velocity": 1
        },
        {
          "duration": 0.19480500000000234,
          "durationTicks": 48,
          "midi": 36,
          "name": "C2",
          "ticks": 49464,
          "time": 200.7465525,
          "velocity": 1
        },
        {
          "duration": 0.19480500000000234,
          "durationTicks": 48,
          "midi": 43,
          "name": "G2",
          "ticks": 49512,
          "time": 200.9413575,
          "velocity": 1
        },
        {
          "duration": 0.19480500000000234,
          "durationTicks": 48,
          "midi": 48,
          "name": "C3",
          "ticks": 49512,
          "time": 200.9413575,
          "velocity": 1
        },
        {
          "duration": 0.2922074999999893,
          "durationTicks": 72,
          "midi": 50,
          "name": "D3",
          "ticks": 49560,
          "time": 201.1361625,
          "velocity": 1
        },
        {
          "duration": 0.2922074999999893,
          "durationTicks": 72,
          "midi": 38,
          "name": "D2",
          "ticks": 49560,
          "time": 201.1361625,
          "velocity": 1
        },
        {
          "duration": 0.2922074999999893,
          "durationTicks": 72,
          "midi": 45,
          "name": "A2",
          "ticks": 49560,
          "time": 201.1361625,
          "velocity": 1
        },
        {
          "duration": 0.09740250000001538,
          "durationTicks": 24,
          "midi": 43,
          "name": "G2",
          "ticks": 49632,
          "time": 201.42837,
          "velocity": 1
        },
        {
          "duration": 0.19480500000000234,
          "durationTicks": 48,
          "midi": 50,
          "name": "D3",
          "ticks": 49656,
          "time": 201.52577250000002,
          "velocity": 1
        },
        {
          "duration": 0.19480499999997392,
          "durationTicks": 48,
          "midi": 50,
          "name": "D3",
          "ticks": 49704,
          "time": 201.72057750000002,
          "velocity": 1
        },
        {
          "duration": 0.19480499999997392,
          "durationTicks": 48,
          "midi": 55,
          "name": "G3",
          "ticks": 49704,
          "time": 201.72057750000002,
          "velocity": 1
        },
        {
          "duration": 0.2922075000000177,
          "durationTicks": 72,
          "midi": 55,
          "name": "G3",
          "ticks": 49752,
          "time": 201.9153825,
          "velocity": 1
        },
        {
          "duration": 0.2922075000000177,
          "durationTicks": 72,
          "midi": 43,
          "name": "G2",
          "ticks": 49752,
          "time": 201.9153825,
          "velocity": 1
        },
        {
          "duration": 0.2922075000000177,
          "durationTicks": 72,
          "midi": 50,
          "name": "D3",
          "ticks": 49752,
          "time": 201.9153825,
          "velocity": 1
        },
        {
          "duration": 0.09740249999998696,
          "durationTicks": 24,
          "midi": 43,
          "name": "G2",
          "ticks": 49824,
          "time": 202.20759,
          "velocity": 1
        },
        {
          "duration": 0.19480500000000234,
          "durationTicks": 48,
          "midi": 43,
          "name": "G2",
          "ticks": 49848,
          "time": 202.3049925,
          "velocity": 1
        },
        {
          "duration": 0.19480500000000234,
          "durationTicks": 48,
          "midi": 55,
          "name": "G3",
          "ticks": 49896,
          "time": 202.4997975,
          "velocity": 1
        },
        {
          "duration": 0.19480500000000234,
          "durationTicks": 48,
          "midi": 48,
          "name": "C3",
          "ticks": 49896,
          "time": 202.4997975,
          "velocity": 1
        },
        {
          "duration": 0.2922075000000177,
          "durationTicks": 72,
          "midi": 52,
          "name": "E3",
          "ticks": 49944,
          "time": 202.6946025,
          "velocity": 1
        },
        {
          "duration": 0.2922075000000177,
          "durationTicks": 72,
          "midi": 40,
          "name": "E2",
          "ticks": 49944,
          "time": 202.6946025,
          "velocity": 1
        },
        {
          "duration": 0.2922075000000177,
          "durationTicks": 72,
          "midi": 47,
          "name": "B2",
          "ticks": 49944,
          "time": 202.6946025,
          "velocity": 1
        },
        {
          "duration": 0.09740249999998696,
          "durationTicks": 24,
          "midi": 45,
          "name": "A2",
          "ticks": 50016,
          "time": 202.98681000000002,
          "velocity": 1
        },
        {
          "duration": 0.19480500000000234,
          "durationTicks": 48,
          "midi": 52,
          "name": "E3",
          "ticks": 50040,
          "time": 203.0842125,
          "velocity": 1
        },
        {
          "duration": 0.19480500000000234,
          "durationTicks": 48,
          "midi": 50,
          "name": "D3",
          "ticks": 50088,
          "time": 203.2790175,
          "velocity": 1
        },
        {
          "duration": 0.19480500000000234,
          "durationTicks": 48,
          "midi": 55,
          "name": "G3",
          "ticks": 50088,
          "time": 203.2790175,
          "velocity": 1
        },
        {
          "duration": 0.19480500000000234,
          "durationTicks": 48,
          "midi": 48,
          "name": "C3",
          "ticks": 50136,
          "time": 203.4738225,
          "velocity": 1
        },
        {
          "duration": 0.19480500000000234,
          "durationTicks": 48,
          "midi": 55,
          "name": "G3",
          "ticks": 50136,
          "time": 203.4738225,
          "velocity": 1
        },
        {
          "duration": 0.09740249999998696,
          "durationTicks": 24,
          "midi": 48,
          "name": "C3",
          "ticks": 50184,
          "time": 203.6686275,
          "velocity": 1
        },
        {
          "duration": 0.09740250000001538,
          "durationTicks": 24,
          "midi": 43,
          "name": "G2",
          "ticks": 50208,
          "time": 203.76603,
          "velocity": 1
        },
        {
          "duration": 0.19480500000000234,
          "durationTicks": 48,
          "midi": 36,
          "name": "C2",
          "ticks": 50232,
          "time": 203.86343250000002,
          "velocity": 1
        },
        {
          "duration": 0.19480499999997392,
          "durationTicks": 48,
          "midi": 43,
          "name": "G2",
          "ticks": 50280,
          "time": 204.05823750000002,
          "velocity": 1
        },
        {
          "duration": 0.19480499999997392,
          "durationTicks": 48,
          "midi": 48,
          "name": "C3",
          "ticks": 50280,
          "time": 204.05823750000002,
          "velocity": 1
        },
        {
          "duration": 0.2922075000000177,
          "durationTicks": 72,
          "midi": 50,
          "name": "D3",
          "ticks": 50328,
          "time": 204.2530425,
          "velocity": 1
        },
        {
          "duration": 0.2922075000000177,
          "durationTicks": 72,
          "midi": 38,
          "name": "D2",
          "ticks": 50328,
          "time": 204.2530425,
          "velocity": 1
        },
        {
          "duration": 0.2922075000000177,
          "durationTicks": 72,
          "midi": 45,
          "name": "A2",
          "ticks": 50328,
          "time": 204.2530425,
          "velocity": 1
        },
        {
          "duration": 0.09740249999998696,
          "durationTicks": 24,
          "midi": 43,
          "name": "G2",
          "ticks": 50400,
          "time": 204.54525,
          "velocity": 1
        },
        {
          "duration": 0.19480500000000234,
          "durationTicks": 48,
          "midi": 50,
          "name": "D3",
          "ticks": 50424,
          "time": 204.6426525,
          "velocity": 1
        },
        {
          "duration": 0.19480500000000234,
          "durationTicks": 48,
          "midi": 50,
          "name": "D3",
          "ticks": 50472,
          "time": 204.8374575,
          "velocity": 1
        },
        {
          "duration": 0.19480500000000234,
          "durationTicks": 48,
          "midi": 55,
          "name": "G3",
          "ticks": 50472,
          "time": 204.8374575,
          "velocity": 1
        },
        {
          "duration": 0.2922075000000177,
          "durationTicks": 72,
          "midi": 55,
          "name": "G3",
          "ticks": 50520,
          "time": 205.0322625,
          "velocity": 1
        },
        {
          "duration": 0.2922075000000177,
          "durationTicks": 72,
          "midi": 43,
          "name": "G2",
          "ticks": 50520,
          "time": 205.0322625,
          "velocity": 1
        },
        {
          "duration": 0.2922075000000177,
          "durationTicks": 72,
          "midi": 50,
          "name": "D3",
          "ticks": 50520,
          "time": 205.0322625,
          "velocity": 1
        },
        {
          "duration": 0.09740249999998696,
          "durationTicks": 24,
          "midi": 43,
          "name": "G2",
          "ticks": 50592,
          "time": 205.32447000000002,
          "velocity": 1
        },
        {
          "duration": 0.19480500000000234,
          "durationTicks": 48,
          "midi": 43,
          "name": "G2",
          "ticks": 50616,
          "time": 205.4218725,
          "velocity": 1
        },
        {
          "duration": 0.19480500000000234,
          "durationTicks": 48,
          "midi": 55,
          "name": "G3",
          "ticks": 50664,
          "time": 205.6166775,
          "velocity": 1
        },
        {
          "duration": 0.19480500000000234,
          "durationTicks": 48,
          "midi": 48,
          "name": "C3",
          "ticks": 50664,
          "time": 205.6166775,
          "velocity": 1
        },
        {
          "duration": 0.2922074999999893,
          "durationTicks": 72,
          "midi": 52,
          "name": "E3",
          "ticks": 50712,
          "time": 205.8114825,
          "velocity": 1
        },
        {
          "duration": 0.2922074999999893,
          "durationTicks": 72,
          "midi": 40,
          "name": "E2",
          "ticks": 50712,
          "time": 205.8114825,
          "velocity": 1
        },
        {
          "duration": 0.2922074999999893,
          "durationTicks": 72,
          "midi": 47,
          "name": "B2",
          "ticks": 50712,
          "time": 205.8114825,
          "velocity": 1
        },
        {
          "duration": 0.09740250000001538,
          "durationTicks": 24,
          "midi": 45,
          "name": "A2",
          "ticks": 50784,
          "time": 206.10369,
          "velocity": 1
        },
        {
          "duration": 0.19480500000000234,
          "durationTicks": 48,
          "midi": 52,
          "name": "E3",
          "ticks": 50808,
          "time": 206.20109250000002,
          "velocity": 1
        },
        {
          "duration": 0.19480500000000234,
          "durationTicks": 48,
          "midi": 50,
          "name": "D3",
          "ticks": 50856,
          "time": 206.39589750000002,
          "velocity": 1
        },
        {
          "duration": 0.19480500000000234,
          "durationTicks": 48,
          "midi": 55,
          "name": "G3",
          "ticks": 50856,
          "time": 206.39589750000002,
          "velocity": 1
        },
        {
          "duration": 0.19480499999997392,
          "durationTicks": 48,
          "midi": 48,
          "name": "C3",
          "ticks": 50904,
          "time": 206.59070250000002,
          "velocity": 1
        },
        {
          "duration": 0.19480499999997392,
          "durationTicks": 48,
          "midi": 55,
          "name": "G3",
          "ticks": 50904,
          "time": 206.59070250000002,
          "velocity": 1
        },
        {
          "duration": 0.09740250000001538,
          "durationTicks": 24,
          "midi": 48,
          "name": "C3",
          "ticks": 50952,
          "time": 206.7855075,
          "velocity": 1
        },
        {
          "duration": 0.09740249999998696,
          "durationTicks": 24,
          "midi": 43,
          "name": "G2",
          "ticks": 50976,
          "time": 206.88291,
          "velocity": 1
        },
        {
          "duration": 0.19480500000000234,
          "durationTicks": 48,
          "midi": 36,
          "name": "C2",
          "ticks": 51000,
          "time": 206.9803125,
          "velocity": 1
        },
        {
          "duration": 0.19480500000000234,
          "durationTicks": 48,
          "midi": 43,
          "name": "G2",
          "ticks": 51048,
          "time": 207.1751175,
          "velocity": 1
        },
        {
          "duration": 0.19480500000000234,
          "durationTicks": 48,
          "midi": 48,
          "name": "C3",
          "ticks": 51048,
          "time": 207.1751175,
          "velocity": 1
        },
        {
          "duration": 0.2922075000000177,
          "durationTicks": 72,
          "midi": 50,
          "name": "D3",
          "ticks": 51096,
          "time": 207.3699225,
          "velocity": 1
        },
        {
          "duration": 0.2922075000000177,
          "durationTicks": 72,
          "midi": 38,
          "name": "D2",
          "ticks": 51096,
          "time": 207.3699225,
          "velocity": 1
        },
        {
          "duration": 0.2922075000000177,
          "durationTicks": 72,
          "midi": 45,
          "name": "A2",
          "ticks": 51096,
          "time": 207.3699225,
          "velocity": 1
        },
        {
          "duration": 0.09740249999998696,
          "durationTicks": 24,
          "midi": 43,
          "name": "G2",
          "ticks": 51168,
          "time": 207.66213000000002,
          "velocity": 1
        },
        {
          "duration": 0.19480500000000234,
          "durationTicks": 48,
          "midi": 50,
          "name": "D3",
          "ticks": 51192,
          "time": 207.7595325,
          "velocity": 1
        },
        {
          "duration": 0.19480500000000234,
          "durationTicks": 48,
          "midi": 50,
          "name": "D3",
          "ticks": 51240,
          "time": 207.9543375,
          "velocity": 1
        },
        {
          "duration": 0.19480500000000234,
          "durationTicks": 48,
          "midi": 55,
          "name": "G3",
          "ticks": 51240,
          "time": 207.9543375,
          "velocity": 1
        },
        {
          "duration": 0.2922074999999893,
          "durationTicks": 72,
          "midi": 55,
          "name": "G3",
          "ticks": 51288,
          "time": 208.1491425,
          "velocity": 1
        },
        {
          "duration": 0.2922074999999893,
          "durationTicks": 72,
          "midi": 43,
          "name": "G2",
          "ticks": 51288,
          "time": 208.1491425,
          "velocity": 1
        },
        {
          "duration": 0.2922074999999893,
          "durationTicks": 72,
          "midi": 50,
          "name": "D3",
          "ticks": 51288,
          "time": 208.1491425,
          "velocity": 1
        },
        {
          "duration": 0.09740250000001538,
          "durationTicks": 24,
          "midi": 43,
          "name": "G2",
          "ticks": 51360,
          "time": 208.44135,
          "velocity": 1
        },
        {
          "duration": 0.19480500000000234,
          "durationTicks": 48,
          "midi": 43,
          "name": "G2",
          "ticks": 51384,
          "time": 208.53875250000002,
          "velocity": 1
        },
        {
          "duration": 0.19480500000000234,
          "durationTicks": 48,
          "midi": 55,
          "name": "G3",
          "ticks": 51432,
          "time": 208.73355750000002,
          "velocity": 1
        },
        {
          "duration": 0.19480500000000234,
          "durationTicks": 48,
          "midi": 48,
          "name": "C3",
          "ticks": 51432,
          "time": 208.73355750000002,
          "velocity": 1
        },
        {
          "duration": 0.2922074999999893,
          "durationTicks": 72,
          "midi": 48,
          "name": "C3",
          "ticks": 51480,
          "time": 208.92836250000002,
          "velocity": 1
        },
        {
          "duration": 0.2922074999999893,
          "durationTicks": 72,
          "midi": 36,
          "name": "C2",
          "ticks": 51480,
          "time": 208.92836250000002,
          "velocity": 1
        },
        {
          "duration": 0.2922074999999893,
          "durationTicks": 72,
          "midi": 43,
          "name": "G2",
          "ticks": 51480,
          "time": 208.92836250000002,
          "velocity": 1
        },
        {
          "duration": 0.09740249999998696,
          "durationTicks": 24,
          "midi": 41,
          "name": "F2",
          "ticks": 51552,
          "time": 209.22057,
          "velocity": 1
        },
        {
          "duration": 0.19480500000000234,
          "durationTicks": 48,
          "midi": 36,
          "name": "C2",
          "ticks": 51576,
          "time": 209.3179725,
          "velocity": 1
        },
        {
          "duration": 0.19480500000000234,
          "durationTicks": 48,
          "midi": 48,
          "name": "C3",
          "ticks": 51624,
          "time": 209.5127775,
          "velocity": 1
        },
        {
          "duration": 0.19480500000000234,
          "durationTicks": 48,
          "midi": 41,
          "name": "F2",
          "ticks": 51624,
          "time": 209.5127775,
          "velocity": 1
        },
        {
          "duration": 0.2922075000000177,
          "durationTicks": 72,
          "midi": 47,
          "name": "B2",
          "ticks": 51672,
          "time": 209.7075825,
          "velocity": 1
        },
        {
          "duration": 0.2922075000000177,
          "durationTicks": 72,
          "midi": 35,
          "name": "B1",
          "ticks": 51672,
          "time": 209.7075825,
          "velocity": 1
        },
        {
          "duration": 0.2922075000000177,
          "durationTicks": 72,
          "midi": 42,
          "name": "F#2",
          "ticks": 51672,
          "time": 209.7075825,
          "velocity": 1
        },
        {
          "duration": 0.09740249999998696,
          "durationTicks": 24,
          "midi": 42,
          "name": "F#2",
          "ticks": 51744,
          "time": 209.99979000000002,
          "velocity": 1
        },
        {
          "duration": 0.19480500000000234,
          "durationTicks": 48,
          "midi": 35,
          "name": "B1",
          "ticks": 51768,
          "time": 210.0971925,
          "velocity": 1
        },
        {
          "duration": 0.19480500000000234,
          "durationTicks": 48,
          "midi": 42,
          "name": "F#2",
          "ticks": 51816,
          "time": 210.2919975,
          "velocity": 1
        },
        {
          "duration": 0.19480500000000234,
          "durationTicks": 48,
          "midi": 47,
          "name": "B2",
          "ticks": 51816,
          "time": 210.2919975,
          "velocity": 1
        },
        {
          "duration": 0.2922074999999893,
          "durationTicks": 72,
          "midi": 43,
          "name": "G2",
          "ticks": 51864,
          "time": 210.4868025,
          "velocity": 1
        },
        {
          "duration": 0.2922074999999893,
          "durationTicks": 72,
          "midi": 48,
          "name": "C3",
          "ticks": 51864,
          "time": 210.4868025,
          "velocity": 1
        },
        {
          "duration": 0.3896100000000047,
          "durationTicks": 96,
          "midi": 36,
          "name": "C2",
          "ticks": 51864,
          "time": 210.4868025,
          "velocity": 1
        },
        {
          "duration": 0.09740250000001538,
          "durationTicks": 24,
          "midi": 43,
          "name": "G2",
          "ticks": 51936,
          "time": 210.77901,
          "velocity": 1
        },
        {
          "duration": 0.09740250000001538,
          "durationTicks": 24,
          "midi": 48,
          "name": "C3",
          "ticks": 51936,
          "time": 210.77901,
          "velocity": 1
        },
        {
          "duration": 0.2922074999999893,
          "durationTicks": 72,
          "midi": 45,
          "name": "A2",
          "ticks": 51960,
          "time": 210.87641250000001,
          "velocity": 1
        },
        {
          "duration": 0.2922074999999893,
          "durationTicks": 72,
          "midi": 50,
          "name": "D3",
          "ticks": 51960,
          "time": 210.87641250000001,
          "velocity": 1
        },
        {
          "duration": 0.3896100000000047,
          "durationTicks": 96,
          "midi": 38,
          "name": "D2",
          "ticks": 51960,
          "time": 210.87641250000001,
          "velocity": 1
        },
        {
          "duration": 0.09740250000001538,
          "durationTicks": 24,
          "midi": 45,
          "name": "A2",
          "ticks": 52032,
          "time": 211.16862,
          "velocity": 1
        },
        {
          "duration": 0.09740250000001538,
          "durationTicks": 24,
          "midi": 50,
          "name": "D3",
          "ticks": 52032,
          "time": 211.16862,
          "velocity": 1
        },
        {
          "duration": 0.38960999999997625,
          "durationTicks": 96,
          "midi": 47,
          "name": "B2",
          "ticks": 52056,
          "time": 211.26602250000002,
          "velocity": 1
        },
        {
          "duration": 0.38960999999997625,
          "durationTicks": 96,
          "midi": 52,
          "name": "E3",
          "ticks": 52056,
          "time": 211.26602250000002,
          "velocity": 1
        },
        {
          "duration": 0.38960999999997625,
          "durationTicks": 96,
          "midi": 40,
          "name": "E2",
          "ticks": 52056,
          "time": 211.26602250000002,
          "velocity": 1
        },
        {
          "duration": 0.19480500000000234,
          "durationTicks": 48,
          "midi": 47,
          "name": "B2",
          "ticks": 52152,
          "time": 211.6556325,
          "velocity": 1
        },
        {
          "duration": 0.19480500000000234,
          "durationTicks": 48,
          "midi": 52,
          "name": "E3",
          "ticks": 52152,
          "time": 211.6556325,
          "velocity": 1
        },
        {
          "duration": 0.19480500000000234,
          "durationTicks": 48,
          "midi": 40,
          "name": "E2",
          "ticks": 52152,
          "time": 211.6556325,
          "velocity": 1
        },
        {
          "duration": 0.19480500000000234,
          "durationTicks": 48,
          "midi": 47,
          "name": "B2",
          "ticks": 52200,
          "time": 211.8504375,
          "velocity": 1
        },
        {
          "duration": 0.19480500000000234,
          "durationTicks": 48,
          "midi": 52,
          "name": "E3",
          "ticks": 52200,
          "time": 211.8504375,
          "velocity": 1
        },
        {
          "duration": 0.19480500000000234,
          "durationTicks": 48,
          "midi": 40,
          "name": "E2",
          "ticks": 52200,
          "time": 211.8504375,
          "velocity": 1
        },
        {
          "duration": 0.19480500000000234,
          "durationTicks": 48,
          "midi": 36,
          "name": "C2",
          "ticks": 52248,
          "time": 212.0452425,
          "velocity": 1
        },
        {
          "duration": 0.19480500000000234,
          "durationTicks": 48,
          "midi": 43,
          "name": "G2",
          "ticks": 52296,
          "time": 212.2400475,
          "velocity": 1
        },
        {
          "duration": 0.19480500000000234,
          "durationTicks": 48,
          "midi": 48,
          "name": "C3",
          "ticks": 52296,
          "time": 212.2400475,
          "velocity": 1
        },
        {
          "duration": 0.19480500000000234,
          "durationTicks": 48,
          "midi": 36,
          "name": "C2",
          "ticks": 52344,
          "time": 212.4348525,
          "velocity": 1
        },
        {
          "duration": 0.19480499999997392,
          "durationTicks": 48,
          "midi": 43,
          "name": "G2",
          "ticks": 52368,
          "time": 212.53225500000002,
          "velocity": 1
        },
        {
          "duration": 0.19480500000000234,
          "durationTicks": 48,
          "midi": 48,
          "name": "C3",
          "ticks": 52392,
          "time": 212.6296575,
          "velocity": 1
        },
        {
          "duration": 0.19480500000000234,
          "durationTicks": 48,
          "midi": 38,
          "name": "D2",
          "ticks": 52440,
          "time": 212.8244625,
          "velocity": 1
        },
        {
          "duration": 0.19480500000000234,
          "durationTicks": 48,
          "midi": 45,
          "name": "A2",
          "ticks": 52488,
          "time": 213.0192675,
          "velocity": 1
        },
        {
          "duration": 0.19480500000000234,
          "durationTicks": 48,
          "midi": 50,
          "name": "D3",
          "ticks": 52488,
          "time": 213.0192675,
          "velocity": 1
        },
        {
          "duration": 0.19480500000000234,
          "durationTicks": 48,
          "midi": 38,
          "name": "D2",
          "ticks": 52536,
          "time": 213.21407250000001,
          "velocity": 1
        },
        {
          "duration": 0.19480500000000234,
          "durationTicks": 48,
          "midi": 45,
          "name": "A2",
          "ticks": 52560,
          "time": 213.311475,
          "velocity": 1
        },
        {
          "duration": 0.19480500000000234,
          "durationTicks": 48,
          "midi": 50,
          "name": "D3",
          "ticks": 52584,
          "time": 213.40887750000002,
          "velocity": 1
        },
        {
          "duration": 0.19480499999997392,
          "durationTicks": 48,
          "midi": 40,
          "name": "E2",
          "ticks": 52632,
          "time": 213.60368250000002,
          "velocity": 1
        },
        {
          "duration": 0.19480500000000234,
          "durationTicks": 48,
          "midi": 52,
          "name": "E3",
          "ticks": 52680,
          "time": 213.7984875,
          "velocity": 1
        },
        {
          "duration": 0.19480500000000234,
          "durationTicks": 48,
          "midi": 47,
          "name": "B2",
          "ticks": 52680,
          "time": 213.7984875,
          "velocity": 1
        },
        {
          "duration": 0.19480500000000234,
          "durationTicks": 48,
          "midi": 40,
          "name": "E2",
          "ticks": 52728,
          "time": 213.9932925,
          "velocity": 1
        },
        {
          "duration": 0.19480500000000234,
          "durationTicks": 48,
          "midi": 47,
          "name": "B2",
          "ticks": 52776,
          "time": 214.1880975,
          "velocity": 1
        },
        {
          "duration": 0.19480500000000234,
          "durationTicks": 48,
          "midi": 52,
          "name": "E3",
          "ticks": 52776,
          "time": 214.1880975,
          "velocity": 1
        },
        {
          "duration": 0.19480500000000234,
          "durationTicks": 48,
          "midi": 43,
          "name": "G2",
          "ticks": 52824,
          "time": 214.3829025,
          "velocity": 1
        },
        {
          "duration": 0.19480500000000234,
          "durationTicks": 48,
          "midi": 50,
          "name": "D3",
          "ticks": 52872,
          "time": 214.5777075,
          "velocity": 1
        },
        {
          "duration": 0.19480500000000234,
          "durationTicks": 48,
          "midi": 55,
          "name": "G3",
          "ticks": 52872,
          "time": 214.5777075,
          "velocity": 1
        },
        {
          "duration": 0.09740250000001538,
          "durationTicks": 24,
          "midi": 43,
          "name": "G2",
          "ticks": 52920,
          "time": 214.7725125,
          "velocity": 1
        },
        {
          "duration": 0.09740249999998696,
          "durationTicks": 24,
          "midi": 55,
          "name": "G3",
          "ticks": 52944,
          "time": 214.86991500000002,
          "velocity": 1
        },
        {
          "duration": 0.09740249999998696,
          "durationTicks": 24,
          "midi": 43,
          "name": "G2",
          "ticks": 52968,
          "time": 214.9673175,
          "velocity": 1
        },
        {
          "duration": 0.09740250000001538,
          "durationTicks": 24,
          "midi": 55,
          "name": "G3",
          "ticks": 52992,
          "time": 215.06472,
          "velocity": 1
        },
        {
          "duration": 0.19480500000000234,
          "durationTicks": 48,
          "midi": 36,
          "name": "C2",
          "ticks": 53016,
          "time": 215.1621225,
          "velocity": 1
        },
        {
          "duration": 0.19480500000000234,
          "durationTicks": 48,
          "midi": 43,
          "name": "G2",
          "ticks": 53064,
          "time": 215.3569275,
          "velocity": 1
        },
        {
          "duration": 0.19480500000000234,
          "durationTicks": 48,
          "midi": 48,
          "name": "C3",
          "ticks": 53064,
          "time": 215.3569275,
          "velocity": 1
        },
        {
          "duration": 0.19480500000000234,
          "durationTicks": 48,
          "midi": 36,
          "name": "C2",
          "ticks": 53112,
          "time": 215.5517325,
          "velocity": 1
        },
        {
          "duration": 0.19480500000000234,
          "durationTicks": 48,
          "midi": 43,
          "name": "G2",
          "ticks": 53136,
          "time": 215.649135,
          "velocity": 1
        },
        {
          "duration": 0.19480500000000234,
          "durationTicks": 48,
          "midi": 48,
          "name": "C3",
          "ticks": 53160,
          "time": 215.74653750000002,
          "velocity": 1
        },
        {
          "duration": 0.19480499999997392,
          "durationTicks": 48,
          "midi": 38,
          "name": "D2",
          "ticks": 53208,
          "time": 215.94134250000002,
          "velocity": 1
        },
        {
          "duration": 0.19480500000000234,
          "durationTicks": 48,
          "midi": 45,
          "name": "A2",
          "ticks": 53256,
          "time": 216.1361475,
          "velocity": 1
        },
        {
          "duration": 0.19480500000000234,
          "durationTicks": 48,
          "midi": 50,
          "name": "D3",
          "ticks": 53256,
          "time": 216.1361475,
          "velocity": 1
        },
        {
          "duration": 0.19480500000000234,
          "durationTicks": 48,
          "midi": 38,
          "name": "D2",
          "ticks": 53304,
          "time": 216.3309525,
          "velocity": 1
        },
        {
          "duration": 0.19480500000000234,
          "durationTicks": 48,
          "midi": 45,
          "name": "A2",
          "ticks": 53328,
          "time": 216.428355,
          "velocity": 1
        },
        {
          "duration": 0.19480500000000234,
          "durationTicks": 48,
          "midi": 50,
          "name": "D3",
          "ticks": 53352,
          "time": 216.5257575,
          "velocity": 1
        },
        {
          "duration": 0.19480500000000234,
          "durationTicks": 48,
          "midi": 40,
          "name": "E2",
          "ticks": 53400,
          "time": 216.7205625,
          "velocity": 1
        },
        {
          "duration": 0.19480500000000234,
          "durationTicks": 48,
          "midi": 52,
          "name": "E3",
          "ticks": 53448,
          "time": 216.9153675,
          "velocity": 1
        },
        {
          "duration": 0.19480500000000234,
          "durationTicks": 48,
          "midi": 47,
          "name": "B2",
          "ticks": 53448,
          "time": 216.9153675,
          "velocity": 1
        },
        {
          "duration": 0.19480500000000234,
          "durationTicks": 48,
          "midi": 43,
          "name": "G2",
          "ticks": 53496,
          "time": 217.1101725,
          "velocity": 1
        },
        {
          "duration": 0.19480500000000234,
          "durationTicks": 48,
          "midi": 50,
          "name": "D3",
          "ticks": 53544,
          "time": 217.3049775,
          "velocity": 1
        },
        {
          "duration": 0.19480500000000234,
          "durationTicks": 48,
          "midi": 55,
          "name": "G3",
          "ticks": 53544,
          "time": 217.3049775,
          "velocity": 1
        },
        {
          "duration": 0.19480500000000234,
          "durationTicks": 48,
          "midi": 45,
          "name": "A2",
          "ticks": 53592,
          "time": 217.4997825,
          "velocity": 1
        },
        {
          "duration": 0.19480500000000234,
          "durationTicks": 48,
          "midi": 52,
          "name": "E3",
          "ticks": 53640,
          "time": 217.6945875,
          "velocity": 1
        },
        {
          "duration": 0.19480500000000234,
          "durationTicks": 48,
          "midi": 57,
          "name": "A3",
          "ticks": 53640,
          "time": 217.6945875,
          "velocity": 1
        },
        {
          "duration": 0.09740249999998696,
          "durationTicks": 24,
          "midi": 47,
          "name": "B2",
          "ticks": 53688,
          "time": 217.8893925,
          "velocity": 1
        },
        {
          "duration": 0.09740250000001538,
          "durationTicks": 24,
          "midi": 59,
          "name": "B3",
          "ticks": 53712,
          "time": 217.986795,
          "velocity": 1
        },
        {
          "duration": 0.09740249999998696,
          "durationTicks": 24,
          "midi": 47,
          "name": "B2",
          "ticks": 53736,
          "time": 218.08419750000002,
          "velocity": 1
        },
        {
          "duration": 0.09740250000001538,
          "durationTicks": 24,
          "midi": 59,
          "name": "B3",
          "ticks": 53760,
          "time": 218.1816,
          "velocity": 1
        },
        {
          "duration": 0.19480500000000234,
          "durationTicks": 48,
          "midi": 36,
          "name": "C2",
          "ticks": 53784,
          "time": 218.27900250000002,
          "velocity": 1
        },
        {
          "duration": 0.19480499999997392,
          "durationTicks": 48,
          "midi": 43,
          "name": "G2",
          "ticks": 53832,
          "time": 218.47380750000002,
          "velocity": 1
        },
        {
          "duration": 0.19480499999997392,
          "durationTicks": 48,
          "midi": 48,
          "name": "C3",
          "ticks": 53832,
          "time": 218.47380750000002,
          "velocity": 1
        },
        {
          "duration": 0.19480500000000234,
          "durationTicks": 48,
          "midi": 36,
          "name": "C2",
          "ticks": 53880,
          "time": 218.6686125,
          "velocity": 1
        },
        {
          "duration": 0.19480500000000234,
          "durationTicks": 48,
          "midi": 43,
          "name": "G2",
          "ticks": 53904,
          "time": 218.766015,
          "velocity": 1
        },
        {
          "duration": 0.19480500000000234,
          "durationTicks": 48,
          "midi": 48,
          "name": "C3",
          "ticks": 53928,
          "time": 218.8634175,
          "velocity": 1
        },
        {
          "duration": 0.19480500000000234,
          "durationTicks": 48,
          "midi": 38,
          "name": "D2",
          "ticks": 53976,
          "time": 219.0582225,
          "velocity": 1
        },
        {
          "duration": 0.19480500000000234,
          "durationTicks": 48,
          "midi": 45,
          "name": "A2",
          "ticks": 54024,
          "time": 219.2530275,
          "velocity": 1
        },
        {
          "duration": 0.19480500000000234,
          "durationTicks": 48,
          "midi": 50,
          "name": "D3",
          "ticks": 54024,
          "time": 219.2530275,
          "velocity": 1
        },
        {
          "duration": 0.19480500000000234,
          "durationTicks": 48,
          "midi": 38,
          "name": "D2",
          "ticks": 54072,
          "time": 219.4478325,
          "velocity": 1
        },
        {
          "duration": 0.19480499999997392,
          "durationTicks": 48,
          "midi": 45,
          "name": "A2",
          "ticks": 54096,
          "time": 219.54523500000002,
          "velocity": 1
        },
        {
          "duration": 0.19480500000000234,
          "durationTicks": 48,
          "midi": 50,
          "name": "D3",
          "ticks": 54120,
          "time": 219.6426375,
          "velocity": 1
        },
        {
          "duration": 0.19480500000000234,
          "durationTicks": 48,
          "midi": 40,
          "name": "E2",
          "ticks": 54168,
          "time": 219.8374425,
          "velocity": 1
        },
        {
          "duration": 0.19480500000000234,
          "durationTicks": 48,
          "midi": 52,
          "name": "E3",
          "ticks": 54216,
          "time": 220.0322475,
          "velocity": 1
        },
        {
          "duration": 0.19480500000000234,
          "durationTicks": 48,
          "midi": 47,
          "name": "B2",
          "ticks": 54216,
          "time": 220.0322475,
          "velocity": 1
        },
        {
          "duration": 0.19480500000000234,
          "durationTicks": 48,
          "midi": 40,
          "name": "E2",
          "ticks": 54264,
          "time": 220.2270525,
          "velocity": 1
        },
        {
          "duration": 0.19480500000000234,
          "durationTicks": 48,
          "midi": 47,
          "name": "B2",
          "ticks": 54312,
          "time": 220.42185750000002,
          "velocity": 1
        },
        {
          "duration": 0.19480500000000234,
          "durationTicks": 48,
          "midi": 52,
          "name": "E3",
          "ticks": 54312,
          "time": 220.42185750000002,
          "velocity": 1
        },
        {
          "duration": 0.19480500000000234,
          "durationTicks": 48,
          "midi": 43,
          "name": "G2",
          "ticks": 54360,
          "time": 220.61666250000002,
          "velocity": 1
        },
        {
          "duration": 0.19480499999997392,
          "durationTicks": 48,
          "midi": 50,
          "name": "D3",
          "ticks": 54408,
          "time": 220.81146750000002,
          "velocity": 1
        },
        {
          "duration": 0.19480499999997392,
          "durationTicks": 48,
          "midi": 55,
          "name": "G3",
          "ticks": 54408,
          "time": 220.81146750000002,
          "velocity": 1
        },
        {
          "duration": 0.09740250000001538,
          "durationTicks": 24,
          "midi": 43,
          "name": "G2",
          "ticks": 54456,
          "time": 221.0062725,
          "velocity": 1
        },
        {
          "duration": 0.09740249999998696,
          "durationTicks": 24,
          "midi": 55,
          "name": "G3",
          "ticks": 54480,
          "time": 221.103675,
          "velocity": 1
        },
        {
          "duration": 0.09740250000001538,
          "durationTicks": 24,
          "midi": 43,
          "name": "G2",
          "ticks": 54504,
          "time": 221.2010775,
          "velocity": 1
        },
        {
          "duration": 0.09740249999998696,
          "durationTicks": 24,
          "midi": 55,
          "name": "G3",
          "ticks": 54528,
          "time": 221.29848,
          "velocity": 1
        },
        {
          "duration": 0.19480500000000234,
          "durationTicks": 48,
          "midi": 36,
          "name": "C2",
          "ticks": 54552,
          "time": 221.3958825,
          "velocity": 1
        },
        {
          "duration": 0.19480500000000234,
          "durationTicks": 48,
          "midi": 43,
          "name": "G2",
          "ticks": 54600,
          "time": 221.5906875,
          "velocity": 1
        },
        {
          "duration": 0.19480500000000234,
          "durationTicks": 48,
          "midi": 48,
          "name": "C3",
          "ticks": 54600,
          "time": 221.5906875,
          "velocity": 1
        },
        {
          "duration": 0.19480500000000234,
          "durationTicks": 48,
          "midi": 36,
          "name": "C2",
          "ticks": 54648,
          "time": 221.7854925,
          "velocity": 1
        },
        {
          "duration": 0.19480499999997392,
          "durationTicks": 48,
          "midi": 43,
          "name": "G2",
          "ticks": 54672,
          "time": 221.88289500000002,
          "velocity": 1
        },
        {
          "duration": 0.19480500000000234,
          "durationTicks": 48,
          "midi": 48,
          "name": "C3",
          "ticks": 54696,
          "time": 221.9802975,
          "velocity": 1
        },
        {
          "duration": 0.19480500000000234,
          "durationTicks": 48,
          "midi": 38,
          "name": "D2",
          "ticks": 54744,
          "time": 222.1751025,
          "velocity": 1
        },
        {
          "duration": 0.19480500000000234,
          "durationTicks": 48,
          "midi": 45,
          "name": "A2",
          "ticks": 54792,
          "time": 222.3699075,
          "velocity": 1
        },
        {
          "duration": 0.19480500000000234,
          "durationTicks": 48,
          "midi": 50,
          "name": "D3",
          "ticks": 54792,
          "time": 222.3699075,
          "velocity": 1
        },
        {
          "duration": 0.19480500000000234,
          "durationTicks": 48,
          "midi": 38,
          "name": "D2",
          "ticks": 54840,
          "time": 222.5647125,
          "velocity": 1
        },
        {
          "duration": 0.19480500000000234,
          "durationTicks": 48,
          "midi": 45,
          "name": "A2",
          "ticks": 54864,
          "time": 222.662115,
          "velocity": 1
        },
        {
          "duration": 0.19480500000000234,
          "durationTicks": 48,
          "midi": 50,
          "name": "D3",
          "ticks": 54888,
          "time": 222.75951750000002,
          "velocity": 1
        },
        {
          "duration": 0.19480500000000234,
          "durationTicks": 48,
          "midi": 52,
          "name": "E3",
          "ticks": 54936,
          "time": 222.95432250000002,
          "velocity": 1
        },
        {
          "duration": 0.19480500000000234,
          "durationTicks": 48,
          "midi": 40,
          "name": "E2",
          "ticks": 54936,
          "time": 222.95432250000002,
          "velocity": 1
        },
        {
          "duration": 0.19480500000000234,
          "durationTicks": 48,
          "midi": 47,
          "name": "B2",
          "ticks": 54936,
          "time": 222.95432250000002,
          "velocity": 1
        },
        {
          "duration": 0.19480500000000234,
          "durationTicks": 48,
          "midi": 47,
          "name": "B2",
          "ticks": 55008,
          "time": 223.24653,
          "velocity": 1
        },
        {
          "duration": 0.19480500000000234,
          "durationTicks": 48,
          "midi": 52,
          "name": "E3",
          "ticks": 55008,
          "time": 223.24653,
          "velocity": 1
        },
        {
          "duration": 0.19480500000000234,
          "durationTicks": 48,
          "midi": 40,
          "name": "E2",
          "ticks": 55008,
          "time": 223.24653,
          "velocity": 1
        },
        {
          "duration": 0.19480500000000234,
          "durationTicks": 48,
          "midi": 55,
          "name": "G3",
          "ticks": 55080,
          "time": 223.5387375,
          "velocity": 1
        },
        {
          "duration": 0.19480500000000234,
          "durationTicks": 48,
          "midi": 43,
          "name": "G2",
          "ticks": 55080,
          "time": 223.5387375,
          "velocity": 1
        },
        {
          "duration": 0.2922075000000177,
          "durationTicks": 72,
          "midi": 40,
          "name": "E2",
          "ticks": 55128,
          "time": 223.7335425,
          "velocity": 1
        },
        {
          "duration": 0.2922075000000177,
          "durationTicks": 72,
          "midi": 47,
          "name": "B2",
          "ticks": 55128,
          "time": 223.7335425,
          "velocity": 1
        },
        {
          "duration": 0.2922075000000177,
          "durationTicks": 72,
          "midi": 52,
          "name": "E3",
          "ticks": 55128,
          "time": 223.7335425,
          "velocity": 1
        },
        {
          "duration": 0.09740250000001538,
          "durationTicks": 24,
          "midi": 40,
          "name": "E2",
          "ticks": 55224,
          "time": 224.1231525,
          "velocity": 1
        },
        {
          "duration": 0.09740249999998696,
          "durationTicks": 24,
          "midi": 47,
          "name": "B2",
          "ticks": 55248,
          "time": 224.22055500000002,
          "velocity": 1
        },
        {
          "duration": 0.09740249999998696,
          "durationTicks": 24,
          "midi": 52,
          "name": "E3",
          "ticks": 55248,
          "time": 224.22055500000002,
          "velocity": 1
        },
        {
          "duration": 0.09740250000001538,
          "durationTicks": 24,
          "midi": 40,
          "name": "E2",
          "ticks": 55272,
          "time": 224.3179575,
          "velocity": 1
        },
        {
          "duration": 0.09740249999998696,
          "durationTicks": 24,
          "midi": 52,
          "name": "E3",
          "ticks": 55296,
          "time": 224.41536000000002,
          "velocity": 1
        },
        {
          "duration": 0.09740249999998696,
          "durationTicks": 24,
          "midi": 47,
          "name": "B2",
          "ticks": 55296,
          "time": 224.41536000000002,
          "velocity": 1
        },
        {
          "duration": 0.19480500000000234,
          "durationTicks": 48,
          "midi": 36,
          "name": "C2",
          "ticks": 55320,
          "time": 224.5127625,
          "velocity": 1
        },
        {
          "duration": 0.19480500000000234,
          "durationTicks": 48,
          "midi": 43,
          "name": "G2",
          "ticks": 55368,
          "time": 224.7075675,
          "velocity": 1
        },
        {
          "duration": 0.19480500000000234,
          "durationTicks": 48,
          "midi": 48,
          "name": "C3",
          "ticks": 55368,
          "time": 224.7075675,
          "velocity": 1
        },
        {
          "duration": 0.19480500000000234,
          "durationTicks": 48,
          "midi": 36,
          "name": "C2",
          "ticks": 55416,
          "time": 224.9023725,
          "velocity": 1
        },
        {
          "duration": 0.19480500000000234,
          "durationTicks": 48,
          "midi": 43,
          "name": "G2",
          "ticks": 55440,
          "time": 224.999775,
          "velocity": 1
        },
        {
          "duration": 0.19480500000000234,
          "durationTicks": 48,
          "midi": 48,
          "name": "C3",
          "ticks": 55464,
          "time": 225.09717750000002,
          "velocity": 1
        },
        {
          "duration": 0.19480500000000234,
          "durationTicks": 48,
          "midi": 38,
          "name": "D2",
          "ticks": 55512,
          "time": 225.29198250000002,
          "velocity": 1
        },
        {
          "duration": 0.19480499999997392,
          "durationTicks": 48,
          "midi": 45,
          "name": "A2",
          "ticks": 55560,
          "time": 225.48678750000002,
          "velocity": 1
        },
        {
          "duration": 0.19480499999997392,
          "durationTicks": 48,
          "midi": 50,
          "name": "D3",
          "ticks": 55560,
          "time": 225.48678750000002,
          "velocity": 1
        },
        {
          "duration": 0.19480500000000234,
          "durationTicks": 48,
          "midi": 38,
          "name": "D2",
          "ticks": 55608,
          "time": 225.6815925,
          "velocity": 1
        },
        {
          "duration": 0.19480500000000234,
          "durationTicks": 48,
          "midi": 45,
          "name": "A2",
          "ticks": 55632,
          "time": 225.778995,
          "velocity": 1
        },
        {
          "duration": 0.19480500000000234,
          "durationTicks": 48,
          "midi": 50,
          "name": "D3",
          "ticks": 55656,
          "time": 225.8763975,
          "velocity": 1
        },
        {
          "duration": 0.19480500000000234,
          "durationTicks": 48,
          "midi": 40,
          "name": "E2",
          "ticks": 55704,
          "time": 226.0712025,
          "velocity": 1
        },
        {
          "duration": 0.19480500000000234,
          "durationTicks": 48,
          "midi": 52,
          "name": "E3",
          "ticks": 55752,
          "time": 226.2660075,
          "velocity": 1
        },
        {
          "duration": 0.19480500000000234,
          "durationTicks": 48,
          "midi": 47,
          "name": "B2",
          "ticks": 55752,
          "time": 226.2660075,
          "velocity": 1
        },
        {
          "duration": 0.19480500000000234,
          "durationTicks": 48,
          "midi": 40,
          "name": "E2",
          "ticks": 55800,
          "time": 226.4608125,
          "velocity": 1
        },
        {
          "duration": 0.19480500000000234,
          "durationTicks": 48,
          "midi": 47,
          "name": "B2",
          "ticks": 55848,
          "time": 226.6556175,
          "velocity": 1
        },
        {
          "duration": 0.19480500000000234,
          "durationTicks": 48,
          "midi": 52,
          "name": "E3",
          "ticks": 55848,
          "time": 226.6556175,
          "velocity": 1
        },
        {
          "duration": 0.19480500000000234,
          "durationTicks": 48,
          "midi": 43,
          "name": "G2",
          "ticks": 55896,
          "time": 226.8504225,
          "velocity": 1
        },
        {
          "duration": 0.19480500000000234,
          "durationTicks": 48,
          "midi": 50,
          "name": "D3",
          "ticks": 55944,
          "time": 227.0452275,
          "velocity": 1
        },
        {
          "duration": 0.19480500000000234,
          "durationTicks": 48,
          "midi": 55,
          "name": "G3",
          "ticks": 55944,
          "time": 227.0452275,
          "velocity": 1
        },
        {
          "duration": 0.09740249999998696,
          "durationTicks": 24,
          "midi": 43,
          "name": "G2",
          "ticks": 55992,
          "time": 227.2400325,
          "velocity": 1
        },
        {
          "duration": 0.09740250000001538,
          "durationTicks": 24,
          "midi": 55,
          "name": "G3",
          "ticks": 56016,
          "time": 227.337435,
          "velocity": 1
        },
        {
          "duration": 0.09740249999998696,
          "durationTicks": 24,
          "midi": 43,
          "name": "G2",
          "ticks": 56040,
          "time": 227.43483750000001,
          "velocity": 1
        },
        {
          "duration": 0.09740250000001538,
          "durationTicks": 24,
          "midi": 55,
          "name": "G3",
          "ticks": 56064,
          "time": 227.53224,
          "velocity": 1
        },
        {
          "duration": 0.19480500000000234,
          "durationTicks": 48,
          "midi": 36,
          "name": "C2",
          "ticks": 56088,
          "time": 227.62964250000002,
          "velocity": 1
        },
        {
          "duration": 0.19480499999997392,
          "durationTicks": 48,
          "midi": 43,
          "name": "G2",
          "ticks": 56136,
          "time": 227.82444750000002,
          "velocity": 1
        },
        {
          "duration": 0.19480499999997392,
          "durationTicks": 48,
          "midi": 48,
          "name": "C3",
          "ticks": 56136,
          "time": 227.82444750000002,
          "velocity": 1
        },
        {
          "duration": 0.19480500000000234,
          "durationTicks": 48,
          "midi": 36,
          "name": "C2",
          "ticks": 56184,
          "time": 228.0192525,
          "velocity": 1
        },
        {
          "duration": 0.19480500000000234,
          "durationTicks": 48,
          "midi": 43,
          "name": "G2",
          "ticks": 56208,
          "time": 228.116655,
          "velocity": 1
        },
        {
          "duration": 0.19480500000000234,
          "durationTicks": 48,
          "midi": 48,
          "name": "C3",
          "ticks": 56232,
          "time": 228.2140575,
          "velocity": 1
        },
        {
          "duration": 0.19480500000000234,
          "durationTicks": 48,
          "midi": 38,
          "name": "D2",
          "ticks": 56280,
          "time": 228.4088625,
          "velocity": 1
        },
        {
          "duration": 0.19480500000000234,
          "durationTicks": 48,
          "midi": 45,
          "name": "A2",
          "ticks": 56328,
          "time": 228.6036675,
          "velocity": 1
        },
        {
          "duration": 0.19480500000000234,
          "durationTicks": 48,
          "midi": 50,
          "name": "D3",
          "ticks": 56328,
          "time": 228.6036675,
          "velocity": 1
        },
        {
          "duration": 0.19480500000000234,
          "durationTicks": 48,
          "midi": 38,
          "name": "D2",
          "ticks": 56376,
          "time": 228.7984725,
          "velocity": 1
        },
        {
          "duration": 0.19480500000000234,
          "durationTicks": 48,
          "midi": 45,
          "name": "A2",
          "ticks": 56400,
          "time": 228.89587500000002,
          "velocity": 1
        },
        {
          "duration": 0.19480500000000234,
          "durationTicks": 48,
          "midi": 50,
          "name": "D3",
          "ticks": 56424,
          "time": 228.9932775,
          "velocity": 1
        },
        {
          "duration": 0.19480500000000234,
          "durationTicks": 48,
          "midi": 40,
          "name": "E2",
          "ticks": 56472,
          "time": 229.1880825,
          "velocity": 1
        },
        {
          "duration": 0.19480500000000234,
          "durationTicks": 48,
          "midi": 52,
          "name": "E3",
          "ticks": 56520,
          "time": 229.3828875,
          "velocity": 1
        },
        {
          "duration": 0.19480500000000234,
          "durationTicks": 48,
          "midi": 47,
          "name": "B2",
          "ticks": 56520,
          "time": 229.3828875,
          "velocity": 1
        },
        {
          "duration": 0.19480500000000234,
          "durationTicks": 48,
          "midi": 43,
          "name": "G2",
          "ticks": 56568,
          "time": 229.5776925,
          "velocity": 1
        },
        {
          "duration": 0.19480500000000234,
          "durationTicks": 48,
          "midi": 50,
          "name": "D3",
          "ticks": 56616,
          "time": 229.77249750000001,
          "velocity": 1
        },
        {
          "duration": 0.19480500000000234,
          "durationTicks": 48,
          "midi": 55,
          "name": "G3",
          "ticks": 56616,
          "time": 229.77249750000001,
          "velocity": 1
        },
        {
          "duration": 0.19480500000000234,
          "durationTicks": 48,
          "midi": 45,
          "name": "A2",
          "ticks": 56664,
          "time": 229.96730250000002,
          "velocity": 1
        },
        {
          "duration": 0.19480499999997392,
          "durationTicks": 48,
          "midi": 52,
          "name": "E3",
          "ticks": 56712,
          "time": 230.16210750000002,
          "velocity": 1
        },
        {
          "duration": 0.19480499999997392,
          "durationTicks": 48,
          "midi": 57,
          "name": "A3",
          "ticks": 56712,
          "time": 230.16210750000002,
          "velocity": 1
        },
        {
          "duration": 0.09740250000001538,
          "durationTicks": 24,
          "midi": 47,
          "name": "B2",
          "ticks": 56760,
          "time": 230.3569125,
          "velocity": 1
        },
        {
          "duration": 0.09740249999998696,
          "durationTicks": 24,
          "midi": 59,
          "name": "B3",
          "ticks": 56784,
          "time": 230.454315,
          "velocity": 1
        },
        {
          "duration": 0.09740250000001538,
          "durationTicks": 24,
          "midi": 47,
          "name": "B2",
          "ticks": 56808,
          "time": 230.5517175,
          "velocity": 1
        },
        {
          "duration": 0.09740249999998696,
          "durationTicks": 24,
          "midi": 59,
          "name": "B3",
          "ticks": 56832,
          "time": 230.64912,
          "velocity": 1
        },
        {
          "duration": 0.19480500000000234,
          "durationTicks": 48,
          "midi": 36,
          "name": "C2",
          "ticks": 56856,
          "time": 230.7465225,
          "velocity": 1
        },
        {
          "duration": 0.19480500000000234,
          "durationTicks": 48,
          "midi": 43,
          "name": "G2",
          "ticks": 56904,
          "time": 230.9413275,
          "velocity": 1
        },
        {
          "duration": 0.19480500000000234,
          "durationTicks": 48,
          "midi": 48,
          "name": "C3",
          "ticks": 56904,
          "time": 230.9413275,
          "velocity": 1
        },
        {
          "duration": 0.19480500000000234,
          "durationTicks": 48,
          "midi": 36,
          "name": "C2",
          "ticks": 56952,
          "time": 231.1361325,
          "velocity": 1
        },
        {
          "duration": 0.19480500000000234,
          "durationTicks": 48,
          "midi": 43,
          "name": "G2",
          "ticks": 56976,
          "time": 231.23353500000002,
          "velocity": 1
        },
        {
          "duration": 0.19480500000000234,
          "durationTicks": 48,
          "midi": 48,
          "name": "C3",
          "ticks": 57000,
          "time": 231.3309375,
          "velocity": 1
        },
        {
          "duration": 0.19480500000000234,
          "durationTicks": 48,
          "midi": 38,
          "name": "D2",
          "ticks": 57048,
          "time": 231.5257425,
          "velocity": 1
        },
        {
          "duration": 0.19480500000000234,
          "durationTicks": 48,
          "midi": 45,
          "name": "A2",
          "ticks": 57096,
          "time": 231.7205475,
          "velocity": 1
        },
        {
          "duration": 0.19480500000000234,
          "durationTicks": 48,
          "midi": 50,
          "name": "D3",
          "ticks": 57096,
          "time": 231.7205475,
          "velocity": 1
        },
        {
          "duration": 0.19480500000000234,
          "durationTicks": 48,
          "midi": 38,
          "name": "D2",
          "ticks": 57144,
          "time": 231.9153525,
          "velocity": 1
        },
        {
          "duration": 0.19480500000000234,
          "durationTicks": 48,
          "midi": 45,
          "name": "A2",
          "ticks": 57168,
          "time": 232.012755,
          "velocity": 1
        },
        {
          "duration": 0.19480500000000234,
          "durationTicks": 48,
          "midi": 50,
          "name": "D3",
          "ticks": 57192,
          "time": 232.1101575,
          "velocity": 1
        },
        {
          "duration": 0.19480500000000234,
          "durationTicks": 48,
          "midi": 40,
          "name": "E2",
          "ticks": 57240,
          "time": 232.30496250000002,
          "velocity": 1
        },
        {
          "duration": 0.19480500000000234,
          "durationTicks": 48,
          "midi": 52,
          "name": "E3",
          "ticks": 57288,
          "time": 232.49976750000002,
          "velocity": 1
        },
        {
          "duration": 0.19480500000000234,
          "durationTicks": 48,
          "midi": 47,
          "name": "B2",
          "ticks": 57288,
          "time": 232.49976750000002,
          "velocity": 1
        },
        {
          "duration": 0.19480499999997392,
          "durationTicks": 48,
          "midi": 40,
          "name": "E2",
          "ticks": 57336,
          "time": 232.69457250000002,
          "velocity": 1
        },
        {
          "duration": 0.19480500000000234,
          "durationTicks": 48,
          "midi": 47,
          "name": "B2",
          "ticks": 57384,
          "time": 232.8893775,
          "velocity": 1
        },
        {
          "duration": 0.19480500000000234,
          "durationTicks": 48,
          "midi": 52,
          "name": "E3",
          "ticks": 57384,
          "time": 232.8893775,
          "velocity": 1
        },
        {
          "duration": 0.19480500000000234,
          "durationTicks": 48,
          "midi": 43,
          "name": "G2",
          "ticks": 57432,
          "time": 233.0841825,
          "velocity": 1
        },
        {
          "duration": 0.19480500000000234,
          "durationTicks": 48,
          "midi": 50,
          "name": "D3",
          "ticks": 57480,
          "time": 233.2789875,
          "velocity": 1
        },
        {
          "duration": 0.19480500000000234,
          "durationTicks": 48,
          "midi": 55,
          "name": "G3",
          "ticks": 57480,
          "time": 233.2789875,
          "velocity": 1
        },
        {
          "duration": 0.09740250000001538,
          "durationTicks": 24,
          "midi": 43,
          "name": "G2",
          "ticks": 57528,
          "time": 233.4737925,
          "velocity": 1
        },
        {
          "duration": 0.09740249999998696,
          "durationTicks": 24,
          "midi": 55,
          "name": "G3",
          "ticks": 57552,
          "time": 233.57119500000002,
          "velocity": 1
        },
        {
          "duration": 0.09740250000001538,
          "durationTicks": 24,
          "midi": 43,
          "name": "G2",
          "ticks": 57576,
          "time": 233.6685975,
          "velocity": 1
        },
        {
          "duration": 0.09740249999998696,
          "durationTicks": 24,
          "midi": 55,
          "name": "G3",
          "ticks": 57600,
          "time": 233.76600000000002,
          "velocity": 1
        },
        {
          "duration": 0.19480500000000234,
          "durationTicks": 48,
          "midi": 36,
          "name": "C2",
          "ticks": 57624,
          "time": 233.8634025,
          "velocity": 1
        },
        {
          "duration": 0.19480500000000234,
          "durationTicks": 48,
          "midi": 43,
          "name": "G2",
          "ticks": 57672,
          "time": 234.0582075,
          "velocity": 1
        },
        {
          "duration": 0.19480500000000234,
          "durationTicks": 48,
          "midi": 48,
          "name": "C3",
          "ticks": 57672,
          "time": 234.0582075,
          "velocity": 1
        },
        {
          "duration": 0.19480500000000234,
          "durationTicks": 48,
          "midi": 36,
          "name": "C2",
          "ticks": 57720,
          "time": 234.2530125,
          "velocity": 1
        },
        {
          "duration": 0.19480500000000234,
          "durationTicks": 48,
          "midi": 43,
          "name": "G2",
          "ticks": 57744,
          "time": 234.350415,
          "velocity": 1
        },
        {
          "duration": 0.19480500000000234,
          "durationTicks": 48,
          "midi": 48,
          "name": "C3",
          "ticks": 57768,
          "time": 234.4478175,
          "velocity": 1
        },
        {
          "duration": 0.19480500000000234,
          "durationTicks": 48,
          "midi": 38,
          "name": "D2",
          "ticks": 57816,
          "time": 234.64262250000002,
          "velocity": 1
        },
        {
          "duration": 0.19480500000000234,
          "durationTicks": 48,
          "midi": 45,
          "name": "A2",
          "ticks": 57864,
          "time": 234.83742750000002,
          "velocity": 1
        },
        {
          "duration": 0.19480500000000234,
          "durationTicks": 48,
          "midi": 50,
          "name": "D3",
          "ticks": 57864,
          "time": 234.83742750000002,
          "velocity": 1
        },
        {
          "duration": 0.19480499999997392,
          "durationTicks": 48,
          "midi": 38,
          "name": "D2",
          "ticks": 57912,
          "time": 235.03223250000002,
          "velocity": 1
        },
        {
          "duration": 0.19480500000000234,
          "durationTicks": 48,
          "midi": 45,
          "name": "A2",
          "ticks": 57936,
          "time": 235.129635,
          "velocity": 1
        },
        {
          "duration": 0.19480500000000234,
          "durationTicks": 48,
          "midi": 50,
          "name": "D3",
          "ticks": 57960,
          "time": 235.2270375,
          "velocity": 1
        },
        {
          "duration": 0.19480500000000234,
          "durationTicks": 48,
          "midi": 52,
          "name": "E3",
          "ticks": 58008,
          "time": 235.4218425,
          "velocity": 1
        },
        {
          "duration": 0.19480500000000234,
          "durationTicks": 48,
          "midi": 40,
          "name": "E2",
          "ticks": 58008,
          "time": 235.4218425,
          "velocity": 1
        },
        {
          "duration": 0.19480500000000234,
          "durationTicks": 48,
          "midi": 47,
          "name": "B2",
          "ticks": 58008,
          "time": 235.4218425,
          "velocity": 1
        },
        {
          "duration": 0.19480500000000234,
          "durationTicks": 48,
          "midi": 47,
          "name": "B2",
          "ticks": 58080,
          "time": 235.71405000000001,
          "velocity": 1
        },
        {
          "duration": 0.19480500000000234,
          "durationTicks": 48,
          "midi": 52,
          "name": "E3",
          "ticks": 58080,
          "time": 235.71405000000001,
          "velocity": 1
        },
        {
          "duration": 0.19480500000000234,
          "durationTicks": 48,
          "midi": 40,
          "name": "E2",
          "ticks": 58080,
          "time": 235.71405000000001,
          "velocity": 1
        },
        {
          "duration": 0.19480500000000234,
          "durationTicks": 48,
          "midi": 55,
          "name": "G3",
          "ticks": 58152,
          "time": 236.0062575,
          "velocity": 1
        },
        {
          "duration": 0.19480500000000234,
          "durationTicks": 48,
          "midi": 43,
          "name": "G2",
          "ticks": 58152,
          "time": 236.0062575,
          "velocity": 1
        },
        {
          "duration": 0.19480500000000234,
          "durationTicks": 48,
          "midi": 50,
          "name": "D3",
          "ticks": 58152,
          "time": 236.0062575,
          "velocity": 1
        },
        {
          "duration": 0.19480500000000234,
          "durationTicks": 48,
          "midi": 40,
          "name": "E2",
          "ticks": 58200,
          "time": 236.2010625,
          "velocity": 1
        },
        {
          "duration": 0.19480500000000234,
          "durationTicks": 48,
          "midi": 52,
          "name": "E3",
          "ticks": 58200,
          "time": 236.2010625,
          "velocity": 1
        },
        {
          "duration": 0.19480500000000234,
          "durationTicks": 48,
          "midi": 47,
          "name": "B2",
          "ticks": 58200,
          "time": 236.2010625,
          "velocity": 1
        },
        {
          "duration": 0.04870124999999348,
          "durationTicks": 12,
          "midi": 38,
          "name": "D2",
          "ticks": 58344,
          "time": 236.7854775,
          "velocity": 1
        },
        {
          "duration": 0.04870124999999348,
          "durationTicks": 12,
          "midi": 50,
          "name": "D3",
          "ticks": 58356,
          "time": 236.83417875,
          "velocity": 1
        },
        {
          "duration": 0.04870124999999348,
          "durationTicks": 12,
          "midi": 38,
          "name": "D2",
          "ticks": 58368,
          "time": 236.88288,
          "velocity": 1
        },
        {
          "duration": 0.0487012500000219,
          "durationTicks": 12,
          "midi": 50,
          "name": "D3",
          "ticks": 58380,
          "time": 236.93158125,
          "velocity": 1
        },
        {
          "duration": 0.19480500000000234,
          "durationTicks": 48,
          "midi": 47,
          "name": "B2",
          "ticks": 58392,
          "time": 236.98028250000002,
          "velocity": 1
        },
        {
          "duration": 0.19480500000000234,
          "durationTicks": 48,
          "midi": 40,
          "name": "E2",
          "ticks": 58392,
          "time": 236.98028250000002,
          "velocity": 1
        },
        {
          "duration": 0.19480500000000234,
          "durationTicks": 48,
          "midi": 52,
          "name": "E3",
          "ticks": 58392,
          "time": 236.98028250000002,
          "velocity": 1
        },
        {
          "duration": 0.19480500000000234,
          "durationTicks": 48,
          "midi": 40,
          "name": "E2",
          "ticks": 58464,
          "time": 237.27249,
          "velocity": 1
        },
        {
          "duration": 0.19480500000000234,
          "durationTicks": 48,
          "midi": 52,
          "name": "E3",
          "ticks": 58464,
          "time": 237.27249,
          "velocity": 1
        },
        {
          "duration": 0.19480500000000234,
          "durationTicks": 48,
          "midi": 47,
          "name": "B2",
          "ticks": 58464,
          "time": 237.27249,
          "velocity": 1
        },
        {
          "duration": 0.19480500000000234,
          "durationTicks": 48,
          "midi": 50,
          "name": "D3",
          "ticks": 58536,
          "time": 237.5646975,
          "velocity": 1
        },
        {
          "duration": 0.19480500000000234,
          "durationTicks": 48,
          "midi": 43,
          "name": "G2",
          "ticks": 58536,
          "time": 237.5646975,
          "velocity": 1
        },
        {
          "duration": 0.19480500000000234,
          "durationTicks": 48,
          "midi": 55,
          "name": "G3",
          "ticks": 58536,
          "time": 237.5646975,
          "velocity": 1
        },
        {
          "duration": 0.3896100000000047,
          "durationTicks": 96,
          "midi": 43,
          "name": "G2",
          "ticks": 58584,
          "time": 237.7595025,
          "velocity": 1
        },
        {
          "duration": 0.3896100000000047,
          "durationTicks": 96,
          "midi": 47,
          "name": "B2",
          "ticks": 58584,
          "time": 237.7595025,
          "velocity": 1
        },
        {
          "duration": 0.3896100000000047,
          "durationTicks": 96,
          "midi": 52,
          "name": "E3",
          "ticks": 58584,
          "time": 237.7595025,
          "velocity": 1
        },
        {
          "duration": 0.3896100000000047,
          "durationTicks": 96,
          "midi": 40,
          "name": "E2",
          "ticks": 58584,
          "time": 237.7595025,
          "velocity": 1
        }
      ],
      "endOfTrackTicks": 58865
    },
    {
      "channel": 0,
      "controlChanges": {},
      "pitchBends": [],
      "instrument": {
        "family": "piano",
        "number": 0,
        "name": "acoustic grand piano"
      },
      "name": "VOZ #2",
      "notes": [],
      "endOfTrackTicks": 0
    }
  ]
}
