{
  "header": {
    "keySignatures": [],
    "meta": [],
    "name": "",
    "ppq": 96,
    "tempos": [
      {
        "bpm": 180.00018000018,
        "ticks": 0
      }
    ],
    "timeSignatures": [
      {
        "ticks": 0,
        "timeSignature": [
          4,
          4
        ],
        "measures": 0
      }
    ]
  },
  "tracks": [
    {
      "channel": 0,
      "controlChanges": {},
      "pitchBends": [],
      "instrument": {
        "family": "piano",
        "number": 0,
        "name": "acoustic grand piano"
      },
      "name": "",
      "notes": [],
      "endOfTrackTicks": 0
    },
    {
      "channel": 0,
      "controlChanges": {
        "6": [
          {
            "number": 6,
            "ticks": 0,
            "time": 0,
            "value": 0.09448818897637795
          }
        ],
        "7": [
          {
            "number": 7,
            "ticks": 0,
            "time": 0,
            "value": 1
          },
          {
            "number": 7,
            "ticks": 0,
            "time": 0,
            "value": 1
          }
        ],
        "10": [
          {
            "number": 10,
            "ticks": 0,
            "time": 0,
            "value": 0.5039370078740157
          },
          {
            "number": 10,
            "ticks": 0,
            "time": 0,
            "value": 0.5039370078740157
          }
        ],
        "100": [
          {
            "number": 100,
            "ticks": 0,
            "time": 0,
            "value": 0
          }
        ],
        "101": [
          {
            "number": 101,
            "ticks": 0,
            "time": 0,
            "value": 0
          }
        ]
      },
      "pitchBends": [
        {
          "ticks": 0,
          "time": 0,
          "value": 0
        },
        {
          "ticks": 0,
          "time": 0,
          "value": 0
        }
      ],
      "instrument": {
        "family": "piano",
        "number": 0,
        "name": "acoustic grand piano"
      },
      "name": "Brass",
      "notes": [],
      "endOfTrackTicks": 37249
    },
    {
      "channel": 5,
      "controlChanges": {
        "6": [
          {
            "number": 6,
            "ticks": 0,
            "time": 0,
            "value": 0.09448818897637795
          },
          {
            "number": 6,
            "ticks": 0,
            "time": 0,
            "value": 0.09448818897637795
          },
          {
            "number": 6,
            "ticks": 37248,
            "time": 129.333204,
            "value": 0.09448818897637795
          },
          {
            "number": 6,
            "ticks": 37249,
            "time": 129.33667621875,
            "value": 0.09448818897637795
          }
        ],
        "7": [
          {
            "number": 7,
            "ticks": 0,
            "time": 0,
            "value": 1
          },
          {
            "number": 7,
            "ticks": 0,
            "time": 0,
            "value": 1
          },
          {
            "number": 7,
            "ticks": 37248,
            "time": 129.333204,
            "value": 1
          },
          {
            "number": 7,
            "ticks": 37249,
            "time": 129.33667621875,
            "value": 1
          }
        ],
        "10": [
          {
            "number": 10,
            "ticks": 0,
            "time": 0,
            "value": 0.5039370078740157
          },
          {
            "number": 10,
            "ticks": 0,
            "time": 0,
            "value": 0.5039370078740157
          },
          {
            "number": 10,
            "ticks": 37248,
            "time": 129.333204,
            "value": 0.5039370078740157
          },
          {
            "number": 10,
            "ticks": 37249,
            "time": 129.33667621875,
            "value": 0.5039370078740157
          }
        ],
        "100": [
          {
            "number": 100,
            "ticks": 0,
            "time": 0,
            "value": 0
          },
          {
            "number": 100,
            "ticks": 0,
            "time": 0,
            "value": 0
          },
          {
            "number": 100,
            "ticks": 37248,
            "time": 129.333204,
            "value": 0
          },
          {
            "number": 100,
            "ticks": 37249,
            "time": 129.33667621875,
            "value": 0
          }
        ],
        "101": [
          {
            "number": 101,
            "ticks": 0,
            "time": 0,
            "value": 0
          },
          {
            "number": 101,
            "ticks": 0,
            "time": 0,
            "value": 0
          },
          {
            "number": 101,
            "ticks": 37248,
            "time": 129.333204,
            "value": 0
          },
          {
            "number": 101,
            "ticks": 37249,
            "time": 129.33667621875,
            "value": 0
          }
        ]
      },
      "pitchBends": [
        {
          "ticks": 0,
          "time": 0,
          "value": 0
        },
        {
          "ticks": 0,
          "time": 0,
          "value": 0
        },
        {
          "ticks": 37248,
          "time": 129.333204,
          "value": 0
        },
        {
          "ticks": 37249,
          "time": 129.33667621875,
          "value": 0
        }
      ],
      "instrument": {
        "family": "brass",
        "number": 61,
        "name": "brass section"
      },
      "name": "",
      "notes": [
        {
          "duration": 0.16666649999999983,
          "durationTicks": 48,
          "midi": 69,
          "name": "A4",
          "ticks": 768,
          "time": 2.666664,
          "velocity": 0.5984251968503937
        },
        {
          "duration": 0.16666649999999983,
          "durationTicks": 48,
          "midi": 72,
          "name": "C5",
          "ticks": 864,
          "time": 2.999997,
          "velocity": 0.5984251968503937
        },
        {
          "duration": 0.24999974999999974,
          "durationTicks": 72,
          "midi": 75,
          "name": "D#5",
          "ticks": 960,
          "time": 3.33333,
          "velocity": 0.5984251968503937
        },
        {
          "duration": 0.08333324999999991,
          "durationTicks": 24,
          "midi": 76,
          "name": "E5",
          "ticks": 1032,
          "time": 3.58332975,
          "velocity": 0.5984251968503937
        },
        {
          "duration": 0.08333324999999991,
          "durationTicks": 24,
          "midi": 68,
          "name": "G#4",
          "ticks": 1104,
          "time": 3.8333295,
          "velocity": 0.5984251968503937
        },
        {
          "duration": 0.08333325000000036,
          "durationTicks": 24,
          "midi": 69,
          "name": "A4",
          "ticks": 1152,
          "time": 3.999996,
          "velocity": 0.5984251968503937
        },
        {
          "duration": 0.08333324999999991,
          "durationTicks": 24,
          "midi": 72,
          "name": "C5",
          "ticks": 1200,
          "time": 4.1666625,
          "velocity": 0.5984251968503937
        },
        {
          "duration": 0.08333324999999991,
          "durationTicks": 24,
          "midi": 74,
          "name": "D5",
          "ticks": 1248,
          "time": 4.333329,
          "velocity": 0.5984251968503937
        },
        {
          "duration": 0.08333324999999991,
          "durationTicks": 24,
          "midi": 72,
          "name": "C5",
          "ticks": 1296,
          "time": 4.4999955,
          "velocity": 0.5984251968503937
        },
        {
          "duration": 0.08333324999999991,
          "durationTicks": 24,
          "midi": 74,
          "name": "D5",
          "ticks": 1344,
          "time": 4.666662,
          "velocity": 0.5984251968503937
        },
        {
          "duration": 0.0833332500000008,
          "durationTicks": 24,
          "midi": 75,
          "name": "D#5",
          "ticks": 1392,
          "time": 4.8333284999999995,
          "velocity": 0.5984251968503937
        },
        {
          "duration": 0.24999974999999974,
          "durationTicks": 72,
          "midi": 76,
          "name": "E5",
          "ticks": 1416,
          "time": 4.91666175,
          "velocity": 0.5984251968503937
        },
        {
          "duration": 0.08333324999999991,
          "durationTicks": 24,
          "midi": 79,
          "name": "G5",
          "ticks": 1536,
          "time": 5.333328,
          "velocity": 0.5984251968503937
        },
        {
          "duration": 0.08333324999999991,
          "durationTicks": 24,
          "midi": 78,
          "name": "F#5",
          "ticks": 1584,
          "time": 5.4999945,
          "velocity": 0.5984251968503937
        },
        {
          "duration": 0.08333324999999991,
          "durationTicks": 24,
          "midi": 77,
          "name": "F5",
          "ticks": 1632,
          "time": 5.6666609999999995,
          "velocity": 0.5984251968503937
        },
        {
          "duration": 0.08333324999999991,
          "durationTicks": 24,
          "midi": 75,
          "name": "D#5",
          "ticks": 1680,
          "time": 5.8333275,
          "velocity": 0.5984251968503937
        },
        {
          "duration": 0.08333324999999991,
          "durationTicks": 24,
          "midi": 74,
          "name": "D5",
          "ticks": 1728,
          "time": 5.999994,
          "velocity": 0.5984251968503937
        },
        {
          "duration": 0.08333324999999991,
          "durationTicks": 24,
          "midi": 72,
          "name": "C5",
          "ticks": 1776,
          "time": 6.1666605,
          "velocity": 0.5984251968503937
        },
        {
          "duration": 0.08333324999999991,
          "durationTicks": 24,
          "midi": 71,
          "name": "B4",
          "ticks": 1824,
          "time": 6.333327,
          "velocity": 0.5984251968503937
        },
        {
          "duration": 0.08333324999999991,
          "durationTicks": 24,
          "midi": 70,
          "name": "A#4",
          "ticks": 1872,
          "time": 6.4999934999999995,
          "velocity": 0.5984251968503937
        },
        {
          "duration": 0.08333324999999991,
          "durationTicks": 24,
          "midi": 71,
          "name": "B4",
          "ticks": 1920,
          "time": 6.66666,
          "velocity": 0.5984251968503937
        },
        {
          "duration": 0.08333324999999991,
          "durationTicks": 24,
          "midi": 72,
          "name": "C5",
          "ticks": 1968,
          "time": 6.8333265,
          "velocity": 0.5984251968503937
        },
        {
          "duration": 0.08333324999999991,
          "durationTicks": 24,
          "midi": 74,
          "name": "D5",
          "ticks": 2016,
          "time": 6.999993,
          "velocity": 0.5984251968503937
        },
        {
          "duration": 0.08333324999999991,
          "durationTicks": 24,
          "midi": 75,
          "name": "D#5",
          "ticks": 2064,
          "time": 7.1666595,
          "velocity": 0.5984251968503937
        },
        {
          "duration": 0.33333300000000055,
          "durationTicks": 96,
          "midi": 76,
          "name": "E5",
          "ticks": 2112,
          "time": 7.333326,
          "velocity": 0.5984251968503937
        },
        {
          "duration": 0.33333299999999966,
          "durationTicks": 96,
          "midi": 64,
          "name": "E4",
          "ticks": 2208,
          "time": 7.666659,
          "velocity": 0.5984251968503937
        },
        {
          "duration": 0.16666650000000072,
          "durationTicks": 48,
          "midi": 69,
          "name": "A4",
          "ticks": 2304,
          "time": 7.999992,
          "velocity": 0.5984251968503937
        },
        {
          "duration": 0.16666649999999983,
          "durationTicks": 48,
          "midi": 72,
          "name": "C5",
          "ticks": 2400,
          "time": 8.333325,
          "velocity": 0.5984251968503937
        },
        {
          "duration": 0.24999975000000063,
          "durationTicks": 72,
          "midi": 75,
          "name": "D#5",
          "ticks": 2496,
          "time": 8.666658,
          "velocity": 0.5984251968503937
        },
        {
          "duration": 0.08333324999999903,
          "durationTicks": 24,
          "midi": 76,
          "name": "E5",
          "ticks": 2568,
          "time": 8.91665775,
          "velocity": 0.5984251968503937
        },
        {
          "duration": 0.0833332500000008,
          "durationTicks": 24,
          "midi": 68,
          "name": "G#4",
          "ticks": 2640,
          "time": 9.1666575,
          "velocity": 0.5984251968503937
        },
        {
          "duration": 0.0833332500000008,
          "durationTicks": 24,
          "midi": 69,
          "name": "A4",
          "ticks": 2688,
          "time": 9.333324,
          "velocity": 0.5984251968503937
        },
        {
          "duration": 0.0833332500000008,
          "durationTicks": 24,
          "midi": 72,
          "name": "C5",
          "ticks": 2736,
          "time": 9.4999905,
          "velocity": 0.5984251968503937
        },
        {
          "duration": 0.0833332500000008,
          "durationTicks": 24,
          "midi": 74,
          "name": "D5",
          "ticks": 2784,
          "time": 9.666656999999999,
          "velocity": 0.5984251968503937
        },
        {
          "duration": 0.08333324999999903,
          "durationTicks": 24,
          "midi": 72,
          "name": "C5",
          "ticks": 2832,
          "time": 9.8333235,
          "velocity": 0.5984251968503937
        },
        {
          "duration": 0.08333324999999903,
          "durationTicks": 24,
          "midi": 74,
          "name": "D5",
          "ticks": 2880,
          "time": 9.99999,
          "velocity": 0.5984251968503937
        },
        {
          "duration": 0.08333324999999903,
          "durationTicks": 24,
          "midi": 75,
          "name": "D#5",
          "ticks": 2928,
          "time": 10.1666565,
          "velocity": 0.5984251968503937
        },
        {
          "duration": 0.24999975000000063,
          "durationTicks": 72,
          "midi": 76,
          "name": "E5",
          "ticks": 2952,
          "time": 10.24998975,
          "velocity": 0.5984251968503937
        },
        {
          "duration": 0.0833332500000008,
          "durationTicks": 24,
          "midi": 79,
          "name": "G5",
          "ticks": 3072,
          "time": 10.666656,
          "velocity": 0.5984251968503937
        },
        {
          "duration": 0.0833332500000008,
          "durationTicks": 24,
          "midi": 78,
          "name": "F#5",
          "ticks": 3120,
          "time": 10.8333225,
          "velocity": 0.5984251968503937
        },
        {
          "duration": 0.0833332500000008,
          "durationTicks": 24,
          "midi": 77,
          "name": "F5",
          "ticks": 3168,
          "time": 10.999989,
          "velocity": 0.5984251968503937
        },
        {
          "duration": 0.0833332500000008,
          "durationTicks": 24,
          "midi": 75,
          "name": "D#5",
          "ticks": 3216,
          "time": 11.1666555,
          "velocity": 0.5984251968503937
        },
        {
          "duration": 0.0833332500000008,
          "durationTicks": 24,
          "midi": 76,
          "name": "E5",
          "ticks": 3264,
          "time": 11.333321999999999,
          "velocity": 0.5984251968503937
        },
        {
          "duration": 0.0833332500000008,
          "durationTicks": 24,
          "midi": 77,
          "name": "F5",
          "ticks": 3312,
          "time": 11.499988499999999,
          "velocity": 0.5984251968503937
        },
        {
          "duration": 0.08333324999999903,
          "durationTicks": 24,
          "midi": 78,
          "name": "F#5",
          "ticks": 3360,
          "time": 11.666655,
          "velocity": 0.5984251968503937
        },
        {
          "duration": 0.08333324999999903,
          "durationTicks": 24,
          "midi": 78,
          "name": "F#5",
          "ticks": 3408,
          "time": 11.8333215,
          "velocity": 0.5984251968503937
        },
        {
          "duration": 0.08333324999999903,
          "durationTicks": 24,
          "midi": 80,
          "name": "G#5",
          "ticks": 3456,
          "time": 11.999988,
          "velocity": 0.5984251968503937
        },
        {
          "duration": 0.08333324999999903,
          "durationTicks": 24,
          "midi": 80,
          "name": "G#5",
          "ticks": 3504,
          "time": 12.1666545,
          "velocity": 0.5984251968503937
        },
        {
          "duration": 0.08333324999999903,
          "durationTicks": 24,
          "midi": 81,
          "name": "A5",
          "ticks": 3552,
          "time": 12.333321,
          "velocity": 0.5984251968503937
        },
        {
          "duration": 0.0833332500000008,
          "durationTicks": 24,
          "midi": 81,
          "name": "A5",
          "ticks": 3600,
          "time": 12.4999875,
          "velocity": 0.5984251968503937
        },
        {
          "duration": 0.33333299999999966,
          "durationTicks": 96,
          "midi": 83,
          "name": "B5",
          "ticks": 3648,
          "time": 12.666654,
          "velocity": 0.5984251968503937
        },
        {
          "duration": 0.16666649999999983,
          "durationTicks": 48,
          "midi": 69,
          "name": "A4",
          "ticks": 3840,
          "time": 13.33332,
          "velocity": 0.8818897637795275
        },
        {
          "duration": 0.16666649999999983,
          "durationTicks": 48,
          "midi": 72,
          "name": "C5",
          "ticks": 3936,
          "time": 13.666653,
          "velocity": 0.8818897637795275
        },
        {
          "duration": 0.24999975000000063,
          "durationTicks": 72,
          "midi": 75,
          "name": "D#5",
          "ticks": 4032,
          "time": 13.999986,
          "velocity": 0.8818897637795275
        },
        {
          "duration": 0.08333324999999903,
          "durationTicks": 24,
          "midi": 76,
          "name": "E5",
          "ticks": 4104,
          "time": 14.24998575,
          "velocity": 0.8818897637795275
        },
        {
          "duration": 0.0833332500000008,
          "durationTicks": 24,
          "midi": 68,
          "name": "G#4",
          "ticks": 4176,
          "time": 14.4999855,
          "velocity": 0.8818897637795275
        },
        {
          "duration": 0.0833332500000008,
          "durationTicks": 24,
          "midi": 69,
          "name": "A4",
          "ticks": 4224,
          "time": 14.666652,
          "velocity": 0.8818897637795275
        },
        {
          "duration": 0.0833332500000008,
          "durationTicks": 24,
          "midi": 72,
          "name": "C5",
          "ticks": 4272,
          "time": 14.833318499999999,
          "velocity": 0.8818897637795275
        },
        {
          "duration": 0.0833332500000008,
          "durationTicks": 24,
          "midi": 74,
          "name": "D5",
          "ticks": 4320,
          "time": 14.999984999999999,
          "velocity": 0.8818897637795275
        },
        {
          "duration": 0.08333324999999903,
          "durationTicks": 24,
          "midi": 72,
          "name": "C5",
          "ticks": 4368,
          "time": 15.1666515,
          "velocity": 0.8818897637795275
        },
        {
          "duration": 0.08333324999999903,
          "durationTicks": 24,
          "midi": 74,
          "name": "D5",
          "ticks": 4416,
          "time": 15.333318,
          "velocity": 0.8818897637795275
        },
        {
          "duration": 0.08333324999999903,
          "durationTicks": 24,
          "midi": 75,
          "name": "D#5",
          "ticks": 4464,
          "time": 15.4999845,
          "velocity": 0.8818897637795275
        },
        {
          "duration": 0.24999975000000063,
          "durationTicks": 72,
          "midi": 76,
          "name": "E5",
          "ticks": 4488,
          "time": 15.583317749999999,
          "velocity": 0.8818897637795275
        },
        {
          "duration": 0.0833332500000008,
          "durationTicks": 24,
          "midi": 79,
          "name": "G5",
          "ticks": 4608,
          "time": 15.999984,
          "velocity": 0.8818897637795275
        },
        {
          "duration": 0.08333324999999903,
          "durationTicks": 24,
          "midi": 78,
          "name": "F#5",
          "ticks": 4656,
          "time": 16.1666505,
          "velocity": 0.8818897637795275
        },
        {
          "duration": 0.08333324999999903,
          "durationTicks": 24,
          "midi": 77,
          "name": "F5",
          "ticks": 4704,
          "time": 16.333317,
          "velocity": 0.8818897637795275
        },
        {
          "duration": 0.08333324999999903,
          "durationTicks": 24,
          "midi": 75,
          "name": "D#5",
          "ticks": 4752,
          "time": 16.4999835,
          "velocity": 0.8818897637795275
        },
        {
          "duration": 0.08333324999999903,
          "durationTicks": 24,
          "midi": 74,
          "name": "D5",
          "ticks": 4800,
          "time": 16.66665,
          "velocity": 0.8818897637795275
        },
        {
          "duration": 0.08333325000000258,
          "durationTicks": 24,
          "midi": 72,
          "name": "C5",
          "ticks": 4848,
          "time": 16.8333165,
          "velocity": 0.8818897637795275
        },
        {
          "duration": 0.08333324999999903,
          "durationTicks": 24,
          "midi": 71,
          "name": "B4",
          "ticks": 4896,
          "time": 16.999983,
          "velocity": 0.8818897637795275
        },
        {
          "duration": 0.08333325000000258,
          "durationTicks": 24,
          "midi": 70,
          "name": "A#4",
          "ticks": 4944,
          "time": 17.1666495,
          "velocity": 0.8818897637795275
        },
        {
          "duration": 0.08333324999999903,
          "durationTicks": 24,
          "midi": 71,
          "name": "B4",
          "ticks": 4992,
          "time": 17.333316,
          "velocity": 0.8818897637795275
        },
        {
          "duration": 0.08333325000000258,
          "durationTicks": 24,
          "midi": 72,
          "name": "C5",
          "ticks": 5040,
          "time": 17.499982499999998,
          "velocity": 0.8818897637795275
        },
        {
          "duration": 0.08333324999999903,
          "durationTicks": 24,
          "midi": 74,
          "name": "D5",
          "ticks": 5088,
          "time": 17.666649,
          "velocity": 0.8818897637795275
        },
        {
          "duration": 0.08333324999999903,
          "durationTicks": 24,
          "midi": 75,
          "name": "D#5",
          "ticks": 5136,
          "time": 17.8333155,
          "velocity": 0.8818897637795275
        },
        {
          "duration": 0.33333299999999966,
          "durationTicks": 96,
          "midi": 76,
          "name": "E5",
          "ticks": 5184,
          "time": 17.999982,
          "velocity": 0.8818897637795275
        },
        {
          "duration": 0.33333299999999966,
          "durationTicks": 96,
          "midi": 64,
          "name": "E4",
          "ticks": 5280,
          "time": 18.333315,
          "velocity": 0.8818897637795275
        },
        {
          "duration": 0.1666665000000016,
          "durationTicks": 48,
          "midi": 69,
          "name": "A4",
          "ticks": 5376,
          "time": 18.666648,
          "velocity": 0.8818897637795275
        },
        {
          "duration": 0.1666665000000016,
          "durationTicks": 48,
          "midi": 72,
          "name": "C5",
          "ticks": 5472,
          "time": 18.999981,
          "velocity": 0.8818897637795275
        },
        {
          "duration": 0.24999975000000063,
          "durationTicks": 72,
          "midi": 75,
          "name": "D#5",
          "ticks": 5568,
          "time": 19.333313999999998,
          "velocity": 0.8818897637795275
        },
        {
          "duration": 0.08333325000000258,
          "durationTicks": 24,
          "midi": 76,
          "name": "E5",
          "ticks": 5640,
          "time": 19.58331375,
          "velocity": 0.8818897637795275
        },
        {
          "duration": 0.08333324999999903,
          "durationTicks": 24,
          "midi": 68,
          "name": "G#4",
          "ticks": 5712,
          "time": 19.8333135,
          "velocity": 0.8818897637795275
        },
        {
          "duration": 0.08333324999999903,
          "durationTicks": 24,
          "midi": 69,
          "name": "A4",
          "ticks": 5760,
          "time": 19.99998,
          "velocity": 0.8818897637795275
        },
        {
          "duration": 0.08333324999999903,
          "durationTicks": 24,
          "midi": 72,
          "name": "C5",
          "ticks": 5808,
          "time": 20.1666465,
          "velocity": 0.8818897637795275
        },
        {
          "duration": 0.08333324999999903,
          "durationTicks": 24,
          "midi": 74,
          "name": "D5",
          "ticks": 5856,
          "time": 20.333313,
          "velocity": 0.8818897637795275
        },
        {
          "duration": 0.08333325000000258,
          "durationTicks": 24,
          "midi": 72,
          "name": "C5",
          "ticks": 5904,
          "time": 20.4999795,
          "velocity": 0.8818897637795275
        },
        {
          "duration": 0.08333324999999903,
          "durationTicks": 24,
          "midi": 74,
          "name": "D5",
          "ticks": 5952,
          "time": 20.666646,
          "velocity": 0.8818897637795275
        },
        {
          "duration": 0.08333325000000258,
          "durationTicks": 24,
          "midi": 75,
          "name": "D#5",
          "ticks": 6000,
          "time": 20.833312499999998,
          "velocity": 0.8818897637795275
        },
        {
          "duration": 0.24999974999999708,
          "durationTicks": 72,
          "midi": 76,
          "name": "E5",
          "ticks": 6024,
          "time": 20.91664575,
          "velocity": 0.8818897637795275
        },
        {
          "duration": 0.08333324999999903,
          "durationTicks": 24,
          "midi": 79,
          "name": "G5",
          "ticks": 6144,
          "time": 21.333312,
          "velocity": 0.8818897637795275
        },
        {
          "duration": 0.08333324999999903,
          "durationTicks": 24,
          "midi": 78,
          "name": "F#5",
          "ticks": 6192,
          "time": 21.4999785,
          "velocity": 0.8818897637795275
        },
        {
          "duration": 0.08333324999999903,
          "durationTicks": 24,
          "midi": 77,
          "name": "F5",
          "ticks": 6240,
          "time": 21.666645,
          "velocity": 0.8818897637795275
        },
        {
          "duration": 0.08333324999999903,
          "durationTicks": 24,
          "midi": 75,
          "name": "D#5",
          "ticks": 6288,
          "time": 21.8333115,
          "velocity": 0.8818897637795275
        },
        {
          "duration": 0.08333324999999903,
          "durationTicks": 24,
          "midi": 76,
          "name": "E5",
          "ticks": 6336,
          "time": 21.999978,
          "velocity": 0.8818897637795275
        },
        {
          "duration": 0.08333324999999903,
          "durationTicks": 24,
          "midi": 77,
          "name": "F5",
          "ticks": 6384,
          "time": 22.1666445,
          "velocity": 0.8818897637795275
        },
        {
          "duration": 0.08333325000000258,
          "durationTicks": 24,
          "midi": 78,
          "name": "F#5",
          "ticks": 6432,
          "time": 22.333311,
          "velocity": 0.8818897637795275
        },
        {
          "duration": 0.08333324999999903,
          "durationTicks": 24,
          "midi": 78,
          "name": "F#5",
          "ticks": 6480,
          "time": 22.4999775,
          "velocity": 0.8818897637795275
        },
        {
          "duration": 0.08333325000000258,
          "durationTicks": 24,
          "midi": 80,
          "name": "G#5",
          "ticks": 6528,
          "time": 22.666643999999998,
          "velocity": 0.8818897637795275
        },
        {
          "duration": 0.08333324999999903,
          "durationTicks": 24,
          "midi": 80,
          "name": "G#5",
          "ticks": 6576,
          "time": 22.8333105,
          "velocity": 0.8818897637795275
        },
        {
          "duration": 0.08333325000000258,
          "durationTicks": 24,
          "midi": 81,
          "name": "A5",
          "ticks": 6624,
          "time": 22.999976999999998,
          "velocity": 0.8818897637795275
        },
        {
          "duration": 0.08333324999999903,
          "durationTicks": 24,
          "midi": 81,
          "name": "A5",
          "ticks": 6672,
          "time": 23.1666435,
          "velocity": 0.8818897637795275
        },
        {
          "duration": 0.33333299999999966,
          "durationTicks": 96,
          "midi": 83,
          "name": "B5",
          "ticks": 6720,
          "time": 23.33331,
          "velocity": 0.8818897637795275
        },
        {
          "duration": 0.08333324999999903,
          "durationTicks": 24,
          "midi": 68,
          "name": "G#4",
          "ticks": 6816,
          "time": 23.666643,
          "velocity": 0.8818897637795275
        },
        {
          "duration": 0.08333324999999903,
          "durationTicks": 24,
          "midi": 69,
          "name": "A4",
          "ticks": 6864,
          "time": 23.8333095,
          "velocity": 0.8818897637795275
        },
        {
          "duration": 0.16666649999999805,
          "durationTicks": 48,
          "midi": 69,
          "name": "A4",
          "ticks": 6912,
          "time": 23.999976,
          "velocity": 0.8818897637795275
        },
        {
          "duration": 0.16666649999999805,
          "durationTicks": 48,
          "midi": 72,
          "name": "C5",
          "ticks": 7008,
          "time": 24.333309,
          "velocity": 0.8818897637795275
        },
        {
          "duration": 0.24999975000000063,
          "durationTicks": 72,
          "midi": 75,
          "name": "D#5",
          "ticks": 7104,
          "time": 24.666642,
          "velocity": 0.8818897637795275
        },
        {
          "duration": 0.08333324999999903,
          "durationTicks": 24,
          "midi": 76,
          "name": "E5",
          "ticks": 7176,
          "time": 24.91664175,
          "velocity": 0.8818897637795275
        },
        {
          "duration": 0.08333324999999903,
          "durationTicks": 24,
          "midi": 68,
          "name": "G#4",
          "ticks": 7248,
          "time": 25.1666415,
          "velocity": 0.8818897637795275
        },
        {
          "duration": 0.08333324999999903,
          "durationTicks": 24,
          "midi": 69,
          "name": "A4",
          "ticks": 7296,
          "time": 25.333308,
          "velocity": 0.8818897637795275
        },
        {
          "duration": 0.08333324999999903,
          "durationTicks": 24,
          "midi": 72,
          "name": "C5",
          "ticks": 7344,
          "time": 25.4999745,
          "velocity": 0.8818897637795275
        },
        {
          "duration": 0.08333324999999903,
          "durationTicks": 24,
          "midi": 74,
          "name": "D5",
          "ticks": 7392,
          "time": 25.666641,
          "velocity": 0.8818897637795275
        },
        {
          "duration": 0.08333324999999903,
          "durationTicks": 24,
          "midi": 72,
          "name": "C5",
          "ticks": 7440,
          "time": 25.8333075,
          "velocity": 0.8818897637795275
        },
        {
          "duration": 0.08333325000000258,
          "durationTicks": 24,
          "midi": 74,
          "name": "D5",
          "ticks": 7488,
          "time": 25.999973999999998,
          "velocity": 0.8818897637795275
        },
        {
          "duration": 0.08333324999999903,
          "durationTicks": 24,
          "midi": 75,
          "name": "D#5",
          "ticks": 7536,
          "time": 26.1666405,
          "velocity": 0.8818897637795275
        },
        {
          "duration": 0.24999975000000063,
          "durationTicks": 72,
          "midi": 76,
          "name": "E5",
          "ticks": 7560,
          "time": 26.24997375,
          "velocity": 0.8818897637795275
        },
        {
          "duration": 0.08333324999999903,
          "durationTicks": 24,
          "midi": 79,
          "name": "G5",
          "ticks": 7680,
          "time": 26.66664,
          "velocity": 0.8818897637795275
        },
        {
          "duration": 0.08333324999999903,
          "durationTicks": 24,
          "midi": 78,
          "name": "F#5",
          "ticks": 7728,
          "time": 26.8333065,
          "velocity": 0.8818897637795275
        },
        {
          "duration": 0.08333324999999903,
          "durationTicks": 24,
          "midi": 77,
          "name": "F5",
          "ticks": 7776,
          "time": 26.999973,
          "velocity": 0.8818897637795275
        },
        {
          "duration": 0.08333324999999903,
          "durationTicks": 24,
          "midi": 75,
          "name": "D#5",
          "ticks": 7824,
          "time": 27.1666395,
          "velocity": 0.8818897637795275
        },
        {
          "duration": 0.08333324999999903,
          "durationTicks": 24,
          "midi": 74,
          "name": "D5",
          "ticks": 7872,
          "time": 27.333306,
          "velocity": 0.8818897637795275
        },
        {
          "duration": 0.08333325000000258,
          "durationTicks": 24,
          "midi": 72,
          "name": "C5",
          "ticks": 7920,
          "time": 27.4999725,
          "velocity": 0.8818897637795275
        },
        {
          "duration": 0.08333324999999903,
          "durationTicks": 24,
          "midi": 71,
          "name": "B4",
          "ticks": 7968,
          "time": 27.666639,
          "velocity": 0.8818897637795275
        },
        {
          "duration": 0.08333325000000258,
          "durationTicks": 24,
          "midi": 70,
          "name": "A#4",
          "ticks": 8016,
          "time": 27.833305499999998,
          "velocity": 0.8818897637795275
        },
        {
          "duration": 0.08333324999999903,
          "durationTicks": 24,
          "midi": 71,
          "name": "B4",
          "ticks": 8064,
          "time": 27.999972,
          "velocity": 0.8818897637795275
        },
        {
          "duration": 0.08333325000000258,
          "durationTicks": 24,
          "midi": 72,
          "name": "C5",
          "ticks": 8112,
          "time": 28.166638499999998,
          "velocity": 0.8818897637795275
        },
        {
          "duration": 0.08333324999999903,
          "durationTicks": 24,
          "midi": 74,
          "name": "D5",
          "ticks": 8160,
          "time": 28.333305,
          "velocity": 0.8818897637795275
        },
        {
          "duration": 0.08333324999999903,
          "durationTicks": 24,
          "midi": 75,
          "name": "D#5",
          "ticks": 8208,
          "time": 28.4999715,
          "velocity": 0.8818897637795275
        },
        {
          "duration": 0.33333299999999966,
          "durationTicks": 96,
          "midi": 76,
          "name": "E5",
          "ticks": 8256,
          "time": 28.666638,
          "velocity": 0.8818897637795275
        },
        {
          "duration": 0.33333299999999966,
          "durationTicks": 96,
          "midi": 64,
          "name": "E4",
          "ticks": 8352,
          "time": 28.999971,
          "velocity": 0.8818897637795275
        },
        {
          "duration": 0.1666665000000016,
          "durationTicks": 48,
          "midi": 69,
          "name": "A4",
          "ticks": 8448,
          "time": 29.333304,
          "velocity": 0.8818897637795275
        },
        {
          "duration": 0.1666665000000016,
          "durationTicks": 48,
          "midi": 72,
          "name": "C5",
          "ticks": 8544,
          "time": 29.666636999999998,
          "velocity": 0.8818897637795275
        },
        {
          "duration": 0.24999975000000063,
          "durationTicks": 72,
          "midi": 75,
          "name": "D#5",
          "ticks": 8640,
          "time": 29.999969999999998,
          "velocity": 0.8818897637795275
        },
        {
          "duration": 0.08333325000000258,
          "durationTicks": 24,
          "midi": 76,
          "name": "E5",
          "ticks": 8712,
          "time": 30.249969749999998,
          "velocity": 0.8818897637795275
        },
        {
          "duration": 0.08333324999999903,
          "durationTicks": 24,
          "midi": 68,
          "name": "G#4",
          "ticks": 8784,
          "time": 30.4999695,
          "velocity": 0.8818897637795275
        },
        {
          "duration": 0.08333324999999903,
          "durationTicks": 24,
          "midi": 69,
          "name": "A4",
          "ticks": 8832,
          "time": 30.666636,
          "velocity": 0.8818897637795275
        },
        {
          "duration": 0.08333324999999903,
          "durationTicks": 24,
          "midi": 72,
          "name": "C5",
          "ticks": 8880,
          "time": 30.8333025,
          "velocity": 0.8818897637795275
        },
        {
          "duration": 0.08333324999999903,
          "durationTicks": 24,
          "midi": 74,
          "name": "D5",
          "ticks": 8928,
          "time": 30.999969,
          "velocity": 0.8818897637795275
        },
        {
          "duration": 0.08333325000000258,
          "durationTicks": 24,
          "midi": 72,
          "name": "C5",
          "ticks": 8976,
          "time": 31.166635499999998,
          "velocity": 0.8818897637795275
        },
        {
          "duration": 0.08333324999999903,
          "durationTicks": 24,
          "midi": 74,
          "name": "D5",
          "ticks": 9024,
          "time": 31.333302,
          "velocity": 0.8818897637795275
        },
        {
          "duration": 0.08333325000000258,
          "durationTicks": 24,
          "midi": 75,
          "name": "D#5",
          "ticks": 9072,
          "time": 31.499968499999998,
          "velocity": 0.8818897637795275
        },
        {
          "duration": 0.24999974999999708,
          "durationTicks": 72,
          "midi": 76,
          "name": "E5",
          "ticks": 9096,
          "time": 31.58330175,
          "velocity": 0.8818897637795275
        },
        {
          "duration": 0.08333324999999903,
          "durationTicks": 24,
          "midi": 79,
          "name": "G5",
          "ticks": 9216,
          "time": 31.999968,
          "velocity": 0.8818897637795275
        },
        {
          "duration": 0.08333324999999547,
          "durationTicks": 24,
          "midi": 78,
          "name": "F#5",
          "ticks": 9264,
          "time": 32.1666345,
          "velocity": 0.8818897637795275
        },
        {
          "duration": 0.08333325000000258,
          "durationTicks": 24,
          "midi": 77,
          "name": "F5",
          "ticks": 9312,
          "time": 32.333301,
          "velocity": 0.8818897637795275
        },
        {
          "duration": 0.08333325000000258,
          "durationTicks": 24,
          "midi": 75,
          "name": "D#5",
          "ticks": 9360,
          "time": 32.4999675,
          "velocity": 0.8818897637795275
        },
        {
          "duration": 0.08333324999999547,
          "durationTicks": 24,
          "midi": 76,
          "name": "E5",
          "ticks": 9408,
          "time": 32.666634,
          "velocity": 0.8818897637795275
        },
        {
          "duration": 0.08333325000000258,
          "durationTicks": 24,
          "midi": 77,
          "name": "F5",
          "ticks": 9456,
          "time": 32.8333005,
          "velocity": 0.8818897637795275
        },
        {
          "duration": 0.08333325000000258,
          "durationTicks": 24,
          "midi": 78,
          "name": "F#5",
          "ticks": 9504,
          "time": 32.999967,
          "velocity": 0.8818897637795275
        },
        {
          "duration": 0.08333325000000258,
          "durationTicks": 24,
          "midi": 78,
          "name": "F#5",
          "ticks": 9552,
          "time": 33.166633499999996,
          "velocity": 0.8818897637795275
        },
        {
          "duration": 0.08333324999999547,
          "durationTicks": 24,
          "midi": 80,
          "name": "G#5",
          "ticks": 9600,
          "time": 33.3333,
          "velocity": 0.8818897637795275
        },
        {
          "duration": 0.08333325000000258,
          "durationTicks": 24,
          "midi": 80,
          "name": "G#5",
          "ticks": 9648,
          "time": 33.4999665,
          "velocity": 0.8818897637795275
        },
        {
          "duration": 0.08333325000000258,
          "durationTicks": 24,
          "midi": 81,
          "name": "A5",
          "ticks": 9696,
          "time": 33.666633,
          "velocity": 0.8818897637795275
        },
        {
          "duration": 0.08333324999999547,
          "durationTicks": 24,
          "midi": 81,
          "name": "A5",
          "ticks": 9744,
          "time": 33.8332995,
          "velocity": 0.8818897637795275
        },
        {
          "duration": 0.6666659999999993,
          "durationTicks": 192,
          "midi": 83,
          "name": "B5",
          "ticks": 9792,
          "time": 33.999966,
          "velocity": 0.8818897637795275
        },
        {
          "duration": 0.08333325000000258,
          "durationTicks": 24,
          "midi": 76,
          "name": "E5",
          "ticks": 9984,
          "time": 34.666632,
          "velocity": 0.7244094488188977
        },
        {
          "duration": 0.08333325000000258,
          "durationTicks": 24,
          "midi": 74,
          "name": "D5",
          "ticks": 10032,
          "time": 34.8332985,
          "velocity": 0.7244094488188977
        },
        {
          "duration": 0.08333325000000258,
          "durationTicks": 24,
          "midi": 76,
          "name": "E5",
          "ticks": 10080,
          "time": 34.999964999999996,
          "velocity": 0.7244094488188977
        },
        {
          "duration": 0.08333324999999547,
          "durationTicks": 24,
          "midi": 77,
          "name": "F5",
          "ticks": 10128,
          "time": 35.1666315,
          "velocity": 0.7244094488188977
        },
        {
          "duration": 0.08333325000000258,
          "durationTicks": 24,
          "midi": 76,
          "name": "E5",
          "ticks": 10176,
          "time": 35.333298,
          "velocity": 0.7244094488188977
        },
        {
          "duration": 0.08333325000000258,
          "durationTicks": 24,
          "midi": 74,
          "name": "D5",
          "ticks": 10224,
          "time": 35.4999645,
          "velocity": 0.7244094488188977
        },
        {
          "duration": 0.08333324999999547,
          "durationTicks": 24,
          "midi": 72,
          "name": "C5",
          "ticks": 10272,
          "time": 35.666631,
          "velocity": 0.7244094488188977
        },
        {
          "duration": 0.08333324999999547,
          "durationTicks": 24,
          "midi": 74,
          "name": "D5",
          "ticks": 10320,
          "time": 35.8332975,
          "velocity": 0.7244094488188977
        },
        {
          "duration": 0.08333325000000258,
          "durationTicks": 24,
          "midi": 76,
          "name": "E5",
          "ticks": 10368,
          "time": 35.999964,
          "velocity": 0.7244094488188977
        },
        {
          "duration": 0.08333325000000258,
          "durationTicks": 24,
          "midi": 74,
          "name": "D5",
          "ticks": 10416,
          "time": 36.1666305,
          "velocity": 0.7244094488188977
        },
        {
          "duration": 0.08333324999999547,
          "durationTicks": 24,
          "midi": 76,
          "name": "E5",
          "ticks": 10464,
          "time": 36.333297,
          "velocity": 0.7244094488188977
        },
        {
          "duration": 0.08333325000000258,
          "durationTicks": 24,
          "midi": 77,
          "name": "F5",
          "ticks": 10512,
          "time": 36.4999635,
          "velocity": 0.7244094488188977
        },
        {
          "duration": 0.08333325000000258,
          "durationTicks": 24,
          "midi": 76,
          "name": "E5",
          "ticks": 10560,
          "time": 36.66663,
          "velocity": 0.7244094488188977
        },
        {
          "duration": 0.08333325000000258,
          "durationTicks": 24,
          "midi": 74,
          "name": "D5",
          "ticks": 10608,
          "time": 36.833296499999996,
          "velocity": 0.7244094488188977
        },
        {
          "duration": 0.08333324999999547,
          "durationTicks": 24,
          "midi": 72,
          "name": "C5",
          "ticks": 10656,
          "time": 36.999963,
          "velocity": 0.7244094488188977
        },
        {
          "duration": 0.08333325000000258,
          "durationTicks": 24,
          "midi": 71,
          "name": "B4",
          "ticks": 10704,
          "time": 37.1666295,
          "velocity": 0.7244094488188977
        },
        {
          "duration": 0.3333330000000032,
          "durationTicks": 96,
          "midi": 69,
          "name": "A4",
          "ticks": 10752,
          "time": 37.333296,
          "velocity": 0.7244094488188977
        },
        {
          "duration": 0.08333324999999547,
          "durationTicks": 24,
          "midi": 81,
          "name": "A5",
          "ticks": 10848,
          "time": 37.666629,
          "velocity": 0.7244094488188977
        },
        {
          "duration": 0.08333325000000258,
          "durationTicks": 24,
          "midi": 69,
          "name": "A4",
          "ticks": 10896,
          "time": 37.8332955,
          "velocity": 0.7244094488188977
        },
        {
          "duration": 0.08333325000000258,
          "durationTicks": 24,
          "midi": 80,
          "name": "G#5",
          "ticks": 10944,
          "time": 37.999962,
          "velocity": 0.7244094488188977
        },
        {
          "duration": 0.08333324999999547,
          "durationTicks": 24,
          "midi": 69,
          "name": "A4",
          "ticks": 10992,
          "time": 38.1666285,
          "velocity": 0.7244094488188977
        },
        {
          "duration": 0.08333325000000258,
          "durationTicks": 24,
          "midi": 79,
          "name": "G5",
          "ticks": 11040,
          "time": 38.333295,
          "velocity": 0.7244094488188977
        },
        {
          "duration": 0.08333325000000258,
          "durationTicks": 24,
          "midi": 69,
          "name": "A4",
          "ticks": 11088,
          "time": 38.4999615,
          "velocity": 0.7244094488188977
        },
        {
          "duration": 0.08333325000000258,
          "durationTicks": 24,
          "midi": 78,
          "name": "F#5",
          "ticks": 11136,
          "time": 38.666627999999996,
          "velocity": 0.7244094488188977
        },
        {
          "duration": 0.08333324999999547,
          "durationTicks": 24,
          "midi": 69,
          "name": "A4",
          "ticks": 11184,
          "time": 38.8332945,
          "velocity": 0.7244094488188977
        },
        {
          "duration": 0.08333325000000258,
          "durationTicks": 24,
          "midi": 77,
          "name": "F5",
          "ticks": 11232,
          "time": 38.999961,
          "velocity": 0.7244094488188977
        },
        {
          "duration": 0.08333325000000258,
          "durationTicks": 24,
          "midi": 69,
          "name": "A4",
          "ticks": 11280,
          "time": 39.1666275,
          "velocity": 0.7244094488188977
        },
        {
          "duration": 0.08333324999999547,
          "durationTicks": 24,
          "midi": 75,
          "name": "D#5",
          "ticks": 11328,
          "time": 39.333294,
          "velocity": 0.7244094488188977
        },
        {
          "duration": 0.08333324999999547,
          "durationTicks": 24,
          "midi": 69,
          "name": "A4",
          "ticks": 11376,
          "time": 39.4999605,
          "velocity": 0.7244094488188977
        },
        {
          "duration": 0.08333325000000258,
          "durationTicks": 24,
          "midi": 76,
          "name": "E5",
          "ticks": 11424,
          "time": 39.666627,
          "velocity": 0.7244094488188977
        },
        {
          "duration": 0.08333325000000258,
          "durationTicks": 24,
          "midi": 69,
          "name": "A4",
          "ticks": 11472,
          "time": 39.833293499999996,
          "velocity": 0.7244094488188977
        },
        {
          "duration": 0.08333324999999547,
          "durationTicks": 24,
          "midi": 76,
          "name": "E5",
          "ticks": 11520,
          "time": 39.99996,
          "velocity": 0.7244094488188977
        },
        {
          "duration": 0.08333325000000258,
          "durationTicks": 24,
          "midi": 75,
          "name": "D#5",
          "ticks": 11568,
          "time": 40.1666265,
          "velocity": 0.7244094488188977
        },
        {
          "duration": 0.08333325000000258,
          "durationTicks": 24,
          "midi": 76,
          "name": "E5",
          "ticks": 11616,
          "time": 40.333293,
          "velocity": 0.7244094488188977
        },
        {
          "duration": 0.08333325000000258,
          "durationTicks": 24,
          "midi": 77,
          "name": "F5",
          "ticks": 11664,
          "time": 40.499959499999996,
          "velocity": 0.7244094488188977
        },
        {
          "duration": 0.08333324999999547,
          "durationTicks": 24,
          "midi": 76,
          "name": "E5",
          "ticks": 11712,
          "time": 40.666626,
          "velocity": 0.7244094488188977
        },
        {
          "duration": 0.08333325000000258,
          "durationTicks": 24,
          "midi": 74,
          "name": "D5",
          "ticks": 11760,
          "time": 40.8332925,
          "velocity": 0.7244094488188977
        },
        {
          "duration": 0.08333325000000258,
          "durationTicks": 24,
          "midi": 72,
          "name": "C5",
          "ticks": 11808,
          "time": 40.999959,
          "velocity": 0.7244094488188977
        },
        {
          "duration": 0.08333324999999547,
          "durationTicks": 24,
          "midi": 74,
          "name": "D5",
          "ticks": 11856,
          "time": 41.1666255,
          "velocity": 0.7244094488188977
        },
        {
          "duration": 0.08333324999999547,
          "durationTicks": 24,
          "midi": 76,
          "name": "E5",
          "ticks": 11904,
          "time": 41.333292,
          "velocity": 0.7244094488188977
        },
        {
          "duration": 0.08333325000000258,
          "durationTicks": 24,
          "midi": 74,
          "name": "D5",
          "ticks": 11952,
          "time": 41.4999585,
          "velocity": 0.7244094488188977
        },
        {
          "duration": 0.08333325000000258,
          "durationTicks": 24,
          "midi": 76,
          "name": "E5",
          "ticks": 12000,
          "time": 41.666624999999996,
          "velocity": 0.7244094488188977
        },
        {
          "duration": 0.08333324999999547,
          "durationTicks": 24,
          "midi": 77,
          "name": "F5",
          "ticks": 12048,
          "time": 41.8332915,
          "velocity": 0.7244094488188977
        },
        {
          "duration": 0.08333325000000258,
          "durationTicks": 24,
          "midi": 76,
          "name": "E5",
          "ticks": 12096,
          "time": 41.999958,
          "velocity": 0.7244094488188977
        },
        {
          "duration": 0.08333325000000258,
          "durationTicks": 24,
          "midi": 74,
          "name": "D5",
          "ticks": 12144,
          "time": 42.1666245,
          "velocity": 0.7244094488188977
        },
        {
          "duration": 0.08333325000000258,
          "durationTicks": 24,
          "midi": 72,
          "name": "C5",
          "ticks": 12192,
          "time": 42.333290999999996,
          "velocity": 0.7244094488188977
        },
        {
          "duration": 0.08333324999999547,
          "durationTicks": 24,
          "midi": 74,
          "name": "D5",
          "ticks": 12240,
          "time": 42.4999575,
          "velocity": 0.7244094488188977
        },
        {
          "duration": 0.16666649999999805,
          "durationTicks": 48,
          "midi": 76,
          "name": "E5",
          "ticks": 12288,
          "time": 42.666624,
          "velocity": 0.7244094488188977
        },
        {
          "duration": 0.08333325000000258,
          "durationTicks": 24,
          "midi": 74,
          "name": "D5",
          "ticks": 12336,
          "time": 42.8332905,
          "velocity": 0.7244094488188977
        },
        {
          "duration": 0.16666649999999805,
          "durationTicks": 48,
          "midi": 81,
          "name": "A5",
          "ticks": 12384,
          "time": 42.999957,
          "velocity": 0.7244094488188977
        },
        {
          "duration": 0.08333324999999547,
          "durationTicks": 24,
          "midi": 76,
          "name": "E5",
          "ticks": 12432,
          "time": 43.1666235,
          "velocity": 0.7244094488188977
        },
        {
          "duration": 0.16666649999999805,
          "durationTicks": 48,
          "midi": 83,
          "name": "B5",
          "ticks": 12480,
          "time": 43.33329,
          "velocity": 0.7244094488188977
        },
        {
          "duration": 0.08333325000000258,
          "durationTicks": 24,
          "midi": 76,
          "name": "E5",
          "ticks": 12528,
          "time": 43.499956499999996,
          "velocity": 0.7244094488188977
        },
        {
          "duration": 0.16666649999999805,
          "durationTicks": 48,
          "midi": 84,
          "name": "C6",
          "ticks": 12576,
          "time": 43.666623,
          "velocity": 0.7244094488188977
        },
        {
          "duration": 0.08333325000000258,
          "durationTicks": 24,
          "midi": 76,
          "name": "E5",
          "ticks": 12624,
          "time": 43.8332895,
          "velocity": 0.7244094488188977
        },
        {
          "duration": 0.16666649999999805,
          "durationTicks": 48,
          "midi": 85,
          "name": "C#6",
          "ticks": 12672,
          "time": 43.999956,
          "velocity": 0.7244094488188977
        },
        {
          "duration": 0.08333325000000258,
          "durationTicks": 24,
          "midi": 76,
          "name": "E5",
          "ticks": 12720,
          "time": 44.166622499999995,
          "velocity": 0.7244094488188977
        },
        {
          "duration": 0.16666649999999805,
          "durationTicks": 48,
          "midi": 86,
          "name": "D6",
          "ticks": 12768,
          "time": 44.333289,
          "velocity": 0.7244094488188977
        },
        {
          "duration": 0.08333325000000258,
          "durationTicks": 24,
          "midi": 76,
          "name": "E5",
          "ticks": 12816,
          "time": 44.4999555,
          "velocity": 0.7244094488188977
        },
        {
          "duration": 0.16666650000000516,
          "durationTicks": 48,
          "midi": 89,
          "name": "F6",
          "ticks": 12864,
          "time": 44.666622,
          "velocity": 0.7244094488188977
        },
        {
          "duration": 0.08333324999999547,
          "durationTicks": 24,
          "midi": 76,
          "name": "E5",
          "ticks": 12912,
          "time": 44.8332885,
          "velocity": 0.7244094488188977
        },
        {
          "duration": 0.16666649999999805,
          "durationTicks": 48,
          "midi": 87,
          "name": "D#6",
          "ticks": 12960,
          "time": 44.999955,
          "velocity": 0.7244094488188977
        },
        {
          "duration": 0.08333325000000258,
          "durationTicks": 24,
          "midi": 76,
          "name": "E5",
          "ticks": 13056,
          "time": 45.333287999999996,
          "velocity": 0.7244094488188977
        },
        {
          "duration": 0.08333324999999547,
          "durationTicks": 24,
          "midi": 74,
          "name": "D5",
          "ticks": 13104,
          "time": 45.4999545,
          "velocity": 0.7244094488188977
        },
        {
          "duration": 0.08333325000000258,
          "durationTicks": 24,
          "midi": 76,
          "name": "E5",
          "ticks": 13152,
          "time": 45.666621,
          "velocity": 0.7244094488188977
        },
        {
          "duration": 0.08333325000000258,
          "durationTicks": 24,
          "midi": 77,
          "name": "F5",
          "ticks": 13200,
          "time": 45.8332875,
          "velocity": 0.7244094488188977
        },
        {
          "duration": 0.08333325000000258,
          "durationTicks": 24,
          "midi": 76,
          "name": "E5",
          "ticks": 13248,
          "time": 45.999953999999995,
          "velocity": 0.7244094488188977
        },
        {
          "duration": 0.08333324999999547,
          "durationTicks": 24,
          "midi": 74,
          "name": "D5",
          "ticks": 13296,
          "time": 46.1666205,
          "velocity": 0.7244094488188977
        },
        {
          "duration": 0.08333325000000258,
          "durationTicks": 24,
          "midi": 72,
          "name": "C5",
          "ticks": 13344,
          "time": 46.333287,
          "velocity": 0.7244094488188977
        },
        {
          "duration": 0.08333325000000258,
          "durationTicks": 24,
          "midi": 74,
          "name": "D5",
          "ticks": 13392,
          "time": 46.4999535,
          "velocity": 0.7244094488188977
        },
        {
          "duration": 0.08333324999999547,
          "durationTicks": 24,
          "midi": 76,
          "name": "E5",
          "ticks": 13440,
          "time": 46.66662,
          "velocity": 0.7244094488188977
        },
        {
          "duration": 0.08333324999999547,
          "durationTicks": 24,
          "midi": 75,
          "name": "D#5",
          "ticks": 13488,
          "time": 46.8332865,
          "velocity": 0.7244094488188977
        },
        {
          "duration": 0.08333325000000258,
          "durationTicks": 24,
          "midi": 76,
          "name": "E5",
          "ticks": 13536,
          "time": 46.999953,
          "velocity": 0.7244094488188977
        },
        {
          "duration": 0.08333325000000258,
          "durationTicks": 24,
          "midi": 77,
          "name": "F5",
          "ticks": 13584,
          "time": 47.166619499999996,
          "velocity": 0.7244094488188977
        },
        {
          "duration": 0.08333324999999547,
          "durationTicks": 24,
          "midi": 76,
          "name": "E5",
          "ticks": 13632,
          "time": 47.333286,
          "velocity": 0.7244094488188977
        },
        {
          "duration": 0.08333325000000258,
          "durationTicks": 24,
          "midi": 74,
          "name": "D5",
          "ticks": 13680,
          "time": 47.4999525,
          "velocity": 0.7244094488188977
        },
        {
          "duration": 0.08333325000000258,
          "durationTicks": 24,
          "midi": 72,
          "name": "C5",
          "ticks": 13728,
          "time": 47.666619,
          "velocity": 0.7244094488188977
        },
        {
          "duration": 0.08333325000000258,
          "durationTicks": 24,
          "midi": 71,
          "name": "B4",
          "ticks": 13776,
          "time": 47.833285499999995,
          "velocity": 0.7244094488188977
        },
        {
          "duration": 0.24999975000000063,
          "durationTicks": 72,
          "midi": 69,
          "name": "A4",
          "ticks": 13824,
          "time": 47.999952,
          "velocity": 0.7244094488188977
        },
        {
          "duration": 0.08333325000000258,
          "durationTicks": 24,
          "midi": 81,
          "name": "A5",
          "ticks": 13920,
          "time": 48.333285,
          "velocity": 0.7244094488188977
        },
        {
          "duration": 0.08333324999999547,
          "durationTicks": 24,
          "midi": 69,
          "name": "A4",
          "ticks": 13968,
          "time": 48.4999515,
          "velocity": 0.7244094488188977
        },
        {
          "duration": 0.08333324999999547,
          "durationTicks": 24,
          "midi": 80,
          "name": "G#5",
          "ticks": 14016,
          "time": 48.666618,
          "velocity": 0.7244094488188977
        },
        {
          "duration": 0.08333325000000258,
          "durationTicks": 24,
          "midi": 69,
          "name": "A4",
          "ticks": 14064,
          "time": 48.8332845,
          "velocity": 0.7244094488188977
        },
        {
          "duration": 0.08333325000000258,
          "durationTicks": 24,
          "midi": 79,
          "name": "G5",
          "ticks": 14112,
          "time": 48.999950999999996,
          "velocity": 0.7244094488188977
        },
        {
          "duration": 0.08333324999999547,
          "durationTicks": 24,
          "midi": 69,
          "name": "A4",
          "ticks": 14160,
          "time": 49.1666175,
          "velocity": 0.7244094488188977
        },
        {
          "duration": 0.08333325000000258,
          "durationTicks": 24,
          "midi": 78,
          "name": "F#5",
          "ticks": 14208,
          "time": 49.333284,
          "velocity": 0.7244094488188977
        },
        {
          "duration": 0.08333325000000258,
          "durationTicks": 24,
          "midi": 69,
          "name": "A4",
          "ticks": 14256,
          "time": 49.4999505,
          "velocity": 0.7244094488188977
        },
        {
          "duration": 0.08333325000000258,
          "durationTicks": 24,
          "midi": 77,
          "name": "F5",
          "ticks": 14304,
          "time": 49.666616999999995,
          "velocity": 0.7244094488188977
        },
        {
          "duration": 0.08333324999999547,
          "durationTicks": 24,
          "midi": 69,
          "name": "A4",
          "ticks": 14352,
          "time": 49.8332835,
          "velocity": 0.7244094488188977
        },
        {
          "duration": 0.08333325000000258,
          "durationTicks": 24,
          "midi": 75,
          "name": "D#5",
          "ticks": 14400,
          "time": 49.99995,
          "velocity": 0.7244094488188977
        },
        {
          "duration": 0.08333325000000258,
          "durationTicks": 24,
          "midi": 69,
          "name": "A4",
          "ticks": 14448,
          "time": 50.166616499999996,
          "velocity": 0.7244094488188977
        },
        {
          "duration": 0.08333324999999547,
          "durationTicks": 24,
          "midi": 76,
          "name": "E5",
          "ticks": 14496,
          "time": 50.333283,
          "velocity": 0.7244094488188977
        },
        {
          "duration": 0.08333324999999547,
          "durationTicks": 24,
          "midi": 69,
          "name": "A4",
          "ticks": 14544,
          "time": 50.4999495,
          "velocity": 0.7244094488188977
        },
        {
          "duration": 0.08333325000000258,
          "durationTicks": 24,
          "midi": 76,
          "name": "E5",
          "ticks": 14592,
          "time": 50.666616,
          "velocity": 0.7244094488188977
        },
        {
          "duration": 0.08333325000000258,
          "durationTicks": 24,
          "midi": 75,
          "name": "D#5",
          "ticks": 14640,
          "time": 50.833282499999996,
          "velocity": 0.7244094488188977
        },
        {
          "duration": 0.08333324999999547,
          "durationTicks": 24,
          "midi": 76,
          "name": "E5",
          "ticks": 14688,
          "time": 50.999949,
          "velocity": 0.7244094488188977
        },
        {
          "duration": 0.08333325000000258,
          "durationTicks": 24,
          "midi": 77,
          "name": "F5",
          "ticks": 14736,
          "time": 51.1666155,
          "velocity": 0.7244094488188977
        },
        {
          "duration": 0.08333325000000258,
          "durationTicks": 24,
          "midi": 76,
          "name": "E5",
          "ticks": 14784,
          "time": 51.333282,
          "velocity": 0.7244094488188977
        },
        {
          "duration": 0.08333325000000258,
          "durationTicks": 24,
          "midi": 74,
          "name": "D5",
          "ticks": 14832,
          "time": 51.499948499999995,
          "velocity": 0.7244094488188977
        },
        {
          "duration": 0.08333324999999547,
          "durationTicks": 24,
          "midi": 72,
          "name": "C5",
          "ticks": 14880,
          "time": 51.666615,
          "velocity": 0.7244094488188977
        },
        {
          "duration": 0.08333325000000258,
          "durationTicks": 24,
          "midi": 74,
          "name": "D5",
          "ticks": 14928,
          "time": 51.8332815,
          "velocity": 0.7244094488188977
        },
        {
          "duration": 0.08333325000000258,
          "durationTicks": 24,
          "midi": 76,
          "name": "E5",
          "ticks": 14976,
          "time": 51.999947999999996,
          "velocity": 0.7244094488188977
        },
        {
          "duration": 0.08333324999999547,
          "durationTicks": 24,
          "midi": 75,
          "name": "D#5",
          "ticks": 15024,
          "time": 52.1666145,
          "velocity": 0.7244094488188977
        },
        {
          "duration": 0.08333324999999547,
          "durationTicks": 24,
          "midi": 76,
          "name": "E5",
          "ticks": 15072,
          "time": 52.333281,
          "velocity": 0.7244094488188977
        },
        {
          "duration": 0.08333325000000258,
          "durationTicks": 24,
          "midi": 77,
          "name": "F5",
          "ticks": 15120,
          "time": 52.4999475,
          "velocity": 0.7244094488188977
        },
        {
          "duration": 0.08333325000000258,
          "durationTicks": 24,
          "midi": 76,
          "name": "E5",
          "ticks": 15168,
          "time": 52.666613999999996,
          "velocity": 0.7244094488188977
        },
        {
          "duration": 0.08333324999999547,
          "durationTicks": 24,
          "midi": 74,
          "name": "D5",
          "ticks": 15216,
          "time": 52.8332805,
          "velocity": 0.7244094488188977
        },
        {
          "duration": 0.08333325000000258,
          "durationTicks": 24,
          "midi": 72,
          "name": "C5",
          "ticks": 15264,
          "time": 52.999947,
          "velocity": 0.7244094488188977
        },
        {
          "duration": 0.08333325000000258,
          "durationTicks": 24,
          "midi": 71,
          "name": "B4",
          "ticks": 15312,
          "time": 53.1666135,
          "velocity": 0.7244094488188977
        },
        {
          "duration": 0.08333324999999547,
          "durationTicks": 24,
          "midi": 69,
          "name": "A4",
          "ticks": 15360,
          "time": 53.33328,
          "velocity": 0.7244094488188977
        },
        {
          "duration": 0.16666649999999805,
          "durationTicks": 48,
          "midi": 69,
          "name": "A4",
          "ticks": 16128,
          "time": 55.999944,
          "velocity": 0.7874015748031497
        },
        {
          "duration": 0.16666650000000516,
          "durationTicks": 48,
          "midi": 72,
          "name": "C5",
          "ticks": 16224,
          "time": 56.333276999999995,
          "velocity": 0.7874015748031497
        },
        {
          "duration": 0.24999975000000063,
          "durationTicks": 72,
          "midi": 75,
          "name": "D#5",
          "ticks": 16320,
          "time": 56.66661,
          "velocity": 0.7874015748031497
        },
        {
          "duration": 0.08333325000000258,
          "durationTicks": 24,
          "midi": 76,
          "name": "E5",
          "ticks": 16392,
          "time": 56.91660975,
          "velocity": 0.7874015748031497
        },
        {
          "duration": 0.08333324999999547,
          "durationTicks": 24,
          "midi": 68,
          "name": "G#4",
          "ticks": 16464,
          "time": 57.1666095,
          "velocity": 0.7874015748031497
        },
        {
          "duration": 0.08333325000000258,
          "durationTicks": 24,
          "midi": 69,
          "name": "A4",
          "ticks": 16512,
          "time": 57.333276,
          "velocity": 0.7874015748031497
        },
        {
          "duration": 0.08333325000000258,
          "durationTicks": 24,
          "midi": 72,
          "name": "C5",
          "ticks": 16560,
          "time": 57.499942499999996,
          "velocity": 0.7874015748031497
        },
        {
          "duration": 0.08333324999999547,
          "durationTicks": 24,
          "midi": 74,
          "name": "D5",
          "ticks": 16608,
          "time": 57.666609,
          "velocity": 0.7874015748031497
        },
        {
          "duration": 0.08333325000000258,
          "durationTicks": 24,
          "midi": 72,
          "name": "C5",
          "ticks": 16656,
          "time": 57.8332755,
          "velocity": 0.7874015748031497
        },
        {
          "duration": 0.08333325000000258,
          "durationTicks": 24,
          "midi": 74,
          "name": "D5",
          "ticks": 16704,
          "time": 57.999942,
          "velocity": 0.7874015748031497
        },
        {
          "duration": 0.08333325000000258,
          "durationTicks": 24,
          "midi": 75,
          "name": "D#5",
          "ticks": 16752,
          "time": 58.166608499999995,
          "velocity": 0.7874015748031497
        },
        {
          "duration": 0.08333325000000258,
          "durationTicks": 24,
          "midi": 76,
          "name": "E5",
          "ticks": 16776,
          "time": 58.24994175,
          "velocity": 0.7874015748031497
        },
        {
          "duration": 0.08333325000000258,
          "durationTicks": 24,
          "midi": 79,
          "name": "G5",
          "ticks": 16896,
          "time": 58.666608,
          "velocity": 0.7874015748031497
        },
        {
          "duration": 0.08333324999999547,
          "durationTicks": 24,
          "midi": 78,
          "name": "F#5",
          "ticks": 16944,
          "time": 58.8332745,
          "velocity": 0.7874015748031497
        },
        {
          "duration": 0.08333324999999547,
          "durationTicks": 24,
          "midi": 77,
          "name": "F5",
          "ticks": 16992,
          "time": 58.999941,
          "velocity": 0.7874015748031497
        },
        {
          "duration": 0.08333325000000258,
          "durationTicks": 24,
          "midi": 75,
          "name": "D#5",
          "ticks": 17040,
          "time": 59.1666075,
          "velocity": 0.7874015748031497
        },
        {
          "duration": 0.08333325000000258,
          "durationTicks": 24,
          "midi": 74,
          "name": "D5",
          "ticks": 17088,
          "time": 59.333273999999996,
          "velocity": 0.7874015748031497
        },
        {
          "duration": 0.08333324999999547,
          "durationTicks": 24,
          "midi": 72,
          "name": "C5",
          "ticks": 17136,
          "time": 59.4999405,
          "velocity": 0.7874015748031497
        },
        {
          "duration": 0.08333325000000258,
          "durationTicks": 24,
          "midi": 71,
          "name": "B4",
          "ticks": 17184,
          "time": 59.666607,
          "velocity": 0.7874015748031497
        },
        {
          "duration": 0.08333325000000258,
          "durationTicks": 24,
          "midi": 70,
          "name": "A#4",
          "ticks": 17232,
          "time": 59.8332735,
          "velocity": 0.7874015748031497
        },
        {
          "duration": 0.08333325000000258,
          "durationTicks": 24,
          "midi": 71,
          "name": "B4",
          "ticks": 17280,
          "time": 59.999939999999995,
          "velocity": 0.7874015748031497
        },
        {
          "duration": 0.08333324999999547,
          "durationTicks": 24,
          "midi": 72,
          "name": "C5",
          "ticks": 17328,
          "time": 60.1666065,
          "velocity": 0.7874015748031497
        },
        {
          "duration": 0.08333325000000258,
          "durationTicks": 24,
          "midi": 74,
          "name": "D5",
          "ticks": 17376,
          "time": 60.333273,
          "velocity": 0.7874015748031497
        },
        {
          "duration": 0.08333325000000258,
          "durationTicks": 24,
          "midi": 75,
          "name": "D#5",
          "ticks": 17424,
          "time": 60.499939499999996,
          "velocity": 0.7874015748031497
        },
        {
          "duration": 0.3333329999999961,
          "durationTicks": 96,
          "midi": 76,
          "name": "E5",
          "ticks": 17472,
          "time": 60.666606,
          "velocity": 0.7874015748031497
        },
        {
          "duration": 0.16666649999999805,
          "durationTicks": 48,
          "midi": 69,
          "name": "A4",
          "ticks": 17664,
          "time": 61.333272,
          "velocity": 0.7874015748031497
        },
        {
          "duration": 0.16666649999999805,
          "durationTicks": 48,
          "midi": 72,
          "name": "C5",
          "ticks": 17760,
          "time": 61.666605,
          "velocity": 0.7874015748031497
        },
        {
          "duration": 0.24999975000000063,
          "durationTicks": 72,
          "midi": 75,
          "name": "D#5",
          "ticks": 17856,
          "time": 61.999938,
          "velocity": 0.7874015748031497
        },
        {
          "duration": 0.08333324999999547,
          "durationTicks": 24,
          "midi": 76,
          "name": "E5",
          "ticks": 17928,
          "time": 62.24993775,
          "velocity": 0.7874015748031497
        },
        {
          "duration": 0.08333324999999547,
          "durationTicks": 24,
          "midi": 68,
          "name": "G#4",
          "ticks": 18000,
          "time": 62.4999375,
          "velocity": 0.7874015748031497
        },
        {
          "duration": 0.08333324999999547,
          "durationTicks": 24,
          "midi": 69,
          "name": "A4",
          "ticks": 18048,
          "time": 62.666604,
          "velocity": 0.7874015748031497
        },
        {
          "duration": 0.08333325000000258,
          "durationTicks": 24,
          "midi": 72,
          "name": "C5",
          "ticks": 18096,
          "time": 62.8332705,
          "velocity": 0.7874015748031497
        },
        {
          "duration": 0.08333325000000258,
          "durationTicks": 24,
          "midi": 74,
          "name": "D5",
          "ticks": 18144,
          "time": 62.999936999999996,
          "velocity": 0.7874015748031497
        },
        {
          "duration": 0.08333324999999547,
          "durationTicks": 24,
          "midi": 72,
          "name": "C5",
          "ticks": 18192,
          "time": 63.1666035,
          "velocity": 0.7874015748031497
        },
        {
          "duration": 0.08333325000000258,
          "durationTicks": 24,
          "midi": 74,
          "name": "D5",
          "ticks": 18240,
          "time": 63.33327,
          "velocity": 0.7874015748031497
        },
        {
          "duration": 0.08333325000000258,
          "durationTicks": 24,
          "midi": 75,
          "name": "D#5",
          "ticks": 18288,
          "time": 63.4999365,
          "velocity": 0.7874015748031497
        },
        {
          "duration": 0.08333324999999547,
          "durationTicks": 24,
          "midi": 76,
          "name": "E5",
          "ticks": 18312,
          "time": 63.58326975,
          "velocity": 0.7874015748031497
        },
        {
          "duration": 0.08333325000000258,
          "durationTicks": 24,
          "midi": 79,
          "name": "G5",
          "ticks": 18432,
          "time": 63.999936,
          "velocity": 0.7874015748031497
        },
        {
          "duration": 0.08333324999999547,
          "durationTicks": 24,
          "midi": 78,
          "name": "F#5",
          "ticks": 18480,
          "time": 64.1666025,
          "velocity": 0.7874015748031497
        },
        {
          "duration": 0.08333324999999547,
          "durationTicks": 24,
          "midi": 77,
          "name": "F5",
          "ticks": 18528,
          "time": 64.333269,
          "velocity": 0.7874015748031497
        },
        {
          "duration": 0.08333325000000968,
          "durationTicks": 24,
          "midi": 75,
          "name": "D#5",
          "ticks": 18576,
          "time": 64.49993549999999,
          "velocity": 0.7874015748031497
        },
        {
          "duration": 0.08333324999999547,
          "durationTicks": 24,
          "midi": 76,
          "name": "E5",
          "ticks": 18624,
          "time": 64.666602,
          "velocity": 0.7874015748031497
        },
        {
          "duration": 0.08333324999999547,
          "durationTicks": 24,
          "midi": 77,
          "name": "F5",
          "ticks": 18672,
          "time": 64.8332685,
          "velocity": 0.7874015748031497
        },
        {
          "duration": 0.08333325000000968,
          "durationTicks": 24,
          "midi": 78,
          "name": "F#5",
          "ticks": 18720,
          "time": 64.999935,
          "velocity": 0.7874015748031497
        },
        {
          "duration": 0.08333324999999547,
          "durationTicks": 24,
          "midi": 78,
          "name": "F#5",
          "ticks": 18768,
          "time": 65.1666015,
          "velocity": 0.7874015748031497
        },
        {
          "duration": 0.08333324999999547,
          "durationTicks": 24,
          "midi": 80,
          "name": "G#5",
          "ticks": 18816,
          "time": 65.333268,
          "velocity": 0.7874015748031497
        },
        {
          "duration": 0.08333325000000968,
          "durationTicks": 24,
          "midi": 80,
          "name": "G#5",
          "ticks": 18864,
          "time": 65.4999345,
          "velocity": 0.7874015748031497
        },
        {
          "duration": 0.08333324999999547,
          "durationTicks": 24,
          "midi": 81,
          "name": "A5",
          "ticks": 18912,
          "time": 65.666601,
          "velocity": 0.7874015748031497
        },
        {
          "duration": 0.08333324999999547,
          "durationTicks": 24,
          "midi": 81,
          "name": "A5",
          "ticks": 18960,
          "time": 65.8332675,
          "velocity": 0.7874015748031497
        },
        {
          "duration": 0.3333329999999961,
          "durationTicks": 96,
          "midi": 83,
          "name": "B5",
          "ticks": 19008,
          "time": 65.999934,
          "velocity": 0.7874015748031497
        },
        {
          "duration": 0.16666649999999095,
          "durationTicks": 48,
          "midi": 69,
          "name": "A4",
          "ticks": 19200,
          "time": 66.6666,
          "velocity": 0.6614173228346457
        },
        {
          "duration": 0.16666650000000516,
          "durationTicks": 48,
          "midi": 72,
          "name": "C5",
          "ticks": 19296,
          "time": 66.999933,
          "velocity": 0.6614173228346457
        },
        {
          "duration": 0.24999975000000063,
          "durationTicks": 72,
          "midi": 75,
          "name": "D#5",
          "ticks": 19392,
          "time": 67.333266,
          "velocity": 0.6614173228346457
        },
        {
          "duration": 0.08333325000000968,
          "durationTicks": 24,
          "midi": 76,
          "name": "E5",
          "ticks": 19464,
          "time": 67.58326575,
          "velocity": 0.6614173228346457
        },
        {
          "duration": 0.08333324999999547,
          "durationTicks": 24,
          "midi": 68,
          "name": "G#4",
          "ticks": 19536,
          "time": 67.8332655,
          "velocity": 0.6614173228346457
        },
        {
          "duration": 0.08333324999999547,
          "durationTicks": 24,
          "midi": 69,
          "name": "A4",
          "ticks": 19584,
          "time": 67.999932,
          "velocity": 0.6614173228346457
        },
        {
          "duration": 0.08333325000000968,
          "durationTicks": 24,
          "midi": 72,
          "name": "C5",
          "ticks": 19632,
          "time": 68.16659849999999,
          "velocity": 0.6614173228346457
        },
        {
          "duration": 0.08333324999999547,
          "durationTicks": 24,
          "midi": 74,
          "name": "D5",
          "ticks": 19680,
          "time": 68.333265,
          "velocity": 0.6614173228346457
        },
        {
          "duration": 0.08333324999999547,
          "durationTicks": 24,
          "midi": 72,
          "name": "C5",
          "ticks": 19728,
          "time": 68.4999315,
          "velocity": 0.6614173228346457
        },
        {
          "duration": 0.08333325000000968,
          "durationTicks": 24,
          "midi": 74,
          "name": "D5",
          "ticks": 19776,
          "time": 68.666598,
          "velocity": 0.6614173228346457
        },
        {
          "duration": 0.08333324999999547,
          "durationTicks": 24,
          "midi": 75,
          "name": "D#5",
          "ticks": 19824,
          "time": 68.8332645,
          "velocity": 0.6614173228346457
        },
        {
          "duration": 0.08333325000000968,
          "durationTicks": 24,
          "midi": 76,
          "name": "E5",
          "ticks": 19848,
          "time": 68.91659775,
          "velocity": 0.6614173228346457
        },
        {
          "duration": 0.08333324999999547,
          "durationTicks": 24,
          "midi": 79,
          "name": "G5",
          "ticks": 19968,
          "time": 69.333264,
          "velocity": 0.6614173228346457
        },
        {
          "duration": 0.08333324999999547,
          "durationTicks": 24,
          "midi": 78,
          "name": "F#5",
          "ticks": 20016,
          "time": 69.4999305,
          "velocity": 0.6614173228346457
        },
        {
          "duration": 0.08333324999999547,
          "durationTicks": 24,
          "midi": 77,
          "name": "F5",
          "ticks": 20064,
          "time": 69.666597,
          "velocity": 0.6614173228346457
        },
        {
          "duration": 0.08333324999999547,
          "durationTicks": 24,
          "midi": 75,
          "name": "D#5",
          "ticks": 20112,
          "time": 69.8332635,
          "velocity": 0.6614173228346457
        },
        {
          "duration": 0.08333325000000968,
          "durationTicks": 24,
          "midi": 74,
          "name": "D5",
          "ticks": 20160,
          "time": 69.99992999999999,
          "velocity": 0.6614173228346457
        },
        {
          "duration": 0.08333324999999547,
          "durationTicks": 24,
          "midi": 72,
          "name": "C5",
          "ticks": 20208,
          "time": 70.1665965,
          "velocity": 0.6614173228346457
        },
        {
          "duration": 0.08333324999999547,
          "durationTicks": 24,
          "midi": 71,
          "name": "B4",
          "ticks": 20256,
          "time": 70.333263,
          "velocity": 0.6614173228346457
        },
        {
          "duration": 0.08333325000000968,
          "durationTicks": 24,
          "midi": 70,
          "name": "A#4",
          "ticks": 20304,
          "time": 70.4999295,
          "velocity": 0.6614173228346457
        },
        {
          "duration": 0.08333324999999547,
          "durationTicks": 24,
          "midi": 71,
          "name": "B4",
          "ticks": 20352,
          "time": 70.666596,
          "velocity": 0.6614173228346457
        },
        {
          "duration": 0.08333324999999547,
          "durationTicks": 24,
          "midi": 72,
          "name": "C5",
          "ticks": 20400,
          "time": 70.8332625,
          "velocity": 0.6614173228346457
        },
        {
          "duration": 0.08333325000000968,
          "durationTicks": 24,
          "midi": 74,
          "name": "D5",
          "ticks": 20448,
          "time": 70.999929,
          "velocity": 0.6614173228346457
        },
        {
          "duration": 0.08333324999999547,
          "durationTicks": 24,
          "midi": 75,
          "name": "D#5",
          "ticks": 20496,
          "time": 71.1665955,
          "velocity": 0.6614173228346457
        },
        {
          "duration": 0.3333329999999961,
          "durationTicks": 96,
          "midi": 76,
          "name": "E5",
          "ticks": 20544,
          "time": 71.333262,
          "velocity": 0.6614173228346457
        },
        {
          "duration": 0.16666650000000516,
          "durationTicks": 48,
          "midi": 69,
          "name": "A4",
          "ticks": 20736,
          "time": 71.999928,
          "velocity": 0.6614173228346457
        },
        {
          "duration": 0.16666650000000516,
          "durationTicks": 48,
          "midi": 72,
          "name": "C5",
          "ticks": 20832,
          "time": 72.333261,
          "velocity": 0.6614173228346457
        },
        {
          "duration": 0.24999975000000063,
          "durationTicks": 72,
          "midi": 75,
          "name": "D#5",
          "ticks": 20928,
          "time": 72.666594,
          "velocity": 0.6614173228346457
        },
        {
          "duration": 0.08333324999999547,
          "durationTicks": 24,
          "midi": 76,
          "name": "E5",
          "ticks": 21000,
          "time": 72.91659375,
          "velocity": 0.6614173228346457
        },
        {
          "duration": 0.08333324999999547,
          "durationTicks": 24,
          "midi": 68,
          "name": "G#4",
          "ticks": 21072,
          "time": 73.1665935,
          "velocity": 0.6614173228346457
        },
        {
          "duration": 0.08333324999999547,
          "durationTicks": 24,
          "midi": 69,
          "name": "A4",
          "ticks": 21120,
          "time": 73.33326,
          "velocity": 0.6614173228346457
        },
        {
          "duration": 0.08333324999999547,
          "durationTicks": 24,
          "midi": 72,
          "name": "C5",
          "ticks": 21168,
          "time": 73.4999265,
          "velocity": 0.6614173228346457
        },
        {
          "duration": 0.08333325000000968,
          "durationTicks": 24,
          "midi": 74,
          "name": "D5",
          "ticks": 21216,
          "time": 73.66659299999999,
          "velocity": 0.6614173228346457
        },
        {
          "duration": 0.08333324999999547,
          "durationTicks": 24,
          "midi": 72,
          "name": "C5",
          "ticks": 21264,
          "time": 73.8332595,
          "velocity": 0.6614173228346457
        },
        {
          "duration": 0.08333324999999547,
          "durationTicks": 24,
          "midi": 74,
          "name": "D5",
          "ticks": 21312,
          "time": 73.999926,
          "velocity": 0.6614173228346457
        },
        {
          "duration": 0.08333325000000968,
          "durationTicks": 24,
          "midi": 75,
          "name": "D#5",
          "ticks": 21360,
          "time": 74.1665925,
          "velocity": 0.6614173228346457
        },
        {
          "duration": 0.08333324999999547,
          "durationTicks": 24,
          "midi": 76,
          "name": "E5",
          "ticks": 21384,
          "time": 74.24992575,
          "velocity": 0.6614173228346457
        },
        {
          "duration": 0.08333325000000968,
          "durationTicks": 24,
          "midi": 79,
          "name": "G5",
          "ticks": 21504,
          "time": 74.666592,
          "velocity": 0.6614173228346457
        },
        {
          "duration": 0.08333324999999547,
          "durationTicks": 24,
          "midi": 78,
          "name": "F#5",
          "ticks": 21552,
          "time": 74.8332585,
          "velocity": 0.6614173228346457
        },
        {
          "duration": 0.08333324999999547,
          "durationTicks": 24,
          "midi": 77,
          "name": "F5",
          "ticks": 21600,
          "time": 74.999925,
          "velocity": 0.6614173228346457
        },
        {
          "duration": 0.08333324999999547,
          "durationTicks": 24,
          "midi": 75,
          "name": "D#5",
          "ticks": 21648,
          "time": 75.1665915,
          "velocity": 0.6614173228346457
        },
        {
          "duration": 0.08333324999999547,
          "durationTicks": 24,
          "midi": 76,
          "name": "E5",
          "ticks": 21696,
          "time": 75.333258,
          "velocity": 0.6614173228346457
        },
        {
          "duration": 0.08333325000000968,
          "durationTicks": 24,
          "midi": 77,
          "name": "F5",
          "ticks": 21744,
          "time": 75.49992449999999,
          "velocity": 0.6614173228346457
        },
        {
          "duration": 0.08333324999999547,
          "durationTicks": 24,
          "midi": 78,
          "name": "F#5",
          "ticks": 21792,
          "time": 75.666591,
          "velocity": 0.6614173228346457
        },
        {
          "duration": 0.08333324999999547,
          "durationTicks": 24,
          "midi": 78,
          "name": "F#5",
          "ticks": 21840,
          "time": 75.8332575,
          "velocity": 0.6614173228346457
        },
        {
          "duration": 0.08333325000000968,
          "durationTicks": 24,
          "midi": 80,
          "name": "G#5",
          "ticks": 21888,
          "time": 75.999924,
          "velocity": 0.6614173228346457
        },
        {
          "duration": 0.08333324999999547,
          "durationTicks": 24,
          "midi": 80,
          "name": "G#5",
          "ticks": 21936,
          "time": 76.1665905,
          "velocity": 0.6614173228346457
        },
        {
          "duration": 0.08333324999999547,
          "durationTicks": 24,
          "midi": 81,
          "name": "A5",
          "ticks": 21984,
          "time": 76.333257,
          "velocity": 0.6614173228346457
        },
        {
          "duration": 0.08333325000000968,
          "durationTicks": 24,
          "midi": 81,
          "name": "A5",
          "ticks": 22032,
          "time": 76.4999235,
          "velocity": 0.6614173228346457
        },
        {
          "duration": 0.3333329999999961,
          "durationTicks": 96,
          "midi": 83,
          "name": "B5",
          "ticks": 22080,
          "time": 76.66659,
          "velocity": 0.6614173228346457
        },
        {
          "duration": 0.3333329999999961,
          "durationTicks": 96,
          "midi": 81,
          "name": "A5",
          "ticks": 22176,
          "time": 76.999923,
          "velocity": 0.6614173228346457
        },
        {
          "duration": 0.08333324999999547,
          "durationTicks": 24,
          "midi": 76,
          "name": "E5",
          "ticks": 28416,
          "time": 98.666568,
          "velocity": 0.6929133858267716
        },
        {
          "duration": 0.08333324999999547,
          "durationTicks": 24,
          "midi": 74,
          "name": "D5",
          "ticks": 28464,
          "time": 98.8332345,
          "velocity": 0.6929133858267716
        },
        {
          "duration": 0.08333325000000968,
          "durationTicks": 24,
          "midi": 76,
          "name": "E5",
          "ticks": 28512,
          "time": 98.999901,
          "velocity": 0.6929133858267716
        },
        {
          "duration": 0.08333324999999547,
          "durationTicks": 24,
          "midi": 77,
          "name": "F5",
          "ticks": 28560,
          "time": 99.1665675,
          "velocity": 0.6929133858267716
        },
        {
          "duration": 0.08333325000000968,
          "durationTicks": 24,
          "midi": 76,
          "name": "E5",
          "ticks": 28608,
          "time": 99.33323399999999,
          "velocity": 0.6929133858267716
        },
        {
          "duration": 0.08333324999999547,
          "durationTicks": 24,
          "midi": 74,
          "name": "D5",
          "ticks": 28656,
          "time": 99.4999005,
          "velocity": 0.6929133858267716
        },
        {
          "duration": 0.08333324999999547,
          "durationTicks": 24,
          "midi": 72,
          "name": "C5",
          "ticks": 28704,
          "time": 99.666567,
          "velocity": 0.6929133858267716
        },
        {
          "duration": 0.08333325000000968,
          "durationTicks": 24,
          "midi": 74,
          "name": "D5",
          "ticks": 28752,
          "time": 99.83323349999999,
          "velocity": 0.6929133858267716
        },
        {
          "duration": 0.08333324999999547,
          "durationTicks": 24,
          "midi": 76,
          "name": "E5",
          "ticks": 28800,
          "time": 99.9999,
          "velocity": 0.6929133858267716
        },
        {
          "duration": 0.08333324999999547,
          "durationTicks": 24,
          "midi": 74,
          "name": "D5",
          "ticks": 28848,
          "time": 100.1665665,
          "velocity": 0.6929133858267716
        },
        {
          "duration": 0.08333325000000968,
          "durationTicks": 24,
          "midi": 76,
          "name": "E5",
          "ticks": 28896,
          "time": 100.33323299999999,
          "velocity": 0.6929133858267716
        },
        {
          "duration": 0.08333324999999547,
          "durationTicks": 24,
          "midi": 77,
          "name": "F5",
          "ticks": 28944,
          "time": 100.4998995,
          "velocity": 0.6929133858267716
        },
        {
          "duration": 0.08333324999999547,
          "durationTicks": 24,
          "midi": 76,
          "name": "E5",
          "ticks": 28992,
          "time": 100.666566,
          "velocity": 0.6929133858267716
        },
        {
          "duration": 0.08333325000000968,
          "durationTicks": 24,
          "midi": 74,
          "name": "D5",
          "ticks": 29040,
          "time": 100.8332325,
          "velocity": 0.6929133858267716
        },
        {
          "duration": 0.08333324999999547,
          "durationTicks": 24,
          "midi": 72,
          "name": "C5",
          "ticks": 29088,
          "time": 100.999899,
          "velocity": 0.6929133858267716
        },
        {
          "duration": 0.08333325000000968,
          "durationTicks": 24,
          "midi": 71,
          "name": "B4",
          "ticks": 29136,
          "time": 101.16656549999999,
          "velocity": 0.6929133858267716
        },
        {
          "duration": 0.3333329999999961,
          "durationTicks": 96,
          "midi": 69,
          "name": "A4",
          "ticks": 29184,
          "time": 101.333232,
          "velocity": 0.6929133858267716
        },
        {
          "duration": 0.08333325000000968,
          "durationTicks": 24,
          "midi": 81,
          "name": "A5",
          "ticks": 29280,
          "time": 101.66656499999999,
          "velocity": 0.6929133858267716
        },
        {
          "duration": 0.08333324999999547,
          "durationTicks": 24,
          "midi": 69,
          "name": "A4",
          "ticks": 29328,
          "time": 101.8332315,
          "velocity": 0.6929133858267716
        },
        {
          "duration": 0.08333324999999547,
          "durationTicks": 24,
          "midi": 80,
          "name": "G#5",
          "ticks": 29376,
          "time": 101.999898,
          "velocity": 0.6929133858267716
        },
        {
          "duration": 0.08333325000000968,
          "durationTicks": 24,
          "midi": 69,
          "name": "A4",
          "ticks": 29424,
          "time": 102.16656449999999,
          "velocity": 0.6929133858267716
        },
        {
          "duration": 0.08333324999999547,
          "durationTicks": 24,
          "midi": 79,
          "name": "G5",
          "ticks": 29472,
          "time": 102.333231,
          "velocity": 0.6929133858267716
        },
        {
          "duration": 0.08333324999999547,
          "durationTicks": 24,
          "midi": 69,
          "name": "A4",
          "ticks": 29520,
          "time": 102.4998975,
          "velocity": 0.6929133858267716
        },
        {
          "duration": 0.08333325000000968,
          "durationTicks": 24,
          "midi": 78,
          "name": "F#5",
          "ticks": 29568,
          "time": 102.666564,
          "velocity": 0.6929133858267716
        },
        {
          "duration": 0.08333324999999547,
          "durationTicks": 24,
          "midi": 69,
          "name": "A4",
          "ticks": 29616,
          "time": 102.8332305,
          "velocity": 0.6929133858267716
        },
        {
          "duration": 0.08333325000000968,
          "durationTicks": 24,
          "midi": 77,
          "name": "F5",
          "ticks": 29664,
          "time": 102.99989699999999,
          "velocity": 0.6929133858267716
        },
        {
          "duration": 0.08333324999999547,
          "durationTicks": 24,
          "midi": 69,
          "name": "A4",
          "ticks": 29712,
          "time": 103.1665635,
          "velocity": 0.6929133858267716
        },
        {
          "duration": 0.08333324999999547,
          "durationTicks": 24,
          "midi": 75,
          "name": "D#5",
          "ticks": 29760,
          "time": 103.33323,
          "velocity": 0.6929133858267716
        },
        {
          "duration": 0.08333325000000968,
          "durationTicks": 24,
          "midi": 69,
          "name": "A4",
          "ticks": 29808,
          "time": 103.49989649999999,
          "velocity": 0.6929133858267716
        },
        {
          "duration": 0.08333324999999547,
          "durationTicks": 24,
          "midi": 76,
          "name": "E5",
          "ticks": 29856,
          "time": 103.666563,
          "velocity": 0.6929133858267716
        },
        {
          "duration": 0.08333324999999547,
          "durationTicks": 24,
          "midi": 69,
          "name": "A4",
          "ticks": 29904,
          "time": 103.8332295,
          "velocity": 0.6929133858267716
        },
        {
          "duration": 0.08333325000000968,
          "durationTicks": 24,
          "midi": 76,
          "name": "E5",
          "ticks": 29952,
          "time": 103.99989599999999,
          "velocity": 0.6929133858267716
        },
        {
          "duration": 0.08333324999999547,
          "durationTicks": 24,
          "midi": 75,
          "name": "D#5",
          "ticks": 30000,
          "time": 104.1665625,
          "velocity": 0.6929133858267716
        },
        {
          "duration": 0.08333324999999547,
          "durationTicks": 24,
          "midi": 76,
          "name": "E5",
          "ticks": 30048,
          "time": 104.333229,
          "velocity": 0.6929133858267716
        },
        {
          "duration": 0.08333325000000968,
          "durationTicks": 24,
          "midi": 77,
          "name": "F5",
          "ticks": 30096,
          "time": 104.4998955,
          "velocity": 0.6929133858267716
        },
        {
          "duration": 0.08333324999999547,
          "durationTicks": 24,
          "midi": 76,
          "name": "E5",
          "ticks": 30144,
          "time": 104.666562,
          "velocity": 0.6929133858267716
        },
        {
          "duration": 0.08333325000000968,
          "durationTicks": 24,
          "midi": 74,
          "name": "D5",
          "ticks": 30192,
          "time": 104.83322849999999,
          "velocity": 0.6929133858267716
        },
        {
          "duration": 0.08333324999999547,
          "durationTicks": 24,
          "midi": 72,
          "name": "C5",
          "ticks": 30240,
          "time": 104.999895,
          "velocity": 0.6929133858267716
        },
        {
          "duration": 0.08333324999999547,
          "durationTicks": 24,
          "midi": 74,
          "name": "D5",
          "ticks": 30288,
          "time": 105.1665615,
          "velocity": 0.6929133858267716
        },
        {
          "duration": 0.08333325000000968,
          "durationTicks": 24,
          "midi": 76,
          "name": "E5",
          "ticks": 30336,
          "time": 105.33322799999999,
          "velocity": 0.6929133858267716
        },
        {
          "duration": 0.08333324999999547,
          "durationTicks": 24,
          "midi": 74,
          "name": "D5",
          "ticks": 30384,
          "time": 105.4998945,
          "velocity": 0.6929133858267716
        },
        {
          "duration": 0.08333324999999547,
          "durationTicks": 24,
          "midi": 76,
          "name": "E5",
          "ticks": 30432,
          "time": 105.666561,
          "velocity": 0.6929133858267716
        },
        {
          "duration": 0.08333325000000968,
          "durationTicks": 24,
          "midi": 77,
          "name": "F5",
          "ticks": 30480,
          "time": 105.83322749999999,
          "velocity": 0.6929133858267716
        },
        {
          "duration": 0.08333324999999547,
          "durationTicks": 24,
          "midi": 76,
          "name": "E5",
          "ticks": 30528,
          "time": 105.999894,
          "velocity": 0.6929133858267716
        },
        {
          "duration": 0.08333324999999547,
          "durationTicks": 24,
          "midi": 74,
          "name": "D5",
          "ticks": 30576,
          "time": 106.1665605,
          "velocity": 0.6929133858267716
        },
        {
          "duration": 0.08333325000000968,
          "durationTicks": 24,
          "midi": 72,
          "name": "C5",
          "ticks": 30624,
          "time": 106.333227,
          "velocity": 0.6929133858267716
        },
        {
          "duration": 0.08333324999999547,
          "durationTicks": 24,
          "midi": 74,
          "name": "D5",
          "ticks": 30672,
          "time": 106.4998935,
          "velocity": 0.6929133858267716
        },
        {
          "duration": 0.16666649999999095,
          "durationTicks": 48,
          "midi": 76,
          "name": "E5",
          "ticks": 30720,
          "time": 106.66656,
          "velocity": 0.6929133858267716
        },
        {
          "duration": 0.08333324999999547,
          "durationTicks": 24,
          "midi": 74,
          "name": "D5",
          "ticks": 30768,
          "time": 106.8332265,
          "velocity": 0.6929133858267716
        },
        {
          "duration": 0.16666649999999095,
          "durationTicks": 48,
          "midi": 81,
          "name": "A5",
          "ticks": 30816,
          "time": 106.999893,
          "velocity": 0.6929133858267716
        },
        {
          "duration": 0.08333325000000968,
          "durationTicks": 24,
          "midi": 76,
          "name": "E5",
          "ticks": 30864,
          "time": 107.16655949999999,
          "velocity": 0.6929133858267716
        },
        {
          "duration": 0.16666650000000516,
          "durationTicks": 48,
          "midi": 83,
          "name": "B5",
          "ticks": 30912,
          "time": 107.333226,
          "velocity": 0.6929133858267716
        },
        {
          "duration": 0.08333324999999547,
          "durationTicks": 24,
          "midi": 76,
          "name": "E5",
          "ticks": 30960,
          "time": 107.4998925,
          "velocity": 0.6929133858267716
        },
        {
          "duration": 0.16666650000000516,
          "durationTicks": 48,
          "midi": 84,
          "name": "C6",
          "ticks": 31008,
          "time": 107.66655899999999,
          "velocity": 0.6929133858267716
        },
        {
          "duration": 0.08333324999999547,
          "durationTicks": 24,
          "midi": 76,
          "name": "E5",
          "ticks": 31056,
          "time": 107.8332255,
          "velocity": 0.6929133858267716
        },
        {
          "duration": 0.16666649999999095,
          "durationTicks": 48,
          "midi": 85,
          "name": "C#6",
          "ticks": 31104,
          "time": 107.999892,
          "velocity": 0.6929133858267716
        },
        {
          "duration": 0.08333325000000968,
          "durationTicks": 24,
          "midi": 76,
          "name": "E5",
          "ticks": 31152,
          "time": 108.1665585,
          "velocity": 0.6929133858267716
        },
        {
          "duration": 0.16666650000000516,
          "durationTicks": 48,
          "midi": 86,
          "name": "D6",
          "ticks": 31200,
          "time": 108.333225,
          "velocity": 0.6929133858267716
        },
        {
          "duration": 0.08333324999999547,
          "durationTicks": 24,
          "midi": 76,
          "name": "E5",
          "ticks": 31248,
          "time": 108.4998915,
          "velocity": 0.6929133858267716
        },
        {
          "duration": 0.16666650000000516,
          "durationTicks": 48,
          "midi": 89,
          "name": "F6",
          "ticks": 31296,
          "time": 108.666558,
          "velocity": 0.6929133858267716
        },
        {
          "duration": 0.08333324999999547,
          "durationTicks": 24,
          "midi": 76,
          "name": "E5",
          "ticks": 31344,
          "time": 108.8332245,
          "velocity": 0.6929133858267716
        },
        {
          "duration": 0.16666650000000516,
          "durationTicks": 48,
          "midi": 87,
          "name": "D#6",
          "ticks": 31392,
          "time": 108.99989099999999,
          "velocity": 0.6929133858267716
        },
        {
          "duration": 0.08333324999999547,
          "durationTicks": 24,
          "midi": 76,
          "name": "E5",
          "ticks": 31488,
          "time": 109.333224,
          "velocity": 0.6929133858267716
        },
        {
          "duration": 0.08333325000000968,
          "durationTicks": 24,
          "midi": 74,
          "name": "D5",
          "ticks": 31536,
          "time": 109.49989049999999,
          "velocity": 0.6929133858267716
        },
        {
          "duration": 0.08333324999999547,
          "durationTicks": 24,
          "midi": 76,
          "name": "E5",
          "ticks": 31584,
          "time": 109.666557,
          "velocity": 0.6929133858267716
        },
        {
          "duration": 0.08333324999999547,
          "durationTicks": 24,
          "midi": 77,
          "name": "F5",
          "ticks": 31632,
          "time": 109.8332235,
          "velocity": 0.6929133858267716
        },
        {
          "duration": 0.08333325000000968,
          "durationTicks": 24,
          "midi": 76,
          "name": "E5",
          "ticks": 31680,
          "time": 109.99989,
          "velocity": 0.6929133858267716
        },
        {
          "duration": 0.08333324999999547,
          "durationTicks": 24,
          "midi": 74,
          "name": "D5",
          "ticks": 31728,
          "time": 110.1665565,
          "velocity": 0.6929133858267716
        },
        {
          "duration": 0.08333324999999547,
          "durationTicks": 24,
          "midi": 72,
          "name": "C5",
          "ticks": 31776,
          "time": 110.333223,
          "velocity": 0.6929133858267716
        },
        {
          "duration": 0.08333324999999547,
          "durationTicks": 24,
          "midi": 74,
          "name": "D5",
          "ticks": 31824,
          "time": 110.4998895,
          "velocity": 0.6929133858267716
        },
        {
          "duration": 0.08333324999999547,
          "durationTicks": 24,
          "midi": 76,
          "name": "E5",
          "ticks": 31872,
          "time": 110.666556,
          "velocity": 0.6929133858267716
        },
        {
          "duration": 0.08333325000000968,
          "durationTicks": 24,
          "midi": 74,
          "name": "D5",
          "ticks": 31920,
          "time": 110.83322249999999,
          "velocity": 0.6929133858267716
        },
        {
          "duration": 0.08333324999999547,
          "durationTicks": 24,
          "midi": 76,
          "name": "E5",
          "ticks": 31968,
          "time": 110.999889,
          "velocity": 0.6929133858267716
        },
        {
          "duration": 0.08333324999999547,
          "durationTicks": 24,
          "midi": 77,
          "name": "F5",
          "ticks": 32016,
          "time": 111.1665555,
          "velocity": 0.6929133858267716
        },
        {
          "duration": 0.08333325000000968,
          "durationTicks": 24,
          "midi": 76,
          "name": "E5",
          "ticks": 32064,
          "time": 111.33322199999999,
          "velocity": 0.6929133858267716
        },
        {
          "duration": 0.08333324999999547,
          "durationTicks": 24,
          "midi": 74,
          "name": "D5",
          "ticks": 32112,
          "time": 111.4998885,
          "velocity": 0.6929133858267716
        },
        {
          "duration": 0.08333324999999547,
          "durationTicks": 24,
          "midi": 72,
          "name": "C5",
          "ticks": 32160,
          "time": 111.666555,
          "velocity": 0.6929133858267716
        },
        {
          "duration": 0.08333325000000968,
          "durationTicks": 24,
          "midi": 71,
          "name": "B4",
          "ticks": 32208,
          "time": 111.8332215,
          "velocity": 0.6929133858267716
        },
        {
          "duration": 0.3333329999999961,
          "durationTicks": 96,
          "midi": 69,
          "name": "A4",
          "ticks": 32256,
          "time": 111.999888,
          "velocity": 0.6929133858267716
        },
        {
          "duration": 0.08333324999999547,
          "durationTicks": 24,
          "midi": 81,
          "name": "A5",
          "ticks": 32352,
          "time": 112.333221,
          "velocity": 0.6929133858267716
        },
        {
          "duration": 0.08333324999999547,
          "durationTicks": 24,
          "midi": 69,
          "name": "A4",
          "ticks": 32400,
          "time": 112.4998875,
          "velocity": 0.6929133858267716
        },
        {
          "duration": 0.08333325000000968,
          "durationTicks": 24,
          "midi": 80,
          "name": "G#5",
          "ticks": 32448,
          "time": 112.66655399999999,
          "velocity": 0.6929133858267716
        },
        {
          "duration": 0.08333324999999547,
          "durationTicks": 24,
          "midi": 69,
          "name": "A4",
          "ticks": 32496,
          "time": 112.8332205,
          "velocity": 0.6929133858267716
        },
        {
          "duration": 0.08333324999999547,
          "durationTicks": 24,
          "midi": 79,
          "name": "G5",
          "ticks": 32544,
          "time": 112.999887,
          "velocity": 0.6929133858267716
        },
        {
          "duration": 0.08333325000000968,
          "durationTicks": 24,
          "midi": 69,
          "name": "A4",
          "ticks": 32592,
          "time": 113.16655349999999,
          "velocity": 0.6929133858267716
        },
        {
          "duration": 0.08333324999999547,
          "durationTicks": 24,
          "midi": 78,
          "name": "F#5",
          "ticks": 32640,
          "time": 113.33322,
          "velocity": 0.6929133858267716
        },
        {
          "duration": 0.08333324999999547,
          "durationTicks": 24,
          "midi": 69,
          "name": "A4",
          "ticks": 32688,
          "time": 113.4998865,
          "velocity": 0.6929133858267716
        },
        {
          "duration": 0.08333325000000968,
          "durationTicks": 24,
          "midi": 77,
          "name": "F5",
          "ticks": 32736,
          "time": 113.666553,
          "velocity": 0.6929133858267716
        },
        {
          "duration": 0.08333324999999547,
          "durationTicks": 24,
          "midi": 69,
          "name": "A4",
          "ticks": 32784,
          "time": 113.8332195,
          "velocity": 0.6929133858267716
        },
        {
          "duration": 0.08333324999999547,
          "durationTicks": 24,
          "midi": 75,
          "name": "D#5",
          "ticks": 32832,
          "time": 113.999886,
          "velocity": 0.6929133858267716
        },
        {
          "duration": 0.08333324999999547,
          "durationTicks": 24,
          "midi": 69,
          "name": "A4",
          "ticks": 32880,
          "time": 114.1665525,
          "velocity": 0.6929133858267716
        },
        {
          "duration": 0.08333324999999547,
          "durationTicks": 24,
          "midi": 76,
          "name": "E5",
          "ticks": 32928,
          "time": 114.333219,
          "velocity": 0.6929133858267716
        },
        {
          "duration": 0.08333325000000968,
          "durationTicks": 24,
          "midi": 69,
          "name": "A4",
          "ticks": 32976,
          "time": 114.49988549999999,
          "velocity": 0.6929133858267716
        },
        {
          "duration": 0.08333324999999547,
          "durationTicks": 24,
          "midi": 76,
          "name": "E5",
          "ticks": 33024,
          "time": 114.666552,
          "velocity": 0.6929133858267716
        },
        {
          "duration": 0.08333324999999547,
          "durationTicks": 24,
          "midi": 75,
          "name": "D#5",
          "ticks": 33072,
          "time": 114.8332185,
          "velocity": 0.6929133858267716
        },
        {
          "duration": 0.08333325000000968,
          "durationTicks": 24,
          "midi": 76,
          "name": "E5",
          "ticks": 33120,
          "time": 114.99988499999999,
          "velocity": 0.6929133858267716
        },
        {
          "duration": 0.08333324999999547,
          "durationTicks": 24,
          "midi": 77,
          "name": "F5",
          "ticks": 33168,
          "time": 115.1665515,
          "velocity": 0.6929133858267716
        },
        {
          "duration": 0.08333324999999547,
          "durationTicks": 24,
          "midi": 76,
          "name": "E5",
          "ticks": 33216,
          "time": 115.333218,
          "velocity": 0.6929133858267716
        },
        {
          "duration": 0.08333325000000968,
          "durationTicks": 24,
          "midi": 74,
          "name": "D5",
          "ticks": 33264,
          "time": 115.4998845,
          "velocity": 0.6929133858267716
        },
        {
          "duration": 0.08333324999999547,
          "durationTicks": 24,
          "midi": 72,
          "name": "C5",
          "ticks": 33312,
          "time": 115.666551,
          "velocity": 0.6929133858267716
        },
        {
          "duration": 0.08333324999999547,
          "durationTicks": 24,
          "midi": 74,
          "name": "D5",
          "ticks": 33360,
          "time": 115.8332175,
          "velocity": 0.6929133858267716
        },
        {
          "duration": 0.08333324999999547,
          "durationTicks": 24,
          "midi": 76,
          "name": "E5",
          "ticks": 33408,
          "time": 115.999884,
          "velocity": 0.6929133858267716
        },
        {
          "duration": 0.08333324999999547,
          "durationTicks": 24,
          "midi": 74,
          "name": "D5",
          "ticks": 33456,
          "time": 116.1665505,
          "velocity": 0.6929133858267716
        },
        {
          "duration": 0.08333325000000968,
          "durationTicks": 24,
          "midi": 76,
          "name": "E5",
          "ticks": 33504,
          "time": 116.33321699999999,
          "velocity": 0.6929133858267716
        },
        {
          "duration": 0.08333324999999547,
          "durationTicks": 24,
          "midi": 77,
          "name": "F5",
          "ticks": 33552,
          "time": 116.4998835,
          "velocity": 0.6929133858267716
        },
        {
          "duration": 0.08333324999999547,
          "durationTicks": 24,
          "midi": 76,
          "name": "E5",
          "ticks": 33600,
          "time": 116.66655,
          "velocity": 0.6929133858267716
        },
        {
          "duration": 0.08333325000000968,
          "durationTicks": 24,
          "midi": 74,
          "name": "D5",
          "ticks": 33648,
          "time": 116.83321649999999,
          "velocity": 0.6929133858267716
        },
        {
          "duration": 0.08333324999999547,
          "durationTicks": 24,
          "midi": 72,
          "name": "C5",
          "ticks": 33696,
          "time": 116.999883,
          "velocity": 0.6929133858267716
        },
        {
          "duration": 0.08333324999999547,
          "durationTicks": 24,
          "midi": 71,
          "name": "B4",
          "ticks": 33744,
          "time": 117.1665495,
          "velocity": 0.6929133858267716
        },
        {
          "duration": 0.24999975000000063,
          "durationTicks": 72,
          "midi": 69,
          "name": "A4",
          "ticks": 33792,
          "time": 117.333216,
          "velocity": 0.6929133858267716
        }
      ]
    },
    {
      "channel": 0,
      "controlChanges": {
        "6": [
          {
            "number": 6,
            "ticks": 0,
            "time": 0,
            "value": 0.09448818897637795
          }
        ],
        "7": [
          {
            "number": 7,
            "ticks": 0,
            "time": 0,
            "value": 0.7874015748031497
          },
          {
            "number": 7,
            "ticks": 0,
            "time": 0,
            "value": 0.7874015748031497
          }
        ],
        "10": [
          {
            "number": 10,
            "ticks": 0,
            "time": 0,
            "value": 0.5039370078740157
          },
          {
            "number": 10,
            "ticks": 0,
            "time": 0,
            "value": 0.5039370078740157
          }
        ],
        "100": [
          {
            "number": 100,
            "ticks": 0,
            "time": 0,
            "value": 0
          }
        ],
        "101": [
          {
            "number": 101,
            "ticks": 0,
            "time": 0,
            "value": 0
          }
        ]
      },
      "pitchBends": [
        {
          "ticks": 0,
          "time": 0,
          "value": 0
        },
        {
          "ticks": 0,
          "time": 0,
          "value": 0
        }
      ],
      "instrument": {
        "family": "piano",
        "number": 0,
        "name": "acoustic grand piano"
      },
      "name": "Chime",
      "notes": [],
      "endOfTrackTicks": 37249
    },
    {
      "channel": 6,
      "controlChanges": {
        "6": [
          {
            "number": 6,
            "ticks": 0,
            "time": 0,
            "value": 0.09448818897637795
          },
          {
            "number": 6,
            "ticks": 0,
            "time": 0,
            "value": 0.09448818897637795
          },
          {
            "number": 6,
            "ticks": 37248,
            "time": 129.333204,
            "value": 0.09448818897637795
          },
          {
            "number": 6,
            "ticks": 37249,
            "time": 129.33667621875,
            "value": 0.09448818897637795
          }
        ],
        "7": [
          {
            "number": 7,
            "ticks": 0,
            "time": 0,
            "value": 0.7874015748031497
          },
          {
            "number": 7,
            "ticks": 0,
            "time": 0,
            "value": 0.7874015748031497
          },
          {
            "number": 7,
            "ticks": 37248,
            "time": 129.333204,
            "value": 0.7874015748031497
          },
          {
            "number": 7,
            "ticks": 37249,
            "time": 129.33667621875,
            "value": 0.7874015748031497
          }
        ],
        "10": [
          {
            "number": 10,
            "ticks": 0,
            "time": 0,
            "value": 0.5039370078740157
          },
          {
            "number": 10,
            "ticks": 0,
            "time": 0,
            "value": 0.5039370078740157
          },
          {
            "number": 10,
            "ticks": 37248,
            "time": 129.333204,
            "value": 0.5039370078740157
          },
          {
            "number": 10,
            "ticks": 37249,
            "time": 129.33667621875,
            "value": 0.5039370078740157
          }
        ],
        "100": [
          {
            "number": 100,
            "ticks": 0,
            "time": 0,
            "value": 0
          },
          {
            "number": 100,
            "ticks": 0,
            "time": 0,
            "value": 0
          },
          {
            "number": 100,
            "ticks": 37248,
            "time": 129.333204,
            "value": 0
          },
          {
            "number": 100,
            "ticks": 37249,
            "time": 129.33667621875,
            "value": 0
          }
        ],
        "101": [
          {
            "number": 101,
            "ticks": 0,
            "time": 0,
            "value": 0
          },
          {
            "number": 101,
            "ticks": 0,
            "time": 0,
            "value": 0
          },
          {
            "number": 101,
            "ticks": 37248,
            "time": 129.333204,
            "value": 0
          },
          {
            "number": 101,
            "ticks": 37249,
            "time": 129.33667621875,
            "value": 0
          }
        ]
      },
      "pitchBends": [
        {
          "ticks": 0,
          "time": 0,
          "value": 0
        },
        {
          "ticks": 0,
          "time": 0,
          "value": 0
        },
        {
          "ticks": 37248,
          "time": 129.333204,
          "value": 0
        },
        {
          "ticks": 37249,
          "time": 129.33667621875,
          "value": 0
        }
      ],
      "instrument": {
        "family": "chromatic percussion",
        "number": 11,
        "name": "vibraphone"
      },
      "name": "",
      "notes": [
        {
          "duration": 0.16666649999999983,
          "durationTicks": 48,
          "midi": 69,
          "name": "A4",
          "ticks": 768,
          "time": 2.666664,
          "velocity": 0.9133858267716536
        },
        {
          "duration": 0.16666649999999983,
          "durationTicks": 48,
          "midi": 72,
          "name": "C5",
          "ticks": 864,
          "time": 2.999997,
          "velocity": 0.9133858267716536
        },
        {
          "duration": 0.24999974999999974,
          "durationTicks": 72,
          "midi": 75,
          "name": "D#5",
          "ticks": 960,
          "time": 3.33333,
          "velocity": 0.9133858267716536
        },
        {
          "duration": 0.08333324999999991,
          "durationTicks": 24,
          "midi": 76,
          "name": "E5",
          "ticks": 1032,
          "time": 3.58332975,
          "velocity": 0.9133858267716536
        },
        {
          "duration": 0.08333324999999991,
          "durationTicks": 24,
          "midi": 68,
          "name": "G#4",
          "ticks": 1104,
          "time": 3.8333295,
          "velocity": 0.9133858267716536
        },
        {
          "duration": 0.08333325000000036,
          "durationTicks": 24,
          "midi": 69,
          "name": "A4",
          "ticks": 1152,
          "time": 3.999996,
          "velocity": 0.9133858267716536
        },
        {
          "duration": 0.08333324999999991,
          "durationTicks": 24,
          "midi": 72,
          "name": "C5",
          "ticks": 1200,
          "time": 4.1666625,
          "velocity": 0.9133858267716536
        },
        {
          "duration": 0.08333324999999991,
          "durationTicks": 24,
          "midi": 74,
          "name": "D5",
          "ticks": 1248,
          "time": 4.333329,
          "velocity": 0.9133858267716536
        },
        {
          "duration": 0.08333324999999991,
          "durationTicks": 24,
          "midi": 72,
          "name": "C5",
          "ticks": 1296,
          "time": 4.4999955,
          "velocity": 0.9133858267716536
        },
        {
          "duration": 0.08333324999999991,
          "durationTicks": 24,
          "midi": 74,
          "name": "D5",
          "ticks": 1344,
          "time": 4.666662,
          "velocity": 0.9133858267716536
        },
        {
          "duration": 0.0833332500000008,
          "durationTicks": 24,
          "midi": 75,
          "name": "D#5",
          "ticks": 1392,
          "time": 4.8333284999999995,
          "velocity": 0.9133858267716536
        },
        {
          "duration": 0.24999974999999974,
          "durationTicks": 72,
          "midi": 76,
          "name": "E5",
          "ticks": 1416,
          "time": 4.91666175,
          "velocity": 0.9133858267716536
        },
        {
          "duration": 0.08333324999999991,
          "durationTicks": 24,
          "midi": 79,
          "name": "G5",
          "ticks": 1536,
          "time": 5.333328,
          "velocity": 0.9133858267716536
        },
        {
          "duration": 0.08333324999999991,
          "durationTicks": 24,
          "midi": 78,
          "name": "F#5",
          "ticks": 1584,
          "time": 5.4999945,
          "velocity": 0.9133858267716536
        },
        {
          "duration": 0.08333324999999991,
          "durationTicks": 24,
          "midi": 77,
          "name": "F5",
          "ticks": 1632,
          "time": 5.6666609999999995,
          "velocity": 0.9133858267716536
        },
        {
          "duration": 0.08333324999999991,
          "durationTicks": 24,
          "midi": 75,
          "name": "D#5",
          "ticks": 1680,
          "time": 5.8333275,
          "velocity": 0.9133858267716536
        },
        {
          "duration": 0.08333324999999991,
          "durationTicks": 24,
          "midi": 74,
          "name": "D5",
          "ticks": 1728,
          "time": 5.999994,
          "velocity": 0.9133858267716536
        },
        {
          "duration": 0.08333324999999991,
          "durationTicks": 24,
          "midi": 72,
          "name": "C5",
          "ticks": 1776,
          "time": 6.1666605,
          "velocity": 0.9133858267716536
        },
        {
          "duration": 0.08333324999999991,
          "durationTicks": 24,
          "midi": 71,
          "name": "B4",
          "ticks": 1824,
          "time": 6.333327,
          "velocity": 0.9133858267716536
        },
        {
          "duration": 0.08333324999999991,
          "durationTicks": 24,
          "midi": 70,
          "name": "A#4",
          "ticks": 1872,
          "time": 6.4999934999999995,
          "velocity": 0.9133858267716536
        },
        {
          "duration": 0.08333324999999991,
          "durationTicks": 24,
          "midi": 71,
          "name": "B4",
          "ticks": 1920,
          "time": 6.66666,
          "velocity": 0.9133858267716536
        },
        {
          "duration": 0.08333324999999991,
          "durationTicks": 24,
          "midi": 72,
          "name": "C5",
          "ticks": 1968,
          "time": 6.8333265,
          "velocity": 0.9133858267716536
        },
        {
          "duration": 0.08333324999999991,
          "durationTicks": 24,
          "midi": 74,
          "name": "D5",
          "ticks": 2016,
          "time": 6.999993,
          "velocity": 0.9133858267716536
        },
        {
          "duration": 0.08333324999999991,
          "durationTicks": 24,
          "midi": 75,
          "name": "D#5",
          "ticks": 2064,
          "time": 7.1666595,
          "velocity": 0.9133858267716536
        },
        {
          "duration": 0.33333300000000055,
          "durationTicks": 96,
          "midi": 76,
          "name": "E5",
          "ticks": 2112,
          "time": 7.333326,
          "velocity": 0.9133858267716536
        },
        {
          "duration": 0.33333299999999966,
          "durationTicks": 96,
          "midi": 64,
          "name": "E4",
          "ticks": 2208,
          "time": 7.666659,
          "velocity": 0.9133858267716536
        },
        {
          "duration": 0.16666650000000072,
          "durationTicks": 48,
          "midi": 69,
          "name": "A4",
          "ticks": 2304,
          "time": 7.999992,
          "velocity": 0.9133858267716536
        },
        {
          "duration": 0.16666649999999983,
          "durationTicks": 48,
          "midi": 72,
          "name": "C5",
          "ticks": 2400,
          "time": 8.333325,
          "velocity": 0.9133858267716536
        },
        {
          "duration": 0.24999975000000063,
          "durationTicks": 72,
          "midi": 75,
          "name": "D#5",
          "ticks": 2496,
          "time": 8.666658,
          "velocity": 0.9133858267716536
        },
        {
          "duration": 0.08333324999999903,
          "durationTicks": 24,
          "midi": 76,
          "name": "E5",
          "ticks": 2568,
          "time": 8.91665775,
          "velocity": 0.9133858267716536
        },
        {
          "duration": 0.0833332500000008,
          "durationTicks": 24,
          "midi": 68,
          "name": "G#4",
          "ticks": 2640,
          "time": 9.1666575,
          "velocity": 0.9133858267716536
        },
        {
          "duration": 0.0833332500000008,
          "durationTicks": 24,
          "midi": 69,
          "name": "A4",
          "ticks": 2688,
          "time": 9.333324,
          "velocity": 0.9133858267716536
        },
        {
          "duration": 0.0833332500000008,
          "durationTicks": 24,
          "midi": 72,
          "name": "C5",
          "ticks": 2736,
          "time": 9.4999905,
          "velocity": 0.9133858267716536
        },
        {
          "duration": 0.0833332500000008,
          "durationTicks": 24,
          "midi": 74,
          "name": "D5",
          "ticks": 2784,
          "time": 9.666656999999999,
          "velocity": 0.9133858267716536
        },
        {
          "duration": 0.08333324999999903,
          "durationTicks": 24,
          "midi": 72,
          "name": "C5",
          "ticks": 2832,
          "time": 9.8333235,
          "velocity": 0.9133858267716536
        },
        {
          "duration": 0.08333324999999903,
          "durationTicks": 24,
          "midi": 74,
          "name": "D5",
          "ticks": 2880,
          "time": 9.99999,
          "velocity": 0.9133858267716536
        },
        {
          "duration": 0.08333324999999903,
          "durationTicks": 24,
          "midi": 75,
          "name": "D#5",
          "ticks": 2928,
          "time": 10.1666565,
          "velocity": 0.9133858267716536
        },
        {
          "duration": 0.24999975000000063,
          "durationTicks": 72,
          "midi": 76,
          "name": "E5",
          "ticks": 2952,
          "time": 10.24998975,
          "velocity": 0.9133858267716536
        },
        {
          "duration": 0.0833332500000008,
          "durationTicks": 24,
          "midi": 79,
          "name": "G5",
          "ticks": 3072,
          "time": 10.666656,
          "velocity": 0.9133858267716536
        },
        {
          "duration": 0.0833332500000008,
          "durationTicks": 24,
          "midi": 78,
          "name": "F#5",
          "ticks": 3120,
          "time": 10.8333225,
          "velocity": 0.9133858267716536
        },
        {
          "duration": 0.0833332500000008,
          "durationTicks": 24,
          "midi": 77,
          "name": "F5",
          "ticks": 3168,
          "time": 10.999989,
          "velocity": 0.9133858267716536
        },
        {
          "duration": 0.0833332500000008,
          "durationTicks": 24,
          "midi": 75,
          "name": "D#5",
          "ticks": 3216,
          "time": 11.1666555,
          "velocity": 0.9133858267716536
        },
        {
          "duration": 0.0833332500000008,
          "durationTicks": 24,
          "midi": 76,
          "name": "E5",
          "ticks": 3264,
          "time": 11.333321999999999,
          "velocity": 0.9133858267716536
        },
        {
          "duration": 0.0833332500000008,
          "durationTicks": 24,
          "midi": 77,
          "name": "F5",
          "ticks": 3312,
          "time": 11.499988499999999,
          "velocity": 0.9133858267716536
        },
        {
          "duration": 0.08333324999999903,
          "durationTicks": 24,
          "midi": 78,
          "name": "F#5",
          "ticks": 3360,
          "time": 11.666655,
          "velocity": 0.9133858267716536
        },
        {
          "duration": 0.08333324999999903,
          "durationTicks": 24,
          "midi": 78,
          "name": "F#5",
          "ticks": 3408,
          "time": 11.8333215,
          "velocity": 0.9133858267716536
        },
        {
          "duration": 0.08333324999999903,
          "durationTicks": 24,
          "midi": 80,
          "name": "G#5",
          "ticks": 3456,
          "time": 11.999988,
          "velocity": 0.9133858267716536
        },
        {
          "duration": 0.08333324999999903,
          "durationTicks": 24,
          "midi": 80,
          "name": "G#5",
          "ticks": 3504,
          "time": 12.1666545,
          "velocity": 0.9133858267716536
        },
        {
          "duration": 0.08333324999999903,
          "durationTicks": 24,
          "midi": 81,
          "name": "A5",
          "ticks": 3552,
          "time": 12.333321,
          "velocity": 0.9133858267716536
        },
        {
          "duration": 0.0833332500000008,
          "durationTicks": 24,
          "midi": 81,
          "name": "A5",
          "ticks": 3600,
          "time": 12.4999875,
          "velocity": 0.9133858267716536
        },
        {
          "duration": 0.33333299999999966,
          "durationTicks": 96,
          "midi": 83,
          "name": "B5",
          "ticks": 3648,
          "time": 12.666654,
          "velocity": 0.9133858267716536
        },
        {
          "duration": 0.16666649999999983,
          "durationTicks": 48,
          "midi": 69,
          "name": "A4",
          "ticks": 3840,
          "time": 13.33332,
          "velocity": 0.9133858267716536
        },
        {
          "duration": 0.16666649999999983,
          "durationTicks": 48,
          "midi": 72,
          "name": "C5",
          "ticks": 3936,
          "time": 13.666653,
          "velocity": 0.9133858267716536
        },
        {
          "duration": 0.24999975000000063,
          "durationTicks": 72,
          "midi": 75,
          "name": "D#5",
          "ticks": 4032,
          "time": 13.999986,
          "velocity": 0.9133858267716536
        },
        {
          "duration": 0.08333324999999903,
          "durationTicks": 24,
          "midi": 76,
          "name": "E5",
          "ticks": 4104,
          "time": 14.24998575,
          "velocity": 0.9133858267716536
        },
        {
          "duration": 0.0833332500000008,
          "durationTicks": 24,
          "midi": 68,
          "name": "G#4",
          "ticks": 4176,
          "time": 14.4999855,
          "velocity": 0.9133858267716536
        },
        {
          "duration": 0.0833332500000008,
          "durationTicks": 24,
          "midi": 69,
          "name": "A4",
          "ticks": 4224,
          "time": 14.666652,
          "velocity": 0.9133858267716536
        },
        {
          "duration": 0.0833332500000008,
          "durationTicks": 24,
          "midi": 72,
          "name": "C5",
          "ticks": 4272,
          "time": 14.833318499999999,
          "velocity": 0.9133858267716536
        },
        {
          "duration": 0.0833332500000008,
          "durationTicks": 24,
          "midi": 74,
          "name": "D5",
          "ticks": 4320,
          "time": 14.999984999999999,
          "velocity": 0.9133858267716536
        },
        {
          "duration": 0.08333324999999903,
          "durationTicks": 24,
          "midi": 72,
          "name": "C5",
          "ticks": 4368,
          "time": 15.1666515,
          "velocity": 0.9133858267716536
        },
        {
          "duration": 0.08333324999999903,
          "durationTicks": 24,
          "midi": 74,
          "name": "D5",
          "ticks": 4416,
          "time": 15.333318,
          "velocity": 0.9133858267716536
        },
        {
          "duration": 0.08333324999999903,
          "durationTicks": 24,
          "midi": 75,
          "name": "D#5",
          "ticks": 4464,
          "time": 15.4999845,
          "velocity": 0.9133858267716536
        },
        {
          "duration": 0.24999975000000063,
          "durationTicks": 72,
          "midi": 76,
          "name": "E5",
          "ticks": 4488,
          "time": 15.583317749999999,
          "velocity": 0.9133858267716536
        },
        {
          "duration": 0.0833332500000008,
          "durationTicks": 24,
          "midi": 79,
          "name": "G5",
          "ticks": 4608,
          "time": 15.999984,
          "velocity": 0.9133858267716536
        },
        {
          "duration": 0.08333324999999903,
          "durationTicks": 24,
          "midi": 78,
          "name": "F#5",
          "ticks": 4656,
          "time": 16.1666505,
          "velocity": 0.9133858267716536
        },
        {
          "duration": 0.08333324999999903,
          "durationTicks": 24,
          "midi": 77,
          "name": "F5",
          "ticks": 4704,
          "time": 16.333317,
          "velocity": 0.9133858267716536
        },
        {
          "duration": 0.08333324999999903,
          "durationTicks": 24,
          "midi": 75,
          "name": "D#5",
          "ticks": 4752,
          "time": 16.4999835,
          "velocity": 0.9133858267716536
        },
        {
          "duration": 0.08333324999999903,
          "durationTicks": 24,
          "midi": 74,
          "name": "D5",
          "ticks": 4800,
          "time": 16.66665,
          "velocity": 0.9133858267716536
        },
        {
          "duration": 0.08333325000000258,
          "durationTicks": 24,
          "midi": 72,
          "name": "C5",
          "ticks": 4848,
          "time": 16.8333165,
          "velocity": 0.9133858267716536
        },
        {
          "duration": 0.08333324999999903,
          "durationTicks": 24,
          "midi": 71,
          "name": "B4",
          "ticks": 4896,
          "time": 16.999983,
          "velocity": 0.9133858267716536
        },
        {
          "duration": 0.08333325000000258,
          "durationTicks": 24,
          "midi": 70,
          "name": "A#4",
          "ticks": 4944,
          "time": 17.1666495,
          "velocity": 0.9133858267716536
        },
        {
          "duration": 0.08333324999999903,
          "durationTicks": 24,
          "midi": 71,
          "name": "B4",
          "ticks": 4992,
          "time": 17.333316,
          "velocity": 0.9133858267716536
        },
        {
          "duration": 0.08333325000000258,
          "durationTicks": 24,
          "midi": 72,
          "name": "C5",
          "ticks": 5040,
          "time": 17.499982499999998,
          "velocity": 0.9133858267716536
        },
        {
          "duration": 0.08333324999999903,
          "durationTicks": 24,
          "midi": 74,
          "name": "D5",
          "ticks": 5088,
          "time": 17.666649,
          "velocity": 0.9133858267716536
        },
        {
          "duration": 0.08333324999999903,
          "durationTicks": 24,
          "midi": 75,
          "name": "D#5",
          "ticks": 5136,
          "time": 17.8333155,
          "velocity": 0.9133858267716536
        },
        {
          "duration": 0.33333299999999966,
          "durationTicks": 96,
          "midi": 76,
          "name": "E5",
          "ticks": 5184,
          "time": 17.999982,
          "velocity": 0.9133858267716536
        },
        {
          "duration": 0.33333299999999966,
          "durationTicks": 96,
          "midi": 64,
          "name": "E4",
          "ticks": 5280,
          "time": 18.333315,
          "velocity": 0.9133858267716536
        },
        {
          "duration": 0.1666665000000016,
          "durationTicks": 48,
          "midi": 69,
          "name": "A4",
          "ticks": 5376,
          "time": 18.666648,
          "velocity": 0.9133858267716536
        },
        {
          "duration": 0.1666665000000016,
          "durationTicks": 48,
          "midi": 72,
          "name": "C5",
          "ticks": 5472,
          "time": 18.999981,
          "velocity": 0.9133858267716536
        },
        {
          "duration": 0.24999975000000063,
          "durationTicks": 72,
          "midi": 75,
          "name": "D#5",
          "ticks": 5568,
          "time": 19.333313999999998,
          "velocity": 0.9133858267716536
        },
        {
          "duration": 0.08333325000000258,
          "durationTicks": 24,
          "midi": 76,
          "name": "E5",
          "ticks": 5640,
          "time": 19.58331375,
          "velocity": 0.9133858267716536
        },
        {
          "duration": 0.08333324999999903,
          "durationTicks": 24,
          "midi": 68,
          "name": "G#4",
          "ticks": 5712,
          "time": 19.8333135,
          "velocity": 0.9133858267716536
        },
        {
          "duration": 0.08333324999999903,
          "durationTicks": 24,
          "midi": 69,
          "name": "A4",
          "ticks": 5760,
          "time": 19.99998,
          "velocity": 0.9133858267716536
        },
        {
          "duration": 0.08333324999999903,
          "durationTicks": 24,
          "midi": 72,
          "name": "C5",
          "ticks": 5808,
          "time": 20.1666465,
          "velocity": 0.9133858267716536
        },
        {
          "duration": 0.08333324999999903,
          "durationTicks": 24,
          "midi": 74,
          "name": "D5",
          "ticks": 5856,
          "time": 20.333313,
          "velocity": 0.9133858267716536
        },
        {
          "duration": 0.08333325000000258,
          "durationTicks": 24,
          "midi": 72,
          "name": "C5",
          "ticks": 5904,
          "time": 20.4999795,
          "velocity": 0.9133858267716536
        },
        {
          "duration": 0.08333324999999903,
          "durationTicks": 24,
          "midi": 74,
          "name": "D5",
          "ticks": 5952,
          "time": 20.666646,
          "velocity": 0.9133858267716536
        },
        {
          "duration": 0.08333325000000258,
          "durationTicks": 24,
          "midi": 75,
          "name": "D#5",
          "ticks": 6000,
          "time": 20.833312499999998,
          "velocity": 0.9133858267716536
        },
        {
          "duration": 0.24999974999999708,
          "durationTicks": 72,
          "midi": 76,
          "name": "E5",
          "ticks": 6024,
          "time": 20.91664575,
          "velocity": 0.9133858267716536
        },
        {
          "duration": 0.08333324999999903,
          "durationTicks": 24,
          "midi": 79,
          "name": "G5",
          "ticks": 6144,
          "time": 21.333312,
          "velocity": 0.9133858267716536
        },
        {
          "duration": 0.08333324999999903,
          "durationTicks": 24,
          "midi": 78,
          "name": "F#5",
          "ticks": 6192,
          "time": 21.4999785,
          "velocity": 0.9133858267716536
        },
        {
          "duration": 0.08333324999999903,
          "durationTicks": 24,
          "midi": 77,
          "name": "F5",
          "ticks": 6240,
          "time": 21.666645,
          "velocity": 0.9133858267716536
        },
        {
          "duration": 0.08333324999999903,
          "durationTicks": 24,
          "midi": 75,
          "name": "D#5",
          "ticks": 6288,
          "time": 21.8333115,
          "velocity": 0.9133858267716536
        },
        {
          "duration": 0.08333324999999903,
          "durationTicks": 24,
          "midi": 76,
          "name": "E5",
          "ticks": 6336,
          "time": 21.999978,
          "velocity": 0.9133858267716536
        },
        {
          "duration": 0.08333324999999903,
          "durationTicks": 24,
          "midi": 77,
          "name": "F5",
          "ticks": 6384,
          "time": 22.1666445,
          "velocity": 0.9133858267716536
        },
        {
          "duration": 0.08333325000000258,
          "durationTicks": 24,
          "midi": 78,
          "name": "F#5",
          "ticks": 6432,
          "time": 22.333311,
          "velocity": 0.9133858267716536
        },
        {
          "duration": 0.08333324999999903,
          "durationTicks": 24,
          "midi": 78,
          "name": "F#5",
          "ticks": 6480,
          "time": 22.4999775,
          "velocity": 0.9133858267716536
        },
        {
          "duration": 0.08333325000000258,
          "durationTicks": 24,
          "midi": 80,
          "name": "G#5",
          "ticks": 6528,
          "time": 22.666643999999998,
          "velocity": 0.9133858267716536
        },
        {
          "duration": 0.08333324999999903,
          "durationTicks": 24,
          "midi": 80,
          "name": "G#5",
          "ticks": 6576,
          "time": 22.8333105,
          "velocity": 0.9133858267716536
        },
        {
          "duration": 0.08333325000000258,
          "durationTicks": 24,
          "midi": 81,
          "name": "A5",
          "ticks": 6624,
          "time": 22.999976999999998,
          "velocity": 0.9133858267716536
        },
        {
          "duration": 0.08333324999999903,
          "durationTicks": 24,
          "midi": 81,
          "name": "A5",
          "ticks": 6672,
          "time": 23.1666435,
          "velocity": 0.9133858267716536
        },
        {
          "duration": 0.33333299999999966,
          "durationTicks": 96,
          "midi": 83,
          "name": "B5",
          "ticks": 6720,
          "time": 23.33331,
          "velocity": 0.9133858267716536
        },
        {
          "duration": 0.08333324999999903,
          "durationTicks": 24,
          "midi": 68,
          "name": "G#4",
          "ticks": 6816,
          "time": 23.666643,
          "velocity": 0.9133858267716536
        },
        {
          "duration": 0.08333324999999903,
          "durationTicks": 24,
          "midi": 69,
          "name": "A4",
          "ticks": 6864,
          "time": 23.8333095,
          "velocity": 0.9133858267716536
        },
        {
          "duration": 0.16666649999999805,
          "durationTicks": 48,
          "midi": 69,
          "name": "A4",
          "ticks": 6912,
          "time": 23.999976,
          "velocity": 0.9133858267716536
        },
        {
          "duration": 0.16666649999999805,
          "durationTicks": 48,
          "midi": 72,
          "name": "C5",
          "ticks": 7008,
          "time": 24.333309,
          "velocity": 0.9133858267716536
        },
        {
          "duration": 0.24999975000000063,
          "durationTicks": 72,
          "midi": 75,
          "name": "D#5",
          "ticks": 7104,
          "time": 24.666642,
          "velocity": 0.9133858267716536
        },
        {
          "duration": 0.08333324999999903,
          "durationTicks": 24,
          "midi": 76,
          "name": "E5",
          "ticks": 7176,
          "time": 24.91664175,
          "velocity": 0.9133858267716536
        },
        {
          "duration": 0.08333324999999903,
          "durationTicks": 24,
          "midi": 68,
          "name": "G#4",
          "ticks": 7248,
          "time": 25.1666415,
          "velocity": 0.9133858267716536
        },
        {
          "duration": 0.08333324999999903,
          "durationTicks": 24,
          "midi": 69,
          "name": "A4",
          "ticks": 7296,
          "time": 25.333308,
          "velocity": 0.9133858267716536
        },
        {
          "duration": 0.08333324999999903,
          "durationTicks": 24,
          "midi": 72,
          "name": "C5",
          "ticks": 7344,
          "time": 25.4999745,
          "velocity": 0.9133858267716536
        },
        {
          "duration": 0.08333324999999903,
          "durationTicks": 24,
          "midi": 74,
          "name": "D5",
          "ticks": 7392,
          "time": 25.666641,
          "velocity": 0.9133858267716536
        },
        {
          "duration": 0.08333324999999903,
          "durationTicks": 24,
          "midi": 72,
          "name": "C5",
          "ticks": 7440,
          "time": 25.8333075,
          "velocity": 0.9133858267716536
        },
        {
          "duration": 0.08333325000000258,
          "durationTicks": 24,
          "midi": 74,
          "name": "D5",
          "ticks": 7488,
          "time": 25.999973999999998,
          "velocity": 0.9133858267716536
        },
        {
          "duration": 0.08333324999999903,
          "durationTicks": 24,
          "midi": 75,
          "name": "D#5",
          "ticks": 7536,
          "time": 26.1666405,
          "velocity": 0.9133858267716536
        },
        {
          "duration": 0.24999975000000063,
          "durationTicks": 72,
          "midi": 76,
          "name": "E5",
          "ticks": 7560,
          "time": 26.24997375,
          "velocity": 0.9133858267716536
        },
        {
          "duration": 0.08333324999999903,
          "durationTicks": 24,
          "midi": 79,
          "name": "G5",
          "ticks": 7680,
          "time": 26.66664,
          "velocity": 0.9133858267716536
        },
        {
          "duration": 0.08333324999999903,
          "durationTicks": 24,
          "midi": 78,
          "name": "F#5",
          "ticks": 7728,
          "time": 26.8333065,
          "velocity": 0.9133858267716536
        },
        {
          "duration": 0.08333324999999903,
          "durationTicks": 24,
          "midi": 77,
          "name": "F5",
          "ticks": 7776,
          "time": 26.999973,
          "velocity": 0.9133858267716536
        },
        {
          "duration": 0.08333324999999903,
          "durationTicks": 24,
          "midi": 75,
          "name": "D#5",
          "ticks": 7824,
          "time": 27.1666395,
          "velocity": 0.9133858267716536
        },
        {
          "duration": 0.08333324999999903,
          "durationTicks": 24,
          "midi": 74,
          "name": "D5",
          "ticks": 7872,
          "time": 27.333306,
          "velocity": 0.9133858267716536
        },
        {
          "duration": 0.08333325000000258,
          "durationTicks": 24,
          "midi": 72,
          "name": "C5",
          "ticks": 7920,
          "time": 27.4999725,
          "velocity": 0.9133858267716536
        },
        {
          "duration": 0.08333324999999903,
          "durationTicks": 24,
          "midi": 71,
          "name": "B4",
          "ticks": 7968,
          "time": 27.666639,
          "velocity": 0.9133858267716536
        },
        {
          "duration": 0.08333325000000258,
          "durationTicks": 24,
          "midi": 70,
          "name": "A#4",
          "ticks": 8016,
          "time": 27.833305499999998,
          "velocity": 0.9133858267716536
        },
        {
          "duration": 0.08333324999999903,
          "durationTicks": 24,
          "midi": 71,
          "name": "B4",
          "ticks": 8064,
          "time": 27.999972,
          "velocity": 0.9133858267716536
        },
        {
          "duration": 0.08333325000000258,
          "durationTicks": 24,
          "midi": 72,
          "name": "C5",
          "ticks": 8112,
          "time": 28.166638499999998,
          "velocity": 0.9133858267716536
        },
        {
          "duration": 0.08333324999999903,
          "durationTicks": 24,
          "midi": 74,
          "name": "D5",
          "ticks": 8160,
          "time": 28.333305,
          "velocity": 0.9133858267716536
        },
        {
          "duration": 0.08333324999999903,
          "durationTicks": 24,
          "midi": 75,
          "name": "D#5",
          "ticks": 8208,
          "time": 28.4999715,
          "velocity": 0.9133858267716536
        },
        {
          "duration": 0.33333299999999966,
          "durationTicks": 96,
          "midi": 76,
          "name": "E5",
          "ticks": 8256,
          "time": 28.666638,
          "velocity": 0.9133858267716536
        },
        {
          "duration": 0.33333299999999966,
          "durationTicks": 96,
          "midi": 64,
          "name": "E4",
          "ticks": 8352,
          "time": 28.999971,
          "velocity": 0.9133858267716536
        },
        {
          "duration": 0.1666665000000016,
          "durationTicks": 48,
          "midi": 69,
          "name": "A4",
          "ticks": 8448,
          "time": 29.333304,
          "velocity": 0.9133858267716536
        },
        {
          "duration": 0.1666665000000016,
          "durationTicks": 48,
          "midi": 72,
          "name": "C5",
          "ticks": 8544,
          "time": 29.666636999999998,
          "velocity": 0.9133858267716536
        },
        {
          "duration": 0.24999975000000063,
          "durationTicks": 72,
          "midi": 75,
          "name": "D#5",
          "ticks": 8640,
          "time": 29.999969999999998,
          "velocity": 0.9133858267716536
        },
        {
          "duration": 0.08333325000000258,
          "durationTicks": 24,
          "midi": 76,
          "name": "E5",
          "ticks": 8712,
          "time": 30.249969749999998,
          "velocity": 0.9133858267716536
        },
        {
          "duration": 0.08333324999999903,
          "durationTicks": 24,
          "midi": 68,
          "name": "G#4",
          "ticks": 8784,
          "time": 30.4999695,
          "velocity": 0.9133858267716536
        },
        {
          "duration": 0.08333324999999903,
          "durationTicks": 24,
          "midi": 69,
          "name": "A4",
          "ticks": 8832,
          "time": 30.666636,
          "velocity": 0.9133858267716536
        },
        {
          "duration": 0.08333324999999903,
          "durationTicks": 24,
          "midi": 72,
          "name": "C5",
          "ticks": 8880,
          "time": 30.8333025,
          "velocity": 0.9133858267716536
        },
        {
          "duration": 0.08333324999999903,
          "durationTicks": 24,
          "midi": 74,
          "name": "D5",
          "ticks": 8928,
          "time": 30.999969,
          "velocity": 0.9133858267716536
        },
        {
          "duration": 0.08333325000000258,
          "durationTicks": 24,
          "midi": 72,
          "name": "C5",
          "ticks": 8976,
          "time": 31.166635499999998,
          "velocity": 0.9133858267716536
        },
        {
          "duration": 0.08333324999999903,
          "durationTicks": 24,
          "midi": 74,
          "name": "D5",
          "ticks": 9024,
          "time": 31.333302,
          "velocity": 0.9133858267716536
        },
        {
          "duration": 0.08333325000000258,
          "durationTicks": 24,
          "midi": 75,
          "name": "D#5",
          "ticks": 9072,
          "time": 31.499968499999998,
          "velocity": 0.9133858267716536
        },
        {
          "duration": 0.24999974999999708,
          "durationTicks": 72,
          "midi": 76,
          "name": "E5",
          "ticks": 9096,
          "time": 31.58330175,
          "velocity": 0.9133858267716536
        },
        {
          "duration": 0.08333324999999903,
          "durationTicks": 24,
          "midi": 79,
          "name": "G5",
          "ticks": 9216,
          "time": 31.999968,
          "velocity": 0.9133858267716536
        },
        {
          "duration": 0.08333324999999547,
          "durationTicks": 24,
          "midi": 78,
          "name": "F#5",
          "ticks": 9264,
          "time": 32.1666345,
          "velocity": 0.9133858267716536
        },
        {
          "duration": 0.08333325000000258,
          "durationTicks": 24,
          "midi": 77,
          "name": "F5",
          "ticks": 9312,
          "time": 32.333301,
          "velocity": 0.9133858267716536
        },
        {
          "duration": 0.08333325000000258,
          "durationTicks": 24,
          "midi": 75,
          "name": "D#5",
          "ticks": 9360,
          "time": 32.4999675,
          "velocity": 0.9133858267716536
        },
        {
          "duration": 0.08333324999999547,
          "durationTicks": 24,
          "midi": 76,
          "name": "E5",
          "ticks": 9408,
          "time": 32.666634,
          "velocity": 0.9133858267716536
        },
        {
          "duration": 0.08333325000000258,
          "durationTicks": 24,
          "midi": 77,
          "name": "F5",
          "ticks": 9456,
          "time": 32.8333005,
          "velocity": 0.9133858267716536
        },
        {
          "duration": 0.08333325000000258,
          "durationTicks": 24,
          "midi": 78,
          "name": "F#5",
          "ticks": 9504,
          "time": 32.999967,
          "velocity": 0.9133858267716536
        },
        {
          "duration": 0.08333325000000258,
          "durationTicks": 24,
          "midi": 78,
          "name": "F#5",
          "ticks": 9552,
          "time": 33.166633499999996,
          "velocity": 0.9133858267716536
        },
        {
          "duration": 0.08333324999999547,
          "durationTicks": 24,
          "midi": 80,
          "name": "G#5",
          "ticks": 9600,
          "time": 33.3333,
          "velocity": 0.9133858267716536
        },
        {
          "duration": 0.08333325000000258,
          "durationTicks": 24,
          "midi": 80,
          "name": "G#5",
          "ticks": 9648,
          "time": 33.4999665,
          "velocity": 0.9133858267716536
        },
        {
          "duration": 0.08333325000000258,
          "durationTicks": 24,
          "midi": 81,
          "name": "A5",
          "ticks": 9696,
          "time": 33.666633,
          "velocity": 0.9133858267716536
        },
        {
          "duration": 0.08333324999999547,
          "durationTicks": 24,
          "midi": 81,
          "name": "A5",
          "ticks": 9744,
          "time": 33.8332995,
          "velocity": 0.9133858267716536
        },
        {
          "duration": 0.6666659999999993,
          "durationTicks": 192,
          "midi": 83,
          "name": "B5",
          "ticks": 9792,
          "time": 33.999966,
          "velocity": 0.9133858267716536
        },
        {
          "duration": 0.08333325000000258,
          "durationTicks": 24,
          "midi": 76,
          "name": "E5",
          "ticks": 9984,
          "time": 34.666632,
          "velocity": 0.9133858267716536
        },
        {
          "duration": 0.08333325000000258,
          "durationTicks": 24,
          "midi": 74,
          "name": "D5",
          "ticks": 10032,
          "time": 34.8332985,
          "velocity": 0.9133858267716536
        },
        {
          "duration": 0.08333325000000258,
          "durationTicks": 24,
          "midi": 76,
          "name": "E5",
          "ticks": 10080,
          "time": 34.999964999999996,
          "velocity": 0.9133858267716536
        },
        {
          "duration": 0.08333324999999547,
          "durationTicks": 24,
          "midi": 77,
          "name": "F5",
          "ticks": 10128,
          "time": 35.1666315,
          "velocity": 0.9133858267716536
        },
        {
          "duration": 0.08333325000000258,
          "durationTicks": 24,
          "midi": 76,
          "name": "E5",
          "ticks": 10176,
          "time": 35.333298,
          "velocity": 0.9133858267716536
        },
        {
          "duration": 0.08333325000000258,
          "durationTicks": 24,
          "midi": 74,
          "name": "D5",
          "ticks": 10224,
          "time": 35.4999645,
          "velocity": 0.9133858267716536
        },
        {
          "duration": 0.08333324999999547,
          "durationTicks": 24,
          "midi": 72,
          "name": "C5",
          "ticks": 10272,
          "time": 35.666631,
          "velocity": 0.9133858267716536
        },
        {
          "duration": 0.08333324999999547,
          "durationTicks": 24,
          "midi": 74,
          "name": "D5",
          "ticks": 10320,
          "time": 35.8332975,
          "velocity": 0.9133858267716536
        },
        {
          "duration": 0.08333325000000258,
          "durationTicks": 24,
          "midi": 76,
          "name": "E5",
          "ticks": 10368,
          "time": 35.999964,
          "velocity": 0.9133858267716536
        },
        {
          "duration": 0.08333325000000258,
          "durationTicks": 24,
          "midi": 74,
          "name": "D5",
          "ticks": 10416,
          "time": 36.1666305,
          "velocity": 0.9133858267716536
        },
        {
          "duration": 0.08333324999999547,
          "durationTicks": 24,
          "midi": 76,
          "name": "E5",
          "ticks": 10464,
          "time": 36.333297,
          "velocity": 0.9133858267716536
        },
        {
          "duration": 0.08333325000000258,
          "durationTicks": 24,
          "midi": 77,
          "name": "F5",
          "ticks": 10512,
          "time": 36.4999635,
          "velocity": 0.9133858267716536
        },
        {
          "duration": 0.08333325000000258,
          "durationTicks": 24,
          "midi": 76,
          "name": "E5",
          "ticks": 10560,
          "time": 36.66663,
          "velocity": 0.9133858267716536
        },
        {
          "duration": 0.08333325000000258,
          "durationTicks": 24,
          "midi": 74,
          "name": "D5",
          "ticks": 10608,
          "time": 36.833296499999996,
          "velocity": 0.9133858267716536
        },
        {
          "duration": 0.08333324999999547,
          "durationTicks": 24,
          "midi": 72,
          "name": "C5",
          "ticks": 10656,
          "time": 36.999963,
          "velocity": 0.9133858267716536
        },
        {
          "duration": 0.08333325000000258,
          "durationTicks": 24,
          "midi": 71,
          "name": "B4",
          "ticks": 10704,
          "time": 37.1666295,
          "velocity": 0.9133858267716536
        },
        {
          "duration": 0.3333330000000032,
          "durationTicks": 96,
          "midi": 69,
          "name": "A4",
          "ticks": 10752,
          "time": 37.333296,
          "velocity": 0.9133858267716536
        },
        {
          "duration": 0.08333324999999547,
          "durationTicks": 24,
          "midi": 81,
          "name": "A5",
          "ticks": 10848,
          "time": 37.666629,
          "velocity": 0.9291338582677166
        },
        {
          "duration": 0.08333325000000258,
          "durationTicks": 24,
          "midi": 69,
          "name": "A4",
          "ticks": 10896,
          "time": 37.8332955,
          "velocity": 0.9133858267716536
        },
        {
          "duration": 0.08333325000000258,
          "durationTicks": 24,
          "midi": 80,
          "name": "G#5",
          "ticks": 10944,
          "time": 37.999962,
          "velocity": 0.9133858267716536
        },
        {
          "duration": 0.08333324999999547,
          "durationTicks": 24,
          "midi": 69,
          "name": "A4",
          "ticks": 10992,
          "time": 38.1666285,
          "velocity": 0.9133858267716536
        },
        {
          "duration": 0.08333325000000258,
          "durationTicks": 24,
          "midi": 79,
          "name": "G5",
          "ticks": 11040,
          "time": 38.333295,
          "velocity": 0.9133858267716536
        },
        {
          "duration": 0.08333325000000258,
          "durationTicks": 24,
          "midi": 69,
          "name": "A4",
          "ticks": 11088,
          "time": 38.4999615,
          "velocity": 0.9133858267716536
        },
        {
          "duration": 0.08333325000000258,
          "durationTicks": 24,
          "midi": 78,
          "name": "F#5",
          "ticks": 11136,
          "time": 38.666627999999996,
          "velocity": 0.9133858267716536
        },
        {
          "duration": 0.08333324999999547,
          "durationTicks": 24,
          "midi": 69,
          "name": "A4",
          "ticks": 11184,
          "time": 38.8332945,
          "velocity": 0.9133858267716536
        },
        {
          "duration": 0.08333325000000258,
          "durationTicks": 24,
          "midi": 77,
          "name": "F5",
          "ticks": 11232,
          "time": 38.999961,
          "velocity": 0.9133858267716536
        },
        {
          "duration": 0.08333325000000258,
          "durationTicks": 24,
          "midi": 69,
          "name": "A4",
          "ticks": 11280,
          "time": 39.1666275,
          "velocity": 0.9133858267716536
        },
        {
          "duration": 0.08333324999999547,
          "durationTicks": 24,
          "midi": 75,
          "name": "D#5",
          "ticks": 11328,
          "time": 39.333294,
          "velocity": 0.9133858267716536
        },
        {
          "duration": 0.08333324999999547,
          "durationTicks": 24,
          "midi": 69,
          "name": "A4",
          "ticks": 11376,
          "time": 39.4999605,
          "velocity": 0.9133858267716536
        },
        {
          "duration": 0.08333325000000258,
          "durationTicks": 24,
          "midi": 76,
          "name": "E5",
          "ticks": 11424,
          "time": 39.666627,
          "velocity": 0.9133858267716536
        },
        {
          "duration": 0.08333325000000258,
          "durationTicks": 24,
          "midi": 69,
          "name": "A4",
          "ticks": 11472,
          "time": 39.833293499999996,
          "velocity": 0.9133858267716536
        },
        {
          "duration": 0.08333324999999547,
          "durationTicks": 24,
          "midi": 76,
          "name": "E5",
          "ticks": 11520,
          "time": 39.99996,
          "velocity": 0.9133858267716536
        },
        {
          "duration": 0.08333325000000258,
          "durationTicks": 24,
          "midi": 75,
          "name": "D#5",
          "ticks": 11568,
          "time": 40.1666265,
          "velocity": 0.9133858267716536
        },
        {
          "duration": 0.08333325000000258,
          "durationTicks": 24,
          "midi": 76,
          "name": "E5",
          "ticks": 11616,
          "time": 40.333293,
          "velocity": 0.9133858267716536
        },
        {
          "duration": 0.08333325000000258,
          "durationTicks": 24,
          "midi": 77,
          "name": "F5",
          "ticks": 11664,
          "time": 40.499959499999996,
          "velocity": 0.9133858267716536
        },
        {
          "duration": 0.08333324999999547,
          "durationTicks": 24,
          "midi": 76,
          "name": "E5",
          "ticks": 11712,
          "time": 40.666626,
          "velocity": 0.9133858267716536
        },
        {
          "duration": 0.08333325000000258,
          "durationTicks": 24,
          "midi": 74,
          "name": "D5",
          "ticks": 11760,
          "time": 40.8332925,
          "velocity": 0.9133858267716536
        },
        {
          "duration": 0.08333325000000258,
          "durationTicks": 24,
          "midi": 72,
          "name": "C5",
          "ticks": 11808,
          "time": 40.999959,
          "velocity": 0.9133858267716536
        },
        {
          "duration": 0.08333324999999547,
          "durationTicks": 24,
          "midi": 74,
          "name": "D5",
          "ticks": 11856,
          "time": 41.1666255,
          "velocity": 0.9133858267716536
        },
        {
          "duration": 0.08333324999999547,
          "durationTicks": 24,
          "midi": 76,
          "name": "E5",
          "ticks": 11904,
          "time": 41.333292,
          "velocity": 0.9133858267716536
        },
        {
          "duration": 0.08333325000000258,
          "durationTicks": 24,
          "midi": 74,
          "name": "D5",
          "ticks": 11952,
          "time": 41.4999585,
          "velocity": 0.9133858267716536
        },
        {
          "duration": 0.08333325000000258,
          "durationTicks": 24,
          "midi": 76,
          "name": "E5",
          "ticks": 12000,
          "time": 41.666624999999996,
          "velocity": 0.9133858267716536
        },
        {
          "duration": 0.08333324999999547,
          "durationTicks": 24,
          "midi": 77,
          "name": "F5",
          "ticks": 12048,
          "time": 41.8332915,
          "velocity": 0.9133858267716536
        },
        {
          "duration": 0.08333325000000258,
          "durationTicks": 24,
          "midi": 76,
          "name": "E5",
          "ticks": 12096,
          "time": 41.999958,
          "velocity": 0.9133858267716536
        },
        {
          "duration": 0.08333325000000258,
          "durationTicks": 24,
          "midi": 74,
          "name": "D5",
          "ticks": 12144,
          "time": 42.1666245,
          "velocity": 0.9133858267716536
        },
        {
          "duration": 0.08333325000000258,
          "durationTicks": 24,
          "midi": 72,
          "name": "C5",
          "ticks": 12192,
          "time": 42.333290999999996,
          "velocity": 0.9133858267716536
        },
        {
          "duration": 0.08333324999999547,
          "durationTicks": 24,
          "midi": 74,
          "name": "D5",
          "ticks": 12240,
          "time": 42.4999575,
          "velocity": 0.9133858267716536
        },
        {
          "duration": 0.16666649999999805,
          "durationTicks": 48,
          "midi": 76,
          "name": "E5",
          "ticks": 12288,
          "time": 42.666624,
          "velocity": 0.9133858267716536
        },
        {
          "duration": 0.08333325000000258,
          "durationTicks": 24,
          "midi": 74,
          "name": "D5",
          "ticks": 12336,
          "time": 42.8332905,
          "velocity": 0.9133858267716536
        },
        {
          "duration": 0.16666649999999805,
          "durationTicks": 48,
          "midi": 81,
          "name": "A5",
          "ticks": 12384,
          "time": 42.999957,
          "velocity": 0.9133858267716536
        },
        {
          "duration": 0.08333324999999547,
          "durationTicks": 24,
          "midi": 76,
          "name": "E5",
          "ticks": 12432,
          "time": 43.1666235,
          "velocity": 0.9133858267716536
        },
        {
          "duration": 0.16666649999999805,
          "durationTicks": 48,
          "midi": 83,
          "name": "B5",
          "ticks": 12480,
          "time": 43.33329,
          "velocity": 0.9133858267716536
        },
        {
          "duration": 0.08333325000000258,
          "durationTicks": 24,
          "midi": 76,
          "name": "E5",
          "ticks": 12528,
          "time": 43.499956499999996,
          "velocity": 0.9133858267716536
        },
        {
          "duration": 0.16666649999999805,
          "durationTicks": 48,
          "midi": 84,
          "name": "C6",
          "ticks": 12576,
          "time": 43.666623,
          "velocity": 0.9133858267716536
        },
        {
          "duration": 0.08333325000000258,
          "durationTicks": 24,
          "midi": 76,
          "name": "E5",
          "ticks": 12624,
          "time": 43.8332895,
          "velocity": 0.9133858267716536
        },
        {
          "duration": 0.16666649999999805,
          "durationTicks": 48,
          "midi": 85,
          "name": "C#6",
          "ticks": 12672,
          "time": 43.999956,
          "velocity": 0.9133858267716536
        },
        {
          "duration": 0.08333325000000258,
          "durationTicks": 24,
          "midi": 76,
          "name": "E5",
          "ticks": 12720,
          "time": 44.166622499999995,
          "velocity": 0.9133858267716536
        },
        {
          "duration": 0.16666649999999805,
          "durationTicks": 48,
          "midi": 86,
          "name": "D6",
          "ticks": 12768,
          "time": 44.333289,
          "velocity": 0.9133858267716536
        },
        {
          "duration": 0.08333325000000258,
          "durationTicks": 24,
          "midi": 76,
          "name": "E5",
          "ticks": 12816,
          "time": 44.4999555,
          "velocity": 0.9133858267716536
        },
        {
          "duration": 0.16666650000000516,
          "durationTicks": 48,
          "midi": 89,
          "name": "F6",
          "ticks": 12864,
          "time": 44.666622,
          "velocity": 0.9133858267716536
        },
        {
          "duration": 0.08333324999999547,
          "durationTicks": 24,
          "midi": 76,
          "name": "E5",
          "ticks": 12912,
          "time": 44.8332885,
          "velocity": 0.9133858267716536
        },
        {
          "duration": 0.3333329999999961,
          "durationTicks": 96,
          "midi": 87,
          "name": "D#6",
          "ticks": 12960,
          "time": 44.999955,
          "velocity": 0.9133858267716536
        },
        {
          "duration": 0.08333325000000258,
          "durationTicks": 24,
          "midi": 76,
          "name": "E5",
          "ticks": 13056,
          "time": 45.333287999999996,
          "velocity": 0.9133858267716536
        },
        {
          "duration": 0.08333324999999547,
          "durationTicks": 24,
          "midi": 74,
          "name": "D5",
          "ticks": 13104,
          "time": 45.4999545,
          "velocity": 0.9133858267716536
        },
        {
          "duration": 0.08333325000000258,
          "durationTicks": 24,
          "midi": 76,
          "name": "E5",
          "ticks": 13152,
          "time": 45.666621,
          "velocity": 0.9133858267716536
        },
        {
          "duration": 0.08333325000000258,
          "durationTicks": 24,
          "midi": 77,
          "name": "F5",
          "ticks": 13200,
          "time": 45.8332875,
          "velocity": 0.9133858267716536
        },
        {
          "duration": 0.08333325000000258,
          "durationTicks": 24,
          "midi": 76,
          "name": "E5",
          "ticks": 13248,
          "time": 45.999953999999995,
          "velocity": 0.9133858267716536
        },
        {
          "duration": 0.08333324999999547,
          "durationTicks": 24,
          "midi": 74,
          "name": "D5",
          "ticks": 13296,
          "time": 46.1666205,
          "velocity": 0.9133858267716536
        },
        {
          "duration": 0.08333325000000258,
          "durationTicks": 24,
          "midi": 72,
          "name": "C5",
          "ticks": 13344,
          "time": 46.333287,
          "velocity": 0.9133858267716536
        },
        {
          "duration": 0.08333325000000258,
          "durationTicks": 24,
          "midi": 74,
          "name": "D5",
          "ticks": 13392,
          "time": 46.4999535,
          "velocity": 0.9133858267716536
        },
        {
          "duration": 0.08333324999999547,
          "durationTicks": 24,
          "midi": 76,
          "name": "E5",
          "ticks": 13440,
          "time": 46.66662,
          "velocity": 0.9133858267716536
        },
        {
          "duration": 0.08333324999999547,
          "durationTicks": 24,
          "midi": 75,
          "name": "D#5",
          "ticks": 13488,
          "time": 46.8332865,
          "velocity": 0.9133858267716536
        },
        {
          "duration": 0.08333325000000258,
          "durationTicks": 24,
          "midi": 76,
          "name": "E5",
          "ticks": 13536,
          "time": 46.999953,
          "velocity": 0.9133858267716536
        },
        {
          "duration": 0.08333325000000258,
          "durationTicks": 24,
          "midi": 77,
          "name": "F5",
          "ticks": 13584,
          "time": 47.166619499999996,
          "velocity": 0.9133858267716536
        },
        {
          "duration": 0.08333324999999547,
          "durationTicks": 24,
          "midi": 76,
          "name": "E5",
          "ticks": 13632,
          "time": 47.333286,
          "velocity": 0.9133858267716536
        },
        {
          "duration": 0.08333325000000258,
          "durationTicks": 24,
          "midi": 74,
          "name": "D5",
          "ticks": 13680,
          "time": 47.4999525,
          "velocity": 0.9133858267716536
        },
        {
          "duration": 0.08333325000000258,
          "durationTicks": 24,
          "midi": 72,
          "name": "C5",
          "ticks": 13728,
          "time": 47.666619,
          "velocity": 0.9133858267716536
        },
        {
          "duration": 0.08333325000000258,
          "durationTicks": 24,
          "midi": 71,
          "name": "B4",
          "ticks": 13776,
          "time": 47.833285499999995,
          "velocity": 0.9133858267716536
        },
        {
          "duration": 0.24999975000000063,
          "durationTicks": 72,
          "midi": 69,
          "name": "A4",
          "ticks": 13824,
          "time": 47.999952,
          "velocity": 0.9133858267716536
        },
        {
          "duration": 0.08333325000000258,
          "durationTicks": 24,
          "midi": 81,
          "name": "A5",
          "ticks": 13920,
          "time": 48.333285,
          "velocity": 0.9133858267716536
        },
        {
          "duration": 0.08333324999999547,
          "durationTicks": 24,
          "midi": 69,
          "name": "A4",
          "ticks": 13968,
          "time": 48.4999515,
          "velocity": 0.9133858267716536
        },
        {
          "duration": 0.08333324999999547,
          "durationTicks": 24,
          "midi": 80,
          "name": "G#5",
          "ticks": 14016,
          "time": 48.666618,
          "velocity": 0.9133858267716536
        },
        {
          "duration": 0.08333325000000258,
          "durationTicks": 24,
          "midi": 69,
          "name": "A4",
          "ticks": 14064,
          "time": 48.8332845,
          "velocity": 0.9133858267716536
        },
        {
          "duration": 0.08333325000000258,
          "durationTicks": 24,
          "midi": 79,
          "name": "G5",
          "ticks": 14112,
          "time": 48.999950999999996,
          "velocity": 0.9133858267716536
        },
        {
          "duration": 0.08333324999999547,
          "durationTicks": 24,
          "midi": 69,
          "name": "A4",
          "ticks": 14160,
          "time": 49.1666175,
          "velocity": 0.9133858267716536
        },
        {
          "duration": 0.08333325000000258,
          "durationTicks": 24,
          "midi": 78,
          "name": "F#5",
          "ticks": 14208,
          "time": 49.333284,
          "velocity": 0.9133858267716536
        },
        {
          "duration": 0.08333325000000258,
          "durationTicks": 24,
          "midi": 69,
          "name": "A4",
          "ticks": 14256,
          "time": 49.4999505,
          "velocity": 0.9133858267716536
        },
        {
          "duration": 0.08333325000000258,
          "durationTicks": 24,
          "midi": 77,
          "name": "F5",
          "ticks": 14304,
          "time": 49.666616999999995,
          "velocity": 0.9133858267716536
        },
        {
          "duration": 0.08333324999999547,
          "durationTicks": 24,
          "midi": 69,
          "name": "A4",
          "ticks": 14352,
          "time": 49.8332835,
          "velocity": 0.9133858267716536
        },
        {
          "duration": 0.08333325000000258,
          "durationTicks": 24,
          "midi": 75,
          "name": "D#5",
          "ticks": 14400,
          "time": 49.99995,
          "velocity": 0.9133858267716536
        },
        {
          "duration": 0.08333325000000258,
          "durationTicks": 24,
          "midi": 69,
          "name": "A4",
          "ticks": 14448,
          "time": 50.166616499999996,
          "velocity": 0.9133858267716536
        },
        {
          "duration": 0.08333324999999547,
          "durationTicks": 24,
          "midi": 76,
          "name": "E5",
          "ticks": 14496,
          "time": 50.333283,
          "velocity": 0.9133858267716536
        },
        {
          "duration": 0.08333324999999547,
          "durationTicks": 24,
          "midi": 69,
          "name": "A4",
          "ticks": 14544,
          "time": 50.4999495,
          "velocity": 0.9133858267716536
        },
        {
          "duration": 0.08333325000000258,
          "durationTicks": 24,
          "midi": 76,
          "name": "E5",
          "ticks": 14592,
          "time": 50.666616,
          "velocity": 0.9133858267716536
        },
        {
          "duration": 0.08333325000000258,
          "durationTicks": 24,
          "midi": 75,
          "name": "D#5",
          "ticks": 14640,
          "time": 50.833282499999996,
          "velocity": 0.9133858267716536
        },
        {
          "duration": 0.08333324999999547,
          "durationTicks": 24,
          "midi": 76,
          "name": "E5",
          "ticks": 14688,
          "time": 50.999949,
          "velocity": 0.9133858267716536
        },
        {
          "duration": 0.08333325000000258,
          "durationTicks": 24,
          "midi": 77,
          "name": "F5",
          "ticks": 14736,
          "time": 51.1666155,
          "velocity": 0.9133858267716536
        },
        {
          "duration": 0.08333325000000258,
          "durationTicks": 24,
          "midi": 76,
          "name": "E5",
          "ticks": 14784,
          "time": 51.333282,
          "velocity": 0.9133858267716536
        },
        {
          "duration": 0.08333325000000258,
          "durationTicks": 24,
          "midi": 74,
          "name": "D5",
          "ticks": 14832,
          "time": 51.499948499999995,
          "velocity": 0.9133858267716536
        },
        {
          "duration": 0.08333324999999547,
          "durationTicks": 24,
          "midi": 72,
          "name": "C5",
          "ticks": 14880,
          "time": 51.666615,
          "velocity": 0.9133858267716536
        },
        {
          "duration": 0.08333325000000258,
          "durationTicks": 24,
          "midi": 74,
          "name": "D5",
          "ticks": 14928,
          "time": 51.8332815,
          "velocity": 0.9133858267716536
        },
        {
          "duration": 0.08333325000000258,
          "durationTicks": 24,
          "midi": 76,
          "name": "E5",
          "ticks": 14976,
          "time": 51.999947999999996,
          "velocity": 0.9133858267716536
        },
        {
          "duration": 0.08333324999999547,
          "durationTicks": 24,
          "midi": 75,
          "name": "D#5",
          "ticks": 15024,
          "time": 52.1666145,
          "velocity": 0.9133858267716536
        },
        {
          "duration": 0.08333324999999547,
          "durationTicks": 24,
          "midi": 76,
          "name": "E5",
          "ticks": 15072,
          "time": 52.333281,
          "velocity": 0.9133858267716536
        },
        {
          "duration": 0.08333325000000258,
          "durationTicks": 24,
          "midi": 77,
          "name": "F5",
          "ticks": 15120,
          "time": 52.4999475,
          "velocity": 0.9133858267716536
        },
        {
          "duration": 0.08333325000000258,
          "durationTicks": 24,
          "midi": 76,
          "name": "E5",
          "ticks": 15168,
          "time": 52.666613999999996,
          "velocity": 0.9133858267716536
        },
        {
          "duration": 0.08333324999999547,
          "durationTicks": 24,
          "midi": 74,
          "name": "D5",
          "ticks": 15216,
          "time": 52.8332805,
          "velocity": 0.9133858267716536
        },
        {
          "duration": 0.08333325000000258,
          "durationTicks": 24,
          "midi": 72,
          "name": "C5",
          "ticks": 15264,
          "time": 52.999947,
          "velocity": 0.9133858267716536
        },
        {
          "duration": 0.08333325000000258,
          "durationTicks": 24,
          "midi": 71,
          "name": "B4",
          "ticks": 15312,
          "time": 53.1666135,
          "velocity": 0.9133858267716536
        },
        {
          "duration": 0.08333324999999547,
          "durationTicks": 24,
          "midi": 69,
          "name": "A4",
          "ticks": 15360,
          "time": 53.33328,
          "velocity": 0.9133858267716536
        },
        {
          "duration": 0.08333325000000258,
          "durationTicks": 24,
          "midi": 76,
          "name": "E5",
          "ticks": 15456,
          "time": 53.666613,
          "velocity": 0.9133858267716536
        },
        {
          "duration": 0.08333325000000258,
          "durationTicks": 24,
          "midi": 72,
          "name": "C5",
          "ticks": 15504,
          "time": 53.833279499999996,
          "velocity": 0.9133858267716536
        },
        {
          "duration": 0.08333324999999547,
          "durationTicks": 24,
          "midi": 76,
          "name": "E5",
          "ticks": 15552,
          "time": 53.999946,
          "velocity": 0.9133858267716536
        },
        {
          "duration": 0.08333325000000258,
          "durationTicks": 24,
          "midi": 72,
          "name": "C5",
          "ticks": 15600,
          "time": 54.1666125,
          "velocity": 0.9133858267716536
        },
        {
          "duration": 0.08333325000000258,
          "durationTicks": 24,
          "midi": 69,
          "name": "A4",
          "ticks": 15648,
          "time": 54.333279,
          "velocity": 0.9133858267716536
        },
        {
          "duration": 0.08333325000000258,
          "durationTicks": 24,
          "midi": 72,
          "name": "C5",
          "ticks": 15696,
          "time": 54.499945499999995,
          "velocity": 0.9133858267716536
        },
        {
          "duration": 0.08333324999999547,
          "durationTicks": 24,
          "midi": 76,
          "name": "E5",
          "ticks": 15744,
          "time": 54.666612,
          "velocity": 0.9133858267716536
        },
        {
          "duration": 0.08333325000000258,
          "durationTicks": 24,
          "midi": 72,
          "name": "C5",
          "ticks": 15792,
          "time": 54.8332785,
          "velocity": 0.9133858267716536
        },
        {
          "duration": 0.08333325000000258,
          "durationTicks": 24,
          "midi": 76,
          "name": "E5",
          "ticks": 15840,
          "time": 54.999945,
          "velocity": 0.9133858267716536
        },
        {
          "duration": 0.08333324999999547,
          "durationTicks": 24,
          "midi": 72,
          "name": "C5",
          "ticks": 15888,
          "time": 55.1666115,
          "velocity": 0.9133858267716536
        },
        {
          "duration": 0.16666649999999805,
          "durationTicks": 48,
          "midi": 69,
          "name": "A4",
          "ticks": 16128,
          "time": 55.999944,
          "velocity": 0.9133858267716536
        },
        {
          "duration": 0.16666650000000516,
          "durationTicks": 48,
          "midi": 72,
          "name": "C5",
          "ticks": 16224,
          "time": 56.333276999999995,
          "velocity": 0.9133858267716536
        },
        {
          "duration": 0.24999975000000063,
          "durationTicks": 72,
          "midi": 75,
          "name": "D#5",
          "ticks": 16320,
          "time": 56.66661,
          "velocity": 0.9133858267716536
        },
        {
          "duration": 0.08333325000000258,
          "durationTicks": 24,
          "midi": 76,
          "name": "E5",
          "ticks": 16392,
          "time": 56.91660975,
          "velocity": 0.9133858267716536
        },
        {
          "duration": 0.08333324999999547,
          "durationTicks": 24,
          "midi": 68,
          "name": "G#4",
          "ticks": 16464,
          "time": 57.1666095,
          "velocity": 0.9133858267716536
        },
        {
          "duration": 0.08333325000000258,
          "durationTicks": 24,
          "midi": 69,
          "name": "A4",
          "ticks": 16512,
          "time": 57.333276,
          "velocity": 0.9133858267716536
        },
        {
          "duration": 0.08333325000000258,
          "durationTicks": 24,
          "midi": 72,
          "name": "C5",
          "ticks": 16560,
          "time": 57.499942499999996,
          "velocity": 0.9133858267716536
        },
        {
          "duration": 0.08333324999999547,
          "durationTicks": 24,
          "midi": 74,
          "name": "D5",
          "ticks": 16608,
          "time": 57.666609,
          "velocity": 0.9133858267716536
        },
        {
          "duration": 0.08333325000000258,
          "durationTicks": 24,
          "midi": 72,
          "name": "C5",
          "ticks": 16656,
          "time": 57.8332755,
          "velocity": 0.9133858267716536
        },
        {
          "duration": 0.08333325000000258,
          "durationTicks": 24,
          "midi": 74,
          "name": "D5",
          "ticks": 16704,
          "time": 57.999942,
          "velocity": 0.9133858267716536
        },
        {
          "duration": 0.08333325000000258,
          "durationTicks": 24,
          "midi": 75,
          "name": "D#5",
          "ticks": 16752,
          "time": 58.166608499999995,
          "velocity": 0.9133858267716536
        },
        {
          "duration": 0.08333325000000258,
          "durationTicks": 24,
          "midi": 76,
          "name": "E5",
          "ticks": 16776,
          "time": 58.24994175,
          "velocity": 0.9133858267716536
        },
        {
          "duration": 0.08333325000000258,
          "durationTicks": 24,
          "midi": 79,
          "name": "G5",
          "ticks": 16896,
          "time": 58.666608,
          "velocity": 0.9133858267716536
        },
        {
          "duration": 0.08333324999999547,
          "durationTicks": 24,
          "midi": 78,
          "name": "F#5",
          "ticks": 16944,
          "time": 58.8332745,
          "velocity": 0.9133858267716536
        },
        {
          "duration": 0.08333324999999547,
          "durationTicks": 24,
          "midi": 77,
          "name": "F5",
          "ticks": 16992,
          "time": 58.999941,
          "velocity": 0.9133858267716536
        },
        {
          "duration": 0.08333325000000258,
          "durationTicks": 24,
          "midi": 75,
          "name": "D#5",
          "ticks": 17040,
          "time": 59.1666075,
          "velocity": 0.9133858267716536
        },
        {
          "duration": 0.08333325000000258,
          "durationTicks": 24,
          "midi": 74,
          "name": "D5",
          "ticks": 17088,
          "time": 59.333273999999996,
          "velocity": 0.9133858267716536
        },
        {
          "duration": 0.08333324999999547,
          "durationTicks": 24,
          "midi": 72,
          "name": "C5",
          "ticks": 17136,
          "time": 59.4999405,
          "velocity": 0.9133858267716536
        },
        {
          "duration": 0.08333325000000258,
          "durationTicks": 24,
          "midi": 71,
          "name": "B4",
          "ticks": 17184,
          "time": 59.666607,
          "velocity": 0.9133858267716536
        },
        {
          "duration": 0.08333325000000258,
          "durationTicks": 24,
          "midi": 70,
          "name": "A#4",
          "ticks": 17232,
          "time": 59.8332735,
          "velocity": 0.9133858267716536
        },
        {
          "duration": 0.08333325000000258,
          "durationTicks": 24,
          "midi": 71,
          "name": "B4",
          "ticks": 17280,
          "time": 59.999939999999995,
          "velocity": 0.9133858267716536
        },
        {
          "duration": 0.08333324999999547,
          "durationTicks": 24,
          "midi": 72,
          "name": "C5",
          "ticks": 17328,
          "time": 60.1666065,
          "velocity": 0.9133858267716536
        },
        {
          "duration": 0.08333325000000258,
          "durationTicks": 24,
          "midi": 74,
          "name": "D5",
          "ticks": 17376,
          "time": 60.333273,
          "velocity": 0.9133858267716536
        },
        {
          "duration": 0.08333325000000258,
          "durationTicks": 24,
          "midi": 75,
          "name": "D#5",
          "ticks": 17424,
          "time": 60.499939499999996,
          "velocity": 0.9133858267716536
        },
        {
          "duration": 0.3333329999999961,
          "durationTicks": 96,
          "midi": 76,
          "name": "E5",
          "ticks": 17472,
          "time": 60.666606,
          "velocity": 0.9133858267716536
        },
        {
          "duration": 0.16666649999999805,
          "durationTicks": 48,
          "midi": 69,
          "name": "A4",
          "ticks": 17664,
          "time": 61.333272,
          "velocity": 0.9133858267716536
        },
        {
          "duration": 0.16666649999999805,
          "durationTicks": 48,
          "midi": 72,
          "name": "C5",
          "ticks": 17760,
          "time": 61.666605,
          "velocity": 0.9133858267716536
        },
        {
          "duration": 0.24999975000000063,
          "durationTicks": 72,
          "midi": 75,
          "name": "D#5",
          "ticks": 17856,
          "time": 61.999938,
          "velocity": 0.9133858267716536
        },
        {
          "duration": 0.08333324999999547,
          "durationTicks": 24,
          "midi": 76,
          "name": "E5",
          "ticks": 17928,
          "time": 62.24993775,
          "velocity": 0.9133858267716536
        },
        {
          "duration": 0.08333324999999547,
          "durationTicks": 24,
          "midi": 68,
          "name": "G#4",
          "ticks": 18000,
          "time": 62.4999375,
          "velocity": 0.9133858267716536
        },
        {
          "duration": 0.08333324999999547,
          "durationTicks": 24,
          "midi": 69,
          "name": "A4",
          "ticks": 18048,
          "time": 62.666604,
          "velocity": 0.9133858267716536
        },
        {
          "duration": 0.08333325000000258,
          "durationTicks": 24,
          "midi": 72,
          "name": "C5",
          "ticks": 18096,
          "time": 62.8332705,
          "velocity": 0.9133858267716536
        },
        {
          "duration": 0.08333325000000258,
          "durationTicks": 24,
          "midi": 74,
          "name": "D5",
          "ticks": 18144,
          "time": 62.999936999999996,
          "velocity": 0.9133858267716536
        },
        {
          "duration": 0.08333324999999547,
          "durationTicks": 24,
          "midi": 72,
          "name": "C5",
          "ticks": 18192,
          "time": 63.1666035,
          "velocity": 0.9133858267716536
        },
        {
          "duration": 0.08333325000000258,
          "durationTicks": 24,
          "midi": 74,
          "name": "D5",
          "ticks": 18240,
          "time": 63.33327,
          "velocity": 0.9133858267716536
        },
        {
          "duration": 0.08333325000000258,
          "durationTicks": 24,
          "midi": 75,
          "name": "D#5",
          "ticks": 18288,
          "time": 63.4999365,
          "velocity": 0.9133858267716536
        },
        {
          "duration": 0.08333324999999547,
          "durationTicks": 24,
          "midi": 76,
          "name": "E5",
          "ticks": 18312,
          "time": 63.58326975,
          "velocity": 0.9133858267716536
        },
        {
          "duration": 0.08333325000000258,
          "durationTicks": 24,
          "midi": 79,
          "name": "G5",
          "ticks": 18432,
          "time": 63.999936,
          "velocity": 0.9133858267716536
        },
        {
          "duration": 0.08333324999999547,
          "durationTicks": 24,
          "midi": 78,
          "name": "F#5",
          "ticks": 18480,
          "time": 64.1666025,
          "velocity": 0.9133858267716536
        },
        {
          "duration": 0.08333324999999547,
          "durationTicks": 24,
          "midi": 77,
          "name": "F5",
          "ticks": 18528,
          "time": 64.333269,
          "velocity": 0.9133858267716536
        },
        {
          "duration": 0.08333325000000968,
          "durationTicks": 24,
          "midi": 75,
          "name": "D#5",
          "ticks": 18576,
          "time": 64.49993549999999,
          "velocity": 0.9133858267716536
        },
        {
          "duration": 0.08333324999999547,
          "durationTicks": 24,
          "midi": 76,
          "name": "E5",
          "ticks": 18624,
          "time": 64.666602,
          "velocity": 0.9133858267716536
        },
        {
          "duration": 0.08333324999999547,
          "durationTicks": 24,
          "midi": 77,
          "name": "F5",
          "ticks": 18672,
          "time": 64.8332685,
          "velocity": 0.9133858267716536
        },
        {
          "duration": 0.08333325000000968,
          "durationTicks": 24,
          "midi": 78,
          "name": "F#5",
          "ticks": 18720,
          "time": 64.999935,
          "velocity": 0.9133858267716536
        },
        {
          "duration": 0.08333324999999547,
          "durationTicks": 24,
          "midi": 78,
          "name": "F#5",
          "ticks": 18768,
          "time": 65.1666015,
          "velocity": 0.9133858267716536
        },
        {
          "duration": 0.08333324999999547,
          "durationTicks": 24,
          "midi": 80,
          "name": "G#5",
          "ticks": 18816,
          "time": 65.333268,
          "velocity": 0.9133858267716536
        },
        {
          "duration": 0.08333325000000968,
          "durationTicks": 24,
          "midi": 80,
          "name": "G#5",
          "ticks": 18864,
          "time": 65.4999345,
          "velocity": 0.9133858267716536
        },
        {
          "duration": 0.08333324999999547,
          "durationTicks": 24,
          "midi": 81,
          "name": "A5",
          "ticks": 18912,
          "time": 65.666601,
          "velocity": 0.9133858267716536
        },
        {
          "duration": 0.08333324999999547,
          "durationTicks": 24,
          "midi": 81,
          "name": "A5",
          "ticks": 18960,
          "time": 65.8332675,
          "velocity": 0.9133858267716536
        },
        {
          "duration": 0.6666660000000064,
          "durationTicks": 192,
          "midi": 83,
          "name": "B5",
          "ticks": 19008,
          "time": 65.999934,
          "velocity": 0.9133858267716536
        },
        {
          "duration": 0.16666649999999095,
          "durationTicks": 48,
          "midi": 69,
          "name": "A4",
          "ticks": 19200,
          "time": 66.6666,
          "velocity": 0.9133858267716536
        },
        {
          "duration": 0.16666650000000516,
          "durationTicks": 48,
          "midi": 72,
          "name": "C5",
          "ticks": 19296,
          "time": 66.999933,
          "velocity": 0.9133858267716536
        },
        {
          "duration": 0.24999975000000063,
          "durationTicks": 72,
          "midi": 75,
          "name": "D#5",
          "ticks": 19392,
          "time": 67.333266,
          "velocity": 0.9133858267716536
        },
        {
          "duration": 0.08333325000000968,
          "durationTicks": 24,
          "midi": 76,
          "name": "E5",
          "ticks": 19464,
          "time": 67.58326575,
          "velocity": 0.9133858267716536
        },
        {
          "duration": 0.08333324999999547,
          "durationTicks": 24,
          "midi": 68,
          "name": "G#4",
          "ticks": 19536,
          "time": 67.8332655,
          "velocity": 0.9133858267716536
        },
        {
          "duration": 0.08333324999999547,
          "durationTicks": 24,
          "midi": 69,
          "name": "A4",
          "ticks": 19584,
          "time": 67.999932,
          "velocity": 0.9133858267716536
        },
        {
          "duration": 0.08333325000000968,
          "durationTicks": 24,
          "midi": 72,
          "name": "C5",
          "ticks": 19632,
          "time": 68.16659849999999,
          "velocity": 0.9133858267716536
        },
        {
          "duration": 0.08333324999999547,
          "durationTicks": 24,
          "midi": 74,
          "name": "D5",
          "ticks": 19680,
          "time": 68.333265,
          "velocity": 0.9133858267716536
        },
        {
          "duration": 0.08333324999999547,
          "durationTicks": 24,
          "midi": 72,
          "name": "C5",
          "ticks": 19728,
          "time": 68.4999315,
          "velocity": 0.9133858267716536
        },
        {
          "duration": 0.08333325000000968,
          "durationTicks": 24,
          "midi": 74,
          "name": "D5",
          "ticks": 19776,
          "time": 68.666598,
          "velocity": 0.9133858267716536
        },
        {
          "duration": 0.08333324999999547,
          "durationTicks": 24,
          "midi": 75,
          "name": "D#5",
          "ticks": 19824,
          "time": 68.8332645,
          "velocity": 0.9133858267716536
        },
        {
          "duration": 0.08333325000000968,
          "durationTicks": 24,
          "midi": 76,
          "name": "E5",
          "ticks": 19848,
          "time": 68.91659775,
          "velocity": 0.9133858267716536
        },
        {
          "duration": 0.08333324999999547,
          "durationTicks": 24,
          "midi": 79,
          "name": "G5",
          "ticks": 19968,
          "time": 69.333264,
          "velocity": 0.9133858267716536
        },
        {
          "duration": 0.08333324999999547,
          "durationTicks": 24,
          "midi": 78,
          "name": "F#5",
          "ticks": 20016,
          "time": 69.4999305,
          "velocity": 0.9133858267716536
        },
        {
          "duration": 0.08333324999999547,
          "durationTicks": 24,
          "midi": 77,
          "name": "F5",
          "ticks": 20064,
          "time": 69.666597,
          "velocity": 0.9133858267716536
        },
        {
          "duration": 0.08333324999999547,
          "durationTicks": 24,
          "midi": 75,
          "name": "D#5",
          "ticks": 20112,
          "time": 69.8332635,
          "velocity": 0.9133858267716536
        },
        {
          "duration": 0.08333325000000968,
          "durationTicks": 24,
          "midi": 74,
          "name": "D5",
          "ticks": 20160,
          "time": 69.99992999999999,
          "velocity": 0.9133858267716536
        },
        {
          "duration": 0.08333324999999547,
          "durationTicks": 24,
          "midi": 72,
          "name": "C5",
          "ticks": 20208,
          "time": 70.1665965,
          "velocity": 0.9133858267716536
        },
        {
          "duration": 0.08333324999999547,
          "durationTicks": 24,
          "midi": 71,
          "name": "B4",
          "ticks": 20256,
          "time": 70.333263,
          "velocity": 0.9133858267716536
        },
        {
          "duration": 0.08333325000000968,
          "durationTicks": 24,
          "midi": 70,
          "name": "A#4",
          "ticks": 20304,
          "time": 70.4999295,
          "velocity": 0.9133858267716536
        },
        {
          "duration": 0.08333324999999547,
          "durationTicks": 24,
          "midi": 71,
          "name": "B4",
          "ticks": 20352,
          "time": 70.666596,
          "velocity": 0.9133858267716536
        },
        {
          "duration": 0.08333324999999547,
          "durationTicks": 24,
          "midi": 72,
          "name": "C5",
          "ticks": 20400,
          "time": 70.8332625,
          "velocity": 0.9133858267716536
        },
        {
          "duration": 0.08333325000000968,
          "durationTicks": 24,
          "midi": 74,
          "name": "D5",
          "ticks": 20448,
          "time": 70.999929,
          "velocity": 0.9133858267716536
        },
        {
          "duration": 0.08333324999999547,
          "durationTicks": 24,
          "midi": 75,
          "name": "D#5",
          "ticks": 20496,
          "time": 71.1665955,
          "velocity": 0.9133858267716536
        },
        {
          "duration": 0.3333329999999961,
          "durationTicks": 96,
          "midi": 76,
          "name": "E5",
          "ticks": 20544,
          "time": 71.333262,
          "velocity": 0.9133858267716536
        },
        {
          "duration": 0.16666650000000516,
          "durationTicks": 48,
          "midi": 69,
          "name": "A4",
          "ticks": 20736,
          "time": 71.999928,
          "velocity": 0.9133858267716536
        },
        {
          "duration": 0.16666650000000516,
          "durationTicks": 48,
          "midi": 72,
          "name": "C5",
          "ticks": 20832,
          "time": 72.333261,
          "velocity": 0.9133858267716536
        },
        {
          "duration": 0.24999975000000063,
          "durationTicks": 72,
          "midi": 75,
          "name": "D#5",
          "ticks": 20928,
          "time": 72.666594,
          "velocity": 0.9133858267716536
        },
        {
          "duration": 0.08333324999999547,
          "durationTicks": 24,
          "midi": 76,
          "name": "E5",
          "ticks": 21000,
          "time": 72.91659375,
          "velocity": 0.9133858267716536
        },
        {
          "duration": 0.08333324999999547,
          "durationTicks": 24,
          "midi": 68,
          "name": "G#4",
          "ticks": 21072,
          "time": 73.1665935,
          "velocity": 0.9133858267716536
        },
        {
          "duration": 0.08333324999999547,
          "durationTicks": 24,
          "midi": 69,
          "name": "A4",
          "ticks": 21120,
          "time": 73.33326,
          "velocity": 0.9133858267716536
        },
        {
          "duration": 0.08333324999999547,
          "durationTicks": 24,
          "midi": 72,
          "name": "C5",
          "ticks": 21168,
          "time": 73.4999265,
          "velocity": 0.9133858267716536
        },
        {
          "duration": 0.08333325000000968,
          "durationTicks": 24,
          "midi": 74,
          "name": "D5",
          "ticks": 21216,
          "time": 73.66659299999999,
          "velocity": 0.9133858267716536
        },
        {
          "duration": 0.08333324999999547,
          "durationTicks": 24,
          "midi": 72,
          "name": "C5",
          "ticks": 21264,
          "time": 73.8332595,
          "velocity": 0.9133858267716536
        },
        {
          "duration": 0.08333324999999547,
          "durationTicks": 24,
          "midi": 74,
          "name": "D5",
          "ticks": 21312,
          "time": 73.999926,
          "velocity": 0.9133858267716536
        },
        {
          "duration": 0.08333325000000968,
          "durationTicks": 24,
          "midi": 75,
          "name": "D#5",
          "ticks": 21360,
          "time": 74.1665925,
          "velocity": 0.9133858267716536
        },
        {
          "duration": 0.08333324999999547,
          "durationTicks": 24,
          "midi": 76,
          "name": "E5",
          "ticks": 21384,
          "time": 74.24992575,
          "velocity": 0.9133858267716536
        },
        {
          "duration": 0.08333325000000968,
          "durationTicks": 24,
          "midi": 79,
          "name": "G5",
          "ticks": 21504,
          "time": 74.666592,
          "velocity": 0.9133858267716536
        },
        {
          "duration": 0.08333324999999547,
          "durationTicks": 24,
          "midi": 78,
          "name": "F#5",
          "ticks": 21552,
          "time": 74.8332585,
          "velocity": 0.9133858267716536
        },
        {
          "duration": 0.08333324999999547,
          "durationTicks": 24,
          "midi": 77,
          "name": "F5",
          "ticks": 21600,
          "time": 74.999925,
          "velocity": 0.9133858267716536
        },
        {
          "duration": 0.08333324999999547,
          "durationTicks": 24,
          "midi": 75,
          "name": "D#5",
          "ticks": 21648,
          "time": 75.1665915,
          "velocity": 0.9133858267716536
        },
        {
          "duration": 0.08333324999999547,
          "durationTicks": 24,
          "midi": 76,
          "name": "E5",
          "ticks": 21696,
          "time": 75.333258,
          "velocity": 0.9133858267716536
        },
        {
          "duration": 0.08333325000000968,
          "durationTicks": 24,
          "midi": 77,
          "name": "F5",
          "ticks": 21744,
          "time": 75.49992449999999,
          "velocity": 0.9133858267716536
        },
        {
          "duration": 0.08333324999999547,
          "durationTicks": 24,
          "midi": 78,
          "name": "F#5",
          "ticks": 21792,
          "time": 75.666591,
          "velocity": 0.9133858267716536
        },
        {
          "duration": 0.08333324999999547,
          "durationTicks": 24,
          "midi": 78,
          "name": "F#5",
          "ticks": 21840,
          "time": 75.8332575,
          "velocity": 0.9133858267716536
        },
        {
          "duration": 0.08333325000000968,
          "durationTicks": 24,
          "midi": 80,
          "name": "G#5",
          "ticks": 21888,
          "time": 75.999924,
          "velocity": 0.9133858267716536
        },
        {
          "duration": 0.08333324999999547,
          "durationTicks": 24,
          "midi": 80,
          "name": "G#5",
          "ticks": 21936,
          "time": 76.1665905,
          "velocity": 0.9133858267716536
        },
        {
          "duration": 0.08333324999999547,
          "durationTicks": 24,
          "midi": 81,
          "name": "A5",
          "ticks": 21984,
          "time": 76.333257,
          "velocity": 0.9133858267716536
        },
        {
          "duration": 0.08333325000000968,
          "durationTicks": 24,
          "midi": 81,
          "name": "A5",
          "ticks": 22032,
          "time": 76.4999235,
          "velocity": 0.9133858267716536
        },
        {
          "duration": 0.3333329999999961,
          "durationTicks": 96,
          "midi": 83,
          "name": "B5",
          "ticks": 22080,
          "time": 76.66659,
          "velocity": 0.9133858267716536
        },
        {
          "duration": 0.08333324999999547,
          "durationTicks": 24,
          "midi": 76,
          "name": "E5",
          "ticks": 28416,
          "time": 98.666568,
          "velocity": 0.9133858267716536
        },
        {
          "duration": 0.08333324999999547,
          "durationTicks": 24,
          "midi": 74,
          "name": "D5",
          "ticks": 28464,
          "time": 98.8332345,
          "velocity": 0.9133858267716536
        },
        {
          "duration": 0.08333325000000968,
          "durationTicks": 24,
          "midi": 76,
          "name": "E5",
          "ticks": 28512,
          "time": 98.999901,
          "velocity": 0.9133858267716536
        },
        {
          "duration": 0.08333324999999547,
          "durationTicks": 24,
          "midi": 77,
          "name": "F5",
          "ticks": 28560,
          "time": 99.1665675,
          "velocity": 0.9133858267716536
        },
        {
          "duration": 0.08333325000000968,
          "durationTicks": 24,
          "midi": 76,
          "name": "E5",
          "ticks": 28608,
          "time": 99.33323399999999,
          "velocity": 0.9133858267716536
        },
        {
          "duration": 0.08333324999999547,
          "durationTicks": 24,
          "midi": 74,
          "name": "D5",
          "ticks": 28656,
          "time": 99.4999005,
          "velocity": 0.9133858267716536
        },
        {
          "duration": 0.08333324999999547,
          "durationTicks": 24,
          "midi": 72,
          "name": "C5",
          "ticks": 28704,
          "time": 99.666567,
          "velocity": 0.9133858267716536
        },
        {
          "duration": 0.08333325000000968,
          "durationTicks": 24,
          "midi": 74,
          "name": "D5",
          "ticks": 28752,
          "time": 99.83323349999999,
          "velocity": 0.9133858267716536
        },
        {
          "duration": 0.08333324999999547,
          "durationTicks": 24,
          "midi": 76,
          "name": "E5",
          "ticks": 28800,
          "time": 99.9999,
          "velocity": 0.9133858267716536
        },
        {
          "duration": 0.08333324999999547,
          "durationTicks": 24,
          "midi": 74,
          "name": "D5",
          "ticks": 28848,
          "time": 100.1665665,
          "velocity": 0.9133858267716536
        },
        {
          "duration": 0.08333325000000968,
          "durationTicks": 24,
          "midi": 76,
          "name": "E5",
          "ticks": 28896,
          "time": 100.33323299999999,
          "velocity": 0.9133858267716536
        },
        {
          "duration": 0.08333324999999547,
          "durationTicks": 24,
          "midi": 77,
          "name": "F5",
          "ticks": 28944,
          "time": 100.4998995,
          "velocity": 0.9133858267716536
        },
        {
          "duration": 0.08333324999999547,
          "durationTicks": 24,
          "midi": 76,
          "name": "E5",
          "ticks": 28992,
          "time": 100.666566,
          "velocity": 0.9133858267716536
        },
        {
          "duration": 0.08333325000000968,
          "durationTicks": 24,
          "midi": 74,
          "name": "D5",
          "ticks": 29040,
          "time": 100.8332325,
          "velocity": 0.9133858267716536
        },
        {
          "duration": 0.08333324999999547,
          "durationTicks": 24,
          "midi": 72,
          "name": "C5",
          "ticks": 29088,
          "time": 100.999899,
          "velocity": 0.9133858267716536
        },
        {
          "duration": 0.08333325000000968,
          "durationTicks": 24,
          "midi": 71,
          "name": "B4",
          "ticks": 29136,
          "time": 101.16656549999999,
          "velocity": 0.9133858267716536
        },
        {
          "duration": 0.3333329999999961,
          "durationTicks": 96,
          "midi": 69,
          "name": "A4",
          "ticks": 29184,
          "time": 101.333232,
          "velocity": 0.9133858267716536
        },
        {
          "duration": 0.08333325000000968,
          "durationTicks": 24,
          "midi": 81,
          "name": "A5",
          "ticks": 29280,
          "time": 101.66656499999999,
          "velocity": 0.9212598425196851
        },
        {
          "duration": 0.08333324999999547,
          "durationTicks": 24,
          "midi": 69,
          "name": "A4",
          "ticks": 29328,
          "time": 101.8332315,
          "velocity": 0.9133858267716536
        },
        {
          "duration": 0.08333324999999547,
          "durationTicks": 24,
          "midi": 80,
          "name": "G#5",
          "ticks": 29376,
          "time": 101.999898,
          "velocity": 0.9133858267716536
        },
        {
          "duration": 0.08333325000000968,
          "durationTicks": 24,
          "midi": 69,
          "name": "A4",
          "ticks": 29424,
          "time": 102.16656449999999,
          "velocity": 0.9133858267716536
        },
        {
          "duration": 0.08333324999999547,
          "durationTicks": 24,
          "midi": 79,
          "name": "G5",
          "ticks": 29472,
          "time": 102.333231,
          "velocity": 0.9133858267716536
        },
        {
          "duration": 0.08333324999999547,
          "durationTicks": 24,
          "midi": 69,
          "name": "A4",
          "ticks": 29520,
          "time": 102.4998975,
          "velocity": 0.9133858267716536
        },
        {
          "duration": 0.08333325000000968,
          "durationTicks": 24,
          "midi": 78,
          "name": "F#5",
          "ticks": 29568,
          "time": 102.666564,
          "velocity": 0.9133858267716536
        },
        {
          "duration": 0.08333324999999547,
          "durationTicks": 24,
          "midi": 69,
          "name": "A4",
          "ticks": 29616,
          "time": 102.8332305,
          "velocity": 0.9133858267716536
        },
        {
          "duration": 0.08333325000000968,
          "durationTicks": 24,
          "midi": 77,
          "name": "F5",
          "ticks": 29664,
          "time": 102.99989699999999,
          "velocity": 0.9133858267716536
        },
        {
          "duration": 0.08333324999999547,
          "durationTicks": 24,
          "midi": 69,
          "name": "A4",
          "ticks": 29712,
          "time": 103.1665635,
          "velocity": 0.9133858267716536
        },
        {
          "duration": 0.08333324999999547,
          "durationTicks": 24,
          "midi": 75,
          "name": "D#5",
          "ticks": 29760,
          "time": 103.33323,
          "velocity": 0.9133858267716536
        },
        {
          "duration": 0.08333325000000968,
          "durationTicks": 24,
          "midi": 69,
          "name": "A4",
          "ticks": 29808,
          "time": 103.49989649999999,
          "velocity": 0.9133858267716536
        },
        {
          "duration": 0.08333324999999547,
          "durationTicks": 24,
          "midi": 76,
          "name": "E5",
          "ticks": 29856,
          "time": 103.666563,
          "velocity": 0.9133858267716536
        },
        {
          "duration": 0.08333324999999547,
          "durationTicks": 24,
          "midi": 69,
          "name": "A4",
          "ticks": 29904,
          "time": 103.8332295,
          "velocity": 0.9133858267716536
        },
        {
          "duration": 0.08333325000000968,
          "durationTicks": 24,
          "midi": 76,
          "name": "E5",
          "ticks": 29952,
          "time": 103.99989599999999,
          "velocity": 0.9133858267716536
        },
        {
          "duration": 0.08333324999999547,
          "durationTicks": 24,
          "midi": 75,
          "name": "D#5",
          "ticks": 30000,
          "time": 104.1665625,
          "velocity": 0.9133858267716536
        },
        {
          "duration": 0.08333324999999547,
          "durationTicks": 24,
          "midi": 76,
          "name": "E5",
          "ticks": 30048,
          "time": 104.333229,
          "velocity": 0.9133858267716536
        },
        {
          "duration": 0.08333325000000968,
          "durationTicks": 24,
          "midi": 77,
          "name": "F5",
          "ticks": 30096,
          "time": 104.4998955,
          "velocity": 0.9133858267716536
        },
        {
          "duration": 0.08333324999999547,
          "durationTicks": 24,
          "midi": 76,
          "name": "E5",
          "ticks": 30144,
          "time": 104.666562,
          "velocity": 0.9133858267716536
        },
        {
          "duration": 0.08333325000000968,
          "durationTicks": 24,
          "midi": 74,
          "name": "D5",
          "ticks": 30192,
          "time": 104.83322849999999,
          "velocity": 0.9133858267716536
        },
        {
          "duration": 0.08333324999999547,
          "durationTicks": 24,
          "midi": 72,
          "name": "C5",
          "ticks": 30240,
          "time": 104.999895,
          "velocity": 0.9133858267716536
        },
        {
          "duration": 0.08333324999999547,
          "durationTicks": 24,
          "midi": 74,
          "name": "D5",
          "ticks": 30288,
          "time": 105.1665615,
          "velocity": 0.9133858267716536
        },
        {
          "duration": 0.08333325000000968,
          "durationTicks": 24,
          "midi": 76,
          "name": "E5",
          "ticks": 30336,
          "time": 105.33322799999999,
          "velocity": 0.9133858267716536
        },
        {
          "duration": 0.08333324999999547,
          "durationTicks": 24,
          "midi": 74,
          "name": "D5",
          "ticks": 30384,
          "time": 105.4998945,
          "velocity": 0.9133858267716536
        },
        {
          "duration": 0.08333324999999547,
          "durationTicks": 24,
          "midi": 76,
          "name": "E5",
          "ticks": 30432,
          "time": 105.666561,
          "velocity": 0.9133858267716536
        },
        {
          "duration": 0.08333325000000968,
          "durationTicks": 24,
          "midi": 77,
          "name": "F5",
          "ticks": 30480,
          "time": 105.83322749999999,
          "velocity": 0.9133858267716536
        },
        {
          "duration": 0.08333324999999547,
          "durationTicks": 24,
          "midi": 76,
          "name": "E5",
          "ticks": 30528,
          "time": 105.999894,
          "velocity": 0.9133858267716536
        },
        {
          "duration": 0.08333324999999547,
          "durationTicks": 24,
          "midi": 74,
          "name": "D5",
          "ticks": 30576,
          "time": 106.1665605,
          "velocity": 0.9133858267716536
        },
        {
          "duration": 0.08333325000000968,
          "durationTicks": 24,
          "midi": 72,
          "name": "C5",
          "ticks": 30624,
          "time": 106.333227,
          "velocity": 0.9133858267716536
        },
        {
          "duration": 0.08333324999999547,
          "durationTicks": 24,
          "midi": 74,
          "name": "D5",
          "ticks": 30672,
          "time": 106.4998935,
          "velocity": 0.9133858267716536
        },
        {
          "duration": 0.16666649999999095,
          "durationTicks": 48,
          "midi": 76,
          "name": "E5",
          "ticks": 30720,
          "time": 106.66656,
          "velocity": 0.9133858267716536
        },
        {
          "duration": 0.08333324999999547,
          "durationTicks": 24,
          "midi": 74,
          "name": "D5",
          "ticks": 30768,
          "time": 106.8332265,
          "velocity": 0.9133858267716536
        },
        {
          "duration": 0.16666649999999095,
          "durationTicks": 48,
          "midi": 81,
          "name": "A5",
          "ticks": 30816,
          "time": 106.999893,
          "velocity": 0.9133858267716536
        },
        {
          "duration": 0.08333325000000968,
          "durationTicks": 24,
          "midi": 76,
          "name": "E5",
          "ticks": 30864,
          "time": 107.16655949999999,
          "velocity": 0.9133858267716536
        },
        {
          "duration": 0.16666650000000516,
          "durationTicks": 48,
          "midi": 83,
          "name": "B5",
          "ticks": 30912,
          "time": 107.333226,
          "velocity": 0.9133858267716536
        },
        {
          "duration": 0.08333324999999547,
          "durationTicks": 24,
          "midi": 76,
          "name": "E5",
          "ticks": 30960,
          "time": 107.4998925,
          "velocity": 0.9133858267716536
        },
        {
          "duration": 0.16666650000000516,
          "durationTicks": 48,
          "midi": 84,
          "name": "C6",
          "ticks": 31008,
          "time": 107.66655899999999,
          "velocity": 0.9133858267716536
        },
        {
          "duration": 0.08333324999999547,
          "durationTicks": 24,
          "midi": 76,
          "name": "E5",
          "ticks": 31056,
          "time": 107.8332255,
          "velocity": 0.9133858267716536
        },
        {
          "duration": 0.16666649999999095,
          "durationTicks": 48,
          "midi": 85,
          "name": "C#6",
          "ticks": 31104,
          "time": 107.999892,
          "velocity": 0.9133858267716536
        },
        {
          "duration": 0.08333325000000968,
          "durationTicks": 24,
          "midi": 76,
          "name": "E5",
          "ticks": 31152,
          "time": 108.1665585,
          "velocity": 0.9133858267716536
        },
        {
          "duration": 0.16666650000000516,
          "durationTicks": 48,
          "midi": 86,
          "name": "D6",
          "ticks": 31200,
          "time": 108.333225,
          "velocity": 0.9133858267716536
        },
        {
          "duration": 0.08333324999999547,
          "durationTicks": 24,
          "midi": 76,
          "name": "E5",
          "ticks": 31248,
          "time": 108.4998915,
          "velocity": 0.9133858267716536
        },
        {
          "duration": 0.16666650000000516,
          "durationTicks": 48,
          "midi": 89,
          "name": "F6",
          "ticks": 31296,
          "time": 108.666558,
          "velocity": 0.9133858267716536
        },
        {
          "duration": 0.08333324999999547,
          "durationTicks": 24,
          "midi": 76,
          "name": "E5",
          "ticks": 31344,
          "time": 108.8332245,
          "velocity": 0.9133858267716536
        },
        {
          "duration": 0.16666650000000516,
          "durationTicks": 48,
          "midi": 87,
          "name": "D#6",
          "ticks": 31392,
          "time": 108.99989099999999,
          "velocity": 0.9133858267716536
        },
        {
          "duration": 0.08333324999999547,
          "durationTicks": 24,
          "midi": 76,
          "name": "E5",
          "ticks": 31488,
          "time": 109.333224,
          "velocity": 0.9133858267716536
        },
        {
          "duration": 0.08333325000000968,
          "durationTicks": 24,
          "midi": 74,
          "name": "D5",
          "ticks": 31536,
          "time": 109.49989049999999,
          "velocity": 0.9133858267716536
        },
        {
          "duration": 0.08333324999999547,
          "durationTicks": 24,
          "midi": 76,
          "name": "E5",
          "ticks": 31584,
          "time": 109.666557,
          "velocity": 0.9133858267716536
        },
        {
          "duration": 0.08333324999999547,
          "durationTicks": 24,
          "midi": 77,
          "name": "F5",
          "ticks": 31632,
          "time": 109.8332235,
          "velocity": 0.9133858267716536
        },
        {
          "duration": 0.08333325000000968,
          "durationTicks": 24,
          "midi": 76,
          "name": "E5",
          "ticks": 31680,
          "time": 109.99989,
          "velocity": 0.9133858267716536
        },
        {
          "duration": 0.08333324999999547,
          "durationTicks": 24,
          "midi": 74,
          "name": "D5",
          "ticks": 31728,
          "time": 110.1665565,
          "velocity": 0.9133858267716536
        },
        {
          "duration": 0.08333324999999547,
          "durationTicks": 24,
          "midi": 72,
          "name": "C5",
          "ticks": 31776,
          "time": 110.333223,
          "velocity": 0.9133858267716536
        },
        {
          "duration": 0.08333324999999547,
          "durationTicks": 24,
          "midi": 74,
          "name": "D5",
          "ticks": 31824,
          "time": 110.4998895,
          "velocity": 0.9133858267716536
        },
        {
          "duration": 0.08333324999999547,
          "durationTicks": 24,
          "midi": 76,
          "name": "E5",
          "ticks": 31872,
          "time": 110.666556,
          "velocity": 0.9133858267716536
        },
        {
          "duration": 0.08333325000000968,
          "durationTicks": 24,
          "midi": 74,
          "name": "D5",
          "ticks": 31920,
          "time": 110.83322249999999,
          "velocity": 0.9133858267716536
        },
        {
          "duration": 0.08333324999999547,
          "durationTicks": 24,
          "midi": 76,
          "name": "E5",
          "ticks": 31968,
          "time": 110.999889,
          "velocity": 0.9133858267716536
        },
        {
          "duration": 0.08333324999999547,
          "durationTicks": 24,
          "midi": 77,
          "name": "F5",
          "ticks": 32016,
          "time": 111.1665555,
          "velocity": 0.9133858267716536
        },
        {
          "duration": 0.08333325000000968,
          "durationTicks": 24,
          "midi": 76,
          "name": "E5",
          "ticks": 32064,
          "time": 111.33322199999999,
          "velocity": 0.9133858267716536
        },
        {
          "duration": 0.08333324999999547,
          "durationTicks": 24,
          "midi": 74,
          "name": "D5",
          "ticks": 32112,
          "time": 111.4998885,
          "velocity": 0.9133858267716536
        },
        {
          "duration": 0.08333324999999547,
          "durationTicks": 24,
          "midi": 72,
          "name": "C5",
          "ticks": 32160,
          "time": 111.666555,
          "velocity": 0.9133858267716536
        },
        {
          "duration": 0.08333325000000968,
          "durationTicks": 24,
          "midi": 71,
          "name": "B4",
          "ticks": 32208,
          "time": 111.8332215,
          "velocity": 0.9133858267716536
        },
        {
          "duration": 0.3333329999999961,
          "durationTicks": 96,
          "midi": 69,
          "name": "A4",
          "ticks": 32256,
          "time": 111.999888,
          "velocity": 0.9133858267716536
        },
        {
          "duration": 0.08333324999999547,
          "durationTicks": 24,
          "midi": 81,
          "name": "A5",
          "ticks": 32352,
          "time": 112.333221,
          "velocity": 0.9133858267716536
        },
        {
          "duration": 0.08333324999999547,
          "durationTicks": 24,
          "midi": 69,
          "name": "A4",
          "ticks": 32400,
          "time": 112.4998875,
          "velocity": 0.9133858267716536
        },
        {
          "duration": 0.08333325000000968,
          "durationTicks": 24,
          "midi": 80,
          "name": "G#5",
          "ticks": 32448,
          "time": 112.66655399999999,
          "velocity": 0.9133858267716536
        },
        {
          "duration": 0.08333324999999547,
          "durationTicks": 24,
          "midi": 69,
          "name": "A4",
          "ticks": 32496,
          "time": 112.8332205,
          "velocity": 0.9133858267716536
        },
        {
          "duration": 0.08333324999999547,
          "durationTicks": 24,
          "midi": 79,
          "name": "G5",
          "ticks": 32544,
          "time": 112.999887,
          "velocity": 0.9133858267716536
        },
        {
          "duration": 0.08333325000000968,
          "durationTicks": 24,
          "midi": 69,
          "name": "A4",
          "ticks": 32592,
          "time": 113.16655349999999,
          "velocity": 0.9133858267716536
        },
        {
          "duration": 0.08333324999999547,
          "durationTicks": 24,
          "midi": 78,
          "name": "F#5",
          "ticks": 32640,
          "time": 113.33322,
          "velocity": 0.9133858267716536
        },
        {
          "duration": 0.08333324999999547,
          "durationTicks": 24,
          "midi": 69,
          "name": "A4",
          "ticks": 32688,
          "time": 113.4998865,
          "velocity": 0.9133858267716536
        },
        {
          "duration": 0.08333325000000968,
          "durationTicks": 24,
          "midi": 77,
          "name": "F5",
          "ticks": 32736,
          "time": 113.666553,
          "velocity": 0.9133858267716536
        },
        {
          "duration": 0.08333324999999547,
          "durationTicks": 24,
          "midi": 69,
          "name": "A4",
          "ticks": 32784,
          "time": 113.8332195,
          "velocity": 0.9133858267716536
        },
        {
          "duration": 0.08333324999999547,
          "durationTicks": 24,
          "midi": 75,
          "name": "D#5",
          "ticks": 32832,
          "time": 113.999886,
          "velocity": 0.9133858267716536
        },
        {
          "duration": 0.08333324999999547,
          "durationTicks": 24,
          "midi": 69,
          "name": "A4",
          "ticks": 32880,
          "time": 114.1665525,
          "velocity": 0.9133858267716536
        },
        {
          "duration": 0.08333324999999547,
          "durationTicks": 24,
          "midi": 76,
          "name": "E5",
          "ticks": 32928,
          "time": 114.333219,
          "velocity": 0.9133858267716536
        },
        {
          "duration": 0.08333325000000968,
          "durationTicks": 24,
          "midi": 69,
          "name": "A4",
          "ticks": 32976,
          "time": 114.49988549999999,
          "velocity": 0.9133858267716536
        },
        {
          "duration": 0.08333324999999547,
          "durationTicks": 24,
          "midi": 76,
          "name": "E5",
          "ticks": 33024,
          "time": 114.666552,
          "velocity": 0.9133858267716536
        },
        {
          "duration": 0.08333324999999547,
          "durationTicks": 24,
          "midi": 75,
          "name": "D#5",
          "ticks": 33072,
          "time": 114.8332185,
          "velocity": 0.9133858267716536
        },
        {
          "duration": 0.08333325000000968,
          "durationTicks": 24,
          "midi": 76,
          "name": "E5",
          "ticks": 33120,
          "time": 114.99988499999999,
          "velocity": 0.9133858267716536
        },
        {
          "duration": 0.08333324999999547,
          "durationTicks": 24,
          "midi": 77,
          "name": "F5",
          "ticks": 33168,
          "time": 115.1665515,
          "velocity": 0.9133858267716536
        },
        {
          "duration": 0.08333324999999547,
          "durationTicks": 24,
          "midi": 76,
          "name": "E5",
          "ticks": 33216,
          "time": 115.333218,
          "velocity": 0.9133858267716536
        },
        {
          "duration": 0.08333325000000968,
          "durationTicks": 24,
          "midi": 74,
          "name": "D5",
          "ticks": 33264,
          "time": 115.4998845,
          "velocity": 0.9133858267716536
        },
        {
          "duration": 0.08333324999999547,
          "durationTicks": 24,
          "midi": 72,
          "name": "C5",
          "ticks": 33312,
          "time": 115.666551,
          "velocity": 0.9133858267716536
        },
        {
          "duration": 0.08333324999999547,
          "durationTicks": 24,
          "midi": 74,
          "name": "D5",
          "ticks": 33360,
          "time": 115.8332175,
          "velocity": 0.9133858267716536
        },
        {
          "duration": 0.08333324999999547,
          "durationTicks": 24,
          "midi": 76,
          "name": "E5",
          "ticks": 33408,
          "time": 115.999884,
          "velocity": 0.9133858267716536
        },
        {
          "duration": 0.08333324999999547,
          "durationTicks": 24,
          "midi": 74,
          "name": "D5",
          "ticks": 33456,
          "time": 116.1665505,
          "velocity": 0.9133858267716536
        },
        {
          "duration": 0.08333325000000968,
          "durationTicks": 24,
          "midi": 76,
          "name": "E5",
          "ticks": 33504,
          "time": 116.33321699999999,
          "velocity": 0.9133858267716536
        },
        {
          "duration": 0.08333324999999547,
          "durationTicks": 24,
          "midi": 77,
          "name": "F5",
          "ticks": 33552,
          "time": 116.4998835,
          "velocity": 0.9133858267716536
        },
        {
          "duration": 0.08333324999999547,
          "durationTicks": 24,
          "midi": 76,
          "name": "E5",
          "ticks": 33600,
          "time": 116.66655,
          "velocity": 0.9133858267716536
        },
        {
          "duration": 0.08333325000000968,
          "durationTicks": 24,
          "midi": 74,
          "name": "D5",
          "ticks": 33648,
          "time": 116.83321649999999,
          "velocity": 0.9133858267716536
        },
        {
          "duration": 0.08333324999999547,
          "durationTicks": 24,
          "midi": 72,
          "name": "C5",
          "ticks": 33696,
          "time": 116.999883,
          "velocity": 0.9133858267716536
        },
        {
          "duration": 0.08333324999999547,
          "durationTicks": 24,
          "midi": 71,
          "name": "B4",
          "ticks": 33744,
          "time": 117.1665495,
          "velocity": 0.9133858267716536
        },
        {
          "duration": 0.24999975000000063,
          "durationTicks": 72,
          "midi": 69,
          "name": "A4",
          "ticks": 33792,
          "time": 117.333216,
          "velocity": 0.9133858267716536
        },
        {
          "duration": 0.08333324999999547,
          "durationTicks": 24,
          "midi": 76,
          "name": "E5",
          "ticks": 33888,
          "time": 117.666549,
          "velocity": 0.9133858267716536
        },
        {
          "duration": 0.08333324999999547,
          "durationTicks": 24,
          "midi": 72,
          "name": "C5",
          "ticks": 33936,
          "time": 117.8332155,
          "velocity": 0.9133858267716536
        },
        {
          "duration": 0.08333324999999547,
          "durationTicks": 24,
          "midi": 76,
          "name": "E5",
          "ticks": 33984,
          "time": 117.999882,
          "velocity": 0.9133858267716536
        },
        {
          "duration": 0.08333325000000968,
          "durationTicks": 24,
          "midi": 72,
          "name": "C5",
          "ticks": 34032,
          "time": 118.16654849999999,
          "velocity": 0.9133858267716536
        },
        {
          "duration": 0.08333324999999547,
          "durationTicks": 24,
          "midi": 69,
          "name": "A4",
          "ticks": 34080,
          "time": 118.333215,
          "velocity": 0.9133858267716536
        },
        {
          "duration": 0.08333324999999547,
          "durationTicks": 24,
          "midi": 72,
          "name": "C5",
          "ticks": 34128,
          "time": 118.4998815,
          "velocity": 0.9133858267716536
        },
        {
          "duration": 0.08333325000000968,
          "durationTicks": 24,
          "midi": 76,
          "name": "E5",
          "ticks": 34176,
          "time": 118.66654799999999,
          "velocity": 0.9133858267716536
        },
        {
          "duration": 0.08333324999999547,
          "durationTicks": 24,
          "midi": 72,
          "name": "C5",
          "ticks": 34224,
          "time": 118.8332145,
          "velocity": 0.9133858267716536
        },
        {
          "duration": 0.08333324999999547,
          "durationTicks": 24,
          "midi": 76,
          "name": "E5",
          "ticks": 34272,
          "time": 118.999881,
          "velocity": 0.9133858267716536
        },
        {
          "duration": 0.08333325000000968,
          "durationTicks": 24,
          "midi": 72,
          "name": "C5",
          "ticks": 34320,
          "time": 119.1665475,
          "velocity": 0.9133858267716536
        },
        {
          "duration": 0.08333324999999547,
          "durationTicks": 24,
          "midi": 76,
          "name": "E5",
          "ticks": 34656,
          "time": 120.333213,
          "velocity": 0.9133858267716536
        },
        {
          "duration": 0.08333325000000968,
          "durationTicks": 24,
          "midi": 72,
          "name": "C5",
          "ticks": 34704,
          "time": 120.49987949999999,
          "velocity": 0.9133858267716536
        },
        {
          "duration": 0.08333324999999547,
          "durationTicks": 24,
          "midi": 76,
          "name": "E5",
          "ticks": 34752,
          "time": 120.666546,
          "velocity": 0.9133858267716536
        },
        {
          "duration": 0.08333324999999547,
          "durationTicks": 24,
          "midi": 72,
          "name": "C5",
          "ticks": 34800,
          "time": 120.8332125,
          "velocity": 0.9133858267716536
        },
        {
          "duration": 0.08333325000000968,
          "durationTicks": 24,
          "midi": 69,
          "name": "A4",
          "ticks": 34848,
          "time": 120.99987899999999,
          "velocity": 0.9133858267716536
        },
        {
          "duration": 0.08333324999999547,
          "durationTicks": 24,
          "midi": 72,
          "name": "C5",
          "ticks": 34896,
          "time": 121.1665455,
          "velocity": 0.9133858267716536
        },
        {
          "duration": 0.08333324999999547,
          "durationTicks": 24,
          "midi": 76,
          "name": "E5",
          "ticks": 34944,
          "time": 121.333212,
          "velocity": 0.9133858267716536
        },
        {
          "duration": 0.08333324999999547,
          "durationTicks": 24,
          "midi": 72,
          "name": "C5",
          "ticks": 34992,
          "time": 121.4998785,
          "velocity": 0.9133858267716536
        },
        {
          "duration": 0.08333324999999547,
          "durationTicks": 24,
          "midi": 76,
          "name": "E5",
          "ticks": 35040,
          "time": 121.666545,
          "velocity": 0.9133858267716536
        },
        {
          "duration": 0.08333325000000968,
          "durationTicks": 24,
          "midi": 72,
          "name": "C5",
          "ticks": 35088,
          "time": 121.83321149999999,
          "velocity": 0.9133858267716536
        }
      ]
    },
    {
      "channel": 0,
      "controlChanges": {
        "6": [
          {
            "number": 6,
            "ticks": 0,
            "time": 0,
            "value": 0.09448818897637795
          }
        ],
        "7": [
          {
            "number": 7,
            "ticks": 0,
            "time": 0,
            "value": 0.7874015748031497
          },
          {
            "number": 7,
            "ticks": 0,
            "time": 0,
            "value": 0.7874015748031497
          }
        ],
        "10": [
          {
            "number": 10,
            "ticks": 0,
            "time": 0,
            "value": 0.5039370078740157
          },
          {
            "number": 10,
            "ticks": 0,
            "time": 0,
            "value": 0.5039370078740157
          }
        ],
        "100": [
          {
            "number": 100,
            "ticks": 0,
            "time": 0,
            "value": 0
          }
        ],
        "101": [
          {
            "number": 101,
            "ticks": 0,
            "time": 0,
            "value": 0
          }
        ]
      },
      "pitchBends": [
        {
          "ticks": 0,
          "time": 0,
          "value": 0
        },
        {
          "ticks": 0,
          "time": 0,
          "value": 0
        }
      ],
      "instrument": {
        "family": "piano",
        "number": 0,
        "name": "acoustic grand piano"
      },
      "name": "Synth Solo",
      "notes": [],
      "endOfTrackTicks": 37249
    },
    {
      "channel": 7,
      "controlChanges": {
        "6": [
          {
            "number": 6,
            "ticks": 0,
            "time": 0,
            "value": 0.09448818897637795
          },
          {
            "number": 6,
            "ticks": 0,
            "time": 0,
            "value": 0.09448818897637795
          },
          {
            "number": 6,
            "ticks": 37248,
            "time": 129.333204,
            "value": 0.09448818897637795
          },
          {
            "number": 6,
            "ticks": 37249,
            "time": 129.33667621875,
            "value": 0.09448818897637795
          }
        ],
        "7": [
          {
            "number": 7,
            "ticks": 0,
            "time": 0,
            "value": 0.7874015748031497
          },
          {
            "number": 7,
            "ticks": 0,
            "time": 0,
            "value": 0.7874015748031497
          },
          {
            "number": 7,
            "ticks": 37248,
            "time": 129.333204,
            "value": 0.7874015748031497
          },
          {
            "number": 7,
            "ticks": 37249,
            "time": 129.33667621875,
            "value": 0.7874015748031497
          }
        ],
        "10": [
          {
            "number": 10,
            "ticks": 0,
            "time": 0,
            "value": 0.5039370078740157
          },
          {
            "number": 10,
            "ticks": 0,
            "time": 0,
            "value": 0.5039370078740157
          },
          {
            "number": 10,
            "ticks": 37248,
            "time": 129.333204,
            "value": 0.5039370078740157
          },
          {
            "number": 10,
            "ticks": 37249,
            "time": 129.33667621875,
            "value": 0.5039370078740157
          }
        ],
        "100": [
          {
            "number": 100,
            "ticks": 0,
            "time": 0,
            "value": 0
          },
          {
            "number": 100,
            "ticks": 0,
            "time": 0,
            "value": 0
          },
          {
            "number": 100,
            "ticks": 37248,
            "time": 129.333204,
            "value": 0
          },
          {
            "number": 100,
            "ticks": 37249,
            "time": 129.33667621875,
            "value": 0
          }
        ],
        "101": [
          {
            "number": 101,
            "ticks": 0,
            "time": 0,
            "value": 0
          },
          {
            "number": 101,
            "ticks": 0,
            "time": 0,
            "value": 0
          },
          {
            "number": 101,
            "ticks": 37248,
            "time": 129.333204,
            "value": 0
          },
          {
            "number": 101,
            "ticks": 37249,
            "time": 129.33667621875,
            "value": 0
          }
        ]
      },
      "pitchBends": [
        {
          "ticks": 0,
          "time": 0,
          "value": 0
        },
        {
          "ticks": 0,
          "time": 0,
          "value": 0
        },
        {
          "ticks": 37248,
          "time": 129.333204,
          "value": 0
        },
        {
          "ticks": 37249,
          "time": 129.33667621875,
          "value": 0
        }
      ],
      "instrument": {
        "family": "guitar",
        "number": 26,
        "name": "electric guitar (jazz)"
      },
      "name": "",
      "notes": [
        {
          "duration": 0.08333325000000968,
          "durationTicks": 24,
          "midi": 81,
          "name": "A5",
          "ticks": 22272,
          "time": 77.33325599999999,
          "velocity": 1
        },
        {
          "duration": 0.08333324999999547,
          "durationTicks": 24,
          "midi": 80,
          "name": "G#5",
          "ticks": 22296,
          "time": 77.41658925,
          "velocity": 1
        },
        {
          "duration": 0.08333324999999547,
          "durationTicks": 24,
          "midi": 81,
          "name": "A5",
          "ticks": 22320,
          "time": 77.4999225,
          "velocity": 1
        },
        {
          "duration": 0.08333325000000968,
          "durationTicks": 24,
          "midi": 84,
          "name": "C6",
          "ticks": 22344,
          "time": 77.58325574999999,
          "velocity": 1
        },
        {
          "duration": 0.08333324999999547,
          "durationTicks": 24,
          "midi": 81,
          "name": "A5",
          "ticks": 22368,
          "time": 77.666589,
          "velocity": 1
        },
        {
          "duration": 0.08333324999999547,
          "durationTicks": 24,
          "midi": 80,
          "name": "G#5",
          "ticks": 22392,
          "time": 77.74992225,
          "velocity": 1
        },
        {
          "duration": 0.08333325000000968,
          "durationTicks": 24,
          "midi": 81,
          "name": "A5",
          "ticks": 22416,
          "time": 77.83325549999999,
          "velocity": 1
        },
        {
          "duration": 0.08333324999999547,
          "durationTicks": 24,
          "midi": 84,
          "name": "C6",
          "ticks": 22440,
          "time": 77.91658875,
          "velocity": 1
        },
        {
          "duration": 0.08333324999999547,
          "durationTicks": 24,
          "midi": 81,
          "name": "A5",
          "ticks": 22464,
          "time": 77.999922,
          "velocity": 1
        },
        {
          "duration": 0.08333325000000968,
          "durationTicks": 24,
          "midi": 80,
          "name": "G#5",
          "ticks": 22488,
          "time": 78.08325525,
          "velocity": 1
        },
        {
          "duration": 0.08333324999999547,
          "durationTicks": 24,
          "midi": 81,
          "name": "A5",
          "ticks": 22512,
          "time": 78.1665885,
          "velocity": 1
        },
        {
          "duration": 0.08333324999999547,
          "durationTicks": 24,
          "midi": 84,
          "name": "C6",
          "ticks": 22536,
          "time": 78.24992175,
          "velocity": 1
        },
        {
          "duration": 0.08333325000000968,
          "durationTicks": 24,
          "midi": 81,
          "name": "A5",
          "ticks": 22560,
          "time": 78.333255,
          "velocity": 1
        },
        {
          "duration": 0.08333324999999547,
          "durationTicks": 24,
          "midi": 80,
          "name": "G#5",
          "ticks": 22584,
          "time": 78.41658825,
          "velocity": 1
        },
        {
          "duration": 0.08333324999999547,
          "durationTicks": 24,
          "midi": 81,
          "name": "A5",
          "ticks": 22608,
          "time": 78.4999215,
          "velocity": 1
        },
        {
          "duration": 0.08333325000000968,
          "durationTicks": 24,
          "midi": 84,
          "name": "C6",
          "ticks": 22632,
          "time": 78.58325475,
          "velocity": 1
        },
        {
          "duration": 0.08333324999999547,
          "durationTicks": 24,
          "midi": 81,
          "name": "A5",
          "ticks": 22656,
          "time": 78.666588,
          "velocity": 1
        },
        {
          "duration": 0.08333324999999547,
          "durationTicks": 24,
          "midi": 80,
          "name": "G#5",
          "ticks": 22680,
          "time": 78.74992125,
          "velocity": 1
        },
        {
          "duration": 0.08333324999999547,
          "durationTicks": 24,
          "midi": 81,
          "name": "A5",
          "ticks": 22704,
          "time": 78.8332545,
          "velocity": 1
        },
        {
          "duration": 0.08333325000000968,
          "durationTicks": 24,
          "midi": 84,
          "name": "C6",
          "ticks": 22728,
          "time": 78.91658774999999,
          "velocity": 1
        },
        {
          "duration": 0.08333324999999547,
          "durationTicks": 24,
          "midi": 81,
          "name": "A5",
          "ticks": 22752,
          "time": 78.999921,
          "velocity": 1
        },
        {
          "duration": 0.08333324999999547,
          "durationTicks": 24,
          "midi": 80,
          "name": "G#5",
          "ticks": 22776,
          "time": 79.08325425,
          "velocity": 1
        },
        {
          "duration": 0.08333325000000968,
          "durationTicks": 24,
          "midi": 81,
          "name": "A5",
          "ticks": 22800,
          "time": 79.16658749999999,
          "velocity": 1
        },
        {
          "duration": 0.08333324999999547,
          "durationTicks": 24,
          "midi": 79,
          "name": "G5",
          "ticks": 22824,
          "time": 79.24992075,
          "velocity": 1
        },
        {
          "duration": 0.08333324999999547,
          "durationTicks": 24,
          "midi": 76,
          "name": "E5",
          "ticks": 22848,
          "time": 79.333254,
          "velocity": 1
        },
        {
          "duration": 0.08333325000000968,
          "durationTicks": 24,
          "midi": 75,
          "name": "D#5",
          "ticks": 22872,
          "time": 79.41658724999999,
          "velocity": 1
        },
        {
          "duration": 0.08333324999999547,
          "durationTicks": 24,
          "midi": 72,
          "name": "C5",
          "ticks": 22896,
          "time": 79.4999205,
          "velocity": 1
        },
        {
          "duration": 0.08333324999999547,
          "durationTicks": 24,
          "midi": 69,
          "name": "A4",
          "ticks": 22920,
          "time": 79.58325375,
          "velocity": 1
        },
        {
          "duration": 0.08333325000000968,
          "durationTicks": 24,
          "midi": 64,
          "name": "E4",
          "ticks": 22944,
          "time": 79.66658699999999,
          "velocity": 1
        },
        {
          "duration": 0.08333324999999547,
          "durationTicks": 24,
          "midi": 62,
          "name": "D4",
          "ticks": 22968,
          "time": 79.74992025,
          "velocity": 1
        },
        {
          "duration": 0.08333324999999547,
          "durationTicks": 24,
          "midi": 60,
          "name": "C4",
          "ticks": 22992,
          "time": 79.8332535,
          "velocity": 1
        },
        {
          "duration": 0.08333325000000968,
          "durationTicks": 24,
          "midi": 59,
          "name": "B3",
          "ticks": 23016,
          "time": 79.91658675,
          "velocity": 1
        },
        {
          "duration": 0.08333324999999547,
          "durationTicks": 24,
          "midi": 62,
          "name": "D4",
          "ticks": 23040,
          "time": 79.99992,
          "velocity": 1
        },
        {
          "duration": 0.08333324999999547,
          "durationTicks": 24,
          "midi": 64,
          "name": "E4",
          "ticks": 23064,
          "time": 80.08325325,
          "velocity": 1
        },
        {
          "duration": 0.08333325000000968,
          "durationTicks": 24,
          "midi": 69,
          "name": "A4",
          "ticks": 23088,
          "time": 80.1665865,
          "velocity": 1
        },
        {
          "duration": 0.08333324999999547,
          "durationTicks": 24,
          "midi": 67,
          "name": "G4",
          "ticks": 23112,
          "time": 80.24991975,
          "velocity": 1
        },
        {
          "duration": 0.08333324999999547,
          "durationTicks": 24,
          "midi": 69,
          "name": "A4",
          "ticks": 23136,
          "time": 80.333253,
          "velocity": 1
        },
        {
          "duration": 0.08333325000000968,
          "durationTicks": 24,
          "midi": 67,
          "name": "G4",
          "ticks": 23160,
          "time": 80.41658625,
          "velocity": 1
        },
        {
          "duration": 0.08333324999999547,
          "durationTicks": 24,
          "midi": 69,
          "name": "A4",
          "ticks": 23184,
          "time": 80.4999195,
          "velocity": 1
        },
        {
          "duration": 0.08333324999999547,
          "durationTicks": 24,
          "midi": 72,
          "name": "C5",
          "ticks": 23208,
          "time": 80.58325275,
          "velocity": 1
        },
        {
          "duration": 0.08333324999999547,
          "durationTicks": 24,
          "midi": 74,
          "name": "D5",
          "ticks": 23232,
          "time": 80.666586,
          "velocity": 1
        },
        {
          "duration": 0.08333325000000968,
          "durationTicks": 24,
          "midi": 76,
          "name": "E5",
          "ticks": 23256,
          "time": 80.74991924999999,
          "velocity": 1
        },
        {
          "duration": 0.08333324999999547,
          "durationTicks": 24,
          "midi": 78,
          "name": "F#5",
          "ticks": 23280,
          "time": 80.8332525,
          "velocity": 1
        },
        {
          "duration": 0.08333324999999547,
          "durationTicks": 24,
          "midi": 79,
          "name": "G5",
          "ticks": 23304,
          "time": 80.91658575,
          "velocity": 1
        },
        {
          "duration": 0.08333325000000968,
          "durationTicks": 24,
          "midi": 81,
          "name": "A5",
          "ticks": 23328,
          "time": 80.99991899999999,
          "velocity": 1
        },
        {
          "duration": 0.08333324999999547,
          "durationTicks": 24,
          "midi": 82,
          "name": "A#5",
          "ticks": 23352,
          "time": 81.08325225,
          "velocity": 1
        },
        {
          "duration": 0.08333324999999547,
          "durationTicks": 24,
          "midi": 84,
          "name": "C6",
          "ticks": 23376,
          "time": 81.1665855,
          "velocity": 1
        },
        {
          "duration": 0.08333325000000968,
          "durationTicks": 24,
          "midi": 86,
          "name": "D6",
          "ticks": 23400,
          "time": 81.24991874999999,
          "velocity": 1
        },
        {
          "duration": 0.16666649999999095,
          "durationTicks": 48,
          "midi": 75,
          "name": "D#5",
          "ticks": 23424,
          "time": 81.333252,
          "velocity": 1
        },
        {
          "duration": 0.16666650000000516,
          "durationTicks": 48,
          "midi": 76,
          "name": "E5",
          "ticks": 23472,
          "time": 81.49991849999999,
          "velocity": 1
        },
        {
          "duration": 0.16666650000000516,
          "durationTicks": 48,
          "midi": 76,
          "name": "E5",
          "ticks": 23520,
          "time": 81.666585,
          "velocity": 1
        },
        {
          "duration": 0.16666649999999095,
          "durationTicks": 48,
          "midi": 76,
          "name": "E5",
          "ticks": 23568,
          "time": 81.8332515,
          "velocity": 1
        },
        {
          "duration": 0.16666650000000516,
          "durationTicks": 48,
          "midi": 76,
          "name": "E5",
          "ticks": 23616,
          "time": 81.999918,
          "velocity": 1
        },
        {
          "duration": 0.08333324999999547,
          "durationTicks": 24,
          "midi": 93,
          "name": "A6",
          "ticks": 23760,
          "time": 82.4999175,
          "velocity": 1
        },
        {
          "duration": 0.08333325000000968,
          "durationTicks": 24,
          "midi": 91,
          "name": "G6",
          "ticks": 23784,
          "time": 82.58325074999999,
          "velocity": 1
        },
        {
          "duration": 0.08333324999999547,
          "durationTicks": 24,
          "midi": 88,
          "name": "E6",
          "ticks": 23808,
          "time": 82.666584,
          "velocity": 1
        },
        {
          "duration": 0.08333324999999547,
          "durationTicks": 24,
          "midi": 86,
          "name": "D6",
          "ticks": 23832,
          "time": 82.74991725,
          "velocity": 1
        },
        {
          "duration": 0.08333325000000968,
          "durationTicks": 24,
          "midi": 84,
          "name": "C6",
          "ticks": 23856,
          "time": 82.83325049999999,
          "velocity": 1
        },
        {
          "duration": 0.08333324999999547,
          "durationTicks": 24,
          "midi": 87,
          "name": "D#6",
          "ticks": 23880,
          "time": 82.91658375,
          "velocity": 1
        },
        {
          "duration": 0.08333324999999547,
          "durationTicks": 24,
          "midi": 86,
          "name": "D6",
          "ticks": 23904,
          "time": 82.999917,
          "velocity": 1
        },
        {
          "duration": 0.08333325000000968,
          "durationTicks": 24,
          "midi": 84,
          "name": "C6",
          "ticks": 23928,
          "time": 83.08325024999999,
          "velocity": 1
        },
        {
          "duration": 0.08333324999999547,
          "durationTicks": 24,
          "midi": 87,
          "name": "D#6",
          "ticks": 23952,
          "time": 83.1665835,
          "velocity": 1
        },
        {
          "duration": 0.08333324999999547,
          "durationTicks": 24,
          "midi": 86,
          "name": "D6",
          "ticks": 23976,
          "time": 83.24991675,
          "velocity": 1
        },
        {
          "duration": 0.08333325000000968,
          "durationTicks": 24,
          "midi": 84,
          "name": "C6",
          "ticks": 24000,
          "time": 83.33324999999999,
          "velocity": 1
        },
        {
          "duration": 0.08333324999999547,
          "durationTicks": 24,
          "midi": 87,
          "name": "D#6",
          "ticks": 24024,
          "time": 83.41658325,
          "velocity": 1
        },
        {
          "duration": 0.08333324999999547,
          "durationTicks": 24,
          "midi": 86,
          "name": "D6",
          "ticks": 24048,
          "time": 83.4999165,
          "velocity": 1
        },
        {
          "duration": 0.08333325000000968,
          "durationTicks": 24,
          "midi": 84,
          "name": "C6",
          "ticks": 24072,
          "time": 83.58324975,
          "velocity": 1
        },
        {
          "duration": 0.08333324999999547,
          "durationTicks": 24,
          "midi": 87,
          "name": "D#6",
          "ticks": 24096,
          "time": 83.666583,
          "velocity": 1
        },
        {
          "duration": 0.08333324999999547,
          "durationTicks": 24,
          "midi": 86,
          "name": "D6",
          "ticks": 24120,
          "time": 83.74991625,
          "velocity": 1
        },
        {
          "duration": 0.08333325000000968,
          "durationTicks": 24,
          "midi": 84,
          "name": "C6",
          "ticks": 24144,
          "time": 83.8332495,
          "velocity": 1
        },
        {
          "duration": 0.08333324999999547,
          "durationTicks": 24,
          "midi": 86,
          "name": "D6",
          "ticks": 24168,
          "time": 83.91658275,
          "velocity": 1
        },
        {
          "duration": 0.08333324999999547,
          "durationTicks": 24,
          "midi": 81,
          "name": "A5",
          "ticks": 24192,
          "time": 83.999916,
          "velocity": 1
        },
        {
          "duration": 0.08333325000000968,
          "durationTicks": 24,
          "midi": 80,
          "name": "G#5",
          "ticks": 24216,
          "time": 84.08324925,
          "velocity": 1
        },
        {
          "duration": 0.08333324999999547,
          "durationTicks": 24,
          "midi": 76,
          "name": "E5",
          "ticks": 24240,
          "time": 84.1665825,
          "velocity": 1
        },
        {
          "duration": 0.08333324999999547,
          "durationTicks": 24,
          "midi": 74,
          "name": "D5",
          "ticks": 24264,
          "time": 84.24991575,
          "velocity": 1
        },
        {
          "duration": 0.16666650000000516,
          "durationTicks": 48,
          "midi": 76,
          "name": "E5",
          "ticks": 24288,
          "time": 84.333249,
          "velocity": 1
        },
        {
          "duration": 0.08333324999999547,
          "durationTicks": 24,
          "midi": 72,
          "name": "C5",
          "ticks": 24336,
          "time": 84.4999155,
          "velocity": 1
        },
        {
          "duration": 0.08333324999999547,
          "durationTicks": 24,
          "midi": 69,
          "name": "A4",
          "ticks": 24360,
          "time": 84.58324875,
          "velocity": 1
        },
        {
          "duration": 0.08333325000000968,
          "durationTicks": 24,
          "midi": 67,
          "name": "G4",
          "ticks": 24384,
          "time": 84.66658199999999,
          "velocity": 1
        },
        {
          "duration": 0.08333324999999547,
          "durationTicks": 24,
          "midi": 69,
          "name": "A4",
          "ticks": 24408,
          "time": 84.74991525,
          "velocity": 1
        },
        {
          "duration": 0.08333324999999547,
          "durationTicks": 24,
          "midi": 74,
          "name": "D5",
          "ticks": 24432,
          "time": 84.8332485,
          "velocity": 1
        },
        {
          "duration": 0.08333325000000968,
          "durationTicks": 24,
          "midi": 72,
          "name": "C5",
          "ticks": 24456,
          "time": 84.91658174999999,
          "velocity": 1
        },
        {
          "duration": 0.08333324999999547,
          "durationTicks": 24,
          "midi": 74,
          "name": "D5",
          "ticks": 24480,
          "time": 84.999915,
          "velocity": 1
        },
        {
          "duration": 0.08333324999999547,
          "durationTicks": 24,
          "midi": 72,
          "name": "C5",
          "ticks": 24504,
          "time": 85.08324825,
          "velocity": 1
        },
        {
          "duration": 0.08333325000000968,
          "durationTicks": 24,
          "midi": 67,
          "name": "G4",
          "ticks": 24528,
          "time": 85.16658149999999,
          "velocity": 1
        },
        {
          "duration": 0.08333324999999547,
          "durationTicks": 24,
          "midi": 69,
          "name": "A4",
          "ticks": 24576,
          "time": 85.333248,
          "velocity": 1
        },
        {
          "duration": 0.08333324999999547,
          "durationTicks": 24,
          "midi": 69,
          "name": "A4",
          "ticks": 24624,
          "time": 85.4999145,
          "velocity": 1
        },
        {
          "duration": 0.08333325000000968,
          "durationTicks": 24,
          "midi": 72,
          "name": "C5",
          "ticks": 24672,
          "time": 85.666581,
          "velocity": 1
        },
        {
          "duration": 0.08333324999999547,
          "durationTicks": 24,
          "midi": 67,
          "name": "G4",
          "ticks": 24720,
          "time": 85.8332475,
          "velocity": 1
        },
        {
          "duration": 0.08333324999999547,
          "durationTicks": 24,
          "midi": 69,
          "name": "A4",
          "ticks": 24768,
          "time": 85.999914,
          "velocity": 1
        },
        {
          "duration": 0.08333325000000968,
          "durationTicks": 24,
          "midi": 67,
          "name": "G4",
          "ticks": 24816,
          "time": 86.1665805,
          "velocity": 1
        },
        {
          "duration": 0.08333324999999547,
          "durationTicks": 24,
          "midi": 72,
          "name": "C5",
          "ticks": 24864,
          "time": 86.333247,
          "velocity": 1
        },
        {
          "duration": 0.08333325000000968,
          "durationTicks": 24,
          "midi": 74,
          "name": "D5",
          "ticks": 24912,
          "time": 86.49991349999999,
          "velocity": 1
        },
        {
          "duration": 0.08333324999999547,
          "durationTicks": 24,
          "midi": 75,
          "name": "D#5",
          "ticks": 24960,
          "time": 86.66658,
          "velocity": 1
        },
        {
          "duration": 0.08333324999999547,
          "durationTicks": 24,
          "midi": 72,
          "name": "C5",
          "ticks": 25008,
          "time": 86.8332465,
          "velocity": 1
        },
        {
          "duration": 0.08333325000000968,
          "durationTicks": 24,
          "midi": 74,
          "name": "D5",
          "ticks": 25056,
          "time": 86.99991299999999,
          "velocity": 1
        },
        {
          "duration": 0.08333324999999547,
          "durationTicks": 24,
          "midi": 72,
          "name": "C5",
          "ticks": 25104,
          "time": 87.1665795,
          "velocity": 1
        },
        {
          "duration": 0.08333324999999547,
          "durationTicks": 24,
          "midi": 75,
          "name": "D#5",
          "ticks": 25152,
          "time": 87.333246,
          "velocity": 1
        },
        {
          "duration": 0.08333325000000968,
          "durationTicks": 24,
          "midi": 76,
          "name": "E5",
          "ticks": 25200,
          "time": 87.4999125,
          "velocity": 1
        },
        {
          "duration": 0.08333324999999547,
          "durationTicks": 24,
          "midi": 77,
          "name": "F5",
          "ticks": 25248,
          "time": 87.666579,
          "velocity": 1
        },
        {
          "duration": 0.08333324999999547,
          "durationTicks": 24,
          "midi": 76,
          "name": "E5",
          "ticks": 25296,
          "time": 87.8332455,
          "velocity": 1
        },
        {
          "duration": 0.08333325000000968,
          "durationTicks": 24,
          "midi": 69,
          "name": "A4",
          "ticks": 25344,
          "time": 87.999912,
          "velocity": 1
        },
        {
          "duration": 0.08333324999999547,
          "durationTicks": 24,
          "midi": 68,
          "name": "G#4",
          "ticks": 25368,
          "time": 88.08324525,
          "velocity": 1
        },
        {
          "duration": 0.08333324999999547,
          "durationTicks": 24,
          "midi": 69,
          "name": "A4",
          "ticks": 25392,
          "time": 88.1665785,
          "velocity": 1
        },
        {
          "duration": 0.08333324999999547,
          "durationTicks": 24,
          "midi": 68,
          "name": "G#4",
          "ticks": 25416,
          "time": 88.24991175,
          "velocity": 1
        },
        {
          "duration": 0.08333325000000968,
          "durationTicks": 24,
          "midi": 71,
          "name": "B4",
          "ticks": 25440,
          "time": 88.33324499999999,
          "velocity": 1
        },
        {
          "duration": 0.08333324999999547,
          "durationTicks": 24,
          "midi": 72,
          "name": "C5",
          "ticks": 25488,
          "time": 88.4999115,
          "velocity": 1
        },
        {
          "duration": 0.08333324999999547,
          "durationTicks": 24,
          "midi": 72,
          "name": "C5",
          "ticks": 25536,
          "time": 88.666578,
          "velocity": 1
        },
        {
          "duration": 0.08333325000000968,
          "durationTicks": 24,
          "midi": 73,
          "name": "C#5",
          "ticks": 25584,
          "time": 88.83324449999999,
          "velocity": 1
        },
        {
          "duration": 0.08333324999999547,
          "durationTicks": 24,
          "midi": 74,
          "name": "D5",
          "ticks": 25632,
          "time": 88.999911,
          "velocity": 1
        },
        {
          "duration": 0.08333324999999547,
          "durationTicks": 24,
          "midi": 75,
          "name": "D#5",
          "ticks": 25680,
          "time": 89.1665775,
          "velocity": 1
        },
        {
          "duration": 0.08333325000000968,
          "durationTicks": 24,
          "midi": 76,
          "name": "E5",
          "ticks": 25728,
          "time": 89.333244,
          "velocity": 1
        },
        {
          "duration": 0.08333324999999547,
          "durationTicks": 24,
          "midi": 81,
          "name": "A5",
          "ticks": 25776,
          "time": 89.4999105,
          "velocity": 1
        },
        {
          "duration": 0.08333325000000968,
          "durationTicks": 24,
          "midi": 76,
          "name": "E5",
          "ticks": 25800,
          "time": 89.58324375,
          "velocity": 1
        },
        {
          "duration": 0.08333324999999547,
          "durationTicks": 24,
          "midi": 72,
          "name": "C5",
          "ticks": 25824,
          "time": 89.666577,
          "velocity": 1
        },
        {
          "duration": 0.08333324999999547,
          "durationTicks": 24,
          "midi": 81,
          "name": "A5",
          "ticks": 25848,
          "time": 89.74991025,
          "velocity": 1
        },
        {
          "duration": 0.08333325000000968,
          "durationTicks": 24,
          "midi": 76,
          "name": "E5",
          "ticks": 25872,
          "time": 89.8332435,
          "velocity": 1
        },
        {
          "duration": 0.08333324999999547,
          "durationTicks": 24,
          "midi": 72,
          "name": "C5",
          "ticks": 25896,
          "time": 89.91657675,
          "velocity": 1
        },
        {
          "duration": 0.08333324999999547,
          "durationTicks": 24,
          "midi": 81,
          "name": "A5",
          "ticks": 25920,
          "time": 89.99991,
          "velocity": 1
        },
        {
          "duration": 0.08333324999999547,
          "durationTicks": 24,
          "midi": 76,
          "name": "E5",
          "ticks": 25944,
          "time": 90.08324325,
          "velocity": 1
        },
        {
          "duration": 0.08333325000000968,
          "durationTicks": 24,
          "midi": 72,
          "name": "C5",
          "ticks": 25968,
          "time": 90.16657649999999,
          "velocity": 1
        },
        {
          "duration": 0.08333324999999547,
          "durationTicks": 24,
          "midi": 81,
          "name": "A5",
          "ticks": 25992,
          "time": 90.24990975,
          "velocity": 1
        },
        {
          "duration": 0.08333324999999547,
          "durationTicks": 24,
          "midi": 76,
          "name": "E5",
          "ticks": 26016,
          "time": 90.333243,
          "velocity": 1
        },
        {
          "duration": 0.08333325000000968,
          "durationTicks": 24,
          "midi": 72,
          "name": "C5",
          "ticks": 26040,
          "time": 90.41657624999999,
          "velocity": 1
        },
        {
          "duration": 0.08333324999999547,
          "durationTicks": 24,
          "midi": 76,
          "name": "E5",
          "ticks": 26064,
          "time": 90.4999095,
          "velocity": 1
        },
        {
          "duration": 0.08333324999999547,
          "durationTicks": 24,
          "midi": 72,
          "name": "C5",
          "ticks": 26088,
          "time": 90.58324275,
          "velocity": 1
        },
        {
          "duration": 0.08333325000000968,
          "durationTicks": 24,
          "midi": 81,
          "name": "A5",
          "ticks": 26112,
          "time": 90.66657599999999,
          "velocity": 1
        },
        {
          "duration": 0.08333324999999547,
          "durationTicks": 24,
          "midi": 83,
          "name": "B5",
          "ticks": 26136,
          "time": 90.74990925,
          "velocity": 1
        },
        {
          "duration": 0.08333324999999547,
          "durationTicks": 24,
          "midi": 84,
          "name": "C6",
          "ticks": 26160,
          "time": 90.8332425,
          "velocity": 1
        },
        {
          "duration": 0.08333325000000968,
          "durationTicks": 24,
          "midi": 80,
          "name": "G#5",
          "ticks": 26184,
          "time": 90.91657574999999,
          "velocity": 1
        },
        {
          "duration": 0.08333324999999547,
          "durationTicks": 24,
          "midi": 81,
          "name": "A5",
          "ticks": 26208,
          "time": 90.999909,
          "velocity": 1
        },
        {
          "duration": 0.08333324999999547,
          "durationTicks": 24,
          "midi": 75,
          "name": "D#5",
          "ticks": 26232,
          "time": 91.08324225,
          "velocity": 1
        },
        {
          "duration": 0.08333325000000968,
          "durationTicks": 24,
          "midi": 76,
          "name": "E5",
          "ticks": 26256,
          "time": 91.1665755,
          "velocity": 1
        },
        {
          "duration": 0.08333324999999547,
          "durationTicks": 24,
          "midi": 69,
          "name": "A4",
          "ticks": 26280,
          "time": 91.24990875,
          "velocity": 1
        },
        {
          "duration": 0.08333324999999547,
          "durationTicks": 24,
          "midi": 71,
          "name": "B4",
          "ticks": 26304,
          "time": 91.333242,
          "velocity": 1
        },
        {
          "duration": 0.08333325000000968,
          "durationTicks": 24,
          "midi": 71,
          "name": "B4",
          "ticks": 26328,
          "time": 91.41657525,
          "velocity": 1
        },
        {
          "duration": 0.08333324999999547,
          "durationTicks": 24,
          "midi": 73,
          "name": "C#5",
          "ticks": 26352,
          "time": 91.4999085,
          "velocity": 1
        },
        {
          "duration": 0.08333324999999547,
          "durationTicks": 24,
          "midi": 73,
          "name": "C#5",
          "ticks": 26376,
          "time": 91.58324175,
          "velocity": 1
        },
        {
          "duration": 0.08333325000000968,
          "durationTicks": 24,
          "midi": 75,
          "name": "D#5",
          "ticks": 26400,
          "time": 91.666575,
          "velocity": 1
        },
        {
          "duration": 0.08333324999999547,
          "durationTicks": 24,
          "midi": 75,
          "name": "D#5",
          "ticks": 26424,
          "time": 91.74990825,
          "velocity": 1
        },
        {
          "duration": 0.08333324999999547,
          "durationTicks": 24,
          "midi": 77,
          "name": "F5",
          "ticks": 26448,
          "time": 91.8332415,
          "velocity": 1
        },
        {
          "duration": 0.08333324999999547,
          "durationTicks": 24,
          "midi": 75,
          "name": "D#5",
          "ticks": 26472,
          "time": 91.91657475,
          "velocity": 1
        },
        {
          "duration": 0.08333325000000968,
          "durationTicks": 24,
          "midi": 76,
          "name": "E5",
          "ticks": 26496,
          "time": 91.99990799999999,
          "velocity": 1
        },
        {
          "duration": 0.08333324999999547,
          "durationTicks": 24,
          "midi": 77,
          "name": "F5",
          "ticks": 26520,
          "time": 92.08324125,
          "velocity": 1
        },
        {
          "duration": 0.08333324999999547,
          "durationTicks": 24,
          "midi": 80,
          "name": "G#5",
          "ticks": 26544,
          "time": 92.1665745,
          "velocity": 1
        },
        {
          "duration": 0.08333325000000968,
          "durationTicks": 24,
          "midi": 81,
          "name": "A5",
          "ticks": 26568,
          "time": 92.24990774999999,
          "velocity": 1
        },
        {
          "duration": 0.08333324999999547,
          "durationTicks": 24,
          "midi": 83,
          "name": "B5",
          "ticks": 26592,
          "time": 92.333241,
          "velocity": 1
        },
        {
          "duration": 0.08333324999999547,
          "durationTicks": 24,
          "midi": 84,
          "name": "C6",
          "ticks": 26616,
          "time": 92.41657425,
          "velocity": 1
        },
        {
          "duration": 0.08333325000000968,
          "durationTicks": 24,
          "midi": 88,
          "name": "E6",
          "ticks": 26640,
          "time": 92.49990749999999,
          "velocity": 1
        },
        {
          "duration": 0.08333324999999547,
          "durationTicks": 24,
          "midi": 87,
          "name": "D#6",
          "ticks": 26664,
          "time": 92.58324075,
          "velocity": 1
        },
        {
          "duration": 0.16666650000000516,
          "durationTicks": 48,
          "midi": 88,
          "name": "E6",
          "ticks": 26688,
          "time": 92.666574,
          "velocity": 1
        },
        {
          "duration": 0.08333324999999547,
          "durationTicks": 24,
          "midi": 88,
          "name": "E6",
          "ticks": 26736,
          "time": 92.8332405,
          "velocity": 1
        },
        {
          "duration": 0.08333324999999547,
          "durationTicks": 24,
          "midi": 87,
          "name": "D#6",
          "ticks": 26760,
          "time": 92.91657375,
          "velocity": 1
        },
        {
          "duration": 0.08333325000000968,
          "durationTicks": 24,
          "midi": 83,
          "name": "B5",
          "ticks": 26784,
          "time": 92.999907,
          "velocity": 1
        },
        {
          "duration": 0.08333324999999547,
          "durationTicks": 24,
          "midi": 81,
          "name": "A5",
          "ticks": 26808,
          "time": 93.08324025,
          "velocity": 1
        },
        {
          "duration": 0.08333324999999547,
          "durationTicks": 24,
          "midi": 76,
          "name": "E5",
          "ticks": 26832,
          "time": 93.1665735,
          "velocity": 1
        },
        {
          "duration": 0.08333325000000968,
          "durationTicks": 24,
          "midi": 71,
          "name": "B4",
          "ticks": 26856,
          "time": 93.24990675,
          "velocity": 1
        },
        {
          "duration": 0.08333324999999547,
          "durationTicks": 24,
          "midi": 69,
          "name": "A4",
          "ticks": 26880,
          "time": 93.33324,
          "velocity": 1
        },
        {
          "duration": 0.08333324999999547,
          "durationTicks": 24,
          "midi": 72,
          "name": "C5",
          "ticks": 26904,
          "time": 93.41657325,
          "velocity": 1
        },
        {
          "duration": 0.08333325000000968,
          "durationTicks": 24,
          "midi": 71,
          "name": "B4",
          "ticks": 26928,
          "time": 93.4999065,
          "velocity": 1
        },
        {
          "duration": 0.08333324999999547,
          "durationTicks": 24,
          "midi": 69,
          "name": "A4",
          "ticks": 26952,
          "time": 93.58323975,
          "velocity": 1
        },
        {
          "duration": 0.08333324999999547,
          "durationTicks": 24,
          "midi": 71,
          "name": "B4",
          "ticks": 26976,
          "time": 93.666573,
          "velocity": 1
        },
        {
          "duration": 0.08333324999999547,
          "durationTicks": 24,
          "midi": 76,
          "name": "E5",
          "ticks": 27000,
          "time": 93.74990625,
          "velocity": 1
        },
        {
          "duration": 0.08333325000000968,
          "durationTicks": 24,
          "midi": 81,
          "name": "A5",
          "ticks": 27024,
          "time": 93.83323949999999,
          "velocity": 1
        },
        {
          "duration": 0.08333324999999547,
          "durationTicks": 24,
          "midi": 83,
          "name": "B5",
          "ticks": 27048,
          "time": 93.91657275,
          "velocity": 1
        },
        {
          "duration": 0.08333324999999547,
          "durationTicks": 24,
          "midi": 84,
          "name": "C6",
          "ticks": 27072,
          "time": 93.999906,
          "velocity": 1
        },
        {
          "duration": 0.08333325000000968,
          "durationTicks": 24,
          "midi": 83,
          "name": "B5",
          "ticks": 27096,
          "time": 94.08323924999999,
          "velocity": 1
        },
        {
          "duration": 0.08333324999999547,
          "durationTicks": 24,
          "midi": 80,
          "name": "G#5",
          "ticks": 27120,
          "time": 94.1665725,
          "velocity": 1
        },
        {
          "duration": 0.08333324999999547,
          "durationTicks": 24,
          "midi": 83,
          "name": "B5",
          "ticks": 27144,
          "time": 94.24990575,
          "velocity": 1
        },
        {
          "duration": 0.08333325000000968,
          "durationTicks": 24,
          "midi": 81,
          "name": "A5",
          "ticks": 27168,
          "time": 94.33323899999999,
          "velocity": 1
        },
        {
          "duration": 0.08333324999999547,
          "durationTicks": 24,
          "midi": 76,
          "name": "E5",
          "ticks": 27192,
          "time": 94.41657225,
          "velocity": 1
        },
        {
          "duration": 0.08333324999999547,
          "durationTicks": 24,
          "midi": 72,
          "name": "C5",
          "ticks": 27216,
          "time": 94.4999055,
          "velocity": 1
        },
        {
          "duration": 0.16666649999999095,
          "durationTicks": 48,
          "midi": 74,
          "name": "D5",
          "ticks": 27264,
          "time": 94.666572,
          "velocity": 1
        },
        {
          "duration": 0.08333325000000968,
          "durationTicks": 24,
          "midi": 74,
          "name": "D5",
          "ticks": 27312,
          "time": 94.8332385,
          "velocity": 1
        },
        {
          "duration": 0.08333324999999547,
          "durationTicks": 24,
          "midi": 72,
          "name": "C5",
          "ticks": 27336,
          "time": 94.91657175,
          "velocity": 1
        },
        {
          "duration": 0.16666650000000516,
          "durationTicks": 48,
          "midi": 74,
          "name": "D5",
          "ticks": 27360,
          "time": 94.999905,
          "velocity": 1
        },
        {
          "duration": 0.08333324999999547,
          "durationTicks": 24,
          "midi": 72,
          "name": "C5",
          "ticks": 27408,
          "time": 95.1665715,
          "velocity": 1
        },
        {
          "duration": 0.08333325000000968,
          "durationTicks": 24,
          "midi": 74,
          "name": "D5",
          "ticks": 27456,
          "time": 95.333238,
          "velocity": 1
        },
        {
          "duration": 0.08333324999999547,
          "durationTicks": 24,
          "midi": 76,
          "name": "E5",
          "ticks": 27504,
          "time": 95.4999045,
          "velocity": 1
        },
        {
          "duration": 0.08333325000000968,
          "durationTicks": 24,
          "midi": 72,
          "name": "C5",
          "ticks": 27552,
          "time": 95.66657099999999,
          "velocity": 1
        },
        {
          "duration": 0.08333324999999547,
          "durationTicks": 24,
          "midi": 72,
          "name": "C5",
          "ticks": 27600,
          "time": 95.8332375,
          "velocity": 1
        },
        {
          "duration": 0.08333324999999547,
          "durationTicks": 24,
          "midi": 76,
          "name": "E5",
          "ticks": 27648,
          "time": 95.999904,
          "velocity": 1
        },
        {
          "duration": 0.08333325000000968,
          "durationTicks": 24,
          "midi": 77,
          "name": "F5",
          "ticks": 27696,
          "time": 96.16657049999999,
          "velocity": 1
        },
        {
          "duration": 0.08333324999999547,
          "durationTicks": 24,
          "midi": 79,
          "name": "G5",
          "ticks": 27744,
          "time": 96.333237,
          "velocity": 1
        },
        {
          "duration": 0.08333324999999547,
          "durationTicks": 24,
          "midi": 81,
          "name": "A5",
          "ticks": 27792,
          "time": 96.4999035,
          "velocity": 1
        },
        {
          "duration": 0.08333325000000968,
          "durationTicks": 24,
          "midi": 83,
          "name": "B5",
          "ticks": 27840,
          "time": 96.66657,
          "velocity": 1
        },
        {
          "duration": 0.08333324999999547,
          "durationTicks": 24,
          "midi": 84,
          "name": "C6",
          "ticks": 27888,
          "time": 96.8332365,
          "velocity": 1
        },
        {
          "duration": 0.08333324999999547,
          "durationTicks": 24,
          "midi": 86,
          "name": "D6",
          "ticks": 27936,
          "time": 96.999903,
          "velocity": 1
        },
        {
          "duration": 0.08333325000000968,
          "durationTicks": 24,
          "midi": 87,
          "name": "D#6",
          "ticks": 27984,
          "time": 97.1665695,
          "velocity": 1
        },
        {
          "duration": 0.08333324999999547,
          "durationTicks": 24,
          "midi": 88,
          "name": "E6",
          "ticks": 28032,
          "time": 97.333236,
          "velocity": 1
        },
        {
          "duration": 0.08333325000000968,
          "durationTicks": 24,
          "midi": 88,
          "name": "E6",
          "ticks": 28080,
          "time": 97.49990249999999,
          "velocity": 1
        },
        {
          "duration": 0.08333324999999547,
          "durationTicks": 24,
          "midi": 76,
          "name": "E5",
          "ticks": 28128,
          "time": 97.666569,
          "velocity": 1
        },
        {
          "duration": 0.08333324999999547,
          "durationTicks": 24,
          "midi": 76,
          "name": "E5",
          "ticks": 28176,
          "time": 97.8332355,
          "velocity": 1
        },
        {
          "duration": 0.6666660000000064,
          "durationTicks": 192,
          "midi": 76,
          "name": "E5",
          "ticks": 28224,
          "time": 97.99990199999999,
          "velocity": 1
        }
      ]
    },
    {
      "channel": 0,
      "controlChanges": {
        "6": [
          {
            "number": 6,
            "ticks": 0,
            "time": 0,
            "value": 0.09448818897637795
          }
        ],
        "7": [
          {
            "number": 7,
            "ticks": 0,
            "time": 0,
            "value": 1
          },
          {
            "number": 7,
            "ticks": 0,
            "time": 0,
            "value": 1
          }
        ],
        "10": [
          {
            "number": 10,
            "ticks": 0,
            "time": 0,
            "value": 0.5039370078740157
          },
          {
            "number": 10,
            "ticks": 0,
            "time": 0,
            "value": 0.5039370078740157
          }
        ],
        "100": [
          {
            "number": 100,
            "ticks": 0,
            "time": 0,
            "value": 0
          }
        ],
        "101": [
          {
            "number": 101,
            "ticks": 0,
            "time": 0,
            "value": 0
          }
        ]
      },
      "pitchBends": [
        {
          "ticks": 0,
          "time": 0,
          "value": 0
        },
        {
          "ticks": 0,
          "time": 0,
          "value": 0
        }
      ],
      "instrument": {
        "family": "piano",
        "number": 0,
        "name": "acoustic grand piano"
      },
      "name": "Drums",
      "notes": [],
      "endOfTrackTicks": 37249
    },
    {
      "channel": 9,
      "controlChanges": {
        "6": [
          {
            "number": 6,
            "ticks": 0,
            "time": 0,
            "value": 0.09448818897637795
          },
          {
            "number": 6,
            "ticks": 0,
            "time": 0,
            "value": 0.09448818897637795
          },
          {
            "number": 6,
            "ticks": 37248,
            "time": 129.333204,
            "value": 0.09448818897637795
          },
          {
            "number": 6,
            "ticks": 37249,
            "time": 129.33667621875,
            "value": 0.09448818897637795
          }
        ],
        "7": [
          {
            "number": 7,
            "ticks": 0,
            "time": 0,
            "value": 1
          },
          {
            "number": 7,
            "ticks": 0,
            "time": 0,
            "value": 1
          },
          {
            "number": 7,
            "ticks": 37248,
            "time": 129.333204,
            "value": 1
          },
          {
            "number": 7,
            "ticks": 37249,
            "time": 129.33667621875,
            "value": 1
          }
        ],
        "10": [
          {
            "number": 10,
            "ticks": 0,
            "time": 0,
            "value": 0.5039370078740157
          },
          {
            "number": 10,
            "ticks": 0,
            "time": 0,
            "value": 0.5039370078740157
          },
          {
            "number": 10,
            "ticks": 37248,
            "time": 129.333204,
            "value": 0.5039370078740157
          },
          {
            "number": 10,
            "ticks": 37249,
            "time": 129.33667621875,
            "value": 0.5039370078740157
          }
        ],
        "100": [
          {
            "number": 100,
            "ticks": 0,
            "time": 0,
            "value": 0
          },
          {
            "number": 100,
            "ticks": 0,
            "time": 0,
            "value": 0
          },
          {
            "number": 100,
            "ticks": 37248,
            "time": 129.333204,
            "value": 0
          },
          {
            "number": 100,
            "ticks": 37249,
            "time": 129.33667621875,
            "value": 0
          }
        ],
        "101": [
          {
            "number": 101,
            "ticks": 0,
            "time": 0,
            "value": 0
          },
          {
            "number": 101,
            "ticks": 0,
            "time": 0,
            "value": 0
          },
          {
            "number": 101,
            "ticks": 37248,
            "time": 129.333204,
            "value": 0
          },
          {
            "number": 101,
            "ticks": 37249,
            "time": 129.33667621875,
            "value": 0
          }
        ]
      },
      "pitchBends": [
        {
          "ticks": 0,
          "time": 0,
          "value": 0
        },
        {
          "ticks": 0,
          "time": 0,
          "value": 0
        },
        {
          "ticks": 37248,
          "time": 129.333204,
          "value": 0
        },
        {
          "ticks": 37249,
          "time": 129.33667621875,
          "value": 0
        }
      ],
      "instrument": {
        "family": "drums",
        "number": 24,
        "name": "electronic kit"
      },
      "name": "",
      "notes": [
        {
          "duration": 0.16666649999999983,
          "durationTicks": 48,
          "midi": 36,
          "name": "C2",
          "ticks": 768,
          "time": 2.666664,
          "velocity": 0.9448818897637795
        },
        {
          "duration": 0.16666649999999983,
          "durationTicks": 48,
          "midi": 36,
          "name": "C2",
          "ticks": 864,
          "time": 2.999997,
          "velocity": 0.9448818897637795
        },
        {
          "duration": 0.16666649999999983,
          "durationTicks": 48,
          "midi": 36,
          "name": "C2",
          "ticks": 960,
          "time": 3.33333,
          "velocity": 0.9448818897637795
        },
        {
          "duration": 0.16666650000000027,
          "durationTicks": 48,
          "midi": 36,
          "name": "C2",
          "ticks": 1056,
          "time": 3.666663,
          "velocity": 0.9448818897637795
        },
        {
          "duration": 0.16666650000000027,
          "durationTicks": 48,
          "midi": 36,
          "name": "C2",
          "ticks": 1152,
          "time": 3.999996,
          "velocity": 0.9448818897637795
        },
        {
          "duration": 0.16666649999999983,
          "durationTicks": 48,
          "midi": 36,
          "name": "C2",
          "ticks": 1248,
          "time": 4.333329,
          "velocity": 0.9448818897637795
        },
        {
          "duration": 0.16666649999999983,
          "durationTicks": 48,
          "midi": 36,
          "name": "C2",
          "ticks": 1344,
          "time": 4.666662,
          "velocity": 0.9448818897637795
        },
        {
          "duration": 0.16666649999999983,
          "durationTicks": 48,
          "midi": 36,
          "name": "C2",
          "ticks": 1440,
          "time": 4.999995,
          "velocity": 0.9448818897637795
        },
        {
          "duration": 0.16666649999999983,
          "durationTicks": 48,
          "midi": 36,
          "name": "C2",
          "ticks": 1536,
          "time": 5.333328,
          "velocity": 0.9448818897637795
        },
        {
          "duration": 0.16666650000000072,
          "durationTicks": 48,
          "midi": 36,
          "name": "C2",
          "ticks": 1632,
          "time": 5.6666609999999995,
          "velocity": 0.9448818897637795
        },
        {
          "duration": 0.16666649999999983,
          "durationTicks": 48,
          "midi": 36,
          "name": "C2",
          "ticks": 1728,
          "time": 5.999994,
          "velocity": 0.9448818897637795
        },
        {
          "duration": 0.16666649999999983,
          "durationTicks": 48,
          "midi": 36,
          "name": "C2",
          "ticks": 1824,
          "time": 6.333327,
          "velocity": 0.9448818897637795
        },
        {
          "duration": 0.16666649999999983,
          "durationTicks": 48,
          "midi": 36,
          "name": "C2",
          "ticks": 1920,
          "time": 6.66666,
          "velocity": 0.9448818897637795
        },
        {
          "duration": 0.16666649999999983,
          "durationTicks": 48,
          "midi": 36,
          "name": "C2",
          "ticks": 2016,
          "time": 6.999993,
          "velocity": 0.9448818897637795
        },
        {
          "duration": 0.16666649999999983,
          "durationTicks": 48,
          "midi": 36,
          "name": "C2",
          "ticks": 2112,
          "time": 7.333326,
          "velocity": 0.9448818897637795
        },
        {
          "duration": 0.16666649999999983,
          "durationTicks": 48,
          "midi": 36,
          "name": "C2",
          "ticks": 2208,
          "time": 7.666659,
          "velocity": 0.9448818897637795
        },
        {
          "duration": 0.16666650000000072,
          "durationTicks": 48,
          "midi": 36,
          "name": "C2",
          "ticks": 2304,
          "time": 7.999992,
          "velocity": 0.9448818897637795
        },
        {
          "duration": 0.16666649999999983,
          "durationTicks": 48,
          "midi": 36,
          "name": "C2",
          "ticks": 2400,
          "time": 8.333325,
          "velocity": 0.9448818897637795
        },
        {
          "duration": 0.16666649999999983,
          "durationTicks": 48,
          "midi": 36,
          "name": "C2",
          "ticks": 2496,
          "time": 8.666658,
          "velocity": 0.9448818897637795
        },
        {
          "duration": 0.16666649999999983,
          "durationTicks": 48,
          "midi": 36,
          "name": "C2",
          "ticks": 2592,
          "time": 8.999991,
          "velocity": 0.9448818897637795
        },
        {
          "duration": 0.16666649999999983,
          "durationTicks": 48,
          "midi": 36,
          "name": "C2",
          "ticks": 2688,
          "time": 9.333324,
          "velocity": 0.9448818897637795
        },
        {
          "duration": 0.1666665000000016,
          "durationTicks": 48,
          "midi": 36,
          "name": "C2",
          "ticks": 2784,
          "time": 9.666656999999999,
          "velocity": 0.9448818897637795
        },
        {
          "duration": 0.16666649999999983,
          "durationTicks": 48,
          "midi": 36,
          "name": "C2",
          "ticks": 2880,
          "time": 9.99999,
          "velocity": 0.9448818897637795
        },
        {
          "duration": 0.16666649999999983,
          "durationTicks": 48,
          "midi": 36,
          "name": "C2",
          "ticks": 2976,
          "time": 10.333323,
          "velocity": 0.9448818897637795
        },
        {
          "duration": 0.16666649999999983,
          "durationTicks": 48,
          "midi": 39,
          "name": "D#2",
          "ticks": 3072,
          "time": 10.666656,
          "velocity": 0.9448818897637795
        },
        {
          "duration": 0.16666649999999983,
          "durationTicks": 48,
          "midi": 38,
          "name": "D2",
          "ticks": 3072,
          "time": 10.666656,
          "velocity": 0.9448818897637795
        },
        {
          "duration": 0.16666649999999983,
          "durationTicks": 48,
          "midi": 36,
          "name": "C2",
          "ticks": 3072,
          "time": 10.666656,
          "velocity": 0.9448818897637795
        },
        {
          "duration": 0.16666649999999983,
          "durationTicks": 48,
          "midi": 82,
          "name": "A#5",
          "ticks": 3096,
          "time": 10.74998925,
          "velocity": 0.9448818897637795
        },
        {
          "duration": 0.0833332500000008,
          "durationTicks": 24,
          "midi": 42,
          "name": "F#2",
          "ticks": 3120,
          "time": 10.8333225,
          "velocity": 0.9448818897637795
        },
        {
          "duration": 0.08333324999999903,
          "durationTicks": 24,
          "midi": 42,
          "name": "F#2",
          "ticks": 3144,
          "time": 10.91665575,
          "velocity": 0.9448818897637795
        },
        {
          "duration": 0.16666649999999983,
          "durationTicks": 48,
          "midi": 36,
          "name": "C2",
          "ticks": 3168,
          "time": 10.999989,
          "velocity": 0.9448818897637795
        },
        {
          "duration": 0.04166662499999951,
          "durationTicks": 12,
          "midi": 42,
          "name": "F#2",
          "ticks": 3168,
          "time": 10.999989,
          "velocity": 0.7559055118110236
        },
        {
          "duration": 0.04166662500000129,
          "durationTicks": 12,
          "midi": 42,
          "name": "F#2",
          "ticks": 3180,
          "time": 11.041655624999999,
          "velocity": 0.7559055118110236
        },
        {
          "duration": 0.04166662499999951,
          "durationTicks": 12,
          "midi": 42,
          "name": "F#2",
          "ticks": 3192,
          "time": 11.08332225,
          "velocity": 0.7559055118110236
        },
        {
          "duration": 0.04166662499999951,
          "durationTicks": 12,
          "midi": 42,
          "name": "F#2",
          "ticks": 3204,
          "time": 11.124988875,
          "velocity": 0.7559055118110236
        },
        {
          "duration": 0.16666649999999983,
          "durationTicks": 48,
          "midi": 38,
          "name": "D2",
          "ticks": 3216,
          "time": 11.1666555,
          "velocity": 0.9448818897637795
        },
        {
          "duration": 0.16666649999999983,
          "durationTicks": 48,
          "midi": 39,
          "name": "D#2",
          "ticks": 3216,
          "time": 11.1666555,
          "velocity": 0.9448818897637795
        },
        {
          "duration": 0.16666649999999983,
          "durationTicks": 48,
          "midi": 38,
          "name": "D2",
          "ticks": 3264,
          "time": 11.333321999999999,
          "velocity": 0.9448818897637795
        },
        {
          "duration": 0.16666649999999983,
          "durationTicks": 48,
          "midi": 39,
          "name": "D#2",
          "ticks": 3264,
          "time": 11.333321999999999,
          "velocity": 0.9448818897637795
        },
        {
          "duration": 0.04166662500000129,
          "durationTicks": 12,
          "midi": 42,
          "name": "F#2",
          "ticks": 3264,
          "time": 11.333321999999999,
          "velocity": 0.7559055118110236
        },
        {
          "duration": 0.16666649999999983,
          "durationTicks": 48,
          "midi": 36,
          "name": "C2",
          "ticks": 3264,
          "time": 11.333321999999999,
          "velocity": 0.9448818897637795
        },
        {
          "duration": 0.04166662499999951,
          "durationTicks": 12,
          "midi": 42,
          "name": "F#2",
          "ticks": 3276,
          "time": 11.374988625,
          "velocity": 0.7559055118110236
        },
        {
          "duration": 0.04166662499999951,
          "durationTicks": 12,
          "midi": 42,
          "name": "F#2",
          "ticks": 3288,
          "time": 11.41665525,
          "velocity": 0.7559055118110236
        },
        {
          "duration": 0.04166662499999951,
          "durationTicks": 12,
          "midi": 42,
          "name": "F#2",
          "ticks": 3300,
          "time": 11.458321875,
          "velocity": 0.7559055118110236
        },
        {
          "duration": 0.0833332500000008,
          "durationTicks": 24,
          "midi": 42,
          "name": "F#2",
          "ticks": 3312,
          "time": 11.499988499999999,
          "velocity": 0.9448818897637795
        },
        {
          "duration": 0.0833332500000008,
          "durationTicks": 24,
          "midi": 42,
          "name": "F#2",
          "ticks": 3336,
          "time": 11.58332175,
          "velocity": 0.9448818897637795
        },
        {
          "duration": 0.16666649999999983,
          "durationTicks": 48,
          "midi": 36,
          "name": "C2",
          "ticks": 3360,
          "time": 11.666655,
          "velocity": 0.9448818897637795
        },
        {
          "duration": 0.16666649999999983,
          "durationTicks": 48,
          "midi": 38,
          "name": "D2",
          "ticks": 3360,
          "time": 11.666655,
          "velocity": 0.9448818897637795
        },
        {
          "duration": 0.16666649999999983,
          "durationTicks": 48,
          "midi": 39,
          "name": "D#2",
          "ticks": 3360,
          "time": 11.666655,
          "velocity": 0.9448818897637795
        },
        {
          "duration": 0.16666649999999983,
          "durationTicks": 48,
          "midi": 42,
          "name": "F#2",
          "ticks": 3408,
          "time": 11.8333215,
          "velocity": 0.9448818897637795
        },
        {
          "duration": 0.16666649999999983,
          "durationTicks": 48,
          "midi": 36,
          "name": "C2",
          "ticks": 3456,
          "time": 11.999988,
          "velocity": 0.9448818897637795
        },
        {
          "duration": 0.16666649999999983,
          "durationTicks": 48,
          "midi": 39,
          "name": "D#2",
          "ticks": 3456,
          "time": 11.999988,
          "velocity": 0.9448818897637795
        },
        {
          "duration": 0.16666649999999983,
          "durationTicks": 48,
          "midi": 42,
          "name": "F#2",
          "ticks": 3456,
          "time": 11.999988,
          "velocity": 0.9448818897637795
        },
        {
          "duration": 0.16666649999999983,
          "durationTicks": 48,
          "midi": 38,
          "name": "D2",
          "ticks": 3456,
          "time": 11.999988,
          "velocity": 0.9448818897637795
        },
        {
          "duration": 0.16666649999999983,
          "durationTicks": 48,
          "midi": 38,
          "name": "D2",
          "ticks": 3504,
          "time": 12.1666545,
          "velocity": 0.9448818897637795
        },
        {
          "duration": 0.04166662499999951,
          "durationTicks": 12,
          "midi": 42,
          "name": "F#2",
          "ticks": 3504,
          "time": 12.1666545,
          "velocity": 0.7559055118110236
        },
        {
          "duration": 0.04166662499999951,
          "durationTicks": 12,
          "midi": 42,
          "name": "F#2",
          "ticks": 3516,
          "time": 12.208321125,
          "velocity": 0.7559055118110236
        },
        {
          "duration": 0.04166662500000129,
          "durationTicks": 12,
          "midi": 42,
          "name": "F#2",
          "ticks": 3528,
          "time": 12.249987749999999,
          "velocity": 0.7559055118110236
        },
        {
          "duration": 0.04166662499999951,
          "durationTicks": 12,
          "midi": 42,
          "name": "F#2",
          "ticks": 3540,
          "time": 12.291654375,
          "velocity": 0.7559055118110236
        },
        {
          "duration": 0.16666649999999983,
          "durationTicks": 48,
          "midi": 36,
          "name": "C2",
          "ticks": 3552,
          "time": 12.333321,
          "velocity": 0.9448818897637795
        },
        {
          "duration": 0.16666649999999983,
          "durationTicks": 48,
          "midi": 38,
          "name": "D2",
          "ticks": 3552,
          "time": 12.333321,
          "velocity": 0.9448818897637795
        },
        {
          "duration": 0.16666649999999983,
          "durationTicks": 48,
          "midi": 39,
          "name": "D#2",
          "ticks": 3552,
          "time": 12.333321,
          "velocity": 0.9448818897637795
        },
        {
          "duration": 0.16666649999999983,
          "durationTicks": 48,
          "midi": 42,
          "name": "F#2",
          "ticks": 3552,
          "time": 12.333321,
          "velocity": 0.9448818897637795
        },
        {
          "duration": 0.16666649999999983,
          "durationTicks": 48,
          "midi": 48,
          "name": "C3",
          "ticks": 3552,
          "time": 12.333321,
          "velocity": 1
        },
        {
          "duration": 0.16666649999999983,
          "durationTicks": 48,
          "midi": 42,
          "name": "F#2",
          "ticks": 3600,
          "time": 12.4999875,
          "velocity": 0.9448818897637795
        },
        {
          "duration": 0.16666649999999983,
          "durationTicks": 48,
          "midi": 38,
          "name": "D2",
          "ticks": 3648,
          "time": 12.666654,
          "velocity": 0.9448818897637795
        },
        {
          "duration": 0.16666649999999983,
          "durationTicks": 48,
          "midi": 39,
          "name": "D#2",
          "ticks": 3648,
          "time": 12.666654,
          "velocity": 0.9448818897637795
        },
        {
          "duration": 0.16666649999999983,
          "durationTicks": 48,
          "midi": 36,
          "name": "C2",
          "ticks": 3648,
          "time": 12.666654,
          "velocity": 0.9448818897637795
        },
        {
          "duration": 0.16666649999999983,
          "durationTicks": 48,
          "midi": 35,
          "name": "B1",
          "ticks": 3744,
          "time": 12.999986999999999,
          "velocity": 1
        },
        {
          "duration": 0.04166662500000129,
          "durationTicks": 12,
          "midi": 42,
          "name": "F#2",
          "ticks": 3744,
          "time": 12.999986999999999,
          "velocity": 0.7874015748031497
        },
        {
          "duration": 0.16666649999999983,
          "durationTicks": 48,
          "midi": 36,
          "name": "C2",
          "ticks": 3744,
          "time": 12.999986999999999,
          "velocity": 0.9448818897637795
        },
        {
          "duration": 0.04166662499999951,
          "durationTicks": 12,
          "midi": 42,
          "name": "F#2",
          "ticks": 3756,
          "time": 13.041653625,
          "velocity": 0.7874015748031497
        },
        {
          "duration": 0.04166662499999951,
          "durationTicks": 12,
          "midi": 42,
          "name": "F#2",
          "ticks": 3768,
          "time": 13.08332025,
          "velocity": 0.7874015748031497
        },
        {
          "duration": 0.04166662499999951,
          "durationTicks": 12,
          "midi": 42,
          "name": "F#2",
          "ticks": 3780,
          "time": 13.124986875,
          "velocity": 0.7874015748031497
        },
        {
          "duration": 0.08333324999999903,
          "durationTicks": 24,
          "midi": 49,
          "name": "C#3",
          "ticks": 3840,
          "time": 13.33332,
          "velocity": 0.9763779527559056
        },
        {
          "duration": 0.08333324999999903,
          "durationTicks": 24,
          "midi": 36,
          "name": "C2",
          "ticks": 3840,
          "time": 13.33332,
          "velocity": 0.9448818897637795
        },
        {
          "duration": 0.0833332500000008,
          "durationTicks": 24,
          "midi": 82,
          "name": "A#5",
          "ticks": 3864,
          "time": 13.41665325,
          "velocity": 0.9448818897637795
        },
        {
          "duration": 0.08333324999999903,
          "durationTicks": 24,
          "midi": 82,
          "name": "A#5",
          "ticks": 3888,
          "time": 13.4999865,
          "velocity": 0.9448818897637795
        },
        {
          "duration": 0.0833332500000008,
          "durationTicks": 24,
          "midi": 82,
          "name": "A#5",
          "ticks": 3912,
          "time": 13.58331975,
          "velocity": 0.9448818897637795
        },
        {
          "duration": 0.08333324999999903,
          "durationTicks": 24,
          "midi": 36,
          "name": "C2",
          "ticks": 3936,
          "time": 13.666653,
          "velocity": 0.9448818897637795
        },
        {
          "duration": 0.08333324999999903,
          "durationTicks": 24,
          "midi": 40,
          "name": "E2",
          "ticks": 3936,
          "time": 13.666653,
          "velocity": 0.9448818897637795
        },
        {
          "duration": 0.08333324999999903,
          "durationTicks": 24,
          "midi": 82,
          "name": "A#5",
          "ticks": 3936,
          "time": 13.666653,
          "velocity": 0.9448818897637795
        },
        {
          "duration": 0.0833332500000008,
          "durationTicks": 24,
          "midi": 82,
          "name": "A#5",
          "ticks": 3960,
          "time": 13.74998625,
          "velocity": 0.9448818897637795
        },
        {
          "duration": 0.08333324999999903,
          "durationTicks": 24,
          "midi": 82,
          "name": "A#5",
          "ticks": 3984,
          "time": 13.8333195,
          "velocity": 0.9448818897637795
        },
        {
          "duration": 0.0833332500000008,
          "durationTicks": 24,
          "midi": 82,
          "name": "A#5",
          "ticks": 4008,
          "time": 13.916652749999999,
          "velocity": 0.9448818897637795
        },
        {
          "duration": 0.08333324999999903,
          "durationTicks": 24,
          "midi": 82,
          "name": "A#5",
          "ticks": 4032,
          "time": 13.999986,
          "velocity": 0.9448818897637795
        },
        {
          "duration": 0.08333324999999903,
          "durationTicks": 24,
          "midi": 36,
          "name": "C2",
          "ticks": 4032,
          "time": 13.999986,
          "velocity": 0.9448818897637795
        },
        {
          "duration": 0.0833332500000008,
          "durationTicks": 24,
          "midi": 82,
          "name": "A#5",
          "ticks": 4056,
          "time": 14.083319249999999,
          "velocity": 0.9448818897637795
        },
        {
          "duration": 0.0833332500000008,
          "durationTicks": 24,
          "midi": 82,
          "name": "A#5",
          "ticks": 4080,
          "time": 14.1666525,
          "velocity": 0.9448818897637795
        },
        {
          "duration": 0.08333324999999903,
          "durationTicks": 24,
          "midi": 82,
          "name": "A#5",
          "ticks": 4104,
          "time": 14.24998575,
          "velocity": 0.9448818897637795
        },
        {
          "duration": 0.0833332500000008,
          "durationTicks": 24,
          "midi": 36,
          "name": "C2",
          "ticks": 4128,
          "time": 14.333319,
          "velocity": 0.9448818897637795
        },
        {
          "duration": 0.0833332500000008,
          "durationTicks": 24,
          "midi": 40,
          "name": "E2",
          "ticks": 4128,
          "time": 14.333319,
          "velocity": 0.9448818897637795
        },
        {
          "duration": 0.0833332500000008,
          "durationTicks": 24,
          "midi": 82,
          "name": "A#5",
          "ticks": 4128,
          "time": 14.333319,
          "velocity": 0.9448818897637795
        },
        {
          "duration": 0.08333324999999903,
          "durationTicks": 24,
          "midi": 82,
          "name": "A#5",
          "ticks": 4152,
          "time": 14.41665225,
          "velocity": 0.9448818897637795
        },
        {
          "duration": 0.0833332500000008,
          "durationTicks": 24,
          "midi": 82,
          "name": "A#5",
          "ticks": 4176,
          "time": 14.4999855,
          "velocity": 0.9448818897637795
        },
        {
          "duration": 0.08333324999999903,
          "durationTicks": 24,
          "midi": 82,
          "name": "A#5",
          "ticks": 4200,
          "time": 14.58331875,
          "velocity": 0.9448818897637795
        },
        {
          "duration": 0.0833332500000008,
          "durationTicks": 24,
          "midi": 36,
          "name": "C2",
          "ticks": 4224,
          "time": 14.666652,
          "velocity": 0.9448818897637795
        },
        {
          "duration": 0.0833332500000008,
          "durationTicks": 24,
          "midi": 82,
          "name": "A#5",
          "ticks": 4224,
          "time": 14.666652,
          "velocity": 0.9448818897637795
        },
        {
          "duration": 0.08333324999999903,
          "durationTicks": 24,
          "midi": 82,
          "name": "A#5",
          "ticks": 4248,
          "time": 14.74998525,
          "velocity": 0.9448818897637795
        },
        {
          "duration": 0.0833332500000008,
          "durationTicks": 24,
          "midi": 82,
          "name": "A#5",
          "ticks": 4272,
          "time": 14.833318499999999,
          "velocity": 0.9448818897637795
        },
        {
          "duration": 0.08333324999999903,
          "durationTicks": 24,
          "midi": 82,
          "name": "A#5",
          "ticks": 4296,
          "time": 14.91665175,
          "velocity": 0.9448818897637795
        },
        {
          "duration": 0.0833332500000008,
          "durationTicks": 24,
          "midi": 36,
          "name": "C2",
          "ticks": 4320,
          "time": 14.999984999999999,
          "velocity": 0.9448818897637795
        },
        {
          "duration": 0.0833332500000008,
          "durationTicks": 24,
          "midi": 40,
          "name": "E2",
          "ticks": 4320,
          "time": 14.999984999999999,
          "velocity": 0.9448818897637795
        },
        {
          "duration": 0.0833332500000008,
          "durationTicks": 24,
          "midi": 82,
          "name": "A#5",
          "ticks": 4320,
          "time": 14.999984999999999,
          "velocity": 0.9448818897637795
        },
        {
          "duration": 0.0833332500000008,
          "durationTicks": 24,
          "midi": 82,
          "name": "A#5",
          "ticks": 4344,
          "time": 15.08331825,
          "velocity": 0.9448818897637795
        },
        {
          "duration": 0.08333324999999903,
          "durationTicks": 24,
          "midi": 82,
          "name": "A#5",
          "ticks": 4368,
          "time": 15.1666515,
          "velocity": 0.9448818897637795
        },
        {
          "duration": 0.0833332500000008,
          "durationTicks": 24,
          "midi": 82,
          "name": "A#5",
          "ticks": 4392,
          "time": 15.24998475,
          "velocity": 0.9448818897637795
        },
        {
          "duration": 0.08333324999999903,
          "durationTicks": 24,
          "midi": 36,
          "name": "C2",
          "ticks": 4416,
          "time": 15.333318,
          "velocity": 0.9448818897637795
        },
        {
          "duration": 0.08333324999999903,
          "durationTicks": 24,
          "midi": 82,
          "name": "A#5",
          "ticks": 4416,
          "time": 15.333318,
          "velocity": 0.9448818897637795
        },
        {
          "duration": 0.0833332500000008,
          "durationTicks": 24,
          "midi": 82,
          "name": "A#5",
          "ticks": 4440,
          "time": 15.41665125,
          "velocity": 0.9448818897637795
        },
        {
          "duration": 0.08333324999999903,
          "durationTicks": 24,
          "midi": 82,
          "name": "A#5",
          "ticks": 4464,
          "time": 15.4999845,
          "velocity": 0.9448818897637795
        },
        {
          "duration": 0.0833332500000008,
          "durationTicks": 24,
          "midi": 82,
          "name": "A#5",
          "ticks": 4488,
          "time": 15.583317749999999,
          "velocity": 0.9448818897637795
        },
        {
          "duration": 0.08333324999999903,
          "durationTicks": 24,
          "midi": 36,
          "name": "C2",
          "ticks": 4512,
          "time": 15.666651,
          "velocity": 0.9448818897637795
        },
        {
          "duration": 0.08333324999999903,
          "durationTicks": 24,
          "midi": 40,
          "name": "E2",
          "ticks": 4512,
          "time": 15.666651,
          "velocity": 0.9448818897637795
        },
        {
          "duration": 0.08333324999999903,
          "durationTicks": 24,
          "midi": 82,
          "name": "A#5",
          "ticks": 4512,
          "time": 15.666651,
          "velocity": 0.9448818897637795
        },
        {
          "duration": 0.0833332500000008,
          "durationTicks": 24,
          "midi": 82,
          "name": "A#5",
          "ticks": 4536,
          "time": 15.749984249999999,
          "velocity": 0.9448818897637795
        },
        {
          "duration": 0.08333324999999903,
          "durationTicks": 24,
          "midi": 82,
          "name": "A#5",
          "ticks": 4560,
          "time": 15.8333175,
          "velocity": 0.9448818897637795
        },
        {
          "duration": 0.0833332500000008,
          "durationTicks": 24,
          "midi": 82,
          "name": "A#5",
          "ticks": 4584,
          "time": 15.916650749999999,
          "velocity": 0.9448818897637795
        },
        {
          "duration": 0.0833332500000008,
          "durationTicks": 24,
          "midi": 36,
          "name": "C2",
          "ticks": 4608,
          "time": 15.999984,
          "velocity": 0.9448818897637795
        },
        {
          "duration": 0.0833332500000008,
          "durationTicks": 24,
          "midi": 82,
          "name": "A#5",
          "ticks": 4608,
          "time": 15.999984,
          "velocity": 0.9448818897637795
        },
        {
          "duration": 0.08333324999999903,
          "durationTicks": 24,
          "midi": 82,
          "name": "A#5",
          "ticks": 4632,
          "time": 16.08331725,
          "velocity": 0.9448818897637795
        },
        {
          "duration": 0.08333324999999903,
          "durationTicks": 24,
          "midi": 82,
          "name": "A#5",
          "ticks": 4656,
          "time": 16.1666505,
          "velocity": 0.9448818897637795
        },
        {
          "duration": 0.08333325000000258,
          "durationTicks": 24,
          "midi": 82,
          "name": "A#5",
          "ticks": 4680,
          "time": 16.24998375,
          "velocity": 0.9448818897637795
        },
        {
          "duration": 0.08333324999999903,
          "durationTicks": 24,
          "midi": 40,
          "name": "E2",
          "ticks": 4704,
          "time": 16.333317,
          "velocity": 0.9448818897637795
        },
        {
          "duration": 0.08333324999999903,
          "durationTicks": 24,
          "midi": 36,
          "name": "C2",
          "ticks": 4704,
          "time": 16.333317,
          "velocity": 0.9448818897637795
        },
        {
          "duration": 0.08333324999999903,
          "durationTicks": 24,
          "midi": 82,
          "name": "A#5",
          "ticks": 4704,
          "time": 16.333317,
          "velocity": 0.9448818897637795
        },
        {
          "duration": 0.08333324999999903,
          "durationTicks": 24,
          "midi": 82,
          "name": "A#5",
          "ticks": 4728,
          "time": 16.41665025,
          "velocity": 0.9448818897637795
        },
        {
          "duration": 0.08333324999999903,
          "durationTicks": 24,
          "midi": 82,
          "name": "A#5",
          "ticks": 4752,
          "time": 16.4999835,
          "velocity": 0.9448818897637795
        },
        {
          "duration": 0.08333325000000258,
          "durationTicks": 24,
          "midi": 82,
          "name": "A#5",
          "ticks": 4776,
          "time": 16.583316749999998,
          "velocity": 0.9448818897637795
        },
        {
          "duration": 0.08333324999999903,
          "durationTicks": 24,
          "midi": 36,
          "name": "C2",
          "ticks": 4800,
          "time": 16.66665,
          "velocity": 0.9448818897637795
        },
        {
          "duration": 0.08333324999999903,
          "durationTicks": 24,
          "midi": 82,
          "name": "A#5",
          "ticks": 4800,
          "time": 16.66665,
          "velocity": 0.9448818897637795
        },
        {
          "duration": 0.08333324999999903,
          "durationTicks": 24,
          "midi": 82,
          "name": "A#5",
          "ticks": 4824,
          "time": 16.74998325,
          "velocity": 0.9448818897637795
        },
        {
          "duration": 0.08333325000000258,
          "durationTicks": 24,
          "midi": 82,
          "name": "A#5",
          "ticks": 4848,
          "time": 16.8333165,
          "velocity": 0.9448818897637795
        },
        {
          "duration": 0.08333324999999903,
          "durationTicks": 24,
          "midi": 82,
          "name": "A#5",
          "ticks": 4872,
          "time": 16.91664975,
          "velocity": 0.9448818897637795
        },
        {
          "duration": 0.08333324999999903,
          "durationTicks": 24,
          "midi": 82,
          "name": "A#5",
          "ticks": 4896,
          "time": 16.999983,
          "velocity": 0.9448818897637795
        },
        {
          "duration": 0.08333324999999903,
          "durationTicks": 24,
          "midi": 36,
          "name": "C2",
          "ticks": 4896,
          "time": 16.999983,
          "velocity": 0.9448818897637795
        },
        {
          "duration": 0.08333324999999903,
          "durationTicks": 24,
          "midi": 40,
          "name": "E2",
          "ticks": 4896,
          "time": 16.999983,
          "velocity": 0.9448818897637795
        },
        {
          "duration": 0.08333324999999903,
          "durationTicks": 24,
          "midi": 82,
          "name": "A#5",
          "ticks": 4920,
          "time": 17.08331625,
          "velocity": 0.9448818897637795
        },
        {
          "duration": 0.08333325000000258,
          "durationTicks": 24,
          "midi": 82,
          "name": "A#5",
          "ticks": 4944,
          "time": 17.1666495,
          "velocity": 0.9448818897637795
        },
        {
          "duration": 0.08333324999999903,
          "durationTicks": 24,
          "midi": 82,
          "name": "A#5",
          "ticks": 4968,
          "time": 17.24998275,
          "velocity": 0.9448818897637795
        },
        {
          "duration": 0.08333324999999903,
          "durationTicks": 24,
          "midi": 82,
          "name": "A#5",
          "ticks": 4992,
          "time": 17.333316,
          "velocity": 0.9448818897637795
        },
        {
          "duration": 0.08333324999999903,
          "durationTicks": 24,
          "midi": 36,
          "name": "C2",
          "ticks": 4992,
          "time": 17.333316,
          "velocity": 0.9448818897637795
        },
        {
          "duration": 0.08333324999999903,
          "durationTicks": 24,
          "midi": 82,
          "name": "A#5",
          "ticks": 5016,
          "time": 17.41664925,
          "velocity": 0.9448818897637795
        },
        {
          "duration": 0.08333325000000258,
          "durationTicks": 24,
          "midi": 82,
          "name": "A#5",
          "ticks": 5040,
          "time": 17.499982499999998,
          "velocity": 0.9448818897637795
        },
        {
          "duration": 0.08333324999999903,
          "durationTicks": 24,
          "midi": 82,
          "name": "A#5",
          "ticks": 5064,
          "time": 17.58331575,
          "velocity": 0.9448818897637795
        },
        {
          "duration": 0.08333324999999903,
          "durationTicks": 24,
          "midi": 82,
          "name": "A#5",
          "ticks": 5088,
          "time": 17.666649,
          "velocity": 0.9448818897637795
        },
        {
          "duration": 0.08333324999999903,
          "durationTicks": 24,
          "midi": 36,
          "name": "C2",
          "ticks": 5088,
          "time": 17.666649,
          "velocity": 0.9448818897637795
        },
        {
          "duration": 0.08333324999999903,
          "durationTicks": 24,
          "midi": 40,
          "name": "E2",
          "ticks": 5088,
          "time": 17.666649,
          "velocity": 0.9448818897637795
        },
        {
          "duration": 0.08333325000000258,
          "durationTicks": 24,
          "midi": 82,
          "name": "A#5",
          "ticks": 5112,
          "time": 17.74998225,
          "velocity": 0.9448818897637795
        },
        {
          "duration": 0.08333324999999903,
          "durationTicks": 24,
          "midi": 82,
          "name": "A#5",
          "ticks": 5136,
          "time": 17.8333155,
          "velocity": 0.9448818897637795
        },
        {
          "duration": 0.08333324999999903,
          "durationTicks": 24,
          "midi": 82,
          "name": "A#5",
          "ticks": 5160,
          "time": 17.91664875,
          "velocity": 0.9448818897637795
        },
        {
          "duration": 0.08333324999999903,
          "durationTicks": 24,
          "midi": 82,
          "name": "A#5",
          "ticks": 5184,
          "time": 17.999982,
          "velocity": 0.9448818897637795
        },
        {
          "duration": 0.08333324999999903,
          "durationTicks": 24,
          "midi": 36,
          "name": "C2",
          "ticks": 5184,
          "time": 17.999982,
          "velocity": 0.9448818897637795
        },
        {
          "duration": 0.08333325000000258,
          "durationTicks": 24,
          "midi": 82,
          "name": "A#5",
          "ticks": 5208,
          "time": 18.08331525,
          "velocity": 0.9448818897637795
        },
        {
          "duration": 0.08333324999999903,
          "durationTicks": 24,
          "midi": 82,
          "name": "A#5",
          "ticks": 5232,
          "time": 18.1666485,
          "velocity": 0.9448818897637795
        },
        {
          "duration": 0.08333324999999903,
          "durationTicks": 24,
          "midi": 82,
          "name": "A#5",
          "ticks": 5256,
          "time": 18.24998175,
          "velocity": 0.9448818897637795
        },
        {
          "duration": 0.08333324999999903,
          "durationTicks": 24,
          "midi": 36,
          "name": "C2",
          "ticks": 5280,
          "time": 18.333315,
          "velocity": 0.9448818897637795
        },
        {
          "duration": 0.08333324999999903,
          "durationTicks": 24,
          "midi": 40,
          "name": "E2",
          "ticks": 5280,
          "time": 18.333315,
          "velocity": 0.9448818897637795
        },
        {
          "duration": 0.08333324999999903,
          "durationTicks": 24,
          "midi": 82,
          "name": "A#5",
          "ticks": 5280,
          "time": 18.333315,
          "velocity": 0.9448818897637795
        },
        {
          "duration": 0.08333325000000258,
          "durationTicks": 24,
          "midi": 82,
          "name": "A#5",
          "ticks": 5304,
          "time": 18.416648249999998,
          "velocity": 0.9448818897637795
        },
        {
          "duration": 0.08333324999999903,
          "durationTicks": 24,
          "midi": 82,
          "name": "A#5",
          "ticks": 5328,
          "time": 18.4999815,
          "velocity": 0.9448818897637795
        },
        {
          "duration": 0.08333324999999903,
          "durationTicks": 24,
          "midi": 82,
          "name": "A#5",
          "ticks": 5352,
          "time": 18.58331475,
          "velocity": 0.9448818897637795
        },
        {
          "duration": 0.08333325000000258,
          "durationTicks": 24,
          "midi": 36,
          "name": "C2",
          "ticks": 5376,
          "time": 18.666648,
          "velocity": 0.9448818897637795
        },
        {
          "duration": 0.08333325000000258,
          "durationTicks": 24,
          "midi": 82,
          "name": "A#5",
          "ticks": 5376,
          "time": 18.666648,
          "velocity": 0.9448818897637795
        },
        {
          "duration": 0.08333324999999903,
          "durationTicks": 24,
          "midi": 82,
          "name": "A#5",
          "ticks": 5400,
          "time": 18.74998125,
          "velocity": 0.9448818897637795
        },
        {
          "duration": 0.08333324999999903,
          "durationTicks": 24,
          "midi": 82,
          "name": "A#5",
          "ticks": 5424,
          "time": 18.8333145,
          "velocity": 0.9448818897637795
        },
        {
          "duration": 0.08333324999999903,
          "durationTicks": 24,
          "midi": 82,
          "name": "A#5",
          "ticks": 5448,
          "time": 18.91664775,
          "velocity": 0.9448818897637795
        },
        {
          "duration": 0.08333325000000258,
          "durationTicks": 24,
          "midi": 82,
          "name": "A#5",
          "ticks": 5472,
          "time": 18.999981,
          "velocity": 0.9448818897637795
        },
        {
          "duration": 0.08333325000000258,
          "durationTicks": 24,
          "midi": 40,
          "name": "E2",
          "ticks": 5472,
          "time": 18.999981,
          "velocity": 0.9448818897637795
        },
        {
          "duration": 0.08333325000000258,
          "durationTicks": 24,
          "midi": 36,
          "name": "C2",
          "ticks": 5472,
          "time": 18.999981,
          "velocity": 0.9448818897637795
        },
        {
          "duration": 0.08333324999999903,
          "durationTicks": 24,
          "midi": 82,
          "name": "A#5",
          "ticks": 5496,
          "time": 19.08331425,
          "velocity": 0.9448818897637795
        },
        {
          "duration": 0.08333324999999903,
          "durationTicks": 24,
          "midi": 82,
          "name": "A#5",
          "ticks": 5520,
          "time": 19.1666475,
          "velocity": 0.9448818897637795
        },
        {
          "duration": 0.08333324999999903,
          "durationTicks": 24,
          "midi": 82,
          "name": "A#5",
          "ticks": 5544,
          "time": 19.24998075,
          "velocity": 0.9448818897637795
        },
        {
          "duration": 0.08333325000000258,
          "durationTicks": 24,
          "midi": 36,
          "name": "C2",
          "ticks": 5568,
          "time": 19.333313999999998,
          "velocity": 0.9448818897637795
        },
        {
          "duration": 0.08333325000000258,
          "durationTicks": 24,
          "midi": 82,
          "name": "A#5",
          "ticks": 5568,
          "time": 19.333313999999998,
          "velocity": 0.9448818897637795
        },
        {
          "duration": 0.08333324999999903,
          "durationTicks": 24,
          "midi": 82,
          "name": "A#5",
          "ticks": 5592,
          "time": 19.41664725,
          "velocity": 0.9448818897637795
        },
        {
          "duration": 0.08333324999999903,
          "durationTicks": 24,
          "midi": 82,
          "name": "A#5",
          "ticks": 5616,
          "time": 19.4999805,
          "velocity": 0.9448818897637795
        },
        {
          "duration": 0.08333325000000258,
          "durationTicks": 24,
          "midi": 82,
          "name": "A#5",
          "ticks": 5640,
          "time": 19.58331375,
          "velocity": 0.9448818897637795
        },
        {
          "duration": 0.08333324999999903,
          "durationTicks": 24,
          "midi": 82,
          "name": "A#5",
          "ticks": 5664,
          "time": 19.666647,
          "velocity": 0.9448818897637795
        },
        {
          "duration": 0.08333324999999903,
          "durationTicks": 24,
          "midi": 36,
          "name": "C2",
          "ticks": 5664,
          "time": 19.666647,
          "velocity": 0.9448818897637795
        },
        {
          "duration": 0.08333324999999903,
          "durationTicks": 24,
          "midi": 40,
          "name": "E2",
          "ticks": 5664,
          "time": 19.666647,
          "velocity": 0.9448818897637795
        },
        {
          "duration": 0.08333324999999903,
          "durationTicks": 24,
          "midi": 82,
          "name": "A#5",
          "ticks": 5688,
          "time": 19.74998025,
          "velocity": 0.9448818897637795
        },
        {
          "duration": 0.08333324999999903,
          "durationTicks": 24,
          "midi": 82,
          "name": "A#5",
          "ticks": 5712,
          "time": 19.8333135,
          "velocity": 0.9448818897637795
        },
        {
          "duration": 0.08333325000000258,
          "durationTicks": 24,
          "midi": 82,
          "name": "A#5",
          "ticks": 5736,
          "time": 19.916646749999998,
          "velocity": 0.9448818897637795
        },
        {
          "duration": 0.08333324999999903,
          "durationTicks": 24,
          "midi": 82,
          "name": "A#5",
          "ticks": 5760,
          "time": 19.99998,
          "velocity": 0.9448818897637795
        },
        {
          "duration": 0.08333324999999903,
          "durationTicks": 24,
          "midi": 36,
          "name": "C2",
          "ticks": 5760,
          "time": 19.99998,
          "velocity": 0.9448818897637795
        },
        {
          "duration": 0.08333324999999903,
          "durationTicks": 24,
          "midi": 82,
          "name": "A#5",
          "ticks": 5784,
          "time": 20.08331325,
          "velocity": 0.9448818897637795
        },
        {
          "duration": 0.08333324999999903,
          "durationTicks": 24,
          "midi": 82,
          "name": "A#5",
          "ticks": 5808,
          "time": 20.1666465,
          "velocity": 0.9448818897637795
        },
        {
          "duration": 0.08333325000000258,
          "durationTicks": 24,
          "midi": 82,
          "name": "A#5",
          "ticks": 5832,
          "time": 20.249979749999998,
          "velocity": 0.9448818897637795
        },
        {
          "duration": 0.08333324999999903,
          "durationTicks": 24,
          "midi": 82,
          "name": "A#5",
          "ticks": 5856,
          "time": 20.333313,
          "velocity": 0.9448818897637795
        },
        {
          "duration": 0.08333324999999903,
          "durationTicks": 24,
          "midi": 40,
          "name": "E2",
          "ticks": 5856,
          "time": 20.333313,
          "velocity": 0.9448818897637795
        },
        {
          "duration": 0.08333324999999903,
          "durationTicks": 24,
          "midi": 36,
          "name": "C2",
          "ticks": 5856,
          "time": 20.333313,
          "velocity": 0.9448818897637795
        },
        {
          "duration": 0.08333324999999903,
          "durationTicks": 24,
          "midi": 82,
          "name": "A#5",
          "ticks": 5880,
          "time": 20.41664625,
          "velocity": 0.9448818897637795
        },
        {
          "duration": 0.08333325000000258,
          "durationTicks": 24,
          "midi": 82,
          "name": "A#5",
          "ticks": 5904,
          "time": 20.4999795,
          "velocity": 0.9448818897637795
        },
        {
          "duration": 0.08333324999999903,
          "durationTicks": 24,
          "midi": 82,
          "name": "A#5",
          "ticks": 5928,
          "time": 20.58331275,
          "velocity": 0.9448818897637795
        },
        {
          "duration": 0.08333324999999903,
          "durationTicks": 24,
          "midi": 82,
          "name": "A#5",
          "ticks": 5952,
          "time": 20.666646,
          "velocity": 0.9448818897637795
        },
        {
          "duration": 0.08333324999999903,
          "durationTicks": 24,
          "midi": 36,
          "name": "C2",
          "ticks": 5952,
          "time": 20.666646,
          "velocity": 0.9448818897637795
        },
        {
          "duration": 0.08333324999999903,
          "durationTicks": 24,
          "midi": 82,
          "name": "A#5",
          "ticks": 5976,
          "time": 20.74997925,
          "velocity": 0.9448818897637795
        },
        {
          "duration": 0.08333325000000258,
          "durationTicks": 24,
          "midi": 82,
          "name": "A#5",
          "ticks": 6000,
          "time": 20.833312499999998,
          "velocity": 0.9448818897637795
        },
        {
          "duration": 0.08333324999999903,
          "durationTicks": 24,
          "midi": 82,
          "name": "A#5",
          "ticks": 6024,
          "time": 20.91664575,
          "velocity": 0.9448818897637795
        },
        {
          "duration": 0.08333324999999903,
          "durationTicks": 24,
          "midi": 82,
          "name": "A#5",
          "ticks": 6048,
          "time": 20.999979,
          "velocity": 0.9448818897637795
        },
        {
          "duration": 0.08333324999999903,
          "durationTicks": 24,
          "midi": 40,
          "name": "E2",
          "ticks": 6048,
          "time": 20.999979,
          "velocity": 0.9448818897637795
        },
        {
          "duration": 0.08333324999999903,
          "durationTicks": 24,
          "midi": 36,
          "name": "C2",
          "ticks": 6048,
          "time": 20.999979,
          "velocity": 0.9448818897637795
        },
        {
          "duration": 0.08333324999999903,
          "durationTicks": 24,
          "midi": 82,
          "name": "A#5",
          "ticks": 6072,
          "time": 21.08331225,
          "velocity": 0.9448818897637795
        },
        {
          "duration": 0.08333325000000258,
          "durationTicks": 24,
          "midi": 82,
          "name": "A#5",
          "ticks": 6096,
          "time": 21.166645499999998,
          "velocity": 0.9448818897637795
        },
        {
          "duration": 0.08333324999999903,
          "durationTicks": 24,
          "midi": 82,
          "name": "A#5",
          "ticks": 6120,
          "time": 21.24997875,
          "velocity": 0.9448818897637795
        },
        {
          "duration": 0.08333324999999903,
          "durationTicks": 24,
          "midi": 82,
          "name": "A#5",
          "ticks": 6144,
          "time": 21.333312,
          "velocity": 0.9448818897637795
        },
        {
          "duration": 0.08333324999999903,
          "durationTicks": 24,
          "midi": 36,
          "name": "C2",
          "ticks": 6144,
          "time": 21.333312,
          "velocity": 0.9448818897637795
        },
        {
          "duration": 0.08333325000000258,
          "durationTicks": 24,
          "midi": 82,
          "name": "A#5",
          "ticks": 6168,
          "time": 21.41664525,
          "velocity": 0.9448818897637795
        },
        {
          "duration": 0.08333324999999903,
          "durationTicks": 24,
          "midi": 82,
          "name": "A#5",
          "ticks": 6192,
          "time": 21.4999785,
          "velocity": 0.9448818897637795
        },
        {
          "duration": 0.08333324999999903,
          "durationTicks": 24,
          "midi": 82,
          "name": "A#5",
          "ticks": 6216,
          "time": 21.58331175,
          "velocity": 0.9448818897637795
        },
        {
          "duration": 0.08333324999999903,
          "durationTicks": 24,
          "midi": 82,
          "name": "A#5",
          "ticks": 6240,
          "time": 21.666645,
          "velocity": 0.9448818897637795
        },
        {
          "duration": 0.08333324999999903,
          "durationTicks": 24,
          "midi": 36,
          "name": "C2",
          "ticks": 6240,
          "time": 21.666645,
          "velocity": 0.9448818897637795
        },
        {
          "duration": 0.08333324999999903,
          "durationTicks": 24,
          "midi": 40,
          "name": "E2",
          "ticks": 6240,
          "time": 21.666645,
          "velocity": 0.9448818897637795
        },
        {
          "duration": 0.08333325000000258,
          "durationTicks": 24,
          "midi": 82,
          "name": "A#5",
          "ticks": 6264,
          "time": 21.749978249999998,
          "velocity": 0.9448818897637795
        },
        {
          "duration": 0.08333324999999903,
          "durationTicks": 24,
          "midi": 82,
          "name": "A#5",
          "ticks": 6288,
          "time": 21.8333115,
          "velocity": 0.9448818897637795
        },
        {
          "duration": 0.08333324999999903,
          "durationTicks": 24,
          "midi": 82,
          "name": "A#5",
          "ticks": 6312,
          "time": 21.91664475,
          "velocity": 0.9448818897637795
        },
        {
          "duration": 0.08333324999999903,
          "durationTicks": 24,
          "midi": 82,
          "name": "A#5",
          "ticks": 6336,
          "time": 21.999978,
          "velocity": 0.9448818897637795
        },
        {
          "duration": 0.08333324999999903,
          "durationTicks": 24,
          "midi": 36,
          "name": "C2",
          "ticks": 6336,
          "time": 21.999978,
          "velocity": 0.9448818897637795
        },
        {
          "duration": 0.08333325000000258,
          "durationTicks": 24,
          "midi": 82,
          "name": "A#5",
          "ticks": 6360,
          "time": 22.083311249999998,
          "velocity": 0.9448818897637795
        },
        {
          "duration": 0.08333324999999903,
          "durationTicks": 24,
          "midi": 82,
          "name": "A#5",
          "ticks": 6384,
          "time": 22.1666445,
          "velocity": 0.9448818897637795
        },
        {
          "duration": 0.08333324999999903,
          "durationTicks": 24,
          "midi": 82,
          "name": "A#5",
          "ticks": 6408,
          "time": 22.24997775,
          "velocity": 0.9448818897637795
        },
        {
          "duration": 0.08333325000000258,
          "durationTicks": 24,
          "midi": 82,
          "name": "A#5",
          "ticks": 6432,
          "time": 22.333311,
          "velocity": 0.9448818897637795
        },
        {
          "duration": 0.08333325000000258,
          "durationTicks": 24,
          "midi": 40,
          "name": "E2",
          "ticks": 6432,
          "time": 22.333311,
          "velocity": 0.9448818897637795
        },
        {
          "duration": 0.08333325000000258,
          "durationTicks": 24,
          "midi": 36,
          "name": "C2",
          "ticks": 6432,
          "time": 22.333311,
          "velocity": 0.9448818897637795
        },
        {
          "duration": 0.08333324999999903,
          "durationTicks": 24,
          "midi": 82,
          "name": "A#5",
          "ticks": 6456,
          "time": 22.41664425,
          "velocity": 0.9448818897637795
        },
        {
          "duration": 0.08333324999999903,
          "durationTicks": 24,
          "midi": 82,
          "name": "A#5",
          "ticks": 6480,
          "time": 22.4999775,
          "velocity": 0.9448818897637795
        },
        {
          "duration": 0.08333324999999903,
          "durationTicks": 24,
          "midi": 82,
          "name": "A#5",
          "ticks": 6504,
          "time": 22.58331075,
          "velocity": 0.9448818897637795
        },
        {
          "duration": 0.08333325000000258,
          "durationTicks": 24,
          "midi": 36,
          "name": "C2",
          "ticks": 6528,
          "time": 22.666643999999998,
          "velocity": 0.9448818897637795
        },
        {
          "duration": 0.08333325000000258,
          "durationTicks": 24,
          "midi": 82,
          "name": "A#5",
          "ticks": 6528,
          "time": 22.666643999999998,
          "velocity": 0.9448818897637795
        },
        {
          "duration": 0.08333324999999903,
          "durationTicks": 24,
          "midi": 82,
          "name": "A#5",
          "ticks": 6552,
          "time": 22.74997725,
          "velocity": 0.9448818897637795
        },
        {
          "duration": 0.08333324999999903,
          "durationTicks": 24,
          "midi": 82,
          "name": "A#5",
          "ticks": 6576,
          "time": 22.8333105,
          "velocity": 0.9448818897637795
        },
        {
          "duration": 0.08333324999999903,
          "durationTicks": 24,
          "midi": 82,
          "name": "A#5",
          "ticks": 6600,
          "time": 22.91664375,
          "velocity": 0.9448818897637795
        },
        {
          "duration": 0.08333325000000258,
          "durationTicks": 24,
          "midi": 82,
          "name": "A#5",
          "ticks": 6624,
          "time": 22.999976999999998,
          "velocity": 0.9448818897637795
        },
        {
          "duration": 0.08333325000000258,
          "durationTicks": 24,
          "midi": 39,
          "name": "D#2",
          "ticks": 6624,
          "time": 22.999976999999998,
          "velocity": 0.9448818897637795
        },
        {
          "duration": 0.08333325000000258,
          "durationTicks": 24,
          "midi": 36,
          "name": "C2",
          "ticks": 6624,
          "time": 22.999976999999998,
          "velocity": 0.9448818897637795
        },
        {
          "duration": 0.08333325000000258,
          "durationTicks": 24,
          "midi": 40,
          "name": "E2",
          "ticks": 6624,
          "time": 22.999976999999998,
          "velocity": 0.9448818897637795
        },
        {
          "duration": 0.08333324999999903,
          "durationTicks": 24,
          "midi": 82,
          "name": "A#5",
          "ticks": 6648,
          "time": 23.08331025,
          "velocity": 0.9448818897637795
        },
        {
          "duration": 0.08333324999999903,
          "durationTicks": 24,
          "midi": 82,
          "name": "A#5",
          "ticks": 6672,
          "time": 23.1666435,
          "velocity": 0.9448818897637795
        },
        {
          "duration": 0.08333325000000258,
          "durationTicks": 24,
          "midi": 82,
          "name": "A#5",
          "ticks": 6696,
          "time": 23.24997675,
          "velocity": 0.9448818897637795
        },
        {
          "duration": 0.08333324999999903,
          "durationTicks": 24,
          "midi": 36,
          "name": "C2",
          "ticks": 6720,
          "time": 23.33331,
          "velocity": 0.9448818897637795
        },
        {
          "duration": 0.08333324999999903,
          "durationTicks": 24,
          "midi": 82,
          "name": "A#5",
          "ticks": 6720,
          "time": 23.33331,
          "velocity": 0.9448818897637795
        },
        {
          "duration": 0.08333324999999903,
          "durationTicks": 24,
          "midi": 82,
          "name": "A#5",
          "ticks": 6744,
          "time": 23.41664325,
          "velocity": 0.9448818897637795
        },
        {
          "duration": 0.08333324999999903,
          "durationTicks": 24,
          "midi": 52,
          "name": "E3",
          "ticks": 6768,
          "time": 23.4999765,
          "velocity": 0.9763779527559056
        },
        {
          "duration": 0.08333324999999903,
          "durationTicks": 24,
          "midi": 36,
          "name": "C2",
          "ticks": 6768,
          "time": 23.4999765,
          "velocity": 0.9448818897637795
        },
        {
          "duration": 0.08333324999999903,
          "durationTicks": 24,
          "midi": 39,
          "name": "D#2",
          "ticks": 6768,
          "time": 23.4999765,
          "velocity": 0.9448818897637795
        },
        {
          "duration": 0.08333324999999903,
          "durationTicks": 24,
          "midi": 82,
          "name": "A#5",
          "ticks": 6768,
          "time": 23.4999765,
          "velocity": 0.9448818897637795
        },
        {
          "duration": 0.08333325000000258,
          "durationTicks": 24,
          "midi": 82,
          "name": "A#5",
          "ticks": 6792,
          "time": 23.583309749999998,
          "velocity": 0.9448818897637795
        },
        {
          "duration": 0.08333324999999903,
          "durationTicks": 24,
          "midi": 39,
          "name": "D#2",
          "ticks": 6816,
          "time": 23.666643,
          "velocity": 0.9448818897637795
        },
        {
          "duration": 0.08333324999999903,
          "durationTicks": 24,
          "midi": 36,
          "name": "C2",
          "ticks": 6816,
          "time": 23.666643,
          "velocity": 0.9448818897637795
        },
        {
          "duration": 0.08333324999999903,
          "durationTicks": 24,
          "midi": 52,
          "name": "E3",
          "ticks": 6816,
          "time": 23.666643,
          "velocity": 0.9763779527559056
        },
        {
          "duration": 0.08333324999999903,
          "durationTicks": 24,
          "midi": 82,
          "name": "A#5",
          "ticks": 6816,
          "time": 23.666643,
          "velocity": 0.9448818897637795
        },
        {
          "duration": 0.08333324999999903,
          "durationTicks": 24,
          "midi": 82,
          "name": "A#5",
          "ticks": 6840,
          "time": 23.74997625,
          "velocity": 0.9448818897637795
        },
        {
          "duration": 0.08333324999999903,
          "durationTicks": 24,
          "midi": 82,
          "name": "A#5",
          "ticks": 6864,
          "time": 23.8333095,
          "velocity": 0.9448818897637795
        },
        {
          "duration": 0.08333325000000258,
          "durationTicks": 24,
          "midi": 82,
          "name": "A#5",
          "ticks": 6888,
          "time": 23.916642749999998,
          "velocity": 0.9448818897637795
        },
        {
          "duration": 0.08333324999999903,
          "durationTicks": 24,
          "midi": 82,
          "name": "A#5",
          "ticks": 6912,
          "time": 23.999976,
          "velocity": 0.9448818897637795
        },
        {
          "duration": 0.08333324999999903,
          "durationTicks": 24,
          "midi": 36,
          "name": "C2",
          "ticks": 6912,
          "time": 23.999976,
          "velocity": 0.9448818897637795
        },
        {
          "duration": 0.08333324999999903,
          "durationTicks": 24,
          "midi": 82,
          "name": "A#5",
          "ticks": 6936,
          "time": 24.08330925,
          "velocity": 0.9448818897637795
        },
        {
          "duration": 0.08333325000000258,
          "durationTicks": 24,
          "midi": 82,
          "name": "A#5",
          "ticks": 6960,
          "time": 24.1666425,
          "velocity": 0.9448818897637795
        },
        {
          "duration": 0.08333324999999903,
          "durationTicks": 24,
          "midi": 82,
          "name": "A#5",
          "ticks": 6984,
          "time": 24.24997575,
          "velocity": 0.9448818897637795
        },
        {
          "duration": 0.08333324999999903,
          "durationTicks": 24,
          "midi": 36,
          "name": "C2",
          "ticks": 7008,
          "time": 24.333309,
          "velocity": 0.9448818897637795
        },
        {
          "duration": 0.08333324999999903,
          "durationTicks": 24,
          "midi": 40,
          "name": "E2",
          "ticks": 7008,
          "time": 24.333309,
          "velocity": 0.9448818897637795
        },
        {
          "duration": 0.08333324999999903,
          "durationTicks": 24,
          "midi": 82,
          "name": "A#5",
          "ticks": 7008,
          "time": 24.333309,
          "velocity": 0.9448818897637795
        },
        {
          "duration": 0.08333324999999903,
          "durationTicks": 24,
          "midi": 82,
          "name": "A#5",
          "ticks": 7032,
          "time": 24.41664225,
          "velocity": 0.9448818897637795
        },
        {
          "duration": 0.08333325000000258,
          "durationTicks": 24,
          "midi": 82,
          "name": "A#5",
          "ticks": 7056,
          "time": 24.499975499999998,
          "velocity": 0.9448818897637795
        },
        {
          "duration": 0.08333324999999903,
          "durationTicks": 24,
          "midi": 82,
          "name": "A#5",
          "ticks": 7080,
          "time": 24.58330875,
          "velocity": 0.9448818897637795
        },
        {
          "duration": 0.08333324999999903,
          "durationTicks": 24,
          "midi": 82,
          "name": "A#5",
          "ticks": 7104,
          "time": 24.666642,
          "velocity": 0.9448818897637795
        },
        {
          "duration": 0.08333324999999903,
          "durationTicks": 24,
          "midi": 36,
          "name": "C2",
          "ticks": 7104,
          "time": 24.666642,
          "velocity": 0.9448818897637795
        },
        {
          "duration": 0.08333324999999903,
          "durationTicks": 24,
          "midi": 82,
          "name": "A#5",
          "ticks": 7128,
          "time": 24.74997525,
          "velocity": 0.9448818897637795
        },
        {
          "duration": 0.08333325000000258,
          "durationTicks": 24,
          "midi": 82,
          "name": "A#5",
          "ticks": 7152,
          "time": 24.833308499999998,
          "velocity": 0.9448818897637795
        },
        {
          "duration": 0.08333324999999903,
          "durationTicks": 24,
          "midi": 82,
          "name": "A#5",
          "ticks": 7176,
          "time": 24.91664175,
          "velocity": 0.9448818897637795
        },
        {
          "duration": 0.08333324999999903,
          "durationTicks": 24,
          "midi": 82,
          "name": "A#5",
          "ticks": 7200,
          "time": 24.999975,
          "velocity": 0.9448818897637795
        },
        {
          "duration": 0.08333324999999903,
          "durationTicks": 24,
          "midi": 36,
          "name": "C2",
          "ticks": 7200,
          "time": 24.999975,
          "velocity": 0.9448818897637795
        },
        {
          "duration": 0.08333324999999903,
          "durationTicks": 24,
          "midi": 40,
          "name": "E2",
          "ticks": 7200,
          "time": 24.999975,
          "velocity": 0.9448818897637795
        },
        {
          "duration": 0.08333325000000258,
          "durationTicks": 24,
          "midi": 82,
          "name": "A#5",
          "ticks": 7224,
          "time": 25.083308249999998,
          "velocity": 0.9448818897637795
        },
        {
          "duration": 0.08333324999999903,
          "durationTicks": 24,
          "midi": 82,
          "name": "A#5",
          "ticks": 7248,
          "time": 25.1666415,
          "velocity": 0.9448818897637795
        },
        {
          "duration": 0.08333324999999903,
          "durationTicks": 24,
          "midi": 82,
          "name": "A#5",
          "ticks": 7272,
          "time": 25.24997475,
          "velocity": 0.9448818897637795
        },
        {
          "duration": 0.08333324999999903,
          "durationTicks": 24,
          "midi": 36,
          "name": "C2",
          "ticks": 7296,
          "time": 25.333308,
          "velocity": 0.9448818897637795
        },
        {
          "duration": 0.08333324999999903,
          "durationTicks": 24,
          "midi": 82,
          "name": "A#5",
          "ticks": 7296,
          "time": 25.333308,
          "velocity": 0.9448818897637795
        },
        {
          "duration": 0.08333325000000258,
          "durationTicks": 24,
          "midi": 82,
          "name": "A#5",
          "ticks": 7320,
          "time": 25.416641249999998,
          "velocity": 0.9448818897637795
        },
        {
          "duration": 0.08333324999999903,
          "durationTicks": 24,
          "midi": 82,
          "name": "A#5",
          "ticks": 7344,
          "time": 25.4999745,
          "velocity": 0.9448818897637795
        },
        {
          "duration": 0.08333324999999903,
          "durationTicks": 24,
          "midi": 82,
          "name": "A#5",
          "ticks": 7368,
          "time": 25.58330775,
          "velocity": 0.9448818897637795
        },
        {
          "duration": 0.08333324999999903,
          "durationTicks": 24,
          "midi": 36,
          "name": "C2",
          "ticks": 7392,
          "time": 25.666641,
          "velocity": 0.9448818897637795
        },
        {
          "duration": 0.08333324999999903,
          "durationTicks": 24,
          "midi": 40,
          "name": "E2",
          "ticks": 7392,
          "time": 25.666641,
          "velocity": 0.9448818897637795
        },
        {
          "duration": 0.08333324999999903,
          "durationTicks": 24,
          "midi": 82,
          "name": "A#5",
          "ticks": 7392,
          "time": 25.666641,
          "velocity": 0.9448818897637795
        },
        {
          "duration": 0.08333325000000258,
          "durationTicks": 24,
          "midi": 82,
          "name": "A#5",
          "ticks": 7416,
          "time": 25.749974249999998,
          "velocity": 0.9448818897637795
        },
        {
          "duration": 0.08333324999999903,
          "durationTicks": 24,
          "midi": 82,
          "name": "A#5",
          "ticks": 7440,
          "time": 25.8333075,
          "velocity": 0.9448818897637795
        },
        {
          "duration": 0.08333324999999903,
          "durationTicks": 24,
          "midi": 82,
          "name": "A#5",
          "ticks": 7464,
          "time": 25.91664075,
          "velocity": 0.9448818897637795
        },
        {
          "duration": 0.08333325000000258,
          "durationTicks": 24,
          "midi": 36,
          "name": "C2",
          "ticks": 7488,
          "time": 25.999973999999998,
          "velocity": 0.9448818897637795
        },
        {
          "duration": 0.08333325000000258,
          "durationTicks": 24,
          "midi": 82,
          "name": "A#5",
          "ticks": 7488,
          "time": 25.999973999999998,
          "velocity": 0.9448818897637795
        },
        {
          "duration": 0.08333324999999903,
          "durationTicks": 24,
          "midi": 82,
          "name": "A#5",
          "ticks": 7512,
          "time": 26.08330725,
          "velocity": 0.9448818897637795
        },
        {
          "duration": 0.08333324999999903,
          "durationTicks": 24,
          "midi": 82,
          "name": "A#5",
          "ticks": 7536,
          "time": 26.1666405,
          "velocity": 0.9448818897637795
        },
        {
          "duration": 0.08333324999999903,
          "durationTicks": 24,
          "midi": 82,
          "name": "A#5",
          "ticks": 7560,
          "time": 26.24997375,
          "velocity": 0.9448818897637795
        },
        {
          "duration": 0.08333325000000258,
          "durationTicks": 24,
          "midi": 82,
          "name": "A#5",
          "ticks": 7584,
          "time": 26.333306999999998,
          "velocity": 0.9448818897637795
        },
        {
          "duration": 0.08333325000000258,
          "durationTicks": 24,
          "midi": 40,
          "name": "E2",
          "ticks": 7584,
          "time": 26.333306999999998,
          "velocity": 0.9448818897637795
        },
        {
          "duration": 0.08333325000000258,
          "durationTicks": 24,
          "midi": 36,
          "name": "C2",
          "ticks": 7584,
          "time": 26.333306999999998,
          "velocity": 0.9448818897637795
        },
        {
          "duration": 0.08333324999999903,
          "durationTicks": 24,
          "midi": 82,
          "name": "A#5",
          "ticks": 7608,
          "time": 26.41664025,
          "velocity": 0.9448818897637795
        },
        {
          "duration": 0.08333324999999903,
          "durationTicks": 24,
          "midi": 82,
          "name": "A#5",
          "ticks": 7632,
          "time": 26.4999735,
          "velocity": 0.9448818897637795
        },
        {
          "duration": 0.08333325000000258,
          "durationTicks": 24,
          "midi": 82,
          "name": "A#5",
          "ticks": 7656,
          "time": 26.58330675,
          "velocity": 0.9448818897637795
        },
        {
          "duration": 0.08333324999999903,
          "durationTicks": 24,
          "midi": 36,
          "name": "C2",
          "ticks": 7680,
          "time": 26.66664,
          "velocity": 0.9448818897637795
        },
        {
          "duration": 0.08333324999999903,
          "durationTicks": 24,
          "midi": 82,
          "name": "A#5",
          "ticks": 7680,
          "time": 26.66664,
          "velocity": 0.9448818897637795
        },
        {
          "duration": 0.08333324999999903,
          "durationTicks": 24,
          "midi": 82,
          "name": "A#5",
          "ticks": 7704,
          "time": 26.74997325,
          "velocity": 0.9448818897637795
        },
        {
          "duration": 0.08333324999999903,
          "durationTicks": 24,
          "midi": 82,
          "name": "A#5",
          "ticks": 7728,
          "time": 26.8333065,
          "velocity": 0.9448818897637795
        },
        {
          "duration": 0.08333325000000258,
          "durationTicks": 24,
          "midi": 82,
          "name": "A#5",
          "ticks": 7752,
          "time": 26.916639749999998,
          "velocity": 0.9448818897637795
        },
        {
          "duration": 0.08333324999999903,
          "durationTicks": 24,
          "midi": 40,
          "name": "E2",
          "ticks": 7776,
          "time": 26.999973,
          "velocity": 0.9448818897637795
        },
        {
          "duration": 0.08333324999999903,
          "durationTicks": 24,
          "midi": 36,
          "name": "C2",
          "ticks": 7776,
          "time": 26.999973,
          "velocity": 0.9448818897637795
        },
        {
          "duration": 0.08333324999999903,
          "durationTicks": 24,
          "midi": 82,
          "name": "A#5",
          "ticks": 7776,
          "time": 26.999973,
          "velocity": 0.9448818897637795
        },
        {
          "duration": 0.08333324999999903,
          "durationTicks": 24,
          "midi": 82,
          "name": "A#5",
          "ticks": 7800,
          "time": 27.08330625,
          "velocity": 0.9448818897637795
        },
        {
          "duration": 0.08333324999999903,
          "durationTicks": 24,
          "midi": 82,
          "name": "A#5",
          "ticks": 7824,
          "time": 27.1666395,
          "velocity": 0.9448818897637795
        },
        {
          "duration": 0.08333325000000258,
          "durationTicks": 24,
          "midi": 82,
          "name": "A#5",
          "ticks": 7848,
          "time": 27.249972749999998,
          "velocity": 0.9448818897637795
        },
        {
          "duration": 0.08333324999999903,
          "durationTicks": 24,
          "midi": 36,
          "name": "C2",
          "ticks": 7872,
          "time": 27.333306,
          "velocity": 0.9448818897637795
        },
        {
          "duration": 0.08333324999999903,
          "durationTicks": 24,
          "midi": 82,
          "name": "A#5",
          "ticks": 7872,
          "time": 27.333306,
          "velocity": 0.9448818897637795
        },
        {
          "duration": 0.08333324999999903,
          "durationTicks": 24,
          "midi": 82,
          "name": "A#5",
          "ticks": 7896,
          "time": 27.41663925,
          "velocity": 0.9448818897637795
        },
        {
          "duration": 0.08333325000000258,
          "durationTicks": 24,
          "midi": 82,
          "name": "A#5",
          "ticks": 7920,
          "time": 27.4999725,
          "velocity": 0.9448818897637795
        },
        {
          "duration": 0.08333324999999903,
          "durationTicks": 24,
          "midi": 82,
          "name": "A#5",
          "ticks": 7944,
          "time": 27.58330575,
          "velocity": 0.9448818897637795
        },
        {
          "duration": 0.08333324999999903,
          "durationTicks": 24,
          "midi": 82,
          "name": "A#5",
          "ticks": 7968,
          "time": 27.666639,
          "velocity": 0.9448818897637795
        },
        {
          "duration": 0.08333324999999903,
          "durationTicks": 24,
          "midi": 36,
          "name": "C2",
          "ticks": 7968,
          "time": 27.666639,
          "velocity": 0.9448818897637795
        },
        {
          "duration": 0.08333324999999903,
          "durationTicks": 24,
          "midi": 40,
          "name": "E2",
          "ticks": 7968,
          "time": 27.666639,
          "velocity": 0.9448818897637795
        },
        {
          "duration": 0.08333324999999903,
          "durationTicks": 24,
          "midi": 82,
          "name": "A#5",
          "ticks": 7992,
          "time": 27.74997225,
          "velocity": 0.9448818897637795
        },
        {
          "duration": 0.08333325000000258,
          "durationTicks": 24,
          "midi": 82,
          "name": "A#5",
          "ticks": 8016,
          "time": 27.833305499999998,
          "velocity": 0.9448818897637795
        },
        {
          "duration": 0.08333324999999903,
          "durationTicks": 24,
          "midi": 82,
          "name": "A#5",
          "ticks": 8040,
          "time": 27.91663875,
          "velocity": 0.9448818897637795
        },
        {
          "duration": 0.08333324999999903,
          "durationTicks": 24,
          "midi": 36,
          "name": "C2",
          "ticks": 8064,
          "time": 27.999972,
          "velocity": 0.9448818897637795
        },
        {
          "duration": 0.08333324999999903,
          "durationTicks": 24,
          "midi": 82,
          "name": "A#5",
          "ticks": 8064,
          "time": 27.999972,
          "velocity": 0.9448818897637795
        },
        {
          "duration": 0.08333324999999903,
          "durationTicks": 24,
          "midi": 82,
          "name": "A#5",
          "ticks": 8088,
          "time": 28.08330525,
          "velocity": 0.9448818897637795
        },
        {
          "duration": 0.08333325000000258,
          "durationTicks": 24,
          "midi": 82,
          "name": "A#5",
          "ticks": 8112,
          "time": 28.166638499999998,
          "velocity": 0.9448818897637795
        },
        {
          "duration": 0.08333324999999903,
          "durationTicks": 24,
          "midi": 82,
          "name": "A#5",
          "ticks": 8136,
          "time": 28.24997175,
          "velocity": 0.9448818897637795
        },
        {
          "duration": 0.08333324999999903,
          "durationTicks": 24,
          "midi": 82,
          "name": "A#5",
          "ticks": 8160,
          "time": 28.333305,
          "velocity": 0.9448818897637795
        },
        {
          "duration": 0.08333324999999903,
          "durationTicks": 24,
          "midi": 40,
          "name": "E2",
          "ticks": 8160,
          "time": 28.333305,
          "velocity": 0.9448818897637795
        },
        {
          "duration": 0.08333324999999903,
          "durationTicks": 24,
          "midi": 36,
          "name": "C2",
          "ticks": 8160,
          "time": 28.333305,
          "velocity": 0.9448818897637795
        },
        {
          "duration": 0.08333325000000258,
          "durationTicks": 24,
          "midi": 82,
          "name": "A#5",
          "ticks": 8184,
          "time": 28.41663825,
          "velocity": 0.9448818897637795
        },
        {
          "duration": 0.08333324999999903,
          "durationTicks": 24,
          "midi": 82,
          "name": "A#5",
          "ticks": 8208,
          "time": 28.4999715,
          "velocity": 0.9448818897637795
        },
        {
          "duration": 0.08333324999999903,
          "durationTicks": 24,
          "midi": 82,
          "name": "A#5",
          "ticks": 8232,
          "time": 28.58330475,
          "velocity": 0.9448818897637795
        },
        {
          "duration": 0.08333324999999903,
          "durationTicks": 24,
          "midi": 36,
          "name": "C2",
          "ticks": 8256,
          "time": 28.666638,
          "velocity": 0.9448818897637795
        },
        {
          "duration": 0.08333324999999903,
          "durationTicks": 24,
          "midi": 82,
          "name": "A#5",
          "ticks": 8256,
          "time": 28.666638,
          "velocity": 0.9448818897637795
        },
        {
          "duration": 0.08333325000000258,
          "durationTicks": 24,
          "midi": 82,
          "name": "A#5",
          "ticks": 8280,
          "time": 28.749971249999998,
          "velocity": 0.9448818897637795
        },
        {
          "duration": 0.08333324999999903,
          "durationTicks": 24,
          "midi": 82,
          "name": "A#5",
          "ticks": 8304,
          "time": 28.8333045,
          "velocity": 0.9448818897637795
        },
        {
          "duration": 0.08333324999999903,
          "durationTicks": 24,
          "midi": 82,
          "name": "A#5",
          "ticks": 8328,
          "time": 28.91663775,
          "velocity": 0.9448818897637795
        },
        {
          "duration": 0.08333324999999903,
          "durationTicks": 24,
          "midi": 36,
          "name": "C2",
          "ticks": 8352,
          "time": 28.999971,
          "velocity": 0.9448818897637795
        },
        {
          "duration": 0.08333324999999903,
          "durationTicks": 24,
          "midi": 40,
          "name": "E2",
          "ticks": 8352,
          "time": 28.999971,
          "velocity": 0.9448818897637795
        },
        {
          "duration": 0.08333324999999903,
          "durationTicks": 24,
          "midi": 82,
          "name": "A#5",
          "ticks": 8352,
          "time": 28.999971,
          "velocity": 0.9448818897637795
        },
        {
          "duration": 0.08333325000000258,
          "durationTicks": 24,
          "midi": 82,
          "name": "A#5",
          "ticks": 8376,
          "time": 29.083304249999998,
          "velocity": 0.9448818897637795
        },
        {
          "duration": 0.08333324999999903,
          "durationTicks": 24,
          "midi": 82,
          "name": "A#5",
          "ticks": 8400,
          "time": 29.1666375,
          "velocity": 0.9448818897637795
        },
        {
          "duration": 0.08333324999999903,
          "durationTicks": 24,
          "midi": 82,
          "name": "A#5",
          "ticks": 8424,
          "time": 29.24997075,
          "velocity": 0.9448818897637795
        },
        {
          "duration": 0.08333325000000258,
          "durationTicks": 24,
          "midi": 82,
          "name": "A#5",
          "ticks": 8448,
          "time": 29.333304,
          "velocity": 0.9448818897637795
        },
        {
          "duration": 0.08333325000000258,
          "durationTicks": 24,
          "midi": 36,
          "name": "C2",
          "ticks": 8448,
          "time": 29.333304,
          "velocity": 0.9448818897637795
        },
        {
          "duration": 0.08333324999999903,
          "durationTicks": 24,
          "midi": 82,
          "name": "A#5",
          "ticks": 8472,
          "time": 29.41663725,
          "velocity": 0.9448818897637795
        },
        {
          "duration": 0.08333324999999903,
          "durationTicks": 24,
          "midi": 82,
          "name": "A#5",
          "ticks": 8496,
          "time": 29.4999705,
          "velocity": 0.9448818897637795
        },
        {
          "duration": 0.08333324999999903,
          "durationTicks": 24,
          "midi": 82,
          "name": "A#5",
          "ticks": 8520,
          "time": 29.58330375,
          "velocity": 0.9448818897637795
        },
        {
          "duration": 0.08333325000000258,
          "durationTicks": 24,
          "midi": 36,
          "name": "C2",
          "ticks": 8544,
          "time": 29.666636999999998,
          "velocity": 0.9448818897637795
        },
        {
          "duration": 0.08333325000000258,
          "durationTicks": 24,
          "midi": 40,
          "name": "E2",
          "ticks": 8544,
          "time": 29.666636999999998,
          "velocity": 0.9448818897637795
        },
        {
          "duration": 0.08333325000000258,
          "durationTicks": 24,
          "midi": 82,
          "name": "A#5",
          "ticks": 8544,
          "time": 29.666636999999998,
          "velocity": 0.9448818897637795
        },
        {
          "duration": 0.08333324999999903,
          "durationTicks": 24,
          "midi": 82,
          "name": "A#5",
          "ticks": 8568,
          "time": 29.74997025,
          "velocity": 0.9448818897637795
        },
        {
          "duration": 0.08333324999999903,
          "durationTicks": 24,
          "midi": 82,
          "name": "A#5",
          "ticks": 8592,
          "time": 29.8333035,
          "velocity": 0.9448818897637795
        },
        {
          "duration": 0.08333324999999903,
          "durationTicks": 24,
          "midi": 82,
          "name": "A#5",
          "ticks": 8616,
          "time": 29.91663675,
          "velocity": 0.9448818897637795
        },
        {
          "duration": 0.08333325000000258,
          "durationTicks": 24,
          "midi": 82,
          "name": "A#5",
          "ticks": 8640,
          "time": 29.999969999999998,
          "velocity": 0.9448818897637795
        },
        {
          "duration": 0.08333325000000258,
          "durationTicks": 24,
          "midi": 36,
          "name": "C2",
          "ticks": 8640,
          "time": 29.999969999999998,
          "velocity": 0.9448818897637795
        },
        {
          "duration": 0.08333324999999903,
          "durationTicks": 24,
          "midi": 82,
          "name": "A#5",
          "ticks": 8664,
          "time": 30.08330325,
          "velocity": 0.9448818897637795
        },
        {
          "duration": 0.08333324999999903,
          "durationTicks": 24,
          "midi": 82,
          "name": "A#5",
          "ticks": 8688,
          "time": 30.1666365,
          "velocity": 0.9448818897637795
        },
        {
          "duration": 0.08333325000000258,
          "durationTicks": 24,
          "midi": 82,
          "name": "A#5",
          "ticks": 8712,
          "time": 30.249969749999998,
          "velocity": 0.9448818897637795
        },
        {
          "duration": 0.08333324999999903,
          "durationTicks": 24,
          "midi": 82,
          "name": "A#5",
          "ticks": 8736,
          "time": 30.333303,
          "velocity": 0.9448818897637795
        },
        {
          "duration": 0.08333324999999903,
          "durationTicks": 24,
          "midi": 36,
          "name": "C2",
          "ticks": 8736,
          "time": 30.333303,
          "velocity": 0.9448818897637795
        },
        {
          "duration": 0.08333324999999903,
          "durationTicks": 24,
          "midi": 40,
          "name": "E2",
          "ticks": 8736,
          "time": 30.333303,
          "velocity": 0.9448818897637795
        },
        {
          "duration": 0.08333324999999903,
          "durationTicks": 24,
          "midi": 82,
          "name": "A#5",
          "ticks": 8760,
          "time": 30.41663625,
          "velocity": 0.9448818897637795
        },
        {
          "duration": 0.08333324999999903,
          "durationTicks": 24,
          "midi": 82,
          "name": "A#5",
          "ticks": 8784,
          "time": 30.4999695,
          "velocity": 0.9448818897637795
        },
        {
          "duration": 0.08333325000000258,
          "durationTicks": 24,
          "midi": 82,
          "name": "A#5",
          "ticks": 8808,
          "time": 30.583302749999998,
          "velocity": 0.9448818897637795
        },
        {
          "duration": 0.08333324999999903,
          "durationTicks": 24,
          "midi": 36,
          "name": "C2",
          "ticks": 8832,
          "time": 30.666636,
          "velocity": 0.9448818897637795
        },
        {
          "duration": 0.08333324999999903,
          "durationTicks": 24,
          "midi": 82,
          "name": "A#5",
          "ticks": 8832,
          "time": 30.666636,
          "velocity": 0.9448818897637795
        },
        {
          "duration": 0.08333324999999903,
          "durationTicks": 24,
          "midi": 82,
          "name": "A#5",
          "ticks": 8856,
          "time": 30.74996925,
          "velocity": 0.9448818897637795
        },
        {
          "duration": 0.08333324999999903,
          "durationTicks": 24,
          "midi": 82,
          "name": "A#5",
          "ticks": 8880,
          "time": 30.8333025,
          "velocity": 0.9448818897637795
        },
        {
          "duration": 0.08333325000000258,
          "durationTicks": 24,
          "midi": 82,
          "name": "A#5",
          "ticks": 8904,
          "time": 30.916635749999998,
          "velocity": 0.9448818897637795
        },
        {
          "duration": 0.08333324999999903,
          "durationTicks": 24,
          "midi": 36,
          "name": "C2",
          "ticks": 8928,
          "time": 30.999969,
          "velocity": 0.9448818897637795
        },
        {
          "duration": 0.08333324999999903,
          "durationTicks": 24,
          "midi": 40,
          "name": "E2",
          "ticks": 8928,
          "time": 30.999969,
          "velocity": 0.9448818897637795
        },
        {
          "duration": 0.08333324999999903,
          "durationTicks": 24,
          "midi": 82,
          "name": "A#5",
          "ticks": 8928,
          "time": 30.999969,
          "velocity": 0.9448818897637795
        },
        {
          "duration": 0.08333324999999903,
          "durationTicks": 24,
          "midi": 82,
          "name": "A#5",
          "ticks": 8952,
          "time": 31.08330225,
          "velocity": 0.9448818897637795
        },
        {
          "duration": 0.08333325000000258,
          "durationTicks": 24,
          "midi": 82,
          "name": "A#5",
          "ticks": 8976,
          "time": 31.166635499999998,
          "velocity": 0.9448818897637795
        },
        {
          "duration": 0.08333324999999903,
          "durationTicks": 24,
          "midi": 82,
          "name": "A#5",
          "ticks": 9000,
          "time": 31.24996875,
          "velocity": 0.9448818897637795
        },
        {
          "duration": 0.08333324999999903,
          "durationTicks": 24,
          "midi": 36,
          "name": "C2",
          "ticks": 9024,
          "time": 31.333302,
          "velocity": 0.9448818897637795
        },
        {
          "duration": 0.08333324999999903,
          "durationTicks": 24,
          "midi": 82,
          "name": "A#5",
          "ticks": 9024,
          "time": 31.333302,
          "velocity": 0.9448818897637795
        },
        {
          "duration": 0.08333324999999903,
          "durationTicks": 24,
          "midi": 82,
          "name": "A#5",
          "ticks": 9048,
          "time": 31.41663525,
          "velocity": 0.9448818897637795
        },
        {
          "duration": 0.08333325000000258,
          "durationTicks": 24,
          "midi": 82,
          "name": "A#5",
          "ticks": 9072,
          "time": 31.499968499999998,
          "velocity": 0.9448818897637795
        },
        {
          "duration": 0.08333324999999903,
          "durationTicks": 24,
          "midi": 82,
          "name": "A#5",
          "ticks": 9096,
          "time": 31.58330175,
          "velocity": 0.9448818897637795
        },
        {
          "duration": 0.08333324999999903,
          "durationTicks": 24,
          "midi": 82,
          "name": "A#5",
          "ticks": 9120,
          "time": 31.666635,
          "velocity": 0.9448818897637795
        },
        {
          "duration": 0.08333324999999903,
          "durationTicks": 24,
          "midi": 40,
          "name": "E2",
          "ticks": 9120,
          "time": 31.666635,
          "velocity": 0.9448818897637795
        },
        {
          "duration": 0.08333324999999903,
          "durationTicks": 24,
          "midi": 36,
          "name": "C2",
          "ticks": 9120,
          "time": 31.666635,
          "velocity": 0.9448818897637795
        },
        {
          "duration": 0.08333324999999903,
          "durationTicks": 24,
          "midi": 82,
          "name": "A#5",
          "ticks": 9144,
          "time": 31.74996825,
          "velocity": 0.9448818897637795
        },
        {
          "duration": 0.08333325000000258,
          "durationTicks": 24,
          "midi": 82,
          "name": "A#5",
          "ticks": 9168,
          "time": 31.833301499999997,
          "velocity": 0.9448818897637795
        },
        {
          "duration": 0.08333324999999903,
          "durationTicks": 24,
          "midi": 82,
          "name": "A#5",
          "ticks": 9192,
          "time": 31.91663475,
          "velocity": 0.9448818897637795
        },
        {
          "duration": 0.08333324999999903,
          "durationTicks": 24,
          "midi": 36,
          "name": "C2",
          "ticks": 9216,
          "time": 31.999968,
          "velocity": 0.9448818897637795
        },
        {
          "duration": 0.08333324999999903,
          "durationTicks": 24,
          "midi": 82,
          "name": "A#5",
          "ticks": 9216,
          "time": 31.999968,
          "velocity": 0.9448818897637795
        },
        {
          "duration": 0.08333325000000258,
          "durationTicks": 24,
          "midi": 82,
          "name": "A#5",
          "ticks": 9240,
          "time": 32.08330125,
          "velocity": 0.9448818897637795
        },
        {
          "duration": 0.08333324999999547,
          "durationTicks": 24,
          "midi": 82,
          "name": "A#5",
          "ticks": 9264,
          "time": 32.1666345,
          "velocity": 0.9448818897637795
        },
        {
          "duration": 0.08333325000000258,
          "durationTicks": 24,
          "midi": 82,
          "name": "A#5",
          "ticks": 9288,
          "time": 32.249967749999996,
          "velocity": 0.9448818897637795
        },
        {
          "duration": 0.08333325000000258,
          "durationTicks": 24,
          "midi": 40,
          "name": "E2",
          "ticks": 9312,
          "time": 32.333301,
          "velocity": 0.9448818897637795
        },
        {
          "duration": 0.08333325000000258,
          "durationTicks": 24,
          "midi": 36,
          "name": "C2",
          "ticks": 9312,
          "time": 32.333301,
          "velocity": 0.9448818897637795
        },
        {
          "duration": 0.08333325000000258,
          "durationTicks": 24,
          "midi": 82,
          "name": "A#5",
          "ticks": 9312,
          "time": 32.333301,
          "velocity": 0.9448818897637795
        },
        {
          "duration": 0.08333324999999547,
          "durationTicks": 24,
          "midi": 82,
          "name": "A#5",
          "ticks": 9336,
          "time": 32.41663425,
          "velocity": 0.9448818897637795
        },
        {
          "duration": 0.08333325000000258,
          "durationTicks": 24,
          "midi": 82,
          "name": "A#5",
          "ticks": 9360,
          "time": 32.4999675,
          "velocity": 0.9448818897637795
        },
        {
          "duration": 0.08333325000000258,
          "durationTicks": 24,
          "midi": 82,
          "name": "A#5",
          "ticks": 9384,
          "time": 32.58330075,
          "velocity": 0.9448818897637795
        },
        {
          "duration": 0.08333324999999547,
          "durationTicks": 24,
          "midi": 36,
          "name": "C2",
          "ticks": 9408,
          "time": 32.666634,
          "velocity": 0.9448818897637795
        },
        {
          "duration": 0.08333324999999547,
          "durationTicks": 24,
          "midi": 82,
          "name": "A#5",
          "ticks": 9408,
          "time": 32.666634,
          "velocity": 0.9448818897637795
        },
        {
          "duration": 0.08333325000000258,
          "durationTicks": 24,
          "midi": 82,
          "name": "A#5",
          "ticks": 9432,
          "time": 32.74996725,
          "velocity": 0.9448818897637795
        },
        {
          "duration": 0.08333325000000258,
          "durationTicks": 24,
          "midi": 82,
          "name": "A#5",
          "ticks": 9456,
          "time": 32.8333005,
          "velocity": 0.9448818897637795
        },
        {
          "duration": 0.08333324999999547,
          "durationTicks": 24,
          "midi": 82,
          "name": "A#5",
          "ticks": 9480,
          "time": 32.91663375,
          "velocity": 0.9448818897637795
        },
        {
          "duration": 0.08333325000000258,
          "durationTicks": 24,
          "midi": 82,
          "name": "A#5",
          "ticks": 9504,
          "time": 32.999967,
          "velocity": 0.9448818897637795
        },
        {
          "duration": 0.08333325000000258,
          "durationTicks": 24,
          "midi": 36,
          "name": "C2",
          "ticks": 9504,
          "time": 32.999967,
          "velocity": 0.9448818897637795
        },
        {
          "duration": 0.08333325000000258,
          "durationTicks": 24,
          "midi": 40,
          "name": "E2",
          "ticks": 9504,
          "time": 32.999967,
          "velocity": 0.9448818897637795
        },
        {
          "duration": 0.08333324999999547,
          "durationTicks": 24,
          "midi": 82,
          "name": "A#5",
          "ticks": 9528,
          "time": 33.08330025,
          "velocity": 0.9448818897637795
        },
        {
          "duration": 0.08333325000000258,
          "durationTicks": 24,
          "midi": 82,
          "name": "A#5",
          "ticks": 9552,
          "time": 33.166633499999996,
          "velocity": 0.9448818897637795
        },
        {
          "duration": 0.08333325000000258,
          "durationTicks": 24,
          "midi": 82,
          "name": "A#5",
          "ticks": 9576,
          "time": 33.24996675,
          "velocity": 0.9448818897637795
        },
        {
          "duration": 0.08333324999999547,
          "durationTicks": 24,
          "midi": 82,
          "name": "A#5",
          "ticks": 9600,
          "time": 33.3333,
          "velocity": 0.9448818897637795
        },
        {
          "duration": 0.08333324999999547,
          "durationTicks": 24,
          "midi": 36,
          "name": "C2",
          "ticks": 9600,
          "time": 33.3333,
          "velocity": 0.9448818897637795
        },
        {
          "duration": 0.08333325000000258,
          "durationTicks": 24,
          "midi": 82,
          "name": "A#5",
          "ticks": 9624,
          "time": 33.41663325,
          "velocity": 0.9448818897637795
        },
        {
          "duration": 0.08333325000000258,
          "durationTicks": 24,
          "midi": 82,
          "name": "A#5",
          "ticks": 9648,
          "time": 33.4999665,
          "velocity": 0.9448818897637795
        },
        {
          "duration": 0.08333324999999547,
          "durationTicks": 24,
          "midi": 82,
          "name": "A#5",
          "ticks": 9672,
          "time": 33.58329975,
          "velocity": 0.9448818897637795
        },
        {
          "duration": 0.08333325000000258,
          "durationTicks": 24,
          "midi": 82,
          "name": "A#5",
          "ticks": 9696,
          "time": 33.666633,
          "velocity": 0.9448818897637795
        },
        {
          "duration": 0.08333325000000258,
          "durationTicks": 24,
          "midi": 40,
          "name": "E2",
          "ticks": 9696,
          "time": 33.666633,
          "velocity": 0.9448818897637795
        },
        {
          "duration": 0.08333325000000258,
          "durationTicks": 24,
          "midi": 36,
          "name": "C2",
          "ticks": 9696,
          "time": 33.666633,
          "velocity": 0.9448818897637795
        },
        {
          "duration": 0.08333325000000258,
          "durationTicks": 24,
          "midi": 82,
          "name": "A#5",
          "ticks": 9720,
          "time": 33.74996625,
          "velocity": 0.9448818897637795
        },
        {
          "duration": 0.08333324999999547,
          "durationTicks": 24,
          "midi": 82,
          "name": "A#5",
          "ticks": 9744,
          "time": 33.8332995,
          "velocity": 0.9448818897637795
        },
        {
          "duration": 0.08333325000000258,
          "durationTicks": 24,
          "midi": 82,
          "name": "A#5",
          "ticks": 9768,
          "time": 33.91663275,
          "velocity": 0.9448818897637795
        },
        {
          "duration": 0.08333324999999547,
          "durationTicks": 24,
          "midi": 82,
          "name": "A#5",
          "ticks": 9792,
          "time": 33.999966,
          "velocity": 0.9448818897637795
        },
        {
          "duration": 0.08333324999999547,
          "durationTicks": 24,
          "midi": 36,
          "name": "C2",
          "ticks": 9792,
          "time": 33.999966,
          "velocity": 0.9448818897637795
        },
        {
          "duration": 0.08333325000000258,
          "durationTicks": 24,
          "midi": 82,
          "name": "A#5",
          "ticks": 9816,
          "time": 34.083299249999996,
          "velocity": 0.9448818897637795
        },
        {
          "duration": 0.08333325000000258,
          "durationTicks": 24,
          "midi": 82,
          "name": "A#5",
          "ticks": 9840,
          "time": 34.1666325,
          "velocity": 0.9448818897637795
        },
        {
          "duration": 0.08333325000000258,
          "durationTicks": 24,
          "midi": 39,
          "name": "D#2",
          "ticks": 9840,
          "time": 34.1666325,
          "velocity": 0.9448818897637795
        },
        {
          "duration": 0.08333324999999547,
          "durationTicks": 24,
          "midi": 82,
          "name": "A#5",
          "ticks": 9864,
          "time": 34.24996575,
          "velocity": 0.9448818897637795
        },
        {
          "duration": 0.08333325000000258,
          "durationTicks": 24,
          "midi": 39,
          "name": "D#2",
          "ticks": 9888,
          "time": 34.333299,
          "velocity": 0.9448818897637795
        },
        {
          "duration": 0.08333325000000258,
          "durationTicks": 24,
          "midi": 36,
          "name": "C2",
          "ticks": 9888,
          "time": 34.333299,
          "velocity": 0.9448818897637795
        },
        {
          "duration": 0.08333325000000258,
          "durationTicks": 24,
          "midi": 82,
          "name": "A#5",
          "ticks": 9888,
          "time": 34.333299,
          "velocity": 0.9448818897637795
        },
        {
          "duration": 0.08333325000000258,
          "durationTicks": 24,
          "midi": 82,
          "name": "A#5",
          "ticks": 9912,
          "time": 34.41663225,
          "velocity": 0.9448818897637795
        },
        {
          "duration": 0.08333324999999547,
          "durationTicks": 24,
          "midi": 82,
          "name": "A#5",
          "ticks": 9936,
          "time": 34.4999655,
          "velocity": 0.9448818897637795
        },
        {
          "duration": 0.08333325000000258,
          "durationTicks": 24,
          "midi": 82,
          "name": "A#5",
          "ticks": 9960,
          "time": 34.58329875,
          "velocity": 0.9448818897637795
        },
        {
          "duration": 0.08333325000000258,
          "durationTicks": 24,
          "midi": 82,
          "name": "A#5",
          "ticks": 9984,
          "time": 34.666632,
          "velocity": 0.9448818897637795
        },
        {
          "duration": 0.08333325000000258,
          "durationTicks": 24,
          "midi": 36,
          "name": "C2",
          "ticks": 9984,
          "time": 34.666632,
          "velocity": 0.9448818897637795
        },
        {
          "duration": 0.08333325000000258,
          "durationTicks": 24,
          "midi": 49,
          "name": "C#3",
          "ticks": 9984,
          "time": 34.666632,
          "velocity": 0.9763779527559056
        },
        {
          "duration": 0.08333325000000258,
          "durationTicks": 24,
          "midi": 82,
          "name": "A#5",
          "ticks": 10032,
          "time": 34.8332985,
          "velocity": 0.9448818897637795
        },
        {
          "duration": 0.08333324999999547,
          "durationTicks": 24,
          "midi": 82,
          "name": "A#5",
          "ticks": 10056,
          "time": 34.91663175,
          "velocity": 0.9448818897637795
        },
        {
          "duration": 0.08333325000000258,
          "durationTicks": 24,
          "midi": 82,
          "name": "A#5",
          "ticks": 10080,
          "time": 34.999964999999996,
          "velocity": 0.9448818897637795
        },
        {
          "duration": 0.08333325000000258,
          "durationTicks": 24,
          "midi": 40,
          "name": "E2",
          "ticks": 10080,
          "time": 34.999964999999996,
          "velocity": 0.9448818897637795
        },
        {
          "duration": 0.08333325000000258,
          "durationTicks": 24,
          "midi": 36,
          "name": "C2",
          "ticks": 10080,
          "time": 34.999964999999996,
          "velocity": 0.9448818897637795
        },
        {
          "duration": 0.08333325000000258,
          "durationTicks": 24,
          "midi": 82,
          "name": "A#5",
          "ticks": 10104,
          "time": 35.08329825,
          "velocity": 0.9448818897637795
        },
        {
          "duration": 0.08333324999999547,
          "durationTicks": 24,
          "midi": 82,
          "name": "A#5",
          "ticks": 10128,
          "time": 35.1666315,
          "velocity": 0.9448818897637795
        },
        {
          "duration": 0.08333325000000258,
          "durationTicks": 24,
          "midi": 82,
          "name": "A#5",
          "ticks": 10152,
          "time": 35.24996475,
          "velocity": 0.9448818897637795
        },
        {
          "duration": 0.08333325000000258,
          "durationTicks": 24,
          "midi": 82,
          "name": "A#5",
          "ticks": 10176,
          "time": 35.333298,
          "velocity": 0.9448818897637795
        },
        {
          "duration": 0.08333325000000258,
          "durationTicks": 24,
          "midi": 36,
          "name": "C2",
          "ticks": 10176,
          "time": 35.333298,
          "velocity": 0.9448818897637795
        },
        {
          "duration": 0.08333324999999547,
          "durationTicks": 24,
          "midi": 82,
          "name": "A#5",
          "ticks": 10200,
          "time": 35.41663125,
          "velocity": 0.9448818897637795
        },
        {
          "duration": 0.08333325000000258,
          "durationTicks": 24,
          "midi": 82,
          "name": "A#5",
          "ticks": 10224,
          "time": 35.4999645,
          "velocity": 0.9448818897637795
        },
        {
          "duration": 0.08333325000000258,
          "durationTicks": 24,
          "midi": 82,
          "name": "A#5",
          "ticks": 10248,
          "time": 35.58329775,
          "velocity": 0.9448818897637795
        },
        {
          "duration": 0.08333324999999547,
          "durationTicks": 24,
          "midi": 82,
          "name": "A#5",
          "ticks": 10272,
          "time": 35.666631,
          "velocity": 0.9448818897637795
        },
        {
          "duration": 0.08333324999999547,
          "durationTicks": 24,
          "midi": 36,
          "name": "C2",
          "ticks": 10272,
          "time": 35.666631,
          "velocity": 0.9448818897637795
        },
        {
          "duration": 0.08333324999999547,
          "durationTicks": 24,
          "midi": 40,
          "name": "E2",
          "ticks": 10272,
          "time": 35.666631,
          "velocity": 0.9448818897637795
        },
        {
          "duration": 0.08333325000000258,
          "durationTicks": 24,
          "midi": 82,
          "name": "A#5",
          "ticks": 10296,
          "time": 35.74996425,
          "velocity": 0.9448818897637795
        },
        {
          "duration": 0.08333324999999547,
          "durationTicks": 24,
          "midi": 82,
          "name": "A#5",
          "ticks": 10320,
          "time": 35.8332975,
          "velocity": 0.9448818897637795
        },
        {
          "duration": 0.08333325000000258,
          "durationTicks": 24,
          "midi": 82,
          "name": "A#5",
          "ticks": 10344,
          "time": 35.916630749999996,
          "velocity": 0.9448818897637795
        },
        {
          "duration": 0.08333325000000258,
          "durationTicks": 24,
          "midi": 82,
          "name": "A#5",
          "ticks": 10368,
          "time": 35.999964,
          "velocity": 0.9448818897637795
        },
        {
          "duration": 0.08333325000000258,
          "durationTicks": 24,
          "midi": 36,
          "name": "C2",
          "ticks": 10368,
          "time": 35.999964,
          "velocity": 0.9448818897637795
        },
        {
          "duration": 0.08333324999999547,
          "durationTicks": 24,
          "midi": 82,
          "name": "A#5",
          "ticks": 10392,
          "time": 36.08329725,
          "velocity": 0.9448818897637795
        },
        {
          "duration": 0.08333325000000258,
          "durationTicks": 24,
          "midi": 82,
          "name": "A#5",
          "ticks": 10416,
          "time": 36.1666305,
          "velocity": 0.9448818897637795
        },
        {
          "duration": 0.08333325000000258,
          "durationTicks": 24,
          "midi": 82,
          "name": "A#5",
          "ticks": 10440,
          "time": 36.24996375,
          "velocity": 0.9448818897637795
        },
        {
          "duration": 0.08333324999999547,
          "durationTicks": 24,
          "midi": 82,
          "name": "A#5",
          "ticks": 10464,
          "time": 36.333297,
          "velocity": 0.9448818897637795
        },
        {
          "duration": 0.08333324999999547,
          "durationTicks": 24,
          "midi": 40,
          "name": "E2",
          "ticks": 10464,
          "time": 36.333297,
          "velocity": 0.9448818897637795
        },
        {
          "duration": 0.08333324999999547,
          "durationTicks": 24,
          "midi": 36,
          "name": "C2",
          "ticks": 10464,
          "time": 36.333297,
          "velocity": 0.9448818897637795
        },
        {
          "duration": 0.08333325000000258,
          "durationTicks": 24,
          "midi": 82,
          "name": "A#5",
          "ticks": 10488,
          "time": 36.41663025,
          "velocity": 0.9448818897637795
        },
        {
          "duration": 0.08333325000000258,
          "durationTicks": 24,
          "midi": 82,
          "name": "A#5",
          "ticks": 10512,
          "time": 36.4999635,
          "velocity": 0.9448818897637795
        },
        {
          "duration": 0.08333324999999547,
          "durationTicks": 24,
          "midi": 82,
          "name": "A#5",
          "ticks": 10536,
          "time": 36.58329675,
          "velocity": 0.9448818897637795
        },
        {
          "duration": 0.08333325000000258,
          "durationTicks": 24,
          "midi": 82,
          "name": "A#5",
          "ticks": 10560,
          "time": 36.66663,
          "velocity": 0.9448818897637795
        },
        {
          "duration": 0.08333325000000258,
          "durationTicks": 24,
          "midi": 36,
          "name": "C2",
          "ticks": 10560,
          "time": 36.66663,
          "velocity": 0.9448818897637795
        },
        {
          "duration": 0.08333324999999547,
          "durationTicks": 24,
          "midi": 82,
          "name": "A#5",
          "ticks": 10584,
          "time": 36.74996325,
          "velocity": 0.9448818897637795
        },
        {
          "duration": 0.08333325000000258,
          "durationTicks": 24,
          "midi": 82,
          "name": "A#5",
          "ticks": 10608,
          "time": 36.833296499999996,
          "velocity": 0.9448818897637795
        },
        {
          "duration": 0.08333325000000258,
          "durationTicks": 24,
          "midi": 82,
          "name": "A#5",
          "ticks": 10632,
          "time": 36.91662975,
          "velocity": 0.9448818897637795
        },
        {
          "duration": 0.08333324999999547,
          "durationTicks": 24,
          "midi": 82,
          "name": "A#5",
          "ticks": 10656,
          "time": 36.999963,
          "velocity": 0.9448818897637795
        },
        {
          "duration": 0.08333324999999547,
          "durationTicks": 24,
          "midi": 40,
          "name": "E2",
          "ticks": 10656,
          "time": 36.999963,
          "velocity": 0.9448818897637795
        },
        {
          "duration": 0.08333324999999547,
          "durationTicks": 24,
          "midi": 36,
          "name": "C2",
          "ticks": 10656,
          "time": 36.999963,
          "velocity": 0.9448818897637795
        },
        {
          "duration": 0.08333325000000258,
          "durationTicks": 24,
          "midi": 82,
          "name": "A#5",
          "ticks": 10680,
          "time": 37.08329625,
          "velocity": 0.9448818897637795
        },
        {
          "duration": 0.08333325000000258,
          "durationTicks": 24,
          "midi": 82,
          "name": "A#5",
          "ticks": 10704,
          "time": 37.1666295,
          "velocity": 0.9448818897637795
        },
        {
          "duration": 0.08333324999999547,
          "durationTicks": 24,
          "midi": 82,
          "name": "A#5",
          "ticks": 10728,
          "time": 37.24996275,
          "velocity": 0.9448818897637795
        },
        {
          "duration": 0.08333325000000258,
          "durationTicks": 24,
          "midi": 82,
          "name": "A#5",
          "ticks": 10752,
          "time": 37.333296,
          "velocity": 0.9448818897637795
        },
        {
          "duration": 0.08333325000000258,
          "durationTicks": 24,
          "midi": 36,
          "name": "C2",
          "ticks": 10752,
          "time": 37.333296,
          "velocity": 0.9448818897637795
        },
        {
          "duration": 0.08333325000000258,
          "durationTicks": 24,
          "midi": 82,
          "name": "A#5",
          "ticks": 10776,
          "time": 37.41662925,
          "velocity": 0.9448818897637795
        },
        {
          "duration": 0.08333324999999547,
          "durationTicks": 24,
          "midi": 82,
          "name": "A#5",
          "ticks": 10800,
          "time": 37.4999625,
          "velocity": 0.9448818897637795
        },
        {
          "duration": 0.08333325000000258,
          "durationTicks": 24,
          "midi": 82,
          "name": "A#5",
          "ticks": 10824,
          "time": 37.58329575,
          "velocity": 0.9448818897637795
        },
        {
          "duration": 0.08333324999999547,
          "durationTicks": 24,
          "midi": 82,
          "name": "A#5",
          "ticks": 10848,
          "time": 37.666629,
          "velocity": 0.9448818897637795
        },
        {
          "duration": 0.08333324999999547,
          "durationTicks": 24,
          "midi": 36,
          "name": "C2",
          "ticks": 10848,
          "time": 37.666629,
          "velocity": 0.9448818897637795
        },
        {
          "duration": 0.08333324999999547,
          "durationTicks": 24,
          "midi": 40,
          "name": "E2",
          "ticks": 10848,
          "time": 37.666629,
          "velocity": 0.9448818897637795
        },
        {
          "duration": 0.08333325000000258,
          "durationTicks": 24,
          "midi": 82,
          "name": "A#5",
          "ticks": 10872,
          "time": 37.749962249999996,
          "velocity": 0.9448818897637795
        },
        {
          "duration": 0.08333325000000258,
          "durationTicks": 24,
          "midi": 82,
          "name": "A#5",
          "ticks": 10896,
          "time": 37.8332955,
          "velocity": 0.9448818897637795
        },
        {
          "duration": 0.08333324999999547,
          "durationTicks": 24,
          "midi": 82,
          "name": "A#5",
          "ticks": 10920,
          "time": 37.91662875,
          "velocity": 0.9448818897637795
        },
        {
          "duration": 0.08333325000000258,
          "durationTicks": 24,
          "midi": 82,
          "name": "A#5",
          "ticks": 10944,
          "time": 37.999962,
          "velocity": 0.9448818897637795
        },
        {
          "duration": 0.08333325000000258,
          "durationTicks": 24,
          "midi": 36,
          "name": "C2",
          "ticks": 10944,
          "time": 37.999962,
          "velocity": 0.9448818897637795
        },
        {
          "duration": 0.08333325000000258,
          "durationTicks": 24,
          "midi": 82,
          "name": "A#5",
          "ticks": 10968,
          "time": 38.08329525,
          "velocity": 0.9448818897637795
        },
        {
          "duration": 0.08333324999999547,
          "durationTicks": 24,
          "midi": 82,
          "name": "A#5",
          "ticks": 10992,
          "time": 38.1666285,
          "velocity": 0.9448818897637795
        },
        {
          "duration": 0.08333325000000258,
          "durationTicks": 24,
          "midi": 82,
          "name": "A#5",
          "ticks": 11016,
          "time": 38.24996175,
          "velocity": 0.9448818897637795
        },
        {
          "duration": 0.08333325000000258,
          "durationTicks": 24,
          "midi": 82,
          "name": "A#5",
          "ticks": 11040,
          "time": 38.333295,
          "velocity": 0.9448818897637795
        },
        {
          "duration": 0.08333325000000258,
          "durationTicks": 24,
          "midi": 36,
          "name": "C2",
          "ticks": 11040,
          "time": 38.333295,
          "velocity": 0.9448818897637795
        },
        {
          "duration": 0.08333325000000258,
          "durationTicks": 24,
          "midi": 40,
          "name": "E2",
          "ticks": 11040,
          "time": 38.333295,
          "velocity": 0.9448818897637795
        },
        {
          "duration": 0.08333324999999547,
          "durationTicks": 24,
          "midi": 82,
          "name": "A#5",
          "ticks": 11064,
          "time": 38.41662825,
          "velocity": 0.9448818897637795
        },
        {
          "duration": 0.08333325000000258,
          "durationTicks": 24,
          "midi": 82,
          "name": "A#5",
          "ticks": 11088,
          "time": 38.4999615,
          "velocity": 0.9448818897637795
        },
        {
          "duration": 0.08333324999999547,
          "durationTicks": 24,
          "midi": 82,
          "name": "A#5",
          "ticks": 11112,
          "time": 38.58329475,
          "velocity": 0.9448818897637795
        },
        {
          "duration": 0.08333325000000258,
          "durationTicks": 24,
          "midi": 82,
          "name": "A#5",
          "ticks": 11136,
          "time": 38.666627999999996,
          "velocity": 0.9448818897637795
        },
        {
          "duration": 0.08333325000000258,
          "durationTicks": 24,
          "midi": 36,
          "name": "C2",
          "ticks": 11136,
          "time": 38.666627999999996,
          "velocity": 0.9448818897637795
        },
        {
          "duration": 0.08333325000000258,
          "durationTicks": 24,
          "midi": 82,
          "name": "A#5",
          "ticks": 11160,
          "time": 38.74996125,
          "velocity": 0.9448818897637795
        },
        {
          "duration": 0.08333324999999547,
          "durationTicks": 24,
          "midi": 82,
          "name": "A#5",
          "ticks": 11184,
          "time": 38.8332945,
          "velocity": 0.9448818897637795
        },
        {
          "duration": 0.08333325000000258,
          "durationTicks": 24,
          "midi": 82,
          "name": "A#5",
          "ticks": 11208,
          "time": 38.916627749999996,
          "velocity": 0.9448818897637795
        },
        {
          "duration": 0.08333325000000258,
          "durationTicks": 24,
          "midi": 82,
          "name": "A#5",
          "ticks": 11232,
          "time": 38.999961,
          "velocity": 0.9448818897637795
        },
        {
          "duration": 0.08333325000000258,
          "durationTicks": 24,
          "midi": 40,
          "name": "E2",
          "ticks": 11232,
          "time": 38.999961,
          "velocity": 0.9448818897637795
        },
        {
          "duration": 0.08333325000000258,
          "durationTicks": 24,
          "midi": 36,
          "name": "C2",
          "ticks": 11232,
          "time": 38.999961,
          "velocity": 0.9448818897637795
        },
        {
          "duration": 0.08333324999999547,
          "durationTicks": 24,
          "midi": 82,
          "name": "A#5",
          "ticks": 11256,
          "time": 39.08329425,
          "velocity": 0.9448818897637795
        },
        {
          "duration": 0.08333325000000258,
          "durationTicks": 24,
          "midi": 82,
          "name": "A#5",
          "ticks": 11280,
          "time": 39.1666275,
          "velocity": 0.9448818897637795
        },
        {
          "duration": 0.08333325000000258,
          "durationTicks": 24,
          "midi": 82,
          "name": "A#5",
          "ticks": 11304,
          "time": 39.24996075,
          "velocity": 0.9448818897637795
        },
        {
          "duration": 0.08333324999999547,
          "durationTicks": 24,
          "midi": 82,
          "name": "A#5",
          "ticks": 11328,
          "time": 39.333294,
          "velocity": 0.9448818897637795
        },
        {
          "duration": 0.08333324999999547,
          "durationTicks": 24,
          "midi": 36,
          "name": "C2",
          "ticks": 11328,
          "time": 39.333294,
          "velocity": 0.9448818897637795
        },
        {
          "duration": 0.08333325000000258,
          "durationTicks": 24,
          "midi": 82,
          "name": "A#5",
          "ticks": 11352,
          "time": 39.41662725,
          "velocity": 0.9448818897637795
        },
        {
          "duration": 0.08333324999999547,
          "durationTicks": 24,
          "midi": 82,
          "name": "A#5",
          "ticks": 11376,
          "time": 39.4999605,
          "velocity": 0.9448818897637795
        },
        {
          "duration": 0.08333325000000258,
          "durationTicks": 24,
          "midi": 82,
          "name": "A#5",
          "ticks": 11400,
          "time": 39.583293749999996,
          "velocity": 0.9448818897637795
        },
        {
          "duration": 0.08333325000000258,
          "durationTicks": 24,
          "midi": 82,
          "name": "A#5",
          "ticks": 11424,
          "time": 39.666627,
          "velocity": 0.9448818897637795
        },
        {
          "duration": 0.08333325000000258,
          "durationTicks": 24,
          "midi": 40,
          "name": "E2",
          "ticks": 11424,
          "time": 39.666627,
          "velocity": 0.9448818897637795
        },
        {
          "duration": 0.08333325000000258,
          "durationTicks": 24,
          "midi": 36,
          "name": "C2",
          "ticks": 11424,
          "time": 39.666627,
          "velocity": 0.9448818897637795
        },
        {
          "duration": 0.08333324999999547,
          "durationTicks": 24,
          "midi": 82,
          "name": "A#5",
          "ticks": 11448,
          "time": 39.74996025,
          "velocity": 0.9448818897637795
        },
        {
          "duration": 0.08333325000000258,
          "durationTicks": 24,
          "midi": 82,
          "name": "A#5",
          "ticks": 11472,
          "time": 39.833293499999996,
          "velocity": 0.9448818897637795
        },
        {
          "duration": 0.08333325000000258,
          "durationTicks": 24,
          "midi": 82,
          "name": "A#5",
          "ticks": 11496,
          "time": 39.91662675,
          "velocity": 0.9448818897637795
        },
        {
          "duration": 0.08333324999999547,
          "durationTicks": 24,
          "midi": 82,
          "name": "A#5",
          "ticks": 11520,
          "time": 39.99996,
          "velocity": 0.9448818897637795
        },
        {
          "duration": 0.08333324999999547,
          "durationTicks": 24,
          "midi": 36,
          "name": "C2",
          "ticks": 11520,
          "time": 39.99996,
          "velocity": 0.9448818897637795
        },
        {
          "duration": 0.08333325000000258,
          "durationTicks": 24,
          "midi": 82,
          "name": "A#5",
          "ticks": 11544,
          "time": 40.08329325,
          "velocity": 0.9448818897637795
        },
        {
          "duration": 0.08333325000000258,
          "durationTicks": 24,
          "midi": 82,
          "name": "A#5",
          "ticks": 11568,
          "time": 40.1666265,
          "velocity": 0.9448818897637795
        },
        {
          "duration": 0.08333324999999547,
          "durationTicks": 24,
          "midi": 82,
          "name": "A#5",
          "ticks": 11592,
          "time": 40.24995975,
          "velocity": 0.9448818897637795
        },
        {
          "duration": 0.08333325000000258,
          "durationTicks": 24,
          "midi": 82,
          "name": "A#5",
          "ticks": 11616,
          "time": 40.333293,
          "velocity": 0.9448818897637795
        },
        {
          "duration": 0.08333325000000258,
          "durationTicks": 24,
          "midi": 40,
          "name": "E2",
          "ticks": 11616,
          "time": 40.333293,
          "velocity": 0.9448818897637795
        },
        {
          "duration": 0.08333325000000258,
          "durationTicks": 24,
          "midi": 36,
          "name": "C2",
          "ticks": 11616,
          "time": 40.333293,
          "velocity": 0.9448818897637795
        },
        {
          "duration": 0.08333324999999547,
          "durationTicks": 24,
          "midi": 82,
          "name": "A#5",
          "ticks": 11640,
          "time": 40.41662625,
          "velocity": 0.9448818897637795
        },
        {
          "duration": 0.08333325000000258,
          "durationTicks": 24,
          "midi": 82,
          "name": "A#5",
          "ticks": 11664,
          "time": 40.499959499999996,
          "velocity": 0.9448818897637795
        },
        {
          "duration": 0.08333325000000258,
          "durationTicks": 24,
          "midi": 82,
          "name": "A#5",
          "ticks": 11688,
          "time": 40.58329275,
          "velocity": 0.9448818897637795
        },
        {
          "duration": 0.08333324999999547,
          "durationTicks": 24,
          "midi": 82,
          "name": "A#5",
          "ticks": 11712,
          "time": 40.666626,
          "velocity": 0.9448818897637795
        },
        {
          "duration": 0.08333324999999547,
          "durationTicks": 24,
          "midi": 36,
          "name": "C2",
          "ticks": 11712,
          "time": 40.666626,
          "velocity": 0.9448818897637795
        },
        {
          "duration": 0.08333325000000258,
          "durationTicks": 24,
          "midi": 82,
          "name": "A#5",
          "ticks": 11736,
          "time": 40.749959249999996,
          "velocity": 0.9448818897637795
        },
        {
          "duration": 0.08333325000000258,
          "durationTicks": 24,
          "midi": 82,
          "name": "A#5",
          "ticks": 11760,
          "time": 40.8332925,
          "velocity": 0.9448818897637795
        },
        {
          "duration": 0.08333324999999547,
          "durationTicks": 24,
          "midi": 82,
          "name": "A#5",
          "ticks": 11784,
          "time": 40.91662575,
          "velocity": 0.9448818897637795
        },
        {
          "duration": 0.08333325000000258,
          "durationTicks": 24,
          "midi": 82,
          "name": "A#5",
          "ticks": 11808,
          "time": 40.999959,
          "velocity": 0.9448818897637795
        },
        {
          "duration": 0.08333325000000258,
          "durationTicks": 24,
          "midi": 36,
          "name": "C2",
          "ticks": 11808,
          "time": 40.999959,
          "velocity": 0.9448818897637795
        },
        {
          "duration": 0.08333325000000258,
          "durationTicks": 24,
          "midi": 40,
          "name": "E2",
          "ticks": 11808,
          "time": 40.999959,
          "velocity": 0.9448818897637795
        },
        {
          "duration": 0.08333325000000258,
          "durationTicks": 24,
          "midi": 82,
          "name": "A#5",
          "ticks": 11832,
          "time": 41.08329225,
          "velocity": 0.9448818897637795
        },
        {
          "duration": 0.08333324999999547,
          "durationTicks": 24,
          "midi": 82,
          "name": "A#5",
          "ticks": 11856,
          "time": 41.1666255,
          "velocity": 0.9448818897637795
        },
        {
          "duration": 0.08333325000000258,
          "durationTicks": 24,
          "midi": 82,
          "name": "A#5",
          "ticks": 11880,
          "time": 41.24995875,
          "velocity": 0.9448818897637795
        },
        {
          "duration": 0.08333324999999547,
          "durationTicks": 24,
          "midi": 82,
          "name": "A#5",
          "ticks": 11904,
          "time": 41.333292,
          "velocity": 0.9448818897637795
        },
        {
          "duration": 0.08333324999999547,
          "durationTicks": 24,
          "midi": 36,
          "name": "C2",
          "ticks": 11904,
          "time": 41.333292,
          "velocity": 0.9448818897637795
        },
        {
          "duration": 0.08333325000000258,
          "durationTicks": 24,
          "midi": 82,
          "name": "A#5",
          "ticks": 11928,
          "time": 41.416625249999996,
          "velocity": 0.9448818897637795
        },
        {
          "duration": 0.08333325000000258,
          "durationTicks": 24,
          "midi": 82,
          "name": "A#5",
          "ticks": 11952,
          "time": 41.4999585,
          "velocity": 0.9448818897637795
        },
        {
          "duration": 0.08333324999999547,
          "durationTicks": 24,
          "midi": 82,
          "name": "A#5",
          "ticks": 11976,
          "time": 41.58329175,
          "velocity": 0.9448818897637795
        },
        {
          "duration": 0.08333325000000258,
          "durationTicks": 24,
          "midi": 82,
          "name": "A#5",
          "ticks": 12000,
          "time": 41.666624999999996,
          "velocity": 0.9448818897637795
        },
        {
          "duration": 0.08333325000000258,
          "durationTicks": 24,
          "midi": 40,
          "name": "E2",
          "ticks": 12000,
          "time": 41.666624999999996,
          "velocity": 0.9448818897637795
        },
        {
          "duration": 0.08333325000000258,
          "durationTicks": 24,
          "midi": 36,
          "name": "C2",
          "ticks": 12000,
          "time": 41.666624999999996,
          "velocity": 0.9448818897637795
        },
        {
          "duration": 0.08333325000000258,
          "durationTicks": 24,
          "midi": 82,
          "name": "A#5",
          "ticks": 12024,
          "time": 41.74995825,
          "velocity": 0.9448818897637795
        },
        {
          "duration": 0.08333324999999547,
          "durationTicks": 24,
          "midi": 82,
          "name": "A#5",
          "ticks": 12048,
          "time": 41.8332915,
          "velocity": 0.9448818897637795
        },
        {
          "duration": 0.08333325000000258,
          "durationTicks": 24,
          "midi": 82,
          "name": "A#5",
          "ticks": 12072,
          "time": 41.91662475,
          "velocity": 0.9448818897637795
        },
        {
          "duration": 0.08333325000000258,
          "durationTicks": 24,
          "midi": 82,
          "name": "A#5",
          "ticks": 12096,
          "time": 41.999958,
          "velocity": 0.9448818897637795
        },
        {
          "duration": 0.08333325000000258,
          "durationTicks": 24,
          "midi": 36,
          "name": "C2",
          "ticks": 12096,
          "time": 41.999958,
          "velocity": 0.9448818897637795
        },
        {
          "duration": 0.08333324999999547,
          "durationTicks": 24,
          "midi": 82,
          "name": "A#5",
          "ticks": 12120,
          "time": 42.08329125,
          "velocity": 0.9448818897637795
        },
        {
          "duration": 0.08333325000000258,
          "durationTicks": 24,
          "midi": 82,
          "name": "A#5",
          "ticks": 12144,
          "time": 42.1666245,
          "velocity": 0.9448818897637795
        },
        {
          "duration": 0.08333324999999547,
          "durationTicks": 24,
          "midi": 82,
          "name": "A#5",
          "ticks": 12168,
          "time": 42.24995775,
          "velocity": 0.9448818897637795
        },
        {
          "duration": 0.08333325000000258,
          "durationTicks": 24,
          "midi": 82,
          "name": "A#5",
          "ticks": 12192,
          "time": 42.333290999999996,
          "velocity": 0.9448818897637795
        },
        {
          "duration": 0.08333325000000258,
          "durationTicks": 24,
          "midi": 40,
          "name": "E2",
          "ticks": 12192,
          "time": 42.333290999999996,
          "velocity": 0.9448818897637795
        },
        {
          "duration": 0.08333325000000258,
          "durationTicks": 24,
          "midi": 36,
          "name": "C2",
          "ticks": 12192,
          "time": 42.333290999999996,
          "velocity": 0.9448818897637795
        },
        {
          "duration": 0.08333325000000258,
          "durationTicks": 24,
          "midi": 82,
          "name": "A#5",
          "ticks": 12216,
          "time": 42.41662425,
          "velocity": 0.9448818897637795
        },
        {
          "duration": 0.08333324999999547,
          "durationTicks": 24,
          "midi": 82,
          "name": "A#5",
          "ticks": 12240,
          "time": 42.4999575,
          "velocity": 0.9448818897637795
        },
        {
          "duration": 0.08333325000000258,
          "durationTicks": 24,
          "midi": 82,
          "name": "A#5",
          "ticks": 12264,
          "time": 42.583290749999996,
          "velocity": 0.9448818897637795
        },
        {
          "duration": 0.08333325000000258,
          "durationTicks": 24,
          "midi": 36,
          "name": "C2",
          "ticks": 12288,
          "time": 42.666624,
          "velocity": 0.9448818897637795
        },
        {
          "duration": 0.08333325000000258,
          "durationTicks": 24,
          "midi": 82,
          "name": "A#5",
          "ticks": 12288,
          "time": 42.666624,
          "velocity": 0.9448818897637795
        },
        {
          "duration": 0.08333324999999547,
          "durationTicks": 24,
          "midi": 82,
          "name": "A#5",
          "ticks": 12312,
          "time": 42.74995725,
          "velocity": 0.9448818897637795
        },
        {
          "duration": 0.08333325000000258,
          "durationTicks": 24,
          "midi": 82,
          "name": "A#5",
          "ticks": 12336,
          "time": 42.8332905,
          "velocity": 0.9448818897637795
        },
        {
          "duration": 0.08333325000000258,
          "durationTicks": 24,
          "midi": 82,
          "name": "A#5",
          "ticks": 12360,
          "time": 42.91662375,
          "velocity": 0.9448818897637795
        },
        {
          "duration": 0.08333324999999547,
          "durationTicks": 24,
          "midi": 40,
          "name": "E2",
          "ticks": 12384,
          "time": 42.999957,
          "velocity": 0.9448818897637795
        },
        {
          "duration": 0.08333324999999547,
          "durationTicks": 24,
          "midi": 36,
          "name": "C2",
          "ticks": 12384,
          "time": 42.999957,
          "velocity": 0.9448818897637795
        },
        {
          "duration": 0.08333324999999547,
          "durationTicks": 24,
          "midi": 82,
          "name": "A#5",
          "ticks": 12384,
          "time": 42.999957,
          "velocity": 0.9448818897637795
        },
        {
          "duration": 0.08333325000000258,
          "durationTicks": 24,
          "midi": 82,
          "name": "A#5",
          "ticks": 12408,
          "time": 43.08329025,
          "velocity": 0.9448818897637795
        },
        {
          "duration": 0.08333324999999547,
          "durationTicks": 24,
          "midi": 82,
          "name": "A#5",
          "ticks": 12432,
          "time": 43.1666235,
          "velocity": 0.9448818897637795
        },
        {
          "duration": 0.08333325000000258,
          "durationTicks": 24,
          "midi": 82,
          "name": "A#5",
          "ticks": 12456,
          "time": 43.249956749999996,
          "velocity": 0.9448818897637795
        },
        {
          "duration": 0.08333325000000258,
          "durationTicks": 24,
          "midi": 36,
          "name": "C2",
          "ticks": 12480,
          "time": 43.33329,
          "velocity": 0.9448818897637795
        },
        {
          "duration": 0.08333325000000258,
          "durationTicks": 24,
          "midi": 82,
          "name": "A#5",
          "ticks": 12480,
          "time": 43.33329,
          "velocity": 0.9448818897637795
        },
        {
          "duration": 0.08333324999999547,
          "durationTicks": 24,
          "midi": 82,
          "name": "A#5",
          "ticks": 12504,
          "time": 43.41662325,
          "velocity": 0.9448818897637795
        },
        {
          "duration": 0.08333325000000258,
          "durationTicks": 24,
          "midi": 82,
          "name": "A#5",
          "ticks": 12528,
          "time": 43.499956499999996,
          "velocity": 0.9448818897637795
        },
        {
          "duration": 0.08333325000000258,
          "durationTicks": 24,
          "midi": 82,
          "name": "A#5",
          "ticks": 12552,
          "time": 43.58328975,
          "velocity": 0.9448818897637795
        },
        {
          "duration": 0.08333324999999547,
          "durationTicks": 24,
          "midi": 40,
          "name": "E2",
          "ticks": 12576,
          "time": 43.666623,
          "velocity": 0.9448818897637795
        },
        {
          "duration": 0.08333324999999547,
          "durationTicks": 24,
          "midi": 36,
          "name": "C2",
          "ticks": 12576,
          "time": 43.666623,
          "velocity": 0.9448818897637795
        },
        {
          "duration": 0.08333324999999547,
          "durationTicks": 24,
          "midi": 82,
          "name": "A#5",
          "ticks": 12576,
          "time": 43.666623,
          "velocity": 0.9448818897637795
        },
        {
          "duration": 0.08333325000000258,
          "durationTicks": 24,
          "midi": 82,
          "name": "A#5",
          "ticks": 12600,
          "time": 43.74995625,
          "velocity": 0.9448818897637795
        },
        {
          "duration": 0.08333325000000258,
          "durationTicks": 24,
          "midi": 82,
          "name": "A#5",
          "ticks": 12624,
          "time": 43.8332895,
          "velocity": 0.9448818897637795
        },
        {
          "duration": 0.08333324999999547,
          "durationTicks": 24,
          "midi": 82,
          "name": "A#5",
          "ticks": 12648,
          "time": 43.91662275,
          "velocity": 0.9448818897637795
        },
        {
          "duration": 0.08333325000000258,
          "durationTicks": 24,
          "midi": 36,
          "name": "C2",
          "ticks": 12672,
          "time": 43.999956,
          "velocity": 0.9448818897637795
        },
        {
          "duration": 0.08333325000000258,
          "durationTicks": 24,
          "midi": 82,
          "name": "A#5",
          "ticks": 12672,
          "time": 43.999956,
          "velocity": 0.9448818897637795
        },
        {
          "duration": 0.08333324999999547,
          "durationTicks": 24,
          "midi": 82,
          "name": "A#5",
          "ticks": 12696,
          "time": 44.08328925,
          "velocity": 0.9448818897637795
        },
        {
          "duration": 0.08333325000000258,
          "durationTicks": 24,
          "midi": 82,
          "name": "A#5",
          "ticks": 12720,
          "time": 44.166622499999995,
          "velocity": 0.9448818897637795
        },
        {
          "duration": 0.08333325000000258,
          "durationTicks": 24,
          "midi": 82,
          "name": "A#5",
          "ticks": 12744,
          "time": 44.24995575,
          "velocity": 0.9448818897637795
        },
        {
          "duration": 0.08333324999999547,
          "durationTicks": 24,
          "midi": 82,
          "name": "A#5",
          "ticks": 12768,
          "time": 44.333289,
          "velocity": 0.9448818897637795
        },
        {
          "duration": 0.08333324999999547,
          "durationTicks": 24,
          "midi": 36,
          "name": "C2",
          "ticks": 12768,
          "time": 44.333289,
          "velocity": 0.9448818897637795
        },
        {
          "duration": 0.08333324999999547,
          "durationTicks": 24,
          "midi": 40,
          "name": "E2",
          "ticks": 12768,
          "time": 44.333289,
          "velocity": 0.9448818897637795
        },
        {
          "duration": 0.08333325000000258,
          "durationTicks": 24,
          "midi": 82,
          "name": "A#5",
          "ticks": 12792,
          "time": 44.416622249999996,
          "velocity": 0.9448818897637795
        },
        {
          "duration": 0.08333325000000258,
          "durationTicks": 24,
          "midi": 82,
          "name": "A#5",
          "ticks": 12816,
          "time": 44.4999555,
          "velocity": 0.9448818897637795
        },
        {
          "duration": 0.08333325000000258,
          "durationTicks": 24,
          "midi": 48,
          "name": "C3",
          "ticks": 12816,
          "time": 44.4999555,
          "velocity": 1
        },
        {
          "duration": 0.08333324999999547,
          "durationTicks": 24,
          "midi": 82,
          "name": "A#5",
          "ticks": 12840,
          "time": 44.58328875,
          "velocity": 0.9448818897637795
        },
        {
          "duration": 0.08333324999999547,
          "durationTicks": 24,
          "midi": 48,
          "name": "C3",
          "ticks": 12840,
          "time": 44.58328875,
          "velocity": 1
        },
        {
          "duration": 0.08333325000000258,
          "durationTicks": 24,
          "midi": 47,
          "name": "B2",
          "ticks": 12864,
          "time": 44.666622,
          "velocity": 1
        },
        {
          "duration": 0.08333325000000258,
          "durationTicks": 24,
          "midi": 36,
          "name": "C2",
          "ticks": 12864,
          "time": 44.666622,
          "velocity": 0.9448818897637795
        },
        {
          "duration": 0.08333325000000258,
          "durationTicks": 24,
          "midi": 82,
          "name": "A#5",
          "ticks": 12864,
          "time": 44.666622,
          "velocity": 0.9448818897637795
        },
        {
          "duration": 0.08333325000000258,
          "durationTicks": 24,
          "midi": 82,
          "name": "A#5",
          "ticks": 12888,
          "time": 44.74995525,
          "velocity": 0.9448818897637795
        },
        {
          "duration": 0.08333324999999547,
          "durationTicks": 24,
          "midi": 82,
          "name": "A#5",
          "ticks": 12912,
          "time": 44.8332885,
          "velocity": 0.9448818897637795
        },
        {
          "duration": 0.08333325000000258,
          "durationTicks": 24,
          "midi": 82,
          "name": "A#5",
          "ticks": 12936,
          "time": 44.91662175,
          "velocity": 0.9448818897637795
        },
        {
          "duration": 0.08333324999999547,
          "durationTicks": 24,
          "midi": 82,
          "name": "A#5",
          "ticks": 12960,
          "time": 44.999955,
          "velocity": 0.9448818897637795
        },
        {
          "duration": 0.08333324999999547,
          "durationTicks": 24,
          "midi": 40,
          "name": "E2",
          "ticks": 12960,
          "time": 44.999955,
          "velocity": 0.9448818897637795
        },
        {
          "duration": 0.08333324999999547,
          "durationTicks": 24,
          "midi": 36,
          "name": "C2",
          "ticks": 12960,
          "time": 44.999955,
          "velocity": 0.9448818897637795
        },
        {
          "duration": 0.08333324999999547,
          "durationTicks": 24,
          "midi": 35,
          "name": "B1",
          "ticks": 12960,
          "time": 44.999955,
          "velocity": 1
        },
        {
          "duration": 0.08333325000000258,
          "durationTicks": 24,
          "midi": 82,
          "name": "A#5",
          "ticks": 12984,
          "time": 45.083288249999995,
          "velocity": 0.9448818897637795
        },
        {
          "duration": 0.08333325000000258,
          "durationTicks": 24,
          "midi": 82,
          "name": "A#5",
          "ticks": 13008,
          "time": 45.1666215,
          "velocity": 0.9448818897637795
        },
        {
          "duration": 0.08333324999999547,
          "durationTicks": 24,
          "midi": 82,
          "name": "A#5",
          "ticks": 13032,
          "time": 45.24995475,
          "velocity": 0.9448818897637795
        },
        {
          "duration": 0.08333325000000258,
          "durationTicks": 24,
          "midi": 36,
          "name": "C2",
          "ticks": 13056,
          "time": 45.333287999999996,
          "velocity": 0.9448818897637795
        },
        {
          "duration": 0.08333325000000258,
          "durationTicks": 24,
          "midi": 82,
          "name": "A#5",
          "ticks": 13056,
          "time": 45.333287999999996,
          "velocity": 0.9448818897637795
        },
        {
          "duration": 0.08333325000000258,
          "durationTicks": 24,
          "midi": 82,
          "name": "A#5",
          "ticks": 13080,
          "time": 45.41662125,
          "velocity": 0.9448818897637795
        },
        {
          "duration": 0.08333324999999547,
          "durationTicks": 24,
          "midi": 82,
          "name": "A#5",
          "ticks": 13104,
          "time": 45.4999545,
          "velocity": 0.9448818897637795
        },
        {
          "duration": 0.08333325000000258,
          "durationTicks": 24,
          "midi": 82,
          "name": "A#5",
          "ticks": 13128,
          "time": 45.58328775,
          "velocity": 0.9448818897637795
        },
        {
          "duration": 0.08333325000000258,
          "durationTicks": 24,
          "midi": 36,
          "name": "C2",
          "ticks": 13152,
          "time": 45.666621,
          "velocity": 0.9448818897637795
        },
        {
          "duration": 0.08333325000000258,
          "durationTicks": 24,
          "midi": 40,
          "name": "E2",
          "ticks": 13152,
          "time": 45.666621,
          "velocity": 0.9448818897637795
        },
        {
          "duration": 0.08333325000000258,
          "durationTicks": 24,
          "midi": 82,
          "name": "A#5",
          "ticks": 13152,
          "time": 45.666621,
          "velocity": 0.9448818897637795
        },
        {
          "duration": 0.08333324999999547,
          "durationTicks": 24,
          "midi": 82,
          "name": "A#5",
          "ticks": 13176,
          "time": 45.74995425,
          "velocity": 0.9448818897637795
        },
        {
          "duration": 0.08333325000000258,
          "durationTicks": 24,
          "midi": 82,
          "name": "A#5",
          "ticks": 13200,
          "time": 45.8332875,
          "velocity": 0.9448818897637795
        },
        {
          "duration": 0.08333324999999547,
          "durationTicks": 24,
          "midi": 82,
          "name": "A#5",
          "ticks": 13224,
          "time": 45.91662075,
          "velocity": 0.9448818897637795
        },
        {
          "duration": 0.08333325000000258,
          "durationTicks": 24,
          "midi": 36,
          "name": "C2",
          "ticks": 13248,
          "time": 45.999953999999995,
          "velocity": 0.9448818897637795
        },
        {
          "duration": 0.08333325000000258,
          "durationTicks": 24,
          "midi": 82,
          "name": "A#5",
          "ticks": 13248,
          "time": 45.999953999999995,
          "velocity": 0.9448818897637795
        },
        {
          "duration": 0.08333325000000258,
          "durationTicks": 24,
          "midi": 82,
          "name": "A#5",
          "ticks": 13272,
          "time": 46.08328725,
          "velocity": 0.9448818897637795
        },
        {
          "duration": 0.08333324999999547,
          "durationTicks": 24,
          "midi": 82,
          "name": "A#5",
          "ticks": 13296,
          "time": 46.1666205,
          "velocity": 0.9448818897637795
        },
        {
          "duration": 0.08333325000000258,
          "durationTicks": 24,
          "midi": 82,
          "name": "A#5",
          "ticks": 13320,
          "time": 46.249953749999996,
          "velocity": 0.9448818897637795
        },
        {
          "duration": 0.08333325000000258,
          "durationTicks": 24,
          "midi": 40,
          "name": "E2",
          "ticks": 13344,
          "time": 46.333287,
          "velocity": 0.9448818897637795
        },
        {
          "duration": 0.08333325000000258,
          "durationTicks": 24,
          "midi": 36,
          "name": "C2",
          "ticks": 13344,
          "time": 46.333287,
          "velocity": 0.9448818897637795
        },
        {
          "duration": 0.08333325000000258,
          "durationTicks": 24,
          "midi": 82,
          "name": "A#5",
          "ticks": 13344,
          "time": 46.333287,
          "velocity": 0.9448818897637795
        },
        {
          "duration": 0.08333324999999547,
          "durationTicks": 24,
          "midi": 82,
          "name": "A#5",
          "ticks": 13368,
          "time": 46.41662025,
          "velocity": 0.9448818897637795
        },
        {
          "duration": 0.08333325000000258,
          "durationTicks": 24,
          "midi": 82,
          "name": "A#5",
          "ticks": 13392,
          "time": 46.4999535,
          "velocity": 0.9448818897637795
        },
        {
          "duration": 0.08333325000000258,
          "durationTicks": 24,
          "midi": 82,
          "name": "A#5",
          "ticks": 13416,
          "time": 46.58328675,
          "velocity": 0.9448818897637795
        },
        {
          "duration": 0.08333324999999547,
          "durationTicks": 24,
          "midi": 36,
          "name": "C2",
          "ticks": 13440,
          "time": 46.66662,
          "velocity": 0.9448818897637795
        },
        {
          "duration": 0.08333324999999547,
          "durationTicks": 24,
          "midi": 82,
          "name": "A#5",
          "ticks": 13440,
          "time": 46.66662,
          "velocity": 0.9448818897637795
        },
        {
          "duration": 0.08333325000000258,
          "durationTicks": 24,
          "midi": 82,
          "name": "A#5",
          "ticks": 13464,
          "time": 46.74995325,
          "velocity": 0.9448818897637795
        },
        {
          "duration": 0.08333324999999547,
          "durationTicks": 24,
          "midi": 82,
          "name": "A#5",
          "ticks": 13488,
          "time": 46.8332865,
          "velocity": 0.9448818897637795
        },
        {
          "duration": 0.08333325000000258,
          "durationTicks": 24,
          "midi": 82,
          "name": "A#5",
          "ticks": 13512,
          "time": 46.916619749999995,
          "velocity": 0.9448818897637795
        },
        {
          "duration": 0.08333325000000258,
          "durationTicks": 24,
          "midi": 36,
          "name": "C2",
          "ticks": 13536,
          "time": 46.999953,
          "velocity": 0.9448818897637795
        },
        {
          "duration": 0.08333325000000258,
          "durationTicks": 24,
          "midi": 40,
          "name": "E2",
          "ticks": 13536,
          "time": 46.999953,
          "velocity": 0.9448818897637795
        },
        {
          "duration": 0.08333325000000258,
          "durationTicks": 24,
          "midi": 82,
          "name": "A#5",
          "ticks": 13536,
          "time": 46.999953,
          "velocity": 0.9448818897637795
        },
        {
          "duration": 0.08333324999999547,
          "durationTicks": 24,
          "midi": 82,
          "name": "A#5",
          "ticks": 13560,
          "time": 47.08328625,
          "velocity": 0.9448818897637795
        },
        {
          "duration": 0.08333325000000258,
          "durationTicks": 24,
          "midi": 82,
          "name": "A#5",
          "ticks": 13584,
          "time": 47.166619499999996,
          "velocity": 0.9448818897637795
        },
        {
          "duration": 0.08333325000000258,
          "durationTicks": 24,
          "midi": 82,
          "name": "A#5",
          "ticks": 13608,
          "time": 47.24995275,
          "velocity": 0.9448818897637795
        },
        {
          "duration": 0.08333324999999547,
          "durationTicks": 24,
          "midi": 36,
          "name": "C2",
          "ticks": 13632,
          "time": 47.333286,
          "velocity": 0.9448818897637795
        },
        {
          "duration": 0.08333324999999547,
          "durationTicks": 24,
          "midi": 82,
          "name": "A#5",
          "ticks": 13632,
          "time": 47.333286,
          "velocity": 0.9448818897637795
        },
        {
          "duration": 0.08333325000000258,
          "durationTicks": 24,
          "midi": 82,
          "name": "A#5",
          "ticks": 13656,
          "time": 47.41661925,
          "velocity": 0.9448818897637795
        },
        {
          "duration": 0.08333325000000258,
          "durationTicks": 24,
          "midi": 82,
          "name": "A#5",
          "ticks": 13680,
          "time": 47.4999525,
          "velocity": 0.9448818897637795
        },
        {
          "duration": 0.08333324999999547,
          "durationTicks": 24,
          "midi": 82,
          "name": "A#5",
          "ticks": 13704,
          "time": 47.58328575,
          "velocity": 0.9448818897637795
        },
        {
          "duration": 0.08333325000000258,
          "durationTicks": 24,
          "midi": 36,
          "name": "C2",
          "ticks": 13728,
          "time": 47.666619,
          "velocity": 0.9448818897637795
        },
        {
          "duration": 0.08333325000000258,
          "durationTicks": 24,
          "midi": 40,
          "name": "E2",
          "ticks": 13728,
          "time": 47.666619,
          "velocity": 0.9448818897637795
        },
        {
          "duration": 0.08333325000000258,
          "durationTicks": 24,
          "midi": 82,
          "name": "A#5",
          "ticks": 13728,
          "time": 47.666619,
          "velocity": 0.9448818897637795
        },
        {
          "duration": 0.08333324999999547,
          "durationTicks": 24,
          "midi": 82,
          "name": "A#5",
          "ticks": 13752,
          "time": 47.74995225,
          "velocity": 0.9448818897637795
        },
        {
          "duration": 0.08333325000000258,
          "durationTicks": 24,
          "midi": 82,
          "name": "A#5",
          "ticks": 13776,
          "time": 47.833285499999995,
          "velocity": 0.9448818897637795
        },
        {
          "duration": 0.08333325000000258,
          "durationTicks": 24,
          "midi": 82,
          "name": "A#5",
          "ticks": 13800,
          "time": 47.91661875,
          "velocity": 0.9448818897637795
        },
        {
          "duration": 0.08333324999999547,
          "durationTicks": 24,
          "midi": 36,
          "name": "C2",
          "ticks": 13824,
          "time": 47.999952,
          "velocity": 0.9448818897637795
        },
        {
          "duration": 0.08333324999999547,
          "durationTicks": 24,
          "midi": 82,
          "name": "A#5",
          "ticks": 13824,
          "time": 47.999952,
          "velocity": 0.9448818897637795
        },
        {
          "duration": 0.08333325000000258,
          "durationTicks": 24,
          "midi": 82,
          "name": "A#5",
          "ticks": 13848,
          "time": 48.083285249999996,
          "velocity": 0.9448818897637795
        },
        {
          "duration": 0.08333325000000258,
          "durationTicks": 24,
          "midi": 82,
          "name": "A#5",
          "ticks": 13872,
          "time": 48.1666185,
          "velocity": 0.9448818897637795
        },
        {
          "duration": 0.08333324999999547,
          "durationTicks": 24,
          "midi": 82,
          "name": "A#5",
          "ticks": 13896,
          "time": 48.24995175,
          "velocity": 0.9448818897637795
        },
        {
          "duration": 0.08333325000000258,
          "durationTicks": 24,
          "midi": 40,
          "name": "E2",
          "ticks": 13920,
          "time": 48.333285,
          "velocity": 0.9448818897637795
        },
        {
          "duration": 0.08333325000000258,
          "durationTicks": 24,
          "midi": 36,
          "name": "C2",
          "ticks": 13920,
          "time": 48.333285,
          "velocity": 0.9448818897637795
        },
        {
          "duration": 0.08333325000000258,
          "durationTicks": 24,
          "midi": 82,
          "name": "A#5",
          "ticks": 13920,
          "time": 48.333285,
          "velocity": 0.9448818897637795
        },
        {
          "duration": 0.08333325000000258,
          "durationTicks": 24,
          "midi": 82,
          "name": "A#5",
          "ticks": 13944,
          "time": 48.41661825,
          "velocity": 0.9448818897637795
        },
        {
          "duration": 0.08333324999999547,
          "durationTicks": 24,
          "midi": 82,
          "name": "A#5",
          "ticks": 13968,
          "time": 48.4999515,
          "velocity": 0.9448818897637795
        },
        {
          "duration": 0.08333325000000258,
          "durationTicks": 24,
          "midi": 82,
          "name": "A#5",
          "ticks": 13992,
          "time": 48.58328475,
          "velocity": 0.9448818897637795
        },
        {
          "duration": 0.08333324999999547,
          "durationTicks": 24,
          "midi": 36,
          "name": "C2",
          "ticks": 14016,
          "time": 48.666618,
          "velocity": 0.9448818897637795
        },
        {
          "duration": 0.08333324999999547,
          "durationTicks": 24,
          "midi": 82,
          "name": "A#5",
          "ticks": 14016,
          "time": 48.666618,
          "velocity": 0.9448818897637795
        },
        {
          "duration": 0.08333325000000258,
          "durationTicks": 24,
          "midi": 82,
          "name": "A#5",
          "ticks": 14040,
          "time": 48.749951249999995,
          "velocity": 0.9448818897637795
        },
        {
          "duration": 0.08333325000000258,
          "durationTicks": 24,
          "midi": 82,
          "name": "A#5",
          "ticks": 14064,
          "time": 48.8332845,
          "velocity": 0.9448818897637795
        },
        {
          "duration": 0.08333324999999547,
          "durationTicks": 24,
          "midi": 82,
          "name": "A#5",
          "ticks": 14088,
          "time": 48.91661775,
          "velocity": 0.9448818897637795
        },
        {
          "duration": 0.08333325000000258,
          "durationTicks": 24,
          "midi": 40,
          "name": "E2",
          "ticks": 14112,
          "time": 48.999950999999996,
          "velocity": 0.9448818897637795
        },
        {
          "duration": 0.08333325000000258,
          "durationTicks": 24,
          "midi": 36,
          "name": "C2",
          "ticks": 14112,
          "time": 48.999950999999996,
          "velocity": 0.9448818897637795
        },
        {
          "duration": 0.08333325000000258,
          "durationTicks": 24,
          "midi": 82,
          "name": "A#5",
          "ticks": 14112,
          "time": 48.999950999999996,
          "velocity": 0.9448818897637795
        },
        {
          "duration": 0.08333325000000258,
          "durationTicks": 24,
          "midi": 82,
          "name": "A#5",
          "ticks": 14136,
          "time": 49.08328425,
          "velocity": 0.9448818897637795
        },
        {
          "duration": 0.08333324999999547,
          "durationTicks": 24,
          "midi": 82,
          "name": "A#5",
          "ticks": 14160,
          "time": 49.1666175,
          "velocity": 0.9448818897637795
        },
        {
          "duration": 0.08333325000000258,
          "durationTicks": 24,
          "midi": 82,
          "name": "A#5",
          "ticks": 14184,
          "time": 49.249950749999996,
          "velocity": 0.9448818897637795
        },
        {
          "duration": 0.08333325000000258,
          "durationTicks": 24,
          "midi": 82,
          "name": "A#5",
          "ticks": 14208,
          "time": 49.333284,
          "velocity": 0.9448818897637795
        },
        {
          "duration": 0.08333325000000258,
          "durationTicks": 24,
          "midi": 36,
          "name": "C2",
          "ticks": 14208,
          "time": 49.333284,
          "velocity": 0.9448818897637795
        },
        {
          "duration": 0.08333324999999547,
          "durationTicks": 24,
          "midi": 82,
          "name": "A#5",
          "ticks": 14232,
          "time": 49.41661725,
          "velocity": 0.9448818897637795
        },
        {
          "duration": 0.08333325000000258,
          "durationTicks": 24,
          "midi": 82,
          "name": "A#5",
          "ticks": 14256,
          "time": 49.4999505,
          "velocity": 0.9448818897637795
        },
        {
          "duration": 0.08333324999999547,
          "durationTicks": 24,
          "midi": 82,
          "name": "A#5",
          "ticks": 14280,
          "time": 49.58328375,
          "velocity": 0.9448818897637795
        },
        {
          "duration": 0.08333325000000258,
          "durationTicks": 24,
          "midi": 36,
          "name": "C2",
          "ticks": 14304,
          "time": 49.666616999999995,
          "velocity": 0.9448818897637795
        },
        {
          "duration": 0.08333325000000258,
          "durationTicks": 24,
          "midi": 40,
          "name": "E2",
          "ticks": 14304,
          "time": 49.666616999999995,
          "velocity": 0.9448818897637795
        },
        {
          "duration": 0.08333325000000258,
          "durationTicks": 24,
          "midi": 82,
          "name": "A#5",
          "ticks": 14304,
          "time": 49.666616999999995,
          "velocity": 0.9448818897637795
        },
        {
          "duration": 0.08333325000000258,
          "durationTicks": 24,
          "midi": 82,
          "name": "A#5",
          "ticks": 14328,
          "time": 49.74995025,
          "velocity": 0.9448818897637795
        },
        {
          "duration": 0.08333324999999547,
          "durationTicks": 24,
          "midi": 82,
          "name": "A#5",
          "ticks": 14352,
          "time": 49.8332835,
          "velocity": 0.9448818897637795
        },
        {
          "duration": 0.08333325000000258,
          "durationTicks": 24,
          "midi": 82,
          "name": "A#5",
          "ticks": 14376,
          "time": 49.916616749999996,
          "velocity": 0.9448818897637795
        },
        {
          "duration": 0.08333325000000258,
          "durationTicks": 24,
          "midi": 82,
          "name": "A#5",
          "ticks": 14400,
          "time": 49.99995,
          "velocity": 0.9448818897637795
        },
        {
          "duration": 0.08333325000000258,
          "durationTicks": 24,
          "midi": 36,
          "name": "C2",
          "ticks": 14400,
          "time": 49.99995,
          "velocity": 0.9448818897637795
        },
        {
          "duration": 0.08333324999999547,
          "durationTicks": 24,
          "midi": 82,
          "name": "A#5",
          "ticks": 14424,
          "time": 50.08328325,
          "velocity": 0.9448818897637795
        },
        {
          "duration": 0.08333325000000258,
          "durationTicks": 24,
          "midi": 82,
          "name": "A#5",
          "ticks": 14448,
          "time": 50.166616499999996,
          "velocity": 0.9448818897637795
        },
        {
          "duration": 0.08333325000000258,
          "durationTicks": 24,
          "midi": 82,
          "name": "A#5",
          "ticks": 14472,
          "time": 50.24994975,
          "velocity": 0.9448818897637795
        },
        {
          "duration": 0.08333324999999547,
          "durationTicks": 24,
          "midi": 36,
          "name": "C2",
          "ticks": 14496,
          "time": 50.333283,
          "velocity": 0.9448818897637795
        },
        {
          "duration": 0.08333324999999547,
          "durationTicks": 24,
          "midi": 40,
          "name": "E2",
          "ticks": 14496,
          "time": 50.333283,
          "velocity": 0.9448818897637795
        },
        {
          "duration": 0.08333324999999547,
          "durationTicks": 24,
          "midi": 82,
          "name": "A#5",
          "ticks": 14496,
          "time": 50.333283,
          "velocity": 0.9448818897637795
        },
        {
          "duration": 0.08333325000000258,
          "durationTicks": 24,
          "midi": 82,
          "name": "A#5",
          "ticks": 14520,
          "time": 50.41661625,
          "velocity": 0.9448818897637795
        },
        {
          "duration": 0.08333324999999547,
          "durationTicks": 24,
          "midi": 82,
          "name": "A#5",
          "ticks": 14544,
          "time": 50.4999495,
          "velocity": 0.9448818897637795
        },
        {
          "duration": 0.08333325000000258,
          "durationTicks": 24,
          "midi": 82,
          "name": "A#5",
          "ticks": 14568,
          "time": 50.583282749999995,
          "velocity": 0.9448818897637795
        },
        {
          "duration": 0.08333325000000258,
          "durationTicks": 24,
          "midi": 82,
          "name": "A#5",
          "ticks": 14592,
          "time": 50.666616,
          "velocity": 0.9448818897637795
        },
        {
          "duration": 0.08333325000000258,
          "durationTicks": 24,
          "midi": 36,
          "name": "C2",
          "ticks": 14592,
          "time": 50.666616,
          "velocity": 0.9448818897637795
        },
        {
          "duration": 0.08333325000000258,
          "durationTicks": 24,
          "midi": 82,
          "name": "A#5",
          "ticks": 14592,
          "time": 50.666616,
          "velocity": 0.9448818897637795
        },
        {
          "duration": 0.08333324999999547,
          "durationTicks": 24,
          "midi": 82,
          "name": "A#5",
          "ticks": 14616,
          "time": 50.74994925,
          "velocity": 0.9448818897637795
        },
        {
          "duration": 0.08333325000000258,
          "durationTicks": 24,
          "midi": 82,
          "name": "A#5",
          "ticks": 14640,
          "time": 50.833282499999996,
          "velocity": 0.9448818897637795
        },
        {
          "duration": 0.08333325000000258,
          "durationTicks": 24,
          "midi": 82,
          "name": "A#5",
          "ticks": 14664,
          "time": 50.91661575,
          "velocity": 0.9448818897637795
        },
        {
          "duration": 0.08333324999999547,
          "durationTicks": 24,
          "midi": 36,
          "name": "C2",
          "ticks": 14688,
          "time": 50.999949,
          "velocity": 0.9448818897637795
        },
        {
          "duration": 0.08333324999999547,
          "durationTicks": 24,
          "midi": 40,
          "name": "E2",
          "ticks": 14688,
          "time": 50.999949,
          "velocity": 0.9448818897637795
        },
        {
          "duration": 0.08333324999999547,
          "durationTicks": 24,
          "midi": 82,
          "name": "A#5",
          "ticks": 14688,
          "time": 50.999949,
          "velocity": 0.9448818897637795
        },
        {
          "duration": 0.08333325000000258,
          "durationTicks": 24,
          "midi": 82,
          "name": "A#5",
          "ticks": 14712,
          "time": 51.083282249999996,
          "velocity": 0.9448818897637795
        },
        {
          "duration": 0.08333325000000258,
          "durationTicks": 24,
          "midi": 82,
          "name": "A#5",
          "ticks": 14736,
          "time": 51.1666155,
          "velocity": 0.9448818897637795
        },
        {
          "duration": 0.08333324999999547,
          "durationTicks": 24,
          "midi": 82,
          "name": "A#5",
          "ticks": 14760,
          "time": 51.24994875,
          "velocity": 0.9448818897637795
        },
        {
          "duration": 0.08333325000000258,
          "durationTicks": 24,
          "midi": 82,
          "name": "A#5",
          "ticks": 14784,
          "time": 51.333282,
          "velocity": 0.9448818897637795
        },
        {
          "duration": 0.08333325000000258,
          "durationTicks": 24,
          "midi": 36,
          "name": "C2",
          "ticks": 14784,
          "time": 51.333282,
          "velocity": 0.9448818897637795
        },
        {
          "duration": 0.08333324999999547,
          "durationTicks": 24,
          "midi": 82,
          "name": "A#5",
          "ticks": 14808,
          "time": 51.41661525,
          "velocity": 0.9448818897637795
        },
        {
          "duration": 0.08333325000000258,
          "durationTicks": 24,
          "midi": 82,
          "name": "A#5",
          "ticks": 14832,
          "time": 51.499948499999995,
          "velocity": 0.9448818897637795
        },
        {
          "duration": 0.08333325000000258,
          "durationTicks": 24,
          "midi": 82,
          "name": "A#5",
          "ticks": 14856,
          "time": 51.58328175,
          "velocity": 0.9448818897637795
        },
        {
          "duration": 0.08333324999999547,
          "durationTicks": 24,
          "midi": 82,
          "name": "A#5",
          "ticks": 14880,
          "time": 51.666615,
          "velocity": 0.9448818897637795
        },
        {
          "duration": 0.08333324999999547,
          "durationTicks": 24,
          "midi": 40,
          "name": "E2",
          "ticks": 14880,
          "time": 51.666615,
          "velocity": 0.9448818897637795
        },
        {
          "duration": 0.08333324999999547,
          "durationTicks": 24,
          "midi": 36,
          "name": "C2",
          "ticks": 14880,
          "time": 51.666615,
          "velocity": 0.9448818897637795
        },
        {
          "duration": 0.08333325000000258,
          "durationTicks": 24,
          "midi": 82,
          "name": "A#5",
          "ticks": 14976,
          "time": 51.999947999999996,
          "velocity": 0.9448818897637795
        },
        {
          "duration": 0.08333325000000258,
          "durationTicks": 24,
          "midi": 36,
          "name": "C2",
          "ticks": 14976,
          "time": 51.999947999999996,
          "velocity": 0.9448818897637795
        },
        {
          "duration": 0.08333325000000258,
          "durationTicks": 24,
          "midi": 82,
          "name": "A#5",
          "ticks": 15000,
          "time": 52.08328125,
          "velocity": 0.9448818897637795
        },
        {
          "duration": 0.08333324999999547,
          "durationTicks": 24,
          "midi": 82,
          "name": "A#5",
          "ticks": 15024,
          "time": 52.1666145,
          "velocity": 0.9448818897637795
        },
        {
          "duration": 0.08333325000000258,
          "durationTicks": 24,
          "midi": 82,
          "name": "A#5",
          "ticks": 15048,
          "time": 52.24994775,
          "velocity": 0.9448818897637795
        },
        {
          "duration": 0.08333324999999547,
          "durationTicks": 24,
          "midi": 82,
          "name": "A#5",
          "ticks": 15072,
          "time": 52.333281,
          "velocity": 0.9448818897637795
        },
        {
          "duration": 0.08333324999999547,
          "durationTicks": 24,
          "midi": 40,
          "name": "E2",
          "ticks": 15072,
          "time": 52.333281,
          "velocity": 0.9448818897637795
        },
        {
          "duration": 0.08333324999999547,
          "durationTicks": 24,
          "midi": 36,
          "name": "C2",
          "ticks": 15072,
          "time": 52.333281,
          "velocity": 0.9448818897637795
        },
        {
          "duration": 0.08333325000000258,
          "durationTicks": 24,
          "midi": 82,
          "name": "A#5",
          "ticks": 15096,
          "time": 52.416614249999995,
          "velocity": 0.9448818897637795
        },
        {
          "duration": 0.08333325000000258,
          "durationTicks": 24,
          "midi": 82,
          "name": "A#5",
          "ticks": 15120,
          "time": 52.4999475,
          "velocity": 0.9448818897637795
        },
        {
          "duration": 0.08333324999999547,
          "durationTicks": 24,
          "midi": 82,
          "name": "A#5",
          "ticks": 15144,
          "time": 52.58328075,
          "velocity": 0.9448818897637795
        },
        {
          "duration": 0.08333325000000258,
          "durationTicks": 24,
          "midi": 82,
          "name": "A#5",
          "ticks": 15168,
          "time": 52.666613999999996,
          "velocity": 0.9448818897637795
        },
        {
          "duration": 0.08333325000000258,
          "durationTicks": 24,
          "midi": 36,
          "name": "C2",
          "ticks": 15168,
          "time": 52.666613999999996,
          "velocity": 0.9448818897637795
        },
        {
          "duration": 0.08333325000000258,
          "durationTicks": 24,
          "midi": 82,
          "name": "A#5",
          "ticks": 15192,
          "time": 52.74994725,
          "velocity": 0.9448818897637795
        },
        {
          "duration": 0.08333324999999547,
          "durationTicks": 24,
          "midi": 82,
          "name": "A#5",
          "ticks": 15216,
          "time": 52.8332805,
          "velocity": 0.9448818897637795
        },
        {
          "duration": 0.08333325000000258,
          "durationTicks": 24,
          "midi": 82,
          "name": "A#5",
          "ticks": 15240,
          "time": 52.916613749999996,
          "velocity": 0.9448818897637795
        },
        {
          "duration": 0.08333325000000258,
          "durationTicks": 24,
          "midi": 82,
          "name": "A#5",
          "ticks": 15264,
          "time": 52.999947,
          "velocity": 0.9448818897637795
        },
        {
          "duration": 0.08333325000000258,
          "durationTicks": 24,
          "midi": 40,
          "name": "E2",
          "ticks": 15264,
          "time": 52.999947,
          "velocity": 0.9448818897637795
        },
        {
          "duration": 0.08333325000000258,
          "durationTicks": 24,
          "midi": 36,
          "name": "C2",
          "ticks": 15264,
          "time": 52.999947,
          "velocity": 0.9448818897637795
        },
        {
          "duration": 0.08333324999999547,
          "durationTicks": 24,
          "midi": 82,
          "name": "A#5",
          "ticks": 15288,
          "time": 53.08328025,
          "velocity": 0.9448818897637795
        },
        {
          "duration": 0.08333325000000258,
          "durationTicks": 24,
          "midi": 82,
          "name": "A#5",
          "ticks": 15312,
          "time": 53.1666135,
          "velocity": 0.9448818897637795
        },
        {
          "duration": 0.08333325000000258,
          "durationTicks": 24,
          "midi": 82,
          "name": "A#5",
          "ticks": 15336,
          "time": 53.24994675,
          "velocity": 0.9448818897637795
        },
        {
          "duration": 0.16666649999999805,
          "durationTicks": 48,
          "midi": 36,
          "name": "C2",
          "ticks": 15360,
          "time": 53.33328,
          "velocity": 0.9448818897637795
        },
        {
          "duration": 0.16666649999999805,
          "durationTicks": 48,
          "midi": 55,
          "name": "G3",
          "ticks": 15360,
          "time": 53.33328,
          "velocity": 1
        },
        {
          "duration": 0.16666649999999805,
          "durationTicks": 48,
          "midi": 46,
          "name": "A#2",
          "ticks": 15360,
          "time": 53.33328,
          "velocity": 0.9448818897637795
        },
        {
          "duration": 0.16666649999999805,
          "durationTicks": 48,
          "midi": 46,
          "name": "A#2",
          "ticks": 15456,
          "time": 53.666613,
          "velocity": 0.9448818897637795
        },
        {
          "duration": 0.16666650000000516,
          "durationTicks": 48,
          "midi": 40,
          "name": "E2",
          "ticks": 15504,
          "time": 53.833279499999996,
          "velocity": 0.9448818897637795
        },
        {
          "duration": 0.16666650000000516,
          "durationTicks": 48,
          "midi": 42,
          "name": "F#2",
          "ticks": 15504,
          "time": 53.833279499999996,
          "velocity": 0.9448818897637795
        },
        {
          "duration": 0.16666649999999805,
          "durationTicks": 48,
          "midi": 46,
          "name": "A#2",
          "ticks": 15552,
          "time": 53.999946,
          "velocity": 0.9448818897637795
        },
        {
          "duration": 0.16666649999999805,
          "durationTicks": 48,
          "midi": 36,
          "name": "C2",
          "ticks": 15600,
          "time": 54.1666125,
          "velocity": 0.9448818897637795
        },
        {
          "duration": 0.16666649999999805,
          "durationTicks": 48,
          "midi": 46,
          "name": "A#2",
          "ticks": 15648,
          "time": 54.333279,
          "velocity": 0.9448818897637795
        },
        {
          "duration": 0.16666649999999805,
          "durationTicks": 48,
          "midi": 40,
          "name": "E2",
          "ticks": 15648,
          "time": 54.333279,
          "velocity": 0.9448818897637795
        },
        {
          "duration": 0.08333325000000258,
          "durationTicks": 24,
          "midi": 46,
          "name": "A#2",
          "ticks": 15696,
          "time": 54.499945499999995,
          "velocity": 0.9448818897637795
        },
        {
          "duration": 0.08333325000000258,
          "durationTicks": 24,
          "midi": 40,
          "name": "E2",
          "ticks": 15720,
          "time": 54.58327875,
          "velocity": 0.9448818897637795
        },
        {
          "duration": 0.08333324999999547,
          "durationTicks": 24,
          "midi": 46,
          "name": "A#2",
          "ticks": 15744,
          "time": 54.666612,
          "velocity": 0.9448818897637795
        },
        {
          "duration": 0.08333325000000258,
          "durationTicks": 24,
          "midi": 40,
          "name": "E2",
          "ticks": 15768,
          "time": 54.749945249999996,
          "velocity": 0.9448818897637795
        },
        {
          "duration": 0.16666649999999805,
          "durationTicks": 48,
          "midi": 36,
          "name": "C2",
          "ticks": 15792,
          "time": 54.8332785,
          "velocity": 0.9448818897637795
        },
        {
          "duration": 0.16666650000000516,
          "durationTicks": 48,
          "midi": 46,
          "name": "A#2",
          "ticks": 15840,
          "time": 54.999945,
          "velocity": 0.9448818897637795
        },
        {
          "duration": 0.16666650000000516,
          "durationTicks": 48,
          "midi": 36,
          "name": "C2",
          "ticks": 15840,
          "time": 54.999945,
          "velocity": 0.9448818897637795
        },
        {
          "duration": 0.16666649999999805,
          "durationTicks": 48,
          "midi": 40,
          "name": "E2",
          "ticks": 15888,
          "time": 55.1666115,
          "velocity": 0.9448818897637795
        },
        {
          "duration": 0.16666649999999805,
          "durationTicks": 48,
          "midi": 46,
          "name": "A#2",
          "ticks": 15936,
          "time": 55.333278,
          "velocity": 0.9448818897637795
        },
        {
          "duration": 0.16666649999999805,
          "durationTicks": 48,
          "midi": 36,
          "name": "C2",
          "ticks": 15984,
          "time": 55.4999445,
          "velocity": 0.9448818897637795
        },
        {
          "duration": 0.16666650000000516,
          "durationTicks": 48,
          "midi": 57,
          "name": "A3",
          "ticks": 16032,
          "time": 55.666610999999996,
          "velocity": 1
        },
        {
          "duration": 0.16666650000000516,
          "durationTicks": 48,
          "midi": 40,
          "name": "E2",
          "ticks": 16032,
          "time": 55.666610999999996,
          "velocity": 0.9448818897637795
        },
        {
          "duration": 0.16666649999999805,
          "durationTicks": 48,
          "midi": 35,
          "name": "B1",
          "ticks": 16128,
          "time": 55.999944,
          "velocity": 1
        },
        {
          "duration": 0.16666649999999805,
          "durationTicks": 48,
          "midi": 55,
          "name": "G3",
          "ticks": 16128,
          "time": 55.999944,
          "velocity": 1
        },
        {
          "duration": 0.16666650000000516,
          "durationTicks": 48,
          "midi": 35,
          "name": "B1",
          "ticks": 16224,
          "time": 56.333276999999995,
          "velocity": 1
        },
        {
          "duration": 0.16666649999999805,
          "durationTicks": 48,
          "midi": 55,
          "name": "G3",
          "ticks": 16272,
          "time": 56.4999435,
          "velocity": 1
        },
        {
          "duration": 0.16666649999999805,
          "durationTicks": 48,
          "midi": 35,
          "name": "B1",
          "ticks": 16320,
          "time": 56.66661,
          "velocity": 1
        },
        {
          "duration": 0.08333325000000258,
          "durationTicks": 24,
          "midi": 35,
          "name": "B1",
          "ticks": 16368,
          "time": 56.8332765,
          "velocity": 1
        },
        {
          "duration": 0.08333325000000258,
          "durationTicks": 24,
          "midi": 35,
          "name": "B1",
          "ticks": 16392,
          "time": 56.91660975,
          "velocity": 1
        },
        {
          "duration": 0.16666649999999805,
          "durationTicks": 48,
          "midi": 42,
          "name": "F#2",
          "ticks": 16416,
          "time": 56.999943,
          "velocity": 0.9448818897637795
        },
        {
          "duration": 0.16666649999999805,
          "durationTicks": 48,
          "midi": 55,
          "name": "G3",
          "ticks": 16416,
          "time": 56.999943,
          "velocity": 1
        },
        {
          "duration": 0.16666649999999805,
          "durationTicks": 48,
          "midi": 55,
          "name": "G3",
          "ticks": 16512,
          "time": 57.333276,
          "velocity": 1
        },
        {
          "duration": 0.16666649999999805,
          "durationTicks": 48,
          "midi": 42,
          "name": "F#2",
          "ticks": 16512,
          "time": 57.333276,
          "velocity": 0.9448818897637795
        },
        {
          "duration": 0.08333324999999547,
          "durationTicks": 24,
          "midi": 42,
          "name": "F#2",
          "ticks": 16608,
          "time": 57.666609,
          "velocity": 0.9448818897637795
        },
        {
          "duration": 0.08333325000000258,
          "durationTicks": 24,
          "midi": 42,
          "name": "F#2",
          "ticks": 16632,
          "time": 57.74994225,
          "velocity": 0.9448818897637795
        },
        {
          "duration": 0.08333325000000258,
          "durationTicks": 24,
          "midi": 42,
          "name": "F#2",
          "ticks": 16656,
          "time": 57.8332755,
          "velocity": 0.9448818897637795
        },
        {
          "duration": 0.08333324999999547,
          "durationTicks": 24,
          "midi": 42,
          "name": "F#2",
          "ticks": 16680,
          "time": 57.91660875,
          "velocity": 0.9448818897637795
        },
        {
          "duration": 0.16666649999999805,
          "durationTicks": 48,
          "midi": 42,
          "name": "F#2",
          "ticks": 16704,
          "time": 57.999942,
          "velocity": 0.9448818897637795
        },
        {
          "duration": 0.08333325000000258,
          "durationTicks": 24,
          "midi": 43,
          "name": "G2",
          "ticks": 16752,
          "time": 58.166608499999995,
          "velocity": 1
        },
        {
          "duration": 0.08333325000000258,
          "durationTicks": 24,
          "midi": 43,
          "name": "G2",
          "ticks": 16776,
          "time": 58.24994175,
          "velocity": 1
        },
        {
          "duration": 0.16666649999999805,
          "durationTicks": 48,
          "midi": 87,
          "name": "D#6",
          "ticks": 16800,
          "time": 58.333275,
          "velocity": 1
        },
        {
          "duration": 0.08333325000000258,
          "durationTicks": 24,
          "midi": 67,
          "name": "G4",
          "ticks": 16848,
          "time": 58.4999415,
          "velocity": 1
        },
        {
          "duration": 0.08333324999999547,
          "durationTicks": 24,
          "midi": 67,
          "name": "G4",
          "ticks": 16872,
          "time": 58.58327475,
          "velocity": 1
        },
        {
          "duration": 0.16666650000000516,
          "durationTicks": 48,
          "midi": 42,
          "name": "F#2",
          "ticks": 16896,
          "time": 58.666608,
          "velocity": 0.9448818897637795
        },
        {
          "duration": 0.16666650000000516,
          "durationTicks": 48,
          "midi": 35,
          "name": "B1",
          "ticks": 16896,
          "time": 58.666608,
          "velocity": 1
        },
        {
          "duration": 0.16666649999999805,
          "durationTicks": 48,
          "midi": 42,
          "name": "F#2",
          "ticks": 16944,
          "time": 58.8332745,
          "velocity": 0.9448818897637795
        },
        {
          "duration": 0.16666649999999805,
          "durationTicks": 48,
          "midi": 35,
          "name": "B1",
          "ticks": 16992,
          "time": 58.999941,
          "velocity": 1
        },
        {
          "duration": 0.08333324999999547,
          "durationTicks": 24,
          "midi": 42,
          "name": "F#2",
          "ticks": 16992,
          "time": 58.999941,
          "velocity": 0.9448818897637795
        },
        {
          "duration": 0.16666650000000516,
          "durationTicks": 48,
          "midi": 42,
          "name": "F#2",
          "ticks": 17016,
          "time": 59.083274249999995,
          "velocity": 0.9448818897637795
        },
        {
          "duration": 0.08333324999999547,
          "durationTicks": 24,
          "midi": 42,
          "name": "F#2",
          "ticks": 17064,
          "time": 59.24994075,
          "velocity": 0.9448818897637795
        },
        {
          "duration": 0.16666650000000516,
          "durationTicks": 48,
          "midi": 35,
          "name": "B1",
          "ticks": 17088,
          "time": 59.333273999999996,
          "velocity": 1
        },
        {
          "duration": 0.16666650000000516,
          "durationTicks": 48,
          "midi": 42,
          "name": "F#2",
          "ticks": 17088,
          "time": 59.333273999999996,
          "velocity": 0.9448818897637795
        },
        {
          "duration": 0.16666649999999805,
          "durationTicks": 48,
          "midi": 42,
          "name": "F#2",
          "ticks": 17136,
          "time": 59.4999405,
          "velocity": 0.9448818897637795
        },
        {
          "duration": 0.16666649999999805,
          "durationTicks": 48,
          "midi": 36,
          "name": "C2",
          "ticks": 17136,
          "time": 59.4999405,
          "velocity": 0.9448818897637795
        },
        {
          "duration": 0.16666649999999805,
          "durationTicks": 48,
          "midi": 42,
          "name": "F#2",
          "ticks": 17184,
          "time": 59.666607,
          "velocity": 0.9448818897637795
        },
        {
          "duration": 0.16666649999999805,
          "durationTicks": 48,
          "midi": 36,
          "name": "C2",
          "ticks": 17232,
          "time": 59.8332735,
          "velocity": 0.9448818897637795
        },
        {
          "duration": 0.16666649999999805,
          "durationTicks": 48,
          "midi": 42,
          "name": "F#2",
          "ticks": 17232,
          "time": 59.8332735,
          "velocity": 0.9448818897637795
        },
        {
          "duration": 0.16666650000000516,
          "durationTicks": 48,
          "midi": 42,
          "name": "F#2",
          "ticks": 17280,
          "time": 59.999939999999995,
          "velocity": 0.9448818897637795
        },
        {
          "duration": 0.16666650000000516,
          "durationTicks": 48,
          "midi": 36,
          "name": "C2",
          "ticks": 17280,
          "time": 59.999939999999995,
          "velocity": 0.9448818897637795
        },
        {
          "duration": 0.16666649999999805,
          "durationTicks": 48,
          "midi": 42,
          "name": "F#2",
          "ticks": 17328,
          "time": 60.1666065,
          "velocity": 0.9448818897637795
        },
        {
          "duration": 0.08333325000000258,
          "durationTicks": 24,
          "midi": 42,
          "name": "F#2",
          "ticks": 17376,
          "time": 60.333273,
          "velocity": 0.9448818897637795
        },
        {
          "duration": 0.16666649999999805,
          "durationTicks": 48,
          "midi": 35,
          "name": "B1",
          "ticks": 17376,
          "time": 60.333273,
          "velocity": 1
        },
        {
          "duration": 0.08333324999999547,
          "durationTicks": 24,
          "midi": 42,
          "name": "F#2",
          "ticks": 17400,
          "time": 60.41660625,
          "velocity": 0.9448818897637795
        },
        {
          "duration": 0.08333325000000258,
          "durationTicks": 24,
          "midi": 42,
          "name": "F#2",
          "ticks": 17424,
          "time": 60.499939499999996,
          "velocity": 0.9448818897637795
        },
        {
          "duration": 0.08333325000000258,
          "durationTicks": 24,
          "midi": 42,
          "name": "F#2",
          "ticks": 17448,
          "time": 60.58327275,
          "velocity": 0.9448818897637795
        },
        {
          "duration": 0.16666649999999805,
          "durationTicks": 48,
          "midi": 42,
          "name": "F#2",
          "ticks": 17472,
          "time": 60.666606,
          "velocity": 0.9448818897637795
        },
        {
          "duration": 0.16666649999999805,
          "durationTicks": 48,
          "midi": 35,
          "name": "B1",
          "ticks": 17472,
          "time": 60.666606,
          "velocity": 1
        },
        {
          "duration": 0.16666649999999805,
          "durationTicks": 48,
          "midi": 36,
          "name": "C2",
          "ticks": 17520,
          "time": 60.8332725,
          "velocity": 0.9448818897637795
        },
        {
          "duration": 0.16666649999999805,
          "durationTicks": 48,
          "midi": 42,
          "name": "F#2",
          "ticks": 17520,
          "time": 60.8332725,
          "velocity": 0.9448818897637795
        },
        {
          "duration": 0.16666649999999805,
          "durationTicks": 48,
          "midi": 42,
          "name": "F#2",
          "ticks": 17568,
          "time": 60.999939,
          "velocity": 0.9448818897637795
        },
        {
          "duration": 0.16666649999999805,
          "durationTicks": 48,
          "midi": 35,
          "name": "B1",
          "ticks": 17568,
          "time": 60.999939,
          "velocity": 1
        },
        {
          "duration": 0.16666649999999805,
          "durationTicks": 48,
          "midi": 36,
          "name": "C2",
          "ticks": 17664,
          "time": 61.333272,
          "velocity": 0.9448818897637795
        },
        {
          "duration": 0.16666649999999805,
          "durationTicks": 48,
          "midi": 42,
          "name": "F#2",
          "ticks": 17664,
          "time": 61.333272,
          "velocity": 0.9448818897637795
        },
        {
          "duration": 0.16666649999999805,
          "durationTicks": 48,
          "midi": 42,
          "name": "F#2",
          "ticks": 17712,
          "time": 61.4999385,
          "velocity": 0.9448818897637795
        },
        {
          "duration": 0.08333325000000258,
          "durationTicks": 24,
          "midi": 42,
          "name": "F#2",
          "ticks": 17760,
          "time": 61.666605,
          "velocity": 0.9448818897637795
        },
        {
          "duration": 0.16666649999999805,
          "durationTicks": 48,
          "midi": 36,
          "name": "C2",
          "ticks": 17760,
          "time": 61.666605,
          "velocity": 0.9448818897637795
        },
        {
          "duration": 0.08333324999999547,
          "durationTicks": 24,
          "midi": 42,
          "name": "F#2",
          "ticks": 17784,
          "time": 61.74993825,
          "velocity": 0.9448818897637795
        },
        {
          "duration": 0.08333325000000258,
          "durationTicks": 24,
          "midi": 42,
          "name": "F#2",
          "ticks": 17808,
          "time": 61.833271499999995,
          "velocity": 0.9448818897637795
        },
        {
          "duration": 0.08333325000000258,
          "durationTicks": 24,
          "midi": 42,
          "name": "F#2",
          "ticks": 17832,
          "time": 61.91660475,
          "velocity": 0.9448818897637795
        },
        {
          "duration": 0.16666649999999805,
          "durationTicks": 48,
          "midi": 36,
          "name": "C2",
          "ticks": 17856,
          "time": 61.999938,
          "velocity": 0.9448818897637795
        },
        {
          "duration": 0.16666649999999805,
          "durationTicks": 48,
          "midi": 42,
          "name": "F#2",
          "ticks": 17856,
          "time": 61.999938,
          "velocity": 0.9448818897637795
        },
        {
          "duration": 0.16666649999999805,
          "durationTicks": 48,
          "midi": 42,
          "name": "F#2",
          "ticks": 17904,
          "time": 62.1666045,
          "velocity": 0.9448818897637795
        },
        {
          "duration": 0.08333324999999547,
          "durationTicks": 24,
          "midi": 36,
          "name": "C2",
          "ticks": 17928,
          "time": 62.24993775,
          "velocity": 0.9448818897637795
        },
        {
          "duration": 0.16666650000000516,
          "durationTicks": 48,
          "midi": 36,
          "name": "C2",
          "ticks": 17952,
          "time": 62.333270999999996,
          "velocity": 0.9448818897637795
        },
        {
          "duration": 0.16666650000000516,
          "durationTicks": 48,
          "midi": 42,
          "name": "F#2",
          "ticks": 17952,
          "time": 62.333270999999996,
          "velocity": 0.9448818897637795
        },
        {
          "duration": 0.16666649999999805,
          "durationTicks": 48,
          "midi": 42,
          "name": "F#2",
          "ticks": 18000,
          "time": 62.4999375,
          "velocity": 0.9448818897637795
        },
        {
          "duration": 0.16666649999999805,
          "durationTicks": 48,
          "midi": 42,
          "name": "F#2",
          "ticks": 18048,
          "time": 62.666604,
          "velocity": 0.9448818897637795
        },
        {
          "duration": 0.16666649999999805,
          "durationTicks": 48,
          "midi": 36,
          "name": "C2",
          "ticks": 18048,
          "time": 62.666604,
          "velocity": 0.9448818897637795
        },
        {
          "duration": 0.16666649999999805,
          "durationTicks": 48,
          "midi": 42,
          "name": "F#2",
          "ticks": 18096,
          "time": 62.8332705,
          "velocity": 0.9448818897637795
        },
        {
          "duration": 0.16666650000000516,
          "durationTicks": 48,
          "midi": 36,
          "name": "C2",
          "ticks": 18144,
          "time": 62.999936999999996,
          "velocity": 0.9448818897637795
        },
        {
          "duration": 0.08333325000000258,
          "durationTicks": 24,
          "midi": 42,
          "name": "F#2",
          "ticks": 18144,
          "time": 62.999936999999996,
          "velocity": 0.9448818897637795
        },
        {
          "duration": 0.08333325000000258,
          "durationTicks": 24,
          "midi": 42,
          "name": "F#2",
          "ticks": 18168,
          "time": 63.08327025,
          "velocity": 0.9448818897637795
        },
        {
          "duration": 0.08333324999999547,
          "durationTicks": 24,
          "midi": 42,
          "name": "F#2",
          "ticks": 18192,
          "time": 63.1666035,
          "velocity": 0.9448818897637795
        },
        {
          "duration": 0.08333325000000258,
          "durationTicks": 24,
          "midi": 42,
          "name": "F#2",
          "ticks": 18216,
          "time": 63.249936749999996,
          "velocity": 0.9448818897637795
        },
        {
          "duration": 0.16666649999999805,
          "durationTicks": 48,
          "midi": 36,
          "name": "C2",
          "ticks": 18240,
          "time": 63.33327,
          "velocity": 0.9448818897637795
        },
        {
          "duration": 0.16666649999999805,
          "durationTicks": 48,
          "midi": 42,
          "name": "F#2",
          "ticks": 18240,
          "time": 63.33327,
          "velocity": 0.9448818897637795
        },
        {
          "duration": 0.08333325000000258,
          "durationTicks": 24,
          "midi": 36,
          "name": "C2",
          "ticks": 18288,
          "time": 63.4999365,
          "velocity": 0.9448818897637795
        },
        {
          "duration": 0.08333324999999547,
          "durationTicks": 24,
          "midi": 36,
          "name": "C2",
          "ticks": 18312,
          "time": 63.58326975,
          "velocity": 0.9448818897637795
        },
        {
          "duration": 0.16666650000000516,
          "durationTicks": 48,
          "midi": 87,
          "name": "D#6",
          "ticks": 18336,
          "time": 63.666602999999995,
          "velocity": 1
        },
        {
          "duration": 0.08333324999999547,
          "durationTicks": 24,
          "midi": 67,
          "name": "G4",
          "ticks": 18384,
          "time": 63.8332695,
          "velocity": 1
        },
        {
          "duration": 0.08333325000000258,
          "durationTicks": 24,
          "midi": 67,
          "name": "G4",
          "ticks": 18408,
          "time": 63.916602749999996,
          "velocity": 1
        },
        {
          "duration": 0.16666649999999805,
          "durationTicks": 48,
          "midi": 36,
          "name": "C2",
          "ticks": 18432,
          "time": 63.999936,
          "velocity": 0.9448818897637795
        },
        {
          "duration": 0.16666649999999805,
          "durationTicks": 48,
          "midi": 42,
          "name": "F#2",
          "ticks": 18432,
          "time": 63.999936,
          "velocity": 0.9448818897637795
        },
        {
          "duration": 0.16666650000000516,
          "durationTicks": 48,
          "midi": 42,
          "name": "F#2",
          "ticks": 18480,
          "time": 64.1666025,
          "velocity": 0.9448818897637795
        },
        {
          "duration": 0.16666649999999095,
          "durationTicks": 48,
          "midi": 36,
          "name": "C2",
          "ticks": 18528,
          "time": 64.333269,
          "velocity": 0.9448818897637795
        },
        {
          "duration": 0.08333324999999547,
          "durationTicks": 24,
          "midi": 42,
          "name": "F#2",
          "ticks": 18528,
          "time": 64.333269,
          "velocity": 0.9448818897637795
        },
        {
          "duration": 0.08333324999999547,
          "durationTicks": 24,
          "midi": 42,
          "name": "F#2",
          "ticks": 18552,
          "time": 64.41660225,
          "velocity": 0.9448818897637795
        },
        {
          "duration": 0.08333325000000968,
          "durationTicks": 24,
          "midi": 42,
          "name": "F#2",
          "ticks": 18576,
          "time": 64.49993549999999,
          "velocity": 0.9448818897637795
        },
        {
          "duration": 0.08333324999999547,
          "durationTicks": 24,
          "midi": 42,
          "name": "F#2",
          "ticks": 18600,
          "time": 64.58326875,
          "velocity": 0.9448818897637795
        },
        {
          "duration": 0.16666650000000516,
          "durationTicks": 48,
          "midi": 36,
          "name": "C2",
          "ticks": 18624,
          "time": 64.666602,
          "velocity": 0.9448818897637795
        },
        {
          "duration": 0.16666650000000516,
          "durationTicks": 48,
          "midi": 42,
          "name": "F#2",
          "ticks": 18624,
          "time": 64.666602,
          "velocity": 0.9448818897637795
        },
        {
          "duration": 0.08333324999999547,
          "durationTicks": 24,
          "midi": 42,
          "name": "F#2",
          "ticks": 18672,
          "time": 64.8332685,
          "velocity": 0.9448818897637795
        },
        {
          "duration": 0.08333324999999547,
          "durationTicks": 24,
          "midi": 36,
          "name": "C2",
          "ticks": 18696,
          "time": 64.91660175,
          "velocity": 0.9448818897637795
        },
        {
          "duration": 0.08333325000000968,
          "durationTicks": 24,
          "midi": 42,
          "name": "F#2",
          "ticks": 18720,
          "time": 64.999935,
          "velocity": 0.9448818897637795
        },
        {
          "duration": 0.16666650000000516,
          "durationTicks": 48,
          "midi": 42,
          "name": "F#2",
          "ticks": 18768,
          "time": 65.1666015,
          "velocity": 0.9448818897637795
        },
        {
          "duration": 0.16666650000000516,
          "durationTicks": 48,
          "midi": 36,
          "name": "C2",
          "ticks": 18768,
          "time": 65.1666015,
          "velocity": 0.9448818897637795
        },
        {
          "duration": 0.16666649999999095,
          "durationTicks": 48,
          "midi": 42,
          "name": "F#2",
          "ticks": 18816,
          "time": 65.333268,
          "velocity": 0.9448818897637795
        },
        {
          "duration": 0.16666649999999095,
          "durationTicks": 48,
          "midi": 36,
          "name": "C2",
          "ticks": 18816,
          "time": 65.333268,
          "velocity": 0.9448818897637795
        },
        {
          "duration": 0.16666650000000516,
          "durationTicks": 48,
          "midi": 42,
          "name": "F#2",
          "ticks": 18864,
          "time": 65.4999345,
          "velocity": 0.9448818897637795
        },
        {
          "duration": 0.08333324999999547,
          "durationTicks": 24,
          "midi": 42,
          "name": "F#2",
          "ticks": 18912,
          "time": 65.666601,
          "velocity": 0.9448818897637795
        },
        {
          "duration": 0.16666650000000516,
          "durationTicks": 48,
          "midi": 36,
          "name": "C2",
          "ticks": 18912,
          "time": 65.666601,
          "velocity": 0.9448818897637795
        },
        {
          "duration": 0.08333325000000968,
          "durationTicks": 24,
          "midi": 42,
          "name": "F#2",
          "ticks": 18936,
          "time": 65.74993425,
          "velocity": 0.9448818897637795
        },
        {
          "duration": 0.08333324999999547,
          "durationTicks": 24,
          "midi": 42,
          "name": "F#2",
          "ticks": 18960,
          "time": 65.8332675,
          "velocity": 0.9448818897637795
        },
        {
          "duration": 0.08333324999999547,
          "durationTicks": 24,
          "midi": 42,
          "name": "F#2",
          "ticks": 18984,
          "time": 65.91660075,
          "velocity": 0.9448818897637795
        },
        {
          "duration": 0.16666650000000516,
          "durationTicks": 48,
          "midi": 42,
          "name": "F#2",
          "ticks": 19008,
          "time": 65.999934,
          "velocity": 0.9448818897637795
        },
        {
          "duration": 0.16666650000000516,
          "durationTicks": 48,
          "midi": 36,
          "name": "C2",
          "ticks": 19008,
          "time": 65.999934,
          "velocity": 0.9448818897637795
        },
        {
          "duration": 0.16666649999999095,
          "durationTicks": 48,
          "midi": 42,
          "name": "F#2",
          "ticks": 19056,
          "time": 66.1666005,
          "velocity": 0.9448818897637795
        },
        {
          "duration": 0.08333324999999547,
          "durationTicks": 24,
          "midi": 36,
          "name": "C2",
          "ticks": 19080,
          "time": 66.24993375,
          "velocity": 0.9448818897637795
        },
        {
          "duration": 0.16666650000000516,
          "durationTicks": 48,
          "midi": 38,
          "name": "D2",
          "ticks": 19104,
          "time": 66.33326699999999,
          "velocity": 0.9448818897637795
        },
        {
          "duration": 0.08333324999999547,
          "durationTicks": 24,
          "midi": 82,
          "name": "A#5",
          "ticks": 19200,
          "time": 66.6666,
          "velocity": 0.9448818897637795
        },
        {
          "duration": 0.08333324999999547,
          "durationTicks": 24,
          "midi": 49,
          "name": "C#3",
          "ticks": 19200,
          "time": 66.6666,
          "velocity": 0.9763779527559056
        },
        {
          "duration": 0.08333324999999547,
          "durationTicks": 24,
          "midi": 36,
          "name": "C2",
          "ticks": 19200,
          "time": 66.6666,
          "velocity": 0.9448818897637795
        },
        {
          "duration": 0.08333324999999547,
          "durationTicks": 24,
          "midi": 82,
          "name": "A#5",
          "ticks": 19224,
          "time": 66.74993325,
          "velocity": 0.9448818897637795
        },
        {
          "duration": 0.08333325000000968,
          "durationTicks": 24,
          "midi": 82,
          "name": "A#5",
          "ticks": 19248,
          "time": 66.8332665,
          "velocity": 0.9448818897637795
        },
        {
          "duration": 0.08333324999999547,
          "durationTicks": 24,
          "midi": 82,
          "name": "A#5",
          "ticks": 19272,
          "time": 66.91659975,
          "velocity": 0.9448818897637795
        },
        {
          "duration": 0.08333324999999547,
          "durationTicks": 24,
          "midi": 82,
          "name": "A#5",
          "ticks": 19296,
          "time": 66.999933,
          "velocity": 0.9448818897637795
        },
        {
          "duration": 0.08333324999999547,
          "durationTicks": 24,
          "midi": 36,
          "name": "C2",
          "ticks": 19296,
          "time": 66.999933,
          "velocity": 0.9448818897637795
        },
        {
          "duration": 0.08333325000000968,
          "durationTicks": 24,
          "midi": 82,
          "name": "A#5",
          "ticks": 19320,
          "time": 67.08326625,
          "velocity": 0.9448818897637795
        },
        {
          "duration": 0.08333324999999547,
          "durationTicks": 24,
          "midi": 82,
          "name": "A#5",
          "ticks": 19344,
          "time": 67.1665995,
          "velocity": 0.9448818897637795
        },
        {
          "duration": 0.08333324999999547,
          "durationTicks": 24,
          "midi": 82,
          "name": "A#5",
          "ticks": 19368,
          "time": 67.24993275,
          "velocity": 0.9448818897637795
        },
        {
          "duration": 0.08333325000000968,
          "durationTicks": 24,
          "midi": 82,
          "name": "A#5",
          "ticks": 19392,
          "time": 67.333266,
          "velocity": 0.9448818897637795
        },
        {
          "duration": 0.08333325000000968,
          "durationTicks": 24,
          "midi": 36,
          "name": "C2",
          "ticks": 19392,
          "time": 67.333266,
          "velocity": 0.9448818897637795
        },
        {
          "duration": 0.08333324999999547,
          "durationTicks": 24,
          "midi": 82,
          "name": "A#5",
          "ticks": 19416,
          "time": 67.41659925,
          "velocity": 0.9448818897637795
        },
        {
          "duration": 0.08333324999999547,
          "durationTicks": 24,
          "midi": 82,
          "name": "A#5",
          "ticks": 19440,
          "time": 67.4999325,
          "velocity": 0.9448818897637795
        },
        {
          "duration": 0.08333325000000968,
          "durationTicks": 24,
          "midi": 36,
          "name": "C2",
          "ticks": 19464,
          "time": 67.58326575,
          "velocity": 0.9448818897637795
        },
        {
          "duration": 0.08333325000000968,
          "durationTicks": 24,
          "midi": 82,
          "name": "A#5",
          "ticks": 19464,
          "time": 67.58326575,
          "velocity": 0.9448818897637795
        },
        {
          "duration": 0.08333324999999547,
          "durationTicks": 24,
          "midi": 38,
          "name": "D2",
          "ticks": 19488,
          "time": 67.666599,
          "velocity": 0.9448818897637795
        },
        {
          "duration": 0.08333324999999547,
          "durationTicks": 24,
          "midi": 82,
          "name": "A#5",
          "ticks": 19488,
          "time": 67.666599,
          "velocity": 0.9448818897637795
        },
        {
          "duration": 0.08333324999999547,
          "durationTicks": 24,
          "midi": 82,
          "name": "A#5",
          "ticks": 19512,
          "time": 67.74993225,
          "velocity": 0.9448818897637795
        },
        {
          "duration": 0.08333324999999547,
          "durationTicks": 24,
          "midi": 36,
          "name": "C2",
          "ticks": 19536,
          "time": 67.8332655,
          "velocity": 0.9448818897637795
        },
        {
          "duration": 0.08333324999999547,
          "durationTicks": 24,
          "midi": 82,
          "name": "A#5",
          "ticks": 19536,
          "time": 67.8332655,
          "velocity": 0.9448818897637795
        },
        {
          "duration": 0.08333325000000968,
          "durationTicks": 24,
          "midi": 82,
          "name": "A#5",
          "ticks": 19560,
          "time": 67.91659874999999,
          "velocity": 0.9448818897637795
        },
        {
          "duration": 0.08333324999999547,
          "durationTicks": 24,
          "midi": 82,
          "name": "A#5",
          "ticks": 19584,
          "time": 67.999932,
          "velocity": 0.9448818897637795
        },
        {
          "duration": 0.08333324999999547,
          "durationTicks": 24,
          "midi": 36,
          "name": "C2",
          "ticks": 19584,
          "time": 67.999932,
          "velocity": 0.9448818897637795
        },
        {
          "duration": 0.08333324999999547,
          "durationTicks": 24,
          "midi": 82,
          "name": "A#5",
          "ticks": 19608,
          "time": 68.08326525,
          "velocity": 0.9448818897637795
        },
        {
          "duration": 0.08333325000000968,
          "durationTicks": 24,
          "midi": 82,
          "name": "A#5",
          "ticks": 19632,
          "time": 68.16659849999999,
          "velocity": 0.9448818897637795
        },
        {
          "duration": 0.08333324999999547,
          "durationTicks": 24,
          "midi": 82,
          "name": "A#5",
          "ticks": 19656,
          "time": 68.24993175,
          "velocity": 0.9448818897637795
        },
        {
          "duration": 0.08333324999999547,
          "durationTicks": 24,
          "midi": 82,
          "name": "A#5",
          "ticks": 19680,
          "time": 68.333265,
          "velocity": 0.9448818897637795
        },
        {
          "duration": 0.08333324999999547,
          "durationTicks": 24,
          "midi": 36,
          "name": "C2",
          "ticks": 19680,
          "time": 68.333265,
          "velocity": 0.9448818897637795
        },
        {
          "duration": 0.08333325000000968,
          "durationTicks": 24,
          "midi": 82,
          "name": "A#5",
          "ticks": 19704,
          "time": 68.41659824999999,
          "velocity": 0.9448818897637795
        },
        {
          "duration": 0.08333324999999547,
          "durationTicks": 24,
          "midi": 82,
          "name": "A#5",
          "ticks": 19728,
          "time": 68.4999315,
          "velocity": 0.9448818897637795
        },
        {
          "duration": 0.08333324999999547,
          "durationTicks": 24,
          "midi": 82,
          "name": "A#5",
          "ticks": 19752,
          "time": 68.58326475,
          "velocity": 0.9448818897637795
        },
        {
          "duration": 0.08333325000000968,
          "durationTicks": 24,
          "midi": 36,
          "name": "C2",
          "ticks": 19776,
          "time": 68.666598,
          "velocity": 0.9448818897637795
        },
        {
          "duration": 0.08333325000000968,
          "durationTicks": 24,
          "midi": 82,
          "name": "A#5",
          "ticks": 19776,
          "time": 68.666598,
          "velocity": 0.9448818897637795
        },
        {
          "duration": 0.08333324999999547,
          "durationTicks": 24,
          "midi": 82,
          "name": "A#5",
          "ticks": 19800,
          "time": 68.74993125,
          "velocity": 0.9448818897637795
        },
        {
          "duration": 0.08333324999999547,
          "durationTicks": 24,
          "midi": 82,
          "name": "A#5",
          "ticks": 19824,
          "time": 68.8332645,
          "velocity": 0.9448818897637795
        },
        {
          "duration": 0.08333324999999547,
          "durationTicks": 24,
          "midi": 36,
          "name": "C2",
          "ticks": 19824,
          "time": 68.8332645,
          "velocity": 0.9448818897637795
        },
        {
          "duration": 0.08333325000000968,
          "durationTicks": 24,
          "midi": 82,
          "name": "A#5",
          "ticks": 19848,
          "time": 68.91659775,
          "velocity": 0.9448818897637795
        },
        {
          "duration": 0.08333325000000968,
          "durationTicks": 24,
          "midi": 36,
          "name": "C2",
          "ticks": 19848,
          "time": 68.91659775,
          "velocity": 0.9448818897637795
        },
        {
          "duration": 0.08333324999999547,
          "durationTicks": 24,
          "midi": 82,
          "name": "A#5",
          "ticks": 19872,
          "time": 68.999931,
          "velocity": 0.9448818897637795
        },
        {
          "duration": 0.08333324999999547,
          "durationTicks": 24,
          "midi": 38,
          "name": "D2",
          "ticks": 19872,
          "time": 68.999931,
          "velocity": 0.9448818897637795
        },
        {
          "duration": 0.08333324999999547,
          "durationTicks": 24,
          "midi": 82,
          "name": "A#5",
          "ticks": 19896,
          "time": 69.08326425,
          "velocity": 0.9448818897637795
        },
        {
          "duration": 0.08333324999999547,
          "durationTicks": 24,
          "midi": 38,
          "name": "D2",
          "ticks": 19896,
          "time": 69.08326425,
          "velocity": 0.9448818897637795
        },
        {
          "duration": 0.16666650000000516,
          "durationTicks": 48,
          "midi": 36,
          "name": "C2",
          "ticks": 19920,
          "time": 69.1665975,
          "velocity": 0.9448818897637795
        },
        {
          "duration": 0.08333325000000968,
          "durationTicks": 24,
          "midi": 82,
          "name": "A#5",
          "ticks": 19920,
          "time": 69.1665975,
          "velocity": 0.9448818897637795
        },
        {
          "duration": 0.08333324999999547,
          "durationTicks": 24,
          "midi": 82,
          "name": "A#5",
          "ticks": 19944,
          "time": 69.24993075,
          "velocity": 0.9448818897637795
        },
        {
          "duration": 0.16666650000000516,
          "durationTicks": 48,
          "midi": 36,
          "name": "C2",
          "ticks": 19968,
          "time": 69.333264,
          "velocity": 0.9448818897637795
        },
        {
          "duration": 0.08333324999999547,
          "durationTicks": 24,
          "midi": 82,
          "name": "A#5",
          "ticks": 19968,
          "time": 69.333264,
          "velocity": 0.9448818897637795
        },
        {
          "duration": 0.08333325000000968,
          "durationTicks": 24,
          "midi": 82,
          "name": "A#5",
          "ticks": 19992,
          "time": 69.41659725,
          "velocity": 0.9448818897637795
        },
        {
          "duration": 0.08333324999999547,
          "durationTicks": 24,
          "midi": 82,
          "name": "A#5",
          "ticks": 20016,
          "time": 69.4999305,
          "velocity": 0.9448818897637795
        },
        {
          "duration": 0.08333324999999547,
          "durationTicks": 24,
          "midi": 82,
          "name": "A#5",
          "ticks": 20040,
          "time": 69.58326375,
          "velocity": 0.9448818897637795
        },
        {
          "duration": 0.16666650000000516,
          "durationTicks": 48,
          "midi": 36,
          "name": "C2",
          "ticks": 20064,
          "time": 69.666597,
          "velocity": 0.9448818897637795
        },
        {
          "duration": 0.08333324999999547,
          "durationTicks": 24,
          "midi": 82,
          "name": "A#5",
          "ticks": 20064,
          "time": 69.666597,
          "velocity": 0.9448818897637795
        },
        {
          "duration": 0.08333325000000968,
          "durationTicks": 24,
          "midi": 82,
          "name": "A#5",
          "ticks": 20088,
          "time": 69.74993024999999,
          "velocity": 0.9448818897637795
        },
        {
          "duration": 0.08333324999999547,
          "durationTicks": 24,
          "midi": 82,
          "name": "A#5",
          "ticks": 20112,
          "time": 69.8332635,
          "velocity": 0.9448818897637795
        },
        {
          "duration": 0.08333324999999547,
          "durationTicks": 24,
          "midi": 82,
          "name": "A#5",
          "ticks": 20136,
          "time": 69.91659675,
          "velocity": 0.9448818897637795
        },
        {
          "duration": 0.16666650000000516,
          "durationTicks": 48,
          "midi": 36,
          "name": "C2",
          "ticks": 20160,
          "time": 69.99992999999999,
          "velocity": 0.9448818897637795
        },
        {
          "duration": 0.08333325000000968,
          "durationTicks": 24,
          "midi": 82,
          "name": "A#5",
          "ticks": 20160,
          "time": 69.99992999999999,
          "velocity": 0.9448818897637795
        },
        {
          "duration": 0.08333324999999547,
          "durationTicks": 24,
          "midi": 82,
          "name": "A#5",
          "ticks": 20184,
          "time": 70.08326325,
          "velocity": 0.9448818897637795
        },
        {
          "duration": 0.08333324999999547,
          "durationTicks": 24,
          "midi": 82,
          "name": "A#5",
          "ticks": 20208,
          "time": 70.1665965,
          "velocity": 0.9448818897637795
        },
        {
          "duration": 0.08333325000000968,
          "durationTicks": 24,
          "midi": 82,
          "name": "A#5",
          "ticks": 20232,
          "time": 70.24992974999999,
          "velocity": 0.9448818897637795
        },
        {
          "duration": 0.08333325000000968,
          "durationTicks": 24,
          "midi": 36,
          "name": "C2",
          "ticks": 20232,
          "time": 70.24992974999999,
          "velocity": 0.9448818897637795
        },
        {
          "duration": 0.08333324999999547,
          "durationTicks": 24,
          "midi": 82,
          "name": "A#5",
          "ticks": 20256,
          "time": 70.333263,
          "velocity": 0.9448818897637795
        },
        {
          "duration": 0.08333324999999547,
          "durationTicks": 24,
          "midi": 82,
          "name": "A#5",
          "ticks": 20280,
          "time": 70.41659625,
          "velocity": 0.9448818897637795
        },
        {
          "duration": 0.08333325000000968,
          "durationTicks": 24,
          "midi": 82,
          "name": "A#5",
          "ticks": 20304,
          "time": 70.4999295,
          "velocity": 0.9448818897637795
        },
        {
          "duration": 0.16666650000000516,
          "durationTicks": 48,
          "midi": 36,
          "name": "C2",
          "ticks": 20304,
          "time": 70.4999295,
          "velocity": 0.9448818897637795
        },
        {
          "duration": 0.08333324999999547,
          "durationTicks": 24,
          "midi": 82,
          "name": "A#5",
          "ticks": 20328,
          "time": 70.58326275,
          "velocity": 0.9448818897637795
        },
        {
          "duration": 0.16666650000000516,
          "durationTicks": 48,
          "midi": 36,
          "name": "C2",
          "ticks": 20352,
          "time": 70.666596,
          "velocity": 0.9448818897637795
        },
        {
          "duration": 0.08333324999999547,
          "durationTicks": 24,
          "midi": 82,
          "name": "A#5",
          "ticks": 20352,
          "time": 70.666596,
          "velocity": 0.9448818897637795
        },
        {
          "duration": 0.08333325000000968,
          "durationTicks": 24,
          "midi": 82,
          "name": "A#5",
          "ticks": 20376,
          "time": 70.74992925,
          "velocity": 0.9448818897637795
        },
        {
          "duration": 0.08333324999999547,
          "durationTicks": 24,
          "midi": 82,
          "name": "A#5",
          "ticks": 20400,
          "time": 70.8332625,
          "velocity": 0.9448818897637795
        },
        {
          "duration": 0.08333324999999547,
          "durationTicks": 24,
          "midi": 82,
          "name": "A#5",
          "ticks": 20424,
          "time": 70.91659575,
          "velocity": 0.9448818897637795
        },
        {
          "duration": 0.16666650000000516,
          "durationTicks": 48,
          "midi": 36,
          "name": "C2",
          "ticks": 20448,
          "time": 70.999929,
          "velocity": 0.9448818897637795
        },
        {
          "duration": 0.08333325000000968,
          "durationTicks": 24,
          "midi": 82,
          "name": "A#5",
          "ticks": 20448,
          "time": 70.999929,
          "velocity": 0.9448818897637795
        },
        {
          "duration": 0.08333324999999547,
          "durationTicks": 24,
          "midi": 82,
          "name": "A#5",
          "ticks": 20472,
          "time": 71.08326225,
          "velocity": 0.9448818897637795
        },
        {
          "duration": 0.08333324999999547,
          "durationTicks": 24,
          "midi": 82,
          "name": "A#5",
          "ticks": 20496,
          "time": 71.1665955,
          "velocity": 0.9448818897637795
        },
        {
          "duration": 0.08333325000000968,
          "durationTicks": 24,
          "midi": 82,
          "name": "A#5",
          "ticks": 20520,
          "time": 71.24992875,
          "velocity": 0.9448818897637795
        },
        {
          "duration": 0.16666649999999095,
          "durationTicks": 48,
          "midi": 36,
          "name": "C2",
          "ticks": 20544,
          "time": 71.333262,
          "velocity": 0.9448818897637795
        },
        {
          "duration": 0.08333324999999547,
          "durationTicks": 24,
          "midi": 82,
          "name": "A#5",
          "ticks": 20544,
          "time": 71.333262,
          "velocity": 0.9448818897637795
        },
        {
          "duration": 0.08333324999999547,
          "durationTicks": 24,
          "midi": 82,
          "name": "A#5",
          "ticks": 20568,
          "time": 71.41659525,
          "velocity": 0.9448818897637795
        },
        {
          "duration": 0.08333324999999547,
          "durationTicks": 24,
          "midi": 82,
          "name": "A#5",
          "ticks": 20592,
          "time": 71.4999285,
          "velocity": 0.9448818897637795
        },
        {
          "duration": 0.08333325000000968,
          "durationTicks": 24,
          "midi": 82,
          "name": "A#5",
          "ticks": 20616,
          "time": 71.58326174999999,
          "velocity": 0.9448818897637795
        },
        {
          "duration": 0.08333325000000968,
          "durationTicks": 24,
          "midi": 36,
          "name": "C2",
          "ticks": 20616,
          "time": 71.58326174999999,
          "velocity": 0.9448818897637795
        },
        {
          "duration": 0.08333324999999547,
          "durationTicks": 24,
          "midi": 38,
          "name": "D2",
          "ticks": 20640,
          "time": 71.666595,
          "velocity": 0.9448818897637795
        },
        {
          "duration": 0.08333324999999547,
          "durationTicks": 24,
          "midi": 82,
          "name": "A#5",
          "ticks": 20640,
          "time": 71.666595,
          "velocity": 0.9448818897637795
        },
        {
          "duration": 0.08333324999999547,
          "durationTicks": 24,
          "midi": 82,
          "name": "A#5",
          "ticks": 20664,
          "time": 71.74992825,
          "velocity": 0.9448818897637795
        },
        {
          "duration": 0.08333324999999547,
          "durationTicks": 24,
          "midi": 38,
          "name": "D2",
          "ticks": 20664,
          "time": 71.74992825,
          "velocity": 0.9448818897637795
        },
        {
          "duration": 0.04166662500000484,
          "durationTicks": 12,
          "midi": 38,
          "name": "D2",
          "ticks": 20688,
          "time": 71.83326149999999,
          "velocity": 0.6929133858267716
        },
        {
          "duration": 0.08333325000000968,
          "durationTicks": 24,
          "midi": 82,
          "name": "A#5",
          "ticks": 20688,
          "time": 71.83326149999999,
          "velocity": 0.9448818897637795
        },
        {
          "duration": 0.04166662500000484,
          "durationTicks": 12,
          "midi": 38,
          "name": "D2",
          "ticks": 20700,
          "time": 71.874928125,
          "velocity": 0.6299212598425197
        },
        {
          "duration": 0.08333324999999547,
          "durationTicks": 24,
          "midi": 82,
          "name": "A#5",
          "ticks": 20712,
          "time": 71.91659475,
          "velocity": 0.9448818897637795
        },
        {
          "duration": 0.04166662499999063,
          "durationTicks": 12,
          "midi": 38,
          "name": "D2",
          "ticks": 20712,
          "time": 71.91659475,
          "velocity": 0.6929133858267716
        },
        {
          "duration": 0.04166662500000484,
          "durationTicks": 12,
          "midi": 38,
          "name": "D2",
          "ticks": 20724,
          "time": 71.95826137499999,
          "velocity": 0.6299212598425197
        },
        {
          "duration": 0.08333324999999547,
          "durationTicks": 24,
          "midi": 82,
          "name": "A#5",
          "ticks": 20736,
          "time": 71.999928,
          "velocity": 0.9448818897637795
        },
        {
          "duration": 0.08333324999999547,
          "durationTicks": 24,
          "midi": 36,
          "name": "C2",
          "ticks": 20736,
          "time": 71.999928,
          "velocity": 0.9448818897637795
        },
        {
          "duration": 0.08333324999999547,
          "durationTicks": 24,
          "midi": 38,
          "name": "D2",
          "ticks": 20736,
          "time": 71.999928,
          "velocity": 0.9448818897637795
        },
        {
          "duration": 0.08333325000000968,
          "durationTicks": 24,
          "midi": 82,
          "name": "A#5",
          "ticks": 20760,
          "time": 72.08326124999999,
          "velocity": 0.9448818897637795
        },
        {
          "duration": 0.08333324999999547,
          "durationTicks": 24,
          "midi": 38,
          "name": "D2",
          "ticks": 20784,
          "time": 72.1665945,
          "velocity": 0.7874015748031497
        },
        {
          "duration": 0.08333324999999547,
          "durationTicks": 24,
          "midi": 82,
          "name": "A#5",
          "ticks": 20784,
          "time": 72.1665945,
          "velocity": 0.9448818897637795
        },
        {
          "duration": 0.08333324999999547,
          "durationTicks": 24,
          "midi": 82,
          "name": "A#5",
          "ticks": 20808,
          "time": 72.24992775,
          "velocity": 0.9448818897637795
        },
        {
          "duration": 0.08333325000000968,
          "durationTicks": 24,
          "midi": 38,
          "name": "D2",
          "ticks": 20832,
          "time": 72.333261,
          "velocity": 0.9448818897637795
        },
        {
          "duration": 0.08333325000000968,
          "durationTicks": 24,
          "midi": 36,
          "name": "C2",
          "ticks": 20832,
          "time": 72.333261,
          "velocity": 0.9448818897637795
        },
        {
          "duration": 0.08333325000000968,
          "durationTicks": 24,
          "midi": 82,
          "name": "A#5",
          "ticks": 20832,
          "time": 72.333261,
          "velocity": 0.9448818897637795
        },
        {
          "duration": 0.08333324999999547,
          "durationTicks": 24,
          "midi": 82,
          "name": "A#5",
          "ticks": 20856,
          "time": 72.41659425,
          "velocity": 0.9448818897637795
        },
        {
          "duration": 0.08333324999999547,
          "durationTicks": 24,
          "midi": 38,
          "name": "D2",
          "ticks": 20880,
          "time": 72.4999275,
          "velocity": 0.7874015748031497
        },
        {
          "duration": 0.08333324999999547,
          "durationTicks": 24,
          "midi": 82,
          "name": "A#5",
          "ticks": 20880,
          "time": 72.4999275,
          "velocity": 0.9448818897637795
        },
        {
          "duration": 0.08333325000000968,
          "durationTicks": 24,
          "midi": 82,
          "name": "A#5",
          "ticks": 20904,
          "time": 72.58326075,
          "velocity": 0.9448818897637795
        },
        {
          "duration": 0.08333324999999547,
          "durationTicks": 24,
          "midi": 82,
          "name": "A#5",
          "ticks": 20928,
          "time": 72.666594,
          "velocity": 0.9448818897637795
        },
        {
          "duration": 0.08333324999999547,
          "durationTicks": 24,
          "midi": 36,
          "name": "C2",
          "ticks": 20928,
          "time": 72.666594,
          "velocity": 0.9448818897637795
        },
        {
          "duration": 0.08333324999999547,
          "durationTicks": 24,
          "midi": 38,
          "name": "D2",
          "ticks": 20928,
          "time": 72.666594,
          "velocity": 0.9448818897637795
        },
        {
          "duration": 0.08333324999999547,
          "durationTicks": 24,
          "midi": 82,
          "name": "A#5",
          "ticks": 20952,
          "time": 72.74992725,
          "velocity": 0.9448818897637795
        },
        {
          "duration": 0.08333325000000968,
          "durationTicks": 24,
          "midi": 38,
          "name": "D2",
          "ticks": 20976,
          "time": 72.8332605,
          "velocity": 0.7874015748031497
        },
        {
          "duration": 0.08333325000000968,
          "durationTicks": 24,
          "midi": 82,
          "name": "A#5",
          "ticks": 20976,
          "time": 72.8332605,
          "velocity": 0.9448818897637795
        },
        {
          "duration": 0.08333324999999547,
          "durationTicks": 24,
          "midi": 36,
          "name": "C2",
          "ticks": 21000,
          "time": 72.91659375,
          "velocity": 0.9448818897637795
        },
        {
          "duration": 0.08333324999999547,
          "durationTicks": 24,
          "midi": 82,
          "name": "A#5",
          "ticks": 21000,
          "time": 72.91659375,
          "velocity": 0.9448818897637795
        },
        {
          "duration": 0.08333324999999547,
          "durationTicks": 24,
          "midi": 82,
          "name": "A#5",
          "ticks": 21024,
          "time": 72.999927,
          "velocity": 0.9448818897637795
        },
        {
          "duration": 0.08333324999999547,
          "durationTicks": 24,
          "midi": 38,
          "name": "D2",
          "ticks": 21024,
          "time": 72.999927,
          "velocity": 0.9448818897637795
        },
        {
          "duration": 0.08333325000000968,
          "durationTicks": 24,
          "midi": 82,
          "name": "A#5",
          "ticks": 21048,
          "time": 73.08326025,
          "velocity": 0.9448818897637795
        },
        {
          "duration": 0.08333324999999547,
          "durationTicks": 24,
          "midi": 82,
          "name": "A#5",
          "ticks": 21072,
          "time": 73.1665935,
          "velocity": 0.9448818897637795
        },
        {
          "duration": 0.04166662499999063,
          "durationTicks": 12,
          "midi": 38,
          "name": "D2",
          "ticks": 21072,
          "time": 73.1665935,
          "velocity": 0.6299212598425197
        },
        {
          "duration": 0.08333324999999547,
          "durationTicks": 24,
          "midi": 36,
          "name": "C2",
          "ticks": 21072,
          "time": 73.1665935,
          "velocity": 0.9448818897637795
        },
        {
          "duration": 0.04166662500000484,
          "durationTicks": 12,
          "midi": 38,
          "name": "D2",
          "ticks": 21084,
          "time": 73.208260125,
          "velocity": 0.5669291338582677
        },
        {
          "duration": 0.08333324999999547,
          "durationTicks": 24,
          "midi": 82,
          "name": "A#5",
          "ticks": 21096,
          "time": 73.24992675,
          "velocity": 0.9448818897637795
        },
        {
          "duration": 0.04166662499999063,
          "durationTicks": 12,
          "midi": 38,
          "name": "D2",
          "ticks": 21096,
          "time": 73.24992675,
          "velocity": 0.6299212598425197
        },
        {
          "duration": 0.04166662500000484,
          "durationTicks": 12,
          "midi": 38,
          "name": "D2",
          "ticks": 21108,
          "time": 73.29159337499999,
          "velocity": 0.5669291338582677
        },
        {
          "duration": 0.08333324999999547,
          "durationTicks": 24,
          "midi": 38,
          "name": "D2",
          "ticks": 21120,
          "time": 73.33326,
          "velocity": 0.9448818897637795
        },
        {
          "duration": 0.08333324999999547,
          "durationTicks": 24,
          "midi": 36,
          "name": "C2",
          "ticks": 21120,
          "time": 73.33326,
          "velocity": 0.9448818897637795
        },
        {
          "duration": 0.08333324999999547,
          "durationTicks": 24,
          "midi": 82,
          "name": "A#5",
          "ticks": 21120,
          "time": 73.33326,
          "velocity": 0.9448818897637795
        },
        {
          "duration": 0.08333325000000968,
          "durationTicks": 24,
          "midi": 82,
          "name": "A#5",
          "ticks": 21144,
          "time": 73.41659324999999,
          "velocity": 0.9448818897637795
        },
        {
          "duration": 0.08333324999999547,
          "durationTicks": 24,
          "midi": 82,
          "name": "A#5",
          "ticks": 21168,
          "time": 73.4999265,
          "velocity": 0.9448818897637795
        },
        {
          "duration": 0.08333324999999547,
          "durationTicks": 24,
          "midi": 38,
          "name": "D2",
          "ticks": 21168,
          "time": 73.4999265,
          "velocity": 0.9448818897637795
        },
        {
          "duration": 0.08333324999999547,
          "durationTicks": 24,
          "midi": 82,
          "name": "A#5",
          "ticks": 21192,
          "time": 73.58325975,
          "velocity": 0.9448818897637795
        },
        {
          "duration": 0.08333325000000968,
          "durationTicks": 24,
          "midi": 36,
          "name": "C2",
          "ticks": 21216,
          "time": 73.66659299999999,
          "velocity": 0.9448818897637795
        },
        {
          "duration": 0.08333325000000968,
          "durationTicks": 24,
          "midi": 38,
          "name": "D2",
          "ticks": 21216,
          "time": 73.66659299999999,
          "velocity": 0.9448818897637795
        },
        {
          "duration": 0.08333325000000968,
          "durationTicks": 24,
          "midi": 82,
          "name": "A#5",
          "ticks": 21216,
          "time": 73.66659299999999,
          "velocity": 0.9448818897637795
        },
        {
          "duration": 0.08333324999999547,
          "durationTicks": 24,
          "midi": 82,
          "name": "A#5",
          "ticks": 21240,
          "time": 73.74992625,
          "velocity": 0.9448818897637795
        },
        {
          "duration": 0.08333324999999547,
          "durationTicks": 24,
          "midi": 38,
          "name": "D2",
          "ticks": 21264,
          "time": 73.8332595,
          "velocity": 0.9448818897637795
        },
        {
          "duration": 0.08333324999999547,
          "durationTicks": 24,
          "midi": 82,
          "name": "A#5",
          "ticks": 21264,
          "time": 73.8332595,
          "velocity": 0.9448818897637795
        },
        {
          "duration": 0.08333325000000968,
          "durationTicks": 24,
          "midi": 82,
          "name": "A#5",
          "ticks": 21288,
          "time": 73.91659274999999,
          "velocity": 0.9448818897637795
        },
        {
          "duration": 0.08333324999999547,
          "durationTicks": 24,
          "midi": 82,
          "name": "A#5",
          "ticks": 21312,
          "time": 73.999926,
          "velocity": 0.9448818897637795
        },
        {
          "duration": 0.08333324999999547,
          "durationTicks": 24,
          "midi": 36,
          "name": "C2",
          "ticks": 21312,
          "time": 73.999926,
          "velocity": 0.9448818897637795
        },
        {
          "duration": 0.08333324999999547,
          "durationTicks": 24,
          "midi": 38,
          "name": "D2",
          "ticks": 21312,
          "time": 73.999926,
          "velocity": 0.9448818897637795
        },
        {
          "duration": 0.08333324999999547,
          "durationTicks": 24,
          "midi": 82,
          "name": "A#5",
          "ticks": 21336,
          "time": 74.08325925,
          "velocity": 0.9448818897637795
        },
        {
          "duration": 0.08333325000000968,
          "durationTicks": 24,
          "midi": 82,
          "name": "A#5",
          "ticks": 21360,
          "time": 74.1665925,
          "velocity": 0.9448818897637795
        },
        {
          "duration": 0.08333325000000968,
          "durationTicks": 24,
          "midi": 38,
          "name": "D2",
          "ticks": 21360,
          "time": 74.1665925,
          "velocity": 0.9448818897637795
        },
        {
          "duration": 0.08333324999999547,
          "durationTicks": 24,
          "midi": 82,
          "name": "A#5",
          "ticks": 21384,
          "time": 74.24992575,
          "velocity": 0.9448818897637795
        },
        {
          "duration": 0.08333324999999547,
          "durationTicks": 24,
          "midi": 36,
          "name": "C2",
          "ticks": 21384,
          "time": 74.24992575,
          "velocity": 0.9448818897637795
        },
        {
          "duration": 0.08333324999999547,
          "durationTicks": 24,
          "midi": 38,
          "name": "D2",
          "ticks": 21408,
          "time": 74.333259,
          "velocity": 0.9448818897637795
        },
        {
          "duration": 0.08333324999999547,
          "durationTicks": 24,
          "midi": 82,
          "name": "A#5",
          "ticks": 21408,
          "time": 74.333259,
          "velocity": 0.9448818897637795
        },
        {
          "duration": 0.08333325000000968,
          "durationTicks": 24,
          "midi": 82,
          "name": "A#5",
          "ticks": 21432,
          "time": 74.41659225,
          "velocity": 0.9448818897637795
        },
        {
          "duration": 0.08333324999999547,
          "durationTicks": 24,
          "midi": 82,
          "name": "A#5",
          "ticks": 21456,
          "time": 74.4999255,
          "velocity": 0.9448818897637795
        },
        {
          "duration": 0.04166662499999063,
          "durationTicks": 12,
          "midi": 38,
          "name": "D2",
          "ticks": 21456,
          "time": 74.4999255,
          "velocity": 0.7874015748031497
        },
        {
          "duration": 0.08333324999999547,
          "durationTicks": 24,
          "midi": 36,
          "name": "C2",
          "ticks": 21456,
          "time": 74.4999255,
          "velocity": 0.9448818897637795
        },
        {
          "duration": 0.04166662500000484,
          "durationTicks": 12,
          "midi": 38,
          "name": "D2",
          "ticks": 21468,
          "time": 74.541592125,
          "velocity": 0.7874015748031497
        },
        {
          "duration": 0.04166662500000484,
          "durationTicks": 12,
          "midi": 38,
          "name": "D2",
          "ticks": 21480,
          "time": 74.58325875,
          "velocity": 0.7874015748031497
        },
        {
          "duration": 0.08333324999999547,
          "durationTicks": 24,
          "midi": 82,
          "name": "A#5",
          "ticks": 21480,
          "time": 74.58325875,
          "velocity": 0.9448818897637795
        },
        {
          "duration": 0.04166662499999063,
          "durationTicks": 12,
          "midi": 38,
          "name": "D2",
          "ticks": 21492,
          "time": 74.624925375,
          "velocity": 0.7874015748031497
        },
        {
          "duration": 0.08333325000000968,
          "durationTicks": 24,
          "midi": 82,
          "name": "A#5",
          "ticks": 21504,
          "time": 74.666592,
          "velocity": 0.9448818897637795
        },
        {
          "duration": 0.08333325000000968,
          "durationTicks": 24,
          "midi": 38,
          "name": "D2",
          "ticks": 21504,
          "time": 74.666592,
          "velocity": 0.9448818897637795
        },
        {
          "duration": 0.08333325000000968,
          "durationTicks": 24,
          "midi": 36,
          "name": "C2",
          "ticks": 21504,
          "time": 74.666592,
          "velocity": 0.9448818897637795
        },
        {
          "duration": 0.08333324999999547,
          "durationTicks": 24,
          "midi": 38,
          "name": "D2",
          "ticks": 21528,
          "time": 74.74992525,
          "velocity": 0.7874015748031497
        },
        {
          "duration": 0.08333324999999547,
          "durationTicks": 24,
          "midi": 82,
          "name": "A#5",
          "ticks": 21528,
          "time": 74.74992525,
          "velocity": 0.9448818897637795
        },
        {
          "duration": 0.08333324999999547,
          "durationTicks": 24,
          "midi": 38,
          "name": "D2",
          "ticks": 21528,
          "time": 74.74992525,
          "velocity": 0.7874015748031497
        },
        {
          "duration": 0.08333324999999547,
          "durationTicks": 24,
          "midi": 38,
          "name": "D2",
          "ticks": 21528,
          "time": 74.74992525,
          "velocity": 0.7874015748031497
        },
        {
          "duration": 0.08333324999999547,
          "durationTicks": 24,
          "midi": 38,
          "name": "D2",
          "ticks": 21552,
          "time": 74.8332585,
          "velocity": 0.7874015748031497
        },
        {
          "duration": 0.08333324999999547,
          "durationTicks": 24,
          "midi": 82,
          "name": "A#5",
          "ticks": 21552,
          "time": 74.8332585,
          "velocity": 0.9448818897637795
        },
        {
          "duration": 0.08333325000000968,
          "durationTicks": 24,
          "midi": 38,
          "name": "D2",
          "ticks": 21576,
          "time": 74.91659175,
          "velocity": 0.7874015748031497
        },
        {
          "duration": 0.08333325000000968,
          "durationTicks": 24,
          "midi": 82,
          "name": "A#5",
          "ticks": 21576,
          "time": 74.91659175,
          "velocity": 0.9448818897637795
        },
        {
          "duration": 0.08333324999999547,
          "durationTicks": 24,
          "midi": 82,
          "name": "A#5",
          "ticks": 21600,
          "time": 74.999925,
          "velocity": 0.9448818897637795
        },
        {
          "duration": 0.08333324999999547,
          "durationTicks": 24,
          "midi": 38,
          "name": "D2",
          "ticks": 21600,
          "time": 74.999925,
          "velocity": 0.9448818897637795
        },
        {
          "duration": 0.08333324999999547,
          "durationTicks": 24,
          "midi": 36,
          "name": "C2",
          "ticks": 21600,
          "time": 74.999925,
          "velocity": 0.9448818897637795
        },
        {
          "duration": 0.08333324999999547,
          "durationTicks": 24,
          "midi": 38,
          "name": "D2",
          "ticks": 21624,
          "time": 75.08325825,
          "velocity": 0.7874015748031497
        },
        {
          "duration": 0.08333324999999547,
          "durationTicks": 24,
          "midi": 82,
          "name": "A#5",
          "ticks": 21624,
          "time": 75.08325825,
          "velocity": 0.9448818897637795
        },
        {
          "duration": 0.08333324999999547,
          "durationTicks": 24,
          "midi": 38,
          "name": "D2",
          "ticks": 21648,
          "time": 75.1665915,
          "velocity": 0.7874015748031497
        },
        {
          "duration": 0.08333324999999547,
          "durationTicks": 24,
          "midi": 82,
          "name": "A#5",
          "ticks": 21648,
          "time": 75.1665915,
          "velocity": 0.9448818897637795
        },
        {
          "duration": 0.08333325000000968,
          "durationTicks": 24,
          "midi": 38,
          "name": "D2",
          "ticks": 21672,
          "time": 75.24992474999999,
          "velocity": 0.7874015748031497
        },
        {
          "duration": 0.08333325000000968,
          "durationTicks": 24,
          "midi": 82,
          "name": "A#5",
          "ticks": 21672,
          "time": 75.24992474999999,
          "velocity": 0.9448818897637795
        },
        {
          "duration": 0.08333324999999547,
          "durationTicks": 24,
          "midi": 82,
          "name": "A#5",
          "ticks": 21696,
          "time": 75.333258,
          "velocity": 0.9448818897637795
        },
        {
          "duration": 0.08333324999999547,
          "durationTicks": 24,
          "midi": 36,
          "name": "C2",
          "ticks": 21696,
          "time": 75.333258,
          "velocity": 0.9448818897637795
        },
        {
          "duration": 0.08333324999999547,
          "durationTicks": 24,
          "midi": 38,
          "name": "D2",
          "ticks": 21696,
          "time": 75.333258,
          "velocity": 0.9448818897637795
        },
        {
          "duration": 0.08333324999999547,
          "durationTicks": 24,
          "midi": 38,
          "name": "D2",
          "ticks": 21720,
          "time": 75.41659125,
          "velocity": 0.7874015748031497
        },
        {
          "duration": 0.08333324999999547,
          "durationTicks": 24,
          "midi": 82,
          "name": "A#5",
          "ticks": 21720,
          "time": 75.41659125,
          "velocity": 0.9448818897637795
        },
        {
          "duration": 0.08333325000000968,
          "durationTicks": 24,
          "midi": 38,
          "name": "D2",
          "ticks": 21744,
          "time": 75.49992449999999,
          "velocity": 0.7874015748031497
        },
        {
          "duration": 0.08333325000000968,
          "durationTicks": 24,
          "midi": 82,
          "name": "A#5",
          "ticks": 21744,
          "time": 75.49992449999999,
          "velocity": 0.9448818897637795
        },
        {
          "duration": 0.08333324999999547,
          "durationTicks": 24,
          "midi": 38,
          "name": "D2",
          "ticks": 21768,
          "time": 75.58325775,
          "velocity": 0.7874015748031497
        },
        {
          "duration": 0.08333324999999547,
          "durationTicks": 24,
          "midi": 82,
          "name": "A#5",
          "ticks": 21768,
          "time": 75.58325775,
          "velocity": 0.9448818897637795
        },
        {
          "duration": 0.08333324999999547,
          "durationTicks": 24,
          "midi": 82,
          "name": "A#5",
          "ticks": 21792,
          "time": 75.666591,
          "velocity": 0.9448818897637795
        },
        {
          "duration": 0.08333324999999547,
          "durationTicks": 24,
          "midi": 36,
          "name": "C2",
          "ticks": 21792,
          "time": 75.666591,
          "velocity": 0.9448818897637795
        },
        {
          "duration": 0.08333324999999547,
          "durationTicks": 24,
          "midi": 38,
          "name": "D2",
          "ticks": 21792,
          "time": 75.666591,
          "velocity": 0.9448818897637795
        },
        {
          "duration": 0.08333325000000968,
          "durationTicks": 24,
          "midi": 38,
          "name": "D2",
          "ticks": 21816,
          "time": 75.74992424999999,
          "velocity": 0.7874015748031497
        },
        {
          "duration": 0.08333325000000968,
          "durationTicks": 24,
          "midi": 82,
          "name": "A#5",
          "ticks": 21816,
          "time": 75.74992424999999,
          "velocity": 0.9448818897637795
        },
        {
          "duration": 0.08333324999999547,
          "durationTicks": 24,
          "midi": 38,
          "name": "D2",
          "ticks": 21840,
          "time": 75.8332575,
          "velocity": 0.7874015748031497
        },
        {
          "duration": 0.08333324999999547,
          "durationTicks": 24,
          "midi": 82,
          "name": "A#5",
          "ticks": 21840,
          "time": 75.8332575,
          "velocity": 0.9448818897637795
        },
        {
          "duration": 0.08333324999999547,
          "durationTicks": 24,
          "midi": 38,
          "name": "D2",
          "ticks": 21864,
          "time": 75.91659075,
          "velocity": 0.7874015748031497
        },
        {
          "duration": 0.08333324999999547,
          "durationTicks": 24,
          "midi": 82,
          "name": "A#5",
          "ticks": 21864,
          "time": 75.91659075,
          "velocity": 0.9448818897637795
        },
        {
          "duration": 0.08333325000000968,
          "durationTicks": 24,
          "midi": 82,
          "name": "A#5",
          "ticks": 21888,
          "time": 75.999924,
          "velocity": 0.9448818897637795
        },
        {
          "duration": 0.08333325000000968,
          "durationTicks": 24,
          "midi": 36,
          "name": "C2",
          "ticks": 21888,
          "time": 75.999924,
          "velocity": 0.9448818897637795
        },
        {
          "duration": 0.08333324999999547,
          "durationTicks": 24,
          "midi": 82,
          "name": "A#5",
          "ticks": 21912,
          "time": 76.08325725,
          "velocity": 0.9448818897637795
        },
        {
          "duration": 0.08333324999999547,
          "durationTicks": 24,
          "midi": 82,
          "name": "A#5",
          "ticks": 21936,
          "time": 76.1665905,
          "velocity": 0.9448818897637795
        },
        {
          "duration": 0.08333325000000968,
          "durationTicks": 24,
          "midi": 82,
          "name": "A#5",
          "ticks": 21960,
          "time": 76.24992375,
          "velocity": 0.9448818897637795
        },
        {
          "duration": 0.08333324999999547,
          "durationTicks": 24,
          "midi": 36,
          "name": "C2",
          "ticks": 21984,
          "time": 76.333257,
          "velocity": 0.9448818897637795
        },
        {
          "duration": 0.08333324999999547,
          "durationTicks": 24,
          "midi": 82,
          "name": "A#5",
          "ticks": 21984,
          "time": 76.333257,
          "velocity": 0.9448818897637795
        },
        {
          "duration": 0.08333324999999547,
          "durationTicks": 24,
          "midi": 82,
          "name": "A#5",
          "ticks": 22008,
          "time": 76.41659025,
          "velocity": 0.9448818897637795
        },
        {
          "duration": 0.08333325000000968,
          "durationTicks": 24,
          "midi": 82,
          "name": "A#5",
          "ticks": 22032,
          "time": 76.4999235,
          "velocity": 0.9448818897637795
        },
        {
          "duration": 0.08333324999999547,
          "durationTicks": 24,
          "midi": 82,
          "name": "A#5",
          "ticks": 22056,
          "time": 76.58325675,
          "velocity": 0.9448818897637795
        },
        {
          "duration": 0.08333324999999547,
          "durationTicks": 24,
          "midi": 82,
          "name": "A#5",
          "ticks": 22080,
          "time": 76.66659,
          "velocity": 0.9448818897637795
        },
        {
          "duration": 0.08333324999999547,
          "durationTicks": 24,
          "midi": 36,
          "name": "C2",
          "ticks": 22080,
          "time": 76.66659,
          "velocity": 0.9448818897637795
        },
        {
          "duration": 0.08333325000000968,
          "durationTicks": 24,
          "midi": 82,
          "name": "A#5",
          "ticks": 22104,
          "time": 76.74992325,
          "velocity": 0.9448818897637795
        },
        {
          "duration": 0.08333324999999547,
          "durationTicks": 24,
          "midi": 82,
          "name": "A#5",
          "ticks": 22128,
          "time": 76.8332565,
          "velocity": 0.9448818897637795
        },
        {
          "duration": 0.08333324999999547,
          "durationTicks": 24,
          "midi": 82,
          "name": "A#5",
          "ticks": 22152,
          "time": 76.91658975,
          "velocity": 0.9448818897637795
        },
        {
          "duration": 0.08333324999999547,
          "durationTicks": 24,
          "midi": 36,
          "name": "C2",
          "ticks": 22152,
          "time": 76.91658975,
          "velocity": 0.9448818897637795
        },
        {
          "duration": 0.16666650000000516,
          "durationTicks": 48,
          "midi": 82,
          "name": "A#5",
          "ticks": 22176,
          "time": 76.999923,
          "velocity": 0.9448818897637795
        },
        {
          "duration": 0.16666649999999095,
          "durationTicks": 48,
          "midi": 82,
          "name": "A#5",
          "ticks": 22224,
          "time": 77.1665895,
          "velocity": 0.9448818897637795
        },
        {
          "duration": 0.08333324999999547,
          "durationTicks": 24,
          "midi": 36,
          "name": "C2",
          "ticks": 22224,
          "time": 77.1665895,
          "velocity": 0.9448818897637795
        },
        {
          "duration": 0.08333325000000968,
          "durationTicks": 24,
          "midi": 82,
          "name": "A#5",
          "ticks": 22272,
          "time": 77.33325599999999,
          "velocity": 0.9448818897637795
        },
        {
          "duration": 0.16666650000000516,
          "durationTicks": 48,
          "midi": 36,
          "name": "C2",
          "ticks": 22272,
          "time": 77.33325599999999,
          "velocity": 0.9448818897637795
        },
        {
          "duration": 0.08333324999999547,
          "durationTicks": 24,
          "midi": 82,
          "name": "A#5",
          "ticks": 22296,
          "time": 77.41658925,
          "velocity": 0.9448818897637795
        },
        {
          "duration": 0.08333324999999547,
          "durationTicks": 24,
          "midi": 82,
          "name": "A#5",
          "ticks": 22320,
          "time": 77.4999225,
          "velocity": 0.9448818897637795
        },
        {
          "duration": 0.08333325000000968,
          "durationTicks": 24,
          "midi": 82,
          "name": "A#5",
          "ticks": 22344,
          "time": 77.58325574999999,
          "velocity": 0.9448818897637795
        },
        {
          "duration": 0.08333324999999547,
          "durationTicks": 24,
          "midi": 82,
          "name": "A#5",
          "ticks": 22368,
          "time": 77.666589,
          "velocity": 0.9448818897637795
        },
        {
          "duration": 0.16666649999999095,
          "durationTicks": 48,
          "midi": 36,
          "name": "C2",
          "ticks": 22368,
          "time": 77.666589,
          "velocity": 0.9448818897637795
        },
        {
          "duration": 0.08333324999999547,
          "durationTicks": 24,
          "midi": 82,
          "name": "A#5",
          "ticks": 22392,
          "time": 77.74992225,
          "velocity": 0.9448818897637795
        },
        {
          "duration": 0.08333325000000968,
          "durationTicks": 24,
          "midi": 82,
          "name": "A#5",
          "ticks": 22416,
          "time": 77.83325549999999,
          "velocity": 0.9448818897637795
        },
        {
          "duration": 0.08333324999999547,
          "durationTicks": 24,
          "midi": 82,
          "name": "A#5",
          "ticks": 22440,
          "time": 77.91658875,
          "velocity": 0.9448818897637795
        },
        {
          "duration": 0.08333324999999547,
          "durationTicks": 24,
          "midi": 82,
          "name": "A#5",
          "ticks": 22464,
          "time": 77.999922,
          "velocity": 0.9448818897637795
        },
        {
          "duration": 0.16666650000000516,
          "durationTicks": 48,
          "midi": 36,
          "name": "C2",
          "ticks": 22464,
          "time": 77.999922,
          "velocity": 0.9448818897637795
        },
        {
          "duration": 0.08333325000000968,
          "durationTicks": 24,
          "midi": 82,
          "name": "A#5",
          "ticks": 22488,
          "time": 78.08325525,
          "velocity": 0.9448818897637795
        },
        {
          "duration": 0.08333324999999547,
          "durationTicks": 24,
          "midi": 82,
          "name": "A#5",
          "ticks": 22512,
          "time": 78.1665885,
          "velocity": 0.9448818897637795
        },
        {
          "duration": 0.08333324999999547,
          "durationTicks": 24,
          "midi": 82,
          "name": "A#5",
          "ticks": 22536,
          "time": 78.24992175,
          "velocity": 0.9448818897637795
        },
        {
          "duration": 0.16666650000000516,
          "durationTicks": 48,
          "midi": 36,
          "name": "C2",
          "ticks": 22560,
          "time": 78.333255,
          "velocity": 0.9448818897637795
        },
        {
          "duration": 0.08333325000000968,
          "durationTicks": 24,
          "midi": 82,
          "name": "A#5",
          "ticks": 22560,
          "time": 78.333255,
          "velocity": 0.9448818897637795
        },
        {
          "duration": 0.08333324999999547,
          "durationTicks": 24,
          "midi": 82,
          "name": "A#5",
          "ticks": 22584,
          "time": 78.41658825,
          "velocity": 0.9448818897637795
        },
        {
          "duration": 0.08333324999999547,
          "durationTicks": 24,
          "midi": 82,
          "name": "A#5",
          "ticks": 22608,
          "time": 78.4999215,
          "velocity": 0.9448818897637795
        },
        {
          "duration": 0.08333325000000968,
          "durationTicks": 24,
          "midi": 82,
          "name": "A#5",
          "ticks": 22632,
          "time": 78.58325475,
          "velocity": 0.9448818897637795
        },
        {
          "duration": 0.16666649999999095,
          "durationTicks": 48,
          "midi": 36,
          "name": "C2",
          "ticks": 22656,
          "time": 78.666588,
          "velocity": 0.9448818897637795
        },
        {
          "duration": 0.08333324999999547,
          "durationTicks": 24,
          "midi": 82,
          "name": "A#5",
          "ticks": 22656,
          "time": 78.666588,
          "velocity": 0.9448818897637795
        },
        {
          "duration": 0.08333324999999547,
          "durationTicks": 24,
          "midi": 82,
          "name": "A#5",
          "ticks": 22680,
          "time": 78.74992125,
          "velocity": 0.9448818897637795
        },
        {
          "duration": 0.08333324999999547,
          "durationTicks": 24,
          "midi": 82,
          "name": "A#5",
          "ticks": 22704,
          "time": 78.8332545,
          "velocity": 0.9448818897637795
        },
        {
          "duration": 0.08333325000000968,
          "durationTicks": 24,
          "midi": 82,
          "name": "A#5",
          "ticks": 22728,
          "time": 78.91658774999999,
          "velocity": 0.9448818897637795
        },
        {
          "duration": 0.16666649999999095,
          "durationTicks": 48,
          "midi": 36,
          "name": "C2",
          "ticks": 22752,
          "time": 78.999921,
          "velocity": 0.9448818897637795
        },
        {
          "duration": 0.08333324999999547,
          "durationTicks": 24,
          "midi": 82,
          "name": "A#5",
          "ticks": 22752,
          "time": 78.999921,
          "velocity": 0.9448818897637795
        },
        {
          "duration": 0.08333324999999547,
          "durationTicks": 24,
          "midi": 82,
          "name": "A#5",
          "ticks": 22776,
          "time": 79.08325425,
          "velocity": 0.9448818897637795
        },
        {
          "duration": 0.08333325000000968,
          "durationTicks": 24,
          "midi": 82,
          "name": "A#5",
          "ticks": 22800,
          "time": 79.16658749999999,
          "velocity": 0.9448818897637795
        },
        {
          "duration": 0.08333324999999547,
          "durationTicks": 24,
          "midi": 82,
          "name": "A#5",
          "ticks": 22824,
          "time": 79.24992075,
          "velocity": 0.9448818897637795
        },
        {
          "duration": 0.16666650000000516,
          "durationTicks": 48,
          "midi": 36,
          "name": "C2",
          "ticks": 22848,
          "time": 79.333254,
          "velocity": 0.9448818897637795
        },
        {
          "duration": 0.08333324999999547,
          "durationTicks": 24,
          "midi": 82,
          "name": "A#5",
          "ticks": 22848,
          "time": 79.333254,
          "velocity": 0.9448818897637795
        },
        {
          "duration": 0.08333325000000968,
          "durationTicks": 24,
          "midi": 82,
          "name": "A#5",
          "ticks": 22872,
          "time": 79.41658724999999,
          "velocity": 0.9448818897637795
        },
        {
          "duration": 0.08333324999999547,
          "durationTicks": 24,
          "midi": 82,
          "name": "A#5",
          "ticks": 22896,
          "time": 79.4999205,
          "velocity": 0.9448818897637795
        },
        {
          "duration": 0.08333324999999547,
          "durationTicks": 24,
          "midi": 82,
          "name": "A#5",
          "ticks": 22920,
          "time": 79.58325375,
          "velocity": 0.9448818897637795
        },
        {
          "duration": 0.16666650000000516,
          "durationTicks": 48,
          "midi": 36,
          "name": "C2",
          "ticks": 22944,
          "time": 79.66658699999999,
          "velocity": 0.9448818897637795
        },
        {
          "duration": 0.08333325000000968,
          "durationTicks": 24,
          "midi": 82,
          "name": "A#5",
          "ticks": 22944,
          "time": 79.66658699999999,
          "velocity": 0.9448818897637795
        },
        {
          "duration": 0.08333324999999547,
          "durationTicks": 24,
          "midi": 82,
          "name": "A#5",
          "ticks": 22968,
          "time": 79.74992025,
          "velocity": 0.9448818897637795
        },
        {
          "duration": 0.08333324999999547,
          "durationTicks": 24,
          "midi": 82,
          "name": "A#5",
          "ticks": 22992,
          "time": 79.8332535,
          "velocity": 0.9448818897637795
        },
        {
          "duration": 0.08333325000000968,
          "durationTicks": 24,
          "midi": 82,
          "name": "A#5",
          "ticks": 23016,
          "time": 79.91658675,
          "velocity": 0.9448818897637795
        },
        {
          "duration": 0.16666649999999095,
          "durationTicks": 48,
          "midi": 36,
          "name": "C2",
          "ticks": 23040,
          "time": 79.99992,
          "velocity": 0.9448818897637795
        },
        {
          "duration": 0.08333324999999547,
          "durationTicks": 24,
          "midi": 82,
          "name": "A#5",
          "ticks": 23040,
          "time": 79.99992,
          "velocity": 0.9448818897637795
        },
        {
          "duration": 0.08333324999999547,
          "durationTicks": 24,
          "midi": 82,
          "name": "A#5",
          "ticks": 23064,
          "time": 80.08325325,
          "velocity": 0.9448818897637795
        },
        {
          "duration": 0.08333325000000968,
          "durationTicks": 24,
          "midi": 82,
          "name": "A#5",
          "ticks": 23088,
          "time": 80.1665865,
          "velocity": 0.9448818897637795
        },
        {
          "duration": 0.08333324999999547,
          "durationTicks": 24,
          "midi": 82,
          "name": "A#5",
          "ticks": 23112,
          "time": 80.24991975,
          "velocity": 0.9448818897637795
        },
        {
          "duration": 0.16666650000000516,
          "durationTicks": 48,
          "midi": 36,
          "name": "C2",
          "ticks": 23136,
          "time": 80.333253,
          "velocity": 0.9448818897637795
        },
        {
          "duration": 0.08333324999999547,
          "durationTicks": 24,
          "midi": 82,
          "name": "A#5",
          "ticks": 23136,
          "time": 80.333253,
          "velocity": 0.9448818897637795
        },
        {
          "duration": 0.08333325000000968,
          "durationTicks": 24,
          "midi": 82,
          "name": "A#5",
          "ticks": 23160,
          "time": 80.41658625,
          "velocity": 0.9448818897637795
        },
        {
          "duration": 0.08333324999999547,
          "durationTicks": 24,
          "midi": 82,
          "name": "A#5",
          "ticks": 23184,
          "time": 80.4999195,
          "velocity": 0.9448818897637795
        },
        {
          "duration": 0.08333324999999547,
          "durationTicks": 24,
          "midi": 82,
          "name": "A#5",
          "ticks": 23208,
          "time": 80.58325275,
          "velocity": 0.9448818897637795
        },
        {
          "duration": 0.16666650000000516,
          "durationTicks": 48,
          "midi": 36,
          "name": "C2",
          "ticks": 23232,
          "time": 80.666586,
          "velocity": 0.9448818897637795
        },
        {
          "duration": 0.08333324999999547,
          "durationTicks": 24,
          "midi": 82,
          "name": "A#5",
          "ticks": 23232,
          "time": 80.666586,
          "velocity": 0.9448818897637795
        },
        {
          "duration": 0.08333325000000968,
          "durationTicks": 24,
          "midi": 82,
          "name": "A#5",
          "ticks": 23256,
          "time": 80.74991924999999,
          "velocity": 0.9448818897637795
        },
        {
          "duration": 0.08333324999999547,
          "durationTicks": 24,
          "midi": 82,
          "name": "A#5",
          "ticks": 23280,
          "time": 80.8332525,
          "velocity": 0.9448818897637795
        },
        {
          "duration": 0.08333324999999547,
          "durationTicks": 24,
          "midi": 82,
          "name": "A#5",
          "ticks": 23304,
          "time": 80.91658575,
          "velocity": 0.9448818897637795
        },
        {
          "duration": 0.16666650000000516,
          "durationTicks": 48,
          "midi": 36,
          "name": "C2",
          "ticks": 23328,
          "time": 80.99991899999999,
          "velocity": 0.9448818897637795
        },
        {
          "duration": 0.08333325000000968,
          "durationTicks": 24,
          "midi": 82,
          "name": "A#5",
          "ticks": 23328,
          "time": 80.99991899999999,
          "velocity": 0.9448818897637795
        },
        {
          "duration": 0.08333324999999547,
          "durationTicks": 24,
          "midi": 82,
          "name": "A#5",
          "ticks": 23352,
          "time": 81.08325225,
          "velocity": 0.9448818897637795
        },
        {
          "duration": 0.08333324999999547,
          "durationTicks": 24,
          "midi": 82,
          "name": "A#5",
          "ticks": 23376,
          "time": 81.1665855,
          "velocity": 0.9448818897637795
        },
        {
          "duration": 0.08333325000000968,
          "durationTicks": 24,
          "midi": 82,
          "name": "A#5",
          "ticks": 23400,
          "time": 81.24991874999999,
          "velocity": 0.9448818897637795
        },
        {
          "duration": 0.16666649999999095,
          "durationTicks": 48,
          "midi": 36,
          "name": "C2",
          "ticks": 23424,
          "time": 81.333252,
          "velocity": 0.9448818897637795
        },
        {
          "duration": 0.08333324999999547,
          "durationTicks": 24,
          "midi": 82,
          "name": "A#5",
          "ticks": 23424,
          "time": 81.333252,
          "velocity": 0.9448818897637795
        },
        {
          "duration": 0.08333324999999547,
          "durationTicks": 24,
          "midi": 82,
          "name": "A#5",
          "ticks": 23448,
          "time": 81.41658525,
          "velocity": 0.9448818897637795
        },
        {
          "duration": 0.08333325000000968,
          "durationTicks": 24,
          "midi": 82,
          "name": "A#5",
          "ticks": 23472,
          "time": 81.49991849999999,
          "velocity": 0.9448818897637795
        },
        {
          "duration": 0.08333324999999547,
          "durationTicks": 24,
          "midi": 82,
          "name": "A#5",
          "ticks": 23496,
          "time": 81.58325175,
          "velocity": 0.9448818897637795
        },
        {
          "duration": 0.08333324999999547,
          "durationTicks": 24,
          "midi": 82,
          "name": "A#5",
          "ticks": 23520,
          "time": 81.666585,
          "velocity": 0.9448818897637795
        },
        {
          "duration": 0.16666650000000516,
          "durationTicks": 48,
          "midi": 36,
          "name": "C2",
          "ticks": 23520,
          "time": 81.666585,
          "velocity": 0.9448818897637795
        },
        {
          "duration": 0.08333325000000968,
          "durationTicks": 24,
          "midi": 82,
          "name": "A#5",
          "ticks": 23544,
          "time": 81.74991825,
          "velocity": 0.9448818897637795
        },
        {
          "duration": 0.08333324999999547,
          "durationTicks": 24,
          "midi": 82,
          "name": "A#5",
          "ticks": 23568,
          "time": 81.8332515,
          "velocity": 0.9448818897637795
        },
        {
          "duration": 0.08333324999999547,
          "durationTicks": 24,
          "midi": 82,
          "name": "A#5",
          "ticks": 23592,
          "time": 81.91658475,
          "velocity": 0.9448818897637795
        },
        {
          "duration": 0.08333325000000968,
          "durationTicks": 24,
          "midi": 82,
          "name": "A#5",
          "ticks": 23616,
          "time": 81.999918,
          "velocity": 0.9448818897637795
        },
        {
          "duration": 0.16666650000000516,
          "durationTicks": 48,
          "midi": 36,
          "name": "C2",
          "ticks": 23616,
          "time": 81.999918,
          "velocity": 0.9448818897637795
        },
        {
          "duration": 0.08333324999999547,
          "durationTicks": 24,
          "midi": 82,
          "name": "A#5",
          "ticks": 23640,
          "time": 82.08325125,
          "velocity": 0.9448818897637795
        },
        {
          "duration": 0.08333324999999547,
          "durationTicks": 24,
          "midi": 82,
          "name": "A#5",
          "ticks": 23664,
          "time": 82.1665845,
          "velocity": 0.9448818897637795
        },
        {
          "duration": 0.08333325000000968,
          "durationTicks": 24,
          "midi": 82,
          "name": "A#5",
          "ticks": 23688,
          "time": 82.24991775,
          "velocity": 0.9448818897637795
        },
        {
          "duration": 0.16666649999999095,
          "durationTicks": 48,
          "midi": 36,
          "name": "C2",
          "ticks": 23712,
          "time": 82.333251,
          "velocity": 0.9448818897637795
        },
        {
          "duration": 0.08333324999999547,
          "durationTicks": 24,
          "midi": 82,
          "name": "A#5",
          "ticks": 23712,
          "time": 82.333251,
          "velocity": 0.9448818897637795
        },
        {
          "duration": 0.08333324999999547,
          "durationTicks": 24,
          "midi": 82,
          "name": "A#5",
          "ticks": 23736,
          "time": 82.41658425,
          "velocity": 0.9448818897637795
        },
        {
          "duration": 0.08333324999999547,
          "durationTicks": 24,
          "midi": 82,
          "name": "A#5",
          "ticks": 23760,
          "time": 82.4999175,
          "velocity": 0.9448818897637795
        },
        {
          "duration": 0.08333325000000968,
          "durationTicks": 24,
          "midi": 82,
          "name": "A#5",
          "ticks": 23784,
          "time": 82.58325074999999,
          "velocity": 0.9448818897637795
        },
        {
          "duration": 0.16666649999999095,
          "durationTicks": 48,
          "midi": 36,
          "name": "C2",
          "ticks": 23808,
          "time": 82.666584,
          "velocity": 0.9448818897637795
        },
        {
          "duration": 0.08333324999999547,
          "durationTicks": 24,
          "midi": 82,
          "name": "A#5",
          "ticks": 23808,
          "time": 82.666584,
          "velocity": 0.9448818897637795
        },
        {
          "duration": 0.08333324999999547,
          "durationTicks": 24,
          "midi": 82,
          "name": "A#5",
          "ticks": 23832,
          "time": 82.74991725,
          "velocity": 0.9448818897637795
        },
        {
          "duration": 0.08333325000000968,
          "durationTicks": 24,
          "midi": 82,
          "name": "A#5",
          "ticks": 23856,
          "time": 82.83325049999999,
          "velocity": 0.9448818897637795
        },
        {
          "duration": 0.08333324999999547,
          "durationTicks": 24,
          "midi": 82,
          "name": "A#5",
          "ticks": 23880,
          "time": 82.91658375,
          "velocity": 0.9448818897637795
        },
        {
          "duration": 0.16666650000000516,
          "durationTicks": 48,
          "midi": 36,
          "name": "C2",
          "ticks": 23904,
          "time": 82.999917,
          "velocity": 0.9448818897637795
        },
        {
          "duration": 0.08333324999999547,
          "durationTicks": 24,
          "midi": 82,
          "name": "A#5",
          "ticks": 23904,
          "time": 82.999917,
          "velocity": 0.9448818897637795
        },
        {
          "duration": 0.08333325000000968,
          "durationTicks": 24,
          "midi": 82,
          "name": "A#5",
          "ticks": 23928,
          "time": 83.08325024999999,
          "velocity": 0.9448818897637795
        },
        {
          "duration": 0.08333324999999547,
          "durationTicks": 24,
          "midi": 82,
          "name": "A#5",
          "ticks": 23952,
          "time": 83.1665835,
          "velocity": 0.9448818897637795
        },
        {
          "duration": 0.08333324999999547,
          "durationTicks": 24,
          "midi": 82,
          "name": "A#5",
          "ticks": 23976,
          "time": 83.24991675,
          "velocity": 0.9448818897637795
        },
        {
          "duration": 0.16666650000000516,
          "durationTicks": 48,
          "midi": 36,
          "name": "C2",
          "ticks": 24000,
          "time": 83.33324999999999,
          "velocity": 0.9448818897637795
        },
        {
          "duration": 0.08333325000000968,
          "durationTicks": 24,
          "midi": 82,
          "name": "A#5",
          "ticks": 24000,
          "time": 83.33324999999999,
          "velocity": 0.9448818897637795
        },
        {
          "duration": 0.08333324999999547,
          "durationTicks": 24,
          "midi": 82,
          "name": "A#5",
          "ticks": 24024,
          "time": 83.41658325,
          "velocity": 0.9448818897637795
        },
        {
          "duration": 0.08333324999999547,
          "durationTicks": 24,
          "midi": 82,
          "name": "A#5",
          "ticks": 24048,
          "time": 83.4999165,
          "velocity": 0.9448818897637795
        },
        {
          "duration": 0.08333325000000968,
          "durationTicks": 24,
          "midi": 82,
          "name": "A#5",
          "ticks": 24072,
          "time": 83.58324975,
          "velocity": 0.9448818897637795
        },
        {
          "duration": 0.16666649999999095,
          "durationTicks": 48,
          "midi": 36,
          "name": "C2",
          "ticks": 24096,
          "time": 83.666583,
          "velocity": 0.9448818897637795
        },
        {
          "duration": 0.08333324999999547,
          "durationTicks": 24,
          "midi": 82,
          "name": "A#5",
          "ticks": 24096,
          "time": 83.666583,
          "velocity": 0.9448818897637795
        },
        {
          "duration": 0.08333324999999547,
          "durationTicks": 24,
          "midi": 82,
          "name": "A#5",
          "ticks": 24120,
          "time": 83.74991625,
          "velocity": 0.9448818897637795
        },
        {
          "duration": 0.08333325000000968,
          "durationTicks": 24,
          "midi": 82,
          "name": "A#5",
          "ticks": 24144,
          "time": 83.8332495,
          "velocity": 0.9448818897637795
        },
        {
          "duration": 0.08333324999999547,
          "durationTicks": 24,
          "midi": 82,
          "name": "A#5",
          "ticks": 24168,
          "time": 83.91658275,
          "velocity": 0.9448818897637795
        },
        {
          "duration": 0.16666650000000516,
          "durationTicks": 48,
          "midi": 36,
          "name": "C2",
          "ticks": 24192,
          "time": 83.999916,
          "velocity": 0.9448818897637795
        },
        {
          "duration": 0.08333324999999547,
          "durationTicks": 24,
          "midi": 82,
          "name": "A#5",
          "ticks": 24192,
          "time": 83.999916,
          "velocity": 0.9448818897637795
        },
        {
          "duration": 0.08333325000000968,
          "durationTicks": 24,
          "midi": 82,
          "name": "A#5",
          "ticks": 24216,
          "time": 84.08324925,
          "velocity": 0.9448818897637795
        },
        {
          "duration": 0.08333324999999547,
          "durationTicks": 24,
          "midi": 82,
          "name": "A#5",
          "ticks": 24240,
          "time": 84.1665825,
          "velocity": 0.9448818897637795
        },
        {
          "duration": 0.08333324999999547,
          "durationTicks": 24,
          "midi": 82,
          "name": "A#5",
          "ticks": 24264,
          "time": 84.24991575,
          "velocity": 0.9448818897637795
        },
        {
          "duration": 0.16666650000000516,
          "durationTicks": 48,
          "midi": 36,
          "name": "C2",
          "ticks": 24288,
          "time": 84.333249,
          "velocity": 0.9448818897637795
        },
        {
          "duration": 0.08333324999999547,
          "durationTicks": 24,
          "midi": 82,
          "name": "A#5",
          "ticks": 24288,
          "time": 84.333249,
          "velocity": 0.9448818897637795
        },
        {
          "duration": 0.08333325000000968,
          "durationTicks": 24,
          "midi": 82,
          "name": "A#5",
          "ticks": 24312,
          "time": 84.41658224999999,
          "velocity": 0.9448818897637795
        },
        {
          "duration": 0.08333324999999547,
          "durationTicks": 24,
          "midi": 82,
          "name": "A#5",
          "ticks": 24336,
          "time": 84.4999155,
          "velocity": 0.9448818897637795
        },
        {
          "duration": 0.08333324999999547,
          "durationTicks": 24,
          "midi": 82,
          "name": "A#5",
          "ticks": 24360,
          "time": 84.58324875,
          "velocity": 0.9448818897637795
        },
        {
          "duration": 0.16666650000000516,
          "durationTicks": 48,
          "midi": 36,
          "name": "C2",
          "ticks": 24384,
          "time": 84.66658199999999,
          "velocity": 0.9448818897637795
        },
        {
          "duration": 0.08333325000000968,
          "durationTicks": 24,
          "midi": 82,
          "name": "A#5",
          "ticks": 24384,
          "time": 84.66658199999999,
          "velocity": 0.9448818897637795
        },
        {
          "duration": 0.08333324999999547,
          "durationTicks": 24,
          "midi": 82,
          "name": "A#5",
          "ticks": 24408,
          "time": 84.74991525,
          "velocity": 0.9448818897637795
        },
        {
          "duration": 0.08333324999999547,
          "durationTicks": 24,
          "midi": 82,
          "name": "A#5",
          "ticks": 24432,
          "time": 84.8332485,
          "velocity": 0.9448818897637795
        },
        {
          "duration": 0.08333325000000968,
          "durationTicks": 24,
          "midi": 82,
          "name": "A#5",
          "ticks": 24456,
          "time": 84.91658174999999,
          "velocity": 0.9448818897637795
        },
        {
          "duration": 0.16666649999999095,
          "durationTicks": 48,
          "midi": 36,
          "name": "C2",
          "ticks": 24480,
          "time": 84.999915,
          "velocity": 0.9448818897637795
        },
        {
          "duration": 0.08333324999999547,
          "durationTicks": 24,
          "midi": 82,
          "name": "A#5",
          "ticks": 24480,
          "time": 84.999915,
          "velocity": 0.9448818897637795
        },
        {
          "duration": 0.08333324999999547,
          "durationTicks": 24,
          "midi": 82,
          "name": "A#5",
          "ticks": 24504,
          "time": 85.08324825,
          "velocity": 0.9448818897637795
        },
        {
          "duration": 0.08333325000000968,
          "durationTicks": 24,
          "midi": 82,
          "name": "A#5",
          "ticks": 24528,
          "time": 85.16658149999999,
          "velocity": 0.9448818897637795
        },
        {
          "duration": 0.08333324999999547,
          "durationTicks": 24,
          "midi": 82,
          "name": "A#5",
          "ticks": 24552,
          "time": 85.24991475,
          "velocity": 0.9448818897637795
        },
        {
          "duration": 0.08333324999999547,
          "durationTicks": 24,
          "midi": 82,
          "name": "A#5",
          "ticks": 24576,
          "time": 85.333248,
          "velocity": 0.9448818897637795
        },
        {
          "duration": 0.16666650000000516,
          "durationTicks": 48,
          "midi": 36,
          "name": "C2",
          "ticks": 24576,
          "time": 85.333248,
          "velocity": 0.9448818897637795
        },
        {
          "duration": 0.08333325000000968,
          "durationTicks": 24,
          "midi": 82,
          "name": "A#5",
          "ticks": 24600,
          "time": 85.41658125,
          "velocity": 0.9448818897637795
        },
        {
          "duration": 0.08333324999999547,
          "durationTicks": 24,
          "midi": 82,
          "name": "A#5",
          "ticks": 24624,
          "time": 85.4999145,
          "velocity": 0.9448818897637795
        },
        {
          "duration": 0.08333324999999547,
          "durationTicks": 24,
          "midi": 82,
          "name": "A#5",
          "ticks": 24648,
          "time": 85.58324775,
          "velocity": 0.9448818897637795
        },
        {
          "duration": 0.16666650000000516,
          "durationTicks": 48,
          "midi": 36,
          "name": "C2",
          "ticks": 24672,
          "time": 85.666581,
          "velocity": 0.9448818897637795
        },
        {
          "duration": 0.08333325000000968,
          "durationTicks": 24,
          "midi": 82,
          "name": "A#5",
          "ticks": 24672,
          "time": 85.666581,
          "velocity": 0.9448818897637795
        },
        {
          "duration": 0.08333324999999547,
          "durationTicks": 24,
          "midi": 82,
          "name": "A#5",
          "ticks": 24696,
          "time": 85.74991425,
          "velocity": 0.9448818897637795
        },
        {
          "duration": 0.08333324999999547,
          "durationTicks": 24,
          "midi": 82,
          "name": "A#5",
          "ticks": 24720,
          "time": 85.8332475,
          "velocity": 0.9448818897637795
        },
        {
          "duration": 0.08333325000000968,
          "durationTicks": 24,
          "midi": 82,
          "name": "A#5",
          "ticks": 24744,
          "time": 85.91658075,
          "velocity": 0.9448818897637795
        },
        {
          "duration": 0.08333324999999547,
          "durationTicks": 24,
          "midi": 82,
          "name": "A#5",
          "ticks": 24768,
          "time": 85.999914,
          "velocity": 0.9448818897637795
        },
        {
          "duration": 0.16666649999999095,
          "durationTicks": 48,
          "midi": 36,
          "name": "C2",
          "ticks": 24768,
          "time": 85.999914,
          "velocity": 0.9448818897637795
        },
        {
          "duration": 0.08333324999999547,
          "durationTicks": 24,
          "midi": 82,
          "name": "A#5",
          "ticks": 24792,
          "time": 86.08324725,
          "velocity": 0.9448818897637795
        },
        {
          "duration": 0.08333325000000968,
          "durationTicks": 24,
          "midi": 82,
          "name": "A#5",
          "ticks": 24816,
          "time": 86.1665805,
          "velocity": 0.9448818897637795
        },
        {
          "duration": 0.08333324999999547,
          "durationTicks": 24,
          "midi": 82,
          "name": "A#5",
          "ticks": 24840,
          "time": 86.24991375,
          "velocity": 0.9448818897637795
        },
        {
          "duration": 0.16666649999999095,
          "durationTicks": 48,
          "midi": 36,
          "name": "C2",
          "ticks": 24864,
          "time": 86.333247,
          "velocity": 0.9448818897637795
        },
        {
          "duration": 0.08333324999999547,
          "durationTicks": 24,
          "midi": 82,
          "name": "A#5",
          "ticks": 24864,
          "time": 86.333247,
          "velocity": 0.9448818897637795
        },
        {
          "duration": 0.08333324999999547,
          "durationTicks": 24,
          "midi": 82,
          "name": "A#5",
          "ticks": 24888,
          "time": 86.41658025,
          "velocity": 0.9448818897637795
        },
        {
          "duration": 0.08333325000000968,
          "durationTicks": 24,
          "midi": 82,
          "name": "A#5",
          "ticks": 24912,
          "time": 86.49991349999999,
          "velocity": 0.9448818897637795
        },
        {
          "duration": 0.08333324999999547,
          "durationTicks": 24,
          "midi": 82,
          "name": "A#5",
          "ticks": 24936,
          "time": 86.58324675,
          "velocity": 0.9448818897637795
        },
        {
          "duration": 0.08333324999999547,
          "durationTicks": 24,
          "midi": 82,
          "name": "A#5",
          "ticks": 24960,
          "time": 86.66658,
          "velocity": 0.9448818897637795
        },
        {
          "duration": 0.16666650000000516,
          "durationTicks": 48,
          "midi": 36,
          "name": "C2",
          "ticks": 24960,
          "time": 86.66658,
          "velocity": 0.9448818897637795
        },
        {
          "duration": 0.08333325000000968,
          "durationTicks": 24,
          "midi": 82,
          "name": "A#5",
          "ticks": 24984,
          "time": 86.74991324999999,
          "velocity": 0.9448818897637795
        },
        {
          "duration": 0.08333324999999547,
          "durationTicks": 24,
          "midi": 82,
          "name": "A#5",
          "ticks": 25008,
          "time": 86.8332465,
          "velocity": 0.9448818897637795
        },
        {
          "duration": 0.08333324999999547,
          "durationTicks": 24,
          "midi": 82,
          "name": "A#5",
          "ticks": 25032,
          "time": 86.91657975,
          "velocity": 0.9448818897637795
        },
        {
          "duration": 0.16666650000000516,
          "durationTicks": 48,
          "midi": 36,
          "name": "C2",
          "ticks": 25056,
          "time": 86.99991299999999,
          "velocity": 0.9448818897637795
        },
        {
          "duration": 0.08333325000000968,
          "durationTicks": 24,
          "midi": 82,
          "name": "A#5",
          "ticks": 25056,
          "time": 86.99991299999999,
          "velocity": 0.9448818897637795
        },
        {
          "duration": 0.08333324999999547,
          "durationTicks": 24,
          "midi": 82,
          "name": "A#5",
          "ticks": 25080,
          "time": 87.08324625,
          "velocity": 0.9448818897637795
        },
        {
          "duration": 0.08333324999999547,
          "durationTicks": 24,
          "midi": 82,
          "name": "A#5",
          "ticks": 25104,
          "time": 87.1665795,
          "velocity": 0.9448818897637795
        },
        {
          "duration": 0.08333325000000968,
          "durationTicks": 24,
          "midi": 82,
          "name": "A#5",
          "ticks": 25128,
          "time": 87.24991275,
          "velocity": 0.9448818897637795
        },
        {
          "duration": 0.08333324999999547,
          "durationTicks": 24,
          "midi": 82,
          "name": "A#5",
          "ticks": 25152,
          "time": 87.333246,
          "velocity": 0.9448818897637795
        },
        {
          "duration": 0.16666649999999095,
          "durationTicks": 48,
          "midi": 36,
          "name": "C2",
          "ticks": 25152,
          "time": 87.333246,
          "velocity": 0.9448818897637795
        },
        {
          "duration": 0.08333324999999547,
          "durationTicks": 24,
          "midi": 82,
          "name": "A#5",
          "ticks": 25176,
          "time": 87.41657925,
          "velocity": 0.9448818897637795
        },
        {
          "duration": 0.08333325000000968,
          "durationTicks": 24,
          "midi": 82,
          "name": "A#5",
          "ticks": 25200,
          "time": 87.4999125,
          "velocity": 0.9448818897637795
        },
        {
          "duration": 0.08333324999999547,
          "durationTicks": 24,
          "midi": 82,
          "name": "A#5",
          "ticks": 25224,
          "time": 87.58324575,
          "velocity": 0.9448818897637795
        },
        {
          "duration": 0.16666650000000516,
          "durationTicks": 48,
          "midi": 36,
          "name": "C2",
          "ticks": 25248,
          "time": 87.666579,
          "velocity": 0.9448818897637795
        },
        {
          "duration": 0.08333324999999547,
          "durationTicks": 24,
          "midi": 82,
          "name": "A#5",
          "ticks": 25248,
          "time": 87.666579,
          "velocity": 0.9448818897637795
        },
        {
          "duration": 0.08333325000000968,
          "durationTicks": 24,
          "midi": 82,
          "name": "A#5",
          "ticks": 25272,
          "time": 87.74991225,
          "velocity": 0.9448818897637795
        },
        {
          "duration": 0.08333324999999547,
          "durationTicks": 24,
          "midi": 82,
          "name": "A#5",
          "ticks": 25296,
          "time": 87.8332455,
          "velocity": 0.9448818897637795
        },
        {
          "duration": 0.08333324999999547,
          "durationTicks": 24,
          "midi": 82,
          "name": "A#5",
          "ticks": 25320,
          "time": 87.91657875,
          "velocity": 0.9448818897637795
        },
        {
          "duration": 0.16666650000000516,
          "durationTicks": 48,
          "midi": 57,
          "name": "A3",
          "ticks": 25344,
          "time": 87.999912,
          "velocity": 1
        },
        {
          "duration": 0.16666650000000516,
          "durationTicks": 48,
          "midi": 36,
          "name": "C2",
          "ticks": 25344,
          "time": 87.999912,
          "velocity": 0.9448818897637795
        },
        {
          "duration": 0.08333325000000968,
          "durationTicks": 24,
          "midi": 82,
          "name": "A#5",
          "ticks": 25344,
          "time": 87.999912,
          "velocity": 0.9448818897637795
        },
        {
          "duration": 0.08333324999999547,
          "durationTicks": 24,
          "midi": 82,
          "name": "A#5",
          "ticks": 25368,
          "time": 88.08324525,
          "velocity": 0.9448818897637795
        },
        {
          "duration": 0.08333324999999547,
          "durationTicks": 24,
          "midi": 82,
          "name": "A#5",
          "ticks": 25392,
          "time": 88.1665785,
          "velocity": 0.9448818897637795
        },
        {
          "duration": 0.08333324999999547,
          "durationTicks": 24,
          "midi": 82,
          "name": "A#5",
          "ticks": 25416,
          "time": 88.24991175,
          "velocity": 0.9448818897637795
        },
        {
          "duration": 0.16666650000000516,
          "durationTicks": 48,
          "midi": 36,
          "name": "C2",
          "ticks": 25440,
          "time": 88.33324499999999,
          "velocity": 0.9448818897637795
        },
        {
          "duration": 0.08333325000000968,
          "durationTicks": 24,
          "midi": 82,
          "name": "A#5",
          "ticks": 25440,
          "time": 88.33324499999999,
          "velocity": 0.9448818897637795
        },
        {
          "duration": 0.08333324999999547,
          "durationTicks": 24,
          "midi": 82,
          "name": "A#5",
          "ticks": 25464,
          "time": 88.41657825,
          "velocity": 0.9448818897637795
        },
        {
          "duration": 0.08333324999999547,
          "durationTicks": 24,
          "midi": 82,
          "name": "A#5",
          "ticks": 25488,
          "time": 88.4999115,
          "velocity": 0.9448818897637795
        },
        {
          "duration": 0.08333325000000968,
          "durationTicks": 24,
          "midi": 82,
          "name": "A#5",
          "ticks": 25512,
          "time": 88.58324474999999,
          "velocity": 0.9448818897637795
        },
        {
          "duration": 0.16666649999999095,
          "durationTicks": 48,
          "midi": 36,
          "name": "C2",
          "ticks": 25536,
          "time": 88.666578,
          "velocity": 0.9448818897637795
        },
        {
          "duration": 0.08333324999999547,
          "durationTicks": 24,
          "midi": 82,
          "name": "A#5",
          "ticks": 25536,
          "time": 88.666578,
          "velocity": 0.9448818897637795
        },
        {
          "duration": 0.08333324999999547,
          "durationTicks": 24,
          "midi": 82,
          "name": "A#5",
          "ticks": 25560,
          "time": 88.74991125,
          "velocity": 0.9448818897637795
        },
        {
          "duration": 0.08333325000000968,
          "durationTicks": 24,
          "midi": 82,
          "name": "A#5",
          "ticks": 25584,
          "time": 88.83324449999999,
          "velocity": 0.9448818897637795
        },
        {
          "duration": 0.08333324999999547,
          "durationTicks": 24,
          "midi": 82,
          "name": "A#5",
          "ticks": 25608,
          "time": 88.91657775,
          "velocity": 0.9448818897637795
        },
        {
          "duration": 0.16666650000000516,
          "durationTicks": 48,
          "midi": 36,
          "name": "C2",
          "ticks": 25632,
          "time": 88.999911,
          "velocity": 0.9448818897637795
        },
        {
          "duration": 0.08333324999999547,
          "durationTicks": 24,
          "midi": 82,
          "name": "A#5",
          "ticks": 25632,
          "time": 88.999911,
          "velocity": 0.9448818897637795
        },
        {
          "duration": 0.08333325000000968,
          "durationTicks": 24,
          "midi": 82,
          "name": "A#5",
          "ticks": 25656,
          "time": 89.08324424999999,
          "velocity": 0.9448818897637795
        },
        {
          "duration": 0.08333324999999547,
          "durationTicks": 24,
          "midi": 82,
          "name": "A#5",
          "ticks": 25680,
          "time": 89.1665775,
          "velocity": 0.9448818897637795
        },
        {
          "duration": 0.08333324999999547,
          "durationTicks": 24,
          "midi": 82,
          "name": "A#5",
          "ticks": 25704,
          "time": 89.24991075,
          "velocity": 0.9448818897637795
        },
        {
          "duration": 0.16666650000000516,
          "durationTicks": 48,
          "midi": 36,
          "name": "C2",
          "ticks": 25728,
          "time": 89.333244,
          "velocity": 0.9448818897637795
        },
        {
          "duration": 0.08333325000000968,
          "durationTicks": 24,
          "midi": 82,
          "name": "A#5",
          "ticks": 25728,
          "time": 89.333244,
          "velocity": 0.9448818897637795
        },
        {
          "duration": 0.08333324999999547,
          "durationTicks": 24,
          "midi": 82,
          "name": "A#5",
          "ticks": 25752,
          "time": 89.41657725,
          "velocity": 0.9448818897637795
        },
        {
          "duration": 0.08333324999999547,
          "durationTicks": 24,
          "midi": 82,
          "name": "A#5",
          "ticks": 25776,
          "time": 89.4999105,
          "velocity": 0.9448818897637795
        },
        {
          "duration": 0.08333325000000968,
          "durationTicks": 24,
          "midi": 82,
          "name": "A#5",
          "ticks": 25800,
          "time": 89.58324375,
          "velocity": 0.9448818897637795
        },
        {
          "duration": 0.16666649999999095,
          "durationTicks": 48,
          "midi": 36,
          "name": "C2",
          "ticks": 25824,
          "time": 89.666577,
          "velocity": 0.9448818897637795
        },
        {
          "duration": 0.08333324999999547,
          "durationTicks": 24,
          "midi": 82,
          "name": "A#5",
          "ticks": 25824,
          "time": 89.666577,
          "velocity": 0.9448818897637795
        },
        {
          "duration": 0.08333324999999547,
          "durationTicks": 24,
          "midi": 82,
          "name": "A#5",
          "ticks": 25848,
          "time": 89.74991025,
          "velocity": 0.9448818897637795
        },
        {
          "duration": 0.08333325000000968,
          "durationTicks": 24,
          "midi": 82,
          "name": "A#5",
          "ticks": 25872,
          "time": 89.8332435,
          "velocity": 0.9448818897637795
        },
        {
          "duration": 0.08333324999999547,
          "durationTicks": 24,
          "midi": 82,
          "name": "A#5",
          "ticks": 25896,
          "time": 89.91657675,
          "velocity": 0.9448818897637795
        },
        {
          "duration": 0.16666649999999095,
          "durationTicks": 48,
          "midi": 36,
          "name": "C2",
          "ticks": 25920,
          "time": 89.99991,
          "velocity": 0.9448818897637795
        },
        {
          "duration": 0.08333324999999547,
          "durationTicks": 24,
          "midi": 82,
          "name": "A#5",
          "ticks": 25920,
          "time": 89.99991,
          "velocity": 0.9448818897637795
        },
        {
          "duration": 0.08333324999999547,
          "durationTicks": 24,
          "midi": 82,
          "name": "A#5",
          "ticks": 25944,
          "time": 90.08324325,
          "velocity": 0.9448818897637795
        },
        {
          "duration": 0.08333325000000968,
          "durationTicks": 24,
          "midi": 82,
          "name": "A#5",
          "ticks": 25968,
          "time": 90.16657649999999,
          "velocity": 0.9448818897637795
        },
        {
          "duration": 0.08333324999999547,
          "durationTicks": 24,
          "midi": 82,
          "name": "A#5",
          "ticks": 25992,
          "time": 90.24990975,
          "velocity": 0.9448818897637795
        },
        {
          "duration": 0.16666650000000516,
          "durationTicks": 48,
          "midi": 36,
          "name": "C2",
          "ticks": 26016,
          "time": 90.333243,
          "velocity": 0.9448818897637795
        },
        {
          "duration": 0.08333324999999547,
          "durationTicks": 24,
          "midi": 82,
          "name": "A#5",
          "ticks": 26016,
          "time": 90.333243,
          "velocity": 0.9448818897637795
        },
        {
          "duration": 0.08333325000000968,
          "durationTicks": 24,
          "midi": 82,
          "name": "A#5",
          "ticks": 26040,
          "time": 90.41657624999999,
          "velocity": 0.9448818897637795
        },
        {
          "duration": 0.08333324999999547,
          "durationTicks": 24,
          "midi": 82,
          "name": "A#5",
          "ticks": 26064,
          "time": 90.4999095,
          "velocity": 0.9448818897637795
        },
        {
          "duration": 0.08333324999999547,
          "durationTicks": 24,
          "midi": 82,
          "name": "A#5",
          "ticks": 26088,
          "time": 90.58324275,
          "velocity": 0.9448818897637795
        },
        {
          "duration": 0.08333325000000968,
          "durationTicks": 24,
          "midi": 82,
          "name": "A#5",
          "ticks": 26112,
          "time": 90.66657599999999,
          "velocity": 0.9448818897637795
        },
        {
          "duration": 0.16666650000000516,
          "durationTicks": 48,
          "midi": 36,
          "name": "C2",
          "ticks": 26112,
          "time": 90.66657599999999,
          "velocity": 0.9448818897637795
        },
        {
          "duration": 0.08333324999999547,
          "durationTicks": 24,
          "midi": 82,
          "name": "A#5",
          "ticks": 26136,
          "time": 90.74990925,
          "velocity": 0.9448818897637795
        },
        {
          "duration": 0.08333324999999547,
          "durationTicks": 24,
          "midi": 82,
          "name": "A#5",
          "ticks": 26160,
          "time": 90.8332425,
          "velocity": 0.9448818897637795
        },
        {
          "duration": 0.08333325000000968,
          "durationTicks": 24,
          "midi": 82,
          "name": "A#5",
          "ticks": 26184,
          "time": 90.91657574999999,
          "velocity": 0.9448818897637795
        },
        {
          "duration": 0.16666649999999095,
          "durationTicks": 48,
          "midi": 36,
          "name": "C2",
          "ticks": 26208,
          "time": 90.999909,
          "velocity": 0.9448818897637795
        },
        {
          "duration": 0.08333324999999547,
          "durationTicks": 24,
          "midi": 82,
          "name": "A#5",
          "ticks": 26208,
          "time": 90.999909,
          "velocity": 0.9448818897637795
        },
        {
          "duration": 0.08333324999999547,
          "durationTicks": 24,
          "midi": 82,
          "name": "A#5",
          "ticks": 26232,
          "time": 91.08324225,
          "velocity": 0.9448818897637795
        },
        {
          "duration": 0.08333325000000968,
          "durationTicks": 24,
          "midi": 82,
          "name": "A#5",
          "ticks": 26256,
          "time": 91.1665755,
          "velocity": 0.9448818897637795
        },
        {
          "duration": 0.08333324999999547,
          "durationTicks": 24,
          "midi": 82,
          "name": "A#5",
          "ticks": 26280,
          "time": 91.24990875,
          "velocity": 0.9448818897637795
        },
        {
          "duration": 0.08333324999999547,
          "durationTicks": 24,
          "midi": 82,
          "name": "A#5",
          "ticks": 26304,
          "time": 91.333242,
          "velocity": 0.9448818897637795
        },
        {
          "duration": 0.16666650000000516,
          "durationTicks": 48,
          "midi": 36,
          "name": "C2",
          "ticks": 26304,
          "time": 91.333242,
          "velocity": 0.9448818897637795
        },
        {
          "duration": 0.08333325000000968,
          "durationTicks": 24,
          "midi": 82,
          "name": "A#5",
          "ticks": 26328,
          "time": 91.41657525,
          "velocity": 0.9448818897637795
        },
        {
          "duration": 0.08333324999999547,
          "durationTicks": 24,
          "midi": 82,
          "name": "A#5",
          "ticks": 26352,
          "time": 91.4999085,
          "velocity": 0.9448818897637795
        },
        {
          "duration": 0.08333324999999547,
          "durationTicks": 24,
          "midi": 82,
          "name": "A#5",
          "ticks": 26376,
          "time": 91.58324175,
          "velocity": 0.9448818897637795
        },
        {
          "duration": 0.16666650000000516,
          "durationTicks": 48,
          "midi": 36,
          "name": "C2",
          "ticks": 26400,
          "time": 91.666575,
          "velocity": 0.9448818897637795
        },
        {
          "duration": 0.08333325000000968,
          "durationTicks": 24,
          "midi": 82,
          "name": "A#5",
          "ticks": 26400,
          "time": 91.666575,
          "velocity": 0.9448818897637795
        },
        {
          "duration": 0.08333324999999547,
          "durationTicks": 24,
          "midi": 82,
          "name": "A#5",
          "ticks": 26424,
          "time": 91.74990825,
          "velocity": 0.9448818897637795
        },
        {
          "duration": 0.08333324999999547,
          "durationTicks": 24,
          "midi": 82,
          "name": "A#5",
          "ticks": 26448,
          "time": 91.8332415,
          "velocity": 0.9448818897637795
        },
        {
          "duration": 0.08333324999999547,
          "durationTicks": 24,
          "midi": 82,
          "name": "A#5",
          "ticks": 26472,
          "time": 91.91657475,
          "velocity": 0.9448818897637795
        },
        {
          "duration": 0.08333325000000968,
          "durationTicks": 24,
          "midi": 82,
          "name": "A#5",
          "ticks": 26496,
          "time": 91.99990799999999,
          "velocity": 0.9448818897637795
        },
        {
          "duration": 0.16666650000000516,
          "durationTicks": 48,
          "midi": 36,
          "name": "C2",
          "ticks": 26496,
          "time": 91.99990799999999,
          "velocity": 0.9448818897637795
        },
        {
          "duration": 0.08333324999999547,
          "durationTicks": 24,
          "midi": 82,
          "name": "A#5",
          "ticks": 26520,
          "time": 92.08324125,
          "velocity": 0.9448818897637795
        },
        {
          "duration": 0.08333324999999547,
          "durationTicks": 24,
          "midi": 82,
          "name": "A#5",
          "ticks": 26544,
          "time": 92.1665745,
          "velocity": 0.9448818897637795
        },
        {
          "duration": 0.08333325000000968,
          "durationTicks": 24,
          "midi": 82,
          "name": "A#5",
          "ticks": 26568,
          "time": 92.24990774999999,
          "velocity": 0.9448818897637795
        },
        {
          "duration": 0.16666649999999095,
          "durationTicks": 48,
          "midi": 36,
          "name": "C2",
          "ticks": 26592,
          "time": 92.333241,
          "velocity": 0.9448818897637795
        },
        {
          "duration": 0.08333324999999547,
          "durationTicks": 24,
          "midi": 82,
          "name": "A#5",
          "ticks": 26592,
          "time": 92.333241,
          "velocity": 0.9448818897637795
        },
        {
          "duration": 0.08333324999999547,
          "durationTicks": 24,
          "midi": 82,
          "name": "A#5",
          "ticks": 26616,
          "time": 92.41657425,
          "velocity": 0.9448818897637795
        },
        {
          "duration": 0.08333325000000968,
          "durationTicks": 24,
          "midi": 82,
          "name": "A#5",
          "ticks": 26640,
          "time": 92.49990749999999,
          "velocity": 0.9448818897637795
        },
        {
          "duration": 0.08333324999999547,
          "durationTicks": 24,
          "midi": 82,
          "name": "A#5",
          "ticks": 26664,
          "time": 92.58324075,
          "velocity": 0.9448818897637795
        },
        {
          "duration": 0.08333324999999547,
          "durationTicks": 24,
          "midi": 82,
          "name": "A#5",
          "ticks": 26688,
          "time": 92.666574,
          "velocity": 0.9448818897637795
        },
        {
          "duration": 0.16666650000000516,
          "durationTicks": 48,
          "midi": 36,
          "name": "C2",
          "ticks": 26688,
          "time": 92.666574,
          "velocity": 0.9448818897637795
        },
        {
          "duration": 0.08333325000000968,
          "durationTicks": 24,
          "midi": 82,
          "name": "A#5",
          "ticks": 26712,
          "time": 92.74990724999999,
          "velocity": 0.9448818897637795
        },
        {
          "duration": 0.08333324999999547,
          "durationTicks": 24,
          "midi": 82,
          "name": "A#5",
          "ticks": 26736,
          "time": 92.8332405,
          "velocity": 0.9448818897637795
        },
        {
          "duration": 0.08333324999999547,
          "durationTicks": 24,
          "midi": 82,
          "name": "A#5",
          "ticks": 26760,
          "time": 92.91657375,
          "velocity": 0.9448818897637795
        },
        {
          "duration": 0.16666650000000516,
          "durationTicks": 48,
          "midi": 36,
          "name": "C2",
          "ticks": 26784,
          "time": 92.999907,
          "velocity": 0.9448818897637795
        },
        {
          "duration": 0.08333325000000968,
          "durationTicks": 24,
          "midi": 82,
          "name": "A#5",
          "ticks": 26784,
          "time": 92.999907,
          "velocity": 0.9448818897637795
        },
        {
          "duration": 0.08333324999999547,
          "durationTicks": 24,
          "midi": 82,
          "name": "A#5",
          "ticks": 26808,
          "time": 93.08324025,
          "velocity": 0.9448818897637795
        },
        {
          "duration": 0.08333324999999547,
          "durationTicks": 24,
          "midi": 82,
          "name": "A#5",
          "ticks": 26832,
          "time": 93.1665735,
          "velocity": 0.9448818897637795
        },
        {
          "duration": 0.08333325000000968,
          "durationTicks": 24,
          "midi": 82,
          "name": "A#5",
          "ticks": 26856,
          "time": 93.24990675,
          "velocity": 0.9448818897637795
        },
        {
          "duration": 0.08333324999999547,
          "durationTicks": 24,
          "midi": 82,
          "name": "A#5",
          "ticks": 26880,
          "time": 93.33324,
          "velocity": 0.9448818897637795
        },
        {
          "duration": 0.16666649999999095,
          "durationTicks": 48,
          "midi": 36,
          "name": "C2",
          "ticks": 26880,
          "time": 93.33324,
          "velocity": 0.9448818897637795
        },
        {
          "duration": 0.08333324999999547,
          "durationTicks": 24,
          "midi": 82,
          "name": "A#5",
          "ticks": 26904,
          "time": 93.41657325,
          "velocity": 0.9448818897637795
        },
        {
          "duration": 0.08333325000000968,
          "durationTicks": 24,
          "midi": 82,
          "name": "A#5",
          "ticks": 26928,
          "time": 93.4999065,
          "velocity": 0.9448818897637795
        },
        {
          "duration": 0.08333324999999547,
          "durationTicks": 24,
          "midi": 82,
          "name": "A#5",
          "ticks": 26952,
          "time": 93.58323975,
          "velocity": 0.9448818897637795
        },
        {
          "duration": 0.08333324999999547,
          "durationTicks": 24,
          "midi": 82,
          "name": "A#5",
          "ticks": 26976,
          "time": 93.666573,
          "velocity": 0.9448818897637795
        },
        {
          "duration": 0.16666649999999095,
          "durationTicks": 48,
          "midi": 36,
          "name": "C2",
          "ticks": 26976,
          "time": 93.666573,
          "velocity": 0.9448818897637795
        },
        {
          "duration": 0.08333324999999547,
          "durationTicks": 24,
          "midi": 82,
          "name": "A#5",
          "ticks": 27000,
          "time": 93.74990625,
          "velocity": 0.9448818897637795
        },
        {
          "duration": 0.08333325000000968,
          "durationTicks": 24,
          "midi": 82,
          "name": "A#5",
          "ticks": 27024,
          "time": 93.83323949999999,
          "velocity": 0.9448818897637795
        },
        {
          "duration": 0.08333324999999547,
          "durationTicks": 24,
          "midi": 82,
          "name": "A#5",
          "ticks": 27048,
          "time": 93.91657275,
          "velocity": 0.9448818897637795
        },
        {
          "duration": 0.08333324999999547,
          "durationTicks": 24,
          "midi": 82,
          "name": "A#5",
          "ticks": 27072,
          "time": 93.999906,
          "velocity": 0.9448818897637795
        },
        {
          "duration": 0.16666650000000516,
          "durationTicks": 48,
          "midi": 36,
          "name": "C2",
          "ticks": 27072,
          "time": 93.999906,
          "velocity": 0.9448818897637795
        },
        {
          "duration": 0.08333325000000968,
          "durationTicks": 24,
          "midi": 82,
          "name": "A#5",
          "ticks": 27096,
          "time": 94.08323924999999,
          "velocity": 0.9448818897637795
        },
        {
          "duration": 0.08333324999999547,
          "durationTicks": 24,
          "midi": 82,
          "name": "A#5",
          "ticks": 27120,
          "time": 94.1665725,
          "velocity": 0.9448818897637795
        },
        {
          "duration": 0.08333324999999547,
          "durationTicks": 24,
          "midi": 82,
          "name": "A#5",
          "ticks": 27144,
          "time": 94.24990575,
          "velocity": 0.9448818897637795
        },
        {
          "duration": 0.08333325000000968,
          "durationTicks": 24,
          "midi": 82,
          "name": "A#5",
          "ticks": 27168,
          "time": 94.33323899999999,
          "velocity": 0.9448818897637795
        },
        {
          "duration": 0.16666650000000516,
          "durationTicks": 48,
          "midi": 36,
          "name": "C2",
          "ticks": 27168,
          "time": 94.33323899999999,
          "velocity": 0.9448818897637795
        },
        {
          "duration": 0.08333324999999547,
          "durationTicks": 24,
          "midi": 82,
          "name": "A#5",
          "ticks": 27192,
          "time": 94.41657225,
          "velocity": 0.9448818897637795
        },
        {
          "duration": 0.08333324999999547,
          "durationTicks": 24,
          "midi": 82,
          "name": "A#5",
          "ticks": 27216,
          "time": 94.4999055,
          "velocity": 0.9448818897637795
        },
        {
          "duration": 0.08333325000000968,
          "durationTicks": 24,
          "midi": 82,
          "name": "A#5",
          "ticks": 27240,
          "time": 94.58323874999999,
          "velocity": 0.9448818897637795
        },
        {
          "duration": 0.16666649999999095,
          "durationTicks": 48,
          "midi": 36,
          "name": "C2",
          "ticks": 27264,
          "time": 94.666572,
          "velocity": 0.9448818897637795
        },
        {
          "duration": 0.08333324999999547,
          "durationTicks": 24,
          "midi": 82,
          "name": "A#5",
          "ticks": 27264,
          "time": 94.666572,
          "velocity": 0.9448818897637795
        },
        {
          "duration": 0.08333324999999547,
          "durationTicks": 24,
          "midi": 82,
          "name": "A#5",
          "ticks": 27288,
          "time": 94.74990525,
          "velocity": 0.9448818897637795
        },
        {
          "duration": 0.08333325000000968,
          "durationTicks": 24,
          "midi": 82,
          "name": "A#5",
          "ticks": 27312,
          "time": 94.8332385,
          "velocity": 0.9448818897637795
        },
        {
          "duration": 0.08333324999999547,
          "durationTicks": 24,
          "midi": 82,
          "name": "A#5",
          "ticks": 27336,
          "time": 94.91657175,
          "velocity": 0.9448818897637795
        },
        {
          "duration": 0.08333324999999547,
          "durationTicks": 24,
          "midi": 82,
          "name": "A#5",
          "ticks": 27360,
          "time": 94.999905,
          "velocity": 0.9448818897637795
        },
        {
          "duration": 0.16666650000000516,
          "durationTicks": 48,
          "midi": 36,
          "name": "C2",
          "ticks": 27360,
          "time": 94.999905,
          "velocity": 0.9448818897637795
        },
        {
          "duration": 0.08333325000000968,
          "durationTicks": 24,
          "midi": 82,
          "name": "A#5",
          "ticks": 27384,
          "time": 95.08323825,
          "velocity": 0.9448818897637795
        },
        {
          "duration": 0.08333324999999547,
          "durationTicks": 24,
          "midi": 82,
          "name": "A#5",
          "ticks": 27408,
          "time": 95.1665715,
          "velocity": 0.9448818897637795
        },
        {
          "duration": 0.08333324999999547,
          "durationTicks": 24,
          "midi": 82,
          "name": "A#5",
          "ticks": 27432,
          "time": 95.24990475,
          "velocity": 0.9448818897637795
        },
        {
          "duration": 0.16666650000000516,
          "durationTicks": 48,
          "midi": 36,
          "name": "C2",
          "ticks": 27456,
          "time": 95.333238,
          "velocity": 0.9448818897637795
        },
        {
          "duration": 0.08333325000000968,
          "durationTicks": 24,
          "midi": 82,
          "name": "A#5",
          "ticks": 27456,
          "time": 95.333238,
          "velocity": 0.9448818897637795
        },
        {
          "duration": 0.08333324999999547,
          "durationTicks": 24,
          "midi": 82,
          "name": "A#5",
          "ticks": 27480,
          "time": 95.41657125,
          "velocity": 0.9448818897637795
        },
        {
          "duration": 0.08333324999999547,
          "durationTicks": 24,
          "midi": 82,
          "name": "A#5",
          "ticks": 27504,
          "time": 95.4999045,
          "velocity": 0.9448818897637795
        },
        {
          "duration": 0.08333324999999547,
          "durationTicks": 24,
          "midi": 82,
          "name": "A#5",
          "ticks": 27528,
          "time": 95.58323775,
          "velocity": 0.9448818897637795
        },
        {
          "duration": 0.08333325000000968,
          "durationTicks": 24,
          "midi": 82,
          "name": "A#5",
          "ticks": 27552,
          "time": 95.66657099999999,
          "velocity": 0.9448818897637795
        },
        {
          "duration": 0.16666650000000516,
          "durationTicks": 48,
          "midi": 36,
          "name": "C2",
          "ticks": 27552,
          "time": 95.66657099999999,
          "velocity": 0.9448818897637795
        },
        {
          "duration": 0.08333324999999547,
          "durationTicks": 24,
          "midi": 82,
          "name": "A#5",
          "ticks": 27576,
          "time": 95.74990425,
          "velocity": 0.9448818897637795
        },
        {
          "duration": 0.08333324999999547,
          "durationTicks": 24,
          "midi": 82,
          "name": "A#5",
          "ticks": 27600,
          "time": 95.8332375,
          "velocity": 0.9448818897637795
        },
        {
          "duration": 0.08333325000000968,
          "durationTicks": 24,
          "midi": 82,
          "name": "A#5",
          "ticks": 27624,
          "time": 95.91657074999999,
          "velocity": 0.9448818897637795
        },
        {
          "duration": 0.16666649999999095,
          "durationTicks": 48,
          "midi": 36,
          "name": "C2",
          "ticks": 27648,
          "time": 95.999904,
          "velocity": 0.9448818897637795
        },
        {
          "duration": 0.08333324999999547,
          "durationTicks": 24,
          "midi": 82,
          "name": "A#5",
          "ticks": 27648,
          "time": 95.999904,
          "velocity": 0.9448818897637795
        },
        {
          "duration": 0.08333324999999547,
          "durationTicks": 24,
          "midi": 82,
          "name": "A#5",
          "ticks": 27672,
          "time": 96.08323725,
          "velocity": 0.9448818897637795
        },
        {
          "duration": 0.08333325000000968,
          "durationTicks": 24,
          "midi": 82,
          "name": "A#5",
          "ticks": 27696,
          "time": 96.16657049999999,
          "velocity": 0.9448818897637795
        },
        {
          "duration": 0.08333324999999547,
          "durationTicks": 24,
          "midi": 82,
          "name": "A#5",
          "ticks": 27720,
          "time": 96.24990375,
          "velocity": 0.9448818897637795
        },
        {
          "duration": 0.08333324999999547,
          "durationTicks": 24,
          "midi": 82,
          "name": "A#5",
          "ticks": 27744,
          "time": 96.333237,
          "velocity": 0.9448818897637795
        },
        {
          "duration": 0.16666650000000516,
          "durationTicks": 48,
          "midi": 36,
          "name": "C2",
          "ticks": 27744,
          "time": 96.333237,
          "velocity": 0.9448818897637795
        },
        {
          "duration": 0.08333325000000968,
          "durationTicks": 24,
          "midi": 82,
          "name": "A#5",
          "ticks": 27768,
          "time": 96.41657024999999,
          "velocity": 0.9448818897637795
        },
        {
          "duration": 0.08333324999999547,
          "durationTicks": 24,
          "midi": 82,
          "name": "A#5",
          "ticks": 27792,
          "time": 96.4999035,
          "velocity": 0.9448818897637795
        },
        {
          "duration": 0.08333324999999547,
          "durationTicks": 24,
          "midi": 82,
          "name": "A#5",
          "ticks": 27816,
          "time": 96.58323675,
          "velocity": 0.9448818897637795
        },
        {
          "duration": 0.16666650000000516,
          "durationTicks": 48,
          "midi": 36,
          "name": "C2",
          "ticks": 27840,
          "time": 96.66657,
          "velocity": 0.9448818897637795
        },
        {
          "duration": 0.08333325000000968,
          "durationTicks": 24,
          "midi": 82,
          "name": "A#5",
          "ticks": 27840,
          "time": 96.66657,
          "velocity": 0.9448818897637795
        },
        {
          "duration": 0.08333324999999547,
          "durationTicks": 24,
          "midi": 82,
          "name": "A#5",
          "ticks": 27864,
          "time": 96.74990325,
          "velocity": 0.9448818897637795
        },
        {
          "duration": 0.08333324999999547,
          "durationTicks": 24,
          "midi": 82,
          "name": "A#5",
          "ticks": 27888,
          "time": 96.8332365,
          "velocity": 0.9448818897637795
        },
        {
          "duration": 0.08333325000000968,
          "durationTicks": 24,
          "midi": 82,
          "name": "A#5",
          "ticks": 27912,
          "time": 96.91656975,
          "velocity": 0.9448818897637795
        },
        {
          "duration": 0.08333324999999547,
          "durationTicks": 24,
          "midi": 82,
          "name": "A#5",
          "ticks": 27936,
          "time": 96.999903,
          "velocity": 0.9448818897637795
        },
        {
          "duration": 0.16666649999999095,
          "durationTicks": 48,
          "midi": 36,
          "name": "C2",
          "ticks": 27936,
          "time": 96.999903,
          "velocity": 0.9448818897637795
        },
        {
          "duration": 0.08333324999999547,
          "durationTicks": 24,
          "midi": 82,
          "name": "A#5",
          "ticks": 27960,
          "time": 97.08323625,
          "velocity": 0.9448818897637795
        },
        {
          "duration": 0.08333325000000968,
          "durationTicks": 24,
          "midi": 82,
          "name": "A#5",
          "ticks": 27984,
          "time": 97.1665695,
          "velocity": 0.9448818897637795
        },
        {
          "duration": 0.08333324999999547,
          "durationTicks": 24,
          "midi": 82,
          "name": "A#5",
          "ticks": 28008,
          "time": 97.24990275,
          "velocity": 0.9448818897637795
        },
        {
          "duration": 0.08333324999999547,
          "durationTicks": 24,
          "midi": 82,
          "name": "A#5",
          "ticks": 28032,
          "time": 97.333236,
          "velocity": 0.9448818897637795
        },
        {
          "duration": 0.16666649999999095,
          "durationTicks": 48,
          "midi": 36,
          "name": "C2",
          "ticks": 28032,
          "time": 97.333236,
          "velocity": 0.9448818897637795
        },
        {
          "duration": 0.08333324999999547,
          "durationTicks": 24,
          "midi": 82,
          "name": "A#5",
          "ticks": 28056,
          "time": 97.41656925,
          "velocity": 0.9448818897637795
        },
        {
          "duration": 0.16666650000000516,
          "durationTicks": 48,
          "midi": 50,
          "name": "D3",
          "ticks": 28080,
          "time": 97.49990249999999,
          "velocity": 1
        },
        {
          "duration": 0.08333325000000968,
          "durationTicks": 24,
          "midi": 82,
          "name": "A#5",
          "ticks": 28080,
          "time": 97.49990249999999,
          "velocity": 0.9448818897637795
        },
        {
          "duration": 0.08333324999999547,
          "durationTicks": 24,
          "midi": 82,
          "name": "A#5",
          "ticks": 28104,
          "time": 97.58323575,
          "velocity": 0.9448818897637795
        },
        {
          "duration": 0.16666650000000516,
          "durationTicks": 48,
          "midi": 36,
          "name": "C2",
          "ticks": 28128,
          "time": 97.666569,
          "velocity": 0.9448818897637795
        },
        {
          "duration": 0.08333324999999547,
          "durationTicks": 24,
          "midi": 82,
          "name": "A#5",
          "ticks": 28128,
          "time": 97.666569,
          "velocity": 0.9448818897637795
        },
        {
          "duration": 0.08333325000000968,
          "durationTicks": 24,
          "midi": 82,
          "name": "A#5",
          "ticks": 28152,
          "time": 97.74990224999999,
          "velocity": 0.9448818897637795
        },
        {
          "duration": 0.08333324999999547,
          "durationTicks": 24,
          "midi": 82,
          "name": "A#5",
          "ticks": 28176,
          "time": 97.8332355,
          "velocity": 0.9448818897637795
        },
        {
          "duration": 0.08333324999999547,
          "durationTicks": 24,
          "midi": 82,
          "name": "A#5",
          "ticks": 28200,
          "time": 97.91656875,
          "velocity": 0.9448818897637795
        },
        {
          "duration": 0.08333325000000968,
          "durationTicks": 24,
          "midi": 82,
          "name": "A#5",
          "ticks": 28224,
          "time": 97.99990199999999,
          "velocity": 0.9448818897637795
        },
        {
          "duration": 0.16666650000000516,
          "durationTicks": 48,
          "midi": 36,
          "name": "C2",
          "ticks": 28224,
          "time": 97.99990199999999,
          "velocity": 0.9448818897637795
        },
        {
          "duration": 0.16666650000000516,
          "durationTicks": 48,
          "midi": 52,
          "name": "E3",
          "ticks": 28224,
          "time": 97.99990199999999,
          "velocity": 0.9763779527559056
        },
        {
          "duration": 0.08333324999999547,
          "durationTicks": 24,
          "midi": 82,
          "name": "A#5",
          "ticks": 28248,
          "time": 98.08323525,
          "velocity": 0.9448818897637795
        },
        {
          "duration": 0.08333324999999547,
          "durationTicks": 24,
          "midi": 82,
          "name": "A#5",
          "ticks": 28272,
          "time": 98.1665685,
          "velocity": 0.9448818897637795
        },
        {
          "duration": 0.08333325000000968,
          "durationTicks": 24,
          "midi": 82,
          "name": "A#5",
          "ticks": 28296,
          "time": 98.24990174999999,
          "velocity": 0.9448818897637795
        },
        {
          "duration": 0.16666649999999095,
          "durationTicks": 48,
          "midi": 52,
          "name": "E3",
          "ticks": 28320,
          "time": 98.333235,
          "velocity": 0.9763779527559056
        },
        {
          "duration": 0.16666649999999095,
          "durationTicks": 48,
          "midi": 36,
          "name": "C2",
          "ticks": 28320,
          "time": 98.333235,
          "velocity": 0.9448818897637795
        },
        {
          "duration": 0.08333324999999547,
          "durationTicks": 24,
          "midi": 82,
          "name": "A#5",
          "ticks": 28320,
          "time": 98.333235,
          "velocity": 0.9448818897637795
        },
        {
          "duration": 0.08333324999999547,
          "durationTicks": 24,
          "midi": 82,
          "name": "A#5",
          "ticks": 28344,
          "time": 98.41656825,
          "velocity": 0.9448818897637795
        },
        {
          "duration": 0.08333325000000968,
          "durationTicks": 24,
          "midi": 82,
          "name": "A#5",
          "ticks": 28368,
          "time": 98.49990149999999,
          "velocity": 0.9448818897637795
        },
        {
          "duration": 0.08333324999999547,
          "durationTicks": 24,
          "midi": 82,
          "name": "A#5",
          "ticks": 28392,
          "time": 98.58323475,
          "velocity": 0.9448818897637795
        },
        {
          "duration": 0.08333324999999547,
          "durationTicks": 24,
          "midi": 82,
          "name": "A#5",
          "ticks": 28416,
          "time": 98.666568,
          "velocity": 0.9448818897637795
        },
        {
          "duration": 0.16666650000000516,
          "durationTicks": 48,
          "midi": 36,
          "name": "C2",
          "ticks": 28416,
          "time": 98.666568,
          "velocity": 0.9448818897637795
        },
        {
          "duration": 0.08333325000000968,
          "durationTicks": 24,
          "midi": 82,
          "name": "A#5",
          "ticks": 28440,
          "time": 98.74990125,
          "velocity": 0.9448818897637795
        },
        {
          "duration": 0.08333324999999547,
          "durationTicks": 24,
          "midi": 82,
          "name": "A#5",
          "ticks": 28464,
          "time": 98.8332345,
          "velocity": 0.9448818897637795
        },
        {
          "duration": 0.08333324999999547,
          "durationTicks": 24,
          "midi": 82,
          "name": "A#5",
          "ticks": 28488,
          "time": 98.91656775,
          "velocity": 0.9448818897637795
        },
        {
          "duration": 0.08333325000000968,
          "durationTicks": 24,
          "midi": 82,
          "name": "A#5",
          "ticks": 28512,
          "time": 98.999901,
          "velocity": 0.9448818897637795
        },
        {
          "duration": 0.16666650000000516,
          "durationTicks": 48,
          "midi": 36,
          "name": "C2",
          "ticks": 28512,
          "time": 98.999901,
          "velocity": 0.9448818897637795
        },
        {
          "duration": 0.08333324999999547,
          "durationTicks": 24,
          "midi": 82,
          "name": "A#5",
          "ticks": 28536,
          "time": 99.08323425,
          "velocity": 0.9448818897637795
        },
        {
          "duration": 0.08333324999999547,
          "durationTicks": 24,
          "midi": 82,
          "name": "A#5",
          "ticks": 28560,
          "time": 99.1665675,
          "velocity": 0.9448818897637795
        },
        {
          "duration": 0.08333324999999547,
          "durationTicks": 24,
          "midi": 82,
          "name": "A#5",
          "ticks": 28584,
          "time": 99.24990075,
          "velocity": 0.9448818897637795
        },
        {
          "duration": 0.16666650000000516,
          "durationTicks": 48,
          "midi": 36,
          "name": "C2",
          "ticks": 28608,
          "time": 99.33323399999999,
          "velocity": 0.9448818897637795
        },
        {
          "duration": 0.08333325000000968,
          "durationTicks": 24,
          "midi": 82,
          "name": "A#5",
          "ticks": 28608,
          "time": 99.33323399999999,
          "velocity": 0.9448818897637795
        },
        {
          "duration": 0.08333324999999547,
          "durationTicks": 24,
          "midi": 82,
          "name": "A#5",
          "ticks": 28632,
          "time": 99.41656725,
          "velocity": 0.9448818897637795
        },
        {
          "duration": 0.08333324999999547,
          "durationTicks": 24,
          "midi": 82,
          "name": "A#5",
          "ticks": 28656,
          "time": 99.4999005,
          "velocity": 0.9448818897637795
        },
        {
          "duration": 0.08333325000000968,
          "durationTicks": 24,
          "midi": 82,
          "name": "A#5",
          "ticks": 28680,
          "time": 99.58323374999999,
          "velocity": 0.9448818897637795
        },
        {
          "duration": 0.08333324999999547,
          "durationTicks": 24,
          "midi": 82,
          "name": "A#5",
          "ticks": 28704,
          "time": 99.666567,
          "velocity": 0.9448818897637795
        },
        {
          "duration": 0.16666649999999095,
          "durationTicks": 48,
          "midi": 36,
          "name": "C2",
          "ticks": 28704,
          "time": 99.666567,
          "velocity": 0.9448818897637795
        },
        {
          "duration": 0.08333324999999547,
          "durationTicks": 24,
          "midi": 82,
          "name": "A#5",
          "ticks": 28728,
          "time": 99.74990025,
          "velocity": 0.9448818897637795
        },
        {
          "duration": 0.08333325000000968,
          "durationTicks": 24,
          "midi": 82,
          "name": "A#5",
          "ticks": 28752,
          "time": 99.83323349999999,
          "velocity": 0.9448818897637795
        },
        {
          "duration": 0.08333324999999547,
          "durationTicks": 24,
          "midi": 82,
          "name": "A#5",
          "ticks": 28776,
          "time": 99.91656675,
          "velocity": 0.9448818897637795
        },
        {
          "duration": 0.16666650000000516,
          "durationTicks": 48,
          "midi": 36,
          "name": "C2",
          "ticks": 28800,
          "time": 99.9999,
          "velocity": 0.9448818897637795
        },
        {
          "duration": 0.08333324999999547,
          "durationTicks": 24,
          "midi": 82,
          "name": "A#5",
          "ticks": 28800,
          "time": 99.9999,
          "velocity": 0.9448818897637795
        },
        {
          "duration": 0.08333325000000968,
          "durationTicks": 24,
          "midi": 82,
          "name": "A#5",
          "ticks": 28824,
          "time": 100.08323324999999,
          "velocity": 0.9448818897637795
        },
        {
          "duration": 0.08333324999999547,
          "durationTicks": 24,
          "midi": 82,
          "name": "A#5",
          "ticks": 28848,
          "time": 100.1665665,
          "velocity": 0.9448818897637795
        },
        {
          "duration": 0.08333324999999547,
          "durationTicks": 24,
          "midi": 82,
          "name": "A#5",
          "ticks": 28872,
          "time": 100.24989975,
          "velocity": 0.9448818897637795
        },
        {
          "duration": 0.16666650000000516,
          "durationTicks": 48,
          "midi": 36,
          "name": "C2",
          "ticks": 28896,
          "time": 100.33323299999999,
          "velocity": 0.9448818897637795
        },
        {
          "duration": 0.08333325000000968,
          "durationTicks": 24,
          "midi": 82,
          "name": "A#5",
          "ticks": 28896,
          "time": 100.33323299999999,
          "velocity": 0.9448818897637795
        },
        {
          "duration": 0.08333324999999547,
          "durationTicks": 24,
          "midi": 82,
          "name": "A#5",
          "ticks": 28920,
          "time": 100.41656625,
          "velocity": 0.9448818897637795
        },
        {
          "duration": 0.08333324999999547,
          "durationTicks": 24,
          "midi": 82,
          "name": "A#5",
          "ticks": 28944,
          "time": 100.4998995,
          "velocity": 0.9448818897637795
        },
        {
          "duration": 0.08333325000000968,
          "durationTicks": 24,
          "midi": 82,
          "name": "A#5",
          "ticks": 28968,
          "time": 100.58323275,
          "velocity": 0.9448818897637795
        },
        {
          "duration": 0.08333324999999547,
          "durationTicks": 24,
          "midi": 82,
          "name": "A#5",
          "ticks": 28992,
          "time": 100.666566,
          "velocity": 0.9448818897637795
        },
        {
          "duration": 0.16666649999999095,
          "durationTicks": 48,
          "midi": 36,
          "name": "C2",
          "ticks": 28992,
          "time": 100.666566,
          "velocity": 0.9448818897637795
        },
        {
          "duration": 0.08333324999999547,
          "durationTicks": 24,
          "midi": 82,
          "name": "A#5",
          "ticks": 29016,
          "time": 100.74989925,
          "velocity": 0.9448818897637795
        },
        {
          "duration": 0.08333325000000968,
          "durationTicks": 24,
          "midi": 82,
          "name": "A#5",
          "ticks": 29040,
          "time": 100.8332325,
          "velocity": 0.9448818897637795
        },
        {
          "duration": 0.08333324999999547,
          "durationTicks": 24,
          "midi": 82,
          "name": "A#5",
          "ticks": 29064,
          "time": 100.91656575,
          "velocity": 0.9448818897637795
        },
        {
          "duration": 0.08333324999999547,
          "durationTicks": 24,
          "midi": 82,
          "name": "A#5",
          "ticks": 29088,
          "time": 100.999899,
          "velocity": 0.9448818897637795
        },
        {
          "duration": 0.16666649999999095,
          "durationTicks": 48,
          "midi": 36,
          "name": "C2",
          "ticks": 29088,
          "time": 100.999899,
          "velocity": 0.9448818897637795
        },
        {
          "duration": 0.08333324999999547,
          "durationTicks": 24,
          "midi": 82,
          "name": "A#5",
          "ticks": 29112,
          "time": 101.08323225,
          "velocity": 0.9448818897637795
        },
        {
          "duration": 0.08333325000000968,
          "durationTicks": 24,
          "midi": 82,
          "name": "A#5",
          "ticks": 29136,
          "time": 101.16656549999999,
          "velocity": 0.9448818897637795
        },
        {
          "duration": 0.08333324999999547,
          "durationTicks": 24,
          "midi": 82,
          "name": "A#5",
          "ticks": 29160,
          "time": 101.24989875,
          "velocity": 0.9448818897637795
        },
        {
          "duration": 0.08333324999999547,
          "durationTicks": 24,
          "midi": 82,
          "name": "A#5",
          "ticks": 29184,
          "time": 101.333232,
          "velocity": 0.9448818897637795
        },
        {
          "duration": 0.16666650000000516,
          "durationTicks": 48,
          "midi": 36,
          "name": "C2",
          "ticks": 29184,
          "time": 101.333232,
          "velocity": 0.9448818897637795
        },
        {
          "duration": 0.08333325000000968,
          "durationTicks": 24,
          "midi": 82,
          "name": "A#5",
          "ticks": 29208,
          "time": 101.41656524999999,
          "velocity": 0.9448818897637795
        },
        {
          "duration": 0.08333324999999547,
          "durationTicks": 24,
          "midi": 82,
          "name": "A#5",
          "ticks": 29232,
          "time": 101.4998985,
          "velocity": 0.9448818897637795
        },
        {
          "duration": 0.08333324999999547,
          "durationTicks": 24,
          "midi": 82,
          "name": "A#5",
          "ticks": 29256,
          "time": 101.58323175,
          "velocity": 0.9448818897637795
        },
        {
          "duration": 0.08333325000000968,
          "durationTicks": 24,
          "midi": 82,
          "name": "A#5",
          "ticks": 29280,
          "time": 101.66656499999999,
          "velocity": 0.9448818897637795
        },
        {
          "duration": 0.16666650000000516,
          "durationTicks": 48,
          "midi": 36,
          "name": "C2",
          "ticks": 29280,
          "time": 101.66656499999999,
          "velocity": 0.9448818897637795
        },
        {
          "duration": 0.08333324999999547,
          "durationTicks": 24,
          "midi": 82,
          "name": "A#5",
          "ticks": 29304,
          "time": 101.74989825,
          "velocity": 0.9448818897637795
        },
        {
          "duration": 0.08333324999999547,
          "durationTicks": 24,
          "midi": 82,
          "name": "A#5",
          "ticks": 29328,
          "time": 101.8332315,
          "velocity": 0.9448818897637795
        },
        {
          "duration": 0.08333325000000968,
          "durationTicks": 24,
          "midi": 82,
          "name": "A#5",
          "ticks": 29352,
          "time": 101.91656474999999,
          "velocity": 0.9448818897637795
        },
        {
          "duration": 0.16666649999999095,
          "durationTicks": 48,
          "midi": 36,
          "name": "C2",
          "ticks": 29376,
          "time": 101.999898,
          "velocity": 0.9448818897637795
        },
        {
          "duration": 0.08333324999999547,
          "durationTicks": 24,
          "midi": 82,
          "name": "A#5",
          "ticks": 29376,
          "time": 101.999898,
          "velocity": 0.9448818897637795
        },
        {
          "duration": 0.08333324999999547,
          "durationTicks": 24,
          "midi": 82,
          "name": "A#5",
          "ticks": 29400,
          "time": 102.08323125,
          "velocity": 0.9448818897637795
        },
        {
          "duration": 0.08333325000000968,
          "durationTicks": 24,
          "midi": 82,
          "name": "A#5",
          "ticks": 29424,
          "time": 102.16656449999999,
          "velocity": 0.9448818897637795
        },
        {
          "duration": 0.08333324999999547,
          "durationTicks": 24,
          "midi": 82,
          "name": "A#5",
          "ticks": 29448,
          "time": 102.24989775,
          "velocity": 0.9448818897637795
        },
        {
          "duration": 0.16666650000000516,
          "durationTicks": 48,
          "midi": 36,
          "name": "C2",
          "ticks": 29472,
          "time": 102.333231,
          "velocity": 0.9448818897637795
        },
        {
          "duration": 0.08333324999999547,
          "durationTicks": 24,
          "midi": 82,
          "name": "A#5",
          "ticks": 29472,
          "time": 102.333231,
          "velocity": 0.9448818897637795
        },
        {
          "duration": 0.08333325000000968,
          "durationTicks": 24,
          "midi": 82,
          "name": "A#5",
          "ticks": 29496,
          "time": 102.41656425,
          "velocity": 0.9448818897637795
        },
        {
          "duration": 0.08333324999999547,
          "durationTicks": 24,
          "midi": 82,
          "name": "A#5",
          "ticks": 29520,
          "time": 102.4998975,
          "velocity": 0.9448818897637795
        },
        {
          "duration": 0.08333324999999547,
          "durationTicks": 24,
          "midi": 82,
          "name": "A#5",
          "ticks": 29544,
          "time": 102.58323075,
          "velocity": 0.9448818897637795
        },
        {
          "duration": 0.16666650000000516,
          "durationTicks": 48,
          "midi": 36,
          "name": "C2",
          "ticks": 29568,
          "time": 102.666564,
          "velocity": 0.9448818897637795
        },
        {
          "duration": 0.08333325000000968,
          "durationTicks": 24,
          "midi": 82,
          "name": "A#5",
          "ticks": 29568,
          "time": 102.666564,
          "velocity": 0.9448818897637795
        },
        {
          "duration": 0.08333324999999547,
          "durationTicks": 24,
          "midi": 82,
          "name": "A#5",
          "ticks": 29592,
          "time": 102.74989725,
          "velocity": 0.9448818897637795
        },
        {
          "duration": 0.08333324999999547,
          "durationTicks": 24,
          "midi": 82,
          "name": "A#5",
          "ticks": 29616,
          "time": 102.8332305,
          "velocity": 0.9448818897637795
        },
        {
          "duration": 0.08333324999999547,
          "durationTicks": 24,
          "midi": 82,
          "name": "A#5",
          "ticks": 29640,
          "time": 102.91656375,
          "velocity": 0.9448818897637795
        },
        {
          "duration": 0.16666650000000516,
          "durationTicks": 48,
          "midi": 36,
          "name": "C2",
          "ticks": 29664,
          "time": 102.99989699999999,
          "velocity": 0.9448818897637795
        },
        {
          "duration": 0.08333325000000968,
          "durationTicks": 24,
          "midi": 82,
          "name": "A#5",
          "ticks": 29664,
          "time": 102.99989699999999,
          "velocity": 0.9448818897637795
        },
        {
          "duration": 0.08333324999999547,
          "durationTicks": 24,
          "midi": 82,
          "name": "A#5",
          "ticks": 29688,
          "time": 103.08323025,
          "velocity": 0.9448818897637795
        },
        {
          "duration": 0.08333324999999547,
          "durationTicks": 24,
          "midi": 82,
          "name": "A#5",
          "ticks": 29712,
          "time": 103.1665635,
          "velocity": 0.9448818897637795
        },
        {
          "duration": 0.08333325000000968,
          "durationTicks": 24,
          "midi": 82,
          "name": "A#5",
          "ticks": 29736,
          "time": 103.24989674999999,
          "velocity": 0.9448818897637795
        },
        {
          "duration": 0.08333324999999547,
          "durationTicks": 24,
          "midi": 82,
          "name": "A#5",
          "ticks": 29760,
          "time": 103.33323,
          "velocity": 0.9448818897637795
        },
        {
          "duration": 0.16666649999999095,
          "durationTicks": 48,
          "midi": 36,
          "name": "C2",
          "ticks": 29760,
          "time": 103.33323,
          "velocity": 0.9448818897637795
        },
        {
          "duration": 0.08333324999999547,
          "durationTicks": 24,
          "midi": 82,
          "name": "A#5",
          "ticks": 29784,
          "time": 103.41656325,
          "velocity": 0.9448818897637795
        },
        {
          "duration": 0.08333325000000968,
          "durationTicks": 24,
          "midi": 82,
          "name": "A#5",
          "ticks": 29808,
          "time": 103.49989649999999,
          "velocity": 0.9448818897637795
        },
        {
          "duration": 0.08333324999999547,
          "durationTicks": 24,
          "midi": 82,
          "name": "A#5",
          "ticks": 29832,
          "time": 103.58322975,
          "velocity": 0.9448818897637795
        },
        {
          "duration": 0.16666650000000516,
          "durationTicks": 48,
          "midi": 36,
          "name": "C2",
          "ticks": 29856,
          "time": 103.666563,
          "velocity": 0.9448818897637795
        },
        {
          "duration": 0.08333324999999547,
          "durationTicks": 24,
          "midi": 82,
          "name": "A#5",
          "ticks": 29856,
          "time": 103.666563,
          "velocity": 0.9448818897637795
        },
        {
          "duration": 0.08333325000000968,
          "durationTicks": 24,
          "midi": 82,
          "name": "A#5",
          "ticks": 29880,
          "time": 103.74989624999999,
          "velocity": 0.9448818897637795
        },
        {
          "duration": 0.08333324999999547,
          "durationTicks": 24,
          "midi": 82,
          "name": "A#5",
          "ticks": 29904,
          "time": 103.8332295,
          "velocity": 0.9448818897637795
        },
        {
          "duration": 0.08333324999999547,
          "durationTicks": 24,
          "midi": 82,
          "name": "A#5",
          "ticks": 29928,
          "time": 103.91656275,
          "velocity": 0.9448818897637795
        },
        {
          "duration": 0.08333325000000968,
          "durationTicks": 24,
          "midi": 82,
          "name": "A#5",
          "ticks": 29952,
          "time": 103.99989599999999,
          "velocity": 0.9448818897637795
        },
        {
          "duration": 0.16666650000000516,
          "durationTicks": 48,
          "midi": 36,
          "name": "C2",
          "ticks": 29952,
          "time": 103.99989599999999,
          "velocity": 0.9448818897637795
        },
        {
          "duration": 0.08333324999999547,
          "durationTicks": 24,
          "midi": 82,
          "name": "A#5",
          "ticks": 29976,
          "time": 104.08322925,
          "velocity": 0.9448818897637795
        },
        {
          "duration": 0.08333324999999547,
          "durationTicks": 24,
          "midi": 82,
          "name": "A#5",
          "ticks": 30000,
          "time": 104.1665625,
          "velocity": 0.9448818897637795
        },
        {
          "duration": 0.08333325000000968,
          "durationTicks": 24,
          "midi": 82,
          "name": "A#5",
          "ticks": 30024,
          "time": 104.24989575,
          "velocity": 0.9448818897637795
        },
        {
          "duration": 0.08333324999999547,
          "durationTicks": 24,
          "midi": 82,
          "name": "A#5",
          "ticks": 30048,
          "time": 104.333229,
          "velocity": 0.9448818897637795
        },
        {
          "duration": 0.16666649999999095,
          "durationTicks": 48,
          "midi": 36,
          "name": "C2",
          "ticks": 30048,
          "time": 104.333229,
          "velocity": 0.9448818897637795
        },
        {
          "duration": 0.08333324999999547,
          "durationTicks": 24,
          "midi": 82,
          "name": "A#5",
          "ticks": 30072,
          "time": 104.41656225,
          "velocity": 0.9448818897637795
        },
        {
          "duration": 0.08333325000000968,
          "durationTicks": 24,
          "midi": 82,
          "name": "A#5",
          "ticks": 30096,
          "time": 104.4998955,
          "velocity": 0.9448818897637795
        },
        {
          "duration": 0.08333324999999547,
          "durationTicks": 24,
          "midi": 82,
          "name": "A#5",
          "ticks": 30120,
          "time": 104.58322875,
          "velocity": 0.9448818897637795
        },
        {
          "duration": 0.08333324999999547,
          "durationTicks": 24,
          "midi": 82,
          "name": "A#5",
          "ticks": 30144,
          "time": 104.666562,
          "velocity": 0.9448818897637795
        },
        {
          "duration": 0.16666649999999095,
          "durationTicks": 48,
          "midi": 36,
          "name": "C2",
          "ticks": 30144,
          "time": 104.666562,
          "velocity": 0.9448818897637795
        },
        {
          "duration": 0.08333324999999547,
          "durationTicks": 24,
          "midi": 82,
          "name": "A#5",
          "ticks": 30168,
          "time": 104.74989525,
          "velocity": 0.9448818897637795
        },
        {
          "duration": 0.08333325000000968,
          "durationTicks": 24,
          "midi": 82,
          "name": "A#5",
          "ticks": 30192,
          "time": 104.83322849999999,
          "velocity": 0.9448818897637795
        },
        {
          "duration": 0.08333324999999547,
          "durationTicks": 24,
          "midi": 82,
          "name": "A#5",
          "ticks": 30216,
          "time": 104.91656175,
          "velocity": 0.9448818897637795
        },
        {
          "duration": 0.08333324999999547,
          "durationTicks": 24,
          "midi": 82,
          "name": "A#5",
          "ticks": 30240,
          "time": 104.999895,
          "velocity": 0.9448818897637795
        },
        {
          "duration": 0.16666650000000516,
          "durationTicks": 48,
          "midi": 36,
          "name": "C2",
          "ticks": 30240,
          "time": 104.999895,
          "velocity": 0.9448818897637795
        },
        {
          "duration": 0.08333325000000968,
          "durationTicks": 24,
          "midi": 82,
          "name": "A#5",
          "ticks": 30264,
          "time": 105.08322824999999,
          "velocity": 0.9448818897637795
        },
        {
          "duration": 0.08333324999999547,
          "durationTicks": 24,
          "midi": 82,
          "name": "A#5",
          "ticks": 30288,
          "time": 105.1665615,
          "velocity": 0.9448818897637795
        },
        {
          "duration": 0.08333324999999547,
          "durationTicks": 24,
          "midi": 82,
          "name": "A#5",
          "ticks": 30312,
          "time": 105.24989475,
          "velocity": 0.9448818897637795
        },
        {
          "duration": 0.08333325000000968,
          "durationTicks": 24,
          "midi": 82,
          "name": "A#5",
          "ticks": 30336,
          "time": 105.33322799999999,
          "velocity": 0.9448818897637795
        },
        {
          "duration": 0.16666650000000516,
          "durationTicks": 48,
          "midi": 36,
          "name": "C2",
          "ticks": 30336,
          "time": 105.33322799999999,
          "velocity": 0.9448818897637795
        },
        {
          "duration": 0.08333324999999547,
          "durationTicks": 24,
          "midi": 82,
          "name": "A#5",
          "ticks": 30360,
          "time": 105.41656125,
          "velocity": 0.9448818897637795
        },
        {
          "duration": 0.08333324999999547,
          "durationTicks": 24,
          "midi": 82,
          "name": "A#5",
          "ticks": 30384,
          "time": 105.4998945,
          "velocity": 0.9448818897637795
        },
        {
          "duration": 0.08333325000000968,
          "durationTicks": 24,
          "midi": 82,
          "name": "A#5",
          "ticks": 30408,
          "time": 105.58322774999999,
          "velocity": 0.9448818897637795
        },
        {
          "duration": 0.08333324999999547,
          "durationTicks": 24,
          "midi": 82,
          "name": "A#5",
          "ticks": 30432,
          "time": 105.666561,
          "velocity": 0.9448818897637795
        },
        {
          "duration": 0.16666649999999095,
          "durationTicks": 48,
          "midi": 36,
          "name": "C2",
          "ticks": 30432,
          "time": 105.666561,
          "velocity": 0.9448818897637795
        },
        {
          "duration": 0.08333324999999547,
          "durationTicks": 24,
          "midi": 82,
          "name": "A#5",
          "ticks": 30456,
          "time": 105.74989425,
          "velocity": 0.9448818897637795
        },
        {
          "duration": 0.08333325000000968,
          "durationTicks": 24,
          "midi": 82,
          "name": "A#5",
          "ticks": 30480,
          "time": 105.83322749999999,
          "velocity": 0.9448818897637795
        },
        {
          "duration": 0.08333324999999547,
          "durationTicks": 24,
          "midi": 82,
          "name": "A#5",
          "ticks": 30504,
          "time": 105.91656075,
          "velocity": 0.9448818897637795
        },
        {
          "duration": 0.08333324999999547,
          "durationTicks": 24,
          "midi": 82,
          "name": "A#5",
          "ticks": 30528,
          "time": 105.999894,
          "velocity": 0.9448818897637795
        },
        {
          "duration": 0.16666650000000516,
          "durationTicks": 48,
          "midi": 36,
          "name": "C2",
          "ticks": 30528,
          "time": 105.999894,
          "velocity": 0.9448818897637795
        },
        {
          "duration": 0.08333325000000968,
          "durationTicks": 24,
          "midi": 82,
          "name": "A#5",
          "ticks": 30552,
          "time": 106.08322725,
          "velocity": 0.9448818897637795
        },
        {
          "duration": 0.08333324999999547,
          "durationTicks": 24,
          "midi": 82,
          "name": "A#5",
          "ticks": 30576,
          "time": 106.1665605,
          "velocity": 0.9448818897637795
        },
        {
          "duration": 0.08333324999999547,
          "durationTicks": 24,
          "midi": 82,
          "name": "A#5",
          "ticks": 30600,
          "time": 106.24989375,
          "velocity": 0.9448818897637795
        },
        {
          "duration": 0.08333325000000968,
          "durationTicks": 24,
          "midi": 82,
          "name": "A#5",
          "ticks": 30624,
          "time": 106.333227,
          "velocity": 0.9448818897637795
        },
        {
          "duration": 0.16666650000000516,
          "durationTicks": 48,
          "midi": 36,
          "name": "C2",
          "ticks": 30624,
          "time": 106.333227,
          "velocity": 0.9448818897637795
        },
        {
          "duration": 0.08333324999999547,
          "durationTicks": 24,
          "midi": 82,
          "name": "A#5",
          "ticks": 30648,
          "time": 106.41656025,
          "velocity": 0.9448818897637795
        },
        {
          "duration": 0.08333324999999547,
          "durationTicks": 24,
          "midi": 82,
          "name": "A#5",
          "ticks": 30672,
          "time": 106.4998935,
          "velocity": 0.9448818897637795
        },
        {
          "duration": 0.08333325000000968,
          "durationTicks": 24,
          "midi": 82,
          "name": "A#5",
          "ticks": 30696,
          "time": 106.58322675,
          "velocity": 0.9448818897637795
        },
        {
          "duration": 0.16666649999999095,
          "durationTicks": 48,
          "midi": 36,
          "name": "C2",
          "ticks": 30720,
          "time": 106.66656,
          "velocity": 0.9448818897637795
        },
        {
          "duration": 0.08333324999999547,
          "durationTicks": 24,
          "midi": 82,
          "name": "A#5",
          "ticks": 30720,
          "time": 106.66656,
          "velocity": 0.9448818897637795
        },
        {
          "duration": 0.08333324999999547,
          "durationTicks": 24,
          "midi": 82,
          "name": "A#5",
          "ticks": 30744,
          "time": 106.74989325,
          "velocity": 0.9448818897637795
        },
        {
          "duration": 0.08333324999999547,
          "durationTicks": 24,
          "midi": 82,
          "name": "A#5",
          "ticks": 30768,
          "time": 106.8332265,
          "velocity": 0.9448818897637795
        },
        {
          "duration": 0.08333325000000968,
          "durationTicks": 24,
          "midi": 82,
          "name": "A#5",
          "ticks": 30792,
          "time": 106.91655974999999,
          "velocity": 0.9448818897637795
        },
        {
          "duration": 0.08333324999999547,
          "durationTicks": 24,
          "midi": 82,
          "name": "A#5",
          "ticks": 30816,
          "time": 106.999893,
          "velocity": 0.9448818897637795
        },
        {
          "duration": 0.16666649999999095,
          "durationTicks": 48,
          "midi": 36,
          "name": "C2",
          "ticks": 30816,
          "time": 106.999893,
          "velocity": 0.9448818897637795
        },
        {
          "duration": 0.08333324999999547,
          "durationTicks": 24,
          "midi": 82,
          "name": "A#5",
          "ticks": 30840,
          "time": 107.08322625,
          "velocity": 0.9448818897637795
        },
        {
          "duration": 0.08333325000000968,
          "durationTicks": 24,
          "midi": 82,
          "name": "A#5",
          "ticks": 30864,
          "time": 107.16655949999999,
          "velocity": 0.9448818897637795
        },
        {
          "duration": 0.08333324999999547,
          "durationTicks": 24,
          "midi": 82,
          "name": "A#5",
          "ticks": 30888,
          "time": 107.24989275,
          "velocity": 0.9448818897637795
        },
        {
          "duration": 0.16666650000000516,
          "durationTicks": 48,
          "midi": 36,
          "name": "C2",
          "ticks": 30912,
          "time": 107.333226,
          "velocity": 0.9448818897637795
        },
        {
          "duration": 0.08333324999999547,
          "durationTicks": 24,
          "midi": 82,
          "name": "A#5",
          "ticks": 30912,
          "time": 107.333226,
          "velocity": 0.9448818897637795
        },
        {
          "duration": 0.08333325000000968,
          "durationTicks": 24,
          "midi": 82,
          "name": "A#5",
          "ticks": 30936,
          "time": 107.41655924999999,
          "velocity": 0.9448818897637795
        },
        {
          "duration": 0.08333324999999547,
          "durationTicks": 24,
          "midi": 82,
          "name": "A#5",
          "ticks": 30960,
          "time": 107.4998925,
          "velocity": 0.9448818897637795
        },
        {
          "duration": 0.08333324999999547,
          "durationTicks": 24,
          "midi": 82,
          "name": "A#5",
          "ticks": 30984,
          "time": 107.58322575,
          "velocity": 0.9448818897637795
        },
        {
          "duration": 0.08333325000000968,
          "durationTicks": 24,
          "midi": 82,
          "name": "A#5",
          "ticks": 31008,
          "time": 107.66655899999999,
          "velocity": 0.9448818897637795
        },
        {
          "duration": 0.16666650000000516,
          "durationTicks": 48,
          "midi": 36,
          "name": "C2",
          "ticks": 31008,
          "time": 107.66655899999999,
          "velocity": 0.9448818897637795
        },
        {
          "duration": 0.08333324999999547,
          "durationTicks": 24,
          "midi": 82,
          "name": "A#5",
          "ticks": 31032,
          "time": 107.74989225,
          "velocity": 0.9448818897637795
        },
        {
          "duration": 0.08333324999999547,
          "durationTicks": 24,
          "midi": 82,
          "name": "A#5",
          "ticks": 31056,
          "time": 107.8332255,
          "velocity": 0.9448818897637795
        },
        {
          "duration": 0.08333325000000968,
          "durationTicks": 24,
          "midi": 82,
          "name": "A#5",
          "ticks": 31080,
          "time": 107.91655875,
          "velocity": 0.9448818897637795
        },
        {
          "duration": 0.08333324999999547,
          "durationTicks": 24,
          "midi": 82,
          "name": "A#5",
          "ticks": 31104,
          "time": 107.999892,
          "velocity": 0.9448818897637795
        },
        {
          "duration": 0.16666649999999095,
          "durationTicks": 48,
          "midi": 36,
          "name": "C2",
          "ticks": 31104,
          "time": 107.999892,
          "velocity": 0.9448818897637795
        },
        {
          "duration": 0.08333324999999547,
          "durationTicks": 24,
          "midi": 82,
          "name": "A#5",
          "ticks": 31128,
          "time": 108.08322525,
          "velocity": 0.9448818897637795
        },
        {
          "duration": 0.08333325000000968,
          "durationTicks": 24,
          "midi": 82,
          "name": "A#5",
          "ticks": 31152,
          "time": 108.1665585,
          "velocity": 0.9448818897637795
        },
        {
          "duration": 0.08333324999999547,
          "durationTicks": 24,
          "midi": 82,
          "name": "A#5",
          "ticks": 31176,
          "time": 108.24989175,
          "velocity": 0.9448818897637795
        },
        {
          "duration": 0.08333324999999547,
          "durationTicks": 24,
          "midi": 82,
          "name": "A#5",
          "ticks": 31200,
          "time": 108.333225,
          "velocity": 0.9448818897637795
        },
        {
          "duration": 0.16666650000000516,
          "durationTicks": 48,
          "midi": 36,
          "name": "C2",
          "ticks": 31200,
          "time": 108.333225,
          "velocity": 0.9448818897637795
        },
        {
          "duration": 0.08333325000000968,
          "durationTicks": 24,
          "midi": 82,
          "name": "A#5",
          "ticks": 31224,
          "time": 108.41655825,
          "velocity": 0.9448818897637795
        },
        {
          "duration": 0.08333324999999547,
          "durationTicks": 24,
          "midi": 82,
          "name": "A#5",
          "ticks": 31248,
          "time": 108.4998915,
          "velocity": 0.9448818897637795
        },
        {
          "duration": 0.08333324999999547,
          "durationTicks": 24,
          "midi": 50,
          "name": "D3",
          "ticks": 31248,
          "time": 108.4998915,
          "velocity": 1
        },
        {
          "duration": 0.08333324999999547,
          "durationTicks": 24,
          "midi": 50,
          "name": "D3",
          "ticks": 31272,
          "time": 108.58322475,
          "velocity": 1
        },
        {
          "duration": 0.08333324999999547,
          "durationTicks": 24,
          "midi": 82,
          "name": "A#5",
          "ticks": 31272,
          "time": 108.58322475,
          "velocity": 0.9448818897637795
        },
        {
          "duration": 0.08333324999999547,
          "durationTicks": 24,
          "midi": 82,
          "name": "A#5",
          "ticks": 31296,
          "time": 108.666558,
          "velocity": 0.9448818897637795
        },
        {
          "duration": 0.16666650000000516,
          "durationTicks": 48,
          "midi": 36,
          "name": "C2",
          "ticks": 31296,
          "time": 108.666558,
          "velocity": 0.9448818897637795
        },
        {
          "duration": 0.16666650000000516,
          "durationTicks": 48,
          "midi": 50,
          "name": "D3",
          "ticks": 31296,
          "time": 108.666558,
          "velocity": 1
        },
        {
          "duration": 0.08333325000000968,
          "durationTicks": 24,
          "midi": 82,
          "name": "A#5",
          "ticks": 31320,
          "time": 108.74989124999999,
          "velocity": 0.9448818897637795
        },
        {
          "duration": 0.16666649999999095,
          "durationTicks": 48,
          "midi": 48,
          "name": "C3",
          "ticks": 31344,
          "time": 108.8332245,
          "velocity": 1
        },
        {
          "duration": 0.08333324999999547,
          "durationTicks": 24,
          "midi": 82,
          "name": "A#5",
          "ticks": 31344,
          "time": 108.8332245,
          "velocity": 0.9448818897637795
        },
        {
          "duration": 0.08333324999999547,
          "durationTicks": 24,
          "midi": 82,
          "name": "A#5",
          "ticks": 31368,
          "time": 108.91655775,
          "velocity": 0.9448818897637795
        },
        {
          "duration": 0.08333325000000968,
          "durationTicks": 24,
          "midi": 82,
          "name": "A#5",
          "ticks": 31392,
          "time": 108.99989099999999,
          "velocity": 0.9448818897637795
        },
        {
          "duration": 0.16666650000000516,
          "durationTicks": 48,
          "midi": 36,
          "name": "C2",
          "ticks": 31392,
          "time": 108.99989099999999,
          "velocity": 0.9448818897637795
        },
        {
          "duration": 0.08333324999999547,
          "durationTicks": 24,
          "midi": 82,
          "name": "A#5",
          "ticks": 31416,
          "time": 109.08322425,
          "velocity": 0.9448818897637795
        },
        {
          "duration": 0.08333324999999547,
          "durationTicks": 24,
          "midi": 82,
          "name": "A#5",
          "ticks": 31440,
          "time": 109.1665575,
          "velocity": 0.9448818897637795
        },
        {
          "duration": 0.08333325000000968,
          "durationTicks": 24,
          "midi": 82,
          "name": "A#5",
          "ticks": 31464,
          "time": 109.24989074999999,
          "velocity": 0.9448818897637795
        },
        {
          "duration": 0.16666649999999095,
          "durationTicks": 48,
          "midi": 36,
          "name": "C2",
          "ticks": 31488,
          "time": 109.333224,
          "velocity": 0.9448818897637795
        },
        {
          "duration": 0.08333324999999547,
          "durationTicks": 24,
          "midi": 82,
          "name": "A#5",
          "ticks": 31488,
          "time": 109.333224,
          "velocity": 0.9448818897637795
        },
        {
          "duration": 0.08333324999999547,
          "durationTicks": 24,
          "midi": 82,
          "name": "A#5",
          "ticks": 31512,
          "time": 109.41655725,
          "velocity": 0.9448818897637795
        },
        {
          "duration": 0.08333325000000968,
          "durationTicks": 24,
          "midi": 82,
          "name": "A#5",
          "ticks": 31536,
          "time": 109.49989049999999,
          "velocity": 0.9448818897637795
        },
        {
          "duration": 0.08333324999999547,
          "durationTicks": 24,
          "midi": 82,
          "name": "A#5",
          "ticks": 31560,
          "time": 109.58322375,
          "velocity": 0.9448818897637795
        },
        {
          "duration": 0.16666650000000516,
          "durationTicks": 48,
          "midi": 36,
          "name": "C2",
          "ticks": 31584,
          "time": 109.666557,
          "velocity": 0.9448818897637795
        },
        {
          "duration": 0.08333324999999547,
          "durationTicks": 24,
          "midi": 82,
          "name": "A#5",
          "ticks": 31584,
          "time": 109.666557,
          "velocity": 0.9448818897637795
        },
        {
          "duration": 0.08333325000000968,
          "durationTicks": 24,
          "midi": 82,
          "name": "A#5",
          "ticks": 31608,
          "time": 109.74989024999999,
          "velocity": 0.9448818897637795
        },
        {
          "duration": 0.08333324999999547,
          "durationTicks": 24,
          "midi": 82,
          "name": "A#5",
          "ticks": 31632,
          "time": 109.8332235,
          "velocity": 0.9448818897637795
        },
        {
          "duration": 0.08333324999999547,
          "durationTicks": 24,
          "midi": 82,
          "name": "A#5",
          "ticks": 31656,
          "time": 109.91655675,
          "velocity": 0.9448818897637795
        },
        {
          "duration": 0.16666650000000516,
          "durationTicks": 48,
          "midi": 36,
          "name": "C2",
          "ticks": 31680,
          "time": 109.99989,
          "velocity": 0.9448818897637795
        },
        {
          "duration": 0.08333325000000968,
          "durationTicks": 24,
          "midi": 82,
          "name": "A#5",
          "ticks": 31680,
          "time": 109.99989,
          "velocity": 0.9448818897637795
        },
        {
          "duration": 0.08333324999999547,
          "durationTicks": 24,
          "midi": 82,
          "name": "A#5",
          "ticks": 31704,
          "time": 110.08322325,
          "velocity": 0.9448818897637795
        },
        {
          "duration": 0.08333324999999547,
          "durationTicks": 24,
          "midi": 82,
          "name": "A#5",
          "ticks": 31728,
          "time": 110.1665565,
          "velocity": 0.9448818897637795
        },
        {
          "duration": 0.08333325000000968,
          "durationTicks": 24,
          "midi": 82,
          "name": "A#5",
          "ticks": 31752,
          "time": 110.24988975,
          "velocity": 0.9448818897637795
        },
        {
          "duration": 0.16666649999999095,
          "durationTicks": 48,
          "midi": 36,
          "name": "C2",
          "ticks": 31776,
          "time": 110.333223,
          "velocity": 0.9448818897637795
        },
        {
          "duration": 0.08333324999999547,
          "durationTicks": 24,
          "midi": 82,
          "name": "A#5",
          "ticks": 31776,
          "time": 110.333223,
          "velocity": 0.9448818897637795
        },
        {
          "duration": 0.08333324999999547,
          "durationTicks": 24,
          "midi": 82,
          "name": "A#5",
          "ticks": 31800,
          "time": 110.41655625,
          "velocity": 0.9448818897637795
        },
        {
          "duration": 0.08333324999999547,
          "durationTicks": 24,
          "midi": 82,
          "name": "A#5",
          "ticks": 31824,
          "time": 110.4998895,
          "velocity": 0.9448818897637795
        },
        {
          "duration": 0.08333325000000968,
          "durationTicks": 24,
          "midi": 82,
          "name": "A#5",
          "ticks": 31848,
          "time": 110.58322274999999,
          "velocity": 0.9448818897637795
        },
        {
          "duration": 0.16666649999999095,
          "durationTicks": 48,
          "midi": 36,
          "name": "C2",
          "ticks": 31872,
          "time": 110.666556,
          "velocity": 0.9448818897637795
        },
        {
          "duration": 0.08333324999999547,
          "durationTicks": 24,
          "midi": 82,
          "name": "A#5",
          "ticks": 31872,
          "time": 110.666556,
          "velocity": 0.9448818897637795
        },
        {
          "duration": 0.08333324999999547,
          "durationTicks": 24,
          "midi": 82,
          "name": "A#5",
          "ticks": 31896,
          "time": 110.74988925,
          "velocity": 0.9448818897637795
        },
        {
          "duration": 0.08333325000000968,
          "durationTicks": 24,
          "midi": 82,
          "name": "A#5",
          "ticks": 31920,
          "time": 110.83322249999999,
          "velocity": 0.9448818897637795
        },
        {
          "duration": 0.08333324999999547,
          "durationTicks": 24,
          "midi": 82,
          "name": "A#5",
          "ticks": 31944,
          "time": 110.91655575,
          "velocity": 0.9448818897637795
        },
        {
          "duration": 0.16666650000000516,
          "durationTicks": 48,
          "midi": 36,
          "name": "C2",
          "ticks": 31968,
          "time": 110.999889,
          "velocity": 0.9448818897637795
        },
        {
          "duration": 0.08333324999999547,
          "durationTicks": 24,
          "midi": 82,
          "name": "A#5",
          "ticks": 31968,
          "time": 110.999889,
          "velocity": 0.9448818897637795
        },
        {
          "duration": 0.08333325000000968,
          "durationTicks": 24,
          "midi": 82,
          "name": "A#5",
          "ticks": 31992,
          "time": 111.08322224999999,
          "velocity": 0.9448818897637795
        },
        {
          "duration": 0.08333324999999547,
          "durationTicks": 24,
          "midi": 82,
          "name": "A#5",
          "ticks": 32016,
          "time": 111.1665555,
          "velocity": 0.9448818897637795
        },
        {
          "duration": 0.08333324999999547,
          "durationTicks": 24,
          "midi": 82,
          "name": "A#5",
          "ticks": 32040,
          "time": 111.24988875,
          "velocity": 0.9448818897637795
        },
        {
          "duration": 0.16666650000000516,
          "durationTicks": 48,
          "midi": 36,
          "name": "C2",
          "ticks": 32064,
          "time": 111.33322199999999,
          "velocity": 0.9448818897637795
        },
        {
          "duration": 0.08333325000000968,
          "durationTicks": 24,
          "midi": 82,
          "name": "A#5",
          "ticks": 32064,
          "time": 111.33322199999999,
          "velocity": 0.9448818897637795
        },
        {
          "duration": 0.08333324999999547,
          "durationTicks": 24,
          "midi": 82,
          "name": "A#5",
          "ticks": 32088,
          "time": 111.41655525,
          "velocity": 0.9448818897637795
        },
        {
          "duration": 0.08333324999999547,
          "durationTicks": 24,
          "midi": 82,
          "name": "A#5",
          "ticks": 32112,
          "time": 111.4998885,
          "velocity": 0.9448818897637795
        },
        {
          "duration": 0.08333325000000968,
          "durationTicks": 24,
          "midi": 82,
          "name": "A#5",
          "ticks": 32136,
          "time": 111.58322174999999,
          "velocity": 0.9448818897637795
        },
        {
          "duration": 0.16666649999999095,
          "durationTicks": 48,
          "midi": 36,
          "name": "C2",
          "ticks": 32160,
          "time": 111.666555,
          "velocity": 0.9448818897637795
        },
        {
          "duration": 0.08333324999999547,
          "durationTicks": 24,
          "midi": 82,
          "name": "A#5",
          "ticks": 32160,
          "time": 111.666555,
          "velocity": 0.9448818897637795
        },
        {
          "duration": 0.08333324999999547,
          "durationTicks": 24,
          "midi": 82,
          "name": "A#5",
          "ticks": 32184,
          "time": 111.74988825,
          "velocity": 0.9448818897637795
        },
        {
          "duration": 0.08333325000000968,
          "durationTicks": 24,
          "midi": 82,
          "name": "A#5",
          "ticks": 32208,
          "time": 111.8332215,
          "velocity": 0.9448818897637795
        },
        {
          "duration": 0.08333324999999547,
          "durationTicks": 24,
          "midi": 82,
          "name": "A#5",
          "ticks": 32232,
          "time": 111.91655475,
          "velocity": 0.9448818897637795
        },
        {
          "duration": 0.16666650000000516,
          "durationTicks": 48,
          "midi": 36,
          "name": "C2",
          "ticks": 32256,
          "time": 111.999888,
          "velocity": 0.9448818897637795
        },
        {
          "duration": 0.08333324999999547,
          "durationTicks": 24,
          "midi": 82,
          "name": "A#5",
          "ticks": 32256,
          "time": 111.999888,
          "velocity": 0.9448818897637795
        },
        {
          "duration": 0.08333325000000968,
          "durationTicks": 24,
          "midi": 82,
          "name": "A#5",
          "ticks": 32280,
          "time": 112.08322125,
          "velocity": 0.9448818897637795
        },
        {
          "duration": 0.08333324999999547,
          "durationTicks": 24,
          "midi": 82,
          "name": "A#5",
          "ticks": 32304,
          "time": 112.1665545,
          "velocity": 0.9448818897637795
        },
        {
          "duration": 0.08333324999999547,
          "durationTicks": 24,
          "midi": 82,
          "name": "A#5",
          "ticks": 32328,
          "time": 112.24988775,
          "velocity": 0.9448818897637795
        },
        {
          "duration": 0.16666650000000516,
          "durationTicks": 48,
          "midi": 36,
          "name": "C2",
          "ticks": 32352,
          "time": 112.333221,
          "velocity": 0.9448818897637795
        },
        {
          "duration": 0.08333324999999547,
          "durationTicks": 24,
          "midi": 82,
          "name": "A#5",
          "ticks": 32352,
          "time": 112.333221,
          "velocity": 0.9448818897637795
        },
        {
          "duration": 0.08333325000000968,
          "durationTicks": 24,
          "midi": 82,
          "name": "A#5",
          "ticks": 32376,
          "time": 112.41655424999999,
          "velocity": 0.9448818897637795
        },
        {
          "duration": 0.08333324999999547,
          "durationTicks": 24,
          "midi": 82,
          "name": "A#5",
          "ticks": 32400,
          "time": 112.4998875,
          "velocity": 0.9448818897637795
        },
        {
          "duration": 0.08333324999999547,
          "durationTicks": 24,
          "midi": 82,
          "name": "A#5",
          "ticks": 32424,
          "time": 112.58322075,
          "velocity": 0.9448818897637795
        },
        {
          "duration": 0.08333325000000968,
          "durationTicks": 24,
          "midi": 82,
          "name": "A#5",
          "ticks": 32448,
          "time": 112.66655399999999,
          "velocity": 0.9448818897637795
        },
        {
          "duration": 0.16666650000000516,
          "durationTicks": 48,
          "midi": 36,
          "name": "C2",
          "ticks": 32448,
          "time": 112.66655399999999,
          "velocity": 0.9448818897637795
        },
        {
          "duration": 0.08333324999999547,
          "durationTicks": 24,
          "midi": 82,
          "name": "A#5",
          "ticks": 32472,
          "time": 112.74988725,
          "velocity": 0.9448818897637795
        },
        {
          "duration": 0.08333324999999547,
          "durationTicks": 24,
          "midi": 82,
          "name": "A#5",
          "ticks": 32496,
          "time": 112.8332205,
          "velocity": 0.9448818897637795
        },
        {
          "duration": 0.08333325000000968,
          "durationTicks": 24,
          "midi": 82,
          "name": "A#5",
          "ticks": 32520,
          "time": 112.91655374999999,
          "velocity": 0.9448818897637795
        },
        {
          "duration": 0.16666649999999095,
          "durationTicks": 48,
          "midi": 36,
          "name": "C2",
          "ticks": 32544,
          "time": 112.999887,
          "velocity": 0.9448818897637795
        },
        {
          "duration": 0.08333324999999547,
          "durationTicks": 24,
          "midi": 82,
          "name": "A#5",
          "ticks": 32544,
          "time": 112.999887,
          "velocity": 0.9448818897637795
        },
        {
          "duration": 0.08333324999999547,
          "durationTicks": 24,
          "midi": 82,
          "name": "A#5",
          "ticks": 32568,
          "time": 113.08322025,
          "velocity": 0.9448818897637795
        },
        {
          "duration": 0.08333325000000968,
          "durationTicks": 24,
          "midi": 82,
          "name": "A#5",
          "ticks": 32592,
          "time": 113.16655349999999,
          "velocity": 0.9448818897637795
        },
        {
          "duration": 0.08333324999999547,
          "durationTicks": 24,
          "midi": 82,
          "name": "A#5",
          "ticks": 32616,
          "time": 113.24988675,
          "velocity": 0.9448818897637795
        },
        {
          "duration": 0.08333324999999547,
          "durationTicks": 24,
          "midi": 82,
          "name": "A#5",
          "ticks": 32640,
          "time": 113.33322,
          "velocity": 0.9448818897637795
        },
        {
          "duration": 0.16666650000000516,
          "durationTicks": 48,
          "midi": 36,
          "name": "C2",
          "ticks": 32640,
          "time": 113.33322,
          "velocity": 0.9448818897637795
        },
        {
          "duration": 0.08333325000000968,
          "durationTicks": 24,
          "midi": 82,
          "name": "A#5",
          "ticks": 32664,
          "time": 113.41655324999999,
          "velocity": 0.9448818897637795
        },
        {
          "duration": 0.08333324999999547,
          "durationTicks": 24,
          "midi": 82,
          "name": "A#5",
          "ticks": 32688,
          "time": 113.4998865,
          "velocity": 0.9448818897637795
        },
        {
          "duration": 0.08333324999999547,
          "durationTicks": 24,
          "midi": 82,
          "name": "A#5",
          "ticks": 32712,
          "time": 113.58321975,
          "velocity": 0.9448818897637795
        },
        {
          "duration": 0.08333325000000968,
          "durationTicks": 24,
          "midi": 82,
          "name": "A#5",
          "ticks": 32736,
          "time": 113.666553,
          "velocity": 0.9448818897637795
        },
        {
          "duration": 0.16666650000000516,
          "durationTicks": 48,
          "midi": 36,
          "name": "C2",
          "ticks": 32736,
          "time": 113.666553,
          "velocity": 0.9448818897637795
        },
        {
          "duration": 0.08333324999999547,
          "durationTicks": 24,
          "midi": 82,
          "name": "A#5",
          "ticks": 32760,
          "time": 113.74988625,
          "velocity": 0.9448818897637795
        },
        {
          "duration": 0.08333324999999547,
          "durationTicks": 24,
          "midi": 82,
          "name": "A#5",
          "ticks": 32784,
          "time": 113.8332195,
          "velocity": 0.9448818897637795
        },
        {
          "duration": 0.08333325000000968,
          "durationTicks": 24,
          "midi": 82,
          "name": "A#5",
          "ticks": 32808,
          "time": 113.91655275,
          "velocity": 0.9448818897637795
        },
        {
          "duration": 0.08333324999999547,
          "durationTicks": 24,
          "midi": 82,
          "name": "A#5",
          "ticks": 32832,
          "time": 113.999886,
          "velocity": 0.9448818897637795
        },
        {
          "duration": 0.16666649999999095,
          "durationTicks": 48,
          "midi": 36,
          "name": "C2",
          "ticks": 32832,
          "time": 113.999886,
          "velocity": 0.9448818897637795
        },
        {
          "duration": 0.08333324999999547,
          "durationTicks": 24,
          "midi": 82,
          "name": "A#5",
          "ticks": 32856,
          "time": 114.08321925,
          "velocity": 0.9448818897637795
        },
        {
          "duration": 0.08333324999999547,
          "durationTicks": 24,
          "midi": 82,
          "name": "A#5",
          "ticks": 32880,
          "time": 114.1665525,
          "velocity": 0.9448818897637795
        },
        {
          "duration": 0.08333325000000968,
          "durationTicks": 24,
          "midi": 82,
          "name": "A#5",
          "ticks": 32904,
          "time": 114.24988574999999,
          "velocity": 0.9448818897637795
        },
        {
          "duration": 0.08333324999999547,
          "durationTicks": 24,
          "midi": 82,
          "name": "A#5",
          "ticks": 32928,
          "time": 114.333219,
          "velocity": 0.9448818897637795
        },
        {
          "duration": 0.16666649999999095,
          "durationTicks": 48,
          "midi": 36,
          "name": "C2",
          "ticks": 32928,
          "time": 114.333219,
          "velocity": 0.9448818897637795
        },
        {
          "duration": 0.08333324999999547,
          "durationTicks": 24,
          "midi": 82,
          "name": "A#5",
          "ticks": 32952,
          "time": 114.41655225,
          "velocity": 0.9448818897637795
        },
        {
          "duration": 0.08333325000000968,
          "durationTicks": 24,
          "midi": 82,
          "name": "A#5",
          "ticks": 32976,
          "time": 114.49988549999999,
          "velocity": 0.9448818897637795
        },
        {
          "duration": 0.08333324999999547,
          "durationTicks": 24,
          "midi": 82,
          "name": "A#5",
          "ticks": 33000,
          "time": 114.58321875,
          "velocity": 0.9448818897637795
        },
        {
          "duration": 0.08333324999999547,
          "durationTicks": 24,
          "midi": 82,
          "name": "A#5",
          "ticks": 33024,
          "time": 114.666552,
          "velocity": 0.9448818897637795
        },
        {
          "duration": 0.16666650000000516,
          "durationTicks": 48,
          "midi": 36,
          "name": "C2",
          "ticks": 33024,
          "time": 114.666552,
          "velocity": 0.9448818897637795
        },
        {
          "duration": 0.08333325000000968,
          "durationTicks": 24,
          "midi": 82,
          "name": "A#5",
          "ticks": 33048,
          "time": 114.74988524999999,
          "velocity": 0.9448818897637795
        },
        {
          "duration": 0.08333324999999547,
          "durationTicks": 24,
          "midi": 82,
          "name": "A#5",
          "ticks": 33072,
          "time": 114.8332185,
          "velocity": 0.9448818897637795
        },
        {
          "duration": 0.08333324999999547,
          "durationTicks": 24,
          "midi": 82,
          "name": "A#5",
          "ticks": 33096,
          "time": 114.91655175,
          "velocity": 0.9448818897637795
        },
        {
          "duration": 0.08333325000000968,
          "durationTicks": 24,
          "midi": 82,
          "name": "A#5",
          "ticks": 33120,
          "time": 114.99988499999999,
          "velocity": 0.9448818897637795
        },
        {
          "duration": 0.16666650000000516,
          "durationTicks": 48,
          "midi": 36,
          "name": "C2",
          "ticks": 33120,
          "time": 114.99988499999999,
          "velocity": 0.9448818897637795
        },
        {
          "duration": 0.08333324999999547,
          "durationTicks": 24,
          "midi": 82,
          "name": "A#5",
          "ticks": 33144,
          "time": 115.08321825,
          "velocity": 0.9448818897637795
        },
        {
          "duration": 0.08333324999999547,
          "durationTicks": 24,
          "midi": 82,
          "name": "A#5",
          "ticks": 33168,
          "time": 115.1665515,
          "velocity": 0.9448818897637795
        },
        {
          "duration": 0.08333325000000968,
          "durationTicks": 24,
          "midi": 82,
          "name": "A#5",
          "ticks": 33192,
          "time": 115.24988474999999,
          "velocity": 0.9448818897637795
        },
        {
          "duration": 0.16666649999999095,
          "durationTicks": 48,
          "midi": 36,
          "name": "C2",
          "ticks": 33216,
          "time": 115.333218,
          "velocity": 0.9448818897637795
        },
        {
          "duration": 0.08333324999999547,
          "durationTicks": 24,
          "midi": 82,
          "name": "A#5",
          "ticks": 33216,
          "time": 115.333218,
          "velocity": 0.9448818897637795
        },
        {
          "duration": 0.08333324999999547,
          "durationTicks": 24,
          "midi": 82,
          "name": "A#5",
          "ticks": 33240,
          "time": 115.41655125,
          "velocity": 0.9448818897637795
        },
        {
          "duration": 0.08333325000000968,
          "durationTicks": 24,
          "midi": 82,
          "name": "A#5",
          "ticks": 33264,
          "time": 115.4998845,
          "velocity": 0.9448818897637795
        },
        {
          "duration": 0.08333324999999547,
          "durationTicks": 24,
          "midi": 82,
          "name": "A#5",
          "ticks": 33288,
          "time": 115.58321775,
          "velocity": 0.9448818897637795
        },
        {
          "duration": 0.16666650000000516,
          "durationTicks": 48,
          "midi": 36,
          "name": "C2",
          "ticks": 33312,
          "time": 115.666551,
          "velocity": 0.9448818897637795
        },
        {
          "duration": 0.08333324999999547,
          "durationTicks": 24,
          "midi": 82,
          "name": "A#5",
          "ticks": 33312,
          "time": 115.666551,
          "velocity": 0.9448818897637795
        },
        {
          "duration": 0.08333325000000968,
          "durationTicks": 24,
          "midi": 82,
          "name": "A#5",
          "ticks": 33336,
          "time": 115.74988425,
          "velocity": 0.9448818897637795
        },
        {
          "duration": 0.08333324999999547,
          "durationTicks": 24,
          "midi": 82,
          "name": "A#5",
          "ticks": 33360,
          "time": 115.8332175,
          "velocity": 0.9448818897637795
        },
        {
          "duration": 0.08333324999999547,
          "durationTicks": 24,
          "midi": 82,
          "name": "A#5",
          "ticks": 33384,
          "time": 115.91655075,
          "velocity": 0.9448818897637795
        },
        {
          "duration": 0.08333324999999547,
          "durationTicks": 24,
          "midi": 82,
          "name": "A#5",
          "ticks": 33408,
          "time": 115.999884,
          "velocity": 0.9448818897637795
        },
        {
          "duration": 0.16666650000000516,
          "durationTicks": 48,
          "midi": 36,
          "name": "C2",
          "ticks": 33408,
          "time": 115.999884,
          "velocity": 0.9448818897637795
        },
        {
          "duration": 0.08333325000000968,
          "durationTicks": 24,
          "midi": 82,
          "name": "A#5",
          "ticks": 33432,
          "time": 116.08321724999999,
          "velocity": 0.9448818897637795
        },
        {
          "duration": 0.08333324999999547,
          "durationTicks": 24,
          "midi": 82,
          "name": "A#5",
          "ticks": 33456,
          "time": 116.1665505,
          "velocity": 0.9448818897637795
        },
        {
          "duration": 0.08333324999999547,
          "durationTicks": 24,
          "midi": 82,
          "name": "A#5",
          "ticks": 33480,
          "time": 116.24988375,
          "velocity": 0.9448818897637795
        },
        {
          "duration": 0.16666650000000516,
          "durationTicks": 48,
          "midi": 36,
          "name": "C2",
          "ticks": 33504,
          "time": 116.33321699999999,
          "velocity": 0.9448818897637795
        },
        {
          "duration": 0.08333325000000968,
          "durationTicks": 24,
          "midi": 82,
          "name": "A#5",
          "ticks": 33504,
          "time": 116.33321699999999,
          "velocity": 0.9448818897637795
        },
        {
          "duration": 0.08333324999999547,
          "durationTicks": 24,
          "midi": 82,
          "name": "A#5",
          "ticks": 33528,
          "time": 116.41655025,
          "velocity": 0.9448818897637795
        },
        {
          "duration": 0.08333324999999547,
          "durationTicks": 24,
          "midi": 82,
          "name": "A#5",
          "ticks": 33552,
          "time": 116.4998835,
          "velocity": 0.9448818897637795
        },
        {
          "duration": 0.08333325000000968,
          "durationTicks": 24,
          "midi": 82,
          "name": "A#5",
          "ticks": 33576,
          "time": 116.58321674999999,
          "velocity": 0.9448818897637795
        },
        {
          "duration": 0.08333324999999547,
          "durationTicks": 24,
          "midi": 82,
          "name": "A#5",
          "ticks": 33600,
          "time": 116.66655,
          "velocity": 0.9448818897637795
        },
        {
          "duration": 0.16666649999999095,
          "durationTicks": 48,
          "midi": 36,
          "name": "C2",
          "ticks": 33600,
          "time": 116.66655,
          "velocity": 0.9448818897637795
        },
        {
          "duration": 0.08333324999999547,
          "durationTicks": 24,
          "midi": 82,
          "name": "A#5",
          "ticks": 33624,
          "time": 116.74988325,
          "velocity": 0.9448818897637795
        },
        {
          "duration": 0.08333325000000968,
          "durationTicks": 24,
          "midi": 82,
          "name": "A#5",
          "ticks": 33648,
          "time": 116.83321649999999,
          "velocity": 0.9448818897637795
        },
        {
          "duration": 0.08333324999999547,
          "durationTicks": 24,
          "midi": 82,
          "name": "A#5",
          "ticks": 33672,
          "time": 116.91654975,
          "velocity": 0.9448818897637795
        },
        {
          "duration": 0.16666650000000516,
          "durationTicks": 48,
          "midi": 36,
          "name": "C2",
          "ticks": 33696,
          "time": 116.999883,
          "velocity": 0.9448818897637795
        },
        {
          "duration": 0.08333324999999547,
          "durationTicks": 24,
          "midi": 82,
          "name": "A#5",
          "ticks": 33696,
          "time": 116.999883,
          "velocity": 0.9448818897637795
        },
        {
          "duration": 0.08333325000000968,
          "durationTicks": 24,
          "midi": 82,
          "name": "A#5",
          "ticks": 33720,
          "time": 117.08321624999999,
          "velocity": 0.9448818897637795
        },
        {
          "duration": 0.08333324999999547,
          "durationTicks": 24,
          "midi": 82,
          "name": "A#5",
          "ticks": 33744,
          "time": 117.1665495,
          "velocity": 0.9448818897637795
        },
        {
          "duration": 0.08333324999999547,
          "durationTicks": 24,
          "midi": 82,
          "name": "A#5",
          "ticks": 33768,
          "time": 117.24988275,
          "velocity": 0.9448818897637795
        },
        {
          "duration": 0.16666650000000516,
          "durationTicks": 48,
          "midi": 36,
          "name": "C2",
          "ticks": 33792,
          "time": 117.333216,
          "velocity": 0.9448818897637795
        },
        {
          "duration": 0.16666650000000516,
          "durationTicks": 48,
          "midi": 55,
          "name": "G3",
          "ticks": 33792,
          "time": 117.333216,
          "velocity": 1
        },
        {
          "duration": 0.16666650000000516,
          "durationTicks": 48,
          "midi": 46,
          "name": "A#2",
          "ticks": 33792,
          "time": 117.333216,
          "velocity": 0.9448818897637795
        },
        {
          "duration": 0.16666649999999095,
          "durationTicks": 48,
          "midi": 46,
          "name": "A#2",
          "ticks": 33888,
          "time": 117.666549,
          "velocity": 0.9448818897637795
        },
        {
          "duration": 0.16666650000000516,
          "durationTicks": 48,
          "midi": 42,
          "name": "F#2",
          "ticks": 33936,
          "time": 117.8332155,
          "velocity": 0.9448818897637795
        },
        {
          "duration": 0.16666650000000516,
          "durationTicks": 48,
          "midi": 40,
          "name": "E2",
          "ticks": 33936,
          "time": 117.8332155,
          "velocity": 0.9448818897637795
        },
        {
          "duration": 0.16666649999999095,
          "durationTicks": 48,
          "midi": 46,
          "name": "A#2",
          "ticks": 33984,
          "time": 117.999882,
          "velocity": 0.9448818897637795
        },
        {
          "duration": 0.16666650000000516,
          "durationTicks": 48,
          "midi": 36,
          "name": "C2",
          "ticks": 34032,
          "time": 118.16654849999999,
          "velocity": 0.9448818897637795
        },
        {
          "duration": 0.16666650000000516,
          "durationTicks": 48,
          "midi": 46,
          "name": "A#2",
          "ticks": 34080,
          "time": 118.333215,
          "velocity": 0.9448818897637795
        },
        {
          "duration": 0.16666650000000516,
          "durationTicks": 48,
          "midi": 40,
          "name": "E2",
          "ticks": 34080,
          "time": 118.333215,
          "velocity": 0.9448818897637795
        },
        {
          "duration": 0.08333324999999547,
          "durationTicks": 24,
          "midi": 46,
          "name": "A#2",
          "ticks": 34128,
          "time": 118.4998815,
          "velocity": 0.9448818897637795
        },
        {
          "duration": 0.08333324999999547,
          "durationTicks": 24,
          "midi": 40,
          "name": "E2",
          "ticks": 34152,
          "time": 118.58321475,
          "velocity": 0.9448818897637795
        },
        {
          "duration": 0.08333325000000968,
          "durationTicks": 24,
          "midi": 46,
          "name": "A#2",
          "ticks": 34176,
          "time": 118.66654799999999,
          "velocity": 0.9448818897637795
        },
        {
          "duration": 0.08333324999999547,
          "durationTicks": 24,
          "midi": 40,
          "name": "E2",
          "ticks": 34200,
          "time": 118.74988125,
          "velocity": 0.9448818897637795
        },
        {
          "duration": 0.16666650000000516,
          "durationTicks": 48,
          "midi": 36,
          "name": "C2",
          "ticks": 34224,
          "time": 118.8332145,
          "velocity": 0.9448818897637795
        },
        {
          "duration": 0.16666649999999095,
          "durationTicks": 48,
          "midi": 36,
          "name": "C2",
          "ticks": 34272,
          "time": 118.999881,
          "velocity": 0.9448818897637795
        },
        {
          "duration": 0.16666649999999095,
          "durationTicks": 48,
          "midi": 46,
          "name": "A#2",
          "ticks": 34272,
          "time": 118.999881,
          "velocity": 0.9448818897637795
        },
        {
          "duration": 0.16666650000000516,
          "durationTicks": 48,
          "midi": 40,
          "name": "E2",
          "ticks": 34320,
          "time": 119.1665475,
          "velocity": 0.9448818897637795
        },
        {
          "duration": 0.16666650000000516,
          "durationTicks": 48,
          "midi": 46,
          "name": "A#2",
          "ticks": 34368,
          "time": 119.333214,
          "velocity": 0.9448818897637795
        },
        {
          "duration": 0.16666649999999095,
          "durationTicks": 48,
          "midi": 36,
          "name": "C2",
          "ticks": 34416,
          "time": 119.4998805,
          "velocity": 0.9448818897637795
        },
        {
          "duration": 0.16666650000000516,
          "durationTicks": 48,
          "midi": 57,
          "name": "A3",
          "ticks": 34464,
          "time": 119.666547,
          "velocity": 1
        },
        {
          "duration": 0.16666650000000516,
          "durationTicks": 48,
          "midi": 40,
          "name": "E2",
          "ticks": 34464,
          "time": 119.666547,
          "velocity": 0.9448818897637795
        },
        {
          "duration": 0.16666650000000516,
          "durationTicks": 48,
          "midi": 57,
          "name": "A3",
          "ticks": 34560,
          "time": 119.99987999999999,
          "velocity": 1
        },
        {
          "duration": 0.16666650000000516,
          "durationTicks": 48,
          "midi": 36,
          "name": "C2",
          "ticks": 34560,
          "time": 119.99987999999999,
          "velocity": 0.9448818897637795
        }
      ]
    },
    {
      "channel": 0,
      "controlChanges": {},
      "pitchBends": [],
      "instrument": {
        "family": "piano",
        "number": 0,
        "name": "acoustic grand piano"
      },
      "name": "Purity",
      "notes": [],
      "endOfTrackTicks": 0
    },
    {
      "channel": 0,
      "controlChanges": {
        "6": [
          {
            "number": 6,
            "ticks": 0,
            "time": 0,
            "value": 0.09448818897637795
          }
        ],
        "7": [
          {
            "number": 7,
            "ticks": 0,
            "time": 0,
            "value": 1
          },
          {
            "number": 7,
            "ticks": 0,
            "time": 0,
            "value": 1
          }
        ],
        "10": [
          {
            "number": 10,
            "ticks": 0,
            "time": 0,
            "value": 0.5039370078740157
          },
          {
            "number": 10,
            "ticks": 0,
            "time": 0,
            "value": 0.5039370078740157
          }
        ],
        "100": [
          {
            "number": 100,
            "ticks": 0,
            "time": 0,
            "value": 0
          }
        ],
        "101": [
          {
            "number": 101,
            "ticks": 0,
            "time": 0,
            "value": 0
          }
        ]
      },
      "pitchBends": [
        {
          "ticks": 0,
          "time": 0,
          "value": 0
        },
        {
          "ticks": 0,
          "time": 0,
          "value": 0
        }
      ],
      "instrument": {
        "family": "piano",
        "number": 0,
        "name": "acoustic grand piano"
      },
      "name": "Bass",
      "notes": [],
      "endOfTrackTicks": 37249
    },
    {
      "channel": 8,
      "controlChanges": {
        "6": [
          {
            "number": 6,
            "ticks": 0,
            "time": 0,
            "value": 0.09448818897637795
          },
          {
            "number": 6,
            "ticks": 0,
            "time": 0,
            "value": 0.09448818897637795
          },
          {
            "number": 6,
            "ticks": 37248,
            "time": 129.333204,
            "value": 0.09448818897637795
          },
          {
            "number": 6,
            "ticks": 37249,
            "time": 129.33667621875,
            "value": 0.09448818897637795
          }
        ],
        "7": [
          {
            "number": 7,
            "ticks": 0,
            "time": 0,
            "value": 1
          },
          {
            "number": 7,
            "ticks": 0,
            "time": 0,
            "value": 1
          },
          {
            "number": 7,
            "ticks": 37248,
            "time": 129.333204,
            "value": 1
          },
          {
            "number": 7,
            "ticks": 37249,
            "time": 129.33667621875,
            "value": 1
          }
        ],
        "10": [
          {
            "number": 10,
            "ticks": 0,
            "time": 0,
            "value": 0.5039370078740157
          },
          {
            "number": 10,
            "ticks": 0,
            "time": 0,
            "value": 0.5039370078740157
          },
          {
            "number": 10,
            "ticks": 37248,
            "time": 129.333204,
            "value": 0.5039370078740157
          },
          {
            "number": 10,
            "ticks": 37249,
            "time": 129.33667621875,
            "value": 0.5039370078740157
          }
        ],
        "100": [
          {
            "number": 100,
            "ticks": 0,
            "time": 0,
            "value": 0
          },
          {
            "number": 100,
            "ticks": 0,
            "time": 0,
            "value": 0
          },
          {
            "number": 100,
            "ticks": 37248,
            "time": 129.333204,
            "value": 0
          },
          {
            "number": 100,
            "ticks": 37249,
            "time": 129.33667621875,
            "value": 0
          }
        ],
        "101": [
          {
            "number": 101,
            "ticks": 0,
            "time": 0,
            "value": 0
          },
          {
            "number": 101,
            "ticks": 0,
            "time": 0,
            "value": 0
          },
          {
            "number": 101,
            "ticks": 37248,
            "time": 129.333204,
            "value": 0
          },
          {
            "number": 101,
            "ticks": 37249,
            "time": 129.33667621875,
            "value": 0
          }
        ]
      },
      "pitchBends": [
        {
          "ticks": 0,
          "time": 0,
          "value": 0
        },
        {
          "ticks": 0,
          "time": 0,
          "value": 0
        },
        {
          "ticks": 0,
          "time": 0,
          "value": 0
        },
        {
          "ticks": 0,
          "time": 0,
          "value": 0
        },
        {
          "ticks": 0,
          "time": 0,
          "value": 0
        },
        {
          "ticks": 17664,
          "time": 61.333272,
          "value": 0
        },
        {
          "ticks": 37248,
          "time": 129.333204,
          "value": 0
        },
        {
          "ticks": 37248,
          "time": 129.333204,
          "value": 0
        },
        {
          "ticks": 37248,
          "time": 129.333204,
          "value": 0
        },
        {
          "ticks": 37249,
          "time": 129.33667621875,
          "value": 0
        }
      ],
      "instrument": {
        "family": "bass",
        "number": 38,
        "name": "synth bass 1"
      },
      "name": "",
      "notes": [
        {
          "duration": 0.16666649999999983,
          "durationTicks": 48,
          "midi": 21,
          "name": "A0",
          "ticks": 768,
          "time": 2.666664,
          "velocity": 0.9448818897637795
        },
        {
          "duration": 0.16666649999999983,
          "durationTicks": 48,
          "midi": 21,
          "name": "A0",
          "ticks": 864,
          "time": 2.999997,
          "velocity": 0.9448818897637795
        },
        {
          "duration": 0.16666649999999983,
          "durationTicks": 48,
          "midi": 21,
          "name": "A0",
          "ticks": 960,
          "time": 3.33333,
          "velocity": 0.9448818897637795
        },
        {
          "duration": 0.16666650000000027,
          "durationTicks": 48,
          "midi": 21,
          "name": "A0",
          "ticks": 1056,
          "time": 3.666663,
          "velocity": 0.9448818897637795
        },
        {
          "duration": 0.16666650000000027,
          "durationTicks": 48,
          "midi": 24,
          "name": "C1",
          "ticks": 1152,
          "time": 3.999996,
          "velocity": 0.9448818897637795
        },
        {
          "duration": 0.16666649999999983,
          "durationTicks": 48,
          "midi": 24,
          "name": "C1",
          "ticks": 1248,
          "time": 4.333329,
          "velocity": 0.9448818897637795
        },
        {
          "duration": 0.16666649999999983,
          "durationTicks": 48,
          "midi": 24,
          "name": "C1",
          "ticks": 1344,
          "time": 4.666662,
          "velocity": 0.9448818897637795
        },
        {
          "duration": 0.16666649999999983,
          "durationTicks": 48,
          "midi": 24,
          "name": "C1",
          "ticks": 1440,
          "time": 4.999995,
          "velocity": 0.9448818897637795
        },
        {
          "duration": 0.16666649999999983,
          "durationTicks": 48,
          "midi": 17,
          "name": "F0",
          "ticks": 1536,
          "time": 5.333328,
          "velocity": 0.9448818897637795
        },
        {
          "duration": 0.16666650000000072,
          "durationTicks": 48,
          "midi": 17,
          "name": "F0",
          "ticks": 1632,
          "time": 5.6666609999999995,
          "velocity": 0.9448818897637795
        },
        {
          "duration": 0.16666649999999983,
          "durationTicks": 48,
          "midi": 17,
          "name": "F0",
          "ticks": 1728,
          "time": 5.999994,
          "velocity": 0.9448818897637795
        },
        {
          "duration": 0.16666649999999983,
          "durationTicks": 48,
          "midi": 17,
          "name": "F0",
          "ticks": 1824,
          "time": 6.333327,
          "velocity": 0.9448818897637795
        },
        {
          "duration": 0.16666649999999983,
          "durationTicks": 48,
          "midi": 16,
          "name": "E0",
          "ticks": 1920,
          "time": 6.66666,
          "velocity": 0.9448818897637795
        },
        {
          "duration": 0.16666649999999983,
          "durationTicks": 48,
          "midi": 16,
          "name": "E0",
          "ticks": 2016,
          "time": 6.999993,
          "velocity": 0.9448818897637795
        },
        {
          "duration": 0.16666649999999983,
          "durationTicks": 48,
          "midi": 16,
          "name": "E0",
          "ticks": 2112,
          "time": 7.333326,
          "velocity": 0.9448818897637795
        },
        {
          "duration": 0.16666649999999983,
          "durationTicks": 48,
          "midi": 16,
          "name": "E0",
          "ticks": 2208,
          "time": 7.666659,
          "velocity": 0.9448818897637795
        },
        {
          "duration": 0.16666650000000072,
          "durationTicks": 48,
          "midi": 21,
          "name": "A0",
          "ticks": 2304,
          "time": 7.999992,
          "velocity": 0.9448818897637795
        },
        {
          "duration": 0.16666649999999983,
          "durationTicks": 48,
          "midi": 21,
          "name": "A0",
          "ticks": 2400,
          "time": 8.333325,
          "velocity": 0.9448818897637795
        },
        {
          "duration": 0.16666649999999983,
          "durationTicks": 48,
          "midi": 21,
          "name": "A0",
          "ticks": 2496,
          "time": 8.666658,
          "velocity": 0.9448818897637795
        },
        {
          "duration": 0.16666649999999983,
          "durationTicks": 48,
          "midi": 21,
          "name": "A0",
          "ticks": 2592,
          "time": 8.999991,
          "velocity": 0.9448818897637795
        },
        {
          "duration": 0.16666649999999983,
          "durationTicks": 48,
          "midi": 24,
          "name": "C1",
          "ticks": 2688,
          "time": 9.333324,
          "velocity": 0.9448818897637795
        },
        {
          "duration": 0.1666665000000016,
          "durationTicks": 48,
          "midi": 24,
          "name": "C1",
          "ticks": 2784,
          "time": 9.666656999999999,
          "velocity": 0.9448818897637795
        },
        {
          "duration": 0.16666649999999983,
          "durationTicks": 48,
          "midi": 24,
          "name": "C1",
          "ticks": 2880,
          "time": 9.99999,
          "velocity": 0.9448818897637795
        },
        {
          "duration": 0.16666649999999983,
          "durationTicks": 48,
          "midi": 24,
          "name": "C1",
          "ticks": 2976,
          "time": 10.333323,
          "velocity": 0.9448818897637795
        },
        {
          "duration": 0.16666649999999983,
          "durationTicks": 48,
          "midi": 17,
          "name": "F0",
          "ticks": 3072,
          "time": 10.666656,
          "velocity": 0.9448818897637795
        },
        {
          "duration": 0.16666649999999983,
          "durationTicks": 48,
          "midi": 17,
          "name": "F0",
          "ticks": 3168,
          "time": 10.999989,
          "velocity": 0.9448818897637795
        },
        {
          "duration": 0.16666649999999983,
          "durationTicks": 48,
          "midi": 17,
          "name": "F0",
          "ticks": 3264,
          "time": 11.333321999999999,
          "velocity": 0.9448818897637795
        },
        {
          "duration": 0.16666649999999983,
          "durationTicks": 48,
          "midi": 17,
          "name": "F0",
          "ticks": 3360,
          "time": 11.666655,
          "velocity": 0.9448818897637795
        },
        {
          "duration": 0.16666649999999983,
          "durationTicks": 48,
          "midi": 16,
          "name": "E0",
          "ticks": 3456,
          "time": 11.999988,
          "velocity": 0.9448818897637795
        },
        {
          "duration": 0.16666649999999983,
          "durationTicks": 48,
          "midi": 16,
          "name": "E0",
          "ticks": 3552,
          "time": 12.333321,
          "velocity": 0.9448818897637795
        },
        {
          "duration": 0.16666649999999983,
          "durationTicks": 48,
          "midi": 16,
          "name": "E0",
          "ticks": 3648,
          "time": 12.666654,
          "velocity": 0.9448818897637795
        },
        {
          "duration": 0.16666649999999983,
          "durationTicks": 48,
          "midi": 16,
          "name": "E0",
          "ticks": 3744,
          "time": 12.999986999999999,
          "velocity": 0.9448818897637795
        },
        {
          "duration": 0.16666649999999983,
          "durationTicks": 48,
          "midi": 21,
          "name": "A0",
          "ticks": 3840,
          "time": 13.33332,
          "velocity": 0.9448818897637795
        },
        {
          "duration": 0.16666649999999983,
          "durationTicks": 48,
          "midi": 21,
          "name": "A0",
          "ticks": 3936,
          "time": 13.666653,
          "velocity": 0.9448818897637795
        },
        {
          "duration": 0.16666649999999983,
          "durationTicks": 48,
          "midi": 21,
          "name": "A0",
          "ticks": 4032,
          "time": 13.999986,
          "velocity": 0.9448818897637795
        },
        {
          "duration": 0.16666649999999983,
          "durationTicks": 48,
          "midi": 21,
          "name": "A0",
          "ticks": 4128,
          "time": 14.333319,
          "velocity": 0.9448818897637795
        },
        {
          "duration": 0.16666649999999983,
          "durationTicks": 48,
          "midi": 24,
          "name": "C1",
          "ticks": 4224,
          "time": 14.666652,
          "velocity": 0.9448818897637795
        },
        {
          "duration": 0.1666665000000016,
          "durationTicks": 48,
          "midi": 24,
          "name": "C1",
          "ticks": 4320,
          "time": 14.999984999999999,
          "velocity": 0.9448818897637795
        },
        {
          "duration": 0.16666649999999983,
          "durationTicks": 48,
          "midi": 24,
          "name": "C1",
          "ticks": 4416,
          "time": 15.333318,
          "velocity": 0.9448818897637795
        },
        {
          "duration": 0.16666649999999983,
          "durationTicks": 48,
          "midi": 24,
          "name": "C1",
          "ticks": 4512,
          "time": 15.666651,
          "velocity": 0.9448818897637795
        },
        {
          "duration": 0.16666649999999983,
          "durationTicks": 48,
          "midi": 17,
          "name": "F0",
          "ticks": 4608,
          "time": 15.999984,
          "velocity": 0.9448818897637795
        },
        {
          "duration": 0.16666649999999805,
          "durationTicks": 48,
          "midi": 17,
          "name": "F0",
          "ticks": 4704,
          "time": 16.333317,
          "velocity": 0.9448818897637795
        },
        {
          "duration": 0.16666649999999805,
          "durationTicks": 48,
          "midi": 17,
          "name": "F0",
          "ticks": 4800,
          "time": 16.66665,
          "velocity": 0.9448818897637795
        },
        {
          "duration": 0.16666649999999805,
          "durationTicks": 48,
          "midi": 17,
          "name": "F0",
          "ticks": 4896,
          "time": 16.999983,
          "velocity": 0.9448818897637795
        },
        {
          "duration": 0.16666649999999805,
          "durationTicks": 48,
          "midi": 16,
          "name": "E0",
          "ticks": 4992,
          "time": 17.333316,
          "velocity": 0.9448818897637795
        },
        {
          "duration": 0.1666665000000016,
          "durationTicks": 48,
          "midi": 16,
          "name": "E0",
          "ticks": 5088,
          "time": 17.666649,
          "velocity": 0.9448818897637795
        },
        {
          "duration": 0.1666665000000016,
          "durationTicks": 48,
          "midi": 16,
          "name": "E0",
          "ticks": 5184,
          "time": 17.999982,
          "velocity": 0.9448818897637795
        },
        {
          "duration": 0.1666665000000016,
          "durationTicks": 48,
          "midi": 16,
          "name": "E0",
          "ticks": 5280,
          "time": 18.333315,
          "velocity": 0.9448818897637795
        },
        {
          "duration": 0.1666665000000016,
          "durationTicks": 48,
          "midi": 21,
          "name": "A0",
          "ticks": 5376,
          "time": 18.666648,
          "velocity": 0.9448818897637795
        },
        {
          "duration": 0.1666665000000016,
          "durationTicks": 48,
          "midi": 21,
          "name": "A0",
          "ticks": 5472,
          "time": 18.999981,
          "velocity": 0.9448818897637795
        },
        {
          "duration": 0.1666665000000016,
          "durationTicks": 48,
          "midi": 21,
          "name": "A0",
          "ticks": 5568,
          "time": 19.333313999999998,
          "velocity": 0.9448818897637795
        },
        {
          "duration": 0.16666649999999805,
          "durationTicks": 48,
          "midi": 21,
          "name": "A0",
          "ticks": 5664,
          "time": 19.666647,
          "velocity": 0.9448818897637795
        },
        {
          "duration": 0.16666649999999805,
          "durationTicks": 48,
          "midi": 24,
          "name": "C1",
          "ticks": 5760,
          "time": 19.99998,
          "velocity": 0.9448818897637795
        },
        {
          "duration": 0.16666649999999805,
          "durationTicks": 48,
          "midi": 24,
          "name": "C1",
          "ticks": 5856,
          "time": 20.333313,
          "velocity": 0.9448818897637795
        },
        {
          "duration": 0.16666649999999805,
          "durationTicks": 48,
          "midi": 24,
          "name": "C1",
          "ticks": 5952,
          "time": 20.666646,
          "velocity": 0.9448818897637795
        },
        {
          "duration": 0.16666649999999805,
          "durationTicks": 48,
          "midi": 24,
          "name": "C1",
          "ticks": 6048,
          "time": 20.999979,
          "velocity": 0.9448818897637795
        },
        {
          "duration": 0.1666665000000016,
          "durationTicks": 48,
          "midi": 17,
          "name": "F0",
          "ticks": 6144,
          "time": 21.333312,
          "velocity": 0.9448818897637795
        },
        {
          "duration": 0.1666665000000016,
          "durationTicks": 48,
          "midi": 17,
          "name": "F0",
          "ticks": 6240,
          "time": 21.666645,
          "velocity": 0.9448818897637795
        },
        {
          "duration": 0.1666665000000016,
          "durationTicks": 48,
          "midi": 17,
          "name": "F0",
          "ticks": 6336,
          "time": 21.999978,
          "velocity": 0.9448818897637795
        },
        {
          "duration": 0.1666665000000016,
          "durationTicks": 48,
          "midi": 17,
          "name": "F0",
          "ticks": 6432,
          "time": 22.333311,
          "velocity": 0.9448818897637795
        },
        {
          "duration": 0.1666665000000016,
          "durationTicks": 48,
          "midi": 16,
          "name": "E0",
          "ticks": 6528,
          "time": 22.666643999999998,
          "velocity": 0.9448818897637795
        },
        {
          "duration": 0.1666665000000016,
          "durationTicks": 48,
          "midi": 16,
          "name": "E0",
          "ticks": 6624,
          "time": 22.999976999999998,
          "velocity": 0.9448818897637795
        },
        {
          "duration": 0.16666649999999805,
          "durationTicks": 48,
          "midi": 16,
          "name": "E0",
          "ticks": 6720,
          "time": 23.33331,
          "velocity": 0.9448818897637795
        },
        {
          "duration": 0.16666649999999805,
          "durationTicks": 48,
          "midi": 16,
          "name": "E0",
          "ticks": 6816,
          "time": 23.666643,
          "velocity": 0.9448818897637795
        },
        {
          "duration": 0.16666649999999805,
          "durationTicks": 48,
          "midi": 21,
          "name": "A0",
          "ticks": 6912,
          "time": 23.999976,
          "velocity": 0.9448818897637795
        },
        {
          "duration": 0.16666649999999805,
          "durationTicks": 48,
          "midi": 21,
          "name": "A0",
          "ticks": 7008,
          "time": 24.333309,
          "velocity": 0.9448818897637795
        },
        {
          "duration": 0.16666649999999805,
          "durationTicks": 48,
          "midi": 21,
          "name": "A0",
          "ticks": 7104,
          "time": 24.666642,
          "velocity": 0.9448818897637795
        },
        {
          "duration": 0.1666665000000016,
          "durationTicks": 48,
          "midi": 21,
          "name": "A0",
          "ticks": 7200,
          "time": 24.999975,
          "velocity": 0.9448818897637795
        },
        {
          "duration": 0.1666665000000016,
          "durationTicks": 48,
          "midi": 24,
          "name": "C1",
          "ticks": 7296,
          "time": 25.333308,
          "velocity": 0.9448818897637795
        },
        {
          "duration": 0.1666665000000016,
          "durationTicks": 48,
          "midi": 24,
          "name": "C1",
          "ticks": 7392,
          "time": 25.666641,
          "velocity": 0.9448818897637795
        },
        {
          "duration": 0.1666665000000016,
          "durationTicks": 48,
          "midi": 24,
          "name": "C1",
          "ticks": 7488,
          "time": 25.999973999999998,
          "velocity": 0.9448818897637795
        },
        {
          "duration": 0.1666665000000016,
          "durationTicks": 48,
          "midi": 24,
          "name": "C1",
          "ticks": 7584,
          "time": 26.333306999999998,
          "velocity": 0.9448818897637795
        },
        {
          "duration": 0.16666649999999805,
          "durationTicks": 48,
          "midi": 17,
          "name": "F0",
          "ticks": 7680,
          "time": 26.66664,
          "velocity": 0.9448818897637795
        },
        {
          "duration": 0.16666649999999805,
          "durationTicks": 48,
          "midi": 17,
          "name": "F0",
          "ticks": 7776,
          "time": 26.999973,
          "velocity": 0.9448818897637795
        },
        {
          "duration": 0.16666649999999805,
          "durationTicks": 48,
          "midi": 17,
          "name": "F0",
          "ticks": 7872,
          "time": 27.333306,
          "velocity": 0.9448818897637795
        },
        {
          "duration": 0.16666649999999805,
          "durationTicks": 48,
          "midi": 17,
          "name": "F0",
          "ticks": 7968,
          "time": 27.666639,
          "velocity": 0.9448818897637795
        },
        {
          "duration": 0.16666649999999805,
          "durationTicks": 48,
          "midi": 16,
          "name": "E0",
          "ticks": 8064,
          "time": 27.999972,
          "velocity": 0.9448818897637795
        },
        {
          "duration": 0.1666665000000016,
          "durationTicks": 48,
          "midi": 16,
          "name": "E0",
          "ticks": 8160,
          "time": 28.333305,
          "velocity": 0.9448818897637795
        },
        {
          "duration": 0.1666665000000016,
          "durationTicks": 48,
          "midi": 16,
          "name": "E0",
          "ticks": 8256,
          "time": 28.666638,
          "velocity": 0.9448818897637795
        },
        {
          "duration": 0.1666665000000016,
          "durationTicks": 48,
          "midi": 16,
          "name": "E0",
          "ticks": 8352,
          "time": 28.999971,
          "velocity": 0.9448818897637795
        },
        {
          "duration": 0.1666665000000016,
          "durationTicks": 48,
          "midi": 21,
          "name": "A0",
          "ticks": 8448,
          "time": 29.333304,
          "velocity": 0.9448818897637795
        },
        {
          "duration": 0.1666665000000016,
          "durationTicks": 48,
          "midi": 21,
          "name": "A0",
          "ticks": 8544,
          "time": 29.666636999999998,
          "velocity": 0.9448818897637795
        },
        {
          "duration": 0.1666665000000016,
          "durationTicks": 48,
          "midi": 21,
          "name": "A0",
          "ticks": 8640,
          "time": 29.999969999999998,
          "velocity": 0.9448818897637795
        },
        {
          "duration": 0.16666649999999805,
          "durationTicks": 48,
          "midi": 21,
          "name": "A0",
          "ticks": 8736,
          "time": 30.333303,
          "velocity": 0.9448818897637795
        },
        {
          "duration": 0.16666649999999805,
          "durationTicks": 48,
          "midi": 24,
          "name": "C1",
          "ticks": 8832,
          "time": 30.666636,
          "velocity": 0.9448818897637795
        },
        {
          "duration": 0.16666649999999805,
          "durationTicks": 48,
          "midi": 24,
          "name": "C1",
          "ticks": 8928,
          "time": 30.999969,
          "velocity": 0.9448818897637795
        },
        {
          "duration": 0.16666649999999805,
          "durationTicks": 48,
          "midi": 24,
          "name": "C1",
          "ticks": 9024,
          "time": 31.333302,
          "velocity": 0.9448818897637795
        },
        {
          "duration": 0.16666649999999805,
          "durationTicks": 48,
          "midi": 24,
          "name": "C1",
          "ticks": 9120,
          "time": 31.666635,
          "velocity": 0.9448818897637795
        },
        {
          "duration": 0.1666665000000016,
          "durationTicks": 48,
          "midi": 17,
          "name": "F0",
          "ticks": 9216,
          "time": 31.999968,
          "velocity": 0.9448818897637795
        },
        {
          "duration": 0.16666649999999805,
          "durationTicks": 48,
          "midi": 17,
          "name": "F0",
          "ticks": 9312,
          "time": 32.333301,
          "velocity": 0.9448818897637795
        },
        {
          "duration": 0.16666649999999805,
          "durationTicks": 48,
          "midi": 17,
          "name": "F0",
          "ticks": 9408,
          "time": 32.666634,
          "velocity": 0.9448818897637795
        },
        {
          "duration": 0.16666649999999805,
          "durationTicks": 48,
          "midi": 17,
          "name": "F0",
          "ticks": 9504,
          "time": 32.999967,
          "velocity": 0.9448818897637795
        },
        {
          "duration": 0.16666649999999805,
          "durationTicks": 48,
          "midi": 16,
          "name": "E0",
          "ticks": 9600,
          "time": 33.3333,
          "velocity": 0.9448818897637795
        },
        {
          "duration": 0.16666650000000516,
          "durationTicks": 48,
          "midi": 16,
          "name": "E0",
          "ticks": 9696,
          "time": 33.666633,
          "velocity": 0.9448818897637795
        },
        {
          "duration": 0.16666649999999805,
          "durationTicks": 48,
          "midi": 16,
          "name": "E0",
          "ticks": 9792,
          "time": 33.999966,
          "velocity": 0.9448818897637795
        },
        {
          "duration": 0.16666650000000516,
          "durationTicks": 48,
          "midi": 16,
          "name": "E0",
          "ticks": 9888,
          "time": 34.333299,
          "velocity": 0.9448818897637795
        },
        {
          "duration": 0.16666649999999805,
          "durationTicks": 48,
          "midi": 26,
          "name": "D1",
          "ticks": 9984,
          "time": 34.666632,
          "velocity": 0.9448818897637795
        },
        {
          "duration": 0.16666650000000516,
          "durationTicks": 48,
          "midi": 26,
          "name": "D1",
          "ticks": 10080,
          "time": 34.999964999999996,
          "velocity": 0.9448818897637795
        },
        {
          "duration": 0.16666649999999805,
          "durationTicks": 48,
          "midi": 26,
          "name": "D1",
          "ticks": 10176,
          "time": 35.333298,
          "velocity": 0.9448818897637795
        },
        {
          "duration": 0.16666649999999805,
          "durationTicks": 48,
          "midi": 26,
          "name": "D1",
          "ticks": 10272,
          "time": 35.666631,
          "velocity": 0.9448818897637795
        },
        {
          "duration": 0.16666649999999805,
          "durationTicks": 48,
          "midi": 28,
          "name": "E1",
          "ticks": 10368,
          "time": 35.999964,
          "velocity": 0.9448818897637795
        },
        {
          "duration": 0.16666649999999805,
          "durationTicks": 48,
          "midi": 28,
          "name": "E1",
          "ticks": 10464,
          "time": 36.333297,
          "velocity": 0.9448818897637795
        },
        {
          "duration": 0.16666649999999805,
          "durationTicks": 48,
          "midi": 28,
          "name": "E1",
          "ticks": 10560,
          "time": 36.66663,
          "velocity": 0.9448818897637795
        },
        {
          "duration": 0.16666649999999805,
          "durationTicks": 48,
          "midi": 28,
          "name": "E1",
          "ticks": 10656,
          "time": 36.999963,
          "velocity": 0.9448818897637795
        },
        {
          "duration": 0.16666650000000516,
          "durationTicks": 48,
          "midi": 21,
          "name": "A0",
          "ticks": 10752,
          "time": 37.333296,
          "velocity": 0.9448818897637795
        },
        {
          "duration": 0.16666649999999805,
          "durationTicks": 48,
          "midi": 21,
          "name": "A0",
          "ticks": 10848,
          "time": 37.666629,
          "velocity": 0.9448818897637795
        },
        {
          "duration": 0.16666650000000516,
          "durationTicks": 48,
          "midi": 21,
          "name": "A0",
          "ticks": 10944,
          "time": 37.999962,
          "velocity": 0.9448818897637795
        },
        {
          "duration": 0.16666649999999805,
          "durationTicks": 48,
          "midi": 21,
          "name": "A0",
          "ticks": 11040,
          "time": 38.333295,
          "velocity": 0.9448818897637795
        },
        {
          "duration": 0.16666650000000516,
          "durationTicks": 48,
          "midi": 24,
          "name": "C1",
          "ticks": 11136,
          "time": 38.666627999999996,
          "velocity": 0.9448818897637795
        },
        {
          "duration": 0.16666649999999805,
          "durationTicks": 48,
          "midi": 24,
          "name": "C1",
          "ticks": 11232,
          "time": 38.999961,
          "velocity": 0.9448818897637795
        },
        {
          "duration": 0.16666649999999805,
          "durationTicks": 48,
          "midi": 24,
          "name": "C1",
          "ticks": 11328,
          "time": 39.333294,
          "velocity": 0.9448818897637795
        },
        {
          "duration": 0.16666649999999805,
          "durationTicks": 48,
          "midi": 24,
          "name": "C1",
          "ticks": 11424,
          "time": 39.666627,
          "velocity": 0.9448818897637795
        },
        {
          "duration": 0.16666649999999805,
          "durationTicks": 48,
          "midi": 26,
          "name": "D1",
          "ticks": 11520,
          "time": 39.99996,
          "velocity": 0.9448818897637795
        },
        {
          "duration": 0.16666649999999805,
          "durationTicks": 48,
          "midi": 26,
          "name": "D1",
          "ticks": 11616,
          "time": 40.333293,
          "velocity": 0.9448818897637795
        },
        {
          "duration": 0.16666649999999805,
          "durationTicks": 48,
          "midi": 26,
          "name": "D1",
          "ticks": 11712,
          "time": 40.666626,
          "velocity": 0.9448818897637795
        },
        {
          "duration": 0.16666650000000516,
          "durationTicks": 48,
          "midi": 26,
          "name": "D1",
          "ticks": 11808,
          "time": 40.999959,
          "velocity": 0.9448818897637795
        },
        {
          "duration": 0.16666649999999805,
          "durationTicks": 48,
          "midi": 28,
          "name": "E1",
          "ticks": 11904,
          "time": 41.333292,
          "velocity": 0.9448818897637795
        },
        {
          "duration": 0.16666650000000516,
          "durationTicks": 48,
          "midi": 28,
          "name": "E1",
          "ticks": 12000,
          "time": 41.666624999999996,
          "velocity": 0.9448818897637795
        },
        {
          "duration": 0.16666649999999805,
          "durationTicks": 48,
          "midi": 28,
          "name": "E1",
          "ticks": 12096,
          "time": 41.999958,
          "velocity": 0.9448818897637795
        },
        {
          "duration": 0.16666650000000516,
          "durationTicks": 48,
          "midi": 28,
          "name": "E1",
          "ticks": 12192,
          "time": 42.333290999999996,
          "velocity": 0.9448818897637795
        },
        {
          "duration": 0.16666649999999805,
          "durationTicks": 48,
          "midi": 21,
          "name": "A0",
          "ticks": 12288,
          "time": 42.666624,
          "velocity": 0.9448818897637795
        },
        {
          "duration": 0.16666649999999805,
          "durationTicks": 48,
          "midi": 21,
          "name": "A0",
          "ticks": 12384,
          "time": 42.999957,
          "velocity": 0.9448818897637795
        },
        {
          "duration": 0.16666649999999805,
          "durationTicks": 48,
          "midi": 21,
          "name": "A0",
          "ticks": 12480,
          "time": 43.33329,
          "velocity": 0.9448818897637795
        },
        {
          "duration": 0.16666649999999805,
          "durationTicks": 48,
          "midi": 21,
          "name": "A0",
          "ticks": 12576,
          "time": 43.666623,
          "velocity": 0.9448818897637795
        },
        {
          "duration": 0.16666649999999805,
          "durationTicks": 48,
          "midi": 24,
          "name": "C1",
          "ticks": 12672,
          "time": 43.999956,
          "velocity": 0.9448818897637795
        },
        {
          "duration": 0.16666649999999805,
          "durationTicks": 48,
          "midi": 24,
          "name": "C1",
          "ticks": 12768,
          "time": 44.333289,
          "velocity": 0.9448818897637795
        },
        {
          "duration": 0.16666650000000516,
          "durationTicks": 48,
          "midi": 24,
          "name": "C1",
          "ticks": 12864,
          "time": 44.666622,
          "velocity": 0.9448818897637795
        },
        {
          "duration": 0.16666649999999805,
          "durationTicks": 48,
          "midi": 24,
          "name": "C1",
          "ticks": 12960,
          "time": 44.999955,
          "velocity": 0.9448818897637795
        },
        {
          "duration": 0.16666650000000516,
          "durationTicks": 48,
          "midi": 26,
          "name": "D1",
          "ticks": 13056,
          "time": 45.333287999999996,
          "velocity": 0.9448818897637795
        },
        {
          "duration": 0.16666649999999805,
          "durationTicks": 48,
          "midi": 26,
          "name": "D1",
          "ticks": 13152,
          "time": 45.666621,
          "velocity": 0.9448818897637795
        },
        {
          "duration": 0.16666650000000516,
          "durationTicks": 48,
          "midi": 26,
          "name": "D1",
          "ticks": 13248,
          "time": 45.999953999999995,
          "velocity": 0.9448818897637795
        },
        {
          "duration": 0.16666649999999805,
          "durationTicks": 48,
          "midi": 26,
          "name": "D1",
          "ticks": 13344,
          "time": 46.333287,
          "velocity": 0.9448818897637795
        },
        {
          "duration": 0.16666649999999805,
          "durationTicks": 48,
          "midi": 28,
          "name": "E1",
          "ticks": 13440,
          "time": 46.66662,
          "velocity": 0.9448818897637795
        },
        {
          "duration": 0.16666649999999805,
          "durationTicks": 48,
          "midi": 28,
          "name": "E1",
          "ticks": 13536,
          "time": 46.999953,
          "velocity": 0.9448818897637795
        },
        {
          "duration": 0.16666649999999805,
          "durationTicks": 48,
          "midi": 28,
          "name": "E1",
          "ticks": 13632,
          "time": 47.333286,
          "velocity": 0.9448818897637795
        },
        {
          "duration": 0.16666649999999805,
          "durationTicks": 48,
          "midi": 28,
          "name": "E1",
          "ticks": 13728,
          "time": 47.666619,
          "velocity": 0.9448818897637795
        },
        {
          "duration": 0.16666649999999805,
          "durationTicks": 48,
          "midi": 21,
          "name": "A0",
          "ticks": 13824,
          "time": 47.999952,
          "velocity": 0.9448818897637795
        },
        {
          "duration": 0.16666650000000516,
          "durationTicks": 48,
          "midi": 21,
          "name": "A0",
          "ticks": 13920,
          "time": 48.333285,
          "velocity": 0.9448818897637795
        },
        {
          "duration": 0.16666649999999805,
          "durationTicks": 48,
          "midi": 21,
          "name": "A0",
          "ticks": 14016,
          "time": 48.666618,
          "velocity": 0.9448818897637795
        },
        {
          "duration": 0.16666650000000516,
          "durationTicks": 48,
          "midi": 21,
          "name": "A0",
          "ticks": 14112,
          "time": 48.999950999999996,
          "velocity": 0.9448818897637795
        },
        {
          "duration": 0.16666649999999805,
          "durationTicks": 48,
          "midi": 24,
          "name": "C1",
          "ticks": 14208,
          "time": 49.333284,
          "velocity": 0.9448818897637795
        },
        {
          "duration": 0.16666650000000516,
          "durationTicks": 48,
          "midi": 24,
          "name": "C1",
          "ticks": 14304,
          "time": 49.666616999999995,
          "velocity": 0.9448818897637795
        },
        {
          "duration": 0.16666649999999805,
          "durationTicks": 48,
          "midi": 24,
          "name": "C1",
          "ticks": 14400,
          "time": 49.99995,
          "velocity": 0.9448818897637795
        },
        {
          "duration": 0.16666649999999805,
          "durationTicks": 48,
          "midi": 24,
          "name": "C1",
          "ticks": 14496,
          "time": 50.333283,
          "velocity": 0.9448818897637795
        },
        {
          "duration": 0.16666649999999805,
          "durationTicks": 48,
          "midi": 26,
          "name": "D1",
          "ticks": 14592,
          "time": 50.666616,
          "velocity": 0.9448818897637795
        },
        {
          "duration": 0.16666649999999805,
          "durationTicks": 48,
          "midi": 26,
          "name": "D1",
          "ticks": 14688,
          "time": 50.999949,
          "velocity": 0.9448818897637795
        },
        {
          "duration": 0.16666649999999805,
          "durationTicks": 48,
          "midi": 26,
          "name": "D1",
          "ticks": 14784,
          "time": 51.333282,
          "velocity": 0.9448818897637795
        },
        {
          "duration": 0.16666649999999805,
          "durationTicks": 48,
          "midi": 26,
          "name": "D1",
          "ticks": 14880,
          "time": 51.666615,
          "velocity": 0.9448818897637795
        },
        {
          "duration": 0.16666650000000516,
          "durationTicks": 48,
          "midi": 28,
          "name": "E1",
          "ticks": 14976,
          "time": 51.999947999999996,
          "velocity": 0.9448818897637795
        },
        {
          "duration": 0.16666649999999805,
          "durationTicks": 48,
          "midi": 28,
          "name": "E1",
          "ticks": 15072,
          "time": 52.333281,
          "velocity": 0.9448818897637795
        },
        {
          "duration": 0.16666650000000516,
          "durationTicks": 48,
          "midi": 28,
          "name": "E1",
          "ticks": 15168,
          "time": 52.666613999999996,
          "velocity": 0.9448818897637795
        },
        {
          "duration": 0.16666649999999805,
          "durationTicks": 48,
          "midi": 28,
          "name": "E1",
          "ticks": 15264,
          "time": 52.999947,
          "velocity": 0.9448818897637795
        },
        {
          "duration": 0.16666649999999805,
          "durationTicks": 48,
          "midi": 21,
          "name": "A0",
          "ticks": 15360,
          "time": 53.33328,
          "velocity": 0.9448818897637795
        },
        {
          "duration": 0.08333325000000258,
          "durationTicks": 24,
          "midi": 16,
          "name": "E0",
          "ticks": 15984,
          "time": 55.4999445,
          "velocity": 0.9448818897637795
        },
        {
          "duration": 0.08333325000000258,
          "durationTicks": 24,
          "midi": 18,
          "name": "F#0",
          "ticks": 16032,
          "time": 55.666610999999996,
          "velocity": 0.9448818897637795
        },
        {
          "duration": 0.08333324999999547,
          "durationTicks": 24,
          "midi": 20,
          "name": "G#0",
          "ticks": 16080,
          "time": 55.8332775,
          "velocity": 0.9448818897637795
        },
        {
          "duration": 0.24999975000000063,
          "durationTicks": 72,
          "midi": 21,
          "name": "A0",
          "ticks": 16128,
          "time": 55.999944,
          "velocity": 0.9448818897637795
        },
        {
          "duration": 0.24999975000000063,
          "durationTicks": 72,
          "midi": 21,
          "name": "A0",
          "ticks": 16224,
          "time": 56.333276999999995,
          "velocity": 0.9448818897637795
        },
        {
          "duration": 0.16666649999999805,
          "durationTicks": 48,
          "midi": 21,
          "name": "A0",
          "ticks": 16320,
          "time": 56.66661,
          "velocity": 0.9448818897637795
        },
        {
          "duration": 0.08333325000000258,
          "durationTicks": 24,
          "midi": 21,
          "name": "A0",
          "ticks": 16368,
          "time": 56.8332765,
          "velocity": 0.9448818897637795
        },
        {
          "duration": 0.08333325000000258,
          "durationTicks": 24,
          "midi": 21,
          "name": "A0",
          "ticks": 16392,
          "time": 56.91660975,
          "velocity": 0.9448818897637795
        },
        {
          "duration": 0.24999974999999353,
          "durationTicks": 72,
          "midi": 21,
          "name": "A0",
          "ticks": 16416,
          "time": 56.999943,
          "velocity": 0.9448818897637795
        },
        {
          "duration": 0.24999975000000063,
          "durationTicks": 72,
          "midi": 24,
          "name": "C1",
          "ticks": 16512,
          "time": 57.333276,
          "velocity": 0.9448818897637795
        },
        {
          "duration": 0.24999975000000063,
          "durationTicks": 72,
          "midi": 24,
          "name": "C1",
          "ticks": 16608,
          "time": 57.666609,
          "velocity": 0.9448818897637795
        },
        {
          "duration": 0.24999975000000063,
          "durationTicks": 72,
          "midi": 24,
          "name": "C1",
          "ticks": 16704,
          "time": 57.999942,
          "velocity": 0.9448818897637795
        },
        {
          "duration": 0.24999975000000063,
          "durationTicks": 72,
          "midi": 17,
          "name": "F0",
          "ticks": 16896,
          "time": 58.666608,
          "velocity": 0.9448818897637795
        },
        {
          "duration": 0.24999975000000063,
          "durationTicks": 72,
          "midi": 17,
          "name": "F0",
          "ticks": 16992,
          "time": 58.999941,
          "velocity": 0.9448818897637795
        },
        {
          "duration": 0.24999975000000063,
          "durationTicks": 72,
          "midi": 17,
          "name": "F0",
          "ticks": 17088,
          "time": 59.333273999999996,
          "velocity": 0.9448818897637795
        },
        {
          "duration": 0.24999975000000063,
          "durationTicks": 72,
          "midi": 17,
          "name": "F0",
          "ticks": 17184,
          "time": 59.666607,
          "velocity": 0.9448818897637795
        },
        {
          "duration": 0.24999975000000063,
          "durationTicks": 72,
          "midi": 16,
          "name": "E0",
          "ticks": 17280,
          "time": 59.999939999999995,
          "velocity": 0.9448818897637795
        },
        {
          "duration": 0.24999975000000063,
          "durationTicks": 72,
          "midi": 16,
          "name": "E0",
          "ticks": 17376,
          "time": 60.333273,
          "velocity": 0.9448818897637795
        },
        {
          "duration": 0.24999974999999353,
          "durationTicks": 72,
          "midi": 16,
          "name": "E0",
          "ticks": 17472,
          "time": 60.666606,
          "velocity": 0.9448818897637795
        },
        {
          "duration": 0.24999975000000063,
          "durationTicks": 72,
          "midi": 16,
          "name": "E0",
          "ticks": 17568,
          "time": 60.999939,
          "velocity": 0.9448818897637795
        },
        {
          "duration": 0.24999975000000063,
          "durationTicks": 72,
          "midi": 21,
          "name": "A0",
          "ticks": 17664,
          "time": 61.333272,
          "velocity": 0.9448818897637795
        },
        {
          "duration": 0.24999975000000063,
          "durationTicks": 72,
          "midi": 21,
          "name": "A0",
          "ticks": 17760,
          "time": 61.666605,
          "velocity": 0.9448818897637795
        },
        {
          "duration": 0.16666649999999805,
          "durationTicks": 48,
          "midi": 21,
          "name": "A0",
          "ticks": 17856,
          "time": 61.999938,
          "velocity": 0.9448818897637795
        },
        {
          "duration": 0.08333325000000258,
          "durationTicks": 24,
          "midi": 21,
          "name": "A0",
          "ticks": 17904,
          "time": 62.1666045,
          "velocity": 0.9448818897637795
        },
        {
          "duration": 0.08333324999999547,
          "durationTicks": 24,
          "midi": 21,
          "name": "A0",
          "ticks": 17928,
          "time": 62.24993775,
          "velocity": 0.9448818897637795
        },
        {
          "duration": 0.24999975000000063,
          "durationTicks": 72,
          "midi": 21,
          "name": "A0",
          "ticks": 17952,
          "time": 62.333270999999996,
          "velocity": 0.9448818897637795
        },
        {
          "duration": 0.24999975000000063,
          "durationTicks": 72,
          "midi": 24,
          "name": "C1",
          "ticks": 18048,
          "time": 62.666604,
          "velocity": 0.9448818897637795
        },
        {
          "duration": 0.24999975000000063,
          "durationTicks": 72,
          "midi": 24,
          "name": "C1",
          "ticks": 18144,
          "time": 62.999936999999996,
          "velocity": 0.9448818897637795
        },
        {
          "duration": 0.24999975000000063,
          "durationTicks": 72,
          "midi": 24,
          "name": "C1",
          "ticks": 18240,
          "time": 63.33327,
          "velocity": 0.9448818897637795
        },
        {
          "duration": 0.24999975000000063,
          "durationTicks": 72,
          "midi": 24,
          "name": "C1",
          "ticks": 18336,
          "time": 63.666602999999995,
          "velocity": 0.9448818897637795
        },
        {
          "duration": 0.24999974999999353,
          "durationTicks": 72,
          "midi": 17,
          "name": "F0",
          "ticks": 18432,
          "time": 63.999936,
          "velocity": 0.9448818897637795
        },
        {
          "duration": 0.24999975000000063,
          "durationTicks": 72,
          "midi": 17,
          "name": "F0",
          "ticks": 18528,
          "time": 64.333269,
          "velocity": 0.9448818897637795
        },
        {
          "duration": 0.24999975000000063,
          "durationTicks": 72,
          "midi": 17,
          "name": "F0",
          "ticks": 18624,
          "time": 64.666602,
          "velocity": 0.9448818897637795
        },
        {
          "duration": 0.24999975000000063,
          "durationTicks": 72,
          "midi": 17,
          "name": "F0",
          "ticks": 18720,
          "time": 64.999935,
          "velocity": 0.9448818897637795
        },
        {
          "duration": 0.24999975000000063,
          "durationTicks": 72,
          "midi": 16,
          "name": "E0",
          "ticks": 18816,
          "time": 65.333268,
          "velocity": 0.9448818897637795
        },
        {
          "duration": 0.24999975000000063,
          "durationTicks": 72,
          "midi": 16,
          "name": "E0",
          "ticks": 18912,
          "time": 65.666601,
          "velocity": 0.9448818897637795
        },
        {
          "duration": 0.24999975000000063,
          "durationTicks": 72,
          "midi": 16,
          "name": "E0",
          "ticks": 19008,
          "time": 65.999934,
          "velocity": 0.9448818897637795
        },
        {
          "duration": 0.24999975000000063,
          "durationTicks": 72,
          "midi": 16,
          "name": "E0",
          "ticks": 19104,
          "time": 66.33326699999999,
          "velocity": 0.9448818897637795
        },
        {
          "duration": 0.24999975000000063,
          "durationTicks": 72,
          "midi": 21,
          "name": "A0",
          "ticks": 19200,
          "time": 66.6666,
          "velocity": 0.9448818897637795
        },
        {
          "duration": 0.24999975000000063,
          "durationTicks": 72,
          "midi": 21,
          "name": "A0",
          "ticks": 19296,
          "time": 66.999933,
          "velocity": 0.9448818897637795
        },
        {
          "duration": 0.24999975000000063,
          "durationTicks": 72,
          "midi": 21,
          "name": "A0",
          "ticks": 19392,
          "time": 67.333266,
          "velocity": 0.9448818897637795
        },
        {
          "duration": 0.24999974999998642,
          "durationTicks": 72,
          "midi": 21,
          "name": "A0",
          "ticks": 19488,
          "time": 67.666599,
          "velocity": 0.9448818897637795
        },
        {
          "duration": 0.24999975000000063,
          "durationTicks": 72,
          "midi": 24,
          "name": "C1",
          "ticks": 19584,
          "time": 67.999932,
          "velocity": 0.9448818897637795
        },
        {
          "duration": 0.24999975000000063,
          "durationTicks": 72,
          "midi": 24,
          "name": "C1",
          "ticks": 19680,
          "time": 68.333265,
          "velocity": 0.9448818897637795
        },
        {
          "duration": 0.24999975000000063,
          "durationTicks": 72,
          "midi": 24,
          "name": "C1",
          "ticks": 19776,
          "time": 68.666598,
          "velocity": 0.9448818897637795
        },
        {
          "duration": 0.24999975000000063,
          "durationTicks": 72,
          "midi": 24,
          "name": "C1",
          "ticks": 19872,
          "time": 68.999931,
          "velocity": 0.9448818897637795
        },
        {
          "duration": 0.24999975000000063,
          "durationTicks": 72,
          "midi": 17,
          "name": "F0",
          "ticks": 19968,
          "time": 69.333264,
          "velocity": 0.9448818897637795
        },
        {
          "duration": 0.24999975000000063,
          "durationTicks": 72,
          "midi": 17,
          "name": "F0",
          "ticks": 20064,
          "time": 69.666597,
          "velocity": 0.9448818897637795
        },
        {
          "duration": 0.24999975000000063,
          "durationTicks": 72,
          "midi": 17,
          "name": "F0",
          "ticks": 20160,
          "time": 69.99992999999999,
          "velocity": 0.9448818897637795
        },
        {
          "duration": 0.24999975000000063,
          "durationTicks": 72,
          "midi": 17,
          "name": "F0",
          "ticks": 20256,
          "time": 70.333263,
          "velocity": 0.9448818897637795
        },
        {
          "duration": 0.24999975000000063,
          "durationTicks": 72,
          "midi": 16,
          "name": "E0",
          "ticks": 20352,
          "time": 70.666596,
          "velocity": 0.9448818897637795
        },
        {
          "duration": 0.24999975000000063,
          "durationTicks": 72,
          "midi": 16,
          "name": "E0",
          "ticks": 20448,
          "time": 70.999929,
          "velocity": 0.9448818897637795
        },
        {
          "duration": 0.24999974999998642,
          "durationTicks": 72,
          "midi": 16,
          "name": "E0",
          "ticks": 20544,
          "time": 71.333262,
          "velocity": 0.9448818897637795
        },
        {
          "duration": 0.24999975000000063,
          "durationTicks": 72,
          "midi": 16,
          "name": "E0",
          "ticks": 20640,
          "time": 71.666595,
          "velocity": 0.9448818897637795
        },
        {
          "duration": 0.24999975000000063,
          "durationTicks": 72,
          "midi": 21,
          "name": "A0",
          "ticks": 20736,
          "time": 71.999928,
          "velocity": 0.9448818897637795
        },
        {
          "duration": 0.24999975000000063,
          "durationTicks": 72,
          "midi": 21,
          "name": "A0",
          "ticks": 20832,
          "time": 72.333261,
          "velocity": 0.9448818897637795
        },
        {
          "duration": 0.24999975000000063,
          "durationTicks": 72,
          "midi": 21,
          "name": "A0",
          "ticks": 20928,
          "time": 72.666594,
          "velocity": 0.9448818897637795
        },
        {
          "duration": 0.24999975000000063,
          "durationTicks": 72,
          "midi": 21,
          "name": "A0",
          "ticks": 21024,
          "time": 72.999927,
          "velocity": 0.9448818897637795
        },
        {
          "duration": 0.24999975000000063,
          "durationTicks": 72,
          "midi": 24,
          "name": "C1",
          "ticks": 21120,
          "time": 73.33326,
          "velocity": 0.9448818897637795
        },
        {
          "duration": 0.24999975000000063,
          "durationTicks": 72,
          "midi": 24,
          "name": "C1",
          "ticks": 21216,
          "time": 73.66659299999999,
          "velocity": 0.9448818897637795
        },
        {
          "duration": 0.24999975000000063,
          "durationTicks": 72,
          "midi": 24,
          "name": "C1",
          "ticks": 21312,
          "time": 73.999926,
          "velocity": 0.9448818897637795
        },
        {
          "duration": 0.24999975000000063,
          "durationTicks": 72,
          "midi": 24,
          "name": "C1",
          "ticks": 21408,
          "time": 74.333259,
          "velocity": 0.9448818897637795
        },
        {
          "duration": 0.24999975000000063,
          "durationTicks": 72,
          "midi": 17,
          "name": "F0",
          "ticks": 21504,
          "time": 74.666592,
          "velocity": 0.9448818897637795
        },
        {
          "duration": 0.24999974999998642,
          "durationTicks": 72,
          "midi": 17,
          "name": "F0",
          "ticks": 21600,
          "time": 74.999925,
          "velocity": 0.9448818897637795
        },
        {
          "duration": 0.24999975000000063,
          "durationTicks": 72,
          "midi": 17,
          "name": "F0",
          "ticks": 21696,
          "time": 75.333258,
          "velocity": 0.9448818897637795
        },
        {
          "duration": 0.24999975000000063,
          "durationTicks": 72,
          "midi": 17,
          "name": "F0",
          "ticks": 21792,
          "time": 75.666591,
          "velocity": 0.9448818897637795
        },
        {
          "duration": 0.24999975000000063,
          "durationTicks": 72,
          "midi": 16,
          "name": "E0",
          "ticks": 21888,
          "time": 75.999924,
          "velocity": 0.9448818897637795
        },
        {
          "duration": 0.24999975000000063,
          "durationTicks": 72,
          "midi": 16,
          "name": "E0",
          "ticks": 21984,
          "time": 76.333257,
          "velocity": 0.9448818897637795
        },
        {
          "duration": 0.24999975000000063,
          "durationTicks": 72,
          "midi": 16,
          "name": "E0",
          "ticks": 22080,
          "time": 76.66659,
          "velocity": 0.9448818897637795
        },
        {
          "duration": 0.24999975000000063,
          "durationTicks": 72,
          "midi": 16,
          "name": "E0",
          "ticks": 22176,
          "time": 76.999923,
          "velocity": 0.9448818897637795
        },
        {
          "duration": 0.24999975000000063,
          "durationTicks": 72,
          "midi": 21,
          "name": "A0",
          "ticks": 22272,
          "time": 77.33325599999999,
          "velocity": 0.9448818897637795
        },
        {
          "duration": 0.24999975000000063,
          "durationTicks": 72,
          "midi": 21,
          "name": "A0",
          "ticks": 22368,
          "time": 77.666589,
          "velocity": 0.9448818897637795
        },
        {
          "duration": 0.24999975000000063,
          "durationTicks": 72,
          "midi": 21,
          "name": "A0",
          "ticks": 22464,
          "time": 77.999922,
          "velocity": 0.9448818897637795
        },
        {
          "duration": 0.24999975000000063,
          "durationTicks": 72,
          "midi": 21,
          "name": "A0",
          "ticks": 22560,
          "time": 78.333255,
          "velocity": 0.9448818897637795
        },
        {
          "duration": 0.24999974999998642,
          "durationTicks": 72,
          "midi": 24,
          "name": "C1",
          "ticks": 22656,
          "time": 78.666588,
          "velocity": 0.9448818897637795
        },
        {
          "duration": 0.24999975000000063,
          "durationTicks": 72,
          "midi": 24,
          "name": "C1",
          "ticks": 22752,
          "time": 78.999921,
          "velocity": 0.9448818897637795
        },
        {
          "duration": 0.24999975000000063,
          "durationTicks": 72,
          "midi": 24,
          "name": "C1",
          "ticks": 22848,
          "time": 79.333254,
          "velocity": 0.9448818897637795
        },
        {
          "duration": 0.24999975000000063,
          "durationTicks": 72,
          "midi": 24,
          "name": "C1",
          "ticks": 22944,
          "time": 79.66658699999999,
          "velocity": 0.9448818897637795
        },
        {
          "duration": 0.24999975000000063,
          "durationTicks": 72,
          "midi": 17,
          "name": "F0",
          "ticks": 23040,
          "time": 79.99992,
          "velocity": 0.9448818897637795
        },
        {
          "duration": 0.24999975000000063,
          "durationTicks": 72,
          "midi": 17,
          "name": "F0",
          "ticks": 23136,
          "time": 80.333253,
          "velocity": 0.9448818897637795
        },
        {
          "duration": 0.24999975000000063,
          "durationTicks": 72,
          "midi": 17,
          "name": "F0",
          "ticks": 23232,
          "time": 80.666586,
          "velocity": 0.9448818897637795
        },
        {
          "duration": 0.24999975000000063,
          "durationTicks": 72,
          "midi": 17,
          "name": "F0",
          "ticks": 23328,
          "time": 80.99991899999999,
          "velocity": 0.9448818897637795
        },
        {
          "duration": 0.24999975000000063,
          "durationTicks": 72,
          "midi": 16,
          "name": "E0",
          "ticks": 23424,
          "time": 81.333252,
          "velocity": 0.9448818897637795
        },
        {
          "duration": 0.24999975000000063,
          "durationTicks": 72,
          "midi": 16,
          "name": "E0",
          "ticks": 23520,
          "time": 81.666585,
          "velocity": 0.9448818897637795
        },
        {
          "duration": 0.24999975000000063,
          "durationTicks": 72,
          "midi": 16,
          "name": "E0",
          "ticks": 23616,
          "time": 81.999918,
          "velocity": 0.9448818897637795
        },
        {
          "duration": 0.24999974999998642,
          "durationTicks": 72,
          "midi": 16,
          "name": "E0",
          "ticks": 23712,
          "time": 82.333251,
          "velocity": 0.9448818897637795
        },
        {
          "duration": 0.24999975000000063,
          "durationTicks": 72,
          "midi": 21,
          "name": "A0",
          "ticks": 23808,
          "time": 82.666584,
          "velocity": 0.9448818897637795
        },
        {
          "duration": 0.24999975000000063,
          "durationTicks": 72,
          "midi": 21,
          "name": "A0",
          "ticks": 23904,
          "time": 82.999917,
          "velocity": 0.9448818897637795
        },
        {
          "duration": 0.24999975000000063,
          "durationTicks": 72,
          "midi": 21,
          "name": "A0",
          "ticks": 24000,
          "time": 83.33324999999999,
          "velocity": 0.9448818897637795
        },
        {
          "duration": 0.24999975000000063,
          "durationTicks": 72,
          "midi": 21,
          "name": "A0",
          "ticks": 24096,
          "time": 83.666583,
          "velocity": 0.9448818897637795
        },
        {
          "duration": 0.24999975000000063,
          "durationTicks": 72,
          "midi": 24,
          "name": "C1",
          "ticks": 24192,
          "time": 83.999916,
          "velocity": 0.9448818897637795
        },
        {
          "duration": 0.24999975000000063,
          "durationTicks": 72,
          "midi": 24,
          "name": "C1",
          "ticks": 24288,
          "time": 84.333249,
          "velocity": 0.9448818897637795
        },
        {
          "duration": 0.24999975000000063,
          "durationTicks": 72,
          "midi": 24,
          "name": "C1",
          "ticks": 24384,
          "time": 84.66658199999999,
          "velocity": 0.9448818897637795
        },
        {
          "duration": 0.24999975000000063,
          "durationTicks": 72,
          "midi": 24,
          "name": "C1",
          "ticks": 24480,
          "time": 84.999915,
          "velocity": 0.9448818897637795
        },
        {
          "duration": 0.24999975000000063,
          "durationTicks": 72,
          "midi": 17,
          "name": "F0",
          "ticks": 24576,
          "time": 85.333248,
          "velocity": 0.9448818897637795
        },
        {
          "duration": 0.24999975000000063,
          "durationTicks": 72,
          "midi": 17,
          "name": "F0",
          "ticks": 24672,
          "time": 85.666581,
          "velocity": 0.9448818897637795
        },
        {
          "duration": 0.24999975000000063,
          "durationTicks": 72,
          "midi": 17,
          "name": "F0",
          "ticks": 24768,
          "time": 85.999914,
          "velocity": 0.9448818897637795
        },
        {
          "duration": 0.24999975000000063,
          "durationTicks": 72,
          "midi": 17,
          "name": "F0",
          "ticks": 24864,
          "time": 86.333247,
          "velocity": 0.9448818897637795
        },
        {
          "duration": 0.24999975000000063,
          "durationTicks": 72,
          "midi": 16,
          "name": "E0",
          "ticks": 24960,
          "time": 86.66658,
          "velocity": 0.9448818897637795
        },
        {
          "duration": 0.24999975000000063,
          "durationTicks": 72,
          "midi": 16,
          "name": "E0",
          "ticks": 25056,
          "time": 86.99991299999999,
          "velocity": 0.9448818897637795
        },
        {
          "duration": 0.24999975000000063,
          "durationTicks": 72,
          "midi": 16,
          "name": "E0",
          "ticks": 25152,
          "time": 87.333246,
          "velocity": 0.9448818897637795
        },
        {
          "duration": 0.24999975000000063,
          "durationTicks": 72,
          "midi": 16,
          "name": "E0",
          "ticks": 25248,
          "time": 87.666579,
          "velocity": 0.9448818897637795
        },
        {
          "duration": 0.24999975000000063,
          "durationTicks": 72,
          "midi": 21,
          "name": "A0",
          "ticks": 25344,
          "time": 87.999912,
          "velocity": 0.9448818897637795
        },
        {
          "duration": 0.24999975000000063,
          "durationTicks": 72,
          "midi": 21,
          "name": "A0",
          "ticks": 25440,
          "time": 88.33324499999999,
          "velocity": 0.9448818897637795
        },
        {
          "duration": 0.24999975000000063,
          "durationTicks": 72,
          "midi": 21,
          "name": "A0",
          "ticks": 25536,
          "time": 88.666578,
          "velocity": 0.9448818897637795
        },
        {
          "duration": 0.24999975000000063,
          "durationTicks": 72,
          "midi": 21,
          "name": "A0",
          "ticks": 25632,
          "time": 88.999911,
          "velocity": 0.9448818897637795
        },
        {
          "duration": 0.24999975000000063,
          "durationTicks": 72,
          "midi": 24,
          "name": "C1",
          "ticks": 25728,
          "time": 89.333244,
          "velocity": 0.9448818897637795
        },
        {
          "duration": 0.24999975000000063,
          "durationTicks": 72,
          "midi": 24,
          "name": "C1",
          "ticks": 25824,
          "time": 89.666577,
          "velocity": 0.9448818897637795
        },
        {
          "duration": 0.24999975000000063,
          "durationTicks": 72,
          "midi": 24,
          "name": "C1",
          "ticks": 25920,
          "time": 89.99991,
          "velocity": 0.9448818897637795
        },
        {
          "duration": 0.24999975000000063,
          "durationTicks": 72,
          "midi": 24,
          "name": "C1",
          "ticks": 26016,
          "time": 90.333243,
          "velocity": 0.9448818897637795
        },
        {
          "duration": 0.24999975000000063,
          "durationTicks": 72,
          "midi": 17,
          "name": "F0",
          "ticks": 26112,
          "time": 90.66657599999999,
          "velocity": 0.9448818897637795
        },
        {
          "duration": 0.24999975000000063,
          "durationTicks": 72,
          "midi": 17,
          "name": "F0",
          "ticks": 26208,
          "time": 90.999909,
          "velocity": 0.9448818897637795
        },
        {
          "duration": 0.24999975000000063,
          "durationTicks": 72,
          "midi": 17,
          "name": "F0",
          "ticks": 26304,
          "time": 91.333242,
          "velocity": 0.9448818897637795
        },
        {
          "duration": 0.24999975000000063,
          "durationTicks": 72,
          "midi": 17,
          "name": "F0",
          "ticks": 26400,
          "time": 91.666575,
          "velocity": 0.9448818897637795
        },
        {
          "duration": 0.24999975000000063,
          "durationTicks": 72,
          "midi": 16,
          "name": "E0",
          "ticks": 26496,
          "time": 91.99990799999999,
          "velocity": 0.9448818897637795
        },
        {
          "duration": 0.24999975000000063,
          "durationTicks": 72,
          "midi": 16,
          "name": "E0",
          "ticks": 26592,
          "time": 92.333241,
          "velocity": 0.9448818897637795
        },
        {
          "duration": 0.24999975000000063,
          "durationTicks": 72,
          "midi": 16,
          "name": "E0",
          "ticks": 26688,
          "time": 92.666574,
          "velocity": 0.9448818897637795
        },
        {
          "duration": 0.24999975000000063,
          "durationTicks": 72,
          "midi": 16,
          "name": "E0",
          "ticks": 26784,
          "time": 92.999907,
          "velocity": 0.9448818897637795
        },
        {
          "duration": 0.24999975000000063,
          "durationTicks": 72,
          "midi": 21,
          "name": "A0",
          "ticks": 26880,
          "time": 93.33324,
          "velocity": 0.9448818897637795
        },
        {
          "duration": 0.24999975000000063,
          "durationTicks": 72,
          "midi": 21,
          "name": "A0",
          "ticks": 26976,
          "time": 93.666573,
          "velocity": 0.9448818897637795
        },
        {
          "duration": 0.24999975000000063,
          "durationTicks": 72,
          "midi": 21,
          "name": "A0",
          "ticks": 27072,
          "time": 93.999906,
          "velocity": 0.9448818897637795
        },
        {
          "duration": 0.24999975000000063,
          "durationTicks": 72,
          "midi": 21,
          "name": "A0",
          "ticks": 27168,
          "time": 94.33323899999999,
          "velocity": 0.9448818897637795
        },
        {
          "duration": 0.24999975000000063,
          "durationTicks": 72,
          "midi": 24,
          "name": "C1",
          "ticks": 27264,
          "time": 94.666572,
          "velocity": 0.9448818897637795
        },
        {
          "duration": 0.24999975000000063,
          "durationTicks": 72,
          "midi": 24,
          "name": "C1",
          "ticks": 27360,
          "time": 94.999905,
          "velocity": 0.9448818897637795
        },
        {
          "duration": 0.24999975000000063,
          "durationTicks": 72,
          "midi": 24,
          "name": "C1",
          "ticks": 27456,
          "time": 95.333238,
          "velocity": 0.9448818897637795
        },
        {
          "duration": 0.24999975000000063,
          "durationTicks": 72,
          "midi": 24,
          "name": "C1",
          "ticks": 27552,
          "time": 95.66657099999999,
          "velocity": 0.9448818897637795
        },
        {
          "duration": 0.24999975000000063,
          "durationTicks": 72,
          "midi": 17,
          "name": "F0",
          "ticks": 27648,
          "time": 95.999904,
          "velocity": 0.9448818897637795
        },
        {
          "duration": 0.24999975000000063,
          "durationTicks": 72,
          "midi": 17,
          "name": "F0",
          "ticks": 27744,
          "time": 96.333237,
          "velocity": 0.9448818897637795
        },
        {
          "duration": 0.24999975000000063,
          "durationTicks": 72,
          "midi": 17,
          "name": "F0",
          "ticks": 27840,
          "time": 96.66657,
          "velocity": 0.9448818897637795
        },
        {
          "duration": 0.24999975000000063,
          "durationTicks": 72,
          "midi": 17,
          "name": "F0",
          "ticks": 27936,
          "time": 96.999903,
          "velocity": 0.9448818897637795
        },
        {
          "duration": 0.24999975000000063,
          "durationTicks": 72,
          "midi": 16,
          "name": "E0",
          "ticks": 28032,
          "time": 97.333236,
          "velocity": 0.9448818897637795
        },
        {
          "duration": 0.24999975000000063,
          "durationTicks": 72,
          "midi": 16,
          "name": "E0",
          "ticks": 28128,
          "time": 97.666569,
          "velocity": 0.9448818897637795
        },
        {
          "duration": 0.24999975000000063,
          "durationTicks": 72,
          "midi": 16,
          "name": "E0",
          "ticks": 28224,
          "time": 97.99990199999999,
          "velocity": 0.9448818897637795
        },
        {
          "duration": 0.24999975000000063,
          "durationTicks": 72,
          "midi": 16,
          "name": "E0",
          "ticks": 28320,
          "time": 98.333235,
          "velocity": 0.9448818897637795
        },
        {
          "duration": 0.16666650000000516,
          "durationTicks": 48,
          "midi": 26,
          "name": "D1",
          "ticks": 28416,
          "time": 98.666568,
          "velocity": 0.9448818897637795
        },
        {
          "duration": 0.16666650000000516,
          "durationTicks": 48,
          "midi": 26,
          "name": "D1",
          "ticks": 28512,
          "time": 98.999901,
          "velocity": 0.9448818897637795
        },
        {
          "duration": 0.16666650000000516,
          "durationTicks": 48,
          "midi": 26,
          "name": "D1",
          "ticks": 28608,
          "time": 99.33323399999999,
          "velocity": 0.9448818897637795
        },
        {
          "duration": 0.16666649999999095,
          "durationTicks": 48,
          "midi": 26,
          "name": "D1",
          "ticks": 28704,
          "time": 99.666567,
          "velocity": 0.9448818897637795
        },
        {
          "duration": 0.16666650000000516,
          "durationTicks": 48,
          "midi": 28,
          "name": "E1",
          "ticks": 28800,
          "time": 99.9999,
          "velocity": 0.9448818897637795
        },
        {
          "duration": 0.16666650000000516,
          "durationTicks": 48,
          "midi": 28,
          "name": "E1",
          "ticks": 28896,
          "time": 100.33323299999999,
          "velocity": 0.9448818897637795
        },
        {
          "duration": 0.16666649999999095,
          "durationTicks": 48,
          "midi": 28,
          "name": "E1",
          "ticks": 28992,
          "time": 100.666566,
          "velocity": 0.9448818897637795
        },
        {
          "duration": 0.16666649999999095,
          "durationTicks": 48,
          "midi": 28,
          "name": "E1",
          "ticks": 29088,
          "time": 100.999899,
          "velocity": 0.9448818897637795
        },
        {
          "duration": 0.16666650000000516,
          "durationTicks": 48,
          "midi": 21,
          "name": "A0",
          "ticks": 29184,
          "time": 101.333232,
          "velocity": 0.9448818897637795
        },
        {
          "duration": 0.16666650000000516,
          "durationTicks": 48,
          "midi": 21,
          "name": "A0",
          "ticks": 29280,
          "time": 101.66656499999999,
          "velocity": 0.9448818897637795
        },
        {
          "duration": 0.16666649999999095,
          "durationTicks": 48,
          "midi": 21,
          "name": "A0",
          "ticks": 29376,
          "time": 101.999898,
          "velocity": 0.9448818897637795
        },
        {
          "duration": 0.16666650000000516,
          "durationTicks": 48,
          "midi": 21,
          "name": "A0",
          "ticks": 29472,
          "time": 102.333231,
          "velocity": 0.9448818897637795
        },
        {
          "duration": 0.16666650000000516,
          "durationTicks": 48,
          "midi": 24,
          "name": "C1",
          "ticks": 29568,
          "time": 102.666564,
          "velocity": 0.9448818897637795
        },
        {
          "duration": 0.16666650000000516,
          "durationTicks": 48,
          "midi": 24,
          "name": "C1",
          "ticks": 29664,
          "time": 102.99989699999999,
          "velocity": 0.9448818897637795
        },
        {
          "duration": 0.16666649999999095,
          "durationTicks": 48,
          "midi": 24,
          "name": "C1",
          "ticks": 29760,
          "time": 103.33323,
          "velocity": 0.9448818897637795
        },
        {
          "duration": 0.16666650000000516,
          "durationTicks": 48,
          "midi": 24,
          "name": "C1",
          "ticks": 29856,
          "time": 103.666563,
          "velocity": 0.9448818897637795
        },
        {
          "duration": 0.16666650000000516,
          "durationTicks": 48,
          "midi": 26,
          "name": "D1",
          "ticks": 29952,
          "time": 103.99989599999999,
          "velocity": 0.9448818897637795
        },
        {
          "duration": 0.16666649999999095,
          "durationTicks": 48,
          "midi": 26,
          "name": "D1",
          "ticks": 30048,
          "time": 104.333229,
          "velocity": 0.9448818897637795
        },
        {
          "duration": 0.16666649999999095,
          "durationTicks": 48,
          "midi": 26,
          "name": "D1",
          "ticks": 30144,
          "time": 104.666562,
          "velocity": 0.9448818897637795
        },
        {
          "duration": 0.16666650000000516,
          "durationTicks": 48,
          "midi": 26,
          "name": "D1",
          "ticks": 30240,
          "time": 104.999895,
          "velocity": 0.9448818897637795
        },
        {
          "duration": 0.16666650000000516,
          "durationTicks": 48,
          "midi": 28,
          "name": "E1",
          "ticks": 30336,
          "time": 105.33322799999999,
          "velocity": 0.9448818897637795
        },
        {
          "duration": 0.16666649999999095,
          "durationTicks": 48,
          "midi": 28,
          "name": "E1",
          "ticks": 30432,
          "time": 105.666561,
          "velocity": 0.9448818897637795
        },
        {
          "duration": 0.16666650000000516,
          "durationTicks": 48,
          "midi": 28,
          "name": "E1",
          "ticks": 30528,
          "time": 105.999894,
          "velocity": 0.9448818897637795
        },
        {
          "duration": 0.16666650000000516,
          "durationTicks": 48,
          "midi": 28,
          "name": "E1",
          "ticks": 30624,
          "time": 106.333227,
          "velocity": 0.9448818897637795
        },
        {
          "duration": 0.16666649999999095,
          "durationTicks": 48,
          "midi": 21,
          "name": "A0",
          "ticks": 30720,
          "time": 106.66656,
          "velocity": 0.9448818897637795
        },
        {
          "duration": 0.16666649999999095,
          "durationTicks": 48,
          "midi": 21,
          "name": "A0",
          "ticks": 30816,
          "time": 106.999893,
          "velocity": 0.9448818897637795
        },
        {
          "duration": 0.16666650000000516,
          "durationTicks": 48,
          "midi": 21,
          "name": "A0",
          "ticks": 30912,
          "time": 107.333226,
          "velocity": 0.9448818897637795
        },
        {
          "duration": 0.16666650000000516,
          "durationTicks": 48,
          "midi": 21,
          "name": "A0",
          "ticks": 31008,
          "time": 107.66655899999999,
          "velocity": 0.9448818897637795
        },
        {
          "duration": 0.16666649999999095,
          "durationTicks": 48,
          "midi": 24,
          "name": "C1",
          "ticks": 31104,
          "time": 107.999892,
          "velocity": 0.9448818897637795
        },
        {
          "duration": 0.16666650000000516,
          "durationTicks": 48,
          "midi": 24,
          "name": "C1",
          "ticks": 31200,
          "time": 108.333225,
          "velocity": 0.9448818897637795
        },
        {
          "duration": 0.16666650000000516,
          "durationTicks": 48,
          "midi": 24,
          "name": "C1",
          "ticks": 31296,
          "time": 108.666558,
          "velocity": 0.9448818897637795
        },
        {
          "duration": 0.16666650000000516,
          "durationTicks": 48,
          "midi": 24,
          "name": "C1",
          "ticks": 31392,
          "time": 108.99989099999999,
          "velocity": 0.9448818897637795
        },
        {
          "duration": 0.16666649999999095,
          "durationTicks": 48,
          "midi": 26,
          "name": "D1",
          "ticks": 31488,
          "time": 109.333224,
          "velocity": 0.9448818897637795
        },
        {
          "duration": 0.16666650000000516,
          "durationTicks": 48,
          "midi": 26,
          "name": "D1",
          "ticks": 31584,
          "time": 109.666557,
          "velocity": 0.9448818897637795
        },
        {
          "duration": 0.16666650000000516,
          "durationTicks": 48,
          "midi": 26,
          "name": "D1",
          "ticks": 31680,
          "time": 109.99989,
          "velocity": 0.9448818897637795
        },
        {
          "duration": 0.16666649999999095,
          "durationTicks": 48,
          "midi": 26,
          "name": "D1",
          "ticks": 31776,
          "time": 110.333223,
          "velocity": 0.9448818897637795
        },
        {
          "duration": 0.16666649999999095,
          "durationTicks": 48,
          "midi": 28,
          "name": "E1",
          "ticks": 31872,
          "time": 110.666556,
          "velocity": 0.9448818897637795
        },
        {
          "duration": 0.16666650000000516,
          "durationTicks": 48,
          "midi": 28,
          "name": "E1",
          "ticks": 31968,
          "time": 110.999889,
          "velocity": 0.9448818897637795
        },
        {
          "duration": 0.16666650000000516,
          "durationTicks": 48,
          "midi": 28,
          "name": "E1",
          "ticks": 32064,
          "time": 111.33322199999999,
          "velocity": 0.9448818897637795
        },
        {
          "duration": 0.16666649999999095,
          "durationTicks": 48,
          "midi": 28,
          "name": "E1",
          "ticks": 32160,
          "time": 111.666555,
          "velocity": 0.9448818897637795
        },
        {
          "duration": 0.16666650000000516,
          "durationTicks": 48,
          "midi": 21,
          "name": "A0",
          "ticks": 32256,
          "time": 111.999888,
          "velocity": 0.9448818897637795
        },
        {
          "duration": 0.16666650000000516,
          "durationTicks": 48,
          "midi": 21,
          "name": "A0",
          "ticks": 32352,
          "time": 112.333221,
          "velocity": 0.9448818897637795
        },
        {
          "duration": 0.16666650000000516,
          "durationTicks": 48,
          "midi": 21,
          "name": "A0",
          "ticks": 32448,
          "time": 112.66655399999999,
          "velocity": 0.9448818897637795
        },
        {
          "duration": 0.16666649999999095,
          "durationTicks": 48,
          "midi": 21,
          "name": "A0",
          "ticks": 32544,
          "time": 112.999887,
          "velocity": 0.9448818897637795
        },
        {
          "duration": 0.16666650000000516,
          "durationTicks": 48,
          "midi": 24,
          "name": "C1",
          "ticks": 32640,
          "time": 113.33322,
          "velocity": 0.9448818897637795
        },
        {
          "duration": 0.16666650000000516,
          "durationTicks": 48,
          "midi": 24,
          "name": "C1",
          "ticks": 32736,
          "time": 113.666553,
          "velocity": 0.9448818897637795
        },
        {
          "duration": 0.16666649999999095,
          "durationTicks": 48,
          "midi": 24,
          "name": "C1",
          "ticks": 32832,
          "time": 113.999886,
          "velocity": 0.9448818897637795
        },
        {
          "duration": 0.16666649999999095,
          "durationTicks": 48,
          "midi": 24,
          "name": "C1",
          "ticks": 32928,
          "time": 114.333219,
          "velocity": 0.9448818897637795
        },
        {
          "duration": 0.16666650000000516,
          "durationTicks": 48,
          "midi": 26,
          "name": "D1",
          "ticks": 33024,
          "time": 114.666552,
          "velocity": 0.9448818897637795
        },
        {
          "duration": 0.16666650000000516,
          "durationTicks": 48,
          "midi": 26,
          "name": "D1",
          "ticks": 33120,
          "time": 114.99988499999999,
          "velocity": 0.9448818897637795
        },
        {
          "duration": 0.16666649999999095,
          "durationTicks": 48,
          "midi": 26,
          "name": "D1",
          "ticks": 33216,
          "time": 115.333218,
          "velocity": 0.9448818897637795
        },
        {
          "duration": 0.16666650000000516,
          "durationTicks": 48,
          "midi": 26,
          "name": "D1",
          "ticks": 33312,
          "time": 115.666551,
          "velocity": 0.9448818897637795
        },
        {
          "duration": 0.16666650000000516,
          "durationTicks": 48,
          "midi": 28,
          "name": "E1",
          "ticks": 33408,
          "time": 115.999884,
          "velocity": 0.9448818897637795
        },
        {
          "duration": 0.16666650000000516,
          "durationTicks": 48,
          "midi": 28,
          "name": "E1",
          "ticks": 33504,
          "time": 116.33321699999999,
          "velocity": 0.9448818897637795
        },
        {
          "duration": 0.16666649999999095,
          "durationTicks": 48,
          "midi": 28,
          "name": "E1",
          "ticks": 33600,
          "time": 116.66655,
          "velocity": 0.9448818897637795
        },
        {
          "duration": 0.16666650000000516,
          "durationTicks": 48,
          "midi": 28,
          "name": "E1",
          "ticks": 33696,
          "time": 116.999883,
          "velocity": 0.9448818897637795
        },
        {
          "duration": 0.3333330000000103,
          "durationTicks": 96,
          "midi": 21,
          "name": "A0",
          "ticks": 33792,
          "time": 117.333216,
          "velocity": 0.9448818897637795
        },
        {
          "duration": 0.3333329999999961,
          "durationTicks": 96,
          "midi": 28,
          "name": "E1",
          "ticks": 34464,
          "time": 119.666547,
          "velocity": 0.9448818897637795
        },
        {
          "duration": 0.3333330000000103,
          "durationTicks": 96,
          "midi": 21,
          "name": "A0",
          "ticks": 34560,
          "time": 119.99987999999999,
          "velocity": 0.9448818897637795
        }
      ]
    }
  ]
}
